<?xml version="1.0" encoding="utf-8"?>
<!-- Generator: Adobe Illustrator 19.0.0, SVG Export Plug-In . SVG Version: 6.00 Build 0)  -->
<svg version="1.1" id="Layer_1" xmlns="http://www.w3.org/2000/svg" xmlns:xlink="http://www.w3.org/1999/xlink" x="0px" y="0px"
	 viewBox="0 0 183.7 94.6" style="enable-background:new 0 0 183.7 94.6;" xml:space="preserve">
<style type="text/css">
	.st0{clip-path:url(#SVGID_2_);}
	.st1{clip-path:url(#SVGID_6_);fill:none;stroke:#5E3327;stroke-width:0.942;}
	.st2{clip-path:url(#SVGID_6_);fill:#5E3327;}
	.st3{clip-path:url(#SVGID_6_);fill:#A41F35;}
</style>
<g>
	<defs>
		<path id="SVGID_1_" d="M29.9,34.9c-2.6-2.6-5.8-4.9-9.8-6.8c-2.8-8.3-3.1-14.7-0.8-19.2c0.7-1.4,1.8-2.2,3.3-2.4
			c1.3-0.2,2.7,0,4.1,0.7c1.9,0.9,3.7,2.7,5.3,5.1c1,4.8,1.1,10.8,0.4,17.9c-0.8,7.5-2.2,13.2-4.4,17.2c0.6-0.2,1.2-0.4,1.7-0.7
			c0.1,0.7,0.3,1.3,0.5,2c1.9-4.2,5.6-8.8,11-14c5.2-4.9,10-8.4,14.5-10.6c3-0.2,5.4,0.2,7.3,1.1c1.4,0.7,2.5,1.7,3.1,2.8
			c0.7,1.4,0.7,2.7,0,4.1c-2.2,4.5-7.5,8.2-15.8,11c-3.9-2-7.7-3.2-11.3-3.7c-0.2,0.6,0.1,1.3,0.8,2c0.5,0.6,1.1,1,1.8,1.4
			c1.1,0.5,2.5,0.9,4.2,1c1.4,0,2.9,0.1,4.3,0.1c1.6,1.2,2.8,2.7,3.6,4.3c1,1.9,1.1,3.7,0.3,5.3c-1.6,3.3-4.9,4.9-9.8,5
			c-4.1,0-7.9-0.8-11.5-2.6c-2.1-1-4-2.2-5.7-3.7c0.1,0,0.2-0.1,0.2-0.1c-2.4-0.5-4.6-1.4-6.8-2.4c-3.6-1.8-6.6-4.3-9-7.5
			c-2.9-4-3.6-7.6-2-10.8c0.8-1.6,2.2-2.6,4.4-3c1.8-0.3,3.6-0.2,5.6,0.3c0.9,1.2,1.8,2.3,2.7,3.4c1.1,1.3,2.2,2.2,3.3,2.8
			c0.7,0.3,1.4,0.5,2.2,0.6c0.2,0,0.4,0,0.6,0C29.1,35.5,29.6,35.3,29.9,34.9 M19.8,3.2C18,4,16.6,5.3,15.7,7.2
			c-2.7,5.4-1.6,12.1,3.1,20.2c-3.3-0.8-5.7-1.1-7.4-0.9c-2.6,0.2-4.5,1.6-5.7,4c-1.8,3.7-1.3,7.7,1.5,12.1c2.4,3.7,5.7,6.5,9.7,8.5
			c4.1,2,7.5,2.5,10.1,1.5c0.7,2.8,3.1,5.2,7.3,7.3c4,2,8.2,2.8,12.7,2.5c5.2-0.4,8.7-2.4,10.5-6.1c1.2-2.4,1.1-4.7-0.3-7
			c-0.8-1.4-2.6-3.2-5.2-5.3c9.3-1.2,15.2-4.4,17.9-9.8c0.9-1.8,1.1-3.7,0.6-5.7c-0.5-2-1.7-3.4-3.5-4.3c-1.8-0.9-4.6-1.3-8.3-1
			c-5,0.3-10.3,2.3-16,5.8c-2.5,1.6-4.7,3.3-6.5,5c0.3-2.5,0.3-5.3,0-8.3c-0.6-6.7-2.3-12.1-5.1-16.2c-2-3.1-4-5-5.8-5.9
			c-1-0.5-1.9-0.7-2.9-0.7C21.6,2.7,20.7,2.9,19.8,3.2"/>
	</defs>
	<clipPath id="SVGID_2_">
		<use xlink:href="#SVGID_1_"  style="overflow:visible;"/>
	</clipPath>
	<g class="st0">
		<defs>
			<rect id="SVGID_3_" x="3.4" y="1.4" width="68.4" height="62"/>
		</defs>
		<clipPath id="SVGID_4_">
			<use xlink:href="#SVGID_3_"  style="overflow:visible;"/>
		</clipPath>
		<g style="clip-path:url(#SVGID_4_);">
			
				<image style="overflow:visible;" width="223" height="202" xlink:href="C8424BAE.jpg"  transform="matrix(0.3067 0 0 0.3067 3.3558 1.4474)">
			</image>
		</g>
	</g>
</g>
<g>
	<defs>
		<rect id="SVGID_5_" width="183.7" height="94.6"/>
	</defs>
	<clipPath id="SVGID_6_">
		<use xlink:href="#SVGID_5_"  style="overflow:visible;"/>
	</clipPath>
	<path class="st1" d="M43.7,3.2c1.6,2.8,1.1,8.1,0.6,11c-0.5,3.2-1.9,5.8-3.3,8.6c4.7-9.1,17.5-15.1,27.4-14.7"/>
	<path class="st2" d="M44.4,0.9c-0.7-0.3-1.7-0.2-2.4,0c0.3,0.9,0.6,1.8,0.8,2.6c0.1-0.1,0.2-0.1,0.3-0.2c0.3-0.1-0.2,0-0.3,0
		c-0.6-0.1-0.9-0.4-1-1c0,0.1,0.1,0.3,0.1,0.4c0.3,0.4,0.6,0.7,1.1,0.8c0.6,0.1,1.2-0.3,1.4-0.9c0.2-0.7,0-1.5-0.6-1.8
		c-0.7-0.4-1.5-0.3-2.2,0.2c-0.5,0.3-0.9,0.8-0.8,1.5c0.1,0.7,0.9,1.4,1.6,1.1c0.3-0.1,0.6-0.1,0.9-0.2c-0.3,0,0,0,0.1,0
		c0.2,0,0.4,0.1,0,0c0.7,0.3,1.5-0.1,1.8-0.8C45.5,1.9,45.1,1.1,44.4,0.9"/>
	<path class="st2" d="M67.2,6.9c-0.1,0.2-0.2,0.4-0.3,0.5c0,0.1-0.3,0.5,0,0.1C66.6,8,66.6,8.6,67,9c0.2,0.3,0.8,0.5,1.2,0.4
		c0.8-0.2,1.1-0.9,1.3-1.6c-0.6,0.3-1.1,0.5-1.7,0.8c0.6,0.3,1.6,0.4,2.3,0.1c0.9-0.4,1-1.7,0.2-2.3c-0.4-0.3-0.7-0.3-1.2-0.3
		c0,0-0.4,0-0.1,0c-0.2,0-0.1,0-0.3-0.1C68.1,6,67.2,6.3,67.1,7c0,0.2-0.1,0.4-0.2,0.5c-0.1,0.2-0.3,0.5,0,0
		c0.4-0.2,0.8-0.3,1.1-0.5c0,0,0,0,0,0c0.3,0.2,0.7,0.5,1,0.7c0,0.8,0,1,0.1,0.7c0-0.1,0.1-0.3,0.1-0.4c0.2-0.5,0-1.1-0.4-1.4
		C68.4,6.3,67.5,6.3,67.2,6.9"/>
	<path class="st2" d="M115.6,64c0,4.5-2.9,8.6-8.7,12.4c2.5,0.5,4.2,1.1,5.2,1.8c1.7,1,2.5,2.5,2.5,4.6c0,3.1-1.7,5.6-5,7.6
		c-2.8,1.7-5.9,2.5-9.3,2.5c-3.6,0-6.1-0.9-7.5-2.7c1.8,0.4,3.5,0.6,5.3,0.6c3,0,5.8-0.7,8.5-2c3.3-1.7,4.9-3.9,4.9-6.6
		c0-1.3-0.6-2.4-1.9-3.4c-1.1-0.8-2.4-1.4-3.8-1.7c-1,0.5-1.9,0.9-2.9,1.4c-1.2,0.5-2.2,0.8-3.1,0.8c-0.6,0-1.1-0.1-1.7-0.3
		c-0.7-0.3-1.1-0.6-1.2-1.1c2.6-0.9,5.5-1.4,8.8-1.3c4.6-4.6,6.9-8.8,6.9-12.5c0-1.1-0.5-2-1.4-2.7c-0.8-0.6-1.8-0.9-3-0.9
		c-1.6,0-3.3,0.6-5.3,1.7c-2.3,2.9-4.3,6.8-6.2,11.8c-1.9,5.2-2.9,9.5-2.8,12.9c-1.5-1.4-2.2-3.2-2.2-5.4c0-3.6,1.3-7.6,4-12
		c2.6-4.2,5.5-7.3,8.7-9.1c2.4-1.4,4.3-2,5.8-2c1.5,0,2.7,0.6,3.7,1.7C115.1,61.2,115.6,62.5,115.6,64"/>
	<path class="st2" d="M131.8,72.2c0,0.1-0.1,0.3-0.2,0.5c-0.1,0.2-0.2,0.4-0.2,0.6c-0.1,0.1-0.5,0.3-1.1,0.6c-0.5,0.7-1,1.6-1.5,2.8
		c-0.6,1.7-1.1,2.7-1.3,3c0,0.1,0,0.1,0,0.1c0,0.1,0,0.3-0.1,0.5c-0.1,0.2-0.1,0.4-0.1,0.5c-0.2,0.5-0.4,1.3-0.8,2.4
		c0,0.2,0.1,0.6,0.3,1.1c0.2,0.5,0.3,0.9,0.3,1.1c0,0.4-0.2,0.7-0.5,1c-0.3,0.3-0.7,0.4-1.1,0.4c-0.6,0-0.9-0.3-1.2-1
		c-0.1-0.5-0.2-1.1-0.4-1.6c-1.4,1.7-3,2.5-4.9,2.5c-1.3,0-2.2-0.4-2.8-1.3c-0.4-0.5-0.7-1.5-1-3c0.1-0.2,0.2-0.7,0.2-1.6
		c0-0.1,0.1-0.5,0.4-1.2c0.3-0.7,0.4-1.2,0.4-1.5c2.4-4.8,5.4-7.1,9.1-7.1c0.7,0,1.4,0.2,1.9,0.5c0.2,0.3,0.3,0.6,0.3,1
		c0,0.4-0.2,0.8-0.5,1l-0.5,0c-0.3,0-0.8,0-1.3-0.1c-0.7-0.1-1.1-0.1-1.4-0.1c-0.8,0-1.5,0.2-2.4,0.7c-0.8,0.5-1.4,1-1.7,1.7
		l-0.3,0.2c-0.4,0.5-0.8,1.3-1.4,2.4c-0.6,1.2-0.8,2-0.8,2.5c0,1.1,0.2,1.9,0.5,2.4c0.1,0.1,0.7,0.6,1.8,1.4
		c0.1-0.1,0.3-0.2,0.6-0.2c0.3,0,0.5-0.1,0.6-0.2c0.4-0.1,1.3-0.5,2.7-1.3c0.9-1.2,1.6-2.6,2.3-4.1c0.8-1.8,1.3-3,1.7-3.6
		c0-0.2,0-0.5,0.1-1c0.1-0.4,0.2-0.7,0.2-0.9l0.3-0.1c0.2-0.5,0.8-1.2,1.8-2.2l0.4,0c0.3,0,0.5,0.1,0.8,0.3
		C131.7,71.7,131.8,71.9,131.8,72.2"/>
	<path class="st2" d="M144.9,74c-0.4,0.4-0.8,0.7-1.1,0.7c-0.1,0-0.7-0.3-2-0.8c-1.2-0.6-2.1-0.8-2.7-0.8c-1,0-1.7,0.5-2.1,1.6
		c0.2,0.7,0.7,1.5,1.7,2.3l2.5,2.2c0.8,0.9,1.3,2,1.3,3.1c0,1.5-0.6,2.6-1.7,3.5c-1,0.8-2.3,1.2-3.8,1.2c-3.5,0-5.6-1-6.4-3.1
		c0.2-0.7,0.7-1,1.4-1c0.4,0,1.2,0.3,2.5,0.8c1.2,0.5,2.1,0.8,2.7,0.8c0.9,0,1.6-0.2,2.3-0.5c0.8-0.4,1.2-1,1.2-1.8
		c0-0.7-0.9-2-2.6-3.8c-1.7-1.8-2.6-3.2-2.7-4c0.4-1.3,0.9-2.2,1.6-2.6c0.7-0.5,1.7-0.7,3-0.7c2.5,0,4.1,0.6,4.8,1.8V74z"/>
	<path class="st2" d="M161.2,72.6c0,0.5-0.2,0.9-0.7,1.1l-0.4,0c-1.2-0.1-2.5,0.4-4,1.7c-2,1.7-3.2,2.6-3.6,2.8v0.5
		c0.6,1.1,1,2.2,1.2,3.2c0.1,0.6,0.3,1.7,0.4,3.3v0.8c0,1.6,0.4,3,1.1,4.1c0.4,0.7,1.1,1.4,2,2.3c0.7,0.6,1.1,1.1,1.1,1.4
		c0,0.4-0.2,0.7-0.5,0.9c-0.1,0-0.2,0-0.4,0.1c-0.2,0.1-0.3,0.1-0.4,0.1c-0.7,0-1.5-0.3-2.4-1c-0.8-0.7-1.4-1.4-1.6-2.1
		c-0.4-1.4-0.6-3.3-0.6-5.8v-3v-0.5v-0.3c-0.3-0.7-0.7-1.3-1-2c-0.4-0.7-1.1-1-1.9-1c-0.3,0-0.5,0.1-0.8,0.2c-1.1,2.5-1.6,4.5-1.6,6
		c-0.4,1-0.9,1.7-1.6,2.1h-0.2c-0.4,0-0.8-0.2-1.1-0.5c-0.3-0.3-0.4-0.7-0.4-1.1l0-0.3c1.1-1.8,2-3.7,2.8-5.7
		c3.2-7.5,4.8-12.4,4.8-14.4c0-0.2-0.1-0.5-0.2-1c-0.1-0.4-0.2-0.7-0.2-1c0-0.3,0.1-0.6,0.3-1c0.2-0.4,0.4-0.5,0.7-0.5
		c0.7,0,1.2,0.2,1.4,0.5c0.1,0.6,0.2,1.1,0.2,1.4c0,0.5-0.1,0.9-0.3,1.3c0,0.3-0.1,0.9-0.5,1.9c-0.4,1-0.6,1.7-0.6,2
		c-0.4,0.9-0.9,2.3-1.6,4.1c-0.7,1.8-1.2,3.2-1.6,4.1c0,0.2,0.3,0.4,0.8,0.6c0.7-0.2,1.5-0.5,2.5-1c1.3-1,2.7-2.5,4.1-4.3
		c1.4-0.9,2.3-1.3,2.6-1.3c0.5,0,1.1,0.2,1.7,0.7C161.1,72,161.2,72.3,161.2,72.6"/>
	<path class="st2" d="M171.6,74.9c0-0.7-0.2-1.1-0.5-1.4c-0.4-0.3-0.8-0.5-1.3-0.8h-0.5c-1.2,0-2.3,0.4-3.2,1.1
		c-0.6,0.4-1.3,1.3-2.3,2.6c-1.1,1.4-1.6,2.5-1.6,3.2c0,0.2,0.1,0.3,0.3,0.3c0.2-0.1,0.4-0.2,0.7-0.3c2.4-0.3,4.7-1.1,6.9-2.3
		c0.3-0.3,0.8-0.7,1.3-1.4C171.5,75.6,171.6,75.3,171.6,74.9 M174.1,74.6c0,1.1-0.5,2.1-1.4,3.1c-1,0.9-2,1.5-3.1,1.8l-3.9,0.8
		c-1.7,0.4-2.9,0.8-3.4,1.3c-0.1,0.2-0.2,0.4-0.3,0.7c0.1,0.7,0.4,1.3,1,1.8c0.6,0.5,1.3,0.7,2,0.7c0.3,0,0.8-0.2,1.6-0.6
		c0.8-0.4,1.5-0.6,1.9-0.6l0.3,0c0.6,0.3,0.8,0.8,0.8,1.3c-0.6,1.5-2.4,2.3-5.4,2.3c-1.2,0-2.2-0.6-3-1.7c-0.7-1-1.1-2.1-1.1-3.4
		c0-2.3,0.9-4.6,2.8-6.9c0.5-0.6,1.7-1.6,3.5-3c1.8-0.5,3.2-0.8,4.1-0.8c1,0,1.9,0.2,2.7,0.6C173.8,72.7,174.1,73.6,174.1,74.6"/>
	<path class="st2" d="M182.8,71.5c0,0.3-0.1,0.6-0.3,1.1c-0.3,0.2-0.7,0.3-1,0.3c-0.4,0-1-0.2-1.7-0.5l-0.3,0.2l-2,5.1
		c-0.6,1.6-1.2,3.3-1.8,5.2c0.2,1.7,0.3,2.5,0.3,2.3c0,0.7-0.2,1.2-0.7,1.5c-0.8,0-1.3-0.1-1.8-0.3c-0.3-0.4-0.5-0.9-0.5-1.4
		c0-0.8,0.8-3,2.4-6.5v-0.5c0.5-1.2,1.3-3,2.4-5.5l-0.2-0.5c-0.1,0-0.2,0-0.3,0c-0.2,0-0.6,0.2-1.3,0.7h-0.7c-0.2-0.1-0.3-0.4-0.3-1
		c0.2-0.6,0.8-0.9,1.6-0.9c0.3,0,0.7,0,1.4,0.1c0.3-0.2,0.6-0.8,1-1.8l0.8-2.2c0-0.4,0.1-0.7,0.2-0.8l0-0.5c0-0.3,0-0.7-0.2-1.3
		c-0.1-0.6-0.2-1-0.2-1.2c0.3-0.7,0.8-1,1.5-1c0.9,0,1.4,0.5,1.4,1.5c0,0.8-0.3,1.9-1,3.6l-1.5,3.6c0,0.3,0.3,0.5,0.8,0.5
		c0.6-0.3,1-0.5,1.2-0.5C182.4,71,182.7,71.1,182.8,71.5"/>
	<path class="st3" d="M23.8,63.7c0,4.5-2.9,8.6-8.7,12.4c2.4,0.5,4.2,1.1,5.2,1.8c1.7,1,2.5,2.5,2.5,4.5c0,3.1-1.7,5.6-5,7.6
		c-2.8,1.7-5.9,2.5-9.3,2.5c-3.6,0-6.1-0.9-7.5-2.7c1.8,0.4,3.5,0.6,5.3,0.6c3,0,5.8-0.7,8.5-2c3.3-1.7,4.9-3.9,4.9-6.6
		c0-1.3-0.6-2.4-1.9-3.4c-1.1-0.8-2.4-1.4-3.8-1.7c-1,0.5-1.9,0.9-2.9,1.4C10,78.7,8.9,78.9,8,78.9c-0.6,0-1.1-0.1-1.7-0.3
		c-0.7-0.3-1.1-0.6-1.2-1.1c2.6-0.9,5.5-1.3,8.8-1.3c4.6-4.6,6.9-8.8,6.9-12.5c0-1.1-0.5-2-1.4-2.7c-0.8-0.6-1.8-0.9-3-0.9
		c-1.6,0-3.3,0.6-5.3,1.7C8.9,64.6,6.8,68.6,5,73.6C3,78.8,2.1,83.1,2.2,86.5C0.7,85.1,0,83.3,0,81.1c0-3.6,1.3-7.6,4-12
		c2.6-4.2,5.5-7.3,8.7-9.1c2.4-1.4,4.3-2,5.8-2c1.5,0,2.7,0.6,3.7,1.7C23.3,60.8,23.8,62.2,23.8,63.7"/>
	<path class="st3" d="M40,71.8c0,0.1-0.1,0.3-0.2,0.5c-0.1,0.2-0.2,0.4-0.2,0.6c-0.1,0.1-0.5,0.3-1.1,0.6c-0.5,0.7-1,1.6-1.5,2.8
		c-0.6,1.7-1.1,2.7-1.3,3c0,0.1,0,0.1,0,0.1c0,0.1,0,0.3-0.1,0.5c-0.1,0.2-0.1,0.4-0.1,0.5c-0.2,0.5-0.4,1.3-0.8,2.4
		c0,0.3,0.1,0.6,0.3,1.1c0.2,0.5,0.3,0.9,0.3,1.1c0,0.4-0.2,0.7-0.5,1s-0.7,0.4-1.1,0.4c-0.6,0-0.9-0.3-1.2-1
		c-0.1-0.5-0.2-1.1-0.4-1.6c-1.4,1.7-3,2.5-4.9,2.5c-1.3,0-2.2-0.4-2.8-1.3c-0.4-0.5-0.7-1.5-1-3c0.1-0.2,0.2-0.7,0.2-1.6
		c0-0.1,0.1-0.5,0.4-1.2c0.3-0.7,0.4-1.2,0.4-1.5c2.4-4.8,5.4-7.1,9.1-7.1c0.7,0,1.4,0.2,1.9,0.5c0.2,0.3,0.3,0.6,0.3,1
		c0,0.4-0.2,0.8-0.5,1l-0.5,0c-0.3,0-0.8,0-1.3-0.1c-0.7-0.1-1.1-0.1-1.4-0.1c-0.8,0-1.5,0.2-2.4,0.7c-0.8,0.5-1.4,1-1.7,1.7
		L28,75.8c-0.4,0.5-0.8,1.3-1.4,2.4c-0.6,1.2-0.8,2-0.8,2.5c0,1.1,0.2,1.9,0.5,2.4c0.1,0.1,0.7,0.6,1.8,1.4c0.1-0.1,0.3-0.2,0.6-0.2
		c0.3,0,0.5-0.1,0.6-0.2c0.4-0.1,1.3-0.5,2.7-1.3c0.9-1.2,1.6-2.6,2.3-4.1c0.8-1.8,1.3-3,1.7-3.6c0-0.2,0-0.6,0.1-1s0.2-0.7,0.2-0.9
		l0.3-0.1c0.2-0.5,0.8-1.2,1.8-2.2l0.4,0c0.3,0,0.5,0.1,0.8,0.3C39.9,71.3,40,71.6,40,71.8"/>
	<path class="st3" d="M53.1,73.7c-0.4,0.4-0.8,0.7-1.1,0.7c-0.1,0-0.7-0.3-2-0.8c-1.2-0.6-2.1-0.8-2.7-0.8c-1,0-1.7,0.5-2.1,1.6
		c0.2,0.7,0.7,1.5,1.7,2.3l2.5,2.2c0.8,0.9,1.3,2,1.3,3.1c0,1.5-0.6,2.6-1.7,3.5c-1,0.8-2.3,1.2-3.8,1.2c-3.5,0-5.6-1-6.4-3.1
		c0.2-0.7,0.7-1,1.4-1c0.4,0,1.2,0.3,2.5,0.8c1.2,0.5,2.1,0.8,2.7,0.8c0.9,0,1.6-0.2,2.3-0.5c0.8-0.4,1.2-1,1.2-1.8
		c0-0.7-0.9-2-2.6-3.8c-1.7-1.8-2.6-3.2-2.7-4c0.4-1.3,0.9-2.2,1.6-2.6s1.7-0.7,3-0.7c2.5,0,4.1,0.6,4.8,1.8V73.7z"/>
	<path class="st3" d="M69.4,72.2c0,0.5-0.2,0.9-0.7,1.1l-0.4,0c-1.2-0.1-2.5,0.4-4,1.7c-2,1.7-3.2,2.6-3.6,2.8v0.5
		c0.6,1.1,1,2.2,1.2,3.2c0.1,0.6,0.3,1.7,0.4,3.3v0.8c0,1.6,0.4,3,1.1,4.1c0.4,0.7,1.1,1.4,2,2.3c0.7,0.6,1.1,1.1,1.1,1.4
		c0,0.4-0.2,0.7-0.5,0.9c-0.1,0-0.2,0-0.4,0.1c-0.2,0.1-0.3,0.1-0.4,0.1c-0.7,0-1.5-0.3-2.4-1c-0.8-0.7-1.4-1.4-1.6-2.1
		c-0.4-1.4-0.6-3.3-0.6-5.8v-3v-0.5v-0.3c-0.3-0.7-0.7-1.3-1-2c-0.4-0.7-1.1-1-1.9-1c-0.3,0-0.5,0.1-0.8,0.2c-1.1,2.5-1.6,4.5-1.6,6
		c-0.4,1-0.9,1.7-1.6,2.1h-0.2c-0.4,0-0.8-0.2-1.1-0.5c-0.3-0.3-0.4-0.7-0.4-1.1l0-0.3c1.1-1.8,2-3.7,2.8-5.7
		c3.2-7.5,4.8-12.4,4.8-14.4c0-0.2-0.1-0.5-0.2-1c-0.1-0.4-0.2-0.7-0.2-1c0-0.3,0.1-0.6,0.3-1c0.2-0.4,0.4-0.5,0.7-0.5
		c0.7,0,1.2,0.2,1.4,0.5c0.1,0.6,0.2,1.1,0.2,1.4c0,0.5-0.1,0.9-0.3,1.3c0,0.3-0.1,0.9-0.5,1.9c-0.4,1-0.6,1.7-0.6,2
		c-0.4,0.9-0.9,2.3-1.6,4.1c-0.7,1.8-1.2,3.2-1.6,4.1c0,0.2,0.3,0.4,0.8,0.6c0.7-0.2,1.5-0.5,2.5-1c1.3-1,2.7-2.5,4.1-4.3
		c1.4-0.9,2.3-1.3,2.6-1.3c0.5,0,1.1,0.2,1.7,0.7C69.3,71.7,69.4,72,69.4,72.2"/>
	<path class="st3" d="M79.8,74.6c0-0.7-0.2-1.1-0.5-1.4c-0.4-0.3-0.8-0.5-1.3-0.8h-0.5c-1.2,0-2.3,0.4-3.2,1.1
		c-0.6,0.4-1.3,1.3-2.3,2.6c-1.1,1.4-1.6,2.5-1.6,3.2c0,0.2,0.1,0.3,0.3,0.3c0.2-0.1,0.4-0.2,0.7-0.3c2.4-0.3,4.7-1.1,6.9-2.3
		c0.3-0.3,0.8-0.7,1.3-1.4C79.7,75.3,79.8,75,79.8,74.6 M82.3,74.3c0,1.1-0.5,2.1-1.4,3c-1,0.9-2,1.5-3.1,1.8l-3.9,0.8
		c-1.7,0.4-2.9,0.8-3.4,1.3c-0.1,0.2-0.2,0.4-0.3,0.7c0.1,0.7,0.4,1.3,1,1.8c0.6,0.5,1.3,0.7,2,0.7c0.3,0,0.8-0.2,1.6-0.6
		c0.8-0.4,1.5-0.6,1.9-0.6l0.3,0c0.6,0.3,0.8,0.7,0.8,1.2c-0.6,1.5-2.4,2.3-5.4,2.3c-1.2,0-2.2-0.6-3-1.7c-0.7-1-1.1-2.1-1.1-3.4
		c0-2.3,0.9-4.6,2.8-6.9c0.5-0.6,1.7-1.6,3.5-3c1.8-0.5,3.2-0.8,4.1-0.8c1,0,1.9,0.2,2.7,0.6C82,72.4,82.3,73.3,82.3,74.3"/>
	<path class="st3" d="M91,71.1c0,0.3-0.1,0.6-0.3,1.1c-0.3,0.2-0.7,0.3-1,0.3c-0.4,0-1-0.2-1.7-0.5l-0.3,0.2l-2,5.1
		c-0.6,1.6-1.2,3.3-1.8,5.2c0.2,1.7,0.3,2.5,0.3,2.3c0,0.7-0.2,1.2-0.7,1.5c-0.8,0-1.3-0.1-1.8-0.3c-0.3-0.4-0.5-0.8-0.5-1.4
		c0-0.8,0.8-3,2.4-6.5v-0.5c0.5-1.2,1.3-3,2.4-5.5l-0.2-0.5c-0.1,0-0.2,0-0.3,0c-0.2,0-0.6,0.2-1.3,0.7h-0.7c-0.2-0.1-0.3-0.4-0.3-1
		c0.2-0.6,0.8-0.9,1.6-0.9c0.3,0,0.7,0,1.4,0.1c0.3-0.2,0.6-0.8,1-1.8l0.8-2.2c0-0.4,0.1-0.7,0.2-0.8l0-0.5c0-0.3,0-0.7-0.2-1.3
		c-0.1-0.6-0.2-1-0.2-1.2c0.3-0.7,0.8-1,1.5-1c0.9,0,1.4,0.5,1.4,1.5c0,0.8-0.3,1.9-1,3.6l-1.5,3.6c0,0.3,0.3,0.5,0.8,0.5
		c0.6-0.3,1-0.5,1.2-0.5C90.6,70.6,90.9,70.8,91,71.1"/>
</g>
</svg>
