<?xml version="1.0" encoding="utf-8"?>
<!-- Generator: Adobe Illustrator 19.0.0, SVG Export Plug-In . SVG Version: 6.00 Build 0)  -->
<svg version="1.1" id="Layer_1" xmlns="http://www.w3.org/2000/svg" xmlns:xlink="http://www.w3.org/1999/xlink" x="0px" y="0px"
	 viewBox="0 0 100 98" style="enable-background:new 0 0 100 98;" xml:space="preserve">
<style type="text/css">
	.st0{clip-path:url(#SVGID_2_);fill:#5E3327;}
	.st1{fill:#FFFFFF;}
</style>
<g>
	<defs>
		<rect id="SVGID_1_" width="100" height="98"/>
	</defs>
	<clipPath id="SVGID_2_">
		<use xlink:href="#SVGID_1_"  style="overflow:visible;"/>
	</clipPath>
	<path class="st0" d="M79.9,45.5c-0.2,2.6-0.3,5.2-0.6,7.8c-1.3,9.9-2,21.1-13.4,24.4c-13,3.7-26.8,5.8-38-5.8
		c-3.2-3.4-6.3-6.9-10.5-11.4c2.3-17.9,9.8-32.6,27.6-40.3C65.7,11.4,81.9,23.1,79.9,45.5 M51,0.8c-8.3,1.7-16.2,6.8-23.6,11.4
		C9.8,23,5.8,42,0.8,59.9c-3.1,11.3,3.1,22.1,11.9,27c18,9.9,37.7,14.7,58.6,8.2c9.1-2.8,15.9-8.3,18.9-17.2
		c3.8-11.2,6.6-22.7,9.8-34.1C99.4,17.1,76.2-4.4,51,0.8"/>
	<path class="st0" d="M50,90.5c21.2,0,38.5-17.2,38.5-38.5c0-21.2-17.2-38.5-38.5-38.5S11.5,30.8,11.5,52
		C11.5,73.2,28.8,90.5,50,90.5"/>
</g>
<polygon class="st1" points="50.2,59.9 69,46.5 44.2,28.9 44.2,64.2 "/>
</svg>
