<?xml version="1.0" encoding="utf-8"?>
<!-- Generator: Adobe Illustrator 26.4.0, SVG Export Plug-In . SVG Version: 6.00 Build 0)  -->
<svg version="1.1" id="Layer_1" xmlns="http://www.w3.org/2000/svg" xmlns:xlink="http://www.w3.org/1999/xlink" x="0px" y="0px"
	 viewBox="0 0 587 960.1" style="enable-background:new 0 0 587 960.1;" xml:space="preserve">
<style type="text/css">
	.st0{fill:#00495E;}
	.st1{fill:#E99700;}
	.st2{fill:#FFFFFF;}
</style>
<g>
	<g>
		<path class="st1" d="M1.3,647.9c1.9,8.4,5.9,16.3,12,22.6l56.5,59L262,927.8l31.3,32.3l31.3-32.3l251.5-259.6
			c4.9-6.1,8.5-13.1,10-20.8l-289.9,124L1.3,647.9z"/>
		<circle class="st1" cx="293.5" cy="525.7" r="47.8"/>
		<polygon class="st1" points="434.6,482.6 293.6,337.1 152.4,482.8 292.3,422.9 		"/>
		<g>
			<path class="st0" d="M0,228v409.5c0,3.5,0.5,7,1.3,10.4l294.9,123.6l289.9-124c0.6-3,0.9-6.1,0.9-9.2V228v-33.6H0V228z
				 M293.5,573.5c-26.4,0-47.8-21.4-47.8-47.8s21.4-47.8,47.8-47.8s47.8,21.4,47.8,47.8S319.9,573.5,293.5,573.5z M293.6,337.1
				l141,145.5l-142.3-59.6l-139.9,59.8L293.6,337.1z"/>
			<polygon class="st0" points="0,0 0,146 0,181.7 587,181.7 587,146 587,0 			"/>
		</g>
	</g>
	<g>
		<g>
			<rect x="168.5" y="35.4" class="st2" width="8" height="40.7"/>
			<polygon class="st2" points="192.1,48.4 211.7,76.1 218.8,76.1 218.8,35.4 211,35.4 211,63.1 191.4,35.4 184.3,35.4 184.3,76.1 
				192.1,76.1 			"/>
			<path class="st2" d="M231.7,76.1h14c5,0,8.9-1.3,11.5-3.9c2.6-2.6,3.9-6.4,3.9-11.4V49.4c0-2.8-0.7-5.3-1.9-7.4
				c-1.3-2.1-3.1-3.8-5.5-4.9c-2.3-1.2-5.1-1.7-8.2-1.7h-19.4v35.3c0,1.6,0.5,2.9,1.6,4C228.7,75.6,230,76.1,231.7,76.1z
				 M234.1,42.5h11.2c2.3,0,4.2,0.7,5.6,2c1.4,1.3,2.2,3.1,2.2,5.3v10.7c0,2.8-0.6,4.9-1.9,6.3c-1.3,1.4-3.2,2.2-5.6,2.2h-11.4V42.5
				z"/>
			<rect x="267.5" y="35.4" class="st2" width="8" height="40.7"/>
			<path class="st2" d="M298.8,76.1h3.8l15.6-40.7h-8.3l-10.8,30.5H299l-10.7-30.5h-8.4l14,37C294.9,74.8,296.5,76.1,298.8,76.1z"/>
			<rect x="322.6" y="35.4" class="st2" width="8" height="40.7"/>
			<path class="st2" d="M344.1,76.1h14c5,0,8.9-1.3,11.5-3.9c2.6-2.6,3.9-6.4,3.9-11.4V49.4c0-2.8-0.7-5.3-1.9-7.4
				c-1.3-2.1-3.1-3.8-5.5-4.9c-2.3-1.2-5.1-1.7-8.2-1.7h-19.4v35.3c0,1.6,0.5,2.9,1.6,4C341.1,75.6,342.4,76.1,344.1,76.1z
				 M346.5,42.5h11.2c2.3,0,4.2,0.7,5.6,2c1.4,1.3,2.2,3.1,2.2,5.3v10.7c0,2.8-0.6,4.9-1.9,6.3c-1.3,1.4-3.2,2.2-5.6,2.2h-11.4V42.5
				z"/>
			<path class="st2" d="M385.9,74.7c2.2,1.2,4.7,1.8,7.6,1.8h6.2c2.9,0,5.4-0.6,7.6-1.8c2.2-1.2,3.9-2.9,5.1-5.1
				c1.2-2.2,1.8-4.8,1.8-7.7V35.4h-8v26.3c0,2.3-0.6,4.2-1.8,5.6c-1.2,1.4-2.8,2.2-4.7,2.2h-6.2c-1.9,0-3.4-0.7-4.6-2.2
				c-1.2-1.4-1.8-3.3-1.8-5.6V35.4h-8v26.5c0,2.9,0.6,5.5,1.8,7.7S383.7,73.5,385.9,74.7z"/>
			<path class="st2" d="M428.3,66.6h15.2l3.5,9.5h8.4l-14.5-37.2c-0.9-2.3-2.6-3.5-5.1-3.5h-3.6l-15.9,40.7h8.4L428.3,66.6z
				 M435.9,45.2L435.9,45.2l5.5,14.7h-10.9L435.9,45.2z"/>
			<path class="st2" d="M464.6,76.1H489v-7h-22.1V35.4h-8v35.3c0,1.6,0.5,2.9,1.5,3.9C461.5,75.6,462.9,76.1,464.6,76.1z"/>
			<path class="st2" d="M515.1,68.4c-1.1,0.7-2.5,1.1-4.2,1.1h-6.5c-1.8,0-3.2-0.6-4.3-1.7c-1-1.1-1.5-2.7-1.5-4.7h-7.9
				c0,4.3,1.2,7.6,3.6,10c2.4,2.4,5.7,3.6,10,3.6h6.7c2.7,0,5.1-0.4,7.2-1.3s3.7-2.1,4.8-3.7c1.1-1.6,1.7-3.4,1.7-5.5v-3.8
				c0-2.5-0.9-4.5-2.8-6.1c-1.9-1.6-4.6-2.7-8.1-3.3L503.2,51c-2.7-0.5-4-1.7-4-3.6v-1.6c0-1.2,0.5-2.1,1.5-2.8c1-0.7,2.3-1,3.9-1
				h6.6c1.5,0,2.7,0.5,3.5,1.5c0.9,1,1.3,2.3,1.3,3.9h7.9c0-2.5-0.5-4.7-1.6-6.5c-1.1-1.9-2.6-3.3-4.5-4.4c-1.9-1-4.2-1.6-6.7-1.6
				h-6.6c-2.7,0-5,0.4-7.1,1.3c-2,0.9-3.6,2.1-4.7,3.6c-1.1,1.6-1.7,3.4-1.7,5.4v3.3c0,2.6,0.9,4.7,2.7,6.3c1.8,1.6,4.5,2.8,7.9,3.3
				l10.7,1.8c2.8,0.5,4.2,1.6,4.2,3.5v2C516.7,66.7,516.2,67.7,515.1,68.4z"/>
			<polygon class="st2" points="158.3,141.1 166.3,141.1 166.3,130.5 176.8,130.5 176.8,123.6 166.3,123.6 166.3,113 158.3,113 
				158.3,123.6 147.8,123.6 147.8,130.5 158.3,130.5 			"/>
			<path class="st2" d="M199.4,105.2v35.3c0,1.6,0.5,2.9,1.5,3.9c1,1,2.4,1.5,4.1,1.5h24.5v-7h-22.1v-33.7H199.4z"/>
			<path class="st2" d="M249.8,105.2h-3.6l-15.9,40.7h8.4l3.6-9.5h15.2l3.5,9.5h8.4l-14.5-37.2C254,106.3,252.3,105.2,249.8,105.2z
				 M244.4,129.7l5.5-14.7h0.1l5.4,14.7H244.4z"/>
			<polygon class="st2" points="299.9,132.9 280.4,105.2 273.2,105.2 273.2,145.9 281.1,145.9 281.1,118.2 300.6,145.9 307.8,145.9 
				307.8,105.2 299.9,105.2 			"/>
			<path class="st2" d="M315,140.4c0,1.6,0.5,2.9,1.6,4c1,1,2.4,1.5,4.1,1.5h14c5,0,8.9-1.3,11.5-3.9c2.6-2.6,3.9-6.4,3.9-11.4
				v-11.4c0-2.8-0.7-5.3-1.9-7.4c-1.3-2.1-3.1-3.8-5.5-4.9c-2.3-1.2-5.1-1.7-8.2-1.7H315V140.4z M323,112.3h11.2
				c2.3,0,4.2,0.7,5.6,2c1.4,1.3,2.2,3.1,2.2,5.3v10.7c0,2.8-0.6,4.9-1.9,6.3c-1.3,1.4-3.2,2.2-5.6,2.2H323V112.3z"/>
			<path class="st2" d="M355.8,105.2v35.3c0,1.6,0.5,2.9,1.5,3.9c1,1,2.4,1.5,4.1,1.5H386v-7h-22.1v-33.7H355.8z"/>
			<path class="st2" d="M417.2,106.7c-2.3-1.3-5.1-1.9-8.1-1.9h-6.2c-3.1,0-5.8,0.6-8.1,1.9c-2.3,1.3-4.2,3.1-5.5,5.5
				c-1.3,2.3-1.9,5.1-1.9,8.2v10.5c0,3.1,0.6,5.8,1.9,8.2c1.3,2.3,3.1,4.2,5.5,5.5c2.3,1.3,5.1,1.9,8.1,1.9h6.2
				c3.1,0,5.8-0.6,8.1-1.9c2.3-1.3,4.2-3.1,5.5-5.5c1.3-2.3,1.9-5.1,1.9-8.2v-10.5c0-3.1-0.7-5.8-1.9-8.2
				C421.3,109.8,419.5,108,417.2,106.7z M416.6,130.4c0,2.6-0.7,4.8-2.1,6.4c-1.4,1.6-3.2,2.4-5.4,2.4h-6.2c-2.2,0-4.1-0.8-5.4-2.4
				c-1.4-1.6-2.1-3.8-2.1-6.4v-9.8c0-2.6,0.7-4.8,2.1-6.4c1.4-1.6,3.2-2.4,5.4-2.4h6.2c2.2,0,4.1,0.8,5.4,2.4
				c1.4,1.6,2.1,3.8,2.1,6.4V130.4z"/>
			<path class="st2" d="M462.3,124.9c1.1-1.5,1.7-3.2,1.7-5.3v-4.1c0-3.1-1.1-5.6-3.2-7.5c-2.2-1.9-5-2.9-8.5-2.9h-21.6v40.7h8
				v-14.6h9.8c1.3,0,2.4,0.4,3.3,1.2c0.9,0.8,1.6,2.1,2.1,3.7l3.1,9.7h8.3l-3.3-10.4c-0.6-1.9-1.2-3.3-1.9-4.4c-0.6-1-1.6-2-2.8-2.8
				v-0.1C459.5,127.5,461.2,126.4,462.3,124.9z M456,119.7c0,1.4-0.5,2.5-1.4,3.4s-2.2,1.3-3.8,1.3h-12.1v-12.2h13.5
				c1.2,0,2.1,0.3,2.8,1c0.7,0.7,1,1.6,1,2.7V119.7z"/>
			<path class="st2" d="M470.1,140.4c0,1.6,0.5,2.9,1.6,4c1,1,2.4,1.5,4.1,1.5h14c5,0,8.9-1.3,11.5-3.9c2.6-2.6,3.9-6.4,3.9-11.4
				v-11.4c0-2.8-0.7-5.3-1.9-7.4c-1.3-2.1-3.1-3.8-5.5-4.9c-2.3-1.2-5.1-1.7-8.2-1.7h-19.4V140.4z M478.1,112.3h11.2
				c2.3,0,4.2,0.7,5.6,2c1.4,1.3,2.2,3.1,2.2,5.3v10.7c0,2.8-0.6,4.9-1.9,6.3c-1.3,1.4-3.2,2.2-5.6,2.2h-11.4V112.3z"/>
			<path class="st2" d="M516.3,106c-2,0.9-3.6,2.1-4.7,3.6c-1.1,1.6-1.7,3.4-1.7,5.4v3.3c0,2.6,0.9,4.7,2.7,6.3
				c1.8,1.6,4.5,2.8,7.9,3.3l10.7,1.8c2.8,0.5,4.2,1.6,4.2,3.5v2c0,1.2-0.5,2.2-1.6,2.9c-1.1,0.7-2.5,1.1-4.2,1.1h-6.5
				c-1.8,0-3.2-0.6-4.3-1.7c-1-1.1-1.5-2.7-1.5-4.7h-7.9c0,4.3,1.2,7.6,3.6,10c2.4,2.4,5.7,3.6,10,3.6h6.7c2.7,0,5.1-0.4,7.2-1.3
				c2.1-0.9,3.7-2.1,4.8-3.7c1.1-1.6,1.7-3.4,1.7-5.5V132c0-2.5-0.9-4.5-2.8-6.1c-1.9-1.6-4.6-2.7-8.1-3.3l-10.6-1.9
				c-2.7-0.5-4-1.7-4-3.6v-1.6c0-1.2,0.5-2.1,1.5-2.8c1-0.7,2.3-1,3.9-1h6.6c1.5,0,2.7,0.5,3.5,1.5c0.9,1,1.3,2.3,1.3,3.9h7.9
				c0-2.5-0.5-4.7-1.6-6.5c-1.1-1.9-2.6-3.3-4.5-4.4c-1.9-1-4.2-1.6-6.7-1.6h-6.6C520.7,104.7,518.3,105.1,516.3,106z"/>
		</g>
		<g>
			<path class="st1" d="M107.2,135c-2,3.5-4.8,6.3-8.5,8.3c-3.7,2-7.9,3-12.7,3H63.9c-4.8,0-9-1-12.7-2.9c-3.7-1.9-6.5-4.7-8.5-8.2
				c-2-3.5-3-7.6-3-12.3v-10.4c0-4.5,1-8.5,3-12c2-3.5,4.8-6.2,8.5-8.1c3.7-1.9,7.9-2.9,12.7-2.9H86c4.8,0,9,1,12.7,2.9
				c3.7,1.9,6.5,4.6,8.5,8.1c2,3.5,3,7.5,3,12.1v10.4C110.2,127.4,109.2,131.5,107.2,135z M98.2,112.6c0-2.9-1.1-5.2-3.3-6.9
				c-2.2-1.7-5.1-2.6-8.7-2.6H63.7c-3.6,0-6.5,0.9-8.7,2.6c-2.2,1.7-3.3,4.1-3.3,6.9v10c0,3,1.1,5.4,3.3,7.3
				c2.2,1.8,5.1,2.8,8.7,2.8h22.4c3.6,0,6.5-0.9,8.7-2.8c2.2-1.8,3.3-4.3,3.3-7.3V112.6z"/>
			<path class="st1" d="M108.2,81.2c-1.5,1.5-3.4,2.2-5.9,2.2c-2.4,0-4.4-0.7-5.9-2.2c-1.5-1.5-2.2-3.4-2.2-5.9
				c0-2.4,0.7-4.4,2.2-5.9c1.5-1.5,3.4-2.2,5.9-2.2c2.4,0,4.4,0.7,5.9,2.2c1.5,1.5,2.2,3.4,2.2,5.9
				C110.4,77.8,109.6,79.7,108.2,81.2z"/>
			<path class="st1" d="M55.3,51.4l8,15.9H50.6L40.5,48.2V37.9h68.9v13.6H55.3z"/>
		</g>
	</g>
</g>
</svg>
