<?xml version="1.0" encoding="UTF-8"?><svg id="uuid-96659821-544b-423d-b331-be0092e260c0" xmlns="http://www.w3.org/2000/svg" viewBox="0 0 587 960.13"><defs><style>.uuid-3331e179-d9dc-4042-9994-e2d9feba3994{fill:#00495e;}.uuid-bbe38d29-66f5-4cf9-af8a-fbd44fa87a05{fill:#e99700;}.uuid-f8fd528e-1c6b-4b4f-956f-ee929fb0ec41{fill:#fff;}</style></defs><g><path class="uuid-3331e179-d9dc-4042-9994-e2d9feba3994" d="M0,228v409.51c0,3.54,.5,7,1.26,10.4l294.95,123.57,289.9-123.99c.59-3,.89-6.07,.89-9.17V194.4H0v33.6Zm290.21,233.78l-.08,.08-.07-.08s-.07,.08-.07,.08c-.07-.02-.25-.15-.42-.27,0,0-56.49-58.28-56.49-58.28-9.05-9.47-14.3-20.57-14.12-33.92,.11-7.64,3.56-14.53,8.78-19.91,10.19-10.5,27.21-15.14,40.02-7.56,9.76,5.77,18.35,16.63,21.74,27.4,.37,0,.28,0,.65,0,3.29-10.75,12.45-21.72,22.05-27.39,13.37-7.9,30.13-2.86,40.14,8.01,4.93,5.35,8.25,12.1,8.66,19.46,.78,13.83-5.78,25.16-15.04,34.72-13.85,14.3-53.32,55.03-55.85,57.63,.03,.02,.08,.05,.1,.05Zm-141.11-3.57l142.34,59.63,139.87-59.82-141.18,145.69-141.04-145.51Z"/><polygon class="uuid-3331e179-d9dc-4042-9994-e2d9feba3994" points="0 0 0 146 0 181.74 587 181.74 587 146 587 0 0 0"/></g><g><g><polygon class="uuid-f8fd528e-1c6b-4b4f-956f-ee929fb0ec41" points="232.2 48.4 251.74 76.09 258.9 76.09 258.9 35.37 251.04 35.37 251.04 63.06 231.5 35.37 224.34 35.37 224.34 76.09 232.2 76.09 232.2 48.4"/><path class="uuid-f8fd528e-1c6b-4b4f-956f-ee929fb0ec41" d="M272.36,74.6c2.35,1.3,5.05,1.95,8.11,1.95h6.17c3.06,0,5.77-.65,8.12-1.95,2.35-1.3,4.17-3.12,5.47-5.47,1.3-2.35,1.95-5.07,1.95-8.17v-10.47c0-3.1-.65-5.83-1.95-8.17-1.3-2.35-3.12-4.17-5.47-5.47-2.35-1.3-5.05-1.95-8.12-1.95h-6.17c-3.06,0-5.77,.65-8.11,1.95-2.35,1.3-4.17,3.12-5.47,5.47-1.3,2.35-1.95,5.07-1.95,8.17v10.47c0,3.1,.65,5.83,1.95,8.17,1.3,2.35,3.12,4.17,5.47,5.47Zm.61-23.76c0-2.64,.69-4.77,2.07-6.4,1.38-1.63,3.19-2.44,5.44-2.44h6.17c2.25,0,4.06,.81,5.44,2.44,1.38,1.63,2.07,3.76,2.07,6.4v9.77c0,2.64-.69,4.77-2.07,6.4-1.38,1.63-3.19,2.44-5.44,2.44h-6.17c-2.25,0-4.06-.81-5.44-2.44-1.38-1.63-2.07-3.76-2.07-6.4v-9.77Z"/><polygon class="uuid-f8fd528e-1c6b-4b4f-956f-ee929fb0ec41" points="316.37 76.09 324.4 76.09 324.4 42.35 337.31 42.35 337.31 35.37 303.46 35.37 303.46 42.35 316.37 42.35 316.37 76.09"/><polygon class="uuid-f8fd528e-1c6b-4b4f-956f-ee929fb0ec41" points="366.4 60.26 386.7 60.26 386.7 53.28 366.4 53.28 366.4 42.35 388.85 42.35 388.85 35.37 358.37 35.37 358.37 76.09 366.4 76.09 366.4 60.26"/><path class="uuid-f8fd528e-1c6b-4b4f-956f-ee929fb0ec41" d="M398.59,74.6c2.35,1.3,5.05,1.95,8.11,1.95h6.17c3.06,0,5.77-.65,8.12-1.95,2.35-1.3,4.17-3.12,5.47-5.47,1.3-2.35,1.95-5.07,1.95-8.17v-10.47c0-3.1-.65-5.83-1.95-8.17-1.3-2.35-3.12-4.17-5.47-5.47-2.35-1.3-5.05-1.95-8.12-1.95h-6.17c-3.06,0-5.77,.65-8.11,1.95-2.35,1.3-4.17,3.12-5.47,5.47-1.3,2.35-1.95,5.07-1.95,8.17v10.47c0,3.1,.65,5.83,1.95,8.17,1.3,2.35,3.12,4.17,5.47,5.47Zm.61-23.76c0-2.64,.69-4.77,2.07-6.4,1.38-1.63,3.19-2.44,5.44-2.44h6.17c2.25,0,4.06,.81,5.44,2.44,1.38,1.63,2.07,3.76,2.07,6.4v9.77c0,2.64-.69,4.77-2.07,6.4-1.38,1.63-3.19,2.44-5.44,2.44h-6.17c-2.25,0-4.06-.81-5.44-2.44-1.38-1.63-2.07-3.76-2.07-6.4v-9.77Z"/><path class="uuid-f8fd528e-1c6b-4b4f-956f-ee929fb0ec41" d="M442.48,61.49h9.83c1.32,0,2.42,.41,3.32,1.22,.89,.81,1.59,2.06,2.09,3.72l3.08,9.66h8.32l-3.26-10.35c-.62-1.86-1.25-3.32-1.89-4.36-.64-1.05-1.58-1.98-2.82-2.79v-.12c2.17-.78,3.83-1.91,4.97-3.4,1.14-1.49,1.72-3.25,1.72-5.26v-4.07c0-3.1-1.08-5.6-3.23-7.5-2.15-1.9-4.99-2.85-8.52-2.85h-21.64v40.72h8.03v-14.6Zm0-19.14h13.5c1.16,0,2.09,.34,2.79,1.02,.7,.68,1.05,1.58,1.05,2.71v3.78c0,1.4-.46,2.53-1.4,3.4s-2.21,1.31-3.84,1.31h-12.1v-12.22Z"/><path class="uuid-f8fd528e-1c6b-4b4f-956f-ee929fb0ec41" d="M273.85,106.54c-1.82-.91-3.92-1.37-6.28-1.37h-21.46v40.72h8.03v-12.86h12.97c2.48,0,4.66-.47,6.54-1.43,1.88-.95,3.34-2.29,4.39-4.01,1.05-1.73,1.57-3.71,1.57-5.96v-5.41c0-2.17-.5-4.1-1.51-5.79-1.01-1.69-2.42-2.99-4.25-3.9Zm-2.27,14.75c0,1.44-.43,2.59-1.28,3.46-.85,.87-1.96,1.31-3.32,1.31h-12.86v-13.9h13.32c1.24,0,2.24,.4,3,1.19,.76,.8,1.13,1.87,1.13,3.23v4.71Z"/><path class="uuid-f8fd528e-1c6b-4b4f-956f-ee929fb0ec41" d="M315.7,124.86c1.14-1.49,1.72-3.25,1.72-5.26v-4.07c0-3.1-1.08-5.6-3.23-7.5-2.15-1.9-4.99-2.85-8.52-2.85h-21.64v40.72h8.03v-14.6h9.83c1.32,0,2.42,.41,3.32,1.22,.89,.81,1.59,2.06,2.09,3.72l3.08,9.66h8.32l-3.26-10.35c-.62-1.86-1.25-3.32-1.89-4.36-.64-1.05-1.58-1.98-2.82-2.79v-.12c2.17-.78,3.83-1.91,4.97-3.4Zm-6.31-5.21c0,1.4-.46,2.53-1.4,3.4s-2.21,1.31-3.84,1.31h-12.1v-12.22h13.5c1.16,0,2.09,.34,2.79,1.02,.7,.68,1.05,1.58,1.05,2.71v3.78Z"/><path class="uuid-f8fd528e-1c6b-4b4f-956f-ee929fb0ec41" d="M324.02,112.12c-1.3,2.35-1.95,5.07-1.95,8.17v10.47c0,3.1,.65,5.83,1.95,8.17,1.3,2.35,3.12,4.17,5.47,5.47,2.35,1.3,5.05,1.95,8.11,1.95h6.17c3.06,0,5.77-.65,8.12-1.95,2.35-1.3,4.17-3.12,5.47-5.47,1.3-2.35,1.95-5.07,1.95-8.17v-10.47c0-3.1-.65-5.83-1.95-8.17-1.3-2.35-3.12-4.17-5.47-5.47-2.35-1.3-5.05-1.95-8.12-1.95h-6.17c-3.06,0-5.77,.65-8.11,1.95-2.35,1.3-4.17,3.12-5.47,5.47Zm6.08,8.52c0-2.64,.69-4.77,2.07-6.4,1.38-1.63,3.19-2.44,5.44-2.44h6.17c2.25,0,4.06,.81,5.44,2.44,1.38,1.63,2.07,3.76,2.07,6.4v9.77c0,2.64-.69,4.77-2.07,6.4-1.38,1.63-3.19,2.44-5.44,2.44h-6.17c-2.25,0-4.06-.81-5.44-2.44-1.38-1.63-2.07-3.76-2.07-6.4v-9.77Z"/><polygon class="uuid-f8fd528e-1c6b-4b4f-956f-ee929fb0ec41" points="395.83 112.15 395.83 105.17 365.35 105.17 365.35 145.89 373.38 145.89 373.38 130.07 393.68 130.07 393.68 123.09 373.38 123.09 373.38 112.15 395.83 112.15"/><rect class="uuid-f8fd528e-1c6b-4b4f-956f-ee929fb0ec41" x="401.07" y="105.17" width="8.03" height="40.72"/><polygon class="uuid-f8fd528e-1c6b-4b4f-956f-ee929fb0ec41" points="434.92 145.89 434.92 112.15 447.84 112.15 447.84 105.17 413.98 105.17 413.98 112.15 426.9 112.15 426.9 145.89 434.92 145.89"/></g><g><path class="uuid-bbe38d29-66f5-4cf9-af8a-fbd44fa87a05" d="M296.21,771.49L1.26,647.91c1.89,8.41,5.93,16.26,11.99,22.58l56.52,58.97,192.24,198.34,31.33,32.33,31.27-32.27,251.51-259.57c4.95-6.08,8.48-13.15,9.98-20.79l-289.9,123.99Z"/><polygon class="uuid-bbe38d29-66f5-4cf9-af8a-fbd44fa87a05" points="431.31 458.03 291.44 517.85 149.1 458.21 290.13 603.72 431.31 458.03"/><path class="uuid-bbe38d29-66f5-4cf9-af8a-fbd44fa87a05" d="M289.57,461.59c.17,.12,.34,.25,.42,.27,0,0,.03-.03,.07-.08l.07,.08,.08-.08s-.06-.03-.1-.05c2.52-2.6,41.99-43.33,55.85-57.63,9.25-9.55,15.82-20.89,15.04-34.72-.42-7.36-3.73-14.1-8.66-19.46-10.01-10.87-26.77-15.92-40.14-8.01-9.59,5.67-18.75,16.64-22.05,27.39-.37,0-.28,0-.65,0-3.39-10.77-11.98-21.62-21.74-27.4-12.81-7.57-29.83-2.94-40.02,7.56-5.22,5.38-8.67,12.27-8.78,19.91-.18,13.35,5.07,24.45,14.12,33.92,0,0,56.49,58.28,56.49,58.28Z"/><path class="uuid-bbe38d29-66f5-4cf9-af8a-fbd44fa87a05" d="M51.22,156.73c3.68,1.94,7.91,2.9,12.7,2.9h22.05c4.79,0,9.03-.98,12.7-2.95,3.68-1.97,6.51-4.73,8.52-8.27,2-3.54,3-7.61,3-12.21v-10.44c0-4.59-1-8.63-3-12.11-2-3.48-4.84-6.17-8.52-8.07-3.67-1.9-7.91-2.85-12.7-2.85h-22.05c-4.79,0-9.02,.97-12.7,2.9-3.68,1.94-6.51,4.64-8.52,8.12-2,3.48-3,7.48-3,12.01v10.44c0,4.66,1,8.76,3,12.31,2,3.54,4.84,6.29,8.52,8.22Zm.49-30.76c0-2.89,1.1-5.2,3.3-6.94,2.2-1.74,5.1-2.61,8.71-2.61h22.45c3.61,0,6.51,.87,8.71,2.61,2.2,1.74,3.3,4.05,3.3,6.94v10.04c0,3.02-1.1,5.45-3.3,7.29-2.2,1.84-5.1,2.76-8.71,2.76h-22.45c-3.61,0-6.51-.92-8.71-2.76-2.2-1.84-3.3-4.27-3.3-7.29v-10.04Z"/><path class="uuid-bbe38d29-66f5-4cf9-af8a-fbd44fa87a05" d="M102.32,80.67c-2.43,0-4.38,.74-5.86,2.21-1.48,1.48-2.22,3.43-2.22,5.86s.74,4.38,2.22,5.86c1.48,1.48,3.43,2.21,5.86,2.21s4.38-.74,5.86-2.21,2.21-3.43,2.21-5.86-.74-4.38-2.21-5.86c-1.48-1.48-3.43-2.21-5.86-2.21Z"/><path class="uuid-bbe38d29-66f5-4cf9-af8a-fbd44fa87a05" d="M62.44,75.26v-13.68c-3.41,0-6.05-.74-7.92-2.21-1.87-1.48-2.81-3.56-2.81-6.25v-9.55c0-2.3,.54-4.17,1.62-5.61,1.08-1.44,2.54-2.17,4.38-2.17h3.94c1.97,0,3.56,.76,4.78,2.26,1.21,1.51,1.82,3.51,1.82,6.01v12.6h11.81v-12.6c0-2.82,.62-5.12,1.87-6.89,1.25-1.77,2.89-2.66,4.92-2.66h3.94c2.23,0,4.02,.85,5.37,2.56,1.35,1.71,2.02,3.94,2.02,6.69v9.55c0,2.89-.94,5.12-2.81,6.69-1.87,1.57-4.51,2.36-7.93,2.36v13.39c7.15,0,12.73-1.98,16.74-5.96,4-3.97,6-9.47,6-16.49v-9.55c0-4.53-.8-8.52-2.41-11.96-1.61-3.45-3.89-6.12-6.84-8.02-2.95-1.9-6.33-2.85-10.14-2.85h-3.94c-2.49,0-4.89,.74-7.19,2.21-2.3,1.48-4.23,3.56-5.81,6.25-1.51-2.3-3.31-4.07-5.42-5.32-2.1-1.25-4.36-1.87-6.79-1.87h-3.94c-3.54,0-6.68,.89-9.4,2.66-2.72,1.77-4.84,4.28-6.35,7.53-1.51,3.25-2.26,6.97-2.26,11.17v9.55c0,6.96,2,12.39,6,16.29,4,3.91,9.58,5.86,16.74,5.86Z"/></g></g></svg>