<?xml version="1.0" encoding="UTF-8"?><svg id="uuid-80d5b2ac-9190-46c0-bfc4-149fc9056ab5" xmlns="http://www.w3.org/2000/svg" viewBox="0 0 587 960.13"><defs><style>.uuid-1d640483-7838-4962-8535-a459fb036fe2{fill:#00495e;}.uuid-d41ef014-44f0-4dea-ac5a-9c56426d1a1b{fill:#e99700;}.uuid-eb2fcc19-200b-4f49-b898-ac13ff380f25{fill:#fff;}</style></defs><g><path class="uuid-1d640483-7838-4962-8535-a459fb036fe2" d="M0,228v409.51c0,3.54,.5,7,1.26,10.4l294.95,123.57,289.9-123.99c.59-3,.89-6.07,.89-9.17V194.4H0v33.6ZM309.36,494.36l-16.72,151.21-57.41-194.58,196.07-51.22-121.94,94.59Zm-21.01-203.44c26.41,0,47.81,21.41,47.81,47.81s-21.41,47.81-47.81,47.81-47.81-21.41-47.81-47.81,21.41-47.81,47.81-47.81Z"/><polygon class="uuid-1d640483-7838-4962-8535-a459fb036fe2" points="0 0 0 146 0 181.74 587 181.74 587 146 587 0 0 0"/></g><g><g><path class="uuid-eb2fcc19-200b-4f49-b898-ac13ff380f25" d="M171.82,111.09h16.58c3.92,0,7.03-.94,9.34-2.82,2.31-1.88,3.46-4.41,3.46-7.59v-3.02c0-1.82-.57-3.47-1.72-4.94-1.14-1.47-2.65-2.54-4.51-3.2v-.06c1.16-.74,2.07-1.69,2.71-2.85,.64-1.16,.96-2.38,.96-3.66v-2.91c0-2.95-1.12-5.29-3.34-7.04-2.23-1.75-5.19-2.62-8.87-2.62h-20.24v35.25c0,1.63,.52,2.95,1.57,3.96,1.05,1.01,2.4,1.51,4.07,1.51Zm2.38-33.74h11.93c1.36,0,2.44,.32,3.26,.96,.81,.64,1.22,1.5,1.22,2.59v1.98c0,1.32-.39,2.38-1.16,3.17-.78,.79-1.78,1.19-3.02,1.19h-12.22v-9.89Zm0,16.52h14.49c1.36,0,2.44,.35,3.26,1.05,.81,.7,1.22,1.61,1.22,2.73v2.56c0,1.24-.46,2.2-1.4,2.88-.93,.68-2.25,1.02-3.96,1.02h-13.61v-10.24Z"/><path class="uuid-eb2fcc19-200b-4f49-b898-ac13ff380f25" d="M212.94,109.72c2.17,1.22,4.69,1.83,7.56,1.83h6.17c2.87,0,5.41-.61,7.62-1.83,2.21-1.22,3.92-2.94,5.12-5.15,1.2-2.21,1.8-4.77,1.8-7.68v-26.53h-8.03v26.29c0,2.33-.6,4.21-1.8,5.64-1.2,1.44-2.77,2.15-4.71,2.15h-6.17c-1.9,0-3.44-.72-4.62-2.15-1.18-1.43-1.77-3.32-1.77-5.64v-26.29h-8.03v26.53c0,2.91,.6,5.47,1.8,7.68s2.89,3.93,5.06,5.15Z"/><path class="uuid-eb2fcc19-200b-4f49-b898-ac13ff380f25" d="M271.14,103.38c-1.07,.72-2.45,1.08-4.16,1.08h-6.46c-1.82,0-3.25-.57-4.28-1.72-1.03-1.14-1.54-2.72-1.54-4.74h-7.91c0,4.27,1.2,7.59,3.61,9.98,2.4,2.39,5.74,3.58,10,3.58h6.69c2.71,0,5.1-.44,7.15-1.31s3.66-2.1,4.8-3.69c1.14-1.59,1.72-3.41,1.72-5.47v-3.84c0-2.48-.93-4.51-2.79-6.08-1.86-1.57-4.56-2.67-8.09-3.29l-10.65-1.86c-2.68-.47-4.01-1.67-4.01-3.61v-1.57c0-1.16,.49-2.09,1.48-2.79,.99-.7,2.3-1.05,3.93-1.05h6.57c1.47,0,2.66,.49,3.55,1.48,.89,.99,1.34,2.3,1.34,3.93h7.91c0-2.48-.53-4.66-1.6-6.54-1.07-1.88-2.57-3.34-4.51-4.39-1.94-1.05-4.17-1.57-6.69-1.57h-6.57c-2.68,0-5.03,.43-7.07,1.28-2.04,.85-3.61,2.06-4.71,3.64-1.11,1.57-1.66,3.38-1.66,5.44v3.26c0,2.56,.9,4.66,2.7,6.31,1.8,1.65,4.45,2.76,7.94,3.35l10.7,1.8c2.79,.47,4.19,1.65,4.19,3.55v1.98c0,1.2-.53,2.16-1.6,2.88Z"/><rect class="uuid-eb2fcc19-200b-4f49-b898-ac13ff380f25" x="286.94" y="70.37" width="8.03" height="40.72"/><polygon class="uuid-eb2fcc19-200b-4f49-b898-ac13ff380f25" points="310.61 83.4 330.16 111.09 337.31 111.09 337.31 70.37 329.46 70.37 329.46 98.06 309.91 70.37 302.76 70.37 302.76 111.09 310.61 111.09 310.61 83.4"/><path class="uuid-eb2fcc19-200b-4f49-b898-ac13ff380f25" d="M350.17,111.09h25.42v-6.98h-23.04v-10.35h21.29v-6.98h-21.29v-9.42h23.04v-6.98h-31.06v35.25c0,1.63,.52,2.95,1.57,3.96,1.05,1.01,2.4,1.51,4.07,1.51Z"/><path class="uuid-eb2fcc19-200b-4f49-b898-ac13ff380f25" d="M404,103.38c-1.07,.72-2.45,1.08-4.16,1.08h-6.46c-1.82,0-3.25-.57-4.28-1.72-1.03-1.14-1.54-2.72-1.54-4.74h-7.91c0,4.27,1.2,7.59,3.61,9.98,2.4,2.39,5.74,3.58,10,3.58h6.69c2.71,0,5.1-.44,7.15-1.31s3.66-2.1,4.8-3.69c1.14-1.59,1.72-3.41,1.72-5.47v-3.84c0-2.48-.93-4.51-2.79-6.08-1.86-1.57-4.56-2.67-8.09-3.29l-10.65-1.86c-2.68-.47-4.01-1.67-4.01-3.61v-1.57c0-1.16,.49-2.09,1.48-2.79,.99-.7,2.3-1.05,3.93-1.05h6.57c1.47,0,2.66,.49,3.55,1.48,.89,.99,1.34,2.3,1.34,3.93h7.91c0-2.48-.53-4.66-1.6-6.54-1.07-1.88-2.57-3.34-4.51-4.39-1.94-1.05-4.17-1.57-6.69-1.57h-6.57c-2.68,0-5.03,.43-7.07,1.28-2.04,.85-3.61,2.06-4.71,3.64-1.11,1.57-1.66,3.38-1.66,5.44v3.26c0,2.56,.9,4.66,2.7,6.31,1.8,1.65,4.45,2.76,7.94,3.35l10.7,1.8c2.79,.47,4.19,1.65,4.19,3.55v1.98c0,1.2-.53,2.16-1.6,2.88Z"/><path class="uuid-eb2fcc19-200b-4f49-b898-ac13ff380f25" d="M442.16,103.38c-1.07,.72-2.45,1.08-4.16,1.08h-6.46c-1.82,0-3.25-.57-4.28-1.72-1.03-1.14-1.54-2.72-1.54-4.74h-7.91c0,4.27,1.2,7.59,3.61,9.98,2.4,2.39,5.74,3.58,10,3.58h6.69c2.71,0,5.1-.44,7.15-1.31s3.66-2.1,4.8-3.69c1.14-1.59,1.72-3.41,1.72-5.47v-3.84c0-2.48-.93-4.51-2.79-6.08-1.86-1.57-4.56-2.67-8.09-3.29l-10.65-1.86c-2.68-.47-4.01-1.67-4.01-3.61v-1.57c0-1.16,.49-2.09,1.48-2.79,.99-.7,2.3-1.05,3.93-1.05h6.57c1.47,0,2.66,.49,3.55,1.48,.89,.99,1.34,2.3,1.34,3.93h7.91c0-2.48-.53-4.66-1.6-6.54-1.07-1.88-2.57-3.34-4.51-4.39-1.94-1.05-4.17-1.57-6.69-1.57h-6.57c-2.68,0-5.03,.43-7.07,1.28-2.04,.85-3.61,2.06-4.71,3.64-1.11,1.57-1.66,3.38-1.66,5.44v3.26c0,2.56,.9,4.66,2.7,6.31,1.8,1.65,4.45,2.76,7.94,3.35l10.7,1.8c2.79,.47,4.19,1.65,4.19,3.55v1.98c0,1.2-.53,2.16-1.6,2.88Z"/><path class="uuid-eb2fcc19-200b-4f49-b898-ac13ff380f25" d="M463.02,111.09h25.42v-6.98h-23.04v-10.35h21.29v-6.98h-21.29v-9.42h23.04v-6.98h-31.06v35.25c0,1.63,.52,2.95,1.57,3.96,1.05,1.01,2.4,1.51,4.07,1.51Z"/><path class="uuid-eb2fcc19-200b-4f49-b898-ac13ff380f25" d="M516.85,103.38c-1.07,.72-2.45,1.08-4.16,1.08h-6.46c-1.82,0-3.25-.57-4.28-1.72-1.03-1.14-1.54-2.72-1.54-4.74h-7.91c0,4.27,1.2,7.59,3.61,9.98,2.4,2.39,5.74,3.58,10,3.58h6.69c2.71,0,5.1-.44,7.15-1.31s3.66-2.1,4.8-3.69c1.14-1.59,1.72-3.41,1.72-5.47v-3.84c0-2.48-.93-4.51-2.79-6.08-1.86-1.57-4.56-2.67-8.09-3.29l-10.65-1.86c-2.68-.47-4.01-1.67-4.01-3.61v-1.57c0-1.16,.49-2.09,1.48-2.79,.99-.7,2.3-1.05,3.93-1.05h6.57c1.47,0,2.66,.49,3.55,1.48,.89,.99,1.34,2.3,1.34,3.93h7.91c0-2.48-.53-4.66-1.6-6.54-1.07-1.88-2.57-3.34-4.51-4.39-1.94-1.05-4.17-1.57-6.69-1.57h-6.57c-2.68,0-5.03,.43-7.07,1.28-2.04,.85-3.61,2.06-4.71,3.64-1.11,1.57-1.66,3.38-1.66,5.44v3.26c0,2.56,.9,4.66,2.7,6.31,1.8,1.65,4.45,2.76,7.94,3.35l10.7,1.8c2.79,.47,4.19,1.65,4.19,3.55v1.98c0,1.2-.53,2.16-1.6,2.88Z"/></g><g><path class="uuid-d41ef014-44f0-4dea-ac5a-9c56426d1a1b" d="M296.21,771.49L1.26,647.91c1.89,8.41,5.93,16.26,11.99,22.58l56.52,58.97,192.24,198.34,31.33,32.33,31.27-32.27,251.51-259.57c4.95-6.08,8.49-13.15,9.98-20.79l-289.9,123.99Z"/><polygon class="uuid-d41ef014-44f0-4dea-ac5a-9c56426d1a1b" points="309.36 494.36 431.29 399.77 235.23 450.99 292.64 645.57 309.36 494.36"/><circle class="uuid-d41ef014-44f0-4dea-ac5a-9c56426d1a1b" cx="288.34" cy="338.73" r="47.81" transform="translate(-50.54 50.56) rotate(-9.22)"/><path class="uuid-d41ef014-44f0-4dea-ac5a-9c56426d1a1b" d="M51.22,155.84c3.68,1.94,7.91,2.9,12.7,2.9h22.05c4.79,0,9.03-.98,12.7-2.95,3.68-1.97,6.51-4.73,8.52-8.27,2-3.54,3-7.61,3-12.21v-10.44c0-4.59-1-8.63-3-12.11-2-3.48-4.84-6.17-8.52-8.07-3.67-1.9-7.91-2.85-12.7-2.85h-22.05c-4.79,0-9.02,.97-12.7,2.9-3.68,1.94-6.51,4.64-8.52,8.12-2,3.48-3,7.48-3,12.01v10.44c0,4.66,1,8.76,3,12.31,2,3.54,4.84,6.29,8.52,8.22Zm.49-30.76c0-2.89,1.1-5.2,3.3-6.94,2.2-1.74,5.1-2.61,8.71-2.61h22.45c3.61,0,6.51,.87,8.71,2.61,2.2,1.74,3.3,4.05,3.3,6.94v10.04c0,3.02-1.1,5.45-3.3,7.29-2.2,1.84-5.1,2.76-8.71,2.76h-22.45c-3.61,0-6.51-.92-8.71-2.76-2.2-1.84-3.3-4.27-3.3-7.29v-10.04Z"/><path class="uuid-d41ef014-44f0-4dea-ac5a-9c56426d1a1b" d="M102.32,79.79c-2.43,0-4.38,.74-5.86,2.21-1.48,1.48-2.22,3.43-2.22,5.86s.74,4.38,2.22,5.86c1.48,1.48,3.43,2.21,5.86,2.21s4.38-.74,5.86-2.21,2.21-3.43,2.21-5.86-.74-4.38-2.21-5.86c-1.48-1.48-3.43-2.21-5.86-2.21Z"/><path class="uuid-d41ef014-44f0-4dea-ac5a-9c56426d1a1b" d="M62.44,73.1v-13.59c-3.41,0-6.05-.72-7.92-2.17-1.87-1.44-2.81-3.45-2.81-6v-9.06c0-2.17,.56-3.92,1.67-5.27,1.12-1.34,2.59-2.02,4.43-2.02h3.15c1.18,0,2.36,.34,3.54,1.03,1.18,.69,2.1,1.62,2.76,2.81l14.57,24.41c2.1,3.48,4.59,5.94,7.48,7.38,2.89,1.44,6.3,2.17,10.24,2.17h9.84V21.02h-11.81V59.12c-1.64,0-3.02-.41-4.13-1.23-1.12-.82-2.13-2.02-3.05-3.59l-13.78-23.73c-1.84-3.15-4.02-5.46-6.55-6.94-2.53-1.48-5.56-2.22-9.11-2.22h-3.15c-3.54,0-6.69,.87-9.45,2.61-2.76,1.74-4.89,4.18-6.4,7.33-1.51,3.15-2.26,6.79-2.26,10.93v9.25c0,6.76,2,12.04,6,15.85,4,3.81,9.58,5.71,16.74,5.71Z"/></g></g></svg>