<?xml version="1.0" encoding="utf-8"?>
<!-- Generator: Adobe Illustrator 26.4.0, SVG Export Plug-In . SVG Version: 6.00 Build 0)  -->
<svg version="1.1" xmlns="http://www.w3.org/2000/svg" xmlns:xlink="http://www.w3.org/1999/xlink" x="0px" y="0px"
	 viewBox="0 0 800 336.2" style="enable-background:new 0 0 800 336.2;" xml:space="preserve">
<style type="text/css">
	.st0{fill:#E99700;}
	.st1{fill:#369AA1;}
	.st2{fill:#FFFFFF;}
	.st3{fill:#00495E;}
	.st4{fill:#3D3F44;}
</style>
<g id="Layer_1_copy">
	<g>
		<g>
			<path class="st3" d="M208.5,144.1h-24.7l-5.8,15.6h-6.1l21.7-56.3h2.7c1.8,0,3.1,1.1,3.9,3.2l12.4,32.5h0.1v0.2l7.8,20.4h-6.1
				L208.5,144.1z M185.7,139.1h21l-10.5-28h-0.1L185.7,139.1z"/>
			<path class="st3" d="M234,157.8c-2.8-1.7-4.9-4.1-6.4-7.2c-1.5-3.1-2.3-6.6-2.3-10.7v-16.7c0-4,0.8-7.6,2.3-10.7
				c1.5-3.1,3.7-5.5,6.5-7.2c2.8-1.7,6.1-2.5,9.8-2.5h8.5c3.5,0,6.6,0.8,9.2,2.3c2.7,1.5,4.7,3.6,6.2,6.4c1.5,2.7,2.2,5.9,2.2,9.4
				h-5.8c0-3.8-1.1-6.9-3.3-9.2c-2.2-2.3-5-3.5-8.6-3.5h-8.5c-3.8,0-6.9,1.4-9.2,4.1c-2.3,2.8-3.5,6.4-3.5,11v16.7
				c0,4.6,1.1,8.2,3.4,11c2.3,2.8,5.2,4.1,8.9,4.1h8.7c3.6,0,6.6-1.3,8.8-3.9c2.2-2.6,3.3-6,3.3-10.1h5.8c0,3.8-0.8,7.2-2.3,10.1
				c-1.5,2.9-3.6,5.2-6.3,6.8c-2.7,1.6-5.8,2.4-9.4,2.4h-8.7C240,160.4,236.8,159.5,234,157.8z"/>
			<path class="st3" d="M287.1,157.8c-2.8-1.7-4.9-4.1-6.4-7.2c-1.5-3.1-2.3-6.6-2.3-10.7v-16.7c0-4,0.8-7.6,2.3-10.7
				c1.5-3.1,3.7-5.5,6.5-7.2c2.8-1.7,6.1-2.5,9.8-2.5h8.5c3.5,0,6.6,0.8,9.2,2.3c2.7,1.5,4.7,3.6,6.2,6.4c1.5,2.7,2.2,5.9,2.2,9.4
				h-5.8c0-3.8-1.1-6.9-3.3-9.2c-2.2-2.3-5-3.5-8.6-3.5H297c-3.8,0-6.9,1.4-9.2,4.1c-2.3,2.8-3.5,6.4-3.5,11v16.7
				c0,4.6,1.1,8.2,3.4,11c2.3,2.8,5.2,4.1,8.9,4.1h8.7c3.6,0,6.6-1.3,8.8-3.9c2.2-2.6,3.3-6,3.3-10.1h5.8c0,3.8-0.8,7.2-2.3,10.1
				c-1.5,2.9-3.6,5.2-6.3,6.8c-2.7,1.6-5.8,2.4-9.4,2.4h-8.7C293.1,160.4,289.9,159.5,287.1,157.8z"/>
			<path class="st3" d="M340.5,157.9c-2.8-1.7-5.1-4-6.6-7.1c-1.6-3.1-2.4-6.6-2.4-10.6v-17.2c0-4,0.8-7.6,2.4-10.6
				c1.6-3.1,3.8-5.4,6.6-7.1c2.8-1.7,6.1-2.5,9.9-2.5h8.5c3.8,0,7.1,0.8,9.9,2.5c2.8,1.7,5.1,4,6.6,7.1c1.6,3.1,2.4,6.6,2.4,10.6
				v17.2c0,4-0.8,7.6-2.4,10.6c-1.6,3-3.8,5.4-6.7,7.1c-2.9,1.7-6.2,2.5-9.9,2.5h-8.6C346.7,160.4,343.4,159.5,340.5,157.9z
				 M358.8,155.1c3.9,0,7.1-1.4,9.5-4.1c2.4-2.7,3.6-6.3,3.6-10.8v-17.2c0-4.5-1.2-8.1-3.6-10.8c-2.4-2.7-5.6-4.1-9.5-4.1h-8.2
				c-3.9,0-7.1,1.4-9.5,4.1c-2.4,2.7-3.6,6.3-3.6,10.8v17.2c0,4.5,1.2,8.1,3.6,10.8c2.4,2.7,5.5,4.1,9.5,4.1H358.8z"/>
			<path class="st3" d="M397.1,158.1c-2.6-1.5-4.7-3.7-6.1-6.5c-1.4-2.8-2.2-6-2.2-9.7v-38.5h6V142c0,3.9,1,7.1,3.1,9.5
				c2.1,2.4,4.9,3.6,8.3,3.6h8.7c3.4,0,6.2-1.2,8.3-3.6c2.1-2.4,3.1-5.5,3.1-9.5v-38.6h6v38.5c0,3.7-0.7,6.9-2.2,9.7
				c-1.4,2.8-3.5,5-6.1,6.5c-2.6,1.5-5.7,2.3-9.1,2.3h-8.7C402.8,160.4,399.8,159.6,397.1,158.1z"/>
			<path class="st3" d="M444.9,103.4h5.6l31.2,46.9v-46.9h5.8v56.3h-5.6l-31.2-46.6v46.6h-5.8V103.4z"/>
			<path class="st3" d="M514.2,108.5h-17.9v-5.2h41.7v5.2h-17.9v51.2h-6V108.5z"/>
			<path class="st3" d="M570.8,144.1h-24.7l-5.8,15.6h-6.1l21.7-56.3h2.7c1.8,0,3.1,1.1,3.9,3.2l12.4,32.5h0.1v0.2l7.8,20.4h-6.1
				L570.8,144.1z M548,139.1h21l-10.5-28h-0.1L548,139.1z"/>
			<path class="st3" d="M591,103.4h5.6l31.2,46.9v-46.9h5.8v56.3H628l-31.2-46.6v46.6H591V103.4z"/>
			<path class="st3" d="M653.6,157.8c-2.8-1.7-4.9-4.1-6.4-7.2c-1.5-3.1-2.3-6.6-2.3-10.7v-16.7c0-4,0.8-7.6,2.3-10.7
				c1.5-3.1,3.7-5.5,6.5-7.2c2.8-1.7,6.1-2.5,9.8-2.5h8.5c3.5,0,6.6,0.8,9.2,2.3c2.7,1.5,4.7,3.6,6.2,6.4c1.5,2.7,2.2,5.9,2.2,9.4
				h-5.8c0-3.8-1.1-6.9-3.3-9.2c-2.2-2.3-5-3.5-8.6-3.5h-8.5c-3.8,0-6.9,1.4-9.2,4.1c-2.3,2.8-3.5,6.4-3.5,11v16.7
				c0,4.6,1.1,8.2,3.4,11c2.3,2.8,5.2,4.1,8.9,4.1h8.7c3.6,0,6.6-1.3,8.8-3.9c2.2-2.6,3.3-6,3.3-10.1h5.8c0,3.8-0.8,7.2-2.3,10.1
				c-1.5,2.9-3.6,5.2-6.3,6.8c-2.7,1.6-5.8,2.4-9.4,2.4h-8.7C659.6,160.4,656.4,159.5,653.6,157.8z"/>
			<path class="st3" d="M714,138.1l-20.8-34.7h6.4l17.3,29.3l17.3-29.3h6.4l-20.8,34.7v21.7h-6V138.1z"/>
		</g>
		<g>
			<g>
				<path class="st0" d="M318,183.7h2l11.9,24.3l4.3-24.3h2.1l-4.9,27.7h-2l-11.9-24.2l-4.3,24.2h-2.1L318,183.7z"/>
				<path class="st0" d="M341.6,210.5c-1-0.8-1.5-1.9-1.5-3.2c0-0.2,0-0.5,0.1-0.9l0.3-1.6c0.3-1.7,1-2.9,2.2-3.8
					c1.2-0.9,2.7-1.3,4.6-1.3h2.6c0.9,0,1.9,0.2,2.9,0.5c1,0.3,1.8,0.7,2.4,1.2l0.7-3.9c0.1-0.4,0.1-0.7,0.1-0.9
					c0-1-0.3-1.8-0.9-2.4c-0.6-0.6-1.5-0.9-2.5-0.9h-3.1c-1.3,0-2.4,0.3-3.2,0.9c-0.8,0.6-1.4,1.4-1.5,2.3h-2.1
					c0.3-1.6,1-2.8,2.3-3.7c1.2-0.9,2.8-1.4,4.6-1.4h3.1c1.7,0,3.1,0.4,4.1,1.3c1,0.9,1.5,2,1.5,3.5c0,0.4,0,0.8-0.1,1.3l-2.5,14h-2
					l0.6-3.1c-0.9,1.1-1.9,1.9-2.9,2.5c-1,0.6-2,0.9-3,0.9h-2.4C344,211.7,342.7,211.3,341.6,210.5z M348.2,209.8
					c1.1,0,2.2-0.4,3.4-1.2c1.1-0.8,2.1-1.8,2.9-3.1l0.4-2.1c-0.5-0.6-1.2-1-2.1-1.3c-0.9-0.3-1.9-0.5-2.8-0.5h-2.6
					c-1.3,0-2.3,0.3-3.1,0.9c-0.8,0.6-1.3,1.4-1.5,2.5l-0.3,1.5c-0.1,0.3-0.1,0.5-0.1,0.7c0,0.8,0.3,1.5,0.9,2
					c0.6,0.5,1.4,0.7,2.5,0.7H348.2z"/>
				<path class="st0" d="M367,211c-0.3-0.3-0.4-0.7-0.6-1.2l-3.7-18.2h2.1l3.4,17.5h0l9.6-17.5h2.3l-11.1,19.8h-1
					C367.6,211.4,367.2,211.3,367,211z"/>
				<path class="st0" d="M385,191.6h2.1l-3.5,19.8h-2.1L385,191.6z M385.6,187.9c-0.3-0.3-0.4-0.6-0.4-1c0-0.6,0.2-1.1,0.6-1.5
					c0.4-0.4,0.9-0.6,1.5-0.6c0.4,0,0.8,0.1,1.1,0.4c0.3,0.3,0.4,0.6,0.4,1c0,0.7-0.2,1.2-0.6,1.6c-0.4,0.4-0.9,0.6-1.5,0.6
					C386.2,188.2,385.9,188.1,385.6,187.9z"/>
				<path class="st0" d="M391.8,218.1c-1-0.9-1.4-2-1.3-3.4h2.1c-0.1,0.8,0.2,1.5,0.8,2c0.6,0.5,1.4,0.8,2.4,0.8h3.3
					c1.5,0,2.7-0.5,3.7-1.4c1-1,1.6-2.3,1.9-4l0.7-3.9c-0.8,1-1.7,1.8-2.7,2.3c-1,0.6-1.9,0.9-2.9,0.9H397c-1.8,0-3.2-0.5-4.2-1.6
					c-1-1-1.5-2.4-1.5-4.2c0-0.3,0.1-0.9,0.2-1.6l0.9-5.1c0.4-2.4,1.3-4.2,2.7-5.6c1.4-1.4,3.2-2,5.3-2h2.9c1,0,1.9,0.3,2.8,0.8
					c0.9,0.5,1.5,1.2,1.9,2l0.4-2.5h2.1l-3.6,20.5c-0.4,2.3-1.3,4.1-2.7,5.4c-1.4,1.3-3,1.9-5.1,1.9h-3.3
					C394.1,219.4,392.7,219,391.8,218.1z M399.9,209.5c1.3,0,2.6-0.5,3.8-1.6c1.2-1,2-2.3,2.5-3.7l1.2-6.6c0-1.3-0.4-2.4-1.2-3.2
					c-0.8-0.8-1.7-1.3-2.9-1.3h-2.9c-1.5,0-2.8,0.5-3.9,1.5c-1.1,1-1.8,2.4-2.1,4.2l-0.9,5.1c-0.1,0.5-0.1,0.9-0.1,1.4
					c0,1.3,0.3,2.3,1,3c0.6,0.7,1.5,1.1,2.7,1.1H399.9z"/>
				<path class="st0" d="M415.1,210.5c-1-0.8-1.5-1.9-1.5-3.2c0-0.2,0-0.5,0.1-0.9l0.3-1.6c0.3-1.7,1-2.9,2.2-3.8
					c1.2-0.9,2.7-1.3,4.6-1.3h2.6c0.9,0,1.9,0.2,2.9,0.5c1,0.3,1.8,0.7,2.4,1.2l0.7-3.9c0.1-0.4,0.1-0.7,0.1-0.9
					c0-1-0.3-1.8-0.9-2.4c-0.6-0.6-1.5-0.9-2.5-0.9h-3.1c-1.3,0-2.4,0.3-3.2,0.9c-0.8,0.6-1.4,1.4-1.5,2.3H416
					c0.3-1.6,1-2.8,2.3-3.7c1.2-0.9,2.8-1.4,4.6-1.4h3.1c1.7,0,3.1,0.4,4.1,1.3c1,0.9,1.5,2,1.5,3.5c0,0.4,0,0.8-0.1,1.3l-2.5,14h-2
					l0.6-3.1c-0.9,1.1-1.9,1.9-2.9,2.5c-1,0.6-2,0.9-3,0.9h-2.4C417.5,211.7,416.1,211.3,415.1,210.5z M421.6,209.8
					c1.1,0,2.2-0.4,3.4-1.2s2.1-1.8,2.9-3.1l0.4-2.1c-0.5-0.6-1.2-1-2.1-1.3c-0.9-0.3-1.9-0.5-2.8-0.5h-2.6c-1.3,0-2.3,0.3-3.1,0.9
					c-0.8,0.6-1.3,1.4-1.5,2.5l-0.3,1.5c-0.1,0.3-0.1,0.5-0.1,0.7c0,0.8,0.3,1.5,0.9,2c0.6,0.5,1.4,0.7,2.5,0.7H421.6z"/>
				<path class="st0" d="M439.1,210.5c-0.8-0.6-1.2-1.6-1.2-2.9c0-0.6,0.1-1.2,0.2-1.7l2.2-12.3h-3.4l0.3-1.9h3.5l1.1-6h2.1l-1.1,6
					h5.2l-0.3,1.9h-5.2l-2.2,12.3c-0.1,0.5-0.1,0.9-0.1,1.3c0,0.8,0.2,1.5,0.7,1.8c0.5,0.4,1.2,0.6,2.2,0.6h1.7l-0.3,1.9h-1.6
					C441.1,211.4,439.8,211.1,439.1,210.5z"/>
				<path class="st0" d="M451.4,210.2c-1.1-1-1.7-2.4-1.7-4c0-0.4,0-0.9,0.1-1.4l1.1-6.1c0.4-2.3,1.3-4.1,2.7-5.4
					c1.4-1.3,3.1-1.9,5.2-1.9h3.2c1.8,0,3.2,0.5,4.3,1.5c1.1,1,1.6,2.4,1.6,4.1c0,0.5,0,1-0.1,1.5l-0.6,3.3h-14.8l-0.5,3
					c-0.1,0.3-0.1,0.6-0.1,1.1c0,1.2,0.4,2.1,1.1,2.9c0.7,0.7,1.7,1.1,2.9,1.1h3c1.5,0,2.7-0.4,3.7-1.2s1.6-1.9,1.8-3.3h2.1
					c-0.4,2-1.2,3.6-2.6,4.7c-1.3,1.1-3,1.7-5.1,1.7h-3C454,211.7,452.5,211.2,451.4,210.2z M465.4,200l0.3-1.5
					c0.1-0.4,0.1-0.9,0.1-1.2c0-1.2-0.3-2.2-1-3c-0.7-0.7-1.6-1.1-2.8-1.1h-3.2c-1.5,0-2.8,0.5-3.8,1.4c-1,1-1.7,2.3-2,4l-0.2,1.3
					H465.4z"/>
				<path class="st0" d="M481.9,218.1c-1-0.9-1.4-2-1.3-3.4h2.1c0,0.8,0.3,1.5,0.8,2c0.6,0.5,1.4,0.8,2.4,0.8h3.1
					c1.5,0,2.7-0.5,3.6-1.4c1-1,1.6-2.3,1.9-4l0.8-4.4c-0.8,1.1-1.8,2-3,2.7c-1.1,0.7-2.1,1-3,1H487c-1.6,0-2.8-0.4-3.8-1.3
					c-0.9-0.9-1.4-2.1-1.4-3.6c0-0.5,0-1,0.1-1.4l2.3-13.4h2.1l-2.4,13.4c-0.1,0.4-0.1,0.8-0.1,1.1c0,1,0.3,1.8,0.8,2.5
					c0.5,0.6,1.3,0.9,2.2,0.9h2.5c1.2,0,2.4-0.5,3.7-1.5c1.3-1,2.2-2.3,2.9-3.8l2.3-12.6h2.1l-3.6,20.5c-0.4,2.3-1.3,4.1-2.7,5.4
					c-1.4,1.3-3,1.9-5.1,1.9H486C484.2,219.4,482.9,219,481.9,218.1z"/>
				<path class="st0" d="M505.4,210.1c-1.1-1-1.7-2.4-1.7-4.2c0-0.5,0-1,0.1-1.5l1-5.9c0.4-2.3,1.3-4,2.7-5.3
					c1.4-1.3,3.2-1.9,5.3-1.9h3.1c2,0,3.5,0.5,4.6,1.6c1.1,1,1.7,2.4,1.7,4.2c0,0.5,0,1-0.1,1.5l-1,5.9c-0.4,2.3-1.3,4-2.8,5.3
					c-1.4,1.3-3.2,1.9-5.4,1.9H510C508,211.7,506.5,211.2,505.4,210.1z M513.1,209.8c1.6,0,2.9-0.5,4-1.4c1.1-1,1.8-2.3,2.1-3.9
					l1-5.9c0.1-0.4,0.1-0.8,0.1-1.2c0-1.3-0.4-2.3-1.1-3c-0.8-0.8-1.8-1.1-3.1-1.1H513c-1.6,0-2.9,0.5-3.9,1.4c-1,0.9-1.7,2.3-2,3.9
					l-1,5.9c-0.1,0.4-0.1,0.8-0.1,1.2c0,1.3,0.4,2.3,1.1,3c0.7,0.7,1.7,1.1,3,1.1H513.1z"/>
				<path class="st0" d="M527.9,210.4c-0.9-0.9-1.4-2.1-1.4-3.6c0-0.5,0-1,0.1-1.4l2.4-13.7h2.1l-2.4,13.7c-0.1,0.4-0.1,0.8-0.1,1.1
					c0,1,0.3,1.8,0.8,2.4c0.5,0.6,1.3,0.9,2.2,0.9h2.5c1.2,0,2.5-0.5,3.8-1.6c1.3-1.1,2.3-2.4,2.9-3.9l2.2-12.7h2.1l-3.5,19.8h-2.1
					l0.6-3.6c-0.9,1.2-1.9,2.1-3,2.8c-1.1,0.7-2.1,1.1-3.1,1.1h-2.5C530,211.7,528.8,211.3,527.9,210.4z"/>
				<path class="st0" d="M551.5,191.6h2.1l-0.6,3.2c0.8-1,1.7-1.8,2.8-2.4c1.1-0.6,2.2-0.9,3.4-0.9h1.8l-0.3,1.9h-1.5
					c-1.7,0-3.2,0.6-4.5,1.7c-1.3,1.1-2.1,2.5-2.4,4.3l-2.1,12H548L551.5,191.6z"/>
				<path class="st0" d="M575.3,191.6h2.1l-0.6,3.4c0.9-1.2,1.9-2.1,2.9-2.7c1.1-0.6,2.1-1,3.1-1h2.6c1.6,0,2.8,0.4,3.7,1.3
					c0.9,0.9,1.4,2.1,1.4,3.7c0,0.3-0.1,0.8-0.2,1.5l-2.4,13.5h-2.1l2.4-13.6c0.1-0.4,0.1-0.9,0.1-1.3c0-1-0.3-1.8-0.8-2.5
					c-0.5-0.6-1.3-0.9-2.2-0.9h-2.6c-1.2,0-2.4,0.5-3.6,1.5c-1.2,1-2.2,2.2-2.9,3.8l-2.3,12.9h-2.1L575.3,191.6z"/>
				<path class="st0" d="M596.4,210.4c-0.9-0.9-1.4-2.1-1.4-3.6c0-0.5,0-1,0.1-1.4l2.4-13.7h2.1l-2.4,13.7c-0.1,0.4-0.1,0.8-0.1,1.1
					c0,1,0.3,1.8,0.8,2.4s1.3,0.9,2.2,0.9h2.5c1.2,0,2.5-0.5,3.8-1.6c1.3-1.1,2.3-2.4,2.9-3.9l2.2-12.7h2.1l-3.5,19.8H608l0.6-3.6
					c-0.9,1.2-1.9,2.1-3,2.8c-1.1,0.7-2.1,1.1-3.1,1.1h-2.5C598.5,211.7,597.3,211.3,596.4,210.4z"/>
				<path class="st0" d="M644.7,192.5c0.8,0.8,1.2,2,1.2,3.4c0,0.4,0,0.9-0.1,1.3l-2.5,14.1h-2.1l2.5-14.1c0.1-0.2,0.1-0.6,0.1-1.1
					c0-0.9-0.2-1.7-0.7-2.2c-0.5-0.5-1.1-0.8-1.9-0.8h-2.3c-1.1,0-2.2,0.4-3.2,1.3c-1,0.9-1.7,2-2.2,3.4l-2.4,13.5h-2.1l2.4-13.8
					c0.1-0.4,0.1-0.9,0.1-1.3c0-1-0.2-1.7-0.7-2.3c-0.4-0.6-1-0.8-1.8-0.8h-2.3c-1.1,0-2.2,0.5-3.2,1.5c-1.1,1-1.9,2.2-2.5,3.8
					l-2.3,12.9h-2.1l3.5-19.8h2.1l-0.6,3.2c0.7-1.1,1.6-1.9,2.5-2.6c0.9-0.6,1.8-1,2.7-1h2.3c1.1,0,2,0.3,2.8,1
					c0.8,0.6,1.3,1.5,1.5,2.5c0.7-1.1,1.5-1.9,2.5-2.5c1-0.6,1.9-1,2.9-1h2.4C642.7,191.3,643.8,191.7,644.7,192.5z"/>
				<path class="st0" d="M654.3,210.8c-0.9-0.6-1.6-1.4-2.1-2.4l-0.5,3h-2.1l4.9-27.7h2.1l-1.9,10.7c0.7-1,1.6-1.7,2.6-2.3
					c1-0.6,2-0.8,3-0.8h2.8c1.8,0,3.2,0.5,4.2,1.5c1,1,1.5,2.4,1.5,4.1c0,0.3-0.1,0.8-0.2,1.6l-1,5.5c-0.4,2.4-1.3,4.2-2.7,5.6
					c-1.4,1.4-3.1,2-5.1,2h-2.7C656.2,211.7,655.2,211.4,654.3,210.8z M659.9,209.8c1.5,0,2.7-0.5,3.8-1.5c1-1,1.7-2.4,2-4.2l1-5.5
					c0.1-0.5,0.1-0.9,0.1-1.3c0-1.2-0.3-2.2-1-2.9c-0.7-0.7-1.6-1.1-2.7-1.1h-2.7c-1.5,0-2.9,0.5-4.1,1.6c-1.2,1-2,2.4-2.4,4.1
					l-1.1,5.9c0,1.3,0.4,2.5,1.3,3.5c0.8,1,1.9,1.5,3.1,1.5H659.9z"/>
				<path class="st0" d="M674.2,210.2c-1.1-1-1.7-2.4-1.7-4c0-0.4,0-0.9,0.1-1.4l1.1-6.1c0.4-2.3,1.3-4.1,2.7-5.4
					c1.4-1.3,3.1-1.9,5.2-1.9h3.2c1.8,0,3.2,0.5,4.3,1.5c1.1,1,1.6,2.4,1.6,4.1c0,0.5,0,1-0.1,1.5l-0.6,3.3h-14.8l-0.5,3
					c-0.1,0.3-0.1,0.6-0.1,1.1c0,1.2,0.4,2.1,1.1,2.9c0.7,0.7,1.7,1.1,2.9,1.1h3c1.5,0,2.7-0.4,3.7-1.2c1-0.8,1.6-1.9,1.8-3.3h2.1
					c-0.4,2-1.2,3.6-2.6,4.7c-1.3,1.1-3,1.7-5.1,1.7h-3C676.8,211.7,675.3,211.2,674.2,210.2z M688.2,200l0.3-1.5
					c0.1-0.4,0.1-0.9,0.1-1.2c0-1.2-0.3-2.2-1-3c-0.7-0.7-1.6-1.1-2.8-1.1h-3.2c-1.5,0-2.8,0.5-3.8,1.4c-1,1-1.7,2.3-2,4l-0.2,1.3
					H688.2z"/>
				<path class="st0" d="M697.3,191.6h2.1l-0.6,3.2c0.8-1,1.7-1.8,2.8-2.4c1.1-0.6,2.2-0.9,3.4-0.9h1.8l-0.3,1.9H705
					c-1.7,0-3.2,0.6-4.5,1.7c-1.3,1.1-2.1,2.5-2.4,4.3l-2.1,12h-2.1L697.3,191.6z"/>
				<path class="st0" d="M709,210.4c-1-0.9-1.5-2-1.5-3.5c0-0.4,0-0.8,0.1-1.2h2.1c-0.1,0.4-0.1,0.7-0.1,0.9c0,1,0.3,1.8,1,2.4
					c0.6,0.6,1.5,0.9,2.6,0.9h3.4c1.3,0,2.4-0.3,3.2-0.8c0.8-0.5,1.3-1.2,1.5-2.1l0.3-1.5c0-0.1,0-0.3,0-0.4c0-0.5-0.2-1-0.5-1.3
					c-0.3-0.3-0.8-0.6-1.4-0.7l-6.7-1.2c-1.1-0.2-2-0.6-2.6-1.2c-0.6-0.6-1-1.4-1-2.4c0-0.3,0-0.5,0-0.6l0.2-1.3
					c0.3-1.6,1-2.8,2.2-3.6c1.1-0.9,2.6-1.3,4.4-1.3h3.4c1.6,0,2.9,0.4,3.8,1.2c1,0.8,1.4,1.9,1.4,3.3c0,0.2,0,0.5-0.1,1h-2.1
					c0-0.2,0-0.4,0-0.7c0-0.9-0.3-1.6-0.9-2.2c-0.6-0.5-1.3-0.8-2.3-0.8h-3.4c-1.2,0-2.2,0.3-3,0.8c-0.8,0.5-1.2,1.3-1.4,2.3
					l-0.2,1.3c0,0.1,0,0.3,0,0.4c0,0.5,0.2,1,0.6,1.3c0.4,0.4,0.9,0.6,1.6,0.7l6.7,1.2c1.1,0.2,1.9,0.6,2.5,1.2s0.9,1.4,0.9,2.3
					c0,0.3,0,0.5,0,0.7l-0.3,1.7c-0.3,1.5-1,2.6-2.2,3.4c-1.2,0.8-2.8,1.2-4.7,1.2h-3.4C711.4,211.7,710,211.3,709,210.4z"/>
			</g>
			<g>
				<g>
					<path class="st4" d="M184.5,256.3c-1.3,0.8-2.8,1.3-4.6,1.3c-1.7,0-3.1-0.4-4.4-1.1c-1.2-0.7-2.2-1.7-2.9-3
						c-0.7-1.3-1-2.9-1-4.7c0-1.8,0.3-3.4,1-4.7s1.6-2.3,2.8-3c1.2-0.7,2.7-1.1,4.3-1.1c1.8,0,3.3,0.4,4.5,1.1
						c1.2,0.7,2.1,1.8,2.5,3.3l-3.2,1.4c-0.3-1-0.7-1.7-1.3-2.2c-0.6-0.4-1.4-0.7-2.4-0.7c-1.4,0-2.6,0.5-3.4,1.5
						c-0.8,1-1.2,2.5-1.2,4.3c0,1.9,0.4,3.3,1.2,4.3c0.8,1,1.9,1.5,3.4,1.5c2.1,0,3.4-1,3.9-3l3.3,1
						C186.6,254.2,185.7,255.5,184.5,256.3z"/>
					<path class="st4" d="M200.9,245.3c0.9,0.8,1.3,2,1.3,3.5v8.5h-3.5v-7.4c0-2-0.8-2.9-2.3-2.9c-0.8,0-1.5,0.3-2.1,0.9
						s-0.9,1.5-0.9,2.7v6.8h-3.5v-18.6h3.5v7.9c0.4-0.8,1-1.4,1.7-1.8c0.7-0.4,1.5-0.6,2.5-0.6C198.9,244.1,200,244.5,200.9,245.3z"
						/>
					<path class="st4" d="M218.5,255.1l-0.3,2.1c-0.5,0.2-1,0.4-1.7,0.4c-1.7,0-2.6-0.6-3-1.9c-0.4,0.6-1,1.1-1.8,1.4
						c-0.8,0.3-1.7,0.5-2.8,0.5c-1.3,0-2.2-0.3-2.9-0.9c-0.7-0.6-1.1-1.4-1.1-2.5c0-2.1,1.7-3.5,5-4.1l3.1-0.6V249
						c0-0.7-0.2-1.2-0.6-1.6c-0.4-0.4-0.9-0.6-1.6-0.6c-0.8,0-1.4,0.2-1.9,0.5c-0.5,0.3-0.8,0.9-1,1.7l-2.8-1.2
						c0.3-1.1,0.9-2,1.9-2.6c1-0.6,2.2-1,3.8-1c1.8,0,3.3,0.4,4.3,1.2c1,0.8,1.6,2,1.6,3.6v5.3c0,0.3,0.1,0.6,0.2,0.7
						c0.2,0.2,0.4,0.2,0.7,0.2C218,255.2,218.3,255.1,218.5,255.1z M212.2,254.6c0.6-0.4,0.9-0.9,0.9-1.5v-1.3l-2.8,0.6
						c-0.6,0.1-1,0.3-1.3,0.6c-0.3,0.2-0.4,0.6-0.4,1c0,0.4,0.1,0.7,0.4,0.9c0.3,0.2,0.6,0.3,1.1,0.3
						C210.9,255.2,211.6,255,212.2,254.6z"/>
					<path class="st4" d="M229.4,244.4l-0.4,3.1c-0.4-0.3-0.9-0.4-1.6-0.4c-0.8,0-1.6,0.3-2.2,0.9s-0.9,1.5-0.9,2.6v6.7h-3.5v-12.9
						h3.1l0.2,2.5c0.7-1.9,2-2.8,4-2.8C228.6,244.1,229,244.2,229.4,244.4z"/>
					<path class="st4" d="M239.9,256.5c-0.4,0.3-0.9,0.6-1.6,0.8s-1.3,0.3-2,0.3c-2.9,0-4.3-1.3-4.3-3.9V247h-2.4v-2.6h2.4v-3l3.5-1
						v4h4.2v2.6h-4.2v6.1c0,1.2,0.6,1.8,1.8,1.8c0.8,0,1.4-0.2,2-0.7L239.9,256.5z"/>
					<path class="st4" d="M254.1,252.2H245c0.4,1.8,1.4,2.7,3.2,2.7c0.7,0,1.4-0.1,1.8-0.4c0.5-0.3,0.8-0.7,1-1.2l2.9,1.1
						c-0.4,1-1.1,1.8-2.1,2.4c-1,0.5-2.2,0.8-3.7,0.8c-2.1,0-3.8-0.6-5-1.8c-1.2-1.2-1.8-2.8-1.8-4.9c0-2.1,0.6-3.8,1.7-4.9
						c1.1-1.2,2.7-1.8,4.8-1.8c2,0,3.5,0.6,4.6,1.7c1.1,1.2,1.6,2.8,1.6,4.9C254.2,251.3,254.2,251.7,254.1,252.2z M245.9,247.5
						c-0.5,0.5-0.8,1.2-1,2.2h6c-0.1-1-0.5-1.7-1-2.2c-0.5-0.5-1.2-0.8-2-0.8C247.1,246.7,246.4,247,245.9,247.5z"/>
					<path class="st4" d="M265.9,244.4l-0.4,3.1c-0.4-0.3-0.9-0.4-1.6-0.4c-0.8,0-1.6,0.3-2.2,0.9c-0.6,0.6-0.9,1.5-0.9,2.6v6.7
						h-3.5v-12.9h3.1l0.2,2.5c0.7-1.9,2-2.8,4-2.8C265.1,244.1,265.6,244.2,265.9,244.4z"/>
					<path class="st4" d="M279.8,252.2h-9.1c0.4,1.8,1.4,2.7,3.2,2.7c0.7,0,1.4-0.1,1.8-0.4c0.5-0.3,0.8-0.7,1-1.2l2.9,1.1
						c-0.4,1-1.1,1.8-2.1,2.4c-1,0.5-2.2,0.8-3.7,0.8c-2.1,0-3.8-0.6-5-1.8c-1.2-1.2-1.8-2.8-1.8-4.9c0-2.1,0.6-3.8,1.7-4.9
						c1.1-1.2,2.7-1.8,4.8-1.8c2,0,3.5,0.6,4.6,1.7c1.1,1.2,1.6,2.8,1.6,4.9C279.9,251.3,279.9,251.7,279.8,252.2z M271.6,247.5
						c-0.5,0.5-0.8,1.2-1,2.2h6c-0.1-1-0.5-1.7-1-2.2c-0.5-0.5-1.2-0.8-2-0.8C272.8,246.7,272.1,247,271.6,247.5z"/>
					<path class="st4" d="M295.4,238.7v18.6h-3.2l-0.2-2.4c-0.4,0.8-0.9,1.5-1.7,1.9c-0.7,0.5-1.6,0.7-2.6,0.7
						c-1.7,0-3.1-0.6-4.1-1.8c-1-1.2-1.5-2.8-1.5-4.9c0-2.1,0.5-3.8,1.5-5c1-1.2,2.3-1.8,4.1-1.8c0.9,0,1.7,0.2,2.4,0.6
						c0.7,0.4,1.2,1,1.6,1.7v-7.8H295.4z M291.1,253.8c0.5-0.7,0.8-1.6,0.8-2.9v-0.3c0-1.2-0.3-2.2-0.8-2.9c-0.5-0.7-1.3-1-2.2-1
						c-0.9,0-1.7,0.3-2.2,1c-0.5,0.7-0.8,1.7-0.8,3s0.3,2.3,0.8,3c0.5,0.7,1.3,1,2.2,1C289.8,254.8,290.5,254.5,291.1,253.8z"/>
					<path class="st4" d="M316.4,253.1h-6.6l-1.4,4.2h-3.6l6.2-17.1h4.3l6.2,17.1h-3.7L316.4,253.1z M315.5,250.5l-1.6-4.8l-0.8-2.6
						h-0.1l-0.7,2.5l-1.7,4.9H315.5z"/>
					<path class="st4" d="M333.2,245.2c0.9,0.7,1.6,1.6,1.9,2.8l-3.3,1.2c-0.3-1.6-1.1-2.4-2.5-2.4c-1,0-1.8,0.3-2.3,1
						c-0.5,0.7-0.8,1.7-0.8,3.1s0.3,2.4,0.8,3c0.6,0.7,1.3,1,2.3,1c1.5,0,2.4-0.8,2.7-2.3l3.2,1c-0.3,1.2-0.9,2.1-1.9,2.8
						c-1,0.7-2.3,1.1-3.9,1.1c-2.1,0-3.8-0.6-5-1.8c-1.2-1.2-1.8-2.8-1.8-4.9c0-2.1,0.6-3.8,1.7-4.9c1.2-1.2,2.8-1.8,4.8-1.8
						C331,244.1,332.3,244.5,333.2,245.2z"/>
					<path class="st4" d="M347.9,245.2c0.9,0.7,1.6,1.6,1.9,2.8l-3.3,1.2c-0.3-1.6-1.1-2.4-2.5-2.4c-1,0-1.8,0.3-2.3,1
						c-0.5,0.7-0.8,1.7-0.8,3.1s0.3,2.4,0.8,3c0.6,0.7,1.3,1,2.3,1c1.5,0,2.4-0.8,2.7-2.3l3.2,1c-0.3,1.2-0.9,2.1-1.9,2.8
						c-1,0.7-2.3,1.1-3.9,1.1c-2.1,0-3.8-0.6-5-1.8c-1.2-1.2-1.8-2.8-1.8-4.9c0-2.1,0.6-3.8,1.7-4.9c1.2-1.2,2.8-1.8,4.8-1.8
						C345.7,244.1,347,244.5,347.9,245.2z"/>
					<path class="st4" d="M363.6,245.9c1.2,1.2,1.7,2.8,1.7,4.9c0,2.1-0.6,3.7-1.7,4.9c-1.2,1.2-2.8,1.8-4.9,1.8
						c-2.1,0-3.7-0.6-4.9-1.8c-1.2-1.2-1.7-2.8-1.7-4.9c0-2.1,0.6-3.7,1.7-4.9c1.2-1.2,2.8-1.8,4.9-1.8
						C360.8,244.1,362.4,244.7,363.6,245.9z M356.4,247.8c-0.5,0.7-0.8,1.7-0.8,3.1c0,1.4,0.3,2.4,0.8,3.1s1.3,1,2.3,1
						c1,0,1.8-0.3,2.3-1s0.8-1.7,0.8-3.1c0-1.4-0.3-2.4-0.8-3.1c-0.5-0.7-1.3-1-2.3-1C357.7,246.8,356.9,247.1,356.4,247.8z"/>
					<path class="st4" d="M380.6,244.4v12.9h-3.2l-0.1-2.2c-0.8,1.7-2.3,2.5-4.5,2.5c-1.4,0-2.5-0.4-3.3-1.1
						c-0.8-0.7-1.2-1.9-1.2-3.5v-8.6h3.5v7.7c0,1,0.2,1.7,0.6,2.1c0.4,0.4,0.9,0.6,1.7,0.6c0.9,0,1.6-0.3,2.2-0.9s0.8-1.4,0.8-2.6
						v-6.9H380.6z"/>
					<path class="st4" d="M395.4,245.3c0.9,0.8,1.3,2,1.3,3.5v8.5h-3.5v-7.4c0-2-0.8-2.9-2.3-2.9c-0.8,0-1.5,0.3-2.1,0.9
						c-0.6,0.6-0.9,1.5-0.9,2.7v6.8h-3.5v-12.9h3.2l0.1,2.3c0.4-0.8,1-1.5,1.8-1.9c0.8-0.4,1.6-0.6,2.6-0.6
						C393.4,244.1,394.6,244.5,395.4,245.3z"/>
					<path class="st4" d="M409.1,256.5c-0.4,0.3-0.9,0.6-1.6,0.8s-1.3,0.3-2,0.3c-2.9,0-4.3-1.3-4.3-3.9V247h-2.4v-2.6h2.4v-3l3.5-1
						v4h4.2v2.6h-4.2v6.1c0,1.2,0.6,1.8,1.8,1.8c0.8,0,1.4-0.2,2-0.7L409.1,256.5z"/>
					<path class="st4" d="M424.2,255.1l-0.3,2.1c-0.5,0.2-1,0.4-1.7,0.4c-1.7,0-2.6-0.6-3-1.9c-0.4,0.6-1,1.1-1.8,1.4
						c-0.8,0.3-1.7,0.5-2.8,0.5c-1.3,0-2.2-0.3-2.9-0.9c-0.7-0.6-1.1-1.4-1.1-2.5c0-2.1,1.7-3.5,5-4.1l3.1-0.6V249
						c0-0.7-0.2-1.2-0.6-1.6c-0.4-0.4-0.9-0.6-1.6-0.6c-0.8,0-1.4,0.2-1.9,0.5c-0.5,0.3-0.8,0.9-1,1.7l-2.8-1.2
						c0.3-1.1,0.9-2,1.9-2.6c1-0.6,2.2-1,3.8-1c1.8,0,3.3,0.4,4.3,1.2c1,0.8,1.6,2,1.6,3.6v5.3c0,0.3,0.1,0.6,0.2,0.7
						c0.2,0.2,0.4,0.2,0.7,0.2C423.6,255.2,423.9,255.1,424.2,255.1z M417.9,254.6c0.6-0.4,0.9-0.9,0.9-1.5v-1.3l-2.8,0.6
						c-0.6,0.1-1,0.3-1.3,0.6c-0.3,0.2-0.4,0.6-0.4,1c0,0.4,0.1,0.7,0.4,0.9c0.3,0.2,0.6,0.3,1.1,0.3
						C416.5,255.2,417.2,255,417.9,254.6z"/>
					<path class="st4" d="M437.4,245.3c0.9,0.8,1.3,2,1.3,3.5v8.5h-3.5v-7.4c0-2-0.8-2.9-2.3-2.9c-0.8,0-1.5,0.3-2.1,0.9
						c-0.6,0.6-0.9,1.5-0.9,2.7v6.8h-3.5v-12.9h3.2l0.1,2.3c0.4-0.8,1-1.5,1.8-1.9c0.8-0.4,1.6-0.6,2.6-0.6
						C435.4,244.1,436.5,244.5,437.4,245.3z"/>
					<path class="st4" d="M451.1,256.5c-0.4,0.3-0.9,0.6-1.6,0.8s-1.3,0.3-2,0.3c-2.9,0-4.3-1.3-4.3-3.9V247h-2.4v-2.6h2.4v-3l3.5-1
						v4h4.2v2.6h-4.2v6.1c0,1.2,0.6,1.8,1.8,1.8c0.8,0,1.4-0.2,2-0.7L451.1,256.5z"/>
					<path class="st4" d="M452.3,255.1l2.1-2.1c0.3,0.7,0.8,1.3,1.5,1.6c0.6,0.3,1.4,0.5,2.4,0.5c0.8,0,1.3-0.1,1.8-0.3
						c0.4-0.2,0.6-0.5,0.6-0.9c0-0.3-0.2-0.5-0.6-0.7c-0.4-0.2-1.1-0.4-2-0.6c-2-0.4-3.4-0.9-4.2-1.6c-0.8-0.6-1.2-1.5-1.2-2.6
						c0-0.7,0.2-1.4,0.7-2c0.4-0.6,1.1-1.1,2-1.5c0.9-0.4,1.9-0.6,3.2-0.6c1.4,0,2.6,0.2,3.5,0.7c0.9,0.4,1.6,1.1,2.2,2.1l-2.2,1.9
						c-0.4-0.7-0.8-1.2-1.4-1.5c-0.6-0.3-1.3-0.5-2.1-0.5c-0.7,0-1.3,0.1-1.7,0.4c-0.4,0.2-0.6,0.5-0.6,0.9c0,0.4,0.2,0.7,0.6,0.9
						c0.4,0.2,1.1,0.5,2.2,0.7c1.9,0.4,3.2,0.9,4,1.5s1.2,1.5,1.2,2.5c0,1.2-0.5,2.2-1.5,2.9c-1,0.7-2.5,1.1-4.4,1.1
						C455.4,257.6,453.4,256.7,452.3,255.1z"/>
					<path class="st4" d="M489.1,257.6c-0.9,0-1.6-0.1-2.3-0.3c-0.6-0.2-1.3-0.7-2.1-1.4c-0.6,0.6-1.4,1-2.2,1.3s-1.8,0.5-2.8,0.5
						c-1.7,0-3.1-0.4-4.2-1.3c-1.1-0.8-1.6-2-1.6-3.4c0-1,0.3-1.9,0.9-2.7c0.6-0.8,1.5-1.5,2.9-2.1c-0.7-0.9-1.2-1.6-1.5-2.2
						c-0.3-0.6-0.4-1.2-0.4-1.9c0-0.7,0.2-1.4,0.5-2c0.4-0.6,0.9-1.1,1.6-1.5c0.7-0.4,1.6-0.6,2.6-0.6c1.4,0,2.6,0.3,3.4,1
						c0.8,0.7,1.3,1.6,1.3,2.8c0,1-0.3,1.9-0.8,2.6c-0.6,0.8-1.5,1.5-2.8,2.1c0.7,0.8,1.2,1.3,1.4,1.7l0.6,0.7
						c0.6,0.7,1,1.2,1.2,1.4c0.6-1.1,0.8-2.4,0.7-3.9l2.5,0.1c0,1-0.1,2-0.4,2.9c-0.3,0.9-0.7,1.7-1.3,2.5c0.5,0.4,0.9,0.7,1.3,0.9
						c0.4,0.2,0.8,0.3,1.3,0.3c0.2,0,0.4,0,0.5,0L489.1,257.6z M477.9,254.4c0.6,0.4,1.3,0.7,2.1,0.7c1.2,0,2.2-0.3,3.2-0.8
						c-0.6-0.7-1.3-1.4-1.9-2.1l-0.5-0.5c-0.8-0.8-1.3-1.4-1.7-1.8c-0.8,0.6-1.4,1-1.6,1.5c-0.3,0.4-0.4,0.9-0.4,1.5
						C477,253.4,477.3,254,477.9,254.4z M479.4,242.9c-0.3,0.3-0.5,0.7-0.5,1.3c0,0.4,0.1,0.8,0.3,1.2c0.2,0.4,0.6,0.9,1.2,1.7
						c0.8-0.5,1.3-1,1.6-1.5c0.3-0.5,0.4-1,0.4-1.6c0-0.5-0.2-0.9-0.5-1.1c-0.3-0.3-0.7-0.4-1.3-0.4
						C480.1,242.5,479.7,242.6,479.4,242.9z"/>
					<path class="st4" d="M499.7,240.2h7.5c2,0,3.5,0.4,4.5,1.2c1,0.8,1.5,2,1.5,3.5c0,0.9-0.3,1.8-0.9,2.5
						c-0.6,0.7-1.4,1.1-2.4,1.3v0c1.2,0.2,2.1,0.6,2.7,1.3c0.6,0.7,1,1.6,1,2.6c0,1.5-0.5,2.6-1.6,3.5c-1.1,0.8-2.6,1.2-4.6,1.2
						h-7.7V240.2z M506.7,247.4c1.9,0,2.8-0.7,2.8-2.2c0-1.5-0.9-2.2-2.8-2.2h-3.5v4.4H506.7z M507.1,254.6c0.9,0,1.7-0.2,2.1-0.6
						c0.5-0.4,0.7-0.9,0.7-1.7c0-0.7-0.2-1.3-0.7-1.7c-0.5-0.4-1.2-0.6-2.1-0.6h-4v4.5H507.1z"/>
					<path class="st4" d="M529,244.4v12.9h-3.2l-0.1-2.2c-0.8,1.7-2.3,2.5-4.5,2.5c-1.4,0-2.5-0.4-3.3-1.1c-0.8-0.7-1.2-1.9-1.2-3.5
						v-8.6h3.5v7.7c0,1,0.2,1.7,0.6,2.1c0.4,0.4,0.9,0.6,1.7,0.6c0.9,0,1.6-0.3,2.2-0.9c0.6-0.6,0.8-1.4,0.8-2.6v-6.9H529z"/>
					<path class="st4" d="M531.7,255.1l2.1-2.1c0.3,0.7,0.8,1.3,1.5,1.6c0.6,0.3,1.4,0.5,2.4,0.5c0.8,0,1.3-0.1,1.8-0.3
						c0.4-0.2,0.6-0.5,0.6-0.9c0-0.3-0.2-0.5-0.6-0.7c-0.4-0.2-1.1-0.4-2-0.6c-2-0.4-3.4-0.9-4.2-1.6c-0.8-0.6-1.2-1.5-1.2-2.6
						c0-0.7,0.2-1.4,0.7-2c0.4-0.6,1.1-1.1,2-1.5c0.9-0.4,1.9-0.6,3.2-0.6c1.4,0,2.6,0.2,3.5,0.7c0.9,0.4,1.6,1.1,2.2,2.1l-2.2,1.9
						c-0.4-0.7-0.8-1.2-1.4-1.5c-0.6-0.3-1.3-0.5-2.1-0.5c-0.7,0-1.3,0.1-1.7,0.4c-0.4,0.2-0.6,0.5-0.6,0.9c0,0.4,0.2,0.7,0.6,0.9
						c0.4,0.2,1.1,0.5,2.2,0.7c1.9,0.4,3.2,0.9,4,1.5s1.2,1.5,1.2,2.5c0,1.2-0.5,2.2-1.5,2.9c-1,0.7-2.5,1.1-4.4,1.1
						C534.8,257.6,532.8,256.7,531.7,255.1z"/>
					<path class="st4" d="M546,240.6c0-1.3,0.7-1.9,2.2-1.9c1.5,0,2.2,0.6,2.2,1.9c0,1.3-0.7,1.9-2.2,1.9
						C546.7,242.5,546,241.9,546,240.6z M550,257.3h-3.5v-12.9h3.5V257.3z"/>
					<path class="st4" d="M564.8,245.3c0.9,0.8,1.3,2,1.3,3.5v8.5h-3.5v-7.4c0-2-0.8-2.9-2.3-2.9c-0.8,0-1.5,0.3-2.1,0.9
						c-0.6,0.6-0.9,1.5-0.9,2.7v6.8h-3.5v-12.9h3.2l0.1,2.3c0.4-0.8,1-1.5,1.8-1.9c0.8-0.4,1.6-0.6,2.6-0.6
						C562.8,244.1,563.9,244.5,564.8,245.3z"/>
					<path class="st4" d="M581.7,252.2h-9.1c0.4,1.8,1.4,2.7,3.2,2.7c0.7,0,1.4-0.1,1.8-0.4c0.5-0.3,0.8-0.7,1-1.2l2.9,1.1
						c-0.4,1-1.1,1.8-2.1,2.4c-1,0.5-2.2,0.8-3.7,0.8c-2.1,0-3.8-0.6-5-1.8c-1.2-1.2-1.8-2.8-1.8-4.9c0-2.1,0.6-3.8,1.7-4.9
						c1.1-1.2,2.7-1.8,4.8-1.8c2,0,3.5,0.6,4.6,1.7c1.1,1.2,1.6,2.8,1.6,4.9C581.8,251.3,581.7,251.7,581.7,252.2z M573.5,247.5
						c-0.5,0.5-0.8,1.2-1,2.2h6c-0.1-1-0.5-1.7-1-2.2c-0.5-0.5-1.2-0.8-2-0.8C574.7,246.7,574,247,573.5,247.5z"/>
					<path class="st4" d="M583.8,255.1l2.1-2.1c0.3,0.7,0.8,1.3,1.5,1.6c0.6,0.3,1.4,0.5,2.4,0.5c0.8,0,1.3-0.1,1.8-0.3
						c0.4-0.2,0.6-0.5,0.6-0.9c0-0.3-0.2-0.5-0.6-0.7c-0.4-0.2-1.1-0.4-2-0.6c-2-0.4-3.4-0.9-4.2-1.6c-0.8-0.6-1.2-1.5-1.2-2.6
						c0-0.7,0.2-1.4,0.7-2c0.4-0.6,1.1-1.1,2-1.5c0.9-0.4,1.9-0.6,3.2-0.6c1.4,0,2.6,0.2,3.5,0.7c0.9,0.4,1.6,1.1,2.2,2.1l-2.2,1.9
						c-0.4-0.7-0.8-1.2-1.4-1.5c-0.6-0.3-1.3-0.5-2.1-0.5c-0.7,0-1.3,0.1-1.7,0.4c-0.4,0.2-0.6,0.5-0.6,0.9c0,0.4,0.2,0.7,0.6,0.9
						c0.4,0.2,1.1,0.5,2.2,0.7c1.9,0.4,3.2,0.9,4,1.5c0.8,0.6,1.2,1.5,1.2,2.5c0,1.2-0.5,2.2-1.5,2.9c-1,0.7-2.5,1.1-4.4,1.1
						C586.9,257.6,584.9,256.7,583.8,255.1z"/>
					<path class="st4" d="M597.5,255.1l2.1-2.1c0.3,0.7,0.8,1.3,1.5,1.6c0.6,0.3,1.4,0.5,2.4,0.5c0.8,0,1.3-0.1,1.8-0.3
						c0.4-0.2,0.6-0.5,0.6-0.9c0-0.3-0.2-0.5-0.6-0.7c-0.4-0.2-1.1-0.4-2-0.6c-2-0.4-3.4-0.9-4.2-1.6c-0.8-0.6-1.2-1.5-1.2-2.6
						c0-0.7,0.2-1.4,0.7-2c0.4-0.6,1.1-1.1,2-1.5c0.9-0.4,1.9-0.6,3.2-0.6c1.4,0,2.6,0.2,3.5,0.7c0.9,0.4,1.6,1.1,2.2,2.1l-2.2,1.9
						c-0.4-0.7-0.8-1.2-1.4-1.5c-0.6-0.3-1.3-0.5-2.1-0.5c-0.7,0-1.3,0.1-1.7,0.4c-0.4,0.2-0.6,0.5-0.6,0.9c0,0.4,0.2,0.7,0.6,0.9
						c0.4,0.2,1.1,0.5,2.2,0.7c1.9,0.4,3.2,0.9,4,1.5s1.2,1.5,1.2,2.5c0,1.2-0.5,2.2-1.5,2.9c-1,0.7-2.5,1.1-4.4,1.1
						C600.6,257.6,598.6,256.7,597.5,255.1z"/>
					<path class="st4" d="M629.4,253.1h-6.6l-1.4,4.2h-3.6l6.2-17.1h4.3l6.2,17.1h-3.7L629.4,253.1z M628.5,250.5l-1.6-4.8l-0.8-2.6
						h-0.1l-0.7,2.5l-1.7,4.9H628.5z"/>
					<path class="st4" d="M648.9,238.7v18.6h-3.2l-0.2-2.4c-0.4,0.8-0.9,1.5-1.7,1.9c-0.7,0.5-1.6,0.7-2.6,0.7
						c-1.7,0-3.1-0.6-4.1-1.8c-1-1.2-1.5-2.8-1.5-4.9c0-2.1,0.5-3.8,1.5-5c1-1.2,2.3-1.8,4.1-1.8c0.9,0,1.7,0.2,2.4,0.6
						c0.7,0.4,1.2,1,1.6,1.7v-7.8H648.9z M644.5,253.8c0.5-0.7,0.8-1.6,0.8-2.9v-0.3c0-1.2-0.3-2.2-0.8-2.9c-0.5-0.7-1.3-1-2.2-1
						c-0.9,0-1.7,0.3-2.2,1c-0.5,0.7-0.8,1.7-0.8,3s0.3,2.3,0.8,3c0.5,0.7,1.3,1,2.2,1C643.3,254.8,644,254.5,644.5,253.8z"/>
					<path class="st4" d="M664.8,244.4l-4.9,12.9h-4.1l-4.9-12.9h3.8l3.2,10.4l3.3-10.4H664.8z"/>
					<path class="st4" d="M666.3,240.6c0-1.3,0.7-1.9,2.2-1.9c1.5,0,2.2,0.6,2.2,1.9c0,1.3-0.7,1.9-2.2,1.9
						C667.1,242.5,666.3,241.9,666.3,240.6z M670.3,257.3h-3.5v-12.9h3.5V257.3z"/>
					<path class="st4" d="M673,255.1l2.1-2.1c0.3,0.7,0.8,1.3,1.5,1.6c0.6,0.3,1.4,0.5,2.4,0.5c0.8,0,1.3-0.1,1.8-0.3
						c0.4-0.2,0.6-0.5,0.6-0.9c0-0.3-0.2-0.5-0.6-0.7c-0.4-0.2-1.1-0.4-2-0.6c-2-0.4-3.4-0.9-4.2-1.6c-0.8-0.6-1.2-1.5-1.2-2.6
						c0-0.7,0.2-1.4,0.7-2c0.4-0.6,1.1-1.1,2-1.5c0.9-0.4,1.9-0.6,3.2-0.6c1.4,0,2.6,0.2,3.5,0.7c0.9,0.4,1.6,1.1,2.2,2.1l-2.2,1.9
						c-0.4-0.7-0.8-1.2-1.4-1.5c-0.6-0.3-1.3-0.5-2.1-0.5c-0.7,0-1.3,0.1-1.7,0.4c-0.4,0.2-0.6,0.5-0.6,0.9c0,0.4,0.2,0.7,0.6,0.9
						c0.4,0.2,1.1,0.5,2.2,0.7c1.9,0.4,3.2,0.9,4,1.5s1.2,1.5,1.2,2.5c0,1.2-0.5,2.2-1.5,2.9c-1,0.7-2.5,1.1-4.4,1.1
						C676.2,257.6,674.2,256.7,673,255.1z"/>
					<path class="st4" d="M698.5,245.9c1.2,1.2,1.7,2.8,1.7,4.9c0,2.1-0.6,3.7-1.7,4.9c-1.2,1.2-2.8,1.8-4.9,1.8
						c-2.1,0-3.7-0.6-4.9-1.8c-1.2-1.2-1.7-2.8-1.7-4.9c0-2.1,0.6-3.7,1.7-4.9c1.2-1.2,2.8-1.8,4.9-1.8
						C695.7,244.1,697.4,244.7,698.5,245.9z M691.4,247.8c-0.5,0.7-0.8,1.7-0.8,3.1c0,1.4,0.3,2.4,0.8,3.1s1.3,1,2.3,1
						c1,0,1.8-0.3,2.3-1s0.8-1.7,0.8-3.1c0-1.4-0.3-2.4-0.8-3.1c-0.5-0.7-1.3-1-2.3-1C692.6,246.8,691.9,247.1,691.4,247.8z"/>
					<path class="st4" d="M712,244.4l-0.4,3.1c-0.4-0.3-0.9-0.4-1.6-0.4c-0.8,0-1.6,0.3-2.2,0.9c-0.6,0.6-0.9,1.5-0.9,2.6v6.7h-3.5
						v-12.9h3.1l0.2,2.5c0.7-1.9,2-2.8,4-2.8C711.2,244.1,711.7,244.2,712,244.4z"/>
					<path class="st4" d="M712.9,255.1l2.1-2.1c0.3,0.7,0.8,1.3,1.5,1.6c0.6,0.3,1.4,0.5,2.4,0.5c0.8,0,1.3-0.1,1.8-0.3
						c0.4-0.2,0.6-0.5,0.6-0.9c0-0.3-0.2-0.5-0.6-0.7c-0.4-0.2-1.1-0.4-2-0.6c-2-0.4-3.4-0.9-4.2-1.6c-0.8-0.6-1.2-1.5-1.2-2.6
						c0-0.7,0.2-1.4,0.7-2c0.4-0.6,1.1-1.1,2-1.5c0.9-0.4,1.9-0.6,3.2-0.6c1.4,0,2.6,0.2,3.5,0.7c0.9,0.4,1.6,1.1,2.2,2.1l-2.2,1.9
						c-0.4-0.7-0.8-1.2-1.4-1.5c-0.6-0.3-1.3-0.5-2.1-0.5c-0.7,0-1.3,0.1-1.7,0.4c-0.4,0.2-0.6,0.5-0.6,0.9c0,0.4,0.2,0.7,0.6,0.9
						c0.4,0.2,1.1,0.5,2.2,0.7c1.9,0.4,3.2,0.9,4,1.5s1.2,1.5,1.2,2.5c0,1.2-0.5,2.2-1.5,2.9c-1,0.7-2.5,1.1-4.4,1.1
						C716,257.6,714,256.7,712.9,255.1z"/>
				</g>
			</g>
			<polygon class="st0" points="734.3,183.7 712.8,180.6 740.8,173.4 747.2,201.5 			"/>
		</g>
		<g>
			<polygon class="st0" points="133.6,93.8 102.2,89.2 143.2,78.6 152.6,119.9 			"/>
			<g>
				<g>
					<path class="st1" d="M134.4,162.7c-5-4.5-12.1-7.6-21.2-9.2l-28.3-4.9c-1.8-0.3-3.5-0.8-4.9-1.4v19.1c0.6,0.1,1.1,0.2,1.7,0.3
						l28.7,4.7c4.1,0.7,7.2,2,9.3,3.9c2,1.8,2.9,3.9,2.9,6.5v8.5c0,3.3-1.4,5.9-4.2,8c-3.1,2.2-7.3,3.3-12.5,3.3H88.4
						c-3.2,0-6-0.6-8.4-1.9v19.2c2.6,0.5,5.2,0.7,8.1,0.7h18.1c10.7,0,19.4-2.6,25.9-7.7c6.7-5.3,10.1-12.3,10.1-21v-10.2
						C142.2,173.4,139.6,167.4,134.4,162.7z"/>
					<path class="st1" d="M106.5,120c4.4,0,7.8,1.3,10.5,4.1c2.6,2.8,3.9,6.4,3.9,11.1v2.3h19.4v-2.3c0-6.5-1.4-12.3-4.2-17.3
						c-2.8-5-6.9-9-12-11.8c-5.1-2.7-11-4.1-17.6-4.1H88.7c-3.1,0-6,0.2-8.7,0.7v18.8c2.4-1,5.3-1.5,8.7-1.5H106.5z"/>
				</g>
				<path class="st0" d="M59.1,109.7c-2.6,2.1-4.7,4.4-6.3,7v35.9v28.5v22.2c1.4,2.3,3,4.4,4.9,6.3c0,0,0,0,0,0
					c3.5,3.5,7.7,6.1,12.5,7.7V104C66,105.3,62.3,107.2,59.1,109.7z"/>
			</g>
		</g>
	</g>
</g>
<g id="Layer_2">
</g>
</svg>
