<?xml version="1.0" encoding="utf-8"?>
<!-- Generator: Adobe Illustrator 26.4.0, SVG Export Plug-In . SVG Version: 6.00 Build 0)  -->
<svg version="1.1" xmlns="http://www.w3.org/2000/svg" xmlns:xlink="http://www.w3.org/1999/xlink" x="0px" y="0px"
	 viewBox="0 0 180 180" style="enable-background:new 0 0 180 180;" xml:space="preserve">
<style type="text/css">
	.st0{fill:#E99700;}
	.st1{fill:#369AA1;}
	.st2{fill:#FFFFFF;}
	.st3{fill:#00495E;}
	.st4{fill:#3D3F44;}
</style>
<g id="Layer_1_copy">
	<g>
		<circle class="st3" cx="90" cy="90" r="85.8"/>
		<polygon class="st0" points="129.3,21.3 97,16.7 139.1,5.7 148.7,48.1 		"/>
		<g>
			<g>
				<path class="st1" d="M130.1,92.1c-5.1-4.7-12.4-7.8-21.8-9.4l-29.1-5c-1.9-0.4-3.5-0.9-5-1.5v19.5c0.6,0.1,1.2,0.2,1.8,0.3
					l29.4,4.8c4.2,0.7,7.4,2,9.6,4c2,1.8,3,4,3,6.6v8.7c0,3.4-1.4,6.1-4.3,8.2c-3.1,2.2-7.5,3.4-12.8,3.4H82.8
					c-3.3,0-6.2-0.6-8.6-1.9v19.7c2.6,0.5,5.4,0.7,8.3,0.7h18.6c10.9,0,19.9-2.7,26.6-7.9c6.9-5.4,10.4-12.7,10.4-21.6v-10.5
					C138,103,135.3,96.9,130.1,92.1z"/>
				<path class="st1" d="M101.4,48.3c4.5,0,8,1.4,10.7,4.2c2.7,2.9,4,6.6,4,11.4v2.4h19.9v-2.4c0-6.6-1.5-12.6-4.3-17.7
					c-2.9-5.2-7.1-9.2-12.3-12.1c-5.2-2.8-11.3-4.2-18-4.2H83.1c-3.1,0-6.1,0.2-8.9,0.7v19.3c2.5-1,5.5-1.6,8.9-1.6H101.4z"/>
			</g>
			<path class="st0" d="M52.8,37.7c-2.7,2.1-4.8,4.5-6.4,7.2v36.8v29.3v22.8c1.4,2.4,3.1,4.5,5,6.5c0,0,0,0,0,0
				c3.6,3.6,7.9,6.3,12.8,7.9V31.8C59.9,33.1,56.1,35.1,52.8,37.7z"/>
		</g>
	</g>
</g>
<g id="Layer_2">
</g>
</svg>
