<?xml version="1.0" encoding="utf-8"?>
<!-- Generator: Adobe Illustrator 26.3.1, SVG Export Plug-In . SVG Version: 6.00 Build 0)  -->
<svg version="1.1" id="Layer_1" xmlns="http://www.w3.org/2000/svg" xmlns:xlink="http://www.w3.org/1999/xlink" x="0px" y="0px"
	 viewBox="0 0 130 64" style="enable-background:new 0 0 130 64;" xml:space="preserve">
<style type="text/css">
	.st0{fill:#13B5EA;}
	.st1{fill:#FFFFFF;}
	.st2{fill:#A7A9AC;}
</style>
<g>
	<path class="st0" d="M32.3,63c17.1,0,31-13.9,31-31S49.4,1,32.3,1c-17.1,0-31,13.9-31,31S15.2,63,32.3,63"/>
	<path class="st1" d="M16.1,31.9l5.3-5.3c0.2-0.2,0.3-0.4,0.3-0.7c0-0.5-0.4-0.9-0.9-0.9c-0.3,0-0.5,0.1-0.7,0.3l-5.3,5.3l-5.3-5.3
		C9.3,25.1,9,25,8.8,25c-0.5,0-0.9,0.4-0.9,0.9c0,0.3,0.1,0.5,0.3,0.7l5.3,5.3l-5.3,5.3c-0.2,0.2-0.3,0.4-0.3,0.7
		c0,0.5,0.4,0.9,0.9,0.9c0.3,0,0.5-0.1,0.7-0.3l5.3-5.3l5.3,5.3c0.2,0.2,0.4,0.3,0.7,0.3c0.5,0,0.9-0.4,0.9-0.9
		c0-0.3-0.1-0.5-0.3-0.7L16.1,31.9z"/>
	<path class="st1" d="M47.6,31.9c0,0.9,0.8,1.7,1.7,1.7c0.9,0,1.7-0.8,1.7-1.7c0-0.9-0.8-1.7-1.7-1.7C48.3,30.2,47.6,31,47.6,31.9"
		/>
	<path class="st1" d="M44.3,31.9c0-2.7,2.2-5,5-5c2.7,0,5,2.2,5,5c0,2.7-2.2,5-5,5C46.5,36.9,44.3,34.7,44.3,31.9 M42.3,31.9
		c0,3.8,3.1,6.9,7,6.9c3.8,0,7-3.1,7-6.9c0-3.8-3.1-7-7-7C45.5,25,42.3,28.1,42.3,31.9"/>
	<path class="st1" d="M41.8,25.1h-0.3c-0.9,0-1.7,0.3-2.4,0.8c-0.1-0.4-0.5-0.7-0.9-0.7c-0.5,0-0.9,0.4-0.9,0.9c0,0,0,11.7,0,11.7
		c0,0.5,0.4,0.9,0.9,0.9c0.5,0,0.9-0.4,0.9-0.9v-7.2c0-2.4,0.2-3.4,2.3-3.6c0.2,0,0.4,0,0.4,0c0.6,0,1-0.4,1-0.9
		C42.8,25.5,42.4,25.1,41.8,25.1"/>
	<path class="st1" d="M23.6,30.8C23.6,30.7,23.6,30.7,23.6,30.8c0.6-2.3,2.5-3.9,4.9-3.9c2.4,0,4.4,1.7,4.9,3.9H23.6z M35.3,30.6
		c-0.4-1.9-1.5-3.5-3.1-4.5c-2.4-1.5-5.5-1.4-7.7,0.2c-1.9,1.3-2.9,3.5-2.9,5.7c0,0.6,0.1,1.1,0.2,1.7c0.7,2.8,3.1,4.8,5.9,5.2
		c0.8,0.1,1.7,0.1,2.5-0.2c0.7-0.2,1.4-0.5,2.1-0.9c0.7-0.4,1.2-1,1.8-1.7c0,0,0,0,0,0c0.4-0.5,0.3-1.1-0.1-1.5
		c-0.4-0.3-0.9-0.4-1.4,0.2c-0.1,0.1-0.2,0.3-0.3,0.4c-0.4,0.4-0.8,0.8-1.4,1.1c-0.7,0.4-1.5,0.6-2.3,0.6c-2.8,0-4.2-2-4.8-3.3
		c-0.1-0.3-0.2-0.5-0.2-0.8c0-0.1,0-0.1,0-0.1c0.6,0,9.9,0,9.9,0C34.8,32.6,35.5,31.7,35.3,30.6"/>
	<path class="st2" d="M97.7,63c17.1,0,31-13.9,31-31c0-17.1-13.9-31-31-31c-17.1,0-31,13.9-31,31C66.7,49.1,80.6,63,97.7,63"/>
	<path class="st1" d="M83.4,36.6h-1.1v1.9c0,0.3-0.2,0.5-0.5,0.5c-0.2,0-0.5-0.2-0.5-0.5v-5c0-0.2,0.2-0.5,0.5-0.5h1.5
		c1.4,0,1.9,0.8,1.9,1.6v0.4C85.2,36,84.6,36.6,83.4,36.6 M84.3,34.7c0-0.4-0.2-0.8-1-0.8h-1v1.9h1.1c0.7,0,0.9-0.4,0.9-0.8V34.7z"
		/>
	<path class="st1" d="M89.6,39c-0.2,0-0.4-0.1-0.4-0.4c-0.1-0.3-0.2-0.7-0.3-1h-2.1c-0.1,0.3-0.2,0.7-0.3,1
		c-0.1,0.2-0.2,0.4-0.4,0.4c-0.3,0-0.5-0.2-0.4-0.6c0.4-1.8,1-3.4,1.6-5c0.2-0.4,0.4-0.5,0.6-0.5c0.2,0,0.4,0.1,0.6,0.5
		c0.6,1.6,1.2,3.2,1.6,5C90.1,38.7,89.9,39,89.6,39 M87.8,34.4c-0.3,0.8-0.6,1.6-0.8,2.4h1.6C88.4,36,88.1,35.2,87.8,34.4"/>
	<path class="st1" d="M94.2,39c-0.2,0-0.3-0.1-0.4-0.3c-0.3-0.7-0.7-1.4-1.2-2.2h-0.9v2c0,0.3-0.2,0.5-0.5,0.5
		c-0.2,0-0.5-0.2-0.5-0.5v-5c0-0.2,0.2-0.5,0.5-0.5h1.5c1.3,0,1.9,0.6,1.9,1.6v0.3c0,0.7-0.4,1.2-1,1.4c0.4,0.6,0.8,1.3,1.1,1.9
		C94.8,38.7,94.5,39,94.2,39 M93.7,34.6c0-0.4-0.3-0.7-1-0.7h-1.1v1.8h1c0.6,0,1-0.3,1-0.8V34.6z"/>
	<path class="st1" d="M99.3,33.9h-1.4v4.6c0,0.3-0.2,0.5-0.5,0.5c-0.3,0-0.5-0.2-0.5-0.5v-4.6h-1.4c-0.2,0-0.4-0.2-0.4-0.4
		c0-0.2,0.2-0.4,0.4-0.4h3.7c0.2,0,0.4,0.2,0.4,0.4C99.8,33.7,99.6,33.9,99.3,33.9"/>
	<path class="st1" d="M104.1,39c-0.2,0-0.3-0.1-0.4-0.2l-2.4-3.9v3.7c0,0.2-0.2,0.4-0.4,0.4c-0.2,0-0.4-0.2-0.4-0.4v-5.2
		c0-0.2,0.2-0.4,0.5-0.4c0.2,0,0.3,0.1,0.5,0.2l2.4,3.9v-3.7c0-0.2,0.2-0.4,0.4-0.4c0.2,0,0.4,0.2,0.4,0.4v5.2
		C104.6,38.8,104.4,39,104.1,39"/>
	<path class="st1" d="M109,38.9h-2.7c-0.2,0-0.4-0.2-0.4-0.4v-5c0-0.2,0.2-0.4,0.4-0.4h2.6c0.2,0,0.4,0.2,0.4,0.4
		c0,0.2-0.2,0.4-0.4,0.4h-2.1v1.6h1.9c0.2,0,0.4,0.2,0.4,0.4c0,0.2-0.2,0.4-0.4,0.4h-1.9V38h2.2c0.2,0,0.4,0.2,0.4,0.4
		C109.5,38.7,109.3,38.9,109,38.9"/>
	<path class="st1" d="M113.8,39c-0.2,0-0.3-0.1-0.4-0.3c-0.3-0.7-0.7-1.4-1.2-2.2h-0.9v2c0,0.3-0.2,0.5-0.5,0.5
		c-0.3,0-0.5-0.2-0.5-0.5v-5c0-0.2,0.2-0.5,0.5-0.5h1.5c1.3,0,1.9,0.6,1.9,1.6v0.3c0,0.7-0.4,1.2-1,1.4c0.4,0.6,0.8,1.3,1.1,1.9
		C114.4,38.7,114.1,39,113.8,39 M113.3,34.6c0-0.4-0.3-0.7-1-0.7h-1.1v1.8h1c0.6,0,1-0.3,1-0.8V34.6z"/>
	<path class="st1" d="M87.7,30.9c-0.6,0-1.1-0.1-1.5-0.2c-0.2-0.1-0.3-0.2-0.3-0.4c0-0.2,0.2-0.4,0.4-0.4c0.2,0,0.3,0.1,0.7,0.2
		c0.2,0,0.4,0.1,0.7,0.1c0.9,0,1.3-0.4,1.3-0.9c0-0.4-0.2-0.6-0.8-0.8c-0.4-0.1-1.1-0.2-1.5-0.4c-0.4-0.2-0.7-0.6-0.7-1.3
		c0-1.2,0.9-1.8,2-1.8c0.5,0,0.9,0.1,1.3,0.2c0.2,0.1,0.3,0.2,0.3,0.4c0,0.2-0.2,0.4-0.4,0.4c-0.1,0-0.3-0.1-0.6-0.2
		c-0.1,0-0.3-0.1-0.6-0.1c-0.7,0-1.1,0.3-1.1,0.9c0,0.5,0.3,0.6,0.8,0.8c0.5,0.1,1.2,0.2,1.6,0.5c0.4,0.3,0.6,0.7,0.6,1.2
		C89.8,30.3,88.9,30.9,87.7,30.9"/>
	<path class="st1" d="M91.3,30.9c-0.2,0-0.5-0.2-0.5-0.5v-5.1c0-0.3,0.2-0.5,0.5-0.5c0.3,0,0.5,0.2,0.5,0.5v5.1
		C91.7,30.7,91.5,30.9,91.3,30.9"/>
	<path class="st1" d="M96.1,30.8h-2.7c-0.2,0-0.4-0.2-0.4-0.4v-5.1c0-0.2,0.2-0.5,0.5-0.5c0.3,0,0.5,0.2,0.5,0.5V30h2.2
		c0.2,0,0.4,0.2,0.4,0.4C96.6,30.7,96.4,30.8,96.1,30.8"/>
	<path class="st1" d="M98.8,30.4c-0.1,0.3-0.3,0.5-0.6,0.5c-0.3,0-0.4-0.1-0.6-0.5c-0.6-1.7-1.2-3.4-1.6-5c-0.1-0.4,0.2-0.6,0.5-0.6
		c0.2,0,0.4,0.1,0.4,0.3c0.4,1.3,0.8,2.7,1.3,4.2c0.5-1.4,1-2.9,1.3-4.2c0.1-0.2,0.2-0.3,0.4-0.3c0.3,0,0.5,0.2,0.4,0.5
		C100,27,99.4,28.7,98.8,30.4"/>
	<path class="st1" d="M104.3,30.8h-2.7c-0.2,0-0.4-0.2-0.4-0.4v-5c0-0.2,0.2-0.4,0.4-0.4h2.6c0.2,0,0.4,0.2,0.4,0.4
		c0,0.2-0.2,0.4-0.4,0.4h-2.1v1.6h1.9c0.2,0,0.4,0.2,0.4,0.4c0,0.2-0.2,0.4-0.4,0.4h-1.9V30h2.2c0.2,0,0.4,0.2,0.4,0.4
		C104.8,30.7,104.6,30.8,104.3,30.8"/>
	<path class="st1" d="M109.2,30.9c-0.2,0-0.3-0.1-0.4-0.3c-0.3-0.7-0.8-1.4-1.2-2.2h-0.9v2c0,0.3-0.2,0.5-0.5,0.5
		c-0.2,0-0.5-0.2-0.5-0.5v-5c0-0.3,0.2-0.5,0.5-0.5h1.5c1.3,0,1.9,0.6,1.9,1.6v0.3c0,0.7-0.4,1.2-1,1.4c0.4,0.6,0.8,1.3,1.1,1.9
		C109.8,30.6,109.5,30.9,109.2,30.9 M108.7,26.6c0-0.4-0.3-0.7-1-0.7h-1.1v1.8h1c0.6,0,1-0.3,1-0.8V26.6z"/>
</g>
</svg>
