<svg xmlns="http://www.w3.org/2000/svg" viewBox="0 0 352.627 261.944"><path fill="none" stroke="#fff" stroke-miterlimit="10" stroke-width="2" d="M340.284 233.816c0 2.017-2.017 5.041-4.033 7.058a21.094 21.094 0 01-6.05 4.033 757.232 757.232 0 01-308.532 0c-2.017 0-4.033-2.017-6.05-4.033a16.251 16.251 0 01-4.033-7.058c-14.115-70.584-14.115-135.109.001-205.684 0-2.017 2.017-5.041 4.033-7.058a21.093 21.093 0 016.05-4.033 757.231 757.231 0 01308.532 0c2.017 0 4.033 2.017 6.05 4.033a16.251 16.251 0 014.033 7.058c15.123 70.575 15.123 135.1-.001 205.684z"/><path fill="#fff" d="M126.53 176.344a10.589 10.589 0 005.041 9.074 9.158 9.158 0 0010.083 0l78.645-45.372a10.688 10.688 0 000-18.149l-78.645-45.372a9.158 9.158 0 00-10.083 0 10.589 10.589 0 00-5.041 9.075z"/></svg>