<?xml version="1.0" encoding="utf-8"?>
<!-- Generator: Adobe Illustrator 19.0.0, SVG Export Plug-In . SVG Version: 6.00 Build 0)  -->
<svg version="1.1" id="Layer_1" xmlns="http://www.w3.org/2000/svg" xmlns:xlink="http://www.w3.org/1999/xlink" x="0px" y="0px"
	 viewBox="0 0 147.5 147.5" style="enable-background:new 0 0 147.5 147.5;" xml:space="preserve">
<style type="text/css">
	.st0{clip-path:url(#SVGID_4_);fill:#696661;}
	.st1{clip-path:url(#SVGID_4_);fill:#E75025;}
	.st2{clip-path:url(#SVGID_4_);fill:#E67340;}
	.st3{clip-path:url(#SVGID_4_);fill:#847F7B;}
	.st4{clip-path:url(#SVGID_4_);fill:#B6C7D2;}
	.st5{clip-path:url(#SVGID_4_);fill:#FFFFFF;}
</style>
<g>
	<defs>
		<rect id="SVGID_1_" width="147.5" height="147.5"/>
	</defs>
	<clipPath id="SVGID_2_">
		<use xlink:href="#SVGID_1_"  style="overflow:visible;"/>
	</clipPath>
</g>
<g>
	<defs>
		<circle id="SVGID_3_" cx="73.8" cy="73.8" r="73.8"/>
	</defs>
	<clipPath id="SVGID_4_">
		<use xlink:href="#SVGID_3_"  style="overflow:visible;"/>
	</clipPath>
	<rect x="55.5" y="16.1" transform="matrix(0.618 0.7862 -0.7862 0.618 51.7388 -29.331)" class="st0" width="1.1" height="45"/>
	<rect x="69" y="38" transform="matrix(0.7931 0.6091 -0.6091 0.7931 42.5009 -47.9492)" class="st0" width="45.6" height="1.1"/>
	<path class="st1" d="M76.3,26.2c0,1.4-1.1,2.5-2.5,2.5c-1.4,0-2.5-1.1-2.5-2.5c0-1.4,1.1-2.5,2.5-2.5
		C75.2,23.7,76.3,24.8,76.3,26.2"/>
	<path class="st2" d="M75.4,25.4c0,0.8-0.6,1.4-1.4,1.4s-1.4-0.6-1.4-1.4c0-0.8,0.6-1.4,1.4-1.4S75.4,24.7,75.4,25.4"/>
	<rect x="35.3" y="51.7" class="st3" width="73" height="55.7"/>
	<rect x="37.8" y="52.8" class="st4" width="73" height="55.7"/>
	<rect x="38.7" y="53.9" class="st5" width="73" height="55.7"/>
	<rect x="65.1" y="66.8" class="st4" width="6.1" height="5.6"/>
	<rect x="72.8" y="66.8" class="st4" width="6.1" height="5.6"/>
	<rect x="79.9" y="66.8" class="st4" width="6.1" height="5.6"/>
	<rect x="87.7" y="66.8" class="st4" width="6.1" height="5.6"/>
	<rect x="95.5" y="66.8" class="st4" width="6.1" height="5.6"/>
	<rect x="49.4" y="74" class="st4" width="6.1" height="5.6"/>
	<rect x="57.3" y="74" class="st4" width="6.1" height="5.6"/>
	<rect x="65.1" y="74" class="st4" width="6.1" height="5.6"/>
	<rect x="72.8" y="74" class="st4" width="6.1" height="5.6"/>
	<rect x="79.9" y="74" class="st4" width="6.1" height="5.6"/>
	<rect x="87.7" y="74" class="st4" width="6.1" height="5.6"/>
	<rect x="95.5" y="74" class="st4" width="6.1" height="5.6"/>
	<rect x="49.4" y="81.2" class="st4" width="6.1" height="5.6"/>
	<rect x="57.3" y="81.2" class="st4" width="6.1" height="5.6"/>
	<rect x="65.1" y="81.2" class="st4" width="6.1" height="5.6"/>
	<rect x="72.8" y="81.2" class="st4" width="6.1" height="5.6"/>
	<rect x="79.9" y="81.2" class="st4" width="6.1" height="5.6"/>
	<rect x="87.7" y="81.2" class="st4" width="6.1" height="5.6"/>
	<rect x="95.5" y="81.2" class="st4" width="6.1" height="5.6"/>
	<rect x="49.4" y="88.5" class="st4" width="6.1" height="5.6"/>
	<rect x="57.3" y="88.5" class="st4" width="6.1" height="5.6"/>
	<rect x="65.1" y="88.5" class="st4" width="6.1" height="5.6"/>
	<rect x="72.8" y="88.5" class="st4" width="6.1" height="5.6"/>
	<rect x="79.9" y="88.5" class="st4" width="6.1" height="5.6"/>
	<rect x="87.7" y="88.5" class="st4" width="6.1" height="5.6"/>
	<rect x="95.5" y="88.5" class="st4" width="6.1" height="5.6"/>
	<rect x="49.4" y="95.7" class="st4" width="6.1" height="5.6"/>
	<rect x="57.3" y="95.7" class="st4" width="6.1" height="5.6"/>
	<rect x="65.1" y="95.7" class="st4" width="6.1" height="5.6"/>
	<rect x="72.8" y="95.7" class="st4" width="6.1" height="5.6"/>
	<rect x="79.9" y="95.7" class="st4" width="6.1" height="5.6"/>
	<rect x="34.8" y="48.4" class="st1" width="78" height="10.6"/>
	<path class="st3" d="M44.2,105.2h61.8V63.4H44.2V105.2z M107.2,106.3H43.1v-44h64.1V106.3z"/>
	<path class="st2" d="M106.6,53.8c0,0.7-0.5,1.2-1.2,1.2H42.7c-0.7,0-1.2-0.5-1.2-1.2v-0.3c0-0.7,0.5-1.2,1.2-1.2h62.7
		c0.7,0,1.2,0.5,1.2,1.2V53.8z"/>
</g>
</svg>
