<svg xmlns="http://www.w3.org/2000/svg" xmlns:xlink="http://www.w3.org/1999/xlink" xml:space="preserve" viewBox="0 0 79.3 82.9">
  <defs>
    <path id="a" d="M0 0h79.3v82.9H0z"/>
  </defs>
  <clipPath id="b">
    <use xlink:href="#a" overflow="visible"/>
  </clipPath>
  <path fill="#6e8fa6" d="M39.7 0C17.8 0 0 17.8 0 39.7 0 50.9 4.6 61 12.1 68.2L8.3 80.5c-.2.7 0 1.5.6 1.9.3.3.7.4 1.2.4.3 0 .6-.1.9-.2l12.6-6.8c4.9 2.2 10.4 3.4 16.2 3.4 21.9 0 39.7-17.8 39.7-39.7C79.3 17.8 61.5 0 39.7 0" clip-path="url(#b)"/>
  <g>
    <defs>
      <path id="c" d="M39.7 0C17.8 0 0 17.8 0 39.7 0 50.9 4.6 61 12.1 68.2L8.3 80.5c-.2.7 0 1.5.6 1.9.3.3.7.4 1.2.4.3 0 .6-.1.9-.2l12.6-6.8c4.9 2.2 10.4 3.4 16.2 3.4 21.9 0 39.7-17.8 39.7-39.7C79.3 17.8 61.5 0 39.7 0z"/>
    </defs>
    <clipPath id="d">
      <use xlink:href="#c" overflow="visible"/>
    </clipPath>
    <path fill="#b6c7d2" d="M49.3 23.7c-4 0-7.5 2-9.6 5.1-2.1-3.1-5.6-5.1-9.6-5.1-6.5 0-11.7 5.2-11.7 11.7 0 13.1 21.3 23.7 21.3 23.7S61 48.5 61 35.4c0-6.4-5.3-11.7-11.7-11.7" clip-path="url(#d)"/>
    <path fill="#fff" d="M48.3 25.6s9.5 1 10 10c.3 5.8-3.6 8-3.6 8s6.3-11-6.4-18" clip-path="url(#d)"/>
  </g>
</svg>
