<?xml version="1.0" encoding="utf-8"?>
<!-- Generator: Adobe Illustrator 19.0.0, SVG Export Plug-In . SVG Version: 6.00 Build 0)  -->
<svg version="1.1" id="Layer_1" xmlns="http://www.w3.org/2000/svg" xmlns:xlink="http://www.w3.org/1999/xlink" x="0px" y="0px"
	 viewBox="0 0 89 89" style="enable-background:new 0 0 89 89;" xml:space="preserve">
<style type="text/css">
	.st0{clip-path:url(#SVGID_2_);fill:#FFFFFF;}
	.st1{clip-path:url(#SVGID_2_);fill:#97C9D1;}
</style>
<g>
	<defs>
		<rect id="SVGID_1_" x="0" width="89" height="89"/>
	</defs>
	<clipPath id="SVGID_2_">
		<use xlink:href="#SVGID_1_"  style="overflow:visible;"/>
	</clipPath>
	<path class="st0" d="M59.4,39.3c-1.6,0-2.9,1.3-2.9,2.9v5.7h-0.8v-7.2c0-1.6-1.3-2.9-2.9-2.9S50,39.1,50,40.7v7.2h-0.8v-8.7
		c0-1.6-1.3-2.9-2.9-2.9s-2.9,1.3-2.9,2.9v8.7h-0.8V26.5c0-1.6-1.3-2.9-2.9-2.9s-2.9,1.3-2.9,2.9v21.3V52v4.5H36V42.7
		c0-1.6-1.3-2.9-2.9-2.9s-2.9,1.3-2.9,2.9V59c0,2.7,1,5.4,3.1,7.5l2.6,2.6c2.1,2.1,4.8,3.1,7.5,3.1h14.2c2.5,0,4.6-2,4.6-4.6V52
		v-4.1v-5.7C62.3,40.6,61,39.3,59.4,39.3"/>
	<path class="st1" d="M34.6,30c-0.3,0-0.7-0.2-0.8-0.5c-0.5-0.9-0.7-2-0.7-3c0-3.7,3-6.6,6.6-6.6c3.7,0,6.6,3,6.6,6.6
		c0,1.1-0.3,2.1-0.7,3c-0.2,0.5-0.8,0.6-1.2,0.4c-0.5-0.2-0.6-0.8-0.4-1.2c0.4-0.7,0.5-1.4,0.5-2.2c0-2.6-2.1-4.8-4.8-4.8
		c-2.6,0-4.8,2.1-4.8,4.8c0,0.8,0.2,1.5,0.5,2.2c0.2,0.5,0.1,1-0.4,1.2C34.9,30,34.8,30,34.6,30"/>
	<path class="st1" d="M34.1,34.8c-0.1,0-0.3,0-0.4-0.1c-0.4-0.3-0.8-0.6-1.2-1c-3.9-3.9-3.9-10.3,0-14.3c1.9-1.9,4.4-3,7.1-3
		c2.7,0,5.2,1,7.1,3c1.9,1.9,3,4.4,3,7.1s-1,5.2-3,7.1c-0.4,0.4-0.7,0.7-1.2,1c-0.3,0.2-0.7,0.2-1-0.1c-0.2-0.3-0.2-0.7,0.1-1
		c0.4-0.3,0.7-0.5,1-0.9c1.6-1.6,2.5-3.8,2.5-6.2c0-2.3-0.9-4.5-2.5-6.2s-3.8-2.5-6.2-2.5c-2.3,0-4.5,0.9-6.2,2.5
		c-3.4,3.4-3.4,8.9,0,12.3c0.3,0.3,0.6,0.6,1,0.9c0.3,0.2,0.4,0.7,0.1,1C34.6,34.7,34.3,34.8,34.1,34.8"/>
</g>
</svg>
