<?xml version="1.0" encoding="utf-8"?>
<!-- Generator: Adobe Illustrator 19.0.0, SVG Export Plug-In . SVG Version: 6.00 Build 0)  -->
<svg version="1.1" id="Layer_1" xmlns="http://www.w3.org/2000/svg" xmlns:xlink="http://www.w3.org/1999/xlink" x="0px" y="0px"
	 viewBox="0 0 89 89" style="enable-background:new 0 0 89 89;" xml:space="preserve">
<style type="text/css">
	.st0{clip-path:url(#SVGID_2_);}
	.st1{clip-path:url(#SVGID_4_);fill:#B5C7D1;}
	.st2{clip-path:url(#SVGID_4_);fill:#4E4E4E;}
	.st3{clip-path:url(#SVGID_4_);fill:#A6B5BF;}
	.st4{clip-path:url(#SVGID_4_);fill:#333333;}
	.st5{opacity:0.35;clip-path:url(#SVGID_6_);}
	.st6{clip-path:url(#SVGID_8_);fill:#52574F;}
</style>
<g>
	<defs>
		<rect id="SVGID_1_" x="0" width="89" height="89"/>
	</defs>
	<clipPath id="SVGID_2_">
		<use xlink:href="#SVGID_1_"  style="overflow:visible;"/>
	</clipPath>
	<g class="st0">
		<defs>
			<rect id="SVGID_3_" x="0" width="89" height="89"/>
		</defs>
		<clipPath id="SVGID_4_">
			<use xlink:href="#SVGID_3_"  style="overflow:visible;"/>
		</clipPath>
		<path class="st1" d="M59.5,68.7h-30c-3.1,0-5.6-2.5-5.6-5.6V39.2c0-3.1,2.5-5.6,5.6-5.6h30c3.1,0,5.6,2.5,5.6,5.6V63
			C65.1,66.1,62.6,68.7,59.5,68.7"/>
		<path class="st1" d="M31.7,28v9h3.9v-9.2c0-4.9,4-8.9,8.9-8.9c4.9,0,8.9,4,8.9,8.9V37h3.9v-9c0-7.1-5.7-12.8-12.8-12.8
			S31.7,21,31.7,28"/>
		<path class="st2" d="M47.6,48.2c0-1.7-1.4-3.1-3.2-3.1c-1.7,0-3.1,1.4-3.1,3.1c0,1.7,1.4,3.2,3.1,3.2C46.2,51.4,47.6,50,47.6,48.2
			"/>
		<path class="st2" d="M44.5,57.1L44.5,57.1c-0.7,0-1.3-0.6-1.3-1.3V49h2.5v6.9C45.8,56.6,45.2,57.1,44.5,57.1"/>
		<path class="st3" d="M57.3,30.1c-0.2,1.9-1.1,3.4-3.7,3.5l-0.2,0h3.9V30.1z"/>
		<path class="st2" d="M47.6,48.2c0-1.7-1.4-3.1-3.2-3.1c-1.7,0-3.1,1.4-3.1,3.1c0,1.3,0.8,2.4,1.9,2.9v4.8c0,0.7,0.6,1.3,1.3,1.3
			c0.7,0,1.3-0.6,1.3-1.3v-4.8C46.9,50.6,47.6,49.5,47.6,48.2"/>
		<path class="st4" d="M44.5,56.5c-0.3,0-0.6-0.3-0.6-0.6v-5.2l-0.4-0.2c-0.9-0.4-1.5-1.3-1.5-2.2c0-1.4,1.1-2.5,2.5-2.5
			c1.4,0,2.5,1.1,2.5,2.5c0,1-0.6,1.9-1.5,2.2l-0.4,0.2v5.2C45.1,56.2,44.8,56.5,44.5,56.5"/>
	</g>
	<g class="st0">
		<defs>
			<path id="SVGID_5_" d="M29.5,33.6c-3.1,0-5.6,2.5-5.6,5.6V63c0,3.1,2.5,5.6,5.6,5.6h30c3.1,0,5.6-2.5,5.6-5.6V39.2
				c0-3.1-2.5-5.6-5.6-5.6H29.5z"/>
		</defs>
		<clipPath id="SVGID_6_">
			<use xlink:href="#SVGID_5_"  style="overflow:visible;"/>
		</clipPath>
		<g class="st5">
			<g>
				<defs>
					<rect id="SVGID_7_" x="18.7" y="30.2" width="55.4" height="39.4"/>
				</defs>
				<clipPath id="SVGID_8_">
					<use xlink:href="#SVGID_7_"  style="overflow:visible;"/>
				</clipPath>
				<path class="st6" d="M64.8,37.2L64,44.6c-1.2,12.1-10.9,21.7-23,22.7l-13.3,1.1c0.6,0.2,1.2,0.3,1.8,0.3h30
					c3.1,0,5.6-2.5,5.6-5.6V39.2C65.1,38.5,65,37.8,64.8,37.2"/>
			</g>
		</g>
	</g>
</g>
</svg>
