<?xml version="1.0" encoding="utf-8"?>
<!-- Generator: Adobe Illustrator 19.0.0, SVG Export Plug-In . SVG Version: 6.00 Build 0)  -->
<svg version="1.1" id="Layer_1" xmlns="http://www.w3.org/2000/svg" xmlns:xlink="http://www.w3.org/1999/xlink" x="0px" y="0px"
	 viewBox="0 0 89 89" style="enable-background:new 0 0 89 89;" xml:space="preserve">
<style type="text/css">
	.st0{clip-path:url(#XMLID_119_);fill:#FAC425;}
	.st1{clip-path:url(#XMLID_119_);fill:#FFE474;}
	.st2{clip-path:url(#XMLID_119_);fill:#FFFFFF;}
	.st3{clip-path:url(#XMLID_119_);fill:#E67340;}
	.st4{clip-path:url(#XMLID_119_);fill:#E75025;}
</style>
<g id="XMLID_117_">
	<defs>
		<rect id="XMLID_114_" width="89" height="89"/>
	</defs>
	<clipPath id="XMLID_116_">
		<use xlink:href="#XMLID_114_"  style="overflow:visible;"/>
	</clipPath>
</g>
<g id="XMLID_118_">
	<defs>
		<circle id="XMLID_105_" cx="44.7" cy="41.9" r="41.9"/>
	</defs>
	<clipPath id="XMLID_119_">
		<use xlink:href="#XMLID_105_"  style="overflow:visible;"/>
	</clipPath>
	<path id="XMLID_113_" class="st0" d="M57.6,49.2V24.9c0-0.5-0.4-0.9-0.9-0.9H24.4c-0.5,0-0.9,0.4-0.9,0.9v32.3c0,2.5,2,4.5,4.5,4.5
		h21.6c0.5,0,0.9-0.4,0.9-0.9c0-0.5-0.4-0.9-0.9-0.9c-1.5,0-2.7-1.2-2.7-2.7V51L57.6,49.2z"/>
	<path id="XMLID_112_" class="st1" d="M36.1,29.4c0,1.5-1.2,2.7-2.7,2.7c-1.5,0-2.7-1.2-2.7-2.7c0-1.5,1.2-2.7,2.7-2.7
		C34.9,26.7,36.1,27.9,36.1,29.4"/>
	<path id="XMLID_111_" class="st1" d="M50.4,29.4c0,1.5-1.2,2.7-2.7,2.7s-2.7-1.2-2.7-2.7c0-1.5,1.2-2.7,2.7-2.7
		S50.4,27.9,50.4,29.4"/>
	<path id="XMLID_110_" class="st2" d="M47.8,30.7c-0.7,0-1.3-0.6-1.3-1.3v-4.5c0-3.2-2.6-5.8-5.8-5.8c-3.2,0-5.8,2.6-5.8,5.8v4.5
		c0,0.7-0.6,1.3-1.3,1.3c-0.7,0-1.3-0.6-1.3-1.3v-4.5c0-4.7,3.8-8.5,8.5-8.5s8.5,3.8,8.5,8.5v4.5C49.1,30.1,48.5,30.7,47.8,30.7"/>
	<path id="XMLID_109_" class="st3" d="M67.5,36.6H46c-0.5,0-0.9,0.4-0.9,0.9v19.8c0,2.5,2,4.5,4.5,4.5h14.4c2.5,0,4.5-2,4.5-4.5
		V37.5C68.4,37,68,36.6,67.5,36.6"/>
	<path id="XMLID_108_" class="st4" d="M54.5,40.3c0,1.2-1,2.2-2.2,2.2c-1.2,0-2.2-1-2.2-2.2c0-1.2,1-2.2,2.2-2.2
		C53.5,38.1,54.5,39.1,54.5,40.3"/>
	<path id="XMLID_107_" class="st4" d="M63.5,40.3c0,1.2-1,2.2-2.2,2.2c-1.2,0-2.2-1-2.2-2.2c0-1.2,1-2.2,2.2-2.2
		C62.5,38.1,63.5,39.1,63.5,40.3"/>
	<path id="XMLID_106_" class="st2" d="M56.7,31.7c-3.1,0-5.6,2.5-5.6,5.6v3c0,0.6,0.5,1.1,1.1,1.1c0.6,0,1.1-0.5,1.1-1.1v-3
		c0-1.9,1.5-3.4,3.4-3.4c1.9,0,3.4,1.5,3.4,3.4v3c0,0.6,0.5,1.1,1.1,1.1c0.6,0,1.1-0.5,1.1-1.1v-3C62.4,34.2,59.8,31.7,56.7,31.7"/>
</g>
</svg>
