<?xml version="1.0" encoding="utf-8"?>
<!-- Generator: Adobe Illustrator 19.0.0, SVG Export Plug-In . SVG Version: 6.00 Build 0)  -->
<svg version="1.1" id="Layer_1" xmlns="http://www.w3.org/2000/svg" xmlns:xlink="http://www.w3.org/1999/xlink" x="0px" y="0px"
	 viewBox="0 0 89 89" style="enable-background:new 0 0 89 89;" xml:space="preserve">
<style type="text/css">
	.st0{clip-path:url(#SVGID_2_);fill:#B5C7D1;}
	.st1{clip-path:url(#SVGID_2_);fill:#FFFFFF;}
	.st2{clip-path:url(#SVGID_4_);fill:#F3F5F7;}
	.st3{fill:#6A6761;}
	.st4{clip-path:url(#SVGID_6_);fill:#52574F;}
</style>
<g>
	<defs>
		<rect id="SVGID_1_" x="0" width="89" height="89"/>
	</defs>
	<clipPath id="SVGID_2_">
		<use xlink:href="#SVGID_1_"  style="overflow:visible;"/>
	</clipPath>
	<path class="st0" d="M64.4,45.2c-5.7,5.7-15,5.7-20.7,0s-5.7-15,0-20.7c5.7-5.7,15-5.7,20.7,0C70.1,30.3,70.1,39.5,64.4,45.2
		 M66.7,22.3c-6.9-6.9-18.2-6.9-25.1,0C35.1,28.8,34.6,39,40.2,46L37,49.2l-1.7-1.7L17.1,65.6l6.2,6.2l18.1-18.1L39.8,52l3.2-3.2
		c7,5.6,17.2,5.1,23.6-1.3C73.6,40.5,73.6,29.3,66.7,22.3"/>
	<path class="st1" d="M65.3,46.1c-6.2,6.2-16.2,6.2-22.4,0c-6.2-6.2-6.2-16.2,0-22.4c6.2-6.2,16.2-6.2,22.4,0
		C71.5,29.9,71.5,39.9,65.3,46.1"/>
</g>
<g>
	<defs>
		<path id="SVGID_3_" d="M42.9,23.7c-6.2,6.2-6.2,16.2,0,22.4s16.2,6.2,22.4,0c6.2-6.2,6.2-16.2,0-22.4c-3.1-3.1-7.1-4.6-11.2-4.6
			S46,20.6,42.9,23.7"/>
	</defs>
	<clipPath id="SVGID_4_">
		<use xlink:href="#SVGID_3_"  style="overflow:visible;"/>
	</clipPath>
	<path class="st2" d="M54.1,19.1c-1,0-1.9,0.1-2.9,0.3l-7.7,27.3c1.3,1.2,2.7,2.1,4.3,2.7l8.5-30.2C55.6,19.1,54.8,19.1,54.1,19.1"
		/>
	<path class="st2" d="M60.1,20.3l-8.5,30.3c0.9,0.1,1.7,0.2,2.6,0.2c0.8,0,1.7-0.1,2.5-0.2l7.8-27.7C63,21.8,61.6,20.9,60.1,20.3"/>
</g>
<rect x="24.9" y="46.9" transform="matrix(-0.7071 -0.7071 0.7071 -0.7071 7.8319 122.6205)" class="st3" width="8.8" height="25.6"/>
<g>
	<defs>
		<rect id="SVGID_5_" x="0" width="89" height="89"/>
	</defs>
	<clipPath id="SVGID_6_">
		<use xlink:href="#SVGID_5_"  style="overflow:visible;"/>
	</clipPath>
	<path class="st4" d="M17.1,65.6L17.1,65.6c3.5,1.2,7.3,0.7,10.3-1.5l14-10.3L23.4,71.9L17.1,65.6z"/>
</g>
</svg>
