<?xml version="1.0" encoding="utf-8"?>
<!-- Generator: Adobe Illustrator 19.0.0, SVG Export Plug-In . SVG Version: 6.00 Build 0)  -->
<svg version="1.1" id="Layer_1" xmlns="http://www.w3.org/2000/svg" xmlns:xlink="http://www.w3.org/1999/xlink" x="0px" y="0px"
	 viewBox="0 0 147.5 147.5" style="enable-background:new 0 0 147.5 147.5;" xml:space="preserve">
<style type="text/css">
	.st0{clip-path:url(#SVGID_4_);fill:#DFDFDE;}
	.st1{clip-path:url(#SVGID_4_);fill:#FFFFFF;}
	.st2{clip-path:url(#SVGID_4_);fill:none;stroke:#FFFFFF;stroke-miterlimit:10;}
	.st3{clip-path:url(#SVGID_4_);fill:#B6C7D2;}
	.st4{clip-path:url(#SVGID_4_);fill:#696661;}
	.st5{clip-path:url(#SVGID_4_);fill:#847F7B;}
	.st6{clip-path:url(#SVGID_4_);fill:#F3786C;}
	.st7{clip-path:url(#SVGID_4_);fill:#AC5D27;}
	.st8{clip-path:url(#SVGID_4_);fill:#E8E8E8;}
	.st9{clip-path:url(#SVGID_4_);fill:#7A8F94;}
	.st10{clip-path:url(#SVGID_4_);fill:#6E8FA6;}
</style>
<g>
	<defs>
		<rect id="SVGID_1_" y="-0.5" width="147.5" height="147.5"/>
	</defs>
	<clipPath id="SVGID_2_">
		<use xlink:href="#SVGID_1_"  style="overflow:visible;"/>
	</clipPath>
</g>
<g>
	<defs>
		<circle id="SVGID_3_" cx="73.8" cy="73.3" r="73.8"/>
	</defs>
	<clipPath id="SVGID_4_">
		<use xlink:href="#SVGID_3_"  style="overflow:visible;"/>
	</clipPath>
	<path class="st0" d="M118.2,105.3h-5.3v0.7H71H35.3v-0.7h-5.9c-0.9,0-1.6,0.7-1.6,1.6c0,0.9,0.7,1.6,1.6,1.6h88.9
		c0.9,0,1.6-0.7,1.6-1.6C119.8,106,119.1,105.3,118.2,105.3"/>
	<rect x="71" y="63" class="st0" width="41.9" height="43"/>
	<polygon class="st1" points="71,106 35.3,106 35.3,61 53.1,37.4 71,61 	"/>
	<polygon class="st2" points="71,106 35.3,106 35.3,61 53.1,37.4 71,61 	"/>
	<path class="st0" d="M51.8,38.9L35.3,60.3v0.8L51.8,38.9L51.8,38.9z M55.5,40.5L71,61.1v2h37.1L55.5,40.5z M112.9,65.1v4.3l0.2-4.3
		L112.9,65.1z"/>
	<polygon class="st3" points="108.1,63 71,63 71,69.4 112.9,69.4 112.9,65.1 	"/>
	<polygon class="st3" points="51.9,39 35.3,61 35.3,67.6 52.3,45.5 71,69.4 71,63 71,61 55.5,40.5 	"/>
	<polygon class="st4" points="53.1,36.7 29.5,65 30.1,67.4 35.3,67.4 35.3,63.6 53.1,40.4 	"/>
	<polygon class="st5" points="72.5,67.4 51.3,40.3 30.1,67.4 27.7,65.2 51.3,35 74.9,65.2 	"/>
	<polygon class="st6" points="117.4,67.4 96.2,39.8 89.7,35 119.8,65.2 	"/>
	<polygon class="st5" points="51.3,35 96.2,35 119.8,65.2 74.9,65.2 	"/>
	<polygon class="st4" points="74.9,65.2 119.8,65.2 117.4,67.4 72.5,67.4 	"/>
	<rect x="46.5" y="80.7" class="st7" width="13.2" height="25.3"/>
	<polygon class="st8" points="59.8,80.7 46.5,80.7 48.7,80.7 59.7,80.7 59.7,94 59.8,94 	"/>
	<rect x="87.8" y="88.2" class="st9" width="0" height="1.4"/>
	<rect x="106.1" y="88.2" class="st9" width="0" height="1.4"/>
	<polygon class="st1" points="90.7,53.1 82.4,42.6 82.4,30.3 90.7,30.3 	"/>
	<rect x="90.7" y="30.3" class="st0" width="8.9" height="22.6"/>
	<rect x="76.2" y="80.7" class="st10" width="14.5" height="14.5"/>
	<rect x="82.6" y="80.7" class="st0" width="1.7" height="14.5"/>
	<rect x="76.2" y="87.1" class="st0" width="14.5" height="1.7"/>
	<rect x="94.9" y="80.7" class="st10" width="14.5" height="14.5"/>
	<rect x="101.3" y="80.7" class="st0" width="1.7" height="14.5"/>
	<rect x="94.9" y="87.1" class="st0" width="14.5" height="1.7"/>
</g>
</svg>
