<?xml version="1.0" encoding="utf-8"?>
<!-- Generator: Adobe Illustrator 19.0.0, SVG Export Plug-In . SVG Version: 6.00 Build 0)  -->
<svg version="1.1" id="Layer_1" xmlns="http://www.w3.org/2000/svg" xmlns:xlink="http://www.w3.org/1999/xlink" x="0px" y="0px"
	 viewBox="0 0 89 89" style="enable-background:new 0 0 89 89;" xml:space="preserve">
<style type="text/css">
	.st0{clip-path:url(#SVGID_2_);fill:#FFFFFF;}
</style>
<g>
	<defs>
		<rect id="SVGID_1_" x="0" width="89" height="89"/>
	</defs>
	<clipPath id="SVGID_2_">
		<use xlink:href="#SVGID_1_"  style="overflow:visible;"/>
	</clipPath>
	<path class="st0" d="M44.5,30.9c3.2,0,5.8-2.6,5.8-5.8s-2.6-5.8-5.8-5.8c-3.2,0-5.8,2.6-5.8,5.8S41.3,30.9,44.5,30.9"/>
	<path class="st0" d="M53.3,32.2h-0.1v0h-1.7H37.4h-1H36h-0.4c-2.3,0-4.2,1.9-4.2,4.2V51c0,2.3,1.9,4.2,4.2,4.2h0.7V39.8h1v15.4
		v16.4c0,1.8,1.5,3.3,3.3,3.3c1.8,0,3.3-1.5,3.3-3.3V55.2H45v16.4c0,1.8,1.5,3.3,3.3,3.3c1.8,0,3.3-1.5,3.3-3.3V55.2V39.8h1v15.4
		h0.7c2.3,0,4.2-1.9,4.2-4.2V36.4C57.5,34.1,55.7,32.2,53.3,32.2"/>
</g>
</svg>
