<?xml version="1.0" encoding="utf-8"?>
<!-- Generator: Adobe Illustrator 19.0.0, SVG Export Plug-In . SVG Version: 6.00 Build 0)  -->
<svg version="1.1" id="Layer_1" xmlns="http://www.w3.org/2000/svg" xmlns:xlink="http://www.w3.org/1999/xlink" x="0px" y="0px"
	 viewBox="0 0 89 89" style="enable-background:new 0 0 89 89;" xml:space="preserve">
<style type="text/css">
	.st0{fill:#F6BBA1;}
	.st1{fill:#F39973;}
	.st2{fill:#FFFFFF;}
	.st3{fill:#EE7842;}
	.st4{fill:#DFDFDE;}
</style>
<g>
	<defs>
		<rect id="XMLID_129_" x="0" y="-0.2" width="89.2" height="89.2"/>
	</defs>
	<clipPath id="XMLID_131_">
		<use xlink:href="#XMLID_129_"  style="overflow:visible;"/>
	</clipPath>
</g>
<rect id="XMLID_128_" x="29.7" y="17.1" class="st0" width="37.8" height="46.6"/>
<rect id="XMLID_127_" x="25.7" y="21.1" class="st1" width="37.8" height="46.6"/>
<polygon id="XMLID_126_" class="st2" points="48.2,25 21.8,25 21.8,71.7 59.5,71.7 59.5,36.3 "/>
<polygon id="XMLID_125_" class="st3" points="48.2,36.3 59.5,36.3 48.2,25 "/>
<rect id="XMLID_124_" x="34.1" y="29.9" class="st4" width="13.1" height="2.8"/>
<rect id="XMLID_123_" x="27.3" y="33.2" class="st4" width="19.9" height="1.4"/>
<rect id="XMLID_122_" x="30.7" y="37.2" class="st4" width="23.3" height="0.8"/>
<rect id="XMLID_121_" x="27.3" y="38.8" class="st4" width="26.8" height="0.8"/>
<rect id="XMLID_120_" x="27.3" y="40.3" class="st4" width="26.8" height="0.8"/>
<rect id="XMLID_119_" x="27.3" y="41.8" class="st4" width="26.8" height="0.8"/>
<rect id="XMLID_118_" x="27.3" y="43.3" class="st4" width="16.1" height="0.8"/>
<rect id="XMLID_117_" x="30.7" y="46.3" class="st4" width="23.3" height="0.8"/>
<rect id="XMLID_116_" x="27.3" y="47.8" class="st4" width="26.8" height="0.8"/>
<rect id="XMLID_115_" x="27.3" y="49.3" class="st4" width="26.8" height="0.8"/>
<rect id="XMLID_114_" x="27.3" y="50.8" class="st4" width="26.8" height="0.8"/>
<rect id="XMLID_113_" x="27.3" y="52.3" class="st4" width="23.3" height="0.8"/>
<rect id="XMLID_112_" x="30.7" y="55.3" class="st4" width="23.3" height="0.8"/>
<rect id="XMLID_111_" x="27.3" y="56.9" class="st4" width="26.8" height="0.8"/>
<rect id="XMLID_110_" x="27.3" y="58.4" class="st4" width="9.3" height="0.8"/>
<rect id="XMLID_109_" x="30.7" y="61.4" class="st4" width="23.3" height="0.8"/>
<rect id="XMLID_108_" x="27.3" y="62.9" class="st4" width="26.8" height="0.8"/>
<rect id="XMLID_107_" x="27.3" y="64.4" class="st4" width="26.8" height="0.8"/>
<rect id="XMLID_106_" x="27.3" y="68.5" class="st4" width="11.1" height="0.3"/>
<rect id="XMLID_105_" x="43" y="68.5" class="st4" width="11.1" height="0.3"/>
</svg>
