<?xml version="1.0" encoding="utf-8"?>
<!-- Generator: Adobe Illustrator 19.0.0, SVG Export Plug-In . SVG Version: 6.00 Build 0)  -->
<svg version="1.1" id="Layer_1" xmlns="http://www.w3.org/2000/svg" xmlns:xlink="http://www.w3.org/1999/xlink" x="0px" y="0px"
	 viewBox="-42 632.2 525.3 109.8" style="enable-background:new -42 632.2 525.3 109.8;" xml:space="preserve">
<style type="text/css">
	.st0{clip-path:url(#SVGID_2_);fill:url(#SVGID_3_);}
	.st1{clip-path:url(#SVGID_5_);fill:url(#SVGID_6_);}
	.st2{clip-path:url(#SVGID_8_);fill:#948D8A;}
	.st3{clip-path:url(#SVGID_10_);fill:#7D9AAE;}
	.st4{clip-path:url(#SVGID_12_);fill:#62889E;}
	.st5{clip-path:url(#SVGID_14_);fill:#62889E;}
	.st6{clip-path:url(#SVGID_16_);fill:#6A8DA2;}
	.st7{clip-path:url(#SVGID_18_);fill:#C2D298;}
	.st8{clip-path:url(#SVGID_20_);fill:url(#SVGID_21_);}
	.st9{clip-path:url(#SVGID_23_);fill:#4A6623;}
	.st10{clip-path:url(#SVGID_25_);fill:url(#SVGID_26_);}
	.st11{clip-path:url(#SVGID_28_);fill:#4A6623;}
	.st12{clip-path:url(#SVGID_30_);fill:url(#SVGID_31_);}
	.st13{clip-path:url(#SVGID_33_);fill:#4A6623;}
	.st14{clip-path:url(#SVGID_35_);fill:url(#SVGID_36_);}
	.st15{clip-path:url(#SVGID_38_);fill:#4D6A26;}
	.st16{clip-path:url(#SVGID_40_);fill:url(#SVGID_41_);}
	.st17{clip-path:url(#SVGID_43_);fill:url(#SVGID_44_);}
	.st18{clip-path:url(#SVGID_46_);fill:url(#SVGID_47_);}
	.st19{clip-path:url(#SVGID_49_);fill:#4D6A26;}
	.st20{clip-path:url(#SVGID_51_);fill:url(#SVGID_52_);}
	.st21{clip-path:url(#SVGID_54_);fill:#687B2A;}
	.st22{clip-path:url(#SVGID_56_);fill:#476322;}
	.st23{clip-path:url(#SVGID_58_);fill:#687B2A;}
	.st24{clip-path:url(#SVGID_60_);fill:#476322;}
	.st25{clip-path:url(#SVGID_62_);fill:#98928E;}
	.st26{clip-path:url(#SVGID_64_);fill:#CAC5C2;}
	.st27{clip-path:url(#SVGID_66_);fill:#A7A19E;}
	.st28{clip-path:url(#SVGID_68_);fill:#A7A19E;}
	.st29{clip-path:url(#SVGID_70_);fill:#857E7B;}
	.st30{clip-path:url(#SVGID_72_);fill:#6A635F;}
	.st31{clip-path:url(#SVGID_74_);fill:url(#SVGID_75_);}
	.st32{clip-path:url(#SVGID_77_);fill:#D4C99E;}
	.st33{clip-path:url(#SVGID_79_);fill:#D4C99E;}
	.st34{clip-path:url(#SVGID_81_);fill:url(#SVGID_82_);}
	.st35{clip-path:url(#SVGID_84_);fill:url(#SVGID_85_);}
	.st36{clip-path:url(#SVGID_87_);fill:url(#SVGID_88_);}
	.st37{clip-path:url(#SVGID_90_);fill:#687B2A;}
	.st38{clip-path:url(#SVGID_92_);fill:#476322;}
	.st39{clip-path:url(#SVGID_94_);fill:url(#SVGID_95_);}
	.st40{clip-path:url(#SVGID_97_);fill:#687B2A;}
	.st41{clip-path:url(#SVGID_99_);fill:#476322;}
	.st42{clip-path:url(#SVGID_101_);fill:#476322;}
	.st43{clip-path:url(#SVGID_103_);fill:url(#SVGID_104_);}
	.st44{clip-path:url(#SVGID_106_);fill:#98928E;}
	.st45{clip-path:url(#SVGID_108_);fill:#69625E;}
	.st46{clip-path:url(#SVGID_110_);fill:#D4C99E;}
	.st47{clip-path:url(#SVGID_112_);fill:url(#SVGID_113_);}
	.st48{clip-path:url(#SVGID_115_);fill:url(#SVGID_116_);}
	.st49{clip-path:url(#SVGID_118_);fill:#E0D7B6;}
	.st50{clip-path:url(#SVGID_120_);fill:#E0D7B6;}
	.st51{fill:#5C6679;}
	.st52{fill:#3E485A;}
	.st53{fill:#948D8A;}
	.st54{fill:#7E7874;}
	.st55{fill:#6E6764;}
	.st56{fill:#BEB9B6;}
	.st57{clip-path:url(#SVGID_122_);fill:url(#SVGID_123_);}
	.st58{clip-path:url(#SVGID_125_);fill:url(#SVGID_126_);}
	.st59{clip-path:url(#SVGID_128_);fill:#687B2A;}
	.st60{clip-path:url(#SVGID_130_);fill:#476322;}
	.st61{clip-path:url(#SVGID_132_);fill:#FFFFFF;}
	.st62{clip-path:url(#SVGID_134_);fill:#8AACD0;}
	.st63{clip-path:url(#SVGID_136_);fill:#7E7874;}
	.st64{clip-path:url(#SVGID_138_);fill:#C1BBB9;}
	.st65{clip-path:url(#SVGID_140_);fill:#9F725C;}
	.st66{clip-path:url(#SVGID_142_);fill:#1A496A;}
	.st67{clip-path:url(#SVGID_144_);fill:#6F8BA9;}
	.st68{clip-path:url(#SVGID_146_);fill:#1A496A;}
	.st69{clip-path:url(#SVGID_148_);fill:#6F8BA9;}
	.st70{clip-path:url(#SVGID_150_);fill:#1A496A;}
	.st71{clip-path:url(#SVGID_152_);fill:#6F8BA9;}
	.st72{clip-path:url(#SVGID_154_);fill:#6F8BA9;}
	.st73{clip-path:url(#SVGID_156_);fill:#6F8BA9;}
	.st74{clip-path:url(#SVGID_158_);fill:#6F8BA9;}
	.st75{clip-path:url(#SVGID_160_);fill:#6F8BA9;}
	.st76{clip-path:url(#SVGID_162_);fill:#1A496A;}
	.st77{clip-path:url(#SVGID_164_);fill:#6F8BA9;}
	.st78{clip-path:url(#SVGID_166_);fill:#1A496A;}
	.st79{clip-path:url(#SVGID_168_);fill:#6F8BA9;}
	.st80{clip-path:url(#SVGID_170_);fill:#1A496A;}
	.st81{clip-path:url(#SVGID_172_);fill:#6F8BA9;}
	.st82{clip-path:url(#SVGID_174_);fill:#6F8BA9;}
	.st83{clip-path:url(#SVGID_176_);fill:#6F8BA9;}
	.st84{clip-path:url(#SVGID_178_);fill:#6F8BA9;}
	.st85{clip-path:url(#SVGID_180_);fill:#6F8BA9;}
	.st86{clip-path:url(#SVGID_182_);fill:#1A496A;}
	.st87{clip-path:url(#SVGID_184_);fill:#6F8BA9;}
	.st88{clip-path:url(#SVGID_186_);fill:#1A496A;}
	.st89{clip-path:url(#SVGID_188_);fill:#6F8BA9;}
	.st90{clip-path:url(#SVGID_190_);fill:#1A496A;}
	.st91{clip-path:url(#SVGID_192_);fill:#6F8BA9;}
	.st92{clip-path:url(#SVGID_194_);fill:#1A496A;}
	.st93{clip-path:url(#SVGID_196_);fill:#6F8BA9;}
	.st94{clip-path:url(#SVGID_198_);fill:#1A496A;}
	.st95{clip-path:url(#SVGID_200_);fill:#6F8BA9;}
	.st96{clip-path:url(#SVGID_202_);fill:#6F8BA9;}
	.st97{clip-path:url(#SVGID_204_);fill:#6F8BA9;}
	.st98{clip-path:url(#SVGID_206_);fill:#6F8BA9;}
	.st99{clip-path:url(#SVGID_208_);fill:#6F8BA9;}
	.st100{clip-path:url(#SVGID_210_);fill:#8D5C45;}
	.st101{clip-path:url(#SVGID_212_);fill:#9F725C;}
	.st102{clip-path:url(#SVGID_214_);fill:#9F725C;}
	.st103{clip-path:url(#SVGID_216_);fill:#B2C6E0;}
	.st104{clip-path:url(#SVGID_218_);fill:#A75F2E;}
	.st105{clip-path:url(#SVGID_220_);fill:#68615E;}
	.st106{clip-path:url(#SVGID_222_);fill:#678039;}
	.st107{clip-path:url(#SVGID_224_);fill:#59772D;}
	.st108{clip-path:url(#SVGID_226_);fill:#476322;}
	.st109{clip-path:url(#SVGID_228_);fill:#678039;}
	.st110{clip-path:url(#SVGID_230_);fill:#547129;}
	.st111{clip-path:url(#SVGID_232_);fill:#678039;}
	.st112{clip-path:url(#SVGID_234_);fill:#526C2B;}
	.st113{clip-path:url(#SVGID_236_);fill:#678039;}
	.st114{clip-path:url(#SVGID_238_);fill:#526C2B;}
	.st115{clip-path:url(#SVGID_240_);fill:#59772D;}
	.st116{clip-path:url(#SVGID_242_);fill:#476322;}
	.st117{clip-path:url(#SVGID_244_);fill:#59772D;}
	.st118{clip-path:url(#SVGID_246_);fill:#59772D;}
	.st119{clip-path:url(#SVGID_248_);fill:#59772D;}
	.st120{clip-path:url(#SVGID_250_);fill:#59772D;}
	.st121{clip-path:url(#SVGID_252_);fill:#526C2B;}
	.st122{clip-path:url(#SVGID_254_);fill:url(#SVGID_255_);}
	.st123{clip-path:url(#SVGID_257_);fill:#4D6A26;}
</style>
<g>
	<g>
		<defs>
			<path id="SVGID_1_" d="M348.9,324.3c0-0.5,0-1,0.1-1.6C348.8,323.2,348.8,323.7,348.9,324.3"/>
		</defs>
		<clipPath id="SVGID_2_">
			<use xlink:href="#SVGID_1_"  style="overflow:visible;"/>
		</clipPath>
		
			<linearGradient id="SVGID_3_" gradientUnits="userSpaceOnUse" x1="-63.2959" y1="90.1062" x2="-62.2959" y2="90.1062" gradientTransform="matrix(0 0.8976 0.8976 0 267.9707 379.7335)">
			<stop  offset="0" style="stop-color:#C5E8F3"/>
			<stop  offset="0.1161" style="stop-color:#BFE6F4"/>
			<stop  offset="0.6522" style="stop-color:#A6DFF7"/>
			<stop  offset="1" style="stop-color:#9DDCF9"/>
		</linearGradient>
		<rect x="348.8" y="322.7" class="st0" width="0.1" height="1.6"/>
	</g>
</g>
<g>
	<g>
		<defs>
			<path id="SVGID_4_" d="M440.9,331.5c0.1-1.4,0.1-2.8,0.1-4.1C440.6,328.3,440.5,329.7,440.9,331.5"/>
		</defs>
		<clipPath id="SVGID_5_">
			<use xlink:href="#SVGID_4_"  style="overflow:visible;"/>
		</clipPath>
		
			<linearGradient id="SVGID_6_" gradientUnits="userSpaceOnUse" x1="-97.6935" y1="61.2183" x2="-96.6935" y2="61.2183" gradientTransform="matrix(0 2.3467 2.3467 0 297.0891 557.0744)">
			<stop  offset="0" style="stop-color:#C5E8F3"/>
			<stop  offset="0.1161" style="stop-color:#BFE6F4"/>
			<stop  offset="0.6522" style="stop-color:#A6DFF7"/>
			<stop  offset="1" style="stop-color:#9DDCF9"/>
		</linearGradient>
		<rect x="440.5" y="327.4" class="st1" width="0.5" height="4.1"/>
	</g>
</g>
<g>
	<g>
		<defs>
			<rect id="SVGID_7_" x="-77" y="-38.2" width="595.3" height="841.9"/>
		</defs>
		<clipPath id="SVGID_8_">
			<use xlink:href="#SVGID_7_"  style="overflow:visible;"/>
		</clipPath>
		<path class="st2" d="M201.2,696.1v-25.2l-0.7-3l-0.8,2.5v-3l-0.1-1.3l-0.2,1.1l-0.7-3.3l-0.7,3l-3.8-26.2l-3.7,26.3l-0.5-3.2
			l-0.5,3.2l-0.3-0.7l-0.1,1.7l-0.1,2.4l-0.6-2.4l-0.7,2.9V696c1.8,0.8,2.8,1.5,7,1.6C197.4,697.7,199.4,697,201.2,696.1"/>
	</g>
	<g>
		<defs>
			<rect id="SVGID_9_" x="-77" y="-38.2" width="595.3" height="841.9"/>
		</defs>
		<clipPath id="SVGID_10_">
			<use xlink:href="#SVGID_9_"  style="overflow:visible;"/>
		</clipPath>
		<path class="st3" d="M-40.8,700.3c1.1-0.7,3-1.4,4.3-1.6c0.8-0.1,1.7,0.1,2.4,0c0.9-0.2,1.6-1,2.7-0.9c0.8,0.1,1,0.8,1.7,0.9
			c0.4,0.1,2.8-2.4,3.1-2.7c1.3-1,3.1-2.2,4.8-2.1c1.2,0.1,1.8,0.5,2.4,1.5c0.7-0.3,1.1-1.1,1.7-1.5c1-0.8,2.1-1,3.3-1.1
			c0.4,0,0.7,0.2,1.1,0.1c0.9-0.2,1.8-1.2,2.8-1.5c1.3-0.3,2.1-0.1,3.2,0.6c0.8,0.5,2,2.1,2.9,2.3s1.7-0.6,2.4-1.4
			c1.2-1.3,2.4-2.6,4.6-2.2c1.4,0.3,2,1.7,3.3,1.8c1.2,0,1.3-1,2.2-1.8c1.5-1.1,2.3,0,3.8-0.3c0.5-0.1,0.9-0.7,1.5-0.9
			c0.2-0.1,2.2-0.3,2.2-0.4c-0.1-2.3,1.7-3.5,3.9-2.2c1.2-2.1,6.3,1.6,6.1,3.5c1.5,0.1,1.7-0.2,2.8-0.9c1.5-0.8,2.9-0.1,4.4,0.2
			c0,0.3,0.1,0.7,0.1,1c0.8,0.1,1.2-1.1,1.8-1.6c0.4-0.3,1.1-0.7,1.5-0.9c0.3-0.2,0.5-0.6,1.2-0.7c0.6-0.1,1.2-0.2,1.7-0.3
			c1.4-0.3,1.7-0.1,2.8,0.9c0.3,0.3,0.1,0.6,0.5,0.8c0.3,0.1,0.7-0.1,1,0s0.2,0.6,0.5,0.8c0.2,0.1,0.7,0,0.8,0.1
			c0.5,0.4,0.3,0.9,1.2,0.9c0.6,0,1-0.9,1.8-0.9c0.5-2.7,3.3-2,5.1-2.2c0.3-1.9,2.2-1.9,3.7-2.2c0.8-0.2,0.6-0.7,1.7,0
			c1,0.6,3.4,2.8,3.5,4l1.6,2.5c0,0.8,0,1.6,0,2.3c-5.5,1.3-10.8,2.7-16.4,3.3c-5.3,0.6-10.7,1.2-16,1.4c-4.4,0.1-8.8,0.8-13.2,1.3
			c-2.9,0.3-5.7,0.9-8.6,1.1c-3.1,0.2-6.2,0-9.3,0c-6.3,0.1-12.5,1.1-18.8,1c-1.5,0-17.7,1-21.9,0.2V701
			C-40.6,700.6-40.8,700.3-40.8,700.3"/>
	</g>
	<g>
		<defs>
			<rect id="SVGID_11_" x="-77" y="-38.2" width="595.3" height="841.9"/>
		</defs>
		<clipPath id="SVGID_12_">
			<use xlink:href="#SVGID_11_"  style="overflow:visible;"/>
		</clipPath>
		<path class="st4" d="M10.4,694c0.6-0.7,1.3-0.4,1.7-1.1c0.3-0.5,0.3-1.2,0.9-1.7c0.9-0.7,2.4-0.7,3.3-0.3c0.2-0.5,0.1-1,0.2-1.5
			c0.1-0.5,0.5-0.8,0.8-1.3c0.3-0.4,0.2-0.7,0.9-0.6c0.3,0,0.8,0.4,1,0.5c0.5,0.3,0.5,0.4,0.6,0.9s0,1.7,0.9,1.4
			c1.1-0.3,0-1.7-0.4-2c0.4-0.3,1.6-0.5,2.1-0.2s0.3,0.9,0.6,1.3c0.6,0.6,1.4,0.8,1.9,1.7c-0.9,0.9-1.3,1.2-2.5,1.5
			c-0.5,0.1-1.8,0.6-1,1.3c0.8-0.4,1.7-0.1,2.4-0.3c0.2-0.1,0.3-0.3,0.5-0.4c0.4-0.2,0.9,0,1.3-0.1c1-0.3,2.2-1,3.3-1.2
			c0.4-0.1,0.9-0.2,1.3-0.1c0.7,0.2,0.7,0.9,1.2,1.2c1.5,1,3.1-1.4,3.7-2.5c0.5-1,0.6-1.4,1.7-1.6c1.2-0.3,2.9-0.3,4.2,0.1
			c0.1,0.6-0.2,0.7-0.6,0.9c-0.3,0.2-0.9,0.2-1.1,0.5c-0.1,0.1,0,0.5-0.1,0.7c-0.2,0.3-1.5,1.5-0.7,1.8c0.1,0,1.1-0.6,1.2-0.7
			c0.5-0.5,0.6-1.3,1.3-1.7c0.4-0.2,1.4-0.2,1.8-0.1c1,0.2,1.7,1.5,2.8,1.3c0.8-0.2,1-0.6,2-0.6c0.4,0,0.9,0.1,1.3,0.1
			c0.2-0.9,1.1-0.8,1.8-1c0.8-0.2,1-0.4,1.5-0.9s0.9-1.1,1.7-1.2c0.8-0.1,1.5,0.6,2.2,0.4c0.8-0.3,0.9-0.8,1.9-0.7
			c1.2,0.1,2.3,1.3,2.5,2.5l0.2,1.4c0.1,1.4-1,2.6-2.2,3.1c-3.4,1.4-7.6,0.8-11.3,0.8c-6.7,0-13.4,0.7-20.2,0.5
			c-3.9-0.1-7.7,0-11.6-0.2c-1.8-0.1-4.1-0.2-5.8,0.3C9.5,695.7,10.1,694.4,10.4,694"/>
	</g>
	<g>
		<defs>
			<rect id="SVGID_13_" x="-77" y="-38.2" width="595.3" height="841.9"/>
		</defs>
		<clipPath id="SVGID_14_">
			<use xlink:href="#SVGID_13_"  style="overflow:visible;"/>
		</clipPath>
		<path class="st5" d="M-2.5,694.8c0.3-0.3,0.6-0.5,0.7-0.9c0.2-0.4,0.2-0.7,0.6-1c0.6-0.5,1.6-0.8,2.4-1c0.6-0.2,1.2-0.1,1.8,0.1
			c0.6,0.2,1.3,0.4,1.8,0.8c0.2,0.1,0.5,0.4,0.6,0.6c-0.8,0.2-1.4,1.2-1.2,2c0.5,0.1,0.7-0.4,0.9-0.7c0.2-0.4,0.4-0.5,0.8-0.7
			c0.6-0.3,0.7-0.7,1.1-1.2c0.2-0.3,0.6-0.6,0.9-0.8c0.7-0.5,1.3-0.5,2.2-0.4c0.5,0,1.1,0,1,0.6l-0.1-0.1c0,0.5-0.8,0.7-1.2,0.8
			c-0.4,0.2-0.5,0.3-0.6,0.8c-0.1,0.3-0.1,0.5-0.3,0.8c-0.3,0.4-0.3,0.6-0.3,1.1c0,0.4,0.1,0.5-0.4,0.5c-0.9,0.1-1.8-0.2-2.8,0
			c-0.7,0.1-1.3,0.5-2,0.6c-1,0.2-1.9-0.3-2.9-0.1c-0.6,0.1-1,0.4-1.6,0.4c-0.4,0-0.8,0.1-1.2,0.2c-0.2,0-1,0-1.2-0.1
			C-4.2,696.4-2.8,695.1-2.5,694.8"/>
	</g>
	<g>
		<defs>
			<rect id="SVGID_15_" x="-77" y="-38.2" width="595.3" height="841.9"/>
		</defs>
		<clipPath id="SVGID_16_">
			<use xlink:href="#SVGID_15_"  style="overflow:visible;"/>
		</clipPath>
		<path class="st6" d="M-34,699.8c0.9-0.3,1.4-1.2,2.3-0.5c0.4,0.3,0.5,0.5,1,0.4c0.4-0.1,0.9-0.2,1.3-0.4c1.2-0.4,2.9-0.5,3.5-1.8
			c0.4-0.8,1.3-0.7,1.9-1.4c0.3-0.4,0.3-0.6,0.8-0.8c0.4-0.1,1.7-0.6,2.1-0.4c0.3,0.2,0,0.2,0.2,0.4c0.2,0.4,0.4,0.4,0.8,0.6
			c0.6,0.4-0.1,0.8,0.3,1.3c0.2,0.3,0.9,0.2,1.2,0.1c0.7-0.3,0.9-0.7,1-1.4c0.2-0.8,0.9-0.7,1.3-1.2c0.3-0.4,0.5-0.8,1.1-1
			c0.3-0.1,1.4-0.3,1.7-0.1c0.4,0.2-0.2,0.7-0.4,1c-0.3,0.5-0.7,1.6,0.3,1.7c0.3-0.5,0.4-1,0.6-1.5c0.2-0.6,0.7-0.8,1.2-1.2
			c0.9-0.7,1.5-1,2.7-0.9c0.7,0,1.3,0.2,1.8,0.7c0.2,0.2,0.4,0.4,0.6,0.5c0.6,0.3,1,0.6,1.4,1.2c0.3,0.4,0.7,0.9,0.8,1.5v0.5
			c-0.9,0.2-1.8,0.6-2.8,0.8c-1.2,0.3-2.6,0.2-3.8,0.3c-1.4,0.1-2.8,0.3-4.2,0.6c-2.2,0.4-4.3,0.7-6.5,1s-4.4,0.4-6.6,0.6
			c-2.2,0.2-4.4,0.5-6.5,0.8c-0.8,0.1-1.6,0.3-2.4,0.2C-37.5,699.6-35.1,700.2-34,699.8"/>
	</g>
	<g>
		<defs>
			<rect id="SVGID_17_" x="-77" y="-38.2" width="595.3" height="841.9"/>
		</defs>
		<clipPath id="SVGID_18_">
			<use xlink:href="#SVGID_17_"  style="overflow:visible;"/>
		</clipPath>
		<path class="st7" d="M62.7,693.4c0,0-65.6,0.5-103.6,8.1H63.3L62.7,693.4z"/>
	</g>
</g>
<g>
	<g>
		<defs>
			<path id="SVGID_19_" d="M450.5,667.5c-0.7,1.6-2.4,2.8-2.8,4.7c-0.3,1.5,0.8,3,0.6,4.5c-1.1,0.1-2.2,0-3.4-0.2
				c-1.2-0.2-2.5-0.5-3.7-0.1c-1.7,0.6-3.9,3.2-4.2,5c-0.2,1.1,0.1,2.1,0.5,3l-2.8,2.4c-0.3,0.6-0.7,1.3-1,1.9c-1,2.3-0.3,4.7,0.3,7
				c0.7,2.8,1.7,5.5,4.3,7.1c1.7,1.1,3.6,1,5.5,1.1c3.2,0.2,6.4,0.3,9.7,0.3c5.7-0.2,11.4-0.9,17-1.1c2.4-0.1,4.9,0,7.4,0.1
				c1.9,0.1,3.7,0.2,5.5,0.2v-23.1c-0.9-0.1-2.1,0-2.7-0.4c-0.6-0.4-0.7-1-1.1-1.6c-0.5-0.8-1-1.3-1.8-1.8c-1.2-0.8-2.9-1.7-4.4-1.6
				c-0.1-0.4-0.4-0.8-0.7-1.1s-0.8-0.4-1.1-0.6c-0.5-0.5-0.6-1.5-1-2.1c-2.3-3-4.3,1.2-5.4,3c-0.9-2.7-4.5-1.7-6.1-0.2
				c-1.9-1.2-1.7-3.5-2.3-5.4c-0.4-1.6-1.9-2.9-3.6-3.1c-0.1,0-0.1,0-0.2,0C452.1,665.3,451,666.5,450.5,667.5"/>
		</defs>
		<clipPath id="SVGID_20_">
			<use xlink:href="#SVGID_19_"  style="overflow:visible;"/>
		</clipPath>
		
			<linearGradient id="SVGID_21_" gradientUnits="userSpaceOnUse" x1="-119.8356" y1="44.3385" x2="-118.8356" y2="44.3385" gradientTransform="matrix(-50.2614 0 0 50.2614 -5539.6367 -1543.7172)">
			<stop  offset="0" style="stop-color:#678039"/>
			<stop  offset="0.2184" style="stop-color:#5E7832"/>
			<stop  offset="0.6925" style="stop-color:#4F6B27"/>
			<stop  offset="1" style="stop-color:#4A6623"/>
		</linearGradient>
		<rect x="432.7" y="665.3" class="st8" width="50.7" height="39"/>
	</g>
</g>
<g>
	<g>
		<defs>
			<rect id="SVGID_22_" x="-77" y="-38.2" width="595.3" height="841.9"/>
		</defs>
		<clipPath id="SVGID_23_">
			<use xlink:href="#SVGID_22_"  style="overflow:visible;"/>
		</clipPath>
		<path class="st9" d="M437.7,687.3c0.1-1.5,0.8-2.8,1.3-4.2c0.3-0.7,0.3-1.4,0.8-2c1.4-1.8,4.3-1.7,6.3-1.5c0.6,0,3,0.5,3.6,0.1
			c1.1-0.7,0.5-1.9,0.5-2.7c0-0.3,0.4-1,0.4-1.2c-0.1-0.6-0.7-1-0.9-1.6c-0.2-0.6,0.3-3.2,0.8-3.8c1.5-1.8,4.7,1.1,5.3,2.6
			c0.8,1.9,0,4.4,0.5,6.4c2.7-0.1,3.6,1.3,5,3c1.2,1.4,2.6,1.9,3.1,3.9c0.3,1.3,0.3,2.6,0.4,3.9c0.8-1.2,1.2-3.4,1-4.9
			s-1.1-1.4-2.1-2.4c-1-1.2-0.5-3.1-2.1-3.9c-1-0.5-2.3-0.1-2.7-1.5c-0.3-1,0.3-2.2,1.4-1.9l0.5,0.3c1.5,0.1,2.7,1.3,3.8,2.1
			c1.6,1.2,2.2,1.6,3,3.4c0.5,1.1,1.2,1.9,1.3,3.1c0.1,0.7,0,1.5,0,2.2c4.5-1.9-0.6-7.8-2.1-9.8c1.3-0.4,0.6-2.1,1.9-2.1
			c1.9,0,2.4,2.8,3.1,3.8c0.1,0.2,0.6,0.1,0.8,0.3c0.8,0.6,1.5,1.4,2.2,2.2c0.8,1,1.3,1.9,1.6,3.2c0.5,2.2-0.4,4.3-0.3,6.5
			c2.3-0.1,3.2-2.4,2.9-4.5c-0.1-0.9-0.7-1.8-0.8-2.7c-0.1-0.5,0-0.9-0.2-1.4c1.8,0.6,2.8,2.1,4.1,3.3c0.4,0.3,1,0.6,1.4,0.9v16.1
			c-0.8,0-2.1-0.1-2.2-0.1c-2.5,0.1-5,0.3-7.5,0.6c-6.2,0.6-12.4,0.6-18.6,1c-2.5,0.1-6.7,0.9-9-0.1c-4.7-2.1-5.4-6.9-7.3-11
			C438,691,437.5,689.3,437.7,687.3"/>
	</g>
</g>
<g>
	<g>
		<defs>
			<path id="SVGID_24_" d="M410.7,677c-0.7,0.4-2.1,1.3-2.2,2.2l-5.8,5.3c-4.5,4.2-6.4,13.9,0.6,16.5c2.2,0.8,4.5,1.5,6.7,2.2
				c2.6,0.8,5.5,0.1,8.2-0.1c2.4-0.2,4.7,0,7,0.2c1.6,0.1,3.3,0.3,4.9,0.3c2.3,0,4.4-0.1,6.7-0.5c2.1-0.4,4.2-1.1,6.3-1.4
				c2-0.2,3.9,0.1,5.8,0.4c1.7,0.3,3.5,0.6,5.2,0.5c0.7,0,1.3,0,1.8-0.8c0.3-0.5,0-1,0.1-1.5c0.1-0.6,0.7-1.1,0.9-1.8
				c0.9-2.7-1.2-5-3-6.6c-2-1.7-4-1.6-6.4-1.3c-0.6,0.1-1.2,0.3-1.8,0.4c-0.2,0.1-0.3,0.2-0.5,0.2c-0.3-0.1-0.4-0.6-0.5-0.8
				c-0.4-0.6-1.2-1-1.6-1.5c-0.2-0.3-0.2-0.9-0.3-1.2c-0.5-1.6-1.9-2.5-2.8-3.8c-0.4-0.6-0.6-1.2-1.3-1.5c-1.1-0.5-3.1-0.1-4.3,0.2
				c-1.2,0.3-3.5,0.6-3.2,2.3c-0.2,0-0.5,0-0.7,0c-0.7,0-1.3,0-1.9,0.3c-0.5-0.9-0.4-1.9-1.1-2.8c-0.5-0.7-1.3-1.2-2-1.6
				c-1.4-0.9-2.9-1.1-4.1,0.2c-1.3-1.5-2.8-2.2-4.2-3.3c-0.6-0.4-1-1.1-1.7-1.5c-0.4-0.2-0.9-0.3-1.4-0.3
				C412.9,675.9,411.7,676.4,410.7,677"/>
		</defs>
		<clipPath id="SVGID_25_">
			<use xlink:href="#SVGID_24_"  style="overflow:visible;"/>
		</clipPath>
		
			<linearGradient id="SVGID_26_" gradientUnits="userSpaceOnUse" x1="-119.7222" y1="44.2062" x2="-118.7222" y2="44.2062" gradientTransform="matrix(-58.1519 0 0 58.1519 -6505.2188 -1880.7765)">
			<stop  offset="0" style="stop-color:#678039"/>
			<stop  offset="0.2184" style="stop-color:#5E7832"/>
			<stop  offset="0.6925" style="stop-color:#4F6B27"/>
			<stop  offset="1" style="stop-color:#4A6623"/>
		</linearGradient>
		<rect x="396.3" y="675.9" class="st10" width="61.5" height="28"/>
	</g>
</g>
<g>
	<g>
		<defs>
			<rect id="SVGID_27_" x="-77" y="-38.2" width="595.3" height="841.9"/>
		</defs>
		<clipPath id="SVGID_28_">
			<use xlink:href="#SVGID_27_"  style="overflow:visible;"/>
		</clipPath>
		<path class="st11" d="M405,690c0.1-1.9,0.5-2.6,2-3.9c2-1.8,2.4-3.7,5.3-4.7c1.1-0.4,2.1-0.4,3.3-0.5c0.5,0,2.2-0.5,2.6-0.4
			c1,0.4,2.2,2.7,2.6,3.7c0.5,1.2,0.5,2.5,0.7,3.8c0.9-0.2,2.3-0.2,3.1-0.5c0.8-0.3-0.1-1.1,1.4-1c1.2,0.1,1.2,1,1.7,1.9
			c1,0,2.1,0.7,2.7,1.4c0.2-2.6,2.5-3.6,4.9-3.6c1.5,0,2.7,0.5,3.8,1.5c1,0.9,0.9,2,1.6,2.8c0.5,0.5,1.4,0.4,1.6,1.3
			c0.1,0.6-0.7,0.9-0.6,1.4c0.2,0.9,1.2,0.7,1.7,1.4c0.3,0.4-0.1,0.9,0.2,1.2c0.3,0.3,1.1,0.3,1.2,0.5c0.5,0.7,0.1,2.2,0.3,3
			c1.3-0.4,1.8-3.1,1.3-4.3c-0.2-0.4-1.2-0.8-1.1-1.2c0-0.7,0.5-0.2,0.7-0.4c1-1.1,1.6-0.8,3-0.7c1.6,0.2,2.6,0.1,3.4,1.7
			c0.1,0.2-0.1,0.7,0.1,1s0.6,0.5,0.8,1.1c0.5,1.4-0.3,1.9-0.7,2.8c-0.3,0.9-0.3,1.2-0.9,2.1l-0.9,2.9c-3.8,0.6-7.7,0.3-11.6,0.3
			c-2.8,0-5.8,0.2-8.6-0.4c-2.2-0.5-4.3-1.5-6.6-1.7c-2.4-0.2-4.9,0.1-7.4-0.1c-2-0.1-4.4,0.3-6.2-0.6c-1.7-0.9-4.3-2.4-5.1-4.3
			C404.3,695.5,404.9,692.1,405,690"/>
	</g>
</g>
<g>
	<g>
		<defs>
			<path id="SVGID_29_" d="M396.2,669.4c-1.3,0.2-3.8,1.4-3.7,3c-0.3-0.3-0.7-0.3-1.1-0.4c-0.3-0.1-0.7,0-1.1,0.1s-0.8,0.2-1.1,0.1
				c-0.7-0.2-1.2-1-2.1-1.1c-2.2-0.5-4.4,2.4-4.3,4.4l-3.6,5.8c-0.3-0.1-1.1,0.6-1.4,0.9c-1.2,1-2.5,2.6-2.6,4.2
				c0,0.3,0.2,0.9,0.1,1.2c-0.4,1.1-1.9,1.9-2.5,3c-0.9,1.6-0.4,3.7-0.1,5.5c0.4,2,1.1,3.3,2.9,4.3c3.5,2,7.9,3.1,11.8,3.7
				c8.8,1.3,18.1,1.7,26.9,0.3c3.3-0.5,6.8-0.9,10-1.9c0.6-0.2,1.1-0.4,1.8-0.4c0.1-0.8,0-1.4-0.3-2.1c-0.7-1.6-2-1.5-3.4-1.4
				c-0.7,0-1.4,0.1-2.1-0.1c-0.6-0.1-1.1-0.9-1.7-1.1c-1.6-0.5-2.6,0.5-3.9,0.9c-1.5,0.4-3.2,0-4.6,0.5c0.8-0.7,0.4-2.4-0.1-3.1
				c1.2-1,0.4-3-0.7-3.7c0.1-0.7,0.7-1.3,1.2-1.8c0.9-0.8,1.2-0.3,2.4-0.7c1.3-0.3,1.8-1,2.1-2.2c0.1-0.3,0-0.4,0.1-0.6
				c0.1-0.3,0.6-0.5,0.8-0.8c0.6-1.3-0.1-3.1-1-4.1c-0.6-0.6-0.5-0.7-0.8-1.3c-1.2-2-4.5-3.8-6.7-2.5c0.8-1.9,0-4.6-1.7-5.8
				c-0.9-0.6-1.8-0.6-2.7-1c-0.2-0.1-0.3-0.3-0.6-0.4c-1.6-0.8-3.2-1.4-4.9-1.4C396.9,669.3,396.5,669.4,396.2,669.4"/>
		</defs>
		<clipPath id="SVGID_30_">
			<use xlink:href="#SVGID_29_"  style="overflow:visible;"/>
		</clipPath>
		
			<linearGradient id="SVGID_31_" gradientUnits="userSpaceOnUse" x1="-119.7884" y1="44.2848" x2="-118.7884" y2="44.2848" gradientTransform="matrix(-53.3242 0 0 53.3242 -5961.623 -1673.9996)">
			<stop  offset="0" style="stop-color:#678039"/>
			<stop  offset="0.2184" style="stop-color:#5E7832"/>
			<stop  offset="0.6925" style="stop-color:#4F6B27"/>
			<stop  offset="1" style="stop-color:#4A6623"/>
		</linearGradient>
		<rect x="371.8" y="669.3" class="st12" width="54.2" height="36.3"/>
	</g>
</g>
<g>
	<g>
		<defs>
			<rect id="SVGID_32_" x="-77" y="-38.2" width="595.3" height="841.9"/>
		</defs>
		<clipPath id="SVGID_33_">
			<use xlink:href="#SVGID_32_"  style="overflow:visible;"/>
		</clipPath>
		<path class="st13" d="M382.8,686.6c0.2-2.4,1.3-3.2,2.3-5.2c0.8-1.7-0.1-3.7,0.9-5.3c0.4-0.6,1.6-1.7,2.2-2c0.9-0.4,1.5,0.3,2.3,0
			c0.6-0.3,0.5-1.2,1.2-1.4c0.8-0.2,2.3,1.5,3.2,1.7c0-1.2,1.7-3.2,2.8-3.3c1.3,0,2.1,1.7,3.2,2.1c1.1,0.4,3-0.1,4,0.9
			c0.5,0.5,0.9,1.5,0,2c-0.6,0.4-0.4-0.2-0.9-0.3c-1.3-0.4-2.2-0.8-3.7-0.7c0.7,0.5,1.4,0.4,2.1,1.1c0.9,1,0.6,2.4,0.7,3.6
			c1,0.1,1.8-0.3,2.8,0.1c0.8,0.3,2.2,1.3,2.9,1.9c1.6,1.5,3.3,3.9,0.3,5c-0.7,0.3-2.7,0.8-3.4,0.1c-1-1,0.1-1.6-1.9-2.1
			c-1.1-0.3-4.2-0.9-4.3,0.8c2,0.2,5.4,1.9,6.3,3.8c0.4,0.8,0.3,1.6,0.7,2.2c1.2,0,2.1,1.7,2.2,2.6c0.2,2.1-2.8,5-4.8,5l-3.8,1.2
			c-0.8,0.1-1.5-0.4-2.2-0.5c-2.4-0.4-4.1,0-6-1.9c-1.3-1.3-1.8-2.5-3.6-3.4c-1-0.5-3-0.2-3.7-1c-0.3-0.4-0.4-1.8-0.6-2.3
			C383.1,689.8,382.6,688.7,382.8,686.6"/>
	</g>
</g>
<g>
	<g>
		<defs>
			<path id="SVGID_34_" d="M367.5,673.5c-1.5,0.2-2.5,0.7-3.6,1.6c-0.3,0.2-0.4,0.5-0.7,0.7c-0.7,0.5-1.4,0.7-1.9,1.3
				c-0.4-1.6-2.4,0.8-2.9,1.3c-1,1.1-1.1,2.5-1.5,3.8l-3.7,2.5c-0.9,0.8-1.8,1.7-2.3,2.9c-0.6,1.5,0.2,1.8,0.8,3
				c0.7,1.5,0.2,3.3,0.7,4.9c0.7,2.3,2.7,4.2,5.2,4.5c1.3,0.2,2.7,0,4.1-0.1c0.2,0,1.1-0.1,1.4,0c1,0.4,1.2,1.7,1.8,2.5
				c3.3,4,9.8,1.6,14,1.3c2-0.1,4.3,0.4,6.3,0.6c3.1,0.3,6.1,1,9.2,1c2.7,0,6.6,0,8.3-2.5c0.3-0.4,0.5-1.1,0.7-1.4
				c0.4-0.9,0.9-1.4,0.9-2.6c-0.1-1.4-0.8-2.9-2.3-3.4c-0.3-0.1-0.7-0.1-1.1-0.1c-0.3,0-0.5,0-0.8,0c0-2.8-4.9-4.8-7.2-4.7
				c0-1-0.5-1.4-0.7-2.3c-0.2-0.7-0.2-0.4,0.1-1.2c0.1-0.3,0.2-0.6,0.3-0.9c0.6-2.4,0.1-5.3-2.5-6.3c-0.8-0.3-0.7,0.1-1-0.5
				c-0.2-0.4,0-1.3,0-1.7c-0.1-1.4-0.4-2.2-1.7-2.8c-2.1-1-5.1-0.8-7.3-0.2c-1.3,0.3-2.2,1.1-3.3,1.6c-1-2.1-3.3,0.1-4.4,0.7
				c-0.8-0.4-0.5-1.6-0.9-2.3c-0.6-1.1-1.6-1.4-2.7-1.4C368.4,673.4,367.9,673.5,367.5,673.5"/>
		</defs>
		<clipPath id="SVGID_35_">
			<use xlink:href="#SVGID_34_"  style="overflow:visible;"/>
		</clipPath>
		
			<linearGradient id="SVGID_36_" gradientUnits="userSpaceOnUse" x1="-119.692" y1="44.943" x2="-118.692" y2="44.943" gradientTransform="matrix(-35.2405 10.7993 10.7993 35.2405 -4296.3569 389.5602)">
			<stop  offset="0" style="stop-color:#C8B82C"/>
			<stop  offset="0.619" style="stop-color:#798429"/>
			<stop  offset="1" style="stop-color:#4D6A26"/>
		</linearGradient>
		<polygon class="st14" points="399.6,658.3 341,676.2 354.9,721.5 413.5,703.6 		"/>
	</g>
</g>
<g>
	<g>
		<defs>
			<rect id="SVGID_37_" x="-77" y="-38.2" width="595.3" height="841.9"/>
		</defs>
		<clipPath id="SVGID_38_">
			<use xlink:href="#SVGID_37_"  style="overflow:visible;"/>
		</clipPath>
		<path class="st15" d="M359.5,685.5l1.6-5.5c-0.3-2.6,6.3-5.2,6.4-1.6c1.3-0.5,2.2,1.5,2.6,2.4c0.6-0.4,1.3-0.4,1.8-0.7
			c0.9-0.6,1.4-1.3,2.6-1.3c3.2,0,6.7,3.8,6.9,6.8c1.4-1.4,1-3.7-0.1-5.2c-0.8-1.1-2-1-2.8-1.9c0.7-0.7,2.1-1.1,3.1-1.2
			c1.3-0.1,1.8,0.6,2.8,1c1.2,0.4,1.8,0.3,2.7,1.4c0.8,0.9,0.7,1.4,0.8,2.4c0.3,2,2.6,2.8,2.2,5.2c-0.2,0.9-0.9,1-1.2,1.8
			c-0.2,0.5,0,1.5,0,2c0.8,0.2,1.9,0.9,1.9,1.9c1.8-0.1,2.9,1.6,2.8,3.2c-0.9-0.9-1.8-1.3-3-1.7c-1.4-0.4-5.2-1.1-5.6,1.1
			c0.8,0.2,2-0.6,2.9-0.7c0.7-0.1,1.2,0,1.8,0.4c0.6,0.4,0.8,1,1.2,1.5c0.4,0.5,1,0.8,1.3,1.4c1.7-1.1,4.3-0.3,4.7,1.6
			c0.1,0.5,0.1,1.2-0.1,1.7c-0.1,0.4,0,0.4-0.3,0.6c-0.1,0.1-0.7,0-0.8,0c-1.5,0.1-3.1,0-4.6,0.1c-4.8,0.3-9.5,1.1-14.3,1.3
			c-1.9,0.1-3.7,0.1-5.5-0.5c-3.1-0.9-6.9-2.4-9.1-5c-1.9-2.2-0.6-5-1.4-7.5c-0.4-1.2-1.2-2.3-1.4-3.5
			C359.5,686.7,359.7,686.1,359.5,685.5"/>
	</g>
</g>
<g>
	<g>
		<defs>
			<path id="SVGID_39_" d="M340.9,673c-1.1-0.7-1.7-1.1-2.9-0.7c-1.4,0.4-2.9,1.5-3.1,3c0,0.4,0,0.8,0,1.2l-1.5,1.1
				c-0.6-0.3-1.4-0.3-2,0c-1.3,0.6-1.5,1.4-1.9,2.6c-0.9,2.6-1.9,4.6-1.8,7.4c0.2,2.7,1.4,4.6,3.5,6.1c0.7,0.5,0.7,0.1,0.9,1.2
				c0.5,2.4,1.6,3.4,4.3,3.5c0.6,0,1.2,0,1.9-0.1c1.4-0.1,2.8-0.2,3.9,0.4c1.7,0.9,2.8,2.8,4.1,4c1.9,1.8,4.1,1.1,6.4,0.4
				c2-0.6,4.6-1,6.7-0.5c0.5,0.1,1,0.4,1.6,0.6c2.3,0.9,5,0.9,7.3,0.2c0.8-0.3,1.7-0.1,2.7,0c1.4,0.2,2.9,0.4,4.1-0.9
				c0.2-0.3,0.2-0.6,0.5-0.8c0.1-0.1,0.6-0.1,0.8-0.3c0.4-0.4,0.4-0.9,0.4-1.4c0.7-0.5,0.7-1.2,0.9-2c0.2-0.5,0.6-0.9,0.8-1.5
				c0.3-1.1-0.1-2.5-0.5-3.5c-0.3-0.6-1-1.5-1.2-2.1c-0.1-0.5,0-1.1,0-1.6c-0.2-2.9-2.6-6.1-5.5-6.5c-0.6-0.1-1.3,0-2,0.1
				c-0.8,0.1-1.5,0.2-2.2,0.1c-0.3-0.1-0.4-0.3-0.7-0.4c-0.9-0.3-3.5-0.8-4.4-0.2c-0.4,0.2-0.6,1-0.7,1.4c-0.2-1.6-2.3-2.5-3.8-2.5
				c-0.4-1.3-3.6-1.9-3.9-0.4c-0.1-0.7-0.7-0.8-1-1.3s-0.2-0.7-0.4-1.3c-0.4-1.3-1.3-1.5-2.4-2c0.6-1.2,1.2-1,2-0.8
				c0.3,0.1,0.7,0.2,1.1,0.2c-0.2-2.6-2.7-3.4-4.9-3.8c-1-0.1-2.4-0.4-3.7-0.4C342.8,671.7,341.5,672,340.9,673"/>
		</defs>
		<clipPath id="SVGID_40_">
			<use xlink:href="#SVGID_39_"  style="overflow:visible;"/>
		</clipPath>
		
			<linearGradient id="SVGID_41_" gradientUnits="userSpaceOnUse" x1="-119.8299" y1="44.3351" x2="-118.8299" y2="44.3351" gradientTransform="matrix(-50.6113 0 0 50.6113 -5686.4575 -1555.8088)">
			<stop  offset="0" style="stop-color:#678039"/>
			<stop  offset="0.2184" style="stop-color:#5E7832"/>
			<stop  offset="0.6925" style="stop-color:#4F6B27"/>
			<stop  offset="1" style="stop-color:#4A6623"/>
		</linearGradient>
		<rect x="327.5" y="671.7" class="st16" width="51.1" height="32.7"/>
	</g>
</g>
<g>
	<g>
		<defs>
			<path id="SVGID_42_" d="M326.6,673.8c-1.6,0.2-3.4,1.8-3.7,3.4c-0.7-1.1-1.6,0.5-2.1,0.7c-1,0.4-0.8-0.3-1.3-0.5
				c-1.8-0.7-3.6,1.4-3.4,3.1l-2.8,3.5c-0.8,1.8-0.2,3.7,1,5.2c1,1.2,2,1.6,3.5,1.6c0.2,0,0.6-0.1,1-0.1c0.7-0.1,1.4-0.2,1.8,0
				c0.9,0.5,0.8,2.6,1.3,3.5c0.8,1.5,2.6,2.4,4.1,3c2.9,1.1,6.6,0.5,9.7,0.4c2.5-0.1,4.7-0.5,7.2-0.9c0.8-0.1,1.4-0.1,2.2,0.1
				c1.5,0.4,4.3,1,4.8-1c0.5-1.7-0.9-3.4-2.4-3.8c0.3-0.9,0.8-1.4,0.7-2.5c-0.1-0.9-0.6-1.7-1.3-2.2c0.8-1.5-2-3.1-3.2-3.3
				c-0.4-0.1-0.8,0-1.2,0.1c-0.4,0.1-0.8,0.1-1.1,0.1c-0.4-0.1-0.7-0.6-1.2-0.5c0-0.5,0-1.1-0.4-1.5c-0.4-0.3-0.7-0.3-1-0.2
				c-0.2,0-0.4,0.1-0.6,0c-0.7-0.1-1.3-1-1.5-1.8c-0.5-1.9,1-3.8-1.3-5.1c-1.3-0.7-3.8-1-4.5,0.6c0-1.4-2.4-1.9-3.7-1.9
				C326.8,673.7,326.7,673.7,326.6,673.8"/>
		</defs>
		<clipPath id="SVGID_43_">
			<use xlink:href="#SVGID_42_"  style="overflow:visible;"/>
		</clipPath>
		
			<linearGradient id="SVGID_44_" gradientUnits="userSpaceOnUse" x1="-120.1414" y1="44.7068" x2="-119.1414" y2="44.7068" gradientTransform="matrix(-36.7979 0 0 36.7979 -4071.1309 -959.1656)">
			<stop  offset="0" style="stop-color:#678039"/>
			<stop  offset="0.2184" style="stop-color:#5E7832"/>
			<stop  offset="0.6925" style="stop-color:#4F6B27"/>
			<stop  offset="1" style="stop-color:#4A6623"/>
		</linearGradient>
		<rect x="312.5" y="673.7" class="st17" width="37.8" height="24.5"/>
	</g>
</g>
<g>
	<g>
		<defs>
			<path id="SVGID_45_" d="M112.6,673.5c-1.5,0.2-2.5,0.7-3.6,1.6c-0.3,0.2-0.4,0.5-0.7,0.7c-0.7,0.5-1.4,0.7-1.9,1.3
				c-0.4-1.6-2.4,0.8-2.9,1.3c-1,1.1-1.1,2.5-1.5,3.8l-3.7,2.5c-0.9,0.8-1.8,1.7-2.3,2.9c-0.6,1.5,0.2,1.8,0.8,3
				c0.7,1.5,0.2,3.3,0.7,4.9c0.7,2.3,2.8,4.2,5.2,4.5c1.3,0.2,2.7,0,4.1-0.1c0.2,0,1.1-0.1,1.4,0c1,0.4,1.2,1.7,1.8,2.5
				c3.3,4,9.8,1.6,14,1.3c2-0.1,4.3,0.4,6.3,0.6c3.1,0.3,6.1,1,9.2,1c2.7,0,6.6,0,8.3-2.5c0.3-0.4,0.5-1.1,0.7-1.4
				c0.4-0.9,0.9-1.4,0.9-2.6c-0.1-1.4-0.8-2.9-2.3-3.4c-0.3-0.1-0.7-0.1-1.1-0.1c-0.3,0-0.5,0-0.8,0c0-2.8-4.9-4.8-7.2-4.7
				c0-1-0.5-1.4-0.7-2.3c-0.2-0.7-0.2-0.4,0.1-1.2c0.1-0.3,0.2-0.6,0.3-0.9c0.6-2.4,0.1-5.3-2.5-6.3c-0.8-0.3-0.7,0.1-1-0.5
				c-0.2-0.4,0-1.3,0-1.7c-0.1-1.4-0.4-2.2-1.7-2.8c-2.1-1-5.1-0.8-7.3-0.2c-1.3,0.3-2.2,1.1-3.3,1.6c-1-2.1-3.3,0.1-4.4,0.7
				c-0.8-0.4-0.5-1.6-0.9-2.3c-0.6-1.1-1.6-1.4-2.7-1.4C113.5,673.4,113,673.5,112.6,673.5"/>
		</defs>
		<clipPath id="SVGID_46_">
			<use xlink:href="#SVGID_45_"  style="overflow:visible;"/>
		</clipPath>
		
			<linearGradient id="SVGID_47_" gradientUnits="userSpaceOnUse" x1="-119.692" y1="44.9436" x2="-118.692" y2="44.9436" gradientTransform="matrix(-35.2412 10.7995 10.7995 35.2412 -4551.3564 389.5302)">
			<stop  offset="0" style="stop-color:#C8B82C"/>
			<stop  offset="0.619" style="stop-color:#798429"/>
			<stop  offset="1" style="stop-color:#4D6A26"/>
		</linearGradient>
		<polygon class="st18" points="144.7,658.3 86.1,676.2 100,721.5 158.6,703.6 		"/>
	</g>
</g>
<g>
	<g>
		<defs>
			<rect id="SVGID_48_" x="-77" y="-38.2" width="595.3" height="841.9"/>
		</defs>
		<clipPath id="SVGID_49_">
			<use xlink:href="#SVGID_48_"  style="overflow:visible;"/>
		</clipPath>
		<path class="st19" d="M104.6,685.5l1.6-5.5c-0.3-2.6,6.3-5.2,6.4-1.6c1.3-0.5,2.2,1.5,2.6,2.4c0.6-0.4,1.3-0.4,1.8-0.7
			c0.9-0.6,1.4-1.3,2.6-1.3c3.2,0,6.7,3.8,6.9,6.8c1.4-1.4,1-3.7-0.1-5.2c-0.8-1.1-2-1-2.8-1.9c0.7-0.7,2.1-1.1,3.1-1.2
			c1.3-0.1,1.8,0.6,2.8,1c1.2,0.4,1.8,0.3,2.7,1.4c0.8,0.9,0.7,1.4,0.8,2.4c0.3,2,2.6,2.8,2.2,5.2c-0.1,0.9-0.9,1-1.2,1.8
			c-0.2,0.5,0,1.5,0,2c0.8,0.2,1.9,0.9,1.9,1.9c1.8-0.1,2.9,1.6,2.8,3.2c-0.9-0.9-1.8-1.3-3-1.7c-1.4-0.4-5.2-1.1-5.6,1.1
			c0.8,0.2,2-0.6,2.9-0.7c0.7-0.1,1.2,0,1.8,0.4s0.8,1,1.2,1.5s1,0.8,1.3,1.4c1.7-1.1,4.3-0.3,4.7,1.6c0.1,0.5,0.1,1.2-0.1,1.7
			c-0.1,0.4,0,0.4-0.3,0.6c-0.1,0.1-0.7,0-0.8,0c-1.5,0.1-3.1,0-4.6,0.1c-4.8,0.3-9.5,1.1-14.3,1.3c-1.9,0.1-3.7,0.1-5.5-0.5
			c-3.1-0.9-6.9-2.4-9.1-5c-1.9-2.2-0.6-5-1.4-7.5c-0.4-1.2-1.2-2.3-1.4-3.5C104.6,686.7,104.8,686.1,104.6,685.5"/>
	</g>
</g>
<g>
	<g>
		<defs>
			<path id="SVGID_50_" d="M82.1,673c-1.1-0.7-1.7-1.1-2.9-0.7c-1.4,0.4-2.9,1.5-3.1,3c0,0.4,0,0.8,0,1.2l-1.5,1.1
				c-0.6-0.3-1.4-0.3-2,0c-1.3,0.6-1.5,1.4-1.9,2.6c-0.9,2.6-1.9,4.6-1.8,7.4c0.2,2.7,1.4,4.6,3.5,6.1c0.7,0.5,0.7,0.1,0.9,1.2
				c0.5,2.4,1.6,3.4,4.3,3.5c0.6,0,1.2,0,1.9-0.1c1.4-0.1,2.8-0.2,3.9,0.4c1.7,0.9,2.8,2.8,4.1,4c1.9,1.8,4.1,1.1,6.4,0.4
				c2-0.6,4.6-1,6.7-0.5c0.5,0.1,1,0.4,1.5,0.6c2.3,0.9,5,0.9,7.3,0.2c0.8-0.3,1.7-0.1,2.7,0c1.4,0.2,2.9,0.4,4.1-0.9
				c0.2-0.3,0.2-0.6,0.5-0.8c0.1-0.1,0.6-0.1,0.8-0.3c0.4-0.4,0.4-0.9,0.4-1.4c0.8-0.5,0.7-1.2,0.9-2c0.2-0.5,0.6-0.9,0.8-1.5
				c0.3-1.1-0.1-2.5-0.5-3.5c-0.3-0.6-1-1.5-1.2-2.1c-0.1-0.5,0-1.1,0-1.6c-0.2-2.9-2.6-6.1-5.5-6.5c-0.6-0.1-1.3,0-2,0.1
				c-0.8,0.1-1.5,0.2-2.2,0.1c-0.3-0.1-0.4-0.3-0.7-0.4c-0.9-0.3-3.5-0.8-4.4-0.2c-0.4,0.2-0.6,1-0.7,1.4c-0.2-1.6-2.3-2.5-3.8-2.5
				c-0.4-1.3-3.6-1.9-3.9-0.4c-0.1-0.7-0.7-0.8-1-1.3s-0.2-0.7-0.4-1.3c-0.4-1.3-1.3-1.5-2.4-2c0.6-1.2,1.2-1,2-0.8
				c0.3,0.1,0.7,0.2,1.1,0.2c-0.2-2.6-2.7-3.4-4.9-3.8c-1-0.1-2.4-0.4-3.7-0.4C84,671.7,82.7,672,82.1,673"/>
		</defs>
		<clipPath id="SVGID_51_">
			<use xlink:href="#SVGID_50_"  style="overflow:visible;"/>
		</clipPath>
		
			<linearGradient id="SVGID_52_" gradientUnits="userSpaceOnUse" x1="-119.8299" y1="44.3351" x2="-118.8299" y2="44.3351" gradientTransform="matrix(-50.6104 0 0 50.6104 -5945.1162 -1555.7694)">
			<stop  offset="0" style="stop-color:#678039"/>
			<stop  offset="0.2184" style="stop-color:#5E7832"/>
			<stop  offset="0.6925" style="stop-color:#4F6B27"/>
			<stop  offset="1" style="stop-color:#4A6623"/>
		</linearGradient>
		<rect x="68.7" y="671.7" class="st20" width="51.1" height="32.7"/>
	</g>
</g>
<g>
	<g>
		<defs>
			<rect id="SVGID_53_" x="-77" y="-38.2" width="595.3" height="841.9"/>
		</defs>
		<clipPath id="SVGID_54_">
			<use xlink:href="#SVGID_53_"  style="overflow:visible;"/>
		</clipPath>
		<path class="st21" d="M252,688.6c0-0.6,0.1-1.2,0.2-1.8c0.2,0,0.4,0,0.6-0.1c0-0.6-0.1-1.6,0.2-2c0.3-0.4,0.7-0.4,1-0.5
			c-0.3-1-0.3-2.3,0.3-3.1c0.4-0.4,0.4-0.3,0.6-1c0.1-0.3,0.3-0.6,0.4-0.9c0.4-0.7,0.8-1,1.5-1c0.8,0,1.6,0.4,1.9,1.4
			c0.6-0.1,0.8-0.2,1.2,0.2c0.1,0.1,0.4,0.6,0.5,0.8c0.1,0.3,0.1,0.8,0.2,1c0.2,0.3,0.4,0.2,0.6,0.7c0.1,0.4,0,0.9,0.1,1.3
			c0.2,0.5,0.3,0.4,0.3,1c0,0.4,0.1,0.7,0.1,1c0,0.2-0.1,0.6,0,0.7c0.2,0.3,0.7,0,1,0.2c0.4,0.2,0.9,0.9,1,1.4l0.6,1.9
			c0,0.4,0.2,1.3,0.1,1.6c-0.2,0.5-1.2,0.2-1.5,0.2c-3.6,0-7.3,0-11,0l-0.2-3C251.8,688.6,251.9,688.6,252,688.6"/>
	</g>
	<g>
		<defs>
			<rect id="SVGID_55_" x="-77" y="-38.2" width="595.3" height="841.9"/>
		</defs>
		<clipPath id="SVGID_56_">
			<use xlink:href="#SVGID_55_"  style="overflow:visible;"/>
		</clipPath>
		<path class="st22" d="M253.9,686.5c-0.9-1.6-0.2-1.5,0.8-1.6c0-0.9,0.2-1.7,0.3-2.4c0-0.3,0-0.5,0-0.8c0.1-0.6,0.4-0.6,0.7-1
			c0.1-0.1,0.1-0.4,0.1-0.5c0.3-0.3,0.6-0.3,1-0.3c0.2,0,0.5-0.1,0.7,0.1c0.2,0.2,0.2,0.7,0.4,0.8c0.3,0.3,0.7,0.1,1,0.2
			c1.4,0.2,1.4,1.6,1.6,3c-0.9-0.8-1.7-2.4-2.9-1.9c-0.2,0.1-0.4,0.4-0.5,0.4c-0.2,0.1-0.4-0.1-0.5,0c-0.3,0.2-0.4,0.8-0.5,1.2
			c1.2-0.7,1.6-1,2.8-0.2c0.8,0.5,1.4,1.5,1.6,2.6c-0.9-0.1-1.5-0.9-2.2,0.3c0.5,0,1.1-0.1,1.5,0c0.3,0.1,0.4,0.4,0.7,0.5
			c0.6,0.2,1-0.2,1.5,0.4c0.2,0.2,0.4,0.6,0.4,1c0,1.3-1.8,0.2-2.4,0.1c-1.2-0.2-2.4,0.4-3.5,0.4c-1.2,0-2.3-0.1-3.5-0.1v-0.4
			C253,687.7,253.3,686.6,253.9,686.5"/>
	</g>
	<g>
		<defs>
			<rect id="SVGID_57_" x="-77" y="-38.2" width="595.3" height="841.9"/>
		</defs>
		<clipPath id="SVGID_58_">
			<use xlink:href="#SVGID_57_"  style="overflow:visible;"/>
		</clipPath>
		<path class="st23" d="M269.6,688.5c0-1,0.7-1.6,1.3-2.3c0.2-0.3,0.3-0.6,0.6-0.8c0.2-0.1,0.5-0.1,0.6-0.2c0.6-0.5,1-1.3,2.2-1.3
			c0.8,0,1.2,0.3,1.8,0.6c0.4,0.2,0.5,0.2,0.9,0.4c1,0.4,2,0.7,2.5,1.8c0.1,0.2,0.1,0.6,0.2,0.8s0.5,0.2,0.6,0.3c0.2,0.4,0,1,0,1.4
			c0.4,0.1,1.1-0.1,1.5,0.1c0.6,0.4,0.5,1.6,1,2c0.7,0.5,2.1-0.2,2.9-0.2c0.7-0.1,1.3,0,2,0l0.3,3.4c-1.1,0-2.1,0-3.2-0.1
			c-2.3-0.1-4.7-0.1-6.9-0.7c-1.5-0.4-2.8-0.9-4.3-1c-1.3-0.1-2.5,0.1-3.2-1.1c-0.4-0.6-0.1-1-0.3-1.6
			C270,689.4,269.6,689.2,269.6,688.5"/>
	</g>
	<g>
		<defs>
			<rect id="SVGID_59_" x="-77" y="-38.2" width="595.3" height="841.9"/>
		</defs>
		<clipPath id="SVGID_60_">
			<use xlink:href="#SVGID_59_"  style="overflow:visible;"/>
		</clipPath>
		<path class="st24" d="M272.2,688.7c0.2-0.6,0.4-0.5,0.6-1c0.2-0.6,0.1-1.1,0.4-1.5s1.4-0.7,1.8-0.7c0.8,0,1.6,1.1,2.3,1.8
			c1.1,1.3,2.1,2.3,1.3,4.9c-1.7-1.9-2.7-2.7-4.7-1.9c-0.8,0.3-1.5,0.6-2.3,0.6l-0.6-0.2C270.9,689.3,271.5,688.1,272.2,688.7"/>
	</g>
	<g>
		<defs>
			<rect id="SVGID_61_" x="-77" y="-38.2" width="595.3" height="841.9"/>
		</defs>
		<clipPath id="SVGID_62_">
			<use xlink:href="#SVGID_61_"  style="overflow:visible;"/>
		</clipPath>
		<rect x="327.7" y="691.1" class="st25" width="22.2" height="4.9"/>
	</g>
	<g>
		<defs>
			<rect id="SVGID_63_" x="-77" y="-38.2" width="595.3" height="841.9"/>
		</defs>
		<clipPath id="SVGID_64_">
			<use xlink:href="#SVGID_63_"  style="overflow:visible;"/>
		</clipPath>
		<rect x="279" y="685.7" class="st26" width="47.4" height="13.1"/>
	</g>
	<g>
		<defs>
			<rect id="SVGID_65_" x="-77" y="-38.2" width="595.3" height="841.9"/>
		</defs>
		<clipPath id="SVGID_66_">
			<use xlink:href="#SVGID_65_"  style="overflow:visible;"/>
		</clipPath>
		<rect x="288.5" y="690.9" class="st27" width="35.2" height="0.8"/>
	</g>
	<g>
		<defs>
			<rect id="SVGID_67_" x="-77" y="-38.2" width="595.3" height="841.9"/>
		</defs>
		<clipPath id="SVGID_68_">
			<use xlink:href="#SVGID_67_"  style="overflow:visible;"/>
		</clipPath>
		<rect x="279.1" y="686" class="st28" width="35.2" height="0.8"/>
	</g>
	<g>
		<defs>
			<rect id="SVGID_69_" x="-77" y="-38.2" width="595.3" height="841.9"/>
		</defs>
		<clipPath id="SVGID_70_">
			<use xlink:href="#SVGID_69_"  style="overflow:visible;"/>
		</clipPath>
		<polygon class="st29" points="278.4,680.3 327.5,680.3 327.5,691 288.3,691 288.3,686.2 278.4,686.2 		"/>
	</g>
	<g>
		<defs>
			<rect id="SVGID_71_" x="-77" y="-38.2" width="595.3" height="841.9"/>
		</defs>
		<clipPath id="SVGID_72_">
			<use xlink:href="#SVGID_71_"  style="overflow:visible;"/>
		</clipPath>
		<polygon class="st30" points="288.3,686.2 288.3,695 282.3,695 		"/>
	</g>
</g>
<g>
	<g>
		<defs>
			<path id="SVGID_73_" d="M180.1,679.7c-0.4,0.3-0.8,0.7-1.2,1s-1.2,0.5-1.4,1c0,0.1,0,0.3,0,0.4c-0.1,0.2-0.6,0.2-0.7,0.5
				c-0.1,0.2,0,0.4-0.2,0.6c-0.1,0.2-0.4,0.1-0.6,0.3c-0.4-0.3-0.5-0.8-0.8-1.3c-0.2-0.3-0.2-0.3-0.6-0.2c-0.1-0.7,0-1.3-0.6-1.7
				c-0.5-0.3-2-0.3-2.3,0.3c-0.6,0-2,0-2.2,0.7c0,0.2,0,0.5,0,0.7c-0.5,0-0.3,0.6-0.6,0.8c-0.1,0.1-0.3,0.1-0.4,0
				c-0.1,0-0.2-0.1-0.3,0c0,0.1,0,0.2,0,0.2c-0.6-0.1-1.4-0.2-1.9,0.2s-0.6,1.4-0.4,2c-0.6,0.3-0.5,1-0.4,1.5
				c0.1,0.4,0.2,0.8,0.1,1.2c-0.2,0.6-0.6,1.1-0.7,1.8c-0.1,1.4,0,2.8,0.1,4.2c0,0.7,0.1,1.4,0.1,2.1c0,0.3-0.1,0.6,0,0.8
				c0,0.2,0.1,0.7,0.2,0.8c0.1,0.1,0.6,0.1,1,0.1c0.2,0,0.3,0,0.4,0c1.2,0.1,2.3,0.3,3.5,0.4c0.7,0.1,1.6,0.2,2.3,0.1
				c0.7-0.1,1.3-0.4,2-0.6c1.1-0.4,2.3-0.6,3.5-0.9c1.1-0.3,2-0.8,3.1-1c1.4-0.2,2.9-0.3,4.3-0.5c1.7-0.3,3.2-1.4,3.5-3.2
				c0.1-0.8,0.2-1.5,0.4-2.3c0.2-0.6,0.6-1.1,0.7-1.7c0.2-1.5,0.2-3.4-1.3-4.3c-0.5-0.3-0.8,0-1.1,0.2c-0.2-0.4-0.5-0.6-0.7-0.9
				c-0.3-0.5-0.4-1.2-1.2-1.1c0,0,0,0,0,0.1c-0.6-0.2-1.8-0.6-1.9,0.4c-0.4,0.1-0.6,0.4-0.9,0.5c-0.2-0.3,0.1-0.6,0-0.9
				c-0.1-0.1-0.2-0.2-0.3-0.3c-0.1-0.2,0-0.4-0.1-0.6c-0.1-0.1-0.4-0.2-0.5-0.2c-0.3-0.1-0.2-0.1-0.3-0.3c-0.1-0.3-0.1-0.3-0.4-0.5
				c-0.1,0-0.3-0.1-0.4-0.1c-0.1-0.1-0.2-0.3-0.3-0.4c-0.1-0.2-0.3-0.2-0.4-0.2C180.4,679.5,180.3,679.5,180.1,679.7"/>
		</defs>
		<clipPath id="SVGID_74_">
			<use xlink:href="#SVGID_73_"  style="overflow:visible;"/>
		</clipPath>
		
			<linearGradient id="SVGID_75_" gradientUnits="userSpaceOnUse" x1="-120.6728" y1="45.3364" x2="-119.6728" y2="45.3364" gradientTransform="matrix(-25.1069 0 0 25.1069 -2839.4167 -449.3069)">
			<stop  offset="0" style="stop-color:#C6C991"/>
			<stop  offset="0.5861" style="stop-color:#929F4D"/>
			<stop  offset="1" style="stop-color:#708521"/>
		</linearGradient>
		<rect x="165.1" y="679.5" class="st31" width="25.5" height="18.9"/>
	</g>
</g>
<g>
	<g>
		<defs>
			<rect id="SVGID_76_" x="-77" y="-38.2" width="595.3" height="841.9"/>
		</defs>
		<clipPath id="SVGID_77_">
			<use xlink:href="#SVGID_76_"  style="overflow:visible;"/>
		</clipPath>
		<rect x="173.1" y="678.4" class="st32" width="0.3" height="17"/>
	</g>
	<g>
		<defs>
			<rect id="SVGID_78_" x="-77" y="-38.2" width="595.3" height="841.9"/>
		</defs>
		<clipPath id="SVGID_79_">
			<use xlink:href="#SVGID_78_"  style="overflow:visible;"/>
		</clipPath>
		<rect x="106.7" y="680.3" class="st33" width="0.3" height="15.2"/>
	</g>
</g>
<g>
	<g>
		<defs>
			<path id="SVGID_80_" d="M320.4,684.7c-0.9,0.1-2.5,1-2.9,1.9c-0.3,0.8-0.1,1.7-0.7,2.4c-0.8,0.9-2,0.5-1.9,2.2l-0.8,1
				c-1,0-1,0.7-1.4,1.3c-0.8,1.1-3.2,3.1-2.5,4.6c0.5,0.9,2.4,1.5,3.2,2.5c1.6,2,2.3,4.2,5.2,4.3c1.8,0.1,3.5-0.1,5.3-0.3
				s3.6-0.3,5.5-0.3c4.3,0.2,8.6,1,13,0.5c3.5-0.4,6.7-1.9,10.2-1.5c1.7,0.2,4.4,1.4,6,0.5c0.5-0.3,0.8-1.1,0.9-1.6
				c0.6-1.9-0.3-2.5-0.9-4.1c-0.4-1.2-0.3-1.8-1.4-2.7c-0.8-0.7-1.9-1.4-2.9-1.9c-1.4-0.7-2.6-0.3-3.9-0.2c-0.3,0-0.6,0-0.9,0
				c-0.8,0-1.5,0-2.5,0.4c-1.1,0.5-0.4,0.4-1.4,0.1c-0.8-0.2-1.1-0.6-2-0.5c-1.9,0.1-2.9,1.7-4.3,2.6c0.1-1-0.8-0.9-1.7-0.8
				c-0.4,0.1-0.8,0.1-1,0.1c-0.3-1.6,0.6-3.5,0.3-5.2c-0.3-1.8-4-3.8-5.2-1.9c-1.8-0.7-3.3,2-4.2,3c-0.9-0.1-0.7-1.1-1.1-1.8
				c-0.6-1.2-2-1.5-3.2-1.5c-0.3-1.9,0-3-1.8-3C320.9,684.7,320.7,684.7,320.4,684.7"/>
		</defs>
		<clipPath id="SVGID_81_">
			<use xlink:href="#SVGID_80_"  style="overflow:visible;"/>
		</clipPath>
		
			<linearGradient id="SVGID_82_" gradientUnits="userSpaceOnUse" x1="-119.7269" y1="45.0359" x2="-118.7269" y2="45.0359" gradientTransform="matrix(-33.5494 10.281 10.281 33.5494 -4116.7407 406.2318)">
			<stop  offset="0" style="stop-color:#C8B82C"/>
			<stop  offset="0.619" style="stop-color:#798429"/>
			<stop  offset="1" style="stop-color:#4D6A26"/>
		</linearGradient>
		<polygon class="st34" points="355.7,670.5 303.8,686.4 313.8,719.3 365.8,703.4 		"/>
	</g>
</g>
<g>
	<g>
		<defs>
			<path id="SVGID_83_" d="M315.3,692.7l-2,3.7c-0.4,4.2,5.8,6.4,9,7c3.7,0.7,7.4,0,11-0.6c2.7-0.5,5.5-0.9,8.3-0.8
				c2.4,0.1,4.8,0.3,7,1c0.4,0.1,0.8,0.3,1.2,0.4c0.1,0,0.4,0.1,0.5,0.1c0.4-1.1,0.1-2.6-0.8-3.4c-0.7-0.7-1.6-0.6-2.4-1
				s-1.1-0.9-2-1c-1.5-0.2-2.8,0.6-3.8,1.4c-1.1-2.1-3.6-2.3-5.7-2.6c-2.8-0.4-0.5-2.5-1-4.2c-0.2-0.8-1-2.4-1.8-2.7
				c-1.4-0.5-3.1,1.1-3.7,2.1c-0.5,0.8-0.5,0.7-0.1,1.5s0.7,0.9,0.5,1.8c-0.2,0.6-1.1,1.6-1.7,1.8c-0.6-1.8-0.9-3.2-2.7-4.4
				c-0.6-0.4-2.8-2.1-2.4-0.1c-0.2-0.7-0.6-1.1-0.9-1.6c-0.4-0.7-0.3-1.4-1.1-2c-0.4-0.3-0.8-0.4-1.2-0.4
				C317.7,688.7,316.2,691.4,315.3,692.7"/>
		</defs>
		<clipPath id="SVGID_84_">
			<use xlink:href="#SVGID_83_"  style="overflow:visible;"/>
		</clipPath>
		
			<linearGradient id="SVGID_85_" gradientUnits="userSpaceOnUse" x1="-120.1309" y1="44.6953" x2="-119.1309" y2="44.6953" gradientTransform="matrix(-37.1387 0 0 37.1387 -4111.0967 -963.5757)">
			<stop  offset="0" style="stop-color:#4D6A26"/>
			<stop  offset="1" style="stop-color:#445F20"/>
		</linearGradient>
		<rect x="312.9" y="688.7" class="st35" width="37.9" height="15.3"/>
	</g>
</g>
<g>
	<g>
		<defs>
			<path id="SVGID_86_" d="M311.6,690.1c-0.8,0.7-0.8,1.7-1.2,2.6c-0.5,1.1-1.2,1.7-1.3,3c-1.4-0.1-1.7,1.4-1.6,2.5v1
				c-0.1,1.4,1.2,1.1,2.2,1.1c2.7,0,6.1,1,8.7,0.3c1.3-0.4,1.4-1.1,1-2.4c-0.1-0.3-0.4-0.5-0.5-0.8s0.1-0.7,0-1
				c-0.3-1.1-1-1.2-1.9-1.5c0.1-2.2,0-4.1-2.6-4.4c0.1-0.8-0.3-1.1-0.9-1.1C312.9,689.4,312,689.8,311.6,690.1"/>
		</defs>
		<clipPath id="SVGID_87_">
			<use xlink:href="#SVGID_86_"  style="overflow:visible;"/>
		</clipPath>
		
			<linearGradient id="SVGID_88_" gradientUnits="userSpaceOnUse" x1="-121.8546" y1="50.0421" x2="-120.8546" y2="50.0421" gradientTransform="matrix(-8.5432 2.618 2.618 8.5432 -851.8932 584.8057)">
			<stop  offset="0" style="stop-color:#C8B82C"/>
			<stop  offset="0.619" style="stop-color:#798429"/>
			<stop  offset="1" style="stop-color:#4D6A26"/>
		</linearGradient>
		<polygon class="st36" points="318.8,685.9 304.1,690.4 308.5,704.7 323.2,700.2 		"/>
	</g>
</g>
<g>
	<g>
		<defs>
			<rect id="SVGID_89_" x="-77" y="-38.2" width="595.3" height="841.9"/>
		</defs>
		<clipPath id="SVGID_90_">
			<use xlink:href="#SVGID_89_"  style="overflow:visible;"/>
		</clipPath>
		<path class="st37" d="M266.3,696.5c0.2-1.8,1.9-2.8,2.5-4.4l1.4-1.9c-0.2-1.3,1-2.5,2.1-2.9c1.6-0.5,2.5,0.1,3.4,1.4
			c0.7-0.5,1.5-0.6,2.3-0.9c1.4-0.5,4.6-1.5,5.8,0.3c0.4,0.7,0.1,1.5,0.2,2.2c0.2,0.9,1,1.6,1,2.6c1.1-0.9,2.8,0.7,3.8,1.2
			c0.1-0.9,0-1.6,0.6-2.4c0.7-1,2.3-1.6,3.4-1c-1.2-1.3-0.1-3,1.2-3.8c0.9-0.6,2.3-1.2,3.5-1c0.7,0.1,0.4,0.2,0.9,0.6
			c1.1,0.8,2.8,1,3.4,2.6c0.3,0.8,0.4,2.7,0.1,3.5c0.7,0.4,1.6,1.7,1.7,2.6c2.1,0,2.6,3.6,1.3,4.7c-3.5,2.8-9.2,1.6-13.3,1.3
			c-4.1-0.2-8.2,0.6-12.3,0.7c-3.1,0.1-6.5,0.3-9.4-0.9C268,700.1,266.1,698.8,266.3,696.5"/>
	</g>
	<g>
		<defs>
			<rect id="SVGID_91_" x="-77" y="-38.2" width="595.3" height="841.9"/>
		</defs>
		<clipPath id="SVGID_92_">
			<use xlink:href="#SVGID_91_"  style="overflow:visible;"/>
		</clipPath>
		<path class="st38" d="M269.3,693.6l2.2-2.9c0.4-0.6,2.8-2.7,3.2-0.9c1.5-0.1,3.2,1.3,3.3,2.8c1.6,0.4,2.3,1.3,2.2,2.8
			c0.3-0.3,0.8-1.4,0.5-2c-0.2-0.4-0.9-0.5-1.2-0.9c-0.1-0.2-0.1-0.6-0.2-0.9c-0.2-0.4-0.9-0.6-1.1-0.8c-0.4-0.6-0.5-1.5,0.2-2
			c0.4-0.3,1.5-0.4,2-0.5c0.9-0.1,1.7,0,2,0.9c0.1,0.3-0.1,0.6,0,0.9c0.2,0.5,0.8,1,1,1.6s0.2,1.3,0.2,1.9c0.7,0.3,1.5,0.3,2,1
			c0.3,0.4,0.2,1,0.4,1.4c0.1,0.2,0.5,0.2,0.7,0.4s0.3,0.5,0.3,0.8c0.1,0.5,0.2,1.1,0.3,1.5c0.4-0.9,0.2-1.8-0.1-2.7
			c-0.2-0.6,0-0.6-0.4-1c-0.3-0.3-0.6-0.3-0.9-0.6c1.9-0.5,1.9,2.5,3.8,0.7c0.7-0.7,0.3-0.4,0.4-1.2s0.3-0.8,0.9-1.4
			c0.7-0.8,1.1-0.9,2.2-0.4c1.2,0.6,2.7,1.1,3.5,2.3c0-0.8-0.2-2.3-0.9-2.8c-0.4-0.3-0.9-0.1-1.4-0.6c-0.1-0.1-0.7-1.2-0.7-1.3
			c-0.1-0.8,1.2-1.4,1.8-1.6c2.7-0.9,5.6,1.1,5.3,3.8c-1.5-0.4-2.1-1.8-3.8-1.7c-0.1,1,2.6,1.6,2.9,2.8c0.1,0.3-0.1,0.8,0,1.1
			c0.2,0.3,1,0.3,1.3,0.6c0.4,0.4,0.3,0.9,0.8,1.3c0.7,0.6,1.3,0.8,1.5,1.7c0.2,1-0.5,2.1-0.8,3.1c-4.5,0.2-8.9-0.2-13.4-0.1
			c-3.4,0-6.7,0.5-10.1,0.5c-2.7,0-5.8,0.2-8.4-0.6c-1.9-0.6-2.2-1.5-2.2-3.4C268.7,696.1,268.5,694.6,269.3,693.6"/>
	</g>
</g>
<g>
	<g>
		<defs>
			<path id="SVGID_93_" d="M261.5,686.1c-0.2,0.2-0.5,0.6-0.7,0.7c-0.7,0.6-1.5,0.8-1.7,1.7c-0.1,0.6,0,1.3,0.5,1.7l-0.3,0.6
				c-0.3,0.1-1,0.8-1.3,1.2c-0.2,0.3-0.1,0.7-0.3,1.1c-0.1,0.2-0.4,0.3-0.5,0.5c-0.8,1.2-0.7,2.7,0.5,3.6c0.6,0.4,0.9,0.4,1.1,0.9
				c0.3,0.6,0,1.1,0.5,1.7c1.3,1.5,3.3,0.6,4.8,0.5c0.6,0,1.3,0.2,2,0.4c1.4,0.5,2.8,0.9,3.9-0.6c1,0.3,2.5,0.6,3.3-0.3
				c0.3-0.3,0.2-0.8,0.4-1c0.3-0.3,0.6-0.3,0.9-0.7c0.1-0.1-0.1-0.5,0-0.6c0.1-0.2,0.3-0.3,0.4-0.4c0.8-1.1,1.6-1.7,1.1-3.2
				c-0.1-0.4-0.4-1-0.6-1.4c-0.3-0.6-0.7-1.4-1.5-0.8c-0.5-0.9-1.1-1.6-1.2-2.5c-0.1-1-0.2-2-1.3-2.5c-0.3-0.1-0.5-0.1-0.8,0
				c-0.2,0-0.4,0-0.5,0s-0.4-0.3-0.6-0.4c-0.7-0.2-1.7-0.1-1.9,0.8c-0.4-0.6-1.3-1-2.1-1c0.1-0.8-0.5-1.1-1.3-1.1
				C263.3,685.2,262,685.8,261.5,686.1"/>
		</defs>
		<clipPath id="SVGID_94_">
			<use xlink:href="#SVGID_93_"  style="overflow:visible;"/>
		</clipPath>
		
			<linearGradient id="SVGID_95_" gradientUnits="userSpaceOnUse" x1="-121.1688" y1="45.9336" x2="-120.1688" y2="45.9336" gradientTransform="matrix(-19.3652 0 0 19.3652 -2070.4939 -196.1137)">
			<stop  offset="0" style="stop-color:#979E32"/>
			<stop  offset="0.9761" style="stop-color:#5B782D"/>
			<stop  offset="1" style="stop-color:#59772C"/>
		</linearGradient>
		<rect x="256.3" y="685.2" class="st39" width="20.1" height="16.4"/>
	</g>
</g>
<g>
	<g>
		<defs>
			<rect id="SVGID_96_" x="-77" y="-38.2" width="595.3" height="841.9"/>
		</defs>
		<clipPath id="SVGID_97_">
			<use xlink:href="#SVGID_96_"  style="overflow:visible;"/>
		</clipPath>
		<path class="st40" d="M212.2,684c0-1,0.7-1.6,1.3-2.3c0.2-0.3,0.3-0.6,0.6-0.8c0.2-0.1,0.5-0.1,0.6-0.2c0.6-0.5,1-1.3,2.2-1.3
			c0.8,0,1.2,0.3,1.8,0.6c0.4,0.2,0.5,0.2,0.9,0.4c1,0.4,2,0.7,2.5,1.8c0.1,0.2,0.1,0.6,0.2,0.8s0.5,0.2,0.6,0.3c0.2,0.4,0,1,0,1.4
			c0.4,0.1,1.1-0.1,1.5,0.1c0.6,0.4,0.5,1.6,1,2c0.7,0.5,2.1-0.2,2.9-0.2c0.8-0.1,1.6,0,2.3,0c0-0.6,0.2-1.3,0.3-2
			c0.3,0,0.7,0,1-0.2c0-0.6-0.2-1.8,0.3-2.3c0.4-0.5,1.1-0.4,1.6-0.5c-0.4-1.2-0.5-2.6,0.5-3.5c0.6-0.5,0.6-0.4,1-1.1
			c0.2-0.4,0.5-0.7,0.7-1c0.7-0.8,1.3-1.1,2.3-1.1c1.2-0.1,2.5,0.4,3,1.6c0.9-0.1,1.2-0.2,1.9,0.2c0.2,0.2,0.7,0.7,0.8,0.9
			c0.2,0.3,0.2,0.9,0.4,1.1c0.3,0.4,0.7,0.2,0.9,0.8c0.2,0.5,0,1.1,0.1,1.5c0.2,0.6,0.4,0.4,0.4,1.1c0,0.5,0.1,0.7,0.2,1.1
			c0,0.2-0.1,0.7,0,0.8c0.3,0.3,1.2,0,1.6,0.2c0.7,0.2,1.4,1,1.6,1.6l0.9,2.1c0,0.4,0.3,1.4,0.1,1.8c-0.3,0.5-1.9,0.2-2.4,0.2
			c-6.8,0-13.7,0.1-20.6-0.1c-2.3-0.1-4.7-0.1-6.9-0.7c-1.5-0.4-2.8-0.9-4.3-1c-1.3-0.1-2.5,0.1-3.2-1.1c-0.4-0.6-0.1-1-0.3-1.6
			C212.6,684.9,212.3,684.7,212.2,684"/>
	</g>
	<g>
		<defs>
			<rect id="SVGID_98_" x="-77" y="-38.2" width="595.3" height="841.9"/>
		</defs>
		<clipPath id="SVGID_99_">
			<use xlink:href="#SVGID_98_"  style="overflow:visible;"/>
		</clipPath>
		<path class="st41" d="M233.7,684.2c-1.4-1.8-0.4-1.7,1.2-1.8c0-1,0.3-1.9,0.5-2.7c0.1-0.3-0.1-0.6,0-0.9c0.2-0.7,0.7-0.7,1.1-1.1
			c0.1-0.1,0.1-0.5,0.2-0.5c0.5-0.4,1-0.3,1.5-0.3c0.3,0,0.8-0.1,1.1,0.1c0.3,0.2,0.4,0.7,0.6,0.9c0.5,0.4,1.1,0.1,1.7,0.2
			c2.1,0.3,2.2,1.8,2.6,3.4c-1.4-0.9-2.7-2.7-4.6-2.2c-0.4,0.1-0.6,0.4-0.8,0.5c-0.3,0.1-0.6-0.1-0.9,0c-0.5,0.2-0.6,0.9-0.7,1.4
			c1.9-0.7,2.6-1.1,4.5-0.2c1.2,0.6,2.2,1.7,2.6,2.9c-1.4-0.1-2.4-1-3.5,0.3c0.8,0,1.7-0.2,2.4,0c0.4,0.1,0.7,0.4,1.1,0.5
			c0.9,0.2,1.6-0.2,2.4,0.5c0.3,0.3,0.7,0.7,0.7,1.2c-0.1,1.5-2.9,0.2-3.9,0.1c-1.9-0.2-3.7,0.4-5.6,0.5c-1.8,0.1-3.7-0.1-5.5-0.1
			v-0.5C232.4,685.5,232.8,684.3,233.7,684.2"/>
	</g>
	<g>
		<defs>
			<rect id="SVGID_100_" x="-77" y="-38.2" width="595.3" height="841.9"/>
		</defs>
		<clipPath id="SVGID_101_">
			<use xlink:href="#SVGID_100_"  style="overflow:visible;"/>
		</clipPath>
		<path class="st42" d="M214.9,682.7c0.2-0.3,0.4-0.3,0.6-0.5c0.2-0.3,0.1-0.6,0.4-0.8s1.4-0.4,1.8-0.4c0.8,0,1.6,0.6,2.3,1
			c1.1,0.7,2.1,1.2,1.3,2.6c-1.7-1-2.7-1.5-4.7-1c-0.8,0.2-1.5,0.3-2.3,0.3l-0.6-0.1C213.5,683,214.1,682.4,214.9,682.7"/>
	</g>
</g>
<g>
	<g>
		<defs>
			<path id="SVGID_102_" d="M195,679c-0.7,0.5-0.8,1-0.8,1.8c-0.4,0-1.7-0.1-1.7,0.6c-0.8,0.1-1.1,0.7-1.1,1.4
				c-0.8,0.3-1.2,1.1-0.5,1.7c0.4,0.4,0.4,0.3,0.5,0.8c-0.4-0.1-1.4,0.1-1.3,0.6c-0.8-0.8-3.1,0.8-3.4,2.8l-1.5,1.2
				c-1.2,0.8,1.6,2.3,2.2,3.1c0.2,0.3,0.4,0.6,0.5,0.9c0,0.3-0.1,0.6-0.1,0.9c0,1.5,2.3,1.8,3.5,1.8c0.3,0,0.6,0,0.9,0
				c0.6,0,1.1-0.1,1.6,0.1c0.7,0.3,1.3,0.8,2.1,1c0.9,0.2,1.9,0.2,2.8,0.1c0.8-0.1,1.8-0.1,2.5-0.6c0.1-0.1,0.3-0.4,0.4-0.5
				c0.3-0.2,1.1-0.1,1.4-0.2c0.6-0.2,1.2-0.4,1.8-0.8c0.3-0.2,0.8-0.7,0.7-1.1c0.7-0.5,1.6-0.7,2.1-1.4c0.4-0.6,0.3-1.4,0.1-2
				c-0.2-0.4-0.5-0.8-0.3-1.2c0.2-0.5,0.9-0.7,1.1-1.2c0.3-0.7-0.1-1.5-0.2-2.2c-0.1-0.6-0.3-1.1-1-1.2c-0.4-0.1-1-0.1-1.3,0.2
				c-0.2-0.7-1.9-0.2-2.2,0.2c0.1-0.3,0.1-0.7,0-0.9c-0.2-0.8-0.8-0.8-1.4-1c0-1.1-1.7-0.6-2.3-0.3c0.1-0.6,0.2-1.1,0.1-1.7
				c-0.1-0.7-0.6-0.9-1-1.3c0.6-0.5,0.1-1.3-0.5-1.5c-0.5-0.2-1.1-0.1-1.6-0.3c-0.2-0.1-0.4-0.1-0.6-0.1
				C195.7,678.6,195.4,678.8,195,679"/>
		</defs>
		<clipPath id="SVGID_103_">
			<use xlink:href="#SVGID_102_"  style="overflow:visible;"/>
		</clipPath>
		
			<linearGradient id="SVGID_104_" gradientUnits="userSpaceOnUse" x1="-120.8342" y1="45.5278" x2="-119.8342" y2="45.5278" gradientTransform="matrix(-22.8984 0 0 22.8984 -2558.9163 -354.2143)">
			<stop  offset="0" style="stop-color:#C6C991"/>
			<stop  offset="0.619" style="stop-color:#99A651"/>
			<stop  offset="1" style="stop-color:#7E932A"/>
		</linearGradient>
		<rect x="183.9" y="678.6" class="st43" width="24.4" height="19.4"/>
	</g>
</g>
<g>
	<g>
		<defs>
			<rect id="SVGID_105_" x="-77" y="-38.2" width="595.3" height="841.9"/>
		</defs>
		<clipPath id="SVGID_106_">
			<use xlink:href="#SVGID_105_"  style="overflow:visible;"/>
		</clipPath>
		<rect x="342.3" y="687.9" class="st44" width="0.9" height="4.9"/>
	</g>
	<g>
		<defs>
			<rect id="SVGID_107_" x="-77" y="-38.2" width="595.3" height="841.9"/>
		</defs>
		<clipPath id="SVGID_108_">
			<use xlink:href="#SVGID_107_"  style="overflow:visible;"/>
		</clipPath>
		<polygon class="st45" points="342.3,691.1 342.3,692.8 341,691.1 		"/>
	</g>
	<g>
		<defs>
			<rect id="SVGID_109_" x="-77" y="-38.2" width="595.3" height="841.9"/>
		</defs>
		<clipPath id="SVGID_110_">
			<use xlink:href="#SVGID_109_"  style="overflow:visible;"/>
		</clipPath>
		<rect x="263.4" y="678.4" class="st46" width="0.3" height="17"/>
	</g>
</g>
<g>
	<g>
		<defs>
			<path id="SVGID_111_" d="M253.7,688.2c-1.3,0.1-1.8,0.4-2.5,1.4l-1.2,1.8c-0.1-0.2-0.2-0.2-0.4-0.2c-0.6,0.9-1,1.7-1.3,2.6
				c-0.3,1.1-1.3,2.5-0.8,3.6c0.7,1.8,3.5,1.4,5,1.9c1.6,0.6,2.9,1.1,4.6,1.2c1.5,0.1,4.9,0.7,6.2-0.7c0.5-0.6,0.1-1,0.5-1.6
				c0.4-0.7,1.5-0.4,1.3-1.5c2-0.5,0.3-3.1-0.3-4c-0.3-0.5-0.4-1-0.7-1.5c-0.3-0.6-2-1.5-2.3-0.9c-0.3-1.4-2-1.2-3.1-0.7
				c-0.6,0.3-0.9,1-1.7,0.5l-0.2-0.7c-0.3-0.4-0.7-0.8-1.1-1.1c-0.4-0.2-0.7-0.2-1-0.2C254.1,688.2,253.9,688.2,253.7,688.2"/>
		</defs>
		<clipPath id="SVGID_112_">
			<use xlink:href="#SVGID_111_"  style="overflow:visible;"/>
		</clipPath>
		
			<linearGradient id="SVGID_113_" gradientUnits="userSpaceOnUse" x1="-120.8451" y1="47.7001" x2="-119.8451" y2="47.7001" gradientTransform="matrix(-13.2176 4.0505 4.0505 13.2176 -1522.7327 550.385)">
			<stop  offset="0" style="stop-color:#C8B82C"/>
			<stop  offset="0.619" style="stop-color:#798429"/>
			<stop  offset="1" style="stop-color:#4D6A26"/>
		</linearGradient>
		<polygon class="st47" points="265.2,682.6 243.3,689.3 248.7,706.8 270.5,700.1 		"/>
	</g>
</g>
<g>
	<g>
		<defs>
			<path id="SVGID_114_" d="M68.3,669.9c-1.2,0.5-2.4,1-3.6,1.6c-1.6,0.7-2.1,1.6-2.7,3.2c-0.3,0.8,0.2,0.3-0.8,0.8
				c-0.7,0.3-1.5,0.3-2,1c-0.7,0.9,0.1,1.3,0.2,2.1c0.1,0.4-0.2,0.5,0,1c0.1,0.3,0.5,0.5,0.6,0.8c0.5,0.8,0.6,0.1-0.1,1
				c-0.3,0.4-0.7,0.5-0.4,1.2c0.5,1.3,2.4,0.9,3.1,1.8c0.4,0.5,0,0.6-0.4,1.2c-0.9,1.3-0.8,2.1,1,2.4c-1.8,0.8-4.5,1.4-5.2,3.5
				c-0.1,0.3,0,0.7-0.1,1c-0.2,0.5-0.6,0.9-0.6,1.5c0,0.4,0.4,0.6,0.3,0.9c-0.1,0.5-0.5,0.5-0.7,0.9c-0.7,1-0.5,1.1-0.2,2.1
				c0.3,1.3,1.3,1.9,2.3,2.9c1.9,1.7,5.2,1.3,7.8,1.5c3.2,0.2,6.4,0.7,9.6,0.4c2.9-0.3,5.9-0.2,8.8-0.5c1.8-0.2,3.5-0.1,4.5-1.9
				c0.3-0.5,0.3-1.1,0.8-1.4c0.2-0.1,0.5-0.1,0.9-0.1s0.7,0,1-0.2c0.1-0.1,0.3-0.5,0.5-0.6c0.5-0.4,1.3-0.5,1.6-1.2
				c0.4-0.9-0.2-2.2-0.5-3c-0.5-1.5-1.3-2.3-2.9-2.3c-1.1,0-2.8,0.4-2-0.8c0.4-0.5,1.7-0.8,2.2-1.3c0.4-0.4,0.8-0.9,1-1.5
				c0.1-0.3,0.2-0.5,0.1-0.8c-0.3-1.3-2.1-2.1-3.2-1.6c-0.4-1.5-2.4,0.1-3,0.5c-0.3-1-1-0.6-0.7-1.6c0.2-0.7,1.1-1.3,1.4-2.1
				c0.1-0.3,0.2-0.7,0.2-1.1c0-0.5,0.3-0.5,0-1c-0.4-0.6-1.9-0.6-2.8-0.6c-0.3,0-0.5,0-0.6,0c0-0.8,1.5-0.8,2.5-0.7
				c0.3,0,0.6,0,0.8,0c-0.2-0.2-0.2-0.7-0.4-0.9c-0.9-0.9-2.7-0.7-3.9-0.9c0.7-1,1.4-2.4,0.5-3.7c-1.2-1.8-4.8-0.9-6.4-0.2
				c0.2-1.2-1.7-1.9-2.6-1.9c0.2,0-0.5-1.2-0.6-1.3c-0.4-0.4-0.9-0.5-1.4-0.6c-0.2,0-0.4,0-0.6,0C70.4,669.2,69.3,669.5,68.3,669.9"
				/>
		</defs>
		<clipPath id="SVGID_115_">
			<use xlink:href="#SVGID_114_"  style="overflow:visible;"/>
		</clipPath>
		
			<linearGradient id="SVGID_116_" gradientUnits="userSpaceOnUse" x1="-119.9042" y1="45.4558" x2="-118.9042" y2="45.4558" gradientTransform="matrix(-26.9729 8.2657 8.2657 26.9729 -3513.3652 444.6419)">
			<stop  offset="0" style="stop-color:#C8B82C"/>
			<stop  offset="0.619" style="stop-color:#798429"/>
			<stop  offset="1" style="stop-color:#4D6A26"/>
		</linearGradient>
		<polygon class="st48" points="91.6,658.4 46.8,672.1 59.6,713.7 104.3,700 		"/>
	</g>
</g>
<g>
	<g>
		<defs>
			<rect id="SVGID_117_" x="-77" y="-38.2" width="595.3" height="841.9"/>
		</defs>
		<clipPath id="SVGID_118_">
			<use xlink:href="#SVGID_117_"  style="overflow:visible;"/>
		</clipPath>
		<rect x="36.3" y="683.4" class="st49" width="0.3" height="17.3"/>
	</g>
	<g>
		<defs>
			<rect id="SVGID_119_" x="-77" y="-38.2" width="595.3" height="841.9"/>
		</defs>
		<clipPath id="SVGID_120_">
			<use xlink:href="#SVGID_119_"  style="overflow:visible;"/>
		</clipPath>
		<rect x="-12.9" y="683.4" class="st50" width="0.3" height="18.6"/>
	</g>
</g>
<rect x="223.1" y="693.2" class="st51" width="30.1" height="9.6"/>
<rect x="223.1" y="693.2" class="st52" width="30.1" height="1"/>
<rect x="226" y="685.7" class="st53" width="27.7" height="7.7"/>
<rect x="199.9" y="691.1" class="st51" width="26.7" height="9.6"/>
<rect x="199.9" y="691.1" class="st52" width="26.7" height="1"/>
<polygon class="st54" points="198.9,691.2 226.1,691.2 226.1,682.9 207.1,682.9 "/>
<rect x="225.2" y="683.1" class="st55" width="0.8" height="7.9"/>
<rect x="226" y="682.5" class="st56" width="0.7" height="8.9"/>
<g>
	<g>
		<defs>
			<path id="SVGID_121_" d="M207.7,687.4c-0.9-1.1-1.5,0.8-1.8,1.5c-0.2-0.5-0.9-0.6-1.4-0.4c-0.6,0.3-0.4,0.9-0.4,1.5
				c-0.6,0-0.8,0.1-0.9,0.8c0,0.2,0.1,0.3-0.1,0.5c-0.1,0-0.1,0-0.2-0.1c-0.1,0-0.1-0.1-0.1-0.1c-0.6,0.1-0.5,0.8-0.8,1.2
				c-0.2,0.4-0.5,0.4-0.5,1c0,0.7,0.3,0.9,0.9,1.1c0,0.5-0.4,1.3,0.4,1.5c-0.1,0.6,0.2,0.6,0.5,0.6c0.1,0,0.3,0,0.4,0
				c0.3,0.1,0.6,0.6,0.7,0.9l0.4,0.7c0.3,0.4,0.8,0.5,1.2,0.7c0.5,0.1,0.9,0.3,1.4,0.4c0.4,0,0.9,0,1.3-0.1c0.3-0.1,0.7-0.4,1-0.5
				c0.4,0,0.7,0.3,1.1,0.4c0.8,0.3,1.8,0.2,2.4-0.4l0.2-0.4c0.2-0.1,0.8-0.1,1-0.1c1.2-0.2,2.6-1.1,1.9-2.4c0.9-0.5,1.5-1.6,0.4-2.3
				c0.2-0.4-0.2-1.2-0.3-1.6c-0.3-1.1-1.1-0.6-1.9-0.5c-0.1-0.2,0-0.3-0.1-0.5c-0.1-0.3-0.2-0.6-0.4-0.8c-0.2-0.2-0.5-0.2-0.6-0.4
				c-0.2-0.2-0.1-0.5-0.3-0.7c-0.3-0.3-0.7-0.3-1.1-0.3h-0.1c0.1-1.3-1.1-0.4-1.8-0.3c-0.1-0.6,0.2-0.8-0.4-1.2
				c-0.3-0.2-0.6-0.3-0.9-0.3C208.3,686.6,207.9,686.9,207.7,687.4"/>
		</defs>
		<clipPath id="SVGID_122_">
			<use xlink:href="#SVGID_121_"  style="overflow:visible;"/>
		</clipPath>
		
			<linearGradient id="SVGID_123_" gradientUnits="userSpaceOnUse" x1="-121.6806" y1="46.5315" x2="-120.6806" y2="46.5315" gradientTransform="matrix(-15.668 0 0 15.668 -1689.3621 -36.2558)">
			<stop  offset="0" style="stop-color:#979E32"/>
			<stop  offset="0.9761" style="stop-color:#5B782D"/>
			<stop  offset="1" style="stop-color:#59772C"/>
		</linearGradient>
		<rect x="201.4" y="686.4" class="st57" width="16.3" height="12.8"/>
	</g>
</g>
<g>
	<g>
		<defs>
			<path id="SVGID_124_" d="M180.1,686.1c-0.1-0.1-0.3-0.7-0.5-0.8c-0.6-0.2-1.6,0.8-1.8,1.2c-0.6,0.9-0.3,1.9-0.8,2.7
				c0,0-0.1,0-0.2,0h-0.1c0,0.1,0,0.3,0,0.4c-1-1.4-1.7,1.4-2.1,1.8c-0.4,0.4-0.7,0.3-0.9,1c-0.2,0.5,0,1.2,0.1,1.7l0.3,2.9
				c0.7,0,1.3,0.1,2,0.2c1.8,0.3,3.8,0.5,5.6,0.2c0.9-0.2,1.6-0.4,2.5-0.4c1.5-0.1,3.1,0.2,4.7,0.4c1.9,0.3,3.8,0.5,5.7,0.3
				c1.2-0.2,1.8-1.4,0.5-2.1c0.9-0.7,0.7-1.5-0.1-2.3c0.3-1.2-4.4-4.7-5-3.4c-0.1-1.4-2.4,0.4-2.9,0.5c-0.8-0.8-0.1-1.4-0.2-2.2
				c-0.1-1.3-1.6-2.2-2.7-2.6c-0.2-0.1-1.2-0.2-2.2-0.2C181,685.2,180,685.4,180.1,686.1"/>
		</defs>
		<clipPath id="SVGID_125_">
			<use xlink:href="#SVGID_124_"  style="overflow:visible;"/>
		</clipPath>
		
			<linearGradient id="SVGID_126_" gradientUnits="userSpaceOnUse" x1="-120.8945" y1="45.6018" x2="-119.8945" y2="45.6018" gradientTransform="matrix(-22.1694 0 0 22.1694 -2484.3328 -319.4143)">
			<stop  offset="0" style="stop-color:#678039"/>
			<stop  offset="0.2184" style="stop-color:#5E7832"/>
			<stop  offset="0.6925" style="stop-color:#4F6B27"/>
			<stop  offset="1" style="stop-color:#4A6623"/>
		</linearGradient>
		<rect x="173.5" y="685.2" class="st58" width="22.9" height="12.7"/>
	</g>
</g>
<g>
	<g>
		<defs>
			<rect id="SVGID_127_" x="-77" y="-38.2" width="595.3" height="841.9"/>
		</defs>
		<clipPath id="SVGID_128_">
			<use xlink:href="#SVGID_127_"  style="overflow:visible;"/>
		</clipPath>
		<path class="st59" d="M137.5,678.3c0-0.5-0.4-0.4-0.4-0.9s0.5-0.5,0.6-0.8c0.2-0.4-0.1-0.9,0.3-1.2c0.4-0.3,0.7-0.2,1.1-0.5
			c0.6-0.5,1-1,1.8-0.9s0.5,0.7,1,1s1.2-0.4,1.8-0.3c0.7,0.1,0.6,0.5,0.9,1c0.1,0.1,0,0.3,0.1,0.4c0.4,0.4,1.4,0.5,1.9,0.8
			s0.4,0.5,0.7,0.8c0.5,0.4,1,0.1,1.3,0.7c0.2,0.3,0.1,0.8,0.1,1.2c0,0.6,0.1,1-0.4,1.3c-1,0.6-3.4-0.6-4.4-0.7
			c-1.9-0.3-3.8,0.2-5.7,0.2c-0.7,0-1.3,0-2,0v-0.9C136.2,678.8,136.7,678.2,137.5,678.3"/>
	</g>
	<g>
		<defs>
			<rect id="SVGID_129_" x="-77" y="-38.2" width="595.3" height="841.9"/>
		</defs>
		<clipPath id="SVGID_130_">
			<use xlink:href="#SVGID_129_"  style="overflow:visible;"/>
		</clipPath>
		<path class="st60" d="M138.6,678.6c0-0.4-0.1-1-0.1-1.3c-0.1-1.1-0.1-1,0.7-1.5c0.4-0.2,0.8-0.8,1.4-0.5c0.3,0.1,0.2,0.4,0.5,0.6
			c0.4,0.2,0.6,0.1,1,0.1c0.3,0,1.1-0.3,1.3-0.1c0.3,0.2,0.1,0.6,0.3,0.8c0.5,0.9,1.7,0.4,2.4,1.1c0.2,0.2,0.1,0.4,0.4,0.6
			c0.3,0.2,0.9,0.2,1.1,0.6c0.3,0.5-0.2,1-0.4,1.4c-2.3-0.1-4.5-0.7-6.8-0.7c-0.7,0-1.6-0.2-2.3,0.1l-0.7-0.4
			C137.9,679,138.2,678.7,138.6,678.6"/>
	</g>
	<g>
		<defs>
			<rect id="SVGID_131_" x="-77" y="-38.2" width="595.3" height="841.9"/>
		</defs>
		<clipPath id="SVGID_132_">
			<use xlink:href="#SVGID_131_"  style="overflow:visible;"/>
		</clipPath>
		<rect x="131.3" y="688.8" class="st61" width="35.2" height="13.2"/>
	</g>
	<g>
		<defs>
			<rect id="SVGID_133_" x="-77" y="-38.2" width="595.3" height="841.9"/>
		</defs>
		<clipPath id="SVGID_134_">
			<use xlink:href="#SVGID_133_"  style="overflow:visible;"/>
		</clipPath>
		<rect x="131.3" y="688.8" class="st62" width="35.2" height="0.8"/>
	</g>
	<g>
		<defs>
			<rect id="SVGID_135_" x="-77" y="-38.2" width="595.3" height="841.9"/>
		</defs>
		<clipPath id="SVGID_136_">
			<use xlink:href="#SVGID_135_"  style="overflow:visible;"/>
		</clipPath>
		<rect x="130.9" y="679" class="st63" width="36" height="9.9"/>
	</g>
	<g>
		<defs>
			<rect id="SVGID_137_" x="-77" y="-38.2" width="595.3" height="841.9"/>
		</defs>
		<clipPath id="SVGID_138_">
			<use xlink:href="#SVGID_137_"  style="overflow:visible;"/>
		</clipPath>
		<rect x="153.4" y="678.9" class="st64" width="4" height="1.2"/>
	</g>
	<g>
		<defs>
			<rect id="SVGID_139_" x="-77" y="-38.2" width="595.3" height="841.9"/>
		</defs>
		<clipPath id="SVGID_140_">
			<use xlink:href="#SVGID_139_"  style="overflow:visible;"/>
		</clipPath>
		<rect x="153.8" y="675.1" class="st65" width="3.2" height="4.6"/>
	</g>
	<g>
		<defs>
			<rect id="SVGID_141_" x="-77" y="-38.2" width="595.3" height="841.9"/>
		</defs>
		<clipPath id="SVGID_142_">
			<use xlink:href="#SVGID_141_"  style="overflow:visible;"/>
		</clipPath>
		<rect x="160.3" y="688.9" class="st66" width="0.6" height="0.7"/>
	</g>
	<g>
		<defs>
			<rect id="SVGID_143_" x="-77" y="-38.2" width="595.3" height="841.9"/>
		</defs>
		<clipPath id="SVGID_144_">
			<use xlink:href="#SVGID_143_"  style="overflow:visible;"/>
		</clipPath>
		<rect x="160.3" y="689.6" class="st67" width="0.6" height="1"/>
	</g>
	<g>
		<defs>
			<rect id="SVGID_145_" x="-77" y="-38.2" width="595.3" height="841.9"/>
		</defs>
		<clipPath id="SVGID_146_">
			<use xlink:href="#SVGID_145_"  style="overflow:visible;"/>
		</clipPath>
		<rect x="159.3" y="688.9" class="st68" width="0.6" height="0.7"/>
	</g>
	<g>
		<defs>
			<rect id="SVGID_147_" x="-77" y="-38.2" width="595.3" height="841.9"/>
		</defs>
		<clipPath id="SVGID_148_">
			<use xlink:href="#SVGID_147_"  style="overflow:visible;"/>
		</clipPath>
		<rect x="159.3" y="689.6" class="st69" width="0.6" height="1"/>
	</g>
	<g>
		<defs>
			<rect id="SVGID_149_" x="-77" y="-38.2" width="595.3" height="841.9"/>
		</defs>
		<clipPath id="SVGID_150_">
			<use xlink:href="#SVGID_149_"  style="overflow:visible;"/>
		</clipPath>
		<rect x="158.4" y="688.9" class="st70" width="0.6" height="0.7"/>
	</g>
	<g>
		<defs>
			<rect id="SVGID_151_" x="-77" y="-38.2" width="595.3" height="841.9"/>
		</defs>
		<clipPath id="SVGID_152_">
			<use xlink:href="#SVGID_151_"  style="overflow:visible;"/>
		</clipPath>
		<rect x="158.4" y="689.6" class="st71" width="0.6" height="1"/>
	</g>
	<g>
		<defs>
			<rect id="SVGID_153_" x="-77" y="-38.2" width="595.3" height="841.9"/>
		</defs>
		<clipPath id="SVGID_154_">
			<use xlink:href="#SVGID_153_"  style="overflow:visible;"/>
		</clipPath>
		<rect x="160.3" y="693.8" class="st72" width="0.6" height="2.1"/>
	</g>
	<g>
		<defs>
			<rect id="SVGID_155_" x="-77" y="-38.2" width="595.3" height="841.9"/>
		</defs>
		<clipPath id="SVGID_156_">
			<use xlink:href="#SVGID_155_"  style="overflow:visible;"/>
		</clipPath>
		<rect x="158.4" y="693.4" class="st73" width="2.5" height="0.4"/>
	</g>
	<g>
		<defs>
			<rect id="SVGID_157_" x="-77" y="-38.2" width="595.3" height="841.9"/>
		</defs>
		<clipPath id="SVGID_158_">
			<use xlink:href="#SVGID_157_"  style="overflow:visible;"/>
		</clipPath>
		<rect x="159.3" y="693.8" class="st74" width="0.6" height="2.1"/>
	</g>
	<g>
		<defs>
			<rect id="SVGID_159_" x="-77" y="-38.2" width="595.3" height="841.9"/>
		</defs>
		<clipPath id="SVGID_160_">
			<use xlink:href="#SVGID_159_"  style="overflow:visible;"/>
		</clipPath>
		<rect x="158.4" y="693.8" class="st75" width="0.6" height="2.1"/>
	</g>
	<g>
		<defs>
			<rect id="SVGID_161_" x="-77" y="-38.2" width="595.3" height="841.9"/>
		</defs>
		<clipPath id="SVGID_162_">
			<use xlink:href="#SVGID_161_"  style="overflow:visible;"/>
		</clipPath>
		<rect x="148.1" y="688.9" class="st76" width="0.6" height="0.7"/>
	</g>
	<g>
		<defs>
			<rect id="SVGID_163_" x="-77" y="-38.2" width="595.3" height="841.9"/>
		</defs>
		<clipPath id="SVGID_164_">
			<use xlink:href="#SVGID_163_"  style="overflow:visible;"/>
		</clipPath>
		<rect x="148.1" y="689.6" class="st77" width="0.6" height="1"/>
	</g>
	<g>
		<defs>
			<rect id="SVGID_165_" x="-77" y="-38.2" width="595.3" height="841.9"/>
		</defs>
		<clipPath id="SVGID_166_">
			<use xlink:href="#SVGID_165_"  style="overflow:visible;"/>
		</clipPath>
		<rect x="147.1" y="688.9" class="st78" width="0.6" height="0.7"/>
	</g>
	<g>
		<defs>
			<rect id="SVGID_167_" x="-77" y="-38.2" width="595.3" height="841.9"/>
		</defs>
		<clipPath id="SVGID_168_">
			<use xlink:href="#SVGID_167_"  style="overflow:visible;"/>
		</clipPath>
		<rect x="147.1" y="689.6" class="st79" width="0.6" height="1"/>
	</g>
	<g>
		<defs>
			<rect id="SVGID_169_" x="-77" y="-38.2" width="595.3" height="841.9"/>
		</defs>
		<clipPath id="SVGID_170_">
			<use xlink:href="#SVGID_169_"  style="overflow:visible;"/>
		</clipPath>
		<rect x="146.2" y="688.9" class="st80" width="0.6" height="0.7"/>
	</g>
	<g>
		<defs>
			<rect id="SVGID_171_" x="-77" y="-38.2" width="595.3" height="841.9"/>
		</defs>
		<clipPath id="SVGID_172_">
			<use xlink:href="#SVGID_171_"  style="overflow:visible;"/>
		</clipPath>
		<rect x="146.2" y="689.6" class="st81" width="0.6" height="1"/>
	</g>
	<g>
		<defs>
			<rect id="SVGID_173_" x="-77" y="-38.2" width="595.3" height="841.9"/>
		</defs>
		<clipPath id="SVGID_174_">
			<use xlink:href="#SVGID_173_"  style="overflow:visible;"/>
		</clipPath>
		<rect x="148.1" y="693.8" class="st82" width="0.6" height="2.1"/>
	</g>
	<g>
		<defs>
			<rect id="SVGID_175_" x="-77" y="-38.2" width="595.3" height="841.9"/>
		</defs>
		<clipPath id="SVGID_176_">
			<use xlink:href="#SVGID_175_"  style="overflow:visible;"/>
		</clipPath>
		<rect x="146.2" y="693.4" class="st83" width="2.5" height="0.4"/>
	</g>
	<g>
		<defs>
			<rect id="SVGID_177_" x="-77" y="-38.2" width="595.3" height="841.9"/>
		</defs>
		<clipPath id="SVGID_178_">
			<use xlink:href="#SVGID_177_"  style="overflow:visible;"/>
		</clipPath>
		<rect x="147.1" y="693.8" class="st84" width="0.6" height="2.1"/>
	</g>
	<g>
		<defs>
			<rect id="SVGID_179_" x="-77" y="-38.2" width="595.3" height="841.9"/>
		</defs>
		<clipPath id="SVGID_180_">
			<use xlink:href="#SVGID_179_"  style="overflow:visible;"/>
		</clipPath>
		<rect x="146.2" y="693.8" class="st85" width="0.6" height="2.1"/>
	</g>
	<g>
		<defs>
			<rect id="SVGID_181_" x="-77" y="-38.2" width="595.3" height="841.9"/>
		</defs>
		<clipPath id="SVGID_182_">
			<use xlink:href="#SVGID_181_"  style="overflow:visible;"/>
		</clipPath>
		<rect x="135.5" y="688.9" class="st86" width="0.6" height="0.7"/>
	</g>
	<g>
		<defs>
			<rect id="SVGID_183_" x="-77" y="-38.2" width="595.3" height="841.9"/>
		</defs>
		<clipPath id="SVGID_184_">
			<use xlink:href="#SVGID_183_"  style="overflow:visible;"/>
		</clipPath>
		<rect x="135.5" y="689.6" class="st87" width="0.6" height="1"/>
	</g>
	<g>
		<defs>
			<rect id="SVGID_185_" x="-77" y="-38.2" width="595.3" height="841.9"/>
		</defs>
		<clipPath id="SVGID_186_">
			<use xlink:href="#SVGID_185_"  style="overflow:visible;"/>
		</clipPath>
		<rect x="138.5" y="688.9" class="st88" width="0.5" height="0.7"/>
	</g>
	<g>
		<defs>
			<rect id="SVGID_187_" x="-77" y="-38.2" width="595.3" height="841.9"/>
		</defs>
		<clipPath id="SVGID_188_">
			<use xlink:href="#SVGID_187_"  style="overflow:visible;"/>
		</clipPath>
		<rect x="138.5" y="689.6" class="st89" width="0.5" height="1"/>
	</g>
	<g>
		<defs>
			<rect id="SVGID_189_" x="-77" y="-38.2" width="595.3" height="841.9"/>
		</defs>
		<clipPath id="SVGID_190_">
			<use xlink:href="#SVGID_189_"  style="overflow:visible;"/>
		</clipPath>
		<rect x="139.2" y="688.9" class="st90" width="0.5" height="0.7"/>
	</g>
	<g>
		<defs>
			<rect id="SVGID_191_" x="-77" y="-38.2" width="595.3" height="841.9"/>
		</defs>
		<clipPath id="SVGID_192_">
			<use xlink:href="#SVGID_191_"  style="overflow:visible;"/>
		</clipPath>
		<rect x="139.2" y="689.6" class="st91" width="0.5" height="1"/>
	</g>
	<g>
		<defs>
			<rect id="SVGID_193_" x="-77" y="-38.2" width="595.3" height="841.9"/>
		</defs>
		<clipPath id="SVGID_194_">
			<use xlink:href="#SVGID_193_"  style="overflow:visible;"/>
		</clipPath>
		<rect x="134.6" y="688.9" class="st92" width="0.6" height="0.7"/>
	</g>
	<g>
		<defs>
			<rect id="SVGID_195_" x="-77" y="-38.2" width="595.3" height="841.9"/>
		</defs>
		<clipPath id="SVGID_196_">
			<use xlink:href="#SVGID_195_"  style="overflow:visible;"/>
		</clipPath>
		<rect x="134.6" y="689.6" class="st93" width="0.6" height="1"/>
	</g>
	<g>
		<defs>
			<rect id="SVGID_197_" x="-77" y="-38.2" width="595.3" height="841.9"/>
		</defs>
		<clipPath id="SVGID_198_">
			<use xlink:href="#SVGID_197_"  style="overflow:visible;"/>
		</clipPath>
		<rect x="133.7" y="688.9" class="st94" width="0.6" height="0.7"/>
	</g>
	<g>
		<defs>
			<rect id="SVGID_199_" x="-77" y="-38.2" width="595.3" height="841.9"/>
		</defs>
		<clipPath id="SVGID_200_">
			<use xlink:href="#SVGID_199_"  style="overflow:visible;"/>
		</clipPath>
		<rect x="133.7" y="689.6" class="st95" width="0.6" height="1"/>
	</g>
	<g>
		<defs>
			<rect id="SVGID_201_" x="-77" y="-38.2" width="595.3" height="841.9"/>
		</defs>
		<clipPath id="SVGID_202_">
			<use xlink:href="#SVGID_201_"  style="overflow:visible;"/>
		</clipPath>
		<rect x="135.5" y="693.8" class="st96" width="0.6" height="2.1"/>
	</g>
	<g>
		<defs>
			<rect id="SVGID_203_" x="-77" y="-38.2" width="595.3" height="841.9"/>
		</defs>
		<clipPath id="SVGID_204_">
			<use xlink:href="#SVGID_203_"  style="overflow:visible;"/>
		</clipPath>
		<rect x="133.7" y="693.4" class="st97" width="2.5" height="0.4"/>
	</g>
	<g>
		<defs>
			<rect id="SVGID_205_" x="-77" y="-38.2" width="595.3" height="841.9"/>
		</defs>
		<clipPath id="SVGID_206_">
			<use xlink:href="#SVGID_205_"  style="overflow:visible;"/>
		</clipPath>
		<rect x="134.6" y="693.8" class="st98" width="0.6" height="2.1"/>
	</g>
	<g>
		<defs>
			<rect id="SVGID_207_" x="-77" y="-38.2" width="595.3" height="841.9"/>
		</defs>
		<clipPath id="SVGID_208_">
			<use xlink:href="#SVGID_207_"  style="overflow:visible;"/>
		</clipPath>
		<rect x="133.7" y="693.8" class="st99" width="0.6" height="2.1"/>
	</g>
	<g>
		<defs>
			<rect id="SVGID_209_" x="-77" y="-38.2" width="595.3" height="841.9"/>
		</defs>
		<clipPath id="SVGID_210_">
			<use xlink:href="#SVGID_209_"  style="overflow:visible;"/>
		</clipPath>
		<rect x="153.8" y="675.7" class="st100" width="3.2" height="0.4"/>
	</g>
	<g>
		<defs>
			<rect id="SVGID_211_" x="-77" y="-38.2" width="595.3" height="841.9"/>
		</defs>
		<clipPath id="SVGID_212_">
			<use xlink:href="#SVGID_211_"  style="overflow:visible;"/>
		</clipPath>
		<rect x="155.7" y="673.9" class="st101" width="0.5" height="1.3"/>
	</g>
	<g>
		<defs>
			<rect id="SVGID_213_" x="-77" y="-38.2" width="595.3" height="841.9"/>
		</defs>
		<clipPath id="SVGID_214_">
			<use xlink:href="#SVGID_213_"  style="overflow:visible;"/>
		</clipPath>
		<rect x="154.7" y="674.3" class="st102" width="0.5" height="0.9"/>
	</g>
	<g>
		<defs>
			<rect id="SVGID_215_" x="-77" y="-38.2" width="595.3" height="841.9"/>
		</defs>
		<clipPath id="SVGID_216_">
			<use xlink:href="#SVGID_215_"  style="overflow:visible;"/>
		</clipPath>
		<rect x="140.3" y="693.6" class="st103" width="3.2" height="0.3"/>
	</g>
	<g>
		<defs>
			<rect id="SVGID_217_" x="-77" y="-38.2" width="595.3" height="841.9"/>
		</defs>
		<clipPath id="SVGID_218_">
			<use xlink:href="#SVGID_217_"  style="overflow:visible;"/>
		</clipPath>
		<rect x="141.5" y="694.2" class="st104" width="1.9" height="3.9"/>
	</g>
	<g>
		<defs>
			<rect id="SVGID_219_" x="-77" y="-38.2" width="595.3" height="841.9"/>
		</defs>
		<clipPath id="SVGID_220_">
			<use xlink:href="#SVGID_219_"  style="overflow:visible;"/>
		</clipPath>
		<polygon class="st105" points="153.4,679 153.4,680.1 151.5,679 		"/>
	</g>
</g>
<g>
	<g>
		<defs>
			<rect id="SVGID_221_" x="-77" y="-38.2" width="595.3" height="841.9"/>
		</defs>
		<clipPath id="SVGID_222_">
			<use xlink:href="#SVGID_221_"  style="overflow:visible;"/>
		</clipPath>
		<path class="st106" d="M63.1,697.4c0.1-0.2,0.2-0.3,0.3-0.5l1.4-0.5c0.3,0,0.4,0.3,0.6,0.4c0.5,0.2,1,0,1.5,0.2
			c0.3,0.1,0.6,0.3,0.8,0.6c0.2,0.3,0.1,0.6,0.3,0.9c0.2,0.4,0.9,0.3,1.2,0.7c1.2-1.1,4.4-2.3,5.6-0.6c0.3,0.4,0.4,0.4,0.9,0.6
			c0.3,0.1,0.5,0.2,0.8,0.3c0.2,0.1,0.4,0.2,0.5,0.3c0.3,0.1,0.5-0.1,0.9-0.2c1.4-0.2,2.7,0.3,4,0.5c0.7,0.1,1.5-0.2,2.1,0.1
			c0.3,0.1,1.1,1.1,1,1.5c-0.1,0.3-1.2,0.3-1.3,0.4c-1.9,0.2-3.9,0-5.8-0.1c-1.7,0-3.4,0.1-5,0.2c-1.7,0.1-3.4,0.3-5.1,0.3
			c-1,0-2,0-3,0c-0.4,0-1,0.1-1.4-0.1c-0.6-0.3-0.4-1.4-0.4-2C63,699.7,62.8,698.4,63.1,697.4"/>
	</g>
	<g>
		<defs>
			<rect id="SVGID_223_" x="-77" y="-38.2" width="595.3" height="841.9"/>
		</defs>
		<clipPath id="SVGID_224_">
			<use xlink:href="#SVGID_223_"  style="overflow:visible;"/>
		</clipPath>
		<path class="st107" d="M85.5,700.2c0.1-0.1,0.6-0.7,0.6-0.8c0.7-1,1.4-1.8,2.7-2.3c2.7-1.2,5.1-2.9,8.3-2.5
			c1.5,0.2,3.2,2.3,4.6,1.6c0-0.1,0-0.2,0-0.4c0.7-0.1,1.8,0.3,2.3,0.1c0.3-0.1,0.5-0.6,0.7-0.8c0.3-0.3,0.7-0.7,1.2-0.8
			s0.8,0.2,1.2,0.2s0.5-0.2,1-0.3c1.9-0.4,3,0.8,4.6,1.8c0.3,0.2,1.2,1,1.5,1.1c0.5,0.1,0.2-0.2,0.7-0.4c1-0.3,1.6-0.6,2.7-0.6
			c1.2,0,2.4,0.2,3,1.4c0.8,0,1.3-0.6,1.9-0.8c0.5-0.1,1,0.1,1.5,0c0.3-0.1,0.3-0.4,0.6-0.4c0.5-0.1,0.9,0,1.4,0
			c1.3,0,2.4-0.8,3.8-0.5c1.2,0.2,2.5,0.9,3.5,1.5v1.2c0.1,1.2,1.7,1.7,1.2,3.5c-0.2,0.8-0.3,0.7-1.2,0.8c-2,0.3-4.1,0.2-6.1,0.4
			c-7.4,0.8-15.5,1.5-22.8,0.5c-5.9-0.8-11.8-0.3-17.7-0.7c-0.7,0-1.7,0.2-2.1-0.5C83.9,701.3,84.9,700.7,85.5,700.2"/>
	</g>
	<g>
		<defs>
			<rect id="SVGID_225_" x="-77" y="-38.2" width="595.3" height="841.9"/>
		</defs>
		<clipPath id="SVGID_226_">
			<use xlink:href="#SVGID_225_"  style="overflow:visible;"/>
		</clipPath>
		<path class="st108" d="M89.1,699.3c0-1.7,1.9-1.8,3.3-1.8c0-1.2,1.9-1.5,2.8-1.5c0.9,0,1.7,0.1,2.5,0.5c0.4,0.2,0.6,0.5,1,0.7
			c0.6,0.2,1.3,0,1.9,0.1c0.5,0.1,0.7,0.4,1.3,0.4c1,0.1,1.2-0.1,2,0.4c0.6,0.4,1.1,1.2,1.8,1.6c0.1-1.7-0.6-1.7-1.8-2.5
			c0.3-0.4,2-0.8,2.6-0.9c0.4-0.1,0.8,0.1,1.3,0c0.4-0.1,0.6-0.4,1-0.4c0.8-0.1,1.6,0.1,2.4,0.4c0.9,0.3,0.8,0.5,1.3,1
			c0.4,0.4,1,0.6,1.4,1.1c0.2,0.3,0.2,1.2,0.4,1.5c1.6,1.3,0.6-1.9,0.6-2.2c0.9-0.1,1.9-0.3,2.9-0.3c0.8,0,1.2,0,1.8,0.3
			c0.4,0.2,0.5,0.8,1.1,0.9c-0.1,0.6-0.6,1.1-0.5,1.7c1.1,0.3,1.9-1.7,2.6-2.1c0.8-0.6,2,0.1,2.9,0.1c0.4,0,1.1-0.2,1.5-0.3
			c0.9-0.2,1.6-0.9,2.6-0.8c0.9,0.1,1.5,0.6,1.2,1.4c-0.4,1-2.3,1.4-1,2.9l-0.8,1c-1.6,0-3.1,0.6-4.7,0.8c-3.9,0.7-8.2,0.6-12.2,0.6
			c-4-0.1-8.1,0.1-12.1-0.5c-4.3-0.7-8.5-0.5-12.8-0.7C87,701.1,87.8,699.6,89.1,699.3"/>
	</g>
	<g>
		<defs>
			<rect id="SVGID_227_" x="-77" y="-38.2" width="595.3" height="841.9"/>
		</defs>
		<clipPath id="SVGID_228_">
			<use xlink:href="#SVGID_227_"  style="overflow:visible;"/>
		</clipPath>
		<path class="st109" d="M235.6,699.1c1.1,0,1.5-0.7,2.7-1.3c1.1-0.5,1.7-0.1,2.7-0.2c1.3-0.1,2.2-0.9,3.6-0.7
			c0.4,0.1,0.5,0.4,1.1,0.3c0.9-0.1,1.7-0.4,2.6-0.3c1.4,0.1,3.7,0.2,3.8,2v-0.3c1.8-1.4,4.2-1.2,6.2-0.5c1.3,0.4,2.3,1.3,3.4,1.7
			c0.9,0.3,1.5,0,2.5-0.3c1.5-0.4,2.6-0.1,4,0.1c1.8,0.2,3.7-0.3,5.5,0c0.5,0.1,0.9,0.4,1.3,0.4c1.4,0.1,2.8-0.6,4.2-0.6
			c2.1-0.1,3.8-1,5.9-1.1c2-0.1,4-0.1,5.9-0.1c2.3,0,4.6,0.5,6.8,1.1c0.7,0.2,1.4,0.3,2.2,0.3c1.7-0.1,3.3-0.9,5-1
			c1.5-0.1,3-0.6,4.5-0.7c0.8,0,1.5,0.3,2.3,0.4c0.9,0.1,1.7-0.2,2.7-0.3c1.8-0.1,3.7,0.2,5.4,0.7c0.9,0.3,1.8,1.1,2.7,1.3
			c1,0.2,0.7,0.1,1.8-0.4c2.2-0.8,4.4-0.9,6.5-0.2s4,0.6,4.6,3.3c-6.1,0.3-12.3-0.1-18.4-0.1c-5.3,0-10.6,0.1-15.9,0.4
			c-4.6,0.2-9.2,0.7-13.8,0.5c-3.1-0.1-6.2-0.4-9.3-0.6c-2.8-0.2-5.7,0.1-8.6-0.1c-4.4-0.2-8.8-0.1-13.2-0.1c-1.2,0-6.6,3-6.5,1.1
			c-1.1-0.2-1.4-2.2-2.5-1.9c-1.4,0.3-2.9,0.4-4.3,0.4c-1.4-0.1-2.7,0-4,0c-3.6,0-5,0.6-6.9,0.6c-0.8,0-0.7-1.5-1.4-1.5
			C230,698.8,234.2,699,235.6,699.1"/>
	</g>
	<g>
		<defs>
			<rect id="SVGID_229_" x="-77" y="-38.2" width="595.3" height="841.9"/>
		</defs>
		<clipPath id="SVGID_230_">
			<use xlink:href="#SVGID_229_"  style="overflow:visible;"/>
		</clipPath>
		<path class="st110" d="M233,701.6c0-1.2,1.1-1.4,2-1.4c0.7-0.1,1.9,0.6,2.5,0.4c0.5-0.2,0.5-1.4,1.1-1.7c0.3-0.2,0.5,0,0.9-0.1
			c0.8-0.2,1.7-0.2,2.4,0.2c0.6-0.9,2.2-0.1,3-0.1c1.9-0.2,3.8-0.8,4.8,1.1c0.2,0.4,0.7,2.3,1.5,1.8c0.9-0.7-1.3-2.3-1.2-3.1
			c0.8,0.6,1.4,1.2,2.2,0.9c0.4-0.2,0.7-0.6,1.3-0.7c0.5-0.1,1,0.1,1.5,0.1c1.2,0.1,2.7-0.4,3.6,0.7c0.5,0.5,1,1.9,1.2,2.6
			c0.7-0.7-0.2-1.5-0.3-2.2c1.1,0.2,1.8,1.4,2.9,1.3c0.9,0,2-0.8,3.2-0.8c1.3,0,2,0.3,3.2,0.5c1.3,0.2,2.7,0,4,0
			c2.6,0,5.5-0.2,8-0.9c1.3-0.3,2.6-0.8,4-0.9c1.2-0.1,1.9,0.1,3.1-0.1c1.5-0.3,3.2-0.4,4.6,0c1.8,0.5,3.7,1.3,5.6,1.7
			c2.8,0.6,4.8-1.8,7.5-2.1c2.2-0.2,4.7-0.1,6.8,0.2c2.5,0.4,5,0.1,7.3,1.1c1.9,0.8,4,1.4,6.1,0.9c1.3-0.3,2.6-0.8,4-0.3
			c0.9,0.3,1.7,0.9,2.5,1.3c-0.1,1.1-3.2,0.8-3.9,0.8c-2.8,0-5.5,0.2-8.3,0.6c-4.9,0.7-10,0.6-15,0.6c-5.2,0-10.4-0.1-15.7-0.1
			c-13.1-0.2-26.3-0.3-39.5-0.3c-5.8,0-12.1,0.7-17.6-0.9L233,701.6z"/>
	</g>
	<g>
		<defs>
			<rect id="SVGID_231_" x="-77" y="-38.2" width="595.3" height="841.9"/>
		</defs>
		<clipPath id="SVGID_232_">
			<use xlink:href="#SVGID_231_"  style="overflow:visible;"/>
		</clipPath>
		<path class="st111" d="M179.1,695c0.4-1,1.5-1.5,2.6-1.4c1.2,0.1,1.4,1.1,1.8,2.1c0.7-0.1,0.8-1.1,1.4-1.5
			c0.6-0.4,2.3-1.3,2.8-0.3c1.6-0.4,3.2-1.3,4.9-0.3c0.8,0.5,1.9,1.5,1.8,2.5c0.9-0.3,1.6-0.7,2.7-0.4c0.8,0.2,1,0.7,1.6,1.2
			c0.4,0.3,0.3,0.2,0.7,0.4c0.8,0.4,1.5,1.2,2.3,0.9c1.3-0.5,2-1.6,3.5-1.6c1.5-0.1,2.5,1.8,4.1,1.2c0.4-0.2,0.8-0.8,1.3-1
			s0.7,0,1.2-0.1c0.9-0.1,1.7-0.7,2.9-0.6c1.9,0.2,3.7,2.5,5.7,1.9c0.6-0.2,1-0.8,1.5-1.2c0.8-0.7,1.5-1,2.5-1.1
			c1.2-0.1,2.2,0.2,3.2,0.5c1.8,0.4,3.9,1.4,4.6,3.3c0.1,0.4,0.5,2.4,0,2.8H179L179.1,695L179.1,695z"/>
	</g>
	<g>
		<defs>
			<rect id="SVGID_233_" x="-77" y="-38.2" width="595.3" height="841.9"/>
		</defs>
		<clipPath id="SVGID_234_">
			<use xlink:href="#SVGID_233_"  style="overflow:visible;"/>
		</clipPath>
		<path class="st112" d="M182.3,698.1l1.3-0.6c0.1-0.5,0.6-1.1,1.1-1.3c0.6-0.4,0.6-0.1,1.2-0.2c0.2,0,0.2,0.1,0.4,0
			s0.6-0.6,0.9-0.7c0.9-0.4,2.3-0.7,3.2-0.5c1,0.2,0.6,1,1.3,1.5c1,0.7,2.7,0.5,3,2.1c0.8-0.2,1.4-0.7,2.2-0.7
			c1-0.1,1.8,0.2,2.5,0.8c0.7,0.5,1.2,1.6,2.1,1.3c0.3-0.1,0.3-0.3,0.7-0.4c0.4,0,0.9,0.3,1.1,0.6c0.3,0.4,0.2,0.9,0.5,1.2
			c0.7-0.2,0.7-1.1,0.4-1.7c-0.3-0.8-1-0.8-0.4-1.6c0.3-0.4,0.9-0.7,1.4-0.6c0.6,0.1,0.4,0.3,0.8,0.6c1,0.8,2.7,0.4,3.4,1.8
			c0.6-0.3,1.9-0.7,1.9-1.4c0.7-0.1,0.8-0.1,1.3-0.4c0.6-0.3,1-0.5,1.7-0.6c1.2,0,2.4,0.6,3,1.5c0.4,0.6,0.2,2,1.1,2.1
			c1.1,0.1,1.3-1.8,0.5-2.1c0.9-0.1,2.1,0.4,2.9-0.1c0.9-0.6,0.7-1.6,1.9-1.8c1.5-0.2,3.5-0.2,4.8,0.4c1.8,0.8,3.2,3.3,2.4,5.3
			c-5.4,0.3-10.9,0-16.4,0c-5,0-10.1,0.2-15.1,0.4c-5.9,0.3-11.9,0.9-17.8,0.5C181.7,701.7,182.2,699.9,182.3,698.1"/>
	</g>
	<g>
		<defs>
			<rect id="SVGID_235_" x="-77" y="-38.2" width="595.3" height="841.9"/>
		</defs>
		<clipPath id="SVGID_236_">
			<use xlink:href="#SVGID_235_"  style="overflow:visible;"/>
		</clipPath>
		<path class="st113" d="M65,696.6c-0.4-0.8-1.5-1.2-2.6-1.2c-1.2,0.1-1.5,0.9-1.8,1.7c-0.7-0.1-0.8-0.9-1.4-1.2
			c-0.6-0.4-2.3-1-2.8-0.2c-1.6-0.3-3.2-1-4.9-0.2c-0.8,0.4-1.9,1.2-1.8,2c-0.9-0.2-1.6-0.6-2.7-0.4c-0.8,0.2-1,0.6-1.6,0.9
			c-0.4,0.2-0.3,0.2-0.7,0.3c-0.8,0.3-1.5,0.9-2.3,0.7c-1.3-0.4-2-1.3-3.5-1.3s-2.5,1.5-4.1,1c-0.4-0.1-0.8-0.7-1.3-0.9
			s-0.7,0-1.2-0.1c-0.9-0.1-1.7-0.6-2.9-0.5c-1.9,0.1-3.7,2.1-5.7,1.5c-0.6-0.2-1-0.7-1.5-1c-0.8-0.5-1.5-0.8-2.5-0.9
			c-1.2-0.1-2.2,0.2-3.2,0.4c-1.8,0.3-3.9,1.1-4.6,2.6c-0.1,0.3-0.5,2,0,2.3H65V696.6z"/>
	</g>
	<g>
		<defs>
			<rect id="SVGID_237_" x="-77" y="-38.2" width="595.3" height="841.9"/>
		</defs>
		<clipPath id="SVGID_238_">
			<use xlink:href="#SVGID_237_"  style="overflow:visible;"/>
		</clipPath>
		<path class="st114" d="M61.7,699.2l-1.3-0.5c-0.1-0.4-0.6-0.9-1.1-1.1c-0.6-0.3-0.6-0.1-1.2-0.1c-0.2,0-0.2,0.1-0.4,0
			c-0.2-0.1-0.6-0.5-0.9-0.6c-0.9-0.3-2.3-0.6-3.2-0.4c-1,0.2-0.6,0.8-1.3,1.2c-1,0.6-2.7,0.4-3,1.7c-0.8-0.2-1.4-0.5-2.2-0.6
			c-1-0.1-1.8,0.2-2.5,0.7c-0.7,0.4-1.2,1.3-2.1,1c-0.3-0.1-0.3-0.3-0.7-0.3c-0.4,0-0.9,0.2-1.1,0.5c-0.3,0.3-0.2,0.7-0.5,1
			c-0.7-0.2-0.7-0.9-0.4-1.3c0.3-0.6,1-0.6,0.4-1.3c-0.3-0.3-0.9-0.6-1.4-0.5c-0.6,0.1-0.4,0.3-0.8,0.5c-1,0.7-2.7,0.4-3.4,1.5
			c-0.6-0.2-1.9-0.5-1.9-1.2c-0.7,0-0.8,0-1.3-0.3c-0.6-0.3-1-0.4-1.7-0.5c-1.2,0-2.4,0.5-3,1.2c-0.4,0.5-0.2,1.6-1.1,1.7
			c-1.1,0.1-1.3-1.5-0.5-1.7c-0.9-0.1-2.1,0.3-2.9-0.1c-0.8-0.5-0.7-1.3-1.9-1.4c-1.5-0.1-3.5-0.2-4.8,0.3c-1.8,0.7-3.2,2.7-2.4,4.3
			c5.4,0.2,10.9,0,16.4,0c5,0,10.1,0.1,15.1,0.3c5.9,0.3,11.9,0.7,17.8,0.4C62.4,702.1,61.9,700.6,61.7,699.2"/>
	</g>
	<g>
		<defs>
			<rect id="SVGID_239_" x="-77" y="-38.2" width="595.3" height="841.9"/>
		</defs>
		<clipPath id="SVGID_240_">
			<use xlink:href="#SVGID_239_"  style="overflow:visible;"/>
		</clipPath>
		<path class="st115" d="M130.7,697.5c0.3-0.4,1.2-0.9,1.6-1.1c0.7-0.4,1.7-0.8,2.5-0.5c0.9,0.3,1.4,1,2.3,0.8
			c1.4-0.3,2.2-0.6,3.5,0.2c0.4,0.2,0.7,0.5,1.2,0.2c0.6-0.3,0.9-0.7,1.5-0.8c0.9-0.2,1.6,0,2.5,0.2c0.4,0.1,1,0.2,1.3,0.4
			c0.4-1.1,1.4-0.9,2.2-1.4c0.2-0.1,0.1-0.2,0.3-0.4c0.6-0.7,1.2-1.1,2.1-1.3c1.7-0.3,4.5-0.1,4.8,2.1c0.4,0,0.8,0,1.2,0.1
			c0.5,0.1,0.9,0.1,1.4,0.3c0.2,0.1,0.5,0.4,0.7,0.4c0.5,0,1.1-0.6,1.7-0.7c0.2,0,0.5-0.1,0.7,0c0.2,0,0.4,0.2,0.5,0.2
			c0.5,0,1.1-0.5,1.7-0.5c0.7-0.1,1.3,0,2,0c0.8,0,1.5-0.1,2.2,0.5c0.4-0.5,1-0.8,1.6-0.9c0.2,0,0.7,0,0.9-0.1
			c0.3-0.1,0.1-0.1,0.4-0.3c0.7-0.6,3.2-1.4,3.9-0.5c0.4-0.9,1.3-1.2,2.3-1c0.4,0.1,0.9,0.3,1.2,0.5c0.2,0.2,0.4,0.4,0.5,0.6
			c0.8,0.6,1.8,0.7,2.4,1.6c0.4,0.6,0.8,1.7,0.4,2.3c0.6,0.6,1,2.8,0.4,3.6H130C130.1,701.9,128.8,699.8,130.7,697.5"/>
	</g>
	<g>
		<defs>
			<rect id="SVGID_241_" x="-77" y="-38.2" width="595.3" height="841.9"/>
		</defs>
		<clipPath id="SVGID_242_">
			<use xlink:href="#SVGID_241_"  style="overflow:visible;"/>
		</clipPath>
		<path class="st116" d="M131.7,702c-0.3-0.9-1.8-1.9-0.6-2.9c0.2-0.2,0.5-0.2,0.7-0.4s0.3-0.6,0.4-0.8c0.4-0.5,1.5-1.2,2.1-1.2
			c0.5,0.1,0.7,0.5,1.1,0.7c1,0.6,1.6,0.2,2.4-0.2c1.7-0.8,1.7,0.1,3.1,0.6c0.4,0.2,1.2,0.4,1.7,0.2c0.3-0.1,0.4-0.6,0.7-0.8
			c1-0.7,2.4,0.3,3.4,0.4c0.9,0.1,0.6,0,1.4-0.5c0.3-0.2,0.7-0.1,1-0.3c0.5-0.3,0.6-1.2,1.1-1.6c0.6-0.4,1.7-0.4,2.5-0.4
			c1.6,0,2.2,0.1,2.3,1.9c0.6,0,1.2-0.2,1.8-0.2c0.4,0,0.8,0,1.2,0.2c0.1,0.1,0.1,0.4,0.2,0.5c1,0.6,1.6,0.2,2.5-0.2
			c1-0.4,2.2-0.1,3.3-0.4c0.9-0.3,1.6-0.9,2.7-0.5c0.7,0.3,1.1,1,2.1,0.7c0.3-0.1,0.6-0.7,1-0.8c0.7-0.3,1.5,0.5,2.2,0.2
			c0.9-0.4,1-1.5,2.1-1.5c0.5,0,0.9,0.3,1.3,0.3c0.6-0.1,1-0.6,1.6-0.6c0.7,0,1.1,0.1,1.7,0.5c0.5,0.3,0.7,1,1,1.3
			c0.1,0.1,0.5,0.1,0.6,0.2c0.8,0.8,0,1.6,0.4,2.6c0.2,0.5,0.6,0.5,0.8,0.9c0.3,0.6-0.1,1.7-0.6,2.1H131.7z"/>
	</g>
	<g>
		<defs>
			<rect id="SVGID_243_" x="-77" y="-38.2" width="595.3" height="841.9"/>
		</defs>
		<clipPath id="SVGID_244_">
			<use xlink:href="#SVGID_243_"  style="overflow:visible;"/>
		</clipPath>
		<path class="st117" d="M160.6,698.3c0.3,0.8,0.4,2.2-0.4,2.7c0-0.4,0.3-0.8,0.2-1.2c-0.1-0.3-0.3-0.5-0.4-0.7c0-0.2,0.1-0.4,0-0.6
			c-0.1-0.2-0.3-0.4-0.5-0.5c-0.3-0.2-0.4-0.4-0.7-0.6c-0.2-0.2-0.6-0.2-0.5-0.5v-0.3C159.2,696.7,160.3,697.4,160.6,698.3"/>
	</g>
	<g>
		<defs>
			<rect id="SVGID_245_" x="-77" y="-38.2" width="595.3" height="841.9"/>
		</defs>
		<clipPath id="SVGID_246_">
			<use xlink:href="#SVGID_245_"  style="overflow:visible;"/>
		</clipPath>
		<path class="st118" d="M169.4,696.6c0.5,0.2,0.5,0.7,0.9,1.1c0.5,0.5,0,0.8,0.3,1.4c0.2,0.4,0.5,0.6,0.4,1s-0.6,0.9-1,1
			c0.2-0.3,0.3-0.6,0.2-1s-0.4-0.7-0.5-1.1c-0.1-0.4,0-0.8-0.2-1.2c-0.3-0.5-0.7-0.9-1.2-1.2C168.5,696.4,169.1,696.5,169.4,696.6"
			/>
	</g>
	<g>
		<defs>
			<rect id="SVGID_247_" x="-77" y="-38.2" width="595.3" height="841.9"/>
		</defs>
		<clipPath id="SVGID_248_">
			<use xlink:href="#SVGID_247_"  style="overflow:visible;"/>
		</clipPath>
		<path class="st119" d="M167.5,696.3c0.2,0,0.5,0.2,0.7,0.3c0,0-0.1,0-0.1,0.1L167.5,696.3z"/>
	</g>
	<g>
		<defs>
			<rect id="SVGID_249_" x="-77" y="-38.2" width="595.3" height="841.9"/>
		</defs>
		<clipPath id="SVGID_250_">
			<use xlink:href="#SVGID_249_"  style="overflow:visible;"/>
		</clipPath>
		<path class="st120" d="M146.4,697.5c0.2-0.1,0.7-0.3,0.8-0.1l0.9-0.3c-0.3,0.1-0.7,0.3-0.9,0.5c-0.1,0.1-0.1,0.3-0.2,0.4
			c-0.1,0.2-0.3,0.1-0.4,0.3c-0.1,0.2-0.1,0.3-0.1,0.6s-0.1,0.6-0.1,0.9c0,0.3,0,0.3,0.2,0.6s0.3,0.5,0.5,0.8c-0.7,0.1-1-0.4-1.1-1
			c0-0.5-0.3-0.9-0.3-1.4C145.7,698.3,145.8,697.8,146.4,697.5"/>
	</g>
	<g>
		<defs>
			<rect id="SVGID_251_" x="-77" y="-38.2" width="595.3" height="841.9"/>
		</defs>
		<clipPath id="SVGID_252_">
			<use xlink:href="#SVGID_251_"  style="overflow:visible;"/>
		</clipPath>
		<path class="st121" d="M59.9,699.5l0.9-0.5c0.4-0.2,0.8,0,1.2,0.2c0.2-0.2,0.5-0.5,0.7-0.6l0.5-0.2c0.1-0.2-0.3-0.3-0.3-0.4
			c-0.1-0.5,0.4-0.5,0.7-0.4c0.8,0.1,1.4,0.7,1.6,1.4c0.5,0,1,0,1.4,0.3c0.2,0.2,0.4,0.4,0.5,0.7c0.1,0.2,0,0.4,0.1,0.5
			c0.3,0.7,1.4,0.6,2,0.5c0.1-0.4,0.6-0.9,0.9-1c0.7-0.2,1.6,0.5,2.2,0.9c0.2-0.8-0.8-1.4-1.2-1.8c0.4-0.2,1.5-0.1,1.9,0
			c0.7,0.2,1.2,0.6,1.6,1.1c0.4-0.1,1,0,1.4,0.2c0.2,0.1,0.3,0.3,0.5,0.4c0.3,0.2,0.8,0,1.1,0c0.6-0.1,1.2-0.2,1.8-0.2
			c0.4,0,4.8,0.8,4,1.7c-0.1,0.2-1.4-0.1-1.4-0.1c-0.8-0.1-1.6-0.2-2.4-0.3c-1.4-0.2-2.8-0.1-4.2-0.1c-1.8,0.1-3.5,0.1-5.3,0
			c-1.3,0-2.7-0.1-4,0.1c-1.8,0.3-3.6,0.5-5.4,0c-0.5-0.1-1.5-0.3-1.6-1C59.3,700.6,59.7,699.9,59.9,699.5"/>
	</g>
</g>
<g>
	<g>
		<defs>
			<rect id="SVGID_253_" x="-40.8" y="701.2" width="524.3" height="81.6"/>
		</defs>
		<clipPath id="SVGID_254_">
			<use xlink:href="#SVGID_253_"  style="overflow:visible;"/>
		</clipPath>
		
			<linearGradient id="SVGID_255_" gradientUnits="userSpaceOnUse" x1="-118.3827" y1="42.8242" x2="-117.3827" y2="42.8242" gradientTransform="matrix(0 81 -81 0 3690.1072 10288.7676)">
			<stop  offset="0" style="stop-color:#98B86C"/>
			<stop  offset="1" style="stop-color:#77A742"/>
		</linearGradient>
		<rect x="-40.8" y="701.2" class="st122" width="524.3" height="81.6"/>
	</g>
</g>
<g>
	<g>
		<defs>
			<rect id="SVGID_256_" x="-77" y="-38.2" width="595.3" height="841.9"/>
		</defs>
		<clipPath id="SVGID_257_">
			<use xlink:href="#SVGID_256_"  style="overflow:visible;"/>
		</clipPath>
		<path class="st123" d="M-41.6,702.1c4.9-2,145.7,20.7,187.8,18.2s142.8-7.4,174.9-3.2c32.2,4.2,86.6,5.6,103.4,3.5
			s58.4-14,58.4-14v107.6H-41.6V702.1z"/>
	</g>
</g>
</svg>
