<?xml version="1.0" encoding="utf-8"?>
<!-- Generator: Adobe Illustrator 19.0.0, SVG Export Plug-In . SVG Version: 6.00 Build 0)  -->
<svg version="1.1" id="Layer_1" xmlns="http://www.w3.org/2000/svg" xmlns:xlink="http://www.w3.org/1999/xlink" x="0px" y="0px"
	 viewBox="0 0 1398.1 1882.8" style="enable-background:new 0 0 1398.1 1882.8;" xml:space="preserve">
<style type="text/css">
	.st0{clip-path:url(#XMLID_202_);fill:url(#XMLID_203_);}
	.st1{clip-path:url(#XMLID_204_);fill:#AFC2DE;}
	.st2{clip-path:url(#XMLID_204_);fill:#B8D3E5;}
	.st3{clip-path:url(#XMLID_204_);fill:#B6DEBF;}
	.st4{clip-path:url(#XMLID_204_);fill:#A0B8D8;}
	.st5{clip-path:url(#XMLID_204_);fill:#CDDBD7;}
	.st6{clip-path:url(#XMLID_204_);fill:#859FA6;}
	.st7{clip-path:url(#XMLID_204_);fill:#87A8CF;}
	.st8{clip-path:url(#XMLID_204_);fill:#668A91;}
	.st9{clip-path:url(#XMLID_204_);fill:#C1E1BB;}
	.st10{clip-path:url(#XMLID_204_);fill:#8EA593;}
	.st11{clip-path:url(#XMLID_204_);fill:#FFFAC0;}
	.st12{clip-path:url(#XMLID_204_);fill:#708F77;}
	.st13{clip-path:url(#XMLID_204_);fill:#A0D39E;}
	.st14{clip-path:url(#XMLID_204_);fill:#537B60;}
	.st15{clip-path:url(#XMLID_204_);fill:#65876E;}
	.st16{clip-path:url(#XMLID_204_);fill:#73917A;}
	.st17{clip-path:url(#XMLID_204_);fill:#A1C46A;}
	.st18{clip-path:url(#XMLID_204_);fill:#D8D981;}
	.st19{clip-path:url(#XMLID_204_);fill:#B6CAA7;}
	.st20{clip-path:url(#XMLID_204_);fill:#C0D083;}
	.st21{clip-path:url(#XMLID_204_);fill:#66886F;}
	.st22{clip-path:url(#XMLID_204_);fill:#46893D;}
	.st23{clip-path:url(#XMLID_204_);fill:#485F45;}
	.st24{clip-path:url(#XMLID_204_);fill:#3A7761;}
	.st25{clip-path:url(#XMLID_204_);fill:#3F6B49;}
	.st26{clip-path:url(#XMLID_204_);fill:#73B276;}
	.st27{clip-path:url(#XMLID_204_);fill:#3A5D3E;}
	.st28{clip-path:url(#XMLID_204_);fill:#546C50;}
	.st29{clip-path:url(#XMLID_204_);fill:#478A69;}
	.st30{clip-path:url(#XMLID_205_);fill:url(#XMLID_206_);}
	.st31{clip-path:url(#XMLID_207_);fill:#3F6B49;}
	.st32{clip-path:url(#XMLID_207_);fill:#658060;}
	.st33{clip-path:url(#XMLID_207_);fill:#708F77;}
	.st34{clip-path:url(#XMLID_208_);fill:url(#XMLID_209_);}
	.st35{clip-path:url(#XMLID_210_);fill:url(#XMLID_211_);}
	.st36{clip-path:url(#XMLID_212_);fill:url(#XMLID_213_);}
	.st37{fill:#586F31;}
</style>
<g>
	<defs>
		<polygon id="XMLID_160_" points="-2.7,0 -2.7,1963.8 1398.1,1963.8 1398.1,0 		"/>
	</defs>
	<clipPath id="XMLID_202_">
		<use xlink:href="#XMLID_160_"  style="overflow:visible;"/>
	</clipPath>
	
		<linearGradient id="XMLID_203_" gradientUnits="userSpaceOnUse" x1="392.9393" y1="1378.5333" x2="393.9393" y2="1378.5333" gradientTransform="matrix(0 -1484.755 -1411.1499 0 1946014.875 585717)">
		<stop  offset="0" style="stop-color:#FFFFFF"/>
		<stop  offset="1" style="stop-color:#AAE1FA"/>
	</linearGradient>
	<rect id="XMLID_161_" x="-2.7" y="0" class="st0" width="1400.8" height="1963.8"/>
</g>
<g>
	<defs>
		<rect id="XMLID_118_" x="-2.7" width="1400.8" height="1963.8"/>
	</defs>
	<clipPath id="XMLID_204_">
		<use xlink:href="#XMLID_118_"  style="overflow:visible;"/>
	</clipPath>
	<path id="XMLID_159_" class="st1" d="M1050.3,1755.5c12.6-2,26.2-0.2,37.6-3.3c9-2.4,18.1,2.1,27.4,1.5c14-0.9,25.1,3.6,36.8-3
		c8.5,2,13.9,11,21.1,13.2c4,1.3,13.1-0.9,17-2.2c2.3-0.7,4.1-2.6,6.4-3.1c6.2-1.4,13.1,1.4,19.3,1.2c3.4-0.1,6.6-0.7,10-0.5
		c6.6,0.3,12.1,2,13.7-6.9c6.3-1.8,12.1,8.7,17.9,3.6c2.5-2.2,2.4-9.2,4-12.4c1.3-0.1,2.5,0.1,3.6,0.8c1.6,4.7,2.3,16.3,7.4,8.1
		c2.5-4,2.9-11.9,3.1-16.6c5.9-1.4,3.9,5.2,4.5,8.5c1.1,5.2,4.6,7,4.9,12.4c4.5,0.5,9.6-0.6,13.9-1.4c8.4-1.6,16.9,0.6,25.7-0.1
		c0.5-7.5,14.6-1.9,19.1-2.2c4.5-0.3,8-2.6,12.5-3.2c2.3-0.3,6.7,1.1,8.8,0.1c1.5-0.7,1.6-2.5,2.9-3.2c5.7-2.8,11.7-4.9,18.5-2.3
		c4.8,1.9,7.5,6.1,11.9,7.9v46.7c-33.1,0.2-66.1,0.7-99.2,0.7c-32.8,0-65.2-2.6-97.9-3.7c-39.4-1.2-78-8.6-117-13.6
		c-15.3-2-30.6-4.8-45.8-7.7c-7.3-1.4-18.1-2-24.5-6.2c-2.9-1.9-6.5-5.1-6.9-8.5C1019.5,1754.8,1036.7,1757.7,1050.3,1755.5"/>
	<path id="XMLID_158_" class="st2" d="M1207.5,1769.3c29.6,0,59.3-3.1,89.1-3.1c33.9,0,67.7-2.9,101.5-3.1v32.1
		c-12-0.9-24.7-3.8-36-4.1c-51.9-1-103.7-4.9-155.6-8.2c-58.4-3.6-115.7-5.1-172.4-20.5C1091.6,1757.8,1150,1769.3,1207.5,1769.3"/>
	<rect id="XMLID_157_" x="-2.7" y="1793" class="st3" width="1400.8" height="170.8"/>
	<path id="XMLID_156_" class="st4" d="M481.2,1742.6c-8.2-0.5-17.4-1.2-25.4-1.1c-3.6,0-6.9,1.3-10.6,1.1c-2.3-0.1-4.4-0.7-6.7-0.6
		c-3.7,0.3-6.6,2.5-10.4,2.7c-7.4,0.5-15-2.4-22.6-2.2c-5,0.1-8.9,0-13.9-0.6c-5.1-0.6-10.6,0.9-15.7,0.1c-4.1-0.7-7-3.3-11.5-2.6
		c-3.6,0.5-6.5,2.9-10.1,3.2c-2.1,0.2-4.2-0.4-6.2-0.6c-3.1-0.2-6.1,0.1-9.1,0.6c-9.4,1.7-18.4-2.1-27.6,0.6
		c-4.5,1.3-7.6,0.7-12,0.1c-5.7-0.7-11.5,0.2-17.2-0.3c-4.7-0.4-9.2-1.7-13.9-2c-17.4-1.1-34.9-1.5-52.3-1.7
		c-10.5-0.1-20.8-1.5-31.5-1c-7.2,0.3-14.4,1.3-21.4,0.4c-11.1-1.4-22.9-1.2-34.1-1.1c-5.4,0.1-10.9,0.4-16.4,0.6
		c-4.9,0.2-7.3-0.1-11.8-1c-4.2-0.8-8.1,1.2-12.1,1.1c-1.6-0.1-3.3-1.2-5-1.6c-3.2-0.6-6.8-0.4-10-0.8c-4.7-0.6-9.2-1-13.9-1.8
		c-5.4-1-10.2,2.3-16.3,2.5c-8.4,0.2-16.4-0.5-24.4-0.5c-3.9,0-6.1-1.6-9.8-2.1c-4.5-0.6-7.6,1.8-11.9,3.1v19.2
		c9.2,0.9,16.6,2.2,25.6,5.5c18.4,6.8,38.7,7.8,58.2,9.1c35.1,2.3,70.3,1.8,105.1,6.9c35.7,5.2,70.6,3.8,106.3,1.2
		c22.6-1.6,45.5-3.8,68.2-4.3c19.1-0.4,37.7-2.4,56.7-3.4c18.7-1,42.2,1.4,59.6-7.5C486.6,1759,497.9,1743.7,481.2,1742.6"/>
	<path id="XMLID_155_" class="st5" d="M416.7,1750.8c-15.6-0.3-31.2-2.4-46.9-2.4c-5.7,0-11.2,0.9-16.8,1c-5,0-9.8-0.5-14.8-0.5
		c-7.8,0-15.5,0.5-23.3,0.5c-6.2,0-12.2-0.4-18.3-1.1c-2.8-0.3-8.7,0.1-10.8-2.2l-4.7,4c2.2,2.9,3.9,5.6,7.6,7.3
		c4,1.9,8.3,2.7,12.5,3.6c2.7,0.6,5.4,1.7,8.1,2.2c3.8,0.7,8,0.2,11.8,0c5.5-0.2,11.1-0.2,16.6-0.3c15.7-0.4,31.5,0,47.2,0.1
		c5.3,0,10.6,0.3,15.8-0.6c4.6-0.8,9.9-1.3,14.3-2.9c2.3-0.9,7.3-3.3,7.6-6C423,1750.7,418.7,1750.8,416.7,1750.8"/>
	<path id="XMLID_154_" class="st6" d="M673.4,1746.1c-0.4-6-10.1-2.7-12.3-7.8c-1.4-3.3,1.1-7.9-1.8-10.9c-3.2-3.3-9.1-1.4-12.7-0.4
		c-3.9,1.1-6.7-0.7-10.4,0c-1.9,0.4-4,2.2-5.6,3.1c-5.8,3.5-5,2.7-5.7,8.6c-0.6,5.6-3.4,5.3-7.9,5.2c-4.1-0.1-4.4,1.4-7.6,3.4
		c-1.8,1.1-3.8,1.6-5.3-0.8c-1.2-1.9,0-4.1-0.5-6.1c-0.7-2.9-3.9-4.3-4.5-7.1c0-0.2,0-0.4,0-0.5c-4.3-1.8-10.1-1.6-14.2-0.5
		c-0.3,0.1-0.5,0.1-0.8,0.2c-0.1,0.6-0.2,1.2-0.2,2c0,2.9,0.6,2.9-1.3,4.8c-2.2,2.2-6.3,4.5-8.4,6.3c-1.4,1.2-3.3,1.8-4.8,2.9
		c-2,1.4-2.1,3-3.5,4.6c-1.6,1.9-7.4,3.7-6.9-1.3c0.4-4.4,8-1.9,5.8-7.4c-2.1-5.1-7.2-4.4-10.9-3c-3.3,1.2-7.9,2.2-7,6.9
		c1.2,0.6,1.9,1.1,3.4,1.4c-0.4,2.6-10.1-0.3-12.3-1.4c-2.6-1.3-2.3-3.2-4.3-5.2c-2-2.1-4-1-6.2-2.7c-3-2.3-1.8-3.5-5.9-2.4
		c-3.8,1.1-3.4,1.8-5.7-1.8c-2.7-4.3-8-8.5-9.7-1c-2.1-1.5-3.5-3.7-4.8-5.6c-1.2-1.7,0.4-2.4-2.6-2.2c-1.3,0.1-1.8,0.4-2.7,1.3
		c-3.1,3.1-3.4,8.8-4.7,12.6c-3.9,0.2-14.6-0.3-13.9,5.7c-4.2,0.3-8.4,5.3-12.5,5.3c-5-0.1-8.6-5.8-14.3-4.8
		c-2.2,0.4-4.3,2.6-6.3,2.6c-2.2,0.1-4.8-1.6-7.2-1.7c-5.3-0.3-6.2,0.8-10.6,2.2c-5.2,1.8-8.7-0.3-13.9-0.5c-5-0.2-9.4,1.6-14.3,0.1
		c-4.1-1.3-7.6-4.1-12.3-3.1c-4.4,1-6.3,4.4-9.5,6.9c-2.9,2.3-6.2,1.6-9.6,1.8c-2.5,0.1-5.3,1.2-7.6,1.2c-5.4,0.1-9-5.7-13.7-8
		c-5-2.4-10.7,1.2-15.8,0.6c-3-0.3-8.8,1.6-11.3,0.4c-1.6-0.8-2.5-3.8-4.1-5.1c-3.5-2.9-9.7-4.7-14.1-3.1c-2.9,1.1-4,4.2-7,5.2
		c-3,1-8,0.6-11.1,0.4c-4.1-0.2-7.9-0.3-12-0.1c-2.1,0.1-4.2-0.1-6.2,0.5c-3.4,1-5.8,3.1-9.5,3.2c-5.3,0.1-10.8-3.9-15.8-2.1
		c-0.8,0.3-1.2,1.4-1.9,1.8c-1.2,0.6-2.7,0.6-4,0.8c-8.5,1.8-16,2.1-24.8,2.1c-3.3,0-7.2,0.5-10.4-0.2c-4-0.8-7.2-3.6-10.9-5.1
		c-7.9-3.3-15.1,0.4-23-0.9c-6.4-1.1-11.6-4.1-18.3-2.6c-8.4,1.8-19,9.7-27.8,5.4c-1.6-0.8-2.7-2.3-4.4-3.2c-4.2-2-9.9-1.7-14.3-0.7
		c-2.4,0.5-8.4,2.7-9.9,5.1c-2.6-2.4-10.1-5.5-13.5-3.5c-2.7,1.6,0,5.3-2,7.4c-2.3,2.3-5-0.6-7.5-0.9c-5.1-0.4-12.4,3-17.4,0.9
		c-2.1-0.9-2.8-3.8-5.4-4.7c-3.2-1.2-6.3,0.5-8.1,3c-1.4,2-1.5,4.3-4,5.1c-2.6,0.9-3.9-1.1-6.2-1.6c-2.6-0.5-8.6,1.2-9.9-2.2
		c-1.4-3.5,3.8-6.9-1.2-10c-2-1.2-7.2-1.7-9.2-0.1c-1.7,1.4-0.9,2.2-1.5,4.1c-0.8,2.5-1.8,2.5-0.9,4.8c0.6,1.7,2.4,1,1.8,3.2
		c-2.4-0.1-4.5-0.5-6.3,0.2v16c2,0.3,4.1,0.4,5.1,0.5c10.6,1.3,21.3,2.8,32,3.4c25.7,1.5,51.7,1.6,77.4,0.2
		c16.6-0.9,33.1-2.7,49.7-2.8c13.8-0.1,27.5,0.1,41.3,0.1c31.7-0.2,63.6-1.1,95.2-2.1c27.8-0.9,55.7-3.2,83.5-5
		c19.1-1.3,38.5-1.7,57.5-3.7c13.9-1.4,28.6-0.2,42.6-0.3c14.5-0.1,29-0.2,43.5-0.3c28.7-0.2,57.4-0.4,86.2-0.4
		c11.2,0,22.5,0.5,33.7-0.3c4.3-0.3,5.5-0.5,8.3-2.7c3-2.4,5-3,9-3.5c2.5-0.3,3.6,0.4,4.8-2.2c1.7-3.7-0.7-2.4,3.2-4.3
		C672.2,1748.7,673.6,1748.8,673.4,1746.1"/>
	<path id="XMLID_153_" class="st7" d="M1398.1,1784.7c-0.4-2.4-5.3-5.4-7.1-7.1c-1.2-1.2-3-1.5-4.3-2.5c-1.9-1.4-2.9-3.3-5-4.5
		c-4.9-2.8-11.3,0.9-15.8-1.7c-2.4-1.4-1.8-3-4.8-3.4c-6.2-0.7-2.8,2.7-4.9,5.4c-0.4,0.5-2,0.8-2.6,1.2c-1.3,0.9-2.4,2.3-3.8,3.1
		c-2.5,1.4-4.4,0.8-7.1,0.7c-4.9-0.1-9.7,0.5-14.6,0.1c-3.9-0.4-7.8-1.9-11.7-1.7c-4.7,0.3-9,1.9-13.8,1.9c-5,0-8.8-1-13.4-2.7
		c-7.3-2.7-14-2.6-21.8-2c-6.4,0.4-12.8,1-19.2,1.4c-2.7,0.2-5.6,0.1-8.3,0.6c-2.3,0.5-4.5,1.5-6.9,1.5c-5.5-0.1-8.2-3.4-12.9-4.7
		c-5-1.3-11.8-0.7-17-0.6c-9.3,0.1-18.6,1.1-27.7-0.8c-3-0.6-4.7-1.4-7-2.7c-1.2-0.7-1.9-1.6-3.4-2.2c-5.9-2.5-9.5,3.4-14.8,5.4
		c-1.3,0.5-0.6,1.6-2.1,1.3c-0.6-0.1-2.9-1.8-3.2-2.3c-0.8-1.2,0-2.7-0.4-4.1c-0.8-2.4-2.1-1.8-3.7-3c-1.4-1.1-0.7-3.5-1.8-4.4
		c-2.2-1.8-9.2,3.5-10.6,5.6c-1.7,2.5-1.4,2.9-4.8,3.6c-1.6,0.3-3.1,0.1-4.6,0.7c-1,0.4-1.6,1.4-2.7,1.7c-3.2,1-6.8-1-10.2-0.4
		c-4.6,0.9-8.4,4.8-9,9.3c-1.5,12.3,21.2,14.7,29.8,15c16.9,0.5,33.9,0.3,50.8,1.8c23.5,2.2,47,1,70.5,0.3c28.1-0.8,56.8-1,84.9,0.4
		c10.3,0.5,20.3,0.7,30.6-0.3c8.1-0.8,18.2,0.1,26-2.1C1393.5,1791.6,1398.8,1788.7,1398.1,1784.7"/>
	<path id="XMLID_152_" class="st8" d="M918.5,1753.7c-7.9-3.9-15.6,3.5-23.8-1.2c-1.4-0.8-1.8-2.7-3.1-3.6c-1.6-1.1-3.7-0.8-5.6-0.8
		c-4.1,0-6-0.7-9.6-1.7c-1.8-0.5-5.9-1-3.9-4.1c-4.1-0.3-10.4,1.4-14.2,0c-1-0.4-2.5-2.5-3.5-3.1c-2.4-1.5-4.4-2.4-7.2-2.5
		c-3.2-0.1-6.7,0.7-9.5,2.3c-2.1,1.2-3.2,3.2-5,4.5c-1.5,1-0.7,1.2-2.5,0.9c-1.6-0.3-2.9-1.6-4.8-1.8c-3.6-0.4-7.8,0.6-11.4,1
		c0.1,0-3,0.6-3.3,0.5c-1.1-0.4-2.2-2.5-3.3-3.1c-6-3.4-12.7-0.5-17,3.8c-3.9,3.8-3.3,2.2-5.2-1.4c-2.7-5-13.6-6.3-17.1-1.3
		c-0.3,0.4-0.8,2-0.9,2.2c-1.5,1.7-2.8,2.1-5.3,2.8c-1.7,0.5-3.7,0.3-4.6,2.1c-0.5,1,0.3,2.3-0.1,3.3c-2.1,5.7-9.8-3.6-9.8-7.5
		c0-3.7,1.8-2.9,3.8-5.4c1.8-2.2,0.3-6.4-2.4-8.4c-2.1-1.5-4.8-0.5-6.9-1.3c-1.6-0.7-0.7-0.7-2.1-1.7c-3.1-2.1-5.3-1.5-8.7-2.1
		c-1-0.2-1.4-0.9-2.8-1.1c-3.1-0.5-6.6,1.1-9.1,2.8c-2,1.3-2.3,2.7-3.4,4.2c-2.4,3.2-6.8,5.6-9,9.3c-1.3,2.3-1,4.8-1,7.2
		c-1.2,0.5-3.5,0.8-4.8,0.3c-1.6-0.6-1.9-2.7-3.2-3.3c-2.1-1.1-5.4,0.9-7.5-0.2c-2.2-1.1-2.2-3.7-3.8-5.1c-2.3-2.1-9-4.2-12.3-3.9
		c-4.3,0.4-6.9,3.5-10.9,3.9c-3.1,0.3-5.5,0.2-6.9,3.1c-1.1,2.1-0.4,3.3-2.8,4.4c-1.8,0.8-2.9,0.2-4.5,1.6c-2.2,2-2.8,5-2.7,7.8
		l4.2,4.5c4.2,1.1,7.2,3.8,10.7,6.3c5.8,4.1,10.5,5.1,17.6,6.2c18.9,3,38.9,2.4,58,1.8c27.4-0.9,55.5-1.1,82.7,1.8
		c34,3.6,67.8-1.1,101.5-5.3C932.1,1771.1,924.8,1756.8,918.5,1753.7"/>
	<path id="XMLID_151_" class="st9" d="M216.2,1744.9c0,0-106.3-1.2-137.3-1.4c-27.8-0.2-72.4,0.1-81.5,0.2v20.6l209.4-6.8
		L216.2,1744.9z"/>
	<path id="XMLID_150_" class="st10" d="M109.4,1760.8c-1.1-2.2-6.6-1.8-9-2.2c-3.9-0.7-7.4-1.2-11.4-1.1c-3.3,0-6.1,2.4-9.2,1.8
		c-3.2-0.5-6.2-1.2-9.4-0.7c-7.9,1.4-16.1,0.1-24.1,0.7c-2.5,0.2-4.1-0.6-6.5-1.2c-1.9-0.4-3.6,0.1-5.5,0.5
		c-3.9,0.7-7.3-0.6-11.2-0.7c-2.1,0-3.9,0.4-6,0.7c-3,0.5-5.9-0.8-8.8-0.7c-2.1,0.1-3.3-0.2-5.3-0.5c-2.1-0.3-3.8,0.4-5.8,1.1v6.8
		c4.6,0.7,11.4-0.3,13-0.4c23.1-1.7,46.4,0.1,69.5-0.7c6-0.2,12-0.3,17.9-0.3c2.9,0,7.3,0.6,10.1-0.5
		C109.3,1763,110.2,1762.4,109.4,1760.8"/>
	<path id="XMLID_149_" class="st11" d="M-2.7,1760.8c0,0,216.4,1.4,263.2,0c46.8-1.4,363.2-6.2,424.3-1.4
		c61.1,4.8,151.3,9.5,151.3,9.5l-716.4,34.8l-122.4,11V1760.8z"/>
	<path id="XMLID_148_" class="st12" d="M449.1,1770.1c-6.9-0.3-13.6,0.4-20.4-0.1c-0.2-3.3,0.1-4.1,3-5.5c3.9-1.9,4.2-1.5,4.7-5.6
		c0.3-2.1,0.8-4.6,0.1-6.7c-0.7-2.2-3.8-5.5-5.9-6.4c-2.5-1-8.2-0.2-10.9,0c-3.1,0.3-3,0.8-4.5,2.7c-0.6,0.7-1,1.4-1.8,2.2
		c-2.1,2.1-3.3,2.4-3.4,5.6c-0.3,5.8,6.5,2.2,7.1,6.3c0.3,1.7-1.9,1.6-1.5,3c0.2,0.7,3.3,2.1,4.1,2.3c-1.8,1.9-7.1,1.5-9.3,1.8
		c-3,0.4-5.4-0.9-8.3-1.1c-1.5-0.1-2.9,0.9-4.1,0.7c-3.9-0.7-0.3-4,0-6.4c0.2-2-0.5-3.4-0.8-5.2c-0.2-1.7,0.5-3.8,0-5.5
		c-2.8-8-11.5-3.9-17.1-3.9c-1.7,0-6.9-1.5-8.3-0.2c-1.2,1.1,0,4.1-0.3,5.6c-0.4,1.6-2.4,3-1.5,5.2c0.9,2,5.4,3,7,4.8
		c1.3,1.5,2,2.8,3,4.2c0.9,1.2,2.1,1.4,1.8,3.2c-8.7,0.4-17.4-1-26.1-0.3c-2.3,0.2-10.8,1.3-11.2-1.5c-0.2-1.3,1.6-2.2,2.2-3.3
		c0.9-1.7,1.4-3.9,0.7-5.8c-0.3-0.9-1.7-1.5-1.7-2.5c-0.1-1,0.7-0.8,0.8-1.5c0.2-1.7,1.1-1.7-0.4-3.6c-2.3-3.2-6.1-1.9-9.7-2.8
		c-2.3-0.6-5.1-2.8-8.1-1.3c-1.7,0.8-2.9,3.2-4.3,4.4c-0.5,0.5-1.6,1.2-2.3,1.8c-1.7,1.6-3.4,3.7-1.3,5.8c0.8,0.8,9.9,4,3.6,6.1
		c1.1,1.1,2.8,2.2,2.9,3.8c-4.3,0.2-7.9-0.4-12.2,0.4c-4.4,0.8-7.4-0.8-11.6-1.1c-2.6-0.2-5.3,0.9-7.9,0.8l-2.2,2.6
		c0.4-0.1,0.7,0,0.8,0.4c-3.8,2.3,1.6,3.4,3.3,3.4c5.3,0,10.7,0,16,0c14.4,0,28.6,0.4,43,0.4c17.5,0,34.8-1.2,52.3-1.1
		c13.6,0,27.2-0.5,40.7-1.2C449.2,1773.3,449.2,1771.7,449.1,1770.1"/>
	<path id="XMLID_147_" class="st8" d="M1033.9,1743.1c4-0.6,6.1,2.1,9.2,3.3c3.4,1.3,6.7,1.4,10.1,2.6c5.6,1.9,9.1,0.4,14.8,1.1
		c3.9,0.5,7,2.3,10.9,2.7c6.4,0.6,10.7-1.3,16.4,3.3c4.6,3.7,7.1,14.3,12.8,15.9c3.5,1,7.7-2.8,11.3-2.9c2.8,0,3,1,5.8,1.8
		c2.5,0.8,6.3,0.5,8,0.7c10.8,1.3,21.4,1.3,32-2c2.9-0.9,5.6-2,8.9-1.4c3,0.6,3.9,2.9,7.1,0.1c2.3-2,1.7-5.7,3-8.1
		c3.1-5.9,9.5-2.4,14.5-4.9c2.1-1.1,3.1-3.9,4.7-5.5c4.9-4.8,12.8-1.8,18.2,1.5c0.8,0.5,0.5,2,1.3,2.4c1.4,0.9,3.3,0.3,4.7,1.3
		c1.7,1.1,5.4,6.3,3.5,7.8c-2.9,2.3-13.9-5.3-12.5,3.2c4.2,0.3,9.3-0.1,10.9,5.3c0.8,2.9-2.3,3.5-1.3,6.9c4.7,1.4,8.3,1.4,10.6-2
		c1.8-2.7,2.9-5.7,6.2-7.2c3.5-1.7,8.2-1,11.4,1.2c2.1,1.5,3.2,5.3,5.8,4.8c-0.1-1.2,0.8-2.5,0.8-3.6c2.6-0.2,7.9,1.1,9.8-0.6
		c2-1.8,0.6-5.1,3.7-6.4c2.2-0.9,6.7,0.2,8.8,1.1c2.8,1.2,3,3.5,4.8,4.7c3.7,2.7,7.6,0.9,11.6-1.5c1.3-0.7,1.2-1.5,3.1-2.2
		c1.9-0.6,4.9,0.1,6.9-0.1c0.1-0.7,0.1-1.3,0-2c-1.9-0.4-5.8-0.5-5.3-3.3c0.5-3,7.2-2,10.1-2.2c0.5-1.6,0.1-2.8-1.5-3.3
		c-0.2-0.8-0.1-1.6,0-2.4c4.6-0.1,10.4-1.3,14.8,0.4c4.9,1.9,3.4,6.5-0.3,9.1c5.6-0.2,13.4,0,11.9,7.8c-3.7,1.5-10-1.5-9.5,4.4
		c0.1,1.7,2.8,2.9,2.7,4.7c-0.1,2.9-2.1,2.8-4.3,4.3c-2.7,1.8-1.9,2.6-3.1,4.8c-2.5,4.3-5.2,4.9-10.6,5.5
		c-10.1,1.2-20.4-1.7-30.5-2.2c-14.9-0.8-29.8-1.7-44.8-2.3c-30.4-1.3-60.7-5.9-91.2-3.9c-38.9,2.6-77.9,1.1-116.8,2.8
		c-10.2,0.4-27.1,3.3-36.3-2.3c-7.7-4.7-8.3-19.5-6.7-27.2c1.6-7.3,6.6-17.8,15.6-17c5.3,0.5,8.1,5.9,13.4,6.4
		C1025.6,1749.3,1028.4,1743.9,1033.9,1743.1"/>
	<path id="XMLID_146_" class="st13" d="M259.4,1803.4c0-3,29.6-29,29.6-29s189.4-1.2,248.6-3.6c59.3-2.4,375.7-3.6,401.1-2.4
		c25.4,1.2,48.4-3.3,85,6.5c36.6,9.8,63.8,24.3,63.8,24.3s-187.5,6.7-265.6,6.7c-78,0-445.2,19.3-496.1,15.1
		C275.2,1816.7,259.4,1803.4,259.4,1803.4"/>
	<path id="XMLID_145_" class="st14" d="M603.4,1782.5c-1.4-0.4-3.4,0.3-4.7,0.4c-5.2,0.4-10.4,0.5-15.6,0.7
		c-10,0.4-20.3-0.6-30.2,1.2c-7.1,1.3-14,0.3-21.1,0.7c-6.4,0.4-12.8,1.7-19.3,1.3c-4-0.2-8.1-0.3-12.1-0.3c-4.7,0-8.7,0.6-13.3,1.4
		c-12,2.1-24,3.3-36.2,4.1c-6.6,0.4-13.2,0.4-19.7-0.4c-3.2-0.4-6.3,0.9-9.5,1.1c-4.7,0.3-9.1,0.5-13.8,1c-5,0.6-10-1.3-15-0.7
		c-3.8,0.5-6,0.4-9.8,0c-4.9-0.5-9.2,2.2-14,1.9c-3.7-0.3-7.1-0.9-10.9-0.7c-5.1,0.4-9.8,1.4-14.9,1.4c-2.5,0-4.5,0.3-7,0.7
		c-2.1,0.4-4.5,0.7-6.7,0.3c-2.9-0.5-5.4-2.2-8.5-1.8c-2.9,0.4-4.5,1.4-7.5,1.1c-4.6-0.6-8.4,1-13.1,0.7c-8.1-0.5-16.8-2.4-23.8,2.8
		c-2.2,1.7-4.7,5-1.7,7.2c1.8,1.3,5.3,0.6,7.3,0.6c6.8,0,13.6,0,20.5,0c9.9,0,19.7-0.4,29.6-0.4c10.6,0,21-1.4,31.5-1.7
		c25.6-0.9,51.2-2.3,76.8-3.3c22.3-0.8,44.7-1.4,66.8-5.3c17.9-3.1,35.9-3.5,53.9-4.2c14.8-0.6,29.4-2.7,44-4.5
		C605.7,1784.7,606.2,1783.2,603.4,1782.5"/>
	<rect id="XMLID_144_" x="61.8" y="1772.3" class="st15" width="1.2" height="6.1"/>
	<path id="XMLID_143_" class="st16" d="M33.9,1771c-0.1-0.9,0.4-1.7,0.5-2.7c0.2-1.8,1.1-3,1.9-4.5c0.8-1.7,0.3-3.6,1.2-5.2
		c0.8-1.4,2.5-2.7,3.9-3.5c0.7-0.5,1.4-0.4,2-0.7c1.6-0.8,2-3.9,3.4-5.4c3.5-3.9,7.7-2.5,12.2-2.6c2.6-0.1,4.4-2.4,7.2-1.8
		c3.1,0.6,4.4,2.9,5.9,5.2c1.4,2.2,5,2.7,5.8,5.1c0.6,1.9-0.3,4,0.5,5.8c0.7,1.7,4.2,4.2,6.1,4.4c1.9,0.2,0.8-0.7,0.8-2.2
		c0.2-3.7,5.7-5.6,8.9-5.3c1.7,0.2,3.5,2.2,4.8,0.9c1-1.1,0.8-2.2,2.3-2.9c0.8-0.4,2-0.3,2.8-0.8c0.6-0.4,0.8-1,1.2-1.6
		c1.1-1.2,2.9-2.1,4.5-2.4c0.9-0.2,2.2,0.2,3-0.1c0.9-0.4,0.8-0.7,1.4-1.7c2.1-3.3,6.4-6.2,10.4-6.6c2.6-0.3,6,2.2,7.7,4
		c1.4,1.5,0.8,3.2,1.6,4.8c0.7,1.5,3.8,1.6,5.4,1.8c1.1,0.1,1.8,0.2,2.4-0.5c0.2-0.3,0.4-1.3,0.6-1.7c0.4-0.7,1.1-1.4,1.8-1.8
		c1.2-0.7,2.9-1.2,4.3-1.1c2,0.1,4.1,1.7,6,2.3c2.3,0.8,4.6,1.6,7.2,1.2c1-0.2,1.9-0.9,2.8-0.9c1.6-0.1,2.5,0.6,4-0.5
		c2.5-1.8,1.7-5.4,3.6-7.6c3.2-3.9,10.3-4.3,14.9-4.4c2.8-0.1,5.9-0.1,8.3,1.5c1,0.6,0.9,1.3,1.5,2c0.8,1,1.8,1.3,2.8,2
		c2.8,2,2.9,7.1,1.9,10.2c-0.8,2.4-3.7,3.9-5.4,5.6c-1.7,1.8-2.2,4.6-3.3,6.8c-1.1,2.2-2.7,2.1-5,2.8c-1.3,0.4-3.5,0.9-4.5,1.7
		c-0.7,0.6-0.9,1.4-2.1,1.9c-3.8,1.6-9.3,1.2-13.3,0.8c-3.6-0.4-7.2,0.2-10.8,0.3c-4.9,0.2-9.8,0.5-14.7,0.7
		c-9.9,0.3-19.8,0-29.7,0.3c-9,0.3-18,1.2-27,1.2c-2.4,0-5.3,0.5-7.7-0.2c-1.6-0.4-3.1-1.5-4.7-1.9c-2.4-0.6-4.7,0.1-7.1,0.1
		c-1.3,0-2.7-0.3-4-0.2c-1.4,0.2-2.8,0.8-4.1,1.1c-3.6,1-6.9,4.3-10.7,4.6c-1.6,0.1-3.7-0.6-5.3-1c-2.3-0.6-2.8-2.2-4.5-3.5
		C36.3,1774.1,34,1772.9,33.9,1771"/>
	<path id="XMLID_142_" class="st15" d="M212,1771.7c-7.6-1.6-16-0.7-23.8-0.7c-16.6,0-32.8,1.2-49.3,1.2c-16.6,0-35.7-2.4-51.4,1.8
		c-9.6,2.6-20.1,2.6-30.4,2.6c-10.3,0-19.5,2.1-29.5,2.5c-4.8,0.2-10.4-0.9-15,0.6c-2.6,0.8-4.5,3-7.4,3.6c-1.7,0.4-4.5,0.1-7.9,0
		v14.5c4.5-0.4,9-1.3,12.2-1.9c27.6-4.9,55.7-9.1,83.7-10.5c24.1-1.2,48.1-3.5,72.4-3.3c8.8,0.1,17.7,1.1,26.5,0.7
		c4.3-0.2,14.3,0.5,17.9-1.8C213,1779.2,212.3,1775.3,212,1771.7"/>
	<path id="XMLID_141_" class="st17" d="M861.5,1783.8c-57.6-2.6-194-2.6-248,1.6c-18.8,1.5-46.1,3.2-75.6,4.9l-139.3,95l879.5-16.1
		l-207.4-72.7C991.1,1794.7,918.3,1786.4,861.5,1783.8"/>
	<path id="XMLID_140_" class="st18" d="M1373.8,1790.1c0,0-134.8-5.3-199.3-10.6c-64.5-5.3-150.7-4.8-150.7-4.8
		c38.6,9.5,50.2,21.7,50.2,21.7c-1.1,0-2.2-0.1-3.3-0.1l207.4,72.7l101.6-1.9L1373.8,1790.1z"/>
	<path id="XMLID_139_" class="st19" d="M237.6,1777.5c0,0-49.7-1.6-99.4-0.5c-46.2,1-129.3,10.6-140.9,12v23l230.2-10.5
		L237.6,1777.5z"/>
	<path id="XMLID_138_" class="st20" d="M388.3,1798.6c-47.6,2.6-162.3,6.3-162.3,6.3l1.5-3.5l-95.8,2.6l-14.9-0.5l-95.9,7.8
		l-23.5-3.6v81.2l145.1,1.1l256.1-4.7l139.3-95C482.6,1793.6,419.3,1796.9,388.3,1798.6"/>
	<path id="XMLID_137_" class="st14" d="M191.6,1799.5l-2-1.2c-4.6,2-11.6,0.7-16.6,0.9c-5,0.2-9.9,1-14.8,1.4
		c-8.5,0.8-17-1.5-25.6-1c-18.6,1.1-38.1,1.1-56.5,4.4c-2.7,0.5-14.5,1.5-10,5.7c3,2.8,15.2,1,19.5,0.2c3.3-0.6,5.8-1.4,9.3-1.6
		c4.7-0.2,9.9-0.9,14.3-2c8.3-2.1,18.1-0.8,26.7-0.8c19,0,38.3,1.2,57.3-0.1C193.4,1803.2,193.3,1800.5,191.6,1799.5"/>
	<path id="XMLID_136_" class="st14" d="M225.7,1805.9c4.1,0.5,8.2-0.3,12.3-0.3c4.7,0,9.3,1.1,14,0.5c4.7-0.6,9.1-0.6,13.8-0.5
		c4.6,0.1,8.9-0.5,13.4-1.2c2-0.3,5.8,0.5,7-1.5c0.5-0.8,0.5-2.1,0.7-3c0.3-1.1,0.2-2.5,0.6-3.5c0.3-0.9,0.1-0.9,1.3-1.4
		c1.3-0.6,5.1-0.9,5.9-2c1.2-1.7-0.9-4.3-0.8-6.1c0.2-2.7,3.1-0.8,4.4-2.3c0.8-0.9,0.6-3.6,0.3-4.6c-0.9-2.7-2-4.3-0.2-7
		c1.1-1.6,2.9-3,3.6-4.8c0.7-1.7,0-2.6-0.8-4.1c-1.2-2.5-0.2-2.7,1.4-4.2c1.9-1.7,1.7-4.5,0.7-6.6c-1.2-2.7-1.7-4.6-4.6-5.8
		c-2.3-0.9-5.1-0.5-6.9-2.4c-1.1-1.2-1.1-2.5-1.8-3.8c-1-1.7-3-2.7-4.9-3.2c-1.4-0.4-3.3,0.1-4.7-0.5c-1-0.5-1.6-1.7-2.2-2.7
		c-0.7-1.1-1.4-2.4-0.9-3.8c0.4-1,1.6-1.2,1.9-2.1c0.7-1.9-4.1-3.2-5.5-3.8c-2.5-1.1-5.6-0.6-8.3-0.6c-5.5,0.1-11.3,0.8-15.7,4.4
		c-1.6,1.3-2.2,2.6-2.6,4.6c-0.2,0.9-0.2,1.3-0.9,1.8c-2.4,1.6-3.7-2.4-5.2-3.7c-3.5-3-10.9-2.4-14,1.1c-1,1.2-1.1,2.7-1.8,3.9
		c-1.2,2.1-3.3,2.6-5.5,2.8c-4,0.3-11.2-1.4-14.2,2c-0.9,1-1,1.9-1.4,3c0,0.1,0.1,0.5,0.1,0.6c-0.3,0.5-1.7,1.1-2.2,1.4
		c-4.1,2-8.8,1.1-13.1,2.2c-2.8,0.7-6.3,3.6-7.2,6.4c-0.7,2.2,1.2,3.5,0.9,5.6c-0.3,2.1-2.3,3.4-3.1,5.3c-0.7,1.6,0,2.9,0,4.5
		c-0.1,2.4-2.3,4.2-1,6.6c0.9,1.7,2.9,3.9,4.8,4.4c1.9,0.4,5.8,2.1,5.3,4.7c-0.3,1.4-1.2,2.4-1.1,3.9c0.1,1.6,1.5,2.5,1.8,3.7
		c0.4,1.9-2.1,2.2-3.1,3.3c-2.4,2.6-1,5,1,7c0.9,0.9,1.4,1.6,2.8,1.6c1.5,0,3.1-0.2,4.6-0.2c3.4-0.1,6.9-0.2,10.3-0.3
		C212,1805.2,218.9,1805.1,225.7,1805.9"/>
	<path id="XMLID_135_" class="st14" d="M1006.9,1776.8c-0.5-3.7-3.5-5.7-3.7-9.7c-0.2-2.8,0.6-5.5,0.5-8.4c-3.6-1.9-6.8-2.5-8-6
		c-1-2.8,0.6-6.2-0.4-9c-4.4-11.9-15.6-5.7-24.4-6.4c-0.5-2.7-1.7-1.2-3.4-1.8c-0.3-0.1-1.8,0.9-2.5,0.7c-0.4-0.1-0.7-1.4-1.2-1.6
		c-5.4-2-8.5-5.8-14.9-5.3c-4,0.3-7.4,1.6-10.7,3.8c-3.7,2.4-8.7,5.1-10.1,9.6c-1.2,3.7-0.8,8.3-6.8,8c-0.4,4.3,2.6,11.6-1.6,13.8
		c-1.8,0.9-4.7-0.3-6.7,0.6c-2,0.8-2.8,3.3-4.3,4.1c-5.3,2.7-12.6-0.7-9.9,8.6l5.3,10.1c1.8,1.7,3.4,3.7,5.8,4.7
		c3,1.2,6.8,0.7,10,1.8c3.9,1.3,6,2.1,10.5,2.4c8.2,0.5,19.6,1.6,27.4-1.3c3.4-1.3,5.9-3.8,9.6-4.5c9.4-1.7,18.3,4.6,27.3,2.8
		c5.6-1.1,4.9-3.8,7.4-8.1C1004.1,1782.2,1007.4,1781.3,1006.9,1776.8"/>
	<path id="XMLID_134_" class="st21" d="M549.3,1772.7c-2.1-0.9-6.8,0.4-7.1-2.4c-0.2-1.6,1-2.4,2.4-2.7c2.3-0.4,8.3,6,7.2-0.3
		c-0.7-4.1-5.7-5.4-6.9-8.8c-0.7-2-0.4-3.6-1.9-5.6c-1.6-2.2-3.8-4.6-6.8-4.2c-3.6,0.5-4,3.9-7,1.9c-1.8-1.2-2.3-3.3-4.5-4.1
		c-3.7-1.3-8.4,0.5-11.5,2.2c-0.8,0.4-3.1,2.3-4.1,2.4c-0.9,0.1-2.5-1-3.5-1.1c-5.1-0.7-10.3,4.7-10.1,9.8c-4.2,0.7-6.3-2.1-9.4-3.9
		c-5.3-2.9-11.1-7.9-17.9-4.9c-2.1,0.9-3,2.5-4.2,4.3c-0.3,0.5-1.2,3-1.6,3.2c-1.4,1.1-3.2,0.5-5.3,0.6c-5.8,0.2-7.6,3-7.9,8.4
		c-0.9,0.2-2.6,3.6-2.8,4.6c-0.3,1.8,0.4,1.8,1,3.4c1.3,3.6,0.6,3.7,4.5,5.1c0.1,0.3,0,0.5,0.1,0.8c4.4,1.2,4.5,2.9,3,6.1
		c-1.1,2.3-3,4.1-2.5,7.2c0.4,2.6,3.8,3.9,4.5,6.1c1.5,0.6,2.9,1.5,4.3,1.8c4.5,0.8,9.2-1.1,13.8-0.3c4.7,0.8,7.7,4.3,12.3,4.5
		c2.9,0.2,6.1-0.5,9,0c1.6,0.3,2.1,0.5,3,1.7c0.4,0.5,0.5,2.1,1,2.4c1.3,0.9,5.6-0.1,6.4-1.3c0.5-0.8,0.1-1.4,0.4-2.1
		c0.2-0.5,0.8-1.6,0.9-1.8c0.6-1.8,0.6-3.4,0.6-5.5c0-7,6.9-2.1,11.3-4.3c2.5-1.2,2.9-3.2,6.1-2.7c3,0.4,3.4,0.7,6.4-0.6
		c1.6-0.7,3.6-0.9,2.7-3c-1.4-3.1-4.9-1.1-4.5-5.9c0.3-5.3,4.1-5.9,8.5-4.8c3.2,0.8,5.8,2.2,8.3,4.3c1.1,0.9,2.1,2.4,3.6,2.3
		C551.4,1781.2,554.3,1774.8,549.3,1772.7"/>
	<path id="XMLID_133_" class="st21" d="M457.2,1801.6c0-0.3,0-0.6-0.1-0.9c-0.8-0.3-1.5-0.6-2.3-0.6L457.2,1801.6z"/>
	<path id="XMLID_132_" class="st14" d="M540.8,1788.6c-2-2.8-4.8,0.2-6.6,1.7c-2.6,2.1-6,3.1-8.5,5.6c-3.2,3.2-8.1,5.4-12,8
		c-2.4,1.6-5.3,2.6-7.8,4.2c-2.2,1.4-3.9,3.4-6.1,4.8c-3,2-9.1,1.7-10.5,5.5l-0.6,1.2c0,2.7,2.6,4.1,5,3.5c1.2-0.3,2.7-1.4,3.8-2
		c2.5-1.2,5-2,7.5-3.1c4.2-1.9,8.1-4.4,11.7-7.2c2.5-2,4.1-4.9,6.8-6.7c2.8-1.9,5.5-2.7,7.9-4.8c1.6-1.4,3.1-3.2,4.7-4.3
		C538.3,1793.3,543.5,1792.4,540.8,1788.6"/>
	<path id="XMLID_131_" class="st21" d="M759.5,1779.9c-1-4.5-5.7-4-9-5.6c-2.2-1.1-3.5-3.4-6.1-5.1c-4.3-2.8-16.4-5.3-19.7,0.6
		c-0.3,0.5,0.2,1.8-0.4,2.2c-1.1,0.8-3.8-0.5-5.1-0.8c-2.7-0.6-3.7-0.2-6.3,1.4c-1.5,0.9-3.3,3.2-4.9,3.4c-1.8,0.3-6.3-3-7.8-4
		c-2.7-1.7-2.5-3.9-4.9-6.2c-5.1-5.1-12.3-7.2-18.1-2.5c-2.3,1.8-4.3,3.1-6.6,1.2c-1.4-1.1-1.5-3.5-3.1-4.3
		c-1.5-0.8-4.3-0.2-5.8-0.2c-3.5,0-2.8-0.7-5.1-3c-3.6-3.7-7.9-5.2-12.4-2.5c-1.6,1-1.6,1.2-3.3,1.3c-2.5,0.1-5.2-0.7-7.8-0.2
		c-3.2,0.6-5.6,2.5-8.3,4.2c-1.8,1.1-4.1,1.3-6.2,2.4c-5.8,3-2.9,7.8-4,12.9c-4.2,0.1-8.1,0.5-11.2,3.8c-2,2.1-1,3.7-2.1,5.8
		c-0.9,1.7-2.2,1.5-2.5,4c-0.7,5.6,3.5,9.2,7.5,12.2l-12,7.5c3.6,2.6,7.9,4.8,12,6.3c10.1,3.7,22.4,1,33,1.8
		c8.2,0.6,15.9,4.8,24.1,6c11,1.6,23.9,1.1,34.5-2.3c7.1-2.3,14.8-5.5,21.2-9.3c4.9-3,9.3-6.2,15.2-7.1c9.4-1.4,19.2,2.4,26.1-6.2
		C763.7,1793.3,768.2,1782,759.5,1779.9"/>
	<path id="XMLID_130_" class="st14" d="M1115.9,1809.2c-0.8-2-2.1-1.7-3.9-2.7c-2.3-1.3-3.8-3.4-6.5-4.2c-1.3-0.4-2.2-0.4-3.1-0.8
		c-1.6-0.8-2.4-1.9-4.4-2.4c-1.2-0.3-2.4,0-3.5-0.6c-1-0.5-0.8-1.6-1.7-2.2c-2.2-1.2-5.7-0.4-8.1-0.6c-0.2-2.5-0.2-5.2,0-7.7
		c0.4-7,6.9-9.9,2.2-16.7c-1.9-2.7-5.1-7.7-8.5-7.9c-4.9-0.3-3.5,4.4-7.1,5.6c-1.7-3.4-6-8.7-10-9.3c-4-0.6-6.9,4.1-10.8,3.9
		c-0.2-3.5-3.2-3.8-5.4-5.5c-2-1.6-2.8-3.7-5.5-4.8c-4.5-1.8-12.3-1.5-16.7,0.7c-2.2,1.1-3.3,2.8-5.6,3.4c-2.3,0.6-5.8-1.1-7.8,0.5
		c-1.8,1.4-0.7,2.5-1.1,4.6c-1,5.4-9.5,5.1-13.5,7.6c2.6,4.6,6.9,4.8,11.5,5.1c3.9,0.2,7.7,0.2,11.5,0.9c5,0.9,9.2,3.6,13.9,4.7
		c2.9,0.7,6.2-0.3,9.2,0.3c3.9,0.7,6.3,3.4,9.7,5c2,0.9,17.4,2.8,15.7,6c-1.2,2.2-10,0.5-12.2,0.3c-4.1-0.2-8,1-12.1,0
		c-3.6-0.8-5.5-1.7-9.3-1.1c-3.4,0.6-5.9,0.7-9.3,0c-3.1-0.7-6.1-2.1-9.3-2.3c-3.1-0.2-10.3,0.2-12.3,2.6l-2.6,3.3
		c1.7,5.3,8.3,2.4,13.1,2.2c12.5-0.6,24.7,2.1,36.8,3.1c7.5,0.6,15.1,0.7,22.6,0.7c2.4,0,4.9-0.2,7.1,0.4c4.3,1.2,8.4,3.5,12.6,5
		c2.5,0.8,5.3,0.9,7.9,1.7c2.6,0.8,5.3,1.4,7.9,2.3c1.5,0.5,5.6,3.6,7.1,3.2C1115.9,1813.2,1116.4,1810.7,1115.9,1809.2"/>
	<path id="XMLID_129_" class="st22" d="M401.9,1831c-0.1-0.6-1.2-1.2-1.3-2.2c-0.1-1.1,0.8-3,0.9-4.3c0.5-5.1-3.8-12.8-7.6-15.9
		c-2.6-2.2-3.8-5-6.3-7.1c-2.1-1.8-7.2-4.1-10.1-3.7c-0.7,0.1-1.5-0.1-2.2,0c-0.7,0.1-0.4,1.8-1.3,1.8c-2.2,0-3.7-2.7-5.7-3.9
		c-2.5-1.5-5.3-2.2-8.2-2.3c-4.4-0.2-8-0.3-8.7,4c-0.4,2.8,1,5.1-1.4,6.8c-1.1,0.8-6.1,0.3-7.6,0.4c-2.9,0.2-3.6,0-5.7,2.2
		c-1.5,1.5-1.4,2.9-3.3,3.6c-1.5,0.6-4.9,0.1-5.7-1.5c-0.7-1.3,1-3.1,1.2-4.4c0.5-3.2-0.5-5.8-3.5-7.1c-4.3-1.9-9.3,0.5-13,0.2
		c-5.2-0.4-16.8-4.8-21.2,0.7c-2.9,3.6,1.5,7.8,1.8,11.6c0.6,7.5-3.1,6.9-8.8,9.4c-5.5,2.5-3,5-4.2,9.4c-0.5,1.9-2.7,3.9-5.3,3.7
		c-3.7-0.3-8-4.1-11.7-5.4c-1.7-0.6-3.6-1.2-5.4-0.9c-2.1,0.3-4.3,2.7-6.3,1.7c-0.2-5.3,1.1-11.7-4.5-15.1
		c-3.1-1.9-8.6-1.4-10.5,2.2c-2.5-4.1-9.8-5.2-14.2-3.9c-5.3,1.6-7.5,5.9-7.3,11.1c-1.7,0.3-3,2-4.4,2.3c-1.5,0.4-3.1-0.8-5.1-1
		c-6-0.5-7.8,4-11.6,7.3c-1.1,0.9-2.3,0.5-3.4,2.1c-1.2,1.8-0.3,7,1,8.6c2.1,2.7,7.5,3.2,10.5,3.5c13.2,1.6,26.7,0.4,40,1.4
		c21.1,1.6,42.6,1.2,63.8,0.9c22.2-0.3,44,1.9,66.1,4.1c9.6,0.9,19.3-0.6,28.8,0l-3.6-9.9C401,1838.7,402.6,1835.7,401.9,1831"/>
	<path id="XMLID_128_" class="st23" d="M573.6,1850.5c-0.2-4.3-1.7-12.3-4.4-15.9l-10.4-10.1c-0.8-2.3-6-3.5-8.1-4
		c-4.3-1-10.1-1.5-14.2,0.5c-1.4,0.7-2.3,1.5-3.4,2.6c-0.6,0.5,0.1,1-0.7,1.5c-1.4,0.9-4.6-0.3-5,2.3c-2.1-0.4-4.1-1.7-6.3-2
		c-3.9-0.6-6.5,0.3-9.8,2.3c-3.3,2-6.1,2.5-10.1,2.4c0-2.1-0.2-5-1.7-6.7c-1.5-1.7-3.4-1.2-5.5-1.8c-0.1-1,0.2-2,0.2-3.1
		c0-1.8-1-3.2-1.2-4.8c-0.1-1,0.4-2.5,0.4-3.9c-0.2-3.6-3.4-7.2-6.4-8.9c-1.2-0.7-2.2-0.8-3.2-1.5c-1.6-1.1-2.4-3-4.4-3.7
		c-3.8-1.4-10.8-1-14.2,1.5c-0.9,0.6-1.8,2.6-2.7,2.9c-1.8,0.6-3.1-1.3-4.7-2c-2.2-0.9-5.3-1.4-7.6-0.7c-2.9,1-4.1,3.6-6.3,5.1
		c-1.4,1-3.6,1.2-5.2,2.4c-2.7,2.1-2.6,4.1-2.3,7.1c0.2,2.3,0.2,5.2-0.5,7.5c-1.1,3.2-4.1,2.4-7.1,2.4c-1.9,0-4.1-0.3-5.8,0.6
		c-1.8,1-1.9,2.3-2.9,3.9c-1.2,1.9-1.7,1.6-4,1.8c-6.1,0.6-8.9,4.4-8.5,10.3c0.2,2.8-1.2,4.8-1,7.6c0.8,8.1,13.7,5.6,19.1,6.2
		c14.2,1.6,28.4,4,42.5,6.2c10.3,1.6,20.8,1.1,31.2,2c14.1,1.3,28,1.4,42.1,2.1c7.5,0.4,15.6,0.7,23.1-0.4c2.1-0.3,5.7-1.3,7.3-2.9
		C574.1,1857.3,573.7,1853.1,573.6,1850.5"/>
	<path id="XMLID_127_" class="st23" d="M193.5,1831.5c-1.4-2.2-3.7-4.3-5.4-6.6c-3.9-5.1-8.4-5.6-14.1-6.2c-4.1-0.4-12.1-1-15.5,1.5
		c-3,2.2-2.1,5.9-6.1,6.7c-1.7,0.3-3.7-1-5.5,0c-1.2,0.6-1.1,1.7-2.1,2.6c-2.2,1.8-5.4,2.4-8.4,2.4c-4.6,0.1-7.9-3.6-12.6-3.7
		c-2.8,0-5.2,0.6-7.9,0c-2.9-0.6-5.2-2.5-8.3-2.4c-3.7,0.2-5.4,2.9-8.2,4.4c-5.6,3.2-12-0.8-13.7-6.8c-0.9-3.3,0.2-7.8-1.3-11
		c-2.2-4.9-8.1-2.9-11.3-6c-2.6-2.4-3.7-6-6.7-8.4c-2.7-2.1-6.2-4.3-9.7-4.9c-5.8-0.9-12,0.6-15.7,5.2c-1.9,2.4-2,3.5-5.7,4.7
		c-2,0.6-3.6,0.8-5.2,1.7c-2,1.1-2.3,1.7-4.9,2.1c-1.9,0.3-4.8,1.4-6.7,0.6c-3-1.2-5-4.3-8.4-5.4c-3.6-1.1-8.5-1.7-12.8-0.6v45.1
		c1.9-0.1,3.2-0.3,4.3-0.3c12.2,0.1,24.4,1.1,36.7,1.2c14.9,0.1,29.7,0.8,44.6,0.8c8.3,0,16.5-0.8,24.8-1.2
		c9.7-0.5,19.4-0.3,29.1-1.6c19.3-2.6,39.1,0.2,58.2-3.7C194.7,1838.4,195.4,1834.5,193.5,1831.5"/>
	<path id="XMLID_126_" class="st24" d="M759.2,1810.9c-1.8-2.8-2.6-6.2-3.8-9.3c-1.1-3-3.7-6.7-4.1-9.2l-2.1-1.7
		c-2.4-2.7-3.6-5.5-7.4-7c-1.3-0.5-1.6-0.5-3.1-0.2c-1.1,0.3-2.2,0.5-3.3,0.8c-1,0.3-2,1.3-2.9,1.5c-0.7,0.2-0.7-0.1-1.7-0.2
		c-2.7-0.1-4.9,0.1-6.7,2.3c-1.5,1.8-2.4,4.9-4.2,6.2c-1.6-1.2-2.4-2.7-3.6-4.3c-1.5-2.2-3.1-2.8-5.4-3.9
		c-6.8-3.4-15.8-5.7-22.6-0.5c-1.1,0.9-2,1.9-2.5,3.2c-0.3,0.9,0.1,3-0.4,3.7c-1.1,1.7-4.8,1.4-6.7,2.9c-1.4,1.1-2.4,2.5-3,4.2
		c-0.4,1.3,0,3.1-0.4,4.3c-0.4,1.2-1.7,1.9-2.2,3.1c-3.3,0.3-7.8-1.5-10.6-3c-2-1-2.8-1.7-3.6,0.7c-0.8-0.1-0.9-0.6-1.6-1.1
		c-1.7-1-3.4-1.7-5.3-2.2c-4.2-1.1-8.7-0.5-12.4,1.9c-1.3,0.9-1.8,2-3.4,1.9c-2.3-0.1-4.8-2.3-6.6-3.7c-5.2-3.9-10.9-5.8-17.4-5.8
		c-6.2,0-10.5,1.1-15.4,4.5c-1.7-2.7-2.8-5.5-5.5-7.3c-3.7-2.5-7.9-6.9-12.8-6.1c-5.4,0.9-9.7,3.2-13.7,6.7
		c-1.6,1.4-3.3,2.4-4.3,4.3c-0.8,1.5-0.6,3.1-1.1,4.7c-0.6,2.1-1.8,3.8-2.9,5.7c-1.6,2.9-2.1,5.9-1.6,9.1c0.3,2.1,0.9,3.9,0.3,6.1
		c-0.5,2.1-1.9,4-2.7,6c-0.7,1.8-1.1,4.8-0.7,6.7c0.4,2.1,2.4,3.3,2.9,5.2c0.3,1.1-0.1,2.3-0.1,3.4c0,2,0.4,3.4,1.4,5.1
		c0.8,1.3,1.6,2.5,2.4,3.8c3,5.3,10.7,4.4,15.9,5.1c12.9,1.8,25,6.8,38.2,7.6c8.1,0.5,16.5,0.8,24.7,0.5c7.5-0.3,14.8-1.9,22.3-1.9
		c6.5,0,13.1,0,19.6,0c6,0,11.8-0.6,17.9-1.1c11.8-0.9,23.5-3.6,35.4-4.7c3-0.3,5.6-0.3,8.4-1.7c3.6-1.8,8.3-4,11-7
		c2.3-2.5,3.3-6.4,4.6-9.5c1.6-3.8,2.2-7.9,4-11.6c1.6-3.2,2.5-5.4,2.4-9C762.7,1816.5,761.3,1814.2,759.2,1810.9"/>
	<path id="XMLID_125_" class="st25" d="M937.1,1810.9c-2.9-6.6-4.7-13.7-7.5-20.4c-1.8-4.4-4.3-10-9.3-11.4
		c-6.5-1.8-13.7,3.9-20,4.8c-2.5-6.5-4.4-11.5-10.5-15.5c-4-2.7-12-5.9-16.6-3.1c0.6-8.4-15.7-8.7-20.8-8.6c-4,0.1-8.8-0.1-12,2.8
		c-2.3,2.1-2.3,4.7-3.4,7.4c-2,4.9-3.3,3.1-8.6,1.9c-8.4-1.9-18.6-0.9-19.6,9.5c-0.1,1.2,1.1,5.7,0.5,6.6c-1.6,2.2-8.3,1.4-10.8,1.2
		c-6-0.5-9.3-7.3-16.1-8.2c-7-1-12.6,0.5-15.8,6.7c-3,5.7-9.9,4.7-15.5,4.1c-6.8-0.8-10,0.6-13,7c-1.9,4-2.3,3.4-6.7,5.4
		c-5.2,2.4-8.3,7.2-8.7,12.8c-0.3,4.4,0.6,4.3-2.9,7.1c-6.5,5.1-6.9,13.6-3.4,20.7c1.7,3.5,4.3,7.9,7.9,9.7c2.7,1.4,5.2,0.6,8,1.1
		c2.7,0.5,5,1.9,7.8,2.4c5.6,0.9,11.5,0.1,17-1c17.6-3.4,35.6-0.1,53.3,1.2c9.1,0.7,18.4,1.2,27.5,0.7c8.6-0.4,17-2.4,25.5-2.8
		c13.3-0.6,26.3,2.5,39.6,2.4c7.9,0,16.3,1.1,23.6-2.4c7.4-3.5,13.2-8.5,15.1-16.7C944.1,1826.1,941.1,1820.1,937.1,1810.9"/>
	<path id="XMLID_124_" class="st14" d="M1389.6,1773.4c-3.7,0.9-6.1-1.9-10.2-1.9c-4.7,0-18.1,1.2-20.6,5.6
		c-1.1,2.1,0.1,3.1,1.6,4.3c0.9,0.7,7.8,4.8,3.2,5.7c0.7,3.6,6.2,4.9,1.3,7c-3.7,1.5-15.4,2.4-16,8.4c-0.4,3.7,5.9,7.2,6.9,11
		c0.3,1.2,0.8,3.8,0.6,4.9c-8.4,0.5-16.4,0.1-23.5,5.4l-10.4,8.1c0.2,5.3-2.2,11,0.3,16.1c2.9,6,10.9,6.3,16.5,8
		c9.8,3,20.2,5,30.3,6.4c5.4,0.8,10.9-0.2,16.3-1.2c4.1-0.8,8.1-0.9,12.2-2v-87.3C1395.4,1771.5,1392.4,1772.8,1389.6,1773.4"/>
	<path id="XMLID_123_" class="st26" d="M-2.7,1839.1c6.4-0.7,12.1-1.8,18.5-2.5c20.3-2.2,41.1,1.4,61.4,1.7c21,0.3,42,0,63.1,0
		c17.8,0,35.2-2.8,53-1.6c9.1,0.6,18.4-0.1,27.6-0.5c3.6-0.2,7.4-0.8,11-0.4c4.4,0.4,8.4,2,12.9,2.1c10.1,0.2,19.9-2.7,30.1-2.6
		c4.7,0.1,9.3,0.5,14.1,0.5c16.3,0,32.6,1.5,49,1.5c12.8,0,25-0.5,37.7,0.5c13.6,1.1,27.6,3.7,41.3,3.6c16.2-0.2,31.2-1.4,47.3,1.2
		c18.4,3,36.7,3.7,55.4,3.8c6.8,0.1,13.7,1.1,20.3,2.4c7.9,1.6,15.2,2,23.2,2.3c12.5,0.5,24.7,2.2,36.9,3c5.3,0.4,10.4-1.3,15.7-1.6
		c7.1-0.4,14.2,0.3,21.3-0.8c12.3-2,23.4-1.4,35.7-0.1c9.6,1,18.8-3.3,28.3-2.9c10.4,0.4,20.9,0.3,31.3-1.5c9-1.6,16.6-5.5,25.9-6.2
		c12.7-1.1,25.7-0.9,38.4-1.5c7-0.4,14.2,0.4,20.8,1.9c6.1,1.4,15.9,2.4,19.4,7.6c-4.3,2.1-9.1,2.6-13.7,3.9
		c-5.4,1.6-10.5,4.2-15.6,6.5c-10.5,4.9-20.8,7.9-31.9,11.1c-14.6,4.2-29.6,5.8-44.6,8.1c-16.5,2.5-32.8,7.3-49.5,8.1
		c-38.2,1.7-76.4,1.1-114.6,1.1c-60,0-120.2,1.5-180.1,5.3H-2.7V1839.1z"/>
	<path id="XMLID_122_" class="st27" d="M820.6,1844.7c-4.3-0.8-8.6-0.8-12.9-1.8c-8.1-1.8-15.1-0.4-23.1,0.6
		c-3.9,0.5-8.3-0.1-12.2-0.1c-6.1,0-10.4,2.4-16.1,3.8c-6.1,1.6-11.9,3.4-17.6,5.3c-5.4,1.8-11,1.2-16.5,1.7
		c-4.8,0.4-9.1,2-13.8,2.9c-10.4,1.9-21.3,1.7-31.8,1c-8.5-0.6-17.1-1.1-25.7-0.7c-10.6,0.5-20,3.7-30.9,3.1
		c-8.5-0.5-16.9-1.2-25.4-1.1c-5.4,0-11,0.5-16.3-0.5c-8.1-1.5-13-4.1-21.4-2.1c-8.4,1.9-16.7,1.3-25.2,0.8
		c-8.9-0.6-18,0.3-26.9-0.3c-9.8-0.7-18.1-4.9-27.4-7.1c-7.9-1.8-15.1-0.8-22.9,0.2c-10.9,1.4-21.1-0.7-31.9-0.6
		c-21.5,0.1-42.8,2.3-64.2,0.1c-7.4-0.8-14.6,0.3-22-1.4c-11.7-2.7-21.7-1.6-33.5,0c-10.8,1.5-20.8-1.6-31.6-2
		c-13.9-0.5-30.4-2.1-43.7,2.6c-7.7,2.7-11.7,5.5-19.8,4.7c-7.9-0.8-16.6-1.9-24.6-0.8c-11.3,1.6-21.2,4.7-32.9,3.7
		c-10.7-0.9-20.9-3.9-31.5-5.1c-16.2-1.7-32.5,0.9-48.8,0.7c-14.7-0.2-27.7,3.9-42.3,0.7c-7.7-1.7-13.1-2-20.9-0.7
		c-3.3,0.6-6.2,1.5-9.5,2.1v35.8l351.2-6.3c0,0,224.4-0.6,280.4,0.6c56,1.3,204.5-34.7,204.5-34.7
		C829.1,1848.4,825.2,1845.5,820.6,1844.7"/>
	<path id="XMLID_121_" class="st28" d="M1342.3,1837.5c-1-5.5-0.5-10.7-2.4-15.8c-2.1-5.5,0.5-11.1-7.9-12.4
		c-4.2-0.7-10.5,1.2-14.1-1.4c-1.6-1.2-1.9-3.6-3.8-4.8c-1.6-1-3.8-1.1-5.6-0.9c-11.1,1.1-7.2,13.3-10,20.9
		c-3.9-4.9-14.3-3.1-15.8-10.5c-0.3-1.6,0.4-3.5,0-5.1c-0.6-2-1.4-2.8-1.8-4.5c-0.5-2.3,0.8-5.1-0.7-7.3c-2-3-6.2-1.6-9.1-2.1
		c-5.9-1-10.4-7-16.9-6.2c-4.2,0.5-7.6,3.5-11.3,5.1c-1.8,0.8-3.6,0.8-5.4,1.4c-4.5,1.6-1.7,4.2-3.7,7.5c-2.1,3.4-8.8,3.5-10.8,6.8
		c-0.5,0.9,0.1,3.4,0,4.5c-0.4,6.2-6.3,5.7-11.4,5.3c-0.8-2.6-3.2-2.8-5.4-3.3c-5.1-1-9.2-1.5-12.5-6.2c-1.4-2-1.8-4.6-3.7-6.3
		c-3.7-3.3-10.9-0.4-15.5-3c-5-2.9-7.8-9.1-12.8-12.2c-4.8-3-10.4-1.2-15.4,0.1c-3.9,1.1-6.6,1.3-10.4,0.4c-3.5-0.8-6.4-1.6-10-1
		c-4.5,0.8-4.8,2.7-7.6,5.2c-4.2,3.8-9.8,2.9-12.7,8.5c-3.3,6.4-1.6,15.1-6.5,19.8c-3.5,3.3-4.9,7.5-8.3,10.7
		c-3.4,3.2-6.2,5.4-4.6,10.5c1.1,3.3,4,4.6,7.1,5.9l2.1,3.7c2.8-0.3,5.5,0.6,8.2,0.7c7.1,0.4,14.1-0.1,21.2-0.3
		c31.1-0.9,62.3-0.1,93.5-1.3c38.5-1.5,77.1-1.3,115.6-0.7C1341,1849.2,1343.5,1844,1342.3,1837.5"/>
	<path id="XMLID_120_" class="st21" d="M1098.5,1838.7c-1.2-0.9-3.3-0.8-4.5-1.9c-0.5-0.5-0.6-1.1-1-1.6c-2.3-2.7-4.9-3.3-8.2-2.2
		c-1.8,0.6-2.7,1-4.7,0.1c-2.8-1.2-1.6-2.2-1.8-4.6c-0.8-8.9-16-8.9-20.3-2.9c-0.9,1.3-0.5,2.7-1.9,3.4c-0.8,0.4-2.2-0.2-3.1,0
		c-1,0.3-2,1.7-2.9,1.9c-1.3,0.3-2.7-0.7-3.9-1c-2.3-0.4-5.5-0.5-7.7,0.2c-4.3,1.2-4.3,4.8-6.3,8c-1.8,3-5,2.4-7.8,1.5
		c-1.6-0.5-3.1-0.9-4.7-0.4c-1.1,0.4-1.9,1-3.2,0.9c-1.2-0.1-2.4-0.9-3.6-1.3c-2-0.6-4.6-0.8-6.7-0.5c-2.6,0.4-4.9,2.1-7,3.6
		c-1.1,0.8-3.8,2-4,3.5l0.4,2.9c10.3,0,20.4,2,30.7,2c12.1,0,24.1,0,36.2,0c7.7,0,15.8,0.7,23.5-0.2c3.7-0.4,7.2-1.3,10.9-1.6
		c2.7-0.2,3.2-0.9,3.4-3.7C1100.6,1842.7,1100.3,1840.1,1098.5,1838.7"/>
	<path id="XMLID_119_" class="st29" d="M1009,1795.7c-0.3-4.6,1.8-6.9-2.4-10.5c-1.8-1.6-3.8-3.1-5.4-4.6c-1.2-1.1-1.2-0.9-2.7-1.2
		c-1.5-0.3-4.4-0.1-5.7-0.9c-1.2-0.8-1.9-3.3-2.5-4.5c-0.8-1.5-1.6-3.2-2.9-4.2c-0.4-0.3-4.5-1.6-4.3-1c-0.7-2.1-2-5-4.7-4.7
		c-2.6-5.6-7.1-8.9-13.6-8.6c-2,0.1-4.6,0.5-6.2,1.8c-2,1.6-1.4,2.9-1.5,5.3c-0.6,11.8-20.6,0.9-22.1,12.5c-0.2,1.3,0.5,1.1-0.3,2.1
		c-1.3,1.6-4.7,1.9-6.3,3.6c-1.4,1.5-1,1.7-3.1,2.4c-2.9,0.9-5.5,1.2-7.3,3.9c-4.1,6.1,5.5,8,6.6,12.5c0.7,3.1-3,5.7-2.6,8.8
		c-4.3,0.4-13.1-1-16.2,2.8c-3.2,4,0.4,7.7,1.7,11.3c0.9,2.6-1.1,1.8-1.6,4.1c-0.7,3.1,4.3,3.2,5.2,5.5c0.2,0.4-0.2,1.1,0,1.5
		c0.5,1.5,2.4,2,2.8,3.2c0.6,1.8-1.1,1.4-2.3,2.7c-2,2.2-1,5,0.7,7.2c4,5.1,10.4,4.5,16.2,4.2c8-0.3,15.9-1,24-1
		c7.2,0,12.8,4.1,20.1,4.9c11.9,1.3,26.7,1.6,36.9-5.7c2.9-2.1,4.9-3.9,3.7-7.5c-0.6-1.7-1.7-3.9-1.8-5.7c-0.1-2.6,1.9-2.1,2.8-4.2
		c1-2.2-1.1-3.5-2.2-5.1c-1.5-2.2-3-4.7-3.3-7.3c-0.5-5.4,5.5-7.4,6-12.3C1014.9,1802.7,1009.3,1800.2,1009,1795.7"/>
</g>
<g>
	<defs>
		<polygon id="XMLID_116_" points="884.4,1846.7 887.6,1846.7 887.1,1725.1 885.5,1724.8 		"/>
	</defs>
	<clipPath id="XMLID_205_">
		<use xlink:href="#XMLID_116_"  style="overflow:visible;"/>
	</clipPath>
	
		<linearGradient id="XMLID_206_" gradientUnits="userSpaceOnUse" x1="398.8144" y1="1350.9438" x2="399.8144" y2="1350.9438" gradientTransform="matrix(0 106.732 14.4774 0 -18672.0801 -40829.4844)">
		<stop  offset="0" style="stop-color:#FFFDEB"/>
		<stop  offset="1" style="stop-color:#947839"/>
	</linearGradient>
	<rect id="XMLID_117_" x="884.4" y="1724.8" class="st30" width="3.1" height="121.8"/>
</g>
<g>
	<defs>
		<rect id="XMLID_111_" x="-2.7" width="1400.8" height="1963.8"/>
	</defs>
	<clipPath id="XMLID_207_">
		<use xlink:href="#XMLID_111_"  style="overflow:visible;"/>
	</clipPath>
	<path id="XMLID_115_" class="st31" d="M909.2,1761.4c-0.2-3.6-7.1-4.4-10.7-4.1c-1.5,0.1-5.4,0.8-6.7,0.2c-0.7-0.4,0-1.1-0.6-1.5
		c-1.5-1-3.6-0.1-4.5-2c-0.3-0.6,0.2-1.4,0-2c-0.3-1.4-2.3-1.7-2.8-2.6c-1.2-2.3,6.9-2.4,9.1-2.5c3.6,0,2.4,0.1,3.6,2.1
		c1.5,2.4,5.1,2.5,8.3,2.3c1.6-0.1,4-0.8,4.8-1.9c-3-0.4-1.2-2.4-1.9-3.8c-1.1-2.3-7.8-4.5-11-5c-0.8-0.1-3.5,0-3.8-0.8
		c-0.5-1.2,2.8-1.7,4-1.9c3.2-0.5,6.9,0.5,9.9-0.6c0-0.4,0.4-0.7,0.4-1c5.5-0.5,2.7-4.6-0.2-5.9c-1.4-0.6-7.5-2.5-8.5-1.2l-0.3-0.6
		c-0.5-1.5-4.5-2.7-6.6-2.6c-2.5,0-4.2,1.9-6.7,1.7c-4.7-0.2-10.5-3.8-15.1-0.6c-1.4,1-0.9,1.9-1.6,2.9c-0.4,0.7-1,0.5-1.8,1.1
		c-1.9,1.4-1.2,5.6,0,7c3.3,3.9,5.3,0.1,9.6,0c1.9-0.1,5,1.3,4.5,2.8c1.1,0.1,1.7,0.8,1.5,1.6c-0.2,1-2.5,1.5-3.7,1.9
		c-2.2,0.8-3.2,1.5-2.9,3.6c0.3,1.8,1.9,2.5,3.7,3.6c0.6,0.4,1.8,0.6,2,1.3c0.4,1.7-5.2,1.1-6.1,3.5c-1.4,3.8,6.5,2.2,7.2,5
		c-1.8,0.7-2.6,1.8-2,3.3c1.5,3.9,10.5,4.3,14.5,3.3c1.7-0.5,2.8-0.9,4.7-1c1.5,0,3.1,0,4.4,0.4c0.3,0.1,1.1,0.7,1.3,0.8
		c1.5,0.3,3.2,0,5-0.1c0.4-1.8-1.9-2.8-2-4.3C908.5,1762.8,909.3,1762.4,909.2,1761.4"/>
	<path id="XMLID_114_" class="st32" d="M911.8,1797.3c-0.4-0.9-2.1-1.4-2.3-2.2c-0.3-0.8,0.6-2.1,0.6-3c0-1.2-0.3-2.5-0.7-3.6
		c-1-2.6-3-5.1-5.9-6.6c-2.4-1.3-4.9-2.2-7.1-3.2c-2.5-1.2-4.5-1.8-7.6-1.5c-1.9,0.2-3.1,0.7-4.3,1.9c-1.7,1.6-1.1,2.2-3.9,1.9
		c-2.4-0.2-5-1.2-7.4-0.9c-1.2,0.2-4.4,1.4-4.8,2.4c-0.9,1.9,3,2.8,2,4.5c-0.4,0.6-3.7,1.6-4.6,2.1c-1.1,0.6-2.3,1.3-2.9,2.3
		c-0.6,1-0.8,2-0.3,3.1c1.2,2.6,4.2,2.8,6.8,3.8c2.7,1,0.6,1.7-1.1,2.8c-1.7,1.2-2.6,3-1.3,4.8c1.6,2,4.9,2.1,7.2,1.1
		c3.3-1.5,5.4-2.3,9.5-1.9c2.1,0.2,3.9,1.3,6,1.5c1.1,0.1,2.7,0.1,3.8,0c2.3-0.3,3.9-2.1,6.1-2.5c1.8-0.3,3.6,0.5,5.5,0.2
		c2.6-0.4,2.9-2,4.7-3C911.7,1800,912.9,1799.6,911.8,1797.3"/>
	<path id="XMLID_112_" class="st33" d="M542.4,1769.6c5-1.1,9.9,0.8,14.8,0.3c2.6-0.3,5-1.9,7.7-1.5c1.3,0.2,2.2,0.6,3.6,0.5
		c-0.4-5.6,8.9-11.6,10.7-4.3c1.2,0.3,2.7,0.6,3.9,0.3c0.5-0.1,1.1-0.7,1.5-0.7c2,0,2.8,2.7,4.6,3.3c1.8,0.6,4.3-1.1,6.2-1.3
		c2.2-0.2,2.9,1,4.7,1.5c2.3,0.7,5.4-0.7,7.9-0.5c1.8,0.1,4.7-0.1,6.2,1c1.5,1.1,1.1,1.6-0.2,2.1c-2.1,0.8-5.9-0.3-8.2-0.3
		c-12.3,0-24.4,1.3-36.6,1.3c-6.2,0-12.7,0.2-18.9,0.3c-1.4,0-7.3,0.8-8.4-0.8L542.4,1769.6z"/>
</g>
<g>
	<defs>
		<path id="XMLID_109_" d="M673.1,1911.3c3.7-0.1,7.4-0.2,11-0.2C680.5,1911.1,676.8,1911.2,673.1,1911.3"/>
	</defs>
	<clipPath id="XMLID_208_">
		<use xlink:href="#XMLID_109_"  style="overflow:visible;"/>
	</clipPath>
	
		<linearGradient id="XMLID_209_" gradientUnits="userSpaceOnUse" x1="357.4973" y1="1327.6267" x2="358.498" y2="1327.6267" gradientTransform="matrix(11.0369 0 0 -11.5553 -3272.5046 17252.2324)">
		<stop  offset="0" style="stop-color:#A4D38C"/>
		<stop  offset="0.5449" style="stop-color:#83BB68"/>
		<stop  offset="1" style="stop-color:#A4D38C"/>
	</linearGradient>
	<rect id="XMLID_110_" x="673.1" y="1911.1" class="st34" width="11" height="0.2"/>
</g>
<g>
	<defs>
		<path id="XMLID_107_" d="M652.7,1912.1c6.8-0.3,13.6-0.6,20.4-0.8C666.3,1911.4,659.5,1911.7,652.7,1912.1"/>
	</defs>
	<clipPath id="XMLID_210_">
		<use xlink:href="#XMLID_107_"  style="overflow:visible;"/>
	</clipPath>
	
		<linearGradient id="XMLID_211_" gradientUnits="userSpaceOnUse" x1="373.966" y1="1330.2854" x2="374.9667" y2="1330.2854" gradientTransform="matrix(20.4226 0 0 -12.1957 -6984.6567 18135.4668)">
		<stop  offset="0" style="stop-color:#A4D38C"/>
		<stop  offset="0.5449" style="stop-color:#83BB68"/>
		<stop  offset="1" style="stop-color:#A4D38C"/>
	</linearGradient>
	<rect id="XMLID_108_" x="652.7" y="1911.3" class="st35" width="20.4" height="0.8"/>
</g>
<g>
	<defs>
		<path id="XMLID_105_" d="M454.7,1944.6c4.8,0.1,9.5,0.2,14.3,0.1C464.3,1944.6,459.5,1944.6,454.7,1944.6z"/>
	</defs>
	<clipPath id="XMLID_212_">
		<use xlink:href="#XMLID_105_"  style="overflow:visible;"/>
	</clipPath>
	
		<linearGradient id="XMLID_213_" gradientUnits="userSpaceOnUse" x1="365.672" y1="1327.5295" x2="366.6726" y2="1327.5295" gradientTransform="matrix(14.3042 0 0 -11.5331 -4775.9087 17255.1895)">
		<stop  offset="0" style="stop-color:#A4D38C"/>
		<stop  offset="0.5449" style="stop-color:#83BB68"/>
		<stop  offset="1" style="stop-color:#A4D38C"/>
	</linearGradient>
	<rect id="XMLID_106_" x="454.7" y="1944.6" class="st36" width="14.3" height="0.2"/>
</g>
<path id="XMLID_113_" class="st37" d="M1398.1,1845.3H872.7c-52.8,0-73.9,0-112,10.5c-38,10.5-82.4,19-122.5,19
	c-40.1,0-90.8-2.1-232.3-4.2c-128-1.9-364.3,6.5-408.5,8.1v85h1400.8V1845.3z"/>
</svg>
