<?xml version="1.0" encoding="utf-8"?>
<!-- Generator: Adobe Illustrator 19.0.0, SVG Export Plug-In . SVG Version: 6.00 Build 0)  -->
<svg version="1.1" id="Layer_1" xmlns="http://www.w3.org/2000/svg" xmlns:xlink="http://www.w3.org/1999/xlink" x="0px" y="0px"
	 viewBox="-42 52.5 525.3 689.5" style="enable-background:new -42 52.5 525.3 689.5;" xml:space="preserve">
<style type="text/css">
	.st0{fill:#9DDCF9;}
	.st1{clip-path:url(#SVGID_2_);fill:url(#SVGID_3_);}
	.st2{clip-path:url(#SVGID_5_);fill:url(#SVGID_6_);}
	.st3{clip-path:url(#SVGID_8_);fill:url(#SVGID_9_);}
	.st4{clip-path:url(#SVGID_11_);fill:url(#SVGID_12_);}
	.st5{clip-path:url(#SVGID_14_);fill:url(#SVGID_15_);}
	.st6{clip-path:url(#SVGID_17_);fill:url(#SVGID_18_);}
	.st7{clip-path:url(#SVGID_20_);fill:url(#SVGID_21_);}
	.st8{clip-path:url(#SVGID_23_);fill:#948D8A;}
	.st9{clip-path:url(#SVGID_25_);fill:#7D9AAE;}
	.st10{clip-path:url(#SVGID_27_);fill:#62889E;}
	.st11{clip-path:url(#SVGID_29_);fill:#62889E;}
	.st12{clip-path:url(#SVGID_31_);fill:#6A8DA2;}
	.st13{clip-path:url(#SVGID_33_);fill:#C2D298;}
	.st14{clip-path:url(#SVGID_35_);fill:url(#SVGID_36_);}
	.st15{clip-path:url(#SVGID_38_);fill:#4A6623;}
	.st16{clip-path:url(#SVGID_40_);fill:url(#SVGID_41_);}
	.st17{clip-path:url(#SVGID_43_);fill:#4A6623;}
	.st18{clip-path:url(#SVGID_45_);fill:url(#SVGID_46_);}
	.st19{clip-path:url(#SVGID_48_);fill:#4A6623;}
	.st20{clip-path:url(#SVGID_50_);fill:url(#SVGID_51_);}
	.st21{clip-path:url(#SVGID_53_);fill:#4D6A26;}
	.st22{clip-path:url(#SVGID_55_);fill:url(#SVGID_56_);}
	.st23{clip-path:url(#SVGID_58_);fill:url(#SVGID_59_);}
	.st24{clip-path:url(#SVGID_61_);fill:url(#SVGID_62_);}
	.st25{clip-path:url(#SVGID_64_);fill:#4D6A26;}
	.st26{clip-path:url(#SVGID_66_);fill:url(#SVGID_67_);}
	.st27{clip-path:url(#SVGID_69_);fill:#687B2A;}
	.st28{clip-path:url(#SVGID_71_);fill:#476322;}
	.st29{clip-path:url(#SVGID_73_);fill:#687B2A;}
	.st30{clip-path:url(#SVGID_75_);fill:#476322;}
	.st31{clip-path:url(#SVGID_77_);fill:#98928E;}
	.st32{clip-path:url(#SVGID_79_);fill:#CAC5C2;}
	.st33{clip-path:url(#SVGID_81_);fill:#A7A19E;}
	.st34{clip-path:url(#SVGID_83_);fill:#A7A19E;}
	.st35{clip-path:url(#SVGID_85_);fill:#857E7B;}
	.st36{clip-path:url(#SVGID_87_);fill:#6A635F;}
	.st37{clip-path:url(#SVGID_89_);fill:url(#SVGID_90_);}
	.st38{clip-path:url(#SVGID_92_);fill:#D4C99E;}
	.st39{clip-path:url(#SVGID_94_);fill:#D4C99E;}
	.st40{clip-path:url(#SVGID_96_);fill:url(#SVGID_97_);}
	.st41{clip-path:url(#SVGID_99_);fill:url(#SVGID_100_);}
	.st42{clip-path:url(#SVGID_102_);fill:url(#SVGID_103_);}
	.st43{clip-path:url(#SVGID_105_);fill:#687B2A;}
	.st44{clip-path:url(#SVGID_107_);fill:#476322;}
	.st45{clip-path:url(#SVGID_109_);fill:url(#SVGID_110_);}
	.st46{clip-path:url(#SVGID_112_);fill:#687B2A;}
	.st47{clip-path:url(#SVGID_114_);fill:#476322;}
	.st48{clip-path:url(#SVGID_116_);fill:#476322;}
	.st49{clip-path:url(#SVGID_118_);fill:url(#SVGID_119_);}
	.st50{clip-path:url(#SVGID_121_);fill:#98928E;}
	.st51{clip-path:url(#SVGID_123_);fill:#69625E;}
	.st52{clip-path:url(#SVGID_125_);fill:#D4C99E;}
	.st53{clip-path:url(#SVGID_127_);fill:url(#SVGID_128_);}
	.st54{clip-path:url(#SVGID_130_);fill:url(#SVGID_131_);}
	.st55{clip-path:url(#SVGID_133_);fill:#E0D7B6;}
	.st56{clip-path:url(#SVGID_135_);fill:#E0D7B6;}
	.st57{fill:#5C6679;}
	.st58{fill:#3E485A;}
	.st59{fill:#948D8A;}
	.st60{fill:#7E7874;}
	.st61{fill:#6E6764;}
	.st62{fill:#BEB9B6;}
	.st63{clip-path:url(#SVGID_137_);fill:url(#SVGID_138_);}
	.st64{clip-path:url(#SVGID_140_);fill:url(#SVGID_141_);}
	.st65{clip-path:url(#SVGID_143_);fill:#687B2A;}
	.st66{clip-path:url(#SVGID_145_);fill:#476322;}
	.st67{clip-path:url(#SVGID_147_);fill:#FFFFFF;}
	.st68{clip-path:url(#SVGID_149_);fill:#8AACD0;}
	.st69{clip-path:url(#SVGID_151_);fill:#7E7874;}
	.st70{clip-path:url(#SVGID_153_);fill:#C1BBB9;}
	.st71{clip-path:url(#SVGID_155_);fill:#9F725C;}
	.st72{clip-path:url(#SVGID_157_);fill:#1A496A;}
	.st73{clip-path:url(#SVGID_159_);fill:#6F8BA9;}
	.st74{clip-path:url(#SVGID_161_);fill:#1A496A;}
	.st75{clip-path:url(#SVGID_163_);fill:#6F8BA9;}
	.st76{clip-path:url(#SVGID_165_);fill:#1A496A;}
	.st77{clip-path:url(#SVGID_167_);fill:#6F8BA9;}
	.st78{clip-path:url(#SVGID_169_);fill:#6F8BA9;}
	.st79{clip-path:url(#SVGID_171_);fill:#6F8BA9;}
	.st80{clip-path:url(#SVGID_173_);fill:#6F8BA9;}
	.st81{clip-path:url(#SVGID_175_);fill:#6F8BA9;}
	.st82{clip-path:url(#SVGID_177_);fill:#1A496A;}
	.st83{clip-path:url(#SVGID_179_);fill:#6F8BA9;}
	.st84{clip-path:url(#SVGID_181_);fill:#1A496A;}
	.st85{clip-path:url(#SVGID_183_);fill:#6F8BA9;}
	.st86{clip-path:url(#SVGID_185_);fill:#1A496A;}
	.st87{clip-path:url(#SVGID_187_);fill:#6F8BA9;}
	.st88{clip-path:url(#SVGID_189_);fill:#6F8BA9;}
	.st89{clip-path:url(#SVGID_191_);fill:#6F8BA9;}
	.st90{clip-path:url(#SVGID_193_);fill:#6F8BA9;}
	.st91{clip-path:url(#SVGID_195_);fill:#6F8BA9;}
	.st92{clip-path:url(#SVGID_197_);fill:#1A496A;}
	.st93{clip-path:url(#SVGID_199_);fill:#6F8BA9;}
	.st94{clip-path:url(#SVGID_201_);fill:#1A496A;}
	.st95{clip-path:url(#SVGID_203_);fill:#6F8BA9;}
	.st96{clip-path:url(#SVGID_205_);fill:#1A496A;}
	.st97{clip-path:url(#SVGID_207_);fill:#6F8BA9;}
	.st98{clip-path:url(#SVGID_209_);fill:#1A496A;}
	.st99{clip-path:url(#SVGID_211_);fill:#6F8BA9;}
	.st100{clip-path:url(#SVGID_213_);fill:#1A496A;}
	.st101{clip-path:url(#SVGID_215_);fill:#6F8BA9;}
	.st102{clip-path:url(#SVGID_217_);fill:#6F8BA9;}
	.st103{clip-path:url(#SVGID_219_);fill:#6F8BA9;}
	.st104{clip-path:url(#SVGID_221_);fill:#6F8BA9;}
	.st105{clip-path:url(#SVGID_223_);fill:#6F8BA9;}
	.st106{clip-path:url(#SVGID_225_);fill:#8D5C45;}
	.st107{clip-path:url(#SVGID_227_);fill:#9F725C;}
	.st108{clip-path:url(#SVGID_229_);fill:#9F725C;}
	.st109{clip-path:url(#SVGID_231_);fill:#B2C6E0;}
	.st110{clip-path:url(#SVGID_233_);fill:#A75F2E;}
	.st111{clip-path:url(#SVGID_235_);fill:#68615E;}
	.st112{clip-path:url(#SVGID_237_);fill:#678039;}
	.st113{clip-path:url(#SVGID_239_);fill:#59772D;}
	.st114{clip-path:url(#SVGID_241_);fill:#476322;}
	.st115{clip-path:url(#SVGID_243_);fill:#678039;}
	.st116{clip-path:url(#SVGID_245_);fill:#547129;}
	.st117{clip-path:url(#SVGID_247_);fill:#678039;}
	.st118{clip-path:url(#SVGID_249_);fill:#526C2B;}
	.st119{clip-path:url(#SVGID_251_);fill:#678039;}
	.st120{clip-path:url(#SVGID_253_);fill:#526C2B;}
	.st121{clip-path:url(#SVGID_255_);fill:#59772D;}
	.st122{clip-path:url(#SVGID_257_);fill:#476322;}
	.st123{clip-path:url(#SVGID_259_);fill:#59772D;}
	.st124{clip-path:url(#SVGID_261_);fill:#59772D;}
	.st125{clip-path:url(#SVGID_263_);fill:#59772D;}
	.st126{clip-path:url(#SVGID_265_);fill:#59772D;}
	.st127{clip-path:url(#SVGID_267_);fill:#526C2B;}
	.st128{clip-path:url(#SVGID_269_);fill:url(#SVGID_270_);}
	.st129{clip-path:url(#SVGID_272_);fill:#586E1C;}
</style>
<rect x="-40.8" y="52.5" class="st0" width="524.3" height="679.4"/>
<g>
	<g>
		<defs>
			<path id="SVGID_1_" d="M416,220.5c-65.9,35.3-177.1,87-332.9,130.3c155.9-43.3,267.4-94.1,333.4-129.4
				c27.7-14.8,49.9-28.2,66.8-39v-1.2C466.4,192,444,205.5,416,220.5"/>
		</defs>
		<clipPath id="SVGID_2_">
			<use xlink:href="#SVGID_1_"  style="overflow:visible;"/>
		</clipPath>
		
			<linearGradient id="SVGID_3_" gradientUnits="userSpaceOnUse" x1="-119.0625" y1="43.1635" x2="-118.0625" y2="43.1635" gradientTransform="matrix(-279.7864 119.3355 -119.3355 -279.7864 -27678.9004 26465.9668)">
			<stop  offset="0" style="stop-color:#C5E8F3"/>
			<stop  offset="0.1161" style="stop-color:#BFE6F4"/>
			<stop  offset="0.6522" style="stop-color:#A6DFF7"/>
			<stop  offset="1" style="stop-color:#9DDCF9"/>
		</linearGradient>
		<polygon class="st1" points="544.5,324.6 144.8,495.1 22,207.2 421.7,36.7 		"/>
	</g>
</g>
<g>
	<g>
		<defs>
			<path id="SVGID_4_" d="M405.5,198.6c-55.1,38.6-146.7,91.7-271.2,123.3C259,290.3,351,238,406.1,199.4
				c37-25.9,62.8-49.2,77.2-63.2v-1.4C469.1,148.7,443.1,172.2,405.5,198.6"/>
		</defs>
		<clipPath id="SVGID_5_">
			<use xlink:href="#SVGID_4_"  style="overflow:visible;"/>
		</clipPath>
		
			<linearGradient id="SVGID_6_" gradientUnits="userSpaceOnUse" x1="-119.0625" y1="43.1548" x2="-118.0625" y2="43.1548" gradientTransform="matrix(-279.7555 119.3224 -119.3224 -279.7555 -27686.4297 26438.0859)">
			<stop  offset="0" style="stop-color:#C5E8F3"/>
			<stop  offset="0.1161" style="stop-color:#BFE6F4"/>
			<stop  offset="0.6522" style="stop-color:#A6DFF7"/>
			<stop  offset="1" style="stop-color:#9DDCF9"/>
		</linearGradient>
		<polygon class="st2" points="550.9,293.1 188,447.9 66.7,163.6 429.6,8.8 		"/>
	</g>
</g>
<g>
	<g>
		<defs>
			<path id="SVGID_7_" d="M348.9,324.3c0-0.5,0-1,0.1-1.6C348.8,323.2,348.8,323.7,348.9,324.3"/>
		</defs>
		<clipPath id="SVGID_8_">
			<use xlink:href="#SVGID_7_"  style="overflow:visible;"/>
		</clipPath>
		
			<linearGradient id="SVGID_9_" gradientUnits="userSpaceOnUse" x1="-63.2959" y1="90.1062" x2="-62.2959" y2="90.1062" gradientTransform="matrix(0 0.8976 0.8976 0 267.9707 379.7335)">
			<stop  offset="0" style="stop-color:#C5E8F3"/>
			<stop  offset="0.1161" style="stop-color:#BFE6F4"/>
			<stop  offset="0.6522" style="stop-color:#A6DFF7"/>
			<stop  offset="1" style="stop-color:#9DDCF9"/>
		</linearGradient>
		<rect x="348.8" y="322.7" class="st3" width="0.1" height="1.6"/>
	</g>
</g>
<g>
	<g>
		<defs>
			<path id="SVGID_10_" d="M348.9,345.1c0,0.5,0,1-0.1,1.5C348.8,346,348.8,345.5,348.9,345.1 M-40.8,243.3v474.5h524.3V366.7
				c-5.1-3.2-9.9-4.8-11.6,0.9c-3.1-8.7-11.2-15.4-20.2-18.7c-3.8-1.4-9.3-2.7-10.8,0.6c0,1.2,0,2.5-0.1,3.9c-0.4-1.7-0.3-3,0.1-3.9
				c-0.2-10.4-5.2-15.8-18.2-17.3c-16.1-1.9-48.4-4.3-53.2,15.8c-4.4-5.9-12.2-6.2-19.6-5.6c-0.3,1.1-0.8,1.8-1,2.8
				c0.2-7.8-0.5-15.6-6-22c-0.9-1-6.4-4.5-7-5.6c-1.4-2.5,0.3-9.2,0-11.8c-1.5-12.4-3.4-27-16.8-31.1c-4.9-1.5-13.7-3.6-17.4,3.1
				c7.2-43.1-91.4-39.3-86.8,0.3c-15.4,3.7-21.3,9.5-23.6,23.7c-8.9-11.8-29.6-10.7-41.3-3.8c-4.5,2.6-10,13.1-15,12.3
				c-0.7-5.4-3.2-12.4-2.3-17.7c0.9-5.2,3.8-8.5,3.1-14.5c-1.7-14.1-31.1-35.1-39.9-15.3c-9.6-13.3-31.7,1.2-36.1,12.3
				c-1.4-5.2-6.8-11-12.9-10.2c0.1-7.9-3.1-11.4-6-18.3c-2.9-7-3-14.1-9-20.2c-5.7-5.8-14.9-8.4-25-8.4
				C-13,218-36.3,228.2-40.8,243.3"/>
		</defs>
		<clipPath id="SVGID_11_">
			<use xlink:href="#SVGID_10_"  style="overflow:visible;"/>
		</clipPath>
		
			<linearGradient id="SVGID_12_" gradientUnits="userSpaceOnUse" x1="-118.8256" y1="43.4895" x2="-117.8256" y2="43.4895" gradientTransform="matrix(0 286.6956 286.6956 0 -12246.9092 34339.4375)">
			<stop  offset="0" style="stop-color:#C5E8F3"/>
			<stop  offset="0.1161" style="stop-color:#BFE6F4"/>
			<stop  offset="0.6522" style="stop-color:#A6DFF7"/>
			<stop  offset="1" style="stop-color:#9DDCF9"/>
		</linearGradient>
		<rect x="-40.8" y="218" class="st4" width="524.3" height="499.8"/>
	</g>
</g>
<g>
	<g>
		<defs>
			<path id="SVGID_13_" d="M440.9,331.5c0.1-1.4,0.1-2.8,0.1-4.1C440.6,328.3,440.5,329.7,440.9,331.5"/>
		</defs>
		<clipPath id="SVGID_14_">
			<use xlink:href="#SVGID_13_"  style="overflow:visible;"/>
		</clipPath>
		
			<linearGradient id="SVGID_15_" gradientUnits="userSpaceOnUse" x1="-97.6935" y1="61.2183" x2="-96.6935" y2="61.2183" gradientTransform="matrix(0 2.3467 2.3467 0 297.0891 557.0744)">
			<stop  offset="0" style="stop-color:#C5E8F3"/>
			<stop  offset="0.1161" style="stop-color:#BFE6F4"/>
			<stop  offset="0.6522" style="stop-color:#A6DFF7"/>
			<stop  offset="1" style="stop-color:#9DDCF9"/>
		</linearGradient>
		<rect x="440.5" y="327.4" class="st5" width="0.5" height="4.1"/>
	</g>
</g>
<g>
	<g>
		<defs>
			<path id="SVGID_16_" d="M506.1,504.6c-3.3,0.2-5.4,2.4-8.1,2.8c-1.5,0.2-2.9-0.1-4.3-0.4c-1.8-0.4-3.6-0.7-6,0
				c-6.9,2.1-12.6,8.3-13.9,15.3c-0.6,3,0.5,5.8-1,8.2c-4.1,6.5-12,6.4-11,15.4c-6.7,1.7-7.3-3.1-13.7-5.1
				c-7.7-2.4-21.1,3.2-21.7,12.3c-6,1.4-19.1,8.7-15.4,16.3c-8.2,0.5-21.2,3.3-19,14.9c-5.9,1.2-11.8,6.2-14.1,11.7
				c-2.2-7-1.9-18.6-7.2-24.1c-4-4.1-5-2.7-11-3.2c-4.3-15.5-20.1-24.5-36.9-13.1c-1.7-4.5-5-4.9-9.3-4.1
				c-12.3,2.4-13.5,15.7-18.1,23.9c-0.9,1.6-2.5,2-3.6,3.6c-4.7,6.6-6.6,5.4-8.6,13.5c-3.2,13-1.8,19.5,5,30.2
				c-6,0.8-17.3,6.8-19.4,13.1c-2.3-4.7-5.3-10.3-11.3-9.6c-5.7,0.6-14.5,8.7-16.2,14c-6.1,0.6-14.4,8.8-16,14.7
				c-1.9,6.9,3.9,10.8,5.2,17.1c1.5,7.4-2.2,13.4,5.6,18.5c3.1,2,3.5,1.6,6.9,2.1c4.5,0.6,9.5,0.1,14.1,0
				c22.5-0.2,44.6-1.3,67.1,0.9c21.2,2.1,42.8,5.7,64.2,5.8c6.3,0,12.6-0.4,18.8-0.7c10.3-0.6,20.6-1.3,31.1-0.1
				c26.8,3.1,53.4,1,80.1-1.1v-188c-2.6-3.1-6.6-4.8-11.1-4.8C506.9,504.5,506.5,504.5,506.1,504.6"/>
		</defs>
		<clipPath id="SVGID_17_">
			<use xlink:href="#SVGID_16_"  style="overflow:visible;"/>
		</clipPath>
		
			<linearGradient id="SVGID_18_" gradientUnits="userSpaceOnUse" x1="-118.6518" y1="43.3331" x2="-117.6518" y2="43.3331" gradientTransform="matrix(0 143.5988 143.5988 0 -5851.8252 17583.9258)">
			<stop  offset="0" style="stop-color:#FFFDE7"/>
			<stop  offset="0.2019" style="stop-color:#E4F3EB"/>
			<stop  offset="0.5418" style="stop-color:#BFE6F1"/>
			<stop  offset="0.82" style="stop-color:#A6DFF6"/>
			<stop  offset="1" style="stop-color:#9DDCF9"/>
		</linearGradient>
		<rect x="223.3" y="504.5" class="st6" width="294.9" height="197"/>
	</g>
</g>
<g>
	<g>
		<defs>
			<path id="SVGID_19_" d="M9.4,460.4l-0.7,2.9c-6.7-4.8-15.5-8.4-23.9-5.7c-7.9,2.6-14.3,7.8-21.8,7.9c-1.6,0-2.8-0.1-3.8-0.2v99.9
				c1.7,0,3.5,0.1,4.7,0.5c3.4,1.1,9.1,3.2,12.1,5c2.1,1.3,2.3,2.8,4,4c6.7,4.7,15.4,7.3,23.5,7.3c8.6,0,11.2-4.6,18.5-7.4
				c12.5-4.9,32.6,2.1,45,4.6c4.2,0.9,16.1,5.9,20.2,3.6c2.6-1.4,3.4-6,4.8-8.3c2.7-4.6,6.1-8,10.5-11c6.7-4.5,13.8-2.6,21.4-0.6
				c4.7,1.2,9.6,2.5,14.6,2.1c12.6-1,19.4-4.4,33.2-5.9c17.5-1.9,40.9-22.7,57.6-16.9c9.3,3.2,19.1,10.8,28.8,11.8
				c7.6-11.8,25.6-14.1,37.4-19.2c3.1-1.3,4.8,0.2,5.2-3.7c0.7-5.9-11.6-11.2-16.4-11.1c-7.2,0.2-11.5,6.1-16.7,9.5
				c-0.1-7.3-0.5-17.1-3.3-23.9c-4.8-11.6-31.6-22.9-41.2-12.9c-5.6-3.7-39.2-17.5-37.5-1c-4.3-11.4-31.4-11.5-34.6-0.7
				c0.6-6-1.3-11.4-5.1-16.1c-3.2-3.9-3.7-5.1-5.9-8.9c-3-5.3-19.7-16.4-22.2-5.1c-2.8-17.9-27-7.3-25.8,6.9
				c-5,1.2-8.6,4.1-12.4,7.7c-3.4-3.9-5.4-11.5-11.8-11.5c-1.7-11.5-7.8-23.9-20.2-24.6c-1.1-0.1-2.2-0.1-3.4-0.1
				C30.1,439.4,7.7,443.6,9.4,460.4"/>
		</defs>
		<clipPath id="SVGID_20_">
			<use xlink:href="#SVGID_19_"  style="overflow:visible;"/>
		</clipPath>
		
			<linearGradient id="SVGID_21_" gradientUnits="userSpaceOnUse" x1="-118.3944" y1="43.8557" x2="-117.3944" y2="43.8557" gradientTransform="matrix(0 82.5692 82.5692 0 -3490.8806 10230.9834)">
			<stop  offset="0" style="stop-color:#C5E8F3"/>
			<stop  offset="0.1161" style="stop-color:#BFE6F4"/>
			<stop  offset="0.6522" style="stop-color:#A6DFF7"/>
			<stop  offset="1" style="stop-color:#9DDCF9"/>
		</linearGradient>
		<rect x="-40.8" y="439.4" class="st7" width="342.1" height="145.8"/>
	</g>
</g>
<g>
	<g>
		<defs>
			<rect id="SVGID_22_" x="-77" y="-38.2" width="595.3" height="841.9"/>
		</defs>
		<clipPath id="SVGID_23_">
			<use xlink:href="#SVGID_22_"  style="overflow:visible;"/>
		</clipPath>
		<path class="st8" d="M201.2,696.1v-25.2l-0.7-3l-0.8,2.5v-3l-0.1-1.3l-0.2,1.1l-0.7-3.3l-0.7,3l-3.8-26.2l-3.7,26.3l-0.5-3.2
			l-0.5,3.2l-0.3-0.7l-0.1,1.7l-0.1,2.4l-0.6-2.4l-0.7,2.9V696c1.8,0.8,2.8,1.5,7,1.6C197.4,697.7,199.4,697,201.2,696.1"/>
	</g>
	<g>
		<defs>
			<rect id="SVGID_24_" x="-77" y="-38.2" width="595.3" height="841.9"/>
		</defs>
		<clipPath id="SVGID_25_">
			<use xlink:href="#SVGID_24_"  style="overflow:visible;"/>
		</clipPath>
		<path class="st9" d="M-40.8,700.3c1.1-0.7,3-1.4,4.3-1.6c0.8-0.1,1.7,0.1,2.4,0c0.9-0.2,1.6-1,2.7-0.9c0.8,0.1,1,0.8,1.7,0.9
			c0.4,0.1,2.8-2.4,3.1-2.7c1.3-1,3.1-2.2,4.8-2.1c1.2,0.1,1.8,0.5,2.4,1.5c0.7-0.3,1.1-1.1,1.7-1.5c1-0.8,2.1-1,3.3-1.1
			c0.4,0,0.7,0.2,1.1,0.1c0.9-0.2,1.8-1.2,2.8-1.5c1.3-0.3,2.1-0.1,3.2,0.6c0.8,0.5,2,2.1,2.9,2.3s1.7-0.6,2.4-1.4
			c1.2-1.3,2.4-2.6,4.6-2.2c1.4,0.3,2,1.7,3.3,1.8c1.2,0,1.3-1,2.2-1.8c1.5-1.1,2.3,0,3.8-0.3c0.5-0.1,0.9-0.7,1.5-0.9
			c0.2-0.1,2.2-0.3,2.2-0.4c-0.1-2.3,1.7-3.5,3.9-2.2c1.2-2.1,6.3,1.6,6.1,3.5c1.5,0.1,1.7-0.2,2.8-0.9c1.5-0.8,2.9-0.1,4.4,0.2
			c0,0.3,0.1,0.7,0.1,1c0.8,0.1,1.2-1.1,1.8-1.6c0.4-0.3,1.1-0.7,1.5-0.9c0.3-0.2,0.5-0.6,1.2-0.7c0.6-0.1,1.2-0.2,1.7-0.3
			c1.4-0.3,1.7-0.1,2.8,0.9c0.3,0.3,0.1,0.6,0.5,0.8c0.3,0.1,0.7-0.1,1,0s0.2,0.6,0.5,0.8c0.2,0.1,0.7,0,0.8,0.1
			c0.5,0.4,0.3,0.9,1.2,0.9c0.6,0,1-0.9,1.8-0.9c0.5-2.7,3.3-2,5.1-2.2c0.3-1.9,2.2-1.9,3.7-2.2c0.8-0.2,0.6-0.7,1.7,0
			c1,0.6,3.4,2.8,3.5,4l1.6,2.5c0,0.8,0,1.6,0,2.3c-5.5,1.3-10.8,2.7-16.4,3.3c-5.3,0.6-10.7,1.2-16,1.4c-4.4,0.1-8.8,0.8-13.2,1.3
			c-2.9,0.3-5.7,0.9-8.6,1.1c-3.1,0.2-6.2,0-9.3,0c-6.3,0.1-12.5,1.1-18.8,1c-1.5,0-17.7,1-21.9,0.2V701
			C-40.6,700.6-40.8,700.3-40.8,700.3"/>
	</g>
	<g>
		<defs>
			<rect id="SVGID_26_" x="-77" y="-38.2" width="595.3" height="841.9"/>
		</defs>
		<clipPath id="SVGID_27_">
			<use xlink:href="#SVGID_26_"  style="overflow:visible;"/>
		</clipPath>
		<path class="st10" d="M10.4,694c0.6-0.7,1.3-0.4,1.7-1.1c0.3-0.5,0.3-1.2,0.9-1.7c0.9-0.7,2.4-0.7,3.3-0.3c0.2-0.5,0.1-1,0.2-1.5
			c0.1-0.5,0.5-0.8,0.8-1.3c0.3-0.4,0.2-0.7,0.9-0.6c0.3,0,0.8,0.4,1,0.5c0.5,0.3,0.5,0.4,0.6,0.9s0,1.7,0.9,1.4
			c1.1-0.3,0-1.7-0.4-2c0.4-0.3,1.6-0.5,2.1-0.2s0.3,0.9,0.6,1.3c0.6,0.6,1.4,0.8,1.9,1.7c-0.9,0.9-1.3,1.2-2.5,1.5
			c-0.5,0.1-1.8,0.6-1,1.3c0.8-0.4,1.7-0.1,2.4-0.3c0.2-0.1,0.3-0.3,0.5-0.4c0.4-0.2,0.9,0,1.3-0.1c1-0.3,2.2-1,3.3-1.2
			c0.4-0.1,0.9-0.2,1.3-0.1c0.7,0.2,0.7,0.9,1.2,1.2c1.5,1,3.1-1.4,3.7-2.5c0.5-1,0.6-1.4,1.7-1.6c1.2-0.3,2.9-0.3,4.2,0.1
			c0.1,0.6-0.2,0.7-0.6,0.9c-0.3,0.2-0.9,0.2-1.1,0.5c-0.1,0.1,0,0.5-0.1,0.7c-0.2,0.3-1.5,1.5-0.7,1.8c0.1,0,1.1-0.6,1.2-0.7
			c0.5-0.5,0.6-1.3,1.3-1.7c0.4-0.2,1.4-0.2,1.8-0.1c1,0.2,1.7,1.5,2.8,1.3c0.8-0.2,1-0.6,2-0.6c0.4,0,0.9,0.1,1.3,0.1
			c0.2-0.9,1.1-0.8,1.8-1c0.8-0.2,1-0.4,1.5-0.9s0.9-1.1,1.7-1.2c0.8-0.1,1.5,0.6,2.2,0.4c0.8-0.3,0.9-0.8,1.9-0.7
			c1.2,0.1,2.3,1.3,2.5,2.5l0.2,1.4c0.1,1.4-1,2.6-2.2,3.1c-3.4,1.4-7.6,0.8-11.3,0.8c-6.7,0-13.4,0.7-20.2,0.5
			c-3.9-0.1-7.7,0-11.6-0.2c-1.8-0.1-4.1-0.2-5.8,0.3C9.5,695.7,10.1,694.4,10.4,694"/>
	</g>
	<g>
		<defs>
			<rect id="SVGID_28_" x="-77" y="-38.2" width="595.3" height="841.9"/>
		</defs>
		<clipPath id="SVGID_29_">
			<use xlink:href="#SVGID_28_"  style="overflow:visible;"/>
		</clipPath>
		<path class="st11" d="M-2.5,694.8c0.3-0.3,0.6-0.5,0.7-0.9c0.2-0.4,0.2-0.7,0.6-1c0.6-0.5,1.6-0.8,2.4-1c0.6-0.2,1.2-0.1,1.8,0.1
			c0.6,0.2,1.3,0.4,1.8,0.8c0.2,0.1,0.5,0.4,0.6,0.6c-0.8,0.2-1.4,1.2-1.2,2c0.5,0.1,0.7-0.4,0.9-0.7c0.2-0.4,0.4-0.5,0.8-0.7
			c0.6-0.3,0.7-0.7,1.1-1.2c0.2-0.3,0.6-0.6,0.9-0.8c0.7-0.5,1.3-0.5,2.2-0.4c0.5,0,1.1,0,1,0.6l-0.1-0.1c0,0.5-0.8,0.7-1.2,0.8
			c-0.4,0.2-0.5,0.3-0.6,0.8c-0.1,0.3-0.1,0.5-0.3,0.8c-0.3,0.4-0.3,0.6-0.3,1.1c0,0.4,0.1,0.5-0.4,0.5c-0.9,0.1-1.8-0.2-2.8,0
			c-0.7,0.1-1.3,0.5-2,0.6c-1,0.2-1.9-0.3-2.9-0.1c-0.6,0.1-1,0.4-1.6,0.4c-0.4,0-0.8,0.1-1.2,0.2c-0.2,0-1,0-1.2-0.1
			C-4.2,696.4-2.8,695.1-2.5,694.8"/>
	</g>
	<g>
		<defs>
			<rect id="SVGID_30_" x="-77" y="-38.2" width="595.3" height="841.9"/>
		</defs>
		<clipPath id="SVGID_31_">
			<use xlink:href="#SVGID_30_"  style="overflow:visible;"/>
		</clipPath>
		<path class="st12" d="M-34,699.8c0.9-0.3,1.4-1.2,2.3-0.5c0.4,0.3,0.5,0.5,1,0.4c0.4-0.1,0.9-0.2,1.3-0.4c1.2-0.4,2.9-0.5,3.5-1.8
			c0.4-0.8,1.3-0.7,1.9-1.4c0.3-0.4,0.3-0.6,0.8-0.8c0.4-0.1,1.7-0.6,2.1-0.4c0.3,0.2,0,0.2,0.2,0.4c0.2,0.4,0.4,0.4,0.8,0.6
			c0.6,0.4-0.1,0.8,0.3,1.3c0.2,0.3,0.9,0.2,1.2,0.1c0.7-0.3,0.9-0.7,1-1.4c0.2-0.8,0.9-0.7,1.3-1.2c0.3-0.4,0.5-0.8,1.1-1
			c0.3-0.1,1.4-0.3,1.7-0.1c0.4,0.2-0.2,0.7-0.4,1c-0.3,0.5-0.7,1.6,0.3,1.7c0.3-0.5,0.4-1,0.6-1.5c0.2-0.6,0.7-0.8,1.2-1.2
			c0.9-0.7,1.5-1,2.7-0.9c0.7,0,1.3,0.2,1.8,0.7c0.2,0.2,0.4,0.4,0.6,0.5c0.6,0.3,1,0.6,1.4,1.2c0.3,0.4,0.7,0.9,0.8,1.5v0.5
			c-0.9,0.2-1.8,0.6-2.8,0.8c-1.2,0.3-2.6,0.2-3.8,0.3c-1.4,0.1-2.8,0.3-4.2,0.6c-2.2,0.4-4.3,0.7-6.5,1s-4.4,0.4-6.6,0.6
			c-2.2,0.2-4.4,0.5-6.5,0.8c-0.8,0.1-1.6,0.3-2.4,0.2C-37.5,699.6-35.1,700.2-34,699.8"/>
	</g>
	<g>
		<defs>
			<rect id="SVGID_32_" x="-77" y="-38.2" width="595.3" height="841.9"/>
		</defs>
		<clipPath id="SVGID_33_">
			<use xlink:href="#SVGID_32_"  style="overflow:visible;"/>
		</clipPath>
		<path class="st13" d="M62.7,693.4c0,0-65.6,0.5-103.6,8.1H63.3L62.7,693.4z"/>
	</g>
</g>
<g>
	<g>
		<defs>
			<path id="SVGID_34_" d="M450.5,667.5c-0.7,1.6-2.4,2.8-2.8,4.7c-0.3,1.5,0.8,3,0.6,4.5c-1.1,0.1-2.2,0-3.4-0.2
				c-1.2-0.2-2.5-0.5-3.7-0.1c-1.7,0.6-3.9,3.2-4.2,5c-0.2,1.1,0.1,2.1,0.5,3l-2.8,2.4c-0.3,0.6-0.7,1.3-1,1.9c-1,2.3-0.3,4.7,0.3,7
				c0.7,2.8,1.7,5.5,4.3,7.1c1.7,1.1,3.6,1,5.5,1.1c3.2,0.2,6.4,0.3,9.7,0.3c5.7-0.2,11.4-0.9,17-1.1c2.4-0.1,4.9,0,7.4,0.1
				c1.9,0.1,3.7,0.2,5.5,0.2v-23.1c-0.9-0.1-2.1,0-2.7-0.4c-0.6-0.4-0.7-1-1.1-1.6c-0.5-0.8-1-1.3-1.8-1.8c-1.2-0.8-2.9-1.7-4.4-1.6
				c-0.1-0.4-0.4-0.8-0.7-1.1s-0.8-0.4-1.1-0.6c-0.5-0.5-0.6-1.5-1-2.1c-2.3-3-4.3,1.2-5.4,3c-0.9-2.7-4.5-1.7-6.1-0.2
				c-1.9-1.2-1.7-3.5-2.3-5.4c-0.4-1.6-1.9-2.9-3.6-3.1c-0.1,0-0.1,0-0.2,0C452.1,665.3,451,666.5,450.5,667.5"/>
		</defs>
		<clipPath id="SVGID_35_">
			<use xlink:href="#SVGID_34_"  style="overflow:visible;"/>
		</clipPath>
		
			<linearGradient id="SVGID_36_" gradientUnits="userSpaceOnUse" x1="-119.8356" y1="44.3385" x2="-118.8356" y2="44.3385" gradientTransform="matrix(-50.2614 0 0 50.2614 -5539.6367 -1543.7161)">
			<stop  offset="0" style="stop-color:#678039"/>
			<stop  offset="0.2184" style="stop-color:#5E7832"/>
			<stop  offset="0.6925" style="stop-color:#4F6B27"/>
			<stop  offset="1" style="stop-color:#4A6623"/>
		</linearGradient>
		<rect x="432.7" y="665.3" class="st14" width="50.7" height="39"/>
	</g>
</g>
<g>
	<g>
		<defs>
			<rect id="SVGID_37_" x="-77" y="-38.2" width="595.3" height="841.9"/>
		</defs>
		<clipPath id="SVGID_38_">
			<use xlink:href="#SVGID_37_"  style="overflow:visible;"/>
		</clipPath>
		<path class="st15" d="M437.7,687.3c0.1-1.5,0.8-2.8,1.3-4.2c0.3-0.7,0.3-1.4,0.8-2c1.4-1.8,4.3-1.7,6.3-1.5c0.6,0,3,0.5,3.6,0.1
			c1.1-0.7,0.5-1.9,0.5-2.7c0-0.3,0.4-1,0.4-1.2c-0.1-0.6-0.7-1-0.9-1.6c-0.2-0.6,0.3-3.2,0.8-3.8c1.5-1.8,4.7,1.1,5.3,2.6
			c0.8,1.9,0,4.4,0.5,6.4c2.7-0.1,3.6,1.3,5,3c1.2,1.4,2.6,1.9,3.1,3.9c0.3,1.3,0.3,2.6,0.4,3.9c0.8-1.2,1.2-3.4,1-4.9
			s-1.1-1.4-2.1-2.4c-1-1.2-0.5-3.1-2.1-3.9c-1-0.5-2.3-0.1-2.7-1.5c-0.3-1,0.3-2.2,1.4-1.9l0.5,0.3c1.5,0.1,2.7,1.3,3.8,2.1
			c1.6,1.2,2.2,1.6,3,3.4c0.5,1.1,1.2,1.9,1.3,3.1c0.1,0.7,0,1.5,0,2.2c4.5-1.9-0.6-7.8-2.1-9.8c1.3-0.4,0.6-2.1,1.9-2.1
			c1.9,0,2.4,2.8,3.1,3.8c0.1,0.2,0.6,0.1,0.8,0.3c0.8,0.6,1.5,1.4,2.2,2.2c0.8,1,1.3,1.9,1.6,3.2c0.5,2.2-0.4,4.3-0.3,6.5
			c2.3-0.1,3.2-2.4,2.9-4.5c-0.1-0.9-0.7-1.8-0.8-2.7c-0.1-0.5,0-0.9-0.2-1.4c1.8,0.6,2.8,2.1,4.1,3.3c0.4,0.3,1,0.6,1.4,0.9v16.1
			c-0.8,0-2.1-0.1-2.2-0.1c-2.5,0.1-5,0.3-7.5,0.6c-6.2,0.6-12.4,0.6-18.6,1c-2.5,0.1-6.7,0.9-9-0.1c-4.7-2.1-5.4-6.9-7.3-11
			C438,691,437.5,689.3,437.7,687.3"/>
	</g>
</g>
<g>
	<g>
		<defs>
			<path id="SVGID_39_" d="M410.7,677c-0.7,0.4-2.1,1.3-2.2,2.2l-5.8,5.3c-4.5,4.2-6.4,13.9,0.6,16.5c2.2,0.8,4.5,1.5,6.7,2.2
				c2.6,0.8,5.5,0.1,8.2-0.1c2.4-0.2,4.7,0,7,0.2c1.6,0.1,3.3,0.3,4.9,0.3c2.3,0,4.4-0.1,6.7-0.5c2.1-0.4,4.2-1.1,6.3-1.4
				c2-0.2,3.9,0.1,5.8,0.4c1.7,0.3,3.5,0.6,5.2,0.5c0.7,0,1.3,0,1.8-0.8c0.3-0.5,0-1,0.1-1.5c0.1-0.6,0.7-1.1,0.9-1.8
				c0.9-2.7-1.2-5-3-6.6c-2-1.7-4-1.6-6.4-1.3c-0.6,0.1-1.2,0.3-1.8,0.4c-0.2,0.1-0.3,0.2-0.5,0.2c-0.3-0.1-0.4-0.6-0.5-0.8
				c-0.4-0.6-1.2-1-1.6-1.5c-0.2-0.3-0.2-0.9-0.3-1.2c-0.5-1.6-1.9-2.5-2.8-3.8c-0.4-0.6-0.6-1.2-1.3-1.5c-1.1-0.5-3.1-0.1-4.3,0.2
				c-1.2,0.3-3.5,0.6-3.2,2.3c-0.2,0-0.5,0-0.7,0c-0.7,0-1.3,0-1.9,0.3c-0.5-0.9-0.4-1.9-1.1-2.8c-0.5-0.7-1.3-1.2-2-1.6
				c-1.4-0.9-2.9-1.1-4.1,0.2c-1.3-1.5-2.8-2.2-4.2-3.3c-0.6-0.4-1-1.1-1.7-1.5c-0.4-0.2-0.9-0.3-1.4-0.3
				C412.9,675.9,411.7,676.4,410.7,677"/>
		</defs>
		<clipPath id="SVGID_40_">
			<use xlink:href="#SVGID_39_"  style="overflow:visible;"/>
		</clipPath>
		
			<linearGradient id="SVGID_41_" gradientUnits="userSpaceOnUse" x1="-119.7222" y1="44.2062" x2="-118.7222" y2="44.2062" gradientTransform="matrix(-58.1519 0 0 58.1519 -6505.2188 -1880.7754)">
			<stop  offset="0" style="stop-color:#678039"/>
			<stop  offset="0.2184" style="stop-color:#5E7832"/>
			<stop  offset="0.6925" style="stop-color:#4F6B27"/>
			<stop  offset="1" style="stop-color:#4A6623"/>
		</linearGradient>
		<rect x="396.3" y="675.9" class="st16" width="61.5" height="28"/>
	</g>
</g>
<g>
	<g>
		<defs>
			<rect id="SVGID_42_" x="-77" y="-38.2" width="595.3" height="841.9"/>
		</defs>
		<clipPath id="SVGID_43_">
			<use xlink:href="#SVGID_42_"  style="overflow:visible;"/>
		</clipPath>
		<path class="st17" d="M405,690c0.1-1.9,0.5-2.6,2-3.9c2-1.8,2.4-3.7,5.3-4.7c1.1-0.4,2.1-0.4,3.3-0.5c0.5,0,2.2-0.5,2.6-0.4
			c1,0.4,2.2,2.7,2.6,3.7c0.5,1.2,0.5,2.5,0.7,3.8c0.9-0.2,2.3-0.2,3.1-0.5c0.8-0.3-0.1-1.1,1.4-1c1.2,0.1,1.2,1,1.7,1.9
			c1,0,2.1,0.7,2.7,1.4c0.2-2.6,2.5-3.6,4.9-3.6c1.5,0,2.7,0.5,3.8,1.5c1,0.9,0.9,2,1.6,2.8c0.5,0.5,1.4,0.4,1.6,1.3
			c0.1,0.6-0.7,0.9-0.6,1.4c0.2,0.9,1.2,0.7,1.7,1.4c0.3,0.4-0.1,0.9,0.2,1.2c0.3,0.3,1.1,0.3,1.2,0.5c0.5,0.7,0.1,2.2,0.3,3
			c1.3-0.4,1.8-3.1,1.3-4.3c-0.2-0.4-1.2-0.8-1.1-1.2c0-0.7,0.5-0.2,0.7-0.4c1-1.1,1.6-0.8,3-0.7c1.6,0.2,2.6,0.1,3.4,1.7
			c0.1,0.2-0.1,0.7,0.1,1s0.6,0.5,0.8,1.1c0.5,1.4-0.3,1.9-0.7,2.8c-0.3,0.9-0.3,1.2-0.9,2.1l-0.9,2.9c-3.8,0.6-7.7,0.3-11.6,0.3
			c-2.8,0-5.8,0.2-8.6-0.4c-2.2-0.5-4.3-1.5-6.6-1.7c-2.4-0.2-4.9,0.1-7.4-0.1c-2-0.1-4.4,0.3-6.2-0.6c-1.7-0.9-4.3-2.4-5.1-4.3
			C404.3,695.5,404.9,692.1,405,690"/>
	</g>
</g>
<g>
	<g>
		<defs>
			<path id="SVGID_44_" d="M396.2,669.4c-1.3,0.2-3.8,1.4-3.7,3c-0.3-0.3-0.7-0.3-1.1-0.4c-0.3-0.1-0.7,0-1.1,0.1s-0.8,0.2-1.1,0.1
				c-0.7-0.2-1.2-1-2.1-1.1c-2.2-0.5-4.4,2.4-4.3,4.4l-3.6,5.8c-0.3-0.1-1.1,0.6-1.4,0.9c-1.2,1-2.5,2.6-2.6,4.2
				c0,0.3,0.2,0.9,0.1,1.2c-0.4,1.1-1.9,1.9-2.5,3c-0.9,1.6-0.4,3.7-0.1,5.5c0.4,2,1.1,3.3,2.9,4.3c3.5,2,7.9,3.1,11.8,3.7
				c8.8,1.3,18.1,1.7,26.9,0.3c3.3-0.5,6.8-0.9,10-1.9c0.6-0.2,1.1-0.4,1.8-0.4c0.1-0.8,0-1.4-0.3-2.1c-0.7-1.6-2-1.5-3.4-1.4
				c-0.7,0-1.4,0.1-2.1-0.1c-0.6-0.1-1.1-0.9-1.7-1.1c-1.6-0.5-2.6,0.5-3.9,0.9c-1.5,0.4-3.2,0-4.6,0.5c0.8-0.7,0.4-2.4-0.1-3.1
				c1.2-1,0.4-3-0.7-3.7c0.1-0.7,0.7-1.3,1.2-1.8c0.9-0.8,1.2-0.3,2.4-0.7c1.3-0.3,1.8-1,2.1-2.2c0.1-0.3,0-0.4,0.1-0.6
				c0.1-0.3,0.6-0.5,0.8-0.8c0.6-1.3-0.1-3.1-1-4.1c-0.6-0.6-0.5-0.7-0.8-1.3c-1.2-2-4.5-3.8-6.7-2.5c0.8-1.9,0-4.6-1.7-5.8
				c-0.9-0.6-1.8-0.6-2.7-1c-0.2-0.1-0.3-0.3-0.6-0.4c-1.6-0.8-3.2-1.4-4.9-1.4C396.9,669.3,396.5,669.4,396.2,669.4"/>
		</defs>
		<clipPath id="SVGID_45_">
			<use xlink:href="#SVGID_44_"  style="overflow:visible;"/>
		</clipPath>
		
			<linearGradient id="SVGID_46_" gradientUnits="userSpaceOnUse" x1="-119.7884" y1="44.2847" x2="-118.7884" y2="44.2847" gradientTransform="matrix(-53.3242 0 0 53.3242 -5961.623 -1673.9985)">
			<stop  offset="0" style="stop-color:#678039"/>
			<stop  offset="0.2184" style="stop-color:#5E7832"/>
			<stop  offset="0.6925" style="stop-color:#4F6B27"/>
			<stop  offset="1" style="stop-color:#4A6623"/>
		</linearGradient>
		<rect x="371.8" y="669.3" class="st18" width="54.2" height="36.3"/>
	</g>
</g>
<g>
	<g>
		<defs>
			<rect id="SVGID_47_" x="-77" y="-38.2" width="595.3" height="841.9"/>
		</defs>
		<clipPath id="SVGID_48_">
			<use xlink:href="#SVGID_47_"  style="overflow:visible;"/>
		</clipPath>
		<path class="st19" d="M382.8,686.6c0.2-2.4,1.3-3.2,2.3-5.2c0.8-1.7-0.1-3.7,0.9-5.3c0.4-0.6,1.6-1.7,2.2-2c0.9-0.4,1.5,0.3,2.3,0
			c0.6-0.3,0.5-1.2,1.2-1.4c0.8-0.2,2.3,1.5,3.2,1.7c0-1.2,1.7-3.2,2.8-3.3c1.3,0,2.1,1.7,3.2,2.1c1.1,0.4,3-0.1,4,0.9
			c0.5,0.5,0.9,1.5,0,2c-0.6,0.4-0.4-0.2-0.9-0.3c-1.3-0.4-2.2-0.8-3.7-0.7c0.7,0.5,1.4,0.4,2.1,1.1c0.9,1,0.6,2.4,0.7,3.6
			c1,0.1,1.8-0.3,2.8,0.1c0.8,0.3,2.2,1.3,2.9,1.9c1.6,1.5,3.3,3.9,0.3,5c-0.7,0.3-2.7,0.8-3.4,0.1c-1-1,0.1-1.6-1.9-2.1
			c-1.1-0.3-4.2-0.9-4.3,0.8c2,0.2,5.4,1.9,6.3,3.8c0.4,0.8,0.3,1.6,0.7,2.2c1.2,0,2.1,1.7,2.2,2.6c0.2,2.1-2.8,5-4.8,5l-3.8,1.2
			c-0.8,0.1-1.5-0.4-2.2-0.5c-2.4-0.4-4.1,0-6-1.9c-1.3-1.3-1.8-2.5-3.6-3.4c-1-0.5-3-0.2-3.7-1c-0.3-0.4-0.4-1.8-0.6-2.3
			C383.1,689.8,382.6,688.7,382.8,686.6"/>
	</g>
</g>
<g>
	<g>
		<defs>
			<path id="SVGID_49_" d="M367.5,673.5c-1.5,0.2-2.5,0.7-3.6,1.6c-0.3,0.2-0.4,0.5-0.7,0.7c-0.7,0.5-1.4,0.7-1.9,1.3
				c-0.4-1.6-2.4,0.8-2.9,1.3c-1,1.1-1.1,2.5-1.5,3.8l-3.7,2.5c-0.9,0.8-1.8,1.7-2.3,2.9c-0.6,1.5,0.2,1.8,0.8,3
				c0.7,1.5,0.2,3.3,0.7,4.9c0.7,2.3,2.7,4.2,5.2,4.5c1.3,0.2,2.7,0,4.1-0.1c0.2,0,1.1-0.1,1.4,0c1,0.4,1.2,1.7,1.8,2.5
				c3.3,4,9.8,1.6,14,1.3c2-0.1,4.3,0.4,6.3,0.6c3.1,0.3,6.1,1,9.2,1c2.7,0,6.6,0,8.3-2.5c0.3-0.4,0.5-1.1,0.7-1.4
				c0.4-0.9,0.9-1.4,0.9-2.6c-0.1-1.4-0.8-2.9-2.3-3.4c-0.3-0.1-0.7-0.1-1.1-0.1c-0.3,0-0.5,0-0.8,0c0-2.8-4.9-4.8-7.2-4.7
				c0-1-0.5-1.4-0.7-2.3c-0.2-0.7-0.2-0.4,0.1-1.2c0.1-0.3,0.2-0.6,0.3-0.9c0.6-2.4,0.1-5.3-2.5-6.3c-0.8-0.3-0.7,0.1-1-0.5
				c-0.2-0.4,0-1.3,0-1.7c-0.1-1.4-0.4-2.2-1.7-2.8c-2.1-1-5.1-0.8-7.3-0.2c-1.3,0.3-2.2,1.1-3.3,1.6c-1-2.1-3.3,0.1-4.4,0.7
				c-0.8-0.4-0.5-1.6-0.9-2.3c-0.6-1.1-1.6-1.4-2.7-1.4C368.4,673.4,367.9,673.5,367.5,673.5"/>
		</defs>
		<clipPath id="SVGID_50_">
			<use xlink:href="#SVGID_49_"  style="overflow:visible;"/>
		</clipPath>
		
			<linearGradient id="SVGID_51_" gradientUnits="userSpaceOnUse" x1="-119.692" y1="44.9429" x2="-118.692" y2="44.9429" gradientTransform="matrix(-35.2405 10.7993 10.7993 35.2405 -4296.3564 389.5609)">
			<stop  offset="0" style="stop-color:#C8B82C"/>
			<stop  offset="0.619" style="stop-color:#798429"/>
			<stop  offset="1" style="stop-color:#4D6A26"/>
		</linearGradient>
		<polygon class="st20" points="399.6,658.3 341,676.2 354.9,721.5 413.5,703.6 		"/>
	</g>
</g>
<g>
	<g>
		<defs>
			<rect id="SVGID_52_" x="-77" y="-38.2" width="595.3" height="841.9"/>
		</defs>
		<clipPath id="SVGID_53_">
			<use xlink:href="#SVGID_52_"  style="overflow:visible;"/>
		</clipPath>
		<path class="st21" d="M359.5,685.5l1.6-5.5c-0.3-2.6,6.3-5.2,6.4-1.6c1.3-0.5,2.2,1.5,2.6,2.4c0.6-0.4,1.3-0.4,1.8-0.7
			c0.9-0.6,1.4-1.3,2.6-1.3c3.2,0,6.7,3.8,6.9,6.8c1.4-1.4,1-3.7-0.1-5.2c-0.8-1.1-2-1-2.8-1.9c0.7-0.7,2.1-1.1,3.1-1.2
			c1.3-0.1,1.8,0.6,2.8,1c1.2,0.4,1.8,0.3,2.7,1.4c0.8,0.9,0.7,1.4,0.8,2.4c0.3,2,2.6,2.8,2.2,5.2c-0.2,0.9-0.9,1-1.2,1.8
			c-0.2,0.5,0,1.5,0,2c0.8,0.2,1.9,0.9,1.9,1.9c1.8-0.1,2.9,1.6,2.8,3.2c-0.9-0.9-1.8-1.3-3-1.7c-1.4-0.4-5.2-1.1-5.6,1.1
			c0.8,0.2,2-0.6,2.9-0.7c0.7-0.1,1.2,0,1.8,0.4c0.6,0.4,0.8,1,1.2,1.5c0.4,0.5,1,0.8,1.3,1.4c1.7-1.1,4.3-0.3,4.7,1.6
			c0.1,0.5,0.1,1.2-0.1,1.7c-0.1,0.4,0,0.4-0.3,0.6c-0.1,0.1-0.7,0-0.8,0c-1.5,0.1-3.1,0-4.6,0.1c-4.8,0.3-9.5,1.1-14.3,1.3
			c-1.9,0.1-3.7,0.1-5.5-0.5c-3.1-0.9-6.9-2.4-9.1-5c-1.9-2.2-0.6-5-1.4-7.5c-0.4-1.2-1.2-2.3-1.4-3.5
			C359.5,686.7,359.7,686.1,359.5,685.5"/>
	</g>
</g>
<g>
	<g>
		<defs>
			<path id="SVGID_54_" d="M340.9,673c-1.1-0.7-1.7-1.1-2.9-0.7c-1.4,0.4-2.9,1.5-3.1,3c0,0.4,0,0.8,0,1.2l-1.5,1.1
				c-0.6-0.3-1.4-0.3-2,0c-1.3,0.6-1.5,1.4-1.9,2.6c-0.9,2.6-1.9,4.6-1.8,7.4c0.2,2.7,1.4,4.6,3.5,6.1c0.7,0.5,0.7,0.1,0.9,1.2
				c0.5,2.4,1.6,3.4,4.3,3.5c0.6,0,1.2,0,1.9-0.1c1.4-0.1,2.8-0.2,3.9,0.4c1.7,0.9,2.8,2.8,4.1,4c1.9,1.8,4.1,1.1,6.4,0.4
				c2-0.6,4.6-1,6.7-0.5c0.5,0.1,1,0.4,1.6,0.6c2.3,0.9,5,0.9,7.3,0.2c0.8-0.3,1.7-0.1,2.7,0c1.4,0.2,2.9,0.4,4.1-0.9
				c0.2-0.3,0.2-0.6,0.5-0.8c0.1-0.1,0.6-0.1,0.8-0.3c0.4-0.4,0.4-0.9,0.4-1.4c0.7-0.5,0.7-1.2,0.9-2c0.2-0.5,0.6-0.9,0.8-1.5
				c0.3-1.1-0.1-2.5-0.5-3.5c-0.3-0.6-1-1.5-1.2-2.1c-0.1-0.5,0-1.1,0-1.6c-0.2-2.9-2.6-6.1-5.5-6.5c-0.6-0.1-1.3,0-2,0.1
				c-0.8,0.1-1.5,0.2-2.2,0.1c-0.3-0.1-0.4-0.3-0.7-0.4c-0.9-0.3-3.5-0.8-4.4-0.2c-0.4,0.2-0.6,1-0.7,1.4c-0.2-1.6-2.3-2.5-3.8-2.5
				c-0.4-1.3-3.6-1.9-3.9-0.4c-0.1-0.7-0.7-0.8-1-1.3s-0.2-0.7-0.4-1.3c-0.4-1.3-1.3-1.5-2.4-2c0.6-1.2,1.2-1,2-0.8
				c0.3,0.1,0.7,0.2,1.1,0.2c-0.2-2.6-2.7-3.4-4.9-3.8c-1-0.1-2.4-0.4-3.7-0.4C342.8,671.7,341.5,672,340.9,673"/>
		</defs>
		<clipPath id="SVGID_55_">
			<use xlink:href="#SVGID_54_"  style="overflow:visible;"/>
		</clipPath>
		
			<linearGradient id="SVGID_56_" gradientUnits="userSpaceOnUse" x1="-119.8299" y1="44.3351" x2="-118.8299" y2="44.3351" gradientTransform="matrix(-50.6113 0 0 50.6113 -5686.4575 -1555.8079)">
			<stop  offset="0" style="stop-color:#678039"/>
			<stop  offset="0.2184" style="stop-color:#5E7832"/>
			<stop  offset="0.6925" style="stop-color:#4F6B27"/>
			<stop  offset="1" style="stop-color:#4A6623"/>
		</linearGradient>
		<rect x="327.5" y="671.7" class="st22" width="51.1" height="32.7"/>
	</g>
</g>
<g>
	<g>
		<defs>
			<path id="SVGID_57_" d="M326.6,673.8c-1.6,0.2-3.4,1.8-3.7,3.4c-0.7-1.1-1.6,0.5-2.1,0.7c-1,0.4-0.8-0.3-1.3-0.5
				c-1.8-0.7-3.6,1.4-3.4,3.1l-2.8,3.5c-0.8,1.8-0.2,3.7,1,5.2c1,1.2,2,1.6,3.5,1.6c0.2,0,0.6-0.1,1-0.1c0.7-0.1,1.4-0.2,1.8,0
				c0.9,0.5,0.8,2.6,1.3,3.5c0.8,1.5,2.6,2.4,4.1,3c2.9,1.1,6.6,0.5,9.7,0.4c2.5-0.1,4.7-0.5,7.2-0.9c0.8-0.1,1.4-0.1,2.2,0.1
				c1.5,0.4,4.3,1,4.8-1c0.5-1.7-0.9-3.4-2.4-3.8c0.3-0.9,0.8-1.4,0.7-2.5c-0.1-0.9-0.6-1.7-1.3-2.2c0.8-1.5-2-3.1-3.2-3.3
				c-0.4-0.1-0.8,0-1.2,0.1c-0.4,0.1-0.8,0.1-1.1,0.1c-0.4-0.1-0.7-0.6-1.2-0.5c0-0.5,0-1.1-0.4-1.5c-0.4-0.3-0.7-0.3-1-0.2
				c-0.2,0-0.4,0.1-0.6,0c-0.7-0.1-1.3-1-1.5-1.8c-0.5-1.9,1-3.8-1.3-5.1c-1.3-0.7-3.8-1-4.5,0.6c0-1.4-2.4-1.9-3.7-1.9
				C326.8,673.7,326.7,673.7,326.6,673.8"/>
		</defs>
		<clipPath id="SVGID_58_">
			<use xlink:href="#SVGID_57_"  style="overflow:visible;"/>
		</clipPath>
		
			<linearGradient id="SVGID_59_" gradientUnits="userSpaceOnUse" x1="-120.1414" y1="44.7068" x2="-119.1414" y2="44.7068" gradientTransform="matrix(-36.7979 0 0 36.7979 -4071.1309 -959.1649)">
			<stop  offset="0" style="stop-color:#678039"/>
			<stop  offset="0.2184" style="stop-color:#5E7832"/>
			<stop  offset="0.6925" style="stop-color:#4F6B27"/>
			<stop  offset="1" style="stop-color:#4A6623"/>
		</linearGradient>
		<rect x="312.5" y="673.7" class="st23" width="37.8" height="24.5"/>
	</g>
</g>
<g>
	<g>
		<defs>
			<path id="SVGID_60_" d="M112.6,673.5c-1.5,0.2-2.5,0.7-3.6,1.6c-0.3,0.2-0.4,0.5-0.7,0.7c-0.7,0.5-1.4,0.7-1.9,1.3
				c-0.4-1.6-2.4,0.8-2.9,1.3c-1,1.1-1.1,2.5-1.5,3.8l-3.7,2.5c-0.9,0.8-1.8,1.7-2.3,2.9c-0.6,1.5,0.2,1.8,0.8,3
				c0.7,1.5,0.2,3.3,0.7,4.9c0.7,2.3,2.8,4.2,5.2,4.5c1.3,0.2,2.7,0,4.1-0.1c0.2,0,1.1-0.1,1.4,0c1,0.4,1.2,1.7,1.8,2.5
				c3.3,4,9.8,1.6,14,1.3c2-0.1,4.3,0.4,6.3,0.6c3.1,0.3,6.1,1,9.2,1c2.7,0,6.6,0,8.3-2.5c0.3-0.4,0.5-1.1,0.7-1.4
				c0.4-0.9,0.9-1.4,0.9-2.6c-0.1-1.4-0.8-2.9-2.3-3.4c-0.3-0.1-0.7-0.1-1.1-0.1c-0.3,0-0.5,0-0.8,0c0-2.8-4.9-4.8-7.2-4.7
				c0-1-0.5-1.4-0.7-2.3c-0.2-0.7-0.2-0.4,0.1-1.2c0.1-0.3,0.2-0.6,0.3-0.9c0.6-2.4,0.1-5.3-2.5-6.3c-0.8-0.3-0.7,0.1-1-0.5
				c-0.2-0.4,0-1.3,0-1.7c-0.1-1.4-0.4-2.2-1.7-2.8c-2.1-1-5.1-0.8-7.3-0.2c-1.3,0.3-2.2,1.1-3.3,1.6c-1-2.1-3.3,0.1-4.4,0.7
				c-0.8-0.4-0.5-1.6-0.9-2.3c-0.6-1.1-1.6-1.4-2.7-1.4C113.5,673.4,113,673.5,112.6,673.5"/>
		</defs>
		<clipPath id="SVGID_61_">
			<use xlink:href="#SVGID_60_"  style="overflow:visible;"/>
		</clipPath>
		
			<linearGradient id="SVGID_62_" gradientUnits="userSpaceOnUse" x1="-119.692" y1="44.9436" x2="-118.692" y2="44.9436" gradientTransform="matrix(-35.2412 10.7995 10.7995 35.2412 -4551.3564 389.5309)">
			<stop  offset="0" style="stop-color:#C8B82C"/>
			<stop  offset="0.619" style="stop-color:#798429"/>
			<stop  offset="1" style="stop-color:#4D6A26"/>
		</linearGradient>
		<polygon class="st24" points="144.7,658.3 86.1,676.2 100,721.5 158.6,703.6 		"/>
	</g>
</g>
<g>
	<g>
		<defs>
			<rect id="SVGID_63_" x="-77" y="-38.2" width="595.3" height="841.9"/>
		</defs>
		<clipPath id="SVGID_64_">
			<use xlink:href="#SVGID_63_"  style="overflow:visible;"/>
		</clipPath>
		<path class="st25" d="M104.6,685.5l1.6-5.5c-0.3-2.6,6.3-5.2,6.4-1.6c1.3-0.5,2.2,1.5,2.6,2.4c0.6-0.4,1.3-0.4,1.8-0.7
			c0.9-0.6,1.4-1.3,2.6-1.3c3.2,0,6.7,3.8,6.9,6.8c1.4-1.4,1-3.7-0.1-5.2c-0.8-1.1-2-1-2.8-1.9c0.7-0.7,2.1-1.1,3.1-1.2
			c1.3-0.1,1.8,0.6,2.8,1c1.2,0.4,1.8,0.3,2.7,1.4c0.8,0.9,0.7,1.4,0.8,2.4c0.3,2,2.6,2.8,2.2,5.2c-0.1,0.9-0.9,1-1.2,1.8
			c-0.2,0.5,0,1.5,0,2c0.8,0.2,1.9,0.9,1.9,1.9c1.8-0.1,2.9,1.6,2.8,3.2c-0.9-0.9-1.8-1.3-3-1.7c-1.4-0.4-5.2-1.1-5.6,1.1
			c0.8,0.2,2-0.6,2.9-0.7c0.7-0.1,1.2,0,1.8,0.4s0.8,1,1.2,1.5s1,0.8,1.3,1.4c1.7-1.1,4.3-0.3,4.7,1.6c0.1,0.5,0.1,1.2-0.1,1.7
			c-0.1,0.4,0,0.4-0.3,0.6c-0.1,0.1-0.7,0-0.8,0c-1.5,0.1-3.1,0-4.6,0.1c-4.8,0.3-9.5,1.1-14.3,1.3c-1.9,0.1-3.7,0.1-5.5-0.5
			c-3.1-0.9-6.9-2.4-9.1-5c-1.9-2.2-0.6-5-1.4-7.5c-0.4-1.2-1.2-2.3-1.4-3.5C104.6,686.7,104.8,686.1,104.6,685.5"/>
	</g>
</g>
<g>
	<g>
		<defs>
			<path id="SVGID_65_" d="M82.1,673c-1.1-0.7-1.7-1.1-2.9-0.7c-1.4,0.4-2.9,1.5-3.1,3c0,0.4,0,0.8,0,1.2l-1.5,1.1
				c-0.6-0.3-1.4-0.3-2,0c-1.3,0.6-1.5,1.4-1.9,2.6c-0.9,2.6-1.9,4.6-1.8,7.4c0.2,2.7,1.4,4.6,3.5,6.1c0.7,0.5,0.7,0.1,0.9,1.2
				c0.5,2.4,1.6,3.4,4.3,3.5c0.6,0,1.2,0,1.9-0.1c1.4-0.1,2.8-0.2,3.9,0.4c1.7,0.9,2.8,2.8,4.1,4c1.9,1.8,4.1,1.1,6.4,0.4
				c2-0.6,4.6-1,6.7-0.5c0.5,0.1,1,0.4,1.5,0.6c2.3,0.9,5,0.9,7.3,0.2c0.8-0.3,1.7-0.1,2.7,0c1.4,0.2,2.9,0.4,4.1-0.9
				c0.2-0.3,0.2-0.6,0.5-0.8c0.1-0.1,0.6-0.1,0.8-0.3c0.4-0.4,0.4-0.9,0.4-1.4c0.8-0.5,0.7-1.2,0.9-2c0.2-0.5,0.6-0.9,0.8-1.5
				c0.3-1.1-0.1-2.5-0.5-3.5c-0.3-0.6-1-1.5-1.2-2.1c-0.1-0.5,0-1.1,0-1.6c-0.2-2.9-2.6-6.1-5.5-6.5c-0.6-0.1-1.3,0-2,0.1
				c-0.8,0.1-1.5,0.2-2.2,0.1c-0.3-0.1-0.4-0.3-0.7-0.4c-0.9-0.3-3.5-0.8-4.4-0.2c-0.4,0.2-0.6,1-0.7,1.4c-0.2-1.6-2.3-2.5-3.8-2.5
				c-0.4-1.3-3.6-1.9-3.9-0.4c-0.1-0.7-0.7-0.8-1-1.3s-0.2-0.7-0.4-1.3c-0.4-1.3-1.3-1.5-2.4-2c0.6-1.2,1.2-1,2-0.8
				c0.3,0.1,0.7,0.2,1.1,0.2c-0.2-2.6-2.7-3.4-4.9-3.8c-1-0.1-2.4-0.4-3.7-0.4C84,671.7,82.7,672,82.1,673"/>
		</defs>
		<clipPath id="SVGID_66_">
			<use xlink:href="#SVGID_65_"  style="overflow:visible;"/>
		</clipPath>
		
			<linearGradient id="SVGID_67_" gradientUnits="userSpaceOnUse" x1="-119.8299" y1="44.3351" x2="-118.8299" y2="44.3351" gradientTransform="matrix(-50.6104 0 0 50.6104 -5945.1162 -1555.7684)">
			<stop  offset="0" style="stop-color:#678039"/>
			<stop  offset="0.2184" style="stop-color:#5E7832"/>
			<stop  offset="0.6925" style="stop-color:#4F6B27"/>
			<stop  offset="1" style="stop-color:#4A6623"/>
		</linearGradient>
		<rect x="68.7" y="671.7" class="st26" width="51.1" height="32.7"/>
	</g>
</g>
<g>
	<g>
		<defs>
			<rect id="SVGID_68_" x="-77" y="-38.2" width="595.3" height="841.9"/>
		</defs>
		<clipPath id="SVGID_69_">
			<use xlink:href="#SVGID_68_"  style="overflow:visible;"/>
		</clipPath>
		<path class="st27" d="M252,688.6c0-0.6,0.1-1.2,0.2-1.8c0.2,0,0.4,0,0.6-0.1c0-0.6-0.1-1.6,0.2-2c0.3-0.4,0.7-0.4,1-0.5
			c-0.3-1-0.3-2.3,0.3-3.1c0.4-0.4,0.4-0.3,0.6-1c0.1-0.3,0.3-0.6,0.4-0.9c0.4-0.7,0.8-1,1.5-1c0.8,0,1.6,0.4,1.9,1.4
			c0.6-0.1,0.8-0.2,1.2,0.2c0.1,0.1,0.4,0.6,0.5,0.8c0.1,0.3,0.1,0.8,0.2,1c0.2,0.3,0.4,0.2,0.6,0.7c0.1,0.4,0,0.9,0.1,1.3
			c0.2,0.5,0.3,0.4,0.3,1c0,0.4,0.1,0.7,0.1,1c0,0.2-0.1,0.6,0,0.7c0.2,0.3,0.7,0,1,0.2c0.4,0.2,0.9,0.9,1,1.4l0.6,1.9
			c0,0.4,0.2,1.3,0.1,1.6c-0.2,0.5-1.2,0.2-1.5,0.2c-3.6,0-7.3,0-11,0l-0.2-3C251.8,688.6,251.9,688.6,252,688.6"/>
	</g>
	<g>
		<defs>
			<rect id="SVGID_70_" x="-77" y="-38.2" width="595.3" height="841.9"/>
		</defs>
		<clipPath id="SVGID_71_">
			<use xlink:href="#SVGID_70_"  style="overflow:visible;"/>
		</clipPath>
		<path class="st28" d="M253.9,686.5c-0.9-1.6-0.2-1.5,0.8-1.6c0-0.9,0.2-1.7,0.3-2.4c0-0.3,0-0.5,0-0.8c0.1-0.6,0.4-0.6,0.7-1
			c0.1-0.1,0.1-0.4,0.1-0.5c0.3-0.3,0.6-0.3,1-0.3c0.2,0,0.5-0.1,0.7,0.1c0.2,0.2,0.2,0.7,0.4,0.8c0.3,0.3,0.7,0.1,1,0.2
			c1.4,0.2,1.4,1.6,1.6,3c-0.9-0.8-1.7-2.4-2.9-1.9c-0.2,0.1-0.4,0.4-0.5,0.4c-0.2,0.1-0.4-0.1-0.5,0c-0.3,0.2-0.4,0.8-0.5,1.2
			c1.2-0.7,1.6-1,2.8-0.2c0.8,0.5,1.4,1.5,1.6,2.6c-0.9-0.1-1.5-0.9-2.2,0.3c0.5,0,1.1-0.1,1.5,0c0.3,0.1,0.4,0.4,0.7,0.5
			c0.6,0.2,1-0.2,1.5,0.4c0.2,0.2,0.4,0.6,0.4,1c0,1.3-1.8,0.2-2.4,0.1c-1.2-0.2-2.4,0.4-3.5,0.4c-1.2,0-2.3-0.1-3.5-0.1v-0.4
			C253,687.7,253.3,686.6,253.9,686.5"/>
	</g>
	<g>
		<defs>
			<rect id="SVGID_72_" x="-77" y="-38.2" width="595.3" height="841.9"/>
		</defs>
		<clipPath id="SVGID_73_">
			<use xlink:href="#SVGID_72_"  style="overflow:visible;"/>
		</clipPath>
		<path class="st29" d="M269.6,688.5c0-1,0.7-1.6,1.3-2.3c0.2-0.3,0.3-0.6,0.6-0.8c0.2-0.1,0.5-0.1,0.6-0.2c0.6-0.5,1-1.3,2.2-1.3
			c0.8,0,1.2,0.3,1.8,0.6c0.4,0.2,0.5,0.2,0.9,0.4c1,0.4,2,0.7,2.5,1.8c0.1,0.2,0.1,0.6,0.2,0.8s0.5,0.2,0.6,0.3c0.2,0.4,0,1,0,1.4
			c0.4,0.1,1.1-0.1,1.5,0.1c0.6,0.4,0.5,1.6,1,2c0.7,0.5,2.1-0.2,2.9-0.2c0.7-0.1,1.3,0,2,0l0.3,3.4c-1.1,0-2.1,0-3.2-0.1
			c-2.3-0.1-4.7-0.1-6.9-0.7c-1.5-0.4-2.8-0.9-4.3-1c-1.3-0.1-2.5,0.1-3.2-1.1c-0.4-0.6-0.1-1-0.3-1.6
			C270,689.4,269.6,689.2,269.6,688.5"/>
	</g>
	<g>
		<defs>
			<rect id="SVGID_74_" x="-77" y="-38.2" width="595.3" height="841.9"/>
		</defs>
		<clipPath id="SVGID_75_">
			<use xlink:href="#SVGID_74_"  style="overflow:visible;"/>
		</clipPath>
		<path class="st30" d="M272.2,688.7c0.2-0.6,0.4-0.5,0.6-1c0.2-0.6,0.1-1.1,0.4-1.5s1.4-0.7,1.8-0.7c0.8,0,1.6,1.1,2.3,1.8
			c1.1,1.3,2.1,2.3,1.3,4.9c-1.7-1.9-2.7-2.7-4.7-1.9c-0.8,0.3-1.5,0.6-2.3,0.6l-0.6-0.2C270.9,689.3,271.5,688.1,272.2,688.7"/>
	</g>
	<g>
		<defs>
			<rect id="SVGID_76_" x="-77" y="-38.2" width="595.3" height="841.9"/>
		</defs>
		<clipPath id="SVGID_77_">
			<use xlink:href="#SVGID_76_"  style="overflow:visible;"/>
		</clipPath>
		<rect x="327.7" y="691.1" class="st31" width="22.2" height="4.9"/>
	</g>
	<g>
		<defs>
			<rect id="SVGID_78_" x="-77" y="-38.2" width="595.3" height="841.9"/>
		</defs>
		<clipPath id="SVGID_79_">
			<use xlink:href="#SVGID_78_"  style="overflow:visible;"/>
		</clipPath>
		<rect x="279" y="685.7" class="st32" width="47.4" height="13.1"/>
	</g>
	<g>
		<defs>
			<rect id="SVGID_80_" x="-77" y="-38.2" width="595.3" height="841.9"/>
		</defs>
		<clipPath id="SVGID_81_">
			<use xlink:href="#SVGID_80_"  style="overflow:visible;"/>
		</clipPath>
		<rect x="288.5" y="690.9" class="st33" width="35.2" height="0.8"/>
	</g>
	<g>
		<defs>
			<rect id="SVGID_82_" x="-77" y="-38.2" width="595.3" height="841.9"/>
		</defs>
		<clipPath id="SVGID_83_">
			<use xlink:href="#SVGID_82_"  style="overflow:visible;"/>
		</clipPath>
		<rect x="279.1" y="686" class="st34" width="35.2" height="0.8"/>
	</g>
	<g>
		<defs>
			<rect id="SVGID_84_" x="-77" y="-38.2" width="595.3" height="841.9"/>
		</defs>
		<clipPath id="SVGID_85_">
			<use xlink:href="#SVGID_84_"  style="overflow:visible;"/>
		</clipPath>
		<polygon class="st35" points="278.4,680.3 327.5,680.3 327.5,691 288.3,691 288.3,686.2 278.4,686.2 		"/>
	</g>
	<g>
		<defs>
			<rect id="SVGID_86_" x="-77" y="-38.2" width="595.3" height="841.9"/>
		</defs>
		<clipPath id="SVGID_87_">
			<use xlink:href="#SVGID_86_"  style="overflow:visible;"/>
		</clipPath>
		<polygon class="st36" points="288.3,686.2 288.3,695 282.3,695 		"/>
	</g>
</g>
<g>
	<g>
		<defs>
			<path id="SVGID_88_" d="M180.1,679.7c-0.4,0.3-0.8,0.7-1.2,1s-1.2,0.5-1.4,1c0,0.1,0,0.3,0,0.4c-0.1,0.2-0.6,0.2-0.7,0.5
				c-0.1,0.2,0,0.4-0.2,0.6c-0.1,0.2-0.4,0.1-0.6,0.3c-0.4-0.3-0.5-0.8-0.8-1.3c-0.2-0.3-0.2-0.3-0.6-0.2c-0.1-0.7,0-1.3-0.6-1.7
				c-0.5-0.3-2-0.3-2.3,0.3c-0.6,0-2,0-2.2,0.7c0,0.2,0,0.5,0,0.7c-0.5,0-0.3,0.6-0.6,0.8c-0.1,0.1-0.3,0.1-0.4,0
				c-0.1,0-0.2-0.1-0.3,0c0,0.1,0,0.2,0,0.2c-0.6-0.1-1.4-0.2-1.9,0.2s-0.6,1.4-0.4,2c-0.6,0.3-0.5,1-0.4,1.5
				c0.1,0.4,0.2,0.8,0.1,1.2c-0.2,0.6-0.6,1.1-0.7,1.8c-0.1,1.4,0,2.8,0.1,4.2c0,0.7,0.1,1.4,0.1,2.1c0,0.3-0.1,0.6,0,0.8
				c0,0.2,0.1,0.7,0.2,0.8c0.1,0.1,0.6,0.1,1,0.1c0.2,0,0.3,0,0.4,0c1.2,0.1,2.3,0.3,3.5,0.4c0.7,0.1,1.6,0.2,2.3,0.1
				c0.7-0.1,1.3-0.4,2-0.6c1.1-0.4,2.3-0.6,3.5-0.9c1.1-0.3,2-0.8,3.1-1c1.4-0.2,2.9-0.3,4.3-0.5c1.7-0.3,3.2-1.4,3.5-3.2
				c0.1-0.8,0.2-1.5,0.4-2.3c0.2-0.6,0.6-1.1,0.7-1.7c0.2-1.5,0.2-3.4-1.3-4.3c-0.5-0.3-0.8,0-1.1,0.2c-0.2-0.4-0.5-0.6-0.7-0.9
				c-0.3-0.5-0.4-1.2-1.2-1.1c0,0,0,0,0,0.1c-0.6-0.2-1.8-0.6-1.9,0.4c-0.4,0.1-0.6,0.4-0.9,0.5c-0.2-0.3,0.1-0.6,0-0.9
				c-0.1-0.1-0.2-0.2-0.3-0.3c-0.1-0.2,0-0.4-0.1-0.6c-0.1-0.1-0.4-0.2-0.5-0.2c-0.3-0.1-0.2-0.1-0.3-0.3c-0.1-0.3-0.1-0.3-0.4-0.5
				c-0.1,0-0.3-0.1-0.4-0.1c-0.1-0.1-0.2-0.3-0.3-0.4c-0.1-0.2-0.3-0.2-0.4-0.2C180.4,679.5,180.3,679.5,180.1,679.7"/>
		</defs>
		<clipPath id="SVGID_89_">
			<use xlink:href="#SVGID_88_"  style="overflow:visible;"/>
		</clipPath>
		
			<linearGradient id="SVGID_90_" gradientUnits="userSpaceOnUse" x1="-120.6728" y1="45.3364" x2="-119.6728" y2="45.3364" gradientTransform="matrix(-25.1069 0 0 25.1069 -2839.4167 -449.3065)">
			<stop  offset="0" style="stop-color:#C6C991"/>
			<stop  offset="0.5861" style="stop-color:#929F4D"/>
			<stop  offset="1" style="stop-color:#708521"/>
		</linearGradient>
		<rect x="165.1" y="679.5" class="st37" width="25.5" height="18.9"/>
	</g>
</g>
<g>
	<g>
		<defs>
			<rect id="SVGID_91_" x="-77" y="-38.2" width="595.3" height="841.9"/>
		</defs>
		<clipPath id="SVGID_92_">
			<use xlink:href="#SVGID_91_"  style="overflow:visible;"/>
		</clipPath>
		<rect x="173.1" y="678.4" class="st38" width="0.3" height="17"/>
	</g>
	<g>
		<defs>
			<rect id="SVGID_93_" x="-77" y="-38.2" width="595.3" height="841.9"/>
		</defs>
		<clipPath id="SVGID_94_">
			<use xlink:href="#SVGID_93_"  style="overflow:visible;"/>
		</clipPath>
		<rect x="106.7" y="680.3" class="st39" width="0.3" height="15.2"/>
	</g>
</g>
<g>
	<g>
		<defs>
			<path id="SVGID_95_" d="M320.4,684.7c-0.9,0.1-2.5,1-2.9,1.9c-0.3,0.8-0.1,1.7-0.7,2.4c-0.8,0.9-2,0.5-1.9,2.2l-0.8,1
				c-1,0-1,0.7-1.4,1.3c-0.8,1.1-3.2,3.1-2.5,4.6c0.5,0.9,2.4,1.5,3.2,2.5c1.6,2,2.3,4.2,5.2,4.3c1.8,0.1,3.5-0.1,5.3-0.3
				s3.6-0.3,5.5-0.3c4.3,0.2,8.6,1,13,0.5c3.5-0.4,6.7-1.9,10.2-1.5c1.7,0.2,4.4,1.4,6,0.5c0.5-0.3,0.8-1.1,0.9-1.6
				c0.6-1.9-0.3-2.5-0.9-4.1c-0.4-1.2-0.3-1.8-1.4-2.7c-0.8-0.7-1.9-1.4-2.9-1.9c-1.4-0.7-2.6-0.3-3.9-0.2c-0.3,0-0.6,0-0.9,0
				c-0.8,0-1.5,0-2.5,0.4c-1.1,0.5-0.4,0.4-1.4,0.1c-0.8-0.2-1.1-0.6-2-0.5c-1.9,0.1-2.9,1.7-4.3,2.6c0.1-1-0.8-0.9-1.7-0.8
				c-0.4,0.1-0.8,0.1-1,0.1c-0.3-1.6,0.6-3.5,0.3-5.2c-0.3-1.8-4-3.8-5.2-1.9c-1.8-0.7-3.3,2-4.2,3c-0.9-0.1-0.7-1.1-1.1-1.8
				c-0.6-1.2-2-1.5-3.2-1.5c-0.3-1.9,0-3-1.8-3C320.9,684.7,320.7,684.7,320.4,684.7"/>
		</defs>
		<clipPath id="SVGID_96_">
			<use xlink:href="#SVGID_95_"  style="overflow:visible;"/>
		</clipPath>
		
			<linearGradient id="SVGID_97_" gradientUnits="userSpaceOnUse" x1="-119.7269" y1="45.0359" x2="-118.7269" y2="45.0359" gradientTransform="matrix(-33.5494 10.281 10.281 33.5494 -4116.7407 406.2324)">
			<stop  offset="0" style="stop-color:#C8B82C"/>
			<stop  offset="0.619" style="stop-color:#798429"/>
			<stop  offset="1" style="stop-color:#4D6A26"/>
		</linearGradient>
		<polygon class="st40" points="355.7,670.5 303.8,686.4 313.8,719.3 365.8,703.4 		"/>
	</g>
</g>
<g>
	<g>
		<defs>
			<path id="SVGID_98_" d="M315.3,692.7l-2,3.7c-0.4,4.2,5.8,6.4,9,7c3.7,0.7,7.4,0,11-0.6c2.7-0.5,5.5-0.9,8.3-0.8
				c2.4,0.1,4.8,0.3,7,1c0.4,0.1,0.8,0.3,1.2,0.4c0.1,0,0.4,0.1,0.5,0.1c0.4-1.1,0.1-2.6-0.8-3.4c-0.7-0.7-1.6-0.6-2.4-1
				s-1.1-0.9-2-1c-1.5-0.2-2.8,0.6-3.8,1.4c-1.1-2.1-3.6-2.3-5.7-2.6c-2.8-0.4-0.5-2.5-1-4.2c-0.2-0.8-1-2.4-1.8-2.7
				c-1.4-0.5-3.1,1.1-3.7,2.1c-0.5,0.8-0.5,0.7-0.1,1.5s0.7,0.9,0.5,1.8c-0.2,0.6-1.1,1.6-1.7,1.8c-0.6-1.8-0.9-3.2-2.7-4.4
				c-0.6-0.4-2.8-2.1-2.4-0.1c-0.2-0.7-0.6-1.1-0.9-1.6c-0.4-0.7-0.3-1.4-1.1-2c-0.4-0.3-0.8-0.4-1.2-0.4
				C317.7,688.7,316.2,691.4,315.3,692.7"/>
		</defs>
		<clipPath id="SVGID_99_">
			<use xlink:href="#SVGID_98_"  style="overflow:visible;"/>
		</clipPath>
		
			<linearGradient id="SVGID_100_" gradientUnits="userSpaceOnUse" x1="-120.1309" y1="44.6953" x2="-119.1309" y2="44.6953" gradientTransform="matrix(-37.1387 0 0 37.1387 -4111.0967 -963.575)">
			<stop  offset="0" style="stop-color:#4D6A26"/>
			<stop  offset="1" style="stop-color:#445F20"/>
		</linearGradient>
		<rect x="312.9" y="688.7" class="st41" width="37.9" height="15.3"/>
	</g>
</g>
<g>
	<g>
		<defs>
			<path id="SVGID_101_" d="M311.6,690.1c-0.8,0.7-0.8,1.7-1.2,2.6c-0.5,1.1-1.2,1.7-1.3,3c-1.4-0.1-1.7,1.4-1.6,2.5v1
				c-0.1,1.4,1.2,1.1,2.2,1.1c2.7,0,6.1,1,8.7,0.3c1.3-0.4,1.4-1.1,1-2.4c-0.1-0.3-0.4-0.5-0.5-0.8s0.1-0.7,0-1
				c-0.3-1.1-1-1.2-1.9-1.5c0.1-2.2,0-4.1-2.6-4.4c0.1-0.8-0.3-1.1-0.9-1.1C312.9,689.4,312,689.8,311.6,690.1"/>
		</defs>
		<clipPath id="SVGID_102_">
			<use xlink:href="#SVGID_101_"  style="overflow:visible;"/>
		</clipPath>
		
			<linearGradient id="SVGID_103_" gradientUnits="userSpaceOnUse" x1="-121.8546" y1="50.042" x2="-120.8546" y2="50.042" gradientTransform="matrix(-8.5432 2.618 2.618 8.5432 -851.8932 584.8058)">
			<stop  offset="0" style="stop-color:#C8B82C"/>
			<stop  offset="0.619" style="stop-color:#798429"/>
			<stop  offset="1" style="stop-color:#4D6A26"/>
		</linearGradient>
		<polygon class="st42" points="318.8,685.9 304.1,690.4 308.5,704.7 323.2,700.2 		"/>
	</g>
</g>
<g>
	<g>
		<defs>
			<rect id="SVGID_104_" x="-77" y="-38.2" width="595.3" height="841.9"/>
		</defs>
		<clipPath id="SVGID_105_">
			<use xlink:href="#SVGID_104_"  style="overflow:visible;"/>
		</clipPath>
		<path class="st43" d="M266.3,696.5c0.2-1.8,1.9-2.8,2.5-4.4l1.4-1.9c-0.2-1.3,1-2.5,2.1-2.9c1.6-0.5,2.5,0.1,3.4,1.4
			c0.7-0.5,1.5-0.6,2.3-0.9c1.4-0.5,4.6-1.5,5.8,0.3c0.4,0.7,0.1,1.5,0.2,2.2c0.2,0.9,1,1.6,1,2.6c1.1-0.9,2.8,0.7,3.8,1.2
			c0.1-0.9,0-1.6,0.6-2.4c0.7-1,2.3-1.6,3.4-1c-1.2-1.3-0.1-3,1.2-3.8c0.9-0.6,2.3-1.2,3.5-1c0.7,0.1,0.4,0.2,0.9,0.6
			c1.1,0.8,2.8,1,3.4,2.6c0.3,0.8,0.4,2.7,0.1,3.5c0.7,0.4,1.6,1.7,1.7,2.6c2.1,0,2.6,3.6,1.3,4.7c-3.5,2.8-9.2,1.6-13.3,1.3
			c-4.1-0.2-8.2,0.6-12.3,0.7c-3.1,0.1-6.5,0.3-9.4-0.9C268,700.1,266.1,698.8,266.3,696.5"/>
	</g>
	<g>
		<defs>
			<rect id="SVGID_106_" x="-77" y="-38.2" width="595.3" height="841.9"/>
		</defs>
		<clipPath id="SVGID_107_">
			<use xlink:href="#SVGID_106_"  style="overflow:visible;"/>
		</clipPath>
		<path class="st44" d="M269.3,693.6l2.2-2.9c0.4-0.6,2.8-2.7,3.2-0.9c1.5-0.1,3.2,1.3,3.3,2.8c1.6,0.4,2.3,1.3,2.2,2.8
			c0.3-0.3,0.8-1.4,0.5-2c-0.2-0.4-0.9-0.5-1.2-0.9c-0.1-0.2-0.1-0.6-0.2-0.9c-0.2-0.4-0.9-0.6-1.1-0.8c-0.4-0.6-0.5-1.5,0.2-2
			c0.4-0.3,1.5-0.4,2-0.5c0.9-0.1,1.7,0,2,0.9c0.1,0.3-0.1,0.6,0,0.9c0.2,0.5,0.8,1,1,1.6s0.2,1.3,0.2,1.9c0.7,0.3,1.5,0.3,2,1
			c0.3,0.4,0.2,1,0.4,1.4c0.1,0.2,0.5,0.2,0.7,0.4s0.3,0.5,0.3,0.8c0.1,0.5,0.2,1.1,0.3,1.5c0.4-0.9,0.2-1.8-0.1-2.7
			c-0.2-0.6,0-0.6-0.4-1c-0.3-0.3-0.6-0.3-0.9-0.6c1.9-0.5,1.9,2.5,3.8,0.7c0.7-0.7,0.3-0.4,0.4-1.2s0.3-0.8,0.9-1.4
			c0.7-0.8,1.1-0.9,2.2-0.4c1.2,0.6,2.7,1.1,3.5,2.3c0-0.8-0.2-2.3-0.9-2.8c-0.4-0.3-0.9-0.1-1.4-0.6c-0.1-0.1-0.7-1.2-0.7-1.3
			c-0.1-0.8,1.2-1.4,1.8-1.6c2.7-0.9,5.6,1.1,5.3,3.8c-1.5-0.4-2.1-1.8-3.8-1.7c-0.1,1,2.6,1.6,2.9,2.8c0.1,0.3-0.1,0.8,0,1.1
			c0.2,0.3,1,0.3,1.3,0.6c0.4,0.4,0.3,0.9,0.8,1.3c0.7,0.6,1.3,0.8,1.5,1.7c0.2,1-0.5,2.1-0.8,3.1c-4.5,0.2-8.9-0.2-13.4-0.1
			c-3.4,0-6.7,0.5-10.1,0.5c-2.7,0-5.8,0.2-8.4-0.6c-1.9-0.6-2.2-1.5-2.2-3.4C268.7,696.1,268.5,694.6,269.3,693.6"/>
	</g>
</g>
<g>
	<g>
		<defs>
			<path id="SVGID_108_" d="M261.5,686.1c-0.2,0.2-0.5,0.6-0.7,0.7c-0.7,0.6-1.5,0.8-1.7,1.7c-0.1,0.6,0,1.3,0.5,1.7l-0.3,0.6
				c-0.3,0.1-1,0.8-1.3,1.2c-0.2,0.3-0.1,0.7-0.3,1.1c-0.1,0.2-0.4,0.3-0.5,0.5c-0.8,1.2-0.7,2.7,0.5,3.6c0.6,0.4,0.9,0.4,1.1,0.9
				c0.3,0.6,0,1.1,0.5,1.7c1.3,1.5,3.3,0.6,4.8,0.5c0.6,0,1.3,0.2,2,0.4c1.4,0.5,2.8,0.9,3.9-0.6c1,0.3,2.5,0.6,3.3-0.3
				c0.3-0.3,0.2-0.8,0.4-1c0.3-0.3,0.6-0.3,0.9-0.7c0.1-0.1-0.1-0.5,0-0.6c0.1-0.2,0.3-0.3,0.4-0.4c0.8-1.1,1.6-1.7,1.1-3.2
				c-0.1-0.4-0.4-1-0.6-1.4c-0.3-0.6-0.7-1.4-1.5-0.8c-0.5-0.9-1.1-1.6-1.2-2.5c-0.1-1-0.2-2-1.3-2.5c-0.3-0.1-0.5-0.1-0.8,0
				c-0.2,0-0.4,0-0.5,0s-0.4-0.3-0.6-0.4c-0.7-0.2-1.7-0.1-1.9,0.8c-0.4-0.6-1.3-1-2.1-1c0.1-0.8-0.5-1.1-1.3-1.1
				C263.3,685.2,262,685.8,261.5,686.1"/>
		</defs>
		<clipPath id="SVGID_109_">
			<use xlink:href="#SVGID_108_"  style="overflow:visible;"/>
		</clipPath>
		
			<linearGradient id="SVGID_110_" gradientUnits="userSpaceOnUse" x1="-121.1688" y1="45.9336" x2="-120.1688" y2="45.9336" gradientTransform="matrix(-19.3652 0 0 19.3652 -2070.4939 -196.1133)">
			<stop  offset="0" style="stop-color:#979E32"/>
			<stop  offset="0.9761" style="stop-color:#5B782D"/>
			<stop  offset="1" style="stop-color:#59772C"/>
		</linearGradient>
		<rect x="256.3" y="685.2" class="st45" width="20.1" height="16.4"/>
	</g>
</g>
<g>
	<g>
		<defs>
			<rect id="SVGID_111_" x="-77" y="-38.2" width="595.3" height="841.9"/>
		</defs>
		<clipPath id="SVGID_112_">
			<use xlink:href="#SVGID_111_"  style="overflow:visible;"/>
		</clipPath>
		<path class="st46" d="M212.2,684c0-1,0.7-1.6,1.3-2.3c0.2-0.3,0.3-0.6,0.6-0.8c0.2-0.1,0.5-0.1,0.6-0.2c0.6-0.5,1-1.3,2.2-1.3
			c0.8,0,1.2,0.3,1.8,0.6c0.4,0.2,0.5,0.2,0.9,0.4c1,0.4,2,0.7,2.5,1.8c0.1,0.2,0.1,0.6,0.2,0.8s0.5,0.2,0.6,0.3c0.2,0.4,0,1,0,1.4
			c0.4,0.1,1.1-0.1,1.5,0.1c0.6,0.4,0.5,1.6,1,2c0.7,0.5,2.1-0.2,2.9-0.2c0.8-0.1,1.6,0,2.3,0c0-0.6,0.2-1.3,0.3-2
			c0.3,0,0.7,0,1-0.2c0-0.6-0.2-1.8,0.3-2.3c0.4-0.5,1.1-0.4,1.6-0.5c-0.4-1.2-0.5-2.6,0.5-3.5c0.6-0.5,0.6-0.4,1-1.1
			c0.2-0.4,0.5-0.7,0.7-1c0.7-0.8,1.3-1.1,2.3-1.1c1.2-0.1,2.5,0.4,3,1.6c0.9-0.1,1.2-0.2,1.9,0.2c0.2,0.2,0.7,0.7,0.8,0.9
			c0.2,0.3,0.2,0.9,0.4,1.1c0.3,0.4,0.7,0.2,0.9,0.8c0.2,0.5,0,1.1,0.1,1.5c0.2,0.6,0.4,0.4,0.4,1.1c0,0.5,0.1,0.7,0.2,1.1
			c0,0.2-0.1,0.7,0,0.8c0.3,0.3,1.2,0,1.6,0.2c0.7,0.2,1.4,1,1.6,1.6l0.9,2.1c0,0.4,0.3,1.4,0.1,1.8c-0.3,0.5-1.9,0.2-2.4,0.2
			c-6.8,0-13.7,0.1-20.6-0.1c-2.3-0.1-4.7-0.1-6.9-0.7c-1.5-0.4-2.8-0.9-4.3-1c-1.3-0.1-2.5,0.1-3.2-1.1c-0.4-0.6-0.1-1-0.3-1.6
			C212.6,684.9,212.3,684.7,212.2,684"/>
	</g>
	<g>
		<defs>
			<rect id="SVGID_113_" x="-77" y="-38.2" width="595.3" height="841.9"/>
		</defs>
		<clipPath id="SVGID_114_">
			<use xlink:href="#SVGID_113_"  style="overflow:visible;"/>
		</clipPath>
		<path class="st47" d="M233.7,684.2c-1.4-1.8-0.4-1.7,1.2-1.8c0-1,0.3-1.9,0.5-2.7c0.1-0.3-0.1-0.6,0-0.9c0.2-0.7,0.7-0.7,1.1-1.1
			c0.1-0.1,0.1-0.5,0.2-0.5c0.5-0.4,1-0.3,1.5-0.3c0.3,0,0.8-0.1,1.1,0.1c0.3,0.2,0.4,0.7,0.6,0.9c0.5,0.4,1.1,0.1,1.7,0.2
			c2.1,0.3,2.2,1.8,2.6,3.4c-1.4-0.9-2.7-2.7-4.6-2.2c-0.4,0.1-0.6,0.4-0.8,0.5c-0.3,0.1-0.6-0.1-0.9,0c-0.5,0.2-0.6,0.9-0.7,1.4
			c1.9-0.7,2.6-1.1,4.5-0.2c1.2,0.6,2.2,1.7,2.6,2.9c-1.4-0.1-2.4-1-3.5,0.3c0.8,0,1.7-0.2,2.4,0c0.4,0.1,0.7,0.4,1.1,0.5
			c0.9,0.2,1.6-0.2,2.4,0.5c0.3,0.3,0.7,0.7,0.7,1.2c-0.1,1.5-2.9,0.2-3.9,0.1c-1.9-0.2-3.7,0.4-5.6,0.5c-1.8,0.1-3.7-0.1-5.5-0.1
			v-0.5C232.4,685.5,232.8,684.3,233.7,684.2"/>
	</g>
	<g>
		<defs>
			<rect id="SVGID_115_" x="-77" y="-38.2" width="595.3" height="841.9"/>
		</defs>
		<clipPath id="SVGID_116_">
			<use xlink:href="#SVGID_115_"  style="overflow:visible;"/>
		</clipPath>
		<path class="st48" d="M214.9,682.7c0.2-0.3,0.4-0.3,0.6-0.5c0.2-0.3,0.1-0.6,0.4-0.8s1.4-0.4,1.8-0.4c0.8,0,1.6,0.6,2.3,1
			c1.1,0.7,2.1,1.2,1.3,2.6c-1.7-1-2.7-1.5-4.7-1c-0.8,0.2-1.5,0.3-2.3,0.3l-0.6-0.1C213.5,683,214.1,682.4,214.9,682.7"/>
	</g>
</g>
<g>
	<g>
		<defs>
			<path id="SVGID_117_" d="M195,679c-0.7,0.5-0.8,1-0.8,1.8c-0.4,0-1.7-0.1-1.7,0.6c-0.8,0.1-1.1,0.7-1.1,1.4
				c-0.8,0.3-1.2,1.1-0.5,1.7c0.4,0.4,0.4,0.3,0.5,0.8c-0.4-0.1-1.4,0.1-1.3,0.6c-0.8-0.8-3.1,0.8-3.4,2.8l-1.5,1.2
				c-1.2,0.8,1.6,2.3,2.2,3.1c0.2,0.3,0.4,0.6,0.5,0.9c0,0.3-0.1,0.6-0.1,0.9c0,1.5,2.3,1.8,3.5,1.8c0.3,0,0.6,0,0.9,0
				c0.6,0,1.1-0.1,1.6,0.1c0.7,0.3,1.3,0.8,2.1,1c0.9,0.2,1.9,0.2,2.8,0.1c0.8-0.1,1.8-0.1,2.5-0.6c0.1-0.1,0.3-0.4,0.4-0.5
				c0.3-0.2,1.1-0.1,1.4-0.2c0.6-0.2,1.2-0.4,1.8-0.8c0.3-0.2,0.8-0.7,0.7-1.1c0.7-0.5,1.6-0.7,2.1-1.4c0.4-0.6,0.3-1.4,0.1-2
				c-0.2-0.4-0.5-0.8-0.3-1.2c0.2-0.5,0.9-0.7,1.1-1.2c0.3-0.7-0.1-1.5-0.2-2.2c-0.1-0.6-0.3-1.1-1-1.2c-0.4-0.1-1-0.1-1.3,0.2
				c-0.2-0.7-1.9-0.2-2.2,0.2c0.1-0.3,0.1-0.7,0-0.9c-0.2-0.8-0.8-0.8-1.4-1c0-1.1-1.7-0.6-2.3-0.3c0.1-0.6,0.2-1.1,0.1-1.7
				c-0.1-0.7-0.6-0.9-1-1.3c0.6-0.5,0.1-1.3-0.5-1.5c-0.5-0.2-1.1-0.1-1.6-0.3c-0.2-0.1-0.4-0.1-0.6-0.1
				C195.7,678.6,195.4,678.8,195,679"/>
		</defs>
		<clipPath id="SVGID_118_">
			<use xlink:href="#SVGID_117_"  style="overflow:visible;"/>
		</clipPath>
		
			<linearGradient id="SVGID_119_" gradientUnits="userSpaceOnUse" x1="-120.8342" y1="45.5278" x2="-119.8342" y2="45.5278" gradientTransform="matrix(-22.8984 0 0 22.8984 -2558.9163 -354.2138)">
			<stop  offset="0" style="stop-color:#C6C991"/>
			<stop  offset="0.619" style="stop-color:#99A651"/>
			<stop  offset="1" style="stop-color:#7E932A"/>
		</linearGradient>
		<rect x="183.9" y="678.6" class="st49" width="24.4" height="19.4"/>
	</g>
</g>
<g>
	<g>
		<defs>
			<rect id="SVGID_120_" x="-77" y="-38.2" width="595.3" height="841.9"/>
		</defs>
		<clipPath id="SVGID_121_">
			<use xlink:href="#SVGID_120_"  style="overflow:visible;"/>
		</clipPath>
		<rect x="342.3" y="687.9" class="st50" width="0.9" height="4.9"/>
	</g>
	<g>
		<defs>
			<rect id="SVGID_122_" x="-77" y="-38.2" width="595.3" height="841.9"/>
		</defs>
		<clipPath id="SVGID_123_">
			<use xlink:href="#SVGID_122_"  style="overflow:visible;"/>
		</clipPath>
		<polygon class="st51" points="342.3,691.1 342.3,692.8 341,691.1 		"/>
	</g>
	<g>
		<defs>
			<rect id="SVGID_124_" x="-77" y="-38.2" width="595.3" height="841.9"/>
		</defs>
		<clipPath id="SVGID_125_">
			<use xlink:href="#SVGID_124_"  style="overflow:visible;"/>
		</clipPath>
		<rect x="263.4" y="678.4" class="st52" width="0.3" height="17"/>
	</g>
</g>
<g>
	<g>
		<defs>
			<path id="SVGID_126_" d="M253.7,688.2c-1.3,0.1-1.8,0.4-2.5,1.4l-1.2,1.8c-0.1-0.2-0.2-0.2-0.4-0.2c-0.6,0.9-1,1.7-1.3,2.6
				c-0.3,1.1-1.3,2.5-0.8,3.6c0.7,1.8,3.5,1.4,5,1.9c1.6,0.6,2.9,1.1,4.6,1.2c1.5,0.1,4.9,0.7,6.2-0.7c0.5-0.6,0.1-1,0.5-1.6
				c0.4-0.7,1.5-0.4,1.3-1.5c2-0.5,0.3-3.1-0.3-4c-0.3-0.5-0.4-1-0.7-1.5c-0.3-0.6-2-1.5-2.3-0.9c-0.3-1.4-2-1.2-3.1-0.7
				c-0.6,0.3-0.9,1-1.7,0.5l-0.2-0.7c-0.3-0.4-0.7-0.8-1.1-1.1c-0.4-0.2-0.7-0.2-1-0.2C254.1,688.2,253.9,688.2,253.7,688.2"/>
		</defs>
		<clipPath id="SVGID_127_">
			<use xlink:href="#SVGID_126_"  style="overflow:visible;"/>
		</clipPath>
		
			<linearGradient id="SVGID_128_" gradientUnits="userSpaceOnUse" x1="-120.8451" y1="47.7" x2="-119.8451" y2="47.7" gradientTransform="matrix(-13.2176 4.0505 4.0505 13.2176 -1522.7325 550.3853)">
			<stop  offset="0" style="stop-color:#C8B82C"/>
			<stop  offset="0.619" style="stop-color:#798429"/>
			<stop  offset="1" style="stop-color:#4D6A26"/>
		</linearGradient>
		<polygon class="st53" points="265.2,682.6 243.3,689.3 248.7,706.8 270.5,700.1 		"/>
	</g>
</g>
<g>
	<g>
		<defs>
			<path id="SVGID_129_" d="M68.3,669.9c-1.2,0.5-2.4,1-3.6,1.6c-1.6,0.7-2.1,1.6-2.7,3.2c-0.3,0.8,0.2,0.3-0.8,0.8
				c-0.7,0.3-1.5,0.3-2,1c-0.7,0.9,0.1,1.3,0.2,2.1c0.1,0.4-0.2,0.5,0,1c0.1,0.3,0.5,0.5,0.6,0.8c0.5,0.8,0.6,0.1-0.1,1
				c-0.3,0.4-0.7,0.5-0.4,1.2c0.5,1.3,2.4,0.9,3.1,1.8c0.4,0.5,0,0.6-0.4,1.2c-0.9,1.3-0.8,2.1,1,2.4c-1.8,0.8-4.5,1.4-5.2,3.5
				c-0.1,0.3,0,0.7-0.1,1c-0.2,0.5-0.6,0.9-0.6,1.5c0,0.4,0.4,0.6,0.3,0.9c-0.1,0.5-0.5,0.5-0.7,0.9c-0.7,1-0.5,1.1-0.2,2.1
				c0.3,1.3,1.3,1.9,2.3,2.9c1.9,1.7,5.2,1.3,7.8,1.5c3.2,0.2,6.4,0.7,9.6,0.4c2.9-0.3,5.9-0.2,8.8-0.5c1.8-0.2,3.5-0.1,4.5-1.9
				c0.3-0.5,0.3-1.1,0.8-1.4c0.2-0.1,0.5-0.1,0.9-0.1s0.7,0,1-0.2c0.1-0.1,0.3-0.5,0.5-0.6c0.5-0.4,1.3-0.5,1.6-1.2
				c0.4-0.9-0.2-2.2-0.5-3c-0.5-1.5-1.3-2.3-2.9-2.3c-1.1,0-2.8,0.4-2-0.8c0.4-0.5,1.7-0.8,2.2-1.3c0.4-0.4,0.8-0.9,1-1.5
				c0.1-0.3,0.2-0.5,0.1-0.8c-0.3-1.3-2.1-2.1-3.2-1.6c-0.4-1.5-2.4,0.1-3,0.5c-0.3-1-1-0.6-0.7-1.6c0.2-0.7,1.1-1.3,1.4-2.1
				c0.1-0.3,0.2-0.7,0.2-1.1c0-0.5,0.3-0.5,0-1c-0.4-0.6-1.9-0.6-2.8-0.6c-0.3,0-0.5,0-0.6,0c0-0.8,1.5-0.8,2.5-0.7
				c0.3,0,0.6,0,0.8,0c-0.2-0.2-0.2-0.7-0.4-0.9c-0.9-0.9-2.7-0.7-3.9-0.9c0.7-1,1.4-2.4,0.5-3.7c-1.2-1.8-4.8-0.9-6.4-0.2
				c0.2-1.2-1.7-1.9-2.6-1.9c0.2,0-0.5-1.2-0.6-1.3c-0.4-0.4-0.9-0.5-1.4-0.6c-0.2,0-0.4,0-0.6,0C70.4,669.2,69.3,669.5,68.3,669.9"
				/>
		</defs>
		<clipPath id="SVGID_130_">
			<use xlink:href="#SVGID_129_"  style="overflow:visible;"/>
		</clipPath>
		
			<linearGradient id="SVGID_131_" gradientUnits="userSpaceOnUse" x1="-119.9042" y1="45.4558" x2="-118.9042" y2="45.4558" gradientTransform="matrix(-26.9729 8.2657 8.2657 26.9729 -3513.365 444.6424)">
			<stop  offset="0" style="stop-color:#C8B82C"/>
			<stop  offset="0.619" style="stop-color:#798429"/>
			<stop  offset="1" style="stop-color:#4D6A26"/>
		</linearGradient>
		<polygon class="st54" points="91.6,658.4 46.8,672.1 59.6,713.7 104.3,700 		"/>
	</g>
</g>
<g>
	<g>
		<defs>
			<rect id="SVGID_132_" x="-77" y="-38.2" width="595.3" height="841.9"/>
		</defs>
		<clipPath id="SVGID_133_">
			<use xlink:href="#SVGID_132_"  style="overflow:visible;"/>
		</clipPath>
		<rect x="36.3" y="683.4" class="st55" width="0.3" height="17.3"/>
	</g>
	<g>
		<defs>
			<rect id="SVGID_134_" x="-77" y="-38.2" width="595.3" height="841.9"/>
		</defs>
		<clipPath id="SVGID_135_">
			<use xlink:href="#SVGID_134_"  style="overflow:visible;"/>
		</clipPath>
		<rect x="-12.9" y="683.4" class="st56" width="0.3" height="18.6"/>
	</g>
</g>
<rect x="223.1" y="693.2" class="st57" width="30.1" height="9.6"/>
<rect x="223.1" y="693.2" class="st58" width="30.1" height="1"/>
<rect x="226" y="685.7" class="st59" width="27.7" height="7.7"/>
<rect x="199.9" y="691.1" class="st57" width="26.7" height="9.6"/>
<rect x="199.9" y="691.1" class="st58" width="26.7" height="1"/>
<polygon class="st60" points="198.9,691.2 226.1,691.2 226.1,682.9 207.1,682.9 "/>
<rect x="225.2" y="683.1" class="st61" width="0.8" height="7.9"/>
<rect x="226" y="682.5" class="st62" width="0.7" height="8.9"/>
<g>
	<g>
		<defs>
			<path id="SVGID_136_" d="M207.7,687.4c-0.9-1.1-1.5,0.8-1.8,1.5c-0.2-0.5-0.9-0.6-1.4-0.4c-0.6,0.3-0.4,0.9-0.4,1.5
				c-0.6,0-0.8,0.1-0.9,0.8c0,0.2,0.1,0.3-0.1,0.5c-0.1,0-0.1,0-0.2-0.1c-0.1,0-0.1-0.1-0.1-0.1c-0.6,0.1-0.5,0.8-0.8,1.2
				c-0.2,0.4-0.5,0.4-0.5,1c0,0.7,0.3,0.9,0.9,1.1c0,0.5-0.4,1.3,0.4,1.5c-0.1,0.6,0.2,0.6,0.5,0.6c0.1,0,0.3,0,0.4,0
				c0.3,0.1,0.6,0.6,0.7,0.9l0.4,0.7c0.3,0.4,0.8,0.5,1.2,0.7c0.5,0.1,0.9,0.3,1.4,0.4c0.4,0,0.9,0,1.3-0.1c0.3-0.1,0.7-0.4,1-0.5
				c0.4,0,0.7,0.3,1.1,0.4c0.8,0.3,1.8,0.2,2.4-0.4l0.2-0.4c0.2-0.1,0.8-0.1,1-0.1c1.2-0.2,2.6-1.1,1.9-2.4c0.9-0.5,1.5-1.6,0.4-2.3
				c0.2-0.4-0.2-1.2-0.3-1.6c-0.3-1.1-1.1-0.6-1.9-0.5c-0.1-0.2,0-0.3-0.1-0.5c-0.1-0.3-0.2-0.6-0.4-0.8c-0.2-0.2-0.5-0.2-0.6-0.4
				c-0.2-0.2-0.1-0.5-0.3-0.7c-0.3-0.3-0.7-0.3-1.1-0.3h-0.1c0.1-1.3-1.1-0.4-1.8-0.3c-0.1-0.6,0.2-0.8-0.4-1.2
				c-0.3-0.2-0.6-0.3-0.9-0.3C208.3,686.6,207.9,686.9,207.7,687.4"/>
		</defs>
		<clipPath id="SVGID_137_">
			<use xlink:href="#SVGID_136_"  style="overflow:visible;"/>
		</clipPath>
		
			<linearGradient id="SVGID_138_" gradientUnits="userSpaceOnUse" x1="-121.6806" y1="46.5315" x2="-120.6806" y2="46.5315" gradientTransform="matrix(-15.668 0 0 15.668 -1689.3621 -36.2555)">
			<stop  offset="0" style="stop-color:#979E32"/>
			<stop  offset="0.9761" style="stop-color:#5B782D"/>
			<stop  offset="1" style="stop-color:#59772C"/>
		</linearGradient>
		<rect x="201.4" y="686.4" class="st63" width="16.3" height="12.8"/>
	</g>
</g>
<g>
	<g>
		<defs>
			<path id="SVGID_139_" d="M180.1,686.1c-0.1-0.1-0.3-0.7-0.5-0.8c-0.6-0.2-1.6,0.8-1.8,1.2c-0.6,0.9-0.3,1.9-0.8,2.7
				c0,0-0.1,0-0.2,0h-0.1c0,0.1,0,0.3,0,0.4c-1-1.4-1.7,1.4-2.1,1.8c-0.4,0.4-0.7,0.3-0.9,1c-0.2,0.5,0,1.2,0.1,1.7l0.3,2.9
				c0.7,0,1.3,0.1,2,0.2c1.8,0.3,3.8,0.5,5.6,0.2c0.9-0.2,1.6-0.4,2.5-0.4c1.5-0.1,3.1,0.2,4.7,0.4c1.9,0.3,3.8,0.5,5.7,0.3
				c1.2-0.2,1.8-1.4,0.5-2.1c0.9-0.7,0.7-1.5-0.1-2.3c0.3-1.2-4.4-4.7-5-3.4c-0.1-1.4-2.4,0.4-2.9,0.5c-0.8-0.8-0.1-1.4-0.2-2.2
				c-0.1-1.3-1.6-2.2-2.7-2.6c-0.2-0.1-1.2-0.2-2.2-0.2C181,685.2,180,685.4,180.1,686.1"/>
		</defs>
		<clipPath id="SVGID_140_">
			<use xlink:href="#SVGID_139_"  style="overflow:visible;"/>
		</clipPath>
		
			<linearGradient id="SVGID_141_" gradientUnits="userSpaceOnUse" x1="-120.8945" y1="45.6018" x2="-119.8945" y2="45.6018" gradientTransform="matrix(-22.1694 0 0 22.1694 -2484.3328 -319.4139)">
			<stop  offset="0" style="stop-color:#678039"/>
			<stop  offset="0.2184" style="stop-color:#5E7832"/>
			<stop  offset="0.6925" style="stop-color:#4F6B27"/>
			<stop  offset="1" style="stop-color:#4A6623"/>
		</linearGradient>
		<rect x="173.5" y="685.2" class="st64" width="22.9" height="12.7"/>
	</g>
</g>
<g>
	<g>
		<defs>
			<rect id="SVGID_142_" x="-77" y="-38.2" width="595.3" height="841.9"/>
		</defs>
		<clipPath id="SVGID_143_">
			<use xlink:href="#SVGID_142_"  style="overflow:visible;"/>
		</clipPath>
		<path class="st65" d="M137.5,678.3c0-0.5-0.4-0.4-0.4-0.9s0.5-0.5,0.6-0.8c0.2-0.4-0.1-0.9,0.3-1.2c0.4-0.3,0.7-0.2,1.1-0.5
			c0.6-0.5,1-1,1.8-0.9s0.5,0.7,1,1s1.2-0.4,1.8-0.3c0.7,0.1,0.6,0.5,0.9,1c0.1,0.1,0,0.3,0.1,0.4c0.4,0.4,1.4,0.5,1.9,0.8
			s0.4,0.5,0.7,0.8c0.5,0.4,1,0.1,1.3,0.7c0.2,0.3,0.1,0.8,0.1,1.2c0,0.6,0.1,1-0.4,1.3c-1,0.6-3.4-0.6-4.4-0.7
			c-1.9-0.3-3.8,0.2-5.7,0.2c-0.7,0-1.3,0-2,0v-0.9C136.2,678.8,136.7,678.2,137.5,678.3"/>
	</g>
	<g>
		<defs>
			<rect id="SVGID_144_" x="-77" y="-38.2" width="595.3" height="841.9"/>
		</defs>
		<clipPath id="SVGID_145_">
			<use xlink:href="#SVGID_144_"  style="overflow:visible;"/>
		</clipPath>
		<path class="st66" d="M138.6,678.6c0-0.4-0.1-1-0.1-1.3c-0.1-1.1-0.1-1,0.7-1.5c0.4-0.2,0.8-0.8,1.4-0.5c0.3,0.1,0.2,0.4,0.5,0.6
			c0.4,0.2,0.6,0.1,1,0.1c0.3,0,1.1-0.3,1.3-0.1c0.3,0.2,0.1,0.6,0.3,0.8c0.5,0.9,1.7,0.4,2.4,1.1c0.2,0.2,0.1,0.4,0.4,0.6
			c0.3,0.2,0.9,0.2,1.1,0.6c0.3,0.5-0.2,1-0.4,1.4c-2.3-0.1-4.5-0.7-6.8-0.7c-0.7,0-1.6-0.2-2.3,0.1l-0.7-0.4
			C137.9,679,138.2,678.7,138.6,678.6"/>
	</g>
	<g>
		<defs>
			<rect id="SVGID_146_" x="-77" y="-38.2" width="595.3" height="841.9"/>
		</defs>
		<clipPath id="SVGID_147_">
			<use xlink:href="#SVGID_146_"  style="overflow:visible;"/>
		</clipPath>
		<rect x="131.3" y="688.8" class="st67" width="35.2" height="13.2"/>
	</g>
	<g>
		<defs>
			<rect id="SVGID_148_" x="-77" y="-38.2" width="595.3" height="841.9"/>
		</defs>
		<clipPath id="SVGID_149_">
			<use xlink:href="#SVGID_148_"  style="overflow:visible;"/>
		</clipPath>
		<rect x="131.3" y="688.8" class="st68" width="35.2" height="0.8"/>
	</g>
	<g>
		<defs>
			<rect id="SVGID_150_" x="-77" y="-38.2" width="595.3" height="841.9"/>
		</defs>
		<clipPath id="SVGID_151_">
			<use xlink:href="#SVGID_150_"  style="overflow:visible;"/>
		</clipPath>
		<rect x="130.9" y="679" class="st69" width="36" height="9.9"/>
	</g>
	<g>
		<defs>
			<rect id="SVGID_152_" x="-77" y="-38.2" width="595.3" height="841.9"/>
		</defs>
		<clipPath id="SVGID_153_">
			<use xlink:href="#SVGID_152_"  style="overflow:visible;"/>
		</clipPath>
		<rect x="153.4" y="678.9" class="st70" width="4" height="1.2"/>
	</g>
	<g>
		<defs>
			<rect id="SVGID_154_" x="-77" y="-38.2" width="595.3" height="841.9"/>
		</defs>
		<clipPath id="SVGID_155_">
			<use xlink:href="#SVGID_154_"  style="overflow:visible;"/>
		</clipPath>
		<rect x="153.8" y="675.1" class="st71" width="3.2" height="4.6"/>
	</g>
	<g>
		<defs>
			<rect id="SVGID_156_" x="-77" y="-38.2" width="595.3" height="841.9"/>
		</defs>
		<clipPath id="SVGID_157_">
			<use xlink:href="#SVGID_156_"  style="overflow:visible;"/>
		</clipPath>
		<rect x="160.3" y="688.9" class="st72" width="0.6" height="0.7"/>
	</g>
	<g>
		<defs>
			<rect id="SVGID_158_" x="-77" y="-38.2" width="595.3" height="841.9"/>
		</defs>
		<clipPath id="SVGID_159_">
			<use xlink:href="#SVGID_158_"  style="overflow:visible;"/>
		</clipPath>
		<rect x="160.3" y="689.6" class="st73" width="0.6" height="1"/>
	</g>
	<g>
		<defs>
			<rect id="SVGID_160_" x="-77" y="-38.2" width="595.3" height="841.9"/>
		</defs>
		<clipPath id="SVGID_161_">
			<use xlink:href="#SVGID_160_"  style="overflow:visible;"/>
		</clipPath>
		<rect x="159.3" y="688.9" class="st74" width="0.6" height="0.7"/>
	</g>
	<g>
		<defs>
			<rect id="SVGID_162_" x="-77" y="-38.2" width="595.3" height="841.9"/>
		</defs>
		<clipPath id="SVGID_163_">
			<use xlink:href="#SVGID_162_"  style="overflow:visible;"/>
		</clipPath>
		<rect x="159.3" y="689.6" class="st75" width="0.6" height="1"/>
	</g>
	<g>
		<defs>
			<rect id="SVGID_164_" x="-77" y="-38.2" width="595.3" height="841.9"/>
		</defs>
		<clipPath id="SVGID_165_">
			<use xlink:href="#SVGID_164_"  style="overflow:visible;"/>
		</clipPath>
		<rect x="158.4" y="688.9" class="st76" width="0.6" height="0.7"/>
	</g>
	<g>
		<defs>
			<rect id="SVGID_166_" x="-77" y="-38.2" width="595.3" height="841.9"/>
		</defs>
		<clipPath id="SVGID_167_">
			<use xlink:href="#SVGID_166_"  style="overflow:visible;"/>
		</clipPath>
		<rect x="158.4" y="689.6" class="st77" width="0.6" height="1"/>
	</g>
	<g>
		<defs>
			<rect id="SVGID_168_" x="-77" y="-38.2" width="595.3" height="841.9"/>
		</defs>
		<clipPath id="SVGID_169_">
			<use xlink:href="#SVGID_168_"  style="overflow:visible;"/>
		</clipPath>
		<rect x="160.3" y="693.8" class="st78" width="0.6" height="2.1"/>
	</g>
	<g>
		<defs>
			<rect id="SVGID_170_" x="-77" y="-38.2" width="595.3" height="841.9"/>
		</defs>
		<clipPath id="SVGID_171_">
			<use xlink:href="#SVGID_170_"  style="overflow:visible;"/>
		</clipPath>
		<rect x="158.4" y="693.4" class="st79" width="2.5" height="0.4"/>
	</g>
	<g>
		<defs>
			<rect id="SVGID_172_" x="-77" y="-38.2" width="595.3" height="841.9"/>
		</defs>
		<clipPath id="SVGID_173_">
			<use xlink:href="#SVGID_172_"  style="overflow:visible;"/>
		</clipPath>
		<rect x="159.3" y="693.8" class="st80" width="0.6" height="2.1"/>
	</g>
	<g>
		<defs>
			<rect id="SVGID_174_" x="-77" y="-38.2" width="595.3" height="841.9"/>
		</defs>
		<clipPath id="SVGID_175_">
			<use xlink:href="#SVGID_174_"  style="overflow:visible;"/>
		</clipPath>
		<rect x="158.4" y="693.8" class="st81" width="0.6" height="2.1"/>
	</g>
	<g>
		<defs>
			<rect id="SVGID_176_" x="-77" y="-38.2" width="595.3" height="841.9"/>
		</defs>
		<clipPath id="SVGID_177_">
			<use xlink:href="#SVGID_176_"  style="overflow:visible;"/>
		</clipPath>
		<rect x="148.1" y="688.9" class="st82" width="0.6" height="0.7"/>
	</g>
	<g>
		<defs>
			<rect id="SVGID_178_" x="-77" y="-38.2" width="595.3" height="841.9"/>
		</defs>
		<clipPath id="SVGID_179_">
			<use xlink:href="#SVGID_178_"  style="overflow:visible;"/>
		</clipPath>
		<rect x="148.1" y="689.6" class="st83" width="0.6" height="1"/>
	</g>
	<g>
		<defs>
			<rect id="SVGID_180_" x="-77" y="-38.2" width="595.3" height="841.9"/>
		</defs>
		<clipPath id="SVGID_181_">
			<use xlink:href="#SVGID_180_"  style="overflow:visible;"/>
		</clipPath>
		<rect x="147.1" y="688.9" class="st84" width="0.6" height="0.7"/>
	</g>
	<g>
		<defs>
			<rect id="SVGID_182_" x="-77" y="-38.2" width="595.3" height="841.9"/>
		</defs>
		<clipPath id="SVGID_183_">
			<use xlink:href="#SVGID_182_"  style="overflow:visible;"/>
		</clipPath>
		<rect x="147.1" y="689.6" class="st85" width="0.6" height="1"/>
	</g>
	<g>
		<defs>
			<rect id="SVGID_184_" x="-77" y="-38.2" width="595.3" height="841.9"/>
		</defs>
		<clipPath id="SVGID_185_">
			<use xlink:href="#SVGID_184_"  style="overflow:visible;"/>
		</clipPath>
		<rect x="146.2" y="688.9" class="st86" width="0.6" height="0.7"/>
	</g>
	<g>
		<defs>
			<rect id="SVGID_186_" x="-77" y="-38.2" width="595.3" height="841.9"/>
		</defs>
		<clipPath id="SVGID_187_">
			<use xlink:href="#SVGID_186_"  style="overflow:visible;"/>
		</clipPath>
		<rect x="146.2" y="689.6" class="st87" width="0.6" height="1"/>
	</g>
	<g>
		<defs>
			<rect id="SVGID_188_" x="-77" y="-38.2" width="595.3" height="841.9"/>
		</defs>
		<clipPath id="SVGID_189_">
			<use xlink:href="#SVGID_188_"  style="overflow:visible;"/>
		</clipPath>
		<rect x="148.1" y="693.8" class="st88" width="0.6" height="2.1"/>
	</g>
	<g>
		<defs>
			<rect id="SVGID_190_" x="-77" y="-38.2" width="595.3" height="841.9"/>
		</defs>
		<clipPath id="SVGID_191_">
			<use xlink:href="#SVGID_190_"  style="overflow:visible;"/>
		</clipPath>
		<rect x="146.2" y="693.4" class="st89" width="2.5" height="0.4"/>
	</g>
	<g>
		<defs>
			<rect id="SVGID_192_" x="-77" y="-38.2" width="595.3" height="841.9"/>
		</defs>
		<clipPath id="SVGID_193_">
			<use xlink:href="#SVGID_192_"  style="overflow:visible;"/>
		</clipPath>
		<rect x="147.1" y="693.8" class="st90" width="0.6" height="2.1"/>
	</g>
	<g>
		<defs>
			<rect id="SVGID_194_" x="-77" y="-38.2" width="595.3" height="841.9"/>
		</defs>
		<clipPath id="SVGID_195_">
			<use xlink:href="#SVGID_194_"  style="overflow:visible;"/>
		</clipPath>
		<rect x="146.2" y="693.8" class="st91" width="0.6" height="2.1"/>
	</g>
	<g>
		<defs>
			<rect id="SVGID_196_" x="-77" y="-38.2" width="595.3" height="841.9"/>
		</defs>
		<clipPath id="SVGID_197_">
			<use xlink:href="#SVGID_196_"  style="overflow:visible;"/>
		</clipPath>
		<rect x="135.5" y="688.9" class="st92" width="0.6" height="0.7"/>
	</g>
	<g>
		<defs>
			<rect id="SVGID_198_" x="-77" y="-38.2" width="595.3" height="841.9"/>
		</defs>
		<clipPath id="SVGID_199_">
			<use xlink:href="#SVGID_198_"  style="overflow:visible;"/>
		</clipPath>
		<rect x="135.5" y="689.6" class="st93" width="0.6" height="1"/>
	</g>
	<g>
		<defs>
			<rect id="SVGID_200_" x="-77" y="-38.2" width="595.3" height="841.9"/>
		</defs>
		<clipPath id="SVGID_201_">
			<use xlink:href="#SVGID_200_"  style="overflow:visible;"/>
		</clipPath>
		<rect x="138.5" y="688.9" class="st94" width="0.5" height="0.7"/>
	</g>
	<g>
		<defs>
			<rect id="SVGID_202_" x="-77" y="-38.2" width="595.3" height="841.9"/>
		</defs>
		<clipPath id="SVGID_203_">
			<use xlink:href="#SVGID_202_"  style="overflow:visible;"/>
		</clipPath>
		<rect x="138.5" y="689.6" class="st95" width="0.5" height="1"/>
	</g>
	<g>
		<defs>
			<rect id="SVGID_204_" x="-77" y="-38.2" width="595.3" height="841.9"/>
		</defs>
		<clipPath id="SVGID_205_">
			<use xlink:href="#SVGID_204_"  style="overflow:visible;"/>
		</clipPath>
		<rect x="139.2" y="688.9" class="st96" width="0.5" height="0.7"/>
	</g>
	<g>
		<defs>
			<rect id="SVGID_206_" x="-77" y="-38.2" width="595.3" height="841.9"/>
		</defs>
		<clipPath id="SVGID_207_">
			<use xlink:href="#SVGID_206_"  style="overflow:visible;"/>
		</clipPath>
		<rect x="139.2" y="689.6" class="st97" width="0.5" height="1"/>
	</g>
	<g>
		<defs>
			<rect id="SVGID_208_" x="-77" y="-38.2" width="595.3" height="841.9"/>
		</defs>
		<clipPath id="SVGID_209_">
			<use xlink:href="#SVGID_208_"  style="overflow:visible;"/>
		</clipPath>
		<rect x="134.6" y="688.9" class="st98" width="0.6" height="0.7"/>
	</g>
	<g>
		<defs>
			<rect id="SVGID_210_" x="-77" y="-38.2" width="595.3" height="841.9"/>
		</defs>
		<clipPath id="SVGID_211_">
			<use xlink:href="#SVGID_210_"  style="overflow:visible;"/>
		</clipPath>
		<rect x="134.6" y="689.6" class="st99" width="0.6" height="1"/>
	</g>
	<g>
		<defs>
			<rect id="SVGID_212_" x="-77" y="-38.2" width="595.3" height="841.9"/>
		</defs>
		<clipPath id="SVGID_213_">
			<use xlink:href="#SVGID_212_"  style="overflow:visible;"/>
		</clipPath>
		<rect x="133.7" y="688.9" class="st100" width="0.6" height="0.7"/>
	</g>
	<g>
		<defs>
			<rect id="SVGID_214_" x="-77" y="-38.2" width="595.3" height="841.9"/>
		</defs>
		<clipPath id="SVGID_215_">
			<use xlink:href="#SVGID_214_"  style="overflow:visible;"/>
		</clipPath>
		<rect x="133.7" y="689.6" class="st101" width="0.6" height="1"/>
	</g>
	<g>
		<defs>
			<rect id="SVGID_216_" x="-77" y="-38.2" width="595.3" height="841.9"/>
		</defs>
		<clipPath id="SVGID_217_">
			<use xlink:href="#SVGID_216_"  style="overflow:visible;"/>
		</clipPath>
		<rect x="135.5" y="693.8" class="st102" width="0.6" height="2.1"/>
	</g>
	<g>
		<defs>
			<rect id="SVGID_218_" x="-77" y="-38.2" width="595.3" height="841.9"/>
		</defs>
		<clipPath id="SVGID_219_">
			<use xlink:href="#SVGID_218_"  style="overflow:visible;"/>
		</clipPath>
		<rect x="133.7" y="693.4" class="st103" width="2.5" height="0.4"/>
	</g>
	<g>
		<defs>
			<rect id="SVGID_220_" x="-77" y="-38.2" width="595.3" height="841.9"/>
		</defs>
		<clipPath id="SVGID_221_">
			<use xlink:href="#SVGID_220_"  style="overflow:visible;"/>
		</clipPath>
		<rect x="134.6" y="693.8" class="st104" width="0.6" height="2.1"/>
	</g>
	<g>
		<defs>
			<rect id="SVGID_222_" x="-77" y="-38.2" width="595.3" height="841.9"/>
		</defs>
		<clipPath id="SVGID_223_">
			<use xlink:href="#SVGID_222_"  style="overflow:visible;"/>
		</clipPath>
		<rect x="133.7" y="693.8" class="st105" width="0.6" height="2.1"/>
	</g>
	<g>
		<defs>
			<rect id="SVGID_224_" x="-77" y="-38.2" width="595.3" height="841.9"/>
		</defs>
		<clipPath id="SVGID_225_">
			<use xlink:href="#SVGID_224_"  style="overflow:visible;"/>
		</clipPath>
		<rect x="153.8" y="675.7" class="st106" width="3.2" height="0.4"/>
	</g>
	<g>
		<defs>
			<rect id="SVGID_226_" x="-77" y="-38.2" width="595.3" height="841.9"/>
		</defs>
		<clipPath id="SVGID_227_">
			<use xlink:href="#SVGID_226_"  style="overflow:visible;"/>
		</clipPath>
		<rect x="155.7" y="673.9" class="st107" width="0.5" height="1.3"/>
	</g>
	<g>
		<defs>
			<rect id="SVGID_228_" x="-77" y="-38.2" width="595.3" height="841.9"/>
		</defs>
		<clipPath id="SVGID_229_">
			<use xlink:href="#SVGID_228_"  style="overflow:visible;"/>
		</clipPath>
		<rect x="154.7" y="674.3" class="st108" width="0.5" height="0.9"/>
	</g>
	<g>
		<defs>
			<rect id="SVGID_230_" x="-77" y="-38.2" width="595.3" height="841.9"/>
		</defs>
		<clipPath id="SVGID_231_">
			<use xlink:href="#SVGID_230_"  style="overflow:visible;"/>
		</clipPath>
		<rect x="140.3" y="693.6" class="st109" width="3.2" height="0.3"/>
	</g>
	<g>
		<defs>
			<rect id="SVGID_232_" x="-77" y="-38.2" width="595.3" height="841.9"/>
		</defs>
		<clipPath id="SVGID_233_">
			<use xlink:href="#SVGID_232_"  style="overflow:visible;"/>
		</clipPath>
		<rect x="141.5" y="694.2" class="st110" width="1.9" height="3.9"/>
	</g>
	<g>
		<defs>
			<rect id="SVGID_234_" x="-77" y="-38.2" width="595.3" height="841.9"/>
		</defs>
		<clipPath id="SVGID_235_">
			<use xlink:href="#SVGID_234_"  style="overflow:visible;"/>
		</clipPath>
		<polygon class="st111" points="153.4,679 153.4,680.1 151.5,679 		"/>
	</g>
</g>
<g>
	<g>
		<defs>
			<rect id="SVGID_236_" x="-77" y="-38.2" width="595.3" height="841.9"/>
		</defs>
		<clipPath id="SVGID_237_">
			<use xlink:href="#SVGID_236_"  style="overflow:visible;"/>
		</clipPath>
		<path class="st112" d="M63.1,697.4c0.1-0.2,0.2-0.3,0.3-0.5l1.4-0.5c0.3,0,0.4,0.3,0.6,0.4c0.5,0.2,1,0,1.5,0.2
			c0.3,0.1,0.6,0.3,0.8,0.6c0.2,0.3,0.1,0.6,0.3,0.9c0.2,0.4,0.9,0.3,1.2,0.7c1.2-1.1,4.4-2.3,5.6-0.6c0.3,0.4,0.4,0.4,0.9,0.6
			c0.3,0.1,0.5,0.2,0.8,0.3c0.2,0.1,0.4,0.2,0.5,0.3c0.3,0.1,0.5-0.1,0.9-0.2c1.4-0.2,2.7,0.3,4,0.5c0.7,0.1,1.5-0.2,2.1,0.1
			c0.3,0.1,1.1,1.1,1,1.5c-0.1,0.3-1.2,0.3-1.3,0.4c-1.9,0.2-3.9,0-5.8-0.1c-1.7,0-3.4,0.1-5,0.2c-1.7,0.1-3.4,0.3-5.1,0.3
			c-1,0-2,0-3,0c-0.4,0-1,0.1-1.4-0.1c-0.6-0.3-0.4-1.4-0.4-2C63,699.7,62.8,698.4,63.1,697.4"/>
	</g>
	<g>
		<defs>
			<rect id="SVGID_238_" x="-77" y="-38.2" width="595.3" height="841.9"/>
		</defs>
		<clipPath id="SVGID_239_">
			<use xlink:href="#SVGID_238_"  style="overflow:visible;"/>
		</clipPath>
		<path class="st113" d="M85.5,700.2c0.1-0.1,0.6-0.7,0.6-0.8c0.7-1,1.4-1.8,2.7-2.3c2.7-1.2,5.1-2.9,8.3-2.5
			c1.5,0.2,3.2,2.3,4.6,1.6c0-0.1,0-0.2,0-0.4c0.7-0.1,1.8,0.3,2.3,0.1c0.3-0.1,0.5-0.6,0.7-0.8c0.3-0.3,0.7-0.7,1.2-0.8
			s0.8,0.2,1.2,0.2s0.5-0.2,1-0.3c1.9-0.4,3,0.8,4.6,1.8c0.3,0.2,1.2,1,1.5,1.1c0.5,0.1,0.2-0.2,0.7-0.4c1-0.3,1.6-0.6,2.7-0.6
			c1.2,0,2.4,0.2,3,1.4c0.8,0,1.3-0.6,1.9-0.8c0.5-0.1,1,0.1,1.5,0c0.3-0.1,0.3-0.4,0.6-0.4c0.5-0.1,0.9,0,1.4,0
			c1.3,0,2.4-0.8,3.8-0.5c1.2,0.2,2.5,0.9,3.5,1.5v1.2c0.1,1.2,1.7,1.7,1.2,3.5c-0.2,0.8-0.3,0.7-1.2,0.8c-2,0.3-4.1,0.2-6.1,0.4
			c-7.4,0.8-15.5,1.5-22.8,0.5c-5.9-0.8-11.8-0.3-17.7-0.7c-0.7,0-1.7,0.2-2.1-0.5C83.9,701.3,84.9,700.7,85.5,700.2"/>
	</g>
	<g>
		<defs>
			<rect id="SVGID_240_" x="-77" y="-38.2" width="595.3" height="841.9"/>
		</defs>
		<clipPath id="SVGID_241_">
			<use xlink:href="#SVGID_240_"  style="overflow:visible;"/>
		</clipPath>
		<path class="st114" d="M89.1,699.3c0-1.7,1.9-1.8,3.3-1.8c0-1.2,1.9-1.5,2.8-1.5c0.9,0,1.7,0.1,2.5,0.5c0.4,0.2,0.6,0.5,1,0.7
			c0.6,0.2,1.3,0,1.9,0.1c0.5,0.1,0.7,0.4,1.3,0.4c1,0.1,1.2-0.1,2,0.4c0.6,0.4,1.1,1.2,1.8,1.6c0.1-1.7-0.6-1.7-1.8-2.5
			c0.3-0.4,2-0.8,2.6-0.9c0.4-0.1,0.8,0.1,1.3,0c0.4-0.1,0.6-0.4,1-0.4c0.8-0.1,1.6,0.1,2.4,0.4c0.9,0.3,0.8,0.5,1.3,1
			c0.4,0.4,1,0.6,1.4,1.1c0.2,0.3,0.2,1.2,0.4,1.5c1.6,1.3,0.6-1.9,0.6-2.2c0.9-0.1,1.9-0.3,2.9-0.3c0.8,0,1.2,0,1.8,0.3
			c0.4,0.2,0.5,0.8,1.1,0.9c-0.1,0.6-0.6,1.1-0.5,1.7c1.1,0.3,1.9-1.7,2.6-2.1c0.8-0.6,2,0.1,2.9,0.1c0.4,0,1.1-0.2,1.5-0.3
			c0.9-0.2,1.6-0.9,2.6-0.8c0.9,0.1,1.5,0.6,1.2,1.4c-0.4,1-2.3,1.4-1,2.9l-0.8,1c-1.6,0-3.1,0.6-4.7,0.8c-3.9,0.7-8.2,0.6-12.2,0.6
			c-4-0.1-8.1,0.1-12.1-0.5c-4.3-0.7-8.5-0.5-12.8-0.7C87,701.1,87.8,699.6,89.1,699.3"/>
	</g>
	<g>
		<defs>
			<rect id="SVGID_242_" x="-77" y="-38.2" width="595.3" height="841.9"/>
		</defs>
		<clipPath id="SVGID_243_">
			<use xlink:href="#SVGID_242_"  style="overflow:visible;"/>
		</clipPath>
		<path class="st115" d="M235.6,699.1c1.1,0,1.5-0.7,2.7-1.3c1.1-0.5,1.7-0.1,2.7-0.2c1.3-0.1,2.2-0.9,3.6-0.7
			c0.4,0.1,0.5,0.4,1.1,0.3c0.9-0.1,1.7-0.4,2.6-0.3c1.4,0.1,3.7,0.2,3.8,2v-0.3c1.8-1.4,4.2-1.2,6.2-0.5c1.3,0.4,2.3,1.3,3.4,1.7
			c0.9,0.3,1.5,0,2.5-0.3c1.5-0.4,2.6-0.1,4,0.1c1.8,0.2,3.7-0.3,5.5,0c0.5,0.1,0.9,0.4,1.3,0.4c1.4,0.1,2.8-0.6,4.2-0.6
			c2.1-0.1,3.8-1,5.9-1.1c2-0.1,4-0.1,5.9-0.1c2.3,0,4.6,0.5,6.8,1.1c0.7,0.2,1.4,0.3,2.2,0.3c1.7-0.1,3.3-0.9,5-1
			c1.5-0.1,3-0.6,4.5-0.7c0.8,0,1.5,0.3,2.3,0.4c0.9,0.1,1.7-0.2,2.7-0.3c1.8-0.1,3.7,0.2,5.4,0.7c0.9,0.3,1.8,1.1,2.7,1.3
			c1,0.2,0.7,0.1,1.8-0.4c2.2-0.8,4.4-0.9,6.5-0.2s4,0.6,4.6,3.3c-6.1,0.3-12.3-0.1-18.4-0.1c-5.3,0-10.6,0.1-15.9,0.4
			c-4.6,0.2-9.2,0.7-13.8,0.5c-3.1-0.1-6.2-0.4-9.3-0.6c-2.8-0.2-5.7,0.1-8.6-0.1c-4.4-0.2-8.8-0.1-13.2-0.1c-1.2,0-6.6,3-6.5,1.1
			c-1.1-0.2-1.4-2.2-2.5-1.9c-1.4,0.3-2.9,0.4-4.3,0.4c-1.4-0.1-2.7,0-4,0c-3.6,0-5,0.6-6.9,0.6c-0.8,0-0.7-1.5-1.4-1.5
			C230,698.8,234.2,699,235.6,699.1"/>
	</g>
	<g>
		<defs>
			<rect id="SVGID_244_" x="-77" y="-38.2" width="595.3" height="841.9"/>
		</defs>
		<clipPath id="SVGID_245_">
			<use xlink:href="#SVGID_244_"  style="overflow:visible;"/>
		</clipPath>
		<path class="st116" d="M233,701.6c0-1.2,1.1-1.4,2-1.4c0.7-0.1,1.9,0.6,2.5,0.4c0.5-0.2,0.5-1.4,1.1-1.7c0.3-0.2,0.5,0,0.9-0.1
			c0.8-0.2,1.7-0.2,2.4,0.2c0.6-0.9,2.2-0.1,3-0.1c1.9-0.2,3.8-0.8,4.8,1.1c0.2,0.4,0.7,2.3,1.5,1.8c0.9-0.7-1.3-2.3-1.2-3.1
			c0.8,0.6,1.4,1.2,2.2,0.9c0.4-0.2,0.7-0.6,1.3-0.7c0.5-0.1,1,0.1,1.5,0.1c1.2,0.1,2.7-0.4,3.6,0.7c0.5,0.5,1,1.9,1.2,2.6
			c0.7-0.7-0.2-1.5-0.3-2.2c1.1,0.2,1.8,1.4,2.9,1.3c0.9,0,2-0.8,3.2-0.8c1.3,0,2,0.3,3.2,0.5c1.3,0.2,2.7,0,4,0
			c2.6,0,5.5-0.2,8-0.9c1.3-0.3,2.6-0.8,4-0.9c1.2-0.1,1.9,0.1,3.1-0.1c1.5-0.3,3.2-0.4,4.6,0c1.8,0.5,3.7,1.3,5.6,1.7
			c2.8,0.6,4.8-1.8,7.5-2.1c2.2-0.2,4.7-0.1,6.8,0.2c2.5,0.4,5,0.1,7.3,1.1c1.9,0.8,4,1.4,6.1,0.9c1.3-0.3,2.6-0.8,4-0.3
			c0.9,0.3,1.7,0.9,2.5,1.3c-0.1,1.1-3.2,0.8-3.9,0.8c-2.8,0-5.5,0.2-8.3,0.6c-4.9,0.7-10,0.6-15,0.6c-5.2,0-10.4-0.1-15.7-0.1
			c-13.1-0.2-26.3-0.3-39.5-0.3c-5.8,0-12.1,0.7-17.6-0.9L233,701.6z"/>
	</g>
	<g>
		<defs>
			<rect id="SVGID_246_" x="-77" y="-38.2" width="595.3" height="841.9"/>
		</defs>
		<clipPath id="SVGID_247_">
			<use xlink:href="#SVGID_246_"  style="overflow:visible;"/>
		</clipPath>
		<path class="st117" d="M179.1,695c0.4-1,1.5-1.5,2.6-1.4c1.2,0.1,1.4,1.1,1.8,2.1c0.7-0.1,0.8-1.1,1.4-1.5
			c0.6-0.4,2.3-1.3,2.8-0.3c1.6-0.4,3.2-1.3,4.9-0.3c0.8,0.5,1.9,1.5,1.8,2.5c0.9-0.3,1.6-0.7,2.7-0.4c0.8,0.2,1,0.7,1.6,1.2
			c0.4,0.3,0.3,0.2,0.7,0.4c0.8,0.4,1.5,1.2,2.3,0.9c1.3-0.5,2-1.6,3.5-1.6c1.5-0.1,2.5,1.8,4.1,1.2c0.4-0.2,0.8-0.8,1.3-1
			s0.7,0,1.2-0.1c0.9-0.1,1.7-0.7,2.9-0.6c1.9,0.2,3.7,2.5,5.7,1.9c0.6-0.2,1-0.8,1.5-1.2c0.8-0.7,1.5-1,2.5-1.1
			c1.2-0.1,2.2,0.2,3.2,0.5c1.8,0.4,3.9,1.4,4.6,3.3c0.1,0.4,0.5,2.4,0,2.8H179L179.1,695L179.1,695z"/>
	</g>
	<g>
		<defs>
			<rect id="SVGID_248_" x="-77" y="-38.2" width="595.3" height="841.9"/>
		</defs>
		<clipPath id="SVGID_249_">
			<use xlink:href="#SVGID_248_"  style="overflow:visible;"/>
		</clipPath>
		<path class="st118" d="M182.3,698.1l1.3-0.6c0.1-0.5,0.6-1.1,1.1-1.3c0.6-0.4,0.6-0.1,1.2-0.2c0.2,0,0.2,0.1,0.4,0
			s0.6-0.6,0.9-0.7c0.9-0.4,2.3-0.7,3.2-0.5c1,0.2,0.6,1,1.3,1.5c1,0.7,2.7,0.5,3,2.1c0.8-0.2,1.4-0.7,2.2-0.7
			c1-0.1,1.8,0.2,2.5,0.8c0.7,0.5,1.2,1.6,2.1,1.3c0.3-0.1,0.3-0.3,0.7-0.4c0.4,0,0.9,0.3,1.1,0.6c0.3,0.4,0.2,0.9,0.5,1.2
			c0.7-0.2,0.7-1.1,0.4-1.7c-0.3-0.8-1-0.8-0.4-1.6c0.3-0.4,0.9-0.7,1.4-0.6c0.6,0.1,0.4,0.3,0.8,0.6c1,0.8,2.7,0.4,3.4,1.8
			c0.6-0.3,1.9-0.7,1.9-1.4c0.7-0.1,0.8-0.1,1.3-0.4c0.6-0.3,1-0.5,1.7-0.6c1.2,0,2.4,0.6,3,1.5c0.4,0.6,0.2,2,1.1,2.1
			c1.1,0.1,1.3-1.8,0.5-2.1c0.9-0.1,2.1,0.4,2.9-0.1c0.9-0.6,0.7-1.6,1.9-1.8c1.5-0.2,3.5-0.2,4.8,0.4c1.8,0.8,3.2,3.3,2.4,5.3
			c-5.4,0.3-10.9,0-16.4,0c-5,0-10.1,0.2-15.1,0.4c-5.9,0.3-11.9,0.9-17.8,0.5C181.7,701.7,182.2,699.9,182.3,698.1"/>
	</g>
	<g>
		<defs>
			<rect id="SVGID_250_" x="-77" y="-38.2" width="595.3" height="841.9"/>
		</defs>
		<clipPath id="SVGID_251_">
			<use xlink:href="#SVGID_250_"  style="overflow:visible;"/>
		</clipPath>
		<path class="st119" d="M65,696.6c-0.4-0.8-1.5-1.2-2.6-1.2c-1.2,0.1-1.5,0.9-1.8,1.7c-0.7-0.1-0.8-0.9-1.4-1.2
			c-0.6-0.4-2.3-1-2.8-0.2c-1.6-0.3-3.2-1-4.9-0.2c-0.8,0.4-1.9,1.2-1.8,2c-0.9-0.2-1.6-0.6-2.7-0.4c-0.8,0.2-1,0.6-1.6,0.9
			c-0.4,0.2-0.3,0.2-0.7,0.3c-0.8,0.3-1.5,0.9-2.3,0.7c-1.3-0.4-2-1.3-3.5-1.3s-2.5,1.5-4.1,1c-0.4-0.1-0.8-0.7-1.3-0.9
			s-0.7,0-1.2-0.1c-0.9-0.1-1.7-0.6-2.9-0.5c-1.9,0.1-3.7,2.1-5.7,1.5c-0.6-0.2-1-0.7-1.5-1c-0.8-0.5-1.5-0.8-2.5-0.9
			c-1.2-0.1-2.2,0.2-3.2,0.4c-1.8,0.3-3.9,1.1-4.6,2.6c-0.1,0.3-0.5,2,0,2.3H65V696.6z"/>
	</g>
	<g>
		<defs>
			<rect id="SVGID_252_" x="-77" y="-38.2" width="595.3" height="841.9"/>
		</defs>
		<clipPath id="SVGID_253_">
			<use xlink:href="#SVGID_252_"  style="overflow:visible;"/>
		</clipPath>
		<path class="st120" d="M61.7,699.2l-1.3-0.5c-0.1-0.4-0.6-0.9-1.1-1.1c-0.6-0.3-0.6-0.1-1.2-0.1c-0.2,0-0.2,0.1-0.4,0
			c-0.2-0.1-0.6-0.5-0.9-0.6c-0.9-0.3-2.3-0.6-3.2-0.4c-1,0.2-0.6,0.8-1.3,1.2c-1,0.6-2.7,0.4-3,1.7c-0.8-0.2-1.4-0.5-2.2-0.6
			c-1-0.1-1.8,0.2-2.5,0.7c-0.7,0.4-1.2,1.3-2.1,1c-0.3-0.1-0.3-0.3-0.7-0.3c-0.4,0-0.9,0.2-1.1,0.5c-0.3,0.3-0.2,0.7-0.5,1
			c-0.7-0.2-0.7-0.9-0.4-1.3c0.3-0.6,1-0.6,0.4-1.3c-0.3-0.3-0.9-0.6-1.4-0.5c-0.6,0.1-0.4,0.3-0.8,0.5c-1,0.7-2.7,0.4-3.4,1.5
			c-0.6-0.2-1.9-0.5-1.9-1.2c-0.7,0-0.8,0-1.3-0.3c-0.6-0.3-1-0.4-1.7-0.5c-1.2,0-2.4,0.5-3,1.2c-0.4,0.5-0.2,1.6-1.1,1.7
			c-1.1,0.1-1.3-1.5-0.5-1.7c-0.9-0.1-2.1,0.3-2.9-0.1c-0.8-0.5-0.7-1.3-1.9-1.4c-1.5-0.1-3.5-0.2-4.8,0.3c-1.8,0.7-3.2,2.7-2.4,4.3
			c5.4,0.2,10.9,0,16.4,0c5,0,10.1,0.1,15.1,0.3c5.9,0.3,11.9,0.7,17.8,0.4C62.4,702.1,61.9,700.6,61.7,699.2"/>
	</g>
	<g>
		<defs>
			<rect id="SVGID_254_" x="-77" y="-38.2" width="595.3" height="841.9"/>
		</defs>
		<clipPath id="SVGID_255_">
			<use xlink:href="#SVGID_254_"  style="overflow:visible;"/>
		</clipPath>
		<path class="st121" d="M130.7,697.5c0.3-0.4,1.2-0.9,1.6-1.1c0.7-0.4,1.7-0.8,2.5-0.5c0.9,0.3,1.4,1,2.3,0.8
			c1.4-0.3,2.2-0.6,3.5,0.2c0.4,0.2,0.7,0.5,1.2,0.2c0.6-0.3,0.9-0.7,1.5-0.8c0.9-0.2,1.6,0,2.5,0.2c0.4,0.1,1,0.2,1.3,0.4
			c0.4-1.1,1.4-0.9,2.2-1.4c0.2-0.1,0.1-0.2,0.3-0.4c0.6-0.7,1.2-1.1,2.1-1.3c1.7-0.3,4.5-0.1,4.8,2.1c0.4,0,0.8,0,1.2,0.1
			c0.5,0.1,0.9,0.1,1.4,0.3c0.2,0.1,0.5,0.4,0.7,0.4c0.5,0,1.1-0.6,1.7-0.7c0.2,0,0.5-0.1,0.7,0c0.2,0,0.4,0.2,0.5,0.2
			c0.5,0,1.1-0.5,1.7-0.5c0.7-0.1,1.3,0,2,0c0.8,0,1.5-0.1,2.2,0.5c0.4-0.5,1-0.8,1.6-0.9c0.2,0,0.7,0,0.9-0.1
			c0.3-0.1,0.1-0.1,0.4-0.3c0.7-0.6,3.2-1.4,3.9-0.5c0.4-0.9,1.3-1.2,2.3-1c0.4,0.1,0.9,0.3,1.2,0.5c0.2,0.2,0.4,0.4,0.5,0.6
			c0.8,0.6,1.8,0.7,2.4,1.6c0.4,0.6,0.8,1.7,0.4,2.3c0.6,0.6,1,2.8,0.4,3.6H130C130.1,701.9,128.8,699.8,130.7,697.5"/>
	</g>
	<g>
		<defs>
			<rect id="SVGID_256_" x="-77" y="-38.2" width="595.3" height="841.9"/>
		</defs>
		<clipPath id="SVGID_257_">
			<use xlink:href="#SVGID_256_"  style="overflow:visible;"/>
		</clipPath>
		<path class="st122" d="M131.7,702c-0.3-0.9-1.8-1.9-0.6-2.9c0.2-0.2,0.5-0.2,0.7-0.4s0.3-0.6,0.4-0.8c0.4-0.5,1.5-1.2,2.1-1.2
			c0.5,0.1,0.7,0.5,1.1,0.7c1,0.6,1.6,0.2,2.4-0.2c1.7-0.8,1.7,0.1,3.1,0.6c0.4,0.2,1.2,0.4,1.7,0.2c0.3-0.1,0.4-0.6,0.7-0.8
			c1-0.7,2.4,0.3,3.4,0.4c0.9,0.1,0.6,0,1.4-0.5c0.3-0.2,0.7-0.1,1-0.3c0.5-0.3,0.6-1.2,1.1-1.6c0.6-0.4,1.7-0.4,2.5-0.4
			c1.6,0,2.2,0.1,2.3,1.9c0.6,0,1.2-0.2,1.8-0.2c0.4,0,0.8,0,1.2,0.2c0.1,0.1,0.1,0.4,0.2,0.5c1,0.6,1.6,0.2,2.5-0.2
			c1-0.4,2.2-0.1,3.3-0.4c0.9-0.3,1.6-0.9,2.7-0.5c0.7,0.3,1.1,1,2.1,0.7c0.3-0.1,0.6-0.7,1-0.8c0.7-0.3,1.5,0.5,2.2,0.2
			c0.9-0.4,1-1.5,2.1-1.5c0.5,0,0.9,0.3,1.3,0.3c0.6-0.1,1-0.6,1.6-0.6c0.7,0,1.1,0.1,1.7,0.5c0.5,0.3,0.7,1,1,1.3
			c0.1,0.1,0.5,0.1,0.6,0.2c0.8,0.8,0,1.6,0.4,2.6c0.2,0.5,0.6,0.5,0.8,0.9c0.3,0.6-0.1,1.7-0.6,2.1H131.7z"/>
	</g>
	<g>
		<defs>
			<rect id="SVGID_258_" x="-77" y="-38.2" width="595.3" height="841.9"/>
		</defs>
		<clipPath id="SVGID_259_">
			<use xlink:href="#SVGID_258_"  style="overflow:visible;"/>
		</clipPath>
		<path class="st123" d="M160.6,698.3c0.3,0.8,0.4,2.2-0.4,2.7c0-0.4,0.3-0.8,0.2-1.2c-0.1-0.3-0.3-0.5-0.4-0.7c0-0.2,0.1-0.4,0-0.6
			c-0.1-0.2-0.3-0.4-0.5-0.5c-0.3-0.2-0.4-0.4-0.7-0.6c-0.2-0.2-0.6-0.2-0.5-0.5v-0.3C159.2,696.7,160.3,697.4,160.6,698.3"/>
	</g>
	<g>
		<defs>
			<rect id="SVGID_260_" x="-77" y="-38.2" width="595.3" height="841.9"/>
		</defs>
		<clipPath id="SVGID_261_">
			<use xlink:href="#SVGID_260_"  style="overflow:visible;"/>
		</clipPath>
		<path class="st124" d="M169.4,696.6c0.5,0.2,0.5,0.7,0.9,1.1c0.5,0.5,0,0.8,0.3,1.4c0.2,0.4,0.5,0.6,0.4,1s-0.6,0.9-1,1
			c0.2-0.3,0.3-0.6,0.2-1s-0.4-0.7-0.5-1.1c-0.1-0.4,0-0.8-0.2-1.2c-0.3-0.5-0.7-0.9-1.2-1.2C168.5,696.4,169.1,696.5,169.4,696.6"
			/>
	</g>
	<g>
		<defs>
			<rect id="SVGID_262_" x="-77" y="-38.2" width="595.3" height="841.9"/>
		</defs>
		<clipPath id="SVGID_263_">
			<use xlink:href="#SVGID_262_"  style="overflow:visible;"/>
		</clipPath>
		<path class="st125" d="M167.5,696.3c0.2,0,0.5,0.2,0.7,0.3c0,0-0.1,0-0.1,0.1L167.5,696.3z"/>
	</g>
	<g>
		<defs>
			<rect id="SVGID_264_" x="-77" y="-38.2" width="595.3" height="841.9"/>
		</defs>
		<clipPath id="SVGID_265_">
			<use xlink:href="#SVGID_264_"  style="overflow:visible;"/>
		</clipPath>
		<path class="st126" d="M146.4,697.5c0.2-0.1,0.7-0.3,0.8-0.1l0.9-0.3c-0.3,0.1-0.7,0.3-0.9,0.5c-0.1,0.1-0.1,0.3-0.2,0.4
			c-0.1,0.2-0.3,0.1-0.4,0.3c-0.1,0.2-0.1,0.3-0.1,0.6s-0.1,0.6-0.1,0.9c0,0.3,0,0.3,0.2,0.6s0.3,0.5,0.5,0.8c-0.7,0.1-1-0.4-1.1-1
			c0-0.5-0.3-0.9-0.3-1.4C145.7,698.3,145.8,697.8,146.4,697.5"/>
	</g>
	<g>
		<defs>
			<rect id="SVGID_266_" x="-77" y="-38.2" width="595.3" height="841.9"/>
		</defs>
		<clipPath id="SVGID_267_">
			<use xlink:href="#SVGID_266_"  style="overflow:visible;"/>
		</clipPath>
		<path class="st127" d="M59.9,699.5l0.9-0.5c0.4-0.2,0.8,0,1.2,0.2c0.2-0.2,0.5-0.5,0.7-0.6l0.5-0.2c0.1-0.2-0.3-0.3-0.3-0.4
			c-0.1-0.5,0.4-0.5,0.7-0.4c0.8,0.1,1.4,0.7,1.6,1.4c0.5,0,1,0,1.4,0.3c0.2,0.2,0.4,0.4,0.5,0.7c0.1,0.2,0,0.4,0.1,0.5
			c0.3,0.7,1.4,0.6,2,0.5c0.1-0.4,0.6-0.9,0.9-1c0.7-0.2,1.6,0.5,2.2,0.9c0.2-0.8-0.8-1.4-1.2-1.8c0.4-0.2,1.5-0.1,1.9,0
			c0.7,0.2,1.2,0.6,1.6,1.1c0.4-0.1,1,0,1.4,0.2c0.2,0.1,0.3,0.3,0.5,0.4c0.3,0.2,0.8,0,1.1,0c0.6-0.1,1.2-0.2,1.8-0.2
			c0.4,0,4.8,0.8,4,1.7c-0.1,0.2-1.4-0.1-1.4-0.1c-0.8-0.1-1.6-0.2-2.4-0.3c-1.4-0.2-2.8-0.1-4.2-0.1c-1.8,0.1-3.5,0.1-5.3,0
			c-1.3,0-2.7-0.1-4,0.1c-1.8,0.3-3.6,0.5-5.4,0c-0.5-0.1-1.5-0.3-1.6-1C59.3,700.6,59.7,699.9,59.9,699.5"/>
	</g>
</g>
<g>
	<g>
		<defs>
			<rect id="SVGID_268_" x="-40.8" y="701.2" width="524.3" height="81.6"/>
		</defs>
		<clipPath id="SVGID_269_">
			<use xlink:href="#SVGID_268_"  style="overflow:visible;"/>
		</clipPath>
		
			<linearGradient id="SVGID_270_" gradientUnits="userSpaceOnUse" x1="-118.3827" y1="42.8241" x2="-117.3827" y2="42.8241" gradientTransform="matrix(0 81 -81 0 3690.1055 10288.7676)">
			<stop  offset="0" style="stop-color:#98B86C"/>
			<stop  offset="1" style="stop-color:#77A742"/>
		</linearGradient>
		<rect x="-40.8" y="701.2" class="st128" width="524.3" height="81.6"/>
	</g>
</g>
<g>
	<g>
		<defs>
			<rect id="SVGID_271_" x="-77" y="-38.2" width="595.3" height="841.9"/>
		</defs>
		<clipPath id="SVGID_272_">
			<use xlink:href="#SVGID_271_"  style="overflow:visible;"/>
		</clipPath>
		<path class="st129" d="M-41.6,702.1c4.9-2,145.7,20.7,187.8,18.2s142.8-7.4,174.9-3.2c32.2,4.2,86.6,5.6,103.4,3.5
			s58.4-14,58.4-14v107.6H-41.6V702.1z"/>
	</g>
</g>
</svg>
