<?xml version="1.0" encoding="utf-8"?>
<!-- Generator: Adobe Illustrator 19.0.0, SVG Export Plug-In . SVG Version: 6.00 Build 0)  -->
<svg version="1.1" id="Layer_1" xmlns="http://www.w3.org/2000/svg" xmlns:xlink="http://www.w3.org/1999/xlink" x="0px" y="0px"
	 viewBox="-59 357 492 80" style="enable-background:new -59 357 492 80;" xml:space="preserve">
<style type="text/css">
	.st0{clip-path:url(#SVGID_2_);fill:#AFC2DE;}
	.st1{clip-path:url(#SVGID_4_);fill:#B8D3E5;}
	.st2{clip-path:url(#SVGID_6_);fill:#B6DEBF;}
	.st3{clip-path:url(#SVGID_8_);fill:#A0B8D8;}
	.st4{clip-path:url(#SVGID_10_);fill:#CDDBD7;}
	.st5{clip-path:url(#SVGID_12_);fill:#859FA6;}
	.st6{clip-path:url(#SVGID_14_);fill:#87A8CF;}
	.st7{clip-path:url(#SVGID_16_);fill:#668A91;}
	.st8{clip-path:url(#SVGID_18_);fill:#C1E1BB;}
	.st9{clip-path:url(#SVGID_20_);fill:#8EA593;}
	.st10{clip-path:url(#SVGID_22_);fill:#FFFAC0;}
	.st11{clip-path:url(#SVGID_24_);fill:#708F77;}
	.st12{clip-path:url(#SVGID_26_);fill:#668A91;}
	.st13{clip-path:url(#SVGID_28_);fill:#A0D39E;}
	.st14{clip-path:url(#SVGID_30_);fill:#537B60;}
	.st15{clip-path:url(#SVGID_32_);fill:#65876E;}
	.st16{clip-path:url(#SVGID_34_);fill:#73917A;}
	.st17{clip-path:url(#SVGID_36_);fill:#65876E;}
	.st18{clip-path:url(#SVGID_38_);fill:#A1C46A;}
	.st19{clip-path:url(#SVGID_40_);fill:#D8D981;}
	.st20{clip-path:url(#SVGID_42_);fill:#B6CAA7;}
	.st21{clip-path:url(#SVGID_44_);fill:#C0D083;}
	.st22{clip-path:url(#SVGID_46_);fill:#537B60;}
	.st23{clip-path:url(#SVGID_48_);fill:#537B60;}
	.st24{clip-path:url(#SVGID_50_);fill:#537B60;}
	.st25{clip-path:url(#SVGID_52_);fill:#66886F;}
	.st26{clip-path:url(#SVGID_54_);fill:#66886F;}
	.st27{clip-path:url(#SVGID_56_);fill:#537B60;}
	.st28{clip-path:url(#SVGID_58_);fill:#66886F;}
	.st29{clip-path:url(#SVGID_60_);fill:#537B60;}
	.st30{clip-path:url(#SVGID_62_);fill:#46893D;}
	.st31{clip-path:url(#SVGID_64_);fill:#485F45;}
	.st32{clip-path:url(#SVGID_66_);fill:#485F45;}
	.st33{clip-path:url(#SVGID_68_);fill:#3A7761;}
	.st34{clip-path:url(#SVGID_70_);fill:#3F6B49;}
	.st35{clip-path:url(#SVGID_72_);fill:#537B60;}
	.st36{clip-path:url(#SVGID_74_);fill:#73B276;}
	.st37{clip-path:url(#SVGID_76_);fill:#A4D38C;}
	.st38{clip-path:url(#SVGID_78_);fill:#546C50;}
	.st39{clip-path:url(#SVGID_80_);fill:#66886F;}
	.st40{clip-path:url(#SVGID_82_);fill:#478A69;}
	.st41{clip-path:url(#SVGID_84_);fill:url(#SVGID_85_);}
	.st42{clip-path:url(#SVGID_87_);fill:#3F6B49;}
	.st43{clip-path:url(#SVGID_89_);fill:#658060;}
	.st44{clip-path:url(#SVGID_91_);fill:#586E1C;}
	.st45{clip-path:url(#SVGID_93_);fill:#708F77;}
</style>
<g>
	<g>
		<defs>
			<rect id="SVGID_1_" x="-122" y="-351" width="595.3" height="841.9"/>
		</defs>
		<clipPath id="SVGID_2_">
			<use xlink:href="#SVGID_1_"  style="overflow:visible;"/>
		</clipPath>
		<path class="st0" d="M311.1,367.8c4.4-0.7,9.2-0.1,13.2-1.2c3.2-0.9,6.4,0.8,9.7,0.5c4.9-0.3,8.8,1.3,13-1.1
			c3,0.7,4.9,3.9,7.4,4.7c1.4,0.4,4.6-0.3,6-0.8c0.8-0.3,1.4-0.9,2.3-1.1c2.2-0.5,4.6,0.5,6.8,0.4c1.2,0,2.3-0.2,3.5-0.2
			c2.3,0.1,4.2,0.7,4.8-2.4c2.2-0.6,4.3,3.1,6.3,1.3c0.9-0.8,0.8-3.2,1.4-4.4c0.4,0,0.9,0,1.3,0.3c0.6,1.7,0.8,5.7,2.6,2.8
			c0.9-1.4,1-4.2,1.1-5.9c2.1-0.5,1.4,1.8,1.6,3c0.4,1.8,1.6,2.5,1.7,4.4c1.6,0.2,3.4-0.2,4.9-0.5c2.9-0.6,6,0.2,9,0
			c0.2-2.7,5.2-0.7,6.7-0.8c1.6-0.1,2.8-0.9,4.4-1.1c0.8-0.1,2.3,0.4,3.1,0c0.5-0.3,0.6-0.9,1-1.1c2-1,4.1-1.7,6.5-0.8
			c1.7,0.7,2.7,2.1,4.2,2.8v16.5c-11.6,0.1-23.3,0.2-34.9,0.2c-11.5,0-22.9-0.9-34.5-1.3c-13.9-0.4-27.4-3-41.2-4.8
			c-5.4-0.7-10.8-1.7-16.1-2.7c-2.6-0.5-6.4-0.7-8.6-2.2c-1-0.7-2.3-1.8-2.4-3C300.3,367.6,306.3,368.6,311.1,367.8"/>
	</g>
	<g>
		<defs>
			<rect id="SVGID_3_" x="-122" y="-351" width="595.3" height="841.9"/>
		</defs>
		<clipPath id="SVGID_4_">
			<use xlink:href="#SVGID_3_"  style="overflow:visible;"/>
		</clipPath>
		<path class="st1" d="M366.4,372.7c10.4,0,20.9-1.1,31.4-1.1c11.9,0,23.8-1,35.7-1.1v11.3c-4.2-0.3-8.7-1.4-12.7-1.4
			c-18.3-0.4-36.5-1.7-54.8-2.9c-20.6-1.3-40.7-1.8-60.7-7.2C325.7,368.6,346.2,372.7,366.4,372.7"/>
	</g>
	<g>
		<defs>
			<rect id="SVGID_5_" x="-122" y="-351" width="595.3" height="841.9"/>
		</defs>
		<clipPath id="SVGID_6_">
			<use xlink:href="#SVGID_5_"  style="overflow:visible;"/>
		</clipPath>
		<rect x="-59.5" y="381" class="st2" width="493.1" height="60.1"/>
	</g>
	<g>
		<defs>
			<rect id="SVGID_7_" x="-122" y="-351" width="595.3" height="841.9"/>
		</defs>
		<clipPath id="SVGID_8_">
			<use xlink:href="#SVGID_7_"  style="overflow:visible;"/>
		</clipPath>
		<path class="st3" d="M110.8,363.3c-2.9-0.2-6.1-0.4-8.9-0.4c-1.3,0-2.4,0.4-3.7,0.4c-0.8,0-1.6-0.3-2.4-0.2
			c-1.3,0.1-2.3,0.9-3.7,1c-2.6,0.2-5.3-0.9-7.9-0.8c-1.8,0.1-3.1,0-4.9-0.2c-1.8-0.2-3.7,0.3-5.5,0c-1.4-0.2-2.5-1.2-4-0.9
			c-1.3,0.2-2.3,1-3.6,1.1c-0.7,0.1-1.5-0.2-2.2-0.2c-1.1-0.1-2.2,0-3.2,0.2c-3.3,0.6-6.5-0.7-9.7,0.2c-1.6,0.5-2.7,0.2-4.2,0
			c-2-0.3-4,0.1-6.1-0.1c-1.6-0.1-3.2-0.6-4.9-0.7c-6.1-0.4-12.3-0.5-18.4-0.6c-3.7,0-7.3-0.5-11.1-0.3c-2.5,0.1-5.1,0.5-7.5,0.2
			c-3.9-0.5-8.1-0.4-12-0.4c-1.9,0-3.8,0.1-5.8,0.2c-1.7,0.1-2.6-0.1-4.1-0.4c-1.5-0.3-2.8,0.4-4.3,0.4c-0.6,0-1.2-0.4-1.8-0.6
			c-1.1-0.2-2.4-0.1-3.5-0.3c-1.7-0.2-3.2-0.3-4.9-0.6c-1.9-0.3-3.6,0.8-5.7,0.9c-3,0-5.8-0.2-8.7-0.2c-1.3,0-2.1-0.6-3.4-0.8
			c-1.6-0.2-2.7,0.7-4.2,1.1v6.8c3.2,0.3,5.8,0.8,9,1.9c6.5,2.4,13.6,2.8,20.5,3.2c12.4,0.8,24.7,0.6,37,2.4
			c12.5,1.8,24.8,1.3,37.4,0.4c8-0.6,16-1.3,24-1.5c6.7-0.2,13.3-0.8,20-1.2c6.6-0.4,14.9,0.5,21-2.6
			C112.7,369.1,116.7,363.6,110.8,363.3"/>
	</g>
	<g>
		<defs>
			<rect id="SVGID_9_" x="-122" y="-351" width="595.3" height="841.9"/>
		</defs>
		<clipPath id="SVGID_10_">
			<use xlink:href="#SVGID_9_"  style="overflow:visible;"/>
		</clipPath>
		<path class="st4" d="M88.1,366.1c-5.5-0.1-11-0.8-16.5-0.8c-2,0-3.9,0.3-5.9,0.3c-1.7,0-3.5-0.2-5.2-0.2c-2.7,0-5.5,0.2-8.2,0.2
			c-2.2,0-4.3-0.2-6.5-0.4c-1-0.1-3.1,0-3.8-0.8l-1.7,1.4c0.8,1,1.4,2,2.7,2.6c1.4,0.7,2.9,1,4.4,1.3c1,0.2,1.9,0.6,2.9,0.8
			c1.3,0.2,2.8,0.1,4.2,0c2-0.1,3.9-0.1,5.9-0.1c5.5-0.1,11.1,0,16.6,0c1.9,0,3.7,0.1,5.6-0.2c1.6-0.3,3.5-0.5,5-1
			c0.8-0.3,2.6-1.2,2.7-2.1C90.3,366.1,88.8,366.2,88.1,366.1"/>
	</g>
	<g>
		<defs>
			<rect id="SVGID_11_" x="-122" y="-351" width="595.3" height="841.9"/>
		</defs>
		<clipPath id="SVGID_12_">
			<use xlink:href="#SVGID_11_"  style="overflow:visible;"/>
		</clipPath>
		<path class="st5" d="M178.5,364.5c-0.2-2.1-3.6-1-4.3-2.8c-0.5-1.2,0.4-2.8-0.6-3.9c-1.1-1.2-3.2-0.5-4.5-0.1
			c-1.4,0.4-2.4-0.3-3.6,0c-0.7,0.1-1.4,0.8-2,1.1c-2.1,1.2-1.8,1-2,3s-1.2,1.9-2.8,1.8c-1.4,0-1.5,0.5-2.7,1.2
			c-0.6,0.4-1.3,0.6-1.9-0.3c-0.4-0.7,0-1.5-0.2-2.2c-0.3-1-1.4-1.5-1.6-2.5c0-0.1,0-0.1,0-0.2c-1.5-0.6-3.5-0.6-5-0.2
			c-0.1,0-0.2,0.1-0.3,0.1c0,0.2-0.1,0.4-0.1,0.7c0,1,0.2,1-0.5,1.7c-0.8,0.8-2.2,1.6-2.9,2.2c-0.5,0.4-1.1,0.6-1.7,1
			c-0.7,0.5-0.8,1.1-1.2,1.6c-0.6,0.7-2.6,1.3-2.4-0.4c0.1-1.6,2.8-0.7,2-2.6c-0.7-1.8-2.5-1.5-3.9-1.1c-1.2,0.4-2.8,0.8-2.5,2.4
			c0.4,0.2,0.7,0.4,1.2,0.5c-0.1,0.9-3.6-0.1-4.3-0.5c-0.9-0.5-0.8-1.1-1.5-1.8c-0.7-0.7-1.4-0.4-2.2-1c-1.1-0.8-0.6-1.2-2.1-0.9
			c-1.4,0.4-1.2,0.6-2-0.6c-0.9-1.5-2.8-3-3.4-0.3c-0.7-0.5-1.2-1.3-1.7-2c-0.4-0.6,0.1-0.8-0.9-0.8c-0.5,0-0.6,0.1-1,0.5
			c-1.1,1.1-1.2,3.1-1.7,4.4c-1.4,0.1-5.1-0.1-4.9,2c-1.5,0.1-3,1.9-4.4,1.9c-1.8,0-3-2-5-1.7c-0.8,0.1-1.5,0.9-2.2,0.9
			c-0.8,0-1.7-0.6-2.5-0.6c-1.9-0.1-2.2,0.3-3.7,0.8c-1.8,0.6-3.1-0.1-4.9-0.2c-1.7-0.1-3.3,0.6-5,0c-1.5-0.5-2.7-1.5-4.3-1.1
			c-1.6,0.3-2.2,1.5-3.4,2.4c-1,0.8-2.2,0.6-3.4,0.6c-0.9,0-1.9,0.4-2.7,0.4c-1.9,0-3.2-2-4.8-2.8c-1.8-0.8-3.8,0.4-5.6,0.2
			c-1-0.1-3.1,0.6-4,0.2c-0.6-0.3-0.9-1.3-1.5-1.8c-1.2-1-3.4-1.7-5-1.1c-1,0.4-1.4,1.5-2.5,1.8c-1.1,0.3-2.8,0.2-3.9,0.1
			c-1.4-0.1-2.8-0.1-4.2,0c-0.7,0-1.5,0-2.2,0.2c-1.2,0.3-2,1.1-3.3,1.1c-1.9,0-3.8-1.4-5.6-0.8c-0.3,0.1-0.4,0.5-0.7,0.6
			c-0.4,0.2-0.9,0.2-1.4,0.3c-3,0.6-5.6,0.7-8.7,0.7c-1.2,0-2.5,0.2-3.7-0.1c-1.4-0.3-2.5-1.3-3.8-1.8c-2.8-1.2-5.3,0.1-8.1-0.3
			c-2.3-0.4-4.1-1.4-6.5-0.9c-2.9,0.6-6.7,3.4-9.8,1.9c-0.6-0.3-0.9-0.8-1.5-1.1c-1.5-0.7-3.5-0.6-5-0.2c-0.9,0.2-3,1-3.5,1.8
			c-0.9-0.8-3.5-1.9-4.7-1.2c-0.9,0.5,0,1.9-0.7,2.6c-0.8,0.8-1.8-0.2-2.7-0.3c-1.8-0.1-4.4,1.1-6.1,0.3c-0.7-0.3-1-1.3-1.9-1.7
			c-1.1-0.4-2.2,0.2-2.9,1.1c-0.5,0.7-0.5,1.5-1.4,1.8s-1.4-0.4-2.2-0.6c-0.9-0.2-3,0.4-3.5-0.8c-0.3-0.8,1.5-2-0.3-3.1
			c-0.7-0.4-2.5-0.6-3.2,0c-0.6,0.5-0.3,0.8-0.5,1.4c-0.3,0.9-0.6,0.9-0.3,1.7c0.2,0.6,0.8,0.3,0.6,1.1c-0.8,0-1.6-0.2-2.2,0.1v5.7
			c0.7,0.1,1.4,0.1,1.8,0.2c3.7,0.5,7.5,1,11.3,1.2c9,0.5,18.2,0.6,27.2,0.1c5.8-0.3,11.7-0.9,17.5-1c4.8,0,9.7,0.1,14.5,0
			c11.2-0.1,22.4-0.4,33.5-0.7c9.8-0.3,19.6-1.1,29.4-1.8c6.7-0.4,13.6-0.6,20.2-1.3c4.9-0.5,10.1-0.1,15-0.1
			c5.1,0,10.2-0.1,15.3-0.1c10.1-0.1,20.2-0.2,30.3-0.2c3.9,0,7.9,0.2,11.9-0.1c1.5-0.1,2-0.2,2.9-1c1.1-0.8,1.8-1.1,3.2-1.2
			c0.9-0.1,1.3,0.2,1.7-0.8c0.6-1.3-0.2-0.9,1.1-1.5C178,365.4,178.5,365.4,178.5,364.5"/>
	</g>
	<g>
		<defs>
			<rect id="SVGID_13_" x="-122" y="-351" width="595.3" height="841.9"/>
		</defs>
		<clipPath id="SVGID_14_">
			<use xlink:href="#SVGID_13_"  style="overflow:visible;"/>
		</clipPath>
		<path class="st6" d="M433.6,378.1c-0.1-0.8-1.9-1.9-2.5-2.5c-0.4-0.4-1-0.5-1.5-0.9c-0.7-0.5-1-1.2-1.8-1.6c-1.7-1-4,0.3-5.6-0.6
			c-0.8-0.5-0.6-1.1-1.7-1.2c-2.2-0.3-1,0.9-1.7,1.9c-0.1,0.2-0.7,0.3-0.9,0.4c-0.5,0.3-0.9,0.8-1.3,1.1c-0.9,0.5-1.6,0.3-2.5,0.3
			c-1.7,0-3.4,0.2-5.1,0c-1.4-0.1-2.7-0.7-4.1-0.6c-1.6,0.1-3.2,0.7-4.9,0.7c-1.7,0-3.1-0.4-4.7-1c-2.6-1-4.9-0.9-7.7-0.7
			c-2.3,0.2-4.5,0.4-6.8,0.5c-1,0.1-2,0-2.9,0.2c-0.8,0.2-1.6,0.5-2.4,0.5c-1.9,0-2.9-1.2-4.5-1.7c-1.7-0.5-4.1-0.2-6-0.2
			c-3.3,0.1-6.5,0.4-9.8-0.3c-1-0.2-1.7-0.5-2.5-0.9c-0.4-0.2-0.7-0.6-1.2-0.8c-2.1-0.9-3.3,1.2-5.2,1.9c-0.5,0.2-0.2,0.5-0.7,0.5
			c-0.2,0-1-0.6-1.1-0.8c-0.3-0.4,0-1-0.2-1.4c-0.3-0.8-0.7-0.6-1.3-1.1c-0.5-0.4-0.2-1.2-0.6-1.5c-0.8-0.7-3.2,1.2-3.7,2
			c-0.6,0.9-0.5,1-1.7,1.3c-0.6,0.1-1.1,0-1.6,0.3c-0.4,0.1-0.6,0.5-1,0.6c-1.1,0.3-2.4-0.4-3.6-0.1c-1.6,0.3-3,1.7-3.2,3.3
			c-0.5,4.3,7.5,5.2,10.5,5.3c6,0.2,11.9,0.1,17.9,0.6c8.3,0.8,16.5,0.4,24.8,0.1c9.9-0.3,20-0.4,29.9,0.2c3.6,0.2,7.1,0.2,10.8-0.1
			c2.9-0.3,6.4,0.1,9.2-0.7C431.9,380.5,433.8,379.5,433.6,378.1"/>
	</g>
	<g>
		<defs>
			<rect id="SVGID_15_" x="-122" y="-351" width="595.3" height="841.9"/>
		</defs>
		<clipPath id="SVGID_16_">
			<use xlink:href="#SVGID_15_"  style="overflow:visible;"/>
		</clipPath>
		<path class="st7" d="M264.7,367.2c-2.8-1.4-5.5,1.2-8.4-0.4c-0.5-0.3-0.6-0.9-1.1-1.3c-0.6-0.4-1.3-0.3-2-0.3
			c-1.4,0-2.1-0.2-3.4-0.6c-0.6-0.2-2.1-0.3-1.4-1.5c-1.4-0.1-3.7,0.5-5,0c-0.3-0.1-0.9-0.9-1.2-1.1c-0.8-0.5-1.6-0.9-2.5-0.9
			c-1.1,0-2.4,0.2-3.4,0.8c-0.7,0.4-1.1,1.1-1.8,1.6c-0.5,0.4-0.3,0.4-0.9,0.3c-0.6-0.1-1-0.6-1.7-0.6c-1.3-0.2-2.8,0.2-4,0.4
			c0,0-1.1,0.2-1.2,0.2c-0.4-0.1-0.8-0.9-1.2-1.1c-2.1-1.2-4.5-0.2-6,1.3c-1.4,1.4-1.2,0.8-1.8-0.5c-0.9-1.8-4.8-2.2-6-0.4
			c-0.1,0.2-0.3,0.7-0.3,0.8c-0.5,0.6-1,0.7-1.9,1c-0.5,0.1-1.1,0-1.5,0.6c-0.2,0.3,0.1,0.8,0,1.2c-0.7,2-3.4-1.3-3.4-2.6
			c0-1.3,0.6-1,1.4-1.9c0.6-0.8,0.1-2.3-0.9-2.9c-0.7-0.5-1.7-0.2-2.4-0.5c-0.6-0.2-0.3-0.3-0.8-0.6c-1.1-0.8-1.9-0.5-3.1-0.7
			c-0.3-0.1-0.5-0.3-1-0.4c-1.1-0.2-2.3,0.4-3.2,1c-0.7,0.5-0.8,0.9-1.2,1.5c-0.8,1.1-2.4,2-3.2,3.3c-0.5,0.8-0.3,1.7-0.4,2.6
			c-0.4,0.2-1.2,0.3-1.7,0.1c-0.5-0.2-0.7-0.9-1.1-1.2c-0.7-0.4-1.9,0.3-2.7-0.1c-0.8-0.4-0.8-1.3-1.3-1.8c-0.8-0.7-3.2-1.5-4.3-1.4
			c-1.5,0.1-2.4,1.2-3.8,1.4c-1.1,0.1-1.9,0.1-2.4,1.1c-0.4,0.7-0.1,1.2-1,1.6c-0.6,0.3-1,0.1-1.6,0.6c-0.8,0.7-1,1.8-1,2.8l1.5,1.6
			c1.5,0.4,2.5,1.3,3.8,2.2c2,1.5,3.7,1.8,6.2,2.2c6.7,1.1,13.7,0.9,20.4,0.6c9.6-0.3,19.5-0.4,29.1,0.6c12,1.3,23.9-0.4,35.7-1.9
			C269.5,373.3,266.9,368.3,264.7,367.2"/>
	</g>
	<g>
		<defs>
			<rect id="SVGID_17_" x="-122" y="-351" width="595.3" height="841.9"/>
		</defs>
		<clipPath id="SVGID_18_">
			<use xlink:href="#SVGID_17_"  style="overflow:visible;"/>
		</clipPath>
		<path class="st8" d="M17.5,364.1c0,0-37.4-0.4-48.3-0.5c-9.8-0.1-25.5,0-28.7,0v7.2l73.7-2.4L17.5,364.1z"/>
	</g>
	<g>
		<defs>
			<rect id="SVGID_19_" x="-122" y="-351" width="595.3" height="841.9"/>
		</defs>
		<clipPath id="SVGID_20_">
			<use xlink:href="#SVGID_19_"  style="overflow:visible;"/>
		</clipPath>
		<path class="st9" d="M-20.1,369.7c-0.4-0.8-2.3-0.6-3.2-0.8c-1.4-0.3-2.6-0.4-4-0.4c-1.2,0-2.1,0.8-3.2,0.6
			c-1.1-0.2-2.2-0.4-3.3-0.2c-2.8,0.5-5.7,0-8.5,0.2c-0.9,0.1-1.4-0.2-2.3-0.4c-0.7-0.1-1.3,0-1.9,0.2c-1.4,0.2-2.6-0.2-3.9-0.2
			c-0.7,0-1.4,0.1-2.1,0.3c-1.1,0.2-2.1-0.3-3.1-0.2c-0.7,0-1.1-0.1-1.9-0.2s-1.3,0.1-2,0.4v2.4c1.6,0.2,4-0.1,4.6-0.1
			c8.1-0.6,16.3,0,24.5-0.2c2.1-0.1,4.2-0.1,6.3-0.1c1,0,2.6,0.2,3.6-0.2C-20.1,370.4-19.8,370.2-20.1,369.7"/>
	</g>
	<g>
		<defs>
			<rect id="SVGID_21_" x="-122" y="-351" width="595.3" height="841.9"/>
		</defs>
		<clipPath id="SVGID_22_">
			<use xlink:href="#SVGID_21_"  style="overflow:visible;"/>
		</clipPath>
		<path class="st10" d="M-59.5,369.7c0,0,76.2,0.5,92.6,0c16.5-0.5,127.8-2.2,149.3-0.5c21.5,1.7,53.3,3.4,53.3,3.4l-252.1,12.2
			l-43.1,3.9V369.7z"/>
	</g>
	<g>
		<defs>
			<rect id="SVGID_23_" x="-122" y="-351" width="595.3" height="841.9"/>
		</defs>
		<clipPath id="SVGID_24_">
			<use xlink:href="#SVGID_23_"  style="overflow:visible;"/>
		</clipPath>
		<path class="st11" d="M99.5,372.9c-2.4-0.1-4.8,0.1-7.2,0c-0.1-1.2,0-1.4,1.1-2c1.4-0.7,1.5-0.5,1.7-2c0.1-0.7,0.3-1.6,0-2.4
			s-1.3-2-2.1-2.2c-0.9-0.3-2.9-0.1-3.8,0c-1.1,0.1-1.1,0.3-1.6,1c-0.2,0.3-0.4,0.5-0.6,0.8c-0.7,0.7-1.2,0.9-1.2,2
			c-0.1,2.1,2.3,0.8,2.5,2.2c0.1,0.6-0.7,0.6-0.5,1.1c0.1,0.3,1.2,0.7,1.4,0.8c-0.6,0.7-2.5,0.5-3.3,0.6c-1.1,0.2-1.9-0.3-2.9-0.4
			c-0.5,0-1,0.3-1.4,0.2c-1.4-0.3-0.1-1.4,0-2.2c0.1-0.7-0.2-1.2-0.3-1.8s0.2-1.3,0-1.9c-1-2.8-4-1.4-6-1.4c-0.6,0-2.4-0.5-2.9-0.1
			c-0.4,0.4,0,1.5-0.1,2c-0.1,0.6-0.8,1.1-0.5,1.8s1.9,1.1,2.5,1.7c0.5,0.5,0.7,1,1.1,1.5c0.3,0.4,0.7,0.5,0.6,1.1
			c-3.1,0.2-6.1-0.3-9.2-0.1c-0.8,0.1-3.8,0.5-3.9-0.5c-0.1-0.5,0.6-0.8,0.8-1.1c0.3-0.6,0.5-1.4,0.2-2c-0.1-0.3-0.6-0.5-0.6-0.9
			c0-0.3,0.2-0.3,0.3-0.5c0.1-0.6,0.4-0.6-0.1-1.3c-0.8-1.1-2.2-0.7-3.4-1c-0.8-0.2-1.8-1-2.9-0.4c-0.6,0.3-1,1.1-1.5,1.6
			c-0.2,0.2-0.6,0.4-0.8,0.6c-0.6,0.6-1.2,1.3-0.5,2c0.3,0.3,3.5,1.4,1.3,2.1c0.4,0.4,1,0.8,1,1.3c-1.5,0.1-2.8-0.1-4.3,0.1
			c-1.5,0.3-2.6-0.3-4.1-0.4c-0.9-0.1-1.9,0.3-2.8,0.3l-0.8,0.9c0.1,0,0.2,0,0.3,0.1c-1.4,0.8,0.6,1.2,1.1,1.2c1.9,0,3.8,0,5.6,0
			c5.1,0,10.1,0.1,15.1,0.1c6.2,0,12.3-0.4,18.4-0.4c4.8,0,9.6-0.2,14.3-0.4C99.5,374.1,99.5,373.5,99.5,372.9"/>
	</g>
	<g>
		<defs>
			<rect id="SVGID_25_" x="-122" y="-351" width="595.3" height="841.9"/>
		</defs>
		<clipPath id="SVGID_26_">
			<use xlink:href="#SVGID_25_"  style="overflow:visible;"/>
		</clipPath>
		<path class="st12" d="M305.3,363.4c1.4-0.2,2.1,0.7,3.2,1.2c1.2,0.5,2.3,0.5,3.5,0.9c2,0.7,3.2,0.1,5.2,0.4
			c1.4,0.2,2.5,0.8,3.8,0.9c2.3,0.2,3.8-0.5,5.8,1.2c1.6,1.3,2.5,5,4.5,5.6c1.2,0.4,2.7-1,4-1c1,0,1.1,0.3,2,0.6
			c0.9,0.3,2.2,0.2,2.8,0.3c3.8,0.5,7.5,0.4,11.3-0.7c1-0.3,2-0.7,3.1-0.5c1.1,0.2,1.4,1,2.5,0c0.8-0.7,0.6-2,1.1-2.9
			c1.1-2.1,3.3-0.8,5.1-1.7c0.7-0.4,1.1-1.4,1.7-1.9c1.7-1.7,4.5-0.7,6.4,0.5c0.3,0.2,0.2,0.7,0.4,0.9c0.5,0.3,1.2,0.1,1.7,0.4
			c0.6,0.4,1.9,2.2,1.2,2.7c-1,0.8-4.9-1.9-4.4,1.1c1.5,0.1,3.3-0.1,3.8,1.9c0.3,1-0.8,1.2-0.4,2.4c1.6,0.5,2.9,0.5,3.7-0.7
			c0.6-1,1-2,2.2-2.5c1.2-0.6,2.9-0.3,4,0.4c0.7,0.5,1.1,1.9,2,1.7c0-0.4,0.3-0.9,0.3-1.3c0.9-0.1,2.8,0.4,3.5-0.2s0.2-1.8,1.3-2.3
			c0.8-0.3,2.4,0.1,3.1,0.4c1,0.4,1.1,1.2,1.7,1.7c1.3,0.9,2.7,0.3,4.1-0.5c0.4-0.3,0.4-0.5,1.1-0.8c0.7-0.2,1.7,0,2.4,0
			c0-0.2,0-0.5,0-0.7c-0.7-0.2-2-0.2-1.8-1.2c0.2-1.1,2.6-0.7,3.5-0.8c0.2-0.6,0-1-0.5-1.2c-0.1-0.3,0-0.6,0-0.8
			c1.6,0,3.7-0.4,5.2,0.2c1.7,0.7,1.2,2.3-0.1,3.2c2-0.1,4.7,0,4.2,2.8c-1.3,0.5-3.5-0.5-3.4,1.5c0,0.6,1,1,1,1.7c0,1-0.8,1-1.5,1.5
			c-0.9,0.6-0.7,0.9-1.1,1.7c-0.9,1.5-1.8,1.7-3.7,1.9c-3.6,0.4-7.2-0.6-10.7-0.8c-5.3-0.3-10.5-0.6-15.8-0.8
			c-10.7-0.5-21.4-2.1-32.1-1.4c-13.7,0.9-27.4,0.4-41.1,1c-3.6,0.2-9.5,1.2-12.8-0.8c-2.7-1.6-2.9-6.9-2.3-9.6
			c0.5-2.6,2.3-6.3,5.5-6c1.9,0.2,2.9,2.1,4.7,2.2C302.4,365.6,303.4,363.7,305.3,363.4"/>
	</g>
	<g>
		<defs>
			<rect id="SVGID_27_" x="-122" y="-351" width="595.3" height="841.9"/>
		</defs>
		<clipPath id="SVGID_28_">
			<use xlink:href="#SVGID_27_"  style="overflow:visible;"/>
		</clipPath>
		<path class="st13" d="M32.7,384.7c0-1.1,10.4-10.2,10.4-10.2s66.7-0.4,87.5-1.3c20.9-0.9,132.2-1.3,141.2-0.9
			c8.9,0.4,17-1.2,29.9,2.3s22.5,8.6,22.5,8.6s-66,2.3-93.5,2.3S74,392.3,56.1,390.8C38.3,389.4,32.7,384.7,32.7,384.7"/>
	</g>
	<g>
		<defs>
			<rect id="SVGID_29_" x="-122" y="-351" width="595.3" height="841.9"/>
		</defs>
		<clipPath id="SVGID_30_">
			<use xlink:href="#SVGID_29_"  style="overflow:visible;"/>
		</clipPath>
		<path class="st14" d="M153.8,377.3c-0.5-0.1-1.2,0.1-1.7,0.1c-1.8,0.1-3.7,0.2-5.5,0.3c-3.5,0.2-7.2-0.2-10.6,0.4
			c-2.5,0.5-4.9,0.1-7.4,0.3c-2.3,0.1-4.5,0.6-6.8,0.5c-1.4-0.1-2.8-0.1-4.3-0.1c-1.6,0-3.1,0.2-4.7,0.5c-4.2,0.7-8.4,1.2-12.7,1.4
			c-2.3,0.1-4.6,0.1-6.9-0.1c-1.1-0.1-2.2,0.3-3.3,0.4c-1.7,0.1-3.2,0.2-4.9,0.4c-1.8,0.2-3.5-0.5-5.3-0.2c-1.3,0.2-2.1,0.1-3.4,0
			c-1.7-0.2-3.2,0.8-4.9,0.7c-1.3-0.1-2.5-0.3-3.8-0.2c-1.8,0.1-3.4,0.5-5.2,0.5c-0.9,0-1.6,0.1-2.5,0.3c-0.7,0.1-1.6,0.2-2.4,0.1
			c-1-0.2-1.9-0.8-3-0.6c-1,0.1-1.6,0.5-2.6,0.4c-1.6-0.2-3,0.4-4.6,0.3c-2.9-0.2-5.9-0.9-8.4,1c-0.8,0.6-1.6,1.8-0.6,2.5
			c0.6,0.5,1.9,0.2,2.6,0.2c2.4,0,4.8,0,7.2,0c3.5,0,6.9-0.1,10.4-0.1c3.7,0,7.4-0.5,11.1-0.6c9-0.3,18-0.8,27.1-1.2
			c7.9-0.3,15.7-0.5,23.5-1.9c6.3-1.1,12.6-1.2,19-1.5c5.2-0.2,10.4-0.9,15.5-1.6C154.6,378.1,154.8,377.6,153.8,377.3"/>
	</g>
	<g>
		<defs>
			<rect id="SVGID_31_" x="-122" y="-351" width="595.3" height="841.9"/>
		</defs>
		<clipPath id="SVGID_32_">
			<use xlink:href="#SVGID_31_"  style="overflow:visible;"/>
		</clipPath>
		<rect x="-36.8" y="373.7" class="st15" width="0.4" height="2.1"/>
	</g>
	<g>
		<defs>
			<rect id="SVGID_33_" x="-122" y="-351" width="595.3" height="841.9"/>
		</defs>
		<clipPath id="SVGID_34_">
			<use xlink:href="#SVGID_33_"  style="overflow:visible;"/>
		</clipPath>
		<path class="st16" d="M-46.7,373.3c0-0.3,0.1-0.6,0.2-0.9c0.1-0.6,0.4-1,0.7-1.6c0.3-0.6,0.1-1.3,0.4-1.8c0.3-0.5,0.9-0.9,1.4-1.2
			c0.3-0.2,0.5-0.1,0.7-0.2c0.6-0.3,0.7-1.4,1.2-1.9c1.2-1.4,2.7-0.9,4.3-0.9c0.9,0,1.5-0.8,2.5-0.6c1.1,0.2,1.6,1,2.1,1.8
			s1.7,1,2,1.8c0.2,0.7-0.1,1.4,0.2,2c0.3,0.6,1.5,1.5,2.1,1.6c0.7,0.1,0.3-0.2,0.3-0.8c0.1-1.3,2-2,3.1-1.9
			c0.6,0.1,1.2,0.8,1.7,0.3c0.3-0.4,0.3-0.8,0.8-1c0.3-0.1,0.7-0.1,1-0.3c0.2-0.1,0.3-0.4,0.4-0.6c0.4-0.4,1-0.7,1.6-0.8
			c0.3-0.1,0.8,0.1,1,0c0.3-0.1,0.3-0.2,0.5-0.6c0.7-1.2,2.3-2.2,3.6-2.3c1-0.3,2.3,0.6,2.9,1.2c0.5,0.5,0.3,1.1,0.6,1.7
			c0.2,0.5,1.3,0.6,1.9,0.6c0.4,0,0.6,0.1,0.9-0.2c0.1-0.1,0.1-0.5,0.2-0.6c0.2-0.3,0.4-0.5,0.6-0.6c0.4-0.3,1-0.4,1.5-0.4
			c0.7,0,1.4,0.6,2.1,0.8c0.8,0.3,1.6,0.6,2.5,0.4c0.4-0.1,0.7-0.3,1-0.3c0.6,0,0.9,0.2,1.4-0.2c0.9-0.6,0.6-1.9,1.3-2.7
			c1.1-1.4,3.6-1.5,5.3-1.6c1,0,2.1,0,2.9,0.5c0.4,0.2,0.3,0.4,0.5,0.7c0.3,0.3,0.6,0.5,1,0.7c1,0.7,1,2.5,0.7,3.6
			c-0.3,0.8-1.3,1.4-1.9,2s-0.8,1.6-1.1,2.4c-0.4,0.8-0.9,0.7-1.7,1c-0.5,0.1-1.2,0.3-1.6,0.6c-0.3,0.2-0.3,0.5-0.7,0.7
			c-1.3,0.6-3.3,0.4-4.7,0.3c-1.3-0.1-2.5,0.1-3.8,0.1c-1.7,0.1-3.4,0.2-5.2,0.2c-3.5,0.1-7,0-10.4,0.1c-3.2,0.1-6.3,0.4-9.5,0.4
			c-0.9,0-1.9,0.2-2.7-0.1c-0.6-0.2-1.1-0.5-1.7-0.7c-0.9-0.2-1.7,0-2.5,0c-0.5,0-0.9-0.1-1.4-0.1c-0.5,0.1-1,0.3-1.5,0.4
			c-1.3,0.4-2.4,1.5-3.8,1.6c-0.6,0.1-1.3-0.2-1.8-0.4c-0.8-0.2-1-0.8-1.6-1.2C-45.8,374.4-46.6,374-46.7,373.3"/>
	</g>
	<g>
		<defs>
			<rect id="SVGID_35_" x="-122" y="-351" width="595.3" height="841.9"/>
		</defs>
		<clipPath id="SVGID_36_">
			<use xlink:href="#SVGID_35_"  style="overflow:visible;"/>
		</clipPath>
		<path class="st17" d="M16.1,373.5c-2.7-0.6-5.6-0.3-8.4-0.3c-5.8,0-11.6,0.4-17.3,0.4c-5.8,0-12.6-0.8-18.1,0.6
			c-3.4,0.9-7.1,0.9-10.7,0.9s-6.8,0.7-10.4,0.9c-1.7,0.1-3.7-0.3-5.3,0.2c-0.9,0.3-1.6,1.1-2.6,1.3c-0.6,0.1-1.6,0-2.8,0v5.1
			c1.6-0.1,3.2-0.5,4.3-0.7c9.7-1.7,19.6-3.2,29.5-3.7c8.5-0.4,16.9-1.2,25.5-1.2c3.1,0,6.2,0.4,9.3,0.2c1.5-0.1,5,0.2,6.3-0.6
			C16.4,376.2,16.2,374.8,16.1,373.5"/>
	</g>
	<g>
		<defs>
			<rect id="SVGID_37_" x="-122" y="-351" width="595.3" height="841.9"/>
		</defs>
		<clipPath id="SVGID_38_">
			<use xlink:href="#SVGID_37_"  style="overflow:visible;"/>
		</clipPath>
		<path class="st18" d="M244.7,377.8c-20.3-0.9-68.3-0.9-87.3,0.6c-6.6,0.5-16.2,1.1-26.6,1.7l-49,33.4l309.6-5.7l-73-25.6
			C290.3,381.6,264.7,378.7,244.7,377.8"/>
	</g>
	<g>
		<defs>
			<rect id="SVGID_39_" x="-122" y="-351" width="595.3" height="841.9"/>
		</defs>
		<clipPath id="SVGID_40_">
			<use xlink:href="#SVGID_39_"  style="overflow:visible;"/>
		</clipPath>
		<path class="st19" d="M425,380c0,0-47.5-1.9-70.2-3.7c-22.7-1.9-53-1.7-53-1.7c13.6,3.3,17.7,7.6,17.7,7.6c-0.4,0-0.8,0-1.2,0
			l73,25.6l35.7-0.7L425,380z"/>
	</g>
	<g>
		<defs>
			<rect id="SVGID_41_" x="-122" y="-351" width="595.3" height="841.9"/>
		</defs>
		<clipPath id="SVGID_42_">
			<use xlink:href="#SVGID_41_"  style="overflow:visible;"/>
		</clipPath>
		<path class="st20" d="M25.1,375.5c0,0-17.5-0.6-35-0.2c-16.3,0.3-45.5,3.7-49.6,4.2v8.1l81-3.7L25.1,375.5z"/>
	</g>
	<g>
		<defs>
			<rect id="SVGID_43_" x="-122" y="-351" width="595.3" height="841.9"/>
		</defs>
		<clipPath id="SVGID_44_">
			<use xlink:href="#SVGID_43_"  style="overflow:visible;"/>
		</clipPath>
		<path class="st21" d="M78.1,383c-16.7,0.9-57.1,2.2-57.1,2.2l0.5-1.2l-33.7,0.9l-5.3-0.2l-33.7,2.8l-8.3-1.3v28.6l51.1,0.4
			l90.2-1.7l49-33.4C111.3,381.2,89,382.4,78.1,383"/>
	</g>
	<g>
		<defs>
			<rect id="SVGID_45_" x="-122" y="-351" width="595.3" height="841.9"/>
		</defs>
		<clipPath id="SVGID_46_">
			<use xlink:href="#SVGID_45_"  style="overflow:visible;"/>
		</clipPath>
		<path class="st22" d="M8.9,383.3l-0.7-0.4c-1.6,0.7-4.1,0.2-5.9,0.3c-1.8,0.1-3.5,0.3-5.2,0.5c-3,0.3-6-0.5-9-0.4
			c-6.5,0.4-13.4,0.4-19.9,1.5c-1,0.2-5.1,0.5-3.5,2c1.1,1,5.3,0.4,6.9,0.1c1.2-0.2,2.1-0.5,3.3-0.6c1.7-0.1,3.5-0.3,5-0.7
			c2.9-0.7,6.4-0.3,9.4-0.3c6.7,0,13.5,0.4,20.2,0C9.5,384.6,9.5,383.7,8.9,383.3"/>
	</g>
	<g>
		<defs>
			<rect id="SVGID_47_" x="-122" y="-351" width="595.3" height="841.9"/>
		</defs>
		<clipPath id="SVGID_48_">
			<use xlink:href="#SVGID_47_"  style="overflow:visible;"/>
		</clipPath>
		<path class="st23" d="M20.9,385.6c1.5,0.2,2.9-0.1,4.3-0.1c1.6,0,3.3,0.4,4.9,0.2c1.7-0.2,3.2-0.2,4.9-0.2c1.6,0,3.1-0.2,4.7-0.4
			c0.7-0.1,2.1,0.2,2.5-0.5c0.2-0.3,0.2-0.7,0.2-1.1c0.1-0.4,0.1-0.9,0.2-1.2c0.1-0.3,0-0.3,0.5-0.5c0.4-0.2,1.8-0.3,2.1-0.7
			c0.4-0.6-0.3-1.5-0.3-2.1c0.1-1,1.1-0.3,1.5-0.8c0.3-0.3,0.2-1.3,0.1-1.6c-0.3-1-0.7-1.5-0.1-2.5c0.4-0.6,1-1.1,1.3-1.7
			c0.2-0.6,0-0.9-0.3-1.5c-0.4-0.9-0.1-0.9,0.5-1.5c0.7-0.6,0.6-1.6,0.3-2.3c-0.4-0.9-0.6-1.6-1.6-2c-0.8-0.3-1.8-0.2-2.4-0.8
			c-0.4-0.4-0.4-0.9-0.6-1.3c-0.4-0.6-1.1-0.9-1.7-1.1c-0.5-0.1-1.2,0-1.6-0.2c-0.4-0.2-0.6-0.6-0.8-0.9c-0.2-0.4-0.5-0.9-0.3-1.3
			c0.1-0.3,0.6-0.4,0.7-0.7c0.3-0.7-1.4-1.1-1.9-1.3c-0.9-0.4-2-0.2-2.9-0.2c-1.9,0-4,0.3-5.5,1.6c-0.6,0.5-0.8,0.9-0.9,1.6
			c-0.1,0.3-0.1,0.5-0.3,0.6c-0.8,0.6-1.3-0.8-1.8-1.3c-1.2-1.1-3.8-0.9-4.9,0.4c-0.4,0.4-0.4,0.9-0.7,1.4c-0.4,0.7-1.2,0.9-2,1
			c-1.4,0.1-4-0.5-5,0.7c-0.3,0.4-0.3,0.7-0.5,1.1v0.2c-0.1,0.2-0.6,0.4-0.8,0.5c-1.5,0.7-3.1,0.4-4.6,0.8c-1,0.3-2.2,1.3-2.6,2.3
			c-0.2,0.8,0.4,1.2,0.3,2c-0.1,0.7-0.8,1.2-1.1,1.9c-0.3,0.6,0,1,0,1.6c0,0.9-0.8,1.5-0.3,2.3c0.3,0.6,1,1.4,1.7,1.5
			c0.7,0.2,2,0.8,1.9,1.6c-0.1,0.5-0.4,0.9-0.4,1.4c0,0.6,0.5,0.9,0.6,1.3c0.2,0.7-0.7,0.8-1.1,1.2c-0.8,0.9-0.4,1.8,0.4,2.5
			c0.3,0.3,0.5,0.6,1,0.6s1.1-0.1,1.6-0.1c1.2,0,2.4-0.1,3.6-0.1C16,385.3,18.5,385.3,20.9,385.6"/>
	</g>
	<g>
		<defs>
			<rect id="SVGID_49_" x="-122" y="-351" width="595.3" height="841.9"/>
		</defs>
		<clipPath id="SVGID_50_">
			<use xlink:href="#SVGID_49_"  style="overflow:visible;"/>
		</clipPath>
		<path class="st24" d="M295.8,375.3c-0.2-1.3-1.2-2-1.3-3.4c-0.1-1,0.2-1.9,0.2-2.9c-1.3-0.7-2.4-0.9-2.8-2.1
			c-0.3-1,0.2-2.2-0.2-3.2c-1.6-4.2-5.5-2-8.6-2.3c-0.2-0.9-0.6-0.4-1.2-0.6c-0.1,0-0.6,0.3-0.9,0.3c-0.1,0-0.3-0.5-0.4-0.6
			c-1.9-0.7-3-2-5.2-1.9c-1.4,0.1-2.6,0.6-3.8,1.3c-1.3,0.8-3,1.8-3.6,3.4c-0.4,1.3-0.3,2.9-2.4,2.8c-0.1,1.5,0.9,4.1-0.6,4.9
			c-0.6,0.3-1.7-0.1-2.3,0.2c-0.7,0.3-1,1.2-1.5,1.4c-1.9,1-4.5-0.2-3.5,3l1.9,3.6c0.6,0.6,1.2,1.3,2.1,1.6c1.1,0.4,2.4,0.3,3.5,0.6
			c1.4,0.5,2.1,0.8,3.7,0.9c2.9,0.2,6.9,0.6,9.7-0.5c1.2-0.4,2.1-1.3,3.4-1.6c3.3-0.6,6.5,1.6,9.6,1c2-0.4,1.7-1.3,2.6-2.9
			C294.9,377.2,296,376.9,295.8,375.3"/>
	</g>
	<g>
		<defs>
			<rect id="SVGID_51_" x="-122" y="-351" width="595.3" height="841.9"/>
		</defs>
		<clipPath id="SVGID_52_">
			<use xlink:href="#SVGID_51_"  style="overflow:visible;"/>
		</clipPath>
		<path class="st25" d="M134.8,373.8c-0.7-0.3-2.4,0.2-2.5-0.8c-0.1-0.6,0.4-0.9,0.8-0.9c0.8-0.1,2.9,2.1,2.5-0.1
			c-0.2-1.5-2-1.9-2.4-3.1c-0.3-0.7-0.1-1.3-0.7-2c-0.6-0.8-1.4-1.6-2.4-1.5c-1.3,0.2-1.4,1.4-2.5,0.7c-0.6-0.4-0.8-1.2-1.6-1.4
			c-1.3-0.4-2.9,0.2-4.1,0.8c-0.3,0.1-1.1,0.8-1.4,0.8c-0.3,0-0.9-0.3-1.2-0.4c-1.8-0.2-3.6,1.6-3.5,3.4c-1.5,0.2-2.2-0.7-3.3-1.4
			c-1.9-1-3.9-2.8-6.3-1.7c-0.7,0.3-1.1,0.9-1.5,1.5c-0.1,0.2-0.4,1-0.5,1.1c-0.5,0.4-1.1,0.2-1.9,0.2c-2,0.1-2.7,1-2.8,3
			c-0.3,0.1-0.9,1.3-1,1.6c-0.1,0.6,0.2,0.6,0.3,1.2c0.4,1.3,0.2,1.3,1.6,1.8c0,0.1,0,0.2,0,0.3c1.5,0.4,1.6,1,1,2.1
			c-0.4,0.8-1,1.5-0.9,2.5c0.2,0.9,1.3,1.4,1.6,2.1c0.5,0.2,1,0.5,1.5,0.6c1.6,0.3,3.2-0.4,4.8-0.1c1.6,0.3,2.7,1.5,4.3,1.6
			c1,0.1,2.2-0.2,3.2,0c0.6,0.1,0.7,0.2,1.1,0.6c0.1,0.2,0.2,0.7,0.3,0.8c0.5,0.3,2,0,2.3-0.5c0.2-0.3,0-0.5,0.2-0.7
			c0.1-0.2,0.3-0.5,0.3-0.6c0.2-0.6,0.2-1.2,0.2-1.9c0-2.5,2.4-0.7,4-1.5c0.9-0.4,1-1.1,2.1-1s1.2,0.2,2.3-0.2
			c0.6-0.2,1.3-0.3,0.9-1.1c-0.5-1.1-1.7-0.4-1.6-2.1c0.1-1.9,1.5-2.1,3-1.7c1.1,0.3,2,0.8,2.9,1.5c0.4,0.3,0.7,0.8,1.3,0.8
			C135.5,376.9,136.5,374.6,134.8,373.8"/>
	</g>
	<g>
		<defs>
			<rect id="SVGID_53_" x="-122" y="-351" width="595.3" height="841.9"/>
		</defs>
		<clipPath id="SVGID_54_">
			<use xlink:href="#SVGID_53_"  style="overflow:visible;"/>
		</clipPath>
		<path class="st26" d="M102.4,384c0-0.1,0-0.2,0-0.3c-0.3-0.1-0.5-0.2-0.8-0.2L102.4,384z"/>
	</g>
	<g>
		<defs>
			<rect id="SVGID_55_" x="-122" y="-351" width="595.3" height="841.9"/>
		</defs>
		<clipPath id="SVGID_56_">
			<use xlink:href="#SVGID_55_"  style="overflow:visible;"/>
		</clipPath>
		<path class="st27" d="M131.8,379.4c-0.7-1-1.7,0.1-2.3,0.6c-0.9,0.7-2.1,1.1-3,2c-1.1,1.1-2.9,1.9-4.2,2.8
			c-0.8,0.6-1.9,0.9-2.7,1.5c-0.8,0.5-1.4,1.2-2.1,1.7c-1.1,0.7-3.2,0.6-3.7,1.9l-0.2,0.4c0,0.9,0.9,1.4,1.8,1.2
			c0.4-0.1,0.9-0.5,1.3-0.7c0.9-0.4,1.8-0.7,2.7-1.1c1.5-0.7,2.9-1.5,4.1-2.5c0.9-0.7,1.4-1.7,2.4-2.4c1-0.7,1.9-0.9,2.8-1.7
			c0.6-0.5,1.1-1.1,1.6-1.5C130.9,381.1,132.7,380.8,131.8,379.4"/>
	</g>
	<g>
		<defs>
			<rect id="SVGID_57_" x="-122" y="-351" width="595.3" height="841.9"/>
		</defs>
		<clipPath id="SVGID_58_">
			<use xlink:href="#SVGID_57_"  style="overflow:visible;"/>
		</clipPath>
		<path class="st28" d="M208.8,376.4c-0.3-1.6-2-1.4-3.2-2c-0.8-0.4-1.2-1.2-2.1-1.8c-1.5-1-5.8-1.9-6.9,0.2
			c-0.1,0.2,0.1,0.6-0.2,0.8c-0.4,0.3-1.3-0.2-1.8-0.3c-0.9-0.2-1.3-0.1-2.2,0.5c-0.5,0.3-1.2,1.1-1.7,1.2c-0.6,0.1-2.2-1.1-2.7-1.4
			c-1-0.6-0.9-1.4-1.7-2.2c-1.8-1.8-4.3-2.5-6.4-0.9c-0.8,0.6-1.5,1.1-2.3,0.4c-0.5-0.4-0.5-1.2-1.1-1.5c-0.5-0.3-1.5-0.1-2.1-0.1
			c-1.2,0-1-0.2-1.8-1.1c-1.3-1.3-2.8-1.8-4.4-0.9c-0.6,0.3-0.6,0.4-1.2,0.4c-0.9,0-1.8-0.2-2.7-0.1c-1.1,0.2-2,0.9-2.9,1.5
			c-0.7,0.4-1.4,0.4-2.2,0.8c-2,1.1-1,2.7-1.4,4.5c-1.5,0-2.8,0.2-3.9,1.3c-0.7,0.7-0.4,1.3-0.7,2c-0.3,0.6-0.8,0.5-0.9,1.4
			c-0.2,2,1.2,3.2,2.6,4.3l-4.2,2.6c1.3,0.9,2.8,1.7,4.2,2.2c3.6,1.3,7.9,0.3,11.6,0.6c2.9,0.2,5.6,1.7,8.5,2.1
			c3.9,0.5,8.4,0.4,12.1-0.8c2.5-0.8,5.2-1.9,7.5-3.3c1.7-1,3.3-2.2,5.3-2.5c3.3-0.5,6.8,0.8,9.2-2.2
			C210.3,381.1,211.8,377.1,208.8,376.4"/>
	</g>
	<g>
		<defs>
			<rect id="SVGID_59_" x="-122" y="-351" width="595.3" height="841.9"/>
		</defs>
		<clipPath id="SVGID_60_">
			<use xlink:href="#SVGID_59_"  style="overflow:visible;"/>
		</clipPath>
		<path class="st29" d="M334.2,386.7c-0.3-0.7-0.7-0.6-1.4-1c-0.8-0.5-1.3-1.2-2.3-1.5c-0.4-0.1-0.8-0.1-1.1-0.3
			c-0.6-0.3-0.9-0.7-1.5-0.9c-0.4-0.1-0.8,0-1.2-0.2c-0.3-0.2-0.3-0.6-0.6-0.8c-0.8-0.4-2-0.1-2.8-0.2c-0.1-0.9-0.1-1.8,0-2.7
			c0.1-2.5,2.4-3.5,0.8-5.9c-0.7-1-1.8-2.7-3-2.8c-1.7-0.1-1.2,1.6-2.5,2c-0.6-1.2-2.1-3.1-3.5-3.3c-1.4-0.2-2.4,1.5-3.8,1.4
			c-0.1-1.2-1.1-1.3-1.9-1.9c-0.7-0.6-1-1.3-1.9-1.7c-1.6-0.6-4.3-0.5-5.9,0.2c-0.8,0.4-1.2,1-2,1.2c-0.8,0.2-2-0.4-2.8,0.2
			c-0.6,0.5-0.2,0.9-0.4,1.6c-0.3,1.9-3.3,1.8-4.7,2.7c0.9,1.6,2.4,1.7,4.1,1.8c1.4,0.1,2.7,0.1,4.1,0.3c1.8,0.3,3.2,1.3,4.9,1.7
			c1,0.2,2.2-0.1,3.2,0.1c1.4,0.3,2.2,1.2,3.4,1.8c0.7,0.3,6.1,1,5.5,2.1c-0.4,0.8-3.5,0.2-4.3,0.1c-1.4-0.1-2.8,0.3-4.3,0
			c-1.3-0.3-1.9-0.6-3.3-0.4c-1.2,0.2-2.1,0.3-3.3,0c-1.1-0.2-2.1-0.7-3.3-0.8c-1.1-0.1-3.6,0.1-4.3,0.9l-0.9,1.2
			c0.6,1.9,2.9,0.9,4.6,0.8c4.4-0.2,8.7,0.7,13,1.1c2.6,0.2,5.3,0.2,8,0.2c0.9,0,1.7-0.1,2.5,0.2c1.5,0.4,3,1.3,4.4,1.8
			c0.9,0.3,1.9,0.3,2.8,0.6c0.9,0.3,1.9,0.5,2.8,0.8c0.5,0.2,2,1.3,2.5,1.1C334.2,388.1,334.4,387.3,334.2,386.7"/>
	</g>
	<g>
		<defs>
			<rect id="SVGID_61_" x="-122" y="-351" width="595.3" height="841.9"/>
		</defs>
		<clipPath id="SVGID_62_">
			<use xlink:href="#SVGID_61_"  style="overflow:visible;"/>
		</clipPath>
		<path class="st30" d="M82.9,394.4c0-0.2-0.4-0.4-0.5-0.8c0-0.4,0.3-1.1,0.3-1.5c0.2-1.8-1.3-4.5-2.7-5.6c-0.9-0.8-1.3-1.8-2.2-2.5
			c-0.8-0.6-2.5-1.4-3.5-1.3c-0.3,0-0.5,0-0.8,0s-0.1,0.6-0.4,0.6c-0.8,0-1.3-1-2-1.4c-0.9-0.5-1.9-0.8-2.9-0.8
			c-1.6-0.1-2.8-0.1-3,1.4c-0.1,1,0.3,1.8-0.5,2.4c-0.4,0.3-2.2,0.1-2.7,0.2c-1,0.1-1.3,0-2,0.8c-0.5,0.5-0.5,1-1.2,1.3
			c-0.5,0.2-1.7,0-2-0.5c-0.2-0.5,0.4-1.1,0.4-1.5c0.2-1.1-0.2-2.1-1.2-2.5c-1.5-0.7-3.3,0.2-4.6,0.1c-1.8-0.2-5.9-1.7-7.5,0.2
			c-1,1.3,0.5,2.7,0.6,4.1c0.2,2.7-1.1,2.4-3.1,3.3c-1.9,0.9-1.1,1.8-1.5,3.3c-0.2,0.7-0.9,1.4-1.9,1.3c-1.3-0.1-2.8-1.4-4.1-1.9
			c-0.6-0.2-1.3-0.4-1.9-0.3c-0.8,0.1-1.5,0.9-2.2,0.6c-0.1-1.9,0.4-4.1-1.6-5.3c-1.1-0.7-3-0.5-3.7,0.8c-0.9-1.5-3.5-1.8-5-1.4
			c-1.9,0.6-2.6,2.1-2.6,3.9c-0.6,0.1-1.1,0.7-1.5,0.8c-0.5,0.1-1.1-0.3-1.8-0.3c-2.1-0.2-2.7,1.4-4.1,2.6c-0.4,0.3-0.8,0.2-1.2,0.8
			c-0.4,0.6-0.1,2.5,0.3,3c0.7,1,2.6,1.1,3.7,1.2c4.6,0.6,9.4,0.1,14.1,0.5c7.4,0.6,15,0.4,22.5,0.3c7.8-0.1,15.5,0.7,23.3,1.4
			c3.4,0.3,6.8-0.2,10.1,0l-1.3-3.5C82.6,397.1,83.2,396,82.9,394.4"/>
	</g>
	<g>
		<defs>
			<rect id="SVGID_63_" x="-122" y="-351" width="595.3" height="841.9"/>
		</defs>
		<clipPath id="SVGID_64_">
			<use xlink:href="#SVGID_63_"  style="overflow:visible;"/>
		</clipPath>
		<path class="st31" d="M143.3,401.3c-0.1-1.5-0.6-4.3-1.5-5.6l-3.7-3.6c-0.3-0.8-2.1-1.2-2.8-1.4c-1.5-0.3-3.6-0.5-5,0.2
			c-0.5,0.2-0.8,0.5-1.2,0.9c-0.2,0.2,0,0.4-0.2,0.5c-0.5,0.3-1.6-0.1-1.8,0.8c-0.7-0.1-1.4-0.6-2.2-0.7c-1.4-0.2-2.3,0.1-3.4,0.8
			c-1.2,0.7-2.1,0.9-3.5,0.8c0-0.7-0.1-1.8-0.6-2.3c-0.5-0.6-1.2-0.4-1.9-0.6c0-0.4,0.1-0.7,0.1-1.1c0-0.6-0.4-1.1-0.4-1.7
			c0-0.4,0.1-0.9,0.1-1.4c-0.1-1.3-1.2-2.5-2.3-3.1c-0.4-0.2-0.8-0.3-1.1-0.5c-0.6-0.4-0.9-1-1.5-1.3c-1.3-0.5-3.8-0.4-5,0.5
			c-0.3,0.2-0.6,0.9-0.9,1c-0.6,0.2-1.1-0.5-1.7-0.7c-0.8-0.3-1.9-0.5-2.7-0.2c-1,0.3-1.5,1.3-2.2,1.8c-0.5,0.3-1.3,0.4-1.8,0.8
			c-0.9,0.7-0.9,1.4-0.8,2.5c0.1,0.8,0.1,1.8-0.2,2.6c-0.4,1.1-1.4,0.9-2.5,0.9c-0.7,0-1.4-0.1-2.1,0.2c-0.6,0.3-0.7,0.8-1,1.4
			c-0.4,0.7-0.6,0.6-1.4,0.6c-2.1,0.2-3.1,1.6-3,3.6c0.1,1-0.4,1.7-0.3,2.7c0.3,2.9,4.8,2,6.7,2.2c5,0.6,10,1.4,15,2.2
			c3.6,0.6,7.3,0.4,11,0.7c5,0.5,9.9,0.5,14.8,0.7c2.6,0.1,5.5,0.2,8.1-0.1c0.8-0.1,2-0.4,2.6-1
			C143.5,403.7,143.4,402.2,143.3,401.3"/>
	</g>
	<g>
		<defs>
			<rect id="SVGID_65_" x="-122" y="-351" width="595.3" height="841.9"/>
		</defs>
		<clipPath id="SVGID_66_">
			<use xlink:href="#SVGID_65_"  style="overflow:visible;"/>
		</clipPath>
		<path class="st32" d="M9.5,394.6c-0.5-0.8-1.3-1.5-1.9-2.3c-1.4-1.8-3-2-5-2.2c-1.4-0.2-4.3-0.3-5.5,0.5c-1.1,0.8-0.8,2.1-2.1,2.4
			c-0.6,0.1-1.3-0.3-1.9,0c-0.4,0.2-0.4,0.6-0.7,0.9c-0.8,0.6-1.9,0.8-2.9,0.8c-1.6,0-2.8-1.3-4.4-1.3c-1,0-1.8,0.2-2.8,0
			c-1-0.2-1.8-0.9-2.9-0.8c-1.3,0.1-1.9,1-2.9,1.6c-2,1.1-4.2-0.3-4.8-2.4c-0.3-1.2,0.1-2.7-0.4-3.9c-0.8-1.7-2.8-1-4-2.1
			c-0.9-0.9-1.3-2.1-2.4-2.9c-1-0.7-2.2-1.5-3.4-1.7c-2-0.3-4.2,0.2-5.5,1.8c-0.7,0.8-0.7,1.2-2,1.7c-0.7,0.2-1.3,0.3-1.8,0.6
			c-0.7,0.4-0.8,0.6-1.7,0.7c-0.9,0-1.9,0.4-2.5,0.1c-1-0.4-1.7-1.5-3-1.9c-1.3-0.4-3-0.6-4.5-0.2v15.9c0.7,0,1.1-0.1,1.5-0.1
			c4.3,0,8.6,0.4,12.9,0.4c5.2,0,10.5,0.3,15.7,0.3c2.9,0,5.8-0.3,8.7-0.4c3.4-0.2,6.8-0.1,10.2-0.6c6.8-0.9,13.8,0.1,20.5-1.3
			C10,397,10.2,395.6,9.5,394.6"/>
	</g>
	<g>
		<defs>
			<rect id="SVGID_67_" x="-122" y="-351" width="595.3" height="841.9"/>
		</defs>
		<clipPath id="SVGID_68_">
			<use xlink:href="#SVGID_67_"  style="overflow:visible;"/>
		</clipPath>
		<path class="st33" d="M208.7,387.3c-0.6-1-0.9-2.2-1.3-3.3s-1.3-2.4-1.4-3.2l-0.8-0.6c-0.8-0.9-1.3-2-2.6-2.5
			c-0.5-0.2-0.6-0.2-1.1-0.1c-0.4,0.1-0.8,0.2-1.2,0.3c-0.3,0.1-0.7,0.4-1,0.5s-0.3-0.1-0.6-0.1c-1,0-1.7,0-2.4,0.8
			c-0.5,0.6-0.8,1.7-1.5,2.2c-0.6-0.4-0.9-0.9-1.3-1.5c-0.5-0.8-1.1-1-1.9-1.4c-2.4-1.2-5.6-2-8-0.2c-0.4,0.3-0.7,0.7-0.9,1.1
			c-0.1,0.3,0,1.1-0.1,1.3c-0.4,0.6-1.7,0.5-2.3,1c-0.5,0.4-0.9,0.9-1,1.5c-0.1,0.5,0,1.1-0.1,1.5s-0.6,0.7-0.8,1.1
			c-1.2,0.1-2.7-0.5-3.7-1.1c-0.7-0.4-1-0.6-1.3,0.2c-0.3,0-0.3-0.2-0.6-0.4c-0.6-0.3-1.2-0.6-1.9-0.8c-1.5-0.4-3.1-0.2-4.4,0.7
			c-0.5,0.3-0.6,0.7-1.2,0.7c-0.8,0-1.7-0.8-2.3-1.3c-1.8-1.4-3.8-2-6.1-2c-2.2,0-3.7,0.4-5.4,1.6c-0.6-0.9-1-1.9-1.9-2.6
			c-1.3-0.9-2.8-2.4-4.5-2.2c-1.9,0.3-3.4,1.1-4.8,2.4c-0.6,0.5-1.2,0.8-1.5,1.5c-0.3,0.5-0.2,1.1-0.4,1.7c-0.2,0.7-0.6,1.4-1,2
			c-0.6,1-0.7,2.1-0.6,3.2c0.1,0.8,0.3,1.4,0.1,2.1c-0.2,0.8-0.7,1.4-0.9,2.1c-0.2,0.6-0.4,1.7-0.2,2.4c0.2,0.7,0.8,1.1,1,1.8
			c0.1,0.4,0,0.8,0,1.2c0,0.7,0.1,1.2,0.5,1.8c0.3,0.4,0.6,0.9,0.8,1.4c1,1.9,3.8,1.5,5.6,1.8c4.6,0.6,8.8,2.4,13.4,2.7
			c2.9,0.2,5.8,0.3,8.7,0.2c2.6-0.1,5.2-0.7,7.8-0.7c2.3,0,4.6,0,6.9,0c2.1,0,4.2-0.2,6.3-0.4c4.2-0.3,8.3-1.3,12.5-1.7
			c1.1-0.1,2-0.1,2.9-0.6c1.3-0.6,2.9-1.4,3.9-2.4c0.8-0.9,1.2-2.3,1.6-3.3c0.6-1.3,0.8-2.8,1.4-4.1c0.6-1.1,0.9-1.9,0.8-3.2
			C209.9,389.3,209.4,388.5,208.7,387.3"/>
	</g>
	<g>
		<defs>
			<rect id="SVGID_69_" x="-122" y="-351" width="595.3" height="841.9"/>
		</defs>
		<clipPath id="SVGID_70_">
			<use xlink:href="#SVGID_69_"  style="overflow:visible;"/>
		</clipPath>
		<path class="st34" d="M271.3,387.3c-1-2.3-1.7-4.8-2.6-7.2c-0.6-1.6-1.5-3.5-3.3-4c-2.3-0.6-4.8,1.4-7,1.7c-0.9-2.3-1.5-4-3.7-5.5
			c-1.4-0.9-4.2-2.1-5.9-1.1c0.2-3-5.5-3.1-7.3-3c-1.4,0-3.1,0-4.2,1c-0.8,0.8-0.8,1.7-1.2,2.6c-0.7,1.7-1.2,1.1-3,0.7
			c-3-0.7-6.5-0.3-6.9,3.4c0,0.4,0.4,2,0.2,2.3c-0.6,0.8-2.9,0.5-3.8,0.4c-2.1-0.2-3.3-2.6-5.7-2.9c-2.5-0.4-4.4,0.2-5.6,2.4
			c-1.1,2-3.5,1.7-5.5,1.4c-2.4-0.3-3.5,0.2-4.6,2.5c-0.7,1.4-0.8,1.2-2.4,1.9c-1.8,0.8-2.9,2.5-3,4.5c-0.1,1.5,0.2,1.5-1,2.5
			c-2.3,1.8-2.4,4.8-1.2,7.3c0.6,1.2,1.5,2.8,2.8,3.4c1,0.5,1.8,0.2,2.8,0.4c0.9,0.2,1.8,0.7,2.7,0.8c2,0.3,4,0,6-0.4
			c6.2-1.2,12.5,0,18.8,0.4c3.2,0.2,6.5,0.4,9.7,0.3c3-0.2,6-0.8,9-1c4.7-0.2,9.3,0.9,13.9,0.9c2.8,0,5.7,0.4,8.3-0.8
			c2.6-1.2,4.7-3,5.3-5.9C273.8,392.7,272.7,390.6,271.3,387.3"/>
	</g>
	<g>
		<defs>
			<rect id="SVGID_71_" x="-122" y="-351" width="595.3" height="841.9"/>
		</defs>
		<clipPath id="SVGID_72_">
			<use xlink:href="#SVGID_71_"  style="overflow:visible;"/>
		</clipPath>
		<path class="st35" d="M430.6,374.1c-1.3,0.3-2.1-0.7-3.6-0.7c-1.7,0-6.4,0.4-7.2,2c-0.4,0.7,0,1.1,0.6,1.5c0.3,0.3,2.7,1.7,1.1,2
			c0.3,1.3,2.2,1.7,0.5,2.5c-1.3,0.5-5.4,0.9-5.6,3c-0.1,1.3,2.1,2.6,2.4,3.9c0.1,0.4,0.3,1.3,0.2,1.7c-2.9,0.2-5.8,0-8.3,1.9
			l-3.6,2.9c0.1,1.9-0.8,3.9,0.1,5.7c1,2.1,3.8,2.2,5.8,2.8c3.4,1.1,7.1,1.8,10.7,2.3c1.9,0.3,3.8-0.1,5.7-0.4
			c1.4-0.3,2.9-0.3,4.3-0.7v-30.9C432.6,373.4,431.6,373.9,430.6,374.1"/>
	</g>
	<g>
		<defs>
			<rect id="SVGID_73_" x="-122" y="-351" width="595.3" height="841.9"/>
		</defs>
		<clipPath id="SVGID_74_">
			<use xlink:href="#SVGID_73_"  style="overflow:visible;"/>
		</clipPath>
		<path class="st36" d="M-59.5,397.3c2.2-0.3,4.2-0.7,6.5-0.9c7.2-0.8,14.5,0.5,21.6,0.6c7.4,0.1,14.8,0,22.2,0
			c6.3,0,12.4-1,18.7-0.6c3.2,0.2,6.5,0,9.7-0.2c1.3-0.1,2.6-0.3,3.9-0.2c1.6,0.1,3,0.7,4.5,0.7c3.5,0.1,7-1,10.6-0.9
			c1.7,0,3.3,0.2,5,0.2c5.7,0,11.5,0.5,17.2,0.5c4.5,0,8.8-0.2,13.3,0.2c4.8,0.4,9.7,1.3,14.5,1.3c5.7-0.1,11-0.5,16.7,0.4
			c6.5,1.1,12.9,1.3,19.5,1.4c2.4,0,4.8,0.4,7.2,0.9c2.8,0.6,5.3,0.7,8.2,0.8c4.4,0.2,8.7,0.8,13,1c1.9,0.1,3.7-0.5,5.5-0.6
			c2.5-0.1,5,0.1,7.5-0.3c4.3-0.7,8.2-0.5,12.6,0c3.4,0.3,6.6-1.2,10-1c3.7,0.1,7.4,0.1,11-0.5c3.2-0.6,5.9-1.9,9.1-2.2
			c4.5-0.4,9-0.3,13.5-0.5c2.5-0.1,5,0.1,7.3,0.7c2.1,0.5,5.6,0.8,6.8,2.7c-1.5,0.7-3.2,0.9-4.8,1.4c-1.9,0.5-3.7,1.5-5.5,2.3
			c-3.7,1.7-7.3,2.8-11.2,3.9c-5.1,1.5-10.4,2.1-15.7,2.9c-5.8,0.9-11.5,2.6-17.4,2.8c-13.4,0.6-26.9,0.4-40.3,0.4
			c-21.1,0-42.3,0.5-63.4,1.9H-59.5V397.3z"/>
	</g>
	<g>
		<defs>
			<rect id="SVGID_75_" x="-122" y="-351" width="595.3" height="841.9"/>
		</defs>
		<clipPath id="SVGID_76_">
			<use xlink:href="#SVGID_75_"  style="overflow:visible;"/>
		</clipPath>
		<path class="st37" d="M230.3,399.2c-1.5-0.3-3-0.3-4.5-0.6c-2.9-0.6-5.3-0.1-8.1,0.2c-1.4,0.2-2.9,0-4.3,0c-2.1,0-3.7,0.8-5.7,1.4
			c-2.1,0.6-4.2,1.2-6.2,1.9c-1.9,0.6-3.9,0.4-5.8,0.6c-1.7,0.1-3.2,0.7-4.9,1c-3.7,0.7-7.5,0.6-11.2,0.4c-3-0.2-6-0.4-9.1-0.2
			c-3.7,0.2-7.1,1.3-10.9,1.1c-3-0.2-6-0.4-9-0.4c-1.9,0-3.9,0.2-5.7-0.2c-2.9-0.5-4.6-1.4-7.5-0.8c-2.9,0.7-5.9,0.5-8.9,0.3
			c-3.1-0.2-6.3,0.1-9.5-0.1c-3.5-0.2-6.4-1.7-9.7-2.5c-2.8-0.6-5.3-0.3-8.1,0.1c-3.8,0.5-7.4-0.2-11.2-0.2c-7.6,0-15.1,0.8-22.6,0
			c-2.6-0.3-5.1,0.1-7.7-0.5c-4.1-1-7.6-0.6-11.8,0c-3.8,0.5-7.3-0.6-11.1-0.7c-4.9-0.2-10.7-0.7-15.4,0.9c-2.7,0.9-4.1,1.9-7,1.7
			c-2.8-0.3-5.9-0.7-8.6-0.3c-4,0.6-7.5,1.6-11.6,1.3c-3.8-0.3-7.3-1.4-11.1-1.8c-5.7-0.6-11.5,0.3-17.2,0.2
			c-5.2-0.1-9.8,1.4-14.9,0.2c-2.7-0.6-4.6-0.7-7.4-0.2c-1.2,0.2-2.2,0.5-3.4,0.7v12.6L64.1,413c0,0,79-0.2,98.7,0.2
			c19.7,0.5,72-12.2,72-12.2C233.3,400.5,231.9,399.5,230.3,399.2"/>
	</g>
	<g>
		<defs>
			<rect id="SVGID_77_" x="-122" y="-351" width="595.3" height="841.9"/>
		</defs>
		<clipPath id="SVGID_78_">
			<use xlink:href="#SVGID_77_"  style="overflow:visible;"/>
		</clipPath>
		<path class="st38" d="M413.9,396.7c-0.4-2-0.2-3.8-0.8-5.5c-0.7-2,0.2-3.9-2.8-4.4c-1.5-0.2-3.7,0.4-5-0.5
			c-0.6-0.4-0.7-1.3-1.3-1.7c-0.6-0.3-1.3-0.4-2-0.3c-3.9,0.4-2.5,4.7-3.5,7.4c-1.4-1.7-5-1.1-5.5-3.7c-0.1-0.6,0.2-1.2,0-1.8
			c-0.2-0.7-0.5-1-0.6-1.6c-0.2-0.8,0.3-1.8-0.3-2.6c-0.7-1.1-2.2-0.6-3.2-0.7c-2.1-0.3-3.7-2.4-5.9-2.2c-1.5,0.2-2.7,1.2-4,1.8
			c-0.6,0.3-1.3,0.3-1.9,0.5c-1.6,0.5-0.6,1.5-1.3,2.7c-0.7,1.2-3.1,1.2-3.8,2.4c-0.2,0.3,0,1.2,0,1.6c-0.2,2.2-2.2,2-4,1.9
			c-0.3-0.9-1.1-1-1.9-1.1c-1.8-0.3-3.2-0.5-4.4-2.2c-0.5-0.7-0.6-1.6-1.3-2.2c-1.3-1.2-3.8-0.1-5.4-1.1c-1.8-1-2.7-3.2-4.5-4.3
			c-1.7-1-3.7-0.4-5.4,0c-1.4,0.4-2.3,0.4-3.7,0.2c-1.2-0.3-2.3-0.6-3.5-0.3c-1.6,0.3-1.7,1-2.7,1.8c-1.5,1.3-3.5,1-4.5,3
			c-1.1,2.2-0.6,5.3-2.3,7c-1.2,1.2-1.7,2.6-2.9,3.8c-1.2,1.1-2.2,1.9-1.6,3.7c0.4,1.2,1.4,1.6,2.5,2.1l0.7,1.3
			c1-0.1,1.9,0.2,2.9,0.3c2.5,0.1,5,0,7.4-0.1c11-0.3,21.9,0,32.9-0.5c13.6-0.5,27.1-0.5,40.7-0.3
			C413.5,400.8,414.3,399,413.9,396.7"/>
	</g>
	<g>
		<defs>
			<rect id="SVGID_79_" x="-122" y="-351" width="595.3" height="841.9"/>
		</defs>
		<clipPath id="SVGID_80_">
			<use xlink:href="#SVGID_79_"  style="overflow:visible;"/>
		</clipPath>
		<path class="st39" d="M328.1,397.1c-0.4-0.3-1.2-0.3-1.6-0.7c-0.2-0.2-0.2-0.4-0.3-0.6c-0.8-1-1.7-1.2-2.9-0.8
			c-0.6,0.2-1,0.4-1.6,0c-1-0.4-0.6-0.8-0.6-1.6c-0.3-3.1-5.6-3.1-7.2-1c-0.3,0.4-0.2,0.9-0.7,1.2c-0.3,0.1-0.8-0.1-1.1,0
			c-0.4,0.1-0.7,0.6-1,0.7c-0.4,0.1-0.9-0.3-1.4-0.3c-0.8-0.1-1.9-0.2-2.7,0.1c-1.5,0.4-1.5,1.7-2.2,2.8c-0.6,1-1.8,0.8-2.7,0.5
			c-0.6-0.2-1.1-0.3-1.7-0.1c-0.4,0.1-0.7,0.3-1.1,0.3s-0.8-0.3-1.3-0.5c-0.7-0.2-1.6-0.3-2.4-0.2c-0.9,0.1-1.7,0.8-2.5,1.3
			c-0.4,0.3-1.4,0.7-1.4,1.2l0.2,1c3.6,0,7.2,0.7,10.8,0.7c4.2,0,8.5,0,12.7,0c2.7,0,5.6,0.2,8.3-0.1c1.3-0.2,2.5-0.5,3.8-0.6
			c1-0.1,1.1-0.3,1.2-1.3C328.8,398.5,328.7,397.6,328.1,397.1"/>
	</g>
	<g>
		<defs>
			<rect id="SVGID_81_" x="-122" y="-351" width="595.3" height="841.9"/>
		</defs>
		<clipPath id="SVGID_82_">
			<use xlink:href="#SVGID_81_"  style="overflow:visible;"/>
		</clipPath>
		<path class="st40" d="M296.6,382c-0.1-1.6,0.6-2.4-0.8-3.7c-0.6-0.5-1.3-1.1-1.9-1.6c-0.4-0.4-0.4-0.3-1-0.4c-0.5-0.1-1.6,0-2-0.3
			s-0.7-1.2-0.9-1.6c-0.3-0.5-0.6-1.1-1-1.5c-0.1-0.1-1.6-0.6-1.5-0.4c-0.3-0.8-0.7-1.8-1.7-1.6c-0.9-2-2.5-3.1-4.8-3
			c-0.7,0-1.6,0.2-2.2,0.6c-0.7,0.5-0.5,1-0.5,1.9c-0.2,4.2-7.3,0.3-7.8,4.4c-0.1,0.5,0.2,0.4-0.1,0.7c-0.5,0.6-1.6,0.7-2.2,1.3
			c-0.5,0.5-0.3,0.6-1.1,0.8c-1,0.3-1.9,0.4-2.6,1.4c-1.4,2.1,1.9,2.8,2.3,4.4c0.3,1.1-1.1,2-0.9,3.1c-1.5,0.1-4.6-0.4-5.7,1
			s0.2,2.7,0.6,4c0.3,0.9-0.4,0.6-0.6,1.5c-0.2,1.1,1.5,1.1,1.8,1.9c0.1,0.1-0.1,0.4,0,0.5c0.2,0.5,0.8,0.7,1,1.1
			c0.2,0.6-0.4,0.5-0.8,1c-0.7,0.8-0.3,1.8,0.3,2.5c1.4,1.8,3.7,1.6,5.7,1.5c2.8-0.1,5.6-0.3,8.4-0.4c2.5,0,4.5,1.4,7.1,1.7
			c4.2,0.5,9.4,0.6,13-2c1-0.7,1.7-1.4,1.3-2.6c-0.2-0.6-0.6-1.4-0.6-2c0-0.9,0.7-0.7,1-1.5c0.3-0.8-0.4-1.2-0.8-1.8
			c-0.5-0.8-1.1-1.6-1.1-2.6c-0.2-1.9,1.9-2.6,2.1-4.3C298.7,384.4,296.7,383.6,296.6,382"/>
	</g>
</g>
<g>
	<g>
		<defs>
			<polygon id="SVGID_83_" points="252.8,399.9 253.9,399.9 253.7,357.1 253.1,357 			"/>
		</defs>
		<clipPath id="SVGID_84_">
			<use xlink:href="#SVGID_83_"  style="overflow:visible;"/>
		</clipPath>
		
			<linearGradient id="SVGID_85_" gradientUnits="userSpaceOnUse" x1="-171.5575" y1="658.5073" x2="-170.5575" y2="658.5073" gradientTransform="matrix(0 37.596 -37.596 0 25010.5918 6811.085)">
			<stop  offset="0" style="stop-color:#FFFDEB"/>
			<stop  offset="1" style="stop-color:#947839"/>
		</linearGradient>
		<rect x="252.8" y="357" class="st41" width="1.1" height="42.9"/>
	</g>
</g>
<g>
	<g>
		<defs>
			<rect id="SVGID_86_" x="-122" y="-351" width="595.3" height="841.9"/>
		</defs>
		<clipPath id="SVGID_87_">
			<use xlink:href="#SVGID_86_"  style="overflow:visible;"/>
		</clipPath>
		<path class="st42" d="M261.5,369.9c-0.1-1.3-2.5-1.5-3.8-1.4c-0.5,0-1.9,0.3-2.4,0.1c-0.2-0.1,0-0.4-0.2-0.5
			c-0.5-0.4-1.3,0-1.6-0.7c-0.1-0.2,0.1-0.5,0-0.7c-0.1-0.5-0.8-0.6-1-0.9c-0.4-0.8,2.4-0.9,3.2-0.9c1.3,0,0.8,0,1.3,0.8
			c0.5,0.9,1.8,0.9,2.9,0.8c0.6,0,1.4-0.3,1.7-0.7c-1.1-0.2-0.4-0.9-0.7-1.4c-0.4-0.8-2.7-1.6-3.9-1.8c-0.3,0-1.2,0-1.3-0.3
			c-0.2-0.4,1-0.6,1.4-0.7c1.1-0.2,2.4,0.2,3.5-0.2c0-0.1,0.1-0.2,0.1-0.4c1.9-0.2,1-1.6-0.1-2.1c-0.5-0.2-2.7-0.9-3-0.4l-0.1-0.2
			c-0.2-0.5-1.6-0.9-2.3-0.9c-0.9,0-1.5,0.7-2.4,0.6c-1.7-0.1-3.7-1.3-5.3-0.2c-0.5,0.3-0.3,0.7-0.6,1c0.1,0.2-0.1,0.2-0.4,0.4
			c-0.7,0.5-0.4,2,0,2.4c1.2,1.4,1.9,0,3.4,0c0.7,0,1.8,0.4,1.6,1c0.4,0,0.6,0.3,0.5,0.6c-0.1,0.3-0.9,0.5-1.3,0.7
			c-0.8,0.3-1.1,0.5-1,1.3c0.1,0.6,0.7,0.9,1.3,1.3c0.2,0.1,0.6,0.2,0.7,0.5c0.1,0.6-1.8,0.4-2.1,1.2c-0.5,1.3,2.3,0.8,2.5,1.8
			c-0.6,0.2-0.9,0.6-0.7,1.2c0.5,1.4,3.7,1.5,5.1,1.1c0.6-0.2,1-0.3,1.6-0.3c0.5,0,1.1,0,1.6,0.2c0.1,0,0.4,0.3,0.4,0.3
			c0.5,0.1,1.1,0,1.8,0c0.1-0.6-0.7-1-0.7-1.5C261.2,370.4,261.5,370.2,261.5,369.9"/>
	</g>
	<g>
		<defs>
			<rect id="SVGID_88_" x="-122" y="-351" width="595.3" height="841.9"/>
		</defs>
		<clipPath id="SVGID_89_">
			<use xlink:href="#SVGID_88_"  style="overflow:visible;"/>
		</clipPath>
		<path class="st43" d="M262.4,382.5c-0.2-0.3-0.7-0.5-0.8-0.8c-0.1-0.3,0.2-0.7,0.2-1.1s-0.1-0.9-0.2-1.3c-0.3-0.9-1.1-1.8-2.1-2.3
			c-0.8-0.5-1.7-0.8-2.5-1.1c-0.9-0.4-1.6-0.6-2.7-0.5c-0.7,0.1-1.1,0.3-1.5,0.7c-0.6,0.6-0.4,0.8-1.4,0.7c-0.8-0.1-1.7-0.4-2.6-0.3
			c-0.4,0.1-1.5,0.5-1.7,0.8c-0.3,0.7,1.1,1,0.7,1.6c-0.1,0.2-1.3,0.5-1.6,0.7c-0.4,0.2-0.8,0.5-1,0.8c-0.2,0.4-0.3,0.7-0.1,1.1
			c0.4,0.9,1.5,1,2.4,1.3c0.9,0.4,0.2,0.6-0.4,1c-0.6,0.4-0.9,1.1-0.4,1.7c0.5,0.7,1.7,0.8,2.5,0.4c1.2-0.5,1.9-0.8,3.3-0.7
			c0.7,0.1,1.4,0.4,2.1,0.5c0.4,0,1,0,1.4,0c0.8-0.1,1.4-0.7,2.1-0.9c0.6-0.1,1.3,0.2,1.9,0.1c0.9-0.2,1-0.7,1.7-1
			C262.4,383.5,262.8,383.3,262.4,382.5"/>
	</g>
	<g>
		<defs>
			<rect id="SVGID_90_" x="-122" y="-351" width="595.3" height="841.9"/>
		</defs>
		<clipPath id="SVGID_91_">
			<use xlink:href="#SVGID_90_"  style="overflow:visible;"/>
		</clipPath>
		<path class="st44" d="M433.6,399.5h-185c-18.6,0-26,0-39.4,3.7c-13.4,3.7-29,6.7-43.1,6.7s-32-0.7-81.8-1.5
			c-45.1-0.7-128.3,2.2-143.8,2.8v29.9h493.1V399.5z"/>
	</g>
	<g>
		<defs>
			<rect id="SVGID_92_" x="-122" y="-351" width="595.3" height="841.9"/>
		</defs>
		<clipPath id="SVGID_93_">
			<use xlink:href="#SVGID_92_"  style="overflow:visible;"/>
		</clipPath>
		<path class="st45" d="M132.3,372.8c1.8-0.4,3.5,0.3,5.2,0.1c0.9-0.1,1.8-0.7,2.7-0.5c0.5,0.1,0.8,0.2,1.3,0.2
			c-0.1-2,3.1-4.1,3.8-1.5c0.4,0.1,0.9,0.2,1.4,0.1c0.2,0,0.4-0.3,0.5-0.3c0.7,0,1,1,1.6,1.2c0.6,0.2,1.5-0.4,2.2-0.5
			c0.8-0.1,1,0.3,1.7,0.5c0.8,0.2,1.9-0.3,2.8-0.2c0.6,0,1.6,0,2.2,0.3c0.5,0.4,0.4,0.5-0.1,0.7c-0.7,0.3-2.1-0.1-2.9-0.1
			c-4.3,0-8.6,0.4-12.9,0.4c-2.2,0-4.5,0.1-6.6,0.1c-0.5,0-2.6,0.3-3-0.3L132.3,372.8z"/>
	</g>
</g>
</svg>
