<?xml version="1.0" encoding="utf-8"?>
<!-- Generator: Adobe Illustrator 19.0.0, SVG Export Plug-In . SVG Version: 6.00 Build 0)  -->
<svg version="1.1" id="Layer_1" xmlns="http://www.w3.org/2000/svg" xmlns:xlink="http://www.w3.org/1999/xlink" x="0px" y="0px"
	 viewBox="0 0 492 80" style="enable-background:new 0 0 492 84.2;" xml:space="preserve">
<style type="text/css">
	.st0{clip-path:url(#SVGID_2_);fill:#AFC2DE;}
	.st1{clip-path:url(#SVGID_2_);fill:#B8D3E5;}
	.st2{clip-path:url(#SVGID_2_);fill:#B6DEBF;}
	.st3{clip-path:url(#SVGID_2_);fill:#A0B8D8;}
	.st4{clip-path:url(#SVGID_2_);fill:#CDDBD7;}
	.st5{clip-path:url(#SVGID_2_);fill:#859FA6;}
	.st6{clip-path:url(#SVGID_2_);fill:#87A8CF;}
	.st7{clip-path:url(#SVGID_2_);fill:#668A91;}
	.st8{clip-path:url(#SVGID_2_);fill:#C1E1BB;}
	.st9{clip-path:url(#SVGID_2_);fill:#8EA593;}
	.st10{clip-path:url(#SVGID_2_);fill:#FFFAC0;}
	.st11{clip-path:url(#SVGID_2_);fill:#708F77;}
	.st12{clip-path:url(#SVGID_2_);fill:#A0D39E;}
	.st13{clip-path:url(#SVGID_2_);fill:#537B60;}
	.st14{clip-path:url(#SVGID_2_);fill:#65876E;}
	.st15{clip-path:url(#SVGID_2_);fill:#73917A;}
	.st16{clip-path:url(#SVGID_2_);fill:#A1C46A;}
	.st17{clip-path:url(#SVGID_2_);fill:#D8D981;}
	.st18{clip-path:url(#SVGID_2_);fill:#B6CAA7;}
	.st19{clip-path:url(#SVGID_2_);fill:#C0D083;}
	.st20{clip-path:url(#SVGID_2_);fill:#66886F;}
	.st21{clip-path:url(#SVGID_2_);fill:#46893D;}
	.st22{clip-path:url(#SVGID_2_);fill:#485F45;}
	.st23{clip-path:url(#SVGID_2_);fill:#3A7761;}
	.st24{clip-path:url(#SVGID_2_);fill:#3F6B49;}
	.st25{clip-path:url(#SVGID_2_);fill:#73B276;}
	.st26{clip-path:url(#SVGID_2_);fill:#A4D38C;}
	.st27{clip-path:url(#SVGID_2_);fill:#546C50;}
	.st28{clip-path:url(#SVGID_2_);fill:#478A69;}
	.st29{clip-path:url(#SVGID_4_);fill:url(#SVGID_5_);}
	.st30{clip-path:url(#SVGID_7_);fill:#3F6B49;}
	.st31{clip-path:url(#SVGID_7_);fill:#658060;}
	.st32{clip-path:url(#SVGID_7_);fill:#4D6A26;}
	.st33{clip-path:url(#SVGID_7_);fill:#708F77;}
</style>
<g>
	<defs>
		<rect id="SVGID_1_" x="-63" y="-708" width="595.3" height="841.9"/>
	</defs>
	<clipPath id="SVGID_2_">
		<use xlink:href="#SVGID_1_"  style="overflow:visible;"/>
	</clipPath>
	<path class="st0" d="M370.1,10.8c4.4-0.7,9.2-0.1,13.2-1.2c3.2-0.9,6.4,0.8,9.7,0.5c4.9-0.3,8.8,1.3,13-1.1c3,0.7,4.9,3.9,7.4,4.7
		c1.4,0.4,4.6-0.3,6-0.8c0.8-0.3,1.4-0.9,2.3-1.1c2.2-0.5,4.6,0.5,6.8,0.4c1.2,0,2.3-0.2,3.5-0.2c2.3,0.1,4.2,0.7,4.8-2.4
		c2.2-0.6,4.3,3.1,6.3,1.3c0.9-0.8,0.8-3.2,1.4-4.4c0.4,0,0.9,0,1.3,0.3c0.6,1.7,0.8,5.7,2.6,2.8c0.9-1.4,1-4.2,1.1-5.9
		c2.1-0.5,1.4,1.8,1.6,3c0.4,1.8,1.6,2.5,1.7,4.4c1.6,0.2,3.4-0.2,4.9-0.5c2.9-0.6,6,0.2,9,0c0.2-2.7,5.2-0.7,6.7-0.8
		c1.6-0.1,2.8-0.9,4.4-1.1c0.8-0.1,2.3,0.4,3.1,0c0.5-0.3,0.6-0.9,1-1.1c2-1,4.1-1.7,6.5-0.8c1.7,0.7,2.7,2.1,4.2,2.8v16.5
		c-11.6,0.1-23.3,0.2-34.9,0.2c-11.5,0-22.9-0.9-34.5-1.3c-13.9-0.4-27.4-3-41.2-4.8c-5.4-0.7-10.8-1.7-16.1-2.7
		c-2.6-0.5-6.4-0.7-8.6-2.2c-1-0.7-2.3-1.8-2.4-3C359.3,10.6,365.3,11.6,370.1,10.8"/>
	<path class="st1" d="M425.4,15.7c10.4,0,20.9-1.1,31.4-1.1c11.9,0,23.8-1,35.7-1.1v11.3c-4.2-0.3-8.7-1.4-12.7-1.4
		c-18.3-0.4-36.5-1.7-54.8-2.9c-20.6-1.3-40.7-1.8-60.7-7.2C384.7,11.6,405.2,15.7,425.4,15.7"/>
	<rect x="-0.5" y="24" class="st2" width="493.1" height="60.1"/>
	<path class="st3" d="M169.8,6.3c-2.9-0.2-6.1-0.4-8.9-0.4c-1.3,0-2.4,0.4-3.7,0.4c-0.8,0-1.6-0.3-2.4-0.2c-1.3,0.1-2.3,0.9-3.7,1
		c-2.6,0.2-5.3-0.9-7.9-0.8c-1.8,0.1-3.1,0-4.9-0.2c-1.8-0.2-3.7,0.3-5.5,0c-1.4-0.2-2.5-1.2-4-0.9c-1.3,0.2-2.3,1-3.6,1.1
		c-0.7,0.1-1.5-0.2-2.2-0.2c-1.1-0.1-2.2,0-3.2,0.2c-3.3,0.6-6.5-0.7-9.7,0.2c-1.6,0.5-2.7,0.2-4.2,0c-2-0.3-4,0.1-6.1-0.1
		c-1.6-0.1-3.2-0.6-4.9-0.7c-6.1-0.4-12.3-0.5-18.4-0.6c-3.7,0-7.3-0.5-11.1-0.3c-2.5,0.1-5.1,0.5-7.5,0.2c-3.9-0.5-8.1-0.4-12-0.4
		c-1.9,0-3.8,0.1-5.8,0.2c-1.7,0.1-2.6-0.1-4.1-0.4c-1.5-0.3-2.8,0.4-4.3,0.4c-0.6,0-1.2-0.4-1.8-0.6c-1.1-0.2-2.4-0.1-3.5-0.3
		c-1.7-0.2-3.2-0.3-4.9-0.6c-1.9-0.3-3.6,0.8-5.7,0.9C12.8,4.2,10,4,7.1,4C5.8,4,5,3.4,3.7,3.2C2.1,3,1,3.9-0.5,4.3v6.8
		c3.2,0.3,5.8,0.8,9,1.9c6.5,2.4,13.6,2.8,20.5,3.2c12.4,0.8,24.7,0.6,37,2.4c12.5,1.8,24.8,1.3,37.4,0.4c8-0.6,16-1.3,24-1.5
		c6.7-0.2,13.3-0.8,20-1.2c6.6-0.4,14.9,0.5,21-2.6C171.7,12.1,175.7,6.6,169.8,6.3"/>
	<path class="st4" d="M147.1,9.1c-5.5-0.1-11-0.8-16.5-0.8c-2,0-3.9,0.3-5.9,0.3c-1.7,0-3.5-0.2-5.2-0.2c-2.7,0-5.5,0.2-8.2,0.2
		c-2.2,0-4.3-0.2-6.5-0.4c-1-0.1-3.1,0-3.8-0.8l-1.7,1.4c0.8,1,1.4,2,2.7,2.6c1.4,0.7,2.9,1,4.4,1.3c1,0.2,1.9,0.6,2.9,0.8
		c1.3,0.2,2.8,0.1,4.2,0c2-0.1,3.9-0.1,5.9-0.1c5.5-0.1,11.1,0,16.6,0c1.9,0,3.7,0.1,5.6-0.2c1.6-0.3,3.5-0.5,5-1
		c0.8-0.3,2.6-1.2,2.7-2.1C149.3,9.1,147.8,9.2,147.1,9.1"/>
	<path class="st5" d="M237.5,7.5c-0.2-2.1-3.6-1-4.3-2.8c-0.5-1.2,0.4-2.8-0.6-3.9c-1.1-1.2-3.2-0.5-4.5-0.1c-1.4,0.4-2.4-0.3-3.6,0
		c-0.7,0.1-1.4,0.8-2,1.1c-2.1,1.2-1.8,1-2,3c-0.2,2-1.2,1.9-2.8,1.8c-1.4,0-1.5,0.5-2.7,1.2c-0.6,0.4-1.3,0.6-1.9-0.3
		c-0.4-0.7,0-1.5-0.2-2.2c-0.3-1-1.4-1.5-1.6-2.5c0-0.1,0-0.1,0-0.2c-1.5-0.6-3.5-0.6-5-0.2c-0.1,0-0.2,0.1-0.3,0.1
		c0,0.2-0.1,0.4-0.1,0.7c0,1,0.2,1-0.5,1.7c-0.8,0.8-2.2,1.6-2.9,2.2c-0.5,0.4-1.1,0.6-1.7,1c-0.7,0.5-0.8,1.1-1.2,1.6
		c-0.6,0.7-2.6,1.3-2.4-0.4c0.1-1.6,2.8-0.7,2-2.6c-0.7-1.8-2.5-1.5-3.9-1.1c-1.2,0.4-2.8,0.8-2.5,2.4c0.4,0.2,0.7,0.4,1.2,0.5
		c-0.1,0.9-3.6-0.1-4.3-0.5c-0.9-0.5-0.8-1.1-1.5-1.8c-0.7-0.7-1.4-0.4-2.2-1c-1.1-0.8-0.6-1.2-2.1-0.9c-1.4,0.4-1.2,0.6-2-0.6
		c-0.9-1.5-2.8-3-3.4-0.3c-0.7-0.5-1.2-1.3-1.7-2c-0.4-0.6,0.1-0.8-0.9-0.8c-0.5,0-0.6,0.1-1,0.5c-1.1,1.1-1.2,3.1-1.7,4.4
		c-1.4,0.1-5.1-0.1-4.9,2c-1.5,0.1-3,1.9-4.4,1.9c-1.8,0-3-2-5-1.7c-0.8,0.1-1.5,0.9-2.2,0.9c-0.8,0-1.7-0.6-2.5-0.6
		c-1.9-0.1-2.2,0.3-3.7,0.8c-1.8,0.6-3.1-0.1-4.9-0.2c-1.7-0.1-3.3,0.6-5,0c-1.5-0.5-2.7-1.5-4.3-1.1c-1.6,0.3-2.2,1.5-3.4,2.4
		c-1,0.8-2.2,0.6-3.4,0.6c-0.9,0-1.9,0.4-2.7,0.4c-1.9,0-3.2-2-4.8-2.8c-1.8-0.8-3.8,0.4-5.6,0.2c-1-0.1-3.1,0.6-4,0.2
		c-0.6-0.3-0.9-1.3-1.5-1.8c-1.2-1-3.4-1.7-5-1.1c-1,0.4-1.4,1.5-2.5,1.8c-1.1,0.3-2.8,0.2-3.9,0.1c-1.4-0.1-2.8-0.1-4.2,0
		c-0.7,0-1.5,0-2.2,0.2c-1.2,0.3-2,1.1-3.3,1.1c-1.9,0-3.8-1.4-5.6-0.8c-0.3,0.1-0.4,0.5-0.7,0.6c-0.4,0.2-0.9,0.2-1.4,0.3
		c-3,0.6-5.6,0.7-8.7,0.7c-1.2,0-2.5,0.2-3.7-0.1c-1.4-0.3-2.5-1.3-3.8-1.8c-2.8-1.2-5.3,0.1-8.1-0.3c-2.3-0.4-4.1-1.4-6.5-0.9
		c-2.9,0.6-6.7,3.4-9.8,1.9c-0.6-0.3-0.9-0.8-1.5-1.1c-1.5-0.7-3.5-0.6-5-0.2c-0.9,0.2-3,1-3.5,1.8c-0.9-0.8-3.5-1.9-4.7-1.2
		c-0.9,0.5,0,1.9-0.7,2.6c-0.8,0.8-1.8-0.2-2.7-0.3c-1.8-0.1-4.4,1.1-6.1,0.3c-0.7-0.3-1-1.3-1.9-1.7c-1.1-0.4-2.2,0.2-2.9,1.1
		c-0.5,0.7-0.5,1.5-1.4,1.8c-0.9,0.3-1.4-0.4-2.2-0.6c-0.9-0.2-3,0.4-3.5-0.8C5.1,9.3,6.9,8.1,5.1,7C4.4,6.6,2.6,6.4,1.9,7
		C1.3,7.5,1.6,7.8,1.4,8.4c-0.3,0.9-0.6,0.9-0.3,1.7c0.2,0.6,0.8,0.3,0.6,1.1c-0.8,0-1.6-0.2-2.2,0.1V17c0.7,0.1,1.4,0.1,1.8,0.2
		c3.7,0.5,7.5,1,11.3,1.2c9,0.5,18.2,0.6,27.2,0.1c5.8-0.3,11.7-0.9,17.5-1c4.8,0,9.7,0.1,14.5,0c11.2-0.1,22.4-0.4,33.5-0.7
		c9.8-0.3,19.6-1.1,29.4-1.8c6.7-0.4,13.6-0.6,20.2-1.3c4.9-0.5,10.1-0.1,15-0.1c5.1,0,10.2-0.1,15.3-0.1
		c10.1-0.1,20.2-0.2,30.3-0.2c3.9,0,7.9,0.2,11.9-0.1c1.5-0.1,2-0.2,2.9-1c1.1-0.8,1.8-1.1,3.2-1.2c0.9-0.1,1.3,0.2,1.7-0.8
		c0.6-1.3-0.2-0.9,1.1-1.5C237,8.4,237.5,8.4,237.5,7.5"/>
	<path class="st6" d="M492.6,21.1c-0.1-0.8-1.9-1.9-2.5-2.5c-0.4-0.4-1-0.5-1.5-0.9c-0.7-0.5-1-1.2-1.8-1.6c-1.7-1-4,0.3-5.6-0.6
		c-0.8-0.5-0.6-1.1-1.7-1.2c-2.2-0.3-1,0.9-1.7,1.9c-0.1,0.2-0.7,0.3-0.9,0.4c-0.5,0.3-0.9,0.8-1.3,1.1c-0.9,0.5-1.6,0.3-2.5,0.3
		c-1.7,0-3.4,0.2-5.1,0c-1.4-0.1-2.7-0.7-4.1-0.6c-1.6,0.1-3.2,0.7-4.9,0.7c-1.7,0-3.1-0.4-4.7-1c-2.6-1-4.9-0.9-7.7-0.7
		c-2.3,0.2-4.5,0.4-6.8,0.5c-1,0.1-2,0-2.9,0.2c-0.8,0.2-1.6,0.5-2.4,0.5c-1.9,0-2.9-1.2-4.5-1.7c-1.7-0.5-4.1-0.2-6-0.2
		c-3.3,0.1-6.5,0.4-9.8-0.3c-1-0.2-1.7-0.5-2.5-0.9c-0.4-0.2-0.7-0.6-1.2-0.8c-2.1-0.9-3.3,1.2-5.2,1.9c-0.5,0.2-0.2,0.5-0.7,0.5
		c-0.2,0-1-0.6-1.1-0.8c-0.3-0.4,0-1-0.2-1.4c-0.3-0.8-0.7-0.6-1.3-1.1c-0.5-0.4-0.2-1.2-0.6-1.5c-0.8-0.7-3.2,1.2-3.7,2
		c-0.6,0.9-0.5,1-1.7,1.3c-0.6,0.1-1.1,0-1.6,0.3c-0.4,0.1-0.6,0.5-1,0.6c-1.1,0.3-2.4-0.4-3.6-0.1c-1.6,0.3-3,1.7-3.2,3.3
		c-0.5,4.3,7.5,5.2,10.5,5.3c6,0.2,11.9,0.1,17.9,0.6c8.3,0.8,16.5,0.4,24.8,0.1c9.9-0.3,20-0.4,29.9,0.2c3.6,0.2,7.1,0.2,10.8-0.1
		c2.9-0.3,6.4,0.1,9.2-0.7C490.9,23.5,492.8,22.5,492.6,21.1"/>
	<path class="st7" d="M323.7,10.2c-2.8-1.4-5.5,1.2-8.4-0.4c-0.5-0.3-0.6-0.9-1.1-1.3c-0.6-0.4-1.3-0.3-2-0.3
		c-1.4,0-2.1-0.2-3.4-0.6c-0.6-0.2-2.1-0.3-1.4-1.5c-1.4-0.1-3.7,0.5-5,0c-0.3-0.1-0.9-0.9-1.2-1.1c-0.8-0.5-1.6-0.9-2.5-0.9
		c-1.1,0-2.4,0.2-3.4,0.8c-0.7,0.4-1.1,1.1-1.8,1.6c-0.5,0.4-0.3,0.4-0.9,0.3c-0.6-0.1-1-0.6-1.7-0.6c-1.3-0.2-2.8,0.2-4,0.4
		c0,0-1.1,0.2-1.2,0.2c-0.4-0.1-0.8-0.9-1.2-1.1c-2.1-1.2-4.5-0.2-6,1.3c-1.4,1.4-1.2,0.8-1.8-0.5c-0.9-1.8-4.8-2.2-6-0.4
		c-0.1,0.2-0.3,0.7-0.3,0.8c-0.5,0.6-1,0.7-1.9,1C268,8,267.4,7.9,267,8.5c-0.2,0.3,0.1,0.8,0,1.2c-0.7,2-3.4-1.3-3.4-2.6
		c0-1.3,0.6-1,1.4-1.9c0.6-0.8,0.1-2.3-0.9-2.9c-0.7-0.5-1.7-0.2-2.4-0.5c-0.6-0.2-0.3-0.3-0.8-0.6c-1.1-0.8-1.9-0.5-3.1-0.7
		c-0.3-0.1-0.5-0.3-1-0.4c-1.1-0.2-2.3,0.4-3.2,1c-0.7,0.5-0.8,0.9-1.2,1.5c-0.8,1.1-2.4,2-3.2,3.3c-0.5,0.8-0.3,1.7-0.4,2.6
		c-0.4,0.2-1.2,0.3-1.7,0.1c-0.5-0.2-0.7-0.9-1.1-1.2c-0.7-0.4-1.9,0.3-2.7-0.1c-0.8-0.4-0.8-1.3-1.3-1.8c-0.8-0.7-3.2-1.5-4.3-1.4
		c-1.5,0.1-2.4,1.2-3.8,1.4c-1.1,0.1-1.9,0.1-2.4,1.1c-0.4,0.7-0.1,1.2-1,1.6c-0.6,0.3-1,0.1-1.6,0.6c-0.8,0.7-1,1.8-1,2.8l1.5,1.6
		c1.5,0.4,2.5,1.3,3.8,2.2c2,1.5,3.7,1.8,6.2,2.2c6.7,1.1,13.7,0.9,20.4,0.6c9.6-0.3,19.5-0.4,29.1,0.6c12,1.3,23.9-0.4,35.7-1.9
		C328.5,16.3,325.9,11.3,323.7,10.2"/>
	<path class="st8" d="M76.5,7.1c0,0-37.4-0.4-48.3-0.5C18.4,6.5,2.7,6.6-0.5,6.6v7.2l73.7-2.4L76.5,7.1z"/>
	<path class="st9" d="M38.9,12.7c-0.4-0.8-2.3-0.6-3.2-0.8c-1.4-0.3-2.6-0.4-4-0.4c-1.2,0-2.1,0.8-3.2,0.6c-1.1-0.2-2.2-0.4-3.3-0.2
		c-2.8,0.5-5.7,0-8.5,0.2c-0.9,0.1-1.4-0.2-2.3-0.4c-0.7-0.1-1.3,0-1.9,0.2c-1.4,0.2-2.6-0.2-3.9-0.2c-0.7,0-1.4,0.1-2.1,0.3
		c-1.1,0.2-2.1-0.3-3.1-0.2c-0.7,0-1.1-0.1-1.9-0.2c-0.8-0.1-1.3,0.1-2,0.4v2.4c1.6,0.2,4-0.1,4.6-0.1c8.1-0.6,16.3,0,24.5-0.2
		c2.1-0.1,4.2-0.1,6.3-0.1c1,0,2.6,0.2,3.6-0.2C38.9,13.4,39.2,13.2,38.9,12.7"/>
	<path class="st10" d="M-0.5,12.7c0,0,76.2,0.5,92.6,0c16.5-0.5,127.8-2.2,149.3-0.5c21.5,1.7,53.3,3.4,53.3,3.4L42.6,27.8
		l-43.1,3.9V12.7z"/>
	<path class="st11" d="M158.5,15.9c-2.4-0.1-4.8,0.1-7.2,0c-0.1-1.2,0-1.4,1.1-2c1.4-0.7,1.5-0.5,1.7-2c0.1-0.7,0.3-1.6,0-2.4
		c-0.3-0.8-1.3-2-2.1-2.2c-0.9-0.3-2.9-0.1-3.8,0c-1.1,0.1-1.1,0.3-1.6,1c-0.2,0.3-0.4,0.5-0.6,0.8c-0.7,0.7-1.2,0.9-1.2,2
		c-0.1,2.1,2.3,0.8,2.5,2.2c0.1,0.6-0.7,0.6-0.5,1.1c0.1,0.3,1.2,0.7,1.4,0.8c-0.6,0.7-2.5,0.5-3.3,0.6c-1.1,0.2-1.9-0.3-2.9-0.4
		c-0.5,0-1,0.3-1.4,0.2c-1.4-0.3-0.1-1.4,0-2.2c0.1-0.7-0.2-1.2-0.3-1.8c-0.1-0.6,0.2-1.3,0-1.9c-1-2.8-4-1.4-6-1.4
		c-0.6,0-2.4-0.5-2.9-0.1c-0.4,0.4,0,1.5-0.1,2c-0.1,0.6-0.8,1.1-0.5,1.8c0.3,0.7,1.9,1.1,2.5,1.7c0.5,0.5,0.7,1,1.1,1.5
		c0.3,0.4,0.7,0.5,0.6,1.1c-3.1,0.2-6.1-0.3-9.2-0.1c-0.8,0.1-3.8,0.5-3.9-0.5c-0.1-0.5,0.6-0.8,0.8-1.1c0.3-0.6,0.5-1.4,0.2-2
		c-0.1-0.3-0.6-0.5-0.6-0.9c0-0.3,0.2-0.3,0.3-0.5c0.1-0.6,0.4-0.6-0.1-1.3c-0.8-1.1-2.2-0.7-3.4-1c-0.8-0.2-1.8-1-2.9-0.4
		c-0.6,0.3-1,1.1-1.5,1.6c-0.2,0.2-0.6,0.4-0.8,0.6c-0.6,0.6-1.2,1.3-0.5,2c0.3,0.3,3.5,1.4,1.3,2.1c0.4,0.4,1,0.8,1,1.3
		c-1.5,0.1-2.8-0.1-4.3,0.1c-1.5,0.3-2.6-0.3-4.1-0.4c-0.9-0.1-1.9,0.3-2.8,0.3l-0.8,0.9c0.1,0,0.2,0,0.3,0.1
		c-1.4,0.8,0.6,1.2,1.1,1.2c1.9,0,3.8,0,5.6,0c5.1,0,10.1,0.1,15.1,0.1c6.2,0,12.3-0.4,18.4-0.4c4.8,0,9.6-0.2,14.3-0.4
		C158.5,17.1,158.5,16.5,158.5,15.9"/>
	<path class="st7" d="M364.3,6.4c1.4-0.2,2.1,0.7,3.2,1.2c1.2,0.5,2.3,0.5,3.5,0.9c2,0.7,3.2,0.1,5.2,0.4c1.4,0.2,2.5,0.8,3.8,0.9
		c2.3,0.2,3.8-0.5,5.8,1.2c1.6,1.3,2.5,5,4.5,5.6c1.2,0.4,2.7-1,4-1c1,0,1.1,0.3,2,0.6c0.9,0.3,2.2,0.2,2.8,0.3
		c3.8,0.5,7.5,0.4,11.3-0.7c1-0.3,2-0.7,3.1-0.5c1.1,0.2,1.4,1,2.5,0c0.8-0.7,0.6-2,1.1-2.9c1.1-2.1,3.3-0.8,5.1-1.7
		c0.7-0.4,1.1-1.4,1.7-1.9c1.7-1.7,4.5-0.7,6.4,0.5c0.3,0.2,0.2,0.7,0.4,0.9c0.5,0.3,1.2,0.1,1.7,0.4c0.6,0.4,1.9,2.2,1.2,2.7
		c-1,0.8-4.9-1.9-4.4,1.1c1.5,0.1,3.3-0.1,3.8,1.9c0.3,1-0.8,1.2-0.4,2.4c1.6,0.5,2.9,0.5,3.7-0.7c0.6-1,1-2,2.2-2.5
		c1.2-0.6,2.9-0.3,4,0.4c0.7,0.5,1.1,1.9,2,1.7c0-0.4,0.3-0.9,0.3-1.3c0.9-0.1,2.8,0.4,3.5-0.2c0.7-0.6,0.2-1.8,1.3-2.3
		c0.8-0.3,2.4,0.1,3.1,0.4c1,0.4,1.1,1.2,1.7,1.7c1.3,0.9,2.7,0.3,4.1-0.5c0.4-0.3,0.4-0.5,1.1-0.8c0.7-0.2,1.7,0,2.4,0
		c0-0.2,0-0.5,0-0.7c-0.7-0.2-2-0.2-1.8-1.2c0.2-1.1,2.6-0.7,3.5-0.8c0.2-0.6,0-1-0.5-1.2c-0.1-0.3,0-0.6,0-0.8
		c1.6,0,3.7-0.4,5.2,0.2c1.7,0.7,1.2,2.3-0.1,3.2c2-0.1,4.7,0,4.2,2.8c-1.3,0.5-3.5-0.5-3.4,1.5c0,0.6,1,1,1,1.7c0,1-0.8,1-1.5,1.5
		c-0.9,0.6-0.7,0.9-1.1,1.7c-0.9,1.5-1.8,1.7-3.7,1.9c-3.6,0.4-7.2-0.6-10.7-0.8c-5.3-0.3-10.5-0.6-15.8-0.8
		c-10.7-0.5-21.4-2.1-32.1-1.4c-13.7,0.9-27.4,0.4-41.1,1c-3.6,0.2-9.5,1.2-12.8-0.8c-2.7-1.6-2.9-6.9-2.3-9.6
		c0.5-2.6,2.3-6.3,5.5-6c1.9,0.2,2.9,2.1,4.7,2.2C361.4,8.6,362.4,6.7,364.3,6.4"/>
	<path class="st12" d="M91.7,27.7c0-1.1,10.4-10.2,10.4-10.2s66.7-0.4,87.5-1.3c20.9-0.9,132.2-1.3,141.2-0.9
		c8.9,0.4,17-1.2,29.9,2.3c12.9,3.5,22.5,8.6,22.5,8.6s-66,2.3-93.5,2.3c-27.5,0-156.7,6.8-174.6,5.3C97.3,32.4,91.7,27.7,91.7,27.7
		"/>
	<path class="st13" d="M212.8,20.3c-0.5-0.1-1.2,0.1-1.7,0.1c-1.8,0.1-3.7,0.2-5.5,0.3c-3.5,0.2-7.2-0.2-10.6,0.4
		c-2.5,0.5-4.9,0.1-7.4,0.3c-2.3,0.1-4.5,0.6-6.8,0.5c-1.4-0.1-2.8-0.1-4.3-0.1c-1.6,0-3.1,0.2-4.7,0.5c-4.2,0.7-8.4,1.2-12.7,1.4
		c-2.3,0.1-4.6,0.1-6.9-0.1c-1.1-0.1-2.2,0.3-3.3,0.4c-1.7,0.1-3.2,0.2-4.9,0.4c-1.8,0.2-3.5-0.5-5.3-0.2c-1.3,0.2-2.1,0.1-3.4,0
		c-1.7-0.2-3.2,0.8-4.9,0.7c-1.3-0.1-2.5-0.3-3.8-0.2c-1.8,0.1-3.4,0.5-5.2,0.5c-0.9,0-1.6,0.1-2.5,0.3c-0.7,0.1-1.6,0.2-2.4,0.1
		c-1-0.2-1.9-0.8-3-0.6c-1,0.1-1.6,0.5-2.6,0.4c-1.6-0.2-3,0.4-4.6,0.3c-2.9-0.2-5.9-0.9-8.4,1c-0.8,0.6-1.6,1.8-0.6,2.5
		c0.6,0.5,1.9,0.2,2.6,0.2c2.4,0,4.8,0,7.2,0c3.5,0,6.9-0.1,10.4-0.1c3.7,0,7.4-0.5,11.1-0.6c9-0.3,18-0.8,27.1-1.2
		c7.9-0.3,15.7-0.5,23.5-1.9c6.3-1.1,12.6-1.2,19-1.5c5.2-0.2,10.4-0.9,15.5-1.6C213.6,21.1,213.8,20.6,212.8,20.3"/>
	<rect x="22.2" y="16.7" class="st14" width="0.4" height="2.1"/>
	<path class="st15" d="M12.3,16.3c0-0.3,0.1-0.6,0.2-0.9c0.1-0.6,0.4-1,0.7-1.6c0.3-0.6,0.1-1.3,0.4-1.8c0.3-0.5,0.9-0.9,1.4-1.2
		c0.3-0.2,0.5-0.1,0.7-0.2c0.6-0.3,0.7-1.4,1.2-1.9c1.2-1.4,2.7-0.9,4.3-0.9c0.9,0,1.5-0.8,2.5-0.6c1.1,0.2,1.6,1,2.1,1.8
		c0.5,0.8,1.7,1,2,1.8c0.2,0.7-0.1,1.4,0.2,2c0.3,0.6,1.5,1.5,2.1,1.6c0.7,0.1,0.3-0.2,0.3-0.8c0.1-1.3,2-2,3.1-1.9
		c0.6,0.1,1.2,0.8,1.7,0.3c0.3-0.4,0.3-0.8,0.8-1c0.3-0.1,0.7-0.1,1-0.3c0.2-0.1,0.3-0.4,0.4-0.6c0.4-0.4,1-0.7,1.6-0.8
		c0.3-0.1,0.8,0.1,1,0c0.3-0.1,0.3-0.2,0.5-0.6c0.7-1.2,2.3-2.2,3.6-2.3C45.1,6.1,46.4,7,47,7.6c0.5,0.5,0.3,1.1,0.6,1.7
		c0.2,0.5,1.3,0.6,1.9,0.6c0.4,0,0.6,0.1,0.9-0.2c0.1-0.1,0.1-0.5,0.2-0.6c0.2-0.3,0.4-0.5,0.6-0.6c0.4-0.3,1-0.4,1.5-0.4
		c0.7,0,1.4,0.6,2.1,0.8c0.8,0.3,1.6,0.6,2.5,0.4c0.4-0.1,0.7-0.3,1-0.3c0.6,0,0.9,0.2,1.4-0.2c0.9-0.6,0.6-1.9,1.3-2.7
		c1.1-1.4,3.6-1.5,5.3-1.6c1,0,2.1,0,2.9,0.5c0.4,0.2,0.3,0.4,0.5,0.7c0.3,0.3,0.6,0.5,1,0.7c1,0.7,1,2.5,0.7,3.6
		c-0.3,0.8-1.3,1.4-1.9,2c-0.6,0.6-0.8,1.6-1.1,2.4c-0.4,0.8-0.9,0.7-1.7,1c-0.5,0.1-1.2,0.3-1.6,0.6c-0.3,0.2-0.3,0.5-0.7,0.7
		c-1.3,0.6-3.3,0.4-4.7,0.3c-1.3-0.1-2.5,0.1-3.8,0.1c-1.7,0.1-3.4,0.2-5.2,0.2c-3.5,0.1-7,0-10.4,0.1c-3.2,0.1-6.3,0.4-9.5,0.4
		c-0.9,0-1.9,0.2-2.7-0.1c-0.6-0.2-1.1-0.5-1.7-0.7c-0.9-0.2-1.7,0-2.5,0c-0.5,0-0.9-0.1-1.4-0.1c-0.5,0.1-1,0.3-1.5,0.4
		c-1.3,0.4-2.4,1.5-3.8,1.6c-0.6,0.1-1.3-0.2-1.8-0.4c-0.8-0.2-1-0.8-1.6-1.2C13.2,17.4,12.4,17,12.3,16.3"/>
	<path class="st14" d="M75.1,16.5c-2.7-0.6-5.6-0.3-8.4-0.3c-5.8,0-11.6,0.4-17.3,0.4c-5.8,0-12.6-0.8-18.1,0.6
		c-3.4,0.9-7.1,0.9-10.7,0.9c-3.6,0-6.8,0.7-10.4,0.9c-1.7,0.1-3.7-0.3-5.3,0.2c-0.9,0.3-1.6,1.1-2.6,1.3c-0.6,0.1-1.6,0-2.8,0v5.1
		c1.6-0.1,3.2-0.5,4.3-0.7c9.7-1.7,19.6-3.2,29.5-3.7c8.5-0.4,16.9-1.2,25.5-1.2c3.1,0,6.2,0.4,9.3,0.2c1.5-0.1,5,0.2,6.3-0.6
		C75.4,19.2,75.2,17.8,75.1,16.5"/>
	<path class="st16" d="M303.7,20.8c-20.3-0.9-68.3-0.9-87.3,0.6c-6.6,0.5-16.2,1.1-26.6,1.7l-49,33.4l309.6-5.7l-73-25.6
		C349.3,24.6,323.7,21.7,303.7,20.8"/>
	<path class="st17" d="M484,23c0,0-47.5-1.9-70.2-3.7c-22.7-1.9-53-1.7-53-1.7c13.6,3.3,17.7,7.6,17.7,7.6c-0.4,0-0.8,0-1.2,0
		l73,25.6l35.7-0.7L484,23z"/>
	<path class="st18" d="M84.1,18.5c0,0-17.5-0.6-35-0.2c-16.3,0.3-45.5,3.7-49.6,4.2v8.1l81-3.7L84.1,18.5z"/>
	<path class="st19" d="M137.1,26C120.4,26.9,80,28.2,80,28.2l0.5-1.2l-33.7,0.9l-5.3-0.2L7.8,30.5l-8.3-1.3v28.6l51.1,0.4l90.2-1.7
		l49-33.4C170.3,24.2,148,25.4,137.1,26"/>
	<path class="st13" d="M67.9,26.3l-0.7-0.4c-1.6,0.7-4.1,0.2-5.9,0.3c-1.8,0.1-3.5,0.3-5.2,0.5c-3,0.3-6-0.5-9-0.4
		c-6.5,0.4-13.4,0.4-19.9,1.5c-1,0.2-5.1,0.5-3.5,2c1.1,1,5.3,0.4,6.9,0.1c1.2-0.2,2.1-0.5,3.3-0.6c1.7-0.1,3.5-0.3,5-0.7
		c2.9-0.7,6.4-0.3,9.4-0.3c6.7,0,13.5,0.4,20.2,0C68.5,27.6,68.5,26.7,67.9,26.3"/>
	<path class="st13" d="M79.9,28.6c1.5,0.2,2.9-0.1,4.3-0.1c1.6,0,3.3,0.4,4.9,0.2c1.7-0.2,3.2-0.2,4.9-0.2c1.6,0,3.1-0.2,4.7-0.4
		c0.7-0.1,2.1,0.2,2.5-0.5c0.2-0.3,0.2-0.7,0.2-1.1c0.1-0.4,0.1-0.9,0.2-1.2c0.1-0.3,0-0.3,0.5-0.5c0.4-0.2,1.8-0.3,2.1-0.7
		c0.4-0.6-0.3-1.5-0.3-2.1c0.1-1,1.1-0.3,1.5-0.8c0.3-0.3,0.2-1.3,0.1-1.6c-0.3-1-0.7-1.5-0.1-2.5c0.4-0.6,1-1.1,1.3-1.7
		c0.2-0.6,0-0.9-0.3-1.5c-0.4-0.9-0.1-0.9,0.5-1.5c0.7-0.6,0.6-1.6,0.3-2.3c-0.4-0.9-0.6-1.6-1.6-2c-0.8-0.3-1.8-0.2-2.4-0.8
		c-0.4-0.4-0.4-0.9-0.6-1.3c-0.4-0.6-1.1-0.9-1.7-1.1c-0.5-0.1-1.2,0-1.6-0.2c-0.4-0.2-0.6-0.6-0.8-0.9c-0.2-0.4-0.5-0.9-0.3-1.3
		c0.1-0.3,0.6-0.4,0.7-0.7c0.3-0.7-1.4-1.1-1.9-1.3c-0.9-0.4-2-0.2-2.9-0.2c-1.9,0-4,0.3-5.5,1.6c-0.6,0.5-0.8,0.9-0.9,1.6
		c-0.1,0.3-0.1,0.5-0.3,0.6c-0.8,0.6-1.3-0.8-1.8-1.3c-1.2-1.1-3.8-0.9-4.9,0.4c-0.4,0.4-0.4,0.9-0.7,1.4c-0.4,0.7-1.2,0.9-2,1
		c-1.4,0.1-4-0.5-5,0.7c-0.3,0.4-0.3,0.7-0.5,1.1c0,0,0,0.2,0,0.2c-0.1,0.2-0.6,0.4-0.8,0.5c-1.5,0.7-3.1,0.4-4.6,0.8
		c-1,0.3-2.2,1.3-2.6,2.3c-0.2,0.8,0.4,1.2,0.3,2c-0.1,0.7-0.8,1.2-1.1,1.9c-0.3,0.6,0,1,0,1.6c0,0.9-0.8,1.5-0.3,2.3
		c0.3,0.6,1,1.4,1.7,1.5c0.7,0.2,2,0.8,1.9,1.6c-0.1,0.5-0.4,0.9-0.4,1.4c0,0.6,0.5,0.9,0.6,1.3c0.2,0.7-0.7,0.8-1.1,1.2
		c-0.8,0.9-0.4,1.8,0.4,2.5c0.3,0.3,0.5,0.6,1,0.6c0.5,0,1.1-0.1,1.6-0.1c1.2,0,2.4-0.1,3.6-0.1C75,28.3,77.5,28.3,79.9,28.6"/>
	<path class="st13" d="M354.8,18.3c-0.2-1.3-1.2-2-1.3-3.4c-0.1-1,0.2-1.9,0.2-2.9c-1.3-0.7-2.4-0.9-2.8-2.1c-0.3-1,0.2-2.2-0.2-3.2
		c-1.6-4.2-5.5-2-8.6-2.3c-0.2-0.9-0.6-0.4-1.2-0.6c-0.1,0-0.6,0.3-0.9,0.3c-0.1,0-0.3-0.5-0.4-0.6c-1.9-0.7-3-2-5.2-1.9
		c-1.4,0.1-2.6,0.6-3.8,1.3c-1.3,0.8-3,1.8-3.6,3.4c-0.4,1.3-0.3,2.9-2.4,2.8c-0.1,1.5,0.9,4.1-0.6,4.9c-0.6,0.3-1.7-0.1-2.3,0.2
		c-0.7,0.3-1,1.2-1.5,1.4c-1.9,1-4.5-0.2-3.5,3l1.9,3.6c0.6,0.6,1.2,1.3,2.1,1.6c1.1,0.4,2.4,0.3,3.5,0.6c1.4,0.5,2.1,0.8,3.7,0.9
		c2.9,0.2,6.9,0.6,9.7-0.5c1.2-0.4,2.1-1.3,3.4-1.6c3.3-0.6,6.5,1.6,9.6,1c2-0.4,1.7-1.3,2.6-2.9C353.9,20.2,355,19.9,354.8,18.3"/>
	<path class="st20" d="M193.8,16.8c-0.7-0.3-2.4,0.2-2.5-0.8c-0.1-0.6,0.4-0.9,0.8-0.9c0.8-0.1,2.9,2.1,2.5-0.1
		c-0.2-1.5-2-1.9-2.4-3.1c-0.3-0.7-0.1-1.3-0.7-2c-0.6-0.8-1.4-1.6-2.4-1.5c-1.3,0.2-1.4,1.4-2.5,0.7c-0.6-0.4-0.8-1.2-1.6-1.4
		c-1.3-0.4-2.9,0.2-4.1,0.8c-0.3,0.1-1.1,0.8-1.4,0.8c-0.3,0-0.9-0.3-1.2-0.4c-1.8-0.2-3.6,1.6-3.5,3.4c-1.5,0.2-2.2-0.7-3.3-1.4
		c-1.9-1-3.9-2.8-6.3-1.7c-0.7,0.3-1.1,0.9-1.5,1.5c-0.1,0.2-0.4,1-0.5,1.1c-0.5,0.4-1.1,0.2-1.9,0.2c-2,0.1-2.7,1-2.8,3
		c-0.3,0.1-0.9,1.3-1,1.6c-0.1,0.6,0.2,0.6,0.3,1.2c0.4,1.3,0.2,1.3,1.6,1.8c0,0.1,0,0.2,0,0.3c1.5,0.4,1.6,1,1,2.1
		c-0.4,0.8-1,1.5-0.9,2.5c0.2,0.9,1.3,1.4,1.6,2.1c0.5,0.2,1,0.5,1.5,0.6c1.6,0.3,3.2-0.4,4.8-0.1c1.6,0.3,2.7,1.5,4.3,1.6
		c1,0.1,2.2-0.2,3.2,0c0.6,0.1,0.7,0.2,1.1,0.6c0.1,0.2,0.2,0.7,0.3,0.8c0.5,0.3,2,0,2.3-0.5c0.2-0.3,0-0.5,0.2-0.7
		c0.1-0.2,0.3-0.5,0.3-0.6c0.2-0.6,0.2-1.2,0.2-1.9c0-2.5,2.4-0.7,4-1.5c0.9-0.4,1-1.1,2.1-1c1.1,0.1,1.2,0.2,2.3-0.2
		c0.6-0.2,1.3-0.3,0.9-1.1c-0.5-1.1-1.7-0.4-1.6-2.1c0.1-1.9,1.5-2.1,3-1.7c1.1,0.3,2,0.8,2.9,1.5c0.4,0.3,0.7,0.8,1.3,0.8
		C194.5,19.9,195.5,17.6,193.8,16.8"/>
	<path class="st20" d="M161.4,27c0-0.1,0-0.2,0-0.3c-0.3-0.1-0.5-0.2-0.8-0.2L161.4,27z"/>
	<path class="st13" d="M190.8,22.4c-0.7-1-1.7,0.1-2.3,0.6c-0.9,0.7-2.1,1.1-3,2c-1.1,1.1-2.9,1.9-4.2,2.8c-0.8,0.6-1.9,0.9-2.7,1.5
		c-0.8,0.5-1.4,1.2-2.1,1.7c-1.1,0.7-3.2,0.6-3.7,1.9l-0.2,0.4c0,0.9,0.9,1.4,1.8,1.2c0.4-0.1,0.9-0.5,1.3-0.7
		c0.9-0.4,1.8-0.7,2.7-1.1c1.5-0.7,2.9-1.5,4.1-2.5c0.9-0.7,1.4-1.7,2.4-2.4c1-0.7,1.9-0.9,2.8-1.7c0.6-0.5,1.1-1.1,1.6-1.5
		C189.9,24.1,191.7,23.8,190.8,22.4"/>
	<path class="st20" d="M267.8,19.4c-0.3-1.6-2-1.4-3.2-2c-0.8-0.4-1.2-1.2-2.1-1.8c-1.5-1-5.8-1.9-6.9,0.2c-0.1,0.2,0.1,0.6-0.2,0.8
		c-0.4,0.3-1.3-0.2-1.8-0.3c-0.9-0.2-1.3-0.1-2.2,0.5c-0.5,0.3-1.2,1.1-1.7,1.2c-0.6,0.1-2.2-1.1-2.7-1.4c-1-0.6-0.9-1.4-1.7-2.2
		c-1.8-1.8-4.3-2.5-6.4-0.9c-0.8,0.6-1.5,1.1-2.3,0.4c-0.5-0.4-0.5-1.2-1.1-1.5c-0.5-0.3-1.5-0.1-2.1-0.1c-1.2,0-1-0.2-1.8-1.1
		c-1.3-1.3-2.8-1.8-4.4-0.9c-0.6,0.3-0.6,0.4-1.2,0.4c-0.9,0-1.8-0.2-2.7-0.1c-1.1,0.2-2,0.9-2.9,1.5c-0.7,0.4-1.4,0.4-2.2,0.8
		c-2,1.1-1,2.7-1.4,4.5c-1.5,0-2.8,0.2-3.9,1.3c-0.7,0.7-0.4,1.3-0.7,2c-0.3,0.6-0.8,0.5-0.9,1.4c-0.2,2,1.2,3.2,2.6,4.3l-4.2,2.6
		c1.3,0.9,2.8,1.7,4.2,2.2c3.6,1.3,7.9,0.3,11.6,0.6c2.9,0.2,5.6,1.7,8.5,2.1c3.9,0.5,8.4,0.4,12.1-0.8c2.5-0.8,5.2-1.9,7.5-3.3
		c1.7-1,3.3-2.2,5.3-2.5c3.3-0.5,6.8,0.8,9.2-2.2C269.3,24.1,270.8,20.1,267.8,19.4"/>
	<path class="st13" d="M393.2,29.7c-0.3-0.7-0.7-0.6-1.4-1c-0.8-0.5-1.3-1.2-2.3-1.5c-0.4-0.1-0.8-0.1-1.1-0.3
		c-0.6-0.3-0.9-0.7-1.5-0.9c-0.4-0.1-0.8,0-1.2-0.2c-0.3-0.2-0.3-0.6-0.6-0.8c-0.8-0.4-2-0.1-2.8-0.2c-0.1-0.9-0.1-1.8,0-2.7
		c0.1-2.5,2.4-3.5,0.8-5.9c-0.7-1-1.8-2.7-3-2.8c-1.7-0.1-1.2,1.6-2.5,2c-0.6-1.2-2.1-3.1-3.5-3.3c-1.4-0.2-2.4,1.5-3.8,1.4
		c-0.1-1.2-1.1-1.3-1.9-1.9c-0.7-0.6-1-1.3-1.9-1.7c-1.6-0.6-4.3-0.5-5.9,0.2c-0.8,0.4-1.2,1-2,1.2c-0.8,0.2-2-0.4-2.8,0.2
		c-0.6,0.5-0.2,0.9-0.4,1.6c-0.3,1.9-3.3,1.8-4.7,2.7c0.9,1.6,2.4,1.7,4.1,1.8c1.4,0.1,2.7,0.1,4.1,0.3c1.8,0.3,3.2,1.3,4.9,1.7
		c1,0.2,2.2-0.1,3.2,0.1c1.4,0.3,2.2,1.2,3.4,1.8c0.7,0.3,6.1,1,5.5,2.1c-0.4,0.8-3.5,0.2-4.3,0.1c-1.4-0.1-2.8,0.3-4.3,0
		c-1.3-0.3-1.9-0.6-3.3-0.4c-1.2,0.2-2.1,0.3-3.3,0c-1.1-0.2-2.1-0.7-3.3-0.8c-1.1-0.1-3.6,0.1-4.3,0.9l-0.9,1.2
		c0.6,1.9,2.9,0.9,4.6,0.8c4.4-0.2,8.7,0.7,13,1.1c2.6,0.2,5.3,0.2,8,0.2c0.9,0,1.7-0.1,2.5,0.2c1.5,0.4,3,1.3,4.4,1.8
		c0.9,0.3,1.9,0.3,2.8,0.6c0.9,0.3,1.9,0.5,2.8,0.8c0.5,0.2,2,1.3,2.5,1.1C393.2,31.1,393.4,30.3,393.2,29.7"/>
	<path class="st21" d="M141.9,37.4c0-0.2-0.4-0.4-0.5-0.8c0-0.4,0.3-1.1,0.3-1.5c0.2-1.8-1.3-4.5-2.7-5.6c-0.9-0.8-1.3-1.8-2.2-2.5
		c-0.8-0.6-2.5-1.4-3.5-1.3c-0.3,0-0.5,0-0.8,0c-0.3,0-0.1,0.6-0.4,0.6c-0.8,0-1.3-1-2-1.4c-0.9-0.5-1.9-0.8-2.9-0.8
		c-1.6-0.1-2.8-0.1-3,1.4c-0.1,1,0.3,1.8-0.5,2.4c-0.4,0.3-2.2,0.1-2.7,0.2c-1,0.1-1.3,0-2,0.8c-0.5,0.5-0.5,1-1.2,1.3
		c-0.5,0.2-1.7,0-2-0.5c-0.2-0.5,0.4-1.1,0.4-1.5c0.2-1.1-0.2-2.1-1.2-2.5c-1.5-0.7-3.3,0.2-4.6,0.1c-1.8-0.2-5.9-1.7-7.5,0.2
		c-1,1.3,0.5,2.7,0.6,4.1c0.2,2.7-1.1,2.4-3.1,3.3c-1.9,0.9-1.1,1.8-1.5,3.3c-0.2,0.7-0.9,1.4-1.9,1.3c-1.3-0.1-2.8-1.4-4.1-1.9
		c-0.6-0.2-1.3-0.4-1.9-0.3c-0.8,0.1-1.5,0.9-2.2,0.6c-0.1-1.9,0.4-4.1-1.6-5.3c-1.1-0.7-3-0.5-3.7,0.8c-0.9-1.5-3.5-1.8-5-1.4
		c-1.9,0.6-2.6,2.1-2.6,3.9c-0.6,0.1-1.1,0.7-1.5,0.8c-0.5,0.1-1.1-0.3-1.8-0.3c-2.1-0.2-2.7,1.4-4.1,2.6c-0.4,0.3-0.8,0.2-1.2,0.8
		c-0.4,0.6-0.1,2.5,0.3,3c0.7,1,2.6,1.1,3.7,1.2c4.6,0.6,9.4,0.1,14.1,0.5c7.4,0.6,15,0.4,22.5,0.3c7.8-0.1,15.5,0.7,23.3,1.4
		c3.4,0.3,6.8-0.2,10.1,0l-1.3-3.5C141.6,40.1,142.2,39,141.9,37.4"/>
	<path class="st22" d="M202.3,44.3c-0.1-1.5-0.6-4.3-1.5-5.6l-3.7-3.6c-0.3-0.8-2.1-1.2-2.8-1.4c-1.5-0.3-3.6-0.5-5,0.2
		c-0.5,0.2-0.8,0.5-1.2,0.9c-0.2,0.2,0,0.4-0.2,0.5c-0.5,0.3-1.6-0.1-1.8,0.8c-0.7-0.1-1.4-0.6-2.2-0.7c-1.4-0.2-2.3,0.1-3.4,0.8
		c-1.2,0.7-2.1,0.9-3.5,0.8c0-0.7-0.1-1.8-0.6-2.3c-0.5-0.6-1.2-0.4-1.9-0.6c0-0.4,0.1-0.7,0.1-1.1c0-0.6-0.4-1.1-0.4-1.7
		c0-0.4,0.1-0.9,0.1-1.4c-0.1-1.3-1.2-2.5-2.3-3.1c-0.4-0.2-0.8-0.3-1.1-0.5c-0.6-0.4-0.9-1-1.5-1.3c-1.3-0.5-3.8-0.4-5,0.5
		c-0.3,0.2-0.6,0.9-0.9,1c-0.6,0.2-1.1-0.5-1.7-0.7c-0.8-0.3-1.9-0.5-2.7-0.2c-1,0.3-1.5,1.3-2.2,1.8c-0.5,0.3-1.3,0.4-1.8,0.8
		c-0.9,0.7-0.9,1.4-0.8,2.5c0.1,0.8,0.1,1.8-0.2,2.6c-0.4,1.1-1.4,0.9-2.5,0.9c-0.7,0-1.4-0.1-2.1,0.2c-0.6,0.3-0.7,0.8-1,1.4
		c-0.4,0.7-0.6,0.6-1.4,0.6c-2.1,0.2-3.1,1.6-3,3.6c0.1,1-0.4,1.7-0.3,2.7c0.3,2.9,4.8,2,6.7,2.2c5,0.6,10,1.4,15,2.2
		c3.6,0.6,7.3,0.4,11,0.7c5,0.5,9.9,0.5,14.8,0.7c2.6,0.1,5.5,0.2,8.1-0.1c0.8-0.1,2-0.4,2.6-1C202.5,46.7,202.4,45.2,202.3,44.3"/>
	<path class="st22" d="M68.5,37.6c-0.5-0.8-1.3-1.5-1.9-2.3c-1.4-1.8-3-2-5-2.2c-1.4-0.2-4.3-0.3-5.5,0.5c-1.1,0.8-0.8,2.1-2.1,2.4
		c-0.6,0.1-1.3-0.3-1.9,0c-0.4,0.2-0.4,0.6-0.7,0.9c-0.8,0.6-1.9,0.8-2.9,0.8c-1.6,0-2.8-1.3-4.4-1.3c-1,0-1.8,0.2-2.8,0
		c-1-0.2-1.8-0.9-2.9-0.8c-1.3,0.1-1.9,1-2.9,1.6c-2,1.1-4.2-0.3-4.8-2.4c-0.3-1.2,0.1-2.7-0.4-3.9c-0.8-1.7-2.8-1-4-2.1
		c-0.9-0.9-1.3-2.1-2.4-2.9c-1-0.7-2.2-1.5-3.4-1.7c-2-0.3-4.2,0.2-5.5,1.8c-0.7,0.8-0.7,1.2-2,1.7c-0.7,0.2-1.3,0.3-1.8,0.6
		c-0.7,0.4-0.8,0.6-1.7,0.7C8.6,29,7.6,29.4,7,29.1c-1-0.4-1.7-1.5-3-1.9c-1.3-0.4-3-0.6-4.5-0.2v15.9c0.7,0,1.1-0.1,1.5-0.1
		c4.3,0,8.6,0.4,12.9,0.4c5.2,0,10.5,0.3,15.7,0.3c2.9,0,5.8-0.3,8.7-0.4c3.4-0.2,6.8-0.1,10.2-0.6c6.8-0.9,13.8,0.1,20.5-1.3
		C69,40,69.2,38.6,68.5,37.6"/>
	<path class="st23" d="M267.7,30.3c-0.6-1-0.9-2.2-1.3-3.3c-0.4-1.1-1.3-2.4-1.4-3.2l-0.8-0.6c-0.8-0.9-1.3-2-2.6-2.5
		c-0.5-0.2-0.6-0.2-1.1-0.1c-0.4,0.1-0.8,0.2-1.2,0.3c-0.3,0.1-0.7,0.4-1,0.5c-0.3,0.1-0.3-0.1-0.6-0.1c-1,0-1.7,0-2.4,0.8
		c-0.5,0.6-0.8,1.7-1.5,2.2c-0.6-0.4-0.9-0.9-1.3-1.5c-0.5-0.8-1.1-1-1.9-1.4c-2.4-1.2-5.6-2-8-0.2c-0.4,0.3-0.7,0.7-0.9,1.1
		c-0.1,0.3,0,1.1-0.1,1.3c-0.4,0.6-1.7,0.5-2.3,1c-0.5,0.4-0.9,0.9-1,1.5c-0.1,0.5,0,1.1-0.1,1.5c-0.1,0.4-0.6,0.7-0.8,1.1
		c-1.2,0.1-2.7-0.5-3.7-1.1c-0.7-0.4-1-0.6-1.3,0.2c-0.3,0-0.3-0.2-0.6-0.4c-0.6-0.3-1.2-0.6-1.9-0.8c-1.5-0.4-3.1-0.2-4.4,0.7
		c-0.5,0.3-0.6,0.7-1.2,0.7c-0.8,0-1.7-0.8-2.3-1.3c-1.8-1.4-3.8-2-6.1-2c-2.2,0-3.7,0.4-5.4,1.6c-0.6-0.9-1-1.9-1.9-2.6
		c-1.3-0.9-2.8-2.4-4.5-2.2c-1.9,0.3-3.4,1.1-4.8,2.4c-0.6,0.5-1.2,0.8-1.5,1.5c-0.3,0.5-0.2,1.1-0.4,1.7c-0.2,0.7-0.6,1.4-1,2
		c-0.6,1-0.7,2.1-0.6,3.2c0.1,0.8,0.3,1.4,0.1,2.1c-0.2,0.8-0.7,1.4-0.9,2.1c-0.2,0.6-0.4,1.7-0.2,2.4c0.2,0.7,0.8,1.1,1,1.8
		c0.1,0.4,0,0.8,0,1.2c0,0.7,0.1,1.2,0.5,1.8c0.3,0.4,0.6,0.9,0.8,1.4c1,1.9,3.8,1.5,5.6,1.8c4.6,0.6,8.8,2.4,13.4,2.7
		c2.9,0.2,5.8,0.3,8.7,0.2c2.6-0.1,5.2-0.7,7.8-0.7c2.3,0,4.6,0,6.9,0c2.1,0,4.2-0.2,6.3-0.4c4.2-0.3,8.3-1.3,12.5-1.7
		c1.1-0.1,2-0.1,2.9-0.6c1.3-0.6,2.9-1.4,3.9-2.4c0.8-0.9,1.2-2.3,1.6-3.3c0.6-1.3,0.8-2.8,1.4-4.1c0.6-1.1,0.9-1.9,0.8-3.2
		C268.9,32.3,268.4,31.5,267.7,30.3"/>
	<path class="st24" d="M330.3,30.3c-1-2.3-1.7-4.8-2.6-7.2c-0.6-1.6-1.5-3.5-3.3-4c-2.3-0.6-4.8,1.4-7,1.7c-0.9-2.3-1.5-4-3.7-5.5
		c-1.4-0.9-4.2-2.1-5.9-1.1c0.2-3-5.5-3.1-7.3-3c-1.4,0-3.1,0-4.2,1c-0.8,0.8-0.8,1.7-1.2,2.6c-0.7,1.7-1.2,1.1-3,0.7
		c-3-0.7-6.5-0.3-6.9,3.4c0,0.4,0.4,2,0.2,2.3c-0.6,0.8-2.9,0.5-3.8,0.4c-2.1-0.2-3.3-2.6-5.7-2.9c-2.5-0.4-4.4,0.2-5.6,2.4
		c-1.1,2-3.5,1.7-5.5,1.4c-2.4-0.3-3.5,0.2-4.6,2.5c-0.7,1.4-0.8,1.2-2.4,1.9c-1.8,0.8-2.9,2.5-3,4.5c-0.1,1.5,0.2,1.5-1,2.5
		c-2.3,1.8-2.4,4.8-1.2,7.3c0.6,1.2,1.5,2.8,2.8,3.4c1,0.5,1.8,0.2,2.8,0.4c0.9,0.2,1.8,0.7,2.7,0.8c2,0.3,4,0,6-0.4
		c6.2-1.2,12.5,0,18.8,0.4c3.2,0.2,6.5,0.4,9.7,0.3c3-0.2,6-0.8,9-1c4.7-0.2,9.3,0.9,13.9,0.9c2.8,0,5.7,0.4,8.3-0.8
		c2.6-1.2,4.7-3,5.3-5.9C332.8,35.7,331.7,33.6,330.3,30.3"/>
	<path class="st13" d="M489.6,17.1c-1.3,0.3-2.1-0.7-3.6-0.7c-1.7,0-6.4,0.4-7.2,2c-0.4,0.7,0,1.1,0.6,1.5c0.3,0.3,2.7,1.7,1.1,2
		c0.3,1.3,2.2,1.7,0.5,2.5c-1.3,0.5-5.4,0.9-5.6,3c-0.1,1.3,2.1,2.6,2.4,3.9c0.1,0.4,0.3,1.3,0.2,1.7c-2.9,0.2-5.8,0-8.3,1.9
		l-3.6,2.9c0.1,1.9-0.8,3.9,0.1,5.7c1,2.1,3.8,2.2,5.8,2.8c3.4,1.1,7.1,1.8,10.7,2.3c1.9,0.3,3.8-0.1,5.7-0.4
		c1.4-0.3,2.9-0.3,4.3-0.7V16.6C491.6,16.4,490.6,16.9,489.6,17.1"/>
	<path class="st25" d="M-0.5,40.3C1.7,40,3.7,39.6,6,39.4c7.2-0.8,14.5,0.5,21.6,0.6c7.4,0.1,14.8,0,22.2,0c6.3,0,12.4-1,18.7-0.6
		c3.2,0.2,6.5,0,9.7-0.2c1.3-0.1,2.6-0.3,3.9-0.2c1.6,0.1,3,0.7,4.5,0.7c3.5,0.1,7-1,10.6-0.9c1.7,0,3.3,0.2,5,0.2
		c5.7,0,11.5,0.5,17.2,0.5c4.5,0,8.8-0.2,13.3,0.2c4.8,0.4,9.7,1.3,14.5,1.3c5.7-0.1,11-0.5,16.7,0.4c6.5,1.1,12.9,1.3,19.5,1.4
		c2.4,0,4.8,0.4,7.2,0.9c2.8,0.6,5.3,0.7,8.2,0.8c4.4,0.2,8.7,0.8,13,1c1.9,0.1,3.7-0.5,5.5-0.6c2.5-0.1,5,0.1,7.5-0.3
		c4.3-0.7,8.2-0.5,12.6,0c3.4,0.3,6.6-1.2,10-1c3.7,0.1,7.4,0.1,11-0.5c3.2-0.6,5.9-1.9,9.1-2.2c4.5-0.4,9-0.3,13.5-0.5
		c2.5-0.1,5,0.1,7.3,0.7c2.1,0.5,5.6,0.8,6.8,2.7c-1.5,0.7-3.2,0.9-4.8,1.4c-1.9,0.5-3.7,1.5-5.5,2.3c-3.7,1.7-7.3,2.8-11.2,3.9
		c-5.1,1.5-10.4,2.1-15.7,2.9c-5.8,0.9-11.5,2.6-17.4,2.8c-13.4,0.6-26.9,0.4-40.3,0.4c-21.1,0-42.3,0.5-63.4,1.9H-0.5V40.3z"/>
	<path class="st26" d="M289.3,42.2c-1.5-0.3-3-0.3-4.5-0.6c-2.9-0.6-5.3-0.1-8.1,0.2c-1.4,0.2-2.9,0-4.3,0c-2.1,0-3.7,0.8-5.7,1.4
		c-2.1,0.6-4.2,1.2-6.2,1.9c-1.9,0.6-3.9,0.4-5.8,0.6c-1.7,0.1-3.2,0.7-4.9,1c-3.7,0.7-7.5,0.6-11.2,0.4c-3-0.2-6-0.4-9.1-0.2
		c-3.7,0.2-7.1,1.3-10.9,1.1c-3-0.2-6-0.4-9-0.4c-1.9,0-3.9,0.2-5.7-0.2c-2.9-0.5-4.6-1.4-7.5-0.8c-2.9,0.7-5.9,0.5-8.9,0.3
		c-3.1-0.2-6.3,0.1-9.5-0.1c-3.5-0.2-6.4-1.7-9.7-2.5c-2.8-0.6-5.3-0.3-8.1,0.1c-3.8,0.5-7.4-0.2-11.2-0.2c-7.6,0-15.1,0.8-22.6,0
		c-2.6-0.3-5.1,0.1-7.7-0.5c-4.1-1-7.6-0.6-11.8,0c-3.8,0.5-7.3-0.6-11.1-0.7c-4.9-0.2-10.7-0.7-15.4,0.9c-2.7,0.9-4.1,1.9-7,1.7
		c-2.8-0.3-5.9-0.7-8.6-0.3c-4,0.6-7.5,1.6-11.6,1.3c-3.8-0.3-7.3-1.4-11.1-1.8c-5.7-0.6-11.5,0.3-17.2,0.2
		c-5.2-0.1-9.8,1.4-14.9,0.2c-2.7-0.6-4.6-0.7-7.4-0.2c-1.2,0.2-2.2,0.5-3.4,0.7v12.6L123.1,56c0,0,79-0.2,98.7,0.2
		c19.7,0.5,72-12.2,72-12.2C292.3,43.5,290.9,42.5,289.3,42.2"/>
	<path class="st27" d="M472.9,39.7c-0.4-2-0.2-3.8-0.8-5.5c-0.7-2,0.2-3.9-2.8-4.4c-1.5-0.2-3.7,0.4-5-0.5c-0.6-0.4-0.7-1.3-1.3-1.7
		c-0.6-0.3-1.3-0.4-2-0.3c-3.9,0.4-2.5,4.7-3.5,7.4c-1.4-1.7-5-1.1-5.5-3.7c-0.1-0.6,0.2-1.2,0-1.8c-0.2-0.7-0.5-1-0.6-1.6
		c-0.2-0.8,0.3-1.8-0.3-2.6c-0.7-1.1-2.2-0.6-3.2-0.7c-2.1-0.3-3.7-2.4-5.9-2.2c-1.5,0.2-2.7,1.2-4,1.8c-0.6,0.3-1.3,0.3-1.9,0.5
		c-1.6,0.5-0.6,1.5-1.3,2.7c-0.7,1.2-3.1,1.2-3.8,2.4c-0.2,0.3,0,1.2,0,1.6c-0.2,2.2-2.2,2-4,1.9c-0.3-0.9-1.1-1-1.9-1.1
		c-1.8-0.3-3.2-0.5-4.4-2.2c-0.5-0.7-0.6-1.6-1.3-2.2c-1.3-1.2-3.8-0.1-5.4-1.1c-1.8-1-2.7-3.2-4.5-4.3c-1.7-1-3.7-0.4-5.4,0
		c-1.4,0.4-2.3,0.4-3.7,0.2c-1.2-0.3-2.3-0.6-3.5-0.3c-1.6,0.3-1.7,1-2.7,1.8c-1.5,1.3-3.5,1-4.5,3c-1.1,2.2-0.6,5.3-2.3,7
		c-1.2,1.2-1.7,2.6-2.9,3.8c-1.2,1.1-2.2,1.9-1.6,3.7c0.4,1.2,1.4,1.6,2.5,2.1l0.7,1.3c1-0.1,1.9,0.2,2.9,0.3c2.5,0.1,5,0,7.4-0.1
		c11-0.3,21.9,0,32.9-0.5c13.6-0.5,27.1-0.5,40.7-0.3C472.5,43.8,473.3,42,472.9,39.7"/>
	<path class="st20" d="M387.1,40.1c-0.4-0.3-1.2-0.3-1.6-0.7c-0.2-0.2-0.2-0.4-0.3-0.6c-0.8-1-1.7-1.2-2.9-0.8c-0.6,0.2-1,0.4-1.6,0
		c-1-0.4-0.6-0.8-0.6-1.6c-0.3-3.1-5.6-3.1-7.2-1c-0.3,0.4-0.2,0.9-0.7,1.2c-0.3,0.1-0.8-0.1-1.1,0c-0.4,0.1-0.7,0.6-1,0.7
		c-0.4,0.1-0.9-0.3-1.4-0.3c-0.8-0.1-1.9-0.2-2.7,0.1c-1.5,0.4-1.5,1.7-2.2,2.8c-0.6,1-1.8,0.8-2.7,0.5c-0.6-0.2-1.1-0.3-1.7-0.1
		c-0.4,0.1-0.7,0.3-1.1,0.3c-0.4,0-0.8-0.3-1.3-0.5c-0.7-0.2-1.6-0.3-2.4-0.2c-0.9,0.1-1.7,0.8-2.5,1.3c-0.4,0.3-1.4,0.7-1.4,1.2
		l0.2,1c3.6,0,7.2,0.7,10.8,0.7c4.2,0,8.5,0,12.7,0c2.7,0,5.6,0.2,8.3-0.1c1.3-0.2,2.5-0.5,3.8-0.6c1-0.1,1.1-0.3,1.2-1.3
		C387.8,41.5,387.7,40.6,387.1,40.1"/>
	<path class="st28" d="M355.6,25c-0.1-1.6,0.6-2.4-0.8-3.7c-0.6-0.5-1.3-1.1-1.9-1.6c-0.4-0.4-0.4-0.3-1-0.4c-0.5-0.1-1.6,0-2-0.3
		c-0.4-0.3-0.7-1.2-0.9-1.6c-0.3-0.5-0.6-1.1-1-1.5c-0.1-0.1-1.6-0.6-1.5-0.4c-0.3-0.8-0.7-1.8-1.7-1.6c-0.9-2-2.5-3.1-4.8-3
		c-0.7,0-1.6,0.2-2.2,0.6c-0.7,0.5-0.5,1-0.5,1.9c-0.2,4.2-7.3,0.3-7.8,4.4c-0.1,0.5,0.2,0.4-0.1,0.7c-0.5,0.6-1.6,0.7-2.2,1.3
		c-0.5,0.5-0.3,0.6-1.1,0.8c-1,0.3-1.9,0.4-2.6,1.4c-1.4,2.1,1.9,2.8,2.3,4.4c0.3,1.1-1.1,2-0.9,3.1c-1.5,0.1-4.6-0.4-5.7,1
		c-1.1,1.4,0.2,2.7,0.6,4c0.3,0.9-0.4,0.6-0.6,1.5c-0.2,1.1,1.5,1.1,1.8,1.9c0.1,0.1-0.1,0.4,0,0.5c0.2,0.5,0.8,0.7,1,1.1
		c0.2,0.6-0.4,0.5-0.8,1c-0.7,0.8-0.3,1.8,0.3,2.5c1.4,1.8,3.7,1.6,5.7,1.5c2.8-0.1,5.6-0.3,8.4-0.4c2.5,0,4.5,1.4,7.1,1.7
		c4.2,0.5,9.4,0.6,13-2c1-0.7,1.7-1.4,1.3-2.6c-0.2-0.6-0.6-1.4-0.6-2c0-0.9,0.7-0.7,1-1.5c0.3-0.8-0.4-1.2-0.8-1.8
		c-0.5-0.8-1.1-1.6-1.1-2.6c-0.2-1.9,1.9-2.6,2.1-4.3C357.7,27.4,355.7,26.6,355.6,25"/>
</g>
<g>
	<defs>
		<polygon id="SVGID_3_" points="311.8,42.9 312.9,42.9 312.7,0.1 312.1,0 		"/>
	</defs>
	<clipPath id="SVGID_4_">
		<use xlink:href="#SVGID_3_"  style="overflow:visible;"/>
	</clipPath>
	
		<linearGradient id="SVGID_5_" gradientUnits="userSpaceOnUse" x1="-63" y1="133.922" x2="-62" y2="133.922" gradientTransform="matrix(0 37.596 37.596 0 -4722.6318 2372.7571)">
		<stop  offset="0" style="stop-color:#FFFDEB"/>
		<stop  offset="1" style="stop-color:#947839"/>
	</linearGradient>
	<rect x="311.8" class="st29" width="1.1" height="42.9"/>
</g>
<g>
	<defs>
		<rect id="SVGID_6_" x="-63" y="-708" width="595.3" height="841.9"/>
	</defs>
	<clipPath id="SVGID_7_">
		<use xlink:href="#SVGID_6_"  style="overflow:visible;"/>
	</clipPath>
	<path class="st30" d="M320.5,12.9c-0.1-1.3-2.5-1.5-3.8-1.4c-0.5,0-1.9,0.3-2.4,0.1c-0.2-0.1,0-0.4-0.2-0.5c-0.5-0.4-1.3,0-1.6-0.7
		c-0.1-0.2,0.1-0.5,0-0.7c-0.1-0.5-0.8-0.6-1-0.9c-0.4-0.8,2.4-0.9,3.2-0.9c1.3,0,0.8,0,1.3,0.8c0.5,0.9,1.8,0.9,2.9,0.8
		c0.6,0,1.4-0.3,1.7-0.7c-1.1-0.2-0.4-0.9-0.7-1.4c-0.4-0.8-2.7-1.6-3.9-1.8c-0.3,0-1.2,0-1.3-0.3c-0.2-0.4,1-0.6,1.4-0.7
		c1.1-0.2,2.4,0.2,3.5-0.2c0-0.1,0.1-0.2,0.1-0.4c1.9-0.2,1-1.6-0.1-2.1c-0.5-0.2-2.7-0.9-3-0.4l-0.1-0.2c-0.2-0.5-1.6-0.9-2.3-0.9
		c-0.9,0-1.5,0.7-2.4,0.6c-1.7-0.1-3.7-1.3-5.3-0.2c-0.5,0.3-0.3,0.7-0.6,1C306,2,305.8,2,305.5,2.2c-0.7,0.5-0.4,2,0,2.4
		c1.2,1.4,1.9,0,3.4,0c0.7,0,1.8,0.4,1.6,1c0.4,0,0.6,0.3,0.5,0.6c-0.1,0.3-0.9,0.5-1.3,0.7c-0.8,0.3-1.1,0.5-1,1.3
		c0.1,0.6,0.7,0.9,1.3,1.3c0.2,0.1,0.6,0.2,0.7,0.5c0.1,0.6-1.8,0.4-2.1,1.2c-0.5,1.3,2.3,0.8,2.5,1.8c-0.6,0.2-0.9,0.6-0.7,1.2
		c0.5,1.4,3.7,1.5,5.1,1.1c0.6-0.2,1-0.3,1.6-0.3c0.5,0,1.1,0,1.6,0.2c0.1,0,0.4,0.3,0.4,0.3c0.5,0.1,1.1,0,1.8,0
		c0.1-0.6-0.7-1-0.7-1.5C320.2,13.4,320.5,13.2,320.5,12.9"/>
	<path class="st31" d="M321.4,25.5c-0.2-0.3-0.7-0.5-0.8-0.8c-0.1-0.3,0.2-0.7,0.2-1.1c0-0.4-0.1-0.9-0.2-1.3
		c-0.3-0.9-1.1-1.8-2.1-2.3c-0.8-0.5-1.7-0.8-2.5-1.1c-0.9-0.4-1.6-0.6-2.7-0.5c-0.7,0.1-1.1,0.3-1.5,0.7c-0.6,0.6-0.4,0.8-1.4,0.7
		c-0.8-0.1-1.7-0.4-2.6-0.3c-0.4,0.1-1.5,0.5-1.7,0.8c-0.3,0.7,1.1,1,0.7,1.6c-0.1,0.2-1.3,0.5-1.6,0.7c-0.4,0.2-0.8,0.5-1,0.8
		c-0.2,0.4-0.3,0.7-0.1,1.1c0.4,0.9,1.5,1,2.4,1.3c0.9,0.4,0.2,0.6-0.4,1c-0.6,0.4-0.9,1.1-0.4,1.7c0.5,0.7,1.7,0.8,2.5,0.4
		c1.2-0.5,1.9-0.8,3.3-0.7c0.7,0.1,1.4,0.4,2.1,0.5c0.4,0,1,0,1.4,0c0.8-0.1,1.4-0.7,2.1-0.9c0.6-0.1,1.3,0.2,1.9,0.1
		c0.9-0.2,1-0.7,1.7-1C321.4,26.5,321.8,26.3,321.4,25.5"/>
	<path class="st32" d="M492.6,42.5h-185c-18.6,0-26,0-39.4,3.7c-13.4,3.7-29,6.7-43.1,6.7c-14.1,0-32-0.7-81.8-1.5
		C98.2,50.7,15,53.6-0.5,54.2v29.9h493.1V42.5z"/>
	<path class="st33" d="M191.3,15.8c1.8-0.4,3.5,0.3,5.2,0.1c0.9-0.1,1.8-0.7,2.7-0.5c0.5,0.1,0.8,0.2,1.3,0.2
		c-0.1-2,3.1-4.1,3.8-1.5c0.4,0.1,0.9,0.2,1.4,0.1c0.2,0,0.4-0.3,0.5-0.3c0.7,0,1,1,1.6,1.2c0.6,0.2,1.5-0.4,2.2-0.5
		c0.8-0.1,1,0.3,1.7,0.5c0.8,0.2,1.9-0.3,2.8-0.2c0.6,0,1.6,0,2.2,0.3c0.5,0.4,0.4,0.5-0.1,0.7c-0.7,0.3-2.1-0.1-2.9-0.1
		c-4.3,0-8.6,0.4-12.9,0.4c-2.2,0-4.5,0.1-6.6,0.1c-0.5,0-2.6,0.3-3-0.3L191.3,15.8z"/>
</g>
</svg>
