<?xml version="1.0" encoding="utf-8"?>
<!-- Generator: Adobe Illustrator 19.0.0, SVG Export Plug-In . SVG Version: 6.00 Build 0)  -->
<svg version="1.1" id="Layer_1" xmlns="http://www.w3.org/2000/svg" xmlns:xlink="http://www.w3.org/1999/xlink" x="0px" y="0px"
	 viewBox="-58 219.2 494 354.8" style="enable-background:new -58 219.2 494 354.8;" xml:space="preserve">
<style type="text/css">
	.st0{clip-path:url(#SVGID_2_);fill:url(#SVGID_3_);}
	.st1{clip-path:url(#SVGID_5_);fill:#AFC2DE;}
	.st2{clip-path:url(#SVGID_7_);fill:#B8D3E5;}
	.st3{clip-path:url(#SVGID_9_);fill:#B6DEBF;}
	.st4{clip-path:url(#SVGID_11_);fill:#A0B8D8;}
	.st5{clip-path:url(#SVGID_13_);fill:#CDDBD7;}
	.st6{clip-path:url(#SVGID_15_);fill:#859FA6;}
	.st7{clip-path:url(#SVGID_17_);fill:#87A8CF;}
	.st8{clip-path:url(#SVGID_19_);fill:#668A91;}
	.st9{clip-path:url(#SVGID_21_);fill:#C1E1BB;}
	.st10{clip-path:url(#SVGID_23_);fill:#8EA593;}
	.st11{clip-path:url(#SVGID_25_);fill:#FFFAC0;}
	.st12{clip-path:url(#SVGID_27_);fill:#708F77;}
	.st13{clip-path:url(#SVGID_29_);fill:#668A91;}
	.st14{clip-path:url(#SVGID_31_);fill:#A0D39E;}
	.st15{clip-path:url(#SVGID_33_);fill:#537B60;}
	.st16{clip-path:url(#SVGID_35_);fill:#65876E;}
	.st17{clip-path:url(#SVGID_37_);fill:#73917A;}
	.st18{clip-path:url(#SVGID_39_);fill:#65876E;}
	.st19{clip-path:url(#SVGID_41_);fill:#A1C46A;}
	.st20{clip-path:url(#SVGID_43_);fill:#D8D981;}
	.st21{clip-path:url(#SVGID_45_);fill:#B6CAA7;}
	.st22{clip-path:url(#SVGID_47_);fill:#C0D083;}
	.st23{clip-path:url(#SVGID_49_);fill:#537B60;}
	.st24{clip-path:url(#SVGID_51_);fill:#537B60;}
	.st25{clip-path:url(#SVGID_53_);fill:#537B60;}
	.st26{clip-path:url(#SVGID_55_);fill:#66886F;}
	.st27{clip-path:url(#SVGID_57_);fill:#66886F;}
	.st28{clip-path:url(#SVGID_59_);fill:#537B60;}
	.st29{clip-path:url(#SVGID_61_);fill:#66886F;}
	.st30{clip-path:url(#SVGID_63_);fill:#537B60;}
	.st31{clip-path:url(#SVGID_65_);fill:#46893D;}
	.st32{clip-path:url(#SVGID_67_);fill:#485F45;}
	.st33{clip-path:url(#SVGID_69_);fill:#485F45;}
	.st34{clip-path:url(#SVGID_71_);fill:#3A7761;}
	.st35{clip-path:url(#SVGID_73_);fill:#3F6B49;}
	.st36{clip-path:url(#SVGID_75_);fill:#537B60;}
	.st37{clip-path:url(#SVGID_77_);fill:#73B276;}
	.st38{clip-path:url(#SVGID_79_);fill:#A4D38C;}
	.st39{clip-path:url(#SVGID_81_);fill:#546C50;}
	.st40{clip-path:url(#SVGID_83_);fill:#66886F;}
	.st41{clip-path:url(#SVGID_85_);fill:#478A69;}
	.st42{clip-path:url(#SVGID_87_);fill:url(#SVGID_88_);}
	.st43{clip-path:url(#SVGID_90_);fill:#3F6B49;}
	.st44{clip-path:url(#SVGID_92_);fill:#658060;}
	.st45{clip-path:url(#SVGID_94_);fill:#586E1C;}
	.st46{clip-path:url(#SVGID_96_);fill:#708F77;}
</style>
<g>
	<g>
		<defs>
			<rect id="SVGID_1_" x="-119" y="219.2" width="595.3" height="374.1"/>
		</defs>
		<clipPath id="SVGID_2_">
			<use xlink:href="#SVGID_1_"  style="overflow:visible;"/>
		</clipPath>
		
			<linearGradient id="SVGID_3_" gradientUnits="userSpaceOnUse" x1="-177.5898" y1="388.4973" x2="-176.5898" y2="388.4973" gradientTransform="matrix(0 -369.6287 -369.6287 0 143778.4219 -65054.4375)">
			<stop  offset="0" style="stop-color:#D7ECF6"/>
			<stop  offset="0.34" style="stop-color:#C5E5F4"/>
			<stop  offset="1" style="stop-color:#9AD2EF"/>
		</linearGradient>
		<rect x="-119" y="219.2" class="st0" width="595.3" height="374.1"/>
	</g>
</g>
<g>
	<g>
		<defs>
			<rect id="SVGID_4_" x="-119" y="-218.1" width="595.3" height="841.9"/>
		</defs>
		<clipPath id="SVGID_5_">
			<use xlink:href="#SVGID_4_"  style="overflow:visible;"/>
		</clipPath>
		<path class="st1" d="M314.1,500.6c4.4-0.7,9.2-0.1,13.2-1.2c3.2-0.9,6.4,0.8,9.7,0.5c4.9-0.3,8.8,1.3,13-1.1
			c3,0.7,4.9,3.9,7.4,4.7c1.4,0.4,4.6-0.3,6-0.8c0.8-0.3,1.4-0.9,2.3-1.1c2.2-0.5,4.6,0.5,6.8,0.4c1.2,0,2.3-0.2,3.5-0.2
			c2.3,0.1,4.2,0.7,4.8-2.4c2.2-0.6,4.3,3.1,6.3,1.3c0.9-0.8,0.8-3.2,1.4-4.4c0.4,0,0.9,0,1.3,0.3c0.6,1.7,0.8,5.7,2.6,2.8
			c0.9-1.4,1-4.2,1.1-5.9c2.1-0.5,1.4,1.8,1.6,3c0.4,1.8,1.6,2.5,1.7,4.4c1.6,0.2,3.4-0.2,4.9-0.5c2.9-0.6,6,0.2,9,0
			c0.2-2.7,5.2-0.7,6.7-0.8c1.6-0.1,2.8-0.9,4.4-1.1c0.8-0.1,2.3,0.4,3.1,0c0.5-0.3,0.6-0.9,1-1.1c2-1,4.1-1.7,6.5-0.8
			c1.7,0.7,2.7,2.1,4.2,2.8v16.5c-11.6,0.1-23.3,0.2-34.9,0.2c-11.5,0-22.9-0.9-34.5-1.3c-13.9-0.4-27.4-3-41.2-4.8
			c-5.4-0.7-10.8-1.7-16.1-2.7c-2.6-0.5-6.4-0.7-8.6-2.2c-1-0.7-2.3-1.8-2.4-3C303.3,500.4,309.3,501.4,314.1,500.6"/>
	</g>
	<g>
		<defs>
			<rect id="SVGID_6_" x="-119" y="-218.1" width="595.3" height="841.9"/>
		</defs>
		<clipPath id="SVGID_7_">
			<use xlink:href="#SVGID_6_"  style="overflow:visible;"/>
		</clipPath>
		<path class="st2" d="M369.4,505.5c10.4,0,20.9-1.1,31.4-1.1c11.9,0,23.8-1,35.7-1.1v11.3c-4.2-0.3-8.7-1.4-12.7-1.4
			c-18.3-0.4-36.5-1.7-54.8-2.9c-20.6-1.3-40.7-1.8-60.7-7.2C328.7,501.4,349.2,505.5,369.4,505.5"/>
	</g>
	<g>
		<defs>
			<rect id="SVGID_8_" x="-119" y="-218.1" width="595.3" height="841.9"/>
		</defs>
		<clipPath id="SVGID_9_">
			<use xlink:href="#SVGID_8_"  style="overflow:visible;"/>
		</clipPath>
		<rect x="-56.5" y="513.8" class="st3" width="493.1" height="60.1"/>
	</g>
	<g>
		<defs>
			<rect id="SVGID_10_" x="-119" y="-218.1" width="595.3" height="841.9"/>
		</defs>
		<clipPath id="SVGID_11_">
			<use xlink:href="#SVGID_10_"  style="overflow:visible;"/>
		</clipPath>
		<path class="st4" d="M113.8,496.1c-2.9-0.2-6.1-0.4-8.9-0.4c-1.3,0-2.4,0.4-3.7,0.4c-0.8,0-1.6-0.3-2.4-0.2
			c-1.3,0.1-2.3,0.9-3.7,1c-2.6,0.2-5.3-0.9-7.9-0.8c-1.8,0.1-3.1,0-4.9-0.2c-1.8-0.2-3.7,0.3-5.5,0c-1.4-0.2-2.5-1.2-4-0.9
			c-1.3,0.2-2.3,1-3.6,1.1c-0.7,0.1-1.5-0.2-2.2-0.2c-1.1-0.1-2.2,0-3.2,0.2c-3.3,0.6-6.5-0.7-9.7,0.2c-1.6,0.5-2.7,0.2-4.2,0
			c-2-0.3-4,0.1-6.1-0.1c-1.6-0.1-3.2-0.6-4.9-0.7c-6.1-0.4-12.3-0.5-18.4-0.6c-3.7,0-7.3-0.5-11.1-0.3c-2.5,0.1-5.1,0.5-7.5,0.2
			c-3.9-0.5-8.1-0.4-12-0.4c-1.9,0-3.8,0.1-5.8,0.2c-1.7,0.1-2.6-0.1-4.1-0.4s-2.8,0.4-4.3,0.4c-0.6,0-1.2-0.4-1.8-0.6
			c-1.1-0.2-2.4-0.1-3.5-0.3c-1.7-0.2-3.2-0.3-4.9-0.6c-1.9-0.3-3.6,0.8-5.7,0.9c-2.9,0.1-5.8-0.2-8.6-0.2c-1.4,0-2.2-0.6-3.5-0.7
			c-1.6-0.2-2.7,0.6-4.2,1.1v6.8c3.2,0.3,5.8,0.8,9,1.9c6.5,2.4,13.6,2.8,20.5,3.2c12.4,0.8,24.7,0.6,37,2.4
			c12.5,1.8,24.8,1.3,37.4,0.4c8-0.6,16-1.3,24-1.5c6.7-0.2,13.3-0.8,20-1.2c6.6-0.4,14.9,0.5,21-2.6
			C115.7,501.9,119.7,496.4,113.8,496.1"/>
	</g>
	<g>
		<defs>
			<rect id="SVGID_12_" x="-119" y="-218.1" width="595.3" height="841.9"/>
		</defs>
		<clipPath id="SVGID_13_">
			<use xlink:href="#SVGID_12_"  style="overflow:visible;"/>
		</clipPath>
		<path class="st5" d="M91.1,499c-5.5-0.1-11-0.8-16.5-0.8c-2,0-3.9,0.3-5.9,0.3c-1.7,0-3.5-0.2-5.2-0.2c-2.7,0-5.5,0.2-8.2,0.2
			c-2.2,0-4.3-0.2-6.5-0.4c-1-0.1-3.1,0-3.8-0.8l-1.7,1.4c0.8,1,1.4,2,2.7,2.6c1.4,0.7,2.9,1,4.4,1.3c1,0.2,1.9,0.6,2.9,0.8
			c1.3,0.2,2.8,0.1,4.2,0c2-0.1,3.9-0.1,5.9-0.1c5.5-0.1,11.1,0,16.6,0c1.9,0,3.7,0.1,5.6-0.2c1.6-0.3,3.5-0.5,5-1
			c0.8-0.3,2.6-1.2,2.7-2.1C93.3,498.9,91.8,499,91.1,499"/>
	</g>
	<g>
		<defs>
			<rect id="SVGID_14_" x="-119" y="-218.1" width="595.3" height="841.9"/>
		</defs>
		<clipPath id="SVGID_15_">
			<use xlink:href="#SVGID_14_"  style="overflow:visible;"/>
		</clipPath>
		<path class="st6" d="M181.5,497.3c-0.2-2.1-3.6-1-4.3-2.8c-0.5-1.2,0.4-2.8-0.6-3.9c-1.1-1.2-3.2-0.5-4.5-0.1
			c-1.4,0.4-2.4-0.3-3.6,0c-0.7,0.1-1.4,0.8-2,1.1c-2.1,1.2-1.8,1-2,3s-1.2,1.9-2.8,1.8c-1.4,0-1.5,0.5-2.7,1.2
			c-0.6,0.4-1.3,0.6-1.9-0.3c-0.4-0.7,0-1.5-0.2-2.2c-0.3-1-1.4-1.5-1.6-2.5c0-0.1,0-0.1,0-0.2c-1.5-0.6-3.5-0.6-5-0.2
			c-0.1,0-0.2,0-0.3,0.1c0,0.2-0.1,0.4-0.1,0.7c0,1,0.2,1-0.5,1.7c-0.8,0.8-2.2,1.6-2.9,2.2c-0.5,0.4-1.1,0.6-1.7,1
			c-0.7,0.5-0.8,1.1-1.2,1.6c-0.6,0.7-2.6,1.3-2.4-0.4c0.1-1.6,2.8-0.7,2-2.6c-0.7-1.8-2.5-1.5-3.9-1.1c-1.2,0.4-2.8,0.8-2.5,2.4
			c0.4,0.2,0.7,0.4,1.2,0.5c-0.1,0.9-3.6-0.1-4.3-0.5c-0.9-0.5-0.8-1.1-1.5-1.8c-0.7-0.7-1.4-0.4-2.2-1c-1.1-0.8-0.6-1.2-2.1-0.9
			c-1.4,0.4-1.2,0.6-2-0.6c-0.9-1.5-2.8-3-3.4-0.3c-0.7-0.5-1.2-1.3-1.7-2c-0.4-0.6,0.1-0.8-0.9-0.8c-0.5,0-0.6,0.1-1,0.5
			c-1.1,1.1-1.2,3.1-1.7,4.4c-1.4,0.1-5.1-0.1-4.9,2c-1.5,0.1-3,1.9-4.4,1.9c-1.8,0-3-2-5-1.7c-0.8,0.1-1.5,0.9-2.2,0.9
			c-0.8,0-1.7-0.6-2.5-0.6c-1.9-0.1-2.2,0.3-3.7,0.8c-1.8,0.6-3.1-0.1-4.9-0.2c-1.7-0.1-3.3,0.6-5,0c-1.5-0.5-2.7-1.5-4.3-1.1
			c-1.6,0.3-2.2,1.5-3.4,2.4c-1,0.8-2.2,0.6-3.4,0.6c-0.9,0-1.9,0.4-2.7,0.4c-1.9,0-3.2-2-4.8-2.8c-1.8-0.8-3.8,0.4-5.6,0.2
			c-1-0.1-3.1,0.6-4,0.2c-0.6-0.3-0.9-1.3-1.5-1.8c-1.2-1-3.4-1.7-5-1.1c-1,0.4-1.4,1.5-2.5,1.8s-2.8,0.2-3.9,0.1
			c-1.4-0.1-2.8-0.1-4.2,0c-0.7,0-1.5,0-2.2,0.2c-1.2,0.3-2,1.1-3.3,1.1c-1.9,0-3.8-1.4-5.6-0.8c-0.3,0.1-0.4,0.5-0.7,0.6
			c-0.4,0.2-0.9,0.2-1.4,0.3c-3,0.6-5.6,0.7-8.7,0.7c-1.2,0-2.5,0.2-3.7-0.1c-1.4-0.3-2.5-1.3-3.8-1.8c-2.8-1.2-5.3,0.1-8.1-0.3
			c-2.3-0.4-4.1-1.4-6.5-0.9c-2.9,0.6-6.7,3.4-9.8,1.9c-0.6-0.3-0.9-0.8-1.5-1.1c-1.5-0.7-3.5-0.6-5-0.2c-0.9,0.2-3,1-3.5,1.8
			c-0.9-0.8-3.5-1.9-4.7-1.2c-0.9,0.5,0,1.9-0.7,2.6c-0.8,0.8-1.8-0.2-2.7-0.3c-1.8-0.1-4.4,1.1-6.1,0.3c-0.7-0.3-1-1.3-1.9-1.7
			c-1.1-0.4-2.2,0.2-2.9,1.1c-0.5,0.7-0.5,1.5-1.4,1.8s-1.4-0.4-2.2-0.6c-0.9-0.2-3,0.4-3.5-0.8c-0.5-1.2,1.3-2.4-0.4-3.5
			c-0.7-0.4-2.5-0.6-3.2,0c-0.6,0.5-0.3,0.8-0.5,1.5c-0.3,0.9-0.6,0.9-0.3,1.7c0.2,0.6,0.8,0.3,0.6,1.1c-0.8,0-1.6-0.2-2.2,0.1v5.7
			c0.7,0.1,1.4,0.1,1.8,0.2c3.7,0.5,7.5,1,11.3,1.2c9,0.5,18.2,0.6,27.2,0.1c5.8-0.3,11.7-0.9,17.5-1c4.8,0,9.7,0.1,14.5,0
			c11.2-0.1,22.4-0.4,33.5-0.7c9.8-0.3,19.6-1.1,29.4-1.8c6.7-0.4,13.6-0.6,20.2-1.3c4.9-0.5,10.1-0.1,15-0.1
			c5.1,0,10.2-0.1,15.3-0.1c10.1-0.1,20.2-0.2,30.3-0.2c3.9,0,7.9,0.2,11.9-0.1c1.5-0.1,2-0.2,2.9-1c1.1-0.8,1.8-1.1,3.2-1.2
			c0.9-0.1,1.3,0.2,1.7-0.8c0.6-1.3-0.2-0.9,1.1-1.5C181,498.2,181.5,498.2,181.5,497.3"/>
	</g>
	<g>
		<defs>
			<rect id="SVGID_16_" x="-119" y="-218.1" width="595.3" height="841.9"/>
		</defs>
		<clipPath id="SVGID_17_">
			<use xlink:href="#SVGID_16_"  style="overflow:visible;"/>
		</clipPath>
		<path class="st7" d="M436.6,510.9c-0.1-0.8-1.9-1.9-2.5-2.5c-0.4-0.4-1-0.5-1.5-0.9c-0.7-0.5-1-1.2-1.8-1.6c-1.7-1-4,0.3-5.6-0.6
			c-0.8-0.5-0.6-1.1-1.7-1.2c-2.2-0.3-1,0.9-1.7,1.9c-0.1,0.2-0.7,0.3-0.9,0.4c-0.5,0.3-0.9,0.8-1.3,1.1c-0.9,0.5-1.6,0.3-2.5,0.3
			c-1.7,0-3.4,0.2-5.1,0c-1.4-0.1-2.7-0.7-4.1-0.6c-1.6,0.1-3.2,0.7-4.9,0.7c-1.7,0-3.1-0.4-4.7-1c-2.6-1-4.9-0.9-7.7-0.7
			c-2.3,0.2-4.5,0.4-6.8,0.5c-1,0.1-2,0-2.9,0.2c-0.8,0.2-1.6,0.5-2.4,0.5c-1.9,0-2.9-1.2-4.5-1.7c-1.7-0.5-4.1-0.2-6-0.2
			c-3.3,0.1-6.5,0.4-9.8-0.3c-1-0.2-1.7-0.5-2.5-0.9c-0.4-0.2-0.7-0.6-1.2-0.8c-2.1-0.9-3.3,1.2-5.2,1.9c-0.5,0.2-0.2,0.5-0.7,0.5
			c-0.2,0-1-0.6-1.1-0.8c-0.3-0.4,0-1-0.2-1.4c-0.3-0.8-0.7-0.6-1.3-1.1c-0.5-0.4-0.2-1.2-0.6-1.5c-0.8-0.6-3.2,1.2-3.7,2
			c-0.6,0.9-0.5,1-1.7,1.3c-0.6,0.1-1.1,0-1.6,0.3c-0.4,0.1-0.6,0.5-1,0.6c-1.1,0.3-2.4-0.4-3.6-0.1c-1.6,0.3-3,1.7-3.2,3.3
			c-0.5,4.3,7.5,5.2,10.5,5.3c6,0.2,11.9,0.1,17.9,0.6c8.3,0.8,16.5,0.4,24.8,0.1c9.9-0.3,20-0.4,29.9,0.2c3.6,0.2,7.1,0.2,10.8-0.1
			c2.9-0.3,6.4,0.1,9.2-0.7C434.9,513.3,436.8,512.3,436.6,510.9"/>
	</g>
	<g>
		<defs>
			<rect id="SVGID_18_" x="-119" y="-218.1" width="595.3" height="841.9"/>
		</defs>
		<clipPath id="SVGID_19_">
			<use xlink:href="#SVGID_18_"  style="overflow:visible;"/>
		</clipPath>
		<path class="st8" d="M267.7,500c-2.8-1.4-5.5,1.2-8.4-0.4c-0.5-0.3-0.6-0.9-1.1-1.3c-0.6-0.4-1.3-0.3-2-0.3
			c-1.4,0-2.1-0.2-3.4-0.6c-0.6-0.2-2.1-0.4-1.4-1.5c-1.4-0.1-3.7,0.5-5,0c-0.3-0.1-0.9-0.9-1.2-1.1c-0.8-0.5-1.6-0.9-2.5-0.9
			c-1.1,0-2.4,0.2-3.4,0.8c-0.7,0.4-1.1,1.1-1.8,1.6c-0.5,0.4-0.3,0.4-0.9,0.3s-1-0.6-1.7-0.6c-1.3-0.2-2.8,0.2-4,0.4
			c0,0-1.1,0.2-1.2,0.2c-0.4-0.1-0.8-0.9-1.2-1.1c-2.1-1.2-4.5-0.2-6,1.3c-1.4,1.4-1.2,0.8-1.8-0.5c-0.9-1.8-4.8-2.2-6-0.4
			c-0.1,0.2-0.3,0.7-0.3,0.8c-0.5,0.6-1,0.7-1.9,1c-0.6,0.2-1.3,0.1-1.6,0.7c-0.2,0.3,0.1,0.8,0,1.2c-0.7,2-3.4-1.3-3.4-2.6
			c0-1.3,0.6-1,1.4-1.9c0.6-0.8,0.1-2.3-0.9-2.9c-0.7-0.5-1.7-0.2-2.4-0.5c-0.6-0.2-0.3-0.3-0.8-0.6c-1.1-0.8-1.9-0.5-3.1-0.7
			c-0.3-0.1-0.5-0.3-1-0.4c-1.1-0.2-2.3,0.4-3.2,1c-0.7,0.5-0.8,0.9-1.2,1.5c-0.8,1.1-2.4,2-3.2,3.3c-0.5,0.8-0.3,1.7-0.4,2.6
			c-0.4,0.2-1.2,0.3-1.7,0.1c-0.5-0.2-0.7-0.9-1.1-1.2c-0.7-0.4-1.9,0.3-2.7-0.1s-0.8-1.3-1.3-1.8c-0.8-0.7-3.2-1.5-4.3-1.4
			c-1.5,0.1-2.4,1.2-3.8,1.4c-1.1,0.1-1.9,0.1-2.4,1.1c-0.4,0.7-0.1,1.2-1,1.6c-0.6,0.3-1,0.1-1.6,0.6c-0.8,0.7-1,1.8-1,2.8l1.5,1.6
			c1.5,0.4,2.5,1.3,3.8,2.2c2,1.5,3.7,1.8,6.2,2.2c6.7,1.1,13.7,0.9,20.4,0.6c9.6-0.3,19.5-0.4,29.1,0.6c12,1.3,23.9-0.4,35.7-1.9
			C272.5,506.1,269.9,501.1,267.7,500"/>
	</g>
	<g>
		<defs>
			<rect id="SVGID_20_" x="-119" y="-218.1" width="595.3" height="841.9"/>
		</defs>
		<clipPath id="SVGID_21_">
			<use xlink:href="#SVGID_20_"  style="overflow:visible;"/>
		</clipPath>
		<path class="st9" d="M20.5,496.9c0,0-37.4-0.4-48.3-0.5c-9.8-0.1-25.5,0.1-28.7,0.1v7.2l73.7-2.4L20.5,496.9z"/>
	</g>
	<g>
		<defs>
			<rect id="SVGID_22_" x="-119" y="-218.1" width="595.3" height="841.9"/>
		</defs>
		<clipPath id="SVGID_23_">
			<use xlink:href="#SVGID_22_"  style="overflow:visible;"/>
		</clipPath>
		<path class="st10" d="M-17.1,502.5c-0.4-0.8-2.3-0.6-3.2-0.8c-1.4-0.3-2.6-0.4-4-0.4c-1.2,0-2.1,0.8-3.2,0.6
			c-1.1-0.2-2.2-0.4-3.3-0.2c-2.8,0.5-5.7,0-8.5,0.2c-0.9,0.1-1.4-0.2-2.3-0.4c-0.7-0.1-1.3,0-1.9,0.2c-1.4,0.2-2.6-0.2-3.9-0.2
			c-0.7,0-1.4,0.1-2.1,0.3c-1.1,0.2-2.1-0.3-3.1-0.2c-0.7,0-1.1-0.1-1.9-0.2c-0.8-0.1-1.3,0.1-2,0.4v2.4c1.6,0.2,4-0.1,4.6-0.1
			c8.1-0.6,16.3,0,24.5-0.2c2.1-0.1,4.2-0.1,6.3-0.1c1,0,2.6,0.2,3.6-0.2C-17.1,503.3-16.8,503.1-17.1,502.5"/>
	</g>
	<g>
		<defs>
			<rect id="SVGID_24_" x="-119" y="-218.1" width="595.3" height="841.9"/>
		</defs>
		<clipPath id="SVGID_25_">
			<use xlink:href="#SVGID_24_"  style="overflow:visible;"/>
		</clipPath>
		<path class="st11" d="M-56.5,502.5c0,0,76.2,0.5,92.6,0c16.5-0.5,127.8-2.2,149.3-0.5s53.3,3.4,53.3,3.4l-252.1,12.2l-43.1,3.9
			V502.5z"/>
	</g>
	<g>
		<defs>
			<rect id="SVGID_26_" x="-119" y="-218.1" width="595.3" height="841.9"/>
		</defs>
		<clipPath id="SVGID_27_">
			<use xlink:href="#SVGID_26_"  style="overflow:visible;"/>
		</clipPath>
		<path class="st12" d="M102.5,505.8c-2.4-0.1-4.8,0.1-7.2,0c-0.1-1.2,0-1.4,1.1-2c1.4-0.7,1.5-0.5,1.7-2c0.1-0.7,0.3-1.6,0-2.4
			s-1.3-2-2.1-2.2c-0.9-0.3-2.9-0.1-3.8,0c-1.1,0.1-1.1,0.3-1.6,1c-0.2,0.3-0.4,0.5-0.6,0.8c-0.7,0.7-1.2,0.9-1.2,2
			c-0.1,2.1,2.3,0.8,2.5,2.2c0.1,0.6-0.7,0.6-0.5,1.1c0.1,0.3,1.2,0.7,1.4,0.8c-0.6,0.7-2.5,0.5-3.3,0.6c-1.1,0.2-1.9-0.3-2.9-0.4
			c-0.5,0-1,0.3-1.4,0.2c-1.4-0.3-0.1-1.4,0-2.2c0.1-0.7-0.2-1.2-0.3-1.8c-0.1-0.6,0.2-1.3,0-1.9c-1-2.8-4-1.4-6-1.4
			c-0.6,0-2.4-0.5-2.9-0.1c-0.4,0.4,0,1.5-0.1,2c-0.1,0.6-0.8,1.1-0.5,1.8c0.3,0.7,1.9,1.1,2.5,1.7c0.5,0.5,0.7,1,1.1,1.5
			c0.3,0.4,0.7,0.5,0.6,1.1c-3.1,0.2-6.1-0.3-9.2-0.1c-0.8,0.1-3.8,0.5-3.9-0.5c-0.1-0.5,0.6-0.8,0.8-1.1c0.3-0.6,0.5-1.4,0.2-2
			c-0.1-0.3-0.6-0.5-0.6-0.9c0-0.3,0.2-0.3,0.3-0.5c0.1-0.6,0.4-0.6-0.1-1.3c-0.8-1.1-2.2-0.7-3.4-1c-0.8-0.2-1.8-1-2.9-0.4
			c-0.6,0.3-1,1.1-1.5,1.6c-0.2,0.2-0.6,0.4-0.8,0.6c-0.6,0.6-1.2,1.3-0.5,2c0.3,0.3,3.5,1.4,1.3,2.1c0.4,0.4,1,0.8,1,1.3
			c-1.5,0.1-2.8-0.1-4.3,0.1c-1.5,0.3-2.6-0.3-4.1-0.4c-0.9-0.1-1.9,0.3-2.8,0.3l-0.8,0.9c0.1,0,0.2,0,0.3,0.1
			c-1.4,0.8,0.6,1.2,1.1,1.2c1.9,0,3.8,0,5.6,0c5.1,0,10.1,0.1,15.1,0.1c6.2,0,12.3-0.4,18.4-0.4c4.8,0,9.6-0.2,14.3-0.4
			C102.5,506.9,102.5,506.3,102.5,505.8"/>
	</g>
	<g>
		<defs>
			<rect id="SVGID_28_" x="-119" y="-218.1" width="595.3" height="841.9"/>
		</defs>
		<clipPath id="SVGID_29_">
			<use xlink:href="#SVGID_28_"  style="overflow:visible;"/>
		</clipPath>
		<path class="st13" d="M308.3,496.2c1.4-0.2,2.1,0.7,3.2,1.2c1.2,0.5,2.3,0.5,3.5,0.9c2,0.7,3.2,0.1,5.2,0.4
			c1.4,0.2,2.5,0.8,3.8,0.9c2.3,0.2,3.8-0.5,5.8,1.1c1.6,1.3,2.5,5,4.5,5.6c1.2,0.4,2.7-1,4-1c1,0,1.1,0.3,2,0.6
			c0.9,0.3,2.2,0.2,2.8,0.3c3.8,0.5,7.5,0.4,11.3-0.7c1-0.3,2-0.7,3.1-0.5s1.4,1,2.5,0c0.8-0.7,0.6-2,1.1-2.9
			c1.1-2.1,3.3-0.8,5.1-1.7c0.7-0.4,1.1-1.4,1.7-1.9c1.7-1.7,4.5-0.6,6.4,0.5c0.3,0.2,0.2,0.7,0.4,0.9c0.5,0.3,1.2,0.1,1.7,0.4
			c0.6,0.4,1.9,2.2,1.2,2.7c-1,0.8-4.9-1.9-4.4,1.1c1.5,0.1,3.3-0.1,3.8,1.9c0.3,1-0.8,1.2-0.4,2.4c1.6,0.5,2.9,0.5,3.7-0.7
			c0.6-1,1-2,2.2-2.5c1.2-0.6,2.9-0.3,4,0.4c0.7,0.5,1.1,1.9,2,1.7c0-0.4,0.3-0.9,0.3-1.3c0.9-0.1,2.8,0.4,3.5-0.2s0.2-1.8,1.3-2.3
			c0.8-0.3,2.4,0.1,3.1,0.4c1,0.4,1.1,1.2,1.7,1.7c1.3,0.9,2.7,0.3,4.1-0.5c0.4-0.3,0.4-0.5,1.1-0.8c0.7-0.2,1.7,0,2.4,0
			c0-0.2,0-0.5,0-0.7c-0.7-0.2-2-0.2-1.8-1.2c0.2-1.1,2.6-0.7,3.5-0.8c0.2-0.6,0-1-0.5-1.2c-0.1-0.3,0-0.6,0-0.8
			c1.6,0,3.7-0.4,5.2,0.2c1.7,0.7,1.2,2.3-0.1,3.2c2-0.1,4.7,0,4.2,2.8c-1.3,0.5-3.5-0.5-3.4,1.5c0,0.6,1,1,1,1.7c0,1-0.8,1-1.5,1.5
			c-0.9,0.6-0.7,0.9-1.1,1.7c-0.9,1.5-1.8,1.7-3.7,1.9c-3.6,0.4-7.2-0.6-10.7-0.8c-5.3-0.3-10.5-0.6-15.8-0.8
			c-10.7-0.5-21.4-2.1-32.1-1.4c-13.7,0.9-27.4,0.4-41.1,1c-3.6,0.2-9.5,1.2-12.8-0.8c-2.7-1.6-2.9-6.9-2.3-9.6
			c0.5-2.6,2.3-6.3,5.5-6c1.9,0.2,2.9,2.1,4.7,2.2C305.4,498.4,306.4,496.5,308.3,496.2"/>
	</g>
	<g>
		<defs>
			<rect id="SVGID_30_" x="-119" y="-218.1" width="595.3" height="841.9"/>
		</defs>
		<clipPath id="SVGID_31_">
			<use xlink:href="#SVGID_30_"  style="overflow:visible;"/>
		</clipPath>
		<path class="st14" d="M35.7,517.5c0-1.1,10.4-10.2,10.4-10.2s66.7-0.4,87.5-1.3c20.9-0.9,132.2-1.3,141.2-0.9
			c8.9,0.4,17-1.2,29.9,2.3s22.5,8.6,22.5,8.6s-66,2.3-93.5,2.3S77,525.1,59.1,523.6C41.3,522.2,35.7,517.5,35.7,517.5"/>
	</g>
	<g>
		<defs>
			<rect id="SVGID_32_" x="-119" y="-218.1" width="595.3" height="841.9"/>
		</defs>
		<clipPath id="SVGID_33_">
			<use xlink:href="#SVGID_32_"  style="overflow:visible;"/>
		</clipPath>
		<path class="st15" d="M156.8,510.1c-0.5-0.1-1.2,0.1-1.7,0.1c-1.8,0.1-3.7,0.2-5.5,0.3c-3.5,0.2-7.2-0.2-10.6,0.4
			c-2.5,0.5-4.9,0.1-7.4,0.3c-2.3,0.1-4.5,0.6-6.8,0.5c-1.4-0.1-2.8-0.1-4.3-0.1c-1.6,0-3.1,0.2-4.7,0.5c-4.2,0.7-8.4,1.2-12.7,1.4
			c-2.3,0.1-4.6,0.1-6.9-0.1c-1.1-0.1-2.2,0.3-3.3,0.4c-1.7,0.1-3.2,0.2-4.9,0.4c-1.8,0.2-3.5-0.5-5.3-0.2c-1.3,0.2-2.1,0.1-3.4,0
			c-1.7-0.2-3.2,0.8-4.9,0.7c-1.3-0.1-2.5-0.3-3.8-0.2c-1.8,0.1-3.4,0.5-5.2,0.5c-0.9,0-1.6,0.1-2.5,0.3c-0.7,0.1-1.6,0.2-2.4,0.1
			c-1-0.2-1.9-0.8-3-0.6c-1,0.1-1.6,0.5-2.6,0.4c-1.6-0.2-3,0.4-4.6,0.3c-2.9-0.2-5.9-0.9-8.4,1c-0.8,0.6-1.6,1.8-0.6,2.5
			c0.6,0.5,1.9,0.2,2.6,0.2c2.4,0,4.8,0,7.2,0c3.5,0,6.9-0.1,10.4-0.1c3.7,0,7.4-0.5,11.1-0.6c9-0.3,18-0.8,27.1-1.2
			c7.9-0.3,15.7-0.5,23.5-1.9c6.3-1.1,12.6-1.2,19-1.5c5.2-0.2,10.4-0.9,15.5-1.6C157.6,510.9,157.8,510.4,156.8,510.1"/>
	</g>
	<g>
		<defs>
			<rect id="SVGID_34_" x="-119" y="-218.1" width="595.3" height="841.9"/>
		</defs>
		<clipPath id="SVGID_35_">
			<use xlink:href="#SVGID_34_"  style="overflow:visible;"/>
		</clipPath>
		<rect x="-33.8" y="506.5" class="st16" width="0.4" height="2.1"/>
	</g>
	<g>
		<defs>
			<rect id="SVGID_36_" x="-119" y="-218.1" width="595.3" height="841.9"/>
		</defs>
		<clipPath id="SVGID_37_">
			<use xlink:href="#SVGID_36_"  style="overflow:visible;"/>
		</clipPath>
		<path class="st17" d="M-43.7,506.1c0-0.3,0.1-0.6,0.2-0.9c0.1-0.6,0.4-1,0.7-1.6s0.1-1.3,0.4-1.8c0.3-0.5,0.9-0.9,1.4-1.2
			c0.3-0.2,0.5-0.1,0.7-0.2c0.6-0.3,0.7-1.4,1.2-1.9c1.2-1.4,2.7-0.9,4.3-0.9c0.9,0,1.5-0.8,2.5-0.6c1.1,0.2,1.6,1,2.1,1.8
			s1.7,1,2,1.8c0.2,0.7-0.1,1.4,0.2,2c0.3,0.6,1.5,1.5,2.1,1.6c0.7,0.1,0.3-0.2,0.3-0.8c0.1-1.3,2-2,3.1-1.9
			c0.6,0.1,1.2,0.8,1.7,0.3c0.3-0.4,0.3-0.8,0.8-1c0.3-0.1,0.7-0.1,1-0.3c0.2-0.1,0.3-0.4,0.4-0.6c0.4-0.4,1-0.7,1.6-0.8
			c0.3-0.1,0.8,0.1,1,0c0.3-0.1,0.3-0.2,0.5-0.6c0.7-1.2,2.3-2.2,3.6-2.3c0.9-0.1,2.1,0.8,2.7,1.4c0.5,0.5,0.3,1.1,0.6,1.7
			c0.2,0.5,1.3,0.6,1.9,0.6c0.4,0,0.6,0.1,0.9-0.2c0.1-0.1,0.1-0.5,0.2-0.6c0.2-0.3,0.4-0.5,0.6-0.6c0.4-0.3,1-0.4,1.5-0.4
			c0.7,0,1.4,0.6,2.1,0.8c0.8,0.3,1.6,0.6,2.5,0.4c0.4-0.1,0.7-0.3,1-0.3c0.6,0,0.9,0.2,1.4-0.2c0.9-0.6,0.6-1.9,1.3-2.7
			c1.1-1.4,3.6-1.5,5.3-1.6c1,0,2.1,0,2.9,0.5c0.4,0.2,0.3,0.4,0.5,0.7c0.3,0.3,0.6,0.5,1,0.7c1,0.7,1,2.5,0.7,3.6
			c-0.3,0.8-1.3,1.4-1.9,2s-0.8,1.6-1.1,2.4c-0.4,0.8-0.9,0.7-1.7,1c-0.5,0.1-1.2,0.3-1.6,0.6c-0.3,0.2-0.3,0.5-0.7,0.7
			c-1.3,0.6-3.3,0.4-4.7,0.3c-1.3-0.1-2.5,0.1-3.8,0.1c-1.7,0.1-3.4,0.2-5.2,0.2c-3.5,0.1-7,0-10.4,0.1c-3.2,0.1-6.3,0.4-9.5,0.4
			c-0.9,0-1.9,0.2-2.7-0.1c-0.6-0.2-1.1-0.5-1.7-0.7c-0.9-0.2-1.7,0-2.5,0c-0.5,0-0.9-0.1-1.4-0.1c-0.5,0.1-1,0.3-1.5,0.4
			c-1.3,0.4-2.4,1.5-3.8,1.6c-0.6,0.1-1.3-0.2-1.8-0.4c-0.8-0.2-1-0.8-1.6-1.2C-42.8,507.2-43.6,506.8-43.7,506.1"/>
	</g>
	<g>
		<defs>
			<rect id="SVGID_38_" x="-119" y="-218.1" width="595.3" height="841.9"/>
		</defs>
		<clipPath id="SVGID_39_">
			<use xlink:href="#SVGID_38_"  style="overflow:visible;"/>
		</clipPath>
		<path class="st18" d="M19.1,506.3c-2.7-0.6-5.6-0.3-8.4-0.3c-5.8,0-11.6,0.4-17.3,0.4c-5.8,0-12.6-0.8-18.1,0.6
			c-3.4,0.9-7.1,0.9-10.7,0.9s-6.8,0.7-10.4,0.9c-1.7,0.1-3.7-0.3-5.3,0.2c-0.9,0.3-1.6,1.1-2.6,1.3c-0.6,0.1-1.6,0-2.8,0v5.1
			c1.6-0.1,3.2-0.5,4.3-0.7c9.7-1.7,19.6-3.2,29.5-3.7c8.5-0.4,16.9-1.2,25.5-1.1c3.1,0,6.2,0.4,9.3,0.2c1.5-0.1,5,0.2,6.3-0.6
			C19.4,509,19.2,507.6,19.1,506.3"/>
	</g>
	<g>
		<defs>
			<rect id="SVGID_40_" x="-119" y="-218.1" width="595.3" height="841.9"/>
		</defs>
		<clipPath id="SVGID_41_">
			<use xlink:href="#SVGID_40_"  style="overflow:visible;"/>
		</clipPath>
		<path class="st19" d="M247.7,510.6c-20.3-0.9-68.3-0.9-87.3,0.6c-6.6,0.5-16.2,1.1-26.6,1.7l-49,33.4l309.6-5.7l-73-25.6
			C293.3,514.4,267.7,511.5,247.7,510.6"/>
	</g>
	<g>
		<defs>
			<rect id="SVGID_42_" x="-119" y="-218.1" width="595.3" height="841.9"/>
		</defs>
		<clipPath id="SVGID_43_">
			<use xlink:href="#SVGID_42_"  style="overflow:visible;"/>
		</clipPath>
		<path class="st20" d="M428,512.8c0,0-47.5-1.9-70.2-3.7c-22.7-1.9-53-1.7-53-1.7c13.6,3.4,17.7,7.6,17.7,7.6c-0.4,0-0.8,0-1.2,0
			l73,25.6l35.7-0.7L428,512.8z"/>
	</g>
	<g>
		<defs>
			<rect id="SVGID_44_" x="-119" y="-218.1" width="595.3" height="841.9"/>
		</defs>
		<clipPath id="SVGID_45_">
			<use xlink:href="#SVGID_44_"  style="overflow:visible;"/>
		</clipPath>
		<path class="st21" d="M28.1,508.4c0,0-17.5-0.6-35-0.2c-16.3,0.3-45.5,3.7-49.6,4.2v8.1l81-3.7L28.1,508.4z"/>
	</g>
	<g>
		<defs>
			<rect id="SVGID_46_" x="-119" y="-218.1" width="595.3" height="841.9"/>
		</defs>
		<clipPath id="SVGID_47_">
			<use xlink:href="#SVGID_46_"  style="overflow:visible;"/>
		</clipPath>
		<path class="st22" d="M81.1,515.8C64.4,516.7,24,518,24,518l0.5-1.2l-33.7,0.9l-5.3-0.2l-33.8,2.8l-8.3-1.3v28.6l51.1,0.4
			l90.2-1.7l49-33.4C114.3,514,92,515.2,81.1,515.8"/>
	</g>
	<g>
		<defs>
			<rect id="SVGID_48_" x="-119" y="-218.1" width="595.3" height="841.9"/>
		</defs>
		<clipPath id="SVGID_49_">
			<use xlink:href="#SVGID_48_"  style="overflow:visible;"/>
		</clipPath>
		<path class="st23" d="M11.9,516.1l-0.7-0.4c-1.6,0.7-4.1,0.2-5.9,0.3c-1.8,0.1-3.5,0.3-5.2,0.5c-3,0.3-6-0.5-9-0.4
			c-6.5,0.4-13.4,0.4-19.9,1.5c-1,0.2-5.1,0.5-3.5,2c1.1,1,5.3,0.4,6.9,0.1c1.2-0.2,2.1-0.5,3.3-0.6c1.7-0.1,3.5-0.3,5-0.7
			c2.9-0.7,6.4-0.3,9.4-0.3c6.7,0,13.5,0.4,20.2,0C12.5,517.4,12.5,516.5,11.9,516.1"/>
	</g>
	<g>
		<defs>
			<rect id="SVGID_50_" x="-119" y="-218.1" width="595.3" height="841.9"/>
		</defs>
		<clipPath id="SVGID_51_">
			<use xlink:href="#SVGID_50_"  style="overflow:visible;"/>
		</clipPath>
		<path class="st24" d="M23.9,518.4c1.5,0.2,2.9-0.1,4.3-0.1c1.6,0,3.3,0.4,4.9,0.2c1.7-0.2,3.2-0.2,4.9-0.2
			c1.6,0.1,3.1-0.2,4.7-0.4c0.7-0.1,2.1,0.2,2.5-0.5c0.2-0.3,0.2-0.7,0.2-1.1c0.1-0.4,0.1-0.9,0.2-1.2c0.1-0.3,0-0.3,0.5-0.5
			c0.4-0.2,1.8-0.3,2.1-0.7c0.4-0.6-0.3-1.5-0.3-2.1c0.1-1,1.1-0.3,1.5-0.8c0.3-0.3,0.2-1.3,0.1-1.6c-0.3-1-0.7-1.5-0.1-2.5
			c0.4-0.6,1-1.1,1.3-1.7c0.2-0.6,0-0.9-0.3-1.5c-0.4-0.9-0.1-0.9,0.5-1.5c0.7-0.6,0.6-1.6,0.3-2.3c-0.4-0.9-0.6-1.6-1.6-2
			c-0.8-0.3-1.8-0.2-2.4-0.8c-0.4-0.4-0.4-0.9-0.6-1.3c-0.4-0.6-1.1-0.9-1.7-1.1c-0.5-0.1-1.2,0-1.6-0.2s-0.6-0.6-0.8-0.9
			c-0.2-0.4-0.5-0.9-0.3-1.3c0.1-0.3,0.6-0.4,0.7-0.7c0.3-0.7-1.4-1.1-1.9-1.3c-0.9-0.4-2-0.2-2.9-0.2c-1.9,0-4,0.3-5.5,1.6
			c-0.6,0.5-0.8,0.9-0.9,1.6c-0.1,0.3-0.1,0.5-0.3,0.6c-0.8,0.6-1.3-0.8-1.8-1.3c-1.2-1.1-3.8-0.9-4.9,0.4c-0.4,0.4-0.4,0.9-0.7,1.4
			c-0.4,0.7-1.2,0.9-2,1c-1.4,0.1-4-0.5-5,0.7c-0.3,0.4-0.3,0.7-0.5,1.1v0.2c-0.1,0.2-0.6,0.4-0.8,0.5c-1.5,0.7-3.1,0.4-4.6,0.8
			c-1,0.3-2.2,1.3-2.6,2.3c-0.2,0.8,0.4,1.2,0.3,2c-0.1,0.7-0.8,1.2-1.1,1.9c-0.3,0.5,0,1,0,1.6c0,0.9-0.8,1.5-0.3,2.3
			c0.3,0.6,1,1.4,1.7,1.5c0.7,0.2,2,0.8,1.9,1.6c-0.1,0.5-0.4,0.9-0.4,1.4c0,0.6,0.5,0.9,0.6,1.3c0.2,0.7-0.7,0.8-1.1,1.2
			c-0.8,0.9-0.4,1.8,0.4,2.5c0.3,0.3,0.5,0.6,1,0.6s1.1-0.1,1.6-0.1c1.2,0,2.4-0.1,3.6-0.1C19,518.1,21.5,518.1,23.9,518.4"/>
	</g>
	<g>
		<defs>
			<rect id="SVGID_52_" x="-119" y="-218.1" width="595.3" height="841.9"/>
		</defs>
		<clipPath id="SVGID_53_">
			<use xlink:href="#SVGID_52_"  style="overflow:visible;"/>
		</clipPath>
		<path class="st25" d="M298.8,508.1c-0.2-1.3-1.2-2-1.3-3.4c-0.1-1,0.2-1.9,0.2-2.9c-1.3-0.7-2.4-0.9-2.8-2.1
			c-0.3-1,0.2-2.2-0.2-3.2c-1.6-4.2-5.5-2-8.6-2.3c-0.2-0.9-0.6-0.4-1.2-0.6c-0.1,0-0.6,0.3-0.9,0.3c-0.1,0-0.3-0.5-0.4-0.6
			c-1.9-0.7-3-2-5.2-1.9c-1.4,0.1-2.6,0.6-3.8,1.3c-1.3,0.8-3,1.8-3.6,3.4c-0.4,1.3-0.3,2.9-2.4,2.8c-0.1,1.5,0.9,4.1-0.6,4.9
			c-0.6,0.3-1.7-0.1-2.3,0.2c-0.7,0.3-1,1.2-1.5,1.4c-1.9,1-4.5-0.2-3.5,3l1.9,3.6c0.6,0.6,1.2,1.3,2.1,1.6c1.1,0.4,2.4,0.3,3.5,0.6
			c1.4,0.5,2.1,0.8,3.7,0.9c2.9,0.2,6.9,0.6,9.7-0.5c1.2-0.4,2.1-1.3,3.4-1.6c3.3-0.6,6.5,1.6,9.6,1c2-0.4,1.7-1.3,2.6-2.9
			C297.9,510,299,509.7,298.8,508.1"/>
	</g>
	<g>
		<defs>
			<rect id="SVGID_54_" x="-119" y="-218.1" width="595.3" height="841.9"/>
		</defs>
		<clipPath id="SVGID_55_">
			<use xlink:href="#SVGID_54_"  style="overflow:visible;"/>
		</clipPath>
		<path class="st26" d="M137.8,506.7c-0.7-0.3-2.4,0.2-2.5-0.8c-0.1-0.6,0.4-0.9,0.8-0.9c0.8-0.1,2.9,2.1,2.5-0.1
			c-0.2-1.5-2-1.9-2.4-3.1c-0.3-0.7-0.1-1.3-0.7-2c-0.6-0.8-1.4-1.6-2.4-1.5c-1.3,0.2-1.4,1.4-2.5,0.7c-0.6-0.4-0.8-1.2-1.6-1.4
			c-1.3-0.4-2.9,0.2-4.1,0.8c-0.3,0.1-1.1,0.8-1.4,0.8c-0.3,0-0.9-0.3-1.2-0.4c-1.8-0.2-3.6,1.6-3.5,3.4c-1.5,0.2-2.2-0.7-3.3-1.4
			c-1.9-1-3.9-2.8-6.3-1.7c-0.7,0.3-1.1,0.9-1.5,1.5c-0.1,0.2-0.4,1-0.5,1.1c-0.5,0.4-1.1,0.2-1.9,0.2c-2,0.1-2.7,1-2.8,3
			c-0.3,0.1-0.9,1.3-1,1.6c-0.1,0.6,0.2,0.6,0.3,1.2c0.4,1.3,0.2,1.3,1.6,1.8c0,0.1,0,0.2,0,0.3c1.5,0.4,1.6,1,1,2.1
			c-0.4,0.8-1,1.5-0.9,2.5c0.2,0.9,1.3,1.4,1.6,2.1c0.5,0.2,1,0.5,1.5,0.6c1.6,0.3,3.2-0.4,4.8-0.1c1.6,0.3,2.7,1.5,4.3,1.6
			c1,0.1,2.2-0.2,3.2,0c0.6,0.1,0.7,0.2,1.1,0.6c0.1,0.2,0.2,0.7,0.3,0.8c0.5,0.3,2,0,2.3-0.5c0.2-0.3,0-0.5,0.2-0.7
			c0.1-0.2,0.3-0.5,0.3-0.6c0.2-0.6,0.2-1.2,0.2-1.9c0-2.5,2.4-0.7,4-1.5c0.9-0.4,1-1.1,2.1-1c1.1,0.1,1.2,0.2,2.3-0.2
			c0.6-0.2,1.3-0.3,0.9-1.1c-0.5-1.1-1.7-0.4-1.6-2.1c0.1-1.9,1.5-2.1,3-1.7c1.1,0.3,2,0.8,2.9,1.5c0.4,0.3,0.7,0.8,1.3,0.8
			C138.5,509.7,139.5,507.4,137.8,506.7"/>
	</g>
	<g>
		<defs>
			<rect id="SVGID_56_" x="-119" y="-218.1" width="595.3" height="841.9"/>
		</defs>
		<clipPath id="SVGID_57_">
			<use xlink:href="#SVGID_56_"  style="overflow:visible;"/>
		</clipPath>
		<path class="st27" d="M105.4,516.8c0-0.1,0-0.2,0-0.3c-0.3-0.1-0.5-0.2-0.8-0.2L105.4,516.8z"/>
	</g>
	<g>
		<defs>
			<rect id="SVGID_58_" x="-119" y="-218.1" width="595.3" height="841.9"/>
		</defs>
		<clipPath id="SVGID_59_">
			<use xlink:href="#SVGID_58_"  style="overflow:visible;"/>
		</clipPath>
		<path class="st28" d="M134.8,512.3c-0.7-1-1.7,0.1-2.3,0.6c-0.9,0.7-2.1,1.1-3,2c-1.1,1.1-2.9,1.9-4.2,2.8
			c-0.8,0.6-1.9,0.9-2.7,1.5c-0.8,0.5-1.4,1.2-2.1,1.7c-1.1,0.7-3.2,0.6-3.7,1.9l-0.2,0.4c0,0.9,0.9,1.4,1.8,1.2
			c0.4-0.1,0.9-0.5,1.3-0.7c0.9-0.4,1.8-0.7,2.7-1.1c1.5-0.7,2.9-1.5,4.1-2.5c0.9-0.7,1.4-1.7,2.4-2.4s1.9-0.9,2.8-1.7
			c0.6-0.5,1.1-1.1,1.6-1.5C133.9,514,135.7,513.6,134.8,512.3"/>
	</g>
	<g>
		<defs>
			<rect id="SVGID_60_" x="-119" y="-218.1" width="595.3" height="841.9"/>
		</defs>
		<clipPath id="SVGID_61_">
			<use xlink:href="#SVGID_60_"  style="overflow:visible;"/>
		</clipPath>
		<path class="st29" d="M211.8,509.2c-0.3-1.6-2-1.4-3.2-2c-0.8-0.4-1.2-1.2-2.1-1.8c-1.5-1-5.8-1.9-6.9,0.2
			c-0.1,0.2,0.1,0.6-0.2,0.8c-0.4,0.3-1.3-0.2-1.8-0.3c-0.9-0.2-1.3-0.1-2.2,0.5c-0.5,0.3-1.2,1.1-1.7,1.2c-0.6,0.1-2.2-1.1-2.7-1.4
			c-1-0.6-0.9-1.4-1.7-2.2c-1.8-1.8-4.3-2.5-6.4-0.9c-0.8,0.6-1.5,1.1-2.3,0.4c-0.5-0.4-0.5-1.2-1.1-1.5c-0.5-0.3-1.5-0.1-2.1-0.1
			c-1.2,0-1-0.2-1.8-1.1c-1.3-1.3-2.8-1.8-4.4-0.9c-0.6,0.3-0.6,0.4-1.2,0.4c-0.9,0-1.8-0.2-2.7-0.1c-1.1,0.2-2,0.9-2.9,1.5
			c-0.7,0.4-1.4,0.5-2.2,0.8c-2,1.1-1,2.7-1.4,4.5c-1.5,0-2.8,0.2-3.9,1.3c-0.7,0.7-0.4,1.3-0.7,2c-0.3,0.6-0.8,0.5-0.9,1.4
			c-0.2,2,1.2,3.2,2.6,4.3l-4.2,2.6c1.3,0.9,2.8,1.7,4.2,2.2c3.6,1.3,7.9,0.3,11.6,0.6c2.9,0.2,5.6,1.7,8.5,2.1
			c3.9,0.5,8.4,0.4,12.1-0.8c2.5-0.8,5.2-1.9,7.5-3.3c1.7-1,3.3-2.2,5.3-2.5c3.3-0.5,6.8,0.8,9.2-2.2
			C213.3,514,214.8,510,211.8,509.2"/>
	</g>
	<g>
		<defs>
			<rect id="SVGID_62_" x="-119" y="-218.1" width="595.3" height="841.9"/>
		</defs>
		<clipPath id="SVGID_63_">
			<use xlink:href="#SVGID_62_"  style="overflow:visible;"/>
		</clipPath>
		<path class="st30" d="M337.2,519.5c-0.3-0.7-0.7-0.6-1.4-1c-0.8-0.5-1.3-1.2-2.3-1.5c-0.4-0.1-0.8-0.1-1.1-0.3
			c-0.6-0.3-0.9-0.7-1.5-0.9c-0.4-0.1-0.8,0-1.2-0.2c-0.3-0.2-0.3-0.6-0.6-0.8c-0.8-0.4-2-0.1-2.8-0.2c-0.1-0.9-0.1-1.8,0-2.7
			c0.1-2.5,2.4-3.5,0.8-5.9c-0.7-1-1.8-2.7-3-2.8c-1.7-0.1-1.2,1.6-2.5,2c-0.6-1.2-2.1-3.1-3.5-3.3c-1.4-0.2-2.4,1.5-3.8,1.4
			c-0.1-1.2-1.1-1.3-1.9-1.9c-0.7-0.6-1-1.3-1.9-1.7c-1.6-0.6-4.3-0.5-5.9,0.2c-0.8,0.4-1.2,1-2,1.2s-2-0.4-2.8,0.2
			c-0.6,0.5-0.2,0.9-0.4,1.6c-0.3,1.9-3.3,1.8-4.7,2.7c0.9,1.6,2.4,1.7,4.1,1.8c1.4,0.1,2.7,0.1,4.1,0.3c1.8,0.3,3.2,1.3,4.9,1.7
			c1,0.2,2.2-0.1,3.2,0.1c1.4,0.3,2.2,1.2,3.4,1.8c0.7,0.3,6.1,1,5.5,2.1c-0.4,0.8-3.5,0.2-4.3,0.1c-1.4-0.1-2.8,0.3-4.3,0
			c-1.3-0.3-1.9-0.6-3.3-0.4c-1.2,0.2-2.1,0.3-3.3,0c-1.1-0.2-2.1-0.7-3.3-0.8c-1.1-0.1-3.6,0.1-4.3,0.9l-0.9,1.2
			c0.6,1.9,2.9,0.9,4.6,0.8c4.4-0.2,8.7,0.7,13,1.1c2.6,0.2,5.3,0.2,8,0.2c0.9,0,1.7-0.1,2.5,0.2c1.5,0.4,3,1.3,4.4,1.8
			c0.9,0.3,1.9,0.3,2.8,0.6c0.9,0.3,1.9,0.5,2.8,0.8c0.5,0.2,2,1.3,2.5,1.1C337.2,521,337.4,520.1,337.2,519.5"/>
	</g>
	<g>
		<defs>
			<rect id="SVGID_64_" x="-119" y="-218.1" width="595.3" height="841.9"/>
		</defs>
		<clipPath id="SVGID_65_">
			<use xlink:href="#SVGID_64_"  style="overflow:visible;"/>
		</clipPath>
		<path class="st31" d="M85.9,527.2c0-0.2-0.4-0.4-0.5-0.8c0-0.4,0.3-1.1,0.3-1.5c0.2-1.8-1.3-4.5-2.7-5.6c-0.9-0.8-1.3-1.8-2.2-2.5
			c-0.8-0.6-2.5-1.4-3.5-1.3c-0.3,0-0.5,0-0.8,0s-0.1,0.6-0.4,0.6c-0.8,0-1.3-1-2-1.4c-0.9-0.5-1.9-0.8-2.9-0.8
			c-1.6-0.1-2.8-0.1-3,1.4c-0.1,1,0.3,1.8-0.5,2.4c-0.4,0.3-2.2,0.1-2.7,0.1c-1,0.1-1.3,0-2,0.8c-0.5,0.5-0.5,1-1.2,1.3
			c-0.5,0.2-1.7,0-2-0.5c-0.2-0.5,0.4-1.1,0.4-1.5c0.2-1.1-0.2-2.1-1.2-2.5c-1.5-0.7-3.3,0.2-4.6,0.1c-1.8-0.2-5.9-1.7-7.5,0.2
			c-1,1.3,0.5,2.7,0.6,4.1c0.2,2.7-1.1,2.4-3.1,3.3c-1.9,0.9-1.1,1.8-1.5,3.3c-0.2,0.7-0.9,1.4-1.9,1.3c-1.3-0.1-2.8-1.4-4.1-1.9
			c-0.6-0.2-1.3-0.4-1.9-0.3c-0.8,0.1-1.5,0.9-2.2,0.6c-0.1-1.9,0.4-4.1-1.6-5.3c-1.1-0.7-3-0.5-3.7,0.8c-0.9-1.5-3.5-1.8-5-1.4
			c-1.9,0.6-2.6,2.1-2.6,3.9c-0.6,0.1-1.1,0.7-1.5,0.8c-0.5,0.1-1.1-0.3-1.8-0.3c-2.1-0.2-2.7,1.4-4.1,2.6c-0.4,0.3-0.8,0.2-1.2,0.8
			c-0.4,0.6-0.1,2.5,0.3,3c0.7,1,2.6,1.1,3.7,1.2c4.6,0.6,9.4,0.1,14.1,0.5c7.4,0.6,15,0.4,22.5,0.3c7.8-0.1,15.5,0.7,23.3,1.4
			c3.4,0.3,6.8-0.2,10.1,0l-1.3-3.5C85.6,529.9,86.2,528.9,85.9,527.2"/>
	</g>
	<g>
		<defs>
			<rect id="SVGID_66_" x="-119" y="-218.1" width="595.3" height="841.9"/>
		</defs>
		<clipPath id="SVGID_67_">
			<use xlink:href="#SVGID_66_"  style="overflow:visible;"/>
		</clipPath>
		<path class="st32" d="M146.3,534.1c-0.1-1.5-0.6-4.3-1.5-5.6l-3.7-3.6c-0.3-0.8-2.1-1.2-2.8-1.4c-1.5-0.3-3.6-0.5-5,0.2
			c-0.5,0.2-0.8,0.5-1.2,0.9c-0.2,0.2,0,0.4-0.2,0.5c-0.5,0.3-1.6-0.1-1.8,0.8c-0.7-0.1-1.4-0.6-2.2-0.7c-1.4-0.2-2.3,0.1-3.4,0.8
			c-1.2,0.7-2.1,0.9-3.5,0.8c0-0.7-0.1-1.8-0.6-2.3c-0.5-0.6-1.2-0.4-1.9-0.6c0-0.4,0.1-0.7,0.1-1.1c0-0.6-0.4-1.1-0.4-1.7
			c0-0.4,0.1-0.9,0.1-1.4c-0.1-1.3-1.2-2.5-2.3-3.1c-0.4-0.2-0.8-0.3-1.1-0.5c-0.6-0.4-0.9-1-1.5-1.3c-1.3-0.5-3.8-0.4-5,0.5
			c-0.3,0.2-0.6,0.9-0.9,1c-0.6,0.2-1.1-0.5-1.7-0.7c-0.8-0.3-1.9-0.5-2.7-0.2c-1,0.3-1.5,1.3-2.2,1.8c-0.5,0.3-1.3,0.4-1.8,0.8
			c-0.9,0.7-0.9,1.4-0.8,2.5c0.1,0.8,0.1,1.8-0.2,2.6c-0.4,1.1-1.4,0.9-2.5,0.9c-0.7,0-1.4-0.1-2.1,0.2c-0.6,0.3-0.7,0.8-1,1.4
			c-0.4,0.7-0.6,0.6-1.4,0.6c-2.1,0.2-3.1,1.6-3,3.6c0.1,1-0.4,1.7-0.3,2.7c0.3,2.9,4.8,2,6.7,2.2c5,0.6,10,1.4,15,2.2
			c3.6,0.6,7.3,0.4,11,0.7c5,0.5,9.9,0.5,14.8,0.7c2.6,0.1,5.5,0.2,8.1-0.1c0.8-0.1,2-0.4,2.6-1C146.5,536.5,146.4,535,146.3,534.1"
			/>
	</g>
	<g>
		<defs>
			<rect id="SVGID_68_" x="-119" y="-218.1" width="595.3" height="841.9"/>
		</defs>
		<clipPath id="SVGID_69_">
			<use xlink:href="#SVGID_68_"  style="overflow:visible;"/>
		</clipPath>
		<path class="st33" d="M12.5,527.4c-0.5-0.8-1.3-1.5-1.9-2.3c-1.4-1.8-3-2-5-2.2c-1.4-0.2-4.3-0.3-5.5,0.5
			c-1.1,0.8-0.8,2.1-2.1,2.4c-0.6,0.1-1.3-0.3-1.9,0c-0.4,0.2-0.4,0.6-0.7,0.9c-0.8,0.6-1.9,0.8-2.9,0.8c-1.6,0-2.8-1.3-4.4-1.3
			c-1,0-1.8,0.2-2.8,0s-1.8-0.9-2.9-0.8c-1.3,0.1-1.9,1-2.9,1.6c-2,1.1-4.2-0.3-4.8-2.4c-0.3-1.2,0.1-2.7-0.4-3.9
			c-0.8-1.7-2.8-1-4-2.1c-0.9-0.9-1.3-2.1-2.4-2.9c-1-0.7-2.2-1.5-3.4-1.7c-2-0.3-4.2,0.2-5.5,1.8c-0.7,0.8-0.7,1.2-2,1.7
			c-0.7,0.2-1.3,0.3-1.8,0.6c-0.7,0.4-0.8,0.6-1.7,0.7c-0.7,0.1-1.7,0.5-2.4,0.2c-1-0.4-1.7-1.5-3-1.9c-1.3-0.4-3-0.6-4.5-0.2v15.9
			c0.7,0,1.1-0.1,1.5-0.1c4.3,0,8.6,0.4,12.9,0.4c5.2,0,10.5,0.3,15.7,0.3c2.9,0,5.8-0.3,8.7-0.4c3.4-0.2,6.8-0.1,10.2-0.6
			c6.8-0.9,13.8,0.1,20.5-1.3C13,529.8,13.2,528.5,12.5,527.4"/>
	</g>
	<g>
		<defs>
			<rect id="SVGID_70_" x="-119" y="-218.1" width="595.3" height="841.9"/>
		</defs>
		<clipPath id="SVGID_71_">
			<use xlink:href="#SVGID_70_"  style="overflow:visible;"/>
		</clipPath>
		<path class="st34" d="M211.7,520.1c-0.6-1-0.9-2.2-1.3-3.3c-0.4-1.1-1.3-2.4-1.4-3.2l-0.8-0.6c-0.8-0.9-1.3-2-2.6-2.5
			c-0.5-0.2-0.6-0.2-1.1-0.1c-0.4,0.1-0.8,0.2-1.2,0.3c-0.3,0.1-0.7,0.5-1,0.5c-0.3,0.1-0.3-0.1-0.6-0.1c-1,0-1.7,0-2.4,0.8
			c-0.5,0.6-0.8,1.7-1.5,2.2c-0.6-0.4-0.9-0.9-1.3-1.5c-0.5-0.8-1.1-1-1.9-1.4c-2.4-1.2-5.6-2-8-0.2c-0.4,0.3-0.7,0.7-0.9,1.1
			c-0.1,0.3,0,1.1-0.1,1.3c-0.4,0.6-1.7,0.5-2.3,1c-0.5,0.4-0.9,0.9-1,1.5c-0.1,0.5,0,1.1-0.1,1.5s-0.6,0.7-0.8,1.1
			c-1.2,0.1-2.7-0.5-3.7-1.1c-0.7-0.4-1-0.6-1.3,0.2c-0.3,0-0.3-0.2-0.6-0.4c-0.6-0.3-1.2-0.6-1.9-0.8c-1.5-0.4-3.1-0.2-4.4,0.7
			c-0.5,0.3-0.6,0.7-1.2,0.7c-0.8,0-1.7-0.8-2.3-1.3c-1.8-1.4-3.8-2-6.1-2c-2.2,0-3.7,0.4-5.4,1.6c-0.6-0.9-1-1.9-1.9-2.6
			c-1.3-0.9-2.8-2.4-4.5-2.2c-1.9,0.3-3.4,1.1-4.8,2.4c-0.6,0.5-1.2,0.8-1.5,1.5c-0.3,0.5-0.2,1.1-0.4,1.7c-0.2,0.7-0.6,1.4-1,2
			c-0.6,1-0.7,2.1-0.6,3.2c0.1,0.8,0.3,1.4,0.1,2.1c-0.2,0.8-0.7,1.4-0.9,2.1c-0.2,0.6-0.4,1.7-0.2,2.4c0.2,0.7,0.8,1.1,1,1.8
			c0.1,0.4,0,0.8,0,1.2c0,0.7,0.1,1.2,0.5,1.8c0.3,0.4,0.6,0.9,0.8,1.4c1,1.9,3.8,1.5,5.6,1.8c4.6,0.6,8.8,2.4,13.4,2.7
			c2.9,0.2,5.8,0.3,8.7,0.2c2.6-0.1,5.2-0.7,7.8-0.7c2.3,0,4.6,0,6.9,0c2.1,0,4.2-0.2,6.3-0.4c4.2-0.3,8.3-1.3,12.5-1.7
			c1.1-0.1,2-0.1,2.9-0.6c1.3-0.6,2.9-1.4,3.9-2.4c0.8-0.9,1.2-2.3,1.6-3.3c0.6-1.3,0.8-2.8,1.4-4.1c0.6-1.1,0.9-1.9,0.8-3.2
			C212.9,522.1,212.4,521.3,211.7,520.1"/>
	</g>
	<g>
		<defs>
			<rect id="SVGID_72_" x="-119" y="-218.1" width="595.3" height="841.9"/>
		</defs>
		<clipPath id="SVGID_73_">
			<use xlink:href="#SVGID_72_"  style="overflow:visible;"/>
		</clipPath>
		<path class="st35" d="M274.3,520.1c-1-2.3-1.7-4.8-2.6-7.2c-0.6-1.6-1.5-3.5-3.3-4c-2.3-0.6-4.8,1.4-7,1.7c-0.9-2.3-1.5-4-3.7-5.5
			c-1.4-0.9-4.2-2.1-5.9-1.1c0.2-3-5.5-3.1-7.3-3c-1.4,0-3.1,0-4.2,1c-0.8,0.8-0.8,1.7-1.2,2.6c-0.7,1.7-1.2,1.1-3,0.7
			c-3-0.7-6.5-0.3-6.9,3.4c0,0.4,0.4,2,0.2,2.3c-0.6,0.8-2.9,0.5-3.8,0.4c-2.1-0.2-3.3-2.6-5.7-2.9c-2.5-0.4-4.4,0.2-5.6,2.4
			c-1.1,2-3.5,1.7-5.5,1.4c-2.4-0.3-3.5,0.2-4.6,2.5c-0.7,1.4-0.8,1.2-2.4,1.9c-1.8,0.8-2.9,2.5-3,4.5c-0.1,1.5,0.2,1.5-1,2.5
			c-2.3,1.8-2.4,4.8-1.2,7.3c0.6,1.2,1.5,2.8,2.8,3.4c1,0.5,1.8,0.2,2.8,0.4c0.9,0.2,1.8,0.7,2.7,0.8c2,0.3,4,0,6-0.4
			c6.2-1.2,12.5,0,18.8,0.4c3.2,0.2,6.5,0.4,9.7,0.3c3-0.2,6-0.8,9-1c4.7-0.2,9.3,0.9,13.9,0.9c2.8,0,5.7,0.4,8.3-0.8
			c2.6-1.2,4.7-3,5.3-5.9C276.8,525.5,275.7,523.4,274.3,520.1"/>
	</g>
	<g>
		<defs>
			<rect id="SVGID_74_" x="-119" y="-218.1" width="595.3" height="841.9"/>
		</defs>
		<clipPath id="SVGID_75_">
			<use xlink:href="#SVGID_74_"  style="overflow:visible;"/>
		</clipPath>
		<path class="st36" d="M433.6,506.9c-1.3,0.3-2.1-0.7-3.6-0.7c-1.7,0-6.4,0.4-7.2,2c-0.4,0.7,0,1.1,0.6,1.5c0.3,0.3,2.7,1.7,1.1,2
			c0.3,1.3,2.2,1.7,0.5,2.5c-1.3,0.5-5.4,0.9-5.6,3c-0.1,1.3,2.1,2.6,2.4,3.9c0.1,0.4,0.3,1.3,0.2,1.7c-2.9,0.2-5.8,0-8.3,1.9
			l-3.6,2.9c0.1,1.9-0.8,3.9,0.1,5.7c1,2.1,3.8,2.2,5.8,2.8c3.4,1.1,7.1,1.8,10.7,2.3c1.9,0.3,3.8-0.1,5.7-0.4
			c1.4-0.3,2.9-0.3,4.3-0.7v-30.7C435.6,506.3,434.6,506.7,433.6,506.9"/>
	</g>
	<g>
		<defs>
			<rect id="SVGID_76_" x="-119" y="-218.1" width="595.3" height="841.9"/>
		</defs>
		<clipPath id="SVGID_77_">
			<use xlink:href="#SVGID_76_"  style="overflow:visible;"/>
		</clipPath>
		<path class="st37" d="M-56.5,530.1c2.2-0.3,4.2-0.6,6.5-0.9c7.2-0.8,14.5,0.5,21.6,0.6c7.4,0.1,14.8,0,22.2,0
			c6.3,0,12.4-1,18.7-0.6c3.2,0.2,6.5,0,9.7-0.2c1.3-0.1,2.6-0.3,3.9-0.2c1.6,0.1,3,0.7,4.5,0.7c3.5,0.1,7-1,10.6-0.9
			c1.7,0,3.3,0.2,5,0.2c5.7,0,11.5,0.5,17.2,0.5c4.5,0,8.8-0.2,13.3,0.2c4.8,0.4,9.7,1.3,14.5,1.3c5.7-0.1,11-0.5,16.7,0.4
			c6.5,1.1,12.9,1.3,19.5,1.4c2.4,0,4.8,0.4,7.2,0.9c2.8,0.6,5.3,0.7,8.2,0.8c4.4,0.2,8.7,0.8,13,1c1.9,0.1,3.7-0.5,5.5-0.6
			c2.5-0.1,5,0.1,7.5-0.3c4.3-0.7,8.2-0.5,12.6,0c3.4,0.3,6.6-1.2,10-1c3.7,0.1,7.4,0.1,11-0.5c3.2-0.6,5.9-1.9,9.1-2.2
			c4.5-0.4,9-0.3,13.5-0.5c2.5-0.1,5,0.1,7.3,0.7c2.1,0.5,5.6,0.8,6.8,2.7c-1.5,0.7-3.2,0.9-4.8,1.4c-1.9,0.5-3.7,1.5-5.5,2.3
			c-3.7,1.7-7.3,2.8-11.2,3.9c-5.1,1.5-10.4,2.1-15.7,2.9c-5.8,0.9-11.5,2.6-17.4,2.8c-13.4,0.6-26.9,0.4-40.3,0.4
			c-21.1,0-42.3,0.5-63.4,1.9H-56.5V530.1z"/>
	</g>
	<g>
		<defs>
			<rect id="SVGID_78_" x="-119" y="-218.1" width="595.3" height="841.9"/>
		</defs>
		<clipPath id="SVGID_79_">
			<use xlink:href="#SVGID_78_"  style="overflow:visible;"/>
		</clipPath>
		<path class="st38" d="M233.3,532c-1.5-0.3-3-0.3-4.5-0.6c-2.9-0.6-5.3-0.1-8.1,0.2c-1.4,0.2-2.9,0-4.3,0c-2.1,0-3.7,0.8-5.7,1.4
			c-2.1,0.6-4.2,1.2-6.2,1.9c-1.9,0.6-3.9,0.4-5.8,0.6c-1.7,0.1-3.2,0.7-4.9,1c-3.7,0.7-7.5,0.6-11.2,0.4c-3-0.2-6-0.4-9.1-0.2
			c-3.7,0.2-7.1,1.3-10.9,1.1c-3-0.2-6-0.4-9-0.4c-1.9,0-3.9,0.2-5.7-0.2c-2.9-0.5-4.6-1.4-7.5-0.8c-2.9,0.7-5.9,0.5-8.9,0.3
			c-3.1-0.2-6.3,0.1-9.5-0.1c-3.5-0.2-6.4-1.7-9.7-2.5c-2.8-0.6-5.3-0.3-8.1,0.1c-3.8,0.5-7.4-0.2-11.2-0.2c-7.6,0-15.1,0.8-22.6,0
			c-2.6-0.3-5.1,0.1-7.7-0.5c-4.1-1-7.6-0.6-11.8,0c-3.8,0.5-7.3-0.6-11.1-0.7c-4.9-0.2-10.7-0.7-15.4,0.9c-2.7,0.9-4.1,1.9-7,1.7
			c-2.8-0.3-5.9-0.7-8.6-0.3c-4,0.6-7.5,1.6-11.6,1.3c-3.8-0.3-7.3-1.4-11.1-1.8c-5.7-0.6-11.5,0.3-17.2,0.2
			c-5.2-0.1-9.8,1.4-14.9,0.2c-2.7-0.6-4.6-0.7-7.4-0.2c-1.2,0.2-2.2,0.5-3.4,0.7v12.6l123.6-2.2c0,0,79-0.2,98.7,0.2
			c19.7,0.5,72-12.2,72-12.2C236.3,533.3,234.9,532.3,233.3,532"/>
	</g>
	<g>
		<defs>
			<rect id="SVGID_80_" x="-119" y="-218.1" width="595.3" height="841.9"/>
		</defs>
		<clipPath id="SVGID_81_">
			<use xlink:href="#SVGID_80_"  style="overflow:visible;"/>
		</clipPath>
		<path class="st39" d="M416.9,529.5c-0.4-2-0.2-3.8-0.8-5.5c-0.7-2,0.2-3.9-2.8-4.4c-1.5-0.2-3.7,0.4-5-0.5
			c-0.6-0.4-0.7-1.3-1.3-1.7c-0.6-0.3-1.3-0.4-2-0.3c-3.9,0.4-2.5,4.7-3.5,7.4c-1.4-1.7-5-1.1-5.5-3.7c-0.1-0.6,0.2-1.2,0-1.8
			c-0.2-0.7-0.5-1-0.6-1.6c-0.2-0.8,0.3-1.8-0.3-2.6c-0.7-1.1-2.2-0.6-3.2-0.7c-2.1-0.3-3.7-2.4-5.9-2.2c-1.5,0.2-2.7,1.2-4,1.8
			c-0.6,0.3-1.3,0.3-1.9,0.5c-1.6,0.6-0.6,1.5-1.3,2.7c-0.7,1.2-3.1,1.2-3.8,2.4c-0.2,0.3,0,1.2,0,1.6c-0.2,2.2-2.2,2-4,1.9
			c-0.3-0.9-1.1-1-1.9-1.1c-1.8-0.3-3.2-0.5-4.4-2.2c-0.5-0.7-0.6-1.6-1.3-2.2c-1.3-1.2-3.8-0.1-5.4-1.1c-1.8-1-2.7-3.2-4.5-4.3
			c-1.7-1-3.7-0.4-5.4,0c-1.4,0.4-2.3,0.4-3.7,0.1c-1.2-0.3-2.3-0.6-3.5-0.3c-1.6,0.3-1.7,1-2.7,1.8c-1.5,1.3-3.5,1-4.5,3
			c-1.1,2.2-0.6,5.3-2.3,7c-1.2,1.2-1.7,2.6-2.9,3.8c-1.2,1.1-2.2,1.9-1.6,3.7c0.4,1.2,1.4,1.6,2.5,2.1l0.7,1.3
			c1-0.1,1.9,0.2,2.9,0.3c2.5,0.1,5,0,7.4-0.1c11-0.3,21.9,0,32.9-0.5c13.6-0.5,27.1-0.5,40.7-0.3
			C416.5,533.6,417.3,531.8,416.9,529.5"/>
	</g>
	<g>
		<defs>
			<rect id="SVGID_82_" x="-119" y="-218.1" width="595.3" height="841.9"/>
		</defs>
		<clipPath id="SVGID_83_">
			<use xlink:href="#SVGID_82_"  style="overflow:visible;"/>
		</clipPath>
		<path class="st40" d="M331.1,529.9c-0.4-0.3-1.2-0.3-1.6-0.7c-0.2-0.2-0.2-0.4-0.3-0.6c-0.8-1-1.7-1.2-2.9-0.8
			c-0.6,0.2-1,0.4-1.6,0c-1-0.4-0.6-0.8-0.6-1.6c-0.3-3.1-5.6-3.1-7.2-1c-0.3,0.4-0.2,0.9-0.7,1.2c-0.3,0.1-0.8-0.1-1.1,0
			c-0.4,0.1-0.7,0.6-1,0.7c-0.4,0.1-0.9-0.3-1.4-0.3c-0.8-0.1-1.9-0.2-2.7,0.1c-1.5,0.4-1.5,1.7-2.2,2.8c-0.6,1-1.8,0.8-2.7,0.5
			c-0.6-0.2-1.1-0.3-1.7-0.1c-0.4,0.1-0.7,0.3-1.1,0.3s-0.8-0.3-1.3-0.5c-0.7-0.2-1.6-0.3-2.4-0.2c-0.9,0.1-1.7,0.8-2.5,1.3
			c-0.4,0.3-1.4,0.7-1.4,1.2l0.2,1c3.6,0,7.2,0.7,10.8,0.7c4.2,0,8.5,0,12.7,0c2.7,0,5.6,0.2,8.3-0.1c1.3-0.2,2.5-0.5,3.8-0.6
			c1-0.1,1.1-0.3,1.2-1.3C331.8,531.3,331.7,530.4,331.1,529.9"/>
	</g>
	<g>
		<defs>
			<rect id="SVGID_84_" x="-119" y="-218.1" width="595.3" height="841.9"/>
		</defs>
		<clipPath id="SVGID_85_">
			<use xlink:href="#SVGID_84_"  style="overflow:visible;"/>
		</clipPath>
		<path class="st41" d="M299.6,514.8c-0.1-1.6,0.6-2.4-0.8-3.7c-0.6-0.5-1.3-1.1-1.9-1.6c-0.4-0.4-0.4-0.3-1-0.4
			c-0.5-0.1-1.6,0-2-0.3s-0.7-1.2-0.9-1.6c-0.3-0.5-0.6-1.1-1-1.5c-0.1-0.1-1.6-0.6-1.5-0.4c-0.3-0.8-0.7-1.8-1.7-1.6
			c-0.9-2-2.5-3.1-4.8-3c-0.7,0-1.6,0.2-2.2,0.6c-0.7,0.5-0.5,1-0.5,1.9c-0.2,4.2-7.3,0.3-7.8,4.4c-0.1,0.5,0.2,0.4-0.1,0.7
			c-0.5,0.6-1.6,0.7-2.2,1.3c-0.5,0.5-0.3,0.6-1.1,0.8c-1,0.3-1.9,0.4-2.6,1.4c-1.4,2.1,1.9,2.8,2.3,4.4c0.3,1.1-1.1,2-0.9,3.1
			c-1.5,0.1-4.6-0.4-5.7,1s0.2,2.7,0.6,4c0.3,0.9-0.4,0.6-0.6,1.5c-0.2,1.1,1.5,1.1,1.8,1.9c0.1,0.1-0.1,0.4,0,0.5
			c0.2,0.5,0.8,0.7,1,1.1c0.2,0.6-0.4,0.5-0.8,1c-0.7,0.8-0.3,1.8,0.3,2.5c1.4,1.8,3.7,1.6,5.7,1.5c2.8-0.1,5.6-0.3,8.4-0.4
			c2.5,0,4.5,1.4,7.1,1.7c4.2,0.5,9.4,0.6,13-2c1-0.7,1.7-1.4,1.3-2.6c-0.2-0.6-0.6-1.4-0.6-2c0-0.9,0.7-0.7,1-1.5s-0.4-1.2-0.8-1.8
			c-0.5-0.8-1.1-1.6-1.1-2.6c-0.2-1.9,1.9-2.6,2.1-4.3C301.7,517.2,299.7,516.4,299.6,514.8"/>
	</g>
</g>
<g>
	<g>
		<defs>
			<polygon id="SVGID_86_" points="255.8,532.7 256.9,532.7 256.7,489.9 256.1,489.8 			"/>
		</defs>
		<clipPath id="SVGID_87_">
			<use xlink:href="#SVGID_86_"  style="overflow:visible;"/>
		</clipPath>
		
			<linearGradient id="SVGID_88_" gradientUnits="userSpaceOnUse" x1="-171.2015" y1="387.115" x2="-170.2015" y2="387.115" gradientTransform="matrix(0 37.596 -37.596 0 14810.3252 6930.52)">
			<stop  offset="0" style="stop-color:#FFFDEB"/>
			<stop  offset="1" style="stop-color:#947839"/>
		</linearGradient>
		<rect x="255.8" y="489.8" class="st42" width="1.1" height="42.9"/>
	</g>
</g>
<g>
	<g>
		<defs>
			<rect id="SVGID_89_" x="-119" y="-218.1" width="595.3" height="841.9"/>
		</defs>
		<clipPath id="SVGID_90_">
			<use xlink:href="#SVGID_89_"  style="overflow:visible;"/>
		</clipPath>
		<path class="st43" d="M264.5,502.7c-0.1-1.3-2.5-1.5-3.8-1.4c-0.5,0-1.9,0.3-2.4,0.1c-0.2-0.1,0-0.4-0.2-0.5
			c-0.5-0.4-1.3,0-1.6-0.7c-0.1-0.2,0.1-0.5,0-0.7c-0.1-0.5-0.8-0.6-1-0.9c-0.4-0.8,2.4-0.9,3.2-0.9c1.3,0,0.8,0,1.3,0.8
			c0.5,0.9,1.8,0.9,2.9,0.8c0.6,0,1.4-0.3,1.7-0.7c-1.1-0.2-0.4-0.9-0.7-1.4c-0.4-0.8-2.7-1.6-3.9-1.8c-0.3,0-1.2,0-1.3-0.3
			c-0.2-0.4,1-0.6,1.4-0.7c1.1-0.2,2.4,0.2,3.5-0.2c0-0.1,0.1-0.2,0.1-0.4c1.9-0.2,1-1.6-0.1-2.1c-0.5-0.2-2.7-0.9-3-0.4l-0.1-0.2
			c-0.2-0.5-1.6-0.9-2.3-0.9c-0.9,0-1.5,0.7-2.4,0.6c-1.7-0.1-3.7-1.3-5.3-0.2c-0.5,0.3-0.3,0.7-0.6,1c-0.2,0.2-0.4,0.2-0.6,0.4
			c-0.7,0.5-0.4,2,0,2.4c1.2,1.4,1.9,0,3.4,0c0.7,0,1.8,0.4,1.6,1c0.4,0,0.6,0.3,0.5,0.6c-0.1,0.3-0.9,0.5-1.3,0.7
			c-0.8,0.3-1.1,0.5-1,1.3c0.1,0.6,0.7,0.9,1.3,1.3c0.2,0.1,0.6,0.2,0.7,0.5c0.1,0.6-1.8,0.4-2.1,1.2c-0.5,1.3,2.3,0.8,2.5,1.8
			c-0.6,0.2-0.9,0.6-0.7,1.2c0.5,1.4,3.7,1.5,5.1,1.1c0.6-0.2,1-0.3,1.6-0.3c0.5,0,1.1,0,1.6,0.2c0.1,0,0.4,0.3,0.4,0.3
			c0.5,0.1,1.1,0,1.8,0c0.1-0.6-0.7-1-0.7-1.5C264.2,503.2,264.5,503,264.5,502.7"/>
	</g>
	<g>
		<defs>
			<rect id="SVGID_91_" x="-119" y="-218.1" width="595.3" height="841.9"/>
		</defs>
		<clipPath id="SVGID_92_">
			<use xlink:href="#SVGID_91_"  style="overflow:visible;"/>
		</clipPath>
		<path class="st44" d="M265.4,515.3c-0.2-0.3-0.7-0.5-0.8-0.8c-0.1-0.3,0.2-0.7,0.2-1.1s-0.1-0.9-0.2-1.3c-0.3-0.9-1.1-1.8-2.1-2.3
			c-0.8-0.5-1.7-0.8-2.5-1.1c-0.9-0.4-1.6-0.6-2.7-0.5c-0.7,0.1-1.1,0.3-1.5,0.7c-0.6,0.6-0.4,0.8-1.4,0.7c-0.8-0.1-1.7-0.4-2.6-0.3
			c-0.4,0.1-1.5,0.5-1.7,0.9c-0.3,0.7,1.1,1,0.7,1.6c-0.1,0.2-1.3,0.5-1.6,0.7c-0.4,0.2-0.8,0.5-1,0.8c-0.2,0.4-0.3,0.7-0.1,1.1
			c0.4,0.9,1.5,1,2.4,1.3c0.9,0.4,0.2,0.6-0.4,1s-0.9,1.1-0.4,1.7c0.5,0.7,1.7,0.8,2.5,0.4c1.2-0.5,1.9-0.8,3.3-0.7
			c0.7,0.1,1.4,0.4,2.1,0.5c0.4,0,1,0,1.4,0c0.8-0.1,1.4-0.7,2.1-0.9c0.6-0.1,1.3,0.2,1.9,0.1c0.9-0.2,1-0.7,1.7-1
			C265.4,516.3,265.8,516.2,265.4,515.3"/>
	</g>
	<g>
		<defs>
			<rect id="SVGID_93_" x="-119" y="-218.1" width="595.3" height="841.9"/>
		</defs>
		<clipPath id="SVGID_94_">
			<use xlink:href="#SVGID_93_"  style="overflow:visible;"/>
		</clipPath>
		<path class="st45" d="M436.6,532.3h-185c-18.6,0-26,0-39.4,3.7c-13.4,3.7-29,6.7-43.1,6.7s-32-0.7-81.8-1.5
			c-45-0.7-128.2,2.3-143.8,2.9V574h493.1V532.3z"/>
	</g>
	<g>
		<defs>
			<rect id="SVGID_95_" x="-119" y="-218.1" width="595.3" height="841.9"/>
		</defs>
		<clipPath id="SVGID_96_">
			<use xlink:href="#SVGID_95_"  style="overflow:visible;"/>
		</clipPath>
		<path class="st46" d="M135.3,505.6c1.8-0.4,3.5,0.3,5.2,0.1c0.9-0.1,1.8-0.7,2.7-0.5c0.5,0.1,0.8,0.2,1.3,0.2
			c-0.1-2,3.1-4.1,3.8-1.5c0.4,0.1,0.9,0.2,1.4,0.1c0.2,0,0.4-0.3,0.5-0.3c0.7,0,1,1,1.6,1.2s1.5-0.4,2.2-0.5c0.8-0.1,1,0.3,1.7,0.5
			c0.8,0.2,1.9-0.3,2.8-0.2c0.6,0,1.6,0,2.2,0.3c0.5,0.4,0.4,0.5-0.1,0.7c-0.7,0.3-2.1-0.1-2.9-0.1c-4.3,0-8.6,0.4-12.9,0.4
			c-2.2,0-4.5,0.1-6.6,0.1c-0.5,0-2.6,0.3-3-0.3L135.3,505.6z"/>
	</g>
</g>
</svg>
