<?xml version="1.0" encoding="utf-8"?>
<!-- Generator: Adobe Illustrator 19.0.0, SVG Export Plug-In . SVG Version: 6.00 Build 0)  -->
<svg version="1.1" id="Layer_1" xmlns="http://www.w3.org/2000/svg" xmlns:xlink="http://www.w3.org/1999/xlink" x="0px" y="0px"
	 viewBox="0 0 64.5 64.5" style="enable-background:new 0 0 64.5 64.5;" xml:space="preserve">
<style type="text/css">
	.st0{clip-path:url(#SVGID_4_);fill:#E7B623;}
	.st1{clip-path:url(#SVGID_4_);fill:#FAC425;}
	.st2{clip-path:url(#SVGID_6_);fill:#F3F3F3;}
	.st3{clip-path:url(#SVGID_6_);fill:#E5E5E5;}
	.st4{clip-path:url(#SVGID_8_);fill:#FFE474;}
</style>
<g>
	<defs>
		<rect id="SVGID_1_" width="64.5" height="64.5"/>
	</defs>
	<clipPath id="SVGID_2_">
		<use xlink:href="#SVGID_1_"  style="overflow:visible;"/>
	</clipPath>
</g>
<g>
	<defs>
		<path id="SVGID_3_" d="M0,32.3c0,17.8,14.4,32.3,32.3,32.3s32.3-14.4,32.3-32.3C64.5,14.4,50.1,0,32.3,0S0,14.4,0,32.3"/>
	</defs>
	<clipPath id="SVGID_4_">
		<use xlink:href="#SVGID_3_"  style="overflow:visible;"/>
	</clipPath>
	<path class="st0" d="M14.7,23.9c0.2,0.7,0.9,1.3,1.7,1.3h31.9c0.8,0,1.5-0.5,1.7-1.3L33.7,11.5c-0.8-0.6-2-0.6-2.8,0L14.7,23.9z"/>
	<path class="st1" d="M48.5,49.4H16.1c-1,0-1.8-0.8-1.8-1.8V24.9c0-1,0.8-1.8,1.8-1.8h32.4c1,0,1.8,0.8,1.8,1.8v22.7
		C50.3,48.6,49.5,49.4,48.5,49.4"/>
	<path class="st0" d="M48.5,23.1H16.1c-0.8,0-1.5,0.6-1.7,1.3l16.4,13.3c0.9,0.7,2.2,0.7,3.1,0l16.4-13.4
		C49.9,23.7,49.3,23.1,48.5,23.1"/>
</g>
<g>
	<defs>
		<path id="SVGID_5_" d="M16.6,9.5v13.7h-0.5c-0.1,0-0.1,0-0.2,0c0,0,0,0-0.1,0c0,0-0.1,0-0.1,0c0,0,0,0-0.1,0c0,0-0.1,0-0.1,0
			c0,0,0,0-0.1,0c0,0-0.1,0-0.1,0c0,0,0,0-0.1,0c0,0-0.1,0-0.1,0.1c0,0,0,0,0,0c0,0-0.1,0.1-0.1,0.1c0,0,0,0,0,0c0,0-0.1,0-0.1,0.1
			c0,0,0,0,0,0c0,0,0,0-0.1,0.1c0,0,0,0,0,0c0,0,0,0-0.1,0.1c0,0,0,0,0,0.1c0,0,0,0.1-0.1,0.1c0,0,0,0,0,0.1c0,0,0,0.1-0.1,0.1
			c0,0,0,0,0,0c0,0,0,0.1-0.1,0.1c0,0,0,0,0,0.1c0,0,0,0.1,0,0.1c0,0,0,0,0,0.1c0,0,0,0,0,0.1l16.4,13.3c0.9,0.7,2.2,0.7,3.1,0
			l16.4-13.4c0,0,0-0.1-0.1-0.1c0,0,0,0,0-0.1c0,0,0-0.1,0-0.1c0,0,0,0,0-0.1c0,0,0-0.1,0-0.1c0,0,0,0,0-0.1c0,0,0-0.1-0.1-0.1
			c0,0,0,0,0,0c0,0-0.1-0.1-0.1-0.1c0,0,0,0,0,0c0,0-0.1-0.1-0.1-0.1c0,0,0,0,0,0c0,0-0.1,0-0.1-0.1c0,0,0,0,0,0c0,0-0.1,0-0.1-0.1
			c0,0,0,0,0,0c0,0-0.1,0-0.1-0.1c0,0,0,0,0,0c0,0-0.1,0-0.1,0c0,0,0,0-0.1,0c0,0-0.1,0-0.1,0c0,0,0,0-0.1,0c0,0-0.1,0-0.1,0
			c0,0,0,0-0.1,0c-0.1,0-0.1,0-0.2,0h-1.1V9.5H16.6z"/>
	</defs>
	<clipPath id="SVGID_6_">
		<use xlink:href="#SVGID_5_"  style="overflow:visible;"/>
	</clipPath>
	<path class="st2" d="M42.5,41.7H22c-0.7,0-1.3-0.6-1.3-1.3V16.3c0-0.7,0.6-1.3,1.3-1.3h20.5c0.7,0,1.3,0.6,1.3,1.3v24.2
		C43.8,41.1,43.2,41.7,42.5,41.7"/>
	<path class="st3" d="M39.1,19.6H25.4c-0.2,0-0.3-0.1-0.3-0.3c0-0.2,0.1-0.3,0.3-0.3h13.6c0.2,0,0.3,0.1,0.3,0.3
		C39.4,19.4,39.3,19.6,39.1,19.6"/>
	<path class="st3" d="M39.1,22.8H25.4c-0.2,0-0.3-0.1-0.3-0.3c0-0.2,0.1-0.3,0.3-0.3h13.6c0.2,0,0.3,0.1,0.3,0.3
		C39.4,22.6,39.3,22.8,39.1,22.8"/>
	<path class="st3" d="M32.1,26h-6.7c-0.2,0-0.3-0.1-0.3-0.3c0-0.2,0.1-0.3,0.3-0.3h6.7c0.2,0,0.3,0.1,0.3,0.3
		C32.4,25.8,32.3,26,32.1,26"/>
</g>
<g>
	<defs>
		<path id="SVGID_7_" d="M0,32.3c0,17.8,14.4,32.3,32.3,32.3s32.3-14.4,32.3-32.3C64.5,14.4,50.1,0,32.3,0S0,14.4,0,32.3"/>
	</defs>
	<clipPath id="SVGID_8_">
		<use xlink:href="#SVGID_7_"  style="overflow:visible;"/>
	</clipPath>
	<path class="st4" d="M14.4,48.2c0.2,0.7,0.9,1.3,1.7,1.3h32.4c0.8,0,1.5-0.5,1.7-1.3L33.7,35.6c-0.9-0.7-2-0.7-2.9,0L14.4,48.2z"/>
</g>
</svg>
