<?xml version="1.0" encoding="utf-8"?>
<!-- Generator: Adobe Illustrator 19.0.0, SVG Export Plug-In . SVG Version: 6.00 Build 0)  -->
<svg version="1.1" id="Layer_1" xmlns="http://www.w3.org/2000/svg" xmlns:xlink="http://www.w3.org/1999/xlink" x="0px" y="0px"
	 viewBox="0 0 36 38.6" style="enable-background:new 0 0 36 38.6;" xml:space="preserve">
<style type="text/css">
	.st0{clip-path:url(#SVGID_2_);fill:#E7B623;}
	.st1{clip-path:url(#SVGID_2_);fill:#FAC425;}
	.st2{clip-path:url(#SVGID_4_);fill:#F3F3F3;}
	.st3{clip-path:url(#SVGID_4_);fill:#E5E5E5;}
	.st4{clip-path:url(#SVGID_6_);fill:#FFE474;}
</style>
<g>
	<defs>
		<rect id="SVGID_1_" y="-1.4" width="36" height="40"/>
	</defs>
	<clipPath id="SVGID_2_">
		<use xlink:href="#SVGID_1_"  style="overflow:visible;"/>
	</clipPath>
	<path class="st0" d="M0.4,13c0.2,0.7,0.9,1.3,1.7,1.3h31.9c0.8,0,1.5-0.5,1.7-1.3L19.4,0.6c-0.8-0.6-2-0.6-2.8,0L0.4,13z"/>
	<path class="st1" d="M34.2,38.6H1.8c-1,0-1.8-0.8-1.8-1.8V14.1c0-1,0.8-1.8,1.8-1.8h32.4c1,0,1.8,0.8,1.8,1.8v22.7
		C36,37.8,35.2,38.6,34.2,38.6"/>
	<path class="st0" d="M34.2,12.3H1.8c-0.8,0-1.5,0.6-1.7,1.3l16.4,13.3c0.9,0.7,2.2,0.7,3.1,0l16.4-13.4
		C35.7,12.8,35,12.3,34.2,12.3"/>
</g>
<g>
	<defs>
		<path id="SVGID_3_" d="M2.3-1.4v13.7H1.8c-0.1,0-0.1,0-0.2,0c0,0,0,0-0.1,0c0,0-0.1,0-0.1,0c0,0,0,0-0.1,0c0,0-0.1,0-0.1,0
			c0,0,0,0-0.1,0c0,0-0.1,0-0.1,0c0,0,0,0-0.1,0c0,0-0.1,0-0.1,0.1c0,0,0,0,0,0c0,0-0.1,0.1-0.1,0.1c0,0,0,0,0,0c0,0-0.1,0-0.1,0.1
			c0,0,0,0,0,0c0,0,0,0-0.1,0.1c0,0,0,0,0,0c0,0,0,0-0.1,0.1c0,0,0,0,0,0.1c0,0,0,0.1-0.1,0.1c0,0,0,0,0,0.1c0,0,0,0.1-0.1,0.1
			c0,0,0,0,0,0c0,0,0,0.1-0.1,0.1c0,0,0,0,0,0.1c0,0,0,0.1,0,0.1c0,0,0,0,0,0.1c0,0,0,0,0,0.1l16.4,13.3c0.9,0.7,2.2,0.7,3.1,0
			l16.4-13.4c0,0,0-0.1-0.1-0.1c0,0,0,0,0-0.1c0,0,0-0.1,0-0.1c0,0,0,0,0-0.1c0,0,0-0.1,0-0.1c0,0,0,0,0-0.1c0,0,0-0.1-0.1-0.1
			c0,0,0,0,0,0c0,0-0.1-0.1-0.1-0.1c0,0,0,0,0,0c0,0-0.1-0.1-0.1-0.1c0,0,0,0,0,0c0,0-0.1,0-0.1-0.1c0,0,0,0,0,0c0,0-0.1,0-0.1-0.1
			c0,0,0,0,0,0c0,0-0.1,0-0.1-0.1c0,0,0,0,0,0c0,0-0.1,0-0.1,0c0,0,0,0-0.1,0c0,0-0.1,0-0.1,0c0,0,0,0-0.1,0c0,0-0.1,0-0.1,0
			c0,0,0,0-0.1,0c-0.1,0-0.1,0-0.2,0h-1.1V-1.4H2.3z"/>
	</defs>
	<clipPath id="SVGID_4_">
		<use xlink:href="#SVGID_3_"  style="overflow:visible;"/>
	</clipPath>
	<path class="st2" d="M28.2,30.9H7.7c-0.7,0-1.3-0.6-1.3-1.3V5.4c0-0.7,0.6-1.3,1.3-1.3h20.5c0.7,0,1.3,0.6,1.3,1.3v24.1
		C29.5,30.3,28.9,30.9,28.2,30.9"/>
	<path class="st3" d="M24.8,8.7H11.2c-0.2,0-0.3-0.1-0.3-0.3c0-0.2,0.1-0.3,0.3-0.3h13.6c0.2,0,0.3,0.1,0.3,0.3
		C25.1,8.6,25,8.7,24.8,8.7"/>
	<path class="st3" d="M24.8,11.9H11.2c-0.2,0-0.3-0.1-0.3-0.3c0-0.2,0.1-0.3,0.3-0.3h13.6c0.2,0,0.3,0.1,0.3,0.3
		C25.1,11.8,25,11.9,24.8,11.9"/>
	<path class="st3" d="M17.8,15.1h-6.7c-0.2,0-0.3-0.1-0.3-0.3c0-0.2,0.1-0.3,0.3-0.3h6.7c0.2,0,0.3,0.1,0.3,0.3
		C18.1,14.9,18,15.1,17.8,15.1"/>
</g>
<g>
	<defs>
		<rect id="SVGID_5_" y="-1.4" width="36" height="40"/>
	</defs>
	<clipPath id="SVGID_6_">
		<use xlink:href="#SVGID_5_"  style="overflow:visible;"/>
	</clipPath>
	<path class="st4" d="M0.1,37.3C0.3,38,1,38.6,1.8,38.6h32.4c0.8,0,1.5-0.5,1.7-1.3L19.4,24.7c-0.9-0.7-2-0.7-2.9,0L0.1,37.3z"/>
</g>
</svg>
