<?xml version="1.0" encoding="utf-8"?>
<!-- Generator: Adobe Illustrator 19.0.0, SVG Export Plug-In . SVG Version: 6.00 Build 0)  -->
<svg version="1.1" id="Layer_1" xmlns="http://www.w3.org/2000/svg" xmlns:xlink="http://www.w3.org/1999/xlink" x="0px" y="0px"
	 viewBox="0 0 3198.7 5244" style="enable-background:new 0 0 3198.7 5244;" xml:space="preserve">
<style type="text/css">
	.st0{clip-path:url(#SVGID_2_);}
	.st1{clip-path:url(#SVGID_4_);fill:url(#SVGID_5_);}
	.st2{clip-path:url(#SVGID_7_);fill:#9B9592;}
	.st3{opacity:0.59;clip-path:url(#SVGID_7_);}
	.st4{clip-path:url(#SVGID_9_);}
	.st5{clip-path:url(#SVGID_11_);fill:url(#SVGID_12_);}
	.st6{opacity:0.3;clip-path:url(#SVGID_7_);}
	.st7{clip-path:url(#SVGID_14_);fill:#FFFFFF;}
	.st8{clip-path:url(#SVGID_16_);fill:#FFFFFF;}
	.st9{clip-path:url(#SVGID_18_);fill:url(#SVGID_19_);}
	.st10{clip-path:url(#SVGID_21_);fill:#8AA3B6;}
	.st11{clip-path:url(#SVGID_21_);fill:#6F8FA5;}
	.st12{clip-path:url(#SVGID_21_);fill:#7795AA;}
	.st13{clip-path:url(#SVGID_21_);fill:#CCD599;}
	.st14{clip-path:url(#SVGID_23_);fill:url(#SVGID_24_);}
	.st15{clip-path:url(#SVGID_26_);fill:#587032;}
	.st16{clip-path:url(#SVGID_28_);fill:url(#SVGID_29_);}
	.st17{clip-path:url(#SVGID_31_);fill:url(#SVGID_32_);}
	.st18{clip-path:url(#SVGID_34_);fill:#728437;}
	.st19{clip-path:url(#SVGID_34_);fill:#647C36;}
	.st20{clip-path:url(#SVGID_34_);fill:#54692F;}
	.st21{clip-path:url(#SVGID_34_);fill:#5F7232;}
	.st22{clip-path:url(#SVGID_36_);fill:url(#SVGID_37_);}
	.st23{clip-path:url(#SVGID_39_);fill:url(#SVGID_40_);}
	.st24{opacity:0.2;clip-path:url(#SVGID_42_);}
	.st25{clip-path:url(#SVGID_44_);fill:#FFFFFF;}
	.st26{clip-path:url(#SVGID_42_);fill:#FAAB76;}
	.st27{clip-path:url(#SVGID_42_);fill:#E5DDC0;}
	.st28{clip-path:url(#SVGID_42_);fill:#D2CCB2;}
	.st29{clip-path:url(#SVGID_42_);fill:#264790;}
	.st30{clip-path:url(#SVGID_42_);fill:#F5904F;}
	.st31{clip-path:url(#SVGID_42_);fill:#203A70;}
	.st32{clip-path:url(#SVGID_42_);fill:#8AA3B6;}
	.st33{clip-path:url(#SVGID_42_);fill:#6F8FA5;}
	.st34{clip-path:url(#SVGID_42_);fill:#DCDBDB;}
	.st35{clip-path:url(#SVGID_42_);fill:#FFFFFF;}
	.st36{clip-path:url(#SVGID_42_);fill:#1E3966;}
	.st37{clip-path:url(#SVGID_42_);fill:#3F3027;}
	.st38{clip-path:url(#SVGID_42_);fill:#7F4630;}
	.st39{clip-path:url(#SVGID_42_);fill:#653825;}
	.st40{clip-path:url(#SVGID_42_);fill:#412314;}
	.st41{clip-path:url(#SVGID_42_);fill:#586e1c;}
	.st42{clip-path:url(#SVGID_46_);fill:url(#SVGID_47_);}
	.st43{clip-path:url(#SVGID_49_);fill:url(#SVGID_50_);}
</style>
<g>
	<defs>
		<rect id="SVGID_1_" x="-1.3" y="0" width="3200" height="5528.7"/>
	</defs>
	<clipPath id="SVGID_2_">
		<use xlink:href="#SVGID_1_"  style="overflow:visible;"/>
	</clipPath>
	<g class="st0">
		<defs>
			<polygon id="SVGID_3_" points="0,0 -0.9,5162.1 3198,5162.1 3198.4,0 			"/>
		</defs>
		<clipPath id="SVGID_4_">
			<use xlink:href="#SVGID_3_"  style="overflow:visible;"/>
		</clipPath>
		
			<linearGradient id="SVGID_5_" gradientUnits="userSpaceOnUse" x1="-0.2824" y1="5431.9971" x2="0.7176" y2="5431.9971" gradientTransform="matrix(0 -5100.4268 5100.4268 0 -27703904 4969.3242)">
			<stop  offset="0" style="stop-color:#DFF1FC"/>
			<stop  offset="0.3377" style="stop-color:#CFEAFA"/>
			<stop  offset="0.9915" style="stop-color:#A3D9F6"/>
			<stop  offset="1" style="stop-color:#A3D9F5"/>
		</linearGradient>
		<rect x="-0.9" y="0" class="st1" width="3199.3" height="5162.1"/>
	</g>
	<g class="st0">
		<defs>
			<rect id="SVGID_6_" x="-1.3" width="3200" height="5528.7"/>
		</defs>
		<clipPath id="SVGID_7_">
			<use xlink:href="#SVGID_6_"  style="overflow:visible;"/>
		</clipPath>
		<path class="st2" d="M78.6,4488.2l0.3-158l4.2-19l4.8,15.6v-19l0.8-8.2l1.5,6.9l4.5-20.6l4.2,19l24.1-164.5l23.2,165.1l3-19.9
			l3.4,20.1l2-4.6l0.3,11l0.4,15.1l4.1-14.9l4.5,18.2l0.2,157.9c-11.1,5.1-17.6,9.7-43.7,10.1C102.7,4498.2,90,4493.8,78.6,4488.2"
			/>
		<g class="st3">
			<g>
				<defs>
					<rect id="SVGID_8_" y="597.4" width="3198.4" height="4196.4"/>
				</defs>
				<clipPath id="SVGID_9_">
					<use xlink:href="#SVGID_8_"  style="overflow:visible;"/>
				</clipPath>
				<g class="st4">
					<defs>
						<path id="SVGID_10_" d="M444.4,648.4c36.6,37.4,37.4,80.5,55,123.3c17.5,42.6,37.1,63.4,36.5,111.9
							c37.1-4.6,69.6,30.6,78.4,62.2c26.5-68.1,161.5-156.3,219.9-75.2c53.6-121,233.3,7,243.6,93.2c4.4,36.2-13.4,56.7-18.7,88.4
							c-5.4,32.6,9.8,75,13.8,108c30.3,4.6,63.7-59.2,91.3-75.2c71.5-41.7,197.3-48.8,251.8,23.4c14-86.2,49.7-121.8,143.7-144.4
							c-28-241.9,573.6-264.8,529.6-2c22.7-40.5,76.1-27.8,106-18.7c82,25,93.5,114.1,102.7,189.4c1.9,16-8.2,57,0.1,72.2
							c3.7,6.8,37.7,28.1,43,34.3c33.5,38.8,37.9,86.4,36.5,133.9c-0.5,2.6-0.8,5.5-0.3,9c0.1-3,0.2-6,0.3-9c1.3-6,4.5-10.3,6.1-17
							c45-3.4,92.6-1.6,119.6,34.1c29.3-122.3,226.5-107.5,324.8-96.2c79.2,9.1,109.5,42.3,111,105.6c-2.4,5.5-2.9,13.2-0.6,23.5
							c0.6-8.3,0.8-16.1,0.6-23.5c8.7-19.8,42.5-11.8,65.6-3.5c55,19.9,104.3,61.1,123.1,114c10-34.4,39.6-25.2,70.6-5.4v3289.1H0
							V751.5C41.2,614,340.5,542.1,444.4,648.4"/>
					</defs>
					<clipPath id="SVGID_11_">
						<use xlink:href="#SVGID_10_"  style="overflow:visible;"/>
					</clipPath>
					
						<linearGradient id="SVGID_12_" gradientUnits="userSpaceOnUse" x1="-0.2413" y1="5432.0273" x2="0.7587" y2="5432.0273" gradientTransform="matrix(1353.7299 3886.0012 3886.0012 -1353.7299 -21107278 7356134.5)">
						<stop  offset="0" style="stop-color:#D0EAF6"/>
						<stop  offset="1.282966e-002" style="stop-color:#CFEAF6"/>
						<stop  offset="0.6108" style="stop-color:#B8E1F7"/>
						<stop  offset="1" style="stop-color:#B0DEF7"/>
					</linearGradient>
					<polygon class="st5" points="2852.3,-451.5 4519.2,4333.7 346.1,5787.4 -1320.8,1002.3 					"/>
				</g>
			</g>
		</g>
		<g class="st6">
			<g>
				<defs>
					<rect id="SVGID_13_" x="23.5" y="3471.5" width="975" height="303.1"/>
				</defs>
				<clipPath id="SVGID_14_">
					<use xlink:href="#SVGID_13_"  style="overflow:visible;"/>
				</clipPath>
				<path class="st7" d="M177.9,3589.3c12.5-34.5,67.1-114.4,125.4-73.8c19.9-21.7,41.7-6.7,52.2,15.1c14.8-16.7,35-34.7,42.3-59.1
					c10,5.8,27.9,7.9,37.7,16.4c31.6-30.5,41,10.4,56.6,17.8c13.5,6.4-3,17,22.8,19.9c1.2,0.1,34.7-12.4,39-13.7
					c-5.6-32.7,118.9-46.5,92.8,27.6c12.5-2,25.2,1.9,38.5-2.2c-14,27.5,15,37.6,45.4,25.1c-6.5-35.2,73.2-63.2,101.5-32
					c8.7-9.6,21.6-10.7,29.2-16.6c1.2,18.8,0.3,38.3,1.7,56.9c55.9-6.3,10.7,52.6-5.8,66.2c4.9,1.5,11.7,7.4,16.4,9.8
					c1.5-1.1,9.7-8.8,11.1-9.3c10.6,8.5,23.8,11.3,30.3,25.8c3.1-4.1,2.7-7.4,5.1-11.8c1.4,0.2,20.4,0.3,20.9,0
					c-1.1,10.2,5.7,16.5,6.3,25.2c18.6-10.8,37-4.4,51.1,10.8c-21.2,19.5-40.1,40.3-56.5,64.6c-49.8-0.7-93.6-9.7-131-6.9
					c-20.4,1.5-51.4,16-74.1,17.5c-25.6,1.6-47.6-23.1-74.2,11c-15.8-24.4-71.6,2.3-106.9,0.9c-5-48.8-58.4-28.2-96.7-32.6
					c-31.3-3.6-45.3-35.2-82.3,0.5c-37.7-19.5-101.6-6.7-129,19.7c-46-29.7-79-19.7-123-39.2c-16.9-7.4-23-27.1-42.5-35.5
					c-14.1-6.1-24.9,11.2-41.4,1.5C-28,3648,126.2,3521.4,177.9,3589.3"/>
			</g>
		</g>
		<g class="st6">
			<g>
				<defs>
					<rect id="SVGID_15_" x="2619.4" y="3097.2" width="975" height="303.1"/>
				</defs>
				<clipPath id="SVGID_16_">
					<use xlink:href="#SVGID_15_"  style="overflow:visible;"/>
				</clipPath>
				<path class="st8" d="M2773.8,3215c12.5-34.5,67.1-114.4,125.4-73.8c19.9-21.7,41.7-6.7,52.2,15.1c14.8-16.7,35-34.7,42.3-59.1
					c10,5.8,27.9,7.9,37.7,16.4c31.6-30.5,41,10.4,56.6,17.8c13.5,6.4-3,17,22.8,19.9c1.2,0.1,34.7-12.4,39-13.7
					c-5.6-32.7,118.9-46.5,92.8,27.6c12.5-2,25.2,1.9,38.5-2.2c-14,27.5,15,37.6,45.4,25.1c-6.5-35.2,73.2-63.2,101.5-32
					c8.7-9.6,21.6-10.7,29.2-16.6c1.3,18.8,0.3,38.3,1.7,56.9c55.9-6.3,10.7,52.6-5.8,66.2c4.9,1.5,11.7,7.4,16.4,9.8
					c1.5-1.1,9.7-8.8,11.1-9.3c10.6,8.5,23.8,11.3,30.3,25.8c3.1-4.1,2.7-7.4,5.1-11.8c1.4,0.2,20.4,0.3,20.9,0
					c-1.1,10.2,5.7,16.5,6.3,25.2c18.6-10.8,37-4.4,51.1,10.8c-21.2,19.5-40.1,40.3-56.5,64.6c-49.8-0.7-93.6-9.7-131-6.9
					c-20.4,1.5-51.4,16-74.1,17.5c-25.6,1.6-47.6-23.1-74.2,11c-15.8-24.4-71.6,2.3-106.9,0.9c-5.1-48.8-58.4-28.2-96.7-32.6
					c-31.3-3.6-45.3-35.2-82.3,0.5c-37.7-19.5-101.6-6.7-129,19.7c-46-29.7-79-19.7-123-39.2c-16.9-7.5-23-27.1-42.5-35.5
					c-14.1-6.1-24.9,11.2-41.4,1.5C2567.9,3273.8,2722.1,3147.2,2773.8,3215"/>
			</g>
		</g>
	</g>
	<g class="st0">
		<defs>
			<path id="SVGID_17_" d="M2792.1,4156.6c-15.5,10-34.1,11.6-42.1,30.2c-6.3,14.6,6.2,42.8-19.7,37.2c-3.1-20.4-14.3-7-20.7-2.5
				c-2.3,1.6,0.8,15.4-3.3,19.6c-7.9,8-22.7,6.6-32.7,6.4c-3-0.1-5.3,0.6-7.5,1.2c-3.8,1.1-6.9,2.1-11.5-0.3
				c-6.4-3.3-3.6-12.3-8.2-14.1c-10-3.9-14.6-17.8-26.3,0.7c-33.8-14.1-17.8,23.7-26.6,35.9c-16,21.8-53.8,3.5-54.5-19.1
				c-11.7,1.7-14.4-8.8-12.1-21c-16.7,0.7-13.7-12-24.8-15.7c-5-1.6-9.8-1.3-14.7-1c-4.6,0.3-9.2,0.6-14.2-0.7
				c-14.5,9.8-29.1,18.1-32.7,35.7c-2,10.1-1.1,15.4,1.3,18.7c-0.4,0.2-0.9,0.3-1.3,0.6c-14.1,8.6-5.2,17.6-1.1,27.6
				c-0.5,3.2-1.5,7.3-2.3,10.6c-2,0.2-6.7-1.2-12.1-2.7c-12.6-3.3-28.7-6.7-21.8,10.9c-11.4,4.3,1.2,15.3,4.4,21.1
				c-12.7,1-40.2,17.2-40,31.4c-3.6,3.2-7.3,6.6-11.1,9.8c-22.1,18.4-32,9.8-47.6,1.3c-9.7-5.3-21.6-10.6-40.1-9.5
				c-29.7,1.8-55.6,78-83.3,47.5c-16.8,22.5-51.5,11.2-83.3,0c-21.3-7.5-41.4-15-54-12.5c-25.3,5.2-27.2,22.8-46.9,31.2
				c-10,4.3-21.1,3.5-32,2.8c-8.4-0.6-16.7-1.1-24.2,0.6c-31.9,7.2-64,37.1-98,31.9c-68.7-10.6-122.1-86.1-198.5-30.5
				c-17.3,12.6-26.9,32.7-43.1,44.9c-11,8.2-28.2,13.2-39.5,22.5c-17,14.1-29.9,47.6-50.6,57.1c-12.6,5.8-22.3,2.4-32.6-1.1
				c-6.4-2.2-13.1-4.3-20.8-4.3c-11.5,0.1-43.4,6.4-55.1,10c-7.4,2.3-13.3,13.4-20.8,17.3c-3.6,1.9-7.8,1.7-11.9,1.6
				c-3.8-0.2-7.6-0.3-10.6,1.3c-19.4,10.5-31.5,41.2-52.2,44.2c-18.4,22.3-35.9,46.9-46.9,73.8c-21.2,51.5-4.7,57.3,49.8,70.8
				c57.2,14.2,118.3,13.8,178.7,13.5c32.5-0.2,64.8-0.4,96.2,1.7c62.2,4.1,121.9,18.5,183.6,25.6c142.9,16.4,291.5,9.7,434.6,4.5
				c274.6-10,550.2-3.7,824.9-8.4c55.9-1,72.9-18.3,126.6-34.9c9.5-2.9,17.9-5.6,28-8.2v-533.6c-10.6-5.7-20.3-10.1-30.6-14.1
				c-11.1-4.4-23.6-3.3-32.8-20.1c-4-7.2,2.3-16.9-3.4-24.2c-7.5-9.6-40.9-21.7-53.3-24.7c-19.9-4.9-44-10.8-44.8,16
				c-7.6-10.5-18.5-14.1-26.8-2.9c-27.5-12.3-36.6,32-54.4,43.4c-2.6-12.5-5.6-21.7-9.1-33.2c-3.8,0.5-8,0-12.2-0.5
				c-4.5-0.5-9-1.1-13-0.4c-0.7-22.4-24.3-24.6-39.5-30c-13.3-4.7-23.4-7.3-32.9-7.3C2821.5,4140.4,2809.6,4145.3,2792.1,4156.6"/>
		</defs>
		<clipPath id="SVGID_18_">
			<use xlink:href="#SVGID_17_"  style="overflow:visible;"/>
		</clipPath>
		
			<linearGradient id="SVGID_19_" gradientUnits="userSpaceOnUse" x1="-0.3701" y1="5431.9893" x2="0.6299" y2="5431.9893" gradientTransform="matrix(0 -905.9941 905.9941 0 -4919134.5 4311.5659)">
			<stop  offset="0" style="stop-color:#BEE2F8"/>
			<stop  offset="6.610600e-004" style="stop-color:#BEE2F8"/>
			<stop  offset="9.598025e-002" style="stop-color:#C4E4F4"/>
			<stop  offset="0.9966" style="stop-color:#FFFAE2"/>
			<stop  offset="1" style="stop-color:#FFFAE2"/>
		</linearGradient>
		<rect x="1243.6" y="4140.4" class="st9" width="1943.8" height="694.9"/>
	</g>
	<g class="st0">
		<defs>
			<rect id="SVGID_20_" x="-1.3" width="3200" height="5528.7"/>
		</defs>
		<clipPath id="SVGID_21_">
			<use xlink:href="#SVGID_20_"  style="overflow:visible;"/>
		</clipPath>
		<path class="st10" d="M1527.9,4695.8c-9.8-6.2-28.2-13.1-39.7-15.2c-7.3-1.3-15.4,1.2-22.5-0.3c-8.2-1.8-15-9.7-24.8-8.4
			c-7.4,0.9-9.6,7.6-16.1,8.6c-4,0.6-25.5-22.4-28.5-24.6c-12.1-9-28.4-20.7-44.6-19.8c-10.9,0.6-17,5.1-21.8,14.3
			c-6.5-2.9-10.3-10-15.8-14.3c-9.5-7.3-19.1-9.3-30.3-10.3c-3.6-0.3-6.4,2.2-10,1.4c-8.6-2-16.3-11.4-25.8-13.8
			c-11.7-2.9-19.7-0.9-30.1,5.2c-7.6,4.4-18.9,19.2-27,21c-8.8,2-15.3-5.1-22.3-12.9c-10.8-12.1-22-24.1-42.4-20
			c-13.2,2.6-18.6,16.1-31.1,16.3c-11,0.2-11.7-9.6-20.8-16.4c-13.9-10.3-21.7,0.2-35.3-2.7c-4.8-1-8.3-6.6-13.8-8.6
			c-1.9-0.7-20.4-2.4-20.3-4c0.8-20.9-16.1-32.8-36.3-20.2c-11.2-19.2-58.2,14.8-57,32.6c-13.6,0.9-15.5-2.2-26.3-7.9
			c-13.8-7.3-26.5-0.7-41,1.5c0.4,2.4-1.3,6.5-0.7,9.2c-7.5,1-11-10.6-16.6-14.6c-3.9-2.8-10.7-6.7-13.8-8.4
			c-3-1.6-4.6-5.4-11.1-6.7c-5.2-1-10.8-2-15.6-2.9c-12.8-2.5-15.6-1.4-25.9,7.9c-2.6,2.4-1.4,5.4-4.5,7.2c-2.4,1.4-6.9-1.2-9.6,0.1
			c-2.6,1.3-2,5.4-4.7,7.1c-2.1,1.3-6-0.3-7.5,0.8c-4.9,3.6-2.5,8.5-11.1,8.3c-5.8-0.1-9.3-7.9-16.3-8.4
			c-4.4-24.8-30.4-18.7-47.6-20.4c-3.2-17.3-20.7-17.2-33.9-20.2c-7.6-1.8-5.4-6.6-16.2,0.1c-9.2,5.7-31.3,26.3-32,36.7l-15.3,23.2
			c0,7.1-0.4,14.7,0.3,21.5c50.8,11.9,100.3,24.7,152.3,30.7c49.2,5.7,99,11.3,148.5,13c41.2,1.4,81.2,7.6,122.2,12.1
			c26.5,2.9,53,8.6,79.6,9.9c28.6,1.4,57.5-0.4,86.1,0.2c58.1,1.2,115.9,9.8,174,9.4c14.2-0.1,164.2,9.2,203.2,1.8v-13.8
			C1526.1,4698.6,1527.5,4695.5,1527.9,4695.8"/>
		<path class="st11" d="M1053.4,4637.3c-5.3-6.5-12.2-3.9-16.2-10.6c-3-5.1-2.4-11.2-7.9-15.4c-8.1-6.1-22-6-30.9-3
			c-2.1-4.5-0.6-9.4-2-13.7c-1.3-4.3-4.3-7.7-7.5-11.6c-2.9-3.6-1.9-6.1-7.9-5.4c-2.7,0.3-7.2,3.3-9.5,4.8c-4.4,2.8-4.7,3.7-5.9,8.1
			c-1.1,4.2,0.3,15.9-8,13.2c-9.8-3.1-0.2-15.7,3.5-18.8c-4.1-3.2-15.3-4.8-19.8-1.8c-4.2,2.8-2.9,8.4-5.7,11.7
			c-5.2,6-13.2,7.8-17.4,15.6c7.9,8.2,12.3,11.4,22.9,13.5c4.7,0.9,16.4,6,9,11.9c-7-3.4-15.5-0.7-22.6-2.7
			c-1.6-0.5-2.4-3.1-4.3-3.7c-4-1.4-8.3,0.1-12.2-0.9c-9.7-2.4-19.9-9.3-30.9-11.6c-4-0.8-8.2-2.1-12.4-0.9
			c-6.6,1.9-6.6,7.9-10.8,10.8c-13.5,9.4-28.7-13.2-33.9-23.2c-4.9-9.4-5.4-12.9-15.4-15.1c-11.2-2.4-26.7-2.5-38.8,1.1
			c-0.9,5.2,2,6.4,5.4,8.7c3,1.9,8.1,2.1,10.6,5c1.1,1.2,0.2,4.3,1.3,6.1c1.5,2.5,14.1,14.3,6.3,16.5c-1,0.3-10.2-5.7-10.9-6.4
			c-4.5-4.2-5.7-12.3-11.7-15.3c-3.5-1.8-13.1-2-17.1-1.1c-8.9,2.1-16.2,14.4-25.6,11.8c-7.2-2-9.5-5.6-18.1-5.2
			c-4.1,0.2-8.2,0.9-12.3,0.7c-1.8-8.8-10.3-7.4-16.8-9c-7.5-1.9-9-3.6-13.6-8.6c-4.6-4.8-8.7-10.2-15.4-10.7
			c-7.7-0.6-14,5.9-20.8,3.7c-7.4-2.5-8.4-7.1-17.6-6.1c-11.4,1.2-21.2,11.9-23.2,23.4l-1.8,12.7c-1,13.4,9.1,24.5,20.6,29
			c31.9,12.6,70.7,7.3,104.4,7.3c62.4,0,124.4,6.3,186.8,4.6c35.7-1,71.5,0,107.2-1.7c16.8-0.8,38-2.2,54.2,2.5
			C1061.5,4653.3,1056.2,4640.8,1053.4,4637.3"/>
		<path class="st11" d="M1172.5,4644.5c-2.6-2.8-5.3-5-6.9-8.3c-1.6-3.6-2.2-6.7-5.3-9.5c-5.5-5.1-15-7.8-22.1-9.5
			c-5.9-1.5-10.8-1.2-16.6,1c-5.2,1.9-12.4,3.7-16.7,7.2c-1.7,1.4-4.8,3.7-5.8,5.2c7,2.2,12.7,11,11.6,18.8
			c-4.3,1.1-6.3-3.5-8.2-6.4c-2.2-3.4-3.3-4.2-7-6.1c-5.6-2.8-6.9-6.6-10.5-11.5c-2.2-3.1-5.3-5.2-8.4-7.4
			c-6.8-4.9-12.3-4.5-20.6-3.9c-4.2,0.3-9.8,0.3-8.9,6l1-0.5c0.4,5.1,7.4,6.3,11.2,7.7c4.1,1.6,4.8,2.9,5.9,7.5c0.7,3.2,1,5,2.8,7.7
			c2.5,3.9,2.7,5.3,2.7,10.4c0,4.1-0.6,4.6,3.9,4.9c8.6,0.5,16.9-1.8,25.6,0c6.4,1.4,12.2,4.3,18.7,5.4c9,1.6,17.6-3,26.5-1.3
			c5.3,1,9.6,3.3,15.1,3.4c4,0,7.1,1.1,10.8,1.5c1.7,0.2,9.2,0.4,10.7-0.9C1188.7,4659.8,1175.8,4648,1172.5,4644.5"/>
		<path class="st12" d="M1464.7,4691.1c-8.4-2.8-12.9-10.8-21.4-4.4c-3.7,2.8-4.7,4.7-9.4,3.9c-4-0.7-7.9-2.2-11.8-3.6
			c-10.9-4.1-27.2-4.6-32.3-16.5c-3.3-7.8-12.1-6.1-17.2-13.3c-2.8-4-2.7-5.9-7.8-7.7c-3.8-1.4-15.8-6-19.7-3.3
			c-2.4,1.7-0.3,1.7-1.6,3.8c-2.1,3.5-3.8,3.6-7.3,5.8c-5.8,3.7,0.8,7.2-2.5,11.8c-2,2.8-8.5,1.6-11.3,0.5
			c-6.4-2.5-7.9-6.9-9.7-12.8c-2.3-7.3-8.3-6.5-12.3-11.5c-3.1-3.9-4.6-7.3-9.8-9.1c-3.1-1.1-13.4-2.8-16.2-0.9
			c-3.4,2.3,2,6.9,3.4,9.2c3,5,6.1,14.6-2.9,15.7c-2.5-4.6-3.7-9.3-5.4-14.2c-1.8-5.4-6.2-7.6-10.9-11.3c-8.2-6.5-14.3-8.9-24.6-8.4
			c-6.3,0.3-11.9,2.3-16.6,6.4c-1.9,1.7-3.3,3.3-5.4,4.4c-5.9,3.1-8.9,5.3-12.9,11.2c-2.7,4-6.6,8.8-7.1,13.8v4.9
			c8.7,2.3,17.1,5.8,25.9,7.9c11.2,2.6,23.9,1.9,35.4,2.9c13.3,1.2,26.2,2.6,39.3,5.3c20,4.1,40,6.1,60.2,9.1
			c20.6,3,40.6,4,61.3,5.7c20.3,1.7,40.5,4.7,60.6,7.9c7.4,1.1,14.9,2.4,22.4,2C1497.3,4689.3,1475.2,4694.6,1464.7,4691.1"/>
		<path class="st13" d="M567.9,4631.7c0,0,607.6,5,960,75.1h-966L567.9,4631.7z"/>
	</g>
	<g class="st0">
		<defs>
			<path id="SVGID_22_" d="M68.5,4459.5c-3.7,6.6-1.4,17.5-8.4,21.5c-10.1-5.4-31.5-25.5-40.5-6.2c-7.1-2.9-13.7-7.4-20.9-10.9
				v263.3c0.9,0,1.8,0.1,2.7,0.1c39,2.7,99.8,25.4,130.2-12.1c5.6-6.9,7.6-19,16.5-22.8c2.8-1.2,10.9,0.1,12.9,0.1
				c12.4,0.6,25.3,2.5,37.7,0.6c22.4-3.4,41.3-20.3,47.9-41.9c4.4-14.4,0.1-31.5,6.6-45.1c5.3-11.1,12.1-13.7,7-27.8
				c-4-10.9-12.7-19.3-21.1-26.9l-33.9-22.9c-3.6-12.2-4.7-24.8-14.1-35.3c-3.9-4.3-23-26.6-26.6-11.7c-5.1-5.9-11.4-8.1-17.9-12.3
				c-2.8-1.8-4.3-4-6.9-6.3c-10.1-9.1-19.9-13-33.6-15.1c-4.3-0.7-8.6-1.2-12.8-1.2C83.3,4446.5,74.2,4449.4,68.5,4459.5"/>
		</defs>
		<clipPath id="SVGID_23_">
			<use xlink:href="#SVGID_22_"  style="overflow:visible;"/>
		</clipPath>
		
			<linearGradient id="SVGID_24_" gradientUnits="userSpaceOnUse" x1="-0.1833" y1="5431.8555" x2="0.8167" y2="5431.8555" gradientTransform="matrix(326.6654 100.1049 100.1049 -326.6654 -543945.75 1778900.125)">
			<stop  offset="0" style="stop-color:#D1BE2A"/>
			<stop  offset="0.695" style="stop-color:#7A8433"/>
			<stop  offset="1" style="stop-color:#587032"/>
		</linearGradient>
		<polygon class="st14" points="21.6,4371.8 351.2,4472.8 242.5,4827.4 -87,4726.4 		"/>
	</g>
	<g class="st0">
		<defs>
			<rect id="SVGID_25_" x="-1.3" width="3200" height="5528.7"/>
		</defs>
		<clipPath id="SVGID_26_">
			<use xlink:href="#SVGID_25_"  style="overflow:visible;"/>
		</clipPath>
		<path class="st15" d="M180.2,4559.1l-15.3-51.3c2.5-23.9-58-48-58.9-14.8c-11.8-4.3-20.2,14.1-24.3,22.4
			c-5.3-3.5-12.5-3.7-17.1-6.7c-8.1-5.1-13.2-11.9-24-11.9c-29.3,0-61.6,34.9-63.7,63.2c-12.5-12.7-9-34.4,0.5-47.9
			c7.5-10.6,18.9-8.9,26-17.3c-6.5-6.5-19.5-10.2-28.5-11.2c-12.2-1.3-16.5,5.7-26.3,9c-11.2,3.8-16.5,2.5-25.4,12.7
			c-7.1,8.2-6.2,12.7-7.5,22.5c-2.4,18.7-24.3,25.8-20.6,48.7c1.4,8.4,8.4,9.6,11,16.3c1.7,4.5,0.1,14-0.1,18.9
			c-7.5,1.8-18,8.4-17.6,17.2c-16.4-0.9-27.2,14.5-26.1,30c8.7-8.2,17-12.3,27.4-15.5c12.7-4,48.2-10.4,52.2,10.2
			c-7.8,2.3-18.7-5.6-27.1-6.3c-6.5-0.6-11,0.1-16.4,3.5c-5.4,3.5-7.3,9.7-11.1,14.1c-4,4.7-9,7-12.1,13c-15.7-9.8-39.9-2.4-43.4,15
			c-0.9,4.2-0.6,11.4,0.8,15.3c1.3,3.5-0.3,3.5,2.6,5.8c0.6,0.5,6.8-0.1,7-0.1c14.1,1.2,28.8,0.3,42.9,1.1
			c44.1,2.7,88.1,10.2,132.2,11.9c17.8,0.7,34.2,0.9,50.8-4.2c29.1-8.8,64.1-22.2,84.7-46c17.4-20.1,5.5-46.5,13.4-70
			c3.7-11,11.1-20.9,12.9-32.5C179.8,4569.3,178.2,4563.9,180.2,4559.1"/>
	</g>
	<g class="st0">
		<defs>
			<path id="SVGID_27_" d="M323.7,4434.5c-20.3,3.1-43.9,10.7-45.5,34.8c3.8,0.3,7.3-0.7,10.5-1.6c7.2-2.1,13.1-4.2,18.2,7.4
				c-10.1,4.7-18.8,6.3-22.2,18.2c-1.5,5.1-0.2,6.8-3.3,11.6c-3.1,4.9-8.9,6.2-9.7,12.3c-2.9-14.3-32.4-8.3-36.2,3.5
				c-13.2-0.5-33.1,8-34.8,22.9c-1.1-3.7-2.8-10.9-6.3-13.1c-8.6-5.5-32.1-0.9-40.7,2.1c-3,1-3.4,2.7-6.5,3.4
				c-6,1.5-13,0.4-19.9-0.6c-6.3-0.9-12.6-1.9-18.3-1c-27.5,4.1-49.6,33.4-51.3,60.4c-0.3,5,1.2,10.1,0,14.8
				c-1.4,5.7-8.7,13.3-11,19.2c-3.6,9.2-7.8,22.7-4.8,32.6c1.6,5.3,5.7,8.7,7.2,13.5c2.4,7.9,1.5,14.3,8.5,18.7
				c-0.2,4.6-0.1,9.4,3.4,12.9c1.9,1.8,5.9,1.1,7.3,2.4c2.1,2.1,2.1,5.5,4.2,7.8c11.4,12.4,24.7,10.4,37.9,8.4
				c8.5-1.3,16.8-2.6,24.6,0c21.4,7,46.9,6.8,67.9-1.7c5-2,9.3-4.6,14.4-5.9c19-5,43.8-1.1,62,4.3c21,6.2,41.7,12.2,59.3-4.1
				c12.6-11.7,22.7-29.3,38.2-37.5c10-5.3,23.2-4.5,35.8-3.6c6.2,0.4,12.3,0.8,17.7,0.5c24.4-1.5,35-10,39.6-32.7
				c2.1-10.1,2.4-6.4,8.7-10.9c19.8-14.2,30.9-31.4,32.5-56.5c1.7-26.2-8.1-45.2-16.3-69c-3.6-10.6-4.9-18.9-17.3-24
				c-6.2-2.6-13.1-3.4-18.8-0.2l-14.2-9.8c-0.1-3.5,0.6-7.3,0.2-10.7c-1.5-14.1-15.5-23.6-28.6-27.6c-11.1-3.3-17.5,0.4-27.3,6.8
				c-6-9.3-17.8-11.9-30.4-11.9C345.7,4430.5,332.5,4433.1,323.7,4434.5"/>
		</defs>
		<clipPath id="SVGID_28_">
			<use xlink:href="#SVGID_27_"  style="overflow:visible;"/>
		</clipPath>
		
			<linearGradient id="SVGID_29_" gradientUnits="userSpaceOnUse" x1="-0.2655" y1="5431.7866" x2="0.7345" y2="5431.7866" gradientTransform="matrix(469.1289 0 0 -469.1289 166.227 2552790.5)">
			<stop  offset="0" style="stop-color:#728437"/>
			<stop  offset="7.112914e-002" style="stop-color:#6F8136"/>
			<stop  offset="0.6348" style="stop-color:#5C7132"/>
			<stop  offset="1" style="stop-color:#556B30"/>
		</linearGradient>
		<rect x="38.6" y="4430.5" class="st16" width="473.9" height="303.4"/>
	</g>
	<g class="st0">
		<defs>
			<path id="SVGID_30_" d="M481.7,4408.2c-4.6,0.7-9.4,1.9-12.9,5.2c-1,0.9-7.3,12.1-5.6,12.2c-8.9-0.4-25.9,6.9-24.5,17.6
				c-14.9-5.6-48.1-14.8-59.5,2.3c-7.9,11.8-1.9,25.1,4.8,34.2c-10.5,1.7-27.6,0-35.9,8.4c-1.9,2-1.8,6.4-3.4,8.5
				c1.7,0.1,4.5,0,7.6-0.2c9.5-0.5,22.6-1.1,23,6.8c-1.5,0.1-3.6,0-6-0.1c-9-0.2-22.2-0.4-26.4,5.5c-3.2,4.5-0.8,4.5-0.3,8.9
				c0.3,3.1,1.2,7.1,2.2,10c2.6,7.4,11.2,12.8,13.2,19.4c2.7,8.8-3.7,5.5-6.7,14.6c-5.3-3.7-24.2-18.3-27.5-4.5
				c-10.7-4.3-27.2,2.9-30,15.2c-0.6,2.6,0.2,5.1,0.8,7.7c1.3,5.5,4.9,9.7,8.9,13.5c4.7,4.6,17.1,7.4,20.4,11.9
				c7.9,10.9-8.1,7.4-18.4,7.4c-15.6,0-22.9,6.6-27.3,20.9c-2.4,7.9-8.4,19.8-4.4,28.2c3,6.3,10.4,7,15.3,11
				c1.4,1.2,3.1,5.2,4.4,5.9c2.8,1.7,6.2,1.6,9.5,1.6c3,0,5.9,0,8,1.3c4.5,2.8,5,8.5,7.5,13c9.4,16.7,24.3,16.1,41.4,17.8
				c26.9,2.7,54.3,2,81.3,4.4c30.4,2.6,59.4-1.5,89.3-3.7c23.8-1.7,54.2,2.4,71.9-13.8c9.5-8.7,18-14.2,21.1-26.6
				c2.3-9.2,4.8-10-2.1-19.3c-2.4-3.2-6-3.4-6.7-8c-0.4-3.1,3.1-5,3.2-8.3c0.2-5.3-4.3-9-5.7-13.7c-1-3.2-0.1-6.5-1.1-9.5
				c-6-19.4-31.7-25.7-48.1-32.8c16.6-2.2,17.4-9.6,8.9-22.1c-3.7-5.4-7-5.9-3.4-10.7c6.2-8.1,24.5-4.7,28.7-16.5
				c2.4-6.7-0.7-7-3.6-11.1c-6.1-8.6-5.6-2.3-0.9-9.6c1.6-2.4,4.9-4.3,5.9-7c1.8-4.6-0.9-5.7-0.4-9.4c1.1-8,8.2-11.8,2-19.9
				c-4.6-6-12.3-6.6-18.7-9.3c-9.3-3.9-4.8,0.7-7.4-7c-5.2-15.2-9.5-23.5-24.6-30.1c-11.1-4.8-22.1-10.2-33.4-14.5
				c-8.7-3.3-18.8-6.2-28.4-6.3C485.6,4407.8,483.6,4407.9,481.7,4408.2"/>
		</defs>
		<clipPath id="SVGID_31_">
			<use xlink:href="#SVGID_30_"  style="overflow:visible;"/>
		</clipPath>
		
			<linearGradient id="SVGID_32_" gradientUnits="userSpaceOnUse" x1="-0.1587" y1="5431.6602" x2="0.8413" y2="5431.6602" gradientTransform="matrix(250.0233 76.6183 76.6183 -250.0233 -415869.9375 1362557.75)">
			<stop  offset="0" style="stop-color:#D1BE2A"/>
			<stop  offset="0.695" style="stop-color:#7A8433"/>
			<stop  offset="1" style="stop-color:#587032"/>
		</linearGradient>
		<polygon class="st17" points="300.4,4307.3 715.5,4434.5 597.4,4819.7 182.4,4692.6 		"/>
	</g>
	<g class="st0">
		<defs>
			<rect id="SVGID_33_" x="-1.3" width="3200" height="5528.7"/>
		</defs>
		<clipPath id="SVGID_34_">
			<use xlink:href="#SVGID_33_"  style="overflow:visible;"/>
		</clipPath>
		<path class="st18" d="M564.5,4669.2c-0.6-1.6-2.3-3-2.5-4.8l-13.4-4.2c-2.3,0.3-3.6,2.6-5.9,3.4c-4.5,1.5-9-0.2-13.8,2.1
			c-2.8,1.4-5.9,3.2-7.8,5.7c-2.1,2.8-1.1,5.5-2.5,8.2c-1.8,3.5-8.5,2.4-11.4,6.2c-11-10.6-40.4-21.5-51.9-5.9
			c-2.8,3.8-3.4,3.8-8.7,5.9c-2.5,1-5,2-7.5,3c-1.8,0.8-3.5,1.9-5.1,3.1c-3,0.6-4.9-0.9-8.3-1.5c-12.8-2.2-24.9,2.4-37.1,5
			c-6.1,1.3-13.8-2.1-19.5,1.2c-2.4,1.4-10,10.6-8.9,13.9c1,3,10.9,3.2,12.2,3.4c18,2.1,36-0.2,54.1-0.7c15.5-0.4,31.2,1.2,46.6,2.3
			c15.7,1.2,31.1,3,46.9,3c9.4,0,18.8,0,28.2,0c4.1,0,9.1,0.9,12.9-0.6c5.9-2.4,3.3-13.4,3.6-18.6
			C565.3,4690.2,567.5,4677.8,564.5,4669.2"/>
		<path class="st19" d="M357,4694.8c-0.9-0.8-5.2-6.4-6-7.6c-6.1-9.2-12.7-16.3-24.9-21.7c-24.8-10.9-47.3-27.1-76.9-22.9
			c-13.9,2-29.3,21.5-43.1,15c-0.2-1.2-0.3-2.3-0.4-3.4c-6.2-0.6-16.3,3.1-21.7,1.2c-2.4-0.9-4.3-5.6-6.4-7.5
			c-3-2.6-6.5-6.5-11.1-7.8c-4.2-1.2-7.6,1.8-11.3,1.5c-3.9-0.3-4.9-1.8-9-2.7c-17.4-4-27.8,7.5-42.3,16.3
			c-2.4,1.4-11.4,9.5-13.6,9.8c-4.6,0.6-2.2-1.9-6.9-3.3c-9.1-2.7-14.6-5.7-24.7-5.3c-10.7,0.4-22.6,2.2-27.7,12.8
			c-7.3-0.4-11.6-6-17.5-7.4c-4.3-1.1-9.4,1-13.6-0.1c-2.7-0.7-2.9-3.4-5.4-3.9c-5-1.1-7.9,0.1-13.2,0.1c-12-0.1-21.8-7.2-35-4.9
			c-11.1,1.9-22.7,8.1-32,13.8v11.5c-0.9,11.1-15.5,16.2-11.3,32c1.9,7,2.8,6,11.2,7.2c18.3,2.6,37.7,2.2,56.2,4.1
			c68.3,7.3,143.4,14.3,211.7,4.8c54.5-7.6,109.2-3,164-6.5c6.8-0.4,16.2,1.4,19.9-5.1C371.8,4705,362.5,4699.5,357,4694.8"/>
		<path class="st20" d="M323.3,4686.9c0.2-16.1-17.3-16.8-30.6-16.5c0-11.1-17.7-13.6-25.8-13.8c-8.5-0.3-16.1,1-22.7,4.2
			c-3.4,1.6-5.2,5-9.1,6.1c-5.4,1.6-12.3-0.3-17.6,1.2c-4.9,1.3-6.4,3.3-12.3,3.9c-9,0.9-11-0.7-18.2,4
			c-5.7,3.7-10.7,11.1-16.5,15.1c-1.2-15.4,5.7-15.6,16.5-23.5c-3.2-3.7-18.6-7.3-24.1-8.3c-3.7-0.7-7.9,0.6-11.6,0
			c-3.3-0.5-5.8-3.3-8.9-3.7c-7.8-1-15.2,1.4-21.9,3.5c-8.4,2.6-7.3,4.8-12.3,9.2c-3.7,3.3-9.4,5.4-12.5,10.2
			c-2.1,3.2-1.6,11.5-4,13.4c-14.6,11.7-5.3-18-5.4-20.6c-8.7-1.2-17.4-2.9-26.5-3c-7.4-0.1-11.3,0-16.3,2.5
			c-3.6,1.8-4.4,7-10.5,7.9c1.2,5.7,5.6,9.8,4.9,16.1c-10.6,2.6-17.7-15.4-24.2-19.6c-7.9-5.2-18.1,1.4-26.5,0.8
			c-3.7-0.3-10.3-1.6-14-2.6c-8.3-2.3-14.9-8.6-24.1-7.4c-8.1,1.1-13.9,5.3-11,12.5c3.6,9,21.2,13.3,9.6,26.7l7.6,8.9
			c15,0.1,28.4,5.2,43.2,7.7c36.5,6,76.2,5.8,113,5.2c37-0.6,75.4,0.7,112-5.1c39.5-6.3,79.1-4.3,118.9-6.7
			C343.6,4703.1,335.3,4689.7,323.3,4686.9"/>
		<path class="st18" d="M547.2,4661.4c3.8-7.4,13.6-11.4,23.9-10.9c10.7,0.5,13.5,8.4,16.9,15.6c6.5-0.6,7.5-8.5,12.6-11.5
			c5.5-3.3,21.7-9.6,26.2-2.2c15-3,29.8-9.5,45.4-1.9c7.3,3.6,17.6,11.4,17,18.9c8.3-2.3,15-5.5,24.7-3.3c7.4,1.7,9.7,5.5,15.1,8.7
			c3.3,1.9,3,1.5,6.9,3c7.6,2.8,13.9,8.7,21.3,6.5c12-3.4,19-11.7,32.7-12.2c13.7-0.4,23.5,13.9,37.7,9.3c4.1-1.3,7.8-6.2,12.3-7.9
			c4.5-1.7,6.7-0.3,10.9-0.7c8.6-0.9,16.1-5.5,27-4.8c17.3,1.1,34.1,19.1,52.4,14.1c5.7-1.5,9.7-6.3,14.2-9.3
			c7.5-4.9,14-7.5,23.6-8.2c10.9-0.8,20.5,1.6,29.7,3.4c17,3.2,35.9,10.2,42.5,24.6c1.3,2.9,4.7,18.3,0.1,20.9H547.2V4661.4z"/>
		<path class="st21" d="M577.2,4685.1l11.7-4.7c1.3-4,5.6-8,10.1-10.1c5.6-2.7,6-0.6,10.8-1.4c1.8-0.3,2.2,0.6,4.2,0
			c2.2-0.7,5.5-4.3,8.3-5.4c8.2-3.1,20.9-5.6,30-3.9c9.5,1.7,5.5,7.3,12.2,11.3c9.1,5.4,25.3,3.9,27.7,15.7c7.3-1.7,12.5-5,20.2-5.5
			c8.9-0.6,16.2,1.9,23.4,6c6.6,3.9,10.9,11.9,19.6,9.6c2.8-0.7,3-2.6,6.2-2.8c4.1-0.3,8,2.1,10.2,4.8c2.4,2.9,1.5,6.7,4.9,9.4
			c6.7-1.7,6.1-8,3.6-12.5c-3.2-5.7-9.6-6-3.9-11.8c2.8-2.9,8.4-5.3,13.1-4.8c5.6,0.6,3.8,2.4,7.3,4.8c9.3,6.3,24.9,3.4,31.7,13.5
			c5.2-1.9,17.8-4.9,17.7-10.8c6.3-0.4,7.1-0.5,12.4-2.7c5.5-2.3,9.4-4.1,15.7-4.2c11.1-0.2,22.5,4.3,28.3,11.5
			c3.7,4.6,2.2,15,10.3,15.6c10,0.7,11.8-13.6,4.3-16.1c8.1-0.6,19.7,2.9,26.6-0.9c7.9-4.4,6.7-12.3,17.7-13.3
			c13.6-1.2,32.5-1.6,44.9,3.1c16.4,6.2,29.3,24.6,22.4,40c-50.2,2.3-101.3,0.1-151.6,0.1c-46.5,0-93.3,1.1-139.8,3.2
			c-54.5,2.4-110.2,6.6-164.9,3.5C571.4,4712.3,576.1,4698.7,577.2,4685.1"/>
		<path class="st21" d="M594.2,4688.6l-8.8-4.6c-3.6-1.8-7.8,0.3-11.5,1.7c-1.8-2.2-4.2-4.2-6.6-5.8c-0.4-0.3-4.7-1.7-4.9-2.2
			c-0.8-1.9,2.5-2.5,2.9-4.1c1-4.3-4.1-4.3-6.8-3.8c-7,1.2-12.9,6.4-14.5,13.4c-4.3,0-9.2-0.1-13,2.5c-2.1,1.4-4.1,3.9-5,6.3
			c-0.6,1.6-0.2,3.3-0.8,4.7c-2.4,6.9-13,5.3-18.8,4.8c-0.9-3.4-5.5-8.1-8.8-9.1c-6.7-2-14.9,4.5-20.2,7.9c-2-7,7.3-12.8,11.5-16.7
			c-3.4-2.1-14.1-0.9-18,0c-6.1,1.5-11.5,5.3-15,10.4c-4.2-1.1-9.6,0-13.3,2.2c-1.6,1-2.8,2.9-4.3,3.7c-3,1.4-7.2,0.1-10.2-0.3
			c-5.6-0.9-11.2-1.8-16.9-1.8c-3.4,0-44.7,7.5-37.4,16.2c1.4,1.6,12.7-0.7,13.4-0.7c7.4-0.9,14.8-1.6,22.2-2.5
			c13.1-1.4,26.1-1.3,39.2-0.9c16.3,0.5,32.6,0.6,49,0.2c12.3-0.3,24.9-0.8,37.1,1.2c16.8,2.7,33.6,4.5,50.2,0.4
			c4.9-1.2,13.8-3,14.4-9.3C599.8,4698.4,595.8,4692.2,594.2,4688.6"/>
	</g>
	<g class="st0">
		<defs>
			<rect id="SVGID_35_" x="-1.3" y="4694.9" width="3200" height="512.2"/>
		</defs>
		<clipPath id="SVGID_36_">
			<use xlink:href="#SVGID_35_"  style="overflow:visible;"/>
		</clipPath>
		
			<linearGradient id="SVGID_37_" gradientUnits="userSpaceOnUse" x1="-7.321018e-002" y1="5431.9731" x2="0.9268" y2="5431.9731" gradientTransform="matrix(0 508.3599 -508.3599 0 2762996 4723.1563)">
			<stop  offset="0" style="stop-color:#A1B862"/>
			<stop  offset="1" style="stop-color:#79A440"/>
		</linearGradient>
		<rect x="-1.3" y="4694.9" class="st22" width="3200" height="512.2"/>
	</g>
	<g class="st0">
		<defs>
			<path id="SVGID_38_" d="M2708.5,4713.5c-257.7,21.5-547.1,43.1-679.5,37.7c-261.9-10.6-887.8-31-1087.8-13.5
				c-200,17.5-538.8,23.3-643.2,14.6c-71.6-6-215.7-31.1-299.2-46.4V5142H3197v-466.6c-1.3-0.3-4-0.5-8.1-0.5
				C3144.3,4674.9,2939.1,4694.2,2708.5,4713.5"/>
		</defs>
		<clipPath id="SVGID_39_">
			<use xlink:href="#SVGID_38_"  style="overflow:visible;"/>
		</clipPath>
		
			<linearGradient id="SVGID_40_" gradientUnits="userSpaceOnUse" x1="-0.2631" y1="5431.9673" x2="0.7369" y2="5431.9673" gradientTransform="matrix(-3262.0505 0 0 -3262.0505 2338.7449 17724260)">
			<stop  offset="0" style="stop-color:#A1B862"/>
			<stop  offset="1" style="stop-color:#79A440"/>
		</linearGradient>
		<rect x="-1.3" y="4674.9" class="st23" width="3198.3" height="467.1"/>
	</g>
	<g class="st0">
		<defs>
			<rect id="SVGID_41_" x="-1.3" width="3200" height="5528.7"/>
		</defs>
		<clipPath id="SVGID_42_">
			<use xlink:href="#SVGID_41_"  style="overflow:visible;"/>
		</clipPath>
		<g class="st24">
			<g>
				<defs>
					<rect id="SVGID_43_" x="-793.1" y="1825.4" width="2631.2" height="1110.1"/>
				</defs>
				<clipPath id="SVGID_44_">
					<use xlink:href="#SVGID_43_"  style="overflow:visible;"/>
				</clipPath>
				<path class="st25" d="M-764,2026.7c58.1-1.1,106.8-41.2,167.9-61.1c64.6-20.9,132.3,7.2,184.2,44l5.7-22.7
					c-14.3-140.9,190.9-166.3,293.5-160.8c96.2,5.1,142.7,101,156,189.5c48.8,0,64.8,58.9,90.7,88.8c29.1-27.5,56.6-49.7,95.5-59.3
					c-9.2-108.8,176.9-190.6,198.9-52.8c19.2-87.1,147.8-1,170.9,39.5c16.9,29.5,20.6,38.3,45.6,68.5
					c29.6,35.8,43.7,77.6,39.3,123.9c24.8-83.5,233.1-82.4,266.5,5.2c-12.8-127.4,246.5-21.1,289.3,7.5
					c74.2-76.9,280.6,10,317.3,99.4c21.4,52.1,25.1,127.9,25.5,184.1c40.1-26.4,73.3-71.5,128.7-73.3c37-1.2,131.4,39.7,126.2,85.3
					c-3.4,29.5-16.8,18.2-40.3,28.3c-91.1,39.2-229.9,57-288.1,147.9c-74.8-7.7-151-65.9-222.3-90.7
					c-128.4-44.6-308.3,115.6-443.5,130.4c-106.2,11.6-158.8,37.9-255.6,45.5c-98.7,7.7-193.3-68.6-276.8-11.5
					c-34.1,23.3-60.1,49.3-81.2,84.7c-10.5,17.6-17.3,53-37,64.1c-31.4,17.6-123.1-21.2-155.3-27.9c-95-19.6-249.9-73-346.4-35.6
					c-56.2,21.8-76.8,57.4-142.7,57.2c-62.3-0.2-129.4-19.6-181-56.1c-13.1-9.2-15.1-21.2-31-30.9c-22.7-13.9-66.6-30.1-93.1-38.7
					c-9.6-3.1-23.1-3.6-36.4-3.6v-770.1C-785.7,2026-776.3,2026.9-764,2026.7"/>
			</g>
		</g>
		<path class="st26" d="M2503.9,4201.3c0,0-21.2,2-29.8,7.6c-8.5,5.6-16.3,7.8-14.7,10.3c1.6,2.4,16.7-3.2,17-0.4
			c0.4,2.8-13.1,11.5-16.9,12.2c-3.8,0.7-12.5,2.2-10.8,7.1c1.7,4.9,16.4,6.1,28.1,6.1c11.7,0,39.7-19.6,39.7-19.6L2503.9,4201.3z"
			/>
		<path class="st27" d="M2520.1,4227.5c21.5-0.5,91.4-49.8,114.8-69.5c2.5-2.1,4.5-3.9,5.8-5.3c8.7-9.3,38.3-54.8,59.1-95.2
			c12-23.3,21-44.8,21.5-56.8c1.7-42.7-22.3-101.8-22.3-101.8c-65.8,24.7-71.5,77.9-71.5,77.9l-30.9,127.4
			c-1.6,6.8-5.3,12.9-10.6,17.5l-88.1,77C2495.2,4211.6,2512.9,4227.7,2520.1,4227.5"/>
		<path class="st28" d="M2634.8,4158c2.5-2.1,4.5-3.9,5.8-5.3c8.7-9.3,38.3-54.8,59.1-95.2c2.2-24.2-0.3-46.7-10.6-62.2
			C2689.1,3995.3,2635.1,4096,2634.8,4158"/>
		<path class="st26" d="M2670.7,4544.5l11.3,47.1l7,29.1l23.3,97c0,0,19.9,6.1,40.6,0c0,0,7.7-32.1,7.9-72.1
			c0.1-20.9-1.8-44-7.9-65.9c-2.5-8.9-5.7-17.5-9.7-25.8C2710.3,4486.9,2670.7,4544.5,2670.7,4544.5"/>
		<path class="st29" d="M2651.4,4746h109.3c0,0,1.7-16.5-3.1-32.4c-0.7-2.4-1.6-4.7-2.6-6.9c0,0-24.4,5.5-45.4,0
			c0,0-19.8,16.8-31.7,22C2665.9,4733.9,2652.7,4731.1,2651.4,4746"/>
		<path class="st30" d="M2682,4591.6l7,29.1c11.9,7.6,37.5,21.3,71.7,24.9c0.1-20.9-1.8-44-7.9-65.9c-10.1-5.1-20.3-7.8-29-6.2
			C2702.1,4577.2,2689.2,4585.2,2682,4591.6"/>
		<path class="st31" d="M2708.2,4746h52.5c0,0,1.7-16.5-3.1-32.4C2744.4,4717.8,2717.6,4728.1,2708.2,4746"/>
		<path class="st26" d="M2757.8,4544.5l11.3,47.1l7,29.1l23.3,97c0,0,19.9,6.1,40.6,0c0,0,7.7-32.1,7.9-72.1
			c0.1-20.9-1.8-44-7.9-65.9c-2.5-8.9-5.7-17.5-9.7-25.8C2797.4,4486.9,2757.8,4544.5,2757.8,4544.5"/>
		<path class="st29" d="M2842.1,4706.7c0,0-24.4,5.5-45.4,0c0,0-19.8,16.9-31.7,22c-12,5.2-25.2,2.4-26.4,17.3h109.3
			C2847.8,4746,2850.1,4724.2,2842.1,4706.7"/>
		<path class="st30" d="M2769.1,4591.6l7,29.1c11.9,7.6,37.5,21.3,71.7,24.9c0.1-20.9-1.8-44-7.9-65.9c-10.1-5.1-20.3-7.8-29-6.2
			C2789.2,4577.2,2776.3,4585.2,2769.1,4591.6"/>
		<path class="st32" d="M2654.9,4598.3c40.8,25.9,210.9,7.4,212.3-17.7c0,0-8.4-62.9-11.3-89.2c-1.2-10.9-1.7-19.7-1-24.3
			c17.7-117,32.5-254.9,30.7-281.2c-0.3-3.7-0.4-5.6-0.4-5.6s-12.8-1.1-32.2-1.8c-56.4-2.2-169.1-1.8-187.8,35.1
			c-19.1,37.6-19.5,256-19.5,256C2645.6,4529.5,2654.9,4598.3,2654.9,4598.3"/>
		<path class="st33" d="M2855.9,4491.4c-1.2-10.9-1.7-19.7-1-24.3c17.7-117,32.5-254.9,30.7-281.2c-0.3-3.7-0.4-5.6-0.4-5.6
			s-12.8-1.1-32.2-1.8c-29.2,17.2-48.2,46.5-48.2,46.5S2810.7,4443.9,2855.9,4491.4"/>
		<path class="st34" d="M2778.5,3860.8c0,0,42.1-87.6-8.9-133.5c-4.9-4.4-11-7.5-17.4-8.9c-17.8-3.9-57.5-9.4-77.5,12.8
			c-21.6,23.9-30.1,42-12.1,63.7C2680.5,3816.7,2778.5,3860.8,2778.5,3860.8"/>
		<path class="st26" d="M2694.6,3832.2c0,0,0.9,9.8,2.6,23.1c0.8,6.5,1.8,13.8,3,21.2c0.8,5.3,1.8,10.7,2.8,15.8l22.6,76.3l53-85.8
			c0,0-12.5-10.3-29.3-66.2c-0.2-0.6-0.3-0.9-0.3-0.9L2694.6,3832.2z"/>
		<path class="st27" d="M2663.7,4208.4c-0.7,8.6,1.5,10.1,1.5,10.1s32.6,11.8,114.6,7.7c8.9-0.4,17.2-0.9,25-1.4
			c52.8-3.1,81.1-6.4,81.1-6.4s43.3-99.9-38-223c-9.2-13.9-20-28.1-32.6-42.5c-13.2-15-16.1-35.1-21.1-54.2
			c-1.4-5.5,2.7-6.7,0.6-11.8c0,0-14.8-4.2-16.4-4.2c-8.4,7.4-19.5,21.8-47.1,24.7c-18.6,1.9-25.9-8.6-28.6-14.9
			c-7.1,2.6-14.5,7-20.5,9.9c-50,24-54.5,70.5-54.5,70.5s45.9,151,48.8,169.8C2677.8,4151.2,2667.2,4164.3,2663.7,4208.4"/>
		<path class="st30" d="M2697.1,3855.4c0.8,6.5,1.8,13.8,3,21.2c57.9-22.5,50.5-54.1,49-59.9c-0.2-0.6-0.3-0.9-0.3-0.9
			S2719.2,3836.8,2697.1,3855.4"/>
		<path class="st26" d="M2685.1,3862.9c0,0,64.8,2.1,65.5-38.3c0.7-40.4,9.5-67.3-31.9-70.4c-41.4-3-49.7,12.2-53.2,25.7
			C2662.1,3793.3,2668.3,3861.3,2685.1,3862.9"/>
		<path class="st34" d="M2679.4,3748.2c0,0,4.1,77,83.1,69.7C2762.6,3817.9,2760.9,3715,2679.4,3748.2"/>
		<path class="st34" d="M2694.6,3754.9c0,0-23.4,14.3-30.7,37.2C2663.9,3792.1,2637.7,3755.7,2694.6,3754.9"/>
		<path class="st28" d="M2804.8,4224.9c52.8-3.1,81.1-6.4,81.1-6.4s43.3-99.9-38-223C2831.4,4034,2792.6,4136.5,2804.8,4224.9"/>
		<path class="st27" d="M2778.5,3882.8c0,0,62.7,12.9,90.7,45.2c21.4,24.8,44.8,146,44.8,166.1c0,19.1-22,120.9-35.7,140.4
			c-1,1.4-2.5,2.1-4.2,1.9l-35.3-3.7c-2.9-0.3-5-3-4.6-6l19.9-128.7l-69.7-123.6C2784.3,3974.6,2743.2,3925.9,2778.5,3882.8"/>
		<path class="st35" d="M2677.1,3835.7c0,0,1.9,6.6,5,7.2c3.1,0.6,8.1,1.7,12.4,0s5.6-5.2,5.6-5.2S2690.2,3834,2677.1,3835.7"/>
		<path class="st36" d="M2821.4,4726.9l1.8-422.8c0,0,4-37.7,36.9-37.9c35.1-0.2,37.3,37.5,37.3,37.5s-0.5,3.3-4.1,3.3
			c-3.8,0-4.4-3.2-4.4-3.2s-1.7-29.1-28.8-28.9c-25.4,0.2-28.5,29.2-28.5,29.2l3.1,422.8L2821.4,4726.9z"/>
		<path class="st36" d="M2839.3,4751.1l-21.8,0.1l1.8-22.8c0,0-0.2-3.2,4.2-3.4c4.1-0.2,12.2-0.8,13,1.7
			C2837.2,4728.8,2839.3,4751.1,2839.3,4751.1"/>
		<path class="st26" d="M2840.8,4228.1c0,0-3,11.5-1.7,25.1c1.7,19.2,5.2,29.7,17.7,36c0,0,14.4,9.8,16.6-2.9s-2.2-13.2,1.3-31.2
			c3.5-17.9,0.9-31.6-9.5-39.7L2840.8,4228.1z"/>
		<path class="st26" d="M2840.6,4236.5c0,0-9.3,26.7-6.8,29.2c2.5,2.5,9-8.4,9-8.4L2840.6,4236.5z"/>
		<path class="st37" d="M578.2,4757h-128c-9.2-6.2,2.5-67,2.5-67s34.9-13.3,41,13.7c6.1,26.9,44.5,35.5,64.9,38.8
			C572.4,4744.7,576.8,4752.4,578.2,4757"/>
		<path class="st37" d="M388.3,4757h-128c-9.2-6.2,2.5-67,2.5-67s34.9-13.3,41,13.7c6.1,26.9,44.5,35.5,64.9,38.8
			C382.5,4744.7,386.9,4752.4,388.3,4757"/>
		<path class="st27" d="M543.8,4136.6c0,0-5.8,71.8-12.5,158.1c-9.2,117.2-34,407.9-34,407.9s-16.3,13.9-52.3,6.3
			c0,0-30.6-100.3-39.8-214.7c-0.1-1.9-0.3-3.8-0.4-5.7c-8.5-116.5-21.8-361.8-21.8-361.8L543.8,4136.6z"/>
		<path class="st28" d="M545.7,4111.8c0,0-7.7,96.6-14.5,182.9l-126.1,199.5c-0.1-1.9-0.3-3.8-0.4-5.7
			c-8.5-116.5-21.8-361.8-21.8-361.8L545.7,4111.8z"/>
		<path class="st27" d="M509,4111.8c0,0-91.4,227.6-120.6,313.8c-20.8,61.4-79.5,277-79.5,277s-25.5,7.8-47-7.2
			c0,0-21.8-220.2,22.3-282.3c23.4-32.9,5.8-342.5,100.7-345.1C479.7,4065.2,509,4111.8,509,4111.8"/>
		<path class="st38" d="M468.2,3776.3c-14,7.4-27.6,7.8-39.4,5.3c-10.8-2.3-20.1-7-26.7-11.3c-6.8-4.3-10.8-8.1-10.8-8.1
			s0.5-0.7,1.3-2c4.1-7.1,16.6-32.4,11.1-73.1c-0.1-0.5,4,0.2,10.1,1.7c18.1,4.3,54.6,14.6,56.2,15.1h0.1c0,0,0.4,8.6,2,23.9
			c0.1,1.4,0.3,2.8,0.4,4.2c0.2,1.8,0.4,3.7,0.6,5.7C474.6,3753.6,468.2,3776.3,468.2,3776.3"/>
		<path class="st39" d="M471.9,3727.7c-27.1,6.2-67.5-33.8-67.5-33.8c3-2.2,6.1-3.9,9.3-5.3c18.1,4.3,54.6,14.6,56.2,15.1h0.1
			C470,3703.8,470.4,3712.4,471.9,3727.7"/>
		<path class="st32" d="M558.1,4073.4c-2,26.1-2.1,40.3-19.6,44.8c0,0-53.7,18.9-117.9,19.4c-12.5,0.1-30.3-2.4-45.1-4.8
			c-15-2.5-27-5.1-27-5.1c-12.9-3-27.2-11-25.2-25.7c1-7.8,1.7-17.9,2.2-29.5c0-0.7,0.1-1.5,0.1-2.3c1.4-34.1,1.2-81.1,1.4-126
			c0.1-27.6,0.4-54.5,1.3-77.1c0,0-12.7-89,1.4-103.6c16.5-17.1,69.7-22.1,70.7-22.2c0,0,42.1,22.5,72.7,5.3
			c0,0,44.7,10.7,57.5,24.3c4.4,4.7,22.1,33.4,22.6,64.9c0.7,44-1.1,93.9-1.1,93.9c0.5,7.1,1.2,16.4,2.1,26.9
			c0.9,11.2,1.9,23.8,2.7,37c0.4,6.6,0.8,13.4,1.1,20.2C559.1,4034.7,559.4,4055.8,558.1,4073.4"/>
		<path class="st38" d="M481.1,3701.6c0,0-11.1,4-25.3,5.9c-20.8,2.8-57-4-67.5-28.4c-21.8-50.7-31.6-71.4,10.9-88.7
			c22.8-9.2,46.9-1.5,56.8,2c8.6,3,13.7-3,17.5,3C481.7,3608.5,498.3,3694.2,481.1,3701.6"/>
		<path class="st33" d="M450.5,4022.4c4.6,8.6,1,34.7,1,34.7s-71.9,13.4-127.7,44.2c0-0.7,1.9-30.3,1.9-31.1
			c1.4-34.1,1.4-183.3,1.6-228.3c0,0,47.1,15,33.8,44.7c-8.8,19.7-11,48.4-5.9,60.3C377.6,4000.1,446.3,4014.5,450.5,4022.4"/>
		<path class="st38" d="M435.4,4042.3c0,0,34.3,22.6,47.6,24.1c9,1,44.6-0.5,44.8-5c0.3-6.4-21.7-13.1-27.4-15.6
			c-5.7-2.6-10.2-5.5-10.1-8c0-2.5,22.1,5.7,19.7,0.3c-2.4-5.4-22.7-14.7-27.6-15.6c-4.9-0.9-20.8,4.5-26.9,1.6
			C449.2,4021.3,435.4,4042.3,435.4,4042.3"/>
		<path class="st32" d="M341.6,3755.2c0,0-23.5,9.9-51.4,62.1c-27.9,52.2-54.4,162.7-43,180.7c11.3,18,106.7,59.1,189.8,48.1
			c0,0,20.6-18.8,16.5-26c0,0-136.7-55.6-136.5-66.6c0.1-6.8,72.7-98.5,75.6-127.6C395.4,3796.8,341.6,3755.2,341.6,3755.2"/>
		<path class="st32" d="M517.1,3762.6c0,0-38.4,51.3-37.8,94c0.4,32.8,63.4,139,76.6,154c12.7,14.3,67.6,41.4,90.8,46.9
			c1.6,0.4,3.3-0.1,4.4-1.3l23.9-26.2c2-2.2,1.8-5.6-0.5-7.5l-73.3-83l-27.7-104.3C573.6,3835.1,572,3771.4,517.1,3762.6"/>
		<path class="st38" d="M635.8,4050.2c0,0,34.3,22.6,47.6,24.1c9,1,44.6-0.5,44.8-5c0.3-6.4-21.7-13.1-27.4-15.6
			c-5.7-2.6-10.2-5.5-10.1-8c0-2.5,22.1,5.7,19.7,0.3s-22.7-14.7-27.6-15.6c-4.9-0.9-20.8,4.5-26.9,1.6
			C649.5,4029.2,635.8,4050.2,635.8,4050.2"/>
		<path class="st40" d="M477.8,3607.6l-7.5-30.4c-1.9-7.8-8.1-14-16.1-16.1c-10.7-2.9-27-5.1-45.6-0.5c-18.7,4.7-32.3,14.4-40.6,22
			c-6.2,5.7-8.6,14.1-6.3,22l12.5,42.3c0,0,8.2-31,20.9-9.8l2.1,11.6l8.9-1.8c0,0-5.5-32.3-2.7-40.6c2.8-8.3,29-11.7,43.8-11.3
			C472,3595.9,477.8,3607.6,477.8,3607.6"/>
		<path class="st35" d="M454,3678.6c0,0,2.7,6.3,5.9,6.6c3.1,0.2,8.2,0.7,12.3-1.5c4.1-2.2,4.9-5.8,4.9-5.8S466.9,3675.4,454,3678.6
			"/>
		<path class="st41" d="M-65,5062.1c30.2-8.3,261.5-168.8,1165.2-50.7c259.9,34,689.3-120.5,889.2-103
			c200,17.5,566.5,152.9,669.6,172c129.1,23.9,538.1,0.3,538.1,0.3v448H-65V5062.1z"/>
		<path class="st33" d="M577.8,4022.4c0,0-24.3-24.4-28.7-79.1c-0.2-2.4-0.4-9.7-0.4-7.3c0,35.2,7.2,74.6,7.2,74.6
			s14.7,13.8,24.5,17.6L577.8,4022.4z"/>
	</g>
	<g class="st0">
		<defs>
			<path id="SVGID_45_" d="M2700.4,1324.6c215.6-151.1,382-290.4,498.3-396v-11.8L2700.4,1324.6z"/>
		</defs>
		<clipPath id="SVGID_46_">
			<use xlink:href="#SVGID_45_"  style="overflow:visible;"/>
		</clipPath>
		
			<linearGradient id="SVGID_47_" gradientUnits="userSpaceOnUse" x1="-0.1952" y1="5432.1831" x2="0.8048" y2="5432.1831" gradientTransform="matrix(-523.6863 223.3647 223.3647 523.6863 -1210148.5 -2843750.25)">
			<stop  offset="0" style="stop-color:#D0EAF6"/>
			<stop  offset="1.282966e-002" style="stop-color:#CFEAF6"/>
			<stop  offset="0.6108" style="stop-color:#B8E1F7"/>
			<stop  offset="1" style="stop-color:#B0DEF7"/>
		</linearGradient>
		<polygon class="st42" points="3345.9,1261.8 2777.1,1504.4 2553.3,979.6 3122,737 		"/>
	</g>
	<g class="st0">
		<defs>
			<path id="SVGID_48_" d="M2538.6,1536.9c291-203.9,511.5-390.9,660.1-527.8v-12.4L2538.6,1536.9z"/>
		</defs>
		<clipPath id="SVGID_49_">
			<use xlink:href="#SVGID_48_"  style="overflow:visible;"/>
		</clipPath>
		
			<linearGradient id="SVGID_50_" gradientUnits="userSpaceOnUse" x1="-0.2098" y1="5432.1436" x2="0.7902" y2="5432.1436" gradientTransform="matrix(-666.0942 284.105 284.105 666.0942 -1540125.125 -3617183)">
			<stop  offset="0" style="stop-color:#D0EAF6"/>
			<stop  offset="1.282966e-002" style="stop-color:#CFEAF6"/>
			<stop  offset="0.6108" style="stop-color:#B8E1F7"/>
			<stop  offset="1" style="stop-color:#B0DEF7"/>
		</linearGradient>
		<polygon class="st43" points="3393.7,1453.7 2640.2,1775.1 2343.7,1079.9 3097.1,758.5 		"/>
	</g>
</g>
</svg>
