<?xml version="1.0" encoding="utf-8"?>
<!-- Generator: Adobe Illustrator 19.0.0, SVG Export Plug-In . SVG Version: 6.00 Build 0)  -->
<svg version="1.1" id="Layer_1" xmlns="http://www.w3.org/2000/svg" xmlns:xlink="http://www.w3.org/1999/xlink" x="0px" y="0px"
	 viewBox="0 0 3200 2000" style="enable-background:new 0 0 3200 2000;" xml:space="preserve">
<style type="text/css">
	.st0{clip-path:url(#SVGID_2_);}
	.st1{clip-path:url(#SVGID_4_);fill:url(#SVGID_5_);}
	.st2{clip-path:url(#SVGID_7_);fill:url(#SVGID_8_);}
	.st3{clip-path:url(#SVGID_10_);fill:#8EA2B4;}
	.st4{clip-path:url(#SVGID_10_);fill:#748EA3;}
	.st5{clip-path:url(#SVGID_10_);fill:#7C94A8;}
	.st6{clip-path:url(#SVGID_10_);fill:#CED49F;}
	.st7{clip-path:url(#SVGID_12_);fill:url(#SVGID_13_);}
	.st8{clip-path:url(#SVGID_15_);fill:#5C6D2B;}
	.st9{clip-path:url(#SVGID_17_);fill:url(#SVGID_18_);}
	.st10{clip-path:url(#SVGID_20_);fill:#D8D0AC;}
	.st11{clip-path:url(#SVGID_22_);fill:url(#SVGID_23_);}
	.st12{clip-path:url(#SVGID_25_);fill:#E4DDC3;}
	.st13{clip-path:url(#SVGID_25_);fill:#75823E;}
	.st14{clip-path:url(#SVGID_25_);fill:#687931;}
	.st15{clip-path:url(#SVGID_25_);fill:#576628;}
	.st16{clip-path:url(#SVGID_25_);fill:#627032;}
	.st17{clip-path:url(#SVGID_27_);fill:url(#SVGID_28_);}
	.st18{clip-path:url(#SVGID_30_);fill:url(#SVGID_31_);}
	.st19{clip-path:url(#SVGID_33_);fill:#FFB27D;}
	.st20{clip-path:url(#SVGID_33_);fill:#8EA2B4;}
	.st21{clip-path:url(#SVGID_33_);fill:#748EA3;}
	.st22{clip-path:url(#SVGID_33_);fill:#696F7C;}
	.st23{clip-path:url(#SVGID_33_);fill:#E8945B;}
	.st24{clip-path:url(#SVGID_33_);fill:#464C58;}
	.st25{clip-path:url(#SVGID_33_);fill:#E4DDC3;}
	.st26{clip-path:url(#SVGID_33_);}
	.st27{clip-path:url(#SVGID_35_);fill:#E4DDC3;}
	.st28{clip-path:url(#SVGID_33_);fill:#FFFFFF;}
	.st29{clip-path:url(#SVGID_33_);fill:#233862;}
	.st30{clip-path:url(#SVGID_37_);fill:#E4DDC3;}
	.st31{clip-path:url(#SVGID_33_);fill:#0F2949;}
	.st32{clip-path:url(#SVGID_33_);fill:#163560;}
	.st33{clip-path:url(#SVGID_39_);fill:#E4DDC3;}
	.st34{clip-path:url(#SVGID_33_);fill:#F4A671;}
	.st35{clip-path:url(#SVGID_41_);fill:#E4DDC3;}
	.st36{clip-path:url(#SVGID_43_);fill:#E4DDC3;}
	.st37{clip-path:url(#SVGID_33_);fill:#9E7E69;}
</style>
<g>
	<defs>
		<rect id="SVGID_1_" width="3200" height="2000"/>
	</defs>
	<clipPath id="SVGID_2_">
		<use xlink:href="#SVGID_1_"  style="overflow:visible;"/>
	</clipPath>
	<g class="st0">
		<defs>
			<polygon id="SVGID_3_" points="0,0.8 0,1976.5 3196.8,1976.5 3195.9,0.8 			"/>
		</defs>
		<clipPath id="SVGID_4_">
			<use xlink:href="#SVGID_3_"  style="overflow:visible;"/>
		</clipPath>
		
			<linearGradient id="SVGID_5_" gradientUnits="userSpaceOnUse" x1="0" y1="1999.9994" x2="1" y2="1999.9994" gradientTransform="matrix(0 -1952.1117 -1952.1117 0 3905820.5 1947.6881)">
			<stop  offset="0" style="stop-color:#E2F1FB"/>
			<stop  offset="0.3469" style="stop-color:#D2EAF9"/>
			<stop  offset="1" style="stop-color:#ABD8F4"/>
		</linearGradient>
		<rect y="0.8" class="st1" width="3196.8" height="1975.7"/>
	</g>
	<g class="st0">
		<defs>
			<path id="SVGID_6_" d="M532.9,962.2c-15.2,5.4-38.8,7.6-39.5,30c-4-0.7-8.5-0.1-13,0.4c-4.2,0.5-8.4,1-12.2,0.5
				c-3.5,11.5-6.4,20.6-9.1,33.2c-17.8-11.4-27-55.7-54.4-43.4c-8.3-11.2-19.1-7.6-26.8,2.9c-0.8-26.8-24.9-20.9-44.8-16
				c-12.4,3-45.9,15.1-53.3,24.7c-5.7,7.3,0.6,17-3.4,24.2c-9.3,16.8-21.7,15.7-32.8,20.1c-10.4,4.1-20,8.5-30.6,14.1v533.6
				c10.2,2.6,18.5,5.2,28,8.2c53.7,16.6,70.7,33.9,126.6,34.9c274.7,4.8,550.3-1.5,824.9,8.4c143.2,5.2,291.7,11.9,434.6-4.5
				c61.7-7.1,121.4-21.5,183.6-25.6c31.4-2.1,63.7-1.9,96.2-1.7c60.4,0.4,121.6,0.7,178.7-13.5c54.5-13.5,71-19.3,49.8-70.8
				c-11-26.8-28.5-51.5-46.9-73.8c-20.7-3-32.8-33.7-52.2-44.2c-3-1.6-6.7-1.5-10.6-1.3c-4,0.2-8.2,0.3-11.9-1.6
				c-7.4-3.9-13.4-14.9-20.8-17.3c-11.7-3.7-43.5-9.9-55.1-10c-7.7-0.1-14.3,2.1-20.8,4.3c-10.3,3.5-20,7-32.6,1.1
				c-20.6-9.6-33.5-43-50.6-57.1c-11.2-9.3-28.5-14.3-39.5-22.5c-16.3-12.2-25.8-32.3-43.1-44.9c-76.4-55.5-129.8,19.9-198.5,30.5
				c-34,5.3-66.1-24.7-98-31.9c-7.6-1.7-15.9-1.2-24.2-0.6c-10.9,0.7-22,1.4-32-2.8c-19.8-8.4-21.6-26-46.9-31.2
				c-12.6-2.6-32.7,4.9-54,12.5c-31.9,11.2-66.6,22.5-83.3,0c-27.7,30.4-53.6-45.7-83.3-47.5c-18.5-1.1-30.4,4.2-40.1,9.5
				c-15.6,8.5-25.4,17.1-47.6-1.3c-3.9-3.2-7.5-6.6-11.1-9.8c0.2-14.2-27.3-30.4-40-31.4c3.2-5.8,15.8-16.9,4.4-21.1
				c6.9-17.6-9.2-14.2-21.8-10.9c-5.4,1.4-10.1,2.9-12.1,2.7c-0.7-3.3-1.8-7.4-2.3-10.6c4.2-10,13.1-19-1.1-27.6
				c-0.4-0.3-0.9-0.4-1.3-0.6c2.3-3.4,3.3-8.6,1.3-18.7c-3.5-17.6-18.2-25.9-32.7-35.7c-5,1.3-9.6,1-14.2,0.7
				c-4.9-0.3-9.7-0.6-14.7,1c-11.1,3.7-8.2,16.4-24.8,15.7c2.4,12.2-0.4,22.8-12.1,21c-0.7,22.6-38.5,40.8-54.5,19.1
				c-8.9-12.1,7.2-49.9-26.6-35.9c-11.7-18.4-16.3-4.6-26.3-0.7c-4.6,1.8-1.9,10.8-8.2,14.1c-4.6,2.4-7.8,1.4-11.5,0.3
				c-2.2-0.6-4.5-1.2-7.5-1.2c-10,0.2-24.7,1.6-32.7-6.4c-4.1-4.2-1-17.9-3.3-19.6c-6.4-4.6-17.7-18-20.7,2.5
				c-25.8,5.6-13.4-22.5-19.7-37.2c-8-18.6-26.6-20.1-42.1-30.2c-17.5-11.3-29.4-16.2-42.4-16.2
				C556.3,954.9,546.2,957.5,532.9,962.2"/>
		</defs>
		<clipPath id="SVGID_7_">
			<use xlink:href="#SVGID_6_"  style="overflow:visible;"/>
		</clipPath>
		
			<linearGradient id="SVGID_8_" gradientUnits="userSpaceOnUse" x1="0" y1="1999.9933" x2="1" y2="1999.9933" gradientTransform="matrix(0 -905.9941 -905.9941 0 1813166.875 1461.3518)">
			<stop  offset="0" style="stop-color:#C3E2F7"/>
			<stop  offset="6.610600e-004" style="stop-color:#C3E2F7"/>
			<stop  offset="0.1136" style="stop-color:#CAE5F5"/>
			<stop  offset="0.9966" style="stop-color:#FFFBE3"/>
			<stop  offset="1" style="stop-color:#FFFBE3"/>
		</linearGradient>
		<rect x="213" y="954.9" class="st2" width="1943.8" height="694.9"/>
	</g>
	<g class="st0">
		<defs>
			<rect id="SVGID_9_" width="3200" height="2000"/>
		</defs>
		<clipPath id="SVGID_10_">
			<use xlink:href="#SVGID_9_"  style="overflow:visible;"/>
		</clipPath>
		<path class="st3" d="M1659.3,1510.2c9.8-6.2,28.2-13.1,39.7-15.2c7.3-1.3,15.4,1.2,22.5-0.3c8.2-1.8,15-9.7,24.8-8.4
			c7.4,0.9,9.6,7.6,16.1,8.6c4,0.6,25.5-22.4,28.5-24.6c12.1-9,28.4-20.7,44.6-19.8c10.9,0.6,17,5.1,21.8,14.3
			c6.5-2.9,10.3-10,15.8-14.3c9.5-7.3,19.1-9.3,30.3-10.3c3.6-0.3,6.4,2.2,10,1.4c8.6-2,16.3-11.4,25.8-13.8
			c11.7-2.9,19.7-0.9,30.1,5.2c7.6,4.4,18.9,19.2,27,21c8.8,2,15.3-5.1,22.3-12.9c10.8-12.1,22-24.1,42.4-20
			c13.2,2.6,18.6,16.1,31.1,16.3c11,0.2,11.7-9.6,20.8-16.4c13.9-10.3,21.7,0.2,35.3-2.7c4.8-1,8.3-6.6,13.8-8.6
			c1.9-0.7,20.4-2.4,20.3-4c-0.8-20.9,16.1-32.8,36.3-20.2c11.2-19.2,58.2,14.8,57,32.6c13.6,0.9,15.5-2.2,26.3-7.9
			c13.8-7.3,26.5-0.7,41,1.5c-0.4,2.4,1.3,6.5,0.7,9.2c7.5,1,11-10.6,16.6-14.6c3.9-2.8,10.7-6.7,13.8-8.4c3-1.6,4.6-5.4,11.1-6.7
			c5.2-1,10.8-2,15.6-2.9c12.8-2.5,15.6-1.4,25.9,7.9c2.6,2.4,1.4,5.4,4.5,7.2c2.4,1.4,6.9-1.2,9.6,0.1c2.6,1.3,2,5.4,4.7,7.1
			c2.1,1.3,6-0.3,7.5,0.8c4.9,3.6,2.5,8.5,11.1,8.3c5.8-0.1,9.3-7.9,16.3-8.4c4.4-24.8,30.4-18.7,47.6-20.4
			c3.2-17.3,20.7-17.2,33.9-20.2c7.6-1.8,5.4-6.6,16.2,0.1c9.2,5.7,31.3,26.3,32,36.7l15.3,23.2c0,7.1,0.4,14.7-0.3,21.5
			c-50.8,11.9-100.3,24.7-152.3,30.7c-49.2,5.7-99,11.3-148.5,13c-41.2,1.4-81.2,7.6-122.2,12.1c-26.5,2.9-53,8.6-79.6,9.9
			c-28.6,1.4-57.5-0.4-86.1,0.2c-58.1,1.2-115.9,9.8-174,9.4c-14.2-0.1-164.2,9.2-203.2,1.8v-13.8
			C1661.1,1513,1659.7,1509.9,1659.3,1510.2"/>
		<path class="st4" d="M2133.8,1451.8c5.3-6.5,12.2-3.9,16.2-10.6c3-5.1,2.4-11.2,7.9-15.4c8.1-6.1,22-6,30.9-3
			c2.1-4.5,0.6-9.4,2-13.7c1.3-4.3,4.3-7.7,7.5-11.6c2.9-3.6,1.9-6.1,7.9-5.4c2.7,0.3,7.2,3.3,9.5,4.8c4.4,2.8,4.7,3.7,5.9,8.1
			c1.1,4.2-0.3,15.9,8,13.2c9.8-3.1,0.2-15.7-3.5-18.8c4.1-3.2,15.3-4.8,19.8-1.8c4.2,2.8,2.9,8.4,5.7,11.7
			c5.2,6,13.2,7.8,17.4,15.6c-7.9,8.2-12.3,11.4-22.9,13.5c-4.7,0.9-16.4,6-9,11.9c7-3.4,15.5-0.7,22.6-2.7c1.6-0.5,2.4-3.1,4.3-3.7
			c4-1.4,8.3,0.1,12.2-0.9c9.7-2.4,19.9-9.3,30.9-11.6c4-0.8,8.2-2.1,12.4-0.9c6.6,1.9,6.6,7.9,10.8,10.8
			c13.5,9.4,28.7-13.2,33.9-23.2c4.9-9.4,5.4-12.9,15.4-15.1c11.2-2.4,26.7-2.5,38.8,1.1c0.9,5.2-2,6.4-5.4,8.7
			c-2.9,1.9-8.1,2.1-10.6,5c-1.1,1.2-0.2,4.3-1.3,6.1c-1.5,2.5-14.1,14.3-6.3,16.5c1,0.3,10.2-5.7,10.9-6.4
			c4.5-4.2,5.7-12.3,11.7-15.3c3.5-1.8,13.1-2,17.1-1.1c8.9,2.1,16.2,14.4,25.6,11.8c7.2-2,9.5-5.6,18.1-5.2
			c4.1,0.2,8.2,0.9,12.3,0.7c1.8-8.8,10.3-7.4,16.8-9c7.6-1.9,9-3.6,13.6-8.6c4.6-4.8,8.7-10.2,15.4-10.7c7.7-0.6,14,5.9,20.8,3.7
			c7.4-2.5,8.4-7.1,17.6-6.1c11.4,1.2,21.2,11.9,23.2,23.4l1.8,12.7c1,13.4-9.1,24.5-20.6,29c-31.9,12.6-70.7,7.3-104.4,7.3
			c-62.4,0-124.4,6.3-186.8,4.6c-35.7-1-71.5,0-107.2-1.7c-16.8-0.8-38-2.2-54.2,2.5C2125.7,1467.7,2131,1455.3,2133.8,1451.8"/>
		<path class="st4" d="M2014.7,1458.9c2.6-2.8,5.3-5,6.9-8.3c1.6-3.6,2.2-6.7,5.3-9.5c5.5-5.1,15-7.8,22.1-9.6
			c5.9-1.5,10.8-1.2,16.6,1c5.2,1.9,12.4,3.7,16.7,7.2c1.7,1.4,4.8,3.7,5.8,5.2c-7,2.2-12.7,11-11.6,18.8c4.3,1.2,6.3-3.5,8.2-6.4
			c2.2-3.4,3.3-4.2,7-6.1c5.6-2.8,6.9-6.6,10.5-11.5c2.2-3.1,5.3-5.2,8.4-7.4c6.8-4.9,12.3-4.5,20.6-3.9c4.2,0.3,9.8,0.3,8.9,6
			l-1-0.5c-0.4,5.1-7.4,6.3-11.2,7.7c-4.1,1.6-4.8,2.9-5.9,7.5c-0.7,3.2-1,5-2.8,7.7c-2.5,3.9-2.7,5.3-2.7,10.4
			c0,4.1,0.6,4.6-3.9,4.9c-8.6,0.5-16.9-1.8-25.6,0c-6.4,1.4-12.2,4.3-18.7,5.4c-9,1.6-17.6-3-26.5-1.3c-5.3,1-9.6,3.3-15.1,3.4
			c-4,0-7.1,1.1-10.8,1.5c-1.7,0.2-9.2,0.4-10.7-0.9C1998.5,1474.2,2011.4,1462.5,2014.7,1458.9"/>
		<path class="st5" d="M1722.5,1505.6c8.4-2.8,12.9-10.8,21.4-4.4c3.7,2.8,4.7,4.7,9.4,3.9c4-0.7,7.9-2.2,11.8-3.6
			c10.9-4.1,27.2-4.6,32.3-16.5c3.3-7.8,12.1-6.1,17.2-13.3c2.8-4,2.7-5.9,7.8-7.7c3.8-1.4,15.8-6,19.7-3.3c2.4,1.7,0.3,1.7,1.6,3.8
			c2.1,3.5,3.8,3.6,7.3,5.8c5.8,3.7-0.8,7.2,2.5,11.8c2,2.8,8.5,1.6,11.3,0.5c6.4-2.5,7.9-6.9,9.7-12.8c2.3-7.3,8.3-6.5,12.3-11.5
			c3.1-3.9,4.6-7.3,9.8-9.1c3.1-1.1,13.4-2.8,16.2-0.9c3.4,2.3-2,6.9-3.4,9.2c-3,5-6.1,14.6,2.9,15.7c2.5-4.6,3.7-9.3,5.4-14.2
			c1.8-5.4,6.2-7.6,10.9-11.3c8.2-6.5,14.3-8.9,24.6-8.4c6.3,0.3,11.9,2.3,16.6,6.4c1.9,1.7,3.3,3.3,5.4,4.4
			c5.9,3.1,8.9,5.3,12.9,11.2c2.7,4,6.6,8.8,7.1,13.8v4.9c-8.7,2.3-17.1,5.8-25.9,7.9c-11.2,2.6-23.9,1.9-35.4,2.9
			c-13.3,1.2-26.2,2.6-39.3,5.3c-20,4.1-40,6.1-60.2,9.1c-20.6,3-40.6,4-61.3,5.7c-20.3,1.7-40.5,4.7-60.6,7.9
			c-7.4,1.2-14.9,2.4-22.4,2C1689.9,1503.8,1712,1509,1722.5,1505.6"/>
		<path class="st6" d="M2619.2,1446.1c0,0-607.6,5-960,75.1h966L2619.2,1446.1z"/>
	</g>
	<g class="st0">
		<defs>
			<path id="SVGID_11_" d="M3081,1262.1c-13.6,2.1-23.4,6.1-33.6,15.1c-2.6,2.3-4.1,4.5-6.9,6.3c-6.5,4.3-12.8,6.4-17.9,12.3
				c-3.5-14.8-22.7,7.4-26.6,11.7c-9.4,10.5-10.5,23-14.1,35.3l-33.9,22.9c-8.3,7.6-17.1,16-21.1,26.9c-5.2,14.1,1.6,16.7,7,27.8
				c6.5,13.6,2.1,30.7,6.6,45.1c6.6,21.6,25.5,38.5,47.9,41.9c12.4,1.9,25.3,0,37.7-0.6c2-0.1,10.2-1.3,12.9-0.1
				c9,3.9,10.9,15.9,16.5,22.8c30.4,37.4,91.2,14.8,130.2,12.1c4.6-0.3,9.4-0.3,14.2,0v-267.7c-0.5,0.1-1,0.3-1.5,0.4
				c-11.6,3.1-20.8,10.6-31,14.8c-9-19.3-30.4,0.8-40.5,6.2c-7-4-4.6-15-8.4-21.5c-5.7-10-14.8-12.9-24.9-12.9
				C3089.6,1261,3085.3,1261.5,3081,1262.1"/>
		</defs>
		<clipPath id="SVGID_12_">
			<use xlink:href="#SVGID_11_"  style="overflow:visible;"/>
		</clipPath>
		
			<linearGradient id="SVGID_13_" gradientUnits="userSpaceOnUse" x1="0" y1="2000.1248" x2="1" y2="2000.1248" gradientTransform="matrix(-326.6654 100.1049 -100.1049 -326.6654 203660.4219 654670.0625)">
			<stop  offset="0" style="stop-color:#CFBD43"/>
			<stop  offset="0.6924" style="stop-color:#808633"/>
			<stop  offset="1" style="stop-color:#5C6D2B"/>
		</linearGradient>
		<polygon class="st7" points="3176.1,1183 2836,1287.3 2945.7,1645.1 3285.8,1540.9 		"/>
	</g>
	<g class="st0">
		<defs>
			<rect id="SVGID_14_" width="3200" height="2000"/>
		</defs>
		<clipPath id="SVGID_15_">
			<use xlink:href="#SVGID_14_"  style="overflow:visible;"/>
		</clipPath>
		<path class="st8" d="M3007,1373.5l15.3-51.3c-2.5-23.9,58-48,58.9-14.8c11.8-4.3,20.2,14.1,24.3,22.4c5.3-3.5,12.5-3.7,17.1-6.7
			c8.1-5.1,13.2-11.9,24-11.9c29.3,0,61.6,34.9,63.7,63.2c12.5-12.7,9-34.4-0.5-47.9c-7.5-10.6-18.9-8.9-26-17.3
			c6.5-6.5,19.5-10.2,28.5-11.2c12.2-1.3,16.5,5.7,26.3,9c11.2,3.8,16.5,2.5,25.4,12.7c7.1,8.2,6.2,12.7,7.5,22.5
			c2.4,18.7,24.3,25.8,20.6,48.7c-1.4,8.4-8.4,9.6-11,16.3c-1.7,4.5-0.1,14,0.1,18.9c7.5,1.8,18,8.4,17.6,17.2
			c16.4-0.9,27.2,14.5,26.1,30c-8.7-8.2-17-12.3-27.4-15.5c-12.7-4-48.2-10.4-52.2,10.2c7.8,2.3,18.7-5.6,27.1-6.3
			c6.5-0.6,11,0.1,16.4,3.5c5.4,3.5,7.3,9.7,11.1,14.1c4,4.7,9,7,12.1,13c15.7-9.8,39.9-2.4,43.4,15c0.9,4.2,0.6,11.4-0.8,15.3
			c-1.3,3.5,0.3,3.5-2.6,5.8c-0.6,0.5-6.8-0.1-7-0.1c-14.1,1.2-28.8,0.3-42.9,1.1c-44.1,2.7-88.1,10.2-132.2,11.9
			c-17.8,0.7-34.2,0.9-50.8-4.2c-29.1-8.8-64.1-22.2-84.7-46c-17.4-20.1-5.5-46.5-13.4-70c-3.7-11-11.1-20.9-12.9-32.5
			C3007.4,1383.7,3009,1378.3,3007,1373.5"/>
	</g>
	<g class="st0">
		<defs>
			<path id="SVGID_16_" d="M2798.7,1256.9c-9.8-6.4-16.1-10.2-27.3-6.8c-13.2,3.9-27.1,13.4-28.6,27.6c-0.4,3.4,0.3,7.2,0.2,10.7
				l-14.2,9.8c-5.7-3.1-12.6-2.3-18.8,0.2c-12.4,5.1-13.7,13.4-17.3,24c-8.1,23.8-18,42.8-16.3,69c1.7,25,12.7,42.2,32.5,56.4
				c6.2,4.5,6.6,0.8,8.7,10.9c4.6,22.6,15.2,31.2,39.6,32.7c5.4,0.3,11.5-0.1,17.7-0.5c12.6-0.8,25.8-1.7,35.8,3.6
				c15.6,8.2,25.6,25.8,38.2,37.5c17.6,16.3,38.3,10.4,59.3,4.1c18.3-5.4,43.1-9.3,62-4.3c5.1,1.3,9.4,3.9,14.4,5.9
				c21,8.5,46.5,8.7,67.9,1.7c7.8-2.5,16.2-1.3,24.6,0c13.1,2,26.5,4,37.9-8.4c2.1-2.3,2.1-5.6,4.2-7.8c1.3-1.3,5.4-0.6,7.3-2.4
				c3.5-3.4,3.6-8.3,3.4-12.9c7-4.5,6.1-10.9,8.5-18.7c1.5-4.8,5.6-8.1,7.2-13.5c3-9.9-1.2-23.4-4.8-32.6c-2.3-5.9-9.6-13.5-11-19.2
				c-1.2-4.7,0.3-9.8,0-14.8c-1.7-27-23.8-56.3-51.3-60.4c-5.7-0.9-12,0.1-18.3,1c-7,1-13.9,2.1-19.9,0.6c-3.1-0.8-3.5-2.4-6.5-3.4
				c-8.6-3-32.1-7.6-40.7-2.1c-3.5,2.2-5.2,9.4-6.3,13.1c-1.7-14.9-21.6-23.4-34.8-22.9c-3.9-11.8-33.4-17.8-36.2-3.5
				c-0.9-6.2-6.7-7.5-9.7-12.3c-3.1-4.9-1.8-6.5-3.3-11.6c-3.4-11.9-12.1-13.5-22.2-18.2c5.1-11.5,11-9.4,18.2-7.4
				c3.2,0.9,6.7,1.8,10.5,1.6c-1.6-24.1-25.2-31.7-45.5-34.8c-8.9-1.3-22-3.9-34.5-3.9C2816.5,1245,2804.6,1247.6,2798.7,1256.9"/>
		</defs>
		<clipPath id="SVGID_17_">
			<use xlink:href="#SVGID_16_"  style="overflow:visible;"/>
		</clipPath>
		
			<linearGradient id="SVGID_18_" gradientUnits="userSpaceOnUse" x1="0" y1="1999.9958" x2="1" y2="1999.9958" gradientTransform="matrix(-469.1289 0 0 -469.1289 3145.512 939652.5)">
			<stop  offset="0" style="stop-color:#75823E"/>
			<stop  offset="0.591" style="stop-color:#61702F"/>
			<stop  offset="1" style="stop-color:#596929"/>
		</linearGradient>
		<rect x="2674.6" y="1245" class="st9" width="473.9" height="303.4"/>
	</g>
	<g class="st0">
		<defs>
			<rect id="SVGID_19_" width="3200" height="2000"/>
		</defs>
		<clipPath id="SVGID_20_">
			<use xlink:href="#SVGID_19_"  style="overflow:visible;"/>
		</clipPath>
		<rect x="3026.9" y="1324.8" class="st10" width="3.1" height="140.4"/>
	</g>
	<g class="st0">
		<defs>
			<path id="SVGID_21_" d="M2671.1,1228.5c-11.3,4.2-22.3,9.7-33.4,14.5c-15.2,6.6-19.4,14.9-24.6,30.1c-2.7,7.7,1.9,3.1-7.4,7
				c-6.5,2.7-14.1,3.2-18.7,9.3c-6.2,8,0.9,11.9,2,19.9c0.5,3.8-2.2,4.8-0.4,9.4c1,2.6,4.4,4.6,5.9,7c4.7,7.3,5.1,1-0.9,9.6
				c-2.9,4.1-6.1,4.5-3.6,11.1c4.2,11.7,22.5,8.3,28.7,16.5c3.7,4.8,0.3,5.4-3.4,10.7c-8.5,12.4-7.7,19.9,8.9,22.1
				c-16.4,7.1-42.1,13.4-48.1,32.8c-1,3.1-0.1,6.4-1.1,9.5c-1.4,4.7-5.9,8.3-5.7,13.7c0.1,3.4,3.6,5.2,3.2,8.3
				c-0.6,4.6-4.3,4.8-6.7,8c-6.9,9.2-4.4,10.1-2.1,19.3c3.1,12.3,11.6,17.9,21.1,26.6c17.7,16.2,48.1,12.1,71.9,13.8
				c29.9,2.2,58.9,6.3,89.3,3.7c27-2.3,54.4-1.7,81.3-4.4c17.1-1.7,32-1,41.4-17.8c2.5-4.5,3-10.2,7.5-13c2.1-1.3,5-1.3,8-1.3
				c3.3,0,6.7,0,9.5-1.6c1.3-0.8,3.1-4.8,4.4-5.9c4.8-4,12.3-4.7,15.3-11c4-8.4-1.9-20.3-4.4-28.2c-4.4-14.3-11.7-20.9-27.3-20.9
				c-10.3,0-26.3,3.5-18.4-7.4c3.3-4.6,15.7-7.4,20.4-11.9c4-3.8,7.6-8,8.9-13.5c0.6-2.6,1.4-5.1,0.8-7.7
				c-2.8-12.3-19.3-19.5-30-15.2c-3.3-13.7-22.2,0.8-27.5,4.5c-3-9-9.4-5.8-6.7-14.6c2-6.6,10.6-12,13.2-19.4c1-2.8,1.9-6.9,2.2-10
				c0.5-4.4,2.9-4.3-0.3-8.9c-4.2-5.9-17.4-5.7-26.4-5.4c-2.4,0.1-4.4,0.1-6,0.1c0.4-7.9,13.6-7.3,23-6.8c3.2,0.2,5.9,0.4,7.6,0.2
				c-1.6-2.1-1.4-6.6-3.4-8.5c-8.3-8.5-25.4-6.7-35.9-8.4c6.7-9.1,12.7-22.4,4.8-34.2c-11.5-17-44.7-7.9-59.5-2.3
				c1.4-10.7-15.6-18-24.5-17.6c1.6-0.1-4.7-11.3-5.6-12.2c-3.5-3.3-8.3-4.6-12.9-5.2c-2-0.3-4-0.4-6-0.4
				C2689.9,1222.2,2679.8,1225.2,2671.1,1228.5"/>
		</defs>
		<clipPath id="SVGID_22_">
			<use xlink:href="#SVGID_21_"  style="overflow:visible;"/>
		</clipPath>
		
			<linearGradient id="SVGID_23_" gradientUnits="userSpaceOnUse" x1="0" y1="2000.0177" x2="1" y2="2000.0177" gradientTransform="matrix(-250.0233 76.6183 -76.6183 -250.0233 156170.2188 501369.5313)">
			<stop  offset="0" style="stop-color:#CFBD43"/>
			<stop  offset="0.6924" style="stop-color:#808633"/>
			<stop  offset="1" style="stop-color:#5C6D2B"/>
		</linearGradient>
		<polygon class="st11" points="2886.7,1121.8 2471.7,1249 2589.7,1634.2 3004.8,1507 		"/>
	</g>
	<g class="st0">
		<defs>
			<rect id="SVGID_24_" width="3200" height="2000"/>
		</defs>
		<clipPath id="SVGID_25_">
			<use xlink:href="#SVGID_24_"  style="overflow:visible;"/>
		</clipPath>
		<rect x="2373.8" y="1353.5" class="st12" width="3.1" height="160.1"/>
		<rect x="1918.1" y="1353.5" class="st12" width="3.1" height="172.4"/>
		<path class="st13" d="M2622.7,1483.6c0.6-1.6,2.3-3,2.5-4.8l13.4-4.2c2.3,0.3,3.6,2.6,5.9,3.4c4.5,1.5,9-0.2,13.8,2.1
			c2.8,1.4,5.9,3.2,7.8,5.7c2.1,2.8,1.1,5.5,2.5,8.2c1.8,3.5,8.5,2.4,11.4,6.2c11-10.6,40.4-21.5,51.9-5.9c2.8,3.8,3.4,3.8,8.7,5.9
			c2.5,1,5,2,7.5,3c1.8,0.8,3.5,1.9,5.1,3.1c3,0.6,4.9-0.9,8.3-1.5c12.8-2.2,24.9,2.4,37.1,5c6.1,1.3,13.8-2.1,19.5,1.2
			c2.4,1.4,10,10.6,8.9,13.9c-1,3-10.9,3.2-12.2,3.4c-18,2.1-36-0.2-54.1-0.7c-15.5-0.4-31.2,1.2-46.6,2.3c-15.7,1.2-31.1,3-46.9,3
			c-9.4,0-18.8,0-28.2,0c-4.1,0-9.1,0.9-12.9-0.6c-5.9-2.4-3.3-13.4-3.6-18.6C2621.9,1504.7,2619.6,1492.3,2622.7,1483.6"/>
		<path class="st14" d="M2830.1,1509.3c0.9-0.8,5.2-6.4,6-7.6c6.1-9.2,12.7-16.3,24.9-21.7c24.8-10.9,47.3-27.1,76.9-22.9
			c13.9,2,29.3,21.5,43.1,15c0.2-1.2,0.3-2.3,0.4-3.4c6.2-0.6,16.3,3.1,21.7,1.2c2.4-0.9,4.3-5.6,6.4-7.5c3-2.6,6.5-6.5,11.1-7.8
			c4.2-1.2,7.6,1.8,11.3,1.5c3.9-0.3,4.9-1.8,9-2.7c17.4-4,27.8,7.5,42.3,16.3c2.4,1.4,11.4,9.5,13.6,9.8c4.6,0.6,2.2-1.9,6.9-3.3
			c9.1-2.7,14.6-5.7,24.7-5.3c10.7,0.4,22.6,2.2,27.7,12.8c7.3-0.4,11.6-6,17.5-7.4c4.3-1.1,9.4,1,13.6-0.1c2.7-0.7,2.9-3.4,5.4-3.9
			c5-1.1,7.9,0.1,13.2,0.1c12-0.1,21.8-7.2,35-4.9c11.1,1.9,22.7,8.1,32,13.8v11.5c0.9,11.1,15.5,16.2,11.3,32
			c-1.9,7-2.8,6-11.2,7.2c-18.3,2.6-37.7,2.2-56.2,4.1c-68.3,7.3-143.4,14.3-211.7,4.8c-54.5-7.6-109.2-3-164-6.5
			c-6.8-0.4-16.2,1.4-19.9-5.1C2815.4,1519.4,2824.7,1513.9,2830.1,1509.3"/>
		<path class="st15" d="M2863.9,1501.3c-0.2-16.1,17.3-16.8,30.6-16.5c0-11.1,17.7-13.6,25.8-13.8c8.5-0.3,16.1,1,22.7,4.2
			c3.4,1.6,5.2,5,9.1,6.1c5.4,1.6,12.3-0.3,17.6,1.2c4.9,1.3,6.4,3.3,12.3,3.9c9,0.9,11-0.7,18.2,4c5.7,3.7,10.7,11.1,16.5,15.1
			c1.2-15.4-5.7-15.6-16.5-23.5c3.2-3.7,18.6-7.3,24.1-8.3c3.7-0.7,7.9,0.6,11.6,0c3.3-0.5,5.8-3.3,8.9-3.7
			c7.8-1.1,15.2,1.4,21.9,3.5c8.4,2.6,7.3,4.8,12.3,9.2c3.7,3.3,9.4,5.4,12.5,10.2c2.1,3.2,1.6,11.5,4,13.4
			c14.6,11.7,5.3-18,5.4-20.6c8.7-1.2,17.4-2.9,26.5-3c7.4-0.1,11.3,0,16.3,2.5c3.6,1.8,4.4,7,10.5,7.9c-1.2,5.7-5.6,9.8-4.9,16.1
			c10.6,2.6,17.7-15.4,24.2-19.6c7.9-5.2,18.1,1.4,26.5,0.8c3.7-0.3,10.3-1.6,14-2.6c8.3-2.3,14.9-8.6,24.1-7.4
			c8.1,1.1,13.9,5.3,11,12.5c-3.6,9-21.2,13.3-9.6,26.7l-7.6,8.9c-15,0.1-28.4,5.2-43.2,7.7c-36.5,6-76.2,5.8-113,5.2
			c-37-0.6-75.4,0.7-112-5.1c-39.5-6.3-79.1-4.3-118.9-6.7C2843.6,1517.6,2851.8,1504.1,2863.9,1501.3"/>
		<path class="st13" d="M2640,1475.9c-3.8-7.4-13.6-11.4-23.9-10.9c-10.7,0.5-13.5,8.4-16.9,15.6c-6.5-0.6-7.5-8.5-12.6-11.5
			c-5.5-3.3-21.7-9.6-26.2-2.2c-15-3-29.8-9.5-45.4-1.9c-7.3,3.6-17.6,11.4-17,18.9c-8.3-2.3-15-5.5-24.7-3.3
			c-7.4,1.7-9.7,5.5-15.1,8.7c-3.3,1.9-3,1.5-6.9,3c-7.6,2.8-13.9,8.7-21.3,6.5c-12-3.4-19-11.7-32.7-12.2
			c-13.7-0.4-23.5,13.9-37.7,9.3c-4.1-1.3-7.8-6.2-12.3-7.9c-4.5-1.7-6.7-0.3-10.9-0.7c-8.6-0.8-16.1-5.5-27-4.8
			c-17.3,1.1-34.1,19.1-52.4,14.1c-5.7-1.5-9.7-6.3-14.2-9.3c-7.5-4.9-14-7.5-23.6-8.2c-10.9-0.8-20.5,1.6-29.7,3.4
			c-17,3.2-35.9,10.2-42.5,24.6c-1.3,2.9-4.7,18.3-0.1,20.9H2640V1475.9z"/>
		<path class="st16" d="M2609.9,1499.6l-11.7-4.7c-1.3-4-5.6-8-10.1-10.1c-5.6-2.7-6-0.6-10.8-1.4c-1.8-0.3-2.2,0.6-4.2,0
			c-2.2-0.7-5.5-4.3-8.3-5.4c-8.2-3.1-20.9-5.6-30-3.9c-9.5,1.7-5.5,7.3-12.2,11.3c-9.1,5.4-25.3,3.9-27.7,15.7
			c-7.3-1.7-12.5-5-20.2-5.5c-8.9-0.6-16.2,1.9-23.4,6c-6.6,3.9-10.9,11.9-19.6,9.6c-2.8-0.7-3.1-2.6-6.2-2.8
			c-4.1-0.3-8,2.1-10.2,4.8c-2.4,2.9-1.5,6.7-4.9,9.4c-6.7-1.7-6.1-8-3.6-12.5c3.2-5.7,9.6-6,3.9-11.8c-2.8-2.9-8.4-5.3-13.1-4.8
			c-5.6,0.6-3.8,2.4-7.3,4.8c-9.3,6.3-24.9,3.4-31.7,13.5c-5.2-1.9-17.8-4.9-17.7-10.8c-6.3-0.4-7.1-0.5-12.4-2.7
			c-5.5-2.3-9.4-4.1-15.7-4.2c-11.1-0.2-22.4,4.3-28.3,11.5c-3.7,4.6-2.2,15-10.3,15.6c-10,0.7-11.8-13.6-4.3-16.1
			c-8.1-0.6-19.7,2.9-26.6-0.9c-7.9-4.4-6.7-12.3-17.7-13.3c-13.6-1.2-32.5-1.6-44.9,3.1c-16.4,6.2-29.3,24.6-22.4,40
			c50.2,2.3,101.3,0.1,151.6,0.1c46.5,0,93.3,1.2,139.8,3.2c54.5,2.4,110.2,6.6,164.9,3.5C2615.7,1526.7,2611,1513.2,2609.9,1499.6"
			/>
		<path class="st16" d="M2593,1503.1l8.8-4.6c3.6-1.8,7.8,0.3,11.5,1.7c1.8-2.2,4.2-4.2,6.6-5.8c0.4-0.3,4.7-1.7,4.9-2.2
			c0.8-1.9-2.5-2.5-2.9-4.1c-1.1-4.3,4.1-4.3,6.8-3.8c7,1.2,12.9,6.4,14.5,13.4c4.3,0,9.2-0.1,13,2.5c2.1,1.4,4.1,3.9,5,6.3
			c0.6,1.6,0.2,3.3,0.8,4.7c2.4,6.9,13,5.3,18.8,4.8c0.9-3.4,5.5-8.1,8.8-9.1c6.7-2,14.9,4.5,20.2,7.9c2-7-7.3-12.8-11.5-16.7
			c3.4-2.1,14.1-0.9,18,0c6.1,1.5,11.5,5.3,15,10.4c4.2-1.1,9.6,0,13.3,2.2c1.6,1,2.8,2.9,4.3,3.7c3,1.4,7.2,0.1,10.2-0.3
			c5.6-0.9,11.2-1.8,16.9-1.8c3.4,0,44.7,7.5,37.4,16.2c-1.4,1.6-12.7-0.7-13.4-0.7c-7.4-0.9-14.8-1.6-22.2-2.5
			c-13.1-1.4-26.1-1.3-39.2-0.9c-16.3,0.5-32.6,0.6-49,0.2c-12.3-0.3-24.9-0.8-37.1,1.2c-16.8,2.7-33.6,4.5-50.2,0.4
			c-4.9-1.2-13.8-3-14.4-9.3C2587.4,1512.8,2591.3,1506.7,2593,1503.1"/>
	</g>
	<g class="st0">
		<defs>
			<rect id="SVGID_26_" y="1509.4" width="3200" height="490.6"/>
		</defs>
		<clipPath id="SVGID_27_">
			<use xlink:href="#SVGID_26_"  style="overflow:visible;"/>
		</clipPath>
		
			<linearGradient id="SVGID_28_" gradientUnits="userSpaceOnUse" x1="0" y1="1999.9971" x2="1" y2="1999.9971" gradientTransform="matrix(0 508.3599 508.3599 0 -1015118.25 1500.3872)">
			<stop  offset="0" style="stop-color:#A5B66C"/>
			<stop  offset="1" style="stop-color:#82A142"/>
		</linearGradient>
		<rect x="0" y="1509.4" class="st17" width="3200" height="490.6"/>
	</g>
	<g class="st0">
		<defs>
			<path id="SVGID_29_" d="M0,1956.4h3200v-438.2c-81.1,14.9-235.7,42.2-310.8,48.5c-104.4,8.7-443.3,2.9-643.2-14.6
				c-200-17.5-825.9,2.9-1087.8,13.5c-132.4,5.4-421.8-16.2-679.5-37.7c-227.8-19-430.9-38.1-478.7-38.5V1956.4z"/>
		</defs>
		<clipPath id="SVGID_30_">
			<use xlink:href="#SVGID_29_"  style="overflow:visible;"/>
		</clipPath>
		
			<linearGradient id="SVGID_31_" gradientUnits="userSpaceOnUse" x1="0" y1="2000" x2="1" y2="2000" gradientTransform="matrix(3262.0505 0 0 -3262.0505 -9.8358 6525824)">
			<stop  offset="0" style="stop-color:#A5B66C"/>
			<stop  offset="1" style="stop-color:#82A142"/>
		</linearGradient>
		<rect y="1489.4" class="st18" width="3200" height="467.1"/>
	</g>
	<g class="st0">
		<defs>
			<rect id="SVGID_32_" width="3200" height="2000"/>
		</defs>
		<clipPath id="SVGID_33_">
			<use xlink:href="#SVGID_32_"  style="overflow:visible;"/>
		</clipPath>
		<path class="st19" d="M863.1,1114.9c0,0-18,1.2-25.3,5.8c-7.3,4.5-14,6.3-12.7,8.4c1.3,2.1,14.1-2.4,14.4,0
			c0.3,2.4-11.3,9.4-14.6,10c-3.2,0.5-10.6,1.6-9.3,5.8c1.3,4.2,13.7,5.5,23.6,5.8c9.9,0.3,34-15.7,34-15.7L863.1,1114.9z"/>
		<path class="st20" d="M876.2,1137.4c18.2,0,78.3-40.1,98.5-56.4c2.2-1.8,3.9-3.2,5-4.4c7.5-7.7,33.5-45.5,51.9-79.2
			c10.6-19.4,18.7-37.4,19.4-47.5c2.3-36.1-16.7-86.5-16.7-86.5c-56.1,19.5-62,64.4-62,64.4l-28.8,107.1c-1.5,5.7-4.8,10.8-9.3,14.5
			l-76.1,63.2C855.5,1123.4,870.2,1137.4,876.2,1137.4"/>
		<path class="st21" d="M974.7,1081c2.2-1.8,3.9-3.2,5-4.4c7.5-7.7,33.5-45.5,51.9-79.2c2.4-20.4,0.7-39.5-7.6-52.8
			C1024,944.6,976.2,1028.6,974.7,1081"/>
		<path class="st19" d="M1007.1,1414.7l9.5,39.8l5.9,24.6l19.7,82c0,0,16.8,5.2,34.3,0c0,0,6.5-27.1,6.7-61
			c0.1-17.7-1.5-37.2-6.7-55.7c-2.1-7.5-4.8-14.8-8.2-21.8C1040.5,1366.1,1007.1,1414.7,1007.1,1414.7"/>
		<path class="st22" d="M990.8,1585.1h92.4c0,0,1.5-14-2.6-27.4c-0.6-2-1.3-4-2.2-5.9c0,0-20.6,4.7-38.4,0c0,0-16.7,14.2-26.8,18.6
			C1003,1574.9,991.8,1572.5,990.8,1585.1"/>
		<path class="st23" d="M1016.6,1454.5l5.9,24.6c10,6.4,31.7,18,60.6,21c0.1-17.7-1.5-37.2-6.7-55.7c-8.5-4.3-17.1-6.6-24.5-5.3
			C1033.6,1442.4,1022.7,1449.1,1016.6,1454.5"/>
		<path class="st24" d="M1038.7,1585.1h44.4c0,0,1.5-14-2.6-27.4C1069.4,1561.2,1046.7,1569.9,1038.7,1585.1"/>
		<path class="st19" d="M1080.7,1414.7l9.5,39.8l5.9,24.6l19.7,82c0,0,16.8,5.2,34.3,0c0,0,6.5-27.1,6.7-61
			c0.1-17.7-1.5-37.2-6.7-55.7c-2.1-7.5-4.8-14.8-8.2-21.8C1114.2,1366.1,1080.7,1414.7,1080.7,1414.7"/>
		<path class="st22" d="M1152,1551.9c0,0-20.6,4.7-38.4,0c0,0-16.7,14.2-26.8,18.6c-10.1,4.4-21.3,2-22.3,14.6h92.4
			C1156.8,1585.1,1158.7,1566.7,1152,1551.9"/>
		<path class="st23" d="M1090.3,1454.5l5.9,24.6c10,6.4,31.7,18,60.6,21c0.1-17.7-1.5-37.2-6.7-55.7c-8.5-4.3-17.1-6.6-24.5-5.3
			C1107.3,1442.4,1096.4,1449.1,1090.3,1454.5"/>
		<path class="st25" d="M993.7,1460.2c34.5,21.9,178.3,6.2,179.5-15c0,0-7.1-53.1-9.5-75.4c-1-9.2-1.5-16.6-0.9-20.5
			c15-99,27.5-215.5,26-237.8c-0.2-3.1-0.4-4.8-0.4-4.8s-10.8-0.9-27.2-1.5c-47.7-1.9-143-1.6-158.8,29.6
			c-16.1,31.8-16.5,216.4-16.5,216.4C985.9,1402.1,993.7,1460.2,993.7,1460.2"/>
		<g class="st26">
			<g>
				<defs>
					<rect id="SVGID_34_" x="1120.4" y="1105.2" width="68.4" height="264.6"/>
				</defs>
				<clipPath id="SVGID_35_">
					<use xlink:href="#SVGID_34_"  style="overflow:visible;"/>
				</clipPath>
				<path class="st27" d="M1163.7,1369.8c-1-9.2-1.5-16.6-0.9-20.5c15-98.9,27.5-215.5,26-237.8c-0.2-3.1-0.4-4.8-0.4-4.8
					s-10.8-0.9-27.2-1.5c-24.7,14.5-40.7,39.3-40.7,39.3S1125.4,1329.7,1163.7,1369.8"/>
			</g>
		</g>
		<path class="st28" d="M1097.7,720c0-12.9-7.4-22.2-21.7-23c-10.5-0.7-24.9,5.7-24.9,18.6c0,12.9,10.4,27.8,23.3,27.8
			C1087.2,743.3,1097.7,732.9,1097.7,720"/>
		<path class="st28" d="M1077.8,813c0,0,56-50.5,12.9-89.2c-4.2-3.8-9.3-6.4-14.8-7.6c-15.1-3.3-48.6-7.9-65.5,10.8
			c-18.3,20.2-25.5,35.5-10.3,53.9C1015.4,799.4,1077.8,813,1077.8,813"/>
		<path class="st19" d="M1150.9,1147.2c0,0-2.5,9.7-1.5,21.3c1.4,16.2,4.4,25.1,14.9,30.4c0,0,12.2,8.3,14-2.5
			c1.9-10.8-1.8-11.2,1.1-26.4c2.9-15.2,0.7-26.7-8-33.5L1150.9,1147.2z"/>
		<path class="st19" d="M1027.3,812.5c0,0,0.8,8.3,2.2,19.6c0.7,5.5,1.5,11.7,2.5,17.9c0.7,4.5,1.5,9,2.3,13.4l19.1,64.5l44.8-72.5
			c0,0-10.5-8.7-24.8-55.9c-0.1-0.5-0.2-0.8-0.2-0.8L1027.3,812.5z"/>
		<path class="st20" d="M1001.1,1130.6c-0.6,7.2,1.3,8.6,1.3,8.6s27.6,10,96.9,6.5c7.5-0.4,14.6-0.8,21.2-1.2
			c44.7-2.6,68.6-5.4,68.6-5.4s36.6-84.5-32.2-188.5c-7.8-11.8-16.9-23.8-27.6-36c-11.1-12.7-13.6-29.7-17.8-45.8
			c-1.2-4.6,2.3-5.6,0.5-10c0,0-12.5-3.5-13.8-3.5c-7.1,6.3-16.5,18.5-39.8,20.9c-15.8,1.6-21.9-7.2-24.2-12.6
			c-6,2.2-12.2,5.9-17.3,8.4c-42.2,20.3-46.1,59.6-46.1,59.6s38.8,127.6,41.2,143.6C1013.1,1082.2,1004.2,1093.3,1001.1,1130.6"/>
		<path class="st23" d="M1029.4,832.1c0.7,5.5,1.5,11.7,2.5,17.9c49-19.1,42.7-45.7,41.4-50.7c-0.1-0.5-0.2-0.8-0.2-0.8
			S1048,816.4,1029.4,832.1"/>
		<path class="st19" d="M1019.3,838.4c0,0,54.8,1.8,55.4-32.4c0.6-34.2,8-56.9-26.9-59.5c-35-2.6-42,10.4-45,21.7
			C999.8,779.6,1005,837.1,1019.3,838.4"/>
		<path class="st28" d="M1014.5,741.4c0,0,3.4,65.1,70.3,59C1084.7,800.4,1083.3,713.4,1014.5,741.4"/>
		<path class="st28" d="M1027.3,747.1c0,0-19.8,12.1-26,31.5C1001.3,778.6,979.2,747.8,1027.3,747.1"/>
		<path class="st21" d="M1120.4,1144.5c44.7-2.6,68.6-5.4,68.6-5.4s36.6-84.5-32.2-188.5C1142.9,983.1,1110.1,1069.8,1120.4,1144.5"
			/>
		<path class="st20" d="M1098.2,855.3c0,0,53,10.9,76.7,38.2c18.1,21,37.9,123.5,37.9,140.4c0,16.2-18.6,102.2-30.2,118.7
			c-0.8,1.1-2.2,1.8-3.5,1.6l-29.9-3.2c-2.5-0.3-4.3-2.6-3.9-5l16.8-108.8l-58.9-104.5C1103.1,932.8,1068.4,891.7,1098.2,855.3"/>
		<path class="st19" d="M1150.7,1154.3c0,0-7.9,22.6-5.8,24.7c2.1,2.1,7.6-7.1,7.6-7.1L1150.7,1154.3z"/>
		<path class="st28" d="M1012.5,815.4c0,0,1.6,5.6,4.2,6.1c2.6,0.5,6.8,1.4,10.5,0c3.7-1.4,4.7-4.4,4.7-4.4S1023.6,814,1012.5,815.4
			"/>
		<path class="st29" d="M1278.3,1583.9l-1.5-442.8c0,0-3.4-31.9-31.2-32.1c-29.7-0.2-31.6,31.7-31.6,31.7s0.4,2.8,3.5,2.8
			c3.2,0,3.7-2.7,3.7-2.7s1.5-24.6,24.3-24.4c21.4,0.1,24.1,24.7,24.1,24.7l-2.6,442.8L1278.3,1583.9z"/>
		<path class="st29" d="M1263.2,1583.8l18.5,0.1l-1.5-19.3c0,0,0.2-2.7-3.6-2.9c-3.5-0.2-10.3-0.7-11,1.4
			C1265,1565,1263.2,1583.8,1263.2,1583.8"/>
		<path class="st19" d="M1245.5,1085.5l-1.3,6.3c0,0-31.3-0.3-38.8,33.2c0,0-2.1,13.9,8,11c10.1-2.9,8.6-10.1,22.8-13.9
			c14.3-3.8,23.6-6.8,25.8-17.1l2.4-11.5L1245.5,1085.5z"/>
		<path class="st25" d="M1357.9,811.7c0,0-8.5,32.5-15.8,62.3c-2.9,12-5.7,23.5-7.7,32.3c-2,9-3.1,15.1-2.7,15.8
			c6.2,10.1-5.6,71.5-14.7,93.8c-0.8,2-1.9,4.3-3.2,6.9c-12.7,24.5-46.4,72.6-46.4,72.6s-9.4,0.9-15.6-1.4c-5.1-2-8.6-8.3-8.6-8.3
			c3-4.8,15.4-61.5,31.2-93.3c6.7-13.6,17.3-139.9,30.3-156.9C1315.5,821.2,1357.9,811.7,1357.9,811.7"/>
		<g class="st26">
			<g>
				<defs>
					<rect id="SVGID_36_" x="1310.2" y="894.5" width="24.2" height="128.1"/>
				</defs>
				<clipPath id="SVGID_37_">
					<use xlink:href="#SVGID_36_"  style="overflow:visible;"/>
				</clipPath>
				<path class="st30" d="M1331.7,922c6.2,10.1-5.6,71.5-14.7,93.8c-0.8,2-1.9,4.3-3.2,6.9c-11.7-53.1,8.6-128.2,8.6-128.2
					c4.9,2,8.9,6.1,12,11.7C1332.4,915.2,1331.3,921.3,1331.7,922"/>
			</g>
		</g>
		<path class="st31" d="M1415,1535.9c0,0,2.9,48-6.2,48.6c-1.2,0.1-46-0.2-46-0.2l-57.8-0.3c0,0,1.1-14.1,17.8-16.9
			c16.7-2.8,44.8-14.4,55-36.4C1388.6,1507.6,1415,1535.9,1415,1535.9"/>
		<path class="st32" d="M1501.8,1536.4c0,0,2.9,48-6.2,48.6c-1.2,0.1-46-0.2-46-0.2l-57.8-0.3c0,0,1.1-14.1,17.8-16.9
			c16.7-2.8,44.8-14.4,55-36.4C1475.5,1508.1,1501.8,1536.4,1501.8,1536.4"/>
		<path class="st20" d="M1418.4,1420.2c1.3,20.3,4,46.4,2.9,70c-1.6,32.9-2.8,60.6-2.8,60.6c-21.7,7.2-61.5-1.9-61.5-1.9
			s-13.6-83.2-24.9-149.7c-5-29.8-9.2-55.5-10.8-67.7c-5-39.3,7-248,7-248s58.9-37.3,83.1-17.7c24.1,19.5,38.9,38.6-1.4,250.8
			C1406.9,1332.6,1415.5,1374.7,1418.4,1420.2"/>
		<path class="st21" d="M1418.4,1420.2c1.3,20.3,3.7,52.8,2.6,76.3c-20.3-21.7-60.2-67.5-88.9-97.4c-5-29.8-9.2-55.5-10.8-67.7
			c-5-39.3,7-248,7-248s58.9-37.3,83.1-17.7c24.1,19.5,38.9,38.6-1.4,250.8C1406.9,1332.6,1415.5,1374.7,1418.4,1420.2"/>
		<path class="st20" d="M1381.4,1088c0,0,4,209.1,12,247.9c8,38.8,49.9,216.5,49.9,216.5s40.3,3.9,61.4-5c0,0-0.9-82.2-7.7-130.5
			c-6.4-45.1-18.1-86.4-16.3-102.7c23.9-214.7,7.7-232.6-17.9-250.2C1437.2,1046.3,1381.4,1088,1381.4,1088"/>
		<path class="st19" d="M1460.9,1106.8c0,0-14.1,27.9,12.6,49.5c0,0,11.6,8,13.4-2.3c1.8-10.3-0.2-6.7,2.7-21.2
			c2.9-14.5-0.6-29.5-8.9-36.1L1460.9,1106.8z"/>
		<path class="st19" d="M1345.2,764.2c0,0,15.8,25.6,12.4,48.4l23.7,56.6l42.3-65c0,0-21.5-25.4-29.7-59.2L1345.2,764.2z"/>
		<path class="st19" d="M1338,785.1c0,0,58.7,2.9,59.9-32.3s17.3-58.6-26.6-61.9c-36.1-2.8-48.2,12.2-51.5,23.9
			C1316.7,726.4,1316.3,783.1,1338,785.1"/>
		<path class="st25" d="M1479.9,1098.7c-12.6,1.1-30,2.4-51.1,3.6c-4.2,0.2-8.6,0.5-13.1,0.7c-63.6,3.2-88.8-7.3-88.8-7.3
			s-1.7-1.4-1.1-8.8c3-38.4,11.2-49.8,10.3-57.1c-2.1-16.4-41.2-150.7-41.2-150.7s-0.5-42.3,46.7-61.9c4.9-2,10.2-3.8,16.2-5.3
			c2,5.5,7.6,14.7,22.1,13.1c21.4-2.4,36.7-14.9,43.3-21.3c1.2,0,1.6,0,1.6,0c1.6,4.5,2.8,9.2,3.9,14c3.8,16.7,5.9,34.2,16.1,47.3
			c10,13,18.6,25.8,25.8,38.3c6.1,10.4,11.3,20.6,15.7,30.6C1527.4,1026.3,1494.7,1097.4,1479.9,1098.7"/>
		<g class="st26">
			<g>
				<defs>
					<rect id="SVGID_38_" x="1428.3" y="899.6" width="63.5" height="202.7"/>
				</defs>
				<clipPath id="SVGID_39_">
					<use xlink:href="#SVGID_38_"  style="overflow:visible;"/>
				</clipPath>
				<path class="st33" d="M1479.9,1098.7c-12.6,1.1-30,2.4-51.1,3.6c-5.5-103.5,37.2-202.7,37.2-202.7c1.6,1.1,3.1,2.4,4.5,3.8
					c7.3,7.2,12.4,17.8,15.7,30.6C1498.5,981,1487.6,1057.2,1479.9,1098.7"/>
			</g>
		</g>
		<path class="st28" d="M1319.3,751.4c0,0-11.7,45.3,7.7,51.8c19.4,6.5,70.9,1.7,71.2-53.9c0,0-27.1,15.9-40,15.5s-21.2-8-33.1-2.2
			C1325,762.5,1320.6,762.2,1319.3,751.4"/>
		<path class="st25" d="M1424.8,803.7c0,0,41,1.2,62.5,29.5c16.5,21.7,33.3,137.8,33.2,155.2s-19.4,113.7-29.9,124.1
			c0,0-6.8,1.7-15.8-0.1c-9.6-1.9-15.2-7.5-15.2-7.5s5.8-107.2,5.9-117.3c0.1-14.6-44.9-104-44.9-104S1397.2,841.1,1424.8,803.7"/>
		<path class="st28" d="M1395.5,701.9c-1-3.6-5.4-5.5-5.4-5.5c-33-14.6-57.2,1-57.2,1c20.4-27.1,69.3-21.1,79.4,3.5
			c16.6,40.2-14.2,48.3-14.2,48.3s-30.6-13.1-12.8-29.2c5.9-5.3,8.8-10.1,9.8-14.2C1395.5,704.5,1395.6,703.2,1395.5,701.9"/>
		<path class="st28" d="M1328.9,769.8c0,0,3.9,6.1,10.6,5.9c6.8-0.2,9.9-5.9,9.9-5.9S1338.1,767.6,1328.9,769.8"/>
		<path class="st34" d="M701.1,1119.4l-15.7,2.9c0,0-42.9-66.2-44.2-86.3c-1.2-19.3-39.9-103.6,5.4-156.2c2-2.4,4.3-4.7,6.7-6.9
			c0.1-0.1,0.2-0.2,0.3-0.2c0,0,0.1,0.1,0.2,0.4c0.9,1.5,4.5,8,8.7,22.4c6.6,22.5,14.8,64.2,16.7,136.2
			C679.2,1031.5,689.8,1093.2,701.1,1119.4"/>
		<path class="st34" d="M701.1,1119.4c0,0,14.3,15.9,14.7,21.7c0.6,7.7-5.4,20.3-9.2,19.1c-3.9-1.2-4.4-7.5-5.5-12.2
			c-1.1-4.8-6.2-9.9-5.9-7.7c0.3,2.2,3.3,10.6,2.4,12c-0.9,1.4-2,1.1-4.2-3c-2.6-4.9-8.4-11.7-7.6-16.7c0.8-5.4,0.9-6.6-1.1-13.1
			c-2-6.5-5.5-14.3-5.5-14.3l12.1-2.6L701.1,1119.4z"/>
		<path class="st25" d="M555.4,1406.8c0,0.2,0,0.4,0.1,0.5c0,0.3,0.1,0.6,0.1,0.9c2.2,21,6.8,42.2,12.3,62
			c14.3,51.5,34.8,90.8,34.8,90.8l17-1.6c0,0-9.3-39.6-10.1-93.5c-0.6-37.7,3-82.2,16.9-125.1c8.1-25.1,14.5-48.9,19.6-71.3
			c16.5-72.9,18.6-129.7,18.2-159.3c-0.2-14.6-1-22.6-1-22.6l-95.8,13.5l-4.5,0.6c0.6,44.1,0.9,104.1,1.1,151
			c0,11.3,0,21.8,0.1,31.2c0,13,0,23.8,0,31.2v11.3c-5.5,12.5-8.4,26.6-9.6,41.5C553.7,1380.5,554,1393.6,555.4,1406.8"/>
		<path class="st19" d="M592.2,1542.8c-0.4-2.2-1-5.1-1.7-8.2c-6.9-16.2-15.6-38.8-22.7-64.5c24.1,2,36-1.2,41.7-4.3
			c0.3,20.9,1.9,39.7,3.7,54.8c2.5,9.4,7.1,24.5,12.4,30.8c8.4,10,17.7,18.7,29,24.4c1.3,0.6-28.1,10.9-43.1,9.4
			c-15-1.6-27.4-4.2-26-13.5c0.5-3.3,1.3-6.6,2.6-9.6C590.6,1556.7,593.4,1549.5,592.2,1542.8"/>
		<g class="st26">
			<g>
				<defs>
					<rect id="SVGID_40_" x="554.1" y="1315.2" width="29.8" height="91.6"/>
				</defs>
				<clipPath id="SVGID_41_">
					<use xlink:href="#SVGID_40_"  style="overflow:visible;"/>
				</clipPath>
				<path class="st35" d="M555.4,1406.8c-1.5-17.6,28.5-78.2,28.5-78.2l-19.7-13.3v11.3c-5.5,12.5-8.4,26.6-9.6,41.5
					C553.7,1380.5,554,1393.6,555.4,1406.8"/>
			</g>
		</g>
		<path class="st24" d="M612.8,1587.9c15.1-0.8,10.8,2.7,31.8,4.4c20.9,1.6,28.6-4.9,29.8-7.8c1.1-2.6-8.9-5.5-19.5-8.8l-0.1,0.2
			c0,0-13.9,6.4-31.1,3.6c-14-2.3-27.9-9.1-37.6-10.7c-0.8,3.1-1.6,6.3-1.6,9.7C584.6,1587.7,597.7,1588.7,612.8,1587.9"/>
		<g class="st26">
			<g>
				<defs>
					<rect id="SVGID_42_" x="563" y="1087.7" width="100.3" height="240.9"/>
				</defs>
				<clipPath id="SVGID_43_">
					<use xlink:href="#SVGID_42_"  style="overflow:visible;"/>
				</clipPath>
				<path class="st36" d="M563,1101.8c0.6,44.1,0.9,104.1,1.1,151c0,11.3,19.8,66.4,19.8,75.8c16-22.7,29.8-179.9,51.8-219.7
					c-0.2-14.6,27.6-21.2,27.6-21.2l-95.8,13.5L563,1101.8z"/>
			</g>
		</g>
		<path class="st37" d="M547.9,690.1c-0.6-2-7.8-24.4-42.7-16.9c0,0,17.5-2.2,22.3,4.5c0,0-13.9-6.3-22.5-1
			c-8.7,5.3-10.1,23.2-8.8,28.6c1.3,5.4,10.9,21.6,17.2,21.6c2.4,0,5-0.8,7.2-1.8c-1,2.9-1.8,6-2.6,9.4
			c-6.7,31.7,14.4,55.8,25.3,49.9c7-3.8,12.3,8.4,12.3,8.4l58.1-77C613.6,715.9,573.1,667.3,547.9,690.1"/>
		<path class="st19" d="M639.1,1064.1c-26.3-84.2,2.5-102.5-0.2-144.6c-2.7-42.1-35.4-87.4-35.4-87.4s-1.7-0.2-4.5-0.4
			c-2.2-1.2-2.8-10.3-2.7-20c0-11.6,0.9-23.9,0.9-23.9L558,780l-2.3-0.5c0.1,27.2-7.1,45.1-12.3,49.3c-4.9,0.6-25.7,3.2-38.6,8.6
			c-4.8,2-8.5,4.4-9.8,7.3c-10.7,23.6-21.5,83.2-29,125.8c-4.2,23.7-7.4,42.1-9.1,46c-4.7,10.9-18.9,70.7-31.1,100.3l11,13.6
			c0,0,55.8-94,60.5-116.2c1.5-7.2,5.3-21.6,9.6-37.8c0.7-2.4,1.3-4.9,2-7.4c7.7,20.8,11.6,30.5,11.4,39.5
			c-0.3,12.8-9,24.3-27.2,65.1C483.2,1095.9,666,1150.1,639.1,1064.1"/>
		<path class="st23" d="M597.2,793.9c0,0-0.9,12.3-0.9,23.9c-21.9-0.6-33.5-20.6-38.2-31.7L597.2,793.9z"/>
		<path class="st25" d="M554,781.9c0,0-11.5-18.1-14.2-33.6c-2-11.1,3.7-52.1,44.9-46.2c0,0,12,1.2,23.2,8.8c9,6,21.9,19.1,7.4,54.9
			l-3.8,12.1L554,781.9z"/>
		<path class="st19" d="M604.5,804.9c0,0-51.8,0.9-51.8-31.4c0-32.3-6.7-53.9,26.3-55.8c33.1-1.9,39.5,10.4,42.1,21.2
			C623.7,749.6,618,803.9,604.5,804.9"/>
		<path class="st25" d="M578.6,1342.3c-3.3,6.2-35.9,45.4-68.6,88.8c-2.8,3.7-5.7,7.7-8.7,11.9c-19.3,27.2-41.5,62.6-54.8,79.9
			c-12.1,15.7-22.9-4-16.8-18c9.6-22.1,17.7-60.7,27-89.2c2.1-6.6,4.4-12.6,6.7-17.8c10-22.4,26.9-53.7,50.6-78
			c4.1-4.2-31.8-98-29.2-175.5c1-30.7,5.3-57.8,15.1-74.2l97.5,4.8C597.3,1075,610.6,1282.1,578.6,1342.3"/>
		<path class="st37" d="M619.6,720.9c-8-9.7-14-7.6-17.4-4.7c-27.8-15.4-46.6,7.5-46.6,7.5c-3.5,23.2-20.2,36.4-20.2,36.4
			s9.4,5.8,31.2,0.2c6.6-1.7,12.6-6.4,17.6-12.1c-8.8,14.8-20.8,25.4-20.8,25.4c26-12,36.4-48.2,37.5-52c3.2,2.8,9.4,9,11.3,15.1
			c2.6,8.2,3.7,25.1,8.7,24.6C620.9,761.2,631.6,735.5,619.6,720.9"/>
		<path class="st19" d="M427.1,1113.9c0,0-4.7,11.1-9.7,14.3c-4.9,3.1-8,9.6-6.7,15.6c1.3,6-1.3,16.3,4.9,16.3
			c6.2,0,20.7-27.5,22.5-32.6c1.8-5.2,3.4-6.2,3.4-6.2L427.1,1113.9z"/>
		<path class="st28" d="M481,1108.5c-0.2,3.4,0,6,0.6,8c2.1,6.7,9.2,9.7,26.4,7.9c10.5-1.1,15.2-19.1,17.3-34.5
			c6.3,22,15.2,34.3,26.6,36.9c16.7,3.8,106.9,10.2,112.4-30.7c6.1-45-18.1-120.5-19.1-163.4c2.5-15.2,3.3-28.4,3.1-39.8
			c-0.7-30.6-9.5-47.7-16.2-54.6c-1.9-1.5-3.8-2.4-11.5-3.8c-3.9-0.7-9.4-1.5-17.1-2.5c0,0-3.3-0.4-3.2-0.3
			c1.4,2.6,16.7,25.6,15.3,33.2c-1.6,7.9-60.5,6.8-65.1,2.4s-16.8-37.3-16.8-37.3s-23.9,2.7-35.7,11.4c0,0,0,0.1,0.1,0.2
			c-1.4,1-2.5,2.1-3.1,3.3c-12.5,24.3-25,85.6-33.8,129.4c21.3,12,39.9,8.4,45.6,6.8C499.2,1031.5,482.1,1085.6,481,1108.5"/>
		<path class="st28" d="M589.6,785.9c0,0,1,4,10.9,3.2c0,0,8.3-0.6,8-5C608.5,784.1,600.4,781.1,589.6,785.9"/>
		<path class="st19" d="M501.3,1442.9c-19.3,27.2-41.5,62.6-54.8,79.9c-12.1,15.7-22.9-4-16.8-18c9.6-22.1,17.7-60.7,27-89.2
			C462.9,1425.2,475.7,1437.4,501.3,1442.9"/>
		<path class="st19" d="M435.9,1125c0,0,2.8,12.3,0.8,16.2c-2.1,3.9-0.7,8.9-4.8,7.5C427.7,1147.2,435.9,1125,435.9,1125"/>
		<path class="st19" d="M405.9,1511.4c-7.9,5.1-1.6,16.7,7.2,29c8.8,12.3,3.5,10.6,13.4,29.1c9.9,18.5,19.4,21.5,22.6,20.9
			c2.8-0.5-0.2-10.4-3.1-21.2c-0.4-1.3-0.7-2.7-1.1-4.1c-3.2-12.2,0.9-23.6,2.8-36.6c1.8-12.3,19.6-36.6,19.6-36.6l-12.7-25.7
			c0,0-15.6,22.4-22.6,31.5c-4.1,5.3-11.4,8-17.1,9.8C411.8,1508.5,408.6,1509.6,405.9,1511.4"/>
		<path class="st24" d="M413,1540.4c8.8,12.3,3.5,10.6,13.4,29.1s19.4,21.5,22.6,20.9c2.8-0.5-0.2-10.4-3.1-21.2l-0.2,0
			c0,0-12.9-8.3-19.7-24.3c-5.6-13-7.4-28.4-11.1-37.4c-3.1,1-6.2,2-9,3.8C398,1516.5,404.3,1528.1,413,1540.4"/>
		<path class="st28" d="M625.3,835.5c0,0,15.6-0.1,26.5,20.9c10.9,21,27.3,89.2,27.3,89.2S660,966.9,637.5,962
			C615.1,957.1,625.3,835.5,625.3,835.5"/>
	</g>
</g>
</svg>
