<?xml version="1.0" encoding="utf-8"?>
<!-- Generator: Adobe Illustrator 19.0.0, SVG Export Plug-In . SVG Version: 6.00 Build 0)  -->
<svg version="1.1" id="Layer_1" xmlns="http://www.w3.org/2000/svg" xmlns:xlink="http://www.w3.org/1999/xlink" x="0px" y="0px"
	 viewBox="0 0 3200 2000" style="enable-background:new 0 0 3200 2000;" xml:space="preserve">
<style type="text/css">
	.st0{clip-path:url(#SVGID_2_);}
	.st1{clip-path:url(#SVGID_4_);fill:url(#SVGID_5_);}
	.st2{clip-path:url(#SVGID_7_);fill:url(#SVGID_8_);}
	.st3{clip-path:url(#SVGID_10_);fill:#8EA2B4;}
	.st4{clip-path:url(#SVGID_10_);fill:#748EA3;}
	.st5{clip-path:url(#SVGID_10_);fill:#7C94A8;}
	.st6{clip-path:url(#SVGID_10_);fill:#CED49F;}
	.st7{clip-path:url(#SVGID_12_);fill:url(#SVGID_13_);}
	.st8{clip-path:url(#SVGID_15_);fill:#5C6D2B;}
	.st9{clip-path:url(#SVGID_17_);fill:url(#SVGID_18_);}
	.st10{clip-path:url(#SVGID_20_);fill:#D8D0AC;}
	.st11{clip-path:url(#SVGID_22_);fill:url(#SVGID_23_);}
	.st12{clip-path:url(#SVGID_25_);fill:#E4DDC3;}
	.st13{clip-path:url(#SVGID_25_);fill:#75823E;}
	.st14{clip-path:url(#SVGID_25_);fill:#687931;}
	.st15{clip-path:url(#SVGID_25_);fill:#576628;}
	.st16{clip-path:url(#SVGID_25_);fill:#627032;}
	.st17{clip-path:url(#SVGID_27_);fill:url(#SVGID_28_);}
	.st18{clip-path:url(#SVGID_30_);fill:url(#SVGID_31_);}
	.st19{clip-path:url(#SVGID_33_);fill:#FFB27D;}
	.st20{clip-path:url(#SVGID_33_);fill:#8EA2B4;}
	.st21{clip-path:url(#SVGID_33_);fill:#748EA3;}
	.st22{clip-path:url(#SVGID_33_);fill:#696F7C;}
	.st23{clip-path:url(#SVGID_33_);fill:#E8945B;}
	.st24{clip-path:url(#SVGID_33_);fill:#464C58;}
	.st25{clip-path:url(#SVGID_33_);fill:#E4DDC3;}
	.st26{clip-path:url(#SVGID_33_);}
	.st27{clip-path:url(#SVGID_35_);fill:#E4DDC3;}
	.st28{clip-path:url(#SVGID_33_);fill:#FFFFFF;}
	.st29{clip-path:url(#SVGID_33_);fill:#233862;}
	.st30{clip-path:url(#SVGID_37_);fill:#E4DDC3;}
	.st31{clip-path:url(#SVGID_33_);fill:#0F2949;}
	.st32{clip-path:url(#SVGID_33_);fill:#163560;}
	.st33{clip-path:url(#SVGID_39_);fill:#E4DDC3;}
	.st34{clip-path:url(#SVGID_33_);fill:#F4A671;}
	.st35{clip-path:url(#SVGID_41_);fill:#E4DDC3;}
	.st36{clip-path:url(#SVGID_43_);fill:#E4DDC3;}
	.st37{clip-path:url(#SVGID_33_);fill:#9E7E69;}
</style>
<g>
	<defs>
		<rect id="SVGID_1_" x="-12.3" width="3225.3" height="2000"/>
	</defs>
	<clipPath id="SVGID_2_">
		<use xlink:href="#SVGID_1_"  style="overflow:visible;"/>
	</clipPath>
	<g class="st0">
		<defs>
			<polygon id="SVGID_3_" points="-12.3,0.8 -12.3,1976.5 3209.8,1976.5 3208.9,0.8 			"/>
		</defs>
		<clipPath id="SVGID_4_">
			<use xlink:href="#SVGID_3_"  style="overflow:visible;"/>
		</clipPath>
		
			<linearGradient id="SVGID_5_" gradientUnits="userSpaceOnUse" x1="0" y1="1999.9991" x2="1" y2="1999.9991" gradientTransform="matrix(0 -1952.1117 -1952.1117 0 3905820.5 1947.6881)">
			<stop  offset="0" style="stop-color:#E2F1FB"/>
			<stop  offset="0.3469" style="stop-color:#D2EAF9"/>
			<stop  offset="1" style="stop-color:#ABD8F4"/>
		</linearGradient>
		<rect x="-12.3" y="0.8" class="st1" width="3222.1" height="1975.7"/>
	</g>
	<g class="st0">
		<defs>
			<path id="SVGID_6_" d="M310.1,962.2c-15.3,5.4-39.1,7.6-39.8,30c-4-0.7-8.6-0.1-13.1,0.4c-4.3,0.5-8.5,1-12.3,0.5
				c-3.5,11.5-6.5,20.6-9.1,33.2c-17.9-11.4-27.2-55.7-54.8-43.4c-8.4-11.2-19.3-7.6-27,2.9c-0.8-26.8-25.1-20.9-45.2-16
				c-12.5,3-46.2,15.1-53.8,24.7c-5.8,7.3,0.6,17-3.4,24.2c-9.3,16.8-21.9,15.7-33.1,20.1c-10.4,4.1-20.2,8.5-30.9,14.1v533.6
				c10.3,2.6,18.6,5.2,28.3,8.2c54.1,16.6,71.3,33.9,127.6,34.9c276.9,4.8,554.7-1.5,831.4,8.4c144.3,5.2,294.1,11.9,438.1-4.5
				c62.2-7.1,122.4-21.5,185.1-25.6c31.6-2.1,64.2-1.9,96.9-1.7c60.9,0.4,122.5,0.7,180.1-13.5c54.9-13.5,71.5-19.3,50.2-70.8
				c-11.1-26.8-28.7-51.5-47.3-73.8c-20.8-3-33-33.7-52.6-44.2c-3-1.6-6.8-1.5-10.6-1.3c-4.1,0.2-8.3,0.3-12-1.6
				c-7.5-3.9-13.5-14.9-20.9-17.3c-11.8-3.7-43.9-9.9-55.5-10c-7.8-0.1-14.5,2.1-20.9,4.3c-10.4,3.5-20.1,7-32.8,1.1
				c-20.8-9.6-33.8-43-51-57.1c-11.3-9.3-28.7-14.3-39.8-22.5c-16.4-12.2-26-32.3-43.5-44.9c-77-55.5-130.8,19.9-200,30.5
				c-34.2,5.3-66.6-24.7-98.7-31.9c-7.6-1.7-16-1.2-24.4-0.6c-11,0.7-22.1,1.4-32.2-2.8c-19.9-8.4-21.8-26-47.3-31.2
				c-12.7-2.6-32.9,4.9-54.4,12.5c-32.1,11.2-67.1,22.5-84,0c-27.9,30.4-54.1-45.7-84-47.5c-18.6-1.1-30.7,4.2-40.4,9.5
				c-15.7,8.5-25.6,17.1-47.9-1.3c-3.9-3.2-7.6-6.6-11.2-9.8c0.2-14.2-27.5-30.4-40.3-31.4c3.3-5.8,16-16.9,4.5-21.1
				c7-17.6-9.3-14.2-22-10.9c-5.4,1.4-10.2,2.9-12.2,2.7c-0.7-3.3-1.8-7.4-2.3-10.6c4.2-10,13.2-19-1.1-27.6
				c-0.4-0.3-0.9-0.4-1.3-0.6c2.4-3.4,3.3-8.6,1.3-18.7c-3.5-17.6-18.3-25.9-32.9-35.7c-5,1.3-9.7,1-14.3,0.7c-5-0.3-9.8-0.6-14.8,1
				c-11.2,3.7-8.2,16.4-25,15.7c2.4,12.2-0.4,22.8-12.2,21c-0.7,22.6-38.8,40.8-54.9,19.1c-9-12.1,7.2-49.9-26.9-35.9
				c-11.8-18.4-16.4-4.6-26.5-0.7c-4.7,1.8-1.9,10.8-8.3,14.1c-4.6,2.4-7.8,1.4-11.6,0.3c-2.2-0.6-4.6-1.2-7.6-1.2
				c-10.1,0.2-24.9,1.6-32.9-6.4c-4.2-4.2-1-17.9-3.3-19.6c-6.5-4.6-17.8-18-20.9,2.5c-26.1,5.6-13.5-22.5-19.8-37.2
				c-8.1-18.6-26.8-20.1-42.4-30.2c-17.6-11.3-29.6-16.2-42.7-16.2C333.7,954.9,323.5,957.5,310.1,962.2"/>
		</defs>
		<clipPath id="SVGID_7_">
			<use xlink:href="#SVGID_6_"  style="overflow:visible;"/>
		</clipPath>
		
			<linearGradient id="SVGID_8_" gradientUnits="userSpaceOnUse" x1="0" y1="2000.2334" x2="1" y2="2000.2334" gradientTransform="matrix(0 -905.9941 -905.9941 0 1813166.875 1461.3518)">
			<stop  offset="0" style="stop-color:#C3E2F7"/>
			<stop  offset="6.610600e-004" style="stop-color:#C3E2F7"/>
			<stop  offset="0.1136" style="stop-color:#CAE5F5"/>
			<stop  offset="0.9966" style="stop-color:#FFFBE3"/>
			<stop  offset="1" style="stop-color:#FFFBE3"/>
		</linearGradient>
		<rect x="-12.3" y="954.9" class="st2" width="1959.1" height="694.9"/>
	</g>
	<g class="st0">
		<defs>
			<rect id="SVGID_9_" x="-12.3" width="3225.3" height="2000"/>
		</defs>
		<clipPath id="SVGID_10_">
			<use xlink:href="#SVGID_9_"  style="overflow:visible;"/>
		</clipPath>
		<path class="st3" d="M1660.1,1510.2c9.9-6.2,28.4-13.1,40-15.2c7.4-1.3,15.5,1.2,22.7-0.3c8.2-1.8,15.1-9.7,25-8.4
			c7.5,0.9,9.7,7.6,16.2,8.6c4,0.6,25.7-22.4,28.7-24.6c12.2-9,28.6-20.7,45-19.8c11,0.6,17.1,5.1,22,14.3c6.5-2.9,10.3-10,16-14.3
			c9.6-7.3,19.2-9.3,30.5-10.3c3.7-0.3,6.4,2.2,10.1,1.4c8.7-2,16.4-11.4,26-13.8c11.7-2.9,19.8-0.9,30.3,5.2
			c7.7,4.4,19.1,19.2,27.2,21c8.9,2,15.5-5.1,22.5-12.9c10.9-12.1,22.2-24.1,42.8-20c13.3,2.6,18.8,16.1,31.3,16.3
			c11.1,0.2,11.8-9.6,21-16.4c14-10.3,21.9,0.2,35.6-2.7c4.9-1,8.3-6.6,13.9-8.6c1.9-0.7,20.5-2.4,20.5-4
			c-0.8-20.9,16.2-32.8,36.6-20.2c11.3-19.2,58.7,14.8,57.4,32.6c13.7,0.9,15.6-2.2,26.5-7.9c13.9-7.3,26.7-0.7,41.3,1.5
			c-0.4,2.4,1.3,6.5,0.7,9.2c7.6,1,11-10.6,16.7-14.6c4-2.8,10.7-6.7,14-8.4c3-1.6,4.6-5.4,11.2-6.7c5.2-1,10.8-2,15.7-2.9
			c12.9-2.5,15.7-1.4,26.1,7.9c2.6,2.4,1.4,5.4,4.5,7.2c2.5,1.4,7-1.2,9.7,0.1c2.6,1.3,2.1,5.4,4.8,7.1c2.1,1.3,6.1-0.3,7.6,0.8
			c4.9,3.6,2.5,8.5,11.2,8.3c5.8-0.1,9.4-7.9,16.5-8.4c4.4-24.8,30.6-18.7,48-20.4c3.3-17.3,20.8-17.2,34.1-20.2
			c7.7-1.8,5.4-6.6,16.3,0.1c9.3,5.7,31.6,26.3,32.3,36.7l15.4,23.2c0,7.1,0.4,14.7-0.3,21.5c-51.2,11.9-101.1,24.7-153.5,30.7
			c-49.6,5.7-99.8,11.3-149.7,13c-41.6,1.4-81.8,7.6-123.2,12.1c-26.7,2.9-53.4,8.6-80.2,9.9c-28.8,1.4-57.9-0.4-86.8,0.2
			c-58.6,1.2-116.8,9.8-175.4,9.4c-14.4-0.1-165.5,9.2-204.8,1.8v-13.8C1661.9,1513,1660.5,1509.9,1660.1,1510.2"/>
		<path class="st4" d="M2138.3,1451.8c5.3-6.5,12.3-3.9,16.3-10.6c3-5.1,2.4-11.2,8-15.4c8.1-6.1,22.2-6,31.1-3
			c2.1-4.5,0.6-9.4,2-13.7c1.4-4.3,4.3-7.7,7.6-11.6c3-3.6,1.9-6.1,8-5.4c2.8,0.3,7.3,3.3,9.6,4.8c4.4,2.8,4.8,3.7,5.9,8.1
			c1.1,4.2-0.3,15.9,8,13.2c9.9-3.1,0.2-15.7-3.5-18.8c4.1-3.2,15.4-4.8,19.9-1.8c4.2,2.8,2.9,8.4,5.8,11.7
			c5.2,6,13.3,7.8,17.5,15.6c-8,8.2-12.4,11.4-23.1,13.5c-4.8,0.9-16.5,6-9.1,11.9c7-3.4,15.7-0.7,22.8-2.7c1.7-0.5,2.4-3.1,4.3-3.7
			c4.1-1.4,8.4,0.1,12.3-0.9c9.8-2.4,20.1-9.3,31.2-11.6c4-0.8,8.3-2.1,12.5-0.9c6.6,1.9,6.6,7.9,10.9,10.8
			c13.6,9.4,28.9-13.2,34.2-23.2c5-9.4,5.5-12.9,15.5-15.1c11.3-2.4,26.9-2.5,39.1,1.1c0.9,5.2-2,6.4-5.4,8.7c-3,1.9-8.1,2.1-10.7,5
			c-1.1,1.2-0.2,4.3-1.3,6.1c-1.5,2.5-14.2,14.3-6.3,16.5c1,0.3,10.2-5.7,11-6.4c4.5-4.2,5.8-12.3,11.8-15.3
			c3.5-1.8,13.2-2,17.2-1.1c9,2.1,16.3,14.4,25.8,11.8c7.3-2,9.6-5.6,18.3-5.2c4.2,0.2,8.2,0.9,12.4,0.7c1.9-8.8,10.4-7.4,16.9-9
			c7.6-1.9,9-3.6,13.7-8.6c4.6-4.8,8.8-10.2,15.5-10.7c7.8-0.6,14.1,5.9,21,3.7c7.5-2.5,8.5-7.1,17.7-6.1
			c11.5,1.2,21.4,11.9,23.3,23.4l1.8,12.7c1,13.4-9.2,24.5-20.7,29c-32.2,12.6-71.2,7.3-105.2,7.3c-62.9,0-125.4,6.3-188.3,4.6
			c-36-1-72.1,0-108-1.7c-16.9-0.8-38.3-2.2-54.6,2.5C2130.2,1467.7,2135.5,1455.3,2138.3,1451.8"/>
		<path class="st4" d="M2018.3,1458.9c2.6-2.8,5.4-5,6.9-8.3c1.7-3.6,2.2-6.7,5.3-9.5c5.5-5.1,15.2-7.8,22.3-9.6
			c5.9-1.5,10.9-1.2,16.8,1c5.2,1.9,12.5,3.7,16.8,7.2c1.7,1.4,4.9,3.7,5.8,5.2c-7.1,2.2-12.8,11-11.7,18.8c4.3,1.2,6.3-3.5,8.2-6.4
			c2.2-3.4,3.3-4.2,7.1-6.1c5.6-2.8,7-6.6,10.6-11.5c2.3-3.1,5.3-5.2,8.5-7.4c6.9-4.9,12.4-4.5,20.8-3.9c4.2,0.3,9.9,0.3,9,6l-1-0.5
			c-0.4,5.1-7.5,6.3-11.3,7.7c-4.1,1.6-4.9,2.9-5.9,7.5c-0.7,3.2-1,5-2.8,7.7c-2.6,3.9-2.7,5.3-2.7,10.4c0,4.1,0.6,4.6-3.9,4.9
			c-8.7,0.5-17-1.8-25.8,0c-6.4,1.4-12.3,4.3-18.8,5.4c-9,1.6-17.8-3-26.8-1.3c-5.3,1-9.7,3.3-15.3,3.4c-4.1,0-7.1,1.1-10.9,1.5
			c-1.7,0.2-9.2,0.4-10.8-0.9C2002,1474.2,2015,1462.5,2018.3,1458.9"/>
		<path class="st5" d="M1723.8,1505.6c8.5-2.8,13-10.8,21.6-4.4c3.8,2.8,4.7,4.7,9.4,3.9c4.1-0.7,8-2.2,11.8-3.6
			c11-4.1,27.4-4.6,32.6-16.5c3.4-7.8,12.2-6.1,17.3-13.3c2.8-4,2.8-5.9,7.9-7.7c3.8-1.4,15.9-6,19.8-3.3c2.5,1.7,0.3,1.7,1.6,3.8
			c2.1,3.5,3.8,3.6,7.3,5.8c5.9,3.7-0.8,7.2,2.5,11.8c2,2.8,8.6,1.6,11.4,0.5c6.5-2.5,8-6.9,9.8-12.8c2.3-7.3,8.3-6.5,12.4-11.5
			c3.1-3.9,4.7-7.3,9.8-9.1c3.1-1.1,13.5-2.8,16.3-0.9c3.4,2.3-2.1,6.9-3.4,9.2c-3,5-6.1,14.6,2.9,15.7c2.5-4.6,3.8-9.3,5.4-14.2
			c1.8-5.4,6.2-7.6,11-11.3c8.3-6.5,14.4-8.9,24.8-8.4c6.3,0.3,12,2.3,16.7,6.4c1.9,1.7,3.3,3.3,5.5,4.4c6,3.1,9,5.3,13,11.2
			c2.8,4,6.7,8.8,7.2,13.8v4.9c-8.8,2.3-17.3,5.8-26.1,7.9c-11.3,2.6-24.1,1.9-35.7,2.9c-13.4,1.2-26.4,2.6-39.6,5.3
			c-20.2,4.1-40.4,6.1-60.7,9.1c-20.7,3-41,4-61.8,5.7c-20.5,1.7-40.9,4.7-61.1,7.9c-7.4,1.2-15,2.4-22.5,2
			C1690.9,1503.8,1713.2,1509,1723.8,1505.6"/>
		<path class="st6" d="M2627.6,1446.1c0,0-612.4,5-967.6,75.1h973.6L2627.6,1446.1z"/>
	</g>
	<g class="st0">
		<defs>
			<path id="SVGID_11_" d="M3093,1262.1c-13.7,2.1-23.6,6.1-33.8,15.1c-2.6,2.3-4.2,4.5-7,6.3c-6.6,4.3-12.9,6.4-18.1,12.3
				c-3.6-14.8-22.9,7.4-26.8,11.7c-9.5,10.5-10.6,23-14.3,35.3l-34.1,22.9c-8.4,7.6-17.2,16-21.2,26.9c-5.2,14.1,1.7,16.7,7,27.8
				c6.5,13.6,2.2,30.7,6.6,45.1c6.7,21.6,25.7,38.5,48.3,41.9c12.5,1.9,25.5,0,38-0.6c2.1-0.1,10.3-1.3,13-0.1
				c9,3.9,11,15.9,16.7,22.8c30.6,37.4,91.9,14.8,131.2,12.1c4.7-0.3,9.5-0.3,14.3,0v-267.7c-0.5,0.1-1,0.3-1.5,0.4
				c-11.7,3.1-20.9,10.6-31.3,14.8c-9.1-19.3-30.6,0.8-40.8,6.2c-7-4-4.7-15-8.4-21.5c-5.8-10-14.9-12.9-25.1-12.9
				C3101.7,1261,3097.3,1261.5,3093,1262.1"/>
		</defs>
		<clipPath id="SVGID_12_">
			<use xlink:href="#SVGID_11_"  style="overflow:visible;"/>
		</clipPath>
		
			<linearGradient id="SVGID_13_" gradientUnits="userSpaceOnUse" x1="-4.429430e-002" y1="2000.1146" x2="0.9653" y2="2000.1146" gradientTransform="matrix(-326.6654 100.1049 -100.1049 -326.6654 203660.4219 654670.0625)">
			<stop  offset="0" style="stop-color:#CFBD43"/>
			<stop  offset="0.6924" style="stop-color:#808633"/>
			<stop  offset="1" style="stop-color:#5C6D2B"/>
		</linearGradient>
		<polygon class="st7" points="3188.9,1183 2846.1,1287.3 2956.6,1645.1 3299.4,1540.9 		"/>
	</g>
	<g class="st0">
		<defs>
			<rect id="SVGID_14_" x="-12.3" width="3225.3" height="2000"/>
		</defs>
		<clipPath id="SVGID_15_">
			<use xlink:href="#SVGID_14_"  style="overflow:visible;"/>
		</clipPath>
		<path class="st8" d="M3018.4,1373.5l15.4-51.3c-2.5-23.9,58.5-48,59.4-14.8c11.9-4.3,20.4,14.1,24.5,22.4
			c5.3-3.5,12.6-3.7,17.2-6.7c8.1-5.1,13.3-11.9,24.2-11.9c29.6,0,62.1,34.9,64.3,63.2c12.6-12.7,9.1-34.4-0.5-47.9
			c-7.6-10.6-19-8.9-26.2-17.3c6.6-6.5,19.7-10.2,28.7-11.2c12.3-1.3,16.7,5.7,26.5,9c11.2,3.8,16.6,2.5,25.6,12.7
			c7.2,8.2,6.2,12.7,7.5,22.5c2.4,18.7,24.5,25.8,20.7,48.7c-1.4,8.4-8.5,9.6-11.1,16.3c-1.7,4.5-0.1,14,0.1,18.9
			c7.5,1.8,18.2,8.4,17.7,17.2c16.6-0.9,27.4,14.5,26.3,30c-8.8-8.2-17.1-12.3-27.6-15.5c-12.8-4-48.6-10.4-52.6,10.2
			c7.9,2.3,18.9-5.6,27.3-6.3c6.6-0.6,11.1,0.1,16.5,3.5c5.4,3.5,7.3,9.7,11.2,14.1c4.1,4.7,9,7,12.2,13c15.8-9.8,40.2-2.4,43.8,15
			c0.9,4.2,0.6,11.4-0.8,15.3c-1.3,3.5,0.3,3.5-2.6,5.8c-0.6,0.5-6.8-0.1-7-0.1c-14.2,1.2-29,0.3-43.2,1.1
			c-44.5,2.7-88.8,10.2-133.3,11.9c-17.9,0.7-34.5,0.9-51.2-4.2c-29.3-8.8-64.6-22.2-85.3-46c-17.5-20.1-5.6-46.5-13.5-70
			c-3.7-11-11.2-20.9-13-32.5C3018.9,1383.7,3020.5,1378.3,3018.4,1373.5"/>
	</g>
	<g class="st0">
		<defs>
			<path id="SVGID_16_" d="M2808.5,1256.9c-9.9-6.4-16.3-10.2-27.5-6.8c-13.3,3.9-27.3,13.4-28.9,27.6c-0.4,3.4,0.3,7.2,0.2,10.7
				l-14.3,9.8c-5.8-3.1-12.7-2.3-18.9,0.2c-12.5,5.1-13.8,13.4-17.5,24c-8.2,23.8-18.2,42.8-16.4,69c1.7,25,12.8,42.2,32.8,56.4
				c6.3,4.5,6.6,0.8,8.7,10.9c4.7,22.6,15.3,31.2,39.9,32.7c5.5,0.3,11.6-0.1,17.8-0.5c12.7-0.8,26-1.7,36.1,3.6
				c15.7,8.2,25.8,25.8,38.5,37.5c17.7,16.3,38.6,10.4,59.7,4.1c18.4-5.4,43.4-9.3,62.5-4.3c5.1,1.3,9.4,3.9,14.5,5.9
				c21.2,8.5,46.9,8.7,68.4,1.7c7.8-2.5,16.3-1.3,24.8,0c13.3,2,26.7,4,38.2-8.4c2.1-2.3,2.1-5.6,4.3-7.8c1.3-1.3,5.4-0.6,7.3-2.4
				c3.5-3.4,3.7-8.3,3.4-12.9c7-4.5,6.1-10.9,8.6-18.7c1.5-4.8,5.6-8.1,7.3-13.5c3-9.9-1.2-23.4-4.9-32.6
				c-2.3-5.9-9.7-13.5-11.1-19.2c-1.2-4.7,0.3-9.8,0-14.8c-1.8-27-24-56.3-51.7-60.4c-5.8-0.9-12.1,0.1-18.4,1c-7,1-14,2.1-20.1,0.6
				c-3.1-0.8-3.6-2.4-6.6-3.4c-8.7-3-32.3-7.6-41-2.1c-3.5,2.2-5.2,9.4-6.3,13.1c-1.7-14.9-21.8-23.4-35.1-22.9
				c-3.9-11.8-33.7-17.8-36.5-3.5c-0.9-6.2-6.7-7.5-9.8-12.3c-3.1-4.9-1.8-6.5-3.3-11.6c-3.5-11.9-12.2-13.5-22.4-18.2
				c5.2-11.5,11.1-9.4,18.4-7.4c3.2,0.9,6.7,1.8,10.6,1.6c-1.6-24.1-25.4-31.7-45.9-34.8c-9-1.3-22.2-3.9-34.8-3.9
				C2826.4,1245,2814.5,1247.6,2808.5,1256.9"/>
		</defs>
		<clipPath id="SVGID_17_">
			<use xlink:href="#SVGID_16_"  style="overflow:visible;"/>
		</clipPath>
		
			<linearGradient id="SVGID_18_" gradientUnits="userSpaceOnUse" x1="-2.675026e-002" y1="1999.9958" x2="0.9812" y2="1999.9958" gradientTransform="matrix(-469.1289 0 0 -469.1289 3145.512 939652.5)">
			<stop  offset="0" style="stop-color:#75823E"/>
			<stop  offset="0.591" style="stop-color:#61702F"/>
			<stop  offset="1" style="stop-color:#596929"/>
		</linearGradient>
		<rect x="2683.5" y="1245" class="st9" width="477.6" height="303.4"/>
	</g>
	<g class="st0">
		<defs>
			<rect id="SVGID_19_" x="-12.3" width="3225.3" height="2000"/>
		</defs>
		<clipPath id="SVGID_20_">
			<use xlink:href="#SVGID_19_"  style="overflow:visible;"/>
		</clipPath>
		<rect x="3038.5" y="1324.8" class="st10" width="3.1" height="140.4"/>
	</g>
	<g class="st0">
		<defs>
			<path id="SVGID_21_" d="M2679.9,1228.5c-11.4,4.2-22.5,9.7-33.7,14.5c-15.3,6.6-19.5,14.9-24.8,30.1c-2.7,7.7,1.9,3.1-7.5,7
				c-6.5,2.7-14.2,3.2-18.9,9.3c-6.2,8,0.9,11.9,2,19.9c0.5,3.8-2.2,4.8-0.4,9.4c1,2.6,4.4,4.6,6,7c4.8,7.3,5.2,1-0.9,9.6
				c-2.9,4.1-6.1,4.5-3.7,11.1c4.3,11.7,22.7,8.3,29,16.5c3.7,4.8,0.3,5.4-3.4,10.7c-8.6,12.4-7.8,19.9,9,22.1
				c-16.5,7.1-42.4,13.4-48.5,32.8c-1,3.1-0.1,6.4-1.1,9.5c-1.4,4.7-5.9,8.3-5.7,13.7c0.1,3.4,3.7,5.2,3.2,8.3
				c-0.6,4.6-4.3,4.8-6.7,8c-6.9,9.2-4.5,10.1-2.1,19.3c3.1,12.3,11.7,17.9,21.3,26.6c17.9,16.2,48.5,12.1,72.5,13.8
				c30.1,2.2,59.4,6.3,90,3.7c27.2-2.3,54.8-1.7,81.9-4.4c17.2-1.7,32.3-1,41.7-17.8c2.6-4.5,3.1-10.2,7.6-13c2.1-1.3,5-1.3,8.1-1.3
				c3.3,0,6.8,0,9.6-1.6c1.3-0.8,3.1-4.8,4.5-5.9c4.9-4,12.4-4.7,15.4-11c4.1-8.4-2-20.3-4.4-28.2c-4.4-14.3-11.8-20.9-27.5-20.9
				c-10.4,0-26.5,3.5-18.5-7.4c3.3-4.6,15.8-7.4,20.6-11.9c4-3.8,7.6-8,8.9-13.5c0.6-2.6,1.4-5.1,0.8-7.7
				c-2.9-12.3-19.5-19.5-30.3-15.2c-3.3-13.7-22.4,0.8-27.7,4.5c-3-9-9.4-5.8-6.8-14.6c2-6.6,10.7-12,13.3-19.4
				c1-2.8,1.9-6.9,2.2-10c0.5-4.4,2.9-4.3-0.3-8.9c-4.2-5.9-17.5-5.7-26.6-5.4c-2.4,0.1-4.5,0.1-6,0.1c0.4-7.9,13.7-7.3,23.2-6.8
				c3.2,0.2,6,0.4,7.7,0.2c-1.6-2.1-1.5-6.6-3.4-8.5c-8.3-8.5-25.6-6.7-36.2-8.4c6.7-9.1,12.8-22.4,4.8-34.2c-11.6-17-45-7.9-60-2.3
				c1.4-10.7-15.7-18-24.7-17.6c1.7-0.1-4.7-11.3-5.7-12.2c-3.6-3.3-8.4-4.6-13-5.2c-2-0.3-4-0.4-6-0.4
				C2698.8,1222.2,2688.7,1225.2,2679.9,1228.5"/>
		</defs>
		<clipPath id="SVGID_22_">
			<use xlink:href="#SVGID_21_"  style="overflow:visible;"/>
		</clipPath>
		
			<linearGradient id="SVGID_23_" gradientUnits="userSpaceOnUse" x1="-4.131180e-002" y1="2000.0072" x2="0.968" y2="2000.0072" gradientTransform="matrix(-250.0233 76.6183 -76.6183 -250.0233 156170.2188 501369.5313)">
			<stop  offset="0" style="stop-color:#CFBD43"/>
			<stop  offset="0.6924" style="stop-color:#808633"/>
			<stop  offset="1" style="stop-color:#5C6D2B"/>
		</linearGradient>
		<polygon class="st11" points="2897.2,1121.8 2478.9,1249 2597.9,1634.2 3016.2,1507 		"/>
	</g>
	<g class="st0">
		<defs>
			<rect id="SVGID_24_" x="-12.3" width="3225.3" height="2000"/>
		</defs>
		<clipPath id="SVGID_25_">
			<use xlink:href="#SVGID_24_"  style="overflow:visible;"/>
		</clipPath>
		<rect x="2380.2" y="1353.5" class="st12" width="3.1" height="160.1"/>
		<rect x="1920.9" y="1353.5" class="st12" width="3.1" height="172.4"/>
		<path class="st13" d="M2631.1,1483.6c0.6-1.6,2.3-3,2.5-4.8l13.5-4.2c2.4,0.3,3.7,2.6,5.9,3.4c4.5,1.5,9.1-0.2,13.9,2.1
			c2.8,1.4,6,3.2,7.9,5.7c2.1,2.8,1.1,5.5,2.5,8.2c1.8,3.5,8.5,2.4,11.5,6.2c11.1-10.6,40.7-21.5,52.3-5.9c2.8,3.8,3.5,3.8,8.8,5.9
			c2.5,1,5,2,7.6,3c1.8,0.8,3.5,1.9,5.1,3.1c3,0.6,4.9-0.9,8.3-1.5c12.9-2.2,25.1,2.4,37.4,5c6.2,1.3,13.9-2.1,19.7,1.2
			c2.4,1.4,10.1,10.6,9,13.9c-1,3-11,3.2-12.3,3.4c-18.2,2.1-36.3-0.2-54.5-0.7c-15.6-0.4-31.4,1.2-47,2.3c-15.9,1.2-31.3,3-47.3,3
			c-9.5,0-19,0-28.4,0c-4.1,0-9.2,0.9-13-0.6c-6-2.4-3.3-13.4-3.6-18.6C2630.3,1504.7,2628,1492.3,2631.1,1483.6"/>
		<path class="st14" d="M2840.2,1509.3c0.9-0.8,5.3-6.4,6.1-7.6c6.2-9.2,12.8-16.3,25.1-21.7c25-10.9,47.7-27.1,77.5-22.9
			c14,2,29.5,21.5,43.4,15c0.2-1.2,0.3-2.3,0.4-3.4c6.3-0.6,16.5,3.1,21.8,1.2c2.5-0.9,4.3-5.6,6.5-7.5c3-2.6,6.5-6.5,11.2-7.8
			c4.2-1.2,7.7,1.8,11.4,1.5c4-0.3,4.9-1.8,9.1-2.7c17.5-4,28,7.5,42.6,16.3c2.4,1.4,11.5,9.5,13.7,9.8c4.6,0.6,2.3-1.9,6.9-3.3
			c9.2-2.7,14.7-5.7,24.9-5.3c10.7,0.4,22.7,2.2,27.9,12.8c7.4-0.4,11.7-6,17.7-7.4c4.3-1.1,9.4,1,13.7-0.1c2.7-0.7,2.9-3.4,5.4-3.9
			c5.1-1.1,8,0.1,13.3,0.1c12.1-0.1,22-7.2,35.3-4.9c11.2,1.9,22.9,8.1,32.3,13.8v11.5c0.9,11.1,15.6,16.2,11.4,32
			c-1.9,7-2.8,6-11.3,7.2c-18.4,2.6-38,2.2-56.7,4.1c-68.9,7.3-144.5,14.3-213.4,4.8c-54.9-7.6-110.1-3-165.3-6.5
			c-6.8-0.4-16.3,1.4-20.1-5.1C2825.3,1519.4,2834.7,1513.9,2840.2,1509.3"/>
		<path class="st15" d="M2874.2,1501.3c-0.2-16.1,17.4-16.8,30.8-16.5c0-11.1,17.8-13.6,26-13.8c8.5-0.3,16.3,1,22.9,4.2
			c3.4,1.6,5.3,5,9.2,6.1c5.4,1.6,12.4-0.3,17.8,1.2c5,1.3,6.5,3.3,12.4,3.9c9.1,0.9,11-0.7,18.4,4c5.8,3.7,10.7,11.1,16.6,15.1
			c1.2-15.4-5.7-15.6-16.6-23.5c3.3-3.7,18.7-7.3,24.3-8.3c3.8-0.7,7.9,0.6,11.7,0c3.3-0.5,5.8-3.3,9-3.7c7.9-1.1,15.3,1.4,22.1,3.5
			c8.4,2.6,7.4,4.8,12.4,9.2c3.8,3.3,9.5,5.4,12.6,10.2c2.1,3.2,1.6,11.5,4,13.4c14.7,11.7,5.4-18,5.5-20.6c8.7-1.2,17.6-2.9,26.7-3
			c7.5-0.1,11.4,0,16.4,2.5c3.6,1.8,4.5,7,10.6,7.9c-1.2,5.7-5.7,9.8-5,16.1c10.6,2.6,17.9-15.4,24.4-19.6
			c7.9-5.2,18.3,1.4,26.7,0.8c3.7-0.3,10.4-1.6,14.1-2.6c8.4-2.3,15-8.6,24.3-7.4c8.2,1.1,14,5.3,11.1,12.5
			c-3.6,9-21.4,13.3-9.7,26.7l-7.7,8.9c-15.1,0.1-28.6,5.2-43.5,7.7c-36.8,6-76.8,5.8-113.9,5.2c-37.3-0.6-76,0.7-112.9-5.1
			c-39.9-6.3-79.8-4.3-119.8-6.7C2853.8,1517.6,2862.1,1504.1,2874.2,1501.3"/>
		<path class="st13" d="M2648.5,1475.9c-3.9-7.4-13.7-11.4-24.1-10.9c-10.8,0.5-13.6,8.4-17,15.6c-6.5-0.6-7.5-8.5-12.7-11.5
			c-5.6-3.3-21.8-9.6-26.4-2.2c-15.1-3-30-9.5-45.8-1.9c-7.4,3.6-17.7,11.4-17.2,18.9c-8.4-2.3-15.1-5.5-24.9-3.3
			c-7.4,1.7-9.8,5.5-15.3,8.7c-3.3,1.9-3,1.5-7,3c-7.6,2.8-14,8.7-21.5,6.5c-12.1-3.4-19.1-11.7-32.9-12.2
			c-13.8-0.4-23.7,13.9-38,9.3c-4.2-1.3-7.9-6.2-12.4-7.9c-4.5-1.7-6.8-0.3-11-0.7c-8.7-0.8-16.2-5.5-27.2-4.8
			c-17.5,1.1-34.3,19.1-52.8,14.1c-5.7-1.5-9.8-6.3-14.3-9.3c-7.5-4.9-14.1-7.5-23.8-8.2c-11-0.8-20.6,1.6-29.9,3.4
			c-17.1,3.2-36.2,10.2-42.8,24.6c-1.3,2.9-4.8,18.3-0.1,20.9h497.1V1475.9z"/>
		<path class="st16" d="M2618.2,1499.6l-11.8-4.7c-1.3-4-5.6-8-10.2-10.1c-5.6-2.7-6-0.6-10.9-1.4c-1.8-0.3-2.2,0.6-4.2,0
			c-2.3-0.7-5.5-4.3-8.4-5.4c-8.2-3.1-21.1-5.6-30.2-3.9c-9.6,1.7-5.6,7.3-12.3,11.3c-9.2,5.4-25.5,3.9-28,15.7
			c-7.3-1.7-12.6-5-20.4-5.5c-9-0.6-16.4,1.9-23.6,6c-6.7,3.9-11,11.9-19.8,9.6c-2.8-0.7-3.1-2.6-6.3-2.8c-4.1-0.3-8,2.1-10.2,4.8
			c-2.4,2.9-1.5,6.7-4.9,9.4c-6.8-1.7-6.1-8-3.7-12.5c3.2-5.7,9.7-6,4-11.8c-2.9-2.9-8.4-5.3-13.2-4.8c-5.6,0.6-3.8,2.4-7.4,4.8
			c-9.3,6.3-25.1,3.4-31.9,13.5c-5.3-1.9-18-4.9-17.8-10.8c-6.3-0.4-7.2-0.5-12.5-2.7c-5.6-2.3-9.4-4.1-15.9-4.2
			c-11.2-0.2-22.6,4.3-28.5,11.5c-3.7,4.6-2.2,15-10.3,15.6c-10.1,0.7-11.9-13.6-4.3-16.1c-8.2-0.6-19.9,2.9-26.8-0.9
			c-7.9-4.4-6.7-12.3-17.9-13.3c-13.7-1.2-32.8-1.6-45.3,3.1c-16.6,6.2-29.5,24.6-22.6,40c50.6,2.3,102.1,0.1,152.8,0.1
			c46.9,0,94,1.2,140.9,3.2c55,2.4,111.1,6.6,166.2,3.5C2624.1,1526.7,2619.4,1513.2,2618.2,1499.6"/>
		<path class="st16" d="M2601.2,1503.1l8.9-4.6c3.7-1.8,7.9,0.3,11.6,1.7c1.8-2.2,4.2-4.2,6.6-5.8c0.4-0.3,4.8-1.7,4.9-2.2
			c0.8-1.9-2.5-2.5-2.9-4.1c-1.1-4.3,4.2-4.3,6.8-3.8c7.1,1.2,13,6.4,14.7,13.4c4.4,0,9.3-0.1,13.1,2.5c2.1,1.4,4.2,3.9,5.1,6.3
			c0.6,1.6,0.2,3.3,0.8,4.7c2.4,6.9,13.1,5.3,19,4.8c0.9-3.4,5.6-8.1,8.8-9.1c6.8-2,15,4.5,20.3,7.9c2-7-7.3-12.8-11.5-16.7
			c3.4-2.1,14.2-0.9,18.1,0c6.1,1.5,11.6,5.3,15.1,10.4c4.2-1.1,9.7,0,13.4,2.2c1.7,1,2.8,2.9,4.3,3.7c3,1.4,7.3,0.1,10.3-0.3
			c5.7-0.9,11.3-1.8,17.1-1.8c3.4,0,45.1,7.5,37.7,16.2c-1.4,1.6-12.8-0.7-13.5-0.7c-7.5-0.9-14.9-1.6-22.4-2.5
			c-13.2-1.4-26.3-1.3-39.6-0.9c-16.5,0.5-32.9,0.6-49.4,0.2c-12.4-0.3-25.1-0.8-37.4,1.2c-16.9,2.7-33.9,4.5-50.6,0.4
			c-4.9-1.2-14-3-14.5-9.3C2595.5,1512.8,2599.5,1506.7,2601.2,1503.1"/>
	</g>
	<g class="st0">
		<defs>
			<rect id="SVGID_26_" x="-12.3" y="1509.4" width="3225.3" height="490.6"/>
		</defs>
		<clipPath id="SVGID_27_">
			<use xlink:href="#SVGID_26_"  style="overflow:visible;"/>
		</clipPath>
		
			<linearGradient id="SVGID_28_" gradientUnits="userSpaceOnUse" x1="0" y1="1999.9977" x2="1" y2="1999.9977" gradientTransform="matrix(0 508.3599 508.3599 0 -1015118.25 1500.3872)">
			<stop  offset="0" style="stop-color:#A5B66C"/>
			<stop  offset="1" style="stop-color:#82A142"/>
		</linearGradient>
		<rect x="-12.3" y="1509.4" class="st17" width="3225.3" height="490.6"/>
	</g>
	<g class="st0">
		<defs>
			<path id="SVGID_29_" d="M-12.3,1956.4H3213v-438.2c-81.7,14.9-237.6,42.2-313.2,48.5c-105.3,8.7-446.8,2.9-648.3-14.6
				c-201.5-17.5-832.5,2.9-1096.4,13.5c-133.4,5.4-425.1-16.2-684.9-37.7c-229.6-19-434.3-38.1-482.5-38.5V1956.4z"/>
		</defs>
		<clipPath id="SVGID_30_">
			<use xlink:href="#SVGID_29_"  style="overflow:visible;"/>
		</clipPath>
		
			<linearGradient id="SVGID_31_" gradientUnits="userSpaceOnUse" x1="-3.807357e-003" y1="2000" x2="1.0041" y2="2000" gradientTransform="matrix(3262.0505 0 0 -3262.0505 -9.8358 6525824)">
			<stop  offset="0" style="stop-color:#A5B66C"/>
			<stop  offset="1" style="stop-color:#82A142"/>
		</linearGradient>
		<rect x="-12.3" y="1489.4" class="st18" width="3225.3" height="467.1"/>
	</g>
	<g class="st0">
		<defs>
			<rect id="SVGID_32_" x="-12.3" width="3225.3" height="2000"/>
		</defs>
		<clipPath id="SVGID_33_">
			<use xlink:href="#SVGID_32_"  style="overflow:visible;"/>
		</clipPath>
		<path class="st19" d="M857.6,1114.9c0,0-18.1,1.2-25.5,5.8c-7.4,4.5-14.1,6.3-12.8,8.4c1.3,2.1,14.3-2.4,14.5,0
			c0.3,2.4-11.4,9.4-14.7,10c-3.3,0.5-10.7,1.6-9.3,5.8c1.3,4.2,13.8,5.5,23.8,5.8c10,0.3,34.3-15.7,34.3-15.7L857.6,1114.9z"/>
		<path class="st20" d="M870.8,1137.4c18.4,0,78.9-40.1,99.2-56.4c2.2-1.8,3.9-3.2,5-4.4c7.6-7.7,33.7-45.5,52.3-79.2
			c10.7-19.4,18.9-37.4,19.5-47.5c2.3-36.1-16.8-86.5-16.8-86.5c-56.6,19.5-62.5,64.4-62.5,64.4l-29,107.1
			c-1.5,5.7-4.8,10.8-9.4,14.5l-76.7,63.2C849.9,1123.4,864.7,1137.4,870.8,1137.4"/>
		<path class="st21" d="M970.1,1081c2.2-1.8,3.9-3.2,5-4.4c7.6-7.7,33.8-45.5,52.3-79.2c2.4-20.4,0.8-39.5-7.7-52.8
			C1019.7,944.6,971.6,1028.6,970.1,1081"/>
		<path class="st19" d="M1002.7,1414.7l9.6,39.8l6,24.6l19.8,82c0,0,17,5.2,34.6,0c0,0,6.5-27.1,6.7-61c0.1-17.7-1.5-37.2-6.7-55.7
			c-2.1-7.5-4.8-14.8-8.3-21.8C1036.4,1366.1,1002.7,1414.7,1002.7,1414.7"/>
		<path class="st22" d="M986.3,1585.1h93.1c0,0,1.5-14-2.6-27.4c-0.6-2-1.3-4-2.2-5.9c0,0-20.8,4.7-38.7,0c0,0-16.9,14.2-27,18.6
			C998.6,1574.9,987.3,1572.5,986.3,1585.1"/>
		<path class="st23" d="M1012.3,1454.5l6,24.6c10.1,6.4,32,18,61.1,21c0.1-17.7-1.5-37.2-6.7-55.7c-8.6-4.3-17.3-6.6-24.7-5.3
			C1029.4,1442.4,1018.5,1449.1,1012.3,1454.5"/>
		<path class="st24" d="M1034.6,1585.1h44.8c0,0,1.5-14-2.6-27.4C1065.5,1561.2,1042.7,1569.9,1034.6,1585.1"/>
		<path class="st19" d="M1076.9,1414.7l9.6,39.8l6,24.6l19.8,82c0,0,17,5.2,34.6,0c0,0,6.5-27.1,6.7-61c0.1-17.7-1.5-37.2-6.7-55.7
			c-2.1-7.5-4.8-14.8-8.3-21.8C1110.6,1366.1,1076.9,1414.7,1076.9,1414.7"/>
		<path class="st22" d="M1148.8,1551.9c0,0-20.8,4.7-38.7,0c0,0-16.9,14.2-27,18.6c-10.2,4.4-21.4,2-22.5,14.6h93.1
			C1153.6,1585.1,1155.6,1566.7,1148.8,1551.9"/>
		<path class="st23" d="M1086.5,1454.5l6,24.6c10.1,6.4,32,18,61.1,21c0.1-17.7-1.5-37.2-6.7-55.7c-8.6-4.3-17.3-6.6-24.7-5.3
			C1103.7,1442.4,1092.7,1449.1,1086.5,1454.5"/>
		<path class="st25" d="M989.3,1460.2c34.8,21.9,179.7,6.2,180.9-15c0,0-7.2-53.1-9.6-75.4c-1-9.2-1.5-16.6-0.9-20.5
			c15.1-99,27.7-215.5,26.2-237.8c-0.2-3.1-0.4-4.8-0.4-4.8s-10.9-0.9-27.4-1.5c-48.1-1.9-144.1-1.6-160,29.6
			c-16.2,31.8-16.6,216.4-16.6,216.4C981.4,1402.1,989.3,1460.2,989.3,1460.2"/>
		<g class="st26">
			<g>
				<defs>
					<rect id="SVGID_34_" x="1117" y="1105.2" width="69" height="264.6"/>
				</defs>
				<clipPath id="SVGID_35_">
					<use xlink:href="#SVGID_34_"  style="overflow:visible;"/>
				</clipPath>
				<path class="st27" d="M1160.5,1369.8c-1-9.2-1.5-16.6-0.9-20.5c15.1-98.9,27.7-215.5,26.2-237.8c-0.2-3.1-0.4-4.8-0.4-4.8
					s-10.9-0.9-27.4-1.5c-24.9,14.5-41.1,39.3-41.1,39.3S1122,1329.7,1160.5,1369.8"/>
			</g>
		</g>
		<path class="st28" d="M1094,720c0-12.9-7.5-22.2-21.8-23c-10.5-0.7-25.1,5.7-25.1,18.6c0,12.9,10.5,27.8,23.5,27.8
			C1083.5,743.3,1094,732.9,1094,720"/>
		<path class="st28" d="M1074,813c0,0,56.5-50.5,13-89.2c-4.2-3.8-9.3-6.4-14.9-7.6c-15.2-3.3-49-7.9-66.1,10.8
			c-18.4,20.2-25.7,35.5-10.3,53.9C1011.1,799.4,1074,813,1074,813"/>
		<path class="st19" d="M1147.7,1147.2c0,0-2.5,9.7-1.5,21.3c1.5,16.2,4.4,25.1,15.1,30.4c0,0,12.3,8.3,14.1-2.5
			c1.9-10.8-1.8-11.2,1.1-26.4c3-15.2,0.7-26.7-8.1-33.5L1147.7,1147.2z"/>
		<path class="st19" d="M1023.1,812.5c0,0,0.8,8.3,2.2,19.6c0.7,5.5,1.5,11.7,2.5,17.9c0.7,4.5,1.5,9,2.4,13.4l19.2,64.5l45.2-72.5
			c0,0-10.6-8.7-25-55.9c-0.1-0.5-0.2-0.8-0.2-0.8L1023.1,812.5z"/>
		<path class="st20" d="M996.7,1130.6c-0.6,7.2,1.3,8.6,1.3,8.6s27.8,10,97.6,6.5c7.6-0.4,14.7-0.8,21.3-1.2
			c45-2.6,69.1-5.4,69.1-5.4s36.9-84.5-32.4-188.5c-7.8-11.8-17-23.8-27.8-36c-11.2-12.7-13.7-29.7-17.9-45.8
			c-1.2-4.6,2.3-5.6,0.5-10c0,0-12.6-3.5-13.9-3.5c-7.2,6.3-16.6,18.5-40.1,20.9c-15.9,1.6-22.1-7.2-24.4-12.6
			c-6.1,2.2-12.3,5.9-17.5,8.4c-42.6,20.3-46.5,59.6-46.5,59.6s39.1,127.6,41.6,143.6C1008.7,1082.2,999.8,1093.3,996.7,1130.6"/>
		<path class="st23" d="M1025.2,832.1c0.7,5.5,1.5,11.7,2.5,17.9c49.3-19.1,43.1-45.7,41.8-50.7c-0.1-0.5-0.2-0.8-0.2-0.8
			S1044,816.4,1025.2,832.1"/>
		<path class="st19" d="M1015,838.4c0,0,55.3,1.8,55.8-32.4c0.6-34.2,8.1-56.9-27.2-59.5c-35.3-2.6-42.3,10.4-45.3,21.7
			C995.4,779.6,1000.6,837.1,1015,838.4"/>
		<path class="st28" d="M1010.2,741.4c0,0,3.5,65.1,70.8,59C1081,800.4,1079.6,713.4,1010.2,741.4"/>
		<path class="st28" d="M1023.1,747.1c0,0-20,12.1-26.2,31.5C996.9,778.6,974.6,747.8,1023.1,747.1"/>
		<path class="st21" d="M1117,1144.5c45-2.6,69.1-5.4,69.1-5.4s36.9-84.5-32.4-188.5C1139.6,983.1,1106.6,1069.8,1117,1144.5"/>
		<path class="st20" d="M1094.5,855.3c0,0,53.5,10.9,77.3,38.2c18.2,21,38.2,123.5,38.2,140.4c0,16.2-18.8,102.2-30.5,118.7
			c-0.8,1.1-2.2,1.8-3.6,1.6l-30.1-3.2c-2.5-0.3-4.3-2.6-3.9-5l16.9-108.8l-59.4-104.5C1099.5,932.8,1064.5,891.7,1094.5,855.3"/>
		<path class="st19" d="M1147.5,1154.3c0,0-7.9,22.6-5.8,24.7c2.1,2.1,7.7-7.1,7.7-7.1L1147.5,1154.3z"/>
		<path class="st28" d="M1008.1,815.4c0,0,1.6,5.6,4.3,6.1c2.6,0.5,6.9,1.4,10.6,0c3.7-1.4,4.8-4.4,4.8-4.4S1019.3,814,1008.1,815.4
			"/>
		<path class="st29" d="M1276.1,1583.9l-1.5-442.8c0,0-3.4-31.9-31.4-32.1c-29.9-0.2-31.8,31.7-31.8,31.7s0.4,2.8,3.5,2.8
			c3.2,0,3.8-2.7,3.8-2.7s1.5-24.6,24.5-24.4c21.6,0.1,24.2,24.7,24.2,24.7l-2.7,442.8L1276.1,1583.9z"/>
		<path class="st29" d="M1260.8,1583.8l18.6,0.1l-1.5-19.3c0,0,0.2-2.7-3.6-2.9c-3.5-0.2-10.4-0.7-11.1,1.4
			C1262.7,1565,1260.8,1583.8,1260.8,1583.8"/>
		<path class="st19" d="M1243,1085.5l-1.3,6.3c0,0-31.6-0.3-39.1,33.2c0,0-2.1,13.9,8.1,11c10.2-2.9,8.6-10.1,23-13.9
			c14.4-3.8,23.8-6.8,26-17.1l2.4-11.5L1243,1085.5z"/>
		<path class="st25" d="M1356.3,811.7c0,0-8.5,32.5-15.9,62.3c-3,12-5.7,23.5-7.7,32.3c-2,9-3.1,15.1-2.7,15.8
			c6.2,10.1-5.6,71.5-14.8,93.8c-0.8,2-1.9,4.3-3.3,6.9c-12.8,24.5-46.8,72.6-46.8,72.6s-9.5,0.9-15.7-1.4c-5.2-2-8.7-8.3-8.7-8.3
			c3-4.8,15.6-61.5,31.4-93.3c6.8-13.6,17.4-139.9,30.5-156.9C1313.6,821.2,1356.3,811.7,1356.3,811.7"/>
		<g class="st26">
			<g>
				<defs>
					<rect id="SVGID_36_" x="1308.2" y="894.5" width="24.4" height="128.1"/>
				</defs>
				<clipPath id="SVGID_37_">
					<use xlink:href="#SVGID_36_"  style="overflow:visible;"/>
				</clipPath>
				<path class="st30" d="M1329.9,922c6.2,10.1-5.6,71.5-14.8,93.8c-0.8,2-1.9,4.3-3.3,6.9c-11.8-53.1,8.7-128.2,8.7-128.2
					c5,2,9,6.1,12.1,11.7C1330.6,915.2,1329.5,921.3,1329.9,922"/>
			</g>
		</g>
		<path class="st31" d="M1413.8,1535.9c0,0,2.9,48-6.2,48.6c-1.2,0.1-46.3-0.2-46.3-0.2l-58.2-0.3c0,0,1.1-14.1,17.9-16.9
			c16.9-2.8,45.1-14.4,55.5-36.4C1387.3,1507.6,1413.8,1535.9,1413.8,1535.9"/>
		<path class="st32" d="M1501.4,1536.4c0,0,2.9,48-6.2,48.6c-1.2,0.1-46.4-0.2-46.4-0.2l-58.2-0.3c0,0,1.1-14.1,17.9-16.9
			c16.9-2.8,45.1-14.4,55.5-36.4C1474.8,1508.1,1501.4,1536.4,1501.4,1536.4"/>
		<path class="st20" d="M1417.3,1420.2c1.3,20.3,4.1,46.4,2.9,70c-1.7,32.9-2.9,60.6-2.9,60.6c-21.9,7.2-62-1.9-62-1.9
			s-13.7-83.2-25.1-149.7c-5.1-29.8-9.3-55.5-10.8-67.7c-5-39.3,7.1-248,7.1-248s59.4-37.3,83.7-17.7c24.3,19.5,39.3,38.6-1.4,250.8
			C1405.7,1332.6,1414.3,1374.7,1417.3,1420.2"/>
		<path class="st21" d="M1417.3,1420.2c1.3,20.3,3.8,52.8,2.6,76.3c-20.4-21.7-60.7-67.5-89.6-97.4c-5.1-29.8-9.3-55.5-10.8-67.7
			c-5-39.3,7.1-248,7.1-248s59.4-37.3,83.7-17.7c24.3,19.5,39.3,38.6-1.4,250.8C1405.7,1332.6,1414.3,1374.7,1417.3,1420.2"/>
		<path class="st20" d="M1379.9,1088c0,0,4.1,209.1,12.1,247.9c8.1,38.8,50.3,216.5,50.3,216.5s40.6,3.9,61.9-5
			c0,0-0.9-82.2-7.8-130.5c-6.5-45.1-18.3-86.4-16.5-102.7c24.1-214.7,7.7-232.6-18-250.2C1436.3,1046.3,1379.9,1088,1379.9,1088"/>
		<path class="st19" d="M1460.1,1106.8c0,0-14.2,27.9,12.7,49.5c0,0,11.7,8,13.5-2.3c1.9-10.3-0.2-6.7,2.7-21.2
			c2.9-14.5-0.6-29.5-9-36.1L1460.1,1106.8z"/>
		<path class="st19" d="M1343.5,764.2c0,0,15.9,25.6,12.5,48.4l23.9,56.6l42.6-65c0,0-21.6-25.4-30-59.2L1343.5,764.2z"/>
		<path class="st19" d="M1336.3,785.1c0,0,59.1,2.9,60.4-32.3c1.3-35.2,17.4-58.6-26.8-61.9c-36.4-2.8-48.6,12.2-51.9,23.9
			C1314.7,726.4,1314.4,783.1,1336.3,785.1"/>
		<path class="st25" d="M1479.2,1098.7c-12.7,1.1-30.2,2.4-51.5,3.6c-4.2,0.2-8.6,0.5-13.2,0.7c-64.1,3.2-89.5-7.3-89.5-7.3
			s-1.7-1.4-1.1-8.8c3-38.4,11.3-49.8,10.4-57.1c-2.1-16.4-41.5-150.7-41.5-150.7s-0.5-42.3,47.1-61.9c4.9-2,10.3-3.8,16.3-5.3
			c2,5.5,7.7,14.7,22.3,13.1c21.6-2.4,37-14.9,43.6-21.3c1.2,0,1.7,0,1.7,0c1.6,4.5,2.8,9.2,3.9,14c3.8,16.7,6,34.2,16.2,47.3
			c10.1,13,18.7,25.8,26,38.3c6.1,10.4,11.3,20.6,15.8,30.6C1527.1,1026.3,1494.2,1097.4,1479.2,1098.7"/>
		<g class="st26">
			<g>
				<defs>
					<rect id="SVGID_38_" x="1427.3" y="899.6" width="64" height="202.7"/>
				</defs>
				<clipPath id="SVGID_39_">
					<use xlink:href="#SVGID_38_"  style="overflow:visible;"/>
				</clipPath>
				<path class="st33" d="M1479.2,1098.7c-12.7,1.1-30.2,2.4-51.5,3.6c-5.6-103.5,37.5-202.7,37.5-202.7c1.6,1.1,3.1,2.4,4.5,3.8
					c7.4,7.2,12.5,17.8,15.8,30.6C1498,981,1487,1057.2,1479.2,1098.7"/>
			</g>
		</g>
		<path class="st28" d="M1317.4,751.4c0,0-11.8,45.3,7.7,51.8c19.5,6.5,71.4,1.7,71.7-53.9c0,0-27.3,15.9-40.3,15.5
			c-13-0.5-21.4-8-33.4-2.2C1323.1,762.5,1318.7,762.2,1317.4,751.4"/>
		<path class="st25" d="M1423.7,803.7c0,0,41.3,1.2,63,29.5c16.6,21.7,33.6,137.8,33.5,155.2c-0.1,17.5-19.5,113.7-30.1,124.1
			c0,0-6.8,1.7-15.9-0.1c-9.7-1.9-15.3-7.5-15.3-7.5s5.9-107.2,6-117.3c0.1-14.6-45.3-104-45.3-104S1395.9,841.1,1423.7,803.7"/>
		<path class="st28" d="M1394.2,701.9c-1-3.6-5.4-5.5-5.4-5.5c-33.2-14.6-57.7,1-57.7,1c20.6-27.1,69.8-21.1,80.1,3.5
			c16.7,40.2-14.3,48.3-14.3,48.3s-30.9-13.1-12.9-29.2c6-5.3,8.9-10.1,9.8-14.2C1394.2,704.5,1394.3,703.2,1394.2,701.9"/>
		<path class="st28" d="M1327.1,769.8c0,0,3.9,6.1,10.7,5.9c6.8-0.2,10-5.9,10-5.9S1336.3,767.6,1327.1,769.8"/>
		<path class="st34" d="M694.3,1119.4l-15.8,2.9c0,0-43.3-66.2-44.5-86.3c-1.2-19.3-40.2-103.6,5.5-156.2c2.1-2.4,4.3-4.7,6.7-6.9
			c0.1-0.1,0.2-0.2,0.3-0.2c0,0,0.1,0.1,0.2,0.4c0.9,1.5,4.6,8,8.8,22.4c6.7,22.5,14.9,64.2,16.8,136.2
			C672.3,1031.5,682.9,1093.2,694.3,1119.4"/>
		<path class="st34" d="M694.3,1119.4c0,0,14.4,15.9,14.8,21.7c0.6,7.7-5.4,20.3-9.3,19.1c-3.9-1.2-4.4-7.5-5.5-12.2
			c-1.1-4.8-6.3-9.9-6-7.7c0.3,2.2,3.3,10.6,2.4,12c-0.9,1.4-2.1,1.1-4.3-3c-2.7-4.9-8.4-11.7-7.7-16.7c0.8-5.4,0.9-6.6-1.1-13.1
			c-2.1-6.5-5.5-14.3-5.5-14.3l12.2-2.6L694.3,1119.4z"/>
		<path class="st25" d="M547.4,1406.8c0,0.2,0,0.4,0.1,0.5c0,0.3,0.1,0.6,0.1,0.9c2.2,21,6.9,42.2,12.4,62
			c14.4,51.5,35.1,90.8,35.1,90.8l17.2-1.6c0,0-9.4-39.6-10.2-93.5c-0.6-37.7,3.1-82.2,17-125.1c8.2-25.1,14.6-48.9,19.7-71.3
			c16.6-72.9,18.8-129.7,18.4-159.3c-0.2-14.6-1-22.6-1-22.6l-96.6,13.5l-4.5,0.6c0.6,44.1,0.9,104.1,1.1,151
			c0,11.3,0,21.8,0.1,31.2c0,13,0,23.8,0,31.2v11.3c-5.5,12.5-8.5,26.6-9.6,41.5C545.7,1380.5,546.1,1393.6,547.4,1406.8"/>
		<path class="st19" d="M584.5,1542.8c-0.4-2.2-1-5.1-1.7-8.2c-7-16.2-15.7-38.8-22.8-64.5c24.3,2,36.3-1.2,42.1-4.3
			c0.3,20.9,1.9,39.7,3.8,54.8c2.5,9.4,7.2,24.5,12.5,30.8c8.5,10,17.9,18.7,29.2,24.4c1.3,0.6-28.3,10.9-43.4,9.4
			c-15.1-1.6-27.6-4.2-26.2-13.5c0.5-3.3,1.3-6.6,2.6-9.6C583,1556.7,585.8,1549.5,584.5,1542.8"/>
		<g class="st26">
			<g>
				<defs>
					<rect id="SVGID_40_" x="546.1" y="1315.2" width="30" height="91.6"/>
				</defs>
				<clipPath id="SVGID_41_">
					<use xlink:href="#SVGID_40_"  style="overflow:visible;"/>
				</clipPath>
				<path class="st35" d="M547.4,1406.8c-1.5-17.6,28.7-78.2,28.7-78.2l-19.8-13.3v11.3c-5.5,12.5-8.5,26.6-9.6,41.5
					C545.7,1380.5,546.1,1393.6,547.4,1406.8"/>
			</g>
		</g>
		<path class="st24" d="M605.3,1587.9c15.2-0.8,10.9,2.7,32,4.4c21.1,1.6,28.8-4.9,30-7.8c1.1-2.6-8.9-5.5-19.6-8.8l-0.1,0.2
			c0,0-14,6.4-31.3,3.6c-14.1-2.3-28.2-9.1-37.9-10.7c-0.8,3.1-1.7,6.3-1.6,9.7C576.9,1587.7,590.1,1588.7,605.3,1587.9"/>
		<g class="st26">
			<g>
				<defs>
					<rect id="SVGID_42_" x="555.1" y="1087.7" width="101.1" height="240.9"/>
				</defs>
				<clipPath id="SVGID_43_">
					<use xlink:href="#SVGID_42_"  style="overflow:visible;"/>
				</clipPath>
				<path class="st36" d="M555.1,1101.8c0.6,44.1,0.9,104.1,1.1,151c0,11.3,19.9,66.4,19.9,75.8c16.1-22.7,30-179.9,52.3-219.7
					c-0.2-14.6,27.8-21.2,27.8-21.2l-96.6,13.5L555.1,1101.8z"/>
			</g>
		</g>
		<path class="st37" d="M539.9,690.1c-0.6-2-7.8-24.4-43-16.9c0,0,17.6-2.2,22.5,4.5c0,0-14-6.3-22.7-1c-8.7,5.3-10.2,23.2-8.9,28.6
			c1.3,5.4,11,21.6,17.4,21.6c2.4,0,5-0.8,7.3-1.8c-1,2.9-1.9,6-2.6,9.4c-6.8,31.7,14.5,55.8,25.5,49.9c7.1-3.8,12.4,8.4,12.4,8.4
			l58.5-77C606.1,715.9,565.3,667.3,539.9,690.1"/>
		<path class="st19" d="M631.8,1064.1c-26.6-84.2,2.5-102.5-0.2-144.6c-2.8-42.1-35.6-87.4-35.6-87.4s-1.7-0.2-4.5-0.4
			c-2.2-1.2-2.8-10.3-2.8-20c0-11.6,0.9-23.9,0.9-23.9l-39.4-7.7l-2.3-0.5c0.1,27.2-7.1,45.1-12.4,49.3c-4.9,0.6-25.9,3.2-38.9,8.6
			c-4.9,2-8.6,4.4-9.9,7.3c-10.8,23.6-21.6,83.2-29.2,125.8c-4.2,23.7-7.5,42.1-9.2,46c-4.7,10.9-19.1,70.7-31.3,100.3l11.1,13.6
			c0,0,56.3-94,61-116.2c1.5-7.2,5.3-21.6,9.7-37.8c0.7-2.4,1.3-4.9,2-7.4c7.7,20.8,11.7,30.5,11.5,39.5
			c-0.3,12.8-9.1,24.3-27.4,65.1C474.7,1095.9,658.9,1150.1,631.8,1064.1"/>
		<path class="st23" d="M589.6,793.9c0,0-0.9,12.3-0.9,23.9c-22.1-0.6-33.7-20.6-38.5-31.7L589.6,793.9z"/>
		<path class="st25" d="M546,781.9c0,0-11.6-18.1-14.3-33.6c-2-11.1,3.7-52.1,45.2-46.2c0,0,12.1,1.2,23.4,8.8c9,6,22,19.1,7.5,54.9
			l-3.8,12.1L546,781.9z"/>
		<path class="st19" d="M596.9,804.9c0,0-52.2,0.9-52.2-31.4c0-32.3-6.8-53.9,26.5-55.8c33.3-1.9,39.8,10.4,42.5,21.2
			C616.3,749.6,610.5,803.9,596.9,804.9"/>
		<path class="st25" d="M570.8,1342.3c-3.3,6.2-36.2,45.4-69.2,88.8c-2.8,3.7-5.8,7.7-8.8,11.9c-19.4,27.2-41.8,62.6-55.2,79.9
			c-12.2,15.7-23.1-4-17-18c9.7-22.1,17.9-60.7,27.3-89.2c2.2-6.6,4.4-12.6,6.7-17.8c10.1-22.4,27.1-53.7,51-78
			c4.1-4.2-32-98-29.5-175.5c1-30.7,5.3-57.8,15.2-74.2l98.2,4.8C589.7,1075,603.1,1282.1,570.8,1342.3"/>
		<path class="st37" d="M612.1,720.9c-8.1-9.7-14.1-7.6-17.6-4.7c-28-15.4-46.9,7.5-46.9,7.5c-3.5,23.2-20.3,36.4-20.3,36.4
			s9.5,5.8,31.5,0.2c6.7-1.7,12.7-6.4,17.8-12.1c-8.9,14.8-20.9,25.4-20.9,25.4c26.2-12,36.7-48.2,37.8-52c3.2,2.8,9.5,9,11.4,15.1
			c2.6,8.2,3.8,25.1,8.7,24.6C613.5,761.2,624.2,735.5,612.1,720.9"/>
		<path class="st19" d="M418.2,1113.9c0,0-4.8,11.1-9.7,14.3c-5,3.1-8.1,9.6-6.8,15.6c1.3,6-1.3,16.3,4.9,16.3
			c6.3,0,20.9-27.5,22.7-32.6c1.8-5.2,3.4-6.2,3.4-6.2L418.2,1113.9z"/>
		<path class="st28" d="M472.5,1108.5c-0.2,3.4,0,6,0.6,8c2.1,6.7,9.3,9.7,26.6,7.9c10.6-1.1,15.3-19.1,17.4-34.5
			c6.4,22,15.3,34.3,26.8,36.9c16.8,3.8,107.7,10.2,113.3-30.7c6.1-45-18.2-120.5-19.2-163.4c2.5-15.2,3.3-28.4,3.1-39.8
			c-0.7-30.6-9.6-47.7-16.4-54.6c-1.9-1.5-3.9-2.4-11.6-3.8c-4-0.7-9.4-1.5-17.2-2.5c0,0-3.3-0.4-3.3-0.3
			c1.4,2.6,16.9,25.6,15.4,33.2c-1.6,7.9-61,6.8-65.7,2.4c-4.7-4.4-17-37.3-17-37.3s-24.1,2.7-35.9,11.4c0,0,0,0.1,0.1,0.2
			c-1.4,1-2.5,2.1-3.1,3.3c-12.6,24.3-25.2,85.6-34,129.4c21.4,12,40.2,8.4,46,6.8C490.9,1031.5,473.6,1085.6,472.5,1108.5"/>
		<path class="st28" d="M581.9,785.9c0,0,1,4,11,3.2c0,0,8.4-0.6,8.1-5C601,784.1,592.8,781.1,581.9,785.9"/>
		<path class="st19" d="M492.9,1442.9c-19.4,27.2-41.8,62.6-55.2,79.9c-12.2,15.7-23.1-4-17-18c9.7-22.1,17.9-60.7,27.3-89.2
			C454.3,1425.2,467.1,1437.4,492.9,1442.9"/>
		<path class="st19" d="M427,1125c0,0,2.9,12.3,0.8,16.2c-2.1,3.9-0.7,8.9-4.9,7.5C418.8,1147.2,427,1125,427,1125"/>
		<path class="st19" d="M396.7,1511.4c-7.9,5.1-1.6,16.7,7.2,29c8.8,12.3,3.5,10.6,13.5,29.1c10,18.5,19.6,21.5,22.7,20.9
			c2.8-0.5-0.2-10.4-3.1-21.2c-0.4-1.3-0.7-2.7-1.1-4.1c-3.2-12.2,0.9-23.6,2.9-36.6c1.8-12.3,19.7-36.6,19.7-36.6l-12.8-25.7
			c0,0-15.7,22.4-22.8,31.5c-4.2,5.3-11.5,8-17.2,9.8C402.7,1508.5,399.5,1509.6,396.7,1511.4"/>
		<path class="st24" d="M404,1540.4c8.8,12.3,3.5,10.6,13.5,29.1s19.6,21.5,22.7,20.9c2.8-0.5-0.2-10.4-3.1-21.2l-0.2,0
			c0,0-13-8.3-19.9-24.3c-5.6-13-7.4-28.4-11.2-37.4c-3.1,1-6.3,2-9.1,3.8C388.8,1516.5,395.1,1528.1,404,1540.4"/>
		<path class="st28" d="M617.9,835.5c0,0,15.7-0.1,26.7,20.9c11,21,27.5,89.2,27.5,89.2s-19.3,21.4-41.9,16.5
			C607.6,957.1,617.9,835.5,617.9,835.5"/>
	</g>
</g>
</svg>
