<?xml version="1.0" encoding="utf-8"?>
<!-- Generator: Adobe Illustrator 19.0.0, SVG Export Plug-In . SVG Version: 6.00 Build 0)  -->
<svg version="1.1" id="Layer_1" xmlns="http://www.w3.org/2000/svg" xmlns:xlink="http://www.w3.org/1999/xlink" x="0px" y="0px"
	 viewBox="0 0 89 89" style="enable-background:new 0 0 89 89;" xml:space="preserve">
<style type="text/css">
	.st0{clip-path:url(#XMLID_117_);fill:#B6C7D2;}
	.st1{clip-path:url(#XMLID_117_);fill:#FFFFFF;}
	.st2{clip-path:url(#XMLID_117_);fill:none;stroke:#FFFFFF;stroke-miterlimit:10;}
</style>
<g id="XMLID_125_">
	<defs>
		<rect id="XMLID_113_" x="-0.2" width="90" height="90"/>
	</defs>
	<clipPath id="XMLID_115_">
		<use xlink:href="#XMLID_113_"  style="overflow:visible;"/>
	</clipPath>
</g>
<g id="XMLID_116_">
	<defs>
		<circle id="XMLID_105_" cx="44.7" cy="45" r="45"/>
	</defs>
	<clipPath id="XMLID_117_">
		<use xlink:href="#XMLID_105_"  style="overflow:visible;"/>
	</clipPath>
	<path id="XMLID_112_" class="st0" d="M36.4,63.5c0,0,0.1-0.1,0.1-0.1c0.1-0.1,0.1-0.1,0.2-0.2c0,0,0-0.1,0.1-0.1
		c0.1-0.1,0.1-0.2,0.2-0.3c0,0,0,0,0,0c0.2-0.5,0.2-1.2,0-1.7c0,0,0,0,0,0c0-0.1-0.1-0.2-0.2-0.3c0,0,0,0,0-0.1
		c-0.1-0.1-0.2-0.3-0.3-0.4c-0.4-0.4-1-0.7-1.7-0.7c-0.2,0-0.3,0-0.5,0c0,0-0.1,0-0.1,0c-0.1,0-0.2,0.1-0.3,0.1
		c-0.1,0-0.1,0.1-0.1,0.1c-0.1,0-0.2,0.1-0.3,0.1c-0.1,0-0.1,0.1-0.1,0.1c-0.1,0.1-0.1,0.1-0.2,0.2l0,0l0,0L32,61.4c0,0,0,0,0,0
		c-0.9,0.9-0.9,2.4,0,3.3c0.4,0.4,1,0.7,1.7,0.7s1.2-0.2,1.7-0.7L36.4,63.5C36.4,63.5,36.4,63.5,36.4,63.5"/>
	<path id="XMLID_111_" class="st0" d="M43,67.8c-0.6,0-1.2,0.2-1.7,0.7l-1.2,1.2c-0.9,0.9-0.9,2.4,0,3.3c0.4,0.4,1,0.7,1.7,0.7h0
		c0.6,0,1.2-0.2,1.7-0.7l1.2-1.2c0.4-0.4,0.7-1,0.7-1.7c0-0.6-0.2-1.2-0.7-1.7C44.2,68,43.6,67.8,43,67.8"/>
	<path id="XMLID_110_" class="st0" d="M32.9,58.2c0-0.2,0-0.3,0-0.5c0-0.6-0.2-1.2-0.7-1.7c-0.4-0.4-1-0.7-1.7-0.7
		c-0.6,0-1.2,0.2-1.7,0.7l-1.2,1.2c-0.4,0.4-0.7,1-0.7,1.7c0,0.6,0.2,1.2,0.7,1.7c0.4,0.4,1,0.7,1.7,0.7c0.6,0,1.2-0.2,1.7-0.7
		l1.2-1.2C32.6,59.1,32.8,58.7,32.9,58.2"/>
	<path id="XMLID_109_" class="st0" d="M40.4,67.7C40.5,67.7,40.5,67.7,40.4,67.7L40.4,67.7c0.4-0.4,0.6-0.8,0.7-1.3
		c0-0.2,0-0.3,0-0.5c0-0.6-0.2-1.2-0.7-1.7c-0.4-0.4-1-0.7-1.7-0.7c-0.6,0-1.2,0.2-1.7,0.7c0,0,0,0,0,0L36,65.5
		c-0.4,0.4-0.7,1-0.7,1.7c0,0.6,0.2,1.2,0.7,1.7c0.4,0.4,1,0.7,1.7,0.7c0.6,0,1.2-0.2,1.7-0.7c0,0,0,0,0,0l0.9-0.9L40.4,67.7z"/>
	<path id="XMLID_108_" class="st1" d="M60.8,56.4C60.8,56.4,60.8,56.4,60.8,56.4l-7.3-7.3c0,0,0,0,0,0l-3.7-3.7l-5.1-5.1L38,47.1
		c-0.8,0.8-1.8,1.2-2.8,1.2c-1.1,0-2.1-0.4-2.8-1.2c-0.1-0.1-0.2-0.2-0.3-0.3c0,0,0,0,0,0c-0.1-0.1-0.2-0.2-0.2-0.3c0,0,0,0,0,0
		c-0.1-0.1-0.1-0.2-0.2-0.3c0,0,0,0,0,0c-0.1-0.1-0.1-0.2-0.1-0.3c0,0,0-0.1,0-0.1c0-0.1-0.1-0.2-0.1-0.3c0,0,0-0.1,0-0.1
		c0-0.1,0-0.2-0.1-0.3c0,0,0-0.1,0-0.1c0-0.1,0-0.2,0-0.3c0,0,0-0.1,0-0.1c0-0.1,0-0.2,0-0.2c0,0,0-0.1,0-0.1c0-0.1,0-0.2,0-0.2
		c0-0.1,0-0.1,0-0.2c0-0.1,0-0.2,0-0.2c0-0.1,0-0.1,0-0.2c0-0.1,0-0.1,0.1-0.2c0-0.1,0-0.1,0.1-0.2c0-0.1,0-0.1,0.1-0.2
		c0-0.1,0-0.1,0.1-0.2c0-0.1,0.1-0.1,0.1-0.2c0-0.1,0.1-0.1,0.1-0.2c0-0.1,0.1-0.1,0.1-0.2c0-0.1,0.1-0.1,0.1-0.2
		c0-0.1,0.1-0.1,0.1-0.2c0-0.1,0.1-0.1,0.1-0.2c0,0,0.1-0.1,0.1-0.1c0,0,0,0,0,0l11.6-11.6l-2.4-2.4c-2.7-2.7-6.4-4.3-10.3-4.3
		c-3.9,0-7.5,1.5-10.3,4.3c-2.7,2.7-4.2,6.2-4.2,10c-0.1,4,1.4,7.7,4.2,10.5l7.3,7.3c0,0,0.1,0,0.1-0.1c0,0,0.1-0.1,0.1-0.1
		c0,0,0.1-0.1,0.1-0.1c0,0,0.1-0.1,0.1-0.1c0.1,0,0.1-0.1,0.2-0.1c0,0,0.1-0.1,0.1-0.1c0.1,0,0.1-0.1,0.2-0.1c0,0,0.1,0,0.1-0.1
		c0.1,0,0.1,0,0.2-0.1c0,0,0.1,0,0.1,0c0.1,0,0.1,0,0.2,0c0,0,0.1,0,0.1,0c0.1,0,0.1,0,0.2,0c0,0,0.1,0,0.1,0c0.1,0,0.2,0,0.3,0
		c0.9,0,1.8,0.4,2.5,1c0.7,0.7,1,1.5,1,2.5c0,0.1,0,0.2,0,0.4c0,0,0,0.1,0,0.1c0,0.1,0,0.1,0,0.2c0,0,0,0,0,0c0,0,0,0,0,0
		c0.1,0,0.1,0,0.2,0c0,0,0.1,0,0.1,0c0.1,0,0.2,0,0.4,0c0.9,0,1.8,0.4,2.5,1c0.1,0.1,0.2,0.2,0.2,0.3c0,0,0,0,0,0
		c0.5,0.6,0.8,1.4,0.8,2.2c0,0.2,0,0.5-0.1,0.7c0,0,0,0,0,0c0,0,0.1,0,0.1,0c0.2,0,0.4-0.1,0.6-0.1c0.9,0,1.8,0.4,2.4,1c0,0,0,0,0,0
		c0,0,0.1,0.1,0.1,0.1c0.5,0.6,0.9,1.3,0.9,2c0,0.1,0,0.2,0,0.3c0,0.1,0,0.2,0,0.4c0,0,0,0.1,0,0.1c0,0.1,0,0.1,0,0.2c0,0,0,0,0,0
		c0,0,0,0,0,0c0.1,0,0.2,0,0.2,0c0,0,0.1,0,0.1,0c0.1,0,0.2,0,0.4,0c0.9,0,1.8,0.4,2.5,1c0.7,0.7,1,1.5,1,2.5c0,0.1,0,0.2,0,0.3
		c0,0,0,0.1,0,0.1c0,0.1,0,0.1,0,0.2c0,0,0,0.1,0,0.1c0,0.1,0,0.1,0,0.2c0,0,0,0.1,0,0.1c0,0.1,0,0.1-0.1,0.2c0,0,0,0.1-0.1,0.1
		c0,0.1-0.1,0.1-0.1,0.2c0,0,0,0.1-0.1,0.1c0,0.1-0.1,0.1-0.1,0.2c0,0-0.1,0.1-0.1,0.1c0,0.1-0.1,0.1-0.1,0.2c0,0-0.1,0.1-0.1,0.1
		c0,0,0,0.1-0.1,0.1l0.9,0.9c0.4,0.4,1,0.7,1.7,0.7c0.6,0,1.2-0.2,1.7-0.7c0.4-0.4,0.7-1,0.7-1.7c0-0.6-0.2-1.2-0.7-1.7c0,0,0,0,0,0
		L38.2,58.5c-0.2-0.2-0.2-0.6,0-0.8c0.2-0.2,0.6-0.2,0.8,0l11.6,11.6c0,0,0,0,0,0c0.4,0.4,1,0.7,1.7,0.7c0.6,0,1.2-0.2,1.7-0.7
		c0.9-0.9,0.9-2.4,0-3.3v0L42.3,54.4c-0.2-0.2-0.2-0.6,0-0.8c0.2-0.2,0.6-0.2,0.8,0l11.6,11.6c0,0,0,0,0,0c0.4,0.4,1,0.7,1.7,0.7
		c0.6,0,1.2-0.2,1.7-0.7c0.4-0.4,0.7-1,0.7-1.7c0-0.6-0.2-1.2-0.7-1.7L46.4,50.3c-0.2-0.2-0.2-0.6,0-0.8c0.2-0.2,0.6-0.2,0.8,0
		L58.8,61c0.4,0.4,1,0.7,1.7,0.7c0.6,0,1.2-0.2,1.7-0.7c0.4-0.4,0.7-1,0.7-1.7c0-0.6-0.2-1.2-0.7-1.7L60.8,56.4z"/>
	<path id="XMLID_107_" class="st2" d="M60.8,56.4C60.8,56.4,60.8,56.4,60.8,56.4l-7.3-7.3c0,0,0,0,0,0l-3.7-3.7l-5.1-5.1L38,47.1
		c-0.8,0.8-1.8,1.2-2.8,1.2c-1.1,0-2.1-0.4-2.8-1.2c-0.1-0.1-0.2-0.2-0.3-0.3c0,0,0,0,0,0c-0.1-0.1-0.2-0.2-0.2-0.3c0,0,0,0,0,0
		c-0.1-0.1-0.1-0.2-0.2-0.3c0,0,0,0,0,0c-0.1-0.1-0.1-0.2-0.1-0.3c0,0,0-0.1,0-0.1c0-0.1-0.1-0.2-0.1-0.3c0,0,0-0.1,0-0.1
		c0-0.1,0-0.2-0.1-0.3c0,0,0-0.1,0-0.1c0-0.1,0-0.2,0-0.3c0,0,0-0.1,0-0.1c0-0.1,0-0.2,0-0.2c0,0,0-0.1,0-0.1c0-0.1,0-0.2,0-0.2
		c0-0.1,0-0.1,0-0.2c0-0.1,0-0.2,0-0.2c0-0.1,0-0.1,0-0.2c0-0.1,0-0.1,0.1-0.2c0-0.1,0-0.1,0.1-0.2c0-0.1,0-0.1,0.1-0.2
		c0-0.1,0-0.1,0.1-0.2c0-0.1,0.1-0.1,0.1-0.2c0-0.1,0.1-0.1,0.1-0.2c0-0.1,0.1-0.1,0.1-0.2c0-0.1,0.1-0.1,0.1-0.2
		c0-0.1,0.1-0.1,0.1-0.2c0-0.1,0.1-0.1,0.1-0.2c0,0,0.1-0.1,0.1-0.1c0,0,0,0,0,0l11.6-11.6l-2.4-2.4c-2.7-2.7-6.4-4.3-10.3-4.3
		c-3.9,0-7.5,1.5-10.3,4.3c-2.7,2.7-4.2,6.2-4.2,10c-0.1,4,1.4,7.7,4.2,10.5l7.3,7.3c0,0,0.1,0,0.1-0.1c0,0,0.1-0.1,0.1-0.1
		c0,0,0.1-0.1,0.1-0.1c0,0,0.1-0.1,0.1-0.1c0.1,0,0.1-0.1,0.2-0.1c0,0,0.1-0.1,0.1-0.1c0.1,0,0.1-0.1,0.2-0.1c0,0,0.1,0,0.1-0.1
		c0.1,0,0.1,0,0.2-0.1c0,0,0.1,0,0.1,0c0.1,0,0.1,0,0.2,0c0,0,0.1,0,0.1,0c0.1,0,0.1,0,0.2,0c0,0,0.1,0,0.1,0c0.1,0,0.2,0,0.3,0
		c0.9,0,1.8,0.4,2.5,1c0.7,0.7,1,1.5,1,2.5c0,0.1,0,0.2,0,0.4c0,0,0,0.1,0,0.1c0,0.1,0,0.1,0,0.2c0,0,0,0,0,0c0,0,0,0,0,0
		c0.1,0,0.1,0,0.2,0c0,0,0.1,0,0.1,0c0.1,0,0.2,0,0.4,0c0.9,0,1.8,0.4,2.5,1c0.1,0.1,0.2,0.2,0.2,0.3c0,0,0,0,0,0
		c0.5,0.6,0.8,1.4,0.8,2.2c0,0.2,0,0.5-0.1,0.7c0,0,0,0,0,0c0,0,0.1,0,0.1,0c0.2,0,0.4-0.1,0.6-0.1c0.9,0,1.8,0.4,2.4,1c0,0,0,0,0,0
		c0,0,0.1,0.1,0.1,0.1c0.5,0.6,0.9,1.3,0.9,2c0,0.1,0,0.2,0,0.3c0,0.1,0,0.2,0,0.4c0,0,0,0.1,0,0.1c0,0.1,0,0.1,0,0.2c0,0,0,0,0,0
		c0,0,0,0,0,0c0.1,0,0.2,0,0.2,0c0,0,0.1,0,0.1,0c0.1,0,0.2,0,0.4,0c0.9,0,1.8,0.4,2.5,1c0.7,0.7,1,1.5,1,2.5c0,0.1,0,0.2,0,0.3
		c0,0,0,0.1,0,0.1c0,0.1,0,0.1,0,0.2c0,0,0,0.1,0,0.1c0,0.1,0,0.1,0,0.2c0,0,0,0.1,0,0.1c0,0.1,0,0.1-0.1,0.2c0,0,0,0.1-0.1,0.1
		c0,0.1-0.1,0.1-0.1,0.2c0,0,0,0.1-0.1,0.1c0,0.1-0.1,0.1-0.1,0.2c0,0-0.1,0.1-0.1,0.1c0,0.1-0.1,0.1-0.1,0.2c0,0-0.1,0.1-0.1,0.1
		c0,0,0,0.1-0.1,0.1l0.9,0.9c0.4,0.4,1,0.7,1.7,0.7c0.6,0,1.2-0.2,1.7-0.7c0.4-0.4,0.7-1,0.7-1.7c0-0.6-0.2-1.2-0.7-1.7c0,0,0,0,0,0
		L38.2,58.5c-0.2-0.2-0.2-0.6,0-0.8c0.2-0.2,0.6-0.2,0.8,0l11.6,11.6c0,0,0,0,0,0c0.4,0.4,1,0.7,1.7,0.7c0.6,0,1.2-0.2,1.7-0.7
		c0.9-0.9,0.9-2.4,0-3.3v0L42.3,54.4c-0.2-0.2-0.2-0.6,0-0.8c0.2-0.2,0.6-0.2,0.8,0l11.6,11.6c0,0,0,0,0,0c0.4,0.4,1,0.7,1.7,0.7
		c0.6,0,1.2-0.2,1.7-0.7c0.4-0.4,0.7-1,0.7-1.7c0-0.6-0.2-1.2-0.7-1.7L46.4,50.3c-0.2-0.2-0.2-0.6,0-0.8c0.2-0.2,0.6-0.2,0.8,0
		L58.8,61c0.4,0.4,1,0.7,1.7,0.7c0.6,0,1.2-0.2,1.7-0.7c0.4-0.4,0.7-1,0.7-1.7c0-0.6-0.2-1.2-0.7-1.7L60.8,56.4z"/>
	<path id="XMLID_106_" class="st0" d="M68.5,27.4c-2.7-2.7-6.4-4.3-10.3-4.3c-3.9,0-7.5,1.5-10.3,4.3L33.1,42.2
		c-1,1.1-1.1,2.7-0.2,3.8c0.1,0.1,0.1,0.1,0.2,0.2c0.5,0.5,1.3,0.8,2,0.8c0.8,0,1.5-0.3,2-0.8l7.1-7.1c0,0,0,0,0,0
		c0.2-0.2,0.6-0.2,0.8,0c2.1,2.1,4.9,3.2,7.8,3.2c3,0,5.7-1.2,7.8-3.2c0.2-0.2,0.6-0.2,0.8,0c0.2,0.2,0.2,0.6,0,0.8
		c-2.3,2.3-5.4,3.6-8.7,3.6c-1.5,0-2.9-0.3-4.2-0.7l5.4,5.4c0,0,0.1,0.1,0.1,0.1l6.9,6.9l7.3-7.3c2.7-2.7,4.3-6.4,4.3-10.3
		C72.7,33.8,71.2,30.2,68.5,27.4"/>
</g>
</svg>
