<?xml version="1.0" encoding="utf-8"?>
<!-- Generator: Adobe Illustrator 19.0.0, SVG Export Plug-In . SVG Version: 6.00 Build 0)  -->
<svg version="1.1" id="Layer_1" xmlns="http://www.w3.org/2000/svg" xmlns:xlink="http://www.w3.org/1999/xlink" x="0px" y="0px"
	 viewBox="0 0 64.5 64.5" style="enable-background:new 0 0 64.5 64.5;" xml:space="preserve">
<style type="text/css">
	.st0{clip-path:url(#XMLID_63_);fill:#696661;}
	.st1{clip-path:url(#XMLID_63_);fill:#847F7B;}
	.st2{clip-path:url(#XMLID_63_);fill:#DFDFDE;}
</style>
<g id="XMLID_60_">
	<defs>
		<rect id="XMLID_61_" width="64.5" height="64.5"/>
	</defs>
	<clipPath id="XMLID_62_">
		<use xlink:href="#XMLID_61_"  style="overflow:visible;"/>
	</clipPath>
</g>
<g id="XMLID_54_">
	<defs>
		<path id="XMLID_55_" d="M0,32.3c0,17.8,14.4,32.3,32.3,32.3s32.3-14.4,32.3-32.3C64.5,14.4,50.1,0,32.3,0S0,14.4,0,32.3"/>
	</defs>
	<clipPath id="XMLID_63_">
		<use xlink:href="#XMLID_55_"  style="overflow:visible;"/>
	</clipPath>
	<path id="XMLID_59_" class="st0" d="M19.4,49.2L19.4,49.2c4,4,10.6,4,14.6,0L48.3,35c4-4,4-10.6,0-14.6c-1.1-1.1-2.8-1.1-3.9,0
		l-5.2,5.2c-1.1,1.1-1.1,2.8,0,3.9c1.6,1.6,1.6,4.2,0,5.7l-5,5c-1.6,1.6-4.2,1.6-5.7,0c-1.1-1.1-2.8-1.1-3.9,0l-5.2,5.2
		C18.4,46.4,18.4,48.1,19.4,49.2"/>
	<path id="XMLID_58_" class="st1" d="M48.3,20.3c-1.1-1.1-2.8-1.1-3.9,0l-5.2,5.2c-1.1,1.1-1.1,2.8,0,3.9c1.6,1.6,1.6,4.2,0,5.7
		l-5,5c-1.6,1.6-4.2,1.6-5.7,0c-1.1-1.1-2.8-1.1-3.9,0l-5.2,5.2c-0.7,0.7-0.9,1.7-0.7,2.6c10.5-1.6,20.7-6.4,28.8-14.5
		c1.3-1.3,2.6-2.7,3.7-4.1C51.7,26.1,50.7,22.8,48.3,20.3"/>
	<path id="XMLID_57_" class="st2" d="M22,38c-0.3-0.3-0.4-0.6-0.4-1c0-4.2,1.6-8.1,4.6-11.1c3-3,6.9-4.6,11.1-4.6
		c0.8,0,1.4,0.6,1.4,1.4s-0.6,1.4-1.4,1.4c-3.5,0-6.7,1.3-9.2,3.8c-2.4,2.4-3.8,5.7-3.8,9.2c0,0.8-0.6,1.4-1.4,1.4
		C22.6,38.5,22.2,38.3,22,38"/>
	<path id="XMLID_56_" class="st2" d="M16,37.4c-0.1-0.1-0.2-0.3-0.2-0.5c0-5.8,2.3-11.3,6.4-15.4c4.1-4.1,9.6-6.4,15.4-6.4
		c0.4,0,0.7,0.3,0.7,0.7c0,0.4-0.3,0.7-0.7,0.7c-5.5,0-10.6,2.1-14.5,6s-6,9-6,14.5c0,0.4-0.3,0.7-0.7,0.7
		C16.3,37.6,16.1,37.5,16,37.4"/>
</g>
</svg>
