<?xml version="1.0" encoding="utf-8"?>
<!-- Generator: Adobe Illustrator 19.0.0, SVG Export Plug-In . SVG Version: 6.00 Build 0)  -->
<svg version="1.1" id="Layer_1" xmlns="http://www.w3.org/2000/svg" xmlns:xlink="http://www.w3.org/1999/xlink" x="0px" y="0px"
	 viewBox="0 0 35.6 37.2" style="enable-background:new 0 0 35.6 37.2;" xml:space="preserve">
<style type="text/css">
	.st0{clip-path:url(#SVGID_2_);fill:#696661;}
	.st1{clip-path:url(#SVGID_2_);fill:#847F7B;}
	.st2{clip-path:url(#SVGID_2_);fill:#DFDFDE;}
</style>
<g>
	<defs>
		<rect id="SVGID_1_" width="35.6" height="37.2"/>
	</defs>
	<clipPath id="SVGID_2_">
		<use xlink:href="#SVGID_1_"  style="overflow:visible;"/>
	</clipPath>
	<path class="st0" d="M3.7,34.1L3.7,34.1c4,4,10.6,4,14.6,0l14.2-14.2c4-4,4-10.6,0-14.6c-1.1-1.1-2.8-1.1-3.9,0l-5.2,5.2
		c-1.1,1.1-1.1,2.8,0,3.9c1.6,1.6,1.6,4.2,0,5.7l-5,5c-1.6,1.6-4.2,1.6-5.7,0c-1.1-1.1-2.8-1.1-3.9,0l-5.2,5.2
		C2.6,31.3,2.6,33.1,3.7,34.1"/>
	<path class="st1" d="M32.5,5.3c-1.1-1.1-2.8-1.1-3.9,0l-5.2,5.2c-1.1,1.1-1.1,2.8,0,3.9c1.6,1.6,1.6,4.2,0,5.7l-5,5
		c-1.6,1.6-4.2,1.6-5.7,0c-1.1-1.1-2.8-1.1-3.9,0l-5.2,5.2C3,31,2.7,31.9,2.9,32.8c10.5-1.6,20.7-6.4,28.8-14.5
		c1.3-1.3,2.6-2.7,3.7-4.1C35.9,11,35,7.7,32.5,5.3"/>
	<path class="st2" d="M6.2,23c-0.3-0.3-0.4-0.6-0.4-1c0-4.2,1.6-8.1,4.6-11.1c3-3,6.9-4.6,11.1-4.6c0.8,0,1.4,0.6,1.4,1.4
		c0,0.8-0.6,1.4-1.4,1.4c-3.5,0-6.7,1.3-9.2,3.8S8.5,18.5,8.5,22c0,0.8-0.6,1.4-1.4,1.4C6.8,23.4,6.4,23.2,6.2,23"/>
	<path class="st2" d="M0.2,22.3C0.1,22.2,0,22,0,21.8C0,16,2.3,10.5,6.4,6.4C10.5,2.3,16,0,21.8,0c0.4,0,0.7,0.3,0.7,0.7
		c0,0.4-0.3,0.7-0.7,0.7c-5.5,0-10.6,2.1-14.5,6s-6,9-6,14.5c0,0.4-0.3,0.7-0.7,0.7C0.5,22.5,0.3,22.4,0.2,22.3"/>
</g>
</svg>
