<?xml version="1.0" encoding="utf-8"?>
<!-- Generator: Adobe Illustrator 19.0.0, SVG Export Plug-In . SVG Version: 6.00 Build 0)  -->
<svg version="1.1" id="Layer_1" xmlns="http://www.w3.org/2000/svg" xmlns:xlink="http://www.w3.org/1999/xlink" x="0px" y="0px"
	 viewBox="0 0 89 89" style="enable-background:new 0 0 89 89;" xml:space="preserve">
<style type="text/css">
	.st0{fill:#F9C426;}
	.st1{fill:#FFE374;}
	.st2{clip-path:url(#SVGID_4_);fill:#F9C426;}
	.st3{clip-path:url(#SVGID_4_);fill:#FFE374;}
</style>
<g>
	<defs>
		<rect id="SVGID_1_" width="89" height="89"/>
	</defs>
	<clipPath id="SVGID_2_">
		<use xlink:href="#SVGID_1_"  style="overflow:visible;"/>
	</clipPath>
</g>
<polygon class="st0" points="39.2,77.8 35.9,74.4 31.4,76 39.4,42 47.2,43.8 "/>
<polygon class="st1" points="39.4,42 31.4,76 35.9,74.4 43.3,42.9 "/>
<polygon class="st1" points="49.8,77.8 53.1,74.4 57.6,76 49.6,42 41.8,43.8 "/>
<polygon class="st0" points="49.6,42 57.6,76 53.1,74.4 45.7,42.9 "/>
<g>
	<defs>
		<rect id="SVGID_3_" width="89" height="89"/>
	</defs>
	<clipPath id="SVGID_4_">
		<use xlink:href="#SVGID_3_"  style="overflow:visible;"/>
	</clipPath>
	<path class="st2" d="M46.1,13L46.1,13c1-1.2,3-0.9,3.6,0.6c0.5,1.2,2,1.7,3.1,1c1.4-0.9,3.1,0.1,3.2,1.6c0.1,1.3,1.3,2.2,2.6,1.9
		c1.6-0.4,3,1,2.6,2.6c-0.3,1.3,0.6,2.5,1.9,2.6c1.6,0.1,2.5,1.9,1.6,3.2c-0.7,1.1-0.2,2.6,1,3.1c1.5,0.6,1.8,2.6,0.6,3.6
		c-1,0.8-1,2.4,0,3.2c1.2,1,0.9,3-0.6,3.6c-1.2,0.5-1.7,2-1,3.1c0.9,1.4-0.1,3.1-1.6,3.2c-1.3,0.1-2.2,1.3-1.9,2.6
		c0.4,1.5-1,3-2.6,2.6c-1.3-0.3-2.5,0.6-2.6,1.9c-0.1,1.6-1.9,2.5-3.2,1.6c-1.1-0.7-2.6-0.2-3.1,1c-0.6,1.5-2.6,1.8-3.6,0.6
		c-0.8-1-2.4-1-3.2,0c-1,1.2-3,0.9-3.6-0.6c-0.5-1.2-2-1.7-3.1-1c-1.4,0.9-3.1-0.1-3.2-1.6c-0.1-1.3-1.3-2.2-2.6-1.9
		c-1.5,0.4-3-1-2.6-2.6c0.3-1.3-0.6-2.5-1.9-2.6c-1.6-0.1-2.5-1.9-1.6-3.2c0.7-1.1,0.2-2.6-1-3.1c-1.5-0.6-1.8-2.6-0.6-3.6
		c1-0.8,1-2.4,0-3.2c-1.2-1-0.9-3,0.6-3.6c1.2-0.5,1.7-2,1-3.1c-0.9-1.4,0.1-3.1,1.6-3.2c1.3-0.1,2.2-1.3,1.9-2.6
		c-0.4-1.6,1-3,2.6-2.6c1.3,0.3,2.5-0.6,2.6-1.9c0.1-1.6,1.9-2.5,3.2-1.6c1.1,0.7,2.6,0.2,3.1-1c0.6-1.5,2.6-1.8,3.6-0.6
		C43.7,14,45.3,14,46.1,13"/>
	<path class="st3" d="M59.3,34.8c0-8.2-6.6-14.8-14.8-14.8c-8.2,0-14.8,6.6-14.8,14.8s6.6,14.8,14.8,14.8
		C52.7,49.6,59.3,43,59.3,34.8"/>
</g>
</svg>
