<?xml version="1.0" encoding="utf-8"?>
<!-- Generator: Adobe Illustrator 19.0.0, SVG Export Plug-In . SVG Version: 6.00 Build 0)  -->
<svg version="1.1" id="Layer_1" xmlns="http://www.w3.org/2000/svg" xmlns:xlink="http://www.w3.org/1999/xlink" x="0px" y="0px"
	 viewBox="339.8 174.7 392.3 448.4" style="enable-background:new 339.8 174.7 392.3 448.4;" xml:space="preserve">
<style type="text/css">
	.st0{fill:#FFFFFF;}
	.st1{fill:#727171;}
	.st2{fill:#727272;}
	.st3{fill:#7FB9E6;}
</style>
<g>
	<g>
		<path class="st0" d="M619.7,592.4l-0.5-60.9l-7.9-35.7l-8.9,29.3v-35.7l-1.5-15.5l-2.7,13l-8.5-38.7l-7.9,35.7l-45.5-309.3
			l-43.6,310.5l-5.6-37.5l-6.4,37.7l-3.8-8.7l-0.6,20.6l-0.7,28.3l-7.7-28.1l-8.4,34.2l-0.3,60.6c20.8,9.6,33.1,18.2,82.2,18.9
			C574.4,611.3,598.2,603,619.7,592.4"/>
	</g>
	<polygon class="st1" points="403.4,465.1 407.2,465.1 407.2,491.2 403.4,491.2 403.4,479.8 388.2,479.8 388.2,491.2 384.4,491.2 
		384.4,465.1 388.2,465.1 388.2,476.4 403.4,476.4 	"/>
	<g>
		<path class="st1" d="M440.4,468.2c-3.1,0-5.6,0.9-7.6,2.8s-3,4.3-3,7.2c0,2.8,1,5.2,3,7c2,1.9,4.5,2.8,7.5,2.8s5.5-1,7.5-2.9
			s3-4.3,3-7.1c0-2.8-1-5.1-3-7C445.8,469.2,443.4,468.2,440.4,468.2 M440.3,464.7c4.2,0,7.6,1.3,10.4,3.8c2.8,2.6,4.2,5.8,4.2,9.6
			s-1.4,7-4.2,9.6c-2.8,2.5-6.3,3.8-10.6,3.8c-4.1,0-7.4-1.3-10.1-3.8s-4.1-5.7-4.1-9.5c0-3.9,1.4-7.1,4.1-9.7
			C432.7,466,436.1,464.7,440.3,464.7"/>
	</g>
	<polygon class="st1" points="494.9,465.1 498.5,465.1 498.5,491.2 494.7,491.2 494.7,470.9 486.4,481 485.7,481 477.3,470.9 
		477.3,491.2 473.4,491.2 473.4,465.1 477.1,465.1 486,475.8 	"/>
	<polygon class="st1" points="518.3,465.1 533.5,465.1 533.5,468.4 522.1,468.4 522.1,476.4 533.1,476.4 533.1,479.7 522.1,479.7 
		522.1,487.8 533.9,487.8 533.9,491.1 518.3,491.1 	"/>
	<g>
		<path class="st1" d="M575.1,485.1v4.1c-2.8,1.5-6.1,2.2-9.8,2.2c-3,0-5.6-0.6-7.7-1.8c-2.1-1.2-3.8-2.8-5-4.8
			c-1.2-2.1-1.8-4.3-1.8-6.7c0-3.8,1.4-7,4.2-9.6c2.8-2.6,6.2-3.9,10.3-3.9c2.8,0,6,0.7,9.4,2.2v4c-3.1-1.7-6.2-2.6-9.2-2.6
			c-3.1,0-5.6,0.9-7.7,2.8c-2.1,1.9-3.1,4.3-3.1,7.1c0,2.9,1,5.2,3,7.1c2,1.8,4.6,2.8,7.7,2.8C568.8,488,572,487.1,575.1,485.1"/>
	</g>
	<path class="st1" d="M609,480.1l-4.3-9.5l-4,9.5H609z M603.4,464.9h2.7l12.1,26.3h-4l-3.6-7.7h-11.5l-3.4,7.7h-4L603.4,464.9z"/>
	<g>
		<path class="st1" d="M640.2,468.2H639v8.2h1.5c2,0,3.3-0.2,4-0.5s1.3-0.8,1.7-1.5s0.6-1.4,0.6-2.2c0-0.8-0.2-1.6-0.7-2.2
			c-0.5-0.7-1.1-1.1-1.9-1.4C643.4,468.4,642,468.2,640.2,468.2 M635.1,491.2v-26.1h6.8c2.7,0,4.9,0.7,6.5,2s2.4,3.1,2.4,5.3
			c0,1.5-0.4,2.8-1.2,3.9s-1.9,1.9-3.4,2.5c0.9,0.5,1.7,1.3,2.5,2.2c0.8,0.9,2,2.6,3.5,5c0.9,1.5,1.7,2.6,2.3,3.3l1.4,1.9h-4.6
			l-1.2-1.7c0-0.1-0.1-0.2-0.2-0.3l-0.8-1l-1.2-1.9l-1.3-2c-0.8-1.1-1.5-1.9-2.2-2.6c-0.7-0.6-1.3-1.1-1.8-1.4s-1.4-0.4-2.7-0.4h-1
			v11.4L635.1,491.2L635.1,491.2z"/>
	</g>
	<polygon class="st1" points="672.8,465.1 688.1,465.1 688.1,468.4 676.7,468.4 676.7,476.4 687.7,476.4 687.7,479.7 676.7,479.7 
		676.7,487.8 688.4,487.8 688.4,491.1 672.8,491.1 	"/>
	<path class="st2" d="M681.3,293.2c-32.5-36.3-76.5-59-123.8-63.8l-3.7-0.4l2.1,13.3l2.2,0.2c43.6,4.5,84.1,25.5,113.9,59.1
		c30.1,34,46.7,78,46.7,124c0,101.4-82,183.9-182.8,183.9s-182.7-82.4-182.7-183.8c0-46.3,16.7-90.6,47-124.7
		c30.1-33.9,71.2-55,115.5-59.3l2.1-0.2l2.5-12.6l-3.9,0.4c-48.1,4.9-92.6,27.5-125.4,63.7c-33,36.5-51.2,83.6-51.2,132.8
		c0,108.8,88,197.3,196.1,197.3c108.2,0,196.2-88.5,196.2-197.3C732.1,376.8,714.1,329.8,681.3,293.2z"/>
	<rect x="528.7" y="364.2" class="st3" width="16.1" height="88.5"/>
	<g>
		<path class="st3" d="M587,405.1c4.2,0,7.1-0.8,9.8-2.3c3.8-2.1,6.2-6.2,6.2-11.7c0-4.7-2-8.9-5.9-11.2c-2.1-1.5-5.1-2.6-9.9-2.6
			h-7.4V405h7.2V405.1z M563.6,364.2h24.2c8.3,0,14.2,1.3,18.9,3.6c9.4,4.4,13.2,12.6,13.2,21.6c0,11.8-7.1,19.6-17.3,22.8v0.3
			c2.7,1.5,6.3,6.3,11,14.4l14.8,25.8h-18.5L597,430.3c-4.3-7.9-7.5-11.6-9.7-12.1h-7.7v34.5h-16.1v-88.5H563.6z"/>
	</g>
	<polygon class="st3" points="640,364.2 688.9,364.2 684.5,377.9 656.2,377.9 656.2,401.1 684.5,401.1 684.5,414.8 656.2,414.8 
		656.2,439.1 689.1,439.1 689.1,452.8 640,452.8 	"/>
	<path class="st3" d="M391.2,434.1c5.2,3.6,12,6.5,20,6.5c7.4,0,14.8-2.8,14.8-10.5c0-17.3-38.3-15.2-38.3-42.2
		c0-13,10.3-24.5,28.8-24.5c9.1,0,16.8,2,21.6,4.4v14.8c-7-3.6-14.1-5.6-21.1-5.6c-6.2,0-12.1,2.4-12.1,9.5
		c0,16.3,38.3,14.1,38.3,42.2c0,15.7-13.4,25.4-31.6,25.4c-10.3,0-20-3-26.7-7.7L391.2,434.1z"/>
	<path class="st3" d="M479.1,409.1c4.3,0,7.8-0.7,10.3-2c5-2.4,7.4-7.3,7.4-13.8c0-5.8-2.3-10.8-7-13.6c-2.6-1.5-6.2-2.3-11-2.3
		h-4.6v31.7L479.1,409.1L479.1,409.1z M458.1,364.2h21.4c8.2,0,14.6,1.2,19.9,3.8c9.1,4.6,14.4,13.2,14.4,25.3
		c0,10.2-4.4,20.8-16.9,25.9c-4.8,1.9-10.9,3.1-18.8,3.1h-3.8v30.5h-16.1L458.1,364.2L458.1,364.2z"/>
</g>
</svg>
