<?xml version="1.0" encoding="utf-8"?>
<!-- Generator: Adobe Illustrator 19.0.0, SVG Export Plug-In . SVG Version: 6.00 Build 0)  -->
<svg version="1.1" id="Layer_1" xmlns="http://www.w3.org/2000/svg" xmlns:xlink="http://www.w3.org/1999/xlink" x="0px" y="0px"
	 viewBox="0 0 523.8 679.4" style="enable-background:new 0 0 523.8 679.4;" xml:space="preserve">
<style type="text/css">
	.st0{fill:#9DDCF9;}
	.st1{clip-path:url(#SVGID_2_);fill:url(#SVGID_3_);}
	.st2{clip-path:url(#SVGID_5_);fill:url(#SVGID_6_);}
	.st3{clip-path:url(#SVGID_8_);fill:url(#SVGID_9_);}
	.st4{clip-path:url(#SVGID_11_);fill:url(#SVGID_12_);}
	.st5{clip-path:url(#SVGID_14_);fill:url(#SVGID_15_);}
	.st6{clip-path:url(#SVGID_17_);fill:url(#SVGID_18_);}
	.st7{clip-path:url(#SVGID_20_);fill:url(#SVGID_21_);}
</style>
<rect x="-0.5" class="st0" width="524.3" height="679.4"/>
<g>
	<defs>
		<path id="SVGID_1_" d="M457,168c-65.9,35.3-177.1,87-332.9,130.3c155.9-43.3,267.4-94.1,333.4-129.4c27.7-14.8,49.9-28.2,66.8-39
			v-1.2C507.4,139.5,485,153,457,168"/>
	</defs>
	<clipPath id="SVGID_2_">
		<use xlink:href="#SVGID_1_"  style="overflow:visible;"/>
	</clipPath>
	
		<linearGradient id="SVGID_3_" gradientUnits="userSpaceOnUse" x1="-36" y1="751.1313" x2="-35" y2="751.1313" gradientTransform="matrix(-279.7864 119.3355 119.3355 279.7864 -99185.6875 -205731.6719)">
		<stop  offset="0" style="stop-color:#C5E8F3"/>
		<stop  offset="0.1161" style="stop-color:#BFE6F4"/>
		<stop  offset="0.6522" style="stop-color:#A6DFF7"/>
		<stop  offset="1" style="stop-color:#9DDCF9"/>
	</linearGradient>
	<polygon class="st1" points="585.5,272.1 185.8,442.6 63,154.7 462.7,-15.8 	"/>
</g>
<g>
	<defs>
		<path id="SVGID_4_" d="M446.5,146.1c-55.1,38.6-146.7,91.7-271.2,123.3c124.7-31.6,216.7-83.9,271.8-122.5
			c37-25.9,62.8-49.2,77.2-63.2v-1.4C510.1,96.2,484.1,119.7,446.5,146.1"/>
	</defs>
	<clipPath id="SVGID_5_">
		<use xlink:href="#SVGID_4_"  style="overflow:visible;"/>
	</clipPath>
	
		<linearGradient id="SVGID_6_" gradientUnits="userSpaceOnUse" x1="-36" y1="751.1398" x2="-35" y2="751.1398" gradientTransform="matrix(-279.7555 119.3224 119.3224 279.7555 -99185.375 -205733.9063)">
		<stop  offset="0" style="stop-color:#C5E8F3"/>
		<stop  offset="0.1161" style="stop-color:#BFE6F4"/>
		<stop  offset="0.6522" style="stop-color:#A6DFF7"/>
		<stop  offset="1" style="stop-color:#9DDCF9"/>
	</linearGradient>
	<polygon class="st2" points="591.9,240.6 229,395.4 107.7,111.1 470.6,-43.7 	"/>
</g>
<g>
	<defs>
		<path id="SVGID_7_" d="M389.9,271.8c0-0.5,0-1,0.1-1.6C389.8,270.7,389.8,271.2,389.9,271.8"/>
	</defs>
	<clipPath id="SVGID_8_">
		<use xlink:href="#SVGID_7_"  style="overflow:visible;"/>
	</clipPath>
	
		<linearGradient id="SVGID_9_" gradientUnits="userSpaceOnUse" x1="-36" y1="751.1763" x2="-35" y2="751.1763" gradientTransform="matrix(0 0.8976 -0.8976 0 1064.1139 302.7328)">
		<stop  offset="0" style="stop-color:#C5E8F3"/>
		<stop  offset="0.1161" style="stop-color:#BFE6F4"/>
		<stop  offset="0.6522" style="stop-color:#A6DFF7"/>
		<stop  offset="1" style="stop-color:#9DDCF9"/>
	</linearGradient>
	<rect x="389.8" y="270.2" class="st3" width="0.1" height="1.6"/>
</g>
<g>
	<defs>
		<path id="SVGID_10_" d="M389.2,272.6c0,0.5,0,1-0.1,1.5C389.1,273.5,389.1,273,389.2,272.6 M-0.5,170.8v474.5h524.3V294.2
			c-5.1-3.2-9.9-4.8-11.6,0.9c-3.1-8.7-11.2-15.4-20.2-18.7c-3.8-1.4-9.3-2.7-10.8,0.6c0,1.2,0,2.5-0.1,3.9c-0.4-1.7-0.3-3,0.1-3.9
			c-0.2-10.4-5.2-15.8-18.2-17.3c-16.1-1.9-48.4-4.3-53.2,15.8c-4.4-5.9-12.2-6.2-19.6-5.6c-0.3,1.1-0.8,1.8-1,2.8
			c0.2-7.8-0.5-15.6-6-22c-0.9-1-6.4-4.5-7-5.6c-1.4-2.5,0.3-9.2,0-11.8c-1.5-12.4-3.4-27-16.8-31.1c-4.9-1.5-13.7-3.6-17.4,3.1
			c7.2-43.1-91.4-39.3-86.8,0.3c-15.4,3.7-21.3,9.5-23.6,23.7c-8.9-11.8-29.6-10.7-41.3-3.8c-4.5,2.6-10,13.1-15,12.3
			c-0.7-5.4-3.2-12.4-2.3-17.7c0.9-5.2,3.8-8.5,3.1-14.5c-1.7-14.1-31.1-35.1-39.9-15.3c-9.6-13.3-31.7,1.2-36.1,12.3
			c-1.4-5.2-6.8-11-12.9-10.2c0.1-7.9-3.1-11.4-6-18.3c-2.9-7-3-14.1-9-20.2c-5.7-5.8-14.9-8.4-25-8.4C27.3,145.5,4,155.7-0.5,170.8
			"/>
	</defs>
	<clipPath id="SVGID_11_">
		<use xlink:href="#SVGID_10_"  style="overflow:visible;"/>
	</clipPath>
	
		<linearGradient id="SVGID_12_" gradientUnits="userSpaceOnUse" x1="-36.0698" y1="751.1594" x2="-35.0698" y2="751.1594" gradientTransform="matrix(0 286.6956 -286.6956 0 215615.7344 10541.2041)">
		<stop  offset="0" style="stop-color:#C5E8F3"/>
		<stop  offset="0.1161" style="stop-color:#BFE6F4"/>
		<stop  offset="0.6522" style="stop-color:#A6DFF7"/>
		<stop  offset="1" style="stop-color:#9DDCF9"/>
	</linearGradient>
	<rect x="-0.5" y="145.5" class="st4" width="524.3" height="499.8"/>
</g>
<g>
	<defs>
		<path id="SVGID_13_" d="M481.9,279c0.1-1.4,0.1-2.8,0.1-4.1C481.6,275.8,481.5,277.2,481.9,279"/>
	</defs>
	<clipPath id="SVGID_14_">
		<use xlink:href="#SVGID_13_"  style="overflow:visible;"/>
	</clipPath>
	
		<linearGradient id="SVGID_15_" gradientUnits="userSpaceOnUse" x1="-36" y1="751.1807" x2="-35" y2="751.1807" gradientTransform="matrix(0 2.3467 -2.3467 0 2244.5422 359.7983)">
		<stop  offset="0" style="stop-color:#C5E8F3"/>
		<stop  offset="0.1161" style="stop-color:#BFE6F4"/>
		<stop  offset="0.6522" style="stop-color:#A6DFF7"/>
		<stop  offset="1" style="stop-color:#9DDCF9"/>
	</linearGradient>
	<rect x="481.5" y="274.9" class="st5" width="0.5" height="4.1"/>
</g>
<g>
	<defs>
		<path id="SVGID_16_" d="M547.1,452.1c-3.3,0.2-5.4,2.4-8.1,2.8c-1.5,0.2-2.9-0.1-4.3-0.4c-1.8-0.4-3.6-0.7-6,0
			c-6.9,2.1-12.6,8.3-13.9,15.3c-0.6,3,0.5,5.8-1,8.2c-4.1,6.5-12,6.4-11,15.4c-6.7,1.7-7.3-3.1-13.7-5.1
			c-7.7-2.4-21.1,3.2-21.7,12.3c-6,1.4-19.1,8.7-15.4,16.3c-8.2,0.5-21.2,3.3-19,14.9c-5.9,1.2-11.8,6.2-14.1,11.7
			c-2.2-7-1.9-18.6-7.2-24.1c-4-4.1-5-2.7-11-3.2c-4.3-15.5-20.1-24.5-36.9-13.1c-1.7-4.5-5-4.9-9.3-4.1
			c-12.3,2.4-13.5,15.7-18.1,23.9c-0.9,1.6-2.5,2-3.6,3.6c-4.7,6.6-6.6,5.4-8.6,13.5c-3.2,13-1.8,19.5,5,30.2
			c-6,0.8-17.3,6.8-19.4,13.1c-2.3-4.7-5.3-10.3-11.3-9.6c-5.7,0.6-14.5,8.7-16.2,14c-6.1,0.6-14.4,8.8-16,14.7
			c-1.9,6.9,3.9,10.8,5.2,17.1c1.5,7.4-2.2,13.4,5.6,18.5c3.1,2,3.5,1.6,6.9,2.1c4.5,0.6,9.5,0.1,14.1,0c22.5-0.2,44.6-1.3,67.1,0.9
			c21.2,2.1,42.8,5.7,64.2,5.8c6.3,0,12.6-0.4,18.8-0.7c10.3-0.6,20.6-1.3,31.1-0.1c26.8,3.1,53.4,1,80.1-1.1v-188
			c-2.6-3.1-6.6-4.8-11.1-4.8C547.9,452,547.5,452,547.1,452.1"/>
	</defs>
	<clipPath id="SVGID_17_">
		<use xlink:href="#SVGID_16_"  style="overflow:visible;"/>
	</clipPath>
	
		<linearGradient id="SVGID_18_" gradientUnits="userSpaceOnUse" x1="-36" y1="751.459" x2="-35" y2="751.459" gradientTransform="matrix(0 143.5988 -143.5988 0 108320.4219 5662.7256)">
		<stop  offset="0" style="stop-color:#FFFDE7"/>
		<stop  offset="0.2019" style="stop-color:#E4F3EB"/>
		<stop  offset="0.5418" style="stop-color:#BFE6F1"/>
		<stop  offset="0.82" style="stop-color:#A6DFF6"/>
		<stop  offset="1" style="stop-color:#9DDCF9"/>
	</linearGradient>
	<rect x="264.3" y="452" class="st6" width="294.9" height="197"/>
</g>
<g>
	<defs>
		<path id="SVGID_19_" d="M49.7,407.9l-0.7,2.9c-6.7-4.8-15.5-8.4-23.9-5.7c-7.9,2.6-14.3,7.8-21.8,7.9c-1.6,0-2.8-0.1-3.8-0.2v99.9
			c1.7,0,3.5,0.1,4.7,0.5c3.4,1.1,9.1,3.2,12.1,5c2.1,1.3,2.3,2.8,4,4c6.7,4.7,15.4,7.3,23.5,7.3c8.6,0,11.2-4.6,18.5-7.4
			c12.5-4.9,32.6,2.1,45,4.6c4.2,0.9,16.1,5.9,20.2,3.6c2.6-1.4,3.4-6,4.8-8.3c2.7-4.6,6.1-8,10.5-11c6.7-4.5,13.8-2.6,21.4-0.6
			c4.7,1.2,9.6,2.5,14.6,2.1c12.6-1,19.4-4.4,33.2-5.9c17.5-1.9,40.9-22.7,57.6-16.9c9.3,3.2,19.1,10.8,28.8,11.8
			c7.6-11.8,25.6-14.1,37.4-19.2c3.1-1.3,4.8,0.2,5.2-3.7c0.7-5.9-11.6-11.2-16.4-11.1c-7.2,0.2-11.5,6.1-16.7,9.5
			c-0.1-7.3-0.5-17.1-3.3-23.9c-4.8-11.6-31.6-22.9-41.2-12.9c-5.6-3.7-39.2-17.5-37.5-1c-4.3-11.4-31.4-11.5-34.6-0.7
			c0.6-6-1.3-11.4-5.1-16.1c-3.2-3.9-3.7-5.1-5.9-8.9c-3-5.3-19.7-16.4-22.2-5.1c-2.8-17.9-27-7.3-25.8,6.9c-5,1.2-8.6,4.1-12.4,7.7
			c-3.4-3.9-5.4-11.5-11.8-11.5c-1.7-11.5-7.8-23.9-20.2-24.6c-1.1-0.1-2.2-0.1-3.4-0.1C70.4,386.9,48,391.1,49.7,407.9"/>
	</defs>
	<clipPath id="SVGID_20_">
		<use xlink:href="#SVGID_19_"  style="overflow:visible;"/>
	</clipPath>
	
		<linearGradient id="SVGID_21_" gradientUnits="userSpaceOnUse" x1="-36" y1="751.1614" x2="-35" y2="751.1614" gradientTransform="matrix(0 82.5692 -82.5692 0 62193.3477 3375.24)">
		<stop  offset="0" style="stop-color:#C5E8F3"/>
		<stop  offset="0.1161" style="stop-color:#BFE6F4"/>
		<stop  offset="0.6522" style="stop-color:#A6DFF7"/>
		<stop  offset="1" style="stop-color:#9DDCF9"/>
	</linearGradient>
	<rect x="-0.5" y="386.9" class="st7" width="342.1" height="145.8"/>
</g>
</svg>
