<?xml version="1.0" encoding="utf-8"?>
<!-- Generator: Adobe Illustrator 19.0.0, SVG Export Plug-In . SVG Version: 6.00 Build 0)  -->
<svg version="1.1" id="Layer_1" xmlns="http://www.w3.org/2000/svg" xmlns:xlink="http://www.w3.org/1999/xlink" x="0px" y="0px"
	 viewBox="-58 76.5 493.1 641.5" style="enable-background:new -58 76.5 493.1 641.5;" xml:space="preserve">
<style type="text/css">
	.st0{fill:#A0DDF9;}
	.st1{clip-path:url(#SVGID_2_);fill:url(#SVGID_3_);}
	.st2{clip-path:url(#SVGID_5_);fill:url(#SVGID_6_);}
	.st3{clip-path:url(#SVGID_8_);fill:url(#SVGID_9_);}
</style>
<rect x="-58.7" y="77.2" class="st0" width="494.5" height="640.7"/>
<g>
	<g>
		<g>
			<defs>
				<path id="SVGID_1_" d="M308.8,366.5c0,0.5,0,0.9-0.1,1.4C308.7,367.3,308.7,366.9,308.8,366.5 M-58.7,270.5V718h494.5V386.8
					c-4.8-3-9.3-4.5-10.9,0.8c-2.9-8.2-10.6-14.5-19.1-17.6c-3.6-1.3-8.8-2.5-10.2,0.6c0,1.1,0,2.4-0.1,3.7
					c-0.4-1.6-0.3-2.8,0.1-3.7c-0.2-9.8-4.9-14.9-17.2-16.3c-15.2-1.8-45.6-4.1-50.2,14.9c-4.1-5.6-11.5-5.8-18.5-5.3
					c-0.3,1-0.8,1.7-0.9,2.6c0.2-7.4-0.5-14.7-5.7-20.7c-0.8-0.9-6-4.2-6.6-5.3c-1.3-2.4,0.3-8.7,0-11.1
					c-1.4-11.7-3.2-25.5-15.8-29.3c-4.6-1.4-12.9-3.4-16.4,2.9c6.8-40.6-86.2-37.1-81.9,0.3c-14.5,3.5-20.1,9-22.3,22.4
					c-8.4-11.1-27.9-10.1-38.9-3.6c-4.2,2.5-9.4,12.4-14.1,11.6c-0.7-5.1-3-11.7-2.2-16.7c0.8-4.9,3.6-8,2.9-13.7
					c-1.6-13.3-29.3-33.1-37.6-14.4c-9.1-12.5-29.9,1.1-34,11.6c-1.3-4.9-6.4-10.4-12.2-9.6c0.1-7.5-2.9-10.8-5.7-17.3
					c-2.7-6.6-2.8-13.3-8.5-19.1c-5.4-5.5-14.1-7.9-23.6-7.9C-32.5,246.6-54.5,256.2-58.7,270.5"/>
			</defs>
			<clipPath id="SVGID_2_">
				<use xlink:href="#SVGID_1_"  style="overflow:visible;"/>
			</clipPath>
			
				<linearGradient id="SVGID_3_" gradientUnits="userSpaceOnUse" x1="-219.9664" y1="827.6733" x2="-219.0234" y2="827.6733" gradientTransform="matrix(0 286.6956 -286.6956 0 237478.8281 63361.5703)">
				<stop  offset="0" style="stop-color:#C5E8F3"/>
				<stop  offset="0.1161" style="stop-color:#BFE7F4"/>
				<stop  offset="0.6522" style="stop-color:#A8DFF7"/>
				<stop  offset="1" style="stop-color:#A0DDF9"/>
			</linearGradient>
			<rect x="-58.7" y="246.6" class="st1" width="494.5" height="471.4"/>
		</g>
	</g>
</g>
<g>
	<g>
		<g>
			<defs>
				<path id="SVGID_4_" d="M372.1,235.7c-62.1,33.3-167,82-314,122.9c147-40.8,252.2-88.7,314.4-122c26.1-14,47.1-26.6,63-36.8v-1.1
					C419.6,208.8,398.5,221.5,372.1,235.7"/>
			</defs>
			<clipPath id="SVGID_5_">
				<use xlink:href="#SVGID_4_"  style="overflow:visible;"/>
			</clipPath>
			
				<linearGradient id="SVGID_6_" gradientUnits="userSpaceOnUse" x1="-220.5961" y1="828.5859" x2="-219.653" y2="828.5859" gradientTransform="matrix(-279.7864 119.3355 119.3355 279.7864 -160164.9531 -205303.7031)">
				<stop  offset="0" style="stop-color:#C5E8F3"/>
				<stop  offset="0.1161" style="stop-color:#BFE7F4"/>
				<stop  offset="0.6522" style="stop-color:#A8DFF7"/>
				<stop  offset="1" style="stop-color:#A0DDF9"/>
			</linearGradient>
			<polygon class="st2" points="493.3,333.8 116.3,494.6 0.5,223.1 377.5,62.3 			"/>
		</g>
	</g>
</g>
<g>
	<g>
		<g>
			<defs>
				<path id="SVGID_7_" d="M362.2,215c-52,36.4-138.3,86.5-255.8,116.3c117.6-29.8,204.4-79.1,256.4-115.5
					c34.9-24.4,59.2-46.4,72.8-59.6v-1.3C422.2,168,397.7,190.1,362.2,215"/>
			</defs>
			<clipPath id="SVGID_8_">
				<use xlink:href="#SVGID_7_"  style="overflow:visible;"/>
			</clipPath>
			
				<linearGradient id="SVGID_9_" gradientUnits="userSpaceOnUse" x1="-220.5961" y1="828.5992" x2="-219.653" y2="828.5992" gradientTransform="matrix(-279.7555 119.3224 119.3224 279.7555 -160157.9375 -205305.9844)">
				<stop  offset="0" style="stop-color:#C5E8F3"/>
				<stop  offset="0.1161" style="stop-color:#BFE7F4"/>
				<stop  offset="0.6522" style="stop-color:#A8DFF7"/>
				<stop  offset="1" style="stop-color:#A0DDF9"/>
			</linearGradient>
			<polygon class="st3" points="499.3,304.1 157.1,450.1 42.7,182 384.9,36 			"/>
		</g>
	</g>
</g>
</svg>
