<?xml version="1.0" encoding="utf-8"?>
<!-- Generator: Adobe Illustrator 19.0.0, SVG Export Plug-In . SVG Version: 6.00 Build 0)  -->
<svg version="1.1" id="Layer_1" xmlns="http://www.w3.org/2000/svg" xmlns:xlink="http://www.w3.org/1999/xlink" x="0px" y="0px"
	 viewBox="0 0 493.1 691.7" style="enable-background:new 0 0 493.1 691.7;" xml:space="preserve">
<style type="text/css">
	.st0{fill:#A0DDF9;}
	.st1{clip-path:url(#SVGID_2_);fill:url(#SVGID_3_);}
	.st2{fill:#AFC2DE;}
	.st3{fill:#B8D3E5;}
	.st4{fill:#B6DEBF;}
	.st5{fill:#A0B8D8;}
	.st6{fill:#CCDBD7;}
	.st7{fill:#859FA6;}
	.st8{fill:#87A8CF;}
	.st9{fill:#668A91;}
	.st10{fill:#C1E1BB;}
	.st11{fill:#8EA593;}
	.st12{fill:#FFFAC0;}
	.st13{fill:#708F77;}
	.st14{fill:#A0D39E;}
	.st15{fill:#537B60;}
	.st16{fill:#65876E;}
	.st17{fill:#73917B;}
	.st18{fill:#A1C46A;}
	.st19{fill:#D8D981;}
	.st20{fill:#B6CAA7;}
	.st21{fill:#C0D083;}
	.st22{fill:#66886F;}
	.st23{fill:#46893D;}
	.st24{fill:#485F45;}
	.st25{fill:#3A7761;}
	.st26{fill:#3F6B49;}
	.st27{fill:#73B276;}
	.st28{fill:#3A5D3E;}
	.st29{fill:#546C50;}
	.st30{fill:#668870;}
	.st31{fill:#478A69;}
	.st32{fill:url(#SVGID_4_);}
	.st33{fill:#658060;}
	.st34{fill:#A4D38C;}
	.st35{fill:#90CA73;}
	.st36{fill:url(#SVGID_5_);}
	.st37{fill:url(#SVGID_6_);}
	.st38{fill:url(#SVGID_7_);}
	.st39{fill:#4D6A26;}
	.st40{clip-path:url(#SVGID_9_);fill:url(#SVGID_10_);}
	.st41{clip-path:url(#SVGID_12_);fill:url(#SVGID_13_);}
</style>
<rect x="-1.7" y="0.7" class="st0" width="494.5" height="640.7"/>
<g>
	<g>
		<defs>
			<path id="SVGID_1_" d="M365.8,276.7c0,0.5,0,0.9-0.1,1.4C365.7,277.5,365.7,277.1,365.8,276.7 M-1.7,180.7v447.5h494.5V297
				c-4.8-3-9.3-4.5-10.9,0.8c-2.9-8.2-10.6-14.5-19.1-17.6c-3.6-1.3-8.8-2.5-10.2,0.6c0,1.1,0,2.4-0.1,3.7c-0.4-1.6-0.3-2.8,0.1-3.7
				c-0.2-9.8-4.9-14.9-17.2-16.3c-15.2-1.8-45.6-4.1-50.2,14.9c-4.1-5.6-11.5-5.8-18.5-5.3c-0.3,1-0.8,1.7-0.9,2.6
				c0.2-7.4-0.5-14.7-5.7-20.7c-0.8-0.9-6-4.2-6.6-5.3c-1.3-2.4,0.3-8.7,0-11.1c-1.4-11.7-3.2-25.5-15.8-29.3
				c-4.6-1.4-12.9-3.4-16.4,2.9c6.8-40.6-86.2-37.1-81.9,0.3c-14.5,3.5-20.1,9-22.3,22.4c-8.4-11.1-27.9-10.1-38.9-3.6
				c-4.2,2.5-9.4,12.4-14.1,11.6c-0.7-5.1-3-11.7-2.2-16.7c0.8-4.9,3.6-8,2.9-13.7c-1.6-13.3-29.3-33.1-37.6-14.4
				c-9.1-12.5-29.9,1.1-34,11.6c-1.3-4.9-6.4-10.4-12.2-9.6c0.1-7.5-2.9-10.8-5.7-17.3c-2.7-6.6-2.8-13.3-8.5-19.1
				c-5.4-5.5-14.1-7.9-23.6-7.9C24.5,156.8,2.5,166.4-1.7,180.7"/>
		</defs>
		<clipPath id="SVGID_2_">
			<use xlink:href="#SVGID_1_"  style="overflow:visible;"/>
		</clipPath>
		
			<linearGradient id="SVGID_3_" gradientUnits="userSpaceOnUse" x1="-104.2709" y1="-33.3793" x2="-103.3279" y2="-33.3793" gradientTransform="matrix(0 286.6956 286.6956 0 9815.1816 30102.3828)">
			<stop  offset="0" style="stop-color:#C5E8F3"/>
			<stop  offset="0.1161" style="stop-color:#BFE7F4"/>
			<stop  offset="0.6522" style="stop-color:#A8DFF7"/>
			<stop  offset="1" style="stop-color:#A0DDF9"/>
		</linearGradient>
		<rect x="-1.7" y="156.8" class="st1" width="494.5" height="471.4"/>
	</g>
</g>
<path class="st2" d="M370.6,618.4c4.4-0.7,9.2-0.1,13.2-1.2c3.2-0.9,6.4,0.8,9.7,0.5c4.9-0.3,8.8,1.3,13-1.1c3,0.7,4.9,3.9,7.4,4.7
	c1.4,0.4,4.6-0.3,6-0.8c0.8-0.3,1.4-0.9,2.3-1.1c2.2-0.5,4.6,0.5,6.8,0.4c1.2,0,2.3-0.2,3.5-0.2c2.3,0.1,4.2,0.7,4.8-2.4
	c2.2-0.6,4.3,3.1,6.3,1.3c0.9-0.8,0.8-3.2,1.4-4.4c0.4,0,0.9,0,1.3,0.3c0.6,1.7,0.8,5.7,2.6,2.8c0.9-1.4,1-4.2,1.1-5.9
	c2.1-0.5,1.4,1.8,1.6,3c0.4,1.8,1.6,2.5,1.7,4.4c1.6,0.2,3.4-0.2,4.9-0.5c2.9-0.6,6,0.2,9,0c0.2-2.7,5.2-0.7,6.7-0.8
	c1.6-0.1,2.8-0.9,4.4-1.1c0.8-0.1,2.3,0.4,3.1,0c0.5-0.3,0.6-0.9,1-1.1c2-1,4.1-1.7,6.5-0.8c1.7,0.7,2.7,2.1,4.2,2.8v16.5
	c-11.6,0.1-23.3,0.2-34.9,0.2c-11.5,0-22.9-0.9-34.5-1.3c-13.9-0.4-27.4-3-41.2-4.8c-5.4-0.7-10.8-1.7-16.1-2.7
	c-2.6-0.5-6.4-0.7-8.6-2.2c-1-0.7-2.3-1.8-2.4-3C359.8,618.1,365.9,619.1,370.6,618.4z"/>
<path class="st3" d="M426,623.2c10.4,0,20.9-1.1,31.4-1.1c11.9,0,23.8-1,35.7-1.1v11.3c-4.2-0.3-8.7-1.4-12.7-1.4
	c-18.3-0.4-36.5-1.7-54.8-2.9c-20.6-1.3-40.7-1.8-60.7-7.2C385.2,619.2,405.7,623.2,426,623.2z"/>
<rect x="0" y="631.6" class="st4" width="493.1" height="60.1"/>
<path class="st5" d="M170.3,613.8c-2.9-0.2-6.1-0.4-8.9-0.4c-1.3,0-2.4,0.4-3.7,0.4c-0.8,0-1.6-0.3-2.4-0.2c-1.3,0.1-2.3,0.9-3.7,1
	c-2.6,0.2-5.3-0.9-7.9-0.8c-1.8,0.1-3.1,0-4.9-0.2c-1.8-0.2-3.7,0.3-5.5,0c-1.4-0.2-2.5-1.2-4-0.9c-1.3,0.2-2.3,1-3.6,1.1
	c-0.7,0.1-1.5-0.2-2.2-0.2c-1.1-0.1-2.2,0-3.2,0.2c-3.3,0.6-6.5-0.7-9.7,0.2c-1.6,0.5-2.7,0.2-4.2,0c-2-0.3-4,0.1-6.1-0.1
	c-1.6-0.1-3.2-0.6-4.9-0.7c-6.1-0.4-12.3-0.5-18.4-0.6c-3.7,0-7.3-0.5-11.1-0.3c-2.5,0.1-5.1,0.5-7.5,0.2c-3.9-0.5-8.1-0.4-12-0.4
	c-1.9,0-3.8,0.1-5.8,0.2c-1.7,0.1-2.6-0.1-4.1-0.4c-1.5-0.3-2.8,0.4-4.3,0.4c-0.6,0-1.2-0.4-1.8-0.6c-1.1-0.2-2.4-0.1-3.5-0.3
	c-1.7-0.2-3.2-0.3-4.9-0.6c-1.9-0.3-3.6,0.8-5.7,0.9c-2.9,0.1-5.8-0.2-8.6-0.2c-1.4,0-2.2-0.6-3.5-0.7c-1.6-0.2-2.7,0.6-4.2,1.1v6.8
	c3.2,0.3,5.8,0.8,9,1.9c6.5,2.4,13.6,2.8,20.5,3.2c12.4,0.8,24.7,0.6,37,2.4c12.5,1.8,24.8,1.3,37.4,0.4c8-0.6,16-1.3,24-1.5
	c6.7-0.2,13.3-0.8,20-1.2c6.6-0.4,14.9,0.5,21-2.6C172.2,619.6,176.2,614.2,170.3,613.8z"/>
<path class="st6" d="M147.6,616.7c-5.5-0.1-11-0.8-16.5-0.8c-2,0-3.9,0.3-5.9,0.3c-1.7,0-3.5-0.2-5.2-0.2c-2.7,0-5.5,0.2-8.2,0.2
	c-2.2,0-4.3-0.2-6.5-0.4c-1-0.1-3.1,0-3.8-0.8l-1.7,1.4c0.8,1,1.4,2,2.7,2.6c1.4,0.7,2.9,0.9,4.4,1.3c1,0.2,1.9,0.6,2.9,0.8
	c1.3,0.2,2.8,0.1,4.2,0c2-0.1,3.9-0.1,5.9-0.1c5.5-0.1,11.1,0,16.6,0c1.9,0,3.7,0.1,5.6-0.2c1.6-0.3,3.5-0.5,5-1
	c0.8-0.3,2.6-1.2,2.7-2.1C149.8,616.7,148.3,616.7,147.6,616.7z"/>
<path class="st7" d="M238,615c-0.2-2.1-3.6-1-4.3-2.8c-0.5-1.2,0.4-2.8-0.6-3.9c-1.1-1.2-3.2-0.5-4.5-0.1c-1.4,0.4-2.4-0.3-3.6,0
	c-0.7,0.1-1.4,0.8-2,1.1c-2.1,1.2-1.8,1-2,3c-0.2,2-1.2,1.9-2.8,1.8c-1.4,0-1.5,0.5-2.7,1.2c-0.6,0.4-1.3,0.6-1.9-0.3
	c-0.4-0.7,0-1.5-0.2-2.2c-0.3-1-1.4-1.5-1.6-2.5c0-0.1,0-0.1,0-0.2c-1.5-0.6-3.5-0.6-5-0.2c-0.1,0-0.2,0-0.3,0.1
	c0,0.2-0.1,0.4-0.1,0.7c0,1,0.2,1-0.5,1.7c-0.8,0.8-2.2,1.6-2.9,2.2c-0.5,0.4-1.2,0.6-1.7,1c-0.7,0.5-0.8,1.1-1.2,1.6
	c-0.6,0.7-2.6,1.3-2.4-0.4c0.1-1.6,2.8-0.7,2-2.6c-0.7-1.8-2.5-1.5-3.9-1.1c-1.2,0.4-2.8,0.8-2.5,2.4c0.4,0.2,0.7,0.4,1.2,0.5
	c-0.1,0.9-3.6-0.1-4.3-0.5c-0.9-0.5-0.8-1.1-1.5-1.8c-0.7-0.7-1.4-0.4-2.2-1c-1.1-0.8-0.6-1.2-2.1-0.9c-1.4,0.4-1.2,0.6-2-0.6
	c-0.9-1.5-2.8-3-3.4-0.3c-0.7-0.5-1.2-1.3-1.7-2c-0.4-0.6,0.1-0.8-0.9-0.8c-0.5,0-0.6,0.1-1,0.5c-1.1,1.1-1.2,3.1-1.7,4.4
	c-1.4,0.1-5.1-0.1-4.9,2c-1.5,0.1-3,1.9-4.4,1.9c-1.8,0-3-2-5-1.7c-0.8,0.1-1.5,0.9-2.2,0.9c-0.8,0-1.7-0.6-2.5-0.6
	c-1.9-0.1-2.2,0.3-3.7,0.8c-1.8,0.6-3.1-0.1-4.9-0.2c-1.7-0.1-3.3,0.6-5,0c-1.5-0.5-2.7-1.5-4.3-1.1c-1.6,0.3-2.2,1.5-3.4,2.4
	c-1,0.8-2.2,0.6-3.4,0.6c-0.9,0-1.9,0.4-2.7,0.4c-1.9,0-3.2-2-4.8-2.8c-1.8-0.8-3.8,0.4-5.6,0.2c-1-0.1-3.1,0.6-4,0.2
	c-0.6-0.3-0.9-1.3-1.5-1.8c-1.2-1-3.4-1.7-5-1.1c-1,0.4-1.4,1.5-2.5,1.8c-1.1,0.3-2.8,0.2-3.9,0.1c-1.4-0.1-2.8-0.1-4.2,0
	c-0.7,0-1.5,0-2.2,0.2c-1.2,0.3-2,1.1-3.3,1.1c-1.9,0-3.8-1.4-5.6-0.8c-0.3,0.1-0.4,0.5-0.7,0.6c-0.4,0.2-1,0.2-1.4,0.3
	c-3,0.6-5.6,0.7-8.7,0.7c-1.2,0-2.5,0.2-3.7-0.1c-1.4-0.3-2.5-1.3-3.8-1.8c-2.8-1.2-5.3,0.1-8.1-0.3c-2.3-0.4-4.1-1.4-6.5-0.9
	c-2.9,0.6-6.7,3.4-9.8,1.9c-0.6-0.3-0.9-0.8-1.5-1.1c-1.5-0.7-3.5-0.6-5-0.2c-0.8,0.2-3,1-3.5,1.8c-0.9-0.8-3.5-1.9-4.7-1.2
	c-0.9,0.5,0,1.9-0.7,2.6c-0.8,0.8-1.8-0.2-2.7-0.3c-1.8-0.1-4.4,1.1-6.1,0.3c-0.7-0.3-1-1.3-1.9-1.7c-1.1-0.4-2.2,0.2-2.9,1.1
	c-0.5,0.7-0.5,1.5-1.4,1.8c-0.9,0.3-1.4-0.4-2.2-0.6c-0.9-0.2-3,0.4-3.5-0.8c-0.5-1.2,1.3-2.4-0.4-3.5c-0.7-0.4-2.5-0.6-3.2,0
	c-0.6,0.5-0.3,0.8-0.5,1.5c-0.3,0.9-0.6,0.9-0.3,1.7c0.2,0.6,0.8,0.3,0.6,1.1c-0.9,0-1.6-0.2-2.2,0.1v5.7c0.7,0.1,1.4,0.1,1.8,0.2
	c3.7,0.5,7.5,1,11.3,1.2c9,0.5,18.2,0.6,27.2,0.1c5.8-0.3,11.7-0.9,17.5-1c4.8,0,9.7,0.1,14.5,0c11.2-0.1,22.4-0.4,33.5-0.7
	c9.8-0.3,19.6-1.1,29.4-1.8c6.7-0.4,13.6-0.6,20.2-1.3c4.9-0.5,10.1-0.1,15-0.1c5.1,0,10.2-0.1,15.3-0.1c10.1-0.1,20.2-0.2,30.3-0.2
	c3.9,0,7.9,0.2,11.9-0.1c1.5-0.1,2-0.2,2.9-1c1.1-0.8,1.8-1.1,3.2-1.2c0.9-0.1,1.3,0.2,1.7-0.8c0.6-1.3-0.2-0.9,1.1-1.5
	C237.6,616,238,616,238,615z"/>
<path class="st8" d="M493.1,628.7c-0.1-0.8-1.9-1.9-2.5-2.5c-0.4-0.4-1-0.5-1.5-0.9c-0.7-0.5-1-1.2-1.8-1.6c-1.7-1-4,0.3-5.6-0.6
	c-0.8-0.5-0.6-1.1-1.7-1.2c-2.2-0.3-1,0.9-1.7,1.9c-0.1,0.2-0.7,0.3-0.9,0.4c-0.5,0.3-0.9,0.8-1.3,1.1c-0.9,0.5-1.6,0.3-2.5,0.3
	c-1.7,0-3.4,0.2-5.1,0c-1.4-0.1-2.7-0.7-4.1-0.6c-1.6,0.1-3.2,0.7-4.9,0.7c-1.7,0-3.1-0.4-4.7-1c-2.6-1-4.9-0.9-7.7-0.7
	c-2.3,0.2-4.5,0.4-6.8,0.5c-1,0.1-2,0-2.9,0.2c-0.8,0.2-1.6,0.5-2.4,0.5c-1.9,0-2.9-1.2-4.5-1.7c-1.7-0.5-4.1-0.2-6-0.2
	c-3.3,0-6.5,0.4-9.8-0.3c-1-0.2-1.7-0.5-2.4-0.9c-0.4-0.2-0.7-0.6-1.2-0.8c-2.1-0.9-3.3,1.2-5.2,1.9c-0.5,0.2-0.2,0.5-0.7,0.5
	c-0.2,0-1-0.6-1.1-0.8c-0.3-0.4,0-1-0.2-1.4c-0.3-0.8-0.7-0.6-1.3-1.1c-0.5-0.4-0.2-1.2-0.6-1.5c-0.8-0.6-3.2,1.2-3.7,2
	c-0.6,0.9-0.5,1-1.7,1.3c-0.6,0.1-1.1,0-1.6,0.3c-0.4,0.1-0.6,0.5-1,0.6c-1.1,0.3-2.4-0.4-3.6-0.1c-1.6,0.3-3,1.7-3.2,3.3
	c-0.5,4.3,7.5,5.2,10.5,5.3c6,0.2,11.9,0.1,17.9,0.6c8.3,0.8,16.5,0.4,24.8,0.1c9.9-0.3,20-0.4,29.9,0.2c3.6,0.2,7.1,0.2,10.8-0.1
	c2.9-0.3,6.4,0.1,9.2-0.7C491.5,631.1,493.3,630.1,493.1,628.7z"/>
<path class="st9" d="M324.2,617.7c-2.8-1.4-5.5,1.2-8.4-0.4c-0.5-0.3-0.6-1-1.1-1.3c-0.6-0.4-1.3-0.3-2-0.3c-1.4,0-2.1-0.2-3.4-0.6
	c-0.6-0.2-2.1-0.3-1.4-1.5c-1.4-0.1-3.7,0.5-5,0c-0.3-0.1-0.9-0.9-1.2-1.1c-0.8-0.5-1.6-0.9-2.5-0.9c-1.1,0-2.4,0.2-3.4,0.8
	c-0.7,0.4-1.1,1.1-1.8,1.6c-0.5,0.4-0.3,0.4-0.9,0.3c-0.6-0.1-1-0.6-1.7-0.6c-1.3-0.2-2.8,0.2-4,0.4c0,0-1.1,0.2-1.2,0.2
	c-0.4-0.1-0.8-0.9-1.2-1.1c-2.1-1.2-4.5-0.2-6,1.3c-1.4,1.4-1.2,0.8-1.8-0.5c-0.9-1.8-4.8-2.2-6-0.4c-0.1,0.2-0.3,0.7-0.3,0.8
	c-0.5,0.6-1,0.7-1.9,1c-0.6,0.2-1.3,0.1-1.6,0.7c-0.2,0.3,0.1,0.8,0,1.2c-0.7,2-3.5-1.3-3.4-2.6c0-1.3,0.6-1,1.4-1.9
	c0.6-0.8,0.1-2.3-0.9-2.9c-0.7-0.5-1.7-0.2-2.4-0.5c-0.6-0.2-0.3-0.3-0.8-0.6c-1.1-0.8-1.9-0.5-3.1-0.7c-0.3-0.1-0.5-0.3-1-0.4
	c-1.1-0.2-2.3,0.4-3.2,1c-0.7,0.5-0.8,0.9-1.2,1.5c-0.8,1.1-2.4,2-3.2,3.3c-0.5,0.8-0.3,1.7-0.4,2.6c-0.4,0.2-1.2,0.3-1.7,0.1
	c-0.5-0.2-0.7-0.9-1.1-1.2c-0.7-0.4-1.9,0.3-2.7-0.1c-0.8-0.4-0.8-1.3-1.3-1.8c-0.8-0.7-3.2-1.5-4.3-1.4c-1.5,0.1-2.4,1.2-3.8,1.4
	c-1.1,0.1-1.9,0.1-2.4,1.1c-0.4,0.7-0.1,1.2-1,1.6c-0.6,0.3-1,0.1-1.6,0.6c-0.8,0.7-1,1.8-1,2.8l1.5,1.6c1.5,0.4,2.5,1.3,3.8,2.2
	c2,1.5,3.7,1.8,6.2,2.2c6.7,1.1,13.7,0.9,20.4,0.6c9.6-0.3,19.5-0.4,29.1,0.6c12,1.3,23.9-0.4,35.7-1.9
	C329,623.9,326.5,618.8,324.2,617.7z"/>
<path class="st10" d="M77,614.6c0,0-37.4-0.4-48.3-0.5c-9.8-0.1-25.5,0.1-28.7,0.1v7.2l73.7-2.4L77,614.6z"/>
<path class="st11" d="M39.4,620.2c-0.4-0.8-2.3-0.6-3.2-0.8c-1.4-0.3-2.6-0.4-4-0.4c-1.2,0-2.1,0.8-3.2,0.6
	c-1.1-0.2-2.2-0.4-3.3-0.2c-2.8,0.5-5.7,0-8.5,0.2c-0.9,0.1-1.4-0.2-2.3-0.4c-0.7-0.1-1.3,0-1.9,0.2c-1.4,0.2-2.6-0.2-3.9-0.2
	c-0.7,0-1.4,0.1-2.1,0.3c-1.1,0.2-2.1-0.3-3.1-0.2c-0.7,0-1.1-0.1-1.9-0.2c-0.8-0.1-1.3,0.1-2,0.4v2.4c1.6,0.2,4-0.1,4.6-0.1
	c8.1-0.6,16.3,0,24.5-0.2c2.1-0.1,4.2-0.1,6.3-0.1c1,0,2.6,0.2,3.6-0.2C39.4,621,39.7,620.8,39.4,620.2z"/>
<path class="st12" d="M0,620.2c0,0,76.2,0.5,92.6,0c16.5-0.5,127.8-2.2,149.3-0.5c21.5,1.7,53.3,3.4,53.3,3.4L43.1,635.4L0,639.2
	V620.2z"/>
<path class="st13" d="M159,623.5c-2.4-0.1-4.8,0.1-7.2,0c-0.1-1.2,0-1.4,1.1-2c1.4-0.7,1.5-0.5,1.7-2c0.1-0.7,0.3-1.6,0-2.4
	c-0.3-0.8-1.3-2-2.1-2.2c-0.9-0.3-2.9-0.1-3.8,0c-1.1,0.1-1.1,0.3-1.6,1c-0.2,0.3-0.4,0.5-0.6,0.8c-0.7,0.7-1.2,0.9-1.2,2
	c-0.1,2.1,2.3,0.8,2.5,2.2c0.1,0.6-0.7,0.6-0.5,1.1c0.1,0.3,1.2,0.7,1.4,0.8c-0.6,0.7-2.5,0.5-3.3,0.6c-1.1,0.2-1.9-0.3-2.9-0.4
	c-0.5,0-1,0.3-1.4,0.2c-1.4-0.3-0.1-1.4,0-2.2c0.1-0.7-0.2-1.2-0.3-1.8c-0.1-0.6,0.2-1.3,0-1.9c-1-2.8-4-1.4-6-1.4
	c-0.6,0-2.4-0.5-2.9-0.1c-0.4,0.4,0,1.5-0.1,2c-0.1,0.6-0.8,1.1-0.5,1.8c0.3,0.7,1.9,1.1,2.5,1.7c0.5,0.5,0.7,1,1.1,1.5
	c0.3,0.4,0.7,0.5,0.6,1.1c-3.1,0.2-6.1-0.3-9.2-0.1c-0.8,0.1-3.8,0.5-3.9-0.5c-0.1-0.5,0.6-0.8,0.8-1.1c0.3-0.6,0.5-1.4,0.2-2
	c-0.1-0.3-0.6-0.5-0.6-0.9c0-0.3,0.2-0.3,0.3-0.5c0.1-0.6,0.4-0.6-0.1-1.3c-0.8-1.1-2.2-0.7-3.4-1c-0.8-0.2-1.8-1-2.9-0.4
	c-0.6,0.3-1,1.1-1.5,1.6c-0.2,0.2-0.6,0.4-0.8,0.6c-0.6,0.6-1.2,1.3-0.5,2c0.3,0.3,3.5,1.4,1.3,2.1c0.4,0.4,1,0.8,1,1.3
	c-1.5,0.1-2.8-0.1-4.3,0.1c-1.5,0.3-2.6-0.3-4.1-0.4c-0.9-0.1-1.9,0.3-2.8,0.3l-0.8,0.9c0.1,0,0.2,0,0.3,0.1
	c-1.4,0.8,0.6,1.2,1.1,1.2c1.9,0,3.8,0,5.6,0c5.1,0,10.1,0.1,15.1,0.1c6.2,0,12.3-0.4,18.4-0.4c4.8,0,9.6-0.2,14.3-0.4
	C159,624.6,159.1,624.1,159,623.5z"/>
<path class="st9" d="M364.9,614c1.4-0.2,2.1,0.7,3.2,1.2c1.2,0.5,2.3,0.5,3.5,0.9c2,0.7,3.2,0.1,5.2,0.4c1.4,0.2,2.5,0.8,3.8,0.9
	c2.3,0.2,3.8-0.5,5.8,1.2c1.6,1.3,2.5,5,4.5,5.6c1.2,0.4,2.7-1,4-1c1,0,1.1,0.3,2,0.6c0.9,0.3,2.2,0.2,2.8,0.3
	c3.8,0.5,7.5,0.4,11.3-0.7c1-0.3,2-0.7,3.1-0.5c1.1,0.2,1.4,1,2.5,0c0.8-0.7,0.6-2,1.1-2.9c1.1-2.1,3.3-0.8,5.1-1.7
	c0.7-0.4,1.1-1.4,1.7-1.9c1.7-1.7,4.5-0.7,6.4,0.5c0.3,0.2,0.2,0.7,0.4,0.9c0.5,0.3,1.2,0.1,1.7,0.4c0.6,0.4,1.9,2.2,1.2,2.7
	c-1,0.8-4.9-1.9-4.4,1.1c1.5,0.1,3.3-0.1,3.8,1.9c0.3,1-0.8,1.2-0.4,2.4c1.6,0.5,2.9,0.5,3.7-0.7c0.6-1,1-2,2.2-2.5
	c1.2-0.6,2.9-0.3,4,0.4c0.7,0.5,1.1,1.9,2,1.7c0-0.4,0.3-0.9,0.3-1.3c0.9-0.1,2.8,0.4,3.5-0.2c0.7-0.6,0.2-1.8,1.3-2.3
	c0.8-0.3,2.4,0.1,3.1,0.4c1,0.4,1.1,1.2,1.7,1.7c1.3,0.9,2.7,0.3,4.1-0.5c0.4-0.3,0.4-0.5,1.1-0.8c0.7-0.2,1.7,0,2.4,0
	c0-0.2,0-0.5,0-0.7c-0.7-0.2-2-0.2-1.8-1.2c0.2-1.1,2.6-0.7,3.5-0.8c0.2-0.6,0-1-0.5-1.2c-0.1-0.3-0.1-0.6,0-0.8
	c1.6,0,3.7-0.4,5.2,0.2c1.7,0.7,1.2,2.3-0.1,3.2c2-0.1,4.7,0,4.2,2.8c-1.3,0.5-3.5-0.5-3.4,1.5c0,0.6,1,1,1,1.7c0,1-0.8,1-1.5,1.5
	c-0.9,0.6-0.7,0.9-1.1,1.7c-0.9,1.5-1.8,1.7-3.7,1.9c-3.6,0.4-7.2-0.6-10.7-0.8c-5.3-0.3-10.5-0.6-15.8-0.8
	c-10.7-0.5-21.4-2.1-32.1-1.4c-13.7,0.9-27.4,0.4-41.1,1c-3.6,0.2-9.5,1.2-12.8-0.8c-2.7-1.6-2.9-6.9-2.3-9.6c0.5-2.6,2.3-6.3,5.5-6
	c1.9,0.2,2.9,2.1,4.7,2.2C361.9,616.2,362.9,614.3,364.9,614z"/>
<path class="st14" d="M92.3,635.2c0-1.1,10.4-10.2,10.4-10.2s66.7-0.4,87.5-1.3c20.9-0.9,132.2-1.3,141.2-0.9
	c8.9,0.4,17-1.2,29.9,2.3c12.9,3.5,22.5,8.6,22.5,8.6s-66,2.3-93.5,2.3c-27.5,0-156.7,6.8-174.6,5.3
	C97.8,639.9,92.3,635.2,92.3,635.2z"/>
<path class="st15" d="M213.3,627.9c-0.5-0.1-1.2,0.1-1.7,0.1c-1.8,0.1-3.7,0.2-5.5,0.3c-3.5,0.2-7.2-0.2-10.6,0.4
	c-2.5,0.5-4.9,0.1-7.4,0.3c-2.3,0.1-4.5,0.6-6.8,0.5c-1.4-0.1-2.8-0.1-4.3-0.1c-1.6,0-3.1,0.2-4.7,0.5c-4.2,0.7-8.4,1.2-12.7,1.4
	c-2.3,0.1-4.6,0.1-6.9-0.1c-1.1-0.1-2.2,0.3-3.3,0.4c-1.7,0.1-3.2,0.2-4.9,0.4c-1.8,0.2-3.5-0.5-5.3-0.2c-1.3,0.2-2.1,0.1-3.4,0
	c-1.7-0.2-3.2,0.8-4.9,0.7c-1.3-0.1-2.5-0.3-3.8-0.2c-1.8,0.1-3.4,0.5-5.2,0.5c-0.9,0-1.6,0.1-2.4,0.3c-0.7,0.1-1.6,0.2-2.4,0.1
	c-1-0.2-1.9-0.8-3-0.6c-1,0.1-1.6,0.5-2.6,0.4c-1.6-0.2-3,0.4-4.6,0.3c-2.9-0.2-5.9-0.9-8.4,1c-0.8,0.6-1.6,1.8-0.6,2.5
	c0.6,0.5,1.9,0.2,2.6,0.2c2.4,0,4.8,0,7.2,0c3.5,0,6.9-0.1,10.4-0.1c3.7,0,7.4-0.5,11.1-0.6c9-0.3,18-0.8,27-1.2
	c7.9-0.3,15.7-0.5,23.5-1.9c6.3-1.1,12.6-1.2,19-1.5c5.2-0.2,10.3-0.9,15.5-1.6C214.2,628.7,214.3,628.1,213.3,627.9z"/>
<rect x="22.7" y="624.3" class="st16" width="0.4" height="2.1"/>
<path class="st17" d="M12.9,623.8c0-0.3,0.1-0.6,0.2-0.9c0.1-0.6,0.4-1,0.7-1.6c0.3-0.6,0.1-1.3,0.4-1.8c0.3-0.5,0.9-0.9,1.4-1.2
	c0.3-0.2,0.5-0.1,0.7-0.2c0.6-0.3,0.7-1.4,1.2-1.9c1.2-1.4,2.7-0.9,4.3-0.9c0.9,0,1.5-0.8,2.5-0.6c1.1,0.2,1.6,1,2.1,1.8
	c0.5,0.8,1.7,1,2,1.8c0.2,0.7-0.1,1.4,0.2,2c0.3,0.6,1.5,1.5,2.1,1.6c0.7,0.1,0.3-0.2,0.3-0.8c0.1-1.3,2-2,3.1-1.9
	c0.6,0.1,1.2,0.8,1.7,0.3c0.4-0.4,0.3-0.8,0.8-1c0.3-0.1,0.7-0.1,1-0.3c0.2-0.1,0.3-0.4,0.4-0.6c0.4-0.4,1-0.7,1.6-0.8
	c0.3-0.1,0.8,0.1,1,0c0.3-0.1,0.3-0.2,0.5-0.6c0.7-1.2,2.3-2.2,3.6-2.3c0.9-0.1,2.1,0.8,2.7,1.4c0.5,0.5,0.3,1.1,0.6,1.7
	c0.2,0.5,1.3,0.6,1.9,0.6c0.4,0,0.6,0.1,0.9-0.2c0.1-0.1,0.1-0.5,0.2-0.6c0.2-0.3,0.4-0.5,0.6-0.6c0.4-0.3,1-0.4,1.5-0.4
	c0.7,0,1.4,0.6,2.1,0.8c0.8,0.3,1.6,0.6,2.5,0.4c0.4-0.1,0.7-0.3,1-0.3c0.6,0,0.9,0.2,1.4-0.2c0.9-0.6,0.6-1.9,1.3-2.7
	c1.1-1.4,3.6-1.5,5.3-1.6c1,0,2.1,0,2.9,0.5c0.4,0.2,0.3,0.4,0.5,0.7c0.3,0.3,0.6,0.5,1,0.7c1,0.7,1,2.5,0.7,3.6
	c-0.3,0.8-1.3,1.4-1.9,2c-0.6,0.6-0.8,1.6-1.1,2.4c-0.4,0.8-0.9,0.7-1.7,1c-0.5,0.1-1.2,0.3-1.6,0.6c-0.3,0.2-0.3,0.5-0.7,0.7
	c-1.3,0.6-3.3,0.4-4.7,0.3c-1.3-0.1-2.5,0.1-3.8,0.1c-1.7,0.1-3.4,0.2-5.2,0.2c-3.5,0.1-7,0-10.4,0.1c-3.2,0.1-6.3,0.4-9.5,0.4
	c-0.9,0-1.9,0.2-2.7-0.1c-0.6-0.2-1.1-0.5-1.7-0.7c-0.9-0.2-1.7,0-2.5,0c-0.5,0-0.9-0.1-1.4-0.1c-0.5,0.1-1,0.3-1.5,0.4
	c-1.3,0.4-2.4,1.5-3.8,1.6c-0.6,0.1-1.3-0.2-1.8-0.4c-0.8-0.2-1-0.8-1.6-1.2C13.7,624.9,12.9,624.5,12.9,623.8z"/>
<path class="st16" d="M75.6,624.1c-2.7-0.6-5.6-0.3-8.4-0.3c-5.8,0-11.6,0.4-17.3,0.4c-5.9,0-12.6-0.8-18.1,0.6
	c-3.4,0.9-7.1,0.9-10.7,0.9c-3.6,0-6.8,0.7-10.4,0.9c-1.7,0.1-3.7-0.3-5.3,0.2c-0.9,0.3-1.6,1.1-2.6,1.3c-0.6,0.1-1.6,0-2.8,0v5.1
	c1.6-0.1,3.2-0.5,4.3-0.7c9.7-1.7,19.6-3.2,29.5-3.7c8.5-0.4,16.9-1.2,25.5-1.1c3.1,0,6.2,0.4,9.3,0.2c1.5-0.1,5,0.2,6.3-0.6
	C75.9,626.7,75.7,625.4,75.6,624.1z"/>
<path class="st18" d="M304.2,628.3c-20.3-0.9-68.3-0.9-87.3,0.6c-6.6,0.5-16.2,1.1-26.6,1.7l-49,33.4l309.6-5.7l-73-25.6
	C349.8,632.2,324.2,629.3,304.2,628.3z"/>
<path class="st19" d="M484.5,630.6c0,0-47.5-1.9-70.2-3.7c-22.7-1.9-53-1.7-53-1.7c13.6,3.4,17.7,7.6,17.7,7.6c-0.4,0-0.8,0-1.2,0
	l73,25.6l35.7-0.7L484.5,630.6z"/>
<path class="st20" d="M84.6,626.1c0,0-17.5-0.6-35-0.2c-16.3,0.3-45.5,3.7-49.6,4.2v8.1l81-3.7L84.6,626.1z"/>
<path class="st21" d="M137.6,633.6c-16.7,0.9-57.1,2.2-57.1,2.2l0.5-1.2l-33.7,0.9l-5.3-0.2L8.3,638L0,636.8v28.6l51.1,0.4l90.2-1.7
	l49-33.4C170.8,631.8,148.5,632.9,137.6,633.6z"/>
<path class="st15" d="M68.4,633.9l-0.7-0.4c-1.6,0.7-4.1,0.2-5.9,0.3c-1.8,0.1-3.5,0.3-5.2,0.5c-3,0.3-6-0.5-9-0.4
	c-6.5,0.4-13.4,0.4-19.9,1.5c-1,0.2-5.1,0.5-3.5,2c1.1,1,5.3,0.4,6.9,0.1c1.2-0.2,2.1-0.5,3.3-0.6c1.7-0.1,3.5-0.3,5-0.7
	c2.9-0.7,6.4-0.3,9.4-0.3c6.7,0,13.5,0.4,20.2,0C69,635.2,69,634.2,68.4,633.9z"/>
<path class="st15" d="M80.4,636.1c1.5,0.2,2.9-0.1,4.3-0.1c1.6,0,3.3,0.4,4.9,0.2c1.7-0.2,3.2-0.2,4.9-0.2c1.6,0,3.1-0.2,4.7-0.4
	c0.7-0.1,2.1,0.2,2.5-0.5c0.2-0.3,0.2-0.7,0.2-1.1c0.1-0.4,0.1-0.9,0.2-1.2c0.1-0.3,0-0.3,0.5-0.5c0.4-0.2,1.8-0.3,2.1-0.7
	c0.4-0.6-0.3-1.5-0.3-2.1c0.1-1,1.1-0.3,1.5-0.8c0.3-0.3,0.2-1.3,0.1-1.6c-0.3-1-0.7-1.5-0.1-2.5c0.4-0.6,1-1.1,1.3-1.7
	c0.2-0.6,0-0.9-0.3-1.5c-0.4-0.9-0.1-0.9,0.5-1.5c0.7-0.6,0.6-1.6,0.3-2.3c-0.4-0.9-0.6-1.6-1.6-2c-0.8-0.3-1.8-0.2-2.4-0.8
	c-0.4-0.4-0.4-0.9-0.6-1.3c-0.4-0.6-1.1-0.9-1.7-1.1c-0.5-0.1-1.2,0-1.6-0.2c-0.4-0.2-0.6-0.6-0.8-0.9c-0.2-0.4-0.5-0.9-0.3-1.3
	c0.1-0.3,0.6-0.4,0.7-0.7c0.3-0.7-1.4-1.1-1.9-1.3c-0.9-0.4-2-0.2-2.9-0.2c-1.9,0-4,0.3-5.5,1.6c-0.6,0.5-0.8,0.9-0.9,1.6
	c-0.1,0.3-0.1,0.5-0.3,0.6c-0.8,0.6-1.3-0.9-1.8-1.3c-1.2-1.1-3.8-0.9-4.9,0.4c-0.4,0.4-0.4,0.9-0.7,1.4c-0.4,0.7-1.2,0.9-2,1
	c-1.4,0.1-4-0.5-5,0.7c-0.3,0.4-0.3,0.7-0.5,1.1c0,0,0,0.2,0,0.2c-0.1,0.2-0.6,0.4-0.8,0.5c-1.5,0.7-3.1,0.4-4.6,0.8
	c-1,0.3-2.2,1.3-2.6,2.3c-0.2,0.8,0.4,1.2,0.3,2c-0.1,0.7-0.8,1.2-1.1,1.9c-0.3,0.5,0,1,0,1.6c0,0.9-0.8,1.5-0.3,2.3
	c0.3,0.6,1,1.4,1.7,1.5c0.7,0.2,2,0.8,1.9,1.6c-0.1,0.5-0.4,0.8-0.4,1.4c0,0.6,0.5,0.9,0.6,1.3c0.2,0.7-0.7,0.8-1.1,1.2
	c-0.8,0.9-0.4,1.8,0.4,2.5c0.3,0.3,0.5,0.6,1,0.6c0.5,0,1.1-0.1,1.6-0.1c1.2,0,2.4-0.1,3.6-0.1C75.6,635.9,78,635.9,80.4,636.1z"/>
<path class="st15" d="M355.3,625.9c-0.2-1.3-1.2-2-1.3-3.4c-0.1-1,0.2-1.9,0.2-2.9c-1.3-0.7-2.4-0.9-2.8-2.1c-0.3-1,0.2-2.2-0.2-3.2
	c-1.6-4.2-5.5-2-8.6-2.3c-0.2-0.9-0.6-0.4-1.2-0.6c-0.1,0-0.6,0.3-0.9,0.3c-0.1,0-0.3-0.5-0.4-0.6c-1.9-0.7-3-2-5.2-1.9
	c-1.4,0.1-2.6,0.6-3.8,1.3c-1.3,0.8-3,1.8-3.6,3.4c-0.4,1.3-0.3,2.9-2.4,2.8c-0.1,1.5,0.9,4.1-0.6,4.9c-0.6,0.3-1.7-0.1-2.4,0.2
	c-0.7,0.3-1,1.2-1.5,1.4c-1.9,1-4.5-0.2-3.5,3l1.9,3.6c0.6,0.6,1.2,1.3,2.1,1.6c1.1,0.4,2.4,0.3,3.5,0.6c1.4,0.5,2.1,0.8,3.7,0.9
	c2.9,0.2,6.9,0.6,9.7-0.5c1.2-0.4,2.1-1.3,3.4-1.6c3.3-0.6,6.5,1.6,9.6,1c2-0.4,1.7-1.3,2.6-2.9
	C354.4,627.8,355.5,627.5,355.3,625.9z"/>
<g>
	<path class="st22" d="M194.3,624.4c-0.7-0.3-2.4,0.2-2.5-0.8c-0.1-0.6,0.4-0.9,0.8-0.9c0.8-0.1,2.9,2.1,2.5-0.1
		c-0.2-1.5-2-1.9-2.4-3.1c-0.3-0.7-0.1-1.3-0.7-2c-0.6-0.8-1.4-1.6-2.4-1.5c-1.3,0.2-1.4,1.4-2.5,0.7c-0.6-0.4-0.8-1.2-1.6-1.4
		c-1.3-0.4-2.9,0.2-4.1,0.8c-0.3,0.1-1.1,0.8-1.4,0.8c-0.3,0-0.9-0.3-1.2-0.4c-1.8-0.2-3.6,1.6-3.5,3.4c-1.5,0.2-2.2-0.7-3.3-1.4
		c-1.9-1-3.9-2.8-6.3-1.7c-0.7,0.3-1.1,0.9-1.5,1.5c-0.1,0.2-0.4,1-0.5,1.1c-0.5,0.4-1.1,0.2-1.9,0.2c-2,0.1-2.7,1-2.8,3
		c-0.3,0.1-0.9,1.3-1,1.6c-0.1,0.6,0.2,0.6,0.3,1.2c0.4,1.3,0.2,1.3,1.6,1.8c0,0.1,0,0.2,0,0.3c1.5,0.4,1.6,1,1,2.1
		c-0.4,0.8-1,1.5-0.9,2.5c0.2,0.9,1.3,1.4,1.6,2.1c0.5,0.2,1,0.5,1.5,0.6c1.6,0.3,3.2-0.4,4.8-0.1c1.6,0.3,2.7,1.5,4.3,1.6
		c1,0.1,2.2-0.2,3.2,0c0.6,0.1,0.7,0.2,1.1,0.6c0.1,0.2,0.2,0.7,0.3,0.8c0.5,0.3,2,0,2.3-0.5c0.2-0.3,0-0.5,0.2-0.7
		c0.1-0.2,0.3-0.5,0.3-0.6c0.2-0.6,0.2-1.2,0.2-1.9c0-2.5,2.4-0.7,4-1.5c0.9-0.4,1-1.1,2.1-1c1.1,0.1,1.2,0.2,2.3-0.2
		c0.6-0.2,1.3-0.3,0.9-1.1c-0.5-1.1-1.7-0.4-1.6-2.1c0.1-1.9,1.5-2.1,3-1.7c1.1,0.3,2,0.8,2.9,1.5c0.4,0.3,0.7,0.8,1.3,0.8
		C195,627.4,196,625.2,194.3,624.4z"/>
	<path class="st22" d="M161.9,634.6c0-0.1,0-0.2,0-0.3c-0.3-0.1-0.5-0.2-0.8-0.2L161.9,634.6z"/>
</g>
<path class="st15" d="M191.3,630c-0.7-1-1.7,0.1-2.3,0.6c-0.9,0.7-2.1,1.1-3,2c-1.1,1.1-2.9,1.9-4.2,2.8c-0.8,0.6-1.9,0.9-2.7,1.5
	c-0.8,0.5-1.4,1.2-2.1,1.7c-1.1,0.7-3.2,0.6-3.7,1.9l-0.2,0.4c0,0.9,0.9,1.4,1.8,1.2c0.4-0.1,0.9-0.5,1.3-0.7
	c0.9-0.4,1.8-0.7,2.7-1.1c1.5-0.7,2.9-1.5,4.1-2.5c0.9-0.7,1.4-1.7,2.4-2.4c1-0.7,1.9-0.9,2.8-1.7c0.6-0.5,1.1-1.1,1.6-1.5
	C190.4,631.7,192.2,631.4,191.3,630z"/>
<path class="st22" d="M268.3,627c-0.3-1.6-2-1.4-3.2-2c-0.8-0.4-1.2-1.2-2.1-1.8c-1.5-1-5.8-1.9-6.9,0.2c-0.1,0.2,0.1,0.6-0.2,0.8
	c-0.4,0.3-1.3-0.2-1.8-0.3c-0.9-0.2-1.3-0.1-2.2,0.5c-0.5,0.3-1.2,1.1-1.7,1.2c-0.6,0.1-2.2-1.1-2.7-1.4c-1-0.6-0.9-1.4-1.7-2.2
	c-1.8-1.8-4.3-2.5-6.4-0.9c-0.8,0.6-1.5,1.1-2.3,0.4c-0.5-0.4-0.5-1.2-1.1-1.5c-0.5-0.3-1.5-0.1-2.1-0.1c-1.2,0-1-0.2-1.8-1.1
	c-1.3-1.3-2.8-1.8-4.4-0.9c-0.6,0.3-0.6,0.4-1.2,0.4c-0.9,0-1.8-0.2-2.7-0.1c-1.1,0.2-2,0.9-2.9,1.5c-0.7,0.4-1.4,0.5-2.2,0.8
	c-2,1.1-1,2.7-1.4,4.5c-1.5,0-2.8,0.2-3.9,1.3c-0.7,0.7-0.4,1.3-0.7,2c-0.3,0.6-0.8,0.5-0.9,1.4c-0.2,2,1.2,3.2,2.6,4.3l-4.2,2.6
	c1.3,0.9,2.8,1.7,4.2,2.2c3.6,1.3,7.9,0.3,11.6,0.6c2.9,0.2,5.6,1.7,8.5,2.1c3.9,0.5,8.4,0.4,12.1-0.8c2.5-0.8,5.2-1.9,7.5-3.3
	c1.7-1,3.3-2.2,5.3-2.5c3.3-0.5,6.8,0.8,9.2-2.2C269.8,631.7,271.4,627.7,268.3,627z"/>
<path class="st15" d="M393.7,637.3c-0.3-0.7-0.7-0.6-1.4-1c-0.8-0.5-1.3-1.2-2.3-1.5c-0.4-0.1-0.8-0.1-1.1-0.3
	c-0.6-0.3-0.9-0.7-1.5-0.9c-0.4-0.1-0.8,0-1.2-0.2c-0.3-0.2-0.3-0.6-0.6-0.8c-0.8-0.4-2-0.1-2.8-0.2c-0.1-0.9-0.1-1.8,0-2.7
	c0.1-2.5,2.4-3.5,0.8-5.9c-0.7-1-1.8-2.7-3-2.8c-1.7-0.1-1.2,1.6-2.5,2c-0.6-1.2-2.1-3.1-3.5-3.3c-1.4-0.2-2.4,1.5-3.8,1.4
	c-0.1-1.2-1.1-1.3-1.9-1.9c-0.7-0.6-1-1.3-1.9-1.7c-1.6-0.6-4.3-0.5-5.9,0.2c-0.8,0.4-1.2,1-2,1.2c-0.8,0.2-2-0.4-2.8,0.2
	c-0.6,0.5-0.2,0.9-0.4,1.6c-0.3,1.9-3.3,1.8-4.7,2.7c0.9,1.6,2.4,1.7,4.1,1.8c1.4,0.1,2.7,0.1,4.1,0.3c1.8,0.3,3.2,1.3,4.9,1.7
	c1,0.2,2.2-0.1,3.2,0.1c1.4,0.3,2.2,1.2,3.4,1.8c0.7,0.3,6.1,1,5.5,2.1c-0.4,0.8-3.5,0.2-4.3,0.1c-1.4-0.1-2.8,0.3-4.3,0
	c-1.3-0.3-1.9-0.6-3.3-0.4c-1.2,0.2-2.1,0.3-3.3,0c-1.1-0.2-2.1-0.7-3.3-0.8c-1.1-0.1-3.6,0.1-4.3,0.9l-0.9,1.2
	c0.6,1.9,2.9,0.9,4.6,0.8c4.4-0.2,8.7,0.7,13,1.1c2.6,0.2,5.3,0.2,8,0.2c0.9,0,1.7-0.1,2.5,0.2c1.5,0.4,3,1.3,4.4,1.8
	c0.9,0.3,1.9,0.3,2.8,0.6c0.9,0.3,1.9,0.5,2.8,0.8c0.5,0.2,2,1.3,2.5,1.1C393.7,638.7,393.9,637.8,393.7,637.3z"/>
<path class="st23" d="M142.4,645c0-0.2-0.4-0.4-0.5-0.8c0-0.4,0.3-1.1,0.3-1.5c0.2-1.8-1.3-4.5-2.7-5.6c-0.9-0.8-1.3-1.8-2.2-2.5
	c-0.8-0.6-2.5-1.4-3.5-1.3c-0.3,0-0.5,0-0.8,0c-0.3,0-0.1,0.6-0.4,0.6c-0.8,0-1.3-1-2-1.4c-0.9-0.5-1.9-0.8-2.9-0.8
	c-1.6-0.1-2.8-0.1-3,1.4c-0.1,1,0.3,1.8-0.5,2.4c-0.4,0.3-2.2,0.1-2.7,0.2c-1,0.1-1.3,0-2,0.8c-0.5,0.5-0.5,1-1.2,1.3
	c-0.5,0.2-1.7,0-2-0.5c-0.2-0.5,0.4-1.1,0.4-1.5c0.2-1.1-0.2-2.1-1.2-2.5c-1.5-0.7-3.3,0.2-4.6,0.1c-1.8-0.2-5.9-1.7-7.5,0.2
	c-1,1.3,0.5,2.7,0.6,4.1c0.2,2.7-1.1,2.4-3.1,3.3c-1.9,0.9-1.1,1.8-1.5,3.3c-0.2,0.7-0.9,1.4-1.9,1.3c-1.3-0.1-2.8-1.4-4.1-1.9
	c-0.6-0.2-1.3-0.4-1.9-0.3c-0.8,0.1-1.5,1-2.2,0.6c-0.1-1.9,0.4-4.1-1.6-5.3c-1.1-0.7-3-0.5-3.7,0.8c-0.9-1.5-3.5-1.8-5-1.4
	c-1.9,0.6-2.6,2.1-2.6,3.9c-0.6,0.1-1.1,0.7-1.5,0.8c-0.5,0.1-1.1-0.3-1.8-0.3c-2.1-0.2-2.7,1.4-4.1,2.6c-0.4,0.3-0.8,0.2-1.2,0.8
	c-0.4,0.6-0.1,2.5,0.3,3c0.7,1,2.6,1.1,3.7,1.2c4.6,0.6,9.4,0.1,14.1,0.5c7.4,0.6,15,0.4,22.5,0.3c7.8-0.1,15.5,0.7,23.3,1.4
	c3.4,0.3,6.8-0.2,10.1,0l-1.3-3.5C142.1,647.7,142.7,646.6,142.4,645z"/>
<path class="st24" d="M202.8,651.8c-0.1-1.5-0.6-4.3-1.5-5.6l-3.7-3.6c-0.3-0.8-2.1-1.2-2.8-1.4c-1.5-0.3-3.6-0.5-5,0.2
	c-0.5,0.2-0.8,0.5-1.2,0.9c-0.2,0.2,0,0.4-0.2,0.5c-0.5,0.3-1.6-0.1-1.8,0.8c-0.7-0.1-1.4-0.6-2.2-0.7c-1.4-0.2-2.3,0.1-3.4,0.8
	c-1.2,0.7-2.1,0.9-3.5,0.8c0-0.7-0.1-1.8-0.6-2.3c-0.5-0.6-1.2-0.4-1.9-0.6c0-0.4,0.1-0.7,0.1-1.1c0-0.6-0.4-1.1-0.4-1.7
	c0-0.4,0.1-0.9,0.1-1.4c-0.1-1.3-1.2-2.5-2.3-3.1c-0.4-0.2-0.8-0.3-1.1-0.5c-0.6-0.4-0.9-1-1.5-1.3c-1.3-0.5-3.8-0.4-5,0.5
	c-0.3,0.2-0.6,0.9-0.9,1c-0.6,0.2-1.1-0.5-1.7-0.7c-0.8-0.3-1.9-0.5-2.7-0.2c-1,0.3-1.5,1.3-2.2,1.8c-0.5,0.3-1.3,0.4-1.8,0.8
	c-0.9,0.7-0.9,1.4-0.8,2.5c0.1,0.8,0.1,1.8-0.2,2.6c-0.4,1.1-1.4,0.9-2.5,0.9c-0.7,0-1.4-0.1-2.1,0.2c-0.6,0.3-0.7,0.8-1,1.4
	c-0.4,0.7-0.6,0.6-1.4,0.6c-2.1,0.2-3.1,1.6-3,3.6c0.1,1-0.4,1.7-0.3,2.7c0.3,2.9,4.8,2,6.7,2.2c5,0.6,10,1.4,15,2.2
	c3.6,0.6,7.3,0.4,11,0.7c5,0.5,9.9,0.5,14.8,0.7c2.6,0.1,5.5,0.2,8.1-0.1c0.8-0.1,2-0.4,2.6-1C203,654.2,202.9,652.8,202.8,651.8z"
	/>
<path class="st24" d="M69.1,645.1c-0.5-0.8-1.3-1.5-1.9-2.3c-1.4-1.8-3-2-5-2.2c-1.4-0.1-4.3-0.3-5.5,0.5c-1.1,0.8-0.8,2.1-2.1,2.4
	c-0.6,0.1-1.3-0.3-1.9,0c-0.4,0.2-0.4,0.6-0.7,0.9c-0.8,0.6-1.9,0.8-2.9,0.8c-1.6,0-2.8-1.3-4.4-1.3c-1,0-1.8,0.2-2.8,0
	c-1-0.2-1.8-0.9-2.9-0.8c-1.3,0.1-1.9,1-2.9,1.6c-2,1.1-4.2-0.3-4.8-2.4c-0.3-1.2,0.1-2.7-0.4-3.9c-0.8-1.7-2.8-1-4-2.1
	c-0.9-0.9-1.3-2.1-2.4-2.9c-1-0.7-2.2-1.5-3.4-1.7c-2-0.3-4.2,0.2-5.5,1.8c-0.7,0.8-0.7,1.2-2,1.7c-0.7,0.2-1.3,0.3-1.8,0.6
	c-0.7,0.4-0.8,0.6-1.7,0.7c-0.7,0.1-1.7,0.5-2.4,0.2c-1-0.4-1.7-1.5-3-1.9c-1.3-0.4-3-0.6-4.5-0.2v15.9c0.7,0,1.1-0.1,1.5-0.1
	c4.3,0,8.6,0.4,12.9,0.4c5.2,0,10.5,0.3,15.7,0.3c2.9,0,5.8-0.3,8.7-0.4c3.4-0.2,6.8-0.1,10.2-0.6c6.8-0.9,13.8,0.1,20.5-1.3
	C69.5,647.6,69.7,646.2,69.1,645.1z"/>
<path class="st25" d="M268.2,637.9c-0.6-1-0.9-2.2-1.3-3.3c-0.4-1.1-1.3-2.4-1.4-3.2l-0.8-0.6c-0.8-0.9-1.3-2-2.6-2.5
	c-0.5-0.2-0.6-0.2-1.1-0.1c-0.4,0.1-0.8,0.2-1.2,0.3c-0.3,0.1-0.7,0.5-1,0.5c-0.3,0.1-0.3-0.1-0.6-0.1c-1,0-1.7,0-2.4,0.8
	c-0.5,0.6-0.8,1.7-1.5,2.2c-0.6-0.4-0.9-0.9-1.3-1.5c-0.5-0.8-1.1-1-1.9-1.4c-2.4-1.2-5.6-2-8-0.2c-0.4,0.3-0.7,0.7-0.9,1.1
	c-0.1,0.3,0,1.1-0.1,1.3c-0.4,0.6-1.7,0.5-2.3,1c-0.5,0.4-0.9,0.9-1,1.5c-0.1,0.5,0,1.1-0.1,1.5c-0.1,0.4-0.6,0.7-0.8,1.1
	c-1.2,0.1-2.7-0.5-3.7-1.1c-0.7-0.4-1-0.6-1.3,0.2c-0.3,0-0.3-0.2-0.6-0.4c-0.6-0.3-1.2-0.6-1.9-0.8c-1.5-0.4-3.1-0.2-4.4,0.7
	c-0.5,0.3-0.6,0.7-1.2,0.7c-0.8,0-1.7-0.8-2.3-1.3c-1.8-1.4-3.8-2-6.1-2c-2.2,0-3.7,0.4-5.4,1.6c-0.6-0.9-1-1.9-1.9-2.6
	c-1.3-0.9-2.8-2.4-4.5-2.2c-1.9,0.3-3.4,1.1-4.8,2.4c-0.6,0.5-1.2,0.8-1.5,1.5c-0.3,0.5-0.2,1.1-0.4,1.7c-0.2,0.7-0.6,1.4-1,2
	c-0.6,1-0.7,2.1-0.6,3.2c0.1,0.8,0.3,1.4,0.1,2.1c-0.2,0.8-0.7,1.4-0.9,2.1c-0.2,0.6-0.4,1.7-0.2,2.4c0.2,0.7,0.8,1.1,1,1.8
	c0.1,0.4,0,0.8,0,1.2c0,0.7,0.1,1.2,0.5,1.8c0.3,0.4,0.6,0.9,0.8,1.4c1,1.9,3.8,1.5,5.6,1.8c4.6,0.6,8.8,2.4,13.4,2.7
	c2.9,0.2,5.8,0.3,8.7,0.2c2.6-0.1,5.2-0.7,7.8-0.7c2.3,0,4.6,0,6.9,0c2.1,0,4.2-0.2,6.3-0.4c4.2-0.3,8.3-1.3,12.5-1.7
	c1.1-0.1,2-0.1,2.9-0.6c1.3-0.6,2.9-1.4,3.9-2.4c0.8-0.9,1.2-2.3,1.6-3.3c0.6-1.3,0.8-2.8,1.4-4.1c0.6-1.1,0.9-1.9,0.9-3.2
	C269.4,639.8,268.9,639.1,268.2,637.9z"/>
<path class="st26" d="M330.8,637.9c-1-2.3-1.7-4.8-2.6-7.2c-0.6-1.6-1.5-3.5-3.3-4c-2.3-0.6-4.8,1.4-7,1.7c-0.9-2.3-1.5-4-3.7-5.5
	c-1.4-0.9-4.2-2.1-5.9-1.1c0.2-3-5.5-3.1-7.3-3c-1.4,0-3.1,0-4.2,1c-0.8,0.8-0.8,1.7-1.2,2.6c-0.7,1.7-1.2,1.1-3,0.7
	c-3-0.7-6.5-0.3-6.9,3.4c0,0.4,0.4,2,0.2,2.3c-0.6,0.8-2.9,0.5-3.8,0.4c-2.1-0.2-3.3-2.6-5.7-2.9c-2.5-0.4-4.4,0.2-5.6,2.4
	c-1.1,2-3.5,1.7-5.5,1.4c-2.4-0.3-3.5,0.2-4.6,2.5c-0.7,1.4-0.8,1.2-2.4,1.9c-1.8,0.8-2.9,2.5-3,4.5c-0.1,1.5,0.2,1.5-1,2.5
	c-2.3,1.8-2.4,4.8-1.2,7.3c0.6,1.2,1.5,2.8,2.8,3.4c1,0.5,1.8,0.2,2.8,0.4c0.9,0.2,1.8,0.7,2.7,0.8c2,0.3,4,0,6-0.4
	c6.2-1.2,12.5,0,18.8,0.4c3.2,0.2,6.5,0.4,9.7,0.3c3-0.2,6-0.8,9-1c4.7-0.2,9.3,0.9,13.9,0.9c2.8,0,5.7,0.4,8.3-0.8
	c2.6-1.2,4.7-3,5.3-5.9C333.3,643.2,332.2,641.1,330.8,637.9z"/>
<path class="st15" d="M490.1,624.7c-1.3,0.3-2.1-0.7-3.6-0.7c-1.7,0-6.4,0.4-7.2,2c-0.4,0.7,0,1.1,0.6,1.5c0.3,0.3,2.7,1.7,1.1,2
	c0.3,1.3,2.2,1.7,0.5,2.5c-1.3,0.5-5.4,0.9-5.6,3c-0.1,1.3,2.1,2.6,2.4,3.9c0.1,0.4,0.3,1.3,0.2,1.7c-2.9,0.2-5.8,0-8.3,1.9
	l-3.6,2.9c0.1,1.9-0.8,3.9,0.1,5.7c1,2.1,3.8,2.2,5.8,2.8c3.4,1.1,7.1,1.8,10.7,2.3c1.9,0.3,3.8-0.1,5.7-0.4
	c1.4-0.3,2.9-0.3,4.3-0.7v-30.7C492.1,624,491.1,624.4,490.1,624.7z"/>
<path class="st27" d="M0,647.8c2.2-0.3,4.2-0.6,6.5-0.9c7.2-0.8,14.5,0.5,21.6,0.6c7.4,0.1,14.8,0,22.2,0c6.3,0,12.4-1,18.7-0.6
	c3.2,0.2,6.5,0,9.7-0.2c1.3-0.1,2.6-0.3,3.9-0.2c1.6,0.1,3,0.7,4.5,0.7c3.5,0.1,7-1,10.6-0.9c1.7,0,3.3,0.2,5,0.2
	c5.7,0,11.5,0.5,17.2,0.5c4.5,0,8.8-0.2,13.3,0.2c4.8,0.4,9.7,1.3,14.5,1.3c5.7-0.1,11-0.5,16.7,0.4c6.5,1.1,12.9,1.3,19.5,1.4
	c2.4,0,4.8,0.4,7.2,0.9c2.8,0.6,5.3,0.7,8.2,0.8c4.4,0.2,8.7,0.8,13,1c1.9,0.1,3.7-0.5,5.5-0.6c2.5-0.1,5,0.1,7.5-0.3
	c4.3-0.7,8.2-0.5,12.6,0c3.4,0.3,6.6-1.2,10-1c3.7,0.1,7.4,0.1,11-0.5c3.2-0.6,5.9-1.9,9.1-2.2c4.5-0.4,9-0.3,13.5-0.5
	c2.5-0.1,5,0.1,7.3,0.7c2.1,0.5,5.6,0.8,6.8,2.7c-1.5,0.7-3.2,0.9-4.8,1.4c-1.9,0.5-3.7,1.5-5.5,2.3c-3.7,1.7-7.3,2.8-11.2,3.9
	c-5.1,1.5-10.4,2.1-15.7,2.9c-5.8,0.9-11.5,2.6-17.4,2.8c-13.4,0.6-26.9,0.4-40.3,0.4c-21.1,0-42.3,0.5-63.4,1.9H0V647.8z"/>
<path class="st28" d="M289.8,649.8c-1.5-0.3-3-0.3-4.5-0.6c-2.9-0.6-5.3-0.1-8.1,0.2c-1.4,0.2-2.9,0-4.3,0c-2.1,0-3.7,0.8-5.7,1.4
	c-2.1,0.6-4.2,1.2-6.2,1.9c-1.9,0.6-3.9,0.4-5.8,0.6c-1.7,0.1-3.2,0.7-4.9,1c-3.7,0.7-7.5,0.6-11.2,0.4c-3-0.2-6-0.4-9.1-0.2
	c-3.7,0.2-7.1,1.3-10.9,1.1c-3-0.2-6-0.4-9-0.4c-1.9,0-3.9,0.2-5.7-0.2c-2.9-0.5-4.6-1.4-7.5-0.8c-2.9,0.7-5.9,0.5-8.9,0.3
	c-3.1-0.2-6.3,0.1-9.5-0.1c-3.5-0.2-6.4-1.7-9.7-2.5c-2.8-0.6-5.3-0.3-8.1,0.1c-3.8,0.5-7.4-0.2-11.2-0.2c-7.6,0-15.1,0.8-22.6,0
	c-2.6-0.3-5.1,0.1-7.7-0.5c-4.1-1-7.6-0.6-11.8,0c-3.8,0.5-7.3-0.6-11.1-0.7c-4.9-0.2-10.7-0.7-15.4,0.9c-2.7,0.9-4.1,1.9-7,1.7
	c-2.8-0.3-5.9-0.7-8.6-0.3c-4,0.6-7.5,1.6-11.6,1.3c-3.8-0.3-7.3-1.4-11.1-1.8c-5.7-0.6-11.5,0.3-17.2,0.2
	c-5.2-0.1-9.8,1.4-14.9,0.2c-2.7-0.6-4.6-0.7-7.4-0.2c-1.2,0.2-2.2,0.5-3.4,0.7v12.6l123.6-2.2c0,0,79-0.2,98.7,0.2
	c19.7,0.5,72-12.2,72-12.2C292.8,651.1,291.4,650.1,289.8,649.8z"/>
<path class="st29" d="M473.4,647.3c-0.4-2-0.2-3.8-0.8-5.5c-0.7-2,0.2-3.9-2.8-4.4c-1.5-0.2-3.7,0.4-5-0.5c-0.6-0.4-0.7-1.3-1.3-1.7
	c-0.6-0.3-1.3-0.4-2-0.3c-3.9,0.4-2.5,4.7-3.5,7.4c-1.4-1.7-5-1.1-5.5-3.7c-0.1-0.6,0.2-1.2,0-1.8c-0.2-0.7-0.5-1-0.6-1.6
	c-0.2-0.8,0.3-1.8-0.3-2.6c-0.7-1.1-2.2-0.6-3.2-0.7c-2.1-0.3-3.7-2.5-5.9-2.2c-1.5,0.2-2.7,1.2-4,1.8c-0.6,0.3-1.3,0.3-1.9,0.5
	c-1.6,0.6-0.6,1.5-1.3,2.7c-0.7,1.2-3.1,1.2-3.8,2.4c-0.2,0.3,0,1.2,0,1.6c-0.2,2.2-2.2,2-4,1.9c-0.3-0.9-1.1-1-1.9-1.1
	c-1.8-0.3-3.2-0.5-4.4-2.2c-0.5-0.7-0.6-1.6-1.3-2.2c-1.3-1.2-3.8-0.1-5.4-1.1c-1.8-1-2.7-3.2-4.5-4.3c-1.7-1-3.7-0.4-5.4,0
	c-1.4,0.4-2.3,0.4-3.7,0.2c-1.2-0.3-2.3-0.6-3.5-0.3c-1.6,0.3-1.7,1-2.7,1.8c-1.5,1.3-3.5,1-4.5,3c-1.1,2.2-0.6,5.3-2.3,7
	c-1.2,1.2-1.7,2.6-2.9,3.8c-1.2,1.1-2.2,1.9-1.6,3.7c0.4,1.2,1.4,1.6,2.5,2.1l0.7,1.3c1-0.1,1.9,0.2,2.9,0.3c2.5,0.1,5,0,7.4-0.1
	c11-0.3,21.9,0,32.9-0.5c13.6-0.5,27.1-0.5,40.7-0.3C473,651.4,473.8,649.6,473.4,647.3z"/>
<path class="st30" d="M387.6,647.7c-0.4-0.3-1.2-0.3-1.6-0.7c-0.2-0.2-0.2-0.4-0.3-0.6c-0.8-1-1.7-1.2-2.9-0.8
	c-0.6,0.2-0.9,0.4-1.6,0c-1-0.4-0.6-0.8-0.6-1.6c-0.3-3.1-5.6-3.1-7.2-1c-0.3,0.4-0.2,0.9-0.7,1.2c-0.3,0.1-0.8-0.1-1.1,0
	c-0.4,0.1-0.7,0.6-1,0.7c-0.4,0.1-0.9-0.3-1.4-0.3c-0.8-0.1-1.9-0.2-2.7,0.1c-1.5,0.4-1.5,1.7-2.2,2.8c-0.6,1-1.8,0.8-2.7,0.5
	c-0.6-0.2-1.1-0.3-1.7-0.1c-0.4,0.1-0.7,0.3-1.1,0.3c-0.4,0-0.8-0.3-1.3-0.5c-0.7-0.2-1.6-0.3-2.4-0.2c-0.9,0.1-1.7,0.8-2.5,1.3
	c-0.4,0.3-1.4,0.7-1.4,1.2l0.2,1c3.6,0,7.2,0.7,10.8,0.7c4.2,0,8.5,0,12.7,0c2.7,0,5.6,0.2,8.3-0.1c1.3-0.2,2.5-0.5,3.8-0.6
	c1-0.1,1.1-0.3,1.2-1.3C388.4,649.1,388.2,648.2,387.6,647.7z"/>
<path class="st31" d="M356.1,632.5c-0.1-1.6,0.6-2.4-0.8-3.7c-0.6-0.5-1.3-1.1-1.9-1.6c-0.4-0.4-0.4-0.3-1-0.4c-0.5-0.1-1.6,0-2-0.3
	c-0.4-0.3-0.7-1.2-0.9-1.6c-0.3-0.5-0.6-1.1-1-1.5c-0.1-0.1-1.6-0.6-1.5-0.4c-0.3-0.8-0.7-1.8-1.7-1.6c-0.9-2-2.5-3.1-4.8-3
	c-0.7,0-1.6,0.2-2.2,0.6c-0.7,0.5-0.5,1-0.5,1.9c-0.2,4.2-7.3,0.3-7.8,4.4c-0.1,0.5,0.2,0.4-0.1,0.7c-0.5,0.6-1.6,0.7-2.2,1.3
	c-0.5,0.5-0.3,0.6-1.1,0.8c-1,0.3-1.9,0.4-2.6,1.4c-1.4,2.1,1.9,2.8,2.3,4.4c0.3,1.1-1.1,2-0.9,3.1c-1.5,0.1-4.6-0.4-5.7,1
	c-1.1,1.4,0.2,2.7,0.6,4c0.3,0.9-0.4,0.6-0.6,1.5c-0.2,1.1,1.5,1.1,1.8,1.9c0.1,0.1-0.1,0.4,0,0.5c0.2,0.5,0.8,0.7,1,1.1
	c0.2,0.6-0.4,0.5-0.8,1c-0.7,0.8-0.3,1.8,0.3,2.5c1.4,1.8,3.7,1.6,5.7,1.5c2.8-0.1,5.6-0.3,8.4-0.4c2.5,0,4.5,1.4,7.1,1.7
	c4.2,0.5,9.4,0.6,13-2c1-0.7,1.7-1.4,1.3-2.6c-0.2-0.6-0.6-1.4-0.6-2c0-0.9,0.7-0.7,1-1.5c0.3-0.8-0.4-1.2-0.8-1.8
	c-0.5-0.8-1.1-1.6-1.1-2.6c-0.2-1.9,1.9-2.6,2.1-4.3C358.2,635,356.2,634.1,356.1,632.5z"/>
<linearGradient id="SVGID_4_" gradientUnits="userSpaceOnUse" x1="235.8251" y1="611.7744" x2="235.8251" y2="649.3704" gradientTransform="matrix(1 0 0 1 76.9854 0)">
	<stop  offset="0" style="stop-color:#FFFDEB"/>
	<stop  offset="1" style="stop-color:#947839"/>
</linearGradient>
<polygon class="st32" points="313.4,650.5 312.3,650.5 312.6,607.6 313.2,607.7 "/>
<path class="st26" d="M321,620.4c-0.1-1.3-2.5-1.5-3.8-1.4c-0.5,0-1.9,0.3-2.4,0.1c-0.2-0.1,0-0.4-0.2-0.5c-0.5-0.4-1.3,0-1.6-0.7
	c-0.1-0.2,0.1-0.5,0-0.7c-0.1-0.5-0.8-0.6-1-0.9c-0.4-0.8,2.4-0.9,3.2-0.9c1.3,0,0.8,0,1.3,0.8c0.5,0.9,1.8,0.9,2.9,0.8
	c0.6,0,1.4-0.3,1.7-0.7c-1.1-0.2-0.4-0.9-0.7-1.4c-0.4-0.8-2.7-1.6-3.9-1.8c-0.3,0-1.2,0-1.3-0.3c-0.2-0.4,1-0.6,1.4-0.7
	c1.1-0.2,2.4,0.2,3.5-0.2c0-0.1,0.1-0.2,0.1-0.4c1.9-0.2,1-1.6-0.1-2.1c-0.5-0.2-2.7-0.9-3-0.4l-0.1-0.2c-0.2-0.5-1.6-0.9-2.3-0.9
	c-0.9,0-1.5,0.7-2.4,0.6c-1.7-0.1-3.7-1.3-5.3-0.2c-0.5,0.3-0.3,0.7-0.6,1c-0.2,0.2-0.4,0.2-0.6,0.4c-0.7,0.5-0.4,2,0,2.4
	c1.2,1.4,1.9,0,3.4,0c0.7,0,1.8,0.4,1.6,1c0.4,0,0.6,0.3,0.5,0.6c-0.1,0.3-0.9,0.5-1.3,0.7c-0.8,0.3-1.1,0.5-1,1.3
	c0.1,0.6,0.7,0.9,1.3,1.3c0.2,0.1,0.6,0.2,0.7,0.5c0.1,0.6-1.8,0.4-2.1,1.2c-0.5,1.3,2.3,0.8,2.5,1.8c-0.6,0.2-0.9,0.6-0.7,1.2
	c0.5,1.4,3.7,1.5,5.1,1.1c0.6-0.2,1-0.3,1.6-0.3c0.5,0,1.1,0,1.6,0.2c0.1,0,0.4,0.3,0.4,0.3c0.5,0.1,1.1,0,1.8,0
	c0.1-0.6-0.7-1-0.7-1.5C320.7,620.9,321,620.8,321,620.4z"/>
<path class="st33" d="M321.9,633.1c-0.2-0.3-0.7-0.5-0.8-0.8c-0.1-0.3,0.2-0.7,0.2-1.1c0-0.4-0.1-0.9-0.2-1.3
	c-0.3-0.9-1.1-1.8-2.1-2.3c-0.8-0.5-1.7-0.8-2.5-1.1c-0.9-0.4-1.6-0.6-2.7-0.5c-0.7,0.1-1.1,0.3-1.5,0.7c-0.6,0.6-0.4,0.8-1.4,0.7
	c-0.8-0.1-1.7-0.4-2.6-0.3c-0.4,0.1-1.5,0.5-1.7,0.9c-0.3,0.7,1.1,1,0.7,1.6c-0.1,0.2-1.3,0.5-1.6,0.7c-0.4,0.2-0.8,0.5-1,0.8
	c-0.2,0.4-0.3,0.7-0.1,1.1c0.4,0.9,1.5,1,2.4,1.3c0.9,0.4,0.2,0.6-0.4,1c-0.6,0.4-0.9,1.1-0.5,1.7c0.5,0.7,1.7,0.8,2.5,0.4
	c1.2-0.5,1.9-0.8,3.3-0.7c0.7,0.1,1.4,0.4,2.1,0.5c0.4,0,1,0,1.3,0c0.8-0.1,1.4-0.7,2.1-0.9c0.6-0.1,1.3,0.2,1.9,0.1
	c0.9-0.2,1-0.7,1.7-1C321.9,634.1,322.3,633.9,321.9,633.1z"/>
<path class="st34" d="M493.1,650c0,0-166.4,0-185,0c-18.6,0-26,0-39.4,3.7c-13.4,3.7-29,6.7-43.1,6.7c-14.1,0-32-0.7-81.8-1.5
	c-45-0.7-128.2,2.3-143.8,2.9v29.9h493.1V650z"/>
<path class="st35" d="M169.6,667.4c0,0,79.4-0.7,148.3,0c69,0.7,126.1-3,169.1-1.9c0,0-27.4,2.6-85.3,4.1
	c-57.9,1.5-117.2,4.8-153.5,4.8c0,0,65.3-3.4,123.9-5.6L169.6,667.4z"/>
<path class="st13" d="M191.9,623.3c1.8-0.4,3.5,0.3,5.2,0.1c0.9-0.1,1.8-0.7,2.7-0.5c0.5,0.1,0.8,0.2,1.3,0.2
	c-0.1-2,3.1-4.1,3.8-1.5c0.4,0.1,0.9,0.2,1.4,0.1c0.2,0,0.4-0.3,0.5-0.3c0.7,0,1,1,1.6,1.2c0.6,0.2,1.5-0.4,2.2-0.5
	c0.8-0.1,1,0.3,1.7,0.5c0.8,0.2,1.9-0.3,2.8-0.2c0.6,0,1.7,0,2.2,0.3c0.5,0.4,0.4,0.5-0.1,0.7c-0.7,0.3-2.1-0.1-2.9-0.1
	c-4.3,0-8.6,0.4-12.9,0.4c-2.2,0-4.5,0.1-6.6,0.1c-0.5,0-2.6,0.3-3-0.3L191.9,623.3z"/>
<linearGradient id="SVGID_5_" gradientUnits="userSpaceOnUse" x1="237.8828" y1="673.2021" x2="241.7705" y2="673.2021">
	<stop  offset="0" style="stop-color:#A4D38C"/>
	<stop  offset="0.5449" style="stop-color:#82BB68"/>
	<stop  offset="1" style="stop-color:#A4D38C"/>
</linearGradient>
<path class="st36" d="M237.9,673.2c1.3,0,2.6-0.1,3.9-0.1C240.5,673.2,239.2,673.2,237.9,673.2z"/>
<linearGradient id="SVGID_6_" gradientUnits="userSpaceOnUse" x1="230.6889" y1="673.3853" x2="237.8828" y2="673.3853">
	<stop  offset="0" style="stop-color:#A4D38C"/>
	<stop  offset="0.5449" style="stop-color:#82BB68"/>
	<stop  offset="1" style="stop-color:#A4D38C"/>
</linearGradient>
<path class="st37" d="M230.7,673.5c2.4-0.1,4.8-0.2,7.2-0.3C235.5,673.3,233.1,673.4,230.7,673.5z"/>
<linearGradient id="SVGID_7_" gradientUnits="userSpaceOnUse" x1="161.0009" y1="684.9858" x2="166.0395" y2="684.9858">
	<stop  offset="0" style="stop-color:#A4D38C"/>
	<stop  offset="0.5449" style="stop-color:#82BB68"/>
	<stop  offset="1" style="stop-color:#A4D38C"/>
</linearGradient>
<path class="st38" d="M166,685c-1.7,0-3.4,0-5,0C162.7,685,164.4,685,166,685z"/>
<path class="st39" d="M493.1,650h-185c-18.6,0-26,0-39.4,3.7c-13.4,3.7-29,6.7-43.1,6.7c-14.1,0-32-0.7-81.8-1.5
	c-45-0.7-128.2,2.3-143.8,2.9v29.9h493.1V650z"/>
<g>
	<g>
		<defs>
			<path id="SVGID_8_" d="M429.1,159.2c-62.1,33.3-167,82-314,122.9c147-40.8,252.2-88.7,314.4-122c26.1-14,47.1-26.6,63-36.8v-1.1
				C476.6,132.3,455.5,145,429.1,159.2"/>
		</defs>
		<clipPath id="SVGID_9_">
			<use xlink:href="#SVGID_8_"  style="overflow:visible;"/>
		</clipPath>
		
			<linearGradient id="SVGID_10_" gradientUnits="userSpaceOnUse" x1="-104.513" y1="-33.7861" x2="-103.57" y2="-33.7861" gradientTransform="matrix(-279.7864 119.3355 -119.3355 -279.7864 -32781.6797 3141.1748)">
			<stop  offset="0" style="stop-color:#C5E8F3"/>
			<stop  offset="0.1161" style="stop-color:#BFE7F4"/>
			<stop  offset="0.6522" style="stop-color:#A8DFF7"/>
			<stop  offset="1" style="stop-color:#A0DDF9"/>
		</linearGradient>
		<polygon class="st40" points="550.2,257.3 173.3,418.1 57.5,146.6 434.4,-14.2 		"/>
	</g>
</g>
<g>
	<g>
		<defs>
			<path id="SVGID_11_" d="M419.2,138.5c-52,36.4-138.3,86.5-255.8,116.3C281,225,367.8,175.7,419.7,139.3
				c34.9-24.4,59.2-46.4,72.8-59.6v-1.3C479.1,91.5,454.6,113.6,419.2,138.5"/>
		</defs>
		<clipPath id="SVGID_12_">
			<use xlink:href="#SVGID_11_"  style="overflow:visible;"/>
		</clipPath>
		
			<linearGradient id="SVGID_13_" gradientUnits="userSpaceOnUse" x1="-104.513" y1="-33.7994" x2="-103.57" y2="-33.7994" gradientTransform="matrix(-279.7555 119.3224 -119.3224 -279.7555 -32788.6523 3115.8616)">
			<stop  offset="0" style="stop-color:#C5E8F3"/>
			<stop  offset="0.1161" style="stop-color:#BFE7F4"/>
			<stop  offset="0.6522" style="stop-color:#A8DFF7"/>
			<stop  offset="1" style="stop-color:#A0DDF9"/>
		</linearGradient>
		<polygon class="st41" points="556.3,227.6 214,373.6 99.6,105.5 441.9,-40.5 		"/>
	</g>
</g>
</svg>
