<?xml version="1.0" encoding="utf-8"?>
<!-- Generator: Adobe Illustrator 19.0.0, SVG Export Plug-In . SVG Version: 6.00 Build 0)  -->
<svg version="1.1" id="Layer_1" xmlns="http://www.w3.org/2000/svg" xmlns:xlink="http://www.w3.org/1999/xlink" x="0px" y="0px"
	 viewBox="0 0 147.5 147.5" style="enable-background:new 0 0 147.5 147.5;" xml:space="preserve">
<style type="text/css">
	.st0{clip-path:url(#SVGID_4_);fill:#E67340;}
	.st1{clip-path:url(#SVGID_4_);fill:#E75025;}
	.st2{clip-path:url(#SVGID_4_);fill:#EE7842;}
	.st3{clip-path:url(#SVGID_4_);fill:#EDEDED;}
	.st4{clip-path:url(#SVGID_4_);fill:#D46C3B;}
	.st5{clip-path:url(#SVGID_4_);fill:#D64C27;}
	.st6{clip-path:url(#SVGID_4_);fill:#DD703E;}
	.st7{clip-path:url(#SVGID_4_);fill:#FAC425;}
	.st8{clip-path:url(#SVGID_4_);fill:#FFFFFF;}
	.st9{clip-path:url(#SVGID_4_);fill:#FFE474;}
	.st10{clip-path:url(#SVGID_4_);fill:#E7B623;}
</style>
<g>
	<defs>
		<rect id="SVGID_1_" width="147.5" height="147.5"/>
	</defs>
	<clipPath id="SVGID_2_">
		<use xlink:href="#SVGID_1_"  style="overflow:visible;"/>
	</clipPath>
</g>
<g>
	<defs>
		<circle id="SVGID_3_" cx="73.8" cy="73.8" r="73.8"/>
	</defs>
	<clipPath id="SVGID_4_">
		<use xlink:href="#SVGID_3_"  style="overflow:visible;"/>
	</clipPath>
	<polygon class="st0" points="68.1,58.9 65.6,65.3 64.7,67.4 63.5,70.4 58.1,84.3 48.9,107.7 45.5,108.3 56.4,80.5 62.4,65.3 
		65.3,57.8 	"/>
	<polygon class="st0" points="84.8,65.4 84.4,66.4 82.9,70.4 75.8,88.5 74.8,91 73.2,95 65,115.9 62.9,113.2 71.6,91 72.5,88.9 
		73.2,87 81.3,66.4 81.7,65.3 82.1,64.4 83.9,65.1 84.4,65.3 	"/>
	<polygon class="st1" points="82.1,64.4 62.9,113.2 57.7,106 48.9,107.7 68.1,58.9 	"/>
	<polygon class="st2" points="102,111.1 98.6,110.5 88.6,85.1 82.9,70.4 81.3,66.4 80.9,65.3 80.2,63.6 79.4,61.7 82.2,60.6 
		83.9,65.1 84,65.3 84.4,66.4 90.5,81.9 	"/>
	<polygon class="st2" points="62.7,68.2 82.5,118.7 84.6,116 65.4,67.1 	"/>
	<polygon class="st1" points="65.4,67.1 84.6,116 89.8,108.8 98.6,110.5 79.4,61.7 	"/>
	<polyline class="st3" points="58.7,82.8 58.1,84.3 58.1,84.3 58.7,82.8 	"/>
	<path class="st4" d="M56.8,79.4l-0.4,1.1c0.5,1.3,1,2.7,1.7,3.8l0.6-1.4C57.8,82,57.3,80.7,56.8,79.4"/>
	<path class="st5" d="M58.7,82.8l-0.6,1.4c0.3,0.4,0.6,0.8,1.1,1c0.5,0.3,1.2,0.4,1.9,0.4c0,0,0,0,0,0c0.7,0,1.5-0.1,2.3-0.3
		c0.8-0.1,1.6-0.3,2.4-0.3c0.4,0,0.8,0,1.2,0.1c1.1,0.3,2.2,1.2,3.2,2.1l0,0c0,0,0,0,0,0L69,84.4c-0.7-0.5-1.4-1-2.1-1.1
		c-0.4-0.1-0.8-0.1-1.2-0.1c-0.8,0-1.6,0.1-2.4,0.3c-0.8,0.1-1.6,0.3-2.3,0.3c-0.7,0-1.3-0.1-1.9-0.4C59,83.1,58.8,82.9,58.7,82.8"
		/>
	<path class="st6" d="M90.1,80.8c-0.4,1-1,1.9-1.8,2.3c-0.1,0.1-0.3,0.1-0.4,0.2l0.7,1.7c0.9-0.7,1.4-1.9,1.9-3.2L90.1,80.8z"/>
	<path class="st6" d="M69,84.4l1.2,3.1c0.7,0.6,1.5,1.1,2.2,1.5c0.4,0.2,0.9,0.3,1.3,0.3c0.1,0,0.2,0,0.3,0L73.2,87
		C71.7,86.8,70.4,85.4,69,84.4"/>
	<path class="st5" d="M81.7,83.1c-0.4,0-0.8,0-1.2,0.1c-2.3,0.6-4.3,3.8-6.8,3.8c-0.2,0-0.4,0-0.5,0l0.8,2.1c0,0,0,0,0,0
		c0.6-0.1,1.2-0.3,1.7-0.6c1.6-1,3.1-2.8,4.8-3.2c0.4-0.1,0.8-0.1,1.2-0.1c0.8,0,1.6,0.1,2.4,0.3c0.8,0.1,1.6,0.3,2.3,0.3
		c0,0,0,0,0,0c0.7,0,1.3-0.1,1.8-0.4c0.1-0.1,0.2-0.1,0.3-0.2l0,0l-0.7-1.7c-0.5,0.2-1,0.2-1.5,0.2c-0.7,0-1.5-0.1-2.3-0.3
		C83.3,83.2,82.5,83.1,81.7,83.1"/>
	<path class="st7" d="M44.6,57.9c0-2.5,3.2-4.5,3.8-6.8c0.6-2.4-1.1-5.7,0.1-7.8c1.2-2.1,5-2.2,6.7-3.9c1.7-1.7,1.8-5.5,3.9-6.7
		c1.1-0.7,2.7-0.4,4.2-0.2c1.3,0.2,2.5,0.4,3.6,0.1c2.3-0.6,4.3-3.8,6.8-3.8c2.5,0,4.5,3.2,6.8,3.8c1.1,0.3,2.3,0.1,3.6-0.1
		c1.5-0.2,3.1-0.5,4.2,0.2c2.1,1.2,2.2,5,3.9,6.7c1.7,1.7,5.5,1.8,6.7,3.9c1.2,2.1-0.6,5.4,0.1,7.8c0.6,2.3,3.8,4.3,3.8,6.8
		c0,2.5-3.2,4.5-3.8,6.8c-0.6,2.4,1.1,5.7-0.1,7.8c-1.2,2.1-5,2.2-6.7,3.9c-1.7,1.7-1.8,5.5-3.9,6.7c-1.1,0.7-2.7,0.4-4.2,0.2
		c-1.3-0.2-2.5-0.4-3.6-0.1c-2.3,0.6-4.3,3.8-6.8,3.8c-2.5,0-4.5-3.2-6.8-3.8c-1.1-0.3-2.3-0.1-3.6,0.1c-1.5,0.2-3.1,0.5-4.2-0.2
		c-2.1-1.2-2.2-5-3.9-6.7c-1.7-1.7-5.5-1.8-6.7-3.9c-1.2-2.1,0.6-5.4-0.1-7.8C47.8,62.4,44.6,60.4,44.6,57.9"/>
	<path class="st7" d="M48.5,57.9c0-14,11.3-25.3,25.3-25.3S99,43.9,99,57.9S87.7,83.2,73.7,83.2S48.5,71.9,48.5,57.9"/>
	<polygon class="st8" points="73.8,41.8 77.5,53.2 89.5,53.2 79.8,60.2 83.5,71.6 73.8,64.6 64,71.6 67.7,60.2 58,53.2 70,53.2 	"/>
	<path class="st9" d="M73.8,79.3c-11.8,0-21.4-9.6-21.4-21.4S62,36.6,73.8,36.6s21.4,9.6,21.4,21.4S85.5,79.3,73.8,79.3 M73.8,32.6
		c-14,0-25.3,11.3-25.3,25.3s11.3,25.3,25.3,25.3S99,71.9,99,57.9S87.7,32.6,73.8,32.6"/>
	<path class="st10" d="M73.8,36.6c-11.8,0-21.4,9.6-21.4,21.4c0,0.2,0,0.4,0,0.6c0.3-11.5,9.7-20.8,21.3-20.8s21,9.3,21.3,20.8
		c0-0.2,0-0.4,0-0.6C95.1,46.1,85.5,36.6,73.8,36.6"/>
</g>
</svg>
