<?xml version="1.0" encoding="utf-8"?>
<!-- Generator: Adobe Illustrator 19.0.0, SVG Export Plug-In . SVG Version: 6.00 Build 0)  -->
<svg version="1.1" id="Layer_1" xmlns="http://www.w3.org/2000/svg" xmlns:xlink="http://www.w3.org/1999/xlink" x="0px" y="0px"
	 viewBox="0 0 147.5 147.5" style="enable-background:new 0 0 147.5 147.5;" xml:space="preserve">
<style type="text/css">
	.st0{clip-path:url(#SVGID_2_);fill:#AC5D27;}
	.st1{clip-path:url(#SVGID_2_);fill:#F7F8F8;}
	.st2{clip-path:url(#SVGID_2_);fill:#FDC79A;}
	.st3{clip-path:url(#SVGID_2_);fill:#FEDABA;}
	.st4{clip-path:url(#SVGID_2_);fill:#414141;}
	.st5{clip-path:url(#SVGID_2_);fill:#39312B;}
	.st6{clip-path:url(#SVGID_2_);fill:#FAC425;}
</style>
<g>
	<defs>
		<rect id="SVGID_1_" x="38" y="28.5" width="72.2" height="97.5"/>
	</defs>
	<clipPath id="SVGID_2_">
		<use xlink:href="#SVGID_1_"  style="overflow:visible;"/>
	</clipPath>
	<path class="st0" d="M92.2,59.9c-0.6,0.9-1.5,1.5-2.5,1.6l0,0.6c0,7.3-4.1,13.6-10.2,15.9v1.9c3.5,5.1,9,7.8,13.6,6
		c5.8-2.2,8-10.4,5-18.4c-0.9-2.4-2.2-4.5-3.7-6.2c-0.2,0.7-0.4,1.4-0.7,2.1C93.6,63.4,93.1,62,92.2,59.9"/>
	<path class="st1" d="M74.1,104.4c3.6-5.8,6.6-12.1,9.3-17.7c0,0,0,0,0,0c-2-1.3-4-2.6-4-3.8v-2.5c-1.6,0.6-3.4,1-5.3,1
		c-1.9,0-3.7-0.3-5.3-1v2.5c0,1.2-1.9,2.6-4,3.8c0,0,0,0,0,0C67.5,91.9,69.2,96.8,74.1,104.4"/>
	<path class="st2" d="M59.9,63l-0.5-10h-0.6c0.3,3,0.4,5.4,0.3,8.5c-0.2,0-0.4,0.1-0.6,0.1c0.1,1.1,0.2,2.3,0.3,3.4
		c0,0-0.1,0-0.1-0.1c0.9,6.1,4.7,11.1,10,13.1v-0.8C63.4,74.9,59.9,69.4,59.9,63"/>
	<path class="st2" d="M58.7,51.4h0.7l-0.1-3c-0.3,0.8-0.5,1.7-0.6,2.6c0,0,0,0,0.1,0C58.7,51.1,58.7,51.3,58.7,51.4"/>
	<path class="st2" d="M89.6,62l0-0.6c-0.3,0-0.5,0-0.8-0.1c-0.1-1.9-0.1-3.5,0-5.2c-0.1-0.5-0.1-1.1-0.2-1.7L88.2,63
		c0,6.5-3.5,12-8.8,14.2V78C85.5,75.6,89.6,69.4,89.6,62"/>
	<path class="st2" d="M79.4,80.4v-0.5V78v-0.8c-1.6,0.7-3.4,1.1-5.3,1.1c-1.9,0-3.7-0.4-5.3-1.1V78v2.4c1.6,0.6,3.4,1,5.3,1
		C76,81.3,77.8,81,79.4,80.4"/>
	<path class="st3" d="M63.4,51.4c2.4-0.6,6.9-0.3,8.8,1c0.5,0.4,0.7,0.7,0.8,1.1h2.1c0.1-0.4,0.3-0.7,0.8-1.1c1.8-1.3,6.3-1.6,8.8-1
		h2.7c-3.3-4.7-7.7-9-13.3-9.6c3.5,1.4,4.1,3.6,5.3,6.5c-4.7-4.2-10.2-2.6-12.5-8c-4.2,1.9-6.5,4.6-7.6,8.1l0.1,3H63.4z"/>
	<path class="st3" d="M79.4,59.7c1.2,0.5,3.7,0.6,5.3-0.1c0.5-0.2,1.1-0.6,1.3-1.3c1-3.2,0.7-5-0.8-5.8c-1.7-0.9-7-0.7-8.8,0.6
		C76,53.5,76,53.9,76,54.1C76.2,55.5,77.4,58.9,79.4,59.7"/>
	<path class="st3" d="M63.5,59.6c1.7,0.8,4.1,0.7,5.3,0.1c1.9-0.9,3.1-4.2,3.4-5.7c0-0.2,0-0.6-0.5-0.9c-1-0.8-3.4-1.1-5.4-1.1
		c-1.4,0-2.7,0.2-3.4,0.5c-1.5,0.8-1.8,2.6-0.8,5.8C62.3,59,63,59.4,63.5,59.6"/>
	<path class="st3" d="M88.2,63l0.4-8.5c-0.1-0.5-0.1-1-0.2-1.5H87c1.1,1.8,0.3,4.5-0.1,5.6c-0.2,0.8-0.9,1.4-1.8,1.9
		c-0.9,0.4-2.1,0.6-3.3,0.6c-1,0-2-0.2-2.8-0.5c-2.2-1-3.6-4.5-3.9-6.2H73c-0.3,1.7-1.7,5.2-3.9,6.2c-0.8,0.3-1.8,0.5-2.8,0.5
		c-1.2,0-2.4-0.2-3.3-0.6c-1-0.4-1.6-1.1-1.8-1.9c-0.4-1.2-1.2-3.8-0.1-5.6h-1.7l0.5,10c0,6.5,3.5,12,8.8,14.2
		c1.6,0.7,3.4,1.1,5.3,1.1c1.9,0,3.7-0.4,5.3-1.1C84.7,74.9,88.2,69.4,88.2,63"/>
	<path class="st2" d="M88.8,56.2c-0.1,1.7-0.1,3.4,0,5.2c0.3,0.1,0.5,0.1,0.8,0.1c1.1-0.1,1.9-0.7,2.5-1.6c-0.3-0.8-0.8-1.6-1.2-2.6
		c-0.6,1.1-1.2,2.1-1.8,2.8C89.1,60.1,89.1,58.5,88.8,56.2"/>
	<path class="st2" d="M58.6,61.5c0.2,0,0.4,0,0.6-0.1c0.2-3,0-5.5-0.3-8.5h-0.5C58.2,55.6,58.3,58.5,58.6,61.5"/>
	<path class="st2" d="M58.7,51C58.7,51,58.6,51,58.7,51c-0.1,0.1-0.1,0.2-0.1,0.3h0.1C58.7,51.3,58.7,51.1,58.7,51"/>
	<path class="st4" d="M62.9,52.5c0.7-0.4,2-0.5,3.4-0.5c2,0,4.4,0.4,5.4,1.1c0.5,0.4,0.5,0.7,0.5,0.9c-0.3,1.4-1.5,4.8-3.4,5.7
		c-1.2,0.5-3.7,0.6-5.3-0.1c-0.5-0.2-1.1-0.6-1.3-1.3C61.1,55.1,61.4,53.4,62.9,52.5 M76.5,53.2c1.8-1.3,7.1-1.5,8.8-0.6
		c1.5,0.8,1.8,2.6,0.8,5.8c-0.2,0.7-0.8,1.1-1.3,1.3c-1.7,0.8-4.1,0.7-5.3,0.1c-1.9-0.9-3.1-4.2-3.4-5.7C76,53.9,76,53.5,76.5,53.2
		 M61.2,58.6c0.2,0.8,0.9,1.4,1.8,1.9c0.9,0.4,2.1,0.6,3.3,0.6c1,0,2-0.2,2.8-0.5c2.2-1,3.6-4.5,3.9-6.2h2.1
		c0.3,1.7,1.7,5.2,3.9,6.2c0.8,0.3,1.8,0.5,2.8,0.5c1.2,0,2.4-0.2,3.3-0.6c1-0.4,1.6-1.1,1.8-1.9c0.4-1.2,1.2-3.8,0.1-5.6h1.4
		c0-0.1,0-0.1,0-0.2c-0.3-0.5-0.6-0.9-0.9-1.4h-2.7c-2.4-0.6-6.9-0.3-8.8,1c-0.5,0.4-0.7,0.7-0.8,1.1H73c-0.1-0.4-0.3-0.7-0.8-1.1
		c-1.8-1.3-6.3-1.6-8.8-1h-4h-0.7h-0.1c-0.1,0.5-0.1,1.1-0.2,1.6h0.5h0.6h1.7C60.1,54.8,60.9,57.4,61.2,58.6"/>
	<path class="st5" d="M88.6,54.5c0.1,0.6,0.2,1.2,0.2,1.7c0.3,2.3,0.3,3.9,0.3,3.9c0.6-0.7,1.3-1.7,1.8-2.8c-0.7-1.4-1.6-3-2.6-4.6
		c0,0.1,0,0.1,0,0.2C88.5,53.5,88.5,54,88.6,54.5"/>
	<path class="st0" d="M58.6,61.5c-0.3-3-0.4-5.9-0.2-8.5c0-0.5,0.1-1.1,0.2-1.6c0-0.1,0-0.2,0.1-0.3c0.2-0.9,0.4-1.8,0.6-2.6
		c1.1-3.4,3.4-6.2,7.6-8.1c2.3,5.4,7.8,3.7,12.5,8c-1.1-3-1.7-5.2-5.3-6.5c5.6,0.6,10.1,4.9,13.3,9.6c0.3,0.5,0.6,0.9,0.9,1.4
		c1,1.6,1.9,3.1,2.6,4.6c0.5,0.9,0.9,1.8,1.2,2.6c0.9,2.1,1.4,3.5,1.4,3.5c0.3-0.7,0.5-1.4,0.7-2.1c7.4-25.1-18-40.4-32-28.8
		c-18.4,2.7-8.5,29.4-3.6,32.4c0,0,0.1,0,0.1,0.1C58.8,63.8,58.6,62.6,58.6,61.5"/>
	<path class="st6" d="M74.1,126c13.7,0,26.3-4.8,36.1-12.9c-0.6-3.1-1.2-5.7-1.8-8c-1.5-6-3.6-9.1-6.1-10.8c0,0,0,0,0,0
		c-3.8-3-10.8-2.7-18.9-7.6c0,0,0,0,0,0c-2.7,5.6-5.7,11.8-9.3,17.7c-4.9-7.6-6.6-12.5-9.3-17.7c0,0,0,0,0,0c-8.3,5-16,4.9-19.7,8.3
		c-2.1,1.8-3.9,4.8-5.3,10.2c-0.6,2.3-1.2,4.9-1.8,8C47.8,121.2,60.4,126,74.1,126"/>
</g>
</svg>
