<?xml version="1.0" encoding="utf-8"?>
<!-- Generator: Adobe Illustrator 19.0.0, SVG Export Plug-In . SVG Version: 6.00 Build 0)  -->
<svg version="1.1" id="Layer_1" xmlns="http://www.w3.org/2000/svg" xmlns:xlink="http://www.w3.org/1999/xlink" x="0px" y="0px"
	 viewBox="0 0 89 89" style="enable-background:new 0 0 89 89;" xml:space="preserve">
<style type="text/css">
	.st0{clip-path:url(#SVGID_2_);fill:#D2B182;}
	.st1{clip-path:url(#SVGID_2_);fill:#F9C426;}
	.st2{clip-path:url(#SVGID_2_);fill:#FFE374;}
	.st3{clip-path:url(#SVGID_2_);fill:#6A6761;}
	.st4{fill:#CDCCCC;}
	.st5{clip-path:url(#SVGID_4_);fill:#F7ABC1;}
	.st6{clip-path:url(#SVGID_4_);fill:#D2B182;}
	.st7{clip-path:url(#SVGID_4_);fill:#F9C426;}
	.st8{clip-path:url(#SVGID_4_);fill:#FFE374;}
	.st9{clip-path:url(#SVGID_4_);fill:#6A6761;}
	.st10{clip-path:url(#SVGID_6_);fill:#F7ABC1;}
</style>
<g>
	<defs>
		<rect id="SVGID_1_" width="89" height="89"/>
	</defs>
	<clipPath id="SVGID_2_">
		<use xlink:href="#SVGID_1_"  style="overflow:visible;"/>
	</clipPath>
	<path class="st0" d="M64.6,29.8l2.1-6.2c-0.3-0.1-0.6-0.3-0.8-0.5c-0.2-0.2-0.4-0.5-0.5-0.8l-6.3,2.1l-1.9,1.9l5.5,5.5L64.6,29.8z"
		/>
	<path class="st1" d="M60.2,26c-0.4-0.1-0.8-0.5-0.9-0.9l-0.2-0.8L23,60.5c0.3,0.3,0.5,0.7,0.9,1c0.3,0.3,0.6,0.6,1,0.9L61,26.2
		L60.2,26z"/>
	<path class="st2" d="M62.8,28L62,27.8c-0.4-0.1-0.8-0.5-0.8-0.8L61,26.2h0L24.8,62.3c0.8,0.6,1.5,1,2.3,1.3L62.8,28L62.8,28z"/>
	<path class="st1" d="M63.8,29.6c-0.4-0.1-0.8-0.5-0.9-0.9L62.8,28L27.1,63.7c1.6,0.6,3.1,0.6,3.9-0.3l33.6-33.6L63.8,29.6z"/>
	<path class="st3" d="M66.7,23.6c-0.3-0.1-0.6-0.3-0.8-0.5c-0.2-0.2-0.4-0.5-0.5-0.8l2-0.7L66.7,23.6z"/>
</g>
<rect x="23.6" y="60.2" transform="matrix(0.7071 0.7071 -0.7071 0.7071 51.5223 -1.4417)" class="st4" width="7.7" height="2.5"/>
<g>
	<defs>
		<rect id="SVGID_3_" width="89" height="89"/>
	</defs>
	<clipPath id="SVGID_4_">
		<use xlink:href="#SVGID_3_"  style="overflow:visible;"/>
	</clipPath>
	<path class="st5" d="M24.3,66.6l-1.9-1.9c-1-1-1-2.6,0-3.6l1.5-1.5l5.5,5.5l-1.5,1.5C26.8,67.6,25.2,67.6,24.3,66.6"/>
	<path class="st6" d="M31.5,24.4l-6.2-2.1c-0.1,0.3-0.3,0.6-0.5,0.8c-0.2,0.2-0.5,0.4-0.8,0.5l2.1,6.3l1.9,1.9l5.5-5.5L31.5,24.4z"
		/>
	<path class="st7" d="M27.7,28.8c-0.1,0.4-0.5,0.8-0.9,0.9L26,29.8L62.2,66c0.3-0.3,0.7-0.5,1-0.9c0.3-0.3,0.6-0.6,0.9-1L27.9,28
		L27.7,28.8z"/>
	<path class="st8" d="M29.7,26.2L29.5,27c-0.1,0.4-0.5,0.8-0.8,0.8L27.9,28v0L64,64.2c0.6-0.8,1-1.5,1.3-2.3L29.7,26.2L29.7,26.2z"
		/>
	<path class="st7" d="M31.3,25.1c-0.1,0.4-0.5,0.8-0.9,0.9l-0.8,0.2l35.7,35.7c0.6-1.6,0.6-3.1-0.3-3.9L31.5,24.4L31.3,25.1z"/>
	<path class="st9" d="M25.3,22.2c-0.1,0.3-0.3,0.6-0.5,0.8c-0.2,0.2-0.5,0.4-0.8,0.5l-0.7-2L25.3,22.2z"/>
</g>
<rect x="59.3" y="60.2" transform="matrix(0.7071 -0.7071 0.7071 0.7071 -24.9675 62.667)" class="st4" width="7.7" height="2.5"/>
<g>
	<defs>
		<rect id="SVGID_5_" width="89" height="89"/>
	</defs>
	<clipPath id="SVGID_6_">
		<use xlink:href="#SVGID_5_"  style="overflow:visible;"/>
	</clipPath>
	<path class="st10" d="M68.3,64.7l-1.9,1.9c-1,1-2.6,1-3.6,0l-1.5-1.5l5.5-5.5l1.5,1.5C69.3,62.1,69.3,63.7,68.3,64.7"/>
</g>
</svg>
