<svg version="1.1" id="Layer_1" xmlns="http://www.w3.org/2000/svg" xmlns:xlink="http://www.w3.org/1999/xlink" x="0" y="0" viewBox="0 0 868.9 709.9" xml:space="preserve"><style>.st1{fill:#f1f2f2}.st3{fill:none;stroke:#604a9e;stroke-width:3;stroke-linecap:round;stroke-linejoin:round;stroke-miterlimit:10}.st5,.st6{clip-path:url(#SVGID_2_);fill:#f1f2f2}.st6{fill:none;stroke:#604a9e;stroke-width:3;stroke-linecap:round;stroke-linejoin:round;stroke-miterlimit:10}.st7{opacity:.31}.st8,.st9{clip-path:url(#SVGID_4_);fill:#f1f2f2}.st9{fill:none;stroke:#604a9e;stroke-width:3;stroke-linecap:round;stroke-linejoin:round;stroke-miterlimit:10}.st10,.st11{clip-path:url(#SVGID_6_);fill:#f1f2f2}.st11{fill:none;stroke:#604a9e;stroke-width:3;stroke-linecap:round;stroke-linejoin:round;stroke-miterlimit:10}</style><path d="M773.7 277c26.3-11.8 38.3-42.6 26.7-69.1-9.6-22.1-32.6-34.3-55.4-31.2 11.2-20.1 8.3-46-8.7-63-17.1-17.1-42.9-20-63-8.7 3.1-22.8-9.1-45.8-31.2-55.4-26.5-11.5-57.3.4-69.1 26.7-.6-29-24-52.3-52.9-52.3s-52.4 23.3-52.8 52.1c-11.8-26.3-42.6-38.3-69.1-26.7C376 59 363.8 82 366.9 104.8c-20.1-11.2-45.9-8.3-63 8.7-17.1 17.1-20 42.9-8.7 63-22.8-3.1-45.8 9.1-55.4 31.2-11.5 26.5.4 57.3 26.7 69.1-28.8.4-52.1 23.8-52.1 52.8 0 28.9 23.3 52.4 52.1 52.8-26.3 11.8-38.3 42.6-26.7 69.1 9.6 22.2 32.6 34.3 55.4 31.2-11.2 20.1-8.3 46 8.7 63 17.1 17.1 42.9 20 63 8.7-3.1 22.8 9.1 45.8 31.2 55.4 26.5 11.5 57.3-.4 69.1-26.7.4 28.8 23.8 52.1 52.8 52.1 28.9 0 52.4-23.3 52.8-52.1 11.8 26.3 42.6 38.3 69.1 26.7 22.2-9.6 34.3-32.6 31.2-55.4 20.1 11.2 46 8.3 63-8.7 17.1-17.1 20-42.9 8.7-63 22.8 3.1 45.8-9.1 55.4-31.2 11.5-26.5-.4-57.3-26.7-69.1 28.8-.4 52.1-23.8 52.1-52.8.1-28.8-23.1-52.2-51.9-52.6" fill="#f58220"/><path class="st1" d="M50.1 390.7c0-.5.3-1 .8-1.3 29.2-16.9 108.1-62.5 187.9-108.5 47.7-27.6 95.8-55.3 133.6-77.2 0 0 .1 0 .1-.1s.1 0 .1 0c27.3-15.8 49.2-28.4 61.8-35.7l116.3-67.1c.5-.3 1-.3 1.5 0l178.2 102.9c.3.2.6.5.7.9 0 .1.1.3.1.4v183.7c0 .5-.3 1-.8 1.3l-6.4 3.7-172 99.1c-19.3 11.2-89.6 51.7-160 92.4-70.9 41-142.1 82.1-161.5 93.3-.2.1-.5.2-.7.2-.3 0-.5-.1-.8-.2L57.2 579.4l-6.4-3.7c-.5-.3-.8-.8-.8-1.3l.1-183.7z"/><path d="M50.1 390.7c0-.5.3-1 .8-1.3 29.2-16.9 108.1-62.5 187.9-108.5 47.7-27.6 95.8-55.3 133.6-77.2 0 0 .1 0 .1-.1s.1 0 .1 0c27.3-15.8 49.2-28.4 61.8-35.7l116.3-67.1c.5-.3 1-.3 1.5 0l178.2 102.9s0 0 0 0c.3.2.6.5.7.9 0 .1.1.3.1.4v183.7c0 .5-.3 1-.8 1.3l-6.4 3.7-172 99.1s0 0 0 0h0c-19.3 11.2-89.6 51.7-160 92.4-70.9 41-142.1 82.1-161.5 93.3h0c-.2.1-.5.2-.7.2-.3 0-.5-.1-.8-.2 0 0 0 0 0 0L57.2 579.4s0 0 0 0l-6.4-3.7c-.5-.3-.8-.8-.8-1.3l.1-183.7z" fill="none" stroke="#fff" stroke-width="11" stroke-linecap="round" stroke-linejoin="round" stroke-miterlimit="10"/><path class="st1" d="M379.4 208.6v183.7c-2.1-1.2-4.2-2.5-6.4-3.7V204.9c2.2 1.3 4.3 2.5 6.4 3.7"/><path class="st3" d="M379.4 208.6v183.7c-2.1-1.2-4.2-2.5-6.4-3.7V204.9c2.2 1.3 4.3 2.5 6.4 3.7z"/><path class="st1" d="M551.3 109.4v183.7c57.3 33.1 114.6 66.1 171.8 99.2V208.6c-57.3-33.1-114.5-66.1-171.8-99.2"/><path class="st3" d="M551.3 109.4v183.7c57.3 33.1 114.6 66.1 171.8 99.2V208.6c-57.3-33.1-114.5-66.1-171.8-99.2z"/><path class="st1" d="M551.3 491.5c-57.3-33.1-114.6-66.1-171.8-99.2v-7.7c57.3 33.2 114.6 66.3 171.9 99.5-.1 2.5-.1 5-.1 7.4"/><path class="st3" d="M551.3 491.5c-57.3-33.1-114.6-66.1-171.8-99.2v-7.7c57.3 33.2 114.6 66.3 171.9 99.5-.1 2.5-.1 5-.1 7.4z"/><path class="st1" d="M729.5 204.9v183.7c-2.1 1.2-4.2 2.4-6.4 3.7V208.6c2.1-1.2 4.3-2.4 6.4-3.7"/><path class="st3" d="M729.5 204.9v183.7c-2.1 1.2-4.2 2.4-6.4 3.7V208.6c2.1-1.2 4.3-2.4 6.4-3.7z"/><path class="st1" d="M58 394.4v183.7c-2.1-1.2-4.2-2.4-6.4-3.7V390.7c2.1 1.2 4.2 2.4 6.4 3.7"/><path class="st3" d="M58 394.4v183.7c-2.1-1.2-4.2-2.4-6.4-3.7V390.7c2.1 1.2 4.2 2.4 6.4 3.7z"/><path class="st1" d="M57.9 578.1V394.4c57.3-33.1 319.8-184.8 377.1-217.8 38.8-22.4 77.5-44.8 116.3-67.1v183.7c-38.8 22.4-77.5 44.8-116.3 67.1-57.3 33-319.8 184.7-377.1 217.8"/><path class="st3" d="M57.9 578.1V394.4c57.3-33.1 319.8-184.8 377.1-217.8 38.8-22.4 77.5-44.8 116.3-67.1v183.7c-38.8 22.4-77.5 44.8-116.3 67.1-57.3 33-319.8 184.7-377.1 217.8z"/><path class="st1" d="M51.6 390.7c59.4-34.3 324-187.2 383.4-221.5 38.8-22.4 77.5-44.8 116.3-67.1L729.5 205c-2.1 1.2-4.2 2.5-6.4 3.7-57.3-33.1-114.6-66.1-171.8-99.2-57.3 33.1-114.6 66.1-171.8 99.2C340.7 231 96.7 372 58 394.4c-2.2-1.3-4.3-2.5-6.4-3.7"/><path class="st3" d="M51.6 390.7c59.4-34.3 324-187.2 383.4-221.5 38.8-22.4 77.5-44.8 116.3-67.1L729.5 205c-2.1 1.2-4.2 2.5-6.4 3.7-57.3-33.1-114.6-66.1-171.8-99.2-57.3 33.1-114.6 66.1-171.8 99.2C340.7 231 96.7 372 58 394.4c-2.2-1.3-4.3-2.5-6.4-3.7z"/><path class="st1" d="M58 570.7c2.1-1.2 4.2-2.4 6.4-3.7 55.2 31.8 110.3 63.7 165.5 95.5 36.6-21.2 278.5-160.9 315.1-182.1-55.2-31.8-110.3-63.7-165.5-95.5 2.1-1.2 4.2-2.4 6.4-3.7 55.2 31.8 110.3 63.7 165.5 95.5 16.4-9.5 32.8-18.9 49.2-28.4 38.8-22.4 77.5-44.8 116.3-67.1 2.1 1.2 4.2 2.5 6.4 3.7C666 418 608.7 451 551.5 484.1 512.7 506.5 268.8 647.5 230 669.9c-57.5-33-114.7-66.1-172-99.2"/><path class="st3" d="M58 570.7c2.1-1.2 4.2-2.4 6.4-3.7 55.2 31.8 110.3 63.7 165.5 95.5 36.6-21.2 278.5-160.9 315.1-182.1-55.2-31.8-110.3-63.7-165.5-95.5 2.1-1.2 4.2-2.4 6.4-3.7 55.2 31.8 110.3 63.7 165.5 95.5 16.4-9.5 32.8-18.9 49.2-28.4 38.8-22.4 77.5-44.8 116.3-67.1 2.1 1.2 4.2 2.5 6.4 3.7C666 418 608.7 451 551.5 484.1 512.7 506.5 268.8 647.5 230 669.9c-57.5-33-114.7-66.1-172-99.2z"/><path class="st1" d="M64.3 566.7c38.8-22.4 282.7-163.4 321.5-185.8 55.2-31.8 110.3-63.7 165.5-95.5 55.2 31.8 110.3 63.7 165.5 95.5-55.2 32-110.3 63.9-165.5 95.9-.1 0-.2-.1-.2-.1-38.7 22.4-282.6 163.5-321.3 185.9-55.2-31.9-110.3-63.9-165.5-95.9"/><path class="st3" d="M64.3 566.7c38.8-22.4 282.7-163.4 321.5-185.8 55.2-31.8 110.3-63.7 165.5-95.5 55.2 31.8 110.3 63.7 165.5 95.5-55.2 32-110.3 63.9-165.5 95.9-.1 0-.2-.1-.2-.1-38.7 22.4-282.6 163.5-321.3 185.9-55.2-31.9-110.3-63.9-165.5-95.9z"/><path class="st1" d="M229.8 677.3c-57.3-33.1-114.6-66.1-171.8-99.2v-7.7c57.3 33.2 114.6 66.3 171.9 99.5-.1 2.5-.1 4.9-.1 7.4"/><path class="st3" d="M229.8 677.3c-57.3-33.1-114.6-66.1-171.8-99.2v-7.7c57.3 33.2 114.6 66.3 171.9 99.5-.1 2.5-.1 4.9-.1 7.4z"/><path class="st1" d="M229.8 677.3v-7.4L607 452c38.8-22.4 77.5-44.8 116.3-67.1 0 2.5-.1 5-.1 7.4-57.3 33.1-114.6 66.1-171.8 99.2-38.9 22.4-282.9 163.4-321.6 185.8"/><path class="st3" d="M229.8 677.3v-7.4L607 452c38.8-22.4 77.5-44.8 116.3-67.1 0 2.5-.1 5-.1 7.4-57.3 33.1-114.6 66.1-171.8 99.2-38.9 22.4-282.9 163.4-321.6 185.8z"/><path class="st1" d="M716.9 327.5c-.1 18-.1 35.9-.2 53.9-3.5 2-6.9 4-10.4 6v-12c-38.1 21.8-76.2 43.7-114.2 65.5v12c-3.5 2-6.9 4-10.4 6 .1-18 .1-35.9.2-53.9 45-25.9 90-51.7 135-77.5"/><path class="st3" d="M716.9 327.5c-.1 18-.1 35.9-.2 53.9-3.5 2-6.9 4-10.4 6v-12c-38.1 21.8-76.2 43.7-114.2 65.5v12c-3.5 2-6.9 4-10.4 6 .1-18 .1-35.9.2-53.9 45-25.9 90-51.7 135-77.5z"/><path class="st1" d="M706.4 387.4c-3.5-2-6.9-4-10.4-6l10.4-6v12"/><path class="st3" d="M706.4 387.4c-3.5-2-6.9-4-10.4-6l10.4-6v12z"/><path class="st1" d="M581.9 404.9c-3.5-2-6.9-4-10.4-6v24c-12.1-7-24.2-14.1-36.3-21.1 0 10-.1 20-.1 30 3.5 2 6.9 4 10.4 6v-11.9c8.6 5 17.3 10 25.9 15v12c3.4 2 6.9 4 10.4 6 0-18 .1-36 .1-54"/><path class="st3" d="M581.9 404.9c-3.5-2-6.9-4-10.4-6v24c-12.1-7-24.2-14.1-36.3-21.1 0 10-.1 20-.1 30 3.5 2 6.9 4 10.4 6v-11.9c8.6 5 17.3 10 25.9 15v12c3.4 2 6.9 4 10.4 6 0-18 .1-36 .1-54z"/><path class="st1" d="M716.9 327.5c-3.5-2-6.9-4-10.4-6l-135 77.4c3.5 2 6.9 4 10.4 6l135-77.4"/><path class="st3" d="M716.9 327.5c-3.5-2-6.9-4-10.4-6l-135 77.4c3.5 2 6.9 4 10.4 6l135-77.4z"/><path class="st1" d="M535.3 401.8c3.5-2 6.9-4 10.4-6l25.9 15v12c-12.1-6.9-24.2-13.9-36.3-21"/><path class="st3" d="M535.3 401.8c3.5-2 6.9-4 10.4-6l25.9 15v12c-12.1-6.9-24.2-13.9-36.3-21z"/><path class="st1" d="M550.8 398.9c36.4-20.8 72.7-41.7 109.1-62.5 3.4 2 6.9 4 10.3 6L571.5 399v12c-6.9-4.1-13.8-8.1-20.7-12.1"/><path class="st3" d="M550.8 398.9c36.4-20.8 72.7-41.7 109.1-62.5 3.4 2 6.9 4 10.3 6L571.5 399v12c-6.9-4.1-13.8-8.1-20.7-12.1z"/><path class="st1" d="M665.1 327.4c5.2 3 10.4 6 15.5 9-3.5 2-6.9 4-10.4 6-5.2-3-10.4-6-15.5-9 3.5-2.1 6.9-4 10.4-6"/><path class="st3" d="M665.1 327.4c5.2 3 10.4 6 15.5 9-3.5 2-6.9 4-10.4 6-5.2-3-10.4-6-15.5-9 3.5-2.1 6.9-4 10.4-6z"/><path class="st1" d="M654.7 333.3v6c3.5 2 6.9 4 10.3 6 1.7-1 3.5-2 5.2-3-5.2-3-10.3-6-15.5-9"/><path class="st3" d="M654.7 333.3v6c3.5 2 6.9 4 10.3 6 1.7-1 3.5-2 5.2-3-5.2-3-10.3-6-15.5-9z"/><path class="st1" d="M545.5 437.8c3.5-2 6.9-4 10.4-5.9-3.5-2-6.9-4-10.4-6v11.9"/><path class="st3" d="M545.5 437.8c3.5-2 6.9-4 10.4-5.9-3.5-2-6.9-4-10.4-6v11.9z"/><path class="st1" d="M395.9 438.6v54.8c1.3.8 2.6 1.5 4 2.3v-54.8c-1.3-.8-2.7-1.5-4-2.3"/><path class="st3" d="M395.9 438.6v54.8c1.3.8 2.6 1.5 4 2.3v-54.8c-1.3-.8-2.7-1.5-4-2.3z"/><path class="st1" d="M399.9 440.9c1.3-.8 2.6-1.5 4-2.3v54.8c-1.3.8-2.6 1.5-4 2.3v-54.8z"/><path class="st3" d="M399.9 440.9c1.3-.8 2.6-1.5 4-2.3v54.8c-1.3.8-2.6 1.5-4 2.3v-54.8z"/><path class="st1" d="M395.9 438.6c1.3-.8 2.6-1.5 4-2.3 1.3.8 2.6 1.5 4 2.3-1.3.8-2.6 1.5-4 2.3-1.3-.8-2.7-1.5-4-2.3"/><path class="st3" d="M395.9 438.6c1.3-.8 2.6-1.5 4-2.3 1.3.8 2.6 1.5 4 2.3-1.3.8-2.6 1.5-4 2.3-1.3-.8-2.7-1.5-4-2.3z"/><path class="st1" d="M435.1 461.2V516c1.3.8 2.6 1.5 4 2.3v-54.8c-1.3-.7-2.6-1.5-4-2.3"/><path class="st3" d="M435.1 461.2V516c1.3.8 2.6 1.5 4 2.3v-54.8c-1.3-.7-2.6-1.5-4-2.3z"/><path class="st1" d="M439.1 463.5c1.3-.8 2.6-1.5 4-2.3V516c-1.3.8-2.6 1.5-4 2.3v-54.8z"/><path class="st3" d="M439.1 463.5c1.3-.8 2.6-1.5 4-2.3V516c-1.3.8-2.6 1.5-4 2.3v-54.8z"/><path class="st1" d="M435.1 461.2c1.3-.8 2.6-1.5 4-2.3 1.3.8 2.6 1.5 4 2.3-1.3.8-2.6 1.5-4 2.3-1.3-.7-2.6-1.5-4-2.3"/><path class="st3" d="M435.1 461.2c1.3-.8 2.6-1.5 4-2.3 1.3.8 2.6 1.5 4 2.3-1.3.8-2.6 1.5-4 2.3-1.3-.7-2.6-1.5-4-2.3z"/><path class="st1" d="M465.1 398.8v54.8c1.3.8 2.6 1.5 4 2.3V401c-1.4-.7-2.7-1.5-4-2.2"/><path class="st3" d="M465.1 398.8v54.8c1.3.8 2.6 1.5 4 2.3V401c-1.4-.7-2.7-1.5-4-2.2z"/><path class="st1" d="M469 401c1.3-.8 2.6-1.5 4-2.3v54.8c-1.3.8-2.6 1.5-4 2.3V401z"/><path class="st3" d="M469 401c1.3-.8 2.6-1.5 4-2.3v54.8c-1.3.8-2.6 1.5-4 2.3V401z"/><path class="st1" d="M465.1 398.8c1.3-.8 2.6-1.5 4-2.3 1.3.8 2.6 1.5 4 2.3-1.3.8-2.6 1.5-4 2.3-1.4-.8-2.7-1.6-4-2.3"/><path class="st3" d="M465.1 398.8c1.3-.8 2.6-1.5 4-2.3 1.3.8 2.6 1.5 4 2.3-1.3.8-2.6 1.5-4 2.3-1.4-.8-2.7-1.6-4-2.3z"/><path class="st1" d="M504.3 421.4v54.8c1.3.8 2.6 1.5 4 2.3v-54.8c-1.4-.8-2.7-1.5-4-2.3"/><path class="st3" d="M504.3 421.4v54.8c1.3.8 2.6 1.5 4 2.3v-54.8c-1.4-.8-2.7-1.5-4-2.3z"/><path class="st1" d="M508.3 423.7c1.3-.8 2.6-1.5 4-2.3v54.8c-1.3.8-2.6 1.5-4 2.3v-54.8z"/><path class="st3" d="M508.3 423.7c1.3-.8 2.6-1.5 4-2.3v54.8c-1.3.8-2.6 1.5-4 2.3v-54.8z"/><path class="st1" d="M504.3 421.4c1.3-.8 2.6-1.5 4-2.3l4 2.3c-1.3.8-2.6 1.5-4 2.3-1.4-.8-2.7-1.5-4-2.3"/><path class="st3" d="M504.3 421.4c1.3-.8 2.6-1.5 4-2.3l4 2.3c-1.3.8-2.6 1.5-4 2.3-1.4-.8-2.7-1.5-4-2.3z"/><path class="st1" d="M381.5 438.8v3.4c18.6 10.8 37.3 21.5 55.9 32.3v-3.4c-18.6-10.8-37.3-21.5-55.9-32.3"/><path class="st3" d="M381.5 438.8v3.4c18.6 10.8 37.3 21.5 55.9 32.3v-3.4c-18.6-10.8-37.3-21.5-55.9-32.3z"/><path class="st1" d="M381.5 438.8c29.4-17 58.9-34 88.3-51 18.6 10.8 37.3 21.5 55.9 32.3-29.4 17-58.9 34-88.3 51-18.6-10.8-37.3-21.5-55.9-32.3"/><path class="st3" d="M381.5 438.8c29.4-17 58.9-34 88.3-51 18.6 10.8 37.3 21.5 55.9 32.3-29.4 17-58.9 34-88.3 51-18.6-10.8-37.3-21.5-55.9-32.3z"/><path class="st1" d="M437.4 474.5c29.4-17 58.9-34 88.3-51v-3.4c-29.4 17-58.9 34-88.3 51v3.4"/><path class="st3" d="M437.4 474.5c29.4-17 58.9-34 88.3-51v-3.4c-29.4 17-58.9 34-88.3 51v3.4z"/><path class="st1" d="M483.9 465.9c0 9.3 0 18.7.1 28-.6-.4-1.1-.7-1.7-1.1-.1-9-.1-18-.2-26.9h1.8"/><path class="st3" d="M483.9 465.9c0 9.3 0 18.7.1 28-.6-.4-1.1-.7-1.7-1.1-.1-9-.1-18-.2-26.9h1.8z"/><path class="st1" d="M484 493.9c.6-.3 1.2-.7 1.8-1 0-9 0-18 .1-27H484v28"/><path class="st3" d="M484 493.9c.6-.3 1.2-.7 1.8-1 0-9 0-18 .1-27H484v28z"/><path class="st1" d="M501.1 474.5c0 9.3 0 18.7.1 28-.6-.4-1.1-.7-1.7-1.1-.1-9-.1-18-.2-26.9h1.8"/><path class="st3" d="M501.1 474.5c0 9.3 0 18.7.1 28-.6-.4-1.1-.7-1.7-1.1-.1-9-.1-18-.2-26.9h1.8z"/><path class="st1" d="M501.1 502.5c.6-.3 1.2-.7 1.8-1 0-9 0-18 .1-27h-1.9v28"/><path class="st3" d="M501.1 502.5c.6-.3 1.2-.7 1.8-1 0-9 0-18 .1-27h-1.9v28z"/><path class="st1" d="M518.2 465.9c0 9.3 0 18.7.1 28-.6-.4-1.1-.7-1.7-1.1-.1-9-.1-18-.2-26.9h1.8"/><path class="st3" d="M518.2 465.9c0 9.3 0 18.7.1 28-.6-.4-1.1-.7-1.7-1.1-.1-9-.1-18-.2-26.9h1.8z"/><path class="st1" d="M518.3 493.9c.6-.3 1.2-.7 1.8-1 0-9 0-18 .1-27h-1.9c-.1 9.3-.1 18.7 0 28"/><path class="st3" d="M518.3 493.9c.6-.3 1.2-.7 1.8-1 0-9 0-18 .1-27h-1.9c-.1 9.3-.1 18.7 0 28z"/><path class="st1" d="M522.5 467.4c-7.1-4.1-14.3-8.2-21.4-12.3-7.1 4.1-14.3 8.2-21.4 12.3 7.1 4.1 14.3 8.2 21.4 12.3 7.1-4 14.3-8.1 21.4-12.3"/><path class="st3" d="M522.5 467.4c-7.1-4.1-14.3-8.2-21.4-12.3-7.1 4.1-14.3 8.2-21.4 12.3 7.1 4.1 14.3 8.2 21.4 12.3 7.1-4 14.3-8.1 21.4-12.3z"/><path class="st1" d="M479.7 467.5v2.5c7.1 4.1 14.3 8.2 21.4 12.3v-2.5c-7.1-4.1-14.2-8.2-21.4-12.3"/><path class="st3" d="M479.7 467.5v2.5c7.1 4.1 14.3 8.2 21.4 12.3v-2.5c-7.1-4.1-14.2-8.2-21.4-12.3z"/><path class="st1" d="M501.1 482.3c7.1-4.1 14.3-8.3 21.4-12.4v-2.5c-7.1 4.1-14.3 8.3-21.4 12.4v2.5z"/><path class="st3" d="M501.1 482.3c7.1-4.1 14.3-8.3 21.4-12.4v-2.5c-7.1 4.1-14.3 8.3-21.4 12.4v2.5z"/><path class="st1" d="M501.1 479.8l4.3-27.2c.7-.4 1.5-.9 2.2-1.3-1.4 9.1-2.9 18.1-4.3 27.2-.7.5-1.5.9-2.2 1.3"/><path class="st3" d="M501.1 479.8l4.3-27.2c.7-.4 1.5-.9 2.2-1.3-1.4 9.1-2.9 18.1-4.3 27.2-.7.5-1.5.9-2.2 1.3z"/><path class="st1" d="M501.1 479.8c-.3-.2-.6-.4-1-.6 1.4-9 2.8-18.1 4.3-27.1.3.2.6.4 1 .6l-4.3 27.1z"/><path class="st3" d="M501.1 479.8c-.3-.2-.6-.4-1-.6 1.4-9 2.8-18.1 4.3-27.1.3.2.6.4 1 .6l-4.3 27.1z"/><path class="st1" d="M504.4 452.1c.3.2.6.4 1 .6.7-.4 1.5-.9 2.2-1.3l-1-.5c-.7.4-1.5.8-2.2 1.2"/><path class="st3" d="M504.4 452.1c.3.2.6.4 1 .6.7-.4 1.5-.9 2.2-1.3l-1-.5c-.7.4-1.5.8-2.2 1.2z"/><path class="st1" d="M520.3 468.8l4.3-27.2c.7-.4 1.5-.9 2.2-1.3-1.4 9.1-2.9 18.1-4.3 27.2-.7.4-1.5.9-2.2 1.3"/><path class="st3" d="M520.3 468.8l4.3-27.2c.7-.4 1.5-.9 2.2-1.3-1.4 9.1-2.9 18.1-4.3 27.2-.7.4-1.5.9-2.2 1.3z"/><path class="st1" d="M520.3 468.8c-.3-.2-.6-.4-1-.6 1.4-9 2.8-18.1 4.3-27.1.3.2.6.4 1 .6l-4.3 27.1z"/><path class="st3" d="M520.3 468.8c-.3-.2-.6-.4-1-.6 1.4-9 2.8-18.1 4.3-27.1.3.2.6.4 1 .6l-4.3 27.1z"/><path class="st1" d="M523.6 441.1c.3.2.6.4 1 .6.7-.4 1.5-.9 2.2-1.3l-1-.5c-.7.3-1.5.7-2.2 1.2"/><path class="st3" d="M523.6 441.1c.3.2.6.4 1 .6.7-.4 1.5-.9 2.2-1.3l-1-.5c-.7.3-1.5.7-2.2 1.2z"/><path class="st1" d="M507.6 451.4l17-9.8-.9 5.4c-5.7 3.3-11.3 6.5-17 9.8.4-1.8.6-3.6.9-5.4"/><path class="st3" d="M507.6 451.4l17-9.8-.9 5.4c-5.7 3.3-11.3 6.5-17 9.8.4-1.8.6-3.6.9-5.4z"/><path class="st1" d="M506.4 458.9c-.1.6-.2 1.3-.3 1.9 5.7-3.2 11.3-6.5 17-9.7.1-.6.2-1.3.3-1.9-5.7 3.2-11.3 6.4-17 9.7"/><path class="st3" d="M506.4 458.9c-.1.6-.2 1.3-.3 1.9 5.7-3.2 11.3-6.5 17-9.7.1-.6.2-1.3.3-1.9-5.7 3.2-11.3 6.4-17 9.7z"/><path class="st1" d="M506.6 450.8c5.7-3.3 11.4-6.5 17-9.8.3.2.6.4 1 .6l-17.8 10.3-.2-1.1z"/><path class="st3" d="M506.6 450.8c5.7-3.3 11.4-6.5 17-9.8.3.2.6.4 1 .6l-17.8 10.3-.2-1.1z"/><path class="st1" d="M523.4 449.2l-1-.5c-5.3 3-10.5 6.1-15.8 9.1l-.2 1.2c5.7-3.3 11.3-6.6 17-9.8"/><path class="st3" d="M523.4 449.2l-1-.5c-5.3 3-10.5 6.1-15.8 9.1l-.2 1.2c5.7-3.3 11.3-6.6 17-9.8z"/><path class="st1" d="M455 484.5c0 9.3 0 18.7.1 28-.6-.4-1.1-.7-1.7-1.1-.1-9-.1-18-.2-26.9h1.8"/><path class="st3" d="M455 484.5c0 9.3 0 18.7.1 28-.6-.4-1.1-.7-1.7-1.1-.1-9-.1-18-.2-26.9h1.8z"/><path class="st1" d="M455 512.6c.6-.3 1.2-.7 1.8-1 0-9 0-18 .1-27H455v28"/><path class="st3" d="M455 512.6c.6-.3 1.2-.7 1.8-1 0-9 0-18 .1-27H455v28z"/><path class="st1" d="M472.1 493.1c0 9.3 0 18.7.1 28-.6-.4-1.1-.7-1.7-1.1-.1-9-.1-18-.2-26.9h1.8"/><path class="st3" d="M472.1 493.1c0 9.3 0 18.7.1 28-.6-.4-1.1-.7-1.7-1.1-.1-9-.1-18-.2-26.9h1.8z"/><path class="st1" d="M472.2 521.2c.6-.3 1.2-.7 1.8-1 0-9 0-18 .1-27h-1.9c-.1 9.3-.1 18.6 0 28"/><path class="st3" d="M472.2 521.2c.6-.3 1.2-.7 1.8-1 0-9 0-18 .1-27h-1.9c-.1 9.3-.1 18.6 0 28z"/><path class="st1" d="M489.2 484.5c0 9.3 0 18.7.1 28-.6-.4-1.1-.7-1.7-1.1-.1-9-.1-18-.2-26.9h1.8"/><path class="st3" d="M489.2 484.5c0 9.3 0 18.7.1 28-.6-.4-1.1-.7-1.7-1.1-.1-9-.1-18-.2-26.9h1.8z"/><path class="st1" d="M489.3 512.6c.6-.3 1.2-.7 1.8-1 0-9 0-18 .1-27h-1.9c-.1 9.3 0 18.6 0 28"/><path class="st3" d="M489.3 512.6c.6-.3 1.2-.7 1.8-1 0-9 0-18 .1-27h-1.9c-.1 9.3 0 18.6 0 28z"/><path class="st1" d="M493.5 486.1c-7.1-4.1-14.3-8.2-21.4-12.3-7.1 4.1-14.3 8.2-21.4 12.3 7.1 4.1 14.3 8.2 21.4 12.3 7.2-4.1 14.3-8.2 21.4-12.3"/><path class="st3" d="M493.5 486.1c-7.1-4.1-14.3-8.2-21.4-12.3-7.1 4.1-14.3 8.2-21.4 12.3 7.1 4.1 14.3 8.2 21.4 12.3 7.2-4.1 14.3-8.2 21.4-12.3z"/><path class="st1" d="M450.7 486.1v2.5c7.1 4.1 14.3 8.2 21.4 12.3v-2.5c-7.1-4-14.2-8.2-21.4-12.3"/><path class="st3" d="M450.7 486.1v2.5c7.1 4.1 14.3 8.2 21.4 12.3v-2.5c-7.1-4-14.2-8.2-21.4-12.3z"/><path class="st1" d="M472.1 500.9l21.4-12.4V486c-7.1 4.1-14.3 8.3-21.4 12.4v2.5z"/><path class="st3" d="M472.1 500.9l21.4-12.4V486c-7.1 4.1-14.3 8.3-21.4 12.4v2.5z"/><path class="st1" d="M472.1 498.5c1.4-9.1 2.9-18.1 4.3-27.2.7-.4 1.5-.9 2.2-1.3-1.4 9.1-2.9 18.1-4.3 27.2-.7.4-1.4.8-2.2 1.3"/><path class="st3" d="M472.1 498.5c1.4-9.1 2.9-18.1 4.3-27.2.7-.4 1.5-.9 2.2-1.3-1.4 9.1-2.9 18.1-4.3 27.2-.7.4-1.4.8-2.2 1.3z"/><path class="st1" d="M472.1 498.5c-.3-.2-.6-.4-1-.6 1.4-9 2.8-18.1 4.3-27.1l1 .6c-1.4 9-2.8 18-4.3 27.1"/><path class="st3" d="M472.1 498.5c-.3-.2-.6-.4-1-.6 1.4-9 2.8-18.1 4.3-27.1l1 .6c-1.4 9-2.8 18-4.3 27.1z"/><path class="st1" d="M475.4 470.7l1 .6c.7-.4 1.5-.9 2.2-1.3-.4-.2-.7-.4-1-.5-.7.4-1.4.8-2.2 1.2"/><path class="st3" d="M475.4 470.7l1 .6c.7-.4 1.5-.9 2.2-1.3-.4-.2-.7-.4-1-.5-.7.4-1.4.8-2.2 1.2z"/><path class="st1" d="M491.3 487.4c1.4-9.1 2.9-18.1 4.3-27.2.7-.4 1.5-.9 2.2-1.3-1.4 9.1-2.9 18.1-4.3 27.2-.7.5-1.4.9-2.2 1.3"/><path class="st3" d="M491.3 487.4c1.4-9.1 2.9-18.1 4.3-27.2.7-.4 1.5-.9 2.2-1.3-1.4 9.1-2.9 18.1-4.3 27.2-.7.5-1.4.9-2.2 1.3z"/><path class="st1" d="M491.3 487.4c-.3-.2-.6-.4-1-.6 1.4-9 2.8-18.1 4.3-27.1l1 .6c-1.4 9-2.8 18.1-4.3 27.1"/><path class="st3" d="M491.3 487.4c-.3-.2-.6-.4-1-.6 1.4-9 2.8-18.1 4.3-27.1l1 .6c-1.4 9-2.8 18.1-4.3 27.1z"/><path class="st1" d="M494.6 459.7l1 .6c.7-.4 1.5-.9 2.2-1.3-.4-.2-.7-.4-1-.5-.7.3-1.4.8-2.2 1.2"/><path class="st3" d="M494.6 459.7l1 .6c.7-.4 1.5-.9 2.2-1.3-.4-.2-.7-.4-1-.5-.7.3-1.4.8-2.2 1.2z"/><path class="st1" d="M478.6 470c5.7-3.3 11.3-6.5 17-9.8l-.9 5.4c-5.7 3.3-11.3 6.5-17 9.8.4-1.8.7-3.6.9-5.4"/><path class="st3" d="M478.6 470c5.7-3.3 11.3-6.5 17-9.8l-.9 5.4c-5.7 3.3-11.3 6.5-17 9.8.4-1.8.7-3.6.9-5.4z"/><path class="st1" d="M477.5 477.5c-.1.6-.2 1.3-.3 1.9 5.7-3.2 11.3-6.5 17-9.7.1-.6.2-1.3.3-1.9-5.7 3.2-11.4 6.5-17 9.7"/><path class="st3" d="M477.5 477.5c-.1.6-.2 1.3-.3 1.9 5.7-3.2 11.3-6.5 17-9.7.1-.6.2-1.3.3-1.9-5.7 3.2-11.4 6.5-17 9.7z"/><path class="st1" d="M477.6 469.5c5.7-3.3 11.4-6.5 17-9.8l1 .6-17.8 10.3c-.1-.4-.1-.8-.2-1.1"/><path class="st3" d="M477.6 469.5c5.7-3.3 11.4-6.5 17-9.8l1 .6-17.8 10.3c-.1-.4-.1-.8-.2-1.1z"/><path class="st1" d="M494.4 467.8c-.3-.2-.6-.3-1-.5-5.3 3-10.5 6.1-15.8 9.1-.1.4-.1.8-.2 1.2l17-9.8z"/><path class="st3" d="M494.4 467.8c-.3-.2-.6-.3-1-.5-5.3 3-10.5 6.1-15.8 9.1-.1.4-.1.8-.2 1.2l17-9.8z"/><path class="st1" d="M469.6 323c-7.5-4.4-15.1-8.7-22.6-13.1v35.9c7.5 4.4 15.1 8.7 22.6 13.1V323"/><path class="st3" d="M469.6 323c-7.5-4.4-15.1-8.7-22.6-13.1v35.9c7.5 4.4 15.1 8.7 22.6 13.1V323z"/><path class="st1" d="M463.8 326.3c7.5-4.4 20.8-12 28.3-16.4v35.9c-5.9 3.4-15.2 8.8-22.6 13.1-7.5 4.4-15.1 8.7-22.6 13.1v-35.9c5.7-3.3 11.3-6.5 16.9-9.8"/><path class="st3" d="M463.8 326.3c7.5-4.4 20.8-12 28.3-16.4v35.9c-5.9 3.4-15.2 8.8-22.6 13.1-7.5 4.4-15.1 8.7-22.6 13.1v-35.9c5.7-3.3 11.3-6.5 16.9-9.8z"/><path class="st1" d="M446.9 336.1c-7.5-4.4-15.1-8.7-22.6-13.1v36c7.5 4.4 15.1 8.7 22.6 13.1v-36"/><path class="st3" d="M446.9 336.1c-7.5-4.4-15.1-8.7-22.6-13.1v36c7.5 4.4 15.1 8.7 22.6 13.1v-36z"/><path class="st1" d="M449.8 367.1v-29.4l39.6-22.9v29.4l-39.6 22.9z"/><path class="st3" d="M449.8 367.1v-29.4l39.6-22.9v29.4l-39.6 22.9z"/><path class="st1" d="M447 310c7.5-4.4 15-8.7 22.6-13.1 7.5 4.4 15.1 8.7 22.6 13.1-5.3 3.1-10.6 6.1-16 9.2h.1c-7.5 4.4-21.8 12.5-29.3 16.9-7.5-4.4-15.1-8.7-22.6-13.1 5.6-3.2 15-8.7 22.6-13"/><path class="st3" d="M447 310c7.5-4.4 15-8.7 22.6-13.1 7.5 4.4 15.1 8.7 22.6 13.1-5.3 3.1-10.6 6.1-16 9.2h.1c-7.5 4.4-21.8 12.5-29.3 16.9-7.5-4.4-15.1-8.7-22.6-13.1 5.6-3.2 15-8.7 22.6-13z"/><path class="st1" d="M450.4 345.9c13.2-7.5 25.8-14.6 39-22.1"/><path class="st3" d="M450.4 345.9c13.2-7.5 25.8-14.6 39-22.1"/><path class="st1" d="M450.3 356.1c13.2-7.5 25.8-14.6 39-22.1"/><path class="st3" d="M450.3 356.1c13.2-7.5 25.8-14.6 39-22.1"/><path class="st1" d="M461.5 334.9c5.6-3.3 11.2-6.5 16.8-9.8v1.1c-5.6 3.2-11.2 6.5-16.8 9.7v-1"/><path class="st3" d="M461.5 334.9c5.6-3.3 11.2-6.5 16.8-9.8v1.1c-5.6 3.2-11.2 6.5-16.8 9.7v-1z"/><path class="st1" d="M478.4 325.1c-.1-.1-.3-.2-.4-.2-5.6 3.2-11.2 6.5-16.9 9.7.2.1.3.2.5.3 5.5-3.3 11.1-6.5 16.8-9.8"/><path class="st3" d="M478.4 325.1c-.1-.1-.3-.2-.4-.2-5.6 3.2-11.2 6.5-16.9 9.7.2.1.3.2.5.3 5.5-3.3 11.1-6.5 16.8-9.8z"/><path class="st1" d="M461.1 334.6v1c.1.1.3.2.4.2v-1c-.1 0-.2-.1-.4-.2"/><path class="st3" d="M461.1 334.6v1c.1.1.3.2.4.2v-1c-.1 0-.2-.1-.4-.2z"/><path class="st1" d="M461.6 344.9c5.6-3.3 11.2-6.5 16.8-9.8v1.1l-16.8 9.7v-1"/><path class="st3" d="M461.6 344.9c5.6-3.3 11.2-6.5 16.8-9.8v1.1l-16.8 9.7v-1z"/><path class="st1" d="M478.4 335.1c-.1-.1-.3-.2-.4-.2-5.6 3.2-11.2 6.5-16.9 9.7.2.1.3.2.5.3 5.6-3.3 11.2-6.5 16.8-9.8"/><path class="st3" d="M478.4 335.1c-.1-.1-.3-.2-.4-.2-5.6 3.2-11.2 6.5-16.9 9.7.2.1.3.2.5.3 5.6-3.3 11.2-6.5 16.8-9.8z"/><path class="st1" d="M461.2 344.7v1c.1.1.3.2.4.2v-1c-.1-.1-.2-.2-.4-.2"/><path class="st3" d="M461.2 344.7v1c.1.1.3.2.4.2v-1c-.1-.1-.2-.2-.4-.2z"/><path class="st1" d="M461.6 354.7c5.6-3.3 11.2-6.5 16.8-9.8v1.1l-16.8 9.7v-1"/><path class="st3" d="M461.6 354.7c5.6-3.3 11.2-6.5 16.8-9.8v1.1l-16.8 9.7v-1z"/><path class="st1" d="M478.5 344.9c-.1-.1-.3-.2-.4-.2-5.6 3.2-11.2 6.5-16.9 9.7.2.1.3.2.5.3 5.5-3.3 11.2-6.5 16.8-9.8"/><path class="st3" d="M478.5 344.9c-.1-.1-.3-.2-.4-.2-5.6 3.2-11.2 6.5-16.9 9.7.2.1.3.2.5.3 5.5-3.3 11.2-6.5 16.8-9.8z"/><path class="st1" d="M461.2 354.4v1c.1.1.3.2.4.2v-1c-.1 0-.2-.1-.4-.2"/><path class="st3" d="M461.2 354.4v1c.1.1.3.2.4.2v-1c-.1 0-.2-.1-.4-.2z"/><path class="st1" d="M491.4 223.5v61c-24.5 14.1-48.9 28.2-73.4 42.4v-61c24.5-14.2 48.9-28.3 73.4-42.4"/><path class="st3" d="M491.4 223.5v61c-24.5 14.1-48.9 28.2-73.4 42.4v-61c24.5-14.2 48.9-28.3 73.4-42.4z"/><path class="st1" d="M491.4 223.5c-1-.6-2-1.1-2.9-1.7-24.5 14.1-48.9 28.2-73.4 42.4 1 .6 2 1.1 2.9 1.7 24.5-14.2 48.9-28.3 73.4-42.4"/><path class="st3" d="M491.4 223.5c-1-.6-2-1.1-2.9-1.7-24.5 14.1-48.9 28.2-73.4 42.4 1 .6 2 1.1 2.9 1.7 24.5-14.2 48.9-28.3 73.4-42.4z"/><path class="st1" d="M415.1 325.1v-61c1 .6 2 1.1 2.9 1.7v61c-.9-.6-1.9-1.1-2.9-1.7"/><path class="st3" d="M415.1 325.1v-61c1 .6 2 1.1 2.9 1.7v61c-.9-.6-1.9-1.1-2.9-1.7z"/><path class="st1" d="M488.5 228.5v50.8l-67.5 39v-50.8l67.5-39"/><path class="st3" d="M488.5 228.5v50.8l-67.5 39v-50.8l67.5-39z"/><path class="st1" d="M488.5 279.4c-.3-.2-.6-.3-.9-.5V229c.3-.2.6-.3.9-.5v50.9z"/><path class="st3" d="M488.5 279.4c-.3-.2-.6-.3-.9-.5V229c.3-.2.6-.3.9-.5v50.9z"/><path class="st1" d="M487.6 278.9c-22.2 12.8-44.4 25.7-66.6 38.5v.9l67.5-39c-.3-.1-.6-.3-.9-.4"/><path class="st3" d="M487.6 278.9c-22.2 12.8-44.4 25.7-66.6 38.5v.9l67.5-39c-.3-.1-.6-.3-.9-.4z"/><path class="st1" d="M464.9 299.7v10.2c-4.9 2.8-9.8 5.6-14.7 8.5v-10.2c5-2.9 9.9-5.7 14.7-8.5"/><path class="st3" d="M464.9 299.7v10.2c-4.9 2.8-9.8 5.6-14.7 8.5v-10.2c5-2.9 9.9-5.7 14.7-8.5z"/><path class="st1" d="M450.3 318.3c-1-.6-2-1.1-2.9-1.7v-6.8c1-.6 2-1.1 2.9-1.7v10.2z"/><path class="st3" d="M450.3 318.3c-1-.6-2-1.1-2.9-1.7v-6.8c1-.6 2-1.1 2.9-1.7v10.2z"/><path class="st1" d="M464.9 306.5c2 1.1 4 2.2 5.9 3.3-6.9 4-13.7 8-20.6 11.9l-5.9-3.4c1.1-.6 2.1-1.2 3.2-1.8.9.6 1.9 1.2 2.8 1.8 4.9-2.8 9.8-5.6 14.6-8.5.1-1.1.1-2.2 0-3.3"/><path class="st3" d="M464.9 306.5c2 1.1 4 2.2 5.9 3.3-6.9 4-13.7 8-20.6 11.9l-5.9-3.4c1.1-.6 2.1-1.2 3.2-1.8.9.6 1.9 1.2 2.8 1.8 4.9-2.8 9.8-5.6 14.6-8.5.1-1.1.1-2.2 0-3.3z"/><path class="st1" d="M470.9 309.8c0 1.2-.1 2.3-.1 3.5-6.8 4-13.7 7.9-20.5 11.9v-3.4c6.8-4.1 13.7-8 20.6-12"/><path class="st3" d="M470.9 309.8c0 1.2-.1 2.3-.1 3.5-6.8 4-13.7 7.9-20.5 11.9v-3.4c6.8-4.1 13.7-8 20.6-12z"/><path class="st1" d="M444.4 318.3v3.4c2 1.1 3.9 2.3 5.9 3.4v-3.4l-5.9-3.4z"/><path class="st3" d="M444.4 318.3v3.4c2 1.1 3.9 2.3 5.9 3.4v-3.4l-5.9-3.4z"/><path class="st1" d="M609.9 184.2v135.4c-11.9 6.9-23.9 13.8-35.8 20.7V204.9c11.9-6.9 23.9-13.8 35.8-20.7"/><path class="st3" d="M609.9 184.2v135.4c-11.9 6.9-23.9 13.8-35.8 20.7V204.9c11.9-6.9 23.9-13.8 35.8-20.7z"/><path class="st1" d="M609.9 184.2c-19.5-11.3-39.1-22.6-58.6-33.8-11.9 6.9-23.9 13.8-35.8 20.7 19.5 11.3 39.1 22.6 58.6 33.8 11.9-6.9 23.9-13.8 35.8-20.7"/><path class="st3" d="M609.9 184.2c-19.5-11.3-39.1-22.6-58.6-33.8-11.9 6.9-23.9 13.8-35.8 20.7 19.5 11.3 39.1 22.6 58.6 33.8 11.9-6.9 23.9-13.8 35.8-20.7z"/><path class="st1" d="M574.1 340.3c-19.5-11.3-39.1-22.6-58.6-33.8V171.1c19.5 11.3 39.1 22.6 58.6 33.8v135.4z"/><path class="st3" d="M574.1 340.3c-19.5-11.3-39.1-22.6-58.6-33.8V171.1c19.5 11.3 39.1 22.6 58.6 33.8v135.4z"/><path class="st1" d="M577.3 203l-58.6-33.8c-1.1.6-2.2 1.3-3.3 1.9 19.5 11.3 39.1 22.6 58.6 33.8 1.2-.6 2.2-1.3 3.3-1.9"/><path class="st3" d="M577.3 203l-58.6-33.8c-1.1.6-2.2 1.3-3.3 1.9 19.5 11.3 39.1 22.6 58.6 33.8 1.2-.6 2.2-1.3 3.3-1.9z"/><path class="st1" d="M577.3 203v135.4c-1.1.6-2.2 1.3-3.3 1.9V204.9c1.2-.6 2.2-1.3 3.3-1.9"/><path class="st3" d="M577.3 203v135.4c-1.1.6-2.2 1.3-3.3 1.9V204.9c1.2-.6 2.2-1.3 3.3-1.9z"/><path class="st1" d="M544.4 188h.6v135.4h-.6z"/><path class="st3" d="M544.4 188h.6v135.4h-.6z"/><path class="st1" d="M525.2 203v18.8c3.3 1.9 6.5 3.8 9.8 5.6v-18.8c-3.3-1.8-6.5-3.7-9.8-5.6"/><path class="st3" d="M525.2 203v18.8c3.3 1.9 6.5 3.8 9.8 5.6v-18.8c-3.3-1.8-6.5-3.7-9.8-5.6z"/><path class="st1" d="M526.5 206.2v13.9l7.2 4.2v-13.9l-7.2-4.2"/><path class="st3" d="M526.5 206.2v13.9l7.2 4.2v-13.9l-7.2-4.2z"/><path class="st1" d="M538.3 246.8l-2.1-1.2v36.2l2.1 1.2v-36.2z"/><path class="st3" d="M538.3 246.8l-2.1-1.2v36.2l2.1 1.2v-36.2z"/><path class="st1" d="M536.2 245.6l2.1-1.2 2.1 1.2-2.1 1.2-2.1-1.2"/><path class="st3" d="M536.2 245.6l2.1-1.2 2.1 1.2-2.1 1.2-2.1-1.2z"/><path class="st1" d="M540.3 245.6v36.2l-2.1 1.2v-36.2l2.1-1.2"/><path class="st3" d="M540.3 245.6v36.2l-2.1 1.2v-36.2l2.1-1.2z"/><path class="st1" d="M549.2 253l-2.1-1.2V288l2.1 1.2V253z"/><path class="st3" d="M549.2 253l-2.1-1.2V288l2.1 1.2V253z"/><path class="st1" d="M547.1 251.8l2.1-1.2 2.1 1.2-2.1 1.2-2.1-1.2"/><path class="st3" d="M547.1 251.8l2.1-1.2 2.1 1.2-2.1 1.2-2.1-1.2z"/><path class="st1" d="M551.3 251.8V288l-2.1 1.2V253l2.1-1.2"/><path class="st3" d="M551.3 251.8V288l-2.1 1.2V253l2.1-1.2z"/><path class="st1" d="M397.2 499.2v15c-31.7 18.3-63.4 36.6-95 54.9v-15l95-54.9z"/><path class="st3" d="M397.2 499.2v15c-31.7 18.3-63.4 36.6-95 54.9v-15l95-54.9z"/><path class="st1" d="M397.2 499.2c-37.4-21.6-74.9-43.2-112.3-64.8-31.7 18.3-63.4 36.6-95 54.9L302.2 554l95-54.8z"/><path class="st3" d="M397.2 499.2c-37.4-21.6-74.9-43.2-112.3-64.8-31.7 18.3-63.4 36.6-95 54.9L302.2 554l95-54.8z"/><path class="st1" d="M302.2 554v15c-37.4-21.6-74.9-43.2-112.3-64.8v-15L302.2 554z"/><path class="st3" d="M302.2 554v15c-37.4-21.6-74.9-43.2-112.3-64.8v-15L302.2 554z"/><path class="st1" d="M189.9 504.1c-2.9-1.7-5.8-3.3-8.6-5v-39.9c2.9 1.7 5.8 3.3 8.6 5v39.9"/><path class="st3" d="M189.9 504.1c-2.9-1.7-5.8-3.3-8.6-5v-39.9c2.9 1.7 5.8 3.3 8.6 5v39.9z"/><path class="st1" d="M284.9 409.4c-2.9-1.7-5.8-3.3-8.6-5-31.7 18.3-63.4 36.6-95 54.9 2.9 1.7 5.8 3.3 8.6 5 31.7-18.3 63.3-36.6 95-54.9"/><path class="st3" d="M284.9 409.4c-2.9-1.7-5.8-3.3-8.6-5-31.7 18.3-63.4 36.6-95 54.9 2.9 1.7 5.8 3.3 8.6 5 31.7-18.3 63.3-36.6 95-54.9z"/><path class="st1" d="M284.9 409.4v24.9c-31.7 18.3-63.4 36.6-95 54.9v-24.9c31.7-18.3 63.3-36.6 95-54.9"/><path class="st3" d="M284.9 409.4v24.9c-31.7 18.3-63.4 36.6-95 54.9v-24.9c31.7-18.3 63.3-36.6 95-54.9z"/><path class="st1" d="M388.6 499.2v-10c-28.8 16.6-57.6 33.3-86.4 49.9v10c28.8-16.7 57.6-33.3 86.4-49.9"/><path class="st3" d="M388.6 499.2v-10c-28.8 16.6-57.6 33.3-86.4 49.9v10c28.8-16.7 57.6-33.3 86.4-49.9z"/><path class="st1" d="M388.6 489.2c-34.6-19.9-69.1-39.9-103.7-59.9-28.8 16.6-57.6 33.3-86.4 49.9 34.6 19.9 69.1 39.9 103.7 59.8l86.4-49.8"/><path class="st3" d="M388.6 489.2c-34.6-19.9-69.1-39.9-103.7-59.9-28.8 16.6-57.6 33.3-86.4 49.9 34.6 19.9 69.1 39.9 103.7 59.8l86.4-49.8z"/><path class="st1" d="M302.2 549v-10c-34.6-19.9-69.1-39.9-103.7-59.8v9.9c34.6 20 69.1 40 103.7 59.9"/><path class="st3" d="M302.2 549v-10c-34.6-19.9-69.1-39.9-103.7-59.8v9.9c34.6 20 69.1 40 103.7 59.9z"/><path class="st1" d="M301.2 438.9v4.5l-35.1 20.3v-4.5c11.7-6.8 23.4-13.6 35.1-20.3"/><path class="st3" d="M301.2 438.9v4.5l-35.1 20.3v-4.5c11.7-6.8 23.4-13.6 35.1-20.3z"/><path class="st1" d="M301.2 438.9c-6.5-3.8-13-7.5-19.5-11.3-11.7 6.8-23.4 13.5-35.1 20.3 6.5 3.8 13 7.5 19.5 11.3 11.7-6.8 23.4-13.6 35.1-20.3"/><path class="st3" d="M301.2 438.9c-6.5-3.8-13-7.5-19.5-11.3-11.7 6.8-23.4 13.5-35.1 20.3 6.5 3.8 13 7.5 19.5 11.3 11.7-6.8 23.4-13.6 35.1-20.3z"/><path class="st1" d="M266.2 463.6c-6.5-3.7-13-7.5-19.5-11.2v-4.5c6.5 3.8 13 7.5 19.5 11.3v4.4z"/><path class="st3" d="M266.2 463.6c-6.5-3.7-13-7.5-19.5-11.2v-4.5c6.5 3.8 13 7.5 19.5 11.3v4.4z"/><path class="st1" d="M258.4 463.6v4.5c-11.7 6.8-23.4 13.5-35.1 20.3v-4.5c11.7-6.8 23.4-13.5 35.1-20.3"/><path class="st3" d="M258.4 463.6v4.5c-11.7 6.8-23.4 13.5-35.1 20.3v-4.5c11.7-6.8 23.4-13.5 35.1-20.3z"/><path class="st1" d="M258.4 463.6l-19.5-11.3c-11.7 6.8-23.4 13.5-35.1 20.3 6.5 3.8 13 7.5 19.5 11.3 11.7-6.8 23.4-13.5 35.1-20.3"/><path class="st3" d="M258.4 463.6l-19.5-11.3c-11.7 6.8-23.4 13.5-35.1 20.3 6.5 3.8 13 7.5 19.5 11.3 11.7-6.8 23.4-13.5 35.1-20.3z"/><path class="st1" d="M223.3 488.4c-6.5-3.7-13-7.5-19.5-11.2v-4.5c6.5 3.8 13 7.5 19.5 11.3v4.4z"/><path class="st3" d="M223.3 488.4c-6.5-3.7-13-7.5-19.5-11.2v-4.5c6.5 3.8 13 7.5 19.5 11.3v4.4z"/><path class="st1" d="M433.5 326.9v62.8c-12.4 7.2-24.8 14.3-37.2 21.5v-62.8c12.4-7.2 24.8-14.4 37.2-21.5"/><path class="st3" d="M433.5 326.9v62.8c-12.4 7.2-24.8 14.3-37.2 21.5v-62.8c12.4-7.2 24.8-14.4 37.2-21.5z"/><path class="st1" d="M433.5 326.9c-10.5-6.1-21-12.1-31.5-18.2-12.4 7.2-24.8 14.3-37.2 21.5 10.5 6.1 21 12.1 31.5 18.2 12.4-7.2 24.8-14.4 37.2-21.5"/><path class="st3" d="M433.5 326.9c-10.5-6.1-21-12.1-31.5-18.2-12.4 7.2-24.8 14.3-37.2 21.5 10.5 6.1 21 12.1 31.5 18.2 12.4-7.2 24.8-14.4 37.2-21.5z"/><path class="st1" d="M364.8 330.2V393c10.5 6.1 21 12.1 31.5 18.2v-62.8c-10.5-6.1-21-12.2-31.5-18.2"/><path class="st3" d="M364.8 330.2V393c10.5 6.1 21 12.1 31.5 18.2v-62.8c-10.5-6.1-21-12.2-31.5-18.2z"/><path class="st1" d="M430.7 331.8v6.6c-2.9 1.7-5.7 3.3-8.6 5v-6.6c2.8-1.7 5.7-3.3 8.6-5"/><path class="st3" d="M430.7 331.8v6.6c-2.9 1.7-5.7 3.3-8.6 5v-6.6c2.8-1.7 5.7-3.3 8.6-5z"/><path class="st1" d="M396.3 362.1l37.2-21.5v-1L396.3 361z"/><path class="st3" d="M396.3 362.1l37.2-21.5v-1L396.3 361z"/><path class="st1" d="M433.5 386.4c-12.4 7.2-24.8 14.3-37.2 21.5v3.3c12.4-7.2 24.8-14.3 37.2-21.5v-3.3z"/><path class="st3" d="M433.5 386.4c-12.4 7.2-24.8 14.3-37.2 21.5v3.3c12.4-7.2 24.8-14.3 37.2-21.5v-3.3z"/><path class="st1" d="M396.3 407.9c-10.5-6.1-21-12.1-31.5-18.2v3.3c10.5 6.1 21 12.1 31.5 18.2v-3.3"/><path class="st3" d="M396.3 407.9c-10.5-6.1-21-12.1-31.5-18.2v3.3c10.5 6.1 21 12.1 31.5 18.2v-3.3z"/><path class="st1" d="M415.7 360.2c-6.7 3.7-12.1 13-12.2 20.7-.1 7.7 5.3 11 11.9 7.3 6.7-3.7 12.1-13 12.2-20.7.1-7.7-5.2-11-11.9-7.3"/><path class="st3" d="M415.7 360.2c-6.7 3.7-12.1 13-12.2 20.7-.1 7.7 5.3 11 11.9 7.3 6.7-3.7 12.1-13 12.2-20.7.1-7.7-5.2-11-11.9-7.3z"/><path class="st1" d="M412.2 388.8c6.7-3.7 12.1-13 12.2-20.7 0-5.5-2.7-8.8-6.7-8.8 5.7-2.1 10.1 1.2 10 8.2-.1 7.7-5.5 17-12.2 20.7-1.9 1.1-3.7 1.5-5.3 1.5.7-.2 1.3-.5 2-.9"/><path class="st3" d="M412.2 388.8c6.7-3.7 12.1-13 12.2-20.7 0-5.5-2.7-8.8-6.7-8.8 5.7-2.1 10.1 1.2 10 8.2-.1 7.7-5.5 17-12.2 20.7-1.9 1.1-3.7 1.5-5.3 1.5.7-.2 1.3-.5 2-.9z"/><g opacity=".32"><defs><path id="SVGID_1_" d="M405.4 357.9h20.4v34h-20.4z"/></defs><clipPath id="SVGID_2_"><use xlink:href="#SVGID_1_" overflow="visible"/></clipPath><path class="st5" d="M418.5 359.4h.2-.2"/><path class="st6" d="M418.5 359.4h.2-.2z"/><path class="st5" d="M408 390.3c-.3 0-.7.1-1 .1.3-.1.6-.1 1-.1"/><path class="st6" d="M408 390.3c-.3 0-.7.1-1 .1.3-.1.6-.1 1-.1z"/><path class="st5" d="M410.2 389.7s-.1 0-.1.1c-.7.3-1.5.4-2.2.5.8-.1 1.5-.3 2.3-.6"/><path class="st6" d="M410.2 389.7s-.1 0-.1.1c-.7.3-1.5.4-2.2.5.8-.1 1.5-.3 2.3-.6z"/><path class="st5" d="M419 359.5c-.1 0-.2 0-.4-.1.2 0 .3 0 .4.1"/><path class="st6" d="M419 359.5c-.1 0-.2 0-.4-.1.2 0 .3 0 .4.1z"/><path class="st5" d="M424.3 368.1c0-4.8-2-7.9-5.2-8.6 3.2.7 5.3 3.8 5.2 8.6 0 7.7-5.5 17-12.1 20.7-.7.4-1.4.7-2.1.9 0 0 .1 0 .1-.1.6-.2 1.3-.5 1.9-.9 6.7-3.6 12.2-12.8 12.2-20.6"/><path class="st6" d="M424.3 368.1c0-4.8-2-7.9-5.2-8.6 3.2.7 5.3 3.8 5.2 8.6 0 7.7-5.5 17-12.1 20.7-.7.4-1.4.7-2.1.9 0 0 .1 0 .1-.1.6-.2 1.3-.5 1.9-.9 6.7-3.6 12.2-12.8 12.2-20.6z"/></g><path class="st1" d="M415.3 358.8c7.3-4.1 13.2-.5 13.2 8-.1 8.5-6.1 18.7-13.4 22.8-7.3 4.1-13.2.5-13.2-8 .1-8.5 6.1-18.7 13.4-22.8m-.2 29.1c6.5-3.6 11.8-12.7 11.9-20.2.1-7.5-5.2-10.7-11.7-7.1-6.5 3.6-11.8 12.7-11.9 20.2 0 7.5 5.2 10.7 11.7 7.1"/><path class="st3" d="M415.3 358.8c7.3-4.1 13.2-.5 13.2 8-.1 8.5-6.1 18.7-13.4 22.8-7.3 4.1-13.2.5-13.2-8 .1-8.5 6.1-18.7 13.4-22.8zm-.2 29.1c6.5-3.6 11.8-12.7 11.9-20.2.1-7.5-5.2-10.7-11.7-7.1-6.5 3.6-11.8 12.7-11.9 20.2 0 7.5 5.2 10.7 11.7 7.1z"/><path class="st1" d="M401.3 381.3c.1-8.5 6.1-18.7 13.4-22.8 3.2-1.8 6.1-2.1 8.4-1.2-2.2-.6-4.8-.2-7.6 1.4-7.3 4.1-13.3 14.3-13.4 22.8 0 4.8 1.8 8 4.8 9.2-3.4-.9-5.6-4.2-5.6-9.4"/><path class="st3" d="M401.3 381.3c.1-8.5 6.1-18.7 13.4-22.8 3.2-1.8 6.1-2.1 8.4-1.2-2.2-.6-4.8-.2-7.6 1.4-7.3 4.1-13.3 14.3-13.4 22.8 0 4.8 1.8 8 4.8 9.2-3.4-.9-5.6-4.2-5.6-9.4z"/><path class="st1" d="M372.9 376.6v43.2c-9.1 5.2-18.1 10.5-27.2 15.7v-43.2c9-5.2 18.1-10.4 27.2-15.7"/><path class="st3" d="M372.9 376.6v43.2c-9.1 5.2-18.1 10.5-27.2 15.7v-43.2c9-5.2 18.1-10.4 27.2-15.7z"/><path class="st1" d="M345.7 392.3c-9.1-5.2-18.1-10.5-27.2-15.7v43.2c9.1 5.2 18.1 10.5 27.2 15.7v-43.2"/><path class="st3" d="M345.7 392.3c-9.1-5.2-18.1-10.5-27.2-15.7v43.2c9.1 5.2 18.1 10.5 27.2 15.7v-43.2z"/><path class="st1" d="M369.5 382.5v35.3c-6.8 3.9-13.6 7.9-20.4 11.8v-35.3c6.8-3.9 13.6-7.9 20.4-11.8"/><path class="st3" d="M369.5 382.5v35.3c-6.8 3.9-13.6 7.9-20.4 11.8v-35.3c6.8-3.9 13.6-7.9 20.4-11.8z"/><path class="st1" d="M369.5 417.8c-.4-.3-.9-.5-1.3-.8-6.3 3.6-12.7 7.3-19 10.9v1.7c6.7-3.9 13.5-7.8 20.3-11.8"/><path class="st3" d="M369.5 417.8c-.4-.3-.9-.5-1.3-.8-6.3 3.6-12.7 7.3-19 10.9v1.7c6.7-3.9 13.5-7.8 20.3-11.8z"/><path class="st1" d="M368.1 417.1c0-11.2-.1-22.5-.1-33.7l1.4-.8v35.3c-.4-.3-.8-.6-1.3-.8"/><path class="st3" d="M368.1 417.1c0-11.2-.1-22.5-.1-33.7l1.4-.8v35.3c-.4-.3-.8-.6-1.3-.8z"/><path class="st1" d="M372.9 376.6c-9.1 5.2-18.1 10.5-27.2 15.7-9.1-5.2-18.1-10.5-27.2-15.7 9.1-5.2 18.1-10.5 27.2-15.7 9 5.3 18.1 10.5 27.2 15.7"/><path class="st3" d="M372.9 376.6c-9.1 5.2-18.1 10.5-27.2 15.7-9.1-5.2-18.1-10.5-27.2-15.7 9.1-5.2 18.1-10.5 27.2-15.7 9 5.3 18.1 10.5 27.2 15.7z"/><path class="st1" d="M365.1 400.2v2.2l-1.9 1.1v-2.2c.7-.3 1.3-.7 1.9-1.1"/><path class="st3" d="M365.1 400.2v2.2l-1.9 1.1v-2.2c.7-.3 1.3-.7 1.9-1.1z"/><path class="st1" d="M365.1 400.2c-.2-.1-.3-.2-.5-.3-.6.4-1.2.7-1.9 1.1.2.1.3.2.5.3.7-.3 1.3-.7 1.9-1.1"/><path class="st3" d="M365.1 400.2c-.2-.1-.3-.2-.5-.3-.6.4-1.2.7-1.9 1.1.2.1.3.2.5.3.7-.3 1.3-.7 1.9-1.1z"/><path class="st1" d="M362.8 401v2.2c.2.1.3.2.5.3v-2.2c-.2-.1-.3-.2-.5-.3"/><path class="st3" d="M362.8 401v2.2c.2.1.3.2.5.3v-2.2c-.2-.1-.3-.2-.5-.3z"/><path class="st1" d="M365.6 400.5v2.2c-.6.4-1.2.7-1.9 1.1v-2.2c.7-.4 1.3-.7 1.9-1.1"/><path class="st3" d="M365.6 400.5v2.2c-.6.4-1.2.7-1.9 1.1v-2.2c.7-.4 1.3-.7 1.9-1.1z"/><path class="st1" d="M365.6 400.5c-.2-.1-.3-.2-.5-.3-.6.4-1.2.7-1.9 1.1.2.1.3.2.5.3.7-.4 1.3-.7 1.9-1.1"/><path class="st3" d="M365.6 400.5c-.2-.1-.3-.2-.5-.3-.6.4-1.2.7-1.9 1.1.2.1.3.2.5.3.7-.4 1.3-.7 1.9-1.1z"/><path class="st1" d="M363.3 401.3v2.2c.2.1.3.2.5.3v-2.2c-.2-.1-.4-.2-.5-.3"/><path class="st3" d="M363.3 401.3v2.2c.2.1.3.2.5.3v-2.2c-.2-.1-.4-.2-.5-.3z"/><path class="st1" d="M366.1 400.8v2.2c-.6.4-1.2.7-1.9 1.1v-2.2c.6-.4 1.3-.8 1.9-1.1"/><path class="st3" d="M366.1 400.8v2.2c-.6.4-1.2.7-1.9 1.1v-2.2c.6-.4 1.3-.8 1.9-1.1z"/><path class="st1" d="M366.1 400.8c-.2-.1-.3-.2-.5-.3-.6.4-1.2.7-1.9 1.1.2.1.3.2.5.3.6-.4 1.3-.8 1.9-1.1"/><path class="st3" d="M366.1 400.8c-.2-.1-.3-.2-.5-.3-.6.4-1.2.7-1.9 1.1.2.1.3.2.5.3.6-.4 1.3-.8 1.9-1.1z"/><path class="st1" d="M363.7 401.6v2.2c.2.1.3.2.5.3v-2.2c-.1-.1-.3-.2-.5-.3"/><path class="st3" d="M363.7 401.6v2.2c.2.1.3.2.5.3v-2.2c-.1-.1-.3-.2-.5-.3z"/><path class="st1" d="M366.5 401v2.2c-.6.4-1.2.7-1.9 1.1v-2.2c.7-.3 1.3-.7 1.9-1.1"/><path class="st3" d="M366.5 401v2.2c-.6.4-1.2.7-1.9 1.1v-2.2c.7-.3 1.3-.7 1.9-1.1z"/><path class="st1" d="M366.5 401c-.2-.1-.3-.2-.5-.3-.6.4-1.2.7-1.9 1.1.2.1.3.2.5.3.7-.3 1.3-.7 1.9-1.1"/><path class="st3" d="M366.5 401c-.2-.1-.3-.2-.5-.3-.6.4-1.2.7-1.9 1.1.2.1.3.2.5.3.7-.3 1.3-.7 1.9-1.1z"/><path class="st1" d="M364.2 401.9v2.2c.2.1.3.2.5.3v-2.2c-.2-.2-.3-.3-.5-.3"/><path class="st3" d="M364.2 401.9v2.2c.2.1.3.2.5.3v-2.2c-.2-.2-.3-.3-.5-.3z"/><path class="st1" d="M367 401.3v2.2l-1.9 1.1v-2.2c.7-.4 1.3-.7 1.9-1.1"/><path class="st3" d="M367 401.3v2.2l-1.9 1.1v-2.2c.7-.4 1.3-.7 1.9-1.1z"/><path class="st1" d="M367 401.3c-.2-.1-.3-.2-.5-.3-.6.4-1.2.7-1.9 1.1.2.1.3.2.5.3.7-.4 1.3-.7 1.9-1.1"/><path class="st3" d="M367 401.3c-.2-.1-.3-.2-.5-.3-.6.4-1.2.7-1.9 1.1.2.1.3.2.5.3.7-.4 1.3-.7 1.9-1.1z"/><path class="st1" d="M364.7 402.1v2.2c.2.1.3.2.5.3v-2.2c-.2-.1-.4-.2-.5-.3"/><path class="st3" d="M364.7 402.1v2.2c.2.1.3.2.5.3v-2.2c-.2-.1-.4-.2-.5-.3z"/><path class="st1" d="M367.5 401.6v2.1l-1.9 1.1v-2.1z"/><path class="st3" d="M367.5 401.6v2.1l-1.9 1.1v-2.1z"/><path class="st1" d="M367.5 401.6c-.2-.1-.3-.2-.5-.3-.6.4-1.2.7-1.9 1.1.2.1.3.2.5.3l1.9-1.1z"/><path class="st3" d="M367.5 401.6c-.2-.1-.3-.2-.5-.3-.6.4-1.2.7-1.9 1.1.2.1.3.2.5.3l1.9-1.1z"/><path class="st1" d="M365.1 402.4v2.2c.2.1.3.2.5.3v-2.2c-.1-.1-.3-.2-.5-.3"/><path class="st3" d="M365.1 402.4v2.2c.2.1.3.2.5.3v-2.2c-.1-.1-.3-.2-.5-.3z"/><path class="st1" d="M368 401.9v2.2c-.6.4-1.2.7-1.9 1.1V403c.6-.4 1.2-.8 1.9-1.1"/><path class="st3" d="M368 401.9v2.2c-.6.4-1.2.7-1.9 1.1V403c.6-.4 1.2-.8 1.9-1.1z"/><path class="st1" d="M368 401.9c-.2-.1-.3-.2-.5-.3l-1.9 1.1c.2.1.3.2.5.3.6-.4 1.2-.8 1.9-1.1"/><path class="st3" d="M368 401.9c-.2-.1-.3-.2-.5-.3l-1.9 1.1c.2.1.3.2.5.3.6-.4 1.2-.8 1.9-1.1z"/><path class="st1" d="M365.6 402.7v2.2c.2.1.3.2.5.3V403c-.2-.2-.3-.2-.5-.3"/><path class="st3" d="M365.6 402.7v2.2c.2.1.3.2.5.3V403c-.2-.2-.3-.2-.5-.3z"/><path class="st1" d="M368.4 402.1v2.2l-1.9 1.1v-2.2c.7-.4 1.3-.7 1.9-1.1"/><path class="st3" d="M368.4 402.1v2.2l-1.9 1.1v-2.2c.7-.4 1.3-.7 1.9-1.1z"/><path class="st1" d="M368.4 402.1c-.2-.1-.3-.2-.5-.3l-1.9 1.1.5.3c.7-.4 1.3-.7 1.9-1.1"/><path class="st3" d="M368.4 402.1c-.2-.1-.3-.2-.5-.3l-1.9 1.1.5.3c.7-.4 1.3-.7 1.9-1.1z"/><path class="st1" d="M366.1 402.9v2.2c.2.1.3.2.5.3v-2.2l-.5-.3z"/><path class="st3" d="M366.1 402.9v2.2c.2.1.3.2.5.3v-2.2l-.5-.3z"/><path class="st1" d="M369.3 399.4v4.3c-1.2.7-2.5 1.4-3.7 2.2v-4.3c1.3-.7 2.5-1.4 3.7-2.2"/><path class="st3" d="M369.3 399.4v4.3c-1.2.7-2.5 1.4-3.7 2.2v-4.3c1.3-.7 2.5-1.4 3.7-2.2z"/><path class="st1" d="M369.3 399.4c-.3-.2-.6-.4-.9-.5-1.2.7-2.5 1.4-3.7 2.2.3.2.6.4.9.5 1.3-.7 2.5-1.4 3.7-2.2"/><path class="st3" d="M369.3 399.4c-.3-.2-.6-.4-.9-.5-1.2.7-2.5 1.4-3.7 2.2.3.2.6.4.9.5 1.3-.7 2.5-1.4 3.7-2.2z"/><path class="st1" d="M364.7 401.1v4.3c.3.2.6.4.9.5v-4.3c-.3-.2-.6-.4-.9-.5"/><path class="st3" d="M364.7 401.1v4.3c.3.2.6.4.9.5v-4.3c-.3-.2-.6-.4-.9-.5z"/><path class="st1" d="M208.7 610.2v4.6l-2.9 1.7v-4.6z"/><path class="st3" d="M208.7 610.2v4.6l-2.9 1.7v-4.6z"/><path class="st1" d="M205.8 611.9c-1-.6-2-1.1-2.9-1.7v4.6c1 .6 2 1.1 2.9 1.7v-4.6z"/><path class="st3" d="M205.8 611.9c-1-.6-2-1.1-2.9-1.7v4.6c1 .6 2 1.1 2.9 1.7v-4.6z"/><path class="st1" d="M208.7 610.2l-2.9 1.7c-1-.6-2-1.1-2.9-1.7 1-.6 2-1.1 2.9-1.7.9.6 1.9 1.1 2.9 1.7"/><path class="st3" d="M208.7 610.2l-2.9 1.7c-1-.6-2-1.1-2.9-1.7 1-.6 2-1.1 2.9-1.7.9.6 1.9 1.1 2.9 1.7z"/><path class="st1" d="M207.7 607v3.2c-.7.4-1.3.8-2 1.2v-3.2c.7-.4 1.4-.8 2-1.2"/><path class="st3" d="M207.7 607v3.2c-.7.4-1.3.8-2 1.2v-3.2c.7-.4 1.4-.8 2-1.2z"/><path class="st1" d="M205.8 608.2c-.7-.4-1.3-.8-2-1.1v3.2c.7.4 1.3.8 2 1.2v-3.3"/><path class="st3" d="M205.8 608.2c-.7-.4-1.3-.8-2-1.1v3.2c.7.4 1.3.8 2 1.2v-3.3z"/><path class="st1" d="M207.7 607c-.7.4-1.3.8-2 1.1-.7-.4-1.3-.8-2-1.1.7-.4 1.3-.8 2-1.2.7.5 1.4.9 2 1.2"/><path class="st3" d="M207.7 607c-.7.4-1.3.8-2 1.1-.7-.4-1.3-.8-2-1.1.7-.4 1.3-.8 2-1.2.7.5 1.4.9 2 1.2z"/><path class="st1" d="M207.7 604.1v3.2c-.7.4-1.3.8-2 1.1v-3.2c.7-.3 1.4-.7 2-1.1"/><path class="st3" d="M207.7 604.1v3.2c-.7.4-1.3.8-2 1.1v-3.2c.7-.3 1.4-.7 2-1.1z"/><path class="st1" d="M205.8 605.3c-.7-.4-1.3-.8-2-1.1v3.2c.7.4 1.3.8 2 1.2v-3.3"/><path class="st3" d="M205.8 605.3c-.7-.4-1.3-.8-2-1.1v3.2c.7.4 1.3.8 2 1.2v-3.3z"/><path class="st1" d="M207.7 604.1c-.7.4-1.3.8-2 1.2-.7-.4-1.3-.8-2-1.2.7-.4 1.3-.8 2-1.1.7.3 1.4.7 2 1.1"/><path class="st3" d="M207.7 604.1c-.7.4-1.3.8-2 1.2-.7-.4-1.3-.8-2-1.2.7-.4 1.3-.8 2-1.1.7.3 1.4.7 2 1.1z"/><path class="st1" d="M207.7 601.2v3.2c-.7.4-1.3.8-2 1.1v-3.2c.7-.3 1.4-.7 2-1.1"/><path class="st3" d="M207.7 601.2v3.2c-.7.4-1.3.8-2 1.1v-3.2c.7-.3 1.4-.7 2-1.1z"/><path class="st1" d="M205.8 602.3c-.7-.4-1.3-.8-2-1.1v3.2c.7.4 1.3.8 2 1.1v-3.2"/><path class="st3" d="M205.8 602.3c-.7-.4-1.3-.8-2-1.1v3.2c.7.4 1.3.8 2 1.1v-3.2z"/><path class="st1" d="M207.7 601.2c-.7.4-1.3.8-2 1.1-.7-.4-1.3-.8-2-1.1.7-.4 1.3-.8 2-1.1.7.3 1.4.7 2 1.1"/><path class="st3" d="M207.7 601.2c-.7.4-1.3.8-2 1.1-.7-.4-1.3-.8-2-1.1.7-.4 1.3-.8 2-1.1.7.3 1.4.7 2 1.1z"/><path class="st1" d="M207.7 598.3v3.2c-.7.4-1.3.8-2 1.2v-3.2c.7-.5 1.4-.8 2-1.2"/><path class="st3" d="M207.7 598.3v3.2c-.7.4-1.3.8-2 1.2v-3.2c.7-.5 1.4-.8 2-1.2z"/><path class="st1" d="M205.8 599.4c-.7-.4-1.3-.8-2-1.1v3.2c.7.4 1.3.8 2 1.1v-3.2"/><path class="st3" d="M205.8 599.4c-.7-.4-1.3-.8-2-1.1v3.2c.7.4 1.3.8 2 1.1v-3.2z"/><path class="st1" d="M207.7 598.3c-.7.4-1.3.8-2 1.1-.7-.4-1.3-.8-2-1.1.7-.4 1.3-.8 2-1.1.7.3 1.4.7 2 1.1"/><path class="st3" d="M207.7 598.3c-.7.4-1.3.8-2 1.1-.7-.4-1.3-.8-2-1.1.7-.4 1.3-.8 2-1.1.7.3 1.4.7 2 1.1z"/><path class="st1" d="M207.7 595.4v3.2c-.7.4-1.3.8-2 1.2v-3.2c.7-.5 1.4-.9 2-1.2"/><path class="st3" d="M207.7 595.4v3.2c-.7.4-1.3.8-2 1.2v-3.2c.7-.5 1.4-.9 2-1.2z"/><path class="st1" d="M205.8 596.5c-.7-.4-1.3-.8-2-1.2v3.2c.7.4 1.3.8 2 1.1v-3.1"/><path class="st3" d="M205.8 596.5c-.7-.4-1.3-.8-2-1.2v3.2c.7.4 1.3.8 2 1.1v-3.1z"/><path class="st1" d="M207.7 595.4c-.7.4-1.3.8-2 1.2-.7-.4-1.3-.8-2-1.2.7-.4 1.3-.8 2-1.1.7.3 1.4.7 2 1.1"/><path class="st3" d="M207.7 595.4c-.7.4-1.3.8-2 1.2-.7-.4-1.3-.8-2-1.2.7-.4 1.3-.8 2-1.1.7.3 1.4.7 2 1.1z"/><path class="st1" d="M207.7 592.4v3.2c-.7.4-1.3.8-2 1.2v-3.2c.7-.4 1.4-.8 2-1.2"/><path class="st3" d="M207.7 592.4v3.2c-.7.4-1.3.8-2 1.2v-3.2c.7-.4 1.4-.8 2-1.2z"/><path class="st1" d="M205.8 593.6c-.7-.4-1.3-.8-2-1.1v3.2c.7.4 1.3.8 2 1.1v-3.2"/><path class="st3" d="M205.8 593.6c-.7-.4-1.3-.8-2-1.1v3.2c.7.4 1.3.8 2 1.1v-3.2z"/><path class="st1" d="M207.7 592.4c-.7.4-1.3.8-2 1.1-.7-.4-1.3-.8-2-1.1.7-.4 1.3-.8 2-1.1.7.4 1.4.8 2 1.1"/><path class="st3" d="M207.7 592.4c-.7.4-1.3.8-2 1.1-.7-.4-1.3-.8-2-1.1.7-.4 1.3-.8 2-1.1.7.4 1.4.8 2 1.1z"/><path class="st1" d="M289.9 600.7v4.6c-1 .6-2 1.1-2.9 1.7v-4.7c1-.4 1.9-1 2.9-1.6"/><path class="st3" d="M289.9 600.7v4.6c-1 .6-2 1.1-2.9 1.7v-4.7c1-.4 1.9-1 2.9-1.6z"/><path class="st1" d="M287 602.4c-1-.6-2-1.1-2.9-1.7v4.6c1 .6 2 1.1 2.9 1.7v-4.6z"/><path class="st3" d="M287 602.4c-1-.6-2-1.1-2.9-1.7v4.6c1 .6 2 1.1 2.9 1.7v-4.6z"/><path class="st1" d="M289.9 600.7c-1 .6-2 1.1-2.9 1.7-1-.6-2-1.1-2.9-1.7 1-.6 2-1.1 2.9-1.7 1 .6 1.9 1.2 2.9 1.7"/><path class="st3" d="M289.9 600.7c-1 .6-2 1.1-2.9 1.7-1-.6-2-1.1-2.9-1.7 1-.6 2-1.1 2.9-1.7 1 .6 1.9 1.2 2.9 1.7z"/><path class="st1" d="M289 597.6v3.2c-.7.4-1.3.8-2 1.2v-3.2c.6-.4 1.3-.8 2-1.2"/><path class="st3" d="M289 597.6v3.2c-.7.4-1.3.8-2 1.2v-3.2c.6-.4 1.3-.8 2-1.2z"/><path class="st1" d="M287 598.7c-.7-.4-1.3-.8-2-1.1v3.2c.7.4 1.3.8 2 1.2v-3.3z"/><path class="st3" d="M287 598.7c-.7-.4-1.3-.8-2-1.1v3.2c.7.4 1.3.8 2 1.2v-3.3z"/><path class="st1" d="M289 597.6c-.7.4-1.3.8-2 1.1-.7-.4-1.3-.8-2-1.1.7-.4 1.3-.8 2-1.2.6.4 1.3.8 2 1.2"/><path class="st3" d="M289 597.6c-.7.4-1.3.8-2 1.1-.7-.4-1.3-.8-2-1.1.7-.4 1.3-.8 2-1.2.6.4 1.3.8 2 1.2z"/><path class="st1" d="M289 594.7v3.2c-.7.4-1.3.8-2 1.1v-3.2c.6-.4 1.3-.7 2-1.1"/><path class="st3" d="M289 594.7v3.2c-.7.4-1.3.8-2 1.1v-3.2c.6-.4 1.3-.7 2-1.1z"/><path class="st1" d="M287 595.8c-.7-.4-1.3-.8-2-1.1v3.2c.7.4 1.3.8 2 1.1v-3.2z"/><path class="st3" d="M287 595.8c-.7-.4-1.3-.8-2-1.1v3.2c.7.4 1.3.8 2 1.1v-3.2z"/><path class="st1" d="M289 594.7c-.7.4-1.3.8-2 1.2-.7-.4-1.3-.8-2-1.2.7-.4 1.3-.8 2-1.1.6.3 1.3.7 2 1.1"/><path class="st3" d="M289 594.7c-.7.4-1.3.8-2 1.2-.7-.4-1.3-.8-2-1.2.7-.4 1.3-.8 2-1.1.6.3 1.3.7 2 1.1z"/><path class="st1" d="M289 591.7v3.2c-.7.4-1.3.8-2 1.1v-3.2c.6-.3 1.3-.7 2-1.1"/><path class="st3" d="M289 591.7v3.2c-.7.4-1.3.8-2 1.1v-3.2c.6-.3 1.3-.7 2-1.1z"/><path class="st1" d="M287 592.9c-.7-.4-1.3-.8-2-1.1v3.2c.7.4 1.3.8 2 1.1v-3.2z"/><path class="st3" d="M287 592.9c-.7-.4-1.3-.8-2-1.1v3.2c.7.4 1.3.8 2 1.1v-3.2z"/><path class="st1" d="M289 591.7c-.7.4-1.3.8-2 1.1-.7-.4-1.3-.8-2-1.1.7-.4 1.3-.8 2-1.1.6.4 1.3.8 2 1.1"/><path class="st3" d="M289 591.7c-.7.4-1.3.8-2 1.1-.7-.4-1.3-.8-2-1.1.7-.4 1.3-.8 2-1.1.6.4 1.3.8 2 1.1z"/><path class="st1" d="M289 588.8v3.2c-.7.4-1.3.8-2 1.2V590c.6-.4 1.3-.8 2-1.2"/><path class="st3" d="M289 588.8v3.2c-.7.4-1.3.8-2 1.2V590c.6-.4 1.3-.8 2-1.2z"/><path class="st1" d="M287 590c-.7-.4-1.3-.8-2-1.1v3.2c.7.4 1.3.8 2 1.1V590z"/><path class="st3" d="M287 590c-.7-.4-1.3-.8-2-1.1v3.2c.7.4 1.3.8 2 1.1V590z"/><path class="st1" d="M289 588.8c-.7.4-1.3.8-2 1.1-.7-.4-1.3-.8-2-1.1.7-.4 1.3-.8 2-1.1.6.4 1.3.7 2 1.1"/><path class="st3" d="M289 588.8c-.7.4-1.3.8-2 1.1-.7-.4-1.3-.8-2-1.1.7-.4 1.3-.8 2-1.1.6.4 1.3.7 2 1.1z"/><path class="st1" d="M289 585.9v3.2c-.7.4-1.3.8-2 1.2v-3.2c.6-.4 1.3-.8 2-1.2"/><path class="st3" d="M289 585.9v3.2c-.7.4-1.3.8-2 1.2v-3.2c.6-.4 1.3-.8 2-1.2z"/><path class="st1" d="M287 587.1c-.7-.4-1.3-.8-2-1.1v3.2c.7.4 1.3.8 2 1.1v-3.2z"/><path class="st3" d="M287 587.1c-.7-.4-1.3-.8-2-1.1v3.2c.7.4 1.3.8 2 1.1v-3.2z"/><path class="st1" d="M289 585.9c-.7.4-1.3.8-2 1.1-.7-.4-1.3-.8-2-1.1.7-.4 1.3-.8 2-1.1.6.3 1.3.7 2 1.1"/><path class="st3" d="M289 585.9c-.7.4-1.3.8-2 1.1-.7-.4-1.3-.8-2-1.1.7-.4 1.3-.8 2-1.1.6.3 1.3.7 2 1.1z"/><path class="st1" d="M289 583v3.2c-.7.4-1.3.8-2 1.2v-3.2c.6-.4 1.3-.8 2-1.2"/><path class="st3" d="M289 583v3.2c-.7.4-1.3.8-2 1.2v-3.2c.6-.4 1.3-.8 2-1.2z"/><path class="st1" d="M287 584.1c-.7-.4-1.3-.8-2-1.1v3.2c.7.4 1.3.8 2 1.2v-3.3z"/><path class="st3" d="M287 584.1c-.7-.4-1.3-.8-2-1.1v3.2c.7.4 1.3.8 2 1.2v-3.3z"/><path class="st1" d="M289 583c-.7.4-1.3.8-2 1.1-.7-.4-1.3-.8-2-1.1.7-.4 1.3-.8 2-1.2.6.4 1.3.8 2 1.2"/><path class="st3" d="M289 583c-.7.4-1.3.8-2 1.1-.7-.4-1.3-.8-2-1.1.7-.4 1.3-.8 2-1.2.6.4 1.3.8 2 1.2z"/><path class="st1" d="M240.8 629.1v4.6c-1 .6-2 1.1-2.9 1.7v-4.7c.9-.5 1.9-1 2.9-1.6"/><path class="st3" d="M240.8 629.1v4.6c-1 .6-2 1.1-2.9 1.7v-4.7c.9-.5 1.9-1 2.9-1.6z"/><path class="st1" d="M237.8 630.8c-1-.6-2-1.1-2.9-1.7v4.6c1 .6 2 1.1 2.9 1.7v-4.6z"/><path class="st3" d="M237.8 630.8c-1-.6-2-1.1-2.9-1.7v4.6c1 .6 2 1.1 2.9 1.7v-4.6z"/><path class="st1" d="M240.8 629.1c-1 .6-2 1.1-2.9 1.7-1-.6-2-1.1-2.9-1.7 1-.6 2-1.1 2.9-1.7.9.6 1.9 1.2 2.9 1.7"/><path class="st3" d="M240.8 629.1c-1 .6-2 1.1-2.9 1.7-1-.6-2-1.1-2.9-1.7 1-.6 2-1.1 2.9-1.7.9.6 1.9 1.2 2.9 1.7z"/><path class="st1" d="M239.8 626v3.2c-.7.4-1.3.8-2 1.2v-3.2c.7-.5 1.4-.9 2-1.2"/><path class="st3" d="M239.8 626v3.2c-.7.4-1.3.8-2 1.2v-3.2c.7-.5 1.4-.9 2-1.2z"/><path class="st1" d="M237.8 627.1c-.7-.4-1.3-.8-2-1.1v3.2c.7.4 1.3.8 2 1.2v-3.3z"/><path class="st3" d="M237.8 627.1c-.7-.4-1.3-.8-2-1.1v3.2c.7.4 1.3.8 2 1.2v-3.3z"/><path class="st1" d="M239.8 626c-.7.4-1.3.8-2 1.1-.7-.4-1.3-.8-2-1.1.7-.4 1.3-.8 2-1.1.7.3 1.4.7 2 1.1"/><path class="st3" d="M239.8 626c-.7.4-1.3.8-2 1.1-.7-.4-1.3-.8-2-1.1.7-.4 1.3-.8 2-1.1.7.3 1.4.7 2 1.1z"/><path class="st1" d="M239.8 623v3.2c-.7.4-1.3.8-2 1.1v-3.2c.7-.3 1.4-.7 2-1.1"/><path class="st3" d="M239.8 623v3.2c-.7.4-1.3.8-2 1.1v-3.2c.7-.3 1.4-.7 2-1.1z"/><path class="st1" d="M237.8 624.2c-.7-.4-1.3-.8-2-1.1v3.2c.7.4 1.3.8 2 1.1v-3.2z"/><path class="st3" d="M237.8 624.2c-.7-.4-1.3-.8-2-1.1v3.2c.7.4 1.3.8 2 1.1v-3.2z"/><path class="st1" d="M239.8 623c-.7.4-1.3.8-2 1.2-.7-.4-1.3-.8-2-1.2.7-.4 1.3-.8 2-1.1.7.4 1.4.8 2 1.1"/><path class="st3" d="M239.8 623c-.7.4-1.3.8-2 1.2-.7-.4-1.3-.8-2-1.2.7-.4 1.3-.8 2-1.1.7.4 1.4.8 2 1.1z"/><path class="st1" d="M239.8 620.1v3.2c-.7.4-1.3.8-2 1.2v-3.2c.7-.4 1.4-.8 2-1.2"/><path class="st3" d="M239.8 620.1v3.2c-.7.4-1.3.8-2 1.2v-3.2c.7-.4 1.4-.8 2-1.2z"/><path class="st1" d="M237.8 621.3c-.7-.4-1.3-.8-2-1.1v3.2c.7.4 1.3.8 2 1.1v-3.2z"/><path class="st3" d="M237.8 621.3c-.7-.4-1.3-.8-2-1.1v3.2c.7.4 1.3.8 2 1.1v-3.2z"/><path class="st1" d="M239.8 620.1c-.7.4-1.3.8-2 1.1-.7-.4-1.3-.8-2-1.1.7-.4 1.3-.8 2-1.1.7.4 1.4.7 2 1.1"/><path class="st3" d="M239.8 620.1c-.7.4-1.3.8-2 1.1-.7-.4-1.3-.8-2-1.1.7-.4 1.3-.8 2-1.1.7.4 1.4.7 2 1.1z"/><path class="st1" d="M239.8 617.2v3.2c-.7.4-1.3.8-2 1.2v-3.2c.7-.4 1.4-.8 2-1.2"/><path class="st3" d="M239.8 617.2v3.2c-.7.4-1.3.8-2 1.2v-3.2c.7-.4 1.4-.8 2-1.2z"/><path class="st1" d="M237.8 618.4c-.7-.4-1.3-.8-2-1.1v3.2c.7.4 1.3.8 2 1.1v-3.2z"/><path class="st3" d="M237.8 618.4c-.7-.4-1.3-.8-2-1.1v3.2c.7.4 1.3.8 2 1.1v-3.2z"/><path class="st1" d="M239.8 617.2c-.7.4-1.3.8-2 1.1-.7-.4-1.3-.8-2-1.1.7-.4 1.3-.8 2-1.2.7.4 1.4.8 2 1.2"/><path class="st3" d="M239.8 617.2c-.7.4-1.3.8-2 1.1-.7-.4-1.3-.8-2-1.1.7-.4 1.3-.8 2-1.2.7.4 1.4.8 2 1.2z"/><path class="st1" d="M239.8 614.3v3.2c-.7.4-1.3.8-2 1.2v-3.2c.7-.4 1.4-.8 2-1.2"/><path class="st3" d="M239.8 614.3v3.2c-.7.4-1.3.8-2 1.2v-3.2c.7-.4 1.4-.8 2-1.2z"/><path class="st1" d="M237.8 615.4c-.7-.4-1.3-.8-2-1.2v3.2c.7.4 1.3.8 2 1.1v-3.1z"/><path class="st3" d="M237.8 615.4c-.7-.4-1.3-.8-2-1.2v3.2c.7.4 1.3.8 2 1.1v-3.1z"/><path class="st1" d="M239.8 614.3c-.7.4-1.3.8-2 1.2-.7-.4-1.3-.8-2-1.2.7-.4 1.3-.8 2-1.1.7.3 1.4.7 2 1.1"/><path class="st3" d="M239.8 614.3c-.7.4-1.3.8-2 1.2-.7-.4-1.3-.8-2-1.2.7-.4 1.3-.8 2-1.1.7.3 1.4.7 2 1.1z"/><path class="st1" d="M239.8 611.4v3.2c-.7.4-1.3.8-2 1.2v-3.2c.7-.5 1.4-.8 2-1.2"/><path class="st3" d="M239.8 611.4v3.2c-.7.4-1.3.8-2 1.2v-3.2c.7-.5 1.4-.8 2-1.2z"/><path class="st1" d="M237.8 612.5c-.7-.4-1.3-.8-2-1.1v3.2c.7.4 1.3.8 2 1.1v-3.2z"/><path class="st3" d="M237.8 612.5c-.7-.4-1.3-.8-2-1.1v3.2c.7.4 1.3.8 2 1.1v-3.2z"/><path class="st1" d="M239.8 611.4c-.7.4-1.3.8-2 1.1-.7-.4-1.3-.8-2-1.1.7-.4 1.3-.8 2-1.2.7.4 1.4.8 2 1.2"/><path class="st3" d="M239.8 611.4c-.7.4-1.3.8-2 1.1-.7-.4-1.3-.8-2-1.1.7-.4 1.3-.8 2-1.2.7.4 1.4.8 2 1.2z"/><path class="st1" d="M257.8 582.2v4.7c-1 .6-2 1.1-2.9 1.7v-4.7c1-.5 2-1.1 2.9-1.7"/><path class="st3" d="M257.8 582.2v4.7c-1 .6-2 1.1-2.9 1.7v-4.7c1-.5 2-1.1 2.9-1.7z"/><path class="st1" d="M254.9 583.9c-1-.6-2-1.1-2.9-1.7v4.7c1 .6 2 1.1 2.9 1.7v-4.7z"/><path class="st3" d="M254.9 583.9c-1-.6-2-1.1-2.9-1.7v4.7c1 .6 2 1.1 2.9 1.7v-4.7z"/><path class="st1" d="M257.8 582.2c-1 .6-2 1.1-2.9 1.7-1-.6-2-1.1-2.9-1.7 1-.6 2-1.1 2.9-1.7 1 .6 2 1.2 2.9 1.7"/><path class="st3" d="M257.8 582.2c-1 .6-2 1.1-2.9 1.7-1-.6-2-1.1-2.9-1.7 1-.6 2-1.1 2.9-1.7 1 .6 2 1.2 2.9 1.7z"/><path class="st1" d="M256.9 579.1v3.2c-.7.4-1.3.8-2 1.2v-3.2c.7-.5 1.3-.9 2-1.2"/><path class="st3" d="M256.9 579.1v3.2c-.7.4-1.3.8-2 1.2v-3.2c.7-.5 1.3-.9 2-1.2z"/><path class="st1" d="M254.9 580.2c-.7-.4-1.3-.8-2-1.1v3.2c.7.4 1.3.8 2 1.1v-3.2z"/><path class="st3" d="M254.9 580.2c-.7-.4-1.3-.8-2-1.1v3.2c.7.4 1.3.8 2 1.1v-3.2z"/><path class="st1" d="M256.9 579.1c-.7.4-1.3.8-2 1.1-.7-.4-1.3-.8-2-1.1.7-.4 1.3-.8 2-1.1.7.3 1.3.7 2 1.1"/><path class="st3" d="M256.9 579.1c-.7.4-1.3.8-2 1.1-.7-.4-1.3-.8-2-1.1.7-.4 1.3-.8 2-1.1.7.3 1.3.7 2 1.1z"/><path class="st1" d="M256.9 576.1v3.2c-.7.4-1.3.8-2 1.2v-3.2c.7-.4 1.3-.8 2-1.2"/><path class="st3" d="M256.9 576.1v3.2c-.7.4-1.3.8-2 1.2v-3.2c.7-.4 1.3-.8 2-1.2z"/><path class="st1" d="M254.9 577.3c-.7-.4-1.3-.8-2-1.1v3.2c.7.4 1.3.8 2 1.1v-3.2z"/><path class="st3" d="M254.9 577.3c-.7-.4-1.3-.8-2-1.1v3.2c.7.4 1.3.8 2 1.1v-3.2z"/><path class="st1" d="M256.9 576.1c-.7.4-1.3.8-2 1.2-.7-.4-1.3-.8-2-1.1.7-.4 1.3-.8 2-1.1.7.3 1.3.7 2 1"/><path class="st3" d="M256.9 576.1c-.7.4-1.3.8-2 1.2-.7-.4-1.3-.8-2-1.1.7-.4 1.3-.8 2-1.1.7.3 1.3.7 2 1z"/><path class="st1" d="M256.9 573.2v3.2c-.7.4-1.3.8-2 1.2v-3.2c.7-.4 1.3-.8 2-1.2"/><path class="st3" d="M256.9 573.2v3.2c-.7.4-1.3.8-2 1.2v-3.2c.7-.4 1.3-.8 2-1.2z"/><path class="st1" d="M254.9 574.4c-.7-.4-1.3-.8-2-1.1v3.2c.7.4 1.3.8 2 1.1v-3.2z"/><path class="st3" d="M254.9 574.4c-.7-.4-1.3-.8-2-1.1v3.2c.7.4 1.3.8 2 1.1v-3.2z"/><path class="st1" d="M256.9 573.2c-.7.4-1.3.8-2 1.1-.7-.4-1.3-.8-2-1.1.7-.4 1.3-.8 2-1.1.7.4 1.3.7 2 1.1"/><path class="st3" d="M256.9 573.2c-.7.4-1.3.8-2 1.1-.7-.4-1.3-.8-2-1.1.7-.4 1.3-.8 2-1.1.7.4 1.3.7 2 1.1z"/><path class="st1" d="M256.9 570.3v3.2c-.7.4-1.3.8-2 1.2v-3.2c.7-.4 1.3-.8 2-1.2"/><path class="st3" d="M256.9 570.3v3.2c-.7.4-1.3.8-2 1.2v-3.2c.7-.4 1.3-.8 2-1.2z"/><path class="st1" d="M254.9 571.5c-.7-.4-1.3-.8-2-1.1v3.2c.7.4 1.3.8 2 1.2v-3.3z"/><path class="st3" d="M254.9 571.5c-.7-.4-1.3-.8-2-1.1v3.2c.7.4 1.3.8 2 1.2v-3.3z"/><path class="st1" d="M256.9 570.3c-.7.4-1.3.8-2 1.1-.7-.4-1.3-.8-2-1.1.7-.4 1.3-.8 2-1.2.7.4 1.3.8 2 1.2"/><path class="st3" d="M256.9 570.3c-.7.4-1.3.8-2 1.1-.7-.4-1.3-.8-2-1.1.7-.4 1.3-.8 2-1.2.7.4 1.3.8 2 1.2z"/><path class="st1" d="M256.9 567.4v3.2c-.7.4-1.3.8-2 1.1v-3.2c.7-.3 1.3-.7 2-1.1"/><path class="st3" d="M256.9 567.4v3.2c-.7.4-1.3.8-2 1.1v-3.2c.7-.3 1.3-.7 2-1.1z"/><path class="st1" d="M254.9 568.5c-.7-.4-1.3-.8-2-1.2v3.2c.7.4 1.3.8 2 1.1v-3.1z"/><path class="st3" d="M254.9 568.5c-.7-.4-1.3-.8-2-1.2v3.2c.7.4 1.3.8 2 1.1v-3.1z"/><path class="st1" d="M256.9 567.4c-.7.4-1.3.8-2 1.2-.7-.4-1.3-.8-2-1.2.7-.4 1.3-.8 2-1.1.7.3 1.3.7 2 1.1"/><path class="st3" d="M256.9 567.4c-.7.4-1.3.8-2 1.2-.7-.4-1.3-.8-2-1.2.7-.4 1.3-.8 2-1.1.7.3 1.3.7 2 1.1z"/><path class="st1" d="M256.9 564.5v3.2c-.7.4-1.3.8-2 1.1v-3.2c.7-.4 1.3-.7 2-1.1"/><path class="st3" d="M256.9 564.5v3.2c-.7.4-1.3.8-2 1.1v-3.2c.7-.4 1.3-.7 2-1.1z"/><path class="st1" d="M254.9 565.6c-.7-.4-1.3-.8-2-1.1v3.2c.7.4 1.3.8 2 1.1v-3.2z"/><path class="st3" d="M254.9 565.6c-.7-.4-1.3-.8-2-1.1v3.2c.7.4 1.3.8 2 1.1v-3.2z"/><path class="st1" d="M256.9 564.5c-.7.4-1.3.8-2 1.1-.7-.4-1.3-.8-2-1.1.7-.4 1.3-.8 2-1.1.7.3 1.3.7 2 1.1"/><path class="st3" d="M256.9 564.5c-.7.4-1.3.8-2 1.1-.7-.4-1.3-.8-2-1.1.7-.4 1.3-.8 2-1.1.7.3 1.3.7 2 1.1z"/><path class="st1" d="M297.9 581.9c-20.9 12-41.9 24.1-62.8 36.2-13.7-7.9-27.3-15.8-41-23.6 20.9-12.1 41.9-24.2 62.8-36.3 13.7 7.9 27.4 15.8 41 23.7"/><path class="st3" d="M297.9 581.9c-20.9 12-41.9 24.1-62.8 36.2-13.7-7.9-27.3-15.8-41-23.6 20.9-12.1 41.9-24.2 62.8-36.3 13.7 7.9 27.4 15.8 41 23.7z"/><path class="st1" d="M297.9 581.9v3.2c-20.9 12.1-41.9 24.2-62.8 36.3v-3.2c20.9-12.2 41.9-24.3 62.8-36.3"/><path class="st3" d="M297.9 581.9v3.2c-20.9 12.1-41.9 24.2-62.8 36.3v-3.2c20.9-12.2 41.9-24.3 62.8-36.3z"/><path class="st1" d="M235.1 621.3c-13.7-7.9-27.3-15.8-41-23.6v-3.2c13.7 7.9 27.3 15.8 41 23.6v3.2z"/><path class="st3" d="M235.1 621.3c-13.7-7.9-27.3-15.8-41-23.6v-3.2c13.7 7.9 27.3 15.8 41 23.6v3.2z"/><path class="st1" d="M181.3 484v52.4l-40.1 23.2v-52.5z"/><path class="st3" d="M181.3 484v52.4l-40.1 23.2v-52.5z"/><path class="st1" d="M141.2 559.6l-34.8-20.1V487l34.8 20.1v52.5z"/><path class="st3" d="M141.2 559.6l-34.8-20.1V487l34.8 20.1v52.5z"/><path class="st1" d="M178.6 538v6.2c-12.5 7.2-25 14.4-37.4 21.6v-6.2c12.5-7.2 25-14.4 37.4-21.6"/><path class="st3" d="M178.6 538v6.2c-12.5 7.2-25 14.4-37.4 21.6v-6.2c12.5-7.2 25-14.4 37.4-21.6z"/><path class="st1" d="M141.2 565.8l-32.1-18.5v-6.2c10.7 6.2 21.4 12.3 32.1 18.5v6.2"/><path class="st3" d="M141.2 565.8l-32.1-18.5v-6.2c10.7 6.2 21.4 12.3 32.1 18.5v6.2z"/><path class="st1" d="M141.2 507.7l41.1-23.7-35.8-20.6-41.1 23.7 35.8 20.6zm39.1-23.7l-39.1 22.6-33.8-19.5 39.1-22.6 33.8 19.5z"/><path class="st3" d="M141.2 507.7l41.1-23.7-35.8-20.6-41.1 23.7 35.8 20.6zm39.1-23.7l-39.1 22.6-33.8-19.5 39.1-22.6 33.8 19.5z"/><path class="st1" d="M178.6 504v30.9L143.8 555v-30.9c11.7-6.7 23.2-13.4 34.8-20.1"/><path class="st3" d="M178.6 504v30.9L143.8 555v-30.9c11.7-6.7 23.2-13.4 34.8-20.1z"/><path class="st1" d="M177.4 506.4V534c-10.8 6.2-21.6 12.3-32.4 18.5V525l32.4-18.6"/><path class="st3" d="M177.4 506.4V534c-10.8 6.2-21.6 12.3-32.4 18.5V525l32.4-18.6z"/><path class="st1" d="M177.3 511v3.1c-8.9 5.1-17.8 10.3-26.7 15.4v-3.1c8.9-5.1 17.8-10.3 26.7-15.4"/><path class="st3" d="M177.3 511v3.1c-8.9 5.1-17.8 10.3-26.7 15.4v-3.1c8.9-5.1 17.8-10.3 26.7-15.4z"/><path class="st1" d="M177.3 511l-2.7-1.5c-8.9 5.1-17.8 10.3-26.7 15.4l2.7 1.5c8.9-5.1 17.8-10.3 26.7-15.4"/><path class="st3" d="M177.3 511l-2.7-1.5c-8.9 5.1-17.8 10.3-26.7 15.4l2.7 1.5c8.9-5.1 17.8-10.3 26.7-15.4z"/><path class="st1" d="M150.6 529.5l-2.7-1.5v-3.1l2.7 1.5v3.1z"/><path class="st3" d="M150.6 529.5l-2.7-1.5v-3.1l2.7 1.5v3.1z"/><path class="st1" d="M178.6 491.7v3.1l-2.7 1.5v-3.1l2.7-1.5"/><path class="st3" d="M178.6 491.7v3.1l-2.7 1.5v-3.1l2.7-1.5z"/><path class="st1" d="M178.6 491.7l-2.7-1.5-2.7 1.5 2.7 1.5 2.7-1.5"/><path class="st3" d="M178.6 491.7l-2.7-1.5-2.7 1.5 2.7 1.5 2.7-1.5z"/><path class="st1" d="M173.3 491.7v3.1l2.7 1.5v-3.1l-2.7-1.5"/><path class="st3" d="M173.3 491.7v3.1l2.7 1.5v-3.1l-2.7-1.5z"/><path class="st1" d="M170.6 496.3v3.1l-2.7 1.5v-3.1l2.7-1.5"/><path class="st3" d="M170.6 496.3v3.1l-2.7 1.5v-3.1l2.7-1.5z"/><path class="st1" d="M170.6 496.3l-2.7-1.5-2.7 1.5 2.7 1.5 2.7-1.5"/><path class="st3" d="M170.6 496.3l-2.7-1.5-2.7 1.5 2.7 1.5 2.7-1.5z"/><path class="st1" d="M165.3 496.3v3.1l2.7 1.5v-3.1c-1-.5-1.8-1-2.7-1.5"/><path class="st3" d="M165.3 496.3v3.1l2.7 1.5v-3.1c-1-.5-1.8-1-2.7-1.5z"/><path class="st1" d="M165.3 499.4v3.1l-2.7 1.5v-3.1l2.7-1.5"/><path class="st3" d="M165.3 499.4v3.1l-2.7 1.5v-3.1l2.7-1.5z"/><path class="st1" d="M165.3 499.4l-2.7-1.5-2.7 1.5 2.7 1.5 2.7-1.5"/><path class="st3" d="M165.3 499.4l-2.7-1.5-2.7 1.5 2.7 1.5 2.7-1.5z"/><path class="st1" d="M159.9 499.4v3.1l2.7 1.5v-3.1l-2.7-1.5"/><path class="st3" d="M159.9 499.4v3.1l2.7 1.5v-3.1l-2.7-1.5z"/><path class="st1" d="M159.9 502.5v3.1l-2.7 1.5V504l2.7-1.5"/><path class="st3" d="M159.9 502.5v3.1l-2.7 1.5V504l2.7-1.5z"/><path class="st1" d="M159.9 502.5l-2.7-1.5-2.7 1.5 2.7 1.5 2.7-1.5"/><path class="st3" d="M159.9 502.5l-2.7-1.5-2.7 1.5 2.7 1.5 2.7-1.5z"/><path class="st1" d="M154.6 502.5v3.1l2.7 1.5V504l-2.7-1.5"/><path class="st3" d="M154.6 502.5v3.1l2.7 1.5V504l-2.7-1.5z"/><path class="st1" d="M154.6 505.6v3.1l-2.7 1.5v-3.1l2.7-1.5"/><path class="st3" d="M154.6 505.6v3.1l-2.7 1.5v-3.1l2.7-1.5z"/><path class="st1" d="M154.6 505.6l-2.7-1.5-2.7 1.5 2.7 1.5 2.7-1.5"/><path class="st3" d="M154.6 505.6l-2.7-1.5-2.7 1.5 2.7 1.5 2.7-1.5z"/><path class="st1" d="M149.2 505.6v3.1l2.7 1.5v-3.1l-2.7-1.5"/><path class="st3" d="M149.2 505.6v3.1l2.7 1.5v-3.1l-2.7-1.5z"/><path class="st1" d="M181.3 484v-1.5c-13.4 7.7-26.7 15.4-40.1 23.1v1.5c13.4-7.7 26.7-15.4 40.1-23.1"/><path class="st3" d="M181.3 484v-1.5c-13.4 7.7-26.7 15.4-40.1 23.1v1.5c13.4-7.7 26.7-15.4 40.1-23.1z"/><path class="st1" d="M181.3 482.5c-11.6-6.7-23.2-13.3-34.8-20-13.4 7.6-26.7 15.3-40.1 22.9l34.8 20.2c13.4-7.7 26.7-15.4 40.1-23.1"/><path class="st3" d="M181.3 482.5c-11.6-6.7-23.2-13.3-34.8-20-13.4 7.6-26.7 15.3-40.1 22.9l34.8 20.2c13.4-7.7 26.7-15.4 40.1-23.1z"/><path class="st1" d="M141.2 505.6v1.5L106.4 487v-1.6l34.8 20.2z"/><path class="st3" d="M141.2 505.6v1.5L106.4 487v-1.6l34.8 20.2z"/><path class="st1" d="M146.6 463.3v1.2l32.1 18.6c.4-.2.8-.5 1.2-.7-11.1-6.3-22.2-12.7-33.3-19.1"/><path class="st3" d="M146.6 463.3v1.2l32.1 18.6c.4-.2.8-.5 1.2-.7-11.1-6.3-22.2-12.7-33.3-19.1z"/><path class="st1" d="M146.6 463.3v1.2l-37.5 21.6c-.4-.2-.7-.4-1.1-.7 12.9-7.3 25.7-14.7 38.6-22.1"/><path class="st3" d="M146.6 463.3v1.2l-37.5 21.6c-.4-.2-.7-.4-1.1-.7 12.9-7.3 25.7-14.7 38.6-22.1z"/><path class="st1" d="M127.4 474.3v1.3c10.6 6.2 21.2 12.5 31.8 18.7.4-.2.8-.5 1.2-.7-11-6.4-22-12.8-33-19.3"/><path class="st3" d="M127.4 474.3v1.3c10.6 6.2 21.2 12.5 31.8 18.7.4-.2.8-.5 1.2-.7-11-6.4-22-12.8-33-19.3z"/><path class="st1" d="M146.6 464.6l-17.3 10c10.6 6.2 21.2 12.5 31.9 18.7 5.9-3.4 11.7-6.8 17.6-10.1-10.8-6.2-21.5-12.4-32.2-18.6"/><path class="st3" d="M146.6 464.6l-17.3 10c10.6 6.2 21.2 12.5 31.9 18.7 5.9-3.4 11.7-6.8 17.6-10.1-10.8-6.2-21.5-12.4-32.2-18.6z"/><path class="st1" d="M127.4 475.7l-18.3 10.5 32.1 18.6c6-3.5 12.1-7 18.1-10.5-10.6-6.2-21.2-12.4-31.9-18.6"/><path class="st3" d="M127.4 475.7l-18.3 10.5 32.1 18.6c6-3.5 12.1-7 18.1-10.5-10.6-6.2-21.2-12.4-31.9-18.6z"/><path class="st1" d="M127.1 474.2c.2-.1.4-.3.7-.4.8.5 1.7 1 2.5 1.5l-.6.4c-.9-.6-1.8-1.1-2.6-1.5"/><path class="st3" d="M127.1 474.2c.2-.1.4-.3.7-.4.8.5 1.7 1 2.5 1.5l-.6.4c-.9-.6-1.8-1.1-2.6-1.5z"/><path class="st1" d="M167.9 482.4c-1.8 1-3.6 2.1-5.3 3.1-1.8-1-3.6-2.1-5.3-3.1 1.8-1 3.6-2.1 5.3-3.1 1.8 1.1 3.6 2.1 5.3 3.1"/><path class="st3" d="M167.9 482.4c-1.8 1-3.6 2.1-5.3 3.1-1.8-1-3.6-2.1-5.3-3.1 1.8-1 3.6-2.1 5.3-3.1 1.8 1.1 3.6 2.1 5.3 3.1z"/><path class="st1" d="M167.9 482.4v1.1l-5.3 3.1v-1.1c1.8-1 3.6-2 5.3-3.1"/><path class="st3" d="M167.9 482.4v1.1l-5.3 3.1v-1.1c1.8-1 3.6-2 5.3-3.1z"/><path class="st1" d="M162.6 486.7c-1.8-1-3.6-2.1-5.3-3.1v-1.1c1.8 1 3.6 2.1 5.3 3.1v1.1"/><path class="st3" d="M162.6 486.7c-1.8-1-3.6-2.1-5.3-3.1v-1.1c1.8 1 3.6 2.1 5.3 3.1v1.1z"/><path class="st1" d="M147 494.5c-1.8 1-3.6 2.1-5.3 3.1-1.8-1-3.6-2.1-5.3-3.1 1.8-1 3.6-2.1 5.3-3.1 1.8 1 3.5 2 5.3 3.1"/><path class="st3" d="M147 494.5c-1.8 1-3.6 2.1-5.3 3.1-1.8-1-3.6-2.1-5.3-3.1 1.8-1 3.6-2.1 5.3-3.1 1.8 1 3.5 2 5.3 3.1z"/><path class="st1" d="M147 494.5v1.1c-1.8 1-3.6 2.1-5.3 3.1v-1.1c1.8-1.1 3.5-2.1 5.3-3.1"/><path class="st3" d="M147 494.5v1.1c-1.8 1-3.6 2.1-5.3 3.1v-1.1c1.8-1.1 3.5-2.1 5.3-3.1z"/><path class="st1" d="M141.7 498.7l-5.3-3.1v-1.1c1.8 1 3.6 2.1 5.3 3.1v1.1"/><path class="st3" d="M141.7 498.7l-5.3-3.1v-1.1c1.8 1 3.6 2.1 5.3 3.1v1.1z"/><path class="st1" d="M150.8 472.5c-1.8 1-3.6 2.1-5.3 3.1-1.8-1-3.6-2.1-5.3-3.1 1.8-1 3.6-2.1 5.3-3.1 1.7 1 3.5 2.1 5.3 3.1"/><path class="st3" d="M150.8 472.5c-1.8 1-3.6 2.1-5.3 3.1-1.8-1-3.6-2.1-5.3-3.1 1.8-1 3.6-2.1 5.3-3.1 1.7 1 3.5 2.1 5.3 3.1z"/><path class="st1" d="M150.8 472.5v1.1c-1.8 1-3.6 2.1-5.3 3.1v-1.1c1.7-1.1 3.5-2.1 5.3-3.1"/><path class="st3" d="M150.8 472.5v1.1c-1.8 1-3.6 2.1-5.3 3.1v-1.1c1.7-1.1 3.5-2.1 5.3-3.1z"/><path class="st1" d="M145.4 476.7c-1.8-1-3.6-2.1-5.3-3.1v-1.1c1.8 1 3.6 2.1 5.3 3.1v1.1"/><path class="st3" d="M145.4 476.7c-1.8-1-3.6-2.1-5.3-3.1v-1.1c1.8 1 3.6 2.1 5.3 3.1v1.1z"/><path class="st1" d="M129.8 484.5c-1.8 1-3.6 2.1-5.3 3.1-1.8-1-3.6-2.1-5.3-3.1 1.8-1 3.6-2.1 5.3-3.1 1.8 1.1 3.6 2.1 5.3 3.1"/><path class="st3" d="M129.8 484.5c-1.8 1-3.6 2.1-5.3 3.1-1.8-1-3.6-2.1-5.3-3.1 1.8-1 3.6-2.1 5.3-3.1 1.8 1.1 3.6 2.1 5.3 3.1z"/><path class="st1" d="M129.8 484.5v1.1l-5.3 3.1v-1.1c1.8-1 3.6-2 5.3-3.1"/><path class="st3" d="M129.8 484.5v1.1l-5.3 3.1v-1.1c1.8-1 3.6-2 5.3-3.1z"/><path class="st1" d="M124.5 488.8c-1.8-1-3.6-2.1-5.3-3.1v-1.1c1.8 1 3.6 2.1 5.3 3.1v1.1"/><path class="st3" d="M124.5 488.8c-1.8-1-3.6-2.1-5.3-3.1v-1.1c1.8 1 3.6 2.1 5.3 3.1v1.1z"/><path class="st1" d="M171.7 487.3c-1.1-.7-2.3-1.3-3.4-2-.3.2-.5.3-.8.5 1.1.7 2.3 1.3 3.4 2 .2-.2.5-.4.8-.5"/><path class="st3" d="M171.7 487.3c-1.1-.7-2.3-1.3-3.4-2-.3.2-.5.3-.8.5 1.1.7 2.3 1.3 3.4 2 .2-.2.5-.4.8-.5z"/><path class="st1" d="M167.5 485.7v.9c.8.5 1.7 1 2.5 1.5.3-.2.5-.3.8-.5-1.1-.6-2.2-1.2-3.3-1.9"/><path class="st3" d="M167.5 485.7v.9c.8.5 1.7 1 2.5 1.5.3-.2.5-.3.8-.5-1.1-.6-2.2-1.2-3.3-1.9z"/><path class="st1" d="M157.7 479.2c-1.1-.7-2.3-1.3-3.4-2l-.8.5c1.1.7 2.3 1.3 3.4 2 .3-.2.5-.4.8-.5"/><path class="st3" d="M157.7 479.2c-1.1-.7-2.3-1.3-3.4-2l-.8.5c1.1.7 2.3 1.3 3.4 2 .3-.2.5-.4.8-.5z"/><path class="st1" d="M153.5 477.7v.9c1.1.6 2.3 1.3 3.4 1.9v-.9c-1.1-.6-2.3-1.3-3.4-1.9"/><path class="st3" d="M153.5 477.7v.9c1.1.6 2.3 1.3 3.4 1.9v-.9c-1.1-.6-2.3-1.3-3.4-1.9z"/><path class="st1" d="M157.7 479.2v.9c-.3.2-.5.3-.8.5v-.9c.3-.2.5-.4.8-.5"/><path class="st3" d="M157.7 479.2v.9c-.3.2-.5.3-.8.5v-.9c.3-.2.5-.4.8-.5z"/><path class="st1" d="M153.4 487.3c1.1-.7 2.3-1.3 3.4-2 .3.2.5.3.8.5-1.1.7-2.3 1.3-3.4 2-.3-.2-.5-.4-.8-.5"/><path class="st3" d="M153.4 487.3c1.1-.7 2.3-1.3 3.4-2 .3.2.5.3.8.5-1.1.7-2.3 1.3-3.4 2-.3-.2-.5-.4-.8-.5z"/><path class="st1" d="M157.6 485.7v.9c-.8.5-1.7 1-2.5 1.5-.3-.2-.5-.3-.8-.5 1.1-.6 2.2-1.2 3.3-1.9"/><path class="st3" d="M157.6 485.7v.9c-.8.5-1.7 1-2.5 1.5-.3-.2-.5-.3-.8-.5 1.1-.6 2.2-1.2 3.3-1.9z"/><path class="st1" d="M167.4 479.2c1.1-.7 2.3-1.3 3.4-2l.8.5c-1.1.7-2.3 1.3-3.4 2-.3-.2-.5-.4-.8-.5"/><path class="st3" d="M167.4 479.2c1.1-.7 2.3-1.3 3.4-2l.8.5c-1.1.7-2.3 1.3-3.4 2-.3-.2-.5-.4-.8-.5z"/><path class="st1" d="M171.6 477.7v.9c-1.1.6-2.3 1.3-3.4 1.9v-.9c1.1-.6 2.3-1.3 3.4-1.9"/><path class="st3" d="M171.6 477.7v.9c-1.1.6-2.3 1.3-3.4 1.9v-.9c1.1-.6 2.3-1.3 3.4-1.9z"/><path class="st1" d="M167.4 479.2v.9c.3.2.5.3.8.5v-.9c-.3-.2-.5-.4-.8-.5"/><path class="st3" d="M167.4 479.2v.9c.3.2.5.3.8.5v-.9c-.3-.2-.5-.4-.8-.5z"/><path class="st1" d="M155.8 478.1l-3.4-2-.8.5c1.1.7 2.3 1.3 3.4 2 .2-.2.5-.4.8-.5"/><path class="st3" d="M155.8 478.1l-3.4-2-.8.5c1.1.7 2.3 1.3 3.4 2 .2-.2.5-.4.8-.5z"/><path class="st1" d="M151.6 476.6v.9c.8.5 1.7 1 2.5 1.5.3-.2.5-.3.8-.5-1.1-.6-2.2-1.3-3.3-1.9"/><path class="st3" d="M151.6 476.6v.9c.8.5 1.7 1 2.5 1.5.3-.2.5-.3.8-.5-1.1-.6-2.2-1.3-3.3-1.9z"/><path class="st1" d="M141.8 470c-1.1-.7-2.3-1.3-3.4-2l-.8.5c1.1.7 2.3 1.3 3.4 2 .3-.2.5-.4.8-.5"/><path class="st3" d="M141.8 470c-1.1-.7-2.3-1.3-3.4-2l-.8.5c1.1.7 2.3 1.3 3.4 2 .3-.2.5-.4.8-.5z"/><path class="st1" d="M137.6 468.5v.9c1.1.6 2.3 1.3 3.4 1.9v-.9c-1.1-.6-2.3-1.3-3.4-1.9"/><path class="st3" d="M137.6 468.5v.9c1.1.6 2.3 1.3 3.4 1.9v-.9c-1.1-.6-2.3-1.3-3.4-1.9z"/><path class="st1" d="M141.8 470v.9c-.3.2-.5.3-.8.5v-.9c.3-.2.5-.4.8-.5"/><path class="st3" d="M141.8 470v.9c-.3.2-.5.3-.8.5v-.9c.3-.2.5-.4.8-.5z"/><path class="st1" d="M137.5 478.1c1.1-.7 2.3-1.3 3.4-2 .3.2.5.3.8.5-1.1.7-2.3 1.3-3.4 2-.3-.2-.5-.4-.8-.5"/><path class="st3" d="M137.5 478.1c1.1-.7 2.3-1.3 3.4-2 .3.2.5.3.8.5-1.1.7-2.3 1.3-3.4 2-.3-.2-.5-.4-.8-.5z"/><path class="st1" d="M141.7 476.6v.9c-.8.5-1.7 1-2.5 1.5-.3-.2-.5-.3-.8-.5 1.1-.6 2.2-1.3 3.3-1.9"/><path class="st3" d="M141.7 476.6v.9c-.8.5-1.7 1-2.5 1.5-.3-.2-.5-.3-.8-.5 1.1-.6 2.2-1.3 3.3-1.9z"/><path class="st1" d="M151.5 470c1.1-.7 2.3-1.3 3.4-2 .3.2.5.3.8.5-1.1.7-2.3 1.3-3.4 2-.3-.2-.6-.4-.8-.5"/><path class="st3" d="M151.5 470c1.1-.7 2.3-1.3 3.4-2 .3.2.5.3.8.5-1.1.7-2.3 1.3-3.4 2-.3-.2-.6-.4-.8-.5z"/><path class="st1" d="M155.7 468.5v.9c-1.1.6-2.3 1.3-3.4 1.9v-.9c1.1-.6 2.2-1.3 3.4-1.9"/><path class="st3" d="M155.7 468.5v.9c-1.1.6-2.3 1.3-3.4 1.9v-.9c1.1-.6 2.2-1.3 3.4-1.9z"/><path class="st1" d="M151.5 470v.9c.3.2.5.3.8.5v-.9c-.3-.2-.6-.4-.8-.5"/><path class="st3" d="M151.5 470v.9c.3.2.5.3.8.5v-.9c-.3-.2-.6-.4-.8-.5z"/><path class="st1" d="M150.4 499.6c-1.1-.7-2.3-1.3-3.4-2l-.8.5c1.1.7 2.3 1.3 3.4 2 .2-.2.5-.4.8-.5"/><path class="st3" d="M150.4 499.6c-1.1-.7-2.3-1.3-3.4-2l-.8.5c1.1.7 2.3 1.3 3.4 2 .2-.2.5-.4.8-.5z"/><path class="st1" d="M146.2 498.1v.9c.8.5 1.7 1 2.5 1.5.3-.2.5-.3.8-.5-1.1-.6-2.2-1.3-3.3-1.9"/><path class="st3" d="M146.2 498.1v.9c.8.5 1.7 1 2.5 1.5.3-.2.5-.3.8-.5-1.1-.6-2.2-1.3-3.3-1.9z"/><path class="st1" d="M136.4 491.5c-1.1-.7-2.3-1.3-3.4-2l-.8.5c1.1.7 2.3 1.3 3.4 2 .2-.2.5-.3.8-.5"/><path class="st3" d="M136.4 491.5c-1.1-.7-2.3-1.3-3.4-2l-.8.5c1.1.7 2.3 1.3 3.4 2 .2-.2.5-.3.8-.5z"/><path class="st1" d="M132.2 490v.9c1.1.6 2.3 1.3 3.4 1.9v-.9c-1.2-.6-2.3-1.3-3.4-1.9"/><path class="st3" d="M132.2 490v.9c1.1.6 2.3 1.3 3.4 1.9v-.9c-1.2-.6-2.3-1.3-3.4-1.9z"/><path class="st1" d="M136.4 491.5v.9c-.3.2-.5.3-.8.5v-.9c.2-.2.5-.3.8-.5"/><path class="st3" d="M136.4 491.5v.9c-.3.2-.5.3-.8.5v-.9c.2-.2.5-.3.8-.5z"/><path class="st1" d="M132.1 499.6c1.1-.7 2.3-1.3 3.4-2l.8.5c-1.1.7-2.3 1.3-3.4 2-.3-.2-.6-.4-.8-.5"/><path class="st3" d="M132.1 499.6c1.1-.7 2.3-1.3 3.4-2l.8.5c-1.1.7-2.3 1.3-3.4 2-.3-.2-.6-.4-.8-.5z"/><path class="st1" d="M136.3 498.1v.9c-.8.5-1.7 1-2.5 1.5-.3-.2-.5-.3-.8-.5 1-.6 2.2-1.3 3.3-1.9"/><path class="st3" d="M136.3 498.1v.9c-.8.5-1.7 1-2.5 1.5-.3-.2-.5-.3-.8-.5 1-.6 2.2-1.3 3.3-1.9z"/><path class="st1" d="M146 491.5c1.1-.7 2.3-1.3 3.4-2l.8.5c-1.1.7-2.3 1.3-3.4 2-.2-.2-.5-.3-.8-.5"/><path class="st3" d="M146 491.5c1.1-.7 2.3-1.3 3.4-2l.8.5c-1.1.7-2.3 1.3-3.4 2-.2-.2-.5-.3-.8-.5z"/><path class="st1" d="M150.2 490v.9c-1.1.6-2.3 1.3-3.4 1.9v-.9c1.2-.6 2.3-1.3 3.4-1.9"/><path class="st3" d="M150.2 490v.9c-1.1.6-2.3 1.3-3.4 1.9v-.9c1.2-.6 2.3-1.3 3.4-1.9z"/><path class="st1" d="M146 491.5v.9c.3.2.5.3.8.5v-.9c-.2-.2-.5-.3-.8-.5"/><path class="st3" d="M146 491.5v.9c.3.2.5.3.8.5v-.9c-.2-.2-.5-.3-.8-.5z"/><path class="st1" d="M134.5 490.4c-1.1-.7-2.3-1.3-3.4-2l-.8.5c1.1.7 2.3 1.3 3.4 2 .2-.2.5-.4.8-.5"/><path class="st3" d="M134.5 490.4c-1.1-.7-2.3-1.3-3.4-2l-.8.5c1.1.7 2.3 1.3 3.4 2 .2-.2.5-.4.8-.5z"/><path class="st1" d="M130.3 488.9v.9c.8.5 1.7 1 2.5 1.5.3-.2.5-.3.8-.5-1.1-.6-2.2-1.3-3.3-1.9"/><path class="st3" d="M130.3 488.9v.9c.8.5 1.7 1 2.5 1.5.3-.2.5-.3.8-.5-1.1-.6-2.2-1.3-3.3-1.9z"/><path class="st1" d="M120.5 482.3c-1.1-.7-2.3-1.3-3.4-2-.3.2-.5.3-.8.5 1.1.7 2.3 1.3 3.4 2 .2-.2.5-.3.8-.5"/><path class="st3" d="M120.5 482.3c-1.1-.7-2.3-1.3-3.4-2-.3.2-.5.3-.8.5 1.1.7 2.3 1.3 3.4 2 .2-.2.5-.3.8-.5z"/><path class="st1" d="M116.3 480.8v.9c1.1.6 2.3 1.3 3.4 1.9v-.9c-1.2-.6-2.3-1.2-3.4-1.9"/><path class="st3" d="M116.3 480.8v.9c1.1.6 2.3 1.3 3.4 1.9v-.9c-1.2-.6-2.3-1.2-3.4-1.9z"/><path class="st1" d="M120.5 482.3v.9c-.3.2-.5.3-.8.5v-.9c.2-.2.5-.3.8-.5"/><path class="st3" d="M120.5 482.3v.9c-.3.2-.5.3-.8.5v-.9c.2-.2.5-.3.8-.5z"/><path class="st1" d="M116.2 490.4c1.1-.7 2.3-1.3 3.4-2 .3.2.5.3.8.5-1.1.7-2.3 1.3-3.4 2-.3-.2-.6-.4-.8-.5"/><path class="st3" d="M116.2 490.4c1.1-.7 2.3-1.3 3.4-2 .3.2.5.3.8.5-1.1.7-2.3 1.3-3.4 2-.3-.2-.6-.4-.8-.5z"/><path class="st1" d="M120.4 488.9v.9c-.8.5-1.7 1-2.5 1.5-.3-.2-.5-.3-.8-.5 1-.6 2.1-1.3 3.3-1.9"/><path class="st3" d="M120.4 488.9v.9c-.8.5-1.7 1-2.5 1.5-.3-.2-.5-.3-.8-.5 1-.6 2.1-1.3 3.3-1.9z"/><path class="st1" d="M130.1 482.3c1.1-.7 2.3-1.3 3.4-2 .3.2.5.3.8.5-1.1.7-2.3 1.3-3.4 2-.2-.2-.5-.3-.8-.5"/><path class="st3" d="M130.1 482.3c1.1-.7 2.3-1.3 3.4-2 .3.2.5.3.8.5-1.1.7-2.3 1.3-3.4 2-.2-.2-.5-.3-.8-.5z"/><path class="st1" d="M134.3 480.8v.9c-1.1.6-2.3 1.3-3.4 1.9v-.9c1.2-.6 2.3-1.2 3.4-1.9"/><path class="st3" d="M134.3 480.8v.9c-1.1.6-2.3 1.3-3.4 1.9v-.9c1.2-.6 2.3-1.2 3.4-1.9z"/><path class="st1" d="M130.1 482.3v.9c.3.2.5.3.8.5v-.9c-.2-.2-.5-.3-.8-.5"/><path class="st3" d="M130.1 482.3v.9c.3.2.5.3.8.5v-.9c-.2-.2-.5-.3-.8-.5z"/><path class="st1" d="M158.4 494.8c.7-.4 1.3-.7 2-1.1-11-6.5-22.1-13-33.1-19.4l-2.1 1.2c11.1 6.4 22.1 12.9 33.2 19.3"/><path class="st3" d="M158.4 494.8c.7-.4 1.3-.7 2-1.1-11-6.5-22.1-13-33.1-19.4l-2.1 1.2c11.1 6.4 22.1 12.9 33.2 19.3z"/><path class="st1" d="M150.2 490.9v-.9c2.7 1.6 5.5 3.2 8.2 4.8l-.7.4c-2.5-1.4-5-2.8-7.5-4.3"/><path class="st3" d="M150.2 490.9v-.9c2.7 1.6 5.5 3.2 8.2 4.8l-.7.4c-2.5-1.4-5-2.8-7.5-4.3z"/><path class="st1" d="M148.6 490c-2.4-1.4-4.9-2.8-7.3-4.2 0-.3-.1-.7-.1-1 2.7 1.6 5.5 3.2 8.2 4.7-.3.2-.5.4-.8.5"/><path class="st3" d="M148.6 490c-2.4-1.4-4.9-2.8-7.3-4.2 0-.3-.1-.7-.1-1 2.7 1.6 5.5 3.2 8.2 4.7-.3.2-.5.4-.8.5z"/><path class="st1" d="M141.1 484.7l-.9.5c-1.9-1.2-3.9-2.4-5.8-3.5v-.9c2.2 1.3 4.4 2.6 6.7 3.9"/><path class="st3" d="M141.1 484.7l-.9.5c-1.9-1.2-3.9-2.4-5.8-3.5v-.9c2.2 1.3 4.4 2.6 6.7 3.9z"/><path class="st1" d="M132.6 480.9c-2.3-1.4-4.7-2.8-7-4.1l-.3-1.2c2.7 1.6 5.5 3.2 8.2 4.8-.3.1-.6.3-.9.5"/><path class="st3" d="M132.6 480.9c-2.3-1.4-4.7-2.8-7-4.1l-.3-1.2c2.7 1.6 5.5 3.2 8.2 4.8-.3.1-.6.3-.9.5z"/><path class="st1" d="M160.6 493.6c.7-.4 1.3-.8 2-1.2l-17.3-10c-.4.3-.9.5-1.3.8 5.5 3.5 11.1 7 16.6 10.4"/><path class="st3" d="M160.6 493.6c.7-.4 1.3-.8 2-1.2l-17.3-10c-.4.3-.9.5-1.3.8 5.5 3.5 11.1 7 16.6 10.4z"/><path class="st1" d="M143.9 483.2c.4-.2.8-.5 1.2-.7-5.3-3.1-10.5-6.1-15.8-9.2-.6.3-1.1.7-1.7 1 5.5 2.9 10.9 5.9 16.3 8.9"/><path class="st3" d="M143.9 483.2c.4-.2.8-.5 1.2-.7-5.3-3.1-10.5-6.1-15.8-9.2-.6.3-1.1.7-1.7 1 5.5 2.9 10.9 5.9 16.3 8.9z"/><path class="st1" d="M124.8 495.3c12.8-7.4 25.7-14.9 38.5-22.3-.3-.2-.6-.3-.9-.5-12.9 7.4-25.7 14.8-38.6 22.3.3.1.7.3 1 .5"/><path class="st3" d="M124.8 495.3c12.8-7.4 25.7-14.9 38.5-22.3-.3-.2-.6-.3-.9-.5-12.9 7.4-25.7 14.8-38.6 22.3.3.1.7.3 1 .5z"/><path class="st1" d="M163.3 472.9v1.3c-2.4 1.4-4.7 2.7-7 4.1l-1.1-.6c-.3.2-.5.3-.8.5.1.3.1.7.2 1-2.4 1.4-4.9 2.9-7.3 4.3-.4-.2-.7-.4-1.1-.6 5.6-3.3 11.3-6.6 17.1-10"/><path class="st3" d="M163.3 472.9v1.3c-2.4 1.4-4.7 2.7-7 4.1l-1.1-.6c-.3.2-.5.3-.8.5.1.3.1.7.2 1-2.4 1.4-4.9 2.9-7.3 4.3-.4-.2-.7-.4-1.1-.6 5.6-3.3 11.3-6.6 17.1-10z"/><path class="st1" d="M142 485.3l.2 1.1c-2.5 1.4-4.9 2.8-7.4 4.2l-1-.6c-.3.2-.5.3-.8.5.1.3.1.7.2 1l-7.5 4.3c-.3-.2-.6-.4-1-.6 5.8-3.3 11.6-6.6 17.3-9.9"/><path class="st3" d="M142 485.3l.2 1.1c-2.5 1.4-4.9 2.8-7.4 4.2l-1-.6c-.3.2-.5.3-.8.5.1.3.1.7.2 1l-7.5 4.3c-.3-.2-.6-.4-1-.6 5.8-3.3 11.6-6.6 17.3-9.9z"/><g class="st7"><defs><path id="SVGID_3_" d="M144.3 461.8h37.1v23.4h-37.1z"/></defs><clipPath id="SVGID_4_"><use xlink:href="#SVGID_3_" overflow="visible"/></clipPath><path class="st8" d="M177.7 483.7c.7-.4 1.5-.8 2.2-1.2l-8.3-4.8c-.4.5-.8 1.1-1.2 1.6 2.4 1.5 4.9 2.9 7.3 4.4"/><path class="st9" d="M177.7 483.7c.7-.4 1.5-.8 2.2-1.2l-8.3-4.8c-.4.5-.8 1.1-1.2 1.6 2.4 1.5 4.9 2.9 7.3 4.4z"/><path class="st8" d="M168.7 478.4c.7-.4 1.3-.8 2-1.2-2.5-1.5-5.1-2.9-7.6-4.4-.3.6-.5 1.3-.8 1.9 2.2 1.3 4.3 2.5 6.4 3.7"/><path class="st9" d="M168.7 478.4c.7-.4 1.3-.8 2-1.2-2.5-1.5-5.1-2.9-7.6-4.4-.3.6-.5 1.3-.8 1.9 2.2 1.3 4.3 2.5 6.4 3.7z"/><path class="st8" d="M162.4 472.4c-.6.4-1.3.7-1.9 1.1l-6-3.4c.4-.5.8-1.1 1.2-1.6 2.2 1.3 4.5 2.6 6.7 3.9"/><path class="st9" d="M162.4 472.4c-.6.4-1.3.7-1.9 1.1l-6-3.4c.4-.5.8-1.1 1.2-1.6 2.2 1.3 4.5 2.6 6.7 3.9z"/><path class="st8" d="M153 469.1c.6-.3 1.2-.7 1.8-1-2.7-1.6-5.5-3.1-8.2-4.7-.3.5-.5 1.1-.8 1.6 2.4 1.4 4.8 2.7 7.2 4.1"/><path class="st9" d="M153 469.1c.6-.3 1.2-.7 1.8-1-2.7-1.6-5.5-3.1-8.2-4.7-.3.5-.5 1.1-.8 1.6 2.4 1.4 4.8 2.7 7.2 4.1z"/></g><g class="st7"><defs><path id="SVGID_5_" d="M123 474.2h37.1v23.4H123z"/></defs><clipPath id="SVGID_6_"><use xlink:href="#SVGID_5_" overflow="visible"/></clipPath><path class="st10" d="M156.4 496c.7-.4 1.5-.8 2.2-1.2l-8.3-4.8c-.4.5-.8 1.1-1.2 1.6 2.4 1.5 4.9 3 7.3 4.4"/><path class="st11" d="M156.4 496c.7-.4 1.5-.8 2.2-1.2l-8.3-4.8c-.4.5-.8 1.1-1.2 1.6 2.4 1.5 4.9 3 7.3 4.4z"/><path class="st10" d="M147.5 490.7c.7-.4 1.3-.8 2-1.2-2.5-1.5-5.1-2.9-7.6-4.4-.3.6-.5 1.3-.8 1.9 2.1 1.3 4.2 2.5 6.4 3.7"/><path class="st11" d="M147.5 490.7c.7-.4 1.3-.8 2-1.2-2.5-1.5-5.1-2.9-7.6-4.4-.3.6-.5 1.3-.8 1.9 2.1 1.3 4.2 2.5 6.4 3.7z"/><path class="st10" d="M141.1 484.8c-.6.4-1.3.7-1.9 1.1-2-1.1-4-2.3-6-3.4.4-.5.8-1.1 1.2-1.6 2.2 1.2 4.5 2.5 6.7 3.9"/><path class="st11" d="M141.1 484.8c-.6.4-1.3.7-1.9 1.1-2-1.1-4-2.3-6-3.4.4-.5.8-1.1 1.2-1.6 2.2 1.2 4.5 2.5 6.7 3.9z"/><path class="st10" d="M131.7 481.4c.6-.3 1.2-.7 1.8-1-2.7-1.6-5.5-3.1-8.2-4.7-.3.5-.5 1.1-.8 1.6 2.4 1.4 4.8 2.7 7.2 4.1"/><path class="st11" d="M131.7 481.4c.6-.3 1.2-.7 1.8-1-2.7-1.6-5.5-3.1-8.2-4.7-.3.5-.5 1.1-.8 1.6 2.4 1.4 4.8 2.7 7.2 4.1z"/></g><g class="st7"><defs><path id="SVGID_7_" d="M154.3 480.9h9.8v7.2h-9.8z"/></defs><clipPath id="SVGID_8_"><use xlink:href="#SVGID_7_" overflow="visible"/></clipPath><path d="M157.2 482.4c-.5.3-1 .6-1.5.8 1.9 1.1 3.7 2.1 5.6 3.2.4.1.8.1 1.3.2v-1.1c-1.8-1-3.6-2-5.4-3.1" clip-path="url(#SVGID_8_)" fill="#f1f2f2"/><path d="M157.2 482.4c-.5.3-1 .6-1.5.8 1.9 1.1 3.7 2.1 5.6 3.2.4.1.8.1 1.3.2v-1.1c-1.8-1-3.6-2-5.4-3.1z" clip-path="url(#SVGID_8_)" fill="none" stroke="#604a9e" stroke-width="3" stroke-linecap="round" stroke-linejoin="round" stroke-miterlimit="10"/></g><g class="st7"><defs><path id="SVGID_9_" d="M137.1 471h9.8v7.2h-9.8z"/></defs><clipPath id="SVGID_10_"><use xlink:href="#SVGID_9_" overflow="visible"/></clipPath><path d="M140.1 472.5c-.5.3-1 .6-1.5.8 1.9 1.1 3.7 2.1 5.5 3.2.4.1.8.1 1.3.2v-1.1c-1.8-1.1-3.6-2.1-5.3-3.1" clip-path="url(#SVGID_10_)" fill="#f1f2f2"/><path d="M140.1 472.5c-.5.3-1 .6-1.5.8 1.9 1.1 3.7 2.1 5.5 3.2.4.1.8.1 1.3.2v-1.1c-1.8-1.1-3.6-2.1-5.3-3.1z" clip-path="url(#SVGID_10_)" fill="none" stroke="#604a9e" stroke-width="3" stroke-linecap="round" stroke-linejoin="round" stroke-miterlimit="10"/></g><g class="st7"><defs><path id="SVGID_11_" d="M116.2 483h9.8v7.2h-9.8z"/></defs><clipPath id="SVGID_12_"><use xlink:href="#SVGID_11_" overflow="visible"/></clipPath><path d="M119.2 484.5c-.5.3-1 .6-1.5.8 1.9 1.1 3.7 2.1 5.5 3.2.4.1.8.1 1.3.2v-1.1c-1.8-1-3.6-2-5.3-3.1" clip-path="url(#SVGID_12_)" fill="#f1f2f2"/><path d="M119.2 484.5c-.5.3-1 .6-1.5.8 1.9 1.1 3.7 2.1 5.5 3.2.4.1.8.1 1.3.2v-1.1c-1.8-1-3.6-2-5.3-3.1z" clip-path="url(#SVGID_12_)" fill="none" stroke="#604a9e" stroke-width="3" stroke-linecap="round" stroke-linejoin="round" stroke-miterlimit="10"/></g><g class="st7"><defs><path id="SVGID_13_" d="M133.4 493h9.8v7.2h-9.8z"/></defs><clipPath id="SVGID_14_"><use xlink:href="#SVGID_13_" overflow="visible"/></clipPath><path d="M136.3 494.5c-.5.3-1 .6-1.5.8 1.9 1.1 3.7 2.1 5.6 3.2.4.1.8.1 1.3.2v-1.1c-1.8-1.1-3.6-2.1-5.4-3.1" clip-path="url(#SVGID_14_)" fill="#f1f2f2"/><path d="M136.3 494.5c-.5.3-1 .6-1.5.8 1.9 1.1 3.7 2.1 5.6 3.2.4.1.8.1 1.3.2v-1.1c-1.8-1.1-3.6-2.1-5.4-3.1z" clip-path="url(#SVGID_14_)" fill="none" stroke="#604a9e" stroke-width="3" stroke-linecap="round" stroke-linejoin="round" stroke-miterlimit="10"/></g><g opacity=".17"><defs><path id="SVGID_15_" d="M139.7 536.5h40.4v27.7h-40.4z"/></defs><clipPath id="SVGID_16_"><use xlink:href="#SVGID_15_" overflow="visible"/></clipPath><path d="M178.6 538l-2.4 4.5c-11.7 6.7-23.4 13.5-35 20.2v-3.1c12.5-7.2 25-14.4 37.4-21.6" clip-path="url(#SVGID_16_)" fill="#f1f2f2"/><path d="M178.6 538l-2.4 4.5c-11.7 6.7-23.4 13.5-35 20.2v-3.1c12.5-7.2 25-14.4 37.4-21.6z" clip-path="url(#SVGID_16_)" fill="none" stroke="#604a9e" stroke-width="3" stroke-linecap="round" stroke-linejoin="round" stroke-miterlimit="10"/></g></svg>