<svg version="1.1" id="Layer_1" xmlns="http://www.w3.org/2000/svg" xmlns:xlink="http://www.w3.org/1999/xlink" x="0" y="0" viewBox="0 0 868.9 709.9" xml:space="preserve"><style>.st1{fill:#f1f2f2}.st3{fill:none;stroke:#604a9e;stroke-width:3;stroke-linecap:round;stroke-linejoin:round;stroke-miterlimit:10}.st5,.st6{clip-path:url(#SVGID_2_);fill:#f1f2f2}.st6{fill:none;stroke:#604a9e;stroke-width:3;stroke-linecap:round;stroke-linejoin:round;stroke-miterlimit:10}</style><path d="M689.3 302c26.3-11.8 38.3-42.6 26.7-69.1-9.6-22.1-32.6-34.3-55.4-31.2 11.2-20.1 8.3-46-8.7-63-17.1-17.1-42.9-20-63-8.7 3.1-22.8-9.1-45.8-31.2-55.4-26.5-11.5-57.3.4-69.1 26.7-.6-29-24-52.3-52.9-52.3s-52.4 23.3-52.8 52.1c-11.8-26.3-42.6-38.3-69.1-26.7-22.2 9.6-34.3 32.6-31.2 55.4-20.1-11.2-45.9-8.3-63 8.7-17.1 17.1-20 42.9-8.7 63-22.8-3.1-45.8 9.1-55.4 31.2-11.5 26.5.4 57.3 26.7 69.1-28.8.4-52.1 23.8-52.1 52.8 0 28.9 23.3 52.4 52.1 52.8-26.3 11.8-38.3 42.6-26.7 69.1 9.6 22.2 32.6 34.3 55.4 31.2-11.2 20.1-8.3 46 8.7 63 17.1 17.1 42.9 20 63 8.7-3.1 22.8 9.1 45.8 31.2 55.4 26.5 11.5 57.3-.4 69.1-26.7.4 28.8 23.8 52.1 52.8 52.1 28.9 0 52.4-23.3 52.8-52.1 11.8 26.3 42.6 38.3 69.1 26.7 22.2-9.6 34.3-32.6 31.2-55.4 20.1 11.2 46 8.3 63-8.7 17.1-17.1 20-42.9 8.7-63 22.8 3.1 45.8-9.1 55.4-31.2 11.5-26.5-.4-57.3-26.7-69.1 28.8-.4 52.1-23.8 52.1-52.8.1-28.8-23.2-52.2-52-52.6" fill="#50c0ab"/><path class="st1" d="M170.9 297.1c0-.5.3-1 .8-1.3l294.5-170c.5-.3 1-.3 1.5 0l178.2 102.9c.3.2.6.5.7.9 0 .1.1.3.1.4v183.7c0 .5-.3 1-.8 1.3l-6.4 3.7-171.8 99.2L351.4 585c-.2.1-.5.2-.7.2-.2 0-.4-.1-.6-.2h-.1l-171.8-99.2-6.4-3.7c-.5-.3-.8-.8-.8-1.3l-.1-183.7z"/><path d="M170.9 297.1h0c0-.5.3-1 .8-1.3l294.5-170c.5-.3 1-.3 1.5 0l178.2 102.9s0 0 0 0c.3.2.6.5.7.9 0 .1.1.3.1.4v183.7c0 .5-.3 1-.8 1.3l-6.4 3.7-171.8 99.2s0 0 0 0 0 0 0 0L351.4 585h0s0 0 0 0c-.2.1-.5.2-.7.2-.2 0-.4-.1-.6-.2h-.1 0s0 0 0 0l-171.8-99.2-6.4-3.7c-.5-.3-.8-.8-.8-1.3l-.1-183.7z" fill="none" stroke="#fff" stroke-width="11" stroke-linecap="round" stroke-linejoin="round" stroke-miterlimit="10"/><path class="st1" d="M295.1 233.6v183.7c-2.1-1.2-4.2-2.5-6.4-3.7V229.9c2.1 1.3 4.3 2.5 6.4 3.7"/><path class="st3" d="M295.1 233.6v183.7c-2.1-1.2-4.2-2.5-6.4-3.7V229.9c2.1 1.3 4.3 2.5 6.4 3.7z"/><path class="st1" d="M466.9 134.4v183.7c57.3 33.1 114.6 66.1 171.8 99.2V233.6c-57.2-33.1-114.5-66.1-171.8-99.2"/><path class="st3" d="M466.9 134.4v183.7c57.3 33.1 114.6 66.1 171.8 99.2V233.6c-57.2-33.1-114.5-66.1-171.8-99.2z"/><path class="st1" d="M466.9 516.5c-57.3-33.1-114.6-66.1-171.8-99.2v-7.7c57.3 33.2 114.6 66.3 171.9 99.5-.1 2.5-.1 5-.1 7.4"/><path class="st3" d="M466.9 516.5c-57.3-33.1-114.6-66.1-171.8-99.2v-7.7c57.3 33.2 114.6 66.3 171.9 99.5-.1 2.5-.1 5-.1 7.4z"/><path class="st1" d="M645.1 229.9v183.7c-2.1 1.2-4.2 2.4-6.4 3.7V233.6c2.2-1.2 4.3-2.4 6.4-3.7"/><path class="st3" d="M645.1 229.9v183.7c-2.1 1.2-4.2 2.4-6.4 3.7V233.6c2.2-1.2 4.3-2.4 6.4-3.7z"/><path class="st1" d="M178.8 300.7v183.7c-2.1-1.2-4.2-2.5-6.4-3.7V297c2.2 1.3 4.3 2.5 6.4 3.7"/><path class="st3" d="M178.8 300.7v183.7c-2.1-1.2-4.2-2.5-6.4-3.7V297c2.2 1.3 4.3 2.5 6.4 3.7z"/><path class="st1" d="M178.8 484.4V300.7l171.8-99.2c38.8-22.4 77.5-44.8 116.3-67.1v183.7c-38.8 22.4-77.5 44.8-116.3 67.1-57.2 33.1-114.5 66.2-171.8 99.2"/><path class="st3" d="M178.8 484.4V300.7l171.8-99.2c38.8-22.4 77.5-44.8 116.3-67.1v183.7c-38.8 22.4-77.5 44.8-116.3 67.1-57.2 33.1-114.5 66.2-171.8 99.2z"/><path class="st1" d="M172.4 297.1l178.2-102.9c38.8-22.4 77.5-44.8 116.3-67.1L645.1 230c-2.1 1.2-4.2 2.5-6.4 3.7-57.3-33.1-114.6-66.1-171.8-99.2-57.3 33.1-114.6 66.1-171.8 99.2-38.8 22.4-77.5 44.8-116.3 67.1-2.1-1.3-4.2-2.5-6.4-3.7"/><path class="st3" d="M172.4 297.1l178.2-102.9c38.8-22.4 77.5-44.8 116.3-67.1L645.1 230c-2.1 1.2-4.2 2.5-6.4 3.7-57.3-33.1-114.6-66.1-171.8-99.2-57.3 33.1-114.6 66.1-171.8 99.2-38.8 22.4-77.5 44.8-116.3 67.1-2.1-1.3-4.2-2.5-6.4-3.7z"/><path class="st1" d="M178.8 477.1c2.1-1.2 4.2-2.4 6.4-3.7 55.2 31.8 110.3 63.7 165.5 95.5 36.6-21.2 73.3-42.3 109.9-63.5-55.2-31.8-110.3-63.7-165.5-95.5 2.1-1.2 4.2-2.4 6.4-3.7 55.2 31.8 110.3 63.7 165.5 95.5 16.4-9.5 32.8-18.9 49.2-28.4 38.8-22.4 77.5-44.8 116.3-67.1 2.1 1.2 4.2 2.5 6.4 3.7-57.3 33.1-114.6 66.1-171.8 99.2-38.8 22.4-77.5 44.8-116.3 67.1-57.4-33-114.7-66-172-99.1"/><path class="st3" d="M178.8 477.1c2.1-1.2 4.2-2.4 6.4-3.7 55.2 31.8 110.3 63.7 165.5 95.5 36.6-21.2 73.3-42.3 109.9-63.5-55.2-31.8-110.3-63.7-165.5-95.5 2.1-1.2 4.2-2.4 6.4-3.7 55.2 31.8 110.3 63.7 165.5 95.5 16.4-9.5 32.8-18.9 49.2-28.4 38.8-22.4 77.5-44.8 116.3-67.1 2.1 1.2 4.2 2.5 6.4 3.7-57.3 33.1-114.6 66.1-171.8 99.2-38.8 22.4-77.5 44.8-116.3 67.1-57.4-33-114.7-66-172-99.1z"/><path class="st1" d="M185.2 473.1c38.8-22.4 77.5-44.8 116.3-67.1 55.2-31.8 110.3-63.7 165.5-95.5L632.4 406c-55.2 32-110.3 63.9-165.5 95.9-.1 0-.2-.1-.2-.1-38.7 22.4-77.4 44.8-116 67.3-55.2-32.1-110.4-64-165.5-96"/><path class="st3" d="M185.2 473.1c38.8-22.4 77.5-44.8 116.3-67.1 55.2-31.8 110.3-63.7 165.5-95.5L632.4 406c-55.2 32-110.3 63.9-165.5 95.9-.1 0-.2-.1-.2-.1-38.7 22.4-77.4 44.8-116 67.3-55.2-32.1-110.4-64-165.5-96z"/><path class="st1" d="M350.6 583.7c-57.3-33.1-114.6-66.1-171.8-99.2v-7.7c57.3 33.2 114.6 66.3 171.9 99.5 0 2.4 0 4.9-.1 7.4"/><path class="st3" d="M350.6 583.7c-57.3-33.1-114.6-66.1-171.8-99.2v-7.7c57.3 33.2 114.6 66.3 171.9 99.5 0 2.4 0 4.9-.1 7.4z"/><path class="st1" d="M350.6 583.7v-7.4L522.5 477c38.8-22.4 77.5-44.8 116.3-67.1 0 2.5-.1 5-.1 7.4-57.3 33.1-114.6 66.1-171.8 99.2-38.7 22.4-77.5 44.8-116.3 67.2"/><path class="st3" d="M350.6 583.7v-7.4L522.5 477c38.8-22.4 77.5-44.8 116.3-67.1 0 2.5-.1 5-.1 7.4-57.3 33.1-114.6 66.1-171.8 99.2-38.7 22.4-77.5 44.8-116.3 67.2z"/><path class="st1" d="M306.8 376.8v62.8c-12.4 7.2-24.8 14.3-37.2 21.5v-62.8c12.4-7.2 24.8-14.3 37.2-21.5"/><path class="st3" d="M306.8 376.8v62.8c-12.4 7.2-24.8 14.3-37.2 21.5v-62.8c12.4-7.2 24.8-14.3 37.2-21.5z"/><path class="st1" d="M306.8 376.8c-10.5-6.1-21-12.1-31.5-18.2-12.4 7.2-24.8 14.3-37.2 21.5l31.5 18.2c12.4-7.2 24.8-14.3 37.2-21.5"/><path class="st3" d="M306.8 376.8c-10.5-6.1-21-12.1-31.5-18.2-12.4 7.2-24.8 14.3-37.2 21.5l31.5 18.2c12.4-7.2 24.8-14.3 37.2-21.5z"/><path class="st1" d="M238.1 380.1v62.8c10.5 6.1 21 12.1 31.5 18.2v-62.8l-31.5-18.2z"/><path class="st3" d="M238.1 380.1v62.8c10.5 6.1 21 12.1 31.5 18.2v-62.8l-31.5-18.2z"/><path class="st1" d="M304 381.8v6.6c-2.9 1.7-5.7 3.3-8.6 5v-6.6c2.8-1.7 5.7-3.4 8.6-5"/><path class="st3" d="M304 381.8v6.6c-2.9 1.7-5.7 3.3-8.6 5v-6.6c2.8-1.7 5.7-3.4 8.6-5z"/><path class="st1" d="M269.6 412.1c12.4-7.2 24.8-14.3 37.2-21.5v-1.1c-12.4 7.2-24.8 14.3-37.2 21.5v1.1z"/><path class="st3" d="M269.6 412.1c12.4-7.2 24.8-14.3 37.2-21.5v-1.1c-12.4 7.2-24.8 14.3-37.2 21.5v1.1z"/><path class="st1" d="M306.8 436.3c-12.4 7.2-24.8 14.3-37.2 21.5v3.3c12.4-7.2 24.8-14.3 37.2-21.5v-3.3z"/><path class="st3" d="M306.8 436.3c-12.4 7.2-24.8 14.3-37.2 21.5v3.3c12.4-7.2 24.8-14.3 37.2-21.5v-3.3z"/><path class="st1" d="M269.6 457.8c-10.5-6.1-21-12.1-31.5-18.2v3.3c10.5 6.1 21 12.1 31.5 18.2v-3.3"/><path class="st3" d="M269.6 457.8c-10.5-6.1-21-12.1-31.5-18.2v3.3c10.5 6.1 21 12.1 31.5 18.2v-3.3z"/><path class="st1" d="M289 410.2c-6.7 3.7-12.1 13-12.2 20.7-.1 7.7 5.3 11 11.9 7.3 6.7-3.7 12.1-13 12.2-20.7.1-7.8-5.2-11-11.9-7.3"/><path class="st3" d="M289 410.2c-6.7 3.7-12.1 13-12.2 20.7-.1 7.7 5.3 11 11.9 7.3 6.7-3.7 12.1-13 12.2-20.7.1-7.8-5.2-11-11.9-7.3z"/><path class="st1" d="M285.5 438.8c6.7-3.7 12.1-13 12.2-20.7 0-5.5-2.7-8.8-6.7-8.8 5.7-2.1 10.1 1.2 10 8.2-.1 7.7-5.5 17-12.2 20.7-1.9 1.1-3.7 1.5-5.3 1.5.7-.3 1.3-.6 2-.9"/><path class="st3" d="M285.5 438.8c6.7-3.7 12.1-13 12.2-20.7 0-5.5-2.7-8.8-6.7-8.8 5.7-2.1 10.1 1.2 10 8.2-.1 7.7-5.5 17-12.2 20.7-1.9 1.1-3.7 1.5-5.3 1.5.7-.3 1.3-.6 2-.9z"/><g opacity=".32"><defs><path id="SVGID_1_" d="M278.7 407.8h20.4v34h-20.4z"/></defs><clipPath id="SVGID_2_"><use xlink:href="#SVGID_1_" overflow="visible"/></clipPath><path class="st5" d="M291.8 409.3h.2-.2z"/><path class="st6" d="M291.8 409.3h.2-.2z"/><path class="st5" d="M281.3 440.2c-.3 0-.7.1-1 .1.3 0 .6-.1 1-.1-.1 0 0 0 0 0"/><path class="st6" d="M281.3 440.2c-.3 0-.7.1-1 .1.3 0 .6-.1 1-.1-.1 0 0 0 0 0z"/><path class="st5" d="M283.5 439.6s-.1 0-.1.1c-.7.3-1.5.4-2.2.5.8-.1 1.5-.3 2.3-.6"/><path class="st6" d="M283.5 439.6s-.1 0-.1.1c-.7.3-1.5.4-2.2.5.8-.1 1.5-.3 2.3-.6z"/><path class="st5" d="M292.3 409.4c-.1 0-.2 0-.4-.1.2.1.3.1.4.1"/><path class="st6" d="M292.3 409.4c-.1 0-.2 0-.4-.1.2.1.3.1.4.1z"/><path class="st5" d="M297.6 418.1c0-4.8-2-7.9-5.2-8.6 3.2.7 5.3 3.7 5.2 8.6 0 7.7-5.5 17-12.1 20.7-.7.4-1.4.7-2.1.9 0 0 .1 0 .1-.1.6-.2 1.3-.5 1.9-.9 6.7-3.6 12.2-12.9 12.2-20.6"/><path class="st6" d="M297.6 418.1c0-4.8-2-7.9-5.2-8.6 3.2.7 5.3 3.7 5.2 8.6 0 7.7-5.5 17-12.1 20.7-.7.4-1.4.7-2.1.9 0 0 .1 0 .1-.1.6-.2 1.3-.5 1.9-.9 6.7-3.6 12.2-12.9 12.2-20.6z"/></g><path class="st1" d="M288.6 408.7c7.3-4.1 13.2-.5 13.2 8-.1 8.5-6.1 18.7-13.4 22.8-7.3 4.1-13.2.5-13.2-8 .1-8.5 6.1-18.7 13.4-22.8m-.2 29.1c6.5-3.6 11.8-12.7 11.9-20.2.1-7.5-5.2-10.7-11.7-7.1-6.5 3.6-11.8 12.7-11.9 20.2 0 7.5 5.2 10.7 11.7 7.1"/><path class="st3" d="M288.6 408.7c7.3-4.1 13.2-.5 13.2 8-.1 8.5-6.1 18.7-13.4 22.8-7.3 4.1-13.2.5-13.2-8 .1-8.5 6.1-18.7 13.4-22.8zm-.2 29.1c6.5-3.6 11.8-12.7 11.9-20.2.1-7.5-5.2-10.7-11.7-7.1-6.5 3.6-11.8 12.7-11.9 20.2 0 7.5 5.2 10.7 11.7 7.1z"/><path class="st1" d="M274.6 431.2c.1-8.5 6.1-18.7 13.4-22.8 3.2-1.8 6.1-2.1 8.4-1.2-2.2-.6-4.8-.2-7.6 1.4-7.3 4.1-13.3 14.3-13.4 22.8 0 4.8 1.8 8 4.8 9.2-3.4-.8-5.6-4.2-5.6-9.4"/><path class="st3" d="M274.6 431.2c.1-8.5 6.1-18.7 13.4-22.8 3.2-1.8 6.1-2.1 8.4-1.2-2.2-.6-4.8-.2-7.6 1.4-7.3 4.1-13.3 14.3-13.4 22.8 0 4.8 1.8 8 4.8 9.2-3.4-.8-5.6-4.2-5.6-9.4z"/><path class="st1" d="M632.6 352.5c-.1 18-.1 35.9-.2 53.9-3.5 2-6.9 4-10.4 6v-12c-38.1 21.8-76.2 43.7-114.2 65.5v12c-3.5 2-6.9 4-10.4 6 .1-18 .1-35.9.2-53.9 45-25.9 90-51.7 135-77.5"/><path class="st3" d="M632.6 352.5c-.1 18-.1 35.9-.2 53.9-3.5 2-6.9 4-10.4 6v-12c-38.1 21.8-76.2 43.7-114.2 65.5v12c-3.5 2-6.9 4-10.4 6 .1-18 .1-35.9.2-53.9 45-25.9 90-51.7 135-77.5z"/><path class="st1" d="M622 412.4c-3.5-2-6.9-4-10.4-6l10.4-6v12"/><path class="st3" d="M622 412.4c-3.5-2-6.9-4-10.4-6l10.4-6v12z"/><path class="st1" d="M497.5 429.9c-3.5-2-6.9-4-10.4-6v24c-12.1-7-24.2-14.1-36.3-21.1 0 10-.1 20-.1 30 3.5 2 6.9 4 10.4 6v-11.9l25.9 15v12c3.5 2 6.9 4 10.4 6 0-18 .1-36 .1-54"/><path class="st3" d="M497.5 429.9c-3.5-2-6.9-4-10.4-6v24c-12.1-7-24.2-14.1-36.3-21.1 0 10-.1 20-.1 30 3.5 2 6.9 4 10.4 6v-11.9l25.9 15v12c3.5 2 6.9 4 10.4 6 0-18 .1-36 .1-54z"/><path class="st1" d="M632.6 352.5c-3.5-2-6.9-4-10.4-6l-135 77.4c3.5 2 6.9 4 10.4 6l135-77.4"/><path class="st3" d="M632.6 352.5c-3.5-2-6.9-4-10.4-6l-135 77.4c3.5 2 6.9 4 10.4 6l135-77.4z"/><path class="st1" d="M450.9 426.8c3.5-2 6.9-4 10.4-6l25.9 15v12c-12.1-6.9-24.2-13.9-36.3-21"/><path class="st3" d="M450.9 426.8c3.5-2 6.9-4 10.4-6l25.9 15v12c-12.1-6.9-24.2-13.9-36.3-21z"/><path class="st1" d="M466.5 423.9c36.4-20.8 72.7-41.7 109.1-62.5 3.4 2 6.9 4 10.4 6L487.3 424v12c-7-4.1-13.9-8.1-20.8-12.1"/><path class="st3" d="M466.5 423.9c36.4-20.8 72.7-41.7 109.1-62.5 3.4 2 6.9 4 10.4 6L487.3 424v12c-7-4.1-13.9-8.1-20.8-12.1z"/><path class="st1" d="M580.7 352.4c5.2 3 10.4 6 15.5 9-3.5 2-6.9 4-10.4 6-5.2-3-10.4-6-15.5-9 3.5-2.1 7-4 10.4-6"/><path class="st3" d="M580.7 352.4c5.2 3 10.4 6 15.5 9-3.5 2-6.9 4-10.4 6-5.2-3-10.4-6-15.5-9 3.5-2.1 7-4 10.4-6z"/><path class="st1" d="M570.3 358.3v6c3.5 2 6.9 4 10.3 6 1.7-1 3.5-2 5.2-3-5.1-3-10.3-6-15.5-9"/><path class="st3" d="M570.3 358.3v6c3.5 2 6.9 4 10.3 6 1.7-1 3.5-2 5.2-3-5.1-3-10.3-6-15.5-9z"/><path class="st1" d="M461.2 462.8c3.5-2 6.9-4 10.4-5.9-3.5-2-6.9-4-10.4-6v11.9z"/><path class="st3" d="M461.2 462.8c3.5-2 6.9-4 10.4-5.9-3.5-2-6.9-4-10.4-6v11.9z"/><path class="st1" d="M311.6 463.6v54.8c1.3.8 2.6 1.5 4 2.3v-54.8c-1.4-.8-2.7-1.5-4-2.3"/><path class="st3" d="M311.6 463.6v54.8c1.3.8 2.6 1.5 4 2.3v-54.8c-1.4-.8-2.7-1.5-4-2.3z"/><path class="st1" d="M315.5 465.9c1.3-.8 2.6-1.5 4-2.3v54.8c-1.3.8-2.6 1.5-4 2.3v-54.8z"/><path class="st3" d="M315.5 465.9c1.3-.8 2.6-1.5 4-2.3v54.8c-1.3.8-2.6 1.5-4 2.3v-54.8z"/><path class="st1" d="M311.6 463.6c1.3-.8 2.6-1.5 4-2.3 1.3.8 2.6 1.5 4 2.3-1.3.8-2.6 1.5-4 2.3-1.4-.8-2.7-1.5-4-2.3"/><path class="st3" d="M311.6 463.6c1.3-.8 2.6-1.5 4-2.3 1.3.8 2.6 1.5 4 2.3-1.3.8-2.6 1.5-4 2.3-1.4-.8-2.7-1.5-4-2.3z"/><path class="st1" d="M350.8 486.2V541c1.3.8 2.6 1.5 4 2.3v-54.8c-1.4-.7-2.7-1.5-4-2.3"/><path class="st3" d="M350.8 486.2V541c1.3.8 2.6 1.5 4 2.3v-54.8c-1.4-.7-2.7-1.5-4-2.3z"/><path class="st1" d="M354.7 488.5c1.3-.8 2.6-1.5 4-2.3V541c-1.3.8-2.6 1.5-4 2.3v-54.8z"/><path class="st3" d="M354.7 488.5c1.3-.8 2.6-1.5 4-2.3V541c-1.3.8-2.6 1.5-4 2.3v-54.8z"/><path class="st1" d="M350.8 486.2c1.3-.8 2.6-1.5 4-2.3 1.3.8 2.6 1.5 4 2.3-1.3.8-2.6 1.5-4 2.3-1.4-.7-2.7-1.5-4-2.3"/><path class="st3" d="M350.8 486.2c1.3-.8 2.6-1.5 4-2.3 1.3.8 2.6 1.5 4 2.3-1.3.8-2.6 1.5-4 2.3-1.4-.7-2.7-1.5-4-2.3z"/><path class="st1" d="M380.7 423.8v54.8c1.3.8 2.6 1.5 4 2.3V426c-1.4-.7-2.7-1.5-4-2.2"/><path class="st3" d="M380.7 423.8v54.8c1.3.8 2.6 1.5 4 2.3V426c-1.4-.7-2.7-1.5-4-2.2z"/><path class="st1" d="M384.7 426c1.3-.8 2.6-1.5 4-2.3v54.8c-1.3.8-2.6 1.5-4 2.3V426z"/><path class="st3" d="M384.7 426c1.3-.8 2.6-1.5 4-2.3v54.8c-1.3.8-2.6 1.5-4 2.3V426z"/><path class="st1" d="M380.7 423.8c1.3-.8 2.6-1.5 4-2.3 1.3.8 2.6 1.5 4 2.3-1.3.8-2.6 1.5-4 2.3-1.4-.8-2.7-1.6-4-2.3"/><path class="st3" d="M380.7 423.8c1.3-.8 2.6-1.5 4-2.3 1.3.8 2.6 1.5 4 2.3-1.3.8-2.6 1.5-4 2.3-1.4-.8-2.7-1.6-4-2.3z"/><path class="st1" d="M419.9 446.4v54.8c1.3.8 2.6 1.5 4 2.3v-54.8c-1.3-.8-2.6-1.5-4-2.3"/><path class="st3" d="M419.9 446.4v54.8c1.3.8 2.6 1.5 4 2.3v-54.8c-1.3-.8-2.6-1.5-4-2.3z"/><path class="st1" d="M423.9 448.7c1.3-.8 2.6-1.5 4-2.3v54.8c-1.3.8-2.6 1.5-4 2.3v-54.8z"/><path class="st3" d="M423.9 448.7c1.3-.8 2.6-1.5 4-2.3v54.8c-1.3.8-2.6 1.5-4 2.3v-54.8z"/><path class="st1" d="M419.9 446.4c1.3-.8 2.6-1.5 4-2.3 1.3.8 2.6 1.5 4 2.3-1.3.8-2.6 1.5-4 2.3-1.3-.8-2.6-1.5-4-2.3"/><path class="st3" d="M419.9 446.4c1.3-.8 2.6-1.5 4-2.3 1.3.8 2.6 1.5 4 2.3-1.3.8-2.6 1.5-4 2.3-1.3-.8-2.6-1.5-4-2.3z"/><path class="st1" d="M297.1 463.8v3.4c18.6 10.8 37.3 21.5 55.9 32.3v-3.4c-18.6-10.8-37.2-21.5-55.9-32.3"/><path class="st3" d="M297.1 463.8v3.4c18.6 10.8 37.3 21.5 55.9 32.3v-3.4c-18.6-10.8-37.2-21.5-55.9-32.3z"/><path class="st1" d="M297.1 463.8c29.4-17 58.9-34 88.3-51 18.6 10.8 37.3 21.5 55.9 32.3-29.4 17-58.9 34-88.3 51-18.6-10.8-37.2-21.5-55.9-32.3"/><path class="st3" d="M297.1 463.8c29.4-17 58.9-34 88.3-51 18.6 10.8 37.3 21.5 55.9 32.3-29.4 17-58.9 34-88.3 51-18.6-10.8-37.2-21.5-55.9-32.3z"/><path class="st1" d="M353.1 499.5c29.4-17 58.9-34 88.3-51v-3.4c-29.4 17-58.9 34-88.3 51v3.4"/><path class="st3" d="M353.1 499.5c29.4-17 58.9-34 88.3-51v-3.4c-29.4 17-58.9 34-88.3 51v3.4z"/><path class="st1" d="M399.6 490.9c0 9.3 0 18.7.1 28l-1.7-1.1c-.1-9-.1-18-.2-26.9h1.8"/><path class="st3" d="M399.6 490.9c0 9.3 0 18.7.1 28l-1.7-1.1c-.1-9-.1-18-.2-26.9h1.8z"/><path class="st1" d="M399.6 518.9c.6-.3 1.2-.7 1.8-1 0-9 0-18 .1-27h-1.9v28"/><path class="st3" d="M399.6 518.9c.6-.3 1.2-.7 1.8-1 0-9 0-18 .1-27h-1.9v28z"/><path class="st1" d="M416.7 499.5c0 9.3 0 18.7.1 28l-1.7-1.1c-.1-9-.1-18-.2-26.9h1.8"/><path class="st3" d="M416.7 499.5c0 9.3 0 18.7.1 28l-1.7-1.1c-.1-9-.1-18-.2-26.9h1.8z"/><path class="st1" d="M416.8 527.5c.6-.3 1.2-.7 1.8-1 0-9 0-18 .1-27h-1.9c-.1 9.3 0 18.7 0 28"/><path class="st3" d="M416.8 527.5c.6-.3 1.2-.7 1.8-1 0-9 0-18 .1-27h-1.9c-.1 9.3 0 18.7 0 28z"/><path class="st1" d="M433.8 490.9c0 9.3 0 18.7.1 28l-1.7-1.1c-.1-9-.1-18-.2-26.9h1.8"/><path class="st3" d="M433.8 490.9c0 9.3 0 18.7.1 28l-1.7-1.1c-.1-9-.1-18-.2-26.9h1.8z"/><path class="st1" d="M433.9 518.9c.6-.3 1.2-.7 1.8-1 0-9 0-18 .1-27h-1.9v28"/><path class="st3" d="M433.9 518.9c.6-.3 1.2-.7 1.8-1 0-9 0-18 .1-27h-1.9v28z"/><path class="st1" d="M438.1 492.4l-21.4-12.3c-7.1 4.1-14.3 8.2-21.4 12.3 7.1 4.1 14.3 8.2 21.4 12.3 7.2-4 14.3-8.1 21.4-12.3"/><path class="st3" d="M438.1 492.4l-21.4-12.3c-7.1 4.1-14.3 8.2-21.4 12.3 7.1 4.1 14.3 8.2 21.4 12.3 7.2-4 14.3-8.1 21.4-12.3z"/><path class="st1" d="M395.4 492.5v2.5c7.1 4.1 14.3 8.2 21.4 12.3v-2.5c-7.2-4.1-14.3-8.2-21.4-12.3"/><path class="st3" d="M395.4 492.5v2.5c7.1 4.1 14.3 8.2 21.4 12.3v-2.5c-7.2-4.1-14.3-8.2-21.4-12.3z"/><path class="st1" d="M416.8 507.3c7.1-4.1 14.3-8.3 21.4-12.4v-2.5c-7.1 4.1-14.3 8.3-21.4 12.4v2.5z"/><path class="st3" d="M416.8 507.3c7.1-4.1 14.3-8.3 21.4-12.4v-2.5c-7.1 4.1-14.3 8.3-21.4 12.4v2.5z"/><path class="st1" d="M416.8 504.8l4.3-27.2c.7-.4 1.5-.9 2.2-1.3-1.4 9.1-2.9 18.1-4.3 27.2-.8.5-1.5.9-2.2 1.3"/><path class="st3" d="M416.8 504.8l4.3-27.2c.7-.4 1.5-.9 2.2-1.3-1.4 9.1-2.9 18.1-4.3 27.2-.8.5-1.5.9-2.2 1.3z"/><path class="st1" d="M416.8 504.8c-.3-.2-.6-.4-1-.6 1.4-9 2.8-18.1 4.3-27.1.3.2.6.4 1 .6l-4.3 27.1z"/><path class="st3" d="M416.8 504.8c-.3-.2-.6-.4-1-.6 1.4-9 2.8-18.1 4.3-27.1.3.2.6.4 1 .6l-4.3 27.1z"/><path class="st1" d="M420.1 477.1c.3.2.6.4 1 .6.7-.4 1.5-.9 2.2-1.3-.3-.2-.7-.4-1-.5-.8.4-1.5.8-2.2 1.2"/><path class="st3" d="M420.1 477.1c.3.2.6.4 1 .6.7-.4 1.5-.9 2.2-1.3-.3-.2-.7-.4-1-.5-.8.4-1.5.8-2.2 1.2z"/><path class="st1" d="M436 493.8l4.3-27.2c.7-.4 1.5-.9 2.2-1.3-1.4 9.1-2.9 18.1-4.3 27.2-.8.4-1.5.9-2.2 1.3"/><path class="st3" d="M436 493.8l4.3-27.2c.7-.4 1.5-.9 2.2-1.3-1.4 9.1-2.9 18.1-4.3 27.2-.8.4-1.5.9-2.2 1.3z"/><path class="st1" d="M436 493.8c-.3-.2-.6-.4-1-.6 1.4-9 2.8-18.1 4.3-27.1.3.2.6.4 1 .6l-4.3 27.1z"/><path class="st3" d="M436 493.8c-.3-.2-.6-.4-1-.6 1.4-9 2.8-18.1 4.3-27.1.3.2.6.4 1 .6l-4.3 27.1z"/><path class="st1" d="M439.3 466.1c.3.2.6.4 1 .6.7-.4 1.5-.9 2.2-1.3l-1-.5c-.8.3-1.5.7-2.2 1.2"/><path class="st3" d="M439.3 466.1c.3.2.6.4 1 .6.7-.4 1.5-.9 2.2-1.3l-1-.5c-.8.3-1.5.7-2.2 1.2z"/><path class="st1" d="M423.3 476.4c5.7-3.3 11.3-6.5 17-9.8l-.9 5.4c-5.7 3.3-11.3 6.5-17 9.8l.9-5.4"/><path class="st3" d="M423.3 476.4c5.7-3.3 11.3-6.5 17-9.8l-.9 5.4c-5.7 3.3-11.3 6.5-17 9.8l.9-5.4z"/><path class="st1" d="M422.1 483.9c-.1.6-.2 1.3-.3 1.9 5.7-3.2 11.3-6.5 17-9.7.1-.6.2-1.3.3-1.9-5.7 3.2-11.4 6.4-17 9.7"/><path class="st3" d="M422.1 483.9c-.1.6-.2 1.3-.3 1.9 5.7-3.2 11.3-6.5 17-9.7.1-.6.2-1.3.3-1.9-5.7 3.2-11.4 6.4-17 9.7z"/><path class="st1" d="M422.2 475.8c5.7-3.3 11.4-6.5 17-9.8.3.2.7.4 1 .6l-17.8 10.3-.2-1.1z"/><path class="st3" d="M422.2 475.8c5.7-3.3 11.4-6.5 17-9.8.3.2.7.4 1 .6l-17.8 10.3-.2-1.1z"/><path class="st1" d="M439 474.2l-1-.5c-5.3 3-10.5 6.1-15.8 9.1-.1.4-.1.8-.2 1.2 5.7-3.3 11.4-6.6 17-9.8"/><path class="st3" d="M439 474.2l-1-.5c-5.3 3-10.5 6.1-15.8 9.1-.1.4-.1.8-.2 1.2 5.7-3.3 11.4-6.6 17-9.8z"/><path class="st1" d="M370.6 509.5c0 9.3 0 18.7.1 28l-1.7-1.1-.2-26.9h1.8"/><path class="st3" d="M370.6 509.5c0 9.3 0 18.7.1 28l-1.7-1.1-.2-26.9h1.8z"/><path class="st1" d="M370.7 537.6c.6-.3 1.2-.7 1.8-1 0-9 0-18 .1-27h-1.9c-.1 9.3-.1 18.6 0 28"/><path class="st3" d="M370.7 537.6c.6-.3 1.2-.7 1.8-1 0-9 0-18 .1-27h-1.9c-.1 9.3-.1 18.6 0 28z"/><path class="st1" d="M387.7 518.1c0 9.3 0 18.7.1 28-.6-.4-1.1-.7-1.7-1.1-.1-9-.1-18-.2-26.9h1.8"/><path class="st3" d="M387.7 518.1c0 9.3 0 18.7.1 28-.6-.4-1.1-.7-1.7-1.1-.1-9-.1-18-.2-26.9h1.8z"/><path class="st1" d="M387.8 546.2c.6-.3 1.2-.7 1.8-1 0-9 0-18 .1-27h-1.9v28"/><path class="st3" d="M387.8 546.2c.6-.3 1.2-.7 1.8-1 0-9 0-18 .1-27h-1.9v28z"/><path class="st1" d="M404.9 509.5c0 9.3 0 18.7.1 28-.6-.4-1.1-.7-1.7-1.1-.1-9-.1-18-.2-26.9h1.8"/><path class="st3" d="M404.9 509.5c0 9.3 0 18.7.1 28-.6-.4-1.1-.7-1.7-1.1-.1-9-.1-18-.2-26.9h1.8z"/><path class="st1" d="M404.9 537.6c.6-.3 1.2-.7 1.8-1 0-9 0-18 .1-27h-1.9v28"/><path class="st3" d="M404.9 537.6c.6-.3 1.2-.7 1.8-1 0-9 0-18 .1-27h-1.9v28z"/><path class="st1" d="M409.2 511.1c-7.1-4.1-14.3-8.2-21.4-12.3-7.1 4.1-14.3 8.2-21.4 12.3 7.1 4.1 14.3 8.2 21.4 12.3 7.1-4.1 14.2-8.2 21.4-12.3"/><path class="st3" d="M409.2 511.1c-7.1-4.1-14.3-8.2-21.4-12.3-7.1 4.1-14.3 8.2-21.4 12.3 7.1 4.1 14.3 8.2 21.4 12.3 7.1-4.1 14.2-8.2 21.4-12.3z"/><path class="st1" d="M366.4 511.1v2.5c7.1 4.1 14.3 8.2 21.4 12.3v-2.5c-7.2-4-14.3-8.2-21.4-12.3"/><path class="st3" d="M366.4 511.1v2.5c7.1 4.1 14.3 8.2 21.4 12.3v-2.5c-7.2-4-14.3-8.2-21.4-12.3z"/><path class="st1" d="M387.8 525.9c7.1-4.1 14.3-8.3 21.4-12.4V511c-7.1 4.1-14.3 8.3-21.4 12.4v2.5z"/><path class="st3" d="M387.8 525.9c7.1-4.1 14.3-8.3 21.4-12.4V511c-7.1 4.1-14.3 8.3-21.4 12.4v2.5z"/><path class="st1" d="M387.8 523.5l4.3-27.2c.7-.4 1.5-.9 2.2-1.3-1.4 9.1-2.9 18.1-4.3 27.2-.8.4-1.5.8-2.2 1.3"/><path class="st3" d="M387.8 523.5l4.3-27.2c.7-.4 1.5-.9 2.2-1.3-1.4 9.1-2.9 18.1-4.3 27.2-.8.4-1.5.8-2.2 1.3z"/><path class="st1" d="M387.8 523.5c-.3-.2-.6-.4-1-.6 1.4-9 2.8-18.1 4.3-27.1.3.2.6.4 1 .6l-4.3 27.1z"/><path class="st3" d="M387.8 523.5c-.3-.2-.6-.4-1-.6 1.4-9 2.8-18.1 4.3-27.1.3.2.6.4 1 .6l-4.3 27.1z"/><path class="st1" d="M391.1 495.7c.3.2.6.4 1 .6.7-.4 1.5-.9 2.2-1.3-.3-.2-.7-.4-1-.5-.8.4-1.5.8-2.2 1.2"/><path class="st3" d="M391.1 495.7c.3.2.6.4 1 .6.7-.4 1.5-.9 2.2-1.3-.3-.2-.7-.4-1-.5-.8.4-1.5.8-2.2 1.2z"/><path class="st1" d="M407 512.4c1.4-9.1 2.9-18.1 4.3-27.2.7-.4 1.5-.9 2.2-1.3-1.4 9.1-2.9 18.1-4.3 27.2-.8.5-1.5.9-2.2 1.3"/><path class="st3" d="M407 512.4c1.4-9.1 2.9-18.1 4.3-27.2.7-.4 1.5-.9 2.2-1.3-1.4 9.1-2.9 18.1-4.3 27.2-.8.5-1.5.9-2.2 1.3z"/><path class="st1" d="M407 512.4c-.3-.2-.6-.4-1-.6 1.4-9 2.8-18.1 4.3-27.1.3.2.6.4 1 .6-1.5 9-2.9 18.1-4.3 27.1"/><path class="st3" d="M407 512.4c-.3-.2-.6-.4-1-.6 1.4-9 2.8-18.1 4.3-27.1.3.2.6.4 1 .6-1.5 9-2.9 18.1-4.3 27.1z"/><path class="st1" d="M410.3 484.7c.3.2.6.4 1 .6.7-.4 1.5-.9 2.2-1.3-.3-.2-.7-.4-1-.5-.8.3-1.5.8-2.2 1.2"/><path class="st3" d="M410.3 484.7c.3.2.6.4 1 .6.7-.4 1.5-.9 2.2-1.3-.3-.2-.7-.4-1-.5-.8.3-1.5.8-2.2 1.2z"/><path class="st1" d="M394.3 495c5.7-3.3 11.3-6.5 17-9.8l-.9 5.4c-5.7 3.3-11.3 6.5-17 9.8l.9-5.4"/><path class="st3" d="M394.3 495c5.7-3.3 11.3-6.5 17-9.8l-.9 5.4c-5.7 3.3-11.3 6.5-17 9.8l.9-5.4z"/><path class="st1" d="M393.1 502.5c-.1.6-.2 1.3-.3 1.9 5.7-3.2 11.3-6.5 17-9.7.1-.6.2-1.3.3-1.9-5.7 3.2-11.4 6.5-17 9.7"/><path class="st3" d="M393.1 502.5c-.1.6-.2 1.3-.3 1.9 5.7-3.2 11.3-6.5 17-9.7.1-.6.2-1.3.3-1.9-5.7 3.2-11.4 6.5-17 9.7z"/><path class="st1" d="M393.2 494.5c5.7-3.3 11.4-6.5 17-9.8.3.2.6.4 1 .6l-17.8 10.3c0-.4-.1-.8-.2-1.1"/><path class="st3" d="M393.2 494.5c5.7-3.3 11.4-6.5 17-9.8.3.2.6.4 1 .6l-17.8 10.3c0-.4-.1-.8-.2-1.1z"/><path class="st1" d="M410.1 492.8l-1-.5c-5.3 3-10.5 6.1-15.8 9.1-.1.4-.1.8-.2 1.2 5.6-3.3 11.3-6.5 17-9.8"/><path class="st3" d="M410.1 492.8l-1-.5c-5.3 3-10.5 6.1-15.8 9.1-.1.4-.1.8-.2 1.2 5.6-3.3 11.3-6.5 17-9.8z"/><path class="st1" d="M385.2 348c-7.5-4.4-15.1-8.7-22.6-13.1v35.9c7.5 4.4 15.1 8.7 22.6 13.1V348"/><path class="st3" d="M385.2 348c-7.5-4.4-15.1-8.7-22.6-13.1v35.9c7.5 4.4 15.1 8.7 22.6 13.1V348z"/><path class="st1" d="M379.5 351.3c7.5-4.4 20.8-12 28.3-16.4v35.9c-5.9 3.4-15.2 8.8-22.6 13.1L362.6 397v-35.9c5.6-3.3 11.2-6.5 16.9-9.8"/><path class="st3" d="M379.5 351.3c7.5-4.4 20.8-12 28.3-16.4v35.9c-5.9 3.4-15.2 8.8-22.6 13.1L362.6 397v-35.9c5.6-3.3 11.2-6.5 16.9-9.8z"/><path class="st1" d="M362.6 361.1c-7.5-4.4-15.1-8.7-22.6-13.1v36l22.6 13.1v-36"/><path class="st3" d="M362.6 361.1c-7.5-4.4-15.1-8.7-22.6-13.1v36l22.6 13.1v-36z"/><path class="st1" d="M365.4 392.1v-29.4l39.6-22.9v29.4l-39.6 22.9z"/><path class="st3" d="M365.4 392.1v-29.4l39.6-22.9v29.4l-39.6 22.9z"/><path class="st1" d="M362.6 335c7.5-4.4 15-8.7 22.6-13.1 7.5 4.4 15.1 8.7 22.6 13.1-5.3 3.1-10.6 6.1-16 9.2h.1c-7.5 4.4-21.8 12.5-29.3 16.9-7.5-4.4-15.1-8.7-22.6-13.1 5.6-3.2 15.1-8.7 22.6-13"/><path class="st3" d="M362.6 335c7.5-4.4 15-8.7 22.6-13.1 7.5 4.4 15.1 8.7 22.6 13.1-5.3 3.1-10.6 6.1-16 9.2h.1c-7.5 4.4-21.8 12.5-29.3 16.9-7.5-4.4-15.1-8.7-22.6-13.1 5.6-3.2 15.1-8.7 22.6-13z"/><path class="st1" d="M366 370.9c13.2-7.5 25.8-14.6 39-22.1"/><path class="st3" d="M366 370.9c13.2-7.5 25.8-14.6 39-22.1"/><path class="st1" d="M366 381.1c13.2-7.5 25.8-14.6 39-22.1"/><path class="st3" d="M366 381.1c13.2-7.5 25.8-14.6 39-22.1"/><path class="st1" d="M377.2 359.9c5.6-3.3 11.2-6.5 16.8-9.8v1.1c-5.6 3.2-11.2 6.5-16.8 9.7v-1"/><path class="st3" d="M377.2 359.9c5.6-3.3 11.2-6.5 16.8-9.8v1.1c-5.6 3.2-11.2 6.5-16.8 9.7v-1z"/><path class="st1" d="M394 350.1c-.1-.1-.3-.2-.4-.2-5.6 3.2-11.2 6.5-16.9 9.7.2.1.3.2.5.3 5.6-3.3 11.2-6.5 16.8-9.8"/><path class="st3" d="M394 350.1c-.1-.1-.3-.2-.4-.2-5.6 3.2-11.2 6.5-16.9 9.7.2.1.3.2.5.3 5.6-3.3 11.2-6.5 16.8-9.8z"/><path class="st1" d="M376.8 359.6v1c.1.1.3.2.4.2v-1c-.2 0-.3-.1-.4-.2"/><path class="st3" d="M376.8 359.6v1c.1.1.3.2.4.2v-1c-.2 0-.3-.1-.4-.2z"/><path class="st1" d="M377.3 369.9c5.6-3.3 11.2-6.5 16.8-9.8v1.1c-5.6 3.2-11.2 6.5-16.8 9.7v-1"/><path class="st3" d="M377.3 369.9c5.6-3.3 11.2-6.5 16.8-9.8v1.1c-5.6 3.2-11.2 6.5-16.8 9.7v-1z"/><path class="st1" d="M394.1 360.1c-.1-.1-.3-.2-.4-.2-5.6 3.2-11.2 6.5-16.9 9.7.2.1.3.2.5.3 5.6-3.3 11.2-6.5 16.8-9.8"/><path class="st3" d="M394.1 360.1c-.1-.1-.3-.2-.4-.2-5.6 3.2-11.2 6.5-16.9 9.7.2.1.3.2.5.3 5.6-3.3 11.2-6.5 16.8-9.8z"/><path class="st1" d="M376.9 369.7v1c.1.1.3.2.4.2v-1c-.2-.1-.3-.2-.4-.2"/><path class="st3" d="M376.9 369.7v1c.1.1.3.2.4.2v-1c-.2-.1-.3-.2-.4-.2z"/><path class="st1" d="M377.3 379.7c5.6-3.3 11.2-6.5 16.8-9.8v1.1l-16.8 9.7v-1"/><path class="st3" d="M377.3 379.7c5.6-3.3 11.2-6.5 16.8-9.8v1.1l-16.8 9.7v-1z"/><path class="st1" d="M394.1 369.9c-.1-.1-.3-.2-.4-.2-5.6 3.2-11.2 6.5-16.9 9.7.2.1.3.2.5.3 5.6-3.3 11.2-6.5 16.8-9.8"/><path class="st3" d="M394.1 369.9c-.1-.1-.3-.2-.4-.2-5.6 3.2-11.2 6.5-16.9 9.7.2.1.3.2.5.3 5.6-3.3 11.2-6.5 16.8-9.8z"/><path class="st1" d="M376.9 379.4v1c.1.1.3.2.4.2v-1c-.2 0-.3-.1-.4-.2"/><path class="st3" d="M376.9 379.4v1c.1.1.3.2.4.2v-1c-.2 0-.3-.1-.4-.2z"/><path class="st1" d="M407 248.5v61c-24.5 14.1-48.9 28.2-73.4 42.4v-61c24.5-14.2 49-28.3 73.4-42.4"/><path class="st3" d="M407 248.5v61c-24.5 14.1-48.9 28.2-73.4 42.4v-61c24.5-14.2 49-28.3 73.4-42.4z"/><path class="st1" d="M407 248.5c-1-.6-2-1.1-2.9-1.7l-73.4 42.4c1 .6 2 1.1 2.9 1.7 24.5-14.2 49-28.3 73.4-42.4"/><path class="st3" d="M407 248.5c-1-.6-2-1.1-2.9-1.7l-73.4 42.4c1 .6 2 1.1 2.9 1.7 24.5-14.2 49-28.3 73.4-42.4z"/><path class="st1" d="M330.7 350.1v-61c1 .6 2 1.1 2.9 1.7v61c-.9-.6-1.9-1.1-2.9-1.7"/><path class="st3" d="M330.7 350.1v-61c1 .6 2 1.1 2.9 1.7v61c-.9-.6-1.9-1.1-2.9-1.7z"/><path class="st1" d="M404.1 253.5v50.8l-67.5 39v-50.8l67.5-39"/><path class="st3" d="M404.1 253.5v50.8l-67.5 39v-50.8l67.5-39z"/><path class="st1" d="M404.1 304.4c-.3-.2-.6-.3-.9-.5V254c.3-.2.6-.3.9-.5v50.9z"/><path class="st3" d="M404.1 304.4c-.3-.2-.6-.3-.9-.5V254c.3-.2.6-.3.9-.5v50.9z"/><path class="st1" d="M403.2 303.9l-66.6 38.5v.9l67.5-39c-.3-.1-.6-.3-.9-.4"/><path class="st3" d="M403.2 303.9l-66.6 38.5v.9l67.5-39c-.3-.1-.6-.3-.9-.4z"/><path class="st1" d="M380.6 324.7v10.2c-4.9 2.8-9.8 5.6-14.7 8.5v-10.2c4.9-2.9 9.8-5.7 14.7-8.5"/><path class="st3" d="M380.6 324.7v10.2c-4.9 2.8-9.8 5.6-14.7 8.5v-10.2c4.9-2.9 9.8-5.7 14.7-8.5z"/><path class="st1" d="M365.9 343.3c-1-.6-2-1.1-2.9-1.7v-6.8c1-.6 2-1.1 2.9-1.7v10.2z"/><path class="st3" d="M365.9 343.3c-1-.6-2-1.1-2.9-1.7v-6.8c1-.6 2-1.1 2.9-1.7v10.2z"/><path class="st1" d="M380.6 331.5c2 1.1 4 2.2 5.9 3.3-6.9 4-13.7 8-20.6 11.9-2-1.1-3.9-2.3-5.9-3.4 1.1-.6 2.1-1.2 3.2-1.8.9.6 1.9 1.2 2.8 1.8 4.9-2.8 9.8-5.6 14.6-8.5v-3.3z"/><path class="st3" d="M380.6 331.5c2 1.1 4 2.2 5.9 3.3-6.9 4-13.7 8-20.6 11.9-2-1.1-3.9-2.3-5.9-3.4 1.1-.6 2.1-1.2 3.2-1.8.9.6 1.9 1.2 2.8 1.8 4.9-2.8 9.8-5.6 14.6-8.5v-3.3z"/><path class="st1" d="M386.5 334.8c0 1.2-.1 2.3-.1 3.5-6.8 4-13.7 7.9-20.5 11.9v-3.4c6.9-4.1 13.8-8 20.6-12"/><path class="st3" d="M386.5 334.8c0 1.2-.1 2.3-.1 3.5-6.8 4-13.7 7.9-20.5 11.9v-3.4c6.9-4.1 13.8-8 20.6-12z"/><path class="st1" d="M360 343.3v3.4c2 1.1 3.9 2.3 5.9 3.4v-3.4c-1.9-1.1-3.9-2.2-5.9-3.4"/><path class="st3" d="M360 343.3v3.4c2 1.1 3.9 2.3 5.9 3.4v-3.4c-1.9-1.1-3.9-2.2-5.9-3.4z"/><path class="st1" d="M525.5 209.2v135.4c-11.9 6.9-23.9 13.8-35.8 20.7V229.9c11.9-6.9 23.9-13.8 35.8-20.7"/><path class="st3" d="M525.5 209.2v135.4c-11.9 6.9-23.9 13.8-35.8 20.7V229.9c11.9-6.9 23.9-13.8 35.8-20.7z"/><path class="st1" d="M525.5 209.2c-19.5-11.3-39.1-22.6-58.6-33.8-11.9 6.9-23.9 13.8-35.8 20.7 19.5 11.3 39.1 22.6 58.6 33.8 11.9-6.9 23.9-13.8 35.8-20.7"/><path class="st3" d="M525.5 209.2c-19.5-11.3-39.1-22.6-58.6-33.8-11.9 6.9-23.9 13.8-35.8 20.7 19.5 11.3 39.1 22.6 58.6 33.8 11.9-6.9 23.9-13.8 35.8-20.7z"/><path class="st1" d="M489.7 365.3c-19.5-11.3-39.1-22.6-58.6-33.8V196.1l58.6 33.8v135.4z"/><path class="st3" d="M489.7 365.3c-19.5-11.3-39.1-22.6-58.6-33.8V196.1l58.6 33.8v135.4z"/><path class="st1" d="M493 228c-19.5-11.3-39.1-22.6-58.6-33.8-1.1.6-2.2 1.3-3.3 1.9l58.6 33.8c1.1-.6 2.2-1.3 3.3-1.9"/><path class="st3" d="M493 228c-19.5-11.3-39.1-22.6-58.6-33.8-1.1.6-2.2 1.3-3.3 1.9l58.6 33.8c1.1-.6 2.2-1.3 3.3-1.9z"/><path class="st1" d="M493 228v135.4c-1.1.6-2.2 1.3-3.3 1.9V229.9c1.1-.6 2.2-1.3 3.3-1.9"/><path class="st3" d="M493 228v135.4c-1.1.6-2.2 1.3-3.3 1.9V229.9c1.1-.6 2.2-1.3 3.3-1.9z"/><path class="st1" d="M460.1 213h.6v135.4h-.6z"/><path class="st3" d="M460.1 213h.6v135.4h-.6z"/><path class="st1" d="M440.9 228v18.8c3.3 1.9 6.5 3.8 9.8 5.6v-18.8c-3.3-1.8-6.6-3.7-9.8-5.6"/><path class="st3" d="M440.9 228v18.8c3.3 1.9 6.5 3.8 9.8 5.6v-18.8c-3.3-1.8-6.6-3.7-9.8-5.6z"/><path class="st1" d="M442.1 231.2v13.9l7.2 4.2v-13.9c-2.3-1.4-4.8-2.8-7.2-4.2"/><path class="st3" d="M442.1 231.2v13.9l7.2 4.2v-13.9c-2.3-1.4-4.8-2.8-7.2-4.2z"/><path class="st1" d="M453.9 271.8l-2.1-1.2v36.2l2.1 1.2v-36.2z"/><path class="st3" d="M453.9 271.8l-2.1-1.2v36.2l2.1 1.2v-36.2z"/><path class="st1" d="M451.8 270.6l2.1-1.2 2.1 1.2-2.1 1.2-2.1-1.2"/><path class="st3" d="M451.8 270.6l2.1-1.2 2.1 1.2-2.1 1.2-2.1-1.2z"/><path class="st1" d="M456 270.6v36.2l-2.1 1.2v-36.2l2.1-1.2"/><path class="st3" d="M456 270.6v36.2l-2.1 1.2v-36.2l2.1-1.2z"/><path class="st1" d="M464.8 278l-2.1-1.2V313l2.1 1.2V278z"/><path class="st3" d="M464.8 278l-2.1-1.2V313l2.1 1.2V278z"/><path class="st1" d="M462.7 276.8l2.1-1.2 2.1 1.2-2.1 1.2-2.1-1.2"/><path class="st3" d="M462.7 276.8l2.1-1.2 2.1 1.2-2.1 1.2-2.1-1.2z"/><path class="st1" d="M466.9 276.8V313l-2.1 1.2V278l2.1-1.2"/><path class="st3" d="M466.9 276.8V313l-2.1 1.2V278l2.1-1.2z"/></svg>