<svg version="1.1" id="Layer_1" xmlns="http://www.w3.org/2000/svg" xmlns:xlink="http://www.w3.org/1999/xlink" x="0" y="0" viewBox="0 0 868.9 709.9" xml:space="preserve"><style>.st1{fill:#f1f2f2}.st3{fill:none;stroke:#604a9e;stroke-width:3;stroke-linecap:round;stroke-linejoin:round;stroke-miterlimit:10}.st5,.st6{clip-path:url(#SVGID_2_);fill:#f1f2f2}.st6{fill:none;stroke:#604a9e;stroke-width:3;stroke-linecap:round;stroke-linejoin:round;stroke-miterlimit:10}.st7{opacity:.31}.st8,.st9{clip-path:url(#SVGID_4_);fill:#f1f2f2}.st9{fill:none;stroke:#604a9e;stroke-width:3;stroke-linecap:round;stroke-linejoin:round;stroke-miterlimit:10}.st10,.st11{clip-path:url(#SVGID_6_);fill:#f1f2f2}.st11{fill:none;stroke:#604a9e;stroke-width:3;stroke-linecap:round;stroke-linejoin:round;stroke-miterlimit:10}</style><path d="M816.8 252.9c26.3-11.8 38.3-42.6 26.7-69.1-9.6-22.1-32.6-34.3-55.4-31.2 11.2-20.1 8.3-46-8.7-63-17.1-17.1-42.9-20-63-8.7 3.1-22.8-9.1-45.8-31.2-55.4-26.5-11.5-57.3.4-69.1 26.7-.5-28.9-24-52.2-52.9-52.2s-52.4 23.3-52.8 52.1c-11.8-26.3-42.6-38.3-69.1-26.7C419.2 35 407 58 410.1 80.8c-20.1-11.2-45.9-8.3-63 8.7-17.1 17.1-20 42.9-8.7 63-22.8-3.1-45.8 9.1-55.4 31.2-11.5 26.5.4 57.3 26.7 69.1-28.8.4-52.1 23.8-52.1 52.8 0 28.9 23.3 52.4 52.1 52.8-26.3 11.8-38.3 42.6-26.7 69.1 9.6 22.2 32.6 34.3 55.4 31.2-11.2 20.1-8.3 46 8.7 63 17.1 17.1 42.9 20 63 8.7-3.1 22.8 9.1 45.8 31.2 55.4 26.5 11.5 57.3-.4 69.1-26.7.4 28.8 23.8 52.1 52.8 52.1 28.9 0 52.4-23.3 52.8-52.1 11.8 26.3 42.6 38.3 69.1 26.7 22.2-9.6 34.3-32.6 31.2-55.4 20.1 11.2 46 8.3 63-8.7 17.1-17.1 20-42.9 8.7-63 22.8 3.1 45.8-9.1 55.4-31.2 11.5-26.5-.4-57.3-26.7-69.1 28.8-.4 52.1-23.8 52.1-52.8.1-28.8-23.1-52.3-52-52.7" fill="#8dc63f"/><path class="st1" d="M7.3 416.3c0-.5.3-1 .8-1.3 29.7-17.1 131.9-76.2 234.2-135.3l173.1-100c.1 0 .1-.1.2-.1 0 0 .1 0 .1-.1 28.5-16.5 50.4-29.1 61.8-35.7l116.3-67.1c.5-.3 1-.3 1.5 0l178.2 102.9c.1.1.3.2.4.3l.1.1c.2.2.3.6.3.9v183.7c0 .5-.3 1-.8 1.3L595.2 468.8C575.8 480 484 533 392 586.2c-92.3 53.4-184.8 106.8-204.2 118-.2.1-.5.2-.8.2s-.5-.1-.8-.2L8 601.3c-.5-.3-.8-.8-.8-1.3l.1-183.7zm7.9 187.4z"/><path d="M7.3 416.3c0-.5.3-1 .8-1.3 0 0 0 0 0 0 29.7-17.1 131.9-76.2 234.2-135.3l173.1-100c.1 0 .1-.1.2-.1 0 0 .1 0 .1-.1 28.5-16.5 50.4-29.1 61.8-35.7l116.3-67.1c.5-.3 1-.3 1.5 0l178.2 102.9c.1.1.3.2.4.3l.1.1s0 0 0 0 0 0 0 0 0 0 0 0c.2.2.3.6.3.9v183.7c0 .5-.3 1-.8 1.3L595.2 468.8C575.8 480 484 533 392 586.2c-92.3 53.4-184.8 106.8-204.2 118-.2.1-.5.2-.8.2s-.5-.1-.8-.2L8 601.3c-.5-.3-.8-.8-.8-1.3l.1-183.7zm7.9 187.4h0z" fill="none" stroke="#fff" stroke-width="11" stroke-linecap="round" stroke-linejoin="round" stroke-miterlimit="10"/><path class="st1" d="M422.6 184.6v183.7c-2.1-1.2-4.2-2.5-6.4-3.7V180.9c2.1 1.2 4.3 2.4 6.4 3.7"/><path class="st3" d="M422.6 184.6v183.7c-2.1-1.2-4.2-2.5-6.4-3.7V180.9c2.1 1.2 4.3 2.4 6.4 3.7z"/><path class="st1" d="M594.4 85.4v183.7c57.3 33.1 114.6 66.1 171.8 99.2V184.6c-57.2-33.1-114.5-66.2-171.8-99.2"/><path class="st3" d="M594.4 85.4v183.7c57.3 33.1 114.6 66.1 171.8 99.2V184.6c-57.2-33.1-114.5-66.2-171.8-99.2z"/><path class="st1" d="M594.4 467.5c-57.3-33.1-114.6-66.1-171.8-99.2v-7.7c57.3 33.2 114.6 66.3 171.9 99.5-.1 2.5-.1 4.9-.1 7.4"/><path class="st3" d="M594.4 467.5c-57.3-33.1-114.6-66.1-171.8-99.2v-7.7c57.3 33.2 114.6 66.3 171.9 99.5-.1 2.5-.1 4.9-.1 7.4z"/><path class="st1" d="M772.6 180.9v183.7c-2.1 1.2-4.2 2.4-6.4 3.7V184.6c2.2-1.3 4.3-2.5 6.4-3.7"/><path class="st3" d="M772.6 180.9v183.7c-2.1 1.2-4.2 2.4-6.4 3.7V184.6c2.2-1.3 4.3-2.5 6.4-3.7z"/><path class="st1" d="M15.2 420v183.7c-2.1-1.2-4.2-2.4-6.4-3.7V416.3c2.1 1.2 4.2 2.4 6.4 3.7"/><path class="st3" d="M15.2 420v183.7c-2.1-1.2-4.2-2.4-6.4-3.7V416.3c2.1 1.2 4.2 2.4 6.4 3.7z"/><path class="st1" d="M15.2 603.7V420c57.3-33.1 405.7-234.4 463-267.5 38.8-22.4 77.5-44.8 116.3-67.1v183.7c-38.8 22.4-77.5 44.8-116.3 67.1-57.3 33.1-405.8 234.4-463 267.5"/><path class="st3" d="M15.2 603.7V420c57.3-33.1 405.7-234.4 463-267.5 38.8-22.4 77.5-44.8 116.3-67.1v183.7c-38.8 22.4-77.5 44.8-116.3 67.1-57.3 33.1-405.8 234.4-463 267.5z"/><path class="st1" d="M8.8 416.3C68.2 382 418.7 179.4 478.1 145.1c38.8-22.4 77.5-44.8 116.3-67.1l178.2 102.9c-2.1 1.2-4.2 2.5-6.4 3.7-57.3-33.1-114.6-66.1-171.8-99.2-57.3 33.1-114.6 66.1-171.8 99.2-38.8 22.3-368.7 213-407.4 235.4-2.2-1.3-4.3-2.5-6.4-3.7"/><path class="st3" d="M8.8 416.3C68.2 382 418.7 179.4 478.1 145.1c38.8-22.4 77.5-44.8 116.3-67.1l178.2 102.9c-2.1 1.2-4.2 2.5-6.4 3.7-57.3-33.1-114.6-66.1-171.8-99.2-57.3 33.1-114.6 66.1-171.8 99.2-38.8 22.3-368.7 213-407.4 235.4-2.2-1.3-4.3-2.5-6.4-3.7z"/><path class="st1" d="M15.2 596.3c2.1-1.2 4.2-2.5 6.4-3.7 55.2 31.8 110.3 63.7 165.5 95.5 36.6-21.2 364.4-210.6 401.1-231.7-55.2-31.8-110.3-63.7-165.5-95.5 2.1-1.2 4.2-2.4 6.4-3.7 55.2 31.8 110.3 63.7 165.5 95.5 16.4-9.5 32.8-18.9 49.2-28.4 38.8-22.4 77.5-44.8 116.3-67.1 2.1 1.2 4.2 2.5 6.4 3.7-57.5 33.1-114.8 66.2-172.1 99.2-38.8 22.4-368.7 213-407.4 235.4-57.3-33-114.5-66.1-171.8-99.2"/><path class="st3" d="M15.2 596.3c2.1-1.2 4.2-2.5 6.4-3.7 55.2 31.8 110.3 63.7 165.5 95.5 36.6-21.2 364.4-210.6 401.1-231.7-55.2-31.8-110.3-63.7-165.5-95.5 2.1-1.2 4.2-2.4 6.4-3.7 55.2 31.8 110.3 63.7 165.5 95.5 16.4-9.5 32.8-18.9 49.2-28.4 38.8-22.4 77.5-44.8 116.3-67.1 2.1 1.2 4.2 2.5 6.4 3.7-57.5 33.1-114.8 66.2-172.1 99.2-38.8 22.4-368.7 213-407.4 235.4-57.3-33-114.5-66.1-171.8-99.2z"/><path class="st1" d="M21.5 592.3c38.8-22.4 368.7-213 407.4-235.4 55.2-31.8 110.3-63.7 165.5-95.5 55.2 31.8 110.3 63.7 165.5 95.5-55.2 32-110.3 63.9-165.5 95.9-.1 0-.2-.1-.2-.1-38.7 22.4-368.5 213.1-407.2 235.5-55.2-31.9-110.3-63.9-165.5-95.9"/><path class="st3" d="M21.5 592.3c38.8-22.4 368.7-213 407.4-235.4 55.2-31.8 110.3-63.7 165.5-95.5 55.2 31.8 110.3 63.7 165.5 95.5-55.2 32-110.3 63.9-165.5 95.9-.1 0-.2-.1-.2-.1-38.7 22.4-368.5 213.1-407.2 235.5-55.2-31.9-110.3-63.9-165.5-95.9z"/><path class="st1" d="M187 702.9c-57.3-33.1-114.6-66.1-171.8-99.2V596c57.3 33.2 114.6 66.3 171.9 99.5-.1 2.5-.1 4.9-.1 7.4"/><path class="st3" d="M187 702.9c-57.3-33.1-114.6-66.1-171.8-99.2V596c57.3 33.2 114.6 66.3 171.9 99.5-.1 2.5-.1 4.9-.1 7.4z"/><path class="st1" d="M187 702.9v-7.4c57.3-33.1 405.8-234.4 463.1-267.5 38.8-22.4 77.5-44.8 116.3-67.1 0 2.5-.1 5-.1 7.4-57.3 33.1-114.6 66.1-171.8 99.2-38.8 22.4-368.8 213-407.5 235.4"/><path class="st3" d="M187 702.9v-7.4c57.3-33.1 405.8-234.4 463.1-267.5 38.8-22.4 77.5-44.8 116.3-67.1 0 2.5-.1 5-.1 7.4-57.3 33.1-114.6 66.1-171.8 99.2-38.8 22.4-368.8 213-407.5 235.4z"/><path class="st1" d="M760.1 303.5c-.1 18-.1 35.9-.2 53.9-3.5 2-6.9 4-10.4 6v-12c-38.1 21.8-76.2 43.7-114.2 65.5v12c-3.5 2-6.9 4-10.4 6 .1-18 .1-35.9.2-53.9 44.9-25.9 90-51.7 135-77.5"/><path class="st3" d="M760.1 303.5c-.1 18-.1 35.9-.2 53.9-3.5 2-6.9 4-10.4 6v-12c-38.1 21.8-76.2 43.7-114.2 65.5v12c-3.5 2-6.9 4-10.4 6 .1-18 .1-35.9.2-53.9 44.9-25.9 90-51.7 135-77.5z"/><path class="st1" d="M749.5 363.3c-3.5-2-6.9-4-10.4-6l10.4-6v12"/><path class="st3" d="M749.5 363.3c-3.5-2-6.9-4-10.4-6l10.4-6v12z"/><path class="st1" d="M625 380.9c-3.5-2-6.9-4-10.4-6v24c-12.1-7-24.2-14.1-36.3-21.1 0 10-.1 20-.1 30 3.5 2 6.9 4 10.4 6v-11.9l25.9 15v12c3.5 2 6.9 4 10.4 6 0-18.1.1-36 .1-54"/><path class="st3" d="M625 380.9c-3.5-2-6.9-4-10.4-6v24c-12.1-7-24.2-14.1-36.3-21.1 0 10-.1 20-.1 30 3.5 2 6.9 4 10.4 6v-11.9l25.9 15v12c3.5 2 6.9 4 10.4 6 0-18.1.1-36 .1-54z"/><path class="st1" d="M760.1 303.5c-3.5-2-6.9-4-10.4-6l-135 77.4c3.5 2 6.9 4 10.4 6 44.9-25.8 90-51.6 135-77.4"/><path class="st3" d="M760.1 303.5c-3.5-2-6.9-4-10.4-6l-135 77.4c3.5 2 6.9 4 10.4 6 44.9-25.8 90-51.6 135-77.4z"/><path class="st1" d="M578.4 377.8c3.5-2 6.9-4 10.4-6l25.9 15v12l-36.3-21"/><path class="st3" d="M578.4 377.8c3.5-2 6.9-4 10.4-6l25.9 15v12l-36.3-21z"/><path class="st1" d="M594 374.8c36.4-20.8 72.7-41.7 109.1-62.5 3.5 2 6.9 4 10.4 6l-98.7 56.6v12c-7-4-13.9-8.1-20.8-12.1"/><path class="st3" d="M594 374.8c36.4-20.8 72.7-41.7 109.1-62.5 3.5 2 6.9 4 10.4 6l-98.7 56.6v12c-7-4-13.9-8.1-20.8-12.1z"/><path class="st1" d="M708.2 303.3c5.2 3 10.4 6 15.5 9-3.5 2-6.9 4-10.4 6-5.2-3-10.4-6-15.5-9 3.5-2 7-4 10.4-6"/><path class="st3" d="M708.2 303.3c5.2 3 10.4 6 15.5 9-3.5 2-6.9 4-10.4 6-5.2-3-10.4-6-15.5-9 3.5-2 7-4 10.4-6z"/><path class="st1" d="M697.8 309.3v6c3.5 2 6.9 4 10.3 6 1.7-1 3.5-2 5.2-3-5.1-3-10.3-6-15.5-9"/><path class="st3" d="M697.8 309.3v6c3.5 2 6.9 4 10.3 6 1.7-1 3.5-2 5.2-3-5.1-3-10.3-6-15.5-9z"/><path class="st1" d="M588.7 413.7c3.5-2 6.9-4 10.4-5.9-3.5-2-6.9-4-10.4-6v11.9"/><path class="st3" d="M588.7 413.7c3.5-2 6.9-4 10.4-5.9-3.5-2-6.9-4-10.4-6v11.9z"/><path class="st1" d="M439.1 414.6v54.8c1.3.8 2.6 1.5 4 2.3v-54.8c-1.4-.8-2.7-1.6-4-2.3"/><path class="st3" d="M439.1 414.6v54.8c1.3.8 2.6 1.5 4 2.3v-54.8c-1.4-.8-2.7-1.6-4-2.3z"/><path class="st1" d="M443 416.8c1.3-.8 2.6-1.5 4-2.3v54.8c-1.3.8-2.6 1.5-4 2.3v-54.8z"/><path class="st3" d="M443 416.8c1.3-.8 2.6-1.5 4-2.3v54.8c-1.3.8-2.6 1.5-4 2.3v-54.8z"/><path class="st1" d="M439.1 414.6c1.3-.8 2.6-1.5 4-2.3 1.3.8 2.6 1.5 4 2.3-1.3.8-2.6 1.5-4 2.3-1.4-.8-2.7-1.6-4-2.3"/><path class="st3" d="M439.1 414.6c1.3-.8 2.6-1.5 4-2.3 1.3.8 2.6 1.5 4 2.3-1.3.8-2.6 1.5-4 2.3-1.4-.8-2.7-1.6-4-2.3z"/><path class="st1" d="M478.3 437.2V492c1.3.8 2.6 1.5 4 2.3v-54.8c-1.4-.8-2.7-1.5-4-2.3"/><path class="st3" d="M478.3 437.2V492c1.3.8 2.6 1.5 4 2.3v-54.8c-1.4-.8-2.7-1.5-4-2.3z"/><path class="st1" d="M482.2 439.5c1.3-.8 2.6-1.5 4-2.3V492c-1.3.8-2.6 1.5-4 2.3v-54.8z"/><path class="st3" d="M482.2 439.5c1.3-.8 2.6-1.5 4-2.3V492c-1.3.8-2.6 1.5-4 2.3v-54.8z"/><path class="st1" d="M478.3 437.2c1.3-.8 2.6-1.5 4-2.3 1.3.8 2.6 1.5 4 2.3-1.3.8-2.6 1.5-4 2.3-1.4-.8-2.7-1.5-4-2.3"/><path class="st3" d="M478.3 437.2c1.3-.8 2.6-1.5 4-2.3 1.3.8 2.6 1.5 4 2.3-1.3.8-2.6 1.5-4 2.3-1.4-.8-2.7-1.5-4-2.3z"/><path class="st1" d="M508.2 374.7v54.8c1.3.8 2.6 1.5 4 2.3V377c-1.4-.8-2.7-1.5-4-2.3"/><path class="st3" d="M508.2 374.7v54.8c1.3.8 2.6 1.5 4 2.3V377c-1.4-.8-2.7-1.5-4-2.3z"/><path class="st1" d="M512.2 377c1.3-.8 2.6-1.5 4-2.3v54.8c-1.3.8-2.6 1.5-4 2.3V377z"/><path class="st3" d="M512.2 377c1.3-.8 2.6-1.5 4-2.3v54.8c-1.3.8-2.6 1.5-4 2.3V377z"/><path class="st1" d="M508.2 374.7c1.3-.8 2.6-1.5 4-2.3 1.3.8 2.6 1.5 4 2.3-1.3.8-2.6 1.5-4 2.3-1.4-.8-2.7-1.5-4-2.3"/><path class="st3" d="M508.2 374.7c1.3-.8 2.6-1.5 4-2.3 1.3.8 2.6 1.5 4 2.3-1.3.8-2.6 1.5-4 2.3-1.4-.8-2.7-1.5-4-2.3z"/><path class="st1" d="M547.4 397.4v54.8c1.3.8 2.6 1.5 4 2.3v-54.8c-1.3-.8-2.7-1.6-4-2.3"/><path class="st3" d="M547.4 397.4v54.8c1.3.8 2.6 1.5 4 2.3v-54.8c-1.3-.8-2.7-1.6-4-2.3z"/><path class="st1" d="M551.4 399.7l4-2.3v54.8c-1.3.8-2.6 1.5-4 2.3v-54.8z"/><path class="st3" d="M551.4 399.7l4-2.3v54.8c-1.3.8-2.6 1.5-4 2.3v-54.8z"/><path class="st1" d="M547.4 397.4c1.3-.8 2.6-1.5 4-2.3 1.3.8 2.6 1.5 4 2.3l-4 2.3c-1.3-.8-2.7-1.6-4-2.3"/><path class="st3" d="M547.4 397.4c1.3-.8 2.6-1.5 4-2.3 1.3.8 2.6 1.5 4 2.3l-4 2.3c-1.3-.8-2.7-1.6-4-2.3z"/><path class="st1" d="M424.6 414.8v3.4c18.6 10.8 37.3 21.5 55.9 32.3v-3.4c-18.6-10.8-37.2-21.6-55.9-32.3"/><path class="st3" d="M424.6 414.8v3.4c18.6 10.8 37.3 21.5 55.9 32.3v-3.4c-18.6-10.8-37.2-21.6-55.9-32.3z"/><path class="st1" d="M424.6 414.8c29.4-17 58.9-34 88.3-51 18.6 10.8 37.3 21.5 55.9 32.3-29.4 17-58.9 34-88.3 51-18.6-10.8-37.2-21.6-55.9-32.3"/><path class="st3" d="M424.6 414.8c29.4-17 58.9-34 88.3-51 18.6 10.8 37.3 21.5 55.9 32.3-29.4 17-58.9 34-88.3 51-18.6-10.8-37.2-21.6-55.9-32.3z"/><path class="st1" d="M480.6 450.5c29.4-17 58.9-34 88.3-51v-3.4c-29.4 17-58.9 34-88.3 51v3.4"/><path class="st3" d="M480.6 450.5c29.4-17 58.9-34 88.3-51v-3.4c-29.4 17-58.9 34-88.3 51v3.4z"/><path class="st1" d="M527.1 441.9c0 9.3 0 18.7.1 28-.6-.4-1.1-.7-1.7-1.1-.1-9-.1-18-.2-26.9h1.8"/><path class="st3" d="M527.1 441.9c0 9.3 0 18.7.1 28-.6-.4-1.1-.7-1.7-1.1-.1-9-.1-18-.2-26.9h1.8z"/><path class="st1" d="M527.1 469.9c.6-.3 1.2-.7 1.8-1 0-9 0-18 .1-27h-1.9v28"/><path class="st3" d="M527.1 469.9c.6-.3 1.2-.7 1.8-1 0-9 0-18 .1-27h-1.9v28z"/><path class="st1" d="M544.2 450.5c0 9.3 0 18.7.1 28-.6-.4-1.1-.7-1.7-1.1-.1-9-.1-18-.2-26.9h1.8"/><path class="st3" d="M544.2 450.5c0 9.3 0 18.7.1 28-.6-.4-1.1-.7-1.7-1.1-.1-9-.1-18-.2-26.9h1.8z"/><path class="st1" d="M544.3 478.5c.6-.3 1.2-.7 1.8-1 0-9 0-18 .1-27h-1.9c-.1 9.3 0 18.6 0 28"/><path class="st3" d="M544.3 478.5c.6-.3 1.2-.7 1.8-1 0-9 0-18 .1-27h-1.9c-.1 9.3 0 18.6 0 28z"/><path class="st1" d="M561.3 441.9c0 9.3 0 18.7.1 28-.6-.4-1.1-.7-1.7-1.1-.1-9-.1-18-.2-26.9h1.8"/><path class="st3" d="M561.3 441.9c0 9.3 0 18.7.1 28-.6-.4-1.1-.7-1.7-1.1-.1-9-.1-18-.2-26.9h1.8z"/><path class="st1" d="M561.4 469.9c.6-.3 1.2-.7 1.8-1 0-9 0-18 .1-27h-1.9v28"/><path class="st3" d="M561.4 469.9c.6-.3 1.2-.7 1.8-1 0-9 0-18 .1-27h-1.9v28z"/><path class="st1" d="M565.6 443.4c-7.1-4.1-14.3-8.2-21.4-12.3-7.1 4.1-14.3 8.2-21.4 12.3 7.1 4.1 14.3 8.2 21.4 12.3 7.2-4 14.3-8.2 21.4-12.3"/><path class="st3" d="M565.6 443.4c-7.1-4.1-14.3-8.2-21.4-12.3-7.1 4.1-14.3 8.2-21.4 12.3 7.1 4.1 14.3 8.2 21.4 12.3 7.2-4 14.3-8.2 21.4-12.3z"/><path class="st1" d="M522.9 443.4v2.5c7.1 4.1 14.3 8.2 21.4 12.3v-2.5c-7.2-4-14.3-8.1-21.4-12.3"/><path class="st3" d="M522.9 443.4v2.5c7.1 4.1 14.3 8.2 21.4 12.3v-2.5c-7.2-4-14.3-8.1-21.4-12.3z"/><path class="st1" d="M544.3 458.3c7.1-4.1 14.3-8.3 21.4-12.4v-2.5c-7.1 4.1-14.3 8.3-21.4 12.4v2.5z"/><path class="st3" d="M544.3 458.3c7.1-4.1 14.3-8.3 21.4-12.4v-2.5c-7.1 4.1-14.3 8.3-21.4 12.4v2.5z"/><path class="st1" d="M544.3 455.8l4.3-27.2c.7-.4 1.5-.9 2.2-1.3-1.4 9.1-2.9 18.1-4.3 27.2-.8.4-1.5.9-2.2 1.3"/><path class="st3" d="M544.3 455.8l4.3-27.2c.7-.4 1.5-.9 2.2-1.3-1.4 9.1-2.9 18.1-4.3 27.2-.8.4-1.5.9-2.2 1.3z"/><path class="st1" d="M544.3 455.8c-.3-.2-.6-.4-1-.6 1.4-9 2.8-18.1 4.3-27.1.3.2.6.4 1 .6l-4.3 27.1z"/><path class="st3" d="M544.3 455.8c-.3-.2-.6-.4-1-.6 1.4-9 2.8-18.1 4.3-27.1.3.2.6.4 1 .6l-4.3 27.1z"/><path class="st1" d="M547.6 428.1c.3.2.6.4 1 .6.7-.4 1.5-.9 2.2-1.3l-1-.5c-.8.3-1.5.7-2.2 1.2"/><path class="st3" d="M547.6 428.1c.3.2.6.4 1 .6.7-.4 1.5-.9 2.2-1.3l-1-.5c-.8.3-1.5.7-2.2 1.2z"/><path class="st1" d="M563.5 444.7l4.3-27.2c.7-.4 1.5-.9 2.2-1.3-1.4 9.1-2.9 18.1-4.3 27.2-.8.5-1.5.9-2.2 1.3"/><path class="st3" d="M563.5 444.7l4.3-27.2c.7-.4 1.5-.9 2.2-1.3-1.4 9.1-2.9 18.1-4.3 27.2-.8.5-1.5.9-2.2 1.3z"/><path class="st1" d="M563.5 444.7c-.3-.2-.6-.4-1-.6 1.4-9 2.8-18.1 4.3-27.1.3.2.6.4 1 .6l-4.3 27.1z"/><path class="st3" d="M563.5 444.7c-.3-.2-.6-.4-1-.6 1.4-9 2.8-18.1 4.3-27.1.3.2.6.4 1 .6l-4.3 27.1z"/><path class="st1" d="M566.8 417c.3.2.6.4 1 .6.7-.4 1.5-.9 2.2-1.3l-1-.5c-.8.4-1.5.8-2.2 1.2"/><path class="st3" d="M566.8 417c.3.2.6.4 1 .6.7-.4 1.5-.9 2.2-1.3l-1-.5c-.8.4-1.5.8-2.2 1.2z"/><path class="st1" d="M550.8 427.3l17-9.8-.9 5.4c-5.7 3.3-11.3 6.5-17 9.8.3-1.7.6-3.5.9-5.4"/><path class="st3" d="M550.8 427.3l17-9.8-.9 5.4c-5.7 3.3-11.3 6.5-17 9.8.3-1.7.6-3.5.9-5.4z"/><path class="st1" d="M549.6 434.8c-.1.6-.2 1.3-.3 1.9 5.7-3.2 11.3-6.5 17-9.7.1-.6.2-1.3.3-1.9-5.7 3.3-11.4 6.5-17 9.7"/><path class="st3" d="M549.6 434.8c-.1.6-.2 1.3-.3 1.9 5.7-3.2 11.3-6.5 17-9.7.1-.6.2-1.3.3-1.9-5.7 3.3-11.4 6.5-17 9.7z"/><path class="st1" d="M549.7 426.8c5.7-3.3 11.4-6.5 17-9.8.3.2.6.4 1 .6l-17.8 10.3-.2-1.1z"/><path class="st3" d="M549.7 426.8c5.7-3.3 11.4-6.5 17-9.8.3.2.6.4 1 .6l-17.8 10.3-.2-1.1z"/><path class="st1" d="M566.5 425.2l-1-.5c-5.3 3-10.5 6.1-15.8 9.1l-.2 1.2c5.7-3.3 11.4-6.6 17-9.8"/><path class="st3" d="M566.5 425.2l-1-.5c-5.3 3-10.5 6.1-15.8 9.1l-.2 1.2c5.7-3.3 11.4-6.6 17-9.8z"/><path class="st1" d="M498.1 460.5c0 9.3 0 18.7.1 28-.6-.4-1.1-.7-1.7-1.1-.1-9-.1-18-.2-26.9h1.8"/><path class="st3" d="M498.1 460.5c0 9.3 0 18.7.1 28-.6-.4-1.1-.7-1.7-1.1-.1-9-.1-18-.2-26.9h1.8z"/><path class="st1" d="M498.2 488.5c.6-.3 1.2-.7 1.8-1 0-9 0-18 .1-27h-1.9c-.1 9.3-.1 18.7 0 28"/><path class="st3" d="M498.2 488.5c.6-.3 1.2-.7 1.8-1 0-9 0-18 .1-27h-1.9c-.1 9.3-.1 18.7 0 28z"/><path class="st1" d="M515.2 469.1c0 9.3 0 18.7.1 28-.6-.4-1.1-.7-1.7-1.1-.1-9-.1-18-.2-26.9h1.8"/><path class="st3" d="M515.2 469.1c0 9.3 0 18.7.1 28-.6-.4-1.1-.7-1.7-1.1-.1-9-.1-18-.2-26.9h1.8z"/><path class="st1" d="M515.3 497.1c.6-.3 1.2-.7 1.8-1 0-9 0-18 .1-27h-1.9v28"/><path class="st3" d="M515.3 497.1c.6-.3 1.2-.7 1.8-1 0-9 0-18 .1-27h-1.9v28z"/><path class="st1" d="M532.3 460.5c0 9.3 0 18.7.1 28-.6-.4-1.1-.7-1.7-1.1-.1-9-.1-18-.2-26.9h1.8"/><path class="st3" d="M532.3 460.5c0 9.3 0 18.7.1 28-.6-.4-1.1-.7-1.7-1.1-.1-9-.1-18-.2-26.9h1.8z"/><path class="st1" d="M532.4 488.5c.6-.3 1.2-.7 1.8-1 0-9 0-18 .1-27h-1.9v28"/><path class="st3" d="M532.4 488.5c.6-.3 1.2-.7 1.8-1 0-9 0-18 .1-27h-1.9v28z"/><path class="st1" d="M536.7 462c-7.1-4.1-14.3-8.2-21.4-12.3-7.1 4.1-14.3 8.2-21.4 12.3 7.1 4.1 14.3 8.2 21.4 12.3 7.1-4 14.2-8.1 21.4-12.3"/><path class="st3" d="M536.7 462c-7.1-4.1-14.3-8.2-21.4-12.3-7.1 4.1-14.3 8.2-21.4 12.3 7.1 4.1 14.3 8.2 21.4 12.3 7.1-4 14.2-8.1 21.4-12.3z"/><path class="st1" d="M493.9 462.1v2.5c7.1 4.1 14.3 8.2 21.4 12.3v-2.5c-7.2-4.1-14.3-8.2-21.4-12.3"/><path class="st3" d="M493.9 462.1v2.5c7.1 4.1 14.3 8.2 21.4 12.3v-2.5c-7.2-4.1-14.3-8.2-21.4-12.3z"/><path class="st1" d="M515.3 476.9c7.1-4.1 14.3-8.3 21.4-12.4V462c-7.1 4.1-14.3 8.3-21.4 12.4v2.5z"/><path class="st3" d="M515.3 476.9c7.1-4.1 14.3-8.3 21.4-12.4V462c-7.1 4.1-14.3 8.3-21.4 12.4v2.5z"/><path class="st1" d="M515.3 474.4l4.3-27.2c.7-.4 1.5-.9 2.2-1.3-1.4 9.1-2.9 18.1-4.3 27.2-.8.5-1.5.9-2.2 1.3"/><path class="st3" d="M515.3 474.4l4.3-27.2c.7-.4 1.5-.9 2.2-1.3-1.4 9.1-2.9 18.1-4.3 27.2-.8.5-1.5.9-2.2 1.3z"/><path class="st1" d="M515.3 474.4c-.3-.2-.6-.4-1-.6 1.4-9 2.8-18.1 4.3-27.1.3.2.6.4 1 .6l-4.3 27.1z"/><path class="st3" d="M515.3 474.4c-.3-.2-.6-.4-1-.6 1.4-9 2.8-18.1 4.3-27.1.3.2.6.4 1 .6l-4.3 27.1z"/><path class="st1" d="M518.6 446.7c.3.2.6.4 1 .6.7-.4 1.5-.9 2.2-1.3-.4-.2-.7-.4-1-.5-.8.4-1.5.8-2.2 1.2"/><path class="st3" d="M518.6 446.7c.3.2.6.4 1 .6.7-.4 1.5-.9 2.2-1.3-.4-.2-.7-.4-1-.5-.8.4-1.5.8-2.2 1.2z"/><path class="st1" d="M534.5 463.4c1.4-9.1 2.9-18.1 4.3-27.2.7-.4 1.5-.9 2.2-1.3-1.4 9.1-2.9 18.1-4.3 27.2-.8.4-1.5.8-2.2 1.3"/><path class="st3" d="M534.5 463.4c1.4-9.1 2.9-18.1 4.3-27.2.7-.4 1.5-.9 2.2-1.3-1.4 9.1-2.9 18.1-4.3 27.2-.8.4-1.5.8-2.2 1.3z"/><path class="st1" d="M534.5 463.4c-.3-.2-.6-.4-1-.6 1.4-9 2.8-18.1 4.3-27.1.3.2.6.4 1 .6-1.5 9-2.9 18-4.3 27.1"/><path class="st3" d="M534.5 463.4c-.3-.2-.6-.4-1-.6 1.4-9 2.8-18.1 4.3-27.1.3.2.6.4 1 .6-1.5 9-2.9 18-4.3 27.1z"/><path class="st1" d="M537.8 435.7c.3.2.6.4 1 .6.7-.4 1.5-.9 2.2-1.3-.4-.2-.7-.4-1-.5-.8.3-1.5.7-2.2 1.2"/><path class="st3" d="M537.8 435.7c.3.2.6.4 1 .6.7-.4 1.5-.9 2.2-1.3-.4-.2-.7-.4-1-.5-.8.3-1.5.7-2.2 1.2z"/><path class="st1" d="M521.8 446c5.7-3.3 11.3-6.5 17-9.8l-.9 5.4c-5.7 3.3-11.3 6.5-17 9.8l.9-5.4"/><path class="st3" d="M521.8 446c5.7-3.3 11.3-6.5 17-9.8l-.9 5.4c-5.7 3.3-11.3 6.5-17 9.8l.9-5.4z"/><path class="st1" d="M520.6 453.5c-.1.6-.2 1.3-.3 1.9 5.7-3.2 11.3-6.5 17-9.7.1-.6.2-1.3.3-1.9-5.7 3.2-11.4 6.4-17 9.7"/><path class="st3" d="M520.6 453.5c-.1.6-.2 1.3-.3 1.9 5.7-3.2 11.3-6.5 17-9.7.1-.6.2-1.3.3-1.9-5.7 3.2-11.4 6.4-17 9.7z"/><path class="st1" d="M520.7 445.4c5.7-3.3 11.4-6.5 17-9.8.3.2.6.4 1 .6l-17.8 10.3c0-.4-.1-.7-.2-1.1"/><path class="st3" d="M520.7 445.4c5.7-3.3 11.4-6.5 17-9.8.3.2.6.4 1 .6l-17.8 10.3c0-.4-.1-.7-.2-1.1z"/><path class="st1" d="M537.6 443.8l-1-.5c-5.3 3-10.5 6.1-15.8 9.1-.1.4-.1.8-.2 1.2l17-9.8z"/><path class="st3" d="M537.6 443.8l-1-.5c-5.3 3-10.5 6.1-15.8 9.1-.1.4-.1.8-.2 1.2l17-9.8z"/><path class="st1" d="M512.7 299c-7.5-4.4-15.1-8.7-22.6-13.1v35.9c7.5 4.4 15.1 8.7 22.6 13.1V299"/><path class="st3" d="M512.7 299c-7.5-4.4-15.1-8.7-22.6-13.1v35.9c7.5 4.4 15.1 8.7 22.6 13.1V299z"/><path class="st1" d="M507 302.3c7.5-4.4 20.8-12 28.3-16.4v35.9c-5.9 3.4-15.2 8.8-22.6 13.1-7.5 4.4-15.1 8.7-22.6 13.1v-35.9c5.6-3.3 11.2-6.5 16.9-9.8"/><path class="st3" d="M507 302.3c7.5-4.4 20.8-12 28.3-16.4v35.9c-5.9 3.4-15.2 8.8-22.6 13.1-7.5 4.4-15.1 8.7-22.6 13.1v-35.9c5.6-3.3 11.2-6.5 16.9-9.8z"/><path class="st1" d="M490.1 312.1c-7.5-4.4-15.1-8.7-22.6-13.1v35.9c7.5 4.4 15.1 8.7 22.6 13.1v-35.9"/><path class="st3" d="M490.1 312.1c-7.5-4.4-15.1-8.7-22.6-13.1v35.9c7.5 4.4 15.1 8.7 22.6 13.1v-35.9z"/><path class="st1" d="M492.9 343.1v-29.4l39.6-22.9v29.4l-39.6 22.9z"/><path class="st3" d="M492.9 343.1v-29.4l39.6-22.9v29.4l-39.6 22.9z"/><path class="st1" d="M490.1 285.9c7.5-4.4 15-8.7 22.6-13.1 7.5 4.4 15.1 8.7 22.6 13.1-5.3 3.1-10.6 6.1-16 9.2h.1c-7.5 4.4-21.8 12.5-29.3 16.9-7.5-4.4-15.1-8.7-22.6-13.1 5.6-3.2 15.1-8.6 22.6-13"/><path class="st3" d="M490.1 285.9c7.5-4.4 15-8.7 22.6-13.1 7.5 4.4 15.1 8.7 22.6 13.1-5.3 3.1-10.6 6.1-16 9.2h.1c-7.5 4.4-21.8 12.5-29.3 16.9-7.5-4.4-15.1-8.7-22.6-13.1 5.6-3.2 15.1-8.6 22.6-13z"/><path class="st1" d="M493.5 321.8c13.2-7.5 25.8-14.6 39-22.1"/><path class="st3" d="M493.5 321.8c13.2-7.5 25.8-14.6 39-22.1"/><path class="st1" d="M493.5 332c13.2-7.5 25.8-14.6 39-22.1"/><path class="st3" d="M493.5 332c13.2-7.5 25.8-14.6 39-22.1"/><path class="st1" d="M504.7 310.8c5.6-3.3 11.2-6.5 16.8-9.8v1.1c-5.6 3.2-11.2 6.5-16.8 9.7v-1"/><path class="st3" d="M504.7 310.8c5.6-3.3 11.2-6.5 16.8-9.8v1.1c-5.6 3.2-11.2 6.5-16.8 9.7v-1z"/><path class="st1" d="M521.5 301.1c-.1-.1-.3-.2-.4-.2-5.6 3.2-11.2 6.5-16.9 9.7.2.1.3.2.5.3 5.6-3.3 11.2-6.6 16.8-9.8"/><path class="st3" d="M521.5 301.1c-.1-.1-.3-.2-.4-.2-5.6 3.2-11.2 6.5-16.9 9.7.2.1.3.2.5.3 5.6-3.3 11.2-6.6 16.8-9.8z"/><path class="st1" d="M504.3 310.6v1c.1.1.3.2.4.2v-1c-.2-.1-.3-.1-.4-.2"/><path class="st3" d="M504.3 310.6v1c.1.1.3.2.4.2v-1c-.2-.1-.3-.1-.4-.2z"/><path class="st1" d="M504.8 320.9c5.6-3.3 11.2-6.5 16.8-9.8v1.1l-16.8 9.7v-1"/><path class="st3" d="M504.8 320.9c5.6-3.3 11.2-6.5 16.8-9.8v1.1l-16.8 9.7v-1z"/><path class="st1" d="M521.6 311.1c-.1-.1-.3-.2-.4-.2-5.6 3.2-11.2 6.5-16.9 9.7.2.1.3.2.5.3 5.6-3.3 11.2-6.5 16.8-9.8"/><path class="st3" d="M521.6 311.1c-.1-.1-.3-.2-.4-.2-5.6 3.2-11.2 6.5-16.9 9.7.2.1.3.2.5.3 5.6-3.3 11.2-6.5 16.8-9.8z"/><path class="st1" d="M504.4 320.6v1c.1.1.3.2.4.2v-1c-.2 0-.3-.1-.4-.2"/><path class="st3" d="M504.4 320.6v1c.1.1.3.2.4.2v-1c-.2 0-.3-.1-.4-.2z"/><path class="st1" d="M504.8 330.6c5.6-3.3 11.2-6.5 16.8-9.8v1.1l-16.8 9.7v-1"/><path class="st3" d="M504.8 330.6c5.6-3.3 11.2-6.5 16.8-9.8v1.1l-16.8 9.7v-1z"/><path class="st1" d="M521.6 320.9c-.1-.1-.3-.2-.4-.2-5.6 3.2-11.2 6.5-16.9 9.7.2.1.3.2.5.3 5.6-3.3 11.2-6.6 16.8-9.8"/><path class="st3" d="M521.6 320.9c-.1-.1-.3-.2-.4-.2-5.6 3.2-11.2 6.5-16.9 9.7.2.1.3.2.5.3 5.6-3.3 11.2-6.6 16.8-9.8z"/><path class="st1" d="M504.4 330.4v1c.1.1.3.2.4.2v-1c-.2-.1-.3-.1-.4-.2"/><path class="st3" d="M504.4 330.4v1c.1.1.3.2.4.2v-1c-.2-.1-.3-.1-.4-.2z"/><path class="st1" d="M534.5 199.4v61c-24.5 14.1-48.9 28.2-73.4 42.4v-61c24.5-14.1 49-28.3 73.4-42.4"/><path class="st3" d="M534.5 199.4v61c-24.5 14.1-48.9 28.2-73.4 42.4v-61c24.5-14.1 49-28.3 73.4-42.4z"/><path class="st1" d="M534.5 199.4c-1-.6-2-1.1-2.9-1.7-24.5 14.1-48.9 28.2-73.4 42.4 1 .6 2 1.1 2.9 1.7 24.5-14.1 49-28.3 73.4-42.4"/><path class="st3" d="M534.5 199.4c-1-.6-2-1.1-2.9-1.7-24.5 14.1-48.9 28.2-73.4 42.4 1 .6 2 1.1 2.9 1.7 24.5-14.1 49-28.3 73.4-42.4z"/><path class="st1" d="M458.2 301.1v-61c1 .6 2 1.1 2.9 1.7v61c-.9-.6-1.9-1.2-2.9-1.7"/><path class="st3" d="M458.2 301.1v-61c1 .6 2 1.1 2.9 1.7v61c-.9-.6-1.9-1.2-2.9-1.7z"/><path class="st1" d="M531.6 204.5v50.8l-67.5 39v-50.8l67.5-39"/><path class="st3" d="M531.6 204.5v50.8l-67.5 39v-50.8l67.5-39z"/><path class="st1" d="M531.6 255.3c-.3-.2-.6-.3-.9-.5V205c.3-.2.6-.3.9-.5v50.8z"/><path class="st3" d="M531.6 255.3c-.3-.2-.6-.3-.9-.5V205c.3-.2.6-.3.9-.5v50.8z"/><path class="st1" d="M530.7 254.8c-22.2 12.8-44.4 25.7-66.6 38.5v.9l67.5-39c-.3 0-.6-.2-.9-.4"/><path class="st3" d="M530.7 254.8c-22.2 12.8-44.4 25.7-66.6 38.5v.9l67.5-39c-.3 0-.6-.2-.9-.4z"/><path class="st1" d="M508.1 275.7v10.2c-4.9 2.8-9.8 5.6-14.7 8.5v-10.2c4.9-2.9 9.8-5.7 14.7-8.5"/><path class="st3" d="M508.1 275.7v10.2c-4.9 2.8-9.8 5.6-14.7 8.5v-10.2c4.9-2.9 9.8-5.7 14.7-8.5z"/><path class="st1" d="M493.4 294.3c-1-.6-2-1.1-2.9-1.7v-6.8c1-.6 2-1.1 2.9-1.7v10.2z"/><path class="st3" d="M493.4 294.3c-1-.6-2-1.1-2.9-1.7v-6.8c1-.6 2-1.1 2.9-1.7v10.2z"/><path class="st1" d="M508.1 282.4c2 1.1 4 2.2 5.9 3.3-6.9 4-13.7 8-20.6 11.9l-5.9-3.4c1.1-.6 2.1-1.2 3.2-1.8.9.6 1.9 1.2 2.8 1.8 4.9-2.8 9.8-5.6 14.6-8.5v-3.3"/><path class="st3" d="M508.1 282.4c2 1.1 4 2.2 5.9 3.3-6.9 4-13.7 8-20.6 11.9l-5.9-3.4c1.1-.6 2.1-1.2 3.2-1.8.9.6 1.9 1.2 2.8 1.8 4.9-2.8 9.8-5.6 14.6-8.5v-3.3z"/><path class="st1" d="M514 285.7c0 1.2-.1 2.3-.1 3.5-6.8 4-13.7 7.9-20.5 11.9v-3.4c6.9-4 13.8-8 20.6-12"/><path class="st3" d="M514 285.7c0 1.2-.1 2.3-.1 3.5-6.8 4-13.7 7.9-20.5 11.9v-3.4c6.9-4 13.8-8 20.6-12z"/><path class="st1" d="M487.5 294.3v3.4c2 1.1 3.9 2.3 5.9 3.4v-3.4l-5.9-3.4z"/><path class="st3" d="M487.5 294.3v3.4c2 1.1 3.9 2.3 5.9 3.4v-3.4l-5.9-3.4z"/><path class="st1" d="M653 160.2v135.4c-11.9 6.9-23.9 13.8-35.8 20.7V180.9c11.9-6.9 23.9-13.8 35.8-20.7"/><path class="st3" d="M653 160.2v135.4c-11.9 6.9-23.9 13.8-35.8 20.7V180.9c11.9-6.9 23.9-13.8 35.8-20.7z"/><path class="st1" d="M653 160.2c-19.5-11.3-39.1-22.6-58.6-33.8-11.9 6.9-23.9 13.8-35.8 20.7 19.5 11.3 39.1 22.6 58.6 33.8 11.9-6.9 23.9-13.8 35.8-20.7"/><path class="st3" d="M653 160.2c-19.5-11.3-39.1-22.6-58.6-33.8-11.9 6.9-23.9 13.8-35.8 20.7 19.5 11.3 39.1 22.6 58.6 33.8 11.9-6.9 23.9-13.8 35.8-20.7z"/><path class="st1" d="M617.2 316.2c-19.5-11.3-39.1-22.6-58.6-33.8V147c19.5 11.3 39.1 22.6 58.6 33.8v135.4z"/><path class="st3" d="M617.2 316.2c-19.5-11.3-39.1-22.6-58.6-33.8V147c19.5 11.3 39.1 22.6 58.6 33.8v135.4z"/><path class="st1" d="M620.5 179l-58.6-33.8c-1.1.6-2.2 1.3-3.3 1.9 19.5 11.3 39.1 22.6 58.6 33.8 1.1-.7 2.2-1.3 3.3-1.9"/><path class="st3" d="M620.5 179l-58.6-33.8c-1.1.6-2.2 1.3-3.3 1.9 19.5 11.3 39.1 22.6 58.6 33.8 1.1-.7 2.2-1.3 3.3-1.9z"/><path class="st1" d="M620.5 179v135.4c-1.1.6-2.2 1.3-3.3 1.9V180.9c1.1-.7 2.2-1.3 3.3-1.9"/><path class="st3" d="M620.5 179v135.4c-1.1.6-2.2 1.3-3.3 1.9V180.9c1.1-.7 2.2-1.3 3.3-1.9z"/><path class="st1" d="M587.6 163.9h.6v135.4h-.6z"/><path class="st3" d="M587.6 163.9h.6v135.4h-.6z"/><path class="st1" d="M568.4 179v18.8c3.3 1.9 6.5 3.8 9.8 5.6v-18.8c-3.3-1.9-6.6-3.7-9.8-5.6"/><path class="st3" d="M568.4 179v18.8c3.3 1.9 6.5 3.8 9.8 5.6v-18.8c-3.3-1.9-6.6-3.7-9.8-5.6z"/><path class="st1" d="M569.6 182.2v13.9l7.2 4.2v-13.9c-2.3-1.5-4.8-2.9-7.2-4.2"/><path class="st3" d="M569.6 182.2v13.9l7.2 4.2v-13.9c-2.3-1.5-4.8-2.9-7.2-4.2z"/><path class="st1" d="M581.4 222.7l-2.1-1.2v36.2l2.1 1.2v-36.2z"/><path class="st3" d="M581.4 222.7l-2.1-1.2v36.2l2.1 1.2v-36.2z"/><path class="st1" d="M579.3 221.5l2.1-1.2 2.1 1.2-2.1 1.2-2.1-1.2"/><path class="st3" d="M579.3 221.5l2.1-1.2 2.1 1.2-2.1 1.2-2.1-1.2z"/><path class="st1" d="M583.5 221.5v36.2l-2.1 1.2v-36.2l2.1-1.2"/><path class="st3" d="M583.5 221.5v36.2l-2.1 1.2v-36.2l2.1-1.2z"/><path class="st1" d="M592.3 229l-2.1-1.2V264l2.1 1.2V229z"/><path class="st3" d="M592.3 229l-2.1-1.2V264l2.1 1.2V229z"/><path class="st1" d="M590.2 227.7l2.1-1.2 2.1 1.2-2.1 1.2-2.1-1.2"/><path class="st3" d="M590.2 227.7l2.1-1.2 2.1 1.2-2.1 1.2-2.1-1.2z"/><path class="st1" d="M594.4 227.7v36.2l-2.1 1.2v-36.2l2.1-1.2"/><path class="st3" d="M594.4 227.7v36.2l-2.1 1.2v-36.2l2.1-1.2z"/><path class="st1" d="M440.3 475.1v15c-31.7 18.3-63.4 36.6-95 54.9v-15l95-54.9z"/><path class="st3" d="M440.3 475.1v15c-31.7 18.3-63.4 36.6-95 54.9v-15l95-54.9z"/><path class="st1" d="M440.3 475.1c-37.4-21.6-74.9-43.2-112.3-64.8-31.7 18.3-63.4 36.6-95 54.9L345.3 530l95-54.9z"/><path class="st3" d="M440.3 475.1c-37.4-21.6-74.9-43.2-112.3-64.8-31.7 18.3-63.4 36.6-95 54.9L345.3 530l95-54.9z"/><path class="st1" d="M345.3 530v15c-37.4-21.6-74.9-43.2-112.3-64.8v-15L345.3 530z"/><path class="st3" d="M345.3 530v15c-37.4-21.6-74.9-43.2-112.3-64.8v-15L345.3 530z"/><path class="st1" d="M233 480.1c-2.9-1.7-5.8-3.3-8.6-5v-39.9c2.9 1.7 5.8 3.3 8.6 5v39.9"/><path class="st3" d="M233 480.1c-2.9-1.7-5.8-3.3-8.6-5v-39.9c2.9 1.7 5.8 3.3 8.6 5v39.9z"/><path class="st1" d="M328 385.3c-2.9-1.7-5.8-3.3-8.6-5-31.7 18.3-63.4 36.6-95 54.9 2.9 1.7 5.8 3.3 8.6 5 31.7-18.3 63.4-36.6 95-54.9"/><path class="st3" d="M328 385.3c-2.9-1.7-5.8-3.3-8.6-5-31.7 18.3-63.4 36.6-95 54.9 2.9 1.7 5.8 3.3 8.6 5 31.7-18.3 63.4-36.6 95-54.9z"/><path class="st1" d="M328 385.3v24.9c-31.7 18.3-63.4 36.6-95 54.9v-24.9c31.7-18.3 63.4-36.6 95-54.9"/><path class="st3" d="M328 385.3v24.9c-31.7 18.3-63.4 36.6-95 54.9v-24.9c31.7-18.3 63.4-36.6 95-54.9z"/><path class="st1" d="M431.7 475.1v-10c-28.8 16.6-57.6 33.3-86.4 49.9v10c28.8-16.6 57.6-33.3 86.4-49.9"/><path class="st3" d="M431.7 475.1v-10c-28.8 16.6-57.6 33.3-86.4 49.9v10c28.8-16.6 57.6-33.3 86.4-49.9z"/><path class="st1" d="M431.7 465.1c-34.6-19.9-69.1-39.9-103.7-59.9-28.8 16.6-57.6 33.3-86.4 49.9 34.6 19.9 69.1 39.9 103.7 59.8 28.8-16.5 57.6-33.1 86.4-49.8"/><path class="st3" d="M431.7 465.1c-34.6-19.9-69.1-39.9-103.7-59.9-28.8 16.6-57.6 33.3-86.4 49.9 34.6 19.9 69.1 39.9 103.7 59.8 28.8-16.5 57.6-33.1 86.4-49.8z"/><path class="st1" d="M345.3 525v-10c-34.6-19.9-69.1-39.9-103.7-59.8v9.9c34.6 20 69.2 39.9 103.7 59.9"/><path class="st3" d="M345.3 525v-10c-34.6-19.9-69.1-39.9-103.7-59.8v9.9c34.6 20 69.2 39.9 103.7 59.9z"/><path class="st1" d="M344.4 414.8v4.5l-35.1 20.3v-4.5c11.7-6.8 23.4-13.5 35.1-20.3"/><path class="st3" d="M344.4 414.8v4.5l-35.1 20.3v-4.5c11.7-6.8 23.4-13.5 35.1-20.3z"/><path class="st1" d="M344.4 414.8c-6.5-3.8-13-7.5-19.5-11.3-11.7 6.8-23.4 13.5-35.1 20.3 6.5 3.8 13 7.5 19.5 11.3 11.7-6.8 23.4-13.5 35.1-20.3"/><path class="st3" d="M344.4 414.8c-6.5-3.8-13-7.5-19.5-11.3-11.7 6.8-23.4 13.5-35.1 20.3 6.5 3.8 13 7.5 19.5 11.3 11.7-6.8 23.4-13.5 35.1-20.3z"/><path class="st1" d="M309.3 439.6c-6.5-3.7-13-7.5-19.5-11.2v-4.5c6.5 3.8 13 7.5 19.5 11.3v4.4z"/><path class="st3" d="M309.3 439.6c-6.5-3.7-13-7.5-19.5-11.2v-4.5c6.5 3.8 13 7.5 19.5 11.3v4.4z"/><path class="st1" d="M301.5 439.6v4.5c-11.7 6.8-23.4 13.5-35.1 20.3v-4.5c11.7-6.8 23.4-13.6 35.1-20.3"/><path class="st3" d="M301.5 439.6v4.5c-11.7 6.8-23.4 13.5-35.1 20.3v-4.5c11.7-6.8 23.4-13.6 35.1-20.3z"/><path class="st1" d="M301.5 439.6L282 428.3c-11.7 6.8-23.4 13.5-35.1 20.3 6.5 3.8 13 7.5 19.5 11.3 11.7-6.8 23.4-13.6 35.1-20.3"/><path class="st3" d="M301.5 439.6L282 428.3c-11.7 6.8-23.4 13.5-35.1 20.3 6.5 3.8 13 7.5 19.5 11.3 11.7-6.8 23.4-13.6 35.1-20.3z"/><path class="st1" d="M266.4 464.4c-6.5-3.7-13-7.5-19.5-11.2v-4.5c6.5 3.8 13 7.5 19.5 11.3v4.4z"/><path class="st3" d="M266.4 464.4c-6.5-3.7-13-7.5-19.5-11.2v-4.5c6.5 3.8 13 7.5 19.5 11.3v4.4z"/><path class="st1" d="M476.7 302.8v62.8c-12.4 7.2-24.8 14.3-37.2 21.5v-62.8c12.3-7.1 24.7-14.3 37.2-21.5"/><path class="st3" d="M476.7 302.8v62.8c-12.4 7.2-24.8 14.3-37.2 21.5v-62.8c12.3-7.1 24.7-14.3 37.2-21.5z"/><path class="st1" d="M476.7 302.8c-10.5-6.1-21-12.1-31.5-18.2-12.4 7.2-24.8 14.3-37.2 21.5 10.5 6.1 21 12.1 31.5 18.2 12.3-7.1 24.7-14.3 37.2-21.5"/><path class="st3" d="M476.7 302.8c-10.5-6.1-21-12.1-31.5-18.2-12.4 7.2-24.8 14.3-37.2 21.5 10.5 6.1 21 12.1 31.5 18.2 12.3-7.1 24.7-14.3 37.2-21.5z"/><path class="st1" d="M407.9 306.1v62.8c10.5 6.1 21 12.1 31.5 18.2v-62.8c-10.5-6-21-12.1-31.5-18.2"/><path class="st3" d="M407.9 306.1v62.8c10.5 6.1 21 12.1 31.5 18.2v-62.8c-10.5-6-21-12.1-31.5-18.2z"/><path class="st1" d="M473.8 307.8v6.6c-2.9 1.7-5.7 3.3-8.6 5v-6.6c2.9-1.7 5.7-3.4 8.6-5"/><path class="st3" d="M473.8 307.8v6.6c-2.9 1.7-5.7 3.3-8.6 5v-6.6c2.9-1.7 5.7-3.4 8.6-5z"/><path class="st1" d="M439.4 338.1l37.3-21.5v-1.1L439.4 337z"/><path class="st3" d="M439.4 338.1l37.3-21.5v-1.1L439.4 337z"/><path class="st1" d="M476.7 362.4c-12.4 7.2-24.8 14.3-37.2 21.5v3.3c12.4-7.2 24.8-14.3 37.2-21.5v-3.3z"/><path class="st3" d="M476.7 362.4c-12.4 7.2-24.8 14.3-37.2 21.5v3.3c12.4-7.2 24.8-14.3 37.2-21.5v-3.3z"/><path class="st1" d="M439.4 383.8c-10.5-6.1-21-12.1-31.5-18.2v3.3c10.5 6.1 21 12.1 31.5 18.2v-3.3"/><path class="st3" d="M439.4 383.8c-10.5-6.1-21-12.1-31.5-18.2v3.3c10.5 6.1 21 12.1 31.5 18.2v-3.3z"/><path class="st1" d="M458.9 336.2c-6.7 3.7-12.1 13-12.2 20.7-.1 7.7 5.3 11 11.9 7.3 6.7-3.7 12.1-13 12.2-20.7.1-7.8-5.3-11-11.9-7.3"/><path class="st3" d="M458.9 336.2c-6.7 3.7-12.1 13-12.2 20.7-.1 7.7 5.3 11 11.9 7.3 6.7-3.7 12.1-13 12.2-20.7.1-7.8-5.3-11-11.9-7.3z"/><path class="st1" d="M455.3 364.8c6.7-3.7 12.1-13 12.2-20.7 0-5.5-2.7-8.8-6.7-8.8 5.7-2.1 10.1 1.2 10 8.2-.1 7.7-5.5 17-12.2 20.7-1.9 1.1-3.7 1.5-5.3 1.5.7-.3 1.4-.6 2-.9"/><path class="st3" d="M455.3 364.8c6.7-3.7 12.1-13 12.2-20.7 0-5.5-2.7-8.8-6.7-8.8 5.7-2.1 10.1 1.2 10 8.2-.1 7.7-5.5 17-12.2 20.7-1.9 1.1-3.7 1.5-5.3 1.5.7-.3 1.4-.6 2-.9z"/><g opacity=".32"><defs><path id="SVGID_1_" d="M448.6 333.8H469v34h-20.4z"/></defs><clipPath id="SVGID_2_"><use xlink:href="#SVGID_1_" overflow="visible"/></clipPath><path class="st5" d="M451.9 366.3c.1 0 .1 0 0 0z"/><path class="st6" d="M451.9 366.3c.1 0 .1 0 0 0z"/><path class="st5" d="M450 366.3c.1 0 .1 0 0 0 .1 0 .1 0 0 0"/><path class="st6" d="M450 366.3c.1 0 .1 0 0 0 .1 0 .1 0 0 0z"/><path class="st5" d="M461.6 335.3h.2c0 .1-.1 0-.2 0"/><path class="st6" d="M461.6 335.3h.2c0 .1-.1 0-.2 0z"/><path class="st5" d="M451.1 366.2c-.3 0-.7.1-1 .1.3 0 .6 0 1-.1"/><path class="st6" d="M451.1 366.2c-.3 0-.7.1-1 .1.3 0 .6 0 1-.1z"/><path class="st5" d="M453.4 365.7s-.1 0-.1.1c-.7.3-1.5.4-2.2.5.7-.2 1.5-.3 2.3-.6"/><path class="st6" d="M453.4 365.7s-.1 0-.1.1c-.7.3-1.5.4-2.2.5.7-.2 1.5-.3 2.3-.6z"/><path class="st5" d="M462.2 335.4c-.1 0-.2 0-.4-.1.1.1.3.1.4.1"/><path class="st6" d="M462.2 335.4c-.1 0-.2 0-.4-.1.1.1.3.1.4.1z"/><path class="st5" d="M467.5 344.1c0-4.8-2-7.9-5.2-8.6 3.1.7 5.2 3.8 5.2 8.6 0 7.7-5.5 17-12.1 20.7-.7.4-1.4.7-2.1.9 0 0 .1 0 .1-.1.6-.2 1.3-.5 1.9-.9 6.6-3.6 12.1-12.9 12.2-20.6"/><path class="st6" d="M467.5 344.1c0-4.8-2-7.9-5.2-8.6 3.1.7 5.2 3.8 5.2 8.6 0 7.7-5.5 17-12.1 20.7-.7.4-1.4.7-2.1.9 0 0 .1 0 .1-.1.6-.2 1.3-.5 1.9-.9 6.6-3.6 12.1-12.9 12.2-20.6z"/></g><path class="st1" d="M458.5 334.8c7.3-4.1 13.2-.5 13.2 8-.1 8.5-6.1 18.7-13.4 22.8-7.3 4.1-13.2.5-13.2-8 0-8.6 6-18.8 13.4-22.8m-.3 29c6.5-3.6 11.8-12.7 11.9-20.2.1-7.5-5.2-10.7-11.7-7.1-6.5 3.6-11.8 12.7-11.9 20.2 0 7.5 5.2 10.7 11.7 7.1"/><path class="st3" d="M458.5 334.8c7.3-4.1 13.2-.5 13.2 8-.1 8.5-6.1 18.7-13.4 22.8-7.3 4.1-13.2.5-13.2-8 0-8.6 6-18.8 13.4-22.8zm-.3 29c6.5-3.6 11.8-12.7 11.9-20.2.1-7.5-5.2-10.7-11.7-7.1-6.5 3.6-11.8 12.7-11.9 20.2 0 7.5 5.2 10.7 11.7 7.1z"/><path class="st1" d="M444.5 357.2c.1-8.5 6.1-18.7 13.4-22.8 3.2-1.8 6.1-2.1 8.4-1.2-2.2-.6-4.8-.2-7.6 1.4-7.3 4.1-13.3 14.3-13.4 22.8 0 4.8 1.8 8 4.8 9.2-3.5-.8-5.7-4.2-5.6-9.4"/><path class="st3" d="M444.5 357.2c.1-8.5 6.1-18.7 13.4-22.8 3.2-1.8 6.1-2.1 8.4-1.2-2.2-.6-4.8-.2-7.6 1.4-7.3 4.1-13.3 14.3-13.4 22.8 0 4.8 1.8 8 4.8 9.2-3.5-.8-5.7-4.2-5.6-9.4z"/><path class="st1" d="M416 352.6v43.2c-9.1 5.2-18.1 10.5-27.2 15.7v-43.2c9.1-5.2 18.1-10.5 27.2-15.7"/><path class="st3" d="M416 352.6v43.2c-9.1 5.2-18.1 10.5-27.2 15.7v-43.2c9.1-5.2 18.1-10.5 27.2-15.7z"/><path class="st1" d="M388.8 368.3c-9.1-5.2-18.1-10.5-27.2-15.7v43.2c9.1 5.2 18.1 10.5 27.2 15.7v-43.2"/><path class="st3" d="M388.8 368.3c-9.1-5.2-18.1-10.5-27.2-15.7v43.2c9.1 5.2 18.1 10.5 27.2 15.7v-43.2z"/><path class="st1" d="M412.6 358.5v35.3c-6.8 3.9-13.6 7.9-20.4 11.8v-35.3c6.8-4 13.6-7.9 20.4-11.8"/><path class="st3" d="M412.6 358.5v35.3c-6.8 3.9-13.6 7.9-20.4 11.8v-35.3c6.8-4 13.6-7.9 20.4-11.8z"/><path class="st1" d="M412.6 393.8c-.4-.3-.9-.5-1.3-.8-6.3 3.6-12.7 7.3-19 10.9v1.7c6.7-3.9 13.5-7.9 20.3-11.8"/><path class="st3" d="M412.6 393.8c-.4-.3-.9-.5-1.3-.8-6.3 3.6-12.7 7.3-19 10.9v1.7c6.7-3.9 13.5-7.9 20.3-11.8z"/><path class="st1" d="M411.3 393c0-11.2-.1-22.5-.1-33.7l1.4-.8v35.3c-.4-.3-.9-.5-1.3-.8"/><path class="st3" d="M411.3 393c0-11.2-.1-22.5-.1-33.7l1.4-.8v35.3c-.4-.3-.9-.5-1.3-.8z"/><path class="st1" d="M416 352.6c-9.1 5.2-18.1 10.5-27.2 15.7-9.1-5.2-18.1-10.5-27.2-15.7 9.1-5.2 18.1-10.5 27.2-15.7 9.1 5.2 18.1 10.5 27.2 15.7"/><path class="st3" d="M416 352.6c-9.1 5.2-18.1 10.5-27.2 15.7-9.1-5.2-18.1-10.5-27.2-15.7 9.1-5.2 18.1-10.5 27.2-15.7 9.1 5.2 18.1 10.5 27.2 15.7z"/><path class="st1" d="M408.3 376.2v2.2l-1.9 1.1v-2.2c.6-.4 1.3-.7 1.9-1.1"/><path class="st3" d="M408.3 376.2v2.2l-1.9 1.1v-2.2c.6-.4 1.3-.7 1.9-1.1z"/><path class="st1" d="M408.3 376.2c-.2-.1-.3-.2-.5-.3-.6.4-1.2.7-1.9 1.1.2.1.3.2.5.3.6-.4 1.3-.7 1.9-1.1"/><path class="st3" d="M408.3 376.2c-.2-.1-.3-.2-.5-.3-.6.4-1.2.7-1.9 1.1.2.1.3.2.5.3.6-.4 1.3-.7 1.9-1.1z"/><path class="st1" d="M405.9 377v2.2c.2.1.3.2.5.3v-2.2c-.1-.1-.3-.2-.5-.3"/><path class="st3" d="M405.9 377v2.2c.2.1.3.2.5.3v-2.2c-.1-.1-.3-.2-.5-.3z"/><path class="st1" d="M408.7 376.5v2.2c-.6.4-1.2.7-1.9 1.1v-2.2c.7-.4 1.3-.8 1.9-1.1"/><path class="st3" d="M408.7 376.5v2.2c-.6.4-1.2.7-1.9 1.1v-2.2c.7-.4 1.3-.8 1.9-1.1z"/><path class="st1" d="M408.7 376.5c-.2-.1-.3-.2-.5-.3-.6.4-1.2.7-1.9 1.1.2.1.3.2.5.3.7-.4 1.3-.8 1.9-1.1"/><path class="st3" d="M408.7 376.5c-.2-.1-.3-.2-.5-.3-.6.4-1.2.7-1.9 1.1.2.1.3.2.5.3.7-.4 1.3-.8 1.9-1.1z"/><path class="st1" d="M406.4 377.3v2.2c.2.1.3.2.5.3v-2.2c-.2-.1-.3-.2-.5-.3"/><path class="st3" d="M406.4 377.3v2.2c.2.1.3.2.5.3v-2.2c-.2-.1-.3-.2-.5-.3z"/><path class="st1" d="M409.2 376.7v2.2c-.6.4-1.2.7-1.9 1.1v-2.2c.7-.3 1.3-.7 1.9-1.1"/><path class="st3" d="M409.2 376.7v2.2c-.6.4-1.2.7-1.9 1.1v-2.2c.7-.3 1.3-.7 1.9-1.1z"/><path class="st1" d="M409.2 376.7c-.2-.1-.3-.2-.5-.3-.6.4-1.2.7-1.9 1.1.2.1.3.2.5.3.7-.3 1.3-.7 1.9-1.1"/><path class="st3" d="M409.2 376.7c-.2-.1-.3-.2-.5-.3-.6.4-1.2.7-1.9 1.1.2.1.3.2.5.3.7-.3 1.3-.7 1.9-1.1z"/><path class="st1" d="M406.9 377.5v2.2c.2.1.3.2.5.3v-2.2c-.2-.1-.4-.2-.5-.3"/><path class="st3" d="M406.9 377.5v2.2c.2.1.3.2.5.3v-2.2c-.2-.1-.4-.2-.5-.3z"/><path class="st1" d="M409.7 377v2.2c-.6.4-1.2.7-1.9 1.1v-2.2c.6-.4 1.3-.7 1.9-1.1"/><path class="st3" d="M409.7 377v2.2c-.6.4-1.2.7-1.9 1.1v-2.2c.6-.4 1.3-.7 1.9-1.1z"/><path class="st1" d="M409.7 377c-.2-.1-.3-.2-.5-.3-.6.4-1.2.7-1.9 1.1.2.1.3.2.5.3.6-.4 1.3-.7 1.9-1.1"/><path class="st3" d="M409.7 377c-.2-.1-.3-.2-.5-.3-.6.4-1.2.7-1.9 1.1.2.1.3.2.5.3.6-.4 1.3-.7 1.9-1.1z"/><path class="st1" d="M407.3 377.8v2.2c.2.1.3.2.5.3v-2.2c-.1-.1-.3-.2-.5-.3"/><path class="st3" d="M407.3 377.8v2.2c.2.1.3.2.5.3v-2.2c-.1-.1-.3-.2-.5-.3z"/><path class="st1" d="M410.2 377.3v2.2c-.6.4-1.2.7-1.9 1.1v-2.2c.6-.4 1.2-.8 1.9-1.1"/><path class="st3" d="M410.2 377.3v2.2c-.6.4-1.2.7-1.9 1.1v-2.2c.6-.4 1.2-.8 1.9-1.1z"/><path class="st1" d="M410.2 377.3c-.2-.1-.3-.2-.5-.3-.6.4-1.2.7-1.9 1.1.2.1.3.2.5.3.6-.4 1.2-.8 1.9-1.1"/><path class="st3" d="M410.2 377.3c-.2-.1-.3-.2-.5-.3-.6.4-1.2.7-1.9 1.1.2.1.3.2.5.3.6-.4 1.2-.8 1.9-1.1z"/><path class="st1" d="M407.8 378.1v2.2c.2.1.3.2.5.3v-2.2c-.2-.1-.3-.2-.5-.3"/><path class="st3" d="M407.8 378.1v2.2c.2.1.3.2.5.3v-2.2c-.2-.1-.3-.2-.5-.3z"/><path class="st1" d="M410.6 377.5v2.2l-1.9 1.1v-2.2z"/><path class="st3" d="M410.6 377.5v2.2l-1.9 1.1v-2.2z"/><path class="st1" d="M410.6 377.5l-.5-.3c-.6.4-1.2.7-1.9 1.1.2.1.3.2.5.3l1.9-1.1z"/><path class="st3" d="M410.6 377.5l-.5-.3c-.6.4-1.2.7-1.9 1.1.2.1.3.2.5.3l1.9-1.1z"/><path class="st1" d="M408.3 378.4v2.2c.2.1.3.2.5.3v-2.2c-.2-.2-.4-.3-.5-.3"/><path class="st3" d="M408.3 378.4v2.2c.2.1.3.2.5.3v-2.2c-.2-.2-.4-.3-.5-.3z"/><path class="st1" d="M411.1 377.8v2.2c-.6.4-1.2.7-1.9 1.1v-2.2c.6-.4 1.3-.7 1.9-1.1"/><path class="st3" d="M411.1 377.8v2.2c-.6.4-1.2.7-1.9 1.1v-2.2c.6-.4 1.3-.7 1.9-1.1z"/><path class="st1" d="M411.1 377.8c-.2-.1-.3-.2-.5-.3-.6.4-1.2.7-1.9 1.1.2.1.3.2.5.3.6-.4 1.3-.7 1.9-1.1"/><path class="st3" d="M411.1 377.8c-.2-.1-.3-.2-.5-.3-.6.4-1.2.7-1.9 1.1.2.1.3.2.5.3.6-.4 1.3-.7 1.9-1.1z"/><path class="st1" d="M408.7 378.6v2.2c.2.1.3.2.5.3v-2.2c-.1-.1-.3-.2-.5-.3"/><path class="st3" d="M408.7 378.6v2.2c.2.1.3.2.5.3v-2.2c-.1-.1-.3-.2-.5-.3z"/><path class="st1" d="M411.6 378.1v2.2l-1.9 1.1v-2.2c.6-.4 1.2-.7 1.9-1.1"/><path class="st3" d="M411.6 378.1v2.2l-1.9 1.1v-2.2c.6-.4 1.2-.7 1.9-1.1z"/><path class="st1" d="M411.6 378.1c-.2-.1-.3-.2-.5-.3l-1.9 1.1.5.3c.6-.4 1.2-.7 1.9-1.1"/><path class="st3" d="M411.6 378.1c-.2-.1-.3-.2-.5-.3l-1.9 1.1.5.3c.6-.4 1.2-.7 1.9-1.1z"/><path class="st1" d="M409.2 378.9v2.2c.2.1.3.2.5.3v-2.2l-.5-.3z"/><path class="st3" d="M409.2 378.9v2.2c.2.1.3.2.5.3v-2.2l-.5-.3z"/><path class="st1" d="M412.5 375.4v4.3c-1.2.7-2.5 1.4-3.7 2.2v-4.3c1.2-.8 2.4-1.5 3.7-2.2"/><path class="st3" d="M412.5 375.4v4.3c-1.2.7-2.5 1.4-3.7 2.2v-4.3c1.2-.8 2.4-1.5 3.7-2.2z"/><path class="st1" d="M412.5 375.4c-.3-.2-.6-.4-.9-.5-1.2.7-2.5 1.4-3.7 2.2.3.2.6.4.9.5 1.2-.8 2.4-1.5 3.7-2.2"/><path class="st3" d="M412.5 375.4c-.3-.2-.6-.4-.9-.5-1.2.7-2.5 1.4-3.7 2.2.3.2.6.4.9.5 1.2-.8 2.4-1.5 3.7-2.2z"/><path class="st1" d="M407.8 377v4.3c.3.2.6.4.9.5v-4.3c-.3-.1-.6-.3-.9-.5"/><path class="st3" d="M407.8 377v4.3c.3.2.6.4.9.5v-4.3c-.3-.1-.6-.3-.9-.5z"/><path class="st1" d="M150.2 503.1v54.4c-11.4 6.6-22.8 13.2-34.3 19.8v-54.4c11.5-6.6 22.9-13.2 34.3-19.8"/><path class="st3" d="M150.2 503.1v54.4c-11.4 6.6-22.8 13.2-34.3 19.8v-54.4c11.5-6.6 22.9-13.2 34.3-19.8z"/><path class="st1" d="M116 522.9c-11.4-6.6-22.8-13.2-34.3-19.8v54.4c11.4 6.6 22.8 13.2 34.3 19.8v-54.4"/><path class="st3" d="M116 522.9c-11.4-6.6-22.8-13.2-34.3-19.8v54.4c11.4 6.6 22.8 13.2 34.3 19.8v-54.4z"/><path class="st1" d="M150.2 503.1c-11.4 6.6-22.8 13.2-34.3 19.8-11.4-6.6-22.8-13.2-34.3-19.8l34.3-19.8c11.5 6.6 22.9 13.2 34.3 19.8"/><path class="st3" d="M150.2 503.1c-11.4 6.6-22.8 13.2-34.3 19.8-11.4-6.6-22.8-13.2-34.3-19.8l34.3-19.8c11.5 6.6 22.9 13.2 34.3 19.8z"/><path class="st1" d="M111.5 525.5v54.4l-34.3 19.8v-54.4c11.5-6.6 22.9-13.2 34.3-19.8"/><path class="st3" d="M111.5 525.5v54.4l-34.3 19.8v-54.4c11.5-6.6 22.9-13.2 34.3-19.8z"/><path class="st1" d="M77.3 545.3c-11.4-6.6-22.8-13.2-34.3-19.8v54.4l34.3 19.8v-54.4"/><path class="st3" d="M77.3 545.3c-11.4-6.6-22.8-13.2-34.3-19.8v54.4l34.3 19.8v-54.4z"/><path class="st1" d="M111.5 525.5c-11.4 6.6-22.8 13.2-34.3 19.8-11.4-6.6-22.8-13.2-34.3-19.8l34.3-19.8c11.5 6.6 22.9 13.2 34.3 19.8"/><path class="st3" d="M111.5 525.5c-11.4 6.6-22.8 13.2-34.3 19.8-11.4-6.6-22.8-13.2-34.3-19.8l34.3-19.8c11.5 6.6 22.9 13.2 34.3 19.8z"/><path class="st1" d="M131.8 459.3v54.4l-34.3 19.8v-54.4c11.5-6.6 22.9-13.2 34.3-19.8"/><path class="st3" d="M131.8 459.3v54.4l-34.3 19.8v-54.4c11.5-6.6 22.9-13.2 34.3-19.8z"/><path class="st1" d="M97.6 479.1c-11.4-6.6-22.8-13.2-34.3-19.8v54.4l34.3 19.8v-54.4"/><path class="st3" d="M97.6 479.1c-11.4-6.6-22.8-13.2-34.3-19.8v54.4l34.3 19.8v-54.4z"/><path class="st1" d="M131.8 459.3c-11.4 6.6-22.8 13.2-34.3 19.8-11.4-6.6-22.8-13.2-34.3-19.8l34.3-19.8c11.5 6.6 22.9 13.2 34.3 19.8"/><path class="st3" d="M131.8 459.3c-11.4 6.6-22.8 13.2-34.3 19.8-11.4-6.6-22.8-13.2-34.3-19.8l34.3-19.8c11.5 6.6 22.9 13.2 34.3 19.8z"/><path class="st1" d="M330.7 587.5c-3.2-1.8-6.4-3.7-9.5-5.5v-11c-8-4.6-15.9-9.2-23.9-13.8v11c-3.2-1.8-6.4-3.7-9.5-5.5v-49.6c3.2 1.8 6.4 3.7 9.5 5.5 0 7.3.1 14.7.1 22 11.1 6.4 22.2 12.9 33.3 19.3v27.6"/><path class="st3" d="M330.7 587.5c-3.2-1.8-6.4-3.7-9.5-5.5v-11c-8-4.6-15.9-9.2-23.9-13.8v11c-3.2-1.8-6.4-3.7-9.5-5.5v-49.6c3.2 1.8 6.4 3.7 9.5 5.5 0 7.3.1 14.7.1 22 11.1 6.4 22.2 12.9 33.3 19.3v27.6z"/><path class="st1" d="M330.7 587.5c-3.2 1.8-6.4 3.7-9.5 5.5v-27.6c3.2-1.8 6.4-3.7 9.5-5.5v27.6"/><path class="st3" d="M330.7 587.5c-3.2 1.8-6.4 3.7-9.5 5.5v-27.6c3.2-1.8 6.4-3.7 9.5-5.5v27.6z"/><path class="st1" d="M330.7 560c-11.1-6.4-22.2-12.9-33.3-19.3-3.2 1.9-6.4 3.7-9.6 5.6 11.1 6.4 22.3 12.9 33.4 19.3 3.1-1.9 6.3-3.8 9.5-5.6"/><path class="st3" d="M330.7 560c-11.1-6.4-22.2-12.9-33.3-19.3-3.2 1.9-6.4 3.7-9.6 5.6 11.1 6.4 22.3 12.9 33.4 19.3 3.1-1.9 6.3-3.8 9.5-5.6z"/><path class="st1" d="M297.3 518.6c-3.2 1.8-6.4 3.7-9.5 5.5v22c3.2-1.9 6.4-3.7 9.6-5.6-.1-7.2-.1-14.5-.1-21.9"/><path class="st3" d="M297.3 518.6c-3.2 1.8-6.4 3.7-9.5 5.5v22c3.2-1.9 6.4-3.7 9.6-5.6-.1-7.2-.1-14.5-.1-21.9z"/><path class="st1" d="M321.2 593.1c-14.3-8.3-28.6-16.5-43-24.8v-49.6c3.2 1.8 6.4 3.7 9.5 5.5l.2 21.7c11.1 6.5 22.2 13.1 33.3 19.6v27.6"/><path class="st3" d="M321.2 593.1c-14.3-8.3-28.6-16.5-43-24.8v-49.6c3.2 1.8 6.4 3.7 9.5 5.5l.2 21.7c11.1 6.5 22.2 13.1 33.3 19.6v27.6z"/><path class="st1" d="M287.7 513.1c-3.2 1.8-6.4 3.7-9.5 5.5 3.2 1.8 6.4 3.7 9.5 5.5 3.2-1.8 6.4-3.7 9.5-5.5-3.1-1.8-6.3-3.6-9.5-5.5"/><path class="st3" d="M287.7 513.1c-3.2 1.8-6.4 3.7-9.5 5.5 3.2 1.8 6.4 3.7 9.5 5.5 3.2-1.8 6.4-3.7 9.5-5.5-3.1-1.8-6.3-3.6-9.5-5.5z"/><path class="st1" d="M216.1 653.7c-3.2-1.8-6.4-3.7-9.5-5.5v-11c-8-4.6-15.9-9.2-23.9-13.8v11c-3.2-1.8-6.4-3.7-9.5-5.5v-49.6c3.2 1.8 6.4 3.7 9.5 5.5 0 7.3.1 14.7.1 22 11.1 6.4 22.2 12.9 33.3 19.3v27.6"/><path class="st3" d="M216.1 653.7c-3.2-1.8-6.4-3.7-9.5-5.5v-11c-8-4.6-15.9-9.2-23.9-13.8v11c-3.2-1.8-6.4-3.7-9.5-5.5v-49.6c3.2 1.8 6.4 3.7 9.5 5.5 0 7.3.1 14.7.1 22 11.1 6.4 22.2 12.9 33.3 19.3v27.6z"/><path class="st1" d="M216.1 653.7c-3.2 1.8-6.4 3.7-9.5 5.5v-27.6c3.2-1.8 6.4-3.7 9.5-5.5v27.6"/><path class="st3" d="M216.1 653.7c-3.2 1.8-6.4 3.7-9.5 5.5v-27.6c3.2-1.8 6.4-3.7 9.5-5.5v27.6z"/><path class="st1" d="M216.1 626.2c-11.1-6.4-22.2-12.9-33.3-19.3-3.2 1.9-6.4 3.7-9.6 5.6 11.1 6.4 22.3 12.9 33.4 19.3 3.1-2 6.3-3.8 9.5-5.6"/><path class="st3" d="M216.1 626.2c-11.1-6.4-22.2-12.9-33.3-19.3-3.2 1.9-6.4 3.7-9.6 5.6 11.1 6.4 22.3 12.9 33.4 19.3 3.1-2 6.3-3.8 9.5-5.6z"/><path class="st1" d="M182.7 584.8l-9.5 5.5v22c3.2-1.9 6.4-3.7 9.6-5.6-.1-7.2-.1-14.6-.1-21.9"/><path class="st3" d="M182.7 584.8l-9.5 5.5v22c3.2-1.9 6.4-3.7 9.6-5.6-.1-7.2-.1-14.6-.1-21.9z"/><path class="st1" d="M206.6 659.2c-14.3-8.3-28.6-16.5-43-24.8v-49.6c3.2 1.8 6.4 3.7 9.5 5.5.1 7.2.1 14.5.2 21.7 11.1 6.5 22.2 13.1 33.3 19.6-.1 9.3-.1 18.5 0 27.6"/><path class="st3" d="M206.6 659.2c-14.3-8.3-28.6-16.5-43-24.8v-49.6c3.2 1.8 6.4 3.7 9.5 5.5.1 7.2.1 14.5.2 21.7 11.1 6.5 22.2 13.1 33.3 19.6-.1 9.3-.1 18.5 0 27.6z"/><path class="st1" d="M173.1 579.3c-3.2 1.8-6.4 3.7-9.5 5.5 3.2 1.8 6.4 3.7 9.5 5.5l9.5-5.5c-3.1-1.8-6.3-3.7-9.5-5.5"/><path class="st3" d="M173.1 579.3c-3.2 1.8-6.4 3.7-9.5 5.5 3.2 1.8 6.4 3.7 9.5 5.5l9.5-5.5c-3.1-1.8-6.3-3.7-9.5-5.5z"/><path class="st1" d="M321.2 587.6v-5.5c-35 20.2-70 40.4-105.1 60.7v5.5c35-20.3 70.1-40.5 105.1-60.7"/><path class="st3" d="M321.2 587.6v-5.5c-35 20.2-70 40.4-105.1 60.7v5.5c35-20.3 70.1-40.5 105.1-60.7z"/><path class="st1" d="M216.2 642.8c.8.5 1.6 1 2.5 1.5v-9c-.9-.5-1.7-.9-2.6-1.4 0 2.9.1 5.9.1 8.9"/><path class="st3" d="M216.2 642.8c.8.5 1.6 1 2.5 1.5v-9c-.9-.5-1.7-.9-2.6-1.4 0 2.9.1 5.9.1 8.9z"/><path class="st1" d="M218.7 635.2l104-59.6c0 2.8.1 5.6.1 8.4-34.7 20.1-69.4 40.2-104.1 60.2v-9z"/><path class="st3" d="M218.7 635.2l104-59.6c0 2.8.1 5.6.1 8.4-34.7 20.1-69.4 40.2-104.1 60.2v-9z"/><path class="st1" d="M322.7 575.7L283 552.9c-32.2 18.7-64.4 37.4-96.6 56 9.9 5.7 19.8 11.5 29.7 17.2v7.7c.9.5 1.7.9 2.6 1.4l104-59.5z"/><path class="st3" d="M322.7 575.7L283 552.9c-32.2 18.7-64.4 37.4-96.6 56 9.9 5.7 19.8 11.5 29.7 17.2v7.7c.9.5 1.7.9 2.6 1.4l104-59.5z"/><path class="st1" d="M278.2 518.7c-35 20.2-70 40.4-105.1 60.6 1.6.9 3.2 1.9 4.8 2.8 35-20.2 70-40.5 105-60.7-1.5-.9-3.1-1.8-4.7-2.7"/><path class="st3" d="M278.2 518.7c-35 20.2-70 40.4-105.1 60.6 1.6.9 3.2 1.9 4.8 2.8 35-20.2 70-40.5 105-60.7-1.5-.9-3.1-1.8-4.7-2.7z"/><path class="st1" d="M283 521.4c0 10.6 0 21.1.1 31.7l-96.6 55.8c-1.2-.7-2.4-1.4-3.6-2.2 0-7.3-.1-14.7-.1-22-1.6-.9-3.2-1.8-4.7-2.7C213 561.9 248 541.6 283 521.4"/><path class="st3" d="M283 521.4c0 10.6 0 21.1.1 31.7l-96.6 55.8c-1.2-.7-2.4-1.4-3.6-2.2 0-7.3-.1-14.7-.1-22-1.6-.9-3.2-1.8-4.7-2.7C213 561.9 248 541.6 283 521.4z"/><path class="st1" d="M261.8 537.2v25.4c1.1.7 2.3 1.3 3.4 2 0-8.4 0-16.9.1-25.3-1.2-.8-2.4-1.5-3.5-2.1"/><path class="st3" d="M261.8 537.2v25.4c1.1.7 2.3 1.3 3.4 2 0-8.4 0-16.9.1-25.3-1.2-.8-2.4-1.5-3.5-2.1z"/><path class="st1" d="M243.7 547.6V573c1.1.7 2.3 1.3 3.4 2 0-8.4 0-16.9.1-25.3-1.2-.7-2.4-1.4-3.5-2.1"/><path class="st3" d="M243.7 547.6V573c1.1.7 2.3 1.3 3.4 2 0-8.4 0-16.9.1-25.3-1.2-.7-2.4-1.4-3.5-2.1z"/><path class="st1" d="M248.7 574.1c0-8.4-.1-16.8-.1-25.3-6.3 3.6-12.5 7.2-18.8 10.8 0 8.4 0 16.9-.1 25.3 6.3-3.5 12.6-7.2 19-10.8"/><path class="st3" d="M248.7 574.1c0-8.4-.1-16.8-.1-25.3-6.3 3.6-12.5 7.2-18.8 10.8 0 8.4 0 16.9-.1 25.3 6.3-3.5 12.6-7.2 19-10.8z"/><path class="st1" d="M248.5 548.9l-3.5-2c-6.3 3.6-12.5 7.2-18.8 10.8l3.5 2c6.3-3.6 12.6-7.2 18.8-10.8"/><path class="st3" d="M248.5 548.9l-3.5-2c-6.3 3.6-12.5 7.2-18.8 10.8l3.5 2c6.3-3.6 12.6-7.2 18.8-10.8z"/><path class="st1" d="M226.3 557.7v25.4c1.1.7 2.3 1.3 3.4 2 0-8.4 0-16.9.1-25.3l-3.5-2.1z"/><path class="st3" d="M226.3 557.7v25.4c1.1.7 2.3 1.3 3.4 2 0-8.4 0-16.9.1-25.3l-3.5-2.1z"/><path class="st1" d="M236 581.4c0-8.4-.1-16.8-.1-25.3-6.3 3.6-12.5 7.2-18.8 10.8 0 8.4 0 16.9-.1 25.3 6.4-3.6 12.7-7.2 19-10.8"/><path class="st3" d="M236 581.4c0-8.4-.1-16.8-.1-25.3-6.3 3.6-12.5 7.2-18.8 10.8 0 8.4 0 16.9-.1 25.3 6.4-3.6 12.7-7.2 19-10.8z"/><path class="st1" d="M235.9 556.1c-1.2-.7-2.3-1.4-3.5-2-6.3 3.6-12.5 7.2-18.8 10.8 1.2.7 2.3 1.4 3.5 2 6.3-3.5 12.6-7.1 18.8-10.8"/><path class="st3" d="M235.9 556.1c-1.2-.7-2.3-1.4-3.5-2-6.3 3.6-12.5 7.2-18.8 10.8 1.2.7 2.3 1.4 3.5 2 6.3-3.5 12.6-7.1 18.8-10.8z"/><path class="st1" d="M213.6 564.9v25.4c1.1.7 2.3 1.3 3.4 2 0-8.4 0-16.9.1-25.3-1.1-.7-2.3-1.4-3.5-2.1"/><path class="st3" d="M213.6 564.9v25.4c1.1.7 2.3 1.3 3.4 2 0-8.4 0-16.9.1-25.3-1.1-.7-2.3-1.4-3.5-2.1z"/><path class="st1" d="M227.8 556.9v25.4c1.1.7 2.3 1.3 3.4 2 0-8.4 0-16.9.1-25.3-1.1-.8-2.3-1.5-3.5-2.1"/><path class="st3" d="M227.8 556.9v25.4c1.1.7 2.3 1.3 3.4 2 0-8.4 0-16.9.1-25.3-1.1-.8-2.3-1.5-3.5-2.1z"/><path class="st1" d="M209.7 567.3v25.4c1.1.7 2.3 1.3 3.4 2 0-8.4 0-16.9.1-25.3-1.1-.7-2.3-1.4-3.5-2.1"/><path class="st3" d="M209.7 567.3v25.4c1.1.7 2.3 1.3 3.4 2 0-8.4 0-16.9.1-25.3-1.1-.7-2.3-1.4-3.5-2.1z"/><path class="st1" d="M192.3 577.4v25.4c1.1.7 2.3 1.3 3.4 2 0-8.4 0-16.9.1-25.3-1.1-.8-2.3-1.5-3.5-2.1"/><path class="st3" d="M192.3 577.4v25.4c1.1.7 2.3 1.3 3.4 2 0-8.4 0-16.9.1-25.3-1.1-.8-2.3-1.5-3.5-2.1z"/><path class="st1" d="M184.6 586c3.7-2.2 7.5-4.3 11.2-6.5v-.2c5.8-3.3 11.6-6.7 17.4-10 6-3.5 12.1-7 18.1-10.4 5.3-3.1 10.6-6.1 15.9-9.2v-.1c6-3.5 12.1-7 18.1-10.5 6.3-3.6 12.5-7.2 18.8-10.8 0 8.4.1 16.8.1 25.3-6 3.5-12.1 6.9-18.1 10.4v.1c-5.3 3-10.6 6.1-15.9 9.1v.2c-6 3.5-12.1 6.9-18.1 10.4v.1c-5.8 3.3-11.6 6.6-17.4 10v.1c-3.7 2.1-7.5 4.3-11.2 6.4v.3l-16 9.2c-1-.6-2-1.2-2.9-1.7V586"/><path class="st3" d="M184.6 586c3.7-2.2 7.5-4.3 11.2-6.5v-.2c5.8-3.3 11.6-6.7 17.4-10 6-3.5 12.1-7 18.1-10.4 5.3-3.1 10.6-6.1 15.9-9.2v-.1c6-3.5 12.1-7 18.1-10.5 6.3-3.6 12.5-7.2 18.8-10.8 0 8.4.1 16.8.1 25.3-6 3.5-12.1 6.9-18.1 10.4v.1c-5.3 3-10.6 6.1-15.9 9.1v.2c-6 3.5-12.1 6.9-18.1 10.4v.1c-5.8 3.3-11.6 6.6-17.4 10v.1c-3.7 2.1-7.5 4.3-11.2 6.4v.3l-16 9.2c-1-.6-2-1.2-2.9-1.7V586z"/><path class="st1" d="M192.5 577.5c-.1 0-.1-.1-.2-.1 5.8-3.3 11.6-6.7 17.4-10 6-3.5 12.1-7 18.1-10.4 5.3-3.1 10.6-6.1 15.9-9.2h-.1c6-3.5 12.1-7 18.1-10.4 6.3-3.6 12.5-7.2 18.8-10.8 1.2.7 2.3 1.4 3.5 2-6 3.5-12.1 7-18.1 10.4-5.3 3.1-10.6 6.1-15.9 9.2h.1c-6 3.5-12.1 7-18.1 10.4l-17.4 10-11.4 6.6c.1 0 .1.1.2.1l-20.7 11.9c0-.8 0-1.6-.1-2.3-.5-.3-1-.6-1.5-.8 3.9-2.3 7.6-4.5 11.4-6.6"/><path class="st3" d="M192.5 577.5c-.1 0-.1-.1-.2-.1 5.8-3.3 11.6-6.7 17.4-10 6-3.5 12.1-7 18.1-10.4 5.3-3.1 10.6-6.1 15.9-9.2h-.1c6-3.5 12.1-7 18.1-10.4 6.3-3.6 12.5-7.2 18.8-10.8 1.2.7 2.3 1.4 3.5 2-6 3.5-12.1 7-18.1 10.4-5.3 3.1-10.6 6.1-15.9 9.2h.1c-6 3.5-12.1 7-18.1 10.4l-17.4 10-11.4 6.6c.1 0 .1.1.2.1l-20.7 11.9c0-.8 0-1.6-.1-2.3-.5-.3-1-.6-1.5-.8 3.9-2.3 7.6-4.5 11.4-6.6z"/><path class="st1" d="M535.9 356.4v4.7c-1 .6-2 1.1-2.9 1.7v-4.7c1-.6 1.9-1.1 2.9-1.7"/><path class="st3" d="M535.9 356.4v4.7c-1 .6-2 1.1-2.9 1.7v-4.7c1-.6 1.9-1.1 2.9-1.7z"/><path class="st1" d="M533 358.1c-1-.6-2-1.1-2.9-1.7v4.7c1 .6 2 1.1 2.9 1.7v-4.7z"/><path class="st3" d="M533 358.1c-1-.6-2-1.1-2.9-1.7v4.7c1 .6 2 1.1 2.9 1.7v-4.7z"/><path class="st1" d="M535.9 356.4c-1 .6-2 1.1-2.9 1.7-1-.6-2-1.1-2.9-1.7 1-.6 2-1.1 2.9-1.7 1 .6 1.9 1.2 2.9 1.7"/><path class="st3" d="M535.9 356.4c-1 .6-2 1.1-2.9 1.7-1-.6-2-1.1-2.9-1.7 1-.6 2-1.1 2.9-1.7 1 .6 1.9 1.2 2.9 1.7z"/><path class="st1" d="M535 353.3v3.2c-.7.4-1.3.8-2 1.1v-3.2c.6-.4 1.3-.8 2-1.1"/><path class="st3" d="M535 353.3v3.2c-.7.4-1.3.8-2 1.1v-3.2c.6-.4 1.3-.8 2-1.1z"/><path class="st1" d="M533 354.4c-.7-.4-1.3-.8-2-1.1v3.2c.7.4 1.3.8 2 1.1v-3.2z"/><path class="st3" d="M533 354.4c-.7-.4-1.3-.8-2-1.1v3.2c.7.4 1.3.8 2 1.1v-3.2z"/><path class="st1" d="M535 353.3c-.7.4-1.3.8-2 1.2-.7-.4-1.3-.8-2-1.2.7-.4 1.3-.8 2-1.1.6.3 1.3.7 2 1.1"/><path class="st3" d="M535 353.3c-.7.4-1.3.8-2 1.2-.7-.4-1.3-.8-2-1.2.7-.4 1.3-.8 2-1.1.6.3 1.3.7 2 1.1z"/><path class="st1" d="M535 350.3v3.2c-.7.4-1.3.8-2 1.2v-3.2c.6-.4 1.3-.8 2-1.2"/><path class="st3" d="M535 350.3v3.2c-.7.4-1.3.8-2 1.2v-3.2c.6-.4 1.3-.8 2-1.2z"/><path class="st1" d="M533 351.5c-.7-.4-1.3-.8-2-1.1v3.2c.7.4 1.3.8 2 1.2v-3.3z"/><path class="st3" d="M533 351.5c-.7-.4-1.3-.8-2-1.1v3.2c.7.4 1.3.8 2 1.2v-3.3z"/><path class="st1" d="M535 350.3c-.7.4-1.3.8-2 1.1-.7-.4-1.3-.8-2-1.1.7-.4 1.3-.8 2-1.1.6.4 1.3.7 2 1.1"/><path class="st3" d="M535 350.3c-.7.4-1.3.8-2 1.1-.7-.4-1.3-.8-2-1.1.7-.4 1.3-.8 2-1.1.6.4 1.3.7 2 1.1z"/><path class="st1" d="M535 347.4v3.2c-.7.4-1.3.8-2 1.1v-3.2c.6-.3 1.3-.7 2-1.1"/><path class="st3" d="M535 347.4v3.2c-.7.4-1.3.8-2 1.1v-3.2c.6-.3 1.3-.7 2-1.1z"/><path class="st1" d="M533 348.6c-.7-.4-1.3-.8-2-1.1v3.2c.7.4 1.3.8 2 1.1v-3.2z"/><path class="st3" d="M533 348.6c-.7-.4-1.3-.8-2-1.1v3.2c.7.4 1.3.8 2 1.1v-3.2z"/><path class="st1" d="M535 347.4c-.7.4-1.3.8-2 1.2-.7-.4-1.3-.8-2-1.1.7-.4 1.3-.8 2-1.2.6.3 1.3.7 2 1.1"/><path class="st3" d="M535 347.4c-.7.4-1.3.8-2 1.2-.7-.4-1.3-.8-2-1.1.7-.4 1.3-.8 2-1.2.6.3 1.3.7 2 1.1z"/><path class="st1" d="M535 344.5v3.2c-.7.4-1.3.8-2 1.1v-3.2c.6-.3 1.3-.7 2-1.1"/><path class="st3" d="M535 344.5v3.2c-.7.4-1.3.8-2 1.1v-3.2c.6-.3 1.3-.7 2-1.1z"/><path class="st1" d="M533 345.6c-.7-.4-1.3-.8-2-1.1v3.2c.7.4 1.3.8 2 1.1v-3.2z"/><path class="st3" d="M533 345.6c-.7-.4-1.3-.8-2-1.1v3.2c.7.4 1.3.8 2 1.1v-3.2z"/><path class="st1" d="M535 344.5c-.7.4-1.3.8-2 1.1-.7-.4-1.3-.8-2-1.1.7-.4 1.3-.8 2-1.1.6.3 1.3.7 2 1.1"/><path class="st3" d="M535 344.5c-.7.4-1.3.8-2 1.1-.7-.4-1.3-.8-2-1.1.7-.4 1.3-.8 2-1.1.6.3 1.3.7 2 1.1z"/><path class="st1" d="M535 341.6v3.2c-.7.4-1.3.8-2 1.2v-3.2c.6-.5 1.3-.8 2-1.2"/><path class="st3" d="M535 341.6v3.2c-.7.4-1.3.8-2 1.2v-3.2c.6-.5 1.3-.8 2-1.2z"/><path class="st1" d="M533 342.7c-.7-.4-1.3-.8-2-1.1v3.2c.7.4 1.3.8 2 1.2v-3.3z"/><path class="st3" d="M533 342.7c-.7-.4-1.3-.8-2-1.1v3.2c.7.4 1.3.8 2 1.2v-3.3z"/><path class="st1" d="M535 341.6c-.7.4-1.3.8-2 1.1-.7-.4-1.3-.8-2-1.1.7-.4 1.3-.8 2-1.1.6.3 1.3.7 2 1.1"/><path class="st3" d="M535 341.6c-.7.4-1.3.8-2 1.1-.7-.4-1.3-.8-2-1.1.7-.4 1.3-.8 2-1.1.6.3 1.3.7 2 1.1z"/><path class="st1" d="M535 338.7v3.2c-.7.4-1.3.8-2 1.1v-3.2c.6-.4 1.3-.8 2-1.1"/><path class="st3" d="M535 338.7v3.2c-.7.4-1.3.8-2 1.1v-3.2c.6-.4 1.3-.8 2-1.1z"/><path class="st1" d="M533 339.8c-.7-.4-1.3-.8-2-1.1v3.2c.7.4 1.3.8 2 1.1v-3.2z"/><path class="st3" d="M533 339.8c-.7-.4-1.3-.8-2-1.1v3.2c.7.4 1.3.8 2 1.1v-3.2z"/><path class="st1" d="M535 338.7c-.7.4-1.3.8-2 1.2-.7-.4-1.3-.8-2-1.2.7-.4 1.3-.8 2-1.1.6.3 1.3.7 2 1.1"/><path class="st3" d="M535 338.7c-.7.4-1.3.8-2 1.2-.7-.4-1.3-.8-2-1.2.7-.4 1.3-.8 2-1.1.6.3 1.3.7 2 1.1z"/><path class="st1" d="M617.1 347v4.7c-1 .6-2 1.1-2.9 1.7v-4.6c1-.7 2-1.3 2.9-1.8"/><path class="st3" d="M617.1 347v4.7c-1 .6-2 1.1-2.9 1.7v-4.6c1-.7 2-1.3 2.9-1.8z"/><path class="st1" d="M614.2 348.7c-1-.6-2-1.1-2.9-1.7v4.7c1 .6 2 1.1 2.9 1.7v-4.7z"/><path class="st3" d="M614.2 348.7c-1-.6-2-1.1-2.9-1.7v4.7c1 .6 2 1.1 2.9 1.7v-4.7z"/><path class="st1" d="M617.1 347c-1 .6-2 1.1-2.9 1.7-1-.6-2-1.1-2.9-1.7 1-.6 2-1.1 2.9-1.7 1 .5 2 1.1 2.9 1.7"/><path class="st3" d="M617.1 347c-1 .6-2 1.1-2.9 1.7-1-.6-2-1.1-2.9-1.7 1-.6 2-1.1 2.9-1.7 1 .5 2 1.1 2.9 1.7z"/><path class="st1" d="M616.2 343.8v3.2c-.7.4-1.3.8-2 1.1v-3.2c.7-.3 1.3-.7 2-1.1"/><path class="st3" d="M616.2 343.8v3.2c-.7.4-1.3.8-2 1.1v-3.2c.7-.3 1.3-.7 2-1.1z"/><path class="st1" d="M614.2 344.9c-.7-.4-1.3-.8-2-1.1v3.2c.7.4 1.3.8 2 1.1v-3.2z"/><path class="st3" d="M614.2 344.9c-.7-.4-1.3-.8-2-1.1v3.2c.7.4 1.3.8 2 1.1v-3.2z"/><path class="st1" d="M616.2 343.8c-.7.4-1.3.8-2 1.1-.7-.4-1.3-.8-2-1.1.7-.4 1.3-.8 2-1.1.7.3 1.3.7 2 1.1"/><path class="st3" d="M616.2 343.8c-.7.4-1.3.8-2 1.1-.7-.4-1.3-.8-2-1.1.7-.4 1.3-.8 2-1.1.7.3 1.3.7 2 1.1z"/><path class="st1" d="M616.2 340.9v3.2c-.7.4-1.3.8-2 1.2V342c.7-.3 1.3-.7 2-1.1"/><path class="st3" d="M616.2 340.9v3.2c-.7.4-1.3.8-2 1.2V342c.7-.3 1.3-.7 2-1.1z"/><path class="st1" d="M614.2 342c-.7-.4-1.3-.8-2-1.1v3.2c.7.4 1.3.8 2 1.2V342z"/><path class="st3" d="M614.2 342c-.7-.4-1.3-.8-2-1.1v3.2c.7.4 1.3.8 2 1.2V342z"/><path class="st1" d="M616.2 340.9c-.7.4-1.3.8-2 1.1-.7-.4-1.3-.8-2-1.1.7-.4 1.3-.8 2-1.1.7.3 1.3.7 2 1.1"/><path class="st3" d="M616.2 340.9c-.7.4-1.3.8-2 1.1-.7-.4-1.3-.8-2-1.1.7-.4 1.3-.8 2-1.1.7.3 1.3.7 2 1.1z"/><path class="st1" d="M616.2 338v3.2c-.7.4-1.3.8-2 1.1v-3.2c.7-.4 1.3-.8 2-1.1"/><path class="st3" d="M616.2 338v3.2c-.7.4-1.3.8-2 1.1v-3.2c.7-.4 1.3-.8 2-1.1z"/><path class="st1" d="M614.2 339.1c-.7-.4-1.3-.8-2-1.1v3.2c.7.4 1.3.8 2 1.1v-3.2z"/><path class="st3" d="M614.2 339.1c-.7-.4-1.3-.8-2-1.1v3.2c.7.4 1.3.8 2 1.1v-3.2z"/><path class="st1" d="M616.2 338c-.7.4-1.3.8-2 1.2-.7-.4-1.3-.8-2-1.2.7-.4 1.3-.8 2-1.1.7.3 1.3.7 2 1.1"/><path class="st3" d="M616.2 338c-.7.4-1.3.8-2 1.2-.7-.4-1.3-.8-2-1.2.7-.4 1.3-.8 2-1.1.7.3 1.3.7 2 1.1z"/><path class="st1" d="M616.2 335v3.2c-.7.4-1.3.8-2 1.1v-3.2c.7-.3 1.3-.7 2-1.1"/><path class="st3" d="M616.2 335v3.2c-.7.4-1.3.8-2 1.1v-3.2c.7-.3 1.3-.7 2-1.1z"/><path class="st1" d="M614.2 336.2c-.7-.4-1.3-.8-2-1.1v3.2c.7.4 1.3.8 2 1.1v-3.2z"/><path class="st3" d="M614.2 336.2c-.7-.4-1.3-.8-2-1.1v3.2c.7.4 1.3.8 2 1.1v-3.2z"/><path class="st1" d="M616.2 335c-.7.4-1.3.8-2 1.1-.7-.4-1.3-.8-2-1.1.7-.4 1.3-.8 2-1.1.7.4 1.3.8 2 1.1"/><path class="st3" d="M616.2 335c-.7.4-1.3.8-2 1.1-.7-.4-1.3-.8-2-1.1.7-.4 1.3-.8 2-1.1.7.4 1.3.8 2 1.1z"/><path class="st1" d="M616.2 332.1v3.2c-.7.4-1.3.8-2 1.1v-3.2c.7-.3 1.3-.7 2-1.1"/><path class="st3" d="M616.2 332.1v3.2c-.7.4-1.3.8-2 1.1v-3.2c.7-.3 1.3-.7 2-1.1z"/><path class="st1" d="M614.2 333.3c-.7-.4-1.3-.8-2-1.1v3.2c.7.4 1.3.8 2 1.2v-3.3z"/><path class="st3" d="M614.2 333.3c-.7-.4-1.3-.8-2-1.1v3.2c.7.4 1.3.8 2 1.2v-3.3z"/><path class="st1" d="M616.2 332.1c-.7.4-1.3.8-2 1.2-.7-.4-1.3-.8-2-1.1.7-.4 1.3-.8 2-1.2.7.4 1.3.7 2 1.1"/><path class="st3" d="M616.2 332.1c-.7.4-1.3.8-2 1.2-.7-.4-1.3-.8-2-1.1.7-.4 1.3-.8 2-1.2.7.4 1.3.7 2 1.1z"/><path class="st1" d="M616.2 329.2v3.2c-.7.4-1.3.8-2 1.1v-3.2c.7-.3 1.3-.7 2-1.1"/><path class="st3" d="M616.2 329.2v3.2c-.7.4-1.3.8-2 1.1v-3.2c.7-.3 1.3-.7 2-1.1z"/><path class="st1" d="M614.2 330.4c-.7-.4-1.3-.8-2-1.1v3.2c.7.4 1.3.8 2 1.1v-3.2z"/><path class="st3" d="M614.2 330.4c-.7-.4-1.3-.8-2-1.1v3.2c.7.4 1.3.8 2 1.1v-3.2z"/><path class="st1" d="M616.2 329.2c-.7.4-1.3.8-2 1.1-.7-.4-1.3-.8-2-1.1.7-.4 1.3-.8 2-1.1.7.3 1.3.7 2 1.1"/><path class="st3" d="M616.2 329.2c-.7.4-1.3.8-2 1.1-.7-.4-1.3-.8-2-1.1.7-.4 1.3-.8 2-1.1.7.3 1.3.7 2 1.1z"/><path class="st1" d="M568 375.3v4.7c-1 .6-2 1.1-2.9 1.7V377c.9-.5 1.9-1.1 2.9-1.7"/><path class="st3" d="M568 375.3v4.7c-1 .6-2 1.1-2.9 1.7V377c.9-.5 1.9-1.1 2.9-1.7z"/><path class="st1" d="M565.1 377c-1-.6-2-1.1-2.9-1.7v4.7c1 .6 2 1.1 2.9 1.7V377z"/><path class="st3" d="M565.1 377c-1-.6-2-1.1-2.9-1.7v4.7c1 .6 2 1.1 2.9 1.7V377z"/><path class="st1" d="M568 375.3c-1 .6-2 1.1-2.9 1.7-1-.6-2-1.1-2.9-1.7 1-.6 2-1.1 2.9-1.7.9.6 1.9 1.2 2.9 1.7"/><path class="st3" d="M568 375.3c-1 .6-2 1.1-2.9 1.7-1-.6-2-1.1-2.9-1.7 1-.6 2-1.1 2.9-1.7.9.6 1.9 1.2 2.9 1.7z"/><path class="st1" d="M567 372.2v3.2c-.7.4-1.3.8-2 1.1v-3.2c.7-.4 1.4-.7 2-1.1"/><path class="st3" d="M567 372.2v3.2c-.7.4-1.3.8-2 1.1v-3.2c.7-.4 1.4-.7 2-1.1z"/><path class="st1" d="M565.1 373.3c-.7-.4-1.3-.8-2-1.1v3.2c.7.4 1.3.8 2 1.1v-3.2z"/><path class="st3" d="M565.1 373.3c-.7-.4-1.3-.8-2-1.1v3.2c.7.4 1.3.8 2 1.1v-3.2z"/><path class="st1" d="M567 372.2c-.7.4-1.3.8-2 1.1-.7-.4-1.3-.8-2-1.1.7-.4 1.3-.8 2-1.1.7.3 1.4.7 2 1.1"/><path class="st3" d="M567 372.2c-.7.4-1.3.8-2 1.1-.7-.4-1.3-.8-2-1.1.7-.4 1.3-.8 2-1.1.7.3 1.4.7 2 1.1z"/><path class="st1" d="M567 369.3v3.2c-.7.4-1.3.8-2 1.2v-3.2c.7-.5 1.4-.9 2-1.2"/><path class="st3" d="M567 369.3v3.2c-.7.4-1.3.8-2 1.2v-3.2c.7-.5 1.4-.9 2-1.2z"/><path class="st1" d="M565.1 370.4c-.7-.4-1.3-.8-2-1.1v3.2c.7.4 1.3.8 2 1.2v-3.3z"/><path class="st3" d="M565.1 370.4c-.7-.4-1.3-.8-2-1.1v3.2c.7.4 1.3.8 2 1.2v-3.3z"/><path class="st1" d="M567 369.3c-.7.4-1.3.8-2 1.1-.7-.4-1.3-.8-2-1.1.7-.4 1.3-.8 2-1.1.7.3 1.4.7 2 1.1"/><path class="st3" d="M567 369.3c-.7.4-1.3.8-2 1.1-.7-.4-1.3-.8-2-1.1.7-.4 1.3-.8 2-1.1.7.3 1.4.7 2 1.1z"/><path class="st1" d="M567 366.3v3.2c-.7.4-1.3.8-2 1.1v-3.2c.7-.3 1.4-.7 2-1.1"/><path class="st3" d="M567 366.3v3.2c-.7.4-1.3.8-2 1.1v-3.2c.7-.3 1.4-.7 2-1.1z"/><path class="st1" d="M565.1 367.5c-.7-.4-1.3-.8-2-1.1v3.2c.7.4 1.3.8 2 1.1v-3.2z"/><path class="st3" d="M565.1 367.5c-.7-.4-1.3-.8-2-1.1v3.2c.7.4 1.3.8 2 1.1v-3.2z"/><path class="st1" d="M567 366.3c-.7.4-1.3.8-2 1.2-.7-.4-1.3-.8-2-1.2.7-.4 1.3-.8 2-1.1.7.4 1.4.8 2 1.1"/><path class="st3" d="M567 366.3c-.7.4-1.3.8-2 1.2-.7-.4-1.3-.8-2-1.2.7-.4 1.3-.8 2-1.1.7.4 1.4.8 2 1.1z"/><path class="st1" d="M567 363.4v3.2c-.7.4-1.3.8-2 1.1v-3.2c.7-.3 1.4-.7 2-1.1"/><path class="st3" d="M567 363.4v3.2c-.7.4-1.3.8-2 1.1v-3.2c.7-.3 1.4-.7 2-1.1z"/><path class="st1" d="M565.1 364.6c-.7-.4-1.3-.8-2-1.1v3.2c.7.4 1.3.8 2 1.1v-3.2z"/><path class="st3" d="M565.1 364.6c-.7-.4-1.3-.8-2-1.1v3.2c.7.4 1.3.8 2 1.1v-3.2z"/><path class="st1" d="M567 363.4c-.7.4-1.3.8-2 1.1-.7-.4-1.3-.8-2-1.1.7-.4 1.3-.8 2-1.1.7.4 1.4.7 2 1.1"/><path class="st3" d="M567 363.4c-.7.4-1.3.8-2 1.1-.7-.4-1.3-.8-2-1.1.7-.4 1.3-.8 2-1.1.7.4 1.4.7 2 1.1z"/><path class="st1" d="M567 360.5v3.2c-.7.4-1.3.8-2 1.2v-3.2c.7-.4 1.4-.8 2-1.2"/><path class="st3" d="M567 360.5v3.2c-.7.4-1.3.8-2 1.2v-3.2c.7-.4 1.4-.8 2-1.2z"/><path class="st1" d="M565.1 361.7c-.7-.4-1.3-.8-2-1.1v3.2c.7.4 1.3.8 2 1.2v-3.3z"/><path class="st3" d="M565.1 361.7c-.7-.4-1.3-.8-2-1.1v3.2c.7.4 1.3.8 2 1.2v-3.3z"/><path class="st1" d="M567 360.5c-.7.4-1.3.8-2 1.1-.7-.4-1.3-.8-2-1.1.7-.4 1.3-.8 2-1.1.7.3 1.4.7 2 1.1"/><path class="st3" d="M567 360.5c-.7.4-1.3.8-2 1.1-.7-.4-1.3-.8-2-1.1.7-.4 1.3-.8 2-1.1.7.3 1.4.7 2 1.1z"/><path class="st1" d="M567 357.6v3.2c-.7.4-1.3.8-2 1.1v-3.2c.7-.3 1.4-.7 2-1.1"/><path class="st3" d="M567 357.6v3.2c-.7.4-1.3.8-2 1.1v-3.2c.7-.3 1.4-.7 2-1.1z"/><path class="st1" d="M565.1 358.7c-.7-.4-1.3-.8-2-1.1v3.2c.7.4 1.3.8 2 1.1v-3.2z"/><path class="st3" d="M565.1 358.7c-.7-.4-1.3-.8-2-1.1v3.2c.7.4 1.3.8 2 1.1v-3.2z"/><path class="st1" d="M567 357.6c-.7.4-1.3.8-2 1.2-.7-.4-1.3-.8-2-1.2.7-.4 1.3-.8 2-1.1.7.3 1.4.7 2 1.1"/><path class="st3" d="M567 357.6c-.7.4-1.3.8-2 1.2-.7-.4-1.3-.8-2-1.2.7-.4 1.3-.8 2-1.1.7.3 1.4.7 2 1.1z"/><path class="st1" d="M585 328.4v4.7c-1 .6-2 1.1-2.9 1.7v-4.7c1-.5 2-1.1 2.9-1.7"/><path class="st3" d="M585 328.4v4.7c-1 .6-2 1.1-2.9 1.7v-4.7c1-.5 2-1.1 2.9-1.7z"/><path class="st1" d="M582.1 330.1c-1-.6-2-1.1-2.9-1.7v4.7c1 .6 2 1.1 2.9 1.7v-4.7z"/><path class="st3" d="M582.1 330.1c-1-.6-2-1.1-2.9-1.7v4.7c1 .6 2 1.1 2.9 1.7v-4.7z"/><path class="st1" d="M585 328.4c-1 .6-2 1.1-2.9 1.7-1-.6-2-1.1-2.9-1.7 1-.6 2-1.1 2.9-1.7 1 .6 2 1.2 2.9 1.7"/><path class="st3" d="M585 328.4c-1 .6-2 1.1-2.9 1.7-1-.6-2-1.1-2.9-1.7 1-.6 2-1.1 2.9-1.7 1 .6 2 1.2 2.9 1.7z"/><path class="st1" d="M584.1 325.3v3.2c-.7.4-1.3.8-2 1.1v-3.2c.7-.4 1.3-.7 2-1.1"/><path class="st3" d="M584.1 325.3v3.2c-.7.4-1.3.8-2 1.1v-3.2c.7-.4 1.3-.7 2-1.1z"/><path class="st1" d="M582.1 326.4c-.7-.4-1.3-.8-2-1.1v3.2c.7.4 1.3.8 2 1.1v-3.2z"/><path class="st3" d="M582.1 326.4c-.7-.4-1.3-.8-2-1.1v3.2c.7.4 1.3.8 2 1.1v-3.2z"/><path class="st1" d="M584.1 325.3c-.7.4-1.3.8-2 1.2-.7-.4-1.3-.8-2-1.2.7-.4 1.3-.8 2-1.1.7.3 1.3.7 2 1.1"/><path class="st3" d="M584.1 325.3c-.7.4-1.3.8-2 1.2-.7-.4-1.3-.8-2-1.2.7-.4 1.3-.8 2-1.1.7.3 1.3.7 2 1.1z"/><path class="st1" d="M584.1 322.4v3.2c-.7.4-1.3.8-2 1.2v-3.2c.7-.5 1.3-.9 2-1.2"/><path class="st3" d="M584.1 322.4v3.2c-.7.4-1.3.8-2 1.2v-3.2c.7-.5 1.3-.9 2-1.2z"/><path class="st1" d="M582.1 323.5c-.7-.4-1.3-.8-2-1.1v3.2c.7.4 1.3.8 2 1.2v-3.3z"/><path class="st3" d="M582.1 323.5c-.7-.4-1.3-.8-2-1.1v3.2c.7.4 1.3.8 2 1.2v-3.3z"/><path class="st1" d="M584.1 322.4c-.7.4-1.3.8-2 1.1-.7-.4-1.3-.8-2-1.1.7-.4 1.3-.8 2-1.1.7.3 1.3.7 2 1.1"/><path class="st3" d="M584.1 322.4c-.7.4-1.3.8-2 1.1-.7-.4-1.3-.8-2-1.1.7-.4 1.3-.8 2-1.1.7.3 1.3.7 2 1.1z"/><path class="st1" d="M584.1 319.4v3.2c-.7.4-1.3.8-2 1.1v-3.2c.7-.3 1.3-.7 2-1.1"/><path class="st3" d="M584.1 319.4v3.2c-.7.4-1.3.8-2 1.1v-3.2c.7-.3 1.3-.7 2-1.1z"/><path class="st1" d="M582.1 320.6c-.7-.4-1.3-.8-2-1.1v3.2c.7.4 1.3.8 2 1.2v-3.3z"/><path class="st3" d="M582.1 320.6c-.7-.4-1.3-.8-2-1.1v3.2c.7.4 1.3.8 2 1.2v-3.3z"/><path class="st1" d="M584.1 319.4c-.7.4-1.3.8-2 1.2-.7-.4-1.3-.8-2-1.2.7-.4 1.3-.8 2-1.1.7.4 1.3.8 2 1.1"/><path class="st3" d="M584.1 319.4c-.7.4-1.3.8-2 1.2-.7-.4-1.3-.8-2-1.2.7-.4 1.3-.8 2-1.1.7.4 1.3.8 2 1.1z"/><path class="st1" d="M584.1 316.5v3.2c-.7.4-1.3.8-2 1.1v-3.2c.7-.3 1.3-.7 2-1.1"/><path class="st3" d="M584.1 316.5v3.2c-.7.4-1.3.8-2 1.1v-3.2c.7-.3 1.3-.7 2-1.1z"/><path class="st1" d="M582.1 317.7c-.7-.4-1.3-.8-2-1.1v3.2c.7.4 1.3.8 2 1.1v-3.2z"/><path class="st3" d="M582.1 317.7c-.7-.4-1.3-.8-2-1.1v3.2c.7.4 1.3.8 2 1.1v-3.2z"/><path class="st1" d="M584.1 316.5c-.7.4-1.3.8-2 1.1-.7-.4-1.3-.8-2-1.1.7-.4 1.3-.8 2-1.1.7.4 1.3.7 2 1.1"/><path class="st3" d="M584.1 316.5c-.7.4-1.3.8-2 1.1-.7-.4-1.3-.8-2-1.1.7-.4 1.3-.8 2-1.1.7.4 1.3.7 2 1.1z"/><path class="st1" d="M584.1 313.6v3.2c-.7.4-1.3.8-2 1.2v-3.2c.7-.4 1.3-.8 2-1.2"/><path class="st3" d="M584.1 313.6v3.2c-.7.4-1.3.8-2 1.2v-3.2c.7-.4 1.3-.8 2-1.2z"/><path class="st1" d="M582.1 314.8c-.7-.4-1.3-.8-2-1.1v3.2c.7.4 1.3.8 2 1.2v-3.3z"/><path class="st3" d="M582.1 314.8c-.7-.4-1.3-.8-2-1.1v3.2c.7.4 1.3.8 2 1.2v-3.3z"/><path class="st1" d="M584.1 313.6c-.7.4-1.3.8-2 1.1-.7-.4-1.3-.8-2-1.1.7-.4 1.3-.8 2-1.1.7.3 1.3.7 2 1.1"/><path class="st3" d="M584.1 313.6c-.7.4-1.3.8-2 1.1-.7-.4-1.3-.8-2-1.1.7-.4 1.3-.8 2-1.1.7.3 1.3.7 2 1.1z"/><path class="st1" d="M584.1 310.7v3.2c-.7.4-1.3.8-2 1.1v-3.2c.7-.3 1.3-.7 2-1.1"/><path class="st3" d="M584.1 310.7v3.2c-.7.4-1.3.8-2 1.1v-3.2c.7-.3 1.3-.7 2-1.1z"/><path class="st1" d="M582.1 311.8c-.7-.4-1.3-.8-2-1.1v3.2c.7.4 1.3.8 2 1.1v-3.2z"/><path class="st3" d="M582.1 311.8c-.7-.4-1.3-.8-2-1.1v3.2c.7.4 1.3.8 2 1.1v-3.2z"/><path class="st1" d="M584.1 310.7c-.7.4-1.3.8-2 1.2-.7-.4-1.3-.8-2-1.2.7-.4 1.3-.8 2-1.1.7.3 1.3.7 2 1.1"/><path class="st3" d="M584.1 310.7c-.7.4-1.3.8-2 1.2-.7-.4-1.3-.8-2-1.2.7-.4 1.3-.8 2-1.1.7.3 1.3.7 2 1.1z"/><path class="st1" d="M625.1 328.1c-20.9 12.1-41.9 24.2-62.8 36.3-13.7-7.9-27.3-15.8-41-23.6 20.9-12.1 41.9-24.2 62.8-36.3 13.7 7.8 27.4 15.7 41 23.6"/><path class="st3" d="M625.1 328.1c-20.9 12.1-41.9 24.2-62.8 36.3-13.7-7.9-27.3-15.8-41-23.6 20.9-12.1 41.9-24.2 62.8-36.3 13.7 7.8 27.4 15.7 41 23.6z"/><path class="st1" d="M625.1 328.1v3.2c-20.9 12.1-41.9 24.2-62.8 36.3v-3.2c21-12.2 41.9-24.2 62.8-36.3"/><path class="st3" d="M625.1 328.1v3.2c-20.9 12.1-41.9 24.2-62.8 36.3v-3.2c21-12.2 41.9-24.2 62.8-36.3z"/><path class="st1" d="M562.3 367.5c-13.7-7.9-27.3-15.8-41-23.6v-3.2c13.7 7.9 27.3 15.8 41 23.6v3.2z"/><path class="st3" d="M562.3 367.5c-13.7-7.9-27.3-15.8-41-23.6v-3.2c13.7 7.9 27.3 15.8 41 23.6v3.2z"/><path class="st1" d="M228.9 460.2v52.5c-13.4 7.7-26.7 15.4-40.1 23.1v-52.5c13.4-7.7 26.8-15.4 40.1-23.1"/><path class="st3" d="M228.9 460.2v52.5c-13.4 7.7-26.7 15.4-40.1 23.1v-52.5c13.4-7.7 26.8-15.4 40.1-23.1z"/><path class="st1" d="M188.8 535.8L154 515.7v-52.5l34.8 20.1v52.5z"/><path class="st3" d="M188.8 535.8L154 515.7v-52.5l34.8 20.1v52.5z"/><path class="st1" d="M226.3 514.2v6.2c-12.5 7.2-25 14.4-37.4 21.6v-6.2c12.4-7.2 24.9-14.4 37.4-21.6"/><path class="st3" d="M226.3 514.2v6.2c-12.5 7.2-25 14.4-37.4 21.6v-6.2c12.4-7.2 24.9-14.4 37.4-21.6z"/><path class="st1" d="M188.8 542l-32.1-18.5v-6.2c10.7 6.2 21.4 12.3 32.1 18.5v6.2"/><path class="st3" d="M188.8 542l-32.1-18.5v-6.2c10.7 6.2 21.4 12.3 32.1 18.5v6.2z"/><path class="st1" d="M188.8 483.9l41.1-23.7-35.8-20.6-41.1 23.7 35.8 20.6zm39.1-23.7l-39.1 22.6-33.8-19.5 39.1-22.6 33.8 19.5z"/><path class="st3" d="M188.8 483.9l41.1-23.7-35.8-20.6-41.1 23.7 35.8 20.6zm39.1-23.7l-39.1 22.6-33.8-19.5 39.1-22.6 33.8 19.5z"/><path class="st1" d="M226.3 480.2v30.9l-34.8 20.1v-30.9l34.8-20.1"/><path class="st3" d="M226.3 480.2v30.9l-34.8 20.1v-30.9l34.8-20.1z"/><path class="st1" d="M225.1 482.6v27.6c-10.8 6.2-21.6 12.3-32.4 18.5v-27.6c10.8-6.1 21.6-12.3 32.4-18.5"/><path class="st3" d="M225.1 482.6v27.6c-10.8 6.2-21.6 12.3-32.4 18.5v-27.6c10.8-6.1 21.6-12.3 32.4-18.5z"/><path class="st1" d="M224.9 487.2v3.1c-8.9 5.1-17.8 10.3-26.7 15.4v-3.1c8.9-5.1 17.8-10.3 26.7-15.4"/><path class="st3" d="M224.9 487.2v3.1c-8.9 5.1-17.8 10.3-26.7 15.4v-3.1c8.9-5.1 17.8-10.3 26.7-15.4z"/><path class="st1" d="M224.9 487.2l-2.7-1.5c-8.9 5.1-17.8 10.3-26.7 15.4l2.7 1.5c8.9-5.1 17.8-10.3 26.7-15.4"/><path class="st3" d="M224.9 487.2l-2.7-1.5c-8.9 5.1-17.8 10.3-26.7 15.4l2.7 1.5c8.9-5.1 17.8-10.3 26.7-15.4z"/><path class="st1" d="M198.2 505.7l-2.7-1.5v-3.1l2.7 1.5v3.1z"/><path class="st3" d="M198.2 505.7l-2.7-1.5v-3.1l2.7 1.5v3.1z"/><path class="st1" d="M226.3 467.9v3.1l-2.7 1.5v-3.1l2.7-1.5"/><path class="st3" d="M226.3 467.9v3.1l-2.7 1.5v-3.1l2.7-1.5z"/><path class="st1" d="M226.3 467.9l-2.7-1.5-2.7 1.5 2.7 1.5 2.7-1.5"/><path class="st3" d="M226.3 467.9l-2.7-1.5-2.7 1.5 2.7 1.5 2.7-1.5z"/><path class="st1" d="M220.9 467.9v3.1l2.7 1.5v-3.1l-2.7-1.5"/><path class="st3" d="M220.9 467.9v3.1l2.7 1.5v-3.1l-2.7-1.5z"/><path class="st1" d="M218.2 472.5v3.1l-2.7 1.5V474l2.7-1.5"/><path class="st3" d="M218.2 472.5v3.1l-2.7 1.5V474l2.7-1.5z"/><path class="st1" d="M218.2 472.5l-2.7-1.5-2.7 1.5 2.7 1.5 2.7-1.5"/><path class="st3" d="M218.2 472.5l-2.7-1.5-2.7 1.5 2.7 1.5 2.7-1.5z"/><path class="st1" d="M212.9 472.5v3.1l2.7 1.5V474l-2.7-1.5"/><path class="st3" d="M212.9 472.5v3.1l2.7 1.5V474l-2.7-1.5z"/><path class="st1" d="M212.9 475.6v3.1l-2.7 1.5v-3.1l2.7-1.5"/><path class="st3" d="M212.9 475.6v3.1l-2.7 1.5v-3.1l2.7-1.5z"/><path class="st1" d="M212.9 475.6l-2.7-1.5-2.7 1.5 2.7 1.5 2.7-1.5"/><path class="st3" d="M212.9 475.6l-2.7-1.5-2.7 1.5 2.7 1.5 2.7-1.5z"/><path class="st1" d="M207.5 475.6v3.1l2.7 1.5v-3.1l-2.7-1.5"/><path class="st3" d="M207.5 475.6v3.1l2.7 1.5v-3.1l-2.7-1.5z"/><path class="st1" d="M207.5 478.7v3.1l-2.7 1.5v-3.1c1-.5 1.8-1 2.7-1.5"/><path class="st3" d="M207.5 478.7v3.1l-2.7 1.5v-3.1c1-.5 1.8-1 2.7-1.5z"/><path class="st1" d="M207.5 478.7l-2.7-1.5-2.7 1.5 2.7 1.5c1-.5 1.8-1 2.7-1.5"/><path class="st3" d="M207.5 478.7l-2.7-1.5-2.7 1.5 2.7 1.5c1-.5 1.8-1 2.7-1.5z"/><path class="st1" d="M202.2 478.7v3.1l2.7 1.5v-3.1l-2.7-1.5"/><path class="st3" d="M202.2 478.7v3.1l2.7 1.5v-3.1l-2.7-1.5z"/><path class="st1" d="M202.2 481.8v3.1l-2.7 1.5v-3.1l2.7-1.5"/><path class="st3" d="M202.2 481.8v3.1l-2.7 1.5v-3.1l2.7-1.5z"/><path class="st1" d="M202.2 481.8l-2.7-1.5-2.7 1.5 2.7 1.5 2.7-1.5"/><path class="st3" d="M202.2 481.8l-2.7-1.5-2.7 1.5 2.7 1.5 2.7-1.5z"/><path class="st1" d="M196.8 481.8v3.1l2.7 1.5v-3.1l-2.7-1.5"/><path class="st3" d="M196.8 481.8v3.1l2.7 1.5v-3.1l-2.7-1.5z"/><path class="st1" d="M228.9 460.2v-1.5c-13.4 7.7-26.7 15.4-40.1 23.1v1.5l40.1-23.1z"/><path class="st3" d="M228.9 460.2v-1.5c-13.4 7.7-26.7 15.4-40.1 23.1v1.5l40.1-23.1z"/><path class="st1" d="M228.9 458.7c-11.6-6.7-23.2-13.3-34.8-20-13.4 7.6-26.7 15.3-40.1 22.9 11.6 6.7 23.2 13.4 34.8 20.2 13.4-7.7 26.8-15.4 40.1-23.1"/><path class="st3" d="M228.9 458.7c-11.6-6.7-23.2-13.3-34.8-20-13.4 7.6-26.7 15.3-40.1 22.9 11.6 6.7 23.2 13.4 34.8 20.2 13.4-7.7 26.8-15.4 40.1-23.1z"/><path class="st1" d="M188.8 481.8v1.5L154 463.2v-1.6c11.7 6.8 23.2 13.5 34.8 20.2"/><path class="st3" d="M188.8 481.8v1.5L154 463.2v-1.6c11.7 6.8 23.2 13.5 34.8 20.2z"/><path class="st1" d="M194.2 439.5v1.2l32.1 18.6c.4-.2.8-.5 1.2-.7-11.1-6.3-22.2-12.7-33.3-19.1"/><path class="st3" d="M194.2 439.5v1.2l32.1 18.6c.4-.2.8-.5 1.2-.7-11.1-6.3-22.2-12.7-33.3-19.1z"/><path class="st1" d="M194.2 439.5v1.2l-37.5 21.6c-.4-.2-.7-.4-1.1-.7 12.9-7.3 25.7-14.7 38.6-22.1"/><path class="st3" d="M194.2 439.5v1.2l-37.5 21.6c-.4-.2-.7-.4-1.1-.7 12.9-7.3 25.7-14.7 38.6-22.1z"/><path class="st1" d="M175.1 450.5v1.3c10.6 6.2 21.2 12.5 31.8 18.7.4-.2.8-.5 1.2-.7-11-6.4-22-12.8-33-19.3"/><path class="st3" d="M175.1 450.5v1.3c10.6 6.2 21.2 12.5 31.8 18.7.4-.2.8-.5 1.2-.7-11-6.4-22-12.8-33-19.3z"/><path class="st1" d="M194.2 440.8c-5.8 3.3-11.5 6.7-17.3 10 10.6 6.2 21.2 12.5 31.9 18.7 5.9-3.4 11.7-6.8 17.6-10.1-10.8-6.2-21.5-12.4-32.2-18.6"/><path class="st3" d="M194.2 440.8c-5.8 3.3-11.5 6.7-17.3 10 10.6 6.2 21.2 12.5 31.9 18.7 5.9-3.4 11.7-6.8 17.6-10.1-10.8-6.2-21.5-12.4-32.2-18.6z"/><path class="st1" d="M175.1 451.9l-18.3 10.5 32.1 18.6c6-3.5 12.1-7 18.1-10.5-10.7-6.2-21.3-12.4-31.9-18.6"/><path class="st3" d="M175.1 451.9l-18.3 10.5 32.1 18.6c6-3.5 12.1-7 18.1-10.5-10.7-6.2-21.3-12.4-31.9-18.6z"/><path class="st1" d="M174.7 450.3c.2-.1.4-.3.7-.4.8.5 1.7 1 2.5 1.5l-.6.4c-.9-.5-1.7-1-2.6-1.5"/><path class="st3" d="M174.7 450.3c.2-.1.4-.3.7-.4.8.5 1.7 1 2.5 1.5l-.6.4c-.9-.5-1.7-1-2.6-1.5z"/><path class="st1" d="M215.6 458.6c-1.8 1-3.6 2.1-5.3 3.1-1.8-1-3.6-2.1-5.3-3.1 1.8-1 3.6-2.1 5.3-3.1 1.7 1.1 3.5 2.1 5.3 3.1"/><path class="st3" d="M215.6 458.6c-1.8 1-3.6 2.1-5.3 3.1-1.8-1-3.6-2.1-5.3-3.1 1.8-1 3.6-2.1 5.3-3.1 1.7 1.1 3.5 2.1 5.3 3.1z"/><path class="st1" d="M215.6 458.6v1.1l-5.3 3.1v-1.1c1.7-1 3.5-2.1 5.3-3.1"/><path class="st3" d="M215.6 458.6v1.1l-5.3 3.1v-1.1c1.7-1 3.5-2.1 5.3-3.1z"/><path class="st1" d="M210.2 462.8c-1.8-1-3.6-2.1-5.3-3.1v-1.1c1.8 1 3.6 2.1 5.3 3.1v1.1"/><path class="st3" d="M210.2 462.8c-1.8-1-3.6-2.1-5.3-3.1v-1.1c1.8 1 3.6 2.1 5.3 3.1v1.1z"/><path class="st1" d="M194.6 470.7c-1.8 1-3.6 2.1-5.3 3.1-1.8-1-3.6-2.1-5.3-3.1 1.8-1 3.6-2.1 5.3-3.1 1.8 1 3.6 2 5.3 3.1"/><path class="st3" d="M194.6 470.7c-1.8 1-3.6 2.1-5.3 3.1-1.8-1-3.6-2.1-5.3-3.1 1.8-1 3.6-2.1 5.3-3.1 1.8 1 3.6 2 5.3 3.1z"/><path class="st1" d="M194.6 470.7v1.1c-1.8 1-3.6 2.1-5.3 3.1v-1.1c1.8-1.1 3.6-2.1 5.3-3.1"/><path class="st3" d="M194.6 470.7v1.1c-1.8 1-3.6 2.1-5.3 3.1v-1.1c1.8-1.1 3.6-2.1 5.3-3.1z"/><path class="st1" d="M189.3 474.9l-5.3-3.1v-1.1c1.8 1 3.6 2.1 5.3 3.1v1.1"/><path class="st3" d="M189.3 474.9l-5.3-3.1v-1.1c1.8 1 3.6 2.1 5.3 3.1v1.1z"/><path class="st1" d="M198.4 448.7c-1.8 1-3.6 2.1-5.3 3.1-1.8-1-3.6-2.1-5.3-3.1 1.8-1 3.6-2.1 5.3-3.1 1.7 1 3.5 2 5.3 3.1"/><path class="st3" d="M198.4 448.7c-1.8 1-3.6 2.1-5.3 3.1-1.8-1-3.6-2.1-5.3-3.1 1.8-1 3.6-2.1 5.3-3.1 1.7 1 3.5 2 5.3 3.1z"/><path class="st1" d="M198.4 448.7v1.1c-1.8 1-3.6 2.1-5.3 3.1v-1.1c1.7-1.1 3.5-2.1 5.3-3.1"/><path class="st3" d="M198.4 448.7v1.1c-1.8 1-3.6 2.1-5.3 3.1v-1.1c1.7-1.1 3.5-2.1 5.3-3.1z"/><path class="st1" d="M193 452.9c-1.8-1-3.6-2.1-5.3-3.1v-1.1c1.8 1 3.6 2.1 5.3 3.1v1.1z"/><path class="st3" d="M193 452.9c-1.8-1-3.6-2.1-5.3-3.1v-1.1c1.8 1 3.6 2.1 5.3 3.1v1.1z"/><path class="st1" d="M177.5 460.7c-1.8 1-3.6 2.1-5.3 3.1-1.8-1-3.6-2.1-5.3-3.1 1.8-1 3.6-2.1 5.3-3.1 1.7 1.1 3.5 2.1 5.3 3.1"/><path class="st3" d="M177.5 460.7c-1.8 1-3.6 2.1-5.3 3.1-1.8-1-3.6-2.1-5.3-3.1 1.8-1 3.6-2.1 5.3-3.1 1.7 1.1 3.5 2.1 5.3 3.1z"/><path class="st1" d="M177.5 460.7v1.1l-5.3 3.1v-1.1c1.7-1 3.5-2 5.3-3.1"/><path class="st3" d="M177.5 460.7v1.1l-5.3 3.1v-1.1c1.7-1 3.5-2 5.3-3.1z"/><path class="st1" d="M172.1 465c-1.8-1-3.6-2.1-5.3-3.1v-1.1c1.8 1 3.6 2.1 5.3 3.1v1.1"/><path class="st3" d="M172.1 465c-1.8-1-3.6-2.1-5.3-3.1v-1.1c1.8 1 3.6 2.1 5.3 3.1v1.1z"/><path class="st1" d="M219.3 463.4l-3.4-2-.8.5c1.1.7 2.3 1.3 3.4 2 .3-.1.5-.3.8-.5"/><path class="st3" d="M219.3 463.4l-3.4-2-.8.5c1.1.7 2.3 1.3 3.4 2 .3-.1.5-.3.8-.5z"/><path class="st1" d="M215.1 461.9v.9c.8.5 1.7 1 2.5 1.5.3-.2.5-.3.8-.5-1.1-.6-2.2-1.2-3.3-1.9"/><path class="st3" d="M215.1 461.9v.9c.8.5 1.7 1 2.5 1.5.3-.2.5-.3.8-.5-1.1-.6-2.2-1.2-3.3-1.9z"/><path class="st1" d="M205.3 455.4c-1.1-.7-2.3-1.3-3.4-2l-.8.5c1.1.7 2.3 1.3 3.4 2 .3-.2.6-.4.8-.5"/><path class="st3" d="M205.3 455.4c-1.1-.7-2.3-1.3-3.4-2l-.8.5c1.1.7 2.3 1.3 3.4 2 .3-.2.6-.4.8-.5z"/><path class="st1" d="M201.1 453.9v.9c1.1.6 2.3 1.3 3.4 1.9v-.9c-1.1-.6-2.2-1.3-3.4-1.9"/><path class="st3" d="M201.1 453.9v.9c1.1.6 2.3 1.3 3.4 1.9v-.9c-1.1-.6-2.2-1.3-3.4-1.9z"/><path class="st1" d="M205.3 455.4v.9c-.3.2-.5.3-.8.5v-.9c.3-.2.6-.4.8-.5"/><path class="st3" d="M205.3 455.4v.9c-.3.2-.5.3-.8.5v-.9c.3-.2.6-.4.8-.5z"/><path class="st1" d="M201 463.4c1.1-.7 2.3-1.3 3.4-2l.8.5c-1.1.7-2.3 1.3-3.4 2-.2-.1-.5-.3-.8-.5"/><path class="st3" d="M201 463.4c1.1-.7 2.3-1.3 3.4-2l.8.5c-1.1.7-2.3 1.3-3.4 2-.2-.1-.5-.3-.8-.5z"/><path class="st1" d="M205.2 461.9v.9c-.8.5-1.7 1-2.5 1.5-.3-.2-.5-.3-.8-.5 1.1-.6 2.2-1.2 3.3-1.9"/><path class="st3" d="M205.2 461.9v.9c-.8.5-1.7 1-2.5 1.5-.3-.2-.5-.3-.8-.5 1.1-.6 2.2-1.2 3.3-1.9z"/><path class="st1" d="M215 455.4c1.1-.7 2.3-1.3 3.4-2l.8.5-3.4 2c-.3-.2-.5-.4-.8-.5"/><path class="st3" d="M215 455.4c1.1-.7 2.3-1.3 3.4-2l.8.5-3.4 2c-.3-.2-.5-.4-.8-.5z"/><path class="st1" d="M219.2 453.9v.9c-1.1.6-2.3 1.3-3.4 1.9v-.9l3.4-1.9z"/><path class="st3" d="M219.2 453.9v.9c-1.1.6-2.3 1.3-3.4 1.9v-.9l3.4-1.9z"/><path class="st1" d="M215 455.4v.9c.3.2.5.3.8.5v-.9c-.3-.2-.5-.4-.8-.5"/><path class="st3" d="M215 455.4v.9c.3.2.5.3.8.5v-.9c-.3-.2-.5-.4-.8-.5z"/><path class="st1" d="M203.4 454.3c-1.1-.7-2.3-1.3-3.4-2-.3.2-.5.3-.8.5 1.1.7 2.3 1.3 3.4 2 .3-.2.5-.4.8-.5"/><path class="st3" d="M203.4 454.3c-1.1-.7-2.3-1.3-3.4-2-.3.2-.5.3-.8.5 1.1.7 2.3 1.3 3.4 2 .3-.2.5-.4.8-.5z"/><path class="st1" d="M199.2 452.8v.9c.8.5 1.7 1 2.5 1.5.3-.2.5-.3.8-.5-1.1-.7-2.2-1.3-3.3-1.9"/><path class="st3" d="M199.2 452.8v.9c.8.5 1.7 1 2.5 1.5.3-.2.5-.3.8-.5-1.1-.7-2.2-1.3-3.3-1.9z"/><path class="st1" d="M189.4 446.2c-1.1-.7-2.3-1.3-3.4-2-.3.2-.5.3-.8.5 1.1.7 2.3 1.3 3.4 2 .3-.2.6-.4.8-.5"/><path class="st3" d="M189.4 446.2c-1.1-.7-2.3-1.3-3.4-2-.3.2-.5.3-.8.5 1.1.7 2.3 1.3 3.4 2 .3-.2.6-.4.8-.5z"/><path class="st1" d="M185.2 444.7v.9c1.1.6 2.3 1.3 3.4 1.9v-.9c-1.1-.6-2.2-1.3-3.4-1.9"/><path class="st3" d="M185.2 444.7v.9c1.1.6 2.3 1.3 3.4 1.9v-.9c-1.1-.6-2.2-1.3-3.4-1.9z"/><path class="st1" d="M189.4 446.2v.9c-.3.2-.5.3-.8.5v-.9c.3-.2.6-.4.8-.5"/><path class="st3" d="M189.4 446.2v.9c-.3.2-.5.3-.8.5v-.9c.3-.2.6-.4.8-.5z"/><path class="st1" d="M185.1 454.3l3.4-2 .8.5c-1.1.7-2.3 1.3-3.4 2-.2-.2-.5-.4-.8-.5"/><path class="st3" d="M185.1 454.3l3.4-2 .8.5c-1.1.7-2.3 1.3-3.4 2-.2-.2-.5-.4-.8-.5z"/><path class="st1" d="M189.3 452.8v.9c-.8.5-1.7 1-2.5 1.5-.3-.2-.5-.3-.8-.5 1.1-.7 2.2-1.3 3.3-1.9"/><path class="st3" d="M189.3 452.8v.9c-.8.5-1.7 1-2.5 1.5-.3-.2-.5-.3-.8-.5 1.1-.7 2.2-1.3 3.3-1.9z"/><path class="st1" d="M199.1 446.2c1.1-.7 2.3-1.3 3.4-2 .3.2.5.3.8.5-1.1.7-2.3 1.3-3.4 2-.3-.2-.5-.4-.8-.5"/><path class="st3" d="M199.1 446.2c1.1-.7 2.3-1.3 3.4-2 .3.2.5.3.8.5-1.1.7-2.3 1.3-3.4 2-.3-.2-.5-.4-.8-.5z"/><path class="st1" d="M203.3 444.7v.9c-1.1.6-2.3 1.3-3.4 1.9v-.9c1.1-.6 2.3-1.3 3.4-1.9"/><path class="st3" d="M203.3 444.7v.9c-1.1.6-2.3 1.3-3.4 1.9v-.9c1.1-.6 2.3-1.3 3.4-1.9z"/><path class="st1" d="M199.1 446.2v.9c.3.2.5.3.8.5v-.9c-.3-.2-.5-.4-.8-.5"/><path class="st3" d="M199.1 446.2v.9c.3.2.5.3.8.5v-.9c-.3-.2-.5-.4-.8-.5z"/><path class="st1" d="M198 475.8c-1.1-.7-2.3-1.3-3.4-2l-.8.5c1.1.7 2.3 1.3 3.4 2 .2-.2.5-.4.8-.5"/><path class="st3" d="M198 475.8c-1.1-.7-2.3-1.3-3.4-2l-.8.5c1.1.7 2.3 1.3 3.4 2 .2-.2.5-.4.8-.5z"/><path class="st1" d="M193.8 474.3v.9c.8.5 1.7 1 2.5 1.5.3-.2.5-.3.8-.5-1.1-.6-2.2-1.3-3.3-1.9"/><path class="st3" d="M193.8 474.3v.9c.8.5 1.7 1 2.5 1.5.3-.2.5-.3.8-.5-1.1-.6-2.2-1.3-3.3-1.9z"/><path class="st1" d="M184 467.7c-1.1-.7-2.3-1.3-3.4-2l-.8.5c1.1.7 2.3 1.3 3.4 2 .3-.2.5-.4.8-.5"/><path class="st3" d="M184 467.7c-1.1-.7-2.3-1.3-3.4-2l-.8.5c1.1.7 2.3 1.3 3.4 2 .3-.2.5-.4.8-.5z"/><path class="st1" d="M179.8 466.2v.9c1.1.6 2.3 1.3 3.4 1.9v-.9c-1.1-.6-2.3-1.3-3.4-1.9"/><path class="st3" d="M179.8 466.2v.9c1.1.6 2.3 1.3 3.4 1.9v-.9c-1.1-.6-2.3-1.3-3.4-1.9z"/><path class="st1" d="M184 467.7v.9c-.3.2-.5.3-.8.5v-.9c.3-.2.5-.4.8-.5"/><path class="st3" d="M184 467.7v.9c-.3.2-.5.3-.8.5v-.9c.3-.2.5-.4.8-.5z"/><path class="st1" d="M179.7 475.8c1.1-.7 2.3-1.3 3.4-2l.8.5-3.4 2c-.3-.2-.5-.4-.8-.5"/><path class="st3" d="M179.7 475.8c1.1-.7 2.3-1.3 3.4-2l.8.5-3.4 2c-.3-.2-.5-.4-.8-.5z"/><path class="st1" d="M183.9 474.3v.9c-.8.5-1.7 1-2.5 1.5-.3-.2-.5-.3-.8-.5 1.1-.6 2.2-1.3 3.3-1.9"/><path class="st3" d="M183.9 474.3v.9c-.8.5-1.7 1-2.5 1.5-.3-.2-.5-.3-.8-.5 1.1-.6 2.2-1.3 3.3-1.9z"/><path class="st1" d="M193.7 467.7c1.1-.7 2.3-1.3 3.4-2l.8.5-3.4 2c-.3-.2-.6-.4-.8-.5"/><path class="st3" d="M193.7 467.7c1.1-.7 2.3-1.3 3.4-2l.8.5-3.4 2c-.3-.2-.6-.4-.8-.5z"/><path class="st1" d="M197.9 466.2v.9c-1.1.6-2.3 1.3-3.4 1.9v-.9l3.4-1.9z"/><path class="st3" d="M197.9 466.2v.9c-1.1.6-2.3 1.3-3.4 1.9v-.9l3.4-1.9z"/><path class="st1" d="M193.7 467.7v.9c.3.2.5.3.8.5v-.9c-.3-.2-.6-.4-.8-.5"/><path class="st3" d="M193.7 467.7v.9c.3.2.5.3.8.5v-.9c-.3-.2-.6-.4-.8-.5z"/><path class="st1" d="M182.1 466.6c-1.1-.7-2.3-1.3-3.4-2-.3.2-.5.3-.8.5 1.1.7 2.3 1.3 3.4 2 .2-.2.5-.4.8-.5"/><path class="st3" d="M182.1 466.6c-1.1-.7-2.3-1.3-3.4-2-.3.2-.5.3-.8.5 1.1.7 2.3 1.3 3.4 2 .2-.2.5-.4.8-.5z"/><path class="st1" d="M177.9 465.1v.9c.8.5 1.7 1 2.5 1.5.3-.2.5-.3.8-.5-1.1-.6-2.2-1.3-3.3-1.9"/><path class="st3" d="M177.9 465.1v.9c.8.5 1.7 1 2.5 1.5.3-.2.5-.3.8-.5-1.1-.6-2.2-1.3-3.3-1.9z"/><path class="st1" d="M168.1 458.5c-1.1-.7-2.3-1.3-3.4-2-.3.2-.5.3-.8.5 1.1.7 2.3 1.3 3.4 2 .2-.2.5-.3.8-.5"/><path class="st3" d="M168.1 458.5c-1.1-.7-2.3-1.3-3.4-2-.3.2-.5.3-.8.5 1.1.7 2.3 1.3 3.4 2 .2-.2.5-.3.8-.5z"/><path class="st1" d="M163.9 457v.9c1.1.6 2.3 1.3 3.4 1.9v-.9c-1.2-.6-2.3-1.2-3.4-1.9"/><path class="st3" d="M163.9 457v.9c1.1.6 2.3 1.3 3.4 1.9v-.9c-1.2-.6-2.3-1.2-3.4-1.9z"/><path class="st1" d="M168.1 458.5v.9c-.3.2-.5.3-.8.5v-.9c.2-.2.5-.3.8-.5"/><path class="st3" d="M168.1 458.5v.9c-.3.2-.5.3-.8.5v-.9c.2-.2.5-.3.8-.5z"/><path class="st1" d="M163.8 466.6l3.4-2 .8.5c-1.1.7-2.3 1.3-3.4 2-.3-.2-.6-.4-.8-.5"/><path class="st3" d="M163.8 466.6l3.4-2 .8.5c-1.1.7-2.3 1.3-3.4 2-.3-.2-.6-.4-.8-.5z"/><path class="st1" d="M168 465.1v.9c-.8.5-1.7 1-2.5 1.5-.3-.2-.5-.3-.8-.5 1.1-.6 2.2-1.3 3.3-1.9"/><path class="st3" d="M168 465.1v.9c-.8.5-1.7 1-2.5 1.5-.3-.2-.5-.3-.8-.5 1.1-.6 2.2-1.3 3.3-1.9z"/><path class="st1" d="M177.8 458.5c1.1-.7 2.3-1.3 3.4-2 .3.2.5.3.8.5-1.1.7-2.3 1.3-3.4 2-.3-.2-.6-.3-.8-.5"/><path class="st3" d="M177.8 458.5c1.1-.7 2.3-1.3 3.4-2 .3.2.5.3.8.5-1.1.7-2.3 1.3-3.4 2-.3-.2-.6-.3-.8-.5z"/><path class="st1" d="M182 457v.9c-1.1.6-2.3 1.3-3.4 1.9v-.9c1.1-.6 2.2-1.2 3.4-1.9"/><path class="st3" d="M182 457v.9c-1.1.6-2.3 1.3-3.4 1.9v-.9c1.1-.6 2.2-1.2 3.4-1.9z"/><path class="st1" d="M177.8 458.5v.9c.3.2.5.3.8.5v-.9c-.3-.2-.6-.3-.8-.5"/><path class="st3" d="M177.8 458.5v.9c.3.2.5.3.8.5v-.9c-.3-.2-.6-.3-.8-.5z"/><path class="st1" d="M206.1 471c.7-.4 1.3-.7 2-1.1-11-6.5-22.1-13-33.1-19.4l-2.1 1.2c11 6.4 22.1 12.9 33.2 19.3"/><path class="st3" d="M206.1 471c.7-.4 1.3-.7 2-1.1-11-6.5-22.1-13-33.1-19.4l-2.1 1.2c11 6.4 22.1 12.9 33.2 19.3z"/><path class="st1" d="M197.9 467.1v-.9c2.7 1.6 5.5 3.2 8.2 4.8-.2.1-.5.3-.7.4-2.6-1.4-5-2.8-7.5-4.3"/><path class="st3" d="M197.9 467.1v-.9c2.7 1.6 5.5 3.2 8.2 4.8-.2.1-.5.3-.7.4-2.6-1.4-5-2.8-7.5-4.3z"/><path class="st1" d="M196.2 466.2c-2.4-1.4-4.9-2.8-7.3-4.2 0-.3-.1-.7-.1-1 2.7 1.6 5.5 3.2 8.2 4.7-.2.2-.5.4-.8.5"/><path class="st3" d="M196.2 466.2c-2.4-1.4-4.9-2.8-7.3-4.2 0-.3-.1-.7-.1-1 2.7 1.6 5.5 3.2 8.2 4.7-.2.2-.5.4-.8.5z"/><path class="st1" d="M188.7 460.9c-.3.2-.6.4-.9.5-1.9-1.2-3.9-2.4-5.8-3.5v-.9c2.2 1.3 4.5 2.6 6.7 3.9"/><path class="st3" d="M188.7 460.9c-.3.2-.6.4-.9.5-1.9-1.2-3.9-2.4-5.8-3.5v-.9c2.2 1.3 4.5 2.6 6.7 3.9z"/><path class="st1" d="M180.3 457c-2.3-1.4-4.7-2.8-7-4.1l-.3-1.2c2.7 1.6 5.5 3.2 8.2 4.8-.3.2-.6.4-.9.5"/><path class="st3" d="M180.3 457c-2.3-1.4-4.7-2.8-7-4.1l-.3-1.2c2.7 1.6 5.5 3.2 8.2 4.8-.3.2-.6.4-.9.5z"/><path class="st1" d="M208.3 469.8c.7-.4 1.3-.8 2-1.2-5.8-3.3-11.5-6.7-17.3-10-.4.3-.9.5-1.3.8 5.4 3.5 11 7 16.6 10.4"/><path class="st3" d="M208.3 469.8c.7-.4 1.3-.8 2-1.2-5.8-3.3-11.5-6.7-17.3-10-.4.3-.9.5-1.3.8 5.4 3.5 11 7 16.6 10.4z"/><path class="st1" d="M191.5 459.4l1.2-.7c-5.3-3.1-10.5-6.1-15.8-9.2l-1.7 1c5.5 2.9 10.9 5.9 16.3 8.9"/><path class="st3" d="M191.5 459.4l1.2-.7c-5.3-3.1-10.5-6.1-15.8-9.2l-1.7 1c5.5 2.9 10.9 5.9 16.3 8.9z"/><path class="st1" d="M172.4 471.5c12.8-7.4 25.7-14.9 38.5-22.3-.3-.2-.6-.3-.9-.5-12.9 7.4-25.7 14.8-38.6 22.3.4.1.7.3 1 .5"/><path class="st3" d="M172.4 471.5c12.8-7.4 25.7-14.9 38.5-22.3-.3-.2-.6-.3-.9-.5-12.9 7.4-25.7 14.8-38.6 22.3.4.1.7.3 1 .5z"/><path class="st1" d="M210.9 449.1v1.3c-2.4 1.4-4.7 2.7-7 4.1-.4-.2-.7-.4-1.1-.6-.3.2-.5.3-.8.5.1.3.1.7.2 1-2.4 1.4-4.9 2.9-7.3 4.3-.4-.2-.7-.4-1.1-.6 5.6-3.3 11.4-6.7 17.1-10"/><path class="st3" d="M210.9 449.1v1.3c-2.4 1.4-4.7 2.7-7 4.1-.4-.2-.7-.4-1.1-.6-.3.2-.5.3-.8.5.1.3.1.7.2 1-2.4 1.4-4.9 2.9-7.3 4.3-.4-.2-.7-.4-1.1-.6 5.6-3.3 11.4-6.7 17.1-10z"/><path class="st1" d="M189.6 461.5l.2 1.1c-2.5 1.4-4.9 2.8-7.4 4.2l-1-.6c-.3.2-.5.3-.8.5.1.3.1.7.2 1-2.5 1.4-5 2.9-7.5 4.3-.3-.2-.6-.4-1-.6 5.8-3.3 11.6-6.6 17.3-9.9"/><path class="st3" d="M189.6 461.5l.2 1.1c-2.5 1.4-4.9 2.8-7.4 4.2l-1-.6c-.3.2-.5.3-.8.5.1.3.1.7.2 1-2.5 1.4-5 2.9-7.5 4.3-.3-.2-.6-.4-1-.6 5.8-3.3 11.6-6.6 17.3-9.9z"/><g class="st7"><defs><path id="SVGID_3_" d="M191.9 438H229v23.4h-37.1z"/></defs><clipPath id="SVGID_4_"><use xlink:href="#SVGID_3_" overflow="visible"/></clipPath><path class="st8" d="M225.3 459.9c.7-.4 1.5-.8 2.2-1.2l-8.3-4.8c-.4.5-.8 1.1-1.2 1.6l7.3 4.4z"/><path class="st9" d="M225.3 459.9c.7-.4 1.5-.8 2.2-1.2l-8.3-4.8c-.4.5-.8 1.1-1.2 1.6l7.3 4.4z"/><path class="st8" d="M216.4 454.6c.7-.4 1.3-.8 2-1.2-2.5-1.5-5.1-2.9-7.6-4.4-.3.6-.5 1.3-.8 1.9 2.1 1.2 4.2 2.5 6.4 3.7"/><path class="st9" d="M216.4 454.6c.7-.4 1.3-.8 2-1.2-2.5-1.5-5.1-2.9-7.6-4.4-.3.6-.5 1.3-.8 1.9 2.1 1.2 4.2 2.5 6.4 3.7z"/><path class="st8" d="M210 448.6c-.6.4-1.3.7-1.9 1.1-2-1.1-4-2.3-6-3.4.4-.5.8-1.1 1.2-1.6 2.2 1.3 4.5 2.6 6.7 3.9"/><path class="st9" d="M210 448.6c-.6.4-1.3.7-1.9 1.1-2-1.1-4-2.3-6-3.4.4-.5.8-1.1 1.2-1.6 2.2 1.3 4.5 2.6 6.7 3.9z"/><path class="st8" d="M200.6 445.3c.6-.3 1.2-.7 1.8-1-2.7-1.6-5.5-3.1-8.2-4.7-.3.5-.5 1.1-.8 1.6 2.4 1.3 4.8 2.7 7.2 4.1"/><path class="st9" d="M200.6 445.3c.6-.3 1.2-.7 1.8-1-2.7-1.6-5.5-3.1-8.2-4.7-.3.5-.5 1.1-.8 1.6 2.4 1.3 4.8 2.7 7.2 4.1z"/></g><g class="st7"><defs><path id="SVGID_5_" d="M170.6 450.3h37.1v23.4h-37.1z"/></defs><clipPath id="SVGID_6_"><use xlink:href="#SVGID_5_" overflow="visible"/></clipPath><path class="st10" d="M204 472.2c.7-.4 1.5-.8 2.2-1.2l-8.3-4.8c-.4.5-.8 1.1-1.2 1.6 2.4 1.5 4.9 3 7.3 4.4"/><path class="st11" d="M204 472.2c.7-.4 1.5-.8 2.2-1.2l-8.3-4.8c-.4.5-.8 1.1-1.2 1.6 2.4 1.5 4.9 3 7.3 4.4z"/><path class="st10" d="M195.1 466.9c.7-.4 1.3-.8 2-1.2-2.5-1.5-5.1-2.9-7.6-4.4-.3.6-.5 1.3-.8 1.9 2.1 1.3 4.2 2.5 6.4 3.7"/><path class="st11" d="M195.1 466.9c.7-.4 1.3-.8 2-1.2-2.5-1.5-5.1-2.9-7.6-4.4-.3.6-.5 1.3-.8 1.9 2.1 1.3 4.2 2.5 6.4 3.7z"/><path class="st10" d="M188.7 460.9c-.6.4-1.3.7-1.9 1.1-2-1.1-4-2.3-6-3.4.4-.5.8-1.1 1.2-1.6 2.2 1.3 4.5 2.6 6.7 3.9"/><path class="st11" d="M188.7 460.9c-.6.4-1.3.7-1.9 1.1-2-1.1-4-2.3-6-3.4.4-.5.8-1.1 1.2-1.6 2.2 1.3 4.5 2.6 6.7 3.9z"/><path class="st10" d="M179.3 457.6c.6-.3 1.2-.7 1.8-1-2.7-1.6-5.5-3.1-8.2-4.7-.3.5-.5 1.1-.8 1.6 2.4 1.4 4.8 2.7 7.2 4.1"/><path class="st11" d="M179.3 457.6c.6-.3 1.2-.7 1.8-1-2.7-1.6-5.5-3.1-8.2-4.7-.3.5-.5 1.1-.8 1.6 2.4 1.4 4.8 2.7 7.2 4.1z"/></g><g class="st7"><defs><path id="SVGID_7_" d="M201.9 457.1h9.8v7.2h-9.8z"/></defs><clipPath id="SVGID_8_"><use xlink:href="#SVGID_7_" overflow="visible"/></clipPath><path d="M204.9 458.6c-.5.3-1 .6-1.5.8 1.9 1.1 3.7 2.1 5.5 3.2.4.1.8.1 1.3.2v-1.1c-1.8-1-3.6-2.1-5.3-3.1" clip-path="url(#SVGID_8_)" fill="#f1f2f2"/><path d="M204.9 458.6c-.5.3-1 .6-1.5.8 1.9 1.1 3.7 2.1 5.5 3.2.4.1.8.1 1.3.2v-1.1c-1.8-1-3.6-2.1-5.3-3.1z" clip-path="url(#SVGID_8_)" fill="none" stroke="#604a9e" stroke-width="3" stroke-linecap="round" stroke-linejoin="round" stroke-miterlimit="10"/></g><g class="st7"><defs><path id="SVGID_9_" d="M184.7 447.2h9.8v7.2h-9.8z"/></defs><clipPath id="SVGID_10_"><use xlink:href="#SVGID_9_" overflow="visible"/></clipPath><path d="M187.7 448.7c-.5.3-1 .6-1.5.8 1.9 1.1 3.7 2.1 5.5 3.2.4.1.8.1 1.3.2v-1.1c-1.8-1.1-3.5-2.1-5.3-3.1" clip-path="url(#SVGID_10_)" fill="#f1f2f2"/><path d="M187.7 448.7c-.5.3-1 .6-1.5.8 1.9 1.1 3.7 2.1 5.5 3.2.4.1.8.1 1.3.2v-1.1c-1.8-1.1-3.5-2.1-5.3-3.1z" clip-path="url(#SVGID_10_)" fill="none" stroke="#604a9e" stroke-width="3" stroke-linecap="round" stroke-linejoin="round" stroke-miterlimit="10"/></g><g class="st7"><defs><path id="SVGID_11_" d="M163.8 459.2h9.8v7.2h-9.8z"/></defs><clipPath id="SVGID_12_"><use xlink:href="#SVGID_11_" overflow="visible"/></clipPath><path d="M166.8 460.7c-.5.3-1 .6-1.5.8 1.9 1.1 3.7 2.1 5.6 3.2.4.1.8.1 1.3.2v-1.1c-1.9-1-3.6-2-5.4-3.1" clip-path="url(#SVGID_12_)" fill="#f1f2f2"/><path d="M166.8 460.7c-.5.3-1 .6-1.5.8 1.9 1.1 3.7 2.1 5.6 3.2.4.1.8.1 1.3.2v-1.1c-1.9-1-3.6-2-5.4-3.1z" clip-path="url(#SVGID_12_)" fill="none" stroke="#604a9e" stroke-width="3" stroke-linecap="round" stroke-linejoin="round" stroke-miterlimit="10"/></g><g class="st7"><defs><path id="SVGID_13_" d="M181 469.2h9.8v7.2H181z"/></defs><clipPath id="SVGID_14_"><use xlink:href="#SVGID_13_" overflow="visible"/></clipPath><path d="M184 470.7c-.5.3-1 .6-1.5.8 1.9 1.1 3.7 2.1 5.5 3.2.4.1.8.1 1.3.2v-1.1c-1.8-1.1-3.6-2.1-5.3-3.1" clip-path="url(#SVGID_14_)" fill="#f1f2f2"/><path d="M184 470.7c-.5.3-1 .6-1.5.8 1.9 1.1 3.7 2.1 5.5 3.2.4.1.8.1 1.3.2v-1.1c-1.8-1.1-3.6-2.1-5.3-3.1z" clip-path="url(#SVGID_14_)" fill="none" stroke="#604a9e" stroke-width="3" stroke-linecap="round" stroke-linejoin="round" stroke-miterlimit="10"/></g><g opacity=".17"><defs><path id="SVGID_15_" d="M187.3 512.7h40.4v27.7h-40.4z"/></defs><clipPath id="SVGID_16_"><use xlink:href="#SVGID_15_" overflow="visible"/></clipPath><path d="M226.3 514.2l-2.4 4.5c-11.7 6.7-23.4 13.5-35 20.2v-3.1c12.4-7.2 24.9-14.4 37.4-21.6" clip-path="url(#SVGID_16_)" fill="#f1f2f2"/><path d="M226.3 514.2l-2.4 4.5c-11.7 6.7-23.4 13.5-35 20.2v-3.1c12.4-7.2 24.9-14.4 37.4-21.6z" clip-path="url(#SVGID_16_)" fill="none" stroke="#604a9e" stroke-width="3" stroke-linecap="round" stroke-linejoin="round" stroke-miterlimit="10"/></g></svg>