<svg version="1.1" id="Layer_1" xmlns="http://www.w3.org/2000/svg" xmlns:xlink="http://www.w3.org/1999/xlink" x="0" y="0" viewBox="0 0 111.2 111.2" xml:space="preserve"><style>.st1,.st3{clip-path:url(#XMLID_67_);fill:#ec1c59}.st3{clip-path:url(#XMLID_68_)}</style><g id="XMLID_27_"><defs><path id="XMLID_34_" d="M0 .3h108.6v110.9H0z"/></defs><clipPath id="XMLID_67_"><use xlink:href="#XMLID_34_" overflow="visible"/></clipPath><path id="XMLID_65_" d="M81.7 94c1.8 4.3-.2 9.3-4.5 11.1s-9.3-.1-11.2-4.3c-.2-.4-.6-.6-1-.5-.4.1-.7.5-.7.9-.1 4.7-3.9 8.4-8.6 8.4-3.8 0-7.2-2.6-8.3-6.2-.1-.3-.4-.6-.7-.6-.3-.1-.7.1-.9.3-2.3 3-6.4 4.2-10 2.8-3.6-1.4-5.8-5-5.4-8.8 0-.3-.1-.7-.4-.9s-.7-.2-1 0c-3.3 2-7.5 1.5-10.3-1.1-3.4-3.2-3.6-8.5-.5-12 .3-.3.3-.8.1-1.1-.2-.3-.7-.5-1.1-.3-4.3 1.8-9.3-.2-11.2-4.5-1.9-4.3.1-9.3 4.3-11.2.4-.2.6-.6.5-1-.1-.4-.5-.7-.9-.7-4.7-.1-8.5-3.9-8.5-8.5 0-3.8 2.6-7.2 6.2-8.2.3-.1.6-.4.6-.7s-.1-.7-.3-.9c-3-2.3-4.2-6.4-2.8-9.9 1.4-3.5 5-5.7 8.8-5.4.3 0 .7-.1.9-.4.2-.3.2-.7 0-1-2-3.3-1.5-7.5 1.1-10.2 3.2-3.4 8.6-3.6 12-.5.3.3.8.3 1.1.1.3-.2.5-.7.3-1.1-1.8-4.3.2-9.3 4.5-11.1s9.3.1 11.2 4.3c.2.4.6.6 1 .5.4-.1.7-.5.7-.9.1-4.6 3.9-8.4 8.6-8.4 3.8 0 7.2 2.6 8.3 6.2.1.3.4.6.7.6.3.1.7-.1.9-.3 2.3-3 6.4-4.2 10-2.8 3.6 1.4 5.8 5 5.4 8.8 0 .3.1.7.4.9.3.2.7.2 1 0 3.3-2 7.5-1.5 10.3 1.1" clip-path="url(#XMLID_67_)" fill="none" stroke="#3f4043" stroke-width="3.195" stroke-linecap="round" stroke-linejoin="round"/><path id="XMLID_64_" class="st1" d="M107.2 81.4H30.8c-.8 0-1.5-.7-1.5-1.5s.7-1.5 1.5-1.5h76.3c.8 0 1.5.7 1.5 1.5 0 .9-.6 1.5-1.4 1.5"/><path class="st1" d="M69 35.8c.3 0 .5.1.7.2l14.8 9.4.3.3 8.6 11 3.2-2.4-11-13.5L69 30.6 52.4 40.8l-11 13.5 3.2 2.4 8.6-11 .3-.3L68.3 36c.2-.2.4-.2.7-.2m24.1 24.1c-.4 0-.8-.2-1.1-.5l-9.2-11.9L69 38.7l-13.8 8.8L46 59.4c-.4.6-1.3.7-1.9.3l-5.4-4c-.3-.2-.5-.5-.5-.9s.1-.7.3-1L50.6 39l.3-.3L68.3 28c.4-.3 1-.3 1.4 0l17.4 10.7.3.3 12.1 14.8c.2.3.3.6.3 1s-.2.7-.5.9l-5.4 4c-.2.1-.5.2-.8.2"/><path id="XMLID_49_" class="st1" d="M93.1 81.4H44.8c-.7 0-1.3-.6-1.3-1.3V58.6c0-.7.6-1.3 1.3-1.3s1.3.6 1.3 1.3v20.1h45.6V58.6c0-.7.6-1.3 1.3-1.3.7 0 1.3.6 1.3 1.3V80c.2.8-.4 1.4-1.2 1.4"/><path d="M69 79.4H56.2v-26H69v26zm12.8 0H56.2v-26h25.6v26z" fill="none" stroke="#ec1c59" stroke-width="3.04" stroke-linejoin="round" stroke-miterlimit="10"/><defs><path id="XMLID_29_" d="M0 .3h108.6v110.9H0z"/></defs><clipPath id="XMLID_68_"><use xlink:href="#XMLID_29_" overflow="visible"/></clipPath><path id="XMLID_31_" class="st3" d="M30.7 70.4c0 2.7 2.2 4.9 4.9 4.9s4.9-2.2 4.9-4.9-2.2-4.9-4.9-4.9-4.9 2.2-4.9 4.9"/><path id="XMLID_30_" class="st3" d="M32.1 64.6c0 1.9 1.5 3.4 3.4 3.4s3.4-1.5 3.4-3.4-1.5-3.4-3.4-3.4c-1.8-.1-3.4 1.5-3.4 3.4"/><path id="XMLID_28_" fill="#ec1c59" d="M34.3 74.3h2.4V80h-2.4z"/></g></svg>