<svg version="1.1" id="Layer_1" xmlns="http://www.w3.org/2000/svg" xmlns:xlink="http://www.w3.org/1999/xlink" x="0" y="0" viewBox="0 0 249 72" xml:space="preserve"><style>.st0{fill:#2a2929}</style><g id="XMLID_79_"><path id="XMLID_80_" class="st0" d="M101.8 18.9h-1.7c-.4 0-.6-.2-.7-.6-.1-.8-.2-1.4-.2-1.9h-7v6h7.4v3.1h-7.4v6.1h7c0-.5.1-1.1.2-1.9.1-.4.3-.6.7-.6h1.7v5.7h-16V33c0-.5.3-.8.8-.9h.4c.1 0 .2 0 .3-.1l.9-.2V16.1l-1-.1c-.1 0-.2 0-.3-.1h-.4c-.5-.1-.8-.4-.8-.9v-1.8h16v5.7z"/><path id="XMLID_82_" class="st0" d="M128.7 21.2c0 .5-.3.8-.8.9.1 0-.4.1-1.4.3l-3.9 12.4h-3c-.3 0-.6-.2-.7-.7l-2.8-8.9c0-.1-.1-.2-.1-.4-.1-.2-.1-.3-.1-.5 0 0-.1-.3-.2-.9l-.2.9c0 .2-.1.5-.2.9l-2.8 8.9c-.1.4-.4.7-.8.7h-2.8l-4-12.4c-.5-.1-.9-.2-1.1-.2s-.3-.1-.4-.1c-.5-.1-.8-.4-.8-.9v-1.8h7.5v1.8c0 .5-.3.8-.8.9l-.9.2 1.6 6c.2.6.3 1 .3 1.3l.2 1.3.4-1.3c.2-.7.3-1.1.4-1.3l2.6-8.3c.1-.2.2-.4.4-.5.2-.1.4-.2.6-.2h1.7c.2 0 .5.1.7.2.2.1.3.3.4.5l2.5 8.4.4 1.3.3 1.2c0-.3.1-.8.2-1.3l.3-1.4 1.7-6-1.1-.2c-.5-.1-.8-.4-.8-.9v-1.8h7.5v1.9z"/><path id="XMLID_84_" class="st0" d="M139.4 19.7c.8.3 1.5.7 2.1 1.4.6.6 1 1.3 1.4 2.2.3.9.5 1.9.5 2.9 0 .2 0 .5-.1.7 0 .2-.1.4-.1.4 0 .1-.1.2-.3.2-.1 0-.2.1-.4.1H133c.1 1.6.6 2.7 1.3 3.5.7.7 1.7 1.1 2.9 1.1.6 0 1.1-.1 1.5-.2.4-.1.8-.3 1.1-.5.1-.1.3-.2.4-.2s.3-.1.4-.2c.2-.1.5-.2.7-.2.2 0 .3 0 .4.1.1 0 .2.1.3.2l1.1 1.4c-.5.5-.9.9-1.4 1.2-.5.3-1.1.6-1.6.8-.5.2-1.1.3-1.7.4-.5.1-1.1.1-1.7.1-1.1 0-2.1-.2-3-.5-.9-.3-1.7-.9-2.4-1.6-.7-.7-1.2-1.5-1.6-2.6-.4-1-.6-2.2-.6-3.6 0-1 .2-2 .5-2.9.3-.9.8-1.7 1.5-2.4.6-.7 1.4-1.2 2.3-1.6s2-.6 3.1-.6c1.2-.1 2.1.1 2.9.4zm-5.1 3.1c-.6.6-1 1.5-1.2 2.6h7c0-.4-.1-.9-.2-1.4-.1-.4-.3-.8-.6-1.1-.3-.3-.6-.6-1-.8-.5-.2-.9-.3-1.4-.3-1.1.1-2 .4-2.6 1z"/><path id="XMLID_87_" class="st0" d="M165.6 28.1c0 .9-.2 1.8-.5 2.7-.3.9-.8 1.6-1.5 2.3-.6.6-1.4 1.1-2.4 1.5-.9.4-2 .5-3.2.5h-.5c-1.9 0-4-.4-6.2-1.1v-5.6h1.7c.4 0 .6.2.7.5.1.3.2 1.1.3 2.5.8.3 2.2.4 4.1.4 1.1 0 2-.3 2.7-.8.6-.5.9-1.3.9-2.3 0-.6-.1-1-.4-1.4-.3-.4-.6-.7-1.1-.9-.5-.3-1-.5-1.6-.6l-.7-.2-1.2-.4c-.6-.2-1.2-.4-1.8-.7-.6-.3-1.1-.6-1.6-1.1-.5-.4-.9-1-1.1-1.7-.3-.7-.4-1.6-.4-2.5 0-.8.2-1.6.5-2.3.3-.8.8-1.4 1.4-2 .6-.5 1.3-1 2.2-1.4.9-.4 1.9-.5 3-.5 2.1 0 4.2.4 6.2 1.2v5.6h-1.7c-.4 0-.6-.2-.7-.6-.1-.3-.2-1.1-.3-2.4-.7-.3-1.9-.5-3.5-.5-.5 0-1 .1-1.4.2-.5.2-.8.4-1.1.6-.3.3-.5.6-.7.9-.1.3-.2.7-.2 1.1 0 .5.2.9.5 1.3s.7.7 1.1.9c.6.3 1.1.5 1.6.7.2.1.8.3 1.8.6.4.1 1 .4 1.8.8.6.3 1.1.6 1.6 1.1.5.5.9 1 1.1 1.6.4.3.6 1 .6 2z"/><path id="XMLID_89_" class="st0" d="M169.6 34c-.7-.8-1.1-1.8-1.1-3.1v-8.6H167c-.2 0-.3-.1-.5-.2s-.2-.3-.2-.6V20l2.5-.4.8-4.2c0-.2.1-.3.3-.5s.3-.2.6-.2h1.9v4.9h4.1v2.6h-4.1v8.3c0 .5.1.8.4 1.1.2.3.6.4 1 .4.3 0 .5 0 .6-.1l.4-.2.3-.2c.1 0 .1-.1.2-.1.2 0 .3 0 .3.1l.2.2 1.1 1.8c-.5.4-1.1.8-1.9 1-.7.2-1.4.4-2.2.4-1.4.2-2.4-.2-3.2-.9z"/><path id="XMLID_91_" class="st0" d="M188.2 19.8c1 .4 1.8.9 2.4 1.6s1.1 1.5 1.5 2.5c.4 1 .5 2.1.5 3.3 0 1.2-.2 2.3-.5 3.3-.4 1-.9 1.9-1.5 2.5-.7.7-1.5 1.2-2.4 1.6-.9.4-2 .5-3.1.5-1.2 0-2.2-.2-3.2-.5s-1.7-.9-2.4-1.6c-.7-.7-1.2-1.6-1.6-2.5-.4-1-.5-2.1-.5-3.3 0-1.2.2-2.3.5-3.3.3-.9.9-1.8 1.6-2.5.6-.7 1.4-1.2 2.4-1.6 1-.4 2-.6 3.2-.6 1.1 0 2.1.2 3.1.6zm-.3 11.1c.6-.9.9-2.2.9-3.8 0-1.6-.3-2.9-.9-3.8-.6-.9-1.5-1.3-2.8-1.3-1.3 0-2.2.4-2.9 1.3-.6.9-1 2.2-1 3.8 0 1.6.3 2.9 1 3.8.6.9 1.6 1.3 2.9 1.3 1.3 0 2.2-.4 2.8-1.3z"/><path id="XMLID_94_" class="st0" d="M205.8 19.7l-.5 2.8c0 .2-.1.3-.2.4-.1.1-.3.1-.4.1-.1 0-.3 0-.6-.1-.4-.1-.7-.1-1.1-.1-.8 0-1.4.2-2 .6-.5.4-1 1-1.4 1.9v6.6l1.5.3c.5.1.8.4.8.9v1.8h-8.2v-1.8c0-.5.3-.8.8-.9l1.5-.3v-9.5l-1.5-.3c-.5-.1-.8-.4-.8-.9v-1.8h4.4c.4 0 .6.1.8.2s.2.4.3.7l.2 1.9c.5-1 1.2-1.7 1.9-2.3.8-.5 1.6-.8 2.5-.8.9.1 1.5.3 2 .6z"/><path id="XMLID_96_" class="st0" d="M216.5 19.7c.8.3 1.5.7 2.1 1.4.6.6 1 1.3 1.4 2.2.3.9.5 1.9.5 2.9 0 .2 0 .5-.1.7 0 .2-.1.4-.1.4 0 .1-.1.2-.3.2-.1 0-.2.1-.4.1h-9.5c.1 1.6.6 2.7 1.3 3.5.7.7 1.7 1.1 2.9 1.1.6 0 1.1-.1 1.5-.2.4-.1.8-.3 1.1-.5.1-.1.3-.2.4-.2s.3-.1.4-.2c.2-.1.5-.2.7-.2.2 0 .3 0 .4.1.1 0 .2.1.3.2l1.1 1.4c-.5.5-.9.9-1.4 1.2-.5.3-1.1.6-1.6.8-.5.2-1.1.3-1.7.4-.5.1-1.1.1-1.7.1-1.1 0-2.1-.2-3-.5-.9-.3-1.7-.9-2.4-1.6-.7-.7-1.2-1.5-1.6-2.6-.4-1-.6-2.2-.6-3.6 0-1 .2-2 .5-2.9.3-.9.8-1.7 1.5-2.4.6-.7 1.4-1.2 2.3-1.6.9-.4 2-.6 3.1-.6 1.2-.1 2.1.1 2.9.4zm-5.1 3.1c-.6.6-1 1.5-1.2 2.6h7c0-.4-.1-.9-.2-1.4-.1-.4-.3-.8-.6-1.1-.3-.3-.6-.6-1-.8-.5-.2-.9-.3-1.4-.3-1.2.1-2 .4-2.6 1z"/><path id="XMLID_99_" class="st0" d="M236.1 15.9h-.2c-.1 0-.2 0-.3.1l-.9.2V32l.9.2c.1 0 .2 0 .3.1h.4c.5.1.8.4.8.9V35h-8.6v-1.8c0-.5.3-.8.8-.9h.2l.5-.1.9-.2V16.1l-.9-.2c-.1 0-.2 0-.3-.1h-.4c-.5-.1-.8-.4-.8-.9v-1.8h8.6v1.8c0 .5-.3.8-.8.9l-.2.1z"/><path id="XMLID_101_" class="st0" d="M241.9 34c-.7-.8-1.1-1.8-1.1-3.1v-8.6h-1.6c-.2 0-.3-.1-.5-.2s-.2-.3-.2-.6V20l2.5-.4.8-4.2c0-.2.1-.3.3-.5s.3-.2.6-.2h1.9v4.9h4.1v2.6h-4.1v8.3c0 .5.1.8.4 1.1.2.3.6.4 1 .4.3 0 .5 0 .6-.1l.4-.2.3-.2c.1 0 .1-.1.2-.1.2 0 .3 0 .3.1l.2.2 1.1 1.8c-.5.4-1.1.8-1.9 1-.7.2-1.4.4-2.2.4-1.4.2-2.4-.2-3.1-.9z"/></g><defs><path id="SVGID_1_" d="M0 0h267.4v72H0z"/></defs><clipPath id="SVGID_2_"><use xlink:href="#SVGID_1_" overflow="visible"/></clipPath><path d="M65.8 29.8c3.1-1.4 4.5-5 3.1-8.1-1.1-2.6-3.8-4-6.5-3.7 1.3-2.4 1-5.4-1-7.4s-5.1-2.3-7.4-1c.4-2.7-1.1-5.4-3.7-6.5-3.1-1.4-6.7.1-8.1 3.1C42.2 2.7 39.4 0 36 0c-3.4 0-6.2 2.7-6.2 6.1-1.4-3.1-5-4.5-8.1-3.1-2.6 1.1-4 3.8-3.7 6.5-2.4-1.3-5.4-1-7.4 1s-2.3 5.1-1 7.4C6.8 17.6 4.1 19 3 21.6c-1.4 3.1.1 6.7 3.1 8.1C2.7 29.8 0 32.6 0 36s2.7 6.2 6.1 6.2c-3.1 1.4-4.5 5-3.1 8.1 1.1 2.6 3.8 4 6.5 3.7-1.3 2.4-1 5.4 1 7.4s5.1 2.3 7.4 1c-.4 2.7 1.1 5.4 3.7 6.5 3.1 1.4 6.7-.1 8.1-3.1 0 3.4 2.8 6.1 6.2 6.1 3.4 0 6.2-2.7 6.2-6.1 1.4 3.1 5 4.5 8.1 3.1 2.6-1.1 4-3.8 3.7-6.5 2.4 1.3 5.4 1 7.4-1s2.3-5.1 1-7.4c2.7.4 5.4-1.1 6.5-3.7 1.4-3.1-.1-6.7-3.1-8.1 3.4 0 6.1-2.8 6.1-6.2s-2.6-6.2-6-6.2" clip-path="url(#SVGID_2_)" fill="#ec1c59"/><path d="M61.5 26.8c-1-1.8-4-2.2-5.8-2.6-2.8-.6-5.6-.2-8.4.4-.5.1-1 .2-1.4.4-.6-3.1-3.3-4-6.6-4h-6.6c-3.3 0-6 .9-6.6 4-.4-.2-1-.3-1.6-.4-2.8-.6-5.6-.9-8.4-.4-1.8.4-4.8.8-5.8 2.6-.5.9-.5 2.5.1 3.3 1.1 1.8 4.9 1.5 6.6 1.3 2.9-.4 5.9-1.5 8.9-1.3l1.5 15.8c0 3.7 3 6.7 6.7 6.7h3.6c3.7 0 6.7-3 6.7-6.7L46 30.1c2.9-.1 5.9 1 8.8 1.4 1.7.2 5.5.4 6.6-1.3.6-.9.6-2.6.1-3.4" clip-path="url(#SVGID_2_)" fill="#fff"/><defs><path id="SVGID_3_" d="M32.8 21c-3.3 0-6 .9-6.6 4-.4-.2-1-.3-1.6-.4-2.8-.6-5.6-.9-8.4-.4-1.8.4-4.8.8-5.8 2.6-.5.9-.5 2.5.1 3.3 1.1 1.8 4.9 1.5 6.6 1.3C20 31 23 29.9 26 30.1l1.5 15.8c0 3.7 3 6.7 6.7 6.7h3.6c3.7 0 6.7-3 6.7-6.7L46 30.1c2.9-.1 5.9 1 8.8 1.4 1.7.2 5.5.4 6.6-1.3.5-.8.6-2.5.1-3.3-1-1.8-4-2.2-5.8-2.6-2.8-.6-5.6-.2-8.4.4-.5.1-1 .2-1.4.4-.6-3.1-3.3-4-6.6-4h-6.5z"/></defs><clipPath id="SVGID_4_"><use xlink:href="#SVGID_3_" overflow="visible"/></clipPath><path d="M38.7 49.8s-3.9 1.3-1.4 3.8m-3.4-3.8s3.9 1.3 1.4 3.8" clip-path="url(#SVGID_4_)" fill="none" stroke="#d3d6d8" stroke-width=".608"/><g><defs><path id="SVGID_5_" d="M0 0h267.4v72H0z"/></defs><clipPath id="SVGID_6_"><use xlink:href="#SVGID_5_" overflow="visible"/></clipPath><path d="M32.6 33.6c0 .6-.5 1.1-1.1 1.1-.6 0-1.1-.5-1.1-1.1 0-.6.5-1.1 1.1-1.1.6 0 1.1.5 1.1 1.1m8.7 0c0 .6-.5 1.1-1.1 1.1-.6 0-1.1-.5-1.1-1.1 0-.6.5-1.1 1.1-1.1.6 0 1.1.5 1.1 1.1" clip-path="url(#SVGID_6_)"/><path d="M61.4 30.1c.3-.5.4-1.3.4-2-1.5-1-4.2-1.6-7.3-1.6-4.7 0-8.6 1.5-8.6 3.4 0 .1.1.2.1.3v-.1c2.9-.1 5.9 1 8.8 1.4 1.7.1 5.5.4 6.6-1.4m-50.9 0c-.3-.5-.4-1.3-.4-2 1.5-1 4.2-1.6 7.3-1.6 4.7 0 8.6 1.5 8.6 3.4 0 .1-.1.2-.1.3v-.1c-2.9-.1-5.9 1-8.8 1.4-1.7.1-5.4.4-6.6-1.4" fill="#fcdad8" clip-path="url(#SVGID_6_)"/></g></svg>