<svg version="1.1" id="Layer_1" xmlns="http://www.w3.org/2000/svg" xmlns:xlink="http://www.w3.org/1999/xlink" x="0" y="0" viewBox="0 0 236.4 173.2" xml:space="preserve"><style>.st1{fill:#e4004d}</style><path d="M28.7 115.2v7.8h-2.4c-.5 0-.8-.3-.9-.8 0-.3-.2-1.2-.3-2.6h-9.5v8.2h10v4.2h-10v8.3h9.5c.1-1.4.2-2.3.3-2.6.1-.5.4-.8.9-.8h2.4v7.9H7v-2.4c0-.7.3-1.1 1-1.3h.2c.1 0 .3-.1.6-.1s.7-.1 1.2-.2v-21.4c-.5-.1-.9-.2-1.2-.2-.3 0-.5-.1-.6-.1H8c-.7-.2-1-.6-1-1.3v-2.4h21.7zm36.8 8.6v2.4c0 .7-.3 1.1-1 1.3-.3 0-.2 0-1.9.4l-5.3 16.9h-4.1c-.4 0-.7-.3-.9-.9l-3.8-12.1c-.1-.4-.3-.8-.4-1.2-.1-.4-.2-.8-.2-1.2l-.2 1.2-.3 1.2-3.8 12c-.2.6-.6.9-1.1.9h-3.8l-5.4-16.9c-1.7-.3-1.6-.3-1.9-.4-.7-.2-1-.6-1-1.3v-2.4h10.2v2.4c0 .7-.3 1.1-1 1.3-.2 0-.3.1-1.3.2l2.2 8.2c.2.6.3 1.2.4 1.8l.3 1.8c.2-.6.3-1.2.5-1.8.2-.6.3-1.2.5-1.8l3.5-11.2c.1-.3.2-.5.5-.7.2-.2.5-.3.9-.3H49c.4 0 .7.1.9.3.2.2.4.4.5.7l3.4 11.4.5 1.7c.1.6.3 1.1.4 1.7l.3-1.8c.1-.6.3-1.2.4-1.8l2.2-8.2c-1.1-.2-1.2-.2-1.5-.3-.7-.2-1-.6-1-1.3v-2.4h10.4zm14.2.3c1.1.4 2 1.1 2.9 1.9.8.8 1.4 1.8 1.9 3 .4 1.2.7 2.5.7 4 0 .4 0 .7-.1 1 0 .2-.1.4-.2.6-.1.2-.2.2-.4.3-.2.1-.3.1-.6.1H71c.2 2.2.7 3.7 1.8 4.7 1 1 2.3 1.5 4 1.5.8 0 1.5-.1 2.1-.3.6-.2 1.1-.4 1.6-.7.4-.2.9-.4 1.2-.6.3-.2.6-.3.9-.3.2 0 .4 0 .6.1.2.1.2.2.4.3l1.5 1.8c-.6.7-1.2 1.2-1.9 1.7-.7.4-1.4.8-2.2 1.1-.8.2-1.6.4-2.3.5-.8.1-1.6.2-2.3.2-1.5 0-2.8-.2-4-.7-1.3-.5-2.3-1.2-3.3-2.2-.9-.9-1.7-2.1-2.2-3.5-.5-1.4-.8-3-.8-4.9 0-1.4.2-2.7.7-4 .4-1.3 1.1-2.4 2-3.3.9-.9 1.9-1.7 3.1-2.2 1.2-.5 2.7-.8 4.2-.8 1.3.1 2.5.3 3.6.7zm-7 4.3c-.8.8-1.3 2-1.6 3.5h9.5c0-.7-.1-1.3-.3-1.8-.2-.6-.4-1.1-.8-1.5-.4-.4-.8-.8-1.4-1-.6-.2-1.2-.4-2-.4-1.4-.1-2.5.3-3.4 1.2zm42.5 7.1c0 1.3-.2 2.5-.7 3.7-.4 1.2-1.1 2.2-2 3.1-.9.9-2 1.6-3.2 2-1.3.5-2.7.7-4.3.7h-.6c-2.6 0-5.4-.5-8.4-1.6v-7.6h2.4c.5 0 .8.2.9.7.1.4.2 1.5.4 3.4 1.2.4 3.1.5 5.6.5 1.6 0 2.8-.4 3.6-1.1.9-.7 1.3-1.8 1.3-3.2 0-.8-.2-1.4-.6-1.9-.4-.5-.9-.9-1.6-1.2-.7-.3-1.3-.6-2.2-.9-.8-.2-1.7-.4-2.5-.7-.9-.3-1.7-.6-2.5-1s-1.6-.9-2.2-1.5c-.7-.6-1.1-1.3-1.5-2.3-.4-.9-.6-2-.6-3.4 0-1.1.2-2.1.7-3.1.4-1 1.1-2 1.9-2.7.8-.8 1.8-1.4 3-1.9s2.6-.7 4.1-.7c2.9 0 5.7.6 8.4 1.7v7.6h-2.4c-.5 0-.8-.3-.9-.8-.1-.4-.2-1.5-.4-3.3-1-.4-2.7-.7-4.8-.7-.8 0-1.4.1-2 .2-.6.2-1.1.4-1.4.8-.4.3-.7.7-.9 1.2-.2.4-.3 1-.3 1.5 0 .7.2 1.3.6 1.7.4.4.9.9 1.5 1.2.7.3 1.4.7 2.2.9.8.2 1.6.5 2.5.8.9.3 1.7.7 2.5 1 .8.4 1.6.9 2.2 1.5.7.6 1.2 1.3 1.6 2.2.5.9.6 2 .6 3.2zm5.7 8c-1-1-1.5-2.4-1.5-4.2v-11.7h-2.1c-.3 0-.5-.1-.7-.3-.2-.2-.3-.4-.3-.8v-2l3.4-.5 1.1-5.7c0-.3.2-.4.4-.6.2-.2.5-.2.8-.2h2.6v6.6h5.5v3.6h-5.5V139c0 .7.2 1.1.5 1.5.3.4.8.5 1.3.5.3 0 .6 0 .8-.1.2-.1.4-.2.5-.2.2-.1.3-.2.4-.2.1-.1.2-.1.3-.1.2 0 .3 0 .4.1l.3.3 1.5 2.4c-.7.6-1.6 1.1-2.5 1.4-.9.3-1.9.5-2.9.5-1.9 0-3.3-.5-4.3-1.6zm26.1-19.2c1.3.5 2.4 1.2 3.3 2.1.9.9 1.6 2 2 3.4.5 1.3.7 2.8.7 4.4 0 1.7-.2 3.1-.7 4.5-.5 1.3-1.1 2.5-2 3.4-.9.9-2 1.7-3.3 2.2-1.3.5-2.7.7-4.2.7-1.6 0-3-.2-4.3-.7-1.3-.5-2.4-1.2-3.3-2.2-.9-.9-1.6-2.1-2.1-3.4-.5-1.3-.7-2.8-.7-4.5 0-1.6.2-3.1.7-4.4.5-1.3 1.2-2.4 2.1-3.4.9-.9 2-1.6 3.3-2.1 1.3-.5 2.7-.8 4.3-.8 1.5 0 3 .3 4.2.8zm-.4 15.1c.8-1.2 1.3-2.9 1.3-5.1 0-2.2-.4-4-1.3-5.1-.8-1.2-2.1-1.8-3.8-1.8-1.8 0-3.1.6-3.9 1.8-.9 1.2-1.3 2.9-1.3 5.2 0 2.2.4 3.9 1.3 5.1.9 1.2 2.2 1.8 3.9 1.8 1.7-.1 3-.7 3.8-1.9zm24.4-15.3l-.7 3.8c0 .2-.1.4-.2.5-.1.1-.3.2-.6.2-.2 0-.4 0-.8-.1s-.9-.2-1.4-.2c-1.1 0-2 .3-2.7.9-.7.6-1.3 1.5-1.9 2.6v9c1.8.3 1.7.3 2 .4.7.2 1 .6 1 1.3v2.4h-11.3v-2.4c0-.7.3-1.1 1-1.3.3 0 .3 0 2-.4v-12.9c-1.8-.3-1.7-.3-2-.4-.7-.2-1-.6-1-1.3v-2.4h6.1c.5 0 .9.1 1.1.3.2.2.3.5.4 1l.3 2.5c.7-1.3 1.6-2.3 2.6-3.1 1-.7 2.1-1.1 3.4-1.1 1.1.1 2 .3 2.7.7zm14.9 0c1.1.4 2 1.1 2.9 1.9.8.8 1.4 1.8 1.9 3 .4 1.2.7 2.5.7 4 0 .4 0 .7-.1 1 0 .2-.1.4-.2.6-.1.2-.2.2-.4.3-.2.1-.3.1-.6.1h-12.9c.2 2.2.7 3.7 1.8 4.7 1 1 2.3 1.5 4 1.5.8 0 1.5-.1 2.1-.3.6-.2 1.1-.4 1.6-.7.4-.2.9-.4 1.2-.6.3-.2.6-.3.9-.3.2 0 .4 0 .6.1.2.1.2.2.4.3l1.5 1.8c-.6.7-1.2 1.2-1.9 1.7-.7.4-1.4.8-2.2 1.1-.8.2-1.6.4-2.3.5-.8.1-1.6.2-2.3.2-1.5 0-2.8-.2-4-.7-1.3-.5-2.3-1.2-3.3-2.2-.9-.9-1.7-2.1-2.2-3.5-.5-1.4-.8-3-.8-4.9 0-1.4.2-2.7.7-4 .4-1.3 1.1-2.4 2-3.3.9-.9 1.9-1.7 3.1-2.2 1.2-.5 2.7-.8 4.2-.8 1.2.1 2.5.3 3.6.7zm-7 4.3c-.8.8-1.3 2-1.6 3.5h9.5c0-.7-.1-1.3-.3-1.8-.2-.6-.4-1.1-.8-1.5-.4-.4-.8-.8-1.4-1-.6-.2-1.2-.4-2-.4-1.5-.1-2.6.3-3.4 1.2zm33.7-9.4c-.1 0-.3.1-.6.1s-.7.1-1.2.2v21.4c.5.1.9.2 1.2.2.3 0 .5.1.6.1h.2c.7.2 1 .6 1 1.3v2.4h-11.7v-2.4c0-.7.3-1.1 1-1.3h.2c.1 0 .3-.1.6-.1s.7-.1 1.2-.2v-21.4c-.5-.1-.9-.2-1.2-.2-.3 0-.5-.1-.6-.1h-.2c-.7-.2-1-.6-1-1.3v-2.4h11.7v2.4c0 .7-.3 1.1-1 1.3 0-.1-.1 0-.2 0zm7.1 24.5c-1-1-1.5-2.4-1.5-4.2v-11.7h-2.1c-.3 0-.5-.1-.7-.3-.2-.2-.3-.4-.3-.8v-2l3.4-.5 1.1-5.7c0-.3.2-.4.4-.6s.5-.2.8-.2h2.6v6.6h5.5v3.6h-5.5V139c0 .7.2 1.1.5 1.5.3.4.8.5 1.3.5.3 0 .6 0 .8-.1.2-.1.4-.2.5-.2.2-.1.3-.2.4-.2.1-.1.2-.1.3-.1.2 0 .3 0 .4.1l.3.3 1.5 2.4c-.7.6-1.6 1.1-2.5 1.4-.9.3-1.9.5-2.9.5-1.9 0-3.3-.5-4.3-1.6z" fill="#2d2d2b"/><path class="st1" d="M10.5 157.2l-1.5.6c-.2 0-.5-.1-.6-.2-.4.1-1 .2-2 .6-.2 2.7-.4 4.9-.4 6.8 0 .8 0 1.6.1 2.4.1.1.2.4.2.6v1.2c0 .7-.2 1-.7 1-.4 0-.7-.2-.7-.7-.2-1.5-.2-3.3-.2-5.4 0-1.1.1-3 .3-5.7-2 .6-3.5.9-4.3 1-.4 0-.6-.2-.6-.7 0-.4.2-.7.6-.8 3.9-.9 6.7-1.6 8.4-2 .6-.1 1.1-.2 1.4-.2.1 0 .3.1.4.2.1.2.2.3.2.5-.1.4-.3.6-.6.8zm7.3 12.6c-.7 0-1.1-.8-1.2-2.5l-.1-2.1c-1.6 1.2-2.6 2.2-3.1 3-.1.3-.2.6-.4.8-.2.4-.4.6-.5.6-.3 0-.5-.1-.7-.3-.2-.2-.3-.5-.3-.7v-1.1c0-1.7.1-3.4.5-5l1-5.6c.1-.6.3-.9.6-.9.2 0 .4.1.6.4.2.2.3.5.3.7 0 .1-.1.4-.1.9-.1.5-.3 1.3-.4 2.3l-.5 2.8c-.1.5-.2 1.5-.4 3.1.4-.5 1.1-1.1 2-1.9 1-.8 1.7-1.2 2-1.2.3 0 .5.1.7.3.2.2.3.5.3.8 0 .1 0 .3-.1.7v.8c0 .7.1 1.5.2 2.4 0 .3.1.7.1 1.1-.2.5-.3.6-.5.6zm7.3-.1c-1.3 0-2.3-.6-3-1.8h-.5c-.5 0-.9-.1-1.4-.3-.6-.2-.9-.6-.9-1 0-.5.2-.7.7-.7.1 0 .3.1.5.3.2.2.5.3.7.3h.4c-.1-.3-.1-.5-.1-.7 0-.8.2-1.6.6-2.4.5-.9 1.1-1.3 1.9-1.3.4 0 .9.2 1.3.6.4.4.6.9.6 1.4 0 1.3-.9 2.4-2.7 3.4.4.5.9.8 1.4.8.1 0 .4 0 .7-.1.3 0 .5-.1.7-.1.2 0 .4.1.5.2.1.2.2.4.2.5.2.6-.4.9-1.6.9zm-.6-6c-.1-.1-.3-.2-.4-.2-.3 0-.6.3-.7.8-.2.4-.2.9-.2 1.4v.3c1.1-.7 1.6-1.3 1.6-1.9-.1-.1-.2-.2-.3-.4zm14.4 5c-.7.5-1.4.8-2 .8-.7 0-1.4-.2-1.9-.7-.5-.5-.7-1.1-.7-1.9 0-1.1.3-2.1 1-3 .8-1.1 1.8-1.7 3-1.7.3 0 .5.1.7.2.2.2.3.4.3.7 0 .2-.1.4-.3.6-.2.2-.5.3-.7.3-.4 0-.8-.1-1-.2-.5.3-.9.8-1.2 1.3-.3.5-.5 1.1-.5 1.6 0 .9.3 1.3 1 1.3.4 0 .8-.1 1.1-.3.2-.2.4-.4.6-.5.2-.2.5-.4.6-.4.2 0 .3.1.5.2.1.2.2.4.2.5.1.4-.2.8-.7 1.2zm8.7 1.1c-.7 0-1.1-.8-1.2-2.5l-.1-2.1c-1.6 1.2-2.6 2.2-3.1 3-.1.3-.2.6-.4.8-.2.4-.4.6-.5.6-.3 0-.5-.1-.7-.3-.2-.2-.3-.5-.3-.7v-1.1c0-1.7.1-3.4.5-5l1-5.6c.1-.6.3-.9.6-.9.2 0 .4.1.6.4.2.2.3.5.3.7 0 .1-.1.4-.1.9-.1.5-.3 1.3-.4 2.3l-.5 2.8c-.1.5-.2 1.5-.4 3.1.4-.5 1.1-1.1 2-1.9 1-.8 1.7-1.2 2-1.2.3 0 .5.1.7.3.2.2.3.5.3.8 0 .1 0 .3-.1.7v.8c0 .7.1 1.5.2 2.4 0 .3.1.7.1 1.1-.2.5-.3.6-.5.6zm7.4-.1c-1.3 0-2.3-.6-3-1.8h-.5c-.5 0-.9-.1-1.4-.3-.6-.2-.9-.6-.9-1 0-.5.2-.7.7-.7.1 0 .3.1.5.3.2.2.5.3.7.3h.4c-.1-.3-.1-.5-.1-.7 0-.8.2-1.6.6-2.4.5-.9 1.1-1.3 1.9-1.3.4 0 .9.2 1.3.6.4.4.6.9.6 1.4 0 1.3-.9 2.4-2.7 3.4.4.5.9.8 1.4.8.1 0 .4 0 .7-.1.3 0 .5-.1.7-.1.2 0 .4.1.5.2.1.2.2.4.2.5.2.6-.4.9-1.6.9zm-.6-6c-.1-.1-.3-.2-.4-.2-.3 0-.6.3-.7.8-.2.4-.2.9-.2 1.4v.3c1.1-.7 1.6-1.3 1.6-1.9-.2-.1-.2-.2-.3-.4zm10 1.8c-.2.7-.4 1.4-.4 2.2 0 .2 0 .5.1.9s.1.6.1.7c0 .2-.1.4-.2.5-.2.1-.3.2-.5.2-.5 0-.8-.7-.9-2-1 1-1.9 1.5-2.7 1.5-.5 0-1-.2-1.3-.7-.4-.4-.6-.9-.6-1.4 0-1 .6-2.1 1.8-3.3 1.2-1.1 2.2-1.7 3.2-1.7.2 0 .5.1.7.3.2.2.3.4.3.6v.2c.1.3.2.7.2 1.1.1.2.2.4.2.5.1.1 0 .2 0 .4zm-1.9-1.6c-.3 0-.9.4-1.7 1.2-.9.9-1.3 1.6-1.3 2.1 0 .4.2.7.5.7.5 0 1.1-.4 1.8-1.2.7-.8 1-1.5 1-2.1.1-.5 0-.7-.3-.7zm5.9 3.6c.1.7.1 1.4.1 2.2 0 .8-.1 1.6-.3 2.5-.2.7-.4 1.1-.8 1.1-.2 0-.4-.1-.5-.2-.1-.2-.2-.3-.2-.5 0-.1.1-.3.2-.8s.2-1.3.2-2.4c0-.6 0-1-.1-1.3-.5 0-.7-.3-.7-.7 0-.4.2-.6.7-.8v-.4c0-1.4.2-2.6.6-3.7.6-1.6 1.5-2.3 2.6-2.3.8 0 1.4.3 1.8.9.4.6.6 1.3.6 2.1.1 1.8-1.3 3.3-4.2 4.3zm2.6-5.6c-.2-.2-.4-.4-.7-.4-.5 0-.9.5-1.3 1.6-.3 1-.5 1.9-.5 2.9 1.9-.7 2.8-1.7 2.8-3.2 0-.4-.1-.7-.3-.9zm8.6 7.8c-1.3 0-2.3-.6-3-1.8h-.5c-.5 0-.9-.1-1.4-.3-.6-.2-.9-.6-.9-1 0-.5.2-.7.7-.7.1 0 .3.1.5.3.2.2.5.3.7.3h.4c-.1-.3-.1-.5-.1-.7 0-.8.2-1.6.6-2.4.5-.9 1.1-1.3 1.9-1.3.4 0 .9.2 1.3.6.4.4.6.9.6 1.4 0 1.3-.9 2.4-2.7 3.4.4.5.9.8 1.4.8.1 0 .4 0 .7-.1.3 0 .5-.1.7-.1.2 0 .4.1.5.2.1.2.2.4.2.5.2.6-.4.9-1.6.9zm-.6-6c-.1-.1-.3-.2-.4-.2-.3 0-.6.3-.7.8-.2.4-.2.9-.2 1.4v.3c1.1-.7 1.6-1.3 1.6-1.9-.1-.1-.2-.2-.3-.4zm9.8 0c-.4.2-.7.3-1 .3 0 0-.1 0-.3-.1-1.4.7-2.3 2.1-2.6 4.3-.1.6-.2.9-.2 1.1-.1.3-.3.5-.5.5s-.4-.1-.6-.3c-.2-.2-.2-.5-.2-.8 0-.1 0-.3.1-.7.1-.4.1-.8.1-1.3 0-.4-.1-1-.1-1.7-.3-.4-.5-1.1-.5-1.8 0-.2.1-.4.2-.5.1-.1.2-.2.4-.2.3 0 .6.2.8.5.1.3.3.8.4 1.6 1.1-1.6 2.3-2.4 3.7-2.4.2 0 .4.1.7.3.2.2.3.4.3.7-.2.1-.4.3-.7.5zm12.4 6c-1.3 0-2.3-.6-3-1.8h-.5c-.5 0-.9-.1-1.4-.3-.6-.2-.9-.6-.9-1 0-.5.2-.7.7-.7.1 0 .3.1.5.3.2.2.5.3.7.3h.4c-.1-.3-.1-.5-.1-.7 0-.8.2-1.6.6-2.4.5-.9 1.1-1.3 1.9-1.3.4 0 .9.2 1.3.6.4.4.6.9.6 1.4 0 1.3-.9 2.4-2.7 3.4.4.5.9.8 1.4.8.1 0 .4 0 .7-.1.3 0 .5-.1.7-.1.2 0 .4.1.5.2.1.2.2.4.2.5.2.6-.4.9-1.6.9zm-.6-6c-.1-.1-.3-.2-.4-.2-.3 0-.6.3-.7.8-.2.4-.2.9-.2 1.4v.3c1.1-.7 1.6-1.3 1.6-1.9-.1-.1-.2-.2-.3-.4zm10 1.8c-.2.7-.4 1.4-.4 2.2 0 .2 0 .5.1.9s.1.6.1.7c0 .2-.1.4-.2.5-.2.1-.3.2-.5.2-.5 0-.8-.7-.9-2-1 1-1.9 1.5-2.7 1.5-.5 0-1-.2-1.3-.7-.4-.4-.6-.9-.6-1.4 0-1 .6-2.1 1.8-3.3 1.2-1.1 2.2-1.7 3.2-1.7.2 0 .5.1.7.3.2.2.3.4.3.6v.2c.1.3.2.7.2 1.1.1.2.2.4.2.5.1.1.1.2 0 .4zm-1.8-1.6c-.3 0-.9.4-1.7 1.2-.9.9-1.3 1.6-1.3 2.1 0 .4.2.7.5.7.5 0 1.1-.4 1.8-1.2.7-.8 1-1.5 1-2.1 0-.5-.1-.7-.3-.7zm8.6-.7c-.1.1-.3.2-.5.2h-1c-.5 0-.7.2-.7.5 0 .2.2.9.7 2 .4 1.1.7 1.9.7 2.5 0 .5-.2.9-.6 1.3-.5.3-1.1.5-1.9.5-1.3 0-1.9-.3-1.9-.8 0-.2.1-.4.2-.6.1-.2.2-.3.4-.3 0 0 .2 0 .6.1.4.1.7.1.9.1.6 0 .9-.2.9-.6 0-.2-.2-.9-.7-2-.4-1.1-.6-1.9-.6-2.3 0-.8.4-1.4 1.2-1.7.2-.3.5-.4 1-.4.8 0 1.3.3 1.3.8.1.1.1.3.1.4.1.1 0 .2-.1.3zm3.9 1.5c-.4 1.4-.5 2.6-.6 3.6.2.2.4.5.4.8 0 .1-.1.2-.2.3-.1.1-.2.2-.3.2-.8 0-1.2-.7-1.2-2.2 0-.7.2-2 .7-4 0-.2-.1-.4-.1-.4 0-.2.1-.4.4-.6.8 0 1.2.4 1.2 1.1l-.3 1.2zm.5-6.9c-.1 0-.2 0-.3-.1-.5-.2-.8-.6-.8-1.4 0-.4.2-.6.7-.8.6.1.9.5.9 1.2.1.7-.1 1.1-.5 1.1zm7.3 11.9c-1.3 0-2.3-.6-3-1.8h-.5c-.5 0-.9-.1-1.4-.3-.6-.2-.9-.6-.9-1 0-.5.2-.7.7-.7.1 0 .3.1.5.3.2.2.5.3.7.3h.4c-.1-.3-.1-.5-.1-.7 0-.8.2-1.6.6-2.4.5-.9 1.1-1.3 1.9-1.3.4 0 .9.2 1.3.6.4.4.6.9.6 1.4 0 1.3-.9 2.4-2.7 3.4.4.5.9.8 1.4.8.1 0 .4 0 .7-.1.3 0 .5-.1.7-.1.2 0 .4.1.5.2.1.2.2.4.2.5.2.6-.4.9-1.6.9zm-.6-6c-.1-.1-.3-.2-.4-.2-.3 0-.6.3-.7.8-.2.4-.2.9-.2 1.4v.3c1.1-.7 1.6-1.3 1.6-1.9-.1-.1-.2-.2-.3-.4zm9.7 0c-.4.2-.7.3-1 .3 0 0-.1 0-.3-.1-1.4.7-2.3 2.1-2.6 4.3-.1.6-.2.9-.2 1.1-.1.3-.3.5-.5.5s-.4-.1-.6-.3c-.2-.2-.2-.5-.2-.8 0-.1 0-.3.1-.7.1-.4.1-.8.1-1.3 0-.4-.1-1-.1-1.7-.3-.4-.5-1.1-.5-1.8 0-.2.1-.4.2-.5.1-.1.2-.2.4-.2.3 0 .6.2.8.5.1.3.3.8.4 1.6 1.1-1.6 2.3-2.4 3.7-2.4.2 0 .4.1.7.3.2.2.3.4.3.7-.2.1-.4.3-.7.5zm18.5 1.2c-.2 1.2-.5 2.3-1.1 3.2-.7 1.2-1.5 1.8-2.5 1.8-1.1 0-2-.9-2.5-2.8-.5.7-1.1 1.4-1.7 2-.8.7-1.4 1.1-1.8 1.1-.5 0-1-.7-1.4-2.2-.3-1.2-.5-2.4-.5-3.5 0-.9.1-1.7.2-2.4.1-.4.3-.6.7-.6.6 0 .8.4.8 1.2 0 .1-.1.4-.2.8s-.2.8-.2 1c0 1.6.2 2.9.7 3.8 1.3-.8 2.3-2.2 3-4 .2-.4.4-.6.7-.6.3 0 .5.2.6.6.4 2.6.8 3.9 1.5 3.9.6 0 1.2-.5 1.7-1.6.4-1 .7-2 .7-3.2v-.6c0-.2-.1-.4-.1-.4 0-.5.2-.8.7-.8.6 0 .9.7.9 2.2.1.6 0 .9-.2 1.1zm8 .6c-.2.7-.4 1.4-.4 2.2 0 .2 0 .5.1.9s.1.6.1.7c0 .2-.1.4-.2.5-.2.1-.3.2-.5.2-.5 0-.8-.7-.9-2-1 1-1.9 1.5-2.7 1.5-.5 0-1-.2-1.3-.7-.4-.4-.6-.9-.6-1.4 0-1 .6-2.1 1.8-3.3 1.2-1.1 2.2-1.7 3.2-1.7.2 0 .5.1.7.3.2.2.3.4.3.6v.2c.1.3.2.7.2 1.1.1.2.2.4.2.5.1.1.1.2 0 .4zm-1.8-1.6c-.3 0-.9.4-1.7 1.2-.9.9-1.3 1.6-1.3 2.1 0 .4.2.7.5.7.5 0 1.1-.4 1.8-1.2.7-.8 1-1.5 1-2.1 0-.5-.1-.7-.3-.7zm8.1 8c-1.1.9-2.5 1.4-4.2 1.4-1.1 0-1.6-.3-1.6-1 0-.5.2-.7.7-.7.2 0 .5.1 1 .1 2.7 0 4.3-1.2 4.7-3.6.1-.5.1-1.1.1-1.7-.9 1.3-1.9 2-2.8 2-.6 0-1-.2-1.3-.6-.3-.4-.5-.8-.5-1.4 0-.4 0-.9.1-1.7.1-.7.1-1.3.1-1.6 0-.1 0-.2-.1-.5-.1-.2-.1-.4-.1-.5 0-.4.2-.7.8-.7.3 0 .5.2.7.6.1.3.2.7.2 1.1 0 .2-.1.7-.2 1.5s-.2 1.4-.2 1.6c0 .3.1.5.4.5.4 0 .8-.3 1.2-.8.3-.4.7-1.1 1.3-2 .3-.5.5-.7.8-.7.5 0 .8.6.8 1.9v1.2c.1 2.6-.5 4.4-1.9 5.6zm15.7-8.3c-.1.2-.3.3-.5.3s-.5-.1-.7-.2h-1.9c-.3 1.4-.5 2.2-.6 2.6-.2 1-.3 1.9-.4 2.7.2.1.3.3.3.6 0 .2-.1.3-.2.5-.2.1-.3.2-.5.2-.6 0-.9-.5-.9-1.4 0-.5.1-1.4.3-2.5l.5-2.5c-.5 0-.8-.2-.8-.8 0-.3.1-.5.3-.6.1-.1.4-.1.8-.1.5-1.9.8-3.3 1.2-4.4.1-.4.3-.6.6-.6.5 0 .7.3.8.8-.1.4-.2.8-.4 1.3-.2.7-.4 1.7-.7 2.8h1.3c1 .1 1.5.4 1.5.9.2 0 .2.2 0 .4zm5.9 4.7c-.6.8-1.3 1.2-2.2 1.2-.7 0-1.4-.3-1.9-.9-.5-.6-.7-1.3-.7-2.2 0-.8.2-1.5.5-2.2.4-.7.8-1.3 1.4-1.6.1-.1.3-.2.6-.3.2-.1.4-.2.5-.2 0 0 .2 0 .4.1.6.2 1.1.6 1.5 1.1.4.6.6 1.2.6 1.9.1 1.3-.2 2.3-.7 3.1zm-1.1-4.2c-.3 0-.5-.1-.7-.2-.5 0-.9.3-1.2.9-.3.5-.4 1-.4 1.6 0 .4.1.8.3 1.1.2.3.5.5.8.5.4 0 .8-.3 1.1-.8.3-.5.5-1.1.5-1.7.1-.7 0-1.2-.4-1.4zm14.6-.9c-.1.1-.3.2-.5.2h-1c-.5 0-.7.2-.7.5 0 .2.2.9.7 2 .4 1.1.7 1.9.7 2.5 0 .5-.2.9-.6 1.3-.5.3-1.1.5-1.9.5-1.3 0-1.9-.3-1.9-.8 0-.2.1-.4.2-.6.1-.2.2-.3.4-.3 0 0 .2 0 .6.1.4.1.7.1.9.1.6 0 .9-.2.9-.6 0-.2-.2-.9-.7-2-.4-1.1-.6-1.9-.6-2.3 0-.8.4-1.4 1.2-1.7.2-.3.5-.4 1-.4.8 0 1.3.3 1.3.8.1.1.1.3.1.4.1.1.1.2-.1.3zm7.5.4c-.1.2-.3.3-.5.3s-.5-.1-.7-.2h-1.9c-.3 1.4-.5 2.2-.6 2.6-.2 1-.3 1.9-.4 2.7.2.1.3.3.3.6 0 .2-.1.3-.2.5-.2.1-.3.2-.5.2-.6 0-.9-.5-.9-1.4 0-.5.1-1.4.3-2.5l.5-2.5c-.5 0-.8-.2-.8-.8 0-.3.1-.5.3-.6.1-.1.4-.1.8-.1.5-1.9.8-3.3 1.2-4.4.1-.4.3-.6.6-.6.5 0 .7.3.8.8-.1.4-.2.8-.4 1.3-.2.7-.4 1.7-.7 2.8h1.3c1 .1 1.5.4 1.5.9.2 0 .1.2 0 .4zm5.8 4.7c-.6.8-1.3 1.2-2.2 1.2-.7 0-1.4-.3-1.9-.9-.5-.6-.7-1.3-.7-2.2 0-.8.2-1.5.5-2.2.4-.7.8-1.3 1.4-1.6.1-.1.3-.2.6-.3.2-.1.4-.2.5-.2 0 0 .2 0 .4.1.6.2 1.1.6 1.5 1.1.4.6.6 1.2.6 1.9.2 1.3-.1 2.3-.7 3.1zm-1-4.2c-.3 0-.5-.1-.7-.2-.5 0-.9.3-1.2.9-.3.5-.4 1-.4 1.6 0 .4.1.8.3 1.1.2.3.5.5.8.5.4 0 .8-.3 1.1-.8.3-.5.5-1.1.5-1.7.1-.7-.1-1.2-.4-1.4zm9.8-.4c-.4.2-.7.3-1 .3 0 0-.1 0-.3-.1-1.4.7-2.3 2.1-2.6 4.3-.1.6-.2.9-.2 1.1-.1.3-.3.5-.5.5s-.4-.1-.6-.3c-.2-.2-.2-.5-.2-.8 0-.1 0-.3.1-.7.1-.4.1-.8.1-1.3 0-.4-.1-1-.1-1.7-.3-.4-.5-1.1-.5-1.8 0-.2.1-.4.2-.5.1-.1.2-.2.4-.2.3 0 .6.2.8.5.1.3.3.8.4 1.6 1.1-1.6 2.3-2.4 3.7-2.4.2 0 .4.1.7.3.2.2.3.4.3.7-.2.1-.4.3-.7.5zm6.4 6c-1.3 0-2.3-.6-3-1.8h-.5c-.5 0-.9-.1-1.4-.3-.6-.2-.9-.6-.9-1 0-.5.2-.7.7-.7.1 0 .3.1.5.3.2.2.5.3.7.3h.4c-.1-.3-.1-.5-.1-.7 0-.8.2-1.6.6-2.4.5-.9 1.1-1.3 1.9-1.3.4 0 .9.2 1.3.6.4.4.6.9.6 1.4 0 1.3-.9 2.4-2.7 3.4.4.5.9.8 1.4.8.1 0 .4 0 .7-.1.3 0 .5-.1.7-.1.2 0 .4.1.5.2.1.2.2.4.2.5.2.6-.4.9-1.6.9zm-.6-6c-.1-.1-.3-.2-.4-.2-.3 0-.6.3-.7.8-.2.4-.2.9-.2 1.4v.3c1.1-.7 1.6-1.3 1.6-1.9-.1-.1-.2-.2-.3-.4zM158.8 40.5c4.2-1.9 6.1-6.8 4.3-11.1-1.5-3.5-5.2-5.5-8.9-5 1.8-3.2 1.3-7.4-1.4-10.1-2.7-2.7-6.9-3.2-10.1-1.4.5-3.7-1.5-7.3-5-8.9-4.2-1.8-9.2.1-11.1 4.3-.1-4.6-3.8-8.3-8.4-8.3s-8.4 3.7-8.4 8.3C107.9 4.1 103 2.2 98.7 4c-3.5 1.5-5.5 5.2-5 8.9-3.2-1.8-7.4-1.3-10.1 1.4-2.7 2.7-3.2 6.9-1.4 10.1-3.7-.5-7.3 1.5-8.9 5-1.8 4.2.1 9.2 4.3 11.1-4.6.1-8.3 3.8-8.3 8.4 0 4.6 3.7 8.4 8.3 8.4-4.2 1.9-6.1 6.8-4.3 11.1 1.5 3.5 5.2 5.5 8.9 5-1.8 3.2-1.3 7.4 1.4 10.1 2.7 2.7 6.9 3.2 10.1 1.4-.5 3.7 1.5 7.3 5 8.9 4.2 1.8 9.2-.1 11.1-4.3.1 4.6 3.8 8.3 8.4 8.3 4.6 0 8.4-3.7 8.4-8.3 1.9 4.2 6.8 6.1 11.1 4.3 3.5-1.5 5.5-5.2 5-8.9 3.2 1.8 7.4 1.3 10.1-1.4 2.7-2.7 3.2-6.9 1.4-10.1 3.6.5 7.3-1.5 8.9-5 1.8-4.2-.1-9.2-4.3-11.1 4.6-.1 8.3-3.8 8.3-8.4 0-4.6-3.7-8.4-8.3-8.4"/><path d="M152.9 36.4c-1.3-2.4-5.5-3-7.9-3.5-3.8-.8-7.6-.3-11.4.5-.7.2-1.4.3-2 .5-.8-4.2-4.5-5.4-8.9-5.4h-9c-4.5 0-8.1 1.2-8.9 5.4-.6-.2-1.3-.4-2.1-.6-3.7-.8-7.6-1.3-11.4-.5-2.4.5-6.6 1.1-7.9 3.5-.6 1.2-.6 3.4.1 4.5 1.5 2.4 6.7 2.1 9 1.8 4-.5 8-2 12.1-1.8l2 21.5c0 5 4.1 9.1 9.1 9.1h4.9c5 0 9.1-4.1 9.1-9.1l2-21.5c4-.1 8 1.4 11.9 1.8 2.4.3 7.5.6 9-1.8.9-1 .9-3.2.3-4.4" fill="#fff"/><defs><path id="SVGID_1_" d="M113.8 28.5c-4.5 0-8.1 1.2-8.9 5.4-.6-.2-1.3-.4-2.1-.6-3.7-.8-7.6-1.3-11.4-.5-2.4.5-6.6 1.1-7.9 3.5-.6 1.2-.6 3.4.1 4.5 1.5 2.4 6.7 2.1 9 1.8 4-.5 8-2 12.1-1.8l2 21.5c0 5 4.1 9.1 9.1 9.1h4.9c5 0 9.1-4.1 9.1-9.1l2-21.5c4-.1 8 1.4 11.9 1.8 2.4.3 7.5.6 9-1.8.7-1.1.8-3.4.1-4.5-1.3-2.4-5.5-3.1-7.9-3.5-3.8-.8-7.6-.3-11.4.5-.7.2-1.4.3-2 .5-.8-4.2-4.5-5.4-8.9-5.4h-8.8z"/></defs><clipPath id="SVGID_2_"><use xlink:href="#SVGID_1_" overflow="visible"/></clipPath><path d="M121.9 67.7s-5.3 1.8-1.9 5.1m-4.7-5.1s5.3 1.8 1.9 5.1" clip-path="url(#SVGID_2_)" fill="none" stroke="#c9c7cc" stroke-width=".826"/><g><path d="M113.6 45.7c0 .8-.7 1.5-1.5 1.5s-1.5-.7-1.5-1.5.7-1.5 1.5-1.5c.8-.1 1.5.6 1.5 1.5m11.9 0c0 .8-.7 1.5-1.5 1.5s-1.5-.7-1.5-1.5.7-1.5 1.5-1.5 1.5.6 1.5 1.5" fill="#1d1d1b"/><path d="M152.8 40.9c.4-.7.6-1.7.5-2.7-2.1-1.3-5.7-2.2-9.9-2.2-6.4 0-11.7 2.1-11.7 4.6 0 .1.1.3.1.4v-.2c4-.1 8 1.4 11.9 1.8 2.4.4 7.5.7 9.1-1.7m-69.2 0c-.4-.7-.6-1.7-.5-2.7 2.1-1.3 5.7-2.2 9.9-2.2 6.4 0 11.7 2.1 11.7 4.6 0 .1-.1.3-.1.4v-.2c-4-.1-8 1.4-11.9 1.8-2.4.4-7.6.7-9.1-1.7" fill="#fad8d7"/></g></svg>