<svg xmlns="http://www.w3.org/2000/svg" xmlns:xlink="http://www.w3.org/1999/xlink" viewBox="0 0 111.2 111.2"><defs><path id="a" d="M0 1.9h111.2v107.4H0z"/></defs><clipPath id="b"><use xlink:href="#a" overflow="visible"/></clipPath><path d="M49.3 84.1c0-3.5-2.8-6.3-6.4-6.3M63.3 34c0 3.5 2.8 6.3 6.4 6.3M49.3 34c0 3.5-2.8 6.3-6.4 6.3m20.4 43.8c0-3.5 2.8-6.3 6.4-6.3m-30.4-22V30.7H73v56.9H54.5M39.3 42.4l-5.9 7.1c-2.8 3.5-4.2 7.8-4.2 12.2v40.1m5.1-22.6v-16c0-.9.7-1.5 1.6-1.5 3.8 0 6.9 3.1 6.9 6.8v11.6c0 1.2.4 2.3 1.1 3.2l4.6 5.9c.7.9 1.1 2 1.1 3.2v9.5" clip-path="url(#b)" fill="none" stroke="#ec1c59" stroke-width="2.465" stroke-linecap="round" stroke-linejoin="round" stroke-miterlimit="10"/><path d="M50.5 64.5l1.2-.3v-4H51c-.7 0-1.2-.5-1.2-1.2 0-.6.5-1.2 1.2-1.2h.7v-2.1c0-1.7.5-3 1.4-3.9.9-.9 2.2-1.4 3.8-1.4 2.1 0 3.4.8 4.4 1.8.2.2.4.6.4 1 0 .8-.6 1.4-1.4 1.4-.5 0-.8-.2-1-.4-.7-.7-1.4-1.2-2.4-1.2-.7 0-1.2.2-1.7.6-.5.5-.7 1.2-.7 2.2v2H59c.6 0 1.2.5 1.2 1.2s-.5 1.2-1.2 1.2h-4.6V64h6.2c.7 0 1.2.5 1.2 1.2s-.5 1.2-1.2 1.2h-9.9c-.6 0-1.1-.4-1.1-1 .1-.4.4-.8.9-.9" clip-path="url(#b)" fill="#ec1c59"/><path d="M18.6 97.1c-3.4-3.2-3.6-8.6-.5-12.1.3-.3.3-.8.1-1.1-.2-.4-.7-.5-1.1-.3-4.3 1.8-9.3-.2-11.2-4.5-1.9-4.3.1-9.4 4.4-11.3.4-.2.6-.6.5-1-.1-.4-.5-.7-.9-.7-4.7-.1-8.5-3.9-8.5-8.6 0-3.8 2.6-7.2 6.3-8.3.3-.1.6-.4.6-.7.1-.3-.1-.7-.3-.9-3-2.3-4.2-6.4-2.8-10 1.4-3.6 5-5.8 8.9-5.4.3 0 .7-.1.9-.4.2-.3.2-.7 0-1-2-3.3-1.5-7.5 1.1-10.3 3.2-3.4 8.6-3.6 12.1-.5.3.3.8.3 1.1.1.4-.2.5-.7.3-1.1-1.8-4.3.2-9.4 4.5-11.2s9.3.1 11.3 4.4c.2.4.6.6 1 .5.4-.1.7-.5.7-.9-.1-4.8 3.8-8.6 8.5-8.6 3.8 0 7.2 2.6 8.3 6.3.1.3.4.6.7.6.3.1.7-.1.9-.3 2.3-3 6.4-4.2 10-2.8 3.6 1.4 5.8 5 5.4 8.9 0 .3.1.7.4.9.3.2.7.2 1 0 3.3-2 7.5-1.5 10.3 1.1 3.4 3.2 3.6 8.6.5 12.1-.3.3-.3.8-.1 1.1.2.4.7.5 1.1.3 4.3-1.8 9.4.2 11.2 4.5 1.9 4.3-.1 9.4-4.4 11.3-.4.2-.6.6-.5 1 .1.4.5.7.9.7 4.7.1 8.5 3.9 8.5 8.6 0 3.8-2.6 7.2-6.3 8.3-.3.1-.6.4-.6.7-.1.3.1.7.3.9 3 2.3 4.2 6.4 2.8 10-1.4 3.6-5 5.8-8.9 5.4-.3 0-.7.1-.9.4-.2.3-.2.7 0 1 2 3.3 1.5 7.5-1.1 10.3-3.2 3.4-8.6 3.6-12.1.5-.3-.3-.8-.3-1.1-.1-.3.2-.5.7-.3 1.1 1.8 4.3-.2 9.4-4.5 11.2-4.3 1.9-9.3-.1-11.3-4.4" clip-path="url(#b)" fill="none" stroke="#333232" stroke-width="2.723" stroke-linecap="round" stroke-linejoin="round"/></svg>