<svg xmlns="http://www.w3.org/2000/svg" xmlns:xlink="http://www.w3.org/1999/xlink" viewBox="0 0 98 98"><defs><path id="a" d="M0 0h89.5v98H0z"/></defs><clipPath id="b"><use xlink:href="#a" overflow="visible"/></clipPath><path d="M72.1 82.6c1.6 3.8-.2 8.2-3.9 9.8-3.8 1.6-8.2-.1-9.9-3.8-.2-.3-.5-.5-.9-.5-.4.1-.6.4-.6.8-.1 4.1-3.4 7.4-7.5 7.4-3.4 0-6.3-2.2-7.3-5.5-.1-.3-.3-.5-.6-.6-.3-.1-.6.1-.8.3-2 2.7-5.6 3.7-8.8 2.4-3.1-1.2-5.1-4.4-4.7-7.7 0-.3-.1-.6-.4-.8-.3-.2-.6-.2-.8 0-2.9 1.7-6.6 1.3-9-.9-3-2.8-3.2-7.5-.4-10.5.3-.3.3-.7.1-1-.2-.3-.6-.4-1-.3-3.8 1.6-8.2-.2-9.8-3.9-1.6-3.8.1-8.2 3.8-9.8.3-.2.5-.5.5-.9-.1-.4-.4-.6-.8-.6-4.3 0-7.7-3.4-7.7-7.5 0-3.3 2.3-6.3 5.5-7.2.3-.1.5-.3.6-.6.1-.3-.1-.6-.3-.8-2.7-2-3.7-5.6-2.4-8.7 1.2-3.1 4.4-5.1 7.8-4.7.3 0 .6-.1.8-.4.2-.3.2-.6 0-.8-1.7-2.9-1.4-6.6.9-9 2.8-3 7.5-3.2 10.6-.4.3.3.7.3 1 .1.3-.2.4-.6.3-1-1.6-3.8.2-8.2 3.9-9.8 3.8-1.6 8.2.1 9.9 3.8.2.3.5.5.9.5.4-.1.6-.4.6-.8.1-4.1 3.4-7.4 7.5-7.4 3.4 0 6.3 2.2 7.3 5.5.1.3.3.5.6.6s.6-.1.8-.3c2-2.7 5.6-3.7 8.8-2.4 3.1 1.2 5.1 4.4 4.7 7.7 0 .3.1.6.4.8.3.2.6.2.8 0 2.9-1.7 6.6-1.4 9 .9" clip-path="url(#b)" fill="none" stroke="#3f4043" stroke-width="3.274" stroke-linecap="round" stroke-linejoin="round"/><path d="M36.1 21.1h-2.9l-1.4 6.6 1.4.3v25.3h2.9V28l1.4-.3-1.4-6.6zm-1.5 58.5h0c-1.7 0-3-1.4-3-3.2V54.5c0-.7.5-1.2 1.1-1.2h3.8c.6 0 1.1.5 1.1 1.2v21.9c.1 1.8-1.3 3.2-3 3.2z" clip-path="url(#b)" fill="none" stroke="#ec1c59" stroke-width="1.793" stroke-linecap="round" stroke-linejoin="round" stroke-miterlimit="10"/><path fill="#ec1c59" d="M51.3 36.4h6.1v9.9h-6.1z"/><path fill="none" stroke="#ec1c59" stroke-width="1.793" stroke-linecap="round" stroke-linejoin="round" stroke-miterlimit="10" d="M51.3 36.4h6.1v9.9h-6.1z"/><defs><path id="c" d="M0 0h89.5v98H0z"/></defs><clipPath id="d"><use xlink:href="#c" overflow="visible"/></clipPath><path d="M75.8 37.8V43m-3.4-5.2V43M69 37.8V43m-21-1.6h-6.6m16.2-5.7v11.5c0 1 .8 1.8 1.8 1.8h12.4c1.1 0 1.9.9 1.9 1.9v8.5c0 4.1 3.4 7.5 7.5 7.5s7.5-3.4 7.5-7.5V35.8c0-1.1-.9-1.9-1.9-1.9H59.3c-.9 0-1.7.8-1.7 1.8zM51.2 45H48v-7.2h3.2V45z" clip-path="url(#d)" fill="none" stroke="#ec1c59" stroke-width="1.793" stroke-linecap="round" stroke-linejoin="round" stroke-miterlimit="10"/></svg>