<svg version="1.1" id="Layer_1" xmlns="http://www.w3.org/2000/svg" xmlns:xlink="http://www.w3.org/1999/xlink" x="0" y="0" viewBox="115 -114 357 357" xml:space="preserve"><style>.st0{clip-path:url(#SVGID_2_);fill:#fff}</style><defs><path id="SVGID_1_" d="M115.7-88h356.7v304.6H115.7z"/></defs><clipPath id="SVGID_2_"><use xlink:href="#SVGID_1_" overflow="visible"/></clipPath><path class="st0" d="M462.1 136.3h-336V-77.6h336v213.9zm-131.2 48.4h-73.7v-38.1h73.7v38.1zm25.2 21.6H232v-11.1h124.1v11.1zM467.2-88H120.9c-2.9 0-5.2 2.3-5.2 5.2v224.3c0 2.9 2.3 5.2 5.2 5.2h125.9v38.1h-20c-2.9 0-5.2 2.3-5.2 5.2v21.5c0 2.9 2.3 5.2 5.2 5.2h134.5c2.9 0 5.2-2.3 5.2-5.2V190c0-2.9-2.3-5.2-5.2-5.2h-20v-38.1h125.9c2.9 0 5.2-2.3 5.2-5.2V-82.8c0-2.9-2.3-5.2-5.2-5.2"/><path class="st0" d="M151.3-52.4h285.5V111H151.3V-52.4zm-5.2 173.8H442c2.9 0 5.2-2.3 5.2-5.2V-57.6c0-2.9-2.3-5.2-5.2-5.2H146.1c-2.9 0-5.2 2.3-5.2 5.2v173.8c0 2.9 2.3 5.2 5.2 5.2"/><path class="st0" d="M316.7-19.1c-2-2-5.3-2-7.3 0l-76 76c-2 2-2 5.3 0 7.3 1 1 2.3 1.5 3.7 1.5 1.3 0 2.7-.5 3.7-1.5l76-76c2-2 2-5.2-.1-7.3m30.7 0l-76 76c-2 2-2 5.3 0 7.3 1 1 2.3 1.5 3.7 1.5s2.7-.5 3.7-1.5l76-76c2-2 2-5.3 0-7.3-2.1-2-5.3-2-7.4 0"/></svg>