<svg xmlns="http://www.w3.org/2000/svg" xmlns:xlink="http://www.w3.org/1999/xlink" viewBox="0 0 247.7 244.2"><defs><path id="a" d="M39 37.6h172.4V210H39z"/></defs><clipPath id="b"><use xlink:href="#a" overflow="visible"/></clipPath><path d="M196.7 108.9c7.4-3.3 10.8-12 7.5-19.5-2.7-6.2-9.2-9.7-15.6-8.8 3.2-5.7 2.4-13-2.5-17.8-4.8-4.8-12.1-5.6-17.8-2.5.9-6.4-2.6-12.9-8.8-15.6-7.5-3.3-16.2.1-19.5 7.5-.1-8.1-6.7-14.7-14.9-14.7s-14.8 6.6-14.9 14.7c-3.3-7.4-12-10.8-19.5-7.5-6.2 2.7-9.7 9.2-8.8 15.6-5.7-3.2-13-2.4-17.8 2.5-4.8 4.8-5.6 12.1-2.5 17.8-6.4-.9-12.9 2.6-15.6 8.8-3.3 7.5.1 16.2 7.5 19.5-7.9.1-14.5 6.7-14.5 14.9s6.6 14.8 14.7 14.9c-7.4 3.3-10.8 12-7.5 19.5 2.7 6.2 9.2 9.7 15.6 8.8-3.2 5.7-2.4 13 2.5 17.8 4.8 4.8 12.1 5.6 17.8 2.5-.9 6.4 2.6 12.9 8.8 15.6 7.5 3.3 16.2-.1 19.5-7.5.1 8.1 6.7 14.7 14.9 14.7s14.8-6.6 14.9-14.7c3.3 7.4 12 10.8 19.5 7.5 6.2-2.7 9.7-9.2 8.8-15.6 5.7 3.2 13 2.4 17.8-2.5 4.8-4.8 5.6-12.1 2.5-17.8 6.4.9 12.9-2.6 15.6-8.8 3.3-7.5-.1-16.2-7.5-19.5 8.1-.1 14.7-6.7 14.7-14.9-.2-8.2-6.8-14.8-14.9-14.9" clip-path="url(#b)" fill="#f89521"/><path d="M186.3 101.7c-2.3-4.3-9.7-5.4-13.9-6.2-6.7-1.3-13.4-.5-20 .9-1.3.3-2.4.5-3.5.9-1.4-7.4-7.9-9.5-15.7-9.5h-15.8c-7.8 0-14.4 2.1-15.7 9.6-1.1-.4-2.3-.7-3.7-1-6.6-1.4-13.3-2.2-20-.9-4.3.8-11.6 1.9-13.9 6.2-1.1 2.1-1.1 6 .2 8 2.7 4.2 11.7 3.7 15.9 3.2 7.1-.9 14.2-3.5 21.3-3.2l3.6 37.9c0 8.8 7.2 16 16 16h8.7c8.8 0 16-7.2 16-16l3.6-37.9c7-.2 14 2.4 21 3.2 4.2.5 13.2 1.1 15.9-3.2 1.1-2 1.2-5.9 0-8" clip-path="url(#b)" fill="#fff"/><path d="M117.1 118c0 1.5-1.2 2.7-2.7 2.7-1.5 0-2.7-1.2-2.7-2.7 0-1.5 1.2-2.7 2.7-2.7 1.5.1 2.7 1.3 2.7 2.7m20.9 0c0 1.5-1.2 2.7-2.7 2.7-1.5 0-2.7-1.2-2.7-2.7 0-1.5 1.2-2.7 2.7-2.7 1.5.1 2.7 1.3 2.7 2.7" clip-path="url(#b)"/><path d="M186.1 109.7c.8-1.2 1-3 .9-4.7-3.6-2.3-10.1-3.9-17.5-3.9-11.4 0-20.6 3.6-20.6 8.1 0 .2.1.5.2.7v-.3c7-.2 14 2.4 21 3.2 4.3.6 13.3 1.1 16-3.1m-121.9 0c-.8-1.2-1-3-.9-4.7 3.6-2.3 10.1-3.9 17.5-3.9 11.4 0 20.6 3.6 20.6 8.1 0 .2-.1.5-.2.7v-.3c-7-.2-14 2.4-21 3.2-4.3.6-13.3 1.1-16-3.1" fill="#fcdad8" clip-path="url(#b)"/></svg>