<svg version="1.1" id="Layer_1" xmlns="http://www.w3.org/2000/svg" xmlns:xlink="http://www.w3.org/1999/xlink" x="0" y="0" viewBox="0 0 128 128" xml:space="preserve"><style>.st0{opacity:.5}.st3{clip-path:url(#XMLID_14_);fill:none;stroke:#d3d6d8;stroke-width:1.082}.st4,.st5{clip-path:url(#XMLID_15_)}.st5{fill:#fcdad8}</style><g class="st0"><defs><path id="XMLID_9_" class="st0" d="M-.2 0H128v128.2H-.2z"/></defs><clipPath id="XMLID_13_"><use xlink:href="#XMLID_9_" overflow="visible"/></clipPath><path id="XMLID_11_" d="M117.1 53c5.5-2.5 8-8.9 5.6-14.5-2-4.6-6.8-7.2-11.6-6.5 2.4-4.2 1.8-9.6-1.8-13.2-3.6-3.6-9-4.2-13.2-1.8.6-4.8-1.9-9.6-6.5-11.6C84 3 77.6 5.5 75.1 11 74.9 4.9 70 0 63.9 0s-11 4.9-11.1 10.9c-2.5-5.5-8.9-8-14.5-5.6-4.6 2-7.2 6.8-6.5 11.6-4.2-2.4-9.6-1.8-13.2 1.8-3.6 3.6-4.2 9-1.8 13.2-4.8-.6-9.6 1.9-11.6 6.5-2.4 5.6.1 12 5.6 14.5C4.8 53-.1 57.9-.1 64s4.9 11 10.9 11.1c-5.5 2.5-8 8.9-5.6 14.5 2 4.6 6.8 7.2 11.6 6.5-2.4 4.2-1.7 9.6 1.8 13.2 3.6 3.6 9 4.2 13.2 1.8-.6 4.8 1.9 9.6 6.5 11.6 5.6 2.4 12-.1 14.5-5.6.1 6 5 10.9 11.1 10.9s11-4.9 11.1-10.9c2.5 5.5 8.9 8 14.5 5.6 4.6-2 7.2-6.8 6.5-11.6 4.2 2.4 9.6 1.8 13.2-1.8 3.6-3.6 4.2-9 1.8-13.2 4.8.6 9.6-1.9 11.6-6.5 2.4-5.6-.1-12-5.6-14.5 6-.1 10.9-5 10.9-11.1.1-6-4.8-10.9-10.8-11" clip-path="url(#XMLID_13_)" fill="#ec1c59"/><path id="XMLID_10_" d="M109.4 47.7c-1.7-3.2-7.2-4-10.3-4.6-5-1-10-.4-14.9.7-1 .2-1.8.4-2.6.7-1-5.5-5.9-7-11.7-7H58.2c-5.8 0-10.7 1.6-11.7 7.1-.8-.3-1.7-.5-2.8-.7-4.9-1-9.9-1.7-14.9-.7-3.2.6-8.6 1.4-10.3 4.6-.8 1.5-.8 4.4.1 5.9 2 3.1 8.7 2.7 11.8 2.3 5.3-.6 10.5-2.6 15.8-2.4l2.6 28.2c0 6.6 5.3 11.9 11.9 11.9h6.5c6.6 0 11.9-5.3 11.9-11.9l2.6-28.2c5.2-.1 10.4 1.8 15.6 2.4 3.1.4 9.8.8 11.8-2.3 1.1-1.6 1.1-4.5.3-6" clip-path="url(#XMLID_13_)" fill="#fff"/></g><g class="st0"><defs><path id="XMLID_6_" class="st0" d="M58.2 37.3c-5.8 0-10.7 1.6-11.7 7.1-.8-.3-1.7-.5-2.8-.7-4.9-1-9.9-1.7-14.9-.7-3.2.6-8.6 1.4-10.3 4.6-.8 1.5-.8 4.4.1 5.9 2 3.1 8.7 2.7 11.8 2.3 5.3-.6 10.5-2.6 15.8-2.4l2.6 28.2c0 6.6 5.3 11.9 11.9 11.9h6.5c6.6 0 11.9-5.3 11.9-11.9l2.6-28.2c5.2-.1 10.4 1.8 15.6 2.4 3.1.4 9.8.8 11.8-2.3 1-1.5 1-4.4.1-5.9-1.7-3.2-7.2-4-10.3-4.6-5-1-10-.4-14.9.7-1 .2-1.8.4-2.6.7-1-5.5-5.9-7-11.7-7H58.2z"/></defs><clipPath id="XMLID_14_"><use xlink:href="#XMLID_6_" overflow="visible"/></clipPath><path id="XMLID_8_" class="st3" d="M68.8 88.6s-7 2.3-2.5 6.7"/><path id="XMLID_7_" class="st3" d="M60.1 88.6s7 2.3 2.5 6.7"/></g><g class="st0"><defs><path id="XMLID_1_" class="st0" d="M-.2 0H128v128.2H-.2z"/></defs><clipPath id="XMLID_15_"><use xlink:href="#XMLID_1_" overflow="visible"/></clipPath><path id="XMLID_5_" class="st4" d="M57.9 59.8c0 1.1-.9 2-2 2s-2-.9-2-2 .9-2 2-2 2 .9 2 2"/><path id="XMLID_4_" class="st4" d="M73.4 59.8c0 1.1-.9 2-2 2s-2-.9-2-2 .9-2 2-2 2 .9 2 2"/><path id="XMLID_3_" class="st5" d="M109.2 53.6c.6-.9.8-2.2.7-3.5-2.7-1.7-7.5-2.9-13-2.9-8.4 0-15.3 2.7-15.3 6 0 .2.1.4.1.5v-.2c5.2-.1 10.4 1.8 15.6 2.4 3.2.4 9.9.8 11.9-2.3"/><path id="XMLID_2_" class="st5" d="M18.6 53.6c-.6-.9-.8-2.2-.7-3.5 2.7-1.7 7.5-2.9 13-2.9 8.4 0 15.3 2.7 15.3 6 0 .2-.1.4-.1.5v-.2c-5.2-.1-10.4 1.8-15.6 2.4-3.2.4-9.9.8-11.9-2.3"/></g></svg>