<svg version="1.1" id="Layer_1" xmlns="http://www.w3.org/2000/svg" xmlns:xlink="http://www.w3.org/1999/xlink" x="0" y="0" viewBox="0 0 128 128" xml:space="preserve"><style>.st3{fill:#fff}.st3,.st4,.st5{clip-path:url(#XMLID_28_)}.st5{fill:#fcdad8}</style><g id="XMLID_2_"><defs><path id="XMLID_3_" d="M0 0h128v128H0z"/></defs><clipPath id="XMLID_28_"><use xlink:href="#XMLID_3_" overflow="visible"/></clipPath><path id="XMLID_27_" d="M122.8 25.7c2.6-1.2 3.8-4.3 2.7-7-1-2.3-3.2-3.5-5.5-3.2 1.1-2 .8-4.7-.9-6.4-1.7-1.7-4.3-2-6.3-.9.3-2.3-.9-4.7-3.1-5.6-2.6-1.2-5.7 0-6.9 2.7 0-2.9-2.4-5.3-5.2-5.3-2.9 0-5.2 2.4-5.2 5.3-1.2-2.7-4.2-3.9-6.9-2.7-2.2 1-3.4 3.3-3.1 5.6-2-1.1-4.6-.8-6.3.9-1.7 1.7-2 4.4-.9 6.4-2.3-.3-4.6.9-5.5 3.2-1.1 2.7 0 5.8 2.7 7-2.9 0-5.2 2.4-5.2 5.4 0 2.9 2.3 5.3 5.2 5.4-2.6 1.2-3.8 4.3-2.7 7 1 2.3 3.2 3.5 5.5 3.2-1.1 2-.8 4.7.9 6.4 1.7 1.7 4.3 2 6.3.9-.3 2.3.9 4.7 3.1 5.6 2.6 1.2 5.7 0 6.9-2.7 0 2.9 2.4 5.3 5.2 5.3 2.9 0 5.2-2.4 5.2-5.3 1.2 2.7 4.2 3.9 6.9 2.7 2.2-1 3.4-3.3 3.1-5.6 2 1.1 4.6.8 6.3-.9 1.7-1.7 2-4.4.9-6.4 2.3.3 4.6-.9 5.5-3.2 1.1-2.7 0-5.8-2.7-7 2.9 0 5.2-2.4 5.2-5.4 0-3-2.3-5.3-5.2-5.4" clip-path="url(#XMLID_28_)" fill="#f89521"/><path id="XMLID_26_" d="M122.8 91.6c2.6-1.2 3.8-4.3 2.7-7-1-2.3-3.2-3.5-5.5-3.2 1.1-2 .8-4.7-.9-6.4-1.7-1.7-4.3-2-6.3-.9.3-2.3-.9-4.7-3.1-5.6-2.6-1.2-5.7 0-6.9 2.7 0-2.9-2.4-5.3-5.2-5.3-2.9 0-5.2 2.4-5.2 5.3-1.2-2.7-4.2-3.9-6.9-2.7-2.2 1-3.4 3.3-3.1 5.6-2-1.1-4.6-.8-6.3.9-1.7 1.7-2 4.4-.9 6.4-2.3-.3-4.6.9-5.5 3.2-1.1 2.7 0 5.8 2.7 7-2.9 0-5.2 2.4-5.2 5.4 0 2.9 2.3 5.3 5.2 5.4-2.6 1.2-3.8 4.3-2.7 7 1 2.3 3.2 3.5 5.5 3.2-1.1 2-.8 4.7.9 6.4 1.7 1.7 4.3 2 6.3.9-.3 2.3.9 4.7 3.1 5.6 2.6 1.2 5.7 0 6.9-2.7 0 2.9 2.4 5.3 5.2 5.3 2.9 0 5.2-2.4 5.2-5.3 1.2 2.7 4.2 3.9 6.9 2.7 2.2-1 3.4-3.3 3.1-5.6 2 1.1 4.6.8 6.3-.9 1.7-1.7 2-4.4.9-6.4 2.3.3 4.6-.9 5.5-3.2 1.1-2.7 0-5.8-2.7-7 2.9 0 5.2-2.4 5.2-5.4 0-3-2.3-5.4-5.2-5.4" clip-path="url(#XMLID_28_)" fill="#99bce4"/><path id="XMLID_25_" d="M55.6 25.7c2.6-1.2 3.8-4.3 2.7-7-1-2.3-3.2-3.5-5.5-3.2 1.1-2 .8-4.7-.9-6.4-1.7-1.7-4.3-2-6.3-.9.3-2.3-.9-4.7-3.1-5.6-2.6-1.2-5.7 0-6.9 2.7 0-2.9-2.4-5.3-5.2-5.3-2.9 0-5.2 2.4-5.2 5.3C24 2.6 21 1.4 18.3 2.6c-2.2 1-3.4 3.3-3.1 5.6-2-1.1-4.6-.8-6.3.9s-2 4.4-.9 6.4c-2.3-.3-4.6.9-5.5 3.2-1.1 2.7 0 5.8 2.7 7-2.9 0-5.2 2.4-5.2 5.4 0 2.9 2.3 5.3 5.2 5.4-2.6 1.2-3.8 4.3-2.7 7 1 2.3 3.2 3.5 5.5 3.2-1.1 2-.8 4.7.9 6.4s4.3 2 6.3.9c-.3 2.3.9 4.7 3.1 5.6 2.6 1.2 5.7 0 6.9-2.7 0 2.9 2.4 5.3 5.2 5.3 2.9 0 5.2-2.4 5.2-5.3 1.2 2.7 4.2 3.9 6.9 2.7 2.2-1 3.4-3.3 3.1-5.6 2 1.1 4.6.8 6.3-.9 1.7-1.7 2-4.4.9-6.4 2.3.3 4.6-.9 5.5-3.2 1.1-2.7 0-5.8-2.7-7 2.9 0 5.2-2.4 5.2-5.4 0-3-2.3-5.3-5.2-5.4" clip-path="url(#XMLID_28_)" fill="#ec1c59"/><path id="XMLID_24_" class="st3" d="M119.2 23.1c-.8-1.5-3.4-1.9-4.9-2.2-2.4-.5-4.7-.2-7.1.3-.5.1-.9.2-1.2.3-.5-2.7-2.8-3.4-5.5-3.4h-5.6c-2.8 0-5.1.8-5.5 3.5-.4-.1-.8-.3-1.3-.4-2.3-.5-4.7-.8-7.1-.3-1.5.3-4.1.7-4.9 2.2-.4.7-.4 2.1.1 2.9 1 1.5 4.1 1.3 5.6 1.1 2.5-.3 5-1.3 7.5-1.2l1.3 13.7c0 3.2 2.5 5.8 5.6 5.8h3.1c3.1 0 5.6-2.6 5.6-5.8l1.3-13.7c2.5-.1 5 .9 7.4 1.2 1.5.2 4.7.4 5.6-1.1.3-.7.4-2.1 0-2.9"/><path id="XMLID_23_" class="st4" d="M94.7 29c0 .5-.4 1-.9 1s-.9-.4-.9-1c0-.5.4-1 .9-1s.9.5.9 1"/><path id="XMLID_22_" class="st4" d="M102.1 29c0 .5-.4 1-.9 1s-.9-.4-.9-1c0-.5.4-1 .9-1s.9.5.9 1"/><path id="XMLID_21_" class="st5" d="M119.1 26c.3-.4.4-1.1.3-1.7-1.3-.8-3.6-1.4-6.2-1.4-4 0-7.3 1.3-7.3 2.9 0 .1 0 .2.1.3V26c2.5-.1 5 .9 7.4 1.2 1.5.1 4.7.3 5.7-1.2"/><path id="XMLID_20_" class="st5" d="M76.1 26c-.3-.4-.4-1.1-.3-1.7 1.3-.8 3.6-1.4 6.2-1.4 4 0 7.3 1.3 7.3 2.9 0 .1 0 .2-.1.3V26c-2.5-.1-5 .9-7.4 1.2-1.6.1-4.8.3-5.7-1.2"/><path id="XMLID_19_" class="st3" d="M119.2 89c-.8-1.5-3.4-1.9-4.9-2.2-2.4-.5-4.7-.2-7.1.3-.5.1-.9.2-1.2.3-.5-2.7-2.8-3.4-5.5-3.4h-5.6c-2.8 0-5.1.8-5.5 3.5-.4-.1-.8-.3-1.3-.4-2.3-.5-4.7-.8-7.1-.3-1.6.2-4.2.6-5 2.2-.4.7-.4 2.1.1 2.9 1 1.5 4.1 1.3 5.6 1.1 2.5-.3 5-1.3 7.5-1.2l1.3 13.7c0 3.2 2.5 5.8 5.6 5.8h3.1c3.1 0 5.6-2.6 5.6-5.8l1.3-13.7c2.5-.1 5 .9 7.4 1.2 1.5.2 4.7.4 5.6-1.1.4-.8.5-2.2.1-2.9"/><path id="XMLID_18_" class="st4" d="M94.7 94.8c0 .5-.4 1-.9 1s-.9-.4-.9-1c0-.5.4-1 .9-1 .5.1.9.5.9 1"/><path id="XMLID_17_" class="st4" d="M102.1 94.8c0 .5-.4 1-.9 1s-.9-.4-.9-1c0-.5.4-1 .9-1 .5.1.9.5.9 1"/><path id="XMLID_16_" class="st5" d="M119.1 91.8c.3-.4.4-1.1.3-1.7-1.3-.8-3.6-1.4-6.2-1.4-4 0-7.3 1.3-7.3 2.9 0 .1 0 .2.1.3v-.1c2.5-.1 5 .9 7.4 1.2 1.5.2 4.7.4 5.7-1.2"/><path id="XMLID_15_" class="st5" d="M76.1 91.8c-.3-.4-.4-1.1-.3-1.7 1.3-.8 3.6-1.4 6.2-1.4 4 0 7.3 1.3 7.3 2.9 0 .1 0 .2-.1.3v-.1c-2.5-.1-5 .9-7.4 1.2-1.6.2-4.8.4-5.7-1.2"/><path id="XMLID_14_" class="st3" d="M52 23.1c-.8-1.5-3.4-1.9-4.9-2.2-2.4-.5-4.7-.2-7.1.3-.5.1-.9.2-1.2.3-.5-2.7-2.8-3.4-5.5-3.4h-5.6c-2.8 0-5.1.8-5.5 3.5-.4-.1-.8-.3-1.3-.4-2.3-.5-4.7-.8-7.1-.3-1.5.3-4.1.7-4.9 2.2-.4.7-.4 2.1.1 2.9 1 1.5 4.1 1.3 5.6 1.1 2.5-.3 5-1.3 7.5-1.2l1.3 13.7c0 3.2 2.5 5.8 5.6 5.8h3c3.1 0 5.6-2.6 5.6-5.8L38.9 26c2.5-.1 5 .9 7.4 1.2 1.5.2 4.7.4 5.6-1.1.5-.8.5-2.2.1-3"/><path id="XMLID_13_" class="st4" d="M27.6 29c0 .5-.4 1-.9 1s-.9-.4-.9-1c0-.5.4-1 .9-1 .4 0 .9.5.9 1"/><path id="XMLID_12_" class="st4" d="M34.9 29c0 .5-.4 1-.9 1s-.9-.4-.9-1c0-.5.4-1 .9-1s.9.5.9 1"/><path id="XMLID_11_" class="st5" d="M51.9 26c.3-.4.4-1.1.3-1.7-1.3-.8-3.6-1.4-6.2-1.4-4 0-7.3 1.3-7.3 2.9 0 .1 0 .2.1.3V26c2.5-.1 5 .9 7.4 1.2 1.6.1 4.8.3 5.7-1.2"/><path id="XMLID_10_" class="st5" d="M8.9 26c-.3-.4-.4-1.1-.3-1.7 1.3-.8 3.6-1.4 6.2-1.4 4 0 7.3 1.3 7.3 2.9 0 .1 0 .2-.1.3V26c-2.5-.1-5 .9-7.4 1.2-1.6.1-4.7.3-5.7-1.2"/><path id="XMLID_9_" d="M55.6 91.6c2.6-1.2 3.8-4.3 2.7-7-1-2.3-3.2-3.5-5.5-3.2 1.1-2 .8-4.7-.9-6.4-1.7-1.7-4.3-2-6.3-.9.3-2.3-.9-4.7-3.1-5.6-2.6-1.2-5.7 0-6.9 2.7 0-2.9-2.4-5.3-5.2-5.3-2.9 0-5.2 2.4-5.2 5.3-1.2-2.7-4.2-3.9-6.9-2.7-2.2 1-3.4 3.3-3.1 5.6-2-1.1-4.6-.8-6.3.9s-2 4.4-.9 6.4c-2.3-.3-4.6.9-5.5 3.2-1.1 2.7 0 5.8 2.7 7C2.3 91.6 0 94 0 96.9s2.3 5.3 5.2 5.4c-2.6 1.2-3.8 4.3-2.7 7 1 2.3 3.2 3.5 5.5 3.2-1.1 2-.8 4.7.9 6.4s4.3 2 6.3.9c-.3 2.3.9 4.7 3.1 5.6 2.6 1.2 5.7 0 6.9-2.7 0 2.9 2.4 5.3 5.2 5.3 2.9 0 5.2-2.4 5.2-5.3 1.2 2.7 4.2 3.9 6.9 2.7 2.2-1 3.4-3.3 3.1-5.6 2 1.1 4.6.8 6.3-.9 1.7-1.7 2-4.4.9-6.4 2.3.3 4.6-.9 5.5-3.2 1.1-2.7 0-5.8-2.7-7 2.9 0 5.2-2.4 5.2-5.4 0-2.9-2.3-5.3-5.2-5.3" clip-path="url(#XMLID_28_)" fill="#604a9e"/><path id="XMLID_8_" class="st3" d="M52 89c-.8-1.5-3.4-1.9-4.9-2.2-2.4-.5-4.7-.2-7.1.3-.5.1-.9.2-1.2.3-.5-2.7-2.8-3.4-5.5-3.4h-5.6c-2.8 0-5.1.8-5.5 3.5-.4-.1-.8-.3-1.3-.4-2.3-.5-4.7-.8-7.1-.3-1.6.2-4.1.6-5 2.2-.4.7-.4 2.1.1 2.9 1 1.5 4.1 1.3 5.6 1.1 2.5-.3 5-1.3 7.5-1.2l1.3 13.7c0 3.2 2.5 5.8 5.6 5.8H32c3.1 0 5.6-2.6 5.6-5.8l1.3-13.7c2.5-.1 5 .9 7.4 1.2 1.5.2 4.7.4 5.6-1.1.5-.8.5-2.2.1-2.9"/><path id="XMLID_7_" class="st4" d="M27.6 94.8c0 .5-.4 1-.9 1s-.9-.4-.9-1c0-.5.4-1 .9-1 .4.1.9.5.9 1"/><path id="XMLID_6_" class="st4" d="M34.9 94.8c0 .5-.4 1-.9 1s-.9-.4-.9-1c0-.5.4-1 .9-1 .5.1.9.5.9 1"/><path id="XMLID_5_" class="st5" d="M51.9 91.8c.3-.4.4-1.1.3-1.7-1.3-.8-3.6-1.4-6.2-1.4-4 0-7.3 1.3-7.3 2.9 0 .1 0 .2.1.3v-.1c2.5-.1 5 .9 7.4 1.2 1.6.2 4.8.4 5.7-1.2"/><path id="XMLID_4_" class="st5" d="M8.9 91.8c-.3-.4-.4-1.1-.3-1.7 1.3-.8 3.6-1.4 6.2-1.4 4 0 7.3 1.3 7.3 2.9 0 .1 0 .2-.1.3v-.1c-2.5-.1-5 .9-7.4 1.2-1.6.2-4.7.4-5.7-1.2"/></g></svg>