<svg version="1.1" id="Layer_1" xmlns="http://www.w3.org/2000/svg" xmlns:xlink="http://www.w3.org/1999/xlink" x="0" y="0" viewBox="0 0 128 128" xml:space="preserve"><style>.st3{clip-path:url(#XMLID_58_);fill:#ec1c59}.st7{fill:#fff}.st7,.st8,.st9{clip-path:url(#XMLID_58_)}.st9{fill:#fcdad8}</style><g id="XMLID_2_"><defs><path id="XMLID_3_" d="M0 0h128v128H0z"/></defs><clipPath id="XMLID_58_"><use xlink:href="#XMLID_3_" overflow="visible"/></clipPath><path id="XMLID_57_" d="M36.8 60.8c1.7-.8 2.5-2.8 1.8-4.6-.6-1.5-2.1-2.3-3.7-2.1.7-1.3.5-3.1-.6-4.2s-2.8-1.3-4.2-.6c.2-1.5-.6-3.1-2.1-3.7-1.7-.8-3.8 0-4.6 1.8 0-1.9-1.6-3.5-3.5-3.5s-3.4 1.6-3.5 3.5c-.8-1.8-2.8-2.6-4.6-1.8-1.5.6-2.3 2.2-2.1 3.7-1.3-.8-3-.6-4.2.6-1.1 1.1-1.3 2.9-.6 4.2-1.5-.2-3 .6-3.7 2.1C.4 58 1.2 60 3 60.8c-1.9 0-3.4 1.6-3.4 3.5s1.5 3.5 3.4 3.5c-1.7.8-2.5 2.8-1.8 4.6.6 1.5 2.1 2.3 3.7 2.1-.7 1.3-.5 3.1.6 4.2s2.8 1.3 4.2.6c-.2 1.5.6 3.1 2.1 3.7 1.7.8 3.8 0 4.6-1.8 0 1.9 1.6 3.5 3.5 3.5s3.4-1.6 3.5-3.5c.8 1.8 2.8 2.6 4.6 1.8 1.5-.6 2.3-2.2 2.1-3.7 1.3.8 3 .6 4.2-.6 1.1-1.1 1.3-2.9.6-4.2 1.5.2 3-.6 3.7-2.1.8-1.8 0-3.8-1.8-4.6 1.9 0 3.4-1.6 3.4-3.5.1-1.9-1.5-3.5-3.4-3.5" clip-path="url(#XMLID_58_)" fill="#ffcf3f"/><path id="XMLID_56_" d="M124.6 60.8c1.7-.8 2.5-2.8 1.8-4.6-.6-1.5-2.1-2.3-3.7-2.1.7-1.3.5-3.1-.6-4.2s-2.8-1.3-4.2-.6c.2-1.5-.6-3.1-2.1-3.7-1.7-.8-3.8 0-4.6 1.8 0-1.9-1.6-3.5-3.5-3.5s-3.4 1.6-3.5 3.5c-.8-1.8-2.8-2.6-4.6-1.8-1.5.6-2.3 2.2-2.1 3.7-1.3-.8-3-.6-4.2.6-1.1 1.1-1.3 2.9-.6 4.2-1.5-.2-3 .6-3.7 2.1-.8 1.8 0 3.8 1.8 4.6-1.9 0-3.4 1.6-3.4 3.5s1.5 3.5 3.4 3.5c-1.7.8-2.5 2.8-1.8 4.6.6 1.5 2.1 2.3 3.7 2.1-.7 1.3-.5 3.1.6 4.2s2.8 1.3 4.2.6c-.2 1.5.6 3.1 2.1 3.7 1.7.8 3.8 0 4.6-1.8 0 1.9 1.6 3.5 3.5 3.5s3.4-1.6 3.5-3.5c.8 1.8 2.8 2.6 4.6 1.8 1.5-.6 2.3-2.2 2.1-3.7 1.3.8 3 .6 4.2-.6 1.1-1.1 1.3-2.9.6-4.2 1.5.2 3-.6 3.7-2.1.8-1.8 0-3.8-1.8-4.6 1.9 0 3.4-1.6 3.4-3.5s-1.5-3.5-3.4-3.5" clip-path="url(#XMLID_58_)" fill="#99bce4"/><path id="XMLID_55_" d="M36.8 16.9c1.7-.8 2.5-2.8 1.8-4.6-.6-1.5-2.1-2.3-3.7-2.1.7-1.3.5-3.1-.6-4.2s-2.8-1.3-4.2-.6c.2-1.5-.6-3.1-2.1-3.7-1.7-.8-3.8 0-4.6 1.8C23.6 1.6 22 0 20.1 0s-3.4 1.6-3.5 3.5C15.8 1.7 13.8.9 12 1.7c-1.4.6-2.2 2.2-2 3.7-1.3-.8-3-.6-4.1.6-1.1 1.1-1.3 2.9-.6 4.2-1.5-.2-3 .6-3.7 2.1-.8 1.8 0 3.8 1.8 4.6-1.9 0-3.4 1.6-3.4 3.5s1.5 3.5 3.4 3.5c-1.7.8-2.5 2.8-1.8 4.6.6 1.5 2.1 2.3 3.7 2.1-.7 1.3-.5 3.1.6 4.2 1.1 1.2 2.8 1.4 4.1.6-.2 1.5.6 3.1 2.1 3.7 1.7.8 3.8 0 4.6-1.8 0 1.9 1.6 3.5 3.5 3.5s3.4-1.6 3.5-3.5c.8 1.8 2.8 2.6 4.6 1.8 1.5-.6 2.3-2.2 2.1-3.7 1.3.8 3 .6 4.2-.6 1.1-1.1 1.3-2.9.6-4.2 1.5.2 3-.6 3.7-2.1.8-1.8 0-3.8-1.8-4.6 1.9 0 3.4-1.6 3.4-3.5-.2-1.9-1.8-3.5-3.7-3.5" clip-path="url(#XMLID_58_)" fill="#604a9e"/><path id="XMLID_54_" class="st3" d="M124.6 16.9c1.7-.8 2.5-2.8 1.8-4.6-.6-1.5-2.1-2.3-3.7-2.1.7-1.3.5-3.1-.6-4.2s-2.8-1.3-4.2-.6c.2-1.5-.6-3.1-2.1-3.7-1.7-.8-3.8 0-4.6 1.8 0-1.9-1.6-3.5-3.5-3.5s-3.4 1.6-3.5 3.5c-.8-1.8-2.8-2.6-4.6-1.8-1.5.6-2.3 2.2-2.1 3.7-1.3-.8-3-.6-4.2.6-1.1 1.1-1.3 2.9-.6 4.2-1.5-.2-3 .6-3.7 2.1-.8 1.8 0 3.8 1.8 4.6-1.9 0-3.4 1.6-3.4 3.5s1.5 3.5 3.4 3.5c-1.7.8-2.5 2.8-1.8 4.6.6 1.5 2.1 2.3 3.7 2.1-.7 1.3-.5 3.1.6 4.2s2.8 1.3 4.2.6c-.2 1.5.6 3.1 2.1 3.7 1.7.8 3.8 0 4.6-1.8 0 1.9 1.6 3.5 3.5 3.5s3.4-1.6 3.5-3.5c.8 1.8 2.8 2.6 4.6 1.8 1.5-.6 2.3-2.2 2.1-3.7 1.3.8 3 .6 4.2-.6 1.1-1.1 1.3-2.9.6-4.2 1.5.2 3-.6 3.7-2.1.8-1.8 0-3.8-1.8-4.6 1.9 0 3.4-1.6 3.4-3.5s-1.5-3.5-3.4-3.5"/><path id="XMLID_53_" d="M124.6 104.1c1.7-.8 2.5-2.8 1.8-4.6-.6-1.5-2.1-2.3-3.7-2.1.7-1.3.5-3.1-.6-4.2s-2.8-1.3-4.2-.6c.2-1.5-.6-3.1-2.1-3.7-1.7-.8-3.8 0-4.6 1.8 0-1.9-1.6-3.5-3.5-3.5s-3.4 1.6-3.5 3.5c-.8-1.8-2.8-2.6-4.6-1.8-1.5.6-2.3 2.2-2.1 3.7-1.3-.8-3-.6-4.2.6-1.1 1.1-1.3 2.9-.6 4.2-1.5-.2-3 .6-3.7 2.1-.8 1.8 0 3.8 1.8 4.6-1.9 0-3.4 1.6-3.4 3.5s1.5 3.5 3.4 3.5c-1.7.8-2.5 2.8-1.8 4.6.6 1.5 2.1 2.3 3.7 2.1-.7 1.3-.5 3.1.6 4.2s2.8 1.3 4.2.6c-.2 1.5.6 3.1 2.1 3.7 1.7.8 3.8 0 4.6-1.8 0 1.9 1.6 3.5 3.5 3.5s3.4-1.6 3.5-3.5c.8 1.8 2.8 2.6 4.6 1.8 1.5-.6 2.3-2.2 2.1-3.7 1.3.8 3 .6 4.2-.6 1.1-1.1 1.3-2.9.6-4.2 1.5.2 3-.6 3.7-2.1.8-1.8 0-3.8-1.8-4.6 1.9 0 3.4-1.6 3.4-3.5 0-2-1.5-3.5-3.4-3.5" clip-path="url(#XMLID_58_)" fill="#8ec641"/><path id="XMLID_52_" d="M80.1 60.8c1.7-.8 2.5-2.8 1.8-4.6-.6-1.5-2.1-2.3-3.7-2.1.7-1.3.5-3.1-.6-4.2s-2.8-1.3-4.2-.6c.2-1.5-.6-3.1-2.1-3.7-1.7-.8-3.8 0-4.6 1.8 0-1.9-1.6-3.5-3.5-3.5s-3.4 1.6-3.5 3.5c-.8-1.8-2.8-2.6-4.6-1.8-1.5.6-2.3 2.2-2.1 3.7-1.3-.8-3-.6-4.2.6-1.1 1.1-1.3 2.9-.6 4.2-1.5-.2-3 .6-3.7 2.1-.8 1.8 0 3.8 1.8 4.6-1.9 0-3.4 1.6-3.4 3.5s1.5 3.5 3.4 3.5c-1.7.8-2.5 2.8-1.8 4.6.6 1.5 2.1 2.3 3.7 2.1-.7 1.3-.5 3.1.6 4.2s2.8 1.3 4.2.6c-.2 1.5.6 3.1 2.1 3.7 1.7.8 3.8 0 4.6-1.8 0 1.9 1.6 3.5 3.5 3.5s3.4-1.6 3.5-3.5c.8 1.8 2.8 2.6 4.6 1.8 1.5-.6 2.3-2.2 2.1-3.7 1.3.8 3 .6 4.2-.6 1.1-1.1 1.3-2.9.6-4.2 1.5.2 3-.6 3.7-2.1.8-1.8 0-3.8-1.8-4.6 1.9 0 3.4-1.6 3.4-3.5s-1.5-3.5-3.4-3.5" clip-path="url(#XMLID_58_)" fill="#f89521"/><path id="XMLID_51_" d="M80.1 16.9c1.7-.8 2.5-2.8 1.8-4.6-.6-1.5-2.1-2.3-3.7-2.1.8-1.3.6-3.1-.5-4.2s-2.8-1.3-4.2-.6c.2-1.5-.6-3.1-2.1-3.7-1.7-.8-3.8 0-4.6 1.8 0-1.9-1.6-3.5-3.5-3.5s-3.4 1.6-3.5 3.5C59 1.7 57 .9 55.2 1.7c-1.5.6-2.3 2.2-2.1 3.7-1.3-.8-3-.6-4.2.6-1.1 1.1-1.3 2.9-.6 4.2-1.5-.2-3 .6-3.7 2.1-.8 1.8 0 3.8 1.8 4.6-1.9 0-3.4 1.6-3.4 3.5s1.5 3.5 3.4 3.5c-1.7.8-2.5 2.8-1.8 4.6.6 1.5 2.1 2.3 3.7 2.1-.7 1.3-.5 3.1.6 4.2s2.8 1.3 4.2.6c-.2 1.5.6 3.1 2.1 3.7 1.7.8 3.8 0 4.6-1.8 0 1.9 1.6 3.5 3.5 3.5s3.4-1.6 3.5-3.5c.8 1.8 2.8 2.6 4.6 1.8 1.5-.6 2.3-2.2 2.1-3.7 1.3.8 3 .6 4.2-.6 1.1-1.1 1.3-2.9.6-4.2 1.5.2 3-.6 3.7-2.1.8-1.8 0-3.8-1.8-4.6 1.9 0 3.4-1.6 3.4-3.5-.1-1.9-1.6-3.5-3.5-3.5" clip-path="url(#XMLID_58_)" fill="#51c0ab"/><path id="XMLID_50_" class="st7" d="M34.4 59.1c-.5-1-2.3-1.3-3.2-1.5-1.6-.3-3.1-.1-4.7.2-.3.1-.6.1-.8.2-.3-1.8-1.8-2.2-3.7-2.2h-3.7c-1.8 0-3.4.5-3.7 2.3-.3-.1-.5-.2-.9-.2-1.5-.3-3.1-.5-4.7-.2-1 .2-2.7.5-3.2 1.5-.3.5-.3 1.4 0 1.9.6 1 2.7.9 3.7.7 1.6-.2 3.3-.8 5-.8l.8 9c0 2.1 1.7 3.8 3.7 3.8h2c2.1 0 3.7-1.7 3.7-3.8l.8-9c1.6 0 3.3.6 4.9.8 1 .1 3.1.3 3.7-.7.6-.6.6-1.5.3-2"/><path id="XMLID_49_" class="st8" d="M18.2 63c0 .4-.3.6-.6.6s-.6-.3-.6-.6c0-.4.3-.6.6-.6.4-.1.6.2.6.6"/><path id="XMLID_48_" class="st8" d="M23.1 63c0 .4-.3.6-.6.6s-.6-.3-.6-.6c0-.4.3-.6.6-.6s.6.2.6.6"/><path id="XMLID_47_" class="st9" d="M34.4 61c.2-.3.2-.7.2-1.1-.8-.6-2.4-.9-4.1-.9-2.7 0-4.8.9-4.8 1.9v.2-.1c1.6 0 3.3.6 4.9.8 1 0 3.1.2 3.8-.8"/><path id="XMLID_46_" class="st9" d="M5.9 61c-.2-.3-.2-.7-.2-1.1.8-.6 2.4-.9 4.1-.9 2.7 0 4.8.9 4.8 1.9v.2-.1c-1.6 0-3.3.6-4.9.8-1.1 0-3.2.2-3.8-.8"/><path id="XMLID_45_" class="st7" d="M122.1 59.1c-.5-1-2.3-1.3-3.2-1.5-1.6-.3-3.1-.1-4.7.2-.3.1-.6.1-.8.2-.3-1.8-1.8-2.2-3.7-2.2H106c-1.8 0-3.4.5-3.7 2.3-.3-.1-.5-.2-.9-.2-1.5-.3-3.1-.5-4.7-.2-1 .2-2.7.5-3.2 1.5-.3.5-.3 1.4 0 1.9.6 1 2.7.9 3.7.7 1.6-.2 3.3-.8 5-.8l.8 9c0 2.1 1.7 3.8 3.7 3.8h2c2.1 0 3.7-1.7 3.7-3.8l.8-9c1.6 0 3.3.6 4.9.8 1 .1 3.1.3 3.7-.7.6-.6.6-1.5.3-2"/><path id="XMLID_44_" class="st8" d="M106 63c0 .4-.3.6-.6.6s-.6-.3-.6-.6c0-.4.3-.6.6-.6.3-.1.6.2.6.6"/><path id="XMLID_43_" class="st8" d="M110.9 63c0 .4-.3.6-.6.6s-.6-.3-.6-.6c0-.4.3-.6.6-.6.3-.1.6.2.6.6"/><path id="XMLID_42_" class="st9" d="M122.1 61c.2-.3.2-.7.2-1.1-.8-.6-2.4-.9-4.1-.9-2.7 0-4.8.9-4.8 1.9v.2-.1c1.6 0 3.3.6 4.9.8 1.1 0 3.2.2 3.8-.8"/><path id="XMLID_41_" class="st9" d="M93.6 61c-.2-.3-.2-.7-.2-1.1.8-.6 2.4-.9 4.1-.9 2.7 0 4.8.9 4.8 1.9v.2-.1c-1.6 0-3.3.6-4.9.8-1 0-3.1.2-3.8-.8"/><path id="XMLID_40_" class="st7" d="M34.4 15.2c-.5-1-2.3-1.3-3.2-1.5-1.6-.3-3.1-.1-4.7.2-.3.1-.6.1-.8.2-.3-1.8-1.8-2.2-3.7-2.2h-3.7c-1.8 0-3.4.5-3.7 2.3-.3-.1-.5-.2-.9-.2-1.5-.3-3.1-.5-4.7-.2-1 .2-2.7.5-3.2 1.5-.3.5-.3 1.4 0 1.9.6 1 2.7.9 3.7.7 1.6-.2 3.3-.8 5-.8l.8 9c0 2.1 1.7 3.8 3.7 3.8h2c2.1 0 3.7-1.7 3.7-3.8l.8-9c1.6 0 3.3.6 4.9.8 1 .1 3.1.3 3.7-.7.6-.6.6-1.5.3-2"/><path id="XMLID_39_" class="st8" d="M18.2 19.1c0 .4-.3.6-.6.6s-.6-.3-.6-.6c0-.4.3-.6.6-.6.4-.1.6.2.6.6"/><path id="XMLID_38_" class="st8" d="M23.1 19.1c0 .4-.3.6-.6.6s-.6-.3-.6-.6c0-.4.3-.6.6-.6s.6.2.6.6"/><path id="XMLID_37_" class="st9" d="M34.4 17.1c.2-.3.2-.7.2-1.1-.8-.6-2.4-.9-4.1-.9-2.7 0-4.8.9-4.8 1.9v.2-.1c1.6 0 3.3.6 4.9.8 1 .1 3.1.2 3.8-.8"/><path id="XMLID_36_" class="st9" d="M5.9 17.1c-.2-.3-.2-.7-.2-1.1.8-.6 2.3-1 4.1-1 2.7 0 4.8.9 4.8 1.9v.2-.1c-1.6 0-3.3.6-4.9.8-1.1.2-3.2.3-3.8-.7"/><path id="XMLID_35_" class="st7" d="M122.1 15.2c-.5-1-2.3-1.3-3.2-1.5-1.6-.3-3.1-.1-4.7.2-.3.1-.6.1-.8.2-.3-1.8-1.8-2.2-3.7-2.2H106c-1.8 0-3.4.5-3.7 2.3-.3-.1-.5-.2-.9-.2-1.5-.3-3.1-.5-4.7-.2-1 .2-2.7.5-3.2 1.5-.3.5-.3 1.4 0 1.9.6 1 2.7.9 3.7.7 1.6-.2 3.3-.8 5-.8l.8 9c0 2.1 1.7 3.8 3.7 3.8h2c2.1 0 3.7-1.7 3.7-3.8l.8-9c1.6 0 3.3.6 4.9.8 1 .1 3.1.3 3.7-.7.6-.6.6-1.5.3-2"/><path id="XMLID_34_" class="st8" d="M106 19.1c0 .4-.3.6-.6.6s-.6-.3-.6-.6c0-.4.3-.6.6-.6.3-.1.6.2.6.6"/><path id="XMLID_33_" class="st8" d="M110.9 19.1c0 .4-.3.6-.6.6s-.6-.3-.6-.6c0-.4.3-.6.6-.6.3-.1.6.2.6.6"/><path id="XMLID_32_" class="st9" d="M122.1 17.1c.2-.3.2-.7.2-1.1-.8-.6-2.4-.9-4.1-.9-2.7 0-4.8.9-4.8 1.9v.2-.1c1.6 0 3.3.6 4.9.8 1.1.1 3.2.2 3.8-.8"/><path id="XMLID_31_" class="st9" d="M93.6 17.1c-.2-.3-.2-.7-.2-1.1.8-.6 2.4-.9 4.1-.9 2.7 0 4.8.9 4.8 1.9v.2-.1c-1.6 0-3.3.6-4.9.8-1 .1-3.1.2-3.8-.8"/><path id="XMLID_30_" class="st7" d="M122.1 102.3c-.5-1-2.3-1.3-3.2-1.5-1.6-.3-3.1-.1-4.7.2-.3.1-.6.1-.8.2-.3-1.8-1.8-2.2-3.7-2.2H106c-1.8 0-3.4.5-3.7 2.3-.3-.1-.5-.2-.9-.2-1.5-.3-3.1-.5-4.7-.2-1 .2-2.7.5-3.2 1.5-.3.5-.3 1.4 0 1.9.6 1 2.7.9 3.7.7 1.6-.2 3.3-.8 5-.8l.8 9c0 2.1 1.7 3.8 3.7 3.8h2c2.1 0 3.7-1.7 3.7-3.8l.8-9c1.6 0 3.3.6 4.9.8 1 .1 3.1.3 3.7-.7.6-.5.6-1.5.3-2"/><path id="XMLID_29_" class="st8" d="M106 106.2c0 .4-.3.6-.6.6s-.6-.3-.6-.6c0-.4.3-.6.6-.6s.6.3.6.6"/><path id="XMLID_28_" class="st8" d="M110.9 106.2c0 .4-.3.6-.6.6s-.6-.3-.6-.6c0-.4.3-.6.6-.6s.6.3.6.6"/><path id="XMLID_27_" class="st9" d="M122.1 104.2c.2-.3.2-.7.2-1.1-.8-.6-2.4-.9-4.1-.9-2.7 0-4.8.9-4.8 1.9v.2-.1c1.6 0 3.3.6 4.9.8 1.1.1 3.2.2 3.8-.8"/><path id="XMLID_26_" class="st9" d="M93.6 104.2c-.2-.3-.2-.7-.2-1.1.8-.6 2.4-.9 4.1-.9 2.7 0 4.8.9 4.8 1.9v.2-.1c-1.6 0-3.3.6-4.9.8-1 .1-3.1.2-3.8-.8"/><path id="XMLID_25_" class="st7" d="M77.7 59.1c-.5-1-2.3-1.3-3.2-1.5-1.6-.3-3.1-.1-4.7.2-.3.1-.6.2-.8.2-.3-1.8-1.8-2.2-3.7-2.2h-3.7c-1.8 0-3.4.5-3.7 2.3-.3-.1-.5-.2-.9-.2-1.5-.3-3.1-.5-4.7-.2-1 .2-2.7.5-3.2 1.5-.3.5-.3 1.4 0 1.9.6 1 2.7.9 3.7.7 1.6-.2 3.3-.8 5-.8l.8 9c0 2.1 1.7 3.8 3.7 3.8h2c2.1 0 3.7-1.7 3.7-3.8l.8-9c1.6 0 3.3.6 4.9.8 1 .1 3.1.3 3.7-.7.6-.6.6-1.5.3-2"/><path id="XMLID_24_" class="st8" d="M61.5 63c0 .4-.3.6-.6.6s-.6-.3-.6-.6c0-.4.3-.6.6-.6s.6.2.6.6"/><path id="XMLID_23_" class="st8" d="M66.4 63c0 .4-.3.6-.6.6s-.6-.3-.6-.6c0-.4.3-.6.6-.6.3-.1.6.2.6.6"/><path id="XMLID_22_" class="st9" d="M77.7 61c.2-.3.2-.7.2-1.1-.8-.6-2.4-.9-4.1-.9-2.7 0-4.8.9-4.8 1.9v.2-.1c1.6 0 3.3.6 4.9.8 1 0 3.1.2 3.8-.8"/><path id="XMLID_21_" class="st9" d="M49.2 61c-.2-.3-.2-.7-.2-1.1.8-.6 2.4-.9 4.1-.9 2.7 0 4.8.9 4.8 1.9v.2-.1c-1.6 0-3.3.6-4.9.8-1.1 0-3.2.2-3.8-.8"/><path id="XMLID_20_" class="st7" d="M77.7 15.2c-.5-1-2.3-1.3-3.2-1.5-1.6-.3-3.1-.1-4.7.2-.3.1-.6.1-.8.2-.3-1.8-1.8-2.2-3.7-2.2h-3.7c-1.8 0-3.4.5-3.7 2.3-.3-.1-.5-.2-.9-.2-1.5-.3-3.1-.5-4.7-.2-1 .2-2.7.5-3.2 1.5-.3.5-.3 1.4 0 1.9.6 1 2.7.9 3.7.7 1.6-.2 3.3-.8 5-.8l.8 9c0 2.1 1.7 3.8 3.7 3.8h2c2.1 0 3.7-1.7 3.7-3.8l.8-9c1.6 0 3.3.6 4.9.8 1 .1 3.1.3 3.7-.7.6-.6.6-1.5.3-2"/><path id="XMLID_19_" class="st8" d="M61.5 19.1c0 .4-.3.6-.6.6s-.6-.3-.6-.6c0-.4.3-.6.6-.6s.6.2.6.6"/><path id="XMLID_18_" class="st8" d="M66.4 19.1c0 .4-.3.6-.6.6s-.6-.3-.6-.6c0-.4.3-.6.6-.6.3-.1.6.2.6.6"/><path id="XMLID_17_" class="st9" d="M77.7 17.1c.2-.3.2-.7.2-1.1-.9-.6-2.4-1-4.1-1-2.7 0-4.8.9-4.8 2v.2-.1c1.6 0 3.3.6 4.9.8 1 .1 3.1.2 3.8-.8"/><path id="XMLID_16_" class="st9" d="M49.2 17.1c-.2-.3-.3-.7-.2-1.1.8-.6 2.4-.9 4.1-.9 2.7 0 4.8.9 4.8 1.9v.2-.1c-1.6 0-3.3.6-4.9.8-1.1.1-3.2.2-3.8-.8"/><path id="XMLID_15_" class="st3" d="M36.8 104.1c1.7-.8 2.5-2.8 1.8-4.6-.6-1.5-2.1-2.3-3.7-2.1.7-1.3.5-3.1-.6-4.2s-2.8-1.3-4.2-.6c.2-1.5-.6-3.1-2.1-3.7-1.7-.8-3.8 0-4.6 1.8 0-1.9-1.6-3.5-3.5-3.5s-3.4 1.6-3.5 3.5c-.8-1.8-2.8-2.6-4.6-1.8-1.5.6-2.3 2.2-2.1 3.7-1.3-.8-3-.6-4.2.6-1.1 1.1-1.3 2.9-.6 4.2-1.5-.2-3 .6-3.7 2.1-.8 1.8 0 3.8 1.8 4.6-1.9 0-3.4 1.6-3.4 3.5s1.5 3.5 3.4 3.5c-1.7.8-2.5 2.8-1.8 4.6.6 1.5 2.1 2.3 3.7 2.1-.7 1.3-.5 3.1.6 4.2s2.8 1.3 4.2.6c-.2 1.5.6 3.1 2.1 3.7 1.7.8 3.8 0 4.6-1.8 0 1.9 1.6 3.5 3.5 3.5s3.4-1.6 3.5-3.5c.8 1.8 2.8 2.6 4.6 1.8 1.5-.6 2.3-2.2 2.1-3.7 1.3.8 3 .6 4.2-.6 1.1-1.1 1.3-2.9.6-4.2 1.5.2 3-.6 3.7-2.1.8-1.8 0-3.8-1.8-4.6 1.9 0 3.4-1.6 3.4-3.5.1-2-1.5-3.5-3.4-3.5"/><path id="XMLID_14_" d="M80.1 104.1c1.7-.8 2.5-2.8 1.8-4.6-.6-1.5-2.1-2.3-3.7-2.1.7-1.3.5-3.1-.6-4.2s-2.8-1.3-4.2-.6c.2-1.5-.6-3.1-2.1-3.7-1.7-.8-3.8 0-4.6 1.8 0-1.9-1.6-3.5-3.5-3.5s-3.4 1.6-3.5 3.5c-.8-1.8-2.8-2.6-4.6-1.8-1.5.6-2.3 2.2-2.1 3.7-1.3-.8-3-.6-4.2.6-1.1 1.1-1.3 2.9-.6 4.2-1.5-.2-3 .6-3.7 2.1-.8 1.8 0 3.8 1.8 4.6-1.9 0-3.4 1.6-3.4 3.5s1.5 3.5 3.4 3.5c-1.7.8-2.5 2.8-1.8 4.6.6 1.5 2.1 2.3 3.7 2.1-.7 1.3-.5 3.1.6 4.2s2.8 1.3 4.2.6c-.2 1.5.6 3.1 2.1 3.7 1.7.8 3.8 0 4.6-1.8 0 1.9 1.6 3.5 3.5 3.5s3.4-1.6 3.5-3.5c.8 1.8 2.8 2.6 4.6 1.8 1.5-.6 2.3-2.2 2.1-3.7 1.3.8 3 .6 4.2-.6 1.1-1.1 1.3-2.9.6-4.2 1.5.2 3-.6 3.7-2.1.8-1.8 0-3.8-1.8-4.6 1.9 0 3.4-1.6 3.4-3.5 0-2-1.5-3.5-3.4-3.5" clip-path="url(#XMLID_58_)" fill="#52c8eb"/><path id="XMLID_13_" class="st7" d="M34.4 102.3c-.5-1-2.3-1.3-3.2-1.5-1.6-.3-3.1-.1-4.7.2-.3.1-.6.1-.8.2-.3-1.8-1.8-2.2-3.7-2.2h-3.7c-1.8 0-3.4.5-3.7 2.3-.3-.1-.5-.2-.9-.2-1.5-.3-3.1-.5-4.7-.2-1 .2-2.7.5-3.2 1.5-.3.5-.3 1.4 0 1.9.6 1 2.7.9 3.7.7 1.6-.2 3.3-.8 5-.8l.8 9c0 2.1 1.7 3.8 3.7 3.8h2c2.1 0 3.7-1.7 3.7-3.8l.8-9c1.6 0 3.3.6 4.9.8 1 .1 3.1.3 3.7-.7.6-.5.6-1.5.3-2"/><path id="XMLID_12_" class="st8" d="M18.2 106.2c0 .4-.3.6-.6.6s-.6-.3-.6-.6c0-.4.3-.6.6-.6.4 0 .6.3.6.6"/><path id="XMLID_11_" class="st8" d="M23.1 106.2c0 .4-.3.6-.6.6s-.6-.3-.6-.6c0-.4.3-.6.6-.6s.6.3.6.6"/><path id="XMLID_10_" class="st9" d="M34.4 104.2c.2-.3.2-.7.2-1.1-.8-.6-2.4-.9-4.1-.9-2.7 0-4.8.9-4.8 1.9v.2-.1c1.6 0 3.3.6 4.9.8 1 .1 3.1.2 3.8-.8"/><path id="XMLID_9_" class="st9" d="M5.9 104.2c-.2-.3-.2-.7-.2-1.1.8-.6 2.4-.9 4.1-.9 2.7 0 4.8.9 4.8 1.9v.2-.1c-1.6 0-3.3.6-4.9.8-1.1.1-3.2.2-3.8-.8"/><path id="XMLID_8_" class="st7" d="M77.7 102.3c-.5-1-2.3-1.3-3.2-1.5-1.6-.3-3.1-.1-4.7.2-.3.1-.6.1-.8.2-.3-1.8-1.8-2.2-3.7-2.2h-3.7c-1.8 0-3.4.5-3.7 2.3-.3-.1-.5-.2-.9-.2-1.5-.3-3.1-.5-4.7-.2-1 .2-2.7.5-3.2 1.5-.3.5-.3 1.4 0 1.9.6 1 2.7.9 3.7.7 1.6-.2 3.3-.8 5-.8l.8 9c0 2.1 1.7 3.8 3.7 3.8h2c2.1 0 3.7-1.7 3.7-3.8l.8-9c1.6 0 3.3.6 4.9.8 1 .1 3.1.3 3.7-.7.6-.5.6-1.5.3-2"/><path id="XMLID_7_" class="st8" d="M61.5 106.2c0 .4-.3.6-.6.6s-.6-.3-.6-.6c0-.4.3-.6.6-.6s.6.3.6.6"/><path id="XMLID_6_" class="st8" d="M66.4 106.2c0 .4-.3.6-.6.6s-.6-.3-.6-.6c0-.4.3-.6.6-.6s.6.3.6.6"/><path id="XMLID_5_" class="st9" d="M77.7 104.2c.2-.3.2-.7.2-1.1-.8-.6-2.4-.9-4.1-.9-2.7 0-4.8.9-4.8 1.9v.2-.1c1.6 0 3.3.6 4.9.8 1 .1 3.1.2 3.8-.8"/><path id="XMLID_4_" class="st9" d="M49.2 104.2c-.2-.3-.2-.7-.2-1.1.8-.6 2.4-.9 4.1-.9 2.7 0 4.8.9 4.8 1.9v.2-.1c-1.6 0-3.3.6-4.9.8-1.1.1-3.2.2-3.8-.8"/></g></svg>