<svg version="1.1" id="Layer_1" xmlns="http://www.w3.org/2000/svg" xmlns:xlink="http://www.w3.org/1999/xlink" x="0" y="0" viewBox="0 0 66.5 134" xml:space="preserve"><style>.st1{clip-path:url(#XMLID_124_)}.st2,.st3{clip-path:url(#SVGID_2_);fill:#f58220}.st3{fill:#ffcf3f}.st4{fill:#70cddd}.st4,.st5,.st6,.st7,.st8{clip-path:url(#SVGID_2_)}.st5{fill:#604a9e}.st6{fill:#8ec641}.st7{fill:#52c8eb}.st8{fill:#51c0ab}</style><g id="XMLID_121_"><defs><path id="XMLID_120_" d="M0 0h66.5v134H0z"/></defs><clipPath id="XMLID_123_"><use xlink:href="#XMLID_120_" overflow="visible"/></clipPath><g id="XMLID_93_" clip-path="url(#XMLID_123_)"><defs><path id="XMLID_92_" d="M0 0h66.5v134H0z"/></defs><clipPath id="XMLID_124_"><use xlink:href="#XMLID_92_" overflow="visible"/></clipPath><g class="st1"><defs><path id="SVGID_1_" d="M0 0h135.9v168.2H0z"/></defs><clipPath id="SVGID_2_"><use xlink:href="#SVGID_1_" overflow="visible"/></clipPath><path class="st2" d="M29.2 13.2c1.4-.6 2-2.2 1.4-3.6-.5-1.2-1.7-1.8-2.9-1.6.6-1.1.4-2.4-.5-3.3-.9-.9-2.2-1-3.3-.5.2-1.2-.5-2.4-1.6-2.9-1.4-.6-3 0-3.6 1.4C18.7 1.2 17.5 0 16 0c-1.5 0-2.7 1.2-2.8 2.7-.6-1.4-2.2-2-3.6-1.4C8.4 1.8 7.8 3 8 4.2c-1-.6-2.4-.4-3.3.5-.9.9-1.1 2.2-.5 3.3-1.2-.2-2.4.4-2.9 1.6-.6 1.4 0 3 1.4 3.6C1.2 13.2 0 14.5 0 16c0 1.5 1.2 2.7 2.7 2.8-1.4.6-2 2.2-1.4 3.6.5 1.1 1.7 1.7 2.9 1.6-.6 1.1-.4 2.4.5 3.3.9.9 2.2 1 3.3.5-.2 1.2.5 2.4 1.6 2.9 1.4.6 3 0 3.6-1.4 0 1.5 1.2 2.7 2.8 2.7 1.5 0 2.7-1.2 2.8-2.7.6 1.4 2.2 2 3.6 1.4 1.2-.5 1.8-1.7 1.6-2.9 1 .6 2.4.4 3.3-.5.9-.9 1-2.2.5-3.3 1.2.2 2.4-.5 2.9-1.6.6-1.4 0-3-1.4-3.6 1.5 0 2.7-1.2 2.7-2.8-.1-1.5-1.3-2.8-2.8-2.8m69.6 0c1.4-.6 2-2.2 1.4-3.6-.5-1.2-1.7-1.8-2.9-1.6.6-1.1.4-2.4-.5-3.3-.9-.9-2.2-1-3.3-.5.2-1.2-.4-2.4-1.5-2.9-1.4-.6-3 0-3.6 1.4 0-1.5-1.2-2.7-2.8-2.7-1.5 0-2.7 1.2-2.8 2.7-.6-1.4-2.2-2-3.6-1.4-1.2.5-1.8 1.7-1.6 2.9-1-.6-2.4-.4-3.3.5-.9.9-1 2.2-.5 3.3-1.2-.2-2.4.5-2.9 1.6-.6 1.4 0 3 1.4 3.6-1.5 0-2.7 1.2-2.7 2.8 0 1.5 1.2 2.7 2.7 2.8-1.4.6-2 2.2-1.4 3.6.5 1.2 1.7 1.8 2.9 1.6-.6 1.1-.4 2.4.5 3.3.9.9 2.2 1 3.3.5-.2 1.2.5 2.4 1.6 2.9 1.4.6 3 0 3.6-1.4 0 1.5 1.2 2.7 2.8 2.7 1.5 0 2.7-1.2 2.8-2.7.6 1.4 2.2 2 3.6 1.4 1.2-.5 1.8-1.7 1.6-2.9 1 .6 2.4.4 3.3-.5.9-.9 1-2.2.5-3.3 1.2.2 2.4-.5 2.9-1.6.6-1.4 0-3-1.4-3.6 1.5 0 2.7-1.2 2.7-2.8 0-1.5-1.3-2.8-2.8-2.8"/><path class="st3" d="M29.2 81.4c1.4-.6 2-2.2 1.4-3.6-.5-1.2-1.7-1.8-2.9-1.6.6-1.1.4-2.4-.5-3.3-.9-.9-2.2-1-3.3-.5.2-1.2-.5-2.4-1.6-2.9-1.4-.6-3 0-3.6 1.4 0-1.5-1.2-2.7-2.8-2.7-1.5 0-2.7 1.2-2.8 2.7-.6-1.4-2.2-2-3.6-1.4-1.1.5-1.7 1.7-1.5 2.9-1-.6-2.4-.4-3.3.5-.9.9-1 2.2-.5 3.3-1.2-.2-2.4.4-2.9 1.5-.6 1.4 0 3 1.4 3.6-1.5 0-2.7 1.2-2.7 2.8 0 1.5 1.2 2.7 2.7 2.8-1.4.6-2 2.2-1.4 3.6.5 1.2 1.7 1.8 2.9 1.6-.6 1-.4 2.4.5 3.3.9.9 2.2 1 3.3.5-.2 1.2.5 2.4 1.6 2.9 1.4.6 3 0 3.6-1.4 0 1.5 1.2 2.7 2.8 2.7 1.5 0 2.7-1.2 2.8-2.7.6 1.4 2.2 2 3.6 1.4 1.2-.5 1.8-1.7 1.6-2.9 1 .6 2.4.4 3.3-.5.9-.9 1-2.2.5-3.3 1.2.2 2.4-.5 2.9-1.6.6-1.4 0-3-1.4-3.6 1.5 0 2.7-1.2 2.7-2.8-.1-1.5-1.3-2.7-2.8-2.7"/><path class="st4" d="M98.8 81.4c1.4-.6 2-2.2 1.4-3.6-.5-1.2-1.7-1.8-2.9-1.6.6-1.1.4-2.4-.5-3.3-.9-.9-2.2-1-3.3-.5.2-1.2-.5-2.4-1.6-2.9-1.4-.6-3 0-3.6 1.4 0-1.5-1.2-2.7-2.8-2.7-1.5 0-2.7 1.2-2.8 2.7-.6-1.4-2.2-2-3.6-1.4-1.2.5-1.8 1.7-1.6 2.9-1-.6-2.4-.4-3.3.5-.9.9-1 2.2-.5 3.3-1.2-.2-2.4.5-2.9 1.6-.6 1.4 0 3 1.4 3.6-1.5 0-2.7 1.2-2.7 2.8 0 1.5 1.2 2.7 2.7 2.8-1.4.6-2 2.2-1.4 3.6.5 1.2 1.7 1.8 2.9 1.6-.6 1-.4 2.4.5 3.3.9.9 2.2 1 3.3.5-.2 1.2.5 2.4 1.6 2.9 1.4.6 3 0 3.6-1.4 0 1.5 1.2 2.7 2.8 2.7 1.5 0 2.7-1.2 2.8-2.7.6 1.4 2.2 2 3.6 1.4 1.2-.5 1.8-1.7 1.6-2.9 1 .6 2.4.4 3.3-.5.9-.9 1-2.2.5-3.3 1.2.2 2.4-.5 2.9-1.6.6-1.4 0-3-1.4-3.6 1.5 0 2.7-1.2 2.7-2.8.1-1.6-1.2-2.8-2.7-2.8"/><path class="st5" d="M29.2 47c1.4-.6 2-2.2 1.4-3.6-.5-1.2-1.7-1.8-2.9-1.6.6-1.1.4-2.4-.5-3.3-.9-.9-2.2-1-3.3-.5.2-1.2-.5-2.4-1.6-2.9-1.4-.6-3 0-3.6 1.4 0-1.5-1.2-2.7-2.8-2.7-1.5 0-2.7 1.2-2.8 2.7-.6-1.4-2.2-2-3.6-1.4-1.1.6-1.7 1.8-1.5 2.9-1-.6-2.4-.4-3.3.5-.9.9-1 2.2-.5 3.3-1.2-.2-2.4.5-2.9 1.6-.6 1.4 0 3 1.4 3.6C1.2 47 0 48.2 0 49.8c0 1.5 1.2 2.7 2.7 2.8-1.4.6-2 2.2-1.4 3.6.5 1.1 1.7 1.8 2.9 1.6-.6 1-.4 2.4.5 3.3.9.9 2.2 1 3.3.5-.2 1.2.5 2.4 1.6 2.9 1.4.6 3 0 3.6-1.4 0 1.5 1.2 2.7 2.8 2.7 1.5 0 2.7-1.2 2.8-2.7.6 1.4 2.2 2 3.6 1.4 1.2-.5 1.8-1.7 1.6-2.9 1 .6 2.4.4 3.3-.5.9-.9 1-2.2.5-3.3 1.2.2 2.4-.5 2.9-1.6.6-1.4 0-3-1.4-3.6 1.5 0 2.7-1.2 2.7-2.8-.1-1.5-1.3-2.7-2.8-2.8"/><path class="st6" d="M98.8 47c1.4-.6 2-2.2 1.4-3.6-.5-1.2-1.7-1.8-2.9-1.6.6-1.1.4-2.4-.5-3.3-.9-.9-2.2-1-3.3-.5.2-1.2-.5-2.4-1.6-2.9-1.4-.6-3 0-3.6 1.4 0-1.5-1.2-2.7-2.8-2.7-1.5 0-2.7 1.2-2.8 2.7-.6-1.4-2.2-2-3.6-1.4-1.2.5-1.8 1.7-1.6 2.9-1-.6-2.4-.4-3.3.5-.9.9-1 2.2-.5 3.3-1.2-.2-2.4.5-2.9 1.6-.6 1.4 0 3 1.4 3.6-1.5 0-2.7 1.2-2.7 2.8 0 1.5 1.2 2.7 2.7 2.8-1.4.6-2 2.2-1.4 3.6.5 1.2 1.7 1.8 2.9 1.6-.6 1-.4 2.4.5 3.3.9.9 2.2 1 3.3.5-.2 1.2.5 2.4 1.6 2.9 1.4.6 3 0 3.6-1.4 0 1.5 1.2 2.7 2.8 2.7 1.5 0 2.7-1.2 2.8-2.7.6 1.4 2.2 2 3.6 1.4 1.2-.5 1.8-1.7 1.6-2.9 1 .6 2.4.4 3.3-.5.9-.9 1-2.2.5-3.3 1.2.2 2.4-.5 2.9-1.6.6-1.4 0-3-1.4-3.6 1.5 0 2.7-1.2 2.7-2.8.1-1.5-1.2-2.7-2.7-2.8"/><path class="st7" d="M29.2 115.2c1.4-.6 2-2.2 1.4-3.6-.5-1.2-1.7-1.8-2.9-1.6.6-1.1.4-2.4-.5-3.3-.9-.9-2.2-1-3.3-.5.2-1.2-.5-2.4-1.6-2.9-1.4-.6-3 0-3.6 1.4 0-1.5-1.2-2.7-2.8-2.7-1.5 0-2.7 1.2-2.8 2.7-.6-1.4-2.2-2-3.6-1.4-1.2.5-1.8 1.7-1.6 2.9-1-.6-2.4-.4-3.3.5-.9.9-1 2.2-.5 3.3-1.2-.2-2.4.5-2.9 1.6-.6 1.4 0 3 1.4 3.6-1.5 0-2.7 1.2-2.7 2.8 0 1.5 1.2 2.7 2.7 2.8-1.4.6-2 2.2-1.4 3.6.5 1.2 1.7 1.8 2.9 1.6-.6 1.1-.4 2.4.5 3.3.9.9 2.2 1 3.3.5-.2 1.2.5 2.4 1.6 2.9 1.4.6 3 0 3.6-1.4 0 1.5 1.2 2.7 2.8 2.7 1.5 0 2.7-1.2 2.8-2.7.6 1.4 2.2 2 3.6 1.4 1.2-.5 1.8-1.7 1.6-2.9 1 .6 2.4.4 3.3-.5.9-.9 1-2.2.5-3.3 1.2.2 2.4-.5 2.9-1.6.6-1.4 0-3-1.4-3.6 1.5 0 2.7-1.2 2.7-2.8 0-1.6-1.2-2.8-2.7-2.8"/><path class="st8" d="M98.8 115.2c1.4-.6 2-2.2 1.4-3.6-.5-1.2-1.7-1.8-2.9-1.6.6-1.1.4-2.4-.5-3.3-.9-.9-2.2-1-3.3-.5.2-1.2-.5-2.4-1.6-2.9-1.4-.6-3 0-3.6 1.4 0-1.5-1.2-2.7-2.8-2.7-1.5 0-2.7 1.2-2.8 2.7-.6-1.4-2.2-2-3.6-1.4-1.2.5-1.8 1.7-1.6 2.9-1-.6-2.4-.4-3.3.5-.9.9-1 2.2-.5 3.3-1.2-.2-2.4.5-2.9 1.6-.6 1.4 0 3 1.4 3.6-1.5 0-2.7 1.2-2.7 2.8 0 1.5 1.2 2.7 2.7 2.8-1.4.6-2 2.2-1.4 3.6.5 1.2 1.7 1.8 2.9 1.6-.6 1.1-.4 2.4.5 3.3.9.9 2.2 1 3.3.5-.2 1.2.5 2.4 1.6 2.9 1.4.6 3 0 3.6-1.4 0 1.5 1.2 2.7 2.8 2.7 1.5 0 2.7-1.2 2.8-2.7.6 1.4 2.2 2 3.6 1.4 1.2-.5 1.8-1.7 1.6-2.9 1 .6 2.4.4 3.3-.5.9-.9 1-2.2.5-3.3 1.2.2 2.4-.5 2.9-1.6.6-1.4 0-3-1.4-3.6 1.5 0 2.7-1.2 2.7-2.8.1-1.6-1.2-2.8-2.7-2.8"/><path class="st6" d="M29.2 149.5c1.4-.6 2-2.2 1.4-3.6-.5-1.2-1.7-1.8-2.9-1.6.6-1.1.4-2.4-.5-3.3-.9-.9-2.2-1-3.3-.5.2-1.2-.5-2.4-1.6-2.9-1.4-.6-3 0-3.6 1.4 0-1.5-1.2-2.7-2.8-2.7-1.5 0-2.7 1.2-2.8 2.7-.6-1.4-2.2-2-3.6-1.4-1.2.5-1.8 1.7-1.6 2.9-1-.6-2.4-.4-3.3.5-.9.9-1 2.2-.5 3.3-1.2-.2-2.4.5-2.9 1.6-.6 1.4 0 3 1.4 3.6-1.5 0-2.7 1.2-2.7 2.8 0 1.5 1.2 2.7 2.7 2.8-1.4.6-2 2.2-1.4 3.6.5 1.2 1.7 1.8 2.9 1.6-.6 1-.4 2.4.5 3.3.9.9 2.2 1 3.3.5-.2 1.2.5 2.4 1.6 2.9 1.4.6 3 0 3.6-1.4 0 1.5 1.2 2.7 2.8 2.7 1.5 0 2.7-1.2 2.8-2.7.6 1.4 2.2 2 3.6 1.4 1.2-.5 1.8-1.7 1.6-2.9 1 .6 2.4.4 3.3-.5.9-.9 1-2.2.5-3.3 1.2.2 2.4-.5 2.9-1.6.6-1.4 0-3-1.4-3.6 1.5 0 2.7-1.2 2.7-2.8 0-1.6-1.2-2.8-2.7-2.8"/><path class="st7" d="M98.8 149.5c1.4-.6 2-2.2 1.4-3.6-.5-1.2-1.7-1.8-2.9-1.6.6-1.1.4-2.4-.5-3.3-.9-.9-2.2-1-3.3-.5.2-1.2-.5-2.4-1.6-2.9-1.4-.6-3 0-3.6 1.4 0-1.5-1.2-2.7-2.8-2.7-1.5 0-2.7 1.2-2.8 2.7-.6-1.4-2.2-2-3.6-1.4-1.2.5-1.8 1.7-1.6 2.9-1-.6-2.4-.4-3.3.5-.9.9-1 2.2-.5 3.3-1.2-.2-2.4.5-2.9 1.6-.6 1.4 0 3 1.4 3.6-1.5 0-2.7 1.2-2.7 2.8 0 1.5 1.2 2.7 2.7 2.8-1.4.6-2 2.2-1.4 3.6.5 1.2 1.7 1.8 2.9 1.6-.6 1-.4 2.4.5 3.3.9.9 2.2 1 3.3.5-.2 1.2.5 2.4 1.6 2.9 1.4.6 3 0 3.6-1.4 0 1.5 1.2 2.7 2.8 2.7 1.5 0 2.7-1.2 2.8-2.7.6 1.4 2.2 2 3.6 1.4 1.2-.5 1.8-1.7 1.6-2.9 1 .6 2.4.4 3.3-.5.9-.9 1-2.2.5-3.3 1.2.2 2.4-.5 2.9-1.6.6-1.4 0-3-1.4-3.6 1.5 0 2.7-1.2 2.7-2.8.1-1.6-1.2-2.8-2.7-2.8"/><path class="st4" d="M63.6 13.2c1.4-.6 2-2.2 1.4-3.6-.5-1.2-1.7-1.8-2.9-1.6.6-1.1.4-2.4-.5-3.3-.9-.9-2.2-1-3.3-.5.2-1.2-.5-2.4-1.6-2.9-1.4-.6-3 0-3.6 1.4 0-1.5-1.2-2.7-2.8-2.7-1.5 0-2.7 1.2-2.8 2.7-.6-1.4-2.2-2-3.6-1.4-1.2.5-1.8 1.7-1.6 2.9-1-.6-2.4-.4-3.3.5-.9.9-1 2.2-.5 3.3-1.2-.2-2.4.5-2.9 1.6-.6 1.4 0 3 1.4 3.6-1.5 0-2.7 1.2-2.7 2.8 0 1.5 1.2 2.7 2.7 2.8-1.4.6-2 2.2-1.4 3.6.5 1.2 1.7 1.8 2.9 1.6-.5 1-.4 2.4.5 3.3.9.9 2.2 1 3.3.5-.2 1.2.5 2.4 1.6 2.9 1.4.6 3 0 3.6-1.4 0 1.5 1.2 2.7 2.8 2.7 1.5 0 2.7-1.2 2.8-2.7.6 1.4 2.2 2 3.6 1.4 1.2-.5 1.8-1.7 1.6-2.9 1 .6 2.4.4 3.3-.5.9-.9 1-2.2.5-3.3 1.2.2 2.4-.5 2.9-1.6.6-1.4 0-3-1.4-3.6 1.5 0 2.7-1.2 2.7-2.8 0-1.5-1.2-2.8-2.7-2.8"/><path class="st8" d="M133.2 13.2c1.4-.6 2-2.2 1.4-3.6-.5-1.2-1.7-1.8-2.9-1.6.6-1.1.4-2.4-.5-3.3-.9-.9-2.2-1-3.3-.5.2-1.2-.5-2.4-1.6-2.9-1.4-.6-3 0-3.6 1.4 0-1.5-1.2-2.7-2.8-2.7-1.5 0-2.7 1.2-2.8 2.7-.6-1.4-2.2-2-3.6-1.4-1.2.5-1.8 1.7-1.6 2.9-1-.6-2.4-.4-3.3.5-.9.9-1 2.2-.5 3.3-1.2-.2-2.4.5-2.9 1.6-.6 1.4 0 3 1.4 3.6-1.5 0-2.7 1.2-2.7 2.8 0 1.5 1.2 2.7 2.7 2.8-1.4.6-2 2.2-1.4 3.6.5 1.2 1.7 1.8 2.9 1.6-.6 1.1-.4 2.4.5 3.3.9.9 2.2 1 3.3.5-.2 1.2.5 2.4 1.6 2.9 1.4.6 3 0 3.6-1.4 0 1.5 1.2 2.7 2.8 2.7 1.5 0 2.7-1.2 2.8-2.7.6 1.4 2.2 2 3.6 1.4 1.2-.5 1.8-1.7 1.6-2.9 1 .6 2.4.4 3.3-.5.9-.9 1-2.2.5-3.3 1.2.2 2.4-.5 2.9-1.6.6-1.4 0-3-1.4-3.6 1.5 0 2.7-1.2 2.7-2.8 0-1.5-1.2-2.8-2.7-2.8"/><path d="M63.6 81.4c1.4-.6 2-2.2 1.4-3.6-.5-1.2-1.7-1.8-2.9-1.6.6-1.1.4-2.4-.5-3.3-.9-.9-2.2-1-3.3-.5.2-1.2-.5-2.4-1.6-2.9-1.4-.6-3 0-3.6 1.4 0-1.5-1.2-2.7-2.8-2.7-1.5 0-2.7 1.2-2.8 2.7-.6-1.4-2.2-2-3.6-1.4-1.2.5-1.8 1.7-1.6 2.9-1-.6-2.4-.4-3.3.5-.9.9-1 2.2-.5 3.3-1.2-.2-2.4.5-2.9 1.6-.6 1.4 0 3 1.4 3.6-1.5 0-2.7 1.2-2.7 2.8 0 1.5 1.2 2.7 2.7 2.8-1.4.6-2 2.2-1.4 3.6.5 1.2 1.7 1.8 2.9 1.6-.6 1-.4 2.4.5 3.3.9.9 2.2 1 3.3.5-.2 1.2.5 2.4 1.6 2.9 1.4.6 3 0 3.6-1.4 0 1.5 1.2 2.7 2.8 2.7 1.5 0 2.7-1.2 2.8-2.7.6 1.4 2.2 2 3.6 1.4 1.2-.5 1.8-1.7 1.6-2.9 1 .6 2.4.4 3.3-.5.9-.9 1-2.2.5-3.3 1.2.2 2.4-.5 2.9-1.6.6-1.4 0-3-1.4-3.6 1.5 0 2.7-1.2 2.7-2.8 0-1.6-1.2-2.8-2.7-2.8" clip-path="url(#SVGID_2_)" fill="#f89521"/><path d="M133.2 81.4c1.4-.6 2-2.2 1.4-3.6-.5-1.2-1.7-1.8-2.9-1.6.6-1.1.4-2.4-.5-3.3-.9-.9-2.2-1-3.3-.5.2-1.2-.5-2.4-1.6-2.9-1.4-.6-3 0-3.6 1.4 0-1.5-1.2-2.7-2.8-2.7-1.5 0-2.7 1.2-2.8 2.7-.6-1.4-2.2-2-3.6-1.4-1.2.5-1.8 1.7-1.6 2.9-1-.6-2.4-.4-3.3.5-.9.9-1 2.2-.5 3.3-1.2-.2-2.4.5-2.9 1.6-.6 1.4 0 3 1.4 3.6-1.5 0-2.7 1.2-2.7 2.8 0 1.5 1.2 2.7 2.7 2.8-1.4.6-2 2.2-1.4 3.6.5 1.2 1.7 1.8 2.9 1.6-.6 1-.4 2.4.5 3.3.9.9 2.2 1 3.3.5-.2 1.2.5 2.4 1.6 2.9 1.4.6 3 0 3.6-1.4 0 1.5 1.2 2.7 2.8 2.7 1.5 0 2.7-1.2 2.8-2.7.6 1.4 2.2 2 3.6 1.4 1.2-.5 1.8-1.7 1.6-2.9 1 .6 2.4.4 3.3-.5.9-.9 1-2.2.5-3.3 1.2.2 2.4-.5 2.9-1.6.6-1.4 0-3-1.4-3.6 1.5 0 2.7-1.2 2.7-2.8 0-1.6-1.2-2.8-2.7-2.8" clip-path="url(#SVGID_2_)" fill="#466698"/><path class="st8" d="M63.6 47c1.4-.6 2-2.2 1.4-3.6-.5-1.2-1.7-1.8-2.9-1.6.6-1.1.4-2.4-.5-3.3-.9-.9-2.2-1-3.3-.5.2-1.2-.5-2.4-1.6-2.9-1.4-.6-3 0-3.6 1.4 0-1.5-1.2-2.7-2.8-2.7-1.5 0-2.7 1.2-2.8 2.7-.6-1.4-2.2-2-3.6-1.4-1.2.5-1.8 1.7-1.6 2.9-1-.6-2.4-.4-3.3.5-.9.9-1 2.2-.5 3.3-1.2-.2-2.4.5-2.9 1.6-.6 1.4 0 3 1.4 3.6-1.5 0-2.7 1.2-2.7 2.8 0 1.5 1.2 2.7 2.7 2.8-1.4.6-2 2.2-1.4 3.6.5 1.2 1.7 1.8 2.9 1.6-.6 1-.4 2.4.5 3.3.9.9 2.2 1 3.3.5-.2 1.2.5 2.4 1.6 2.9 1.4.6 3 0 3.6-1.4 0 1.5 1.2 2.7 2.8 2.7 1.5 0 2.7-1.2 2.8-2.7.6 1.4 2.2 2 3.6 1.4 1.2-.5 1.8-1.7 1.6-2.9 1 .6 2.4.4 3.3-.5.9-.9 1-2.2.5-3.3 1.2.2 2.4-.5 2.9-1.6.6-1.4 0-3-1.4-3.6 1.5 0 2.7-1.2 2.7-2.8 0-1.5-1.2-2.7-2.7-2.8"/><path class="st3" d="M133.2 47c1.4-.6 2-2.2 1.4-3.6-.5-1.2-1.7-1.8-2.9-1.6.6-1.1.4-2.4-.5-3.3-.9-.9-2.2-1-3.3-.5.2-1.2-.5-2.4-1.6-2.9-1.4-.6-3 0-3.6 1.4 0-1.5-1.2-2.7-2.8-2.7-1.5 0-2.7 1.2-2.8 2.7-.6-1.4-2.2-2-3.6-1.4-1.2.5-1.8 1.7-1.6 2.9-1-.6-2.4-.4-3.3.5-.9.9-1 2.2-.5 3.3-1.2-.2-2.4.5-2.9 1.6-.6 1.4 0 3 1.4 3.6-1.5 0-2.7 1.2-2.7 2.8 0 1.5 1.2 2.7 2.7 2.8-1.4.6-2 2.2-1.4 3.6.5 1.2 1.7 1.8 2.9 1.6-.6 1-.4 2.4.5 3.3.9.9 2.2 1 3.3.5-.2 1.2.5 2.4 1.6 2.9 1.4.6 3 0 3.6-1.4 0 1.5 1.2 2.7 2.8 2.7 1.5 0 2.7-1.2 2.8-2.7.6 1.4 2.2 2 3.6 1.4 1.2-.5 1.8-1.7 1.6-2.9 1 .6 2.4.4 3.3-.5.9-.9 1-2.2.5-3.3 1.2.2 2.4-.5 2.9-1.6.6-1.4 0-3-1.4-3.6 1.5 0 2.7-1.2 2.7-2.8 0-1.5-1.2-2.7-2.7-2.8"/><path class="st5" d="M63.6 115.2c1.4-.6 2-2.2 1.4-3.6-.5-1.2-1.7-1.8-2.9-1.6.6-1.1.4-2.4-.5-3.3-.9-.9-2.2-1-3.3-.5.2-1.2-.5-2.4-1.6-2.9-1.4-.6-3 0-3.6 1.4 0-1.5-1.2-2.7-2.8-2.7-1.5 0-2.7 1.2-2.8 2.7-.6-1.4-2.2-2-3.6-1.4-1.2.5-1.8 1.7-1.6 2.9-1-.6-2.4-.4-3.3.5-.9.9-1 2.2-.5 3.3-1.2-.2-2.4.5-2.9 1.6-.6 1.4 0 3 1.4 3.6-1.5 0-2.7 1.2-2.7 2.8 0 1.5 1.2 2.7 2.7 2.8-1.4.6-2 2.2-1.4 3.6.5 1.2 1.7 1.8 2.9 1.6-.6 1.1-.4 2.4.5 3.3.9.9 2.2 1 3.3.5-.2 1.2.5 2.4 1.6 2.9 1.4.6 3 0 3.6-1.4 0 1.5 1.2 2.7 2.8 2.7 1.5 0 2.7-1.2 2.8-2.7.6 1.4 2.2 2 3.6 1.4 1.2-.5 1.8-1.7 1.6-2.9 1 .6 2.4.4 3.3-.5.9-.9 1-2.2.5-3.3 1.2.2 2.4-.5 2.9-1.6.6-1.4 0-3-1.4-3.6 1.5 0 2.7-1.2 2.7-2.8 0-1.6-1.2-2.8-2.7-2.8m69.6 0c1.4-.6 2-2.2 1.4-3.6-.5-1.2-1.7-1.8-2.9-1.6.6-1.1.4-2.4-.5-3.3-.9-.9-2.2-1-3.3-.5.2-1.2-.5-2.4-1.6-2.9-1.4-.6-3 0-3.6 1.4 0-1.5-1.2-2.7-2.8-2.7-1.5 0-2.7 1.2-2.8 2.7-.6-1.4-2.2-2-3.6-1.4-1.2.5-1.8 1.7-1.6 2.9-1-.6-2.4-.4-3.3.5-.9.9-1 2.2-.5 3.3-1.2-.2-2.4.5-2.9 1.6-.6 1.4 0 3 1.4 3.6-1.5 0-2.7 1.2-2.7 2.8 0 1.5 1.2 2.7 2.7 2.8-1.4.6-2 2.2-1.4 3.6.5 1.2 1.7 1.8 2.9 1.6-.6 1.1-.4 2.4.5 3.3.9.9 2.2 1 3.3.5-.2 1.2.5 2.4 1.6 2.9 1.4.6 3 0 3.6-1.4 0 1.5 1.2 2.7 2.8 2.7 1.5 0 2.7-1.2 2.8-2.7.6 1.4 2.2 2 3.6 1.4 1.2-.5 1.8-1.7 1.6-2.9 1 .6 2.4.4 3.3-.5.9-.9 1-2.2.5-3.3 1.2.2 2.4-.5 2.9-1.6.6-1.4 0-3-1.4-3.6 1.5 0 2.7-1.2 2.7-2.8 0-1.6-1.2-2.8-2.7-2.8"/><path class="st2" d="M63.6 149.5c1.4-.6 2-2.2 1.4-3.6-.5-1.2-1.7-1.8-2.9-1.6.6-1.1.4-2.4-.5-3.3-.9-.9-2.2-1-3.3-.5.2-1.2-.5-2.4-1.6-2.9-1.4-.6-3 0-3.6 1.4 0-1.5-1.2-2.7-2.8-2.7-1.5 0-2.7 1.2-2.8 2.7-.6-1.4-2.2-2-3.6-1.4-1.2.5-1.8 1.7-1.6 2.9-1-.6-2.4-.4-3.3.5-.9.9-1 2.2-.5 3.3-1.2-.2-2.4.5-2.9 1.6-.6 1.4 0 3 1.4 3.6-1.5 0-2.7 1.2-2.7 2.8 0 1.5 1.2 2.7 2.7 2.8-1.4.6-2 2.2-1.4 3.6.5 1.2 1.7 1.8 2.9 1.6-.6 1-.4 2.4.5 3.3.9.9 2.2 1 3.3.5-.2 1.2.5 2.4 1.6 2.9 1.4.6 3 0 3.6-1.4 0 1.5 1.2 2.7 2.8 2.7 1.5 0 2.7-1.2 2.8-2.7.6 1.4 2.2 2 3.6 1.4 1.2-.5 1.8-1.7 1.6-2.9 1 .6 2.4.4 3.3-.5.9-.9 1-2.2.5-3.3 1.2.2 2.4-.5 2.9-1.6.6-1.4 0-3-1.4-3.6 1.5 0 2.7-1.2 2.7-2.8 0-1.6-1.2-2.8-2.7-2.8"/><path class="st6" d="M133.2 149.5c1.4-.6 2-2.2 1.4-3.6-.5-1.2-1.7-1.8-2.9-1.6.6-1.1.4-2.4-.5-3.3-.9-.9-2.2-1-3.3-.5.2-1.2-.5-2.4-1.6-2.9-1.4-.6-3 0-3.6 1.4 0-1.5-1.2-2.7-2.8-2.7-1.5 0-2.7 1.2-2.8 2.7-.6-1.4-2.2-2-3.6-1.4-1.2.5-1.8 1.7-1.6 2.9-1-.6-2.4-.4-3.3.5-.9.9-1 2.2-.5 3.3-1.2-.2-2.4.5-2.9 1.6-.6 1.4 0 3 1.4 3.6-1.5 0-2.7 1.2-2.7 2.8 0 1.5 1.2 2.7 2.7 2.8-1.4.6-2 2.2-1.4 3.6.5 1.2 1.7 1.8 2.9 1.6-.6 1-.4 2.4.5 3.3.9.9 2.2 1 3.3.5-.2 1.2.5 2.4 1.6 2.9 1.4.6 3 0 3.6-1.4 0 1.5 1.2 2.7 2.8 2.7 1.5 0 2.7-1.2 2.8-2.7.6 1.4 2.2 2 3.6 1.4 1.2-.5 1.8-1.7 1.6-2.9 1 .6 2.4.4 3.3-.5.9-.9 1-2.2.5-3.3 1.2.2 2.4-.5 2.9-1.6.6-1.4 0-3-1.4-3.6 1.5 0 2.7-1.2 2.7-2.8 0-1.6-1.2-2.8-2.7-2.8"/><path d="M27.3 11.9c-.4-.8-1.8-1-2.6-1.2-1.2-.2-2.5-.1-3.7.2-.2.1-.5.1-.6.2-.3-1.4-1.5-1.8-2.9-1.8h-2.9c-1.5 0-2.7.4-2.9 1.8-.2-.1-.4-.1-.7-.2-1.2-.3-2.5-.4-3.7-.2-.8.2-2.1.4-2.6 1.2-.2.4-.2 1.1 0 1.5.5.8 2.2.7 2.9.6 1.3-.2 2.6-.6 3.9-.6l.7 7c0 1.6 1.3 3 3 3h1.6c1.6 0 3-1.3 3-3l.7-7c1.3 0 2.6.4 3.9.6.8.1 2.4.2 2.9-.6.2-.4.2-1.1 0-1.5" clip-path="url(#SVGID_2_)" fill="#fff"/></g><g class="st1"><defs><path id="SVGID_3_" d="M14.5 9.3c-1.5 0-2.7.4-2.9 1.8-.2-.1-.4-.1-.7-.2-1.2-.3-2.5-.4-3.7-.2-.8.2-2.1.4-2.6 1.2-.2.4-.2 1.1 0 1.5.5.8 2.2.7 2.9.6 1.3-.2 2.6-.6 3.9-.6l.7 7c0 1.6 1.3 3 3 3h1.6c1.6 0 3-1.3 3-3l.7-7c1.3 0 2.6.4 3.9.6.8.1 2.4.2 2.9-.6.2-.4.2-1.1 0-1.5-.4-.8-1.8-1-2.6-1.2-1.2-.2-2.5-.1-3.7.2-.2.1-.5.1-.6.2-.3-1.4-1.5-1.8-2.9-1.8h-2.9z"/></defs><clipPath id="SVGID_4_"><use xlink:href="#SVGID_3_" overflow="visible"/></clipPath><path d="M17.2 22.1s-1.7.6-.6 1.7M15 22.1s1.7.6.6 1.7" clip-path="url(#SVGID_4_)" fill="none" stroke="#d3d6d8" stroke-width=".27"/></g><g class="st1"><defs><path id="SVGID_5_" d="M0 0h135.9v168.2H0z"/></defs><clipPath id="SVGID_6_"><use xlink:href="#SVGID_5_" overflow="visible"/></clipPath><path d="M14.5 14.9c0 .3-.2.5-.5.5s-.5-.2-.5-.5.2-.5.5-.5c.2 0 .5.2.5.5m3.8 0c0 .3-.2.5-.5.5s-.5-.2-.5-.5.2-.5.5-.5.5.2.5.5" clip-path="url(#SVGID_6_)"/><path d="M27.3 13.4c.1-.2.2-.6.2-.9-.7-.4-1.9-.7-3.2-.7-2.1 0-3.8.7-3.8 1.5v.1-.1c1.3 0 2.6.4 3.9.6.7.1 2.4.2 2.9-.5m-22.6 0c-.1-.2-.2-.6-.2-.9.7-.4 1.9-.7 3.2-.7 2.1 0 3.8.7 3.8 1.5v.1-.1c-1.3 0-2.6.4-3.9.6-.8.1-2.4.2-2.9-.5" fill="#fcdad8" clip-path="url(#SVGID_6_)"/><path d="M96.9 11.9c-.4-.8-1.8-1-2.6-1.2-1.2-.2-2.5-.1-3.7.2-.2.1-.5.1-.6.2-.3-1.4-1.5-1.8-2.9-1.8h-2.9c-1.5 0-2.7.4-2.9 1.8-.2-.1-.4-.1-.7-.2-1.2-.3-2.5-.4-3.7-.2-.8.2-2.1.4-2.6 1.2-.2.4-.2 1.1 0 1.5.5.8 2.2.7 2.9.6 1.3-.2 2.6-.6 3.9-.6l.7 7c0 1.6 1.3 3 3 3h1.6c1.6 0 3-1.3 3-3l.7-7c1.3 0 2.6.4 3.9.6.8.1 2.4.2 2.9-.6.2-.4.2-1.1 0-1.5" clip-path="url(#SVGID_6_)" fill="#fff"/></g><g class="st1"><defs><path id="SVGID_7_" d="M0 0h135.9v168.2H0z"/></defs><clipPath id="SVGID_8_"><use xlink:href="#SVGID_7_" overflow="visible"/></clipPath><path d="M84.1 14.9c0 .3-.2.5-.5.5s-.5-.2-.5-.5.2-.5.5-.5.5.2.5.5m3.9 0c0 .3-.2.5-.5.5s-.5-.2-.5-.5.2-.5.5-.5c.2 0 .5.2.5.5" clip-path="url(#SVGID_8_)"/><path d="M96.9 13.4c.1-.2.2-.6.2-.9-.7-.4-1.9-.7-3.2-.7-2.1 0-3.8.7-3.8 1.5v.1-.1c1.3 0 2.6.4 3.9.6.7.1 2.4.2 2.9-.5m-22.6 0c-.1-.2-.2-.6-.2-.9.7-.4 1.9-.7 3.2-.7 2.1 0 3.8.7 3.8 1.5v.1-.1c-1.3 0-2.6.4-3.9.6-.7.1-2.4.2-2.9-.5" fill="#fcdad8" clip-path="url(#SVGID_8_)"/><path d="M27.3 80c-.4-.8-1.8-1-2.6-1.2-1.2-.2-2.5-.1-3.7.2-.2.1-.5.1-.6.2-.3-1.4-1.5-1.8-2.9-1.8h-2.9c-1.5 0-2.7.4-2.9 1.8-.2-.1-.4-.1-.7-.2-1.2-.3-2.5-.4-3.7-.2-.9.2-2.2.4-2.7 1.2-.2.4-.2 1.1 0 1.5.5.8 2.2.7 2.9.6 1.3-.2 2.6-.6 3.9-.6l.7 7c0 1.6 1.3 3 3 3h1.6c1.6 0 3-1.3 3-3l.7-7c1.3 0 2.6.4 3.9.6.8.1 2.4.2 2.9-.6.3-.4.3-1.1.1-1.5" clip-path="url(#SVGID_8_)" fill="#fff"/></g><g class="st1"><defs><path id="SVGID_9_" d="M14.5 77.4c-1.5 0-2.7.4-2.9 1.8-.2-.1-.4-.1-.7-.2-1.2-.3-2.5-.4-3.7-.2-.8.2-2.1.4-2.6 1.2-.2.4-.2 1.1 0 1.5.5.8 2.2.7 2.9.6 1.3-.2 2.6-.6 3.9-.6l.7 7c0 1.6 1.3 3 3 3h1.6c1.6 0 3-1.3 3-3l.7-7c1.3 0 2.6.4 3.9.6.8.1 2.4.2 2.9-.6.2-.4.2-1.1 0-1.5-.4-.8-1.8-1-2.6-1.2-1.2-.2-2.5-.1-3.7.2-.2.1-.5.1-.6.2-.3-1.4-1.5-1.8-2.9-1.8h-2.9z"/></defs><clipPath id="SVGID_10_"><use xlink:href="#SVGID_9_" overflow="visible"/></clipPath><path d="M17.2 90.2s-1.7.6-.6 1.7M15 90.2s1.7.6.6 1.7" clip-path="url(#SVGID_10_)" fill="none" stroke="#d3d6d8" stroke-width=".27"/></g><g class="st1"><defs><path id="SVGID_11_" d="M0 0h135.9v168.2H0z"/></defs><clipPath id="SVGID_12_"><use xlink:href="#SVGID_11_" overflow="visible"/></clipPath><path d="M14.5 83c0 .3-.2.5-.5.5s-.5-.2-.5-.5.2-.5.5-.5c.2.1.5.3.5.5m3.8 0c0 .3-.2.5-.5.5s-.5-.2-.5-.5.2-.5.5-.5c.3.1.5.3.5.5" clip-path="url(#SVGID_12_)"/><path d="M27.3 81.5c.1-.2.2-.6.2-.9-.7-.4-1.9-.7-3.2-.7-2.1 0-3.8.7-3.8 1.5v.1-.1c1.3 0 2.6.4 3.9.6.7.2 2.4.3 2.9-.5m-22.6 0c-.1-.2-.2-.6-.2-.9.7-.4 1.9-.7 3.2-.7 2.1 0 3.8.7 3.8 1.5v.1-.1c-1.3 0-2.6.4-3.9.6-.8.2-2.4.3-2.9-.5" fill="#fcdad8" clip-path="url(#SVGID_12_)"/><path d="M96.9 80c-.4-.8-1.8-1-2.6-1.2-1.2-.2-2.5-.1-3.7.2-.2.1-.5.1-.6.2-.3-1.4-1.5-1.8-2.9-1.8h-2.9c-1.5 0-2.7.4-2.9 1.8-.2-.1-.4-.1-.7-.2-1.2-.3-2.5-.4-3.7-.2-.9.2-2.2.4-2.6 1.2-.2.4-.2 1.1 0 1.5.5.8 2.2.7 2.9.6 1.3-.2 2.6-.6 3.9-.6l.7 7c0 1.6 1.3 3 3 3h1.6c1.6 0 3-1.3 3-3l.7-7c1.3 0 2.6.4 3.9.6.8.1 2.4.2 2.9-.6.2-.4.2-1.1 0-1.5" clip-path="url(#SVGID_12_)" fill="#fff"/></g><g class="st1"><defs><path id="SVGID_13_" d="M0 0h135.9v168.2H0z"/></defs><clipPath id="SVGID_14_"><use xlink:href="#SVGID_13_" overflow="visible"/></clipPath><path d="M84.1 83c0 .3-.2.5-.5.5s-.5-.2-.5-.5.2-.5.5-.5c.3.1.5.3.5.5m3.9 0c0 .3-.2.5-.5.5s-.5-.2-.5-.5.2-.5.5-.5c.2.1.5.3.5.5" clip-path="url(#SVGID_14_)"/><path d="M96.9 81.5c.1-.2.2-.6.2-.9-.7-.4-1.9-.7-3.2-.7-2.1 0-3.8.7-3.8 1.5v.1-.1c1.3 0 2.6.4 3.9.6.7.2 2.4.3 2.9-.5m-22.6 0c-.1-.2-.2-.6-.2-.9.7-.4 1.9-.7 3.2-.7 2.1 0 3.8.7 3.8 1.5v.1-.1c-1.3 0-2.6.4-3.9.6-.7.2-2.4.3-2.9-.5" fill="#fcdad8" clip-path="url(#SVGID_14_)"/><path d="M27.3 45.7c-.4-.8-1.8-1-2.6-1.2-1.2-.2-2.5-.1-3.7.2-.2.1-.5.1-.6.2-.3-1.4-1.5-1.8-2.9-1.8h-2.9c-1.5 0-2.7.4-2.9 1.8-.2-.1-.4-.1-.7-.2-1.2-.3-2.5-.4-3.7-.2-.8.2-2.1.4-2.6 1.2-.2.4-.2 1.1 0 1.5.5.8 2.2.7 2.9.6 1.3-.2 2.6-.6 3.9-.6l.7 7c0 1.6 1.3 3 3 3h1.6c1.6 0 3-1.3 3-3l.7-7c1.3 0 2.6.4 3.9.6.8.1 2.4.2 2.9-.6.2-.4.2-1.1 0-1.5" clip-path="url(#SVGID_14_)" fill="#fff"/></g><g class="st1"><defs><path id="SVGID_15_" d="M14.5 43.1c-1.5 0-2.7.4-2.9 1.8-.2-.1-.4-.1-.7-.2-1.2-.3-2.5-.4-3.7-.2-.8.2-2.1.4-2.6 1.2-.2.4-.2 1.1 0 1.5.5.8 2.2.7 2.9.6 1.3-.2 2.6-.6 3.9-.6l.7 7c0 1.6 1.3 3 3 3h1.6c1.6 0 3-1.3 3-3l.7-7c1.3 0 2.6.4 3.9.6.8.1 2.4.2 2.9-.6.2-.4.2-1.1 0-1.5-.4-.8-1.8-1-2.6-1.2-1.2-.2-2.5-.1-3.7.2-.2.1-.5.1-.6.2-.3-1.4-1.5-1.8-2.9-1.8h-2.9z"/></defs><clipPath id="SVGID_16_"><use xlink:href="#SVGID_15_" overflow="visible"/></clipPath><path d="M17.2 55.9s-1.7.6-.6 1.7M15 55.9s1.7.6.6 1.7" clip-path="url(#SVGID_16_)" fill="none" stroke="#d3d6d8" stroke-width=".27"/></g><g class="st1"><defs><path id="SVGID_17_" d="M0 0h135.9v168.2H0z"/></defs><clipPath id="SVGID_18_"><use xlink:href="#SVGID_17_" overflow="visible"/></clipPath><path d="M14.5 48.7c0 .3-.2.5-.5.5s-.5-.2-.5-.5.2-.5.5-.5c.2 0 .5.3.5.5m3.8 0c0 .3-.2.5-.5.5s-.5-.2-.5-.5.2-.5.5-.5.5.3.5.5" clip-path="url(#SVGID_18_)"/><path d="M27.3 47.2c.1-.2.2-.6.2-.9-.7-.4-1.9-.7-3.2-.7-2.1 0-3.8.7-3.8 1.5v.1-.1c1.3 0 2.6.4 3.9.6.7.2 2.4.3 2.9-.5m-22.6 0c-.1-.2-.2-.6-.2-.9.7-.4 1.9-.7 3.2-.7 2.1 0 3.8.7 3.8 1.5v.1-.1c-1.3 0-2.6.4-3.9.6-.8.2-2.4.3-2.9-.5" fill="#fcdad8" clip-path="url(#SVGID_18_)"/><path d="M96.9 45.7c-.4-.8-1.8-1-2.6-1.2-1.2-.2-2.5-.1-3.7.2-.2.1-.5.1-.6.2-.3-1.4-1.5-1.8-2.9-1.8h-2.9c-1.5 0-2.7.4-2.9 1.8-.2-.1-.4-.1-.7-.2-1.2-.3-2.5-.4-3.7-.2-.8.2-2.1.4-2.6 1.2-.2.4-.2 1.1 0 1.5.5.8 2.2.7 2.9.6 1.3-.2 2.6-.6 3.9-.6l.7 7c0 1.6 1.3 3 3 3h1.6c1.6 0 3-1.3 3-3l.7-7c1.3 0 2.6.4 3.9.6.8.1 2.4.2 2.9-.6.2-.4.2-1.1 0-1.5" clip-path="url(#SVGID_18_)" fill="#fff"/></g><g class="st1"><defs><path id="SVGID_19_" d="M0 0h135.9v168.2H0z"/></defs><clipPath id="SVGID_20_"><use xlink:href="#SVGID_19_" overflow="visible"/></clipPath><path d="M84.1 48.7c0 .3-.2.5-.5.5s-.5-.2-.5-.5.2-.5.5-.5.5.3.5.5m3.9 0c0 .3-.2.5-.5.5s-.5-.2-.5-.5.2-.5.5-.5c.2 0 .5.3.5.5" clip-path="url(#SVGID_20_)"/><path d="M96.9 47.2c.1-.2.2-.6.2-.9-.7-.4-1.9-.7-3.2-.7-2.1 0-3.8.7-3.8 1.5v.1-.1c1.3 0 2.6.4 3.9.6.7.2 2.4.3 2.9-.5m-22.6 0c-.1-.2-.2-.6-.2-.9.7-.4 1.9-.7 3.2-.7 2.1 0 3.8.7 3.8 1.5v.1-.1c-1.3 0-2.6.4-3.9.6-.7.2-2.4.3-2.9-.5" fill="#fcdad8" clip-path="url(#SVGID_20_)"/><path d="M27.3 113.8c-.4-.8-1.8-1-2.6-1.2-1.2-.2-2.5-.1-3.7.2-.2 0-.5.1-.6.2-.3-1.4-1.5-1.8-2.9-1.8h-2.9c-1.5 0-2.7.4-2.9 1.8-.2-.1-.4-.1-.7-.2-1.2-.3-2.5-.4-3.7-.2-.8.2-2.1.4-2.6 1.2-.2.4-.2 1.1 0 1.5.5.8 2.2.7 2.9.6 1.3-.2 2.6-.6 3.9-.6l.7 7c0 1.6 1.3 3 3 3h1.6c1.6 0 3-1.3 3-3l.7-7c1.3 0 2.6.4 3.9.6.8.1 2.4.2 2.9-.6.2-.3.2-1.1 0-1.5" clip-path="url(#SVGID_20_)" fill="#fff"/></g><g class="st1"><defs><path id="SVGID_21_" d="M14.5 111.3c-1.5 0-2.7.4-2.9 1.8-.2-.1-.4-.1-.7-.2-1.2-.3-2.5-.4-3.7-.2-.8.2-2.1.4-2.6 1.2-.2.4-.2 1.1 0 1.5.5.8 2.2.7 2.9.6 1.3-.2 2.6-.6 3.9-.6l.7 7c0 1.6 1.3 3 3 3h1.6c1.6 0 3-1.3 3-3l.7-7c1.3 0 2.6.4 3.9.6.8.1 2.4.2 2.9-.6.2-.4.2-1.1 0-1.5-.4-.8-1.8-1-2.6-1.2-1.2-.2-2.5-.1-3.7.2-.2.1-.5.1-.6.2-.3-1.4-1.5-1.8-2.9-1.8h-2.9z"/></defs><clipPath id="SVGID_22_"><use xlink:href="#SVGID_21_" overflow="visible"/></clipPath><path d="M17.2 124.1s-1.7.6-.6 1.7m-1.6-1.7s1.7.6.6 1.7" clip-path="url(#SVGID_22_)" fill="none" stroke="#d3d6d8" stroke-width=".27"/></g><g class="st1"><defs><path id="SVGID_23_" d="M0 0h135.9v168.2H0z"/></defs><clipPath id="SVGID_24_"><use xlink:href="#SVGID_23_" overflow="visible"/></clipPath><path d="M14.5 116.9c0 .3-.2.5-.5.5s-.5-.2-.5-.5.2-.5.5-.5c.2 0 .5.2.5.5m3.8 0c0 .3-.2.5-.5.5s-.5-.2-.5-.5.2-.5.5-.5.5.2.5.5" clip-path="url(#SVGID_24_)"/><path d="M27.3 115.3c.1-.2.2-.6.2-.9-.7-.4-1.9-.7-3.2-.7-2.1 0-3.8.7-3.8 1.5v.1-.1c1.3 0 2.6.4 3.9.6.7.2 2.4.3 2.9-.5m-22.6 0c-.1-.2-.2-.6-.2-.9.7-.4 1.9-.7 3.2-.7 2.1 0 3.8.7 3.8 1.5v.1-.1c-1.3 0-2.6.4-3.9.6-.8.2-2.4.3-2.9-.5" fill="#fcdad8" clip-path="url(#SVGID_24_)"/><path d="M96.9 113.8c-.4-.8-1.8-1-2.6-1.2-1.2-.2-2.5-.1-3.7.2-.2 0-.5.1-.6.2-.3-1.4-1.5-1.8-2.9-1.8h-2.9c-1.5 0-2.7.4-2.9 1.8-.2-.1-.4-.1-.7-.2-1.2-.3-2.5-.4-3.7-.2-.8.2-2.1.4-2.6 1.2-.2.4-.2 1.1 0 1.5.5.8 2.2.7 2.9.6 1.3-.2 2.6-.6 3.9-.6l.7 7c0 1.6 1.3 3 3 3h1.6c1.6 0 3-1.3 3-3l.7-7c1.3 0 2.6.4 3.9.6.8.1 2.4.2 2.9-.6.2-.3.2-1.1 0-1.5" clip-path="url(#SVGID_24_)" fill="#fff"/></g><g class="st1"><defs><path id="SVGID_25_" d="M0 0h135.9v168.2H0z"/></defs><clipPath id="SVGID_26_"><use xlink:href="#SVGID_25_" overflow="visible"/></clipPath><path d="M84.1 116.9c0 .3-.2.5-.5.5s-.5-.2-.5-.5.2-.5.5-.5.5.2.5.5m3.9 0c0 .3-.2.5-.5.5s-.5-.2-.5-.5.2-.5.5-.5c.2 0 .5.2.5.5" clip-path="url(#SVGID_26_)"/><path d="M96.9 115.3c.1-.2.2-.6.2-.9-.7-.4-1.9-.7-3.2-.7-2.1 0-3.8.7-3.8 1.5v.1-.1c1.3 0 2.6.4 3.9.6.7.2 2.4.3 2.9-.5m-22.6 0c-.1-.2-.2-.6-.2-.9.7-.4 1.9-.7 3.2-.7 2.1 0 3.8.7 3.8 1.5v.1-.1c-1.3 0-2.6.4-3.9.6-.7.2-2.4.3-2.9-.5" fill="#fcdad8" clip-path="url(#SVGID_26_)"/><path d="M27.3 148.2c-.4-.8-1.8-1-2.6-1.2-1.2-.2-2.5-.1-3.7.2-.2 0-.5.1-.6.2-.3-1.4-1.5-1.8-2.9-1.8h-2.9c-1.5 0-2.7.4-2.9 1.8-.2-.1-.4-.1-.7-.2-1.2-.3-2.5-.4-3.7-.2-.8.2-2.1.4-2.6 1.2-.2.4-.2 1.1 0 1.5.5.8 2.2.7 2.9.6 1.3-.2 2.6-.6 3.9-.6l.7 7c0 1.6 1.3 3 3 3h1.6c1.6 0 3-1.3 3-3l.7-7c1.3 0 2.6.4 3.9.6.8.1 2.4.2 2.9-.6.2-.4.2-1.1 0-1.5" clip-path="url(#SVGID_26_)" fill="#fff"/></g><g class="st1"><defs><path id="SVGID_27_" d="M14.5 145.6c-1.5 0-2.7.4-2.9 1.8-.2-.1-.4-.1-.7-.2-1.2-.3-2.5-.4-3.7-.2-.8.2-2.1.4-2.6 1.2-.2.4-.2 1.1 0 1.5.5.8 2.2.7 2.9.6 1.3-.2 2.6-.6 3.9-.6l.7 7c0 1.6 1.3 3 3 3h1.6c1.6 0 3-1.3 3-3l.7-7c1.3 0 2.6.4 3.9.6.8.1 2.4.2 2.9-.6.2-.4.2-1.1 0-1.5-.4-.8-1.8-1-2.6-1.2-1.2-.2-2.5-.1-3.7.2-.2.1-.5.1-.6.2-.3-1.4-1.5-1.8-2.9-1.8h-2.9z"/></defs><clipPath id="SVGID_28_"><use xlink:href="#SVGID_27_" overflow="visible"/></clipPath><path d="M17.2 158.4s-1.7.6-.6 1.7m-1.6-1.7s1.7.6.6 1.7" clip-path="url(#SVGID_28_)" fill="none" stroke="#d3d6d8" stroke-width=".27"/></g><g class="st1"><defs><path id="SVGID_29_" d="M0 0h135.9v168.2H0z"/></defs><clipPath id="SVGID_30_"><use xlink:href="#SVGID_29_" overflow="visible"/></clipPath><path d="M14.5 151.2c0 .3-.2.5-.5.5s-.5-.2-.5-.5.2-.5.5-.5c.2 0 .5.2.5.5m3.8 0c0 .3-.2.5-.5.5s-.5-.2-.5-.5.2-.5.5-.5.5.2.5.5" clip-path="url(#SVGID_30_)"/><path d="M27.3 149.6c.1-.2.2-.6.2-.9-.7-.4-1.9-.7-3.2-.7-2.1 0-3.8.7-3.8 1.5v.1-.1c1.3 0 2.6.4 3.9.6.7.2 2.4.3 2.9-.5m-22.6 0c-.1-.2-.2-.6-.2-.9.7-.4 1.9-.7 3.2-.7 2.1 0 3.8.7 3.8 1.5v.1-.1c-1.3 0-2.6.4-3.9.6-.8.2-2.4.3-2.9-.5" fill="#fcdad8" clip-path="url(#SVGID_30_)"/><path d="M96.9 148.2c-.4-.8-1.8-1-2.6-1.2-1.2-.2-2.5-.1-3.7.2-.2 0-.5.1-.6.2-.3-1.4-1.5-1.8-2.9-1.8h-2.9c-1.5 0-2.7.4-2.9 1.8-.2-.1-.4-.1-.7-.2-1.2-.3-2.5-.4-3.7-.2-.8.2-2.1.4-2.6 1.2-.2.4-.2 1.1 0 1.5.5.8 2.2.7 2.9.6 1.3-.2 2.6-.6 3.9-.6l.7 7c0 1.6 1.3 3 3 3h1.6c1.6 0 3-1.3 3-3l.7-7c1.3 0 2.6.4 3.9.6.8.1 2.4.2 2.9-.6.2-.4.2-1.1 0-1.5" clip-path="url(#SVGID_30_)" fill="#fff"/></g><g class="st1"><defs><path id="SVGID_31_" d="M0 0h135.9v168.2H0z"/></defs><clipPath id="SVGID_32_"><use xlink:href="#SVGID_31_" overflow="visible"/></clipPath><path d="M84.1 151.2c0 .3-.2.5-.5.5s-.5-.2-.5-.5.2-.5.5-.5.5.2.5.5m3.9 0c0 .3-.2.5-.5.5s-.5-.2-.5-.5.2-.5.5-.5c.2 0 .5.2.5.5" clip-path="url(#SVGID_32_)"/><path d="M96.9 149.6c.1-.2.2-.6.2-.9-.7-.4-1.9-.7-3.2-.7-2.1 0-3.8.7-3.8 1.5v.1-.1c1.3 0 2.6.4 3.9.6.7.2 2.4.3 2.9-.5m-22.6 0c-.1-.2-.2-.6-.2-.9.7-.4 1.9-.7 3.2-.7 2.1 0 3.8.7 3.8 1.5v.1-.1c-1.3 0-2.6.4-3.9.6-.7.2-2.4.3-2.9-.5" fill="#fcdad8" clip-path="url(#SVGID_32_)"/><path d="M61.6 11.9c-.4-.8-1.8-1-2.6-1.2-1.2-.2-2.5-.1-3.7.2-.2.1-.5.1-.6.2-.3-1.4-1.5-1.8-2.9-1.8h-2.9c-1.5 0-2.7.4-2.9 1.8-.2-.1-.4-.1-.7-.2-1.2-.3-2.5-.4-3.7-.2-.8.2-2.1.4-2.6 1.2-.2.4-.2 1.1 0 1.5.5.8 2.2.7 2.9.6 1.3-.2 2.6-.6 3.9-.6l.7 7c0 1.6 1.3 3 3 3h1.6c1.6 0 3-1.3 3-3l.7-7c1.3 0 2.6.4 3.9.6.8.1 2.4.2 2.9-.6.3-.4.3-1.1 0-1.5" clip-path="url(#SVGID_32_)" fill="#fff"/></g><g class="st1"><defs><path id="SVGID_33_" d="M48.9 9.3c-1.5 0-2.7.4-2.9 1.8-.2-.1-.4-.1-.7-.2-1.2-.3-2.5-.4-3.7-.2-.8.2-2.1.4-2.6 1.2-.2.4-.2 1.1 0 1.5.5.8 2.2.7 3 .6 1.3-.2 2.6-.6 3.9-.6l.7 7c0 1.6 1.3 3 3 3h1.6c1.6 0 3-1.3 3-3l.7-7c1.3 0 2.6.4 3.9.6.8.1 2.4.2 2.9-.6.2-.4.2-1.1 0-1.5-.4-.8-1.8-1-2.6-1.2-1.2-.2-2.5-.1-3.7.2-.2.1-.5.1-.6.2-.3-1.4-1.5-1.8-2.9-1.8h-3z"/></defs><clipPath id="SVGID_34_"><use xlink:href="#SVGID_33_" overflow="visible"/></clipPath><path d="M51.5 22.1s-1.7.6-.6 1.7m-1.5-1.7s1.7.6.6 1.7" clip-path="url(#SVGID_34_)" fill="none" stroke="#d3d6d8" stroke-width=".27"/></g><g class="st1"><defs><path id="SVGID_35_" d="M0 0h135.9v168.2H0z"/></defs><clipPath id="SVGID_36_"><use xlink:href="#SVGID_35_" overflow="visible"/></clipPath><path d="M48.8 14.9c0 .3-.2.5-.5.5s-.5-.2-.5-.5.2-.5.5-.5.5.2.5.5m3.9 0c0 .3-.2.5-.5.5s-.5-.2-.5-.5.2-.5.5-.5.5.2.5.5" clip-path="url(#SVGID_36_)"/><path d="M61.6 13.4c.1-.2.2-.6.2-.9-.7-.4-1.9-.7-3.2-.7-2.1 0-3.8.7-3.8 1.5v.1-.1c1.3 0 2.6.4 3.9.6.7.1 2.4.2 2.9-.5m-22.6 0c-.1-.2-.2-.6-.2-.9.7-.4 1.9-.7 3.2-.7 2.1 0 3.8.7 3.8 1.5v.1-.1c-1.3 0-2.6.4-3.9.6-.7.1-2.4.2-2.9-.5" fill="#fcdad8" clip-path="url(#SVGID_36_)"/><path d="M131.3 11.9c-.4-.8-1.8-1-2.6-1.2-1.2-.2-2.5-.1-3.7.2-.2.1-.5.1-.6.2-.3-1.4-1.5-1.8-2.9-1.8h-2.9c-1.5 0-2.7.4-2.9 1.8-.2-.1-.4-.1-.7-.2-1.2-.3-2.5-.4-3.7-.2-.8.2-2.1.4-2.6 1.2-.2.4-.2 1.1 0 1.5.5.8 2.2.7 2.9.6 1.3-.2 2.6-.6 3.9-.6l.7 7c0 1.6 1.3 3 3 3h1.6c1.6 0 3-1.3 3-3l.7-7c1.3 0 2.6.4 3.9.6.8.1 2.4.2 2.9-.6.2-.4.2-1.1 0-1.5" clip-path="url(#SVGID_36_)" fill="#fff"/></g><g class="st1"><defs><path id="SVGID_37_" d="M0 0h135.9v168.2H0z"/></defs><clipPath id="SVGID_38_"><use xlink:href="#SVGID_37_" overflow="visible"/></clipPath><path d="M118.4 14.9c0 .3-.2.5-.5.5s-.5-.2-.5-.5.2-.5.5-.5.5.2.5.5m3.9 0c0 .3-.2.5-.5.5s-.5-.2-.5-.5.2-.5.5-.5.5.2.5.5" clip-path="url(#SVGID_38_)"/><path d="M131.2 13.4c.1-.2.2-.6.2-.9-.7-.4-1.9-.7-3.2-.7-2.1 0-3.8.7-3.8 1.5v.1-.1c1.3 0 2.6.4 3.9.6.8.1 2.4.2 2.9-.5m-22.6 0c-.1-.2-.2-.6-.2-.9.7-.4 1.9-.7 3.2-.7 2.1 0 3.8.7 3.8 1.5v.1-.1c-1.3 0-2.6.4-3.9.6-.7.1-2.4.2-2.9-.5" fill="#fcdad8" clip-path="url(#SVGID_38_)"/><path d="M61.6 80c-.4-.8-1.8-1-2.6-1.2-1.2-.2-2.5-.1-3.7.2-.2.1-.5.1-.6.2-.3-1.4-1.5-1.8-2.9-1.8h-2.9c-1.5 0-2.7.4-2.9 1.8-.2-.1-.4-.1-.7-.2-1.2-.3-2.5-.4-3.7-.2-.8.2-2.2.4-2.6 1.2-.2.4-.2 1.1 0 1.5.5.8 2.2.7 2.9.6 1.3-.2 2.6-.6 3.9-.6l.7 7c0 1.6 1.3 3 3 3h1.6c1.6 0 3-1.3 3-3l.7-7c1.3 0 2.6.4 3.9.6.8.1 2.4.2 2.9-.6.3-.4.3-1.1 0-1.5" clip-path="url(#SVGID_38_)" fill="#fff"/></g><g class="st1"><defs><path id="SVGID_39_" d="M48.9 77.4c-1.5 0-2.7.4-2.9 1.8-.2-.1-.4-.1-.7-.2-1.2-.3-2.5-.4-3.7-.2-.8.2-2.2.4-2.6 1.2-.2.4-.2 1.1 0 1.5.5.8 2.2.7 3 .6 1.3-.2 2.6-.6 3.9-.6l.7 7c0 1.6 1.3 3 3 3h1.6c1.6 0 3-1.3 3-3l.7-7c1.3 0 2.6.4 3.9.6.8.1 2.4.2 2.9-.6.2-.4.2-1.1 0-1.5-.4-.8-1.8-1-2.6-1.2-1.2-.2-2.5-.1-3.7.2-.2.1-.5.1-.6.2-.3-1.4-1.5-1.8-2.9-1.8h-3z"/></defs><clipPath id="SVGID_40_"><use xlink:href="#SVGID_39_" overflow="visible"/></clipPath><path d="M51.5 90.2s-1.7.6-.6 1.7m-1.5-1.7s1.7.6.6 1.7" clip-path="url(#SVGID_40_)" fill="none" stroke="#d3d6d8" stroke-width=".27"/></g><g class="st1"><defs><path id="SVGID_41_" d="M0 0h135.9v168.2H0z"/></defs><clipPath id="SVGID_42_"><use xlink:href="#SVGID_41_" overflow="visible"/></clipPath><path d="M48.8 83c0 .3-.2.5-.5.5s-.5-.2-.5-.5.2-.5.5-.5c.3.1.5.3.5.5m3.9 0c0 .3-.2.5-.5.5s-.5-.2-.5-.5.2-.5.5-.5c.3.1.5.3.5.5" clip-path="url(#SVGID_42_)"/><path d="M61.6 81.5c.1-.2.2-.6.2-.9-.7-.4-1.9-.7-3.2-.7-2.1 0-3.8.7-3.8 1.5v.1-.1c1.3 0 2.6.4 3.9.6.7.2 2.4.3 2.9-.5m-22.6 0c-.1-.2-.2-.6-.2-.9.7-.4 1.9-.7 3.2-.7 2.1 0 3.8.7 3.8 1.5v.1-.1c-1.3 0-2.6.4-3.9.6-.7.2-2.4.3-2.9-.5" fill="#fcdad8" clip-path="url(#SVGID_42_)"/><path d="M131.3 80c-.4-.8-1.8-1-2.6-1.2-1.2-.2-2.5-.1-3.7.2-.2.1-.5.1-.6.2-.3-1.4-1.5-1.8-2.9-1.8h-2.9c-1.5 0-2.7.4-2.9 1.8-.2-.1-.4-.1-.7-.2-1.2-.3-2.5-.4-3.7-.2-.8.2-2.1.4-2.6 1.2-.2.4-.2 1.1 0 1.5.5.8 2.2.7 2.9.6 1.3-.2 2.6-.6 3.9-.6l.7 7c0 1.6 1.3 3 3 3h1.6c1.6 0 3-1.3 3-3l.7-7c1.3 0 2.6.4 3.9.6.8.1 2.4.2 2.9-.6.2-.4.2-1.1 0-1.5" clip-path="url(#SVGID_42_)" fill="#fff"/></g><g class="st1"><defs><path id="SVGID_43_" d="M0 0h135.9v168.2H0z"/></defs><clipPath id="SVGID_44_"><use xlink:href="#SVGID_43_" overflow="visible"/></clipPath><path d="M118.4 83c0 .3-.2.5-.5.5s-.5-.2-.5-.5.2-.5.5-.5c.3.1.5.3.5.5m3.9 0c0 .3-.2.5-.5.5s-.5-.2-.5-.5.2-.5.5-.5c.3.1.5.3.5.5" clip-path="url(#SVGID_44_)"/><path d="M131.2 81.5c.1-.2.2-.6.2-.9-.7-.4-1.9-.7-3.2-.7-2.1 0-3.8.7-3.8 1.5v.1-.1c1.3 0 2.6.4 3.9.6.8.2 2.4.3 2.9-.5m-22.6 0c-.1-.2-.2-.6-.2-.9.7-.4 1.9-.7 3.2-.7 2.1 0 3.8.7 3.8 1.5v.1-.1c-1.3 0-2.6.4-3.9.6-.7.2-2.4.3-2.9-.5" fill="#fcdad8" clip-path="url(#SVGID_44_)"/><path d="M61.6 45.7c-.4-.8-1.8-1-2.6-1.2-1.2-.2-2.5-.1-3.7.2-.2.1-.5.1-.6.2-.3-1.4-1.5-1.8-2.9-1.8h-2.9c-1.5 0-2.7.4-2.9 1.8-.2-.1-.4-.1-.7-.2-1.2-.3-2.5-.4-3.7-.2-.8.2-2.1.4-2.6 1.2-.2.4-.2 1.1 0 1.5.5.8 2.2.7 2.9.6 1.3-.2 2.6-.6 3.9-.6l.7 7c0 1.6 1.3 3 3 3h1.6c1.6 0 3-1.3 3-3l.7-7c1.3 0 2.6.4 3.9.6.8.1 2.4.2 2.9-.6.3-.4.3-1.1 0-1.5" clip-path="url(#SVGID_44_)" fill="#fff"/></g><g class="st1"><defs><path id="SVGID_45_" d="M48.9 43.1c-1.5 0-2.7.4-2.9 1.8-.2-.1-.4-.1-.7-.2-1.2-.3-2.5-.4-3.7-.2-.8.2-2.1.4-2.6 1.2-.2.4-.2 1.1 0 1.5.5.8 2.2.7 3 .6 1.3-.2 2.6-.6 3.9-.6l.7 7c0 1.6 1.3 3 3 3h1.6c1.6 0 3-1.3 3-3l.7-7c1.3 0 2.6.4 3.9.6.8.1 2.4.2 2.9-.6.2-.4.2-1.1 0-1.5-.4-.8-1.8-1-2.6-1.2-1.2-.2-2.5-.1-3.7.2-.2.1-.5.1-.6.2-.3-1.4-1.5-1.8-2.9-1.8h-3z"/></defs><clipPath id="SVGID_46_"><use xlink:href="#SVGID_45_" overflow="visible"/></clipPath><path d="M51.5 55.9s-1.7.6-.6 1.7m-1.5-1.7s1.7.6.6 1.7" clip-path="url(#SVGID_46_)" fill="none" stroke="#d3d6d8" stroke-width=".27"/></g><g class="st1"><defs><path id="SVGID_47_" d="M0 0h135.9v168.2H0z"/></defs><clipPath id="SVGID_48_"><use xlink:href="#SVGID_47_" overflow="visible"/></clipPath><path d="M48.8 48.7c0 .3-.2.5-.5.5s-.5-.2-.5-.5.2-.5.5-.5.5.3.5.5m3.9 0c0 .3-.2.5-.5.5s-.5-.2-.5-.5.2-.5.5-.5.5.3.5.5" clip-path="url(#SVGID_48_)"/><path d="M61.6 47.2c.1-.2.2-.6.2-.9-.7-.4-1.9-.7-3.2-.7-2.1 0-3.8.7-3.8 1.5v.1-.1c1.3 0 2.6.4 3.9.6.7.2 2.4.3 2.9-.5m-22.6 0c-.1-.2-.2-.6-.2-.9.7-.4 1.9-.7 3.2-.7 2.1 0 3.8.7 3.8 1.5v.1-.1c-1.3 0-2.6.4-3.9.6-.7.2-2.4.3-2.9-.5" fill="#fcdad8" clip-path="url(#SVGID_48_)"/><path d="M131.3 45.7c-.4-.8-1.8-1-2.6-1.2-1.2-.2-2.5-.1-3.7.2-.2.1-.5.1-.6.2-.3-1.4-1.5-1.8-2.9-1.8h-2.9c-1.5 0-2.7.4-2.9 1.8-.2-.1-.4-.1-.7-.2-1.2-.3-2.5-.4-3.7-.2-.8.2-2.1.4-2.6 1.2-.2.4-.2 1.1 0 1.5.5.8 2.2.7 2.9.6 1.3-.2 2.6-.6 3.9-.6l.7 7c0 1.6 1.3 3 3 3h1.6c1.6 0 3-1.3 3-3l.7-7c1.3 0 2.6.4 3.9.6.8.1 2.4.2 2.9-.6.2-.4.2-1.1 0-1.5" clip-path="url(#SVGID_48_)" fill="#fff"/></g><g class="st1"><defs><path id="SVGID_49_" d="M0 0h135.9v168.2H0z"/></defs><clipPath id="SVGID_50_"><use xlink:href="#SVGID_49_" overflow="visible"/></clipPath><path d="M118.4 48.7c0 .3-.2.5-.5.5s-.5-.2-.5-.5.2-.5.5-.5.5.3.5.5m3.9 0c0 .3-.2.5-.5.5s-.5-.2-.5-.5.2-.5.5-.5.5.3.5.5" clip-path="url(#SVGID_50_)"/><path d="M131.2 47.2c.1-.2.2-.6.2-.9-.7-.4-1.9-.7-3.2-.7-2.1 0-3.8.7-3.8 1.5v.1-.1c1.3 0 2.6.4 3.9.6.8.2 2.4.3 2.9-.5m-22.6 0c-.1-.2-.2-.6-.2-.9.7-.4 1.9-.7 3.2-.7 2.1 0 3.8.7 3.8 1.5v.1-.1c-1.3 0-2.6.4-3.9.6-.7.2-2.4.3-2.9-.5" fill="#fcdad8" clip-path="url(#SVGID_50_)"/><path d="M61.6 113.8c-.4-.8-1.8-1-2.6-1.2-1.2-.2-2.5-.1-3.7.2-.2 0-.5.1-.6.2-.3-1.4-1.5-1.8-2.9-1.8h-2.9c-1.5 0-2.7.4-2.9 1.8-.2-.1-.4-.1-.7-.2-1.2-.3-2.5-.4-3.7-.2-.8.2-2.1.4-2.6 1.2-.2.4-.2 1.1 0 1.5.5.8 2.2.7 2.9.6 1.3-.2 2.6-.6 3.9-.6l.7 7c0 1.6 1.3 3 3 3h1.6c1.6 0 3-1.3 3-3l.7-7c1.3 0 2.6.4 3.9.6.8.1 2.4.2 2.9-.6.3-.3.3-1.1 0-1.5" clip-path="url(#SVGID_50_)" fill="#fff"/></g><g class="st1"><defs><path id="SVGID_51_" d="M48.9 111.3c-1.5 0-2.7.4-2.9 1.8-.2-.1-.4-.1-.7-.2-1.2-.3-2.5-.4-3.7-.2-.8.2-2.1.4-2.6 1.2-.2.4-.2 1.1 0 1.5.5.8 2.2.7 3 .6 1.3-.2 2.6-.6 3.9-.6l.7 7c0 1.6 1.3 3 3 3h1.6c1.6 0 3-1.3 3-3l.7-7c1.3 0 2.6.4 3.9.6.8.1 2.4.2 2.9-.6.2-.4.2-1.1 0-1.5-.4-.8-1.8-1-2.6-1.2-1.2-.2-2.5-.1-3.7.2-.2.1-.5.1-.6.2-.3-1.4-1.5-1.8-2.9-1.8h-3z"/></defs><clipPath id="SVGID_52_"><use xlink:href="#SVGID_51_" overflow="visible"/></clipPath><path d="M51.5 124.1s-1.7.6-.6 1.7m-1.5-1.7s1.7.6.6 1.7" clip-path="url(#SVGID_52_)" fill="none" stroke="#d3d6d8" stroke-width=".27"/></g><g class="st1"><defs><path id="SVGID_53_" d="M0 0h135.9v168.2H0z"/></defs><clipPath id="SVGID_54_"><use xlink:href="#SVGID_53_" overflow="visible"/></clipPath><path d="M48.8 116.9c0 .3-.2.5-.5.5s-.5-.2-.5-.5.2-.5.5-.5.5.2.5.5m3.9 0c0 .3-.2.5-.5.5s-.5-.2-.5-.5.2-.5.5-.5.5.2.5.5" clip-path="url(#SVGID_54_)"/><path d="M61.6 115.3c.1-.2.2-.6.2-.9-.7-.4-1.9-.7-3.2-.7-2.1 0-3.8.7-3.8 1.5v.1-.1c1.3 0 2.6.4 3.9.6.7.2 2.4.3 2.9-.5m-22.6 0c-.1-.2-.2-.6-.2-.9.7-.4 1.9-.7 3.2-.7 2.1 0 3.8.7 3.8 1.5v.1-.1c-1.3 0-2.6.4-3.9.6-.7.2-2.4.3-2.9-.5" fill="#fcdad8" clip-path="url(#SVGID_54_)"/><path d="M131.3 113.8c-.4-.8-1.8-1-2.6-1.2-1.2-.2-2.5-.1-3.7.2-.2 0-.5.1-.6.2-.3-1.4-1.5-1.8-2.9-1.8h-2.9c-1.5 0-2.7.4-2.9 1.8-.2-.1-.4-.1-.7-.2-1.2-.3-2.5-.4-3.7-.2-.8.2-2.1.4-2.6 1.2-.2.4-.2 1.1 0 1.5.5.8 2.2.7 2.9.6 1.3-.2 2.6-.6 3.9-.6l.7 7c0 1.6 1.3 3 3 3h1.6c1.6 0 3-1.3 3-3l.7-7c1.3 0 2.6.4 3.9.6.8.1 2.4.2 2.9-.6.2-.3.2-1.1 0-1.5" clip-path="url(#SVGID_54_)" fill="#fff"/></g><g class="st1"><defs><path id="SVGID_55_" d="M0 0h135.9v168.2H0z"/></defs><clipPath id="SVGID_56_"><use xlink:href="#SVGID_55_" overflow="visible"/></clipPath><path d="M118.4 116.9c0 .3-.2.5-.5.5s-.5-.2-.5-.5.2-.5.5-.5.5.2.5.5m3.9 0c0 .3-.2.5-.5.5s-.5-.2-.5-.5.2-.5.5-.5.5.2.5.5" clip-path="url(#SVGID_56_)"/><path d="M131.2 115.3c.1-.2.2-.6.2-.9-.7-.4-1.9-.7-3.2-.7-2.1 0-3.8.7-3.8 1.5v.1-.1c1.3 0 2.6.4 3.9.6.8.2 2.4.3 2.9-.5m-22.6 0c-.1-.2-.2-.6-.2-.9.7-.4 1.9-.7 3.2-.7 2.1 0 3.8.7 3.8 1.5v.1-.1c-1.3 0-2.6.4-3.9.6-.7.2-2.4.3-2.9-.5" fill="#fcdad8" clip-path="url(#SVGID_56_)"/><path d="M61.6 148.2c-.4-.8-1.8-1-2.6-1.2-1.2-.2-2.5-.1-3.7.2-.2 0-.5.1-.6.2-.3-1.4-1.5-1.8-2.9-1.8h-2.9c-1.5 0-2.7.4-2.9 1.8-.2-.1-.4-.1-.7-.2-1.2-.3-2.5-.4-3.7-.2-.8.2-2.1.4-2.6 1.2-.2.4-.2 1.1 0 1.5.5.8 2.2.7 2.9.6 1.3-.2 2.6-.6 3.9-.6l.7 7c0 1.6 1.3 3 3 3h1.6c1.6 0 3-1.3 3-3l.7-7c1.3 0 2.6.4 3.9.6.8.1 2.4.2 2.9-.6.3-.4.3-1.1 0-1.5" clip-path="url(#SVGID_56_)" fill="#fff"/></g><g class="st1"><defs><path id="SVGID_57_" d="M48.9 145.6c-1.5 0-2.7.4-2.9 1.8-.2-.1-.4-.1-.7-.2-1.2-.3-2.5-.4-3.7-.2-.8.2-2.1.4-2.6 1.2-.2.4-.2 1.1 0 1.5.5.8 2.2.7 3 .6 1.3-.2 2.6-.6 3.9-.6l.7 7c0 1.6 1.3 3 3 3h1.6c1.6 0 3-1.3 3-3l.7-7c1.3 0 2.6.4 3.9.6.8.1 2.4.2 2.9-.6.2-.4.2-1.1 0-1.5-.4-.8-1.8-1-2.6-1.2-1.2-.2-2.5-.1-3.7.2-.2.1-.5.1-.6.2-.3-1.4-1.5-1.8-2.9-1.8h-3z"/></defs><clipPath id="SVGID_58_"><use xlink:href="#SVGID_57_" overflow="visible"/></clipPath><path d="M51.5 158.4s-1.7.6-.6 1.7m-1.5-1.7s1.7.6.6 1.7" clip-path="url(#SVGID_58_)" fill="none" stroke="#d3d6d8" stroke-width=".27"/></g><g class="st1"><defs><path id="SVGID_59_" d="M0 0h135.9v168.2H0z"/></defs><clipPath id="SVGID_60_"><use xlink:href="#SVGID_59_" overflow="visible"/></clipPath><path d="M48.8 151.2c0 .3-.2.5-.5.5s-.5-.2-.5-.5.2-.5.5-.5.5.2.5.5m3.9 0c0 .3-.2.5-.5.5s-.5-.2-.5-.5.2-.5.5-.5.5.2.5.5" clip-path="url(#SVGID_60_)"/><path d="M61.6 149.6c.1-.2.2-.6.2-.9-.7-.4-1.9-.7-3.2-.7-2.1 0-3.8.7-3.8 1.5v.1-.1c1.3 0 2.6.4 3.9.6.7.2 2.4.3 2.9-.5m-22.6 0c-.1-.2-.2-.6-.2-.9.7-.4 1.9-.7 3.2-.7 2.1 0 3.8.7 3.8 1.5v.1-.1c-1.3 0-2.6.4-3.9.6-.7.2-2.4.3-2.9-.5" fill="#fcdad8" clip-path="url(#SVGID_60_)"/><path d="M131.3 148.2c-.4-.8-1.8-1-2.6-1.2-1.2-.2-2.5-.1-3.7.2-.2 0-.5.1-.6.2-.3-1.4-1.5-1.8-2.9-1.8h-2.9c-1.5 0-2.7.4-2.9 1.8-.2-.1-.4-.1-.7-.2-1.2-.3-2.5-.4-3.7-.2-.8.2-2.1.4-2.6 1.2-.2.4-.2 1.1 0 1.5.5.8 2.2.7 2.9.6 1.3-.2 2.6-.6 3.9-.6l.7 7c0 1.6 1.3 3 3 3h1.6c1.6 0 3-1.3 3-3l.7-7c1.3 0 2.6.4 3.9.6.8.1 2.4.2 2.9-.6.2-.4.2-1.1 0-1.5" clip-path="url(#SVGID_60_)" fill="#fff"/></g><g class="st1"><defs><path id="SVGID_61_" d="M0 0h135.9v168.2H0z"/></defs><clipPath id="SVGID_62_"><use xlink:href="#SVGID_61_" overflow="visible"/></clipPath><path d="M118.4 151.2c0 .3-.2.5-.5.5s-.5-.2-.5-.5.2-.5.5-.5.5.2.5.5m3.9 0c0 .3-.2.5-.5.5s-.5-.2-.5-.5.2-.5.5-.5.5.2.5.5" clip-path="url(#SVGID_62_)"/><path d="M131.2 149.6c.1-.2.2-.6.2-.9-.7-.4-1.9-.7-3.2-.7-2.1 0-3.8.7-3.8 1.5v.1-.1c1.3 0 2.6.4 3.9.6.8.2 2.4.3 2.9-.5m-22.6 0c-.1-.2-.2-.6-.2-.9.7-.4 1.9-.7 3.2-.7 2.1 0 3.8.7 3.8 1.5v.1-.1c-1.3 0-2.6.4-3.9.6-.7.2-2.4.3-2.9-.5" fill="#fcdad8" clip-path="url(#SVGID_62_)"/></g></g></g></svg>