<svg version="1.1" id="Layer_1" xmlns="http://www.w3.org/2000/svg" xmlns:xlink="http://www.w3.org/1999/xlink" x="0" y="0" viewBox="0 0 128 128" xml:space="preserve"><style>.st2,.st3{clip-path:url(#XMLID_9_)}.st3{fill:#fcdad8}</style><defs><path id="XMLID_1_" d="M.4 0H128v127.6H.4z"/></defs><clipPath id="XMLID_9_"><use xlink:href="#XMLID_1_" overflow="visible"/></clipPath><path id="XMLID_7_" d="M117.1 52.8c5.5-2.5 8-8.9 5.6-14.4-2-4.6-6.8-7.2-11.6-6.5 2.3-4.2 1.7-9.6-1.8-13.2-3.6-3.6-9-4.2-13.2-1.8.6-4.8-1.9-9.6-6.5-11.6-5.5-2.4-12 .1-14.4 5.6-.1-6-5-10.9-11-10.9s-10.9 4.9-11 10.9c-2.5-5.5-8.9-8-14.4-5.6-4.6 2-7.2 6.8-6.5 11.6-4.2-2.3-9.6-1.7-13.2 1.8-3.6 3.6-4.2 9-1.8 13.2-4.8-.6-9.6 1.9-11.6 6.5-2.4 5.5.1 12 5.6 14.4-6 .1-10.9 5-10.9 11s4.9 10.9 10.9 11c-5.5 2.5-8 8.9-5.6 14.4 2 4.6 6.8 7.2 11.6 6.5-2.3 4.2-1.7 9.6 1.8 13.2 3.6 3.6 9 4.2 13.2 1.8-.6 4.8 1.9 9.6 6.5 11.6 5.5 2.4 12-.1 14.4-5.6.1 6 5 10.9 11 10.9s10.9-4.9 11-10.9c2.5 5.5 8.9 8 14.4 5.6 4.6-2 7.2-6.8 6.5-11.6 4.2 2.3 9.6 1.7 13.2-1.8 3.6-3.6 4.2-9 1.8-13.2 4.8.6 9.6-1.9 11.6-6.5 2.4-5.5-.1-12-5.6-14.4 6-.1 10.9-5 10.9-11s-4.9-10.9-10.9-11" clip-path="url(#XMLID_9_)" fill="#f89521"/><path id="XMLID_6_" d="M109.5 47.5c-1.7-3.2-7.1-4-10.3-4.6-5-1-9.9-.4-14.8.7-1 .2-1.8.4-2.6.7-1-5.5-5.8-7-11.6-7H58.5c-5.8 0-10.6 1.6-11.6 7.1-.8-.3-1.7-.5-2.8-.7-4.9-1-9.9-1.6-14.8-.7-3.2.6-8.6 1.4-10.3 4.6-.8 1.5-.8 4.4.1 5.9 2 3.1 8.7 2.7 11.8 2.3 5.2-.6 10.5-2.6 15.8-2.4l2.6 28.1c0 6.5 5.3 11.8 11.8 11.8h6.4c6.5 0 11.8-5.3 11.8-11.8L82 53.3c5.2-.1 10.4 1.8 15.6 2.4 3.1.4 9.8.8 11.8-2.3.9-1.5.9-4.4.1-5.9" clip-path="url(#XMLID_9_)" fill="#fff"/><path id="XMLID_5_" class="st2" d="M58.2 59.5c0 1.1-.9 2-2 2s-2-.9-2-2 .9-2 2-2 2 .9 2 2"/><path id="XMLID_4_" class="st2" d="M73.7 59.5c0 1.1-.9 2-2 2s-2-.9-2-2 .9-2 2-2 2 .9 2 2"/><path id="XMLID_3_" class="st3" d="M109.3 53.4c.6-.9.8-2.2.7-3.5-2.7-1.7-7.5-2.9-13-2.9-8.4 0-15.2 2.7-15.2 6 0 .2.1.4.1.5v-.2c5.2-.1 10.4 1.8 15.6 2.4 3.1.4 9.8.8 11.8-2.3"/><path id="XMLID_2_" class="st3" d="M19.1 53.4c-.6-.9-.8-2.2-.7-3.5 2.7-1.7 7.5-2.9 13-2.9 8.4 0 15.2 2.7 15.2 6 0 .2-.1.4-.1.5v-.2c-5.2-.1-10.4 1.8-15.6 2.4-3.2.4-9.8.8-11.8-2.3"/></svg>