<svg version="1.1" id="Layer_1" xmlns="http://www.w3.org/2000/svg" xmlns:xlink="http://www.w3.org/1999/xlink" x="0" y="0" viewBox="0 0 544.8 423" xml:space="preserve"><style>.st1{fill:#ffcf3f}.st1,.st2,.st3,.st6{clip-path:url(#SVGID_2_)}.st2{fill:#70cddd}.st3{fill:#604a9e}.st6{fill:#51c0ab}</style><defs><path id="SVGID_1_" d="M0 0h544.8v423H0z"/></defs><clipPath id="SVGID_2_"><use xlink:href="#SVGID_1_" overflow="visible"/></clipPath><path d="M92.3 41.7c4.3-2 6.3-7 4.4-11.4-1.6-3.7-5.4-5.7-9.1-5.2 1.9-3.3 1.4-7.6-1.4-10.4-2.8-2.8-7.1-3.3-10.4-1.4.5-3.8-1.5-7.6-5.2-9.1-4.4-1.9-9.5.1-11.4 4.4-.1-4.8-4-8.6-8.8-8.6-4.8 0-8.6 3.8-8.7 8.6-2-4.3-7-6.3-11.4-4.4-3.7 1.6-5.7 5.4-5.2 9.1-3.3-1.9-7.6-1.4-10.4 1.4-2.8 2.8-3.3 7.1-1.4 10.4-3.8-.5-7.6 1.5-9.1 5.2-1.9 4.4.1 9.5 4.4 11.4-4.8.1-8.6 4-8.6 8.7s3.8 8.6 8.6 8.7c-4.3 2-6.3 7-4.4 11.4 1.6 3.7 5.4 5.7 9.1 5.2-1.9 3.3-1.4 7.6 1.4 10.4 2.8 2.8 7.1 3.3 10.4 1.4-.5 3.8 1.5 7.6 5.2 9.1 4.4 1.9 9.5-.1 11.4-4.4.1 4.8 3.9 8.6 8.7 8.6 4.8 0 8.6-3.8 8.7-8.6 2 4.3 7 6.3 11.4 4.4 3.7-1.6 5.7-5.4 5.2-9.1 3.3 1.9 7.6 1.4 10.4-1.4 2.8-2.8 3.3-7.1 1.4-10.4 3.8.5 7.6-1.5 9.1-5.2 1.9-4.4-.1-9.5-4.4-11.4 4.8-.1 8.6-3.9 8.6-8.7.1-4.7-3.7-8.6-8.5-8.7m219.9 0c4.3-2 6.3-7 4.4-11.4-1.6-3.7-5.4-5.7-9.1-5.2 1.9-3.3 1.4-7.6-1.4-10.4-2.8-2.8-7.1-3.3-10.4-1.4.5-3.8-1.5-7.6-5.2-9.1-4.4-1.9-9.5.1-11.4 4.4-.1-4.8-4-8.6-8.7-8.6-4.8 0-8.6 3.8-8.7 8.6-2-4.3-7-6.3-11.4-4.4-3.7 1.6-5.7 5.4-5.2 9.1-3.3-1.9-7.6-1.4-10.4 1.4-2.8 2.8-3.3 7.1-1.4 10.4-3.8-.5-7.6 1.5-9.1 5.2-1.9 4.4.1 9.5 4.4 11.4-4.8.1-8.6 3.9-8.6 8.7 0 4.8 3.8 8.6 8.6 8.7-4.3 2-6.3 7-4.4 11.4 1.6 3.7 5.4 5.7 9.1 5.2-1.9 3.3-1.4 7.6 1.4 10.4 2.8 2.8 7.1 3.3 10.4 1.4-.5 3.8 1.5 7.6 5.2 9.1 4.4 1.9 9.5-.1 11.4-4.4.1 4.8 3.9 8.6 8.7 8.6 4.8 0 8.6-3.8 8.7-8.6 2 4.3 7 6.3 11.4 4.4 3.7-1.6 5.7-5.4 5.2-9.1 3.3 1.9 7.6 1.4 10.4-1.4 2.8-2.8 3.3-7.1 1.4-10.4 3.8.5 7.6-1.5 9.1-5.2 1.9-4.4-.1-9.5-4.4-11.4 4.8-.1 8.6-3.9 8.6-8.7 0-4.7-3.8-8.6-8.6-8.7" clip-path="url(#SVGID_2_)" fill="#f58220"/><path class="st1" d="M92.3 257c4.3-2 6.3-7 4.4-11.4-1.6-3.7-5.4-5.7-9.1-5.2 1.9-3.3 1.4-7.6-1.4-10.4-2.8-2.8-7.1-3.3-10.4-1.4.5-3.8-1.5-7.6-5.2-9.1-4.4-1.9-9.5.1-11.4 4.4-.1-4.8-3.9-8.6-8.7-8.6-4.8 0-8.6 3.8-8.7 8.6-2-4.3-7-6.3-11.4-4.4-3.7 1.6-5.7 5.4-5.2 9.1-3.3-1.9-7.6-1.4-10.4 1.4-2.8 2.8-3.3 7.1-1.4 10.4-3.8-.5-7.6 1.5-9.1 5.2-2 4.4 0 9.4 4.3 11.4-4.8.1-8.6 3.9-8.6 8.7 0 4.8 3.8 8.6 8.6 8.7-4.3 2-6.3 7-4.4 11.4 1.6 3.7 5.4 5.7 9.1 5.2-1.9 3.3-1.4 7.6 1.4 10.4 2.8 2.8 7.1 3.3 10.4 1.4-.5 3.8 1.5 7.6 5.2 9.1 4.4 1.9 9.5-.1 11.4-4.4.1 4.8 3.9 8.6 8.7 8.6 4.8 0 8.6-3.8 8.7-8.6 2 4.3 7 6.3 11.4 4.4 3.7-1.6 5.7-5.4 5.2-9.1 3.3 1.9 7.6 1.4 10.4-1.4 2.8-2.8 3.3-7.1 1.4-10.4 3.8.5 7.6-1.5 9.1-5.2 1.9-4.4-.1-9.5-4.4-11.4 4.8-.1 8.6-3.9 8.6-8.7.1-4.8-3.7-8.6-8.5-8.7"/><path class="st2" d="M312.2 257c4.3-2 6.3-7 4.4-11.4-1.6-3.7-5.4-5.7-9.1-5.2 1.9-3.3 1.4-7.6-1.4-10.4-2.8-2.8-7.1-3.3-10.4-1.4.5-3.8-1.5-7.6-5.2-9.2-4.4-1.9-9.5.1-11.4 4.4-.1-4.8-3.9-8.6-8.7-8.6-4.8 0-8.6 3.8-8.7 8.6-2-4.3-7-6.3-11.4-4.4-3.7 1.6-5.7 5.4-5.2 9.1-3.3-1.9-7.6-1.4-10.4 1.4-2.8 2.8-3.3 7.1-1.4 10.4-3.8-.5-7.6 1.5-9.1 5.2-1.9 4.4.1 9.5 4.4 11.4-4.8.1-8.6 3.9-8.6 8.7 0 4.8 3.8 8.6 8.6 8.7-4.3 2-6.3 7-4.4 11.4 1.6 3.7 5.4 5.7 9.1 5.2-1.9 3.3-1.4 7.6 1.4 10.4 2.8 2.8 7.1 3.3 10.4 1.4-.5 3.8 1.5 7.6 5.2 9.1 4.4 1.9 9.5-.1 11.4-4.4.1 4.8 3.9 8.6 8.7 8.6 4.8 0 8.6-3.8 8.7-8.6 2 4.3 7 6.3 11.4 4.4 3.7-1.6 5.7-5.4 5.2-9.1 3.3 1.9 7.6 1.4 10.4-1.4 2.8-2.8 3.3-7.1 1.4-10.4 3.8.5 7.6-1.5 9.1-5.2 1.9-4.4-.1-9.5-4.4-11.4 4.8-.1 8.6-3.9 8.6-8.7 0-4.7-3.8-8.5-8.6-8.6"/><path class="st3" d="M92.3 148.6c4.3-2 6.3-7 4.4-11.4-1.6-3.7-5.4-5.7-9.1-5.2 1.9-3.3 1.4-7.6-1.4-10.4-2.8-2.8-7.1-3.3-10.4-1.4.5-3.8-1.5-7.6-5.2-9.1-4.4-1.9-9.5.1-11.4 4.4-.1-4.8-3.9-8.6-8.7-8.6-4.8 0-8.6 3.8-8.7 8.6-2-4.3-7-6.3-11.4-4.4-3.7 1.6-5.7 5.4-5.2 9.1-3.3-1.9-7.6-1.4-10.4 1.4-2.8 2.8-3.3 7.1-1.4 10.4-3.8-.5-7.6 1.5-9.1 5.2-1.9 4.4.1 9.5 4.4 11.4-4.8.1-8.6 3.9-8.6 8.7 0 4.8 3.8 8.6 8.6 8.7-4.3 2-6.3 7-4.4 11.4 1.6 3.7 5.4 5.7 9.1 5.2-1.9 3.3-1.4 7.6 1.4 10.4 2.8 2.8 7.1 3.3 10.4 1.4-.5 3.8 1.5 7.6 5.2 9.1 4.4 1.9 9.5-.1 11.4-4.4.1 4.8 3.9 8.6 8.7 8.6 4.8 0 8.6-3.8 8.7-8.6 2 4.3 7 6.3 11.4 4.4 3.7-1.6 5.7-5.4 5.2-9.1 3.3 1.9 7.6 1.4 10.4-1.4 2.8-2.8 3.3-7.1 1.4-10.4 3.8.5 7.6-1.5 9.1-5.2 1.9-4.4-.1-9.5-4.4-11.4 4.8-.1 8.6-3.9 8.6-8.7 0-4.8-3.8-8.6-8.6-8.7"/><path d="M312.2 148.6c4.3-2 6.3-7 4.4-11.4-1.6-3.7-5.4-5.7-9.1-5.2 1.9-3.3 1.4-7.6-1.4-10.4-2.8-2.8-7.1-3.3-10.4-1.4.5-3.8-1.5-7.6-5.2-9.2-4.4-1.9-9.5.1-11.4 4.4-.1-4.8-3.9-8.6-8.7-8.6-4.8 0-8.6 3.8-8.7 8.6-2-4.3-7-6.3-11.4-4.4-3.7 1.6-5.7 5.4-5.2 9.2-3.3-1.9-7.6-1.4-10.4 1.4-2.8 2.8-3.3 7.1-1.4 10.4-3.8-.5-7.6 1.5-9.1 5.2-1.9 4.4.1 9.5 4.4 11.4-4.8.1-8.6 3.9-8.6 8.7s3.8 8.6 8.6 8.7c-4.3 2-6.3 7-4.4 11.4 1.6 3.7 5.4 5.7 9.1 5.2-1.9 3.3-1.4 7.6 1.4 10.4 2.8 2.8 7.1 3.3 10.4 1.4-.5 3.8 1.5 7.6 5.2 9.1 4.4 1.9 9.5-.1 11.4-4.4.1 4.8 3.9 8.6 8.7 8.6 4.8 0 8.6-3.8 8.7-8.6 2 4.3 7 6.3 11.4 4.4 3.7-1.6 5.7-5.4 5.2-9.1 3.3 1.9 7.6 1.4 10.4-1.4 2.8-2.8 3.3-7.1 1.4-10.4 3.8.5 7.6-1.5 9.1-5.2 1.9-4.4-.1-9.5-4.4-11.4 4.8-.1 8.6-3.9 8.6-8.7s-3.8-8.6-8.6-8.7" clip-path="url(#SVGID_2_)" fill="#8ec641"/><path d="M92.3 363.9c4.3-2 6.3-7 4.4-11.4-1.6-3.7-5.4-5.7-9.1-5.2 1.9-3.3 1.4-7.6-1.4-10.4-2.8-2.8-7.1-3.3-10.4-1.4.5-3.8-1.5-7.6-5.2-9.1-4.4-1.9-9.5.1-11.4 4.4-.1-4.8-3.9-8.6-8.7-8.6-4.8 0-8.6 3.8-8.7 8.6-2-4.3-7-6.3-11.4-4.4-3.7 1.6-5.7 5.4-5.2 9.1-3.3-1.9-7.6-1.4-10.4 1.4-2.8 2.8-3.3 7.1-1.4 10.4-3.8-.5-7.6 1.5-9.1 5.2-1.9 4.4.1 9.5 4.4 11.4-4.8.1-8.6 3.9-8.6 8.7 0 4.8 3.8 8.6 8.6 8.7-4.3 2-6.3 7-4.4 11.4 1.6 3.7 5.4 5.7 9.1 5.2-1.9 3.3-1.4 7.6 1.4 10.4 2.8 2.8 7.1 3.3 10.4 1.4-.5 3.8 1.5 7.6 5.2 9.1 4.4 1.9 9.5-.1 11.4-4.4.1 4.8 3.9 8.6 8.7 8.6 4.8 0 8.6-3.8 8.7-8.6 2 4.3 7 6.3 11.4 4.4 3.7-1.6 5.7-5.4 5.2-9.1 3.3 1.9 7.6 1.4 10.4-1.4 2.8-2.8 3.3-7.1 1.4-10.4 3.8.5 7.6-1.5 9.1-5.2 1.9-4.4-.1-9.5-4.4-11.4 4.8-.1 8.6-3.9 8.6-8.7s-3.8-8.7-8.6-8.7" clip-path="url(#SVGID_2_)" fill="#52c8eb"/><path class="st6" d="M312.2 363.9c4.3-2 6.3-7 4.4-11.4-1.6-3.7-5.4-5.7-9.1-5.2 1.9-3.3 1.4-7.6-1.4-10.4-2.8-2.8-7.1-3.3-10.4-1.4.5-3.8-1.5-7.6-5.2-9.1-4.4-1.9-9.5.1-11.4 4.4-.1-4.8-3.9-8.6-8.7-8.6-4.8 0-8.6 3.8-8.7 8.6-2-4.3-7-6.3-11.4-4.4-3.7 1.6-5.7 5.4-5.2 9.1-3.3-1.9-7.6-1.4-10.4 1.4-2.8 2.8-3.3 7.1-1.4 10.4-3.8-.5-7.6 1.5-9.1 5.2-1.9 4.4.1 9.5 4.4 11.4-4.8.1-8.6 3.9-8.6 8.7s3.8 8.6 8.6 8.7c-4.3 2-6.3 7-4.4 11.4 1.6 3.7 5.4 5.7 9.1 5.2-1.9 3.3-1.4 7.6 1.4 10.4 2.8 2.8 7.1 3.3 10.4 1.4-.5 3.8 1.5 7.6 5.2 9.1 4.4 1.9 9.5-.1 11.4-4.4.1 4.8 3.9 8.6 8.7 8.6 4.8 0 8.6-3.8 8.7-8.6 2 4.3 7 6.3 11.4 4.4 3.7-1.6 5.7-5.4 5.2-9.1 3.3 1.9 7.6 1.4 10.4-1.4 2.8-2.8 3.3-7.1 1.4-10.4 3.8.5 7.6-1.5 9.1-5.2 1.9-4.4-.1-9.5-4.4-11.4 4.8-.1 8.6-3.9 8.6-8.7 0-4.8-3.8-8.7-8.6-8.7"/><path class="st2" d="M200.8 41.7c4.3-2 6.3-7 4.4-11.4-1.6-3.7-5.4-5.7-9.1-5.2 1.9-3.3 1.4-7.6-1.4-10.4-2.8-2.8-7.1-3.3-10.4-1.4.5-3.8-1.5-7.6-5.2-9.1-4.4-1.9-9.5.1-11.4 4.4-.1-4.8-4-8.6-8.7-8.6-4.8 0-8.6 3.8-8.7 8.6-2-4.3-7-6.3-11.4-4.4-3.7 1.6-5.7 5.4-5.2 9.1-3.3-1.9-7.6-1.4-10.4 1.4-2.8 2.8-3.3 7.1-1.4 10.4-3.8-.5-7.6 1.5-9.1 5.2-1.9 4.4.1 9.5 4.4 11.4-4.8.1-8.6 3.9-8.6 8.7 0 4.8 3.8 8.6 8.6 8.7-4.3 2-6.3 7-4.4 11.4 1.6 3.7 5.4 5.7 9.1 5.2-1.9 3.3-1.4 7.6 1.4 10.4 2.8 2.8 7.1 3.3 10.4 1.4-.5 3.8 1.5 7.6 5.2 9.1 4.4 1.9 9.5-.1 11.4-4.4.1 4.8 3.9 8.6 8.7 8.6 4.8 0 8.6-3.8 8.7-8.6 2 4.3 7 6.3 11.4 4.4 3.7-1.6 5.7-5.4 5.2-9.1 3.3 1.9 7.6 1.4 10.4-1.4 2.8-2.8 3.3-7.1 1.4-10.4 3.8.5 7.6-1.5 9.1-5.2 1.9-4.4-.1-9.5-4.4-11.4 4.8-.1 8.6-3.9 8.6-8.7 0-4.7-3.8-8.6-8.6-8.7"/><path class="st6" d="M420.7 41.7c4.3-2 6.3-7 4.4-11.4-1.6-3.7-5.4-5.7-9.1-5.2 1.9-3.3 1.4-7.6-1.4-10.4-2.8-2.8-7.1-3.3-10.4-1.4.5-3.8-1.5-7.6-5.2-9.1-4.4-1.9-9.5.1-11.4 4.4-.1-4.8-3.9-8.6-8.7-8.6-4.8 0-8.6 3.8-8.7 8.6-2-4.3-7-6.3-11.4-4.4-3.7 1.6-5.7 5.4-5.2 9.1-3.3-1.9-7.6-1.4-10.4 1.4-2.8 2.8-3.3 7.1-1.4 10.4-3.8-.5-7.6 1.5-9.1 5.2-1.9 4.4.1 9.5 4.4 11.4-4.8.1-8.6 3.9-8.6 8.7 0 4.8 3.8 8.6 8.6 8.7-4.3 2-6.3 7-4.4 11.4 1.6 3.7 5.4 5.7 9.1 5.2-1.9 3.3-1.4 7.6 1.4 10.4 2.8 2.8 7.1 3.3 10.4 1.4-.5 3.8 1.5 7.6 5.2 9.1 4.4 1.9 9.5-.1 11.4-4.4.1 4.8 3.9 8.6 8.7 8.6 4.8 0 8.6-3.8 8.7-8.6 2 4.3 7 6.3 11.4 4.4 3.7-1.6 5.7-5.4 5.2-9.1 3.3 1.9 7.6 1.4 10.4-1.4 2.8-2.8 3.3-7.1 1.4-10.4 3.8.5 7.6-1.5 9.1-5.2 1.9-4.4-.1-9.5-4.4-11.4 4.8-.1 8.6-3.9 8.6-8.7 0-4.7-3.8-8.6-8.6-8.7"/><path d="M200.8 257c4.3-2 6.3-7 4.4-11.4-1.6-3.7-5.4-5.7-9.1-5.2 1.9-3.3 1.4-7.6-1.4-10.4-2.8-2.8-7.1-3.3-10.4-1.4.5-3.8-1.5-7.6-5.2-9.1-4.4-1.9-9.5.1-11.4 4.4-.1-4.8-3.9-8.6-8.7-8.6-4.8 0-8.6 3.8-8.7 8.6-2-4.3-7-6.3-11.4-4.4-3.7 1.6-5.7 5.4-5.2 9.1-3.3-1.9-7.6-1.4-10.4 1.4-2.8 2.8-3.3 7.1-1.4 10.4-3.8-.5-7.6 1.5-9.1 5.2-1.9 4.4.1 9.5 4.4 11.4-4.8.1-8.6 3.9-8.6 8.7 0 4.8 3.8 8.6 8.6 8.7-4.3 2-6.3 7-4.4 11.4 1.6 3.7 5.4 5.7 9.1 5.2-1.9 3.3-1.4 7.6 1.4 10.4 2.8 2.8 7.1 3.3 10.4 1.4-.5 3.8 1.5 7.6 5.2 9.1 4.4 1.9 9.5-.1 11.4-4.4.1 4.8 3.9 8.6 8.7 8.6 4.8 0 8.6-3.8 8.7-8.6 2 4.3 7 6.3 11.4 4.4 3.7-1.6 5.7-5.4 5.2-9.1 3.3 1.9 7.6 1.4 10.4-1.4 2.8-2.8 3.3-7.1 1.4-10.4 3.8.5 7.6-1.5 9.1-5.2 1.9-4.4-.1-9.5-4.4-11.4 4.8-.1 8.6-3.9 8.6-8.7 0-4.8-3.8-8.6-8.6-8.7" clip-path="url(#SVGID_2_)" fill="#f89521"/><path d="M420.7 257c4.3-2 6.3-7 4.4-11.4-1.6-3.7-5.4-5.7-9.1-5.2 1.9-3.3 1.4-7.6-1.4-10.4-2.8-2.8-7.1-3.3-10.4-1.4.5-3.8-1.5-7.6-5.2-9.1-4.4-1.9-9.5.1-11.4 4.4-.1-4.8-3.9-8.6-8.7-8.6-4.8 0-8.6 3.8-8.7 8.6-2-4.3-7-6.3-11.4-4.4-3.7 1.6-5.7 5.4-5.2 9.2-3.3-1.9-7.6-1.4-10.4 1.4-2.8 2.8-3.3 7.1-1.4 10.4-3.8-.5-7.6 1.5-9.1 5.2-1.9 4.4.1 9.5 4.4 11.4-4.8.1-8.6 3.9-8.6 8.7s3.8 8.6 8.6 8.7c-4.3 2-6.3 7-4.4 11.4 1.6 3.7 5.4 5.7 9.1 5.2-1.9 3.3-1.4 7.6 1.4 10.4 2.8 2.8 7.1 3.3 10.4 1.4-.5 3.8 1.5 7.6 5.2 9.1 4.4 1.9 9.5-.1 11.4-4.4.1 4.8 3.9 8.6 8.7 8.6 4.8 0 8.6-3.8 8.7-8.6 2 4.3 7 6.3 11.4 4.4 3.7-1.6 5.7-5.4 5.2-9.1 3.3 1.9 7.6 1.4 10.4-1.4 2.8-2.8 3.3-7.1 1.4-10.4 3.8.5 7.6-1.5 9.1-5.2 1.9-4.4-.1-9.5-4.4-11.4 4.8-.1 8.6-3.9 8.6-8.7 0-4.9-3.8-8.7-8.6-8.8" clip-path="url(#SVGID_2_)" fill="#466698"/><path class="st6" d="M200.8 148.6c4.3-2 6.3-7 4.4-11.4-1.6-3.7-5.4-5.7-9.1-5.2 1.9-3.3 1.4-7.6-1.4-10.4-2.8-2.8-7.1-3.3-10.4-1.4.5-3.8-1.5-7.6-5.2-9.1-4.4-1.9-9.5.1-11.4 4.4-.1-4.8-3.9-8.6-8.7-8.6-4.8 0-8.6 3.8-8.7 8.6-2-4.3-7-6.3-11.4-4.4-3.7 1.6-5.7 5.4-5.2 9.1-3.3-1.9-7.6-1.4-10.4 1.4-2.8 2.8-3.3 7.1-1.4 10.4-3.8-.5-7.6 1.5-9.1 5.2-1.9 4.4.1 9.5 4.4 11.4-4.8.1-8.6 3.9-8.6 8.7 0 4.8 3.8 8.6 8.6 8.7-4.3 2-6.3 7-4.4 11.4 1.6 3.7 5.4 5.7 9.1 5.2-1.9 3.3-1.4 7.6 1.4 10.4 2.8 2.8 7.1 3.3 10.4 1.4-.5 3.8 1.5 7.6 5.2 9.1 4.4 1.9 9.5-.1 11.4-4.4.1 4.8 3.9 8.6 8.7 8.6 4.8 0 8.6-3.8 8.7-8.6 2 4.3 7 6.3 11.4 4.4 3.7-1.6 5.7-5.4 5.2-9.1 3.3 1.9 7.6 1.4 10.4-1.4 2.8-2.8 3.3-7.1 1.4-10.4 3.8.5 7.6-1.5 9.1-5.2 1.9-4.4-.1-9.5-4.4-11.4 4.8-.1 8.6-3.9 8.6-8.7 0-4.8-3.8-8.6-8.6-8.7"/><path class="st1" d="M420.7 148.6c4.3-2 6.3-7 4.4-11.4-1.6-3.7-5.4-5.7-9.1-5.2 1.9-3.3 1.4-7.6-1.4-10.4-2.8-2.8-7.1-3.3-10.4-1.4.5-3.8-1.5-7.6-5.2-9.2-4.4-1.9-9.5.1-11.4 4.4-.1-4.8-3.9-8.6-8.7-8.6-4.8 0-8.6 3.8-8.7 8.6-2-4.3-7-6.3-11.4-4.4-3.7 1.6-5.7 5.4-5.2 9.2-3.3-1.9-7.6-1.4-10.4 1.4-2.8 2.8-3.3 7.1-1.4 10.4-3.8-.5-7.6 1.5-9.1 5.2-1.9 4.4.1 9.5 4.4 11.4-4.8.1-8.6 3.9-8.6 8.7 0 4.8 3.8 8.6 8.6 8.7-4.3 2-6.3 7-4.4 11.4 1.6 3.7 5.4 5.7 9.1 5.2-1.9 3.3-1.4 7.6 1.4 10.4 2.8 2.8 7.1 3.3 10.4 1.4-.5 3.8 1.5 7.6 5.2 9.1 4.4 1.9 9.5-.1 11.4-4.4.1 4.8 3.9 8.6 8.7 8.6 4.8 0 8.6-3.8 8.7-8.6 2 4.3 7 6.3 11.4 4.4 3.7-1.6 5.7-5.4 5.2-9.1 3.3 1.9 7.6 1.4 10.4-1.4 2.8-2.8 3.3-7.1 1.4-10.4 3.8.5 7.6-1.5 9.1-5.2 1.9-4.4-.1-9.5-4.4-11.4 4.8-.1 8.6-3.9 8.6-8.7s-3.8-8.6-8.6-8.7"/><path class="st3" d="M200.8 363.9c4.3-2 6.3-7 4.4-11.4-1.6-3.7-5.4-5.7-9.1-5.2 1.9-3.3 1.4-7.6-1.4-10.4-2.8-2.8-7.1-3.3-10.4-1.4.5-3.8-1.5-7.6-5.2-9.1-4.4-1.9-9.5.1-11.4 4.4-.1-4.8-3.9-8.6-8.7-8.6-4.8 0-8.6 3.8-8.7 8.6-2-4.3-7-6.3-11.4-4.4-3.7 1.6-5.7 5.4-5.2 9.1-3.3-1.9-7.6-1.4-10.4 1.4-2.8 2.8-3.3 7.1-1.4 10.4-3.8-.5-7.6 1.5-9.1 5.2-1.9 4.4.1 9.5 4.4 11.4-4.8.1-8.6 3.9-8.6 8.7 0 4.8 3.8 8.6 8.6 8.7-4.3 2-6.3 7-4.4 11.4 1.6 3.7 5.4 5.7 9.1 5.2-1.9 3.3-1.4 7.6 1.4 10.4 2.8 2.8 7.1 3.3 10.4 1.4-.5 3.8 1.5 7.6 5.2 9.1 4.4 1.9 9.5-.1 11.4-4.4.1 4.8 3.9 8.6 8.7 8.6 4.8 0 8.6-3.8 8.7-8.6 2 4.3 7 6.3 11.4 4.4 3.7-1.6 5.7-5.4 5.2-9.1 3.3 1.9 7.6 1.4 10.4-1.4 2.8-2.8 3.3-7.1 1.4-10.4 3.8.5 7.6-1.5 9.1-5.2 1.9-4.4-.1-9.5-4.4-11.4 4.8-.1 8.6-3.9 8.6-8.7 0-4.8-3.8-8.7-8.6-8.7m219.9 0c4.3-2 6.3-7 4.4-11.4-1.6-3.7-5.4-5.7-9.1-5.2 1.9-3.3 1.4-7.6-1.4-10.4-2.8-2.8-7.1-3.3-10.4-1.4.5-3.8-1.5-7.6-5.2-9.1-4.4-1.9-9.5.1-11.4 4.4-.1-4.8-3.9-8.6-8.7-8.6-4.8 0-8.6 3.8-8.7 8.6-2-4.3-7-6.3-11.4-4.4-3.7 1.6-5.7 5.4-5.2 9.1-3.3-1.9-7.6-1.4-10.4 1.4-2.8 2.8-3.3 7.1-1.4 10.4-3.8-.5-7.6 1.5-9.1 5.2-1.9 4.4.1 9.5 4.4 11.4-4.8.1-8.6 3.9-8.6 8.7 0 4.8 3.8 8.6 8.6 8.7-4.3 2-6.3 7-4.4 11.4 1.6 3.7 5.4 5.7 9.1 5.2-1.9 3.3-1.4 7.6 1.4 10.4 2.8 2.8 7.1 3.3 10.4 1.4-.5 3.8 1.5 7.6 5.2 9.1 4.4 1.9 9.5-.1 11.4-4.4.1 4.8 3.9 8.6 8.7 8.6 4.8 0 8.6-3.8 8.7-8.6 2 4.3 7 6.3 11.4 4.4 3.7-1.6 5.7-5.4 5.2-9.1 3.3 1.9 7.6 1.4 10.4-1.4 2.8-2.8 3.3-7.1 1.4-10.4 3.8.5 7.6-1.5 9.1-5.2 1.9-4.4-.1-9.5-4.4-11.4 4.8-.1 8.6-3.9 8.6-8.7 0-4.8-3.8-8.7-8.6-8.7"/><path d="M86.2 37.5c-1.4-2.5-5.6-3.1-8.1-3.6-3.9-.8-7.9-.3-11.7.5-.8.2-1.4.3-2 .5-.8-4.3-4.6-5.5-9.2-5.5H46c-4.6 0-8.4 1.2-9.2 5.6-.6-.2-1.4-.4-2.2-.6-3.9-.8-7.8-1.3-11.7-.5-2.5.5-6.8 1.1-8.1 3.6-.8 1.2-.8 3.5 0 4.7 1.6 2.5 6.9 2.1 9.3 1.8 4.1-.5 8.3-2 12.5-1.9l2.1 22.2c0 5.2 4.2 9.3 9.3 9.3h5.1c5.2 0 9.4-4.2 9.4-9.3l2.1-22.2c4.1-.1 8.2 1.4 12.3 1.9 2.4.3 7.7.6 9.3-1.8.7-1.2.7-3.5 0-4.7" clip-path="url(#SVGID_2_)" fill="#fff"/><defs><path id="SVGID_3_" d="M45.9 29.4c-4.6 0-8.4 1.2-9.2 5.6-.6-.2-1.4-.4-2.2-.6-3.9-.8-7.8-1.3-11.7-.5-2.5.5-6.8 1.1-8.1 3.6-.7 1.2-.7 3.5.1 4.7 1.6 2.5 6.9 2.1 9.3 1.8 4.1-.5 8.3-2 12.5-1.9l2.1 22.2c0 5.2 4.2 9.3 9.3 9.3h5.1c5.2 0 9.4-4.2 9.4-9.3l2.1-22.2c4.1-.1 8.2 1.4 12.3 1.9 2.4.3 7.7.6 9.3-1.8.8-1.2.8-3.5.1-4.7-1.4-2.5-5.7-3.1-8.1-3.6-3.9-.8-7.9-.3-11.7.5-.8.2-1.4.3-2 .5-.8-4.3-4.6-5.5-9.2-5.5h-9.4z"/></defs><clipPath id="SVGID_4_"><use xlink:href="#SVGID_3_" overflow="visible"/></clipPath><path d="M60.7 55.8s-1.7.6-.6 1.7m-1.6-1.7s1.7.6.6 1.7" clip-path="url(#SVGID_4_)" fill="none" stroke="#d3d6d8" stroke-width=".269"/><defs><path id="SVGID_5_" d="M0 0h544.8v423H0z"/></defs><clipPath id="SVGID_6_"><use xlink:href="#SVGID_5_" overflow="visible"/></clipPath><path d="M45.7 47.1c0 .9-.7 1.6-1.6 1.6-.9 0-1.6-.7-1.6-1.6 0-.9.7-1.6 1.6-1.6.9 0 1.6.7 1.6 1.6m12.2 0c0 .9-.7 1.6-1.6 1.6-.9 0-1.6-.7-1.6-1.6 0-.9.7-1.6 1.6-1.6.9 0 1.6.7 1.6 1.6" clip-path="url(#SVGID_6_)"/><path d="M86.1 42.2c.4-.7.6-1.8.6-2.8-2.1-1.4-5.9-2.3-10.2-2.3-6.6 0-12 2.1-12 4.8 0 .1.1.3.1.4v-.2c4.1-.1 8.2 1.4 12.3 1.9 2.3.3 7.6.7 9.2-1.8m-71.3 0c-.4-.7-.6-1.8-.6-2.8 2.1-1.4 5.9-2.3 10.2-2.3 6.6 0 12 2.1 12 4.8 0 .1-.1.3-.1.4v-.2C32.2 42 28.1 43.5 24 44c-2.4.3-7.7.7-9.2-1.8" fill="#fcdad8" clip-path="url(#SVGID_6_)"/><path d="M306.1 37.5c-1.4-2.5-5.6-3.1-8.1-3.6-3.9-.8-7.9-.3-11.7.5-.8.2-1.4.3-2 .5-.8-4.3-4.6-5.5-9.2-5.5h-9.2c-4.6 0-8.4 1.2-9.2 5.6-.6-.2-1.4-.4-2.2-.6-3.9-.8-7.8-1.3-11.7-.5-2.5.5-6.8 1.1-8.1 3.6-.7 1.2-.6 3.5.1 4.7 1.6 2.5 6.9 2.1 9.3 1.8 4.1-.5 8.3-2 12.5-1.9l2.1 22.2c0 5.2 4.2 9.3 9.3 9.3h5.1c5.2 0 9.4-4.2 9.4-9.3l2.1-22.2c4.1-.1 8.2 1.4 12.3 1.9 2.4.3 7.7.6 9.3-1.8.6-1.2.6-3.5-.1-4.7" clip-path="url(#SVGID_6_)" fill="#fff"/><defs><path id="SVGID_7_" d="M265.8 29.4c-4.6 0-8.4 1.2-9.2 5.6-.6-.2-1.4-.4-2.2-.6-3.9-.8-7.8-1.3-11.7-.5-2.5.5-6.8 1.1-8.1 3.6-.7 1.2-.6 3.5.1 4.7 1.6 2.5 6.9 2.1 9.3 1.8 4.1-.5 8.3-2 12.5-1.9l2.1 22.2c0 5.2 4.2 9.3 9.3 9.3h5.1c5.2 0 9.4-4.2 9.4-9.3l2.1-22.2c4.1-.1 8.2 1.4 12.3 1.9 2.4.3 7.7.6 9.3-1.8.8-1.2.8-3.5.1-4.7-1.4-2.5-5.6-3.1-8.1-3.6-3.9-.8-7.9-.3-11.7.5-.8.2-1.4.3-2 .5-.8-4.3-4.6-5.5-9.2-5.5h-9.4z"/></defs><clipPath id="SVGID_8_"><use xlink:href="#SVGID_7_" overflow="visible"/></clipPath><path d="M130.2 55.8s-1.7.6-.6 1.7m-1.6-1.7s1.7.6.6 1.7" clip-path="url(#SVGID_8_)" fill="none" stroke="#d3d6d8" stroke-width=".269"/><defs><path id="SVGID_9_" d="M0 0h544.8v423H0z"/></defs><clipPath id="SVGID_10_"><use xlink:href="#SVGID_9_" overflow="visible"/></clipPath><path d="M265.6 47.1c0 .9-.7 1.6-1.6 1.6-.9 0-1.6-.7-1.6-1.6 0-.9.7-1.6 1.6-1.6.9 0 1.6.7 1.6 1.6m12.2 0c0 .9-.7 1.6-1.6 1.6-.9 0-1.6-.7-1.6-1.6 0-.9.7-1.6 1.6-1.6.9 0 1.6.7 1.6 1.6" clip-path="url(#SVGID_10_)"/><path d="M306 42.2c.4-.7.6-1.8.6-2.8-2.1-1.4-5.9-2.3-10.2-2.3-6.6 0-12 2.1-12 4.8 0 .1.1.3.1.4v-.2c4.1-.1 8.2 1.4 12.3 1.9 2.4.3 7.6.7 9.2-1.8m-71.3 0c-.4-.7-.6-1.8-.6-2.8 2.1-1.4 5.9-2.3 10.2-2.3 6.6 0 12 2.1 12 4.8 0 .1-.1.3-.1.4v-.2c-4.1-.1-8.2 1.4-12.3 1.9-2.4.3-7.6.7-9.2-1.8" fill="#fcdad8" clip-path="url(#SVGID_10_)"/><path d="M86.2 252.8c-1.4-2.5-5.6-3.1-8.1-3.6-3.9-.8-7.9-.3-11.7.5-.8.2-1.4.3-2 .5-.8-4.3-4.6-5.5-9.2-5.5H46c-4.6 0-8.4 1.2-9.2 5.6-.6-.2-1.4-.4-2.2-.6-3.9-.8-7.8-1.3-11.7-.5-2.5.5-6.8 1.1-8.1 3.6-.7 1.2-.6 3.5.1 4.7 1.6 2.5 6.9 2.1 9.3 1.8 4.1-.5 8.3-2 12.5-1.9l2.1 22.2c0 5.2 4.2 9.3 9.3 9.3h5.1c5.2 0 9.4-4.2 9.4-9.3l2.1-22.2c4.1-.1 8.2 1.4 12.3 1.9 2.4.3 7.7.6 9.3-1.8.6-1.2.6-3.5-.1-4.7" clip-path="url(#SVGID_10_)" fill="#fff"/><defs><path id="SVGID_11_" d="M45.9 244.7c-4.6 0-8.4 1.2-9.2 5.6-.6-.2-1.4-.4-2.2-.6-3.9-.8-7.8-1.3-11.7-.5-2.5.5-6.8 1.1-8.1 3.6-.7 1.2-.6 3.5.1 4.7 1.6 2.5 6.9 2.1 9.3 1.8 4.1-.5 8.3-2 12.5-1.9l2.1 22.2c0 5.2 4.2 9.4 9.3 9.4h5.1c5.2 0 9.4-4.2 9.4-9.4l2.1-22.2c4.1-.1 8.2 1.4 12.3 1.9 2.4.3 7.7.6 9.3-1.8.8-1.2.8-3.5.1-4.7-1.4-2.5-5.7-3.1-8.1-3.6-3.9-.8-7.9-.3-11.7.5-.8.2-1.4.3-2 .5-.8-4.3-4.6-5.5-9.2-5.5h-9.4z"/></defs><clipPath id="SVGID_12_"><use xlink:href="#SVGID_11_" overflow="visible"/></clipPath><path d="M60.7 123.9s-1.7.6-.6 1.7m-1.6-1.7s1.7.6.6 1.7" clip-path="url(#SVGID_12_)" fill="none" stroke="#d3d6d8" stroke-width=".269"/><defs><path id="SVGID_13_" d="M0 0h544.8v423H0z"/></defs><clipPath id="SVGID_14_"><use xlink:href="#SVGID_13_" overflow="visible"/></clipPath><path d="M45.7 262.3c0 .9-.7 1.6-1.6 1.6-.9 0-1.6-.7-1.6-1.6 0-.9.7-1.6 1.6-1.6.9.1 1.6.8 1.6 1.6m12.2 0c0 .9-.7 1.6-1.6 1.6-.9 0-1.6-.7-1.6-1.6 0-.9.7-1.6 1.6-1.6.9.1 1.6.8 1.6 1.6" clip-path="url(#SVGID_14_)"/><path d="M86.1 257.5c.4-.7.6-1.8.6-2.8-2.1-1.4-5.9-2.3-10.2-2.3-6.6 0-12 2.1-12 4.8 0 .1.1.3.1.4v-.2c4.1-.1 8.2 1.4 12.3 1.9 2.3.3 7.6.6 9.2-1.8m-71.3 0c-.4-.7-.6-1.8-.6-2.8 2.1-1.4 5.9-2.3 10.2-2.3 6.6 0 12 2.1 12 4.8 0 .1-.1.3-.1.4v-.2c-4.1-.1-8.2 1.4-12.3 1.9-2.4.3-7.7.6-9.2-1.8" fill="#fcdad8" clip-path="url(#SVGID_14_)"/><path d="M306.1 252.8c-1.4-2.5-5.6-3.1-8.1-3.6-3.9-.8-7.9-.3-11.7.5-.8.2-1.4.3-2 .5-.8-4.3-4.6-5.5-9.2-5.5h-9.2c-4.6 0-8.4 1.2-9.2 5.6-.6-.2-1.4-.4-2.2-.6-3.9-.8-7.8-1.3-11.7-.5-2.5.5-6.8 1.1-8.1 3.6-.7 1.2-.6 3.5.1 4.7 1.6 2.5 6.9 2.1 9.3 1.8 4.1-.5 8.3-2 12.5-1.9l2.1 22.2c0 5.2 4.2 9.3 9.3 9.3h5.1c5.2 0 9.4-4.2 9.4-9.3l2.1-22.2c4.1-.1 8.2 1.4 12.3 1.9 2.4.3 7.7.6 9.3-1.8.6-1.2.6-3.5-.1-4.7" clip-path="url(#SVGID_14_)" fill="#fff"/><defs><path id="SVGID_15_" d="M265.8 244.7c-4.6 0-8.4 1.2-9.2 5.6-.6-.2-1.4-.4-2.2-.6-3.9-.8-7.8-1.3-11.7-.5-2.5.5-6.8 1.1-8.1 3.6-.7 1.2-.6 3.5.1 4.7 1.6 2.5 6.9 2.1 9.3 1.8 4.1-.5 8.3-2 12.5-1.9l2.1 22.2c0 5.2 4.2 9.4 9.3 9.4h5.1c5.2 0 9.4-4.2 9.4-9.4l2.1-22.2c4.1-.1 8.2 1.4 12.3 1.9 2.4.3 7.7.6 9.3-1.8.8-1.2.8-3.5.1-4.7-1.4-2.5-5.6-3.1-8.1-3.6-3.9-.8-7.9-.3-11.7.5-.8.2-1.4.3-2 .5-.8-4.3-4.6-5.5-9.2-5.5h-9.4z"/></defs><clipPath id="SVGID_16_"><use xlink:href="#SVGID_15_" overflow="visible"/></clipPath><path d="M130.2 123.9s-1.7.6-.6 1.7m-1.6-1.7s1.7.6.6 1.7" clip-path="url(#SVGID_16_)" fill="none" stroke="#d3d6d8" stroke-width=".269"/><defs><path id="SVGID_17_" d="M0 0h544.8v423H0z"/></defs><clipPath id="SVGID_18_"><use xlink:href="#SVGID_17_" overflow="visible"/></clipPath><path d="M265.6 262.3c0 .9-.7 1.6-1.6 1.6-.9 0-1.6-.7-1.6-1.6 0-.9.7-1.6 1.6-1.6.9.1 1.6.8 1.6 1.6m12.2 0c0 .9-.7 1.6-1.6 1.6-.9 0-1.6-.7-1.6-1.6 0-.9.7-1.6 1.6-1.6.9.1 1.6.8 1.6 1.6" clip-path="url(#SVGID_18_)"/><path d="M306 257.5c.4-.7.6-1.8.6-2.8-2.1-1.4-5.9-2.3-10.2-2.3-6.6 0-12 2.1-12 4.8 0 .1.1.3.1.4v-.2c4.1-.1 8.2 1.4 12.3 1.9 2.4.3 7.6.6 9.2-1.8m-71.3 0c-.4-.7-.6-1.8-.6-2.8 2.1-1.4 5.9-2.3 10.2-2.3 6.6 0 12 2.1 12 4.8 0 .1-.1.3-.1.4v-.2c-4.1-.1-8.2 1.4-12.3 1.9-2.4.3-7.6.6-9.2-1.8" fill="#fcdad8" clip-path="url(#SVGID_18_)"/><path d="M86.2 144.4c-1.4-2.5-5.6-3.1-8.1-3.6-3.9-.8-7.9-.3-11.7.5-.8.2-1.4.3-2 .5-.8-4.3-4.6-5.5-9.2-5.5H46c-4.6 0-8.4 1.2-9.2 5.6-.6-.2-1.4-.4-2.2-.6-3.9-.8-7.8-1.3-11.7-.5-2.5.5-6.8 1.1-8.1 3.6-.7 1.2-.6 3.5.1 4.7 1.6 2.5 6.9 2.1 9.3 1.8 4.1-.5 8.3-2 12.5-1.9l2.1 22.2c0 5.2 4.2 9.3 9.3 9.3h5.1c5.2 0 9.4-4.2 9.4-9.3l2.1-22.2c4.1-.1 8.2 1.4 12.3 1.9 2.4.3 7.7.6 9.3-1.8.6-1.2.6-3.5-.1-4.7" clip-path="url(#SVGID_18_)" fill="#fff"/><defs><path id="SVGID_19_" d="M45.9 136.2c-4.6 0-8.4 1.2-9.2 5.6-.6-.2-1.4-.4-2.2-.6-3.9-.8-7.8-1.3-11.7-.5-2.5.5-6.8 1.1-8.1 3.6-.7 1.2-.6 3.5.1 4.7 1.6 2.5 6.9 2.1 9.3 1.8 4.1-.5 8.3-2 12.5-1.9l2.1 22.2c0 5.2 4.2 9.4 9.3 9.4h5.1c5.2 0 9.4-4.2 9.4-9.4l2.1-22.2c4.1-.1 8.2 1.4 12.3 1.9 2.4.3 7.7.6 9.3-1.8.8-1.2.8-3.5.1-4.7-1.4-2.5-5.7-3.1-8.1-3.6-3.9-.8-7.9-.3-11.7.5-.8.2-1.4.3-2 .5-.8-4.3-4.6-5.5-9.2-5.5h-9.4z"/></defs><clipPath id="SVGID_20_"><use xlink:href="#SVGID_19_" overflow="visible"/></clipPath><path d="M60.7 89.6s-1.7.6-.6 1.7m-1.6-1.7s1.7.6.6 1.7" clip-path="url(#SVGID_20_)" fill="none" stroke="#d3d6d8" stroke-width=".269"/><defs><path id="SVGID_21_" d="M0 0h544.8v423H0z"/></defs><clipPath id="SVGID_22_"><use xlink:href="#SVGID_21_" overflow="visible"/></clipPath><path d="M45.7 153.9c0 .9-.7 1.6-1.6 1.6-.9 0-1.6-.7-1.6-1.6 0-.9.7-1.6 1.6-1.6.9 0 1.6.8 1.6 1.6m12.2 0c0 .9-.7 1.6-1.6 1.6-.9 0-1.6-.7-1.6-1.6 0-.9.7-1.6 1.6-1.6.9 0 1.6.8 1.6 1.6" clip-path="url(#SVGID_22_)"/><path d="M86.1 149c.4-.7.6-1.8.6-2.8-2.1-1.4-5.9-2.3-10.2-2.3-6.6 0-12 2.1-12 4.8 0 .1.1.3.1.4v-.1c4.1-.1 8.2 1.4 12.3 1.9 2.3.3 7.6.6 9.2-1.9m-71.3 0c-.4-.7-.6-1.8-.6-2.8 2.1-1.4 5.9-2.3 10.2-2.3 6.6 0 12 2.1 12 4.8 0 .1-.1.3-.1.4v-.1c-4.1-.1-8.2 1.4-12.3 1.9-2.4.3-7.7.6-9.2-1.9" fill="#fcdad8" clip-path="url(#SVGID_22_)"/><path d="M306.1 144.4c-1.4-2.5-5.6-3.1-8.1-3.6-3.9-.8-7.9-.3-11.7.5-.8.2-1.4.3-2 .5-.8-4.3-4.6-5.5-9.2-5.5h-9.2c-4.6 0-8.4 1.2-9.2 5.6-.6-.2-1.4-.4-2.2-.6-3.9-.8-7.8-1.3-11.7-.5-2.5.5-6.8 1.1-8.1 3.6-.7 1.2-.6 3.5.1 4.7 1.6 2.5 6.9 2.1 9.3 1.8 4.1-.5 8.3-2 12.5-1.9l2.1 22.2c0 5.2 4.2 9.3 9.3 9.3h5.1c5.2 0 9.4-4.2 9.4-9.3l2.1-22.2c4.1-.1 8.2 1.4 12.3 1.9 2.4.3 7.7.6 9.3-1.8.6-1.2.6-3.5-.1-4.7" clip-path="url(#SVGID_22_)" fill="#fff"/><defs><path id="SVGID_23_" d="M265.8 136.2c-4.6 0-8.4 1.2-9.2 5.6-.6-.2-1.4-.4-2.2-.6-3.9-.8-7.8-1.3-11.7-.5-2.5.5-6.8 1.1-8.1 3.6-.7 1.2-.6 3.5.1 4.7 1.6 2.5 6.9 2.1 9.3 1.8 4.1-.5 8.3-2 12.5-1.9l2.1 22.2c0 5.2 4.2 9.4 9.3 9.4h5.1c5.2 0 9.4-4.2 9.4-9.4l2.1-22.2c4.1-.1 8.2 1.4 12.3 1.9 2.4.3 7.7.6 9.3-1.8.8-1.2.8-3.5.1-4.7-1.4-2.5-5.6-3.1-8.1-3.6-3.9-.8-7.9-.3-11.7.5-.8.2-1.4.3-2 .5-.8-4.3-4.6-5.5-9.2-5.5h-9.4z"/></defs><clipPath id="SVGID_24_"><use xlink:href="#SVGID_23_" overflow="visible"/></clipPath><path d="M130.2 89.6s-1.7.6-.6 1.7m-1.6-1.7s1.7.6.6 1.7" clip-path="url(#SVGID_24_)" fill="none" stroke="#d3d6d8" stroke-width=".269"/><defs><path id="SVGID_25_" d="M0 0h544.8v423H0z"/></defs><clipPath id="SVGID_26_"><use xlink:href="#SVGID_25_" overflow="visible"/></clipPath><path d="M265.6 153.9c0 .9-.7 1.6-1.6 1.6-.9 0-1.6-.7-1.6-1.6 0-.9.7-1.6 1.6-1.6.9 0 1.6.8 1.6 1.6m12.2 0c0 .9-.7 1.6-1.6 1.6-.9 0-1.6-.7-1.6-1.6 0-.9.7-1.6 1.6-1.6.9 0 1.6.8 1.6 1.6" clip-path="url(#SVGID_26_)"/><path d="M306 149c.4-.7.6-1.8.6-2.8-2.1-1.4-5.9-2.3-10.2-2.3-6.6 0-12 2.1-12 4.8 0 .1.1.3.1.4v-.1c4.1-.1 8.2 1.4 12.3 1.9 2.4.3 7.6.6 9.2-1.9m-71.3 0c-.4-.7-.6-1.8-.6-2.8 2.1-1.4 5.9-2.3 10.2-2.3 6.6 0 12 2.1 12 4.8 0 .1-.1.3-.1.4v-.1c-4.1-.1-8.2 1.4-12.3 1.9-2.4.3-7.6.6-9.2-1.9" fill="#fcdad8" clip-path="url(#SVGID_26_)"/><path d="M86.2 359.6c-1.4-2.5-5.6-3.1-8.1-3.6-3.9-.8-7.9-.3-11.7.5-.8.2-1.4.3-2 .5-.8-4.3-4.6-5.5-9.2-5.5H46c-4.6 0-8.4 1.2-9.2 5.6-.6-.2-1.4-.4-2.2-.6-3.9-.8-7.8-1.3-11.7-.5-2.5.5-6.8 1.1-8.1 3.6-.7 1.2-.6 3.5.1 4.7 1.6 2.5 6.9 2.1 9.3 1.8 4.1-.5 8.3-2 12.5-1.9l2.1 22.2c0 5.2 4.2 9.3 9.3 9.3h5.1c5.2 0 9.4-4.2 9.4-9.3l2.1-22.2c4.1-.1 8.2 1.4 12.3 1.9 2.4.3 7.7.6 9.3-1.8.6-1.2.6-3.4-.1-4.7" clip-path="url(#SVGID_26_)" fill="#fff"/><defs><path id="SVGID_27_" d="M45.9 351.5c-4.6 0-8.4 1.2-9.2 5.6-.6-.2-1.4-.4-2.2-.6-3.9-.8-7.8-1.3-11.7-.5-2.5.5-6.8 1.1-8.1 3.6-.7 1.2-.6 3.5.1 4.7 1.6 2.5 6.9 2.1 9.3 1.8 4.1-.5 8.3-2 12.5-1.9l2.1 22.2c0 5.2 4.2 9.4 9.3 9.4h5.1c5.2 0 9.4-4.2 9.4-9.4l2.1-22.2c4.1-.1 8.2 1.4 12.3 1.9 2.4.3 7.7.6 9.3-1.8.8-1.2.8-3.5.1-4.7-1.4-2.5-5.7-3.1-8.1-3.6-3.9-.8-7.9-.3-11.7.5-.8.2-1.4.3-2 .5-.8-4.3-4.6-5.5-9.2-5.5h-9.4z"/></defs><clipPath id="SVGID_28_"><use xlink:href="#SVGID_27_" overflow="visible"/></clipPath><path d="M60.7 157.7s-1.7.6-.6 1.7m-1.6-1.7s1.7.6.6 1.7" clip-path="url(#SVGID_28_)" fill="none" stroke="#d3d6d8" stroke-width=".269"/><defs><path id="SVGID_29_" d="M0 0h544.8v423H0z"/></defs><clipPath id="SVGID_30_"><use xlink:href="#SVGID_29_" overflow="visible"/></clipPath><path d="M45.7 369.2c0 .9-.7 1.6-1.6 1.6-.9 0-1.6-.7-1.6-1.6 0-.9.7-1.6 1.6-1.6.9 0 1.6.7 1.6 1.6m12.2 0c0 .9-.7 1.6-1.6 1.6-.9 0-1.6-.7-1.6-1.6 0-.9.7-1.6 1.6-1.6.9 0 1.6.7 1.6 1.6" clip-path="url(#SVGID_30_)"/><path d="M86.1 364.3c.4-.7.6-1.8.6-2.8-2.1-1.4-5.9-2.3-10.2-2.3-6.6 0-12 2.1-12 4.8 0 .1.1.3.1.4v-.2c4.1-.1 8.2 1.4 12.3 1.9 2.3.3 7.6.7 9.2-1.8m-71.3 0c-.4-.7-.6-1.8-.6-2.8 2.1-1.4 5.9-2.3 10.2-2.3 6.6 0 12 2.1 12 4.8 0 .1-.1.3-.1.4v-.2c-4.1-.1-8.2 1.4-12.3 1.9-2.4.3-7.7.7-9.2-1.8" fill="#fcdad8" clip-path="url(#SVGID_30_)"/><path d="M306.1 359.6c-1.4-2.5-5.6-3.1-8.1-3.6-3.9-.8-7.9-.3-11.7.5-.8.2-1.4.3-2 .5-.8-4.3-4.6-5.5-9.2-5.5h-9.2c-4.6 0-8.4 1.2-9.2 5.6-.6-.2-1.4-.4-2.2-.6-3.9-.8-7.8-1.3-11.7-.5-2.5.5-6.8 1.1-8.1 3.6-.7 1.2-.6 3.5.1 4.7 1.6 2.5 6.9 2.1 9.3 1.8 4.1-.5 8.3-2 12.5-1.9l2.1 22.2c0 5.2 4.2 9.3 9.3 9.3h5.1c5.2 0 9.4-4.2 9.4-9.3l2.1-22.2c4.1-.1 8.2 1.4 12.3 1.9 2.4.3 7.7.6 9.3-1.8.6-1.2.6-3.4-.1-4.7" clip-path="url(#SVGID_30_)" fill="#fff"/><g><defs><path id="SVGID_31_" d="M265.8 351.5c-4.6 0-8.4 1.2-9.2 5.6-.6-.2-1.4-.4-2.2-.6-3.9-.8-7.8-1.3-11.7-.5-2.5.5-6.8 1.1-8.1 3.6-.7 1.2-.6 3.5.1 4.7 1.6 2.5 6.9 2.1 9.3 1.8 4.1-.5 8.3-2 12.5-1.9l2.1 22.2c0 5.2 4.2 9.4 9.3 9.4h5.1c5.2 0 9.4-4.2 9.4-9.4l2.1-22.2c4.1-.1 8.2 1.4 12.3 1.9 2.4.3 7.7.6 9.3-1.8.8-1.2.8-3.5.1-4.7-1.4-2.5-5.6-3.1-8.1-3.6-3.9-.8-7.9-.3-11.7.5-.8.2-1.4.3-2 .5-.8-4.3-4.6-5.5-9.2-5.5h-9.4z"/></defs><clipPath id="SVGID_32_"><use xlink:href="#SVGID_31_" overflow="visible"/></clipPath><path d="M130.2 157.7s-1.7.6-.6 1.7m-1.6-1.7s1.7.6.6 1.7" clip-path="url(#SVGID_32_)" fill="none" stroke="#d3d6d8" stroke-width=".269"/></g><g><defs><path id="SVGID_33_" d="M0 0h544.8v423H0z"/></defs><clipPath id="SVGID_34_"><use xlink:href="#SVGID_33_" overflow="visible"/></clipPath><path d="M265.6 369.2c0 .9-.7 1.6-1.6 1.6-.9 0-1.6-.7-1.6-1.6 0-.9.7-1.6 1.6-1.6.9 0 1.6.7 1.6 1.6m12.2 0c0 .9-.7 1.6-1.6 1.6-.9 0-1.6-.7-1.6-1.6 0-.9.7-1.6 1.6-1.6.9 0 1.6.7 1.6 1.6" clip-path="url(#SVGID_34_)"/><path d="M306 364.3c.4-.7.6-1.8.6-2.8-2.1-1.4-5.9-2.3-10.2-2.3-6.6 0-12 2.1-12 4.8 0 .1.1.3.1.4v-.2c4.1-.1 8.2 1.4 12.3 1.9 2.4.3 7.6.7 9.2-1.8m-71.3 0c-.4-.7-.6-1.8-.6-2.8 2.1-1.4 5.9-2.3 10.2-2.3 6.6 0 12 2.1 12 4.8 0 .1-.1.3-.1.4v-.2c-4.1-.1-8.2 1.4-12.3 1.9-2.4.3-7.6.7-9.2-1.8" fill="#fcdad8" clip-path="url(#SVGID_34_)"/><path d="M194.7 37.5c-1.4-2.5-5.6-3.1-8.1-3.6-3.9-.8-7.9-.3-11.7.5-.8.2-1.4.3-2 .5-.8-4.3-4.6-5.5-9.2-5.5h-9.2c-4.6 0-8.4 1.2-9.2 5.6-.6-.2-1.4-.4-2.2-.6-3.9-.8-7.8-1.3-11.7-.5-2.5.5-6.8 1.1-8.1 3.6-.7 1.2-.6 3.5.1 4.7 1.6 2.5 6.9 2.1 9.3 1.8 4.1-.5 8.3-2 12.5-1.9l2.1 22.2c0 5.2 4.2 9.3 9.3 9.3h5.1c5.2 0 9.4-4.2 9.4-9.3l2.1-22.2c4.1-.1 8.2 1.4 12.3 1.9 2.4.3 7.7.6 9.3-1.8.6-1.2.6-3.5-.1-4.7" clip-path="url(#SVGID_34_)" fill="#fff"/></g><g><defs><path id="SVGID_35_" d="M154.4 29.4c-4.6 0-8.4 1.2-9.2 5.6-.6-.2-1.4-.4-2.2-.6-3.9-.8-7.8-1.3-11.7-.5-2.5.5-6.8 1.1-8.1 3.6-.7 1.2-.7 3.5.1 4.7 1.6 2.5 6.9 2.1 9.3 1.8 4.1-.5 8.3-2 12.5-1.9l2.1 22.2c0 5.2 4.2 9.3 9.3 9.3h5.1c5.2 0 9.3-4.2 9.3-9.3l2.1-22.2c4.1-.1 8.2 1.4 12.3 1.9 2.4.3 7.7.6 9.3-1.8.8-1.2.8-3.5.1-4.7-1.4-2.5-5.6-3.1-8.1-3.6-3.9-.8-7.9-.3-11.7.5-.8.2-1.4.3-2 .5-.8-4.3-4.6-5.5-9.2-5.5h-9.3z"/></defs><clipPath id="SVGID_36_"><use xlink:href="#SVGID_35_" overflow="visible"/></clipPath><path d="M95 55.8s-1.7.6-.6 1.7m-1.6-1.7s1.7.6.6 1.7" clip-path="url(#SVGID_36_)" fill="none" stroke="#d3d6d8" stroke-width=".269"/></g><g><defs><path id="SVGID_37_" d="M0 0h544.8v423H0z"/></defs><clipPath id="SVGID_38_"><use xlink:href="#SVGID_37_" overflow="visible"/></clipPath><path d="M154.2 47.1c0 .9-.7 1.6-1.6 1.6-.9 0-1.6-.7-1.6-1.6 0-.9.7-1.6 1.6-1.6.9 0 1.6.7 1.6 1.6m12.2 0c0 .9-.7 1.6-1.6 1.6-.9 0-1.6-.7-1.6-1.6 0-.9.7-1.6 1.6-1.6.9 0 1.6.7 1.6 1.6" clip-path="url(#SVGID_38_)"/><path d="M194.6 42.2c.4-.7.6-1.8.6-2.8-2.1-1.4-5.9-2.3-10.2-2.3-6.6 0-12 2.1-12 4.8 0 .1.1.3.1.4v-.2c4.1-.1 8.2 1.4 12.3 1.9 2.3.3 7.6.7 9.2-1.8m-71.3 0c-.4-.7-.6-1.8-.6-2.8 2.1-1.4 5.9-2.3 10.2-2.3 6.6 0 12 2.1 12 4.8 0 .1-.1.3-.1.4v-.2c-4.1-.1-8.2 1.4-12.3 1.9-2.4.3-7.6.7-9.2-1.8" fill="#fcdad8" clip-path="url(#SVGID_38_)"/><path d="M414.6 37.5c-1.4-2.5-5.6-3.1-8.1-3.6-3.9-.8-7.9-.3-11.7.5-.8.2-1.4.3-2 .5-.8-4.3-4.6-5.5-9.2-5.5h-9.2c-4.6 0-8.4 1.2-9.2 5.6-.6-.2-1.4-.4-2.2-.6-3.9-.8-7.8-1.3-11.7-.5-2.5.5-6.8 1.1-8.1 3.6-.7 1.2-.6 3.5.1 4.7 1.6 2.5 6.9 2.1 9.3 1.8 4.1-.5 8.3-2 12.5-1.9l2.1 22.2c0 5.2 4.2 9.3 9.3 9.3h5.1c5.2 0 9.4-4.2 9.4-9.3l2.1-22.2c4.1-.1 8.2 1.4 12.3 1.9 2.4.3 7.7.6 9.3-1.8.6-1.2.6-3.5-.1-4.7" clip-path="url(#SVGID_38_)" fill="#fff"/></g><g><defs><path id="SVGID_39_" d="M374.3 29.4c-4.6 0-8.4 1.2-9.2 5.6-.6-.2-1.4-.4-2.2-.6-3.9-.8-7.8-1.3-11.7-.5-2.5.5-6.8 1.1-8.1 3.6-.7 1.2-.6 3.5.1 4.7 1.6 2.5 6.9 2.1 9.3 1.8 4.1-.5 8.3-2 12.5-1.9l2.1 22.2c0 5.2 4.2 9.3 9.3 9.3h5.1c5.2 0 9.4-4.2 9.4-9.3l2.1-22.2c4.1-.1 8.2 1.4 12.3 1.9 2.4.3 7.7.6 9.3-1.8.8-1.2.8-3.5.1-4.7-1.4-2.5-5.6-3.1-8.1-3.6-3.9-.8-7.9-.3-11.7.5-.8.2-1.4.3-2 .5-.8-4.3-4.6-5.5-9.2-5.5h-9.4z"/></defs><clipPath id="SVGID_40_"><use xlink:href="#SVGID_39_" overflow="visible"/></clipPath><path d="M164.5 55.8s-1.7.6-.6 1.7m-1.5-1.7s1.7.6.6 1.7" clip-path="url(#SVGID_40_)" fill="none" stroke="#d3d6d8" stroke-width=".269"/></g><g><defs><path id="SVGID_41_" d="M0 0h544.8v423H0z"/></defs><clipPath id="SVGID_42_"><use xlink:href="#SVGID_41_" overflow="visible"/></clipPath><path d="M374.1 47.1c0 .9-.7 1.6-1.6 1.6-.9 0-1.6-.7-1.6-1.6 0-.9.7-1.6 1.6-1.6.9 0 1.6.7 1.6 1.6m12.2 0c0 .9-.7 1.6-1.6 1.6-.9 0-1.6-.7-1.6-1.6 0-.9.7-1.6 1.6-1.6.9 0 1.6.7 1.6 1.6" clip-path="url(#SVGID_42_)"/><path d="M414.5 42.2c.4-.7.6-1.8.6-2.8-2.1-1.4-5.9-2.3-10.2-2.3-6.6 0-12 2.1-12 4.8 0 .1.1.3.1.4v-.2c4.1-.1 8.2 1.4 12.3 1.9 2.4.3 7.6.7 9.2-1.8m-71.3 0c-.4-.7-.6-1.8-.6-2.8 2.1-1.4 5.9-2.3 10.2-2.3 6.6 0 12 2.1 12 4.8 0 .1-.1.3-.1.4v-.2c-4.1-.1-8.2 1.4-12.3 1.9-2.4.3-7.6.7-9.2-1.8" fill="#fcdad8" clip-path="url(#SVGID_42_)"/><path d="M194.7 252.8c-1.4-2.5-5.6-3.1-8.1-3.6-3.9-.8-7.9-.3-11.7.5-.8.2-1.4.3-2 .5-.8-4.3-4.6-5.5-9.2-5.5h-9.2c-4.6 0-8.4 1.2-9.2 5.6-.6-.2-1.4-.4-2.2-.6-3.9-.8-7.8-1.3-11.7-.5-2.5.5-6.8 1.1-8.1 3.6-.7 1.2-.6 3.5.1 4.7 1.6 2.5 6.9 2.1 9.3 1.8 4.1-.5 8.3-2 12.5-1.9l2.1 22.2c0 5.2 4.2 9.3 9.3 9.3h5.1c5.2 0 9.4-4.2 9.4-9.3l2.1-22.2c4.1-.1 8.2 1.4 12.3 1.9 2.4.3 7.7.6 9.3-1.8.6-1.2.6-3.5-.1-4.7" clip-path="url(#SVGID_42_)" fill="#fff"/></g><g><defs><path id="SVGID_43_" d="M154.4 244.7c-4.6 0-8.4 1.2-9.2 5.6-.6-.2-1.4-.4-2.2-.6-3.9-.8-7.8-1.3-11.7-.5-2.5.5-6.8 1.1-8.1 3.6-.7 1.2-.7 3.5.1 4.7 1.6 2.5 6.9 2.1 9.3 1.8 4.1-.5 8.3-2 12.5-1.9l2.1 22.2c0 5.2 4.2 9.4 9.3 9.4h5.1c5.2 0 9.3-4.2 9.3-9.4l2.1-22.2c4.1-.1 8.2 1.4 12.3 1.9 2.4.3 7.7.6 9.3-1.8.8-1.2.8-3.5.1-4.7-1.4-2.5-5.6-3.1-8.1-3.6-3.9-.8-7.9-.3-11.7.5-.8.2-1.4.3-2 .5-.8-4.3-4.6-5.5-9.2-5.5h-9.3z"/></defs><clipPath id="SVGID_44_"><use xlink:href="#SVGID_43_" overflow="visible"/></clipPath><path d="M95 123.9s-1.7.6-.6 1.7m-1.6-1.7s1.7.6.6 1.7" clip-path="url(#SVGID_44_)" fill="none" stroke="#d3d6d8" stroke-width=".269"/></g><g><defs><path id="SVGID_45_" d="M0 0h544.8v423H0z"/></defs><clipPath id="SVGID_46_"><use xlink:href="#SVGID_45_" overflow="visible"/></clipPath><path d="M154.2 262.3c0 .9-.7 1.6-1.6 1.6-.9 0-1.6-.7-1.6-1.6 0-.9.7-1.6 1.6-1.6.9.1 1.6.8 1.6 1.6m12.2 0c0 .9-.7 1.6-1.6 1.6-.9 0-1.6-.7-1.6-1.6 0-.9.7-1.6 1.6-1.6.9.1 1.6.8 1.6 1.6" clip-path="url(#SVGID_46_)"/><path d="M194.6 257.5c.4-.7.6-1.8.6-2.8-2.1-1.4-5.9-2.3-10.2-2.3-6.6 0-12 2.1-12 4.8 0 .1.1.3.1.4v-.2c4.1-.1 8.2 1.4 12.3 1.9 2.3.3 7.6.6 9.2-1.8m-71.3 0c-.4-.7-.6-1.8-.6-2.8 2.1-1.4 5.9-2.3 10.2-2.3 6.6 0 12 2.1 12 4.8 0 .1-.1.3-.1.4v-.2c-4.1-.1-8.2 1.4-12.3 1.9-2.4.3-7.6.6-9.2-1.8" fill="#fcdad8" clip-path="url(#SVGID_46_)"/><path d="M414.6 252.8c-1.4-2.5-5.6-3.1-8.1-3.6-3.9-.8-7.9-.3-11.7.5-.8.2-1.4.3-2 .5-.8-4.3-4.6-5.5-9.2-5.5h-9.2c-4.6 0-8.4 1.2-9.2 5.6-.6-.2-1.4-.4-2.2-.6-3.9-.8-7.8-1.3-11.7-.5-2.5.5-6.8 1.1-8.1 3.6-.7 1.2-.6 3.5.1 4.7 1.6 2.5 6.9 2.1 9.3 1.8 4.1-.5 8.3-2 12.5-1.9l2.1 22.2c0 5.2 4.2 9.3 9.3 9.3h5.1c5.2 0 9.4-4.2 9.4-9.3l2.1-22.2c4.1-.1 8.2 1.4 12.3 1.9 2.4.3 7.7.6 9.3-1.8.6-1.2.6-3.5-.1-4.7" clip-path="url(#SVGID_46_)" fill="#fff"/></g><g><defs><path id="SVGID_47_" d="M374.3 244.7c-4.6 0-8.4 1.2-9.2 5.6-.6-.2-1.4-.4-2.2-.6-3.9-.8-7.8-1.3-11.7-.5-2.5.5-6.8 1.1-8.1 3.6-.7 1.2-.6 3.5.1 4.7 1.6 2.5 6.9 2.1 9.3 1.8 4.1-.5 8.3-2 12.5-1.9l2.1 22.2c0 5.2 4.2 9.4 9.3 9.4h5.1c5.2 0 9.4-4.2 9.4-9.4l2.1-22.2c4.1-.1 8.2 1.4 12.3 1.9 2.4.3 7.7.6 9.3-1.8.8-1.2.8-3.5.1-4.7-1.4-2.5-5.6-3.1-8.1-3.6-3.9-.8-7.9-.3-11.7.5-.8.2-1.4.3-2 .5-.8-4.3-4.6-5.5-9.2-5.5h-9.4z"/></defs><clipPath id="SVGID_48_"><use xlink:href="#SVGID_47_" overflow="visible"/></clipPath><path d="M164.5 123.9s-1.7.6-.6 1.7m-1.5-1.7s1.7.6.6 1.7" clip-path="url(#SVGID_48_)" fill="none" stroke="#d3d6d8" stroke-width=".269"/></g><g><defs><path id="SVGID_49_" d="M0 0h544.8v423H0z"/></defs><clipPath id="SVGID_50_"><use xlink:href="#SVGID_49_" overflow="visible"/></clipPath><path d="M374.1 262.3c0 .9-.7 1.6-1.6 1.6-.9 0-1.6-.7-1.6-1.6 0-.9.7-1.6 1.6-1.6.9.1 1.6.8 1.6 1.6m12.2 0c0 .9-.7 1.6-1.6 1.6-.9 0-1.6-.7-1.6-1.6 0-.9.7-1.6 1.6-1.6.9.1 1.6.8 1.6 1.6" clip-path="url(#SVGID_50_)"/><path d="M414.5 257.5c.4-.7.6-1.8.6-2.8-2.1-1.4-5.9-2.3-10.2-2.3-6.6 0-12 2.1-12 4.8 0 .1.1.3.1.4v-.2c4.1-.1 8.2 1.4 12.3 1.9 2.4.3 7.6.6 9.2-1.8m-71.3 0c-.4-.7-.6-1.8-.6-2.8 2.1-1.4 5.9-2.3 10.2-2.3 6.6 0 12 2.1 12 4.8 0 .1-.1.3-.1.4v-.2c-4.1-.1-8.2 1.4-12.3 1.9-2.4.3-7.6.6-9.2-1.8" fill="#fcdad8" clip-path="url(#SVGID_50_)"/><path d="M194.7 144.4c-1.4-2.5-5.6-3.1-8.1-3.6-3.9-.8-7.9-.3-11.7.5-.8.2-1.4.3-2 .5-.8-4.3-4.6-5.5-9.2-5.5h-9.2c-4.6 0-8.4 1.2-9.2 5.6-.6-.2-1.4-.4-2.2-.6-3.9-.8-7.8-1.3-11.7-.5-2.5.5-6.8 1.1-8.1 3.6-.7 1.2-.6 3.5.1 4.7 1.6 2.5 6.9 2.1 9.3 1.8 4.1-.5 8.3-2 12.5-1.9l2.1 22.2c0 5.2 4.2 9.3 9.3 9.3h5.1c5.2 0 9.4-4.2 9.4-9.3L173 149c4.1-.1 8.2 1.4 12.3 1.9 2.4.3 7.7.6 9.3-1.8.8-1.2.8-3.5.1-4.7" clip-path="url(#SVGID_50_)" fill="#fff"/></g><g><defs><path id="SVGID_51_" d="M154.4 136.2c-4.6 0-8.4 1.2-9.2 5.6-.6-.2-1.4-.4-2.2-.6-3.9-.8-7.8-1.3-11.7-.5-2.5.5-6.8 1.1-8.1 3.6-.7 1.2-.7 3.5.1 4.7 1.6 2.5 6.9 2.1 9.3 1.8 4.1-.5 8.3-2 12.5-1.9l2.1 22.2c0 5.2 4.2 9.4 9.3 9.4h5.1c5.2 0 9.3-4.2 9.3-9.4L173 149c4.1-.1 8.2 1.4 12.3 1.9 2.4.3 7.7.6 9.3-1.8.8-1.2.8-3.5.1-4.7-1.4-2.5-5.6-3.1-8.1-3.6-3.9-.8-7.9-.3-11.7.5-.8.2-1.4.3-2 .5-.8-4.3-4.6-5.5-9.2-5.5h-9.3z"/></defs><clipPath id="SVGID_52_"><use xlink:href="#SVGID_51_" overflow="visible"/></clipPath><path d="M95 89.6s-1.7.6-.6 1.7m-1.6-1.7s1.7.6.6 1.7" clip-path="url(#SVGID_52_)" fill="none" stroke="#d3d6d8" stroke-width=".269"/></g><g><defs><path id="SVGID_53_" d="M0 0h544.8v423H0z"/></defs><clipPath id="SVGID_54_"><use xlink:href="#SVGID_53_" overflow="visible"/></clipPath><path d="M154.2 153.9c0 .9-.7 1.6-1.6 1.6-.9 0-1.6-.7-1.6-1.6 0-.9.7-1.6 1.6-1.6.9 0 1.6.8 1.6 1.6m12.2 0c0 .9-.7 1.6-1.6 1.6-.9 0-1.6-.7-1.6-1.6 0-.9.7-1.6 1.6-1.6.9 0 1.6.8 1.6 1.6" clip-path="url(#SVGID_54_)"/><path d="M194.6 149c.4-.7.6-1.8.6-2.8-2.1-1.4-5.9-2.3-10.2-2.3-6.6 0-12 2.1-12 4.8 0 .1.1.3.1.4v-.1c4.1-.1 8.2 1.4 12.3 1.9 2.3.3 7.6.6 9.2-1.9m-71.3 0c-.4-.7-.6-1.8-.6-2.8 2.1-1.4 5.9-2.3 10.2-2.3 6.6 0 12 2.1 12 4.8 0 .1-.1.3-.1.4v-.1c-4.1-.1-8.2 1.4-12.3 1.9-2.4.3-7.6.6-9.2-1.9" fill="#fcdad8" clip-path="url(#SVGID_54_)"/><path d="M414.6 144.4c-1.4-2.5-5.6-3.1-8.1-3.6-3.9-.8-7.9-.3-11.7.5-.8.2-1.4.3-2 .5-.8-4.3-4.6-5.5-9.2-5.5h-9.2c-4.6 0-8.4 1.2-9.2 5.6-.6-.2-1.4-.4-2.2-.6-3.9-.8-7.8-1.3-11.7-.5-2.5.5-6.8 1.1-8.1 3.6-.7 1.2-.6 3.5.1 4.7 1.6 2.5 6.9 2.1 9.3 1.8 4.1-.5 8.3-2 12.5-1.9l2.1 22.2c0 5.2 4.2 9.3 9.3 9.3h5.1c5.2 0 9.4-4.2 9.4-9.3l2.1-22.2c4.1-.1 8.2 1.4 12.3 1.9 2.4.3 7.7.6 9.3-1.8.6-1.2.6-3.5-.1-4.7" clip-path="url(#SVGID_54_)" fill="#fff"/></g><g><defs><path id="SVGID_55_" d="M374.3 136.2c-4.6 0-8.4 1.2-9.2 5.6-.6-.2-1.4-.4-2.2-.6-3.9-.8-7.8-1.3-11.7-.5-2.5.5-6.8 1.1-8.1 3.6-.7 1.2-.6 3.5.1 4.7 1.6 2.5 6.9 2.1 9.3 1.8 4.1-.5 8.3-2 12.5-1.9l2.1 22.2c0 5.2 4.2 9.4 9.3 9.4h5.1c5.2 0 9.4-4.2 9.4-9.4l2.1-22.2c4.1-.1 8.2 1.4 12.3 1.9 2.4.3 7.7.6 9.3-1.8.8-1.2.8-3.5.1-4.7-1.4-2.5-5.6-3.1-8.1-3.6-3.9-.8-7.9-.3-11.7.5-.8.2-1.4.3-2 .5-.8-4.3-4.6-5.5-9.2-5.5h-9.4z"/></defs><clipPath id="SVGID_56_"><use xlink:href="#SVGID_55_" overflow="visible"/></clipPath><path d="M164.5 89.6s-1.7.6-.6 1.7m-1.5-1.7s1.7.6.6 1.7" clip-path="url(#SVGID_56_)" fill="none" stroke="#d3d6d8" stroke-width=".269"/></g><g><defs><path id="SVGID_57_" d="M0 0h544.8v423H0z"/></defs><clipPath id="SVGID_58_"><use xlink:href="#SVGID_57_" overflow="visible"/></clipPath><path d="M374.1 153.9c0 .9-.7 1.6-1.6 1.6-.9 0-1.6-.7-1.6-1.6 0-.9.7-1.6 1.6-1.6.9 0 1.6.8 1.6 1.6m12.2 0c0 .9-.7 1.6-1.6 1.6-.9 0-1.6-.7-1.6-1.6 0-.9.7-1.6 1.6-1.6.9 0 1.6.8 1.6 1.6" clip-path="url(#SVGID_58_)"/><path d="M414.5 149c.4-.7.6-1.8.6-2.8-2.1-1.4-5.9-2.3-10.2-2.3-6.6 0-12 2.1-12 4.8 0 .1.1.3.1.4v-.1c4.1-.1 8.2 1.4 12.3 1.9 2.4.3 7.6.6 9.2-1.9m-71.3 0c-.4-.7-.6-1.8-.6-2.8 2.1-1.4 5.9-2.3 10.2-2.3 6.6 0 12 2.1 12 4.8 0 .1-.1.3-.1.4v-.1c-4.1-.1-8.2 1.4-12.3 1.9-2.4.3-7.6.6-9.2-1.9" fill="#fcdad8" clip-path="url(#SVGID_58_)"/><path d="M194.7 359.6c-1.4-2.5-5.6-3.1-8.1-3.6-3.9-.8-7.9-.3-11.7.5-.8.2-1.4.3-2 .5-.8-4.3-4.6-5.5-9.2-5.5h-9.2c-4.6 0-8.4 1.2-9.2 5.6-.6-.2-1.4-.4-2.2-.6-3.9-.8-7.8-1.3-11.7-.5-2.5.5-6.8 1.1-8.1 3.6-.7 1.2-.6 3.5.1 4.7 1.6 2.5 6.9 2.1 9.3 1.8 4.1-.5 8.3-2 12.5-1.9l2.1 22.2c0 5.2 4.2 9.3 9.3 9.3h5.1c5.2 0 9.4-4.2 9.4-9.3l2.1-22.2c4.1-.1 8.2 1.4 12.3 1.9 2.4.3 7.7.6 9.3-1.8.6-1.2.6-3.4-.1-4.7" clip-path="url(#SVGID_58_)" fill="#fff"/></g><g><defs><path id="SVGID_59_" d="M154.4 351.5c-4.6 0-8.4 1.2-9.2 5.6-.6-.2-1.4-.4-2.2-.6-3.9-.8-7.8-1.3-11.7-.5-2.5.5-6.8 1.1-8.1 3.6-.7 1.2-.7 3.5.1 4.7 1.6 2.5 6.9 2.1 9.3 1.8 4.1-.5 8.3-2 12.5-1.9l2.1 22.2c0 5.2 4.2 9.4 9.3 9.4h5.1c5.2 0 9.3-4.2 9.3-9.4l2.1-22.2c4.1-.1 8.2 1.4 12.3 1.9 2.4.3 7.7.6 9.3-1.8.8-1.2.8-3.5.1-4.7-1.4-2.5-5.6-3.1-8.1-3.6-3.9-.8-7.9-.3-11.7.5-.8.2-1.4.3-2 .5-.8-4.3-4.6-5.5-9.2-5.5h-9.3z"/></defs><clipPath id="SVGID_60_"><use xlink:href="#SVGID_59_" overflow="visible"/></clipPath><path d="M95 157.7s-1.7.6-.6 1.7m-1.6-1.7s1.7.6.6 1.7" clip-path="url(#SVGID_60_)" fill="none" stroke="#d3d6d8" stroke-width=".269"/></g><g><defs><path id="SVGID_61_" d="M0 0h544.8v423H0z"/></defs><clipPath id="SVGID_62_"><use xlink:href="#SVGID_61_" overflow="visible"/></clipPath><path d="M154.2 369.2c0 .9-.7 1.6-1.6 1.6-.9 0-1.6-.7-1.6-1.6 0-.9.7-1.6 1.6-1.6.9 0 1.6.7 1.6 1.6m12.2 0c0 .9-.7 1.6-1.6 1.6-.9 0-1.6-.7-1.6-1.6 0-.9.7-1.6 1.6-1.6.9 0 1.6.7 1.6 1.6" clip-path="url(#SVGID_62_)"/><path d="M194.6 364.3c.4-.7.6-1.8.6-2.8-2.1-1.4-5.9-2.3-10.2-2.3-6.6 0-12 2.1-12 4.8 0 .1.1.3.1.4v-.2c4.1-.1 8.2 1.4 12.3 1.9 2.3.3 7.6.7 9.2-1.8m-71.3 0c-.4-.7-.6-1.8-.6-2.8 2.1-1.4 5.9-2.3 10.2-2.3 6.6 0 12 2.1 12 4.8 0 .1-.1.3-.1.4v-.2c-4.1-.1-8.2 1.4-12.3 1.9-2.4.3-7.6.7-9.2-1.8" fill="#fcdad8" clip-path="url(#SVGID_62_)"/><path d="M414.6 359.6c-1.4-2.5-5.6-3.1-8.1-3.6-3.9-.8-7.9-.3-11.7.5-.8.2-1.4.3-2 .5-.8-4.3-4.6-5.5-9.2-5.5h-9.2c-4.6 0-8.4 1.2-9.2 5.6-.6-.2-1.4-.4-2.2-.6-3.9-.8-7.8-1.3-11.7-.5-2.5.5-6.8 1.1-8.1 3.6-.7 1.2-.6 3.5.1 4.7 1.6 2.5 6.9 2.1 9.3 1.8 4.1-.5 8.3-2 12.5-1.9l2.1 22.2c0 5.2 4.2 9.3 9.3 9.3h5.1c5.2 0 9.4-4.2 9.4-9.3l2.1-22.2c4.1-.1 8.2 1.4 12.3 1.9 2.4.3 7.7.6 9.3-1.8.6-1.2.6-3.4-.1-4.7" clip-path="url(#SVGID_62_)" fill="#fff"/></g><g><defs><path id="SVGID_63_" d="M374.3 351.5c-4.6 0-8.4 1.2-9.2 5.6-.6-.2-1.4-.4-2.2-.6-3.9-.8-7.8-1.3-11.7-.5-2.5.5-6.8 1.1-8.1 3.6-.7 1.2-.6 3.5.1 4.7 1.6 2.5 6.9 2.1 9.3 1.8 4.1-.5 8.3-2 12.5-1.9l2.1 22.2c0 5.2 4.2 9.4 9.3 9.4h5.1c5.2 0 9.4-4.2 9.4-9.4l2.1-22.2c4.1-.1 8.2 1.4 12.3 1.9 2.4.3 7.7.6 9.3-1.8.8-1.2.8-3.5.1-4.7-1.4-2.5-5.6-3.1-8.1-3.6-3.9-.8-7.9-.3-11.7.5-.8.2-1.4.3-2 .5-.8-4.3-4.6-5.5-9.2-5.5h-9.4z"/></defs><clipPath id="SVGID_64_"><use xlink:href="#SVGID_63_" overflow="visible"/></clipPath><path d="M164.5 157.7s-1.7.6-.6 1.7m-1.5-1.7s1.7.6.6 1.7" clip-path="url(#SVGID_64_)" fill="none" stroke="#d3d6d8" stroke-width=".269"/></g><g><defs><path id="SVGID_65_" d="M0 0h544.8v423H0z"/></defs><clipPath id="SVGID_66_"><use xlink:href="#SVGID_65_" overflow="visible"/></clipPath><path d="M374.1 369.2c0 .9-.7 1.6-1.6 1.6-.9 0-1.6-.7-1.6-1.6 0-.9.7-1.6 1.6-1.6.9 0 1.6.7 1.6 1.6m12.2 0c0 .9-.7 1.6-1.6 1.6-.9 0-1.6-.7-1.6-1.6 0-.9.7-1.6 1.6-1.6.9 0 1.6.7 1.6 1.6" clip-path="url(#SVGID_66_)"/><path d="M414.5 364.3c.4-.7.6-1.8.6-2.8-2.1-1.4-5.9-2.3-10.2-2.3-6.6 0-12 2.1-12 4.8 0 .1.1.3.1.4v-.2c4.1-.1 8.2 1.4 12.3 1.9 2.4.3 7.6.7 9.2-1.8m-71.3 0c-.4-.7-.6-1.8-.6-2.8 2.1-1.4 5.9-2.3 10.2-2.3 6.6 0 12 2.1 12 4.8 0 .1-.1.3-.1.4v-.2c-4.1-.1-8.2 1.4-12.3 1.9-2.4.3-7.6.7-9.2-1.8" fill="#fcdad8" clip-path="url(#SVGID_66_)"/><path d="M536.2 41.7c4.3-2 6.3-7 4.4-11.4-1.6-3.7-5.4-5.7-9.1-5.2 1.9-3.3 1.4-7.6-1.4-10.4-2.8-2.8-7.1-3.3-10.4-1.4.5-3.8-1.5-7.6-5.2-9.1-4.4-1.9-9.5.1-11.4 4.4-.1-4.8-4-8.6-8.8-8.6-4.8 0-8.6 3.8-8.7 8.6-2-4.3-7-6.3-11.4-4.4-3.7 1.6-5.7 5.4-5.2 9.2-3.3-1.9-7.6-1.4-10.4 1.4-2.8 2.8-3.3 7.1-1.4 10.4-3.8-.5-7.6 1.5-9.1 5.2-1.9 4.4.1 9.5 4.4 11.4-4.8.1-8.6 3.9-8.6 8.7s3.8 8.6 8.6 8.7c-4.3 2-6.3 7-4.4 11.4 1.6 3.7 5.4 5.7 9.1 5.2-1.9 3.3-1.4 7.6 1.4 10.4 2.8 2.8 7.1 3.3 10.4 1.4-.5 3.8 1.5 7.6 5.2 9.1 4.4 1.9 9.5-.1 11.4-4.4.1 4.8 3.9 8.6 8.7 8.6 4.8 0 8.6-3.8 8.7-8.6 2 4.3 7 6.3 11.4 4.4 3.7-1.6 5.7-5.4 5.2-9.1 3.3 1.9 7.6 1.4 10.4-1.4 2.8-2.8 3.3-7.1 1.4-10.4 3.8.5 7.6-1.5 9.1-5.2 1.9-4.4-.1-9.5-4.4-11.4 4.8-.1 8.6-3.9 8.6-8.7.1-4.8-3.8-8.7-8.5-8.8" clip-path="url(#SVGID_66_)" fill="#99bce4"/><path d="M536.2 257c4.3-2 6.3-7 4.4-11.4-1.6-3.7-5.4-5.7-9.1-5.2 1.9-3.3 1.4-7.6-1.4-10.4-2.8-2.8-7.1-3.3-10.4-1.4.5-3.8-1.5-7.6-5.2-9.2-4.4-1.9-9.5.1-11.4 4.4-.1-4.8-3.9-8.6-8.7-8.6-4.8 0-8.6 3.8-8.7 8.6-2-4.3-7-6.3-11.4-4.4-3.7 1.6-5.7 5.4-5.2 9.2-3.3-1.9-7.6-1.4-10.4 1.4-2.8 2.8-3.3 7.1-1.4 10.4-3.8-.5-7.6 1.5-9.1 5.2-1.9 4.4.1 9.5 4.4 11.4-4.8.1-8.6 3.9-8.6 8.7 0 4.8 3.8 8.6 8.6 8.7-4.3 2-6.3 7-4.4 11.4 1.6 3.7 5.4 5.7 9.1 5.2-1.9 3.3-1.4 7.6 1.4 10.4 2.8 2.8 7.1 3.3 10.4 1.4-.5 3.8 1.5 7.6 5.2 9.2 4.4 1.9 9.5-.1 11.4-4.4.1 4.8 3.9 8.6 8.7 8.6 4.8 0 8.6-3.8 8.7-8.6 2 4.3 7 6.3 11.4 4.4 3.7-1.6 5.7-5.4 5.2-9.2 3.3 1.9 7.6 1.4 10.4-1.4 2.8-2.8 3.3-7.1 1.4-10.4 3.8.5 7.6-1.5 9.1-5.2 1.9-4.4-.1-9.5-4.4-11.4 4.8-.1 8.6-3.9 8.6-8.7 0-4.8-3.9-8.6-8.6-8.7" clip-path="url(#SVGID_66_)" fill="#f58220"/><path d="M536.2 148.6c4.3-2 6.3-7 4.4-11.4-1.6-3.7-5.4-5.7-9.1-5.2 1.9-3.3 1.4-7.6-1.4-10.4-2.8-2.8-7.1-3.3-10.4-1.4.5-3.8-1.5-7.6-5.2-9.1-4.4-1.9-9.5.1-11.4 4.4-.1-4.8-3.9-8.6-8.7-8.6-4.8 0-8.6 3.8-8.7 8.6-2-4.3-7-6.3-11.4-4.4-3.7 1.6-5.7 5.4-5.2 9.1-3.3-1.9-7.6-1.4-10.4 1.4-2.8 2.8-3.3 7.1-1.4 10.4-3.8-.5-7.6 1.5-9.1 5.2-1.9 4.4.1 9.5 4.4 11.4-4.8.1-8.6 3.9-8.6 8.7s3.8 8.6 8.6 8.7c-4.3 2-6.3 7-4.4 11.4 1.6 3.7 5.4 5.7 9.1 5.2-1.9 3.3-1.4 7.6 1.4 10.4 2.8 2.8 7.1 3.3 10.4 1.4-.5 3.8 1.5 7.6 5.2 9.1 4.4 1.9 9.5-.1 11.4-4.4.1 4.8 3.9 8.6 8.7 8.6 4.8 0 8.6-3.8 8.7-8.6 2 4.3 7 6.3 11.4 4.4 3.7-1.6 5.7-5.4 5.2-9.1 3.3 1.9 7.6 1.4 10.4-1.4 2.8-2.8 3.3-7.1 1.4-10.4 3.8.5 7.6-1.5 9.1-5.2 1.9-4.4-.1-9.5-4.4-11.4 4.8-.1 8.6-3.9 8.6-8.7 0-4.8-3.9-8.6-8.6-8.7" clip-path="url(#SVGID_66_)" fill="#604a9e"/><path d="M536.2 363.9c4.3-2 6.3-7 4.4-11.4-1.6-3.7-5.4-5.7-9.1-5.2 1.9-3.3 1.4-7.6-1.4-10.4-2.8-2.8-7.1-3.3-10.4-1.4.5-3.8-1.5-7.6-5.2-9.1-4.4-1.9-9.5.1-11.4 4.4-.1-4.8-3.9-8.6-8.7-8.6-4.8 0-8.6 3.8-8.7 8.6-2-4.3-7-6.3-11.4-4.4-3.7 1.6-5.7 5.4-5.2 9.1-3.3-1.9-7.6-1.4-10.4 1.4-2.8 2.8-3.3 7.1-1.4 10.4-3.8-.5-7.6 1.5-9.1 5.2-1.9 4.4.1 9.5 4.4 11.4-4.8.1-8.6 3.9-8.6 8.7s3.8 8.6 8.6 8.7c-4.3 2-6.3 7-4.4 11.4 1.6 3.7 5.4 5.7 9.1 5.2-1.9 3.3-1.4 7.6 1.4 10.4 2.8 2.8 7.1 3.3 10.4 1.4-.5 3.8 1.5 7.6 5.2 9.1 4.4 1.9 9.5-.1 11.4-4.4.1 4.8 3.9 8.6 8.7 8.6 4.8 0 8.6-3.8 8.7-8.6 2 4.3 7 6.3 11.4 4.4 3.7-1.6 5.7-5.4 5.2-9.1 3.3 1.9 7.6 1.4 10.4-1.4 2.8-2.8 3.3-7.1 1.4-10.4 3.8.5 7.6-1.5 9.1-5.2 1.9-4.4-.1-9.5-4.4-11.4 4.8-.1 8.6-3.9 8.6-8.7s-3.9-8.7-8.6-8.7" clip-path="url(#SVGID_66_)" fill="#52c8eb"/><path d="M530.1 37.5c-1.4-2.5-5.6-3.1-8.1-3.6-3.9-.8-7.9-.3-11.7.5-.8.2-1.4.3-2 .5-.8-4.3-4.6-5.5-9.2-5.5h-9.2c-4.6 0-8.4 1.2-9.2 5.6-.6-.2-1.4-.4-2.2-.6-3.9-.8-7.8-1.3-11.7-.5-2.5.5-6.8 1.1-8.1 3.6-.7 1.2-.6 3.5.1 4.7 1.6 2.5 6.9 2.1 9.3 1.8 4.1-.5 8.3-2 12.5-1.9l2.1 22.2c0 5.2 4.2 9.3 9.3 9.3h5.1c5.2 0 9.4-4.2 9.4-9.3l2.1-22.2c4.1-.1 8.2 1.4 12.3 1.9 2.4.3 7.7.6 9.3-1.8.5-1.2.6-3.5-.1-4.7" clip-path="url(#SVGID_66_)" fill="#fff"/></g><g><defs><path id="SVGID_67_" d="M489.8 29.4c-4.6 0-8.4 1.2-9.2 5.6-.6-.2-1.4-.4-2.2-.6-3.9-.8-7.8-1.3-11.7-.5-2.5.5-6.8 1.1-8.1 3.6-.7 1.2-.6 3.5.1 4.7 1.6 2.5 6.9 2.1 9.3 1.8 4.1-.5 8.3-2 12.5-1.9l2.1 22.2c0 5.2 4.2 9.3 9.3 9.3h5.1c5.2 0 9.4-4.2 9.4-9.3l2.1-22.2c4.1-.1 8.2 1.4 12.3 1.9 2.4.3 7.7.6 9.3-1.8.8-1.2.8-3.5.1-4.7-1.4-2.5-5.6-3.1-8.1-3.6-3.9-.8-7.9-.3-11.7.5-.8.2-1.4.3-2 .5-.8-4.3-4.6-5.5-9.2-5.5h-9.4z"/></defs><clipPath id="SVGID_68_"><use xlink:href="#SVGID_67_" overflow="visible"/></clipPath><path d="M433.7 55.8s-1.7.6-.6 1.7m-1.6-1.7s1.7.6.6 1.7" clip-path="url(#SVGID_68_)" fill="none" stroke="#d3d6d8" stroke-width=".269"/></g><g><defs><path id="SVGID_69_" d="M0 0h544.8v423H0z"/></defs><clipPath id="SVGID_70_"><use xlink:href="#SVGID_69_" overflow="visible"/></clipPath><path d="M489.6 47.1c0 .9-.7 1.6-1.6 1.6-.9 0-1.6-.7-1.6-1.6 0-.9.7-1.6 1.6-1.6.9 0 1.6.7 1.6 1.6m12.2 0c0 .9-.7 1.6-1.6 1.6-.9 0-1.6-.7-1.6-1.6 0-.9.7-1.6 1.6-1.6.9 0 1.6.7 1.6 1.6" clip-path="url(#SVGID_70_)"/><path d="M530 42.2c.4-.7.6-1.8.6-2.8-2.1-1.4-5.9-2.3-10.2-2.3-6.6 0-12 2.1-12 4.8 0 .1.1.3.1.4v-.2c4.1-.1 8.2 1.4 12.3 1.9 2.3.3 7.6.7 9.2-1.8m-71.4 0c-.4-.7-.6-1.8-.6-2.8 2.1-1.4 5.9-2.3 10.2-2.3 6.6 0 12 2.1 12 4.8 0 .1-.1.3-.1.4v-.2c-4.1-.1-8.2 1.4-12.3 1.9-2.3.3-7.6.7-9.2-1.8" fill="#fcdad8" clip-path="url(#SVGID_70_)"/><path d="M530.1 252.8c-1.4-2.5-5.6-3.1-8.1-3.6-3.9-.8-7.9-.3-11.7.5-.8.2-1.4.3-2 .5-.8-4.3-4.6-5.5-9.2-5.5h-9.2c-4.6 0-8.4 1.2-9.2 5.6-.6-.2-1.4-.4-2.2-.6-3.9-.8-7.8-1.3-11.7-.5-2.5.5-6.8 1.1-8.1 3.6-.7 1.2-.6 3.5.1 4.7 1.6 2.5 6.9 2.1 9.3 1.8 4.1-.5 8.3-2 12.5-1.9l2.1 22.2c0 5.2 4.2 9.3 9.3 9.3h5.1c5.2 0 9.4-4.2 9.4-9.3l2.1-22.2c4.1-.1 8.2 1.4 12.3 1.9 2.4.3 7.7.6 9.3-1.8.5-1.2.6-3.5-.1-4.7" clip-path="url(#SVGID_70_)" fill="#fff"/></g><g><defs><path id="SVGID_71_" d="M489.8 244.7c-4.6 0-8.4 1.2-9.2 5.6-.6-.2-1.4-.4-2.2-.6-3.9-.8-7.8-1.3-11.7-.5-2.5.5-6.8 1.1-8.1 3.6-.7 1.2-.6 3.5.1 4.7 1.6 2.5 6.9 2.1 9.3 1.8 4.1-.5 8.3-2 12.5-1.9l2.1 22.2c0 5.2 4.2 9.4 9.3 9.4h5.1c5.2 0 9.4-4.2 9.4-9.4l2.1-22.2c4.1-.1 8.2 1.4 12.3 1.9 2.4.3 7.7.6 9.3-1.8.8-1.2.8-3.5.1-4.7-1.4-2.5-5.6-3.1-8.1-3.6-3.9-.8-7.9-.3-11.7.5-.8.2-1.4.3-2 .5-.8-4.3-4.6-5.5-9.2-5.5h-9.4z"/></defs><clipPath id="SVGID_72_"><use xlink:href="#SVGID_71_" overflow="visible"/></clipPath><path d="M433.7 123.9s-1.7.6-.6 1.7m-1.6-1.7s1.7.6.6 1.7" clip-path="url(#SVGID_72_)" fill="none" stroke="#d3d6d8" stroke-width=".269"/></g><g><defs><path id="SVGID_73_" d="M0 0h544.8v423H0z"/></defs><clipPath id="SVGID_74_"><use xlink:href="#SVGID_73_" overflow="visible"/></clipPath><path d="M489.6 262.3c0 .9-.7 1.6-1.6 1.6-.9 0-1.6-.7-1.6-1.6 0-.9.7-1.6 1.6-1.6.9.1 1.6.8 1.6 1.6m12.2 0c0 .9-.7 1.6-1.6 1.6-.9 0-1.6-.7-1.6-1.6 0-.9.7-1.6 1.6-1.6.9.1 1.6.8 1.6 1.6" clip-path="url(#SVGID_74_)"/><path d="M530 257.5c.4-.7.6-1.8.6-2.8-2.1-1.4-5.9-2.3-10.2-2.3-6.6 0-12 2.1-12 4.8 0 .1.1.3.1.4v-.2c4.1-.1 8.2 1.4 12.3 1.9 2.3.3 7.6.6 9.2-1.8m-71.4 0c-.4-.7-.6-1.8-.6-2.8 2.1-1.4 5.9-2.3 10.2-2.3 6.6 0 12 2.1 12 4.8 0 .1-.1.3-.1.4v-.2c-4.1-.1-8.2 1.4-12.3 1.9-2.3.3-7.6.6-9.2-1.8" fill="#fcdad8" clip-path="url(#SVGID_74_)"/><path d="M530.1 144.4c-1.4-2.5-5.6-3.1-8.1-3.6-3.9-.8-7.9-.3-11.7.5-.8.2-1.4.3-2 .5-.8-4.3-4.6-5.5-9.2-5.5h-9.2c-4.6 0-8.4 1.2-9.2 5.6-.6-.2-1.4-.4-2.2-.6-3.9-.8-7.8-1.3-11.7-.5-2.5.5-6.8 1.1-8.1 3.6-.7 1.2-.6 3.5.1 4.7 1.6 2.5 6.9 2.1 9.3 1.8 4.1-.5 8.3-2 12.5-1.9l2.1 22.2c0 5.2 4.2 9.3 9.3 9.3h5.1c5.2 0 9.4-4.2 9.4-9.3l2.1-22.2c4.1-.1 8.2 1.4 12.3 1.9 2.4.3 7.7.6 9.3-1.8.5-1.2.6-3.5-.1-4.7" clip-path="url(#SVGID_74_)" fill="#fff"/></g><g><defs><path id="SVGID_75_" d="M489.8 136.2c-4.6 0-8.4 1.2-9.2 5.6-.6-.2-1.4-.4-2.2-.6-3.9-.8-7.8-1.3-11.7-.5-2.5.5-6.8 1.1-8.1 3.6-.7 1.2-.6 3.5.1 4.7 1.6 2.5 6.9 2.1 9.3 1.8 4.1-.5 8.3-2 12.5-1.9l2.1 22.2c0 5.2 4.2 9.4 9.3 9.4h5.1c5.2 0 9.4-4.2 9.4-9.4l2.1-22.2c4.1-.1 8.2 1.4 12.3 1.9 2.4.3 7.7.6 9.3-1.8.8-1.2.8-3.5.1-4.7-1.4-2.5-5.6-3.1-8.1-3.6-3.9-.8-7.9-.3-11.7.5-.8.2-1.4.3-2 .5-.8-4.3-4.6-5.5-9.2-5.5h-9.4z"/></defs><clipPath id="SVGID_76_"><use xlink:href="#SVGID_75_" overflow="visible"/></clipPath><path d="M433.7 89.6s-1.7.6-.6 1.7m-1.6-1.7s1.7.6.6 1.7" clip-path="url(#SVGID_76_)" fill="none" stroke="#d3d6d8" stroke-width=".269"/></g><g><defs><path id="SVGID_77_" d="M0 0h544.8v423H0z"/></defs><clipPath id="SVGID_78_"><use xlink:href="#SVGID_77_" overflow="visible"/></clipPath><path d="M489.6 153.9c0 .9-.7 1.6-1.6 1.6-.9 0-1.6-.7-1.6-1.6 0-.9.7-1.6 1.6-1.6.9 0 1.6.8 1.6 1.6m12.2 0c0 .9-.7 1.6-1.6 1.6-.9 0-1.6-.7-1.6-1.6 0-.9.7-1.6 1.6-1.6.9 0 1.6.8 1.6 1.6" clip-path="url(#SVGID_78_)"/><path d="M530 149c.4-.7.6-1.8.6-2.8-2.1-1.4-5.9-2.3-10.2-2.3-6.6 0-12 2.1-12 4.8 0 .1.1.3.1.4v-.1c4.1-.1 8.2 1.4 12.3 1.9 2.3.3 7.6.6 9.2-1.9m-71.4 0c-.4-.7-.6-1.8-.6-2.8 2.1-1.4 5.9-2.3 10.2-2.3 6.6 0 12 2.1 12 4.8 0 .1-.1.3-.1.4v-.1c-4.1-.1-8.2 1.4-12.3 1.9-2.3.3-7.6.6-9.2-1.9" fill="#fcdad8" clip-path="url(#SVGID_78_)"/><path d="M530.1 359.6c-1.4-2.5-5.6-3.1-8.1-3.6-3.9-.8-7.9-.3-11.7.5-.8.2-1.4.3-2 .5-.8-4.3-4.6-5.5-9.2-5.5h-9.2c-4.6 0-8.4 1.2-9.2 5.6-.6-.2-1.4-.4-2.2-.6-3.9-.8-7.8-1.3-11.7-.5-2.5.5-6.8 1.1-8.1 3.6-.7 1.2-.6 3.5.1 4.7 1.6 2.5 6.9 2.1 9.3 1.8 4.1-.5 8.3-2 12.5-1.9l2.1 22.2c0 5.2 4.2 9.3 9.3 9.3h5.1c5.2 0 9.4-4.2 9.4-9.3l2.1-22.2c4.1-.1 8.2 1.4 12.3 1.9 2.4.3 7.7.6 9.3-1.8.5-1.2.6-3.4-.1-4.7" clip-path="url(#SVGID_78_)" fill="#fff"/></g><g><defs><path id="SVGID_79_" d="M489.8 351.5c-4.6 0-8.4 1.2-9.2 5.6-.6-.2-1.4-.4-2.2-.6-3.9-.8-7.8-1.3-11.7-.5-2.5.5-6.8 1.1-8.1 3.6-.7 1.2-.6 3.5.1 4.7 1.6 2.5 6.9 2.1 9.3 1.8 4.1-.5 8.3-2 12.5-1.9l2.1 22.2c0 5.2 4.2 9.4 9.3 9.4h5.1c5.2 0 9.4-4.2 9.4-9.4l2.1-22.2c4.1-.1 8.2 1.4 12.3 1.9 2.4.3 7.7.6 9.3-1.8.8-1.2.8-3.5.1-4.7-1.4-2.5-5.6-3.1-8.1-3.6-3.9-.8-7.9-.3-11.7.5-.8.2-1.4.3-2 .5-.8-4.3-4.6-5.5-9.2-5.5h-9.4z"/></defs><clipPath id="SVGID_80_"><use xlink:href="#SVGID_79_" overflow="visible"/></clipPath><path d="M433.7 157.7s-1.7.6-.6 1.7m-1.6-1.7s1.7.6.6 1.7" clip-path="url(#SVGID_80_)" fill="none" stroke="#d3d6d8" stroke-width=".269"/></g><g><defs><path id="SVGID_81_" d="M0 0h544.8v423H0z"/></defs><clipPath id="SVGID_82_"><use xlink:href="#SVGID_81_" overflow="visible"/></clipPath><path d="M489.6 369.2c0 .9-.7 1.6-1.6 1.6-.9 0-1.6-.7-1.6-1.6 0-.9.7-1.6 1.6-1.6.9 0 1.6.7 1.6 1.6m12.2 0c0 .9-.7 1.6-1.6 1.6-.9 0-1.6-.7-1.6-1.6 0-.9.7-1.6 1.6-1.6.9 0 1.6.7 1.6 1.6" clip-path="url(#SVGID_82_)"/><path d="M530 364.3c.4-.7.6-1.8.6-2.8-2.1-1.4-5.9-2.3-10.2-2.3-6.6 0-12 2.1-12 4.8 0 .1.1.3.1.4v-.2c4.1-.1 8.2 1.4 12.3 1.9 2.3.3 7.6.7 9.2-1.8m-71.4 0c-.4-.7-.6-1.8-.6-2.8 2.1-1.4 5.9-2.3 10.2-2.3 6.6 0 12 2.1 12 4.8 0 .1-.1.3-.1.4v-.2c-4.1-.1-8.2 1.4-12.3 1.9-2.3.3-7.6.7-9.2-1.8" fill="#fcdad8" clip-path="url(#SVGID_82_)"/></g></svg>