<svg xmlns="http://www.w3.org/2000/svg" xmlns:xlink="http://www.w3.org/1999/xlink" viewBox="0 0 128 128"><defs><path id="a" d="M0 0h128v128H0z"/></defs><clipPath id="b"><use xlink:href="#a" overflow="visible"/></clipPath><path d="M117.1 53c5.5-2.5 8-8.9 5.6-14.5-2-4.6-6.8-7.2-11.6-6.5 2.4-4.2 1.7-9.6-1.8-13.2-3.6-3.6-9-4.2-13.2-1.8.6-4.8-1.9-9.6-6.5-11.6-5.6-2.5-12.1 0-14.6 5.5C75 4.9 70.1 0 64 0S53 4.9 53 10.9c-2.5-5.5-8.9-8-14.5-5.6-4.6 2-7.2 6.8-6.5 11.6-4.2-2.4-9.6-1.7-13.2 1.8-3.6 3.6-4.2 9-1.8 13.2-4.8-.6-9.6 1.9-11.6 6.5-2.5 5.6 0 12.1 5.5 14.6C4.9 53 0 57.9 0 64s4.9 11 10.9 11c-5.5 2.5-8 8.9-5.6 14.5 2 4.6 6.8 7.2 11.6 6.5-2.3 4.2-1.7 9.6 1.8 13.2 3.6 3.6 9 4.2 13.2 1.8-.6 4.8 1.9 9.6 6.5 11.6 5.6 2.4 12-.1 14.5-5.6.1 6 5 10.9 11 10.9 6.1 0 11-4.9 11-10.9 2.5 5.5 8.9 8 14.5 5.6 4.6-2 7.2-6.8 6.5-11.6 4.2 2.4 9.6 1.7 13.2-1.8 3.6-3.6 4.2-9 1.8-13.2 4.8.6 9.6-1.9 11.6-6.5 2.4-5.6-.1-12-5.6-14.5 6-.1 10.9-5 10.9-11 .2-6.1-4.7-11-10.7-11" clip-path="url(#b)" fill="#ec1c59"/><path d="M55.6 85c-1.5 0-3-.6-4.1-1.7l-14.2-14c-2.2-2.2-2.2-5.8 0-8s5.9-2.2 8.1 0l10.1 10 26.9-26.7c2.2-2.2 5.9-2.2 8.1 0 2.2 2.2 2.2 5.8 0 8l-31 30.7c-.9 1.1-2.4 1.7-3.9 1.7" clip-path="url(#b)" fill="#fff"/></svg>