<svg xmlns="http://www.w3.org/2000/svg" xmlns:xlink="http://www.w3.org/1999/xlink" viewBox="115 -114 357 357"><defs><path id="a" d="M114.7-44.5h357.5v218H114.7z"/></defs><clipPath id="b"><use xlink:href="#a" overflow="visible"/></clipPath><path d="M442.1 24.8h14.7c4.1 0 7.8 1.4 10.6 3.6 3 2.4 4.9 5.8 4.9 9.7v107.8c0 3.8-1.9 7.3-4.9 9.7-1.3 1.1-2.8 1.9-4.5 2.5L461 170c-.3 2-2.1 3.5-4.1 3.5h-21.3c-2.2 0-4-1.7-4.1-3.9l-1.8-11.4c-1.9-.6-3.6-1.6-5-2.7-3-2.4-4.9-5.8-4.9-9.7v-.7H167.3v.7c0 3.8-1.9 7.2-4.9 9.7-1.4 1.2-3.2 2.1-5 2.7l-1.8 11.8c-.3 2-2.1 3.5-4.1 3.5h-21.3c-2.2 0-4-1.7-4.1-3.9l-1.8-11.6c-1.7-.6-3.2-1.5-4.5-2.5-3-2.4-4.9-5.8-4.9-9.7V38c0-7.3 7-13.3 15.5-13.3h14.7v-44.8c0-6.7 2.7-12.8 7.2-17.2 4.4-4.4 10.5-7.2 17.3-7.2H418c6.7 0 12.8 2.7 17.3 7.2 4.4 4.4 7.2 10.5 7.2 17.2v44.9zm-289 0c3.6.3 6.8 1.6 9.2 3.6 1.8 1.4 3.2 3.2 4 5.3.6 1.4.9 2.9.9 4.4v16.4h122.1v-90.6h-120c-4.4 0-8.5 1.8-11.4 4.7-2.9 2.9-4.7 7-4.7 11.4v44.8zm144.5 29.6h122.1V38c0-1.5.3-2.9.8-4.3.8-2.1 2.2-3.9 4.1-5.4 1.6-1.3 3.5-2.3 5.6-2.9h.1l.3-.1h.2l.2-.1.3-.1h1.4c.2 0 .4-.1.6-.1h.5v-44.9c0-4.4-1.8-8.5-4.7-11.4-2.9-2.9-7-4.7-11.4-4.7H297.6v90.4zm-140 8.3c-.6 0-1.2.3-1.6.7-.4.5-.7 1.1-.7 1.8v30.4c0 .7.3 1.4.7 1.8.4.4 1 .7 1.6.7h277.8c.6 0 1.2-.3 1.6-.7.4-.5.7-1.1.7-1.8V65.2c0-.7-.3-1.4-.7-1.8-.4-.4-1-.7-1.6-.7H157.6zm-8.8 96.4h-16.1l.9 6.1h14.2l1-6.1zm305.5 0h-16.1l.9 6.1h14.2l1-6.1zM456.8 33h-22.5c-1.8.2-3.4.8-4.5 1.7-.8.6-1.3 1.3-1.6 2.1-.1.4-.2.7-.2 1.1v16.4h7.3c2.9 0 5.6 1.2 7.6 3.2 1.9 2 3.1 4.6 3.1 7.6v30.4c0 2.9-1.2 5.6-3.1 7.6-1.9 2-4.6 3.2-7.6 3.2H157.6c-2.9 0-5.6-1.2-7.6-3.2-1.9-2-3.1-4.6-3.1-7.6V65.2c0-2.9 1.2-5.6 3.1-7.6 1.9-2 4.6-3.2 7.6-3.2h1.4V38c0-.4-.1-.7-.2-1.1-.3-.8-.8-1.5-1.6-2.1-1.2-.9-2.7-1.6-4.5-1.7h-22.5c-3.9 0-7.2 2.2-7.2 5v107.8c0 1.2.7 2.3 1.8 3.2 1.3 1.1 3.1 1.7 5.2 1.8h22c2.1 0 3.9-.7 5.2-1.8 1.1-.9 1.8-2 1.8-3.2V141c0-2.3 1.9-4.1 4.1-4.1h260.8c2.3 0 4.1 1.9 4.1 4.1v4.9c0 1.2.7 2.3 1.8 3.2 1.3 1.1 3.1 1.7 5.2 1.8h22c2.1 0 3.9-.7 5.2-1.8 1.1-.9 1.8-2 1.8-3.2V38c0-1.2-.7-2.3-1.8-3.2-1.4-1.1-3.3-1.8-5.4-1.8" clip-path="url(#b)" fill="#ed1558"/></svg>