<svg version="1.1" id="Layer_1" xmlns="http://www.w3.org/2000/svg" xmlns:xlink="http://www.w3.org/1999/xlink" x="0" y="0" viewBox="0 0 98 98" xml:space="preserve"><style>.st1{fill:none;stroke:#ec1c59;stroke-width:1.7964;stroke-linecap:round;stroke-linejoin:round;stroke-miterlimit:10}.st2{fill:#fff}</style><g id="XMLID_59_"><defs><path id="XMLID_60_" d="M1-.2h83.4V98H1z"/></defs><clipPath id="XMLID_3_"><use xlink:href="#XMLID_60_" overflow="visible"/></clipPath><path id="XMLID_61_" d="M73.2 82.6c1.6 3.8-.2 8.2-4 9.8-3.8 1.6-8.2-.1-9.9-3.8-.2-.3-.5-.5-.9-.5-.4.1-.6.4-.6.8-.1 4.1-3.4 7.4-7.6 7.4-3.4 0-6.3-2.3-7.3-5.5-.1-.3-.3-.5-.6-.6s-.6.1-.8.3c-2 2.7-5.6 3.7-8.8 2.4-3.1-1.2-5.1-4.4-4.7-7.8 0-.3-.1-.6-.4-.8-.3-.2-.6-.2-.8 0-2.9 1.7-6.6 1.4-9.1-.9-3-2.8-3.2-7.5-.4-10.6.3-.3.3-.7.1-1-.2-.3-.6-.4-1-.3-3.8 1.6-8.2-.2-9.8-3.9-1.6-3.8.1-8.2 3.8-9.9.3-.2.5-.5.5-.9-.1-.4-.4-.6-.8-.6-4.1.2-7.5-3.2-7.5-7.3 0-3.3 2.3-6.3 5.5-7.2.3-.1.5-.3.6-.6.1-.3-.1-.6-.3-.8-2.7-2-3.7-5.6-2.5-8.7 1.2-3.1 4.4-5.1 7.8-4.7.3 0 .6-.1.8-.4s.2-.6 0-.8c-1.7-2.9-1.4-6.6.9-9 2.8-3 7.6-3.2 10.6-.4.3.3.7.3 1 .1.3-.2.4-.6.3-1-1.6-3.8.2-8.2 4-9.8 3.8-1.6 8.2.1 9.9 3.8.2.3.5.5.9.5.4-.1.6-.4.6-.8.1-4.1 3.4-7.4 7.6-7.4 3.4 0 6.3 2.3 7.3 5.5.1.3.3.5.6.6.3.1.6-.1.8-.3 2-2.7 5.6-3.7 8.8-2.4 3.1 1.2 5.1 4.4 4.7 7.8 0 .3.1.6.4.8.3.2.6.2.8 0 2.9-1.7 6.6-1.4 9.1.9" clip-path="url(#XMLID_3_)" fill="none" stroke="#3f4043" stroke-width="3.28" stroke-linecap="round" stroke-linejoin="round"/></g><path id="XMLID_50_" class="st1" d="M37.5 39.3h21.3m-21.3 4.8h22.2m-22.2 4.7h21.9m-21.9 4.7h17.7M37.5 63h8.1m-8.1-33.1h10.1m17.3 4.5H54.2V23.7l10.7 10.7zm0-.1v34.9H32.4V23.7H54l10.9 10.6z"/><path id="XMLID_49_" class="st2" d="M62.9 71.7l-1.4 2.7-1.5-2.7-1.1.6v9.9l2.6-2.7 2.5 2.7v-9.9z"/><path id="XMLID_48_" class="st1" d="M62.9 71.7l-1.4 2.7-1.5-2.7-1.1.6v9.9l2.6-2.7 2.5 2.7v-9.9z"/><path id="XMLID_47_" class="st2" d="M61.5 57.3L63 60l2.7-1.6-.1 3.1h3.2l-1.6 2.7 2.7 1.5-2.7 1.5 1.6 2.7h-3.2l.1 3.1-2.7-1.6-1.5 2.7-1.6-2.7-2.7 1.6.1-3.1h-3.1l1.5-2.7-2.7-1.5 2.7-1.5-1.5-2.7h3.1l-.1-3.1 2.7 1.6z"/><path id="XMLID_46_" class="st1" d="M61.5 57.3L63 60l2.7-1.6-.1 3.1h3.2l-1.6 2.7 2.7 1.5-2.7 1.5 1.6 2.7h-3.2l.1 3.1-2.7-1.6-1.5 2.7-1.6-2.7-2.7 1.6.1-3.1h-3.1l1.5-2.7-2.7-1.5 2.7-1.5-1.5-2.7h3.1l-.1-3.1 2.7 1.6z"/></svg>