<svg version="1.1" id="Layer_1" xmlns="http://www.w3.org/2000/svg" xmlns:xlink="http://www.w3.org/1999/xlink" x="0" y="0" viewBox="0 0 64 64" xml:space="preserve"><style>.st3{clip-path:url(#XMLID_16_);fill:none;stroke:#d3d6d8;stroke-width:.6013}.st4,.st5{clip-path:url(#XMLID_17_)}.st5{fill:#fcdad8}</style><g id="XMLID_1_"><defs><path id="XMLID_10_" d="M5.1 0h53.8v64H5.1z"/></defs><clipPath id="XMLID_15_"><use xlink:href="#XMLID_10_" overflow="visible"/></clipPath><path id="XMLID_13_" d="M54.9 23.3c1.5-1.5 2-3.9 1.1-6-.7-1.8-2.4-3-4.2-3.2.5-1.8.1-3.9-1.3-5.3-1.3-1.4-3.3-1.9-5-1.4-.2-1.9-1.3-3.6-3-4.4-1.2-.6-2.6-.6-3.8-.1-.7.3-1.3.7-1.9 1.2-.7-2-2.6-3.4-4.8-3.4-2.2 0-4 1.4-4.8 3.4-.5-.5-1.1-1-1.9-1.2-1.2-.5-2.6-.4-3.8.1-1.7.8-2.9 2.5-3 4.4-1.8-.5-3.7 0-5 1.4-1.3 1.4-1.8 3.5-1.3 5.3-1.8.2-3.5 1.4-4.2 3.2-.9 2.1-.3 4.5 1.1 6-1.9.8-3.3 2.7-3.3 5s1.4 4.2 3.3 5c-1.5 1.5-2 3.9-1.1 6 .7 1.8 2.4 3 4.2 3.2-.5 1.8-.1 3.9 1.3 5.3 1.3 1.4 3.3 1.9 5 1.4.2 1.9 1.3 3.6 3 4.4 1.1.5 2.4.6 3.6.2 2.1 3.1 4.2 6.1 6.3 9.1.1.2.4.3.6.3.2 0 .5-.1.6-.3 2.1-3 4.2-6.1 6.3-9.1 1.2.4 2.4.3 3.6-.2 1.7-.8 2.9-2.5 3-4.4 1.8.5 3.7 0 5-1.4 1.3-1.4 1.8-3.5 1.3-5.3 1.8-.2 3.5-1.4 4.2-3.2.9-2.1.3-4.5-1.1-6 1.9-.8 3.3-2.7 3.3-5s-1.4-4.2-3.3-5" clip-path="url(#XMLID_15_)" fill="#ec1c59"/><path id="XMLID_12_" d="M54.9 23.3c1.5-1.5 2-3.9 1.1-6-.7-1.8-2.4-3-4.2-3.2.5-1.8.1-3.9-1.3-5.3-1.3-1.4-3.3-1.9-5-1.4-.2-1.9-1.3-3.6-3-4.4-1.2-.6-2.6-.6-3.8-.1-.7.3-1.3.7-1.9 1.2-.7-2-2.6-3.4-4.8-3.4-2.2 0-4 1.4-4.8 3.4-.5-.5-1.1-1-1.9-1.2-1.2-.5-2.6-.4-3.8.1-1.7.8-2.9 2.5-3 4.4-1.8-.5-3.7 0-5 1.4-1.3 1.4-1.8 3.5-1.3 5.3-1.8.2-3.5 1.4-4.2 3.2-.9 2.1-.3 4.5 1.1 6-1.9.8-3.3 2.7-3.3 5s1.4 4.2 3.3 5c-1.5 1.5-2 3.9-1.1 6 .7 1.8 2.4 3 4.2 3.2-.5 1.8-.1 3.9 1.3 5.3 1.3 1.4 3.3 1.9 5 1.4.2 1.9 1.3 3.6 3 4.4 1.1.5 2.4.6 3.6.2 2.1 3.1 4.2 6.1 6.3 9.1.1.2.4.3.6.3.2 0 .5-.1.6-.3 2.1-3 4.2-6.1 6.3-9.1 1.2.4 2.4.3 3.6-.2 1.7-.8 2.9-2.5 3-4.4 1.8.5 3.7 0 5-1.4 1.3-1.4 1.8-3.5 1.3-5.3 1.8-.2 3.5-1.4 4.2-3.2.9-2.1.3-4.5-1.1-6 1.9-.8 3.3-2.7 3.3-5s-1.4-4.2-3.3-5z" clip-path="url(#XMLID_15_)" fill="none" stroke="#fff" stroke-width="1.455" stroke-linejoin="round"/><path id="XMLID_11_" d="M50.1 21.4c-.7-1.3-2.9-1.7-4.1-1.9-2-.4-4-.2-5.9.3-.4.1-.7.2-1 .3-.4-2.3-2.3-3-4.6-3h-4.7c-2.3 0-4.2.7-4.6 3-.3-.1-.7-.2-1.1-.3-2.1-.5-4.1-.7-6.1-.3-1.3.3-3.4.6-4.1 1.9-.3.6-.3 1.9.1 2.5.8 1.3 3.5 1.1 4.7 1 2.1-.3 4.2-1.1 6.3-1l1 11.8c0 2.8 2.1 5 4.7 5h2.6c2.6 0 4.7-2.2 4.7-5l1-11.8c2.1-.1 4.1.7 6.2 1 1.2.2 3.9.3 4.7-1 .5-.6.5-1.8.2-2.5" clip-path="url(#XMLID_15_)" fill="#fff"/><defs><path id="XMLID_7_" d="M29.7 17.1c-2.3 0-4.2.7-4.6 3-.3-.1-.7-.2-1.1-.3-2-.5-4-.7-6-.3-1.3.3-3.4.6-4.1 1.9-.3.6-.3 1.9.1 2.5.8 1.3 3.5 1.1 4.7 1 2.1-.3 4.2-1.1 6.3-1l1 11.8c0 2.8 2.1 5 4.7 5h2.6c2.6 0 4.7-2.2 4.7-5l1-11.8c2.1-.1 4.1.7 6.2 1 1.2.2 3.9.3 4.7-1 .4-.6.4-1.8.1-2.5-.7-1.3-2.9-1.7-4.1-1.9-2-.4-4-.2-5.9.3-.4.1-.7.2-1 .3-.4-2.3-2.3-3-4.6-3h-4.7z"/></defs><clipPath id="XMLID_16_"><use xlink:href="#XMLID_7_" overflow="visible"/></clipPath><path id="XMLID_9_" class="st3" d="M44.9 42s-3.9 1.3-1.4 3.7"/><path id="XMLID_8_" class="st3" d="M40 42s3.9 1.3 1.4 3.7"/><g><defs><path id="XMLID_2_" d="M5.1 0h53.8v64H5.1z"/></defs><clipPath id="XMLID_17_"><use xlink:href="#XMLID_2_" overflow="visible"/></clipPath><path id="XMLID_6_" class="st4" d="M29.6 26.5c0 .5-.4.8-.8.8s-.8-.4-.8-.8c0-.5.4-.8.8-.8s.8.4.8.8"/><path id="XMLID_5_" class="st4" d="M35.8 26.5c0 .5-.4.8-.8.8s-.8-.4-.8-.8c0-.5.4-.8.8-.8s.8.4.8.8"/><path id="XMLID_4_" class="st5" d="M50 23.9c.2-.4.3-.9.3-1.5-1.1-.7-3-1.2-5.2-1.2-3.4 0-6.1 1.1-6.1 2.5 0 .1 0 .1.1.2v-.1c2.1-.1 4.1.7 6.2 1 1.2.3 3.9.4 4.7-.9"/><path id="XMLID_3_" class="st5" d="M14 23.9c-.2-.4-.3-.9-.3-1.5 1.1-.7 3-1.2 5.2-1.2 3.4 0 6.1 1.1 6.1 2.5 0 .1 0 .1-.1.2v-.1c-2.1-.1-4.1.7-6.2 1-1.3.3-3.9.4-4.7-.9"/></g></g></svg>