<svg version="1.1" id="Layer_1" xmlns="http://www.w3.org/2000/svg" xmlns:xlink="http://www.w3.org/1999/xlink" x="0" y="0" viewBox="0 0 107.8 128" xml:space="preserve"><style>.st4,.st5{clip-path:url(#XMLID_27_)}.st5{fill:#fcdad8}</style><g id="XMLID_8_"><defs><path id="XMLID_9_" d="M0 0h107.8v128.1H0z"/></defs><clipPath id="XMLID_26_"><use xlink:href="#XMLID_9_" overflow="visible"/></clipPath><path id="XMLID_12_" d="M99.7 46.6c3-3 4.1-7.8 2.4-12-1.5-3.7-4.8-6.1-8.5-6.4 1.1-3.7.2-7.8-2.5-10.7-2.7-2.8-6.6-3.8-10.1-2.7-.3-3.9-2.6-7.3-6.1-8.9-2.4-1.1-5.1-1.2-7.6-.2-1.5.6-2.8 1.5-3.8 2.6-1.4-4.1-5.2-7-9.5-7-4.4 0-8.1 2.9-9.6 7-1.1-1.2-2.4-2-3.8-2.6-2.5-1-5.2-.9-7.6.2-3.5 1.6-5.8 5.1-6.1 8.9-3.5-1.1-7.5-.1-10.1 2.7-2.7 2.8-3.6 7-2.5 10.7-3.7.3-7 2.7-8.5 6.4-1.7 4.2-.6 9 2.4 12-3.9 1.5-6.7 5.4-6.7 10s2.8 8.5 6.7 10c-3 3-4.1 7.8-2.4 12 1.5 3.7 4.8 6.1 8.5 6.4-1.1 3.7-.2 7.8 2.5 10.7 2.7 2.8 6.6 3.8 10.1 2.7.3 3.8 2.6 7.3 6.1 8.9 2.3 1 4.8 1.2 7.2.4 4.2 6.2 8.5 12.3 12.7 18.4.3.4.7.6 1.1.6s.9-.2 1.1-.6c4.2-6.1 8.5-12.3 12.7-18.4 2.4.8 4.9.7 7.2-.4 3.5-1.6 5.8-5.1 6.1-8.9 3.5 1.1 7.5.1 10.1-2.7 2.7-2.8 3.6-7 2.5-10.7 3.7-.3 7-2.7 8.5-6.4 1.7-4.2.6-9-2.4-12 3.9-1.5 6.7-5.4 6.7-10 0-4.5-2.9-8.5-6.8-10" clip-path="url(#XMLID_26_)" fill="#ec1959"/><path id="XMLID_11_" d="M99.7 46.6c3-3 4.1-7.8 2.4-12-1.5-3.7-4.8-6.1-8.5-6.4 1.1-3.7.2-7.8-2.5-10.7-2.7-2.8-6.6-3.8-10.1-2.7-.3-3.9-2.6-7.3-6.1-8.9-2.4-1.1-5.1-1.2-7.6-.2-1.5.6-2.8 1.5-3.8 2.6-1.4-4.1-5.2-7-9.5-7-4.4 0-8.1 2.9-9.6 7-1.1-1.2-2.4-2-3.8-2.6-2.5-1-5.2-.9-7.6.2-3.5 1.6-5.8 5.1-6.1 8.9-3.5-1.1-7.5-.1-10.1 2.7-2.7 2.8-3.6 7-2.5 10.7-3.7.3-7 2.7-8.5 6.4-1.7 4.2-.6 9 2.4 12-3.9 1.5-6.7 5.4-6.7 10s2.8 8.5 6.7 10c-3 3-4.1 7.8-2.4 12 1.5 3.7 4.8 6.1 8.5 6.4-1.1 3.7-.2 7.8 2.5 10.7 2.7 2.8 6.6 3.8 10.1 2.7.3 3.8 2.6 7.3 6.1 8.9 2.3 1 4.8 1.2 7.2.4 4.2 6.2 8.5 12.3 12.7 18.4.3.4.7.6 1.1.6s.9-.2 1.1-.6c4.2-6.1 8.5-12.3 12.7-18.4 2.4.8 4.9.7 7.2-.4 3.5-1.6 5.8-5.1 6.1-8.9 3.5 1.1 7.5.1 10.1-2.7 2.7-2.8 3.6-7 2.5-10.7 3.7-.3 7-2.7 8.5-6.4 1.7-4.2.6-9-2.4-12 3.9-1.5 6.7-5.4 6.7-10 0-4.5-2.9-8.5-6.8-10z" clip-path="url(#XMLID_26_)" fill="none" stroke="#fff" stroke-width="2.692" stroke-linejoin="round"/><path id="XMLID_10_" d="M90.1 42.9c-1.4-2.7-5.7-3.4-8.2-3.9-4-.8-7.9-.3-11.9.6-.8.2-1.4.3-2.1.6-.8-4.6-4.7-5.9-9.3-5.9h-9.3c-4.6 0-8.5 1.3-9.3 6-.6-.2-1.4-.4-2.2-.6-3.9-.9-7.9-1.4-11.9-.6-2.5.5-6.8 1.2-8.2 3.9-.7 1.3-.7 3.7.1 5 1.6 2.6 6.9 2.3 9.4 2 4.2-.5 8.4-2.2 12.6-2L42 71.5c0 5.5 4.2 10 9.4 10h5.1c5.2 0 9.5-4.5 9.5-10l2.1-23.7c4.2-.1 8.3 1.5 12.4 2 2.5.3 7.8.7 9.4-2 .8-1.2.8-3.6.2-4.9" clip-path="url(#XMLID_26_)" fill="#fff"/></g><defs><path id="SVGID_1_" d="M62.5 53.7c-1.6 0-2.8.4-3.1 2-.2-.1-.5-.1-.7-.2-1.3-.3-2.6-.5-4-.2-.8.2-2.3.4-2.7 1.3-.2.4-.2 1.2 0 1.7.5.9 2.3.8 3.1.7 1.4-.2 2.8-.7 4.2-.7l.7 7.9c0 1.8 1.4 3.3 3.2 3.3h1.7c1.7 0 3.2-1.5 3.2-3.3l.7-7.9c1.4 0 2.8.5 4.2.7.8.1 2.6.2 3.1-.7.3-.4.3-1.2 0-1.7-.5-.9-1.9-1.1-2.7-1.3-1.3-.3-2.7-.1-4 .2-.3.1-.5.1-.7.2-.3-1.5-1.6-2-3.1-2h-3.1z"/></defs><clipPath id="SVGID_2_"><use xlink:href="#SVGID_1_" overflow="visible"/></clipPath><path d="M70.6 68.1s-2.4.8-.9 2.3m-2.1-2.3s2.4.8.9 2.3" clip-path="url(#SVGID_2_)" fill="none" stroke="#d3d6d8" stroke-width=".371"/><g id="XMLID_2_"><defs><path id="XMLID_3_" d="M0 0h107.8v128.1H0z"/></defs><clipPath id="XMLID_27_"><use xlink:href="#XMLID_3_" overflow="visible"/></clipPath><path id="XMLID_7_" class="st4" d="M49.1 53.1c0 .9-.7 1.7-1.6 1.7-.9 0-1.6-.8-1.6-1.7 0-.9.7-1.7 1.6-1.7.9 0 1.6.8 1.6 1.7"/><path id="XMLID_6_" class="st4" d="M61.5 53.1c0 .9-.7 1.7-1.6 1.7-.9 0-1.6-.8-1.6-1.7 0-.9.7-1.7 1.6-1.7.9 0 1.6.8 1.6 1.7"/><path id="XMLID_5_" class="st5" d="M90 47.9c.5-.7.6-1.9.6-2.9-2.1-1.5-6-2.4-10.4-2.4-6.7 0-12.2 2.3-12.2 5.1 0 .2.1.3.1.4v-.2c4.2-.1 8.3 1.5 12.4 2 2.5.3 7.8.6 9.5-2"/><path id="XMLID_4_" class="st5" d="M17.8 47.9c-.5-.7-.6-1.9-.6-2.9 2.1-1.5 6-2.4 10.4-2.4 6.7 0 12.2 2.3 12.2 5.1 0 .2-.1.3-.1.4v-.2c-4.2-.1-8.3 1.5-12.4 2-2.5.3-7.9.6-9.5-2"/></g></svg>