<svg version="1.1" id="Layer_1" xmlns="http://www.w3.org/2000/svg" xmlns:xlink="http://www.w3.org/1999/xlink" x="0" y="0" viewBox="0 0 64 64" xml:space="preserve"><style>.st0,.st1{clip-path:url(#XMLID_18_);fill:#fff}.st1{fill:#ec1c59}</style><g id="XMLID_1_"><defs><path id="XMLID_2_" d="M1.7 0H64v64H1.7z"/></defs><clipPath id="XMLID_18_"><use xlink:href="#XMLID_2_" overflow="visible"/></clipPath><path id="XMLID_16_" class="st0" d="M36.6 48c1.4 0 2.6-1.2 2.6-2.6v-1.7c0-1.4-1.2-2.6-2.6-2.6h-1.7c-1.4 0-2.6 1.2-2.6 2.6v1.7c0 1.4 1.2 2.6 2.6 2.6h1.7z"/><path id="XMLID_15_" class="st0" d="M16.3 34.2c1.4 0 2.6-1.2 2.6-2.6v-1.7c0-1.4-1.2-2.6-2.6-2.6h-1.7c-1.4 0-2.6 1.2-2.6 2.6v1.7c0 1.4 1.2 2.6 2.6 2.6h1.7z"/><path id="XMLID_14_" class="st1" d="M46.1 29.9c.5 0 .9.4.9.9s-.4.9-.9.9H18.9V30h27.2z"/><path id="XMLID_13_" class="st1" d="M46.1 43.7c.5 0 .9.4.9.9s-.4.9-.9.9h-6.9v-1.7h6.9z"/><path class="st1" d="M12.9 31.7c0 .9.8 1.7 1.7 1.7h1.7c.9 0 1.7-.8 1.7-1.7V30c0-.9-.8-1.7-1.7-1.7h-1.7c-.9 0-1.7.8-1.7 1.7v1.7zm1.7-5.2h1.7c1.9 0 3.4 1.5 3.4 3.4v1.7c0 1.9-1.5 3.4-3.4 3.4h-1.7c-1.9 0-3.4-1.5-3.4-3.4v-1.7c-.1-1.9 1.5-3.4 3.4-3.4"/><path id="XMLID_10_" class="st1" d="M2.5 29.9h6.9v1.7H2.5c-.5 0-.9-.4-.9-.9.1-.4.4-.8.9-.8"/><path class="st1" d="M33.2 45.4c0 .9.8 1.7 1.7 1.7h1.7c.9 0 1.7-.8 1.7-1.7v-1.7c0-.9-.8-1.7-1.7-1.7h-1.7c-.9 0-1.7.8-1.7 1.7v1.7zm1.7-5.1h1.7c1.9 0 3.4 1.5 3.4 3.4v1.7c0 1.9-1.5 3.4-3.4 3.4h-1.7c-1.9 0-3.4-1.5-3.4-3.4v-1.7c0-1.9 1.5-3.4 3.4-3.4"/><path id="XMLID_7_" class="st1" d="M2.5 43.7h27.2v1.7H2.5c-.5 0-.9-.4-.9-.9.1-.4.4-.8.9-.8"/><path id="XMLID_6_" clip-path="url(#XMLID_18_)" fill="none" stroke="#ec1c59" stroke-width="2.106" stroke-linecap="round" stroke-miterlimit="10" d="M13.6 19.6H4.3"/><path id="XMLID_5_" class="st1" d="M6.6 20.6c-.2 0-.4.2-.4.4s0 .4.1.6l.8.8c.5.5.5 1.2 0 1.7-.2.2-.6.4-.9.4-.3 0-.6-.1-.9-.4L2 20.6c-.4-.4-.5-1-.2-1.4.2-.4.6-.6 1.1-.6"/><path id="XMLID_4_" class="st1" d="M6.6 18.9c-.2 0-.4-.2-.4-.4s0-.4.1-.6l.8-.8c.5-.5.5-1.2 0-1.7-.2-.2-.6-.4-.9-.4-.3 0-.6.1-.9.4L2 18.9c-.4.4-.5 1-.2 1.4.2.4.6.7 1.1.7"/><path id="XMLID_3_" d="M9.1 53.3c1.8 2 5 2.1 7 .3.2-.2.5-.2.7 0 .2.1.3.4.2.6-1 2.5.1 5.4 2.6 6.5 2.5 1.1 5.4-.1 6.5-2.5.1-.2.3-.3.6-.3.2.1.4.3.4.5 0 2.7 2.3 4.9 5 4.9 2.2 0 4.2-1.5 4.8-3.6.1-.2.2-.3.4-.4.2 0 .4 0 .5.2 1.3 1.8 3.7 2.4 5.8 1.6 2.1-.8 3.3-2.9 3.1-5.1 0-.2.1-.4.2-.5.2-.1.4-.1.6 0 1.9 1.1 4.3.9 6-.6 2-1.8 2.1-5 .3-7-.2-.2-.2-.5 0-.7.1-.2.4-.3.6-.2 2.5 1 5.4-.1 6.5-2.6 1.1-2.5-.1-5.4-2.5-6.5-.2-.1-.4-.3-.3-.6.1-.2.3-.4.5-.4 2.7 0 4.9-2.3 4.9-5 0-2.2-1.5-4.2-3.6-4.8-.2-.1-.3-.2-.4-.4 0-.2 0-.4.2-.5 1.8-1.3 2.4-3.7 1.6-5.8-.8-2.1-2.9-3.3-5.1-3.1-.2 0-.4-.1-.5-.2-.1-.2-.1-.4 0-.6 1.1-1.9.9-4.3-.6-5.9-1.8-2-5-2.1-7-.3-.2.2-.5.2-.7 0-.2-.1-.3-.4-.2-.6 1-2.5-.1-5.4-2.6-6.5-2.5-1.1-5.4.1-6.5 2.5-.1.2-.3.3-.6.3-.2-.1-.4-.3-.4-.5 0-2.7-2.3-4.9-5-4.9-2.2 0-4.2 1.5-4.8 3.6-.1.2-.2.3-.4.4-.2 0-.4 0-.5-.2-1.3-1.8-3.7-2.4-5.8-1.6-2.1.8-3.3 2.9-3.1 5.1 0 .2-.1.4-.2.5-.2.1-.4.1-.6 0-1.9-1.1-4.3-.9-6 .6" clip-path="url(#XMLID_18_)" fill="none" stroke="#3f4043" stroke-width="1.568" stroke-linecap="round" stroke-linejoin="round"/></g></svg>