<svg version="1.1" id="Layer_1" xmlns="http://www.w3.org/2000/svg" xmlns:xlink="http://www.w3.org/1999/xlink" x="0" y="0" viewBox="0 0 64 64" xml:space="preserve"><style>.st0,.st1{clip-path:url(#XMLID_18_);fill:#fff}.st1{fill:#ec1c59}</style><g id="XMLID_1_"><defs><path id="XMLID_2_" d="M0 0h60.2v64H0z"/></defs><clipPath id="XMLID_18_"><use xlink:href="#XMLID_2_" overflow="visible"/></clipPath><path id="XMLID_16_" class="st0" d="M26.9 47.2c-1.4 0-2.5-1.1-2.5-2.5v-1.6c0-1.4 1.1-2.5 2.5-2.5h1.6c1.4 0 2.5 1.1 2.5 2.5v1.6c0 1.4-1.1 2.5-2.5 2.5h-1.6z"/><path id="XMLID_15_" class="st0" d="M46.3 34.1c-1.4 0-2.5-1.1-2.5-2.5V30c0-1.4 1.1-2.5 2.5-2.5h1.6c1.4 0 2.5 1.1 2.5 2.5v1.6c0 1.4-1.1 2.5-2.5 2.5h-1.6z"/><path id="XMLID_14_" class="st1" d="M17.9 30c-.5 0-.8.4-.8.8s.4.8.8.8h25.9V30H17.9z"/><path id="XMLID_13_" class="st1" d="M17.9 43.1c-.5 0-.8.4-.8.8s.4.8.8.8h6.6v-1.6h-6.6z"/><path class="st1" d="M49.5 31.7c0 .9-.7 1.6-1.6 1.6h-1.6c-.9 0-1.6-.7-1.6-1.6V30c0-.9.7-1.6 1.6-1.6h1.6c.9 0 1.6.7 1.6 1.6v1.7zm-1.6-4.9h-1.6c-1.8 0-3.3 1.5-3.3 3.3v1.6c0 1.8 1.5 3.3 3.3 3.3h1.6c1.8 0 3.3-1.5 3.3-3.3V30c0-1.8-1.5-3.2-3.3-3.2"/><path id="XMLID_10_" class="st1" d="M59.4 30h-6.6v1.6h6.6c.5 0 .8-.4.8-.8s-.4-.8-.8-.8"/><path class="st1" d="M30.2 44.8c0 .9-.7 1.6-1.6 1.6H27c-.9 0-1.6-.7-1.6-1.6v-1.6c0-.9.7-1.6 1.6-1.6h1.6c.9 0 1.6.7 1.6 1.6v1.6zm-1.6-4.9H27c-1.8 0-3.3 1.5-3.3 3.3v1.6c0 1.8 1.5 3.3 3.3 3.3h1.6c1.8 0 3.3-1.5 3.3-3.3v-1.6c-.1-1.9-1.5-3.3-3.3-3.3"/><path id="XMLID_7_" class="st1" d="M59.4 43.1H33.5v1.6h25.9c.5 0 .8-.4.8-.8s-.4-.8-.8-.8"/><path id="XMLID_6_" clip-path="url(#XMLID_18_)" fill="none" stroke="#ec1c59" stroke-width="2.004" stroke-linecap="round" stroke-miterlimit="10" d="M48.8 20.2h8.9"/><path id="XMLID_5_" class="st1" d="M55.5 21.2c.2 0 .3.2.4.4.1.2 0 .4-.1.5l-.8.7c-.5.5-.5 1.2 0 1.6.2.2.5.3.8.3.3 0 .6-.1.8-.3l3.2-3.2c.4-.4.4-.9.2-1.4-.2-.4-.6-.6-1-.6"/><path id="XMLID_4_" class="st1" d="M55.5 19.5c.2 0 .3-.2.4-.4.1-.2 0-.4-.1-.5l-.8-.7c-.5-.5-.5-1.2 0-1.6.2-.2.5-.3.8-.3.3 0 .6.1.8.3l3.2 3.2c.4.4.4.9.2 1.4-.2.4-.6.6-1 .6"/><path id="XMLID_3_" d="M54.9 53.3c-1.8 2-5 2.1-7 .3-.2-.2-.5-.2-.7 0-.2.1-.3.4-.2.6 1 2.5-.1 5.4-2.6 6.5-2.5 1.1-5.4-.1-6.5-2.5-.1-.2-.3-.3-.6-.3-.2.1-.4.3-.4.5 0 2.7-2.3 4.9-5 4.9-2.2 0-4.2-1.5-4.8-3.6-.1-.2-.2-.3-.4-.4-.2 0-.4 0-.5.2-1.3 1.8-3.7 2.4-5.8 1.6-2.1-.8-3.3-2.9-3.1-5.1 0-.2-.1-.4-.2-.5-.2-.1-.4-.1-.6 0-1.9 1.1-4.3.9-6-.6-2-1.8-2.1-5-.3-7 .2-.2.2-.5 0-.7-.1-.2-.4-.3-.6-.2-2.5 1-5.4-.1-6.5-2.6-.8-2.4.3-5.3 2.8-6.4.2-.1.4-.3.3-.6-.1-.3-.3-.4-.5-.4C3 37 .8 34.7.8 32c0-2.2 1.5-4.2 3.6-4.8.2-.1.3-.2.4-.4 0-.2 0-.4-.2-.5C2.8 25 2.2 22.6 3 20.6c.8-2.1 2.9-3.3 5.1-3.1.2 0 .4-.1.5-.2.1-.2.1-.4 0-.6-1.1-1.9-.9-4.3.6-5.9 1.8-2 5-2.1 7-.3.2.2.5.2.7 0 .2-.1.3-.4.2-.6-1-2.5.1-5.4 2.6-6.5 2.5-1.1 5.4.1 6.5 2.5.1.2.3.3.6.3.2-.1.4-.3.4-.5 0-2.7 2.3-4.9 5-4.9 2.2 0 4.2 1.5 4.8 3.6.1.2.2.3.4.4.2 0 .4 0 .5-.2 1.3-1.8 3.7-2.4 5.8-1.6 2.1.8 3.3 2.9 3.1 5.1 0 .2.1.4.2.5.2.1.4.1.6 0 1.9-1.1 4.3-.9 6 .6" clip-path="url(#XMLID_18_)" fill="none" stroke="#3f4043" stroke-width="1.568" stroke-linecap="round" stroke-linejoin="round"/></g></svg>