<svg version="1.1" id="Layer_1" xmlns="http://www.w3.org/2000/svg" xmlns:xlink="http://www.w3.org/1999/xlink" x="0" y="0" viewBox="0 0 64 64" xml:space="preserve"><style>.st2,.st4,.st5{fill:#ec1c59}.st4{clip-path:url(#XMLID_25_)}.st5{clip-path:url(#XMLID_26_)}</style><g id="XMLID_1_"><defs><path id="XMLID_19_" d="M0 0h58.1v64H0z"/></defs><clipPath id="XMLID_23_"><use xlink:href="#XMLID_19_" overflow="visible"/></clipPath><path id="XMLID_21_" d="M54.9 53.3c-1.8 2-5 2.1-7 .3-.2-.2-.5-.2-.7 0-.2.1-.3.4-.2.6 1 2.5-.1 5.4-2.6 6.5-2.5 1.1-5.4-.1-6.5-2.5-.1-.2-.3-.3-.6-.3s-.3.2-.3.4c0 2.7-2.3 4.9-5 4.9-2.2 0-4.2-1.5-4.8-3.6-.1-.2-.2-.3-.4-.4-.2 0-.4 0-.5.2-1.3 1.8-3.7 2.4-5.8 1.6-2.1-.8-3.3-2.9-3.1-5.1 0-.2-.1-.4-.2-.5-.2-.1-.4-.1-.6 0-1.9 1.1-4.3.9-6-.6-2-1.8-2.1-5-.3-7 .2-.2.2-.5 0-.7-.1-.2-.4-.3-.6-.2-2.5 1-5.4-.1-6.5-2.6-.9-2.3.2-5.2 2.7-6.3.2-.1.4-.3.3-.6-.1-.3-.3-.4-.5-.4C3 37 .8 34.7.8 32c0-2.2 1.5-4.2 3.6-4.8.2-.1.3-.2.4-.4 0-.2 0-.4-.2-.5C2.8 25 2.2 22.6 3 20.6c.8-2.1 2.9-3.3 5.1-3.1.2 0 .4-.1.5-.2.1-.2.1-.4 0-.6-1.1-1.9-.9-4.3.6-5.9 1.8-2 5-2.1 7-.3.2.2.5.2.7 0 .2-.1.3-.4.2-.6-1-2.5.1-5.4 2.6-6.5 2.5-1.1 5.4.1 6.5 2.5.1.2.3.3.6.3.2-.1.4-.3.4-.5 0-2.7 2.3-4.9 5-4.9 2.2 0 4.2 1.5 4.8 3.6.1.2.2.3.4.4.2 0 .4 0 .5-.2 1.3-1.8 3.7-2.4 5.8-1.6 2.1.8 3.3 2.9 3.1 5.1 0 .2.1.4.2.5.2.1.4.1.6 0 1.9-1.1 4.3-.9 6 .6" clip-path="url(#XMLID_23_)" fill="none" stroke="#333232" stroke-width="1.568" stroke-linecap="round" stroke-linejoin="round"/><path id="XMLID_20_" d="M51.3 36.5v5.4c0 1.6-1.3 2.9-2.9 2.9H18.6c-1.6 0-2.9-1.3-2.9-2.9V23.6c0-1.6 1.3-2.9 2.9-2.9h16.3c.5 0 .8.4.8.8 0 .5-.4.8-.8.8H18.6c-.7 0-1.2.6-1.2 1.2v18.3c0 .7.6 1.2 1.2 1.2h29.9c.7 0 1.2-.6 1.2-1.2v-5.4h1.6z" clip-path="url(#XMLID_23_)" fill="#ec1c59"/><path id="XMLID_18_" class="st2" d="M16.5 38.9h34v1.7h-34z"/><defs><path id="XMLID_16_" d="M0 0h58.1v64H0z"/></defs><clipPath id="XMLID_24_"><use xlink:href="#XMLID_16_" overflow="visible"/></clipPath><path id="XMLID_17_" d="M40.6 49.9H26.4c-.5 0-.8-.4-.8-.8 0-.5.4-.8.8-.8h14.2c.5 0 .8.4.8.8s-.3.8-.8.8" clip-path="url(#XMLID_24_)" fill="#ec1c59"/><path id="XMLID_15_" class="st2" d="M28.4 44h1.7v5h-1.7z"/><path id="XMLID_14_" class="st2" d="M36.8 44h1.7v5h-1.7z"/><path id="XMLID_13_" class="st2" d="M37.4 18.3h19.9V20H37.4z"/><defs><path id="XMLID_7_" d="M0 0h58.1v64H0z"/></defs><clipPath id="XMLID_25_"><use xlink:href="#XMLID_7_" overflow="visible"/></clipPath><path id="XMLID_12_" class="st4" d="M51.3 17.6c-.5 0-.8-.4-.8-.8v-2.1c0-.5.4-.8.8-.8.5 0 .8.4.8.8v2.1c.1.4-.3.8-.8.8"/><path id="XMLID_11_" class="st4" d="M43.3 17.6c-.5 0-.8-.4-.8-.8v-2.1c0-.5.4-.8.8-.8.5 0 .8.4.8.8v2.1c0 .4-.3.8-.8.8"/><path class="st4" d="M38.8 33.1h13.8l3.8-3.8V17.2c0-.4-.3-.6-.6-.6h-17c-.4 0-.6.3-.6.6v15.2c0 .4.3.7.6.7m13.5 1.7H38c-.8 0-1.5-.7-1.5-1.5V16.5c0-.8.7-1.5 1.5-1.5h18.6c.8 0 1.5.7 1.5 1.5V29c0 .7-.3 1.4-.8 1.9L54.1 34c-.5.5-1.1.8-1.8.8"/><path id="XMLID_8_" class="st4" d="M53.8 34h-1.7v-4.2c0-.5.4-.9.9-.9h4.2v1.7h-3.4V34z"/><path id="XMLID_6_" class="st2" d="M52.2 25.5h1.7v1.7h-1.7z"/><path id="XMLID_5_" class="st2" d="M40.8 25.5h1.7v1.7h-1.7z"/><g><defs><path id="XMLID_2_" d="M0 0h58.1v64H0z"/></defs><clipPath id="XMLID_26_"><use xlink:href="#XMLID_2_" overflow="visible"/></clipPath><path id="XMLID_4_" class="st5" d="M44.6 28.7l.6-.2v-2h-.4c-.3 0-.6-.3-.6-.6s.3-.6.6-.6h.4v-1c0-.8.2-1.5.7-2 .4-.5 1.1-.7 1.9-.7 1 0 1.7.4 2.2.9.1.1.2.3.2.5 0 .4-.3.7-.7.7-.2 0-.4-.1-.5-.2-.3-.4-.7-.6-1.2-.6-.4 0-.6.1-.8.3-.2.2-.4.6-.4 1.1v1h2.3c.3 0 .6.3.6.6s-.3.6-.6.6h-2.3v1.9h3.1c.3 0 .6.3.6.6s-.3.6-.6.6h-4.9c-.3 0-.5-.2-.5-.5-.1-.1 0-.3.3-.4"/><path id="XMLID_3_" class="st5" d="M50.5 38.1c-.5 0-.8-.4-.8-.8v-.9c0-.5.4-.8.8-.8.5 0 .8.4.8.8v.9c0 .5-.4.8-.8.8"/></g></g></svg>