<svg version="1.1" id="Layer_1" xmlns="http://www.w3.org/2000/svg" xmlns:xlink="http://www.w3.org/1999/xlink" x="0" y="0" viewBox="115 -114 357 357" xml:space="preserve"><style>.st0{clip-path:url(#SVGID_2_);fill:#ed1558}</style><defs><path id="SVGID_1_" d="M115.1-88H472v305H115.1z"/></defs><clipPath id="SVGID_2_"><use xlink:href="#SVGID_1_" overflow="visible"/></clipPath><path class="st0" d="M126.9 205.1h333.2V-76.1H126.9v281.2zM466 217H121c-3.3 0-5.9-2.7-5.9-5.9V-82.1c0-3.3 2.6-5.9 5.9-5.9h345c3.3 0 5.9 2.7 5.9 5.9v293.2c0 3.2-2.6 5.9-5.9 5.9"/><path class="st0" d="M271.8-27.4c.3 0 .6 0 1 .1 1.7.3 3.2 1.3 4.1 2.7l5.2 8.2 7.3-7.3c1.2-1.2 2.8-1.7 4.4-1.7 1.6.1 3.2.8 4.3 2l5.5 6.2 4.8-6.4c1.8-2.4 5.2-3.1 7.8-1.4l7.7 4.7v-55.9h-60.6v54l4.9-4c.9-.7 2.3-1.2 3.6-1.2M280.9-1h-.7c-1.8-.2-3.4-1.2-4.4-2.7l-5.6-8.9-9.2 7.5a6.23 6.23 0 01-6.3.8c-2.1-1-3.4-3.1-3.4-5.3V-82c0-3.3 2.6-5.9 5.9-5.9h72.4c3.3 0 5.9 2.7 5.9 5.9v72.4c0 2.2-1.2 4.1-3 5.2-1.9 1-4.2 1-6-.1L314.4-12l-6 7.8c-1 1.3-2.6 2.2-4.4 2.2-1.6.1-3.5-.7-4.7-2l-6.1-6.9-8.1 8.1C284-1.6 282.5-1 280.9-1m-31.8 42.1c-4.8 0-8.8 3.9-8.8 8.8 0 4.8 3.9 8.8 8.8 8.8h88.7c4.8 0 8.8-3.9 8.8-8.8 0-4.8-3.9-8.8-8.8-8.8h-88.7zm88.8 29.3h-88.7c-11.4 0-20.6-9.2-20.6-20.6s9.2-20.6 20.6-20.6h88.7c11.4 0 20.6 9.2 20.6 20.6s-9.3 20.6-20.6 20.6M225 116.2c4.6 0 7.8 3.2 7.8 7.8v24.5c0 4.6-3.2 7.8-7.8 7.8h-5.8v-7.5h3.8c1.2 0 1.9-.7 1.9-1.9v-21.4c0-1.2-.7-1.9-1.9-1.9h-3.8v-7.5h5.8zm-11.3 7.5c-1.2 0-1.9.7-1.9 1.9V147c0 1.2.7 1.9 1.9 1.9h3.9v7.5h-5.9c-4.6 0-7.8-3.2-7.8-7.8v-24.5c0-4.6 3.2-7.8 7.8-7.8h5.9v7.5h-3.9z"/><path d="M250.1 125.4h8v30.8h-8v-30.8zm18.4-1.6h-28.7v-7.4h28.7v7.4zm30.1-7.4h7.9v39.8h-7.9v-16.6h-12v-7.5h12v-15.7zm-21.6 0h8v39.8h-8v-39.8zm67 39.8h-16.4v-7.5H344v7.5zm-3.4-16.6h-13v-7.5h13v7.5zM344 124h-16.4v-7.5H344v7.5zm-26-7.6h8v39.8h-8v-39.8z" fill="#ed1558"/><defs><path id="SVGID_3_" d="M115.1-88H472v305H115.1z"/></defs><clipPath id="SVGID_4_"><use xlink:href="#SVGID_3_" overflow="visible"/></clipPath><path d="M374.6 156.2l-6.4-14.7h-4.8v-7.4h8.7c1.2 0 1.9-.7 1.9-1.9v-6.3c0-1.2-.7-1.9-1.9-1.9h-8.7v-7.5h10.7c4.6 0 7.8 3.2 7.8 7.8v9.3c0 3.8-2.1 6.6-5.4 7.5l6.6 15.1h-8.5zm-12.9 0h-8v-39.8h8v39.8z" clip-path="url(#SVGID_4_)" fill="#ed1558"/></svg>