<svg xmlns="http://www.w3.org/2000/svg" xmlns:xlink="http://www.w3.org/1999/xlink" viewBox="0 0 98 98"><defs><path id="a" d="M0 0h84.2v98H0z"/></defs><clipPath id="b"><use xlink:href="#a" overflow="visible"/></clipPath><path d="M72 82.6c1.6 3.8-.2 8.2-3.9 9.8-3.8 1.6-8.2-.1-9.9-3.8-.2-.3-.5-.5-.9-.5-.4.1-.6.4-.6.8-.1 4.1-3.4 7.4-7.5 7.4-3.4 0-6.3-2.2-7.2-5.5-.1-.3-.3-.5-.6-.6-.3-.1-.6.1-.8.3-2 2.7-5.6 3.7-8.8 2.4-3.1-1.2-5.1-4.4-4.7-7.7 0-.3-.1-.6-.4-.8-.3-.2-.6-.2-.8 0-2.9 1.7-6.6 1.3-9-.9-3-2.8-3.2-7.5-.4-10.5.3-.3.3-.7.1-1-.2-.3-.6-.4-1-.3-3.8 1.6-8.2-.2-9.8-3.9-1.6-3.7.1-8.2 3.8-9.8.3-.2.5-.5.5-.9-.1-.4-.4-.6-.8-.6-4.3-.1-7.7-3.4-7.7-7.5 0-3.3 2.3-6.3 5.5-7.2.3-.1.5-.3.6-.6.1-.3-.1-.6-.3-.8-2.7-2-3.7-5.6-2.4-8.7 1.2-3.1 4.4-5.1 7.8-4.7.3 0 .6-.1.8-.4s.2-.6 0-.8c-1.7-2.9-1.4-6.6.9-9 2.8-3 7.5-3.2 10.6-.4.3.3.7.3 1 .1.3-.2.4-.6.3-1-1.6-3.8.2-8.2 3.9-9.8 3.8-1.6 8.2.1 9.9 3.8.2.3.5.5.9.5.4-.1.6-.4.6-.8 0-4.2 3.3-7.6 7.4-7.6 3.4 0 6.3 2.2 7.3 5.5.1.3.3.5.6.6.3.1.6-.1.8-.3 2-2.7 5.6-3.7 8.8-2.4 3.1 1.2 5.1 4.4 4.7 7.7 0 .3.1.6.4.8.3.2.6.2.8 0 2.9-1.7 6.6-1.4 9 .9" clip-path="url(#b)" fill="none" stroke="#3f4043" stroke-width="3.273" stroke-linecap="round" stroke-linejoin="round"/><path d="M76.4 57.3h-5.2c-.6 0-1.1-.5-1.1-1.1 0-.6.5-1.1 1.1-1.1h5.2c.6 0 1.1.5 1.1 1.1.1.6-.4 1.1-1.1 1.1zm.2-5.7v-4.9H71v4.9l1.1-.9.7 1.1 1-1 .8.9.7-.9 1.3.8zm-12.2-4.9h18.8v29.9H64.4V46.7zm-15-14.2h-7c-.8 0-1.5-.7-1.5-1.5s.7-1.5 1.5-1.5h7c.8 0 1.5.7 1.5 1.5s-.7 1.5-1.5 1.5zm.3-7.8v-6.6h-7.5v6.6l1.5-1.2.9 1.5 1.3-1.3 1.1 1.2 1-1.3 1.7 1.1zm-16.5-6.6h25.4v23.5H33.2V18.1zm18.6 38.1H43c-.8 0-1.5-.7-1.5-1.5s.7-1.5 1.5-1.5h8.8c.8 0 1.5.7 1.5 1.5-.1.8-.7 1.5-1.5 1.5zm-.9-7.4v-7.2h-7.2v7.2l1.4-1.2.9 1.4 1.2-1.2 1 1.2.9-1.2 1.8 1zm-20.6-7.1h34.2v34.8H30.3V41.7z" clip-path="url(#b)" fill="none" stroke="#ec1c59" stroke-width="1.793" stroke-linecap="round" stroke-linejoin="round" stroke-miterlimit="10"/></svg>