<svg version="1.1" id="Layer_1" xmlns="http://www.w3.org/2000/svg" xmlns:xlink="http://www.w3.org/1999/xlink" x="0" y="0" viewBox="0 0 581.4 360.3" xml:space="preserve"><style>.st0,.st1,.st2{fill:none;stroke:#ccc;stroke-width:.25;stroke-linejoin:round}.st1{stroke-dasharray:4.9272,4.9272,4.9272,4.9272}.st2{stroke-dasharray:4.9272,4.9272,4.9272,4.9272,4.9272,4.9272}.st3{fill:#3e3f42}.st6{fill:#00aeef}.st10,.st8,.st9{fill:none;stroke:#e6e6e6;stroke-width:.4947;stroke-linejoin:round}.st9{stroke-dasharray:4.8454,4.8454,4.8454,4.8454}.st10{stroke-dasharray:4.8454,4.8454,4.8454,4.8454,4.8454,4.8454}.st11{stroke:#ed7d31;stroke-width:2.75;stroke-miterlimit:10}.st11,.st12,.st15{fill:none;stroke-linecap:round;stroke-linejoin:round}.st12{stroke-miterlimit:10;stroke:#4472c4;stroke-width:2.75}.st15{stroke:#8dc63f;stroke-width:2}.st16{fill:#8dc63f}.st17{fill:#fff}.st22{clip-path:url(#SVGID_8_);fill:#c6e29f}.st23{fill:none;stroke:#fff;stroke-width:.1836}.st26{clip-path:url(#SVGID_12_);fill:#80d7ce}.st27{fill:#ed1c24}.st38{fill:#ccc}.st39{font-family:&apos;Aleo-Regular&apos;}.st40{font-size:15px}</style><path class="st0" d="M34 61.3h2.5"/><path class="st1" d="M41.4 61.3h17.3"/><path class="st2" d="M61.1 61.3h411.4"/><path class="st0" d="M475 61.3h2.5M34 122.3h2.5"/><path class="st1" d="M41.4 122.3h17.3"/><path class="st2" d="M61.1 122.3h411.4"/><path class="st0" d="M475 122.3h2.5M34 183.3h2.5"/><path class="st1" d="M41.4 183.3h17.3"/><path class="st2" d="M61.1 183.3h411.4"/><path class="st0" d="M475 183.3h2.5M34 244.4h2.5"/><path class="st1" d="M41.4 244.4h17.3"/><path class="st2" d="M61.1 244.4h411.4"/><path class="st0" d="M475 244.4h2.5"/><path class="st3" d="M577 66.2h-77.2c-2.4 0-4.3-1.9-4.3-4.3V45.3l-8.7-11.2c-.9-1.2-.1-2.9 1.4-2.9H577c2.4 0 4.3 1.9 4.3 4.3v26.3c.1 2.4-1.9 4.4-4.3 4.4z"/><path d="M30.5 140.8h48.9c10.8 0 20.2 7.6 22.4 18.3h0c2.2 10.6 11.5 18.3 22.4 18.3h44c3.2 0 6.3 1.1 8.7 3.1h0c2.5 2 5.5 3.1 8.7 3.1h132.8c3.1 0 6.1 1.1 8.5 3h0c2.4 1.9 5.4 3 8.5 3h57.9c3.1 0 6.2 1.1 8.7 3h0c2.5 2 5.5 3 8.7 3h20.9" fill="none" stroke="#f58220" stroke-width="2" stroke-linecap="round" stroke-linejoin="round" stroke-miterlimit="10"/><path fill="none" stroke="#3e3f42" stroke-width="2" stroke-linecap="round" stroke-linejoin="round" stroke-miterlimit="10" d="M30.5 31.2h424.6"/><defs><path id="SVGID_1_" d="M26.6.3v293.3c0 6.9 5.6 12.4 12.4 12.4h438.4"/></defs><clipPath id="SVGID_2_"><use xlink:href="#SVGID_1_" overflow="visible"/></clipPath><use xlink:href="#SVGID_1_" overflow="visible" fill="none" stroke="#ccc" stroke-width="1.624" stroke-linecap="round" stroke-linejoin="round" stroke-miterlimit="10"/><path class="st6" d="M5.5 190.5v.7c0 .2-.1.3-.3.3l-1.4.1c-.3.8-.4 1.6-.4 2.3 0 1.1.4 2.1 1.1 2.8.8.7 1.8 1.1 3.1 1.1.8 0 1.6-.2 2.2-.5.6-.3 1.1-.7 1.5-1.3.4-.6.5-1.2.5-2 0-.6-.1-1.1-.2-1.5-.1-.4-.4-.8-.7-1.2-.1-.1-.1-.2-.1-.3 0-.1 0-.2.1-.2l.6-.6c1.1.9 1.6 2.2 1.6 3.9 0 1-.2 1.9-.7 2.7-.5.8-1.1 1.4-2 1.8-.8.4-1.8.6-2.8.6-1.6 0-2.9-.5-4-1.5-1-1-1.5-2.3-1.5-4.1 0-.8.3-1.9.8-3.2h2.6zm.1-5.8c.2-.4.4-.8.8-1.2.3-.3.7-.5 1.2-.7.5-.2 1-.3 1.6-.3.6 0 1.1.1 1.6.3.5.2.9.4 1.2.7.3.3.6.7.8 1.2.2.5.3 1 .3 1.5s-.1 1-.3 1.5c-.2.4-.4.8-.8 1.2-.3.3-.7.5-1.2.7-.4.2-1 .2-1.6.2-.6 0-1.2-.1-1.6-.2-.5-.2-.9-.4-1.2-.7-.3-.3-.6-.7-.8-1.2-.2-.5-.3-1-.3-1.5s.1-1.1.3-1.5zm5.8-.2c-.5-.4-1.2-.6-2.1-.6s-1.6.2-2.1.6c-.5.3-.8.9-.8 1.7 0 .4.1.7.2 1 .1.3.3.5.6.7.3.2.6.3.9.4.4.1.8.1 1.2.1.4 0 .8 0 1.2-.1.3-.1.6-.2.9-.4.2-.2.4-.4.5-.7.1-.3.2-.7.2-1 0-.8-.2-1.4-.7-1.7zm-5.6-7.7h2v.6c0 .1-.1.2-.2.3l-1 .1c-.1.5-.2.9-.2 1.2 0 .4.1.8.3 1 .2.3.4.4.7.4.3 0 .5-.1.6-.2.2-.2.4-.5.5-.9l.1-.5c0-.1.1-.2.2-.5l.3-.7c.1-.2.2-.4.4-.6.3-.4.8-.6 1.3-.6.7 0 1.3.2 1.7.7.5.5.7 1.2.7 2s-.1 1.7-.4 2.5h-2v-.6c0-.1.1-.2.2-.2l1-.1c.2-.4.3-.9.3-1.5 0-.5-.1-.9-.4-1.2-.2-.3-.5-.4-.8-.4-.3 0-.5.1-.6.2-.2.1-.3.3-.4.5-.1.2-.2.4-.2.6-.2.7-.4 1.2-.5 1.4-.1.2-.3.5-.4.7-.4.4-.8.6-1.4.6-.6 0-1.1-.2-1.5-.7-.4-.5-.7-1.2-.7-2.1 0-.6.1-1.2.4-2zm6.9-2.6c-.3.3-.8.5-1.4.5H6.6v.9c0 .1 0 .2-.1.2 0 .1-.1.1-.2.1h-.5l-.2-1.2-2.4-.3c-.1 0-.1 0-.2-.1 0 0-.1-.1-.1-.2v-.7h2.6v-2.2h1v2.2h4.6c.3 0 .6-.1.7-.2.1-.1.2-.4.2-.6 0-.1 0-.2-.1-.4 0-.1-.1-.2-.1-.3 0 0 0-.1-.1-.1 0 0 0-.1-.1-.1 0-.1-.1-.1-.1-.2s0-.1.1-.2l.6-.4c.2.3.4.6.5.8.1.3.2.7.2 1 .3.7.1 1.1-.2 1.5zm-7.4-12c0-.9.3-1.6 1-2.1s1.7-.8 2.9-.8c1.1 0 2.1.3 2.8.9.8.6 1.1 1.4 1.1 2.3s-.3 1.7-.9 2.2h2.3l.1-.4.1-.4c0-.2.1-.2.3-.2h.6v3.5H15c-.2 0-.3-.1-.3-.2l-.2-.8h-8c-.1.5-.1.7-.2.8 0 .2-.1.2-.3.2h-.5v-1.9c0-.2.1-.3.3-.4l.9-.1c-.9-.7-1.4-1.6-1.4-2.6zm6.8.8c0-.7-.2-1.3-.8-1.7-.5-.4-1.2-.6-2.2-.6-.9 0-1.6.2-2.1.5s-.7.8-.7 1.5c0 .8.4 1.5 1.2 2h3.7c.6-.4.9-1 .9-1.7zm-6.5-9.1c.1-.4.4-.7.6-1 .3-.3.7-.5 1.1-.7.4-.2.9-.2 1.4-.2.2 0 .4 0 .4.1.1.1.1.1.1.3v5c.5 0 .9-.1 1.3-.2.3-.1.6-.3.9-.5.3-.2.4-.5.5-.8.1-.3.2-.6.2-1s0-.6-.1-.9l-.3-.6c-.1-.2-.2-.4-.2-.5-.1-.1-.1-.2-.1-.3 0-.1 0-.2.1-.3l.5-.4c.2.1.4.3.5.6.2.3.3.5.4.7.1.3.2.6.2.8 0 .3.1.6.1.8 0 .5-.1 1-.3 1.5-.2.4-.4.8-.8 1.2-.3.3-.8.6-1.3.8-.5.2-1.1.3-1.7.3-.5 0-1-.1-1.5-.3-.5-.2-.9-.4-1.2-.7-.3-.3-.6-.7-.8-1.1-.2-.4-.3-.9-.3-1.5.1-.3.1-.7.3-1.1zm1.3 2.8c.4.4.9.6 1.6.7v-4.1c-.3 0-.6 0-.8.1-.3.1-.5.2-.7.4-.2.2-.3.4-.4.6-.1.2-.2.5-.2.8-.1.6.1 1.1.5 1.5zm-1.6-10.2c0-.4.1-.7.3-1l1 .2c.1 0 .2.1.2.2s0 .2-.1.4c0 .2-.1.4-.1.6 0 .9.5 1.5 1.6 2H12l.2-.9c0-.2.1-.2.3-.2h.6v3.5h-.6c-.2 0-.3-.1-.3-.2l-.2-.9H6.6c-.1.5-.1.8-.2.9 0 .2-.1.2-.3.2h-.6v-1.8c0-.1 0-.2.1-.3.1 0 .1-.1.3-.1l1.2-.1c-1.2-.8-1.8-1.5-1.8-2.5zm.8-17.3c.2 0 .2.1.3.2v.1c0 .1 0 .1.1.2 0 .1 0 .2.1.2v.1l6.5 2.1v1c0 .1-.1.2-.2.3l-5.2 1.7c-.1 0-.2.1-.4.1h-.4.4l.3.1 5.1 1.7c.2.1.3.2.3.3v1l-6.5 2.1v.3c0 .1-.1.2-.1.3v.2c0 .2-.1.2-.3.2h-.6V138h.6c.2 0 .3.1.3.2s.1.2.1.4l.1.5 4.1-1.2c.1 0 .2 0 .3-.1h.2c.3-.1.5-.1.6-.1-.2 0-.5-.1-1-.3l-4.9-1.6c-.2-.1-.3-.2-.3-.4v-.6c0-.2.1-.3.3-.4l4.9-1.6 1-.3c-.4-.1-.7-.1-1-.2l-4.1-1.2c0 .1-.1.3-.2.9 0 .2-.1.2-.3.2h-.7v-3.4h.6zm-.5-5.4c.1-.4.4-.7.6-1 .3-.3.7-.5 1.1-.7.4-.2.9-.2 1.4-.2.2 0 .4 0 .4.1.1 0 .1.1.1.3v5c.5 0 .9-.1 1.3-.2.3-.1.6-.3.9-.5.3-.2.4-.5.5-.8.1-.3.2-.6.2-1s0-.7-.1-.9l-.3-.6c-.1-.2-.2-.4-.2-.5-.1-.1-.1-.2-.1-.3 0-.1 0-.2.1-.3l.5-.2c.2.1.4.3.5.6.2.3.3.5.4.7.1.3.2.6.2.8 0 .3.1.6.1.8 0 .5-.1 1-.3 1.5-.2.4-.4.8-.8 1.2-.3.3-.8.6-1.3.8-.5.2-1.1.3-1.7.3-.5 0-1-.1-1.5-.3-.5-.2-.9-.4-1.2-.7-.3-.3-.6-.7-.8-1.1-.2-.4-.3-.9-.3-1.5.1-.5.1-.9.3-1.3zm1.3 2.7c.4.4.9.6 1.6.7v-4.1c-.3 0-.6 0-.8.1-.3.1-.5.2-.7.4-.2.2-.3.4-.4.6-.1.2-.2.5-.2.8-.1.7.1 1.2.5 1.5zm-1.3-10.1c.1-.4.4-.7.6-1 .3-.3.7-.5 1.1-.7.4-.2.9-.2 1.4-.2.2 0 .4 0 .4.1.1 0 .1.1.1.3v5c.5 0 .9-.1 1.3-.2.3-.1.6-.3.9-.5.3-.2.4-.5.5-.8.1-.3.2-.6.2-1s0-.7-.1-.9l-.3-.6c-.1-.2-.2-.4-.2-.5-.1-.1-.1-.2-.1-.3 0-.1 0-.2.1-.3l.5-.4c.2.1.4.3.5.6.2.3.3.5.4.7.1.3.2.6.2.8 0 .3.1.6.1.8 0 .5-.1 1-.3 1.5-.2.4-.4.8-.8 1.2-.3.3-.8.6-1.3.8-.5.2-1.1.3-1.7.3-.5 0-1-.1-1.5-.3-.5-.2-.9-.4-1.2-.7-.3-.3-.6-.7-.8-1.1-.2-.4-.3-.9-.3-1.5.1-.3.1-.7.3-1.1zm1.3 2.8c.4.4.9.6 1.6.7v-4.1c-.3 0-.6 0-.8.1-.3.1-.5.2-.7.4-.2.2-.3.4-.4.6-.1.2-.2.5-.2.8-.1.6.1 1.1.5 1.5zm5.5-13.3h.7v1.4c0 .2-.1.4-.3.5l-3.1 2.5c-.1.1-.2.1-.2.2v.7H12c0-.1 0-.2.1-.5l.1-.3c0-.2.1-.2.3-.2h.6v3.5h-.6c-.2 0-.3-.1-.3-.2l-.2-.9H3.1c-.1.5-.1.8-.2.9 0 .2-.1.2-.3.2H2v-2.4h6.5v-.3c0-.2-.1-.4-.2-.5l-1.8-1.7v.4c0 .2-.1.2-.3.2h-.7v-3.2h.6c.1 0 .2.1.3.2l.2.9 1.9 1.8.4.4c.1-.2.3-.3.5-.4L12 107l.1-.4c.1-.3.1-.4.1-.5 0-.1.1-.2.2-.2z"/><path d="M30.5 195.7h48.9c10.9 0 20.2-7.6 22.4-18.3h0c2.2-10.6 11.5-18.3 22.4-18.3h44.1c3.1 0 6.2-1.1 8.6-3h0c2.5-1.9 5.5-3 8.6-3h132.8c3.1 0 6.2-1.1 8.6-3.1h0c2.4-2 5.4-3.1 8.6-3.1h57.8c3.1 0 6.2-1.1 8.6-3h0c2.5-2 5.5-3 8.6-3h20.9" fill="none" stroke="#ed1558" stroke-width="2" stroke-linecap="round" stroke-linejoin="round" stroke-miterlimit="10"/><path class="st6" d="M199 345.3c0 .1-.1.2-.2.3l-.9.2v9.6h-.7c-.2 0-.4-.1-.5-.3l-6.2-8.1v7.3c.3 0 .6.1 1 .2.1 0 .2.1.2.3v.6h-3.6v-.6c0-.2.1-.2.2-.3l.9-.2v-8.5c-.5-.1-.8-.2-.9-.2-.1 0-.2-.1-.2-.3v-.6h2.1l.2.2 6.2 8.1v-7.2c-.3 0-.5-.1-.7-.1-.2 0-.3-.1-.3-.1-.2 0-.2-.1-.2-.3v-.7h3.6v.7zm6.5 8.1v-4.5c-.1 0-.4-.1-.9-.2-.2 0-.2-.1-.2-.3v-.6h2.4v6.5c.5.1.8.1.9.2.1 0 .2.1.2.3v.6H206c-.2 0-.3-.1-.4-.3l-.1-.8c-.7.8-1.6 1.2-2.5 1.2-.8 0-1.4-.3-1.9-.8-.4-.5-.7-1.2-.7-2.1v-3.8c-.5-.1-.7-.2-.8-.2-.2 0-.2-.1-.2-.3v-.6h2.4v4.8c0 .6.1 1 .4 1.3.3.3.7.5 1.2.5.8.2 1.5-.2 2.1-.9zm7.8-5.7c.5 0 .9.1 1.3.4.3.3.5.7.7 1.2.2-.5.5-.9 1-1.2.5-.3.9-.4 1.3-.4s.8.1 1.2.2c.3.1.6.3.8.6.4.5.7 1.2.7 2.1v3.8c.5.1.8.1.9.2.1 0 .2.1.2.3v.7H219v-4.8c0-.6-.1-1.1-.4-1.3-.3-.3-.7-.5-1.1-.5-.5 0-.8.1-1.1.4-.3.3-.5.8-.5 1.4v3.8s.1 0 .3.1c.1 0 .3.1.6.1.1 0 .2.1.2.3v.6h-2.4v-4.8c0-1.2-.5-1.8-1.4-1.8-.6 0-1.2.3-1.7 1v4.6l.4.1.4.1c.2 0 .2.1.2.3v.6H209v-.6c0-.2.1-.3.2-.3l.9-.2v-5.4c-.5-.1-.8-.2-.9-.2-.1 0-.2-.1-.2-.3v-.6h1.9c.2 0 .3.1.4.3l.1.8c.4-1.2 1.1-1.6 1.9-1.6zm16.5 3.9c0 .6-.1 1.2-.3 1.7-.2.5-.4.9-.7 1.2-.3.3-.6.6-1 .8-.4.2-.8.3-1.3.3-.9 0-2-.1-3.4-.4v-9.7h-.3l-.6-.1c-.1 0-.1 0-.2-.1 0-.1-.1-.1-.1-.2v-.6h2.5v4.5c.3-.4.7-.7 1.1-.9.4-.2.9-.3 1.4-.3.5 0 .8.1 1.2.2.3.2.6.4.9.8l.6 1.2c.1.4.2.9.2 1.6zm-1.5 1.2c.1-.4.1-.8.1-1.1v-.1c0-.5 0-.9-.1-1.3-.1-.3-.2-.6-.4-.9-.2-.2-.4-.4-.6-.5-.2-.1-.5-.2-.8-.2-.5 0-.8.1-1.2.3-.3.2-.6.5-.9.9v4.3c.1 0 .4.1.6.1.3.1.6.1.9.1h.4c.3 0 .6-.1.8-.2.3-.1.5-.3.7-.6.3-.2.4-.5.5-.8zm6.9-4.9c.4.2.7.4 1 .6.3.3.5.7.7 1.1.2.5.2.9.2 1.4 0 .2 0 .4-.1.4-.1.1-.1.1-.3.1h-5c0 .5.1.9.2 1.3.1.3.3.6.5.9.2.3.5.4.8.5.3.1.6.2 1 .2s.6 0 .9-.1l.6-.3c.2-.1.4-.2.5-.2.1-.1.2-.1.3-.1.1 0 .2 0 .3.1l.4.5c-.1.2-.3.3-.6.5s-.5.3-.7.4c-.3.1-.6.2-.8.2-.3 0-.6.1-.8.1-.5 0-1-.1-1.5-.3-.4-.2-.8-.4-1.2-.8-.3-.3-.6-.8-.8-1.3-.2-.5-.3-1.1-.3-1.7 0-.5.1-1 .3-1.5.2-.5.4-.9.7-1.2.3-.3.7-.6 1.1-.8.4-.2.9-.3 1.5-.3.3.1.8.2 1.1.3zm-2.7 1.3c-.4.4-.6.9-.7 1.6h4.1c0-.3 0-.6-.1-.8-.1-.3-.2-.5-.4-.7-.2-.2-.4-.3-.6-.4-.2-.1-.5-.2-.8-.2-.6 0-1.1.2-1.5.5zm10.2-1.5c.4 0 .7.1 1 .3l-.2 1c0 .1-.1.2-.2.2s-.2 0-.4-.1c-.2 0-.4-.1-.6-.1-.9 0-1.5.5-2 1.6v3.8l.9.2c.2 0 .2.1.2.3v.6H238v-.6c0-.2.1-.3.2-.3l.9-.2V349c-.5-.1-.8-.2-.9-.2-.1 0-.2-.1-.2-.3v-.6h1.8c.1 0 .2 0 .3.1 0 .1.1.1.1.3l.1 1.2c.7-1.3 1.4-1.8 2.4-1.8zm10 .3c.4.2.8.4 1.2.8.3.3.5.7.7 1.2.2.5.3 1 .3 1.6 0 .6-.1 1.1-.3 1.6-.2.5-.4.9-.7 1.2-.3.3-.7.6-1.2.8-.5.2-1 .3-1.5.3s-1-.1-1.5-.3c-.4-.2-.8-.4-1.2-.8-.3-.3-.5-.7-.7-1.2-.2-.4-.2-1-.2-1.6 0-.6.1-1.2.2-1.6.2-.5.4-.9.7-1.2.3-.3.7-.6 1.2-.8.5-.2 1-.3 1.5-.3s1 .1 1.5.3zm.2 5.7c.4-.5.6-1.2.6-2.1 0-.9-.2-1.6-.6-2.1-.4-.5-.9-.8-1.7-.8-.4 0-.7.1-1 .2-.3.1-.5.3-.7.6-.2.3-.3.6-.4.9-.1.4-.1.8-.1 1.2 0 .4 0 .8.1 1.2.1.3.2.6.4.9.2.2.4.4.7.5.3.1.6.2 1 .2.8.1 1.3-.2 1.7-.7zm5.2-6.4v.7h2.2v1h-2.2v5.4c.5.1.8.1 1 .2.1 0 .2.1.2.3v.6h-3.7v-.6c0-.2.1-.3.2-.3l.9-.2V349l-.8-.1c-.2-.1-.4-.2-.4-.3v-.6h1.2v-.7c0-.9.2-1.6.7-2 .5-.5 1.1-.7 1.9-.7.3 0 .6 0 .9.2v.7c0 .1 0 .1-.1.2h-.5c-1-.2-1.5.4-1.5 1.6zm18.6-1.6v8.5c.5.1.8.2.9.2.2 0 .2.1.2.3v.7h-3.6v-.7c0-.2.1-.2.2-.3l1-.2v-7.5l-3.7 6.7c-.1.2-.3.3-.5.3h-.2c-.2 0-.4-.1-.5-.3l-3.7-6.7v7.5l1 .2c.1 0 .2.1.2.3v.7h-3.6v-.7c0-.2.1-.2.2-.3l.8-.2v-8.5c-.5-.1-.7-.2-.8-.2-.2 0-.2-.1-.2-.3v-.7h2.5c.1 0 .2.1.2.2l3.7 6.6c.1.2.2.4.3.8.1-.2.2-.5.3-.8l3.6-6.6c0-.1.1-.1.2-.2h2.5v.7c0 .2-.1.2-.2.3l-.8.2zm7 2.3c.4.2.8.4 1.2.8.3.3.5.7.7 1.2.2.5.3 1 .3 1.6 0 .6-.1 1.1-.3 1.6-.2.5-.4.9-.7 1.2-.3.3-.7.6-1.2.8-.5.2-1 .3-1.5.3s-1-.1-1.5-.3c-.4-.2-.8-.4-1.2-.8-.3-.3-.5-.7-.7-1.2-.2-.4-.2-1-.2-1.6 0-.6.1-1.2.2-1.6.2-.5.4-.9.7-1.2.3-.3.7-.6 1.2-.8.5-.2 1-.3 1.5-.3s1.1.1 1.5.3zm.2 5.7c.4-.5.6-1.2.6-2.1 0-.9-.2-1.6-.6-2.1-.4-.5-.9-.8-1.7-.8-.4 0-.7.1-1 .2-.3.1-.5.3-.7.6-.2.3-.3.6-.4.9-.1.4-.1.8-.1 1.2 0 .4 0 .8.1 1.2.1.3.2.6.4.9.2.2.4.4.7.5.3.1.6.2 1 .2.8.1 1.4-.2 1.7-.7zm7.7-6c.8 0 1.4.3 1.9.8.4.5.6 1.2.6 2.1v3.7c.5.1.8.2.9.2.2 0 .2.1.2.3v.6h-2.4v-4.8c0-1.2-.5-1.8-1.6-1.8-.8 0-1.4.4-2.1 1.1v4.5s.3.1.9.2c.2 0 .2.1.2.3v.6h-3.5v-.6c0-.2.1-.3.2-.3l.9-.2V349c-.5-.1-.8-.2-.9-.2-.1 0-.2-.1-.2-.3v-.6h1.9c.2 0 .3.1.4.3l.1.8c.7-.9 1.5-1.3 2.5-1.3zm5.8 7.3c-.3-.3-.5-.8-.5-1.4v-4.7h-.9c-.1 0-.2 0-.2-.1-.1 0-.1-.1-.1-.2v-.5l1.2-.2.3-2.4c0-.1 0-.1.1-.2 0 0 .1-.1.2-.1h.7v2.6h2.2v1h-2.2v4.6c0 .3.1.6.2.7.1.2.4.2.6.2.1 0 .2 0 .4-.1.1 0 .2-.1.3-.1 0 0 .1 0 .1-.1 0 0 .1 0 .1-.1.1 0 .1-.1.1-.1.1 0 .1 0 .2.1l.4.6c-.3.2-.6.4-.8.5-.3.1-.7.2-1 .2-.6.3-1 .2-1.4-.2zm9-7.3c.8 0 1.4.3 1.9.8.4.5.7 1.2.7 2.1v3.7c.5.1.8.2.9.2.1 0 .2.1.2.3v.6h-2.4v-4.8c0-1.2-.5-1.8-1.6-1.8-.7 0-1.4.4-2 1.1v4.5h.2l.7.1c.2 0 .2.1.2.3v.6h-3.5v-.6c0-.2.1-.3.2-.3l.8-.2v-8.9c-.6-.1-.9-.2-1-.2-.2 0-.2-.1-.2-.3v-.6h2.6v4.5c.6-.7 1.4-1.1 2.3-1.1zm9.4.4v2h-.6c-.1 0-.2-.1-.3-.2l-.1-1c-.5-.1-.9-.2-1.2-.2-.4 0-.8.1-1 .3-.3.2-.4.4-.4.7 0 .3.1.5.2.6.2.2.5.4.9.5l.5.1c.1 0 .2.1.5.2l.7.3c.2.1.4.2.6.4.4.3.6.8.6 1.3 0 .7-.2 1.3-.7 1.7-.5.5-1.2.7-2 .7s-1.6-.1-2.5-.4v-2h.5c.1 0 .2.1.2.2l.1 1c.4.2.9.3 1.5.3.5 0 .9-.1 1.2-.4.3-.2.4-.5.4-.8 0-.3-.1-.5-.2-.6-.1-.2-.3-.3-.5-.4-.2-.1-.4-.2-.6-.2-.7-.2-1.2-.4-1.4-.5-.2-.1-.5-.3-.7-.4-.4-.3-.6-.8-.6-1.4 0-.6.2-1.1.7-1.5.5-.4 1.2-.7 2.1-.7.7 0 1.3.1 2.1.4z"/><text transform="translate(720 -289.123)" font-family="Calibri" font-size="11.04">!</text><path class="st8" d="M34-586.8h2.5"/><path class="st9" d="M41.3-586.8h17"/><path class="st10" d="M60.7-586.8h637.2"/><path class="st8" d="M700.3-586.8h2.5M34-525.8h2.5"/><path class="st9" d="M41.3-525.8h17"/><path class="st10" d="M60.7-525.8h637.2"/><path class="st8" d="M700.3-525.8h2.5M34-464.8h2.5"/><path class="st9" d="M41.3-464.8h17"/><path class="st10" d="M60.7-464.8h637.2"/><path class="st8" d="M700.3-464.8h2.5M34-404.1h2.5"/><path class="st9" d="M41.3-404.1h17"/><path class="st10" d="M60.7-404.1h637.2"/><path class="st8" d="M700.3-404.1h2.5"/><path class="st11" d="M32.6-518.9h91c6.8 0 12.9 4.5 14.9 11l4.5 14.5c2 6.5 8.1 11 14.9 11h84.4c4.3 0 8.5 1.1 12.3 3.1 3.8 2 8 3.1 12.3 3.1h203.3c4.2 0 8.3 1 12 3 3.7 2 7.8 3 12 3h89.6c4.3 0 8.5 1 12.3 3 3.8 2 8 3 12.3 3h95.8"/><path class="st12" d="M32.6-628.6h671.6"/><defs><path id="SVGID_3_" d="M26.6-659.4v301.9c0 2.1 1.7 3.8 3.8 3.8h680.2"/></defs><clipPath id="SVGID_4_"><use xlink:href="#SVGID_3_" overflow="visible"/></clipPath><use xlink:href="#SVGID_3_" overflow="visible" fill="none" stroke="#ccc" stroke-width="2" stroke-linecap="round" stroke-linejoin="round" stroke-miterlimit="10"/><text transform="rotate(-90 -172.311 -181.372)" class="st39 st40" fill="#00af9e">Cost per week</text><path class="st11" d="M264.7-302.7h19.2"/><text transform="translate(285.878 -300.403)"><tspan x="0" y="0" fill="#d9d9d9" font-family="Calibri" font-size="9.12">,-</tspan><tspan x="5" y="0" fill="#d9d9d9" font-family="Calibri" font-size="9.12">.</tspan><tspan x="7.1" y="0" fill="#d9d9d9" font-family="Calibri" font-size="9.12">/</tspan></text><path class="st12" d="M312-302.7h19.2"/><text transform="translate(333.182 -300.403)"><tspan x="0" y="0" fill="#d9d9d9" font-family="Calibri" font-size="9.12">.</tspan><tspan x="2.3" y="0" fill="#d9d9d9" font-family="Calibri" font-size="9.12">0</tspan><tspan x="6.7" y="0" fill="#d9d9d9" font-family="Calibri" font-size="9.12">1</tspan><tspan x="11.4" y="0" fill="#d9d9d9" font-family="Calibri" font-size="9.12">2</tspan><tspan x="15.9" y="0" fill="#d9d9d9" font-family="Calibri" font-size="9.12">!</tspan><tspan x="19" y="0" fill="#d9d9d9" font-family="Calibri" font-size="9.12">.</tspan><tspan x="21.3" y="0" fill="#d9d9d9" font-family="Calibri" font-size="9.12">/</tspan><tspan x="24.7" y="0" fill="#d9d9d9" font-family="Calibri" font-size="9.12">-</tspan><tspan x="27.4" y="0" fill="#d9d9d9" font-family="Calibri" font-size="9.12">3</tspan><tspan x="32" y="0" fill="#d9d9d9" font-family="Calibri" font-size="9.12">0</tspan><tspan x="36.7" y="0" fill="#d9d9d9" font-family="Calibri" font-size="9.12">!</tspan><tspan x="39.5" y="0" fill="#d9d9d9" font-family="Calibri" font-size="9.12">,</tspan><tspan x="41.7" y="0" fill="#d9d9d9" font-family="Calibri" font-size="9.12">-</tspan><tspan x="44.5" y="0" fill="#d9d9d9" font-family="Calibri" font-size="9.12">.</tspan><tspan x="46.6" y="0" fill="#d9d9d9" font-family="Calibri" font-size="9.12">/</tspan></text><path fill="none" stroke="#a5a5a5" stroke-width="2.75" stroke-linecap="round" stroke-linejoin="round" stroke-miterlimit="10" d="M395-302.7h19.2"/><text transform="translate(416.267 -300.403)"><tspan x="0" y="0" fill="#d9d9d9" font-family="Calibri" font-size="9.12">.</tspan><tspan x="2.3" y="0" fill="#d9d9d9" font-family="Calibri" font-size="9.12">4</tspan><tspan x="6.9" y="0" fill="#d9d9d9" font-family="Calibri" font-size="9.12">5</tspan><tspan x="11.5" y="0" fill="#d9d9d9" font-family="Calibri" font-size="9.12">6</tspan><tspan x="16" y="0" fill="#d9d9d9" font-family="Calibri" font-size="9.12">7</tspan><tspan x="20.6" y="0" fill="#d9d9d9" font-family="Calibri" font-size="9.12">8</tspan><tspan x="25.2" y="0" fill="#d9d9d9" font-family="Calibri" font-size="9.12">.</tspan></text><path d="M32.6-464h91c6.8 0 12.9-4.5 14.9-11l4.5-14.5c2-6.5 8.1-11 14.9-11h84.5c4.3 0 8.5-1 12.3-3h0c3.8-2 8-3 12.3-3h203.3c4.2 0 8.4-1.1 12.1-3.1h0c3.7-2 7.9-3.1 12.1-3.1H584c4.3 0 8.5-1 12.3-3h0c3.8-2 8-3 12.3-3h95.8" fill="none" stroke="#ccc" stroke-width="2.75" stroke-linecap="round" stroke-linejoin="round" stroke-miterlimit="10"/><path class="st15" d="M5.1-457.7v-199.6"/><path class="st16" d="M13.3-650.6l-1.5 1.3-6.7-7.2-6.7 7.2-1.5-1.3 8.2-8.8z"/><text transform="translate(26.64 -325.784)" class="st16 st39 st40">Number of Months</text><path class="st15" d="M165.7-331.1h542.8"/><path class="st16" d="M701.8-322.9l-1.3-1.5 7.2-6.7-7.2-6.7 1.3-1.5 8.8 8.2z"/><path class="st17" d="M518.7 42.4c0 .9-.3 1.6-.8 2.1-.6.6-1.3.8-2.3.8-.4 0-.8 0-1.3-.1-.3-.1-.7-.1-1-.2l-.4-.1v-2.3h.6c.1 0 .2.1.3.2 0 .1 0 .3.1.6v.6c.7.2 1.2.4 1.6.4s.7 0 1-.1c.3-.1.5-.2.6-.4.3-.3.5-.7.5-1.2s-.2-.9-.7-1.1c-.2-.1-.4-.2-.7-.3-.9-.3-1.5-.5-1.6-.5-.3-.1-.5-.3-.7-.5-.5-.4-.7-1-.7-1.7s.2-1.3.7-1.8c.5-.5 1.2-.8 2.1-.8.9 0 1.8.2 2.6.5v2.1h-.6c-.2 0-.2-.1-.3-.2v-.3c0-.2 0-.4-.1-.9-.6-.2-1.1-.2-1.5-.2-.6 0-1 .1-1.3.4-.3.3-.4.6-.4 1 0 .5.2.8.7 1.1.2.1.4.2.7.3.8.3 1.3.5 1.6.6.8.3 1.3 1 1.3 2zm4.7-3.6c.3.1.6.3.9.6.3.3.5.6.6.9.1.4.2.8.2 1.2 0 .2 0 .3-.1.4 0 .1-.1.1-.2.1h-4.4c0 .4.1.8.2 1.1.1.3.2.5.4.8.2.2.4.4.6.5.3.1.5.2.8.2.3 0 .6 0 .8-.1.2-.1.4-.1.5-.2.2-.1.3-.2.4-.2.1-.1.2-.1.3-.1.1 0 .2 0 .2.1l.3.4c-.1.2-.3.3-.5.4-.3.2-.5.3-.6.3-.3.1-.5.1-.7.2-.3 0-.5.1-.7.1-.5 0-.9-.1-1.3-.2s-.7-.4-1-.7c-.3-.3-.5-.7-.6-1.1-.2-.4-.2-.9-.2-1.5 0-.5.1-.9.2-1.3s.4-.8.6-1c.3-.3.6-.5 1-.7.4-.2.8-.2 1.3-.2.3-.2.7-.2 1 0zm-2.4 1.1c-.3.3-.5.8-.6 1.4h3.6c0-.3 0-.5-.1-.7-.1-.3-.2-.5-.3-.6-.1-.2-.3-.3-.5-.4-.2-.1-.4-.1-.7-.1-.6-.1-1.1.1-1.4.4zm7.8 4.8v.6h-3v-.6c0-.1.1-.2.2-.2l.7-.1v-7.7c-.4-.1-.6-.1-.7-.2-.1 0-.2-.1-.2-.2v-.6h2.1v8.6c.4.1.6.1.7.2.2 0 .2.1.2.2zm2.9-6.5v.6h1.9v.8h-1.9v4.7c.4.1.7.1.9.1.1 0 .2.1.2.2v.6h-3.2v-.6c0-.1.1-.2.2-.2l.8-.1v-4.6l-.7-.1c-.2-.1-.3-.2-.3-.3v-.5h1v-.6c0-.8.2-1.3.6-1.8.4-.4.9-.6 1.7-.6.3 0 .5 0 .8.1v.6c0 .1 0 .1-.1.2h-.6c-.9 0-1.3.5-1.3 1.5zm11.3 4.2c0 .9-.3 1.6-.8 2.1-.6.6-1.3.8-2.3.8-.4 0-.8 0-1.3-.1-.3-.1-.7-.1-1-.2l-.4-.1v-2.3h.6c.1 0 .2.1.3.2 0 .1 0 .3.1.6v.6c.7.2 1.2.4 1.6.4.4 0 .7 0 1-.1.3-.1.5-.2.6-.4.3-.3.5-.7.5-1.2s-.2-.9-.7-1.1c-.2-.1-.4-.2-.7-.3-.9-.3-1.5-.5-1.6-.5-.3-.1-.5-.3-.7-.5-.5-.4-.7-1-.7-1.7s.2-1.3.7-1.8c.5-.5 1.2-.8 2.1-.8.9 0 1.8.2 2.6.5v2.1h-.6c-.2 0-.2-.1-.3-.2v-.3c0-.2 0-.4-.1-.9-.6-.2-1.1-.2-1.5-.2-.6 0-1 .1-1.3.4-.3.3-.4.6-.4 1 0 .5.2.8.7 1.1.2.1.4.2.7.3.8.3 1.3.5 1.6.6.9.3 1.3 1 1.3 2zm2 2.5c-.3-.3-.4-.7-.4-1.2v-4h-.8c-.1 0-.1 0-.2-.1 0 0-.1-.1-.1-.2v-.5l1.1-.1.3-2c0-.1 0-.1.1-.2 0 0 .1-.1.2-.1h.6v2.3h1.9v.8h-1.9v4c0 .3.1.5.2.6.1.1.3.2.5.2.1 0 .2 0 .3-.1.1 0 .2-.1.2-.1s.1 0 .1-.1c0 0 .1 0 .1-.1.1 0 .1-.1.1-.1.1 0 .1 0 .2.1l.3.5c-.2.2-.5.3-.7.4-.3.1-.6.2-.9.2-.5.3-.9.1-1.2-.2zm7.8-6.1c.4.2.7.4 1 .7.3.3.5.6.6 1.1.1.4.2.9.2 1.4 0 .5-.1 1-.2 1.4-.1.4-.4.8-.6 1.1-.3.3-.6.5-1 .7-.4.2-.8.2-1.3.2s-.9-.1-1.3-.2c-.4-.2-.7-.4-1-.7-.3-.3-.5-.6-.6-1.1-.1-.4-.2-.8-.2-1.4 0-.6.1-1 .2-1.4.2-.4.4-.8.6-1.1.3-.3.6-.5 1-.7.4-.2.8-.2 1.3-.2s.9.1 1.3.2zm.2 5c.3-.5.5-1.1.5-1.8s-.2-1.4-.5-1.8c-.3-.4-.8-.7-1.5-.7-.3 0-.6.1-.9.2-.2.1-.4.3-.6.5-.2.2-.3.5-.4.8-.1.3-.1.7-.1 1.1 0 .3 0 .7.1 1 .1.3.2.6.4.8.1.2.3.4.6.5.3.1.6.2.9.2.7-.1 1.2-.4 1.5-.8zm6.4-5.3c.3 0 .6.1.9.2l-.1.9c0 .1-.1.2-.2.2s-.2 0-.3-.1c-.1 0-.3-.1-.5-.1-.8 0-1.3.5-1.7 1.4v3.3l.7.1c.1 0 .2.1.2.2v.5h-3v-.5c0-.1.1-.2.2-.2l.7-.1v-4.7c-.4-.1-.7-.1-.7-.2-.1 0-.2-.1-.2-.2v-.5h1.6c.1 0 .2 0 .2.1 0 0 .1.1.1.2l.1 1c.5-1 1.2-1.5 2-1.5zm5.6.3c.3.1.6.3.9.6.3.3.5.6.6.9.1.4.2.8.2 1.2 0 .2 0 .3-.1.4 0 .1-.1.1-.2.1H562c0 .4.1.8.2 1.1.1.3.2.5.4.8.2.2.4.4.7.5.3.1.5.2.8.2.3 0 .6 0 .8-.1.2-.1.4-.1.5-.2.2-.1.3-.2.4-.2.1-.1.2-.1.3-.1.1 0 .2 0 .2.1l.3.4c-.1.2-.3.3-.5.4-.3.2-.5.3-.6.3-.3.1-.5.1-.7.2-.3 0-.5.1-.7.1-.5 0-.9-.1-1.3-.2s-.7-.4-1-.7c-.3-.3-.5-.7-.7-1.1-.2-.4-.2-.9-.2-1.5 0-.5.1-.9.2-1.3s.4-.8.6-1c.3-.3.6-.5 1-.7.4-.2.8-.2 1.3-.2.3-.2.6-.2 1 0zm-2.4 1.1c-.3.3-.5.8-.6 1.4h3.6c0-.3 0-.5-.1-.7-.1-.3-.2-.5-.3-.6-.1-.2-.3-.3-.5-.4-.2-.1-.4-.1-.7-.1-.7-.1-1.1.1-1.4.4zm-29 14.4h-.6c-.2 0-.3-.1-.3-.2l-.1-1.2c-.7-.2-1.4-.4-2-.4-1 0-1.8.3-2.4 1-.6.7-.9 1.6-.9 2.7 0 .7.1 1.4.4 1.9.3.6.6 1 1.1 1.3.5.3 1.1.5 1.7.5.5 0 .9-.1 1.3-.2s.7-.3 1.1-.6c.1-.1.2-.1.2-.1.1 0 .1 0 .2.1l.5.5c-.8.9-1.9 1.4-3.4 1.4-.9 0-1.7-.2-2.4-.6-.7-.4-1.2-1-1.5-1.7-.4-.7-.5-1.5-.5-2.4 0-1.4.4-2.5 1.3-3.4.9-.9 2-1.3 3.5-1.3.7 0 1.6.2 2.8.7v2zm5.1.1c.4.2.7.4 1 .7.3.3.5.6.6 1.1.1.4.2.9.2 1.4s-.1 1-.2 1.4c-.1.4-.4.8-.6 1.1-.3.3-.6.5-1 .7-.4.2-.8.2-1.3.2s-.9-.1-1.3-.2c-.4-.2-.7-.4-1-.7-.3-.3-.5-.6-.6-1.1-.1-.4-.2-.8-.2-1.4s.1-1 .2-1.4c.2-.4.4-.8.6-1.1.3-.3.6-.5 1-.7.4-.2.8-.2 1.3-.2s.9.1 1.3.2zm.1 5c.3-.5.5-1.1.5-1.8 0-.8-.2-1.4-.5-1.8-.3-.4-.8-.6-1.5-.6-.3 0-.6.1-.9.2-.2.1-.4.3-.6.5-.2.2-.3.5-.4.8-.1.3-.1.7-.1 1.1 0 .3 0 .7.1 1 .1.3.2.6.4.8.1.2.3.4.6.5.3.1.6.2.9.2.7-.2 1.2-.5 1.5-.9zm6.7-4.9v1.7h-.5c-.1 0-.2-.1-.2-.2l-.1-.9c-.4-.1-.7-.1-1-.1-.4 0-.7.1-.9.3-.2.2-.3.4-.3.6 0 .2.1.4.2.5.2.2.4.4.8.5l.4.1c.1 0 .2.1.4.1l.6.2c.2.1.4.2.5.3.4.3.5.7.5 1.1 0 .6-.2 1.1-.6 1.5-.5.4-1 .6-1.7.6s-1.4-.1-2.1-.4v-1.7h.5c.1 0 .2.1.2.2l.1.8c.3.2.8.3 1.3.3.4 0 .8-.1 1-.3.2-.2.3-.4.3-.7 0-.3-.1-.4-.2-.5-.1-.1-.3-.2-.4-.3-.2-.1-.4-.2-.5-.2-.6-.2-1-.3-1.2-.4-.2-.1-.4-.2-.6-.4-.4-.3-.5-.7-.5-1.2s.2-1 .6-1.3c.4-.4 1-.6 1.8-.6.4.1.9.2 1.6.4zm2.3 6c-.3-.3-.4-.7-.4-1.2v-4h-.8c-.1 0-.1 0-.2-.1 0 0-.1-.1-.1-.2v-.5l1.1-.1.3-2c0-.1 0-.1.1-.2 0 0 .1-.1.2-.1h.6v2.3h1.9v.8h-1.9v4c0 .3.1.5.2.6.1.1.3.2.5.2.1 0 .2 0 .3-.1.1 0 .2-.1.2-.1s.1 0 .1-.1c0 0 .1 0 .1-.1.1 0 .1-.1.1-.1.1 0 .1 0 .2.1l.3.5c-.2.2-.5.3-.7.4-.3.1-.6.2-.9.2-.5.3-.9.1-1.2-.2z"/><path d="M577 175.9h-77.2c-2.4 0-4.3-1.9-4.3-4.3V155l-8.7-11.2c-.9-1.2-.1-2.9 1.4-2.9H577c2.4 0 4.3 1.9 4.3 4.3v26.3c.1 2.4-1.9 4.4-4.3 4.4z" fill="#ed1558"/><path class="st17" d="M510.5 147.9h-.6c-.2 0-.2-.1-.3-.2l-.1-1H506v3.1h3.4v1H506v3.2h3.5l.1-.9c0-.1.1-.2.3-.2h.6v2.2h-6.7v-.5c0-.1.1-.2.2-.2l.7-.1v-7.4c-.4-.1-.7-.1-.7-.2-.1 0-.2-.1-.2-.2v-.5h6.7v1.9zm11.6 1c0 .1-.1.2-.2.2h-.6l-1.8 5.6h-.9c-.1 0-.2-.1-.2-.2l-1.5-4.5c0-.1-.1-.2-.1-.3v-.2.4l-.1.3-1.5 4.5c-.1.1-.1.2-.3.2h-.9l-1.8-5.7h-.2c-.1 0-.2 0-.3-.1s-.1 0-.2 0-.2-.1-.2-.2v-.5h2.9v.5c0 .1-.1.2-.2.2s-.2 0-.3.1l-.4.1 1 3.5c0 .1 0 .2.1.2v.2c.1.3.1.4.1.5 0-.1.1-.4.3-.9l1.4-4.3c.1-.2.2-.2.3-.2h.5c.2 0 .3.1.3.2l1.4 4.3.2.9c.1-.3.1-.6.2-.9l1.1-3.5s-.3 0-.8-.1c-.1 0-.2-.1-.2-.2v-.5h2.9v.4zm4.6-.4c.3.1.6.3.9.6.3.3.5.6.6.9.1.4.2.8.2 1.2 0 .2 0 .3-.1.4 0 .1-.1.1-.2.1h-4.4c0 .4.1.8.2 1.1.1.3.2.5.4.8.2.2.4.4.7.5.3.1.5.2.8.2.3 0 .6 0 .8-.1.2-.1.4-.1.5-.2.2-.1.3-.2.4-.2.1-.1.2-.1.3-.1.1 0 .2 0 .2.1l.3.4c-.1.2-.3.3-.5.4-.3.2-.5.3-.6.3-.3.1-.5.1-.7.2-.3 0-.5.1-.7.1-.5 0-.9-.1-1.3-.2s-.7-.4-1-.7c-.3-.3-.5-.7-.7-1.1-.2-.4-.2-.9-.2-1.5 0-.5.1-.9.2-1.3s.4-.8.6-1c.3-.3.6-.5 1-.7.4-.2.8-.2 1.3-.2.3-.2.7-.2 1 0zm-2.3 1.1c-.3.3-.5.8-.6 1.4h3.6c0-.3 0-.5-.1-.7-.1-.3-.2-.5-.3-.6-.1-.2-.3-.3-.5-.4-.2-.1-.4-.1-.7-.1-.7-.1-1.1.1-1.4.4zm13.4 2.5c0 .9-.3 1.6-.8 2.1-.6.6-1.3.8-2.3.8-.4 0-.8 0-1.3-.1-.3-.1-.7-.1-1-.2l-.4-.1v-2.3h.6c.1 0 .2.1.3.2 0 .1 0 .3.1.6v.6c.7.2 1.2.4 1.6.4.4 0 .7 0 1-.1.3-.1.5-.2.6-.4.3-.3.5-.7.5-1.2s-.2-.9-.7-1.1c-.2-.1-.4-.2-.7-.3-.9-.3-1.5-.5-1.6-.5-.3-.1-.5-.3-.7-.5-.5-.4-.7-1-.7-1.7s.2-1.3.7-1.8c.5-.5 1.2-.8 2.1-.8.9 0 1.8.2 2.6.5v2.1h-.7c-.2 0-.2-.1-.3-.2v-.3c0-.2 0-.4-.1-.9-.6-.2-1.1-.2-1.5-.2-.6 0-1 .1-1.3.4-.3.3-.4.6-.4 1 0 .5.2.8.7 1.1.2.1.4.2.7.3.8.3 1.3.5 1.6.6.9.3 1.4 1 1.4 2zm1.9 2.5c-.3-.3-.4-.7-.4-1.2v-4h-.8c-.1 0-.1 0-.2-.1 0 0-.1-.1-.1-.2v-.5l1.1-.1.3-2c0-.1 0-.1.1-.2 0 0 .1-.1.2-.1h.6v2.3h1.9v.8h-1.9v4c0 .3.1.5.2.6.1.1.3.2.5.2.1 0 .2 0 .3-.1.1 0 .2-.1.2-.1s.1 0 .1-.1c0 0 .1 0 .1-.1.1 0 .1-.1.1-.1.1 0 .1 0 .2.1l.3.5c-.2.2-.5.3-.7.4-.3.1-.6.2-.9.2-.5.2-.9.1-1.2-.2zm7.8-6.1c.4.2.7.4 1 .7.3.3.5.6.6 1.1.1.4.2.9.2 1.4s-.1 1-.2 1.4c-.1.4-.4.8-.6 1.1-.3.3-.6.5-1 .7-.4.2-.8.2-1.3.2s-.9-.1-1.3-.2c-.4-.2-.7-.4-1-.7-.3-.3-.5-.6-.6-1.1-.1-.4-.2-.8-.2-1.4s.1-1 .2-1.4c.2-.4.4-.8.6-1.1.3-.3.6-.5 1-.7.4-.2.8-.2 1.3-.2s.9 0 1.3.2zm.2 5c.3-.5.5-1.1.5-1.8 0-.8-.2-1.4-.5-1.8-.3-.4-.8-.6-1.5-.6-.3 0-.6.1-.9.2-.2.1-.4.3-.6.5-.2.2-.3.5-.4.8-.1.3-.1.7-.1 1.1 0 .3 0 .7.1 1 .1.3.2.6.4.8.1.2.3.4.6.5.3.1.6.2.9.2.7-.3 1.2-.5 1.5-.9zm6.4-5.3c.3 0 .6.1.9.2l-.1.9c0 .1-.1.2-.2.2s-.2 0-.3-.1c-.1 0-.3-.1-.5-.1-.8 0-1.3.5-1.7 1.4v3.3l.7.1c.1 0 .2.1.2.2v.5h-3v-.5c0-.1.1-.2.2-.2l.7-.1v-4.7c-.4-.1-.7-.1-.7-.2-.1 0-.2-.1-.2-.2v-.5h1.6c.1 0 .2 0 .2.1 0 0 .1.1.1.2l.1 1c.5-1 1.2-1.5 2-1.5zm5.6.3c.3.1.6.3.9.6.3.3.5.6.6.9.1.4.2.8.2 1.2 0 .2 0 .3-.1.4 0 .1-.1.1-.2.1h-4.4c0 .4.1.8.2 1.1.1.3.2.5.4.8.2.2.4.4.6.5.3.1.5.2.8.2.3 0 .6 0 .8-.1.2-.1.4-.1.5-.2.2-.1.3-.2.4-.2.1-.1.2-.1.3-.1.1 0 .2 0 .2.1l.3.4c-.1.2-.3.3-.5.4-.3.2-.5.3-.6.3-.3.1-.5.1-.7.2-.3 0-.5.1-.7.1-.5 0-.9-.1-1.3-.2s-.7-.4-1-.7c-.3-.3-.5-.7-.6-1.1-.2-.4-.2-.9-.2-1.5 0-.5.1-.9.2-1.3s.4-.8.6-1c.3-.3.6-.5 1-.7.4-.2.8-.2 1.3-.2.3-.2.7-.2 1 0zm-2.4 1.1c-.3.3-.5.8-.6 1.4h3.6c0-.3 0-.5-.1-.7-.1-.3-.2-.5-.3-.6-.1-.2-.3-.3-.5-.4-.2-.1-.4-.1-.7-.1-.6-.1-1.1.1-1.4.4zm9.8 4.4l.8.2c.1 0 .2.1.2.2v.6H565v-.6c0-.1.1-.2.2-.2l.8-.1v-7.4l-.8-.2c-.1 0-.2-.1-.2-.2v-.5h3.1v.5c0 .1-.1.2-.2.2l-.8.1v7.4zm3 .6c-.3-.3-.4-.7-.4-1.2v-4h-.8c-.1 0-.1 0-.2-.1 0 0-.1-.1-.1-.2v-.5l1.1-.1.3-2c0-.1 0-.1.1-.2 0 0 .1-.1.2-.1h.6v2.3h1.9v.8h-1.9v4c0 .3.1.5.2.6.1.1.3.2.5.2.1 0 .2 0 .3-.1.1 0 .2-.1.2-.1s.1 0 .1-.1c0 0 .1 0 .1-.1.1 0 .1-.1.1-.1.1 0 .1 0 .2.1l.3.5c-.2.2-.5.3-.7.4-.3.1-.6.2-.9.2-.5.2-.9.1-1.2-.2zm-48 13.1c0 .9-.3 1.6-.8 2.1-.6.6-1.3.8-2.3.8-.4 0-.8 0-1.3-.1-.3-.1-.7-.1-1-.2l-.4-.1v-2.3h.6c.1 0 .2.1.3.2 0 .1 0 .3.1.6v.6c.7.2 1.2.4 1.6.4s.7 0 1-.1c.3-.1.5-.2.6-.4.3-.3.5-.7.5-1.2s-.2-.9-.7-1.1c-.2-.1-.4-.2-.7-.3-.9-.3-1.5-.5-1.6-.5-.3-.1-.5-.3-.7-.5-.5-.4-.7-1-.7-1.7s.2-1.3.7-1.8c.5-.5 1.2-.8 2.1-.8.9 0 1.8.2 2.6.5v2.1h-.6c-.2 0-.2-.1-.3-.2v-.3c0-.2 0-.4-.1-.9-.6-.2-1.1-.2-1.5-.2-.6 0-1 .1-1.3.4-.3.3-.4.6-.4 1 0 .5.2.8.7 1.1.2.1.4.2.7.3.8.3 1.3.5 1.6.6.9.3 1.3 1 1.3 2zm6.6 2.1s.1.1.1.2v.6h-1.4c-.1 0-.2 0-.3-.1-.1 0-.1-.1-.1-.2l-.1-.6-.5.4c-.1.1-.3.2-.5.3-.2.1-.4.2-.6.2-.2 0-.4.1-.7.1-.2 0-.5 0-.7-.1-.3-.1-.5-.2-.6-.3-.2-.1-.3-.3-.4-.5-.1-.2-.1-.5-.1-.8 0-.3.1-.5.2-.8.2-.3.4-.5.7-.7.3-.2.8-.4 1.2-.5.5-.1 1.1-.2 1.9-.2v-.5c0-.5-.1-.9-.3-1.2-.2-.3-.5-.4-1-.4-.3 0-.5 0-.7.1-.2.1-.4.2-.5.2-.1 0-.1.1-.2.1s-.1.1-.2.1c-.1.1-.2.1-.3.1-.1 0-.2 0-.2-.1-.1 0-.1-.1-.1-.2l-.2-.4c.3-.3.7-.6 1.2-.8.4-.2.9-.3 1.4-.3.4 0 .7.1 1 .2.3.1.5.3.7.5.2.2.3.5.4.8.1.3.1.6.1 1v3.3c.4.1.6.1.7.1 0 .3.1.4.1.4zm-3.3-2.1l-.9.3c-.2.1-.4.2-.5.4-.1.2-.2.3-.2.5 0 .1 0 .3.1.4.1.1.1.2.2.3.1.1.2.1.3.2.1 0 .3.1.4.1.2 0 .4 0 .5-.1.2 0 .3-.1.5-.2.1-.1.3-.2.4-.3l.4-.4v-1.4c-.4.1-.8.1-1.2.2zm11.2-3.2c0 .1-.1.2-.2.2H536.1l-.4.1-2.3 5.7h-1.1l-2.3-5.7c-.1 0-.2-.1-.4-.1l-.3-.1c-.1 0-.2-.1-.2-.2v-.4h3v.6c0 .1-.1.2-.2.2s-.2 0-.3.1c-.1 0-.3 0-.4.1l1.4 3.5c.1.2.1.5.2.9.1-.5.2-.8.3-.9l1.4-3.5-.7-.1c-.1 0-.2-.1-.2-.2v-.7h2.9v.5zm3.6 5.3s.1.1.1.2v.6h-3v-.6c0-.1 0-.1.1-.2l.1-.1.8-.1v-4.7l-.8-.1c-.1 0-.1 0-.1-.1 0 0-.1-.1-.1-.2v-.5h2.1v5.6l.7.1c.1 0 .1.1.1.1zm-2.2-7.6c0-.1-.1-.2-.1-.3 0-.1 0-.2.1-.3.1-.1.1-.2.2-.3.1-.1.2-.1.3-.2.1 0 .2-.1.3-.1.1 0 .2 0 .3.1.1.1.2.1.3.2.1.1.1.2.2.3.1.1.1.2.1.3 0 .1 0 .2-.1.3-.1.1-.1.2-.2.3-.1.1-.2.1-.3.2-.1 0-.2.1-.3.1-.1 0-.2 0-.3-.1-.1-.1-.2-.1-.3-.2s-.1-.2-.2-.3zm7.3 1.7c.7 0 1.3.2 1.6.7.4.5.6 1.1.6 1.8v3.2c.4.1.7.1.7.2.1 0 .2.1.2.2v.6h-2.1v-4.2c0-1.1-.5-1.6-1.4-1.6-.6 0-1.2.3-1.8.9v3.9s.3.1.8.2c.1 0 .2.1.2.2v.5h-3v-.5c0-.1.1-.2.2-.2l.8-.1V165c-.4-.1-.7-.1-.8-.2-.1 0-.2-.1-.2-.2v-.6h1.6c.2 0 .3.1.3.2l.1.7c.6-.7 1.4-1 2.2-1zm7.2.1c.3.1.5.2.7.3h1.8v.4c0 .1-.1.2-.3.3l-.7.1c.1.3.2.6.2.9 0 .3-.1.6-.2.9-.1.3-.3.5-.5.7-.2.2-.5.3-.8.4s-.6.1-1 .1c-.3 0-.6 0-.9-.1l-.3.3c-.1.1-.1.2-.1.3 0 .2.1.3.2.4.1.1.3.1.5.2.3 0 .5.1.7.1.2 0 .4 0 .8.1h.4c.2 0 .3 0 .4.1.3.1.5.1.7.2.2.1.4.2.5.5.1.2.2.4.2.7 0 .3-.1.6-.2.8-.1.2-.3.5-.6.7-.3.2-.6.4-1 .5-.4.1-.8.2-1.3.2s-.9 0-1.3-.1-.7-.2-.9-.4c-.2-.2-.4-.3-.5-.6-.1-.2-.2-.4-.2-.6 0-.3.1-.6.3-.8.2-.2.5-.4.9-.5-.2-.1-.3-.2-.4-.4s-.2-.4-.2-.6c0-.1 0-.1.1-.3 0-.1.1-.2.2-.3l.3-.3.4-.2c-.3-.2-.6-.4-.8-.7s-.3-.7-.3-1.1c0-.3.1-.6.2-.9.1-.3.3-.5.5-.7.2-.2.5-.3.8-.4.3-.1.6-.1 1-.1.2-.2.5-.2.7-.1zm1.2 6.5c-.1-.1-.2-.2-.4-.2-.2-.1-.3-.1-.5-.1-.3 0-.5-.1-.7-.1h-.7s-.3 0-.7-.1c-.3.1-.5.3-.6.4-.2.2-.2.4-.2.6 0 .1 0 .3.1.4.1.1.2.2.4.3.2.1.4.2.6.2.2.1.5.1.8.1.3 0 .5 0 .8-.1.2 0 .4-.1.6-.2.2-.1.3-.2.4-.4.1-.1.1-.3.1-.5.1 0 0-.2 0-.3zm-1.3-3.2c.2-.1.3-.2.5-.3.1-.1.2-.3.3-.4.1-.2.1-.4.1-.5 0-.4-.1-.7-.4-1-.2-.2-.6-.4-1.1-.4-.5 0-.8.1-1.1.4-.2.2-.4.6-.4 1 0 .2 0 .4.1.5.1.2.2.3.3.4.1.1.3.2.5.3.2.1.4.1.6.1.2 0 .4-.1.6-.1zm7.7-3.1v1.7h-.5c-.1 0-.2-.1-.2-.2l-.1-.9c-.4-.1-.7-.1-1-.1-.4 0-.7.1-.9.3-.2.2-.4.4-.4.6 0 .2.1.4.2.5.2.2.4.4.8.5l.4.1c.1 0 .2.1.4.1l.6.2c.2.1.4.2.5.3.4.3.5.7.5 1.1 0 .6-.2 1.1-.6 1.5-.5.4-1 .6-1.7.6s-1.4-.1-2.1-.4v-1.7h.5c.1 0 .2.1.2.2l.1.8c.3.2.8.3 1.3.3.4 0 .8-.1 1-.3.2-.2.3-.4.3-.7 0-.3-.1-.4-.2-.5-.1-.1-.3-.2-.4-.3-.2-.1-.4-.2-.5-.2-.6-.2-1-.3-1.2-.4-.2-.1-.4-.2-.6-.4-.4-.3-.5-.7-.5-1.2s.2-1 .6-1.3c.4-.4 1-.6 1.8-.6.4.1 1 .2 1.7.4z"/><path d="M577 231h-77.2c-2.4 0-4.3-1.9-4.3-4.3v-16.6l-8.7-11.2c-.9-1.2-.1-2.9 1.4-2.9H577c2.4 0 4.3 1.9 4.3 4.3v26.3c.1 2.5-1.9 4.4-4.3 4.4z" fill="#f58220"/><path class="st17" d="M510.5 203h-.6c-.2 0-.2-.1-.3-.2l-.1-1H506v3.1h3.4v1H506v3.2h3.5l.1-.9c0-.1.1-.2.3-.2h.6v2.2h-6.7v-.5c0-.1.1-.2.2-.2l.7-.1V202c-.4-.1-.7-.1-.7-.2-.1 0-.2-.1-.2-.2v-.5h6.7v1.9zm11.6 1.1c0 .1-.1.2-.2.2h-.6l-1.8 5.6h-.9c-.1 0-.2-.1-.2-.2l-1.5-4.5c0-.1-.1-.2-.1-.3v-.2.4l-.1.3-1.5 4.5c-.1.1-.1.2-.3.2h-.9l-1.8-5.7h-.2c-.1 0-.2 0-.3-.1s-.1 0-.2 0-.2-.1-.2-.2v-.5h2.9v.5c0 .1-.1.2-.2.2s-.2 0-.3.1l-.4.1 1 3.5c0 .1 0 .2.1.2v.2c.1.3.1.4.1.5 0-.1.1-.4.3-.9l1.4-4.3c.1-.2.2-.2.3-.2h.5c.2 0 .3.1.3.2l1.4 4.3.2.9c.1-.3.1-.6.2-.9l1.1-3.5s-.3 0-.8-.1c-.1 0-.2-.1-.2-.2v-.5h2.9v.4zm4.6-.5c.3.1.6.3.9.6.3.3.5.6.6.9.1.4.2.8.2 1.2 0 .2 0 .3-.1.4 0 .1-.1.1-.2.1h-4.4c0 .4.1.8.2 1.1.1.3.2.5.4.8.2.2.4.4.7.5.3.1.5.2.8.2.3 0 .6 0 .8-.1.2-.1.4-.1.5-.2.2-.1.3-.2.4-.2.1-.1.2-.1.3-.1.1 0 .2 0 .2.1l.3.4c-.1.2-.3.3-.5.4-.3.2-.5.3-.6.3-.3.1-.5.1-.7.2-.3 0-.5.1-.7.1-.5 0-.9-.1-1.3-.2s-.7-.4-1-.7c-.3-.3-.5-.7-.7-1.1-.2-.4-.2-.9-.2-1.5 0-.5.1-.9.2-1.3s.4-.8.6-1c.3-.3.6-.5 1-.7.4-.2.8-.2 1.3-.2.3-.2.7-.1 1 0zm-2.3 1.1c-.3.3-.5.8-.6 1.4h3.6c0-.3 0-.5-.1-.7-.1-.3-.2-.5-.3-.6-.1-.2-.3-.3-.5-.4-.2-.1-.4-.1-.7-.1-.7 0-1.1.1-1.4.4zm13.4 2.6c0 .9-.3 1.6-.8 2.1-.6.6-1.3.8-2.3.8-.4 0-.8 0-1.3-.1-.3-.1-.7-.1-1-.2l-.4-.1v-2.3h.6c.1 0 .2.1.3.2 0 .1 0 .3.1.6v.6c.7.2 1.2.4 1.6.4.4 0 .7 0 1-.1.3-.1.5-.2.6-.4.3-.3.5-.7.5-1.2s-.2-.9-.7-1.1c-.2-.1-.4-.2-.7-.3-.9-.3-1.5-.5-1.6-.5-.3-.1-.5-.3-.7-.5-.5-.4-.7-1-.7-1.7s.2-1.3.7-1.8c.5-.5 1.2-.8 2.1-.8.9 0 1.8.2 2.6.5v2.1h-.7c-.2 0-.2-.1-.3-.2v-.3c0-.2 0-.4-.1-.9-.6-.2-1.1-.2-1.5-.2-.6 0-1 .1-1.3.4-.3.3-.4.6-.4 1 0 .5.2.8.7 1.1.2.1.4.2.7.3.8.3 1.3.5 1.6.6.9.3 1.4 1 1.4 2zm1.9 2.4c-.3-.3-.4-.7-.4-1.2v-4h-.8c-.1 0-.1 0-.2-.1 0 0-.1-.1-.1-.2v-.5l1.1-.1.3-2c0-.1 0-.1.1-.2 0 0 .1-.1.2-.1h.6v2.3h1.9v.8h-1.9v4c0 .3.1.5.2.6.1.1.3.2.5.2.1 0 .2 0 .3-.1.1 0 .2-.1.2-.1s.1 0 .1-.1c0 0 .1 0 .1-.1.1 0 .1-.1.1-.1.1 0 .1 0 .2.1l.3.5c-.2.2-.5.3-.7.4-.3.1-.6.2-.9.2-.5.3-.9.1-1.2-.2zm7.8-6.1c.4.2.7.4 1 .7.3.3.5.6.6 1.1.1.4.2.9.2 1.4s-.1 1-.2 1.4c-.1.4-.4.8-.6 1.1-.3.3-.6.5-1 .7-.4.2-.8.2-1.3.2s-.9-.1-1.3-.2c-.4-.2-.7-.4-1-.7-.3-.3-.5-.6-.6-1.1-.1-.4-.2-.8-.2-1.4s.1-1 .2-1.4c.2-.4.4-.8.6-1.1.3-.3.6-.5 1-.7.4-.2.8-.2 1.3-.2s.9.1 1.3.2zm.2 5c.3-.5.5-1.1.5-1.8 0-.8-.2-1.4-.5-1.8-.3-.4-.8-.6-1.5-.6-.3 0-.6.1-.9.2-.2.1-.4.3-.6.5-.2.2-.3.5-.4.8-.1.3-.1.7-.1 1.1 0 .3 0 .7.1 1 .1.3.2.6.4.8.1.2.3.4.6.5.3.1.6.2.9.2.7-.2 1.2-.4 1.5-.9zm6.4-5.2c.3 0 .6.1.9.2l-.1.9c0 .1-.1.2-.2.2s-.2 0-.3-.1c-.1 0-.3-.1-.5-.1-.8 0-1.3.5-1.7 1.4v3.3l.7.1c.1 0 .2.1.2.2v.5h-3v-.5c0-.1.1-.2.2-.2l.7-.1v-4.7c-.4-.1-.7-.1-.7-.2-.1 0-.2-.1-.2-.2v-.5h1.6c.1 0 .2 0 .2.1 0 0 .1.1.1.2l.1 1c.5-1 1.2-1.5 2-1.5zm5.6.2c.3.1.6.3.9.6.3.3.5.6.6.9.1.4.2.8.2 1.2 0 .2 0 .3-.1.4 0 .1-.1.1-.2.1h-4.4c0 .4.1.8.2 1.1.1.3.2.5.4.8.2.2.4.4.6.5.3.1.5.2.8.2.3 0 .6 0 .8-.1.2-.1.4-.1.5-.2.2-.1.3-.2.4-.2.1-.1.2-.1.3-.1.1 0 .2 0 .2.1l.3.4c-.1.2-.3.3-.5.4-.3.2-.5.3-.6.3-.3.1-.5.1-.7.2-.3 0-.5.1-.7.1-.5 0-.9-.1-1.3-.2s-.7-.4-1-.7c-.3-.3-.5-.7-.6-1.1-.2-.4-.2-.9-.2-1.5 0-.5.1-.9.2-1.3s.4-.8.6-1c.3-.3.6-.5 1-.7.4-.2.8-.2 1.3-.2.3-.2.7-.1 1 0zm-2.4 1.1c-.3.3-.5.8-.6 1.4h3.6c0-.3 0-.5-.1-.7-.1-.3-.2-.5-.3-.6-.1-.2-.3-.3-.5-.4-.2-.1-.4-.1-.7-.1-.6 0-1.1.1-1.4.4zm9.8 4.4l.8.2c.1 0 .2.1.2.2v.6H565v-.6c0-.1.1-.2.2-.2l.8-.1v-7.4l-.8-.2c-.1 0-.2-.1-.2-.2v-.5h3.1v.5c0 .1-.1.2-.2.2l-.8.1v7.4zm3 .6c-.3-.3-.4-.7-.4-1.2v-4h-.8c-.1 0-.1 0-.2-.1 0 0-.1-.1-.1-.2v-.5l1.1-.1.3-2c0-.1 0-.1.1-.2 0 0 .1-.1.2-.1h.6v2.3h1.9v.8h-1.9v4c0 .3.1.5.2.6.1.1.3.2.5.2.1 0 .2 0 .3-.1.1 0 .2-.1.2-.1s.1 0 .1-.1c0 0 .1 0 .1-.1.1 0 .1-.1.1-.1.1 0 .1 0 .2.1l.3.5c-.2.2-.5.3-.7.4-.3.1-.6.2-.9.2-.5.3-.9.1-1.2-.2zm-36.5 9.4h-.6c-.2 0-.3-.1-.3-.2l-.1-1.2c-.7-.2-1.4-.4-2-.4-1 0-1.8.3-2.4 1-.6.7-.9 1.6-.9 2.7 0 .7.1 1.4.4 1.9.3.6.6 1 1.1 1.3.5.3 1.1.5 1.7.5.5 0 .9-.1 1.3-.2s.7-.3 1.1-.6c.1-.1.2-.1.2-.1.1 0 .1 0 .2.1l.5.5c-.8.9-1.9 1.4-3.4 1.4-.9 0-1.7-.2-2.4-.6-.7-.4-1.2-1-1.5-1.7-.4-.7-.5-1.5-.5-2.4 0-1.4.4-2.5 1.3-3.4.9-.9 2-1.3 3.5-1.3.7 0 1.6.2 2.8.6v2.1zm5.1.1c.4.2.7.4 1 .7.3.3.5.6.6 1.1.1.4.2.9.2 1.4 0 .5-.1 1-.2 1.4-.1.4-.4.8-.6 1.1-.3.3-.6.5-1 .7-.4.2-.8.2-1.3.2s-.9-.1-1.3-.2c-.4-.2-.7-.4-1-.7-.3-.3-.5-.6-.6-1.1-.1-.4-.2-.8-.2-1.4 0-.6.1-1 .2-1.4.2-.4.4-.8.6-1.1.3-.3.6-.5 1-.7.4-.2.8-.2 1.3-.2s.9.1 1.3.2zm.1 5c.3-.5.5-1.1.5-1.8s-.2-1.4-.5-1.8c-.3-.4-.8-.7-1.5-.7-.3 0-.6.1-.9.2-.2.1-.4.3-.6.5-.2.2-.3.5-.4.8-.1.3-.1.7-.1 1.1 0 .3 0 .7.1 1 .1.3.2.6.4.8.1.2.3.4.6.5.3.1.6.2.9.2.7-.1 1.2-.3 1.5-.8zm6.7-4.8v1.7h-.5c-.1 0-.2-.1-.2-.2l-.1-.9c-.4-.1-.7-.1-1-.1-.4 0-.7.1-.9.3-.2.2-.3.4-.3.6 0 .2.1.4.2.5.2.2.4.4.8.5l.4.1c.1 0 .2.1.4.1l.6.2c.2.1.4.2.5.3.4.3.5.7.5 1.1 0 .6-.2 1.1-.6 1.5-.5.4-1 .6-1.7.6s-1.4-.1-2.1-.4v-1.7h.5c.1 0 .2.1.2.2l.1.8c.3.2.8.3 1.3.3.4 0 .8-.1 1-.3.2-.2.3-.4.3-.7 0-.3-.1-.4-.2-.5-.1-.1-.3-.2-.4-.3-.2-.1-.4-.2-.5-.2-.6-.2-1-.3-1.2-.4-.2-.1-.4-.2-.6-.4-.4-.3-.5-.7-.5-1.2s.2-1 .6-1.3c.4-.4 1-.6 1.8-.6.4 0 .9.1 1.6.4zm2.3 6c-.3-.3-.4-.7-.4-1.2v-4h-.8c-.1 0-.1 0-.2-.1 0 0-.1-.1-.1-.2v-.5l1.1-.1.3-2c0-.1 0-.1.1-.2 0 0 .1-.1.2-.1h.6v2.3h1.9v.8h-1.9v4c0 .3.1.5.2.6.1.1.3.2.5.2.1 0 .2 0 .3-.1.1 0 .2-.1.2-.1s.1 0 .1-.1c0 0 .1 0 .1-.1.1 0 .1-.1.1-.1.1 0 .1 0 .2.1l.3.5c-.2.2-.5.3-.7.4-.3.1-.6.2-.9.2-.5.2-.9 0-1.2-.2z"/><text transform="translate(-582.263 374.695)"><tspan x="0" y="0" class="st16" font-family="Arvo" font-size="13">Ewe Store It Cost</tspan></text><defs><path id="SVGID_5_" d="M-619.7 358.1h29.3v24.6h-29.3z"/></defs><clipPath id="SVGID_6_"><use xlink:href="#SVGID_5_" overflow="visible"/></clipPath><path d="M-593 375.9l-.2 2.1s-.4 1.2 0 2.6c.4 1.4 0 2 0 2s-.6.6-.9-.8c-.3-1.4-.9-3.4-.4-4.2m-.6 0s-.4 1.2 0 2.6c.4 1.4 0 2 0 2s-.6.6-.9-.8-.9-3.4-.4-4.2m-11.5-.5c-.7.5-1.1 1.3-1.1 1.3s-.8 1-.8 2.5c0 1.4-.7 1.9-.7 1.9s-.8.3-.6-1.1c.2-1.4.3-3.5 1-4.1m-1 .2s-.8 1-.8 2.5c0 1.4-.7 1.9-.7 1.9s-.8.3-.6-1.1c.2-1.4.3-3.5 1-4.1" clip-path="url(#SVGID_6_)" fill="#3e3f42"/><path d="M-590.7 363.8c-.8-1-2.5-.3-2.9-.1-1.6-1.3-3.6-2.1-5.8-2.1-.6 0-1.2.1-1.8.2-1.4.1-3.2.2-4.2-.2-1.6-.6-6.9-4.2-8.9-3.4-2 .8-3 2.2-2.1 5.3.9 3.1 1 3.7 1 3.7s-1.5 8 5.2 11.7c1.8 1.3 4.1 2.1 6.7 2.1h2c4.3 0 8.1-2.3 9.7-5.5.9-1.4 1.5-3.1 1.5-4.9 0-2.1-.7-4.1-2-5.7.9.1 2.4-.2 1.6-1.1" clip-path="url(#SVGID_6_)" fill="#8dc63f"/><defs><path id="SVGID_7_" d="M-614.3 358.3c-2 .8-3 2.2-2.1 5.3.9 3.1 1 3.7 1 3.7s-1.5 8 5.2 11.7c1.8 1.3 4.1 2.1 6.7 2.1h2c4.3 0 8.1-2.3 9.7-5.5.9-1.4 1.5-3.1 1.5-4.9 0-2.1-.7-4.1-2-5.7 1 0 2.4-.3 1.7-1.2-.8-1-2.5-.3-2.9-.1-1.6-1.3-3.6-2.1-5.8-2.1-.6 0-1.2.1-1.8.2-1.4.1-3.2.2-4.2-.2-1.4-.5-5.8-3.5-8.2-3.5-.3 0-.5.1-.8.2"/></defs><clipPath id="SVGID_8_"><use xlink:href="#SVGID_7_" overflow="visible"/></clipPath><path class="st22" d="M-625 368.6h3.1c.5 0 1 0 1.5.1s1 .1 1.6 0c.6-.1 1.1-.2 1.7-.2.6 0 1.2.1 1.9.1 1.1 0 2.3.1 3.4-.3.4-.2.8-.5 1.2-.7.1-.1.3-.2.4-.3.2-.1.4-.3.5-.5.1-.2.2-.5.4-.6.3-.2.4-.8.3-1.1-.2-.4-.6-.6-1-.8-.5-.3-1.1-.6-1.7-.7-.3-.1-.5-.1-.8-.2-.3-.1-.6-.3-.9-.4-.6-.3-1.4-.4-2-.5-1.1-.1-2.2.2-3.2.2h-2c-.7 0-1.5-.1-2.2 0-.8.1-1.5.2-2.2.4-.3.1-.7.2-1 .3-.3.1-.6.3-.9.4v.4c.2-.1.4-.2.7-.3.5-.1.9-.3 1.4-.4.3-.1.5-.1.8-.2.3-.1.8-.1 1.1-.1.3 0 .7 0 1-.1.7-.1 1.4-.2 2.1-.1.5 0 1 .1 1.5.1 1.2 0 2.6-.2 3.8 0 1 .2 1.9.6 2.9.9.4.1.7.3 1 .5l.6.3c.3.2.6.5.7.8.2.3-.1.5-.3.8-.1.2-.3.5-.5.7-.2.2-.5.4-.7.5-.3.1-.6.2-.9.4-.4.2-.6.4-1 .4h-2.5c-.4.1-.8.1-1.2.1-.6 0-1.2.1-1.8.1-.5 0-1.1.2-1.6.1-.3 0-.6-.2-.9-.2h-3.5c-.4 0-.9 0-1.4-.1-.4-.1-.6-.4-.9-.5-.1-.1-.2-.1-.4-.2v.5c.5.2 1.1.4 1.9.4-.1 0-.1 0 0 0"/><path class="st22" d="M-623.3 366.1c-.3-.1-.6-.1-.9-.2-.2 0-.3-.1-.3-.4 0-.3.5-.5.6-.5.2-.2.5-.4.7-.6.2-.2.5-.1.8-.1.4.1.9.1 1.3.1.6 0 1.2-.4 1.8-.5.2-.1.5-.1.7-.2.2-.1.4-.1.6-.2.3 0 .5 0 .8.1.3.1.6.2.8.2.6.2 1.2.5 1.8.5.4 0 .9-.1 1.3-.1.3 0 .5-.1.8.1.3.2.5.4.7.6.1.1.5.3.6.5-.1.3-.1.3-.3.4-.3.1-.6.1-.9.2-.3 0-.5.1-.8.2h-.7c-.2 0-.3 0-.5.1-.3.1-.6.2-.9.2h-.1c-.7.1-1.4.2-2.1.1h-1c-.2 0-.4-.1-.6-.2-.5-.1-.9 0-1.4 0-.3 0-.7-.1-1-.2-.3-.1-.7 0-1-.1-.3.1-.6 0-.8 0m7.7.7h.5-.5m-8.1-.5c.4.1.9.2 1.3.3.3 0 .5 0 .8.2.2.1.4.2.7.2.5.1 1 0 1.5-.1h1.1c.1 0 .2.1.2.1.1 0 .2-.1.2-.1h1.1c.5 0 1 .1 1.5.1.2 0 .4-.1.7-.2.3-.1.5-.2.8-.2.4 0 .9-.2 1.3-.3.2-.1.4-.1.6-.1.2 0 .4.1.5-.2.2-.3 0-.7-.2-.8l-.3-.3c-.2-.2-.5-.4-.8-.6-.2-.2-.4-.4-.7-.4h-.5c-.4 0-.7-.2-1.1-.2-.5 0-1.1-.1-1.6-.1-.4 0-.7-.2-1.1-.3h-1.2c-.4 0-.7.3-1.1.3-.5 0-1.1.1-1.6.1-.4 0-.7.2-1.1.2h-.5c-.3 0-.5.2-.7.4-.3.2-.5.3-.8.6l-.3.3c-.2.2-.4.5-.2.8.1.2.4.1.5.2.6 0 .8.1 1 .1m22 6.5c.3 0 .6 0 .9-.1.9-.1 1.8-.1 2.6-.2.1 0 .2 0 .3-.1.1-.1 0-.1-.1-.1-.2-.1-.5 0-.7-.1h-2.8c-.2 0-.4 0-.5.1-.1 0-.2 0-.3.1h-.7c-.2.1 0 .1.1.1.3 0 .6.1.9.1.1.1.2.2.3.2"/><path class="st22" d="M-602.7 372.1c.4 0 .8-.3 1.2-.4.3-.1.6 0 .9.1.2.1.5.1.7.1.7.1 1.5-.1 2.3-.1.2 0 .4.1.7.1h1.8c.2 0 .3 0 .4.1 0 0 .2.1.2.2s-.3.1-.4.1c-.2 0-.5 0-.8.1-.2 0-.4.1-.6.2-.8.2-1.7.1-2.5.1-.9 0-1.7.1-2.6.2h-1.2c-.4-.1-.7-.2-1.1-.2h-.7c-.1 0-.2 0-.2-.1.2-.2.4-.3.7-.3.3 0 .7-.1 1.2-.2m-2.3 1.1c.2.1.4 0 .6.1.8.1 1.5.1 2.3.1.8-.1 1.6-.2 2.4-.2.7-.1 1.4-.1 2.1-.1.9 0 1.8-.2 2.7-.4.1 0 .2 0 .4-.1.1 0 .2 0 .3-.1.1 0 .2-.1.3-.1h1.5s.1 0 .1-.1-.1-.1-.2-.1h-.7c-.1 0-.1 0-.2-.1l-.1-.1c-.2-.1-.4 0-.5 0-.4 0-.8-.2-1.2-.2-.4-.1-.8 0-1.1 0-.8-.1-1.6 0-2.4 0-.7 0-1.3-.3-2-.2-.3 0-.7 0-.9.1-.3.1-.5.3-.8.3-.2.1-.3.1-.5.1-.3 0-.5.1-.8.2-.4.2-1 .3-1.3.6-.6-.1-.4.2 0 .3m2.7-14.9c.1 0 .1.1.1.1h.4c.3 0 .5-.1.8 0 .3 0 .5.1.8.1.2.1.4 0 .6 0 .3 0 .6-.1.9-.1h1.2c.6.1 1.1.2 1.7.2.4 0 .7.1 1.1.1.4 0 .9.1 1.3.2.6.1 1.2.2 1.9.1.6 0 1.2-.2 1.8-.3.1 0 1.1 0 .9-.3-.2 0-.5 0-.7.1-.4.1-.8.1-1.2.1-.4 0-.8.1-1.1 0-.3 0-.6 0-.9-.1-.7-.1-1.3-.4-1.9-.4-.2 0-.3 0-.5-.1-.1 0-.2 0-.4-.1-.1 0-.2-.1-.4-.1h-1.4c-.2 0-.3-.1-.5-.1h-.6c-.5 0-1 0-1.5.1-.3 0-.6.1-.9.1-.5.3-1 .4-1.5.4m-22.2 3.5c.6-.1 1.2-.1 1.7-.2 2-.2 4.1-.4 6.1 0 .7.1 1.3.2 2 .3 1.1.1 2.2.7 3.2 1 1 .3 2 .7 3 1 .5.2.9.4 1.3.6.4.2.9.4 1.4.6l1.5.6c1.8.6 3.8-.1 5.6-.2h2.6c.2.1.4.1.6.2.5.1 1.1 0 1.6 0 .4 0 3.8.4 3.5-.5h-.1c-.2-.2-.6-.1-.9-.1h-1c-.5 0-.9-.1-1.3-.3l-.9-.3c-.5-.2-.9-.5-1.4-.7-1.2-.4-2.5-.1-3.7-.1-.6 0-1.2.2-1.8.2-.5 0-1.2 0-1.6-.2-.5-.2-1-.4-1.5-.5-.4-.1-.9-.1-1.3-.4-.3-.3-.5-.7-.7-.9-.2-.2-.6-.4-.8-.7-.3-.2-.3-.3-.1-.6.2-.3.4-.6.8-.7.8-.3 1.6 0 2.4.1.8.1 1.6.2 2.4.2.8 0 1.5-.2 2.3-.3.6-.1 1.2-.1 1.7.1l1.2.3c.2 0 .3.1.5.1.1 0 .3.1.4.1.3 0 .5-.1.8-.1h1.3c0-.1-.6-.2-.7-.2-.3 0-.5 0-.7.1-.2 0-.4.1-.6.1-.2 0-.5-.1-.7-.2-.4-.1-.8-.3-1.2-.4-.7-.2-1.5-.1-2.2 0-.7 0-1.3.1-2 .3-.5.1-1.2 0-1.7-.1-.4-.1-.7-.2-1-.2-.7-.1-1.1-.5-1.8-.3-.6.2-1.1.6-1.7 1-.2.1-.4.3-.7.4-.2.1-.6.1-.7.3-.3.3.4.5.6.5.6.1 1.1.2 1.6.5.3.2.6.5.9.8.4.4.7.6 1.4.6.5.1 1.1.2 1.5.5.3.2.6.3 1 .4h.9c.7 0 1.5-.1 2.2-.2.8-.1 1.6-.1 2.4 0 .4 0 .9.1 1.2.2.5.2.8.7 1.4.8.5.1 1 .2 1.6.3h1.6c.1 0 .4 0 .4.1s-.1.2-.2.2h-2.5c-.3 0-.6-.1-1-.1h-.7c-.2 0-.4-.1-.7-.1-.3-.1-.5 0-.8-.1h-.7c-.8 0-1.5 0-2.3.1-1.2.1-2.4.1-3.6.1-.8 0-1.8-.1-2.6-.4-.7-.3-1.3-.7-2-.9-.5-.2-.9-.4-1.4-.5-.4-.1-.6-.3-1-.5-.9-.4-1.9-.5-2.9-.8-.6-.2-1.3-.3-1.9-.5-.6-.2-1.2-.4-1.9-.5-.7-.2-1.3-.3-2.1-.3-.9-.1-1.4.1-2.3.3-.3.1-.6.1-1 .1s-.8.1-1.3.2h-1.2c-.5.1-1.1.3-1.6.5-.3.1-.5.2-.8.2v.2c1.1-.9 1.8-1 2.7-1.1m2.3-2.9c.7.1 1.4 0 2.1-.2.6-.2 1.3-.2 2-.2.9 0 2 0 2.9-.3.4-.1.8-.2 1.2-.2.4 0 .6 0 1-.1s.8-.2 1.2-.4c.5-.2 1-.2 1.4-.4l.6-.3c-.5 0-1 .1-1.5.3-.4.1-.8.1-1.2.2-.6.1-1.2.2-1.8.4-.5.1-1.1.1-1.7.2-.8.1-1.6.1-2.4.1-1.4 0-2.8.2-4.2.1-.7-.1-1.5-.1-2.2-.1h-1.9v.2c.9.1 1.8 0 2.6.1.5.1 1.2.5 1.9.6m13.9 6.5h-.1c0 .3 0 .6-.1.8-.1.3-.9.6-.9.8.4-.1.9-.4 1-.8.2-.2.1-.5.1-.8m-7.3 1.4c.2 0 .3 0 .5-.1h-.4l-.1.1m7.7 13.4c.2-.1.5-.1.7-.1 0-.4-1.2-.2-1.4-.2-.2 0-.5 0-.7.1-.5.1-1 0-1.5.2.3.1.7.1 1 .2.3.1.7.1 1 .1.3-.1.6-.1.9-.3"/><path class="st22" d="M-610.2 380.6c-1.1-.1-2.2-.2-3.4-.2-.3 0-.6-.2-.9-.2-.3-.1-.6-.1-.9-.2.2-.1.6-.1.8-.1h1c.8 0 1.5.1 2.2 0 1.4-.3 2.7-.2 4.1-.2.3 0 .6.1.9.2.4.1.7.4 1 .4-.1.2-.4.1-.6.1-.4 0-.8 0-1.1.1-.5.1-1.1.2-1.6.3-.5 0-1-.2-1.5-.2m-7.8-.6c-.5 0-1-.1-1.5 0-.6 0-1.3.1-1.9 0 .1-.2.5-.1.7-.2h.9c.4 0 .8-.2 1.2-.2.4 0 .8-.2 1.2-.1.2 0 1 .1 1 .4 0 .2-.1.2-.2.2-.4 0-.9-.1-1.4-.1m13.5.5c.1 0 .8.1.9-.1-.4 0-.6-.1-1-.3-.2-.1-.4-.1-.6-.2-.4-.1-.7-.3-1-.4-.4-.1-.8 0-1.2 0-1 0-2-.1-3 .1-.2 0-.5 0-.7.1-1 0-2.2.3-3.2 0-.7-.2-1.5-.2-2.2-.3-.5-.1-1 0-1.5 0-.3 0-.5.1-.7.2-.3.1-.5.1-.8.1-.3 0-.5.1-.7.1-.7 0-1.2-.1-1.8.3-.1 0-.3.1-.3.2s.5.1.6.2c.4.1.7 0 1.1.1.4 0 .8.2 1.3.2.4 0 .7-.1 1.1-.1 1 0 2 .1 3 .1.6 0 1.1.2 1.7.3.5.1 1.1 0 1.7 0 .4 0 .7 0 1.1.1.5.1 1.1 0 1.7.1 1 .1 2 0 3-.2.5-.5 1-.5 1.5-.6m5.5-2.5h-.2c-.7-.1-1.4 0-2.1-.1-.2 0-.5-.1-.7-.1-.1 0-.2 0-.3.1h-.6c-.1 0-.3 0-.4.1 0 .1.3.1.4.1.1 0 .3 0 .4.1.1 0 .2.1.3.2.2.1.4.1.6 0 .2 0 .3 0 .5-.1h.3c.2 0 .4-.1.5-.1.2 0 .3 0 .5-.1.2 0 .5 0 .8-.1m-25.5-7.5h1.2c.4 0 .8.2 1.3.2.4 0 .7 0 1 .1.9.2 1.4.4 2.3.3.8-.1 1.3-.1 2.1-.3.6-.2 1.3-.3 1.9-.5.6-.2 1.3-.3 1.9-.5.9-.3 2-.4 2.9-.8.3-.2.6-.4 1-.5.5-.2.9-.4 1.4-.5.7-.2 1.3-.6 2-.9.8-.3 1.8-.4 2.6-.4 1.2 0 2.4 0 3.6.1.8.1 1.5.1 2.3.1 1.4 0 2.8 0 4.2-.4.6-.1 1.1-.1 1.7-.1.7 0 1.3-.1 2-.3 1.2-.3 2.6-.3 3.8-.2.6 0 1.2.2 1.7.3.2 0 .7.2.7-.1-.8-.4-1.9-.4-2.8-.5-.9 0-1.9-.1-2.8 0-1 .1-1.7.6-2.7.6h-1.5c-.5 0-.8.2-1.3.3-.8.2-1.6.2-2.3.2h-2.1c-.9-.1-1.8-.2-2.7-.2-1.8 0-3.4-.1-5.1.3-.9.2-1.5.4-2.3 1-.4.3-.9.7-1.3.9-.4.2-1 .4-1.5.5-1.1.3-2.1.9-3.2 1-.7.1-1.3.1-2 .3-2 .4-4.1.2-6.1 0-.6-.1-1.1-.1-1.7-.2-.9-.1-1.6-.3-2.4-.5v.2c.3.1.5.1.8.2.3 0 .8.3 1.4.3"/><path class="st22" d="M-583.1 379.7c-.4.1-.7.2-1.1.4-.8.3-1.5.6-2.3.8-.4.1-.8.2-1.2.4-.4.1-.9.2-1.3.2-.5 0-1 .1-1.5 0-.4-.1-.8-.2-1.3-.4-.7-.2-1.5-.2-2.3-.2-.4 0-.8-.1-1.1-.2-.4-.1-.8 0-1.2-.1-.3-.1-.7-.3-1-.3l-1.2-.3c-.5-.1-1 0-1.5.1-.9.1-1.8.5-2.6.6-.4.1-.8.2-1.3.2-.2 0-.5 0-.7.1-.1 0-.3.1-.4.1-.6.1-1.6-.4-2.1.1.1.1.6.1.7.1.3 0 .5.1.7.1.3 0 .6-.1.9-.1.5 0 .9 0 1.4-.1.5-.1.8-.2 1.3-.3 1.2-.4 2.5-.3 3.8-.3.5 0 .9.2 1.3.4.7.3 1.4.2 2.1.3.7.1 1.5 0 2.2.1.5.1 1 .1 1.5.2.3.1.7.2 1 .3 2.1.3 3.9-.5 5.7-1.3.5-.2.9-.3 1.4-.3v-.4c.2-.2.1-.2.1-.2"/><path class="st22" d="M-624.9 379.8c1.2-.1 2.4-.5 3.7-.7.9-.2 1.8-.3 2.7-.2.8 0 1.6.1 2.4.1.9 0 1.7.4 2.5.4h1.7c.6 0 1.1-.2 1.6-.3.6-.1 1.3-.1 1.9 0 .6 0 1.2.1 1.8.2 1.3.3 2.5.9 3.8.9.8 0 1.4-.3 2.2-.4.5-.1 1.1 0 1.7 0 .4 0 .9 0 1.3.1s.7.2 1.1.3c.6.2 1.1.4 1.8.4h1c-.3-.2-.7-.1-1-.2-.5-.1-.9-.2-1.4-.2-.2 0-.4-.1-.6-.2-.2-.1-.3-.1-.5-.2s-.3-.1-.5-.2c-.4-.1-.9 0-1.4 0-.4 0-.8-.1-1.2-.1-.4 0-.7.1-1 .2-1.4.6-2.6 0-4-.5-1.1-.4-2.3-.5-3.5-.5-.8 0-1.6.2-2.4.2-1.4.1-3 .1-4.3-.2-.5-.1-1.2-.4-1.7-.4s-1.1.2-1.6.2c-1.2.1-2.3.4-3.4.5-.6.1-1.1.1-1.7.2-.9.1-1.7.4-2.6.5h-.5v.3c.3 0 .6-.1.9-.1.4 0 .8-.1 1.2-.1m29.8-.5c.4-.1.7-.3 1.1-.4 1.3-.3 2.7.1 3.9-.3.4-.1.7-.6 1.2-.7.6-.1 1.3 0 1.9 0 .6 0 1.1 0 1.7-.1.5-.1 1 .1 1.6-.1 0-.3-2.1 0-2.4 0-.6 0-1.2-.3-1.9-.3-.6 0-1.2 0-1.8.2-.3.1-.6.3-.9.4-.3.1-.6.1-.9.2-.3.1-.6.2-1 .2h-.8c-.4.1-.9.2-1.3.4-.4.3-1 .3-1.4.3h-1.7c-.3 0-1.1-.2-1.4 0 .5.1 1 .1 1.5.1.3 0 .6.1.8.2.2.1.5 0 .7 0 .4 0 .8 0 1.1-.1m-30.3-.1c.4 0 .8-.1 1.1-.3.6-.2 1-.3 1.6-.4.9-.1 1.9 0 2.8-.2.2 0 .6-.1.4-.2-.1-.1-.3 0-.4 0-1.1-.1-2.2-.1-3.3-.2-1 0-2.1-.1-3.2-.3-.2 0-.4-.1-.6-.1v.8c.4.1.8.2 1.2.2.1 0 .7 0 .5.1-.2.1-.8 0-.9 0-.2 0-.5 0-.7-.1v.7c.5.1 1 0 1.5 0m.4-5.4c.8 0 1.5-.1 2.2-.1 1.4-.1 2.8.1 4.2.1.8 0 1.6 0 2.4.1.5 0 1.1 0 1.7.2.6.1 1.2.3 1.8.4.4.1.8.1 1.2.2.5.2 1 .4 1.5.3-.2 0-.4-.2-.6-.3-.5-.2-.9-.2-1.4-.4-.4-.2-.8-.2-1.2-.4-.3-.1-.6-.1-1-.1s-.8-.1-1.2-.2c-.9-.2-1.9-.3-2.9-.3-.7 0-1.3 0-2-.2-.6-.2-1.4-.3-2.1-.2-.7.1-1.4.4-2.1.5-.9.1-1.8 0-2.6.1v.2h.2c.8.1 1.3.1 1.9.1"/><path class="st22" d="M-622.5 374.9c1.4 0 2.7.2 4.1.2 1.1 0 2.1.1 3.2.1s2.1 0 3.2.1c.8 0 1.6.2 2.5.2.3 0 .6.1 1 .1.6 0 1 0 1.6-.1.3 0 1.3.1 1.3-.3-.4 0-.8 0-1.1.1-.7.1-1.5.1-2.2 0-.8-.1-1.6-.2-2.5-.2-.8 0-1.6-.1-2.4-.2-.9-.1-1.8-.1-2.7-.1-1.6 0-3.4.1-5-.3-1.1-.2-2.2-.2-3.3-.2-.5 0-.9-.1-1.4 0-.3.1-.6.2-.8.2v.5c.4 0 .8-.1 1.2-.1 1.1.2 2.2 0 3.3 0m8.4 1.5c.5-.1 1.1-.1 1.6-.1s1.1.1 1.6 0c.3 0 .5-.1.7-.1.3-.1.6 0 .8-.1-.2-.2-1-.1-1.3-.1h-3.6c-.5 0-1-.1-1.6-.1-.6 0-1.2-.1-1.8-.2-.6-.1-1.2-.1-1.8-.1-2.4 0-4.9-.3-7.2.3 1.1 0 2.2-.2 3.2-.1.8.1 1.6.1 2.4.1.8 0 1.6.1 2.3.2 1.7.2 3.2.5 4.7.3m-1.1-10.7c.4-.1.7-.1 1.1-.1h.7c.3 0 .7 0 1-.1-.4-.1-.8-.2-1.2-.1h-.6c-.5 0-.9.1-1.4.1-.4 0-.8.1-1.2 0-.4 0-.8-.1-1.1-.2-.6-.1-1.3.2-1.9.2h-.8c-.4-.1-.8-.1-1.2-.1h-.5c-.1 0-.3-.1-.4-.1 0 .2.1.2.3.2.2 0 .4.1.6.1h.3c.2 0 .5.1.7.1h1c.3 0 .7 0 1-.1h.6l.6.3c.4.1.9 0 1.3-.1.3-.1.7 0 1.1-.1m-.1-.6h.1c0-.1-.5-.1-.6-.1-.3 0-.5-.1-.7-.1-.3-.1-.5-.2-.8-.3-.3-.1-.5-.3-.8-.3h-.9c-.3.1-.5.2-.7.3-.3.1-.6.3-.9.4 0 .3 1.6-.1 1.8-.2.5 0 .9 0 1.4.1.2 0 .5 0 .7.1.2 0 .3.1.5.1h.6c.1.1.2.1.3 0m-10.1 2.2c.4.1.8.1 1.3.2.4.1.7.1 1.1.2.7.1 1.5.2 2.2.2.7 0 1.3-.1 2 0 .9.1 2 .1 2.9-.1.4-.1.8-.2 1.2-.2.4 0 .6 0 1-.1l1.2-.3c.5-.2 1-.2 1.4-.3.2-.1.4-.2.6-.2-.5 0-1 .1-1.5.3-.4.1-.8.1-1.2.2l-1.8.3c-.5.1-1.1.1-1.7.1h-2.4c-2.5-.1-4.9-.4-7.4-1.1h-.1c-.1 0-.2-.1-.4-.1v.4h.1c.5 0 1 .4 1.5.5m12.1 17.9c.3.2.7.3 1.1.4.3 0 .6.1.8.1h.8c.2 0 .3.1.5.1.4 0 .8.1 1.1.2.2.1.4.1.6.1h.3c-.3-.1-.6-.2-.9-.2-.2 0-.4-.1-.6-.2l-.9-.3c-.3-.1-.6-.1-.8-.1-.3 0-.5 0-.8-.1-.1 0-.2 0-.3-.1-.1 0-.2-.1-.4-.1-.2-.1-.5-.1-.7-.2-.3-.1-.7-.5-.6-.8v-.1c.2 0 .4-.1.5-.1h.6c.4 0 .7-.1 1-.3.1-.1.3-.2.4-.3.1-.1.3-.1.4-.2.1 0 .2-.1.3-.2.1-.1.4-.1.4-.2-.1-.1-.3 0-.5 0-.3.1-.6.2-.8.4-.3.2-.6.3-.8.4-.2.1-.5.1-.8.1-.2 0-.4 0-.6.1-.1 0-.2 0-.3.1-.1 0-.2.1-.2.1-.1 0-.5 0-.4.2.1.1.2.1.3.2.2.1.3.2.5.3.3.2.5.5.8.7m-11.5-4.8c.6 0 1.2.1 1.8.4.6.3 1.2.6 1.8.7 1.3.1 2.6.1 3.9.1 1.2 0 2.4.2 3.6.2.4 0 .8-.2 1.2-.3.3 0 .7.1 1 .1.8 0 1.5.1 2.2.1h.9c.3 0 .4-.2.7-.2v-.2c-.1-.1-.2 0-.3 0-.2 0-.3.2-.5.2-.5.1-1.1-.1-1.7-.1-.7 0-1.4-.1-2.1-.1-1.2 0-2.5.1-3.7 0-1.7-.3-3.4 0-5.1-.2-.6-.1-1.1-.3-1.7-.5-.1-.1-.3-.2-.4-.3-.2-.1-.3-.1-.5-.1-.4 0-.8-.1-1.2-.1-.6 0-1.1.2-1.6.3-.1 0-.2.1-.4.1v.2c.3-.1.5-.1.7-.1.4-.2.9-.2 1.4-.2m2.8 1.8c.7.1 1.3.1 2.1.2s1.5.2 2.3.4c1.2.2 2.3-.1 3.5-.1 1.1-.1 2.1-.1 3.1-.4.3-.1.6-.1.9-.2-.1-.3-2 0-2.2.1-1.1.1-2.1.4-3.2.1-.5-.1-1.1-.1-1.7-.1-1 0-1.9-.2-2.8-.2-1 0-2-.2-3-.2-1.1 0-2.2-.3-3.4-.2-.2 0-.4.1-.5.1v.3h.2c1.4-.2 3.3-.1 4.7.2m4.3 1.1c-.8-.1-1.6-.1-2.4-.1-1.8-.2-4-1.1-5.8-.4.1.2 1.1.1 1.3.1.6 0 1.2.1 1.8.2 1.1.2 2.1.3 3.1.3.3 0 1.9.1 2-.1m8.7-10.4c.6 0 1.2.2 1.9.2.4 0 .9.3 1.3.1v-.1c-.2 0-.5-.1-.7-.2-.3-.1-.6-.1-.8-.2-1.1-.2-2.3-.2-3.4-.5-.7-.2-1.3-.6-2-.9-.3-.1-.6-.1-1-.2s-.8-.4-.2-.5c.6-.1 1.3-.1 2-.2.8-.1 1.7-.3 2.5-.6s1.7-.4 2.4-.9c.4-.2.7-.5 1.1-.7.4-.2.6-.2 1-.1 1 0 2-.2 3-.4.5-.1 1.1.1 1.6.1.7 0 1.5.1 2.2.1 1.3 0 2.7-.2 4.1-.2 1.7-.1 3.3-.6 4.9-.8.6-.1 1.3 0 1.9-.1 1-.2 2-.1 3 .1.5.1 1 .2 1.4.5.1.1 1.3.7 1.3.6 0-.2-.8-.5-1-.7-.4-.2-.7-.4-1.1-.6-.4-.2-.9-.3-1.4-.3-1-.1-1.8-.2-2.7 0-1.2.2-2.3.6-3.5.6h-1.3c-.4 0-.8.2-1.2.2-1 0-1.8.2-2.8.3-1.7.1-3.3-.3-5 0-1.8.4-3.7-.2-5.3.9-.4.3-.8.6-1.3.8-.4.1-.9.2-1.2.3-.7.4-1.3.5-2.1.7-.7.1-1.4.1-2 .2-.3.1-.7.1-1 .2-.2.1-.5.2-.7.3-.2.1-.5 0-.7.1 0 .3 1.8.3 2 .3.9.2 1.6.7 2.5 1 .7.4 1.4.6 2.3.6"/><path class="st22" d="M-611.7 371.4c.4.2.7.4 1.1.4.1 0 .4.1.5 0 0 0 .1-.3 0-.3-.6-.1-1.2-.1-1.7-.3-.3-.2-.5-.2-.9-.2.1.2.7.3 1 .4m-2.9-2.2c-.6 0-1.2 0-1.7-.1-.6 0-1 .1-1.5.3-1.1.3-2.3.5-3.4.2-1.2-.4-2.5-.3-3.7-.4.2.1.6.1.9.2.4.1.8.3 1.2.3.8 0 1.6.3 2.5.4.8 0 1.8.3 2.6-.1.4-.2.8-.3 1.2-.4.9-.1 1.9.1 2.7-.2.3-.1.8-.2 1-.4 0 0-.7 0-.9.1-.3-.1-.6 0-.9.1m12.4 1.8c.7-.2 1.1-.4 1.9-.3.8.1 1.7.3 2.5.4.4 0 .8 0 1.2.1.5.1.9.2 1.4.2.7 0 1.4.1 2.1.2.6.1 1.1.4 1.7.6.2 0 .4 0 .4.2.1.2-.2.3-.3.3-.3.1-.7 0-1 .1-.4.1-.8.1-1.2.3-.4.2-.8.3-1.2.4-.4.1-.9.1-1.3.1-.2 0-.4.1-.6.1-.2.1-.4.1-.7.1-.3 0-.6.1-.9.1-.4 0-.7 0-1.1.1-.3 0-.8.1-1.1 0-.1 0-.3-.1-.4-.1-.2-.1-.5-.1-.8-.1-.3 0-.6-.1-.9-.1h-.4c-.1 0-.1.1-.1.1.5 0 .9.1 1.4.1.3 0 .6.1.9.1.5.1 1 0 1.5.1h.6c.2 0 .3 0 .5-.1h1.4c.2 0 .3-.1.5-.2h.6c.4 0 .8-.1 1.1-.1.3-.1.6 0 .8-.1.3-.1.5-.2.8-.3.2 0 .3-.1.4-.2.2 0 .4 0 .6-.1.2 0 .3-.1.4-.2.1-.1.5-.2.6-.3.1-.1 0-.2-.1-.3-.7-.8-1.5-.5-2.4-.7-1-.2-2.2-.4-3.2-.5-.6-.1-1.2-.1-1.8-.2-.6 0-1.2-.2-1.8-.3-.6-.1-1.4-.1-1.9.1s-.9.3-1.4.4c-.4.1-1 .2-1.2.7.4.1.7-.3 1-.4.7-.2 1.1-.2 1.5-.3m20-11.2c-.4 0-.8 0-1.3.1-.8.2-1.6.1-2.4.2-1.1.1-2.1.4-3.2.5-1.4.1-2.8.1-4.2 0-1.3-.1-2.5 0-3.8-.2-.5-.1-1-.3-1.5-.4-.3 0-.6-.1-1-.1-.6 0-1.1.1-1.7.3-.7.2-1.5.2-2.3.1-.3-.1-.6-.1-.9-.2-.3-.1-.7-.1-1-.2-.5 0-1.2.1-1.1.7.1.5.4.9.7 1.2.7.7 1.7 1 2.6 1.2 1.2.3 2.5 0 3.6 0 .8 0 1.6 0 2.5.1.3 0 .7 0 1 .1l.9.3c.5.1 1 .3 1.4.6.4.3.9.2 1.4.2.5 0 .9.1 1.4.1h1.1c.6 0 1.1.1 1.7.1.7 0 1.4-.1 2.1-.2.6-.1 1.2 0 1.8-.1.3 0 .7 0 1-.3l.3-.3c.2-.2.4-.3.6-.5.7-.4 1.3-.8 2.1-1v-.2c-.4.1-.8.2-1.2.4-.3.1-.6.3-.9.5-.2.1-.5.3-.7.4-.3.2-.6.3-.9.5-.8.4-1.6.5-2.5.4-1.2-.1-2.4-.1-3.6-.1-1.5-.1-3.1 0-4.5-.7-.5-.2-.8-.5-1.3-.6-.5-.1-1 0-1.5.1-1.1.1-2.2 0-3.2 0-1.1 0-2.5 0-3.5-.5-.3-.2-.6-.5-.9-.7-.3-.2-.8-.4-.8-.8-.1-.8 1.2-.5 1.6-.4.3 0 .6.2 1 .2.6.1 1.2 0 1.8 0 .8-.1 1.6-.5 2.4-.3.5.1 1 .1 1.5.3.2 0 .4.1.6.1 1.3.3 2.8.2 4.2.3 1.8.1 3.5 0 5.2-.2.8-.1 1.7-.3 2.5-.5.2 0 .5 0 .7-.1.3 0 .6-.1.9-.2.7-.2 1.5.1 2.3.1h.9v-.3h-1.1c-.1.1-.5.1-.8 0"/><path class="st22" d="M-582.6 361.3c.2 0 .5.1.7.1h.4c.3.2-.1.3-.3.3-.3.1-.4.2-.6.4-.6.4-.9.8-1.6.9-.6.1-1.3 0-1.9 0-2.2 0-4.4.1-6.5-.1-.5 0-1.1-.1-1.6-.3-.5-.2-1.1-.5-1.7-.6-.2 0-.3 0-.5-.1-.3-.1-.5-.1-.8-.1-.2 0-.4 0-.6-.1-.2 0-.5 0-.6-.1-.1-.1.4-.1.5-.1h2.9c.6 0 1.2.1 1.8.1 1.4.1 2.9 0 4.3 0h1.6c.5-.1.9-.3 1.4-.4 1-.2 2.2-.1 3.1.1m-18.8.9c-.1 0-.8-.3-.8-.4.1-.1.3 0 .5 0 .3 0 .5-.1.8-.1.6 0 1.2-.1 1.7-.1.1 0 .4 0 .3.1-.1.1-.6.2-.7.2-.6.3-1.1.6-1.8.3m16.7-1.5c-.6 0-1.1.1-1.7.3-1.2.4-3 .2-4.3.2h-4.2c-.6 0-1.2-.1-1.8-.1h-1.4c-.2 0-.4.1-.7.1-.5.1-1 0-1.6 0-.9 0-1.8.1-2.7.1h-.9c-.3 0-.6-.1-.9-.1-.1.3.4.4.5.4.5.1 1 .1 1.5.3.4.1.7.4 1.1.5.2.1.5 0 .7 0 .4 0 .7 0 1.1-.1.5-.2.9-.4 1.4-.4h1.5c.3 0 .5 0 .8.1.2.1.3.2.5.2.3.2.7.3 1 .4.6.2 1.2.3 1.8.4 1.2.1 2.5 0 3.7 0 1.5-.1 3 .1 4.4 0 .7-.1 1.5-.2 2.1-.6.6-.3 1.1-.6 1.7-.8.3-.1.5-.1.8-.2v-.7c-.6 0-1.3.1-1.4.1-.9.2-1.9-.1-3-.1"/><path class="st22" d="M-583 358.1c-.2 0-.3.1-.5.1h-.4c-.2 0-.3.1-.5.1-.1 0-.3.1-.4.1-.2.1-.4.1-.6.2-.1 0-.3.1-.4.1-.2 0-.3 0-.5.1-.4.1-.7.2-1.1.2-.5.1-1 .2-1.6.3-1.4.3-2.8.2-4.2.2-.7 0-1.4.1-2.1.1-.7 0-1-.1-1.7-.3-.6-.2-1.1-.4-1.7-.4-.5 0-.8 0-1.3.1s-1 0-1.5-.1c-.4-.1-.7-.2-1-.3-.3-.1-.5-.2-.8-.3-.5-.2-1.2-.2-1.8-.1-.6 0-1.2.2-1.8.3-.2 0-.5.1-.7.2-.2.1-.4.3-.6.4-.4.1-.8 0-1.2.1-.4.1-.7.2-1 .4-.3.1-.5.3-.8.4-.1 0-.3 0-.4.1-.2.1-.2.3-.4.4-.2.1-.5.1-.7.2.1.5.4.7.8.8.2.1.4.1.6.1.3 0 .5.1.8.2.6.2 1.2.3 1.8.5.7.2 1.3.6 1.9 1 .7.4 1.5.5 2.2.8.9.4 1.9.8 2.9.8 1.4.1 2.8-.2 4.2-.2.3 0 .6-.1.9-.1.3.1.5.2.8.3l.9.3c.1 0 .4.1.3-.1-.2 0-.3 0-.5-.1-.3-.1-.6-.2-.8-.4-.2-.2-.5-.3-.8-.3-.5-.1-1.1.1-1.6.1-.6 0-1.2.1-1.7 0-.9 0-1.7.2-2.5.1-.6-.1-1-.3-1.6-.6-.4-.2-.7-.2-1.1-.3-.7-.2-1.3-.9-2-1.1-.2-.1-.5-.1-.7-.2l-.9-.3-.6-.3c-.2-.1-.4-.1-.7-.2-.3-.1-.5-.2-.8-.3-.3 0-.6-.1-.9-.2-.4-.1-.1-.2.1-.3.3-.1.4-.3.6-.5.1-.1.2-.1.3-.1.3-.1.5-.2.7-.3.2-.1.4-.3.6-.3h.4c.2 0 .4 0 .6-.1l.6-.3c.2-.1.3-.2.5-.3.3-.2.7-.2 1.2-.2.4 0 .9-.1 1.4 0 .5.1 1 .3 1.5.4 1.5.3 3-.1 4.5-.1.6 0 1.2.1 1.7.3.5.1.9.4 1.3.6.4.2.6 0 1.1-.1h1.3c1.5.1 3 0 4.5-.2.7-.1 1.5-.3 2.2-.4.3 0 .6-.1.9-.1.2 0 .4-.1.7-.2.2-.1.4-.1.5-.1.2 0 .4-.1.6-.1.3-.1.6-.1.9-.2.2-.1.4-.1.7-.1.1 0 .2-.1.3-.1h.3c.7 0 1.3 0 2 .1h.1v-.2c-1.4 0-2.3-.2-3.3 0"/><path class="st22" d="M-622.1 360.3h2.2c1.7 0 3.3.1 5-.2.6-.1 1.2-.4 1.8-.5.3 0 .7 0 1-.1.6-.2 1.1-.6 1.7-.8.6-.3 1.2-.2 1.9-.4.2-.1.4-.2.6-.2.7-.2 1.5-.3 2.2-.3 1 0 1.9.1 2.9.1.5 0 .9-.1 1.3-.2.2-.1.5 0 .7 0 .5 0 1-.1 1.5-.1h1.7c.4 0 .8.1 1.2.2.5.1 1 .1 1.5.2.2 0 .5 0 .7.1.3.1.5.1.8.1.2.1.5.1.7.2.2 0 .4.1.6.1.5.1 1.1 0 1.6 0s.8 0 1.3-.2c.8-.2 1.7-.1 2.5-.1 1 0 1.8-.3 2.7-.7.2-.1.4-.1.7-.2h.4c.2 0 .4-.1.6-.2h.6c.4 0 .9 0 1.3.1.2 0 .4.1.6.2v-.5c-.4 0-.8-.1-1.3-.1s-1.1.1-1.6.1c-.1 0-.2 0-.3.1-.6.2-1.1.5-1.6.6-.6.2-1.2.3-1.8.3-.9 0-2-.2-2.9.2-.4.2-.9.3-1.3.3-1 0-1.9-.2-2.8-.5-.2-.1-.4-.1-.6-.1-.3 0-.6 0-.8-.1h-.3c-.4-.1-.8-.2-1.2-.2h-1.9c-.2 0-.4.1-.6.1-.5.1-1.1 0-1.6.1-.2 0-.5 0-.7.1-.3.1-.6.2-.9.2-.5 0-1 0-1.5-.1h-1.3c-.9-.1-1.8-.2-2.7.1-.4.2-.8.3-1.2.4-.3.1-.7.1-1.1.2-.3.1-.5.4-.8.5-.3.1-.6.3-1 .4-.4.1-.8 0-1.2.1-.4 0-.8.2-1.1.3-.8.2-1.7.4-2.5.6-1 .2-2 0-2.9 0-.9-.1-1.9 0-2.8-.1-.7 0-1.5 0-2.2-.1-.7-.1-1.4-.1-2.1-.1v.3c.7 0 1.4.1 2.1.1.4-.3 1.2-.3 2.2-.3m-2.7 11.7c.7-.1 1.5 0 2.2-.1.9-.1 1.9 0 2.8-.1 1-.1 2-.2 2.9 0 .8.1 1.7.3 2.5.6.4.1.8.2 1.1.3.4 0 .8 0 1.2.1.3.1.6.2 1 .4.3.1.5.4.8.5.3.1.7.1 1.1.2.4.1.8.2 1.2.4.9.3 1.8.2 2.7.1h1.3c.5 0 1-.1 1.5-.1.3 0 .6.2.9.2.2.1.5 0 .7.1.5.1 1.1 0 1.6.1.2 0 .4.1.6.1h1.9c.3 0 .7 0 1-.1.9-.1 1.7-.3 2.5-.5.3-.1.6-.1.9-.2.4-.1.8-.3 1.2-.5.4-.1.9-.3 1.3-.5.5-.2 1-.4 1.4-.6.6-.3 1.6-.1 2.3-.1 1 0 2-.3 3-.3h3.1v-.3h-.9c-1.3 0-2.7.2-4 .3h-1.8c-.9 0-2-.1-2.8.4-.9.6-1.9.9-2.9 1.2-.6.2-1.3.4-1.9.5h-.8c-.8 0-1.5.2-2.3.3h-1.7c-.5 0-1-.1-1.5-.1h-.7c-.5-.1-.8-.2-1.3-.2-1 0-1.9.1-2.9.1-.7 0-1.5-.1-2.2-.3-.2-.1-.4-.1-.6-.2-.6-.2-1.2-.1-1.9-.4-.6-.3-1.1-.6-1.7-.8-.3-.1-.7-.1-1-.1-.6 0-1.2-.4-1.8-.5-1.7-.3-3.3-.2-5-.2h-2.2c-.9 0-1.8-.1-2.7 0-.7 0-1.4.1-2.1.1v.3c.6-.1 1.3-.1 2-.1"/><path class="st22" d="M-583.1 372.5c-1.1.1-2.1.7-3.1.9-.7.1-1.4.1-2.1.1-.5 0-.9.2-1.4.3-.4.1-.6.2-1 .3-.2.1-.5 0-.6.2-.3.3.3.2.5.2.4-.1.7-.4 1.1-.4.6-.1 1.2-.1 1.8-.1.6-.1 1.1-.2 1.6-.2.7 0 1.4-.2 2-.4.3-.1.7-.2 1.1-.3.3 0 .5.1.8.1.6 0 1.2-.1 1.8-.1h.4v-.5h-1.5c-.4-.1-.9-.2-1.4-.1m-.3-4.8c-.7-.2-1.3-.2-2-.1-.5 0-.9.1-1.4.2-.3.1-.7.1-1 .3-.3.2-.5.3-.9.4-.8.2-1.6.3-2.4.3-.5 0-1-.1-1.5-.1-.3 0-.5-.1-.8-.1-.8 0-1.5-.2-2.3-.1-.5.1-.9.2-1.4.2-.6 0-1.2 0-1.8-.1-1.2-.1-2.4-.1-3.6 0-.7.1-1.3.3-1.9.7-.6.4-.4 1.1-.8 1.7-.2.3-.5.5-.8.7-.3.1-.5.3-.8.5-.6.3-1.9.3-2.4-.3-.2-.3-.2-.6 0-.9.1-.1.3-.8-.1-.5-.2.2-.3 1.2-.2 1.4.1.2.6.5.8.5 1 .4 3.2.1 3.8-.9.2-.4.2-.8.4-1.2.4-.6 1.1-.9 1.7-1.1.6-.2 1.2-.2 1.8-.2.4 0 .9-.2 1.4-.1.6.1 1.2.2 1.8.2.4 0 .9 0 1.3-.1l1.2-.3h1.4c.4.1.8.1 1.3.1.7 0 1.3.1 2 .2.6 0 1.3 0 1.9-.1.6-.1 1.2-.3 1.8-.5.6-.1 1.2-.3 1.8-.3.5 0 1 0 1.5.1.5 0 .7.3 1.1.6.4.3.9.5 1.3.7.4.2.8.3 1.2.4v-.2c-.8-.2-1.4-.6-2.1-1-.5-.4-.8-.8-1.3-1"/><path class="st22" d="M-582.5 369.3c-.5-.3-1-.4-1.7-.5-.6-.1-1.2-.1-1.9-.1-.5 0-1.1-.1-1.6.1-.5.1-.9.3-1.5.3-1.1.1-2.2 0-3.3.1-.8 0-1.7.3-2.4.5.8.4 1.9.2 2.8.5.6.2 1 .3 1.5.6.3.1.7.3 1 .4h-.1c-.2-.1-.9-.4-.9-.6h.1c-.2-.1-.4-.1-.5-.2-.2-.2-.5-.4-.7-.5-.3-.1-.7-.1-.9-.2.4-.3 1.4-.1 1.9-.1.8.1 1.7.1 2.5-.1 1.1-.2 2.2-.2 3.2-.1 1 0 1.8-.1 2.6.4.2.1.3.3.6.4.2.1.6.2.3.3h-.4c-.6 0-1.2.2-1.9.3-.6.1-1.2 0-1.8 0-.9 0-1.8.1-2.7.1-.5 0-1-.1-1.4-.2-.3 0-.6-.1-.8-.2.4.2.9.3 1 .7h-.2c.8.4 1.7.4 2.5.3.8 0 1.5-.3 2.3-.4 1.1-.1 2.1-.3 3.2-.3.1 0 .7 0 1.4.1v-.7c-.3-.1-.5-.1-.8-.2-.4-.1-.8-.3-1.4-.7"/><path class="st22" d="M-590.4 370.7c-.1.2.6.5.8.6h.3c-.1-.3-.6-.5-1.1-.6m8.2 7.6c-.9-.1-1.7.1-2.5.5-.6.3-1.3.6-1.9.8-1.1.4-2.4.4-3.5.4s-2.2 0-3.3-.1c-.4 0-.8 0-1.2-.1-.2 0-.6-.2-.7-.1h-.1c.4.3 1.3.2 1.8.4 1.1.3 2.4.3 3.6.5 1.4.2 2.6 0 3.9-.5.7-.2 1.4-.4 2-.7.4-.1.7-.3 1-.4h.5c.7 0 1.4 0 2.1.1h.4v-.7c-.7 0-1.4 0-2.1-.1m-14.3-.1c0 .1-.1.1-.2.1-.1.1-.2.1-.3.1h-1.3c-.2 0-.3.1-.5.1-.6 0-1.2-.1-1.8-.1-.2 0-.4 0-.6.1-.2.1-.5.1-.7.1-.3-.1-.6-.3-1-.3s-.7-.1-1.1-.2c-.2 0-.4-.1-.5-.2 0-.1.1-.1.2-.1h.5c.3 0 .6-.1.9-.1.3 0 .6-.1.9 0 .7.1 1.3.2 2 .2s1.3-.1 2 .1c.2 0 .3.1.5.2.2 0 .4.1.6.1.2-.2.4-.3.4-.1m13-1.9c-.3-.1-.6-.1-.9-.1h-3.3c-1.4 0-2.8.3-4.1.6-.8.2-1.6.6-2.3.8-.3.1-.6.3-1 .3-.6.1-1.2-.1-1.8-.2-.7-.1-1.4-.3-2.1-.3-.5 0-1.1 0-1.6-.1-.6-.1-1.2-.1-1.8-.2-.6-.1-1.2 0-1.8.1h-.5c-.2.1-.4.3-.2.5s.7.3 1 .4c.2.1.4.1.6.1h.4l.6.3c.2.1.5 0 .7.1.6 0 1.1-.2 1.6-.2h2.8c.5-.1 1-.2 1.5-.2s1.1 0 1.6-.2c.4-.2.9-.2 1.3-.3.5-.2 1-.5 1.5-.7 1.3-.4 2.8-.3 4.1-.3 1.1 0 2.3.1 3.5.3.7.1 1.2.6 1.8.7.5.1 1.1.3 1.6.4v-.8c-.4-.1-.9-.2-1.3-.3-.5 0-1.1-.5-1.9-.7m-40.5-3.4c1.1 0 2.1-.3 3.2-.4.8-.1 1.7-.1 2.4 0 .3 0 .6.1.9.1.4 0 .6.2 1 .3.5.1 1.1.1 1.6.1.8.1 1.5.3 2.3.3.3 0 .6.1.9.2.7.3 1.3.6 2 .8.5.1 1 .3 1.4.4.4.1.8.1 1.2.1h1.3c.9-.1 1.6-.2 2.5-.2.4 0 .8 0 1.2.1.7.2 1.4.3 2.2.3.4 0 .7.1 1.1.1.3.1.7 0 1 0h.8c.4 0 .8-.1 1.1-.2.4-.1.8 0 1.2.1.5 0 1 .1 1.6.2 1.1.1 2.2-.3 3.3-.5.8-.1 1.6 0 2.4 0 .8.1 1.4 0 2.2-.3l1.5-.6c.3-.1.5-.2.8-.2h.9c.7 0 1.4-.1 2.1-.1v-.2h-.1c-.7.1-1.3.1-2 .1-.5 0-1.1-.1-1.7 0-.5.1-1.1.4-1.6.7-.4.2-.8.2-1.2.2-1 0-2.1-.1-3.1 0-.9 0-1.8.2-2.7.3-1.3.1-2.6 0-3.9.1-.3 0-.6.1-.9.1-.5 0-.9 0-1.4-.1-.4-.1-.8-.1-1.2-.2-.3 0-.6-.1-.9-.1-.5 0-.9-.2-1.4-.2-.7-.1-1.5-.1-2.2-.1-.5 0-.9.1-1.3.1-.3.1-.6.1-1 .1s-.7-.1-1.1-.1c-.3 0-.6 0-.9-.1-.3-.1-.6-.1-1-.2s-.8-.2-1.2-.4c-.4-.2-.8-.4-1.2-.5-.4-.1-.8-.2-1.2-.2-.4-.1-.7-.2-1.1-.4-.6-.2-1.2-.3-1.8-.5-.5-.1-1.1-.1-1.6-.1-.4 0-.9 0-1.4-.1-.4-.1-.7 0-1.1.1-.6.1-1.2.1-1.7.1-.6.1-1.2.3-1.8.4-.4 0-.7 0-1.1-.1-.6-.1-1.2-.1-1.7-.1h-.3v.5c.7.4 1.7.3 2.7.3"/><path class="st22" d="M-623.1 376.9c.8.1 1.6.3 2.5.3 1.3 0 2.5.1 3.8.2 1.4.1 2.9 0 4.3.2.9.1 1.9.1 2.8 0 .6-.1 1.1-.2 1.7-.4.6-.2 1.1-.5 1.7-.8.2-.1.5-.2.8-.2l1.5-.3c.3-.1.6-.3 1-.4.6-.1 1.2.1 1.8.2.3.1.6.1.9.2.3.1.5.1.8.2.7 0 1.3 0 2 .1.4.1.9.2 1.3.2.7 0 1.3-.2 2-.1.7 0 1.3.1 2 .1.9-.1 1.8-.4 2.7-.4 1.3-.1 2.7-.1 4-.3.6-.1 1.1-.2 1.7-.2h1.4c.5.1 1 .1 1.5.1.4 0 .8-.1 1.3-.1v-.5c-.2.1-.4.1-.6.2-.4.1-.8.1-1.2.1h-.6c-.2 0-.4-.1-.5-.1-.6-.1-1.2.1-1.7.1-.4 0-.9.2-1.3.2-.7.1-1.5.1-2.2.1-.6 0-1.2 0-1.8.1-.6.1-1.2.4-1.8.4-.7.1-1.4 0-2.1 0-.6 0-1.5 0-2.1.2-.3.1-.5.1-.7 0-.3-.1-.6-.1-.9-.2-.6-.1-1.1-.1-1.7-.2-.6-.1-1.1-.4-1.7-.4-.6 0-1.1-.2-1.6-.3-.5 0-.8.1-1.2.3-.3.1-.5.2-.8.3-.4.1-.9.3-1.3.4-.5.1-1 .2-1.4.3-.4 0-.8.2-1.2.3-.7.1-1.3.3-2 .4-1.1.2-2.3.1-3.4.1h-3.6c-1.1 0-2.3-.3-3.4-.5-.7-.1-1.4-.2-2.1-.2h-1.7c-.7 0-1.4 0-2.1-.1v.4c.2 0 .5.1.7.1.4-.2 1.4-.2 2.5-.1"/><path class="st22" d="M-585 375.8c-1.1 0-2.2.1-3.3.2-1 0-1.8.1-2.7.3-.7.2-1.4.5-2.1.7-.2.1-.4.1-.6.2-.5.1-.9.4-1.4.4-.9 0-1.8-.1-2.7-.3-.7-.1-1.4-.2-2.1-.4-.7-.2-1.5-.4-2.2-.4h-1.9c-.8 0-1.5.4-2.1.9-.2.2-.8.4-.6.6.1.2.7.4.9.5.6.3 1.4.2 2 .5.3.1 1.2.7 1.4.4-.3-.3-.8-.3-1.2-.4-.4-.2-.8-.2-1.2-.4-.4-.2-1-.2-1.1-.7-.1-.4.3-.6.7-.8 1.5-.8 3.3-.4 4.8-.1.7.1 1.4.3 2.1.4.3 0 .7.2 1 .2.9 0 1.8.4 2.7.1.4-.1.7-.3 1-.4.7-.2 1.2-.5 1.9-.7.7-.2 1.3-.3 2.1-.4.7-.1 1.5 0 2.2-.1 1.3-.1 2.7-.1 4.1-.1.4 0 .8.1 1.2.2.7.2 1.3.5 2 .6v-.4c-.7-.1-1.4-.2-2.1-.4-.9-.3-1.9-.2-2.8-.2m1.6 7.6c-.7 0-1.5-.1-2.2-.1-.2 0-.4-.1-.6-.1h-.6c-.4-.1-.7-.4-1.1-.5-.7-.2-1.7-.2-2.4 0-1 .2-2 .5-3 .5-.6 0-1.1.1-1.7.1h-1c-.4-.1-.7-.2-1-.4-.6-.2-1.1-.4-1.7-.4-.5 0-.8 0-1.3.1s-1 0-1.5-.1c-.4-.1-.7-.2-1-.3-.3-.1-.5-.2-.8-.3-.5-.2-1.2-.2-1.8-.1-.7 0-1.5.2-2.2.3-.6.1-1.1.3-1.6.5s-1 .3-1.5.5c-.3.1-.5.3-.8.4-.1 0-.3 0-.4.1-.2.1-.2.3-.4.4-.2.1-.5.1-.7.2.1.5.4.7.8.8.2.1.4.1.6.1.3 0 .5.1.8.2.6.2 1.2.3 1.8.5.7.2 1.3.6 1.9 1 .7.4 1.5.5 2.2.8.9.4 1.9.8 2.9.8 1.4.1 2.8-.2 4.2-.2h1c.6 0 1.1.1 1.7.1.6 0 1.2.1 1.9.1.6 0 1.2.1 1.7.4.5.2.8.7 1.4.8.6.1 1.1.1 1.7 0 .6 0 1.1-.2 1.7-.5.8-.3 1.6-.8 2-1.5.2-.4.3-.7.3-1.1-.3 0-.4.5-.4.7-.1.3-.3.5-.6.7-.5.4-1.1.9-1.7 1.2-.5.2-1 .2-1.4.3-.5.1-1.2.1-1.7-.1-.5-.1-.8-.5-1.2-.7-.3-.2-.7-.2-1-.3-1.4-.4-2.8-.3-4.2-.4h-1.1c-.8.1-1.7.1-2.6.1-.9 0-1.7.2-2.5.1-.6-.1-1-.3-1.6-.6-.4-.2-.7-.2-1.1-.3-.7-.2-1.3-.9-2-1.1-.2-.1-.5-.1-.7-.2l-.9-.3c-.3-.1-.7-.3-1-.4-.4-.1-.8-.2-1.1-.3-.1 0-.4-.2-.5-.3-.1-.1 0-.3.1-.4.2-.2.6-.3.8-.4.4-.2 1-.3 1.4-.4.5-.1.9-.4 1.4-.6.4-.2.8-.3 1.3-.3.4 0 .7-.1 1.1 0 .3 0 .6.1.8.1.3 0 .7.1 1 .1.7.1 1.5.3 2.2.3.8-.1 1.5-.2 2.3-.2.6 0 1.2.1 1.7.3.4.1.7.3 1 .4.3.1.6.1 1 .1.7 0 1.5-.1 2.2-.1.7 0 1.4-.1 2-.2.2 0 .4-.1.5-.2.2-.1.5-.1.7-.1.3 0 .5-.1.8-.1.3 0 .5 0 .8.1.5.2 1 .6 1.5.6.8.1 1.6.1 2.4.1 1.2 0 2.3.3 3.4.3h.9v-.3h-1.1c-.7-.2-1.4-.3-2.2-.3"/><path class="st22" d="M-583.8 381.7c-1.5.4-3 .3-4.5.3h-1.8c-.6 0-1 .1-1.6.2-.4.1-.8 0-1.2 0-.6 0-1.1.1-1.7.1-.5 0-1.2.2-1.6 0-.4-.2-.7-.6-1.1-.7-.4-.1-.9-.1-1.4-.1-.8 0-1.5.1-2.3.1-.2 0-1.9-.2-1.9-.3 0 .1 0 .2.1.2.7.1 1.5.4 2.3.4.5 0 1-.1 1.5-.2.7-.1 1.3 0 1.9.3.4.2.8.5 1.3.5.6 0 1.2 0 1.8-.1 1-.2 2 0 3-.2 1.3-.3 2.8 0 4.2 0 .8 0 1.5 0 2.2-.2.4-.1.7-.1 1.1-.2.2-.1.4-.1.6-.1l.4-.2 1.4-.7c.2-.1.5-.1.8-.2v-.2c-.3.1-.6.2-1 .3-.7.4-1.6.8-2.5 1m-4.8-19.4h-.9c-.8 0-1.6 0-2.5-.1-.5 0-1-.1-1.5-.1-.2 0-.4-.1-.6-.1-.1.5 3.9.4 4.3.4h1.1c.3.1.3 0 .1-.1m.5 16.8c.4-.2.7-.2 1.1-.4.3-.1.5-.2.8-.2.1 0 .3 0 .4-.1-.1-.1-.2-.1-.4 0-.3.1-.5.1-.8.2-.6 0-1.3-.2-1.9 0-.3.1-.5.3-.7.5-.3.3-.5.3-.9.3-.2 0-.4.1-.1.2.4.2.9-.2 1.2-.3.4-.2.9 0 1.3-.2m-17.8-10c-.1.2 0 .3.1.5v.4c0 .3.1.6-.1.8-.2.1-.4.1-.6.1-.2 0-.4.2-.6.3-.2.1-.4.1-.6.1-.3 0-.5 0-.6-.3 0-.2 0-.5.1-.6.1-.1.4-.2.6-.3.2 0 .7.1.8-.2v-.1c-.5.1-1-.1-1.4.2-.3.3-.6 1-.2 1.3.4.3 1 .2 1.4 0l.6-.3c.2-.1.5-.1.7-.2.3-.2.4-.7.4-1.1v-.6c-.2 0-.4-.2-.6 0"/><path class="st22" d="M-606.5 370.2c-.1.1-.2.1-.3.2-.2.2-.5.2-.8.3-.1 0-.3 0-.4.1-.1 0-.2.1-.1.2.1.2.3 0 .4 0 .2-.1.3-.1.5-.2.1-.1.3-.1.4-.1.1 0 .3-.1.4-.1.1-.1.2-.1.2-.2.1 0 .1 0 .1-.1.2-.2.2-.7-.1-.8-.1 0-.3 0-.2.1 0 0 .1 0 .2.1s.1.2.1.3c-.2.1-.3.2-.4.2"/><g><path class="st3" d="M-615.7 359.6s-3.6-.4-3.9 0c-.6.8 1.3 1.4 3.1.9 0 0-2 3-1.8 4.1.2 1.1.8 2.6 3.3 1.1s2.9-3.5 2.7-4c-.1-.5 2.4.7 3.3.3 0 0 .6-.3.4-.5-1-1.4-4.1-1-4.1-1s-.2-1-3-.9"/><path class="st23" d="M-613.5 361.8s-.4.5-1-.1m-.8-.1s-.4.5-1-.1"/></g><g><text transform="translate(-417.66 375.541)" class="st39" fill="#00af9e" font-size="13">Ewe Store It Savings</text></g><g><defs><path id="SVGID_9_" d="M-455.1 358.1h29.3v24.6h-29.3z"/></defs><clipPath id="SVGID_10_"><use xlink:href="#SVGID_9_" overflow="visible"/></clipPath><path d="M-428.4 375.9l-.2 2.1s-.4 1.2 0 2.6c.4 1.4 0 2 0 2s-.6.6-.9-.8c-.3-1.4-.9-3.4-.4-4.2m-.6 0s-.4 1.2 0 2.6c.4 1.4 0 2 0 2s-.6.6-.9-.8c-.3-1.4-.9-3.4-.4-4.2m-11.5-.5c-.7.5-1.1 1.3-1.1 1.3s-.8 1-.8 2.5c0 1.4-.7 1.9-.7 1.9s-.8.3-.6-1.1c.2-1.4.3-3.5 1-4.1m-1 .2s-.8 1-.8 2.5c0 1.4-.7 1.9-.7 1.9s-.8.3-.6-1.1c.2-1.4.3-3.5 1-4.1" clip-path="url(#SVGID_10_)" fill="#3e3f42"/><path d="M-426.1 363.8c-.8-1-2.5-.3-2.9-.1-1.6-1.3-3.6-2.1-5.8-2.1-.6 0-1.2.1-1.8.2-1.4.1-3.2.2-4.2-.2-1.6-.6-6.9-4.2-8.9-3.4-2 .8-3 2.2-2.1 5.3.9 3.1 1 3.7 1 3.7s-1.5 8 5.2 11.7c1.8 1.3 4.1 2.1 6.7 2.1h2c4.3 0 8.1-2.3 9.7-5.5.9-1.4 1.5-3.1 1.5-4.9 0-2.1-.7-4.1-2-5.7.9.1 2.4-.2 1.6-1.1" clip-path="url(#SVGID_10_)" fill="#00af9e"/><defs><path id="SVGID_11_" d="M-449.6 358.3c-2 .8-3 2.2-2.1 5.3.9 3.1 1 3.7 1 3.7s-1.5 8 5.2 11.7c1.8 1.3 4.1 2.1 6.7 2.1h2c4.3 0 8.1-2.3 9.7-5.5.9-1.4 1.5-3.1 1.5-4.9 0-2.1-.7-4.1-2-5.7 1 0 2.4-.3 1.7-1.2-.8-1-2.5-.3-2.9-.1-1.6-1.3-3.6-2.1-5.8-2.1-.6 0-1.2.1-1.8.2-1.4.1-3.2.2-4.2-.2-1.4-.5-5.8-3.5-8.2-3.5-.4 0-.6.1-.8.2"/></defs><clipPath id="SVGID_12_"><use xlink:href="#SVGID_11_" overflow="visible"/></clipPath><path class="st26" d="M-460.4 368.6h3.1c.5 0 1 0 1.5.1s1 .1 1.6 0c.6-.1 1.1-.2 1.7-.2.6 0 1.2.1 1.9.1 1.1 0 2.3.1 3.4-.3.4-.2.8-.5 1.2-.7.1-.1.3-.2.4-.3.2-.1.4-.3.5-.5.1-.2.2-.5.4-.6.3-.2.4-.8.3-1.1-.2-.4-.6-.6-1-.8-.5-.3-1.1-.6-1.7-.7-.3-.1-.5-.1-.8-.2-.3-.1-.6-.3-.9-.4-.6-.3-1.4-.4-2-.5-1.1-.1-2.2.2-3.2.2h-2c-.7 0-1.5-.1-2.2 0-.8.1-1.5.2-2.2.4-.3.1-.7.2-1 .3-.3.1-.6.3-.9.4v.4c.2-.1.4-.2.7-.3.5-.1.9-.3 1.4-.4.3-.1.5-.1.8-.2.3-.1.8-.1 1.1-.1.3 0 .7 0 1-.1.7-.1 1.4-.2 2.1-.1.5 0 1 .1 1.5.1 1.2 0 2.6-.2 3.8 0 1 .2 1.9.6 2.9.9.4.1.7.3 1 .5l.6.3c.3.2.6.5.7.8.2.3-.1.5-.3.8-.1.2-.3.5-.5.7-.2.2-.5.4-.7.5-.3.1-.6.2-.9.4-.4.2-.6.4-1 .4h-2.5c-.4.1-.8.1-1.2.1-.6 0-1.2.1-1.8.1-.5 0-1.1.2-1.6.1-.3 0-.6-.2-.9-.2h-3.5c-.4 0-.9 0-1.4-.1-.4-.1-.6-.4-.9-.5-.1-.1-.2-.1-.4-.2v.5c.5.2 1.1.4 1.9.4-.1 0-.1 0 0 0"/><path class="st26" d="M-458.7 366.1c-.3-.1-.6-.1-.9-.2-.2 0-.3-.1-.3-.4 0-.3.5-.5.6-.5.2-.2.5-.4.7-.6.2-.2.5-.1.8-.1.4.1.9.1 1.3.1.6 0 1.2-.4 1.8-.5.2-.1.5-.1.7-.2.2-.1.4-.1.6-.2.3 0 .5 0 .8.1.3.1.6.2.8.2.6.2 1.2.5 1.8.5.4 0 .9-.1 1.3-.1.3 0 .5-.1.8.1.3.2.5.4.7.6.1.1.5.3.6.5-.1.3-.1.3-.3.4-.3.1-.6.1-.9.2-.3 0-.5.1-.8.2h-.7c-.2 0-.3 0-.5.1-.3.1-.6.2-.9.2h-.1c-.7.1-1.4.2-2.1.1h-1c-.2 0-.4-.1-.6-.2-.5-.1-.9 0-1.4 0-.3 0-.7-.1-1-.2-.3-.1-.7 0-1-.1-.3.1-.6 0-.8 0m7.7.7h.5-.5m-8.1-.5c.4.1.9.2 1.3.3.3 0 .5 0 .8.2.2.1.4.2.7.2.5.1 1 0 1.5-.1h1.1c.1 0 .2.1.2.1.1 0 .2-.1.2-.1h1.1c.5 0 1 .1 1.5.1.2 0 .4-.1.7-.2.3-.1.5-.2.8-.2.4 0 .9-.2 1.3-.3.2-.1.4-.1.6-.1.2 0 .4.1.5-.2.2-.3 0-.7-.2-.8l-.3-.3c-.2-.2-.5-.4-.8-.6-.2-.2-.4-.4-.7-.4h-.5c-.4 0-.7-.2-1.1-.2-.5 0-1.1-.1-1.6-.1-.4 0-.7-.2-1.1-.3h-1.2c-.4 0-.7.3-1.1.3-.5 0-1.1.1-1.6.1-.4 0-.7.2-1.1.2h-.5c-.3 0-.5.2-.7.4-.3.2-.5.3-.8.6l-.3.3c-.2.2-.4.5-.2.8.1.2.4.1.5.2.6 0 .8.1 1 .1m22 6.5c.3 0 .6 0 .9-.1.9-.1 1.8-.1 2.6-.2.1 0 .2 0 .3-.1.1-.1 0-.1-.1-.1-.2-.1-.5 0-.7-.1h-2.8c-.2 0-.4 0-.5.1-.1 0-.2 0-.3.1h-.7c-.2.1 0 .1.1.1.3 0 .6.1.9.1.1.1.2.2.3.2"/><path class="st26" d="M-438.1 372.1c.4 0 .8-.3 1.2-.4.3-.1.6 0 .9.1.2.1.5.1.7.1.7.1 1.5-.1 2.3-.1.2 0 .4.1.7.1h1.8c.2 0 .3 0 .4.1 0 0 .2.1.2.2s-.3.1-.4.1c-.2 0-.5 0-.8.1-.2 0-.4.1-.6.2-.8.2-1.7.1-2.5.1-.9 0-1.7.1-2.6.2h-1.2c-.4-.1-.7-.2-1.1-.2h-.7c-.1 0-.2 0-.2-.1.2-.2.4-.3.7-.3.3 0 .7-.1 1.2-.2m-2.3 1.1c.2.1.4 0 .6.1.8.1 1.5.1 2.3.1.8-.1 1.6-.2 2.4-.2.7-.1 1.4-.1 2.1-.1.9 0 1.8-.2 2.7-.4.1 0 .2 0 .4-.1.1 0 .2 0 .3-.1s.2-.1.3-.1h1.5s.1 0 .1-.1-.1-.1-.2-.1h-.7c-.1 0-.1 0-.2-.1l-.1-.1c-.2-.1-.4 0-.5 0-.4 0-.8-.2-1.2-.2-.4-.1-.8 0-1.1 0-.8-.1-1.6 0-2.4 0-.7 0-1.3-.3-2-.2-.3 0-.7 0-.9.1-.3.1-.5.3-.8.3-.2.1-.3.1-.5.1-.3 0-.5.1-.8.2-.4.2-1 .3-1.3.6-.5-.1-.3.2 0 .3m2.7-14.9c.1 0 .1.1.1.1h.4c.3 0 .5-.1.8 0 .3 0 .5.1.8.1.2.1.4 0 .6 0 .3 0 .6-.1.9-.1h1.2c.6.1 1.1.2 1.7.2.4 0 .7.1 1.1.1.4 0 .9.1 1.3.2.6.1 1.2.2 1.9.1.6 0 1.2-.2 1.8-.3.1 0 1.1 0 .9-.3-.2 0-.5 0-.7.1-.4.1-.8.1-1.2.1-.4 0-.8.1-1.1 0-.3 0-.6 0-.9-.1-.7-.1-1.3-.4-1.9-.4-.2 0-.3 0-.5-.1-.1 0-.2 0-.4-.1-.1 0-.2-.1-.4-.1h-1.4c-.2 0-.3-.1-.5-.1h-.6c-.5 0-1 0-1.5.1-.3 0-.6.1-.9.1-.5.3-1 .4-1.5.4m-22.2 3.5c.6-.1 1.2-.1 1.7-.2 2-.2 4.1-.4 6.1 0 .7.1 1.3.2 2 .3 1.1.1 2.2.7 3.2 1 1 .3 2 .7 3 1 .5.2.9.4 1.3.6.4.2.9.4 1.4.6l1.5.6c1.8.6 3.8-.1 5.6-.2h2.6c.2.1.4.1.6.2.5.1 1.1 0 1.6 0 .4 0 3.8.4 3.5-.5h-.1c-.2-.2-.6-.1-.9-.1h-1c-.5 0-.9-.1-1.3-.3l-.9-.3c-.5-.2-.9-.5-1.4-.7-1.2-.4-2.5-.1-3.7-.1-.6 0-1.2.2-1.8.2-.5 0-1.2 0-1.6-.2-.5-.2-1-.4-1.5-.5-.4-.1-.9-.1-1.3-.4-.3-.3-.5-.7-.7-.9-.2-.2-.6-.4-.8-.7-.3-.2-.3-.3-.1-.6.2-.3.4-.6.8-.7.8-.3 1.6 0 2.4.1.8.1 1.6.2 2.4.2.8 0 1.5-.2 2.3-.3.6-.1 1.2-.1 1.7.1l1.2.3c.2 0 .3.1.5.1.1 0 .3.1.4.1.3 0 .5-.1.8-.1h1.3c0-.1-.6-.2-.7-.2-.3 0-.5 0-.7.1-.2 0-.4.1-.6.1-.2 0-.5-.1-.7-.2-.4-.1-.8-.3-1.2-.4-.7-.2-1.5-.1-2.2 0-.7 0-1.3.1-2 .3-.5.1-1.2 0-1.7-.1-.4-.1-.7-.2-1-.2-.7-.1-1.1-.5-1.8-.3-.6.2-1.1.6-1.7 1-.2.1-.4.3-.7.4-.2.1-.6.1-.7.3-.3.3.4.5.6.5.6.1 1.1.2 1.6.5.3.2.6.5.9.8.4.4.7.6 1.4.6.5.1 1.1.2 1.5.5.3.2.6.3 1 .4h.9c.7 0 1.5-.1 2.2-.2.8-.1 1.6-.1 2.4 0 .4 0 .9.1 1.2.2.5.2.8.7 1.4.8.5.1 1 .2 1.6.3h1.6c.1 0 .4 0 .4.1s-.1.2-.2.2h-2.5c-.3 0-.6-.1-1-.1h-.7c-.2 0-.4-.1-.7-.1-.3-.1-.5 0-.8-.1h-.7c-.8 0-1.5 0-2.3.1-1.2.1-2.4.1-3.6.1-.8 0-1.8-.1-2.6-.4-.7-.3-1.3-.7-2-.9-.5-.2-.9-.4-1.4-.5-.4-.1-.6-.3-1-.5-.9-.4-1.9-.5-2.9-.8-.6-.2-1.3-.3-1.9-.5-.6-.2-1.2-.4-1.9-.5-.7-.2-1.3-.3-2.1-.3-.9-.1-1.4.1-2.3.3-.3.1-.6.1-1 .1s-.8.1-1.3.2h-1.2c-.5.1-1.1.3-1.6.5-.3.1-.5.2-.8.2v.2c1.1-.9 1.8-1 2.7-1.1m2.3-2.9c.7.1 1.4 0 2.1-.2.6-.2 1.3-.2 2-.2.9 0 2 0 2.9-.3.4-.1.8-.2 1.2-.2.4 0 .6 0 1-.1s.8-.2 1.2-.4c.5-.2 1-.2 1.4-.4l.6-.3c-.5 0-1 .1-1.5.3-.4.1-.8.1-1.2.2-.6.1-1.2.2-1.8.4-.5.1-1.1.1-1.7.2-.8.1-1.6.1-2.4.1-1.4 0-2.8.2-4.2.1-.7-.1-1.5-.1-2.2-.1h-1.9v.2c.9.1 1.8 0 2.6.1.5.1 1.2.5 1.9.6m13.9 6.5h-.1c0 .3 0 .6-.1.8-.1.3-.9.6-.9.8.4-.1.9-.4 1-.8.2-.2.1-.5.1-.8m-7.3 1.4c.2 0 .3 0 .5-.1h-.4l-.1.1m7.7 13.4c.2-.1.5-.1.7-.1 0-.4-1.2-.2-1.4-.2-.2 0-.5 0-.7.1-.5.1-1 0-1.5.2.3.1.7.1 1 .2.3.1.7.1 1 .1.3-.1.6-.1.9-.3"/><path class="st26" d="M-445.6 380.6c-1.1-.1-2.2-.2-3.4-.2-.3 0-.6-.2-.9-.2-.3-.1-.6-.1-.9-.2.2-.1.6-.1.8-.1h1c.8 0 1.5.1 2.2 0 1.4-.3 2.7-.2 4.1-.2.3 0 .6.1.9.2.4.1.7.4 1 .4-.1.2-.4.1-.6.1-.4 0-.8 0-1.1.1-.5.1-1.1.2-1.6.3-.5 0-1-.2-1.5-.2m-7.8-.6c-.5 0-1-.1-1.5 0-.6 0-1.3.1-1.9 0 .1-.2.5-.1.7-.2h.9c.4 0 .8-.2 1.2-.2.4 0 .8-.2 1.2-.1.2 0 1 .1 1 .4 0 .2-.1.2-.2.2-.4 0-.9-.1-1.4-.1m13.5.5c.1 0 .8.1.9-.1-.4 0-.6-.1-1-.3-.2-.1-.4-.1-.6-.2-.4-.1-.7-.3-1-.4-.4-.1-.8 0-1.2 0-1 0-2-.1-3 .1-.2 0-.5 0-.7.1-1 0-2.2.3-3.2 0-.7-.2-1.5-.2-2.2-.3-.5-.1-1 0-1.5 0-.3 0-.5.1-.7.2-.3.1-.5.1-.8.1-.3 0-.5.1-.7.1-.7 0-1.2-.1-1.8.3-.1 0-.3.1-.3.2s.5.1.6.2c.4.1.7 0 1.1.1.4 0 .8.2 1.3.2.4 0 .7-.1 1.1-.1 1 0 2 .1 3 .1.6 0 1.1.2 1.7.3.5.1 1.1 0 1.7 0 .4 0 .7 0 1.1.1.5.1 1.1 0 1.7.1 1 .1 2 0 3-.2.5-.5 1-.5 1.5-.6m5.5-2.5h-.2c-.7-.1-1.4 0-2.1-.1-.2 0-.5-.1-.7-.1-.1 0-.2 0-.3.1h-.6c-.1 0-.3 0-.4.1 0 .1.3.1.4.1.1 0 .3 0 .4.1.1 0 .2.1.3.2.2.1.4.1.6 0 .2 0 .3 0 .5-.1h.3c.2 0 .4-.1.5-.1.2 0 .3 0 .5-.1.2 0 .5 0 .8-.1m-25.5-7.5h1.2c.4 0 .8.2 1.3.2.4 0 .7 0 1 .1.9.2 1.4.4 2.3.3.8-.1 1.3-.1 2.1-.3.6-.2 1.3-.3 1.9-.5.6-.2 1.3-.3 1.9-.5.9-.3 2-.4 2.9-.8.3-.2.6-.4 1-.5.5-.2.9-.4 1.4-.5.7-.2 1.3-.6 2-.9.8-.3 1.8-.4 2.6-.4 1.2 0 2.4 0 3.6.1.8.1 1.5.1 2.3.1 1.4 0 2.8 0 4.2-.4.6-.1 1.1-.1 1.7-.1.7 0 1.3-.1 2-.3 1.2-.3 2.6-.3 3.8-.2.6 0 1.2.2 1.7.3.2 0 .7.2.7-.1-.8-.4-1.9-.4-2.8-.5-.9 0-1.9-.1-2.8 0-1 .1-1.7.6-2.7.6h-1.5c-.5 0-.8.2-1.3.3-.8.2-1.6.2-2.3.2h-2.1c-.9-.1-1.8-.2-2.7-.2-1.8 0-3.4-.1-5.1.3-.9.2-1.5.4-2.3 1-.4.3-.9.7-1.3.9-.4.2-1 .4-1.5.5-1.1.3-2.1.9-3.2 1-.7.1-1.3.1-2 .3-2 .4-4.1.2-6.1 0-.6-.1-1.1-.1-1.7-.2-.9-.1-1.6-.3-2.4-.5v.2c.3.1.5.1.8.2.3 0 .8.3 1.4.3"/><path class="st26" d="M-418.5 379.7c-.4.1-.7.2-1.1.4-.8.3-1.5.6-2.3.8-.4.1-.8.2-1.2.4-.4.1-.9.2-1.3.2-.5 0-1 .1-1.5 0-.4-.1-.8-.2-1.3-.4-.7-.2-1.5-.2-2.3-.2-.4 0-.8-.1-1.1-.2-.4-.1-.8 0-1.2-.1-.3-.1-.7-.3-1-.3l-1.2-.3c-.5-.1-1 0-1.5.1-.9.1-1.8.5-2.6.6-.4.1-.8.2-1.3.2-.2 0-.5 0-.7.1-.1 0-.3.1-.4.1-.6.1-1.6-.4-2.1.1.1.1.6.1.7.1.3 0 .5.1.7.1.3 0 .6-.1.9-.1.5 0 .9 0 1.4-.1.5-.1.8-.2 1.3-.3 1.2-.4 2.5-.3 3.8-.3.5 0 .9.2 1.3.4.7.3 1.4.2 2.1.3.7.1 1.5 0 2.2.1.5.1 1 .1 1.5.2.3.1.7.2 1 .3 2.1.3 3.9-.5 5.7-1.3.5-.2.9-.3 1.4-.3v-.4c.2-.2.1-.2.1-.2"/><path class="st26" d="M-460.3 379.8c1.2-.1 2.4-.5 3.7-.7.9-.2 1.8-.3 2.7-.2.8 0 1.6.1 2.4.1.9 0 1.7.4 2.5.4h1.7c.6 0 1.1-.2 1.6-.3.6-.1 1.3-.1 1.9 0 .6 0 1.2.1 1.8.2 1.3.3 2.5.9 3.8.9.8 0 1.4-.3 2.2-.4.5-.1 1.1 0 1.7 0 .4 0 .9 0 1.3.1s.7.2 1.1.3c.6.2 1.1.4 1.8.4h1c-.3-.2-.7-.1-1-.2-.5-.1-.9-.2-1.4-.2-.2 0-.4-.1-.6-.2-.2-.1-.3-.1-.5-.2s-.3-.1-.5-.2c-.4-.1-.9 0-1.4 0-.4 0-.8-.1-1.2-.1-.4 0-.7.1-1 .2-1.4.6-2.6 0-4-.5-1.1-.4-2.3-.5-3.5-.5-.8 0-1.6.2-2.4.2-1.4.1-3 .1-4.3-.2-.5-.1-1.2-.4-1.7-.4s-1.1.2-1.6.2c-1.2.1-2.3.4-3.4.5-.6.1-1.1.1-1.7.2-.9.1-1.7.4-2.6.5h-.5v.3c.3 0 .6-.1.9-.1.4 0 .9-.1 1.2-.1m29.8-.5c.4-.1.7-.3 1.1-.4 1.3-.3 2.7.1 3.9-.3.4-.1.7-.6 1.2-.7.6-.1 1.3 0 1.9 0 .6 0 1.1 0 1.7-.1.5-.1 1 .1 1.6-.1 0-.3-2.1 0-2.4 0-.6 0-1.2-.3-1.9-.3-.6 0-1.2 0-1.8.2-.3.1-.6.3-.9.4-.3.1-.6.1-.9.2-.3.1-.6.2-1 .2h-.8c-.4.1-.9.2-1.3.4-.4.3-.9.3-1.4.3h-1.7c-.3 0-1.1-.2-1.4 0 .5.1 1 .1 1.5.1.3 0 .6.1.8.2.2.1.5 0 .7 0 .4 0 .8 0 1.1-.1m-30.3-.1c.4 0 .8-.1 1.1-.3.6-.2 1-.3 1.6-.4.9-.1 1.9 0 2.8-.2.2 0 .6-.1.4-.2-.1-.1-.3 0-.4 0-1.1-.1-2.2-.1-3.3-.2-1 0-2.1-.1-3.2-.3-.2 0-.4-.1-.6-.1v.8c.4.1.8.2 1.2.2.1 0 .7 0 .5.1-.2.1-.8 0-.9 0-.2 0-.5 0-.7-.1v.7c.5.1 1 0 1.5 0m.4-5.4c.8 0 1.5-.1 2.2-.1 1.4-.1 2.8.1 4.2.1.8 0 1.6 0 2.4.1.5 0 1.1 0 1.7.2.6.1 1.2.3 1.8.4.4.1.8.1 1.2.2.5.2 1 .4 1.5.3-.2 0-.4-.2-.6-.3-.5-.2-.9-.2-1.4-.4-.4-.2-.8-.2-1.2-.4-.3-.1-.6-.1-1-.1s-.8-.1-1.2-.2c-.9-.2-1.9-.3-2.9-.3-.7 0-1.3 0-2-.2-.6-.2-1.4-.3-2.1-.2-.7.1-1.4.4-2.1.5-.9.1-1.8 0-2.6.1v.2h.2c.8.1 1.3.1 1.9.1"/><path class="st26" d="M-457.9 374.9c1.4 0 2.7.2 4.1.2 1.1 0 2.1.1 3.2.1s2.1 0 3.2.1c.8 0 1.6.2 2.5.2.3 0 .6.1 1 .1.6 0 1 0 1.6-.1.3 0 1.3.1 1.3-.3-.4 0-.8 0-1.1.1-.7.1-1.5.1-2.2 0-.8-.1-1.6-.2-2.5-.2-.8 0-1.6-.1-2.4-.2-.9-.1-1.8-.1-2.7-.1-1.6 0-3.4.1-5-.3-1.1-.2-2.2-.2-3.3-.2-.5 0-.9-.1-1.4 0-.3.1-.6.2-.8.2v.5c.4 0 .8-.1 1.2-.1 1.1.2 2.2 0 3.3 0m8.4 1.5c.5-.1 1.1-.1 1.6-.1s1.1.1 1.6 0c.3 0 .5-.1.7-.1.3-.1.6 0 .8-.1-.2-.2-1-.1-1.3-.1h-3.6c-.5 0-1-.1-1.6-.1-.6 0-1.2-.1-1.8-.2-.6-.1-1.2-.1-1.8-.1-2.4 0-4.9-.3-7.2.3 1.1 0 2.2-.2 3.2-.1.8.1 1.6.1 2.4.1.8 0 1.6.1 2.3.2 1.7.2 3.2.5 4.7.3m-1.1-10.7c.4-.1.7-.1 1.1-.1h.7c.3 0 .7 0 1-.1-.4-.1-.8-.2-1.2-.1h-.6c-.5 0-.9.1-1.4.1-.4 0-.8.1-1.2 0-.4 0-.8-.1-1.1-.2-.6-.1-1.3.2-1.9.2h-.8c-.4-.1-.8-.1-1.2-.1h-.5c-.1 0-.3-.1-.4-.1 0 .2.1.2.3.2.2 0 .4.1.6.1h.3c.2 0 .5.1.7.1h1c.3 0 .7 0 1-.1h.6l.6.3c.4.1.9 0 1.3-.1.3-.1.7 0 1.1-.1m-.1-.6h.1c0-.1-.5-.1-.6-.1-.3 0-.5-.1-.7-.1-.3-.1-.5-.2-.8-.3-.3-.1-.5-.3-.8-.3h-.9c-.3.1-.5.2-.7.3-.3.1-.6.3-.9.4 0 .3 1.6-.1 1.8-.2.5 0 .9 0 1.4.1.2 0 .5 0 .7.1.2 0 .3.1.5.1h.6c.1.1.2.1.3 0m-10.1 2.2c.4.1.8.1 1.3.2.4.1.7.1 1.1.2.7.1 1.5.2 2.2.2.7 0 1.3-.1 2 0 .9.1 2 .1 2.9-.1.4-.1.8-.2 1.2-.2.4 0 .6 0 1-.1l1.2-.3c.5-.2 1-.2 1.4-.3.2-.1.4-.2.6-.2-.5 0-1 .1-1.5.3-.4.1-.8.1-1.2.2l-1.8.3c-.5.1-1.1.1-1.7.1h-2.4c-2.5-.1-4.9-.4-7.4-1.1h-.1c-.1 0-.2-.1-.4-.1v.4h.1c.5 0 1 .4 1.5.5m12.1 17.9c.3.2.7.3 1.1.4.3 0 .6.1.8.1h.8c.2 0 .3.1.5.1.4 0 .8.1 1.1.2.2.1.4.1.6.1h.3c-.3-.1-.6-.2-.9-.2-.2 0-.4-.1-.6-.2l-.9-.3c-.3-.1-.6-.1-.8-.1-.3 0-.5 0-.8-.1-.1 0-.2 0-.3-.1-.1 0-.2-.1-.4-.1-.2-.1-.5-.1-.7-.2-.3-.1-.7-.5-.6-.8v-.1c.2 0 .4-.1.5-.1h.6c.4 0 .7-.1 1-.3.1-.1.3-.2.4-.3.1-.1.3-.1.4-.2.1 0 .2-.1.3-.2.1-.1.4-.1.4-.2-.1-.1-.3 0-.5 0-.3.1-.6.2-.8.4-.3.2-.6.3-.8.4-.2.1-.5.1-.8.1-.2 0-.4 0-.6.1-.1 0-.2 0-.3.1-.1 0-.2.1-.2.1-.1 0-.5 0-.4.2.1.1.2.1.3.2.2.1.3.2.5.3.3.2.5.5.8.7m-11.5-4.8c.6 0 1.2.1 1.8.4.6.3 1.2.6 1.8.7 1.3.1 2.6.1 3.9.1 1.2 0 2.4.2 3.6.2.4 0 .8-.2 1.2-.3.3 0 .7.1 1 .1.8 0 1.5.1 2.2.1h.9c.3 0 .4-.2.7-.2v-.2c-.1-.1-.2 0-.3 0-.2 0-.3.2-.5.2-.5.1-1.1-.1-1.7-.1-.7 0-1.4-.1-2.1-.1-1.2 0-2.5.1-3.7 0-1.7-.3-3.4 0-5.1-.2-.6-.1-1.1-.3-1.7-.5-.1-.1-.3-.2-.4-.3-.2-.1-.3-.1-.5-.1-.4 0-.8-.1-1.2-.1-.6 0-1.1.2-1.6.3-.1 0-.2.1-.4.1v.2c.3-.1.5-.1.7-.1.4-.2 1-.2 1.4-.2m2.8 1.8c.7.1 1.3.1 2.1.2s1.5.2 2.3.4c1.2.2 2.3-.1 3.5-.1 1.1-.1 2.1-.1 3.1-.4.3-.1.6-.1.9-.2-.1-.3-2 0-2.2.1-1.1.1-2.1.4-3.2.1-.5-.1-1.1-.1-1.7-.1-1 0-1.9-.2-2.8-.2-1 0-2-.2-3-.2-1.1 0-2.2-.3-3.4-.2-.2 0-.4.1-.5.1v.3h.2c1.5-.2 3.3-.1 4.7.2m4.3 1.1c-.8-.1-1.6-.1-2.4-.1-1.8-.2-4-1.1-5.8-.4.1.2 1.1.1 1.3.1.6 0 1.2.1 1.8.2 1.1.2 2.1.3 3.1.3.3 0 1.9.1 2-.1m8.7-10.4c.6 0 1.2.2 1.9.2.4 0 .9.3 1.3.1v-.1c-.2 0-.5-.1-.7-.2-.3-.1-.6-.1-.8-.2-1.1-.2-2.3-.2-3.4-.5-.7-.2-1.3-.6-2-.9-.3-.1-.6-.1-1-.2s-.8-.4-.2-.5c.6-.1 1.3-.1 2-.2.8-.1 1.7-.3 2.5-.6s1.7-.4 2.4-.9c.4-.2.7-.5 1.1-.7.4-.2.6-.2 1-.1 1 0 2-.2 3-.4.5-.1 1.1.1 1.6.1.7 0 1.5.1 2.2.1 1.3 0 2.7-.2 4.1-.2 1.7-.1 3.3-.6 4.9-.8.6-.1 1.3 0 1.9-.1 1-.2 2-.1 3 .1.5.1 1 .2 1.4.5.1.1 1.3.7 1.3.6 0-.2-.8-.5-1-.7-.4-.2-.7-.4-1.1-.6-.4-.2-.9-.3-1.4-.3-1-.1-1.8-.2-2.7 0-1.2.2-2.3.6-3.5.6h-1.3c-.4 0-.8.2-1.2.2-1 0-1.8.2-2.8.3-1.7.1-3.3-.3-5 0-1.8.4-3.7-.2-5.3.9-.4.3-.8.6-1.3.8-.4.1-.9.2-1.2.3-.7.4-1.3.5-2.1.7-.7.1-1.4.1-2 .2-.3.1-.7.1-1 .2-.2.1-.5.2-.7.3-.2.1-.5 0-.7.1 0 .3 1.8.3 2 .3.9.2 1.6.7 2.5 1 .7.4 1.4.6 2.3.6"/><path class="st26" d="M-447.1 371.4c.4.2.7.4 1.1.4.1 0 .4.1.5 0 0 0 .1-.3 0-.3-.6-.1-1.2-.1-1.7-.3-.3-.2-.5-.2-.9-.2.1.2.7.3 1 .4m-2.9-2.2c-.6 0-1.2 0-1.7-.1-.6 0-1 .1-1.5.3-1.1.3-2.3.5-3.4.2-1.2-.4-2.5-.3-3.7-.4.2.1.6.1.9.2.4.1.8.3 1.2.3.8 0 1.6.3 2.5.4.8 0 1.8.3 2.6-.1.4-.2.8-.3 1.2-.4.9-.1 1.9.1 2.7-.2.3-.1.8-.2 1-.4 0 0-.7 0-.9.1-.3-.1-.6 0-.9.1m12.4 1.8c.7-.2 1.1-.4 1.9-.3.8.1 1.7.3 2.5.4.4 0 .8 0 1.2.1.5.1.9.2 1.4.2.7 0 1.4.1 2.1.2.6.1 1.1.4 1.7.6.2 0 .4 0 .4.2.1.2-.2.3-.3.3-.3.1-.7 0-1 .1-.4.1-.8.1-1.2.3-.4.2-.8.3-1.2.4-.4.1-.9.1-1.3.1-.2 0-.4.1-.6.1-.2.1-.4.1-.7.1-.3 0-.6.1-.9.1-.4 0-.7 0-1.1.1-.3 0-.8.1-1.1 0-.1 0-.3-.1-.4-.1-.2-.1-.5-.1-.8-.1-.3 0-.6-.1-.9-.1h-.4c-.1 0-.1.1-.1.1.5 0 .9.1 1.4.1.3 0 .6.1.9.1.5.1 1 0 1.5.1h.6c.2 0 .3 0 .5-.1h1.4c.2 0 .3-.1.5-.2h.6c.4 0 .8-.1 1.1-.1.3-.1.6 0 .8-.1.3-.1.5-.2.8-.3.2 0 .3-.1.4-.2.2 0 .4 0 .6-.1.2 0 .3-.1.4-.2.1-.1.5-.2.6-.3.1-.1 0-.2-.1-.3-.7-.8-1.5-.5-2.4-.7-1-.2-2.2-.4-3.2-.5-.6-.1-1.2-.1-1.8-.2-.6 0-1.2-.2-1.8-.3-.6-.1-1.4-.1-1.9.1s-.9.3-1.4.4c-.4.1-1 .2-1.2.7.4.1.7-.3 1-.4.7-.2 1.1-.2 1.5-.3m20-11.2c-.4 0-.8 0-1.3.1-.8.2-1.6.1-2.4.2-1.1.1-2.1.4-3.2.5-1.4.1-2.8.1-4.2 0-1.3-.1-2.5 0-3.8-.2-.5-.1-1-.3-1.5-.4-.3 0-.6-.1-1-.1-.6 0-1.1.1-1.7.3-.7.2-1.5.2-2.3.1-.3-.1-.6-.1-.9-.2-.3-.1-.7-.1-1-.2-.5 0-1.2.1-1.1.7.1.5.4.9.7 1.2.7.7 1.7 1 2.6 1.2 1.2.3 2.5 0 3.6 0 .8 0 1.6 0 2.5.1.3 0 .7 0 1 .1l.9.3c.5.1 1 .3 1.4.6.4.3.9.2 1.4.2.5 0 .9.1 1.4.1h1.1c.6 0 1.1.1 1.7.1.7 0 1.4-.1 2.1-.2.6-.1 1.2 0 1.8-.1.3 0 .7 0 1-.3l.3-.3c.2-.2.4-.3.6-.5.7-.4 1.3-.8 2.1-1v-.2c-.4.1-.8.2-1.2.4-.3.1-.6.3-.9.5-.2.1-.5.3-.7.4-.3.2-.6.3-.9.5-.8.4-1.6.5-2.5.4-1.2-.1-2.4-.1-3.6-.1-1.5-.1-3.1 0-4.5-.7-.5-.2-.8-.5-1.3-.6-.5-.1-1 0-1.5.1-1.1.1-2.2 0-3.2 0-1.1 0-2.5 0-3.5-.5-.3-.2-.6-.5-.9-.7-.3-.2-.8-.4-.8-.8-.1-.8 1.2-.5 1.6-.4.3 0 .6.2 1 .2.6.1 1.2 0 1.8 0 .8-.1 1.6-.5 2.4-.3.5.1 1 .1 1.5.3.2 0 .4.1.6.1 1.3.3 2.8.2 4.2.3 1.8.1 3.5 0 5.2-.2.8-.1 1.7-.3 2.5-.5.2 0 .5 0 .7-.1.3 0 .6-.1.9-.2.7-.2 1.5.1 2.3.1h.9v-.3h-1.1c-.1.1-.4.1-.8 0"/><path class="st26" d="M-418 361.3c.2 0 .5.1.7.1h.4c.3.2-.1.3-.3.3-.3.1-.4.2-.6.4-.6.4-.9.8-1.6.9-.6.1-1.3 0-1.9 0-2.2 0-4.4.1-6.5-.1-.5 0-1.1-.1-1.6-.3-.5-.2-1.1-.5-1.7-.6-.2 0-.3 0-.5-.1-.3-.1-.5-.1-.8-.1-.2 0-.4 0-.6-.1-.2 0-.5 0-.6-.1-.1-.1.4-.1.5-.1h2.9c.6 0 1.2.1 1.8.1 1.4.1 2.9 0 4.3 0h1.6c.5-.1.9-.3 1.4-.4 1-.2 2.2-.1 3.1.1m-18.8.9c-.1 0-.8-.3-.8-.4.1-.1.3 0 .5 0 .3 0 .5-.1.8-.1.6 0 1.2-.1 1.7-.1.1 0 .4 0 .3.1-.1.1-.6.2-.7.2-.6.3-1.1.6-1.8.3m16.7-1.5c-.6 0-1.1.1-1.7.3-1.2.4-3 .2-4.3.2h-4.2c-.6 0-1.2-.1-1.8-.1h-1.4c-.2 0-.4.1-.7.1-.5.1-1 0-1.6 0-.9 0-1.8.1-2.7.1h-.9c-.3 0-.6-.1-.9-.1-.1.3.4.4.5.4.5.1 1 .1 1.5.3.4.1.7.4 1.1.5.2.1.5 0 .7 0 .4 0 .7 0 1.1-.1.5-.2.9-.4 1.4-.4h1.5c.3 0 .5 0 .8.1.2.1.3.2.5.2.3.2.7.3 1 .4.6.2 1.2.3 1.8.4 1.2.1 2.5 0 3.7 0 1.5-.1 3 .1 4.4 0 .7-.1 1.5-.2 2.1-.6.6-.3 1.1-.6 1.7-.8.3-.1.5-.1.8-.2v-.7c-.6 0-1.3.1-1.4.1-.8.2-1.9-.1-3-.1"/><path class="st26" d="M-418.4 358.1c-.2 0-.3.1-.5.1h-.4c-.2 0-.3.1-.5.1-.1 0-.3.1-.4.1-.2.1-.4.1-.6.2-.1 0-.3.1-.4.1-.2 0-.3 0-.5.1-.4.1-.7.2-1.1.2-.5.1-1 .2-1.6.3-1.4.3-2.8.2-4.2.2-.7 0-1.4.1-2.1.1-.7 0-1-.1-1.7-.3-.6-.2-1.1-.4-1.7-.4-.5 0-.8 0-1.3.1s-1 0-1.5-.1c-.4-.1-.7-.2-1-.3-.3-.1-.5-.2-.8-.3-.5-.2-1.2-.2-1.8-.1-.6 0-1.2.2-1.8.3-.2 0-.5.1-.7.2-.2.1-.4.3-.6.4-.4.1-.8 0-1.2.1-.4.1-.7.2-1 .4-.3.1-.5.3-.8.4-.1 0-.3 0-.4.1-.2.1-.2.3-.4.4-.2.1-.5.1-.7.2.1.5.4.7.8.8.2.1.4.1.6.1.3 0 .5.1.8.2.6.2 1.2.3 1.8.5.7.2 1.3.6 1.9 1 .7.4 1.5.5 2.2.8.9.4 1.9.8 2.9.8 1.4.1 2.8-.2 4.2-.2.3 0 .6-.1.9-.1.3.1.5.2.8.3l.9.3c.1 0 .4.1.3-.1-.2 0-.3 0-.5-.1-.3-.1-.6-.2-.8-.4-.2-.2-.5-.3-.8-.3-.5-.1-1.1.1-1.6.1-.6 0-1.2.1-1.7 0-.9 0-1.7.2-2.5.1-.6-.1-1-.3-1.6-.6-.4-.2-.7-.2-1.1-.3-.7-.2-1.3-.9-2-1.1-.2-.1-.5-.1-.7-.2l-.9-.3-.6-.3c-.2-.1-.4-.1-.7-.2-.3-.1-.5-.2-.8-.3-.3 0-.6-.1-.9-.2-.4-.1-.1-.2.1-.3.3-.1.4-.3.6-.5.1-.1.2-.1.3-.1.3-.1.5-.2.7-.3.2-.1.4-.3.6-.3h.4c.2 0 .4 0 .6-.1l.6-.3c.2-.1.3-.2.5-.3.3-.2.7-.2 1.2-.2.4 0 .9-.1 1.4 0 .5.1 1 .3 1.5.4 1.5.3 3-.1 4.5-.1.6 0 1.2.1 1.7.3.5.1.9.4 1.3.6.4.2.6 0 1.1-.1h1.3c1.5.1 3 0 4.5-.2.7-.1 1.5-.3 2.2-.4.3 0 .6-.1.9-.1.2 0 .4-.1.7-.2.2-.1.4-.1.5-.1.2 0 .4-.1.6-.1.3-.1.6-.1.9-.2.2-.1.4-.1.7-.1.1 0 .2-.1.3-.1h.3c.7 0 1.3 0 2 .1h.1v-.2c-1.4 0-2.3-.2-3.3 0"/><path class="st26" d="M-457.5 360.3h2.2c1.7 0 3.3.1 5-.2.6-.1 1.2-.4 1.8-.5.3 0 .7 0 1-.1.6-.2 1.1-.6 1.7-.8.6-.3 1.2-.2 1.9-.4.2-.1.4-.2.6-.2.7-.2 1.5-.3 2.2-.3 1 0 1.9.1 2.9.1.5 0 .9-.1 1.3-.2.2-.1.5 0 .7 0 .5 0 1-.1 1.5-.1h1.7c.4 0 .8.1 1.2.2.5.1 1 .1 1.5.2.2 0 .5 0 .7.1.3.1.5.1.8.1.2.1.5.1.7.2.2 0 .4.1.6.1.5.1 1.1 0 1.6 0s.8 0 1.3-.2c.8-.2 1.7-.1 2.5-.1 1 0 1.8-.3 2.7-.7.2-.1.4-.1.7-.2h.4c.2 0 .4-.1.6-.2h.6c.4 0 .9 0 1.3.1.2 0 .4.1.6.2v-.5c-.4 0-.8-.1-1.3-.1s-1.1.1-1.6.1c-.1 0-.2 0-.3.1-.6.2-1.1.5-1.6.6-.6.2-1.2.3-1.8.3-.9 0-2-.2-2.9.2-.4.2-.9.3-1.3.3-1 0-1.9-.2-2.8-.5-.2-.1-.4-.1-.6-.1-.3 0-.6 0-.8-.1h-.3c-.4-.1-.8-.2-1.2-.2h-1.9c-.2 0-.4.1-.6.1-.5.1-1.1 0-1.6.1-.2 0-.5 0-.7.1-.3.1-.6.2-.9.2-.5 0-1 0-1.5-.1h-1.3c-.9-.1-1.8-.2-2.7.1-.4.2-.8.3-1.2.4-.3.1-.7.1-1.1.2-.3.1-.5.4-.8.5-.3.1-.6.3-1 .4-.4.1-.8 0-1.2.1-.4 0-.8.2-1.1.3-.8.2-1.7.4-2.5.6-1 .2-2 0-2.9 0-.9-.1-1.9 0-2.8-.1-.7 0-1.5 0-2.2-.1-.7-.1-1.4-.1-2.1-.1v.3c.7 0 1.4.1 2.1.1.4-.3 1.3-.3 2.2-.3m-2.7 11.7c.7-.1 1.5 0 2.2-.1.9-.1 1.9 0 2.8-.1 1-.1 2-.2 2.9 0 .8.1 1.7.3 2.5.6.4.1.8.2 1.1.3.4 0 .8 0 1.2.1.3.1.6.2 1 .4.3.1.5.4.8.5.3.1.7.1 1.1.2.4.1.8.2 1.2.4.9.3 1.8.2 2.7.1h1.3c.5 0 1-.1 1.5-.1.3 0 .6.2.9.2.2.1.5 0 .7.1.5.1 1.1 0 1.6.1.2 0 .4.1.6.1h1.9c.3 0 .7 0 1-.1.9-.1 1.7-.3 2.5-.5.3-.1.6-.1.9-.2.4-.1.8-.3 1.2-.5.4-.1.9-.3 1.3-.5.5-.2 1-.4 1.4-.6.6-.3 1.6-.1 2.3-.1 1 0 2-.3 3-.3h3.1v-.3h-.9c-1.3 0-2.7.2-4 .3h-1.8c-.9 0-2-.1-2.8.4-.9.6-1.9.9-2.9 1.2-.6.2-1.3.4-1.9.5h-.8c-.8 0-1.5.2-2.3.3h-1.7c-.5 0-1-.1-1.5-.1h-.7c-.5-.1-.8-.2-1.3-.2-1 0-1.9.1-2.9.1-.7 0-1.5-.1-2.2-.3-.2-.1-.4-.1-.6-.2-.6-.2-1.2-.1-1.9-.4-.6-.3-1.1-.6-1.7-.8-.3-.1-.7-.1-1-.1-.6 0-1.2-.4-1.8-.5-1.7-.3-3.3-.2-5-.2h-2.2c-.9 0-1.8-.1-2.7 0-.7 0-1.4.1-2.1.1v.3c.6-.1 1.3-.1 2-.1"/><path class="st26" d="M-418.5 372.5c-1.1.1-2.1.7-3.1.9-.7.1-1.4.1-2.1.1-.5 0-.9.2-1.4.3-.4.1-.6.2-1 .3-.2.1-.5 0-.6.2-.3.3.3.2.5.2.4-.1.7-.4 1.1-.4.6-.1 1.2-.1 1.8-.1.6-.1 1.1-.2 1.6-.2.7 0 1.4-.2 2-.4.3-.1.7-.2 1.1-.3.3 0 .5.1.8.1.6 0 1.2-.1 1.8-.1h.4v-.5h-1.5c-.4-.1-.9-.2-1.4-.1m-.3-4.8c-.7-.2-1.3-.2-2-.1-.5 0-.9.1-1.4.2-.3.1-.7.1-1 .3-.3.2-.5.3-.9.4-.8.2-1.6.3-2.4.3-.5 0-1-.1-1.5-.1-.3 0-.5-.1-.8-.1-.8 0-1.5-.2-2.3-.1-.5.1-.9.2-1.4.2-.6 0-1.2 0-1.8-.1-1.2-.1-2.4-.1-3.6 0-.7.1-1.3.3-1.9.7-.6.4-.4 1.1-.8 1.7-.2.3-.5.5-.8.7-.3.1-.5.3-.8.5-.6.3-1.9.3-2.4-.3-.2-.3-.2-.6 0-.9.1-.1.3-.8-.1-.5-.2.2-.3 1.2-.2 1.4.1.2.6.5.8.5 1 .4 3.2.1 3.8-.9.2-.4.2-.8.4-1.2.4-.6 1.1-.9 1.7-1.1.6-.2 1.2-.2 1.8-.2.4 0 .9-.2 1.4-.1.6.1 1.2.2 1.8.2.4 0 .9 0 1.3-.1l1.2-.3h1.4c.4.1.8.1 1.3.1.7 0 1.3.1 2 .2.6 0 1.3 0 1.9-.1.6-.1 1.2-.3 1.8-.5.6-.1 1.2-.3 1.8-.3.5 0 1 0 1.5.1.5 0 .7.3 1.1.6.4.3.9.5 1.3.7.4.2.8.3 1.2.4v-.2c-.8-.2-1.4-.6-2.1-1-.5-.4-.8-.8-1.3-1"/><path class="st26" d="M-417.9 369.3c-.5-.3-1-.4-1.7-.5-.6-.1-1.2-.1-1.9-.1-.5 0-1.1-.1-1.6.1-.5.1-.9.3-1.5.3-1.1.1-2.2 0-3.3.1-.8 0-1.7.3-2.4.5.8.4 1.9.2 2.8.5.6.2 1 .3 1.5.6.3.1.7.3 1 .4h-.1c-.2-.1-.9-.4-.9-.6h.1c-.2-.1-.4-.1-.5-.2-.2-.2-.5-.4-.7-.5-.3-.1-.7-.1-.9-.2.4-.3 1.4-.1 1.9-.1.8.1 1.7.1 2.5-.1 1.1-.2 2.2-.2 3.2-.1 1 0 1.8-.1 2.6.4.2.1.3.3.6.4.2.1.6.2.3.3h-.4c-.6 0-1.2.2-1.9.3-.6.1-1.2 0-1.8 0-.9 0-1.8.1-2.7.1-.5 0-1-.1-1.4-.2-.3 0-.6-.1-.8-.2.4.2.9.3 1 .7h-.2c.8.4 1.7.4 2.5.3.8 0 1.5-.3 2.3-.4 1.1-.1 2.1-.3 3.2-.3.1 0 .7 0 1.4.1v-.7c-.3-.1-.5-.1-.8-.2-.4-.1-.8-.3-1.4-.7"/><path class="st26" d="M-425.8 370.7c-.1.2.6.5.8.6h.3c-.1-.3-.6-.5-1.1-.6m8.2 7.6c-.9-.1-1.7.1-2.5.5-.6.3-1.3.6-1.9.8-1.1.4-2.4.4-3.5.4s-2.2 0-3.3-.1c-.4 0-.8 0-1.2-.1-.2 0-.6-.2-.7-.1h-.1c.4.3 1.3.2 1.8.4 1.1.3 2.4.3 3.6.5 1.4.2 2.6 0 3.9-.5.7-.2 1.4-.4 2-.7.4-.1.7-.3 1-.4h.5c.7 0 1.4 0 2.1.1h.4v-.7c-.7 0-1.4 0-2.1-.1m-14.3-.1c0 .1-.1.1-.2.1-.1.1-.2.1-.3.1h-1.3c-.2 0-.3.1-.5.1-.6 0-1.2-.1-1.8-.1-.2 0-.4 0-.6.1-.2.1-.5.1-.7.1-.3-.1-.6-.3-1-.3s-.7-.1-1.1-.2c-.2 0-.4-.1-.5-.2 0-.1.1-.1.2-.1h.5c.3 0 .6-.1.9-.1.3 0 .6-.1.9 0 .7.1 1.3.2 2 .2s1.3-.1 2 .1c.2 0 .3.1.5.2.2 0 .4.1.6.1.2-.2.4-.3.4-.1m13-1.9c-.3-.1-.6-.1-.9-.1h-3.3c-1.4 0-2.8.3-4.1.6-.8.2-1.6.6-2.3.8-.3.1-.6.3-1 .3-.6.1-1.2-.1-1.8-.2-.7-.1-1.4-.3-2.1-.3-.5 0-1.1 0-1.6-.1-.6-.1-1.2-.1-1.8-.2-.6-.1-1.2 0-1.8.1h-.5c-.2.1-.4.3-.2.5s.7.3 1 .4c.2.1.4.1.6.1h.4l.6.3c.2.1.5 0 .7.1.6 0 1.1-.2 1.6-.2h2.8c.5-.1 1-.2 1.5-.2s1.1 0 1.6-.2c.4-.2.9-.2 1.3-.3.5-.2 1-.5 1.5-.7 1.3-.4 2.8-.3 4.1-.3 1.1 0 2.3.1 3.5.3.7.1 1.2.6 1.8.7.5.1 1.1.3 1.6.4v-.8c-.4-.1-.9-.2-1.3-.3-.5 0-1.1-.5-1.9-.7m-40.5-3.4c1.1 0 2.1-.3 3.2-.4.8-.1 1.7-.1 2.4 0 .3 0 .6.1.9.1.4 0 .6.2 1 .3.5.1 1.1.1 1.6.1.8.1 1.5.3 2.3.3.3 0 .6.1.9.2.7.3 1.3.6 2 .8.5.1 1 .3 1.4.4.4.1.8.1 1.2.1h1.3c.9-.1 1.6-.2 2.5-.2.4 0 .8 0 1.2.1.7.2 1.4.3 2.2.3.4 0 .7.1 1.1.1.3.1.7 0 1 0h.8c.4 0 .8-.1 1.1-.2.4-.1.8 0 1.2.1.5 0 1 .1 1.6.2 1.1.1 2.2-.3 3.3-.5.8-.1 1.6 0 2.4 0 .8.1 1.4 0 2.2-.3l1.5-.6c.3-.1.5-.2.8-.2h.9c.7 0 1.4-.1 2.1-.1v-.2h-.1c-.7.1-1.3.1-2 .1-.5 0-1.1-.1-1.7 0-.5.1-1.1.4-1.6.7-.4.2-.8.2-1.2.2-1 0-2.1-.1-3.1 0-.9 0-1.8.2-2.7.3-1.3.1-2.6 0-3.9.1-.3 0-.6.1-.9.1-.5 0-.9 0-1.4-.1-.4-.1-.8-.1-1.2-.2-.3 0-.6-.1-.9-.1-.5 0-.9-.2-1.4-.2-.7-.1-1.5-.1-2.2-.1-.5 0-.9.1-1.3.1-.3.1-.6.1-1 .1s-.7-.1-1.1-.1c-.3 0-.6 0-.9-.1-.3-.1-.6-.1-1-.2s-.8-.2-1.2-.4c-.4-.2-.8-.4-1.2-.5-.4-.1-.8-.2-1.2-.2-.4-.1-.7-.2-1.1-.4-.6-.2-1.2-.3-1.8-.5-.5-.1-1.1-.1-1.6-.1-.4 0-.9 0-1.4-.1-.4-.1-.7 0-1.1.1-.6.1-1.2.1-1.7.1-.6.1-1.2.3-1.8.4-.4 0-.7 0-1.1-.1-.6-.1-1.2-.1-1.7-.1h-.3v.5c.7.4 1.7.3 2.7.3"/><path class="st26" d="M-458.5 376.9c.8.1 1.6.3 2.5.3 1.3 0 2.5.1 3.8.2 1.4.1 2.9 0 4.3.2.9.1 1.9.1 2.8 0 .6-.1 1.1-.2 1.7-.4.6-.2 1.1-.5 1.7-.8.2-.1.5-.2.8-.2l1.5-.3c.3-.1.6-.3 1-.4.6-.1 1.2.1 1.8.2.3.1.6.1.9.2.3.1.5.1.8.2.7 0 1.3 0 2 .1.4.1.9.2 1.3.2.7 0 1.3-.2 2-.1.7 0 1.3.1 2 .1.9-.1 1.8-.4 2.7-.4 1.3-.1 2.7-.1 4-.3.6-.1 1.1-.2 1.7-.2h1.4c.5.1 1 .1 1.5.1.4 0 .8-.1 1.3-.1v-.5c-.2.1-.4.1-.6.2-.4.1-.8.1-1.2.1h-.6c-.2 0-.4-.1-.5-.1-.6-.1-1.2.1-1.7.1-.4 0-.9.2-1.3.2-.7.1-1.5.1-2.2.1-.6 0-1.2 0-1.8.1-.6.1-1.2.4-1.8.4-.7.1-1.4 0-2.1 0-.6 0-1.5 0-2.1.2-.3.1-.5.1-.7 0-.3-.1-.6-.1-.9-.2-.6-.1-1.1-.1-1.7-.2-.6-.1-1.1-.4-1.7-.4-.6 0-1.1-.2-1.6-.3-.5 0-.8.1-1.2.3-.3.1-.5.2-.8.3-.4.1-.9.3-1.3.4-.5.1-1 .2-1.4.3-.4 0-.8.2-1.2.3-.7.1-1.3.3-2 .4-1.1.2-2.3.1-3.4.1h-3.6c-1.1 0-2.3-.3-3.4-.5-.7-.1-1.4-.2-2.1-.2h-1.7c-.7 0-1.4 0-2.1-.1v.4c.2 0 .5.1.7.1.4-.2 1.4-.2 2.5-.1"/><path class="st26" d="M-420.4 375.8c-1.1 0-2.2.1-3.3.2-1 0-1.8.1-2.7.3-.7.2-1.4.5-2.1.7-.2.1-.4.1-.6.2-.5.1-.9.4-1.4.4-.9 0-1.8-.1-2.7-.3-.7-.1-1.4-.2-2.1-.4-.7-.2-1.5-.4-2.2-.4h-1.9c-.8 0-1.5.4-2.1.9-.2.2-.8.4-.6.6.1.2.7.4.9.5.6.3 1.4.2 2 .5.3.1 1.2.7 1.4.4-.3-.3-.8-.3-1.2-.4-.4-.2-.8-.2-1.2-.4-.4-.2-1-.2-1.1-.7-.1-.4.3-.6.7-.8 1.5-.8 3.3-.4 4.8-.1.7.1 1.4.3 2.1.4.3 0 .7.2 1 .2.9 0 1.8.4 2.7.1.4-.1.7-.3 1-.4.7-.2 1.2-.5 1.9-.7.7-.2 1.3-.3 2.1-.4.7-.1 1.5 0 2.2-.1 1.3-.1 2.7-.1 4.1-.1.4 0 .8.1 1.2.2.7.2 1.3.5 2 .6v-.4c-.7-.1-1.4-.2-2.1-.4-.9-.3-1.9-.2-2.8-.2m1.6 7.6c-.7 0-1.5-.1-2.2-.1-.2 0-.4-.1-.6-.1h-.6c-.4-.1-.7-.4-1.1-.5-.7-.2-1.7-.2-2.4 0-1 .2-2 .5-3 .5-.6 0-1.1.1-1.7.1h-1c-.4-.1-.7-.2-1-.4-.6-.2-1.1-.4-1.7-.4-.5 0-.8 0-1.3.1s-1 0-1.5-.1c-.4-.1-.7-.2-1-.3-.3-.1-.5-.2-.8-.3-.5-.2-1.2-.2-1.8-.1-.7 0-1.5.2-2.2.3-.6.1-1.1.3-1.6.5s-1 .3-1.5.5c-.3.1-.5.3-.8.4-.1 0-.3 0-.4.1-.2.1-.2.3-.4.4-.2.1-.5.1-.7.2.1.5.4.7.8.8.2.1.4.1.6.1.3 0 .5.1.8.2.6.2 1.2.3 1.8.5.7.2 1.3.6 1.9 1 .7.4 1.5.5 2.2.8.9.4 1.9.8 2.9.8 1.4.1 2.8-.2 4.2-.2h1c.6 0 1.1.1 1.7.1.6 0 1.2.1 1.9.1.6 0 1.2.1 1.7.4.5.2.8.7 1.4.8.6.1 1.1.1 1.7 0 .6 0 1.1-.2 1.7-.5.8-.3 1.6-.8 2-1.5.2-.4.3-.7.3-1.1-.3 0-.4.5-.4.7-.1.3-.3.5-.6.7-.5.4-1.1.9-1.7 1.2-.5.2-1 .2-1.4.3-.5.1-1.2.1-1.7-.1-.5-.1-.8-.5-1.2-.7-.3-.2-.7-.2-1-.3-1.4-.4-2.8-.3-4.2-.4h-1.1c-.8.1-1.7.1-2.6.1-.9 0-1.7.2-2.5.1-.6-.1-1-.3-1.6-.6-.4-.2-.7-.2-1.1-.3-.7-.2-1.3-.9-2-1.1-.2-.1-.5-.1-.7-.2l-.9-.3c-.3-.1-.7-.3-1-.4-.4-.1-.8-.2-1.1-.3-.1 0-.4-.2-.5-.3-.1-.1 0-.3.1-.4.2-.2.6-.3.8-.4.4-.2 1-.3 1.4-.4.5-.1.9-.4 1.4-.6.4-.2.8-.3 1.3-.3.4 0 .7-.1 1.1 0 .3 0 .6.1.8.1.3 0 .7.1 1 .1.7.1 1.5.3 2.2.3.8-.1 1.5-.2 2.3-.2.6 0 1.2.1 1.7.3.4.1.7.3 1 .4.3.1.6.1 1 .1.7 0 1.5-.1 2.2-.1.7 0 1.4-.1 2-.2.2 0 .4-.1.5-.2.2-.1.5-.1.7-.1.3 0 .5-.1.8-.1.3 0 .5 0 .8.1.5.2 1 .6 1.5.6.8.1 1.6.1 2.4.1 1.2 0 2.3.3 3.4.3h.9v-.3h-1.1c-.7-.2-1.4-.3-2.2-.3"/><path class="st26" d="M-419.2 381.7c-1.5.4-3 .3-4.5.3h-1.8c-.6 0-1 .1-1.6.2-.4.1-.8 0-1.2 0-.6 0-1.1.1-1.7.1-.5 0-1.2.2-1.6 0-.4-.2-.7-.6-1.1-.7-.4-.1-.9-.1-1.4-.1-.8 0-1.5.1-2.3.1-.2 0-1.9-.2-1.9-.3 0 .1 0 .2.1.2.7.1 1.5.4 2.3.4.5 0 1-.1 1.5-.2.7-.1 1.3 0 1.9.3.4.2.8.5 1.3.5.6 0 1.2 0 1.8-.1 1-.2 2 0 3-.2 1.3-.3 2.8 0 4.2 0 .8 0 1.5 0 2.2-.2.4-.1.7-.1 1.1-.2.2-.1.4-.1.6-.1l.4-.2 1.4-.7c.2-.1.5-.1.8-.2v-.2c-.3.1-.6.2-1 .3-.7.4-1.5.8-2.5 1m-4.8-19.4h-.9c-.8 0-1.6 0-2.5-.1-.5 0-1-.1-1.5-.1-.2 0-.4-.1-.6-.1-.1.5 3.9.4 4.3.4h1.1c.3.1.3 0 .1-.1m.5 16.8c.4-.2.7-.2 1.1-.4.3-.1.5-.2.8-.2.1 0 .3 0 .4-.1-.1-.1-.2-.1-.4 0-.3.1-.5.1-.8.2-.6 0-1.3-.2-1.9 0-.3.1-.5.3-.7.5-.3.3-.5.3-.9.3-.2 0-.4.1-.1.2.4.2.9-.2 1.2-.3.4-.2.9 0 1.3-.2m-17.8-10c-.1.2 0 .3.1.5v.4c0 .3.1.6-.1.8-.2.1-.4.1-.6.1-.2 0-.4.2-.6.3-.2.1-.4.1-.6.1-.3 0-.5 0-.6-.3 0-.2 0-.5.1-.6.1-.1.4-.2.6-.3.2 0 .7.1.8-.2v-.1c-.5.1-1-.1-1.4.2-.3.3-.6 1-.2 1.3.4.3 1 .2 1.4 0l.6-.3c.2-.1.5-.1.7-.2.3-.2.4-.7.4-1.1v-.6c-.2 0-.4-.2-.6 0"/><path class="st26" d="M-441.9 370.2c-.1.1-.2.1-.3.2-.2.2-.5.2-.8.3-.1 0-.3 0-.4.1-.1 0-.2.1-.1.2.1.2.3 0 .4 0 .2-.1.3-.1.5-.2.1-.1.3-.1.4-.1.1 0 .3-.1.4-.1.1-.1.2-.1.2-.2.1 0 .1 0 .1-.1.2-.2.2-.7-.1-.8-.1 0-.3 0-.2.1 0 0 .1 0 .2.1s.1.2.1.3c-.2.1-.3.2-.4.2"/><g><path class="st3" d="M-451.1 359.6s-3.6-.4-3.9 0c-.6.8 1.3 1.4 3.1.9 0 0-2 3-1.8 4.1.2 1.1.8 2.6 3.3 1.1s2.9-3.5 2.7-4c-.1-.5 2.4.7 3.3.3 0 0 .6-.3.4-.5-1-1.4-4.1-1-4.1-1s-.2-1-3-.9"/><path class="st23" d="M-448.9 361.8s-.4.5-1-.1m-.8-.1s-.4.5-1-.1"/></g></g><g><text transform="translate(-247.45 375.54)" class="st27 st39" font-size="13">Self Store Cost</text></g><circle class="st27" cx="-268.7" cy="370.4" r="9.1"/><circle class="st3" cx="466.8" cy="31.2" r="7.1"/><g><defs><path id="SVGID_13_" d="M435.8 119.7h42.3V162h-42.3z"/></defs><clipPath id="SVGID_14_"><use xlink:href="#SVGID_13_" overflow="visible"/></clipPath><path d="M474.4 137.2c1.8-.8 2.6-2.9 1.8-4.8-.7-1.5-2.3-2.4-3.8-2.2.8-1.4.6-3.2-.6-4.4-1.2-1.2-3-1.4-4.4-.6.2-1.6-.6-3.2-2.2-3.8-1.8-.8-4 0-4.8 1.8 0-2-1.6-3.6-3.6-3.6s-3.6 1.6-3.6 3.6c-.8-1.8-2.9-2.6-4.8-1.8-1.5.7-2.4 2.3-2.2 3.8-1.4-.8-3.2-.6-4.4.6-1.2 1.2-1.4 3-.6 4.4-1.6-.2-3.2.6-3.8 2.2-.8 1.8 0 4 1.8 4.8-2 0-3.6 1.6-3.6 3.6s1.6 3.6 3.6 3.6c-1.8.8-2.6 2.9-1.8 4.8.7 1.5 2.3 2.4 3.8 2.2-.8 1.4-.6 3.2.6 4.4 1.2 1.2 3 1.4 4.4.6-.2 1.6.6 3.2 2.2 3.8 1.8.8 4 0 4.8-1.8 0 2 1.6 3.6 3.6 3.6s3.6-1.6 3.6-3.6c.8 1.8 2.9 2.6 4.8 1.8 1.5-.7 2.4-2.3 2.2-3.8 1.4.8 3.2.6 4.4-.6 1.2-1.2 1.4-3 .6-4.4 1.6.2 3.2-.6 3.8-2.2.8-1.8 0-4-1.8-4.8 2 0 3.6-1.6 3.6-3.6 0-1.9-1.6-3.5-3.6-3.6" clip-path="url(#SVGID_14_)" fill="#ed1558"/><path d="M471.9 135.5c-.6-1.1-2.4-1.3-3.4-1.5-1.6-.3-3.3-.1-4.9.2-.3.1-.6.1-.9.2-.3-1.8-1.9-2.3-3.8-2.3H455c-1.9 0-3.5.5-3.8 2.3-.3-.1-.6-.2-.9-.2-1.6-.3-3.3-.5-4.9-.2-1 .2-2.8.5-3.4 1.5-.3.5-.3 1.5 0 2 .7 1 2.9.9 3.9.8 1.7-.2 3.5-.9 5.2-.8l.9 9.3c0 2.2 1.8 3.9 3.9 3.9h2.1c2.2 0 3.9-1.8 3.9-3.9l.9-9.3c1.7 0 3.4.6 5.2.8 1 .1 3.2.3 3.9-.8.2-.6.2-1.5 0-2" clip-path="url(#SVGID_14_)" fill="#fff"/><defs><path id="SVGID_15_" d="M455 132.1c-1.9 0-3.5.5-3.8 2.3-.3-.1-.6-.2-.9-.2-1.6-.3-3.3-.5-4.9-.2-1 .2-2.8.5-3.4 1.5-.3.5-.3 1.5 0 2 .7 1 2.9.9 3.9.8 1.7-.2 3.5-.9 5.2-.8l.9 9.3c0 2.2 1.8 3.9 3.9 3.9h2.1c2.2 0 3.9-1.8 3.9-3.9l.9-9.3c1.7 0 3.4.6 5.2.8 1 .1 3.2.3 3.9-.8.3-.5.3-1.4 0-2-.6-1.1-2.4-1.3-3.4-1.5-1.6-.3-3.3-.1-4.9.2-.3.1-.6.1-.9.2-.3-1.8-1.9-2.3-3.8-2.3H455z"/></defs><clipPath id="SVGID_16_"><use xlink:href="#SVGID_15_" overflow="visible"/></clipPath><path d="M458.5 149s-2.3.8-.8 2.2m-2.1-2.2s2.3.8.8 2.2" clip-path="url(#SVGID_16_)" fill="none" stroke="#bebdc2" stroke-width=".357"/><g><defs><path id="SVGID_17_" d="M435.8 119.7h42.3V162h-42.3z"/></defs><clipPath id="SVGID_18_"><use xlink:href="#SVGID_17_" overflow="visible"/></clipPath><path d="M454.9 139.5c0 .4-.3.7-.7.7-.4 0-.7-.3-.7-.7 0-.4.3-.7.7-.7.4 0 .7.3.7.7m5.1 0c0 .4-.3.7-.7.7-.4 0-.7-.3-.7-.7 0-.4.3-.7.7-.7.4 0 .7.3.7.7" clip-path="url(#SVGID_18_)" fill="#231f20"/><path d="M471.8 137.4c.2-.3.3-.7.2-1.2-.9-.6-2.5-1-4.3-1-2.8 0-5 .9-5 2v.2-.1c1.7 0 3.4.6 5.2.8 1 .2 3.3.4 3.9-.7m-29.9 0c-.2-.3-.3-.7-.2-1.2.9-.6 2.5-1 4.3-1 2.8 0 5 .9 5 2v.2-.1c-1.7 0-3.4.6-5.2.8-1 .2-3.2.4-3.9-.7" fill="#ffdad8" clip-path="url(#SVGID_18_)"/></g></g><g><defs><path id="SVGID_19_" d="M435.8 174.8h42.3v42.3h-42.3z"/></defs><clipPath id="SVGID_20_"><use xlink:href="#SVGID_19_" overflow="visible"/></clipPath><path d="M474.4 192.3c1.8-.8 2.6-2.9 1.8-4.8-.7-1.5-2.3-2.4-3.8-2.2.8-1.4.6-3.2-.6-4.4-1.2-1.2-3-1.4-4.4-.6.2-1.6-.6-3.2-2.2-3.8-1.8-.8-4 0-4.8 1.8 0-2-1.6-3.6-3.6-3.6s-3.6 1.6-3.6 3.6c-.8-1.8-2.9-2.6-4.8-1.8-1.5.7-2.4 2.3-2.2 3.8-1.4-.8-3.2-.6-4.4.6-1.2 1.2-1.4 3-.6 4.4-1.6-.2-3.2.6-3.8 2.2-.8 1.8 0 4 1.8 4.8-2 0-3.6 1.6-3.6 3.6s1.6 3.6 3.6 3.6c-1.8.8-2.6 2.9-1.8 4.8.7 1.5 2.3 2.4 3.8 2.2-.8 1.4-.6 3.2.6 4.4 1.2 1.2 3 1.4 4.4.6-.2 1.6.6 3.2 2.2 3.8 1.8.8 4 0 4.8-1.8 0 2 1.6 3.6 3.6 3.6s3.6-1.6 3.6-3.6c.8 1.8 2.9 2.6 4.8 1.8 1.5-.7 2.4-2.3 2.2-3.8 1.4.8 3.2.6 4.4-.6 1.2-1.2 1.4-3 .6-4.4 1.6.2 3.2-.6 3.8-2.2.8-1.8 0-4-1.8-4.8 2 0 3.6-1.6 3.6-3.6s-1.6-3.6-3.6-3.6" clip-path="url(#SVGID_20_)" fill="#f58220"/><path d="M471.9 190.5c-.6-1.1-2.4-1.3-3.4-1.5-1.6-.3-3.3-.1-4.9.2-.3.1-.6.1-.9.2-.3-1.8-1.9-2.3-3.8-2.3H455c-1.9 0-3.5.5-3.8 2.3-.3-.1-.6-.2-.9-.2-1.6-.3-3.3-.5-4.9-.2-1 .2-2.8.5-3.4 1.5-.3.5-.3 1.5 0 2 .7 1 2.9.9 3.9.8 1.7-.2 3.5-.9 5.2-.8l.9 9.3c0 2.2 1.8 3.9 3.9 3.9h2.1c2.2 0 3.9-1.8 3.9-3.9l.9-9.3c1.7 0 3.4.6 5.2.8 1 .1 3.2.3 3.9-.8.2-.5.2-1.4 0-2" clip-path="url(#SVGID_20_)" fill="#fff"/><defs><path id="SVGID_21_" d="M455 187.1c-1.9 0-3.5.5-3.8 2.3-.3-.1-.6-.2-.9-.2-1.6-.3-3.3-.5-4.9-.2-1 .2-2.8.5-3.4 1.5-.3.5-.3 1.5 0 2 .7 1 2.9.9 3.9.8 1.7-.2 3.5-.9 5.2-.8l.9 9.3c0 2.2 1.8 3.9 3.9 3.9h2.1c2.2 0 3.9-1.8 3.9-3.9l.9-9.3c1.7 0 3.4.6 5.2.8 1 .1 3.2.3 3.9-.8.3-.5.3-1.4 0-2-.6-1.1-2.4-1.3-3.4-1.5-1.6-.3-3.3-.1-4.9.2-.3.1-.6.1-.9.2-.3-1.8-1.9-2.3-3.8-2.3H455z"/></defs><clipPath id="SVGID_22_"><use xlink:href="#SVGID_21_" overflow="visible"/></clipPath><path d="M458.5 204s-2.3.8-.8 2.2m-2.1-2.2s2.3.8.8 2.2" clip-path="url(#SVGID_22_)" fill="none" stroke="#bebdc2" stroke-width=".357"/><g><defs><path id="SVGID_23_" d="M435.8 174.8h42.3v42.3h-42.3z"/></defs><clipPath id="SVGID_24_"><use xlink:href="#SVGID_23_" overflow="visible"/></clipPath><path d="M454.9 194.5c0 .4-.3.7-.7.7-.4 0-.7-.3-.7-.7 0-.4.3-.7.7-.7.4.1.7.4.7.7m5.1 0c0 .4-.3.7-.7.7-.4 0-.7-.3-.7-.7 0-.4.3-.7.7-.7.4.1.7.4.7.7" clip-path="url(#SVGID_24_)" fill="#231f20"/><path d="M471.8 192.5c.2-.3.3-.7.2-1.2-.9-.6-2.5-1-4.3-1-2.8 0-5 .9-5 2v.2-.1c1.7 0 3.4.6 5.2.8 1 .2 3.3.3 3.9-.7m-29.9 0c-.2-.3-.3-.7-.2-1.2.9-.6 2.5-1 4.3-1 2.8 0 5 .9 5 2v.2-.1c-1.7 0-3.4.6-5.2.8-1 .2-3.2.3-3.9-.7" fill="#ffdad8" clip-path="url(#SVGID_24_)"/></g></g><g><text transform="translate(111.427 -309.327)" class="st39 st40" fill="#1a1a1a">12</text></g><g><text transform="translate(199.272 -309.327)" class="st39 st40" fill="#1a1a1a">24</text></g><g><text transform="translate(288.37 -309.327)" class="st39 st40" fill="#1a1a1a">36</text></g><g><text transform="translate(376.702 -309.327)" class="st39 st40" fill="#1a1a1a">48</text></g><g><text transform="translate(26.672 -309.327)" class="st39 st40" fill="#1a1a1a">1</text></g><g><text transform="translate(465.403 -309.327)" class="st39 st40" fill="#1a1a1a">60</text></g><g><text transform="translate(111.427 330.603)" class="st38 st39 st40">12</text></g><g><text transform="translate(199.272 330.603)" class="st38 st39 st40">24</text></g><g><text transform="translate(288.37 330.603)" class="st38 st39 st40">36</text></g><g><text transform="translate(376.702 330.603)" class="st38 st39 st40">48</text></g><g><text transform="translate(26.672 330.603)" class="st38 st39 st40">1</text></g><g><text transform="translate(465.403 330.603)" class="st38 st39 st40">60</text></g></svg>