<svg version="1.1" id="Layer_1" xmlns="http://www.w3.org/2000/svg" xmlns:xlink="http://www.w3.org/1999/xlink" x="0" y="0" viewBox="0 0 111.2 111.2" xml:space="preserve"><style>.st1{clip-path:url(#XMLID_64_);fill:#ec1c59}</style><g id="XMLID_49_"><defs><path id="XMLID_27_" d="M0 0h103.7v110.9H0z"/></defs><clipPath id="XMLID_64_"><use xlink:href="#XMLID_27_" overflow="visible"/></clipPath><path id="XMLID_34_" d="M81.7 93.7c1.8 4.3-.2 9.3-4.5 11.1-4.3 1.9-9.3-.1-11.2-4.3-.2-.4-.6-.6-1-.5-.4.1-.7.5-.7.9-.1 4.7-3.9 8.4-8.6 8.4-3.8 0-7.2-2.6-8.3-6.2-.1-.3-.4-.6-.7-.6-.3-.1-.7.1-.9.3-2.3 3-6.4 4.2-10 2.8-3.6-1.4-5.8-5-5.4-8.8 0-.3-.1-.7-.4-.9-.3-.2-.7-.2-1 0-3.3 2-7.5 1.5-10.3-1.1-3.4-3.2-3.6-8.5-.5-12 .3-.3.3-.8.1-1.1-.2-.3-.7-.5-1.1-.3-4.3 1.8-9.3-.2-11.2-4.5-1.9-4.3.1-9.3 4.3-11.2.4-.2.6-.6.5-1-.1-.4-.5-.7-.9-.7-4.7-.1-8.5-3.9-8.5-8.5 0-3.8 2.6-7.2 6.2-8.2.3-.1.6-.4.6-.7s-.1-.7-.3-.9c-3-2.3-4.2-6.4-2.8-9.9 1.4-3.5 5-5.7 8.8-5.4.3 0 .7-.1.9-.4.2-.3.2-.7 0-1-2-3.3-1.5-7.5 1.1-10.2 3.2-3.4 8.6-3.6 12-.5.3.3.8.3 1.1.1.3-.2.5-.7.3-1.1-1.8-4.3.2-9.3 4.5-11.1s9.3.1 11.2 4.3c.2.4.6.6 1 .5.4-.1.7-.5.7-.9.1-4.6 3.9-8.4 8.6-8.4 3.8 0 7.2 2.6 8.3 6.2.1.3.4.6.7.6.3.1.7-.1.9-.3 2.3-3 6.4-4.2 10-2.8 3.6 1.4 5.8 5 5.4 8.8 0 .3.1.7.4.9.3.2.7.2 1 0 3.3-2 7.5-1.5 10.3 1.1" clip-path="url(#XMLID_64_)" fill="none" stroke="#3f4043" stroke-width="3.195" stroke-linecap="round" stroke-linejoin="round"/><path id="XMLID_52_" class="st1" d="M89.5 78.2h-8.3V52c0-.8-.6-1.4-1.4-1.4H52.2c-.8 0-1.4.6-1.4 1.4v26.3h-8.3V48.5L66 28.9l23.5 19.6v29.7zm-35.9-11h24.9v4.1H53.6v-4.1zm24.9-9.7H53.6v-4.2h24.9v4.2zm-24.9 2.8h24.9v4.1H53.6v-4.1zm38.2-13.6L66.9 26c-.5-.4-1.3-.4-1.8 0L40.2 46.7c-.3.3-.5.7-.5 1.1v31.8c0 .8.6 1.4 1.4 1.4h11.1c.8 0 1.4-.6 1.4-1.4v-5.5h24.9v5.5c0 .8.6 1.4 1.4 1.4H91c.8 0 1.4-.6 1.4-1.4V47.8c-.1-.4-.3-.8-.6-1.1"/><path id="XMLID_28_" class="st1" d="M102.3 81H29.7c-.8 0-1.4-.6-1.4-1.4s.6-1.4 1.4-1.4h72.6c.8 0 1.4.6 1.4 1.4s-.6 1.4-1.4 1.4"/></g></svg>