<svg id="Layer_1" xmlns="http://www.w3.org/2000/svg" xmlns:xlink="http://www.w3.org/1999/xlink" viewBox="0 0 141 141"><style>.st2,.st3{clip-path:url(#XMLID_75_)}.st3{fill:#fcdad8}</style><g id="XMLID_15_"><defs><path id="XMLID_16_" d="M0 0h141v141H0z"/></defs><clipPath id="XMLID_75_"><use xlink:href="#XMLID_16_" overflow="visible"/></clipPath><path id="XMLID_22_" d="M129 58.3c6.1-2.7 8.8-9.8 6.2-15.9-2.2-5.1-7.5-7.9-12.8-7.2 2.6-4.6 1.9-10.6-2-14.5-3.9-3.9-9.9-4.6-14.5-2 .7-5.3-2.1-10.6-7.2-12.8-6.2-2.7-13.3.1-16 6.1-.1-6.6-5.5-12-12.2-12-6.7 0-12.1 5.4-12.2 12-2.7-6-9.8-8.8-15.9-6.2-5.1 2.2-7.9 7.5-7.2 12.8-4.6-2.6-10.6-1.9-14.5 2-3.9 3.9-4.6 9.9-2 14.5-5.3-.7-10.6 2.1-12.8 7.2-2.7 6.2 0 13.3 6.1 16-6.6.1-12 5.5-12 12.2 0 6.7 5.4 12.1 12 12.2-6.1 2.7-8.8 9.8-6.2 15.9 2.2 5.1 7.5 7.9 12.8 7.2-2.6 4.6-1.9 10.6 2 14.5 3.9 3.9 9.9 4.6 14.5 2-.7 5.3 2.1 10.6 7.2 12.8 6.1 2.7 13.2-.1 15.9-6.2.1 6.6 5.5 12 12.2 12 6.7 0 12.1-5.4 12.2-12 2.7 6.1 9.8 8.8 15.9 6.2 5.1-2.2 7.9-7.5 7.2-12.8 4.6 2.6 10.6 1.9 14.5-2 3.9-3.9 4.6-9.9 2-14.5 5.3.7 10.6-2.1 12.8-7.2 2.7-6.1-.1-13.2-6.2-15.9 6.6-.1 12-5.5 12-12.2.2-6.7-5.2-12.1-11.8-12.2" clip-path="url(#XMLID_75_)" fill="currentColor"/><path id="XMLID_21_" d="M120.5 52.4c-1.9-3.5-7.9-4.4-11.4-5.1-5.5-1.1-11-.4-16.4.7-1.1.2-2 .4-2.8.7-1.1-6.1-6.4-7.7-12.8-7.7H64.2c-6.4 0-11.7 1.7-12.8 7.8-.9-.3-1.9-.6-3-.8-5.4-1.1-10.9-1.8-16.4-.7-3.5.7-9.5 1.6-11.4 5.1-.9 1.7-.9 4.9.2 6.5 2.2 3.5 9.6 3 13 2.6 5.8-.7 11.6-2.8 17.4-2.6l2.9 31c0 7.2 5.9 13.1 13.1 13.1h7.1c7.2 0 13.1-5.8 13.1-13.1l2.9-31c5.8-.1 11.5 2 17.2 2.6 3.4.4 10.8.9 13-2.6.9-1.6.9-4.8 0-6.5" clip-path="url(#XMLID_75_)" fill="#fff"/><path id="XMLID_20_" class="st2" d="M63.9 65.8c0 1.2-1 2.2-2.2 2.2-1.2 0-2.2-1-2.2-2.2 0-1.2 1-2.2 2.2-2.2 1.2 0 2.2 1 2.2 2.2"/><path id="XMLID_19_" class="st2" d="M81 65.8c0 1.2-1 2.2-2.2 2.2s-2.2-1-2.2-2.2c0-1.2 1-2.2 2.2-2.2s2.2 1 2.2 2.2"/><path id="XMLID_18_" class="st3" d="M120.3 59c.6-1 .8-2.4.8-3.9-3-1.9-8.2-3.2-14.3-3.2-9.3 0-16.8 3-16.8 6.7 0 .2.1.4.2.6v-.3c5.8-.1 11.5 2 17.2 2.6 3.3.5 10.7.9 12.9-2.5"/><path id="XMLID_17_" class="st3" d="M20.6 59c-.6-1-.8-2.4-.8-3.9 3-1.9 8.2-3.2 14.3-3.2 9.3 0 16.8 3 16.8 6.7 0 .2-.1.4-.2.6v-.3c-5.8-.1-11.5 2-17.2 2.6-3.3.5-10.7.9-12.9-2.5"/></g></svg>