<svg xmlns="http://www.w3.org/2000/svg" xmlns:xlink="http://www.w3.org/1999/xlink" viewBox="0 0 111.2 111.2"><defs><path id="a" d="M0 .3h100.7v110.9H0z"/></defs><clipPath id="b"><use xlink:href="#a" overflow="visible"/></clipPath><path d="M80.4 94c1.8 4.3-.2 9.3-4.4 11.1-4.2 1.9-9.2-.1-11.1-4.3-.2-.4-.6-.6-1-.5-.4.1-.7.5-.7.9-.1 4.7-3.8 8.4-8.4 8.4-3.8 0-7.1-2.6-8.1-6.2-.1-.3-.4-.6-.7-.6-.3-.1-.7.1-.9.3-2.3 3-6.3 4.2-9.8 2.8-3.5-1.4-5.7-5-5.3-8.8 0-.3-.1-.7-.4-.9-.3-.2-.7-.2-.9 0-3.2 2-7.4 1.5-10.1-1.1-3.4-3.2-3.6-8.5-.5-12 .3-.3.3-.8.1-1.1-.2-.3-.7-.5-1.1-.3-4.2 1.8-9.2-.2-11-4.5-1.8-4.3.1-9.3 4.3-11.2.4-.2.6-.6.5-1-.1-.4-.4-.7-.9-.7-4.6-.1-8.3-3.9-8.3-8.5 0-3.8 2.5-7.2 6.1-8.2.3-.1.6-.4.6-.7.1-.3-.1-.7-.3-.9-3-2.3-4.1-6.4-2.7-9.9 1.4-3.5 4.9-5.7 8.7-5.4.3 0 .7-.1.8-.4.2-.3.2-.7 0-1-1.9-3.3-1.5-7.5 1-10.2 3.1-3.4 8.4-3.6 11.8-.5.3.3.8.3 1.1.1.3-.2.5-.7.3-1.1-1.8-4.3.2-9.3 4.4-11.1s9.2.1 11.1 4.3c.2.4.6.6 1 .5.4-.1.7-.5.7-.9.1-4.6 3.8-8.4 8.4-8.4 3.8 0 7.1 2.6 8.1 6.2.1.3.4.6.7.6.3.1.7-.1.9-.3 2.3-3 6.3-4.2 9.8-2.8 3.5 1.4 5.7 5 5.3 8.8 0 .3.1.7.4.9.3.2.7.2.9 0 3.2-2 7.4-1.5 10.1 1.1" clip-path="url(#b)" fill="none" stroke="#3f4043" stroke-width="3.195" stroke-linecap="round" stroke-linejoin="round"/><path d="M93.3 79.3h-3.7V46.7c0-.8-.7-1.5-1.5-1.5H41.3c-.8 0-1.5.7-1.5 1.5v32.6h-3.7V37.7l28.6-7.8 28.6 7.8v41.6zm-6.7 0h-3.7V58.4c0-.8-.7-1.5-1.5-1.5H59.1c-.8 0-1.5.7-1.5 1.5v9.7H48c-.8 0-1.5.7-1.5 1.5v9.7h-3.7V48.2h43.9v31.1zM80 68.1h-8.2v-8.2h2.7v2.9h2.9v-2.9H80v8.2zm0 11.2h-8.2V71h2.7v2.9h2.9V71H80v8.3zM68.8 68.1h-8.2v-8.2h2.7v2.9h2.9v-2.9h2.7v8.2zm0 11.2h-8.2V71h2.7v2.9h2.9V71h2.7v8.3zm-11.1 0h-8.2V71h2.7v2.9H55V71h2.7v8.3zm38.5 0V36.6c0-.7-.4-1.2-1.1-1.4l-30-8.2c-.2-.1-.5-.1-.8 0l-30.1 8.2c-.6.2-1.1.8-1.1 1.4v42.7h-3c-.8 0-1.5.7-1.5 1.5s.7 1.5 1.5 1.5h69c.8 0 1.5-.7 1.5-1.5s-.7-1.5-1.5-1.5h-2.9z" clip-path="url(#b)" fill="#ec1c59"/></svg>