<svg version="1.1" id="Layer_1" xmlns="http://www.w3.org/2000/svg" xmlns:xlink="http://www.w3.org/1999/xlink" x="0" y="0" viewBox="0 0 98 98" xml:space="preserve"><style>.st2{clip-path:url(#XMLID_60_);fill:#ec1c59}</style><g id="XMLID_55_"><defs><path id="XMLID_56_" d="M.3 0h89.9v98H.3z"/></defs><clipPath id="XMLID_59_"><use xlink:href="#XMLID_56_" overflow="visible"/></clipPath><path id="XMLID_57_" d="M72.3 82.6c1.6 3.8-.2 8.2-3.9 9.8-3.8 1.6-8.2-.1-9.9-3.8-.2-.3-.5-.5-.9-.5-.4.1-.6.4-.6.8-.1 4.1-3.4 7.4-7.5 7.4-3.4 0-6.3-2.2-7.3-5.5-.1-.3-.3-.5-.6-.6-.3-.1-.6.1-.8.3-2 2.7-5.6 3.7-8.8 2.4-3.1-1.2-5.1-4.4-4.7-7.7 0-.3-.1-.6-.4-.8-.3-.2-.6-.2-.8 0-2.9 1.7-6.6 1.3-9-.9-3-2.8-3.2-7.5-.4-10.5.3-.3.3-.7.1-1-.2-.3-.6-.4-1-.3-3.8 1.6-8.2-.2-9.8-3.9-1.6-3.8.1-8.2 3.8-9.8.3-.2.5-.5.5-.9-.1-.4-.4-.6-.8-.6-4.1-.1-7.4-3.4-7.4-7.5 0-3.3 2.3-6.3 5.5-7.2.3-.1.5-.3.6-.6.1-.3-.1-.6-.3-.8-2.7-2-3.7-5.6-2.4-8.7 1.2-3.1 4.4-5.1 7.8-4.7.3 0 .6-.1.8-.4.2-.3.2-.6 0-.8-1.7-2.9-1.4-6.6.9-9 2.8-3 7.5-3.2 10.6-.4.3.3.7.3 1 .1.3-.2.4-.6.3-1-1.6-3.8.2-8.2 3.9-9.8 3.8-1.6 8.2.1 9.9 3.8.2.3.5.5.9.5.4-.1.6-.4.6-.8-.2-4.2 3.1-7.6 7.2-7.6 3.4 0 6.3 2.2 7.3 5.5.1.3.3.5.6.6s.6-.1.8-.3c2-2.7 5.6-3.7 8.8-2.4 3.1 1.2 5.1 4.4 4.7 7.7 0 .3.1.6.4.8.3.2.6.2.8 0 2.9-1.7 6.6-1.4 9 .9" clip-path="url(#XMLID_59_)" fill="none" stroke="#3f4043" stroke-width="3.274" stroke-linecap="round" stroke-linejoin="round"/></g><path id="XMLID_43_" d="M68.3 76H27.1V40.3h41.2V76zM57.6 47.7V34.5m-2.8 13.2V36.5m-2.9 11.2V34.5m-8.6 13.2V36.5M49 47.7V36.5m-2.8 11.2V34.5m-5.7 13.2V34.5m-2.9 13.2V36.5m23-10.4h-8.5v-8.5l8.5 8.5zm0-.2v21.7H34.7V17.5h17.2l8.7 8.4z" fill="none" stroke="#ec1c59" stroke-width="1.793" stroke-linecap="round" stroke-linejoin="round" stroke-miterlimit="10"/><g id="XMLID_14_"><defs><path id="XMLID_40_" d="M.3 0h89.9v98H.3z"/></defs><clipPath id="XMLID_60_"><use xlink:href="#XMLID_40_" overflow="visible"/></clipPath><path id="XMLID_42_" class="st2" d="M61.7 52c0 .8.6 1.4 1.4 1.4s1.4-.6 1.4-1.4-.6-1.4-1.4-1.4-1.4.7-1.4 1.4"/><path id="XMLID_41_" class="st2" d="M61.7 57c0 .8.6 1.4 1.4 1.4s1.4-.6 1.4-1.4c0-.8-.6-1.4-1.4-1.4s-1.4.7-1.4 1.4"/></g><path id="XMLID_13_" fill="#ec1c59" d="M30.9 40.3h33.5V49H30.9z"/><g id="XMLID_2_"><defs><path id="XMLID_3_" d="M.3 0h89.9v98H.3z"/></defs><clipPath id="XMLID_61_"><use xlink:href="#XMLID_3_" overflow="visible"/></clipPath><path id="XMLID_4_" d="M68.7 53.6h19.6M69 57.4h19.3M69 61.1h20.3M69 64.8h19.9M69 68.5h19.3M69 72.3h19.3M68.7 76h19.6M68.7 49.9h19.6" clip-path="url(#XMLID_61_)" fill="none" stroke="#ec1c59" stroke-width="1.793" stroke-linecap="round" stroke-linejoin="round" stroke-miterlimit="10"/></g></svg>