<svg version="1.1" id="Layer_1" xmlns="http://www.w3.org/2000/svg" xmlns:xlink="http://www.w3.org/1999/xlink" x="0" y="0" viewBox="0 0 64 64" xml:space="preserve"><style>.st0{clip-path:url(#XMLID_10_);fill:#ec1c59}</style><g id="XMLID_1_"><defs><path id="XMLID_2_" d="M0 0h64v64H0z"/></defs><clipPath id="XMLID_10_"><use xlink:href="#XMLID_2_" overflow="visible"/></clipPath><path class="st0" d="M32 22.6c5.2 0 9.4 4.2 9.4 9.4s-4.2 9.4-9.4 9.4-9.4-4.2-9.4-9.4 4.2-9.4 9.4-9.4M20.5 32c0 6.3 5.1 11.5 11.5 11.5S43.5 38.3 43.5 32 38.4 20.5 32 20.5 20.5 25.7 20.5 32"/><path id="XMLID_6_" class="st0" d="M32.9 46c-.2-.3-.5-.6-.9-.6-7.4 0-13.4-6-13.4-13.4 0-4.8 2.6-9.2 6.7-11.6.5-.3.7-.9.4-1.4-.3-.5-.9-.7-1.4-.4-4.8 2.8-7.8 7.9-7.8 13.5 0 7.5 5.3 13.7 12.3 15.2.2 0 .3.2.4.3 0 .2 0 .3-.1.5l-.7.7c-.4.4-.4 1.1 0 1.5.2.2.5.3.7.3.3 0 .5-.1.7-.3l2.9-2.9c.4-.5.4-1 .2-1.4"/><path id="XMLID_5_" class="st0" d="M35.2 16.8c-.2 0-.3-.2-.4-.3 0-.2 0-.3.1-.5l.7-.7c.4-.4.4-1.1 0-1.5-.4-.4-1.1-.4-1.5 0l-2.9 2.9c-.3.3-.4.8-.2 1.2.2.4.6.6.9.6 7.4 0 13.4 6 13.4 13.4 0 4.8-2.6 9.2-6.7 11.6-.5.3-.7.9-.4 1.4.2.3.5.5.9.5.2 0 .4 0 .5-.1 4.8-2.8 7.8-7.9 7.8-13.5.1-7.3-5.2-13.5-12.2-15"/><path id="XMLID_4_" class="st0" d="M28.8 35.7l.7-.2v-2.4H29c-.4 0-.7-.3-.7-.7 0-.4.3-.7.7-.7h.4v-1.3c0-1 .3-1.8.9-2.4.5-.6 1.3-.9 2.3-.9 1.3 0 2.1.5 2.7 1.1.2.2.3.3.3.6 0 .5-.4.8-.8.8-.3 0-.5-.1-.6-.3-.4-.5-.8-.7-1.5-.7-.4 0-.8.1-1 .4-.3.3-.5.8-.5 1.3v1.2H34c.4 0 .7.3.7.7 0 .4-.3.7-.7.7h-2.8v2.3H35c.4 0 .7.3.7.7 0 .4-.3.7-.7.7h-6c-.4 0-.6-.3-.6-.6-.1 0 0-.2.4-.3"/><path id="XMLID_3_" d="M5.7 37C3 37 .8 34.7.8 32c0-2.2 1.5-4.2 3.6-4.8.2-.1.3-.2.4-.4 0-.2 0-.4-.2-.5C2.8 25 2.1 22.6 3 20.6c.8-2.1 2.9-3.3 5.1-3.1.2 0 .4-.1.5-.2.1-.2.1-.4 0-.6-1.1-1.9-.9-4.3.6-5.9 1.8-2 5-2.1 7-.3.2.2.5.2.7 0 .2-.1.3-.4.2-.6-1-2.5.1-5.4 2.6-6.5 2.3-1.1 5.2 0 6.3 2.5.1.2.3.3.6.3.3-.1.4-.3.4-.5C27 3 29.3.8 32 .8c2.2 0 4.2 1.5 4.8 3.6.1.2.2.3.4.4.2 0 .4 0 .5-.2C39 2.8 41.4 2.1 43.4 3c2.1.8 3.3 2.9 3.1 5.1 0 .2.1.4.2.5.2.1.4.1.6 0 1.9-1.1 4.3-.9 5.9.6 2 1.8 2.1 5 .3 7-.2.2-.2.5 0 .7.1.2.4.3.6.2 2.5-1 5.4.1 6.5 2.6 1.1 2.5-.1 5.4-2.5 6.5-.2.1-.3.3-.3.6.1.2.3.4.5.4 2.7 0 4.9 2.3 4.9 5 0 2.2-1.5 4.2-3.6 4.8-.2.1-.3.2-.4.4 0 .2 0 .4.2.5 1.8 1.3 2.4 3.7 1.6 5.8-.8 2.1-2.9 3.3-5.1 3.1-.2 0-.4.1-.5.2-.1.2-.1.4 0 .6 1.1 1.9.9 4.3-.6 5.9-1.8 2-5 2.1-7 .3-.2-.2-.5-.2-.7 0-.2.1-.3.4-.2.6 1 2.5-.1 5.4-2.6 6.5-2.5 1.1-5.4-.1-6.5-2.5-.1-.2-.3-.3-.6-.3-.2.1-.4.3-.4.5 0 2.7-2.3 4.9-5 4.9-2.2 0-4.2-1.5-4.8-3.6-.1-.2-.2-.3-.4-.4-.2 0-.4 0-.5.2-1.3 1.8-3.7 2.4-5.8 1.6s-3.3-2.9-3.1-5.1c0-.2-.1-.4-.2-.5-.2-.1-.4-.1-.6 0-1.9 1.1-4.3.9-5.9-.6-2-1.8-2.1-5-.3-7 .2-.2.2-.5 0-.7-.1-.2-.4-.3-.6-.2-2.5 1-5.4-.1-6.5-2.6-.8-2.6.3-5.5 2.8-6.6.2-.1.3-.3.3-.6-.1-.3-.3-.4-.5-.4z" clip-path="url(#XMLID_10_)" fill="none" stroke="#333232" stroke-width="1.568" stroke-linecap="round" stroke-linejoin="round"/></g></svg>