<svg version="1.1" id="Layer_1" xmlns="http://www.w3.org/2000/svg" x="0" y="0" viewBox="0 0 868.9 709.9" xml:space="preserve"><style>.st1{fill:#f1f2f2}.st3{fill:none;stroke:#604a9e;stroke-width:3;stroke-linecap:round;stroke-linejoin:round;stroke-miterlimit:10}</style><path d="M689.1 302c26.3-11.8 38.3-42.6 26.7-69.1-9.6-22.1-32.6-34.3-55.4-31.2 11.2-20.1 8.3-46-8.7-63-17.1-17.1-42.9-20-63-8.7 3.1-22.8-9.1-45.8-31.2-55.4-26.5-11.5-57.3.4-69.1 26.7-.5-29-24-52.3-52.9-52.3s-52.4 23.3-52.8 52.1c-11.8-26.3-42.6-38.3-69.1-26.7-22.2 9.6-34.3 32.6-31.2 55.4-20.1-11.2-45.9-8.3-63 8.7-17.1 17.1-20 42.9-8.7 63-22.8-3.1-45.8 9.1-55.4 31.2-11.5 26.5.4 57.3 26.7 69.1-28.8.4-52.1 23.8-52.1 52.8 0 28.9 23.3 52.4 52.1 52.8-26.3 11.8-38.3 42.6-26.7 69.1 9.6 22.2 32.6 34.3 55.4 31.2-11.2 20.1-8.3 46 8.7 63 17.1 17.1 42.9 20 63 8.7-3.1 22.8 9.1 45.8 31.2 55.4 26.5 11.5 57.3-.4 69.1-26.7.4 28.8 23.8 52.1 52.8 52.1 28.9 0 52.4-23.3 52.8-52.1 11.8 26.3 42.6 38.3 69.1 26.7 22.2-9.6 34.3-32.6 31.2-55.4 20.1 11.2 46 8.3 63-8.7 17.1-17.1 20-42.9 8.7-63 22.8 3.1 45.8-9.1 55.4-31.2 11.5-26.5-.4-57.3-26.7-69.1 28.8-.4 52.1-23.8 52.1-52.8.1-28.8-23.2-52.2-52-52.6" fill="#ffcf3e"/><path class="st1" d="M258.9 266.2c0-.5.3-1 .8-1.3l176.6-102c1.4-.8 3.2-.8 4.6 0l176.6 102c.3.2.6.5.7.9 0 .1.1.3.1.4v183.7c0 .5-.3 1-.8 1.3l-6.4 3.7-171.8 99.2c-.1.1-.2.1-.4.1-.1 0-.3.1-.4.1h-.5c-.1 0-.2-.1-.3-.1L266 454.9l-6.4-3.7c-.5-.3-.8-.8-.8-1.3l.1-183.7z"/><path d="M258.9 266.2c0-.5.3-1 .8-1.3 0 0 0 0 0 0l176.6-102c1.4-.8 3.2-.8 4.6 0l176.6 102s0 0 0 0c.3.2.6.5.7.9 0 .1.1.3.1.4v183.7c0 .5-.3 1-.8 1.3l-6.4 3.7-171.8 99.2h0s0 0 0 0c-.1.1-.2.1-.4.1-.1 0-.3.1-.4.1h-.5c-.1 0-.2-.1-.3-.1 0 0 0 0 0 0L266 454.9l-6.4-3.7c-.5-.3-.8-.8-.8-1.3l.1-183.7z" fill="none" stroke="#fff" stroke-width="11" stroke-miterlimit="10"/><path class="st1" d="M266.7 269.8v183.7l-6.4-3.7V266.1c2.2 1.3 4.3 2.5 6.4 3.7"/><path class="st3" d="M266.7 269.8v183.7l-6.4-3.7V266.1c2.2 1.3 4.3 2.5 6.4 3.7z"/><path class="st1" d="M438.6 170.6v183.7c57.3 33.1 114.6 66.1 171.8 99.2V269.8c-57.3-33-114.5-66.1-171.8-99.2"/><path class="st3" d="M438.6 170.6v183.7c57.3 33.1 114.6 66.1 171.8 99.2V269.8c-57.3-33-114.5-66.1-171.8-99.2z"/><path class="st1" d="M616.8 266.2v183.7c-2.1 1.2-4.2 2.4-6.4 3.7V269.9c2.1-1.3 4.3-2.5 6.4-3.7"/><path class="st3" d="M616.8 266.2v183.7c-2.1 1.2-4.2 2.4-6.4 3.7V269.9c2.1-1.3 4.3-2.5 6.4-3.7z"/><path class="st1" d="M438.6 170.6v183.7c-38.8 22.4-77.5 44.8-116.3 67.1"/><path class="st3" d="M438.6 170.6v183.7c-38.8 22.4-77.5 44.8-116.3 67.1"/><path class="st1" d="M260.4 266.2l176.6-102c1-.6 2.2-.6 3.1 0 58.9 34 117.8 68 176.6 102l-4.8 2.8c-1 .6-2.2.6-3.2 0-56.8-32.8-113.5-65.5-170.3-98.3l-171.8 99.2-6.2-3.7z"/><path class="st3" d="M260.4 266.2l176.6-102c1-.6 2.2-.6 3.1 0 58.9 34 117.8 68 176.6 102l-4.8 2.8c-1 .6-2.2.6-3.2 0-56.8-32.8-113.5-65.5-170.3-98.3l-171.8 99.2-6.2-3.7z"/><path class="st1" d="M432.2 541.7l-165.5-95.5c2.1-1.2 4.2-2.4 6.4-3.7L438.6 538c16.4-9.5 32.8-18.9 49.2-28.4 38.8-22.4 77.5-44.8 116.3-67.1 2.1 1.2 4.2 2.5 6.4 3.7-57.3 33.1-114.6 66.1-171.8 99.2l171.9-99.3c0 2.5-.1 5-.1 7.4-57.3 33.1-114.6 66.1-171.8 99.2"/><path class="st3" d="M432.2 541.7l-165.5-95.5c2.1-1.2 4.2-2.4 6.4-3.7L438.6 538c16.4-9.5 32.8-18.9 49.2-28.4 38.8-22.4 77.5-44.8 116.3-67.1 2.1 1.2 4.2 2.5 6.4 3.7-57.3 33.1-114.6 66.1-171.8 99.2l171.9-99.3c0 2.5-.1 5-.1 7.4-57.3 33.1-114.6 66.1-171.8 99.2"/><path class="st1" d="M273.1 442.2c55.2-31.8 110.3-63.7 165.5-95.5 55.2 31.8 110.3 63.7 165.5 95.5-55.2 32-110.3 63.9-165.5 95.9-.1 0-.2-.1-.2-.1"/><path class="st3" d="M273.1 442.2c55.2-31.8 110.3-63.7 165.5-95.5 55.2 31.8 110.3 63.7 165.5 95.5-55.2 32-110.3 63.9-165.5 95.9-.1 0-.2-.1-.2-.1"/><path class="st1" d="M438.6 538.1l-165.5-95.9"/><path class="st3" d="M438.6 538.1l-165.5-95.9"/><path class="st1" d="M438.6 552.8c-57.3-33.1-114.6-66.1-171.8-99.2v-7.7c57.3 33.2 114.6 66.3 171.9 99.5-.1 2.4-.1 4.9-.1 7.4"/><path class="st3" d="M438.6 552.8c-57.3-33.1-114.6-66.1-171.8-99.2v-7.7c57.3 33.2 114.6 66.3 171.9 99.5-.1 2.4-.1 4.9-.1 7.4z"/><path class="st1" d="M438.6 170.6l-171.9 99.2.1 176.4 171.8-99.5z"/><path class="st3" d="M438.6 170.6l-171.9 99.2.1 176.4 171.8-99.5z"/><path class="st1" d="M472.8 312.1v54.4c-11.4 6.6-22.8 13.2-34.3 19.8v-54.4l34.3-19.8z"/><path class="st3" d="M472.8 312.1v54.4c-11.4 6.6-22.8 13.2-34.3 19.8v-54.4l34.3-19.8z"/><path class="st1" d="M438.6 331.9c-11.4-6.6-22.8-13.2-34.3-19.8v54.4c11.4 6.6 22.8 13.2 34.3 19.8v-54.4z"/><path class="st3" d="M438.6 331.9c-11.4-6.6-22.8-13.2-34.3-19.8v54.4c11.4 6.6 22.8 13.2 34.3 19.8v-54.4z"/><path class="st1" d="M472.8 312.1l-34.3 19.8c-11.4-6.6-22.8-13.2-34.3-19.8 11.4-6.6 22.8-13.2 34.3-19.8 11.5 6.6 22.9 13.2 34.3 19.8"/><path class="st3" d="M472.8 312.1l-34.3 19.8c-11.4-6.6-22.8-13.2-34.3-19.8 11.4-6.6 22.8-13.2 34.3-19.8 11.5 6.6 22.9 13.2 34.3 19.8z"/><path class="st1" d="M434.2 334.5v54.4c-11.4 6.6-22.8 13.2-34.3 19.8v-54.4l34.3-19.8z"/><path class="st3" d="M434.2 334.5v54.4c-11.4 6.6-22.8 13.2-34.3 19.8v-54.4l34.3-19.8z"/><path class="st1" d="M399.9 354.2c-11.4-6.6-22.8-13.2-34.3-19.8v54.4l34.3 19.8v-54.4"/><path class="st3" d="M399.9 354.2c-11.4-6.6-22.8-13.2-34.3-19.8v54.4l34.3 19.8v-54.4z"/><path class="st1" d="M434.2 334.5l-34.3 19.8c-11.4-6.6-22.8-13.2-34.3-19.8l34.3-19.8c11.4 6.6 22.8 13.2 34.3 19.8"/><path class="st3" d="M434.2 334.5l-34.3 19.8c-11.4-6.6-22.8-13.2-34.3-19.8l34.3-19.8c11.4 6.6 22.8 13.2 34.3 19.8z"/><path class="st1" d="M395.5 356.5v54.4c-11.4 6.6-22.8 13.2-34.3 19.8v-54.4c11.4-6.6 22.8-13.2 34.3-19.8"/><path class="st3" d="M395.5 356.5v54.4c-11.4 6.6-22.8 13.2-34.3 19.8v-54.4c11.4-6.6 22.8-13.2 34.3-19.8z"/><path class="st1" d="M361.2 376.3l-34.3-19.8v54.4l34.3 19.8z"/><path class="st3" d="M361.2 376.3l-34.3-19.8v54.4l34.3 19.8z"/><path class="st1" d="M395.5 356.5c-11.4 6.6-22.8 13.2-34.3 19.8l-34.3-19.8c11.4-6.6 22.8-13.2 34.3-19.8 11.4 6.6 22.8 13.2 34.3 19.8"/><path class="st3" d="M395.5 356.5c-11.4 6.6-22.8 13.2-34.3 19.8l-34.3-19.8c11.4-6.6 22.8-13.2 34.3-19.8 11.4 6.6 22.8 13.2 34.3 19.8z"/><path class="st1" d="M453.2 269.1v54.4c-11.4 6.6-22.8 13.2-34.3 19.8v-54.4c11.5-6.7 22.9-13.2 34.3-19.8"/><path class="st3" d="M453.2 269.1v54.4c-11.4 6.6-22.8 13.2-34.3 19.8v-54.4c11.5-6.7 22.9-13.2 34.3-19.8z"/><path class="st1" d="M419 288.8c-11.4-6.6-22.8-13.2-34.3-19.8v54.4c11.4 6.6 22.8 13.2 34.3 19.8v-54.4"/><path class="st3" d="M419 288.8c-11.4-6.6-22.8-13.2-34.3-19.8v54.4c11.4 6.6 22.8 13.2 34.3 19.8v-54.4z"/><path class="st1" d="M453.2 269.1c-11.4 6.6-22.8 13.2-34.3 19.8-11.4-6.6-22.8-13.2-34.3-19.8l34.3-19.8c11.5 6.6 22.9 13.2 34.3 19.8"/><path class="st3" d="M453.2 269.1c-11.4 6.6-22.8 13.2-34.3 19.8-11.4-6.6-22.8-13.2-34.3-19.8l34.3-19.8c11.5 6.6 22.9 13.2 34.3 19.8z"/><path class="st1" d="M414.6 291.1v54.4c-11.4 6.6-22.8 13.2-34.3 19.8v-54.4l34.3-19.8z"/><path class="st3" d="M414.6 291.1v54.4c-11.4 6.6-22.8 13.2-34.3 19.8v-54.4l34.3-19.8z"/><path class="st1" d="M380.3 310.9c-11.4-6.6-22.8-13.2-34.3-19.8v54.4c11.4 6.6 22.8 13.2 34.3 19.8v-54.4"/><path class="st3" d="M380.3 310.9c-11.4-6.6-22.8-13.2-34.3-19.8v54.4c11.4 6.6 22.8 13.2 34.3 19.8v-54.4z"/><path class="st1" d="M414.6 291.1l-34.3 19.8c-11.4-6.6-22.8-13.2-34.3-19.8 11.4-6.6 22.8-13.2 34.3-19.8 11.4 6.6 22.8 13.2 34.3 19.8"/><path class="st3" d="M414.6 291.1l-34.3 19.8c-11.4-6.6-22.8-13.2-34.3-19.8 11.4-6.6 22.8-13.2 34.3-19.8 11.4 6.6 22.8 13.2 34.3 19.8z"/><path class="st1" d="M511.5 334.5v54.4l-34.3 19.8v-54.4c11.5-6.6 22.9-13.2 34.3-19.8"/><path class="st3" d="M511.5 334.5v54.4l-34.3 19.8v-54.4c11.5-6.6 22.9-13.2 34.3-19.8z"/><path class="st1" d="M477.3 354.2c-11.4-6.6-22.8-13.2-34.3-19.8v54.4c11.4 6.6 22.8 13.2 34.3 19.8v-54.4"/><path class="st3" d="M477.3 354.2c-11.4-6.6-22.8-13.2-34.3-19.8v54.4c11.4 6.6 22.8 13.2 34.3 19.8v-54.4z"/><path class="st1" d="M511.5 334.5c-11.4 6.6-22.8 13.2-34.3 19.8-11.4-6.6-22.8-13.2-34.3-19.8 11.4-6.6 22.8-13.2 34.3-19.8 11.5 6.6 22.9 13.2 34.3 19.8"/><path class="st3" d="M511.5 334.5c-11.4 6.6-22.8 13.2-34.3 19.8-11.4-6.6-22.8-13.2-34.3-19.8 11.4-6.6 22.8-13.2 34.3-19.8 11.5 6.6 22.9 13.2 34.3 19.8z"/><path class="st1" d="M472.8 356.9v54.4L438.6 431v-54.4c11.4-6.6 22.8-13.2 34.2-19.7"/><path class="st3" d="M472.8 356.9v54.4L438.6 431v-54.4c11.4-6.6 22.8-13.2 34.2-19.7z"/><path class="st1" d="M438.6 376.6c-11.4-6.6-22.8-13.2-34.3-19.8v54.4c11.4 6.6 22.8 13.2 34.3 19.8v-54.4"/><path class="st3" d="M438.6 376.6c-11.4-6.6-22.8-13.2-34.3-19.8v54.4c11.4 6.6 22.8 13.2 34.3 19.8v-54.4z"/><path class="st1" d="M472.8 356.9c-11.4 6.6-22.8 13.2-34.3 19.8-11.4-6.6-22.8-13.2-34.3-19.8 11.4-6.6 22.8-13.2 34.3-19.8 11.5 6.6 22.9 13.2 34.3 19.8"/><path class="st3" d="M472.8 356.9c-11.4 6.6-22.8 13.2-34.3 19.8-11.4-6.6-22.8-13.2-34.3-19.8 11.4-6.6 22.8-13.2 34.3-19.8 11.5 6.6 22.9 13.2 34.3 19.8z"/><path class="st1" d="M434.2 378.9v54.4c-11.4 6.6-22.8 13.2-34.3 19.8v-54.4c11.4-6.6 22.8-13.2 34.3-19.8"/><path class="st3" d="M434.2 378.9v54.4c-11.4 6.6-22.8 13.2-34.3 19.8v-54.4c11.4-6.6 22.8-13.2 34.3-19.8z"/><path class="st1" d="M399.9 398.7c-11.4-6.6-22.8-13.2-34.3-19.8v54.4c11.4 6.6 22.8 13.2 34.3 19.8v-54.4"/><path class="st3" d="M399.9 398.7c-11.4-6.6-22.8-13.2-34.3-19.8v54.4c11.4 6.6 22.8 13.2 34.3 19.8v-54.4z"/><path class="st1" d="M434.2 378.9c-11.4 6.6-22.8 13.2-34.3 19.8-11.4-6.6-22.8-13.2-34.3-19.8 11.4-6.6 22.8-13.2 34.3-19.8 11.4 6.6 22.8 13.2 34.3 19.8"/><path class="st3" d="M434.2 378.9c-11.4 6.6-22.8 13.2-34.3 19.8-11.4-6.6-22.8-13.2-34.3-19.8 11.4-6.6 22.8-13.2 34.3-19.8 11.4 6.6 22.8 13.2 34.3 19.8z"/><path class="st1" d="M550.2 356.9v54.4L516 431v-54.4c11.4-6.6 22.8-13.2 34.2-19.7"/><path class="st3" d="M550.2 356.9v54.4L516 431v-54.4c11.4-6.6 22.8-13.2 34.2-19.7z"/><path class="st1" d="M516 376.6c-11.4-6.6-22.8-13.2-34.3-19.8v54.4c11.4 6.6 22.8 13.2 34.3 19.8v-54.4"/><path class="st3" d="M516 376.6c-11.4-6.6-22.8-13.2-34.3-19.8v54.4c11.4 6.6 22.8 13.2 34.3 19.8v-54.4z"/><path class="st1" d="M550.2 356.9c-11.4 6.6-22.8 13.2-34.3 19.8-11.4-6.6-22.8-13.2-34.3-19.8 11.4-6.6 22.8-13.2 34.3-19.8 11.5 6.6 22.9 13.2 34.3 19.8"/><path class="st3" d="M550.2 356.9c-11.4 6.6-22.8 13.2-34.3 19.8-11.4-6.6-22.8-13.2-34.3-19.8 11.4-6.6 22.8-13.2 34.3-19.8 11.5 6.6 22.9 13.2 34.3 19.8z"/><path class="st1" d="M511.5 379.2v54.4c-11.4 6.6-22.8 13.2-34.3 19.8V399c11.5-6.6 22.9-13.2 34.3-19.8"/><path class="st3" d="M511.5 379.2v54.4c-11.4 6.6-22.8 13.2-34.3 19.8V399c11.5-6.6 22.9-13.2 34.3-19.8z"/><path class="st1" d="M477.3 399c-11.4-6.6-22.8-13.2-34.3-19.8v54.4c11.4 6.6 22.8 13.2 34.3 19.8V399"/><path class="st3" d="M477.3 399c-11.4-6.6-22.8-13.2-34.3-19.8v54.4c11.4 6.6 22.8 13.2 34.3 19.8V399z"/><path class="st1" d="M511.5 379.2c-11.4 6.6-22.8 13.2-34.3 19.8-11.4-6.6-22.8-13.2-34.3-19.8 11.4-6.6 22.8-13.2 34.3-19.8 11.5 6.7 22.9 13.3 34.3 19.8"/><path class="st3" d="M511.5 379.2c-11.4 6.6-22.8 13.2-34.3 19.8-11.4-6.6-22.8-13.2-34.3-19.8 11.4-6.6 22.8-13.2 34.3-19.8 11.5 6.7 22.9 13.3 34.3 19.8z"/><path class="st1" d="M472.8 401.3v54.4l-34.3 19.8v-54.4c11.5-6.6 22.9-13.2 34.3-19.8"/><path class="st3" d="M472.8 401.3v54.4l-34.3 19.8v-54.4c11.5-6.6 22.9-13.2 34.3-19.8z"/><path class="st1" d="M438.6 421.1c-11.4-6.6-22.8-13.2-34.3-19.8v54.4c11.4 6.6 22.8 13.2 34.3 19.8v-54.4"/><path class="st3" d="M438.6 421.1c-11.4-6.6-22.8-13.2-34.3-19.8v54.4c11.4 6.6 22.8 13.2 34.3 19.8v-54.4z"/><path class="st1" d="M472.8 401.3c-11.4 6.6-22.8 13.2-34.3 19.8-11.4-6.6-22.8-13.2-34.3-19.8 11.4-6.6 22.8-13.2 34.3-19.8 11.5 6.6 22.9 13.2 34.3 19.8"/><path class="st3" d="M472.8 401.3c-11.4 6.6-22.8 13.2-34.3 19.8-11.4-6.6-22.8-13.2-34.3-19.8 11.4-6.6 22.8-13.2 34.3-19.8 11.5 6.6 22.9 13.2 34.3 19.8z"/><path class="st1" d="M492.8 291v54.4c-11.4 6.6-22.8 13.2-34.3 19.8v-54.4l34.3-19.8z"/><path class="st3" d="M492.8 291v54.4c-11.4 6.6-22.8 13.2-34.3 19.8v-54.4l34.3-19.8z"/><path class="st1" d="M458.5 310.8c-11.4-6.6-22.8-13.2-34.3-19.8v54.4c11.4 6.6 22.8 13.2 34.3 19.8v-54.4"/><path class="st3" d="M458.5 310.8c-11.4-6.6-22.8-13.2-34.3-19.8v54.4c11.4 6.6 22.8 13.2 34.3 19.8v-54.4z"/><path class="st1" d="M492.8 291l-34.3 19.8c-11.4-6.6-22.8-13.2-34.3-19.8 11.4-6.6 22.8-13.2 34.3-19.8 11.5 6.6 22.9 13.2 34.3 19.8"/><path class="st3" d="M492.8 291l-34.3 19.8c-11.4-6.6-22.8-13.2-34.3-19.8 11.4-6.6 22.8-13.2 34.3-19.8 11.5 6.6 22.9 13.2 34.3 19.8z"/><path class="st1" d="M454.1 313v54.4l-34.3 19.8v-54.4c11.5-6.6 22.9-13.2 34.3-19.8"/><path class="st3" d="M454.1 313v54.4l-34.3 19.8v-54.4c11.5-6.6 22.9-13.2 34.3-19.8z"/><path class="st1" d="M419.9 332.8c-11.4-6.6-22.8-13.2-34.3-19.8v54.4c11.4 6.6 22.8 13.2 34.3 19.8v-54.4"/><path class="st3" d="M419.9 332.8c-11.4-6.6-22.8-13.2-34.3-19.8v54.4c11.4 6.6 22.8 13.2 34.3 19.8v-54.4z"/><path class="st1" d="M454.1 313c-11.4 6.6-22.8 13.2-34.3 19.8-11.4-6.6-22.8-13.2-34.3-19.8 11.4-6.6 22.8-13.2 34.3-19.8 11.5 6.6 22.9 13.2 34.3 19.8"/><path class="st3" d="M454.1 313c-11.4 6.6-22.8 13.2-34.3 19.8-11.4-6.6-22.8-13.2-34.3-19.8 11.4-6.6 22.8-13.2 34.3-19.8 11.5 6.6 22.9 13.2 34.3 19.8z"/><path class="st1" d="M531.8 313v54.4l-34.3 19.8v-54.4c11.5-6.6 22.9-13.2 34.3-19.8"/><path class="st3" d="M531.8 313v54.4l-34.3 19.8v-54.4c11.5-6.6 22.9-13.2 34.3-19.8z"/><path class="st1" d="M497.6 332.8c-11.4-6.6-22.8-13.2-34.3-19.8v54.4c11.4 6.6 22.8 13.2 34.3 19.8v-54.4"/><path class="st3" d="M497.6 332.8c-11.4-6.6-22.8-13.2-34.3-19.8v54.4c11.4 6.6 22.8 13.2 34.3 19.8v-54.4z"/><path class="st1" d="M531.8 313c-11.4 6.6-22.8 13.2-34.3 19.8-11.4-6.6-22.8-13.2-34.3-19.8 11.4-6.6 22.8-13.2 34.3-19.8 11.5 6.6 22.9 13.2 34.3 19.8"/><path class="st3" d="M531.8 313c-11.4 6.6-22.8 13.2-34.3 19.8-11.4-6.6-22.8-13.2-34.3-19.8 11.4-6.6 22.8-13.2 34.3-19.8 11.5 6.6 22.9 13.2 34.3 19.8z"/></svg>