<svg version="1.1" id="Layer_1" xmlns="http://www.w3.org/2000/svg" xmlns:xlink="http://www.w3.org/1999/xlink" x="0" y="0" viewBox="0 0 64 64" xml:space="preserve"><style>.st1{clip-path:url(#XMLID_19_);fill:#ec1c59}</style><g id="XMLID_1_"><path id="XMLID_17_" d="M26.9 43.9h14m-14-2.7h13.7m-13.7-2.8h14.4m-14.4-2.7h15.4M26.9 33h16.8m3-2.7H26.9v16.4M58.2 22l-20.3-9.6L17.6 22v4.7h40.6V22zm-40.6.1h40.6M17.6 46.7h25.3M21.1 30.3v16.4" fill="none" stroke="#ec1c59" stroke-width="1.345" stroke-linecap="round" stroke-linejoin="round" stroke-miterlimit="10"/><defs><path id="XMLID_2_" d="M.2 0h64v64H.2z"/></defs><clipPath id="XMLID_19_"><use xlink:href="#XMLID_2_" overflow="visible"/></clipPath><path class="st1" d="M54.4 33.1c-4.6 0-8.3 3.7-8.3 8.3s3.7 8.3 8.3 8.3c4.6 0 8.3-3.7 8.3-8.3s-3.8-8.3-8.3-8.3m0 18.3c-5.4 0-9.9-4.5-9.9-9.9 0-5.5 4.4-9.9 9.9-9.9 5.4 0 9.9 4.5 9.9 9.9-.1 5.4-4.5 9.9-9.9 9.9"/><path id="XMLID_4_" class="st1" d="M59.1 36.9l-3.9 5.7c-.6.8-1.7.9-2.4.2s-.6-1.9.2-2.4l5.7-3.9c.3-.2.6.1.4.4"/><path id="XMLID_3_" d="M47 54.2c1 2.5-.1 5.4-2.6 6.5-2.5 1.1-5.4-.1-6.5-2.5-.1-.2-.3-.3-.6-.3-.2.1-.4.3-.4.5 0 2.7-2.2 4.9-4.9 4.9-2.2 0-4.1-1.5-4.7-3.6-.1-.2-.2-.3-.4-.4-.2 0-.4 0-.5.2-1.3 1.8-3.7 2.4-5.7 1.6-2-.8-3.3-2.9-3.1-5.1 0-.2-.1-.4-.2-.5-.2-.1-.4-.1-.6 0-1.9 1.1-4.3.9-5.9-.6-2-1.8-2.1-5-.3-7 .2-.2.2-.5 0-.7-.1-.2-.4-.3-.6-.2-2.5 1-5.4-.1-6.4-2.6-1.1-2.4 0-5.3 2.5-6.4.2-.1.3-.3.3-.6-.1-.3-.3-.4-.5-.4C3.2 37 1 34.7 1 32c0-2.2 1.5-4.2 3.6-4.8.2 0 .3-.2.4-.4 0-.2 0-.4-.2-.5C3 25 2.4 22.6 3.2 20.6c.8-2.1 2.9-3.3 5.1-3.1.2 0 .4-.1.5-.2.1-.2.1-.4 0-.6-1.1-1.9-.9-4.3.6-5.9 1.8-2 4.9-2.1 6.9-.3.2.2.5.2.7 0 .2-.1.3-.4.2-.6-1-2.5.1-5.4 2.6-6.5 2.5-1.1 5.4.1 6.5 2.5.1.2.3.3.6.3.2-.1.4-.3.4-.5C27.3 3 29.5.8 32.2.8c2.2 0 4.1 1.5 4.7 3.6.1.2.2.3.4.4.2 0 .4 0 .5-.2 1.3-1.8 3.7-2.4 5.7-1.6 2 .8 3.3 2.9 3.1 5.1 0 .2.1.4.2.5.2.1.4.1.6 0 1.9-1.1 4.3-.9 5.9.6" clip-path="url(#XMLID_19_)" fill="none" stroke="#333232" stroke-width="1.562" stroke-linecap="round" stroke-linejoin="round"/></g></svg>