<svg xmlns="http://www.w3.org/2000/svg" xmlns:xlink="http://www.w3.org/1999/xlink" viewBox="0 0 64 64"><defs><path id="a" d="M0 0h64v64H0z"/></defs><clipPath id="b"><use xlink:href="#a" overflow="visible"/></clipPath><path d="M58.5 26.5c2.8-1.2 4-4.5 2.8-7.2-1-2.3-3.4-3.6-5.8-3.3 1.2-2.1.9-4.8-.9-6.6-1.8-1.8-4.5-2.1-6.6-.9.3-2.4-1-4.8-3.3-5.8-2.8-1.2-6 0-7.2 2.8C37.5 2.4 35 0 32 0s-5.5 2.4-5.5 5.5c-1.2-2.8-4.5-4-7.2-2.8-2.3 1-3.6 3.4-3.3 5.8-2.1-1.2-4.8-.9-6.6.9-1.8 1.8-2.1 4.5-.9 6.6-2.4-.3-4.8.9-5.8 3.3-1.2 2.8 0 6 2.8 7.2C2.4 26.5 0 29 0 32s2.4 5.5 5.5 5.5c-2.8 1.2-4 4.5-2.8 7.2 1 2.3 3.4 3.6 5.8 3.3-1.2 2.1-.9 4.8.9 6.6 1.8 1.8 4.5 2.1 6.6.9-.3 2.4 1 4.8 3.3 5.8 2.8 1.2 6 0 7.2-2.8 0 3 2.5 5.5 5.5 5.5s5.5-2.4 5.5-5.5c1.2 2.8 4.5 4 7.2 2.8 2.3-1 3.6-3.4 3.3-5.8 2.1 1.2 4.8.9 6.6-.9 1.8-1.8 2.1-4.5.9-6.6 2.4.3 4.8-1 5.8-3.3 1.2-2.8 0-6-2.8-7.2 3 0 5.5-2.5 5.5-5.5s-2.4-5.5-5.5-5.5" clip-path="url(#b)" fill="#ec1c59"/><path d="M27.8 42.5c-.8 0-1.5-.3-2-.8l-7.1-7c-1.1-1.1-1.1-2.9 0-4s2.9-1.1 4 0l5.1 5 13.5-13.4c1.1-1.1 2.9-1.1 4 0s1.1 2.9 0 4L29.8 41.7c-.5.5-1.2.8-2 .8" clip-path="url(#b)" fill="#fff"/></svg>