<svg xmlns="http://www.w3.org/2000/svg" xmlns:xlink="http://www.w3.org/1999/xlink" viewBox="0 0 23.3 23.3"><defs><path id="a" d="M3.1 3.2h17V20h-17z"/></defs><clipPath id="b"><use xlink:href="#a" overflow="visible"/></clipPath><path d="M14.9 11.6l4.6-4.5c.9-.9.9-2.3 0-3.2-.9-.9-2.3-.9-3.2 0l-4.6 4.5L7 3.9c-.8-.9-2.3-.9-3.2 0-.9.9-.9 2.3 0 3.2l4.6 4.5-4.6 4.5c-.9.9-.9 2.3 0 3.2.4.4 1 .7 1.6.7.6 0 1.2-.2 1.6-.6l4.6-4.5 4.6 4.5c.4.4 1 .7 1.6.7s1.2-.2 1.6-.7c.9-.9.9-2.3 0-3.2l-4.5-4.6z" clip-path="url(#b)" fill="#ec1c59"/></svg>