<svg xmlns="http://www.w3.org/2000/svg" xmlns:xlink="http://www.w3.org/1999/xlink" viewBox="0 0 25.4 25.4">
  <defs>
    <path id="a" d="M0 0h25.4v25.4H0z"/>
  </defs>
  <clipPath id="b">
    <use xlink:href="#a" overflow="visible"/>
  </clipPath>
  <path d="M15.5 12.7c0-1.5-1.2-2.7-2.8-2.7s-2.8 1.2-2.8 2.7c0 1.5 1.2 2.7 2.8 2.7s2.8-1.2 2.8-2.7M18 9.5V7.9c0-.3-.3-.6-.6-.6h-1.6c-.3 0-.6.3-.6.6v1.5c0 .3.3.6.6.6h1.6c.4.1.6-.2.6-.5m0 8v-5.8h-1.2c.2.3.2.7.2 1.2 0 2.3-1.9 4.2-4.3 4.2s-4.3-1.8-4.3-4.2c0-.4 0-.8.2-1.2H7.3v5.8c0 .3.3.5.6.5h9.6c.3.1.5-.2.5-.5m1.6.4c0 1-.8 1.7-1.8 1.7H7.5c-1 0-1.8-.8-1.8-1.7V7.6c0-1 .8-1.8 1.8-1.8h10.3c1 0 1.8.8 1.8 1.8v10.3zm5.8-5.2C25.3 5.6 19.6-.1 12.7 0 5.7.1 0 5.7 0 12.7c0 7 5.7 12.7 12.7 12.7 7 0 12.7-5.7 12.7-12.7" clip-path="url(#b)" fill="#fff"/>
</svg>
