<?xml version="1.0" encoding="utf-8"?>
<!-- Generator: Adobe Illustrator 19.2.1, SVG Export Plug-In . SVG Version: 6.00 Build 0)  -->
<svg version="1.1" id="Layer_2" xmlns="http://www.w3.org/2000/svg" xmlns:xlink="http://www.w3.org/1999/xlink" x="0px" y="0px"
	 viewBox="0 0 183 46" style="enable-background:new 0 0 183 46;" xml:space="preserve">
<style type="text/css">
	.st0{fill:#213557;}
	.st1{fill:#1A202C;}
	.st2{fill:#3571B7;}
</style>
<g>
	<path class="st0" d="M16.9,14.9c-0.1-0.9-0.4-1.6-1-2.1c-0.5-0.5-1.2-0.8-2.1-0.8c-0.8,0-1.5,0.3-2.1,0.8c-0.5,0.5-0.9,1.2-1,2.1
		H16.9L16.9,14.9z M14,26.5c-1.6,0-3.1-0.3-4.3-0.8c-1.3-0.5-2.3-1.2-3.2-2.1c-0.9-0.9-1.5-1.9-2-3c-0.4-1.1-0.7-2.3-0.7-3.6
		c0-1.3,0.2-2.6,0.7-3.8c0.4-1.2,1.1-2.2,1.9-3.1c0.9-0.9,1.9-1.6,3.2-2.1c1.3-0.5,2.7-0.8,4.4-0.8c1.6,0,3.1,0.3,4.4,0.8
		c1.3,0.5,2.3,1.2,3.2,2.1c0.9,0.9,1.5,1.9,1.9,3.1c0.4,1.2,0.7,2.4,0.7,3.6c0,0.4,0,0.7-0.1,1.1c0,0.4-0.1,0.7-0.1,1h-13
		c0.1,1,0.4,1.7,1.1,2.1c0.7,0.4,1.4,0.7,2.1,0.7c0.7,0,1.4-0.2,2.1-0.5c0.6-0.3,1.1-0.8,1.3-1.4l5.7,1.6c-0.8,1.5-1.9,2.7-3.5,3.6
		C18.2,26,16.2,26.5,14,26.5L14,26.5z"/>
	<path class="st0" d="M44.9,26.1h-6.7V15.7c0-0.9-0.2-1.6-0.6-2c-0.4-0.4-0.9-0.6-1.4-0.6c-0.6,0-1.2,0.2-1.8,0.7
		c-0.6,0.5-1.1,1.1-1.4,1.9v10.4h-6.7V7.6h6v2.7c0.7-1,1.6-1.8,2.8-2.3c1.2-0.5,2.6-0.8,4.2-0.8c1.3,0,2.3,0.2,3,0.7
		C43,8.4,43.6,9,44,9.7c0.4,0.7,0.6,1.4,0.8,2.2c0.1,0.8,0.2,1.5,0.2,2.1V26.1L44.9,26.1z"/>
	<path class="st0" d="M61.2,25.1c-0.9,0.4-1.9,0.7-3,1c-1.1,0.3-2.1,0.4-3.2,0.4c-0.8,0-1.5-0.1-2.1-0.3c-0.7-0.2-1.3-0.5-1.8-0.9
		c-0.5-0.4-0.9-1-1.2-1.7c-0.3-0.7-0.4-1.5-0.4-2.5v-8.5h-2.3v-5h2.3V1.8h6.7v5.8h3.6v5h-3.6v6.1c0,0.6,0.1,1,0.4,1.3
		c0.3,0.2,0.6,0.4,1.1,0.4c0.3,0,0.7-0.1,1.1-0.2c0.4-0.1,0.8-0.3,1.3-0.4L61.2,25.1L61.2,25.1z"/>
	<polygon class="st0" points="63.1,26.1 63.1,7.6 69.8,7.6 69.8,26.1 63.1,26.1 	"/>
	<path class="st0" d="M86.1,25.1c-0.9,0.4-1.9,0.7-3,1C82,26.4,81,26.5,80,26.5c-0.8,0-1.5-0.1-2.1-0.3c-0.7-0.2-1.3-0.5-1.8-0.9
		c-0.5-0.4-0.9-1-1.2-1.7c-0.3-0.7-0.4-1.5-0.4-2.5v-8.5h-2.3v-5h2.3V1.8h6.7v5.8h3.6v5h-3.6v6.1c0,0.6,0.1,1,0.4,1.3
		c0.3,0.2,0.6,0.4,1.1,0.4c0.3,0,0.7-0.1,1.1-0.2c0.4-0.1,0.8-0.3,1.3-0.4L86.1,25.1L86.1,25.1z"/>
	<path class="st0" d="M87.9,0.4h6.7v18.3c0,1.4,0.6,2.1,1.7,2.1c0.3,0,0.6,0,0.9-0.1c0.3-0.1,0.6-0.2,0.9-0.4l0.8,4.9
		c-0.8,0.4-1.7,0.7-2.7,0.9c-1,0.2-1.9,0.3-2.8,0.3c-1.8,0-3.2-0.5-4.1-1.4c-1-0.9-1.4-2.2-1.4-4V0.4L87.9,0.4z"/>
	<path class="st0" d="M112.6,14.9c-0.1-0.9-0.4-1.6-1-2.1c-0.5-0.5-1.2-0.8-2.1-0.8c-0.8,0-1.5,0.3-2.1,0.8c-0.5,0.5-0.9,1.2-1,2.1
		H112.6L112.6,14.9z M109.7,26.5c-1.6,0-3.1-0.3-4.3-0.8c-1.3-0.5-2.3-1.2-3.2-2.1c-0.9-0.9-1.5-1.9-2-3c-0.4-1.1-0.7-2.3-0.7-3.6
		c0-1.3,0.2-2.6,0.7-3.8c0.4-1.2,1.1-2.2,1.9-3.1c0.9-0.9,1.9-1.6,3.2-2.1c1.3-0.5,2.7-0.8,4.4-0.8c1.6,0,3.1,0.3,4.4,0.8
		c1.3,0.5,2.3,1.2,3.2,2.1c0.9,0.9,1.5,1.9,1.9,3.1c0.4,1.2,0.7,2.4,0.7,3.6c0,0.4,0,0.7-0.1,1.1c0,0.4-0.1,0.7-0.1,1h-13
		c0.1,1,0.4,1.7,1.1,2.1c0.7,0.4,1.4,0.7,2.1,0.7c0.7,0,1.4-0.2,2.1-0.5c0.6-0.3,1.1-0.8,1.3-1.4l5.7,1.6c-0.8,1.5-1.9,2.7-3.5,3.6
		C113.8,26,111.9,26.5,109.7,26.5L109.7,26.5z"/>
	<path class="st0" d="M131.6,20.9c1.2,0,2.3-0.6,3.2-1.9v-3.3c-0.3-0.8-0.8-1.5-1.4-2c-0.6-0.5-1.3-0.8-2-0.8
		c-0.5,0-0.9,0.1-1.4,0.3c-0.4,0.2-0.8,0.5-1.1,0.9c-0.3,0.4-0.5,0.8-0.7,1.3c-0.2,0.5-0.3,1-0.3,1.6c0,1.2,0.3,2.1,1,2.8
		C129.6,20.5,130.5,20.9,131.6,20.9L131.6,20.9z M129.7,26.5c-1.3,0-2.4-0.2-3.5-0.7c-1.1-0.5-2-1.1-2.8-2c-0.8-0.9-1.4-1.9-1.8-3.1
		c-0.4-1.2-0.7-2.5-0.7-3.9c0-1.4,0.2-2.6,0.6-3.8c0.4-1.2,1-2.2,1.7-3c0.7-0.9,1.6-1.5,2.6-2c1-0.5,2.1-0.7,3.3-0.7
		c1.2,0,2.3,0.3,3.3,0.8c1,0.5,1.8,1.3,2.3,2.3V0.4h6.7v18.3c0,0.6,0.1,1.1,0.3,1.3c0.2,0.2,0.5,0.4,1,0.4v5.6
		c-1.2,0.2-2.1,0.4-2.8,0.4c-2.3,0-3.6-0.9-3.9-2.6l-0.1-0.7c-0.6,1.1-1.5,1.9-2.6,2.5C132.1,26.2,130.9,26.5,129.7,26.5L129.7,26.5
		z"/>
	<path class="st1" d="M4.4,43.1v-6.1h0.8v6.1H4.4L4.4,43.1z M4.4,35.6v-1.2h0.8v1.2H4.4L4.4,35.6z"/>
	<path class="st1" d="M12.1,43.1h-0.8v-3.4c0-0.7-0.1-1.3-0.3-1.6c-0.2-0.3-0.5-0.5-1-0.5c-0.2,0-0.5,0-0.7,0.1
		C9,37.8,8.8,37.9,8.6,38c-0.2,0.2-0.4,0.3-0.5,0.6c-0.2,0.2-0.3,0.5-0.3,0.7v3.8H6.9v-6.1h0.7v1.4c0.1-0.2,0.3-0.4,0.5-0.6
		c0.2-0.2,0.4-0.3,0.6-0.5c0.2-0.1,0.5-0.2,0.7-0.3c0.3-0.1,0.5-0.1,0.8-0.1c0.3,0,0.6,0.1,0.9,0.2c0.2,0.1,0.4,0.3,0.6,0.5
		c0.1,0.2,0.2,0.5,0.3,0.8c0.1,0.3,0.1,0.7,0.1,1.1V43.1L12.1,43.1z"/>
	<path class="st1" d="M16.4,42.5c0.2,0,0.4,0,0.6-0.1c0.2-0.1,0.4-0.2,0.6-0.3c0.2-0.1,0.4-0.3,0.5-0.5c0.1-0.2,0.2-0.4,0.3-0.6V39
		c-0.1-0.2-0.2-0.4-0.3-0.6c-0.2-0.2-0.3-0.3-0.5-0.5c-0.2-0.1-0.4-0.3-0.6-0.3c-0.2-0.1-0.4-0.1-0.6-0.1c-0.3,0-0.6,0.1-0.9,0.2
		c-0.3,0.1-0.5,0.3-0.7,0.6c-0.2,0.2-0.3,0.5-0.4,0.8c-0.1,0.3-0.2,0.6-0.2,0.9c0,0.3,0.1,0.6,0.2,0.9c0.1,0.3,0.3,0.6,0.5,0.8
		c0.2,0.2,0.4,0.4,0.7,0.5C15.8,42.4,16.1,42.5,16.4,42.5L16.4,42.5z M16.3,43.2c-0.4,0-0.8-0.1-1.2-0.3c-0.4-0.2-0.7-0.4-0.9-0.7
		c-0.3-0.3-0.5-0.6-0.6-1c-0.1-0.4-0.2-0.8-0.2-1.2c0-0.4,0.1-0.8,0.2-1.2c0.1-0.4,0.3-0.7,0.6-1c0.2-0.3,0.5-0.5,0.9-0.7
		c0.3-0.2,0.7-0.3,1.1-0.3c0.5,0,1,0.1,1.4,0.4c0.4,0.3,0.7,0.6,1,1v-3.8h0.8V42c0,0.2,0.1,0.3,0.3,0.3v0.7c-0.1,0-0.2,0-0.3,0
		c-0.2,0-0.4-0.1-0.5-0.2c-0.1-0.1-0.2-0.2-0.2-0.4v-0.6c-0.3,0.4-0.6,0.7-1,1C17.2,43.1,16.7,43.2,16.3,43.2L16.3,43.2z"/>
	<path class="st1" d="M26,39.7c0-0.3-0.1-0.6-0.2-0.9c-0.1-0.3-0.3-0.5-0.5-0.7c-0.2-0.2-0.4-0.3-0.7-0.5c-0.3-0.1-0.6-0.2-0.8-0.2
		c-0.3,0-0.6,0.1-0.8,0.2c-0.3,0.1-0.5,0.3-0.7,0.5c-0.2,0.2-0.4,0.4-0.5,0.7c-0.1,0.3-0.2,0.6-0.2,0.9H26L26,39.7z M23.8,43.2
		c-0.4,0-0.9-0.1-1.2-0.3c-0.4-0.2-0.7-0.4-1-0.7c-0.3-0.3-0.5-0.6-0.6-1c-0.2-0.4-0.2-0.8-0.2-1.2c0-0.4,0.1-0.8,0.2-1.2
		c0.2-0.4,0.4-0.7,0.6-1c0.3-0.3,0.6-0.5,1-0.7c0.4-0.2,0.8-0.3,1.2-0.3c0.4,0,0.9,0.1,1.2,0.3c0.4,0.2,0.7,0.4,1,0.7
		c0.3,0.3,0.5,0.6,0.6,1c0.1,0.4,0.2,0.8,0.2,1.2c0,0.1,0,0.1,0,0.2c0,0.1,0,0.1,0,0.1h-5.2c0,0.3,0.1,0.6,0.2,0.9
		c0.1,0.3,0.3,0.5,0.5,0.7c0.2,0.2,0.4,0.4,0.7,0.5c0.3,0.1,0.5,0.2,0.8,0.2c0.2,0,0.4,0,0.6-0.1c0.2-0.1,0.4-0.1,0.5-0.2
		c0.2-0.1,0.3-0.2,0.4-0.3c0.1-0.1,0.2-0.3,0.3-0.5l0.7,0.2c-0.1,0.2-0.2,0.4-0.4,0.6c-0.2,0.2-0.4,0.3-0.6,0.5
		c-0.2,0.1-0.5,0.2-0.8,0.3C24.3,43.1,24.1,43.2,23.8,43.2L23.8,43.2z"/>
	<path class="st1" d="M30.9,42.5c0.3,0,0.6-0.1,0.9-0.2c0.3-0.1,0.5-0.3,0.7-0.6c0.2-0.2,0.3-0.5,0.4-0.8c0.1-0.3,0.2-0.6,0.2-0.9
		c0-0.3-0.1-0.6-0.2-0.9c-0.1-0.3-0.3-0.6-0.5-0.8c-0.2-0.2-0.4-0.4-0.7-0.5c-0.3-0.1-0.6-0.2-0.9-0.2c-0.2,0-0.4,0-0.6,0.1
		c-0.2,0.1-0.4,0.2-0.6,0.3c-0.2,0.1-0.4,0.3-0.5,0.5c-0.1,0.2-0.2,0.4-0.3,0.6v1.9c0.1,0.2,0.2,0.4,0.4,0.6
		c0.1,0.2,0.3,0.4,0.5,0.5c0.2,0.1,0.4,0.2,0.6,0.3C30.5,42.4,30.7,42.5,30.9,42.5L30.9,42.5z M31.2,43.2c-0.5,0-1-0.1-1.4-0.4
		c-0.4-0.3-0.7-0.6-1-1v3.8H28v-8.7h0.7v1.2c0.3-0.4,0.6-0.7,1-0.9c0.4-0.2,0.8-0.4,1.3-0.4c0.4,0,0.8,0.1,1.2,0.3
		c0.4,0.2,0.7,0.4,0.9,0.7c0.3,0.3,0.5,0.6,0.6,1c0.1,0.4,0.2,0.8,0.2,1.2c0,0.4-0.1,0.8-0.2,1.2c-0.1,0.4-0.3,0.7-0.6,1
		c-0.2,0.3-0.5,0.5-0.9,0.7C31.9,43.1,31.6,43.2,31.2,43.2L31.2,43.2z"/>
	<path class="st1" d="M40.2,39.7c0-0.3-0.1-0.6-0.2-0.9c-0.1-0.3-0.3-0.5-0.5-0.7c-0.2-0.2-0.4-0.3-0.7-0.5
		c-0.3-0.1-0.6-0.2-0.8-0.2c-0.3,0-0.6,0.1-0.8,0.2c-0.3,0.1-0.5,0.3-0.7,0.5c-0.2,0.2-0.4,0.4-0.5,0.7c-0.1,0.3-0.2,0.6-0.2,0.9
		H40.2L40.2,39.7z M38,43.2c-0.4,0-0.9-0.1-1.2-0.3c-0.4-0.2-0.7-0.4-1-0.7c-0.3-0.3-0.5-0.6-0.6-1c-0.2-0.4-0.2-0.8-0.2-1.2
		c0-0.4,0.1-0.8,0.2-1.2c0.2-0.4,0.4-0.7,0.6-1c0.3-0.3,0.6-0.5,1-0.7c0.4-0.2,0.8-0.3,1.2-0.3c0.4,0,0.9,0.1,1.2,0.3
		c0.4,0.2,0.7,0.4,1,0.7c0.3,0.3,0.5,0.6,0.6,1c0.1,0.4,0.2,0.8,0.2,1.2c0,0.1,0,0.1,0,0.2c0,0.1,0,0.1,0,0.1h-5.2
		c0,0.3,0.1,0.6,0.2,0.9c0.1,0.3,0.3,0.5,0.5,0.7c0.2,0.2,0.4,0.4,0.7,0.5c0.3,0.1,0.5,0.2,0.8,0.2c0.2,0,0.4,0,0.6-0.1
		c0.2-0.1,0.4-0.1,0.5-0.2c0.2-0.1,0.3-0.2,0.4-0.3c0.1-0.1,0.2-0.3,0.3-0.5l0.7,0.2c-0.1,0.2-0.2,0.4-0.4,0.6
		c-0.2,0.2-0.4,0.3-0.6,0.5c-0.2,0.1-0.5,0.2-0.8,0.3C38.5,43.1,38.2,43.2,38,43.2L38,43.2z"/>
	<path class="st1" d="M47.4,43.1h-0.8v-3.4c0-0.7-0.1-1.3-0.3-1.6c-0.2-0.3-0.5-0.5-1-0.5c-0.2,0-0.5,0-0.7,0.1
		c-0.2,0.1-0.5,0.2-0.7,0.4c-0.2,0.2-0.4,0.3-0.5,0.6c-0.2,0.2-0.3,0.5-0.3,0.7v3.8h-0.8v-6.1h0.7v1.4c0.1-0.2,0.3-0.4,0.5-0.6
		c0.2-0.2,0.4-0.3,0.6-0.5c0.2-0.1,0.5-0.2,0.7-0.3c0.3-0.1,0.5-0.1,0.8-0.1c0.3,0,0.6,0.1,0.9,0.2c0.2,0.1,0.4,0.3,0.6,0.5
		c0.1,0.2,0.2,0.5,0.3,0.8c0.1,0.3,0.1,0.7,0.1,1.1V43.1L47.4,43.1z"/>
	<path class="st1" d="M51.7,42.5c0.2,0,0.4,0,0.6-0.1c0.2-0.1,0.4-0.2,0.6-0.3c0.2-0.1,0.4-0.3,0.5-0.5c0.1-0.2,0.2-0.4,0.3-0.6V39
		c-0.1-0.2-0.2-0.4-0.3-0.6c-0.2-0.2-0.3-0.3-0.5-0.5c-0.2-0.1-0.4-0.3-0.6-0.3c-0.2-0.1-0.4-0.1-0.6-0.1c-0.3,0-0.6,0.1-0.9,0.2
		c-0.3,0.1-0.5,0.3-0.7,0.6c-0.2,0.2-0.3,0.5-0.4,0.8c-0.1,0.3-0.2,0.6-0.2,0.9c0,0.3,0.1,0.6,0.2,0.9c0.1,0.3,0.3,0.6,0.5,0.8
		c0.2,0.2,0.4,0.4,0.7,0.5C51.1,42.4,51.4,42.5,51.7,42.5L51.7,42.5z M51.6,43.2c-0.4,0-0.8-0.1-1.2-0.3c-0.4-0.2-0.7-0.4-0.9-0.7
		c-0.3-0.3-0.5-0.6-0.6-1c-0.1-0.4-0.2-0.8-0.2-1.2c0-0.4,0.1-0.8,0.2-1.2c0.1-0.4,0.3-0.7,0.6-1c0.2-0.3,0.5-0.5,0.9-0.7
		c0.3-0.2,0.7-0.3,1.1-0.3c0.5,0,1,0.1,1.4,0.4c0.4,0.3,0.7,0.6,1,1v-3.8h0.8V42c0,0.2,0.1,0.3,0.3,0.3v0.7c-0.1,0-0.2,0-0.3,0
		c-0.2,0-0.4-0.1-0.5-0.2c-0.1-0.1-0.2-0.2-0.2-0.4v-0.6c-0.3,0.4-0.6,0.7-1,1C52.4,43.1,52,43.2,51.6,43.2L51.6,43.2z"/>
	<path class="st1" d="M61.3,39.7c0-0.3-0.1-0.6-0.2-0.9c-0.1-0.3-0.3-0.5-0.5-0.7c-0.2-0.2-0.4-0.3-0.7-0.5
		c-0.3-0.1-0.6-0.2-0.8-0.2c-0.3,0-0.6,0.1-0.8,0.2c-0.3,0.1-0.5,0.3-0.7,0.5c-0.2,0.2-0.4,0.4-0.5,0.7c-0.1,0.3-0.2,0.6-0.2,0.9
		H61.3L61.3,39.7z M59.1,43.2c-0.4,0-0.9-0.1-1.2-0.3c-0.4-0.2-0.7-0.4-1-0.7c-0.3-0.3-0.5-0.6-0.6-1C56,40.8,56,40.4,56,40
		c0-0.4,0.1-0.8,0.2-1.2c0.2-0.4,0.4-0.7,0.6-1c0.3-0.3,0.6-0.5,1-0.7c0.4-0.2,0.8-0.3,1.2-0.3c0.4,0,0.9,0.1,1.2,0.3
		c0.4,0.2,0.7,0.4,1,0.7c0.3,0.3,0.5,0.6,0.6,1c0.1,0.4,0.2,0.8,0.2,1.2c0,0.1,0,0.1,0,0.2c0,0.1,0,0.1,0,0.1h-5.2
		c0,0.3,0.1,0.6,0.2,0.9c0.1,0.3,0.3,0.5,0.5,0.7c0.2,0.2,0.4,0.4,0.7,0.5c0.3,0.1,0.5,0.2,0.8,0.2c0.2,0,0.4,0,0.6-0.1
		c0.2-0.1,0.4-0.1,0.5-0.2c0.2-0.1,0.3-0.2,0.4-0.3c0.1-0.1,0.2-0.3,0.3-0.5l0.7,0.2c-0.1,0.2-0.2,0.4-0.4,0.6
		c-0.2,0.2-0.4,0.3-0.6,0.5c-0.2,0.1-0.5,0.2-0.8,0.3C59.6,43.1,59.3,43.2,59.1,43.2L59.1,43.2z"/>
	<path class="st1" d="M68.5,43.1h-0.8v-3.4c0-0.7-0.1-1.3-0.3-1.6c-0.2-0.3-0.5-0.5-1-0.5c-0.2,0-0.5,0-0.7,0.1
		c-0.2,0.1-0.5,0.2-0.7,0.4c-0.2,0.2-0.4,0.3-0.5,0.6c-0.2,0.2-0.3,0.5-0.3,0.7v3.8h-0.8v-6.1H64v1.4c0.1-0.2,0.3-0.4,0.5-0.6
		c0.2-0.2,0.4-0.3,0.6-0.5c0.2-0.1,0.5-0.2,0.7-0.3c0.3-0.1,0.5-0.1,0.8-0.1c0.3,0,0.6,0.1,0.9,0.2c0.2,0.1,0.4,0.3,0.6,0.5
		c0.1,0.2,0.2,0.5,0.3,0.8c0.1,0.3,0.1,0.7,0.1,1.1V43.1L68.5,43.1z"/>
	<path class="st1" d="M73,42.8c0,0-0.1,0.1-0.2,0.1c-0.1,0-0.2,0.1-0.3,0.1c-0.1,0-0.3,0.1-0.4,0.1c-0.1,0-0.3,0-0.5,0
		c-0.2,0-0.3,0-0.5-0.1c-0.2,0-0.3-0.1-0.4-0.2c-0.1-0.1-0.2-0.2-0.3-0.4c-0.1-0.1-0.1-0.3-0.1-0.5v-4.4h-0.8v-0.6h0.8v-2.1h0.8v2.1
		h1.4v0.6h-1.4v4.2c0,0.2,0.1,0.4,0.2,0.5c0.1,0.1,0.3,0.2,0.5,0.2c0.2,0,0.4,0,0.6-0.1c0.2-0.1,0.3-0.1,0.3-0.2L73,42.8L73,42.8z"
		/>
	<polygon class="st1" points="77.1,44.6 77.1,33.9 77.8,33.9 77.8,44.6 77.1,44.6 	"/>
	<path class="st1" d="M84.5,42.6c0.4,0,0.7-0.1,1.1-0.2c0.3-0.2,0.6-0.4,0.8-0.6c0.1-0.1,0.1-0.1,0.1-0.2c0-0.1,0.1-0.2,0.1-0.2v-1
		c-0.3-0.1-0.5-0.2-0.8-0.2c-0.3-0.1-0.6-0.1-0.8-0.1c-0.6,0-1,0.1-1.4,0.3c-0.4,0.2-0.5,0.6-0.5,1c0,0.2,0,0.3,0.1,0.5
		c0.1,0.2,0.2,0.3,0.3,0.4c0.1,0.1,0.3,0.2,0.5,0.3C84,42.5,84.2,42.6,84.5,42.6L84.5,42.6z M84.3,43.2c-0.3,0-0.6,0-0.9-0.1
		c-0.3-0.1-0.5-0.2-0.7-0.4c-0.2-0.2-0.3-0.4-0.4-0.6c-0.1-0.2-0.2-0.5-0.2-0.7c0-0.3,0.1-0.5,0.2-0.8c0.1-0.2,0.3-0.4,0.5-0.6
		c0.2-0.2,0.5-0.3,0.8-0.4c0.3-0.1,0.7-0.1,1.1-0.1c0.3,0,0.6,0,0.9,0.1c0.3,0.1,0.6,0.1,0.9,0.2v-0.6c0-0.5-0.2-1-0.5-1.3
		c-0.3-0.3-0.7-0.5-1.3-0.5c-0.3,0-0.7,0.1-1,0.2c-0.3,0.1-0.7,0.3-1,0.5l-0.3-0.5c0.4-0.3,0.8-0.5,1.2-0.6c0.4-0.1,0.8-0.2,1.2-0.2
		c0.7,0,1.3,0.2,1.8,0.6c0.4,0.4,0.7,1,0.7,1.8V42c0,0.2,0.1,0.3,0.3,0.3v0.7c-0.1,0-0.1,0-0.2,0c-0.1,0-0.1,0-0.1,0
		c-0.2,0-0.3,0-0.4-0.1c-0.1-0.1-0.2-0.2-0.2-0.4l0-0.5c-0.3,0.4-0.6,0.6-1.1,0.8C85.2,43.1,84.7,43.2,84.3,43.2L84.3,43.2z"/>
	<path class="st1" d="M88.7,40c0-0.4,0.1-0.8,0.2-1.2c0.1-0.4,0.4-0.7,0.6-1c0.3-0.3,0.6-0.5,1-0.7c0.4-0.2,0.8-0.2,1.3-0.2
		c0.6,0,1.1,0.1,1.5,0.4c0.4,0.3,0.8,0.6,1,1.1l-0.8,0.2c-0.2-0.3-0.4-0.6-0.7-0.7c-0.3-0.2-0.6-0.3-1-0.3c-0.3,0-0.6,0.1-0.9,0.2
		c-0.3,0.1-0.5,0.3-0.7,0.5c-0.2,0.2-0.4,0.5-0.5,0.8c-0.1,0.3-0.2,0.6-0.2,1c0,0.3,0.1,0.7,0.2,1c0.1,0.3,0.3,0.6,0.5,0.8
		c0.2,0.2,0.4,0.4,0.7,0.5c0.3,0.1,0.6,0.2,0.9,0.2c0.2,0,0.4,0,0.6-0.1c0.2-0.1,0.4-0.1,0.5-0.2c0.2-0.1,0.3-0.2,0.4-0.3
		c0.1-0.1,0.2-0.3,0.2-0.4l0.8,0.2c-0.1,0.2-0.2,0.4-0.4,0.6c-0.2,0.2-0.4,0.3-0.6,0.5c-0.2,0.1-0.5,0.2-0.7,0.3
		c-0.3,0.1-0.6,0.1-0.8,0.1c-0.4,0-0.9-0.1-1.2-0.3c-0.4-0.2-0.7-0.4-1-0.7c-0.3-0.3-0.5-0.6-0.6-1C88.8,40.8,88.7,40.4,88.7,40
		L88.7,40z"/>
	<path class="st1" d="M95.2,40c0-0.4,0.1-0.8,0.2-1.2c0.1-0.4,0.4-0.7,0.6-1c0.3-0.3,0.6-0.5,1-0.7c0.4-0.2,0.8-0.2,1.3-0.2
		c0.6,0,1.1,0.1,1.5,0.4c0.4,0.3,0.8,0.6,1,1.1l-0.8,0.2c-0.2-0.3-0.4-0.6-0.7-0.7c-0.3-0.2-0.6-0.3-1-0.3c-0.3,0-0.6,0.1-0.9,0.2
		c-0.3,0.1-0.5,0.3-0.7,0.5c-0.2,0.2-0.4,0.5-0.5,0.8c-0.1,0.3-0.2,0.6-0.2,1c0,0.3,0.1,0.7,0.2,1c0.1,0.3,0.3,0.6,0.5,0.8
		c0.2,0.2,0.4,0.4,0.7,0.5c0.3,0.1,0.6,0.2,0.9,0.2c0.2,0,0.4,0,0.6-0.1c0.2-0.1,0.4-0.1,0.5-0.2c0.2-0.1,0.3-0.2,0.4-0.3
		c0.1-0.1,0.2-0.3,0.2-0.4l0.8,0.2c-0.1,0.2-0.2,0.4-0.4,0.6c-0.2,0.2-0.4,0.3-0.6,0.5c-0.2,0.1-0.5,0.2-0.7,0.3
		c-0.3,0.1-0.6,0.1-0.8,0.1c-0.4,0-0.9-0.1-1.2-0.3c-0.4-0.2-0.7-0.4-1-0.7c-0.3-0.3-0.5-0.6-0.6-1C95.3,40.8,95.2,40.4,95.2,40
		L95.2,40z"/>
	<path class="st1" d="M104,43.2c-0.6,0-1.1-0.2-1.5-0.7c-0.3-0.4-0.5-1.1-0.5-2v-3.6h0.8v3.5c0,1.4,0.5,2.1,1.4,2.1
		c0.2,0,0.5,0,0.7-0.1c0.2-0.1,0.4-0.2,0.6-0.3c0.2-0.1,0.4-0.3,0.5-0.5c0.2-0.2,0.3-0.4,0.4-0.7v-3.9h0.8V42c0,0.2,0.1,0.3,0.3,0.3
		v0.7c-0.2,0-0.3,0-0.3,0c-0.2,0-0.3-0.1-0.5-0.2c-0.1-0.1-0.2-0.2-0.2-0.4v-0.8c-0.3,0.5-0.6,0.9-1.1,1.1
		C105,43,104.5,43.2,104,43.2L104,43.2z"/>
	<path class="st1" d="M112.2,37.6c-0.5,0-1,0.2-1.4,0.4c-0.4,0.3-0.7,0.7-0.9,1.2v3.8h-0.8v-6.1h0.8v1.5c0.2-0.4,0.5-0.8,0.8-1.1
		c0.3-0.3,0.7-0.4,1.1-0.4c0.1,0,0.1,0,0.2,0c0.1,0,0.1,0,0.2,0V37.6L112.2,37.6z"/>
	<path class="st1" d="M115,42.6c0.4,0,0.7-0.1,1.1-0.2c0.4-0.2,0.6-0.4,0.8-0.6c0.1-0.1,0.1-0.1,0.1-0.2c0-0.1,0.1-0.2,0.1-0.2v-1
		c-0.3-0.1-0.5-0.2-0.8-0.2c-0.3-0.1-0.6-0.1-0.8-0.1c-0.6,0-1,0.1-1.4,0.3c-0.4,0.2-0.5,0.6-0.5,1c0,0.2,0,0.3,0.1,0.5
		c0.1,0.2,0.2,0.3,0.3,0.4c0.1,0.1,0.3,0.2,0.5,0.3C114.5,42.5,114.7,42.6,115,42.6L115,42.6z M114.8,43.2c-0.3,0-0.6,0-0.9-0.1
		c-0.3-0.1-0.5-0.2-0.7-0.4c-0.2-0.2-0.3-0.4-0.4-0.6s-0.2-0.5-0.2-0.7c0-0.3,0.1-0.5,0.2-0.8c0.1-0.2,0.3-0.4,0.5-0.6
		c0.2-0.2,0.5-0.3,0.8-0.4c0.3-0.1,0.7-0.1,1.1-0.1c0.3,0,0.6,0,0.9,0.1c0.3,0.1,0.6,0.1,0.9,0.2v-0.6c0-0.5-0.2-1-0.5-1.3
		c-0.3-0.3-0.7-0.5-1.3-0.5c-0.3,0-0.7,0.1-1,0.2c-0.3,0.1-0.7,0.3-1,0.5l-0.3-0.5c0.4-0.3,0.8-0.5,1.2-0.6c0.4-0.1,0.8-0.2,1.2-0.2
		c0.7,0,1.3,0.2,1.8,0.6c0.4,0.4,0.7,1,0.7,1.8V42c0,0.2,0.1,0.3,0.3,0.3v0.7c-0.1,0-0.1,0-0.2,0c-0.1,0-0.1,0-0.1,0
		c-0.2,0-0.3,0-0.4-0.1c-0.1-0.1-0.2-0.2-0.2-0.4l0-0.5c-0.3,0.4-0.6,0.6-1.1,0.8C115.7,43.1,115.2,43.2,114.8,43.2L114.8,43.2z"/>
	<path class="st1" d="M122.5,42.8c0,0-0.1,0.1-0.2,0.1c-0.1,0-0.2,0.1-0.3,0.1c-0.1,0-0.3,0.1-0.4,0.1c-0.1,0-0.3,0-0.5,0
		c-0.2,0-0.3,0-0.5-0.1c-0.2,0-0.3-0.1-0.4-0.2c-0.1-0.1-0.2-0.2-0.3-0.4c-0.1-0.1-0.1-0.3-0.1-0.5v-4.4h-0.8v-0.6h0.8v-2.1h0.8v2.1
		h1.4v0.6h-1.4v4.2c0,0.2,0.1,0.4,0.2,0.5c0.1,0.1,0.3,0.2,0.5,0.2c0.2,0,0.4,0,0.6-0.1c0.2-0.1,0.3-0.1,0.3-0.2L122.5,42.8
		L122.5,42.8z"/>
	<path class="st1" d="M128.4,39.7c0-0.3-0.1-0.6-0.2-0.9c-0.1-0.3-0.3-0.5-0.5-0.7c-0.2-0.2-0.4-0.3-0.7-0.5
		c-0.3-0.1-0.6-0.2-0.9-0.2c-0.3,0-0.6,0.1-0.8,0.2c-0.3,0.1-0.5,0.3-0.7,0.5c-0.2,0.2-0.4,0.4-0.5,0.7c-0.1,0.3-0.2,0.6-0.2,0.9
		H128.4L128.4,39.7z M126.1,43.2c-0.4,0-0.9-0.1-1.2-0.3c-0.4-0.2-0.7-0.4-1-0.7c-0.3-0.3-0.5-0.6-0.6-1c-0.2-0.4-0.2-0.8-0.2-1.2
		c0-0.4,0.1-0.8,0.2-1.2c0.2-0.4,0.4-0.7,0.6-1c0.3-0.3,0.6-0.5,1-0.7c0.4-0.2,0.8-0.3,1.2-0.3c0.4,0,0.9,0.1,1.2,0.3
		c0.4,0.2,0.7,0.4,1,0.7c0.3,0.3,0.5,0.6,0.6,1c0.1,0.4,0.2,0.8,0.2,1.2c0,0.1,0,0.1,0,0.2c0,0.1,0,0.1,0,0.1h-5.3
		c0,0.3,0.1,0.6,0.2,0.9c0.1,0.3,0.3,0.5,0.5,0.7c0.2,0.2,0.4,0.4,0.7,0.5c0.3,0.1,0.5,0.2,0.8,0.2c0.2,0,0.4,0,0.6-0.1
		c0.2-0.1,0.4-0.1,0.5-0.2c0.2-0.1,0.3-0.2,0.4-0.3c0.1-0.1,0.2-0.3,0.3-0.5l0.7,0.2c-0.1,0.2-0.2,0.4-0.4,0.6
		c-0.2,0.2-0.4,0.3-0.6,0.5c-0.2,0.1-0.5,0.2-0.8,0.3C126.7,43.1,126.4,43.2,126.1,43.2L126.1,43.2z"/>
	<polygon class="st1" points="133.5,44.6 133.5,33.9 134.2,33.9 134.2,44.6 133.5,44.6 	"/>
	<path class="st1" d="M142.1,37.6c-0.5,0-1,0.2-1.4,0.4c-0.4,0.3-0.7,0.7-0.8,1.2v3.8H139v-6.1h0.8v1.5c0.2-0.4,0.5-0.8,0.8-1.1
		c0.3-0.3,0.7-0.4,1.1-0.4c0.1,0,0.1,0,0.2,0c0.1,0,0.1,0,0.2,0V37.6L142.1,37.6z"/>
	<path class="st1" d="M148.1,39.7c0-0.3-0.1-0.6-0.2-0.9c-0.1-0.3-0.3-0.5-0.5-0.7c-0.2-0.2-0.4-0.3-0.7-0.5
		c-0.3-0.1-0.6-0.2-0.9-0.2c-0.3,0-0.6,0.1-0.8,0.2c-0.3,0.1-0.5,0.3-0.7,0.5c-0.2,0.2-0.4,0.4-0.5,0.7c-0.1,0.3-0.2,0.6-0.2,0.9
		H148.1L148.1,39.7z M145.9,43.2c-0.4,0-0.9-0.1-1.2-0.3c-0.4-0.2-0.7-0.4-1-0.7c-0.3-0.3-0.5-0.6-0.6-1c-0.2-0.4-0.2-0.8-0.2-1.2
		c0-0.4,0.1-0.8,0.2-1.2c0.2-0.4,0.4-0.7,0.6-1c0.3-0.3,0.6-0.5,1-0.7c0.4-0.2,0.8-0.3,1.2-0.3c0.4,0,0.9,0.1,1.2,0.3
		c0.4,0.2,0.7,0.4,1,0.7c0.3,0.3,0.5,0.6,0.6,1c0.1,0.4,0.2,0.8,0.2,1.2c0,0.1,0,0.1,0,0.2c0,0.1,0,0.1,0,0.1h-5.3
		c0,0.3,0.1,0.6,0.2,0.9c0.1,0.3,0.3,0.5,0.5,0.7c0.2,0.2,0.4,0.4,0.7,0.5c0.3,0.1,0.5,0.2,0.8,0.2c0.2,0,0.4,0,0.6-0.1
		c0.2-0.1,0.4-0.1,0.5-0.2c0.2-0.1,0.3-0.2,0.4-0.3c0.1-0.1,0.2-0.3,0.3-0.5l0.7,0.2c-0.1,0.2-0.2,0.4-0.4,0.6
		c-0.2,0.2-0.4,0.3-0.6,0.5c-0.2,0.1-0.5,0.2-0.8,0.3C146.4,43.1,146.1,43.2,145.9,43.2L145.9,43.2z"/>
	<path class="st1" d="M150.1,34.4h0.8v7.2c0,0.2,0.1,0.4,0.2,0.5c0.1,0.1,0.3,0.2,0.5,0.2c0.1,0,0.2,0,0.3,0c0.1,0,0.2-0.1,0.3-0.1
		l0.1,0.6c-0.2,0.1-0.3,0.1-0.5,0.2c-0.2,0-0.4,0.1-0.6,0.1c-0.4,0-0.7-0.1-0.9-0.3c-0.2-0.2-0.3-0.5-0.3-0.9V34.4L150.1,34.4z"/>
	<path class="st1" d="M153.2,43.1v-6.1h0.8v6.1H153.2L153.2,43.1z M153.2,35.6v-1.2h0.8v1.2H153.2L153.2,35.6z"/>
	<path class="st1" d="M157.6,42.6c0.4,0,0.7-0.1,1.1-0.2c0.4-0.2,0.6-0.4,0.8-0.6c0.1-0.1,0.1-0.1,0.1-0.2c0-0.1,0.1-0.2,0.1-0.2v-1
		c-0.3-0.1-0.5-0.2-0.8-0.2c-0.3-0.1-0.6-0.1-0.8-0.1c-0.6,0-1,0.1-1.4,0.3c-0.4,0.2-0.5,0.6-0.5,1c0,0.2,0,0.3,0.1,0.5
		c0.1,0.2,0.2,0.3,0.3,0.4c0.1,0.1,0.3,0.2,0.5,0.3C157.1,42.5,157.3,42.6,157.6,42.6L157.6,42.6z M157.4,43.2c-0.3,0-0.6,0-0.9-0.1
		c-0.3-0.1-0.5-0.2-0.7-0.4c-0.2-0.2-0.3-0.4-0.4-0.6c-0.1-0.2-0.2-0.5-0.2-0.7c0-0.3,0.1-0.5,0.2-0.8c0.1-0.2,0.3-0.4,0.5-0.6
		c0.2-0.2,0.5-0.3,0.8-0.4c0.3-0.1,0.7-0.1,1.1-0.1c0.3,0,0.6,0,0.9,0.1c0.3,0.1,0.6,0.1,0.9,0.2v-0.6c0-0.5-0.2-1-0.5-1.3
		c-0.3-0.3-0.7-0.5-1.3-0.5c-0.3,0-0.7,0.1-1,0.2c-0.3,0.1-0.7,0.3-1,0.5l-0.3-0.5c0.4-0.3,0.8-0.5,1.2-0.6c0.4-0.1,0.8-0.2,1.2-0.2
		c0.7,0,1.3,0.2,1.8,0.6c0.4,0.4,0.7,1,0.7,1.8V42c0,0.2,0.1,0.3,0.3,0.3v0.7c-0.1,0-0.1,0-0.2,0c-0.1,0-0.1,0-0.1,0
		c-0.2,0-0.3,0-0.4-0.1c-0.1-0.1-0.2-0.2-0.2-0.4l0-0.5c-0.3,0.4-0.6,0.6-1.1,0.8C158.3,43.1,157.8,43.2,157.4,43.2L157.4,43.2z"/>
	<path class="st1" d="M165,42.5c0.3,0,0.6-0.1,0.9-0.2c0.3-0.1,0.5-0.3,0.7-0.6c0.2-0.2,0.4-0.5,0.5-0.8c0.1-0.3,0.2-0.6,0.2-0.9
		c0-0.3-0.1-0.6-0.2-0.9c-0.1-0.3-0.3-0.6-0.4-0.8c-0.2-0.2-0.4-0.4-0.7-0.6c-0.3-0.1-0.6-0.2-0.9-0.2c-0.2,0-0.5,0-0.7,0.1
		c-0.2,0.1-0.4,0.2-0.6,0.3c-0.2,0.1-0.3,0.3-0.5,0.5c-0.1,0.2-0.3,0.4-0.4,0.6V41c0,0.2,0.1,0.4,0.3,0.6c0.1,0.2,0.3,0.3,0.5,0.5
		c0.2,0.1,0.4,0.2,0.6,0.3C164.6,42.4,164.8,42.5,165,42.5L165,42.5z M165.2,43.2c-0.5,0-0.9-0.1-1.3-0.4c-0.4-0.2-0.7-0.6-1-0.9
		v1.2h-0.7v-8.6h0.8v3.8c0.3-0.4,0.6-0.8,1-1c0.4-0.3,0.8-0.4,1.4-0.4c0.4,0,0.8,0.1,1.2,0.3c0.3,0.2,0.6,0.4,0.9,0.7
		c0.2,0.3,0.4,0.6,0.6,1c0.1,0.4,0.2,0.8,0.2,1.2c0,0.4-0.1,0.8-0.2,1.2c-0.1,0.4-0.4,0.7-0.6,1c-0.3,0.3-0.6,0.5-0.9,0.7
		C166,43.1,165.6,43.2,165.2,43.2L165.2,43.2z"/>
	<path class="st1" d="M169.5,34.4h0.8v7.2c0,0.2,0.1,0.4,0.2,0.5c0.1,0.1,0.3,0.2,0.5,0.2c0.1,0,0.2,0,0.3,0c0.1,0,0.2-0.1,0.3-0.1
		l0.1,0.6c-0.2,0.1-0.3,0.1-0.5,0.2c-0.2,0-0.4,0.1-0.6,0.1c-0.4,0-0.7-0.1-0.9-0.3c-0.2-0.2-0.3-0.5-0.3-0.9V34.4L169.5,34.4z"/>
	<path class="st1" d="M177.5,39.7c0-0.3-0.1-0.6-0.2-0.9c-0.1-0.3-0.3-0.5-0.5-0.7c-0.2-0.2-0.4-0.3-0.7-0.5
		c-0.3-0.1-0.6-0.2-0.9-0.2c-0.3,0-0.6,0.1-0.8,0.2c-0.3,0.1-0.5,0.3-0.7,0.5c-0.2,0.2-0.4,0.4-0.5,0.7c-0.1,0.3-0.2,0.6-0.2,0.9
		H177.5L177.5,39.7z M175.3,43.2c-0.4,0-0.9-0.1-1.2-0.3c-0.4-0.2-0.7-0.4-1-0.7c-0.3-0.3-0.5-0.6-0.6-1c-0.2-0.4-0.2-0.8-0.2-1.2
		c0-0.4,0.1-0.8,0.2-1.2c0.2-0.4,0.4-0.7,0.6-1c0.3-0.3,0.6-0.5,1-0.7c0.4-0.2,0.8-0.3,1.2-0.3c0.4,0,0.9,0.1,1.2,0.3
		c0.4,0.2,0.7,0.4,1,0.7c0.3,0.3,0.5,0.6,0.6,1c0.1,0.4,0.2,0.8,0.2,1.2c0,0.1,0,0.1,0,0.2c0,0.1,0,0.1,0,0.1H173
		c0,0.3,0.1,0.6,0.2,0.9c0.1,0.3,0.3,0.5,0.5,0.7c0.2,0.2,0.4,0.4,0.7,0.5c0.3,0.1,0.5,0.2,0.8,0.2c0.2,0,0.4,0,0.6-0.1
		c0.2-0.1,0.4-0.1,0.5-0.2c0.2-0.1,0.3-0.2,0.4-0.3c0.1-0.1,0.2-0.3,0.3-0.5l0.7,0.2c-0.1,0.2-0.2,0.4-0.4,0.6
		c-0.2,0.2-0.4,0.3-0.6,0.5c-0.2,0.1-0.5,0.2-0.8,0.3C175.8,43.1,175.6,43.2,175.3,43.2L175.3,43.2z"/>
	<path class="st2" d="M158.2,25.1c-0.9,0.4-1.9,0.7-3,1c-1.1,0.3-2.1,0.4-3.2,0.4c-0.8,0-1.5-0.1-2.1-0.3c-0.7-0.2-1.3-0.5-1.8-0.9
		c-0.5-0.4-0.9-1-1.2-1.7c-0.3-0.7-0.4-1.5-0.4-2.5v-8.5h-2.3v-5h2.3V1.8h6.7v5.8h3.6v5h-3.6v6.1c0,0.6,0.1,1,0.4,1.3
		c0.3,0.2,0.6,0.4,1.1,0.4c0.3,0,0.7-0.1,1.1-0.2c0.4-0.1,0.8-0.3,1.3-0.4L158.2,25.1L158.2,25.1z"/>
	<polygon class="st2" points="63.1,6.1 63.1,0.4 69.8,0.4 69.8,6.1 63.1,6.1 	"/>
	<path class="st2" d="M165.8,16.9c0,1.2,0.3,2.2,0.9,2.9c0.6,0.7,1.4,1.1,2.4,1.1c1,0,1.7-0.4,2.4-1.1c0.6-0.7,0.9-1.7,0.9-2.9
		c0-1.2-0.3-2.2-0.9-2.9c-0.6-0.7-1.4-1.1-2.4-1.1c-1,0-1.7,0.4-2.4,1.1C166.1,14.7,165.8,15.6,165.8,16.9L165.8,16.9z M169,26.5
		c-1.7,0-3.1-0.3-4.4-0.8c-1.3-0.5-2.3-1.2-3.2-2.1c-0.9-0.9-1.5-1.9-1.9-3.1c-0.4-1.2-0.7-2.4-0.7-3.6c0-1.3,0.2-2.5,0.7-3.6
		c0.4-1.2,1.1-2.2,1.9-3.1c0.9-0.9,1.9-1.6,3.2-2.1c1.3-0.5,2.7-0.8,4.4-0.8c1.6,0,3.1,0.3,4.4,0.8c1.3,0.5,2.3,1.2,3.2,2.1
		c0.9,0.9,1.5,1.9,1.9,3.1c0.4,1.2,0.7,2.4,0.7,3.6c0,1.3-0.2,2.5-0.7,3.6c-0.4,1.2-1.1,2.2-1.9,3.1c-0.9,0.9-1.9,1.6-3.2,2.1
		C172.1,26.2,170.7,26.5,169,26.5L169,26.5z"/>
</g>
</svg>
