<svg fill="#365c24" version="1.1" id="Layer_1" xmlns="http://www.w3.org/2000/svg" x="0px" y="0px"
	 viewBox="0 0 51.7 47.5" style="enable-background:new 0 0 51.7 47.5;" xml:space="preserve">
<path class="st0" d="M30.6,33.4L22.2,9.7l-0.4,0l-7.9,24.4L7.4,13.4c-0.5-1.7,0.6-2.6,1.7-2.6h0.4v-0.4H0v0.4h0.3
		c1.3,0,3,0.7,3.7,2.6l8.6,24.3c-1.9,5.1-5.9,9.9-10.7,8.9l-0.1,0.4c6.2,1.4,10.8-3.2,12.7-9.2l6.9-21.4l8.7,24.3h0.4
		c0.1-2,0.9-4.7,0.9-4.7l8.2-23.7c1.6-4.5,4.9-11.5,12-11.8V0C43-0.3,38.5,7,36.9,12.3L30.6,33.4z"/>
</svg>
