<?xml version="1.0" encoding="utf-8"?>
<!-- Generator: Adobe Illustrator 19.0.0, SVG Export Plug-In . SVG Version: 6.00 Build 0)  -->
<svg version="1.1" id="Layer_1" xmlns="http://www.w3.org/2000/svg" xmlns:xlink="http://www.w3.org/1999/xlink" x="0px" y="0px"
	 viewBox="0 0 612 97.3" style="enable-background:new 0 0 612 97.3;" xml:space="preserve">
<style type="text/css">
	.st0{clip-path:url(#XMLID_72_);fill:#4B6D3A;}
</style>
<g id="XMLID_2_">
	<defs>
		<rect id="XMLID_3_" x="0" y="0" width="612" height="97.3"/>
	</defs>
	<clipPath id="XMLID_72_">
		<use xlink:href="#XMLID_3_"  style="overflow:visible;"/>
	</clipPath>
	<path id="XMLID_24_" class="st0" d="M601,61.8v0.5h0.6c1.3,0,2.5,1.6,1.8,3l0,0l-7.9,13.9l-7.5-13.9c-0.7-1.4,0.3-3.1,1.7-3.1h0.6
		v-0.5h-12.2v0.5h0.7c2.1,0,4,1.4,5,2.9l9.5,15.8v12c0,1.7-1.5,3.1-3.2,3.1h-0.6l0,0.5h10.9l0-0.5h-0.6c-1.7,0-3.2-1.4-3.2-3.1V81
		l9.8-15.9c1.1-1.5,2.9-2.9,5-2.9h0.7v-0.5H601z M554.3,61.7c-2.2,0-5.1-0.5-6-0.9v6.3l0.5,0v-0.9c0-1.6,1.3-2.9,2.8-3h9.4V93
		c-0.1,1.7-1.5,3-3.2,3h-0.6l0,0.5h10.9l0-0.5h-0.6c-1.7,0-3.1-1.4-3.2-3.1V63.2h9.4c1.6,0.1,2.8,1.4,2.8,3V67l0.5,0v-6.3
		c-0.9,0.4-3.8,0.9-6,0.9H554.3z M545.6,88.6c-1.5,3.8-3.6,6.5-8.8,6.5h-7.1V80.2h8.5c1.3,0.1,2.4,1.1,2.4,2.5v0.7l0.5,0v-7.9
		l-0.5,0v0.7c0,1.3-1.1,2.4-2.4,2.5h-8.4V63.3h10.1c1.6,0.1,2.8,1.4,2.8,3v0.9l0.5,0v-4v-0.8v-1.5c-0.9,0.4-3.8,0.9-5.9,0.9h-14.5
		l0,0.5h0.6c1.6,0,3.2,1.2,3.2,2.9V93c0,1.7-1.4,3.1-3.2,3.1h-0.6l0,0.5h20.6l2.9-8L545.6,88.6z M517.6,96.1H517
		c-1.7,0-3.2-1.4-3.2-3.1V65.3c0-1.7,1.5-3.1,3.2-3.1h0.6l0-0.5h-10.9l0,0.5h0.6c1.7,0,3.1,1.4,3.2,3.1V93c0,1.7-1.4,3.1-3.2,3.1
		h-0.6l0,0.5h10.9L517.6,96.1z M501.9,82.1c-1.1,10.2-7.1,13.7-14.2,13.7c-8.4-0.2-14-6.7-14-16.7c0-9.9,5.6-16.5,14.3-16.5
		c6,0,10.9,3.1,12.4,8.9h0.4l-1-7c-2.9-1.9-6.9-3.4-11.8-3.4c-10.9,0-18.1,7.3-18.1,18.1c0,11,7.4,18.1,17.8,18.2
		c6.9,0,11.4-3.1,14-7.4l0.6-7.8H501.9z M446.4,95.8c-9.2,0-15.3-6.7-15.3-16.6s6.1-16.6,15.3-16.6c9.2,0,15.3,6.7,15.3,16.6
		S455.5,95.8,446.4,95.8 M446.4,61.1c-11.3,0-19.1,7.2-19.1,18.1s7.8,18.1,19.1,18.1c11.3,0,19.1-7.2,19.1-18.1
		S457.7,61.1,446.4,61.1 M411.1,72.9c-1.6-1.5-2-3.3-2-4.6c0-3,2.5-5.7,6.1-5.7c3.1,0,5.6,1.9,5.6,5.1h0.5v-6.1h-2
		c-1.3-0.3-3-0.5-4.3-0.5c-5.7,0-8.7,4.2-8.7,8.4c0,1.9,0.7,4.3,2.7,6.2l9.5,8.9c1.2,1.2,2,2.7,2,4.6c0,4-3,6.5-6.7,6.7
		c-4.4,0.2-7.7-3-7.2-8.2h-0.4c-0.8,2.2-0.9,5.4-0.6,6.9c2,2,6,2.7,8.4,2.7c5.7,0,9.3-3.8,9.3-9.3c0-2-0.5-4.2-2.5-6.1L411.1,72.9z
		 M390.9,80.4v-0.5h-9.7v0.5h0.8c1.6,0,2.6,0.8,2.6,2.3v8.8c-2.9,2.7-6.9,4.3-11.2,4.3c-8.4,0-14.2-6.7-14.2-16.6
		c0-10,5.7-16.6,14.2-16.6c6.6,0,11.1,3.2,12.6,8.9h0.4l-1-7c-2.9-1.9-6.6-3.4-12.1-3.4c-10.6,0-17.9,7.2-17.9,18.1
		c0,10.8,7.3,18.1,17.9,18.1c7.5,0,12.1-3.4,14.4-6.4v-8.2c0-1.4,0.9-2.3,2.5-2.3H390.9z M341.9,61.8l0,0.5h0.9c1.7,0,3,1.3,3.1,3
		v24.7L318.8,61h-0.5c0,0,0.5,2.8,0.5,6.2v25.9c0,1.7-1.4,3-3.1,3h-0.9l0,0.5H325l0-0.5h-0.9c-1.7,0-3-1.3-3.1-3V68.3l27.1,29h0.5
		c0,0-0.5-3.1-0.5-6.3V65.2c0.1-1.7,1.4-3,3.1-3h0.9l0-0.5H341.9z M310.5,96.1h-0.6c-1.7,0-3.2-1.4-3.2-3.1V65.3
		c0-1.7,1.5-3.1,3.2-3.1h0.6l0-0.5h-10.9l0,0.5h0.6c1.7,0,3.1,1.4,3.2,3.1V93c0,1.7-1.4,3.1-3.2,3.1h-0.6l0,0.5h10.9L310.5,96.1z
		 M282.5,72.9c-1.6-1.5-2-3.3-2-4.6c0-3,2.5-5.7,6.1-5.7c3.1,0,5.6,1.9,5.6,5.1h0.5v-6.1h-2c-1.3-0.3-3-0.5-4.3-0.5
		c-5.7,0-8.7,4.2-8.7,8.4c0,1.9,0.7,4.3,2.7,6.2l9.5,8.9c1.2,1.2,2,2.7,2,4.6c0,4-3,6.5-6.7,6.7c-4.4,0.2-7.7-3-7.2-8.2h-0.4
		c-0.8,2.2-0.9,5.4-0.6,6.9c2,2,6,2.7,8.4,2.7c5.7,0,9.3-3.8,9.3-9.3c0-2-0.5-4.2-2.5-6.1L282.5,72.9z M263.3,61.8v0.5h0.8
		c1.4,0,2.6,1,2.6,2.4v19.6c0,6.9-4.4,11.4-11.1,11.4c-6.3,0-10.6-4.8-10.6-12.1v-19c0.1-1.4,1.2-2.4,2.6-2.4h0.8v-0.5h-10.1v0.5
		h0.8c1.4,0,2.6,1,2.6,2.5v19.7c0,7.8,5.5,12.9,13.8,12.9c8.1,0,13.4-5.2,13.4-13V64.6c0.1-1.4,1.2-2.4,2.6-2.4h0.8v-0.5L263.3,61.8
		z M216.6,95.8c-9.2,0-15.3-6.7-15.3-16.6s6.1-16.6,15.3-16.6c9.2,0,15.3,6.7,15.3,16.6S225.7,95.8,216.6,95.8 M216.6,61.1
		c-11.3,0-19.1,7.2-19.1,18.1s7.8,18.1,19.1,18.1c11.3,0,19.1-7.2,19.1-18.1S227.9,61.1,216.6,61.1 M194.4,96.1h-0.6
		c-1.7,0-3.2-1.4-3.2-3.1V65.4c0-1.7,1.4-3.1,3.2-3.1h0.6l0-0.5h-10.9l0,0.5h0.6c1.7,0,3.1,1.4,3.2,3.1v13.3H167V65.3
		c0-1.7,1.5-3.1,3.2-3.1h0.6l0-0.5H160l0,0.5h0.6c1.7,0,3.1,1.4,3.2,3.1V93c0,1.7-1.4,3.1-3.2,3.1H160l0,0.5h10.9l0-0.5h-0.6
		c-1.7,0-3.2-1.4-3.2-3.1V80.1h20.4V93c-0.1,1.7-1.5,3.1-3.2,3.1h-0.6l0,0.5h10.9L194.4,96.1z M131.4,72.9c-1.6-1.5-2-3.3-2-4.6
		c0-3,2.5-5.7,6.1-5.7c3.1,0,5.6,1.9,5.6,5.1h0.5v-6.1h-2c-1.3-0.3-3-0.5-4.3-0.5c-5.7,0-8.7,4.2-8.7,8.4c0,1.9,0.7,4.3,2.7,6.2
		l9.5,8.9c1.2,1.2,2,2.7,2,4.6c0,4-3,6.5-6.7,6.7c-4.4,0.2-7.7-3-7.2-8.2h-0.4c-0.8,2.2-0.9,5.4-0.6,6.9c2,2,6,2.7,8.4,2.7
		c5.7,0,9.3-3.8,9.3-9.3c0-2-0.5-4.2-2.5-6.1L131.4,72.9z M116.8,66.8c3.3-0.1,6-3.6,4.4-7.5c-0.9-2-3.3-1.9-3.9-0.5
		c-0.6,1.3,0.5,2.2,1.2,2.9c0.9,1,1.4,3.6-1.7,4.6L116.8,66.8z M102.9,61.8l0,0.5h0.9c1.7,0,3,1.3,3.1,3v24.7L79.8,61h-0.5
		c0,0,0.5,2.8,0.5,6.2v25.9c0,1.7-1.4,3-3.1,3h-0.9l0,0.5h10.3l0-0.5h-0.9c-1.7,0-3-1.3-3.1-3V68.3l27.1,29h0.5c0,0-0.5-3.1-0.5-6.3
		V65.2c0.1-1.7,1.4-3,3.1-3h0.9l0-0.5H102.9z M71.9,88.6c-1.5,3.8-3.6,6.5-8.8,6.5h-7.1V80.2h8.5c1.3,0.1,2.4,1.1,2.4,2.5v0.7l0.5,0
		v-7.9l-0.5,0v0.7c0,1.3-1.1,2.4-2.4,2.5h-8.4V63.3H66c1.6,0.1,2.8,1.4,2.8,3v0.9l0.5,0v-4v-0.8v-1.5c-0.9,0.4-3.8,0.9-5.9,0.9H48.8
		l0,0.5h0.6c1.6,0,3.2,1.2,3.2,2.9V93c0,1.7-1.4,3.1-3.2,3.1h-0.6l0,0.5h20.6l2.9-8L71.9,88.6z M37.8,61.1h-0.5l-13.6,30l-13.9-30
		H9.4L5.7,93c-0.3,2-1.8,3.1-3.6,3.1H1.3v0.5h9.6v-0.5h-0.8c-1.1,0-2-1.1-1.9-2.1l2.2-24.3l12.7,27.6h0.5c0.3-2.1,1.7-5.1,1.7-5.1
		L35.7,69L38,94c0.1,1.1-0.9,2.1-1.9,2.1h-0.8v0.5h10.8v-0.5h-0.8c-1.8,0-3.4-1.2-3.6-3.1L37.8,61.1z"/>
	<path id="XMLID_4_" class="st0" d="M573.5,30.8v-0.5h-9.7v0.5h0.8c1.6,0,2.6,0.8,2.6,2.3v8.8c-2.9,2.7-6.9,4.3-11.2,4.3
		c-8.4,0-14.2-6.7-14.2-16.6c0-10,5.7-16.6,14.2-16.6c6.6,0,11.1,3.2,12.6,8.9h0.4l-1-7c-2.9-1.9-6.6-3.4-12.1-3.4
		c-10.6,0-17.9,7.2-17.9,18.1c0,10.8,7.3,18.1,17.9,18.1c7.5,0,12.1-3.4,14.4-6.4v-8.2c0-1.4,0.9-2.3,2.5-2.3H573.5z M524.5,12.2
		l0,0.5h0.9c1.7,0,3,1.3,3.1,3v24.7l-27.1-28.9h-0.5c0,0,0.5,2.8,0.5,6.2v25.9c0,1.7-1.4,3-3.1,3h-0.9l0,0.5h10.3l0-0.5h-0.9
		c-1.7,0-3-1.3-3.1-3V18.7l27.1,29h0.5c0,0-0.5-3.1-0.5-6.4V15.6c0.1-1.7,1.4-3,3.1-3h0.9l0-0.5H524.5z M493.1,46.5h-0.6
		c-1.7,0-3.2-1.4-3.2-3.1V15.8c0-1.7,1.5-3.1,3.2-3.1h0.6l0-0.5h-10.9l0,0.5h0.6c1.7,0,3.1,1.4,3.2,3.1v27.6c0,1.7-1.4,3.1-3.2,3.1
		h-0.6l0,0.5h10.9L493.1,46.5z M462.5,28.5l11.7-13.5c1.3-1.4,3.2-2.3,5.4-2.3h0.2v-0.4h-10.5v0.4h0.5c1.4,0,2,1.2,1.2,2.4
		l-11.7,14.7l12,14.5c2.3,2.7,6.1,2.8,7.5,2.8h2.1v-0.5c-2-0.1-3.3-0.7-4.7-2L462.5,28.5z M457.6,15.8c0-1.7,1.5-3.1,3.2-3.1h0.6
		l0-0.5h-10.9l0,0.5h0.6c1.7,0,3.1,1.4,3.2,3.1v27.6c0,1.7-1.4,3.1-3.2,3.1h-0.6l0,0.5h10.9l0-0.5h-0.6c-1.7,0-3.2-1.4-3.2-3.1V15.8
		z M419.4,12.2l0,0.5h0.6c1.7,0,3.2,1.4,3.2,3.1v27.6c0,1.7-1.5,3.1-3.2,3.1h-0.6l0,0.5h10.9l0-0.5h-0.6c-1.7,0-3.2-1.4-3.2-3.1
		V13.7c0.6,0,3.7-0.1,6.2,0c3.7,0.2,6.1,3.1,6.2,7.6c0,1.1-0.1,2.3-0.3,3c-1.4,4.5-5.2,5.1-7.8,5.2c-1.5,0-2.6,0-2.6,0V30
		c1.8,0,3.3,1.7,4.6,3.4c0.4,0.5,6,8.6,6.6,9.3c1.6,1.9,4.1,4.4,8.7,4.4h2.7v-0.5c-2.9,0-4.8-1.6-6.8-3.8c-1.9-2.1-6.2-8.2-6.2-8.2
		c-1-1.4-2.5-3-3.6-3.5c4.8,0,8.5-4.7,8.5-9.5c0-5.8-3.7-9.4-9.7-9.4H419.4z M397.3,46.2c-9.2,0-15.3-6.7-15.3-16.6
		S388.1,13,397.3,13c9.2,0,15.3,6.7,15.3,16.6S406.4,46.2,397.3,46.2 M397.3,11.5c-11.3,0-19.1,7.2-19.1,18.1s7.8,18.1,19.1,18.1
		c11.3,0,19.1-7.2,19.1-18.1S408.6,11.5,397.3,11.5 M369.1,12.2v0.5h0.4c1.4,0,2.4,1.1,1.9,3l-6.7,23.3L355,11.4l-0.5,0l-9.3,28.6
		l-7.5-24.2c-0.6-2,0.7-3.1,1.9-3.1h0.4v-0.5H329v0.5h0.4c1.5,0,3.5,0.9,4.4,3l11.3,31.9h0.5c0.1-2.4,1-5.5,1-5.5l7.5-22.9
		l10.2,28.5h0.5c0.1-2.4,1.1-5.5,1.1-5.5l8.2-26.3c0.8-2.2,2.8-3.1,4.4-3.1h0.4v-0.5H369.1z M288.4,12.2l0,0.5h0.6
		c1.7,0,3.2,1.4,3.2,3.1v27.6c0,1.7-1.5,3.1-3.2,3.1h-0.6l0,0.5h10.9l0-0.5h-0.6c-1.7,0-3.2-1.4-3.2-3.1V13.7c0.6,0,3.7-0.1,6.2,0
		c3.7,0.2,6.1,3.1,6.2,7.6c0,1.1-0.1,2.3-0.3,3c-1.4,4.5-5.2,5.1-7.8,5.2c-1.5,0-2.6,0-2.6,0V30c1.8,0,3.3,1.7,4.6,3.4
		c0.4,0.5,6,8.6,6.6,9.3c1.6,1.9,4.1,4.4,8.7,4.4h2.7v-0.5c-2.9,0-4.8-1.6-6.8-3.8c-1.9-2.1-6.2-8.2-6.2-8.2c-1-1.4-2.5-3-3.6-3.5
		c4.8,0,8.5-4.7,8.5-9.5c0-5.8-3.7-9.4-9.7-9.4H288.4z M284.2,39c-1.5,3.8-3.6,6.5-8.8,6.5h-7.1V30.6h8.5c1.3,0.1,2.4,1.1,2.4,2.5
		v0.7l0.5,0v-7.9l-0.5,0v0.7c0,1.3-1.1,2.4-2.4,2.5h-8.4V13.7h10.1c1.6,0.1,2.8,1.4,2.8,3v0.9l0.5,0v-4v-0.8v-1.5
		c-0.9,0.4-3.8,0.9-5.9,0.9h-14.5l0,0.5h0.6c1.6,0,3.2,1.2,3.2,2.9v27.9c0,1.7-1.4,3.1-3.2,3.1h-0.6l0,0.5h20.6l2.9-8H284.2z
		 M235.4,12.1c-2.2,0-5.1-0.5-6-0.9v6.3l0.5,0v-0.9c0-1.6,1.3-2.9,2.8-3h9.4v29.8c-0.1,1.7-1.5,3-3.2,3h-0.6l0,0.5h10.9l0-0.5h-0.6
		c-1.7,0-3.1-1.4-3.2-3.1V13.6h9.4c1.6,0.1,2.8,1.4,2.8,3v0.9l0.5,0v-6.3c-0.9,0.4-3.8,0.9-6,0.9H235.4z M214.2,23.3
		c-1.6-1.5-2-3.3-2-4.6c0-3,2.5-5.7,6.1-5.7c3.1,0,5.6,1.9,5.6,5.1h0.5V12h-2c-1.3-0.3-3-0.5-4.3-0.5c-5.7,0-8.7,4.2-8.7,8.4
		c0,1.9,0.7,4.3,2.7,6.2l9.5,8.9c1.2,1.2,2,2.7,2,4.6c0,4-3,6.5-6.7,6.7c-4.4,0.2-7.7-3-7.2-8.2h-0.4c-0.8,2.2-0.9,5.4-0.6,6.9
		c2,2,6,2.7,8.4,2.7c5.7,0,9.3-3.8,9.3-9.3c0-2-0.5-4.2-2.5-6.1L214.2,23.3z M204,39c-1.5,3.8-3.6,6.5-8.8,6.5H188V30.6h8.5
		c1.3,0.1,2.4,1.1,2.4,2.5v0.7l0.5,0v-7.9l-0.5,0v0.7c0,1.3-1.1,2.4-2.4,2.5H188V13.7h10.1c1.6,0.1,2.8,1.4,2.8,3v0.9l0.5,0v-4v-0.8
		v-1.5c-0.9,0.4-3.8,0.9-5.9,0.9H181l0,0.5h0.6c1.6,0,3.2,1.2,3.2,2.9v27.9c0,1.7-1.4,3.1-3.2,3.1H181l0,0.5h20.6l2.9-8H204z
		 M177,46.5h-0.6c-1.7,0-3.2-1.4-3.2-3.1V15.8c0-1.7,1.4-3.1,3.2-3.1h0.6l0-0.5h-10.9l0,0.5h0.6c1.7,0,3.1,1.4,3.2,3.1V29h-20.4
		V15.8c0-1.7,1.5-3.1,3.2-3.1h0.6l0-0.5h-10.9l0,0.5h0.6c1.7,0,3.1,1.4,3.2,3.1v27.6c0,1.7-1.4,3.1-3.2,3.1h-0.6l0,0.5h10.9l0-0.5
		h-0.6c-1.7,0-3.2-1.4-3.2-3.1V30.5h20.4v12.9c-0.1,1.7-1.5,3.1-3.2,3.1h-0.6l0,0.5H177L177,46.5z M137.6,32.5
		c-1.1,10.2-7.1,13.7-14.2,13.7c-8.4-0.2-14-6.7-14-16.7c0-9.9,5.6-16.5,14.3-16.5c6,0,10.9,3.1,12.4,8.9h0.4l-1-7
		c-2.9-1.9-6.9-3.4-11.8-3.4c-10.9,0-18.1,7.3-18.1,18.1c0,11,7.4,18.1,17.8,18.2c6.9,0,11.4-3.1,14-7.4l0.6-7.8H137.6z M92.2,12.2
		l0,0.5h0.9c1.7,0,3,1.3,3.1,3v24.7L69.1,11.4h-0.5c0,0,0.5,2.8,0.5,6.2v25.9c0,1.7-1.4,3-3.1,3h-0.9l0,0.5h10.3l0-0.5h-0.9
		c-1.7,0-3-1.3-3.1-3V18.7l27.1,29h0.5c0,0-0.5-3.1-0.5-6.4V15.6c0.1-1.7,1.4-3,3.1-3h0.9l0-0.5H92.2z M60.8,46.5h-0.6
		c-1.7,0-3.2-1.4-3.2-3.1V15.8c0-1.7,1.5-3.1,3.2-3.1h0.6l0-0.5H50l0,0.5h0.6c1.7,0,3.1,1.4,3.2,3.1v27.6c0,1.7-1.4,3.1-3.2,3.1H50
		l0,0.5h10.9L60.8,46.5z M35.8,39l-9.8-27.6l-0.5,0l-9.3,28.6L8.7,15.7c-0.6-2,0.7-3.1,1.9-3.1h0.4v-0.5H0v0.5h0.4
		c1.5,0,3.5,0.9,4.4,3l10.1,28.4c-2.2,6-6.9,11.5-12.5,10.4l-0.1,0.5c7.2,1.6,12.6-3.8,14.9-10.8l8-25.1l10.2,28.4h0.5
		c0.1-2.4,1.1-5.5,1.1-5.5l9.6-27.7c1.8-5.3,5.8-13.5,14-13.8V0C50.2-0.4,45,8.2,43.2,14.3L35.8,39z"/>
</g>
</svg>
