<svg xmlns="http://www.w3.org/2000/svg" viewBox="0 0 250.5 22.4"><path d="M243.6 12.4h1c.8 0 1.3 0 1.6-.2.3-.1.5-.3.7-.5.2-.2.2-.6.2-.9 0-.6-.2-1-.7-1.3-.4-.2-1-.3-1.9-.3h-.9v3.2zm-3-6.1h3.2c1.7 0 3 .2 3.7.5.8.3 1.4.8 1.8 1.5.4.7.7 1.6.7 2.6 0 1.1-.3 2-.9 2.7-.6.7-1.4 1.2-2.4 1.5-.6.2-1.6.2-3.2.2V22h-3V6.3zm-14.5 9.4c0 1.9.2 3.2.5 4 .4.8 1 1.4 1.8 2 .8.5 1.8.8 3 .8.9 0 1.6-.1 2.3-.4.7-.3 1.2-.7 1.7-1.3.5-.6.9-1.2 1-1.8.2-.6.3-1.7.3-3.3V6.3h-3v9.8c0 1.1-.1 1.8-.2 2.1-.1.4-.4.7-.8.9-.4.2-.8.4-1.4.4-.5 0-.9-.1-1.3-.3-.4-.2-.6-.5-.8-.9-.2-.4-.2-1-.2-1.9V6.3h-3v9.4zm-11.4-6.9c-1.5 0-2.7.5-3.7 1.5s-1.5 2.3-1.5 3.9c0 1.7.6 3.1 1.9 4.1 1 .8 2.1 1.2 3.3 1.2 1.4 0 2.6-.5 3.6-1.5s1.5-2.3 1.5-3.8-.5-2.8-1.5-3.8c-.9-1-2.2-1.6-3.6-1.6m0-2.9c2.2 0 4.1.8 5.7 2.4 1.6 1.6 2.4 3.6 2.4 5.9 0 2.3-.8 4.2-2.4 5.8-1.6 1.6-3.5 2.4-5.8 2.4-2.4 0-4.3-.8-5.9-2.5-1.6-1.6-2.3-3.6-2.3-5.8 0-1.5.4-2.9 1.1-4.2.7-1.3 1.7-2.3 3-3 1.4-.6 2.8-1 4.2-1m-17.4 3.3h.8c.8 0 1.4.1 1.7.2.3.1.5.3.7.5.2.3.3.6.3.9 0 .6-.2 1-.5 1.2-.4.2-1 .4-2 .4h-.9V9.2zM194.4 22h3v-6.7h.3l3.6 6.7h3.3l-3.7-7c1-.4 1.7-.9 2.2-1.6.5-.7.8-1.6.8-2.6s-.2-1.8-.7-2.6c-.4-.7-1-1.2-1.8-1.5-.7-.3-2-.5-3.7-.5h-3.2V22zm-4.6-13.1l-2.1 2.1c-1.3-1.4-2.9-2.1-4.7-2.1-1.6 0-2.9.5-3.9 1.5s-1.6 2.3-1.6 3.7c0 1.5.5 2.8 1.6 3.9s2.4 1.6 4 1.6c1 0 1.9-.2 2.6-.7.7-.4 1.3-1.1 1.7-2H183v-2.8h7.9v.7c0 1.4-.4 2.7-1.1 3.9-.7 1.2-1.6 2.2-2.8 2.8-1.1.6-2.5 1-4 1-1.6 0-3.1-.4-4.4-1.1-1.3-.7-2.3-1.7-3-3-.7-1.3-1.1-2.7-1.1-4.2 0-2.1.7-3.9 2.1-5.4 1.6-1.8 3.8-2.7 6.4-2.7 1.4 0 2.7.3 3.8.8 1.1.2 2.1.9 3 2m-36 3.7c1.6 0 2.8.3 3.5.8.7.5 1 1.3 1 2.2 0 .8-.3 1.4-.9 1.9-.6.4-1.7.6-3.4.6h-1v-5.5h.8zm.2-8.2c.9 0 1.6.2 2.1.6.5.4.7.9.7 1.6 0 .7-.2 1.3-.7 1.7-.5.4-1.2.6-2.2.6h-.9V4.4h1zm.9 17.6c1.7 0 3.1-.2 4.1-.7 1-.5 1.8-1.2 2.4-2.2.6-1 .9-2.1.9-3.3 0-1.2-.3-2.3-.9-3.3-.6-.9-1.6-1.7-2.9-2.3.8-.6 1.3-1.2 1.7-1.9.3-.7.5-1.4.5-2.2 0-1.3-.4-2.4-1.1-3.3-.8-.9-1.8-1.6-3.1-1.9-.9-.2-2.3-.4-4.3-.4h-3.4V22h6.1zM129 .5h4.1v13.9c0 1.2.1 2 .3 2.5.2.5.6.9 1 1.2.5.3 1.1.4 1.7.4.7 0 1.3-.2 1.9-.5.5-.3.9-.8 1.1-1.3.2-.5.3-1.5.3-2.9V.5h4.1v12.8c0 2.2-.1 3.7-.4 4.5-.2.8-.7 1.6-1.4 2.4-.7.8-1.5 1.4-2.4 1.7-.9.4-1.9.6-3.1.6-1.6 0-2.9-.4-4.1-1.1-1.2-.7-2-1.6-2.5-2.7s-.7-2.9-.7-5.5V.5zm-10.5 5.6c1.4 1.4 2.1 3.2 2.1 5.2 0 2.1-.7 3.8-2.1 5.2-1.4 1.4-3 2.1-5 2.1-1.7 0-3.2-.5-4.6-1.6-1.7-1.4-2.6-3.3-2.6-5.6 0-2.1.7-3.9 2-5.3 1.4-1.4 3-2.1 5-2.1 2.2 0 3.8.7 5.2 2.1m-10.6-4.6c-1.7 1-3.1 2.4-4.1 4.1-1 1.7-1.5 3.6-1.5 5.7 0 3.1 1.1 5.7 3.2 7.9s4.8 3.3 8.1 3.3c3.1 0 5.7-1.1 7.9-3.3 2.2-2.2 3.2-4.8 3.2-8s-1.1-5.8-3.3-8.1c-2.2-2.2-4.8-3.3-7.9-3.3-2 .2-3.8.7-5.6 1.7M82.4.5h4.2v8.1h7.2V.5h4.1V22h-4.1v-9.4h-7.2V22h-4.2V.5zM68.7 22h10.1v-3.9h-6V.5h-4.1V22zM54.6 6.2l-2.9 7.4h5.7l-2.8-7.4zM52.5.5h4.2L64.9 22h-4.3L59 17.6h-8.8L48.5 22h-4.3L52.5.5zM25 22h4.2v-9.4h7.2V22h4.1V.5h-4.1v8.1h-7.2V.5H25V22zM20.8 4.3L18 7.1C16 5 13.8 4 11.4 4c-2.1 0-3.8.7-5.2 2.1-1.4 1.4-2.1 3.1-2.1 5.2 0 1.4.3 2.7.9 3.8.6 1.1 1.5 2 2.6 2.6 1.1.6 2.4 1 3.8 1 1.2 0 2.3-.2 3.3-.7 1-.4 2.1-1.3 3.2-2.4l2.8 2.9c-1.6 1.5-3.1 2.6-4.5 3.2-1.4.6-3 .9-4.8.9-3.3 0-6.1-1.1-8.2-3.2C1.1 17.3 0 14.6 0 11.3c0-2.1.5-4.1 1.5-5.7 1-1.7 2.4-3 4.2-4C7.4.5 9.4 0 11.5 0c1.8 0 3.5.4 5.1 1.1 1.6.8 3 1.8 4.2 3.2" fill="#fff"/></svg>