<svg version="1.1" id="Layer_1" xmlns="http://www.w3.org/2000/svg" x="0" y="0" viewBox="0 0 250.7 100" xml:space="preserve"><style>.st0{fill:#18223d}.st1{fill:#ff2b06}</style><path id="XMLID_90_" class="st0" d="M28 46.2c2.3 2.2 3.6 4.8 3.9 7.7h-4.4c-.5-2.2-1.5-3.9-3-5.2-1.5-1.3-3.6-1.9-6.2-1.9-3.3 0-5.9 1.2-7.9 3.5s-3 5.9-3 10.7c0 3.9.9 7.1 2.7 9.6 1.8 2.5 4.5 3.7 8.1 3.7 3.3 0 5.8-1.3 7.5-3.9.9-1.4 1.6-3.1 2-5.4h4.4c-.4 3.5-1.7 6.5-3.9 8.9-2.6 2.9-6.2 4.3-10.7 4.3-3.9 0-7.1-1.2-9.7-3.6-3.5-3.1-5.2-8-5.2-14.5 0-5 1.3-9 3.9-12.2 2.8-3.5 6.7-5.2 11.6-5.2 4.3.2 7.6 1.3 9.9 3.5"/><path id="XMLID_89_" class="st0" d="M37.6 43.7h4.1v12.6c1-1.2 1.9-2.1 2.6-2.6 1.3-.9 3-1.3 5-1.3 3.6 0 6 1.2 7.2 3.7.7 1.4 1 3.2 1 5.7v15.7h-4.2V62c0-1.8-.2-3.1-.7-4-.7-1.3-2.2-2-4.2-2-1.7 0-3.3.6-4.7 1.8-1.4 1.2-2.1 3.4-2.1 6.7v13h-4.1V43.7z"/><path id="XMLID_86_" class="st0" d="M76.8 62.6c.9-.1 1.6-.5 1.9-1.2.2-.4.3-.9.3-1.6 0-1.4-.5-2.4-1.5-3.1-1-.6-2.4-1-4.3-1-2.1 0-3.7.6-4.6 1.8-.5.6-.8 1.6-1 2.9h-3.9c.1-3 1.1-5.1 2.9-6.3 1.9-1.2 4.1-1.8 6.6-1.8 2.9 0 5.2.6 7 1.7 1.8 1.1 2.7 2.8 2.7 5.1v14.1c0 .4.1.8.3 1 .2.3.5.4 1.1.4h.6c.2 0 .5-.1.7-.1v3c-.6.2-1.1.3-1.5.3-.3 0-.8.1-1.4.1-1.4 0-2.5-.5-3.1-1.5-.3-.5-.6-1.3-.7-2.3-.8 1.1-2 2.1-3.6 2.9-1.6.8-3.3 1.2-5.2 1.2-2.3 0-4.1-.7-5.6-2.1-1.4-1.4-2.2-3.1-2.2-5.2 0-2.3.7-4 2.1-5.3 1.4-1.3 3.3-2 5.6-2.3l6.8-.7zm-8.7 11.1c.9.7 1.9 1 3.1 1 1.5 0 2.9-.3 4.2-1 2.3-1.1 3.4-2.9 3.4-5.5V65c-.5.3-1.2.6-1.9.8-.8.2-1.6.4-2.3.5l-2.5.3c-1.5.2-2.6.5-3.4.9-1.3.7-1.9 1.9-1.9 3.4 0 1.2.5 2.1 1.3 2.8"/><path id="XMLID_85_" class="st0" d="M89.9 43.8H94v33.7h-4.1z"/><path id="XMLID_84_" class="st0" d="M100.2 43.7h4.1v12.6c1-1.2 1.9-2.1 2.6-2.6 1.3-.9 3-1.3 5-1.3 3.6 0 6 1.2 7.2 3.7.7 1.4 1 3.2 1 5.7v15.7h-4.2V62c0-1.8-.2-3.1-.7-4-.7-1.3-2.2-2-4.2-2-1.7 0-3.3.6-4.7 1.8-1.4 1.2-2.1 3.4-2.1 6.7v13h-4.1V43.7z"/><path id="XMLID_81_" class="st0" d="M144.1 55.3c2.2 2.1 3.3 5.2 3.3 9.3 0 4-1 7.2-2.9 9.8-1.9 2.6-4.9 3.9-8.9 3.9-3.4 0-6-1.1-8-3.4s-3-5.3-3-9.2c0-4.1 1-7.4 3.1-9.8 2.1-2.4 4.9-3.7 8.4-3.7 3.1 0 5.8 1 8 3.1m-2.6 16.3c1-2.1 1.5-4.4 1.5-6.9 0-2.3-.4-4.2-1.1-5.6-1.1-2.3-3.1-3.4-5.9-3.4-2.5 0-4.3 1-5.4 2.9-1.1 1.9-1.7 4.2-1.7 7 0 2.6.6 4.8 1.7 6.5 1.1 1.7 2.9 2.6 5.4 2.6 2.6.1 4.5-1 5.5-3.1"/><path id="XMLID_80_" class="st0" d="M156.5 52.9v16.3c0 1.3.2 2.3.6 3.1.7 1.5 2 2.2 4 2.2 2.8 0 4.7-1.3 5.7-3.8.6-1.4.8-3.3.8-5.7V52.9h4.1v24.5h-3.9v-3.6c-.5.9-1.2 1.7-2 2.4-1.5 1.3-3.4 1.9-5.6 1.9-3.4 0-5.8-1.2-7-3.5-.7-1.3-1-2.9-1-5V52.9h4.3z"/><path id="XMLID_77_" class="st0" d="M178.1 43.7h4v12.2c.9-1.2 2-2.1 3.2-2.7 1.3-.6 2.6-.9 4.1-.9 3.1 0 5.6 1 7.5 3.1 1.9 2.1 2.9 5.2 2.9 9.3 0 3.9-.9 7.1-2.8 9.7-1.9 2.6-4.5 3.8-7.8 3.8-1.9 0-3.4-.5-4.7-1.4-.8-.5-1.6-1.4-2.5-2.6v3.1h-3.8V43.7zm15.8 28.2c1.1-1.8 1.7-4.1 1.7-7 0-2.6-.6-4.7-1.7-6.4-1.1-1.7-2.7-2.5-4.9-2.5-1.9 0-3.5.7-5 2.1s-2.1 3.7-2.1 6.9c0 2.3.3 4.2.9 5.6 1.1 2.7 3.1 4.1 6.1 4.1 2.2-.1 3.9-1 5-2.8"/><path id="XMLID_76_" class="st1" d="M4 93.1l-2.4-3.5h2.3l1.3 2 1.3-2h2.2l-2.4 3.5L9 97H6.7l-1.5-2.3L3.7 97H1.4z"/><path id="XMLID_73_" class="st0" d="M18.6 92.6h-7.2v-1.5h7.2v1.5zm0 3.1h-7.2v-1.5h7.2v1.5z"/><path id="XMLID_70_" class="st0" d="M24.1 88.5h-2v-1.7h2v1.7zm-2 1.1h2V97h-2v-7.4z"/><path id="XMLID_69_" class="st0" d="M25.4 89.6h1.9v1c.5-.8 1.4-1.2 2.2-1.2 2.1 0 2.7 1.2 2.7 3V97h-2v-4.2c0-1.2-.4-1.8-1.3-1.8-1.1 0-1.6.6-1.6 2.1V97h-2v-7.4z"/><path id="XMLID_66_" class="st0" d="M38.8 96c-.5.8-1.3 1.1-2.3 1.1-2.2 0-3.3-1.9-3.3-3.9s1.1-3.8 3.3-3.8c.9 0 1.7.4 2.2 1.1v-3.7h2V97h-1.9v-1zM37 91c-1.3 0-1.8 1.1-1.8 2.3 0 1.2.5 2.4 1.8 2.4s1.7-1.2 1.7-2.4c.1-1.2-.4-2.3-1.7-2.3"/><path id="XMLID_63_" class="st0" d="M43.6 93.8c.1 1.3.7 1.9 1.8 1.9.8 0 1.5-.5 1.6-1h1.8c-.6 1.7-1.8 2.5-3.4 2.5-2.3 0-3.8-1.6-3.8-3.9 0-2.2 1.5-3.9 3.8-3.9 2.5 0 3.7 2.1 3.6 4.4h-5.4zm3.3-1.3c-.2-1-.6-1.6-1.6-1.6-1.3 0-1.6 1-1.7 1.6h3.3z"/><path id="XMLID_60_" class="st0" d="M49.8 89.6h1.9v.9c.5-.8 1.3-1.1 2.2-1.1 2.3 0 3.3 1.9 3.3 4 0 2-1.1 3.8-3.2 3.8-.9 0-1.7-.4-2.2-1.1v3.5h-2v-10zm5.5 3.7c0-1.2-.5-2.4-1.8-2.4s-1.7 1.2-1.7 2.4.5 2.3 1.8 2.3c1.3.1 1.7-1.1 1.7-2.3"/><path id="XMLID_57_" class="st0" d="M59.9 93.8c.1 1.3.7 1.9 1.8 1.9.8 0 1.5-.5 1.6-1h1.8c-.6 1.7-1.8 2.5-3.4 2.5-2.3 0-3.8-1.6-3.8-3.9 0-2.2 1.5-3.9 3.8-3.9 2.5 0 3.7 2.1 3.6 4.4h-5.4zm3.3-1.3c-.2-1-.6-1.6-1.6-1.6-1.3 0-1.6 1-1.7 1.6h3.3z"/><path id="XMLID_56_" class="st0" d="M66.1 89.6H68v1c.5-.8 1.4-1.2 2.2-1.2 2.1 0 2.7 1.2 2.7 3V97h-2v-4.2c0-1.2-.4-1.8-1.3-1.8-1.1 0-1.6.6-1.6 2.1V97h-2v-7.4z"/><path id="XMLID_53_" class="st0" d="M79.5 96c-.5.8-1.3 1.1-2.3 1.1-2.2 0-3.3-1.9-3.3-3.9s1.1-3.8 3.3-3.8c.9 0 1.7.4 2.2 1.1v-3.7h2V97h-1.9v-1zm-1.8-5c-1.3 0-1.8 1.1-1.8 2.3 0 1.2.5 2.4 1.8 2.4s1.7-1.2 1.7-2.4c.1-1.2-.3-2.3-1.7-2.3"/><path id="XMLID_50_" class="st0" d="M84.3 93.8c.1 1.3.7 1.9 1.8 1.9.8 0 1.5-.5 1.6-1h1.8c-.6 1.7-1.8 2.5-3.4 2.5-2.3 0-3.8-1.6-3.8-3.9 0-2.2 1.5-3.9 3.8-3.9 2.5 0 3.7 2.1 3.6 4.4h-5.4zm3.3-1.3c-.2-1-.6-1.5-1.6-1.5-1.3 0-1.6 1-1.7 1.6h3.3z"/><path id="XMLID_49_" class="st0" d="M90.5 89.6h1.9v1c.5-.8 1.4-1.2 2.2-1.2 2.1 0 2.7 1.2 2.7 3V97h-2v-4.2c0-1.2-.4-1.8-1.3-1.8-1.1 0-1.6.6-1.6 2.1V97h-2v-7.4z"/><path id="XMLID_48_" class="st0" d="M101.2 89.6h1.5V91h-1.5v3.6c0 .7.2.9.9.9.2 0 .4 0 .6-.1V97c-.3.1-.8.1-1.2.1-1.2 0-2.3-.3-2.3-1.7V91H98v-1.4h1.2v-2.2h2v2.2z"/><path id="XMLID_47_" class="st0" d="M103.5 86.8h2V97h-2z"/><path id="XMLID_46_" class="st0" d="M110.4 97.9c-.4 1.2-1.1 1.7-2.5 1.7-.4 0-.8 0-1.2-.1v-1.7c.4 0 .8.1 1.2.1.7-.1.9-.8.7-1.4l-2.6-6.9h2.2l1.7 5 1.6-5h2.1l-3.2 8.3z"/><path id="XMLID_43_" class="st0" d="M121.1 89.4c2.3 0 3.8 1.5 3.8 3.9 0 2.3-1.5 3.9-3.8 3.9s-3.8-1.5-3.8-3.9c0-2.3 1.5-3.9 3.8-3.9m0 6.3c1.4 0 1.8-1.2 1.8-2.3 0-1.2-.4-2.4-1.8-2.4s-1.8 1.2-1.8 2.4c0 1.1.5 2.3 1.8 2.3"/><path id="XMLID_42_" class="st0" d="M125.7 89.6h1.9V91c.4-.9 1.4-1.6 2.3-1.6.1 0 .3 0 .4.1v1.9c-.2 0-.5-.1-.7-.1-1.5 0-2 1.1-2 2.4V97h-2v-7.4z"/><path id="XMLID_39_" class="st0" d="M138 96.5c0 1.2-.4 3.3-3.8 3.3-1.4 0-3.1-.7-3.2-2.4h2c.2.8.8 1 1.5 1 1.1 0 1.6-.8 1.6-1.8v-1c-.4.8-1.3 1.1-2.2 1.1-2.2 0-3.1-1.7-3.1-3.7 0-1.9 1.1-3.6 3.2-3.6 1 0 1.7.3 2.2 1.2v-1h1.9v6.9zm-1.9-3.3c0-1.2-.4-2.3-1.7-2.3-1.1 0-1.6 1-1.6 2.1s.4 2.2 1.6 2.2c1.1.1 1.7-.9 1.7-2"/><path id="XMLID_36_" class="st0" d="M139 91.9c.1-1.9 1.8-2.5 3.5-2.5 1.5 0 3.2.3 3.2 2.1v3.8c0 .7.1 1.3.3 1.6h-2c-.1-.2-.1-.5-.1-.7-.6.7-1.6.9-2.5.9-1.4 0-2.5-.7-2.5-2.2 0-1.7 1.3-2.1 2.5-2.2 1.2-.2 2.4-.1 2.4-1s-.6-1-1.3-1c-.8 0-1.3.3-1.3 1.1H139zm4.6 1.5c-.3.3-1.1.3-1.7.4-.6.1-1.2.3-1.2 1.1s.6.9 1.2.9c1.6 0 1.6-1.3 1.6-1.7v-.7z"/><path id="XMLID_35_" class="st0" d="M146.9 89.6h1.9v1c.5-.8 1.4-1.2 2.2-1.2 2.1 0 2.7 1.2 2.7 3V97h-2v-4.2c0-1.2-.4-1.8-1.3-1.8-1.1 0-1.6.6-1.6 2.1V97h-2v-7.4z"/><path id="XMLID_32_" class="st0" d="M156.9 88.5h-2v-1.7h2v1.7zm-2.1 1.1h2V97h-2v-7.4z"/><path id="XMLID_31_" class="st0" d="M157.7 95.5l3.8-4.3H158v-1.6h6.2v1.6l-3.8 4.3h4.1V97h-6.8z"/><path id="XMLID_28_" class="st0" d="M166.9 93.8c.1 1.3.7 1.9 1.8 1.9.8 0 1.5-.5 1.6-1h1.8c-.6 1.7-1.8 2.5-3.4 2.5-2.3 0-3.8-1.6-3.8-3.9 0-2.2 1.5-3.9 3.8-3.9 2.5 0 3.7 2.1 3.6 4.4h-5.4zm3.3-1.3c-.2-1-.6-1.6-1.6-1.6-1.3 0-1.6 1-1.7 1.6h3.3z"/><path id="XMLID_25_" class="st0" d="M178.4 96c-.5.8-1.3 1.1-2.3 1.1-2.2 0-3.3-1.9-3.3-3.9s1.1-3.8 3.3-3.8c.9 0 1.7.4 2.2 1.1v-3.7h2V97h-1.9v-1zm-1.8-5c-1.3 0-1.8 1.1-1.8 2.3 0 1.2.5 2.4 1.8 2.4s1.7-1.2 1.7-2.4c.1-1.2-.4-2.3-1.7-2.3"/><path id="XMLID_24_" class="st0" d="M187.7 88.7h-3.1v-1.9h8.3v1.9h-3V97h-2.2z"/><path id="XMLID_23_" class="st0" d="M193.8 86.8h7.6v1.9h-5.3v2.2h4.9v1.7h-4.9v2.5h5.4V97h-7.7z"/><path id="XMLID_20_" class="st0" d="M202.5 86.8h4.4c2.6 0 4.6 1.6 4.6 5 0 2.9-1.5 5.1-4.6 5.1h-4.4V86.8zm2.2 8.3h2c1.3 0 2.5-.8 2.5-3 0-2-.7-3.4-2.9-3.4h-1.6v6.4z"/><path id="XMLID_17_" class="st0" d="M217.8 93.8c.1 1.3.7 1.9 1.8 1.9.8 0 1.5-.5 1.6-1h1.8c-.6 1.7-1.8 2.5-3.4 2.5-2.3 0-3.8-1.6-3.8-3.9 0-2.2 1.5-3.9 3.8-3.9 2.5 0 3.7 2.1 3.6 4.4h-5.4zm3.3-1.3c-.2-1-.6-1.6-1.6-1.6-1.3 0-1.6 1-1.7 1.6h3.3z"/><path id="XMLID_16_" class="st0" d="M227.8 97h-2.2l-2.5-7.4h2.1l1.5 5.1h.1l1.5-5.1h2z"/><path id="XMLID_13_" class="st0" d="M232.3 93.8c.1 1.3.7 1.9 1.8 1.9.8 0 1.5-.5 1.6-1h1.8c-.6 1.7-1.8 2.5-3.4 2.5-2.3 0-3.8-1.6-3.8-3.9 0-2.2 1.5-3.9 3.8-3.9 2.5 0 3.7 2.1 3.6 4.4h-5.4zm3.2-1.3c-.2-1-.6-1.6-1.6-1.6-1.3 0-1.6 1-1.7 1.6h3.3z"/><path id="XMLID_12_" class="st0" d="M238.5 89.6h1.9v1c.5-.8 1.4-1.2 2.2-1.2 2.1 0 2.7 1.2 2.7 3V97h-2v-4.2c0-1.2-.4-1.8-1.3-1.8-1.1 0-1.6.6-1.6 2.1V97h-2v-7.4z"/><path id="XMLID_11_" class="st0" d="M249.2 89.6h1.5V91h-1.5v3.6c0 .7.2.9.9.9.2 0 .4 0 .6-.1V97c-.3.1-.8.1-1.2.1-1.2 0-2.3-.3-2.3-1.7V91H246v-1.4h1.2v-2.2h2v2.2z"/><path id="XMLID_10_" class="st1" d="M10.1 10H.6V1.3H30V10h-9.5v25.1H10.1z"/><path id="XMLID_9_" class="st1" d="M31.6 1.3h28.5V10H42v4.2h18.1v8H42v4.2h18.1v8.7H31.6z"/><path id="XMLID_6_" class="st1" d="M61.9 1.3H79c11.3 0 15.2 8.3 15.2 16.9 0 10.4-5.5 17-17.3 17h-15V1.3zm10.4 25.1h4.1c6.5 0 7.4-5.3 7.4-8.4 0-2.1-.7-8-8.2-8h-3.3v16.4z"/><path id="XMLID_5_" class="st1" d="M109.2 22.1l-3.2-5.3-3.1 5.3h-7.6l7.2-10.7-7-10.2h7.7l2.8 5.1 2.9-5.1h7.6l-6.9 10.2 7.2 10.7z"/></svg>