<?xml version="1.0" encoding="utf-8"?>
<!-- Generator: Adobe Illustrator 19.0.0, SVG Export Plug-In . SVG Version: 6.00 Build 0)  -->
<svg version="1.1" id="Layer_1" xmlns="http://www.w3.org/2000/svg" xmlns:xlink="http://www.w3.org/1999/xlink" x="0px" y="0px"
	 viewBox="0 0 239.999 219.497" enable-background="new 0 0 239.999 219.497" xml:space="preserve">
<g>
	<defs>
		<rect id="SVGID_1_" width="239.999" height="219.497"/>
	</defs>
	<clipPath id="SVGID_2_">
		<use xlink:href="#SVGID_1_"  overflow="visible"/>
	</clipPath>
	<path clip-path="url(#SVGID_2_)" fill="#FF3DB4" d="M51.469,131.188H32.394l7.382-51.287L41.421,59.8h1.229l1.645,20.101
		L51.469,131.188z M0.236,117.123c0.827,13.508,3.71,25.823,8.309,36.865l20.93-118.18C9.529,55.896-1.81,83.659,0.236,117.123
		 M127.485,219.2c-45.633,2.791-86.49-14.132-109.049-46.989h8.212l3.082-22.566h24.411l3.282,22.566h21.33l-13.5-76.205
		c0.664,0.229,1.354,0.433,2.068,0.611c5.693-0.817,10.984-2.562,14.893-5.465c-1.899-10.723-4.115-21.416-5.751-32.801
		c2.984-2.502,6.34-4.397,10.014-6.319c-1.538-6.592-2.122-13.264-2.65-19.302c-11.221,4.22-20.541,10.451-26.554,18.233
		l-3.959-22.348H37.376c20.108-16.546,46.886-26.492,76.72-28.318c35.947-2.198,68.466,7.872,91.452,28.318h-32.402V39.51
		c-7.943-6.972-19.762-12.124-36.758-13.623c0.694,7.946,0.96,14.648,0.468,23.656c11.567,4.113,16.215,13.313,17.188,24.436
		c1.252,14.3-5.943,23.575-18.774,34.305l-6.864,5.726c1.198-30.207,4.089-55.758,1.725-82.771l-0.695-7.946
		c-0.945-10.804-8.783-16.203-21.496-15.091c-12.393,1.085-19.492,7.79-18.546,18.595l0.695,7.945
		c2.78,31.78,11.598,63.031,19.01,100.168c-4.238,6.455-6.488,13.697-5.793,21.642c0.598,6.824,4.887,14.383,8.035,17.758
		c2.301-1.173,4.964-1.883,7.83-2.058c3.602-0.221,6.958,0.439,9.758,1.877l-0.102-22.37l-1.272,0.111l-4.953,12.922l-0.402-0.926
		c-0.108-19.523,14.174-31.982,29.229-42.906c18.966-13.826,37.958-27.336,35.705-53.077c-0.619-7.077-2.806-14.335-7.248-20.803
		h13.771v125.13h20.512V47.081h7.571c10.275,15.18,16.7,33.768,18.022,55.392C243.935,170.685,192.526,215.222,127.485,219.2
		 M136.821,195c-0.587-9.579-8.294-14.923-17.65-14.351c-9.358,0.573-16.579,6.829-15.993,16.409s8.515,14.91,17.873,14.337
		C130.186,210.837,137.407,204.582,136.821,195"/>
</g>
</svg>
