<?xml version="1.0" encoding="utf-8"?>
<!-- Generator: Adobe Illustrator 19.0.0, SVG Export Plug-In . SVG Version: 6.00 Build 0)  -->
<svg version="1.1" id="Layer_4" xmlns="http://www.w3.org/2000/svg" xmlns:xlink="http://www.w3.org/1999/xlink" x="0px" y="0px"
	 viewBox="-220 43.523 518.798 474.477" enable-background="new -220 43.523 518.798 474.477" xml:space="preserve">
<ellipse fill="#FFFFFF" cx="42.31" cy="468.071" rx="57.31" ry="43.548"/>
<path fill="#FF3DB4" d="M-108.742,327.105h-41.233l15.959-110.864l3.556-43.453h2.654l3.556,43.453L-108.742,327.105z
	 M-219.488,296.702c1.786,29.198,8.019,55.82,17.961,79.689l45.242-255.465C-199.4,164.349-223.912,224.364-219.488,296.702z
	 M55.58,517.356c-98.642,6.033-186.962-30.548-235.726-101.573h17.751l6.662-48.781h52.769l7.095,48.781h46.107l-29.184-164.73
	c1.437,0.496,2.927,0.938,4.471,1.32c12.307-1.766,23.744-5.538,32.194-11.813c-4.105-23.178-8.895-46.294-12.432-70.904
	c6.449-5.408,13.704-9.504,21.646-13.661c-3.325-14.249-4.586-28.673-5.728-41.723c-24.255,9.122-44.402,22.592-57.4,39.412
	l-8.558-48.308h-34.451c43.466-35.768,101.35-57.268,165.842-61.213c77.704-4.752,147.999,17.015,197.688,61.213h-70.042v23.553
	c-17.171-15.071-42.72-26.209-79.461-29.447c1.503,17.175,2.077,31.663,1.013,51.136c25.005,8.89,35.053,28.778,37.156,52.819
	c2.704,30.913-12.848,50.963-40.583,74.158l-14.84,12.377c2.592-65.297,8.84-120.53,3.73-178.923l-1.502-17.175
	C57.754,70.519,40.811,58.849,13.33,61.253c-26.791,2.344-42.135,16.838-40.091,40.194l1.503,17.175
	c6.01,68.698,25.072,136.251,41.094,216.53c-9.162,13.953-14.025,29.606-12.522,46.781c1.291,14.752,10.563,31.092,17.367,38.388
	c4.976-2.535,10.732-4.071,16.926-4.45c7.787-0.477,15.04,0.95,21.095,4.058l-0.223-48.356l-2.749,0.24l-10.707,27.934l-0.869-2.002
	c-0.232-42.202,30.641-69.134,63.185-92.747c40.997-29.889,82.051-59.093,77.182-114.736c-1.338-15.298-6.065-30.987-15.668-44.969
	h29.77v270.49h44.339v-270.49h16.366c22.21,32.814,36.099,72.995,38.958,119.741C307.304,412.485,196.176,508.757,55.58,517.356z
	 M75.761,465.047c-1.268-20.707-17.928-32.259-38.154-31.022c-20.229,1.237-35.837,14.762-34.571,35.47
	c1.267,20.71,18.407,32.229,38.636,30.992C61.418,499.279,77.026,485.757,75.761,465.047z"/>
</svg>
