<?xml version="1.0" encoding="utf-8"?>
<!-- Generator: Adobe Illustrator 19.0.0, SVG Export Plug-In . SVG Version: 6.00 Build 0)  -->
<svg version="1.1" id="Layer_1" xmlns="http://www.w3.org/2000/svg" xmlns:xlink="http://www.w3.org/1999/xlink" x="0px" y="0px"
	 viewBox="0 0 313.4 37.1" style="enable-background:new 0 0 313.4 37.1;" xml:space="preserve">
<style type="text/css">
	.st0{fill:none;}
	.st1{fill:#939598;}
	.st2{fill:#6BA3BC;}
	.st3{fill:#BCBEC0;}
</style>
<rect x="-13.4" y="-9.8" class="st0" width="340.2" height="56.7"/>
<g>
	<g>
		<path d="M141.9,17.9l2.4-16.5h0.3l6.7,13.6l6.7-13.6h0.3l2.4,16.5h-1.6l-1.6-11.8l-5.8,11.8H151L145.1,6l-1.6,11.9H141.9z"/>
		<path d="M175,8.2L173.7,9c-1.1-1.4-2.5-2.1-4.4-2.1c-1.5,0-2.7,0.5-3.7,1.4c-1,1-1.5,2.1-1.5,3.5c0,0.9,0.2,1.7,0.7,2.5
			c0.5,0.8,1.1,1.4,1.9,1.8c0.8,0.4,1.7,0.7,2.7,0.7c1.8,0,3.3-0.7,4.4-2.1l1.2,0.8c-0.6,0.9-1.4,1.6-2.4,2c-1,0.5-2.1,0.7-3.4,0.7
			c-1.9,0-3.5-0.6-4.8-1.8c-1.3-1.2-1.9-2.7-1.9-4.5c0-1.2,0.3-2.3,0.9-3.3c0.6-1,1.4-1.8,2.5-2.4c1-0.6,2.2-0.9,3.5-0.9
			c0.8,0,1.6,0.1,2.3,0.4c0.8,0.2,1.4,0.6,1.9,1C174.1,7.1,174.6,7.6,175,8.2z"/>
		<path d="M178.2,1.4h8.3V3h-6.6v5.2h6.6v1.6h-6.6v8.1h-1.7V1.4z"/>
		<path d="M201.3,5.7v12.2h-1.6v-2.1c-0.7,0.8-1.4,1.4-2.2,1.8c-0.8,0.4-1.7,0.6-2.7,0.6c-1.7,0-3.2-0.6-4.4-1.9
			c-1.2-1.3-1.8-2.8-1.8-4.6c0-1.8,0.6-3.3,1.9-4.5c1.2-1.3,2.7-1.9,4.5-1.9c1,0,1.9,0.2,2.7,0.6c0.8,0.4,1.5,1.1,2.1,1.9V5.7H201.3
			z M195,6.9c-0.9,0-1.7,0.2-2.4,0.6c-0.7,0.4-1.3,1-1.8,1.8c-0.4,0.8-0.7,1.6-0.7,2.5c0,0.9,0.2,1.7,0.7,2.5c0.4,0.8,1,1.4,1.8,1.8
			c0.7,0.4,1.5,0.7,2.4,0.7c0.9,0,1.7-0.2,2.4-0.7c0.8-0.4,1.4-1,1.8-1.8c0.4-0.7,0.6-1.6,0.6-2.5c0-1.4-0.5-2.6-1.4-3.5
			C197.5,7.4,196.4,6.9,195,6.9z"/>
		<path d="M204.2,5.7h1.6v1.8c0.5-0.7,1-1.2,1.5-1.6c0.5-0.3,1.1-0.5,1.7-0.5c0.4,0,0.9,0.1,1.4,0.4l-0.8,1.3
			c-0.3-0.1-0.6-0.2-0.8-0.2c-0.5,0-1,0.2-1.5,0.6c-0.5,0.4-0.9,1.1-1.1,2c-0.2,0.7-0.3,2.1-0.3,4.2v4.1h-1.6V5.7z"/>
		<path d="M211.3,14.5V1h1.7v13.2c0,0.6,0.1,1.2,0.4,1.5c0.3,0.4,0.7,0.6,1.2,0.6v1.9C212.5,18.2,211.3,16.9,211.3,14.5z"/>
		<path d="M227.9,5.7v12.2h-1.6v-2.1c-0.7,0.8-1.4,1.4-2.2,1.8c-0.8,0.4-1.7,0.6-2.7,0.6c-1.7,0-3.2-0.6-4.4-1.9
			c-1.2-1.3-1.8-2.8-1.8-4.6c0-1.8,0.6-3.3,1.9-4.5c1.2-1.3,2.7-1.9,4.5-1.9c1,0,1.9,0.2,2.7,0.6c0.8,0.4,1.5,1.1,2.1,1.9V5.7H227.9
			z M221.6,6.9c-0.9,0-1.7,0.2-2.4,0.6c-0.7,0.4-1.3,1-1.8,1.8c-0.4,0.8-0.7,1.6-0.7,2.5c0,0.9,0.2,1.7,0.7,2.5
			c0.4,0.8,1,1.4,1.8,1.8c0.7,0.4,1.5,0.7,2.4,0.7c0.9,0,1.7-0.2,2.4-0.7c0.8-0.4,1.4-1,1.8-1.8c0.4-0.7,0.6-1.6,0.6-2.5
			c0-1.4-0.5-2.6-1.4-3.5C224.1,7.4,223,6.9,221.6,6.9z"/>
		<path d="M231,5.7h1.6v2.2c0.6-0.8,1.3-1.5,2.1-1.9c0.8-0.4,1.6-0.6,2.5-0.6c0.9,0,1.7,0.2,2.4,0.7c0.7,0.5,1.2,1.1,1.6,1.9
			c0.3,0.8,0.5,2,0.5,3.7v6.3H240v-5.8c0-1.4-0.1-2.3-0.2-2.8c-0.2-0.8-0.5-1.4-1-1.8c-0.5-0.4-1.2-0.6-2-0.6c-1,0-1.8,0.3-2.6,0.9
			c-0.8,0.6-1.3,1.4-1.5,2.3c-0.2,0.6-0.2,1.7-0.2,3.3v4.5H231V5.7z"/>
		<path d="M254.8,13.9l1.3,0.7c-0.4,0.9-0.9,1.5-1.5,2.1c-0.6,0.5-1.2,0.9-1.9,1.2c-0.7,0.3-1.5,0.4-2.4,0.4c-2,0-3.6-0.7-4.7-2
			c-1.1-1.3-1.7-2.8-1.7-4.4c0-1.6,0.5-2.9,1.4-4.1c1.2-1.5,2.8-2.3,4.8-2.3c2.1,0,3.7,0.8,5,2.4c0.9,1.1,1.3,2.5,1.3,4.2h-11
			c0,1.4,0.5,2.6,1.4,3.5c0.9,0.9,2,1.4,3.2,1.4c0.6,0,1.2-0.1,1.8-0.3c0.6-0.2,1.1-0.5,1.5-0.9C253.9,15.2,254.3,14.7,254.8,13.9z
			 M254.8,10.6c-0.2-0.8-0.5-1.5-0.9-2c-0.4-0.5-0.9-0.9-1.6-1.2c-0.7-0.3-1.4-0.5-2.1-0.5c-1.2,0-2.2,0.4-3.1,1.2
			c-0.6,0.6-1.1,1.4-1.4,2.5H254.8z"/>
		<path d="M276.3,11.8l1.1,1.2c-0.7,0.6-1.4,1.2-2,1.6c0.4,0.4,1,1,1.8,1.7c0.6,0.6,1.1,1.1,1.5,1.6h-2.3l-2.2-2.3
			c-1.4,1.1-2.5,1.8-3.4,2.2c-0.9,0.3-1.8,0.5-2.7,0.5c-1.3,0-2.3-0.4-3.1-1.1c-0.8-0.7-1.2-1.6-1.2-2.7c0-0.8,0.3-1.7,0.8-2.5
			c0.5-0.8,1.6-1.9,3.2-3.1c-0.9-1.1-1.5-1.9-1.7-2.4c-0.3-0.5-0.4-1-0.4-1.5c0-0.8,0.3-1.5,1-2c0.7-0.6,1.6-0.9,2.7-0.9
			c0.7,0,1.3,0.1,1.9,0.4c0.6,0.3,1,0.6,1.3,1.1c0.3,0.5,0.4,1,0.4,1.5c0,0.6-0.2,1.1-0.6,1.8c-0.4,0.6-1.2,1.4-2.3,2.4l2.5,2.6
			l1.6,1.7C275.1,12.8,275.8,12.3,276.3,11.8z M268.9,10.1c-1.4,1.1-2.3,1.9-2.8,2.5c-0.4,0.6-0.7,1.2-0.7,1.7
			c0,0.6,0.3,1.2,0.8,1.7c0.5,0.5,1.2,0.7,2,0.7c0.6,0,1.2-0.1,1.7-0.4c0.9-0.4,1.9-1,3-1.9l-2.6-2.7
			C269.9,11.3,269.4,10.8,268.9,10.1z M269.1,8c0.8-0.6,1.4-1.2,1.8-1.8c0.3-0.4,0.4-0.8,0.4-1.1c0-0.4-0.2-0.7-0.6-1
			c-0.4-0.3-0.9-0.4-1.5-0.4c-0.6,0-1.1,0.1-1.4,0.4c-0.4,0.3-0.6,0.6-0.6,1c0,0.3,0.1,0.6,0.2,0.8C267.9,6.5,268.4,7.2,269.1,8z"/>
		<path d="M283.2,1.4h1.7v16.5h-1.7V1.4z"/>
		<path d="M288,14.5V1h1.7v13.2c0,0.6,0.1,1.2,0.4,1.5c0.3,0.4,0.7,0.6,1.2,0.6v1.9C289.1,18.2,288,16.9,288,14.5z"/>
		<path d="M302.6,13.9l1.3,0.7c-0.4,0.9-0.9,1.5-1.5,2.1c-0.6,0.5-1.2,0.9-1.9,1.2c-0.7,0.3-1.5,0.4-2.4,0.4c-2,0-3.6-0.7-4.7-2
			c-1.1-1.3-1.7-2.8-1.7-4.4c0-1.6,0.5-2.9,1.4-4.1c1.2-1.5,2.8-2.3,4.8-2.3c2.1,0,3.7,0.8,5,2.4c0.9,1.1,1.3,2.5,1.3,4.2h-11
			c0,1.4,0.5,2.6,1.4,3.5c0.9,0.9,2,1.4,3.2,1.4c0.6,0,1.2-0.1,1.8-0.3c0.6-0.2,1.1-0.5,1.5-0.9C301.7,15.2,302.1,14.7,302.6,13.9z
			 M302.6,10.6c-0.2-0.8-0.5-1.5-0.9-2c-0.4-0.5-0.9-0.9-1.6-1.2c-0.7-0.3-1.4-0.5-2.1-0.5c-1.2,0-2.2,0.4-3.1,1.2
			c-0.6,0.6-1.1,1.4-1.4,2.5H302.6z"/>
		<path d="M313.4,7l-1,1c-0.8-0.8-1.7-1.2-2.5-1.2c-0.5,0-0.9,0.2-1.3,0.5c-0.4,0.3-0.5,0.7-0.5,1.2c0,0.4,0.2,0.8,0.5,1.1
			c0.3,0.4,0.9,0.8,1.9,1.3c1.2,0.6,2,1.2,2.4,1.8c0.4,0.6,0.6,1.2,0.6,1.9c0,1-0.4,1.9-1.1,2.5c-0.7,0.7-1.6,1-2.6,1
			c-0.7,0-1.4-0.2-2-0.5c-0.6-0.3-1.2-0.7-1.6-1.3l1-1.1c0.8,0.9,1.7,1.4,2.6,1.4c0.6,0,1.2-0.2,1.6-0.6c0.4-0.4,0.7-0.9,0.7-1.4
			c0-0.4-0.1-0.8-0.4-1.2c-0.3-0.3-1-0.8-2-1.3c-1.1-0.6-1.9-1.1-2.3-1.7c-0.4-0.6-0.6-1.2-0.6-1.9c0-0.9,0.3-1.7,0.9-2.3
			c0.6-0.6,1.4-0.9,2.4-0.9C311.1,5.4,312.3,5.9,313.4,7z"/>
	</g>
	<g>
		<path class="st1" d="M141.7,34.4l1.3-9.3h0.2l3.8,7.7l3.8-7.7h0.1l1.3,9.3h-0.9l-0.9-6.7l-3.3,6.7h-0.2l-3.3-6.7l-0.9,6.7H141.7z"
			/>
		<path class="st1" d="M157.2,27.3c1.1,0,1.9,0.4,2.6,1.2c0.6,0.7,1,1.5,1,2.5c0,1-0.3,1.8-1,2.5c-0.7,0.7-1.5,1.1-2.6,1.1
			c-1.1,0-1.9-0.4-2.6-1.1c-0.7-0.7-1-1.6-1-2.5c0-1,0.3-1.8,1-2.5C155.2,27.7,156.1,27.3,157.2,27.3z M157.2,28.2
			c-0.7,0-1.4,0.3-1.9,0.8c-0.5,0.5-0.8,1.2-0.8,2c0,0.5,0.1,1,0.4,1.4c0.2,0.4,0.6,0.8,1,1c0.4,0.2,0.9,0.4,1.4,0.4
			c0.5,0,0.9-0.1,1.4-0.4c0.4-0.2,0.7-0.6,1-1c0.2-0.4,0.4-0.9,0.4-1.4c0-0.8-0.3-1.4-0.8-2C158.6,28.5,157.9,28.2,157.2,28.2z"/>
		<path class="st1" d="M162.1,27.5h0.9v1c0.3-0.4,0.6-0.7,0.9-0.9c0.3-0.2,0.6-0.3,0.9-0.3c0.2,0,0.5,0.1,0.8,0.2l-0.5,0.8
			c-0.2-0.1-0.3-0.1-0.5-0.1c-0.3,0-0.6,0.1-0.9,0.4c-0.3,0.2-0.5,0.6-0.6,1.1c-0.1,0.4-0.2,1.2-0.2,2.4v2.3h-0.9V27.5z"/>
		<path class="st1" d="M167.1,24.9h0.9v2.6h1.4v0.8h-1.4v6.1h-0.9v-6.1h-1.2v-0.8h1.2V24.9z"/>
		<path class="st1" d="M176.6,27.5h0.9V33c0,1-0.1,1.7-0.3,2.1c-0.2,0.6-0.6,1.1-1.2,1.5c-0.6,0.3-1.3,0.5-2.1,0.5
			c-0.6,0-1.1-0.1-1.6-0.3c-0.5-0.2-0.9-0.4-1.2-0.7c-0.3-0.3-0.6-0.7-0.8-1.2h1c0.3,0.5,0.6,0.8,1,1c0.4,0.2,0.9,0.3,1.5,0.3
			c0.6,0,1.1-0.1,1.5-0.3c0.4-0.2,0.7-0.5,0.9-0.9c0.2-0.3,0.3-0.9,0.3-1.7v-0.4c-0.3,0.4-0.7,0.7-1.2,1c-0.5,0.2-1,0.3-1.5,0.3
			c-0.6,0-1.2-0.2-1.8-0.5c-0.6-0.3-1-0.7-1.3-1.3c-0.3-0.5-0.5-1.1-0.5-1.8c0-0.6,0.2-1.2,0.5-1.8c0.3-0.6,0.8-1,1.3-1.3
			c0.6-0.3,1.2-0.5,1.8-0.5c0.5,0,1,0.1,1.4,0.3c0.4,0.2,0.9,0.6,1.3,1.1V27.5z M174,28.2c-0.5,0-1,0.1-1.4,0.4
			c-0.4,0.2-0.8,0.6-1,1c-0.2,0.4-0.4,0.9-0.4,1.4c0,0.8,0.3,1.4,0.8,1.9c0.5,0.5,1.2,0.7,2,0.7c0.8,0,1.5-0.2,2-0.7
			c0.5-0.5,0.7-1.1,0.7-1.9c0-0.5-0.1-1-0.3-1.4c-0.2-0.4-0.6-0.7-1-1C174.9,28.3,174.5,28.2,174,28.2z"/>
		<path class="st1" d="M186.2,27.5v6.9h-0.9v-1.2c-0.4,0.5-0.8,0.8-1.3,1c-0.5,0.2-1,0.3-1.5,0.3c-1,0-1.8-0.4-2.5-1.1
			c-0.7-0.7-1-1.6-1-2.6c0-1,0.3-1.8,1-2.6c0.7-0.7,1.5-1.1,2.5-1.1c0.6,0,1.1,0.1,1.5,0.4c0.5,0.2,0.9,0.6,1.2,1.1v-1.3H186.2z
			 M182.7,28.2c-0.5,0-1,0.1-1.4,0.4c-0.4,0.2-0.8,0.6-1,1c-0.2,0.4-0.4,0.9-0.4,1.4c0,0.5,0.1,1,0.4,1.4c0.3,0.4,0.6,0.8,1,1
			c0.4,0.2,0.9,0.4,1.4,0.4c0.5,0,0.9-0.1,1.4-0.4c0.4-0.2,0.8-0.6,1-1c0.2-0.4,0.4-0.9,0.4-1.4c0-0.8-0.3-1.5-0.8-2
			S183.5,28.2,182.7,28.2z"/>
		<path class="st1" d="M194.1,27.5h0.9V33c0,1-0.1,1.7-0.3,2.1c-0.2,0.6-0.6,1.1-1.2,1.5c-0.6,0.3-1.3,0.5-2.1,0.5
			c-0.6,0-1.1-0.1-1.6-0.3c-0.5-0.2-0.9-0.4-1.2-0.7c-0.3-0.3-0.6-0.7-0.8-1.2h1c0.3,0.5,0.6,0.8,1,1c0.4,0.2,0.9,0.3,1.5,0.3
			c0.6,0,1.1-0.1,1.5-0.3c0.4-0.2,0.7-0.5,0.9-0.9c0.2-0.3,0.3-0.9,0.3-1.7v-0.4c-0.3,0.4-0.7,0.7-1.2,1c-0.5,0.2-1,0.3-1.5,0.3
			c-0.6,0-1.2-0.2-1.8-0.5c-0.6-0.3-1-0.7-1.3-1.3c-0.3-0.5-0.5-1.1-0.5-1.8c0-0.6,0.2-1.2,0.5-1.8c0.3-0.6,0.8-1,1.3-1.3
			c0.6-0.3,1.2-0.5,1.8-0.5c0.5,0,1,0.1,1.4,0.3c0.4,0.2,0.9,0.6,1.3,1.1V27.5z M191.5,28.2c-0.5,0-1,0.1-1.4,0.4
			c-0.4,0.2-0.8,0.6-1,1c-0.2,0.4-0.4,0.9-0.4,1.4c0,0.8,0.3,1.4,0.8,1.9c0.5,0.5,1.2,0.7,2,0.7c0.8,0,1.5-0.2,2-0.7
			c0.5-0.5,0.7-1.1,0.7-1.9c0-0.5-0.1-1-0.3-1.4c-0.2-0.4-0.6-0.7-1-1C192.5,28.3,192,28.2,191.5,28.2z"/>
		<path class="st1" d="M202.7,32.1l0.7,0.4c-0.2,0.5-0.5,0.9-0.9,1.2c-0.3,0.3-0.7,0.5-1.1,0.7c-0.4,0.2-0.9,0.2-1.4,0.2
			c-1.1,0-2-0.4-2.6-1.1c-0.6-0.7-1-1.6-1-2.5c0-0.9,0.3-1.7,0.8-2.3c0.7-0.9,1.6-1.3,2.7-1.3c1.2,0,2.1,0.4,2.8,1.3
			c0.5,0.6,0.8,1.4,0.8,2.4h-6.2c0,0.8,0.3,1.5,0.8,2c0.5,0.5,1.1,0.8,1.8,0.8c0.4,0,0.7-0.1,1-0.2c0.3-0.1,0.6-0.3,0.8-0.5
			C202.2,32.9,202.4,32.6,202.7,32.1z M202.7,30.2c-0.1-0.5-0.3-0.9-0.5-1.1c-0.2-0.3-0.5-0.5-0.9-0.7c-0.4-0.2-0.8-0.3-1.2-0.3
			c-0.7,0-1.3,0.2-1.7,0.7c-0.4,0.3-0.6,0.8-0.8,1.4H202.7z"/>
		<path class="st1" d="M212.8,25.1l4.4,9.3h-1l-1.5-3.1h-4l-1.5,3.1h-1l4.4-9.3H212.8z M212.7,27l-1.6,3.4h3.2L212.7,27z"/>
		<path class="st1" d="M225.3,24.8v9.6h-0.9v-1.2c-0.4,0.5-0.8,0.8-1.3,1c-0.5,0.2-1,0.3-1.5,0.3c-1,0-1.8-0.4-2.5-1.1
			c-0.7-0.7-1-1.6-1-2.6c0-1,0.3-1.8,1-2.6c0.7-0.7,1.5-1.1,2.5-1.1c0.6,0,1.1,0.1,1.5,0.4c0.5,0.2,0.9,0.6,1.2,1.1v-3.9H225.3z
			 M221.8,28.2c-0.5,0-1,0.1-1.4,0.4c-0.4,0.2-0.8,0.6-1,1c-0.2,0.4-0.4,0.9-0.4,1.4c0,0.5,0.1,1,0.4,1.4c0.3,0.4,0.6,0.8,1,1
			c0.4,0.2,0.9,0.4,1.4,0.4c0.5,0,0.9-0.1,1.4-0.4c0.4-0.2,0.8-0.6,1-1c0.2-0.4,0.4-0.9,0.4-1.4c0-0.8-0.3-1.5-0.8-2
			C223.2,28.4,222.6,28.2,221.8,28.2z"/>
		<path class="st1" d="M226.7,27.5h0.9l2.3,5l2.3-5h1l-3.2,6.9h-0.2L226.7,27.5z"/>
		<path class="st1" d="M234.8,24.6c0.2,0,0.4,0.1,0.5,0.2c0.1,0.1,0.2,0.3,0.2,0.5c0,0.2-0.1,0.4-0.2,0.5c-0.1,0.1-0.3,0.2-0.5,0.2
			c-0.2,0-0.4-0.1-0.5-0.2c-0.1-0.1-0.2-0.3-0.2-0.5c0-0.2,0.1-0.4,0.2-0.5C234.4,24.7,234.6,24.6,234.8,24.6z M234.3,27.5h0.9v6.9
			h-0.9V27.5z"/>
		<path class="st1" d="M240.5,28.2l-0.6,0.6c-0.5-0.5-0.9-0.7-1.4-0.7c-0.3,0-0.5,0.1-0.7,0.3c-0.2,0.2-0.3,0.4-0.3,0.7
			c0,0.2,0.1,0.4,0.3,0.6c0.2,0.2,0.5,0.5,1.1,0.7c0.7,0.3,1.1,0.7,1.3,1c0.2,0.3,0.3,0.7,0.3,1.1c0,0.6-0.2,1-0.6,1.4
			c-0.4,0.4-0.9,0.6-1.5,0.6c-0.4,0-0.8-0.1-1.1-0.3c-0.4-0.2-0.7-0.4-0.9-0.7l0.6-0.6c0.5,0.5,0.9,0.8,1.4,0.8
			c0.4,0,0.7-0.1,0.9-0.3s0.4-0.5,0.4-0.8c0-0.3-0.1-0.5-0.2-0.7c-0.2-0.2-0.5-0.4-1.1-0.7c-0.6-0.3-1-0.6-1.3-1
			c-0.2-0.3-0.3-0.7-0.3-1.1c0-0.5,0.2-1,0.5-1.3c0.4-0.3,0.8-0.5,1.4-0.5C239.2,27.3,239.9,27.6,240.5,28.2z"/>
		<path class="st1" d="M247.9,32.1l0.7,0.4c-0.2,0.5-0.5,0.9-0.9,1.2c-0.3,0.3-0.7,0.5-1.1,0.7c-0.4,0.2-0.9,0.2-1.4,0.2
			c-1.1,0-2-0.4-2.6-1.1c-0.6-0.7-1-1.6-1-2.5c0-0.9,0.3-1.7,0.8-2.3c0.7-0.9,1.6-1.3,2.7-1.3c1.2,0,2.1,0.4,2.8,1.3
			c0.5,0.6,0.8,1.4,0.8,2.4h-6.2c0,0.8,0.3,1.5,0.8,2c0.5,0.5,1.1,0.8,1.8,0.8c0.4,0,0.7-0.1,1-0.2c0.3-0.1,0.6-0.3,0.8-0.5
			C247.3,32.9,247.6,32.6,247.9,32.1z M247.9,30.2c-0.1-0.5-0.3-0.9-0.5-1.1c-0.2-0.3-0.5-0.5-0.9-0.7c-0.4-0.2-0.8-0.3-1.2-0.3
			c-0.7,0-1.3,0.2-1.7,0.7c-0.4,0.3-0.6,0.8-0.8,1.4H247.9z"/>
		<path class="st1" d="M250.1,27.5h0.9v1c0.3-0.4,0.6-0.7,0.9-0.9c0.3-0.2,0.6-0.3,0.9-0.3c0.2,0,0.5,0.1,0.8,0.2l-0.5,0.8
			c-0.2-0.1-0.3-0.1-0.5-0.1c-0.3,0-0.6,0.1-0.9,0.4c-0.3,0.2-0.5,0.6-0.6,1.1c-0.1,0.4-0.2,1.2-0.2,2.4v2.3h-0.9V27.5z"/>
		<path class="st1" d="M257.8,28.2l-0.6,0.6c-0.5-0.5-0.9-0.7-1.4-0.7c-0.3,0-0.5,0.1-0.7,0.3c-0.2,0.2-0.3,0.4-0.3,0.7
			c0,0.2,0.1,0.4,0.3,0.6c0.2,0.2,0.5,0.5,1.1,0.7c0.7,0.3,1.1,0.7,1.3,1c0.2,0.3,0.3,0.7,0.3,1.1c0,0.6-0.2,1-0.6,1.4
			c-0.4,0.4-0.9,0.6-1.5,0.6c-0.4,0-0.8-0.1-1.1-0.3c-0.4-0.2-0.7-0.4-0.9-0.7l0.6-0.6c0.5,0.5,0.9,0.8,1.4,0.8
			c0.4,0,0.7-0.1,0.9-0.3s0.4-0.5,0.4-0.8c0-0.3-0.1-0.5-0.2-0.7c-0.2-0.2-0.5-0.4-1.1-0.7c-0.6-0.3-1-0.6-1.3-1
			c-0.2-0.3-0.3-0.7-0.3-1.1c0-0.5,0.2-1,0.5-1.3c0.4-0.3,0.8-0.5,1.4-0.5C256.5,27.3,257.2,27.6,257.8,28.2z"/>
	</g>
</g>
<g>
	<rect x="119.8" class="st2" width="15.6" height="34"/>
	<polygon class="st2" points="0,34 29.7,0 59.5,34 	"/>
	<polygon class="st2" points="59.5,34 89.2,0 119.1,34 	"/>
</g>
<rect x="-9.4" y="-8.3" class="st3" width="0.5" height="0"/>
</svg>
