<svg xmlns="http://www.w3.org/2000/svg" xmlns:xlink="http://www.w3.org/1999/xlink" xml:space="preserve" id="Layer_1" x="0" y="0" version="1.1" viewBox="0 0 527.3 468.5">
  <style>
    .st1{clip-path:url(#XMLID_106_);fill:#534a40}
  </style>
  <defs>
    <path id="XMLID_1_" d="M-42.7-44.6H570v558.3H-42.7"/>
  </defs>
  <clipPath id="XMLID_105_">
    <use xlink:href="#XMLID_1_" overflow="visible"/>
  </clipPath>
  <g clip-path="url(#XMLID_105_)">
    <defs>
      <path id="XMLID_2_" d="M0 .5v468.1h527.3V.5"/>
    </defs>
    <clipPath id="XMLID_106_">
      <use xlink:href="#XMLID_2_" overflow="visible"/>
    </clipPath>
    <path id="XMLID_47_" d="M43.7 436.2c-1.6 11.9-9.2 18.9-20.1 18.9-5.4 0-10.1-1.6-13.9-4.8C3.3 445 0 437.6 0 428.1c0-7.2 2.1-13.4 6.1-18.6 4.5-5.6 10-8.3 17.1-8.3 4.9 0 9.1 1.6 12.8 4.7l2.7-4.4h2.7l.9 20.7-2.8.1c-2.1-11.9-7.7-18-15.4-18-10 0-14.9 7.9-14.9 23.7 0 15.9 4.7 23.5 15.3 23.5 8.1 0 13.7-5.4 15.8-15.9" class="st1"/>
    <path id="XMLID_46_" d="m48.2 450.8 3.4-.1c2-.1 2.4-.6 2.4-2.6v-40.5c0-2.3-.9-2.8-3.9-2.8-.6 0-1.3.1-2.1.1V402l12.4-.9V448c0 2.1.4 2.6 2.4 2.6l3.1.1v3H48.2" class="st1"/>
    <path d="M79.7 454.9c-6 0-9.8-3.4-9.8-8.7 0-7.1 7.1-10.8 22.1-13.2v-3.4c0-4.7-1.5-6.8-7.6-6.8-4.1 0-6.4 1.3-6.4 2.6 0 .8 1.7 1.6 1.7 4 0 2.2-1.4 3.6-3.7 3.6-2.6 0-4.2-1.5-4.2-4.1 0-5 5.3-9.1 13.7-9.1 9.5 0 13 3.3 13 10.5v16.5c0 2.1.9 3.3 2.6 3.3 1.3 0 2.3-1 3.1-1 .4 0 .9.5.9 1.1 0 1.6-2.8 4.3-6.7 4.3-3.2 0-5.3-1.9-6-5.3-2.6 3.5-7.5 5.7-12.7 5.7m-2.8-9.6c0 3.8 1.8 5.8 5.6 5.8 5.5 0 9.5-3.5 9.5-10.2v-4.7c-10.1 1.2-15.1 3.9-15.1 9.1z" class="st1"/>
    <path id="XMLID_43_" d="M110.6 440.8c1.8 7.3 6 11.2 11.7 11.2 4.6 0 7.5-2.4 7.5-5.9 0-3.8-2.8-4.6-7.5-5.5-8.6-1.8-13.8-3.3-13.8-11.2 0-5.9 4-9.6 9.9-9.6 3.4 0 6 .6 9 2.8l2.1-2.5h2.2v11.8h-2.2c-2-6.2-5.5-9.3-10.6-9.3-4 0-6.5 2.2-6.5 4.9 0 4.2 3.1 4.7 8.9 5.8 8.4 1.6 12.7 3.6 12.7 10.7 0 6.8-4.5 11.1-11.9 11.1-3.3 0-6.3-1.1-9.3-3.5l-2.3 3.3H108v-14.1" class="st1"/>
    <path id="XMLID_42_" d="M141.9 440.8c1.8 7.3 6 11.2 11.7 11.2 4.6 0 7.5-2.4 7.5-5.9 0-3.8-2.8-4.6-7.5-5.5-8.6-1.8-13.8-3.3-13.8-11.2 0-5.9 4-9.6 9.9-9.6 3.4 0 6 .6 9 2.8l2.1-2.5h2.2v11.8h-2.2c-2-6.2-5.5-9.3-10.6-9.3-4 0-6.5 2.2-6.5 4.9 0 4.2 3.1 4.7 8.9 5.8 8.4 1.6 12.7 3.6 12.7 10.7 0 6.8-4.5 11.1-11.9 11.1-3.3 0-6.3-1.1-9.3-3.5l-2.3 3.3h-2.3v-14.1" class="st1"/>
    <path d="m169.4 450.8 3.4-.1c2-.1 2.4-.6 2.4-2.6v-21.6c0-2.3-.9-2.8-3.9-2.8-.6 0-1.3.1-2.1.1V421l12.4-.9v28c0 2.1.4 2.6 2.4 2.6l3.1.1v3h-17.9m13.3-47.2c0 2.3-1.9 4.2-4.3 4.2-2.3 0-4.2-2-4.2-4.2 0-2.3 1.9-4.2 4.2-4.2 2.3 0 4.3 1.8 4.3 4.2z" class="st1"/>
    <path id="XMLID_39_" d="M206.5 454.9c-9 0-15.4-6.7-15.4-17 0-11 6.8-18.2 16.5-18.2 7 0 11.5 3.8 11.5 8.2 0 3.2-2 5.1-4.8 5.1-2.4 0-4.2-1.6-4.2-3.9 0-2.7 2.2-3.2 2.2-4.2 0-1.3-1.8-2.3-5-2.3-5.9 0-8.9 4.8-8.9 14.2 0 9.2 3.2 13.8 9.8 13.8 4.3 0 7.2-2.4 9.1-7.3l2.6 1.3c-2.7 7.1-6.9 10.3-13.4 10.3" class="st1"/>
    <path d="M232.8 454.9c-6 0-9.8-3.4-9.8-8.7 0-7.1 7.1-10.8 22.1-13.2v-3.4c0-4.7-1.5-6.8-7.6-6.8-4.1 0-6.4 1.3-6.4 2.6 0 .8 1.7 1.6 1.7 4 0 2.2-1.4 3.6-3.7 3.6-2.6 0-4.2-1.5-4.2-4.1 0-5 5.3-9.1 13.7-9.1 9.5 0 13 3.3 13 10.5v16.5c0 2.1.9 3.3 2.6 3.3 1.3 0 2.3-1 3.1-1 .4 0 .9.5.9 1.1 0 1.6-2.8 4.3-6.7 4.3-3.2 0-5.3-1.9-6-5.3-2.7 3.5-7.6 5.7-12.7 5.7m-2.8-9.6c0 3.8 1.8 5.8 5.6 5.8 5.6 0 9.5-3.5 9.5-10.2v-4.7c-10.2 1.2-15.1 3.9-15.1 9.1z" class="st1"/>
    <path id="XMLID_36_" d="m259.8 450.8 3.4-.1c2-.1 2.4-.6 2.4-2.6v-40.5c0-2.3-.9-2.8-3.9-2.8-.6 0-1.3.1-2.1.1V402l12.4-.9V448c0 2.1.4 2.6 2.4 2.6l3.1.1v3h-17.9" class="st1"/>
    <path d="M301.1 450.5h3.7c2.8 0 3.8-.6 3.8-3.4v-37.8c0-2.8-.9-3.4-3.8-3.4h-3.7v-3.3H328c10.1 0 15.4 4.4 15.4 12.5 0 6.1-4 10.2-12 11.9 9.8 1.3 14.6 5.6 14.6 13.2 0 8.6-6.7 13.8-18.8 13.8h-26m15-28.4h5.7c9.2 0 13.2-2.1 13.2-10 0-7.2-3.2-10-10.9-10h-4.5c-2.9 0-3.6.7-3.6 3.1v16.9zm0 21.5c0 2.6.7 3.3 3.9 3.3h5c8.5 0 12.2-3 12.2-10.7 0-8.1-4.5-11-14.7-11h-6.4v18.4zM357.9 439.3c0 7.5 3.8 11.9 9.5 11.9 4.9 0 8.7-2.6 11.3-7.7l2.5 1.4c-3.1 6.7-8.2 10-15 10-9 0-15.4-6.9-15.4-17.6 0-10.6 6.4-17.6 15.4-17.6 9.2 0 15 6.3 15 16.9v1.3H358c0 .5-.1.9-.1 1.4m13.4-4.5c1.8 0 2.5-.4 2.5-2.3 0-6.5-2.7-10-7.5-10-5.4 0-8 4.1-8.2 12.2h13.2zM395.3 454.9c-6 0-9.8-3.4-9.8-8.7 0-7.1 7.1-10.8 22.1-13.2v-3.4c0-4.7-1.5-6.8-7.6-6.8-4.1 0-6.4 1.3-6.4 2.6 0 .8 1.7 1.6 1.7 4 0 2.2-1.4 3.6-3.7 3.6-2.6 0-4.2-1.5-4.2-4.1 0-5 5.3-9.1 13.7-9.1 9.5 0 13 3.3 13 10.5v16.5c0 2.1.9 3.3 2.6 3.3 1.3 0 2.3-1 3.1-1 .4 0 .9.5.9 1.1 0 1.6-2.8 4.3-6.7 4.3-3.2 0-5.3-1.9-6-5.3-2.7 3.5-7.6 5.7-12.7 5.7m-2.9-9.6c0 3.8 1.8 5.8 5.6 5.8 5.5 0 9.5-3.5 9.5-10.2v-4.7c-10.1 1.2-15.1 3.9-15.1 9.1z" class="st1"/>
    <path id="XMLID_28_" d="M449.2 454.7v-6.5c-3.2 4.7-6.8 6.9-11.7 6.9-6.8 0-10.7-4.1-10.7-11.4v-17.2c0-2.3-.9-2.8-3.9-2.8-.6 0-1.4.1-2.1.1V421l12.5-.9V444c0 4.3 2.3 6.7 6.5 6.7 5.8 0 9.1-3.8 9.1-11.3v-12.9c0-2.3-.9-2.8-4-2.8-.6 0-1.4.1-2.1.1V421l12.6-.9v28.2c0 2.4.9 2.8 3.9 2.8.6 0 1.4-.1 2.1-.1v2.8" class="st1"/>
    <path id="XMLID_27_" d="M464.3 424v-2.8c5.8-.4 9.2-5.5 9.5-14.7h3v14.4H487v3.1h-10.6v20.6c0 4.1.8 6 4.2 6 3.9 0 5.7-3.1 5.9-9.7h2.6v.9c0 8.6-3.9 13.2-11.1 13.2-6.4 0-8.1-3.1-8.1-9.8V424" class="st1"/>
    <path id="XMLID_26_" d="M496.3 426.9c-.5-1.1-1.1-1.9-1.6-2.3-.9-.6-2.1-.8-3.8-.8v-3h16.6v3h-1.8c-2.1 0-2.8.2-2.8 1.5 0 .4.3 1.1.7 2.2l7.5 17.4 7.1-17.1c.1-.4.4-.9.4-1.6 0-2-1.4-2.3-5-2.4v-3h13.7v3c-2.6 0-4.2 1.2-5.3 3.8l-12 28c-3.7 8.6-7.6 12.9-13.8 12.9-4.2 0-6.5-2.1-6.5-5.5 0-2.4 1.8-4.2 4.3-4.2 2.3 0 3.7 1.4 3.7 3.5 0 1.2-.6 1.8-.6 2.1 0 .5.4.8 1.3.8 2.3 0 5.8-3.8 8.9-11.2l.5-1.1" class="st1"/>
    <path id="XMLID_25_" d="M354.7 146.1c-6.5 49.8-38.2 78.9-83.6 78.9-22.5 0-42.1-6.8-57.8-19.9-27-22.2-40.6-53.4-40.6-92.8 0-29.9 8.6-56 25.5-77.4C216.9 11.5 240 .5 269.4.5c20.5 0 37.9 6.5 53.4 19.6l11.3-18.4h11.3L349 88l-11.6.6c-8.9-49.5-32-75-64.3-75-41.5 0-62 32.9-62 98.7 0 66.1 19.6 98.1 63.7 98.1 33.8 0 56.9-22.5 65.8-66.1" class="st1"/>
    <linearGradient id="SVGID_1_" x1="122.431" x2="125.167" y1="532.174" y2="532.174" gradientTransform="matrix(0 -133.844 -133.844 0 71491.953 16756.621)" gradientUnits="userSpaceOnUse">
      <stop offset="0" stop-color="#534a40"/>
      <stop offset="1" stop-color="#fdb913"/>
    </linearGradient>
    <path fill="url(#SVGID_1_)" fill-rule="evenodd" d="M194.3 311.1c-32.1-34.7-55.5-79.4-72.2-128.7-8.6-25.5-16.4-53.7-17.7-83.4-1.9-43.4 4.6-81.7 35.5-95.2C98.7 1.9 90.6 33 87.3 68.9c-28 .8-31.6 33.8-27.6 60.4-25 .7-21.5 36.4-13.1 53.2-22 4.6-10.5 36.4-1.3 46.6-19 8.2-1.5 31.1 6.6 39.4-14.5 10.9 5.9 26.1 13.1 32.8-9.4 12.7 9.4 20.7 17 26.9-5.6 11.6 10.8 16.2 19 20.4-.6 1.6-.9 3.5-.7 5.9 13.6 11.5 36.5 14.1 59.1 15.1 28.2 1.2 56.1-1.4 74.2-8.5 4.6-1.8 8.4-4.5 13.1-6.6 3.3-1.4 8.3-1 9.2-4.6-25-6.2-45.2-21-61.6-38.8M46.6 184.4c3.8 3.9 5.4 9.3 7.9 13.8 17 31.4 41.3 58.9 67 82.7 29.5 27.4 63 52.3 103.1 67-56.6-16.7-109.2-53.2-147.1-94.5-12.6-13.7-26.6-29.5-32.2-47.9-1.7-5.4-2.8-14.7 1.3-21.1zm-1.4 46c5.9 6 11.7 14.5 17.7 21C80.8 270.7 101 287 124 302.6c29.3 20 61.2 39.5 101.8 47.9-20-1-38.5-8.4-56.5-15.8-34.5-14.1-64.8-31.2-92.6-54.5-5.6-4.7-13.2-11-19-17.7-7.6-8.8-14.7-18.4-12.5-32.1zm33.5 87.9c-5.8-4.1-11.8-7.9-12.5-15.1-.2-1.2.6-1.3.7-.7 44.3 27.3 92.8 49.4 160.2 53.8 1.2.1 1.3.4.7.7-5.2 1.9-18.7 0-26.3-.7-25.2-2.3-44.7-6.5-67-13.1-18.1-5.3-40.1-13.9-55.8-24.9zm4 9.9c39.9 18.3 84.7 31.7 143.8 30.9-38.8 5.5-83.4-1.3-115.6-12.5-11.1-3.9-24.9-8.2-28.2-18.4zm146.4 33.5c-29.9 6.6-72.7 7.2-103.1 0-9.7-2.3-20.4-5.1-24.3-13.1 31.1 12.1 81.6 18 124.1 12.5.3-.1 7.2-1.6 3.3.6zm-2-2.6c-.1-1.4 2.3-.3 3.3-.7.1 1.4-2.3.3-3.3.7zm1.3-4.6c-18.2.4-38.4-4.7-52.5-8.5-34.4-9.5-64.3-22.3-91.3-40.1-4.9-3.2-12.1-7.5-19-13.8-5.7-5.1-14.2-13-13.1-22.3 36.1 30.8 74.7 55 125.4 72.9 9.2 3.2 25.5 7.6 39.4 9.8 3.1.5 22.8 1.7 11.1 2zm1.3-3.3c.1 1.4-2.3.3-3.3.7-.1-1.5 2.4-.4 3.3-.7zm-7.2-7.9c-18.9-6.5-39.1-19.2-56.5-32.2-32.4-24.1-62.7-56.4-86-91.3-9.9-14.9-24.7-39.5-26.9-61.1-.9-9.1.2-17.4 3.3-23 .9-1.7 2.1-5.2 4.6-4.6 10.9 50.3 36 90.8 63 126.1 26.8 35 59.7 67.1 101.8 86.7-1.5 1.3-2.4-.3-3.3-.6zM91.2 183.1c-8.7-20.2-16.3-43.3-17.7-66.3-1.2-19.5 2.7-36.3 13.8-44 2 75.9 27.9 135.7 58.4 184.5 17.1 27.3 37.4 53.5 63 72.9-46-30.5-92.1-88-117.5-147.1zm390 45.3c5.2-7.6 16.4-24.9 10.5-37.4-2.2-4.6-7.1-6-11.8-9.2 9.5-18.2 10.7-51.7-13.8-53.2 6.2-28.3-.8-58.1-26.9-60.4C436.1 33 426.6.7 386.7 4.5c27.2 11.4 36.1 42.4 36.1 79.4 0 31.3-6.8 62.1-15.1 89.3-16.3 53.2-41.2 99.2-73.5 135.3-16.8 18.8-36.7 34.9-63.7 41.4 1 3.9 6.2 3 9.8 4.6 2.1.9 3.5 3 5.3 3.9 18.6 10.5 52.7 12.5 82.1 11.2 22.5-1 45.2-3.8 58.4-15.1.7-2.9-1.3-5.1 0-6.6 8.8-3.5 24.1-8.6 18.4-20.4 8.8-5.3 26.1-14.1 17.1-26.9 8.9-6.1 26.1-20.9 13.1-32.8 9.2-7.8 24.7-31 6.5-39.4zm-1.3-44c3.8 6 3.1 14.1 1.3 20.4-5.5 18.9-19.4 34.6-32.2 48.6-37.5 41-90.3 78.1-147.7 94.5 61.2-23.6 107.1-64.3 145.1-111.6 11.1-13.9 21.1-28.5 29.5-45.3 1.1-2.1 1.3-5.5 4-6.6zM324.3 324.9c44.8-38.6 79-96.8 100.5-163.5 9-27.9 14.5-54.2 14.4-88 1-2.1 4 2.3 5.2 3.9 6.6 8.7 9.5 22.1 8.5 38.7-1.4 24.7-9.8 47.5-19 68.3-26 58.7-67.9 112.9-115.6 146.4.6-1.8 3.8-3.9 6-5.8zm79.4-70.2c27-35.6 52.2-75.9 61.7-123.4 3.1.1 7.1 7.4 7.9 12.5 2.8 18.8-4.7 34.7-11.2 48.6-13.6 29.1-35.5 57.2-56.5 78.1-32.2 32.2-64.6 59-105.1 74.2 41.4-19.3 75.4-53.4 103.2-90zM300 351.2c.1 1.4-2.3.3-3.3.7-.1-1.5 2.3-.4 3.3-.7zm114.9 5.9c-20.6 9.1-54.1 11.3-84 9.2-11.7-.8-23.8-1.6-32.8-4.6-6-2 2.6-.7 2.6-.7 41.6 5.2 91.7.3 123.4-12.5.1 4.7-5.4 6.9-9.2 8.6zm-118.8 2c-.1-1.4 2.3-.3 3.3-.7 0 1.4-2.4.3-3.3.7zm120.1-12.5c-31.3 10.9-73.9 17.2-116.2 13.1 57.1-.9 104-12 142.5-31.5 1.1-.2 1.2.5 1.3 1.3-5.7 9.3-16.8 13.3-27.6 17.1zm15.1-18.4c-11.9 6-25.9 10.4-39.4 14.4-27.1 8.1-58.2 15.6-92.6 14.4-2.4.3-.9-1.2.7-.7h3.3c64.2-6.1 114.3-26.3 156.3-54.5.6 0 .5.8.7 1.3-4.2 13.1-17.6 19.4-29 25.1zm11.2-22.3c-27.1 17.6-57.5 30.5-93.2 40.1-14.6 3.9-31.6 8.4-49.9 8.5-.5 0-8.9-.1-3.3-.7h3.9c35.9-4.3 66.9-17.6 95.2-31.5 29.6-14.6 55.5-31.4 78.1-52.5.6-.1.6.3.7.7-2.3 17.1-18.4 26.8-31.5 35.4zm26.2-43.4c-6 7-13.5 13.1-19 17.7-13.8 11.6-28.8 21.7-43.3 30.2-32.3 18.9-66.4 34.4-105.7 40.7 38.1-8.9 71.4-27.7 101.1-47.9 29.4-20 57.1-42.8 77.5-70.9.4-.6.5-1.7 1.3-2 3.9 12.1-4 23.1-11.9 32.2z" clip-path="url(#XMLID_106_)" clip-rule="evenodd"/>
  </g>
</svg>
