<svg width="58" height="58" viewBox="0 0 58 58" fill="none" xmlns="http://www.w3.org/2000/svg">
<path d="M50.5288 13.9049C54.1187 13.9049 57.0288 10.9947 57.0288 7.40488C57.0288 3.81503 54.1187 0.904877 50.5288 0.904877C46.939 0.904877 44.0288 3.81503 44.0288 7.40488C44.0288 10.9947 46.939 13.9049 50.5288 13.9049Z" fill="white"/>
<path d="M7 57.9337C10.866 57.9337 14 54.7997 14 50.9337C14 47.0678 10.866 43.9337 7 43.9337C3.13401 43.9337 0 47.0678 0 50.9337C0 54.7997 3.13401 57.9337 7 57.9337Z" fill="white"/>
<path d="M34.5093 23.4456L40.0714 37.4492C40.2932 37.1027 40.416 36.7021 40.4264 36.2909L40.5084 32.423L40.7128 19.3409L40.746 17.2089L38.6176 17.2429L21.5 17.5116C21.1323 17.5467 20.779 17.6718 20.4711 17.8757L34.5093 23.4456Z" fill="white"/>
<path d="M14 43.9337L35.5 22.4337" stroke="white" stroke-width="3" stroke-linecap="round"/>
</svg>
