<?xml version="1.0" encoding="utf-8"?>
<!-- Generator: Adobe Illustrator 26.4.0, SVG Export Plug-In . SVG Version: 6.00 Build 0)  -->
<svg version="1.1" xmlns="http://www.w3.org/2000/svg" xmlns:xlink="http://www.w3.org/1999/xlink" x="0px" y="0px"
	 viewBox="0 0 180 180" style="enable-background:new 0 0 180 180;" xml:space="preserve">
<style type="text/css">
	.st0{fill:#E99700;}
	.st1{fill:#369AA1;}
	.st2{fill:#FFFFFF;}
	.st3{fill:#00495E;}
	.st4{fill:#3D3F44;}
</style>
<g id="Layer_1_copy">
	<g>
		<circle class="st2" cx="90" cy="90" r="89"/>
		<polygon class="st0" points="130.7,18.8 97.2,14 140.9,2.6 150.9,46.6 		"/>
		<g>
			<g>
				<path class="st1" d="M131.5,92.2c-5.3-4.8-12.9-8.1-22.6-9.7l-30.1-5.2c-1.9-0.4-3.7-0.9-5.2-1.5V96c0.6,0.1,1.2,0.2,1.8,0.3
					l30.5,5c4.3,0.7,7.6,2.1,9.9,4.1c2.1,1.9,3.1,4.1,3.1,6.9v9c0,3.5-1.5,6.3-4.5,8.5c-3.2,2.3-7.7,3.5-13.3,3.5H82.5
					c-3.4,0-6.4-0.7-8.9-2v20.4c2.7,0.5,5.6,0.7,8.6,0.7h19.3c11.4,0,20.6-2.8,27.6-8.2c7.1-5.6,10.7-13.1,10.7-22.4V111
					C139.8,103.5,137,97.2,131.5,92.2z"/>
				<path class="st1" d="M101.8,46.7c4.7,0,8.3,1.4,11.1,4.3c2.8,3,4.2,6.8,4.2,11.8v2.5h20.7v-2.5c0-6.9-1.5-13.1-4.5-18.4
					c-3-5.4-7.3-9.6-12.8-12.5c-5.4-2.9-11.7-4.4-18.7-4.4H82.9c-3.3,0-6.4,0.2-9.3,0.7v20c2.6-1.1,5.7-1.6,9.3-1.6H101.8z"/>
			</g>
			<path class="st0" d="M51.4,35.7c-2.8,2.2-5,4.7-6.7,7.4v38.2v30.4v23.6c1.4,2.4,3.2,4.7,5.2,6.7c0,0,0,0,0,0
				c3.7,3.7,8.2,6.5,13.3,8.2V29.7C58.8,31,54.8,33,51.4,35.7z"/>
		</g>
	</g>
</g>
<g id="Layer_2">
</g>
</svg>
