<?xml version="1.0" encoding="utf-8"?>
<!-- Generator: Adobe Illustrator 19.0.0, SVG Export Plug-In . SVG Version: 6.00 Build 0)  -->
<svg version="1.1" id="Layer_1" xmlns="http://www.w3.org/2000/svg" xmlns:xlink="http://www.w3.org/1999/xlink" x="0px" y="0px"
	 viewBox="0 0 412.4 26.7" style="enable-background:new 0 0 412.4 26.7;" xml:space="preserve">
<style type="text/css">
	.st0{fill:#404042;}
</style>
<g>
	<g>
		<path class="st0" d="M24.2,26.7l0-22l-9.7,19.2h-1.8L2.9,4.7v22H0V0h3.8l9.8,19.2L23.3,0H27v26.7H24.2z"/>
		<path class="st0" d="M39.3,26.7V0h3.1v26.7H39.3z"/>
		<path class="st0" d="M73.7,26.7l-16-21.4v21.4h-3.1V0h3.2l16,21.5V0h3v26.7H73.7z"/>
		<path class="st0" d="M99.9,0c7.8,0,13.7,5.8,13.7,13.3c0,7.6-6,13.3-13.8,13.3H89.1V0H99.9z M92.2,23.8h7.8
			c5.9,0,10.6-4.5,10.6-10.4c0-6-4.7-10.4-10.7-10.4h-7.7V23.8z"/>
		<path class="st0" d="M148.9,0c5.4,0,8.6,2.5,8.6,6.7c0,3.1-1.8,5.4-4.9,6c3.9,0.6,6.1,3.1,6.1,6.8c0,4.5-3.6,7.2-9.6,7.2h-11.4V0
			H148.9z M140.7,11.5h8c3.6,0,5.7-1.6,5.7-4.3c0-2.7-2.1-4.2-5.7-4.2h-8V11.5z M140.7,23.8h8c4.3,0,6.9-1.7,6.9-4.8
			c0-2.9-2.5-4.6-6.9-4.6h-8V23.8z"/>
		<path class="st0" d="M194.6,13.3c0,7.5-6.2,13.5-14,13.5c-7.8,0-14-6-14-13.5c0-7.5,6.2-13.4,14-13.4
			C188.4-0.1,194.6,5.8,194.6,13.3z M169.7,13.3c0,5.9,5,10.6,10.9,10.6c5.9,0,10.8-4.7,10.8-10.6c0-5.9-4.9-10.5-10.8-10.5
			C174.7,2.8,169.7,7.5,169.7,13.3z"/>
		<path class="st0" d="M215.2,0c7.8,0,13.7,5.8,13.7,13.3c0,7.6-6,13.3-13.8,13.3h-10.7V0H215.2z M207.4,23.8h7.8
			c5.9,0,10.6-4.5,10.6-10.4c0-6-4.7-10.4-10.7-10.4h-7.7V23.8z"/>
		<path class="st0" d="M248,26.7h-3v-9L234.6,0h3.2l8.7,13.9L255,0h3.1L248,17.5V26.7z"/>
		<path class="st0" d="M292,0c5.4,0,8.6,2.5,8.6,6.7c0,3.1-1.8,5.4-4.9,6c3.9,0.6,6.1,3.1,6.1,6.8c0,4.5-3.6,7.2-9.6,7.2h-11.4V0
			H292z M283.8,11.5h8c3.6,0,5.7-1.6,5.7-4.3c0-2.7-2.1-4.2-5.7-4.2h-8V11.5z M283.8,23.8h8c4.3,0,6.9-1.7,6.9-4.8
			c0-2.9-2.5-4.6-6.9-4.6h-8V23.8z"/>
		<path class="st0" d="M315.3,2.9v8.8h13.5v2.9h-13.5v9.2h15.6v2.9h-18.6V0h18.1v2.9H315.3z"/>
		<path class="st0" d="M341.3,26.7V0h3.1v26.7H341.3z"/>
		<path class="st0" d="M375.7,26.7l-16-21.4v21.4h-3.1V0h3.2l16,21.5V0h3v26.7H375.7z"/>
		<path class="st0" d="M412.4,13.7v9.7c-2.6,2.1-6.3,3.5-9.9,3.5c-7.7,0-13.9-6-13.9-13.5c0-7.5,6.2-13.4,14.1-13.4
			c3.7,0,7.3,1.4,9.8,3.7l-1.8,2.3c-2.2-1.9-5.1-3.1-8.1-3.1c-6.1,0-11,4.7-11,10.6c0,5.9,4.9,10.6,11,10.6c2.4,0,5-0.8,7-2.3v-8
			H412.4z"/>
	</g>
</g>
</svg>
