<?xml version="1.0" encoding="utf-8"?>
<!-- Generator: Adobe Illustrator 19.0.0, SVG Export Plug-In . SVG Version: 6.00 Build 0)  -->
<svg version="1.1" id="Layer_1" xmlns="http://www.w3.org/2000/svg" xmlns:xlink="http://www.w3.org/1999/xlink" x="0px" y="0px"
	 viewBox="0 0 41.8 56.1" style="enable-background:new 0 0 41.8 56.1;" xml:space="preserve">
<style type="text/css">
	.st0{clip-path:url(#XMLID_197_);fill:#FFFFFF;}
</style>
<g id="XMLID_184_">
	<defs>
		<rect id="XMLID_185_" x="0" width="41.8" height="56.1"/>
	</defs>
	<clipPath id="XMLID_197_">
		<use xlink:href="#XMLID_185_"  style="overflow:visible;"/>
	</clipPath>
	<path id="XMLID_193_" class="st0" d="M10.2,6C9.8,6,9.6,6.2,9.6,6.6v3.6c0,0.3,0.3,0.6,0.6,0.6h21.5c0.3,0,0.6-0.3,0.6-0.6V6.6
		C32.2,6.2,32,6,31.6,6h-5.7c-0.5,0-1-0.3-1.1-0.8c-0.6-1.7-2.2-2.8-3.9-2.8c-1.7,0-3.3,1.1-3.9,2.8C16.8,5.7,16.4,6,15.9,6H10.2z
		 M3,9.6c-0.3,0-0.6,0.3-0.6,0.6v43c0,0.3,0.3,0.6,0.6,0.6h35.8c0.3,0,0.6-0.3,0.6-0.6v-43c0-0.3-0.3-0.6-0.6-0.6h-3.6
		c-0.3,0-0.6,0.3-0.6,0.6v1.8c0,0.7-0.5,1.2-1.2,1.2H8.4c-0.7,0-1.2-0.5-1.2-1.2v-1.8c0-0.3-0.3-0.6-0.6-0.6H3z M3,56.1
		c-1.6,0-3-1.3-3-3v-43c0-1.6,1.3-3,3-3h3.6c0.3,0,0.6-0.3,0.6-0.6V4.8c0-0.7,0.5-1.2,1.2-1.2h6.4c0.2,0,0.4-0.1,0.5-0.3
		c1.2-2,3.3-3.3,5.7-3.3c2.3,0,4.5,1.3,5.7,3.3c0.1,0.2,0.3,0.3,0.5,0.3h6.4c0.7,0,1.2,0.5,1.2,1.2v1.8c0,0.3,0.3,0.6,0.6,0.6h3.6
		c1.6,0,3,1.3,3,3v43c0,1.7-1.3,3-3,3H3z"/>
	<path id="XMLID_192_" class="st0" d="M24.5,22.1c-0.7,0-1.2-0.5-1.2-1.2c0-0.7,0.5-1.2,1.2-1.2h8.9c0.7,0,1.2,0.5,1.2,1.2
		c0,0.7-0.5,1.2-1.2,1.2H24.5z"/>
	<path id="XMLID_191_" class="st0" d="M24.5,34.6c-0.7,0-1.2-0.5-1.2-1.2c0-0.7,0.5-1.2,1.2-1.2h8.9c0.7,0,1.2,0.5,1.2,1.2
		c0,0.7-0.5,1.2-1.2,1.2H24.5z"/>
	<path id="XMLID_190_" class="st0" d="M24.5,47.2c-0.7,0-1.2-0.5-1.2-1.2c0-0.7,0.5-1.2,1.2-1.2h8.9c0.7,0,1.2,0.5,1.2,1.2
		c0,0.7-0.5,1.2-1.2,1.2H24.5z"/>
	<path id="XMLID_189_" class="st0" d="M11.9,25.5c-0.1,0-0.3,0-0.4-0.1l0,0c0,0-0.1,0-0.1-0.1c0,0-0.1,0-0.1-0.1c0,0,0,0,0,0
		c0,0-0.1-0.1-0.1-0.1c0,0-0.1-0.1-0.1-0.1l-3.5-3.5c-0.5-0.5-0.5-1.2,0-1.7c0.2-0.2,0.5-0.4,0.8-0.4s0.6,0.1,0.9,0.4l2.1,2.1
		c0.1,0.1,0.3,0.2,0.4,0.2c0,0,0,0,0,0c0.2,0,0.3-0.1,0.4-0.2l4.1-5.5c0.2-0.3,0.6-0.5,1-0.5c0.3,0,0.5,0.1,0.7,0.2
		c0.3,0.2,0.4,0.5,0.5,0.8s0,0.6-0.2,0.9l-5.3,7.1c0,0-0.1,0.1-0.1,0.1c0,0-0.1,0.1-0.1,0.1c0,0-0.1,0-0.1,0c0,0-0.1,0-0.1,0.1
		c0,0-0.1,0.1-0.1,0.1c0,0,0,0,0,0C12.3,25.4,12.1,25.5,11.9,25.5L11.9,25.5z"/>
	<path id="XMLID_188_" class="st0" d="M20.9,7.8c-0.7,0-1.2-0.5-1.2-1.2c0-0.7,0.5-1.2,1.2-1.2c0.7,0,1.2,0.5,1.2,1.2
		C22.1,7.2,21.6,7.8,20.9,7.8"/>
	<path id="XMLID_187_" class="st0" d="M11.2,37.3c-0.1,0-0.3,0-0.4-0.1l0,0c0,0-0.1,0-0.1-0.1c0,0-0.1,0-0.1,0c0,0,0,0,0,0
		c0,0-0.1-0.1-0.1-0.1c0,0-0.1-0.1-0.1-0.1l-3.5-3.5c-0.5-0.5-0.5-1.2,0-1.7c0.2-0.2,0.5-0.4,0.8-0.4s0.6,0.1,0.8,0.4l2.1,2.1
		c0.1,0.1,0.3,0.2,0.4,0.2c0,0,0,0,0,0c0.2,0,0.3-0.1,0.4-0.2l4.1-5.5c0.2-0.3,0.6-0.5,1-0.5c0.3,0,0.5,0.1,0.7,0.2
		c0.3,0.2,0.4,0.5,0.5,0.8s0,0.6-0.2,0.9l-5.3,7.1c0,0-0.1,0.1-0.1,0.1c0,0-0.1,0.1-0.1,0.1c0,0-0.1,0-0.1,0c0,0-0.1,0-0.1,0.1
		c0,0-0.1,0.1-0.1,0.1c0,0,0,0,0,0C11.5,37.3,11.4,37.3,11.2,37.3L11.2,37.3z"/>
	<path id="XMLID_186_" class="st0" d="M11.2,49.6c-0.1,0-0.3,0-0.4-0.1l0,0c0,0-0.1,0-0.1-0.1c0,0-0.1,0-0.1-0.1c0,0,0,0,0,0
		c0,0-0.1-0.1-0.1-0.1c0,0-0.1-0.1-0.1-0.1l-3.5-3.5c-0.5-0.5-0.5-1.2,0-1.7c0.2-0.2,0.5-0.4,0.8-0.4s0.6,0.1,0.8,0.4l2.1,2.1
		c0.1,0.1,0.3,0.2,0.4,0.2c0,0,0,0,0,0c0.2,0,0.3-0.1,0.4-0.2l4.1-5.5c0.2-0.3,0.6-0.5,1-0.5c0.3,0,0.5,0.1,0.7,0.2
		c0.3,0.2,0.4,0.5,0.5,0.8c0,0.3,0,0.6-0.2,0.9L12.2,49c0,0-0.1,0.1-0.1,0.1c0,0-0.1,0.1-0.1,0.1c0,0-0.1,0-0.1,0c0,0-0.1,0-0.1,0.1
		c0,0-0.1,0.1-0.1,0.1c0,0,0,0,0,0C11.5,49.5,11.4,49.6,11.2,49.6L11.2,49.6z"/>
</g>
</svg>
