<?xml version="1.0" encoding="utf-8"?>
<!-- Generator: Adobe Illustrator 19.0.0, SVG Export Plug-In . SVG Version: 6.00 Build 0)  -->
<svg version="1.1" id="Layer_1" xmlns="http://www.w3.org/2000/svg" xmlns:xlink="http://www.w3.org/1999/xlink" x="0px" y="0px"
	 viewBox="0 0 24 24" style="enable-background:new 0 0 24 24;" xml:space="preserve">
<style type="text/css">
	.st0{fill:#F0A9B9;}
	.st1{fill:#FFE075;}
	.st2{fill:#F29A60;}
	.st3{fill:#C4CDD3;}
	.st4{fill:#C9B664;}
	.st5{fill:#B7CE97;}
	.st6{fill:#B5917A;}
	.st7{fill:#94C4E0;}
	.st8{fill:#75AC8D;}
</style>
<g id="XMLID_29_">
	<path id="XMLID_28_" class="st0" d="M12,1.5C8.8,4.6,7.5,7.5,7.1,10c3.9,2.7,3.7,7,3.4,9c-0.3-0.3-0.6-0.7-1-1.1
		c0.6,0.7,1.1,1.3,1.6,1.7c0.3-3.3,1-10.3,1-10.3L13,19.5c0.4-0.4,0.8-0.9,1.1-1.3c-0.2,0.2-0.5,0.5-0.6,0.7c-0.3-2-0.5-6.4,3.5-9
		C16.5,4.7,12,1.5,12,1.5"/>
	<path id="XMLID_27_" class="st1" d="M23.2,7.8c-2.7,0.3-4.8,1.1-6.2,2c0.2,2.4-0.4,5.3-2.9,8.4c2-2.1,5.2-5.3,5.2-5.3l-3.8,5.8
		c0.9-1,2.2-1.9,4.1-1.9c0.5,0,1,0.1,1.5,0.2C24.8,13.4,23.2,7.8,23.2,7.8"/>
	<path id="XMLID_26_" class="st2" d="M17,9.8c-4,2.7-3.8,7.1-3.5,9c0.2-0.2,0.4-0.4,0.6-0.7C16.6,15.1,17.3,12.3,17,9.8"/>
	<path id="XMLID_25_" class="st3" d="M21.1,17c-1.3,1.3-3.4,2.4-6.4,2.8l0.7-1.1c-0.5,0.6-0.9,1.2-1.1,1.7c1.8-0.3,5.5-1,5.5-1
		l-5.2,2c1.4,0.7,2.7,1,3.7,1c4.1,0,5.6-4.3,5.6-4.3C22.9,17.6,22,17.2,21.1,17"/>
	<path id="XMLID_24_" class="st4" d="M19.6,16.8c-1.9,0-3.3,0.9-4.1,1.9l-0.7,1.1c3-0.4,5.1-1.5,6.4-2.8
		C20.6,16.9,20.1,16.8,19.6,16.8"/>
	<path id="XMLID_23_" class="st5" d="M0.8,7.9c0,0-1.6,5.6,2.1,9.2c0.5-0.1,1.1-0.2,1.5-0.2c1.9,0,3.3,0.9,4.1,1.9L4.7,13
		c0,0,2.8,2.9,4.8,4.9c-1.4-1.8-2.8-4.5-2.4-7.9C5.6,9,3.6,8.2,0.8,7.9"/>
	<path id="XMLID_22_" class="st6" d="M7.1,10c-0.5,3.4,0.9,6.1,2.4,7.9c0.4,0.4,0.7,0.8,1,1.1C10.8,17,11,12.7,7.1,10"/>
	<path id="XMLID_21_" class="st7" d="M2.9,17.1C2,17.3,1.1,17.7,0,18.2c0,0,1.5,4.3,5.6,4.3c1.1,0,2.3-0.3,3.7-1l-5.2-2
		c0,0,3.8,0.7,5.5,1c-0.2-0.5-0.6-1.1-1.1-1.7l0.7,1.1C6.2,19.5,4.2,18.4,2.9,17.1"/>
	<path id="XMLID_1_" class="st8" d="M4.4,16.9c-0.5,0-1,0.1-1.5,0.2c1.3,1.3,3.4,2.4,6.4,2.8l-0.7-1.1C7.7,17.8,6.3,16.9,4.4,16.9"
		/>
</g>
</svg>
