<?xml version="1.0" encoding="utf-8"?>
<!-- Generator: Adobe Illustrator 19.0.0, SVG Export Plug-In . SVG Version: 6.00 Build 0)  -->
<svg version="1.1" id="Layer_1" xmlns="http://www.w3.org/2000/svg" xmlns:xlink="http://www.w3.org/1999/xlink" x="0px" y="0px"
	 viewBox="0 0 32 32" style="enable-background:new 0 0 32 32;" xml:space="preserve">
<style type="text/css">
	.st0{clip-path:url(#XMLID_11_);fill:#FFFFFF;}
</style>
<g id="XMLID_2_">
	<defs>
		<rect id="XMLID_3_" x="0.2" y="0.2" width="31.6" height="31.6"/>
	</defs>
	<clipPath id="XMLID_11_">
		<use xlink:href="#XMLID_3_"  style="overflow:visible;"/>
	</clipPath>
	<path id="XMLID_8_" class="st0" d="M22.2,30.6c1.9-0.8,3.6-1.9,5-3.4c1.4-1.4,2.5-3.1,3.4-5c0.8-1.9,1.2-4,1.2-6.2
		s-0.4-4.2-1.2-6.2c-0.8-1.9-1.9-3.6-3.4-5c-1.4-1.4-3.1-2.6-5-3.4s-4-1.2-6.2-1.2c-2.2,0-4.2,0.4-6.2,1.2c-1.9,0.8-3.6,2-5,3.4
		s-2.5,3.1-3.4,5c-0.8,1.9-1.2,4-1.2,6.2s0.4,4.2,1.2,6.2s1.9,3.6,3.4,5c1.4,1.4,3.1,2.5,5,3.4c1.9,0.8,4,1.2,6.2,1.2
		C18.2,31.8,20.2,31.4,22.2,30.6 M11.9,13.6h2.3v-1.4c0-1,0.3-1.9,1-2.7c0.7-0.7,1.5-1.1,2.5-1.1h2.3v2.9h-2.3
		c-0.2,0-0.3,0.1-0.4,0.3c-0.1,0.2-0.2,0.4-0.2,0.6v1.5h2.9v2.9h-2.9v7.1h-2.9v-7.1h-2.3V13.6z"/>
</g>
</svg>
