<?xml version="1.0" encoding="utf-8"?>
<!-- Generator: Adobe Illustrator 19.0.0, SVG Export Plug-In . SVG Version: 6.00 Build 0)  -->
<svg version="1.1" id="Layer_1" xmlns="http://www.w3.org/2000/svg" xmlns:xlink="http://www.w3.org/1999/xlink" x="0px" y="0px"
	 viewBox="0 0 32 32" style="enable-background:new 0 0 32 32;" xml:space="preserve">
<style type="text/css">
	.st0{clip-path:url(#XMLID_14_);fill:#FFFFFF;}
</style>
<g id="XMLID_2_">
	<defs>
		<rect id="XMLID_3_" x="0.2" y="0.2" width="31.6" height="31.6"/>
	</defs>
	<clipPath id="XMLID_14_">
		<use xlink:href="#XMLID_3_"  style="overflow:visible;"/>
	</clipPath>
	<path id="XMLID_8_" class="st0" d="M16,12.6L16,12.6c-1.9,0-3.5,1.5-3.5,3.4c0,1.8,1.5,3.3,3.5,3.3c1.9,0,3.5-1.5,3.5-3.3
		C19.5,14.1,18,12.6,16,12.6 M22.7,14.7L22.7,14.7h-1.5c0.2,0.5,0.2,0.9,0.2,1.5c0,2.9-2.4,5.2-5.4,5.2s-5.4-2.3-5.4-5.2
		c0-0.5,0-1,0.2-1.5H9.3V22c0,0.4,0.3,0.7,0.7,0.7h12c0.4,0,0.7-0.3,0.7-0.7V14.7z M19.9,9.3L19.9,9.3c-0.4,0-0.8,0.4-0.8,0.8v1.9
		c0,0.4,0.4,0.8,0.8,0.8h2c0.4,0,0.8-0.4,0.8-0.8v-1.9c0-0.4-0.4-0.8-0.8-0.8H19.9z M22.4,7.4c1.2,0,2.2,1,2.2,2.2v12.8
		c0,1.2-1,2.2-2.2,2.2H9.6c-1.2,0-2.2-1-2.2-2.2V9.6c0-1.2,1-2.2,2.2-2.2H22.4z M16,0.2C7.3,0.3,0.2,7.3,0.2,16
		c0,8.7,7.1,15.8,15.8,15.8S31.9,24.7,31.8,16C31.7,7.2,24.6,0.1,16,0.2"/>
</g>
</svg>
