<?xml version="1.0" encoding="utf-8"?>
<!-- Generator: Adobe Illustrator 19.0.0, SVG Export Plug-In . SVG Version: 6.00 Build 0)  -->
<svg version="1.1" id="Layer_1" xmlns="http://www.w3.org/2000/svg" xmlns:xlink="http://www.w3.org/1999/xlink" x="0px" y="0px"
	 viewBox="0 0 59.7 90" style="enable-background:new 0 0 59.7 90;" xml:space="preserve">
<style type="text/css">
	.st0{clip-path:url(#XMLID_31_);fill:#F2B2C3;}
	.st1{clip-path:url(#XMLID_32_);fill:#FFFFFF;}
	.st2{fill:#F0A9B9;}
	.st3{fill:#FFE075;}
	.st4{fill:#F29A60;}
	.st5{fill:#C4CDD3;}
	.st6{fill:#C9B664;}
	.st7{fill:#B7CE97;}
	.st8{fill:#B5917A;}
	.st9{fill:#94C4E0;}
	.st10{fill:#75AC8D;}
</style>
<g id="XMLID_2_">
	<defs>
		<rect id="XMLID_16_" x="0.2" y="0.3" width="59.3" height="89.5"/>
	</defs>
	<clipPath id="XMLID_31_">
		<use xlink:href="#XMLID_16_"  style="overflow:visible;"/>
	</clipPath>
	<path id="XMLID_17_" class="st0" d="M29.9,89.8c0,0,29.7-43.5,29.7-59.8S46.3,0.3,29.9,0.3S0.2,13.5,0.2,29.9S29.9,89.8,29.9,89.8"
		/>
</g>
<g id="XMLID_18_">
	<defs>
		<rect id="XMLID_19_" x="8.4" y="8.3" width="43" height="43"/>
	</defs>
	<clipPath id="XMLID_32_">
		<use xlink:href="#XMLID_19_"  style="overflow:visible;"/>
	</clipPath>
	<path id="XMLID_20_" class="st1" d="M29.9,51.3c11.9,0,21.5-9.6,21.5-21.5S41.8,8.3,29.9,8.3S8.4,18,8.4,29.8S18,51.3,29.9,51.3"/>
</g>
<g id="XMLID_29_">
	<path id="XMLID_28_" class="st2" d="M29.9,15.9c-3.8,3.8-5.4,7.3-5.8,10.3c4.7,3.2,4.5,8.4,4.1,10.8c-0.4-0.4-0.8-0.8-1.2-1.3
		c0.7,0.9,1.4,1.5,1.9,2c0.4-3.9,1.2-12.4,1.2-12.4l1.1,12.2c0.5-0.5,1-1.1,1.4-1.6c-0.3,0.3-0.5,0.6-0.8,0.8
		c-0.4-2.4-0.6-7.7,4.2-10.9C35.3,19.8,29.9,15.9,29.9,15.9"/>
	<path id="XMLID_27_" class="st3" d="M43.4,23.5c-3.3,0.4-5.7,1.3-7.5,2.4c0.3,2.9-0.5,6.3-3.5,10.1c2.4-2.5,6.2-6.4,6.2-6.4l-4.6,7
		c1.1-1.2,2.7-2.3,5-2.3c0.6,0,1.2,0.1,1.8,0.2C45.3,30.2,43.4,23.5,43.4,23.5"/>
	<path id="XMLID_26_" class="st4" d="M35.9,26c-4.8,3.2-4.6,8.5-4.2,10.9c0.2-0.2,0.5-0.5,0.8-0.8C35.4,32.3,36.2,28.9,35.9,26"/>
	<path id="XMLID_25_" class="st5" d="M40.9,34.6c-1.6,1.6-4,2.9-7.7,3.4l0.9-1.3c-0.7,0.7-1.1,1.5-1.4,2c2.1-0.4,6.7-1.2,6.7-1.2
		l-6.3,2.4c1.7,0.9,3.2,1.2,4.5,1.2c4.9,0,6.8-5.2,6.8-5.2C43.1,35.3,41.9,34.8,40.9,34.6"/>
	<path id="XMLID_24_" class="st6" d="M39.1,34.4c-2.3,0-3.9,1.1-5,2.3L33.2,38c3.7-0.5,6.1-1.8,7.7-3.4
		C40.2,34.4,39.6,34.4,39.1,34.4"/>
	<path id="XMLID_23_" class="st7" d="M16.4,23.6c0,0-1.9,6.7,2.5,11.1c0.7-0.1,1.3-0.2,1.8-0.2c2.3,0,3.9,1.1,5,2.3l-4.6-7
		c0,0,3.4,3.5,5.8,5.9c-1.7-2.2-3.4-5.4-2.9-9.5C22.3,25,19.8,24,16.4,23.6"/>
	<path id="XMLID_22_" class="st8" d="M24,26.2c-0.5,4.1,1.1,7.3,2.9,9.5c0.5,0.5,0.9,0.9,1.2,1.3C28.5,34.6,28.7,29.4,24,26.2"/>
	<path id="XMLID_21_" class="st9" d="M18.9,34.7c-1,0.2-2.2,0.7-3.4,1.4c0,0,1.9,5.2,6.8,5.2c1.3,0,2.8-0.4,4.5-1.2l-6.3-2.4
		c0,0,4.6,0.8,6.7,1.2c-0.3-0.5-0.7-1.3-1.4-2l0.9,1.3C22.9,37.6,20.5,36.3,18.9,34.7"/>
	<path id="XMLID_1_" class="st10" d="M20.7,34.5c-0.6,0-1.2,0.1-1.8,0.2c1.6,1.6,4,2.9,7.7,3.4l-0.9-1.3
		C24.7,35.6,23.1,34.5,20.7,34.5"/>
</g>
</svg>
