<?xml version="1.0" encoding="utf-8"?>
<!-- Generator: Adobe Illustrator 19.0.0, SVG Export Plug-In . SVG Version: 6.00 Build 0)  -->
<svg version="1.1" id="Layer_1" xmlns="http://www.w3.org/2000/svg" xmlns:xlink="http://www.w3.org/1999/xlink" x="0px" y="0px"
	 viewBox="0 0 300 300" style="enable-background:new 0 0 300 300;" xml:space="preserve">
<style type="text/css">
	.st0{fill:#F0A9B9;}
	.st1{fill:#FFE075;}
	.st2{fill:#F29A60;}
	.st3{fill:#C4CDD3;}
	.st4{fill:#C9B664;}
	.st5{fill:#B7CE97;}
	.st6{fill:#B5917A;}
	.st7{fill:#94C4E0;}
	.st8{fill:#75AC8D;}
	.st9{fill:none;stroke:#404042;stroke-miterlimit:10;}
	.st10{fill:#404042;}
</style>
<g>
	<path id="XMLID_43_" class="st0" d="M151.3,68c-20.9,21-30,40.2-32.3,57c25.7,17.8,24.7,46.5,22.6,59.5c-2-2-4.3-4.4-6.8-7
		c3.7,4.7,7.5,8.5,10.5,11.3c2.1-21.7,6.8-68.2,6.8-68.2l5.9,67.7c2.8-3,5.3-5.9,7.6-8.8c-1.6,1.6-3,3.1-4.3,4.4
		c-2.1-13.2-3.2-42.4,23.5-60.1C181.4,89.7,151.3,68,151.3,68"/>
	<path id="XMLID_42_" class="st1" d="M226.1,110.2c-18.3,2.1-31.6,7.1-41.3,13.5c1.7,16.1-2.7,35.1-19.2,55.7
		c13.3-13.7,34.5-35.5,34.5-35.5l-25.6,38.7c5.8-6.5,14.7-12.6,27.5-12.6c3.1,0,6.5,0.4,10.2,1.2
		C236.5,147.2,226.1,110.2,226.1,110.2"/>
	<path id="XMLID_41_" class="st2" d="M184.8,123.7c-26.6,17.8-25.6,46.9-23.5,60.1c1.3-1.3,2.7-2.8,4.3-4.4
		C182.1,158.7,186.5,139.8,184.8,123.7"/>
	<path id="XMLID_40_" class="st3" d="M212.2,171.3c-8.8,8.7-22.3,15.8-42.5,18.6l4.8-7.2c-3.6,4-6.1,8.2-7.6,11.3
		c11.7-2.2,36.9-6.8,36.9-6.8l-34.6,13.4c9.5,4.9,17.7,6.8,24.7,6.8c27.1,0,37.3-28.6,37.3-28.6
		C224.2,174.9,217.9,172.5,212.2,171.3"/>
	<path id="XMLID_39_" class="st4" d="M202.1,170.1c-12.8,0-21.7,6.1-27.5,12.6l-4.8,7.2c20.2-2.9,33.6-9.9,42.5-18.6
		C208.6,170.4,205.2,170.1,202.1,170.1"/>
	<path id="XMLID_38_" class="st5" d="M76.9,110.8c0,0-10.4,37,13.9,61.1c3.6-0.8,7-1.2,10.2-1.2c12.8,0,21.7,6.1,27.5,12.6
		l-25.6-38.7c0,0,18.7,19.2,31.9,32.9c-9.5-12-18.8-30.1-15.8-52.5C109.3,118.2,95.7,113,76.9,110.8"/>
	<path id="XMLID_37_" class="st6" d="M119,124.9c-3,22.5,6.3,40.5,15.8,52.5c2.5,2.6,4.8,5,6.8,7C143.7,171.4,144.8,142.8,119,124.9
		"/>
	<path id="XMLID_36_" class="st7" d="M90.8,171.9c-5.7,1.3-12,3.7-19,7.5c0,0,10.3,28.6,37.3,28.6c7.1,0,15.3-1.9,24.7-6.8
		l-34.6-13.4c0,0,25.1,4.6,36.9,6.8c-1.5-3-4-7.2-7.6-11.3l4.8,7.2C113,187.7,99.6,180.6,90.8,171.9"/>
	<path id="XMLID_35_" class="st8" d="M100.9,170.7c-3.1,0-6.5,0.4-10.2,1.2c8.8,8.7,22.3,15.8,42.5,18.6l-4.8-7.2
		C122.6,176.8,113.7,170.7,100.9,170.7"/>
	<circle id="XMLID_34_" class="st9" cx="150" cy="150" r="141.9"/>
	<circle id="XMLID_33_" class="st9" cx="150" cy="150" r="148.1"/>
</g>
<g>
	<path class="st10" d="M148.8,265.6c0-1.4,1-2.4,2.2-2.4c1.3,0,2.2,1,2.2,2.4c0,1.4-1,2.4-2.2,2.4C149.8,268,148.8,267,148.8,265.6z
		"/>
</g>
<g>
	<path class="st10" d="M108.1,256.3c0.4,0.1,0.9,0.3,1.4,0.5l5.3,2l2.4-6.3l2.3,0.9l-7.7,20l-7.6-2.9c-5-1.9-6.9-5.5-5.3-9.7
		c1.3-3.3,3.7-4.9,7-4.8l-2.1-8.6l2.6,1L108.1,256.3z M108.6,258.9c-3.6-1.4-6.3-0.6-7.5,2.5c-1.2,3,0.3,5.4,3.9,6.8l5.3,2l3.6-9.3
		L108.6,258.9z"/>
</g>
<g>
	<path class="st10" d="M83.6,257.7l3.9-5.9l-9-5.9l1.3-2l9,5.9l4-6.1l-10.4-6.9l1.3-1.9l12.5,8.2L84.3,261l-12.2-8l1.3-2L83.6,257.7
		z"/>
</g>
<g>
	<path class="st10" d="M52.2,229.5l2.4-0.2c-0.1,2.4,0.7,4.8,2.4,6.5c3.3,3.5,8.7,3.8,12.1,0.6c3.4-3.2,3.5-8.6,0.2-12.1
		c-1.6-1.7-3.9-2.7-6.2-2.9l0.2-2.2c2.9,0.2,5.8,1.4,7.8,3.6c4.2,4.5,4,11.4-0.4,15.5c-4.4,4.1-11.2,3.7-15.5-0.9
		C53.2,235.2,52.2,232.3,52.2,229.5z"/>
</g>
<g>
	<path class="st10" d="M41.8,198.5c5.3-2.9,11.9-0.9,14.9,4.6c3,5.5,1.2,12.2-4,15.1c-5.3,2.9-11.8,0.9-14.9-4.6
		C34.8,208.1,36.5,201.4,41.8,198.5z M51.5,216c4.1-2.3,5.5-7.6,3.2-11.8c-2.3-4.2-7.5-5.8-11.6-3.5c-4.1,2.3-5.5,7.5-3.2,11.7
		C42.2,216.6,47.4,218.3,51.5,216z"/>
</g>
<g>
	<path class="st10" d="M34.1,172.5l7.5-2c2.2,1.6,4,4.2,4.7,7c1.6,6-1.8,12-7.7,13.6c-5.8,1.5-11.7-2.1-13.3-8.2
		c-0.8-2.9-0.4-5.9,0.8-8.4l2.1,0.9c-1.1,2.1-1.4,4.6-0.8,6.9c1.2,4.7,5.9,7.6,10.4,6.4c4.6-1.2,7.2-6,6-10.7
		c-0.5-1.9-1.7-3.7-3.2-5l-6.3,1.6L34.1,172.5z"/>
</g>
<g>
	<path class="st10" d="M42.4,145.3l-16.8,13.3l17.2-0.5l0.1,2.4l-21.4,0.6l-0.1-2.5l16.9-13.3L21,145.8l-0.1-2.4l21.4-0.6
		L42.4,145.3z"/>
</g>
<g>
	<path class="st10" d="M44,133l-21.1-3.7l0.4-2.4l21.1,3.7L44,133z"/>
</g>
<g>
	<path class="st10" d="M32.4,101.9l1.8,1.8c-1.9,1.4-3.1,3.3-3.7,5c-0.9,2.6-0.6,4.6,1.2,5.3c5.2,1.8,6.5-10.5,13.8-7.8
		c3.4,1.2,4.5,4.9,2.9,9.3c-1,2.9-3.3,5.4-5.8,6.6l-1.7-1.8c2.5-1.2,4.4-3.4,5.2-5.7c1-2.9,0.5-5.2-1.4-5.8
		c-5.3-1.9-6.5,10.5-13.8,7.9c-3.2-1.1-4.2-4.7-2.7-8.8C29.1,105.3,30.7,103.2,32.4,101.9z"/>
</g>
<g>
	<path class="st10" d="M39.4,88.6l6.1,3.6l5.5-9.3l2,1.2l-5.5,9.3l6.3,3.7l6.4-10.8l2,1.2l-7.6,12.9L36.1,89.5L43.6,77l2,1.2
		L39.4,88.6z"/>
</g>
<g>
	<path class="st10" d="M80,58c0.9,1.1,0.8,2.5-0.2,3.3c-1,0.8-2.4,0.6-3.3-0.5c-0.9-1.1-0.7-2.5,0.3-3.2C77.7,56.8,79.1,56.9,80,58z
		"/>
</g>
<g>
	<path class="st10" d="M118.1,47.5l-2.3,0.7l-2.2-6.9l-12.2-11l2.4-0.8l10,8.6l3.2-12.7l2.4-0.8l-3.5,15.9L118.1,47.5z"/>
</g>
<g>
	<path class="st10" d="M150.8,31.5c0.5,6-4.1,11.2-10.3,11.7c-6.3,0.5-11.6-3.9-12.1-9.9c-0.5-6,4.1-11.1,10.4-11.6
		C145.1,21.1,150.4,25.5,150.8,31.5z M130.9,33c0.4,4.7,4.6,8.1,9.4,7.8c4.8-0.4,8.4-4.4,8-9.1c-0.4-4.7-4.6-8.1-9.3-7.7
		C134.2,24.3,130.6,28.3,130.9,33z"/>
</g>
<g>
	<path class="st10" d="M178.3,37c-1,5.5-4.8,8.2-10.4,7.3c-5.6-1-8.3-4.9-7.4-10.4l2.2-12.4l2.4,0.4L163,34.3
		c-0.7,4.1,1.4,6.9,5.4,7.6c4,0.7,6.8-1.3,7.5-5.4l2.2-12.4l2.4,0.4L178.3,37z"/>
</g>
<g>
	<path class="st10" d="M197.4,46.1c-0.4-0.2-0.9-0.3-1.3-0.5l-5.2-2.3l-2.7,6.2l-2.2-1l8.6-19.6l7.5,3.3c4.9,2.2,6.7,5.8,4.8,10
		c-1.4,3.3-4,4.7-7.2,4.4l1.7,8.7l-2.6-1.1L197.4,46.1z M197,43.4c3.6,1.6,6.3,0.9,7.6-2.2c1.3-3,0-5.4-3.6-6.9l-5.2-2.3l-4,9.1
		L197,43.4z"/>
</g>
<g>
	<path class="st10" d="M233,69.5c-1,1-2.4,1-3.3,0.2c-0.9-0.9-0.9-2.3,0.1-3.3c1-1,2.3-1,3.2-0.1C233.9,67.1,233.9,68.5,233,69.5z"
		/>
</g>
<g>
	<path class="st10" d="M267.6,97.5c2.2,4.8,1.1,8.7-3,10.6c-4.3,2-8.1,0.3-10.3-4.5l-2.3-5.1l-6.1,2.8l-1-2.2l19.5-9L267.6,97.5z
		 M254.1,97.5l2.3,5c1.6,3.5,4.1,4.8,7.1,3.4c2.9-1.4,3.5-4.1,1.9-7.6l-2.3-5L254.1,97.5z"/>
</g>
<g>
	<path class="st10" d="M268.1,139.4c-5.9,1.1-11.6-2.9-12.7-9.1c-1.1-6.2,2.7-11.9,8.7-13c6-1.1,11.5,3,12.6,9.1
		C277.8,132.6,274,138.3,268.1,139.4z M264.5,119.8c-4.6,0.8-7.6,5.4-6.8,10.1c0.9,4.7,5.3,7.9,9.9,7c4.6-0.8,7.6-5.4,6.8-10.1
		C273.6,122.2,269.2,118.9,264.5,119.8z"/>
</g>
<g>
	<path class="st10" d="M276.3,156.4l-19.1-0.9l0.1-2.4l19.1,0.9l0.3-7l2.4,0.1l-0.8,16.4l-2.4-0.1L276.3,156.4z"/>
</g>
<g>
	<path class="st10" d="M273.8,176.3l-6.8-1.7l-2.6,10.5l-2.3-0.6l2.6-10.5l-7.1-1.8l-3,12.1l-2.3-0.6l3.6-14.5l20.8,5.2l-3.5,14.1
		l-2.3-0.6L273.8,176.3z"/>
</g>
<g>
	<path class="st10" d="M242.2,205.3l21.2-3.3l-15.2-8l1.1-2.2l19,10l-1.2,2.2l-21.3,3.3l15.2,8.1l-1.1,2.1l-19-10L242.2,205.3z"/>
</g>
<g>
	<path class="st10" d="M245.6,232.8L231,220.5l1.6-1.9l14.6,12.3l4.5-5.3l1.8,1.5l-10.6,12.6l-1.8-1.5L245.6,232.8z"/>
</g>
<g>
	<path class="st10" d="M221.2,230.4l14.2,16l-1.8,1.6l-14.2-16L221.2,230.4z"/>
</g>
<g>
	<path class="st10" d="M212.9,243.9l-0.7-5.9l2.2-1.3l2.6,23.4l-2.2,1.3l-19.1-13.6l2.3-1.3l4.8,3.5L212.9,243.9z M214.5,258.3
		l-1.4-11.8l-8.3,4.9L214.5,258.3z"/>
</g>
<g>
	<path class="st10" d="M178.8,256.1l-0.8-2.2l11.2-3.9l7,20.3l-2.3,0.8l-6.2-18.1L178.8,256.1z"/>
</g>
</svg>
