<?xml version="1.0" encoding="utf-8"?>
<!-- Generator: Adobe Illustrator 19.0.0, SVG Export Plug-In . SVG Version: 6.00 Build 0)  -->
<svg version="1.1" id="Layer_1" xmlns="http://www.w3.org/2000/svg" xmlns:xlink="http://www.w3.org/1999/xlink" x="0px" y="0px"
	 viewBox="0 0 411.7 284.7" style="enable-background:new 0 0 411.7 284.7;" xml:space="preserve">
<style type="text/css">
	.st0{fill:none;stroke:#FFFFFF;stroke-miterlimit:10;}
	.st1{fill:#FFFFFF;}
</style>
<g>
	<g>
		<path class="st0" d="M206.6,52.5c-16.7,16.7-23.9,32-25.7,45.3c20.5,14.2,19.6,37,18,47.4c-1.6-1.6-3.4-3.5-5.4-5.6
			c3,3.8,5.9,6.8,8.4,9c1.7-17.3,5.4-54.3,5.4-54.3l4.7,53.9c2.2-2.4,4.2-4.7,6.1-7c-1.2,1.3-2.4,2.5-3.4,3.5
			c-1.7-10.5-2.5-33.7,18.7-47.9C230.5,69.8,206.6,52.5,206.6,52.5"/>
		<path class="st0" d="M266.1,86c-14.5,1.7-25.1,5.6-32.8,10.8c1.3,12.8-2.2,27.9-15.3,44.3c10.6-10.9,27.4-28.2,27.4-28.2
			l-20.4,30.8c4.7-5.2,11.7-10,21.9-10c2.5,0,5.2,0.3,8.1,0.9C274.4,115.5,266.1,86,266.1,86"/>
		<path class="st0" d="M233.3,96.8c-21.2,14.1-20.4,37.4-18.7,47.9c1-1.1,2.2-2.2,3.4-3.5C231.1,124.7,234.6,109.6,233.3,96.8"/>
		<path class="st0" d="M255.1,134.7c-7,7-17.7,12.5-33.8,14.8l3.8-5.8c-2.9,3.2-4.8,6.6-6,9c9.3-1.7,29.3-5.4,29.3-5.4l-27.6,10.6
			c7.5,3.9,14.1,5.4,19.7,5.4c21.6,0,29.7-22.7,29.7-22.7C264.6,137.6,259.6,135.7,255.1,134.7"/>
		<path class="st0" d="M247,133.7c-10.2,0-17.2,4.8-21.9,10l-3.8,5.8c16.1-2.3,26.8-7.9,33.8-14.8C252.2,134,249.5,133.7,247,133.7"
			/>
		<path class="st0" d="M147.3,86.6c0,0-8.3,29.5,11.1,48.6c2.9-0.7,5.6-0.9,8.1-0.9c10.2,0,17.2,4.8,21.9,10L168,113.4
			c0,0,14.9,15.3,25.4,26.2c-7.5-9.6-15-23.9-12.6-41.8C173.1,92.4,162.3,88.3,147.3,86.6"/>
		<path class="st0" d="M180.9,97.8c-2.4,17.9,5,32.2,12.6,41.8c2,2.1,3.9,4,5.4,5.6C200.5,134.8,201.4,112,180.9,97.8"/>
		<path class="st0" d="M158.4,135.2c-4.5,1-9.6,2.9-15.1,6c0,0,8.2,22.7,29.7,22.7c5.6,0,12.1-1.5,19.7-5.4l-27.6-10.6
			c0,0,20,3.7,29.3,5.4c-1.2-2.4-3.2-5.8-6-9l3.8,5.8C176.1,147.7,165.4,142.1,158.4,135.2"/>
		<path class="st0" d="M166.5,134.2c-2.5,0-5.2,0.3-8.1,0.9c7,7,17.7,12.5,33.8,14.8l-3.8-5.8C183.7,139.1,176.7,134.2,166.5,134.2"
			/>
		<circle class="st0" cx="205.5" cy="118.6" r="112.9"/>
		<circle class="st0" cx="205.5" cy="118.6" r="117.9"/>
	</g>
	<g>
		<path class="st1" d="M204.5,210.6c0-1.1,0.8-1.9,1.8-1.9c1,0,1.8,0.8,1.8,1.9c0,1.1-0.8,1.9-1.8,1.9
			C205.3,212.5,204.5,211.7,204.5,210.6z"/>
	</g>
	<g>
		<path class="st1" d="M172.1,203.1c0.3,0.1,0.7,0.2,1.1,0.4l4.2,1.6l1.9-5l1.8,0.7l-6.1,15.9l-6.1-2.3c-4-1.5-5.5-4.4-4.2-7.8
			c1-2.6,3-3.9,5.6-3.8l-1.7-6.8l2.1,0.8L172.1,203.1z M172.5,205.3c-2.9-1.1-5-0.5-6,2c-0.9,2.4,0.2,4.3,3.1,5.4l4.2,1.6l2.8-7.4
			L172.5,205.3z"/>
	</g>
	<g>
		<path class="st1" d="M152.6,204.3l3.1-4.7l-7.2-4.7l1-1.6l7.2,4.7l3.2-4.9l-8.3-5.5l1-1.5l9.9,6.5l-9.4,14.3l-9.7-6.4l1-1.6
			L152.6,204.3z"/>
	</g>
	<g>
		<path class="st1" d="M127.6,181.9l1.9-0.2c-0.1,1.9,0.6,3.8,1.9,5.2c2.6,2.8,6.9,3.1,9.7,0.5c2.7-2.5,2.8-6.9,0.2-9.7
			c-1.3-1.4-3.1-2.2-4.9-2.3l0.2-1.8c2.3,0.2,4.6,1.1,6.2,2.8c3.4,3.6,3.2,9.1-0.3,12.4c-3.5,3.3-9,2.9-12.3-0.7
			C128.5,186.4,127.6,184.1,127.6,181.9z"/>
	</g>
	<g>
		<path class="st1" d="M119.4,157.2c4.2-2.3,9.5-0.7,11.9,3.6c2.4,4.4,1,9.7-3.2,12c-4.2,2.3-9.4,0.7-11.8-3.7
			C113.8,164.8,115.2,159.5,119.4,157.2z M127.1,171.1c3.3-1.8,4.4-6,2.5-9.4c-1.8-3.3-6-4.6-9.3-2.8c-3.3,1.8-4.4,6-2.5,9.3
			C119.7,171.6,123.8,172.9,127.1,171.1z"/>
	</g>
	<g>
		<path class="st1" d="M113.2,136.5l6-1.6c1.7,1.3,3.2,3.3,3.8,5.6c1.2,4.8-1.5,9.6-6.1,10.8c-4.6,1.2-9.3-1.7-10.6-6.5
			c-0.6-2.3-0.3-4.7,0.7-6.7l1.7,0.7c-0.9,1.7-1.1,3.7-0.6,5.5c1,3.8,4.7,6,8.3,5.1c3.7-1,5.8-4.8,4.8-8.5c-0.4-1.5-1.3-2.9-2.5-4
			l-5,1.3L113.2,136.5z"/>
	</g>
	<g>
		<path class="st1" d="M119.9,114.8l-13.4,10.6l13.7-0.4l0.1,1.9l-17.1,0.5l-0.1-2l13.4-10.6l-13.7,0.4l-0.1-1.9l17.1-0.5
			L119.9,114.8z"/>
	</g>
	<g>
		<path class="st1" d="M121.1,105l-16.8-2.9l0.3-1.9l16.8,2.9L121.1,105z"/>
	</g>
	<g>
		<path class="st1" d="M111.9,80.3l1.4,1.4c-1.5,1.1-2.5,2.7-2.9,3.9c-0.7,2.1-0.4,3.7,0.9,4.2c4.1,1.5,5.2-8.3,11-6.2
			c2.7,1,3.6,3.9,2.3,7.4c-0.8,2.3-2.7,4.3-4.6,5.3l-1.4-1.4c2-1,3.5-2.7,4.2-4.5c0.8-2.3,0.4-4.1-1.1-4.6c-4.2-1.5-5.2,8.3-11,6.3
			c-2.5-0.9-3.4-3.7-2.2-7C109.3,83,110.5,81.3,111.9,80.3z"/>
	</g>
	<g>
		<path class="st1" d="M117.5,69.7l4.8,2.9l4.4-7.4l1.6,1l-4.4,7.4l5,3l5.1-8.6l1.6,0.9l-6.1,10.2l-14.7-8.7l5.9-10l1.6,1
			L117.5,69.7z"/>
	</g>
	<g>
		<path class="st1" d="M149.8,45.3c0.7,0.9,0.6,2-0.2,2.6c-0.8,0.6-1.9,0.5-2.6-0.4c-0.7-0.9-0.6-2,0.2-2.6
			C148,44.4,149.1,44.5,149.8,45.3z"/>
	</g>
	<g>
		<path class="st1" d="M180.1,37l-1.8,0.6l-1.7-5.5l-9.7-8.8l1.9-0.6l8,6.8l2.5-10.1l1.9-0.6l-2.8,12.6L180.1,37z"/>
	</g>
	<g>
		<path class="st1" d="M206.2,24.2c0.4,4.8-3.3,8.9-8.2,9.3c-5,0.4-9.2-3.1-9.6-7.9c-0.4-4.8,3.3-8.9,8.2-9.3
			C201.6,16,205.8,19.5,206.2,24.2z M190.3,25.5c0.3,3.7,3.7,6.5,7.5,6.2c3.8-0.3,6.7-3.5,6.4-7.3c-0.3-3.7-3.6-6.5-7.4-6.2
			C193,18.5,190,21.7,190.3,25.5z"/>
	</g>
	<g>
		<path class="st1" d="M228.1,28.6c-0.8,4.4-3.9,6.6-8.3,5.8c-4.4-0.8-6.6-3.9-5.9-8.2l1.7-9.9l1.9,0.3l-1.7,9.9
			c-0.6,3.3,1.1,5.5,4.3,6.1c3.2,0.6,5.4-1,6-4.3l1.7-9.9l1.9,0.3L228.1,28.6z"/>
	</g>
	<g>
		<path class="st1" d="M243.2,35.9c-0.3-0.1-0.7-0.3-1.1-0.4l-4.2-1.8l-2.2,4.9l-1.8-0.8l6.9-15.6l5.9,2.6c3.9,1.7,5.3,4.6,3.9,8
			c-1.1,2.6-3.2,3.8-5.7,3.5l1.3,6.9l-2-0.9L243.2,35.9z M242.9,33.7c2.8,1.2,5,0.7,6.1-1.7c1-2.4,0-4.3-2.9-5.5l-4.2-1.8l-3.2,7.3
			L242.9,33.7z"/>
	</g>
	<g>
		<path class="st1" d="M271.5,54.5c-0.8,0.8-1.9,0.8-2.6,0.1c-0.7-0.7-0.7-1.8,0.1-2.6c0.8-0.8,1.9-0.8,2.6-0.1
			C272.3,52.6,272.3,53.7,271.5,54.5z"/>
	</g>
	<g>
		<path class="st1" d="M299.1,76.8c1.8,3.8,0.9,6.9-2.4,8.4c-3.4,1.6-6.4,0.3-8.2-3.6l-1.9-4.1l-4.9,2.3l-0.8-1.8l15.5-7.1
			L299.1,76.8z M288.4,76.8l1.8,4c1.3,2.8,3.3,3.8,5.7,2.7c2.3-1.1,2.8-3.2,1.5-6l-1.8-4L288.4,76.8z"/>
	</g>
	<g>
		<path class="st1" d="M299.5,110.1c-4.7,0.9-9.2-2.3-10.1-7.2c-0.9-4.9,2.2-9.5,6.9-10.3c4.7-0.9,9.1,2.4,10,7.3
			C307.2,104.7,304.2,109.3,299.5,110.1z M296.7,94.5c-3.7,0.7-6.1,4.3-5.4,8.1c0.7,3.7,4.2,6.3,7.9,5.6c3.7-0.7,6.1-4.3,5.4-8
			C303.9,96.4,300.4,93.8,296.7,94.5z"/>
	</g>
	<g>
		<path class="st1" d="M306.1,123.6l-15.2-0.7l0.1-1.9l15.2,0.7l0.3-5.6l1.9,0.1l-0.6,13.1l-1.9-0.1L306.1,123.6z"/>
	</g>
	<g>
		<path class="st1" d="M304,139.5l-5.4-1.4l-2.1,8.3l-1.8-0.5l2.1-8.3l-5.7-1.4l-2.4,9.6l-1.8-0.4l2.9-11.5l16.6,4.1l-2.8,11.2
			l-1.8-0.5L304,139.5z"/>
	</g>
	<g>
		<path class="st1" d="M278.9,162.6l16.9-2.7l-12.1-6.4l0.9-1.7l15.1,8l-0.9,1.8l-16.9,2.6l12.1,6.4l-0.9,1.7l-15.1-8L278.9,162.6z"
			/>
	</g>
	<g>
		<path class="st1" d="M281.6,184.5l-11.6-9.8l1.3-1.5l11.6,9.8l3.6-4.2l1.4,1.2l-8.4,10l-1.4-1.2L281.6,184.5z"/>
	</g>
	<g>
		<path class="st1" d="M262.2,182.6l11.3,12.8l-1.5,1.3l-11.3-12.8L262.2,182.6z"/>
	</g>
	<g>
		<path class="st1" d="M255.6,193.3l-0.5-4.7l1.8-1l2,18.6l-1.7,1l-15.2-10.9l1.8-1.1l3.8,2.8L255.6,193.3z M256.9,204.8l-1.1-9.4
			l-6.6,3.9L256.9,204.8z"/>
	</g>
	<g>
		<path class="st1" d="M228.5,203l-0.6-1.8l8.9-3.1l5.5,16.1l-1.8,0.6l-4.9-14.4L228.5,203z"/>
	</g>
	<g>
		<g>
			<path class="st1" d="M24.1,284.5l0-22l-9.7,19.1h-1.8l-9.7-19.1v22H0v-26.6h3.8l9.7,19.2l9.7-19.2h3.7v26.6H24.1z"/>
			<path class="st1" d="M39.2,284.5v-26.6h3v26.6H39.2z"/>
			<path class="st1" d="M73.6,284.5l-16-21.4v21.4h-3v-26.6h3.2l16,21.4v-21.4h3v26.6H73.6z"/>
			<path class="st1" d="M99.7,257.9c7.8,0,13.7,5.7,13.7,13.3c0,7.6-6,13.3-13.8,13.3H88.9v-26.6H99.7z M92,281.6h7.8
				c5.9,0,10.6-4.5,10.6-10.4c0-6-4.7-10.4-10.7-10.4H92V281.6z"/>
			<path class="st1" d="M148.6,257.9c5.4,0,8.6,2.5,8.6,6.7c0,3.1-1.8,5.4-4.9,6c3.8,0.6,6.1,3.1,6.1,6.7c0,4.5-3.6,7.2-9.6,7.2
				h-11.4v-26.6H148.6z M140.4,269.4h8c3.6,0,5.7-1.6,5.7-4.3c0-2.7-2.1-4.2-5.7-4.2h-8V269.4z M140.4,281.6h8
				c4.3,0,6.9-1.7,6.9-4.8c0-2.9-2.5-4.6-6.9-4.6h-8V281.6z"/>
			<path class="st1" d="M194.2,271.2c0,7.5-6.2,13.5-13.9,13.5c-7.8,0-14-6-14-13.5c0-7.5,6.2-13.4,14-13.4
				C188.1,257.8,194.2,263.7,194.2,271.2z M169.4,271.2c0,5.9,4.9,10.5,10.9,10.5s10.8-4.7,10.8-10.5c0-5.9-4.9-10.5-10.8-10.5
				S169.4,265.3,169.4,271.2z"/>
			<path class="st1" d="M214.7,257.9c7.8,0,13.7,5.7,13.7,13.3c0,7.6-6,13.3-13.8,13.3H204v-26.6H214.7z M207,281.6h7.8
				c5.9,0,10.6-4.5,10.6-10.4c0-6-4.7-10.4-10.7-10.4H207V281.6z"/>
			<path class="st1" d="M247.5,284.5h-3v-9l-10.3-17.6h3.2l8.6,13.9l8.5-13.9h3.1l-10.1,17.5V284.5z"/>
			<path class="st1" d="M291.5,257.9c5.4,0,8.6,2.5,8.6,6.7c0,3.1-1.8,5.4-4.9,6c3.8,0.6,6.1,3.1,6.1,6.7c0,4.5-3.6,7.2-9.6,7.2
				h-11.4v-26.6H291.5z M283.3,269.4h8c3.6,0,5.7-1.6,5.7-4.3c0-2.7-2.1-4.2-5.7-4.2h-8V269.4z M283.3,281.6h8
				c4.3,0,6.9-1.7,6.9-4.8c0-2.9-2.5-4.6-6.9-4.6h-8V281.6z"/>
			<path class="st1" d="M314.7,260.8v8.8h13.4v2.9h-13.4v9.1h15.5v2.9h-18.6v-26.6h18.1v2.9H314.7z"/>
			<path class="st1" d="M340.6,284.5v-26.6h3v26.6H340.6z"/>
			<path class="st1" d="M375,284.5l-16-21.4v21.4h-3v-26.6h3.2l16,21.4v-21.4h3v26.6H375z"/>
			<path class="st1" d="M411.6,271.5v9.7c-2.6,2.1-6.3,3.5-9.9,3.5c-7.7,0-13.9-6-13.9-13.5c0-7.5,6.2-13.4,14-13.4
				c3.7,0,7.3,1.4,9.8,3.7l-1.7,2.3c-2.2-1.9-5.1-3.1-8.1-3.1c-6.1,0-11,4.7-11,10.5c0,5.9,4.9,10.6,11,10.6c2.4,0,4.9-0.8,7-2.2v-8
				H411.6z"/>
		</g>
	</g>
</g>
</svg>
