<?xml version="1.0" encoding="utf-8"?>
<!-- Generator: Adobe Illustrator 19.0.0, SVG Export Plug-In . SVG Version: 6.00 Build 0)  -->
<svg version="1.1" id="Layer_1" xmlns="http://www.w3.org/2000/svg" xmlns:xlink="http://www.w3.org/1999/xlink" x="0px" y="0px"
	 viewBox="0 0 61.5 56.1" style="enable-background:new 0 0 61.5 56.1;" xml:space="preserve">
<style type="text/css">
	
		.st0{clip-path:url(#XMLID_243_);fill:none;stroke:#FFFFFF;stroke-width:2.689;stroke-linecap:round;stroke-linejoin:round;stroke-miterlimit:10;}
</style>
<g id="XMLID_184_">
	<defs>
		<rect id="XMLID_185_" width="61.5" height="56.1"/>
	</defs>
	<clipPath id="XMLID_243_">
		<use xlink:href="#XMLID_185_"  style="overflow:visible;"/>
	</clipPath>
	<path id="XMLID_186_" class="st0" d="M8.1,36.6c3.6,10.6,13.6,18.2,25.3,18.2c14.8,0,26.7-12,26.7-26.7c0-14.8-12-26.7-26.7-26.7
		c-14.8,0-26.7,12-26.7,26.7l0,0v2.7 M50.8,28.1c0,9.6-7.8,17.4-17.4,17.4S16,37.7,16,28.1s7.8-17.4,17.4-17.4S50.8,18.5,50.8,28.1z
		 M38.8,33.4l-5.3-5.3V17.4 M1.3,26.7l5.3,5.3l5.3-5.3"/>
</g>
</svg>
