<?xml version="1.0" encoding="utf-8"?>
<!-- Generator: Adobe Illustrator 19.0.0, SVG Export Plug-In . SVG Version: 6.00 Build 0)  -->
<svg version="1.1" id="Layer_1" xmlns="http://www.w3.org/2000/svg" xmlns:xlink="http://www.w3.org/1999/xlink" x="0px" y="0px"
	 viewBox="0 0 49.5 49.5" style="enable-background:new 0 0 49.5 49.5;" xml:space="preserve">
<style type="text/css">
	.st0{clip-path:url(#SVGID_2_);fill:#FFFFFF;}
</style>
<g>
	<defs>
		<rect id="SVGID_1_" width="49.5" height="49.5"/>
	</defs>
	<clipPath id="SVGID_2_">
		<use xlink:href="#SVGID_1_"  style="overflow:visible;"/>
	</clipPath>
	<path class="st0" d="M31.1,2.1c-4.4,0-8.5,1.7-11.5,4.8c-6.4,6.4-6.4,16.7,0,23.1c3.1,3.1,7.2,4.8,11.5,4.8c4.4,0,8.5-1.7,11.5-4.8
		c6.4-6.4,6.4-16.7,0-23.1C39.5,3.8,35.4,2.1,31.1,2.1 M16.2,30.3c-0.1,0-0.3,0.1-0.4,0.2L14,32.3c-0.1,0.1-0.2,0.2-0.2,0.4
		c0,0.1,0.1,0.3,0.2,0.4l2.5,2.5c0.1,0.1,0.2,0.2,0.4,0.2c0.1,0,0.3,0,0.4-0.2l1.9-1.9c0.1-0.1,0.2-0.2,0.2-0.4
		c0-0.1-0.1-0.3-0.2-0.4c-0.4-0.4-0.9-0.8-1.3-1.2c-0.4-0.4-0.8-0.8-1.2-1.3C16.5,30.3,16.4,30.3,16.2,30.3
		C16.2,30.3,16.2,30.3,16.2,30.3 M12.1,34.4c-0.1,0-0.3,0.1-0.4,0.2l-9,9c-0.8,0.8-0.8,2.2,0.1,3.1c0.4,0.4,1,0.7,1.6,0.7l0.1,0
		c0.6,0,1.1-0.2,1.5-0.6l9-9c0.1-0.1,0.2-0.2,0.2-0.4c0-0.1-0.1-0.3-0.2-0.4l-2.5-2.5C12.4,34.4,12.3,34.4,12.1,34.4 M4.5,49.5
		C4.4,49.5,4.4,49.5,4.5,49.5c-1.2,0-2.3-0.5-3.2-1.3c-1.7-1.7-1.8-4.5-0.1-6.1L15,28.3c0.2-0.2,0.2-0.4,0.1-0.6
		c-4.1-7.2-2.9-16.4,2.9-22.2c3.5-3.5,8.1-5.4,13-5.4c4.9,0,9.6,1.9,13,5.4c7.2,7.2,7.2,18.9,0,26.1c-3.5,3.5-8.1,5.4-13,5.4
		c-3.2,0-6.4-0.8-9.2-2.5c-0.1,0-0.2-0.1-0.3-0.1c-0.1,0-0.3,0.1-0.4,0.2L7.4,48.3C6.7,49.1,5.6,49.5,4.5,49.5L4.5,49.5z"/>
	<path class="st0" d="M30.9,8.5c-2.7,0-5.2,1.1-7.1,3c-1.9,1.9-3,4.4-3,7.1c0,2.7,1.1,5.2,3,7.1c1.9,1.9,4.4,3,7.1,3
		c2.7,0,5.2-1.1,7.1-3c1.9-1.9,3-4.4,3-7.1c0-2.7-1.1-5.2-3-7.1S33.6,8.5,30.9,8.5L30.9,8.5z M30.9,30.8c-3.3,0-6.3-1.3-8.6-3.6
		c-2.3-2.3-3.6-5.4-3.6-8.6s1.3-6.3,3.6-8.6c2.3-2.3,5.4-3.6,8.6-3.6c3.3,0,6.3,1.3,8.6,3.6c2.3,2.3,3.6,5.4,3.6,8.6
		c0,3.3-1.3,6.3-3.6,8.6C37.3,29.5,34.2,30.8,30.9,30.8"/>
	<path class="st0" d="M35.8,19.5c-0.6,0-1.1-0.5-1.1-1.1c0-2-1.6-3.7-3.7-3.7c-0.6,0-1.1-0.5-1.1-1.1c0-0.6,0.5-1.1,1.1-1.1
		c3.2,0,5.8,2.6,5.8,5.8C36.9,19,36.4,19.5,35.8,19.5"/>
</g>
</svg>
