<?xml version="1.0" encoding="utf-8"?>
<!-- Generator: Adobe Illustrator 19.0.0, SVG Export Plug-In . SVG Version: 6.00 Build 0)  -->
<svg version="1.1" id="Layer_1" xmlns="http://www.w3.org/2000/svg" xmlns:xlink="http://www.w3.org/1999/xlink" x="0px" y="0px"
	 viewBox="0 0 32 32" style="enable-background:new 0 0 32 32;" xml:space="preserve">
<style type="text/css">
	.st0{clip-path:url(#XMLID_5_);fill:#FFFFFF;}
</style>
<g>
	<defs>
		<rect id="XMLID_1_" x="0.2" y="0.2" width="31.6" height="31.6"/>
	</defs>
	<clipPath id="XMLID_5_">
		<use xlink:href="#XMLID_1_"  style="overflow:visible;"/>
	</clipPath>
	<path class="st0" d="M23.9,12.3c-0.3,0.3-0.6,0.5-0.9,0.8v0.4c0,1.1-0.2,2.2-0.6,3.2c-0.4,1.1-1,2.1-1.7,2.9
		c-0.8,0.9-1.7,1.6-2.9,2.1c-1.1,0.6-2.4,0.8-3.9,0.8c-0.9,0-1.8-0.1-2.6-0.4C10.4,22,9.6,21.7,9,21.2h0.8c1.5,0,2.8-0.5,4-1.4
		c-0.7,0-1.4-0.3-1.9-0.7c-0.5-0.4-0.9-0.9-1.1-1.6c0.2,0.1,0.4,0.1,0.5,0.1c0.2,0,0.3,0,0.5,0c0.1,0,0.3,0,0.4-0.1
		c-0.7-0.1-1.3-0.5-1.8-1.1c-0.5-0.6-0.7-1.3-0.7-2v0c0.4,0.2,0.9,0.4,1.4,0.4c-0.9-0.6-1.4-1.5-1.4-2.7c0-0.6,0.1-1.1,0.4-1.6
		c0.8,1,1.8,1.8,2.9,2.4c1.1,0.6,2.4,0.9,3.7,1c-0.1-0.3-0.1-0.5-0.1-0.7c0-0.9,0.3-1.7,0.9-2.3c0.6-0.6,1.4-0.9,2.3-0.9
		c0.5,0,0.9,0.1,1.3,0.3c0.4,0.2,0.7,0.4,1,0.8c0.4-0.1,0.8-0.2,1.1-0.3c0.3-0.1,0.7-0.3,1-0.5c-0.2,0.4-0.3,0.7-0.6,1
		c-0.2,0.3-0.5,0.6-0.9,0.8c0.3-0.1,0.6-0.1,0.9-0.2c0.3-0.1,0.6-0.2,0.9-0.3C24.4,11.8,24.1,12,23.9,12.3 M9.9,1.4
		c-1.9,0.8-3.6,2-5,3.4c-1.4,1.4-2.6,3.1-3.4,5s-1.2,4-1.2,6.2c0,2.2,0.4,4.2,1.2,6.2s2,3.6,3.4,5c1.4,1.4,3.1,2.6,5,3.4
		s4,1.2,6.2,1.2s4.2-0.4,6.2-1.2s3.6-2,5-3.4c1.4-1.4,2.6-3.1,3.4-5s1.2-4,1.2-6.2c0-2.2-0.4-4.2-1.2-6.2s-2-3.6-3.4-5
		c-1.4-1.4-3.1-2.6-5-3.4s-4-1.2-6.2-1.2S11.8,0.6,9.9,1.4"/>
</g>
</svg>
