<svg id="Layer_1" xmlns="http://www.w3.org/2000/svg" xmlns:xlink="http://www.w3.org/1999/xlink" viewBox="0 0 100.7 61.5"><style>.st0{clip-path:url(#XMLID_123_);fill:#424143}</style><g id="XMLID_3_"><defs><path id="XMLID_4_" d="M0 17.9h100.7v43.5H0z"/></defs><clipPath id="XMLID_123_"><use xlink:href="#XMLID_4_" overflow="visible"/></clipPath><path id="XMLID_109_" class="st0" d="M23.4 51.6c0 1.4-1.1 2.5-2.5 2.5s-2.5-1.1-2.5-2.5 1.1-2.5 2.5-2.5 2.5 1.1 2.5 2.5"/><path id="XMLID_108_" class="st0" d="M83.2 51.6c0 1.4-1.1 2.5-2.5 2.5s-2.5-1.1-2.5-2.5 1.1-2.5 2.5-2.5 2.5 1.1 2.5 2.5"/><path id="XMLID_15_" class="st0" d="M20.9 44.5c-4 0-7.2 3.2-7.2 7.2s3.2 7.2 7.2 7.2 7.2-3.2 7.2-7.2-3.2-7.2-7.2-7.2m0 17c-5.5 0-9.9-4.4-9.9-9.8s4.4-9.8 9.9-9.8 9.9 4.4 9.9 9.8-4.4 9.8-9.9 9.8"/><path id="XMLID_14_" class="st0" d="M70.8 51.8h-40c0 .9-.2 1.8-.4 2.7h40.8c-.3-.8-.4-1.7-.4-2.7"/><path id="XMLID_11_" class="st0" d="M80.7 44.5c-4 0-7.2 3.2-7.2 7.2s3.2 7.2 7.2 7.2 7.2-3.2 7.2-7.2-3.3-7.2-7.2-7.2m0 17c-5.5 0-9.9-4.4-9.9-9.8s4.4-9.8 9.9-9.8 9.9 4.4 9.9 9.8-4.5 9.8-9.9 9.8"/><path id="XMLID_6_" class="st0" d="M47 30.9l-2.3-10.3h5.7c4.7 0 12.1 5.2 17.5 9 .7.5 1.4 1 2 1.4L47 30.9zm-24.1 0l3.5-9.5c3.9-.4 9-.6 15.5-.8l2.3 10.3H22.9zM8 30.9c1.4-2.4 3.2-5.1 5.2-6.6 1-.8 3.6-1.8 10.3-2.6l-3.4 9.2H8zm90.2 10l-.2-.2c-.3-.3-.5-.7-.6-1l-.4-1.8c-.5-2-1.4-3.3-2.8-4-.7-.4-1.5-.6-2.4-.7l-16.4-1.9c-.8-.2-3.7-2.2-6.1-3.8-5.7-4-13.6-9.5-19.1-9.5-33.2 0-37.4 3.3-38.8 4.4C7 25.8 3.3 33.9 3 34.8c-.3.6-3 5.6-3 8.9v6c0 3.2.7 4.8 4.5 4.8h6.9c-.3-.8-.4-1.7-.4-2.7H4.5c-1.8 0-1.8 0-1.8-2.2v-6c0-2.3 2-6.4 2.8-7.8v-.1c.2-.3.4-.7.6-1.1.4-.6 1.1-1 1.8-1h64.8l2.4.3h.2l16.2 1.9c.5.1 1 .2 1.4.4.6.3 1.1 1.1 1.4 2.3l.5 1.8c.2.9.7 1.7 1.4 2.3l.2.2c.5.4 1.6 1.4 1.6 1.8v4.7c0 .7 0 2-.5 2.3-.3.1-.7.2-1 .2h-5.9c0 .9-.2 1.8-.4 2.7h6.4c.7 0 1.5-.2 2.2-.5 2.1-1 2.1-3.4 2.1-4.7v-4.7c-.2-1.6-1.6-2.8-2.7-3.7"/><path id="XMLID_5_" class="st0" d="M96.5 54.7c.7 0 1.5-.2 2.2-.5 2.1-1 2.1-3.4 2.1-4.7v-4.7c0-1.6-1.4-2.8-2.5-3.8l-.3-.1c-.3-.3-.5-.7-.6-1l-.4-1.8c-.5-2-1.4-3.3-2.8-4-.7-.4-1.5-.6-2.4-.7l-16.4-1.9c-.8-.2-3.7-2.2-6.1-3.8-5.7-4-13.6-9.5-19.1-9.5-33.2 0-37.4 3.3-38.8 4.4-4.2 3.3-8 11.4-8.3 12.2-.4.8-3.1 5.8-3.1 9.1v6c0 3.2.7 4.8 4.5 4.8h92z"/></g></svg>