<svg version="1.1" id="Layer_1" xmlns="http://www.w3.org/2000/svg" xmlns:xlink="http://www.w3.org/1999/xlink" x="0" y="0" viewBox="0 0 285.7 131.5" xml:space="preserve"><style>.st0{fill:#383839}.st1{fill:#fff}.st3{opacity:.8;clip-path:url(#XMLID_226_)}.st4{fill:#7759a6}.st9{fill:#1cbbb4}.st10{clip-path:url(#XMLID_226_)}.st12{fill:#f79846}.st13{fill:#1db3c0}.st14{fill:#bfc84a}.st16{fill:#f5908a}.st17{fill:#f283a8}.st20{fill:#fdba12}.st21{fill:#606eb4}.st23{fill:#51c5cf}</style><g id="XMLID_129_"><g id="XMLID_137_"><path id="XMLID_152_" class="st0" d="M280.9 91.6c0 2.9 2.7 3.3 4 3.3.5 0 .8-.1.8-.1v-2.5h-.4c-.6 0-1.5-.1-1.5-1.1v-2.6h1.8v-2.3h-1.8v-2.5H281v2.5h-1.2v2.3h1.1v3zm-9 2.2s1.3 1.3 3.5 1.3 3.5-1.3 3.5-2.7c0-2.8-4-2.9-4-3.5 0-.3.4-.4.9-.4 1.2 0 2 .7 2 .7l1-2.1s-1-1-3-1-3.6 1-3.6 2.6c0 2.8 4 2.9 4 3.7 0 .3-.4.4-.9.4-1.2 0-2.2-.9-2.2-.9l-1.2 1.9zm-10-2c0 2.4 1.4 3.2 3.1 3.2 1.2 0 2.2-.6 2.7-1.5v1.3h2.8v-8.6h-2.9V90c0 1.3-.6 2.4-1.8 2.4-.6 0-.9-.3-.9-1.1v-5.1H262v5.6zm-7.1 3h2.9v-3.3c0-.5.1-.9.2-1.2.4-1.3 1.5-1.5 2.2-1.5h.6V86h-.3c-1.3 0-2.4 1-2.7 2.1v-2h-2.8v8.7zm-7.3 0h2.9v-9.5h3.6v-2.5h-10.2v2.5h3.6v9.5zm-12-3.2c0 2.9 1.6 3.3 3.2 3.3.5 0 .9-.1.9-.1v-2.5h-.4c-.7 0-.8-.3-.8-1.1v-8.4h-2.9v8.8zm-7 .5c0-.7 1.1-1 2-1h.3v.2c0 .7-.7 1.5-1.4 1.5-.6 0-.9-.3-.9-.7m-2.9.1c0 1.7 1.3 2.8 2.9 2.8 1.8 0 2.4-1.3 2.4-1.3v1h2.6v-5.3c0-2.2-1.5-3.5-3.9-3.5-2.1 0-3.6 1.1-3.6 1.1l1 2s1.2-.8 2.3-.8c.7 0 1.3.2 1.3 1v.2h-.1c-1.2 0-4.9.3-4.9 2.8m-10 2.6h2.9V91c0-.4.1-.8.2-1.1.3-.7.8-1.2 1.7-1.2.6 0 1 .3 1 1.1v5.1h2.9v-5.6c0-2.4-1.4-3.2-3.1-3.2-1.5 0-2.3.8-2.7 1.5v-1.3h-2.8v8.5zm-8.3-4.3c0-1.3.9-2.1 2-2.1s2 .8 2 2.1-.9 2.1-2 2.1-2-.8-2-2.1m-3 0c0 2.7 2.2 4.5 4.9 4.5s4.9-1.8 4.9-4.5-2.2-4.5-4.9-4.5-4.9 1.8-4.9 4.5m-4.4 4.3h2.9v-8.6h-2.9v8.6zm0-9.7h2.8v-2.3h-2.8v2.3zm-6.5 6.5c0 2.9 2.7 3.3 4 3.3.5 0 .8-.1.8-.1v-2.5h-.4c-.6 0-1.5-.1-1.5-1.1v-2.6h1.8v-2.3h-1.8v-2.5h-2.8v2.5h-1.2v2.3h1.1v3zm-7.6.5c0-.7 1.1-1 2-1h.3v.2c0 .7-.7 1.5-1.4 1.5-.6 0-.9-.3-.9-.7m-2.9.1c0 1.7 1.3 2.8 2.9 2.8 1.8 0 2.4-1.3 2.4-1.3v1h2.6v-5.3c0-2.2-1.5-3.5-3.9-3.5-2.1 0-3.6 1.1-3.6 1.1l1 2s1.2-.8 2.3-.8c.7 0 1.3.2 1.3 1v.2h-.1c-1.2 0-4.9.3-4.9 2.8m-9.2-1.7c0 2.4 1.7 4.5 4.8 4.5 2.4 0 3.7-1.4 3.7-1.4l-1.1-2s-1.2 1-2.4 1c-1.5 0-2.2-1.1-2.2-2.1s.7-2.1 2.1-2.1c1.2 0 2 .8 2 .8l1.2-1.9s-1.1-1.3-3.4-1.3c-3 0-4.7 2.2-4.7 4.5m-10 1.3c0 2.4 1.4 3.2 3.1 3.2 1.2 0 2.2-.6 2.7-1.5v1.3h2.8v-8.6h-2.9V90c0 1.3-.6 2.4-1.8 2.4-.6 0-.9-.3-.9-1.1v-5.1h-2.9v5.6zm-8.3-1.3c0-1.3.8-2.1 1.7-2.1 1.1 0 1.7 1 1.7 2.1 0 1.5-.8 2.1-1.7 2.1-1 0-1.7-.8-1.7-2.1m-2.9 0c0 2.7 1.5 4.5 3.9 4.5 1.8 0 2.5-1.3 2.5-1.3v1.1h2.7v-12h-2.9v3.9s-.5-.7-2.3-.7c-2.2 0-3.9 1.8-3.9 4.5m-8.9 4.3h7.7v-2.5h-4.8V90h3.7v-2.5h-3.7v-2.2h4.6v-2.5h-7.5v12z"/><path id="XMLID_138_" class="st0" d="M233.3 76.8h1.6v-4c0-.4 0-.8.1-1.1.4-1.2 1.4-2.1 2.7-2.1 1.4 0 1.6.9 1.6 2.1v5.1h1.6v-5.4c0-2.2-.9-3.3-2.9-3.3-1.8 0-2.8 1.2-3.2 1.9v-1.7h-1.6v8.5zm-9.4-4.2c0-1.8 1.3-3 2.9-3 1.6 0 2.9 1.3 2.9 3 0 1.8-1.3 3-2.9 3-1.6 0-2.9-1.2-2.9-3m-1.7 0c0 2.6 2 4.5 4.6 4.5 2.5 0 4.6-1.9 4.6-4.5s-2-4.4-4.6-4.4c-2.5 0-4.6 1.8-4.6 4.4m-8.3 0c0-1.9 1.1-3 2.4-3 1.6 0 2.4 1.5 2.4 3 0 2.2-1.2 3-2.4 3-1.4 0-2.4-1.2-2.4-3m-1.7 0c0 2.6 1.4 4.4 3.7 4.4 2.1 0 2.8-1.6 2.8-1.6v1.4h1.5V65h-1.6v4.5s-.7-1.3-2.6-1.3c-2.2 0-3.8 1.7-3.8 4.4m-9.5 4.2h1.6v-4c0-.4 0-.8.1-1.1.4-1.2 1.4-2.1 2.7-2.1 1.4 0 1.6.9 1.6 2.1v5.1h1.6v-5.4c0-2.2-.9-3.3-2.9-3.3-1.8 0-2.8 1.2-3.2 1.9v-1.7h-1.6v8.5zm-9.4-4.2c0-1.8 1.3-3 2.9-3 1.6 0 2.9 1.3 2.9 3 0 1.8-1.3 3-2.9 3-1.6 0-2.9-1.2-2.9-3m-1.7 0c0 2.6 2 4.5 4.6 4.5 2.5 0 4.6-1.9 4.6-4.5s-2-4.4-4.6-4.4c-2.5 0-4.6 1.8-4.6 4.4m-7.9 4.2h7v-1.4h-5.3V65h-1.7v11.8zm-16.5 0h1.8l1.7-5.4c.1-.4.2-.9.2-.9s.1.5.2.9l1.8 5.4h1.8l2.7-8.5h-1.7l-1.8 5.9c-.1.4-.2.9-.2.9s-.1-.5-.2-.9l-1.8-5.9h-1.5l-1.8 5.9c-.1.4-.2.9-.2.9s-.1-.5-.2-.9l-1.8-5.9h-1.7l2.7 8.5zm-9.9-5.2c.2-1.4 1.2-2.2 2.5-2.2 1.1 0 2 .7 2 2.2h-4.5zm-1.7 1c0 2.5 1.8 4.4 4.5 4.4 2 0 3.3-1.2 3.3-1.2l-.7-1.2s-1.1 1-2.5 1c-1.5 0-2.8-.9-2.9-2.8h6.2s.1-.5.1-.7c0-2.2-1.3-4-3.7-4-2.5.1-4.3 1.8-4.3 4.5m-11.8 4.2h1.7v-7.7c0-.7-.1-1.7-.1-1.7s.6 1.1 1 1.7l5.3 7.7h1.6V65h-1.7v7.7c0 .7.1 1.7.1 1.7s-.6-1.1-1-1.7l-5.3-7.7h-1.6v11.8z"/></g><g id="XMLID_130_"><path id="XMLID_131_" class="st0" d="M213.4 47.4c0 8.1 6.7 9.1 10 9.1 1.1 0 1.8-.1 1.8-.1V51s-.4.1-1.1.1c-1.7 0-4.8-.6-4.8-4.5v-9.3h5.5v-4.8h-5.5v-6.9h-5.9v6.9h-3.3v4.8h3.1v10.1zm-22.6-6.2c.6-3.1 2.7-5 5.8-5 2.6 0 4.7 1.7 4.8 5h-10.6zm-6.3 2.9c0 6.8 5 12.6 12.9 12.6 6 0 9.7-3.4 9.7-3.4l-2.3-4.3s-3.1 2.6-6.9 2.6c-3.6 0-6.8-2.2-7.2-6.4h16.6s.1-1.6.1-2.3c0-6.4-3.7-11.4-10.7-11.4-7.1.1-12.2 5.2-12.2 12.6m-12 4.6c0 6.9 4.1 7.7 7.4 7.7 1 0 1.9-.1 1.9-.1V51h-.9c-1.6 0-2.5-.7-2.5-3.3v-25h-5.9v26zm-28.6 7.5h6v-11c0-1.1.1-2.2.4-3.2.9-2.9 3.3-4.9 6.5-4.9 3.1 0 3.8 2 3.8 4.9v14.2h5.9V40.7c0-6.4-3-9.2-8.4-9.2-4.9 0-7.5 3-8.5 5h-.1s.1-.8.1-1.7V32h-5.8v24.2z"/></g></g><path id="XMLID_128_" class="st1" d="M87.9 70.8c2.5 0 4.5-2 4.5-4.5s-2-4.5-4.5-4.5-4.5 2-4.5 4.5 2 4.5 4.5 4.5"/><path id="XMLID_127_" class="st1" d="M84.9 35.5c2.1 0 3.9-1.7 3.9-3.9 0-2.1-1.7-3.9-3.9-3.9-2.1 0-3.9 1.7-3.9 3.9s1.8 3.9 3.9 3.9"/><g id="XMLID_124_"><g id="XMLID_125_"><path id="XMLID_126_" class="st1" d="M41.7 44.4c1.7 0 3-1.3 3-3s-1.3-3-3-3-3 1.3-3 3 1.3 3 3 3"/></g></g><g id="XMLID_121_"><g id="XMLID_122_"><path id="XMLID_123_" class="st1" d="M17.3 26.7c.6-3.1 3.6-5.2 6.7-4.6 3.1.6 5.2 3.6 4.6 6.7-.6 3.1-3.6 5.2-6.7 4.6-3.1-.6-5.1-3.6-4.6-6.7"/></g></g><g id="XMLID_118_"><g id="XMLID_119_"><path id="XMLID_120_" class="st1" d="M89.2 64.8c5.8 0 10.4-4.7 10.4-10.4 0-5.8-4.7-10.4-10.4-10.4-5.8 0-10.4 4.7-10.4 10.4s4.7 10.4 10.4 10.4"/></g></g><g id="XMLID_115_"><g id="XMLID_116_"><path id="XMLID_117_" class="st1" d="M65.5 59c5.2 0 9.5-4.2 9.5-9.5 0-5.2-4.2-9.5-9.5-9.5-5.2 0-9.5 4.2-9.5 9.5.1 5.2 4.3 9.5 9.5 9.5"/></g></g><g id="XMLID_112_"><g id="XMLID_113_"><path id="XMLID_114_" class="st1" d="M27.8 58.8c2.4 0 4.3-1.9 4.3-4.3s-1.9-4.3-4.3-4.3-4.3 1.9-4.3 4.3 2 4.3 4.3 4.3"/></g></g><g id="XMLID_109_"><g id="XMLID_110_"><path id="XMLID_111_" class="st1" d="M44.1 69c4.1 0 7.4-3.3 7.4-7.4 0-4.1-3.3-7.4-7.4-7.4-4.1 0-7.4 3.3-7.4 7.4 0 4.1 3.3 7.4 7.4 7.4"/></g></g><g id="XMLID_106_"><g id="XMLID_107_"><path id="XMLID_108_" class="st1" d="M90.5 42.5c.8-4.3 4.9-7.1 9.1-6.3 4.3.8 7.1 4.9 6.3 9.1-.8 4.3-4.9 7.1-9.1 6.3-4.3-.8-7.1-4.9-6.3-9.1"/></g></g><g id="XMLID_96_"><g id="XMLID_103_"><g id="XMLID_104_"><path id="XMLID_105_" class="st1" d="M68.2 76.5c3.2 0 5.7-2.6 5.7-5.7 0-3.2-2.6-5.7-5.7-5.7-3.2 0-5.7 2.6-5.8 5.7 0 3.1 2.6 5.7 5.8 5.7"/></g></g><g id="XMLID_100_"><g id="XMLID_101_"><path id="XMLID_102_" class="st1" d="M112.5 70.8c4.1 0 7.4-3.3 7.4-7.4 0-4.1-3.3-7.4-7.4-7.4-4.1 0-7.4 3.3-7.4 7.4 0 4.1 3.3 7.4 7.4 7.4"/></g></g><g id="XMLID_97_"><g id="XMLID_98_"><path id="XMLID_99_" class="st1" d="M62.4 52C68.2 52 73 47.2 73 41.4s-4.7-10.5-10.5-10.6c-5.8 0-10.5 4.7-10.6 10.5 0 5.9 4.7 10.7 10.5 10.7"/></g></g></g><path id="XMLID_95_" class="st1" d="M123.6 56.5c.4 0 .9 0 1.3-.1v-24c-.4 0-.8-.1-1.3-.1-6.7 0-12.1 5.4-12.1 12.1-.1 6.7 5.4 12.1 12.1 12.1z"/><path id="XMLID_94_" class="st1" d="M124.6 82.1h.2v-22h-.2c-6.1 0-11 4.9-11 11s4.9 11 11 11z"/><path id="XMLID_93_" class="st1" d="M0 59.8c2 1.3 4.3 2 6.9 2 7 0 12.7-5.7 12.7-12.7 0-7-5.7-12.7-12.7-12.7-2.5 0-4.9.7-6.9 2v21.4z"/><path id="XMLID_92_" class="st1" d="M0 77.4c.4.1.7.2 1.1.3 3.3.6 6.4-1.6 7-4.8.6-3.3-1.6-6.4-4.8-7-1.1-.2-2.3-.1-3.3.3v11.2z"/><path id="XMLID_91_" class="st1" d="M0 86.7v8.9l62.4 35.9 62.4-35.9V85.3c-2.3-.9-4.7-1.4-7.3-1.4-2.5 0-5 .5-7.2 1.3.6-1.3.9-2.7.9-4.2 0-5.8-4.7-10.4-10.4-10.4-5.5 0-10 4.2-10.4 9.6-4.4.1-8.4 1.8-11.6 4.4-1.1-.3-2.4-.5-3.6-.5-7 0-12.7 5.7-12.7 12.7 0 .5 0 1 .1 1.4h-.9c-1.9 0-3.8.3-5.5.8-.4-3.1-1.4-6-3-8.5.3 0 .7.1 1 .1 4.3 0 7.8-3.5 7.8-7.8S58.5 75 54.2 75s-7.8 3.5-7.8 7.8c0 .3 0 .7.1 1-1.8-1.1-3.9-2-6-2.5v-1c0-7-5.7-12.7-12.7-12.7-.7 0-1.4.1-2.1.2-.5-2.3-2.4-4.1-4.8-4.5-3.3-.6-6.4 1.6-7 4.8-.5 2.5.7 4.9 2.7 6.2-1 1.8-1.5 3.9-1.5 6.1 0 3.5 1.4 6.6 3.6 8.9-.8 1.1-1.6 2.3-2.2 3.6-.9-2.3-2.5-4.2-4.5-5.6.4-.5.6-1.2.6-1.9 0-1.9-1.5-3.4-3.4-3.4s-3.4 1.5-3.4 3.4h-.1c-2.2-.2-4 .3-5.7 1.3z"/><g id="XMLID_2_"><g id="XMLID_4_"><g id="XMLID_21_"><defs><path id="XMLID_22_" d="M124.8 0L62.4 31.2 0 0v95.6l62.4 35.9 62.4-35.9z"/></defs><clipPath id="XMLID_226_"><use xlink:href="#XMLID_22_" overflow="visible"/></clipPath><path id="XMLID_90_" d="M87.9 70.8c2.5 0 4.5-2 4.5-4.5s-2-4.5-4.5-4.5-4.5 2-4.5 4.5 2 4.5 4.5 4.5" clip-path="url(#XMLID_226_)" fill="#fdba12"/><g id="XMLID_87_" class="st3"><g id="XMLID_88_"><path id="XMLID_89_" class="st4" d="M123.6 56.5c6.7 0 12.1-5.4 12.1-12.1 0-6.7-5.4-12.1-12.1-12.1-6.7 0-12.1 5.4-12.1 12.1-.1 6.7 5.4 12.1 12.1 12.1"/></g></g><path id="XMLID_86_" d="M84.9 35.5c2.1 0 3.9-1.7 3.9-3.9 0-2.1-1.7-3.9-3.9-3.9-2.1 0-3.9 1.7-3.9 3.9s1.8 3.9 3.9 3.9" clip-path="url(#XMLID_226_)" fill="#f04e43"/><g id="XMLID_83_" opacity=".68" clip-path="url(#XMLID_226_)"><g id="XMLID_84_"><path id="XMLID_85_" d="M41.7 44.4c1.7 0 3-1.3 3-3s-1.3-3-3-3-3 1.3-3 3 1.3 3 3 3" fill="#f68d3d"/></g></g><g id="XMLID_80_" opacity=".33" clip-path="url(#XMLID_226_)"><g id="XMLID_81_"><path id="XMLID_82_" class="st9" d="M17.3 26.7c.6-3.1 3.6-5.2 6.7-4.6 3.1.6 5.2 3.6 4.6 6.7-.6 3.1-3.6 5.2-6.7 4.6-3.1-.6-5.1-3.6-4.6-6.7"/></g></g><g id="XMLID_77_" class="st10"><g id="XMLID_78_"><path id="XMLID_79_" d="M117.5 123.8c11 0 19.9-8.9 19.9-19.9S128.5 84 117.5 84c-11 0-19.9 8.9-19.9 19.9 0 11 8.9 19.9 19.9 19.9" fill="#ffc621"/></g></g><g id="XMLID_74_" class="st10"><g id="XMLID_75_"><path id="XMLID_76_" class="st12" d="M35.3 122.5c11.6 0 21-9.4 21-21s-9.4-21-21-21-21 9.4-21 21 9.5 21 21 21"/></g></g><g id="XMLID_71_" class="st10"><g id="XMLID_72_"><path id="XMLID_73_" class="st12" d="M124.6 82.1c6.1 0 11-4.9 11-11s-4.9-11-11-11-11 4.9-11 11 4.9 11 11 11"/></g></g><g id="XMLID_68_" class="st10"><g id="XMLID_69_"><path id="XMLID_70_" class="st13" d="M89.2 64.8c5.8 0 10.4-4.7 10.4-10.4 0-5.8-4.7-10.4-10.4-10.4-5.8 0-10.4 4.7-10.4 10.4s4.7 10.4 10.4 10.4"/></g></g><g id="XMLID_65_" class="st10"><g id="XMLID_66_"><path id="XMLID_67_" class="st13" d="M6.9 61.8c7 0 12.7-5.7 12.7-12.7 0-7-5.7-12.7-12.7-12.7-7 0-12.7 5.7-12.7 12.7-.1 7 5.6 12.7 12.7 12.7"/></g></g><g id="XMLID_62_" class="st10"><g id="XMLID_63_"><path id="XMLID_64_" class="st14" d="M61.6 138.1c11 0 19.9-8.9 19.9-19.9 0-11-8.9-19.9-19.9-19.9-11 0-19.9 8.9-19.9 19.9 0 10.9 8.9 19.9 19.9 19.9"/></g></g><g id="XMLID_59_" class="st10"><g id="XMLID_60_"><path id="XMLID_61_" d="M91.3 120c11 0 19.9-8.9 19.9-19.9 0-11-8.9-19.9-19.9-19.9-11 0-19.9 8.9-19.9 19.9 0 11 8.9 19.9 19.9 19.9" fill="#87cdb3"/></g></g><g id="XMLID_56_" class="st10"><g id="XMLID_57_"><path id="XMLID_58_" class="st16" d="M5.6 108.3c6.4 0 11.5-5.2 11.5-11.5 0-6.4-5.2-11.5-11.5-11.5C-.8 85.2-6 90.4-6 96.8c0 6.3 5.2 11.5 11.6 11.5"/></g></g><g id="XMLID_53_" class="st10"><g id="XMLID_54_"><path id="XMLID_55_" class="st16" d="M100.8 91.5c5.8 0 10.4-4.7 10.4-10.4 0-5.8-4.7-10.4-10.4-10.4-5.8 0-10.4 4.7-10.4 10.4s4.6 10.4 10.4 10.4"/></g></g><g id="XMLID_50_" class="st10"><g id="XMLID_51_"><path id="XMLID_52_" class="st17" d="M65.5 59c5.2 0 9.5-4.2 9.5-9.5 0-5.2-4.2-9.5-9.5-9.5-5.2 0-9.5 4.2-9.5 9.5.1 5.2 4.3 9.5 9.5 9.5"/></g></g><g id="XMLID_47_" class="st10"><g id="XMLID_48_"><path id="XMLID_49_" class="st17" d="M27.6 92.9c7 0 12.7-5.7 12.7-12.7 0-7-5.7-12.7-12.7-12.7-7 0-12.7 5.7-12.7 12.7 0 7 5.7 12.7 12.7 12.7"/></g></g><g id="XMLID_44_" class="st3"><g id="XMLID_45_"><path id="XMLID_46_" d="M27.8 58.8c2.4 0 4.3-1.9 4.3-4.3s-1.9-4.3-4.3-4.3-4.3 1.9-4.3 4.3 2 4.3 4.3 4.3" fill="#f04e43"/></g></g><g id="XMLID_41_" opacity=".34" clip-path="url(#XMLID_226_)"><g id="XMLID_42_"><path id="XMLID_43_" class="st20" d="M44.1 69c4.1 0 7.4-3.3 7.4-7.4 0-4.1-3.3-7.4-7.4-7.4-4.1 0-7.4 3.3-7.4 7.4 0 4.1 3.3 7.4 7.4 7.4"/></g></g><g id="XMLID_38_" class="st3"><g id="XMLID_39_"><path id="XMLID_40_" class="st21" d="M37.6 134.9c3.1 0 5.5-2.5 5.5-5.5 0-3.1-2.5-5.5-5.5-5.5-3.1 0-5.5 2.5-5.5 5.5s2.4 5.5 5.5 5.5"/></g></g><g id="XMLID_35_" class="st3"><g id="XMLID_36_"><path id="XMLID_37_" class="st21" d="M9.1 88.6c1.9 0 3.4-1.5 3.4-3.4s-1.5-3.4-3.4-3.4-3.4 1.5-3.4 3.4 1.5 3.4 3.4 3.4"/></g></g><g id="XMLID_32_" class="st3"><g id="XMLID_33_"><path id="XMLID_34_" class="st4" d="M54.1 90.5c4.3 0 7.8-3.5 7.8-7.8s-3.5-7.8-7.8-7.8-7.8 3.5-7.8 7.8 3.5 7.8 7.8 7.8"/></g></g><g id="XMLID_29_" opacity=".57" clip-path="url(#XMLID_226_)"><g id="XMLID_30_"><path id="XMLID_31_" class="st23" d="M-3.7 70.7c.6-3.3 3.8-5.4 7-4.8 3.3.6 5.4 3.8 4.8 7-.6 3.3-3.8 5.4-7 4.8-3.3-.5-5.4-3.7-4.8-7"/></g></g><g id="XMLID_26_" class="st3"><g id="XMLID_27_"><path id="XMLID_28_" class="st9" d="M75 117.2c1-5.1 5.9-8.5 11-7.6 5.1 1 8.5 5.9 7.6 11-1 5.1-5.9 8.5-11 7.6-5.2-1-8.6-5.9-7.6-11"/></g></g><g id="XMLID_23_" class="st3"><g id="XMLID_24_"><path id="XMLID_25_" class="st23" d="M90.5 42.5c.8-4.3 4.9-7.1 9.1-6.3 4.3.8 7.1 4.9 6.3 9.1-.8 4.3-4.9 7.1-9.1 6.3-4.3-.8-7.1-4.9-6.3-9.1"/></g></g></g><g id="XMLID_5_"><g id="XMLID_18_"><g id="XMLID_19_"><path id="XMLID_20_" class="st12" d="M68.2 76.5c3.2 0 5.7-2.6 5.7-5.8 0-3.2-2.6-5.7-5.7-5.7-3.2 0-5.7 2.6-5.7 5.7-.1 3.2 2.5 5.8 5.7 5.8"/></g></g><g id="XMLID_15_"><g id="XMLID_16_"><path id="XMLID_17_" class="st17" d="M75.2 109.5c7 0 12.7-5.7 12.7-12.7 0-7-5.7-12.7-12.7-12.7-7 0-12.7 5.7-12.7 12.7-.1 7 5.6 12.7 12.7 12.7"/></g></g><g id="XMLID_12_" opacity=".34"><g id="XMLID_13_"><path id="XMLID_14_" class="st20" d="M112.5 70.8c4.1 0 7.4-3.3 7.4-7.4 0-4.1-3.3-7.4-7.4-7.4-4.1 0-7.4 3.3-7.4 7.4 0 4.1 3.3 7.4 7.4 7.4"/></g></g><g id="XMLID_9_" opacity=".8"><g id="XMLID_10_"><path id="XMLID_11_" class="st4" d="M62.4 52C68.2 52 73 47.2 73 41.4s-4.7-10.5-10.5-10.5S52 35.6 52 41.4C51.9 47.2 56.6 52 62.4 52"/></g></g><g id="XMLID_6_" opacity=".57"><g id="XMLID_7_"><path id="XMLID_8_" class="st14" d="M13.7 67.9c.6-3.3 3.8-5.4 7-4.8 3.3.6 5.4 3.8 4.8 7-.6 3.3-3.8 5.4-7 4.8-3.2-.6-5.4-3.7-4.8-7"/></g></g></g></g><path id="XMLID_3_" fill="none" d="M124.8 0L62.4 31.2 0 0v95.6l62.4 35.9 62.4-35.9z"/></g></svg>