<?xml version="1.0" encoding="utf-8"?>
<!-- Generator: Adobe Illustrator 19.0.0, SVG Export Plug-In . SVG Version: 6.00 Build 0)  -->
<svg version="1.1" id="Layer_1" xmlns="http://www.w3.org/2000/svg" xmlns:xlink="http://www.w3.org/1999/xlink" x="0px" y="0px"
	 viewBox="0 0 250.5 22.4" style="enable-background:new 0 0 250.5 22.4;" xml:space="preserve">
<style type="text/css">
	.st0{fill:#18223d;}
</style>
<path id="XMLID_4_" class="st0" d="M243.6,12.4h1c0.8,0,1.3,0,1.6-0.2c0.3-0.1,0.5-0.3,0.7-0.5c0.2-0.2,0.2-0.6,0.2-0.9
	c0-0.6-0.2-1-0.7-1.3c-0.4-0.2-1-0.3-1.9-0.3h-0.9V12.4z M240.6,6.3h3.2c1.7,0,3,0.2,3.7,0.5c0.8,0.3,1.4,0.8,1.8,1.5
	c0.4,0.7,0.7,1.6,0.7,2.6c0,1.1-0.3,2-0.9,2.7c-0.6,0.7-1.4,1.2-2.4,1.5c-0.6,0.2-1.6,0.2-3.2,0.2V22h-3V6.3z M226.1,15.7
	c0,1.9,0.2,3.2,0.5,4c0.4,0.8,1,1.4,1.8,2c0.8,0.5,1.8,0.8,3,0.8c0.9,0,1.6-0.1,2.3-0.4c0.7-0.3,1.2-0.7,1.7-1.3
	c0.5-0.6,0.9-1.2,1-1.8c0.2-0.6,0.3-1.7,0.3-3.3V6.3h-3v9.8c0,1.1-0.1,1.8-0.2,2.1c-0.1,0.4-0.4,0.7-0.8,0.9
	c-0.4,0.2-0.8,0.4-1.4,0.4c-0.5,0-0.9-0.1-1.3-0.3c-0.4-0.2-0.6-0.5-0.8-0.9c-0.2-0.4-0.2-1-0.2-1.9V6.3h-3V15.7z M214.7,8.8
	c-1.5,0-2.7,0.5-3.7,1.5c-1,1-1.5,2.3-1.5,3.9c0,1.7,0.6,3.1,1.9,4.1c1,0.8,2.1,1.2,3.3,1.2c1.4,0,2.6-0.5,3.6-1.5
	c1-1,1.5-2.3,1.5-3.8c0-1.5-0.5-2.8-1.5-3.8C217.4,9.4,216.1,8.8,214.7,8.8 M214.7,5.9c2.2,0,4.1,0.8,5.7,2.4
	c1.6,1.6,2.4,3.6,2.4,5.9c0,2.3-0.8,4.2-2.4,5.8c-1.6,1.6-3.5,2.4-5.8,2.4c-2.4,0-4.3-0.8-5.9-2.5c-1.6-1.6-2.3-3.6-2.3-5.8
	c0-1.5,0.4-2.9,1.1-4.2c0.7-1.3,1.7-2.3,3-3C211.9,6.3,213.3,5.9,214.7,5.9 M197.3,9.2h0.8c0.8,0,1.4,0.1,1.7,0.2
	c0.3,0.1,0.5,0.3,0.7,0.5c0.2,0.3,0.3,0.6,0.3,0.9c0,0.6-0.2,1-0.5,1.2c-0.4,0.2-1,0.4-2,0.4h-0.9V9.2z M194.4,22h3v-6.7h0.3
	l3.6,6.7h3.3l-3.7-7c1-0.4,1.7-0.9,2.2-1.6c0.5-0.7,0.8-1.6,0.8-2.6c0-1-0.2-1.8-0.7-2.6c-0.4-0.7-1-1.2-1.8-1.5
	c-0.7-0.3-2-0.5-3.7-0.5h-3.2V22z M189.8,8.9l-2.1,2.1c-1.3-1.4-2.9-2.1-4.7-2.1c-1.6,0-2.9,0.5-3.9,1.5c-1,1-1.6,2.3-1.6,3.7
	c0,1.5,0.5,2.8,1.6,3.9c1.1,1.1,2.4,1.6,4,1.6c1,0,1.9-0.2,2.6-0.7c0.7-0.4,1.3-1.1,1.7-2H183v-2.8h7.9l0,0.7c0,1.4-0.4,2.7-1.1,3.9
	c-0.7,1.2-1.6,2.2-2.8,2.8c-1.1,0.6-2.5,1-4,1c-1.6,0-3.1-0.4-4.4-1.1c-1.3-0.7-2.3-1.7-3-3c-0.7-1.3-1.1-2.7-1.1-4.2
	c0-2.1,0.7-3.9,2.1-5.4c1.6-1.8,3.8-2.7,6.4-2.7c1.4,0,2.7,0.3,3.8,0.8C187.9,7.1,188.9,7.8,189.8,8.9 M153.8,12.6
	c1.6,0,2.8,0.3,3.5,0.8c0.7,0.5,1,1.3,1,2.2c0,0.8-0.3,1.4-0.9,1.9c-0.6,0.4-1.7,0.6-3.4,0.6h-1v-5.5H153.8z M154,4.4
	c0.9,0,1.6,0.2,2.1,0.6c0.5,0.4,0.7,0.9,0.7,1.6c0,0.7-0.2,1.3-0.7,1.7c-0.5,0.4-1.2,0.6-2.2,0.6H153V4.4H154z M154.9,22
	c1.7,0,3.1-0.2,4.1-0.7c1-0.5,1.8-1.2,2.4-2.2c0.6-1,0.9-2.1,0.9-3.3c0-1.2-0.3-2.3-0.9-3.3c-0.6-0.9-1.6-1.7-2.9-2.3
	c0.8-0.6,1.3-1.2,1.7-1.9c0.3-0.7,0.5-1.4,0.5-2.2c0-1.3-0.4-2.4-1.1-3.3c-0.8-0.9-1.8-1.6-3.1-1.9c-0.9-0.2-2.3-0.4-4.3-0.4h-3.4
	V22H154.9z M129,0.5h4.1v13.9c0,1.2,0.1,2,0.3,2.5c0.2,0.5,0.6,0.9,1,1.2c0.5,0.3,1.1,0.4,1.7,0.4c0.7,0,1.3-0.2,1.9-0.5
	c0.5-0.3,0.9-0.8,1.1-1.3c0.2-0.5,0.3-1.5,0.3-2.9V0.5h4.1v12.8c0,2.2-0.1,3.7-0.4,4.5c-0.2,0.8-0.7,1.6-1.4,2.4
	c-0.7,0.8-1.5,1.4-2.4,1.7c-0.9,0.4-1.9,0.6-3.1,0.6c-1.6,0-2.9-0.4-4.1-1.1c-1.2-0.7-2-1.6-2.5-2.7c-0.5-1.1-0.7-2.9-0.7-5.5V0.5z
	 M118.5,6.1c1.4,1.4,2.1,3.2,2.1,5.2c0,2.1-0.7,3.8-2.1,5.2c-1.4,1.4-3,2.1-5,2.1c-1.7,0-3.2-0.5-4.6-1.6c-1.7-1.4-2.6-3.3-2.6-5.6
	c0-2.1,0.7-3.9,2-5.3c1.4-1.4,3-2.1,5-2.1C115.5,4,117.1,4.7,118.5,6.1 M107.9,1.5c-1.7,1-3.1,2.4-4.1,4.1c-1,1.7-1.5,3.6-1.5,5.7
	c0,3.1,1.1,5.7,3.2,7.9c2.1,2.2,4.8,3.3,8.1,3.3c3.1,0,5.7-1.1,7.9-3.3c2.2-2.2,3.2-4.8,3.2-8c0-3.2-1.1-5.8-3.3-8.1
	c-2.2-2.2-4.8-3.3-7.9-3.3C111.5,0,109.7,0.5,107.9,1.5 M82.4,0.5h4.2v8.1h7.2V0.5h4.1V22h-4.1v-9.4h-7.2V22h-4.2V0.5z M68.7,22
	h10.1v-3.9h-6V0.5h-4.1V22z M54.6,6.2l-2.9,7.4h5.7L54.6,6.2z M52.5,0.5h4.2L64.9,22h-4.3L59,17.6h-8.8L48.5,22h-4.3L52.5,0.5z
	 M25,22h4.2v-9.4h7.2V22h4.1V0.5h-4.1v8.1h-7.2V0.5H25V22z M20.8,4.3L18,7.1C16,5,13.8,4,11.4,4C9.3,4,7.6,4.7,6.2,6.1
	c-1.4,1.4-2.1,3.1-2.1,5.2c0,1.4,0.3,2.7,0.9,3.8c0.6,1.1,1.5,2,2.6,2.6c1.1,0.6,2.4,1,3.8,1c1.2,0,2.3-0.2,3.3-0.7
	c1-0.4,2.1-1.3,3.2-2.4l2.8,2.9c-1.6,1.5-3.1,2.6-4.5,3.2c-1.4,0.6-3,0.9-4.8,0.9c-3.3,0-6.1-1.1-8.2-3.2C1.1,17.3,0,14.6,0,11.3
	c0-2.1,0.5-4.1,1.5-5.7c1-1.7,2.4-3,4.2-4C7.4,0.5,9.4,0,11.5,0c1.8,0,3.5,0.4,5.1,1.1C18.2,1.9,19.6,2.9,20.8,4.3"/>
</svg>
