<?xml version="1.0" encoding="utf-8"?>
<!-- Generator: Adobe Illustrator 19.0.0, SVG Export Plug-In . SVG Version: 6.00 Build 0)  -->
<svg version="1.1" id="Layer_1" xmlns="http://www.w3.org/2000/svg" xmlns:xlink="http://www.w3.org/1999/xlink" x="0px" y="0px"
	 viewBox="0 0 250.7 100" style="enable-background:new 0 0 250.7 100;" xml:space="preserve">
<style type="text/css">
	.st0{fill:#18223d;}
	.st1{fill:#FF2B06;}
</style>
<path id="XMLID_90_" class="st0" d="M28,46.2c2.3,2.2,3.6,4.8,3.9,7.7h-4.4c-0.5-2.2-1.5-3.9-3-5.2c-1.5-1.3-3.6-1.9-6.2-1.9
	c-3.3,0-5.9,1.2-7.9,3.5c-2,2.3-3,5.9-3,10.7c0,3.9,0.9,7.1,2.7,9.6c1.8,2.5,4.5,3.7,8.1,3.7c3.3,0,5.8-1.3,7.5-3.9
	c0.9-1.4,1.6-3.1,2-5.4h4.4c-0.4,3.5-1.7,6.5-3.9,8.9c-2.6,2.9-6.2,4.3-10.7,4.3c-3.9,0-7.1-1.2-9.7-3.6c-3.5-3.1-5.2-8-5.2-14.5
	c0-5,1.3-9,3.9-12.2c2.8-3.5,6.7-5.2,11.6-5.2C22.4,42.9,25.7,44,28,46.2"/>
<path id="XMLID_89_" class="st0" d="M37.6,43.7h4.1v12.6c1-1.2,1.9-2.1,2.6-2.6c1.3-0.9,3-1.3,5-1.3c3.6,0,6,1.2,7.2,3.7
	c0.7,1.4,1,3.2,1,5.7v15.7h-4.2V62c0-1.8-0.2-3.1-0.7-4c-0.7-1.3-2.2-2-4.2-2c-1.7,0-3.3,0.6-4.7,1.8c-1.4,1.2-2.1,3.4-2.1,6.7v13
	h-4.1V43.7z"/>
<path id="XMLID_86_" class="st0" d="M76.8,62.6c0.9-0.1,1.6-0.5,1.9-1.2c0.2-0.4,0.3-0.9,0.3-1.6c0-1.4-0.5-2.4-1.5-3.1
	c-1-0.6-2.4-1-4.3-1c-2.1,0-3.7,0.6-4.6,1.8c-0.5,0.6-0.8,1.6-1,2.9h-3.9c0.1-3,1.1-5.1,2.9-6.3c1.9-1.2,4.1-1.8,6.6-1.8
	c2.9,0,5.2,0.6,7,1.7c1.8,1.1,2.7,2.8,2.7,5.1v14.1c0,0.4,0.1,0.8,0.3,1c0.2,0.3,0.5,0.4,1.1,0.4c0.2,0,0.4,0,0.6,0
	c0.2,0,0.5-0.1,0.7-0.1v3c-0.6,0.2-1.1,0.3-1.5,0.3c-0.3,0-0.8,0.1-1.4,0.1c-1.4,0-2.5-0.5-3.1-1.5c-0.3-0.5-0.6-1.3-0.7-2.3
	c-0.8,1.1-2,2.1-3.6,2.9c-1.6,0.8-3.3,1.2-5.2,1.2c-2.3,0-4.1-0.7-5.6-2.1c-1.4-1.4-2.2-3.1-2.2-5.2c0-2.3,0.7-4,2.1-5.3
	c1.4-1.3,3.3-2,5.6-2.3L76.8,62.6z M68.1,73.7c0.9,0.7,1.9,1,3.1,1c1.5,0,2.9-0.3,4.2-1c2.3-1.1,3.4-2.9,3.4-5.5V65
	c-0.5,0.3-1.2,0.6-1.9,0.8c-0.8,0.2-1.6,0.4-2.3,0.5l-2.5,0.3c-1.5,0.2-2.6,0.5-3.4,0.9c-1.3,0.7-1.9,1.9-1.9,3.4
	C66.8,72.1,67.3,73,68.1,73.7"/>
<rect id="XMLID_85_" x="89.9" y="43.8" class="st0" width="4.1" height="33.7"/>
<path id="XMLID_84_" class="st0" d="M100.2,43.7h4.1v12.6c1-1.2,1.9-2.1,2.6-2.6c1.3-0.9,3-1.3,5-1.3c3.6,0,6,1.2,7.2,3.7
	c0.7,1.4,1,3.2,1,5.7v15.7h-4.2V62c0-1.8-0.2-3.1-0.7-4c-0.7-1.3-2.2-2-4.2-2c-1.7,0-3.3,0.6-4.7,1.8c-1.4,1.2-2.1,3.4-2.1,6.7v13
	h-4.1V43.7z"/>
<path id="XMLID_81_" class="st0" d="M144.1,55.3c2.2,2.1,3.3,5.2,3.3,9.3c0,4-1,7.2-2.9,9.8c-1.9,2.6-4.9,3.9-8.9,3.9
	c-3.4,0-6-1.1-8-3.4c-2-2.3-3-5.3-3-9.2c0-4.1,1-7.4,3.1-9.8c2.1-2.4,4.9-3.7,8.4-3.7C139.2,52.2,141.9,53.2,144.1,55.3 M141.5,71.6
	c1-2.1,1.5-4.4,1.5-6.9c0-2.3-0.4-4.2-1.1-5.6c-1.1-2.3-3.1-3.4-5.9-3.4c-2.5,0-4.3,1-5.4,2.9c-1.1,1.9-1.7,4.2-1.7,7
	c0,2.6,0.6,4.8,1.7,6.5c1.1,1.7,2.9,2.6,5.4,2.6C138.6,74.8,140.5,73.7,141.5,71.6"/>
<path id="XMLID_80_" class="st0" d="M156.5,52.9v16.3c0,1.3,0.2,2.3,0.6,3.1c0.7,1.5,2,2.2,4,2.2c2.8,0,4.7-1.3,5.7-3.8
	c0.6-1.4,0.8-3.3,0.8-5.7V52.9h4.1v24.5h-3.9l0-3.6c-0.5,0.9-1.2,1.7-2,2.4c-1.5,1.3-3.4,1.9-5.6,1.9c-3.4,0-5.8-1.2-7-3.5
	c-0.7-1.3-1-2.9-1-5V52.9H156.5z"/>
<path id="XMLID_77_" class="st0" d="M178.1,43.7h4v12.2c0.9-1.2,2-2.1,3.2-2.7c1.3-0.6,2.6-0.9,4.1-0.9c3.1,0,5.6,1,7.5,3.1
	c1.9,2.1,2.9,5.2,2.9,9.3c0,3.9-0.9,7.1-2.8,9.7c-1.9,2.6-4.5,3.8-7.8,3.8c-1.9,0-3.4-0.5-4.7-1.4c-0.8-0.5-1.6-1.4-2.5-2.6v3.1
	h-3.8V43.7z M193.9,71.9c1.1-1.8,1.7-4.1,1.7-7c0-2.6-0.6-4.7-1.7-6.4c-1.1-1.7-2.7-2.5-4.9-2.5c-1.9,0-3.5,0.7-5,2.1
	s-2.1,3.7-2.1,6.9c0,2.3,0.3,4.2,0.9,5.6c1.1,2.7,3.1,4.1,6.1,4.1C191.1,74.6,192.8,73.7,193.9,71.9"/>
<polygon id="XMLID_76_" class="st1" points="4,93.1 1.6,89.6 3.9,89.6 5.2,91.6 6.5,89.6 8.7,89.6 6.3,93.1 9,97 6.7,97 5.2,94.7 
	3.7,97 1.4,97 "/>
<path id="XMLID_73_" class="st0" d="M18.6,92.6h-7.2v-1.5h7.2V92.6z M18.6,95.7h-7.2v-1.5h7.2V95.7z"/>
<path id="XMLID_70_" class="st0" d="M24.1,88.5h-2v-1.7h2V88.5z M22.1,89.6h2V97h-2V89.6z"/>
<path id="XMLID_69_" class="st0" d="M25.4,89.6h1.9v1h0c0.5-0.8,1.4-1.2,2.2-1.2c2.1,0,2.7,1.2,2.7,3V97h-2v-4.2
	c0-1.2-0.4-1.8-1.3-1.8c-1.1,0-1.6,0.6-1.6,2.1V97h-2V89.6z"/>
<path id="XMLID_66_" class="st0" d="M38.8,96L38.8,96c-0.5,0.8-1.3,1.1-2.3,1.1c-2.2,0-3.3-1.9-3.3-3.9c0-2,1.1-3.8,3.3-3.8
	c0.9,0,1.7,0.4,2.2,1.1h0h0v-3.7h2V97h-1.9V96z M37,91c-1.3,0-1.8,1.1-1.8,2.3c0,1.2,0.5,2.4,1.8,2.4c1.3,0,1.7-1.2,1.7-2.4
	C38.8,92.1,38.3,91,37,91"/>
<path id="XMLID_63_" class="st0" d="M43.6,93.8c0.1,1.3,0.7,1.9,1.8,1.9c0.8,0,1.5-0.5,1.6-1h1.8c-0.6,1.7-1.8,2.5-3.4,2.5
	c-2.3,0-3.8-1.6-3.8-3.9c0-2.2,1.5-3.9,3.8-3.9c2.5,0,3.7,2.1,3.6,4.4H43.6z M46.9,92.5c-0.2-1-0.6-1.6-1.6-1.6
	c-1.3,0-1.6,1-1.7,1.6H46.9z"/>
<path id="XMLID_60_" class="st0" d="M49.8,89.6h1.9v0.9h0c0.5-0.8,1.3-1.1,2.2-1.1c2.3,0,3.3,1.9,3.3,4c0,2-1.1,3.8-3.2,3.8
	c-0.9,0-1.7-0.4-2.2-1.1h0v3.5h-2V89.6z M55.3,93.3c0-1.2-0.5-2.4-1.8-2.4c-1.3,0-1.7,1.2-1.7,2.4c0,1.2,0.5,2.3,1.8,2.3
	C54.9,95.7,55.3,94.5,55.3,93.3"/>
<path id="XMLID_57_" class="st0" d="M59.9,93.8c0.1,1.3,0.7,1.9,1.8,1.9c0.8,0,1.5-0.5,1.6-1h1.8c-0.6,1.7-1.8,2.5-3.4,2.5
	c-2.3,0-3.8-1.6-3.8-3.9c0-2.2,1.5-3.9,3.8-3.9c2.5,0,3.7,2.1,3.6,4.4H59.9z M63.2,92.5c-0.2-1-0.6-1.6-1.6-1.6
	c-1.3,0-1.6,1-1.7,1.6H63.2z"/>
<path id="XMLID_56_" class="st0" d="M66.1,89.6H68v1h0c0.5-0.8,1.4-1.2,2.2-1.2c2.1,0,2.7,1.2,2.7,3V97h-2v-4.2
	c0-1.2-0.4-1.8-1.3-1.8c-1.1,0-1.6,0.6-1.6,2.1V97h-2V89.6z"/>
<path id="XMLID_53_" class="st0" d="M79.5,96L79.5,96c-0.5,0.8-1.3,1.1-2.3,1.1c-2.2,0-3.3-1.9-3.3-3.9c0-2,1.1-3.8,3.3-3.8
	c0.9,0,1.7,0.4,2.2,1.1h0h0v-3.7h2V97h-1.9V96z M77.7,91c-1.3,0-1.8,1.1-1.8,2.3c0,1.2,0.5,2.4,1.8,2.4c1.3,0,1.7-1.2,1.7-2.4
	C79.5,92.1,79.1,91,77.7,91"/>
<path id="XMLID_50_" class="st0" d="M84.3,93.8c0.1,1.3,0.7,1.9,1.8,1.9c0.8,0,1.5-0.5,1.6-1h1.8c-0.6,1.7-1.8,2.5-3.4,2.5
	c-2.3,0-3.8-1.6-3.8-3.9c0-2.2,1.5-3.9,3.8-3.9c2.5,0,3.7,2.1,3.6,4.4H84.3z M87.6,92.5C87.4,91.5,87,91,86,91c-1.3,0-1.6,1-1.7,1.6
	H87.6z"/>
<path id="XMLID_49_" class="st0" d="M90.5,89.6h1.9v1h0c0.5-0.8,1.4-1.2,2.2-1.2c2.1,0,2.7,1.2,2.7,3V97h-2v-4.2
	c0-1.2-0.4-1.8-1.3-1.8c-1.1,0-1.6,0.6-1.6,2.1V97h-2V89.6z"/>
<path id="XMLID_48_" class="st0" d="M101.2,89.6h1.5V91h-1.5v3.6c0,0.7,0.2,0.9,0.9,0.9c0.2,0,0.4,0,0.6-0.1V97
	c-0.3,0.1-0.8,0.1-1.2,0.1c-1.2,0-2.3-0.3-2.3-1.7V91H98v-1.4h1.2v-2.2h2V89.6z"/>
<rect id="XMLID_47_" x="103.5" y="86.8" class="st0" width="2" height="10.2"/>
<path id="XMLID_46_" class="st0" d="M110.4,97.9c-0.4,1.2-1.1,1.7-2.5,1.7c-0.4,0-0.8,0-1.2-0.1v-1.7c0.4,0,0.8,0.1,1.2,0.1
	c0.7-0.1,0.9-0.8,0.7-1.4l-2.6-6.9h2.2l1.7,5h0l1.6-5h2.1L110.4,97.9z"/>
<path id="XMLID_43_" class="st0" d="M121.1,89.4c2.3,0,3.8,1.5,3.8,3.9c0,2.3-1.5,3.9-3.8,3.9c-2.3,0-3.8-1.5-3.8-3.9
	C117.3,91,118.8,89.4,121.1,89.4 M121.1,95.7c1.4,0,1.8-1.2,1.8-2.3c0-1.2-0.4-2.4-1.8-2.4c-1.4,0-1.8,1.2-1.8,2.4
	C119.3,94.5,119.8,95.7,121.1,95.7"/>
<path id="XMLID_42_" class="st0" d="M125.7,89.6h1.9V91h0c0.4-0.9,1.4-1.6,2.3-1.6c0.1,0,0.3,0,0.4,0.1v1.9c-0.2,0-0.5-0.1-0.7-0.1
	c-1.5,0-2,1.1-2,2.4V97h-2V89.6z"/>
<path id="XMLID_39_" class="st0" d="M138,96.5c0,1.2-0.4,3.3-3.8,3.3c-1.4,0-3.1-0.7-3.2-2.4h2c0.2,0.8,0.8,1,1.5,1
	c1.1,0,1.6-0.8,1.6-1.8v-1h0c-0.4,0.8-1.3,1.1-2.2,1.1c-2.2,0-3.1-1.7-3.1-3.7c0-1.9,1.1-3.6,3.2-3.6c1,0,1.7,0.3,2.2,1.2h0v-1h1.9
	V96.5z M136.1,93.2c0-1.2-0.4-2.3-1.7-2.3c-1.1,0-1.6,1-1.6,2.1c0,1.1,0.4,2.2,1.6,2.2C135.5,95.3,136.1,94.3,136.1,93.2"/>
<path id="XMLID_36_" class="st0" d="M139,91.9c0.1-1.9,1.8-2.5,3.5-2.5c1.5,0,3.2,0.3,3.2,2.1v3.8c0,0.7,0.1,1.3,0.3,1.6h-2
	c-0.1-0.2-0.1-0.5-0.1-0.7c-0.6,0.7-1.6,0.9-2.5,0.9c-1.4,0-2.5-0.7-2.5-2.2c0-1.7,1.3-2.1,2.5-2.2c1.2-0.2,2.4-0.1,2.4-1
	c0-0.9-0.6-1-1.3-1c-0.8,0-1.3,0.3-1.3,1.1H139z M143.6,93.4c-0.3,0.3-1.1,0.3-1.7,0.4c-0.6,0.1-1.2,0.3-1.2,1.1
	c0,0.8,0.6,0.9,1.2,0.9c1.6,0,1.6-1.3,1.6-1.7V93.4z"/>
<path id="XMLID_35_" class="st0" d="M146.9,89.6h1.9v1h0c0.5-0.8,1.4-1.2,2.2-1.2c2.1,0,2.7,1.2,2.7,3V97h-2v-4.2
	c0-1.2-0.4-1.8-1.3-1.8c-1.1,0-1.6,0.6-1.6,2.1V97h-2V89.6z"/>
<path id="XMLID_32_" class="st0" d="M156.9,88.5h-2v-1.7h2V88.5z M154.8,89.6h2V97h-2V89.6z"/>
<polygon id="XMLID_31_" class="st0" points="157.7,95.5 161.5,91.2 158,91.2 158,89.6 164.2,89.6 164.2,91.2 160.4,95.5 164.5,95.5 
	164.5,97 157.7,97 "/>
<path id="XMLID_28_" class="st0" d="M166.9,93.8c0.1,1.3,0.7,1.9,1.8,1.9c0.8,0,1.5-0.5,1.6-1h1.8c-0.6,1.7-1.8,2.5-3.4,2.5
	c-2.3,0-3.8-1.6-3.8-3.9c0-2.2,1.5-3.9,3.8-3.9c2.5,0,3.7,2.1,3.6,4.4H166.9z M170.2,92.5c-0.2-1-0.6-1.6-1.6-1.6
	c-1.3,0-1.6,1-1.7,1.6H170.2z"/>
<path id="XMLID_25_" class="st0" d="M178.4,96L178.4,96c-0.5,0.8-1.3,1.1-2.3,1.1c-2.2,0-3.3-1.9-3.3-3.9c0-2,1.1-3.8,3.3-3.8
	c0.9,0,1.7,0.4,2.2,1.1h0h0v-3.7h2V97h-1.9V96z M176.6,91c-1.3,0-1.8,1.1-1.8,2.3c0,1.2,0.5,2.4,1.8,2.4c1.3,0,1.7-1.2,1.7-2.4
	C178.4,92.1,177.9,91,176.6,91"/>
<polygon id="XMLID_24_" class="st0" points="187.7,88.7 184.6,88.7 184.6,86.8 192.9,86.8 192.9,88.7 189.9,88.7 189.9,97 187.7,97 
	"/>
<polygon id="XMLID_23_" class="st0" points="193.8,86.8 201.4,86.8 201.4,88.7 196.1,88.7 196.1,90.9 201,90.9 201,92.6 196.1,92.6 
	196.1,95.1 201.5,95.1 201.5,97 193.8,97 "/>
<path id="XMLID_20_" class="st0" d="M202.5,86.8h4.4c2.6,0,4.6,1.6,4.6,5c0,2.9-1.5,5.1-4.6,5.1h-4.4V86.8z M204.7,95.1h2
	c1.3,0,2.5-0.8,2.5-3c0-2-0.7-3.4-2.9-3.4h-1.6V95.1z"/>
<path id="XMLID_17_" class="st0" d="M217.8,93.8c0.1,1.3,0.7,1.9,1.8,1.9c0.8,0,1.5-0.5,1.6-1h1.8c-0.6,1.7-1.8,2.5-3.4,2.5
	c-2.3,0-3.8-1.6-3.8-3.9c0-2.2,1.5-3.9,3.8-3.9c2.5,0,3.7,2.1,3.6,4.4H217.8z M221.1,92.5c-0.2-1-0.6-1.6-1.6-1.6
	c-1.3,0-1.6,1-1.7,1.6H221.1z"/>
<polygon id="XMLID_16_" class="st0" points="227.8,97 225.6,97 223.1,89.6 225.2,89.6 226.7,94.7 226.8,94.7 228.3,89.6 230.3,89.6 
	"/>
<path id="XMLID_13_" class="st0" d="M232.3,93.8c0.1,1.3,0.7,1.9,1.8,1.9c0.8,0,1.5-0.5,1.6-1h1.8c-0.6,1.7-1.8,2.5-3.4,2.5
	c-2.3,0-3.8-1.6-3.8-3.9c0-2.2,1.5-3.9,3.8-3.9c2.5,0,3.7,2.1,3.6,4.4H232.3z M235.5,92.5c-0.2-1-0.6-1.6-1.6-1.6
	c-1.3,0-1.6,1-1.7,1.6H235.5z"/>
<path id="XMLID_12_" class="st0" d="M238.5,89.6h1.9v1h0c0.5-0.8,1.4-1.2,2.2-1.2c2.1,0,2.7,1.2,2.7,3V97h-2v-4.2
	c0-1.2-0.4-1.8-1.3-1.8c-1.1,0-1.6,0.6-1.6,2.1V97h-2V89.6z"/>
<path id="XMLID_11_" class="st0" d="M249.2,89.6h1.5V91h-1.5v3.6c0,0.7,0.2,0.9,0.9,0.9c0.2,0,0.4,0,0.6-0.1V97
	c-0.3,0.1-0.8,0.1-1.2,0.1c-1.2,0-2.3-0.3-2.3-1.7V91h-1.2v-1.4h1.2v-2.2h2V89.6z"/>
<polygon id="XMLID_10_" class="st1" points="10.1,10 0.6,10 0.6,1.3 30,1.3 30,10 20.5,10 20.5,35.1 10.1,35.1 "/>
<polygon id="XMLID_9_" class="st1" points="31.6,1.3 60.1,1.3 60.1,10 42,10 42,14.2 60.1,14.2 60.1,22.2 42,22.2 42,26.4 
	60.1,26.4 60.1,35.1 31.6,35.1 "/>
<path id="XMLID_6_" class="st1" d="M61.9,1.3H79c11.3,0,15.2,8.3,15.2,16.9c0,10.4-5.5,17-17.3,17H61.9V1.3z M72.3,26.4h4.1
	c6.5,0,7.4-5.3,7.4-8.4c0-2.1-0.7-8-8.2-8h-3.3V26.4z"/>
<polygon id="XMLID_5_" class="st1" points="109.2,22.1 106,16.8 102.9,22.1 95.3,22.1 102.5,11.4 95.5,1.2 103.2,1.2 106,6.3 
	108.9,1.2 116.5,1.2 109.6,11.4 116.8,22.1 "/>
</svg>
