<?xml version="1.0" encoding="utf-8"?>
<!-- Generator: Adobe Illustrator 19.0.0, SVG Export Plug-In . SVG Version: 6.00 Build 0)  -->
<svg version="1.1" id="Layer_1" xmlns="http://www.w3.org/2000/svg" xmlns:xlink="http://www.w3.org/1999/xlink" x="0px" y="0px"
	 viewBox="0 0 379.3 106.7" style="enable-background:new 0 0 379.3 106.7;" xml:space="preserve">
<style type="text/css">
	.st0{fill:#FFFFFF;}
	.st1{fill:#72A3B3;}
	.st2{clip-path:url(#SVGID_2_);fill:none;stroke:#72A3B3;stroke-width:2.716;}
</style>
<g>
	<path class="st0" d="M0,57.4c0-9.5,7.2-18.1,17-18.1c10.1,0,16.8,9.2,16.8,18.2c0,9.5-7.1,18-17,18C6.8,75.5,0,66.6,0,57.4z
		 M17,69.4c6.4,0,9.9-6.1,9.9-12c0-6.2-3.8-11.9-10-11.9c-6.4,0-10,6-10,11.9C7,63.6,10.7,69.4,17,69.4z"/>
	<path class="st0" d="M139.7,45.7h-11.4v29.6h-6.9V45.7H110v-6.1h29.7V45.7z"/>
	<path class="st0" d="M172.6,48.9c-0.9-1-5.3-3.5-9.6-3.5c-3.8,0-5.7,1.5-5.7,4c0,2.9,2.8,3.7,8.1,5.1c7,1.8,11.5,4,11.5,10.6
		c0,7.7-6.2,10.6-13.2,10.6c-5.3,0-10.9-1.7-15-4.6l3.1-6c1.2,1.2,6.6,4.4,12,4.4c3.8,0,5.7-1.3,5.7-3.7c0-3.2-3.7-4.1-9.3-5.6
		c-6.8-1.9-10.1-4.2-10.1-9.7c0-7.3,5.8-11.2,13-11.2c5,0,9.4,1.9,12.5,4L172.6,48.9z"/>
	<path class="st0" d="M189.8,75.3V39.6h6.9v35.7H189.8z"/>
	<path class="st0" d="M211.7,75.3V39.6h13c11.7,0,17.6,7.9,17.6,17.8c0,10.8-6.9,17.9-17.6,17.9H211.7z M224.7,45.7h-6v23.5h6
		c6.8,0,10.6-5.1,10.6-11.8C235.3,50.5,231.4,45.7,224.7,45.7z"/>
	<path class="st0" d="M280.2,69.2v6.1h-24.8V39.6h24.3v6.1h-17.4v8.6h15v5.6h-15v9.3H280.2z"/>
	<path class="st0" d="M326.4,75.3V39.6h6.9v35.7H326.4z"/>
	<path class="st0" d="M355.2,52.4v22.9h-6.9V39.6h5.4L372.3,63V39.6h6.9v35.7h-5.6L355.2,52.4z"/>
</g>
<polygon class="st1" points="311.4,55.7 304.2,55.7 304.2,48.6 300.8,48.6 300.8,55.7 293.6,55.7 293.6,59.2 300.8,59.2 300.8,66.3 
	304.2,66.3 304.2,59.2 311.4,59.2 "/>
<polygon class="st0" points="94.3,59.3 84.8,86.3 75.1,59.3 67.4,59.3 57.9,86.3 48.2,59.3 40.9,59.3 54.9,95 60.8,95 71.3,68.1 
	81.9,95 87.7,95 101.6,59.3 "/>
<g>
	<defs>
		<path id="SVGID_1_" d="M70.3,0.2C50,0.2,33.5,16.6,33.5,36.9s19.2,69.8,39.6,69.8c20.3,0,34-49.6,34-69.8S90.7,0.2,70.3,0.2z"/>
	</defs>
	<clipPath id="SVGID_2_">
		<use xlink:href="#SVGID_1_"  style="overflow:visible;"/>
	</clipPath>
	<path class="st2" d="M37.3,18.1c0,0,8.1,3.5,7.3,11.1"/>
	<path class="st2" d="M68.2,43.9c0,0-5.1,7.2-12.3,4.9"/>
	<path class="st2" d="M55.6,66.6V38.3c0,0-0.3-7.1-3.7-12.5c-3.4-5.5-11.6-16-15.1-14.8"/>
	<path class="st2" d="M33.1,24.7c1.8,2.3,5.4,3.3,5.4,3.3s7.7,2.7,14.8,0"/>
	<polyline class="st2" points="51.8,2.4 54.7,8.3 59.4,20.2 	"/>
	<path class="st2" d="M53.1,28.2c0,0,2.1-6,7.6-8.2c5.5-2.2,6-9,6-13.2c0-4.2-0.3-9.6-0.3-9.6"/>
	<path class="st2" d="M55.7,38.7l6.4-4.4c0,0,0.1-4.6,3.6-7.2"/>
	<path class="st2" d="M32.4,39.1c0,0,3.3-0.8,3.8-0.8c0.5,0,7.5-0.7,12.2,3.8c2.8,2.6,7.1,4.2,7.1,4.2"/>
	<path class="st2" d="M31.2,44.5l4.3,1c0,0,6.1,1.5,11.7-4.3"/>
	<path class="st2" d="M63.2,39.4c0,0-2.9,4.8-1.1,8.9"/>
	<path class="st2" d="M57.3,17.1c0,0-5.3-0.3-9.3-6.4C46,7.5,46,5.4,46,4.7"/>
	<path class="st2" d="M70.9,35.5c-2.4,0.1-5.4-0.1-8.9-1.3"/>
	<path class="st2" d="M45.4,32.9c1.1,2.1,2.1,5,2.4,8.7"/>
	<path class="st2" d="M85,45.9c0,0-1.8-3.7-8.1-4.9"/>
	<path class="st2" d="M73.9,20c0,0,1.1,9,8.6,8.4"/>
	<path class="st2" d="M85.2,67.1V48.5c0,0-0.5-8.9,1.2-12.5c1.7-3.6,10.3-8,13.3-9.3c3-1.3,4.8-1.7,7.5-5.7"/>
	<path class="st2" d="M70.6-2.3C77.1,0.8,84.5,14.4,82,23.6"/>
	<path class="st2" d="M101,9.3c-5.5,1.7-9.6,4.8-9.6,4.8s-8.9,5.8-9.4,10.1c-0.5,4.3,4.6,9.4,3.8,13.6"/>
	<path class="st2" d="M102.9,15.4c0,0-17.3,4.7-13.1,16.9"/>
	<path class="st2" d="M85.2,49.7l6.5-5.4c0,0-1-5.2,6.6-7.3"/>
	<path class="st2" d="M110.1,39.1c0,0-5,3.4-7.6,4.5c-4.9,1.7-10.7,0.5-10.7,0.5"/>
	<path class="st2" d="M74.2,12c1.4,1.6,3.7,3.2,7.3,3.5"/>
	<path class="st2" d="M89.9,14.2c0,0-6.5-3.4-0.3-11.1"/>
	<path class="st2" d="M80.9-2.7c0,0,6,4.2-1.2,11"/>
	<path class="st2" d="M109.9,34.7c0,0-8.8,0.5-11.4-6.7"/>
	<path class="st2" d="M65.5,12.5c0,0-7.5-4.6-5.7-12"/>
</g>
</svg>
