<?xml version="1.0" encoding="utf-8"?>
<!-- Generator: Adobe Illustrator 19.0.0, SVG Export Plug-In . SVG Version: 6.00 Build 0)  -->
<svg version="1.1" id="Layer_1" xmlns="http://www.w3.org/2000/svg" xmlns:xlink="http://www.w3.org/1999/xlink" x="0px" y="0px"
	 viewBox="0 0 379.1 106.7" style="enable-background:new 0 0 379.1 106.7;" xml:space="preserve">
<style type="text/css">
	.st0{fill:#FFFFFF;}
	.st1{fill:#72A3B3;}
	.st2{clip-path:url(#SVGID_2_);fill:none;stroke:#72A3B3;stroke-width:2.716;}
	.st3{clip-path:url(#SVGID_4_);fill:none;stroke:#72A3B3;stroke-width:2.716;}
	.st4{clip-path:url(#SVGID_6_);fill:none;stroke:#72A3B3;stroke-width:2.716;}
	.st5{clip-path:url(#SVGID_8_);fill:none;stroke:#72A3B3;stroke-width:2.716;}
	.st6{clip-path:url(#SVGID_10_);fill:none;stroke:#72A3B3;stroke-width:2.716;}
	.st7{clip-path:url(#SVGID_12_);fill:none;stroke:#72A3B3;stroke-width:2.716;}
	.st8{clip-path:url(#SVGID_14_);fill:none;stroke:#72A3B3;stroke-width:2.716;}
	.st9{clip-path:url(#SVGID_16_);fill:none;stroke:#72A3B3;stroke-width:2.716;}
	.st10{clip-path:url(#SVGID_18_);fill:none;stroke:#72A3B3;stroke-width:2.716;}
	.st11{clip-path:url(#SVGID_20_);fill:none;stroke:#72A3B3;stroke-width:2.716;}
	.st12{clip-path:url(#SVGID_22_);fill:none;stroke:#72A3B3;stroke-width:2.716;}
	.st13{clip-path:url(#SVGID_24_);fill:none;stroke:#72A3B3;stroke-width:2.716;}
	.st14{clip-path:url(#SVGID_26_);fill:none;stroke:#72A3B3;stroke-width:2.716;}
	.st15{clip-path:url(#SVGID_28_);fill:none;stroke:#72A3B3;stroke-width:2.716;}
	.st16{clip-path:url(#SVGID_30_);fill:none;stroke:#72A3B3;stroke-width:2.716;}
	.st17{clip-path:url(#SVGID_32_);fill:none;stroke:#72A3B3;stroke-width:2.716;}
	.st18{clip-path:url(#SVGID_34_);fill:none;stroke:#72A3B3;stroke-width:2.716;}
	.st19{clip-path:url(#SVGID_36_);fill:none;stroke:#72A3B3;stroke-width:2.716;}
	.st20{clip-path:url(#SVGID_38_);fill:none;stroke:#72A3B3;stroke-width:2.716;}
	.st21{clip-path:url(#SVGID_40_);fill:none;stroke:#72A3B3;stroke-width:2.716;}
	.st22{clip-path:url(#SVGID_42_);fill:none;stroke:#72A3B3;stroke-width:2.716;}
	.st23{clip-path:url(#SVGID_44_);fill:none;stroke:#72A3B3;stroke-width:2.716;}
	.st24{clip-path:url(#SVGID_46_);fill:none;stroke:#72A3B3;stroke-width:2.716;}
	.st25{clip-path:url(#SVGID_48_);fill:none;stroke:#72A3B3;stroke-width:2.716;}
	.st26{clip-path:url(#SVGID_50_);fill:none;stroke:#72A3B3;stroke-width:2.716;}
	.st27{clip-path:url(#SVGID_52_);fill:none;stroke:#72A3B3;stroke-width:2.716;}
</style>
<g>
	<path class="st0" d="M-0.2,57.9c0-9.5,7.2-18.1,17-18.1c10.1,0,16.8,9.2,16.8,18.2c0,9.5-7.1,18-17,18C6.6,76-0.2,67.1-0.2,57.9z
		 M16.8,69.9c6.4,0,9.9-6.1,9.9-12c0-6.2-3.8-11.9-10-11.9c-6.4,0-10,6-10,11.9C6.8,64.1,10.6,69.9,16.8,69.9z"/>
	<path class="st0" d="M139.5,46.1h-11.4v29.6h-6.9V46.1h-11.4V40h29.7V46.1z"/>
	<path class="st0" d="M172.5,49.4c-0.9-1-5.3-3.5-9.6-3.5c-3.8,0-5.7,1.5-5.7,4c0,2.9,2.8,3.7,8.1,5.1c7,1.8,11.5,4,11.5,10.6
		c0,7.7-6.2,10.6-13.2,10.6c-5.3,0-10.9-1.7-15-4.6l3.1-6c1.2,1.2,6.6,4.4,12,4.4c3.8,0,5.7-1.3,5.7-3.7c0-3.2-3.7-4.1-9.3-5.6
		c-6.8-1.9-10.1-4.2-10.1-9.7c0-7.3,5.8-11.2,13-11.2c5,0,9.4,1.9,12.5,4L172.5,49.4z"/>
	<path class="st0" d="M189.6,75.8V40.1h6.9v35.7H189.6z"/>
	<path class="st0" d="M211.6,75.8V40.1h13c11.7,0,17.6,7.9,17.6,17.8c0,10.8-6.9,17.9-17.6,17.9H211.6z M224.5,46.1h-6v23.5h6
		c6.8,0,10.6-5.1,10.6-11.8C235.1,51,231.3,46.1,224.5,46.1z"/>
	<path class="st0" d="M280,69.7v6.1h-24.8V40.1h24.3v6.1h-17.4v8.6h15v5.6h-15v9.3L280,69.7L280,69.7z"/>
	<path class="st0" d="M326.2,75.8V40.1h6.9v35.7H326.2z"/>
	<path class="st0" d="M355.1,52.9v22.9h-6.9V40.1h5.4l18.6,23.4V40.1h6.9v35.7h-5.6L355.1,52.9z"/>
</g>
<polygon class="st0" points="94,59.6 80.5,83.8 73.8,71.7 80.5,59.6 73.7,59.6 70.4,65.5 67.1,59.6 60.3,59.6 66.9,71.7 60.3,83.7 
	47,59.6 40.1,59.6 60.2,96 70.3,77.9 80.4,96.2 100.8,59.6 "/>
<polygon class="st1" points="311.2,56.2 304.1,56.2 304.1,49.1 300.6,49.1 300.6,56.2 293.4,56.2 293.4,59.7 300.6,59.7 300.6,66.8 
	304.1,66.8 304.1,59.7 311.2,59.7 "/>
<g>
	<g>
		<defs>
			<path id="SVGID_1_" d="M70.2,0.2c-20.3,0-36.8,16.4-36.8,36.7s19.2,69.8,39.6,69.8c20.3,0,34-49.6,34-69.8S90.5,0.2,70.2,0.2z"/>
		</defs>
		<clipPath id="SVGID_2_">
			<use xlink:href="#SVGID_1_"  style="overflow:visible;"/>
		</clipPath>
		<path class="st2" d="M37.2,18.1c0,0,8.1,3.5,7.3,11.1"/>
	</g>
	<g>
		<defs>
			<path id="SVGID_3_" d="M70.2,0.2c-20.3,0-36.8,16.4-36.8,36.7s19.2,69.8,39.6,69.8c20.3,0,34-49.6,34-69.8S90.5,0.2,70.2,0.2z"/>
		</defs>
		<clipPath id="SVGID_4_">
			<use xlink:href="#SVGID_3_"  style="overflow:visible;"/>
		</clipPath>
		<path class="st3" d="M68,43.9c0,0-5.1,7.2-12.3,4.9"/>
	</g>
	<g>
		<defs>
			<path id="SVGID_5_" d="M70.2,0.2c-20.3,0-36.8,16.4-36.8,36.7s19.2,69.8,39.6,69.8c20.3,0,34-49.6,34-69.8S90.5,0.2,70.2,0.2z"/>
		</defs>
		<clipPath id="SVGID_6_">
			<use xlink:href="#SVGID_5_"  style="overflow:visible;"/>
		</clipPath>
		<path class="st4" d="M55.4,66.6V38.3c0,0-0.3-7.1-3.7-12.5c-3.4-5.5-11.6-16-15.1-14.8"/>
	</g>
	<g>
		<defs>
			<path id="SVGID_7_" d="M70.2,0.2c-20.3,0-36.8,16.4-36.8,36.7s19.2,69.8,39.6,69.8c20.3,0,34-49.6,34-69.8S90.5,0.2,70.2,0.2z"/>
		</defs>
		<clipPath id="SVGID_8_">
			<use xlink:href="#SVGID_7_"  style="overflow:visible;"/>
		</clipPath>
		<path class="st5" d="M32.9,24.7c1.8,2.3,5.4,3.3,5.4,3.3s7.7,2.7,14.8,0"/>
	</g>
	<g>
		<defs>
			<path id="SVGID_9_" d="M70.2,0.2c-20.3,0-36.8,16.4-36.8,36.7s19.2,69.8,39.6,69.8c20.3,0,34-49.6,34-69.8S90.5,0.2,70.2,0.2z"/>
		</defs>
		<clipPath id="SVGID_10_">
			<use xlink:href="#SVGID_9_"  style="overflow:visible;"/>
		</clipPath>
		<polyline class="st6" points="51.6,2.4 54.5,8.3 59.3,20.2 		"/>
	</g>
	<g>
		<defs>
			<path id="SVGID_11_" d="M70.2,0.2c-20.3,0-36.8,16.4-36.8,36.7s19.2,69.8,39.6,69.8c20.3,0,34-49.6,34-69.8S90.5,0.2,70.2,0.2z"
				/>
		</defs>
		<clipPath id="SVGID_12_">
			<use xlink:href="#SVGID_11_"  style="overflow:visible;"/>
		</clipPath>
		<path class="st7" d="M52.9,28.2c0,0,2.1-6,7.6-8.2s6-9,6-13.2s-0.3-9.6-0.3-9.6"/>
	</g>
	<g>
		<defs>
			<path id="SVGID_13_" d="M70.2,0.2c-20.3,0-36.8,16.4-36.8,36.7s19.2,69.8,39.6,69.8c20.3,0,34-49.6,34-69.8S90.5,0.2,70.2,0.2z"
				/>
		</defs>
		<clipPath id="SVGID_14_">
			<use xlink:href="#SVGID_13_"  style="overflow:visible;"/>
		</clipPath>
		<path class="st8" d="M55.6,38.7l6.4-4.4c0,0,0.1-4.6,3.6-7.2"/>
	</g>
	<g>
		<defs>
			<path id="SVGID_15_" d="M70.2,0.2c-20.3,0-36.8,16.4-36.8,36.7s19.2,69.8,39.6,69.8c20.3,0,34-49.6,34-69.8S90.5,0.2,70.2,0.2z"
				/>
		</defs>
		<clipPath id="SVGID_16_">
			<use xlink:href="#SVGID_15_"  style="overflow:visible;"/>
		</clipPath>
		<path class="st9" d="M32.2,39.1c0,0,3.3-0.8,3.8-0.8s7.5-0.7,12.2,3.8c2.8,2.6,7.1,4.2,7.1,4.2"/>
	</g>
	<g>
		<defs>
			<path id="SVGID_17_" d="M70.2,0.2c-20.3,0-36.8,16.4-36.8,36.7s19.2,69.8,39.6,69.8c20.3,0,34-49.6,34-69.8S90.5,0.2,70.2,0.2z"
				/>
		</defs>
		<clipPath id="SVGID_18_">
			<use xlink:href="#SVGID_17_"  style="overflow:visible;"/>
		</clipPath>
		<path class="st10" d="M31.1,44.5l4.3,1c0,0,6.1,1.5,11.7-4.3"/>
	</g>
	<g>
		<defs>
			<path id="SVGID_19_" d="M70.2,0.2c-20.3,0-36.8,16.4-36.8,36.7s19.2,69.8,39.6,69.8c20.3,0,34-49.6,34-69.8S90.5,0.2,70.2,0.2z"
				/>
		</defs>
		<clipPath id="SVGID_20_">
			<use xlink:href="#SVGID_19_"  style="overflow:visible;"/>
		</clipPath>
		<path class="st11" d="M63.1,39.4c0,0-2.9,4.8-1.1,8.9"/>
	</g>
	<g>
		<defs>
			<path id="SVGID_21_" d="M70.2,0.2c-20.3,0-36.8,16.4-36.8,36.7s19.2,69.8,39.6,69.8c20.3,0,34-49.6,34-69.8S90.5,0.2,70.2,0.2z"
				/>
		</defs>
		<clipPath id="SVGID_22_">
			<use xlink:href="#SVGID_21_"  style="overflow:visible;"/>
		</clipPath>
		<path class="st12" d="M57.2,17.1c0,0-5.3-0.3-9.3-6.4c-2.1-3.2-2.1-5.3-2.1-6"/>
	</g>
	<g>
		<defs>
			<path id="SVGID_23_" d="M70.2,0.2c-20.3,0-36.8,16.4-36.8,36.7s19.2,69.8,39.6,69.8c20.3,0,34-49.6,34-69.8S90.5,0.2,70.2,0.2z"
				/>
		</defs>
		<clipPath id="SVGID_24_">
			<use xlink:href="#SVGID_23_"  style="overflow:visible;"/>
		</clipPath>
		<path class="st13" d="M70.7,35.5c-2.4,0.1-5.4-0.1-8.9-1.3"/>
	</g>
	<g>
		<defs>
			<path id="SVGID_25_" d="M70.2,0.2c-20.3,0-36.8,16.4-36.8,36.7s19.2,69.8,39.6,69.8c20.3,0,34-49.6,34-69.8S90.5,0.2,70.2,0.2z"
				/>
		</defs>
		<clipPath id="SVGID_26_">
			<use xlink:href="#SVGID_25_"  style="overflow:visible;"/>
		</clipPath>
		<path class="st14" d="M45.2,32.9c1.1,2.1,2.1,5,2.4,8.7"/>
	</g>
	<g>
		<defs>
			<path id="SVGID_27_" d="M70.2,0.2c-20.3,0-36.8,16.4-36.8,36.7s19.2,69.8,39.6,69.8c20.3,0,34-49.6,34-69.8S90.5,0.2,70.2,0.2z"
				/>
		</defs>
		<clipPath id="SVGID_28_">
			<use xlink:href="#SVGID_27_"  style="overflow:visible;"/>
		</clipPath>
		<path class="st15" d="M84.8,45.9c0,0-1.8-3.7-8.1-4.9"/>
	</g>
	<g>
		<defs>
			<path id="SVGID_29_" d="M70.2,0.2c-20.3,0-36.8,16.4-36.8,36.7s19.2,69.8,39.6,69.8c20.3,0,34-49.6,34-69.8S90.5,0.2,70.2,0.2z"
				/>
		</defs>
		<clipPath id="SVGID_30_">
			<use xlink:href="#SVGID_29_"  style="overflow:visible;"/>
		</clipPath>
		<path class="st16" d="M73.7,20c0,0,1.1,9,8.6,8.4"/>
	</g>
	<g>
		<defs>
			<path id="SVGID_31_" d="M70.2,0.2c-20.3,0-36.8,16.4-36.8,36.7s19.2,69.8,39.6,69.8c20.3,0,34-49.6,34-69.8S90.5,0.2,70.2,0.2z"
				/>
		</defs>
		<clipPath id="SVGID_32_">
			<use xlink:href="#SVGID_31_"  style="overflow:visible;"/>
		</clipPath>
		<path class="st17" d="M85,67.1V48.5c0,0-0.5-8.9,1.2-12.5s10.3-8,13.3-9.3s4.8-1.7,7.5-5.7"/>
	</g>
	<g>
		<defs>
			<path id="SVGID_33_" d="M70.2,0.2c-20.3,0-36.8,16.4-36.8,36.7s19.2,69.8,39.6,69.8c20.3,0,34-49.6,34-69.8S90.5,0.2,70.2,0.2z"
				/>
		</defs>
		<clipPath id="SVGID_34_">
			<use xlink:href="#SVGID_33_"  style="overflow:visible;"/>
		</clipPath>
		<path class="st18" d="M70.4-2.3c6.5,3.1,13.9,16.7,11.4,25.9"/>
	</g>
	<g>
		<defs>
			<path id="SVGID_35_" d="M70.2,0.2c-20.3,0-36.8,16.4-36.8,36.7s19.2,69.8,39.6,69.8c20.3,0,34-49.6,34-69.8S90.5,0.2,70.2,0.2z"
				/>
		</defs>
		<clipPath id="SVGID_36_">
			<use xlink:href="#SVGID_35_"  style="overflow:visible;"/>
		</clipPath>
		<path class="st19" d="M100.8,9.3c-5.5,1.7-9.6,4.8-9.6,4.8s-8.9,5.8-9.4,10.1c-0.5,4.3,4.6,9.4,3.8,13.6"/>
	</g>
	<g>
		<defs>
			<path id="SVGID_37_" d="M70.2,0.2c-20.3,0-36.8,16.4-36.8,36.7s19.2,69.8,39.6,69.8c20.3,0,34-49.6,34-69.8S90.5,0.2,70.2,0.2z"
				/>
		</defs>
		<clipPath id="SVGID_38_">
			<use xlink:href="#SVGID_37_"  style="overflow:visible;"/>
		</clipPath>
		<path class="st20" d="M102.8,15.4c0,0-17.3,4.7-13.1,16.9"/>
	</g>
	<g>
		<defs>
			<path id="SVGID_39_" d="M70.2,0.2c-20.3,0-36.8,16.4-36.8,36.7s19.2,69.8,39.6,69.8c20.3,0,34-49.6,34-69.8S90.5,0.2,70.2,0.2z"
				/>
		</defs>
		<clipPath id="SVGID_40_">
			<use xlink:href="#SVGID_39_"  style="overflow:visible;"/>
		</clipPath>
		<path class="st21" d="M85,49.7l6.5-5.4c0,0-1-5.2,6.6-7.3"/>
	</g>
	<g>
		<defs>
			<path id="SVGID_41_" d="M70.2,0.2c-20.3,0-36.8,16.4-36.8,36.7s19.2,69.8,39.6,69.8c20.3,0,34-49.6,34-69.8S90.5,0.2,70.2,0.2z"
				/>
		</defs>
		<clipPath id="SVGID_42_">
			<use xlink:href="#SVGID_41_"  style="overflow:visible;"/>
		</clipPath>
		<path class="st22" d="M109.9,39.1c0,0-5,3.4-7.6,4.5c-4.9,1.7-10.7,0.5-10.7,0.5"/>
	</g>
	<g>
		<defs>
			<path id="SVGID_43_" d="M70.2,0.2c-20.3,0-36.8,16.4-36.8,36.7s19.2,69.8,39.6,69.8c20.3,0,34-49.6,34-69.8S90.5,0.2,70.2,0.2z"
				/>
		</defs>
		<clipPath id="SVGID_44_">
			<use xlink:href="#SVGID_43_"  style="overflow:visible;"/>
		</clipPath>
		<path class="st23" d="M74.1,12c1.4,1.6,3.7,3.2,7.3,3.5"/>
	</g>
	<g>
		<defs>
			<path id="SVGID_45_" d="M70.2,0.2c-20.3,0-36.8,16.4-36.8,36.7s19.2,69.8,39.6,69.8c20.3,0,34-49.6,34-69.8S90.5,0.2,70.2,0.2z"
				/>
		</defs>
		<clipPath id="SVGID_46_">
			<use xlink:href="#SVGID_45_"  style="overflow:visible;"/>
		</clipPath>
		<path class="st24" d="M89.8,14.2c0,0-6.5-3.4-0.3-11.1"/>
	</g>
	<g>
		<defs>
			<path id="SVGID_47_" d="M70.2,0.2c-20.3,0-36.8,16.4-36.8,36.7s19.2,69.8,39.6,69.8c20.3,0,34-49.6,34-69.8S90.5,0.2,70.2,0.2z"
				/>
		</defs>
		<clipPath id="SVGID_48_">
			<use xlink:href="#SVGID_47_"  style="overflow:visible;"/>
		</clipPath>
		<path class="st25" d="M80.8-2.7c0,0,6,4.2-1.2,11"/>
	</g>
	<g>
		<defs>
			<path id="SVGID_49_" d="M70.2,0.2c-20.3,0-36.8,16.4-36.8,36.7s19.2,69.8,39.6,69.8c20.3,0,34-49.6,34-69.8S90.5,0.2,70.2,0.2z"
				/>
		</defs>
		<clipPath id="SVGID_50_">
			<use xlink:href="#SVGID_49_"  style="overflow:visible;"/>
		</clipPath>
		<path class="st26" d="M109.7,34.7c0,0-8.8,0.5-11.4-6.7"/>
	</g>
	<g>
		<defs>
			<path id="SVGID_51_" d="M70.2,0.2c-20.3,0-36.8,16.4-36.8,36.7s19.2,69.8,39.6,69.8c20.3,0,34-49.6,34-69.8S90.5,0.2,70.2,0.2z"
				/>
		</defs>
		<clipPath id="SVGID_52_">
			<use xlink:href="#SVGID_51_"  style="overflow:visible;"/>
		</clipPath>
		<path class="st27" d="M65.3,12.5c0,0-7.5-4.6-5.7-12"/>
	</g>
</g>
</svg>
