<?xml version="1.0" encoding="utf-8"?>
<!-- Generator: Adobe Illustrator 19.0.0, SVG Export Plug-In . SVG Version: 6.00 Build 0)  -->
<svg version="1.1" id="Layer_1" xmlns="http://www.w3.org/2000/svg" xmlns:xlink="http://www.w3.org/1999/xlink" x="0px" y="0px"
	 viewBox="-262.5 333.3 126.2 126.7" style="enable-background:new -262.5 333.3 126.2 126.7;" xml:space="preserve">
<style type="text/css">
	.st0{clip-path:url(#SVGID_2_);fill:#414042;}
	.st1{fill:#FFFFFF;}
	.st2{fill:#78A4B6;}
</style>
<g>
	<g>
		<defs>
			<rect id="SVGID_1_" x="-252" y="333.3" width="105.2" height="126.7"/>
		</defs>
		<clipPath id="SVGID_2_">
			<use xlink:href="#SVGID_1_"  style="overflow:visible;"/>
		</clipPath>
		<path class="st0" d="M-146.8,385.9c0-29-23.5-52.6-52.6-52.6s-52.6,23.5-52.6,52.6c0,16.1,7.3,30.6,18.7,40.2l33.9,33.9l33.9-33.9
			C-154.1,416.4-146.8,402-146.8,385.9"/>
	</g>
</g>
<polygon id="XMLID_55_" class="st1" points="-180,395.3 -191.3,415.7 -197,405.5 -191.3,395.3 -197.1,395.3 -199.8,400.2 
	-202.6,395.3 -208.4,395.3 -202.8,405.4 -208.4,415.5 -219.6,395.3 -225.3,395.3 -208.4,426 -199.9,410.7 -191.4,426.1 
	-174.2,395.3 "/>
<g id="XMLID_57_">
	<path id="XMLID_54_" class="st2" d="M-169.1,378.4c-1.4,0.9-3.1,2-4.2,2.4c-2.8,0.9-6,0.7-7.5,0.5c0.2-1.1,1.1-2.9,4.7-3.9
		l-0.6-2.2c-5.7,1.6-6.4,5.1-6.4,6.7l-3.2,2.7c-0.1-2.6,0-6.8,0.9-8.7s5.1-4.5,8.3-6.2c1.8,4,5.6,5.2,8.1,5.6c0-0.8-0.1-1.6-0.1-2.4
		c-2-0.4-4.7-1.4-5.9-4.2c0.1,0,0.1-0.1,0.2-0.1l0.7-0.3c1.3-0.5,2.4-1,3.5-2c-0.3-0.8-0.5-1.6-0.9-2.3c-1.1,1.1-2.1,1.6-3.6,2.2
		l-0.7,0.3c-0.1,0-3.8,1.7-7.1,3.9c-0.3-1.6,0-3,0.7-4.4c1.8-3.4,6.1-5.4,8.4-6.3c-0.4-0.7-0.9-1.3-1.3-1.9
		c-2.7,1.1-7.1,3.4-9.1,7.2c-1.1,2.2-1.3,4.5-0.7,7c-0.6,0.5-1.1,0.9-1.5,1.4c-0.3-0.9-0.7-1.8-1.2-2.6c-0.8-1.8-1.7-3.6-1.5-5
		c0.3-2.3,4.7-5.9,7.5-7.7c0,0,1.8-1.3,4.5-2.6c-0.5-0.6-1.1-1.2-1.7-1.7c-2.5,1.2-4,2.4-4.1,2.4c0,0,0,0-0.1,0v-0.1
		c0,0-1.5-0.8-1.8-2.4c-0.2-1.1,0.1-2.4,1-3.8c-0.6-0.4-1.3-0.8-2-1.1c-1.1,1.9-1.6,3.7-1.2,5.3c0.3,1.7,1.4,2.8,2.1,3.4
		c-1.1,0.8-2.5,2-3.7,3.3c-0.2-2.7-0.9-5.6-2.1-8.3c1.5-1.6,2.4-3.2,2.7-4.7c-0.7-0.3-1.5-0.6-2.2-0.8c-0.1,1.1-0.6,2.2-1.6,3.3
		c-0.9-1.7-2-3.2-3.1-4.5c-1.2-0.2-2.4-0.3-3.7-0.4c2.8,2.3,5.7,6.9,7,11.6c-1.7-0.3-3.2-1.1-4.3-2.4l-1.7,1.5
		c1.2,1.3,3.2,2.9,6.5,3.3c0.3,1.9,0.3,3.8-0.2,5.5l0,0c-0.1,0.2-0.1,0.4-0.1,0.6c-0.1,0.8,0,1.6,0.2,2.5c-4-0.7-4.7-5.8-4.8-6
		l-2.3,0.3c0.3,2.9,2.4,8.1,7.9,8.1l0,0c0.2,0.5,0.4,1,0.7,1.4c0.9,1.9,1.7,3.6,1.5,5.1l0,0c-0.3,1.3-0.5,2.9-0.5,4.3
		c-1.2-1-3-2-5.7-2.5l-0.4,2.2c4.6,0.9,6,3.4,6.1,3.6l0,0c0,0.8,0.1,1.4,0.1,1.6v15.6h2.3v-14.1l4.8-4c0.7,0.1,2,0.3,3.4,0.3
		c1.7,0,3.7-0.2,5.6-0.8c0.9-0.4,2.1-1,3.2-1.7C-169.2,380.3-169.1,379.3-169.1,378.4z"/>
	<path id="XMLID_53_" class="st2" d="M-205.7,373.2c0.2-1.1,0.8-3.1,2.5-4.4l-1.4-1.8c-2.7,2-3.3,5.1-3.5,6.4l-3.5,2.4
		c-0.2-1.6-0.7-4.3-1.8-7c0.5-1.2,2.3-4.4,5.6-5.8c5.8-2.3,5.8-9.7,5.8-12.2c0-1.8-0.1-3.9-0.1-5.5c-0.8,0-1.5,0.1-2.3,0.2
		c0.1,1.6,0.1,3.5,0.1,5.3c0,1.2-0.1,2.2-0.2,3.2c-1.5-1.2-4.2-4-3.5-7.8c-0.8,0.2-1.6,0.5-2.4,0.7c-0.3,5.4,4.3,8.8,5.3,9.5
		c-0.7,2.2-1.9,3.6-3.6,4.4l-3.7-9.2l-1.6-3.2c-0.7,0.3-1.4,0.7-2,1.1l1.5,3l2.2,5.6c-1.4-0.4-3.8-1.5-5.8-4.6
		c-0.5-0.7-0.8-1.3-1-1.9c-0.6,0.5-1.2,1-1.8,1.5c0.2,0.5,0.5,1.1,0.9,1.6c3.6,5.6,8.5,5.9,8.7,5.9l0,0l0.5,1.3
		c-1.9,1.3-3.2,3-4,4.3v-0.1c-0.1-0.1-4.3-6.8-8.5-10.6c-0.5,0.6-1,1.2-1.5,1.8c2.4,2.2,5.6,6.1,8.1,10.1c0.1,0.2,0.2,0.4,0.3,0.6
		c-1.5,0.4-3,0.5-4.3,0.5c-0.1-4.7-3.9-7.5-5.8-8.6c-0.4,0.6-0.8,1.3-1.1,2c1.5,0.9,4.4,3,4.6,6.5c-2.2-0.3-3.7-0.8-3.7-0.8
		s-1.5-0.4-2.8-1.3c-0.3,0.7-0.5,1.5-0.7,2.3c1.4,0.8,2.8,1.2,2.8,1.2c0.2,0.1,3.1,1.1,6.9,1.1c1.6,0,3.4-0.2,5.1-0.7
		c1.4,3.7,1.6,7.3,1.6,7.3v5c-1.2-0.6-2.9-1.5-4.1-2.6c-0.1-0.1-0.2-0.1-0.2-0.2c-0.3-2.6-1-5-2.1-7.2l-2,1c0.7,1.4,1.2,2.9,1.5,4.4
		c-2.3-1.2-5.1-1.7-8.2-1.6h-0.1c-0.3,0-1.2,0.2-2.2,0.4c0,0.7,0.1,1.5,0.1,2.3c1-0.2,1.9-0.4,2.1-0.4c0,0,0.1,0,0.2,0
		c2.8-0.1,5.3,0.4,7.3,1.5c-3.8,3.2-7.6,2.4-7.8,2.3l-1.5-0.3c0.1,0.8,0.2,1.6,0.4,2.4l0.6,0.1c0.1,0,0.8,0.2,1.9,0.2
		c2,0,5.2-0.5,8.3-3.4c0,0,0.1,0,0.1,0.1c1.9,1.8,4.5,3,5.7,3.5v16.3h2.3v-13.6c0.5,0.1,1.1,0.1,1.6,0.1c5.3,0,8.7-4.8,8.8-5
		l-1.9-1.3c0,0-1.3,1.8-3.4,3c-0.6-2.7,1.1-5.5,1.1-5.5l-2-1.2c-0.1,0.2-2.3,3.9-1.3,7.6c-0.9,0.2-1.9,0.2-3,0v-6.9l4.6-3.1
		c2,0.6,4.1,1,6.1,1c0.4,0,0.7,0,1.1,0l-0.1-2.3C-201.6,374.1-203.7,373.8-205.7,373.2z"/>
</g>
</svg>
