<?xml version="1.0" encoding="utf-8"?>
<!-- Generator: Adobe Illustrator 19.0.0, SVG Export Plug-In . SVG Version: 6.00 Build 0)  -->
<svg version="1.1" id="Layer_1" xmlns="http://www.w3.org/2000/svg" xmlns:xlink="http://www.w3.org/1999/xlink" x="0px" y="0px"
	 viewBox="0 0 191 14.1" style="enable-background:new 0 0 191 14.1;" xml:space="preserve">
<style type="text/css">
	.st0{clip-path:url(#SVGID_2_);fill:#414042;}
</style>
<g>
	<defs>
		<rect id="SVGID_1_" width="191" height="14.1"/>
	</defs>
	<clipPath id="SVGID_2_">
		<use xlink:href="#SVGID_1_"  style="overflow:visible;"/>
	</clipPath>
	<path class="st0" d="M99.6,10.8c-0.1-0.1-0.2-0.2-0.2-0.4c0-0.3,0.2-0.5,0.5-0.5c0.1,0,0.2,0,0.3,0.1c0.8,0.6,1.7,0.9,2.6,0.9
		c1,0,1.7-0.5,1.7-1.3v0c0-0.8-1-1.1-2-1.4c-1.3-0.4-2.7-0.8-2.7-2.3v0c0-1.4,1.2-2.3,2.8-2.3c0.9,0,1.8,0.3,2.6,0.7
		c0.2,0.1,0.3,0.3,0.3,0.5c0,0.3-0.2,0.5-0.5,0.5c-0.1,0-0.2,0-0.3-0.1c-0.7-0.4-1.4-0.6-2.1-0.6c-1,0-1.6,0.5-1.6,1.2v0
		c0,0.8,1,1.1,2.1,1.4c1.3,0.4,2.6,0.9,2.6,2.3v0c0,1.6-1.3,2.5-2.9,2.5C101.6,11.9,100.5,11.5,99.6,10.8"/>
	<path class="st0" d="M108.2,9.5l0-4.9l-0.7,0c-0.3,0-0.5-0.3-0.5-0.5c0-0.3,0.3-0.5,0.5-0.5l0.7,0l0-1.9c0-0.3,0.3-0.6,0.6-0.6
		c0.3,0,0.6,0.3,0.6,0.6l0,1.9l2.1,0c0.3,0,0.6,0.3,0.6,0.5c0,0.3-0.3,0.5-0.6,0.5l-2.1,0l0,4.8c0,1,0.6,1.4,1.4,1.4
		c0.4,0,0.6-0.1,0.7-0.1c0.3,0,0.5,0.2,0.5,0.5c0,0.2-0.1,0.4-0.3,0.5c-0.3,0.1-0.7,0.2-1.2,0.2C109.2,11.8,108.2,11.2,108.2,9.5"/>
	<path class="st0" d="M121.2,11.1c0,0.3-0.3,0.6-0.6,0.6c-0.3,0-0.6-0.3-0.6-0.6l0-0.9c-0.6,0.9-1.4,1.6-2.8,1.6
		c-2,0-3.1-1.3-3.1-3.3l0-4.6c0-0.3,0.3-0.6,0.6-0.6c0.3,0,0.6,0.3,0.6,0.6l0,4.2c0,1.5,0.8,2.5,2.3,2.5c1.4,0,2.5-1,2.5-2.6l0-4.2
		c0-0.3,0.3-0.6,0.6-0.6c0.3,0,0.6,0.3,0.6,0.6L121.2,11.1z"/>
	<path class="st0" d="M123.4,7.6L123.4,7.6c0-2.3,1.8-4.3,4.2-4.3c1.4,0,2.3,0.5,3,1.2c0.1,0.1,0.2,0.2,0.2,0.4
		c0,0.3-0.3,0.6-0.6,0.6c-0.2,0-0.3-0.1-0.4-0.1c-0.6-0.5-1.3-1-2.2-1c-1.7,0-2.9,1.4-2.9,3.2v0c0,1.8,1.3,3.2,3,3.2
		c0.9,0,1.7-0.4,2.3-1c0.1-0.1,0.2-0.2,0.3-0.2c0.3,0,0.6,0.3,0.6,0.6c0,0.1-0.1,0.3-0.2,0.4c-0.8,0.8-1.7,1.3-3.1,1.3
		C125.2,11.9,123.4,9.9,123.4,7.6"/>
	<path class="st0" d="M132.9,0.6c0-0.3,0.3-0.6,0.6-0.6c0.3,0,0.6,0.3,0.6,0.6l0,7.5l4.4-4.5c0.1-0.2,0.3-0.2,0.5-0.2
		c0.3,0,0.6,0.3,0.6,0.6c0,0.2-0.1,0.3-0.2,0.5l-2.7,2.6l2.9,3.7c0.1,0.1,0.2,0.3,0.2,0.4c0,0.3-0.3,0.6-0.6,0.6
		c-0.2,0-0.4-0.1-0.5-0.3l-2.8-3.6l-1.7,1.7l0,1.6c0,0.3-0.3,0.6-0.6,0.6c-0.3,0-0.6-0.3-0.6-0.6L132.9,0.6z"/>
	<path class="st0" d="M142.4,7.6L142.4,7.6c0,2.2,1.5,3.5,3.2,3.5c1.7,0,3.3-1.4,3.3-3.5v0c0-2.1-1.6-3.5-3.3-3.5
		C143.8,4.1,142.4,5.4,142.4,7.6 M149.6,11.3c0,0.2-0.2,0.4-0.4,0.4c-0.2,0-0.4-0.2-0.4-0.4l0-1.5c-0.7,1.1-1.7,2-3.3,2
		c-1.9,0-3.9-1.6-3.9-4.2v0c0-2.6,2-4.2,3.9-4.2c1.6,0,2.7,0.9,3.3,1.9l0-4.9c0-0.2,0.2-0.4,0.4-0.4c0.2,0,0.4,0.2,0.4,0.4
		L149.6,11.3z"/>
	<path class="st0" d="M158.7,7.2c-0.1-1.6-1-3.1-2.9-3.1c-1.6,0-2.8,1.4-3,3.1L158.7,7.2z M155.9,11.8c-2.1,0-4-1.7-4-4.2v0
		c0-2.3,1.6-4.2,3.8-4.2c2.3,0,3.7,1.9,3.7,4.2c0,0.2-0.2,0.4-0.4,0.4l-6.3,0c0.1,2,1.6,3.2,3.2,3.2c1.2,0,2-0.5,2.6-1.1
		c0.1-0.1,0.1-0.1,0.3-0.1c0.2,0,0.4,0.2,0.4,0.4c0,0.1,0,0.2-0.1,0.3C158.3,11.3,157.4,11.8,155.9,11.8"/>
	<path class="st0" d="M161.2,10.7c-0.1,0-0.1-0.2-0.1-0.3c0-0.2,0.2-0.4,0.4-0.4c0.1,0,0.2,0,0.3,0.1c0.8,0.6,1.7,0.9,2.7,0.9
		c1.1,0,1.9-0.6,1.9-1.5v0c0-1-1-1.3-2.1-1.6c-1.3-0.4-2.8-0.8-2.8-2.2v0c0-1.3,1.1-2.2,2.7-2.2c0.9,0,1.8,0.3,2.6,0.7
		c0.1,0.1,0.2,0.2,0.2,0.4c0,0.2-0.2,0.4-0.4,0.4c-0.1,0-0.2,0-0.2-0.1c-0.7-0.4-1.5-0.7-2.3-0.7c-1.1,0-1.8,0.6-1.8,1.4v0
		c0,0.9,1.1,1.2,2.3,1.6c1.3,0.4,2.7,0.8,2.7,2.3l0,0c0,1.4-1.2,2.4-2.8,2.4C163.3,11.8,162.1,11.3,161.2,10.7"/>
	<path class="st0" d="M169.7,3.8c0-0.2,0.2-0.4,0.4-0.4c0.2,0,0.4,0.2,0.4,0.4l0,7.4c0,0.2-0.2,0.4-0.4,0.4c-0.2,0-0.4-0.2-0.4-0.4
		L169.7,3.8z M169.6,0.7c0-0.3,0.2-0.5,0.5-0.5c0.3,0,0.5,0.2,0.5,0.5l0,0.3c0,0.3-0.2,0.5-0.5,0.5c-0.3,0-0.5-0.2-0.5-0.5V0.7z"/>
	<path class="st0" d="M180.4,7.2L180.4,7.2c0-1.9-1.7-3.1-3.3-3.1c-1.7,0-3.1,1.2-3.1,3.1v0c0,1.8,1.5,3.1,3.1,3.1
		C178.7,10.2,180.4,9,180.4,7.2 M173.6,13c-0.1-0.1-0.2-0.2-0.2-0.3c0-0.2,0.2-0.4,0.4-0.4c0.1,0,0.2,0,0.2,0.1c0.9,0.7,2,1,3.1,1
		c1.9,0,3.2-1.1,3.2-3.1l0-1.2c-0.7,1-1.8,1.9-3.4,1.9c-1.9,0-3.9-1.5-3.9-3.8l0,0c0-2.3,1.9-3.8,3.9-3.8c1.6,0,2.7,0.9,3.4,1.8
		l0-1.3c0-0.2,0.2-0.4,0.4-0.4c0.2,0,0.4,0.2,0.4,0.4l0,6.5c0,1.2-0.4,2.1-1,2.7c-0.7,0.7-1.7,1.1-2.9,1.1
		C175.9,14.2,174.7,13.8,173.6,13"/>
	<path class="st0" d="M184,3.8c0-0.2,0.2-0.4,0.4-0.4c0.2,0,0.4,0.2,0.4,0.4l0,1.2c0.5-0.9,1.4-1.7,2.9-1.7c2,0,3.2,1.4,3.2,3.3
		l0,4.6c0,0.2-0.2,0.4-0.4,0.4c-0.2,0-0.4-0.2-0.4-0.4l0-4.5c0-1.7-0.9-2.8-2.6-2.8c-1.6,0-2.8,1.2-2.8,2.9l0,4.3
		c0,0.2-0.2,0.4-0.4,0.4c-0.2,0-0.4-0.2-0.4-0.4L184,3.8z"/>
	<path class="st0" d="M97.1,11.9c-0.3,0-0.6-0.3-0.6-0.6l0-5.1c0-0.2-0.1-1.8-2.3-1.8c-0.8,0-1.5,0.2-1.9,0.6
		c-0.5,0.5-0.5,1.1-0.5,1.1l0,0l0,2.2c0,1.2-1.1,1-1.1,1s0-0.3,0-0.6l0-2.6c0-0.1,0-1.1,0.8-1.9c0.6-0.6,1.5-1,2.7-1
		c1.1,0,2,0.3,2.6,0.9c0.8,0.8,0.8,1.9,0.8,2l0,5.1C97.7,11.7,97.4,11.9,97.1,11.9"/>
	<path class="st0" d="M87.7,3.4c0.3,0,0.6,0.3,0.6,0.6l0,5.1c0,0.2,0.1,1.8,2.3,1.8c0.8,0,1.5-0.2,1.9-0.6C93,9.7,93,9.1,93,9.1v0
		l0-2.2c0-1.2,1.1-1,1.1-1s0,0.3,0,0.6l0,2.6c0,0.1,0,1.1-0.8,1.9c-0.6,0.6-1.5,1-2.7,1c-1.1,0-2-0.3-2.6-0.9
		c-0.8-0.8-0.8-1.9-0.8-2l0-5.1C87.2,3.6,87.4,3.4,87.7,3.4"/>
	<path class="st0" d="M74.5,14c1.1,0,1.9-0.6,2.5-2.1l3-7.1c0-0.1,0.1-0.2,0.1-0.3c0-0.3-0.2-0.6-0.6-0.6c-0.3,0-0.5,0.2-0.5,0.4
		l-2.3,6L74,4.4C73.9,4.2,73.7,4,73.4,4c-0.3,0-0.6,0.2-0.6,0.6c0,0.1,0,0.2,0.1,0.3l3.2,6.7L76,11.7c-0.4,0.9-0.8,1.3-1.5,1.3
		c-0.4,0-0.6-0.1-0.8-0.1c-0.1,0-0.2-0.1-0.3-0.1c-0.2,0-0.5,0.2-0.5,0.5c0,0.3,0.2,0.4,0.4,0.5C73.7,13.9,74,14,74.5,14 M67.8,10.8
		c-1.4,0-2.7-1.2-2.7-2.9v0c0-1.7,1.3-2.9,2.7-2.9c1.4,0,2.7,1.1,2.7,2.9v0C70.5,9.7,69.3,10.8,67.8,10.8 M64,11.1
		c0,0.3,0.2,0.6,0.6,0.6c0.3,0,0.6-0.3,0.6-0.6v-1c0.6,0.9,1.5,1.6,2.9,1.6c1.8,0,3.6-1.5,3.6-3.9v0c0-2.5-1.8-3.9-3.6-3.9
		c-1.4,0-2.3,0.8-2.9,1.7V1.4c0-0.3-0.2-0.6-0.6-0.6c-0.3,0-0.6,0.2-0.6,0.6V11.1z M57.1,10.7c0.1-0.1,0.2-0.2,0.2-0.4
		c0-0.3-0.2-0.5-0.5-0.5c-0.1,0-0.2,0.1-0.3,0.1c-0.6,0.5-1.2,0.9-2.2,0.9c-1.3,0-2.5-0.9-2.7-2.6h5.5c0.3,0,0.5-0.2,0.5-0.5
		c0-2-1.3-3.8-3.5-3.8c-2.1,0-3.6,1.8-3.6,3.9v0c0,2.3,1.7,3.9,3.8,3.9C55.6,11.8,56.4,11.4,57.1,10.7 M51.6,7.4
		c0.1-1.5,1.1-2.6,2.5-2.6c1.5,0,2.3,1.2,2.4,2.6H51.6z M47.8,11.8c0.4,0,0.8-0.1,1.1-0.2c0.2-0.1,0.3-0.2,0.3-0.4
		c0-0.3-0.2-0.5-0.5-0.5c-0.1,0-0.3,0.1-0.7,0.1c-0.8,0-1.3-0.3-1.3-1.3V5.1h2c0.3,0,0.5-0.2,0.5-0.5c0-0.3-0.2-0.5-0.5-0.5h-2V2.3
		c0-0.3-0.3-0.6-0.6-0.6c-0.3,0-0.6,0.3-0.6,0.6v1.8H45c-0.3,0-0.5,0.2-0.5,0.5c0,0.3,0.2,0.5,0.5,0.5h0.6v4.6
		C45.7,11.2,46.6,11.8,47.8,11.8 M41.5,11.1c0,0.3,0.2,0.6,0.6,0.6c0.3,0,0.6-0.2,0.6-0.6V4.6c0-0.3-0.2-0.6-0.6-0.6
		c-0.3,0-0.6,0.3-0.6,0.6V11.1z M41.4,1.9c0,0.4,0.3,0.6,0.7,0.6c0.4,0,0.7-0.2,0.7-0.6V1.7c0-0.4-0.3-0.6-0.7-0.6
		c-0.4,0-0.7,0.2-0.7,0.6V1.9z M36.6,11.8c1.5,0,2.7-0.8,2.7-2.3v0c0-1.4-1.3-1.8-2.4-2.2c-1-0.3-1.9-0.6-1.9-1.3v0
		c0-0.6,0.6-1.1,1.5-1.1c0.6,0,1.3,0.2,2,0.6c0.1,0,0.1,0.1,0.2,0.1c0.3,0,0.5-0.2,0.5-0.5c0-0.2-0.1-0.4-0.3-0.5
		c-0.7-0.4-1.6-0.6-2.4-0.6c-1.5,0-2.6,0.9-2.6,2.2v0c0,1.4,1.3,1.8,2.5,2.1c1,0.3,1.9,0.6,1.9,1.3v0c0,0.7-0.7,1.2-1.6,1.2
		c-0.8,0-1.6-0.3-2.4-0.8C34.2,10,34.1,9.9,34,9.9c-0.3,0-0.5,0.2-0.5,0.5c0,0.2,0.1,0.3,0.2,0.4C34.5,11.4,35.6,11.8,36.6,11.8
		 M28.2,10.8c-1.4,0-2.7-1.2-2.7-2.9v0c0-1.7,1.3-2.9,2.7-2.9c1.4,0,2.7,1.1,2.7,2.9v0C30.9,9.7,29.7,10.8,28.2,10.8 M24.4,11.1
		c0,0.3,0.2,0.6,0.6,0.6c0.3,0,0.6-0.3,0.6-0.6v-1c0.6,0.9,1.5,1.6,2.9,1.6c1.8,0,3.6-1.5,3.6-3.9v0c0-2.5-1.8-3.9-3.6-3.9
		c-1.4,0-2.3,0.8-2.9,1.7V1.4c0-0.3-0.2-0.6-0.6-0.6c-0.3,0-0.6,0.2-0.6,0.6V11.1z M21.9,10.7c0.1-0.1,0.2-0.2,0.2-0.4
		c0-0.3-0.2-0.5-0.5-0.5c-0.1,0-0.2,0.1-0.3,0.1c-0.6,0.5-1.2,0.9-2.2,0.9c-1.3,0-2.5-0.9-2.7-2.6h5.5c0.3,0,0.5-0.2,0.5-0.5
		c0-2-1.3-3.8-3.5-3.8c-2.1,0-3.6,1.8-3.6,3.9v0c0,2.3,1.7,3.9,3.8,3.9C20.3,11.8,21.2,11.4,21.9,10.7 M16.4,7.4
		c0.1-1.5,1.1-2.6,2.5-2.6c1.5,0,2.3,1.2,2.4,2.6H16.4z M3.3,11.3c0.1,0.3,0.3,0.5,0.6,0.5H4c0.3,0,0.5-0.2,0.6-0.5l2.7-7.9l2.7,7.9
		c0.1,0.3,0.3,0.5,0.6,0.5h0.1c0.3,0,0.5-0.2,0.6-0.5l3.3-9.1c0-0.1,0.1-0.2,0.1-0.3c0-0.3-0.3-0.6-0.6-0.6c-0.3,0-0.5,0.2-0.6,0.5
		l-2.8,8.2L7.9,1.8C7.8,1.5,7.6,1.3,7.3,1.3H7.3C7,1.3,6.8,1.5,6.7,1.8L4,9.9L1.2,1.8C1.1,1.5,0.9,1.3,0.6,1.3C0.3,1.3,0,1.6,0,1.9
		C0,2,0,2.1,0.1,2.2L3.3,11.3z"/>
</g>
</svg>
