<?xml version="1.0" encoding="utf-8"?>
<!-- Generator: Adobe Illustrator 19.0.0, SVG Export Plug-In . SVG Version: 6.00 Build 0)  -->
<svg version="1.1" id="Layer_1" xmlns="http://www.w3.org/2000/svg" xmlns:xlink="http://www.w3.org/1999/xlink" x="0px" y="0px"
	 viewBox="0 0 45.4 31.5" style="enable-background:new 0 0 45.4 31.5;" xml:space="preserve">
<style type="text/css">
	.st0{clip-path:url(#XMLID_33_);fill:#6CA3BC;}
</style>
<g id="XMLID_2_">
	<defs>
		<rect id="XMLID_3_" y="0" width="45.4" height="31.5"/>
	</defs>
	<clipPath id="XMLID_33_">
		<use xlink:href="#XMLID_3_"  style="overflow:visible;"/>
	</clipPath>
	<path id="XMLID_4_" class="st0" d="M45.4,0h-7.1L29,14.4c-1.8,2.8-3,5-3,8.1c0,5.3,4,9.1,8.6,9.1c4.8,0,8.6-3.8,8.6-9.1
		c0-3.5-1.5-6.6-4.8-8.1L45.4,0z M19.4,0h-7.1L3,14.4c-1.8,2.8-3,5-3,8.1c0,5.3,4,9.1,8.6,9.1c4.8,0,8.6-3.8,8.6-9.1
		c0-3.5-1.5-6.6-4.8-8.1L19.4,0z"/>
</g>
</svg>
