<svg xmlns="http://www.w3.org/2000/svg" viewBox="0 0 588 118.3"><linearGradient id="a" gradientUnits="userSpaceOnUse" x1="-38.569" y1="-26.457" x2="-42.941" y2="126.571" gradientTransform="rotate(-5.124 218.933 -900.616)"><stop offset="0" stop-color="#653716"/><stop offset=".025" stop-color="#653716"/><stop offset=".346" stop-color="#fade00"/><stop offset=".681" stop-color="#fade00"/><stop offset=".978" stop-color="#653716"/><stop offset="1" stop-color="#653716"/></linearGradient><path d="M.1 74.8c-1.6-12 11.9-25.1 28.6-32.3 19.7-8.4 43.9-9.2 54.9-2.2 6.1 3.9 6.7 13.3 5.1 13-1.6-.3-3.9-7.4-23.2-8.5s-39.3 9-50.5 20c-11.1 10.9-3 20.1-3 20.1 1.8 1.7-10.5.3-11.9-10.1zM44 54.3c-8.4 9.6-19.2 56.9-13.5 63.3.7.8-1.1.8-1.4.7-17.5-.9-1.8-71.6 16-68.4 1.5.3.9 2-1.1 4.4z" fill="url(#a)"/><linearGradient id="b" gradientUnits="userSpaceOnUse" x1="-24.55" y1="-26.056" x2="-28.923" y2="126.972" gradientTransform="rotate(-5.124 218.933 -900.616)"><stop offset="0" stop-color="#653716"/><stop offset=".025" stop-color="#653716"/><stop offset=".346" stop-color="#fade00"/><stop offset=".681" stop-color="#fade00"/><stop offset=".978" stop-color="#653716"/><stop offset="1" stop-color="#653716"/></linearGradient><path d="M71.2 64c-6.7 11.4-7.5 21.3-3.9 20.6 4.1-.7 8-10.1 8-10.1l1.6 2.1s-4 11.7-10.5 14.5C60 94 55.8 88.3 56.6 80c.3-2.5 1-5 1.8-7.5-4 1.4-7.8 10.5-7.8 10.5-.8 4.2-.9 7.7.4 9.4.5.8-1.2.7-1.4.7-4.7-.1-7.4-5.1-6.6-11.9.9-8.4 7.5-35.3 20.8-33.5 1.5.2.8 2-1.2 4.5-1.6 1.9-5.2 9.5-8.2 17.7 8-11.5 16-10.4 16-10.4 4.5-.3 2.6 1.4.8 4.5z" fill="url(#b)"/><linearGradient id="c" gradientUnits="userSpaceOnUse" x1=".138" y1="-25.351" x2="-4.234" y2="127.677" gradientTransform="rotate(-5.124 218.933 -900.616)"><stop offset="0" stop-color="#653716"/><stop offset=".025" stop-color="#653716"/><stop offset=".346" stop-color="#fade00"/><stop offset=".681" stop-color="#fade00"/><stop offset=".978" stop-color="#653716"/><stop offset="1" stop-color="#653716"/></linearGradient><path d="M90.6 57.9c9.8 1.6-.1 17.9-10.8 18.1-.2 1.1-.4 2.1-.4 3-.2 2.9.8 5.4 4.3 4.4 3.9-1.1 13-11.5 13-11.5l1.6 2.1S90 87 83.5 89.8c-6.5 2.8-13.6-2.8-12.7-11 .2-2 .8-4.2 1.4-6.3 2.7-8.6 10-16 18.4-14.6zm-1.2 8c2.1-6.3-4.4-6.3-8.7 6.8 2.4-.6 7.3-2.5 8.7-6.8z" fill="url(#c)"/><linearGradient id="d" gradientUnits="userSpaceOnUse" x1="72.708" y1="-23.277" x2="68.336" y2="129.75" gradientTransform="rotate(-5.124 218.933 -900.616)"><stop offset="0" stop-color="#653716"/><stop offset=".025" stop-color="#653716"/><stop offset=".346" stop-color="#fade00"/><stop offset=".681" stop-color="#fade00"/><stop offset=".978" stop-color="#653716"/><stop offset="1" stop-color="#653716"/></linearGradient><path d="M185.5 103.6c1.4.5 2.8.3 4.3-.8.7-.7 1.2.2 1.1 1.2-.5 6.1-5 9-10.8 8.2-11.2-1.6-25.3-19.3-28.6-31.6-1.1 7.4-1.3 13.9 1 16.4.7.8-1.1.8-1.3.7-7.4-.1-9.2-11.2-7.5-23.7-2.1-2.9-2.4-6.1-2-6.7.7-1.3 1.3.1 1.3.1s.4.8 1.6 1.7c3.3-15.9 11.6-32.1 21-30.8 1.5.2.9 2-1.2 4.5-1.9 2.2-3.6 5.5-5.2 9.4-1.3 3-3.7 10.5-5.7 18.7.4 0 .8-.1 1.2-.2 9.3-1.5 26.1-8.7 28.9-22.1 1.2-5.7-1.6-8.8-5.2-10.5-13.8-6.5-33.7 6.7-43.2 16-11.1 10.9-3 20.1-3 20.1 1.8 1.8-10.5.4-11.9-10.1-1.6-12 11.9-25.1 28.6-32.3 8.8-3.7 18.4-6.4 28-4.4 9.4 2 15.4 8.6 14.1 20-1.9 16.9-19.6 28.5-32.7 30.8 5.3 14.2 19.5 22.7 27.2 25.4z" fill="url(#d)"/><linearGradient id="e" gradientUnits="userSpaceOnUse" x1="118.9" y1="-21.958" x2="114.528" y2="131.07" gradientTransform="rotate(-5.124 218.933 -900.616)"><stop offset="0" stop-color="#653716"/><stop offset=".025" stop-color="#653716"/><stop offset=".346" stop-color="#fade00"/><stop offset=".681" stop-color="#fade00"/><stop offset=".978" stop-color="#653716"/><stop offset="1" stop-color="#653716"/></linearGradient><path d="M209 47.3c9.8 1.6-.1 17.9-10.8 18.1-.2 1.1-.4 2.1-.4 3-.2 2.9.8 5.4 4.3 4.4 3.9-1.1 13-11.5 13-11.5l1.6 2.1s-8.3 13-14.8 15.8c-6.5 2.8-13.6-2.8-12.7-11 .2-2 .8-4.2 1.4-6.3 2.7-8.6 10-16 18.4-14.6zm-1.2 8c2.1-6.3-4.4-6.3-8.7 6.8 2.4-.6 7.3-2.5 8.7-6.8z" fill="url(#e)"/><linearGradient id="f" gradientUnits="userSpaceOnUse" x1="149.195" y1="-21.092" x2="144.822" y2="131.936" gradientTransform="rotate(-5.124 218.933 -900.616)"><stop offset="0" stop-color="#653716"/><stop offset=".025" stop-color="#653716"/><stop offset=".346" stop-color="#fade00"/><stop offset=".681" stop-color="#fade00"/><stop offset=".978" stop-color="#653716"/><stop offset="1" stop-color="#653716"/></linearGradient><path d="M233.3 45.1c.2 0 2.3.7 2.8 1.3.6-1 5.4-3.5 8.7-.7.9.8-.4.5-1.5 3.9-1 3.1-2 6.3-2.5 9.5 4.8-3 9.8-5.1 9.8-5.1l1.8 1.9c-3.6 2.2-10.3 6.6-12.9 10-1.2 11.9-2.2 24.3-10.1 25-6.3.6-10.3-7.7-4.9-14.5-5.7 3.2-11.7-2.2-11-10.5.2-2 .7-4.2 1.4-6.3 2.7-8.5 10-15.9 18.4-14.5zm-.7 13.1c-2.2 1.1-5.3.1-2.1-1.9 1-.6 1.7-1.5 2.2-3.1.8-2.5-.2-4.1-1.5-4.2-1.2-.1-3.2 1.4-5.1 4.8-1.8 3.3-3.6 8.6-4 12.5-.5 4.3 1.9 5.2 4.4 4.3 4.9-2 5.7-7.5 6.1-12.4zm-5.2 24.3c.1 1.2.7 2 2 1.8.9-.1 1.6-5 2.2-10.6-2 2.5-4.4 5.5-4.2 8.8z" fill="url(#f)"/><linearGradient id="g" gradientUnits="userSpaceOnUse" x1="172.727" y1="-20.42" x2="168.355" y2="132.608" gradientTransform="rotate(-5.124 218.933 -900.616)"><stop offset="0" stop-color="#653716"/><stop offset=".025" stop-color="#653716"/><stop offset=".346" stop-color="#fade00"/><stop offset=".681" stop-color="#fade00"/><stop offset=".978" stop-color="#653716"/><stop offset="1" stop-color="#653716"/></linearGradient><path d="M261 47c-6.7 11.4-7.5 21.3-3.9 20.6 4.1-.7 8-10.1 8-10.1l1.6 2.1s-4 11.7-10.5 14.5c-6.5 2.8-10.8-2.9-9.8-11.2.4-3.1 1.3-6.4 2.5-9.5 2.9-7.1 6.2-11.6 13.2-11 1.7.3.6 1.8-1.1 4.6zm4-8.4c-.6 1.5-2.9 2.8-5.2 2.7-2.3 0-3.7-1.3-3.1-2.9.6-1.5 2.9-2.8 5.2-2.7 2.3.1 3.7 1.4 3.1 2.9z" fill="url(#g)"/><linearGradient id="h" gradientUnits="userSpaceOnUse" x1="197.537" y1="-19.711" x2="193.165" y2="133.317" gradientTransform="rotate(-5.124 218.933 -900.616)"><stop offset="0" stop-color="#653716"/><stop offset=".025" stop-color="#653716"/><stop offset=".346" stop-color="#fade00"/><stop offset=".681" stop-color="#fade00"/><stop offset=".978" stop-color="#653716"/><stop offset="1" stop-color="#653716"/></linearGradient><path d="M278.1 40.8c2.8-.5 5.6.4 7.7 2.3 1.8 1.7 2.8 4.1 3.1 6.8 4.7-2.6 10.1-6.7 10.1-6.7l1.2 2.3s-5.7 5.9-11.5 9.6c-1.6 8.4-8.5 17.2-15.9 18.2v-.1c-5.9 1.2-11.6-4.1-10.8-11.5 1.2-12.6 10.4-20.4 16.1-20.9zm-7.7 21.1c-.2 2.9.8 5.4 4.3 4.4 3.7-1.6 6.3-4.9 7.7-8.4h-.1c-4.1.8-7.9-1.3-9.7-4.8-1.1 2.9-2 6.3-2.2 8.8zm12.7-14.7c-.6-1.5-2.9-3.9-4.2-1.9-1.3 1.9 1.2 6.6 4.9 6.4 0-1.6-.3-3.2-.7-4.5z" fill="url(#h)"/><linearGradient id="i" gradientUnits="userSpaceOnUse" x1="224.127" y1="-18.951" x2="219.755" y2="134.077" gradientTransform="rotate(-5.124 218.933 -900.616)"><stop offset="0" stop-color="#653716"/><stop offset=".025" stop-color="#653716"/><stop offset=".346" stop-color="#fade00"/><stop offset=".681" stop-color="#fade00"/><stop offset=".978" stop-color="#653716"/><stop offset="1" stop-color="#653716"/></linearGradient><path d="M296.4 41.5c-2.1-1.7 9.6-4.4 9.9-2.2.1.7 0 1.6-.9 3.5-.8 1.8-1.7 3.7-2.5 5.7 3.9-5.4 6.5-9.6 13.2-11.2 3.2-.8 5.8-.3 3 4.5-6.7 11.4-7.5 21.3-3.9 20.6 4.1-.7 8-10.1 8-10.1l1.6 2.1s-4 11.7-10.5 14.5c-6.5 2.8-10.8-2.9-9.8-11.2.3-2.5.9-5 1.8-7.5-5.3 1.8-10.6 15.1-7.2 19.8.5.8-1.2.8-1.4.7-14-1.5-3.1-21.6-1.3-26.8.6-1.2.7-1.8 0-2.4z" fill="url(#i)"/><linearGradient id="j" gradientUnits="userSpaceOnUse" x1="257.517" y1="-17.997" x2="253.145" y2="135.031" gradientTransform="rotate(-5.124 218.933 -900.616)"><stop offset="0" stop-color="#653716"/><stop offset=".025" stop-color="#653716"/><stop offset=".346" stop-color="#fade00"/><stop offset=".681" stop-color="#fade00"/><stop offset=".978" stop-color="#653716"/><stop offset="1" stop-color="#653716"/></linearGradient><path d="M341.7 35.4c.3 0 2.5.9 2.9 1.3.6-.9 5.4-3.5 8.7-.7.9.8-.4.5-1.6 3.9-.7 2-1.3 4-1.7 5.9-1.8 7.6-1.7 13.7.6 13.5 4.1-.3 8-10.1 8-10.1l1.6 2.1s-4 11.7-10.5 14.5c-4.1 1.7-7.3.1-8.9-3.4-2.1 2.2-4.3 4-6.3 4.9-6.5 2.8-13.6-2.8-12.7-11 .2-2 .8-4.2 1.4-6.3 2.9-8.6 10.1-16 18.5-14.6zm-.6 13c-2.3 1.1-5.4.1-2.1-1.9 1-.6 1.7-1.5 2.1-3.1.8-2.5-.2-4.1-1.4-4.2-1.3-.1-3.2 1.4-5.1 4.8-1.9 3.3-3.8 8.6-4.1 12.5-.2 2.9.8 5.2 4.3 4.4 4.7-1 5.3-6.3 6.3-12.5z" fill="url(#j)"/><linearGradient id="k" gradientUnits="userSpaceOnUse" x1="284.28" y1="-17.232" x2="279.908" y2="135.795" gradientTransform="rotate(-5.124 218.933 -900.616)"><stop offset="0" stop-color="#653716"/><stop offset=".025" stop-color="#653716"/><stop offset=".346" stop-color="#fade00"/><stop offset=".681" stop-color="#fade00"/><stop offset=".978" stop-color="#653716"/><stop offset="1" stop-color="#653716"/></linearGradient><path d="M355.7 53.2c1-8.4 7.5-35.3 20.8-33.5.9.1 1 .7.6 1.7.5.4.9 1 1.2 2 .9 2.9-6.8 15-12.4 22.4-1.9 6.4-3 12.6.4 12 4.1-.7 8-10.1 8-10.1l1.6 2.1s-4 11.7-10.5 14.5c-7.5 3.4-10.4-4.7-9.7-11.1zm17.7-26c-.7 1.4-1.6 3.1-2.4 5-.1.2-1.1 2.5-2.3 5.7 2.1-4.2 4.3-8.9 4.7-10.7z" fill="url(#k)"/><linearGradient id="l" gradientUnits="userSpaceOnUse" x1="355.533" y1="-15.197" x2="351.161" y2="137.831" gradientTransform="rotate(-5.124 218.933 -900.616)"><stop offset="0" stop-color="#653716"/><stop offset=".025" stop-color="#653716"/><stop offset=".346" stop-color="#fade00"/><stop offset=".681" stop-color="#fade00"/><stop offset=".978" stop-color="#653716"/><stop offset="1" stop-color="#653716"/></linearGradient><path d="M397.9 39.1c-1.6-12 11.9-25.1 28.6-32.3 10.3-4.4 31.1-9.9 43.2-4.6 6.6 2.9 8.7 12.1 7.1 12.1-1.5 0-4.5-5.6-19.5-5.2-17.3 1-34.5 10.1-44.5 20-11.1 10.9-3 20.1-3 20.1 1.8 1.8-10.5.4-11.9-10.1zm44.3-21.3c-2.6 3.1-5.6 9.5-8.3 17.6 8.4-.5 16.7 2.3 18.8 9.3.5 1.5-1.5 1.6-4.5.8-4.2-1.2-10.8-1.4-17.1-.5-1.9 7.7-7.5 38.5-2.6 44 .7.8-1.1.8-1.3.7-9.3-1.3-9.9-22.4-5.7-42.2-2.4.7-5.9 3.3-6.9 5.7-.4 1-1.1-.7-1.3-.9-3.2-7.3 4.5-13.9 10.9-15.2 4.5-14.7 11.5-26.1 19.1-24 1.5.7.9 2.3-1.1 4.7z" fill="url(#l)"/><linearGradient id="m" gradientUnits="userSpaceOnUse" x1="384.565" y1="-14.367" x2="380.192" y2="138.661" gradientTransform="rotate(-5.124 218.933 -900.616)"><stop offset="0" stop-color="#653716"/><stop offset=".025" stop-color="#653716"/><stop offset=".346" stop-color="#fade00"/><stop offset=".681" stop-color="#fade00"/><stop offset=".978" stop-color="#653716"/><stop offset="1" stop-color="#653716"/></linearGradient><path d="M472.2 28.1c-6.7 11.4-7.5 21.3-3.9 20.6 4.1-.7 8-10.1 8-10.1l1.6 2.1s-4 11.7-10.5 14.5c-6.5 2.8-10.8-2.9-9.8-11.2.4-3.1 1.3-6.4 2.5-9.5 2.9-7.1 6.2-11.6 13.2-11 1.6.2.5 1.8-1.1 4.6zm4-8.4c-.6 1.5-2.9 2.8-5.2 2.7-2.3 0-3.7-1.3-3.1-2.9.6-1.5 2.9-2.8 5.2-2.7 2.3 0 3.7 1.3 3.1 2.9z" fill="url(#m)"/><linearGradient id="n" gradientUnits="userSpaceOnUse" x1="407.668" y1="-13.707" x2="403.296" y2="139.321" gradientTransform="rotate(-5.124 218.933 -900.616)"><stop offset="0" stop-color="#653716"/><stop offset=".025" stop-color="#653716"/><stop offset=".346" stop-color="#fade00"/><stop offset=".681" stop-color="#fade00"/><stop offset=".978" stop-color="#653716"/><stop offset="1" stop-color="#653716"/></linearGradient><path d="M479.4 25.1c-2.1-1.7 9.6-4.4 9.9-2.2.1.7 0 1.6-.9 3.5-.8 1.8-1.7 3.7-2.5 5.7 3.9-5.4 6.5-9.6 13.2-11.2 3.2-.8 5.8-.3 3 4.5-6.7 11.4-7.5 21.3-3.9 20.6 4.1-.7 8-10.1 8-10.1l1.6 2.1s-4 11.7-10.5 14.5-10.8-2.9-9.8-11.2c.3-2.5.9-5 1.8-7.5-5.3 1.8-10.6 15.1-7.2 19.8.5.8-1.2.8-1.4.7-14-1.5-3.1-21.6-1.3-26.8.5-1.2.6-1.9 0-2.4z" fill="url(#n)"/><linearGradient id="o" gradientUnits="userSpaceOnUse" x1="441.06" y1="-12.753" x2="436.687" y2="140.275" gradientTransform="rotate(-5.124 218.933 -900.616)"><stop offset="0" stop-color="#653716"/><stop offset=".025" stop-color="#653716"/><stop offset=".346" stop-color="#fade00"/><stop offset=".681" stop-color="#fade00"/><stop offset=".978" stop-color="#653716"/><stop offset="1" stop-color="#653716"/></linearGradient><path d="M524.7 19c.3 0 2.5.9 2.9 1.3.6-.9 5.4-3.5 8.7-.7.9.8-.4.5-1.6 3.9-.7 2-1.3 4-1.7 5.9-1.8 7.6-1.7 13.7.6 13.5 4.1-.3 8-10.1 8-10.1l1.6 2.1s-4 11.7-10.5 14.5c-4.1 1.7-7.3.1-8.9-3.4-2.1 2.2-4.3 4-6.3 4.9-6.5 2.8-13.6-2.8-12.7-11 .2-2 .8-4.2 1.4-6.3 2.8-8.6 10.1-16 18.5-14.6zm-.7 13c-2.3 1.1-5.4.1-2.1-1.9 1-.6 1.7-1.5 2.1-3.1.8-2.5-.2-4.1-1.4-4.2-1.3-.1-3.2 1.4-5.1 4.8-1.9 3.3-3.8 8.6-4.1 12.5-.2 2.9.8 5.2 4.3 4.4 4.7-1 5.4-6.3 6.3-12.5z" fill="url(#o)"/><linearGradient id="p" gradientUnits="userSpaceOnUse" x1="467.822" y1="-11.988" x2="463.45" y2="141.039" gradientTransform="rotate(-5.124 218.933 -900.616)"><stop offset="0" stop-color="#653716"/><stop offset=".025" stop-color="#653716"/><stop offset=".346" stop-color="#fade00"/><stop offset=".681" stop-color="#fade00"/><stop offset=".978" stop-color="#653716"/><stop offset="1" stop-color="#653716"/></linearGradient><path d="M538.6 36.8c1-8.4 7.5-35.3 20.8-33.5.9.1 1 .7.6 1.7.5.4.9 1 1.2 2 .9 2.9-6.8 15-12.4 22.4-1.9 6.4-3 12.6.4 12 4.1-.7 8-10.1 8-10.1l1.6 2.1s-4 11.7-10.5 14.5c-7.5 3.4-10.4-4.7-9.7-11.1zm17.7-26c-.7 1.4-1.6 3.1-2.4 5-.1.2-1.1 2.5-2.3 5.7 2.1-4.2 4.4-8.9 4.7-10.7z" fill="url(#p)"/><linearGradient id="q" gradientUnits="userSpaceOnUse" x1="488.789" y1="-11.389" x2="484.417" y2="141.638" gradientTransform="rotate(-5.124 218.933 -900.616)"><stop offset="0" stop-color="#653716"/><stop offset=".025" stop-color="#653716"/><stop offset=".346" stop-color="#fade00"/><stop offset=".681" stop-color="#fade00"/><stop offset=".978" stop-color="#653716"/><stop offset="1" stop-color="#653716"/></linearGradient><path d="M575.3 17.6c-1.1 2.1-4.6 3-3.2.4 1.8-3.2-5.3-2.3-2.8 1.6.2.3 2 2.6 2.6 3.3 3.3-.8 9.1-2.4 13.2-2.7 1.8-.2 3.8 1.5 2.7 2.7 0 0-7 1.1-13.3 3.5 2.7 3.6 4.4 5.6 3.9 10.5-.6 5.3-5.8 10.5-13.3 9.6-13.4-1.7-13.8-15.2-1.3-20.8-3.4-5.8-3.4-12.3 5.2-13.9 3.9-.7 9 .9 6.3 5.8zM562.4 37c2.3 7.1 12.6 1 4-7.7-3.6 1.6-4.8 5.3-4 7.7z" fill="url(#q)"/></svg>