<svg width="127" height="29" viewBox="0 0 127 29" fill="none" xmlns="http://www.w3.org/2000/svg">
<g clip-path="url(#clip0)">
<path d="M11.4613 14.3886L16.4725 6.86352C16.9521 6.13582 17.2167 5.29236 17.2167 4.41581C17.2167 1.98463 15.2321 0 12.7843 0H4.41581C1.98463 0 0 1.98463 0 4.41581V28.7772H12.7843C15.2321 28.7772 17.2002 26.7926 17.2002 24.3614C17.2002 23.4848 16.9355 22.6414 16.4559 21.9137L11.4613 14.3886ZM5.75544 23.0217V14.3886V5.82159H11.5109L5.75544 14.3886L11.4447 23.0879L5.75544 23.0217Z" fill="#4CB1E0"/>
<path d="M16.9852 5.75543V11.5109H28.4464C30.0341 11.5109 31.3241 10.2209 31.3241 8.63315C31.3241 7.04544 30.0341 5.75543 28.4464 5.75543H16.9852Z" fill="#4CB1E0"/>
<path d="M16.9852 17.2663H28.4464C30.0341 17.2663 31.3241 18.5563 31.3241 20.144V28.7772H28.4464C26.8587 28.7772 25.5687 27.4872 25.5687 25.8995V23.0218H17.0017V17.2663H16.9852Z" fill="#4CB1E0"/>
<path d="M32.7465 14.3886H38.5019V28.7772H35.5911C34.0199 28.7772 32.7465 27.5037 32.7465 25.9325V14.3886Z" fill="#4CB1E0"/>
<path d="M35.5911 11.5109H35.6573C37.2284 11.5109 38.5019 10.2374 38.5019 8.66623C38.5019 7.09507 37.2284 5.82159 35.6573 5.82159H35.5911C34.0199 5.82159 32.7465 7.09507 32.7465 8.66623C32.7465 10.2374 34.0199 11.5109 35.5911 11.5109Z" fill="#4CB1E0"/>
<path d="M47.1185 5.75543H51.3689C52.9566 5.75543 54.2466 7.04544 54.2466 8.63315C54.2466 10.2209 52.9566 11.5109 51.3689 11.5109H47.0523C46.2916 11.5109 45.6796 12.1228 45.6796 12.8836V12.9993C45.6796 13.7601 46.2916 14.372 47.0523 14.372C51.0216 14.372 54.2466 17.5971 54.2466 21.5663C54.2466 25.5356 51.0216 28.7606 47.0523 28.7606H42.8019C41.2142 28.7606 39.9242 27.4706 39.9242 25.8829V25.8168C39.9242 24.2291 41.2142 22.939 42.8019 22.939H47.1185C47.8793 22.939 48.4912 22.3271 48.4912 21.5663C48.4912 20.8056 47.8793 20.1936 47.1185 20.1936C43.1492 20.1936 39.9242 16.9686 39.9242 12.9993V12.9332C39.9242 8.98046 43.1327 5.75543 47.1185 5.75543Z" fill="#4CB1E0"/>
<path d="M61.4244 17.2663L62.9129 11.2793C63.7232 8.03776 66.6506 5.77197 69.9914 5.80504L67.1137 17.2663L69.9914 28.7772H69.9252C66.6175 28.7772 63.7232 26.5279 62.9294 23.3029L61.4244 17.2663Z" fill="#4CB1E0"/>
<path d="M61.4244 28.7772C58.249 28.7772 55.6689 26.1972 55.6689 23.0217V5.75543L61.4244 5.82159V28.7772Z" fill="#4CB1E0"/>
<path d="M77.8638 11.7094V28.4795H74.4073V14.6201H69.4788V11.7094H77.8638ZM78.36 11.7094H82.7923V14.6367H79.8154L78.36 11.7094Z" fill="#84C341"/>
<path d="M95.4774 11.7094L95.494 14.5044H87.6051L87.5885 25.701H95.4774V28.4795H84.2477V11.7094H95.4774ZM93.4763 21.7979H89.7385L88.1839 18.6886H93.4763V21.7979Z" fill="#84C341"/>
<path d="M111.255 24.626C110.875 25.2379 110.428 25.7837 109.899 26.2798C109.386 26.776 108.808 27.206 108.179 27.5533C107.551 27.9172 106.889 28.1818 106.161 28.3802C105.45 28.5787 104.706 28.6614 103.929 28.6614C102.754 28.6614 101.63 28.4299 100.588 27.9833C99.5459 27.5368 98.6363 26.9249 97.859 26.1475C97.0816 25.3702 96.4697 24.4606 96.0232 23.4187C95.5766 22.3767 95.3451 21.2521 95.3451 20.0779C95.3451 18.9036 95.5766 17.779 96.0232 16.7371C96.4697 15.6951 97.0816 14.7855 97.859 14.0082C98.6363 13.2309 99.5459 12.6189 100.588 12.1724C101.63 11.7259 102.754 11.4943 103.929 11.4943C104.689 11.4943 105.434 11.5936 106.161 11.7755C106.873 11.9739 107.551 12.2386 108.179 12.6024C108.808 12.9663 109.37 13.3963 109.899 13.8924C110.412 14.3886 110.875 14.9344 111.255 15.5463L108.46 17.3655C108.014 16.5055 107.402 15.8109 106.608 15.2982C105.831 14.7855 104.937 14.5209 103.945 14.5209C103.234 14.5209 102.572 14.6697 101.961 14.9674C101.332 15.2651 100.803 15.6621 100.34 16.1582C99.8767 16.6544 99.5128 17.2498 99.2317 17.9278C98.967 18.6059 98.8182 19.3336 98.8182 20.0944C98.8182 20.8552 98.9505 21.5829 99.2317 22.261C99.4963 22.939 99.8767 23.5344 100.34 24.0306C100.803 24.5268 101.349 24.9402 101.961 25.2214C102.589 25.5191 103.251 25.6679 103.945 25.6679C104.937 25.6679 105.814 25.4033 106.608 24.8906C107.385 24.3779 107.997 23.6833 108.46 22.8233L111.255 24.626Z" fill="#84C341"/>
<path d="M112.694 28.4795V11.7094H116.184V28.4795H112.694ZM123.543 11.7094H127V28.4795H123.543V21.7979H118.185L116.597 18.6886H123.543V11.7094Z" fill="#84C341"/>
</g>
<defs>
<clipPath id="clip0">
<rect width="127" height="28.7772" fill="white"/>
</clipPath>
</defs>
</svg>
