<svg data-name="Layer 1" xmlns="http://www.w3.org/2000/svg" viewBox="0 0 27.31 27.34"><defs><clipPath id="a"><path fill="none" d="M0 0h27.31v27.34H0z"/></clipPath></defs><g clip-path="url(#a)"><path d="M19 26.27A13.6 13.6 0 0026.24 19a13.35 13.35 0 001.07-5.33 13.35 13.35 0 00-1.07-5.33A14 14 0 0023.32 4 13.59 13.59 0 0019 1.07 13.36 13.36 0 0013.65 0a13.35 13.35 0 00-5.33 1.07A13.57 13.57 0 004 4a14 14 0 00-2.93 4.36A13.34 13.34 0 000 13.69 13.34 13.34 0 001.07 19a13.6 13.6 0 007.25 7.25 13.35 13.35 0 005.33 1.07A13.36 13.36 0 0019 26.27" fill="#2b4836"/><path d="M8.46 14.38h5.9V8.09M24 13.67A10.37 10.37 0 1113.65 3.3 10.37 10.37 0 0124 13.67z" stroke="#fff" fill="none"/></g></svg>