<svg xmlns="http://www.w3.org/2000/svg" xmlns:xlink="http://www.w3.org/1999/xlink" viewBox="0 0 57.5 57.5"><defs><path id="a" d="M0 0h57.5v57.5H0z"/></defs><clipPath id="b"><use xlink:href="#a" overflow="visible"/></clipPath><path d="M57.5 28.7C57.5 12.9 44.6 0 28.7 0 12.9 0 0 12.9 0 28.7c0 15.9 12.9 28.7 28.8 28.7 15.8.1 28.7-12.8 28.7-28.7M43 39.7c0 1.8-1.5 3.3-3.3 3.3H17.8c-1.8 0-3.3-1.5-3.3-3.3V17.8c0-1.8 1.5-3.3 3.3-3.3h21.9c1.8 0 3.3 1.5 3.3 3.3v21.9zm-3.3-1.1v-12h-2.5c.2.7.3 1.4.3 2.2 0 4.8-3.9 8.7-8.8 8.7-4.8 0-8.8-3.9-8.8-8.7 0-.8.1-1.5.3-2.2h-2.5v12c0 .6.5 1.1 1.1 1.1h19.7c.7 0 1.2-.5 1.2-1.1m0-16.4v-3.3c0-.6-.5-1.1-1.1-1.1h-3.3c-.6 0-1.1.5-1.1 1.1v3.3c0 .6.5 1.1 1.1 1.1h3.3c.6 0 1.1-.5 1.1-1.1m-5.5 6.5c0-3-2.5-5.5-5.5-5.5s-5.5 2.4-5.5 5.5c0 3 2.4 5.5 5.5 5.5s5.5-2.4 5.5-5.5" clip-path="url(#b)" fill="#fff"/></svg>