<svg data-name="Layer 1" xmlns="http://www.w3.org/2000/svg" viewBox="0 0 50.06 50.06"><defs><clipPath id="a"><path fill="none" d="M0 0h50.06v50.06H0z"/></clipPath></defs><g clip-path="url(#a)"><path d="M37 25.08H13V25h24v.1zm0-6H13V19h24v.1zm-9.23-17a4.21 4.21 0 00-5.56 0L13.34 9h23.38zM3.58 16.65a8 8 0 00-2 2.86L7 24.5V14zm44.88 2.86a8 8 0 00-2-2.86L43.05 14v10.5zm-2-2.86L43.05 14v10.6L32.76 34l-5.08-4.68a4 4 0 00-5.29 0L17.31 34 7 24.56V14l-3.42 2.65A8 8 0 001 22.53v22.52a4 4 0 004 4h40a4 4 0 004-4V22.53a8 8 0 00-2.51-5.88zM43.05 13a4 4 0 00-4-4H11a4 4 0 00-4 4v11.56L17.31 34l5.08-4.68a4 4 0 015.29 0L32.76 34l10.29-9.48V13zM22.39 29.36L2.28 48a4 4 0 001.77 1H46a4 4 0 001.77-1L27.68 29.36a4 4 0 00-5.29 0z" stroke="#fff" stroke-linecap="round" stroke-linejoin="round" stroke-width="2.01" fill="none"/></g></svg>