<svg id="Layer_1" data-name="Layer 1" xmlns="http://www.w3.org/2000/svg" viewBox="0 0 297.97 298.4"><defs><clipPath id="clip-path"><path fill="none" d="M0 0h297.97v298.4H0z"/></clipPath><style>.cls-4{fill:#fff}</style></defs><g clip-path="url(#clip-path)"><path d="M207.13 286.72a148.45 148.45 0 0079.16-79.16A145.73 145.73 0 00298 149.41a145.72 145.72 0 00-11.7-58.14 152.57 152.57 0 00-31.83-47.55 148.31 148.31 0 00-47.33-32A145.77 145.77 0 00149 0a145.68 145.68 0 00-58.16 11.68 148.07 148.07 0 00-47.33 32 152.19 152.19 0 00-31.83 47.59A145.53 145.53 0 000 149.41a145.54 145.54 0 0011.68 58.15 148.45 148.45 0 0079.16 79.16A145.68 145.68 0 00149 298.4a145.77 145.77 0 0058.15-11.68" fill="#2b4836"/><path class="cls-4" d="M89.68 63.88a1.84 1.84 0 00-1.31.55l-12 12a43.42 43.42 0 000 61.33l84.07 84.07a43.36 43.36 0 0061.33 0l12-12a1.84 1.84 0 000-2.62l-34.83-34.84a1.87 1.87 0 00-2.63 0l-15 15a17.22 17.22 0 01-24.34 0l-46.13-46.13a17.22 17.22 0 010-24.34l15-15a1.87 1.87 0 000-2.63L91 64.42a1.84 1.84 0 00-1.31-.55M191.07 242a50.69 50.69 0 01-36-14.87L71 143.08a50.93 50.93 0 010-71.94l12-12a9.34 9.34 0 0113.24 0L131.14 94a9.37 9.37 0 010 13.24l-15 15a9.73 9.73 0 000 13.73l46.13 46.13a9.71 9.71 0 0013.73 0l15-15a9.37 9.37 0 0113.24 0l34.83 34.83a9.36 9.36 0 010 13.24l-12 12a50.69 50.69 0 01-36 14.87m46.99-105.18a3.75 3.75 0 01-3.75-3.75 69.31 69.31 0 00-69.23-69.23 3.75 3.75 0 010-7.51 76.83 76.83 0 0176.74 76.74 3.75 3.75 0 01-3.75 3.75"/><path class="cls-4" d="M212 136.86a3.75 3.75 0 01-3.75-3.75 43.28 43.28 0 00-43.23-43.23 3.75 3.75 0 110-7.5 50.79 50.79 0 0150.73 50.72 3.75 3.75 0 01-3.75 3.75m-26 .01a3.75 3.75 0 01-3.75-3.75 17.22 17.22 0 00-17.21-17.21 3.75 3.75 0 010-7.51 24.74 24.74 0 0124.72 24.72 3.75 3.75 0 01-3.75 3.75"/></g></svg>