<svg id="Layer_1" data-name="Layer 1" xmlns="http://www.w3.org/2000/svg" viewBox="0 0 50.06 50.06"><defs><clipPath id="clip-path"><path fill="none" d="M0 0h50.06v50.06H0z"/></clipPath><style>.cls-3{fill:#fff}</style></defs><g clip-path="url(#clip-path)"><path class="cls-3" d="M9 2a.5.5 0 00-.35.15L5.44 5.41a11.71 11.71 0 000 16.59l22.67 22.62a11.69 11.69 0 0016.54 0l3.24-3.24a.5.5 0 000-.71l-9.39-9.4a.5.5 0 00-.71 0l-4 4a4.64 4.64 0 01-6.56 0L14.74 22.88a4.64 4.64 0 010-6.56l4-4a.5.5 0 000-.71L9.39 2.17A.5.5 0 009 2m27.34 48a13.67 13.67 0 01-9.7-4L4 23.38A13.73 13.73 0 014 4L7.25.74a2.53 2.53 0 013.57 0l9.39 9.4a2.52 2.52 0 010 3.57l-4 4a2.62 2.62 0 000 3.7l12.4 12.48a2.62 2.62 0 003.7 0l4-4a2.53 2.53 0 013.57 0l9.4 9.39a2.53 2.53 0 010 3.57l-3.24 3.24a13.67 13.67 0 01-9.7 4M49.05 21.7a1 1 0 01-1-1A18.69 18.69 0 0029.37 2a1 1 0 010-2 20.72 20.72 0 0120.69 20.69 1 1 0 01-1 1"/><path class="cls-3" d="M42 21.7a1 1 0 01-1-1A11.67 11.67 0 0029.37 9a1 1 0 010-2A13.7 13.7 0 0143 20.69a1 1 0 01-1 1m-7 .01a1 1 0 01-1-1 4.65 4.65 0 00-4.64-4.64 1 1 0 010-2A6.67 6.67 0 0136 20.69a1 1 0 01-1 1"/></g></svg>