<svg id="Layer_1" data-name="Layer 1" xmlns="http://www.w3.org/2000/svg" viewBox="0 0 36.85 50.06"><defs><clipPath id="clip-path" transform="translate(-6.6)"><path fill="none" d="M6.6 0h36.85v50.06H6.6z"/></clipPath><style>.cls-3{fill:#fff}</style></defs><g clip-path="url(#clip-path)"><path class="cls-3" d="M25 1.76a16.77 16.77 0 00-14.6 24.79C13 31.3 22.19 46.62 22.2 46.64a3.24 3.24 0 005.67 0s9.2-15.33 11.79-20.08A16.77 16.77 0 0025 1.76m0 48.31a5.14 5.14 0 01-4.37-2.58c-.33-.54-9.22-15.38-11.8-20.09A18.53 18.53 0 0125 0a18.53 18.53 0 0116.2 27.39c-2.58 4.72-11.47 19.55-11.8 20.09a5.15 5.15 0 01-4.4 2.58" transform="translate(-6.6)"/><path class="cls-3" d="M25 11a7.4 7.4 0 107.4 7.4A7.41 7.41 0 0025 11m0 16.56a9.16 9.16 0 119.16-9.16A9.17 9.17 0 0125 27.59" transform="translate(-6.6)"/></g></svg>