<svg xmlns="http://www.w3.org/2000/svg" width="32" height="32"><path d="M16 0C7.164 0 0 7.164 0 16c0 8.838 7.164 16 16 16s16-7.162 16-16c0-8.836-7.164-16-16-16zm1.652 19.562c-.992 0-1.926-.535-2.247-1.146 0 0-.534 2.117-.646 2.524-.398 1.444-1.569 2.892-1.659 3.009-.063.082-.204.057-.219-.054-.025-.186-.324-2.006.027-3.491l1.183-5.009s-.294-.586-.294-1.453c0-1.362.79-2.379 1.773-2.379.836 0 1.24.627 1.24 1.379 0 .841-.535 2.099-.812 3.263-.23.976.488 1.771 1.45 1.771 1.739 0 2.913-2.236 2.913-4.888 0-2.014-1.355-3.521-3.823-3.521-2.787 0-4.524 2.08-4.524 4.402 0 .801.236 1.365.606 1.801.17.201.193.284.132.514-.045.168-.145.576-.188.736-.061.233-.25.315-.46.229-1.284-.522-1.882-1.93-1.882-3.512 0-2.609 2.201-5.74 6.568-5.74 3.509 0 5.817 2.539 5.817 5.266.004 3.606-2 6.299-4.955 6.299z"/></svg>