<svg data-name="Layer 1" xmlns="http://www.w3.org/2000/svg" viewBox="0 0 50.01 50.08"><defs><clipPath id="a" transform="translate(-.03 .01)"><path fill="none" d="M.03-.01h50.01v50.08H.03z"/></clipPath></defs><g clip-path="url(#a)"><path d="M19.62 26.71a3 3 0 11-3-3 3 3 0 013 3m-3-5.56a5.59 5.59 0 105.55 5.58 5.55 5.55 0 00-5.55-5.58m14.42-2.87a16.55 16.55 0 00-12.2 0c3.25 1.49 5.43 3.72 6.1 7.26.65-3.55 2.87-5.77 6.1-7.27m5.24 8.46a3 3 0 11-3-3 3 3 0 013 3m2.57 0a5.54 5.54 0 00-5.52-5.61 5.59 5.59 0 105.52 5.61m2.87-9.22l-2.73 3a8.39 8.39 0 012.62 7.12 8.15 8.15 0 01-2.34 4.91 8.47 8.47 0 01-11.7.37l-2.6 2.92-2.66-2.88a8.47 8.47 0 01-7.32 2 8.24 8.24 0 01-4.92-3 8.47 8.47 0 01.9-11.4l-2.73-2.94c.31 0 .48-.07.64-.07h1.51c2.33.16 4.59.06 6.53-1.47a18.85 18.85 0 0118.14 1.09 2.72 2.72 0 001.26.36h5.43m8.22 7.56a24.46 24.46 0 00-2-9.76 25.59 25.59 0 00-5.34-8 24.87 24.87 0 00-7.87-5.31 24.45 24.45 0 00-9.79-2 24.45 24.45 0 00-9.76 2A24.85 24.85 0 007.3 7.34a25.59 25.59 0 00-5.34 8 24.43 24.43 0 00-2 9.76 24.43 24.43 0 002 9.76 24.93 24.93 0 0013.28 13.26 24.45 24.45 0 009.76 2 24.45 24.45 0 009.76-2 24.93 24.93 0 0013.28-13.28 24.46 24.46 0 002-9.76" fill="#fff"/></g></svg>