<?xml version="1.0" encoding="utf-8"?>
<!-- Generator: Adobe Illustrator 19.0.0, SVG Export Plug-In . SVG Version: 6.00 Build 0)  -->
<svg version="1.1" id="Layer_1" xmlns="http://www.w3.org/2000/svg" xmlns:xlink="http://www.w3.org/1999/xlink" x="0px" y="0px"
	 viewBox="391.3 321.4 288 152.1" style="enable-background:new 391.3 321.4 288 152.1;" xml:space="preserve">
<style type="text/css">
	.st0{fill:#FFFFFF;}
</style>
<path class="st0" d="M677.9,429.7h-10V420h11.4v-1.9h-13.5v25.8h13.5v-1.9h-11.5v-10.5h10L677.9,429.7L677.9,429.7z M657.7,418.1
	H641v1.9h7.3v23.9h2V420h7.3V418.1z M628.2,421l4.3,13.9h-8.5L628.2,421z M635.3,443.9h2.1l-8.2-25.8h-1.9l-8.2,25.8h2.1l2.2-7.2
	h9.7L635.3,443.9z M614.5,418.1h-16.7v1.9h7.3v23.9h2V420h7.3L614.5,418.1L614.5,418.1z M588.7,439.6c-0.3,0.6-0.6,1.1-1.1,1.5
	c-0.5,0.4-1,0.7-1.7,1c-0.7,0.2-1.4,0.4-2.2,0.4c-0.7,0-1.5-0.1-2.2-0.3c-0.7-0.2-1.4-0.5-2-1c-0.6-0.5-1-1.1-1.4-1.8
	s-0.5-1.7-0.5-2.8h-2c0,1.4,0.2,2.5,0.7,3.5c0.5,1,1.1,1.8,1.9,2.4c0.8,0.6,1.6,1.1,2.6,1.4c1,0.3,1.9,0.4,2.9,0.4
	c1.1,0,2.1-0.1,3-0.5c0.9-0.3,1.7-0.8,2.4-1.3s1.2-1.3,1.5-2.1s0.6-1.8,0.6-2.8c0-1-0.2-2-0.5-2.8c-0.3-0.8-0.8-1.5-1.4-2.1
	c-0.6-0.6-1.4-1.1-2.3-1.6c-0.9-0.5-1.9-0.9-3.1-1.3c-1-0.3-1.9-0.7-2.7-1.1c-0.7-0.4-1.3-0.8-1.8-1.2c-0.5-0.4-0.8-0.9-1-1.4
	c-0.2-0.5-0.3-1.1-0.3-1.7c0-0.6,0.1-1.3,0.3-1.8c0.2-0.6,0.6-1.1,1-1.5c0.4-0.4,1-0.8,1.6-1c0.7-0.3,1.4-0.4,2.3-0.4
	c0.9,0,1.6,0.1,2.3,0.4c0.7,0.3,1.2,0.7,1.7,1.2c0.5,0.5,0.8,1.1,1.1,1.9c0.2,0.7,0.4,1.5,0.4,2.3h2c0-1.1-0.2-2.1-0.5-3
	c-0.3-0.9-0.8-1.8-1.5-2.5c-0.7-0.7-1.4-1.3-2.4-1.6c-0.9-0.4-2-0.6-3.1-0.6c-1.1,0-2.1,0.2-3,0.5s-1.7,0.8-2.3,1.4
	c-0.6,0.6-1.2,1.3-1.5,2.1c-0.4,0.8-0.5,1.7-0.5,2.7c0,1,0.2,1.9,0.5,2.7c0.3,0.8,0.8,1.4,1.4,2c0.6,0.6,1.4,1.1,2.2,1.5
	c0.9,0.4,1.9,0.8,2.9,1.2c1.1,0.4,2,0.8,2.8,1.1c0.7,0.4,1.3,0.8,1.8,1.2c0.4,0.5,0.8,1,0.9,1.5s0.3,1.2,0.3,1.9
	C589.1,438.3,589,439,588.7,439.6 M567,429.7h-10V420h11.4v-1.9h-13.5v25.8h13.5v-1.9H557v-10.5h10V429.7z M532.6,418.1h-2v22
	l-12.2-22h-2v25.8h2v-22l12.2,22h2L532.6,418.1L532.6,418.1z M506.4,429.7h-10V420h11.4v-1.9h-13.5v25.8h13.5v-1.9h-11.5v-10.5h10
	L506.4,429.7L506.4,429.7z M475.7,420c1.1,0,2.1,0.2,3,0.5c0.9,0.4,1.6,0.9,2.3,1.6c0.6,0.7,1.1,1.6,1.4,2.6c0.3,1,0.5,2.3,0.5,3.6
	v5.2c0,1.4-0.2,2.6-0.5,3.6s-0.8,1.9-1.4,2.6c-0.6,0.7-1.4,1.3-2.3,1.6c-0.9,0.4-1.9,0.5-3.1,0.5h-3.9v-22L475.7,420L475.7,420z
	 M475.6,443.9c1.4,0,2.7-0.2,3.8-0.7s2.1-1.1,2.9-2c0.8-0.9,1.4-2,1.9-3.2c0.4-1.3,0.7-2.8,0.7-4.4v-5.2c0-1.7-0.2-3.1-0.7-4.4
	c-0.4-1.3-1.1-2.4-1.9-3.3s-1.8-1.5-2.9-2c-1.1-0.5-2.4-0.7-3.7-0.7h-6.1V444L475.6,443.9L475.6,443.9z M450.8,418.1h-2v25.8h12.7
	v-1.9h-10.6L450.8,418.1L450.8,418.1z M431.8,421l4.3,13.9h-8.5L431.8,421z M438.8,443.9h2.1l-8.2-25.8h-1.9l-8.2,25.8h2.1l2.2-7.2
	h9.7L438.8,443.9z M393.9,418.1h-2.1l5.5,25.8h1.9l5-20.1l0.5-2.4l0.5,2.4l4.8,20.1h1.9l5.5-25.8h-2.1l-3.8,18.8l-0.7,3.9l-0.8-3.7
	l-4.6-19h-1.8l-4.6,19l-0.8,3.6l-0.6-3.8L393.9,418.1z"/>
<path class="st0" d="M571,457.8h-1.5l4.7,9.8v5.9h1.2v-5.9l4.7-9.8h-1.4l-3.9,8.5L571,457.8z M558.2,458.9h3.1c0.5,0,1,0.1,1.4,0.2
	c0.4,0.2,0.8,0.4,1,0.7c0.3,0.3,0.5,0.7,0.6,1.1c0.1,0.4,0.2,0.9,0.2,1.4c0,0.5-0.1,0.9-0.2,1.3c-0.1,0.4-0.3,0.8-0.6,1.1
	s-0.6,0.6-1,0.8c-0.4,0.2-0.8,0.3-1.3,0.3h-3.3V458.9z M565,473.5h1.3v-0.1l-3.3-6.7c0.4-0.1,0.8-0.4,1.1-0.6c0.3-0.3,0.6-0.6,0.9-1
	s0.4-0.8,0.5-1.2c0.1-0.5,0.2-0.9,0.2-1.5c0-0.8-0.1-1.4-0.3-2c-0.2-0.6-0.5-1.1-0.9-1.5c-0.4-0.4-0.9-0.7-1.4-0.9
	c-0.6-0.2-1.2-0.3-1.9-0.3h-4.3v15.7h1.2v-6.5h3.7L565,473.5z M550.9,464.8h-6.1v-5.9h7v-1.2h-8.2v15.7h8.2v-1.1h-7V466h6.1V464.8
	L550.9,464.8z M537.4,457.8h-1.2v7h-7.4v-7h-1.2v15.7h1.2V466h7.4v7.5h1.2V457.8z M520.8,470.8c-0.1,0.4-0.4,0.7-0.7,0.9
	c-0.3,0.3-0.6,0.5-1,0.6c-0.4,0.1-0.9,0.2-1.4,0.2c-0.5,0-0.9-0.1-1.3-0.2c-0.4-0.1-0.8-0.3-1.2-0.6c-0.4-0.3-0.6-0.6-0.9-1.1
	c-0.2-0.5-0.3-1-0.3-1.7h-1.2c0,0.8,0.1,1.5,0.4,2.1c0.3,0.6,0.7,1.1,1.1,1.5c0.5,0.4,1,0.7,1.6,0.8c0.6,0.2,1.2,0.3,1.8,0.3
	c0.7,0,1.3-0.1,1.8-0.3c0.5-0.2,1-0.5,1.4-0.8c0.4-0.4,0.7-0.8,0.9-1.3c0.2-0.5,0.3-1.1,0.3-1.7c0-0.6-0.1-1.2-0.3-1.7
	c-0.2-0.5-0.5-0.9-0.8-1.3s-0.8-0.7-1.4-1c-0.5-0.3-1.2-0.5-1.9-0.8c-0.6-0.2-1.2-0.4-1.6-0.7s-0.8-0.5-1.1-0.8
	c-0.3-0.3-0.5-0.6-0.6-0.9s-0.2-0.7-0.2-1c0-0.4,0.1-0.8,0.2-1.1c0.1-0.4,0.3-0.6,0.6-0.9c0.3-0.3,0.6-0.5,1-0.6
	c0.4-0.1,0.9-0.2,1.4-0.2c0.5,0,1,0.1,1.4,0.3c0.4,0.2,0.8,0.4,1,0.7c0.3,0.3,0.5,0.7,0.6,1.1c0.1,0.4,0.2,0.9,0.2,1.4h1.2
	c0-0.6-0.1-1.3-0.3-1.8c-0.2-0.6-0.5-1.1-0.9-1.5c-0.4-0.4-0.9-0.8-1.4-1s-1.2-0.4-1.9-0.4c-0.6,0-1.3,0.1-1.8,0.3
	c-0.5,0.2-1,0.5-1.4,0.8c-0.4,0.4-0.7,0.8-0.9,1.3c-0.2,0.5-0.3,1-0.3,1.7c0,0.6,0.1,1.2,0.3,1.6s0.5,0.9,0.9,1.2s0.8,0.6,1.3,0.9
	c0.5,0.3,1.1,0.5,1.8,0.7c0.7,0.2,1.2,0.5,1.7,0.7s0.8,0.5,1.1,0.8c0.3,0.3,0.5,0.6,0.6,0.9c0.1,0.3,0.2,0.7,0.2,1.1
	C521,470.1,521,470.5,520.8,470.8 M507.3,457.8h-1.2v15.7h1.2V457.8z M499.9,465h-6v-6.1h7v-1.2h-8.2v15.7h1.2v-7.3h6L499.9,465
	L499.9,465z"/>
<path class="st0" d="M619.2,323.8c0-0.3-0.1-0.6-0.1-0.8c0-0.3-0.2-0.5-0.3-0.8c-0.1-0.1-1-1.1-2.2-0.1
	c-20.9,15.9-37.4,40.9-47.3,58.6c-7.1-12.6-17.5-29-30.5-43.1c1-1.1,2-2.2,2.9-3.2c0.4,0.6,1,0.9,1.5,0.9c0,0,0.1,0,0.1,0
	c0.3,0,1.3-0.2,1.7-1.6c0.1-0.5,0.2-1.1,0.1-1.7c0-0.4-0.1-0.7-0.2-1c2.3-2.3,4.2-4.1,5.7-5.5c0,0,0,0.1,0.1,0.1
	c0.2,0.2,0.5,0.3,0.7,0.3c0,0,0,0,0.1,0c0.6,0,1.3-0.6,1.2-2.1c0-0.3-0.1-0.6-0.1-0.8c0-0.3-0.2-0.5-0.3-0.7c-0.1-0.1-1-1.1-2.2-0.1
	c-4.9,3.8-9.6,8-14,12.6c-4.4-4.6-9.1-8.8-14-12.6c-1.3-1-2.1,0-2.2,0.1c-0.2,0.2-0.3,0.4-0.3,0.7c-0.1,0.2-0.1,0.5-0.1,0.8
	c-0.1,1.5,0.5,2.1,1.2,2.1c0,0,0,0,0.1,0c0.2,0,0.5-0.1,0.8-0.4c1.5,1.4,3.4,3.2,5.7,5.5c-0.1,0.3-0.1,0.6-0.1,1
	c0,0.6,0,1.2,0.1,1.7c0.4,1.4,1.4,1.6,1.7,1.6c0,0,0.1,0,0.1,0c0.5,0,1.1-0.3,1.5-0.9c0.9,1,1.9,2,2.9,3.2
	c-13,14.1-23.4,30.5-30.5,43.1c-10-17.7-26.5-42.8-47.3-58.6c-1.3-1-2.1,0-2.2,0.1c-0.2,0.2-0.3,0.4-0.3,0.7
	c-0.1,0.2-0.1,0.5-0.1,0.8c-0.1,1.5,0.5,2.1,1.2,2.1c0,0,0,0,0.1,0c0.2,0,0.5-0.1,0.8-0.4c1.5,1.4,3.4,3.2,5.7,5.5
	c-0.1,0.3-0.1,0.6-0.1,1c0,0.6,0,1.2,0.1,1.7c0.4,1.4,1.4,1.6,1.7,1.6c0,0,0.1,0,0.1,0c0.5,0,1.1-0.3,1.5-0.9
	c2.8,2.9,5.8,6.4,9.1,10.4c-0.1,0.4-0.2,0.9-0.2,1.4c-0.2,2.3,0.6,3.9,2,4c0,0,0.1,0,0.1,0c0.4,0,0.9-0.2,1.2-0.5
	c0.2-0.1,0.3-0.3,0.4-0.5c2.4,3.1,5,6.6,7.5,10.3c-0.2,0.6-0.4,1.4-0.4,2.1c-0.2,2.5,0.6,4.1,2,4.2l0,0c0,0,0.1,0,0.1,0
	c0.7,0,1.3-0.4,1.7-1.1c2.5,3.8,5,7.9,7.4,12.2c-0.3,0.7-0.4,1.5-0.5,2.5c-0.2,2.9,0.7,4.8,2.2,4.9c0,0,0.1,0,0.1,0
	c0.7,0,1.2-0.4,1.7-1c0.5,0.9,1,1.8,1.4,2.8c-4.8,9-7.5,15.1-7.6,15.3l0.9,0.4l0,0l0.5,0.2l0,0l0,0l0,0l1.4,0.6c0,0,0,0,0,0l0.9,0.4
	l0,0l0.3,0.1l0.1,0l0,0l0,0l1.4,0.6c1.6-4,3.3-7.8,5.1-11.5c1.8,3.7,3.5,7.5,5.1,11.5l1.4-0.6l0,0l0,0l0.1,0l0.3-0.1l0,0l0.9-0.4
	c0,0,0,0,0,0l1.4-0.6l0,0l0,0l0,0l0.5-0.2l0,0l0.9-0.4c-0.1-0.2-2.7-6.3-7.6-15.3c0.5-0.9,0.9-1.8,1.4-2.8c0.5,0.6,1,1,1.7,1
	c0,0,0.1,0,0.1,0c1.6-0.1,2.5-2,2.3-4.9c-0.1-1-0.3-1.8-0.5-2.5c2.5-4.3,4.9-8.4,7.4-12.2c0.4,0.7,1,1.1,1.7,1.1c0,0,0.1,0,0.1,0
	l0,0c1.4-0.1,2.2-1.7,2-4.2c-0.1-0.8-0.2-1.5-0.4-2.1c2.5-3.7,5.1-7.1,7.5-10.3c0.1,0.2,0.3,0.4,0.4,0.5c0.3,0.3,0.8,0.5,1.2,0.5
	c0,0,0.1,0,0.1,0c1.4-0.1,2.2-1.6,2-3.9c0-0.5-0.1-1-0.2-1.4c1.2-1.4,2.3-2.8,3.4-4.1c1.1,1.3,2.3,2.6,3.4,4.1
	c-0.1,0.4-0.2,0.9-0.2,1.4c-0.2,2.3,0.6,3.9,2,3.9c0,0,0.1,0,0.1,0c0.4,0,0.9-0.2,1.2-0.5c0.2-0.1,0.3-0.3,0.4-0.5
	c2.4,3.1,5,6.6,7.5,10.3c-0.2,0.6-0.4,1.4-0.4,2.1c-0.2,2.5,0.6,4.1,2,4.2l0,0c0,0,0.1,0,0.1,0c0.7,0,1.3-0.4,1.7-1.1
	c2.5,3.8,5,7.9,7.4,12.2c-0.3,0.7-0.4,1.5-0.5,2.5c-0.2,2.9,0.7,4.8,2.3,4.9c0,0,0.1,0,0.1,0c0.7,0,1.2-0.4,1.7-1
	c0.5,0.9,1,1.8,1.4,2.8c-4.8,9-7.5,15.1-7.6,15.3l1.4,0.6l0,0l0,0l0,0l0.4,0.2l0,0l0.9,0.4c0,0,0,0,0,0l2.7,1.1
	c1.6-4,3.3-7.8,5.1-11.5c1.8,3.7,3.5,7.5,5.1,11.5l1.4-0.6l0,0l0,0l1.3-0.5c0,0,0,0,0,0l0.9-0.4l0,0l0.4-0.2l0,0l0,0l1.4-0.6
	c-0.1-0.2-2.7-6.3-7.6-15.3c0.5-0.9,0.9-1.8,1.4-2.8c0.5,0.6,1,1,1.7,1c0,0,0.1,0,0.1,0c0.6,0,1.6-0.4,2-2.1
	c0.2-0.8,0.3-1.8,0.2-2.8c-0.1-1-0.3-1.8-0.5-2.5c2.5-4.3,4.9-8.4,7.4-12.2c0.4,0.7,1,1.1,1.7,1.1c0,0,0.1,0,0.1,0l0,0
	c1.4-0.1,2.2-1.7,2-4.2c-0.1-0.8-0.2-1.5-0.4-2.1c2.5-3.7,5.1-7.1,7.5-10.3c0.1,0.2,0.3,0.4,0.4,0.5c0.3,0.3,0.8,0.5,1.2,0.5
	c0,0,0.1,0,0.1,0c1.4-0.1,2.2-1.6,2-3.9c0-0.5-0.1-1-0.2-1.4c3.3-4,6.3-7.5,9.1-10.4c0.4,0.6,1,0.9,1.5,0.9c0,0,0.1,0,0.1,0
	c1-0.1,2-1,1.8-3.3c0-0.4-0.1-0.7-0.1-1c2.3-2.3,4.2-4.1,5.7-5.5c0.3,0.3,0.6,0.4,0.8,0.4c0,0,0,0,0.1,0
	C618.7,325.8,619.3,325.3,619.2,323.8z"/>
</svg>
