<?xml version="1.0" encoding="utf-8"?>
<!-- Generator: Adobe Illustrator 19.0.0, SVG Export Plug-In . SVG Version: 6.00 Build 0)  -->
<svg version="1.1" id="Layer_1" xmlns="http://www.w3.org/2000/svg" xmlns:xlink="http://www.w3.org/1999/xlink" x="0px" y="0px"
	 viewBox="0 0 118.2 58.2" enable-background="new 0 0 118.2 58.2" xml:space="preserve">
<g id="XMLID_2_">
	<defs>
		<rect id="XMLID_3_" width="118.2" height="58.2"/>
	</defs>
	<clipPath id="XMLID_44_">
		<use xlink:href="#XMLID_3_"  overflow="visible"/>
	</clipPath>
	<path id="XMLID_4_" clip-path="url(#XMLID_44_)" fill="#083F61" d="M118.2,1.5c0-0.2-0.1-0.4-0.1-0.6c0-0.2-0.1-0.4-0.2-0.5
		c-0.1-0.1-0.7-0.8-1.6-0.1c-14.8,11.3-26.5,29-33.6,41.6c-5-9-12.4-20.6-21.6-30.6c0.7-0.8,1.4-1.5,2.1-2.2
		c0.3,0.4,0.7,0.6,1.1,0.6c0,0,0.1,0,0.1,0c0.2,0,0.9-0.1,1.2-1.2c0.1-0.3,0.1-0.8,0.1-1.2c0-0.2-0.1-0.5-0.1-0.7
		c1.6-1.6,3-2.9,4-3.9c0,0,0,0,0,0.1C69.7,2.9,69.9,3,70.1,3c0,0,0,0,0.1,0C70.6,3,71,2.5,71,1.5c0-0.2-0.1-0.4-0.1-0.6
		c0-0.2-0.1-0.4-0.2-0.5c-0.1-0.1-0.7-0.8-1.6-0.1C65.6,3,62.2,6,59.1,9.2C56,6,52.6,3,49.1,0.3c-0.9-0.7-1.5,0-1.6,0.1
		c-0.1,0.1-0.2,0.3-0.2,0.5c0,0.2-0.1,0.3-0.1,0.6C47.2,2.5,47.6,3,48.1,3c0,0,0,0,0,0c0.1,0,0.4,0,0.6-0.3c1.1,1,2.4,2.2,4,3.9
		c0,0.2-0.1,0.4-0.1,0.7c0,0.4,0,0.9,0.1,1.2c0.3,1,1,1.2,1.2,1.2c0,0,0.1,0,0.1,0c0.4,0,0.8-0.2,1.1-0.6c0.7,0.7,1.3,1.5,2.1,2.2
		c-9.2,10-16.6,21.6-21.6,30.6C28.4,29.3,16.7,11.6,1.9,0.3C1-0.4,0.4,0.3,0.3,0.4C0.2,0.5,0.1,0.7,0.1,0.9C0.1,1.1,0,1.3,0,1.5
		C-0.1,2.5,0.4,3,0.8,3c0,0,0,0,0,0C1,3,1.2,3,1.5,2.7c1.1,1,2.4,2.3,4,3.9c0,0.2-0.1,0.4-0.1,0.7c0,0.4,0,0.9,0.1,1.2
		c0.3,1,1,1.2,1.2,1.2c0,0,0.1,0,0.1,0c0.4,0,0.8-0.2,1.1-0.6c1.9,2.1,4.1,4.5,6.5,7.4c-0.1,0.3-0.1,0.6-0.2,1
		c-0.1,1.7,0.4,2.7,1.4,2.8c0,0,0.1,0,0.1,0c0.3,0,0.6-0.1,0.9-0.3c0.1-0.1,0.2-0.2,0.3-0.4c1.7,2.2,3.5,4.7,5.3,7.3
		c-0.2,0.4-0.3,1-0.3,1.5c-0.1,1.8,0.4,2.9,1.5,3h0c0,0,0.1,0,0.1,0c0.5,0,0.9-0.3,1.2-0.8c1.8,2.7,3.5,5.6,5.3,8.6
		c-0.2,0.5-0.3,1.1-0.4,1.8c-0.1,2.1,0.5,3.4,1.6,3.5c0,0,0.1,0,0.1,0c0.5,0,0.9-0.2,1.2-0.7c0.3,0.6,0.7,1.3,1,1.9
		C30,52.1,28.1,56.4,28,56.6l0.6,0.3L29,57h0h0l0,0l1,0.4c0,0,0,0,0,0l0.6,0.3l0.2,0.1l0.1,0l0,0l1,0.4c1.2-2.8,2.4-5.6,3.6-8.2
		c1.2,2.6,2.5,5.3,3.6,8.2l1-0.4l0,0l0.1,0l0.2-0.1l0.6-0.3c0,0,0,0,0,0l1-0.4l0,0l0.3-0.1l0.6-0.3c-0.1-0.1-1.9-4.5-5.4-10.9
		c0.3-0.7,0.7-1.3,1-1.9c0.3,0.4,0.7,0.7,1.2,0.7c0,0,0.1,0,0.1,0c1.1-0.1,1.7-1.4,1.6-3.5c0-0.7-0.2-1.3-0.4-1.8
		c1.7-3.1,3.5-5.9,5.3-8.6c0.3,0.5,0.7,0.8,1.2,0.8c0,0,0.1,0,0.1,0h0c1-0.1,1.6-1.2,1.5-3c0-0.6-0.2-1.1-0.3-1.5
		c1.8-2.6,3.6-5,5.3-7.3c0.1,0.1,0.2,0.3,0.3,0.4c0.2,0.2,0.5,0.3,0.9,0.3c0,0,0.1,0,0.1,0c1-0.1,1.5-1.1,1.4-2.8
		c0-0.4-0.1-0.7-0.2-1c0.8-1,1.6-2,2.4-2.9c0.8,0.9,1.6,1.9,2.4,2.9c-0.1,0.3-0.1,0.6-0.2,1c-0.1,1.7,0.4,2.7,1.4,2.8
		c0,0,0.1,0,0.1,0c0.3,0,0.6-0.1,0.9-0.3c0.1-0.1,0.2-0.2,0.3-0.4c1.7,2.2,3.5,4.7,5.3,7.3c-0.2,0.4-0.3,1-0.3,1.5
		c-0.1,1.8,0.4,2.9,1.5,3h0c0,0,0.1,0,0.1,0c0.5,0,0.9-0.3,1.2-0.8c1.8,2.7,3.5,5.6,5.3,8.6c-0.2,0.5-0.3,1.1-0.4,1.8
		c-0.1,2.1,0.5,3.4,1.6,3.5c0,0,0.1,0,0.1,0c0.5,0,0.9-0.2,1.2-0.7c0.3,0.6,0.7,1.3,1,1.9c-3.4,6.4-5.3,10.7-5.4,10.9l1,0.4l0,0
		l0.3,0.1l0.6,0.3c0,0,0,0,0,0l1.9,0.8c1.2-2.8,2.4-5.6,3.6-8.2c1.2,2.6,2.5,5.3,3.6,8.2l1-0.4l0,0l0.9-0.4c0,0,0,0,0,0l0.6-0.3
		l0.3-0.1l0,0l1-0.4c-0.1-0.1-1.9-4.5-5.4-10.9c0.3-0.7,0.7-1.3,1-1.9c0.3,0.4,0.7,0.7,1.2,0.7c0,0,0.1,0,0.1,0
		c0.4,0,1.1-0.3,1.4-1.5c0.1-0.6,0.2-1.3,0.1-2c-0.1-0.7-0.2-1.3-0.4-1.8c1.7-3.1,3.5-5.9,5.3-8.6c0.3,0.5,0.7,0.8,1.2,0.8
		c0,0,0.1,0,0.1,0c1-0.1,1.6-1.2,1.5-3c0-0.6-0.2-1.1-0.3-1.5c1.8-2.6,3.6-5,5.3-7.3c0.1,0.1,0.2,0.3,0.3,0.4
		c0.2,0.2,0.5,0.3,0.9,0.3c0,0,0.1,0,0.1,0c1-0.1,1.5-1.1,1.4-2.8c0-0.4-0.1-0.7-0.2-1c2.3-2.8,4.5-5.3,6.5-7.4
		c0.3,0.4,0.7,0.6,1.1,0.6c0,0,0.1,0,0.1,0c0.7,0,1.4-0.7,1.3-2.4c0-0.3-0.1-0.5-0.1-0.7c1.6-1.6,3-2.9,4-3.9C117,3,117.2,3,117.3,3
		c0,0,0,0,0,0C117.8,3,118.3,2.5,118.2,1.5"/>
</g>
</svg>
