<svg id="Layer_1" data-name="Layer 1" xmlns="http://www.w3.org/2000/svg" xmlns:xlink="http://www.w3.org/1999/xlink" viewBox="0 0 27.31 27.34"><defs><style>.cls-1,.cls-4{fill:none;}.cls-2{clip-path:url(#clip-path);}.cls-3{fill:#2b4836;}.cls-4{stroke:#fff;}</style><clipPath id="clip-path" transform="translate(0 0)"><rect class="cls-1" width="27.31" height="27.34"/></clipPath></defs><title>clock-icon</title><g class="cls-2"><path class="cls-3" d="M19,26.27A13.6,13.6,0,0,0,26.24,19a13.35,13.35,0,0,0,1.07-5.33,13.35,13.35,0,0,0-1.07-5.33A14,14,0,0,0,23.32,4,13.59,13.59,0,0,0,19,1.07,13.36,13.36,0,0,0,13.65,0,13.35,13.35,0,0,0,8.32,1.07,13.57,13.57,0,0,0,4,4,14,14,0,0,0,1.07,8.36,13.34,13.34,0,0,0,0,13.69,13.34,13.34,0,0,0,1.07,19a13.6,13.6,0,0,0,7.25,7.25,13.35,13.35,0,0,0,5.33,1.07A13.36,13.36,0,0,0,19,26.27" transform="translate(0 0)"/><path class="cls-4" d="M8.46,14.38h5.9V8.09M24,13.67A10.37,10.37,0,1,1,13.65,3.3,10.37,10.37,0,0,1,24,13.67Z" transform="translate(0 0)"/></g></svg>