<svg id="Layer_1" data-name="Layer 1" xmlns="http://www.w3.org/2000/svg" xmlns:xlink="http://www.w3.org/1999/xlink" viewBox="0 0 50.06 50.06"><defs><style>.cls-1,.cls-3{fill:none;}.cls-2{clip-path:url(#clip-path);}.cls-3{stroke:#fff;stroke-linecap:round;stroke-linejoin:round;stroke-width:2.01px;}</style><clipPath id="clip-path" transform="translate(0 0)"><rect class="cls-1" width="50.06" height="50.06"/></clipPath></defs><title>mail-icon</title><g class="cls-2"><path class="cls-3" d="M37,25.08H13V25H37v0.1Zm0-6H13V19H37v0.1Zm-9.23-17a4.21,4.21,0,0,0-5.56,0L13.34,9H36.72ZM3.58,16.65a8,8,0,0,0-2,2.86L7,24.5V14Zm44.88,2.86a8,8,0,0,0-2-2.86L43.05,14V24.5Zm-2-2.86L43.05,14v10.6L32.76,34l-5.08-4.68a4,4,0,0,0-5.29,0L17.31,34,7,24.56V14L3.58,16.65A8,8,0,0,0,1,22.53V45.05a4,4,0,0,0,4,4h40a4,4,0,0,0,4-4V22.53A8,8,0,0,0,46.49,16.65ZM43.05,13a4,4,0,0,0-4-4H11a4,4,0,0,0-4,4V24.56L17.31,34l5.08-4.68a4,4,0,0,1,5.29,0L32.76,34l10.29-9.48V13ZM22.39,29.36L2.28,48a4,4,0,0,0,1.77,1H46a4,4,0,0,0,1.77-1L27.68,29.36A4,4,0,0,0,22.39,29.36Z" transform="translate(0 0)"/></g></svg>