<svg id="Layer_1" data-name="Layer 1" xmlns="http://www.w3.org/2000/svg" xmlns:xlink="http://www.w3.org/1999/xlink" viewBox="0 0 297.97 298.4"><defs><style>.cls-1{fill:none;}.cls-2{clip-path:url(#clip-path);}.cls-3{fill:#2b4836;}.cls-4{fill:#fff;}</style><clipPath id="clip-path" transform="translate(0 0)"><rect class="cls-1" width="297.97" height="298.4"/></clipPath></defs><title>phone-icon</title><g class="cls-2"><path class="cls-3" d="M207.13,286.72a148.45,148.45,0,0,0,79.16-79.16A145.73,145.73,0,0,0,298,149.41,145.72,145.72,0,0,0,286.3,91.27a152.57,152.57,0,0,0-31.83-47.55,148.31,148.31,0,0,0-47.33-32A145.77,145.77,0,0,0,149,0,145.68,145.68,0,0,0,90.84,11.68a148.07,148.07,0,0,0-47.33,32A152.19,152.19,0,0,0,11.68,91.27,145.53,145.53,0,0,0,0,149.41a145.54,145.54,0,0,0,11.68,58.15,148.45,148.45,0,0,0,79.16,79.16A145.68,145.68,0,0,0,149,298.4a145.77,145.77,0,0,0,58.15-11.68" transform="translate(0 0)"/><path class="cls-4" d="M89.68,63.88a1.84,1.84,0,0,0-1.31.55l-12,12a43.42,43.42,0,0,0,0,61.33l84.07,84.07a43.36,43.36,0,0,0,61.33,0l12-12a1.84,1.84,0,0,0,0-2.62l-34.83-34.84a1.87,1.87,0,0,0-2.63,0l-15,15a17.22,17.22,0,0,1-24.34,0l-46.13-46.13a17.22,17.22,0,0,1,0-24.34l15-15a1.87,1.87,0,0,0,0-2.63L91,64.42a1.84,1.84,0,0,0-1.31-.55M191.07,242a50.69,50.69,0,0,1-36-14.87L71,143.08a50.93,50.93,0,0,1,0-71.94l12-12a9.34,9.34,0,0,1,13.24,0L131.14,94a9.37,9.37,0,0,1,0,13.24l-15,15a9.73,9.73,0,0,0,0,13.73l46.13,46.13a9.71,9.71,0,0,0,13.73,0l15-15a9.37,9.37,0,0,1,13.24,0l34.83,34.83a9.36,9.36,0,0,1,0,13.24l-12,12a50.69,50.69,0,0,1-36,14.87" transform="translate(0 0)"/><path class="cls-4" d="M238.06,136.86a3.75,3.75,0,0,1-3.75-3.75,69.31,69.31,0,0,0-69.23-69.23,3.75,3.75,0,0,1,0-7.51,76.83,76.83,0,0,1,76.74,76.74,3.75,3.75,0,0,1-3.75,3.75" transform="translate(0 0)"/><path class="cls-4" d="M212,136.86a3.75,3.75,0,0,1-3.75-3.75,43.28,43.28,0,0,0-43.23-43.23,3.75,3.75,0,1,1,0-7.5,50.79,50.79,0,0,1,50.73,50.72,3.75,3.75,0,0,1-3.75,3.75" transform="translate(0 0)"/><path class="cls-4" d="M186,136.86a3.75,3.75,0,0,1-3.75-3.75,17.22,17.22,0,0,0-17.21-17.21,3.75,3.75,0,0,1,0-7.51,24.74,24.74,0,0,1,24.72,24.72,3.75,3.75,0,0,1-3.75,3.75" transform="translate(0 0)"/></g></svg>