<svg version="1.1" id="Layer_1" xmlns="http://www.w3.org/2000/svg" xmlns:xlink="http://www.w3.org/1999/xlink" x="0" y="0" viewBox="0 0 31.9 29.5" xml:space="preserve"><style>.st0{clip-path:url(#XMLID_126_);fill:none;stroke:#fff;stroke-width:1.5;stroke-linejoin:round}</style><g id="XMLID_6_"><defs><path id="XMLID_7_" d="M0 0h31.9v29.5H0z"/></defs><clipPath id="XMLID_126_"><use xlink:href="#XMLID_7_" overflow="visible"/></clipPath><path id="XMLID_110_" class="st0" d="M10.4 2.9h11.2m2.4 0h5c1.4 0 2.5 1.1 2.5 2.5v21.1c0 1.4-1.1 2.5-2.5 2.5H3C1.6 29 .5 27.9.5 26.5V5.4C.5 4 1.6 2.9 3 2.9h5"/><path id="XMLID_8_" class="st0" d="M17.8 24h2.5m-8.7 0h2.5m-8.7 0h2.5M24 19.1h2.5m-8.7 0h2.5m-8.7 0h2.5m-8.7 0h2.5m16.1-5h2.5m-8.7 0h2.5m-8.7 0h2.5m-8.7 0h2.5M24 5.4c0 .7-.6 1.2-1.2 1.2s-1.2-.6-1.2-1.2V1.7c0-.7.6-1.2 1.2-1.2S24 1 24 1.7v3.7zm-13.6 0c0 .7-.6 1.2-1.2 1.2C8.5 6.6 8 6 8 5.4V1.7C8 1 8.6.5 9.2.5c.7 0 1.2.6 1.2 1.2v3.7zM.5 9.1H29"/></g></svg>