<svg xmlns="http://www.w3.org/2000/svg" xmlns:xlink="http://www.w3.org/1999/xlink" viewBox="0 0 31.9 33.3"><defs><path id="a" d="M0 0h31.9v33.3H0z"/></defs><clipPath id="b"><use xlink:href="#a" overflow="visible"/></clipPath><path d="M17.3 19.4v-2.7s-3.1-3.2-4.7-2.7c-1.1.4-1.1 1.6-.7 2.6l4.3 8.1c.2.5.3 1 .1 1.6-.2.9-.9 1.6-1.8 1.8-1.2.3-2.3-.3-2.8-1.2l-8-11.4c-.8-1.2-1.2-2.6-1.2-4.1V4.5l-2-4m11.4 0l8.8 10.6c.8 1 1.2 2.2 1.2 3.4V21" clip-path="url(#b)" fill="none" stroke="#fff" stroke-width="1.5" stroke-linecap="round" stroke-linejoin="round" stroke-miterlimit="10"/><path d="M13.9 20.2c1-.5 2.2-.8 3.4-.8 4.1 0 7.4 3.3 7.4 7.4 0 2.5-1.2 4.7-3.1 6.1m-8.5-.1c-1.9-1.3-3.1-3.5-3.1-6.1 0-.7.1-1.4.3-2.1m13.6 5.5h7.5v2.7H3.2v-2.7h7.5" clip-path="url(#b)" fill="none" stroke="#fff" stroke-width="1.5" stroke-linejoin="round" stroke-miterlimit="10"/></svg>