<svg version="1.1" id="Layer_1" xmlns="http://www.w3.org/2000/svg" xmlns:xlink="http://www.w3.org/1999/xlink" x="0" y="0" viewBox="0 0 31.9 26.9" xml:space="preserve"><style>.st0{clip-path:url(#XMLID_148_);fill:none;stroke:#fff;stroke-width:1.5;stroke-linejoin:round}</style><g id="XMLID_99_"><defs><path id="XMLID_100_" d="M0 0h31.9v26.9H0z"/></defs><clipPath id="XMLID_148_"><use xlink:href="#XMLID_100_" overflow="visible"/></clipPath><path id="XMLID_130_" class="st0" d="M21.1 18.8h-2.3m-2.3 0h-5.8M18.8 5H7.3v17.3h13.8m8.1 0h1.7c.3 0 .6-.3.6-.6v-16c0-.4-.3-.6-.6-.6h-1.7"/><path id="XMLID_102_" class="st0" d="M25.2.4c1 0 1.7.8 1.7 1.7v20.1c0 2.3-1.7 4-1.7 4s-1.7-1.7-1.7-4v-20c-.1-1 .7-1.8 1.7-1.8zM7.3 5c0-1.9-1.5-3.5-3.5-3.5S.4 3.1.4 5v17.3m6.9 0c0-2.1-2-3.8-4.2-3.4-1.3.3-2.4 1.3-2.6 2.6-.5 2.2 1.2 4.2 3.4 4.2h12.7c.3 0 .6-.3.6-.6v-2.9"/><path id="XMLID_101_" class="st0" d="M26.9 3.9h-4.6c-.6 0-1.2.5-1.2 1.2v5.4"/></g><path id="XMLID_98_" fill="none" stroke="#fff" stroke-width="1.5" stroke-linejoin="round" d="M23.4 20.6h3.5"/><g id="XMLID_8_"><defs><path id="XMLID_96_" d="M0 0h31.9v26.9H0z"/></defs><clipPath id="XMLID_149_"><use xlink:href="#XMLID_96_" overflow="visible"/></clipPath><path id="XMLID_97_" clip-path="url(#XMLID_149_)" fill="none" stroke="#fff" stroke-width="1.5" stroke-linejoin="round" d="M25.2 26.9v-.6"/></g></svg>