<svg xmlns="http://www.w3.org/2000/svg" xmlns:xlink="http://www.w3.org/1999/xlink" viewBox="0 0 51.7 51.7"><defs><path id="a" d="M0 0h51.7v51.7H0z"/></defs><clipPath id="b"><use xlink:href="#a" overflow="visible"/></clipPath><path d="M38.4 25.9H13.3v-.1h25.1v.1zm0-6.3H13.3v-.1h25.1v.1zM28.7 1.8C27 .3 24.6.3 22.9 1.8l-9.3 7.3H38l-9.3-7.3zM3.4 17.1c-.9.8-1.6 1.9-2.1 3L7 25.3v-11l-3.6 2.8zm46.9 3c-.5-1.1-1.2-2.1-2.1-3l-3.6-2.8v11l5.7-5.2zm-2-3l-3.6-2.8v11.1l-10.8 9.9-5.3-4.9c-1.6-1.4-3.9-1.4-5.5 0l-5.3 4.9L7 25.4V14.3l-3.6 2.8C1.7 18.7.7 20.9.7 23.2v23.5c0 1.2.5 2.2 1.3 3 .8.7 1.8 1.2 2.9 1.2h41.8c1.1 0 2.1-.5 2.9-1.2.8-.8 1.3-1.8 1.3-3V23.2c0-2.3-.9-4.5-2.6-6.1zm-3.6-3.8c0-2.3-1.9-4.2-4.2-4.2H11.2C8.9 9.1 7 11 7 13.3v12.1l10.8 9.9 5.3-4.9c1.6-1.4 3.9-1.4 5.5 0l5.3 4.9 10.8-9.9V13.3zM23.1 30.4l-21 19.4c.5.5 1.1.8 1.8 1h43.8c.7-.2 1.3-.5 1.8-1l-21-19.4c-1.5-1.4-3.8-1.4-5.4 0z" clip-path="url(#b)" fill="none" stroke="#fff" stroke-width="1.5" stroke-linejoin="round"/></svg>