<svg xmlns="http://www.w3.org/2000/svg" viewBox="0 0 183 46"><path d="M16.9 14.9c-.1-.9-.4-1.6-1-2.1-.5-.5-1.2-.8-2.1-.8-.8 0-1.5.3-2.1.8-.5.5-.9 1.2-1 2.1h6.2zM14 26.5c-1.6 0-3.1-.3-4.3-.8-1.3-.5-2.3-1.2-3.2-2.1-.9-.9-1.5-1.9-2-3-.4-1.1-.7-2.3-.7-3.6 0-1.3.2-2.6.7-3.8.4-1.2 1.1-2.2 1.9-3.1.9-.9 1.9-1.6 3.2-2.1 1.3-.5 2.7-.8 4.4-.8 1.6 0 3.1.3 4.4.8 1.3.5 2.3 1.2 3.2 2.1.9.9 1.5 1.9 1.9 3.1.4 1.2.7 2.4.7 3.6 0 .4 0 .7-.1 1.1 0 .4-.1.7-.1 1H11c.1 1 .4 1.7 1.1 2.1.7.4 1.4.7 2.1.7.7 0 1.4-.2 2.1-.5.6-.3 1.1-.8 1.3-1.4l5.7 1.6c-.8 1.5-1.9 2.7-3.5 3.6-1.6 1-3.6 1.5-5.8 1.5zm30.9-.4h-6.7V15.7c0-.9-.2-1.6-.6-2-.4-.4-.9-.6-1.4-.6-.6 0-1.2.2-1.8.7-.6.5-1.1 1.1-1.4 1.9v10.4h-6.7V7.6h6v2.7c.7-1 1.6-1.8 2.8-2.3 1.2-.5 2.6-.8 4.2-.8 1.3 0 2.3.2 3 .7.7.5 1.3 1.1 1.7 1.8.4.7.6 1.4.8 2.2.1.8.2 1.5.2 2.1v12.1h-.1zm16.3-1c-.9.4-1.9.7-3 1-1.1.3-2.1.4-3.2.4-.8 0-1.5-.1-2.1-.3-.7-.2-1.3-.5-1.8-.9s-.9-1-1.2-1.7c-.3-.7-.4-1.5-.4-2.5v-8.5h-2.3v-5h2.3V1.8h6.7v5.8h3.6v5h-3.6v6.1c0 .6.1 1 .4 1.3.3.2.6.4 1.1.4.3 0 .7-.1 1.1-.2.4-.1.8-.3 1.3-.4l1.1 5.3zm1.9 1V7.6h6.7v18.5h-6.7zm23-1c-.9.4-1.9.7-3 1-1.1.3-2.1.4-3.1.4-.8 0-1.5-.1-2.1-.3-.7-.2-1.3-.5-1.8-.9s-.9-1-1.2-1.7c-.3-.7-.4-1.5-.4-2.5v-8.5h-2.3v-5h2.3V1.8h6.7v5.8h3.6v5h-3.6v6.1c0 .6.1 1 .4 1.3.3.2.6.4 1.1.4.3 0 .7-.1 1.1-.2.4-.1.8-.3 1.3-.4l1 5.3zM87.9.4h6.7v18.3c0 1.4.6 2.1 1.7 2.1.3 0 .6 0 .9-.1.3-.1.6-.2.9-.4l.8 4.9c-.8.4-1.7.7-2.7.9-1 .2-1.9.3-2.8.3-1.8 0-3.2-.5-4.1-1.4-1-.9-1.4-2.2-1.4-4V.4zm24.7 14.5c-.1-.9-.4-1.6-1-2.1-.5-.5-1.2-.8-2.1-.8-.8 0-1.5.3-2.1.8-.5.5-.9 1.2-1 2.1h6.2zm-2.9 11.6c-1.6 0-3.1-.3-4.3-.8-1.3-.5-2.3-1.2-3.2-2.1-.9-.9-1.5-1.9-2-3-.4-1.1-.7-2.3-.7-3.6 0-1.3.2-2.6.7-3.8.4-1.2 1.1-2.2 1.9-3.1.9-.9 1.9-1.6 3.2-2.1 1.3-.5 2.7-.8 4.4-.8 1.6 0 3.1.3 4.4.8 1.3.5 2.3 1.2 3.2 2.1.9.9 1.5 1.9 1.9 3.1.4 1.2.7 2.4.7 3.6 0 .4 0 .7-.1 1.1 0 .4-.1.7-.1 1h-13c.1 1 .4 1.7 1.1 2.1.7.4 1.4.7 2.1.7.7 0 1.4-.2 2.1-.5.6-.3 1.1-.8 1.3-1.4l5.7 1.6c-.8 1.5-1.9 2.7-3.5 3.6-1.7 1-3.6 1.5-5.8 1.5zm21.9-5.6c1.2 0 2.3-.6 3.2-1.9v-3.3c-.3-.8-.8-1.5-1.4-2-.6-.5-1.3-.8-2-.8-.5 0-.9.1-1.4.3-.4.2-.8.5-1.1.9-.3.4-.5.8-.7 1.3-.2.5-.3 1-.3 1.6 0 1.2.3 2.1 1 2.8.7.7 1.6 1.1 2.7 1.1zm-1.9 5.6c-1.3 0-2.4-.2-3.5-.7-1.1-.5-2-1.1-2.8-2-.8-.9-1.4-1.9-1.8-3.1-.4-1.2-.7-2.5-.7-3.9s.2-2.6.6-3.8c.4-1.2 1-2.2 1.7-3 .7-.9 1.6-1.5 2.6-2s2.1-.7 3.3-.7c1.2 0 2.3.3 3.3.8s1.8 1.3 2.3 2.3V.4h6.7v18.3c0 .6.1 1.1.3 1.3.2.2.5.4 1 .4V26c-1.2.2-2.1.4-2.8.4-2.3 0-3.6-.9-3.9-2.6l-.1-.7c-.6 1.1-1.5 1.9-2.6 2.5-1.2.6-2.4.9-3.6.9z" fill="#213557"/><path d="M4.4 43.1V37h.8v6.1h-.8zm0-7.5v-1.2h.8v1.2h-.8zm7.7 7.5h-.8v-3.4c0-.7-.1-1.3-.3-1.6-.2-.3-.5-.5-1-.5-.2 0-.5 0-.7.1-.3.1-.5.2-.7.3-.2.2-.4.3-.5.6-.2.2-.3.5-.3.7v3.8h-.9V37h.7v1.4c.1-.2.3-.4.5-.6.2-.2.4-.3.6-.5.2-.1.5-.2.7-.3.3-.1.5-.1.8-.1.3 0 .6.1.9.2.2.1.4.3.6.5.1.2.2.5.3.8.1.3.1.7.1 1.1v3.6zm4.3-.6c.2 0 .4 0 .6-.1l.6-.3c.2-.1.4-.3.5-.5l.3-.6v-2l-.3-.6-.5-.5c-.2-.1-.4-.3-.6-.3-.2-.1-.4-.1-.6-.1-.3 0-.6.1-.9.2-.3.1-.5.3-.7.6-.2.2-.3.5-.4.8-.1.3-.2.6-.2.9 0 .3.1.6.2.9.1.3.3.6.5.8.2.2.4.4.7.5.2.2.5.3.8.3zm-.1.7c-.4 0-.8-.1-1.2-.3-.4-.2-.7-.4-.9-.7-.3-.3-.5-.6-.6-1-.1-.4-.2-.8-.2-1.2 0-.4.1-.8.2-1.2.1-.4.3-.7.6-1 .2-.3.5-.5.9-.7.3-.2.7-.3 1.1-.3.5 0 1 .1 1.4.4.4.3.7.6 1 1v-3.8h.8V42c0 .2.1.3.3.3v.7h-.3c-.2 0-.4-.1-.5-.2-.1-.1-.2-.2-.2-.4v-.6c-.3.4-.6.7-1 1-.5.3-1 .4-1.4.4zm9.7-3.5c0-.3-.1-.6-.2-.9-.1-.3-.3-.5-.5-.7-.2-.2-.4-.3-.7-.5-.3-.1-.6-.2-.8-.2-.3 0-.6.1-.8.2-.3.1-.5.3-.7.5-.2.2-.4.4-.5.7-.1.3-.2.6-.2.9H26zm-2.2 3.5c-.4 0-.9-.1-1.2-.3-.4-.2-.7-.4-1-.7-.3-.3-.5-.6-.6-1-.2-.4-.2-.8-.2-1.2 0-.4.1-.8.2-1.2.2-.4.4-.7.6-1 .3-.3.6-.5 1-.7.4-.2.8-.3 1.2-.3.4 0 .9.1 1.2.3.4.2.7.4 1 .7.3.3.5.6.6 1 .1.4.2.8.2 1.2v.3h-5.2c0 .3.1.6.2.9.1.3.3.5.5.7.2.2.4.4.7.5.3.1.5.2.8.2.2 0 .4 0 .6-.1.2-.1.4-.1.5-.2.2-.1.3-.2.4-.3.1-.1.2-.3.3-.5l.7.2c-.1.2-.2.4-.4.6-.2.2-.4.3-.6.5-.2.1-.5.2-.8.3-.2 0-.4.1-.7.1zm7.1-.7c.3 0 .6-.1.9-.2.3-.1.5-.3.7-.6.2-.2.3-.5.4-.8.1-.3.2-.6.2-.9 0-.3-.1-.6-.2-.9-.1-.3-.3-.6-.5-.8-.2-.2-.4-.4-.7-.5-.3-.1-.6-.2-.9-.2-.2 0-.4 0-.6.1l-.6.3c-.2.1-.4.3-.5.5l-.3.6V41c.1.2.2.4.4.6.1.2.3.4.5.5l.6.3c.2 0 .4.1.6.1zm.3.7c-.5 0-1-.1-1.4-.4-.4-.3-.7-.6-1-1v3.8H28v-8.7h.7v1.2c.3-.4.6-.7 1-.9.4-.2.8-.4 1.3-.4.4 0 .8.1 1.2.3.4.2.7.4.9.7.3.3.5.6.6 1 .1.4.2.8.2 1.2 0 .4-.1.8-.2 1.2-.1.4-.3.7-.6 1-.2.3-.5.5-.9.7-.3.2-.6.3-1 .3zm9-3.5c0-.3-.1-.6-.2-.9-.1-.3-.3-.5-.5-.7-.2-.2-.4-.3-.7-.5-.3-.1-.6-.2-.8-.2-.3 0-.6.1-.8.2-.3.1-.5.3-.7.5-.2.2-.4.4-.5.7-.1.3-.2.6-.2.9h4.4zM38 43.2c-.4 0-.9-.1-1.2-.3-.4-.2-.7-.4-1-.7-.3-.3-.5-.6-.6-1-.2-.4-.2-.8-.2-1.2 0-.4.1-.8.2-1.2.2-.4.4-.7.6-1 .3-.3.6-.5 1-.7.4-.2.8-.3 1.2-.3.4 0 .9.1 1.2.3.4.2.7.4 1 .7.3.3.5.6.6 1 .1.4.2.8.2 1.2v.3h-5.2c0 .3.1.6.2.9.1.3.3.5.5.7.2.2.4.4.7.5.3.1.5.2.8.2.2 0 .4 0 .6-.1.2-.1.4-.1.5-.2.2-.1.3-.2.4-.3.1-.1.2-.3.3-.5l.7.2c-.1.2-.2.4-.4.6-.2.2-.4.3-.6.5-.2.1-.5.2-.8.3-.2 0-.5.1-.7.1zm9.4-.1h-.8v-3.4c0-.7-.1-1.3-.3-1.6-.2-.3-.5-.5-1-.5-.2 0-.5 0-.7.1-.2.1-.5.2-.7.4-.2.2-.4.3-.5.6-.2.2-.3.5-.3.7v3.8h-.8v-6.1h.7v1.4c.1-.2.3-.4.5-.6.2-.2.4-.3.6-.5.2-.1.5-.2.7-.3.3-.1.5-.1.8-.1.3 0 .6.1.9.2.2.1.4.3.6.5.1.2.2.5.3.8.1.3.1.7.1 1.1v3.5h-.1zm4.3-.6c.2 0 .4 0 .6-.1l.6-.3c.2-.1.4-.3.5-.5l.3-.6v-2l-.3-.6-.5-.5c-.2-.1-.4-.3-.6-.3-.2-.1-.4-.1-.6-.1-.3 0-.6.1-.9.2-.3.1-.5.3-.7.6-.2.2-.3.5-.4.8-.1.3-.2.6-.2.9 0 .3.1.6.2.9.1.3.3.6.5.8.2.2.4.4.7.5.2.2.5.3.8.3zm-.1.7c-.4 0-.8-.1-1.2-.3-.4-.2-.7-.4-.9-.7-.3-.3-.5-.6-.6-1-.1-.4-.2-.8-.2-1.2 0-.4.1-.8.2-1.2.1-.4.3-.7.6-1 .2-.3.5-.5.9-.7.3-.2.7-.3 1.1-.3.5 0 1 .1 1.4.4.4.3.7.6 1 1v-3.8h.8V42c0 .2.1.3.3.3v.7h-.3c-.2 0-.4-.1-.5-.2-.1-.1-.2-.2-.2-.4v-.6c-.3.4-.6.7-1 1-.6.3-1 .4-1.4.4zm9.7-3.5c0-.3-.1-.6-.2-.9-.1-.3-.3-.5-.5-.7-.2-.2-.4-.3-.7-.5-.3-.1-.6-.2-.8-.2-.3 0-.6.1-.8.2-.3.1-.5.3-.7.5-.2.2-.4.4-.5.7-.1.3-.2.6-.2.9h4.4zm-2.2 3.5c-.4 0-.9-.1-1.2-.3-.4-.2-.7-.4-1-.7-.3-.3-.5-.6-.6-1-.3-.4-.3-.8-.3-1.2 0-.4.1-.8.2-1.2.2-.4.4-.7.6-1 .3-.3.6-.5 1-.7.4-.2.8-.3 1.2-.3.4 0 .9.1 1.2.3.4.2.7.4 1 .7.3.3.5.6.6 1 .1.4.2.8.2 1.2v.3h-5.2c0 .3.1.6.2.9.1.3.3.5.5.7.2.2.4.4.7.5.3.1.5.2.8.2.2 0 .4 0 .6-.1.2-.1.4-.1.5-.2.2-.1.3-.2.4-.3.1-.1.2-.3.3-.5l.7.2c-.1.2-.2.4-.4.6-.2.2-.4.3-.6.5-.2.1-.5.2-.8.3-.1 0-.4.1-.6.1zm9.4-.1h-.8v-3.4c0-.7-.1-1.3-.3-1.6-.2-.3-.5-.5-1-.5-.2 0-.5 0-.7.1-.2.1-.5.2-.7.4-.2.2-.4.3-.5.6-.2.2-.3.5-.3.7v3.8h-.8v-6.1h.6v1.4c.1-.2.3-.4.5-.6.2-.2.4-.3.6-.5.2-.1.5-.2.7-.3.3-.1.5-.1.8-.1.3 0 .6.1.9.2.2.1.4.3.6.5.1.2.2.5.3.8.1.3.1.7.1 1.1v3.5zm4.5-.3s-.1.1-.2.1-.2.1-.3.1c-.1 0-.3.1-.4.1h-.5c-.2 0-.3 0-.5-.1-.2 0-.3-.1-.4-.2-.1-.1-.2-.2-.3-.4-.1-.1-.1-.3-.1-.5v-4.4h-.8v-.6h.8v-2.1h.8v2.1h1.4v.6h-1.4v4.2c0 .2.1.4.2.5.1.1.3.2.5.2s.4 0 .6-.1c.2-.1.3-.1.3-.2l.3.7zm4.1 1.8V33.9h.7v10.7h-.7zm7.4-2c.4 0 .7-.1 1.1-.2.3-.2.6-.4.8-.6.1-.1.1-.1.1-.2s.1-.2.1-.2v-1c-.3-.1-.5-.2-.8-.2-.3-.1-.6-.1-.8-.1-.6 0-1 .1-1.4.3-.4.2-.5.6-.5 1 0 .2 0 .3.1.5s.2.3.3.4c.1.1.3.2.5.3 0-.1.2 0 .5 0zm-.2.6c-.3 0-.6 0-.9-.1-.3-.1-.5-.2-.7-.4-.2-.2-.3-.4-.4-.6-.1-.2-.2-.5-.2-.7 0-.3.1-.5.2-.8.1-.2.3-.4.5-.6.2-.2.5-.3.8-.4.3-.1.7-.1 1.1-.1.3 0 .6 0 .9.1.3.1.6.1.9.2v-.6c0-.5-.2-1-.5-1.3-.3-.3-.7-.5-1.3-.5-.3 0-.7.1-1 .2-.3.1-.7.3-1 .5l-.3-.5c.4-.3.8-.5 1.2-.6.4-.1.8-.2 1.2-.2.7 0 1.3.2 1.8.6.4.4.7 1 .7 1.8V42c0 .2.1.3.3.3v.7h-.3c-.2 0-.3 0-.4-.1-.1-.1-.2-.2-.2-.4V42c-.3.4-.6.6-1.1.8-.4.3-.9.4-1.3.4zm4.4-3.2c0-.4.1-.8.2-1.2.1-.4.4-.7.6-1 .3-.3.6-.5 1-.7.4-.2.8-.2 1.3-.2.6 0 1.1.1 1.5.4.4.3.8.6 1 1.1l-.8.2c-.2-.3-.4-.6-.7-.7-.3-.2-.6-.3-1-.3-.3 0-.6.1-.9.2-.3.1-.5.3-.7.5-.2.2-.4.5-.5.8-.1.3-.2.6-.2 1 0 .3.1.7.2 1 .1.3.3.6.5.8.2.2.4.4.7.5.3.1.6.2.9.2.2 0 .4 0 .6-.1.2-.1.4-.1.5-.2.2-.1.3-.2.4-.3.1-.1.2-.3.2-.4l.8.2c-.1.2-.2.4-.4.6-.2.2-.4.3-.6.5-.2.1-.5.2-.7.3-.3.1-.6.1-.8.1-.4 0-.9-.1-1.2-.3-.4-.2-.7-.4-1-.7-.3-.3-.5-.6-.6-1-.2-.5-.3-.9-.3-1.3zm6.5 0c0-.4.1-.8.2-1.2.1-.4.4-.7.6-1 .3-.3.6-.5 1-.7.4-.2.8-.2 1.3-.2.6 0 1.1.1 1.5.4.4.3.8.6 1 1.1l-.8.2c-.2-.3-.4-.6-.7-.7-.3-.2-.6-.3-1-.3-.3 0-.6.1-.9.2-.3.1-.5.3-.7.5-.2.2-.4.5-.5.8-.1.3-.2.6-.2 1 0 .3.1.7.2 1 .1.3.3.6.5.8.2.2.4.4.7.5.3.1.6.2.9.2.2 0 .4 0 .6-.1.2-.1.4-.1.5-.2.2-.1.3-.2.4-.3.1-.1.2-.3.2-.4l.8.2c-.1.2-.2.4-.4.6-.2.2-.4.3-.6.5-.2.1-.5.2-.7.3-.3.1-.6.1-.8.1-.4 0-.9-.1-1.2-.3-.4-.2-.7-.4-1-.7-.3-.3-.5-.6-.6-1-.2-.5-.3-.9-.3-1.3zm8.8 3.2c-.6 0-1.1-.2-1.5-.7-.3-.4-.5-1.1-.5-2v-3.6h.8v3.5c0 1.4.5 2.1 1.4 2.1.2 0 .5 0 .7-.1l.6-.3c.2-.1.4-.3.5-.5.2-.2.3-.4.4-.7V37h.8v5c0 .2.1.3.3.3v.7h-.3c-.2 0-.3-.1-.5-.2-.1-.1-.2-.2-.2-.4v-.8c-.3.5-.6.9-1.1 1.1-.4.3-.9.5-1.4.5zm8.2-5.6c-.5 0-1 .2-1.4.4-.4.3-.7.7-.9 1.2V43h-.8v-6.1h.8v1.5c.2-.4.5-.8.8-1.1.3-.3.7-.4 1.1-.4h.4v.7zm2.8 5c.4 0 .7-.1 1.1-.2.4-.2.6-.4.8-.6.1-.1.1-.1.1-.2s.1-.2.1-.2v-1c-.3-.1-.5-.2-.8-.2-.3-.1-.6-.1-.8-.1-.6 0-1 .1-1.4.3-.4.2-.5.6-.5 1 0 .2 0 .3.1.5s.2.3.3.4c.1.1.3.2.5.3 0-.1.2 0 .5 0zm-.2.6c-.3 0-.6 0-.9-.1-.3-.1-.5-.2-.7-.4-.2-.2-.3-.4-.4-.6s-.2-.5-.2-.7c0-.3.1-.5.2-.8.1-.2.3-.4.5-.6.2-.2.5-.3.8-.4.3-.1.7-.1 1.1-.1.3 0 .6 0 .9.1.3.1.6.1.9.2v-.6c0-.5-.2-1-.5-1.3-.3-.3-.7-.5-1.3-.5-.3 0-.7.1-1 .2-.3.1-.7.3-1 .5l-.3-.5c.4-.3.8-.5 1.2-.6.4-.1.8-.2 1.2-.2.7 0 1.3.2 1.8.6.4.4.7 1 .7 1.8V42c0 .2.1.3.3.3v.7h-.3c-.2 0-.3 0-.4-.1-.1-.1-.2-.2-.2-.4V42c-.3.4-.6.6-1.1.8-.4.3-.9.4-1.3.4zm7.7-.4s-.1.1-.2.1-.2.1-.3.1c-.1 0-.3.1-.4.1h-.5c-.2 0-.3 0-.5-.1-.2 0-.3-.1-.4-.2-.1-.1-.2-.2-.3-.4-.1-.1-.1-.3-.1-.5v-4.4h-.8v-.6h.8v-2.1h.8v2.1h1.4v.6h-1.4v4.2c0 .2.1.4.2.5.1.1.3.2.5.2s.4 0 .6-.1c.2-.1.3-.1.3-.2l.3.7zm5.9-3.1c0-.3-.1-.6-.2-.9-.1-.3-.3-.5-.5-.7-.2-.2-.4-.3-.7-.5-.3-.1-.6-.2-.9-.2-.3 0-.6.1-.8.2-.3.1-.5.3-.7.5-.2.2-.4.4-.5.7-.1.3-.2.6-.2.9h4.5zm-2.3 3.5c-.4 0-.9-.1-1.2-.3-.4-.2-.7-.4-1-.7-.3-.3-.5-.6-.6-1-.2-.4-.2-.8-.2-1.2 0-.4.1-.8.2-1.2.2-.4.4-.7.6-1 .3-.3.6-.5 1-.7.4-.2.8-.3 1.2-.3.4 0 .9.1 1.2.3.4.2.7.4 1 .7.3.3.5.6.6 1 .1.4.2.8.2 1.2v.3h-5.3c0 .3.1.6.2.9.1.3.3.5.5.7.2.2.4.4.7.5.3.1.5.2.8.2.2 0 .4 0 .6-.1.2-.1.4-.1.5-.2.2-.1.3-.2.4-.3.1-.1.2-.3.3-.5l.7.2c-.1.2-.2.4-.4.6-.2.2-.4.3-.6.5-.2.1-.5.2-.8.3 0 0-.3.1-.6.1zm7.4 1.4V33.9h.7v10.7h-.7zm8.6-7c-.5 0-1 .2-1.4.4-.4.3-.7.7-.8 1.2V43h-.9v-6.1h.8v1.5c.2-.4.5-.8.8-1.1.3-.3.7-.4 1.1-.4h.4v.7zm6 2.1c0-.3-.1-.6-.2-.9-.1-.3-.3-.5-.5-.7-.2-.2-.4-.3-.7-.5-.3-.1-.6-.2-.9-.2-.3 0-.6.1-.8.2-.3.1-.5.3-.7.5-.2.2-.4.4-.5.7-.1.3-.2.6-.2.9h4.5zm-2.2 3.5c-.4 0-.9-.1-1.2-.3-.4-.2-.7-.4-1-.7-.3-.3-.5-.6-.6-1-.2-.4-.2-.8-.2-1.2 0-.4.1-.8.2-1.2.2-.4.4-.7.6-1 .3-.3.6-.5 1-.7.4-.2.8-.3 1.2-.3.4 0 .9.1 1.2.3.4.2.7.4 1 .7.3.3.5.6.6 1 .1.4.2.8.2 1.2v.3h-5.3c0 .3.1.6.2.9.1.3.3.5.5.7.2.2.4.4.7.5.3.1.5.2.8.2.2 0 .4 0 .6-.1.2-.1.4-.1.5-.2.2-.1.3-.2.4-.3.1-.1.2-.3.3-.5l.7.2c-.1.2-.2.4-.4.6-.2.2-.4.3-.6.5-.2.1-.5.2-.8.3-.1 0-.4.1-.6.1zm4.2-8.8h.8v7.2c0 .2.1.4.2.5.1.1.3.2.5.2h.3c.1 0 .2-.1.3-.1l.1.6c-.2.1-.3.1-.5.2-.2 0-.4.1-.6.1-.4 0-.7-.1-.9-.3-.2-.2-.3-.5-.3-.9v-7.5h.1zm3.1 8.7V37h.8v6.1h-.8zm0-7.5v-1.2h.8v1.2h-.8zm4.4 7c.4 0 .7-.1 1.1-.2.4-.2.6-.4.8-.6.1-.1.1-.1.1-.2s.1-.2.1-.2v-1c-.3-.1-.5-.2-.8-.2-.3-.1-.6-.1-.8-.1-.6 0-1 .1-1.4.3-.4.2-.5.6-.5 1 0 .2 0 .3.1.5s.2.3.3.4c.1.1.3.2.5.3 0-.1.2 0 .5 0zm-.2.6c-.3 0-.6 0-.9-.1-.3-.1-.5-.2-.7-.4-.2-.2-.3-.4-.4-.6-.1-.2-.2-.5-.2-.7 0-.3.1-.5.2-.8.1-.2.3-.4.5-.6.2-.2.5-.3.8-.4.3-.1.7-.1 1.1-.1.3 0 .6 0 .9.1.3.1.6.1.9.2v-.6c0-.5-.2-1-.5-1.3-.3-.3-.7-.5-1.3-.5-.3 0-.7.1-1 .2-.3.1-.7.3-1 .5l-.3-.5c.4-.3.8-.5 1.2-.6.4-.1.8-.2 1.2-.2.7 0 1.3.2 1.8.6.4.4.7 1 .7 1.8V42c0 .2.1.3.3.3v.7h-.3c-.2 0-.3 0-.4-.1-.1-.1-.2-.2-.2-.4V42c-.3.4-.6.6-1.1.8-.4.3-.9.4-1.3.4zm7.6-.7c.3 0 .6-.1.9-.2.3-.1.5-.3.7-.6.2-.2.4-.5.5-.8.1-.3.2-.6.2-.9 0-.3-.1-.6-.2-.9-.1-.3-.3-.6-.4-.8-.2-.2-.4-.4-.7-.6-.3-.1-.6-.2-.9-.2-.2 0-.5 0-.7.1l-.6.3c-.2.1-.3.3-.5.5-.1.2-.3.4-.4.6v2c0 .2.1.4.3.6.1.2.3.3.5.5l.6.3c.3 0 .5.1.7.1zm.2.7c-.5 0-.9-.1-1.3-.4-.4-.2-.7-.6-1-.9v1.2h-.7v-8.6h.8v3.8c.3-.4.6-.8 1-1 .4-.3.8-.4 1.4-.4.4 0 .8.1 1.2.3.3.2.6.4.9.7.2.3.4.6.6 1 .1.4.2.8.2 1.2 0 .4-.1.8-.2 1.2-.1.4-.4.7-.6 1-.3.3-.6.5-.9.7-.6.1-1 .2-1.4.2zm4.3-8.8h.8v7.2c0 .2.1.4.2.5.1.1.3.2.5.2h.3c.1 0 .2-.1.3-.1l.1.6c-.2.1-.3.1-.5.2-.2 0-.4.1-.6.1-.4 0-.7-.1-.9-.3-.2-.2-.3-.5-.3-.9v-7.5h.1zm8 5.3c0-.3-.1-.6-.2-.9-.1-.3-.3-.5-.5-.7-.2-.2-.4-.3-.7-.5-.3-.1-.6-.2-.9-.2-.3 0-.6.1-.8.2-.3.1-.5.3-.7.5-.2.2-.4.4-.5.7-.1.3-.2.6-.2.9h4.5zm-2.2 3.5c-.4 0-.9-.1-1.2-.3-.4-.2-.7-.4-1-.7-.3-.3-.5-.6-.6-1-.2-.4-.2-.8-.2-1.2 0-.4.1-.8.2-1.2.2-.4.4-.7.6-1 .3-.3.6-.5 1-.7.4-.2.8-.3 1.2-.3.4 0 .9.1 1.2.3.4.2.7.4 1 .7.3.3.5.6.6 1 .1.4.2.8.2 1.2v.3H173c0 .3.1.6.2.9.1.3.3.5.5.7.2.2.4.4.7.5.3.1.5.2.8.2.2 0 .4 0 .6-.1.2-.1.4-.1.5-.2.2-.1.3-.2.4-.3.1-.1.2-.3.3-.5l.7.2c-.1.2-.2.4-.4.6-.2.2-.4.3-.6.5-.2.1-.5.2-.8.3-.1 0-.3.1-.6.1z" fill="#1a202c"/><path d="M158.2 25.1c-.9.4-1.9.7-3 1-1.1.3-2.1.4-3.2.4-.8 0-1.5-.1-2.1-.3-.7-.2-1.3-.5-1.8-.9s-.9-1-1.2-1.7c-.3-.7-.4-1.5-.4-2.5v-8.5h-2.3v-5h2.3V1.8h6.7v5.8h3.6v5h-3.6v6.1c0 .6.1 1 .4 1.3.3.2.6.4 1.1.4.3 0 .7-.1 1.1-.2.4-.1.8-.3 1.3-.4l1.1 5.3zm-95.1-19V.4h6.7v5.7h-6.7zm102.7 10.8c0 1.2.3 2.2.9 2.9.6.7 1.4 1.1 2.4 1.1s1.7-.4 2.4-1.1c.6-.7.9-1.7.9-2.9s-.3-2.2-.9-2.9c-.6-.7-1.4-1.1-2.4-1.1s-1.7.4-2.4 1.1c-.6.7-.9 1.6-.9 2.9zm3.2 9.6c-1.7 0-3.1-.3-4.4-.8-1.3-.5-2.3-1.2-3.2-2.1-.9-.9-1.5-1.9-1.9-3.1-.4-1.2-.7-2.4-.7-3.6 0-1.3.2-2.5.7-3.6.4-1.2 1.1-2.2 1.9-3.1.9-.9 1.9-1.6 3.2-2.1 1.3-.5 2.7-.8 4.4-.8 1.6 0 3.1.3 4.4.8 1.3.5 2.3 1.2 3.2 2.1.9.9 1.5 1.9 1.9 3.1.4 1.2.7 2.4.7 3.6 0 1.3-.2 2.5-.7 3.6-.4 1.2-1.1 2.2-1.9 3.1-.9.9-1.9 1.6-3.2 2.1-1.3.5-2.7.8-4.4.8z" fill="#3571b7"/></svg>