<svg version="1.1" id="Layer_1" xmlns="http://www.w3.org/2000/svg" xmlns:xlink="http://www.w3.org/1999/xlink" x="0" y="0" viewBox="0 0 54.4 42.6" xml:space="preserve"><style>.st0{clip-path:url(#XMLID_50_);fill:none;stroke:#fff;stroke-width:1.5;stroke-linejoin:round}</style><g id="XMLID_4_"><defs><path id="XMLID_5_" d="M0 0h54.4v42.6H0z"/></defs><clipPath id="XMLID_50_"><use xlink:href="#XMLID_5_" overflow="visible"/></clipPath><path id="XMLID_7_" class="st0" d="M40 2.6H4.6C2.4 2.6.7 4.4.7 6.5v23.6c0 2.2 1.8 3.9 3.9 3.9h3.9l7.9 7.9V34H42c2.2 0 3.9-1.8 3.9-3.9v-9.8m-19.7-2H10.5m0 5.9h15.7M10.5 12.4h20.7"/><path id="XMLID_6_" class="st0" d="M47.9.6c2.6.6 5.3 3.3 5.9 5.9L36.1 24.2h-5.9v-5.9L47.9.6z"/></g><path id="XMLID_3_" fill="none" stroke="#fff" stroke-width="1.5" stroke-linejoin="round" d="M50.8 9.5l-5.9-5.9"/></svg>