<svg xmlns="http://www.w3.org/2000/svg" xmlns:xlink="http://www.w3.org/1999/xlink" viewBox="0 0 54.4 59"><defs><path id="a" d="M0 0h54.4v59H0z"/></defs><clipPath id="b"><use xlink:href="#a" overflow="visible"/></clipPath><path d="M42 19.1C40.9 8.8 32.1.8 21.5.8 10 .8.8 10 .8 21.5c0 11.4 9.3 20.7 20.7 20.7m0-30.5c0 .3-.3.6-.6.6s-.6-.3-.6-.6.3-.6.6-.6.6.3.6.6zm-4.6 16.7h9.2m-9.2-11.5h4.6v11.5M43 58.2c6.1-.4 10.7-5.7 10.7-11.8v-3.6c0-2.5-1.6-4.7-3.9-5.5L39.9 34v-9.2c0-1.9-1.5-3.5-3.5-3.5-1.9 0-3.4 1.5-3.4 3.5v19.5l-2.8-2.8c-2.2-2.2-5.9-2.2-8.1 0l-.5.5L34 54.9h0c2.3 2.2 5.5 3.6 9 3.3z" clip-path="url(#b)" fill="none" stroke="#fff" stroke-width="1.5" stroke-linejoin="round"/></svg>