<svg version="1.1" id="Layer_1" xmlns="http://www.w3.org/2000/svg" xmlns:xlink="http://www.w3.org/1999/xlink" x="0" y="0" viewBox="0 0 23.8 34.5" xml:space="preserve"><style>.st0{clip-path:url(#XMLID_203_);fill:none;stroke:#385d2c;stroke-linejoin:round}</style><g id="XMLID_99_"><defs><path id="XMLID_100_" d="M0 0h23.8v34.5H0z"/></defs><clipPath id="XMLID_203_"><use xlink:href="#XMLID_100_" overflow="visible"/></clipPath><path id="XMLID_102_" class="st0" d="M15.3 10.6c0 1.9-1.5 3.4-3.4 3.4s-3.4-1.5-3.4-3.4 1.5-3.4 3.4-3.4 3.4 1.5 3.4 3.4zm6.7 0c0 7.4-10.1 12.7-10.1 19.5 0-6.7-10.1-12.1-10.1-19.5C1.8 5 6.3.5 11.9.5S22 5 22 10.6z"/><path id="XMLID_101_" class="st0" d="M10.8 26H4.5l-4 8h22.8l-4-8h-3.2"/></g></svg>