<svg xmlns="http://www.w3.org/2000/svg" xmlns:xlink="http://www.w3.org/1999/xlink" viewBox="0 0 31.9 24.9"><defs><path id="a" d="M.1 0h31.8v24.9H.1z"/></defs><clipPath id="b"><use xlink:href="#a" overflow="visible"/></clipPath><path d="M.5 5h28.8m-9.5 6.4l-7.8-3 2.9 7.8 1-2.4 2.6 2.6L20 15l-2.6-2.6 2.4-1zM2.2.4C1.2.4.5 1.2.5 2.1v17.3c0 1 .8 1.7 1.7 1.7h27.6c1 0 1.7-.8 1.7-1.7V2.1c0-1-.8-1.7-1.7-1.7H2.2zm15.5 20.7v3.5m3.5 0H10.8m3.5 0v-3.5" clip-path="url(#b)" fill="none" stroke="#fff" stroke-width="1.5" stroke-linejoin="round"/></svg>