<svg xmlns="http://www.w3.org/2000/svg" xmlns:xlink="http://www.w3.org/1999/xlink" viewBox="0 0 51.7 47.5"><defs><path id="a" d="M.1 0h51.5v47.5H.1z"/></defs><clipPath id="b"><use xlink:href="#a" overflow="visible"/></clipPath><path d="M29.8.7l2 2-23 23-8-8 17-17h12zm3.5 21.5l9.5-9.5h3l5-7-3-3-7 5v3l-9.5 9.5m-9.5 4.5L8.3 38.3c-1.9 1.9-1.9 5.1 0 7 1.9 1.9 5.1 1.9 7 0l13.6-13.6m-13.1-13l26.6 26.6c1.9 1.9 5.1 1.9 7 0 1.9-1.9 1.9-5.1 0-7L22.8 11.7" clip-path="url(#b)" fill="none" stroke="#fff" stroke-width="1.5" stroke-linejoin="round"/><path fill="none" stroke="#fff" stroke-width="1.5" stroke-linecap="round" stroke-linejoin="round" d="M25.3 28.2L11.8 41.7"/></svg>