<svg xmlns="http://www.w3.org/2000/svg" xmlns:xlink="http://www.w3.org/1999/xlink" viewBox="0 0 31.9 27"><defs><path id="a" d="M0 0h31.9v27H0z"/></defs><clipPath id="b"><use xlink:href="#a" overflow="visible"/></clipPath><path d="M25.5 11.9l4.1.9c.7.2 1.4-.3 1.5-1 .2-1 .4-2.4.4-3.4 0-4.4-6.9-8-15.5-8S.5 4.1.5 8.5c0 .9.2 2.3.4 3.4.1.7.8 1.2 1.5 1l4.1-.9m13.8 2.7c0 2.4-1.9 4.3-4.3 4.3s-4.3-1.9-4.3-4.3 1.9-4.3 4.3-4.3 4.3 1.9 4.3 4.3zm8.7 6.8h0c-.7 0-1.4-.5-1.5-1.2L24.1 5.9c-.1-.3-.3-.5-.6-.5h-2.6c-.3 0-.6.3-.6.6 0 1-.8 1.9-1.9 1.9h-5c-1 0-1.9-.8-1.9-1.9 0-.3-.3-.6-.6-.6H8.4c-.3 0-.5.2-.6.5L4.5 20.3c-.2.7-.8 1.2-1.5 1.2h0c-.7 0-1.2.6-1.2 1.2v2.5c0 .7.6 1.2 1.2 1.2h26c.7 0 1.2-.6 1.2-1.2v-2.5c0-.6-.5-1.2-1.2-1.2z" clip-path="url(#b)" fill="none" stroke="#385d2c" stroke-linejoin="round"/><path fill="none" stroke="#385d2c" stroke-linejoin="round" d="M7.2 22.7h19.7"/></svg>