<?xml version="1.0" encoding="utf-8"?>
<!-- Generator: Adobe Illustrator 19.0.0, SVG Export Plug-In . SVG Version: 6.00 Build 0)  -->
<svg version="1.1" id="Layer_1" xmlns="http://www.w3.org/2000/svg" xmlns:xlink="http://www.w3.org/1999/xlink" x="0px" y="0px"
	 viewBox="-255 339.2 100.5 114.8" style="enable-background:new -255 339.2 100.5 114.8;" xml:space="preserve">
<style type="text/css">
	.st0{clip-path:url(#SVGID_2_);fill:#FFFFFF;}
	.st1{fill:#737373;}
	.st2{fill:#81B9E5;}
	.st3{fill:none;stroke:#737373;stroke-width:1.483;stroke-miterlimit:10;}
</style>
<g>
	<g>
		<defs>
			<rect id="SVGID_1_" x="-255" y="339.2" width="100.5" height="114.8"/>
		</defs>
		<clipPath id="SVGID_2_">
			<use xlink:href="#SVGID_1_"  style="overflow:visible;"/>
		</clipPath>
		<path class="st0" d="M-183.3,446.2l-0.1-15.6l-2-9.1l-2.3,7.5v-9.1l-0.4-4l-0.8,3.3l-2.1-9.9l-2,9.1l-11.7-79.2l-11.1,79.5
			l-1.4-9.6l-1.6,9.7l-1-2.2l-0.2,5.2l-0.2,7.3l-2-7.2l-2.2,8.8v15.5c5.3,2.4,8.5,4.7,21.1,4.8C-194.9,451-188.8,448.9-183.3,446.2"
			/>
	</g>
</g>
<polygon class="st1" points="-238.7,413.6 -237.7,413.6 -237.7,420.3 -238.7,420.3 -238.7,417.3 -242.6,417.3 -242.6,420.3 
	-243.6,420.3 -243.6,413.6 -242.6,413.6 -242.6,416.5 -238.7,416.5 "/>
<polygon class="st1" points="-215.3,413.6 -214.4,413.6 -214.4,420.3 -215.3,420.3 -215.3,415.1 -217.5,417.6 -217.6,417.6 
	-219.8,415.1 -219.8,420.3 -220.8,420.3 -220.8,413.6 -219.8,413.6 -217.6,416.3 "/>
<polygon class="st1" points="-209.3,413.6 -205.4,413.6 -205.4,414.4 -208.3,414.4 -208.3,416.5 -205.5,416.5 -205.5,417.3 
	-208.3,417.3 -208.3,419.4 -205.3,419.4 -205.3,420.2 -209.3,420.2 "/>
<path class="st1" d="M-186.1,417.4l-1.1-2.4l-1,2.4H-186.1z M-187.5,413.5h0.7l3.1,6.7h-1l-0.9-2h-2.9l-0.9,2h-1L-187.5,413.5z"/>
<polygon class="st1" points="-169.7,413.6 -165.8,413.6 -165.8,414.4 -168.7,414.4 -168.7,416.5 -165.9,416.5 -165.9,417.3 
	-168.7,417.3 -168.7,419.4 -165.7,419.4 -165.7,420.2 -169.7,420.2 "/>
<rect x="-206.6" y="387.8" class="st2" width="4.1" height="22.7"/>
<polygon class="st2" points="-178.1,387.8 -165.6,387.8 -166.7,391.3 -174,391.3 -174,397.2 -166.7,397.2 -166.7,400.7 -174,400.7 
	-174,406.9 -165.6,406.9 -165.6,410.4 -178.1,410.4 "/>
<path id="XMLID_2_" class="st1" d="M-229.2,414.4c-0.8,0-1.4,0.2-1.9,0.7s-0.8,1.1-0.8,1.8c0,0.7,0.3,1.3,0.8,1.8s1.1,0.7,1.9,0.7
	s1.4-0.2,1.9-0.7s0.8-1.1,0.8-1.8c0-0.7-0.3-1.3-0.8-1.8S-228.5,414.4-229.2,414.4 M-229.3,413.5c1.1,0,2,0.3,2.7,1
	c0.7,0.7,1.1,1.5,1.1,2.5s-0.4,1.8-1.1,2.4c-0.7,0.6-1.6,1-2.7,1c-1,0-1.9-0.3-2.6-1c-0.7-0.6-1-1.5-1-2.4c0-1,0.3-1.8,1-2.5
	C-231.2,413.8-230.3,413.5-229.3,413.5"/>
<path id="XMLID_5_" class="st1" d="M-194.7,418.7v1.1c-0.7,0.4-1.6,0.6-2.5,0.6c-0.8,0-1.4-0.1-2-0.4c-0.5-0.3-1-0.7-1.3-1.2
	s-0.5-1.1-0.5-1.7c0-1,0.4-1.8,1.1-2.5c0.7-0.7,1.6-1,2.6-1c0.7,0,1.5,0.2,2.4,0.6v1c-0.8-0.4-1.6-0.7-2.4-0.7s-1.4,0.2-2,0.7
	c-0.5,0.5-0.8,1.1-0.8,1.8c0,0.7,0.3,1.3,0.8,1.8s1.2,0.7,2,0.7C-196.4,419.5-195.5,419.2-194.7,418.7"/>
<path id="XMLID_6_" class="st1" d="M-178.1,414.4h-0.3v2.1h0.4c0.5,0,0.8,0,1-0.1c0.2-0.1,0.3-0.2,0.4-0.4c0.1-0.2,0.2-0.4,0.2-0.6
	c0-0.2-0.1-0.4-0.2-0.6c-0.1-0.2-0.3-0.3-0.5-0.4C-177.3,414.4-177.6,414.4-178.1,414.4 M-179.4,420.3v-6.7h1.7
	c0.7,0,1.3,0.2,1.7,0.5c0.4,0.3,0.6,0.8,0.6,1.4c0,0.4-0.1,0.7-0.3,1c-0.2,0.3-0.5,0.5-0.9,0.6c0.2,0.1,0.4,0.3,0.6,0.6
	c0.2,0.2,0.5,0.7,0.9,1.3c0.2,0.4,0.4,0.7,0.6,0.9l0.4,0.5h-1.2l-0.3-0.4c0,0,0,0-0.1-0.1l-0.2-0.3l-0.3-0.5l-0.3-0.5
	c-0.2-0.3-0.4-0.5-0.6-0.7c-0.2-0.2-0.3-0.3-0.5-0.4c-0.2-0.1-0.4-0.1-0.7-0.1h-0.3v2.9C-178.6,420.3-179.4,420.3-179.4,420.3z"/>
<path id="XMLID_64_" class="st2" d="M-241.8,405.6c1.3,0.9,3.1,1.7,5.1,1.7c1.9,0,3.8-0.7,3.8-2.7c0-4.4-9.8-3.9-9.8-10.8
	c0-3.3,2.6-6.3,7.4-6.3c2.3,0,4.3,0.5,5.5,1.1v3.8c-1.8-0.9-3.6-1.4-5.4-1.4c-1.6,0-3.1,0.6-3.1,2.4c0,4.2,9.8,3.6,9.8,10.8
	c0,4-3.4,6.5-8.1,6.5c-2.6,0-5.1-0.8-6.8-2L-241.8,405.6z"/>
<path id="XMLID_61_" class="st2" d="M-219.3,399.2c1.1,0,2-0.2,2.6-0.5c1.3-0.6,1.9-1.9,1.9-3.5c0-1.5-0.6-2.8-1.8-3.5
	c-0.7-0.4-1.6-0.6-2.8-0.6h-1.2v8.1H-219.3z M-224.7,387.8h5.5c2.1,0,3.8,0.3,5.1,1c2.3,1.2,3.7,3.4,3.7,6.5c0,2.6-1.1,5.3-4.3,6.6
	c-1.2,0.5-2.8,0.8-4.8,0.8h-1v7.8h-4.1L-224.7,387.8L-224.7,387.8z"/>
<path id="XMLID_65_" class="st2" d="M-191.7,398.2c1.1,0,1.8-0.2,2.5-0.6c1-0.5,1.6-1.6,1.6-3c0-1.2-0.5-2.3-1.5-2.9
	c-0.5-0.4-1.3-0.7-2.5-0.7h-1.9v7.2H-191.7z M-197.7,387.8h6.2c2.1,0,3.6,0.3,4.9,0.9c2.4,1.1,3.4,3.2,3.4,5.5c0,3-1.8,5-4.4,5.8
	v0.1c0.7,0.4,1.6,1.6,2.8,3.7l3.8,6.6h-4.7l-3.3-5.7c-1.1-2-1.9-3-2.5-3.1h-2v8.8h-4.1v-22.6H-197.7z"/>
<path id="XMLID_69_" class="st3" d="M-199,355.9c23.3,2.4,41.8,22.7,41.8,47.6c0,26.4-21.3,47.8-47.5,47.8s-47.6-21.4-47.6-47.8
	c0-25,18.5-45.6,42.3-47.9l0.3-1.7c-25,2.5-44.6,23.8-44.6,49.6c0,27.5,22.2,49.8,49.5,49.8s49.5-22.3,49.5-49.8
	c0-25.6-19.5-47-44-49.5L-199,355.9z"/>
<path id="XMLID_68_" class="st1" d="M-199.7,355.9c23.3,2.4,41.8,22.7,41.8,47.6c0,26.4-21.3,47.8-47.5,47.8s-47.6-21.4-47.6-47.8
	c0-25,18.5-45.6,42.3-47.9l0.3-1.7c-25,2.5-44.6,23.8-44.6,49.6c0,27.5,22.2,49.8,49.5,49.8S-156,431-156,403.5
	c0-25.6-19.5-47-44-49.5L-199.7,355.9z"/>
</svg>
