<?xml version="1.0" encoding="utf-8"?>
<!-- Generator: Adobe Illustrator 19.0.0, SVG Export Plug-In . SVG Version: 6.00 Build 0)  -->
<svg version="1.1" id="Layer_1" xmlns="http://www.w3.org/2000/svg" xmlns:xlink="http://www.w3.org/1999/xlink" x="0px" y="0px"
	 viewBox="0 0 79.3 82.9" style="enable-background:new 0 0 79.3 82.9;" xml:space="preserve">
<style type="text/css">
	.st0{clip-path:url(#SVGID_2_);fill:#6E8FA6;}
	.st1{clip-path:url(#SVGID_4_);fill:#B6C7D2;}
	.st2{clip-path:url(#SVGID_4_);fill:#FFFFFF;}
</style>
<g>
	<defs>
		<rect id="SVGID_1_" width="79.3" height="82.9"/>
	</defs>
	<clipPath id="SVGID_2_">
		<use xlink:href="#SVGID_1_"  style="overflow:visible;"/>
	</clipPath>
	<path class="st0" d="M39.7,0C17.8,0,0,17.8,0,39.7c0,11.2,4.6,21.3,12.1,28.5L8.3,80.5c-0.2,0.7,0,1.5,0.6,1.9
		c0.3,0.3,0.7,0.4,1.2,0.4c0.3,0,0.6-0.1,0.9-0.2l12.6-6.8c4.9,2.2,10.4,3.4,16.2,3.4c21.9,0,39.7-17.8,39.7-39.7
		C79.3,17.8,61.5,0,39.7,0"/>
</g>
<g>
	<defs>
		<path id="SVGID_3_" d="M39.7,0C17.8,0,0,17.8,0,39.7c0,11.2,4.6,21.3,12.1,28.5L8.3,80.5c-0.2,0.7,0,1.5,0.6,1.9
			c0.3,0.3,0.7,0.4,1.2,0.4c0.3,0,0.6-0.1,0.9-0.2l12.6-6.8c4.9,2.2,10.4,3.4,16.2,3.4c21.9,0,39.7-17.8,39.7-39.7
			C79.3,17.8,61.5,0,39.7,0z"/>
	</defs>
	<clipPath id="SVGID_4_">
		<use xlink:href="#SVGID_3_"  style="overflow:visible;"/>
	</clipPath>
	<path class="st1" d="M49.3,23.7c-4,0-7.5,2-9.6,5.1c-2.1-3.1-5.6-5.1-9.6-5.1c-6.5,0-11.7,5.2-11.7,11.7
		c0,13.1,21.3,23.7,21.3,23.7S61,48.5,61,35.4C61,29,55.7,23.7,49.3,23.7"/>
	<path class="st2" d="M48.3,25.6c0,0,9.5,1,10,10c0.3,5.8-3.6,8-3.6,8S61,32.6,48.3,25.6"/>
</g>
</svg>
