<svg xmlns="http://www.w3.org/2000/svg" xmlns:xlink="http://www.w3.org/1999/xlink" viewBox="0 0 25.4 25.4">
  <defs>
    <path id="a" d="M0 0h25.4v25.4H0z"/>
  </defs>
  <clipPath id="b">
    <use xlink:href="#a" overflow="visible"/>
  </clipPath>
  <path d="M16 13.2h-2.3v5.7h-2.3v-5.7h-2v-2.3h1.9V9.6c0-.8.3-1.6.8-2.2.6-.6 1.2-.9 2-.9H16v2.3h-1.9c-.1 0-.2.1-.3.2-.1.1-.1.3-.1.5v1.2H16v2.5zm9.4-.5c0-1.8-.3-3.4-1-4.9-.7-1.5-1.6-2.9-2.7-4-1.1-1.2-2.5-2.1-4-2.7-1.5-.7-3.2-1-4.9-1S9.3.3 7.7 1c-1.5.7-2.9 1.6-4 2.7-1.1 1.2-2 2.5-2.7 4-.7 1.6-1 3.3-1 5s.3 3.4 1 4.9c.7 1.5 1.6 2.9 2.7 4s2.5 2 4 2.7c1.5.7 3.2 1 4.9 1s3.4-.3 4.9-1c1.5-.7 2.9-1.6 4-2.7s2-2.5 2.7-4c.8-1.5 1.2-3.1 1.2-4.9" clip-path="url(#b)" fill="#fff"/>
</svg>
