<svg id="Layer_1" xmlns="http://www.w3.org/2000/svg" xmlns:xlink="http://www.w3.org/1999/xlink" viewBox="0 0 180.2 138.2"><style>.st1,.st2,.st3,.st4{clip-path:url(#SVGID_2_);fill:#414142}.st2,.st3,.st4{fill:#f26333}.st3,.st4{fill:#ed5127}.st4{fill:#e42b26}</style><defs><path id="SVGID_1_" d="M0 0h180.2v138.4H0z"/></defs><clipPath id="SVGID_2_"><use xlink:href="#SVGID_1_" overflow="visible"/></clipPath><path d="M89.9.2c-38.1 0-69 30.9-69 69s30.9 69 69 69 69-30.9 69-69-30.8-69-69-69m.1 131.7c-34.6 0-62.6-28-62.6-62.6S55.4 6.7 90 6.7s62.6 28 62.6 62.6-28 62.6-62.6 62.6" clip-path="url(#SVGID_2_)" fill="#d1d3d4"/><path class="st1" d="M143.9 42.7c-.3-1.9-2.3-4-5.1-4-2.6 0-4.6 1.9-5.2 3.7v.1c4.8 7.7 7.6 16.9 7.6 26.6 0 1.3 0 2.6-.1 3.8.4 2.2 1.5 3.2 4 3.2 2.1 0 3.7-1.4 3.7-3.7 0-.3 0-.6-.1-.9l-4.8-28.8z"/><path class="st1" d="M158.5 70.8l.6-.3c.1 0 .1-.1.2-.1 0-1.8-.1-2.6-.1-2.8-.3 0-.7 0-1 .1-.3 0-.5.1-.8.2-.2.1-.5.2-.7.3-.2.1-.4.3-.5.5-.2.2-.3.4-.4.7-.2.5-.4 1-.5 1.6-.2 1.1-.4 2.3-.5 3.4l-.4 3.5.1-3.5c0-1.2.1-2.3.2-3.5.1-.6.2-1.2.4-1.8.1-.3.2-.6.4-.9.2-.3.4-.5.7-.7.3-.2.6-.4.9-.5l.9-.3h.3v-.2c.3 0 .6-.1.9-.1 0 0 0-1.5-.2-3.8-.2 0-.4.1-.6.1-.1 0-.3 0-.4.1v-.4c.1-.1.2-.1.3-.2.2-.1.4-.3.5-.4.1 0 .1-.1.1-.1 0-.2-.1-.5-.1-.7-.2-1.2-.3-2.2-.4-3-.2.1-.5.1-.7.1h-.3c0-.2-.1-.3-.1-.5.1 0 .1-.1.2-.1.2-.1.4-.3.5-.4l.2-.2c-.3-1.8-.6-2.5-.7-2.7-.3.1-.7.1-1 .2-.3.1-.5.2-.7.3-.2.1-.4.3-.6.4-.2.2-.3.4-.4.6-.1.2-.2.5-.3.7-.1.5-.2 1.1-.2 1.7 0 1.1.1 2.3.2 3.5l.3 3.5-.6-3.4c-.2-1.2-.4-2.3-.5-3.5 0-.6-.1-1.2 0-1.8 0-.3.1-.6.2-.9.1-.3.3-.6.5-.9.2-.3.5-.5.7-.7.3-.2.6-.3.8-.5.1 0 .2-.1.3-.1v-.2l.9-.3s-.3-1.5-.9-3.7c-.2.1-.4.2-.5.2-.1.1-.3.1-.4.2 0-.1-.1-.3-.1-.4.1-.1.2-.1.2-.2.2-.2.3-.3.4-.5l.1-.1c-.1-.2-.1-.5-.2-.7-.4-1.2-.7-2.1-1-2.9l-.6.3c-.1 0-.2.1-.3.1-.1-.1-.1-.3-.2-.4l.1-.1c.2-.2.3-.3.4-.5l.2-.2c-.7-1.7-1.1-2.4-1.2-2.6-.3.1-.6.3-.9.4-.2.1-.4.3-.6.4-.2.2-.4.3-.5.6-.1.2-.2.4-.3.7-.1.2-.1.5-.1.8 0 .5.1 1.1.2 1.7.2 1.1.5 2.2.9 3.4l1 3.4-1.2-3.3c-.4-1.1-.8-2.2-1.1-3.3-.2-.6-.3-1.2-.3-1.8v-1l.3-.9c.2-.3.4-.6.6-.8.2-.2.5-.4.7-.6.1-.1.2-.1.2-.1 0-.1-.1-.1-.1-.2.3-.2.6-.3.8-.4 0 0-.6-1.4-1.7-3.4-.2.1-.3.2-.5.3-.1.1-.2.2-.4.2-.1-.1-.1-.3-.2-.4.1-.1.1-.2.2-.3l.3-.6c0-.1.1-.1.1-.2-.1-.2-.2-.4-.4-.6-.6-1.1-1.1-1.9-1.6-2.6-.2.1-.4.3-.6.4-.1.1-.2.1-.3.2-.1-.1-.2-.3-.3-.4 0-.1.1-.1.1-.2l.3-.6c0-.1.1-.1.1-.2-1-1.5-1.5-2.1-1.7-2.3-.3.2-.6.4-.8.6-.2.2-.4.4-.5.6-.2.2-.3.4-.4.6-.1.2-.1.5-.2.7 0 .3 0 .5.1.8.1.5.3 1.1.5 1.6.4 1.1 1 2.1 1.5 3.1l1.6 3.1-1.9-3-1.8-3c-.3-.5-.5-1.1-.7-1.7-.1-.3-.1-.6-.1-.9 0-.3 0-.7.1-1 .1-.3.3-.6.4-.9.2-.3.4-.5.6-.7l.2-.2c0-.1-.1-.1-.1-.2.2-.2.5-.4.7-.6 0 0-.8-1.3-2.3-3.1l-.4.4-.3.3-.3-.3c0-.1.1-.2.1-.3.1-.2.2-.4.2-.6 0-.1 0-.1.1-.2-.2-.2-.3-.4-.5-.6-.8-.9-1.5-1.7-2.1-2.3l-.5.5-.2.2-.3-.3c0-.1.1-.1.1-.2.1-.2.2-.4.2-.6 0-.1 0-.2.1-.2-1.3-1.3-1.9-1.8-2.1-1.9l-.7.7c-.2.2-.3.4-.4.7-.1.2-.2.5-.2.7v.7c0 .3.1.5.2.8.2.5.5 1 .8 1.5.6 1 1.4 1.9 2.1 2.8l2.2 2.7-2.4-2.5c-.8-.8-1.6-1.7-2.3-2.6-.4-.5-.7-1-1-1.5l-.3-.9c-.1-.3-.1-.7-.1-1 0-.3.1-.7.3-1 .1-.3.3-.6.5-.8l.2-.2c-.1 0-.1-.1-.2-.1.2-.2.4-.5.6-.7 0 0-1.1-1.1-2.8-2.5-.1.2-.2.3-.3.5-.1.1-.2.2-.3.4l-.3-.3c0-.1 0-.2.1-.3 0-.2.1-.4.1-.7v-.2c-.2-.1-.4-.3-.6-.4-1-.7-1.8-1.3-2.5-1.8-.1.2-.2.4-.4.6-.1.1-.1.2-.2.2-.1-.1-.3-.2-.4-.3v-.2c0-.2.1-.4.1-.7v-.2c-1.5-1-2.2-1.4-2.4-1.5-.2.3-.4.6-.5.9-.1.2-.2.5-.3.7-.1.2-.1.5-.1.7 0 .2 0 .5.1.7.1.2.2.5.3.7.3.5.7.9 1.1 1.3.8.8 1.7 1.6 2.6 2.3l2.7 2.2-2.9-2c-.9-.7-1.9-1.4-2.8-2.1-.4-.4-.9-.8-1.3-1.3-.2-.3-.4-.5-.5-.8-.1-.3-.2-.6-.3-1 0-.3 0-.7.1-1l.3-.9c0-.1.1-.2.1-.2-.1 0-.1-.1-.2-.1.1-.3.3-.6.5-.8 0 0-1.3-.8-3.3-1.9-.1.2-.1.4-.2.5-.1.1-.1.3-.2.4-.1-.1-.3-.1-.4-.2V9v-.7-.2c-.2-.1-.4-.2-.7-.3-1.1-.5-2-1-2.8-1.3l-.3.6c0 .1-.1.2-.1.3-.1-.1-.3-.1-.4-.2V7v-.7V6c-1.7-.7-2.4-.9-2.7-1l-.3.9c-.1.3-.1.5-.1.8v.7c.1.2.1.5.3.7.1.2.3.4.5.6.4.4.8.7 1.3 1.1.9.6 2 1.2 3 1.8l3.1 1.7-3.2-1.4c-1.1-.5-2.1-1-3.2-1.5-.5-.3-1-.6-1.5-1-.2-.2-.5-.4-.6-.7-.2-.3-.3-.6-.4-.9-.1-.3-.1-.7-.1-1 0-.3 0-.6.1-1 0-.1 0-.2.1-.3-.1 0-.1-.1-.2-.1l.3-.9s-1.4-.6-3.6-1.3c0 .2-.1.4-.1.6 0 .1-.1.3-.1.4-.1 0-.3-.1-.4-.1 0-.1 0-.2-.1-.3 0-.2-.1-.4-.2-.6 0-.1 0-.1-.1-.2-.2-.1-.5-.1-.7-.2-1.2-.3-2.2-.6-3-.8 0 .2-.1.5-.1.7 0 .1 0 .2-.1.3-.2 0-.3-.1-.5-.1v-.2c0-.2-.1-.4-.2-.6 0-.1 0-.2-.1-.2-1.8-.4-2.6-.4-2.8-.4-.1.3-.1.7-.1 1v.8c0 .3.1.5.2.7.1.2.2.4.4.6.2.2.4.4.6.5.4.3 1 .6 1.5.8l3.3 1.2 3.3 1-2.8-1.1c-1.1-.3-2.3-.5-3.4-.9-.6-.2-1.1-.4-1.7-.7-.3-.2-.5-.3-.8-.6-.2-.2-.4-.5-.6-.8-.2-.3-.3-.6-.3-.9-.1-.3-.1-.6-.1-1v-.3h-.2c0-.3.1-.6.1-.9 0 0-1.5-.3-3.8-.5v1h-.4c0-.1-.1-.2-.1-.3l-.3-.6c0-.1-.1-.1-.1-.2-.2 0-.5 0-.7-.1-1.2-.1-2.2-.2-3.1-.2v1h-.5c0-.1 0-.1-.1-.2l-.3-.6c0-.1-.1-.1-.1-.2-1.8 0-2.6.1-2.8.1 0 .3 0 .7.1 1 0 .3.1.5.2.8.1.2.2.5.3.7.1.2.3.4.5.5.2.2.4.3.7.4.5.2 1 .4 1.6.5 1.1.2 2.3.4 3.4.5l3.5.4-3.5-.1c-1.2 0-2.3-.1-3.5-.2-.6-.1-1.2-.2-1.8-.4-.3-.1-.6-.2-.9-.4-.3-.2-.5-.4-.7-.7-.2-.3-.4-.6-.5-.9l-.3-.9c-.1-.4-.1-.8-.2-1.2-.4 0-1.8 0-3.7.2 0 .2.1.4.1.6 0 .1 0 .3.1.4h-.4c-.1-.1-.1-.2-.2-.3-.1-.2-.3-.4-.4-.5 0-.1-.1-.1-.1-.2-.2 0-.5.1-.7.1-1.2.2-2.2.3-3 .4.1.2.1.5.1.7v.3c-.2 0-.3.1-.5.1 0-.1-.1-.1-.1-.2-.1-.2-.3-.4-.4-.5l-.2-.2c-1.8.3-2.5.6-2.7.7.1.3.1.7.2 1 .1.3.2.5.3.7.3.2.4.4.6.6.2.2.4.3.6.4.2.1.5.2.7.3.5.1 1.1.2 1.7.2 1.1 0 2.3-.1 3.5-.2l3.5-.3-3.5.6c-1.2.2-2.3.4-3.5.5-.6 0-1.2.1-1.8 0-.3 0-.6-.1-.9-.2-.3-.3-.6-.4-.9-.7-.3-.2-.5-.5-.7-.7-.2-.3-.3-.6-.4-.8 0-.1-.1-.2-.1-.3h-.2l-.3-.9s-1.5.3-3.7.9c.1.2.2.4.2.5.1.1.1.3.2.4-.1 0-.3.1-.4.1-.1-.1-.1-.2-.2-.2-.2-.2-.3-.3-.5-.4 0 0-.1-.1-.2-.1-.2.1-.5.1-.7.2-1.2.4-2.1.7-2.9 1 .1.3.2.5.3.7 0 .1.1.2.1.3-.1.1-.3.1-.4.2l-.1-.1c-.2-.2-.3-.3-.5-.4-.1-.2-.2-.2-.2-.3-1.7.7-2.4 1.1-2.6 1.2.1.3.3.6.4.9.1.2.3.4.4.6.2.2.3.4.6.5.2.1.4.2.7.3.2.1.5.1.8.1.5 0 1.1-.1 1.7-.2 1.1-.2 2.2-.5 3.4-.8l3.4-1-3.3 1.2c-1.1.4-2.2.8-3.3 1.1-.6.2-1.2.3-1.8.3-.3 0-.6 0-1-.1-.4.2-.7.1-1-.1-.3-.2-.6-.4-.8-.6-.2-.2-.4-.5-.6-.7-.1-.1-.1-.2-.1-.2-.1 0-.1.1-.2.1-.2-.3-.3-.6-.4-.8 0 0-1.4.6-3.5 1.6.1.2.2.3.3.5.1.1.2.2.2.4-.1-.1-.2 0-.4 0-.1-.1-.2-.1-.2-.2l-.6-.3c-.1 0-.1-.1-.2-.1-.2.1-.4.2-.6.4-1.1.6-1.9 1.1-2.6 1.6.1.2.3.4.4.6.1.1.1.2.2.3-.1.1-.3.2-.4.2-.1 0-.1-.1-.2-.1l-.6-.3c-.1 0-.1-.1-.2-.1-1.5 1-2.1 1.5-2.3 1.7.2.3.4.6.6.8.2.2.4.4.6.5.2.2.4.3.6.4.2.1.5.1.7.2h.8c.5-.1 1.1-.3 1.6-.5 1.1-.4 2.1-1 3.1-1.5l3.1-1.6-3 1.9-3 1.8c-.5.3-1.1.5-1.7.7-.3.1-.6.1-.9.1-.3 0-.7 0-1-.1-.3-.1-.6-.3-.9-.4-.3-.2-.5-.4-.7-.6l-.2-.2c-.1 0-.1.1-.2.1-.2-.2-.4-.5-.6-.7 0 0-1.3.8-3.1 2.3l.4.4.3.3-.3.3c-.1 0-.2-.1-.3-.1-.2-.1-.4-.2-.6-.2-.1 0-.1 0-.2-.1-.2.2-.4.3-.6.5-.9.8-1.7 1.5-2.3 2.1l.5.5.2.2c-.1.1-.2.2-.4.3-.1 0-.1 0-.2-.1-.2-.1-.4-.2-.6-.2-.1 0-.2 0-.2-.1-1.3 1.3-1.8 1.9-1.9 2.1l.7.7c.2.2.4.3.7.4.2.1.5.2.7.2h.7c.3 0 .5-.1.8-.2.5-.2 1-.5 1.5-.8 1-.6 1.9-1.4 2.8-2.1l2.7-2.2-2.5 2.4c-.9.8-1.7 1.6-2.6 2.3-.5.4-1 .7-1.5 1l-.9.3c-.3.1-.7.1-1 .1-.3 0-.7-.1-1-.3-.3-.1-.6-.3-.8-.5l-.2-.2c0 .1-.1.1-.1.2-.2-.2-.5-.4-.7-.6 0 0-1.1 1.1-2.6 2.8.2.1.3.2.5.3l.3.3-.3.3c-.1 0-.2 0-.3-.1-.2 0-.4-.1-.7-.1h-.2c-.1.2-.3.4-.5.6-.8 1-1.4 1.8-1.8 2.5.2.1.4.2.6.4.1.1.2.1.2.2-.1.1-.2.3-.3.4h-.2c-.2 0-.4-.1-.7-.1h-.2c-1 1.5-1.4 2.2-1.5 2.4.3.2.6.4.9.5.2.1.5.2.7.3.2.1.5.1.7.1.2 0 .5 0 .7-.1.2-.1.5-.2.7-.3.5-.3.9-.7 1.3-1.1.8-.8 1.6-1.7 2.3-2.6l2.3-2.7-2 2.8c-.7.9-1.4 1.9-2.1 2.8-.4.4-.8.9-1.3 1.3-.3.2-.5.4-.8.5-.3.1-.6.2-1 .3-.3 0-.7 0-1-.1l-.9-.3c-.1 0-.2-.1-.2-.1 0 .1-.1.1-.1.2-.3-.1-.6-.3-.8-.5 0 0-.9 1.2-2 3.3.2.1.4.1.5.2.1.1.3.1.4.2-.1.1-.1.3-.2.4h-1.2l-.3.6c-.5 1.1-1 2-1.3 2.8l.6.3c.1 0 .2.1.3.1-.1.1-.1.3-.2.4h-1.2c-.7 1.7-.9 2.4-1 2.7l.9.3c.3.1.5.1.8.1h.7c.2-.1.5-.1.7-.3.2-.1.4-.3.6-.5.4-.4.7-.8 1.1-1.3.6-.9 1.2-2 1.8-3l1.7-3.1-1.4 3.2c-.5 1.1-1 2.1-1.5 3.2-.3.5-.6 1-1 1.5-.2.2-.4.5-.7.6-.3.2-.6.3-.9.4-.3.1-.7.1-1 .1-.3 0-.6 0-1-.1-.1 0-.2 0-.3-.1 0 .1-.1.1-.1.2l-.9-.3s-.6 1.4-1.3 3.6c.2 0 .4.1.6.1.1 0 .3.1.4.1 0 .1-.1.3-.1.4-.1 0-.2 0-.3.1-.2 0-.4.1-.6.2-.1 0-.1 0-.2.1-.1.2-.1.5-.2.7-.3 1.2-.6 2.2-.8 3 .2 0 .5.1.7.1.1 0 .2 0 .3.1 0 .2-.1.3-.1.5h-.2c-.2 0-.4.1-.6.2-.1 0-.2 0-.2.1-.4 1.8-.4 2.5-.4 2.8.3.1.7.1 1 .1h.8c.3 0 .5-.1.7-.2.2-.1.4-.2.6-.4.2-.2.4-.4.5-.6.3-.4.6-1 .8-1.5l1.2-3.3 1.1-3.3-.8 3.4c-.3 1.1-.5 2.3-.9 3.4-.2.6-.4 1.1-.7 1.7-.2.3-.3.5-.6.8-.2.2-.5.4-.8.6-.3.2-.6.3-.9.3-.3.1-.6.1-1 .1h-.3v.2c-.3 0-.6-.1-.9-.1 0 0-.3 1.5-.5 3.8h1v.4c-.1 0-.2.1-.3.1l-.6.3c-.1 0-.1.1-.2.1 0 .2 0 .5-.1.7-.2 1-.2 2-.3 2.9h1v.5c-.1 0-.1 0-.2.1l-.6.3c-.1 0-.1.1-.2.1 0 1.8.1 2.6.1 2.8.3 0 .7 0 1-.1.3 0 .5-.1.8-.2.2-.1.5-.2.7-.3.2-.1.4-.3.5-.5.2-.2.3-.4.4-.7.2-.5.4-1 .5-1.6.2-1.1.4-2.3.5-3.4l.4-3.5-.1 3.5c0 1.2-.1 2.3-.2 3.5-.1.6-.2 1.2-.4 1.8-.1.3-.2.6-.4.9-.2.3-.4.5-.7.7-.3.2-.6.4-.9.5l-.9.3h-.3v.2c-.3 0-.6.1-.9.1 0 0 0 1.5.2 3.8.2 0 .4-.1.6-.1.1 0 .3 0 .4-.1v.4l-.2.2c-.2.1-.4.3-.5.4-.1 0-.1.1-.1.1 0 .2.1.5.1.7.2 1.2.3 2.2.4 3 .2-.1.5-.1.7-.1h.3c0 .2.1.3.1.5-.1 0-.1.1-.2.1-.2.1-.4.3-.5.4l-.2.2c.3 1.8.6 2.5.7 2.7.3-.1.7-.1 1-.2.3-.1.5-.2.7-.3.2-.1.4-.3.6-.4.2-.2.3-.4.4-.6.1-.2.2-.5.3-.7.1-.5.2-1.1.2-1.7 0-1.1-.1-2.3-.2-3.5l-.3-3.5.6 3.4c.2 1.2.4 2.3.5 3.5 0 .6.1 1.2 0 1.8 0 .3-.1.6-.2.9-.1.3-.3.6-.5.9-.2.3-.5.5-.7.7-.3.2-.6.3-.8.4-.1 0-.2.1-.3.1v.2l-.9.3s.3 1.5.9 3.7c.2-.1.4-.2.5-.2.1-.1.3-.1.4-.2 0 .1.1.3.1.4-.1.1-.2.1-.2.2-.2.2-.3.3-.4.5 0 .1-.1.1-.1.2.1.2.1.5.2.7.4 1.2.7 2.1 1 2.9l.6-.3c.1 0 .2-.1.3-.1.1.1.1.3.2.4l-.1.1c-.2.2-.3.3-.4.5l-.2.2c.7 1.7 1.1 2.4 1.2 2.6.3-.1.6-.3.9-.4.2-.1.5-.3.6-.4.2-.2.4-.3.5-.6.1-.2.2-.4.3-.7.1-.2.1-.5.1-.8 0-.5-.1-1.1-.2-1.7-.2-1.1-.5-2.2-.9-3.4l-1-3.4 1.2 3.3c.4 1.1.8 2.2 1.1 3.3.2.6.3 1.2.3 1.8 0 .3 0 .6-.1 1l-.3.9c-.2.3-.4.6-.6.8-.2.2-.5.4-.7.6-.1.1-.2.1-.2.1 0 .1.1.1.1.2-.3.2-.6.3-.8.4 0 0 .6 1.4 1.6 3.4.2-.1.3-.2.5-.3.1-.1.2-.2.4-.2.1.1.1.3.2.4-.1.1-.1.2-.2.3l-.3.6c0 .1-.1.1-.1.2.1.2.2.4.4.6.6 1.1 1.1 1.9 1.6 2.6.2-.1.4-.3.6-.4.1-.1.2-.1.3-.2.1.1.2.3.3.4 0 .1-.1.1-.1.2l-.3.6c0 .1-.1.1-.1.2 1 1.5 1.5 2.1 1.7 2.3.3-.2.6-.4.8-.6.2-.2.4-.4.5-.6.2-.2.3-.4.4-.6.1-.2.1-.5.2-.7v-.8c-.1-.5-.3-1.1-.5-1.6-.4-1.1-1-2.1-1.5-3.1l-1.6-3.1 1.9 3 1.8 3c.3.5.5 1.1.7 1.7.1.3.1.6.1.9 0 .3 0 .7-.1 1-.1.3-.3.6-.4.9-.2.3-.4.5-.6.7l-.2.2c0 .1.1.1.1.2-.2.2-.5.4-.7.6 0 0 .8 1.3 2.3 3.1l.4-.4.3-.3.3.3c0 .1-.1.2-.1.3-.1.2-.2.4-.2.6 0 .1 0 .1-.1.2.2.2.3.4.5.6.8.9 1.5 1.7 2.1 2.3l.5-.5.2-.2.3.3c0 .1-.1.1-.1.2-.1.2-.2.4-.2.6 0 .1-.1.2-.1.2 1.3 1.3 1.9 1.8 2.1 1.9l.7-.7c.2-.2.3-.4.4-.7.1-.2.2-.5.2-.7v-.7c0-.3-.1-.5-.2-.8-.2-.5-.5-1-.8-1.5-.6-1-1.4-1.9-2.1-2.8l-2.2-2.7 2.4 2.5c.8.9 1.6 1.7 2.3 2.6.4.5.7 1 1 1.5l.3.9c.1.3.1.7.1 1 0 .3-.1.7-.3 1-.1.3-.3.6-.5.8l-.2.2c.1 0 .1.1.2.1-.2.2-.4.5-.6.7 0 0 1.1 1.1 2.8 2.6.1-.2.2-.3.3-.5l.3-.3.3.3c0 .1 0 .2-.1.3 0 .2-.1.4-.1.7v.2c.2.1.4.3.6.5 1 .8 1.8 1.4 2.5 1.8.1-.2.2-.4.4-.6.1-.1.1-.2.2-.2.1.1.3.2.4.3v.2c0 .2-.1.4-.1.7v.3c1.5 1 2.2 1.4 2.4 1.5.2-.3.4-.6.5-.9.1-.2.2-.5.3-.7.1-.2.1-.5.1-.7 0-.2 0-.5-.1-.7-.1-.2-.2-.5-.3-.7-.3-.5-.7-.9-1.1-1.3-.8-.8-1.7-1.6-2.6-2.3l-2.7-2.2 2.8 2c.9.7 1.9 1.4 2.8 2.1.4.4.9.8 1.3 1.3.2.3.4.5.5.8.1.3.2.6.3 1 0 .3 0 .7-.1 1l-.3.9c0 .1-.1.2-.1.2.1 0 .1.1.2.1-.1.3-.3.6-.5.8 0 0 1.3.9 3.3 2 .1-.2.1-.4.2-.5.1-.1.1-.3.2-.4.1.1.3.1.4.2v1.2l.6.3c1.1.5 2 1 2.8 1.3l.3-.6c0-.1.1-.2.1-.3.1.1.3.1.4.2V132.7c1.7.7 2.4.9 2.7 1l.3-.9c.1-.3.1-.5.1-.8v-.7c-.1-.2-.1-.5-.3-.7-.1-.2-.3-.4-.5-.6-.4-.4-.8-.7-1.3-1.1-.9-.6-2-1.2-3-1.8l-3.1-1.7 3.2 1.4c1.1.5 2.1 1 3.2 1.5.5.3 1 .6 1.5 1 .2.2.5.4.6.7.2.3.3.6.4.9.1.3.1.7.1 1 0 .3 0 .6-.1 1 0 .1 0 .2-.1.3.1 0 .1.1.2.1l-.3.9s1.4.6 3.6 1.3c0-.2.1-.4.1-.6 0-.1.1-.3.1-.4.1 0 .3.1.4.1 0 .1 0 .2.1.3 0 .2.1.4.2.6 0 .1 0 .1.1.2.2.1.5.1.7.2 1.2.3 2.2.6 3 .8 0-.2.1-.5.1-.7 0-.1 0-.2.1-.3.2 0 .3.1.5.1v.2c0 .2.1.4.2.6 0 .1 0 .2.1.2 1.8.4 2.5.4 2.8.4.1-.3.1-.7.1-1v-.8c0-.3-.1-.5-.2-.7-.1-.2-.2-.4-.4-.6-.2-.2-.4-.4-.6-.5-.4-.3-1-.6-1.5-.8l-3.3-1.2-3.3-1.1 3.4.8c1.1.3 2.3.5 3.4.9.6.2 1.1.4 1.7.7.3.2.5.3.8.6.2.2.4.5.6.8.2.3.3.6.3.9.1.3.1.6.1 1v.3h.2c0 .3-.1.6-.1.9 0 0 1.5.3 3.8.5v-.6-.4h.4c0 .1.1.2.1.3l.3.6c0 .1.1.1.1.2.2 0 .5 0 .7.1 1.2.1 2.2.1 3.1.2v-.7-.3h.5c0 .1 0 .1.1.2l.3.6c0 .1.1.1.1.2 1.8 0 2.6-.1 2.8-.1 0-.3 0-.7-.1-1 0-.3-.1-.5-.2-.8-.1-.2-.2-.5-.3-.7-.1-.2-.3-.4-.5-.5-.2-.2-.4-.3-.7-.4-.5-.2-1-.4-1.6-.5-1.1-.2-2.3-.4-3.4-.5l-3.5-.4 3.5.1c1.2 0 2.3.1 3.5.2.6.1 1.2.2 1.8.4.3.1.6.2.9.4.3.2.5.4.7.7.2.3.4.6.5.9l.3.9v.3h.2c0 .3.1.6.1.9 0 0 1.5 0 3.8-.2 0-.2-.1-.4-.1-.6 0-.1 0-.3-.1-.4h.4c.1.1.1.2.2.3.1.2.3.4.4.5 0 .1.1.1.1.1.2 0 .5-.1.7-.1 1.2-.2 2.2-.3 3-.4-.1-.2-.1-.5-.1-.7v-.3c.2 0 .3-.1.5-.1 0 .1.1.1.1.2.1.2.3.4.4.5l.2.2c1.8-.3 2.5-.6 2.7-.7-.1-.3-.1-.7-.2-1-.1-.3-.2-.5-.3-.7-.1-.2-.3-.4-.4-.6-.2-.2-.4-.3-.6-.4-.2-.1-.5-.2-.7-.3-.5-.1-1.1-.2-1.7-.2-1.1 0-2.3.1-3.5.2l-3.5.3 3.4-.6c1.2-.2 2.3-.4 3.5-.5.6 0 1.2-.1 1.8 0 .3 0 .6.1.9.2.3.1.6.3.9.5.3.2.5.5.7.7.2.3.3.6.5.8 0 .1.1.2.1.3h.2l.3.9s1.5-.3 3.7-.9c-.1-.2-.2-.4-.2-.5-.1-.1-.1-.3-.2-.4.1 0 .3-.1.4-.1.1.1.1.2.2.2.2.2.3.3.5.4.1 0 .1.1.2.1.2-.1.5-.1.7-.2 1.2-.4 2.1-.7 2.9-1l-.3-.6c0-.1-.1-.2-.1-.3.1-.1.3-.1.4-.2l.1.1c.2.2.3.3.5.4l.2.2c1.7-.7 2.4-1.1 2.6-1.2-.1-.3-.3-.6-.4-.9-.1-.2-.3-.5-.4-.6-.2-.2-.3-.4-.6-.5-.2-.1-.4-.2-.7-.3-.2-.1-.5-.1-.8-.1-.5 0-1.1.1-1.7.2-1.1.2-2.2.5-3.4.9l-3.4 1 3.3-1.2c1.1-.4 2.2-.8 3.3-1.1.6-.2 1.2-.3 1.8-.3h1l.9.3c.3.2.6.4.8.6.2.2.4.5.6.7.1.1.1.2.1.2.1 0 .1-.1.2-.1.2.3.3.6.4.8 0 0 1.4-.6 3.4-1.7-.1-.2-.2-.3-.3-.5-.1-.1-.2-.2-.2-.4.1-.1.3-.1.4-.2.1.1.2.1.3.2l.6.3c.1 0 .1.1.2.1.2-.1.4-.2.6-.4 1.1-.6 1.9-1.1 2.6-1.6-.1-.2-.3-.4-.4-.6-.1-.1-.1-.2-.2-.3.1-.1.3-.2.4-.3.1 0 .1.1.2.1l.6.3c.1 0 .1.1.2.1 1.5-1 2.1-1.5 2.3-1.7-.2-.3-.4-.6-.6-.8-.2-.2-.4-.4-.6-.5-.2-.2-.4-.3-.6-.4-.2-.1-.5-.1-.7-.2-.3 0-.5 0-.8.1-.5.1-1.1.3-1.6.5-1.1.4-2.1 1-3.1 1.5l-3.1 1.6 3-1.9 3-1.8c.5-.3 1.1-.5 1.7-.7.3-.1.6-.1.9-.1.3 0 .7 0 1 .1.3.1.6.3.9.4.3.2.5.4.7.6l.2.2c.1 0 .1-.1.2-.1.2.2.4.5.6.7 0 0 1.3-.8 3.1-2.3l-.4-.4-.3-.3.3-.3c.1 0 .2.1.3.1.2.1.4.2.6.2.1 0 .1 0 .2.1.2-.2.4-.3.6-.5.9-.8 1.7-1.5 2.3-2.1l-.5-.5-.2-.2.3-.3c.1 0 .1.1.2.1.2.1.4.2.6.2.1 0 .2 0 .2.1 1.3-1.3 1.8-1.9 1.9-2.1l-.7-.7c-.2-.2-.4-.3-.7-.4-.2-.1-.5-.2-.7-.2h-.7c-.3 0-.5.1-.8.2-.5.2-1 .5-1.5.8-1 .6-1.9 1.4-2.8 2.1l-2.7 2.2 2.5-2.4c.9-.8 1.7-1.6 2.6-2.3.5-.4 1-.7 1.5-1l.9-.3c.3-.1.7-.1 1-.1.3 0 .7.1 1 .3.3.1.6.3.8.5l.2.2c0-.1.1-.1.1-.2.2.2.5.4.7.6 0 0 1.1-1.1 2.6-2.8-.2-.1-.3-.2-.5-.3-.1-.1-.2-.2-.4-.3l.3-.3c.1 0 .2 0 .3.1.2 0 .4.1.7.1h.2c.1-.2.3-.4.5-.6.7-1 1.4-1.8 1.8-2.5-.2-.1-.4-.2-.6-.4-.1-.1-.2-.1-.2-.2.1-.1.2-.3.3-.4h.2c.2 0 .4.1.7.1h.2c1-1.5 1.4-2.2 1.5-2.4-.3-.2-.6-.4-.9-.5-.2-.1-.5-.2-.7-.3-.2-.1-.5-.1-.7-.1-.2 0-.5.1-.7.1-.2.1-.5.2-.7.3-.5.3-.9.7-1.3 1.1-.8.8-1.6 1.7-2.3 2.6l-2.2 2.7 2-2.8c.7-.9 1.4-1.9 2.1-2.8.4-.4.8-.9 1.3-1.3.3-.2.5-.4.8-.5.3-.1.6-.2 1-.3.3 0 .7 0 1 .1l.9.3c.1 0 .2.1.2.1 0-.1.1-.1.1-.2.3.1.6.3.8.5 0 0 .9-1.3 1.9-3.3-.2-.1-.4-.1-.5-.2-.1-.1-.3-.1-.4-.2.1-.1.1-.3.2-.4h1.2c.1-.2.2-.4.3-.7.5-1.1 1-2 1.3-2.8l-.6-.3c-.1 0-.2-.1-.3-.1.1-.1.1-.3.2-.4h1.2c.7-1.7.9-2.4 1-2.7l-.9-.3c-.3-.1-.5-.1-.8-.1h-.7c-.2.1-.5.1-.7.3-.2.1-.4.3-.6.5-.4.4-.7.8-1.1 1.3-.6.9-1.2 2-1.8 3l-1.7 3.1 1.4-3.2c.5-1.1 1-2.1 1.5-3.2.3-.5.6-1 1-1.5.2-.2.4-.5.7-.6.3-.2.6-.3.9-.4.3-.1.7-.1 1-.1.3 0 .6 0 1 .1.1 0 .2 0 .3.1 0-.1.1-.1.1-.2l.9.3s.6-1.4 1.3-3.6c-.2 0-.4-.1-.6-.1-.1 0-.3-.1-.4-.1 0-.1.1-.3.1-.4.1 0 .2 0 .3-.1.2 0 .4-.1.6-.2.1 0 .1 0 .2-.1.1-.2.1-.5.2-.7.3-1.2.6-2.2.8-3-.2 0-.5-.1-.7-.1-.1 0-.2 0-.3-.1 0-.2.1-.3.1-.5h.2c.2 0 .4-.1.6-.2.1 0 .2 0 .2-.1.4-1.8.4-2.5.4-2.8-.3-.1-.7-.1-1-.1h-.8c-.3 0-.5.1-.7.2-.2.1-.4.2-.6.4-.2.2-.4.4-.5.6-.3.4-.6 1-.8 1.5l-1.2 3.3-1.1 3.3.8-3.4c.3-1.1.5-2.3.9-3.4.2-.6.4-1.1.7-1.7.2-.3.3-.5.6-.8.2-.2.5-.4.8-.6.3-.2.6-.3.9-.3.3-.1.6-.1 1-.1h.3v-.2c.3 0 .6.1.9.1 0 0 .3-1.5.5-3.8h-1V75c.1 0 .2-.1.3-.1l.6-.3c.1 0 .1-.1.2-.1 0-.2 0-.5.1-.7.1-1.2.1-2.2.2-3.1h-1v-.5c-.3.7-.3.7-.2.6M145 77.2c-2 0-3.4-.6-4.2-2-3 25.2-24.6 44.7-50.7 44.7s-47.7-19.5-50.7-44.7c-.8 1.3-2.2 2-4.2 2-2.7 0-4.7-2-4.7-4.7 0-.3 0-.7.1-1l4.8-28.9c.4-2.3 2.8-4.8 6-4.8 2.8 0 5 1.8 5.9 3.8 9.1-13.9 24.9-23.1 42.9-23.1s33.7 9.2 42.9 23.1c.9-2 3-3.8 5.9-3.8 3.2 0 5.6 2.5 6 4.8l4.8 28.9c.1.4.1.8.1 1-.2 2.7-2.2 4.7-4.9 4.7"/><path class="st2" d="M48 124.2H1.6c-1.4 0-2-1.7-1-2.6l12.1-11.4L.5 98.5c-1-.9-.3-2.6 1-2.6H48v28.3"/><path class="st3" d="M48 124.2H1.6c-.9 0-1.5-.7-1.5-1.5 0-.4.1-.8.5-1.1l12.1-11.4L.5 98.5c-.4-.3-.5-.7-.5-1 0-.8.6-1.5 1.5-1.5H48 20.3v14.2l27.7 14"/><path class="st2" d="M48.1 124.2l-27.8-14V95.9h27.8z"/><path class="st4" d="M48.1 124.2l-.1-.1-27.7-13.9V95.9h27.8v22.7z"/><path class="st2" d="M132.2 124.2h46.4c1.4 0 2-1.7 1-2.6l-12.1-11.4 12.1-11.6c1-.9.3-2.6-1-2.6h-46.5v28.2"/><path class="st3" d="M178.6 124.2h-46.4l27.7-13.9V95.9h-27.7 46.5c.9 0 1.5.7 1.5 1.5 0 .4-.1.8-.5 1.1l-12.1 11.6 12.1 11.4c.3.3.5.7.5 1.1 0 .8-.6 1.6-1.6 1.6"/><path class="st2" d="M132.1 124.2l27.8-14V95.9h-27.8z"/><path class="st4" d="M132.1 124.2V95.9h27.8v14.3l-27.7 13.9z"/><path class="st2" d="M20.3 82h139.6v28.2H20.3z"/><path d="M144 100.5c0 .9.6 1.5 1.3 1.5s1.3-.6 1.3-1.5v-4.7c0-1 .6-1.8 1.7-1.8 1 0 1.8.6 1.8 1.8v4.7c0 .9.6 1.5 1.3 1.5.8 0 1.3-.6 1.3-1.5v-5.2c0-2.3-1.6-3.6-3.7-3.6-1.3 0-2.1.4-2.6 1.1-.1-.6-.5-1-1.2-1-.8 0-1.3.6-1.3 1.5v7.2zm-6.9-6.3c1.5 0 2.1 1.5 2.1 2.7 0 1.3-.7 2.7-2.1 2.7s-2.1-1.4-2.1-2.7c-.1-1.3.6-2.7 2.1-2.7m0-2.5c-2.8 0-4.8 2.5-4.8 5.2 0 2.8 1.9 5.2 4.8 5.2s4.8-2.4 4.8-5.2c0-2.7-2-5.2-4.8-5.2m-8.2-3.9c-.8 0-1.5.7-1.5 1.5s.7 1.6 1.5 1.6 1.5-.7 1.5-1.6c0-.8-.7-1.5-1.5-1.5m-1.4 12.7c0 .9.6 1.5 1.3 1.5.8 0 1.3-.6 1.3-1.5v-7.2c0-.9-.6-1.5-1.3-1.5-.8 0-1.3.6-1.3 1.5v7.2zm-5.7 0c0 .9.6 1.5 1.3 1.5.8 0 1.3-.6 1.3-1.5v-6.2h.8c.7 0 1.3-.3 1.3-1.2 0-.9-.6-1.2-1.3-1.2h-.8v-1.6c0-.9-.6-1.5-1.3-1.5-.8 0-1.3.6-1.3 1.5v1.6h-.6c-.7 0-1.2.5-1.2 1.2s.4 1.2 1.2 1.2h.6v6.2zm-4.5-12.7c-.8 0-1.5.7-1.5 1.5s.7 1.6 1.5 1.6 1.5-.7 1.5-1.6c0-.8-.7-1.5-1.5-1.5m-1.3 12.7c0 .9.6 1.5 1.3 1.5.8 0 1.3-.6 1.3-1.5v-7.2c0-.9-.6-1.5-1.3-1.5-.8 0-1.3.6-1.3 1.5v7.2zm-11.3-2.3c0 2.4 1.6 3.9 4.4 3.9 2.8 0 4.4-1.5 4.4-3.9v-4.9c0-.9-.6-1.5-1.3-1.5-.8 0-1.3.6-1.3 1.5v4.8c0 1.1-.8 1.7-1.7 1.7s-1.7-.6-1.7-1.7v-4.8c0-.9-.6-1.5-1.3-1.5-.8 0-1.3.6-1.3 1.5v4.9zm-5.9 2.3c0 .9.6 1.5 1.4 1.5.8 0 1.4-.5 1.4-1.5v-9.4h2c.9 0 1.3-.7 1.3-1.3 0-.7-.5-1.3-1.3-1.3h-6.9c-.8 0-1.3.6-1.3 1.3 0 .6.4 1.3 1.3 1.3h2v9.4zM85.4 97c0 1.3-.7 2.7-2.1 2.7-1.4 0-2.1-1.3-2.1-2.7 0-1.3.7-2.7 2.1-2.7 1.5-.1 2.1 1.4 2.1 2.7m2.7-3.7c0-.9-.6-1.5-1.3-1.5-.7 0-1.2.4-1.3 1.1-.5-.8-1.6-1.2-2.5-1.2-2.7 0-4.4 2.5-4.4 5.2s1.3 5.2 4.1 5.2c1.2 0 2.1-.4 2.7-1.3v.6c0 1.4-1 2.1-2.3 2.1-1.6 0-2.5-.8-3.4-.8-.5 0-1.1.7-1.1 1.2 0 1.5 3.1 2 4.2 2 3.1 0 5.2-1.6 5.2-4.9v-7.7zm-20.5 7.2c0 .9.6 1.5 1.3 1.5.8 0 1.3-.6 1.3-1.5v-4.7c0-1 .6-1.8 1.7-1.8 1 0 1.8.6 1.8 1.8v4.7c0 .9.6 1.5 1.3 1.5.8 0 1.3-.6 1.3-1.5v-5.2c0-2.3-1.6-3.6-3.7-3.6-1.3 0-2.1.4-2.6 1.1-.1-.6-.5-1-1.2-1-.8 0-1.3.6-1.3 1.5v7.2zm-3.8-12.7c-.8 0-1.5.7-1.5 1.5s.7 1.6 1.5 1.6 1.5-.7 1.5-1.6c0-.8-.7-1.5-1.5-1.5m-1.3 12.7c0 .9.6 1.5 1.3 1.5.8 0 1.3-.6 1.3-1.5v-7.2c0-.9-.6-1.5-1.3-1.5-.8 0-1.3.6-1.3 1.5v7.2zm-7.5.4c.3.7.5 1.1 1.5 1.1.9 0 1.2-.4 1.5-1.1l2.7-6.9c.1-.3.2-.5.2-.8 0-.9-.7-1.3-1.4-1.3s-1.1.5-1.2 1l-1.7 5.3-1.7-5.3c-.1-.4-.4-1-1.2-1-.7 0-1.4.4-1.4 1.3 0 .2 0 .4.2.8l2.5 6.9zm-5.8-13.1c-.8 0-1.5.7-1.5 1.5s.7 1.6 1.5 1.6 1.5-.7 1.5-1.6c0-.8-.7-1.5-1.5-1.5m-1.4 12.7c0 .9.6 1.5 1.3 1.5.8 0 1.3-.6 1.3-1.5v-7.2c0-.9-.6-1.5-1.3-1.5-.8 0-1.3.6-1.3 1.5v7.2zm-7.1 0c0 .9.6 1.5 1.3 1.5.8 0 1.3-.6 1.3-1.5v-4.1c0-1.1.8-1.4 1.6-1.8.8-.4 1.6-.4 1.6-1.3 0-1-.7-1.4-1.3-1.4-.8 0-1.4.4-1.9 1.1 0-.9-.6-1.1-1.3-1.1-.7 0-1.4.4-1.4 1.3v7.3zm-10.5-9.3h1.7c2.6 0 3.7 1.7 3.7 4.1 0 2.2-1.1 4-3.5 4h-1.9v-8.1zm-2.8 9.3c0 1.1.9 1.4 1.5 1.4h3.3c3.8 0 6.4-2.5 6.4-6.5 0-4.1-2.4-6.8-6.6-6.8h-3.1c-.8 0-1.4.6-1.4 1.4v10.5z" clip-path="url(#SVGID_2_)" fill="#fff"/><path class="st1" d="M106.3 71.6c-.1.3-.1.6-.1.9 0 2.3 1.7 3.7 3.7 3.7 2.6 0 3.7-1.2 4-3.6l3.1-21.1h.1l6.2 21.7c.4 1.2 1.3 3 4.1 3s3.8-1.8 4.1-3l6.2-21.7h.1l3.1 21.1c.4 2.4 1.4 3.6 4 3.6 2.1 0 3.7-1.4 3.7-3.7 0-.3 0-.6-.1-.9l-4.8-28.9c-.3-1.9-2.3-4-5.1-4-2.6 0-4.6 1.9-5.2 3.7L127.5 63h-.1l-6.1-20.5c-.6-1.9-2.6-3.7-5.2-3.7-2.7 0-4.8 2.1-5.1 4l-4.7 28.8zM31.5 71.6c-.1.3-.1.6-.1.9 0 2.3 1.7 3.7 3.7 3.7 2.6 0 3.7-1.2 4-3.6l3.1-21.1h.1l6.2 21.7c.4 1.2 1.3 3 4.1 3s3.8-1.8 4.1-3l6.2-21.7h.1l3.1 21.1c.4 2.4 1.4 3.6 4 3.6 2.1 0 3.7-1.4 3.7-3.7 0-.3 0-.6-.1-.9l-4.8-28.9c-.3-1.9-2.3-4-5.1-4-2.6 0-4.6 1.9-5.2 3.7L52.8 63h-.1l-6.1-20.5c-.6-1.9-2.6-3.7-5.2-3.7-2.7 0-4.8 2.1-5.1 4l-4.8 28.8z"/><path class="st2" d="M85.3 60.5h5.5c3.6 0 5.5 1.7 5.5 4.1 0 2.9-2.1 4.5-4.9 4.5h-6.1v-8.6zm0-14.6h4c2.3 0 4.2 1.2 4.2 3.7 0 2.6-1.7 4.1-4.2 4.1h-4v-7.8zM77.6 72c0 2.4 1.8 3.9 4.1 3.9h10.7c7.1 0 12-3.9 12-11.2 0-4.5-3.5-8.2-7.9-8.8v-.1c3.3-1.6 4.8-4 4.8-7.6 0-5.5-4.3-9.1-9.7-9.1h-9.9c-2.4 0-4.1 1.4-4.1 3.9v29z"/></svg>