<svg id="Layer_1" xmlns="http://www.w3.org/2000/svg" xmlns:xlink="http://www.w3.org/1999/xlink" viewBox="0 0 123.1 58"><style>.st0{clip-path:url(#SVGID_2_)}.st0,.st1{fill:#fff}</style><defs><path id="SVGID_1_" d="M0 0h123.1v58H0z"/></defs><clipPath id="SVGID_2_"><use xlink:href="#SVGID_1_" overflow="visible"/></clipPath><path class="st0" d="M93.7 37.5c-1 0-1.4 1-1.4 1.9 0 .9.5 1.8 1.4 1.8 1 0 1.4-1 1.4-1.8 0-.9-.4-1.9-1.4-1.9M22.6 35.4h-1.2v5.5h1.3c1.6 0 2.4-1.2 2.4-2.7 0-1.6-.8-2.8-2.5-2.8"/><path class="st0" d="M104.3 41.8c0 .6-.4 1-.9 1s-.9-.4-.9-1v-3.2c0-.8-.5-1.3-1.2-1.3s-1.2.5-1.2 1.3v3.2c0 .6-.4 1-.9 1s-.9-.4-.9-1v-4.9c0-.6.4-1 .9-1s.8.3.8.7c.4-.5.9-.7 1.8-.7 1.4 0 2.5.9 2.5 2.5v3.4zm-10.6 1c-2 0-3.3-1.6-3.3-3.5 0-1.8 1.3-3.5 3.3-3.5 1.9 0 3.3 1.7 3.3 3.5 0 1.9-1.3 3.5-3.3 3.5m-5.6-7.6c-.5 0-1-.5-1-1s.5-1 1-1 1 .5 1 1c.1.5-.4 1-1 1m1 6.6c0 .6-.4 1-.9 1s-.9-.4-.9-1v-4.9c0-.6.4-1 .9-1s.9.4.9 1v4.9zm-3.4-4.2h-.5v4.2c0 .6-.4 1-.9 1s-.9-.4-.9-1v-4.2H83c-.5 0-.8-.3-.8-.8s.3-.8.8-.8h.4v-1.1c0-.6.4-1 .9-1s.9.4.9 1V36h.5c.5 0 .9.2.9.8-.1.5-.5.8-.9.8m-5.4-2.4c-.5 0-1-.5-1-1s.5-1 1-1 1 .5 1 1c.1.5-.4 1-1 1m.9 6.6c0 .6-.4 1-.9 1s-.9-.4-.9-1v-4.9c0-.6.4-1 .9-1s.9.4.9 1v4.9zm-3.4-1.6c0 1.6-1.1 2.7-3 2.7s-3-1-3-2.7v-3.3c0-.6.4-1 .9-1s.9.4.9 1v3.2c0 .8.6 1.2 1.2 1.2s1.2-.4 1.2-1.2v-3.2c0-.6.4-1 .9-1s.9.4.9 1v3.3zm-6.7-4.8h-1.4v6.3c0 .6-.4 1-.9 1s-.9-.4-.9-1v-6.3h-1.4c-.6 0-.9-.4-.9-.9 0-.4.3-.9.9-.9h4.7c.5 0 .9.4.9.9-.1.5-.4.9-1 .9m-10.5 6.8c0 2.2-1.4 3.3-3.5 3.3-.7 0-2.9-.4-2.9-1.4 0-.3.4-.8.7-.8.6 0 1.2.6 2.3.6.9 0 1.5-.5 1.5-1.4V42c-.4.6-1 .9-1.8.9-1.9 0-2.8-1.7-2.8-3.5s1.2-3.5 3-3.5c.6 0 1.3.3 1.7.8.1-.5.4-.8.9-.8s.9.4.9 1v5.3zm-7.9-.4c0 .6-.4 1-.9 1s-.9-.4-.9-1v-3.2c0-.8-.5-1.3-1.2-1.3s-1.2.5-1.2 1.3v3.2c0 .6-.4 1-.9 1s-.9-.4-.9-1v-4.9c0-.6.4-1 .9-1s.8.3.8.7c.4-.5.9-.7 1.8-.7 1.4 0 2.5.9 2.5 2.5v3.4zm-8.5-6.6c-.5 0-1-.5-1-1s.5-1 1-1 1 .5 1 1-.5 1-1 1m.9 6.6c0 .6-.4 1-.9 1s-.9-.4-.9-1v-4.9c0-.6.4-1 .9-1s.9.4.9 1v4.9zM42 37.3L40.2 42c-.2.5-.4.8-1 .8s-.8-.3-1-.8l-1.8-4.7c-.1-.2-.1-.4-.1-.5 0-.6.5-.9.9-.9.5 0 .7.4.8.6l1.2 3.6 1.2-3.6c.1-.3.3-.6.8-.6s.9.3.9.9c0 .1 0 .3-.1.5m-7.8-2.1c-.5 0-1-.5-1-1s.5-1 1-1 1 .5 1 1c.1.5-.4 1-1 1m1 6.6c0 .6-.4 1-.9 1s-.9-.4-.9-1v-4.9c0-.6.4-1 .9-1s.9.4.9 1v4.9zm-3.8-4c-.5.3-1.1.5-1.1 1.2v2.8c0 .6-.4 1-.9 1s-.9-.4-.9-1v-5c0-.6.5-.9.9-.9.5 0 .9.2.9.8.3-.5.7-.8 1.3-.8.4 0 .9.3.9 1 0 .6-.5.6-1.1.9m-8.7 4.9h-2.2c-.4 0-1-.2-1-.9v-7.1c0-.6.4-1 1-1h2.1c2.8 0 4.4 1.8 4.4 4.6 0 2.7-1.7 4.4-4.3 4.4m-8 5.3h94.4V29.5H14.7V48z"/><path class="st0" d="M57.3 37.5c-.9 0-1.4 1-1.4 1.8 0 1 .5 1.9 1.4 1.9 1 0 1.4-.9 1.4-1.8.1-.9-.4-1.9-1.4-1.9M72.9 22.2v.6c0 1.5 1.1 2.5 2.5 2.5 1.8 0 2.5-.8 2.7-2.5l2.1-14.2h.1l4.2 14.7c.2.8.9 2 2.8 2s2.6-1.2 2.8-2l4.2-14.7h.1l2.1 14.2c.2 1.6.9 2.5 2.7 2.5 1.4 0 2.5-1 2.5-2.5v-.6L98.3 2.7C98.1 1.4 96.7 0 94.9 0c-1.8 0-3.1 1.3-3.5 2.5l-4.1 13.9h-.1L83 2.5C82.7 1.3 81.3 0 79.5 0c-1.9 0-3.2 1.4-3.4 2.7l-3.2 19.5zM22.3 22.2v.6c0 1.5 1.1 2.5 2.5 2.5 1.8 0 2.5-.8 2.7-2.5l2.1-14.2h.1l4.2 14.7c.2.8.9 2 2.8 2s2.6-1.2 2.8-2l4.2-14.7h.1l2.1 14.2c.2 1.6.9 2.5 2.7 2.5 1.4 0 2.5-1 2.5-2.5v-.6L47.7 2.7C47.5 1.4 46.2 0 44.3 0c-1.8 0-3.1 1.3-3.5 2.5l-4.1 13.9h-.1L32.5 2.5C32.1 1.3 30.7 0 29 0c-1.9 0-3.2 1.4-3.4 2.7l-3.3 19.5zM53.5 22.5c0 1.6 1.2 2.7 2.8 2.7h7.2c4.8 0 8.1-2.7 8.1-7.6 0-3-2.3-5.5-5.3-6v-.1c2.2-1.1 3.3-2.7 3.3-5.1 0-3.7-2.9-6.2-6.6-6.2h-6.7c-1.6 0-2.8.9-2.8 2.6v19.7zm5.2-17.7h2.7c1.5 0 2.8.8 2.8 2.5 0 1.8-1.1 2.8-2.8 2.8h-2.7V4.8zm0 9.9h3.7c2.5 0 3.7 1.1 3.7 2.8 0 2-1.4 3-3.3 3h-4.1v-5.8zM114.6 48.6l8.2-7.9c.7-.6.2-1.8-.7-1.8h-12.4v9.6L91.6 58H122c.9 0 1.4-1.1.7-1.8l-8.1-7.6z"/><path class="st1" d="M15.6 48.7l17.6 9.1v-9.1z"/><g><defs><path id="SVGID_3_" d="M0 0h123.1v58H0z"/></defs><clipPath id="SVGID_4_"><use xlink:href="#SVGID_3_" overflow="visible"/></clipPath><path d="M8.5 48.6L.3 40.7c-.7-.6-.2-1.8.7-1.8h12.9v9.6L32 58H1c-.9 0-1.4-1.1-.7-1.8l8.2-7.6z" clip-path="url(#SVGID_4_)" fill="#fff"/></g><path class="st1" d="M90.7 48.7v9.1l17.4-9.1z"/></svg>