<?xml version="1.0" encoding="utf-8"?>
<!-- Generator: Adobe Illustrator 19.0.0, SVG Export Plug-In . SVG Version: 6.00 Build 0)  -->
<svg version="1.1" id="Layer_1" xmlns="http://www.w3.org/2000/svg" xmlns:xlink="http://www.w3.org/1999/xlink" x="0px" y="0px"
	 viewBox="0 0 54.3 35.9" style="enable-background:new 0 0 54.3 35.9;" xml:space="preserve">
<style type="text/css">
	.st0{clip-path:url(#SVGID_2_);fill:#424143;}
</style>
<g>
	<defs>
		<rect id="SVGID_1_" width="54.3" height="35.9"/>
	</defs>
	<clipPath id="SVGID_2_">
		<use xlink:href="#SVGID_1_"  style="overflow:visible;"/>
	</clipPath>
	<path class="st0" d="M6.1,15.4c0.2-2.5,1.8-5.1,4.8-7.7c3-2.6,5.6-4.4,7.9-5.3L17.6,0c-4,0.6-8,3.1-11.8,7.5C1.9,11.9,0,17.1,0,23
		c0,3.8,1.3,6.9,3.9,9.3c2.6,2.4,5.3,3.6,7.9,3.6c2.7,0,5.2-1,7.6-3.1c2.4-2.1,3.6-4.8,3.6-8.2c0-2.9-1-5.5-3-7.9
		c-2-2.3-4.5-3.5-7.6-3.5C10.7,13.2,8.6,13.9,6.1,15.4 M37.2,15.4c0.2-2.5,1.8-5.1,4.8-7.7c3-2.6,5.6-4.4,7.9-5.3L48.7,0
		c-4,0.6-8,3.1-11.8,7.5c-3.8,4.4-5.8,9.6-5.8,15.5c0,3.8,1.3,6.9,3.9,9.3c2.6,2.4,5.2,3.6,7.9,3.6c2.7,0,5.3-1,7.7-3.1
		c2.4-2.1,3.6-4.8,3.6-8.2c0-2.9-1-5.5-3-7.9c-2-2.3-4.5-3.5-7.6-3.5C41.9,13.2,39.8,13.9,37.2,15.4"/>
</g>
</svg>
