<svg xmlns="http://www.w3.org/2000/svg" xmlns:xlink="http://www.w3.org/1999/xlink" viewBox="0 0 25.4 25.4">
  <defs>
    <path id="a" d="M0 0h25.4v25.4H0z"/>
  </defs>
  <clipPath id="b">
    <use xlink:href="#a" overflow="visible"/>
  </clipPath>
  <path d="M18.1 9.4c.3 0 .5-.1.8-.2.2-.1.5-.1.7-.2-.2.2-.4.5-.6.7-.2.2-.5.4-.7.6v.3c0 .9-.2 1.7-.5 2.6-.3.9-.8 1.6-1.4 2.3-.6.7-1.4 1.3-2.3 1.7-.9.4-2 .7-3.1.7-.7 0-1.4-.1-2.1-.3-.7-.2-1.3-.5-1.8-.8h.6c1.2 0 2.3-.4 3.2-1.1-.6 0-1.1-.2-1.5-.5-.4-.3-.7-.8-.9-1.3.2 0 .3.1.4.1h.4c.1 0 .2 0 .3-.1-.6-.1-1.1-.4-1.4-.9-.4-.5-.6-1-.6-1.6.3.2.7.3 1.2.3-.7-.5-1.1-1.2-1.1-2.1 0-.5.1-.9.3-1.3.7.8 1.4 1.4 2.3 1.9.9.5 1.9.7 3 .8 0-.2-.1-.4-.1-.6 0-.7.3-1.3.8-1.8s1.1-.8 1.8-.8c.4 0 .7.1 1 .2.3.1.6.3.8.6.3 0 .6-.1.9-.3.2 0 .5-.1.7-.3-.1.3-.3.6-.5.8-.1.3-.4.5-.6.6m7.3 3.3c0-1.8-.3-3.4-1-4.9-.7-1.5-1.6-2.9-2.7-4s-2.5-2-4-2.7c-1.5-.7-3.2-1-4.9-1S9.3.3 7.7 1c-1.5.7-2.9 1.6-4 2.7-1.2 1.2-2.1 2.5-2.7 4-.7 1.5-1 3.2-1 4.9s.3 3.4 1 4.9c.7 1.5 1.6 2.9 2.7 4 1.2 1.1 2.5 2 4 2.7 1.5.7 3.2 1 4.9 1s3.4-.3 4.9-1c1.5-.7 2.9-1.6 4-2.7s2-2.5 2.7-4c.8-1.4 1.2-3 1.2-4.8" clip-path="url(#b)" fill="#fff"/>
</svg>
