<svg xmlns="http://www.w3.org/2000/svg" height="202.707" width="383.453"><path d="M2.768 128.593H0l7.31 34.442h2.578l6.6-26.85.663-3.192.685 3.192 6.457 26.85h2.556l7.332-34.442h-2.744l-5.085 25.074-.899 5.157-1.017-4.921-6.08-25.31h-2.412l-6.174 25.31-1.04 4.874-.829-5.11zm59.924 34.442h2.816l-10.976-34.442h-2.507l-10.977 34.442h2.815l2.933-9.628h12.916zM53.255 132.4l5.677 18.476H47.578zm25.412-3.807h-2.722v34.442H92.86v-2.507H78.667zm33.005 34.442c1.876 0 3.58-.3 5.11-.9a10.504 10.504 0 003.914-2.636c1.08-1.16 1.916-2.6 2.507-4.319.591-1.719.888-3.69.888-5.912v-6.884c0-2.224-.297-4.196-.888-5.913-.591-1.719-1.423-3.162-2.495-4.33a10.426 10.426 0 00-3.868-2.65c-1.507-.598-3.167-.898-4.98-.898h-8.113v34.442zm.188-31.887c1.483 0 2.816.235 3.999.708a7.778 7.778 0 013.004 2.119c.82.937 1.45 2.1 1.892 3.488.441 1.387.663 3.004.663 4.85v6.955c0 1.813-.218 3.42-.652 4.825-.433 1.404-1.068 2.582-1.903 3.535a7.993 7.993 0 01-3.064 2.165c-1.206.488-2.581.735-4.127.735h-5.228v-29.38zm40.883 12.892h-13.366v-12.892h15.258v-2.555H136.68v34.442h18.072v-2.507h-15.376v-13.98h13.366zm35.016-15.447h-2.674v29.38l-16.274-29.38h-2.72v34.442h2.72v-29.332l16.252 29.332h2.696zm45.785 15.447h-13.365v-12.892h15.257v-2.555h-17.953v34.442h18.072v-2.507h-15.376v-13.98h13.365zm29.02 13.176a5.75 5.75 0 01-1.443 2.021c-.624.56-1.381.994-2.272 1.301-.89.307-1.888.46-2.992.46a10.93 10.93 0 01-2.921-.4 7.262 7.262 0 01-2.613-1.325c-.774-.614-1.4-1.42-1.882-2.412-.481-.993-.721-2.216-.721-3.666h-2.696c0 1.828.323 3.394.97 4.693.646 1.301 1.482 2.368 2.507 3.196a10.258 10.258 0 003.478 1.832 13.2 13.2 0 003.878.59c1.451 0 2.783-.205 3.998-.614 1.214-.41 2.262-1.001 3.146-1.775a8.07 8.07 0 002.07-2.826c.497-1.112.745-2.368.745-3.774 0-1.386-.21-2.613-.627-3.677a8.037 8.037 0 00-1.845-2.803c-.812-.805-1.813-1.509-3.004-2.117-1.19-.607-2.559-1.163-4.104-1.666-1.404-.46-2.59-.943-3.56-1.457-.97-.513-1.755-1.061-2.353-1.642-.6-.586-1.03-1.22-1.29-1.906a6.327 6.327 0 01-.39-2.258c0-.868.149-1.683.449-2.448.3-.766.741-1.435 1.325-2.011.583-.577 1.312-1.03 2.188-1.36.875-.333 1.896-.498 3.063-.498 1.167 0 2.2.194 3.099.58a6.319 6.319 0 012.27 1.62 7.14 7.14 0 011.408 2.46c.323.946.486 1.98.486 3.1h2.72c0-1.435-.23-2.78-.687-4.035a9.551 9.551 0 00-1.987-3.276 9.38 9.38 0 00-3.145-2.2c-1.23-.536-2.619-.804-4.164-.804-1.435 0-2.748.217-3.939.651-1.19.434-2.216 1.042-3.074 1.822a8.22 8.22 0 00-2.011 2.813c-.481 1.098-.721 2.308-.721 3.633 0 1.355.22 2.543.662 3.56a7.962 7.962 0 001.892 2.673c.82.765 1.81 1.436 2.968 2.01a31.473 31.473 0 003.916 1.598c1.482.505 2.72 1.009 3.714 1.512.993.505 1.785 1.057 2.377 1.657.59.6 1.01 1.265 1.253 1.999.244.732.367 1.572.367 2.518 0 .98-.17 1.863-.508 2.651m34.412-28.623h-22.283v2.555h9.77v31.887h2.72v-31.887h9.793zm27.636 34.442h2.815l-10.976-34.442h-2.507l-10.976 34.442h2.815l2.933-9.628h12.916zm-9.439-30.635l5.678 18.476h-11.355zm39.346-3.807h-22.283v2.555h9.77v31.887h2.72v-31.887h9.793zm26.925 15.447h-13.365v-12.892h15.257v-2.555h-17.953v34.442h18.072v-2.507h-15.376v-13.98h13.365v-2.508" fill="#2f3031"/><path d="M144.05 191.113h-8.054v-8.08h9.263v-1.556h-10.903v20.943h1.64v-9.753h8.055zm9.929-9.636h-1.64v20.94h1.64zm18.018 17.404c-.205.479-.498.89-.877 1.23-.379.34-.839.605-1.38.79-.543.188-1.15.28-1.82.28a6.63 6.63 0 01-1.776-.243 4.421 4.421 0 01-1.59-.806c-.469-.373-.85-.863-1.143-1.466-.292-.606-.439-1.347-.439-2.23h-1.639c0 1.113.196 2.063.59 2.855.393.79.901 1.437 1.524 1.941a6.213 6.213 0 002.114 1.115 8.006 8.006 0 002.359.361c.883 0 1.692-.127 2.43-.376a5.588 5.588 0 001.914-1.077 4.929 4.929 0 001.259-1.72c.301-.676.453-1.44.453-2.295 0-.843-.128-1.588-.381-2.236a4.877 4.877 0 00-1.123-1.704c-.493-.488-1.103-.917-1.827-1.288a17.467 17.467 0 00-2.494-1.013c-.854-.278-1.575-.573-2.166-.886-.589-.31-1.066-.644-1.43-.998a3.189 3.189 0 01-.784-1.159 3.83 3.83 0 01-.238-1.373c0-.527.091-1.024.274-1.487.182-.466.45-.875.805-1.223a3.712 3.712 0 011.33-.828c.533-.202 1.154-.302 1.863-.302.71 0 1.338.117 1.884.353a3.87 3.87 0 011.382.984c.373.423.658.92.854 1.496.198.576.296 1.203.296 1.884h1.654c0-.87-.139-1.688-.418-2.452a5.768 5.768 0 00-1.208-1.992 5.658 5.658 0 00-1.913-1.337c-.747-.327-1.59-.49-2.53-.49-.874 0-1.671.134-2.395.395a5.624 5.624 0 00-1.871 1.108 4.978 4.978 0 00-1.221 1.712c-.294.667-.439 1.401-.439 2.208 0 .825.133 1.547.403 2.165.268.618.652 1.16 1.15 1.624a7.42 7.42 0 001.804 1.223c.706.352 1.499.673 2.382.972a17.58 17.58 0 012.257.918c.604.31 1.087.645 1.445 1.009.36.365.615.77.763 1.214.15.447.223.956.223 1.534a4.02 4.02 0 01-.31 1.61m22.076-17.404h-1.654v9.394h-9.839v-9.394h-1.639v20.943h1.639v-10.027h9.839v10.027h1.654zm17.983 9.394h-8.127v-7.839h9.278v-1.555h-10.918v20.943h10.99v-1.527h-9.35v-8.5h8.127zm18.83 11.55h1.755v-.189l-4.357-8.903a5.06 5.06 0 001.475-.828 5.33 5.33 0 001.142-1.273 6.051 6.051 0 00.734-1.637 7.029 7.029 0 00.258-1.943c0-.998-.138-1.879-.416-2.648-.278-.767-.676-1.41-1.194-1.935a5.038 5.038 0 00-1.891-1.184c-.744-.27-1.58-.404-2.51-.404h-5.74v20.943h1.655v-8.716h4.89zm-9.089-19.389h4.084c.71 0 1.336.105 1.878.322.541.215.997.523 1.366.922.37.396.647.881.835 1.45.187.571.28 1.212.28 1.922 0 .594-.087 1.165-.259 1.71a4.387 4.387 0 01-.762 1.446c-.336.417-.76.75-1.274 1-.512.25-1.105.373-1.776.373h-4.372zm17.134-1.555h-1.927l6.285 13.06v7.883h1.64v-7.883l6.3-13.06h-1.884l-5.221 11.392-5.193-11.392M303.155 2.78a4.783 4.783 0 00-.19-1.053 1.959 1.959 0 00-.452-.996c-.122-.152-1.265-1.447-2.953-.163-27.825 21.157-49.841 54.559-63.123 78.17-9.476-16.846-23.396-38.671-40.702-57.483a266.235 266.235 0 013.881-4.224c.559.828 1.303 1.181 2.021 1.181.055 0 .108-.003.163-.007.41-.028 1.783-.27 2.276-2.193.168-.653.227-1.436.168-2.264a8.206 8.206 0 00-.201-1.31 198.771 198.771 0 017.594-7.295c.032.032.051.076.086.106a1.476 1.476 0 001.073.37c.844-.06 1.696-.836 1.555-2.836a4.904 4.904 0 00-.188-1.067 1.986 1.986 0 00-.452-.985c-.124-.152-1.266-1.447-2.955-.163-6.579 5.001-12.83 10.688-18.72 16.767-5.89-6.079-12.143-11.766-18.721-16.768-1.686-1.282-2.83.013-2.955.164-.22.269-.4.602-.452.99a4.94 4.94 0 00-.19 1.063c-.135 2 .715 2.775 1.557 2.835l.086.002c.234 0 .682-.069 1.08-.47a198.2 198.2 0 017.587 7.286 8.132 8.132 0 00-.201 1.31c-.059.83 0 1.613.168 2.265.494 1.923 1.868 2.165 2.277 2.193.053.004.108.007.161.007.72 0 1.464-.353 2.023-1.181a267.158 267.158 0 013.88 4.225c-17.307 18.81-31.227 40.636-40.703 57.48-13.281-23.61-35.297-57.01-63.122-78.17-1.686-1.28-2.83.014-2.954.165-.22.269-.4.604-.452.99-.09.304-.16.647-.19 1.062-.139 2 .713 2.776 1.556 2.836l.087.002c.234 0 .683-.069 1.081-.47 1.983 1.8 4.556 4.229 7.584 7.285a8.214 8.214 0 00-.2 1.31c-.058.831 0 1.614.169 2.266.494 1.923 1.867 2.165 2.276 2.193.054.004.108.007.162.007.72 0 1.464-.353 2.023-1.181a272.003 272.003 0 0112.134 13.842 10.23 10.23 0 00-.308 1.876c-.219 3.123.799 5.143 2.654 5.274a2.45 2.45 0 001.776-.616c.216-.188.395-.419.557-.666a301.278 301.278 0 0110.016 13.675c-.305.797-.516 1.796-.59 2.847-.232 3.32.818 5.468 2.738 5.604h.002c.06.004.121.005.182.005.951 0 1.745-.545 2.323-1.515a310.304 310.304 0 019.9 16.265c-.346.927-.588 2.049-.68 3.367-.273 3.916.874 6.44 2.992 6.587.064.005.127.007.188.007.883 0 1.638-.465 2.242-1.279a314.035 314.035 0 011.888 3.663c-6.44 12.036-9.983 20.18-10.084 20.416l1.212.521.612.263.026.012 1.798.772.009-.02 1.15.472.446.182.133.055.038.016 1.837.752a314.334 314.334 0 016.79-15.372 311.795 311.795 0 016.789 15.372l1.837-.752.03-.012.142-.059.445-.182 1.151-.471.008.019 1.801-.774.024-.01h-.001.001l.612-.263 1.212-.52c-.101-.237-3.644-8.38-10.084-20.417.627-1.23 1.255-2.459 1.888-3.663.604.814 1.359 1.279 2.24 1.279.063 0 .126-.002.188-.007 2.119-.147 3.267-2.67 2.994-6.587-.092-1.32-.334-2.442-.679-3.369a311.183 311.183 0 019.897-16.261c.579.969 1.372 1.513 2.326 1.513.06 0 .12-.001.181-.005h.003c1.92-.136 2.968-2.284 2.737-5.604-.073-1.051-.285-2.05-.59-2.847A303.062 303.062 0 01182.8 36.741c.163.247.34.478.556.666a2.454 2.454 0 001.778.616c1.854-.131 2.87-2.151 2.653-5.274a9.917 9.917 0 00-.319-1.861 283.077 283.077 0 014.566-5.435 282.955 282.955 0 014.568 5.435 9.809 9.809 0 00-.32 1.861c-.219 3.123.798 5.143 2.653 5.274a2.453 2.453 0 001.777-.616 3.19 3.19 0 00.556-.664 300.2 300.2 0 0110.016 13.673c-.305.799-.516 1.796-.59 2.848-.231 3.319.818 5.467 2.737 5.603h.003c.061.004.122.005.181.005.952 0 1.747-.544 2.325-1.513a310.368 310.368 0 019.891 16.249c-.343.929-.58 2.057-.672 3.381-.272 3.916.875 6.44 2.993 6.587.064.005.127.007.187.007.883 0 1.637-.465 2.241-1.279a291.127 291.127 0 011.888 3.664c-6.44 12.036-9.981 20.179-10.082 20.415l1.824.784.018.008.594.255 1.212.52.008-.018 3.605 1.476a312.813 312.813 0 016.79-15.371 312.813 312.813 0 016.789 15.371l1.836-.752.054-.023 1.715-.701c.004.01.007.015.007.019l1.213-.52.573-.247.039-.017 1.824-.784c-.101-.236-3.644-8.379-10.084-20.415.628-1.232 1.255-2.46 1.888-3.664.604.814 1.36 1.279 2.241 1.279.062 0 .126-.002.188-.007.759-.053 2.12-.491 2.726-2.835.268-1.045.364-2.377.268-3.752-.094-1.32-.332-2.445-.678-3.372a309.11 309.11 0 019.898-16.258c.576.968 1.37 1.513 2.322 1.513.06 0 .122-.001.183-.005h.001c1.922-.136 2.97-2.284 2.738-5.604-.072-1.05-.284-2.05-.591-2.847a303.049 303.049 0 0110.017-13.675c.162.247.34.478.556.666a2.46 2.46 0 001.779.616c1.852-.131 2.87-2.151 2.652-5.274a10.04 10.04 0 00-.308-1.876 272.52 272.52 0 0112.135-13.842c.56.828 1.304 1.181 2.022 1.181.055 0 .108-.003.163-.007 1.324-.092 2.663-1.312 2.445-4.458a8.295 8.295 0 00-.201-1.312 197.926 197.926 0 017.585-7.284 1.533 1.533 0 001.168.468c.842-.06 1.69-.836 1.554-2.839" fill="#1a3a5d"/></svg>