<svg xmlns="http://www.w3.org/2000/svg" viewBox="391.3 321.4 288 152.1"><path d="M677.9 429.7h-10V420h11.4v-1.9h-13.5v25.8h13.5V442h-11.5v-10.5h10l.1-1.8zm-20.2-11.6H641v1.9h7.3v23.9h2V420h7.3v-1.9zm-29.5 2.9l4.3 13.9H624l4.2-13.9zm7.1 22.9h2.1l-8.2-25.8h-1.9l-8.2 25.8h2.1l2.2-7.2h9.7l2.2 7.2zm-20.8-25.8h-16.7v1.9h7.3v23.9h2V420h7.3l.1-1.9zm-25.8 21.5c-.3.6-.6 1.1-1.1 1.5-.5.4-1 .7-1.7 1-.7.2-1.4.4-2.2.4-.7 0-1.5-.1-2.2-.3-.7-.2-1.4-.5-2-1-.6-.5-1-1.1-1.4-1.8s-.5-1.7-.5-2.8h-2c0 1.4.2 2.5.7 3.5.5 1 1.1 1.8 1.9 2.4.8.6 1.6 1.1 2.6 1.4 1 .3 1.9.4 2.9.4 1.1 0 2.1-.1 3-.5.9-.3 1.7-.8 2.4-1.3s1.2-1.3 1.5-2.1.6-1.8.6-2.8c0-1-.2-2-.5-2.8-.3-.8-.8-1.5-1.4-2.1-.6-.6-1.4-1.1-2.3-1.6-.9-.5-1.9-.9-3.1-1.3-1-.3-1.9-.7-2.7-1.1-.7-.4-1.3-.8-1.8-1.2-.5-.4-.8-.9-1-1.4-.2-.5-.3-1.1-.3-1.7 0-.6.1-1.3.3-1.8.2-.6.6-1.1 1-1.5.4-.4 1-.8 1.6-1 .7-.3 1.4-.4 2.3-.4.9 0 1.6.1 2.3.4.7.3 1.2.7 1.7 1.2s.8 1.1 1.1 1.9c.2.7.4 1.5.4 2.3h2c0-1.1-.2-2.1-.5-3-.3-.9-.8-1.8-1.5-2.5s-1.4-1.3-2.4-1.6c-.9-.4-2-.6-3.1-.6s-2.1.2-3 .5-1.7.8-2.3 1.4c-.6.6-1.2 1.3-1.5 2.1-.4.8-.5 1.7-.5 2.7 0 1 .2 1.9.5 2.7.3.8.8 1.4 1.4 2 .6.6 1.4 1.1 2.2 1.5.9.4 1.9.8 2.9 1.2 1.1.4 2 .8 2.8 1.1.7.4 1.3.8 1.8 1.2.4.5.8 1 .9 1.5s.3 1.2.3 1.9c.3.7.2 1.4-.1 2m-21.7-9.9h-10V420h11.4v-1.9h-13.5v25.8h13.5V442H557v-10.5h10v-1.8zm-34.4-11.6h-2v22l-12.2-22h-2v25.8h2v-22l12.2 22h2v-25.8zm-26.2 11.6h-10V420h11.4v-1.9h-13.5v25.8h13.5V442h-11.5v-10.5h10l.1-1.8zm-30.7-9.7c1.1 0 2.1.2 3 .5.9.4 1.6.9 2.3 1.6.6.7 1.1 1.6 1.4 2.6.3 1 .5 2.3.5 3.6v5.2c0 1.4-.2 2.6-.5 3.6s-.8 1.9-1.4 2.6c-.6.7-1.4 1.3-2.3 1.6-.9.4-1.9.5-3.1.5h-3.9v-22l4 .2zm-.1 23.9c1.4 0 2.7-.2 3.8-.7s2.1-1.1 2.9-2c.8-.9 1.4-2 1.9-3.2.4-1.3.7-2.8.7-4.4v-5.2c0-1.7-.2-3.1-.7-4.4-.4-1.3-1.1-2.4-1.9-3.3s-1.8-1.5-2.9-2c-1.1-.5-2.4-.7-3.7-.7h-6.1v26l6-.1zm-24.8-25.8h-2v25.8h12.7V442h-10.6l-.1-23.9zm-19 2.9l4.3 13.9h-8.5l4.2-13.9zm7 22.9h2.1l-8.2-25.8h-1.9l-8.2 25.8h2.1l2.2-7.2h9.7l2.2 7.2zm-44.9-25.8h-2.1l5.5 25.8h1.9l5-20.1.5-2.4.5 2.4 4.8 20.1h1.9l5.5-25.8h-2.1l-3.8 18.8-.7 3.9-.8-3.7-4.6-19h-1.8l-4.6 19-.8 3.6-.6-3.8-3.7-18.8zM571 457.8h-1.5l4.7 9.8v5.9h1.2v-5.9l4.7-9.8h-1.4l-3.9 8.5-3.8-8.5zm-12.8 1.1h3.1c.5 0 1 .1 1.4.2.4.2.8.4 1 .7.3.3.5.7.6 1.1.1.4.2.9.2 1.4 0 .5-.1.9-.2 1.3s-.3.8-.6 1.1-.6.6-1 .8c-.4.2-.8.3-1.3.3h-3.3v-6.9zm6.8 14.6h1.3v-.1l-3.3-6.7c.4-.1.8-.4 1.1-.6.3-.3.6-.6.9-1s.4-.8.5-1.2c.1-.5.2-.9.2-1.5 0-.8-.1-1.4-.3-2-.2-.6-.5-1.1-.9-1.5-.4-.4-.9-.7-1.4-.9-.6-.2-1.2-.3-1.9-.3h-4.3v15.7h1.2v-6.5h3.7l3.2 6.6zm-14.1-8.7h-6.1v-5.9h7v-1.2h-8.2v15.7h8.2v-1.1h-7V466h6.1v-1.2zm-13.5-7h-1.2v7h-7.4v-7h-1.2v15.7h1.2V466h7.4v7.5h1.2v-15.7zm-16.6 13c-.1.4-.4.7-.7.9-.3.3-.6.5-1 .6-.4.1-.9.2-1.4.2-.5 0-.9-.1-1.3-.2s-.8-.3-1.2-.6c-.4-.3-.6-.6-.9-1.1-.2-.5-.3-1-.3-1.7h-1.2c0 .8.1 1.5.4 2.1.3.6.7 1.1 1.1 1.5.5.4 1 .7 1.6.8.6.2 1.2.3 1.8.3.7 0 1.3-.1 1.8-.3.5-.2 1-.5 1.4-.8.4-.4.7-.8.9-1.3.2-.5.3-1.1.3-1.7 0-.6-.1-1.2-.3-1.7-.2-.5-.5-.9-.8-1.3s-.8-.7-1.4-1c-.5-.3-1.2-.5-1.9-.8-.6-.2-1.2-.4-1.6-.7s-.8-.5-1.1-.8c-.3-.3-.5-.6-.6-.9s-.2-.7-.2-1c0-.4.1-.8.2-1.1.1-.4.3-.6.6-.9.3-.3.6-.5 1-.6.4-.1.9-.2 1.4-.2.5 0 1 .1 1.4.3.4.2.8.4 1 .7.3.3.5.7.6 1.1.1.4.2.9.2 1.4h1.2c0-.6-.1-1.3-.3-1.8-.2-.6-.5-1.1-.9-1.5-.4-.4-.9-.8-1.4-1s-1.2-.4-1.9-.4c-.6 0-1.3.1-1.8.3-.5.2-1 .5-1.4.8-.4.4-.7.8-.9 1.3-.2.5-.3 1-.3 1.7 0 .6.1 1.2.3 1.6s.5.9.9 1.2.8.6 1.3.9c.5.3 1.1.5 1.8.7.7.2 1.2.5 1.7.7s.8.5 1.1.8c.3.3.5.6.6.9.1.3.2.7.2 1.1.2.8.2 1.2 0 1.5m-13.5-13h-1.2v15.7h1.2v-15.7zm-7.4 7.2h-6v-6.1h7v-1.2h-8.2v15.7h1.2v-7.3h6V465zm119.3-141.2c0-.3-.1-.6-.1-.8 0-.3-.2-.5-.3-.8-.1-.1-1-1.1-2.2-.1-20.9 15.9-37.4 40.9-47.3 58.6-7.1-12.6-17.5-29-30.5-43.1 1-1.1 2-2.2 2.9-3.2.4.6 1 .9 1.5.9h.1c.3 0 1.3-.2 1.7-1.6.1-.5.2-1.1.1-1.7 0-.4-.1-.7-.2-1 2.3-2.3 4.2-4.1 5.7-5.5 0 0 0 .1.1.1.2.2.5.3.7.3h.1c.6 0 1.3-.6 1.2-2.1 0-.3-.1-.6-.1-.8 0-.3-.2-.5-.3-.7-.1-.1-1-1.1-2.2-.1-4.9 3.8-9.6 8-14 12.6-4.4-4.6-9.1-8.8-14-12.6-1.3-1-2.1 0-2.2.1-.2.2-.3.4-.3.7-.1.2-.1.5-.1.8-.1 1.5.5 2.1 1.2 2.1h.1c.2 0 .5-.1.8-.4 1.5 1.4 3.4 3.2 5.7 5.5-.1.3-.1.6-.1 1 0 .6 0 1.2.1 1.7.4 1.4 1.4 1.6 1.7 1.6h.1c.5 0 1.1-.3 1.5-.9.9 1 1.9 2 2.9 3.2-13 14.1-23.4 30.5-30.5 43.1-10-17.7-26.5-42.8-47.3-58.6-1.3-1-2.1 0-2.2.1-.2.2-.3.4-.3.7-.1.2-.1.5-.1.8-.1 1.5.5 2.1 1.2 2.1h.1c.2 0 .5-.1.8-.4 1.5 1.4 3.4 3.2 5.7 5.5-.1.3-.1.6-.1 1 0 .6 0 1.2.1 1.7.4 1.4 1.4 1.6 1.7 1.6h.1c.5 0 1.1-.3 1.5-.9 2.8 2.9 5.8 6.4 9.1 10.4-.1.4-.2.9-.2 1.4-.2 2.3.6 3.9 2 4h.1c.4 0 .9-.2 1.2-.5.2-.1.3-.3.4-.5 2.4 3.1 5 6.6 7.5 10.3-.2.6-.4 1.4-.4 2.1-.2 2.5.6 4.1 2 4.2h.1c.7 0 1.3-.4 1.7-1.1 2.5 3.8 5 7.9 7.4 12.2-.3.7-.4 1.5-.5 2.5-.2 2.9.7 4.8 2.2 4.9h.1c.7 0 1.2-.4 1.7-1 .5.9 1 1.8 1.4 2.8-4.8 9-7.5 15.1-7.6 15.3l.9.4.5.2 1.4.6.9.4.3.1h.1l1.4.6c1.6-4 3.3-7.8 5.1-11.5 1.8 3.7 3.5 7.5 5.1 11.5l1.4-.6h.1l.3-.1.9-.4 1.4-.6.5-.2.9-.4c-.1-.2-2.7-6.3-7.6-15.3.5-.9.9-1.8 1.4-2.8.5.6 1 1 1.7 1h.1c1.6-.1 2.5-2 2.3-4.9-.1-1-.3-1.8-.5-2.5 2.5-4.3 4.9-8.4 7.4-12.2.4.7 1 1.1 1.7 1.1h.1c1.4-.1 2.2-1.7 2-4.2-.1-.8-.2-1.5-.4-2.1 2.5-3.7 5.1-7.1 7.5-10.3.1.2.3.4.4.5.3.3.8.5 1.2.5h.1c1.4-.1 2.2-1.6 2-3.9 0-.5-.1-1-.2-1.4 1.2-1.4 2.3-2.8 3.4-4.1 1.1 1.3 2.3 2.6 3.4 4.1-.1.4-.2.9-.2 1.4-.2 2.3.6 3.9 2 3.9h.1c.4 0 .9-.2 1.2-.5.2-.1.3-.3.4-.5 2.4 3.1 5 6.6 7.5 10.3-.2.6-.4 1.4-.4 2.1-.2 2.5.6 4.1 2 4.2h.1c.7 0 1.3-.4 1.7-1.1 2.5 3.8 5 7.9 7.4 12.2-.3.7-.4 1.5-.5 2.5-.2 2.9.7 4.8 2.3 4.9h.1c.7 0 1.2-.4 1.7-1 .5.9 1 1.8 1.4 2.8-4.8 9-7.5 15.1-7.6 15.3l1.4.6.4.2.9.4 2.7 1.1c1.6-4 3.3-7.8 5.1-11.5 1.8 3.7 3.5 7.5 5.1 11.5l1.4-.6 1.3-.5.9-.4.4-.2 1.4-.6c-.1-.2-2.7-6.3-7.6-15.3.5-.9.9-1.8 1.4-2.8.5.6 1 1 1.7 1h.1c.6 0 1.6-.4 2-2.1.2-.8.3-1.8.2-2.8-.1-1-.3-1.8-.5-2.5 2.5-4.3 4.9-8.4 7.4-12.2.4.7 1 1.1 1.7 1.1h.1c1.4-.1 2.2-1.7 2-4.2-.1-.8-.2-1.5-.4-2.1 2.5-3.7 5.1-7.1 7.5-10.3.1.2.3.4.4.5.3.3.8.5 1.2.5h.1c1.4-.1 2.2-1.6 2-3.9 0-.5-.1-1-.2-1.4 3.3-4 6.3-7.5 9.1-10.4.4.6 1 .9 1.5.9h.1c1-.1 2-1 1.8-3.3 0-.4-.1-.7-.1-1 2.3-2.3 4.2-4.1 5.7-5.5.3.3.6.4.8.4h.1c.8-.1 1.4-.6 1.3-2.1z" fill="#fff"/></svg>