<svg xmlns="http://www.w3.org/2000/svg" xmlns:xlink="http://www.w3.org/1999/xlink" viewBox="0 0 118.2 58.2"><defs><path id="a" d="M0 0h118.2v58.2H0z"/></defs><clipPath id="b"><use xlink:href="#a" overflow="visible"/></clipPath><path clip-path="url(#b)" fill="#083F61" d="M118.2 1.5c0-.2-.1-.4-.1-.6 0-.2-.1-.4-.2-.5-.1-.1-.7-.8-1.6-.1-14.8 11.3-26.5 29-33.6 41.6-5-9-12.4-20.6-21.6-30.6.7-.8 1.4-1.5 2.1-2.2.3.4.7.6 1.1.6h.1c.2 0 .9-.1 1.2-1.2.1-.3.1-.8.1-1.2 0-.2-.1-.5-.1-.7 1.6-1.6 3-2.9 4-3.9v.1c.1.1.3.2.5.2h.1c.4 0 .8-.5.8-1.5 0-.2-.1-.4-.1-.6 0-.2-.1-.4-.2-.5-.1-.1-.7-.8-1.6-.1-3.5 2.7-6.9 5.7-10 8.9C56 6 52.6 3 49.1.3c-.9-.7-1.5 0-1.6.1-.1.1-.2.3-.2.5s-.1.3-.1.6c0 1 .4 1.5.9 1.5.1 0 .4 0 .6-.3 1.1 1 2.4 2.2 4 3.9 0 .2-.1.4-.1.7 0 .4 0 .9.1 1.2.3 1 1 1.2 1.2 1.2h.1c.4 0 .8-.2 1.1-.6.7.7 1.3 1.5 2.1 2.2-9.2 10-16.6 21.6-21.6 30.6C28.4 29.3 16.7 11.6 1.9.3 1-.4.4.3.3.4.2.5.1.7.1.9s-.1.4-.1.6C-.1 2.5.4 3 .8 3c.2 0 .4 0 .7-.3 1.1 1 2.4 2.3 4 3.9 0 .2-.1.4-.1.7 0 .4 0 .9.1 1.2.3 1 1 1.2 1.2 1.2h.1c.4 0 .8-.2 1.1-.6 1.9 2.1 4.1 4.5 6.5 7.4-.1.3-.1.6-.2 1-.1 1.7.4 2.7 1.4 2.8h.1c.3 0 .6-.1.9-.3.1-.1.2-.2.3-.4 1.7 2.2 3.5 4.7 5.3 7.3-.2.4-.3 1-.3 1.5-.1 1.8.4 2.9 1.5 3h.1c.5 0 .9-.3 1.2-.8 1.8 2.7 3.5 5.6 5.3 8.6-.2.5-.3 1.1-.4 1.8-.1 2.1.5 3.4 1.6 3.5h.1c.5 0 .9-.2 1.2-.7.3.6.7 1.3 1 1.9-3.5 6.4-5.4 10.7-5.5 10.9l.6.3.4.1 1 .4.6.3.2.1h.1l1 .4c1.2-2.8 2.4-5.6 3.6-8.2 1.2 2.6 2.5 5.3 3.6 8.2l1-.4h.1l.2-.1.6-.3 1-.4.3-.1.6-.3c-.1-.1-1.9-4.5-5.4-10.9.3-.7.7-1.3 1-1.9.3.4.7.7 1.2.7h.1c1.1-.1 1.7-1.4 1.6-3.5 0-.7-.2-1.3-.4-1.8 1.7-3.1 3.5-5.9 5.3-8.6.3.5.7.8 1.2.8h.1c1-.1 1.6-1.2 1.5-3 0-.6-.2-1.1-.3-1.5 1.8-2.6 3.6-5 5.3-7.3.1.1.2.3.3.4.2.2.5.3.9.3h.1c1-.1 1.5-1.1 1.4-2.8 0-.4-.1-.7-.2-1 .8-1 1.6-2 2.4-2.9.8.9 1.6 1.9 2.4 2.9-.1.3-.1.6-.2 1-.1 1.7.4 2.7 1.4 2.8h.1c.3 0 .6-.1.9-.3.1-.1.2-.2.3-.4 1.7 2.2 3.5 4.7 5.3 7.3-.2.4-.3 1-.3 1.5-.1 1.8.4 2.9 1.5 3h.1c.5 0 .9-.3 1.2-.8 1.8 2.7 3.5 5.6 5.3 8.6-.2.5-.3 1.1-.4 1.8-.1 2.1.5 3.4 1.6 3.5h.1c.5 0 .9-.2 1.2-.7.3.6.7 1.3 1 1.9-3.4 6.4-5.3 10.7-5.4 10.9l1 .4.3.1.6.3 1.9.8c1.2-2.8 2.4-5.6 3.6-8.2 1.2 2.6 2.5 5.3 3.6 8.2l1-.4.9-.4.6-.3.3-.1 1-.4c-.1-.1-1.9-4.5-5.4-10.9.3-.7.7-1.3 1-1.9.3.4.7.7 1.2.7h.1c.4 0 1.1-.3 1.4-1.5.1-.6.2-1.3.1-2s-.2-1.3-.4-1.8c1.7-3.1 3.5-5.9 5.3-8.6.3.5.7.8 1.2.8h.1c1-.1 1.6-1.2 1.5-3 0-.6-.2-1.1-.3-1.5 1.8-2.6 3.6-5 5.3-7.3.1.1.2.3.3.4.2.2.5.3.9.3h.1c1-.1 1.5-1.1 1.4-2.8 0-.4-.1-.7-.2-1 2.3-2.8 4.5-5.3 6.5-7.4.3.4.7.6 1.1.6h.1c.7 0 1.4-.7 1.3-2.4 0-.3-.1-.5-.1-.7 1.6-1.6 3-2.9 4-3.9.6.3.8.3.9.3.5 0 1-.5.9-1.5"/></svg>