<svg id="Layer_1" xmlns="http://www.w3.org/2000/svg" viewBox="0 0 250 194"><style>.st1{fill:#424143}</style><path fill="#fdd407" d="M0 0h250v194H0z"/><g id="XMLID_221_"><path id="XMLID_222_" class="st1" d="M48.4 56.4l-5.6-18.1h-.1c.2 3.7.3 6.2.3 7.4v10.8h-4.4V33.3h6.7L50.8 51h.1l5.8-17.7h6.7v23.1h-4.6V43.7c0-.7.1-2.5.2-5.4h-.1l-6 18.1h-4.5z"/><path id="XMLID_224_" class="st1" d="M83.1 56.4H69.8V33.3h13.3v4h-8.4v5.1h7.8v4h-7.8v6h8.4v4z"/><path id="XMLID_226_" class="st1" d="M93.5 47.6v8.9h-4.9V33.3h6.7c3.1 0 5.5.6 7 1.7s2.3 2.9 2.3 5.2c0 1.4-.4 2.6-1.1 3.6-.7 1.1-1.8 1.9-3.2 2.5 3.5 5.2 5.7 8.6 6.8 10.1h-5.4l-5.5-8.9h-2.7zm0-4h1.6c1.6 0 2.7-.3 3.4-.8.7-.5 1.1-1.3 1.1-2.4 0-1.1-.4-1.9-1.1-2.3s-1.9-.7-3.5-.7h-1.5v6.2z"/><path id="XMLID_229_" class="st1" d="M123.9 56.4h-13.3V33.3h13.3v4h-8.4v5.1h7.8v4h-7.8v6h8.4v4z"/><path id="XMLID_231_" class="st1" d="M145.3 40.5c0 2.5-.8 4.4-2.3 5.7s-3.8 2-6.6 2h-2.1v8.2h-4.9V33.3h7.4c2.8 0 4.9.6 6.4 1.8 1.4 1.2 2.1 3 2.1 5.4zm-11 3.7h1.6c1.5 0 2.6-.3 3.4-.9.7-.6 1.1-1.5 1.1-2.6s-.3-2-.9-2.5c-.6-.5-1.6-.8-3-.8h-2.2v6.8z"/><path id="XMLID_234_" class="st1" d="M164.5 56.4l-1.7-5.5h-8.4l-1.7 5.5h-5.3l8.2-23.2h6l8.2 23.2h-5.3zm-2.8-9.6c-1.6-5-2.4-7.8-2.6-8.5-.2-.7-.3-1.2-.4-1.5-.3 1.3-1.3 4.7-3 10h6z"/><path id="XMLID_237_" class="st1" d="M178.2 47.6v8.9h-4.9V33.3h6.7c3.1 0 5.5.6 7 1.7s2.3 2.9 2.3 5.2c0 1.4-.4 2.6-1.1 3.6-.7 1.1-1.8 1.9-3.2 2.5 3.5 5.2 5.7 8.6 6.8 10.1h-5.4l-5.5-8.9h-2.7zm0-4h1.6c1.6 0 2.7-.3 3.4-.8.7-.5 1.1-1.3 1.1-2.4 0-1.1-.4-1.9-1.1-2.3s-1.9-.7-3.5-.7h-1.5v6.2z"/><path id="XMLID_240_" class="st1" d="M214 56.4h-5.6l-6.1-9.7-2.1 1.5v8.3h-4.9V33.3h4.9v10.6l1.9-2.7 6.3-7.9h5.4l-8.1 10.2 8.3 12.9z"/></g><g id="XMLID_203_"><path id="XMLID_204_" class="st1" d="M55.9 154.7c0 2.5-.9 4.4-2.7 5.9s-4.3 2.1-7.4 2.1c-2.9 0-5.5-.6-7.8-1.7v-5.4c1.9.8 3.4 1.4 4.7 1.7 1.3.3 2.5.5 3.5.5 1.3 0 2.3-.2 2.9-.7.7-.5 1-1.2 1-2.2 0-.5-.2-1-.5-1.4-.3-.4-.7-.8-1.3-1.2-.6-.4-1.8-1-3.6-1.9-1.7-.8-2.9-1.5-3.8-2.3-.8-.7-1.5-1.6-2-2.5s-.8-2.1-.8-3.4c0-2.4.8-4.3 2.5-5.7 1.6-1.4 3.9-2.1 6.8-2.1 1.4 0 2.8.2 4.1.5 1.3.3 2.7.8 4.1 1.4l-1.9 4.5c-1.5-.6-2.7-1-3.6-1.3-1-.2-1.9-.4-2.8-.4-1.1 0-1.9.3-2.5.8s-.9 1.2-.9 2c0 .5.1 1 .4 1.3.2.4.6.8 1.1 1.1.5.4 1.8 1 3.7 1.9 2.6 1.2 4.3 2.5 5.3 3.7 1 1.5 1.5 3 1.5 4.8z"/><path id="XMLID_206_" class="st1" d="M72.2 162.3h-5.8v-22.6h-7.5v-4.8h20.7v4.8h-7.5v22.6z"/><path id="XMLID_208_" class="st1" d="M109.6 148.6c0 4.5-1.1 8-3.4 10.5-2.3 2.4-5.5 3.7-9.7 3.7-4.2 0-7.4-1.2-9.7-3.7-2.3-2.4-3.4-5.9-3.4-10.5s1.1-8.1 3.4-10.5c2.3-2.4 5.5-3.6 9.7-3.6s7.4 1.2 9.7 3.6c2.3 2.4 3.4 5.9 3.4 10.5zm-20.1 0c0 3.1.6 5.4 1.7 6.9 1.2 1.6 2.9 2.3 5.2 2.3 4.6 0 7-3.1 7-9.3 0-6.2-2.3-9.3-6.9-9.3-2.3 0-4.1.8-5.2 2.3-1.2 1.7-1.8 4-1.8 7.1z"/><path id="XMLID_211_" class="st1" d="M121.9 151.8v10.5H116v-27.5h8c3.7 0 6.5.7 8.3 2 1.8 1.4 2.7 3.4 2.7 6.2 0 1.6-.4 3.1-1.3 4.3-.9 1.3-2.1 2.2-3.8 3 4.1 6.2 6.8 10.2 8.1 12h-6.5l-6.6-10.5h-3zm0-4.7h1.9c1.8 0 3.2-.3 4.1-.9s1.3-1.6 1.3-2.9c0-1.3-.4-2.2-1.3-2.8s-2.3-.8-4.2-.8h-1.8v7.4z"/><path id="XMLID_214_" class="st1" d="M159 162.3l-2-6.5h-10l-2 6.5h-6.3l9.7-27.6h7.1l9.7 27.6H159zm-3.4-11.4c-1.8-5.9-2.9-9.3-3.1-10.1-.2-.8-.4-1.4-.5-1.8-.4 1.6-1.6 5.6-3.6 11.9h7.2z"/><path id="XMLID_217_" class="st1" d="M179.9 146.9h10.9v14.2c-1.8.6-3.4 1-5 1.2-1.6.2-3.2.3-4.8.3-4.1 0-7.3-1.2-9.5-3.7-2.2-2.4-3.3-5.9-3.3-10.5 0-4.4 1.3-7.9 3.8-10.4s6.1-3.7 10.5-3.7c2.8 0 5.5.6 8.2 1.7l-1.9 4.7c-2-1-4.1-1.5-6.3-1.5-2.5 0-4.5.8-6 2.5s-2.3 4-2.3 6.8c0 3 .6 5.3 1.8 6.8 1.2 1.6 3 2.4 5.3 2.4 1.2 0 2.4-.1 3.7-.4v-5.7h-5.2v-4.7z"/><path id="XMLID_219_" class="st1" d="M213.9 162.3h-15.8v-27.5h15.8v4.8h-10v6h9.3v4.8h-9.3v7.1h10v4.8z"/></g><g id="XMLID_180_"><path id="XMLID_181_" class="st1" d="M47.4 76.4c-1.7 0-3 .6-3.9 1.9-.9 1.3-1.4 3-1.4 5.3 0 4.7 1.8 7.1 5.3 7.1 1.5 0 3.3-.4 5.4-1.1v3.8c-1.7.7-3.7 1.1-5.8 1.1-3.1 0-5.4-.9-7.1-2.8-1.6-1.9-2.5-4.6-2.5-8.1 0-2.2.4-4.1 1.2-5.8.8-1.7 2-2.9 3.5-3.8 1.5-.9 3.3-1.3 5.3-1.3 2.1 0 4.1.5 6.2 1.5l-1.5 3.7c-.8-.4-1.6-.7-2.4-1-.7-.4-1.5-.5-2.3-.5z"/><path id="XMLID_183_" class="st1" d="M70.9 94.1L69.4 89h-7.7l-1.5 5.1h-4.8l7.5-21.3h5.5l7.5 21.3h-5zm-2.6-8.8c-1.4-4.6-2.2-7.2-2.4-7.8-.2-.6-.3-1.1-.4-1.4-.3 1.2-1.2 4.3-2.7 9.2h5.5z"/><path id="XMLID_186_" class="st1" d="M83.5 86v8.1H79V72.9h6.2c2.9 0 5 .5 6.4 1.6 1.4 1 2.1 2.6 2.1 4.8 0 1.2-.3 2.4-1 3.3-.7 1-1.7 1.7-2.9 2.3 3.2 4.8 5.3 7.9 6.2 9.2h-5L85.9 86h-2.4zm0-3.7H85c1.4 0 2.5-.2 3.1-.7.7-.5 1-1.2 1-2.2 0-1-.3-1.7-1-2.1-.7-.4-1.8-.6-3.2-.6h-1.4v5.6z"/><path id="XMLID_189_" class="st1" d="M112.2 94.1l-1.5-5.1H103l-1.5 5.1h-4.8l7.5-21.3h5.5l7.5 21.3h-5zm-2.6-8.8c-1.4-4.6-2.2-7.2-2.4-7.8-.2-.6-.3-1.1-.4-1.4-.3 1.2-1.2 4.3-2.7 9.2h5.5z"/><path id="XMLID_192_" class="st1" d="M132.4 72.9h4.5l-7.2 21.2h-4.9l-7.2-21.2h4.5l4 12.6c.2.7.5 1.6.7 2.6s.4 1.7.4 2.1c.1-.9.5-2.4 1.1-4.7l4.1-12.6z"/><path id="XMLID_194_" class="st1" d="M153.2 94.1l-1.5-5.1H144l-1.5 5.1h-4.8l7.5-21.3h5.5l7.5 21.3h-5zm-2.6-8.8c-1.4-4.6-2.2-7.2-2.4-7.8-.2-.6-.3-1.1-.4-1.4-.3 1.2-1.2 4.3-2.7 9.2h5.5z"/><path id="XMLID_197_" class="st1" d="M180.1 94.1h-5.7L165.2 78h-.1c.2 2.8.3 4.9.3 6.1v10h-4V72.9h5.7l9.2 15.9h.1c-.1-2.8-.2-4.7-.2-5.8V73h4v21.1z"/><path id="XMLID_199_" class="st1" d="M214 94.1h-5.5l-1.7-1.6c-1.8 1.3-3.9 1.9-6.3 1.9s-4.2-.5-5.6-1.6c-1.4-1.1-2.1-2.5-2.1-4.4 0-1.3.3-2.5.9-3.4.6-.9 1.6-1.8 3-2.6-.7-.8-1.3-1.6-1.6-2.4s-.5-1.6-.5-2.5c0-1.5.6-2.7 1.7-3.6 1.1-.9 2.6-1.3 4.5-1.3 1.8 0 3.2.4 4.3 1.3s1.6 2 1.6 3.4c0 1.2-.3 2.2-1 3.2s-1.7 1.9-3.2 2.7l4.1 4c.7-1.1 1.3-2.6 1.8-4.4h4.6c-.3 1.3-.8 2.6-1.4 3.8-.6 1.2-1.3 2.3-2.1 3.3l4.5 4.2zM197.6 88c0 .8.3 1.5.9 2 .6.5 1.4.7 2.4.7 1.2 0 2.3-.3 3.3-.9l-4.8-4.8c-.6.4-1 .9-1.3 1.3s-.5 1.1-.5 1.7zm5.2-10.3c0-.5-.2-.9-.5-1.2-.3-.3-.8-.4-1.3-.4-.6 0-1.2.2-1.5.5-.4.3-.6.8-.6 1.3 0 .9.5 1.8 1.4 2.8.8-.5 1.5-.9 1.9-1.4s.6-1 .6-1.6z"/></g><g id="XMLID_157_"><path id="XMLID_158_" class="st1" d="M45.8 118.2l-4.4-14.4h-.1c.2 2.9.2 4.9.2 5.9v8.5H38V99.8h5.3l4.3 14h.1l4.6-14h5.3v18.4H54v-10.1c0-.5.1-2 .2-4.3h-.1l-4.7 14.4h-3.6z"/><path id="XMLID_160_" class="st1" d="M79.5 109c0 3-.8 5.4-2.3 7-1.5 1.6-3.7 2.5-6.5 2.5s-5-.8-6.5-2.5c-1.5-1.6-2.3-4-2.3-7 0-3.1.8-5.4 2.3-7s3.7-2.4 6.5-2.4 5 .8 6.5 2.4 2.3 3.9 2.3 7zm-13.4 0c0 2.1.4 3.6 1.2 4.6.8 1 1.9 1.6 3.5 1.6 3.1 0 4.7-2.1 4.7-6.2s-1.5-6.2-4.6-6.2c-1.5 0-2.7.5-3.5 1.6-.9 1-1.3 2.5-1.3 4.6z"/><path id="XMLID_163_" class="st1" d="M90.9 118.2H87V103h-5v-3.2h13.9v3.2h-5v15.2z"/><path id="XMLID_165_" class="st1" d="M115.9 109c0 3-.8 5.4-2.3 7-1.5 1.6-3.7 2.5-6.5 2.5s-5-.8-6.5-2.5c-1.5-1.6-2.3-4-2.3-7 0-3.1.8-5.4 2.3-7 1.5-1.6 3.7-2.4 6.5-2.4s5 .8 6.5 2.4 2.3 3.9 2.3 7zm-13.4 0c0 2.1.4 3.6 1.2 4.6.8 1 1.9 1.6 3.5 1.6 3.1 0 4.7-2.1 4.7-6.2s-1.5-6.2-4.6-6.2c-1.5 0-2.7.5-3.5 1.6s-1.3 2.5-1.3 4.6z"/><path id="XMLID_168_" class="st1" d="M124.1 111.1v7h-3.9V99.8h5.4c2.5 0 4.3.5 5.5 1.4 1.2.9 1.8 2.3 1.8 4.1 0 1.1-.3 2-.9 2.9s-1.4 1.5-2.5 2c2.8 4.1 4.6 6.8 5.4 8h-4.3l-4.4-7h-2.1zm0-3.1h1.3c1.2 0 2.1-.2 2.7-.6.6-.4.9-1.1.9-1.9 0-.9-.3-1.5-.9-1.9-.6-.4-1.5-.6-2.8-.6h-1.2v5z"/><path id="XMLID_171_" class="st1" d="M152.7 118.2h-3.9v-7.9h-7.3v7.9h-3.9V99.8h3.9v7.2h7.3v-7.2h3.9v18.4z"/><path id="XMLID_173_" class="st1" d="M174.5 109c0 3-.8 5.4-2.3 7-1.5 1.6-3.7 2.5-6.5 2.5s-5-.8-6.5-2.5c-1.5-1.6-2.3-4-2.3-7 0-3.1.8-5.4 2.3-7s3.7-2.4 6.5-2.4 5 .8 6.5 2.4 2.3 3.9 2.3 7zm-13.4 0c0 2.1.4 3.6 1.2 4.6.8 1 1.9 1.6 3.5 1.6 3.1 0 4.7-2.1 4.7-6.2s-1.5-6.2-4.6-6.2c-1.5 0-2.7.5-3.5 1.6-.9 1-1.3 2.5-1.3 4.6z"/><path id="XMLID_176_" class="st1" d="M186.6 118.2l-4.4-14.4h-.1c.2 2.9.2 4.9.2 5.9v8.5h-3.5V99.8h5.3l4.3 14h.1l4.6-14h5.3v18.4h-3.6v-10.1c0-.5.1-2 .2-4.3h-.1l-4.7 14.4h-3.6z"/><path id="XMLID_178_" class="st1" d="M214.2 118.2h-10.6V99.8h10.6v3.2h-6.7v4h6.2v3.2h-6.2v4.7h6.7v3.3z"/></g><path d="M37.9 64.1h176.2M38.2 125.5h176.1" fill="none" stroke="#fff" stroke-width="1.817"/></svg>