<svg id="Layer_1" xmlns="http://www.w3.org/2000/svg" xmlns:xlink="http://www.w3.org/1999/xlink" viewBox="0 0 81 61.5"><style>.st0{clip-path:url(#XMLID_119_);fill:#424143}</style><g id="XMLID_3_"><defs><path id="XMLID_4_" d="M0 0h81v61.5H0z"/></defs><clipPath id="XMLID_119_"><use xlink:href="#XMLID_4_" overflow="visible"/></clipPath><path id="XMLID_118_" class="st0" d="M77.3 53.7h-5.6c-.8 0-1.5-.7-1.5-1.5s.7-1.5 1.5-1.5h5.6c.4 0 .7-.3.7-.7V31.3c0-.1 0-.2-.1-.3l-7.2-14c-.1-.2-.4-.4-.6-.4H49.8v10.2c0 .8-.7 1.5-1.5 1.5s-1.5-.7-1.5-1.5V15.1c0-.8.7-1.5 1.5-1.5h21.9c1.4 0 2.6.8 3.2 2l7.2 14c.3.5.4 1.1.4 1.7V50c0 2-1.7 3.7-3.7 3.7"/><path id="XMLID_115_" class="st0" d="M55.6 31.2h15.6l-4.4-8.8H55.6v8.8zm18 2.9H54.1c-.8 0-1.5-.7-1.5-1.5V21c0-.8.7-1.5 1.5-1.5h13.6c.6 0 1.1.3 1.3.8L74.9 32c.2.5.2 1-.1 1.4-.3.5-.7.7-1.2.7"/><path id="XMLID_114_" class="st0" d="M54.1 53.7H22.9c-.8 0-1.5-.7-1.5-1.5s.7-1.5 1.5-1.5h31.2c.8 0 1.5.7 1.5 1.5s-.6 1.5-1.5 1.5"/><path id="XMLID_113_" class="st0" d="M7.3 53.7H1.5C.7 53.7 0 53 0 52.2V10.5C0 8 2.1 5.9 4.6 5.9H62c.8 0 1.5.7 1.5 1.5v7.8c0 .8-.7 1.5-1.5 1.5s-1.5-.7-1.5-1.5V8.8H4.6c-.9 0-1.7.8-1.7 1.7v40.3h4.4c.8 0 1.5.7 1.5 1.5 0 .7-.7 1.4-1.5 1.4"/><path id="XMLID_112_" class="st0" d="M5.4 45.9H1.5c-.8 0-1.5-.7-1.5-1.5s.7-1.5 1.5-1.5h3.9c.8 0 1.5.7 1.5 1.5-.1.8-.7 1.5-1.5 1.5"/><path id="XMLID_111_" class="st0" d="M28.8 45.9h-3.9c-.8 0-1.5-.7-1.5-1.5s.7-1.5 1.5-1.5h3.9c.8 0 1.5.7 1.5 1.5-.1.8-.7 1.5-1.5 1.5"/><path id="XMLID_110_" class="st0" d="M46.3 45.9h-3.9c-.8 0-1.5-.7-1.5-1.5s.7-1.5 1.5-1.5h3.9c.8 0 1.5.7 1.5 1.5s-.6 1.5-1.5 1.5"/><path id="XMLID_107_" class="st0" d="M15.1 45.9c-3.5 0-6.3 2.8-6.3 6.3s2.8 6.3 6.3 6.3 6.3-2.8 6.3-6.3c.1-3.5-2.8-6.3-6.3-6.3m0 15.6c-5.1 0-9.3-4.2-9.3-9.3 0-5.1 4.2-9.3 9.3-9.3s9.3 4.2 9.3 9.3c0 5.1-4.2 9.3-9.3 9.3"/><path id="XMLID_14_" class="st0" d="M63.9 45.9c-3.5 0-6.3 2.8-6.3 6.3s2.8 6.3 6.3 6.3 6.3-2.8 6.3-6.3-2.8-6.3-6.3-6.3m0 15.6c-5.1 0-9.3-4.2-9.3-9.3 0-5.1 4.2-9.3 9.3-9.3s9.3 4.2 9.3 9.3c0 5.1-4.2 9.3-9.3 9.3"/><path id="XMLID_11_" class="st0" d="M30.2 42.9H41V22.4H30.2v20.5zm12.2 3H28.8c-.8 0-1.5-.7-1.5-1.5V21c0-.8.7-1.5 1.5-1.5h13.7c.8 0 1.5.7 1.5 1.5v23.4c-.1.8-.8 1.5-1.6 1.5"/><path id="XMLID_8_" class="st0" d="M8.8 31.2h12.7v-8.8H8.8v8.8zm14.1 2.9H7.3c-.8 0-1.5-.7-1.5-1.5V21c0-.8.7-1.5 1.5-1.5h15.6c.8 0 1.5.7 1.5 1.5v11.7c0 .8-.7 1.4-1.5 1.4"/><path id="XMLID_7_" class="st0" d="M46.3 2.9H11.2c-.8 0-1.5-.7-1.5-1.5s.7-1.5 1.5-1.5h35.1c.8 0 1.5.7 1.5 1.5 0 .9-.6 1.5-1.5 1.5"/><path id="XMLID_6_" class="st0" d="M17.1 8.8c-.8 0-1.5-.7-1.5-1.5V1.5c0-.8.7-1.5 1.5-1.5s1.5.7 1.5 1.5v5.9c-.1.7-.7 1.4-1.5 1.4"/><path id="XMLID_5_" class="st0" d="M38.5 8.8c-.8 0-1.5-.7-1.5-1.5V1.5c0-.8.7-1.5 1.5-1.5S40 .7 40 1.5v5.9c0 .7-.7 1.4-1.5 1.4"/></g></svg>