<svg xmlns="http://www.w3.org/2000/svg" viewBox="0 0 512 512"><path d="M256 211c-24.814 0-45 20.186-45 45s20.186 45 45 45 45-20.186 45-45-20.186-45-45-45z"/><path d="M256 0C115.39 0 0 115.39 0 256s115.39 256 256 256 256-115.39 256-256S396.61 0 256 0zm165 271c0 33.091-26.909 60-60 60-20.273 0-38.152-10.161-49.017-25.596C298.23 320.971 278.354 331 256 331c-41.353 0-75-33.647-75-75s33.647-75 75-75c16.948 0 32.426 5.865 45 15.383V196h30v60c0 5.136-.529 10.151-1.518 15H331c0 16.538 13.462 30 30 30s30-13.462 30-30v-15c0-74.443-60.557-135-135-135s-135 60.557-135 135 60.557 135 135 135c30 0 58.374-9.609 82.061-27.803l18.281 23.789C327.353 409.237 292.665 421 256 421c-90.981 0-165-74.019-165-165S165.019 91 256 91s165 74.019 165 165v15z"/></svg>