<?xml version="1.0" encoding="utf-8"?>
<!-- Generator: Adobe Illustrator 19.0.0, SVG Export Plug-In . SVG Version: 6.00 Build 0)  -->
<svg version="1.1" id="Layer_1" xmlns="http://www.w3.org/2000/svg" xmlns:xlink="http://www.w3.org/1999/xlink" x="0px" y="0px"
	 viewBox="0 0 525.3 689.5" style="enable-background:new 0 0 525.3 689.5;" xml:space="preserve">
<style type="text/css">
	.st0{fill:#9DDCF9;}
	.st1{clip-path:url(#SVGID_2_);fill:url(#SVGID_3_);}
	.st2{clip-path:url(#SVGID_5_);fill:url(#SVGID_6_);}
	.st3{clip-path:url(#SVGID_8_);fill:url(#SVGID_9_);}
	.st4{clip-path:url(#SVGID_11_);fill:url(#SVGID_12_);}
	.st5{clip-path:url(#SVGID_14_);fill:url(#SVGID_15_);}
	.st6{clip-path:url(#SVGID_17_);fill:url(#SVGID_18_);}
	.st7{clip-path:url(#SVGID_20_);fill:url(#SVGID_21_);}
	.st8{clip-path:url(#SVGID_23_);fill:#948D8A;}
	.st9{clip-path:url(#SVGID_23_);fill:#7D9AAE;}
	.st10{clip-path:url(#SVGID_23_);fill:#62889E;}
	.st11{clip-path:url(#SVGID_23_);fill:#6A8DA2;}
	.st12{clip-path:url(#SVGID_23_);fill:#C2D298;}
	.st13{clip-path:url(#SVGID_25_);fill:url(#SVGID_26_);}
	.st14{clip-path:url(#SVGID_28_);fill:#4A6623;}
	.st15{clip-path:url(#SVGID_30_);fill:url(#SVGID_31_);}
	.st16{clip-path:url(#SVGID_33_);fill:#4A6623;}
	.st17{clip-path:url(#SVGID_35_);fill:url(#SVGID_36_);}
	.st18{clip-path:url(#SVGID_38_);fill:#4A6623;}
	.st19{clip-path:url(#SVGID_40_);fill:url(#SVGID_41_);}
	.st20{clip-path:url(#SVGID_43_);fill:#4D6A26;}
	.st21{clip-path:url(#SVGID_45_);fill:url(#SVGID_46_);}
	.st22{clip-path:url(#SVGID_48_);fill:url(#SVGID_49_);}
	.st23{clip-path:url(#SVGID_51_);fill:url(#SVGID_52_);}
	.st24{clip-path:url(#SVGID_54_);fill:#4D6A26;}
	.st25{clip-path:url(#SVGID_56_);fill:url(#SVGID_57_);}
	.st26{clip-path:url(#SVGID_59_);fill:#687B2A;}
	.st27{clip-path:url(#SVGID_59_);fill:#476322;}
	.st28{clip-path:url(#SVGID_59_);fill:#98928E;}
	.st29{clip-path:url(#SVGID_59_);fill:#CAC5C2;}
	.st30{clip-path:url(#SVGID_59_);fill:#A7A19E;}
	.st31{clip-path:url(#SVGID_59_);fill:#857E7B;}
	.st32{clip-path:url(#SVGID_59_);fill:#6A635F;}
	.st33{clip-path:url(#SVGID_61_);fill:url(#SVGID_62_);}
	.st34{clip-path:url(#SVGID_64_);fill:#D4C99E;}
	.st35{clip-path:url(#SVGID_66_);fill:url(#SVGID_67_);}
	.st36{clip-path:url(#SVGID_69_);fill:url(#SVGID_70_);}
	.st37{clip-path:url(#SVGID_72_);fill:url(#SVGID_73_);}
	.st38{clip-path:url(#SVGID_75_);fill:#687B2A;}
	.st39{clip-path:url(#SVGID_75_);fill:#476322;}
	.st40{clip-path:url(#SVGID_77_);fill:url(#SVGID_78_);}
	.st41{clip-path:url(#SVGID_80_);fill:#687B2A;}
	.st42{clip-path:url(#SVGID_80_);fill:#476322;}
	.st43{clip-path:url(#SVGID_82_);fill:url(#SVGID_83_);}
	.st44{clip-path:url(#SVGID_85_);fill:#98928E;}
	.st45{clip-path:url(#SVGID_85_);fill:#69625E;}
	.st46{clip-path:url(#SVGID_85_);fill:#D4C99E;}
	.st47{clip-path:url(#SVGID_87_);fill:url(#SVGID_88_);}
	.st48{clip-path:url(#SVGID_90_);fill:url(#SVGID_91_);}
	.st49{clip-path:url(#SVGID_93_);fill:#E0D7B6;}
	.st50{fill:#5C6679;}
	.st51{fill:#3E485A;}
	.st52{fill:#948D8A;}
	.st53{fill:#7E7874;}
	.st54{fill:#6E6764;}
	.st55{fill:#BEB9B6;}
	.st56{clip-path:url(#SVGID_95_);fill:url(#SVGID_96_);}
	.st57{clip-path:url(#SVGID_98_);fill:url(#SVGID_99_);}
	.st58{clip-path:url(#SVGID_101_);fill:#687B2A;}
	.st59{clip-path:url(#SVGID_101_);fill:#476322;}
	.st60{clip-path:url(#SVGID_101_);fill:#FFFFFF;}
	.st61{clip-path:url(#SVGID_101_);fill:#8AACD0;}
	.st62{clip-path:url(#SVGID_101_);fill:#7E7874;}
	.st63{clip-path:url(#SVGID_101_);fill:#C1BBB9;}
	.st64{clip-path:url(#SVGID_101_);fill:#9F725C;}
	.st65{clip-path:url(#SVGID_101_);fill:#1A496A;}
	.st66{clip-path:url(#SVGID_101_);fill:#6F8BA9;}
	.st67{clip-path:url(#SVGID_101_);fill:#8D5C45;}
	.st68{clip-path:url(#SVGID_101_);fill:#B2C6E0;}
	.st69{clip-path:url(#SVGID_101_);fill:#A75F2E;}
	.st70{clip-path:url(#SVGID_101_);fill:#68615E;}
	.st71{clip-path:url(#SVGID_103_);fill:#678039;}
	.st72{clip-path:url(#SVGID_103_);fill:#59772D;}
	.st73{clip-path:url(#SVGID_103_);fill:#476322;}
	.st74{clip-path:url(#SVGID_103_);fill:#547129;}
	.st75{clip-path:url(#SVGID_103_);fill:#526C2B;}
	.st76{clip-path:url(#SVGID_105_);fill:url(#SVGID_106_);}
	.st77{clip-path:url(#SVGID_108_);fill:#4D6A26;}
</style>
<rect x="1.2" class="st0" width="524.3" height="679.4"/>
<g>
	<defs>
		<path id="SVGID_1_" d="M458,168c-65.9,35.3-177.1,87-332.9,130.3c155.9-43.3,267.4-94.1,333.4-129.4c27.7-14.8,49.9-28.2,66.8-39
			v-1.2C508.4,139.5,486,153,458,168"/>
	</defs>
	<clipPath id="SVGID_2_">
		<use xlink:href="#SVGID_1_"  style="overflow:visible;"/>
	</clipPath>
	
		<linearGradient id="SVGID_3_" gradientUnits="userSpaceOnUse" x1="-35" y1="751.1313" x2="-34" y2="751.1313" gradientTransform="matrix(-279.7864 119.3355 119.3355 279.7864 -98904.8984 -205851.0156)">
		<stop  offset="0" style="stop-color:#C5E8F3"/>
		<stop  offset="0.1161" style="stop-color:#BFE6F4"/>
		<stop  offset="0.6522" style="stop-color:#A6DFF7"/>
		<stop  offset="1" style="stop-color:#9DDCF9"/>
	</linearGradient>
	<polygon class="st1" points="586.5,272.1 186.8,442.6 64,154.7 463.7,-15.8 	"/>
</g>
<g>
	<defs>
		<path id="SVGID_4_" d="M447.5,146.1c-55.1,38.6-146.7,91.7-271.2,123.3c124.7-31.6,216.7-83.9,271.8-122.5
			c37-25.9,62.8-49.2,77.2-63.2v-1.4C511.1,96.2,485.1,119.7,447.5,146.1"/>
	</defs>
	<clipPath id="SVGID_5_">
		<use xlink:href="#SVGID_4_"  style="overflow:visible;"/>
	</clipPath>
	
		<linearGradient id="SVGID_6_" gradientUnits="userSpaceOnUse" x1="-35" y1="751.1398" x2="-34" y2="751.1398" gradientTransform="matrix(-279.7555 119.3224 119.3224 279.7555 -98904.6172 -205853.2344)">
		<stop  offset="0" style="stop-color:#C5E8F3"/>
		<stop  offset="0.1161" style="stop-color:#BFE6F4"/>
		<stop  offset="0.6522" style="stop-color:#A6DFF7"/>
		<stop  offset="1" style="stop-color:#9DDCF9"/>
	</linearGradient>
	<polygon class="st2" points="592.9,240.6 230,395.4 108.7,111.1 471.6,-43.7 	"/>
</g>
<g>
	<defs>
		<path id="SVGID_7_" d="M390.9,271.8c0-0.5,0-1,0.1-1.6C390.8,270.7,390.8,271.2,390.9,271.8"/>
	</defs>
	<clipPath id="SVGID_8_">
		<use xlink:href="#SVGID_7_"  style="overflow:visible;"/>
	</clipPath>
	
		<linearGradient id="SVGID_9_" gradientUnits="userSpaceOnUse" x1="-35" y1="751.1763" x2="-34" y2="751.1763" gradientTransform="matrix(0 0.8976 -0.8976 0 1065.1139 301.8351)">
		<stop  offset="0" style="stop-color:#C5E8F3"/>
		<stop  offset="0.1161" style="stop-color:#BFE6F4"/>
		<stop  offset="0.6522" style="stop-color:#A6DFF7"/>
		<stop  offset="1" style="stop-color:#9DDCF9"/>
	</linearGradient>
	<rect x="390.8" y="270.2" class="st3" width="0.1" height="1.6"/>
</g>
<g>
	<defs>
		<path id="SVGID_10_" d="M390.9,292.6c0,0.5,0,1-0.1,1.5C390.8,293.5,390.8,293,390.9,292.6 M1.2,190.8v474.5h524.3V314.2
			c-5.1-3.2-9.9-4.8-11.6,0.9c-3.1-8.7-11.2-15.4-20.2-18.7c-3.8-1.4-9.3-2.7-10.8,0.6c0,1.2,0,2.5-0.1,3.9c-0.4-1.7-0.3-3,0.1-3.9
			c-0.2-10.4-5.2-15.8-18.2-17.3c-16.1-1.9-48.4-4.3-53.2,15.8c-4.4-5.9-12.2-6.2-19.6-5.6c-0.3,1.1-0.8,1.8-1,2.8
			c0.2-7.8-0.5-15.6-6-22c-0.9-1-6.4-4.5-7-5.6c-1.4-2.5,0.3-9.2,0-11.8c-1.5-12.4-3.4-27-16.8-31.1c-4.9-1.5-13.7-3.6-17.4,3.1
			c7.2-43.1-91.4-39.3-86.8,0.3c-15.4,3.7-21.3,9.5-23.6,23.7c-8.9-11.8-29.6-10.7-41.3-3.8c-4.5,2.6-10,13.1-15,12.3
			c-0.7-5.4-3.2-12.4-2.3-17.7c0.9-5.2,3.8-8.5,3.1-14.5c-1.7-14.1-31.1-35.1-39.9-15.3c-9.6-13.3-31.7,1.2-36.1,12.3
			c-1.4-5.2-6.8-11-12.9-10.2c0.1-7.9-3.1-11.4-6-18.3c-2.9-7-3-14.1-9-20.2c-5.7-5.8-14.9-8.4-25-8.4C29,165.5,5.7,175.7,1.2,190.8
			"/>
	</defs>
	<clipPath id="SVGID_11_">
		<use xlink:href="#SVGID_10_"  style="overflow:visible;"/>
	</clipPath>
	
		<linearGradient id="SVGID_12_" gradientUnits="userSpaceOnUse" x1="-35" y1="751.157" x2="-34" y2="751.157" gradientTransform="matrix(0 286.6956 -286.6956 0 215616.7344 10254.5088)">
		<stop  offset="0" style="stop-color:#C5E8F3"/>
		<stop  offset="0.1161" style="stop-color:#BFE6F4"/>
		<stop  offset="0.6522" style="stop-color:#A6DFF7"/>
		<stop  offset="1" style="stop-color:#9DDCF9"/>
	</linearGradient>
	<rect x="1.2" y="165.5" class="st4" width="524.3" height="499.8"/>
</g>
<g>
	<defs>
		<path id="SVGID_13_" d="M482.9,279c0.1-1.4,0.1-2.8,0.1-4.1C482.6,275.8,482.5,277.2,482.9,279"/>
	</defs>
	<clipPath id="SVGID_14_">
		<use xlink:href="#SVGID_13_"  style="overflow:visible;"/>
	</clipPath>
	
		<linearGradient id="SVGID_15_" gradientUnits="userSpaceOnUse" x1="-35" y1="751.1807" x2="-34" y2="751.1807" gradientTransform="matrix(0 2.3467 -2.3467 0 2245.5422 357.4516)">
		<stop  offset="0" style="stop-color:#C5E8F3"/>
		<stop  offset="0.1161" style="stop-color:#BFE6F4"/>
		<stop  offset="0.6522" style="stop-color:#A6DFF7"/>
		<stop  offset="1" style="stop-color:#9DDCF9"/>
	</linearGradient>
	<rect x="482.5" y="274.9" class="st5" width="0.5" height="4.1"/>
</g>
<g>
	<defs>
		<path id="SVGID_16_" d="M548.1,452.1c-3.3,0.2-5.4,2.4-8.1,2.8c-1.5,0.2-2.9-0.1-4.3-0.4c-1.8-0.4-3.6-0.7-6,0
			c-6.9,2.1-12.6,8.3-13.9,15.3c-0.6,3,0.5,5.8-1,8.2c-4.1,6.5-12,6.4-11,15.4c-6.7,1.7-7.3-3.1-13.7-5.1
			c-7.7-2.4-21.1,3.2-21.7,12.3c-6,1.4-19.1,8.7-15.4,16.3c-8.2,0.5-21.2,3.3-19,14.9c-5.9,1.2-11.8,6.2-14.1,11.7
			c-2.2-7-1.9-18.6-7.2-24.1c-4-4.1-5-2.7-11-3.2c-4.3-15.5-20.1-24.5-36.9-13.1c-1.7-4.5-5-4.9-9.3-4.1
			c-12.3,2.4-13.5,15.7-18.1,23.9c-0.9,1.6-2.5,2-3.6,3.6c-4.7,6.6-6.6,5.4-8.6,13.5c-3.2,13-1.8,19.5,5,30.2
			c-6,0.8-17.3,6.8-19.4,13.1c-2.3-4.7-5.3-10.3-11.3-9.6c-5.7,0.6-14.5,8.7-16.2,14c-6.1,0.6-14.4,8.8-16,14.7
			c-1.9,6.9,3.9,10.8,5.2,17.1c1.5,7.4-2.2,13.4,5.6,18.5c3.1,2,3.5,1.6,6.9,2.1c4.5,0.6,9.5,0.1,14.1,0c22.5-0.2,44.6-1.3,67.1,0.9
			c21.2,2.1,42.8,5.7,64.2,5.8c6.3,0,12.6-0.4,18.8-0.7c10.3-0.6,20.6-1.3,31.1-0.1c26.8,3.1,53.4,1,80.1-1.1v-188
			c-2.6-3.1-6.6-4.8-11.1-4.8C548.9,452,548.5,452,548.1,452.1"/>
	</defs>
	<clipPath id="SVGID_17_">
		<use xlink:href="#SVGID_16_"  style="overflow:visible;"/>
	</clipPath>
	
		<linearGradient id="SVGID_18_" gradientUnits="userSpaceOnUse" x1="-35" y1="751.459" x2="-34" y2="751.459" gradientTransform="matrix(0 143.5988 -143.5988 0 108321.4219 5519.1265)">
		<stop  offset="0" style="stop-color:#FFFDE7"/>
		<stop  offset="0.2019" style="stop-color:#E4F3EB"/>
		<stop  offset="0.5418" style="stop-color:#BFE6F1"/>
		<stop  offset="0.82" style="stop-color:#A6DFF6"/>
		<stop  offset="1" style="stop-color:#9DDCF9"/>
	</linearGradient>
	<rect x="265.3" y="452" class="st6" width="294.9" height="197"/>
</g>
<g>
	<defs>
		<path id="SVGID_19_" d="M51.4,407.9l-0.7,2.9c-6.7-4.8-15.5-8.4-23.9-5.7c-7.9,2.6-14.3,7.8-21.8,7.9c-1.6,0-2.8-0.1-3.8-0.2v99.9
			c1.7,0,3.5,0.1,4.7,0.5c3.4,1.1,9.1,3.2,12.1,5c2.1,1.3,2.3,2.8,4,4c6.7,4.7,15.4,7.3,23.5,7.3c8.6,0,11.2-4.6,18.5-7.4
			c12.5-4.9,32.6,2.1,45,4.6c4.2,0.9,16.1,5.9,20.2,3.6c2.6-1.4,3.4-6,4.8-8.3c2.7-4.6,6.1-8,10.5-11c6.7-4.5,13.8-2.6,21.4-0.6
			c4.7,1.2,9.6,2.5,14.6,2.1c12.6-1,19.4-4.4,33.2-5.9c17.5-1.9,40.9-22.7,57.6-16.9c9.3,3.2,19.1,10.8,28.8,11.8
			c7.6-11.8,25.6-14.1,37.4-19.2c3.1-1.3,4.8,0.2,5.2-3.7c0.7-5.9-11.6-11.2-16.4-11.1c-7.2,0.2-11.5,6.1-16.7,9.5
			c-0.1-7.3-0.5-17.1-3.3-23.9c-4.8-11.6-31.6-22.9-41.2-12.9c-5.6-3.7-39.2-17.5-37.5-1c-4.3-11.4-31.4-11.5-34.6-0.7
			c0.6-6-1.3-11.4-5.1-16.1c-3.2-3.9-3.7-5.1-5.9-8.9c-3-5.3-19.7-16.4-22.2-5.1c-2.8-17.9-27-7.3-25.8,6.9c-5,1.2-8.6,4.1-12.4,7.7
			c-3.4-3.9-5.4-11.5-11.8-11.5c-1.7-11.5-7.8-23.9-20.2-24.6c-1.1-0.1-2.2-0.1-3.4-0.1C72.1,386.9,49.7,391.1,51.4,407.9"/>
	</defs>
	<clipPath id="SVGID_20_">
		<use xlink:href="#SVGID_19_"  style="overflow:visible;"/>
	</clipPath>
	
		<linearGradient id="SVGID_21_" gradientUnits="userSpaceOnUse" x1="-35" y1="751.1531" x2="-34" y2="751.1531" gradientTransform="matrix(0 82.5692 -82.5692 0 62194.3477 3292.6707)">
		<stop  offset="0" style="stop-color:#C5E8F3"/>
		<stop  offset="0.1161" style="stop-color:#BFE6F4"/>
		<stop  offset="0.6522" style="stop-color:#A6DFF7"/>
		<stop  offset="1" style="stop-color:#9DDCF9"/>
	</linearGradient>
	<rect x="1.2" y="386.9" class="st7" width="342.1" height="145.8"/>
</g>
<g>
	<defs>
		<rect id="SVGID_22_" x="-35" y="-90.7" width="595.3" height="841.9"/>
	</defs>
	<clipPath id="SVGID_23_">
		<use xlink:href="#SVGID_22_"  style="overflow:visible;"/>
	</clipPath>
	<path class="st8" d="M243.2,643.6l0-25.2l-0.7-3l-0.8,2.5v-3l-0.1-1.3l-0.2,1.1l-0.7-3.3l-0.7,3l-3.8-26.2l-3.7,26.3l-0.5-3.2
		l-0.5,3.2l-0.3-0.7l-0.1,1.7l-0.1,2.4l-0.6-2.4l-0.7,2.9l0,25.1c1.8,0.8,2.8,1.5,7,1.6C239.4,645.2,241.4,644.5,243.2,643.6"/>
	<path class="st9" d="M1.2,647.8c1.1-0.7,3-1.4,4.3-1.6c0.8-0.1,1.7,0.1,2.4,0c0.9-0.2,1.6-1,2.7-0.9c0.8,0.1,1,0.8,1.7,0.9
		c0.4,0.1,2.8-2.4,3.1-2.7c1.3-1,3.1-2.2,4.8-2.1c1.2,0.1,1.8,0.5,2.4,1.5c0.7-0.3,1.1-1.1,1.7-1.5c1-0.8,2.1-1,3.3-1.1
		c0.4,0,0.7,0.2,1.1,0.1c0.9-0.2,1.8-1.2,2.8-1.5c1.3-0.3,2.1-0.1,3.2,0.6c0.8,0.5,2,2.1,2.9,2.3c0.9,0.2,1.7-0.6,2.4-1.4
		c1.2-1.3,2.4-2.6,4.6-2.2c1.4,0.3,2,1.7,3.3,1.8c1.2,0,1.3-1,2.2-1.8c1.5-1.1,2.3,0,3.8-0.3c0.5-0.1,0.9-0.7,1.5-0.9
		c0.2-0.1,2.2-0.3,2.2-0.4c-0.1-2.3,1.7-3.5,3.9-2.2c1.2-2.1,6.3,1.6,6.1,3.5c1.5,0.1,1.7-0.2,2.8-0.9c1.5-0.8,2.9-0.1,4.4,0.2
		c0,0.3,0.1,0.7,0.1,1c0.8,0.1,1.2-1.1,1.8-1.6c0.4-0.3,1.1-0.7,1.5-0.9c0.3-0.2,0.5-0.6,1.2-0.7c0.6-0.1,1.2-0.2,1.7-0.3
		c1.4-0.3,1.7-0.1,2.8,0.9c0.3,0.3,0.1,0.6,0.5,0.8c0.3,0.1,0.7-0.1,1,0c0.3,0.1,0.2,0.6,0.5,0.8c0.2,0.1,0.7,0,0.8,0.1
		c0.5,0.4,0.3,0.9,1.2,0.9c0.6,0,1-0.9,1.8-0.9c0.5-2.7,3.3-2,5.1-2.2c0.3-1.9,2.2-1.9,3.7-2.2c0.8-0.2,0.6-0.7,1.7,0
		c1,0.6,3.4,2.8,3.5,4l1.6,2.5c0,0.8,0,1.6,0,2.3c-5.5,1.3-10.8,2.7-16.4,3.3c-5.3,0.6-10.7,1.2-16,1.4c-4.4,0.1-8.8,0.8-13.2,1.3
		c-2.9,0.3-5.7,0.9-8.6,1.1c-3.1,0.2-6.2,0-9.3,0c-6.3,0.1-12.5,1.1-18.8,1c-1.5,0-17.7,1-21.9,0.2v-1.5
		C1.4,648.1,1.2,647.8,1.2,647.8"/>
	<path class="st10" d="M52.4,641.5c0.6-0.7,1.3-0.4,1.7-1.1c0.3-0.5,0.3-1.2,0.9-1.7c0.9-0.7,2.4-0.7,3.3-0.3c0.2-0.5,0.1-1,0.2-1.5
		c0.1-0.5,0.5-0.8,0.8-1.3c0.3-0.4,0.2-0.7,0.9-0.6c0.3,0,0.8,0.4,1,0.5c0.5,0.3,0.5,0.4,0.6,0.9c0.1,0.5,0,1.7,0.9,1.4
		c1.1-0.3,0-1.7-0.4-2c0.4-0.3,1.6-0.5,2.1-0.2c0.5,0.3,0.3,0.9,0.6,1.3c0.6,0.6,1.4,0.8,1.9,1.7c-0.9,0.9-1.3,1.2-2.5,1.5
		c-0.5,0.1-1.8,0.6-1,1.3c0.8-0.4,1.7-0.1,2.4-0.3c0.2-0.1,0.3-0.3,0.5-0.4c0.4-0.2,0.9,0,1.3-0.1c1-0.3,2.2-1,3.3-1.2
		c0.4-0.1,0.9-0.2,1.3-0.1c0.7,0.2,0.7,0.9,1.2,1.2c1.5,1,3.1-1.4,3.7-2.5c0.5-1,0.6-1.4,1.7-1.6c1.2-0.3,2.9-0.3,4.2,0.1
		c0.1,0.6-0.2,0.7-0.6,0.9c-0.3,0.2-0.9,0.2-1.1,0.5c-0.1,0.1,0,0.5-0.1,0.7c-0.2,0.3-1.5,1.5-0.7,1.8c0.1,0,1.1-0.6,1.2-0.7
		c0.5-0.5,0.6-1.3,1.3-1.7c0.4-0.2,1.4-0.2,1.8-0.1c1,0.2,1.7,1.5,2.8,1.3c0.8-0.2,1-0.6,2-0.6c0.4,0,0.9,0.1,1.3,0.1
		c0.2-0.9,1.1-0.8,1.8-1c0.8-0.2,1-0.4,1.5-0.9c0.5-0.5,0.9-1.1,1.7-1.2c0.8-0.1,1.5,0.6,2.2,0.4c0.8-0.3,0.9-0.8,1.9-0.7
		c1.2,0.1,2.3,1.3,2.5,2.5l0.2,1.4c0.1,1.4-1,2.6-2.2,3.1c-3.4,1.4-7.6,0.8-11.3,0.8c-6.7,0-13.4,0.7-20.2,0.5
		c-3.9-0.1-7.7,0-11.6-0.2c-1.8-0.1-4.1-0.2-5.8,0.3C51.5,643.2,52.1,641.9,52.4,641.5"/>
	<path class="st10" d="M39.5,642.3c0.3-0.3,0.6-0.5,0.7-0.9c0.2-0.4,0.2-0.7,0.6-1c0.6-0.5,1.6-0.8,2.4-1c0.6-0.2,1.2-0.1,1.8,0.1
		c0.6,0.2,1.3,0.4,1.8,0.8c0.2,0.1,0.5,0.4,0.6,0.6c-0.8,0.2-1.4,1.2-1.2,2c0.5,0.1,0.7-0.4,0.9-0.7c0.2-0.4,0.4-0.5,0.8-0.7
		c0.6-0.3,0.7-0.7,1.1-1.2c0.2-0.3,0.6-0.6,0.9-0.8c0.7-0.5,1.3-0.5,2.2-0.4c0.5,0,1.1,0,1,0.6l-0.1-0.1c0,0.5-0.8,0.7-1.2,0.8
		c-0.4,0.2-0.5,0.3-0.6,0.8c-0.1,0.3-0.1,0.5-0.3,0.8c-0.3,0.4-0.3,0.6-0.3,1.1c0,0.4,0.1,0.5-0.4,0.5c-0.9,0.1-1.8-0.2-2.8,0
		c-0.7,0.1-1.3,0.5-2,0.6c-1,0.2-1.9-0.3-2.9-0.1c-0.6,0.1-1,0.4-1.6,0.4c-0.4,0-0.8,0.1-1.2,0.2c-0.2,0-1,0-1.2-0.1
		C37.8,643.9,39.2,642.6,39.5,642.3"/>
	<path class="st11" d="M8,647.3c0.9-0.3,1.4-1.2,2.3-0.5c0.4,0.3,0.5,0.5,1,0.4c0.4-0.1,0.9-0.2,1.3-0.4c1.2-0.4,2.9-0.5,3.5-1.8
		c0.4-0.8,1.3-0.7,1.9-1.4c0.3-0.4,0.3-0.6,0.8-0.8c0.4-0.1,1.7-0.6,2.1-0.4c0.3,0.2,0,0.2,0.2,0.4c0.2,0.4,0.4,0.4,0.8,0.6
		c0.6,0.4-0.1,0.8,0.3,1.3c0.2,0.3,0.9,0.2,1.2,0.1c0.7-0.3,0.9-0.7,1-1.4c0.2-0.8,0.9-0.7,1.3-1.2c0.3-0.4,0.5-0.8,1.1-1
		c0.3-0.1,1.4-0.3,1.7-0.1c0.4,0.2-0.2,0.7-0.4,1c-0.3,0.5-0.7,1.6,0.3,1.7c0.3-0.5,0.4-1,0.6-1.5c0.2-0.6,0.7-0.8,1.2-1.2
		c0.9-0.7,1.5-1,2.7-0.9c0.7,0,1.3,0.2,1.8,0.7c0.2,0.2,0.4,0.4,0.6,0.5c0.6,0.3,1,0.6,1.4,1.2c0.3,0.4,0.7,0.9,0.8,1.5v0.5
		c-0.9,0.2-1.8,0.6-2.8,0.8c-1.2,0.3-2.6,0.2-3.8,0.3c-1.4,0.1-2.8,0.3-4.2,0.6c-2.2,0.4-4.3,0.7-6.5,1c-2.2,0.3-4.4,0.4-6.6,0.6
		c-2.2,0.2-4.4,0.5-6.5,0.8c-0.8,0.1-1.6,0.3-2.4,0.2C4.5,647.1,6.9,647.7,8,647.3"/>
	<path class="st12" d="M104.7,640.9c0,0-65.6,0.5-103.6,8.1h104.2L104.7,640.9z"/>
</g>
<g>
	<defs>
		<path id="SVGID_24_" d="M492.5,615c-0.7,1.6-2.4,2.8-2.8,4.7c-0.3,1.5,0.8,3,0.6,4.5c-1.1,0.1-2.2,0-3.4-0.2
			c-1.2-0.2-2.5-0.5-3.7-0.1c-1.7,0.6-3.9,3.2-4.2,5c-0.2,1.1,0.1,2.1,0.5,3l-2.8,2.4c-0.3,0.6-0.7,1.3-1,1.9c-1,2.3-0.3,4.7,0.3,7
			c0.7,2.8,1.7,5.5,4.3,7.1c1.7,1.1,3.6,1,5.5,1.1c3.2,0.2,6.4,0.3,9.7,0.3c5.7-0.2,11.4-0.9,17-1.1c2.4-0.1,4.9,0,7.4,0.1
			c1.9,0.1,3.7,0.2,5.5,0.2v-23.1c-0.9-0.1-2.1,0-2.7-0.4c-0.6-0.4-0.7-1-1.1-1.6c-0.5-0.8-1-1.3-1.8-1.8c-1.2-0.8-2.9-1.7-4.4-1.6
			c-0.1-0.4-0.4-0.8-0.7-1.1c-0.3-0.3-0.8-0.4-1.1-0.6c-0.5-0.5-0.6-1.5-1-2.1c-2.3-3-4.3,1.2-5.4,3c-0.9-2.7-4.5-1.7-6.1-0.2
			c-1.9-1.2-1.7-3.5-2.3-5.4c-0.4-1.6-1.9-2.9-3.6-3.1c-0.1,0-0.1,0-0.2,0C494.1,612.8,493,614,492.5,615"/>
	</defs>
	<clipPath id="SVGID_25_">
		<use xlink:href="#SVGID_24_"  style="overflow:visible;"/>
	</clipPath>
	
		<linearGradient id="SVGID_26_" gradientUnits="userSpaceOnUse" x1="-35" y1="751.1565" x2="-34" y2="751.1565" gradientTransform="matrix(-50.2614 0 0 -50.2614 -1233.6791 38386.4648)">
		<stop  offset="0" style="stop-color:#678039"/>
		<stop  offset="0.2184" style="stop-color:#5E7832"/>
		<stop  offset="0.6925" style="stop-color:#4F6B27"/>
		<stop  offset="1" style="stop-color:#4A6623"/>
	</linearGradient>
	<rect x="474.7" y="612.8" class="st13" width="50.7" height="39"/>
</g>
<g>
	<defs>
		<rect id="SVGID_27_" x="-35" y="-90.7" width="595.3" height="841.9"/>
	</defs>
	<clipPath id="SVGID_28_">
		<use xlink:href="#SVGID_27_"  style="overflow:visible;"/>
	</clipPath>
	<path class="st14" d="M479.7,634.8c0.1-1.5,0.8-2.8,1.3-4.2c0.3-0.7,0.3-1.4,0.8-2c1.4-1.8,4.3-1.7,6.3-1.5c0.6,0,3,0.5,3.6,0.1
		c1.1-0.7,0.5-1.9,0.5-2.7c0-0.3,0.4-1,0.4-1.2c-0.1-0.6-0.7-1-0.9-1.6c-0.2-0.6,0.3-3.2,0.8-3.8c1.5-1.8,4.7,1.1,5.3,2.6
		c0.8,1.9,0,4.4,0.5,6.4c2.7-0.1,3.6,1.3,5,3c1.2,1.4,2.6,1.9,3.1,3.9c0.3,1.3,0.3,2.6,0.4,3.9c0.8-1.2,1.2-3.4,1-4.9
		c-0.2-1.5-1.1-1.4-2.1-2.4c-1-1.2-0.5-3.1-2.1-3.9c-1-0.5-2.3-0.1-2.7-1.5c-0.3-1,0.3-2.2,1.4-1.9l0.5,0.3c1.5,0.1,2.7,1.3,3.8,2.1
		c1.6,1.2,2.2,1.6,3,3.4c0.5,1.1,1.2,1.9,1.3,3.1c0.1,0.7,0,1.5,0,2.2c4.5-1.9-0.6-7.8-2.1-9.8c1.3-0.4,0.6-2.1,1.9-2.1
		c1.9,0,2.4,2.8,3.1,3.8c0.1,0.2,0.6,0.1,0.8,0.3c0.8,0.6,1.5,1.4,2.2,2.2c0.8,1,1.3,1.9,1.6,3.2c0.5,2.2-0.4,4.3-0.3,6.5
		c2.3-0.1,3.2-2.4,2.9-4.5c-0.1-0.9-0.7-1.8-0.8-2.7c-0.1-0.5,0-0.9-0.2-1.4c1.8,0.6,2.8,2.1,4.1,3.3c0.4,0.3,1,0.6,1.4,0.9V650
		c-0.8,0-2.1-0.1-2.2-0.1c-2.5,0.1-5,0.3-7.5,0.6c-6.2,0.6-12.4,0.6-18.6,1c-2.5,0.1-6.7,0.9-9-0.1c-4.7-2.1-5.4-6.9-7.3-11
		C480,638.5,479.5,636.8,479.7,634.8"/>
</g>
<g>
	<defs>
		<path id="SVGID_29_" d="M452.7,624.5c-0.7,0.4-2.1,1.3-2.2,2.2l-5.8,5.3c-4.5,4.2-6.4,13.9,0.6,16.5c2.2,0.8,4.5,1.5,6.7,2.2
			c2.6,0.8,5.5,0.1,8.2-0.1c2.4-0.2,4.7,0,7,0.2c1.6,0.1,3.3,0.3,4.9,0.3c2.3,0,4.4-0.1,6.7-0.5c2.1-0.4,4.2-1.1,6.3-1.4
			c2-0.2,3.9,0.1,5.8,0.4c1.7,0.3,3.5,0.6,5.2,0.5c0.7,0,1.3,0,1.8-0.8c0.3-0.5,0-1,0.1-1.5c0.1-0.6,0.7-1.1,0.9-1.8
			c0.9-2.7-1.2-5-3-6.6c-2-1.7-4-1.6-6.4-1.3c-0.6,0.1-1.2,0.3-1.8,0.4c-0.2,0.1-0.3,0.2-0.5,0.2c-0.3-0.1-0.4-0.6-0.5-0.8
			c-0.4-0.6-1.2-1-1.6-1.5c-0.2-0.3-0.2-0.9-0.3-1.2c-0.5-1.6-1.9-2.5-2.8-3.8c-0.4-0.6-0.6-1.2-1.3-1.5c-1.1-0.5-3.1-0.1-4.3,0.2
			c-1.2,0.3-3.5,0.6-3.2,2.3c-0.2,0-0.5,0-0.7,0c-0.7,0-1.3,0-1.9,0.3c-0.5-0.9-0.4-1.9-1.1-2.8c-0.5-0.7-1.3-1.2-2-1.6
			c-1.4-0.9-2.9-1.1-4.1,0.2c-1.3-1.5-2.8-2.2-4.2-3.3c-0.6-0.4-1-1.1-1.7-1.5c-0.4-0.2-0.9-0.3-1.4-0.3
			C454.9,623.4,453.7,623.9,452.7,624.5"/>
	</defs>
	<clipPath id="SVGID_30_">
		<use xlink:href="#SVGID_29_"  style="overflow:visible;"/>
	</clipPath>
	
		<linearGradient id="SVGID_31_" gradientUnits="userSpaceOnUse" x1="-35" y1="751.1534" x2="-34" y2="751.1534" gradientTransform="matrix(-58.1519 0 0 -58.1519 -1536.4591 44318.4102)">
		<stop  offset="0" style="stop-color:#678039"/>
		<stop  offset="0.2184" style="stop-color:#5E7832"/>
		<stop  offset="0.6925" style="stop-color:#4F6B27"/>
		<stop  offset="1" style="stop-color:#4A6623"/>
	</linearGradient>
	<rect x="438.3" y="623.4" class="st15" width="61.5" height="28"/>
</g>
<g>
	<defs>
		<rect id="SVGID_32_" x="-35" y="-90.7" width="595.3" height="841.9"/>
	</defs>
	<clipPath id="SVGID_33_">
		<use xlink:href="#SVGID_32_"  style="overflow:visible;"/>
	</clipPath>
	<path class="st16" d="M447,637.5c0.1-1.9,0.5-2.6,2-3.9c2-1.8,2.4-3.7,5.3-4.7c1.1-0.4,2.1-0.4,3.3-0.5c0.5,0,2.2-0.5,2.6-0.4
		c1,0.4,2.2,2.7,2.6,3.7c0.5,1.2,0.5,2.5,0.7,3.8c0.9-0.2,2.3-0.2,3.1-0.5c0.8-0.3-0.1-1.1,1.4-1c1.2,0.1,1.2,1,1.7,1.9
		c1,0,2.1,0.7,2.7,1.4c0.2-2.6,2.5-3.6,4.9-3.6c1.5,0,2.7,0.5,3.8,1.5c1,0.9,0.9,2,1.6,2.8c0.5,0.5,1.4,0.4,1.6,1.3
		c0.1,0.6-0.7,0.9-0.6,1.4c0.2,0.9,1.2,0.7,1.7,1.4c0.3,0.4-0.1,0.9,0.2,1.2c0.3,0.3,1.1,0.3,1.2,0.5c0.5,0.7,0.1,2.2,0.3,3
		c1.3-0.4,1.8-3.1,1.3-4.3c-0.2-0.4-1.2-0.8-1.1-1.2c0-0.7,0.5-0.2,0.7-0.4c1-1.1,1.6-0.8,3-0.7c1.6,0.2,2.6,0.1,3.4,1.7
		c0.1,0.2-0.1,0.7,0.1,1c0.2,0.3,0.6,0.5,0.8,1.1c0.5,1.4-0.3,1.9-0.7,2.8c-0.3,0.9-0.3,1.2-0.9,2.1l-0.9,2.9
		c-3.8,0.6-7.7,0.3-11.6,0.3c-2.8,0-5.8,0.2-8.6-0.4c-2.2-0.5-4.3-1.5-6.6-1.7c-2.4-0.2-4.9,0.1-7.4-0.1c-2-0.1-4.4,0.3-6.2-0.6
		c-1.7-0.9-4.3-2.4-5.1-4.3C446.3,643,446.9,639.6,447,637.5"/>
</g>
<g>
	<defs>
		<path id="SVGID_34_" d="M438.2,616.9c-1.3,0.2-3.8,1.4-3.7,3c-0.3-0.3-0.7-0.3-1.1-0.4c-0.3-0.1-0.7,0-1.1,0.1
			c-0.4,0.1-0.8,0.2-1.1,0.1c-0.7-0.2-1.2-1-2.1-1.1c-2.2-0.5-4.4,2.4-4.3,4.4l-3.6,5.8c-0.3-0.1-1.1,0.6-1.4,0.9
			c-1.2,1-2.5,2.6-2.6,4.2c0,0.3,0.2,0.9,0.1,1.2c-0.4,1.1-1.9,1.9-2.5,3c-0.9,1.6-0.4,3.7-0.1,5.5c0.4,2,1.1,3.3,2.9,4.3
			c3.5,2,7.9,3.1,11.8,3.7c8.8,1.3,18.1,1.7,26.9,0.3c3.3-0.5,6.8-0.9,10-1.9c0.6-0.2,1.1-0.4,1.8-0.4c0.1-0.8,0-1.4-0.3-2.1
			c-0.7-1.6-2-1.5-3.4-1.4c-0.7,0-1.4,0.1-2.1-0.1c-0.6-0.1-1.1-0.9-1.7-1.1c-1.6-0.5-2.6,0.5-3.9,0.9c-1.5,0.4-3.2,0-4.6,0.5
			c0.8-0.7,0.4-2.4-0.1-3.1c1.2-1,0.4-3-0.7-3.7c0.1-0.7,0.7-1.3,1.2-1.8c0.9-0.8,1.2-0.3,2.4-0.7c1.3-0.3,1.8-1,2.1-2.2
			c0.1-0.3,0-0.4,0.1-0.6c0.1-0.3,0.6-0.5,0.8-0.8c0.6-1.3-0.1-3.1-1-4.1c-0.6-0.6-0.5-0.7-0.8-1.3c-1.2-2-4.5-3.8-6.7-2.5
			c0.8-1.9,0-4.6-1.7-5.8c-0.9-0.6-1.8-0.6-2.7-1c-0.2-0.1-0.3-0.3-0.6-0.4c-1.6-0.8-3.2-1.4-4.9-1.4
			C438.9,616.8,438.5,616.9,438.2,616.9"/>
	</defs>
	<clipPath id="SVGID_35_">
		<use xlink:href="#SVGID_34_"  style="overflow:visible;"/>
	</clipPath>
	
		<linearGradient id="SVGID_36_" gradientUnits="userSpaceOnUse" x1="-35.0006" y1="751.1524" x2="-34.0006" y2="751.1524" gradientTransform="matrix(-53.3242 0 0 -53.3242 -1398.3903 40689.5781)">
		<stop  offset="0" style="stop-color:#678039"/>
		<stop  offset="0.2184" style="stop-color:#5E7832"/>
		<stop  offset="0.6925" style="stop-color:#4F6B27"/>
		<stop  offset="1" style="stop-color:#4A6623"/>
	</linearGradient>
	<rect x="413.8" y="616.8" class="st17" width="54.2" height="36.3"/>
</g>
<g>
	<defs>
		<rect id="SVGID_37_" x="-35" y="-90.7" width="595.3" height="841.9"/>
	</defs>
	<clipPath id="SVGID_38_">
		<use xlink:href="#SVGID_37_"  style="overflow:visible;"/>
	</clipPath>
	<path class="st18" d="M424.8,634.1c0.2-2.4,1.3-3.2,2.3-5.2c0.8-1.7-0.1-3.7,0.9-5.3c0.4-0.6,1.6-1.7,2.2-2c0.9-0.4,1.5,0.3,2.3,0
		c0.6-0.3,0.5-1.2,1.2-1.4c0.8-0.2,2.3,1.5,3.2,1.7c0-1.2,1.7-3.2,2.8-3.3c1.3,0,2.1,1.7,3.2,2.1c1.1,0.4,3-0.1,4,0.9
		c0.5,0.5,0.9,1.5,0,2c-0.6,0.4-0.4-0.2-0.9-0.3c-1.3-0.4-2.2-0.8-3.7-0.7c0.7,0.5,1.4,0.4,2.1,1.1c0.9,1,0.6,2.4,0.7,3.6
		c1,0.1,1.8-0.3,2.8,0.1c0.8,0.3,2.2,1.3,2.9,1.9c1.6,1.5,3.3,3.9,0.3,5c-0.7,0.3-2.7,0.8-3.4,0.1c-1-1,0.1-1.6-1.9-2.1
		c-1.1-0.3-4.2-0.9-4.3,0.8c2,0.2,5.4,1.9,6.3,3.8c0.4,0.8,0.3,1.6,0.7,2.2c1.2,0,2.1,1.7,2.2,2.6c0.2,2.1-2.8,5-4.8,5l-3.8,1.2
		c-0.8,0.1-1.5-0.4-2.2-0.5c-2.4-0.4-4.1,0-6-1.9c-1.3-1.3-1.8-2.5-3.6-3.4c-1-0.5-3-0.2-3.7-1c-0.3-0.4-0.4-1.8-0.6-2.3
		C425.1,637.3,424.6,636.2,424.8,634.1"/>
</g>
<g>
	<defs>
		<path id="SVGID_39_" d="M409.5,621c-1.5,0.2-2.5,0.7-3.6,1.6c-0.3,0.2-0.4,0.5-0.7,0.7c-0.7,0.5-1.4,0.7-1.9,1.3
			c-0.4-1.6-2.4,0.8-2.9,1.3c-1,1.1-1.1,2.5-1.5,3.8l-3.7,2.5c-0.9,0.8-1.8,1.7-2.3,2.9c-0.6,1.5,0.2,1.8,0.8,3
			c0.7,1.5,0.2,3.3,0.7,4.9c0.7,2.3,2.7,4.2,5.2,4.5c1.3,0.2,2.7,0,4.1-0.1c0.2,0,1.1-0.1,1.4,0c1,0.4,1.2,1.7,1.8,2.5
			c3.3,4,9.8,1.6,14,1.3c2-0.1,4.3,0.4,6.3,0.6c3.1,0.3,6.1,1,9.2,1c2.7,0,6.6,0,8.3-2.5c0.3-0.4,0.5-1.1,0.7-1.4
			c0.4-0.9,0.9-1.4,0.9-2.6c-0.1-1.4-0.8-2.9-2.3-3.4c-0.3-0.1-0.7-0.1-1.1-0.1c-0.3,0-0.5,0-0.8,0c0-2.8-4.9-4.8-7.2-4.7
			c0-1-0.5-1.4-0.7-2.3c-0.2-0.7-0.2-0.4,0.1-1.2c0.1-0.3,0.2-0.6,0.3-0.9c0.6-2.4,0.1-5.3-2.5-6.3c-0.8-0.3-0.7,0.1-1-0.5
			c-0.2-0.4,0-1.3,0-1.7c-0.1-1.4-0.4-2.2-1.7-2.8c-2.1-1-5.1-0.8-7.3-0.2c-1.3,0.3-2.2,1.1-3.3,1.6c-1-2.1-3.3,0.1-4.4,0.7
			c-0.8-0.4-0.5-1.6-0.9-2.3c-0.6-1.1-1.6-1.4-2.7-1.4C410.4,620.9,409.9,621,409.5,621"/>
	</defs>
	<clipPath id="SVGID_40_">
		<use xlink:href="#SVGID_39_"  style="overflow:visible;"/>
	</clipPath>
	
		<linearGradient id="SVGID_41_" gradientUnits="userSpaceOnUse" x1="-35" y1="751.1868" x2="-34" y2="751.1868" gradientTransform="matrix(-35.2405 10.7993 -10.7993 -35.2405 7327.8896 27478.498)">
		<stop  offset="0" style="stop-color:#C8B82C"/>
		<stop  offset="0.619" style="stop-color:#798429"/>
		<stop  offset="1" style="stop-color:#4D6A26"/>
	</linearGradient>
	<polygon class="st19" points="441.6,605.8 383,623.7 396.9,669 455.5,651.1 	"/>
</g>
<g>
	<defs>
		<rect id="SVGID_42_" x="-35" y="-90.7" width="595.3" height="841.9"/>
	</defs>
	<clipPath id="SVGID_43_">
		<use xlink:href="#SVGID_42_"  style="overflow:visible;"/>
	</clipPath>
	<path class="st20" d="M401.5,633l1.6-5.5c-0.3-2.6,6.3-5.2,6.4-1.6c1.3-0.5,2.2,1.5,2.6,2.4c0.6-0.4,1.3-0.4,1.8-0.7
		c0.9-0.6,1.4-1.3,2.6-1.3c3.2,0,6.7,3.8,6.9,6.8c1.4-1.4,1-3.7-0.1-5.2c-0.8-1.1-2-1-2.8-1.9c0.7-0.7,2.1-1.1,3.1-1.2
		c1.3-0.1,1.8,0.6,2.8,1c1.2,0.4,1.8,0.3,2.7,1.4c0.8,0.9,0.7,1.4,0.8,2.4c0.3,2,2.6,2.8,2.2,5.2c-0.2,0.9-0.9,1-1.2,1.8
		c-0.2,0.5,0,1.5,0,2c0.8,0.2,1.9,0.9,1.9,1.9c1.8-0.1,2.9,1.6,2.8,3.2c-0.9-0.9-1.8-1.3-3-1.7c-1.4-0.4-5.2-1.1-5.6,1.1
		c0.8,0.2,2-0.6,2.9-0.7c0.7-0.1,1.2,0,1.8,0.4c0.6,0.4,0.8,1,1.2,1.5c0.4,0.5,1,0.8,1.3,1.4c1.7-1.1,4.3-0.3,4.7,1.6
		c0.1,0.5,0.1,1.2-0.1,1.7c-0.1,0.4,0,0.4-0.3,0.6c-0.1,0.1-0.7,0-0.8,0c-1.5,0.1-3.1,0-4.6,0.1c-4.8,0.3-9.5,1.1-14.3,1.3
		c-1.9,0.1-3.7,0.1-5.5-0.5c-3.1-0.9-6.9-2.4-9.1-5c-1.9-2.2-0.6-5-1.4-7.5c-0.4-1.2-1.2-2.3-1.4-3.5
		C401.5,634.2,401.7,633.6,401.5,633"/>
</g>
<g>
	<defs>
		<path id="SVGID_44_" d="M382.9,620.5c-1.1-0.7-1.7-1.1-2.9-0.7c-1.4,0.4-2.9,1.5-3.1,3c0,0.4,0,0.8,0,1.2l-1.5,1.1
			c-0.6-0.3-1.4-0.3-2,0c-1.3,0.6-1.5,1.4-1.9,2.6c-0.9,2.6-1.9,4.6-1.8,7.4c0.2,2.7,1.4,4.6,3.5,6.1c0.7,0.5,0.7,0.1,0.9,1.2
			c0.5,2.4,1.6,3.4,4.3,3.5c0.6,0,1.2,0,1.9-0.1c1.4-0.1,2.8-0.2,3.9,0.4c1.7,0.9,2.8,2.8,4.1,4c1.9,1.8,4.1,1.1,6.4,0.4
			c2-0.6,4.6-1,6.7-0.5c0.5,0.1,1,0.4,1.6,0.6c2.3,0.9,5,0.9,7.3,0.2c0.8-0.3,1.7-0.1,2.7,0c1.4,0.2,2.9,0.4,4.1-0.9
			c0.2-0.3,0.2-0.6,0.5-0.8c0.1-0.1,0.6-0.1,0.8-0.3c0.4-0.4,0.4-0.9,0.4-1.4c0.7-0.5,0.7-1.2,0.9-2c0.2-0.5,0.6-0.9,0.8-1.5
			c0.3-1.1-0.1-2.5-0.5-3.5c-0.3-0.6-1-1.5-1.2-2.1c-0.1-0.5,0-1.1,0-1.6c-0.2-2.9-2.6-6.1-5.5-6.5c-0.6-0.1-1.3,0-2,0.1
			c-0.8,0.1-1.5,0.2-2.2,0.1c-0.3-0.1-0.4-0.3-0.7-0.4c-0.9-0.3-3.5-0.8-4.4-0.2c-0.4,0.2-0.6,1-0.7,1.4c-0.2-1.6-2.3-2.5-3.8-2.5
			c-0.4-1.3-3.6-1.9-3.9-0.4c-0.1-0.7-0.7-0.8-1-1.3c-0.3-0.5-0.2-0.7-0.4-1.3c-0.4-1.3-1.3-1.5-2.4-2c0.6-1.2,1.2-1,2-0.8
			c0.3,0.1,0.7,0.2,1.1,0.2c-0.2-2.6-2.7-3.4-4.9-3.8c-1-0.1-2.4-0.4-3.7-0.4C384.8,619.2,383.5,619.5,382.9,620.5"/>
	</defs>
	<clipPath id="SVGID_45_">
		<use xlink:href="#SVGID_44_"  style="overflow:visible;"/>
	</clipPath>
	
		<linearGradient id="SVGID_46_" gradientUnits="userSpaceOnUse" x1="-35" y1="751.1529" x2="-34" y2="751.1529" gradientTransform="matrix(-50.6113 0 0 -50.6113 -1351.1084 38652.3711)">
		<stop  offset="0" style="stop-color:#678039"/>
		<stop  offset="0.2184" style="stop-color:#5E7832"/>
		<stop  offset="0.6925" style="stop-color:#4F6B27"/>
		<stop  offset="1" style="stop-color:#4A6623"/>
	</linearGradient>
	<rect x="369.5" y="619.2" class="st21" width="51.1" height="32.7"/>
</g>
<g>
	<defs>
		<path id="SVGID_47_" d="M368.6,621.3c-1.6,0.2-3.4,1.8-3.7,3.4c-0.7-1.1-1.6,0.5-2.1,0.7c-1,0.4-0.8-0.3-1.3-0.5
			c-1.8-0.7-3.6,1.4-3.4,3.1l-2.8,3.5c-0.8,1.8-0.2,3.7,1,5.2c1,1.2,2,1.6,3.5,1.6c0.2,0,0.6-0.1,1-0.1c0.7-0.1,1.4-0.2,1.8,0
			c0.9,0.5,0.8,2.6,1.3,3.5c0.8,1.5,2.6,2.4,4.1,3c2.9,1.1,6.6,0.5,9.7,0.4c2.5-0.1,4.7-0.5,7.2-0.9c0.8-0.1,1.4-0.1,2.2,0.1
			c1.5,0.4,4.3,1,4.8-1c0.5-1.7-0.9-3.4-2.4-3.8c0.3-0.9,0.8-1.4,0.7-2.5c-0.1-0.9-0.6-1.7-1.3-2.2c0.8-1.5-2-3.1-3.2-3.3
			c-0.4-0.1-0.8,0-1.2,0.1c-0.4,0.1-0.8,0.1-1.1,0.1c-0.4-0.1-0.7-0.6-1.2-0.5c0-0.5,0-1.1-0.4-1.5c-0.4-0.3-0.7-0.3-1-0.2
			c-0.2,0-0.4,0.1-0.6,0c-0.7-0.1-1.3-1-1.5-1.8c-0.5-1.9,1-3.8-1.3-5.1c-1.3-0.7-3.8-1-4.5,0.6c0-1.4-2.4-1.9-3.7-1.9
			C368.8,621.2,368.7,621.2,368.6,621.3"/>
	</defs>
	<clipPath id="SVGID_48_">
		<use xlink:href="#SVGID_47_"  style="overflow:visible;"/>
	</clipPath>
	
		<linearGradient id="SVGID_49_" gradientUnits="userSpaceOnUse" x1="-35" y1="751.1509" x2="-34" y2="751.1509" gradientTransform="matrix(-36.7979 0 0 -36.7979 -896.1072 28274.2676)">
		<stop  offset="0" style="stop-color:#678039"/>
		<stop  offset="0.2184" style="stop-color:#5E7832"/>
		<stop  offset="0.6925" style="stop-color:#4F6B27"/>
		<stop  offset="1" style="stop-color:#4A6623"/>
	</linearGradient>
	<rect x="354.5" y="621.2" class="st22" width="37.8" height="24.5"/>
</g>
<g>
	<defs>
		<path id="SVGID_50_" d="M154.6,621c-1.5,0.2-2.5,0.7-3.6,1.6c-0.3,0.2-0.4,0.5-0.7,0.7c-0.7,0.5-1.4,0.7-1.9,1.3
			c-0.4-1.6-2.4,0.8-2.9,1.3c-1,1.1-1.1,2.5-1.5,3.8l-3.7,2.5c-0.9,0.8-1.8,1.7-2.3,2.9c-0.6,1.5,0.2,1.8,0.8,3
			c0.7,1.5,0.2,3.3,0.7,4.9c0.7,2.3,2.8,4.2,5.2,4.5c1.3,0.2,2.7,0,4.1-0.1c0.2,0,1.1-0.1,1.4,0c1,0.4,1.2,1.7,1.8,2.5
			c3.3,4,9.8,1.6,14,1.3c2-0.1,4.3,0.4,6.3,0.6c3.1,0.3,6.1,1,9.2,1c2.7,0,6.6,0,8.3-2.5c0.3-0.4,0.5-1.1,0.7-1.4
			c0.4-0.9,0.9-1.4,0.9-2.6c-0.1-1.4-0.8-2.9-2.3-3.4c-0.3-0.1-0.7-0.1-1.1-0.1c-0.3,0-0.5,0-0.8,0c0-2.8-4.9-4.8-7.2-4.7
			c0-1-0.5-1.4-0.7-2.3c-0.2-0.7-0.2-0.4,0.1-1.2c0.1-0.3,0.2-0.6,0.3-0.9c0.6-2.4,0.1-5.3-2.5-6.3c-0.8-0.3-0.7,0.1-1-0.5
			c-0.2-0.4,0-1.3,0-1.7c-0.1-1.4-0.4-2.2-1.7-2.8c-2.1-1-5.1-0.8-7.3-0.2c-1.3,0.3-2.2,1.1-3.3,1.6c-1-2.1-3.3,0.1-4.4,0.7
			c-0.8-0.4-0.5-1.6-0.9-2.3c-0.6-1.1-1.6-1.4-2.7-1.4C155.5,620.9,155,621,154.6,621"/>
	</defs>
	<clipPath id="SVGID_51_">
		<use xlink:href="#SVGID_50_"  style="overflow:visible;"/>
	</clipPath>
	
		<linearGradient id="SVGID_52_" gradientUnits="userSpaceOnUse" x1="-35" y1="751.1868" x2="-34" y2="751.1868" gradientTransform="matrix(-35.2412 10.7995 -10.7995 -35.2412 7073.1074 27479.0059)">
		<stop  offset="0" style="stop-color:#C8B82C"/>
		<stop  offset="0.619" style="stop-color:#798429"/>
		<stop  offset="1" style="stop-color:#4D6A26"/>
	</linearGradient>
	<polygon class="st23" points="186.7,605.8 128.1,623.7 142,669 200.6,651.1 	"/>
</g>
<g>
	<defs>
		<rect id="SVGID_53_" x="-35" y="-90.7" width="595.3" height="841.9"/>
	</defs>
	<clipPath id="SVGID_54_">
		<use xlink:href="#SVGID_53_"  style="overflow:visible;"/>
	</clipPath>
	<path class="st24" d="M146.6,633l1.6-5.5c-0.3-2.6,6.3-5.2,6.4-1.6c1.3-0.5,2.2,1.5,2.6,2.4c0.6-0.4,1.3-0.4,1.8-0.7
		c0.9-0.6,1.4-1.3,2.6-1.3c3.2,0,6.7,3.8,6.9,6.8c1.4-1.4,1-3.7-0.1-5.2c-0.8-1.1-2-1-2.8-1.9c0.7-0.7,2.1-1.1,3.1-1.2
		c1.3-0.1,1.8,0.6,2.8,1c1.2,0.4,1.8,0.3,2.7,1.4c0.8,0.9,0.7,1.4,0.8,2.4c0.3,2,2.6,2.8,2.2,5.2c-0.1,0.9-0.9,1-1.2,1.8
		c-0.2,0.5,0,1.5,0,2c0.8,0.2,1.9,0.9,1.9,1.9c1.8-0.1,2.9,1.6,2.8,3.2c-0.9-0.9-1.8-1.3-3-1.7c-1.4-0.4-5.2-1.1-5.6,1.1
		c0.8,0.2,2-0.6,2.9-0.7c0.7-0.1,1.2,0,1.8,0.4c0.6,0.4,0.8,1,1.2,1.5c0.4,0.5,1,0.8,1.3,1.4c1.7-1.1,4.3-0.3,4.7,1.6
		c0.1,0.5,0.1,1.2-0.1,1.7c-0.1,0.4,0,0.4-0.3,0.6c-0.1,0.1-0.7,0-0.8,0c-1.5,0.1-3.1,0-4.6,0.1c-4.8,0.3-9.5,1.1-14.3,1.3
		c-1.9,0.1-3.7,0.1-5.5-0.5c-3.1-0.9-6.9-2.4-9.1-5c-1.9-2.2-0.6-5-1.4-7.5c-0.4-1.2-1.2-2.3-1.4-3.5
		C146.6,634.2,146.8,633.6,146.6,633"/>
</g>
<g>
	<defs>
		<path id="SVGID_55_" d="M124.1,620.5c-1.1-0.7-1.7-1.1-2.9-0.7c-1.4,0.4-2.9,1.5-3.1,3c0,0.4,0,0.8,0,1.2l-1.5,1.1
			c-0.6-0.3-1.4-0.3-2,0c-1.3,0.6-1.5,1.4-1.9,2.6c-0.9,2.6-1.9,4.6-1.8,7.4c0.2,2.7,1.4,4.6,3.5,6.1c0.7,0.5,0.7,0.1,0.9,1.2
			c0.5,2.4,1.6,3.4,4.3,3.5c0.6,0,1.2,0,1.9-0.1c1.4-0.1,2.8-0.2,3.9,0.4c1.7,0.9,2.8,2.8,4.1,4c1.9,1.8,4.1,1.1,6.4,0.4
			c2-0.6,4.6-1,6.7-0.5c0.5,0.1,1,0.4,1.5,0.6c2.3,0.9,5,0.9,7.3,0.2c0.8-0.3,1.7-0.1,2.7,0c1.4,0.2,2.9,0.4,4.1-0.9
			c0.2-0.3,0.2-0.6,0.5-0.8c0.1-0.1,0.6-0.1,0.8-0.3c0.4-0.4,0.4-0.9,0.4-1.4c0.8-0.5,0.7-1.2,0.9-2c0.2-0.5,0.6-0.9,0.8-1.5
			c0.3-1.1-0.1-2.5-0.5-3.5c-0.3-0.6-1-1.5-1.2-2.1c-0.1-0.5,0-1.1,0-1.6c-0.2-2.9-2.6-6.1-5.5-6.5c-0.6-0.1-1.3,0-2,0.1
			c-0.8,0.1-1.5,0.2-2.2,0.1c-0.3-0.1-0.4-0.3-0.7-0.4c-0.9-0.3-3.5-0.8-4.4-0.2c-0.4,0.2-0.6,1-0.7,1.4c-0.2-1.6-2.3-2.5-3.8-2.5
			c-0.4-1.3-3.6-1.9-3.9-0.4c-0.1-0.7-0.7-0.8-1-1.3c-0.3-0.5-0.2-0.7-0.4-1.3c-0.4-1.3-1.3-1.5-2.4-2c0.6-1.2,1.2-1,2-0.8
			c0.3,0.1,0.7,0.2,1.1,0.2c-0.2-2.6-2.7-3.4-4.9-3.8c-1-0.1-2.4-0.4-3.7-0.4C126,619.2,124.7,619.5,124.1,620.5"/>
	</defs>
	<clipPath id="SVGID_56_">
		<use xlink:href="#SVGID_55_"  style="overflow:visible;"/>
	</clipPath>
	
		<linearGradient id="SVGID_57_" gradientUnits="userSpaceOnUse" x1="-35" y1="751.1529" x2="-34" y2="751.1529" gradientTransform="matrix(-50.6104 0 0 -50.6104 -1609.8425 38651.6953)">
		<stop  offset="0" style="stop-color:#678039"/>
		<stop  offset="0.2184" style="stop-color:#5E7832"/>
		<stop  offset="0.6925" style="stop-color:#4F6B27"/>
		<stop  offset="1" style="stop-color:#4A6623"/>
	</linearGradient>
	<rect x="110.7" y="619.2" class="st25" width="51.1" height="32.7"/>
</g>
<g>
	<defs>
		<rect id="SVGID_58_" x="-35" y="-90.7" width="595.3" height="841.9"/>
	</defs>
	<clipPath id="SVGID_59_">
		<use xlink:href="#SVGID_58_"  style="overflow:visible;"/>
	</clipPath>
	<path class="st26" d="M294,636.1c0-0.6,0.1-1.2,0.2-1.8c0.2,0,0.4,0,0.6-0.1c0-0.6-0.1-1.6,0.2-2c0.3-0.4,0.7-0.4,1-0.5
		c-0.3-1-0.3-2.3,0.3-3.1c0.4-0.4,0.4-0.3,0.6-1c0.1-0.3,0.3-0.6,0.4-0.9c0.4-0.7,0.8-1,1.5-1c0.8,0,1.6,0.4,1.9,1.4
		c0.6-0.1,0.8-0.2,1.2,0.2c0.1,0.1,0.4,0.6,0.5,0.8c0.1,0.3,0.1,0.8,0.2,1c0.2,0.3,0.4,0.2,0.6,0.7c0.1,0.4,0,0.9,0.1,1.3
		c0.2,0.5,0.3,0.4,0.3,1c0,0.4,0.1,0.7,0.1,1c0,0.2-0.1,0.6,0,0.7c0.2,0.3,0.7,0,1,0.2c0.4,0.2,0.9,0.9,1,1.4l0.6,1.9
		c0,0.4,0.2,1.3,0.1,1.6c-0.2,0.5-1.2,0.2-1.5,0.2c-3.6,0-7.3,0-11,0l-0.2-3C293.8,636.1,293.9,636.1,294,636.1"/>
	<path class="st27" d="M295.9,634c-0.9-1.6-0.2-1.5,0.8-1.6c0-0.9,0.2-1.7,0.3-2.4c0-0.3,0-0.5,0-0.8c0.1-0.6,0.4-0.6,0.7-1
		c0.1-0.1,0.1-0.4,0.1-0.5c0.3-0.3,0.6-0.3,1-0.3c0.2,0,0.5-0.1,0.7,0.1c0.2,0.2,0.2,0.7,0.4,0.8c0.3,0.3,0.7,0.1,1,0.2
		c1.4,0.2,1.4,1.6,1.6,3c-0.9-0.8-1.7-2.4-2.9-1.9c-0.2,0.1-0.4,0.4-0.5,0.4c-0.2,0.1-0.4-0.1-0.5,0c-0.3,0.2-0.4,0.8-0.5,1.2
		c1.2-0.7,1.6-1,2.8-0.2c0.8,0.5,1.4,1.5,1.6,2.6c-0.9-0.1-1.5-0.9-2.2,0.3c0.5,0,1.1-0.1,1.5,0c0.3,0.1,0.4,0.4,0.7,0.5
		c0.6,0.2,1-0.2,1.5,0.4c0.2,0.2,0.4,0.6,0.4,1c0,1.3-1.8,0.2-2.4,0.1c-1.2-0.2-2.4,0.4-3.5,0.4c-1.2,0-2.3-0.1-3.5-0.1v-0.4
		C295,635.2,295.3,634.1,295.9,634"/>
	<path class="st26" d="M311.6,636c0-1,0.7-1.6,1.3-2.3c0.2-0.3,0.3-0.6,0.6-0.8c0.2-0.1,0.5-0.1,0.6-0.2c0.6-0.5,1-1.3,2.2-1.3
		c0.8,0,1.2,0.3,1.8,0.6c0.4,0.2,0.5,0.2,0.9,0.4c1,0.4,2,0.7,2.5,1.8c0.1,0.2,0.1,0.6,0.2,0.8c0.1,0.2,0.5,0.2,0.6,0.3
		c0.2,0.4,0,1,0,1.4c0.4,0.1,1.1-0.1,1.5,0.1c0.6,0.4,0.5,1.6,1,2c0.7,0.5,2.1-0.2,2.9-0.2c0.7-0.1,1.3,0,2,0l0.3,3.4
		c-1.1,0-2.1,0-3.2-0.1c-2.3-0.1-4.7-0.1-6.9-0.7c-1.5-0.4-2.8-0.9-4.3-1c-1.3-0.1-2.5,0.1-3.2-1.1c-0.4-0.6-0.1-1-0.3-1.6
		C312,636.9,311.6,636.7,311.6,636"/>
	<path class="st27" d="M314.2,636.2c0.2-0.6,0.4-0.5,0.6-1c0.2-0.6,0.1-1.1,0.4-1.5c0.3-0.4,1.4-0.7,1.8-0.7c0.8,0,1.6,1.1,2.3,1.8
		c1.1,1.3,2.1,2.3,1.3,4.9c-1.7-1.9-2.7-2.7-4.7-1.9c-0.8,0.3-1.5,0.6-2.3,0.6l-0.6-0.2C312.9,636.8,313.5,635.6,314.2,636.2"/>
	<rect x="369.7" y="638.6" class="st28" width="22.2" height="4.9"/>
	<rect x="321" y="633.2" class="st29" width="47.4" height="13.1"/>
	<rect x="330.5" y="638.4" class="st30" width="35.2" height="0.8"/>
	<rect x="321.1" y="633.5" class="st30" width="35.2" height="0.8"/>
	<polygon class="st31" points="320.4,627.8 369.5,627.8 369.5,638.5 330.3,638.5 330.3,633.7 320.4,633.7 	"/>
	<polygon class="st32" points="330.3,633.7 330.3,642.5 324.3,642.5 	"/>
</g>
<g>
	<defs>
		<path id="SVGID_60_" d="M222.1,627.2c-0.4,0.3-0.8,0.7-1.2,1c-0.4,0.3-1.2,0.5-1.4,1c0,0.1,0,0.3,0,0.4c-0.1,0.2-0.6,0.2-0.7,0.5
			c-0.1,0.2,0,0.4-0.2,0.6c-0.1,0.2-0.4,0.1-0.6,0.3c-0.4-0.3-0.5-0.8-0.8-1.3c-0.2-0.3-0.2-0.3-0.6-0.2c-0.1-0.7,0-1.3-0.6-1.7
			c-0.5-0.3-2-0.3-2.3,0.3c-0.6,0-2,0-2.2,0.7c0,0.2,0,0.5,0,0.7c-0.5,0-0.3,0.6-0.6,0.8c-0.1,0.1-0.3,0.1-0.4,0
			c-0.1,0-0.2-0.1-0.3,0c0,0.1,0,0.2,0,0.2c-0.6-0.1-1.4-0.2-1.9,0.2c-0.5,0.4-0.6,1.4-0.4,2c-0.6,0.3-0.5,1-0.4,1.5
			c0.1,0.4,0.2,0.8,0.1,1.2c-0.2,0.6-0.6,1.1-0.7,1.8c-0.1,1.4,0,2.8,0.1,4.2c0,0.7,0.1,1.4,0.1,2.1c0,0.3-0.1,0.6,0,0.8
			c0,0.2,0.1,0.7,0.2,0.8c0.1,0.1,0.6,0.1,1,0.1c0.2,0,0.3,0,0.4,0c1.2,0.1,2.3,0.3,3.5,0.4c0.7,0.1,1.6,0.2,2.3,0.1
			c0.7-0.1,1.3-0.4,2-0.6c1.1-0.4,2.3-0.6,3.5-0.9c1.1-0.3,2-0.8,3.1-1c1.4-0.2,2.9-0.3,4.3-0.5c1.7-0.3,3.2-1.4,3.5-3.2
			c0.1-0.8,0.2-1.5,0.4-2.3c0.2-0.6,0.6-1.1,0.7-1.7c0.2-1.5,0.2-3.4-1.3-4.3c-0.5-0.3-0.8,0-1.1,0.2c-0.2-0.4-0.5-0.6-0.7-0.9
			c-0.3-0.5-0.4-1.2-1.2-1.1c0,0,0,0,0,0.1c-0.6-0.2-1.8-0.6-1.9,0.4c-0.4,0.1-0.6,0.4-0.9,0.5c-0.2-0.3,0.1-0.6,0-0.9
			c-0.1-0.1-0.2-0.2-0.3-0.3c-0.1-0.2,0-0.4-0.1-0.6c-0.1-0.1-0.4-0.2-0.5-0.2c-0.3-0.1-0.2-0.1-0.3-0.3c-0.1-0.3-0.1-0.3-0.4-0.5
			c-0.1,0-0.3-0.1-0.4-0.1c-0.1-0.1-0.2-0.3-0.3-0.4c-0.1-0.2-0.3-0.2-0.4-0.2C222.4,627,222.3,627,222.1,627.2"/>
	</defs>
	<clipPath id="SVGID_61_">
		<use xlink:href="#SVGID_60_"  style="overflow:visible;"/>
	</clipPath>
	
		<linearGradient id="SVGID_62_" gradientUnits="userSpaceOnUse" x1="-35" y1="751.1559" x2="-34" y2="751.1559" gradientTransform="matrix(-25.1069 0 0 -25.1069 -646.4373 19495.625)">
		<stop  offset="0" style="stop-color:#C6C991"/>
		<stop  offset="0.5861" style="stop-color:#929F4D"/>
		<stop  offset="1" style="stop-color:#708521"/>
	</linearGradient>
	<rect x="207.1" y="627" class="st33" width="25.5" height="18.9"/>
</g>
<g>
	<defs>
		<rect id="SVGID_63_" x="-35" y="-90.7" width="595.3" height="841.9"/>
	</defs>
	<clipPath id="SVGID_64_">
		<use xlink:href="#SVGID_63_"  style="overflow:visible;"/>
	</clipPath>
	<rect x="215.1" y="625.9" class="st34" width="0.3" height="17"/>
	<rect x="148.7" y="627.8" class="st34" width="0.3" height="15.2"/>
</g>
<g>
	<defs>
		<path id="SVGID_65_" d="M362.4,632.2c-0.9,0.1-2.5,1-2.9,1.9c-0.3,0.8-0.1,1.7-0.7,2.4c-0.8,0.9-2,0.5-1.9,2.2l-0.8,1
			c-1,0-1,0.7-1.4,1.3c-0.8,1.1-3.2,3.1-2.5,4.6c0.5,0.9,2.4,1.5,3.2,2.5c1.6,2,2.3,4.2,5.2,4.3c1.8,0.1,3.5-0.1,5.3-0.3
			c1.8-0.2,3.6-0.3,5.5-0.3c4.3,0.2,8.6,1,13,0.5c3.5-0.4,6.7-1.9,10.2-1.5c1.7,0.2,4.4,1.4,6,0.5c0.5-0.3,0.8-1.1,0.9-1.6
			c0.6-1.9-0.3-2.5-0.9-4.1c-0.4-1.2-0.3-1.8-1.4-2.7c-0.8-0.7-1.9-1.4-2.9-1.9c-1.4-0.7-2.6-0.3-3.9-0.2c-0.3,0-0.6,0-0.9,0
			c-0.8,0-1.5,0-2.5,0.4c-1.1,0.5-0.4,0.4-1.4,0.1c-0.8-0.2-1.1-0.6-2-0.5c-1.9,0.1-2.9,1.7-4.3,2.6c0.1-1-0.8-0.9-1.7-0.8
			c-0.4,0.1-0.8,0.1-1,0.1c-0.3-1.6,0.6-3.5,0.3-5.2c-0.3-1.8-4-3.8-5.2-1.9c-1.8-0.7-3.3,2-4.2,3c-0.9-0.1-0.7-1.1-1.1-1.8
			c-0.6-1.2-2-1.5-3.2-1.5c-0.3-1.9,0-3-1.8-3C362.9,632.2,362.7,632.2,362.4,632.2"/>
	</defs>
	<clipPath id="SVGID_66_">
		<use xlink:href="#SVGID_65_"  style="overflow:visible;"/>
	</clipPath>
	
		<linearGradient id="SVGID_67_" gradientUnits="userSpaceOnUse" x1="-35" y1="751.1779" x2="-34" y2="751.1779" gradientTransform="matrix(-33.5494 10.281 -10.281 -33.5494 6953.6636 26195.127)">
		<stop  offset="0" style="stop-color:#C8B82C"/>
		<stop  offset="0.619" style="stop-color:#798429"/>
		<stop  offset="1" style="stop-color:#4D6A26"/>
	</linearGradient>
	<polygon class="st35" points="397.7,618 345.8,633.9 355.8,666.8 407.8,650.9 	"/>
</g>
<g>
	<defs>
		<path id="SVGID_68_" d="M357.3,640.2l-2,3.7c-0.4,4.2,5.8,6.4,9,7c3.7,0.7,7.4,0,11-0.6c2.7-0.5,5.5-0.9,8.3-0.8
			c2.4,0.1,4.8,0.3,7,1c0.4,0.1,0.8,0.3,1.2,0.4c0.1,0,0.4,0.1,0.5,0.1c0.4-1.1,0.1-2.6-0.8-3.4c-0.7-0.7-1.6-0.6-2.4-1
			c-0.8-0.4-1.1-0.9-2-1c-1.5-0.2-2.8,0.6-3.8,1.4c-1.1-2.1-3.6-2.3-5.7-2.6c-2.8-0.4-0.5-2.5-1-4.2c-0.2-0.8-1-2.4-1.8-2.7
			c-1.4-0.5-3.1,1.1-3.7,2.1c-0.5,0.8-0.5,0.7-0.1,1.5c0.4,0.8,0.7,0.9,0.5,1.8c-0.2,0.6-1.1,1.6-1.7,1.8c-0.6-1.8-0.9-3.2-2.7-4.4
			c-0.6-0.4-2.8-2.1-2.4-0.1c-0.2-0.7-0.6-1.1-0.9-1.6c-0.4-0.7-0.3-1.4-1.1-2c-0.4-0.3-0.8-0.4-1.2-0.4
			C359.7,636.2,358.2,638.9,357.3,640.2"/>
	</defs>
	<clipPath id="SVGID_69_">
		<use xlink:href="#SVGID_68_"  style="overflow:visible;"/>
	</clipPath>
	
		<linearGradient id="SVGID_70_" gradientUnits="userSpaceOnUse" x1="-35" y1="751.152" x2="-34" y2="751.152" gradientTransform="matrix(-37.1387 0 0 -37.1387 -907.4462 28540.6211)">
		<stop  offset="0" style="stop-color:#4D6A26"/>
		<stop  offset="1" style="stop-color:#445F20"/>
	</linearGradient>
	<rect x="354.9" y="636.2" class="st36" width="37.9" height="15.3"/>
</g>
<g>
	<defs>
		<path id="SVGID_71_" d="M353.6,637.6c-0.8,0.7-0.8,1.7-1.2,2.6c-0.5,1.1-1.2,1.7-1.3,3c-1.4-0.1-1.7,1.4-1.6,2.5v1
			c-0.1,1.4,1.2,1.1,2.2,1.1c2.7,0,6.1,1,8.7,0.3c1.3-0.4,1.4-1.1,1-2.4c-0.1-0.3-0.4-0.5-0.5-0.8c-0.1-0.3,0.1-0.7,0-1
			c-0.3-1.1-1-1.2-1.9-1.5c0.1-2.2,0-4.1-2.6-4.4c0.1-0.8-0.3-1.1-0.9-1.1C354.9,636.9,354,637.3,353.6,637.6"/>
	</defs>
	<clipPath id="SVGID_72_">
		<use xlink:href="#SVGID_71_"  style="overflow:visible;"/>
	</clipPath>
	
		<linearGradient id="SVGID_73_" gradientUnits="userSpaceOnUse" x1="-35" y1="751.1887" x2="-34" y2="751.1887" gradientTransform="matrix(-8.5432 2.618 -2.618 -8.5432 2029.7366 7149.9658)">
		<stop  offset="0" style="stop-color:#C8B82C"/>
		<stop  offset="0.619" style="stop-color:#798429"/>
		<stop  offset="1" style="stop-color:#4D6A26"/>
	</linearGradient>
	<polygon class="st37" points="360.8,633.4 346.1,637.9 350.5,652.2 365.2,647.7 	"/>
</g>
<g>
	<defs>
		<rect id="SVGID_74_" x="-35" y="-90.7" width="595.3" height="841.9"/>
	</defs>
	<clipPath id="SVGID_75_">
		<use xlink:href="#SVGID_74_"  style="overflow:visible;"/>
	</clipPath>
	<path class="st38" d="M308.3,644c0.2-1.8,1.9-2.8,2.5-4.4l1.4-1.9c-0.2-1.3,1-2.5,2.1-2.9c1.6-0.5,2.5,0.1,3.4,1.4
		c0.7-0.5,1.5-0.6,2.3-0.9c1.4-0.5,4.6-1.5,5.8,0.3c0.4,0.7,0.1,1.5,0.2,2.2c0.2,0.9,1,1.6,1,2.6c1.1-0.9,2.8,0.7,3.8,1.2
		c0.1-0.9,0-1.6,0.6-2.4c0.7-1,2.3-1.6,3.4-1c-1.2-1.3-0.1-3,1.2-3.8c0.9-0.6,2.3-1.2,3.5-1c0.7,0.1,0.4,0.2,0.9,0.6
		c1.1,0.8,2.8,1,3.4,2.6c0.3,0.8,0.4,2.7,0.1,3.5c0.7,0.4,1.6,1.7,1.7,2.6c2.1,0,2.6,3.6,1.3,4.7c-3.5,2.8-9.2,1.6-13.3,1.3
		c-4.1-0.2-8.2,0.6-12.3,0.7c-3.1,0.1-6.5,0.3-9.4-0.9C310,647.6,308.1,646.3,308.3,644"/>
	<path class="st39" d="M311.3,641.1l2.2-2.9c0.4-0.6,2.8-2.7,3.2-0.9c1.5-0.1,3.2,1.3,3.3,2.8c1.6,0.4,2.3,1.3,2.2,2.8
		c0.3-0.3,0.8-1.4,0.5-2c-0.2-0.4-0.9-0.5-1.2-0.9c-0.1-0.2-0.1-0.6-0.2-0.9c-0.2-0.4-0.9-0.6-1.1-0.8c-0.4-0.6-0.5-1.5,0.2-2
		c0.4-0.3,1.5-0.4,2-0.5c0.9-0.1,1.7,0,2,0.9c0.1,0.3-0.1,0.6,0,0.9c0.2,0.5,0.8,1,1,1.6c0.2,0.6,0.2,1.3,0.2,1.9
		c0.7,0.3,1.5,0.3,2,1c0.3,0.4,0.2,1,0.4,1.4c0.1,0.2,0.5,0.2,0.7,0.4c0.2,0.2,0.3,0.5,0.3,0.8c0.1,0.5,0.2,1.1,0.3,1.5
		c0.4-0.9,0.2-1.8-0.1-2.7c-0.2-0.6,0-0.6-0.4-1c-0.3-0.3-0.6-0.3-0.9-0.6c1.9-0.5,1.9,2.5,3.8,0.7c0.7-0.7,0.3-0.4,0.4-1.2
		c0.1-0.8,0.3-0.8,0.9-1.4c0.7-0.8,1.1-0.9,2.2-0.4c1.2,0.6,2.7,1.1,3.5,2.3c0-0.8-0.2-2.3-0.9-2.8c-0.4-0.3-0.9-0.1-1.4-0.6
		c-0.1-0.1-0.7-1.2-0.7-1.3c-0.1-0.8,1.2-1.4,1.8-1.6c2.7-0.9,5.6,1.1,5.3,3.8c-1.5-0.4-2.1-1.8-3.8-1.7c-0.1,1,2.6,1.6,2.9,2.8
		c0.1,0.3-0.1,0.8,0,1.1c0.2,0.3,1,0.3,1.3,0.6c0.4,0.4,0.3,0.9,0.8,1.3c0.7,0.6,1.3,0.8,1.5,1.7c0.2,1-0.5,2.1-0.8,3.1
		c-4.5,0.2-8.9-0.2-13.4-0.1c-3.4,0-6.7,0.5-10.1,0.5c-2.7,0-5.8,0.2-8.4-0.6c-1.9-0.6-2.2-1.5-2.2-3.4
		C310.7,643.6,310.5,642.1,311.3,641.1"/>
</g>
<g>
	<defs>
		<path id="SVGID_76_" d="M303.5,633.6c-0.2,0.2-0.5,0.6-0.7,0.7c-0.7,0.6-1.5,0.8-1.7,1.7c-0.1,0.6,0,1.3,0.5,1.7l-0.3,0.6
			c-0.3,0.1-1,0.8-1.3,1.2c-0.2,0.3-0.1,0.7-0.3,1.1c-0.1,0.2-0.4,0.3-0.5,0.5c-0.8,1.2-0.7,2.7,0.5,3.6c0.6,0.4,0.9,0.4,1.1,0.9
			c0.3,0.6,0,1.1,0.5,1.7c1.3,1.5,3.3,0.6,4.8,0.5c0.6,0,1.3,0.2,2,0.4c1.4,0.5,2.8,0.9,3.9-0.6c1,0.3,2.5,0.6,3.3-0.3
			c0.3-0.3,0.2-0.8,0.4-1c0.3-0.3,0.6-0.3,0.9-0.7c0.1-0.1-0.1-0.5,0-0.6c0.1-0.2,0.3-0.3,0.4-0.4c0.8-1.1,1.6-1.7,1.1-3.2
			c-0.1-0.4-0.4-1-0.6-1.4c-0.3-0.6-0.7-1.4-1.5-0.8c-0.5-0.9-1.1-1.6-1.2-2.5c-0.1-1-0.2-2-1.3-2.5c-0.3-0.1-0.5-0.1-0.8,0
			c-0.2,0-0.4,0-0.5,0c-0.1,0-0.4-0.3-0.6-0.4c-0.7-0.2-1.7-0.1-1.9,0.8c-0.4-0.6-1.3-1-2.1-1c0.1-0.8-0.5-1.1-1.3-1.1
			C305.3,632.7,304,633.3,303.5,633.6"/>
	</defs>
	<clipPath id="SVGID_77_">
		<use xlink:href="#SVGID_76_"  style="overflow:visible;"/>
	</clipPath>
	
		<linearGradient id="SVGID_78_" gradientUnits="userSpaceOnUse" x1="-35" y1="751.145" x2="-34" y2="751.145" gradientTransform="matrix(-19.3652 0 0 -19.3652 -359.8172 15187.0381)">
		<stop  offset="0" style="stop-color:#979E32"/>
		<stop  offset="0.9761" style="stop-color:#5B782D"/>
		<stop  offset="1" style="stop-color:#59772C"/>
	</linearGradient>
	<rect x="298.3" y="632.7" class="st40" width="20.1" height="16.4"/>
</g>
<g>
	<defs>
		<rect id="SVGID_79_" x="-35" y="-90.7" width="595.3" height="841.9"/>
	</defs>
	<clipPath id="SVGID_80_">
		<use xlink:href="#SVGID_79_"  style="overflow:visible;"/>
	</clipPath>
	<path class="st41" d="M254.2,631.5c0-1,0.7-1.6,1.3-2.3c0.2-0.3,0.3-0.6,0.6-0.8c0.2-0.1,0.5-0.1,0.6-0.2c0.6-0.5,1-1.3,2.2-1.3
		c0.8,0,1.2,0.3,1.8,0.6c0.4,0.2,0.5,0.2,0.9,0.4c1,0.4,2,0.7,2.5,1.8c0.1,0.2,0.1,0.6,0.2,0.8c0.1,0.2,0.5,0.2,0.6,0.3
		c0.2,0.4,0,1,0,1.4c0.4,0.1,1.1-0.1,1.5,0.1c0.6,0.4,0.5,1.6,1,2c0.7,0.5,2.1-0.2,2.9-0.2c0.8-0.1,1.6,0,2.3,0c0-0.6,0.2-1.3,0.3-2
		c0.3,0,0.7,0,1-0.2c0-0.6-0.2-1.8,0.3-2.3c0.4-0.5,1.1-0.4,1.6-0.5c-0.4-1.2-0.5-2.6,0.5-3.5c0.6-0.5,0.6-0.4,1-1.1
		c0.2-0.4,0.5-0.7,0.7-1c0.7-0.8,1.3-1.1,2.3-1.1c1.2-0.1,2.5,0.4,3,1.6c0.9-0.1,1.2-0.2,1.9,0.2c0.2,0.2,0.7,0.7,0.8,0.9
		c0.2,0.3,0.2,0.9,0.4,1.1c0.3,0.4,0.7,0.2,0.9,0.8c0.2,0.5,0,1.1,0.1,1.5c0.2,0.6,0.4,0.4,0.4,1.1c0,0.5,0.1,0.7,0.2,1.1
		c0,0.2-0.1,0.7,0,0.8c0.3,0.3,1.2,0,1.6,0.2c0.7,0.2,1.4,1,1.6,1.6l0.9,2.1c0,0.4,0.3,1.4,0.1,1.8c-0.3,0.5-1.9,0.2-2.4,0.2
		c-6.8,0-13.7,0.1-20.6-0.1c-2.3-0.1-4.7-0.1-6.9-0.7c-1.5-0.4-2.8-0.9-4.3-1c-1.3-0.1-2.5,0.1-3.2-1.1c-0.4-0.6-0.1-1-0.3-1.6
		C254.6,632.4,254.3,632.2,254.2,631.5"/>
	<path class="st42" d="M275.7,631.7c-1.4-1.8-0.4-1.7,1.2-1.8c0-1,0.3-1.9,0.5-2.7c0.1-0.3-0.1-0.6,0-0.9c0.2-0.7,0.7-0.7,1.1-1.1
		c0.1-0.1,0.1-0.5,0.2-0.5c0.5-0.4,1-0.3,1.5-0.3c0.3,0,0.8-0.1,1.1,0.1c0.3,0.2,0.4,0.7,0.6,0.9c0.5,0.4,1.1,0.1,1.7,0.2
		c2.1,0.3,2.2,1.8,2.6,3.4c-1.4-0.9-2.7-2.7-4.6-2.2c-0.4,0.1-0.6,0.4-0.8,0.5c-0.3,0.1-0.6-0.1-0.9,0c-0.5,0.2-0.6,0.9-0.7,1.4
		c1.9-0.7,2.6-1.1,4.5-0.2c1.2,0.6,2.2,1.7,2.6,2.9c-1.4-0.1-2.4-1-3.5,0.3c0.8,0,1.7-0.2,2.4,0c0.4,0.1,0.7,0.4,1.1,0.5
		c0.9,0.2,1.6-0.2,2.4,0.5c0.3,0.3,0.7,0.7,0.7,1.2c-0.1,1.5-2.9,0.2-3.9,0.1c-1.9-0.2-3.7,0.4-5.6,0.5c-1.8,0.1-3.7-0.1-5.5-0.1
		v-0.5C274.4,633,274.8,631.8,275.7,631.7"/>
	<path class="st42" d="M256.9,630.2c0.2-0.3,0.4-0.3,0.6-0.5c0.2-0.3,0.1-0.6,0.4-0.8c0.3-0.2,1.4-0.4,1.8-0.4c0.8,0,1.6,0.6,2.3,1
		c1.1,0.7,2.1,1.2,1.3,2.6c-1.7-1-2.7-1.5-4.7-1c-0.8,0.2-1.5,0.3-2.3,0.3l-0.6-0.1C255.5,630.5,256.1,629.9,256.9,630.2"/>
</g>
<g>
	<defs>
		<path id="SVGID_81_" d="M237,626.5c-0.7,0.5-0.8,1-0.8,1.8c-0.4,0-1.7-0.1-1.7,0.6c-0.8,0.1-1.1,0.7-1.1,1.4
			c-0.8,0.3-1.2,1.1-0.5,1.7c0.4,0.4,0.4,0.3,0.5,0.8c-0.4-0.1-1.4,0.1-1.3,0.6c-0.8-0.8-3.1,0.8-3.4,2.8l-1.5,1.2
			c-1.2,0.8,1.6,2.3,2.2,3.1c0.2,0.3,0.4,0.6,0.5,0.9c0,0.3-0.1,0.6-0.1,0.9c0,1.5,2.3,1.8,3.5,1.8c0.3,0,0.6,0,0.9,0
			c0.6,0,1.1-0.1,1.6,0.1c0.7,0.3,1.3,0.8,2.1,1c0.9,0.2,1.9,0.2,2.8,0.1c0.8-0.1,1.8-0.1,2.5-0.6c0.1-0.1,0.3-0.4,0.4-0.5
			c0.3-0.2,1.1-0.1,1.4-0.2c0.6-0.2,1.2-0.4,1.8-0.8c0.3-0.2,0.8-0.7,0.7-1.1c0.7-0.5,1.6-0.7,2.1-1.4c0.4-0.6,0.3-1.4,0.1-2
			c-0.2-0.4-0.5-0.8-0.3-1.2c0.2-0.5,0.9-0.7,1.1-1.2c0.3-0.7-0.1-1.5-0.2-2.2c-0.1-0.6-0.3-1.1-1-1.2c-0.4-0.1-1-0.1-1.3,0.2
			c-0.2-0.7-1.9-0.2-2.2,0.2c0.1-0.3,0.1-0.7,0-0.9c-0.2-0.8-0.8-0.8-1.4-1c0-1.1-1.7-0.6-2.3-0.3c0.1-0.6,0.2-1.1,0.1-1.7
			c-0.1-0.7-0.6-0.9-1-1.3c0.6-0.5,0.1-1.3-0.5-1.5c-0.5-0.2-1.1-0.1-1.6-0.3c-0.2-0.1-0.4-0.1-0.6-0.1
			C237.7,626.1,237.4,626.3,237,626.5"/>
	</defs>
	<clipPath id="SVGID_82_">
		<use xlink:href="#SVGID_81_"  style="overflow:visible;"/>
	</clipPath>
	
		<linearGradient id="SVGID_83_" gradientUnits="userSpaceOnUse" x1="-35" y1="751.1561" x2="-34" y2="751.1561" gradientTransform="matrix(-22.8984 0 0 -22.8984 -551.4508 17836.0645)">
		<stop  offset="0" style="stop-color:#C6C991"/>
		<stop  offset="0.619" style="stop-color:#99A651"/>
		<stop  offset="1" style="stop-color:#7E932A"/>
	</linearGradient>
	<rect x="225.9" y="626.1" class="st43" width="24.4" height="19.4"/>
</g>
<g>
	<defs>
		<rect id="SVGID_84_" x="-35" y="-90.7" width="595.3" height="841.9"/>
	</defs>
	<clipPath id="SVGID_85_">
		<use xlink:href="#SVGID_84_"  style="overflow:visible;"/>
	</clipPath>
	<rect x="384.3" y="635.4" class="st44" width="0.9" height="4.9"/>
	<polygon class="st45" points="384.3,638.6 384.3,640.3 383,638.6 	"/>
	<rect x="305.4" y="625.9" class="st46" width="0.3" height="17"/>
</g>
<g>
	<defs>
		<path id="SVGID_86_" d="M295.7,635.7c-1.3,0.1-1.8,0.4-2.5,1.4l-1.2,1.8c-0.1-0.2-0.2-0.2-0.4-0.2c-0.6,0.9-1,1.7-1.3,2.6
			c-0.3,1.1-1.3,2.5-0.8,3.6c0.7,1.8,3.5,1.4,5,1.9c1.6,0.6,2.9,1.1,4.6,1.2c1.5,0.1,4.9,0.7,6.2-0.7c0.5-0.6,0.1-1,0.5-1.6
			c0.4-0.7,1.5-0.4,1.3-1.5c2-0.5,0.3-3.1-0.3-4c-0.3-0.5-0.4-1-0.7-1.5c-0.3-0.6-2-1.5-2.3-0.9c-0.3-1.4-2-1.2-3.1-0.7
			c-0.6,0.3-0.9,1-1.7,0.5c0,0-0.2-0.7-0.2-0.7c-0.3-0.4-0.7-0.8-1.1-1.1c-0.4-0.2-0.7-0.2-1-0.2
			C296.1,635.7,295.9,635.7,295.7,635.7"/>
	</defs>
	<clipPath id="SVGID_87_">
		<use xlink:href="#SVGID_86_"  style="overflow:visible;"/>
	</clipPath>
	
		<linearGradient id="SVGID_88_" gradientUnits="userSpaceOnUse" x1="-35" y1="751.1486" x2="-34" y2="751.1486" gradientTransform="matrix(-13.2176 4.0505 -4.0505 -13.2176 2889.668 10709.0264)">
		<stop  offset="0" style="stop-color:#C8B82C"/>
		<stop  offset="0.619" style="stop-color:#798429"/>
		<stop  offset="1" style="stop-color:#4D6A26"/>
	</linearGradient>
	<polygon class="st47" points="307.2,630.1 285.3,636.8 290.7,654.3 312.5,647.6 	"/>
</g>
<g>
	<defs>
		<path id="SVGID_89_" d="M110.3,617.4c-1.2,0.5-2.4,1-3.6,1.6c-1.6,0.7-2.1,1.6-2.7,3.2c-0.3,0.8,0.2,0.3-0.8,0.8
			c-0.7,0.3-1.5,0.3-2,1c-0.7,0.9,0.1,1.3,0.2,2.1c0.1,0.4-0.2,0.5,0,1c0.1,0.3,0.5,0.5,0.6,0.8c0.5,0.8,0.6,0.1-0.1,1
			c-0.3,0.4-0.7,0.5-0.4,1.2c0.5,1.3,2.4,0.9,3.1,1.8c0.4,0.5,0,0.6-0.4,1.2c-0.9,1.3-0.8,2.1,1,2.4c-1.8,0.8-4.5,1.4-5.2,3.5
			c-0.1,0.3,0,0.7-0.1,1c-0.2,0.5-0.6,0.9-0.6,1.5c0,0.4,0.4,0.6,0.3,0.9c-0.1,0.5-0.5,0.5-0.7,0.9c-0.7,1-0.5,1.1-0.2,2.1
			c0.3,1.3,1.3,1.9,2.3,2.9c1.9,1.7,5.2,1.3,7.8,1.5c3.2,0.2,6.4,0.7,9.6,0.4c2.9-0.3,5.9-0.2,8.8-0.5c1.8-0.2,3.5-0.1,4.5-1.9
			c0.3-0.5,0.3-1.1,0.8-1.4c0.2-0.1,0.5-0.1,0.9-0.1c0.4,0,0.7,0,1-0.2c0.1-0.1,0.3-0.5,0.5-0.6c0.5-0.4,1.3-0.5,1.6-1.2
			c0.4-0.9-0.2-2.2-0.5-3c-0.5-1.5-1.3-2.3-2.9-2.3c-1.1,0-2.8,0.4-2-0.8c0.4-0.5,1.7-0.8,2.2-1.3c0.4-0.4,0.8-0.9,1-1.5
			c0.1-0.3,0.2-0.5,0.1-0.8c-0.3-1.3-2.1-2.1-3.2-1.6c-0.4-1.5-2.4,0.1-3,0.5c-0.3-1-1-0.6-0.7-1.6c0.2-0.7,1.1-1.3,1.4-2.1
			c0.1-0.3,0.2-0.7,0.2-1.1c0-0.5,0.3-0.5,0-1c-0.4-0.6-1.9-0.6-2.8-0.6c-0.3,0-0.5,0-0.6,0c0-0.8,1.5-0.8,2.5-0.7
			c0.3,0,0.6,0,0.8,0c-0.2-0.2-0.2-0.7-0.4-0.9c-0.9-0.9-2.7-0.7-3.9-0.9c0.7-1,1.4-2.4,0.5-3.7c-1.2-1.8-4.8-0.9-6.4-0.2
			c0.2-1.2-1.7-1.9-2.6-1.9c0.2,0-0.5-1.2-0.6-1.3c-0.4-0.4-0.9-0.5-1.4-0.6c-0.2,0-0.4,0-0.6,0C112.4,616.7,111.3,617,110.3,617.4"
			/>
	</defs>
	<clipPath id="SVGID_90_">
		<use xlink:href="#SVGID_89_"  style="overflow:visible;"/>
	</clipPath>
	
		<linearGradient id="SVGID_91_" gradientUnits="userSpaceOnUse" x1="-35" y1="751.1747" x2="-34" y2="751.1747" gradientTransform="matrix(-26.9729 8.2657 -8.2657 -26.9729 5403.4575 21177.793)">
		<stop  offset="0" style="stop-color:#C8B82C"/>
		<stop  offset="0.619" style="stop-color:#798429"/>
		<stop  offset="1" style="stop-color:#4D6A26"/>
	</linearGradient>
	<polygon class="st48" points="133.6,605.9 88.8,619.6 101.6,661.2 146.3,647.5 	"/>
</g>
<g>
	<defs>
		<rect id="SVGID_92_" x="-35" y="-90.7" width="595.3" height="841.9"/>
	</defs>
	<clipPath id="SVGID_93_">
		<use xlink:href="#SVGID_92_"  style="overflow:visible;"/>
	</clipPath>
	<rect x="78.3" y="630.9" class="st49" width="0.3" height="17.3"/>
	<rect x="29.1" y="630.9" class="st49" width="0.3" height="18.6"/>
</g>
<rect x="265.1" y="640.7" class="st50" width="30.1" height="9.6"/>
<rect x="265.1" y="640.7" class="st51" width="30.1" height="1"/>
<rect x="268" y="633.2" class="st52" width="27.7" height="7.7"/>
<rect x="241.9" y="638.6" class="st50" width="26.7" height="9.6"/>
<rect x="241.9" y="638.6" class="st51" width="26.7" height="1"/>
<polygon class="st53" points="240.9,638.7 268.1,638.7 268.1,630.4 249.1,630.4 "/>
<rect x="267.2" y="630.6" class="st54" width="0.8" height="7.9"/>
<rect x="268" y="630" class="st55" width="0.7" height="8.9"/>
<g>
	<defs>
		<path id="SVGID_94_" d="M249.7,634.9c-0.9-1.1-1.5,0.8-1.8,1.5c-0.2-0.5-0.9-0.6-1.4-0.4c-0.6,0.3-0.4,0.9-0.4,1.5
			c-0.6,0-0.8,0.1-0.9,0.8c0,0.2,0.1,0.3-0.1,0.5c-0.1,0-0.1,0-0.2-0.1c-0.1,0-0.1-0.1-0.1-0.1c-0.6,0.1-0.5,0.8-0.8,1.2
			c-0.2,0.4-0.5,0.4-0.5,1c0,0.7,0.3,0.9,0.9,1.1c0,0.5-0.4,1.3,0.4,1.5c-0.1,0.6,0.2,0.6,0.5,0.6c0.1,0,0.3,0,0.4,0
			c0.3,0.1,0.6,0.6,0.7,0.9l0.4,0.7c0.3,0.4,0.8,0.5,1.2,0.7c0.5,0.1,0.9,0.3,1.4,0.4c0.4,0,0.9,0,1.3-0.1c0.3-0.1,0.7-0.4,1-0.5
			c0.4,0,0.7,0.3,1.1,0.4c0.8,0.3,1.8,0.2,2.4-0.4c0,0,0.2-0.4,0.2-0.4c0.2-0.1,0.8-0.1,1-0.1c1.2-0.2,2.6-1.1,1.9-2.4
			c0.9-0.5,1.5-1.6,0.4-2.3c0.2-0.4-0.2-1.2-0.3-1.6c-0.3-1.1-1.1-0.6-1.9-0.5c-0.1-0.2,0-0.3-0.1-0.5c-0.1-0.3-0.2-0.6-0.4-0.8
			c-0.2-0.2-0.5-0.2-0.6-0.4c-0.2-0.2-0.1-0.5-0.3-0.7c-0.3-0.3-0.7-0.3-1.1-0.3c0,0-0.1,0-0.1,0c0.1-1.3-1.1-0.4-1.8-0.3
			c-0.1-0.6,0.2-0.8-0.4-1.2c-0.3-0.2-0.6-0.3-0.9-0.3C250.3,634.1,249.9,634.4,249.7,634.9"/>
	</defs>
	<clipPath id="SVGID_95_">
		<use xlink:href="#SVGID_94_"  style="overflow:visible;"/>
	</clipPath>
	
		<linearGradient id="SVGID_96_" gradientUnits="userSpaceOnUse" x1="-35" y1="751.1631" x2="-34" y2="751.1631" gradientTransform="matrix(-15.668 0 0 -15.668 -289.2501 12409.4707)">
		<stop  offset="0" style="stop-color:#979E32"/>
		<stop  offset="0.9761" style="stop-color:#5B782D"/>
		<stop  offset="1" style="stop-color:#59772C"/>
	</linearGradient>
	<rect x="243.4" y="633.9" class="st56" width="16.3" height="12.8"/>
</g>
<g>
	<defs>
		<path id="SVGID_97_" d="M222.1,633.6c-0.1-0.1-0.3-0.7-0.5-0.8c-0.6-0.2-1.6,0.8-1.8,1.2c-0.6,0.9-0.3,1.9-0.8,2.7
			c0,0-0.1,0-0.2,0c0,0-0.1,0-0.1,0c0,0.1,0,0.3,0,0.4c-1-1.4-1.7,1.4-2.1,1.8c-0.4,0.4-0.7,0.3-0.9,1c-0.2,0.5,0,1.2,0.1,1.7
			l0.3,2.9c0.7,0,1.3,0.1,2,0.2c1.8,0.3,3.8,0.5,5.6,0.2c0.9-0.2,1.6-0.4,2.5-0.4c1.5-0.1,3.1,0.2,4.7,0.4c1.9,0.3,3.8,0.5,5.7,0.3
			c1.2-0.2,1.8-1.4,0.5-2.1c0.9-0.7,0.7-1.5-0.1-2.3c0.3-1.2-4.4-4.7-5-3.4c-0.1-1.4-2.4,0.4-2.9,0.5c-0.8-0.8-0.1-1.4-0.2-2.2
			c-0.1-1.3-1.6-2.2-2.7-2.6c-0.2-0.1-1.2-0.2-2.2-0.2C223,632.7,222,632.9,222.1,633.6"/>
	</defs>
	<clipPath id="SVGID_98_">
		<use xlink:href="#SVGID_97_"  style="overflow:visible;"/>
	</clipPath>
	
		<linearGradient id="SVGID_99_" gradientUnits="userSpaceOnUse" x1="-35" y1="751.1554" x2="-34" y2="751.1554" gradientTransform="matrix(-22.1694 0 0 -22.1694 -538.1033 17291.6738)">
		<stop  offset="0" style="stop-color:#678039"/>
		<stop  offset="0.2184" style="stop-color:#5E7832"/>
		<stop  offset="0.6925" style="stop-color:#4F6B27"/>
		<stop  offset="1" style="stop-color:#4A6623"/>
	</linearGradient>
	<rect x="215.5" y="632.7" class="st57" width="22.9" height="12.7"/>
</g>
<g>
	<defs>
		<rect id="SVGID_100_" x="-35" y="-90.7" width="595.3" height="841.9"/>
	</defs>
	<clipPath id="SVGID_101_">
		<use xlink:href="#SVGID_100_"  style="overflow:visible;"/>
	</clipPath>
	<path class="st58" d="M179.5,625.8c0-0.5-0.4-0.4-0.4-0.9c0-0.5,0.5-0.5,0.6-0.8c0.2-0.4-0.1-0.9,0.3-1.2c0.4-0.3,0.7-0.2,1.1-0.5
		c0.6-0.5,1-1,1.8-0.9c0.8,0.1,0.5,0.7,1,1c0.5,0.3,1.2-0.4,1.8-0.3c0.7,0.1,0.6,0.5,0.9,1c0.1,0.1,0,0.3,0.1,0.4
		c0.4,0.4,1.4,0.5,1.9,0.8c0.5,0.3,0.4,0.5,0.7,0.8c0.5,0.4,1,0.1,1.3,0.7c0.2,0.3,0.1,0.8,0.1,1.2c0,0.6,0.1,1-0.4,1.3
		c-1,0.6-3.4-0.6-4.4-0.7c-1.9-0.3-3.8,0.2-5.7,0.2c-0.7,0-1.3,0-2,0V627C178.2,626.3,178.7,625.7,179.5,625.8"/>
	<path class="st59" d="M180.6,626.1c0-0.4-0.1-1-0.1-1.3c-0.1-1.1-0.1-1,0.7-1.5c0.4-0.2,0.8-0.8,1.4-0.5c0.3,0.1,0.2,0.4,0.5,0.6
		c0.4,0.2,0.6,0.1,1,0.1c0.3,0,1.1-0.3,1.3-0.1c0.3,0.2,0.1,0.6,0.3,0.8c0.5,0.9,1.7,0.4,2.4,1.1c0.2,0.2,0.1,0.4,0.4,0.6
		c0.3,0.2,0.9,0.2,1.1,0.6c0.3,0.5-0.2,1-0.4,1.4c-2.3-0.1-4.5-0.7-6.8-0.7c-0.7,0-1.6-0.2-2.3,0.1l-0.7-0.4
		C179.9,626.5,180.2,626.2,180.6,626.1"/>
	<rect x="173.3" y="636.3" class="st60" width="35.2" height="13.2"/>
	<rect x="173.3" y="636.3" class="st61" width="35.2" height="0.8"/>
	<rect x="172.9" y="626.5" class="st62" width="36" height="9.9"/>
	<rect x="195.4" y="626.4" class="st63" width="4" height="1.2"/>
	<rect x="195.8" y="622.6" class="st64" width="3.2" height="4.6"/>
	<rect x="202.3" y="636.4" class="st65" width="0.6" height="0.7"/>
	<rect x="202.3" y="637.1" class="st66" width="0.6" height="1"/>
	<rect x="201.3" y="636.4" class="st65" width="0.6" height="0.7"/>
	<rect x="201.3" y="637.1" class="st66" width="0.6" height="1"/>
	<rect x="200.4" y="636.4" class="st65" width="0.6" height="0.7"/>
	<rect x="200.4" y="637.1" class="st66" width="0.6" height="1"/>
	<rect x="202.3" y="641.3" class="st66" width="0.6" height="2.1"/>
	<rect x="200.4" y="640.9" class="st66" width="2.5" height="0.4"/>
	<rect x="201.3" y="641.3" class="st66" width="0.6" height="2.1"/>
	<rect x="200.4" y="641.3" class="st66" width="0.6" height="2.1"/>
	<rect x="190.1" y="636.4" class="st65" width="0.6" height="0.7"/>
	<rect x="190.1" y="637.1" class="st66" width="0.6" height="1"/>
	<rect x="189.1" y="636.4" class="st65" width="0.6" height="0.7"/>
	<rect x="189.1" y="637.1" class="st66" width="0.6" height="1"/>
	<rect x="188.2" y="636.4" class="st65" width="0.6" height="0.7"/>
	<rect x="188.2" y="637.1" class="st66" width="0.6" height="1"/>
	<rect x="190.1" y="641.3" class="st66" width="0.6" height="2.1"/>
	<rect x="188.2" y="640.9" class="st66" width="2.5" height="0.4"/>
	<rect x="189.1" y="641.3" class="st66" width="0.6" height="2.1"/>
	<rect x="188.2" y="641.3" class="st66" width="0.6" height="2.1"/>
	<rect x="177.5" y="636.4" class="st65" width="0.6" height="0.7"/>
	<rect x="177.5" y="637.1" class="st66" width="0.6" height="1"/>
	<rect x="180.5" y="636.4" class="st65" width="0.5" height="0.7"/>
	<rect x="180.5" y="637.1" class="st66" width="0.5" height="1"/>
	<rect x="181.2" y="636.4" class="st65" width="0.5" height="0.7"/>
	<rect x="181.2" y="637.1" class="st66" width="0.5" height="1"/>
	<rect x="176.6" y="636.4" class="st65" width="0.6" height="0.7"/>
	<rect x="176.6" y="637.1" class="st66" width="0.6" height="1"/>
	<rect x="175.7" y="636.4" class="st65" width="0.6" height="0.7"/>
	<rect x="175.7" y="637.1" class="st66" width="0.6" height="1"/>
	<rect x="177.5" y="641.3" class="st66" width="0.6" height="2.1"/>
	<rect x="175.7" y="640.9" class="st66" width="2.5" height="0.4"/>
	<rect x="176.6" y="641.3" class="st66" width="0.6" height="2.1"/>
	<rect x="175.7" y="641.3" class="st66" width="0.6" height="2.1"/>
	<rect x="195.8" y="623.2" class="st67" width="3.2" height="0.4"/>
	<rect x="197.7" y="621.4" class="st64" width="0.5" height="1.3"/>
	<rect x="196.7" y="621.8" class="st64" width="0.5" height="0.9"/>
	<rect x="182.3" y="641.1" class="st68" width="3.2" height="0.3"/>
	<rect x="183.5" y="641.7" class="st69" width="1.9" height="3.9"/>
	<polygon class="st70" points="195.4,626.5 195.4,627.6 193.5,626.5 	"/>
</g>
<g>
	<defs>
		<rect id="SVGID_102_" x="-35" y="-90.7" width="595.3" height="841.9"/>
	</defs>
	<clipPath id="SVGID_103_">
		<use xlink:href="#SVGID_102_"  style="overflow:visible;"/>
	</clipPath>
	<path class="st71" d="M105.1,644.9c0.1-0.2,0.2-0.3,0.3-0.5l1.4-0.5c0.3,0,0.4,0.3,0.6,0.4c0.5,0.2,1,0,1.5,0.2
		c0.3,0.1,0.6,0.3,0.8,0.6c0.2,0.3,0.1,0.6,0.3,0.9c0.2,0.4,0.9,0.3,1.2,0.7c1.2-1.1,4.4-2.3,5.6-0.6c0.3,0.4,0.4,0.4,0.9,0.6
		c0.3,0.1,0.5,0.2,0.8,0.3c0.2,0.1,0.4,0.2,0.5,0.3c0.3,0.1,0.5-0.1,0.9-0.2c1.4-0.2,2.7,0.3,4,0.5c0.7,0.1,1.5-0.2,2.1,0.1
		c0.3,0.1,1.1,1.1,1,1.5c-0.1,0.3-1.2,0.3-1.3,0.4c-1.9,0.2-3.9,0-5.8-0.1c-1.7,0-3.4,0.1-5,0.2c-1.7,0.1-3.4,0.3-5.1,0.3
		c-1,0-2,0-3,0c-0.4,0-1,0.1-1.4-0.1c-0.6-0.3-0.4-1.4-0.4-2C105,647.2,104.8,645.9,105.1,644.9"/>
	<path class="st72" d="M127.5,647.7c0.1-0.1,0.6-0.7,0.6-0.8c0.7-1,1.4-1.8,2.7-2.3c2.7-1.2,5.1-2.9,8.3-2.5
		c1.5,0.2,3.2,2.3,4.6,1.6c0-0.1,0-0.2,0-0.4c0.7-0.1,1.8,0.3,2.3,0.1c0.3-0.1,0.5-0.6,0.7-0.8c0.3-0.3,0.7-0.7,1.2-0.8
		c0.5-0.1,0.8,0.2,1.2,0.2c0.4,0,0.5-0.2,1-0.3c1.9-0.4,3,0.8,4.6,1.8c0.3,0.2,1.2,1,1.5,1.1c0.5,0.1,0.2-0.2,0.7-0.4
		c1-0.3,1.6-0.6,2.7-0.6c1.2,0,2.4,0.2,3,1.4c0.8,0,1.3-0.6,1.9-0.8c0.5-0.1,1,0.1,1.5,0c0.3-0.1,0.3-0.4,0.6-0.4
		c0.5-0.1,0.9,0,1.4,0c1.3,0,2.4-0.8,3.8-0.5c1.2,0.2,2.5,0.9,3.5,1.5v1.2c0.1,1.2,1.7,1.7,1.2,3.5c-0.2,0.8-0.3,0.7-1.2,0.8
		c-2,0.3-4.1,0.2-6.1,0.4c-7.4,0.8-15.5,1.5-22.8,0.5c-5.9-0.8-11.8-0.3-17.7-0.7c-0.7,0-1.7,0.2-2.1-0.5
		C125.9,648.8,126.9,648.2,127.5,647.7"/>
	<path class="st73" d="M131.1,646.8c0-1.7,1.9-1.8,3.3-1.8c0-1.2,1.9-1.5,2.8-1.5c0.9,0,1.7,0.1,2.5,0.5c0.4,0.2,0.6,0.5,1,0.7
		c0.6,0.2,1.3,0,1.9,0.1c0.5,0.1,0.7,0.4,1.3,0.4c1,0.1,1.2-0.1,2,0.4c0.6,0.4,1.1,1.2,1.8,1.6c0.1-1.7-0.6-1.7-1.8-2.5
		c0.3-0.4,2-0.8,2.6-0.9c0.4-0.1,0.8,0.1,1.3,0c0.4-0.1,0.6-0.4,1-0.4c0.8-0.1,1.6,0.1,2.4,0.4c0.9,0.3,0.8,0.5,1.3,1
		c0.4,0.4,1,0.6,1.4,1.1c0.2,0.3,0.2,1.2,0.4,1.5c1.6,1.3,0.6-1.9,0.6-2.2c0.9-0.1,1.9-0.3,2.9-0.3c0.8,0,1.2,0,1.8,0.3
		c0.4,0.2,0.5,0.8,1.1,0.9c-0.1,0.6-0.6,1.1-0.5,1.7c1.1,0.3,1.9-1.7,2.6-2.1c0.8-0.6,2,0.1,2.9,0.1c0.4,0,1.1-0.2,1.5-0.3
		c0.9-0.2,1.6-0.9,2.6-0.8c0.9,0.1,1.5,0.6,1.2,1.4c-0.4,1-2.3,1.4-1,2.9l-0.8,1c-1.6,0-3.1,0.6-4.7,0.8c-3.9,0.7-8.2,0.6-12.2,0.6
		c-4-0.1-8.1,0.1-12.1-0.5c-4.3-0.7-8.5-0.5-12.8-0.7C129,648.6,129.8,647.1,131.1,646.8"/>
	<path class="st71" d="M277.6,646.6c1.1,0,1.5-0.7,2.7-1.3c1.1-0.5,1.7-0.1,2.7-0.2c1.3-0.1,2.2-0.9,3.6-0.7
		c0.4,0.1,0.5,0.4,1.1,0.3c0.9-0.1,1.7-0.4,2.6-0.3c1.4,0.1,3.7,0.2,3.8,2v-0.3c1.8-1.4,4.2-1.2,6.2-0.5c1.3,0.4,2.3,1.3,3.4,1.7
		c0.9,0.3,1.5,0,2.5-0.3c1.5-0.4,2.6-0.1,4,0.1c1.8,0.2,3.7-0.3,5.5,0c0.5,0.1,0.9,0.4,1.3,0.4c1.4,0.1,2.8-0.6,4.2-0.6
		c2.1-0.1,3.8-1,5.9-1.1c2-0.1,4-0.1,5.9-0.1c2.3,0,4.6,0.5,6.8,1.1c0.7,0.2,1.4,0.3,2.2,0.3c1.7-0.1,3.3-0.9,5-1
		c1.5-0.1,3-0.6,4.5-0.7c0.8,0,1.5,0.3,2.3,0.4c0.9,0.1,1.7-0.2,2.7-0.3c1.8-0.1,3.7,0.2,5.4,0.7c0.9,0.3,1.8,1.1,2.7,1.3
		c1,0.2,0.7,0.1,1.8-0.4c2.2-0.8,4.4-0.9,6.5-0.2c2.1,0.7,4,0.6,4.6,3.3c-6.1,0.3-12.3-0.1-18.4-0.1c-5.3,0-10.6,0.1-15.9,0.4
		c-4.6,0.2-9.2,0.7-13.8,0.5c-3.1-0.1-6.2-0.4-9.3-0.6c-2.8-0.2-5.7,0.1-8.6-0.1c-4.4-0.2-8.8-0.1-13.2-0.1c-1.2,0-6.6,3-6.5,1.1
		c-1.1-0.2-1.4-2.2-2.5-1.9c-1.4,0.3-2.9,0.4-4.3,0.4c-1.4-0.1-2.7,0-4,0c-3.6,0-5,0.6-6.9,0.6c-0.8,0-0.7-1.5-1.4-1.5
		C272,646.3,276.2,646.5,277.6,646.6"/>
	<path class="st74" d="M275,649.1c0-1.2,1.1-1.4,2-1.4c0.7-0.1,1.9,0.6,2.5,0.4c0.5-0.2,0.5-1.4,1.1-1.7c0.3-0.2,0.5,0,0.9-0.1
		c0.8-0.2,1.7-0.2,2.4,0.2c0.6-0.9,2.2-0.1,3-0.1c1.9-0.2,3.8-0.8,4.8,1.1c0.2,0.4,0.7,2.3,1.5,1.8c0.9-0.7-1.3-2.3-1.2-3.1
		c0.8,0.6,1.4,1.2,2.2,0.9c0.4-0.2,0.7-0.6,1.3-0.7c0.5-0.1,1,0.1,1.5,0.1c1.2,0.1,2.7-0.4,3.6,0.7c0.5,0.5,1,1.9,1.2,2.6
		c0.7-0.7-0.2-1.5-0.3-2.2c1.1,0.2,1.8,1.4,2.9,1.3c0.9,0,2-0.8,3.2-0.8c1.3,0,2,0.3,3.2,0.5c1.3,0.2,2.7,0,4,0c2.6,0,5.5-0.2,8-0.9
		c1.3-0.3,2.6-0.8,4-0.9c1.2-0.1,1.9,0.1,3.1-0.1c1.5-0.3,3.2-0.4,4.6,0c1.8,0.5,3.7,1.3,5.6,1.7c2.8,0.6,4.8-1.8,7.5-2.1
		c2.2-0.2,4.7-0.1,6.8,0.2c2.5,0.4,5,0.1,7.3,1.1c1.9,0.8,4,1.4,6.1,0.9c1.3-0.3,2.6-0.8,4-0.3c0.9,0.3,1.7,0.9,2.5,1.3
		c-0.1,1.1-3.2,0.8-3.9,0.8c-2.8,0-5.5,0.2-8.3,0.6c-4.9,0.7-10,0.6-15,0.6c-5.2,0-10.4-0.1-15.7-0.1c-13.1-0.2-26.3-0.3-39.5-0.3
		c-5.8,0-12.1,0.7-17.6-0.9L275,649.1z"/>
	<path class="st71" d="M221.1,642.5c0.4-1,1.5-1.5,2.6-1.4c1.2,0.1,1.4,1.1,1.8,2.1c0.7-0.1,0.8-1.1,1.4-1.5
		c0.6-0.4,2.3-1.3,2.8-0.3c1.6-0.4,3.2-1.3,4.9-0.3c0.8,0.5,1.9,1.5,1.8,2.5c0.9-0.3,1.6-0.7,2.7-0.4c0.8,0.2,1,0.7,1.6,1.2
		c0.4,0.3,0.3,0.2,0.7,0.4c0.8,0.4,1.5,1.2,2.3,0.9c1.3-0.5,2-1.6,3.5-1.6c1.5-0.1,2.5,1.8,4.1,1.2c0.4-0.2,0.8-0.8,1.3-1
		s0.7,0,1.2-0.1c0.9-0.1,1.7-0.7,2.9-0.6c1.9,0.2,3.7,2.5,5.7,1.9c0.6-0.2,1-0.8,1.5-1.2c0.8-0.7,1.5-1,2.5-1.1
		c1.2-0.1,2.2,0.2,3.2,0.5c1.8,0.4,3.9,1.4,4.6,3.3c0.1,0.4,0.5,2.4,0,2.8h-53.2V642.5z"/>
	<path class="st75" d="M224.3,645.6l1.3-0.6c0.1-0.5,0.6-1.1,1.1-1.3c0.6-0.4,0.6-0.1,1.2-0.2c0.2,0,0.2,0.1,0.4,0
		c0.2-0.1,0.6-0.6,0.9-0.7c0.9-0.4,2.3-0.7,3.2-0.5c1,0.2,0.6,1,1.3,1.5c1,0.7,2.7,0.5,3,2.1c0.8-0.2,1.4-0.7,2.2-0.7
		c1-0.1,1.8,0.2,2.5,0.8c0.7,0.5,1.2,1.6,2.1,1.3c0.3-0.1,0.3-0.3,0.7-0.4c0.4,0,0.9,0.3,1.1,0.6c0.3,0.4,0.2,0.9,0.5,1.2
		c0.7-0.2,0.7-1.1,0.4-1.7c-0.3-0.8-1-0.8-0.4-1.6c0.3-0.4,0.9-0.7,1.4-0.6c0.6,0.1,0.4,0.3,0.8,0.6c1,0.8,2.7,0.4,3.4,1.8
		c0.6-0.3,1.9-0.7,1.9-1.4c0.7-0.1,0.8-0.1,1.3-0.4c0.6-0.3,1-0.5,1.7-0.6c1.2,0,2.4,0.6,3,1.5c0.4,0.6,0.2,2,1.1,2.1
		c1.1,0.1,1.3-1.8,0.5-2.1c0.9-0.1,2.1,0.4,2.9-0.1c0.9-0.6,0.7-1.6,1.9-1.8c1.5-0.2,3.5-0.2,4.8,0.4c1.8,0.8,3.2,3.3,2.4,5.3
		c-5.4,0.3-10.9,0-16.4,0c-5,0-10.1,0.2-15.1,0.4c-5.9,0.3-11.9,0.9-17.8,0.5C223.7,649.2,224.2,647.4,224.3,645.6"/>
	<path class="st71" d="M107,644.1c-0.4-0.8-1.5-1.2-2.6-1.2c-1.2,0.1-1.5,0.9-1.8,1.7c-0.7-0.1-0.8-0.9-1.4-1.2
		c-0.6-0.4-2.3-1-2.8-0.2c-1.6-0.3-3.2-1-4.9-0.2c-0.8,0.4-1.9,1.2-1.8,2c-0.9-0.2-1.6-0.6-2.7-0.4c-0.8,0.2-1,0.6-1.6,0.9
		c-0.4,0.2-0.3,0.2-0.7,0.3c-0.8,0.3-1.5,0.9-2.3,0.7c-1.3-0.4-2-1.3-3.5-1.3c-1.5,0-2.5,1.5-4.1,1c-0.4-0.1-0.8-0.7-1.3-0.9
		c-0.5-0.2-0.7,0-1.2-0.1c-0.9-0.1-1.7-0.6-2.9-0.5c-1.9,0.1-3.7,2.1-5.7,1.5c-0.6-0.2-1-0.7-1.5-1c-0.8-0.5-1.5-0.8-2.5-0.9
		c-1.2-0.1-2.2,0.2-3.2,0.4c-1.8,0.3-3.9,1.1-4.6,2.6c-0.1,0.3-0.5,2,0,2.3H107V644.1z"/>
	<path class="st75" d="M103.7,646.7l-1.3-0.5c-0.1-0.4-0.6-0.9-1.1-1.1c-0.6-0.3-0.6-0.1-1.2-0.1c-0.2,0-0.2,0.1-0.4,0
		c-0.2-0.1-0.6-0.5-0.9-0.6c-0.9-0.3-2.3-0.6-3.2-0.4c-1,0.2-0.6,0.8-1.3,1.2c-1,0.6-2.7,0.4-3,1.7c-0.8-0.2-1.4-0.5-2.2-0.6
		c-1-0.1-1.8,0.2-2.5,0.7c-0.7,0.4-1.2,1.3-2.1,1c-0.3-0.1-0.3-0.3-0.7-0.3c-0.4,0-0.9,0.2-1.1,0.5c-0.3,0.3-0.2,0.7-0.5,1
		c-0.7-0.2-0.7-0.9-0.4-1.3c0.3-0.6,1-0.6,0.4-1.3c-0.3-0.3-0.9-0.6-1.4-0.5c-0.6,0.1-0.4,0.3-0.8,0.5c-1,0.7-2.7,0.4-3.4,1.5
		c-0.6-0.2-1.9-0.5-1.9-1.2c-0.7,0-0.8,0-1.3-0.3c-0.6-0.3-1-0.4-1.7-0.5c-1.2,0-2.4,0.5-3,1.2c-0.4,0.5-0.2,1.6-1.1,1.7
		c-1.1,0.1-1.3-1.5-0.5-1.7c-0.9-0.1-2.1,0.3-2.9-0.1c-0.8-0.5-0.7-1.3-1.9-1.4c-1.5-0.1-3.5-0.2-4.8,0.3c-1.8,0.7-3.2,2.7-2.4,4.3
		c5.4,0.2,10.9,0,16.4,0c5,0,10.1,0.1,15.1,0.3c5.9,0.3,11.9,0.7,17.8,0.4C104.4,649.6,103.9,648.1,103.7,646.7"/>
	<path class="st72" d="M172.7,645c0.3-0.4,1.2-0.9,1.6-1.1c0.7-0.4,1.7-0.8,2.5-0.5c0.9,0.3,1.4,1,2.3,0.8c1.4-0.3,2.2-0.6,3.5,0.2
		c0.4,0.2,0.7,0.5,1.2,0.2c0.6-0.3,0.9-0.7,1.5-0.8c0.9-0.2,1.6,0,2.5,0.2c0.4,0.1,1,0.2,1.3,0.4c0.4-1.1,1.4-0.9,2.2-1.4
		c0.2-0.1,0.1-0.2,0.3-0.4c0.6-0.7,1.2-1.1,2.1-1.3c1.7-0.3,4.5-0.1,4.8,2.1c0.4,0,0.8,0,1.2,0.1c0.5,0.1,0.9,0.1,1.4,0.3
		c0.2,0.1,0.5,0.4,0.7,0.4c0.5,0,1.1-0.6,1.7-0.7c0.2,0,0.5-0.1,0.7,0c0.2,0,0.4,0.2,0.5,0.2c0.5,0,1.1-0.5,1.7-0.5
		c0.7-0.1,1.3,0,2,0c0.8,0,1.5-0.1,2.2,0.5c0.4-0.5,1-0.8,1.6-0.9c0.2,0,0.7,0,0.9-0.1c0.3-0.1,0.1-0.1,0.4-0.3
		c0.7-0.6,3.2-1.4,3.9-0.5c0.4-0.9,1.3-1.2,2.3-1c0.4,0.1,0.9,0.3,1.2,0.5c0.2,0.2,0.4,0.4,0.5,0.6c0.8,0.6,1.8,0.7,2.4,1.6
		c0.4,0.6,0.8,1.7,0.4,2.3c0.6,0.6,1,2.8,0.4,3.6h-52.6C172.1,649.4,170.8,647.3,172.7,645"/>
	<path class="st73" d="M173.7,649.5c-0.3-0.9-1.8-1.9-0.6-2.9c0.2-0.2,0.5-0.2,0.7-0.4c0.2-0.2,0.3-0.6,0.4-0.8
		c0.4-0.5,1.5-1.2,2.1-1.2c0.5,0.1,0.7,0.5,1.1,0.7c1,0.6,1.6,0.2,2.4-0.2c1.7-0.8,1.7,0.1,3.1,0.6c0.4,0.2,1.2,0.4,1.7,0.2
		c0.3-0.1,0.4-0.6,0.7-0.8c1-0.7,2.4,0.3,3.4,0.4c0.9,0.1,0.6,0,1.4-0.5c0.3-0.2,0.7-0.1,1-0.3c0.5-0.3,0.6-1.2,1.1-1.6
		c0.6-0.4,1.7-0.4,2.5-0.4c1.6,0,2.2,0.1,2.3,1.9c0.6,0,1.2-0.2,1.8-0.2c0.4,0,0.8,0,1.2,0.2c0.1,0.1,0.1,0.4,0.2,0.5
		c1,0.6,1.6,0.2,2.5-0.2c1-0.4,2.2-0.1,3.3-0.4c0.9-0.3,1.6-0.9,2.7-0.5c0.7,0.3,1.1,1,2.1,0.7c0.3-0.1,0.6-0.7,1-0.8
		c0.7-0.3,1.5,0.5,2.2,0.2c0.9-0.4,1-1.5,2.1-1.5c0.5,0,0.9,0.3,1.3,0.3c0.6-0.1,1-0.6,1.6-0.6c0.7,0,1.1,0.1,1.7,0.5
		c0.5,0.3,0.7,1,1,1.3c0.1,0.1,0.5,0.1,0.6,0.2c0.8,0.8,0,1.6,0.4,2.6c0.2,0.5,0.6,0.5,0.8,0.9c0.3,0.6-0.1,1.7-0.6,2.1H173.7z"/>
	<path class="st72" d="M202.6,645.8c0.3,0.8,0.4,2.2-0.4,2.7c0-0.4,0.3-0.8,0.2-1.2c-0.1-0.3-0.3-0.5-0.4-0.7c0-0.2,0.1-0.4,0-0.6
		c-0.1-0.2-0.3-0.4-0.5-0.5c-0.3-0.2-0.4-0.4-0.7-0.6c-0.2-0.2-0.6-0.2-0.5-0.5l0-0.3C201.2,644.2,202.3,644.9,202.6,645.8"/>
	<path class="st72" d="M211.4,644.1c0.5,0.2,0.5,0.7,0.9,1.1c0.5,0.5,0,0.8,0.3,1.4c0.2,0.4,0.5,0.6,0.4,1c-0.1,0.4-0.6,0.9-1,1
		c0.2-0.3,0.3-0.6,0.2-1c-0.1-0.4-0.4-0.7-0.5-1.1c-0.1-0.4,0-0.8-0.2-1.2c-0.3-0.5-0.7-0.9-1.2-1.2
		C210.5,643.9,211.1,644,211.4,644.1"/>
	<path class="st72" d="M209.5,643.8c0.2,0,0.5,0.2,0.7,0.3c0,0-0.1,0-0.1,0.1L209.5,643.8z"/>
	<path class="st72" d="M188.4,645c0.2-0.1,0.7-0.3,0.8-0.1l0.9-0.3c-0.3,0.1-0.7,0.3-0.9,0.5c-0.1,0.1-0.1,0.3-0.2,0.4
		c-0.1,0.2-0.3,0.1-0.4,0.3c-0.1,0.2-0.1,0.3-0.1,0.6c0,0.3-0.1,0.6-0.1,0.9c0,0.3,0,0.3,0.2,0.6c0.2,0.3,0.3,0.5,0.5,0.8
		c-0.7,0.1-1-0.4-1.1-1c0-0.5-0.3-0.9-0.3-1.4C187.7,645.8,187.8,645.3,188.4,645"/>
	<path class="st75" d="M101.9,647l0.9-0.5c0.4-0.2,0.8,0,1.2,0.2c0.2-0.2,0.5-0.5,0.7-0.6c0,0,0.5-0.2,0.5-0.2
		c0.1-0.2-0.3-0.3-0.3-0.4c-0.1-0.5,0.4-0.5,0.7-0.4c0.8,0.1,1.4,0.7,1.6,1.4c0.5,0,1,0,1.4,0.3c0.2,0.2,0.4,0.4,0.5,0.7
		c0.1,0.2,0,0.4,0.1,0.5c0.3,0.7,1.4,0.6,2,0.5c0.1-0.4,0.6-0.9,0.9-1c0.7-0.2,1.6,0.5,2.2,0.9c0.2-0.8-0.8-1.4-1.2-1.8
		c0.4-0.2,1.5-0.1,1.9,0c0.7,0.2,1.2,0.6,1.6,1.1c0.4-0.1,1,0,1.4,0.2c0.2,0.1,0.3,0.3,0.5,0.4c0.3,0.2,0.8,0,1.1,0
		c0.6-0.1,1.2-0.2,1.8-0.2c0.4,0,4.8,0.8,4,1.7c-0.1,0.2-1.4-0.1-1.4-0.1c-0.8-0.1-1.6-0.2-2.4-0.3c-1.4-0.2-2.8-0.1-4.2-0.1
		c-1.8,0.1-3.5,0.1-5.3,0c-1.3,0-2.7-0.1-4,0.1c-1.8,0.3-3.6,0.5-5.4,0c-0.5-0.1-1.5-0.3-1.6-1C101.3,648.1,101.7,647.4,101.9,647"
		/>
</g>
<g>
	<defs>
		<rect id="SVGID_104_" x="1.2" y="648.7" width="524.3" height="81.6"/>
	</defs>
	<clipPath id="SVGID_105_">
		<use xlink:href="#SVGID_104_"  style="overflow:visible;"/>
	</clipPath>
	
		<linearGradient id="SVGID_106_" gradientUnits="userSpaceOnUse" x1="-35" y1="751.157" x2="-34" y2="751.157" gradientTransform="matrix(0 81 81 0 -60580.3945 3482.2673)">
		<stop  offset="0" style="stop-color:#98B86C"/>
		<stop  offset="1" style="stop-color:#77A742"/>
	</linearGradient>
	<rect x="1.2" y="648.7" class="st76" width="524.3" height="81.6"/>
</g>
<g>
	<defs>
		<rect id="SVGID_107_" x="-35" y="-90.7" width="595.3" height="841.9"/>
	</defs>
	<clipPath id="SVGID_108_">
		<use xlink:href="#SVGID_107_"  style="overflow:visible;"/>
	</clipPath>
	<path class="st77" d="M0.4,649.6c4.9-2,145.7,20.7,187.8,18.2c42.1-2.5,142.8-7.4,174.9-3.2c32.2,4.2,86.6,5.6,103.4,3.5
		c16.8-2.1,58.4-14,58.4-14v107.6H0.4V649.6z"/>
</g>
</svg>
