<?xml version="1.0" encoding="UTF-8" standalone="no"?>
<svg
   xmlns:dc="http://purl.org/dc/elements/1.1/"
   xmlns:cc="http://creativecommons.org/ns#"
   xmlns:rdf="http://www.w3.org/1999/02/22-rdf-syntax-ns#"
   xmlns:svg="http://www.w3.org/2000/svg"
   xmlns="http://www.w3.org/2000/svg"
   viewBox="0 0 493.14401 477.87292"
   height="477.87292"
   width="493.14401"
   xml:space="preserve"
   id="svg2"
   version="1.1"><title
     id="title1001">rule:fresh website design</title><metadata
     id="metadata8"><rdf:RDF><cc:Work
         rdf:about=""><dc:format>image/svg+xml</dc:format><dc:type
           rdf:resource="http://purl.org/dc/dcmitype/StillImage" /><dc:title>rule:fresh website design</dc:title><dc:date>14/06/18</dc:date><dc:creator><cc:Agent><dc:title>rule:fresh</dc:title></cc:Agent></dc:creator><dc:rights><cc:Agent><dc:title>rule:fresh</dc:title></cc:Agent></dc:rights><dc:publisher><cc:Agent><dc:title>rule:fresh</dc:title></cc:Agent></dc:publisher><dc:subject><rdf:Bag><rdf:li>rule:fresh</rdf:li><rdf:li>rulefresh</rdf:li><rdf:li>rf</rdf:li><rdf:li>web design</rdf:li><rdf:li>website design</rdf:li></rdf:Bag></dc:subject><dc:description>website design by rule:fresh
www.rulefresh.com</dc:description></cc:Work></rdf:RDF></metadata><defs
     id="defs6"><clipPath
       id="clipPath72"
       clipPathUnits="userSpaceOnUse"><path
         id="path70"
         d="M 0,400 H 600 V 0 H 0 Z" /></clipPath></defs><g
     transform="matrix(1.3333333,0,0,-1.3333333,-153.42799,505.6028)"
     id="g10"><g
       transform="translate(214.8457,337.3345)"
       id="g14"><path
         id="path16"
         style="fill:none;stroke:#ffffff;stroke-width:5;stroke-linecap:round;stroke-linejoin:round;stroke-miterlimit:10;stroke-dasharray:none;stroke-opacity:1"
         d="M 0,0 -13.998,23.56" /></g><g
       transform="translate(143.4316,212.0591)"
       id="g18"><path
         id="path20"
         style="fill:none;stroke:#ffffff;stroke-width:5;stroke-linecap:round;stroke-linejoin:round;stroke-miterlimit:10;stroke-dasharray:none;stroke-opacity:1"
         d="M 0,0 H -25.825" /></g><g
       transform="translate(300.4219,49.667)"
       id="g22"><path
         id="path24"
         style="fill:none;stroke:#ffffff;stroke-width:5;stroke-linecap:round;stroke-linejoin:round;stroke-miterlimit:10;stroke-dasharray:none;stroke-opacity:1"
         d="M 0,0 V -26.334" /></g><g
       transform="translate(215.5107,86.7842)"
       id="g26"><path
         id="path28"
         style="fill:none;stroke:#ffffff;stroke-width:5;stroke-linecap:round;stroke-linejoin:round;stroke-miterlimit:10;stroke-dasharray:none;stroke-opacity:1"
         d="M 0,0 -13.999,-23.561" /></g><g
       transform="translate(150.8145,132.9268)"
       id="g30"><path
         id="path32"
         style="fill:none;stroke:#ffffff;stroke-width:5;stroke-linecap:round;stroke-linejoin:round;stroke-miterlimit:10;stroke-dasharray:none;stroke-opacity:1"
         d="M 0,0 -29.549,-13.962" /></g><g
       transform="translate(300.1621,344.2275)"
       id="g34"><path
         id="path36"
         style="fill:none;stroke:#ffffff;stroke-width:5;stroke-linecap:round;stroke-linejoin:round;stroke-miterlimit:10;stroke-dasharray:none;stroke-opacity:1"
         d="M 0,0 V 32.439" /></g><g
       transform="translate(150.5547,291.1914)"
       id="g38"><path
         id="path40"
         style="fill:none;stroke:#ffffff;stroke-width:5;stroke-linecap:round;stroke-linejoin:round;stroke-miterlimit:10;stroke-dasharray:none;stroke-opacity:1"
         d="M 0,0 -29.276,13.833" /></g><g
       transform="translate(385.1533,337.3345)"
       id="g42"><path
         id="path44"
         style="fill:none;stroke:#ffffff;stroke-width:5;stroke-linecap:round;stroke-linejoin:round;stroke-miterlimit:10;stroke-dasharray:none;stroke-opacity:1"
         d="M 0,0 13.999,23.56" /></g><g
       transform="translate(456.5674,212.0591)"
       id="g46"><path
         id="path48"
         style="fill:none;stroke:#ffffff;stroke-width:5;stroke-linecap:round;stroke-linejoin:round;stroke-miterlimit:10;stroke-dasharray:none;stroke-opacity:1"
         d="M 0,0 H 25.826" /></g><g
       transform="translate(384.4883,86.7842)"
       id="g50"><path
         id="path52"
         style="fill:none;stroke:#ffffff;stroke-width:5;stroke-linecap:round;stroke-linejoin:round;stroke-miterlimit:10;stroke-dasharray:none;stroke-opacity:1"
         d="M 0,0 13.999,-23.561" /></g><g
       transform="translate(449.1846,132.9268)"
       id="g54"><path
         id="path56"
         style="fill:none;stroke:#ffffff;stroke-width:5;stroke-linecap:round;stroke-linejoin:round;stroke-miterlimit:10;stroke-dasharray:none;stroke-opacity:1"
         d="M 0,0 30.502,-14.411" /></g><g
       transform="translate(155.7832,161.748)"
       id="g58"><path
         id="path60"
         style="fill:none;stroke:#ffffff;stroke-width:5;stroke-linecap:round;stroke-linejoin:round;stroke-miterlimit:10;stroke-dasharray:none;stroke-opacity:1"
         d="M 0,0 -0.234,26.33 11.052,22.82 11.226,3.285 Z" /></g><g
       transform="translate(248.7578,74.333)"
       id="g62"><path
         id="path64"
         style="fill:none;stroke:#ffffff;stroke-width:6;stroke-linecap:round;stroke-linejoin:round;stroke-miterlimit:10;stroke-dasharray:none;stroke-opacity:1"
         d="M 0,0 H 102" /></g><g
       id="g66"><g
         clip-path="url(#clipPath72)"
         id="g68"><g
           transform="translate(426.7578,214.9478)"
           id="g74"><path
             id="path76"
             style="fill:none;stroke:#ffffff;stroke-width:6;stroke-linecap:round;stroke-linejoin:round;stroke-miterlimit:10;stroke-dasharray:none;stroke-opacity:1"
             d="m 0,0 v -81.948 c 0,-6.627 -2,-16 -16,-16 h -221 c -12.5,0 -16,9.373 -16,16 v 20.386" /></g><g
           transform="translate(173.7578,197.333)"
           id="g78"><path
             id="path80"
             style="fill:none;stroke:#ffffff;stroke-width:6;stroke-linecap:round;stroke-linejoin:round;stroke-miterlimit:10;stroke-dasharray:none;stroke-opacity:1"
             d="m 0,0 v 100.667 c 0,6.627 1,16 16,16 h 221 c 13.75,0 16,-9.373 16,-16 V 80.614" /></g><g
           transform="translate(278.2578,117)"
           id="g82"><path
             id="path84"
             style="fill:none;stroke:#ffffff;stroke-width:5;stroke-linecap:round;stroke-linejoin:round;stroke-miterlimit:10;stroke-dasharray:none;stroke-opacity:1"
             d="M 0,0 V -13.25 C 0,-26.083 -14.084,-31.833 -29.5,-31.833" /></g><g
           transform="translate(321.2578,117)"
           id="g86"><path
             id="path88"
             style="fill:none;stroke:#ffffff;stroke-width:5;stroke-linecap:round;stroke-linejoin:round;stroke-miterlimit:10;stroke-dasharray:none;stroke-opacity:1"
             d="M 0,0 V -13.25 C 0,-26.083 14.084,-31.833 29.5,-31.833" /></g><g
           transform="translate(167.0029,165.7178)"
           id="g90"><path
             id="path92"
             style="fill:none;stroke:#ffffff;stroke-width:4;stroke-linecap:round;stroke-linejoin:round;stroke-miterlimit:10;stroke-dasharray:none;stroke-opacity:1"
             d="M 0,0 C 0,0 12.427,-0.473 20.159,-10.332 L 53.763,7.741 53.728,11.697 19.807,29.375 C 12.25,19.379 -0.16,18.075 -0.16,18.075" /></g><g
           transform="translate(183.7598,179.7764)"
           id="g94"><path
             id="path96"
             style="fill:none;stroke:#ffffff;stroke-width:4;stroke-linecap:round;stroke-linejoin:round;stroke-miterlimit:10;stroke-dasharray:none;stroke-opacity:1"
             d="M 0,0 C 2.522,0.022 4.585,-2.003 4.606,-4.525 4.629,-7.047 2.604,-9.108 0.082,-9.131 -2.44,-9.153 -4.502,-7.128 -4.523,-4.605 -4.547,-2.084 -2.521,-0.021 0,0 Z" /></g><g
           transform="translate(188.2988,175.2031)"
           id="g98"><path
             id="path100"
             style="fill:none;stroke:#ffffff;stroke-width:4;stroke-linecap:round;stroke-linejoin:round;stroke-miterlimit:10;stroke-dasharray:none;stroke-opacity:1"
             d="M 0,0 32.381,0.288" /></g><g
           transform="translate(394.7393,201.1221)"
           id="g102"><path
             id="path104"
             style="fill:none;stroke:#ffffff;stroke-width:5;stroke-linecap:round;stroke-linejoin:round;stroke-miterlimit:10;stroke-dasharray:none;stroke-opacity:1"
             d="m 0,0 c 0,0 4.004,7.507 17.031,31.01 8.387,15.129 22.865,41.492 37.305,63.911 3.719,5.772 9.481,12.993 14.685,16.883 5.62,4.201 11.181,0.6 9.965,-6.302 C 77.843,99.021 73.612,90.837 69.973,85.006 55.855,62.381 38.188,38.042 28.08,24.005 12.38,2.197 7.296,-4.626 7.296,-4.626" /></g><g
           transform="translate(398.5654,198.6123)"
           id="g106"><path
             id="path108"
             style="fill:none;stroke:#ffffff;stroke-width:4;stroke-linecap:round;stroke-linejoin:round;stroke-miterlimit:10;stroke-dasharray:none;stroke-opacity:1"
             d="m 0,0 c -2.64,2.329 -5.102,2.794 -10.911,1.064 -7.326,-2.18 -11.178,-7.185 -15.17,-17.697 -3.521,-9.271 -8.205,-9.58 -14.06,-10.823 0,0 7.278,-2.802 17.83,-2.571 C -2.085,-29.585 9.048,-7.983 0,0 Z" /></g><g
           transform="translate(174.8335,141.334)"
           id="g110"><path
             id="path112"
             style="fill:none;stroke:#ffffff;stroke-width:6;stroke-linecap:round;stroke-linejoin:round;stroke-miterlimit:10;stroke-dasharray:none;stroke-opacity:1"
             d="M 0,0 H 251.577" /></g><g
           transform="translate(411.0918,194.3867)"
           id="g114"><path
             id="path116"
             style="fill:none;stroke:#ffffff;stroke-width:4;stroke-linecap:round;stroke-linejoin:round;stroke-miterlimit:10;stroke-dasharray:none;stroke-opacity:1"
             d="m 0,0 v -37.22 h -162.834 c -17.666,0 -22.593,1.5 -22.593,9.94" /></g><g
           transform="translate(189.2363,203.6719)"
           id="g118"><path
             id="path120"
             style="fill:none;stroke:#ffffff;stroke-width:4;stroke-linecap:round;stroke-linejoin:round;stroke-miterlimit:10;stroke-dasharray:none;stroke-opacity:1"
             d="M 0,0 V 94.329 H 221.855 V 43.943" /></g><g
           transform="translate(223.5918,182.4346)"
           id="g122"><path
             id="path124"
             style="fill:none;stroke:#ffffff;stroke-width:4;stroke-linecap:round;stroke-linejoin:round;stroke-miterlimit:10;stroke-dasharray:none;stroke-opacity:1"
             d="M 0,0 H 9.193 V -14.462 H 0" /></g><path
           id="path126"
           style="fill:none;stroke:#ffffff;stroke-width:4;stroke-linecap:round;stroke-linejoin:round;stroke-miterlimit:10;stroke-dasharray:none;stroke-opacity:1"
           d="m 241.73,255.5 h 14.277 v 14.277 H 241.73 Z" /><g
           transform="translate(241.7305,262.6387)"
           id="g128"><path
             id="path130"
             style="fill:none;stroke:#ffffff;stroke-width:4;stroke-linecap:round;stroke-linejoin:round;stroke-miterlimit:10;stroke-dasharray:none;stroke-opacity:1"
             d="M 0,0 C -12.723,-0.129 -16.065,-14.295 -16.065,-27.795 V -79.534" /></g><g
           transform="translate(207.6016,251.0264)"
           id="g132"><path
             id="path134"
             style="fill:none;stroke:#ffffff;stroke-width:4;stroke-linecap:round;stroke-linejoin:round;stroke-miterlimit:10;stroke-dasharray:none;stroke-opacity:1"
             d="M 0,0 18.063,-66.593" /></g><g
           transform="translate(209.2539,254.1943)"
           id="g136"><path
             id="path138"
             style="fill:#ffffff;fill-opacity:1;fill-rule:nonzero;stroke:none"
             d="m 0,0 c 0.38,-1.399 -0.447,-2.841 -1.847,-3.221 -1.398,-0.379 -2.84,0.448 -3.219,1.846 -0.38,1.4 0.446,2.841 1.845,3.221 C -1.821,2.226 -0.379,1.399 0,0" /></g><g
           transform="translate(209.2539,254.1943)"
           id="g140"><path
             id="path142"
             style="fill:none;stroke:#ffffff;stroke-width:4;stroke-linecap:round;stroke-linejoin:round;stroke-miterlimit:10;stroke-dasharray:none;stroke-opacity:1"
             d="m 0,0 c 0.38,-1.399 -0.447,-2.841 -1.847,-3.221 -1.398,-0.379 -2.84,0.448 -3.219,1.846 -0.38,1.4 0.446,2.841 1.845,3.221 C -1.821,2.226 -0.379,1.399 0,0 Z" /></g><g
           transform="translate(190.4248,280.167)"
           id="g144"><path
             id="path146"
             style="fill:none;stroke:#ffffff;stroke-width:4;stroke-linecap:round;stroke-linejoin:round;stroke-miterlimit:10;stroke-dasharray:none;stroke-opacity:1"
             d="M 0,0 H 219.333" /></g><g
           transform="translate(400.7578,289.3335)"
           id="g148"><path
             id="path150"
             style="fill:none;stroke:#ffffff;stroke-width:4;stroke-linecap:round;stroke-linejoin:round;stroke-miterlimit:10;stroke-dasharray:none;stroke-opacity:1"
             d="m 0,0 c 0,-1.013 -0.821,-1.833 -1.834,-1.833 -1.012,0 -1.833,0.82 -1.833,1.833 0,1.013 0.821,1.833 1.833,1.833 C -0.821,1.833 0,1.013 0,0 Z" /></g><g
           transform="translate(387.8994,289.3335)"
           id="g152"><path
             id="path154"
             style="fill:none;stroke:#ffffff;stroke-width:4;stroke-linecap:round;stroke-linejoin:round;stroke-miterlimit:10;stroke-dasharray:none;stroke-opacity:1"
             d="m 0,0 c 0,-1.013 -0.821,-1.833 -1.834,-1.833 -1.012,0 -1.833,0.82 -1.833,1.833 0,1.013 0.821,1.833 1.833,1.833 C -0.821,1.833 0,1.013 0,0 Z" /></g><g
           transform="translate(375.041,289.3335)"
           id="g156"><path
             id="path158"
             style="fill:none;stroke:#ffffff;stroke-width:4;stroke-linecap:round;stroke-linejoin:round;stroke-miterlimit:10;stroke-dasharray:none;stroke-opacity:1"
             d="m 0,0 c 0,-1.013 -0.821,-1.833 -1.834,-1.833 -1.012,0 -1.833,0.82 -1.833,1.833 0,1.013 0.821,1.833 1.833,1.833 C -0.821,1.833 0,1.013 0,0 Z" /></g><g
           transform="translate(265.0918,264.335)"
           id="g160"><path
             id="path162"
             style="fill:none;stroke:#ffffff;stroke-width:5;stroke-linecap:round;stroke-linejoin:round;stroke-miterlimit:10;stroke-dasharray:none;stroke-opacity:1"
             d="M 0,0 H 123.666 V -30.668 H -29.667" /></g><g
           transform="translate(350.7578,167.9727)"
           id="g164"><path
             id="path166"
             style="fill:none;stroke:#ffffff;stroke-width:5;stroke-linecap:round;stroke-linejoin:round;stroke-miterlimit:10;stroke-dasharray:none;stroke-opacity:1"
             d="M 0,0 H -18.333 V 49.417 H 37 v -8.331" /></g><g
           transform="translate(313.7578,217.3892)"
           id="g168"><path
             id="path170"
             style="fill:none;stroke:#ffffff;stroke-width:3.5;stroke-linecap:round;stroke-linejoin:round;stroke-miterlimit:10;stroke-dasharray:none;stroke-opacity:1"
             d="M 0,0 H -68" /></g><g
           transform="translate(313.7578,205.792)"
           id="g172"><path
             id="path174"
             style="fill:none;stroke:#ffffff;stroke-width:3.5;stroke-linecap:round;stroke-linejoin:round;stroke-miterlimit:10;stroke-dasharray:none;stroke-opacity:1"
             d="M 0,0 H -68" /></g><g
           transform="translate(313.7578,194.1943)"
           id="g176"><path
             id="path178"
             style="fill:none;stroke:#ffffff;stroke-width:3.5;stroke-linecap:round;stroke-linejoin:round;stroke-miterlimit:10;stroke-dasharray:none;stroke-opacity:1"
             d="M 0,0 H -68" /></g><g
           transform="translate(313.7578,182.4346)"
           id="g180"><path
             id="path182"
             style="fill:none;stroke:#ffffff;stroke-width:3.5;stroke-linecap:round;stroke-linejoin:round;stroke-miterlimit:10;stroke-dasharray:none;stroke-opacity:1"
             d="M 0,0 H -68" /></g><g
           transform="translate(313.7578,170.8369)"
           id="g184"><path
             id="path186"
             style="fill:none;stroke:#ffffff;stroke-width:3.5;stroke-linecap:round;stroke-linejoin:round;stroke-miterlimit:10;stroke-dasharray:none;stroke-opacity:1"
             d="M 0,0 H -68" /></g><g
           transform="translate(456.1025,285.124)"
           id="g188"><path
             id="path190"
             style="fill:none;stroke:#ffffff;stroke-width:3;stroke-linecap:round;stroke-linejoin:round;stroke-miterlimit:10;stroke-dasharray:none;stroke-opacity:1"
             d="M 0,0 C 2.474,3.415 3.668,5.525 5.406,8.51" /></g><g
           transform="translate(466.332,303.6138)"
           id="g192"><path
             id="path194"
             style="fill:none;stroke:#ffffff;stroke-width:3;stroke-linecap:round;stroke-linejoin:round;stroke-miterlimit:10;stroke-dasharray:none;stroke-opacity:1"
             d="M 0,0 C 0,0 -0.458,-1.661 -1.578,-3.708" /></g></g></g></g></svg>