<?xml version="1.0" encoding="utf-8"?>
<!-- Generator: Adobe Illustrator 19.0.0, SVG Export Plug-In . SVG Version: 6.00 Build 0)  -->
<svg 
	version="1.1"
	id="Layer_1"
	xmlns="http://www.w3.org/2000/svg"
	xmlns:xlink="http://www.w3.org/1999/xlink"
	x="0px"
	y="0px"
	height="500"
	width="716"
	viewBox="0 0 560 390.421"
	enable-background="new 0 0 560 390.421"
	xml:space="preserve">
<g>
	
		<path id="XMLID_48_" fill="none" stroke="#FFFFFF" stroke-width="6" stroke-linecap="round" stroke-linejoin="round" stroke-miterlimit="10" d="
		M447.134,358.206v19.497c0,9.464,0.895,8.569-8.569,8.569H267.194c-9.465,0-8.569,0.895-8.569-8.569V155.871
		c0-9.465-0.896-8.569,8.569-8.569h171.371c9.464,0,8.569-0.896,8.569,8.569v106.633"/>
	
		<path id="XMLID_47_" fill="none" stroke="#FFFFFF" stroke-width="6" stroke-linecap="round" stroke-linejoin="round" stroke-miterlimit="10" d="
		M265.171,147.279l158.4-21.376c7.974-1.094,8.569-0.896,8.569,8.569v9.974"/>
	
		<line id="XMLID_46_" fill="none" stroke="#FFFFFF" stroke-width="6" stroke-linecap="round" stroke-linejoin="round" stroke-miterlimit="10" x1="261.244" y1="183.005" x2="444.755" y2="183.005"/>
	
		<line id="XMLID_45_" fill="none" stroke="#FFFFFF" stroke-width="6" stroke-linecap="round" stroke-linejoin="round" stroke-miterlimit="10" x1="263.647" y1="350.592" x2="410.481" y2="350.592"/>
	
		<polygon id="XMLID_44_" fill="none" stroke="#FFFFFF" stroke-width="5" stroke-linecap="round" stroke-linejoin="round" stroke-miterlimit="10" points="
		298.401,290.589 335.294,232.037 372.187,290.589 	"/>
	
		<polyline id="XMLID_43_" fill="none" stroke="#FFFFFF" stroke-width="5" stroke-linecap="round" stroke-linejoin="round" stroke-miterlimit="10" points="
		359.008,268.707 376.416,241.08 407.597,290.564 372.187,290.564 	"/>
	
		<polygon id="XMLID_42_" fill="none" stroke="#FFFFFF" stroke-width="3" stroke-linecap="round" stroke-linejoin="round" stroke-miterlimit="10" points="
		142.639,365.076 156.694,342.771 170.748,365.076 	"/>
	
		<polyline id="XMLID_41_" fill="none" stroke="#FFFFFF" stroke-width="3" stroke-linecap="round" stroke-linejoin="round" stroke-miterlimit="10" points="
		165.727,356.739 172.358,346.216 184.237,365.065 170.747,365.065 	"/>
	
		<rect id="XMLID_40_" x="129.144" y="321.553" fill="none" stroke="#FFFFFF" stroke-width="5" stroke-linecap="round" stroke-linejoin="round" stroke-miterlimit="10" width="107.822" height="64.742"/>
	
		<line id="XMLID_39_" fill="none" stroke="#FFFFFF" stroke-width="3" stroke-linecap="round" stroke-linejoin="round" stroke-miterlimit="10" x1="195.551" y1="341.591" x2="223.637" y2="341.591"/>
	
		<line id="XMLID_38_" fill="none" stroke="#FFFFFF" stroke-width="3" stroke-linecap="round" stroke-linejoin="round" stroke-miterlimit="10" x1="195.551" y1="353.922" x2="223.637" y2="353.922"/>
	
		<line id="XMLID_37_" fill="none" stroke="#FFFFFF" stroke-width="3" stroke-linecap="round" stroke-linejoin="round" stroke-miterlimit="10" x1="195.551" y1="366.253" x2="223.637" y2="366.253"/>
	
		<path id="XMLID_36_" fill="none" stroke="#FFFFFF" stroke-width="4" stroke-linecap="round" stroke-linejoin="round" stroke-miterlimit="10" d="
		M86.315,179.582c-1.701-7.799-15.137-16.447-25.286-21.763c-10.833-5.672-26.092-14.886-38.279-26.701
		c-6.781-6.573-14.013-17.613-17.316-23.088c-7.044-11.677-1.677-18.753,11.068-14.103c6.528,2.381,21.505,8.826,29.336,14.103
		c14.743,9.934,23.818,19.742,31.748,29.052c7.43,8.719,18.835,19.907,26.823,19.841c10.55-0.09,28.5-10.532,39.102-2.066
		c10.609,8.467,61.263,49.513,61.263,49.513c3.005,3.322-2.145,10.133-12.599,15.201c-3.331,1.618-3.79,14.097-9.133,19.302
		c-5.342,5.21-10.672,5.754-13.366,9.129c-2.696,3.372-3.938,14.476-9.41,17.135c-6.335,3.079-10.386-0.912-10.386-0.912
		s-46.319-37.582-56.923-46.049C82.354,209.703,88.566,189.888,86.315,179.582"/>
	
		<path id="XMLID_35_" fill="none" stroke="#FFFFFF" stroke-width="4" stroke-linecap="round" stroke-linejoin="round" stroke-miterlimit="10" d="
		M184.668,189.354c0,0,0.986,11.167-5.855,15.328c-6.815,4.148-11.02,0.135-16.363,5.344c-5.343,5.205,1.729,14.644-3.667,20.619
		c-4.161,4.608-14.21,4.189-18.014,7.852c-5.679,5.464-3.279,15.678-3.279,15.678"/>
	
		<line id="XMLID_34_" fill="none" stroke="#FFFFFF" stroke-width="4" stroke-linecap="round" stroke-linejoin="round" stroke-miterlimit="10" x1="158.317" y1="167.703" x2="109.757" y2="228.52"/>
	
		<line id="XMLID_33_" fill="none" stroke="#FFFFFF" stroke-width="4" stroke-linecap="round" stroke-linejoin="round" stroke-miterlimit="10" x1="143.245" y1="158.272" x2="94.684" y2="219.089"/>
	
		<path id="XMLID_32_" fill="none" stroke="#FFFFFF" stroke-width="5" stroke-linecap="round" stroke-linejoin="round" stroke-miterlimit="10" d="
		M207.333,226.082c27.491,13.69,42.129,10.119,51.27,2.438"/>
	
		<path id="XMLID_31_" fill="none" stroke="#FFFFFF" stroke-width="5" stroke-linecap="round" stroke-linejoin="round" stroke-miterlimit="10" d="
		M181.627,266.3c0,0,16.655,12.713,32.846,21.313c10.469,5.562,19.871,8.859,29.819,10.061"/>
	
		<path id="XMLID_30_" fill="none" stroke="#FFFFFF" stroke-width="5" stroke-linecap="round" stroke-linejoin="round" stroke-miterlimit="10" d="
		M430.287,110.35c5.18-5.413,10.836-12.114,14.468-18.744c8.212-14.995,10.711-32.132,24.635-34.274
		c13.924-2.142,5.355,16.78,18.565,12.139c13.21-4.641,22.136-32.489,28.562-35.346s2.142,26.42,7.855,27.491
		s17.042-8.926,13.341,10.711s-8.878,28.562-6.379,30.526c2.499,1.964,9.283,4.106,1.785,17.673
		c-7.498,13.567-26.955,43.2-38.737,56.41c-9.997,11.207-22.049,19.332-29.834,23.935"/>
	
		<path id="XMLID_29_" fill="none" stroke="#FFFFFF" stroke-width="5" stroke-linecap="round" stroke-linejoin="round" stroke-miterlimit="10" d="
		M244.369,167.158c-62.205-10.279-91.863-63.409-91.863-63.409c16.823-22.631,49.643-62.735,113.006-62.735
		c62.506,0,95.965,39.265,113.911,62.723c0,0-4.452,6.925-12.951,16.259"/>
	
		<path id="XMLID_28_" fill="none" stroke="#FFFFFF" stroke-width="5" stroke-linecap="round" stroke-linejoin="round" stroke-miterlimit="10" d="
		M244.361,147.612c-15.072-7.688-25.39-23.358-25.39-41.436c0-25.673,20.812-46.487,46.487-46.487
		c25.674,0,46.484,20.814,46.484,46.487c0,8.157-2.1,15.824-5.791,22.488"/>
	
		<circle id="XMLID_27_" fill="none" stroke="#FFFFFF" stroke-width="4" stroke-linecap="round" stroke-linejoin="round" stroke-miterlimit="10" cx="264.974" cy="106.122" r="21.612"/>
	
		<line id="XMLID_26_" fill="none" stroke="#FFFFFF" stroke-width="3.5" stroke-linecap="round" stroke-linejoin="round" stroke-miterlimit="10" x1="196.34" y1="38.741" x2="181.481" y2="20.298"/>
	
		<line id="XMLID_25_" fill="none" stroke="#FFFFFF" stroke-width="3.5" stroke-linecap="round" stroke-linejoin="round" stroke-miterlimit="10" x1="327.573" y1="35.864" x2="341.423" y2="18.399"/>
	
		<line id="XMLID_24_" fill="none" stroke="#FFFFFF" stroke-width="3.5" stroke-linecap="round" stroke-linejoin="round" stroke-miterlimit="10" x1="383.947" y1="79.004" x2="401.446" y2="65.9"/>
	
		<line id="XMLID_23_" fill="none" stroke="#FFFFFF" stroke-width="3.5" stroke-linecap="round" stroke-linejoin="round" stroke-miterlimit="10" x1="146.434" y1="79.004" x2="126.825" y2="66.032"/>
	
		<line id="XMLID_22_" fill="none" stroke="#FFFFFF" stroke-width="3" stroke-linecap="round" stroke-linejoin="round" stroke-miterlimit="10" x1="168.257" y1="57.359" x2="162.214" y2="51.781"/>
	
		<line id="XMLID_21_" fill="none" stroke="#FFFFFF" stroke-width="3" stroke-linecap="round" stroke-linejoin="round" stroke-miterlimit="10" x1="229.925" y1="26.597" x2="226.565" y2="19.399"/>
	
		<line id="XMLID_20_" fill="none" stroke="#FFFFFF" stroke-width="3" stroke-linecap="round" stroke-linejoin="round" stroke-miterlimit="10" x1="358.651" y1="55.715" x2="365.013" y2="49.84"/>
	
		<line id="XMLID_19_" fill="none" stroke="#FFFFFF" stroke-width="3" stroke-linecap="round" stroke-linejoin="round" stroke-miterlimit="10" x1="296.161" y1="25.715" x2="299.7" y2="18.134"/>
	
		<line id="XMLID_18_" fill="none" stroke="#FFFFFF" stroke-width="3.5" stroke-linecap="round" stroke-linejoin="round" stroke-miterlimit="10" x1="265.456" y1="18.399" x2="265.456" y2="0"/>
	
		<path id="XMLID_17_" fill="none" stroke="#FFFFFF" stroke-width="5" stroke-linecap="round" stroke-linejoin="round" stroke-miterlimit="10" d="
		M554.443,221.36c-8.677,11.38-86.18,113.054-86.18,113.054l-41.789,15.14l4.945-43.225c0,0,77.505-101.669,86.183-113.054
		c7.171-9.407,16.945-13.704,31.167-2.866C563.639,201.745,561.79,211.713,554.443,221.36z"/>
	
		<path id="XMLID_16_" fill="none" stroke="#FFFFFF" stroke-width="6" stroke-linecap="round" stroke-linejoin="round" stroke-miterlimit="10" d="
		M512.752,202.186c5.654,1.49,22.688,6.524,34.944,25.686"/>
	
		<line id="XMLID_15_" fill="none" stroke="#FFFFFF" stroke-width="4" stroke-linecap="round" stroke-linejoin="round" stroke-miterlimit="10" x1="532.413" y1="212.047" x2="455.145" y2="313.411"/>
	
		<path id="XMLID_14_" fill="none" stroke="#FFFFFF" stroke-width="4" stroke-linecap="round" stroke-linejoin="round" stroke-miterlimit="10" d="
		M431.42,306.329c0,0,20.758-11.143,20.172,11.748c0,0,21.695-9.765,17.611,15.104"/>
	
		<path id="XMLID_13_" fill="none" stroke="#FFFFFF" stroke-width="5" stroke-linecap="round" stroke-linejoin="round" stroke-miterlimit="10" d="
		M436.644,341.903c0-6.187-6.005-4.583-6.005-4.583l0.781,6.468L436.644,341.903z"/>
	
		<line id="XMLID_12_" fill="none" stroke="#FFFFFF" stroke-width="4" stroke-linecap="round" stroke-linejoin="round" stroke-miterlimit="10" x1="126.718" y1="226.082" x2="141.356" y2="238.001"/>
	
		<line id="XMLID_11_" fill="none" stroke="#FFFFFF" stroke-width="4" stroke-linecap="round" stroke-linejoin="round" stroke-miterlimit="10" x1="141.356" y1="214.894" x2="152.037" y2="223.287"/>
	
		<line id="XMLID_10_" fill="none" stroke="#FFFFFF" stroke-width="4" stroke-linecap="round" stroke-linejoin="round" stroke-miterlimit="10" x1="148.211" y1="199.59" x2="150.836" y2="201.671"/>
	
		<line id="XMLID_9_" fill="none" stroke="#FFFFFF" stroke-width="4" stroke-linecap="round" stroke-linejoin="round" stroke-miterlimit="10" x1="157.816" y1="206.94" x2="160.442" y2="209.021"/>
	
		<line id="XMLID_8_" fill="none" stroke="#FFFFFF" stroke-width="4" stroke-linecap="round" stroke-linejoin="round" stroke-miterlimit="10" x1="157.816" y1="184.861" x2="173.247" y2="196.607"/>
	
		<path id="XMLID_7_" fill="none" stroke="#FFFFFF" stroke-width="4" stroke-linecap="round" stroke-linejoin="round" stroke-miterlimit="10" d="
		M456.021,116.122c0,0-4.979,7.259-9.958,10.358"/>
	
		<path id="XMLID_6_" fill="none" stroke="#FFFFFF" stroke-width="4" stroke-linecap="round" stroke-linejoin="round" stroke-miterlimit="10" d="
		M517.245,99.173c0,0-2.058,4.125-4.12,6.714"/>
	
		<path id="XMLID_5_" fill="none" stroke="#FFFFFF" stroke-width="4" stroke-linecap="round" stroke-linejoin="round" stroke-miterlimit="10" d="
		M504.147,118.693c0,0-20.596,32.299-36.007,45.033"/>
	
		<path id="XMLID_4_" fill="none" stroke="#FFFFFF" stroke-width="4" stroke-linecap="round" stroke-linejoin="round" stroke-miterlimit="10" d="
		M469.27,128.243c0,0,17.257-17.119,25.87-37.367"/>
	
		<path id="XMLID_3_" fill="none" stroke="#FFFFFF" stroke-width="4" stroke-linecap="round" stroke-linejoin="round" stroke-miterlimit="10" d="
		M192.933,254.577c0,0,4.581,3.869,12.691,6.279"/>
	
		<path id="XMLID_2_" fill="none" stroke="#FFFFFF" stroke-width="4" stroke-linecap="round" stroke-linejoin="round" stroke-miterlimit="10" d="
		M212.51,245.93c0,0,14.221,7.701,29.455,6.747"/>
	
		<path id="XMLID_1_" fill="none" stroke="#FFFFFF" stroke-width="4" stroke-linecap="round" stroke-linejoin="round" stroke-miterlimit="10" d="
		M232.967,276.618c0,0,6.987,1.76,11.324,1.286"/>
</g>
</svg>
