<?xml version="1.0" encoding="UTF-8" standalone="no"?>
<!-- Created with Inkscape (http://www.inkscape.org/) -->

<svg
   xmlns:dc="http://purl.org/dc/elements/1.1/"
   xmlns:cc="http://creativecommons.org/ns#"
   xmlns:rdf="http://www.w3.org/1999/02/22-rdf-syntax-ns#"
   xmlns:svg="http://www.w3.org/2000/svg"
   xmlns="http://www.w3.org/2000/svg"
   xmlns:sodipodi="http://sodipodi.sourceforge.net/DTD/sodipodi-0.dtd"
   xmlns:inkscape="http://www.inkscape.org/namespaces/inkscape"
   width="163.49306mm"
   height="90.966202mm"
   viewBox="0 0 163.49306 90.966202"
   version="1.1"
   id="svg1787"
   inkscape:version="0.92.3 (2405546, 2018-03-11)"
   sodipodi:docname="rf communication.svg">
  <title
     id="title2436">rule:fresh communication</title>
  <defs
     id="defs1781" />
  <sodipodi:namedview
     id="base"
     pagecolor="#ffffff"
     bordercolor="#666666"
     borderopacity="1.0"
     inkscape:pageopacity="0.0"
     inkscape:pageshadow="2"
     inkscape:zoom="0.35"
     inkscape:cx="946.10612"
     inkscape:cy="-256.66681"
     inkscape:document-units="mm"
     inkscape:current-layer="layer1"
     showgrid="false"
     fit-margin-top="0"
     fit-margin-left="0"
     fit-margin-right="0"
     fit-margin-bottom="0"
     inkscape:pagecheckerboard="true"
     borderlayer="true" />
  <metadata
     id="metadata1784">
    <rdf:RDF>
      <cc:Work
         rdf:about="">
        <dc:format>image/svg+xml</dc:format>
        <dc:type
           rdf:resource="http://purl.org/dc/dcmitype/StillImage" />
        <dc:title>rule:fresh communication</dc:title>
        <dc:date>14/06/18</dc:date>
        <dc:creator>
          <cc:Agent>
            <dc:title>rule:fresh</dc:title>
          </cc:Agent>
        </dc:creator>
        <dc:rights>
          <cc:Agent>
            <dc:title>rule:fresh</dc:title>
          </cc:Agent>
        </dc:rights>
        <dc:publisher>
          <cc:Agent>
            <dc:title>rule:fresh</dc:title>
          </cc:Agent>
        </dc:publisher>
        <dc:subject>
          <rdf:Bag>
            <rdf:li>rule:fresh</rdf:li>
            <rdf:li>rulefresh</rdf:li>
            <rdf:li>rf</rdf:li>
            <rdf:li>comms</rdf:li>
            <rdf:li>communication</rdf:li>
          </rdf:Bag>
        </dc:subject>
        <dc:description>communication icon by rule:fresh
www.rulefresh.com</dc:description>
      </cc:Work>
    </rdf:RDF>
  </metadata>
  <g
     inkscape:label="Layer 1"
     inkscape:groupmode="layer"
     id="layer1"
     transform="translate(282.82986,10.042629)">
    <g
       transform="matrix(0.35277777,0,0,-0.35277777,-505.62811,283.94843)"
       id="g1721">
      <g
         transform="translate(896.3584,710.8115)"
         id="g622">
        <path
           inkscape:connector-curvature="0"
           id="path624"
           style="fill:none;stroke:#ffffff;stroke-width:6;stroke-linecap:round;stroke-linejoin:round;stroke-miterlimit:10;stroke-dasharray:none;stroke-opacity:1"
           d="m 0,0 c 0,-8.271 2.92,-12.568 11.715,-12.598 h 45.197 l 20.686,-18.763 0.058,18.713 10.85,0.05 c 9.418,-0.191 11.715,5.649 11.715,12.598 v 39.496 c 0,7.119 -2.297,12.598 -11.715,12.598 H 11.715 C 2.771,52.094 0,47.35 0,39.496 Z" />
      </g>
      <g
         transform="translate(885.1338,715.3115)"
         id="g626">
        <path
           inkscape:connector-curvature="0"
           id="path628"
           style="fill:none;stroke:#ffffff;stroke-width:6;stroke-linecap:round;stroke-linejoin:round;stroke-miterlimit:10;stroke-dasharray:none;stroke-opacity:1"
           d="M 0,0 H -3.408 L -21.449,-18.764 -21.504,-0.049 -27.947,0 c -9.418,-0.191 -11.715,5.65 -11.715,12.6 v 45.166 c 0,7.119 2.297,12.595 11.715,12.595 h 75.91 c 8.041,0 11.094,-3.835 11.627,-10.318" />
      </g>
      <g
         transform="translate(951.6338,731.166)"
         id="g630">
        <path
           inkscape:connector-curvature="0"
           id="path632"
           style="fill:none;stroke:#ffffff;stroke-width:4;stroke-linecap:round;stroke-linejoin:round;stroke-miterlimit:10;stroke-dasharray:none;stroke-opacity:1"
           d="m 0,0 c 0,-3.037 -2.463,-5.5 -5.5,-5.5 -3.037,0 -5.5,2.463 -5.5,5.5 0,3.037 2.463,5.5 5.5,5.5 C -2.463,5.5 0,3.037 0,0 Z" />
      </g>
      <g
         transform="translate(978.0498,731.166)"
         id="g634">
        <path
           inkscape:connector-curvature="0"
           id="path636"
           style="fill:none;stroke:#ffffff;stroke-width:4;stroke-linecap:round;stroke-linejoin:round;stroke-miterlimit:10;stroke-dasharray:none;stroke-opacity:1"
           d="m 0,0 c 0,-3.037 -2.463,-5.5 -5.5,-5.5 -3.037,0 -5.5,2.463 -5.5,5.5 0,3.037 2.463,5.5 5.5,5.5 C -2.463,5.5 0,3.037 0,0 Z" />
      </g>
      <g
         transform="translate(925.2178,731.166)"
         id="g638">
        <path
           inkscape:connector-curvature="0"
           id="path640"
           style="fill:none;stroke:#ffffff;stroke-width:4;stroke-linecap:round;stroke-linejoin:round;stroke-miterlimit:10;stroke-dasharray:none;stroke-opacity:1"
           d="m 0,0 c 0,-3.037 -2.463,-5.5 -5.5,-5.5 -3.037,0 -5.5,2.463 -5.5,5.5 0,3.037 2.463,5.5 5.5,5.5 C -2.463,5.5 0,3.037 0,0 Z" />
      </g>
      <g
         transform="translate(761.5537,684.9658)"
         id="g642">
        <path
           inkscape:connector-curvature="0"
           id="path644"
           style="fill:none;stroke:#ffffff;stroke-width:6;stroke-linecap:round;stroke-linejoin:round;stroke-miterlimit:10;stroke-dasharray:none;stroke-opacity:1"
           d="M 0,0 -88.5,26 V 65 L 0,91 Z" />
      </g>
      <g
         transform="translate(730.9932,766.7607)"
         id="g646">
        <path
           inkscape:connector-curvature="0"
           id="path648"
           style="fill:none;stroke:#ffffff;stroke-width:6;stroke-linecap:round;stroke-linejoin:round;stroke-miterlimit:10;stroke-dasharray:none;stroke-opacity:1"
           d="M 0,0 V -58.727" />
      </g>
      <g
         transform="translate(661.0811,711.5264)"
         id="g650">
        <path
           inkscape:connector-curvature="0"
           id="path652"
           style="fill:none;stroke:#ffffff;stroke-width:6;stroke-linecap:round;stroke-linejoin:round;stroke-miterlimit:10;stroke-dasharray:none;stroke-opacity:1"
           d="m 0,0 -18.857,1.512 c -4.291,0.347 -7.67,2.328 -7.67,7.064 v 20.725 c 0,4.736 3.408,6.624 7.67,7.064 L 0,37.877" />
      </g>
      <g
         transform="translate(672.2295,696.6797)"
         id="g654">
        <path
           inkscape:connector-curvature="0"
           id="path656"
           style="fill:none;stroke:#ffffff;stroke-width:6;stroke-linecap:round;stroke-linejoin:round;stroke-miterlimit:10;stroke-dasharray:none;stroke-opacity:1"
           d="m 0,0 12.252,-28.319 c 0,0 -6.807,-9.121 -12.252,-2.45 -5.445,6.67 -11.869,22.454 -18.516,20.831 -6.127,-1.499 -9.379,7.718 -11.027,11.299" />
      </g>
      <g
         transform="translate(684.4814,719.2539)"
         id="g658">
        <path
           inkscape:connector-curvature="0"
           id="path660"
           style="fill:none;stroke:#ffffff;stroke-width:4;stroke-linecap:round;stroke-linejoin:round;stroke-miterlimit:10;stroke-dasharray:none;stroke-opacity:1"
           d="M 0,0 9.906,-2.622" />
      </g>
      <g
         transform="translate(703.6279,714.209)"
         id="g662">
        <path
           inkscape:connector-curvature="0"
           id="path664"
           style="fill:none;stroke:#ffffff;stroke-width:4;stroke-linecap:round;stroke-linejoin:round;stroke-miterlimit:10;stroke-dasharray:none;stroke-opacity:1"
           d="M 0,0 2.967,-0.786" />
      </g>
      <g
         transform="translate(779.0537,730.4658)"
         id="g666">
        <path
           inkscape:connector-curvature="0"
           id="path668"
           style="fill:none;stroke:#ffffff;stroke-width:4;stroke-linecap:round;stroke-linejoin:round;stroke-miterlimit:10;stroke-dasharray:none;stroke-opacity:1"
           d="M 0,0 H 42" />
      </g>
      <g
         transform="translate(779.0537,761.6719)"
         id="g670">
        <path
           inkscape:connector-curvature="0"
           id="path672"
           style="fill:none;stroke:#ffffff;stroke-width:4;stroke-linecap:round;stroke-linejoin:round;stroke-miterlimit:10;stroke-dasharray:none;stroke-opacity:1"
           d="M 0,0 42,17.495" />
      </g>
      <g
         transform="translate(779.0537,699.2588)"
         id="g674">
        <path
           inkscape:connector-curvature="0"
           id="path676"
           style="fill:none;stroke:#ffffff;stroke-width:4;stroke-linecap:round;stroke-linejoin:round;stroke-miterlimit:10;stroke-dasharray:none;stroke-opacity:1"
           d="M 0,0 42,-17.494" />
      </g>
      <g
         transform="translate(708.3848,789.3232)"
         id="g678">
        <path
           inkscape:connector-curvature="0"
           id="path680"
           style="fill:none;stroke:#ffffff;stroke-width:3;stroke-linecap:round;stroke-linejoin:round;stroke-miterlimit:10;stroke-dasharray:none;stroke-opacity:1"
           d="m 0,0 c 0,-5.629 -0.865,-7.266 -6.492,-7.266 h -41.084 c -5.629,0 -6.494,1.637 -6.494,7.266 v 21.316 c 0,5.627 0.865,7.264 6.494,7.264 H -6.492 C -0.865,28.58 0,26.943 0,21.316 Z" />
      </g>
      <g
         transform="translate(658.9316,811.666)"
         id="g682">
        <path
           inkscape:connector-curvature="0"
           id="path684"
           style="fill:none;stroke:#ffffff;stroke-width:3;stroke-linecap:round;stroke-linejoin:round;stroke-miterlimit:10;stroke-dasharray:none;stroke-opacity:1"
           d="m 0,0 c 0,0 9.902,-8.429 15.525,-12.761 2.205,-1.701 4.856,-2.554 6.893,-2.554 2.207,0 4.311,0.431 7.033,2.616 C 34.906,-8.324 44.447,0 44.447,0" />
      </g>
      <g
         transform="translate(659.9277,787.9092)"
         id="g686">
        <path
           inkscape:connector-curvature="0"
           id="path688"
           style="fill:none;stroke:#ffffff;stroke-width:3;stroke-linecap:round;stroke-linejoin:round;stroke-miterlimit:10;stroke-dasharray:none;stroke-opacity:1"
           d="M 0,0 14.004,11.402" />
      </g>
      <g
         transform="translate(702.877,787.9092)"
         id="g690">
        <path
           inkscape:connector-curvature="0"
           id="path692"
           style="fill:none;stroke:#ffffff;stroke-width:3;stroke-linecap:round;stroke-linejoin:round;stroke-miterlimit:10;stroke-dasharray:none;stroke-opacity:1"
           d="M 0,0 -14.004,11.402" />
      </g>
      <g
         transform="translate(846.2285,645.167)"
         id="g694">
        <path
           inkscape:connector-curvature="0"
           id="path696"
           style="fill:none;stroke:#ffffff;stroke-width:4;stroke-linecap:round;stroke-linejoin:round;stroke-miterlimit:10;stroke-dasharray:none;stroke-opacity:1"
           d="M 0,0 V 36.605 L 36.334,18.303 Z" />
      </g>
      <path
         inkscape:connector-curvature="0"
         id="path700"
         style="fill:none;stroke:#ffffff;stroke-width:6;stroke-linecap:round;stroke-linejoin:round;stroke-miterlimit:10;stroke-dasharray:none;stroke-opacity:1"
         d="m 0,0 24.172,46.15 -50.526,8.278 9.026,-18.612 -209.334,-70.5 -50.5,52.063 -122.317,-24.578 4.915,-23.559 106.236,23.559 53.885,-54.86 225.281,78.043 z"
         transform="translate(1034.8818,640.5625)" />
      <g
         transform="translate(992.5303,807.1611)"
         id="g702">
        <path
           inkscape:connector-curvature="0"
           id="path704"
           style="fill:none;stroke:#ffffff;stroke-width:3;stroke-linecap:round;stroke-linejoin:round;stroke-miterlimit:10;stroke-dasharray:none;stroke-opacity:1"
           d="m 0,0 c 0,-5.362 -4.354,-9.717 -9.719,-9.717 -5.367,0 -9.718,4.355 -9.718,9.717 0,5.373 4.351,9.722 9.718,9.722 C -4.354,9.722 0,5.373 0,0 Z" />
      </g>
      <g
         transform="translate(979.4443,782.9385)"
         id="g706">
        <path
           inkscape:connector-curvature="0"
           id="path708"
           style="fill:none;stroke:#ffffff;stroke-width:3;stroke-linecap:round;stroke-linejoin:round;stroke-miterlimit:10;stroke-dasharray:none;stroke-opacity:1"
           d="m 0,0 -1.059,6.6 c -1.595,0.405 -3.099,1.009 -4.494,1.796 l -5.523,-3.796 -4.678,4.671 3.65,5.351 c -1.056,1.665 -1.847,3.508 -2.324,5.478 l -6.56,1.054 v 6.614 l 6.56,1.056 c 0.438,1.791 1.133,3.482 2.051,5.028 l -3.787,5.663 4.676,4.672 5.599,-3.863 c 1.487,0.882 3.11,1.559 4.83,1.993 L 0,48.916 6.734,48.922 7.793,42.317 c 1.717,-0.434 3.342,-1.108 4.828,-1.993 l 5.6,3.863 4.674,-4.672 -3.78,-5.663 c 0.916,-1.546 1.612,-3.237 2.049,-5.028 l 6.561,-1.056 V 21.154 L 21.16,20.1 C 20.682,18.13 19.889,16.287 18.84,14.622 L 22.488,9.273 17.812,4.6 12.283,8.396 C 10.889,7.615 9.385,7.005 7.793,6.6 L 6.734,0 Z" />
      </g>
      <g
         transform="translate(1039.3877,705.6719)"
         id="g710">
        <path
           inkscape:connector-curvature="0"
           id="path712"
           style="fill:none;stroke:#ffffff;stroke-width:4;stroke-linecap:round;stroke-linejoin:round;stroke-miterlimit:10;stroke-dasharray:none;stroke-opacity:1"
           d="M 0,0 4.332,24.087" />
      </g>
      <g
         transform="translate(1068.3877,695.5684)"
         id="g714">
        <path
           inkscape:connector-curvature="0"
           id="path716"
           style="fill:none;stroke:#ffffff;stroke-width:4;stroke-linecap:round;stroke-linejoin:round;stroke-miterlimit:10;stroke-dasharray:none;stroke-opacity:1"
           d="M 0,0 19.431,17.145" />
      </g>
      <g
         transform="translate(1066.5391,666.7334)"
         id="g718">
        <path
           inkscape:connector-curvature="0"
           id="path720"
           style="fill:none;stroke:#ffffff;stroke-width:4;stroke-linecap:round;stroke-linejoin:round;stroke-miterlimit:10;stroke-dasharray:none;stroke-opacity:1"
           d="M 0,0 26.432,-5.477" />
      </g>
    </g>
  </g>
</svg>
