<?xml version="1.0" encoding="utf-8"?>
<!-- Generator: Adobe Illustrator 19.0.0, SVG Export Plug-In . SVG Version: 6.00 Build 0)  -->
<svg 
	version="1.1"
	id="Layer_1"
	xmlns="http://www.w3.org/2000/svg"
	xmlns:xlink="http://www.w3.org/1999/xlink"
	x="0px"
	y="0px"
	height="500"
	width="566.666667"
	viewBox="0 0 560 316"
	enable-background="new 0 0 560 316"
	xml:space="preserve">
<g>
	
		<path id="XMLID_25_" fill="none" stroke="#FFFFFF" stroke-width="6" stroke-linecap="round" stroke-linejoin="round" stroke-miterlimit="10" d="
		M320.983,150.805c0,9.952,3.513,15.123,14.096,15.158h54.382l24.889,22.577l0.071-22.516l13.054-0.061
		c11.332,0.23,14.095-6.796,14.095-15.158v-47.522c0-8.566-2.764-15.158-14.095-15.158h-92.396
		c-10.761,0-14.096,5.708-14.096,15.158V150.805z"/>
	
		<path id="XMLID_24_" fill="none" stroke="#FFFFFF" stroke-width="6" stroke-linecap="round" stroke-linejoin="round" stroke-miterlimit="10" d="
		M307.477,145.39h-4.101l-21.707,22.577l-0.066-22.518l-7.753-0.059c-11.332,0.23-14.096-6.799-14.096-15.16V75.886
		c0-8.566,2.764-15.155,14.096-15.155h91.336c9.675,0,13.348,4.614,13.99,12.415"/>
	
		<circle id="XMLID_23_" fill="none" stroke="#FFFFFF" stroke-width="4" stroke-linecap="round" stroke-linejoin="round" stroke-miterlimit="10" cx="380.873" cy="126.314" r="6.618"/>
	
		<circle id="XMLID_22_" fill="none" stroke="#FFFFFF" stroke-width="4" stroke-linecap="round" stroke-linejoin="round" stroke-miterlimit="10" cx="412.658" cy="126.314" r="6.618"/>
	
		<circle id="XMLID_21_" fill="none" stroke="#FFFFFF" stroke-width="4" stroke-linecap="round" stroke-linejoin="round" stroke-miterlimit="10" cx="349.089" cy="126.314" r="6.618"/>
	
		<polygon id="XMLID_20_" fill="none" stroke="#FFFFFF" stroke-width="6" stroke-linecap="round" stroke-linejoin="round" stroke-miterlimit="10" points="
		158.783,181.903 52.298,150.619 52.298,103.694 158.783,72.41 	"/>
	
		<line id="XMLID_19_" fill="none" stroke="#FFFFFF" stroke-width="6" stroke-linecap="round" stroke-linejoin="round" stroke-miterlimit="10" x1="122.012" y1="83.486" x2="122.012" y2="154.147"/>
	
		<path id="XMLID_18_" fill="none" stroke="#FFFFFF" stroke-width="6" stroke-linecap="round" stroke-linejoin="round" stroke-miterlimit="10" d="
		M37.892,149.945l-22.69-1.819c-5.163-0.418-9.229-2.801-9.229-8.5V114.69c0-5.699,4.101-7.97,9.229-8.5l22.69-1.819"/>
	
		<path id="XMLID_17_" fill="none" stroke="#FFFFFF" stroke-width="6" stroke-linecap="round" stroke-linejoin="round" stroke-miterlimit="10" d="
		M51.306,167.809l14.742,34.074c0,0-8.19,10.975-14.742,2.947c-6.552-8.025-14.281-27.016-22.278-25.063
		c-7.372,1.803-11.285-9.287-13.268-13.596"/>
	
		<line id="XMLID_16_" fill="none" stroke="#FFFFFF" stroke-width="4" stroke-linecap="round" stroke-linejoin="round" stroke-miterlimit="10" x1="66.048" y1="140.647" x2="77.968" y2="143.802"/>
	
		<line id="XMLID_15_" fill="none" stroke="#FFFFFF" stroke-width="4" stroke-linecap="round" stroke-linejoin="round" stroke-miterlimit="10" x1="89.086" y1="146.717" x2="92.655" y2="147.663"/>
	
		<line id="XMLID_14_" fill="none" stroke="#FFFFFF" stroke-width="4" stroke-linecap="round" stroke-linejoin="round" stroke-miterlimit="10" x1="179.839" y1="127.157" x2="230.375" y2="127.157"/>
	
		<line id="XMLID_13_" fill="none" stroke="#FFFFFF" stroke-width="4" stroke-linecap="round" stroke-linejoin="round" stroke-miterlimit="10" x1="179.839" y1="89.609" x2="230.375" y2="68.558"/>
	
		<line id="XMLID_12_" fill="none" stroke="#FFFFFF" stroke-width="4" stroke-linecap="round" stroke-linejoin="round" stroke-miterlimit="10" x1="179.839" y1="164.705" x2="230.375" y2="185.755"/>
	
		<path id="XMLID_11_" fill="none" stroke="#FFFFFF" stroke-width="3" stroke-linecap="round" stroke-linejoin="round" stroke-miterlimit="10" d="
		M94.809,56.338c0,6.773-1.041,8.742-7.812,8.742H37.564c-6.773,0-7.814-1.969-7.814-8.742c0-3.241,0-22.079,0-25.648
		c0-6.771,1.041-8.74,7.814-8.74h49.433c6.771,0,7.812,1.969,7.812,8.74C94.809,36.843,94.809,52.096,94.809,56.338z"/>
	
		<path id="XMLID_10_" fill="none" stroke="#FFFFFF" stroke-width="3" stroke-linecap="round" stroke-linejoin="round" stroke-miterlimit="10" d="
		M35.306,29.455c0,0,11.915,10.142,18.68,15.354c2.653,2.047,5.842,3.074,8.293,3.074c2.656,0,5.186-0.519,8.462-3.148
		c6.564-5.264,18.043-15.28,18.043-15.28"/>
	
		<line id="XMLID_9_" fill="none" stroke="#FFFFFF" stroke-width="3" stroke-linecap="round" stroke-linejoin="round" stroke-miterlimit="10" x1="36.505" y1="58.04" x2="53.354" y2="44.32"/>
	
		<line id="XMLID_8_" fill="none" stroke="#FFFFFF" stroke-width="3" stroke-linecap="round" stroke-linejoin="round" stroke-miterlimit="10" x1="88.182" y1="58.04" x2="71.332" y2="44.32"/>
	
		<polygon id="XMLID_7_" fill="none" stroke="#FFFFFF" stroke-width="4" stroke-linecap="round" stroke-linejoin="round" stroke-miterlimit="10" points="
		260.665,229.79 260.665,185.745 304.383,207.768 	"/>
	
		<polygon id="XMLID_6_" fill="none" stroke="#FFFFFF" stroke-width="6" stroke-linecap="round" stroke-linejoin="round" stroke-miterlimit="10" points="
		487.657,235.33 516.741,179.801 455.948,169.841 466.807,192.235 214.932,277.062 154.17,214.419 6.996,243.992 12.909,272.338 
		140.735,243.992 205.57,310 476.633,216.097 	"/>
	
		<path id="XMLID_5_" fill="none" stroke="#FFFFFF" stroke-width="3" stroke-linecap="round" stroke-linejoin="round" stroke-miterlimit="10" d="
		M436.698,34.875c0,6.452-5.238,11.691-11.694,11.691c-6.458,0-11.694-5.239-11.694-11.691c0-6.465,5.236-11.697,11.694-11.697
		C431.46,23.178,436.698,28.41,436.698,34.875z"/>
	
		<path id="XMLID_4_" fill="none" stroke="#FFFFFF" stroke-width="3" stroke-linecap="round" stroke-linejoin="round" stroke-miterlimit="10" d="
		M420.953,64.02l-1.274-7.941c-1.92-0.488-3.73-1.215-5.408-2.162l-6.646,4.569l-5.628-5.62l4.392-6.439
		c-1.271-2.003-2.223-4.221-2.797-6.591l-7.894-1.269V30.61l7.894-1.271c0.526-2.155,1.363-4.189,2.468-6.049l-4.557-6.814
		l5.626-5.621l6.738,4.647c1.788-1.061,3.741-1.875,5.812-2.398l1.274-7.94l8.103-0.007l1.274,7.947
		c2.066,0.523,4.021,1.334,5.809,2.398l6.738-4.647l5.624,5.621l-4.547,6.814c1.102,1.86,1.939,3.894,2.465,6.049l7.894,1.271v7.957
		l-7.899,1.269c-0.576,2.37-1.53,4.587-2.792,6.591l4.39,6.436l-5.626,5.624l-6.653-4.569c-1.678,0.94-3.488,1.674-5.403,2.162
		l-1.274,7.941H420.953z"/>
	
		<line id="XMLID_3_" fill="none" stroke="#FFFFFF" stroke-width="4" stroke-linecap="round" stroke-linejoin="round" stroke-miterlimit="10" x1="493.078" y1="156.989" x2="498.291" y2="128.007"/>
	
		<line id="XMLID_2_" fill="none" stroke="#FFFFFF" stroke-width="4" stroke-linecap="round" stroke-linejoin="round" stroke-miterlimit="10" x1="527.972" y1="169.146" x2="551.351" y2="148.517"/>
	
		<line id="XMLID_1_" fill="none" stroke="#FFFFFF" stroke-width="4" stroke-linecap="round" stroke-linejoin="round" stroke-miterlimit="10" x1="525.747" y1="203.841" x2="557.55" y2="210.43"/>
</g>
</svg>
