<?xml version="1.0" encoding="UTF-8" standalone="no"?>
<svg
   xmlns:dc="http://purl.org/dc/elements/1.1/"
   xmlns:cc="http://creativecommons.org/ns#"
   xmlns:rdf="http://www.w3.org/1999/02/22-rdf-syntax-ns#"
   xmlns:svg="http://www.w3.org/2000/svg"
   xmlns="http://www.w3.org/2000/svg"
   xml:space="preserve"
   style="enable-background:new 0 0 438.533 438.533;"
   viewBox="0 0 438.533 438.533"
   height="438.533px"
   width="438.533px"
   y="0px"
   x="0px"
   id="Capa_1"
   version="1.1"><title
   id="title848">rule:fresh down chevron</title><metadata
   id="metadata41"><rdf:RDF><cc:Work
       rdf:about=""><dc:format>image/svg+xml</dc:format><dc:type
         rdf:resource="http://purl.org/dc/dcmitype/StillImage" /><dc:title>rule:fresh down chevron</dc:title><dc:date>14/06/18</dc:date><dc:creator><cc:Agent><dc:title>rule:fresh</dc:title></cc:Agent></dc:creator><dc:rights><cc:Agent><dc:title>rule:fresh</dc:title></cc:Agent></dc:rights><dc:publisher><cc:Agent><dc:title>rule:fresh</dc:title></cc:Agent></dc:publisher><dc:subject><rdf:Bag><rdf:li>rule:fresh</rdf:li><rdf:li>rulefresh</rdf:li><rdf:li>rf</rdf:li><rdf:li>chevron</rdf:li></rdf:Bag></dc:subject><dc:description>down chevron by rule:fresh
www.rulefresh.com</dc:description></cc:Work></rdf:RDF></metadata><defs
   id="defs39" />
<g
   id="g4">
	<path
   style="fill:#ffffff;fill-opacity:1"
   id="path2"
   d="M 409.133,109.203 C 389.525,75.611 362.928,49.014 329.335,29.407 295.736,9.801 259.058,0 219.273,0 179.492,0 142.803,9.801 109.21,29.407 75.615,49.011 49.018,75.608 29.41,109.203 9.801,142.8 0,179.489 0,219.267 c 0,39.78 9.804,76.463 29.407,110.062 19.607,33.592 46.204,60.189 79.799,79.798 33.597,19.605 70.283,29.407 110.063,29.407 39.78,0 76.47,-9.802 110.065,-29.407 33.593,-19.602 60.189,-46.206 79.795,-79.798 19.603,-33.596 29.403,-70.284 29.403,-110.062 0.001,-39.782 -9.8,-76.472 -29.399,-110.064 z m -47.4,95.502 -129.614,129.619 c -3.614,3.614 -7.9,5.428 -12.849,5.428 -4.948,0 -9.229,-1.813 -12.847,-5.428 L 76.804,204.705 c -3.617,-3.615 -5.426,-7.898 -5.426,-12.845 0,-4.949 1.809,-9.235 5.426,-12.851 l 29.119,-29.121 c 3.621,-3.618 7.9,-5.426 12.851,-5.426 4.948,0 9.231,1.809 12.847,5.426 l 87.65,87.65 87.65,-87.65 c 3.614,-3.618 7.898,-5.426 12.847,-5.426 4.949,0 9.233,1.809 12.847,5.426 l 29.123,29.121 c 3.621,3.616 5.428,7.902 5.428,12.851 -0.002,4.947 -1.809,9.23 -5.433,12.845 z" />
</g>
<g
   id="g6">
</g>
<g
   id="g8">
</g>
<g
   id="g10">
</g>
<g
   id="g12">
</g>
<g
   id="g14">
</g>
<g
   id="g16">
</g>
<g
   id="g18">
</g>
<g
   id="g20">
</g>
<g
   id="g22">
</g>
<g
   id="g24">
</g>
<g
   id="g26">
</g>
<g
   id="g28">
</g>
<g
   id="g30">
</g>
<g
   id="g32">
</g>
<g
   id="g34">
</g>
</svg>