<?xml version="1.0" encoding="UTF-8" standalone="no"?>
<svg
   xmlns:dc="http://purl.org/dc/elements/1.1/"
   xmlns:cc="http://creativecommons.org/ns#"
   xmlns:rdf="http://www.w3.org/1999/02/22-rdf-syntax-ns#"
   xmlns:svg="http://www.w3.org/2000/svg"
   xmlns="http://www.w3.org/2000/svg"
   id="svg1041"
   version="1.1"
   viewBox="0 0 33.05983 27.766834"
   height="27.766834mm"
   width="33.05983mm">
  <title
     id="title5321">rule:fresh love</title>
  <defs
     id="defs1035">
    <clipPath
       id="clipPath414"
       clipPathUnits="userSpaceOnUse">
      <path
         id="path412"
         d="M 0,430 H 920 V 0 H 0 Z" />
    </clipPath>
  </defs>
  <metadata
     id="metadata1038">
    <rdf:RDF>
      <cc:Work
         rdf:about="">
        <dc:format>image/svg+xml</dc:format>
        <dc:type
           rdf:resource="http://purl.org/dc/dcmitype/StillImage" />
        <dc:title>rule:fresh love</dc:title>
        <dc:date>14/06/18</dc:date>
        <dc:creator>
          <cc:Agent>
            <dc:title>rule:fresh</dc:title>
          </cc:Agent>
        </dc:creator>
        <dc:rights>
          <cc:Agent>
            <dc:title>rule:fresh</dc:title>
          </cc:Agent>
        </dc:rights>
        <dc:publisher>
          <cc:Agent>
            <dc:title>rule:fresh</dc:title>
          </cc:Agent>
        </dc:publisher>
        <dc:subject>
          <rdf:Bag>
            <rdf:li>rule:fresh</rdf:li>
            <rdf:li>rulefresh</rdf:li>
            <rdf:li>rf</rdf:li>
            <rdf:li>love</rdf:li>
            <rdf:li>heart</rdf:li>
          </rdf:Bag>
        </dc:subject>
        <dc:description>love by rule:fresh
www.rulefresh.com</dc:description>
      </cc:Work>
    </rdf:RDF>
  </metadata>
  <g
     transform="translate(250.30375,-261.94458)"
     id="layer1">
    <g
       id="g1196"
       transform="matrix(0.35277777,0,0,-0.35277777,-244.15601,279.93987)">
      <path
         d="m 0,0 c -27.45,17.885 -14.125,48.739 7.549,48.937 8.166,0.075 17.632,-7.603 22.013,-17.327 0,0 6.717,16.071 22.011,17.327 21.61,1.775 33.374,-28.559 9.594,-47.545 -16.636,-13.281 -21.04,-13.95 -31.605,-27.091 0,0 -6.467,10.652 -29.562,25.699"
         style="fill:#e34a7c;fill-opacity:1;fill-rule:nonzero;stroke:none"
         id="path1194" />
    </g>
    <g
       id="g1200"
       transform="matrix(0.35277777,0,0,-0.35277777,-244.15601,279.93987)">
      <path
         d="m 0,0 c -27.45,17.885 -14.125,48.739 7.549,48.937 8.166,0.075 17.632,-7.603 22.013,-17.327 0,0 6.717,16.071 22.011,17.327 21.61,1.775 33.374,-28.559 9.594,-47.545 -16.636,-13.281 -21.04,-13.95 -31.605,-27.091 0,0 -6.467,10.652 -29.562,25.699 z"
         style="fill:none;stroke:#ffffff;stroke-width:4;stroke-linecap:round;stroke-linejoin:round;stroke-miterlimit:10;stroke-dasharray:none;stroke-opacity:1"
         id="path1198" />
    </g>
    <g
       id="g1204"
       transform="matrix(0.35277777,0,0,-0.35277777,-244.02545,267.15546)">
      <path
         d="M 0,0 C -3.256,-2.104 -6.312,-10.462 -1.846,-16.129"
         style="fill:none;stroke:#fcb1d0;stroke-width:3.5;stroke-linecap:round;stroke-linejoin:round;stroke-miterlimit:10;stroke-dasharray:none;stroke-opacity:1"
         id="path1202" />
    </g>
    <g
       id="g1208"
       transform="matrix(0.35277777,0,0,-0.35277777,-242.70493,275.48002)">
      <path
         d="M 0,0 C 1.799,-2.284 3.6,-3.378 3.6,-3.378"
         style="fill:none;stroke:#fcb1d0;stroke-width:3.5;stroke-linecap:round;stroke-linejoin:round;stroke-miterlimit:10;stroke-dasharray:none;stroke-opacity:1"
         id="path1206" />
    </g>
  </g>
</svg>
