<?xml version="1.0" encoding="UTF-8" standalone="no"?>
<svg
   xmlns:dc="http://purl.org/dc/elements/1.1/"
   xmlns:cc="http://creativecommons.org/ns#"
   xmlns:rdf="http://www.w3.org/1999/02/22-rdf-syntax-ns#"
   xmlns:svg="http://www.w3.org/2000/svg"
   xmlns="http://www.w3.org/2000/svg"
   id="svg1041"
   version="1.1"
   viewBox="0 0 39.681751 29.140327"
   height="29.140327mm"
   width="39.681751mm">
  <title
     id="title5321">rule:fresh megaphone</title>
  <defs
     id="defs1035" />
  <metadata
     id="metadata1038">
    <rdf:RDF>
      <cc:Work
         rdf:about="">
        <dc:format>image/svg+xml</dc:format>
        <dc:type
           rdf:resource="http://purl.org/dc/dcmitype/StillImage" />
        <dc:title>rule:fresh megaphone</dc:title>
        <dc:date>14/06/18</dc:date>
        <dc:creator>
          <cc:Agent>
            <dc:title>rule:fresh</dc:title>
          </cc:Agent>
        </dc:creator>
        <dc:rights>
          <cc:Agent>
            <dc:title>rule:fresh</dc:title>
          </cc:Agent>
        </dc:rights>
        <dc:publisher>
          <cc:Agent>
            <dc:title>rule:fresh</dc:title>
          </cc:Agent>
        </dc:publisher>
        <dc:subject>
          <rdf:Bag>
            <rdf:li>rule:fresh</rdf:li>
            <rdf:li>rulefresh</rdf:li>
            <rdf:li>rf</rdf:li>
            <rdf:li>chevron</rdf:li>
          </rdf:Bag>
        </dc:subject>
        <dc:description>megaphone by rule:fresh
www.rulefresh.com</dc:description>
      </cc:Work>
    </rdf:RDF>
  </metadata>
  <g
     transform="translate(-113.20674,-125.19174)"
     id="layer1">
    <g
       id="g1023"
       transform="matrix(0.35277777,0,0,-0.35277777,140.78268,150.03567)">
      <path
         d="m 0,0 c 0,-6.143 -5.136,-5.839 -10.541,-2.357 -4.546,2.929 -8.106,6.375 -18.903,13.796 -6.445,4.43 -11.56,6.854 -21.376,8.487 -3.046,0.507 -5.198,0.092 -5.198,0.092 -5.443,11.965 0,23.551 0,23.551 0,0 2.152,-0.166 5.198,0.092 9.916,0.84 14.931,4.058 21.376,8.487 10.797,7.421 14.357,10.867 18.903,13.796 C -5.136,69.426 0,69.73 0,63.587 Z"
         style="fill:none;stroke:#ffffff;stroke-width:4;stroke-linecap:round;stroke-linejoin:round;stroke-miterlimit:10;stroke-dasharray:none;stroke-opacity:1"
         id="path1021" />
    </g>
    <g
       id="g1027"
       transform="matrix(0.35277777,0,0,-0.35277777,120.97459,134.64419)">
      <path
         d="m 0,0 h -11.59 c -4.565,0 -8.411,-6.164 -8.429,-11.609 -0.021,-6.136 3.687,-11.943 8.253,-11.942 6.317,0.002 11.766,0 11.766,0"
         style="fill:none;stroke:#ffffff;stroke-width:4;stroke-linecap:round;stroke-linejoin:round;stroke-miterlimit:10;stroke-dasharray:none;stroke-opacity:1"
         id="path1025" />
    </g>
    <g
       id="g1031"
       transform="matrix(0.35277777,0,0,-0.35277777,116.6937,143.11054)">
      <path
         d="m 0,0 c 0,0 3.606,-18.464 5.052,-22.405 1.447,-3.942 3.429,-5.482 8.066,-6.745 4.636,-1.263 7.658,-0.61 8.501,1.184 0.842,1.793 0.267,3.675 -2.726,5.458 -2.407,1.434 -3.35,3.582 -4.124,7.857 -0.74,4.079 -2.152,13.653 -2.152,13.653"
         style="fill:none;stroke:#ffffff;stroke-width:4;stroke-linecap:round;stroke-linejoin:round;stroke-miterlimit:10;stroke-dasharray:none;stroke-opacity:1"
         id="path1029" />
    </g>
    <g
       id="g1035"
       transform="matrix(0.35277777,0,0,-0.35277777,144.77108,128.83732)">
      <path
         d="m 0,0 c 12.283,-3.565 21.26,-14.901 21.26,-28.333 0,-13.461 -9.018,-24.818 -21.343,-28.357"
         style="fill:none;stroke:#ffffff;stroke-width:3.5;stroke-linecap:round;stroke-linejoin:round;stroke-miterlimit:10;stroke-dasharray:none;stroke-opacity:1"
         id="path1033" />
    </g>
    <g
       id="g1039"
       transform="matrix(0.35277777,0,0,-0.35277777,145.08787,134.14896)">
      <path
         d="m 0,0 c 4.84,-2.435 8.161,-7.447 8.161,-13.234 0,-5.787 -3.322,-10.8 -8.163,-13.234"
         style="fill:none;stroke:#ffffff;stroke-width:3.5;stroke-linecap:round;stroke-linejoin:round;stroke-miterlimit:10;stroke-dasharray:none;stroke-opacity:1"
         id="path1037" />
    </g>
    <g
       id="g1043"
       transform="matrix(0.35277777,0,0,-0.35277777,129.6857,135.66086)">
      <path
         d="M 0,0 C 4.467,1.982 9.959,5.057 15.591,9.763"
         style="fill:none;stroke:#ffffff;stroke-width:3.5;stroke-linecap:round;stroke-linejoin:round;stroke-miterlimit:10;stroke-dasharray:none;stroke-opacity:1"
         id="path1041" />
    </g>
    <g
       id="g1047"
       transform="matrix(0.35277777,0,0,-0.35277777,124.10292,137.1591)">
      <path
         d="M 0,0 C 0,0 2.295,0.198 5.5,0.864"
         style="fill:none;stroke:#ffffff;stroke-width:3.5;stroke-linecap:round;stroke-linejoin:round;stroke-miterlimit:10;stroke-dasharray:none;stroke-opacity:1"
         id="path1045" />
    </g>
  </g>
</svg>
