<?xml version="1.0" encoding="UTF-8" standalone="no"?>
<svg
   xmlns:dc="http://purl.org/dc/elements/1.1/"
   xmlns:cc="http://creativecommons.org/ns#"
   xmlns:rdf="http://www.w3.org/1999/02/22-rdf-syntax-ns#"
   xmlns:svg="http://www.w3.org/2000/svg"
   xmlns="http://www.w3.org/2000/svg"
   id="svg1041"
   version="1.1"
   viewBox="0 0 35.456475 41.486305"
   height="41.486305mm"
   width="35.456474mm">
  <title
     id="title5321">rule:fresh pantone</title>
  <defs
     id="defs1035">
    <clipPath
       id="clipPath414"
       clipPathUnits="userSpaceOnUse">
      <path
         id="path412"
         d="M 0,430 H 920 V 0 H 0 Z" />
    </clipPath>
  </defs>
  <metadata
     id="metadata1038">
    <rdf:RDF>
      <cc:Work
         rdf:about="">
        <dc:format>image/svg+xml</dc:format>
        <dc:type
           rdf:resource="http://purl.org/dc/dcmitype/StillImage" />
        <dc:title>rule:fresh pantone</dc:title>
        <dc:date>14/06/18</dc:date>
        <dc:creator>
          <cc:Agent>
            <dc:title>rule:fresh</dc:title>
          </cc:Agent>
        </dc:creator>
        <dc:rights>
          <cc:Agent>
            <dc:title>rule:fresh</dc:title>
          </cc:Agent>
        </dc:rights>
        <dc:publisher>
          <cc:Agent>
            <dc:title>rule:fresh</dc:title>
          </cc:Agent>
        </dc:publisher>
        <dc:subject>
          <rdf:Bag>
            <rdf:li>rule:fresh</rdf:li>
            <rdf:li>rulefresh</rdf:li>
            <rdf:li>rf</rdf:li>
            <rdf:li>pantone</rdf:li>
          </rdf:Bag>
        </dc:subject>
        <dc:description>pantone by rule:fresh
www.rulefresh.com</dc:description>
      </cc:Work>
    </rdf:RDF>
  </metadata>
  <g
     transform="translate(250.12493,-245.84945)"
     id="layer1">
    <g
       id="g1228"
       transform="matrix(0.35277777,0,0,-0.35277777,-217.19801,263.07838)">
      <path
         d="m 0,0 c 0,-3.761 -0.876,-3.617 -6.528,-3.617 h -12.207 c -5.652,0 -6.528,-0.144 -6.528,3.617 v 34.458 c 0,4.417 1.876,6.92 7.528,6.92 H -7.528 C -1.876,41.378 0,38.542 0,34.458 Z"
         style="fill:#37d98f;fill-opacity:1;fill-rule:nonzero;stroke:none"
         id="path1226" />
    </g>
    <g
       id="g1232"
       transform="matrix(0.35277777,0,0,-0.35277777,-215.37401,274.1895)">
      <path
         d="m 0,0 c 0,-6.627 -3.373,-10 -10,-10 h -15.667 c -6.627,0 -10,3.373 -10,10 v 68.334 c 0,6.627 3.373,10 10,10 H -10 c 6.627,0 10,-3.373 10,-10 z"
         style="fill:none;stroke:#ffffff;stroke-width:4;stroke-linecap:round;stroke-linejoin:round;stroke-miterlimit:10;stroke-dasharray:none;stroke-opacity:1"
         id="path1230" />
    </g>
    <g
       id="g1236"
       transform="matrix(0.35277777,0,0,-0.35277777,-235.34694,277.42306)">
      <path
         d="m 0,0 c -1.384,-1.308 -2.23,-1.109 -4.153,0.462 l -26.679,21.809 c -3.419,2.795 -4.169,5.833 -0.593,10.208 l 5.369,6.568 z"
         style="fill:#fffc00;fill-opacity:1;fill-rule:nonzero;stroke:none"
         id="path1234" />
    </g>
    <g
       id="g1240"
       transform="matrix(0.35277777,0,0,-0.35277777,-230.22687,267.38784)">
      <path
         d="m 0,0 c -0.697,0.33 -1.081,1.146 -1.5,2.653 l -9.218,33.202 c -1.182,4.256 -0.043,7.17 5.403,8.682 l 5.32,1.477 z"
         style="fill:#d9376c;fill-opacity:1;fill-rule:nonzero;stroke:none"
         id="path1238" />
    </g>
    <g
       id="g1244"
       transform="matrix(0.35277777,0,0,-0.35277777,-227.42719,266.13488)">
      <path
         d="M 0,0 H 33.083"
         style="fill:none;stroke:#ffffff;stroke-width:4;stroke-linecap:round;stroke-linejoin:round;stroke-miterlimit:10;stroke-dasharray:none;stroke-opacity:1"
         id="path1242" />
    </g>
    <g
       id="g1248"
       transform="matrix(0.35277777,0,0,-0.35277777,-217.87601,277.93843)">
      <path
         d="m 0,0 -20.644,-5.957 c -6.381,-1.789 -10.539,0.551 -12.326,6.932 l -18.428,65.8 c -1.788,6.381 0.55,10.539 6.932,12.329 l 8.933,2.5"
         style="fill:none;stroke:#ffffff;stroke-width:3.5;stroke-linecap:round;stroke-linejoin:round;stroke-miterlimit:10;stroke-dasharray:none;stroke-opacity:1"
         id="path1246" />
    </g>
    <g
       id="g1252"
       transform="matrix(0.35277777,0,0,-0.35277777,-231.16995,269.69571)">
      <path
         d="M 0,0 2.759,0.774"
         style="fill:none;stroke:#ffffff;stroke-width:3.5;stroke-linecap:round;stroke-linejoin:round;stroke-miterlimit:10;stroke-dasharray:none;stroke-opacity:1"
         id="path1250" />
    </g>
    <g
       id="g1256"
       transform="matrix(0.35277777,0,0,-0.35277777,-219.078,278.28641)">
      <path
         d="m 0,0 c -0.834,-1.404 -2.158,-2.703 -3.969,-3.891 l -13.103,-8.588 c -5.542,-3.632 -10.213,-2.66 -13.845,2.881 l -37.459,57.153 c -3.633,5.541 -2.662,10.213 2.881,13.845 l 10.275,6.735"
         style="fill:none;stroke:#ffffff;stroke-width:3.5;stroke-linecap:round;stroke-linejoin:round;stroke-miterlimit:10;stroke-dasharray:none;stroke-opacity:1"
         id="path1254" />
    </g>
    <g
       id="g1260"
       transform="matrix(0.35277777,0,0,-0.35277777,-233.95806,274.64494)">
      <path
         d="M 0,0 3.114,2.041"
         style="fill:none;stroke:#ffffff;stroke-width:3.5;stroke-linecap:round;stroke-linejoin:round;stroke-miterlimit:10;stroke-dasharray:none;stroke-opacity:1"
         id="path1258" />
    </g>
    <g
       id="g1264"
       transform="matrix(0.35277777,0,0,-0.35277777,-219.94911,279.20554)">
      <path
         d="m 0,0 c -0.372,-1.59 -1.242,-3.229 -2.61,-4.906 l -9.901,-12.142 c -4.187,-5.137 -8.934,-5.618 -14.069,-1.431 l -52.959,43.184 c -5.136,4.187 -5.62,8.934 -1.431,14.071 l 7.763,9.52"
         style="fill:none;stroke:#ffffff;stroke-width:3.5;stroke-linecap:round;stroke-linejoin:round;stroke-miterlimit:10;stroke-dasharray:none;stroke-opacity:1"
         id="path1262" />
    </g>
    <g
       id="g1268"
       transform="matrix(0.35277777,0,0,-0.35277777,-235.2343,280.2239)">
      <path
         d="M 0,0 2.353,2.885"
         style="fill:none;stroke:#ffffff;stroke-width:3.5;stroke-linecap:round;stroke-linejoin:round;stroke-miterlimit:10;stroke-dasharray:none;stroke-opacity:1"
         id="path1266" />
    </g>
    <g
       id="g1272"
       transform="matrix(0.35277777,0,0,-0.35277777,-218.16092,274.19983)">
      <path
         d="m 0,0 c 0,-0.781 -0.634,-1.416 -1.417,-1.416 -0.783,0 -1.417,0.635 -1.417,1.416 0,0.783 0.634,1.418 1.417,1.418 C -0.634,1.418 0,0.783 0,0 Z"
         style="fill:none;stroke:#ffffff;stroke-width:4;stroke-linecap:round;stroke-linejoin:round;stroke-miterlimit:10;stroke-dasharray:none;stroke-opacity:1"
         id="path1270" />
    </g>
    <g
       id="g1276"
       transform="matrix(0.35277777,0,0,-0.35277777,-225.07539,269.01566)">
      <path
         d="M 0,0 H 19.167"
         style="fill:none;stroke:#ffffff;stroke-width:4;stroke-linecap:round;stroke-linejoin:round;stroke-miterlimit:10;stroke-dasharray:none;stroke-opacity:1"
         id="path1274" />
    </g>
    <g
       id="g1280"
       transform="matrix(0.35277777,0,0,-0.35277777,-225.24593,271.72005)">
      <path
         d="M 0,0 H 10.837"
         style="fill:none;stroke:#ffffff;stroke-width:3;stroke-linecap:round;stroke-linejoin:round;stroke-miterlimit:10;stroke-dasharray:none;stroke-opacity:1"
         id="path1278" />
    </g>
    <g
       id="g1284"
       transform="matrix(0.35277777,0,0,-0.35277777,-225.24593,274.17779)">
      <path
         d="M 0,0 H 10.837"
         style="fill:none;stroke:#ffffff;stroke-width:3;stroke-linecap:round;stroke-linejoin:round;stroke-miterlimit:10;stroke-dasharray:none;stroke-opacity:1"
         id="path1282" />
    </g>
    <g
       id="g1288"
       transform="matrix(0.35277777,0,0,-0.35277777,-233.21736,272.00771)">
      <path
         d="m 0,0 c -1.805,-0.909 -2.182,-0.268 -3.572,1.863 l -18.823,28.864 c -2.412,3.701 -2.209,6.821 2.526,9.908 l 6.434,4.212 z"
         style="fill:#379ed9;fill-opacity:1;fill-rule:nonzero;stroke:none"
         id="path1286" />
    </g>
  </g>
</svg>
