<?xml version="1.0" encoding="utf-8"?>
<!-- Generator: Adobe Illustrator 19.0.0, SVG Export Plug-In . SVG Version: 6.00 Build 0)  -->
<svg 
	version="1.1"
	id="Layer_1"
	xmlns="http://www.w3.org/2000/svg"
	xmlns:xlink="http://www.w3.org/1999/xlink"
	x="0px"
	y="0px"
	height="560"
	width="560"
	viewBox="0 0 560 560"
	enable-background="new 0 0 560 560"
	xml:space="preserve">
<g>
	
		<path id="XMLID_102_" fill="none" stroke="#FFFFFF" stroke-width="6" stroke-linecap="round" stroke-linejoin="round" stroke-miterlimit="10" d="
		M353.73,408.373c0,11.136-7.348,20.165-18.485,20.165H213.796c-11.136,0-18.485-9.029-18.485-20.165V179.012
		c0-11.138,7.348-20.165,18.485-20.165h121.449c11.136,0,18.485,9.027,18.485,20.165V408.373z"/>
	
		<line id="XMLID_101_" fill="none" stroke="#FFFFFF" stroke-width="6" stroke-linecap="round" stroke-linejoin="round" stroke-miterlimit="10" x1="195.312" y1="194.009" x2="353.73" y2="194.009"/>
	
		<line id="XMLID_100_" fill="none" stroke="#FFFFFF" stroke-width="6" stroke-linecap="round" stroke-linejoin="round" stroke-miterlimit="10" x1="195.312" y1="369.892" x2="353.73" y2="369.892"/>
	
		<circle id="XMLID_99_" fill="none" stroke="#FFFFFF" stroke-width="5" stroke-linecap="round" stroke-linejoin="round" stroke-miterlimit="10" cx="274.502" cy="399.531" r="14.143"/>
	
		<line id="XMLID_98_" fill="none" stroke="#FFFFFF" stroke-width="5" stroke-linecap="round" stroke-linejoin="round" stroke-miterlimit="10" x1="254.986" y1="177.205" x2="294.055" y2="177.205"/>
	<g>
		
			<path id="XMLID_97_" fill="none" stroke="#FFFFFF" stroke-width="2" stroke-linecap="round" stroke-linejoin="round" stroke-miterlimit="10" d="
			M261.532,277.02c-0.768,9.874-9.391,17.259-19.266,16.491c-9.879-0.768-17.259-9.395-16.492-19.269
			c0.768-9.876,9.392-17.255,19.271-16.487C254.919,258.521,262.298,267.145,261.532,277.02z"/>
		<path id="XMLID_96_" fill="#FFFFFF" d="M235.694,279.457c-5.438-6.009-2.624-12.654,2.882-12.275
			c2.074,0.143,4.326,2.278,5.245,4.833c0,0,2.025-3.948,5.931-3.965c5.524-0.026,7.575,6.822,1.5,12.26
			c-4.04,3.617-8.561,6.254-8.561,6.254S240.402,284.661,235.694,279.457z"/>
	</g>
	<g>
		
			<path id="XMLID_95_" fill="none" stroke="#FFFFFF" stroke-width="2" stroke-linecap="round" stroke-linejoin="round" stroke-miterlimit="10" d="
			M259.719,258.352c4.173-5.33,11.2-8.061,18.229-6.413c9.643,2.258,15.626,11.904,13.366,21.548
			c-1.521,6.495-6.397,11.331-12.363,13.107"/>
		<path id="XMLID_94_" fill="#FFFFFF" d="M265.406,271.968c-4.462-6.764-0.671-12.905,4.715-11.694
			c2.027,0.456,3.928,2.909,4.449,5.575c0,0,2.601-3.594,6.464-3.018c5.463,0.814,6.451,7.895-0.379,12.347
			c-4.544,2.959-9.414,4.879-9.414,4.879S269.269,277.828,265.406,271.968z"/>
	</g>
	<g>
		
			<path id="XMLID_93_" fill="none" stroke="#FFFFFF" stroke-width="2" stroke-linecap="round" stroke-linejoin="round" stroke-miterlimit="10" d="
			M305.324,317.591c-0.716-0.908-1.351-1.896-1.895-2.961c-4.506-8.82-1.008-19.622,7.815-24.126
			c8.821-4.504,19.618-1.011,24.126,7.811c3.922,7.683,1.777,16.87-4.67,22.088"/>
		<path id="XMLID_92_" fill="#FFFFFF" d="M314.611,313.896c-7.777-2.283-8.848-9.418-3.957-11.973
			c1.843-0.962,4.879-0.318,6.999,1.379c0,0-0.338-4.423,2.987-6.479c4.693-2.908,10.02,1.858,7.683,9.669
			c-1.554,5.194-4.03,9.807-4.03,9.807S321.347,315.87,314.611,313.896z"/>
	</g>
	<g>
		
			<path id="XMLID_91_" fill="none" stroke="#FFFFFF" stroke-width="2" stroke-linecap="round" stroke-linejoin="round" stroke-miterlimit="10" d="
			M258.951,349.138c-3.586,9.231-13.975,13.809-23.207,10.224c-9.236-3.587-13.811-13.978-10.223-23.211
			c3.586-9.233,13.973-13.808,23.211-10.22C257.961,329.517,262.536,339.904,258.951,349.138z"/>
		<path id="XMLID_90_" fill="#FFFFFF" d="M233.51,344.009c-3.471-7.322,1.142-12.872,6.305-10.919
			c1.945,0.735,3.484,3.43,3.625,6.142c0,0,3.079-3.195,6.823-2.084c5.294,1.57,5.282,8.719-2.106,12.171
			c-4.912,2.296-10.002,3.515-10.002,3.515S236.516,350.351,233.51,344.009z"/>
	</g>
	<g>
		
			<path id="XMLID_89_" fill="none" stroke="#FFFFFF" stroke-width="2" stroke-linecap="round" stroke-linejoin="round" stroke-miterlimit="10" d="
			M339.976,256.141c-3.586,9.231-13.975,13.809-23.207,10.224c-9.236-3.587-13.811-13.978-10.224-23.211
			c3.586-9.232,13.973-13.808,23.211-10.22C338.987,236.52,343.562,246.907,339.976,256.141z"/>
		<path id="XMLID_88_" fill="#FFFFFF" d="M314.535,251.012c-3.471-7.322,1.142-12.872,6.305-10.919
			c1.945,0.735,3.484,3.43,3.625,6.142c0,0,3.078-3.195,6.823-2.084c5.294,1.57,5.283,8.719-2.105,12.171
			c-4.912,2.296-10.002,3.515-10.002,3.515S317.542,257.354,314.535,251.012z"/>
	</g>
	<g>
		
			<path id="XMLID_87_" fill="none" stroke="#FFFFFF" stroke-width="2" stroke-linecap="round" stroke-linejoin="round" stroke-miterlimit="10" d="
			M232.971,216.965c0.281-1.113,0.668-2.21,1.173-3.289c4.211-8.965,14.889-12.816,23.857-8.604
			c8.963,4.209,12.815,14.886,8.606,23.854c-3.341,7.11-10.757,11.008-18.156,10.207"/>
		<path id="XMLID_86_" fill="#FFFFFF" d="M241.577,222.064c-2.959-7.545,2.023-12.764,7.04-10.463
			c1.889,0.87,3.239,3.661,3.195,6.377c0,0,3.29-2.977,6.95-1.61c5.174,1.93,4.672,9.06-2.936,11.996
			c-5.058,1.954-10.217,2.823-10.217,2.823S244.144,228.597,241.577,222.064z"/>
	</g>
	<g>
		
			<path id="XMLID_85_" fill="none" stroke="#FDFEFF" stroke-width="2" stroke-linecap="round" stroke-linejoin="round" stroke-miterlimit="10" d="
			M298.918,250.79c-0.441,0.084-0.889,0.151-1.342,0.203c-9.846,1.119-18.727-5.954-19.845-15.795
			c-1.119-9.841,5.95-18.721,15.797-19.84c8.729-0.993,16.702,4.459,19.174,12.572"/>
		<path id="XMLID_84_" fill="#FFFFFF" d="M288.458,238.44c-6.477-4.869-4.974-11.927,0.504-12.598
			c2.063-0.254,4.68,1.416,6.067,3.751c0,0,1.239-4.26,5.071-5.018c5.417-1.07,8.732,5.263,3.796,11.755
			c-3.28,4.316-7.221,7.764-7.221,7.764S294.068,242.657,288.458,238.44z"/>
	</g>
	<g>
		
			<circle id="XMLID_83_" fill="none" stroke="#FFFFFF" stroke-width="2" stroke-linecap="round" stroke-linejoin="round" stroke-miterlimit="10" cx="315.343" cy="339.747" r="17.933"/>
		<rect id="XMLID_82_" x="305.669" y="338.035" fill="#FFFFFF" width="3.737" height="10.393"/>
		<path id="XMLID_81_" fill="#FFFFFF" d="M312.707,347.729c0,0,0-5.786,0-6.948c0-1.16,0-3.12,1.119-4.89
			c1.116-1.771,3.029-2.796,3.308-4.939c0.279-2.143,0.597-2.55,1.818-1.91c0.939,0.492,1.536,2.468,1.07,4.147
			c-0.466,1.679-1.07,3.029-1.07,3.029s5.337,0,5.965,0c0.628,0,1.991,2.342,0.208,3.426c0,0,2.344,1.431-0.105,3.041
			c0,0,1.713,1.572-0.315,2.693c0,0,0.355,0.103,0.509,0.645c0.177,0.632,0.077,1.707-1.277,1.707
			C321.421,347.729,312.707,347.729,312.707,347.729z"/>
	</g>
	<g>
		
			<path id="XMLID_80_" fill="none" stroke="#FFFFFF" stroke-width="2" stroke-linecap="round" stroke-linejoin="round" stroke-miterlimit="10" d="
			M294.548,351.395c-3.236,1.72-7.028,2.468-10.934,1.913c-9.808-1.393-16.625-10.475-15.23-20.278
			c1.395-9.808,10.473-16.624,20.278-15.229c3.663,0.52,6.907,2.114,9.465,4.416"/>
		
			<rect id="XMLID_79_" x="276.051" y="332.708" transform="matrix(0.9901 0.1406 -0.1406 0.9901 50.2544 -35.7093)" fill="#FFFFFF" width="3.736" height="10.393"/>
		<path id="XMLID_78_" fill="#FFFFFF" d="M293.793,344.667l-11.389-1.582c0,0,0.816-5.727,0.98-6.878
			c0.163-1.149,0.438-3.088,1.795-4.685c1.354-1.595,3.392-2.342,3.971-4.424c0.578-2.083,0.95-2.44,2.069-1.636
			c0.86,0.622,1.173,2.662,0.474,4.258c-0.697,1.595-1.485,2.847-1.485,2.847s3.2,0.458,3.822,0.545
			C294.031,333.112,292.357,339.013,293.793,344.667z"/>
	</g>
	<g>
		
			<path id="XMLID_77_" fill="none" stroke="#FFFFFF" stroke-width="2" stroke-linecap="round" stroke-linejoin="round" stroke-miterlimit="10" d="
			M218.624,339.563c-0.312-0.09-0.624-0.19-0.932-0.3c-9.344-3.294-14.244-13.535-10.952-22.876
			c3.292-9.341,13.532-14.242,22.874-10.949c6.05,2.133,10.238,7.18,11.545,13.01"/>
		
			<rect id="XMLID_76_" x="213.264" y="317.845" transform="matrix(0.9431 0.3324 -0.3324 0.9431 119.6094 -53.1409)" fill="#FFFFFF" width="3.738" height="10.393"/>
		<path id="XMLID_75_" fill="#FFFFFF" d="M234.188,322.309c0.596-0.199-5.957-2.089-5.957-2.089s1.019-1.073,2.017-2.501
			c0.998-1.429,1.09-3.49,0.369-4.268c-0.939-1.009-1.375-0.73-2.35,1.198c-0.975,1.928-3.121,2.26-4.762,3.559
			c-1.644,1.296-2.296,3.146-2.681,4.239c-0.387,1.096-2.311,6.554-2.311,6.554s2.573,0.906,5.437,1.915
			C223.949,330.917,227.01,324.708,234.188,322.309z"/>
	</g>
	<g>
		
			<path id="XMLID_74_" fill="none" stroke="#FFFFFF" stroke-width="2" stroke-linecap="round" stroke-linejoin="round" stroke-miterlimit="10" d="
			M241.738,244.226c-3.005,9.436-13.09,14.653-22.53,11.648c-9.439-3.005-14.651-13.089-11.648-22.526
			c3.005-9.439,13.089-14.653,22.528-11.648C239.526,224.704,244.743,234.785,241.738,244.226z"/>
		
			<rect id="XMLID_73_" x="214.285" y="234.544" transform="matrix(0.9527 0.3039 -0.3039 0.9527 83.0828 -54.3516)" fill="#FFFFFF" width="3.736" height="10.391"/>
		<path id="XMLID_72_" fill="#FFFFFF" d="M218.036,245.593c0,0,1.754-5.512,2.107-6.623c0.351-1.105,0.945-2.97,2.55-4.319
			c1.598-1.349,3.735-1.744,4.651-3.702c0.914-1.959,1.342-2.25,2.311-1.269c0.745,0.753,0.716,2.818-0.24,4.277
			c-0.952,1.457-1.936,2.562-1.936,2.562s5.085,1.616,5.683,1.81c0.599,0.189,1.19,2.834-0.839,3.326c0,0,1.799,2.074-1.024,2.865
			c0,0,1.157,2.019-1.116,2.471c0,0,0.307,0.207,0.289,0.77c-0.023,0.655-0.445,1.649-1.733,1.237
			C226.34,248.237,218.036,245.593,218.036,245.593z"/>
	</g>
	<g>
		
			<path id="XMLID_71_" fill="none" stroke="#FFFFFF" stroke-width="2" stroke-linecap="round" stroke-linejoin="round" stroke-miterlimit="10" d="
			M307.824,211.44c2.611-3.371,6.425-5.832,10.951-6.661c9.744-1.785,19.085,4.662,20.872,14.406
			c0.75,4.104,0.041,8.136-1.761,11.563"/>
		<path id="XMLID_70_" fill="#FFFFFF" d="M317.191,229.091c0,0-1.462-5.517-2.778-7.024l1.444-0.264L317.191,229.091z"/>
		<path id="XMLID_69_" fill="#FFFFFF" d="M329.608,229.179c0,0-3.784-2.14-9.277-1.285c0,0-0.615-3.349-0.733-3.986
			c-0.208-1.142-0.561-3.069,0.221-5.013c0.778-1.941,2.475-3.295,2.365-5.453c-0.113-2.158,0.126-2.618,1.442-2.206
			c1.012,0.313,1.956,2.15,1.8,3.886c-0.156,1.735-0.505,3.172-0.505,3.172s5.248-0.962,5.867-1.075
			c0.617-0.113,2.379,1.943,0.822,3.331c0,0,2.563,0.986,0.445,3.011c0,0,1.969,1.237,0.174,2.706c0,0,0.368,0.038,0.617,0.541
			c0.289,0.589,0.384,1.666-0.947,1.909C329.423,229.173,329.608,229.179,329.608,229.179z"/>
	</g>
	<g>
		
			<path id="XMLID_68_" fill="none" stroke="#FFFFFF" stroke-width="2" stroke-linecap="round" stroke-linejoin="round" stroke-miterlimit="10" d="
			M266.317,285.053c4.806,1.646,8.888,5.319,10.888,10.424c3.612,9.219-0.932,19.625-10.155,23.239s-19.625-0.932-23.239-10.153
			c-1.029-2.626-1.395-5.342-1.185-7.972"/>
		
			<rect id="XMLID_67_" x="252.645" y="302.917" transform="matrix(0.9312 -0.3645 0.3645 0.9312 -94.8041 113.9797)" fill="#FFFFFF" width="3.736" height="10.39"/>
		<path id="XMLID_66_" fill="#FFFFFF" d="M260.966,310.414c0,0-2.109-5.389-2.534-6.471c-0.423-1.08-1.139-2.905-0.742-4.961
			c0.394-2.056,1.8-3.71,1.277-5.806c-0.522-2.099-0.373-2.593,0.996-2.443c1.055,0.116,2.332,1.739,2.509,3.472
			c0.18,1.733,0.11,3.21,0.11,3.21s4.969-1.946,5.555-2.176c0.584-0.228,2.706,1.454,1.442,3.115c0,0,2.704,0.478,1.012,2.869
			c0,0,2.168,0.839,0.689,2.624c0,0,0.368-0.034,0.709,0.414c0.395,0.523,0.694,1.561-0.566,2.054
			C269.079,307.233,260.966,310.414,260.966,310.414z"/>
	</g>
	
		<path id="XMLID_65_" fill="none" stroke="#FFFFFF" stroke-width="4" stroke-linecap="round" stroke-linejoin="round" stroke-miterlimit="10" d="
		M175.122,373.253c0,0,0,25.766,0,81.781c0,35.848-16.551,51.533-51.279,51.533c-39.07,0-55.454-18.906-55.454-51.533
		c0-36.409,24.085-48.732,47.88-48.732C132.526,406.302,154.257,406.302,175.122,373.253z"/>
	
		<path id="XMLID_64_" fill="none" stroke="#FFFFFF" stroke-width="4" stroke-linecap="round" stroke-linejoin="round" stroke-miterlimit="10" d="
		M144.437,166.919c0,0-25.766,0-81.781,0c-35.848,0-51.533,16.55-51.533,51.277c0,39.07,18.906,55.454,51.533,55.454
		c36.409,0,48.732-24.085,48.732-47.879C111.388,209.515,111.388,187.785,144.437,166.919z"/>
	
		<path id="XMLID_63_" fill="none" stroke="#FFFFFF" stroke-width="4" stroke-linecap="round" stroke-linejoin="round" stroke-miterlimit="10" d="
		M404.175,414.853c0,0,25.767,0,81.782,0c35.847,0,51.531-16.55,51.531-51.277c0-39.07-18.905-55.454-51.531-55.454
		c-36.411,0-48.732,24.085-48.732,47.879C437.225,372.257,437.225,393.988,404.175,414.853z"/>
	
		<path id="XMLID_62_" fill="none" stroke="#FFFFFF" stroke-width="4" stroke-linecap="round" stroke-linejoin="round" stroke-miterlimit="10" d="
		M374.723,206.804c0,0,0-25.767,0-81.782c0-35.847,16.55-51.531,51.277-51.531c39.07,0,55.454,18.905,55.454,51.531
		c0,36.411-24.085,48.732-47.878,48.732C417.319,173.754,395.589,173.754,374.723,206.804z"/>
	<g>
		<path id="XMLID_61_" fill-rule="evenodd" clip-rule="evenodd" fill="#FFFFFF" d="M120.747,467.535
			c-0.29,1.141-0.584,2.319-0.889,3.492c-0.581,2.222-1.162,4.439-1.751,6.656c-0.725,2.724-1.958,5.225-3.461,7.593
			c-0.875,1.378-1.789,2.734-2.719,4.078c-0.327,0.473-0.725,0.908-1.15,1.295c-0.558,0.505-1.021,0.338-1.086-0.407
			c-0.194-2.217-0.374-4.437-0.512-6.661c-0.207-3.418,0.436-6.746,1.241-10.043c1.513-6.218,3.033-12.434,4.542-18.649
			c0.048-0.198,0.023-0.448-0.054-0.637c-1.608-3.953-1.605-7.875,0.261-11.73c0.893-1.845,2.268-3.236,4.267-3.891
			c1.295-0.43,2.614-0.466,3.922-0.089c2.012,0.583,3.026,2.05,3.4,4.022c0.368,1.943,0.089,3.853-0.463,5.719
			c-0.899,3.064-1.831,6.115-2.763,9.168c-1.093,3.582,1.145,7.245,4.828,7.892c2.905,0.51,5.409-0.309,7.559-2.284
			c1.779-1.633,2.983-3.66,3.947-5.844c1.203-2.724,1.931-5.584,2.324-8.528c0.271-2.013,0.445-4.039,0.153-6.059
			c-0.798-5.496-3.669-9.419-8.878-11.517c-2.704-1.086-5.545-1.388-8.435-1.314c-2.557,0.066-5.044,0.505-7.408,1.5
			c-5.725,2.407-9.413,6.636-11.042,12.615c-0.793,2.908-0.868,5.849,0.048,8.763c0.41,1.306,1.109,2.46,2.018,3.474
			c0.594,0.661,0.827,1.359,0.553,2.247c-0.289,0.934-0.487,1.9-0.725,2.85c-0.294,1.191-1.178,1.649-2.293,1.124
			c-2.429-1.147-4.391-2.824-5.739-5.176c-1.154-2.013-1.777-4.196-2.073-6.482c-0.223-1.725-0.289-3.448-0.144-5.179
			c0.203-2.455,0.863-4.792,1.91-7.019c2.307-4.897,5.914-8.584,10.56-11.292c3.5-2.042,7.291-3.251,11.302-3.773
			c4.812-0.624,9.554-0.305,14.18,1.216c4.574,1.513,8.528,3.973,11.581,7.757c2.488,3.084,4.014,6.595,4.405,10.534
			c0.617,6.254-0.328,12.267-3.289,17.869c-2.165,4.099-5.274,7.291-9.446,9.385c-2.803,1.405-5.78,2.099-8.917,2.009
			c-2.905-0.085-5.588-0.871-7.854-2.767C121.971,468.879,121.388,468.187,120.747,467.535z"/>
	</g>
	
		<path id="XMLID_60_" fill="none" stroke="#FFFFFF" stroke-width="4" stroke-linecap="round" stroke-linejoin="round" stroke-miterlimit="10" d="
		M90.548,233.485c0,7.243-4.099,13.115-14.795,13.115H50.12c-9.603,0-14.796-5.872-14.796-13.115V204.49
		c0-7.243,5.192-13.115,14.796-13.115h25.633c10.696,0,14.795,5.872,14.795,13.115V233.485z"/>
	
		<circle id="XMLID_59_" fill="none" stroke="#FFFFFF" stroke-width="4" stroke-linecap="round" stroke-linejoin="round" stroke-miterlimit="10" cx="62.937" cy="219.932" r="13.128"/>
	<circle id="XMLID_58_" fill="#FFFFFF" cx="83.18" cy="203.023" r="3.781"/>
	<g>
		<path id="XMLID_57_" fill-rule="evenodd" clip-rule="evenodd" fill="#FFFFFF" d="M429.422,156.387c-4.39,0-6.869,0-11.248,0
			c0-0.331,0-0.633,0-0.935c0-9.812-0.007-19.62,0.018-29.429c0.002-0.722-0.172-0.944-0.909-0.914
			c-1.482,0.063-2.967,0.02-4.45,0.02c-0.256,0-2.306,0-2.598,0c0-3.715,0-6.684,0-10.383c2.037,0,5.826,0,7.939,0
			c0-0.351-0.002-1.28,0.003-1.557c0.023-2.603-0.095-5.225,0.112-7.816c0.336-4.189,2.015-7.703,5.814-9.904
			c1.774-1.024,3.724-1.551,5.75-1.597c3.656-0.077,5.522-0.02,9.234-0.02c0,3.543,0,7.069,0,10.711c-0.22,0-0.469,0-0.717,0
			c-2.061,0-4.117-0.01-6.175,0.003c-1.641,0.012-2.711,0.932-2.77,2.575c-0.08,2.268-0.02,5.195-0.02,7.557
			c3.285,0,6.546,0,9.904,0c-0.384,3.727-0.755,6.7-1.134,10.407c-2.921,0-5.801,0-8.753,0
			C429.422,135.559,429.422,145.927,429.422,156.387z"/>
	</g>
	<g>
		<path id="XMLID_56_" fill-rule="evenodd" clip-rule="evenodd" fill="#FFFFFF" d="M456.525,385.825
			c7.133,0.601,13.571-1.17,19.402-5.558c-6.093-0.523-10.171-3.566-12.426-9.283c2.038,0.271,3.927,0.294,5.832-0.235
			c-6.549-1.961-10.055-6.293-10.535-13.281c1.948,0.97,3.817,1.585,6.042,1.648c-3.374-2.463-5.322-5.606-5.763-9.564
			c-0.345-3.075,0.358-6.042,1.726-8.13c7.184,8.445,16.282,13.095,27.407,13.878c-0.084-0.793-0.202-1.513-0.231-2.24
			c-0.217-5.384,2.002-9.498,6.562-12.318c4.867-3.006,11.625-2.243,15.751,1.73c0.487,0.468,0.894,0.625,1.59,0.453
			c2.604-0.645,5.066-1.615,7.554-3.044c-1.052,3.146-2.913,5.44-5.47,7.326c0.783-0.141,1.574-0.258,2.347-0.437
			c0.821-0.19,1.636-0.415,2.442-0.671c0.776-0.246,1.536-0.551,2.304-0.83c0.039,0.044,0.081,0.089,0.12,0.133
			c-1.047,1.231-2.041,2.512-3.161,3.674c-0.901,0.945-1.941,1.759-2.947,2.598c-0.32,0.268-0.468,0.52-0.461,0.952
			c0.107,11.397-3.889,21.128-12.035,29.082c-5.182,5.055-11.454,8.1-18.573,9.372c-6.971,1.246-13.813,0.734-20.477-1.725
			C461.063,388.449,458.723,387.294,456.525,385.825z"/>
	</g>
	
		<path id="XMLID_55_" fill="none" stroke="#FFFFFF" stroke-width="5" stroke-linecap="round" stroke-linejoin="round" stroke-miterlimit="10" d="
		M401.228,222.281c15.649,18.353,25.117,42.148,25.18,68.162c0.061,26.253-9.477,50.286-25.293,68.785"/>
	
		<path id="XMLID_54_" fill="none" stroke="#FFFFFF" stroke-width="5" stroke-linecap="round" stroke-linejoin="round" stroke-miterlimit="10" d="
		M382.543,243.855c9.95,12.921,15.88,29.092,15.921,46.651c0.036,17.574-5.824,33.779-15.723,46.743"/>
	
		<path id="XMLID_53_" fill="none" stroke="#FFFFFF" stroke-width="5" stroke-linecap="round" stroke-linejoin="round" stroke-miterlimit="10" d="
		M148.616,222.281c-15.649,18.353-25.118,42.148-25.18,68.162c-0.061,26.253,9.477,50.286,25.293,68.785"/>
	
		<path id="XMLID_52_" fill="none" stroke="#FFFFFF" stroke-width="5" stroke-linecap="round" stroke-linejoin="round" stroke-miterlimit="10" d="
		M167.301,243.855c-9.95,12.921-15.88,29.092-15.921,46.651c-0.036,17.574,5.824,33.779,15.723,46.743"/>
	
		<path id="XMLID_51_" fill="none" stroke="#FFFFFF" stroke-width="5" stroke-linecap="round" stroke-linejoin="round" stroke-miterlimit="10" d="
		M94.666,290.706c0-3.159,0.105-6.293,0.314-9.4"/>
	
		<path id="XMLID_50_" fill="none" stroke="#FFFFFF" stroke-width="5" stroke-linecap="round" stroke-linejoin="round" stroke-miterlimit="10" d="
		M132.226,385.484c-19.441-20.667-32.596-47.314-36.413-76.887"/>
	
		<path id="XMLID_49_" fill="none" stroke="#FFFFFF" stroke-width="5" stroke-linecap="round" stroke-linejoin="round" stroke-miterlimit="10" d="
		M455.178,290.808c0,3.159-0.105,6.293-0.312,9.4"/>
	
		<path id="XMLID_48_" fill="none" stroke="#FFFFFF" stroke-width="5" stroke-linecap="round" stroke-linejoin="round" stroke-miterlimit="10" d="
		M417.618,196.031c19.441,20.667,32.597,47.314,36.414,76.887"/>
	
		<line id="XMLID_47_" fill="none" stroke="#FFFFFF" stroke-width="4" stroke-linecap="round" stroke-linejoin="round" stroke-miterlimit="10" x1="181.519" y1="105.295" x2="181.519" y2="128.468"/>
	
		<line id="XMLID_46_" fill="none" stroke="#FFFFFF" stroke-width="4" stroke-linecap="round" stroke-linejoin="round" stroke-miterlimit="10" x1="170.906" y1="116.882" x2="191.908" y2="116.882"/>
	
		<line id="XMLID_45_" fill="none" stroke="#FFFFFF" stroke-width="3" stroke-linecap="round" stroke-linejoin="round" stroke-miterlimit="10" x1="333.04" y1="114.921" x2="333.04" y2="135.743"/>
	
		<line id="XMLID_44_" fill="none" stroke="#FFFFFF" stroke-width="3" stroke-linecap="round" stroke-linejoin="round" stroke-miterlimit="10" x1="324.511" y1="125.334" x2="341.872" y2="125.334"/>
	
		<line id="XMLID_43_" fill="none" stroke="#FFFFFF" stroke-width="3" stroke-linecap="round" stroke-linejoin="round" stroke-miterlimit="10" x1="469.201" y1="189.114" x2="469.201" y2="209.935"/>
	
		<line id="XMLID_42_" fill="none" stroke="#FFFFFF" stroke-width="3" stroke-linecap="round" stroke-linejoin="round" stroke-miterlimit="10" x1="460.672" y1="199.526" x2="478.032" y2="199.526"/>
	
		<line id="XMLID_41_" fill="none" stroke="#FFFFFF" stroke-width="3" stroke-linecap="round" stroke-linejoin="round" stroke-miterlimit="10" x1="318.141" y1="474.16" x2="318.141" y2="494.981"/>
	
		<line id="XMLID_40_" fill="none" stroke="#FFFFFF" stroke-width="3" stroke-linecap="round" stroke-linejoin="round" stroke-miterlimit="10" x1="309.612" y1="484.572" x2="326.973" y2="484.572"/>
	
		<line id="XMLID_39_" fill="none" stroke="#FFFFFF" stroke-width="4" stroke-linecap="round" stroke-linejoin="round" stroke-miterlimit="10" x1="362.662" y1="33.203" x2="362.662" y2="56.376"/>
	
		<line id="XMLID_38_" fill="none" stroke="#FFFFFF" stroke-width="4" stroke-linecap="round" stroke-linejoin="round" stroke-miterlimit="10" x1="352.049" y1="44.791" x2="373.051" y2="44.791"/>
	
		<line id="XMLID_37_" fill="none" stroke="#FFFFFF" stroke-width="4" stroke-linecap="round" stroke-linejoin="round" stroke-miterlimit="10" x1="227.676" y1="453.626" x2="227.676" y2="476.799"/>
	
		<line id="XMLID_36_" fill="none" stroke="#FFFFFF" stroke-width="4" stroke-linecap="round" stroke-linejoin="round" stroke-miterlimit="10" x1="217.062" y1="465.213" x2="238.065" y2="465.213"/>
	
		<line id="XMLID_35_" fill="none" stroke="#FFFFFF" stroke-width="4" stroke-linecap="round" stroke-linejoin="round" stroke-miterlimit="10" x1="398.576" y1="483.394" x2="398.576" y2="506.567"/>
	
		<line id="XMLID_34_" fill="none" stroke="#FFFFFF" stroke-width="4" stroke-linecap="round" stroke-linejoin="round" stroke-miterlimit="10" x1="387.963" y1="494.981" x2="408.965" y2="494.981"/>
	
		<line id="XMLID_33_" fill="none" stroke="#FFFFFF" stroke-width="2" stroke-linecap="round" stroke-linejoin="round" stroke-miterlimit="10" x1="274.595" y1="83.483" x2="274.595" y2="98.806"/>
	
		<line id="XMLID_32_" fill="none" stroke="#FFFFFF" stroke-width="2" stroke-linecap="round" stroke-linejoin="round" stroke-miterlimit="10" x1="267.576" y1="91.144" x2="281.464" y2="91.144"/>
	
		<line id="XMLID_31_" fill="none" stroke="#FFFFFF" stroke-width="2" stroke-linecap="round" stroke-linejoin="round" stroke-miterlimit="10" x1="529.648" y1="258.349" x2="529.648" y2="273.673"/>
	
		<line id="XMLID_30_" fill="none" stroke="#FFFFFF" stroke-width="2" stroke-linecap="round" stroke-linejoin="round" stroke-miterlimit="10" x1="522.629" y1="266.011" x2="536.517" y2="266.011"/>
	
		<line id="XMLID_29_" fill="none" stroke="#FFFFFF" stroke-width="2" stroke-linecap="round" stroke-linejoin="round" stroke-miterlimit="10" x1="197.903" y1="500.054" x2="197.903" y2="515.378"/>
	
		<line id="XMLID_28_" fill="none" stroke="#FFFFFF" stroke-width="2" stroke-linecap="round" stroke-linejoin="round" stroke-miterlimit="10" x1="190.884" y1="507.716" x2="204.772" y2="507.716"/>
	
		<line id="XMLID_27_" fill="none" stroke="#FFFFFF" stroke-width="2" stroke-linecap="round" stroke-linejoin="round" stroke-miterlimit="10" x1="157.735" y1="56.584" x2="157.735" y2="71.908"/>
	
		<line id="XMLID_26_" fill="none" stroke="#FFFFFF" stroke-width="2" stroke-linecap="round" stroke-linejoin="round" stroke-miterlimit="10" x1="150.715" y1="64.246" x2="164.605" y2="64.246"/>
	<circle id="XMLID_25_" fill="#FFFFFF" cx="75.835" cy="143.142" r="3.252"/>
	<circle id="XMLID_24_" fill="#FFFFFF" cx="556.748" cy="298.511" r="3.252"/>
	<circle id="XMLID_23_" fill="#FFFFFF" cx="510.019" cy="174.233" r="3.253"/>
	<circle id="XMLID_22_" fill="#FFFFFF" cx="156.093" cy="527.398" r="3.253"/>
	<circle id="XMLID_21_" fill="#FFFFFF" cx="37.967" cy="413.568" r="3.253"/>
	<circle id="XMLID_20_" fill="#FFFFFF" cx="225.92" cy="64.245" r="3.568"/>
	<circle id="XMLID_19_" fill="#FFFFFF" cx="358.443" cy="507.716" r="3.568"/>
	
		<line id="XMLID_18_" fill="none" stroke="#FFFFFF" stroke-width="2" stroke-linecap="round" stroke-linejoin="round" stroke-miterlimit="10" x1="382.692" y1="432.248" x2="382.692" y2="447.572"/>
	
		<line id="XMLID_17_" fill="none" stroke="#FFFFFF" stroke-width="2" stroke-linecap="round" stroke-linejoin="round" stroke-miterlimit="10" x1="375.673" y1="439.91" x2="389.561" y2="439.91"/>
	
		<line id="XMLID_16_" fill="none" stroke="#FFFFFF" stroke-width="2" stroke-linecap="round" stroke-linejoin="round" stroke-miterlimit="10" x1="64.243" y1="360.987" x2="64.243" y2="376.31"/>
	
		<line id="XMLID_15_" fill="none" stroke="#FFFFFF" stroke-width="2" stroke-linecap="round" stroke-linejoin="round" stroke-miterlimit="10" x1="57.223" y1="368.649" x2="71.112" y2="368.649"/>
	
		<line id="XMLID_14_" fill="none" stroke="#FFFFFF" stroke-width="2" stroke-linecap="round" stroke-linejoin="round" stroke-miterlimit="10" x1="16.018" y1="338.135" x2="16.018" y2="348.823"/>
	
		<line id="XMLID_13_" fill="none" stroke="#FFFFFF" stroke-width="2" stroke-linecap="round" stroke-linejoin="round" stroke-miterlimit="10" x1="11.123" y1="343.48" x2="20.81" y2="343.48"/>
	<circle id="XMLID_12_" fill="#FFFFFF" cx="296.991" cy="450.057" r="3.568"/>
	<circle id="XMLID_11_" fill="#FFFFFF" cx="5.314" cy="297.751" r="3.568"/>
	<circle id="XMLID_10_" fill="#FFFFFF" cx="312.537" cy="44.791" r="4.713"/>
	<circle id="XMLID_9_" fill="#FFFFFF" cx="506.767" cy="229.762" r="4.713"/>
	<circle id="XMLID_8_" fill="#FFFFFF" cx="444.022" cy="446.489" r="4.713"/>
	<circle id="XMLID_7_" fill="#FFFFFF" cx="102.858" cy="382.028" r="4.713"/>
	<circle id="XMLID_6_" fill="#FFFFFF" cx="171.329" cy="182.602" r="4.028"/>
	<path id="XMLID_5_" fill="#FFFFFF" d="M119.611,105.297c0,3.09-2.504,5.594-5.596,5.594c-3.092,0-5.594-2.504-5.594-5.594
		c0-3.093,2.503-5.596,5.594-5.596C117.107,99.701,119.611,102.203,119.611,105.297z"/>
	<path id="XMLID_4_" fill="#FFFFFF" d="M275.261,498.554c0,3.09-2.504,5.594-5.596,5.594c-3.092,0-5.594-2.504-5.594-5.594
		c0-3.093,2.502-5.596,5.594-5.596C272.757,492.958,275.261,495.46,275.261,498.554z"/>
	<path id="XMLID_3_" fill="#FFFFFF" d="M67.682,309.58c0,3.09-2.504,5.594-5.596,5.594c-3.092,0-5.593-2.504-5.593-5.594
		c0-3.093,2.501-5.596,5.593-5.596C65.178,303.984,67.682,306.487,67.682,309.58z"/>
	<circle id="XMLID_2_" fill="#FFFFFF" cx="247.006" cy="131.025" r="4.237"/>
	<circle id="XMLID_1_" fill="#FFFFFF" cx="489.328" cy="272.918" r="4.237"/>
</g>
</svg>
