<?xml version="1.0" encoding="UTF-8" standalone="no"?>
<!-- Created with Inkscape (http://www.inkscape.org/) -->

<svg
   xmlns:dc="http://purl.org/dc/elements/1.1/"
   xmlns:cc="http://creativecommons.org/ns#"
   xmlns:rdf="http://www.w3.org/1999/02/22-rdf-syntax-ns#"
   xmlns:svg="http://www.w3.org/2000/svg"
   xmlns="http://www.w3.org/2000/svg"
   xmlns:sodipodi="http://sodipodi.sourceforge.net/DTD/sodipodi-0.dtd"
   xmlns:inkscape="http://www.inkscape.org/namespaces/inkscape"
   version="1.1"
   id="svg2"
   xml:space="preserve"
   width="442.95068"
   height="397.37067"
   viewBox="0 0 442.95068 397.37067"
   sodipodi:docname="rf social media.svg"
   inkscape:version="0.92.3 (2405546, 2018-03-11)"><title
     id="title4934">rule:fresh social media</title><metadata
     id="metadata8"><rdf:RDF><cc:Work
         rdf:about=""><dc:format>image/svg+xml</dc:format><dc:type
           rdf:resource="http://purl.org/dc/dcmitype/StillImage" /><dc:title>rule:fresh social media</dc:title><dc:date>14/06/18</dc:date><dc:creator><cc:Agent><dc:title>rule:fresh</dc:title></cc:Agent></dc:creator><dc:rights><cc:Agent><dc:title>rule:fresh</dc:title></cc:Agent></dc:rights><dc:publisher><cc:Agent><dc:title>rule:fresh</dc:title></cc:Agent></dc:publisher><dc:subject><rdf:Bag><rdf:li>rule:fresh</rdf:li><rdf:li>rulefresh</rdf:li><rdf:li>rf</rdf:li><rdf:li>social</rdf:li><rdf:li>media</rdf:li></rdf:Bag></dc:subject><dc:description>social media icon  by rule:fresh 
www.rulefresh.com</dc:description></cc:Work></rdf:RDF></metadata><defs
     id="defs6"><clipPath
       clipPathUnits="userSpaceOnUse"
       id="clipPath18"><path
         d="M 0,298.028 H 332.213 V 0 H 0 Z"
         id="path16"
         inkscape:connector-curvature="0" /></clipPath></defs><sodipodi:namedview
     pagecolor="#ffffff"
     bordercolor="#666666"
     borderopacity="1"
     objecttolerance="10"
     gridtolerance="10"
     guidetolerance="10"
     inkscape:pageopacity="0"
     inkscape:pageshadow="2"
     inkscape:window-width="640"
     inkscape:window-height="480"
     id="namedview4"
     showgrid="false"
     inkscape:pagecheckerboard="true"
     borderlayer="true"
     inkscape:zoom="0.76754533"
     inkscape:cx="-16.947058"
     inkscape:cy="198.68533"
     inkscape:current-layer="g10" /><g
     id="g10"
     inkscape:groupmode="layer"
     inkscape:label="Social Media Icon - White"
     transform="matrix(1.3333333,0,0,-1.3333333,0,397.37067)"><g
       id="g12"><g
         id="g14"
         clip-path="url(#clipPath18)"><g
           id="g20"
           transform="translate(212.2676,72.7676)"><path
             d="m 0,0 c 0,-6.627 -4.373,-12 -11,-12 h -72.273 c -6.627,0 -11,5.373 -11,12 v 136.491 c 0,6.628 4.373,12 11,12 H -11 c 6.627,0 11,-5.372 11,-12 z"
             style="fill:none;stroke:#ffffff;stroke-width:6;stroke-linecap:round;stroke-linejoin:round;stroke-miterlimit:10;stroke-dasharray:none;stroke-opacity:1"
             id="path22"
             inkscape:connector-curvature="0" /></g><g
           id="g24"
           transform="translate(117.9941,200.334)"><path
             d="M 0,0 H 94.273"
             style="fill:none;stroke:#ffffff;stroke-width:6;stroke-linecap:round;stroke-linejoin:round;stroke-miterlimit:10;stroke-dasharray:none;stroke-opacity:1"
             id="path26"
             inkscape:connector-curvature="0" /></g><g
           id="g28"
           transform="translate(117.9941,95.667)"><path
             d="M 0,0 H 94.273"
             style="fill:none;stroke:#ffffff;stroke-width:6;stroke-linecap:round;stroke-linejoin:round;stroke-miterlimit:10;stroke-dasharray:none;stroke-opacity:1"
             id="path30"
             inkscape:connector-curvature="0" /></g><g
           id="g32"
           transform="translate(173.5361,78.0293)"><path
             d="m 0,0 c 0,-4.648 -3.768,-8.417 -8.416,-8.417 -4.649,0 -8.417,3.769 -8.417,8.417 0,4.648 3.768,8.416 8.417,8.416 C -3.768,8.416 0,4.648 0,0 Z"
             style="fill:none;stroke:#ffffff;stroke-width:5;stroke-linecap:round;stroke-linejoin:round;stroke-miterlimit:10;stroke-dasharray:none;stroke-opacity:1"
             id="path34"
             inkscape:connector-curvature="0" /></g><g
           id="g36"
           transform="translate(153.5059,210.334)"><path
             d="M 0,0 H 23.25"
             style="fill:none;stroke:#ffffff;stroke-width:5;stroke-linecap:round;stroke-linejoin:round;stroke-miterlimit:10;stroke-dasharray:none;stroke-opacity:1"
             id="path38"
             inkscape:connector-curvature="0" /></g><g
           id="g40"
           transform="translate(157.4014,150.9346)"><path
             d="m 0,0 c -0.457,-5.876 -5.589,-10.271 -11.465,-9.813 -5.879,0.457 -10.27,5.59 -9.814,11.466 0.457,5.877 5.589,10.269 11.467,9.812 C -3.936,11.009 0.456,5.877 0,0 Z"
             style="fill:none;stroke:#ffffff;stroke-width:2;stroke-linecap:round;stroke-linejoin:round;stroke-miterlimit:10;stroke-dasharray:none;stroke-opacity:1"
             id="path42"
             inkscape:connector-curvature="0" /></g><g
           id="g44"
           transform="translate(142.0254,149.4844)"><path
             d="M 0,0 C -3.236,3.576 -1.562,7.53 1.715,7.305 2.949,7.22 4.289,5.949 4.836,4.429 c 0,0 1.205,2.349 3.529,2.359 3.287,0.016 4.508,-4.059 0.893,-7.296 C 6.854,-2.66 4.163,-4.229 4.163,-4.229 4.163,-4.229 2.802,-3.097 0,0"
             style="fill:#ffffff;fill-opacity:1;fill-rule:nonzero;stroke:none"
             id="path46"
             inkscape:connector-curvature="0" /></g><g
           id="g48"
           transform="translate(156.3223,162.0439)"><path
             d="m 0,0 c 2.483,3.172 6.665,4.797 10.848,3.816 5.738,-1.343 9.298,-7.084 7.954,-12.823 -0.906,-3.865 -3.807,-6.743 -7.358,-7.8"
             style="fill:none;stroke:#ffffff;stroke-width:2;stroke-linecap:round;stroke-linejoin:round;stroke-miterlimit:10;stroke-dasharray:none;stroke-opacity:1"
             id="path50"
             inkscape:connector-curvature="0" /></g><g
           id="g52"
           transform="translate(159.707,153.9414)"><path
             d="M 0,0 C -2.655,4.025 -0.399,7.68 2.806,6.959 4.012,6.687 5.144,5.228 5.453,3.642 c 0,0 1.548,2.138 3.847,1.795 C 12.551,4.953 13.139,0.739 9.074,-1.91 6.37,-3.671 3.472,-4.813 3.472,-4.813 3.472,-4.813 2.299,-3.487 0,0"
             style="fill:#ffffff;fill-opacity:1;fill-rule:nonzero;stroke:none"
             id="path54"
             inkscape:connector-curvature="0" /></g><g
           id="g56"
           transform="translate(183.4619,126.791)"><path
             d="M 0,0 C -0.426,0.54 -0.804,1.128 -1.128,1.762 -3.81,7.011 -1.728,13.438 3.522,16.119 8.771,18.8 15.197,16.721 17.88,11.471 20.214,6.898 18.937,1.432 15.101,-1.674"
             style="fill:none;stroke:#ffffff;stroke-width:2;stroke-linecap:round;stroke-linejoin:round;stroke-miterlimit:10;stroke-dasharray:none;stroke-opacity:1"
             id="path58"
             inkscape:connector-curvature="0" /></g><g
           id="g60"
           transform="translate(188.9883,128.9902)"><path
             d="m 0,0 c -4.628,1.358 -5.266,5.604 -2.354,7.125 1.096,0.572 2.903,0.189 4.165,-0.82 0,0 -0.202,2.632 1.777,3.855 C 6.381,11.891 9.551,9.055 8.16,4.406 7.235,1.315 5.762,-1.43 5.762,-1.43 5.762,-1.43 4.009,-1.175 0,0"
             style="fill:#ffffff;fill-opacity:1;fill-rule:nonzero;stroke:none"
             id="path62"
             inkscape:connector-curvature="0" /></g><g
           id="g64"
           transform="translate(155.8652,108.0176)"><path
             d="m 0,0 c -2.134,-5.493 -8.316,-8.218 -13.811,-6.084 -5.496,2.135 -8.218,8.318 -6.084,13.813 2.134,5.494 8.316,8.216 13.813,6.082 C -0.589,11.677 2.134,5.495 0,0 Z"
             style="fill:none;stroke:#ffffff;stroke-width:2;stroke-linecap:round;stroke-linejoin:round;stroke-miterlimit:10;stroke-dasharray:none;stroke-opacity:1"
             id="path66"
             inkscape:connector-curvature="0" /></g><g
           id="g68"
           transform="translate(140.7256,111.0703)"><path
             d="M 0,0 C -2.065,4.357 0.68,7.66 3.752,6.498 4.909,6.061 5.825,4.457 5.909,2.843 c 0,0 1.832,1.901 4.061,1.24 C 13.12,3.148 13.113,-1.105 8.717,-3.16 5.794,-4.526 2.765,-5.252 2.765,-5.252 2.765,-5.252 1.789,-3.774 0,0"
             style="fill:#ffffff;fill-opacity:1;fill-rule:nonzero;stroke:none"
             id="path70"
             inkscape:connector-curvature="0" /></g><g
           id="g72"
           transform="translate(204.083,163.3594)"><path
             d="m 0,0 c -2.134,-5.493 -8.316,-8.218 -13.811,-6.084 -5.496,2.135 -8.218,8.318 -6.084,13.813 2.134,5.494 8.316,8.216 13.813,6.082 C -0.589,11.677 2.134,5.495 0,0 Z"
             style="fill:none;stroke:#ffffff;stroke-width:2;stroke-linecap:round;stroke-linejoin:round;stroke-miterlimit:10;stroke-dasharray:none;stroke-opacity:1"
             id="path74"
             inkscape:connector-curvature="0" /></g><g
           id="g76"
           transform="translate(188.9434,166.4121)"><path
             d="M 0,0 C -2.065,4.357 0.68,7.66 3.752,6.498 4.909,6.061 5.825,4.457 5.909,2.843 c 0,0 1.832,1.901 4.061,1.24 C 13.12,3.148 13.113,-1.105 8.717,-3.16 5.794,-4.526 2.765,-5.252 2.765,-5.252 2.765,-5.252 1.789,-3.774 0,0"
             style="fill:#ffffff;fill-opacity:1;fill-rule:nonzero;stroke:none"
             id="path78"
             inkscape:connector-curvature="0" /></g><g
           id="g80"
           transform="translate(140.4053,186.6729)"><path
             d="m 0,0 c 0.167,0.662 0.397,1.315 0.698,1.957 2.506,5.335 8.861,7.627 14.198,5.12 5.333,-2.505 7.625,-8.858 5.121,-14.195 -1.989,-4.232 -6.402,-6.551 -10.805,-6.074"
             style="fill:none;stroke:#ffffff;stroke-width:2;stroke-linecap:round;stroke-linejoin:round;stroke-miterlimit:10;stroke-dasharray:none;stroke-opacity:1"
             id="path82"
             inkscape:connector-curvature="0" /></g><g
           id="g84"
           transform="translate(145.5264,183.6387)"><path
             d="M 0,0 C -1.761,4.49 1.204,7.596 4.189,6.227 5.313,5.709 6.117,4.048 6.091,2.432 c 0,0 1.958,1.771 4.136,0.958 3.079,-1.149 2.78,-5.392 -1.748,-7.139 -3.009,-1.163 -6.08,-1.68 -6.08,-1.68 0,0 -0.872,1.541 -2.399,5.429"
             style="fill:#ffffff;fill-opacity:1;fill-rule:nonzero;stroke:none"
             id="path86"
             inkscape:connector-curvature="0" /></g><g
           id="g88"
           transform="translate(179.6494,166.5439)"><path
             d="m 0,0 c -0.263,-0.05 -0.529,-0.09 -0.799,-0.121 -5.859,-0.666 -11.144,3.543 -11.809,9.399 -0.666,5.857 3.541,11.141 9.4,11.807 5.194,0.591 9.939,-2.653 11.41,-7.481"
             style="fill:none;stroke:#ffffff;stroke-width:2;stroke-linecap:round;stroke-linejoin:round;stroke-miterlimit:10;stroke-dasharray:none;stroke-opacity:1"
             id="path90"
             inkscape:connector-curvature="0" /></g><g
           id="g92"
           transform="translate(173.4248,173.8936)"><path
             d="m 0,0 c -3.854,2.897 -2.96,7.098 0.3,7.497 1.227,0.151 2.785,-0.843 3.61,-2.232 0,0 0.737,2.535 3.018,2.986 C 10.151,8.888 12.124,5.119 9.187,1.256 7.234,-1.312 4.89,-3.364 4.89,-3.364 4.89,-3.364 3.339,-2.51 0,0"
             style="fill:#ffffff;fill-opacity:1;fill-rule:nonzero;stroke:none"
             id="path94"
             inkscape:connector-curvature="0" /></g><g
           id="g96"
           transform="translate(200.0957,113.6064)"><path
             d="m 0,0 c 0,-5.894 -4.777,-10.672 -10.672,-10.672 -5.894,0 -10.672,4.778 -10.672,10.672 0,5.895 4.778,10.671 10.672,10.671 C -4.777,10.671 0,5.895 0,0 Z"
             style="fill:none;stroke:#ffffff;stroke-width:2;stroke-linecap:round;stroke-linejoin:round;stroke-miterlimit:10;stroke-dasharray:none;stroke-opacity:1"
             id="path98"
             inkscape:connector-curvature="0" /></g><path
           d="m 185.891,108.44 h -2.224 v 6.185 h 2.224 z"
           style="fill:#ffffff;fill-opacity:1;fill-rule:nonzero;stroke:none"
           id="path100"
           inkscape:connector-curvature="0" /><g
           id="g102"
           transform="translate(187.8555,108.8564)"><path
             d="M 0,0 V 4.135 C 0,4.825 0,5.991 0.666,7.045 1.33,8.099 2.469,8.709 2.635,9.984 2.801,11.26 2.99,11.502 3.717,11.121 4.275,10.828 4.631,9.652 4.354,8.653 4.076,7.654 3.717,6.851 3.717,6.851 h 3.55 c 0.374,0 1.184,-1.394 0.124,-2.039 0,0 1.394,-0.852 -0.063,-1.81 0,0 1.02,-0.936 -0.187,-1.603 0,0 0.211,-0.061 0.302,-0.383 C 7.549,0.64 7.489,0 6.684,0 Z"
             style="fill:#ffffff;fill-opacity:1;fill-rule:nonzero;stroke:none"
             id="path104"
             inkscape:connector-curvature="0" /></g><g
           id="g106"
           transform="translate(177.0488,106.6748)"><path
             d="m 0,0 c -1.926,-1.023 -4.183,-1.469 -6.507,-1.139 -5.837,0.829 -9.893,6.234 -9.063,12.068 0.83,5.837 6.232,9.892 12.067,9.062 2.18,-0.309 4.11,-1.258 5.633,-2.628"
             style="fill:none;stroke:#ffffff;stroke-width:2;stroke-linecap:round;stroke-linejoin:round;stroke-miterlimit:10;stroke-dasharray:none;stroke-opacity:1"
             id="path108"
             inkscape:connector-curvature="0" /></g><g
           id="g110"
           transform="translate(167.8184,111.4854)"><path
             d="M 0,0 -2.201,0.312 -1.33,6.436 0.871,6.122 Z"
             style="fill:#ffffff;fill-opacity:1;fill-rule:nonzero;stroke:none"
             id="path112"
             inkscape:connector-curvature="0" /></g><g
           id="g114"
           transform="translate(176.5996,110.6787)"><path
             d="m 0,0 -6.777,0.941 c 0,0 0.485,3.409 0.583,4.093 0.096,0.684 0.26,1.838 1.068,2.788 0.806,0.949 2.019,1.394 2.363,2.633 0.344,1.239 0.566,1.452 1.232,0.974 0.511,-0.37 0.698,-1.584 0.282,-2.534 C -1.664,7.945 -2.133,7.2 -2.133,7.2 c 0,0 1.904,-0.272 2.275,-0.324 C 0.142,6.876 -0.854,3.364 0,0"
             style="fill:#ffffff;fill-opacity:1;fill-rule:nonzero;stroke:none"
             id="path116"
             inkscape:connector-curvature="0" /></g><g
           id="g118"
           transform="translate(131.8672,113.7158)"><path
             d="m 0,0 c -0.186,0.054 -0.371,0.113 -0.555,0.179 -5.56,1.96 -8.476,8.054 -6.517,13.613 1.959,5.559 8.052,8.476 13.612,6.516 3.601,-1.27 6.093,-4.273 6.87,-7.743"
             style="fill:none;stroke:#ffffff;stroke-width:2;stroke-linecap:round;stroke-linejoin:round;stroke-miterlimit:10;stroke-dasharray:none;stroke-opacity:1"
             id="path120"
             inkscape:connector-curvature="0" /></g><g
           id="g122"
           transform="translate(129.8105,120.2617)"><path
             d="M 0,0 -2.098,0.739 -0.042,6.572 2.055,5.833 Z"
             style="fill:#ffffff;fill-opacity:1;fill-rule:nonzero;stroke:none"
             id="path124"
             inkscape:connector-curvature="0" /></g><g
           id="g126"
           transform="translate(141.1289,123.9834)"><path
             d="m 0,0 c 0.354,0.118 -3.545,1.243 -3.545,1.243 0,0 0.607,0.639 1.2,1.488 0.594,0.851 0.649,2.078 0.22,2.54 C -2.684,5.872 -2.943,5.706 -3.523,4.559 -4.104,3.411 -5.381,3.214 -6.357,2.44 -7.336,1.669 -7.724,0.568 -7.953,-0.082 c -0.231,-0.652 -1.375,-3.9 -1.375,-3.9 0,0 1.531,-0.539 3.235,-1.14 0,0 1.822,3.694 6.093,5.122"
             style="fill:#ffffff;fill-opacity:1;fill-rule:nonzero;stroke:none"
             id="path128"
             inkscape:connector-curvature="0" /></g><g
           id="g130"
           transform="translate(145.6221,170.4502)"><path
             d="m 0,0 c -1.788,-5.615 -7.79,-8.72 -13.407,-6.932 -5.617,1.788 -8.719,7.789 -6.932,13.406 1.788,5.617 7.789,8.719 13.406,6.931 C -1.316,11.617 1.788,5.618 0,0 Z"
             style="fill:none;stroke:#ffffff;stroke-width:2;stroke-linecap:round;stroke-linejoin:round;stroke-miterlimit:10;stroke-dasharray:none;stroke-opacity:1"
             id="path132"
             inkscape:connector-curvature="0" /></g><g
           id="g134"
           transform="translate(130.5186,169.8359)"><path
             d="M 0,0 -2.118,0.676 -0.243,6.568 1.876,5.894 Z"
             style="fill:#ffffff;fill-opacity:1;fill-rule:nonzero;stroke:none"
             id="path136"
             inkscape:connector-curvature="0" /></g><g
           id="g138"
           transform="translate(132.5176,169.6367)"><path
             d="M 0,0 C 0,0 1.044,3.28 1.254,3.941 1.463,4.599 1.816,5.709 2.771,6.512 3.723,7.314 4.994,7.55 5.539,8.715 6.083,9.881 6.338,10.054 6.914,9.47 7.357,9.021 7.34,7.793 6.771,6.925 6.205,6.058 5.619,5.4 5.619,5.4 c 0,0 3.027,-0.962 3.382,-1.077 0.356,-0.112 0.708,-1.686 -0.499,-1.979 0,0 1.07,-1.235 -0.609,-1.705 0,0 0.688,-1.201 -0.664,-1.471 0,0 0.182,-0.123 0.171,-0.458 C 7.387,-1.68 7.136,-2.271 6.369,-2.026 4.941,-1.573 0,0 0,0"
             style="fill:#ffffff;fill-opacity:1;fill-rule:nonzero;stroke:none"
             id="path140"
             inkscape:connector-curvature="0" /></g><g
           id="g142"
           transform="translate(184.9492,189.9609)"><path
             d="m 0,0 c 1.554,2.006 3.823,3.471 6.517,3.964 5.798,1.062 11.357,-2.775 12.42,-8.573 0.447,-2.443 0.025,-4.842 -1.047,-6.881"
             style="fill:none;stroke:#ffffff;stroke-width:2;stroke-linecap:round;stroke-linejoin:round;stroke-miterlimit:10;stroke-dasharray:none;stroke-opacity:1"
             id="path144"
             inkscape:connector-curvature="0" /></g><g
           id="g146"
           transform="translate(190.5234,179.457)"><path
             d="m 0,0 c 0,0 -0.87,3.283 -1.653,4.18 l 0.859,0.157 z"
             style="fill:#ffffff;fill-opacity:1;fill-rule:nonzero;stroke:none"
             id="path148"
             inkscape:connector-curvature="0" /></g><g
           id="g150"
           transform="translate(197.9131,179.4043)"><path
             d="m 0,0 c 0,0 -2.252,1.273 -5.521,0.765 0,0 -0.366,1.993 -0.436,2.372 -0.124,0.679 -0.334,1.826 0.132,2.983 0.463,1.155 1.472,1.961 1.407,3.245 -0.067,1.284 0.075,1.558 0.858,1.313 0.603,-0.187 1.164,-1.28 1.072,-2.313 -0.093,-1.032 -0.301,-1.887 -0.301,-1.887 0,0 3.123,0.572 3.491,0.639 0.367,0.068 1.416,-1.156 0.489,-1.982 0,0 1.526,-0.587 0.265,-1.792 0,0 1.172,-0.737 0.104,-1.611 0,0 0.218,-0.022 0.367,-0.322 C 2.099,1.06 2.155,0.419 1.363,0.274 -0.11,0.004 0,0 0,0"
             style="fill:#ffffff;fill-opacity:1;fill-rule:nonzero;stroke:none"
             id="path152"
             inkscape:connector-curvature="0" /></g><g
           id="g154"
           transform="translate(160.249,146.1543)"><path
             d="m 0,0 c 2.86,-0.979 5.289,-3.165 6.479,-6.203 2.15,-5.486 -0.554,-11.679 -6.042,-13.829 -5.489,-2.151 -11.679,0.554 -13.83,6.042 -0.612,1.562 -0.83,3.178 -0.705,4.744"
             style="fill:none;stroke:#ffffff;stroke-width:2;stroke-linecap:round;stroke-linejoin:round;stroke-miterlimit:10;stroke-dasharray:none;stroke-opacity:1"
             id="path156"
             inkscape:connector-curvature="0" /></g><g
           id="g158"
           transform="translate(155.3877,129.959)"><path
             d="m 0,0 -2.07,-0.811 -2.256,5.757 2.069,0.813 z"
             style="fill:#ffffff;fill-opacity:1;fill-rule:nonzero;stroke:none"
             id="path160"
             inkscape:connector-curvature="0" /></g><g
           id="g162"
           transform="translate(157.0645,131.0625)"><path
             d="m 0,0 c 0,0 -1.255,3.207 -1.508,3.851 -0.252,0.642 -0.678,1.728 -0.441,2.952 0.234,1.223 1.071,2.208 0.76,3.455 -0.311,1.249 -0.222,1.543 0.592,1.454 0.628,-0.069 1.388,-1.035 1.493,-2.066 0.108,-1.032 0.066,-1.911 0.066,-1.911 0,0 2.957,1.159 3.306,1.295 0.347,0.136 1.61,-0.865 0.858,-1.853 0,0 1.609,-0.284 0.603,-1.707 0,0 1.29,-0.499 0.41,-1.562 0,0 0.218,0.021 0.422,-0.246 C 6.796,3.351 6.974,2.733 6.224,2.439 4.828,1.893 0,0 0,0"
             style="fill:#ffffff;fill-opacity:1;fill-rule:nonzero;stroke:none"
             id="path164"
             inkscape:connector-curvature="0" /></g><g
           id="g166"
           transform="translate(105.9795,93.667)"><path
             d="M 0,0 V -48.667 C 0,-70 -9.85,-79.334 -30.516,-79.334 c -23.25,0 -33,11.251 -33,30.667 0,21.667 14.333,29 28.494,29 9.673,0 22.605,0 35.022,19.667 z"
             style="fill:none;stroke:#ffffff;stroke-width:4;stroke-linecap:round;stroke-linejoin:round;stroke-miterlimit:10;stroke-dasharray:none;stroke-opacity:1"
             id="path168"
             inkscape:connector-curvature="0" /></g><g
           id="g170"
           transform="translate(87.7188,216.4551)"><path
             d="M 0,0 H -48.667 C -70,0 -79.334,-9.849 -79.334,-30.515 c 0,-23.25 11.251,-33 30.667,-33 21.667,0 29,14.333 29,28.493 0,9.673 0,22.605 19.667,35.022 z"
             style="fill:none;stroke:#ffffff;stroke-width:4;stroke-linecap:round;stroke-linejoin:round;stroke-miterlimit:10;stroke-dasharray:none;stroke-opacity:1"
             id="path172"
             inkscape:connector-curvature="0" /></g><g
           id="g174"
           transform="translate(242.2871,68.9111)"><path
             d="M 0,0 H 48.668 C 70,0 79.334,9.849 79.334,30.515 c 0,23.25 -11.25,33 -30.666,33 -21.668,0 -29,-14.333 -29,-28.493 C 19.668,25.349 19.668,12.417 0,0 Z"
             style="fill:none;stroke:#ffffff;stroke-width:4;stroke-linecap:round;stroke-linejoin:round;stroke-miterlimit:10;stroke-dasharray:none;stroke-opacity:1"
             id="path176"
             inkscape:connector-curvature="0" /></g><g
           id="g178"
           transform="translate(224.7607,192.7197)"><path
             d="M 0,0 V 48.668 C 0,70 9.849,79.334 30.515,79.334 c 23.25,0 33,-11.25 33,-30.666 0,-21.668 -14.333,-29 -28.493,-29 C 25.349,19.668 12.417,19.668 0,0 Z"
             style="fill:none;stroke:#ffffff;stroke-width:4;stroke-linecap:round;stroke-linejoin:round;stroke-miterlimit:10;stroke-dasharray:none;stroke-opacity:1"
             id="path180"
             inkscape:connector-curvature="0" /></g><g
           id="g182"
           transform="translate(73.6211,37.5605)"><path
             d="M 0,0 C -0.173,-0.679 -0.348,-1.38 -0.529,-2.078 -0.875,-3.4 -1.221,-4.72 -1.571,-6.039 c -0.432,-1.621 -1.165,-3.109 -2.06,-4.519 -0.52,-0.82 -1.064,-1.627 -1.618,-2.426 -0.194,-0.282 -0.432,-0.54 -0.685,-0.771 -0.332,-0.301 -0.607,-0.201 -0.646,0.242 -0.115,1.32 -0.223,2.641 -0.305,3.964 -0.123,2.034 0.26,4.015 0.739,5.977 0.9,3.7 1.804,7.399 2.703,11.097 0.028,0.119 0.013,0.267 -0.033,0.379 -0.957,2.353 -0.955,4.687 0.156,6.981 0.531,1.097 1.349,1.926 2.539,2.315 0.77,0.256 1.555,0.278 2.334,0.053 C 2.75,16.906 3.354,16.033 3.576,14.859 3.795,13.703 3.629,12.566 3.301,11.456 2.766,9.633 2.211,7.817 1.656,6 1.006,3.868 2.338,1.688 4.529,1.304 6.258,1 7.748,1.487 9.027,2.663 c 1.059,0.972 1.776,2.178 2.349,3.478 0.716,1.621 1.149,3.323 1.383,5.075 0.161,1.198 0.264,2.403 0.091,3.605 -0.475,3.271 -2.184,5.606 -5.284,6.854 C 5.957,22.321 4.267,22.501 2.547,22.457 1.025,22.418 -0.455,22.156 -1.861,21.564 -5.269,20.132 -7.463,17.615 -8.433,14.058 -8.904,12.327 -8.949,10.577 -8.404,8.843 -8.16,8.065 -7.744,7.379 -7.203,6.775 -6.85,6.382 -6.711,5.967 -6.874,5.438 -7.046,4.883 -7.164,4.308 -7.306,3.742 -7.48,3.033 -8.007,2.761 -8.67,3.073 c -1.445,0.683 -2.613,1.681 -3.415,3.08 -0.686,1.199 -1.058,2.497 -1.233,3.858 -0.133,1.026 -0.172,2.052 -0.086,3.082 0.121,1.461 0.513,2.851 1.136,4.177 1.373,2.914 3.52,5.108 6.285,6.719 2.083,1.215 4.338,1.935 6.725,2.245 2.863,0.371 5.686,0.182 8.439,-0.723 2.721,-0.901 5.075,-2.365 6.891,-4.616 1.481,-1.835 2.389,-3.925 2.621,-6.269 C 19.061,10.904 18.498,7.326 16.736,3.992 15.448,1.553 13.598,-0.347 11.115,-1.593 9.447,-2.429 7.676,-2.842 5.809,-2.788 4.08,-2.737 2.483,-2.27 1.135,-1.142 0.729,-0.8 0.382,-0.388 0,0"
             style="fill:#ffffff;fill-opacity:1;fill-rule:evenodd;stroke:none"
             id="path184"
             inkscape:connector-curvature="0" /></g><g
           id="g186"
           transform="translate(55.6504,176.8418)"><path
             d="m 0,0 c 0,-4.311 -2.439,-7.805 -8.805,-7.805 h -15.254 c -5.714,0 -8.804,3.494 -8.804,7.805 v 17.255 c 0,4.31 3.09,7.805 8.804,7.805 H -8.805 C -2.439,25.06 0,21.565 0,17.255 Z"
             style="fill:none;stroke:#ffffff;stroke-width:4;stroke-linecap:round;stroke-linejoin:round;stroke-miterlimit:10;stroke-dasharray:none;stroke-opacity:1"
             id="path188"
             inkscape:connector-curvature="0" /></g><g
           id="g190"
           transform="translate(47.0313,184.9072)"><path
             d="m 0,0 c 0,-4.314 -3.498,-7.812 -7.812,-7.812 -4.315,0 -7.813,3.498 -7.813,7.812 0,4.314 3.498,7.812 7.813,7.812 C -3.498,7.812 0,4.314 0,0 Z"
             style="fill:none;stroke:#ffffff;stroke-width:4;stroke-linecap:round;stroke-linejoin:round;stroke-miterlimit:10;stroke-dasharray:none;stroke-opacity:1"
             id="path192"
             inkscape:connector-curvature="0" /></g><g
           id="g194"
           transform="translate(50.7109,194.9697)"><path
             d="m 0,0 c 0,-1.242 -1.008,-2.25 -2.25,-2.25 -1.242,0 -2.25,1.008 -2.25,2.25 0,1.242 1.008,2.25 2.25,2.25 C -1.008,2.25 0,1.242 0,0"
             style="fill:#ffffff;fill-opacity:1;fill-rule:nonzero;stroke:none"
             id="path196"
             inkscape:connector-curvature="0" /></g><g
           id="g198"
           transform="translate(257.3115,222.7227)"><path
             d="m 0,0 h -6.693 v 0.557 c 0,5.839 -0.004,11.675 0.01,17.512 10e-4,0.43 -0.102,0.562 -0.541,0.544 -0.881,-0.037 -1.765,-0.011 -2.648,-0.011 h -1.546 v 6.178 h 4.725 c 0,0.209 -0.001,0.762 0.002,0.927 0.013,1.549 -0.057,3.109 0.066,4.651 0.2,2.494 1.199,4.584 3.46,5.894 1.056,0.609 2.216,0.923 3.422,0.95 2.176,0.046 3.286,0.012 5.495,0.012 V 30.84 H 5.325 C 4.099,30.84 2.875,30.846 1.65,30.838 0.674,30.831 0.037,30.283 0.002,29.306 -0.046,27.956 -0.01,26.214 -0.01,24.809 H 5.884 C 5.655,22.591 5.435,20.821 5.209,18.615 H 0 Z"
             style="fill:#ffffff;fill-opacity:1;fill-rule:evenodd;stroke:none"
             id="path200"
             inkscape:connector-curvature="0" /></g><g
           id="g202"
           transform="translate(273.4404,86.1855)"><path
             d="M 0,0 C 4.245,-0.357 8.076,0.696 11.546,3.308 7.92,3.619 5.493,5.43 4.151,8.832 5.364,8.671 6.488,8.657 7.622,8.972 3.725,10.139 1.639,12.717 1.353,16.875 2.512,16.298 3.624,15.932 4.948,15.895 2.94,17.36 1.781,19.23 1.519,21.586 c -0.206,1.83 0.212,3.596 1.027,4.838 4.275,-5.026 9.689,-7.793 16.309,-8.259 -0.049,0.472 -0.12,0.9 -0.137,1.333 -0.129,3.204 1.191,5.652 3.905,7.33 2.897,1.789 6.918,1.335 9.373,-1.029 0.29,-0.278 0.532,-0.372 0.946,-0.27 1.55,0.384 3.015,0.961 4.496,1.812 -0.626,-1.872 -1.734,-3.237 -3.255,-4.36 0.465,0.084 0.936,0.154 1.396,0.26 0.488,0.113 0.974,0.247 1.453,0.4 0.462,0.146 0.914,0.328 1.371,0.494 0.024,-0.027 0.048,-0.053 0.072,-0.079 C 37.852,23.323 37.26,22.561 36.594,21.869 36.058,21.307 35.438,20.822 34.84,20.323 34.649,20.164 34.562,20.014 34.565,19.757 34.629,12.975 32.251,7.184 27.403,2.45 24.319,-0.558 20.587,-2.37 16.351,-3.127 12.202,-3.868 8.131,-3.563 4.165,-2.101 2.7,-1.562 1.308,-0.874 0,0"
             style="fill:#ffffff;fill-opacity:1;fill-rule:evenodd;stroke:none"
             id="path204"
             inkscape:connector-curvature="0" /></g><g
           id="g206"
           transform="translate(240.5332,183.5098)"><path
             d="M 0,0 C 9.313,-10.922 14.947,-25.082 14.984,-40.563 15.021,-56.186 9.345,-70.487 -0.067,-81.496"
             style="fill:none;stroke:#ffffff;stroke-width:5;stroke-linecap:round;stroke-linejoin:round;stroke-miterlimit:10;stroke-dasharray:none;stroke-opacity:1"
             id="path208"
             inkscape:connector-curvature="0" /></g><g
           id="g210"
           transform="translate(229.4141,170.6709)"><path
             d="M 0,0 C 5.921,-7.689 9.45,-17.312 9.475,-27.762 9.496,-38.22 6.009,-47.863 0.118,-55.578"
             style="fill:none;stroke:#ffffff;stroke-width:5;stroke-linecap:round;stroke-linejoin:round;stroke-miterlimit:10;stroke-dasharray:none;stroke-opacity:1"
             id="path212"
             inkscape:connector-curvature="0" /></g><g
           id="g214"
           transform="translate(90.2061,183.5098)"><path
             d="m 0,0 c -9.313,-10.922 -14.947,-25.082 -14.984,-40.563 -0.037,-15.623 5.639,-29.924 15.051,-40.933"
             style="fill:none;stroke:#ffffff;stroke-width:5;stroke-linecap:round;stroke-linejoin:round;stroke-miterlimit:10;stroke-dasharray:none;stroke-opacity:1"
             id="path216"
             inkscape:connector-curvature="0" /></g><g
           id="g218"
           transform="translate(101.3252,170.6709)"><path
             d="m 0,0 c -5.921,-7.689 -9.45,-17.312 -9.475,-27.762 -0.021,-10.458 3.466,-20.101 9.357,-27.816"
             style="fill:none;stroke:#ffffff;stroke-width:5;stroke-linecap:round;stroke-linejoin:round;stroke-miterlimit:10;stroke-dasharray:none;stroke-opacity:1"
             id="path220"
             inkscape:connector-curvature="0" /></g><g
           id="g222"
           transform="translate(58.1006,142.79)"><path
             d="M 0,0 C 0,1.88 0.062,3.745 0.187,5.594"
             style="fill:none;stroke:#ffffff;stroke-width:5;stroke-linecap:round;stroke-linejoin:round;stroke-miterlimit:10;stroke-dasharray:none;stroke-opacity:1"
             id="path224"
             inkscape:connector-curvature="0" /></g><g
           id="g226"
           transform="translate(80.4521,86.3887)"><path
             d="M 0,0 C -11.569,12.299 -19.397,28.156 -21.669,45.755"
             style="fill:none;stroke:#ffffff;stroke-width:5;stroke-linecap:round;stroke-linejoin:round;stroke-miterlimit:10;stroke-dasharray:none;stroke-opacity:1"
             id="path228"
             inkscape:connector-curvature="0" /></g><g
           id="g230"
           transform="translate(272.6387,142.7295)"><path
             d="M 0,0 C 0,-1.88 -0.062,-3.745 -0.186,-5.594"
             style="fill:none;stroke:#ffffff;stroke-width:5;stroke-linecap:round;stroke-linejoin:round;stroke-miterlimit:10;stroke-dasharray:none;stroke-opacity:1"
             id="path232"
             inkscape:connector-curvature="0" /></g><g
           id="g234"
           transform="translate(250.2871,199.1309)"><path
             d="M 0,0 C 11.569,-12.299 19.398,-28.156 21.67,-45.755"
             style="fill:none;stroke:#ffffff;stroke-width:5;stroke-linecap:round;stroke-linejoin:round;stroke-miterlimit:10;stroke-dasharray:none;stroke-opacity:1"
             id="path236"
             inkscape:connector-curvature="0" /></g><g
           id="g238"
           transform="translate(109.7861,253.127)"><path
             d="M 0,0 V -13.79"
             style="fill:none;stroke:#ffffff;stroke-width:4;stroke-linecap:round;stroke-linejoin:round;stroke-miterlimit:10;stroke-dasharray:none;stroke-opacity:1"
             id="path240"
             inkscape:connector-curvature="0" /></g><g
           id="g242"
           transform="translate(103.4707,246.2314)"><path
             d="M 0,0 H 12.498"
             style="fill:none;stroke:#ffffff;stroke-width:4;stroke-linecap:round;stroke-linejoin:round;stroke-miterlimit:10;stroke-dasharray:none;stroke-opacity:1"
             id="path244"
             inkscape:connector-curvature="0" /></g><g
           id="g246"
           transform="translate(199.9551,247.3984)"><path
             d="M 0,0 V -12.391"
             style="fill:none;stroke:#ffffff;stroke-width:3;stroke-linecap:round;stroke-linejoin:round;stroke-miterlimit:10;stroke-dasharray:none;stroke-opacity:1"
             id="path248"
             inkscape:connector-curvature="0" /></g><g
           id="g250"
           transform="translate(194.8799,241.2021)"><path
             d="M 0,0 H 10.331"
             style="fill:none;stroke:#ffffff;stroke-width:3;stroke-linecap:round;stroke-linejoin:round;stroke-miterlimit:10;stroke-dasharray:none;stroke-opacity:1"
             id="path252"
             inkscape:connector-curvature="0" /></g><g
           id="g254"
           transform="translate(280.9834,203.2471)"><path
             d="M 0,0 V -12.391"
             style="fill:none;stroke:#ffffff;stroke-width:3;stroke-linecap:round;stroke-linejoin:round;stroke-miterlimit:10;stroke-dasharray:none;stroke-opacity:1"
             id="path256"
             inkscape:connector-curvature="0" /></g><g
           id="g258"
           transform="translate(275.9082,197.0508)"><path
             d="M 0,0 H 10.331"
             style="fill:none;stroke:#ffffff;stroke-width:3;stroke-linecap:round;stroke-linejoin:round;stroke-miterlimit:10;stroke-dasharray:none;stroke-opacity:1"
             id="path260"
             inkscape:connector-curvature="0" /></g><g
           id="g262"
           transform="translate(191.0889,33.6182)"><path
             d="M 0,0 V -12.391"
             style="fill:none;stroke:#ffffff;stroke-width:3;stroke-linecap:round;stroke-linejoin:round;stroke-miterlimit:10;stroke-dasharray:none;stroke-opacity:1"
             id="path264"
             inkscape:connector-curvature="0" /></g><g
           id="g266"
           transform="translate(186.0137,27.4219)"><path
             d="M 0,0 H 10.331"
             style="fill:none;stroke:#ffffff;stroke-width:3;stroke-linecap:round;stroke-linejoin:round;stroke-miterlimit:10;stroke-dasharray:none;stroke-opacity:1"
             id="path268"
             inkscape:connector-curvature="0" /></g><g
           id="g270"
           transform="translate(217.583,296.0283)"><path
             d="M 0,0 V -13.79"
             style="fill:none;stroke:#ffffff;stroke-width:4;stroke-linecap:round;stroke-linejoin:round;stroke-miterlimit:10;stroke-dasharray:none;stroke-opacity:1"
             id="path272"
             inkscape:connector-curvature="0" /></g><g
           id="g274"
           transform="translate(211.2676,289.1328)"><path
             d="M 0,0 H 12.498"
             style="fill:none;stroke:#ffffff;stroke-width:4;stroke-linecap:round;stroke-linejoin:round;stroke-miterlimit:10;stroke-dasharray:none;stroke-opacity:1"
             id="path276"
             inkscape:connector-curvature="0" /></g><g
           id="g278"
           transform="translate(137.2539,45.8379)"><path
             d="M 0,0 V -13.79"
             style="fill:none;stroke:#ffffff;stroke-width:4;stroke-linecap:round;stroke-linejoin:round;stroke-miterlimit:10;stroke-dasharray:none;stroke-opacity:1"
             id="path280"
             inkscape:connector-curvature="0" /></g><g
           id="g282"
           transform="translate(130.9375,38.9424)"><path
             d="M 0,0 H 12.499"
             style="fill:none;stroke:#ffffff;stroke-width:4;stroke-linecap:round;stroke-linejoin:round;stroke-miterlimit:10;stroke-dasharray:none;stroke-opacity:1"
             id="path284"
             inkscape:connector-curvature="0" /></g><g
           id="g286"
           transform="translate(238.9551,28.123)"><path
             d="M 0,0 V -13.79"
             style="fill:none;stroke:#ffffff;stroke-width:4;stroke-linecap:round;stroke-linejoin:round;stroke-miterlimit:10;stroke-dasharray:none;stroke-opacity:1"
             id="path288"
             inkscape:connector-curvature="0" /></g><g
           id="g290"
           transform="translate(232.6396,21.2275)"><path
             d="M 0,0 H 12.498"
             style="fill:none;stroke:#ffffff;stroke-width:4;stroke-linecap:round;stroke-linejoin:round;stroke-miterlimit:10;stroke-dasharray:none;stroke-opacity:1"
             id="path292"
             inkscape:connector-curvature="0" /></g><g
           id="g294"
           transform="translate(165.1748,266.1074)"><path
             d="M 0,0 V -9.119"
             style="fill:none;stroke:#ffffff;stroke-width:2;stroke-linecap:round;stroke-linejoin:round;stroke-miterlimit:10;stroke-dasharray:none;stroke-opacity:1"
             id="path296"
             inkscape:connector-curvature="0" /></g><g
           id="g298"
           transform="translate(160.998,261.5479)"><path
             d="M 0,0 H 8.265"
             style="fill:none;stroke:#ffffff;stroke-width:2;stroke-linecap:round;stroke-linejoin:round;stroke-miterlimit:10;stroke-dasharray:none;stroke-opacity:1"
             id="path300"
             inkscape:connector-curvature="0" /></g><g
           id="g302"
           transform="translate(316.9551,162.0459)"><path
             d="M 0,0 V -9.119"
             style="fill:none;stroke:#ffffff;stroke-width:2;stroke-linecap:round;stroke-linejoin:round;stroke-miterlimit:10;stroke-dasharray:none;stroke-opacity:1"
             id="path304"
             inkscape:connector-curvature="0" /></g><g
           id="g306"
           transform="translate(312.7783,157.4863)"><path
             d="M 0,0 H 8.265"
             style="fill:none;stroke:#ffffff;stroke-width:2;stroke-linecap:round;stroke-linejoin:round;stroke-miterlimit:10;stroke-dasharray:none;stroke-opacity:1"
             id="path308"
             inkscape:connector-curvature="0" /></g><g
           id="g310"
           transform="translate(119.5361,18.209)"><path
             d="M 0,0 V -9.119"
             style="fill:none;stroke:#ffffff;stroke-width:2;stroke-linecap:round;stroke-linejoin:round;stroke-miterlimit:10;stroke-dasharray:none;stroke-opacity:1"
             id="path312"
             inkscape:connector-curvature="0" /></g><g
           id="g314"
           transform="translate(115.3594,13.6494)"><path
             d="M 0,0 H 8.265"
             style="fill:none;stroke:#ffffff;stroke-width:2;stroke-linecap:round;stroke-linejoin:round;stroke-miterlimit:10;stroke-dasharray:none;stroke-opacity:1"
             id="path316"
             inkscape:connector-curvature="0" /></g><g
           id="g318"
           transform="translate(95.6328,282.1143)"><path
             d="M 0,0 V -9.119"
             style="fill:none;stroke:#ffffff;stroke-width:2;stroke-linecap:round;stroke-linejoin:round;stroke-miterlimit:10;stroke-dasharray:none;stroke-opacity:1"
             id="path320"
             inkscape:connector-curvature="0" /></g><g
           id="g322"
           transform="translate(91.4551,277.5547)"><path
             d="M 0,0 H 8.266"
             style="fill:none;stroke:#ffffff;stroke-width:2;stroke-linecap:round;stroke-linejoin:round;stroke-miterlimit:10;stroke-dasharray:none;stroke-opacity:1"
             id="path324"
             inkscape:connector-curvature="0" /></g><g
           id="g326"
           transform="translate(46.0254,230.6045)"><path
             d="m 0,0 c 0,-1.069 -0.866,-1.937 -1.936,-1.937 -1.07,0 -1.935,0.868 -1.935,1.937 0,1.069 0.865,1.936 1.935,1.936 C -0.866,1.936 0,1.069 0,0"
             style="fill:#ffffff;fill-opacity:1;fill-rule:nonzero;stroke:none"
             id="path328"
             inkscape:connector-curvature="0" /></g><g
           id="g330"
           transform="translate(332.2129,138.1455)"><path
             d="m 0,0 c 0,-1.069 -0.866,-1.937 -1.936,-1.937 -1.07,0 -1.935,0.868 -1.935,1.937 0,1.069 0.865,1.936 1.935,1.936 C -0.866,1.936 0,1.069 0,0"
             style="fill:#ffffff;fill-opacity:1;fill-rule:nonzero;stroke:none"
             id="path332"
             inkscape:connector-curvature="0" /></g><g
           id="g334"
           transform="translate(304.4053,212.1025)"><path
             d="m 0,0 c 0,-1.069 -0.866,-1.937 -1.936,-1.937 -1.07,0 -1.935,0.868 -1.935,1.937 0,1.069 0.865,1.936 1.935,1.936 C -0.866,1.936 0,1.069 0,0"
             style="fill:#ffffff;fill-opacity:1;fill-rule:nonzero;stroke:none"
             id="path336"
             inkscape:connector-curvature="0" /></g><g
           id="g338"
           transform="translate(93.7861,1.9365)"><path
             d="m 0,0 c 0,-1.069 -0.866,-1.937 -1.936,-1.937 -1.07,0 -1.935,0.868 -1.935,1.937 0,1.069 0.865,1.936 1.935,1.936 C -0.866,1.936 0,1.069 0,0"
             style="fill:#ffffff;fill-opacity:1;fill-rule:nonzero;stroke:none"
             id="path340"
             inkscape:connector-curvature="0" /></g><g
           id="g342"
           transform="translate(23.4902,69.6758)"><path
             d="m 0,0 c 0,-1.069 -0.865,-1.937 -1.936,-1.937 -1.07,0 -1.935,0.868 -1.935,1.937 0,1.069 0.865,1.936 1.935,1.936 C -0.865,1.936 0,1.069 0,0"
             style="fill:#ffffff;fill-opacity:1;fill-rule:nonzero;stroke:none"
             id="path344"
             inkscape:connector-curvature="0" /></g><g
           id="g346"
           transform="translate(135.5273,277.5557)"><path
             d="m 0,0 c 0,-1.173 -0.949,-2.124 -2.123,-2.124 -1.174,0 -2.123,0.951 -2.123,2.124 0,1.173 0.949,2.123 2.123,2.123 C -0.949,2.123 0,1.173 0,0"
             style="fill:#ffffff;fill-opacity:1;fill-rule:nonzero;stroke:none"
             id="path348"
             inkscape:connector-curvature="0" /></g><g
           id="g350"
           transform="translate(214.3906,13.6494)"><path
             d="m 0,0 c 0,-1.173 -0.95,-2.124 -2.123,-2.124 -1.174,0 -2.123,0.951 -2.123,2.124 0,1.173 0.949,2.123 2.123,2.123 C -0.95,2.123 0,1.173 0,0"
             style="fill:#ffffff;fill-opacity:1;fill-rule:nonzero;stroke:none"
             id="path352"
             inkscape:connector-curvature="0" /></g><g
           id="g354"
           transform="translate(229.5029,58.5596)"><path
             d="M 0,0 V -9.119"
             style="fill:none;stroke:#ffffff;stroke-width:2;stroke-linecap:round;stroke-linejoin:round;stroke-miterlimit:10;stroke-dasharray:none;stroke-opacity:1"
             id="path356"
             inkscape:connector-curvature="0" /></g><g
           id="g358"
           transform="translate(225.3262,54)"><path
             d="M 0,0 H 8.265"
             style="fill:none;stroke:#ffffff;stroke-width:2;stroke-linecap:round;stroke-linejoin:round;stroke-miterlimit:10;stroke-dasharray:none;stroke-opacity:1"
             id="path360"
             inkscape:connector-curvature="0" /></g><g
           id="g362"
           transform="translate(39.9961,100.9668)"><path
             d="M 0,0 V -9.119"
             style="fill:none;stroke:#ffffff;stroke-width:2;stroke-linecap:round;stroke-linejoin:round;stroke-miterlimit:10;stroke-dasharray:none;stroke-opacity:1"
             id="path364"
             inkscape:connector-curvature="0" /></g><g
           id="g366"
           transform="translate(35.8184,96.4072)"><path
             d="M 0,0 H 8.266"
             style="fill:none;stroke:#ffffff;stroke-width:2;stroke-linecap:round;stroke-linejoin:round;stroke-miterlimit:10;stroke-dasharray:none;stroke-opacity:1"
             id="path368"
             inkscape:connector-curvature="0" /></g><g
           id="g370"
           transform="translate(11.2979,114.5654)"><path
             d="M 0,0 V -6.36"
             style="fill:none;stroke:#ffffff;stroke-width:2;stroke-linecap:round;stroke-linejoin:round;stroke-miterlimit:10;stroke-dasharray:none;stroke-opacity:1"
             id="path372"
             inkscape:connector-curvature="0" /></g><g
           id="g374"
           transform="translate(8.3848,111.3848)"><path
             d="M 0,0 H 5.765"
             style="fill:none;stroke:#ffffff;stroke-width:2;stroke-linecap:round;stroke-linejoin:round;stroke-miterlimit:10;stroke-dasharray:none;stroke-opacity:1"
             id="path376"
             inkscape:connector-curvature="0" /></g><g
           id="g378"
           transform="translate(177.8213,47.9619)"><path
             d="m 0,0 c 0,-1.173 -0.951,-2.124 -2.123,-2.124 -1.174,0 -2.123,0.951 -2.123,2.124 0,1.173 0.949,2.123 2.123,2.123 C -0.951,2.123 0,1.173 0,0"
             style="fill:#ffffff;fill-opacity:1;fill-rule:nonzero;stroke:none"
             id="path380"
             inkscape:connector-curvature="0" /></g><g
           id="g382"
           transform="translate(4.2461,138.5977)"><path
             d="m 0,0 c 0,-1.173 -0.951,-2.124 -2.123,-2.124 -1.174,0 -2.123,0.951 -2.123,2.124 0,1.173 0.949,2.123 2.123,2.123 C -0.951,2.123 0,1.173 0,0"
             style="fill:#ffffff;fill-opacity:1;fill-rule:nonzero;stroke:none"
             id="path384"
             inkscape:connector-curvature="0" /></g><g
           id="g386"
           transform="translate(187.7539,289.1328)"><path
             d="m 0,0 c 0,-1.549 -1.256,-2.805 -2.805,-2.805 -1.549,0 -2.804,1.256 -2.804,2.805 0,1.55 1.255,2.805 2.804,2.805 C -1.256,2.805 0,1.55 0,0"
             style="fill:#ffffff;fill-opacity:1;fill-rule:nonzero;stroke:none"
             id="path388"
             inkscape:connector-curvature="0" /></g><g
           id="g390"
           transform="translate(303.3389,179.0576)"><path
             d="m 0,0 c 0,-1.549 -1.256,-2.805 -2.805,-2.805 -1.549,0 -2.804,1.256 -2.804,2.805 0,1.55 1.255,2.805 2.804,2.805 C -1.256,2.805 0,1.55 0,0"
             style="fill:#ffffff;fill-opacity:1;fill-rule:nonzero;stroke:none"
             id="path392"
             inkscape:connector-curvature="0" /></g><g
           id="g394"
           transform="translate(266,50.085)"><path
             d="m 0,0 c 0,-1.549 -1.256,-2.805 -2.805,-2.805 -1.549,0 -2.804,1.256 -2.804,2.805 0,1.55 1.255,2.805 2.804,2.805 C -1.256,2.805 0,1.55 0,0"
             style="fill:#ffffff;fill-opacity:1;fill-rule:nonzero;stroke:none"
             id="path396"
             inkscape:connector-curvature="0" /></g><g
           id="g398"
           transform="translate(62.9756,88.4453)"><path
             d="m 0,0 c 0,-1.549 -1.256,-2.805 -2.805,-2.805 -1.549,0 -2.804,1.256 -2.804,2.805 0,1.55 1.255,2.805 2.804,2.805 C -1.256,2.805 0,1.55 0,0"
             style="fill:#ffffff;fill-opacity:1;fill-rule:nonzero;stroke:none"
             id="path400"
             inkscape:connector-curvature="0" /></g><g
           id="g402"
           transform="translate(103.3145,207.1221)"><path
             d="m 0,0 c 0,-1.324 -1.073,-2.397 -2.396,-2.397 -1.325,0 -2.398,1.073 -2.398,2.397 0,1.325 1.073,2.397 2.398,2.397 C -1.073,2.397 0,1.325 0,0"
             style="fill:#ffffff;fill-opacity:1;fill-rule:nonzero;stroke:none"
             id="path404"
             inkscape:connector-curvature="0" /></g><g
           id="g406"
           transform="translate(70.1406,253.126)"><path
             d="m 0,0 c 0,-1.839 -1.49,-3.329 -3.33,-3.329 -1.84,0 -3.329,1.49 -3.329,3.329 0,1.841 1.489,3.33 3.329,3.33 C -1.49,3.33 0,1.841 0,0"
             style="fill:#ffffff;fill-opacity:1;fill-rule:nonzero;stroke:none"
             id="path408"
             inkscape:connector-curvature="0" /></g><g
           id="g410"
           transform="translate(162.7666,19.1016)"><path
             d="m 0,0 c 0,-1.839 -1.49,-3.329 -3.33,-3.329 -1.84,0 -3.329,1.49 -3.329,3.329 0,1.841 1.489,3.33 3.329,3.33 C -1.49,3.33 0,1.841 0,0"
             style="fill:#ffffff;fill-opacity:1;fill-rule:nonzero;stroke:none"
             id="path412"
             inkscape:connector-curvature="0" /></g><g
           id="g414"
           transform="translate(39.2383,131.5586)"><path
             d="m 0,0 c 0,-1.839 -1.49,-3.329 -3.33,-3.329 -1.84,0 -3.328,1.49 -3.328,3.329 0,1.841 1.488,3.33 3.328,3.33 C -1.49,3.33 0,1.841 0,0"
             style="fill:#ffffff;fill-opacity:1;fill-rule:nonzero;stroke:none"
             id="path416"
             inkscape:connector-curvature="0" /></g><g
           id="g418"
           transform="translate(148.4736,237.8154)"><path
             d="m 0,0 c 0,-1.393 -1.129,-2.521 -2.521,-2.521 -1.393,0 -2.522,1.128 -2.522,2.521 0,1.394 1.129,2.521 2.522,2.521 C -1.129,2.521 0,1.394 0,0"
             style="fill:#ffffff;fill-opacity:1;fill-rule:nonzero;stroke:none"
             id="path420"
             inkscape:connector-curvature="0" /></g><g
           id="g422"
           transform="translate(292.6777,153.376)"><path
             d="m 0,0 c 0,-1.393 -1.129,-2.521 -2.521,-2.521 -1.393,0 -2.522,1.128 -2.522,2.521 0,1.394 1.129,2.521 2.522,2.521 C -1.129,2.521 0,1.394 0,0"
             style="fill:#ffffff;fill-opacity:1;fill-rule:nonzero;stroke:none"
             id="path424"
             inkscape:connector-curvature="0" /></g></g></g></g></svg>