<svg width="127" height="29" fill="none" xmlns="http://www.w3.org/2000/svg"><g clip-path="url(#clip0)"><path d="M11.461 14.389l5.011-7.525a4.44 4.44 0 00.745-2.448C17.217 1.985 15.232 0 12.784 0H4.416A4.426 4.426 0 000 4.416v24.361h12.784a4.415 4.415 0 004.416-4.416c0-.876-.264-1.72-.744-2.447l-4.995-7.525zm-5.706 8.633v-17.2h5.756l-5.756 8.567 5.69 8.699-5.69-.066z" fill="#4CB1E0"/><path d="M16.985 5.755v5.756h11.461a2.88 2.88 0 002.878-2.878 2.88 2.88 0 00-2.878-2.878h-11.46zm0 11.511h11.461a2.88 2.88 0 012.878 2.878v8.633h-2.878A2.88 2.88 0 0125.57 25.9v-2.877h-8.567v-5.756h-.017zm15.761-2.877h5.756v14.388h-2.91a2.844 2.844 0 01-2.846-2.845V14.39zm2.845-2.879h.066a2.845 2.845 0 100-5.688h-.066a2.844 2.844 0 100 5.689zm11.527-5.755h4.25a2.88 2.88 0 012.879 2.878 2.88 2.88 0 01-2.878 2.878h-4.317a1.37 1.37 0 00-1.372 1.373v.115a1.37 1.37 0 001.372 1.373 7.2 7.2 0 017.195 7.194 7.2 7.2 0 01-7.195 7.195h-4.25a2.88 2.88 0 01-2.878-2.878v-.066a2.88 2.88 0 012.878-2.878h4.316a1.37 1.37 0 001.373-1.373 1.37 1.37 0 00-1.373-1.372 7.2 7.2 0 01-7.194-7.195v-.066c0-3.953 3.209-7.178 7.194-7.178zm14.306 11.511l1.489-5.987a7.225 7.225 0 017.078-5.474l-2.877 11.461 2.877 11.511h-.066a7.2 7.2 0 01-6.996-5.474l-1.505-6.037z" fill="#4CB1E0"/><path d="M61.424 28.777a5.76 5.76 0 01-5.755-5.755V5.755l5.755.067v22.955z" fill="#4CB1E0"/><path d="M77.864 11.71v16.77h-3.457V14.62H69.48v-2.91h8.385zm.496 0h4.432v2.927h-2.977l-1.455-2.928zm17.117 0l.017 2.794h-7.889l-.017 11.197h7.89v2.779h-11.23V11.71h11.23zm-2 10.088h-3.739l-1.554-3.11h5.292v3.11z" fill="#84C341"/><path d="M111.255 24.626a8.117 8.117 0 01-1.356 1.654 8.126 8.126 0 01-1.72 1.273 8.333 8.333 0 01-2.018.827 8.258 8.258 0 01-2.232.281 8.433 8.433 0 01-3.341-.678 8.616 8.616 0 01-2.729-1.835 8.617 8.617 0 01-1.836-2.73 8.435 8.435 0 01-.678-3.34c0-1.174.232-2.299.678-3.34a8.617 8.617 0 011.836-2.73 8.618 8.618 0 012.729-1.836 8.435 8.435 0 013.341-.678c.76 0 1.505.1 2.232.281a8.67 8.67 0 012.018.827 9.327 9.327 0 011.72 1.29 8.686 8.686 0 011.356 1.654l-2.795 1.82c-.446-.86-1.058-1.555-1.852-2.068-.777-.512-1.671-.777-2.663-.777a4.47 4.47 0 00-1.984.446 5.272 5.272 0 00-1.621 1.191c-.463.496-.827 1.092-1.108 1.77a5.937 5.937 0 00-.414 2.166c0 .761.133 1.489.414 2.167a5.534 5.534 0 001.108 1.77c.463.496 1.009.91 1.621 1.19.628.298 1.29.447 1.984.447.992 0 1.869-.265 2.663-.777.777-.513 1.389-1.208 1.852-2.068l2.795 1.803zm1.439 3.854V11.71h3.49v16.77h-3.49zm10.849-16.77H127v16.77h-3.457v-6.682h-5.358l-1.588-3.11h6.946V11.71z" fill="#84C341"/></g><defs><clipPath id="clip0"><path fill="#fff" d="M0 0h127v28.777H0z"/></clipPath></defs></svg>