<svg xmlns="http://www.w3.org/2000/svg" viewBox="0 0 400 300" width="406" height="306" class="illustration"><g data-name="#168_under_constructions_flatline"><path d="M282.87 201.28H75.44a.5.5 0 01-.5-.5.5.5 0 01.5-.5h207.43a.5.5 0 01.5.5.5.5 0 01-.5.5z" fill="#d1d3d4"/><path fill="#fff" d="M123.75 209.65H83.18l1.91-6.45.36-1.23 2.22-7.5 1.1-3.7 2.35-7.95.47-1.62 2.59-8.73.26-.85 2.35-7.95 1.32-4.47 1.99-6.73 2.27-7.68h2.19l2.26 7.68 1.07 3.6 2.25 7.6 1.01 3.38 1.35 4.57.79 2.65 2.52 8.55.72 2.43 1.64 5.52.5 1.69 2.81 9.51.43 1.46 1.84 6.22z"/><path d="M104.55 144.79l2.27 7.68 1.07 3.6 2.25 7.6 1 3.38 1.35 4.57.79 2.65 2.52 8.55.72 2.43 1.64 5.52.5 1.69 2.81 9.51.43 1.46 1.85 6.22H83.18l1.91-6.45.36-1.23 2.22-7.51 1.1-3.69 2.35-8 .48-1.62 2.58-8.73.25-.85 2.36-8 1.32-4.47 2-6.73 2.27-7.68h2.18m0-1h-2.18a1 1 0 00-1 .72l-2.27 7.68-2 6.73-1.32 4.47-2.35 8-.26.84-2.58 8.73-.48 1.63-2.35 7.94-1.09 3.7-2.23 7.5-.36 1.24-1.91 6.45a1 1 0 00.16.88 1 1 0 00.8.4h40.58a1 1 0 00.8-.4 1 1 0 00.15-.88l-1.84-6.22-.43-1.47-2.81-9.5-.5-1.7-1.6-5.43-.72-2.43-2.52-8.57-.79-2.65-1.36-4.57-1-3.38-2.25-7.6-1.07-3.6-2.27-7.68a1 1 0 00-1-.72z" fill="#231f20"/><rect x="77.51" y="209.65" width="51.91" height="5.75" rx="1.49" fill="#fff"/><path d="M127.93 215.9H79a2 2 0 01-2-2v-2.77a2 2 0 012-2h48.93a2 2 0 012 2v2.77a2 2 0 01-2 2zM79 210.15a1 1 0 00-1 1v2.77a1 1 0 001 1h48.93a1 1 0 001-1v-2.77a1 1 0 00-1-1z" fill="#231f20"/><path fill="#d1d3d4" d="M121.48 201.97H85.45l2.22-7.5 1.1-3.7h29.4l.5 1.69 2.81 9.51zm-5.67-19.15H91.12l.47-1.62 2.59-8.73.26-.85h18.06l.79 2.65 2.52 8.55zm-5.67-19.15H96.79l1.32-4.47 1.99-6.73h6.72l1.07 3.6 2.25 7.6z"/><path d="M180.8 233.73l55.14.31a.74.74 0 00.35-1.4 52.85 52.85 0 00-10.29-4.09l-44.26.14-2 3.07a1.27 1.27 0 001.06 1.97z" fill="#fff"/><path d="M235.94 234.54l-55.14-.31a1.77 1.77 0 01-1.48-2.75l2-3.06a.52.52 0 01.42-.23l44.26-.14a.3.3 0 01.13 0 53.19 53.19 0 0110.39 4.13 1.25 1.25 0 01-.59 2.34zm-55.13-1.31l55.13.31a.24.24 0 00.24-.18.25.25 0 00-.12-.28 53 53 0 00-10.11-4l-43.93.14-1.86 2.78a.78.78 0 00.65 1.2z" fill="#231f20"/><path d="M181.75 228.69l44.26-.14s-3-16.82-12.59-22.05-21.26-2.43-26.95 6.8-4.72 15.39-4.72 15.39z" fill="#fff"/><path d="M181.75 229.19a.5.5 0 01-.49-.42c0-.26-.93-6.46 4.79-15.74s17.66-12.38 27.61-7c9.72 5.28 12.72 21.71 12.85 22.4a.54.54 0 01-.11.41.53.53 0 01-.38.18l-44.27.14zm21.56-24.81a19.14 19.14 0 00-16.41 9.18c-4.68 7.58-4.77 13.1-4.69 14.63l43.19-.14c-.63-3-3.92-16.6-12.22-21.11a20.61 20.61 0 00-9.87-2.56z" fill="#231f20"/><path d="M219.87 222.24a.52.52 0 01-.46-.29 31.78 31.78 0 00-13.7-14.59.49.49 0 01-.24-.66.5.5 0 01.66-.25 32.2 32.2 0 0114.19 15.08.49.49 0 01-.24.66.54.54 0 01-.21.05z" fill="#d1d3d4"/><path fill="#fff" d="M223.16 228.56l-.06-5.88 4.59-.13.72 6.48-5.25-.47z"/><path d="M228.41 229.53l-5.26-.47a.51.51 0 01-.45-.5l-.06-5.87a.51.51 0 01.48-.51l4.59-.13a.51.51 0 01.51.44l.73 6.48a.56.56 0 01-.14.41.51.51 0 01-.4.15zm-4.76-1.43l4.19.38-.6-5.42-3.64.11z" fill="#231f20"/><path d="M215.46 223.17a.51.51 0 01-.45-.29 25.87 25.87 0 00-15.4-13.81.5.5 0 01.24-1 26.91 26.91 0 0116.07 14.35.51.51 0 01-.24.67.54.54 0 01-.22.08z" fill="#d1d3d4"/><path d="M321.39 111.21a5.82 5.82 0 01-1.09-.1c-4.23-.75-6.88-5.76-5.91-11.16a.52.52 0 01.2-.33.56.56 0 01.38-.08l14.36 2.58a.46.46 0 01.32.2.47.47 0 01.08.38c-.88 4.93-4.49 8.51-8.34 8.51zm-6.1-10.59c-.63 4.66 1.63 8.87 5.19 9.51s7.14-2.53 8.17-7.12z" fill="#231f20"/><path fill="#231f20" d="M315.42 97.013l14.361 2.576-.544 3.031-14.36-2.576z"/><path d="M329.24 103.11h-.09l-14.36-2.58a.48.48 0 01-.32-.2.54.54 0 01-.08-.37l.54-3a.5.5 0 01.58-.4l14.36 2.57a.5.5 0 01.4.58l-.54 3a.49.49 0 01-.21.32.47.47 0 01-.28.08zm-13.78-3.48l13.38 2.4.37-2-13.38-2.4z" fill="#231f20"/><path fill="#fff" d="M318.251 109.4l4.577.82-13.276 74.01-4.577-.822z"/><path d="M309.55 184.73h-.09l-4.57-.82a.51.51 0 01-.41-.58l13.28-74a.52.52 0 01.2-.33.56.56 0 01.38-.08l4.58.82a.5.5 0 01.4.58l-13.28 74a.48.48 0 01-.2.32.52.52 0 01-.29.09zm-4-1.73l3.59.65 13.1-73-3.6-.65z" fill="#231f20"/><path d="M293.17 212.14h21.71a15.31 15.31 0 004.29-8.18l2.72-15.15-30.3-5.43-2.72 15.15a15.37 15.37 0 004.3 13.61z" fill="#fff"/><path d="M314.88 212.64h-21.71a.47.47 0 01-.35-.15 15.87 15.87 0 01-4.44-14.05l2.72-15.15a.5.5 0 01.58-.4l30.3 5.43a.5.5 0 01.4.58l-2.71 15.15a15.76 15.76 0 01-4.43 8.44.51.51 0 01-.36.15zm-21.5-1h21.29a14.76 14.76 0 004-7.76l2.63-14.66L292 184l-2.63 14.66a14.89 14.89 0 004.01 12.98z" fill="#231f20"/><path d="M300.898 182.692l12.471 2.237-.872 4.862a5.07 5.07 0 01-5.886 4.096l-2.49-.447a5.07 5.07 0 01-4.095-5.886l.872-4.862z" fill="#fff"/><path d="M307.53 194.45a5.5 5.5 0 01-1-.09l-2.5-.45a5.57 5.57 0 01-4.5-6.46l.87-4.86a.51.51 0 01.21-.32.49.49 0 01.37-.08l12.48 2.23a.5.5 0 01.4.58l-.87 4.86a5.58 5.58 0 01-5.46 4.59zm-6.21-11.19l-.78 4.37a4.57 4.57 0 003.69 5.3l2.49.45a4.58 4.58 0 005.31-3.69l.78-4.37z" fill="#231f20"/><path fill="#fff" d="M304.43 179.756l6.89 1.236-.618 3.445-6.89-1.236z"/><path d="M310.71 184.94h-.09l-6.89-1.24a.49.49 0 01-.32-.2.47.47 0 01-.08-.38l.61-3.44a.51.51 0 01.58-.41l6.9 1.24a.48.48 0 01.32.2.51.51 0 01.08.38l-.62 3.44a.49.49 0 01-.49.41zm-6.31-2.14l5.91 1.06.44-2.47-5.91-1.06z" fill="#231f20"/><path d="M303.09 206.94H303a.5.5 0 01-.4-.58l2-11.33a.5.5 0 111 .18l-2 11.32a.49.49 0 01-.51.41zm28.16 5.7h-90.1a.5.5 0 110-1h90.1a.5.5 0 010 1zM247 235.54h-75.48a.5.5 0 01-.5-.5.5.5 0 01.5-.5H247a.5.5 0 01.5.5.51.51 0 01-.5.5zm-79.67 0h-5.1a.5.5 0 01-.5-.5.5.5 0 01.5-.5h5.1a.5.5 0 01.5.5.5.5 0 01-.5.5zm-2.55-6.54h-41a.5.5 0 01-.5-.5.5.5 0 01.5-.5h41a.5.5 0 01.5.5.5.5 0 01-.5.5zm6.74-12.1H68.75a.5.5 0 110-1h102.77a.5.5 0 010 1zM286.2 229h-36.12a.5.5 0 01-.5-.5.5.5 0 01.5-.5h36.12a.5.5 0 01.5.5.5.5 0 01-.5.5zm-51.6-22.06h-8a.5.5 0 01-.5-.5.51.51 0 01.5-.5h8a.51.51 0 01.5.5.5.5 0 01-.5.5zm72.97 16.11h-7.38a.51.51 0 01-.5-.5.5.5 0 01.5-.5h7.38a.5.5 0 01.5.5.5.5 0 01-.5.5zM103 228H90.61a.51.51 0 01-.5-.5.5.5 0 01.5-.5H103a.5.5 0 01.5.5.5.5 0 01-.5.5zm134.21-35.54h-19.8a.5.5 0 010-1h19.8a.5.5 0 010 1zm51.42 47.21h-20.49a.5.5 0 010-1h20.49a.5.5 0 010 1zm-170.63 0h-14.53a.5.5 0 010-1H118a.5.5 0 010 1z" fill="#d1d3d4"/><path d="M139.24 73.74H154a1.81 1.81 0 011.8 1.61l1.51 14.3h-21.38l1.52-14.3a1.8 1.8 0 011.79-1.61z" fill="#68e1fd"/><path fill="#fff" d="M138.27 94.9h16.69v129.75h-16.69z"/><path d="M155 225.15h-16.73a.51.51 0 01-.5-.5V94.9a.51.51 0 01.5-.5H155a.5.5 0 01.5.5v129.75a.5.5 0 01-.5.5zm-16.19-1h15.69V95.4h-15.73z" fill="#231f20"/><path fill="#fff" d="M134.33 89.65h24.02v5.26h-24.02z"/><path d="M158.35 95.4h-24a.5.5 0 01-.5-.5v-5.25a.5.5 0 01.5-.5h24a.5.5 0 01.5.5v5.25a.5.5 0 01-.5.5zm-23.52-1h23v-4.25h-23z" fill="#231f20"/><path d="M155 77.25h-5.63a.51.51 0 01-.5-.5.5.5 0 01.5-.5H155a.5.5 0 01.5.5.5.5 0 01-.5.5zm-21.63 141.97h25.94v8.26h-25.94z" fill="#fff"/><path d="M159.31 228h-25.94a.51.51 0 01-.5-.5v-8.26a.5.5 0 01.5-.5h25.94a.5.5 0 01.5.5v8.26a.5.5 0 01-.5.5zm-25.44-1h24.94v-7.26h-24.94z" fill="#231f20"/><path d="M260.11 73.74h14.72a1.8 1.8 0 011.8 1.61l1.51 14.3H256.8l1.52-14.3a1.8 1.8 0 011.79-1.61z" fill="#68e1fd"/><path fill="#fff" d="M259.15 94.9h16.69v129.75h-16.69z"/><path d="M275.83 225.15h-16.68a.5.5 0 01-.5-.5V94.9a.5.5 0 01.5-.5h16.68a.5.5 0 01.5.5v129.75a.5.5 0 01-.5.5zm-16.18-1h15.68V95.4h-15.68z" fill="#231f20"/><path fill="#fff" d="M255.2 89.65h24.02v5.26H255.2z"/><path d="M279.22 95.4h-24a.5.5 0 01-.5-.5v-5.25a.5.5 0 01.5-.5h24a.5.5 0 01.5.5v5.25a.5.5 0 01-.5.5zm-23.52-1h23v-4.25h-23z" fill="#231f20"/><path d="M275.83 77.25h-5.63a.51.51 0 01-.5-.5.5.5 0 01.5-.5h5.63a.5.5 0 01.5.5.5.5 0 01-.5.5zm-21.59 141.97h25.94v8.26h-25.94z" fill="#fff"/><path d="M280.18 228h-25.94a.51.51 0 01-.5-.5v-8.26a.5.5 0 01.5-.5h25.94a.5.5 0 01.5.5v8.26a.5.5 0 01-.5.5zm-25.44-1h24.94v-7.26h-24.94z" fill="#231f20"/><path fill="#fff" d="M129.42 103.59H286.2v29.66H129.42z"/><path d="M286.2 103.59v29.66H129.42v-29.66H286.2m0-1H129.42a1 1 0 00-1 1v29.66a1 1 0 001 1H286.2a1 1 0 001-1v-29.66a1 1 0 00-1-1z" fill="#231f20"/><path fill="#d1d3d4" d="M174.48 133.25h-22.17l-19.47-29.66h22.19l19.45 29.66zm40.47 0h-22.18l-19.46-29.66h22.19l19.45 29.66zm40.47 0h-22.19l-19.45-29.66h22.17l19.47 29.66zm30.78-14.75v14.75h-12.5l-19.46-29.66h22.18l9.78 14.91z"/><path fill="#fff" d="M129.42 155.92H286.2v29.66H129.42z"/><path d="M286.2 155.92v29.66H129.42v-29.66H286.2m0-1H129.42a1 1 0 00-1 1v29.66a1 1 0 001 1H286.2a1 1 0 001-1v-29.66a1 1 0 00-1-1z" fill="#231f20"/><path fill="#d1d3d4" d="M174.48 185.58h-22.17l-19.47-29.66h22.19l19.45 29.66zm40.47 0h-22.18l-19.46-29.66h22.19l19.45 29.66zm40.47 0h-22.19l-19.45-29.66h22.17l19.47 29.66zm30.78-14.75v14.75h-12.5l-19.46-29.66h22.18l9.78 14.91z"/><path fill="#231f20" d="M138.27 147.38l16.69-3.25v-10.17h-16.69v13.42z"/><path d="M138.27 147.88a.51.51 0 01-.49-.5V134a.49.49 0 01.49-.5H155a.5.5 0 01.5.5v10.17a.5.5 0 01-.4.49l-16.69 3.25zm.5-13.42v12.32l15.7-3.06v-9.26zm120.37 5.24l16.69-3.4v-2.34h-16.69v5.74z" fill="#231f20"/><path d="M259.15 140.19a.49.49 0 01-.5-.49V134a.5.5 0 01.5-.5h16.68a.5.5 0 01.5.5v2.34a.49.49 0 01-.4.49l-16.68 3.39zm.49-5.73v4.63l15.7-3.2v-1.43zm-121.37 61.32l16.69-2.7v-6.56h-16.69v9.26z" fill="#231f20"/><path d="M138.27 196.28a.49.49 0 01-.49-.5v-9.26a.49.49 0 01.49-.5H155a.5.5 0 01.5.5v6.56a.5.5 0 01-.42.49l-16.69 2.7zm.5-9.26v8.18l15.7-2.55V187zm120.37 4.94l16.69-3.24v-2.58h-16.69v5.82z" fill="#231f20"/><path d="M259.15 192.46a.47.47 0 01-.32-.12.46.46 0 01-.18-.38v-5.82a.5.5 0 01.5-.5h16.68a.5.5 0 01.5.5v2.58a.5.5 0 01-.4.49l-16.69 3.24zm.49-5.82v4.72l15.7-3.05v-1.67z" fill="#231f20"/><path fill="#68e1fd" d="M167.33 120.2h79.62v52.08h-79.62z"/><path d="M247 120.2v52.08h-79.67V120.2H247m0-1h-79.67a1 1 0 00-1 1v52.08a1 1 0 001 1H247a1 1 0 001-1V120.2a1 1 0 00-1-1z" fill="#231f20"/><path d="M188 144.94a5.43 5.43 0 01-1 1.85 4.41 4.41 0 01-1.6 1.2 5.14 5.14 0 01-4.16 0 4.34 4.34 0 01-1.58-1.2 5.37 5.37 0 01-1-1.85 7.86 7.86 0 01-.35-2.4v-9.08h2.82v8.79a5.09 5.09 0 00.12 1.13 3.16 3.16 0 00.38 1 2 2 0 00.68.67 2.21 2.21 0 002 0 2.1 2.1 0 00.69-.67 3.16 3.16 0 00.38-1 5.1 5.1 0 00.11-1.13v-8.79h2.84v9.08a7.56 7.56 0 01-.33 2.4zm10.09 3.06l-4.72-9.54h-.05l.06 9.54h-2.75v-14.54h3.23l4.71 9.51h.05l-.07-9.51h2.75V148zm16.58-7.29a8.66 8.66 0 01-.57 3.3 6.63 6.63 0 01-1.51 2.29 6.07 6.07 0 01-2.11 1.31 6.86 6.86 0 01-2.39.43h-4.37v-14.58H208a8.55 8.55 0 012.45.36 5.68 5.68 0 012.15 1.19 6 6 0 011.53 2.24 9.16 9.16 0 01.54 3.46zm-2.95 0a5.69 5.69 0 00-.32-2.05 3.38 3.38 0 00-.87-1.3 3.15 3.15 0 00-1.22-.69 4.83 4.83 0 00-1.42-.21h-1.41V145h1.35a4.78 4.78 0 001.46-.22 3.07 3.07 0 001.24-.71 3.54 3.54 0 00.87-1.32 5.65 5.65 0 00.32-2.04zm4.82 7.29v-14.54h7.88v3h-5.15v2.76h4.87V142h-4.87v3h5.45v3zm16.33 0l-2.54-5.79h-1V148h-2.77v-14.54h4.48a6.41 6.41 0 011.64.21 4 4 0 011.45.73 3.7 3.7 0 011 1.36 5.06 5.06 0 01.39 2.11 4.57 4.57 0 01-.65 2.49 3.59 3.59 0 01-1.79 1.44l3.06 6.24zm-.11-10.11a1.72 1.72 0 00-.18-.84 1.42 1.42 0 00-.45-.49 1.62 1.62 0 00-.61-.24 3.85 3.85 0 00-.66-.06h-1.52v3.4h1.35a3.69 3.69 0 00.72-.08 1.88 1.88 0 00.66-.25 1.35 1.35 0 00.49-.54 1.82 1.82 0 00.2-.86zM182 158.75a2.39 2.39 0 01-1.15.28 2.5 2.5 0 01-1.1-.24 2.64 2.64 0 01-.88-.68 3.38 3.38 0 01-.58-1 4.15 4.15 0 01-.21-1.35 3.92 3.92 0 01.22-1.36 3.05 3.05 0 01.59-1 2.56 2.56 0 012-.89 2.71 2.71 0 011.07.23 2.07 2.07 0 01.85.69l-.84 1a1.06 1.06 0 00-.46-.43 1.18 1.18 0 00-.58-.14 1.39 1.39 0 00-.6.14 1.46 1.46 0 00-.46.4 2.06 2.06 0 00-.31.61 2.63 2.63 0 00-.11.76 2.67 2.67 0 00.11.78 1.83 1.83 0 00.3.61 1.57 1.57 0 00.46.39 1.31 1.31 0 00.59.14 1.18 1.18 0 00.65-.18 1.3 1.3 0 00.44-.51l.86 1a2.45 2.45 0 01-.86.75zm6.66-3.04a4.15 4.15 0 01-.21 1.35 3.13 3.13 0 01-.58 1.05 2.68 2.68 0 01-.89.68 2.62 2.62 0 01-1.12.24 2.57 2.57 0 01-1.11-.24 2.68 2.68 0 01-.89-.68 3.13 3.13 0 01-.58-1.05 4.48 4.48 0 010-2.71 3 3 0 01.58-1 2.7 2.7 0 014 0 3 3 0 01.58 1 4.13 4.13 0 01.22 1.36zm-1.32 0a2.58 2.58 0 00-.11-.76 2.31 2.31 0 00-.3-.61 1.5 1.5 0 00-.47-.4 1.33 1.33 0 00-.6-.14 1.28 1.28 0 00-.59.14 1.5 1.5 0 00-.47.4 1.83 1.83 0 00-.3.61 2.59 2.59 0 00-.1.76 2.78 2.78 0 00.1.78 2.06 2.06 0 00.31.61 1.26 1.26 0 00.46.4 1.18 1.18 0 00.59.15 1.21 1.21 0 00.6-.15 1.35 1.35 0 00.46-.4 2.06 2.06 0 00.31-.61 2.77 2.77 0 00.11-.78zm5.41 3.15l-2.07-4.09v4.09h-1.21v-6.25h1.42l2.06 4.08v-4.08h1.21v6.25zm5.18-4.63a1.1 1.1 0 00-.41-.39 1 1 0 00-.5-.15 1.07 1.07 0 00-.25 0 .6.6 0 00-.23.1.52.52 0 00-.17.19.59.59 0 00-.07.31.67.67 0 000 .26.58.58 0 00.16.19 1.48 1.48 0 00.25.14l.33.14.55.24a1.69 1.69 0 01.51.34 1.73 1.73 0 01.39.52 1.81 1.81 0 01.15.78 2.46 2.46 0 01-.17.94 1.72 1.72 0 01-.43.64 1.81 1.81 0 01-.64.38 2 2 0 01-.73.13 2.53 2.53 0 01-1.07-.24 2.13 2.13 0 01-.85-.66l.81-1a1.5 1.5 0 00.5.47 1.12 1.12 0 00.61.19h.27a.84.84 0 00.23-.12.47.47 0 00.15-.21.76.76 0 00.06-.32.56.56 0 00-.07-.3.73.73 0 00-.21-.22 1.69 1.69 0 00-.33-.19l-.45-.18a3.12 3.12 0 01-.49-.23 1.7 1.7 0 01-.42-.34 1.9 1.9 0 01-.3-.5 2.18 2.18 0 01-.11-.72 2 2 0 01.18-.89 1.57 1.57 0 01.45-.61 1.74 1.74 0 01.64-.35 2.28 2.28 0 011.61.08 2.13 2.13 0 01.79.58zm3.68-.34v5h-1.24v-5h-1.45v-1.28h4.14v1.28zm4.77 4.97l-1.11-2.48h-.43v2.48h-1.21v-6.25h2a2.84 2.84 0 01.72.09 1.6 1.6 0 011.08.89 2.24 2.24 0 01.17.91 1.86 1.86 0 01-.29 1.06 1.5 1.5 0 01-.78.62l1.34 2.68zm0-4.34a.68.68 0 00-.08-.36.55.55 0 00-.19-.21.79.79 0 00-.27-.1h-.95v1.46h.9a.92.92 0 00.29-.11.61.61 0 00.22-.23.87.87 0 00.03-.45zm6.26 3.01a2.25 2.25 0 01-.44.79 2 2 0 01-.7.52 2.29 2.29 0 01-.92.19 2.24 2.24 0 01-.91-.19 1.86 1.86 0 01-.69-.52 2.42 2.42 0 01-.44-.79 3.33 3.33 0 01-.15-1v-3.89h1.24v3.77a1.86 1.86 0 00.05.48 1.26 1.26 0 00.17.41.76.76 0 00.3.29.87.87 0 00.44.11.91.91 0 00.45-.11.92.92 0 00.3-.29 1.26 1.26 0 00.17-.41 2.44 2.44 0 00.05-.48v-3.77h1.24v3.89a3.05 3.05 0 01-.16 1zm4.84 1.22a2.39 2.39 0 01-1.15.28 2.5 2.5 0 01-1.1-.24 2.64 2.64 0 01-.88-.68 3.18 3.18 0 01-.58-1 4.48 4.48 0 010-2.71 3.07 3.07 0 01.6-1 2.46 2.46 0 01.88-.66 2.55 2.55 0 011.1-.23 2.71 2.71 0 011.07.23 2.13 2.13 0 01.85.69l-.84 1a1.12 1.12 0 00-.43-.43 1.21 1.21 0 00-.58-.14 1.33 1.33 0 00-.6.14 1.5 1.5 0 00-.47.4 2 2 0 00-.3.61 2.63 2.63 0 00-.11.76 2.67 2.67 0 00.11.78 1.83 1.83 0 00.3.61 1.57 1.57 0 00.46.39 1.31 1.31 0 00.59.14 1.18 1.18 0 00.65-.18 1.3 1.3 0 00.44-.46l.86 1a2.65 2.65 0 01-.87.7zm3.52-4.86v5h-1.24v-5h-1.46v-1.28h4.15v1.28zm2 4.97v-6.25h1.24v6.25zm7.69-3.15a4.15 4.15 0 01-.21 1.35 3.32 3.32 0 01-.58 1.05 2.68 2.68 0 01-3.13.68 2.64 2.64 0 01-.88-.68 3.15 3.15 0 01-.59-1.05 4.48 4.48 0 010-2.71 3.05 3.05 0 01.59-1 2.55 2.55 0 01.88-.65 2.84 2.84 0 012.24 0 2.59 2.59 0 01.89.65 3.21 3.21 0 01.58 1 4.13 4.13 0 01.21 1.36zm-1.33 0a2.29 2.29 0 00-.11-.76 1.83 1.83 0 00-.3-.61 1.46 1.46 0 00-.46-.4 1.36 1.36 0 00-1.2 0 1.46 1.46 0 00-.46.4 1.83 1.83 0 00-.3.61 2.58 2.58 0 00-.11.76 2.77 2.77 0 00.11.78 1.83 1.83 0 00.3.61 1.35 1.35 0 00.46.4 1.21 1.21 0 00.6.15 1.18 1.18 0 00.59-.15 1.38 1.38 0 00.47-.4 1.83 1.83 0 00.3-.61 2.45 2.45 0 00.11-.78zm5.42 3.15l-2.07-4.09v4.09h-1.21v-6.25h1.42l2.06 4.08v-4.08h1.2v6.25z" fill="#fff"/><path d="M247 120.7a.42.42 0 01-.22 0l-39.6-18.89-39.59 18.89a.5.5 0 11-.43-.9l39.81-19a.54.54 0 01.43 0l39.81 19a.5.5 0 01-.21 1z" fill="#231f20"/><path d="M207.14 103.25a.5.5 0 01-.5-.5V97.9a.5.5 0 01.5-.5.5.5 0 01.5.5v4.85a.5.5 0 01-.5.5z" fill="#231f20"/><path d="M208.83 98h-3.17a.5.5 0 01-.5-.5.5.5 0 01.5-.5h3.17a.51.51 0 01.5.5.5.5 0 01-.5.5z" fill="#231f20"/></g></svg>