<?xml version="1.0" encoding="utf-8"?>
<!-- Generator: Adobe Illustrator 19.0.0, SVG Export Plug-In . SVG Version: 6.00 Build 0)  -->
<svg version="1.1" id="Layer_1" xmlns="http://www.w3.org/2000/svg" xmlns:xlink="http://www.w3.org/1999/xlink" x="0px" y="0px"
	 viewBox="0 0 104.443 104.443" enable-background="new 0 0 104.443 104.443" xml:space="preserve">
<g id="XMLID_14_" display="none">
	
		<rect id="XMLID_22_" x="11.192" y="70.856" transform="matrix(-0.6785 0.7346 -0.7346 -0.6785 98.1825 102.1988)" display="inline" fill="#3B3A3C" width="31.071" height="3.457"/>
	<g display="inline">
		<defs>
			<rect id="XMLID_20_" x="9.009" y="11.601" width="86.426" height="81.241"/>
		</defs>
		<clipPath id="XMLID_48_">
			<use xlink:href="#XMLID_20_"  overflow="visible"/>
		</clipPath>
		<path id="XMLID_21_" clip-path="url(#XMLID_48_)" fill="#3B3A3C" d="M87.858,41.322L63.83,62.632
			c-0.967,0.913-5.362,1.88-11.608,1.893c-6.247-0.013-10.642-0.98-11.609-1.893l-24.028-21.31l-2.294,2.586L38.28,65.182
			c2.716,2.564,11.22,2.795,13.942,2.802c2.721-0.007,11.225-0.238,13.941-2.802l23.989-21.274L87.858,41.322z"/>
	</g>
	
		<rect id="XMLID_19_" x="62.18" y="70.856" transform="matrix(0.6785 0.7346 -0.7346 0.6785 78.3059 -33.7545)" display="inline" fill="#3B3A3C" width="31.071" height="3.457"/>
	<polygon id="XMLID_18_" display="inline" fill="#3B3A3C" points="24.565,11.602 24.565,51.766 28.022,51.766 28.022,15.059 
		76.421,15.059 76.421,51.766 79.878,51.766 79.878,11.602 	"/>
	<g display="inline">
		<defs>
			<rect id="XMLID_15_" x="9.009" y="11.601" width="86.426" height="81.241"/>
		</defs>
		<clipPath id="XMLID_49_">
			<use xlink:href="#XMLID_15_"  overflow="visible"/>
		</clipPath>
		<path id="XMLID_17_" clip-path="url(#XMLID_49_)" fill="#3B3A3C" d="M92.309,33.659l0.002-0.002L79.62,22.013l-2.309,2.572
			l13.032,11.691c1.222,1.009,1.635,2.42,1.635,3.873V84.2c0,2.767-2.25,5.185-5.017,5.185H17.195c-2.767,0-4.729-2.418-4.729-5.185
			V40.149c0-1.453,0.413-2.864,1.635-3.873l13.032-11.691l-2.309-2.572L11.846,33.657l0.001,0.002
			c-1.986,1.664-2.838,4.025-2.838,6.49V84.2c0,4.672,3.514,8.643,8.186,8.643h69.766c4.673,0,8.474-3.971,8.474-8.643V40.149
			C95.435,37.684,94.295,35.323,92.309,33.659"/>
		<path id="XMLID_16_" clip-path="url(#XMLID_49_)" fill="#00BEC3" d="M49.058,29.412c-1.414-1.123-3.142-1.686-5.183-1.686
			c-2.386,0-4.312,0.733-5.776,2.196c-1.464,1.465-2.199,3.4-2.199,5.809c0,2.139,0.505,3.844,1.512,5.114
			c1.008,1.273,2.956,2.515,5.849,3.727c0.097,0.035,0.234,0.094,0.407,0.164c4.684,1.979,7.538,4.203,8.563,6.673
			c1.002-2.458,3.862-4.682,8.583-6.673l0.371-0.164c2.879-1.212,4.826-2.458,5.839-3.744s1.519-2.984,1.519-5.097
			c0-2.409-0.727-4.344-2.185-5.809c-1.458-1.463-3.386-2.196-5.781-2.196c-2.027,0-3.751,0.563-5.171,1.686
			c-1.42,1.125-2.474,2.775-3.167,4.949C51.533,32.187,50.474,30.537,49.058,29.412"/>
	</g>
</g>
<g id="XMLID_23_">
	<g>
		<defs>
			<rect id="XMLID_37_" x="1.354" y="12.254" width="101.735" height="79.935"/>
		</defs>
		<clipPath id="XMLID_50_">
			<use xlink:href="#XMLID_37_"  overflow="visible"/>
		</clipPath>
		
			<line id="XMLID_46_" clip-path="url(#XMLID_50_)" fill="none" stroke="#3B3A3C" stroke-width="3.633" stroke-linejoin="round" x1="46.772" y1="90.373" x2="46.772" y2="79.473"/>
		
			<line id="XMLID_45_" clip-path="url(#XMLID_50_)" fill="none" stroke="#3B3A3C" stroke-width="3.633" stroke-linecap="round" stroke-linejoin="round" x1="72.205" y1="90.373" x2="39.504" y2="90.373"/>
		<path clip-path="url(#XMLID_50_)" fill="none" stroke="#3B3A3C" stroke-width="3.633" stroke-linejoin="round" d="M32.238,79.472
			H97.64c2.006,0,3.633-1.627,3.633-3.633V17.704c0-2.006-1.627-3.633-3.633-3.633H14.072c-2.007,0-3.634,1.627-3.634,3.633v25.434
			 M64.939,79.472v10.9"/>
		
			<path clip-path="url(#XMLID_50_)" fill="none" stroke="#3B3A3C" stroke-width="3.633" stroke-linecap="round" stroke-linejoin="round" d="
			M52.222,72.205h7.266 M15.888,84.922h3.633 M32.238,86.739c0,2.007-1.627,3.633-3.633,3.633H6.804
			c-2.006,0-3.633-1.626-3.633-3.633V46.772c0-2.007,1.627-3.634,3.633-3.634h21.801c2.006,0,3.633,1.627,3.633,3.634V86.739z"/>
		<path id="XMLID_39_" clip-path="url(#XMLID_50_)" fill="#EF731A" d="M51.63,33.8c-1.642-1.304-3.648-1.957-6.017-1.957
			c-2.77,0-5.007,0.85-6.706,2.55c-1.7,1.7-2.553,3.946-2.553,6.743c0,2.483,0.586,4.463,1.755,5.938
			c1.171,1.477,3.432,2.92,6.791,4.326c0.113,0.041,0.271,0.109,0.472,0.19c5.438,2.298,8.751,4.881,9.942,7.748
			c1.163-2.854,4.483-5.436,9.964-7.748l0.431-0.19c3.343-1.406,5.603-2.854,6.779-4.346c1.176-1.493,1.764-3.465,1.764-5.918
			c0-2.797-0.845-5.043-2.538-6.743c-1.692-1.7-3.93-2.55-6.71-2.55c-2.354,0-4.355,0.653-6.004,1.957
			c-1.648,1.306-2.873,3.221-3.677,5.745C54.503,37.021,53.274,35.106,51.63,33.8"/>
		<path id="XMLID_38_" clip-path="url(#XMLID_50_)" fill="#EF731A" d="M15.597,58.771c-0.778-0.618-1.73-0.928-2.853-0.928
			c-1.313,0-2.374,0.403-3.18,1.209c-0.805,0.806-1.21,1.871-1.21,3.197c0,1.178,0.278,2.116,0.833,2.816
			c0.554,0.7,1.627,1.384,3.219,2.051c0.054,0.019,0.129,0.051,0.224,0.09c2.578,1.089,4.149,2.314,4.714,3.673
			c0.551-1.353,2.125-2.577,4.724-3.673l0.204-0.09c1.585-0.667,2.657-1.353,3.214-2.061c0.558-0.708,0.837-1.643,0.837-2.806
			c0-1.326-0.401-2.391-1.203-3.197c-0.803-0.806-1.864-1.209-3.182-1.209c-1.116,0-2.065,0.31-2.847,0.928
			c-0.781,0.619-1.362,1.527-1.743,2.724C16.959,60.298,16.376,59.39,15.597,58.771"/>
	</g>
</g>
</svg>
