<?xml version="1.0" encoding="utf-8"?>
<!-- Generator: Adobe Illustrator 19.0.0, SVG Export Plug-In . SVG Version: 6.00 Build 0)  -->
<svg version="1.1" id="Layer_1" xmlns="http://www.w3.org/2000/svg" xmlns:xlink="http://www.w3.org/1999/xlink" x="0px" y="0px"
	 viewBox="0 0 113.23 82.151" enable-background="new 0 0 113.23 82.151" xml:space="preserve">
<g id="XMLID_2_">
	<defs>
		<rect id="XMLID_3_" width="113.23" height="82.151"/>
	</defs>
	<clipPath id="XMLID_57_">
		<use xlink:href="#XMLID_3_"  overflow="visible"/>
	</clipPath>
	<path id="XMLID_4_" clip-path="url(#XMLID_57_)" fill="#62C9E2" d="M45.64,5.848C40.734,1.953,34.741,0,27.663,0
		c-8.278,0-14.96,2.541-20.038,7.619C2.548,12.699,0,19.41,0,27.768c0,7.419,1.75,13.335,5.243,17.74
		c3.497,4.412,10.254,8.723,20.288,12.926c0.338,0.122,0.811,0.325,1.412,0.567c16.248,6.866,26.146,14.582,29.704,23.15
		c3.473-8.527,13.395-16.244,29.771-23.15l1.288-0.567c9.986-4.203,16.74-8.527,20.253-12.987
		c3.514-4.459,5.271-10.352,5.271-17.679c0-8.358-2.524-15.069-7.582-20.149C100.591,2.541,93.905,0,85.597,0
		c-7.03,0-13.01,1.953-17.936,5.848c-4.926,3.902-8.585,9.625-10.987,17.166C54.224,15.473,50.552,9.75,45.64,5.848"/>
</g>
</svg>
