<?xml version="1.0" encoding="utf-8"?>
<!-- Generator: Adobe Illustrator 19.0.0, SVG Export Plug-In . SVG Version: 6.00 Build 0)  -->
<svg version="1.1" id="Layer_1" xmlns="http://www.w3.org/2000/svg" xmlns:xlink="http://www.w3.org/1999/xlink" x="0px" y="0px"
	 viewBox="0 0 100.435 554.355" enable-background="new 0 0 100.435 554.355" xml:space="preserve">
<g>
	<defs>
		<rect id="SVGID_1_" width="100.435" height="554.355"/>
	</defs>
	<clipPath id="SVGID_2_">
		<use xlink:href="#SVGID_1_"  overflow="visible"/>
	</clipPath>
	<path clip-path="url(#SVGID_2_)" fill="#FFFFFF" d="M55.972,0.84C55.266,0.28,54.405,0,53.389,0c-1.189,0-2.149,0.365-2.878,1.094
		c-0.73,0.73-1.096,1.694-1.096,2.895c0,1.066,0.252,1.916,0.754,2.549c0.502,0.633,1.473,1.253,2.914,1.856
		c0.049,0.018,0.117,0.047,0.203,0.082c2.334,0.986,3.756,2.095,4.267,3.326c0.499-1.225,1.925-2.334,4.277-3.326l0.185-0.082
		c1.435-0.603,2.405-1.225,2.91-1.865c0.504-0.641,0.757-1.487,0.757-2.54c0-1.201-0.363-2.165-1.089-2.895
		C63.865,0.365,62.905,0,61.711,0c-1.01,0-1.869,0.28-2.577,0.84c-0.707,0.561-1.233,1.383-1.578,2.466
		C57.204,2.224,56.677,1.401,55.972,0.84"/>
	<path clip-path="url(#SVGID_2_)" fill="#FFFFFF" d="M51.87,16.011c-0.741-0.588-1.646-0.883-2.714-0.883
		c-1.25,0-2.259,0.384-3.026,1.15c-0.766,0.767-1.151,1.781-1.151,3.043c0,1.12,0.264,2.013,0.792,2.678
		c0.528,0.666,1.548,1.317,3.063,1.952c0.051,0.018,0.122,0.049,0.213,0.086c2.453,1.036,3.948,2.201,4.485,3.495
		c0.524-1.288,2.022-2.453,4.495-3.495l0.194-0.086c1.508-0.635,2.528-1.288,3.058-1.961c0.531-0.673,0.796-1.563,0.796-2.669
		c0-1.262-0.381-2.276-1.145-3.043c-0.763-0.766-1.773-1.15-3.027-1.15c-1.062,0-1.964,0.295-2.708,0.883
		c-0.744,0.589-1.296,1.453-1.659,2.592C53.166,17.464,52.612,16.6,51.87,16.011"/>
	<path clip-path="url(#SVGID_2_)" fill="#FFFFFF" d="M47.258,31.485c-0.778-0.618-1.73-0.928-2.853-0.928
		c-1.313,0-2.374,0.403-3.18,1.209c-0.805,0.806-1.21,1.871-1.21,3.197c0,1.178,0.278,2.116,0.833,2.816
		c0.554,0.7,1.627,1.384,3.219,2.051c0.054,0.019,0.129,0.051,0.224,0.09c2.578,1.089,4.149,2.314,4.714,3.673
		c0.551-1.353,2.125-2.577,4.724-3.673l0.204-0.09c1.585-0.667,2.657-1.353,3.214-2.061c0.558-0.708,0.837-1.643,0.837-2.806
		c0-1.326-0.401-2.391-1.203-3.197c-0.803-0.806-1.864-1.209-3.182-1.209c-1.116,0-2.065,0.31-2.847,0.928
		c-0.781,0.619-1.362,1.527-1.743,2.724C48.62,33.012,48.037,32.104,47.258,31.485"/>
	<path clip-path="url(#SVGID_2_)" fill="#FFFFFF" d="M42.801,47.308c-0.778-0.618-1.73-0.928-2.853-0.928
		c-1.313,0-2.374,0.403-3.18,1.209c-0.805,0.806-1.21,1.871-1.21,3.197c0,1.178,0.278,2.116,0.833,2.816
		c0.554,0.7,1.627,1.384,3.219,2.051c0.054,0.019,0.129,0.051,0.224,0.09c2.578,1.089,4.149,2.314,4.714,3.673
		c0.551-1.353,2.125-2.577,4.724-3.673l0.204-0.09c1.585-0.667,2.657-1.353,3.214-2.061c0.558-0.708,0.837-1.643,0.837-2.806
		c0-1.326-0.401-2.391-1.203-3.197c-0.803-0.806-1.864-1.209-3.182-1.209c-1.116,0-2.065,0.31-2.847,0.928
		c-0.781,0.619-1.362,1.527-1.743,2.724C44.163,48.835,43.58,47.927,42.801,47.308"/>
	<path clip-path="url(#SVGID_2_)" fill="#FFFFFF" d="M40.612,63.022c-0.818-0.65-1.818-0.975-2.998-0.975
		c-1.381,0-2.495,0.423-3.342,1.27C33.425,64.165,33,65.284,33,66.678c0,1.237,0.292,2.224,0.874,2.959
		c0.584,0.735,1.711,1.455,3.384,2.156c0.057,0.02,0.135,0.054,0.236,0.094c2.709,1.145,4.36,2.432,4.954,3.861
		c0.579-1.422,2.234-2.709,4.965-3.861l0.215-0.094c1.665-0.701,2.792-1.423,3.378-2.167c0.586-0.743,0.879-1.726,0.879-2.948
		c0-1.394-0.421-2.513-1.265-3.361c-0.843-0.847-1.958-1.27-3.344-1.27c-1.172,0-2.17,0.325-2.991,0.975
		c-0.822,0.651-1.432,1.605-1.833,2.863C42.044,64.627,41.431,63.673,40.612,63.022"/>
	<path clip-path="url(#SVGID_2_)" fill="#FFFFFF" d="M40.037,79.403c-0.86-0.683-1.91-1.025-3.151-1.025
		c-1.451,0-2.623,0.445-3.513,1.335c-0.89,0.891-1.336,2.067-1.336,3.532c0,1.301,0.306,2.338,0.919,3.11
		c0.613,0.773,1.797,1.529,3.556,2.266c0.059,0.021,0.142,0.057,0.248,0.099c2.848,1.204,4.583,2.556,5.206,4.058
		c0.609-1.495,2.349-2.847,5.219-4.058l0.226-0.099c1.75-0.737,2.934-1.495,3.55-2.277c0.616-0.781,0.924-1.814,0.924-3.099
		c0-1.465-0.443-2.641-1.329-3.532c-0.887-0.89-2.059-1.335-3.515-1.335c-1.232,0-2.28,0.342-3.144,1.025
		c-0.863,0.684-1.505,1.687-1.926,3.009C41.542,81.09,40.898,80.087,40.037,79.403"/>
	<path clip-path="url(#SVGID_2_)" fill="#FFFFFF" d="M41.679,96.433c-0.86-0.683-1.91-1.025-3.151-1.025
		c-1.451,0-2.623,0.445-3.513,1.335c-0.89,0.891-1.336,2.067-1.336,3.532c0,1.301,0.306,2.338,0.919,3.11
		c0.613,0.773,1.797,1.529,3.556,2.266c0.059,0.021,0.142,0.057,0.248,0.099c2.848,1.204,4.583,2.556,5.206,4.058
		c0.609-1.495,2.349-2.847,5.219-4.058l0.226-0.099c1.75-0.737,2.934-1.495,3.55-2.277c0.616-0.781,0.924-1.814,0.924-3.099
		c0-1.465-0.443-2.641-1.329-3.532c-0.887-0.89-2.059-1.335-3.515-1.335c-1.232,0-2.28,0.342-3.144,1.025
		c-0.863,0.684-1.505,1.687-1.926,3.009C43.184,98.12,42.54,97.117,41.679,96.433"/>
	<path clip-path="url(#SVGID_2_)" fill="#FFFFFF" d="M46.973,115.753c-0.95-0.754-2.11-1.132-3.481-1.132
		c-1.603,0-2.897,0.492-3.88,1.475c-0.983,0.984-1.476,2.283-1.476,3.901c0,1.437,0.338,2.582,1.015,3.435
		c0.677,0.855,1.985,1.69,3.928,2.503c0.066,0.024,0.157,0.063,0.274,0.11c3.146,1.329,5.062,2.824,5.751,4.483
		c0.673-1.652,2.594-3.146,5.765-4.483l0.249-0.11c1.934-0.813,3.242-1.651,3.922-2.514c0.68-0.864,1.02-2.005,1.02-3.424
		c0-1.618-0.488-2.917-1.468-3.901c-0.979-0.983-2.273-1.475-3.882-1.475c-1.361,0-2.519,0.378-3.473,1.132
		c-0.954,0.756-1.662,1.864-2.127,3.324C48.635,117.617,47.924,116.509,46.973,115.753"/>
	<path clip-path="url(#SVGID_2_)" fill="#FFFFFF" d="M51.294,134.566c-0.998-0.793-2.218-1.19-3.659-1.19
		c-1.684,0-3.044,0.517-4.077,1.55c-1.034,1.034-1.552,2.4-1.552,4.101c0,1.51,0.356,2.714,1.067,3.61
		c0.712,0.898,2.087,1.775,4.129,2.631c0.069,0.024,0.165,0.066,0.287,0.115c3.307,1.397,5.321,2.968,6.045,4.711
		c0.707-1.735,2.726-3.305,6.059-4.711l0.262-0.115c2.032-0.856,3.406-1.736,4.121-2.643c0.715-0.908,1.073-2.107,1.073-3.598
		c0-1.701-0.514-3.067-1.543-4.101c-1.029-1.033-2.39-1.55-4.08-1.55c-1.431,0-2.648,0.397-3.651,1.19
		c-1.002,0.794-1.747,1.959-2.236,3.493C53.041,136.525,52.294,135.36,51.294,134.566"/>
	<path clip-path="url(#SVGID_2_)" fill="#FFFFFF" d="M55.741,154.316c-1.049-0.833-2.331-1.251-3.845-1.251
		c-1.771,0-3.2,0.544-4.286,1.63c-1.086,1.086-1.631,2.522-1.631,4.309c0,1.587,0.374,2.853,1.122,3.795
		c0.748,0.944,2.193,1.866,4.339,2.765c0.072,0.026,0.173,0.069,0.302,0.121c3.475,1.468,5.592,3.119,6.353,4.951
		c0.743-1.824,2.865-3.474,6.368-4.951l0.275-0.121c2.136-0.899,3.581-1.824,4.332-2.778c0.752-0.954,1.128-2.214,1.128-3.782
		c0-1.787-0.54-3.223-1.622-4.309s-2.512-1.63-4.289-1.63c-1.503,0-2.782,0.418-3.836,1.251c-1.054,0.835-1.836,2.059-2.35,3.672
		C57.577,156.375,56.792,155.151,55.741,154.316"/>
	<path clip-path="url(#SVGID_2_)" fill="#FFFFFF" d="M59.407,174.99c-1.159-0.92-2.575-1.382-4.247-1.382
		c-1.956,0-3.535,0.601-4.735,1.8c-1.199,1.201-1.801,2.786-1.801,4.761c0,1.753,0.413,3.15,1.239,4.191
		c0.826,1.043,2.422,2.061,4.793,3.054c0.08,0.029,0.191,0.077,0.334,0.134c3.838,1.622,6.177,3.445,7.018,5.47
		c0.82-2.015,3.164-3.838,7.033-5.47l0.305-0.134c2.359-0.993,3.955-2.014,4.785-3.068c0.83-1.054,1.245-2.446,1.245-4.177
		c0-1.975-0.596-3.56-1.791-4.761c-1.195-1.199-2.775-1.8-4.737-1.8c-1.662,0-3.074,0.462-4.238,1.382
		c-1.164,0.922-2.029,2.274-2.596,4.056C61.435,177.264,60.568,175.912,59.407,174.99"/>
	<path clip-path="url(#SVGID_2_)" fill="#FFFFFF" d="M58.161,197.082c-1.218-0.967-2.706-1.452-4.464-1.452
		c-2.056,0-3.715,0.631-4.976,1.892c-1.261,1.261-1.893,2.928-1.893,5.003c0,1.842,0.434,3.311,1.302,4.405
		c0.868,1.096,2.546,2.166,5.038,3.21c0.084,0.03,0.201,0.081,0.35,0.141c4.035,1.705,6.493,3.621,7.376,5.748
		c0.863-2.117,3.327-4.033,7.393-5.748l0.32-0.141c2.479-1.044,4.156-2.117,5.029-3.225c0.872-1.107,1.309-2.57,1.309-4.39
		c0-2.075-0.627-3.742-1.883-5.003c-1.256-1.261-2.916-1.892-4.979-1.892c-1.746,0-3.231,0.485-4.454,1.452
		c-1.223,0.969-2.132,2.39-2.728,4.263C60.293,199.472,59.381,198.051,58.161,197.082"/>
	<path clip-path="url(#SVGID_2_)" fill="#FFFFFF" d="M53.917,220.146c-1.28-1.017-2.844-1.526-4.692-1.526
		c-2.16,0-3.904,0.663-5.229,1.988c-1.325,1.326-1.99,3.077-1.99,5.259c0,1.936,0.456,3.48,1.368,4.63
		c0.913,1.151,2.676,2.276,5.295,3.373c0.088,0.032,0.211,0.085,0.368,0.148c4.241,1.792,6.824,3.806,7.753,6.042
		c0.906-2.226,3.496-4.239,7.769-6.042l0.336-0.148c2.607-1.097,4.369-2.225,5.286-3.389s1.376-2.702,1.376-4.614
		c0-2.182-0.659-3.933-1.979-5.259c-1.32-1.325-3.065-1.988-5.233-1.988c-1.835,0-3.395,0.509-4.681,1.526
		c-1.285,1.018-2.24,2.512-2.867,4.48C56.157,222.658,55.199,221.164,53.917,220.146"/>
	<path clip-path="url(#SVGID_2_)" fill="#FFFFFF" d="M45.76,244.342c-1.28-1.017-2.844-1.526-4.692-1.526
		c-2.16,0-3.904,0.663-5.229,1.988c-1.325,1.326-1.99,3.077-1.99,5.259c0,1.936,0.456,3.48,1.368,4.63
		c0.913,1.151,2.676,2.276,5.295,3.373c0.088,0.032,0.211,0.085,0.368,0.148c4.241,1.792,6.824,3.806,7.753,6.042
		c0.906-2.226,3.496-4.239,7.769-6.042l0.336-0.148c2.607-1.097,4.369-2.225,5.286-3.389s1.376-2.702,1.376-4.614
		c0-2.182-0.659-3.933-1.979-5.259c-1.32-1.325-3.065-1.988-5.233-1.988c-1.835,0-3.395,0.509-4.681,1.526
		c-1.285,1.018-2.24,2.512-2.867,4.48C48,246.854,47.042,245.36,45.76,244.342"/>
	<path clip-path="url(#SVGID_2_)" fill="#FFFFFF" d="M39.158,268.906c-1.414-1.123-3.142-1.686-5.183-1.686
		c-2.386,0-4.312,0.733-5.776,2.196c-1.464,1.465-2.199,3.4-2.199,5.809c0,2.139,0.505,3.844,1.512,5.114
		c1.008,1.273,2.956,2.515,5.849,3.727c0.097,0.035,0.234,0.094,0.407,0.164c4.684,1.979,7.538,4.203,8.563,6.673
		c1.002-2.458,3.862-4.682,8.583-6.673l0.371-0.164c2.879-1.212,4.826-2.458,5.839-3.744s1.519-2.984,1.519-5.097
		c0-2.409-0.727-4.344-2.185-5.809c-1.458-1.463-3.386-2.196-5.781-2.196c-2.027,0-3.751,0.563-5.171,1.686
		c-1.42,1.125-2.474,2.775-3.167,4.949C41.632,271.681,40.573,270.031,39.158,268.906"/>
	<path clip-path="url(#SVGID_2_)" fill="#FFFFFF" d="M29.139,294.589c-1.414-1.123-3.142-1.686-5.183-1.686
		c-2.386,0-4.312,0.733-5.776,2.196c-1.464,1.465-2.199,3.4-2.199,5.809c0,2.139,0.505,3.844,1.512,5.114
		c1.008,1.273,2.956,2.515,5.849,3.727c0.097,0.035,0.234,0.094,0.407,0.164c4.684,1.979,7.538,4.203,8.563,6.673
		c1.002-2.458,3.862-4.682,8.583-6.673l0.371-0.164c2.879-1.212,4.826-2.458,5.839-3.744s1.519-2.984,1.519-5.097
		c0-2.409-0.727-4.344-2.185-5.809c-1.458-1.463-3.386-2.196-5.781-2.196c-2.027,0-3.751,0.563-5.171,1.686
		c-1.42,1.125-2.474,2.775-3.167,4.949C31.613,297.364,30.554,295.714,29.139,294.589"/>
	<path clip-path="url(#SVGID_2_)" fill="#FFFFFF" d="M21.213,321.926c-1.562-1.24-3.471-1.862-5.725-1.862
		c-2.636,0-4.764,0.809-6.381,2.426c-1.617,1.618-2.428,3.755-2.428,6.416c0,2.363,0.557,4.247,1.67,5.65
		c1.113,1.405,3.265,2.778,6.46,4.116c0.108,0.039,0.258,0.103,0.45,0.181c5.174,2.186,8.326,4.643,9.459,7.372
		c1.106-2.716,4.266-5.173,9.481-7.372l0.41-0.181c3.18-1.338,5.331-2.715,6.45-4.136c1.118-1.42,1.678-3.296,1.678-5.63
		c0-2.661-0.804-4.798-2.414-6.416c-1.611-1.617-3.74-2.426-6.386-2.426c-2.238,0-4.143,0.622-5.711,1.862
		c-1.569,1.243-2.734,3.065-3.499,5.466C23.947,324.991,22.777,323.169,21.213,321.926"/>
	<path clip-path="url(#SVGID_2_)" fill="#FFFFFF" d="M15.276,351.972c-1.642-1.304-3.648-1.957-6.017-1.957
		c-2.77,0-5.007,0.85-6.706,2.55c-1.7,1.7-2.553,3.946-2.553,6.743c0,2.483,0.586,4.463,1.755,5.938
		c1.171,1.477,3.432,2.92,6.791,4.326c0.113,0.041,0.271,0.109,0.472,0.19c5.438,2.298,8.751,4.881,9.942,7.748
		c1.163-2.854,4.483-5.436,9.964-7.748l0.431-0.19c3.343-1.406,5.603-2.854,6.779-4.346c1.176-1.493,1.764-3.465,1.764-5.918
		c0-2.797-0.845-5.043-2.538-6.743c-1.692-1.7-3.93-2.55-6.71-2.55c-2.354,0-4.355,0.653-6.004,1.957
		c-1.648,1.306-2.873,3.221-3.677,5.745C18.148,355.193,16.92,353.278,15.276,351.972"/>
	<path clip-path="url(#SVGID_2_)" fill="#FFFFFF" d="M15.276,383.257c-1.642-1.304-3.648-1.957-6.017-1.957
		c-2.77,0-5.007,0.85-6.706,2.55c-1.7,1.7-2.553,3.946-2.553,6.743c0,2.483,0.586,4.463,1.755,5.938
		c1.171,1.477,3.432,2.92,6.791,4.326c0.113,0.041,0.271,0.109,0.472,0.19c5.438,2.298,8.751,4.881,9.942,7.748
		c1.163-2.854,4.483-5.436,9.964-7.748l0.431-0.19c3.343-1.406,5.603-2.854,6.779-4.346c1.176-1.493,1.764-3.465,1.764-5.918
		c0-2.797-0.845-5.043-2.538-6.743c-1.692-1.7-3.93-2.55-6.71-2.55c-2.354,0-4.355,0.653-6.004,1.957
		c-1.648,1.306-2.873,3.221-3.677,5.745C18.148,386.478,16.92,384.563,15.276,383.257"/>
	<path clip-path="url(#SVGID_2_)" fill="#FFFFFF" d="M22.925,416.373c-1.814-1.44-4.029-2.162-6.646-2.162
		c-3.061,0-5.531,0.939-7.409,2.817c-1.877,1.878-2.819,4.359-2.819,7.449c0,2.743,0.647,4.93,1.939,6.559
		c1.293,1.631,3.791,3.225,7.5,4.779c0.125,0.045,0.3,0.12,0.523,0.209c6.006,2.539,9.666,5.391,10.981,8.559
		c1.285-3.153,4.953-6.005,11.007-8.559l0.476-0.209c3.692-1.554,6.189-3.153,7.488-4.802c1.299-1.649,1.949-3.827,1.949-6.536
		c0-3.09-0.933-5.571-2.803-7.449c-1.87-1.878-4.342-2.817-7.413-2.817c-2.6,0-4.811,0.722-6.632,2.162
		c-1.821,1.443-3.173,3.559-4.062,6.346C26.099,419.932,24.741,417.816,22.925,416.373"/>
	<path clip-path="url(#SVGID_2_)" fill="#FFFFFF" d="M33.84,452.16c-1.814-1.44-4.029-2.162-6.646-2.162
		c-3.061,0-5.531,0.939-7.409,2.817c-1.877,1.878-2.819,4.359-2.819,7.449c0,2.743,0.647,4.93,1.939,6.559
		c1.293,1.631,3.791,3.225,7.5,4.779c0.125,0.045,0.3,0.12,0.523,0.209c6.006,2.539,9.666,5.391,10.981,8.559
		c1.285-3.153,4.953-6.005,11.007-8.559l0.476-0.209c3.692-1.554,6.189-3.153,7.488-4.802c1.299-1.649,1.949-3.827,1.949-6.536
		c0-3.09-0.933-5.571-2.803-7.449c-1.87-1.878-4.342-2.817-7.413-2.817c-2.6,0-4.811,0.722-6.632,2.162
		c-1.821,1.443-3.173,3.559-4.062,6.346C37.014,455.719,35.656,453.603,33.84,452.16"/>
	<path clip-path="url(#SVGID_2_)" fill="#FFFFFF" d="M83.651,515.177c-1.218-0.967-2.706-1.452-4.464-1.452
		c-2.056,0-3.715,0.631-4.976,1.892c-1.261,1.261-1.893,2.928-1.893,5.003c0,1.842,0.434,3.311,1.302,4.405
		c0.868,1.096,2.546,2.166,5.038,3.21c0.084,0.03,0.201,0.081,0.35,0.141c4.035,1.705,6.493,3.621,7.376,5.748
		c0.863-2.117,3.327-4.033,7.393-5.748l0.32-0.141c2.479-1.044,4.156-2.117,5.029-3.225c0.872-1.107,1.309-2.57,1.309-4.39
		c0-2.075-0.627-3.742-1.883-5.003c-1.256-1.261-2.916-1.892-4.979-1.892c-1.746,0-3.231,0.485-4.454,1.452
		c-1.223,0.969-2.132,2.39-2.728,4.263C85.783,517.567,84.871,516.146,83.651,515.177"/>
	<path clip-path="url(#SVGID_2_)" fill="#FFFFFF" d="M83.408,540.297c-0.904-0.718-2.008-1.077-3.312-1.077
		c-1.525,0-2.756,0.468-3.692,1.403C75.469,541.56,75,542.797,75,544.336c0,1.367,0.322,2.457,0.966,3.269
		c0.644,0.813,1.889,1.607,3.737,2.381c0.063,0.023,0.15,0.06,0.26,0.105c2.994,1.264,4.817,2.686,5.473,4.264
		c0.64-1.57,2.468-2.992,5.485-4.264l0.237-0.105c1.84-0.774,3.084-1.571,3.731-2.393c0.648-0.821,0.971-1.907,0.971-3.257
		c0-1.539-0.465-2.776-1.397-3.712c-0.931-0.935-2.163-1.403-3.694-1.403c-1.295,0-2.397,0.359-3.304,1.077
		c-0.908,0.719-1.582,1.773-2.024,3.162C84.99,542.07,84.313,541.016,83.408,540.297"/>
	<path clip-path="url(#SVGID_2_)" fill="#FFFFFF" d="M61.593,483.457c-1.906-1.514-4.235-2.272-6.985-2.272
		c-3.217,0-5.813,0.987-7.787,2.96c-1.972,1.974-2.962,4.582-2.962,7.829c0,2.883,0.679,5.182,2.037,6.894
		c1.359,1.714,3.984,3.389,7.883,5.022c0.132,0.048,0.315,0.127,0.549,0.221c6.313,2.668,10.159,5.666,11.542,8.995
		c1.35-3.313,5.205-6.312,11.568-8.995l0.5-0.221c3.881-1.633,6.505-3.313,7.87-5.046c1.366-1.733,2.048-4.022,2.048-6.87
		c0-3.247-0.98-5.855-2.946-7.829c-1.965-1.973-4.563-2.96-7.791-2.96c-2.732,0-5.055,0.758-6.969,2.272
		c-1.914,1.516-3.336,3.74-4.27,6.67C64.929,487.197,63.502,484.973,61.593,483.457"/>
</g>
</svg>
