<?xml version="1.0" encoding="utf-8"?>
<!-- Generator: Adobe Illustrator 19.0.0, SVG Export Plug-In . SVG Version: 6.00 Build 0)  -->
<svg version="1.1" id="Layer_1" xmlns="http://www.w3.org/2000/svg" xmlns:xlink="http://www.w3.org/1999/xlink" x="0px" y="0px"
	 viewBox="0 0 100 100" enable-background="new 0 0 100 100" xml:space="preserve">
<g>
	<defs>
		<rect id="XMLID_1_" x="0.413" y="11.038" width="99.175" height="77.924"/>
	</defs>
	<clipPath id="XMLID_8_">
		<use xlink:href="#XMLID_1_"  overflow="visible"/>
	</clipPath>
	<path clip-path="url(#XMLID_8_)" fill="#62C9E2" d="M87.191,85.421H12.809c-4.598,0-8.346-3.536-8.771-8.024l34.007-25.192
		l10.9,8.076c0.312,0.232,0.685,0.347,1.055,0.347s0.74-0.116,1.052-0.347l10.9-8.076l34.007,25.192
		C95.537,81.885,91.789,85.421,87.191,85.421 M35.07,50.001L3.955,73.05V26.952L35.07,50.001z M12.809,14.578h74.382
		c4.598,0.003,8.346,3.539,8.771,8.027l-45.96,34.046L4.038,22.605C4.463,18.117,8.211,14.581,12.809,14.578 M64.93,50.001
		l31.115-23.049V73.05L64.93,50.001z M87.191,11.038H12.809c-6.837,0-12.396,5.563-12.396,12.396v53.131
		c0,6.834,5.56,12.396,12.396,12.396h74.382c6.837,0,12.396-5.563,12.396-12.396V23.435C99.587,16.601,94.028,11.038,87.191,11.038"
		/>
</g>
</svg>
