<?xml version="1.0" encoding="utf-8"?>
<!-- Generator: Adobe Illustrator 19.0.0, SVG Export Plug-In . SVG Version: 6.00 Build 0)  -->
<svg version="1.1" id="Layer_1" xmlns="http://www.w3.org/2000/svg" xmlns:xlink="http://www.w3.org/1999/xlink" x="0px" y="0px"
	 viewBox="0 0 100 100" enable-background="new 0 0 100 100" xml:space="preserve">
<g id="XMLID_11_">
	<defs>
		<rect id="XMLID_10_" x="4.5" y="4.5" width="91" height="91"/>
	</defs>
	<clipPath id="XMLID_2_">
		<use xlink:href="#XMLID_10_"  overflow="visible"/>
	</clipPath>
	<path id="XMLID_13_" clip-path="url(#XMLID_2_)" fill="#62C9E2" d="M91.452,76.701l-2.06,3.537
		C85.322,87.206,78,91.707,70.736,91.707c-2.828,0-5.545-0.658-8.08-1.96C40.969,78.609,21.362,59.005,10.213,37.304
		c-5.238-10.191,0.723-21.577,9.509-26.702l3.534-2.06c0.282-0.165,0.592-0.248,0.916-0.248c0.678,0,1.298,0.369,1.615,0.961
		l10.632,19.742c0.682,1.264,0.448,2.859-0.568,3.875l-5.435,5.431c-1.846,1.849-2.08,4.76-0.551,6.778
		c7.043,9.278,15.674,17.909,24.956,24.963c2.018,1.536,5.049,1.312,6.854-0.496l5.438-5.431c0.999-0.999,2.624-1.243,3.882-0.568
		L90.74,74.173c0.441,0.238,0.758,0.634,0.895,1.112C91.769,75.768,91.704,76.271,91.452,76.701 M95.286,74.259
		c-0.417-1.481-1.395-2.697-2.748-3.427L72.792,60.324c-2.693-1.45-6.203-0.933-8.362,1.223l-5.438,5.321
		c-0.279,0.279-0.651,0.437-1.04,0.437c-0.214,0-0.53-0.052-0.837-0.282c-9.01-6.847-17.389-15.226-24.229-24.233
		c-0.389-0.517-0.3-1.292,0.214-1.805l5.321-5.431c2.19-2.194,2.697-5.631,1.226-8.355L29.128,7.457
		c-0.982-1.822-2.879-2.955-4.956-2.955c-0.988,0-1.967,0.265-2.828,0.765L17.811,7.33C6.046,14.187,1.227,28.115,6.838,39.036
		c11.5,22.38,31.717,42.597,54.086,54.086c3.076,1.577,6.375,2.376,9.812,2.376c8.59,0,17.196-5.238,21.932-13.349l2.063-3.537
		C95.503,77.283,95.703,75.74,95.286,74.259"/>
</g>
</svg>
