<?xml version="1.0" encoding="utf-8"?>
<!-- Generator: Adobe Illustrator 19.0.0, SVG Export Plug-In . SVG Version: 6.00 Build 0)  -->
<svg version="1.1" id="Layer_1" xmlns="http://www.w3.org/2000/svg" xmlns:xlink="http://www.w3.org/1999/xlink" x="0px" y="0px"
	 viewBox="0 0 104.443 104.443" enable-background="new 0 0 104.443 104.443" xml:space="preserve">
<g id="XMLID_14_" display="none">
	
		<rect id="XMLID_22_" x="11.192" y="70.856" transform="matrix(-0.6785 0.7346 -0.7346 -0.6785 98.1825 102.1988)" display="inline" fill="#3B3A3C" width="31.071" height="3.457"/>
	<g display="inline">
		<defs>
			<rect id="XMLID_20_" x="9.009" y="11.601" width="86.426" height="81.241"/>
		</defs>
		<clipPath id="XMLID_84_">
			<use xlink:href="#XMLID_20_"  overflow="visible"/>
		</clipPath>
		<path id="XMLID_21_" clip-path="url(#XMLID_84_)" fill="#3B3A3C" d="M87.858,41.322L63.83,62.632
			c-0.967,0.913-5.362,1.88-11.608,1.893c-6.247-0.013-10.642-0.98-11.609-1.893l-24.028-21.31l-2.294,2.586L38.28,65.182
			c2.716,2.564,11.22,2.795,13.942,2.802c2.721-0.007,11.225-0.238,13.941-2.802l23.989-21.274L87.858,41.322z"/>
	</g>
	
		<rect id="XMLID_19_" x="62.18" y="70.856" transform="matrix(0.6785 0.7346 -0.7346 0.6785 78.3059 -33.7545)" display="inline" fill="#3B3A3C" width="31.071" height="3.457"/>
	<polygon id="XMLID_18_" display="inline" fill="#3B3A3C" points="24.565,11.602 24.565,51.766 28.022,51.766 28.022,15.059 
		76.421,15.059 76.421,51.766 79.878,51.766 79.878,11.602 	"/>
	<g display="inline">
		<defs>
			<rect id="XMLID_15_" x="9.009" y="11.601" width="86.426" height="81.241"/>
		</defs>
		<clipPath id="XMLID_85_">
			<use xlink:href="#XMLID_15_"  overflow="visible"/>
		</clipPath>
		<path id="XMLID_17_" clip-path="url(#XMLID_85_)" fill="#3B3A3C" d="M92.309,33.659l0.002-0.002L79.62,22.013l-2.309,2.572
			l13.032,11.691c1.222,1.009,1.635,2.42,1.635,3.873V84.2c0,2.767-2.25,5.185-5.017,5.185H17.195c-2.767,0-4.729-2.418-4.729-5.185
			V40.149c0-1.453,0.413-2.864,1.635-3.873l13.032-11.691l-2.309-2.572L11.846,33.657l0.001,0.002
			c-1.986,1.664-2.838,4.025-2.838,6.49V84.2c0,4.672,3.514,8.643,8.186,8.643h69.766c4.673,0,8.474-3.971,8.474-8.643V40.149
			C95.435,37.684,94.295,35.323,92.309,33.659"/>
		<path id="XMLID_16_" clip-path="url(#XMLID_85_)" fill="#00BEC3" d="M49.058,29.412c-1.414-1.123-3.142-1.686-5.183-1.686
			c-2.386,0-4.312,0.733-5.776,2.196c-1.464,1.465-2.199,3.4-2.199,5.809c0,2.139,0.505,3.844,1.512,5.114
			c1.008,1.273,2.956,2.515,5.849,3.727c0.097,0.035,0.234,0.094,0.407,0.164c4.684,1.979,7.538,4.203,8.563,6.673
			c1.002-2.458,3.862-4.682,8.583-6.673l0.371-0.164c2.879-1.212,4.826-2.458,5.839-3.744s1.519-2.984,1.519-5.097
			c0-2.409-0.727-4.344-2.185-5.809c-1.458-1.463-3.386-2.196-5.781-2.196c-2.027,0-3.751,0.563-5.171,1.686
			c-1.42,1.125-2.474,2.775-3.167,4.949C51.533,32.187,50.474,30.537,49.058,29.412"/>
	</g>
</g>
<g id="XMLID_23_" display="none">
	<g display="inline">
		<defs>
			<rect id="XMLID_37_" x="1.354" y="12.254" width="101.735" height="79.935"/>
		</defs>
		<clipPath id="XMLID_86_">
			<use xlink:href="#XMLID_37_"  overflow="visible"/>
		</clipPath>
		
			<line id="XMLID_46_" clip-path="url(#XMLID_86_)" fill="none" stroke="#3B3A3C" stroke-width="3.633" stroke-linejoin="round" x1="46.772" y1="90.373" x2="46.772" y2="79.473"/>
		
			<line id="XMLID_45_" clip-path="url(#XMLID_86_)" fill="none" stroke="#3B3A3C" stroke-width="3.633" stroke-linecap="round" stroke-linejoin="round" x1="72.205" y1="90.373" x2="39.504" y2="90.373"/>
		<path clip-path="url(#XMLID_86_)" fill="none" stroke="#3B3A3C" stroke-width="3.633" stroke-linejoin="round" d="M32.238,79.472
			H97.64c2.006,0,3.633-1.627,3.633-3.633V17.704c0-2.006-1.627-3.633-3.633-3.633H14.072c-2.007,0-3.634,1.627-3.634,3.633v25.434
			 M64.939,79.472v10.9"/>
		
			<path clip-path="url(#XMLID_86_)" fill="none" stroke="#3B3A3C" stroke-width="3.633" stroke-linecap="round" stroke-linejoin="round" d="
			M52.222,72.205h7.266 M15.888,84.922h3.633 M32.238,86.739c0,2.007-1.627,3.633-3.633,3.633H6.804
			c-2.006,0-3.633-1.626-3.633-3.633V46.772c0-2.007,1.627-3.634,3.633-3.634h21.801c2.006,0,3.633,1.627,3.633,3.634V86.739z"/>
		<path id="XMLID_39_" clip-path="url(#XMLID_86_)" fill="#EF731A" d="M51.63,33.8c-1.642-1.304-3.648-1.957-6.017-1.957
			c-2.77,0-5.007,0.85-6.706,2.55c-1.7,1.7-2.553,3.946-2.553,6.743c0,2.483,0.586,4.463,1.755,5.938
			c1.171,1.477,3.432,2.92,6.791,4.326c0.113,0.041,0.271,0.109,0.472,0.19c5.438,2.298,8.751,4.881,9.942,7.748
			c1.163-2.854,4.483-5.436,9.964-7.748l0.431-0.19c3.343-1.406,5.603-2.854,6.779-4.346c1.176-1.493,1.764-3.465,1.764-5.918
			c0-2.797-0.845-5.043-2.538-6.743c-1.692-1.7-3.93-2.55-6.71-2.55c-2.354,0-4.355,0.653-6.004,1.957
			c-1.648,1.306-2.873,3.221-3.677,5.745C54.503,37.021,53.274,35.106,51.63,33.8"/>
		<path id="XMLID_38_" clip-path="url(#XMLID_86_)" fill="#EF731A" d="M15.597,58.771c-0.778-0.618-1.73-0.928-2.853-0.928
			c-1.313,0-2.374,0.403-3.18,1.209c-0.805,0.806-1.21,1.871-1.21,3.197c0,1.178,0.278,2.116,0.833,2.816
			c0.554,0.7,1.627,1.384,3.219,2.051c0.054,0.019,0.129,0.051,0.224,0.09c2.578,1.089,4.149,2.314,4.714,3.673
			c0.551-1.353,2.125-2.577,4.724-3.673l0.204-0.09c1.585-0.667,2.657-1.353,3.214-2.061c0.558-0.708,0.837-1.643,0.837-2.806
			c0-1.326-0.401-2.391-1.203-3.197c-0.803-0.806-1.864-1.209-3.182-1.209c-1.116,0-2.065,0.31-2.847,0.928
			c-0.781,0.619-1.362,1.527-1.743,2.724C16.959,60.298,16.376,59.39,15.597,58.771"/>
	</g>
</g>
<g id="XMLID_59_" display="none">
	<defs>
		<rect id="XMLID_47_" x="0" width="104.443" height="104.443"/>
	</defs>
	<clipPath id="XMLID_87_" display="inline">
		<use xlink:href="#XMLID_47_"  overflow="visible"/>
	</clipPath>
	<path display="inline" clip-path="url(#XMLID_87_)" fill="#4A4A4A" d="M52.221,99.22c-25.915,0-46.998-21.085-46.998-46.998
		c0-25.915,21.083-46.999,46.998-46.999S99.22,26.307,99.22,52.222C99.22,78.136,78.136,99.22,52.221,99.22 M52.221,0
		C23.425,0,0,23.429,0,52.222s23.426,52.222,52.222,52.222c28.797,0,52.222-23.428,52.222-52.222S81.019,0,52.221,0"/>
	<path display="inline" clip-path="url(#XMLID_87_)" fill="#4A4A4A" d="M52.221,23.499c7.198,0,13.058,5.857,13.058,13.058
		c0,7.197-5.86,13.054-13.058,13.054c-7.198,0-13.056-5.857-13.056-13.054C39.165,29.357,45.023,23.499,52.221,23.499
		 M52.221,54.833c10.077,0,18.277-8.199,18.277-18.276c0-10.081-8.201-18.28-18.277-18.28s-18.276,8.199-18.276,18.28
		C33.945,46.634,42.145,54.833,52.221,54.833"/>
	<path id="XMLID_48_" display="inline" clip-path="url(#XMLID_87_)" fill="#4A4A4A" d="M52.221,60.056
		c-12.065,0-22.916,6.916-26.998,17.21l4.854,1.923c3.302-8.322,12.199-13.914,22.144-13.914s18.842,5.592,22.141,13.914
		l4.853-1.923C75.135,66.973,64.286,60.056,52.221,60.056"/>
</g>
<g id="XMLID_60_" display="none">
	<g display="inline">
		<defs>
			<rect id="XMLID_55_" y="16.44" width="104.443" height="71.563"/>
		</defs>
		<clipPath id="XMLID_88_">
			<use xlink:href="#XMLID_55_"  overflow="visible"/>
		</clipPath>
		<path clip-path="url(#XMLID_88_)" fill="#4F4F4F" d="M9.96,20.309c-3.359,0-6.091,2.732-6.091,6.091v51.504
			c0,3.359,2.732,6.231,6.091,6.231h84.524c3.359,0,6.091-2.871,6.091-6.231V26.4c0-3.359-2.732-6.091-6.091-6.091H9.96z
			 M94.484,88.003H9.96c-5.492,0-9.96-4.608-9.96-10.1V26.4c0-5.492,4.468-9.96,9.96-9.96h84.524c5.492,0,9.96,4.468,9.96,9.96
			v51.504C104.443,83.395,99.975,88.003,94.484,88.003"/>
		<path id="XMLID_56_" clip-path="url(#XMLID_88_)" fill="#4F4F4F" d="M52.784,59.395c-3.118,0-13.553-0.246-16.901-3.403
			L7.62,30.93l2.567-2.894l28.306,25.102c1.252,1.179,6.655,2.388,14.291,2.388c7.54,0,12.858-1.178,14.034-2.287l28.587-25.352
			l2.566,2.894L69.429,56.094C66.185,59.154,55.868,59.395,52.784,59.395"/>
	</g>
	
		<rect id="XMLID_54_" x="64.771" y="63.056" transform="matrix(0.6785 0.7346 -0.7346 0.6785 74.5093 -40.265)" display="inline" fill="#4F4F4F" width="36.969" height="3.87"/>
	
		<rect id="XMLID_53_" x="19.589" y="46.506" transform="matrix(0.7344 0.6788 -0.6788 0.7344 49.8306 2.655)" display="inline" fill="#4F4F4F" width="3.868" height="36.97"/>
</g>
<g id="XMLID_68_" display="none">
	<defs>
		<rect id="XMLID_61_" width="104.443" height="104.443"/>
	</defs>
	<clipPath id="XMLID_89_" display="inline">
		<use xlink:href="#XMLID_61_"  overflow="visible"/>
	</clipPath>
	<path display="inline" clip-path="url(#XMLID_89_)" fill="#1A1A1A" d="M47.233,55.936l4.989-4.989v27.385H47.87
		c-1.203,0-2.177,0.974-2.177,2.177s0.974,2.175,2.177,2.175h13.054c1.203,0,2.177-0.972,2.177-2.175s-0.974-2.177-2.177-2.177
		h-4.351V45.694c0-0.879-0.528-1.674-1.342-2.009c-0.814-0.343-1.746-0.152-2.372,0.472l-8.703,8.703
		c-0.851,0.849-0.851,2.227,0,3.077C45.006,56.787,46.382,56.787,47.233,55.936 M100.091,26.111H4.352v-8.705
		c0-2.398,1.952-4.351,4.351-4.353h17.408v2.178c0,3.599,2.928,6.528,6.528,6.528c3.599,0,6.526-2.929,6.526-6.528v-2.178h26.112
		v2.178c0,3.599,2.928,6.528,6.526,6.528c3.6,0,6.528-2.929,6.528-6.528v-2.178H95.74c2.399,0.002,4.351,1.955,4.351,4.353V26.111z
		 M100.091,95.74c0,2.399-1.952,4.351-4.351,4.351H8.704c-2.399,0-4.351-1.952-4.351-4.351V30.461h95.739V95.74z M30.463,6.527
		c0-1.2,0.975-2.175,2.177-2.175c1.2,0,2.175,0.975,2.175,2.175v8.705c0,1.2-0.975,2.175-2.175,2.175
		c-1.201,0-2.177-0.975-2.177-2.175V6.527z M69.629,6.527c0-1.2,0.975-2.175,2.175-2.175c1.201,0,2.177,0.975,2.177,2.175v8.705
		c0,1.2-0.975,2.175-2.177,2.175c-1.2,0-2.175-0.975-2.175-2.175V6.527z M95.74,8.704H78.332V6.527c0-3.599-2.928-6.526-6.528-6.526
		c-3.599,0-6.526,2.928-6.526,6.526v2.177H39.166V6.527c0-3.599-2.928-6.526-6.526-6.526c-3.6,0-6.528,2.928-6.528,6.526v2.177
		H8.704c-4.8,0-8.705,3.903-8.705,8.703V95.74c0,4.8,3.905,8.705,8.705,8.705H95.74c4.8,0,8.703-3.905,8.703-8.705V17.407
		C104.443,12.607,100.54,8.704,95.74,8.704"/>
</g>
<g id="XMLID_69_">
	<rect id="XMLID_73_" x="49.568" y="36.42" fill="#4A4A4A" width="5.305" height="29.183"/>
	<rect id="XMLID_72_" x="49.568" y="76.216" fill="#4A4A4A" width="5.305" height="7.957"/>
	<path fill="#4A4A4A" d="M52.222,15.431l43.284,79.355H8.936L52.222,15.431z M52.222,4.351L0,100.093h104.443L52.222,4.351z"/>
</g>
<g id="XMLID_74_" display="none">
	<rect id="XMLID_82_" x="0.13" y="98.655" display="inline" fill="#4A4A4A" width="104.182" height="5.788"/>
	<rect id="XMLID_81_" x="49.328" y="40.776" display="inline" fill="#4A4A4A" width="5.788" height="46.306"/>
	<rect id="XMLID_80_" x="29.071" y="40.776" display="inline" fill="#4A4A4A" width="5.788" height="46.306"/>
	<rect id="XMLID_79_" x="8.813" y="40.776" display="inline" fill="#4A4A4A" width="5.787" height="46.306"/>
	<rect id="XMLID_78_" x="69.587" y="40.776" display="inline" fill="#4A4A4A" width="5.787" height="46.306"/>
	<rect id="XMLID_77_" x="89.843" y="40.776" display="inline" fill="#4A4A4A" width="5.788" height="46.306"/>
	<path display="inline" fill="#4A4A4A" d="M52.22,6.311l38.463,17.103H13.761L52.22,6.311z M52.22,0L0.131,23.155v6.048h104.182
		v-6.048L52.22,0z"/>
</g>
</svg>
