<svg xmlns="http://www.w3.org/2000/svg" xmlns:xlink="http://www.w3.org/1999/xlink" viewBox="0 0 44.3 44.3"><defs><path id="a" d="M0 0h44.3v44.3H0z"/></defs><clipPath id="b"><use xlink:href="#a" overflow="visible"/></clipPath><path d="M26.3 22.1c0-2.3-1.9-4.2-4.2-4.2-2.3 0-4.2 1.9-4.2 4.2s1.9 4.2 4.2 4.2c2.3-.1 4.2-1.9 4.2-4.2m3.2-6c0 .6-.5 1.1-1.1 1.1-.6 0-1.1-.5-1.1-1.1 0-.6.5-1.1 1.1-1.1.6 0 1.1.5 1.1 1.1m-1.5 6c0 3.2-2.6 5.8-5.8 5.8-3.2 0-5.8-2.6-5.8-5.8s2.6-5.8 5.8-5.8c3.2-.1 5.8 2.5 5.8 5.8m3.7 4.6v-9.1s0-1.3-.7-2.6c-.8-1.6-2.3-2.4-4.3-2.4h-9.1s-1.3 0-2.6.7c-1.6.8-2.4 2.3-2.4 4.3v9.1s0 1.3.7 2.6c.8 1.6 2.3 2.4 4.3 2.4h9.1s1.3 0 2.6-.7c1.6-.8 2.4-2.2 2.4-4.3m1.7 0c0 3.4-1.8 5.1-3.4 5.9-1.6.8-3.2.8-3.3.8h-9.1c-3.4 0-5.1-1.8-5.9-3.4-.8-1.6-.8-3.2-.8-3.3v-9.1c0-3.4 1.8-5.1 3.4-5.9 1.6-.8 3.2-.8 3.3-.8h9.1c3.4 0 5.1 1.8 5.9 3.4.8 1.6.8 3.2.8 3.3v9.1zm10.9-4.6C44.3 9.9 34.4 0 22.1 0 9.9 0 0 9.9 0 22.1c0 12.2 9.9 22.1 22.1 22.1 12.3.1 22.2-9.8 22.2-22.1" clip-path="url(#b)" fill="#fff"/></svg>