<svg xmlns="http://www.w3.org/2000/svg" xmlns:xlink="http://www.w3.org/1999/xlink" viewBox="0 0 56.4 45.8"><defs><path id="a" d="M0 0h56.4v45.8H0z"/></defs><clipPath id="b"><use xlink:href="#a" overflow="visible"/></clipPath><path d="M13.9 45.8c7 0 12.1-5 12.1-11 0-6.1-5-10.9-11-10.9-3.5 0-6.1 1.1-6.1 1.1C9 14.6 18 7.8 19.7 6.6c.9-.8 1.2-2.1.2-3.4L17.6 1C16.4-.4 15.3-.1 14.2.7 10.7 3.6 0 12 0 28c0 13.3 8.1 17.8 13.9 17.8m30.4 0c7 0 12.1-5 12.1-11 0-6.1-5-10.9-11-10.9-3.5 0-6.1 1.1-6.1 1.1.2-10.4 9.2-17.1 10.9-18.3.9-.8 1.2-2.1.2-3.4L48 1C46.8-.4 45.7-.1 44.6.7 41.1 3.6 30.4 12 30.4 28c0 13.3 8.1 17.8 13.9 17.8" clip-path="url(#b)" fill="#fff"/></svg>