<svg version="1.1" id="Layer_1" xmlns="http://www.w3.org/2000/svg" xmlns:xlink="http://www.w3.org/1999/xlink" x="0" y="0" viewBox="0 0 120.3 181" xml:space="preserve"><style>.st0{fill:#2c9cd7}</style><defs><path id="SVGID_1_" d="M-.4 0h251.2v181H-.4z"/></defs><clipPath id="SVGID_2_"><use xlink:href="#SVGID_1_" overflow="visible"/></clipPath><defs><path id="SVGID_3_" d="M-.4 0h251.2v181H-.4z"/></defs><clipPath id="SVGID_4_"><use xlink:href="#SVGID_3_" overflow="visible"/></clipPath><path id="XMLID_2_" class="st0" d="M83.9 20.6c-.3.6-.5 1.1-.8 1.7-4.6 9.1-8.5 18.4-11.8 28-3.7 10.5-6.7 21.3-9.3 32.1-2.8 11.5-5.4 23.1-8.2 34.7-2.2 9.1-4.8 18.2-7.9 27.1-2.9 8.3-6.1 16.5-10 24.3-2 3.9-4 7.8-6.1 11.8-.2.3-.4.6-.8.8v-.8c1-6.1 2.2-12.2 3.1-18.3.6-4.2 1-8.4 1.5-12.7.8-6.4.6-12.9.6-19.4 0-5.4-.7-10.8-2.4-16-.9-2.9-2.3-5.6-4.5-7.8-4.3-4.1-11.6-3.4-15.3.8-3.3 3.8-3.8 9.4-.5 13.8.7.9 1.5 1.7 2.3 2.7-.9-.4-1.8-.7-2.6-1.1-3.7-2-6.7-4.6-8.9-8.3-1.2-2.1-1.9-4.4-2.4-6.8-.7-3.7-.5-7.3.6-10.9 1.1-3.6 3.3-6.4 6.2-8.7 3.3-2.7 7.2-4.4 11-6 6.5-2.8 13.2-5.2 19.5-8.4 4.1-2.1 7.9-4.8 11.4-7.8 2.1-1.8 4.2-3.5 6.1-5.5 3.9-4 7.6-8.2 11.1-12.7C71.6 39.8 76.7 32 81.5 24c.7-1.1 1.3-2.3 2-3.4.2-.1.3-.1.4 0"/><path id="XMLID_3_" d="M112.3 0v2.7c0 .5-.1.9-.1 1.4-.1 2-.1 4-.2 5.9 0 .7.2 1.1.7 1.6 2.4 1.9 4.8 3.8 7.3 5.8.2.2.4.3.6.6-.3.1-.5.2-.7.2-3.1.7-6.3 1.4-9.4 2.1-.6.1-.9.4-1.1.9-1 2.9-2.1 5.7-3.2 8.6-.1.1-.1.3-.3.5-.2-.3-.4-.5-.6-.8-1.8-2.6-3.5-5.3-5.3-7.9-.2-.3-.4-.5-.6-.8-3.6-.3-7.2-.5-10.9-.8.7-1.2 1.6-2 2.3-2.9.7-1 1.6-1.9 2.3-2.8.8-.9 1.6-1.8 2.3-2.9-1-3.4-2-6.7-3.1-10.3 1.4.3 2.5 1 3.7 1.4 1.2.4 2.3.9 3.4 1.4 1.2.5 2.3 1 3.5 1.4.3-.1.6-.2.8-.4 2.5-1.6 5-3.1 7.5-4.7.5.1.7 0 1.1-.2" fill="#dddcdb"/><path id="XMLID_4_" class="st0" d="M37.1 62c-6 .2-11.7-4.6-11.7-11.8 0-6.5 5.7-11.7 12-11.6 6 .1 11.6 5.5 11.6 11.9.1 5.6-5 12.1-11.9 11.5"/></svg>