<?xml version="1.0" encoding="utf-8"?>
<!-- Generator: Adobe Illustrator 19.0.0, SVG Export Plug-In . SVG Version: 6.00 Build 0)  -->
<svg version="1.1" id="Layer_1" xmlns="http://www.w3.org/2000/svg" xmlns:xlink="http://www.w3.org/1999/xlink" x="0px" y="0px"
	 viewBox="0 0 138.3 126.9" style="enable-background:new 0 0 138.3 126.9;" xml:space="preserve">
<style type="text/css">
	.st0{clip-path:url(#XMLID_192_);fill:#87ABD2;}
	.st1{clip-path:url(#XMLID_192_);fill:#ECCB53;}
	.st2{clip-path:url(#XMLID_192_);fill:#FBD858;}
	.st3{clip-path:url(#XMLID_192_);fill:#EDEDED;}
	.st4{clip-path:url(#XMLID_192_);fill:#FFFFFF;}
	.st5{clip-path:url(#XMLID_192_);fill:#EA696D;}
	.st6{clip-path:url(#XMLID_192_);fill:#CE5D61;}
	.st7{clip-path:url(#XMLID_192_);fill:#DAECF0;}
	.st8{clip-path:url(#XMLID_192_);fill:#C1DFE5;}
	.st9{clip-path:url(#XMLID_192_);fill:#CEE6EC;}
	.st10{clip-path:url(#XMLID_192_);fill:#B0D3DC;}
</style>
<g>
	<defs>
		<rect id="XMLID_53_" width="138.2" height="126.9"/>
	</defs>
	<clipPath id="XMLID_192_">
		<use xlink:href="#XMLID_53_"  style="overflow:visible;"/>
	</clipPath>
	<path id="XMLID_164_" class="st0" d="M84.8,29.2H134c2.3,0,4.1,1.8,4.1,4.1v89.1c0,2.3-1.8,4.1-4.1,4.1H84.8
		c-2.3,0-4.1-1.8-4.1-4.1V33.3C80.7,31,82.5,29.2,84.8,29.2"/>
	<path id="XMLID_163_" class="st1" d="M123.2,115.7c0-2.4,2.1-4.3,4.6-4.3c2.6,0,4.6,1.9,4.6,4.3c0,2.4-2.1,4.3-4.6,4.3
		C125.3,120.1,123.2,118.1,123.2,115.7"/>
	<path id="XMLID_162_" class="st2" d="M122.5,115.7c0-2.4,1.9-4.3,4.3-4.3c2.4,0,4.3,1.9,4.3,4.3c0,2.4-1.9,4.3-4.3,4.3
		C124.4,120.1,122.5,118.1,122.5,115.7"/>
	<path id="XMLID_161_" class="st2" d="M130.8,115.7c0,2.3-1.9,4.2-4.2,4.3c0.1,0,0.1,0,0.1,0c2.4,0,4.3-1.9,4.3-4.3
		c0-2.4-1.9-4.3-4.3-4.3c-0.1,0-0.1,0-0.1,0C129,111.5,130.8,113.4,130.8,115.7"/>
	<path id="XMLID_160_" class="st1" d="M110.9,115.7c0-2.4,2.1-4.3,4.6-4.3c2.6,0,4.6,1.9,4.6,4.3c0,2.4-2.1,4.3-4.6,4.3
		C113,120.1,110.9,118.1,110.9,115.7"/>
	<path id="XMLID_159_" class="st2" d="M110.2,115.7c0-2.4,1.9-4.3,4.3-4.3c2.4,0,4.3,1.9,4.3,4.3c0,2.4-1.9,4.3-4.3,4.3
		C112.1,120.1,110.2,118.1,110.2,115.7"/>
	<path id="XMLID_158_" class="st2" d="M118.6,115.7c0,2.3-1.9,4.2-4.2,4.3c0.1,0,0.1,0,0.1,0c2.4,0,4.3-1.9,4.3-4.3
		c0-2.4-1.9-4.3-4.3-4.3c-0.1,0-0.1,0-0.1,0C116.7,111.5,118.6,113.4,118.6,115.7"/>
	<path id="XMLID_157_" class="st1" d="M98.7,115.7c0-2.4,2.1-4.3,4.6-4.3c2.6,0,4.6,1.9,4.6,4.3c0,2.4-2.1,4.3-4.6,4.3
		C100.7,120.1,98.7,118.1,98.7,115.7"/>
	<path id="XMLID_156_" class="st2" d="M97.9,115.7c0-2.4,1.9-4.3,4.3-4.3c2.4,0,4.3,1.9,4.3,4.3c0,2.4-1.9,4.3-4.3,4.3
		C99.9,120.1,97.9,118.1,97.9,115.7"/>
	<path id="XMLID_155_" class="st2" d="M106.3,115.7c0,2.3-1.9,4.2-4.2,4.3c0.1,0,0.1,0,0.1,0c2.4,0,4.3-1.9,4.3-4.3
		c0-2.4-1.9-4.3-4.3-4.3c-0.1,0-0.1,0-0.1,0C104.5,111.5,106.3,113.4,106.3,115.7"/>
	<path id="XMLID_154_" class="st1" d="M86.4,115.7c0-2.4,2.1-4.3,4.6-4.3c2.6,0,4.6,1.9,4.6,4.3c0,2.4-2.1,4.3-4.6,4.3
		C88.5,120.1,86.4,118.1,86.4,115.7"/>
	<path id="XMLID_153_" class="st2" d="M85.7,115.7c0-2.4,1.9-4.3,4.3-4.3c2.4,0,4.3,1.9,4.3,4.3c0,2.4-1.9,4.3-4.3,4.3
		C87.6,120.1,85.7,118.1,85.7,115.7"/>
	<path id="XMLID_152_" class="st2" d="M94.1,115.7c0,2.3-1.9,4.2-4.2,4.3c0.1,0,0.1,0,0.1,0c2.4,0,4.3-1.9,4.3-4.3
		c0-2.4-1.9-4.3-4.3-4.3c-0.1,0-0.1,0-0.1,0C92.2,111.5,94.1,113.4,94.1,115.7"/>
	<path id="XMLID_151_" class="st1" d="M123.2,100.5c0-2.4,2.1-4.3,4.6-4.3c2.6,0,4.6,1.9,4.6,4.3c0,2.4-2.1,4.3-4.6,4.3
		C125.3,104.9,123.2,102.9,123.2,100.5"/>
	<path id="XMLID_150_" class="st2" d="M122.5,100.5c0-2.4,1.9-4.3,4.3-4.3c2.4,0,4.3,1.9,4.3,4.3c0,2.4-1.9,4.3-4.3,4.3
		C124.4,104.9,122.5,102.9,122.5,100.5"/>
	<path id="XMLID_149_" class="st2" d="M130.8,100.5c0,2.3-1.9,4.3-4.2,4.3c0.1,0,0.1,0,0.1,0c2.4,0,4.3-1.9,4.3-4.3
		c0-2.4-1.9-4.3-4.3-4.3c-0.1,0-0.1,0-0.1,0C129,96.3,130.8,98.2,130.8,100.5"/>
	<path id="XMLID_148_" class="st1" d="M110.9,100.5c0-2.4,2.1-4.3,4.6-4.3c2.6,0,4.6,1.9,4.6,4.3c0,2.4-2.1,4.3-4.6,4.3
		C113,104.9,110.9,102.9,110.9,100.5"/>
	<path id="XMLID_147_" class="st2" d="M110.2,100.5c0-2.4,1.9-4.3,4.3-4.3c2.4,0,4.3,1.9,4.3,4.3c0,2.4-1.9,4.3-4.3,4.3
		C112.1,104.9,110.2,102.9,110.2,100.5"/>
	<path id="XMLID_146_" class="st2" d="M118.6,100.5c0,2.3-1.9,4.3-4.2,4.3c0.1,0,0.1,0,0.1,0c2.4,0,4.3-1.9,4.3-4.3
		c0-2.4-1.9-4.3-4.3-4.3c-0.1,0-0.1,0-0.1,0C116.7,96.3,118.6,98.2,118.6,100.5"/>
	<path id="XMLID_145_" class="st1" d="M98.7,100.5c0-2.4,2.1-4.3,4.6-4.3c2.6,0,4.6,1.9,4.6,4.3c0,2.4-2.1,4.3-4.6,4.3
		C100.7,104.9,98.7,102.9,98.7,100.5"/>
	<path id="XMLID_144_" class="st2" d="M97.9,100.5c0-2.4,1.9-4.3,4.3-4.3c2.4,0,4.3,1.9,4.3,4.3c0,2.4-1.9,4.3-4.3,4.3
		C99.9,104.9,97.9,102.9,97.9,100.5"/>
	<path id="XMLID_143_" class="st2" d="M106.3,100.5c0,2.3-1.9,4.3-4.2,4.3c0.1,0,0.1,0,0.1,0c2.4,0,4.3-1.9,4.3-4.3
		c0-2.4-1.9-4.3-4.3-4.3c-0.1,0-0.1,0-0.1,0C104.5,96.3,106.3,98.2,106.3,100.5"/>
	<path id="XMLID_142_" class="st1" d="M86.4,100.5c0-2.4,2.1-4.3,4.6-4.3c2.6,0,4.6,1.9,4.6,4.3c0,2.4-2.1,4.3-4.6,4.3
		C88.5,104.9,86.4,102.9,86.4,100.5"/>
	<path id="XMLID_141_" class="st2" d="M85.7,100.5c0-2.4,1.9-4.3,4.3-4.3c2.4,0,4.3,1.9,4.3,4.3c0,2.4-1.9,4.3-4.3,4.3
		C87.6,104.9,85.7,102.9,85.7,100.5"/>
	<path id="XMLID_140_" class="st2" d="M94.1,100.5c0,2.3-1.9,4.3-4.2,4.3c0.1,0,0.1,0,0.1,0c2.4,0,4.3-1.9,4.3-4.3
		c0-2.4-1.9-4.3-4.3-4.3c-0.1,0-0.1,0-0.1,0C92.2,96.3,94.1,98.2,94.1,100.5"/>
	<path id="XMLID_139_" class="st1" d="M123.2,85.3c0-2.4,2.1-4.3,4.6-4.3c2.6,0,4.6,1.9,4.6,4.3c0,2.4-2.1,4.3-4.6,4.3
		C125.3,89.7,123.2,87.7,123.2,85.3"/>
	<path id="XMLID_138_" class="st2" d="M122.5,85.3c0-2.4,1.9-4.3,4.3-4.3c2.4,0,4.3,1.9,4.3,4.3c0,2.4-1.9,4.3-4.3,4.3
		C124.4,89.7,122.5,87.7,122.5,85.3"/>
	<path id="XMLID_137_" class="st2" d="M130.8,85.3c0,2.3-1.9,4.3-4.2,4.3c0.1,0,0.1,0,0.1,0c2.4,0,4.3-1.9,4.3-4.3
		c0-2.4-1.9-4.3-4.3-4.3c-0.1,0-0.1,0-0.1,0C129,81.1,130.8,83,130.8,85.3"/>
	<path id="XMLID_136_" class="st1" d="M110.9,85.3c0-2.4,2.1-4.3,4.6-4.3c2.6,0,4.6,1.9,4.6,4.3c0,2.4-2.1,4.3-4.6,4.3
		C113,89.7,110.9,87.7,110.9,85.3"/>
	<path id="XMLID_135_" class="st2" d="M110.2,85.3c0-2.4,1.9-4.3,4.3-4.3c2.4,0,4.3,1.9,4.3,4.3c0,2.4-1.9,4.3-4.3,4.3
		C112.1,89.7,110.2,87.7,110.2,85.3"/>
	<path id="XMLID_134_" class="st2" d="M118.6,85.3c0,2.3-1.9,4.3-4.2,4.3c0.1,0,0.1,0,0.1,0c2.4,0,4.3-1.9,4.3-4.3
		c0-2.4-1.9-4.3-4.3-4.3c-0.1,0-0.1,0-0.1,0C116.7,81.1,118.6,83,118.6,85.3"/>
	<path id="XMLID_133_" class="st1" d="M98.7,85.3c0-2.4,2.1-4.3,4.6-4.3c2.6,0,4.6,1.9,4.6,4.3c0,2.4-2.1,4.3-4.6,4.3
		C100.7,89.7,98.7,87.7,98.7,85.3"/>
	<path id="XMLID_132_" class="st2" d="M97.9,85.3c0-2.4,1.9-4.3,4.3-4.3c2.4,0,4.3,1.9,4.3,4.3c0,2.4-1.9,4.3-4.3,4.3
		C99.9,89.7,97.9,87.7,97.9,85.3"/>
	<path id="XMLID_131_" class="st2" d="M106.3,85.3c0,2.3-1.9,4.3-4.2,4.3c0.1,0,0.1,0,0.1,0c2.4,0,4.3-1.9,4.3-4.3
		c0-2.4-1.9-4.3-4.3-4.3c-0.1,0-0.1,0-0.1,0C104.5,81.1,106.3,83,106.3,85.3"/>
	<path id="XMLID_130_" class="st1" d="M86.4,85.3c0-2.4,2.1-4.3,4.6-4.3c2.6,0,4.6,1.9,4.6,4.3c0,2.4-2.1,4.3-4.6,4.3
		C88.5,89.7,86.4,87.7,86.4,85.3"/>
	<path id="XMLID_129_" class="st2" d="M85.7,85.3c0-2.4,1.9-4.3,4.3-4.3c2.4,0,4.3,1.9,4.3,4.3c0,2.4-1.9,4.3-4.3,4.3
		C87.6,89.7,85.7,87.7,85.7,85.3"/>
	<path id="XMLID_128_" class="st2" d="M94.1,85.3c0,2.3-1.9,4.3-4.2,4.3c0.1,0,0.1,0,0.1,0c2.4,0,4.3-1.9,4.3-4.3
		c0-2.4-1.9-4.3-4.3-4.3c-0.1,0-0.1,0-0.1,0C92.2,81.1,94.1,83,94.1,85.3"/>
	<path id="XMLID_127_" class="st1" d="M123.2,70.1c0-2.4,2.1-4.3,4.6-4.3c2.6,0,4.6,1.9,4.6,4.3c0,2.4-2.1,4.3-4.6,4.3
		C125.3,74.5,123.2,72.5,123.2,70.1"/>
	<path id="XMLID_126_" class="st2" d="M122.5,70.1c0-2.4,1.9-4.3,4.3-4.3c2.4,0,4.3,1.9,4.3,4.3c0,2.4-1.9,4.3-4.3,4.3
		C124.4,74.5,122.5,72.5,122.5,70.1"/>
	<path id="XMLID_125_" class="st2" d="M130.8,70.1c0,2.3-1.9,4.2-4.2,4.3c0.1,0,0.1,0,0.1,0c2.4,0,4.3-1.9,4.3-4.3
		c0-2.4-1.9-4.3-4.3-4.3c-0.1,0-0.1,0-0.1,0C129,65.9,130.8,67.8,130.8,70.1"/>
	<path id="XMLID_124_" class="st1" d="M110.9,70.1c0-2.4,2.1-4.3,4.6-4.3c2.6,0,4.6,1.9,4.6,4.3c0,2.4-2.1,4.3-4.6,4.3
		C113,74.5,110.9,72.5,110.9,70.1"/>
	<path id="XMLID_123_" class="st2" d="M110.2,70.1c0-2.4,1.9-4.3,4.3-4.3c2.4,0,4.3,1.9,4.3,4.3c0,2.4-1.9,4.3-4.3,4.3
		C112.1,74.5,110.2,72.5,110.2,70.1"/>
	<path id="XMLID_122_" class="st2" d="M118.6,70.1c0,2.3-1.9,4.2-4.2,4.3c0.1,0,0.1,0,0.1,0c2.4,0,4.3-1.9,4.3-4.3
		c0-2.4-1.9-4.3-4.3-4.3c-0.1,0-0.1,0-0.1,0C116.7,65.9,118.6,67.8,118.6,70.1"/>
	<path id="XMLID_121_" class="st1" d="M98.7,70.1c0-2.4,2.1-4.3,4.6-4.3c2.6,0,4.6,1.9,4.6,4.3c0,2.4-2.1,4.3-4.6,4.3
		C100.7,74.5,98.7,72.5,98.7,70.1"/>
	<path id="XMLID_120_" class="st2" d="M97.9,70.1c0-2.4,1.9-4.3,4.3-4.3c2.4,0,4.3,1.9,4.3,4.3c0,2.4-1.9,4.3-4.3,4.3
		C99.9,74.5,97.9,72.5,97.9,70.1"/>
	<path id="XMLID_119_" class="st2" d="M106.3,70.1c0,2.3-1.9,4.2-4.2,4.3c0.1,0,0.1,0,0.1,0c2.4,0,4.3-1.9,4.3-4.3
		c0-2.4-1.9-4.3-4.3-4.3c-0.1,0-0.1,0-0.1,0C104.5,65.9,106.3,67.8,106.3,70.1"/>
	<path id="XMLID_118_" class="st1" d="M86.4,70.1c0-2.4,2.1-4.3,4.6-4.3c2.6,0,4.6,1.9,4.6,4.3c0,2.4-2.1,4.3-4.6,4.3
		C88.5,74.5,86.4,72.5,86.4,70.1"/>
	<path id="XMLID_117_" class="st2" d="M85.7,70.1c0-2.4,1.9-4.3,4.3-4.3c2.4,0,4.3,1.9,4.3,4.3c0,2.4-1.9,4.3-4.3,4.3
		C87.6,74.5,85.7,72.5,85.7,70.1"/>
	<path id="XMLID_116_" class="st2" d="M94.1,70.1c0,2.3-1.9,4.2-4.2,4.3c0.1,0,0.1,0,0.1,0c2.4,0,4.3-1.9,4.3-4.3
		c0-2.4-1.9-4.3-4.3-4.3c-0.1,0-0.1,0-0.1,0C92.2,65.9,94.1,67.8,94.1,70.1"/>
	<path id="XMLID_115_" class="st1" d="M123.2,54.9c0-2.4,2.1-4.3,4.6-4.3c2.6,0,4.6,1.9,4.6,4.3c0,2.4-2.1,4.3-4.6,4.3
		C125.3,59.3,123.2,57.3,123.2,54.9"/>
	<path id="XMLID_114_" class="st2" d="M122.5,54.9c0-2.4,1.9-4.3,4.3-4.3c2.4,0,4.3,1.9,4.3,4.3c0,2.4-1.9,4.3-4.3,4.3
		C124.4,59.3,122.5,57.3,122.5,54.9"/>
	<path id="XMLID_113_" class="st2" d="M130.8,54.9c0,2.3-1.9,4.3-4.2,4.3c0.1,0,0.1,0,0.1,0c2.4,0,4.3-1.9,4.3-4.3
		c0-2.4-1.9-4.3-4.3-4.3c-0.1,0-0.1,0-0.1,0C129,50.7,130.8,52.6,130.8,54.9"/>
	<path id="XMLID_112_" class="st1" d="M110.9,54.9c0-2.4,2.1-4.3,4.6-4.3c2.6,0,4.6,1.9,4.6,4.3c0,2.4-2.1,4.3-4.6,4.3
		C113,59.3,110.9,57.3,110.9,54.9"/>
	<path id="XMLID_111_" class="st2" d="M110.2,54.9c0-2.4,1.9-4.3,4.3-4.3c2.4,0,4.3,1.9,4.3,4.3c0,2.4-1.9,4.3-4.3,4.3
		C112.1,59.3,110.2,57.3,110.2,54.9"/>
	<path id="XMLID_110_" class="st2" d="M118.6,54.9c0,2.3-1.9,4.3-4.2,4.3c0.1,0,0.1,0,0.1,0c2.4,0,4.3-1.9,4.3-4.3
		c0-2.4-1.9-4.3-4.3-4.3c-0.1,0-0.1,0-0.1,0C116.7,50.7,118.6,52.6,118.6,54.9"/>
	<path id="XMLID_109_" class="st1" d="M98.7,54.9c0-2.4,2.1-4.3,4.6-4.3c2.6,0,4.6,1.9,4.6,4.3c0,2.4-2.1,4.3-4.6,4.3
		C100.7,59.3,98.7,57.3,98.7,54.9"/>
	<path id="XMLID_108_" class="st2" d="M97.9,54.9c0-2.4,1.9-4.3,4.3-4.3c2.4,0,4.3,1.9,4.3,4.3c0,2.4-1.9,4.3-4.3,4.3
		C99.9,59.3,97.9,57.3,97.9,54.9"/>
	<path id="XMLID_107_" class="st2" d="M106.3,54.9c0,2.3-1.9,4.3-4.2,4.3c0.1,0,0.1,0,0.1,0c2.4,0,4.3-1.9,4.3-4.3
		c0-2.4-1.9-4.3-4.3-4.3c-0.1,0-0.1,0-0.1,0C104.5,50.7,106.3,52.6,106.3,54.9"/>
	<path id="XMLID_106_" class="st1" d="M86.4,54.9c0-2.4,2.1-4.3,4.6-4.3c2.6,0,4.6,1.9,4.6,4.3c0,2.4-2.1,4.3-4.6,4.3
		C88.5,59.3,86.4,57.3,86.4,54.9"/>
	<path id="XMLID_105_" class="st2" d="M85.7,54.9c0-2.4,1.9-4.3,4.3-4.3c2.4,0,4.3,1.9,4.3,4.3c0,2.4-1.9,4.3-4.3,4.3
		C87.6,59.3,85.7,57.3,85.7,54.9"/>
	<path id="XMLID_104_" class="st2" d="M94.1,54.9c0,2.3-1.9,4.3-4.2,4.3c0.1,0,0.1,0,0.1,0c2.4,0,4.3-1.9,4.3-4.3
		c0-2.4-1.9-4.3-4.3-4.3c-0.1,0-0.1,0-0.1,0C92.2,50.7,94.1,52.6,94.1,54.9"/>
	<path id="XMLID_103_" class="st1" d="M123.2,39.7c0-2.4,2.1-4.3,4.6-4.3c2.6,0,4.6,1.9,4.6,4.3c0,2.4-2.1,4.3-4.6,4.3
		C125.3,44.1,123.2,42.1,123.2,39.7"/>
	<path id="XMLID_102_" class="st2" d="M122.5,39.7c0-2.4,1.9-4.3,4.3-4.3c2.4,0,4.3,1.9,4.3,4.3c0,2.4-1.9,4.3-4.3,4.3
		C124.4,44.1,122.5,42.1,122.5,39.7"/>
	<path id="XMLID_101_" class="st2" d="M130.8,39.7c0,2.4-1.9,4.3-4.2,4.3c0.1,0,0.1,0,0.1,0c2.4,0,4.3-1.9,4.3-4.3
		c0-2.4-1.9-4.3-4.3-4.3c-0.1,0-0.1,0-0.1,0C129,35.5,130.8,37.4,130.8,39.7"/>
	<path id="XMLID_100_" class="st1" d="M110.9,39.7c0-2.4,2.1-4.3,4.6-4.3c2.6,0,4.6,1.9,4.6,4.3c0,2.4-2.1,4.3-4.6,4.3
		C113,44.1,110.9,42.1,110.9,39.7"/>
	<path id="XMLID_99_" class="st2" d="M110.2,39.7c0-2.4,1.9-4.3,4.3-4.3c2.4,0,4.3,1.9,4.3,4.3c0,2.4-1.9,4.3-4.3,4.3
		C112.1,44.1,110.2,42.1,110.2,39.7"/>
	<path id="XMLID_98_" class="st2" d="M118.6,39.7c0,2.4-1.9,4.3-4.2,4.3c0.1,0,0.1,0,0.1,0c2.4,0,4.3-1.9,4.3-4.3
		c0-2.4-1.9-4.3-4.3-4.3c-0.1,0-0.1,0-0.1,0C116.7,35.5,118.6,37.4,118.6,39.7"/>
	<path id="XMLID_97_" class="st1" d="M98.7,39.7c0-2.4,2.1-4.3,4.6-4.3c2.6,0,4.6,1.9,4.6,4.3c0,2.4-2.1,4.3-4.6,4.3
		C100.7,44.1,98.7,42.1,98.7,39.7"/>
	<path id="XMLID_96_" class="st2" d="M97.9,39.7c0-2.4,1.9-4.3,4.3-4.3c2.4,0,4.3,1.9,4.3,4.3c0,2.4-1.9,4.3-4.3,4.3
		C99.9,44.1,97.9,42.1,97.9,39.7"/>
	<path id="XMLID_95_" class="st2" d="M106.3,39.7c0,2.4-1.9,4.3-4.2,4.3c0.1,0,0.1,0,0.1,0c2.4,0,4.3-1.9,4.3-4.3
		c0-2.4-1.9-4.3-4.3-4.3c-0.1,0-0.1,0-0.1,0C104.5,35.5,106.3,37.4,106.3,39.7"/>
	<path id="XMLID_94_" class="st1" d="M86.4,39.7c0-2.4,2.1-4.3,4.6-4.3c2.6,0,4.6,1.9,4.6,4.3c0,2.4-2.1,4.3-4.6,4.3
		C88.5,44.1,86.4,42.1,86.4,39.7"/>
	<path id="XMLID_93_" class="st2" d="M85.7,39.7c0-2.4,1.9-4.3,4.3-4.3c2.4,0,4.3,1.9,4.3,4.3c0,2.4-1.9,4.3-4.3,4.3
		C87.6,44.1,85.7,42.1,85.7,39.7"/>
	<path id="XMLID_92_" class="st2" d="M94.1,39.7c0,2.4-1.9,4.3-4.2,4.3c0.1,0,0.1,0,0.1,0c2.4,0,4.3-1.9,4.3-4.3
		c0-2.4-1.9-4.3-4.3-4.3c-0.1,0-0.1,0-0.1,0C92.2,35.5,94.1,37.4,94.1,39.7"/>
	<path class="st3" d="M62.7,124.2c-2.8,0-5.1-2.3-5.1-5.1c0-2.4,1.7-4.4,4-5c0.3,0.2,0.7,0.3,1.1,0.3s0.8-0.1,1.1-0.3
		c2.3,0.5,4,2.5,4,5C67.8,121.9,65.5,124.2,62.7,124.2 M65.3,111.9C65.3,111.9,65.3,111.9,65.3,111.9l0-87.6c0-1.4-1.2-2.6-2.6-2.6
		c-1.4,0-2.6,1.2-2.6,2.6v87.5c0,0,0,0,0,0.1c-3,1.1-5.1,3.9-5.1,7.2c0,4.3,3.5,7.7,7.7,7.7c4.3,0,7.7-3.5,7.7-7.7
		C70.4,115.8,68.3,113,65.3,111.9"/>
	<path id="XMLID_89_" class="st4" d="M125.1,14.6c-0.2-1-0.9-1.8-1.9-2.1C121.7,12,84.5,1,71.7,0c-2.5-0.2-4.8,0.7-6.6,2.4
		c-1,1-1.9,2.3-2.5,3.8c-0.7-1.5-1.5-2.8-2.5-3.8C58.2,0.7,56-0.2,53.5,0C40.6,1,3.5,12,1.9,12.5c-1,0.3-1.7,1.1-1.9,2.1
		c-0.2,1,0.3,2,1.2,2.6c6.6,4.4,12.5,0.1,15.3-3.4c12.2-3.4,29.8-7.9,37.4-8.5c1-0.1,1.7,0.2,2.5,0.9c2.3,2.3,3.3,7.9,3.6,13.3
		c-0.2,3.2-0.1,5.9,0,7.2c0,0.1,0,0.3,0,0.4c-0.1,1.4,0.9,2.5,2.2,2.8c0,0,0,0,0,0c0.1,0,0.2,0,0.2,0c0.1,0,0.1,0,0.2,0c0,0,0,0,0,0
		c0,0,0,0,0,0c0.1,0,0.1,0,0.2,0c0.1,0,0.2,0,0.2,0c0,0,0,0,0,0c1.3-0.2,2.3-1.4,2.2-2.8c0-0.1,0-0.3,0-0.5c0.1-1.4,0.2-4.1,0-7.2
		c0.3-5.4,1.3-11,3.6-13.3c0.7-0.7,1.5-1,2.5-0.9c7.7,0.6,25.2,5.1,37.4,8.5c2.7,3.5,8.6,7.8,15.3,3.4
		C124.8,16.6,125.2,15.6,125.1,14.6"/>
	<path id="XMLID_88_" class="st4" d="M62.7,21.7c-1.4,0-2.6,1.2-2.6,2.6v87.5c0,0,0,0,0,0.1c-3,1.1-5.1,3.9-5.1,7.2
		c0,4.3,3.5,7.7,7.7,7.7v-2.6c-2.8,0-5.1-2.3-5.1-5.1c0-2.4,1.7-4.4,4-5c0.3,0.2,0.7,0.3,1.1,0.3"/>
	<path id="XMLID_87_" class="st5" d="M63.2,107.1h-1c-2.9,0-5.3-2.4-5.3-5.3V25c0-2.9,2.4-5.3,5.3-5.3h1c2.9,0,5.3,2.4,5.3,5.3v76.9
		C68.5,104.8,66.1,107.1,63.2,107.1"/>
	<path id="XMLID_86_" class="st3" d="M62.1,29.9C62.1,29.9,62.1,29.9,62.1,29.9c0.1,0,0.2,0,0.2,0c0.1,0,0.1,0,0.2,0c0,0,0,0,0,0
		c0,0,0,0,0,0c0.1,0,0.1,0,0.2,0c0.1,0,0.2,0,0.2,0c0,0,0,0,0,0c1.3-0.2,2.3-1.4,2.2-2.8c0-0.1,0-0.3,0-0.5c0.1-1.4,0.2-4.1,0-7.2
		c0.3-5.4,1.3-11,3.6-13.3c0.7-0.7,1.5-1,2.5-0.9c7.7,0.6,25.2,5.1,37.4,8.5c2.7,3.5,8.6,7.8,15.3,3.4c0.9-0.6,1.3-1.6,1.1-2.6
		c-0.2-1-0.9-1.8-1.9-2.1C121.7,12,84.5,1,71.7,0c-2.5-0.2-4.8,0.7-6.6,2.4c-1,1-1.9,2.3-2.5,3.8"/>
	<path id="XMLID_85_" class="st5" d="M63.2,107.1h-1c-2.9,0-5.3-2.4-5.3-5.3V25c0-2.9,2.3-5.3,5.3-5.3h1"/>
	<path id="XMLID_84_" class="st6" d="M62.2,19.8h1c2.9,0,5.3,2.4,5.3,5.3v76.9c0,2.9-2.3,5.3-5.3,5.3h-1"/>
	<path id="XMLID_57_" class="st7" d="M38.4,118h1.3V42.7c0-4.7-4.1-9-9.8-10.6v-2.6c0-2.9-2.3-5.2-5.2-5.2c-2.9,0-5.2,2.3-5.2,5.2
		v2.7c-5.7,1.9-9.8,6.6-9.8,10.5V118h1.3c-3.2,0-5.8,1.9-5.8,4.3c0,2.4,2.6,4.3,5.8,4.3h27.5c3.2,0,5.8-1.9,5.8-4.3
		C44.2,119.9,41.6,118,38.4,118"/>
	<path id="XMLID_56_" class="st8" d="M24.6,126.6h13.8c3.2,0,5.8-1.9,5.8-4.3c0-2.4-2.6-4.3-5.8-4.3h1.3V42.7c0-4.7-4.1-9-9.8-10.6
		v-2.6c0-2.9-2.3-5.2-5.2-5.2"/>
	<path id="XMLID_55_" class="st9" d="M9.6,118h1.3c-3.2,0-5.8,1.9-5.8,4.3c0,2.4,2.6,4.3,5.8,4.3h27.5c3.2,0,5.8-1.9,5.8-4.3
		c0-2.4-2.6-4.3-5.8-4.3h1.3"/>
	<path id="XMLID_54_" class="st10" d="M24.7,118h2h11.8c3.2,0,5.8,1.9,5.8,4.3c0,2.4-2.6,4.3-5.8,4.3H24.7"/>
</g>
</svg>
