<?xml version="1.0" encoding="utf-8"?>
<!-- Generator: Adobe Illustrator 19.0.0, SVG Export Plug-In . SVG Version: 6.00 Build 0)  -->
<svg version="1.1" id="Layer_1" xmlns="http://www.w3.org/2000/svg" xmlns:xlink="http://www.w3.org/1999/xlink" x="0px" y="0px"
	 viewBox="0 0 96.5 114.4" style="enable-background:new 0 0 96.5 114.4;" xml:space="preserve">
<style type="text/css">
	.st0{clip-path:url(#XMLID_617_);fill:#EDEDED;}
	.st1{clip-path:url(#XMLID_617_);fill:#FFFFFF;}
	.st2{fill:#EA696D;}
	.st3{clip-path:url(#XMLID_618_);fill:#FFFFFF;}
	.st4{fill:#FFFFFF;}
	.st5{fill:#EDEDED;}
	.st6{clip-path:url(#XMLID_619_);fill:#FFFFFF;}
	.st7{fill:#CE5D61;}
</style>
<g id="XMLID_443_">
	<g>
		<defs>
			<rect id="XMLID_561_" width="96.5" height="114.4"/>
		</defs>
		<clipPath id="XMLID_617_">
			<use xlink:href="#XMLID_561_"  style="overflow:visible;"/>
		</clipPath>
		<path id="XMLID_563_" class="st0" d="M74.3,17.4c0,2.7,2.2,4.9,4.9,4.9h17.3L74.3,0V17.4z"/>
		<path id="XMLID_562_" class="st1" d="M74.3,17.4V0H12.9C10.2,0,8,2.2,8,4.9v104.7c0,2.7,2.2,4.9,4.9,4.9h78.7
			c2.7,0,4.9-2.2,4.9-4.9V22.2H79.1C76.5,22.2,74.3,20,74.3,17.4"/>
	</g>
	<rect id="XMLID_560_" y="17.4" class="st2" width="65.9" height="29.2"/>
	<g>
		<defs>
			<rect id="XMLID_557_" width="96.5" height="114.4"/>
		</defs>
		<clipPath id="XMLID_618_">
			<use xlink:href="#XMLID_557_"  style="overflow:visible;"/>
		</clipPath>
		<path class="st3" d="M38,32c0-4-1.9-6-5.6-6h-2.3v12H32C36,38.1,38,36,38,32 M40.9,31.9c0,2.7-0.8,4.8-2.3,6.3
			c-1.5,1.4-3.7,2.2-6.6,2.2h-4.6V23.8h5.1c2.6,0,4.7,0.7,6.2,2.1C40.1,27.3,40.9,29.3,40.9,31.9"/>
	</g>
	<polygon id="XMLID_556_" class="st4" points="47.5,40.3 44.8,40.3 44.8,23.8 54.1,23.8 54.1,26.1 47.5,26.1 47.5,31.2 53.7,31.2 
		53.7,33.5 47.5,33.5 	"/>
	<rect id="XMLID_555_" x="23" y="62.4" class="st5" width="56.7" height="4.2"/>
	<rect id="XMLID_554_" x="23" y="72.4" class="st5" width="56.7" height="4.2"/>
	<rect id="XMLID_553_" x="23" y="82.5" class="st5" width="56.7" height="4.2"/>
	<rect id="XMLID_513_" x="23" y="92.5" class="st5" width="56.7" height="4.2"/>
	<g>
		<defs>
			<rect id="XMLID_445_" width="96.5" height="114.4"/>
		</defs>
		<clipPath id="XMLID_619_">
			<use xlink:href="#XMLID_445_"  style="overflow:visible;"/>
		</clipPath>
		<path class="st6" d="M15.4,32.1h1.4c1.4,0,2.4-0.2,3.1-0.7c0.6-0.5,1-1.2,1-2.3c0-1-0.3-1.7-0.9-2.1c-0.6-0.5-1.5-0.7-2.7-0.7
			h-1.9V32.1z M23.7,29c0,1.7-0.6,3.1-1.7,4c-1.1,0.9-2.7,1.4-4.8,1.4h-1.7v6.2h-2.7V24h4.8c2.1,0,3.6,0.4,4.7,1.3
			S23.7,27.3,23.7,29"/>
	</g>
	<polygon id="XMLID_444_" class="st7" points="0,46.7 8,54.7 8,46.7 	"/>
</g>
</svg>
