<?xml version="1.0" encoding="utf-8"?>
<!-- Generator: Adobe Illustrator 19.0.0, SVG Export Plug-In . SVG Version: 6.00 Build 0)  -->
<svg version="1.1" id="Layer_1" xmlns="http://www.w3.org/2000/svg" xmlns:xlink="http://www.w3.org/1999/xlink" x="0px" y="0px"
	 viewBox="0 0 126.9 126.9" style="enable-background:new 0 0 126.9 126.9;" xml:space="preserve">
<style type="text/css">
	.st0{clip-path:url(#XMLID_116_);fill:#FFFFFF;}
	.st1{clip-path:url(#XMLID_116_);fill:#EDEDED;}
	.st2{clip-path:url(#XMLID_116_);fill:#CE5D61;}
	.st3{clip-path:url(#XMLID_116_);fill:#EA696D;}
</style>
<g>
	<defs>
		<rect id="XMLID_53_" width="126.9" height="126.9"/>
	</defs>
	<clipPath id="XMLID_116_">
		<use xlink:href="#XMLID_53_"  style="overflow:visible;"/>
	</clipPath>
	<path class="st0" d="M91.1,116c0.1,0,0.3,0,0.4,0.1c6.7,2.4,24.7-14.9,22.2-20.4c-0.2-0.3-0.1-0.8,0.1-1.1
		c7-11.3,9.9-24.3,8.5-37.5c-1.7-15.7-9.4-29.8-21.7-39.8C88.2,7.4,72.8,2.9,57.1,4.6C41.3,6.3,27.2,14,17.3,26.3
		C7.4,38.7,2.9,54.1,4.6,69.8c3.5,32.5,32.8,56,65.2,52.5c7.3-0.8,14.3-2.9,20.8-6.2C90.7,116,90.9,116,91.1,116 M91.2,118.4
		c-6.6,3.3-13.7,5.4-21.1,6.2c-2.2,0.2-4.5,0.4-6.7,0.4c-31,0-57.7-23.4-61.1-54.9C0.5,53.7,5.2,37.7,15.5,24.9s25-20.8,41.3-22.6
		C73.1,0.6,89.2,5.3,102,15.6c12.8,10.3,20.8,25,22.6,41.3c1.5,13.5-1.5,26.8-8.5,38.4C119.5,102.8,99.9,121.5,91.2,118.4"/>
	<path id="XMLID_99_" class="st1" d="M59.9,13.9l-3.7,0.4c-0.6,0.1-1.2-0.4-1.3-1L53.7,1.7c-0.1-0.6,0.4-1.2,1-1.3L58.4,0
		c0.6-0.1,1.2,0.4,1.3,1l1.3,11.6C61,13.2,60.6,13.8,59.9,13.9"/>
	<path id="XMLID_98_" class="st1" d="M72.1,126.5l-3.7,0.4c-0.6,0.1-1.2-0.4-1.3-1l-1.3-11.6c-0.1-0.6,0.4-1.2,1-1.3l3.7-0.4
		c0.6-0.1,1.2,0.4,1.3,1l1.3,11.6C73.2,125.8,72.7,126.4,72.1,126.5"/>
	<path id="XMLID_97_" class="st2" d="M83.8,100.5l6.9,12.6c13.7-7.5,23.1-19.8,27.2-33.7l-14.2-4.2C100.7,85.5,93.9,94.8,83.8,100.5
		"/>
	<path id="XMLID_96_" class="st1" d="M83.2,100.8c-10.1,5.5-21.5,6.5-31.7,3.6l-3.9,13.3c13.9,4.1,29.4,2.8,43.1-4.7l-6.9-12.6
		C83.6,100.6,83.4,100.7,83.2,100.8"/>
	<path id="XMLID_95_" class="st2" d="M25.8,84l-12,6.6c7.5,13.7,19.8,23.1,33.7,27.2l3.9-13.3C40.9,101.5,31.5,94.4,25.8,84"/>
	<path id="XMLID_94_" class="st1" d="M100,43.4c5.5,10.1,6.5,21.5,3.6,31.7l14.2,4.2c4.1-13.9,2.8-29.4-4.7-43.1L100,43.4z"/>
	<path id="XMLID_93_" class="st1" d="M75.3,23.3l4.2-14.2C65.5,5,50.1,6.3,36.4,13.8l6.9,12.6C53.5,20.9,65,20.1,75.3,23.3"/>
	<path id="XMLID_92_" class="st2" d="M100,43.4l13.1-7.2c-7.5-13.7-19.8-23.1-33.7-27.2l-4.2,14.2C85.5,26.4,94.5,33.3,100,43.4"/>
	<path id="XMLID_91_" class="st1" d="M22.5,51.4L9.2,47.5c-4.1,13.9-2.8,29.4,4.7,43.1l12-6.6C20.2,73.6,19.3,61.9,22.5,51.4"/>
	<path id="XMLID_90_" class="st2" d="M42.7,26.6c0.2-0.1,0.4-0.2,0.6-0.3l-6.9-12.6C22.6,21.3,13.3,33.6,9.2,47.5l13.3,3.9
		C25.6,41.2,32.6,32.2,42.7,26.6"/>
	<path id="XMLID_89_" class="st3" d="M76.7,87.5l7.1,13c10.1-5.7,16.9-15,19.8-25.3l-13.8-4C87.9,77.9,83.3,83.9,76.7,87.5"/>
	<path id="XMLID_88_" class="st0" d="M55.8,89.8l-4.3,14.7c10.3,2.9,21.6,1.9,31.7-3.6c0.2-0.1,0.4-0.2,0.6-0.3l-7.1-13
		C70,91.1,62.5,91.7,55.8,89.8"/>
	<path id="XMLID_87_" class="st3" d="M39.4,76.6L25.8,84c5.7,10.4,15.1,17.4,25.7,20.4l4.3-14.7C49.1,87.8,43.1,83.2,39.4,76.6"/>
	<path id="XMLID_86_" class="st0" d="M89.9,71.1l13.8,4c2.9-10.3,1.9-21.6-3.6-31.7l-12.5,6.8C91.2,56.9,91.8,64.4,89.9,71.1"/>
	<path id="XMLID_85_" class="st0" d="M71.2,37.1l4-13.8c-10.3-3.1-21.8-2.4-32,3l7.1,13C57,35.7,64.5,35.1,71.2,37.1"/>
	<path id="XMLID_84_" class="st3" d="M71.2,37.1c6.7,2,12.7,6.5,16.4,13.2l12.5-6.8c-5.5-10.1-14.6-17-24.8-20.2L71.2,37.1z"/>
	<path id="XMLID_57_" class="st0" d="M37.2,55.7l-14.7-4.3c-3.2,10.5-2.3,22.2,3.3,32.6l13.6-7.4C35.8,69.9,35.2,62.4,37.2,55.7"/>
	<path id="XMLID_56_" class="st3" d="M50.3,39.3l-7.1-13c-0.2,0.1-0.4,0.2-0.6,0.3c-10.1,5.5-17,14.6-20.2,24.8l14.7,4.3
		C39.2,49,43.7,43,50.3,39.3"/>
	<path id="XMLID_55_" class="st1" d="M13.9,66.9l0.4,3.7c0.1,0.6-0.4,1.2-1,1.3L1.7,73.1c-0.6,0.1-1.2-0.4-1.3-1L0,68.4
		c-0.1-0.6,0.4-1.2,1-1.3l11.6-1.3C13.2,65.8,13.8,66.3,13.9,66.9"/>
	<path id="XMLID_54_" class="st1" d="M126.5,54.8l0.4,3.7c0.1,0.6-0.4,1.2-1,1.3l-11.6,1.3c-0.6,0.1-1.2-0.4-1.3-1l-0.4-3.7
		c-0.1-0.6,0.4-1.2,1-1.3l11.6-1.3C125.8,53.7,126.4,54.1,126.5,54.8"/>
</g>
</svg>
