<?xml version="1.0" encoding="utf-8"?>
<!-- Generator: Adobe Illustrator 19.0.0, SVG Export Plug-In . SVG Version: 6.00 Build 0)  -->
<svg version="1.1" id="Layer_1" xmlns="http://www.w3.org/2000/svg" xmlns:xlink="http://www.w3.org/1999/xlink" x="0px" y="0px"
	 viewBox="0 0 31.1 31.2" style="enable-background:new 0 0 31.1 31.2;" xml:space="preserve">
<style type="text/css">
	.st0{clip-path:url(#SVGID_2_);fill:#69A3C8;}
</style>
<g>
	<defs>
		<rect id="SVGID_1_" x="0" width="31.1" height="31.2"/>
	</defs>
	<clipPath id="SVGID_2_">
		<use xlink:href="#SVGID_1_"  style="overflow:visible;"/>
	</clipPath>
	<path class="st0" d="M21.6,30c1.9-0.8,3.5-1.9,4.9-3.3c1.4-1.4,2.5-3.1,3.3-4.9c0.8-1.9,1.2-3.9,1.2-6.1c0-2.2-0.4-4.2-1.2-6.1
		c-0.8-1.9-1.9-3.5-3.3-5c-1.4-1.4-3.1-2.5-4.9-3.3C19.8,0.4,17.7,0,15.6,0c-2.2,0-4.2,0.4-6.1,1.2C7.6,2,6,3.1,4.5,4.6
		C3.1,6,2,7.6,1.2,9.5C0.4,11.4,0,13.5,0,15.6c0,2.2,0.4,4.2,1.2,6.1c0.8,1.9,1.9,3.5,3.3,4.9C6,28,7.6,29.2,9.5,30
		c1.9,0.8,3.9,1.2,6.1,1.2C17.7,31.2,19.8,30.8,21.6,30 M11.5,13.3h2.3v-1.4c0-1,0.3-1.9,1-2.7c0.7-0.7,1.5-1.1,2.4-1.1h2.3v2.8
		h-2.3c-0.1,0-0.3,0.1-0.4,0.3c-0.1,0.2-0.2,0.4-0.2,0.6v1.5h2.9v2.9h-2.9v7h-2.9v-7h-2.3V13.3z"/>
</g>
</svg>
