<?xml version="1.0" encoding="utf-8"?>
<!-- Generator: Adobe Illustrator 19.0.0, SVG Export Plug-In . SVG Version: 6.00 Build 0)  -->
<svg version="1.1" id="Layer_1" xmlns="http://www.w3.org/2000/svg" xmlns:xlink="http://www.w3.org/1999/xlink" x="0px" y="0px"
	 viewBox="0 0 75.1 126.9" style="enable-background:new 0 0 75.1 126.9;" xml:space="preserve">
<style type="text/css">
	.st0{clip-path:url(#XMLID_85_);fill:#EA696D;}
	.st1{clip-path:url(#XMLID_85_);fill:#CE5D61;}
</style>
<g>
	<defs>
		<rect id="XMLID_53_" width="75.1" height="126.9"/>
	</defs>
	<clipPath id="XMLID_85_">
		<use xlink:href="#XMLID_53_"  style="overflow:visible;"/>
	</clipPath>
	<path id="XMLID_57_" class="st0" d="M62.6,32.7c-2.1-23.3-47.9-25.2-51-1.4c0.1-16,11.6-34.1,28.9-31C53.5,2.6,61.9,16.4,62.6,32.7
		"/>
	<path id="XMLID_56_" class="st0" d="M69.5,99.6C51.1,76.1,31.9,50.7,26.7,18.4c-6.4,2-13.3,7.5-14.1,17.2c0.2,9.3,4.2,21.1,10,32.3
		c11.3,21.7,26.9,41.4,41.1,59l11.4-21.2C72.5,102.9,70.3,100.6,69.5,99.6"/>
	<path id="XMLID_55_" class="st1" d="M50.2,68.6c5.4-8.5,11.7-22.7,11.3-32.2c0,0-0.6-2.2-0.8-3C58.5,26,53.7,21,46.7,18.7
		c0,12.3-5,19.6-8.4,28.5c3.3,7.3,7.2,14.3,11.4,20.8C49.8,68.2,50,68.4,50.2,68.6"/>
	<path id="XMLID_54_" class="st1" d="M0,104.3l11.2,20.8c8.2-10.6,16.1-21.1,23.4-32.2c-4.3-6.4-8.4-12.9-12.1-19.6
		C15.9,84.6,8.1,94.5,0,104.3"/>
</g>
</svg>
