<?xml version="1.0" encoding="utf-8"?>
<!-- Generator: Adobe Illustrator 19.0.0, SVG Export Plug-In . SVG Version: 6.00 Build 0)  -->
<svg version="1.1" id="Layer_1" xmlns="http://www.w3.org/2000/svg" xmlns:xlink="http://www.w3.org/1999/xlink" x="0px" y="0px"
	 viewBox="0 0 31.1 31.2" style="enable-background:new 0 0 31.1 31.2;" xml:space="preserve">
<style type="text/css">
	.st0{clip-path:url(#XMLID_86_);fill:#877CA4;}
</style>
<g>
	<defs>
		<rect id="XMLID_53_" x="0" width="31.2" height="31.2"/>
	</defs>
	<clipPath id="XMLID_86_">
		<use xlink:href="#XMLID_53_"  style="overflow:visible;"/>
	</clipPath>
	<path class="st0" d="M15.6,12.2L15.6,12.2c-1.9,0-3.4,1.5-3.4,3.3c0,1.8,1.5,3.3,3.4,3.3s3.4-1.5,3.4-3.3
		C19,13.7,17.5,12.2,15.6,12.2 M22.2,14.3L22.2,14.3h-1.5c0.2,0.4,0.2,0.9,0.2,1.5c0,2.8-2.4,5.1-5.3,5.1s-5.3-2.3-5.3-5.1
		c0-0.5,0-1,0.2-1.5H9v7.2c0,0.4,0.3,0.7,0.7,0.7h11.8c0.4,0,0.7-0.3,0.7-0.7V14.3z M19.5,9L19.5,9c-0.4,0-0.8,0.4-0.8,0.8v1.9
		c0,0.4,0.4,0.8,0.8,0.8h2c0.4,0,0.8-0.4,0.8-0.8V9.7c0-0.4-0.4-0.8-0.8-0.8H19.5z M21.9,7.1c1.2,0,2.2,1,2.2,2.2v12.6
		c0,1.2-1,2.2-2.2,2.2H9.3c-1.2,0-2.2-1-2.2-2.2V9.3c0-1.2,1-2.2,2.2-2.2H21.9z M15.6,0C7,0.1,0,7,0,15.6s7,15.6,15.6,15.6
		s15.7-7,15.6-15.6C31.1,6.9,24.1-0.1,15.6,0"/>
</g>
</svg>
