<?xml version="1.0" encoding="utf-8"?>
<!-- Generator: Adobe Illustrator 19.0.0, SVG Export Plug-In . SVG Version: 6.00 Build 0)  -->
<svg version="1.1" id="Layer_1" xmlns="http://www.w3.org/2000/svg" xmlns:xlink="http://www.w3.org/1999/xlink" x="0px" y="0px"
	 viewBox="0 0 125.3 126.9" style="enable-background:new 0 0 125.3 126.9;" xml:space="preserve">
<style type="text/css">
	.st0{clip-path:url(#XMLID_97_);fill:#FFFFFF;}
	.st1{clip-path:url(#XMLID_97_);fill:#EDEDED;}
</style>
<g>
	<defs>
		<rect id="XMLID_53_" width="125.3" height="126.9"/>
	</defs>
	<clipPath id="XMLID_97_">
		<use xlink:href="#XMLID_53_"  style="overflow:visible;"/>
	</clipPath>
	<path class="st0" d="M63.7,86.2c-14.1,0-25.5-11.5-25.5-25.5c0-14.1,11.5-25.5,25.5-25.5c14.1,0,25.5,11.5,25.5,25.5
		C89.2,74.7,77.7,86.2,63.7,86.2 M95.8,0v10.4h11.5L85.2,31.9c-6-4.5-13.4-7.1-21.5-7.1c-8.6,0-16.4,3-22.6,8l-4-3.9l7.5-6.9l-7-7.7
		l-7.9,7.3L18,10.4h11.5V0H0v29.5h10.4V17.6l11.4,11.1l-8,7.4l7,7.7l8.5-7.8l4.7,4.5c-3.9,5.8-6.3,12.7-6.3,20.3
		c0,17.7,12.9,32.5,29.8,35.4v8.8H41.4v10.4h16.1v11.6h10.4v-11.6h16.5v-10.4H67.9v-8.5c17.8-2.1,31.7-17.3,31.7-35.7
		c0-8-2.6-15.4-7.1-21.4l22.4-21.7v11.9h10.4V0H95.8z"/>
	<path id="XMLID_54_" class="st1" d="M62.5,126.9h5.5v-11.6h16.5v-10.4H67.9v-8.5c17.8-2.1,31.7-17.3,31.7-35.7
		c0-8-2.6-15.5-7.1-21.4l22.4-21.7v11.9h10.4V0H95.8v10.4h11.5L85.2,31.9c-6-4.5-13.4-7.1-21.5-7.1c-0.4,0-0.8,0-1.2,0l0.1,10.4
		c0.4,0,0.7,0,1.1,0c14.1,0,25.5,11.5,25.5,25.5c0,14.1-11.5,25.5-25.5,25.5c-0.4,0-0.8,0-1.2,0l0.1,40.7"/>
</g>
</svg>
