<?xml version="1.0" encoding="utf-8"?>
<!-- Generator: Adobe Illustrator 19.0.0, SVG Export Plug-In . SVG Version: 6.00 Build 0)  -->
<svg version="1.1" id="Layer_1" xmlns="http://www.w3.org/2000/svg" xmlns:xlink="http://www.w3.org/1999/xlink" x="0px" y="0px"
	 viewBox="0 0 108.6 124.1" style="enable-background:new 0 0 108.6 124.1;" xml:space="preserve">
<style type="text/css">
	.st0{clip-path:url(#XMLID_184_);fill:#FFFFFF;}
	.st1{clip-path:url(#XMLID_185_);fill:#E8E3DB;}
	.st2{clip-path:url(#XMLID_185_);fill:#CADFAD;}
	.st3{clip-path:url(#XMLID_185_);fill:#A0BFE5;}
	.st4{clip-path:url(#XMLID_185_);fill:#F7F7F5;}
	.st5{clip-path:url(#XMLID_185_);fill:#EDEBE3;}
	.st6{clip-path:url(#XMLID_185_);fill:#F0EDE8;}
	.st7{clip-path:url(#XMLID_186_);fill:#B83837;}
	.st8{clip-path:url(#XMLID_186_);fill:#FFFFFF;}
	.st9{clip-path:url(#XMLID_186_);fill:#CE5D61;}
	.st10{clip-path:url(#XMLID_186_);fill:#EA696D;}
</style>
<g id="XMLID_1_">
	<g>
		<defs>
			<rect id="XMLID_155_" width="108.8" height="124.1"/>
		</defs>
		<clipPath id="XMLID_184_">
			<use xlink:href="#XMLID_155_"  style="overflow:visible;"/>
		</clipPath>
		<path id="XMLID_156_" class="st0" d="M108.8,69.7c0,30.1-24.4,54.4-54.4,54.4C24.4,124.1,0,99.7,0,69.7s24.4-54.4,54.4-54.4
			C84.5,15.2,108.8,39.6,108.8,69.7"/>
	</g>
	<g>
		<defs>
			<path id="XMLID_7_" d="M3.9,69.7c0,27.9,22.6,50.5,50.5,50.5c27.9,0,50.5-22.6,50.5-50.5c0-27.9-22.6-50.5-50.5-50.5
				C26.5,19.2,3.9,41.8,3.9,69.7"/>
		</defs>
		<clipPath id="XMLID_185_">
			<use xlink:href="#XMLID_7_"  style="overflow:visible;"/>
		</clipPath>
		<rect id="XMLID_154_" x="-1" y="6" class="st1" width="159.2" height="119.9"/>
		<path class="st2" d="M0.5,14.3c-1.1,0.6-1.1,0.6-0.9,1.2c0.2-0.2,0.4-0.3,0.9-0.1C-0.2,14.9,0.4,14.7,0.5,14.3 M17.9,38
			c-1.3,0.1-2.6-0.3-3.9-0.1c-0.2,0-0.5,0-0.7,0c-0.9,0.1-1.9-0.1-2.8-0.1c-0.3-0.1-0.3-0.3-0.3-0.5c-0.4-2.8-0.8-5.5-1.2-8.3
			c-0.4-0.9-0.8-1.8-1.2-2.7c-0.5-1-0.5-1-1.6-0.8c-0.1,0-0.3,0-0.4,0c0-0.3,0-0.7-0.3-0.9c0-0.1-0.1-0.2-0.1-0.3
			c-1-1.2-2.1-2.3-3.1-3.5c-0.4-0.5-0.9-0.6-1.5-0.3c-0.9,0.3-1.8,0.8-2.8,0.9c0-4.8,0-9.5,0-14.3c0-0.6,0.2-0.8,0.8-0.7
			c0.2,0,0.4,0,0.6,0c0.5,2.1,1.2,4.2,2.1,6.2c0.1,0.4,0.1,0.7,0.3,1.1c0.2,0.5,0.3,1.1,0.2,1.6c-0.2-0.2-0.1-0.9-0.7-0.7
			c-0.5,0.2-0.3,0.5-0.3,0.9C1,15.4,0.8,15,1.1,14.9c0.2,0.2,0,0.8,0.6,0.7c0.3-0.2,0.4-0.2,0.5,0.2c0.5,1.7,1.1,3.3,1.6,5
			c0.2,0.6,0.4,0.7,0.9,0.5c4.8-1.7,9.5-3.3,14.3-5c1.4-0.5,2.8-1.1,4.3-1.4c0,0.1,0,0.2,0.2,0.3c0,0.2,0,0.3,0.1,0.4l0,0
			c0.1,0,0.1,0.1,0.2,0.1c0,0,0,0.1,0,0.1c-0.1,0.1-0.2,0.2,0,0.3l0,0c0.1,1.1,0.5,2.1,0.7,3.2c0.4,1.9,1.2,3.7,1.1,5.6
			c0,0.1,0,0.3,0,0.4c0,0.1-0.1,0.2-0.1,0.3c-0.5,2-1.1,4-1.6,6c-0.2,1-0.4,2-0.6,3c-0.2,0.3-0.3,0.7-0.3,1
			c-0.2,0.2-0.1,0.4-0.1,0.6c-0.2,0.3-0.4,0.7-0.4,1c0,0.9-0.5,1-1.3,0.9c-1-0.2-2-0.2-3-0.1C18.1,38,18,38,17.9,38"/>
		<polygon id="XMLID_151_" class="st2" points="53.5,4.2 40.9,56.9 46.8,75.1 58.3,71.5 87.9,78.9 156.2,96.3 157.9,4.6 		"/>
		<path id="XMLID_150_" class="st3" d="M102.6,24.1l1.1-1.2l1-0.3h2.3l3.2,0.4l2.6,0.1l0.4-0.6v-0.7l-12.5-4.8l-1.9-0.3l-1.9,0.4
			l-1.8,2.5L94,22.1l-0.6,1.8l0.3,1.1l2.4,0.4c0,0,1.7,0.3,2.1,0.3h2.1l1.3-0.8L102.6,24.1z"/>
		
			<rect id="XMLID_149_" x="83.2" y="79.5" transform="matrix(0.9746 0.2238 -0.2238 0.9746 25.6376 -16.1073)" class="st4" width="1.3" height="51.1"/>
		
			<rect id="XMLID_148_" x="100.6" y="84.5" transform="matrix(0.9746 0.2238 -0.2238 0.9746 27.1877 -19.8689)" class="st4" width="1.3" height="51.1"/>
		
			<rect id="XMLID_147_" x="107.1" y="33.8" transform="matrix(-0.2446 0.9696 -0.9696 -0.2446 216.6513 1.4314)" class="st4" width="1.3" height="102.6"/>
		
			<rect id="XMLID_146_" x="8.9" y="37" transform="matrix(0.3069 0.9518 -0.9518 0.3069 90.6738 52.0947)" class="st4" width="1.3" height="102.6"/>
		
			<rect id="XMLID_145_" x="65.5" y="75.5" transform="matrix(0.9748 0.2231 -0.2231 0.9748 24.2194 -12.2123)" class="st4" width="1.3" height="51.1"/>
		
			<rect id="XMLID_144_" x="128.1" y="29.9" transform="matrix(0.2455 0.9694 -0.9694 0.2455 165.5194 -71.6558)" class="st4" width="1.3" height="81.1"/>
		
			<rect id="XMLID_143_" x="42.3" y="55.3" transform="matrix(0.9461 -0.324 0.324 0.9461 -19.1786 17.5113)" class="st4" width="1.3" height="22.1"/>
		
			<rect id="XMLID_142_" x="45.1" y="4.2" transform="matrix(0.9713 0.238 -0.238 0.9713 8.5994 -10.0053)" class="st4" width="1.3" height="52.9"/>
		
			<rect id="XMLID_141_" x="37.9" y="80.2" transform="matrix(0.9546 -0.2979 0.2979 0.9546 -29.7353 16.2989)" class="st4" width="1.3" height="51.1"/>
		
			<rect id="XMLID_140_" x="19.6" y="31.5" transform="matrix(0.5144 -0.8576 0.8576 0.5144 -42.4148 46.9705)" class="st4" width="1.3" height="58.9"/>
		
			<rect id="XMLID_139_" x="7" y="90.5" transform="matrix(0.9546 -0.2979 0.2979 0.9546 -34.2122 7.5674)" class="st4" width="1.3" height="51.1"/>
		
			<rect id="XMLID_138_" x="2.8" y="107.4" transform="matrix(0.3093 0.951 -0.951 0.3093 107.4156 73.3965)" class="st4" width="0.7" height="6.4"/>
		
			<rect id="XMLID_137_" x="12.9" y="107.9" transform="matrix(0.3097 0.9508 -0.9508 0.3097 117.3945 65.9283)" class="st4" width="0.7" height="11.9"/>
		
			<rect id="XMLID_136_" x="16.1" y="96.2" transform="matrix(0.3093 0.951 -0.951 0.3093 109.6385 55.7073)" class="st4" width="0.7" height="14.2"/>
		
			<rect id="XMLID_135_" x="11.8" y="104.6" transform="matrix(-0.9348 0.3553 -0.3553 -0.9348 63.0934 210.6231)" class="st4" width="0.7" height="12.9"/>
		
			<rect id="XMLID_134_" x="20.8" y="111.4" transform="matrix(-0.2282 0.9736 -0.9736 -0.2282 141.3355 124.9696)" class="st4" width="0.7" height="14.2"/>
		
			<rect id="XMLID_133_" x="31.5" y="113.4" transform="matrix(0.4612 0.8873 -0.8873 0.4612 121.8859 35.3386)" class="st4" width="0.7" height="9.2"/>
		
			<rect id="XMLID_132_" x="32.4" y="100.1" transform="matrix(-0.9357 0.3529 -0.3529 -0.9357 101.7347 198.506)" class="st4" width="0.7" height="16.8"/>
		
			<rect id="XMLID_131_" x="35.6" y="105.2" transform="matrix(0.304 0.9527 -0.9527 0.304 128.4785 41.251)" class="st4" width="0.7" height="6.7"/>
		
			<rect id="XMLID_130_" x="47.6" y="83.7" transform="matrix(-0.2365 0.9716 -0.9716 -0.2365 153.6398 73.4336)" class="st4" width="0.7" height="26.8"/>
		
			<rect id="XMLID_129_" x="54" y="105.3" transform="matrix(-0.2365 0.9716 -0.9716 -0.2365 178.1287 88.1988)" class="st4" width="0.7" height="17.6"/>
		
			<rect id="XMLID_128_" x="51.7" y="113" transform="matrix(-0.2365 0.9716 -0.9716 -0.2365 182.6992 100.0695)" class="st4" width="0.7" height="17.6"/>
		
			<rect id="XMLID_127_" x="49.8" y="102.8" transform="matrix(-0.9755 -0.2202 0.2202 -0.9755 74.5397 232.1116)" class="st4" width="0.7" height="18.1"/>
		
			<rect id="XMLID_126_" x="54.6" y="73.5" transform="matrix(-0.9617 0.2742 -0.2742 -0.9617 129.3483 138.8777)" class="st4" width="0.7" height="10"/>
		
			<rect id="XMLID_125_" x="51.9" y="79.4" transform="matrix(-0.9617 0.2742 -0.2742 -0.9617 125.7155 151.1796)" class="st4" width="0.7" height="10"/>
		
			<rect id="XMLID_124_" x="52.4" y="76.8" transform="matrix(-0.3621 -0.9322 0.9322 -0.3621 -1.7853 156.8742)" class="st4" width="0.7" height="4.4"/>
		
			<rect id="XMLID_123_" x="62.4" y="78.1" transform="matrix(3.381212e-002 -0.9994 0.9994 3.381212e-002 -24.7 145.2553)" class="st4" width="0.7" height="14.5"/>
		
			<rect id="XMLID_122_" x="30.5" y="36.5" transform="matrix(0.2581 -0.9661 0.9661 0.2581 -22.6245 64.8628)" class="st4" width="0.7" height="21.3"/>
		
			<rect id="XMLID_121_" x="35.7" y="39.7" transform="matrix(0.9632 0.2688 -0.2688 0.9632 13.177 -8.0687)" class="st4" width="0.7" height="8.8"/>
		
			<rect id="XMLID_120_" x="6.5" y="83.7" transform="matrix(0.962 -0.2729 0.2729 0.962 -23.3521 5.1492)" class="st4" width="0.7" height="5.6"/>
		
			<rect id="XMLID_119_" x="74.2" y="82.8" transform="matrix(0.2135 -0.9769 0.9769 0.2135 -27.0243 141.8472)" class="st4" width="0.7" height="9.8"/>
		
			<rect id="XMLID_118_" x="63.1" y="73.7" transform="matrix(0.9778 0.2093 -0.2093 0.9778 17.3707 -11.5987)" class="st4" width="0.7" height="5.2"/>
		
			<rect id="XMLID_117_" x="65" y="76.1" transform="matrix(-0.2093 0.9778 -0.9778 -0.2093 156.184 31.3728)" class="st4" width="0.7" height="5.4"/>
		
			<rect id="XMLID_116_" x="66.8" y="78.9" transform="matrix(0.9778 0.2096 -0.2096 0.9778 18.6077 -12.2685)" class="st4" width="0.7" height="5.4"/>
		
			<rect id="XMLID_115_" x="68.7" y="99.3" transform="matrix(0.9778 0.2096 -0.2096 0.9778 24.3012 -12.074)" class="st4" width="0.7" height="18.7"/>
		
			<rect id="XMLID_114_" x="70.2" y="88.3" transform="matrix(0.9778 0.2096 -0.2096 0.9778 20.6151 -12.7661)" class="st4" width="0.7" height="5.1"/>
		
			<rect id="XMLID_113_" x="70.6" y="93.5" transform="matrix(0.9778 0.2096 -0.2096 0.9778 21.7066 -12.7362)" class="st4" width="0.7" height="5.1"/>
		
			<rect id="XMLID_112_" x="82.2" y="96.4" transform="matrix(0.9778 0.2093 -0.2093 0.9778 22.4516 -15.1077)" class="st4" width="0.7" height="4.2"/>
		
			<rect id="XMLID_111_" x="75.4" y="94.9" transform="matrix(0.9778 0.2093 -0.2093 0.9778 21.9964 -13.7012)" class="st4" width="0.7" height="4.2"/>
		
			<rect id="XMLID_110_" x="77.3" y="99" transform="matrix(0.9778 0.2096 -0.2096 0.9778 24.7103 -13.8409)" class="st4" width="0.7" height="21.2"/>
		
			<rect id="XMLID_109_" x="98.9" y="87.8" transform="matrix(0.9778 0.2096 -0.2096 0.9778 22.0734 -18.6956)" class="st4" width="0.7" height="14"/>
		
			<rect id="XMLID_108_" x="104.4" y="99.8" transform="matrix(0.9778 0.2093 -0.2093 0.9778 24.6744 -19.5764)" class="st4" width="0.7" height="14"/>
		
			<rect id="XMLID_107_" x="91" y="85.9" transform="matrix(0.9778 0.2096 -0.2096 0.9778 21.5039 -17.0893)" class="st4" width="0.7" height="14"/>
		
			<rect id="XMLID_106_" x="80.7" y="102.4" transform="matrix(0.9778 0.2096 -0.2096 0.9778 24.3992 -14.6032)" class="st4" width="0.7" height="10.9"/>
		
			<rect id="XMLID_105_" x="88.2" y="103.8" transform="matrix(0.9778 0.2096 -0.2096 0.9778 24.8691 -16.1291)" class="st4" width="0.7" height="10.9"/>
		
			<rect id="XMLID_104_" x="83.4" y="119.2" transform="matrix(0.9778 0.2096 -0.2096 0.9778 27.2496 -14.872)" class="st4" width="0.7" height="3.9"/>
		
			<rect id="XMLID_103_" x="90.5" y="104" transform="matrix(0.9778 0.2096 -0.2096 0.9778 25.8828 -16.5202)" class="st4" width="0.7" height="19.7"/>
		
			<rect id="XMLID_102_" x="70.9" y="114.1" transform="matrix(-0.2419 0.9703 -0.9703 -0.2419 203.7375 78.2126)" class="st4" width="0.7" height="9.1"/>
		
			<rect id="XMLID_101_" x="73" y="104.8" transform="matrix(-0.2419 0.9703 -0.9703 -0.2419 197.2823 64.6228)" class="st4" width="0.7" height="9.1"/>
		
			<rect id="XMLID_100_" x="66.4" y="107.2" transform="matrix(-0.2419 0.9703 -0.9703 -0.2419 188.9144 70.9679)" class="st4" width="0.7" height="4.2"/>
		
			<rect id="XMLID_99_" x="68.5" y="97.3" transform="matrix(-0.2419 0.9703 -0.9703 -0.2419 182.0066 56.6747)" class="st4" width="0.7" height="4.2"/>
		
			<rect id="XMLID_98_" x="81.2" y="100.6" transform="matrix(-0.2419 0.9703 -0.9703 -0.2419 200.9856 48.3856)" class="st4" width="0.7" height="4.2"/>
		
			<rect id="XMLID_97_" x="88.8" y="89.6" transform="matrix(-0.2419 0.9703 -0.9703 -0.2419 199.8665 27.5318)" class="st4" width="0.7" height="4.5"/>
		
			<rect id="XMLID_96_" x="101.5" y="92.4" transform="matrix(-0.2419 0.9703 -0.9703 -0.2419 218.4268 18.922)" class="st4" width="0.7" height="4.8"/>
		
			<rect id="XMLID_95_" x="107.1" y="96.7" transform="matrix(-0.2419 0.9703 -0.9703 -0.2419 230.6064 19.9817)" class="st4" width="0.7" height="6.8"/>
		
			<rect id="XMLID_94_" x="97" y="82.6" transform="matrix(0.9703 0.2419 -0.2419 0.9703 23.4622 -21.0177)" class="st4" width="0.7" height="4.8"/>
		
			<rect id="XMLID_93_" x="92.8" y="100.2" transform="matrix(0.9703 0.2419 -0.2419 0.9703 27.5853 -19.4988)" class="st4" width="0.7" height="4.8"/>
		
			<rect id="XMLID_92_" x="88.3" y="99.4" transform="matrix(-0.2419 0.9703 -0.9703 -0.2419 210.6074 42.5319)" class="st4" width="0.7" height="8.3"/>
		
			<rect id="XMLID_91_" x="103.9" y="109.3" transform="matrix(-0.2419 0.9703 -0.9703 -0.2419 239.6237 39.8083)" class="st4" width="0.7" height="8.3"/>
		
			<rect id="XMLID_90_" x="96.6" y="83.2" transform="matrix(-0.2419 0.9703 -0.9703 -0.2419 205.1644 14.476)" class="st4" width="0.7" height="8.3"/>
		
			<rect id="XMLID_89_" x="93.4" y="96.3" transform="matrix(-0.2419 0.9703 -0.9703 -0.2419 213.929 33.7279)" class="st4" width="0.7" height="8.3"/>
		
			<rect id="XMLID_88_" x="85.8" y="110" transform="matrix(-0.2419 0.9703 -0.9703 -0.2419 217.9524 58.4978)" class="st4" width="0.7" height="8.8"/>
		
			<rect id="XMLID_87_" x="86.4" y="117.1" transform="matrix(-0.2419 0.9703 -0.9703 -0.2419 224.3273 65.0569)" class="st4" width="0.7" height="6.1"/>
		
			<rect id="XMLID_86_" x="79.1" y="110.7" transform="matrix(-0.2419 0.9703 -0.9703 -0.2419 208.1785 62.9194)" class="st4" width="0.7" height="4.2"/>
		
			<rect id="XMLID_85_" x="78.3" y="82.7" transform="matrix(-0.2419 0.9703 -0.9703 -0.2419 185.6881 36.3032)" class="st4" width="0.7" height="16"/>
		
			<rect id="XMLID_84_" x="76.6" y="85.6" transform="matrix(-0.2419 0.9703 -0.9703 -0.2419 187.7824 43.3195)" class="st4" width="0.7" height="18.7"/>
		
			<rect id="XMLID_83_" x="77.1" y="93.9" transform="matrix(-0.2419 0.9703 -0.9703 -0.2419 192.3541 48.0107)" class="st4" width="0.7" height="10.5"/>
		
			<rect id="XMLID_82_" x="5.2" y="80.2" transform="matrix(0.3134 0.9496 -0.9496 0.3134 84.0328 52.6738)" class="st4" width="0.7" height="8.4"/>
		
			<rect id="XMLID_81_" x="45.9" y="102.1" transform="matrix(-0.9755 -0.2202 0.2202 -0.9755 66.9329 229.8098)" class="st4" width="0.7" height="18.1"/>
		
			<rect id="XMLID_80_" x="59.8" y="89.8" transform="matrix(-0.9754 -0.2202 0.2202 -0.9754 96.2345 215.4386)" class="st4" width="0.7" height="25.1"/>
		
			<rect id="XMLID_79_" x="33.7" y="100.1" transform="matrix(0.304 0.9527 -0.9527 0.304 122.2979 39.536)" class="st4" width="0.7" height="6.7"/>
		
			<rect id="XMLID_78_" x="38.5" y="82.3" transform="matrix(0.304 0.9527 -0.9527 0.304 110.6091 23.9456)" class="st4" width="0.7" height="10.8"/>
		
			<rect id="XMLID_77_" x="37.4" y="78.3" transform="matrix(0.304 0.9527 -0.9527 0.304 106.0519 22.3542)" class="st4" width="0.7" height="10.8"/>
		
			<rect id="XMLID_76_" x="42.8" y="81.8" transform="matrix(-0.9527 0.304 -0.304 -0.9527 109.9092 151.3192)" class="st4" width="0.7" height="4.8"/>
		
			<rect id="XMLID_75_" x="27.6" y="53.9" transform="matrix(0.8463 0.5327 -0.5327 0.8463 35.901 -5.7611)" class="st4" width="0.7" height="10.8"/>
		
			<rect id="XMLID_74_" x="24.1" y="51.7" transform="matrix(0.8457 0.5336 -0.5336 0.8457 34.2558 -4.2658)" class="st4" width="0.7" height="10.8"/>
		
			<rect id="XMLID_73_" x="28.6" y="51.5" transform="matrix(-0.5327 0.8463 -0.8463 -0.5327 90.0575 58.1726)" class="st4" width="0.7" height="4.8"/>
		
			<rect id="XMLID_72_" x="16.5" y="83.9" transform="matrix(0.3093 0.951 -0.951 0.3093 104.5623 51.3931)" class="st4" width="0.7" height="27.6"/>
		<path id="XMLID_71_" class="st5" d="M87,58.4c-0.1,1.2-0.4,2.3-0.3,3.5c0,0.4,0,0.7,0.1,1.1c0.1,0.5,0.2,1,0.8,1.1
			c0.5,0.1,0.9-0.3,1.1-0.7c0.4-0.8,1-1.5,2-1.1c0.7,0.2,0.9,1.4,0.6,2.4c-0.7,2.2-1.8,2.8-4,2c-1.9-0.7-3.8-1-5.8-1
			c-1.5,0-2.9-0.3-4.4-0.5c-1.4-0.3-2.7-0.1-3.7,1.1c-0.4,0.5-0.9,0.8-1.5,0.5c-0.6-0.3-1.1-0.6-1.2-1.4c-0.1-1.1-0.5-2.1-0.9-3
			c-0.4-1-0.2-1.8,0.4-2.6c1.5-1.8,4.4-1.5,5.2,0.6c0.4,1.1,1.4,1.2,2.2,1.6c1.9,0.8,3.7,0.1,4.8-1.5c0.7-1,0.9-2.3,2-3
			c0.6-0.4,1.1-0.9,1.9-0.5C87.3,57.1,86.8,57.8,87,58.4"/>
		<path id="XMLID_70_" class="st5" d="M103.2,42c0.4-1.1,0.9-2.7,1.4-4.3c0.3-1.1-0.1-2-3.5-2.7c-0.8-0.2-1.4-0.4-1.3-0.7
			c0.1-0.3,1.1-0.5,2.1-0.6c4.8-0.4,9.2-0.1,13.5,0.5c1,0.2,1.9,0.5,1.9,0.8c-0.2,0.9,1.1,1.6,2,2.4c0.9,0.7,0.7,1.4-0.7,2.1
			c-1.4,0.7-1.2,1.6-0.2,2.4c0.7,0.5,1.8,1,2.7,1.5c1.4,0.7,1.7,1.9,0.5,2.3c-2,0.7-7.9,0.5-9.6-0.3c-0.5-0.3-1.2-0.6-1.4-0.9
			c-0.5-0.6-1.9-0.7-3.4-0.8C103.1,43.6,103.1,43.6,103.2,42"/>
		<path id="XMLID_69_" class="st5" d="M71,21.2c0,0.6-0.3,1-0.8,1.3c-1.4,0.7-2.9,1-4.4,0.6c-0.9-0.2-1.8-0.4-2.7-0.8
			c-0.9-0.4-1.2-1.1-1-2.1c0,0,0,0,0-0.1c0.4-2.1,1.3-2.2,2.6-0.7c0.4,0.5,1,0.7,1.7,0.5c1.1-0.2,2.2-0.6,3.4-0.2
			C70.6,20.1,71,20.5,71,21.2"/>
		<path id="XMLID_68_" class="st5" d="M55.8,42.7c0.7,0.2,1,0.8,1.1,1.4c0.2,1.8-0.1,3.6-1.1,5.2c-0.6,0.9-1.2,1.9-2,2.6
			c-0.8,0.8-1.7,0.9-2.7,0.3c0,0,0,0-0.1-0.1c-2.1-1.3-1.9-2.4,0.2-3.2c0.7-0.3,1.1-0.8,1.2-1.6c0.2-1.3,0.2-2.7,1.2-3.8
			C54.4,42.7,55,42.4,55.8,42.7"/>
		
			<rect id="XMLID_67_" x="2.6" y="91" transform="matrix(0.9551 -0.2964 0.2964 0.9551 -26.9767 6.8505)" class="st6" width="13.1" height="2.7"/>
		
			<rect id="XMLID_66_" x="3.8" y="95.2" transform="matrix(0.9551 -0.2963 0.2963 0.9551 -28.1486 7.4012)" class="st6" width="13.1" height="2.7"/>
		
			<rect id="XMLID_65_" x="17" y="86.4" transform="matrix(0.9551 -0.2963 0.2963 0.9551 -24.9555 10.9236)" class="st6" width="13.1" height="2.7"/>
		
			<rect id="XMLID_64_" x="18.4" y="90.6" transform="matrix(0.9551 -0.2963 0.2963 0.9551 -26.1268 11.5218)" class="st6" width="13.1" height="2.7"/>
		
			<rect id="XMLID_63_" x="12.4" y="81.2" transform="matrix(0.9551 -0.2964 0.2964 0.9551 -23.7286 8.5651)" class="st6" width="7.9" height="2.7"/>
		
			<rect id="XMLID_62_" x="21.7" y="78.4" transform="matrix(0.9551 -0.2963 0.2963 0.9551 -22.4816 11.1704)" class="st6" width="7.9" height="2.7"/>
		
			<rect id="XMLID_61_" x="31.2" y="75.4" transform="matrix(0.9551 -0.2963 0.2963 0.9551 -21.1775 13.8468)" class="st6" width="7.9" height="2.7"/>
		
			<rect id="XMLID_60_" x="35.9" y="89.1" transform="matrix(0.9551 -0.2963 0.2963 0.9551 -25.0021 15.8666)" class="st6" width="7.9" height="2.7"/>
		
			<rect id="XMLID_59_" x="44.6" y="77.8" transform="matrix(0.9551 -0.2964 0.2964 0.9551 -21.3448 17.4833)" class="st6" width="4.8" height="2.7"/>
		
			<rect id="XMLID_58_" x="52" y="95.1" transform="matrix(0.974 0.2265 -0.2265 0.974 23.3163 -10.1703)" class="st6" width="7.9" height="2.7"/>
		
			<rect id="XMLID_57_" x="52.4" y="100.7" transform="matrix(0.974 0.2265 -0.2265 0.974 25.6629 -9.7455)" class="st6" width="5.9" height="12.5"/>
		
			<rect id="XMLID_56_" x="29.3" y="18.1" transform="matrix(0.974 0.2265 -0.2265 0.974 7.3487 -6.5617)" class="st6" width="5.9" height="21.3"/>
		
			<rect id="XMLID_55_" x="60.2" y="101.6" transform="matrix(0.974 0.2265 -0.2265 0.974 26.0238 -11.124)" class="st6" width="2.5" height="12.5"/>
		
			<rect id="XMLID_54_" x="66.6" y="101.6" transform="matrix(0.974 0.2265 -0.2265 0.974 25.4533 -12.6492)" class="st6" width="2.5" height="6.1"/>
		
			<rect id="XMLID_53_" x="64.6" y="110.6" transform="matrix(0.974 0.2265 -0.2265 0.974 27.4545 -11.9622)" class="st6" width="2.5" height="6.1"/>
		
			<rect id="XMLID_52_" x="62.7" y="119.4" transform="matrix(0.974 0.2265 -0.2265 0.974 29.3949 -11.2998)" class="st6" width="2.5" height="6.1"/>
		
			<rect id="XMLID_51_" x="86.8" y="94.8" transform="matrix(0.974 0.2265 -0.2265 0.974 24.4398 -17.4027)" class="st6" width="2.5" height="6.1"/>
		
			<rect id="XMLID_50_" x="89.3" y="83.3" transform="matrix(0.974 0.2265 -0.2265 0.974 21.9171 -18.2736)" class="st6" width="2.5" height="6.1"/>
		
			<rect id="XMLID_49_" x="101.7" y="87.2" transform="matrix(0.974 0.2265 -0.2265 0.974 23.1214 -20.9752)" class="st6" width="2.5" height="6.1"/>
		
			<rect id="XMLID_48_" x="99.7" y="96.1" transform="matrix(0.974 0.2265 -0.2265 0.974 25.0746 -20.2812)" class="st6" width="2.5" height="6.1"/>
		
			<rect id="XMLID_47_" x="84.8" y="105.7" transform="matrix(0.974 0.2265 -0.2265 0.974 26.858 -16.657)" class="st6" width="2.5" height="6.1"/>
		
			<rect id="XMLID_46_" x="77.6" y="114.1" transform="matrix(0.974 0.2265 -0.2265 0.974 28.1697 -14.859)" class="st6" width="2.5" height="2.5"/>
		
			<rect id="XMLID_45_" x="76.8" y="118.1" transform="matrix(0.974 0.2265 -0.2265 0.974 29.0607 -14.5709)" class="st6" width="2.5" height="2.5"/>
		
			<rect id="XMLID_44_" x="83.4" y="85" transform="matrix(0.974 0.2265 -0.2265 0.974 22.1368 -16.8955)" class="st6" width="2.5" height="6.1"/>
		
			<rect id="XMLID_43_" x="71.2" y="101.2" transform="matrix(0.974 0.2265 -0.2265 0.974 25.5394 -14.082)" class="st6" width="5.8" height="6.1"/>
		
			<rect id="XMLID_42_" x="93.9" y="103.4" transform="matrix(0.974 0.2264 -0.2264 0.974 26.6175 -19.1542)" class="st6" width="5.8" height="6.1"/>
		
			<rect id="XMLID_41_" x="92.3" y="88.2" transform="matrix(0.974 0.2264 -0.2264 0.974 23.7221 -19.1103)" class="st2" width="5.8" height="11.4"/>
		
			<rect id="XMLID_40_" x="92.3" y="110.8" transform="matrix(0.974 0.2264 -0.2264 0.974 28.2423 -18.589)" class="st6" width="5.8" height="6.1"/>
		
			<rect id="XMLID_39_" x="101" y="115.2" transform="matrix(0.974 0.2264 -0.2264 0.974 29.4726 -20.4437)" class="st6" width="5.8" height="6.1"/>
		
			<rect id="XMLID_38_" x="90.6" y="118.5" transform="matrix(0.974 0.2264 -0.2264 0.974 29.9504 -18.0219)" class="st6" width="5.8" height="6.1"/>
		
			<rect id="XMLID_37_" x="69.3" y="111.2" transform="matrix(0.974 0.2264 -0.2264 0.974 27.7417 -13.3891)" class="st6" width="5.8" height="6.1"/>
		
			<rect id="XMLID_36_" x="67.3" y="120.1" transform="matrix(0.974 0.2265 -0.2265 0.974 29.732 -12.7136)" class="st6" width="5.8" height="6.1"/>
		
			<rect id="XMLID_35_" x="63.5" y="87.8" transform="matrix(0.974 0.2265 -0.2265 0.974 22.991 -12.211)" class="st6" width="2.5" height="12.5"/>
		
			<rect id="XMLID_34_" x="41.9" y="19" transform="matrix(0.974 0.2265 -0.2265 0.974 6.8397 -9.1209)" class="st6" width="2.5" height="12.5"/>
		
			<rect id="XMLID_33_" x="50" y="118.4" transform="matrix(0.974 0.2265 -0.2265 0.974 28.5511 -9.3573)" class="st6" width="10" height="2.7"/>
		
			<rect id="XMLID_32_" x="43.3" y="93.1" transform="matrix(0.974 0.2264 -0.2264 0.974 22.6044 -8.2375)" class="st6" width="7.9" height="2.7"/>
		
			<rect id="XMLID_31_" x="2.4" y="47.1" transform="matrix(0.869 0.4949 -0.4949 0.869 24.804 3.1989)" class="st6" width="7.9" height="2.7"/>
		
			<rect id="XMLID_30_" x="12.6" y="52.9" transform="matrix(0.869 0.4949 -0.4949 0.869 29.0356 -1.0867)" class="st6" width="7.9" height="2.7"/>
		
			<rect id="XMLID_29_" x="-0.6" y="59.4" transform="matrix(0.8606 0.5092 -0.5092 0.8606 32.8763 1.3281)" class="st6" width="29.1" height="2.7"/>
		
			<rect id="XMLID_28_" x="72.9" y="79.7" transform="matrix(0.9657 0.2596 -0.2596 0.9657 23.7976 -17.9352)" class="st6" width="13.8" height="2.7"/>
		
			<rect id="XMLID_27_" x="71.8" y="83.4" transform="matrix(0.9657 0.2596 -0.2596 0.9657 24.6411 -17.0953)" class="st6" width="10.6" height="2.7"/>
		
			<rect id="XMLID_26_" x="82.7" y="115.6" transform="matrix(0.9657 0.2597 -0.2597 0.9657 33.3252 -18.2676)" class="st6" width="6.1" height="2.7"/>
		
			<rect id="XMLID_25_" x="71.4" y="91.7" transform="matrix(0.9657 0.2596 -0.2596 0.9657 26.8323 -17.1271)" class="st6" width="13.8" height="2.7"/>
		
			<rect id="XMLID_24_" x="37.6" y="95.7" transform="matrix(-0.3217 -0.9468 0.9468 -0.3217 -41.1305 164.6991)" class="st6" width="1.6" height="2.7"/>
		
			<rect id="XMLID_23_" x="37.5" y="101" transform="matrix(-0.3218 -0.9468 0.9468 -0.3218 -43.7234 173.3675)" class="st6" width="5.5" height="2.7"/>
		
			<rect id="XMLID_22_" x="29.8" y="97.6" transform="matrix(-0.3218 -0.9468 0.9468 -0.3218 -50.715 161.6198)" class="st6" width="5.5" height="2.7"/>
		
			<rect id="XMLID_21_" x="12.1" y="107.3" transform="matrix(-0.3218 -0.9468 0.9468 -0.3218 -83.3073 157.7537)" class="st6" width="5.5" height="2.7"/>
		
			<rect id="XMLID_20_" x="15.9" y="106" transform="matrix(-0.3218 -0.9468 0.9468 -0.3218 -77.0339 159.6045)" class="st6" width="5.5" height="2.7"/>
		
			<rect id="XMLID_19_" x="19.7" y="104.8" transform="matrix(-0.3218 -0.9468 0.9468 -0.3218 -70.8889 161.6274)" class="st6" width="5.5" height="2.7"/>
		
			<rect id="XMLID_18_" x="24.7" y="103.2" transform="matrix(-0.3218 -0.9468 0.9468 -0.3218 -62.7498 164.2864)" class="st6" width="5.5" height="2.7"/>
		
			<rect id="XMLID_17_" x="31.4" y="116" transform="matrix(-0.3217 -0.9468 0.9468 -0.3217 -59.587 191.9638)" class="st6" width="15.1" height="2.7"/>
		
			<rect id="XMLID_16_" x="6.5" y="109.7" transform="matrix(-0.3218 -0.9468 0.9468 -0.3218 -92.9798 155.6051)" class="st6" width="5.5" height="2.7"/>
		
			<rect id="XMLID_15_" x="39.9" y="108.6" transform="matrix(-0.3218 -0.9468 0.9468 -0.3218 -47.7043 185.705)" class="st6" width="5.5" height="2.7"/>
		<path id="XMLID_14_" class="st6" d="M32,113.4c0,2.3-1.9,4.2-4.2,4.2c-2.3,0-4.2-1.9-4.2-4.2c0-2.3,1.9-4.2,4.2-4.2
			C30.1,109.2,32,111.1,32,113.4"/>
		<path id="XMLID_13_" class="st6" d="M61.3,77.5c0,1.5-1.2,2.7-2.7,2.7c-1.5,0-2.7-1.2-2.7-2.7c0-1.5,1.2-2.7,2.7-2.7
			C60.1,74.8,61.3,76,61.3,77.5"/>
		<path id="XMLID_12_" class="st6" d="M38.7,62.2c0,2.3-1.9,4.2-4.2,4.2c-2.3,0-4.2-1.9-4.2-4.2c0-2.3,1.9-4.2,4.2-4.2
			C36.8,58,38.7,59.9,38.7,62.2"/>
		<polygon id="XMLID_11_" class="st2" points="-4.8,85.4 -4.3,53.4 31.6,73.4 		"/>
		<path id="XMLID_10_" class="st3" d="M16.1,69.6c1.1,4.2-6.3,9.8-16.5,12.4c-10.2,2.6-19.3,1.3-20.4-3s1.8-14.4,12-17
			C1.3,59.4,15,65.3,16.1,69.6"/>
		<path id="XMLID_9_" class="st3" d="M66.4-0.3c4.4,11.7,8.8,23.5,14.9,34.4c5.3,9.6,12.6,19,22.9,23.4c9.3,4,19.5,3.2,29.3,1.5
			c10.2-1.7,20-4.7,29.9-7.6c2.4-0.7,1.4-4.5-1.1-3.8c-12.1,3.5-24.2,7.3-36.8,8.6c-6.1,0.6-12.2,0.4-18-1.6
			c-4.9-1.6-9.2-4.8-12.8-8.5c-6-6.1-10.3-13.8-14-21.5c-4.1-8.4-7.4-17.2-10.7-26c-0.4-1-1.3-1.7-2.4-1.4C66.8-2.5,66-1.4,66.4-0.3
			"/>
		<path id="XMLID_8_" class="st4" d="M98.5,5.5h1c0,0.2-0.1,0.4-0.1,0.6c-0.1,0.1-0.1,0.3-0.2,0.4c-0.3,1.1-0.5,2.1-0.8,3.2
			c-0.2,0.8-0.5,1.4-1.3,1.8c-0.7,0.3-1.3,0.8-1.9,1.3c-3.8,2.6-7.9,5-11.9,7.2c-1.3,0.7-2.5,1.6-3.4,2.7c-1.1,1.4-2.1,3-3.1,4.4
			c-1.8,2.6-3.4,5.3-5.8,7.4c-0.1,0.1-0.2,0.3-0.3,0.4c-0.5,1.2-1,2.4-1.6,3.5c-1,1.9-1.7,4-3.1,5.6c-1.2,1.4-1.9,3-2.2,4.8
			c-0.5,3.4-1.6,6.6-2.8,9.8c-0.9,2.2-1.5,4.5-1.7,6.9c-0.1,2.1-0.5,4.2-0.6,6.3c0,0.4-0.1,0.8-0.6,0.8c-0.5,0-0.4-0.4-0.4-0.8
			c0.3-2.7,0.5-5.4,0.8-8.1c0.1-0.8,0.2-1.7,0.4-2.5c1.5-4.2,3.2-8.3,3.9-12.8c0.2-1.6,0.8-3.2,1.9-4.5c0.6-0.8,1.4-1.6,1.8-2.5
			c1-2,1.9-4,2.8-6.1c0.4-0.9,0.9-1.7,1.7-2.3c0.6-0.6,1.3-1.1,1.8-1.8c1.9-2.7,3.8-5.4,5.7-8.2c0.4-0.6,0.8-1.2,1.3-1.7
			c1.4-1.3,3-2.3,4.6-3.2c4.3-2.3,8.4-5,12.4-7.7c0.2-0.1,0.4-0.3,0.5-0.6c0.3-1.3,0.7-2.6,1.1-3.9C98.5,5.9,98.5,5.7,98.5,5.5"/>
	</g>
	<g>
		<defs>
			<rect id="XMLID_2_" width="108.8" height="124.1"/>
		</defs>
		<clipPath id="XMLID_186_">
			<use xlink:href="#XMLID_2_"  style="overflow:visible;"/>
		</clipPath>
		<path id="XMLID_6_" class="st7" d="M69.8,21.7c0,8.5-6.9,15.4-15.4,15.4S39,30.2,39,21.7S45.9,6.3,54.4,6.3S69.8,13.2,69.8,21.7"
			/>
		<path id="XMLID_5_" class="st8" d="M69.3,21.4c0,8.4-6.8,15.2-15.2,15.2c-8.4,0-15.2-6.8-15.2-15.2c0-8.4,6.8-15.2,15.2-15.2
			C62.5,6.2,69.3,13,69.3,21.4"/>
		<path id="XMLID_4_" class="st9" d="M54.4,0v6.6c8.2,0,14.9,6.7,14.9,14.9s-6.7,14.9-14.9,14.9v43.3L74,30.5
			c0.3-0.7,0.6-1.4,0.8-2.1c0.2-0.7,0.5-1.5,0.6-2.2c0.3-1.5,0.5-3.1,0.5-4.7C75.9,9.6,66.3,0,54.4,0"/>
		<path id="XMLID_3_" class="st10" d="M39.5,21.5c0-8.2,6.7-14.9,14.9-14.9V0C42.5,0,32.9,9.6,32.9,21.5c0,1.6,0.2,3.2,0.5,4.7
			c0.2,0.8,0.4,1.5,0.6,2.2c0.2,0.7,0.5,1.4,0.8,2.1l19.6,49.2V36.4C46.2,36.4,39.5,29.8,39.5,21.5"/>
	</g>
</g>
</svg>
