<?xml version="1.0" encoding="utf-8"?>
<!-- Generator: Adobe Illustrator 19.0.0, SVG Export Plug-In . SVG Version: 6.00 Build 0)  -->
<svg version="1.1" id="Layer_1" xmlns="http://www.w3.org/2000/svg" xmlns:xlink="http://www.w3.org/1999/xlink" x="0px" y="0px"
	 width="26px" height="49px" viewBox="0 0 26.4 48.9" style="enable-background:new 0 0 26.4 48.9;" xml:space="preserve">
<style type="text/css">
	.st0{clip-path:url(#SVGID_2_);fill:#B83837;}
	.st1{clip-path:url(#SVGID_2_);fill:#FFFFFF;}
	.st2{clip-path:url(#SVGID_2_);fill:#CE5D61;}
	.st3{clip-path:url(#SVGID_2_);fill:#EA696D;}
</style>
<g>
	<defs>
		<rect id="SVGID_1_" width="26.4" height="48.9"/>
	</defs>
	<clipPath id="SVGID_2_">
		<use xlink:href="#SVGID_1_"  style="overflow:visible;"/>
	</clipPath>
	<path class="st0" d="M22.6,13.3c0,5.2-4.2,9.4-9.4,9.4c-5.2,0-9.4-4.2-9.4-9.4S8,3.8,13.2,3.8C18.4,3.8,22.6,8.1,22.6,13.3"/>
	<path class="st1" d="M22.3,13.1c0,5.1-4.2,9.3-9.3,9.3s-9.3-4.2-9.3-9.3S7.9,3.8,13,3.8S22.3,8,22.3,13.1"/>
	<path class="st2" d="M13.2,0v4c5,0,9.1,4.1,9.1,9.1c0,5-4.1,9.1-9.1,9.1v26.5l12-30.2c0.2-0.4,0.4-0.8,0.5-1.3
		c0.1-0.4,0.3-0.9,0.4-1.4c0.2-0.9,0.3-1.9,0.3-2.9C26.4,5.9,20.5,0,13.2,0"/>
	<path class="st3" d="M4,13.2C4,8.1,8.1,4,13.2,4V0C5.9,0,0,5.9,0,13.2c0,1,0.1,1.9,0.3,2.9c0.1,0.5,0.2,0.9,0.4,1.4
		c0.1,0.4,0.3,0.9,0.5,1.3l12,30.2V22.3C8.1,22.3,4,18.2,4,13.2"/>
</g>
</svg>
