<?xml version="1.0" encoding="utf-8"?>
<!-- Generator: Adobe Illustrator 19.0.0, SVG Export Plug-In . SVG Version: 6.00 Build 0)  -->
<svg version="1.1" id="Layer_1" xmlns="http://www.w3.org/2000/svg" xmlns:xlink="http://www.w3.org/1999/xlink" x="0px" y="0px"
	 viewBox="0 0 409.2 202.9" style="enable-background:new 0 0 409.2 202.9;" xml:space="preserve">
<style type="text/css">
	.st0{fill:#0072BB;}
	.st1{fill:#FFFFFF;}
	.st2{clip-path:url(#SVGID_2_);fill:#FFFFFF;}
	.st3{clip-path:url(#SVGID_4_);}
	.st4{clip-path:url(#SVGID_4_);fill:#0771B8;}
</style>
<rect x="198" class="st0" width="211.2" height="85"/>
<polygon class="st1" points="245.5,76.7 231.1,29.3 230.9,29.3 221.3,76.7 204,76.7 218.7,8.2 241.6,8.2 255.7,55.7 255.9,55.7 
	265.6,8.2 282.9,8.2 268.4,76.7 "/>
<polygon class="st1" points="315.7,76.7 321.8,47.3 300,47.3 293.9,76.7 275.4,76.7 289.7,8.2 308.2,8.2 302.7,34.4 324.5,34.4 
	329.9,8.2 348.4,8.2 334.1,76.7 "/>
<g>
	<defs>
		<rect id="SVGID_1_" x="198" y="0" width="211.2" height="85"/>
	</defs>
	<clipPath id="SVGID_2_">
		<use xlink:href="#SVGID_1_"  style="overflow:visible;"/>
	</clipPath>
	<path class="st2" d="M396.9,23.7c-3.6-1.7-8.4-3.1-15.2-3.1c-7.3,0-13.2,1.1-13.2,6.6c0,9.7,26.7,6.1,26.7,26.9
		c0,18.9-17.6,23.8-33.6,23.8c-7.1,0-15.3-1.7-21.3-3.5l4.3-13.9c3.6,2.4,10.9,3.9,17,3.9c5.7,0,14.7-1.1,14.7-8.1
		c0-11-26.7-6.9-26.7-26.2c0-17.7,15.6-23,30.7-23c8.5,0,16.5,0.9,21.1,3L396.9,23.7z"/>
</g>
<g>
	<defs>
		<rect id="SVGID_3_" x="-82" y="-85" width="578.3" height="371.3"/>
	</defs>
	<clipPath id="SVGID_4_">
		<use xlink:href="#SVGID_3_"  style="overflow:visible;"/>
	</clipPath>
	<path class="st3" d="M179,118.2c-2.6-1.2-5.4-1.8-8.3-1.8c-0.7,0-1.4,0.1-2.1,0.2c-0.7,0.2-1.4,0.5-2.1,0.9c-0.6,0.4-1.2,1-1.6,1.8
		c-0.4,0.8-0.6,1.7-0.6,2.9c0,0.9,0.3,1.6,0.8,2.2c0.5,0.6,1.2,1.1,2,1.6c0.9,0.5,1.9,0.9,2.9,1.3c1,0.4,2.1,0.9,3.2,1.4
		c1.1,0.5,2.2,1,3.3,1.6c1.1,0.6,2,1.4,2.8,2.3c0.8,0.9,1.5,1.9,2,3.2c0.5,1.3,0.7,2.8,0.7,4.6c-0.1,4.5-1.6,7.8-4.5,9.7
		c-2.9,2-6.5,3-10.8,3c-2.1,0-3.9-0.2-5.3-0.5c-1.5-0.3-3.2-0.6-5.1-1.1l0.8-7.5c2.9,1.7,5.9,2.5,9.2,2.6c1.7,0,3.3-0.4,4.8-1.3
		c1.6-0.9,2.3-2.2,2.4-4.1c0-1-0.2-1.9-0.7-2.6c-0.6-0.7-1.2-1.3-2-1.8c-1.8-1-3.8-1.9-6.1-2.8c-1.1-0.5-2.2-1-3.2-1.7
		c-1.1-0.6-2-1.3-2.9-2.2c-0.8-0.9-1.5-1.9-2-3.2c-0.5-1.3-0.8-2.7-0.8-4.4c0.1-4.6,1.6-8,4.5-10c2.8-1.9,6-2.8,9.7-2.8
		c3.5,0,6.7,0.5,9.7,1.5L179,118.2z"/>
	<path class="st3" d="M191.2,123.1c3.3-1.5,6.8-2.3,10.4-2.3c8.7-0.1,13,4.2,12.9,13v4c0,3,0,5.6,0.1,7.7c0.1,2.3,0.2,4.6,0.3,6.9
		h-6.9c-0.2-1.9-0.3-3.4-0.3-4.6h-0.1c-0.9,1.7-2.2,3-3.9,3.9c-1.7,1-3.5,1.5-5.4,1.5c-2.7,0-5.1-0.8-7.2-2.4
		c-2.2-1.6-3.3-3.8-3.3-6.8c0-2.3,0.5-4.2,1.5-5.6c0.9-1.4,2.1-2.5,3.6-3.2c1.6-0.8,3.2-1.3,4.9-1.5c1.8-0.2,3.5-0.3,5.1-0.3h4.3
		c0-2.5-0.5-4.2-1.6-5.2c-1.1-1-2.8-1.5-5.1-1.5c-3.4,0.1-6.5,1.2-9.2,3.4L191.2,123.1z M195.4,143.5c0,1.3,0.5,2.2,1.4,2.8
		c0.9,0.6,2.1,1,3.5,1c2.4,0,4.2-1,5.5-2.8c1.1-1.8,1.7-3.9,1.6-6.4H204h-1.3c-0.5,0-0.9,0-1.4,0.1c-1,0.1-2,0.4-2.9,0.7
		c-0.9,0.4-1.6,0.9-2.1,1.6C195.7,141.3,195.4,142.3,195.4,143.5"/>
	<rect x="223.4" y="107.4" class="st3" width="7.8" height="45"/>
	<path class="st3" d="M240.1,108.2h7.8v7.7h-7.8V108.2z M240.1,121.5h7.8v30.9h-7.8V121.5z"/>
	<path class="st3" d="M274.4,128c-1.2-0.4-2.3-0.8-3.4-1c-1.1-0.2-2.4-0.3-3.9-0.3c-1.1,0-2.2,0.2-3.1,0.7c-1.1,0.5-1.6,1.4-1.7,2.8
		c0,1.2,0.8,2,2.2,2.5c0.7,0.3,1.4,0.5,2.3,0.8c0.8,0.2,1.7,0.5,2.5,0.8c0.9,0.3,1.8,0.7,2.6,1.1c0.8,0.5,1.5,1.1,2.2,1.7
		c0.7,0.7,1.2,1.5,1.6,2.5c0.4,1,0.6,2.2,0.6,3.7c-0.1,3.6-1.4,6.1-3.9,7.7c-2.5,1.6-5.5,2.3-8.9,2.3c-3,0-6-0.5-9-1.3l0.5-6.6
		c2.5,1.4,5.2,2.1,8,2.1c1.1,0,2.3-0.3,3.4-0.9c1.2-0.5,1.8-1.5,1.9-2.9c0-0.8-0.2-1.5-0.6-2c-0.4-0.5-0.9-0.9-1.6-1.1
		c-1.4-0.5-3-1.1-4.8-1.6c-0.8-0.3-1.7-0.6-2.5-1c-0.8-0.4-1.6-0.9-2.3-1.6c-0.7-0.6-1.2-1.4-1.6-2.4c-0.4-0.9-0.6-2.1-0.6-3.4
		c0-3.4,1.3-5.8,3.7-7.3c2.3-1.5,5.1-2.3,8.2-2.3c1.9,0,3.5,0.1,4.9,0.3c1.4,0.2,2.6,0.5,3.8,0.8L274.4,128z"/>
	<path class="st3" d="M283.2,107.4h7.8v18.1h0.1c2-3.1,5-4.6,8.9-4.7c4.5,0.1,7.8,1.7,9.8,4.8c1.9,3.1,2.8,6.9,2.8,11.3
		c0,4.4-0.9,8.1-2.8,11.3c-2,3.2-5.2,4.9-9.8,5c-1.7,0-3.3-0.3-4.9-1c-1.6-0.7-3-1.9-4.2-3.5l-0.1,0v3.8h-7.6V107.4z M291.1,136.9
		c0,2.3,0.5,4.5,1.6,6.6c0.5,1,1.2,1.8,2.1,2.4c0.9,0.7,1.9,1,3.2,1c1.3,0,2.4-0.3,3.3-1c0.9-0.6,1.5-1.4,2-2.4
		c0.5-1,0.9-2.1,1.1-3.3c0.2-1.2,0.2-2.3,0.2-3.3c0-2.3-0.4-4.4-1.3-6.6c-0.5-1-1.1-1.8-2-2.4c-0.9-0.6-1.9-0.9-3.2-0.9
		c-2.5,0.1-4.3,1.2-5.4,3.3C291.6,132.4,291.1,134.6,291.1,136.9"/>
	<path class="st3" d="M347.3,152.4H340v-4.2h-0.1c-2.4,3.2-5.7,4.8-9.8,4.9c-3.5,0-6.1-1.2-7.7-3.5c-1.7-2.2-2.5-5.1-2.5-8.6v-19.5
		h7.8v16.5c0,0.4,0,0.9,0.1,1.4c0,0.5,0,1,0.1,1.5c0.1,1,0.2,2,0.5,2.9c0.4,0.9,0.9,1.6,1.5,2.2c0.7,0.6,1.6,0.9,2.8,0.9
		c1.4,0,2.6-0.4,3.5-1.1c0.9-0.7,1.6-1.5,2-2.6c0.5-1.1,0.9-2.2,1-3.3c0.2-1.2,0.3-2.2,0.3-3.3v-15.1h7.8V152.4z"/>
	<path class="st3" d="M356.7,121.5h6.9v7h0.1c0.2-1.6,1.1-3.3,2.6-5c1.4-1.8,3.3-2.7,5.6-2.8c0.8,0,1.6,0.1,2.4,0.2v8.1
		c-0.8-0.4-2-0.6-3.5-0.6c-1.6,0-2.8,0.4-3.6,1.3c-0.9,0.8-1.5,1.9-1.9,3.3c-0.4,1.3-0.6,2.6-0.7,4.1c-0.1,1.4-0.1,2.7-0.1,3.9v11.3
		h-7.8V121.5z"/>
	<path class="st3" d="M392.3,144.1h0.1l7.2-22.6h7.9l-11.2,30.7c-0.6,1.7-1.2,3.3-1.8,4.9c-0.6,1.6-1.4,3.1-2.3,4.4
		c-0.9,1.3-1.9,2.3-3.2,3.1c-1.4,0.8-3.1,1.2-5.1,1.2c-1.9,0-3.7-0.3-5.5-0.8l0.5-5.9c0.9,0.4,2.3,0.6,4,0.6c1.6,0,2.8-0.6,3.7-1.6
		c0.9-1,1.3-2.3,1.3-4l-11.4-32.5h8.6L392.3,144.1z"/>
	<polygon class="st4" points="2.4,174.5 9.1,174.5 19.4,195.4 19.5,195.4 19.5,174.5 24.7,174.5 24.7,202.4 18,202.4 7.7,181.5 
		7.6,181.5 7.6,202.4 2.4,202.4 	"/>
	<polygon class="st4" points="31.6,174.5 37,174.5 37,185.8 47.8,185.8 47.8,174.5 53.3,174.5 53.3,202.4 47.8,202.4 47.8,190.2 
		37,190.2 37,202.4 31.6,202.4 	"/>
	<path class="st4" d="M75,179.6c-1.7-0.8-3.6-1.2-5.5-1.2c-0.5,0-0.9,0.1-1.4,0.2c-0.5,0.1-1,0.3-1.4,0.6c-0.4,0.3-0.8,0.7-1.1,1.2
		c-0.3,0.5-0.4,1.1-0.4,1.9c0,0.6,0.2,1.1,0.5,1.5c0.4,0.4,0.8,0.7,1.4,1.1c0.6,0.3,1.2,0.6,1.9,0.9c0.7,0.3,1.4,0.6,2.1,0.9
		c0.8,0.3,1.5,0.6,2.2,1c0.7,0.4,1.4,1,1.9,1.6c0.5,0.6,1,1.3,1.4,2.1c0.3,0.8,0.5,1.9,0.5,3.1c-0.1,3-1,5.2-3,6.5
		c-1.9,1.3-4.3,2-7.2,2c-1.4,0-2.6-0.1-3.5-0.3c-1-0.2-2.1-0.4-3.4-0.8l0.5-5c1.9,1.1,3.9,1.7,6.1,1.7c1.1,0,2.2-0.3,3.2-0.9
		c1-0.6,1.6-1.5,1.6-2.7c0-0.7-0.2-1.2-0.5-1.7c-0.4-0.5-0.8-0.9-1.4-1.2c-1.2-0.7-2.5-1.3-4.1-1.9c-0.7-0.3-1.5-0.7-2.1-1.1
		c-0.7-0.4-1.4-0.9-2-1.4c-0.5-0.6-1-1.3-1.4-2.1c-0.4-0.8-0.5-1.8-0.5-2.9c0.1-3.1,1-5.3,3-6.7c1.9-1.3,4-1.9,6.5-1.9
		c2.3,0,4.5,0.3,6.5,1L75,179.6z"/>
	<polygon class="st4" points="93.8,174.5 108.8,174.5 108.8,178.9 99.2,178.9 99.2,185.8 108.4,185.8 108.4,190.2 99.2,190.2 
		99.2,202.4 93.8,202.4 	"/>
	<path class="st4" d="M112.1,192.3c0-3.4,1-6.1,3-8c1.9-1.9,4.4-2.8,7.4-2.9c3,0,5.5,1,7.5,2.9c2,1.9,3,4.6,3,8c0,3-0.9,5.5-2.7,7.5
		c-1.8,2-4.4,3.1-7.7,3.1c-3.3-0.1-5.9-1.1-7.7-3.1C113,197.8,112.1,195.3,112.1,192.3 M117.5,191.6c0,0.4,0,0.8,0.1,1.2
		c0.1,0.4,0.1,0.9,0.2,1.3c0.2,0.9,0.4,1.6,0.8,2.3c0.4,0.7,0.9,1.2,1.5,1.6c0.6,0.5,1.4,0.7,2.4,0.7c1,0,1.8-0.2,2.5-0.6
		c0.6-0.4,1.2-1,1.6-1.6c0.4-0.7,0.6-1.5,0.8-2.3c0.1-0.8,0.2-1.7,0.2-2.5c0-1.7-0.4-3.1-1.2-4.3c-0.8-1.2-2.1-1.8-3.8-1.8
		c-1.7,0-2.9,0.7-3.7,1.9C117.9,188.6,117.5,190,117.5,191.6"/>
	<path class="st4" d="M156.1,202.4h-4.9v-2.8h-0.1c-1.6,2.1-3.8,3.2-6.5,3.3c-2.4,0-4.1-0.8-5.1-2.3c-1.1-1.5-1.7-3.4-1.7-5.8v-13
		h5.2v11c0,0.3,0,0.6,0.1,0.9c0,0.3,0,0.6,0,1c0.1,0.7,0.2,1.3,0.3,2c0.2,0.6,0.6,1.1,1,1.4c0.5,0.4,1.1,0.6,1.9,0.6
		c1,0,1.7-0.3,2.4-0.8c0.6-0.5,1-1,1.3-1.7c0.4-0.7,0.6-1.4,0.7-2.2c0.1-0.8,0.2-1.5,0.2-2.2v-10.1h5.2V202.4z"/>
	<path class="st4" d="M162.2,181.8h4.9v2.8h0.1c1.7-2.2,3.9-3.3,6.6-3.3c2.3,0,4.1,0.8,5.2,2.3c1.1,1.5,1.6,3.4,1.6,5.8v13h-5.2v-11
		c0-0.7,0-1.3-0.1-2.1c0-0.7-0.2-1.3-0.4-1.9c-0.2-0.6-0.5-1.1-1-1.5c-0.5-0.3-1.2-0.5-2-0.5c-0.9,0-1.7,0.2-2.2,0.7
		c-0.6,0.4-1,1-1.4,1.7c-0.3,0.7-0.6,1.4-0.7,2.2c-0.2,0.8-0.2,1.6-0.2,2.2v10.1h-5.2V181.8z"/>
	<path class="st4" d="M199.9,200.1L199.9,200.1c-1.7,1.9-3.7,2.8-6.2,2.8c-3-0.1-5.2-1.2-6.5-3.3c-1.3-2.1-1.9-4.6-1.9-7.5
		c0-2.9,0.6-5.4,1.9-7.5c1.3-2.1,3.4-3.2,6.5-3.2c2.5,0,4.5,1,6,2.9h0.1v-11.8h5.2v30h-5V200.1z M190.8,192.1c0,1.5,0.3,3,0.9,4.4
		c0.3,0.6,0.8,1.2,1.3,1.6c0.5,0.5,1.2,0.7,2.1,0.7c0.9,0,1.6-0.2,2.2-0.7c0.6-0.4,1.1-1,1.4-1.6c0.4-0.7,0.6-1.4,0.8-2.2
		c0.1-0.8,0.2-1.5,0.2-2.2c0-1.6-0.3-3-1-4.4c-0.4-0.7-0.9-1.2-1.4-1.6c-0.6-0.4-1.3-0.6-2.2-0.6c-1.6,0.1-2.8,0.8-3.4,2.2
		c-0.3,0.7-0.5,1.4-0.7,2.1C190.9,190.6,190.8,191.3,190.8,192.1"/>
	<path class="st4" d="M212,182.9c2.2-1,4.5-1.5,6.9-1.6c5.8-0.1,8.7,2.8,8.6,8.7v2.6c0,2,0,3.7,0.1,5.2c0.1,1.5,0.1,3.1,0.2,4.6
		h-4.6c-0.2-1.3-0.2-2.3-0.2-3.1h-0.1c-0.6,1.1-1.5,2-2.6,2.6c-1.1,0.6-2.3,1-3.6,1c-1.8,0-3.4-0.6-4.8-1.6c-1.4-1-2.2-2.6-2.2-4.5
		c0-1.5,0.3-2.8,1-3.8c0.6-1,1.4-1.7,2.4-2.1c1-0.5,2.1-0.8,3.3-1c1.2-0.1,2.3-0.2,3.4-0.2h2.9c0-1.7-0.4-2.8-1.1-3.5
		c-0.7-0.7-1.9-1-3.4-1c-2.3,0-4.3,0.8-6.2,2.2L212,182.9z M214.8,196.5c0,0.9,0.3,1.5,1,1.9c0.6,0.4,1.4,0.6,2.3,0.6
		c1.6,0,2.8-0.6,3.6-1.8c0.8-1.2,1.1-2.6,1.1-4.3h-2.3h-0.9c-0.3,0-0.6,0-0.9,0.1c-0.7,0.1-1.3,0.2-1.9,0.5
		c-0.6,0.2-1.1,0.6-1.4,1.1C215,195,214.8,195.7,214.8,196.5"/>
	<path class="st4" d="M235,185.7h-3.8v-3.9h3.8v-4.1l5.2-1.7v5.8h4.6v3.9h-4.6v9.6c0,0.9,0.1,1.7,0.5,2.3c0.3,0.7,1,1.1,2,1.1
		c1,0,1.8-0.2,2.4-0.6l0.2,4.2c-1,0.3-2.3,0.5-3.8,0.5c-4.2-0.1-6.3-2.3-6.3-6.7V185.7z"/>
	<path class="st4" d="M249,172.9h5.2v5.1H249V172.9z M249,181.8h5.2v20.6H249V181.8z"/>
	<path class="st4" d="M258.7,192.3c0-3.4,1-6.1,3-8c1.9-1.9,4.4-2.8,7.4-2.9c3,0,5.5,1,7.5,2.9c2,1.9,3,4.6,3,8c0,3-0.9,5.5-2.7,7.5
		c-1.8,2-4.4,3.1-7.7,3.1c-3.3-0.1-5.9-1.1-7.7-3.1C259.6,197.8,258.7,195.3,258.7,192.3 M264.2,191.6c0,0.4,0,0.8,0.1,1.2
		c0.1,0.4,0.1,0.9,0.2,1.3c0.2,0.9,0.4,1.6,0.8,2.3c0.4,0.7,0.9,1.2,1.5,1.6c0.6,0.5,1.4,0.7,2.4,0.7c1,0,1.8-0.2,2.5-0.6
		c0.6-0.4,1.2-1,1.6-1.6c0.4-0.7,0.6-1.5,0.8-2.3c0.1-0.8,0.2-1.7,0.2-2.5c0-1.7-0.4-3.1-1.2-4.3c-0.8-1.2-2.1-1.8-3.8-1.8
		c-1.7,0-2.9,0.7-3.7,1.9C264.6,188.6,264.2,190,264.2,191.6"/>
	<path class="st4" d="M284.4,181.8h4.9v2.8h0.1c1.7-2.2,3.9-3.3,6.6-3.3c2.3,0,4.1,0.8,5.2,2.3c1.1,1.5,1.6,3.4,1.6,5.8v13h-5.2v-11
		c0-0.7,0-1.3-0.1-2.1c0-0.7-0.2-1.3-0.4-1.9c-0.2-0.6-0.5-1.1-1-1.5c-0.5-0.3-1.2-0.5-2-0.5c-0.9,0-1.7,0.2-2.2,0.7
		c-0.6,0.4-1,1-1.4,1.7c-0.3,0.7-0.6,1.4-0.7,2.2c-0.2,0.8-0.2,1.6-0.2,2.2v10.1h-5.2V181.8z"/>
	<polygon class="st4" points="325.4,178.9 317.6,178.9 317.6,174.5 338.6,174.5 338.6,178.9 330.8,178.9 330.8,202.4 325.4,202.4 	
		"/>
	<path class="st4" d="M338.7,181.8h4.6v4.7h0.1c0.2-1.1,0.7-2.2,1.7-3.3c1-1.2,2.2-1.8,3.8-1.8c0.5,0,1,0.1,1.6,0.2v5.4
		c-0.5-0.3-1.3-0.4-2.3-0.4c-1,0-1.8,0.3-2.4,0.9c-0.6,0.6-1,1.3-1.3,2.2c-0.3,0.8-0.4,1.8-0.5,2.7c-0.1,0.9-0.1,1.8-0.1,2.6v7.6
		h-5.2V181.8z"/>
	<path class="st4" d="M372.5,202.4h-4.9v-2.8h-0.1c-1.6,2.1-3.8,3.2-6.5,3.3c-2.4,0-4.1-0.8-5.1-2.3c-1.1-1.5-1.7-3.4-1.7-5.8v-13
		h5.2v11c0,0.3,0,0.6,0.1,0.9c0,0.3,0,0.6,0,1c0.1,0.7,0.2,1.3,0.3,2c0.2,0.6,0.6,1.1,1,1.4c0.5,0.4,1.1,0.6,1.9,0.6
		c1,0,1.7-0.3,2.4-0.8c0.6-0.5,1-1,1.3-1.7c0.4-0.7,0.6-1.4,0.7-2.2c0.1-0.8,0.2-1.5,0.2-2.2v-10.1h5.2V202.4z"/>
	<path class="st4" d="M390.4,186.1c-0.8-0.3-1.5-0.5-2.3-0.7c-0.7-0.1-1.6-0.2-2.6-0.2c-0.7,0-1.4,0.1-2.1,0.4
		c-0.7,0.4-1.1,1-1.1,1.8c0,0.8,0.5,1.3,1.5,1.6c0.5,0.2,1,0.4,1.5,0.5c0.6,0.2,1.1,0.3,1.7,0.5c0.6,0.2,1.2,0.4,1.8,0.7
		c0.5,0.3,1,0.7,1.4,1.1c0.5,0.4,0.8,1,1.1,1.6c0.2,0.7,0.4,1.5,0.4,2.4c-0.1,2.4-0.9,4.1-2.6,5.2c-1.7,1-3.7,1.6-5.9,1.6
		c-2,0-4-0.3-6-0.9l0.3-4.4c1.7,0.9,3.5,1.4,5.3,1.4c0.7,0,1.5-0.2,2.3-0.6c0.8-0.3,1.2-1,1.3-2c0-0.5-0.1-1-0.4-1.3
		c-0.3-0.3-0.6-0.6-1.1-0.8c-0.9-0.4-2-0.7-3.2-1c-0.6-0.2-1.1-0.4-1.7-0.7c-0.6-0.3-1.1-0.6-1.5-1c-0.4-0.4-0.8-1-1-1.6
		c-0.3-0.6-0.4-1.4-0.4-2.3c0-2.2,0.9-3.9,2.5-4.9c1.5-1,3.4-1.5,5.5-1.5c1.3,0,2.3,0.1,3.3,0.2c0.9,0.2,1.7,0.3,2.5,0.6
		L390.4,186.1z"/>
	<path class="st4" d="M398,185.7h-3.8v-3.9h3.8v-4.1l5.2-1.7v5.8h4.6v3.9h-4.6v9.6c0,0.9,0.1,1.7,0.5,2.3c0.3,0.7,1,1.1,2,1.1
		c1,0,1.8-0.2,2.4-0.6l0.2,4.2c-1,0.3-2.3,0.5-3.8,0.5c-4.2-0.1-6.3-2.3-6.3-6.7V185.7z"/>
</g>
</svg>
