<?xml version="1.0" encoding="utf-8"?>
<!-- Generator: Adobe Illustrator 19.0.0, SVG Export Plug-In . SVG Version: 6.00 Build 0)  -->
<svg version="1.1" id="Layer_1" xmlns="http://www.w3.org/2000/svg" xmlns:xlink="http://www.w3.org/1999/xlink" x="0px" y="0px"
	 viewBox="0 0 124.5 79" style="enable-background:new 0 0 124.5 79;" xml:space="preserve">
<style type="text/css">
	.st0{clip-path:url(#XMLID_599_);fill:#EDEDED;}
	.st1{clip-path:url(#XMLID_599_);fill:#4A4745;}
	.st2{fill:#69A3C8;}
	.st3{clip-path:url(#XMLID_600_);fill:#EDEDED;}
	.st4{clip-path:url(#XMLID_600_);fill:#7D7A79;}
	.st5{clip-path:url(#XMLID_600_);fill:#F9F7F7;}
	.st6{fill:#87ABD2;}
	.st7{clip-path:url(#XMLID_601_);fill:#EA696D;}
	.st8{clip-path:url(#XMLID_601_);fill:#FCC45E;}
	.st9{clip-path:url(#XMLID_601_);fill:#90C46E;}
	.st10{clip-path:url(#XMLID_601_);fill:#FFFFFF;}
	.st11{fill:#CE5D61;}
	.st12{clip-path:url(#XMLID_602_);fill:#FFFFFF;}
	.st13{fill:#7B9CBE;}
	.st14{clip-path:url(#XMLID_603_);fill:#FFFFFF;}
</style>
<g id="XMLID_443_">
	<g>
		<defs>
			<rect id="XMLID_569_" width="124.5" height="79"/>
		</defs>
		<clipPath id="XMLID_599_">
			<use xlink:href="#XMLID_569_"  style="overflow:visible;"/>
		</clipPath>
		<path id="XMLID_571_" class="st0" d="M115.7,68.9c0,4.4-3.6,7.9-7.9,7.9H16.7c-4.4,0-7.9-3.6-7.9-7.9v-61c0-4.4,3.6-7.9,7.9-7.9
			h91.1c4.4,0,7.9,3.6,7.9,7.9V68.9z"/>
		<path id="XMLID_570_" class="st1" d="M16.7,75.3c-3.5,0-6.4-2.9-6.4-6.4v-61c0-3.5,2.8-6.4,6.4-6.4h91.1c3.5,0,6.4,2.9,6.4,6.4v61
			c0,3.5-2.9,6.4-6.4,6.4H16.7z"/>
	</g>
	<rect id="XMLID_568_" x="16.7" y="7.9" class="st2" width="91.1" height="61"/>
	<g>
		<defs>
			<rect id="XMLID_564_" width="124.5" height="79"/>
		</defs>
		<clipPath id="XMLID_600_">
			<use xlink:href="#XMLID_564_"  style="overflow:visible;"/>
		</clipPath>
		<path id="XMLID_567_" class="st3" d="M124.5,68.9c0,5.5-4.5,10-10,10H10c-5.5,0-10-4.5-10-10H124.5z"/>
		<path id="XMLID_566_" class="st4" d="M78.3,68.9c0,2.8-2.2,5-5,5H51.1c-2.8,0-5-2.2-5-5H78.3z"/>
		<path id="XMLID_565_" class="st5" d="M96.6,61.1c0,2.2-1.8,4-4,4H32.5c-2.2,0-4-1.8-4-4V17.8c0-2.2,1.8-4,4-4h60.1
			c2.2,0,4,1.8,4,4V61.1z"/>
	</g>
	<rect id="XMLID_563_" x="32.5" y="25.2" class="st6" width="60.1" height="35.9"/>
	<g>
		<defs>
			<rect id="XMLID_557_" width="124.5" height="79"/>
		</defs>
		<clipPath id="XMLID_601_">
			<use xlink:href="#XMLID_557_"  style="overflow:visible;"/>
		</clipPath>
		<path id="XMLID_562_" class="st7" d="M36.5,19.7c0,1.1-0.9,2-2,2c-1.1,0-2-0.9-2-2c0-1.1,0.9-2,2-2C35.6,17.7,36.5,18.6,36.5,19.7
			"/>
		<path id="XMLID_561_" class="st8" d="M42.4,19.7c0,1.1-0.9,2-2,2c-1.1,0-2-0.9-2-2c0-1.1,0.9-2,2-2C41.5,17.7,42.4,18.6,42.4,19.7
			"/>
		<path id="XMLID_560_" class="st9" d="M48.4,19.7c0,1.1-0.9,2-2,2c-1.1,0-2-0.9-2-2c0-1.1,0.9-2,2-2C47.5,17.7,48.4,18.6,48.4,19.7
			"/>
		<path id="XMLID_559_" class="st10" d="M92.6,19.7c0,1.1-0.9,2-2,2h-26c-1.1,0-2-0.9-2-2c0-1.1,0.9-2,2-2h26
			C91.7,17.7,92.6,18.6,92.6,19.7"/>
		<path id="XMLID_558_" class="st10" d="M41.4,53.6c-0.8,0-1.4-0.6-1.4-1.4V29.8c0-0.8,0.6-1.4,1.4-1.4h17.7c0.8,0,1.4,0.6,1.4,1.4
			v22.5c0,0.8-0.6,1.4-1.4,1.4H41.4z"/>
	</g>
	<rect id="XMLID_556_" x="42.2" y="30.9" class="st11" width="16" height="20.3"/>
	<g>
		<defs>
			<rect id="XMLID_554_" width="124.5" height="79"/>
		</defs>
		<clipPath id="XMLID_602_">
			<use xlink:href="#XMLID_554_"  style="overflow:visible;"/>
		</clipPath>
		<path id="XMLID_555_" class="st12" d="M37,58.1c-0.8,0-1.4-0.6-1.4-1.4V34.2c0-0.8,0.6-1.4,1.4-1.4h17.7c0.8,0,1.4,0.6,1.4,1.4
			v22.5c0,0.8-0.6,1.4-1.4,1.4H37z"/>
	</g>
	<rect id="XMLID_553_" x="37.8" y="35.3" class="st13" width="16" height="20.3"/>
	<g>
		<defs>
			<rect id="XMLID_444_" width="124.5" height="79"/>
		</defs>
		<clipPath id="XMLID_603_">
			<use xlink:href="#XMLID_444_"  style="overflow:visible;"/>
		</clipPath>
		<path id="XMLID_513_" class="st14" d="M48.1,50.3c-0.7-0.7-0.7-1.8,0-2.5c2-0.9,3.3-2.9,3.3-5.2c0-3.1-2.5-5.7-5.7-5.7
			c-3.1,0-5.7,2.5-5.7,5.7c0,2.3,1.4,4.3,3.3,5.2c0.7,0.7,0.7,1.8,0,2.5c-3.3,0.7-5.7,2.8-5.7,5.4h16C53.8,53.1,51.4,51,48.1,50.3"
			/>
		<path id="XMLID_447_" class="st14" d="M88.3,34.9c0,0.8-0.7,1.5-1.5,1.5H65.1c-0.8,0-1.5-0.7-1.5-1.5c0-0.8,0.7-1.5,1.5-1.5h21.6
			C87.6,33.4,88.3,34.1,88.3,34.9"/>
		<path id="XMLID_446_" class="st14" d="M88.3,43.2c0-0.8-0.7-1.5-1.5-1.5H65.1c-0.8,0-1.5,0.7-1.5,1.5c0,0.8,0.7,1.5,1.5,1.5h21.6
			C87.6,44.7,88.3,44,88.3,43.2"/>
		<path id="XMLID_445_" class="st14" d="M80,51.4c0-0.8-0.7-1.5-1.5-1.5H65.1c-0.8,0-1.5,0.7-1.5,1.5s0.7,1.5,1.5,1.5h13.4
			C79.3,52.9,80,52.3,80,51.4"/>
	</g>
</g>
</svg>
