<?xml version="1.0" encoding="utf-8"?>
<!-- Generator: Adobe Illustrator 19.0.0, SVG Export Plug-In . SVG Version: 6.00 Build 0)  -->
<svg version="1.1" id="Layer_1" xmlns="http://www.w3.org/2000/svg" xmlns:xlink="http://www.w3.org/1999/xlink" x="0px" y="0px"
	 viewBox="0 0 99.9 139.8" style="enable-background:new 0 0 99.9 139.8;" xml:space="preserve">
<style type="text/css">
	.st0{clip-path:url(#XMLID_509_);fill:#646363;}
	.st1{clip-path:url(#XMLID_509_);fill:#FFFFFF;}
	.st2{clip-path:url(#XMLID_509_);fill:#DAECF0;}
	.st3{clip-path:url(#XMLID_509_);fill:#EDEDED;}
</style>
<g>
	<defs>
		<rect id="XMLID_443_" width="99.9" height="139.8"/>
	</defs>
	<clipPath id="XMLID_509_">
		<use xlink:href="#XMLID_443_"  style="overflow:visible;"/>
	</clipPath>
	<path id="XMLID_455_" class="st0" d="M95.2,9.2c1.2,0,2.4,0.4,3.3,1.3c0.9,0.9,1.4,2.1,1.4,3.3v121.4c0,1.2-0.4,2.4-1.4,3.3
		c-0.9,0.9-2.1,1.4-3.3,1.4H4.6c-1.2,0-2.4-0.4-3.3-1.4c-0.9-0.9-1.4-2.1-1.4-3.3V13.8c0-1.2,0.4-2.4,1.4-3.3
		c0.9-0.9,2.1-1.3,3.3-1.3H95.2z"/>
	<path id="XMLID_454_" class="st1" d="M89.1,127.1V11.2c0-1.1-0.9-2-2-2H12.7c-1.1,0-2,0.9-2,2v115.9c0,1.1,0.9,2,2,2h74.4
		C88.2,129,89.1,128.2,89.1,127.1"/>
	<path id="XMLID_453_" class="st2" d="M21,53.6h57.8c1.1,0,2,0.9,2,2v1.2c0,1.1-0.9,2-2,2H21c-1.1,0-2-0.9-2-2v-1.2
		C19.1,54.4,19.9,53.6,21,53.6"/>
	<path id="XMLID_452_" class="st2" d="M21,63.9h57.8c1.1,0,2,0.9,2,2v1.2c0,1.1-0.9,2-2,2H21c-1.1,0-2-0.9-2-2v-1.2
		C19.1,64.8,19.9,63.9,21,63.9"/>
	<path id="XMLID_451_" class="st2" d="M21,74.2h57.8c1.1,0,2,0.9,2,2v1.2c0,1.1-0.9,2-2,2H21c-1.1,0-2-0.9-2-2v-1.2
		C19.1,75.1,19.9,74.2,21,74.2"/>
	<path id="XMLID_450_" class="st2" d="M21,84.6h57.8c1.1,0,2,0.9,2,2v1.2c0,1.1-0.9,2-2,2H21c-1.1,0-2-0.9-2-2v-1.2
		C19.1,85.5,19.9,84.6,21,84.6"/>
	<path id="XMLID_449_" class="st2" d="M21,94.9h57.8c1.1,0,2,0.9,2,2v1.2c0,1.1-0.9,2-2,2H21c-1.1,0-2-0.9-2-2v-1.2
		C19.1,95.8,19.9,94.9,21,94.9"/>
	<path id="XMLID_448_" class="st2" d="M51.9,105.2h26.9c1.1,0,2,0.9,2,2v1.2c0,1.1-0.9,2-2,2H51.9c-1.1,0-2-0.9-2-2v-1.2
		C49.9,106.1,50.8,105.2,51.9,105.2"/>
	<path id="XMLID_447_" class="st2" d="M35,32.9h29.8c1.1,0,2,0.9,2,2v1.2c0,1.1-0.9,2-2,2H35c-1.1,0-2-0.9-2-2v-1.2
		C33,33.8,33.9,32.9,35,32.9"/>
	<path id="XMLID_446_" class="st2" d="M21,43.2h57.8c1.1,0,2,0.9,2,2v1.2c0,1.1-0.9,2-2,2H21c-1.1,0-2-0.9-2-2v-1.2
		C19.1,44.1,19.9,43.2,21,43.2"/>
	<path class="st3" d="M49.8,9.2c-2.5,0-2.7-3.7-0.2-3.9c0.1,0,0.2,0,0.3,0c0.1,0,0.2,0,0.3,0c2.5,0.2,2.2,3.9-0.2,3.9H49.8z
		 M33,11.2V18c0,1.1,0.9,2,2,2h29.8c1.1,0,2-0.9,2-2v-6.8c0-1.1-0.9-2-2-2h-3.9c-1,0-1.8-0.7-1.9-1.6C58.2,3.3,54.5,0,49.9,0
		c-4.5,0-8.3,3.3-9.1,7.6c-0.2,0.9-1,1.6-1.9,1.6H35C33.9,9.2,33,10.1,33,11.2"/>
</g>
</svg>
