<?xml version="1.0" encoding="utf-8"?>
<!-- Generator: Adobe Illustrator 19.0.0, SVG Export Plug-In . SVG Version: 6.00 Build 0)  -->
<svg version="1.1" id="Layer_1" xmlns="http://www.w3.org/2000/svg" xmlns:xlink="http://www.w3.org/1999/xlink" x="0px" y="0px"
	 viewBox="0 0 106.2 126.9" style="enable-background:new 0 0 106.2 126.9;" xml:space="preserve">
<style type="text/css">
	.st0{clip-path:url(#SVGID_2_);fill:#CDD4C9;}
	.st1{clip-path:url(#SVGID_2_);fill:#DAECF0;}
	.st2{clip-path:url(#SVGID_2_);fill:#C1DFE5;}
	.st3{fill:#EDF7F9;}
	.st4{fill:#CEE6EC;}
	.st5{clip-path:url(#SVGID_4_);fill:#EA696D;}
	.st6{clip-path:url(#SVGID_4_);fill:#CE5D61;}
	.st7{clip-path:url(#SVGID_4_);fill:#CDD4C9;}
	.st8{clip-path:url(#SVGID_4_);fill:#DAECF0;}
	.st9{clip-path:url(#SVGID_4_);fill:#C1DFE5;}
	.st10{fill:#706D6B;}
	.st11{fill:#3D3936;}
	.st12{clip-path:url(#SVGID_6_);fill:#282523;}
	.st13{clip-path:url(#SVGID_6_);fill:#3D3936;}
	.st14{fill:#4A4745;}
	.st15{fill:#7D7A79;}
	.st16{clip-path:url(#SVGID_8_);fill:#EA696D;}
	.st17{clip-path:url(#SVGID_8_);fill:#CE5D61;}
	.st18{clip-path:url(#SVGID_10_);fill:#282523;}
	.st19{clip-path:url(#SVGID_10_);fill:#3D3936;}
	.st20{fill:#F9F7F7;}
	.st21{fill:#F2EFEF;}
	.st22{fill:#87ABD2;}
	.st23{fill:#7B9CBE;}
	.st24{clip-path:url(#SVGID_12_);fill:#3C3C3B;}
	.st25{clip-path:url(#SVGID_14_);fill:#3C3C3B;}
	.st26{clip-path:url(#SVGID_14_);fill:#CDD4C9;}
	.st27{clip-path:url(#SVGID_14_);fill:#DAECF0;}
	.st28{clip-path:url(#SVGID_14_);fill:#C1DFE5;}
	.st29{clip-path:url(#SVGID_16_);fill:#EA696D;}
	.st30{clip-path:url(#SVGID_16_);fill:#CE5D61;}
	.st31{clip-path:url(#SVGID_18_);fill:#282523;}
	.st32{clip-path:url(#SVGID_18_);fill:#3D3936;}
	.st33{clip-path:url(#SVGID_20_);fill:#3C3C3B;}
</style>
<g>
	<defs>
		<rect id="SVGID_1_" y="0" width="106.2" height="126.9"/>
	</defs>
	<clipPath id="SVGID_2_">
		<use xlink:href="#SVGID_1_"  style="overflow:visible;"/>
	</clipPath>
	<path class="st0" d="M23.6,11.2v2.9h-1.9v102.8c0,2.7-1.1,5.2-2.9,7c-1.8,1.8-4.3,2.9-7,2.9c-2.5,0-4.8-0.9-6.6-2.5
		c-0.3-0.2-0.6-0.5-0.8-0.8c-1.6-1.7-2.5-4-2.5-6.6V14.1H0v-2.9H23.6z"/>
	<path class="st1" d="M11.8,14.1v112.7c-2.5,0-4.8-0.9-6.6-2.5c-0.3-0.2-0.6-0.5-0.8-0.8c-1.6-1.7-2.5-4-2.5-6.6V14.1H11.8z"/>
	<path class="st2" d="M11.8,14.1v112.7c5.5,0,9.9-4.4,9.9-9.9V14.1H11.8z"/>
</g>
<rect y="11.2" class="st3" width="11.8" height="2.9"/>
<rect x="11.8" y="11.2" class="st4" width="11.8" height="2.9"/>
<g>
	<defs>
		<rect id="SVGID_3_" y="0" width="106.2" height="126.9"/>
	</defs>
	<clipPath id="SVGID_4_">
		<use xlink:href="#SVGID_3_"  style="overflow:visible;"/>
	</clipPath>
	<path class="st5" d="M4.7,79.4v37.5c0,3.9,3.2,7.1,7.1,7.1V79.4H4.7z"/>
	<path class="st6" d="M11.8,79.4v44.6c3.9,0,7.1-3.2,7.1-7.1V79.4H11.8z"/>
	<path class="st7" d="M64.2,11.2v2.9h-1.9v102.8c0,5.5-4.4,9.9-9.9,9.9h0c-5.5,0-9.9-4.4-9.9-9.9V14.1h-1.9v-2.9H64.2z"/>
	<path class="st8" d="M52.4,14.1v112.7c-5.5,0-9.9-4.4-9.9-9.9V14.1H52.4z"/>
	<path class="st9" d="M52.4,14.1v112.7h0c5.5,0,9.9-4.4,9.9-9.9V14.1H52.4z"/>
</g>
<rect x="41" y="0" class="st10" width="11.4" height="11.2"/>
<rect x="52.4" y="0" class="st11" width="11.4" height="11.2"/>
<g>
	<defs>
		<rect id="SVGID_5_" y="0" width="106.2" height="126.9"/>
	</defs>
	<clipPath id="SVGID_6_">
		<use xlink:href="#SVGID_5_"  style="overflow:visible;"/>
	</clipPath>
	<path class="st12" d="M54.6,0v7c0,0.5-0.4,0.9-0.8,0.9C53.4,7.9,53,7.5,53,7V0H54.6z"/>
	<path class="st12" d="M57.2,0v7c0,0.5-0.3,0.9-0.7,0.9c-0.4,0-0.7-0.4-0.7-0.9V0H57.2z"/>
	<path class="st12" d="M59.6,0v7c0,0.5-0.3,0.9-0.7,0.9c-0.4,0-0.6-0.4-0.6-0.9V0H59.6z"/>
	<path class="st12" d="M61.6,0v7c0,0.1,0,0.2,0,0.4c-0.1,0.3-0.3,0.5-0.5,0.5c-0.3,0-0.6-0.4-0.6-0.9V0H61.6z"/>
	<path class="st12" d="M63.3,0v7c0,0.5-0.2,0.9-0.4,0.9c-0.2,0-0.4-0.4-0.4-0.9V0H63.3z"/>
	<path class="st13" d="M51.8,0v7c0,0.5-0.4,0.9-0.8,0.9c-0.4,0-0.8-0.4-0.8-0.9V0H51.8z"/>
	<path class="st13" d="M49,0v7c0,0.5-0.3,0.9-0.7,0.9c-0.4,0-0.7-0.4-0.7-0.9V0H49z"/>
	<path class="st13" d="M46.6,0v7c0,0.5-0.3,0.9-0.7,0.9c-0.4,0-0.6-0.4-0.6-0.9V0H46.6z"/>
	<path class="st13" d="M44.3,0v7c0,0.5-0.2,0.9-0.5,0.9c-0.3,0-0.6-0.4-0.6-0.9V0H44.3z"/>
	<path class="st13" d="M42.4,0v7c0,0.5-0.2,0.9-0.4,0.9c-0.2,0-0.4-0.4-0.4-0.9V0H42.4z"/>
</g>
<rect x="52.4" y="9.2" class="st14" width="11.8" height="2.1"/>
<rect x="40.6" y="9.2" class="st15" width="11.8" height="2.1"/>
<rect x="40.6" y="11.2" class="st3" width="11.8" height="2.9"/>
<rect x="52.4" y="11.2" class="st4" width="11.8" height="2.9"/>
<g>
	<defs>
		<rect id="SVGID_7_" y="0" width="106.2" height="126.9"/>
	</defs>
	<clipPath id="SVGID_8_">
		<use xlink:href="#SVGID_7_"  style="overflow:visible;"/>
	</clipPath>
	<path class="st16" d="M45.3,39.5v77.4c0,3.9,3.2,7.1,7.1,7.1V39.5H45.3z"/>
	<path class="st17" d="M52.4,39.5v84.5h0c3.9,0,7.1-3.2,7.1-7.1V39.5H52.4z"/>
</g>
<rect x="0.4" y="0" class="st10" width="11.4" height="11.2"/>
<rect x="11.8" y="0" class="st11" width="11.4" height="11.2"/>
<g>
	<defs>
		<rect id="SVGID_9_" y="0" width="106.2" height="126.9"/>
	</defs>
	<clipPath id="SVGID_10_">
		<use xlink:href="#SVGID_9_"  style="overflow:visible;"/>
	</clipPath>
	<path class="st18" d="M14,0v7c0,0.5-0.4,0.9-0.8,0.9c-0.4,0-0.8-0.4-0.8-0.9V0H14z"/>
	<path class="st18" d="M16.6,0v7c0,0.5-0.3,0.9-0.7,0.9c-0.4,0-0.7-0.4-0.7-0.9V0H16.6z"/>
	<path class="st18" d="M19,0v7c0,0.5-0.3,0.9-0.6,0.9c-0.4,0-0.7-0.4-0.7-0.9V0H19z"/>
	<path class="st18" d="M21,0v7c0,0.1,0,0.2,0,0.4c-0.1,0.3-0.3,0.5-0.5,0.5c-0.3,0-0.6-0.4-0.6-0.9V0H21z"/>
	<path class="st18" d="M22.6,0v7c0,0.5-0.2,0.9-0.4,0.9c-0.2,0-0.4-0.4-0.4-0.9V0H22.6z"/>
	<path class="st19" d="M11.2,0v7c0,0.5-0.4,0.9-0.8,0.9C10,7.9,9.6,7.5,9.6,7V0H11.2z"/>
	<path class="st19" d="M8.4,0v7c0,0.5-0.3,0.9-0.7,0.9C7.3,7.9,7,7.5,7,7V0H8.4z"/>
	<path class="st19" d="M6,0v7c0,0.5-0.3,0.9-0.6,0.9C4.9,7.9,4.7,7.5,4.7,7V0H6z"/>
	<path class="st19" d="M3.7,0v7c0,0.5-0.2,0.9-0.5,0.9C2.9,7.9,2.6,7.5,2.6,7V0H3.7z"/>
	<path class="st19" d="M1.8,0v7c0,0.5-0.2,0.9-0.4,0.9C1.2,7.9,1,7.5,1,7V0H1.8z"/>
</g>
<rect x="11.8" y="9.2" class="st14" width="11.8" height="2.1"/>
<rect x="0" y="9.2" class="st15" width="11.8" height="2.1"/>
<rect x="42.4" y="48.9" class="st20" width="10" height="46"/>
<rect x="52.4" y="48.9" class="st21" width="10" height="46"/>
<rect x="42.4" y="44.6" class="st22" width="10" height="4.4"/>
<rect x="52.3" y="44.6" class="st23" width="10" height="4.4"/>
<g>
	<defs>
		<rect id="SVGID_11_" y="0" width="106.2" height="126.9"/>
	</defs>
	<clipPath id="SVGID_12_">
		<use xlink:href="#SVGID_11_"  style="overflow:visible;"/>
	</clipPath>
	<path class="st24" d="M47.4,89.1c-0.2,0-0.4-0.2-0.4-0.4V55.2c0-0.2,0.2-0.4,0.4-0.4c0.2,0,0.4,0.2,0.4,0.4v33.5
		C47.8,88.9,47.6,89.1,47.4,89.1"/>
	<path class="st24" d="M57.4,89.1c-0.2,0-0.4-0.2-0.4-0.4V55.2c0-0.2,0.2-0.4,0.4-0.4c0.2,0,0.4,0.2,0.4,0.4v33.5
		C57.8,88.9,57.6,89.1,57.4,89.1"/>
	<path class="st24" d="M52.5,89.1c-0.2,0-0.4-0.2-0.4-0.4V55.2c0-0.2,0.2-0.4,0.4-0.4c0.2,0,0.4,0.2,0.4,0.4v33.5
		C52.8,88.9,52.7,89.1,52.5,89.1"/>
</g>
<rect x="1.8" y="48.9" class="st20" width="10" height="46"/>
<rect x="1.8" y="44.5" class="st22" width="10" height="4.4"/>
<g>
	<defs>
		<rect id="SVGID_13_" y="0" width="106.2" height="126.9"/>
	</defs>
	<clipPath id="SVGID_14_">
		<use xlink:href="#SVGID_13_"  style="overflow:visible;"/>
	</clipPath>
	<path class="st25" d="M6.8,89c-0.2,0-0.4-0.2-0.4-0.4V55.1c0-0.2,0.2-0.4,0.4-0.4c0.2,0,0.4,0.2,0.4,0.4v33.5
		C7.2,88.9,7.1,89,6.8,89"/>
	<path class="st25" d="M1.9,54.8c0.2,0,0.4,0.2,0.4,0.4v33.5c0,0.2-0.2,0.4-0.4,0.4"/>
	<path class="st26" d="M82.6,11.2v2.9h1.9v102.8c0,2.7,1.1,5.2,2.9,7c1.8,1.8,4.3,2.9,7,2.9c2.5,0,4.8-0.9,6.6-2.5
		c0.3-0.2,0.6-0.5,0.8-0.8c1.6-1.7,2.5-4,2.5-6.6V14.1h1.9v-2.9H82.6z"/>
	<path class="st27" d="M94.4,14.1v112.7c-2.5,0-4.8-0.9-6.6-2.5c-0.3-0.2-0.6-0.5-0.8-0.8c-1.6-1.7-2.5-4-2.5-6.6V14.1H94.4z"/>
	<path class="st28" d="M94.4,14.1v112.7c5.5,0,9.9-4.4,9.9-9.9V14.1H94.4z"/>
</g>
<rect x="82.6" y="11.2" class="st3" width="11.8" height="2.9"/>
<rect x="94.4" y="11.2" class="st4" width="11.8" height="2.9"/>
<g>
	<defs>
		<rect id="SVGID_15_" y="0" width="106.2" height="126.9"/>
	</defs>
	<clipPath id="SVGID_16_">
		<use xlink:href="#SVGID_15_"  style="overflow:visible;"/>
	</clipPath>
	<path class="st29" d="M87.3,69.4v47.5c0,3.9,3.2,7.1,7.1,7.1V69.4H87.3z"/>
	<path class="st30" d="M94.4,69.4v54.6c3.9,0,7.1-3.2,7.1-7.1V69.4H94.4z"/>
</g>
<rect x="83" y="0" class="st10" width="11.4" height="11.2"/>
<rect x="94.4" y="0" class="st11" width="11.4" height="11.2"/>
<g>
	<defs>
		<rect id="SVGID_17_" y="0" width="106.2" height="126.9"/>
	</defs>
	<clipPath id="SVGID_18_">
		<use xlink:href="#SVGID_17_"  style="overflow:visible;"/>
	</clipPath>
	<path class="st31" d="M96.6,0v7c0,0.5-0.4,0.9-0.8,0.9C95.4,7.9,95,7.4,95,7V0H96.6z"/>
	<path class="st31" d="M99.2,0v7c0,0.5-0.3,0.9-0.7,0.9c-0.4,0-0.7-0.4-0.7-0.9V0H99.2z"/>
	<path class="st31" d="M101.6,0v7c0,0.5-0.3,0.9-0.7,0.9c-0.4,0-0.6-0.4-0.6-0.9V0H101.6z"/>
	<path class="st31" d="M103.6,0v7c0,0.1,0,0.2,0,0.4c-0.1,0.3-0.3,0.5-0.5,0.5c-0.3,0-0.6-0.4-0.6-0.9V0H103.6z"/>
	<path class="st31" d="M105.2,0v7c0,0.5-0.2,0.9-0.4,0.9c-0.2,0-0.4-0.4-0.4-0.9V0H105.2z"/>
	<path class="st32" d="M93.8,0v7c0,0.5-0.4,0.9-0.8,0.9c-0.4,0-0.8-0.4-0.8-0.9V0H93.8z"/>
	<path class="st32" d="M91,0v7c0,0.5-0.3,0.9-0.7,0.9c-0.4,0-0.7-0.4-0.7-0.9V0H91z"/>
	<path class="st32" d="M88.6,0v7c0,0.5-0.3,0.9-0.7,0.9c-0.4,0-0.6-0.4-0.6-0.9V0H88.6z"/>
	<path class="st32" d="M86.3,0v7c0,0.5-0.2,0.9-0.5,0.9c-0.3,0-0.6-0.4-0.6-0.9V0H86.3z"/>
	<path class="st32" d="M84.4,0v7c0,0.5-0.2,0.9-0.4,0.9c-0.2,0-0.4-0.4-0.4-0.9V0H84.4z"/>
</g>
<rect x="94.4" y="9.2" class="st14" width="11.8" height="2.1"/>
<rect x="82.6" y="9.2" class="st15" width="11.8" height="2.1"/>
<rect x="94.4" y="48.9" class="st20" width="10" height="46"/>
<rect x="94.4" y="44.5" class="st22" width="10" height="4.4"/>
<g>
	<defs>
		<rect id="SVGID_19_" y="0" width="106.2" height="126.9"/>
	</defs>
	<clipPath id="SVGID_20_">
		<use xlink:href="#SVGID_19_"  style="overflow:visible;"/>
	</clipPath>
	<path class="st33" d="M99.4,89c0.2,0,0.4-0.2,0.4-0.4V55.1c0-0.2-0.2-0.4-0.4-0.4c-0.2,0-0.4,0.2-0.4,0.4v33.5
		C99,88.9,99.2,89,99.4,89"/>
	<path class="st33" d="M104.3,54.8c-0.2,0-0.4,0.2-0.4,0.4v33.5c0,0.2,0.2,0.4,0.4,0.4"/>
</g>
</svg>
