<?xml version="1.0" encoding="utf-8"?>
<!-- Generator: Adobe Illustrator 19.0.0, SVG Export Plug-In . SVG Version: 6.00 Build 0)  -->
<svg version="1.1" id="Layer_1" xmlns="http://www.w3.org/2000/svg" xmlns:xlink="http://www.w3.org/1999/xlink" x="0px" y="0px"
	 viewBox="0 0 68.4 106.7" style="enable-background:new 0 0 68.4 106.7;" xml:space="preserve">
<style type="text/css">
	.st0{clip-path:url(#XMLID_301_);fill:#EDEDED;}
	.st1{clip-path:url(#XMLID_301_);fill:#F9F7F7;}
	.st2{clip-path:url(#XMLID_301_);fill:#DAECF0;}
	.st3{clip-path:url(#XMLID_301_);fill:#C1DFE5;}
	.st4{clip-path:url(#XMLID_301_);fill:#E0E0E0;}
	.st5{fill:#F2EFEF;}
	.st6{clip-path:url(#XMLID_302_);fill:#EDEDED;}
	.st7{fill:#646363;}
	.st8{fill:#F9F7F7;}
	.st9{fill:#EA696D;}
	.st10{fill:#CEE6EC;}
	.st11{fill:#B0D3DC;}
	.st12{fill:#CE5D61;}
	.st13{clip-path:url(#XMLID_303_);fill:#EDEDED;}
</style>
<g id="XMLID_216_">
	<defs>
		<rect id="XMLID_217_" width="68.5" height="106.7"/>
	</defs>
	<clipPath id="XMLID_301_">
		<use xlink:href="#XMLID_217_"  style="overflow:visible;"/>
	</clipPath>
	<path id="XMLID_235_" class="st0" d="M2.8,0C1.3,0,0,1.3,0,2.8v12.8c0,1.6,1.3,2.8,2.8,2.8h31.4V0H2.8z"/>
	<path id="XMLID_234_" class="st1" d="M65.7,0H34.3v18.5h31.4c1.6,0,2.8-1.3,2.8-2.8V2.8C68.5,1.3,67.2,0,65.7,0"/>
	<path id="XMLID_233_" class="st2" d="M62.8,24.9h-0.1H34.3v81.8h28.4h0.1c3.1,0,5.7-2.5,5.7-5.7V30.6C68.5,27.4,66,24.9,62.8,24.9"
		/>
	<path id="XMLID_232_" class="st3" d="M34.3,24.9H5.8H5.7c-3.1,0-5.7,2.5-5.7,5.7V101c0,3.1,2.5,5.7,5.7,5.7h0.1h28.4V24.9z"/>
	<path id="XMLID_231_" class="st4" d="M3.5,15.8c0,0.4-0.3,0.7-0.7,0.7c-0.4,0-0.7-0.3-0.7-0.7V2.6c0-0.4,0.3-0.7,0.7-0.7
		c0.4,0,0.7,0.3,0.7,0.7V15.8z"/>
	<path id="XMLID_230_" class="st4" d="M8,15.8c0,0.4-0.3,0.7-0.7,0.7c-0.4,0-0.7-0.3-0.7-0.7V2.6c0-0.4,0.3-0.7,0.7-0.7
		C7.7,1.9,8,2.3,8,2.6V15.8z"/>
	<path id="XMLID_229_" class="st4" d="M12.5,15.8c0,0.4-0.3,0.7-0.7,0.7c-0.4,0-0.7-0.3-0.7-0.7V2.6c0-0.4,0.3-0.7,0.7-0.7
		c0.4,0,0.7,0.3,0.7,0.7V15.8z"/>
	<path id="XMLID_228_" class="st4" d="M17,15.8c0,0.4-0.3,0.7-0.7,0.7c-0.4,0-0.7-0.3-0.7-0.7V2.6c0-0.4,0.3-0.7,0.7-0.7
		c0.4,0,0.7,0.3,0.7,0.7V15.8z"/>
	<path id="XMLID_227_" class="st4" d="M21.5,15.8c0,0.4-0.3,0.7-0.7,0.7c-0.4,0-0.7-0.3-0.7-0.7V2.6c0-0.4,0.3-0.7,0.7-0.7
		c0.4,0,0.7,0.3,0.7,0.7V15.8z"/>
	<path id="XMLID_226_" class="st4" d="M26,15.8c0,0.4-0.3,0.7-0.7,0.7s-0.7-0.3-0.7-0.7V2.6c0-0.4,0.3-0.7,0.7-0.7S26,2.3,26,2.6
		V15.8z"/>
	<path id="XMLID_225_" class="st4" d="M30.5,15.8c0,0.4-0.3,0.7-0.7,0.7c-0.4,0-0.7-0.3-0.7-0.7V2.6c0-0.4,0.3-0.7,0.7-0.7
		c0.4,0,0.7,0.3,0.7,0.7V15.8z"/>
	<path id="XMLID_224_" class="st4" d="M34.9,15.8c0,0.4-0.3,0.7-0.7,0.7c-0.4,0-0.7-0.3-0.7-0.7V2.6c0-0.4,0.3-0.7,0.7-0.7
		c0.4,0,0.7,0.3,0.7,0.7V15.8z"/>
	<path id="XMLID_223_" class="st0" d="M39.4,15.8c0,0.4-0.3,0.7-0.7,0.7S38,16.2,38,15.8V2.6c0-0.4,0.3-0.7,0.7-0.7s0.7,0.3,0.7,0.7
		V15.8z"/>
	<path id="XMLID_222_" class="st0" d="M43.9,15.8c0,0.4-0.3,0.7-0.7,0.7c-0.4,0-0.7-0.3-0.7-0.7V2.6c0-0.4,0.3-0.7,0.7-0.7
		c0.4,0,0.7,0.3,0.7,0.7V15.8z"/>
	<path id="XMLID_221_" class="st0" d="M48.4,15.8c0,0.4-0.3,0.7-0.7,0.7c-0.4,0-0.7-0.3-0.7-0.7V2.6c0-0.4,0.3-0.7,0.7-0.7
		c0.4,0,0.7,0.3,0.7,0.7V15.8z"/>
	<path id="XMLID_220_" class="st0" d="M52.9,15.8c0,0.4-0.3,0.7-0.7,0.7c-0.4,0-0.7-0.3-0.7-0.7V2.6c0-0.4,0.3-0.7,0.7-0.7
		c0.4,0,0.7,0.3,0.7,0.7V15.8z"/>
	<path id="XMLID_219_" class="st0" d="M57.4,15.8c0,0.4-0.3,0.7-0.7,0.7c-0.4,0-0.7-0.3-0.7-0.7V2.6c0-0.4,0.3-0.7,0.7-0.7
		c0.4,0,0.7,0.3,0.7,0.7V15.8z"/>
	<path id="XMLID_218_" class="st0" d="M61.9,15.8c0,0.4-0.3,0.7-0.7,0.7c-0.4,0-0.7-0.3-0.7-0.7V2.6c0-0.4,0.3-0.7,0.7-0.7
		c0.4,0,0.7,0.3,0.7,0.7V15.8z"/>
</g>
<rect id="XMLID_215_" x="5.8" y="47.2" class="st5" width="28.4" height="43.4"/>
<g id="XMLID_212_">
	<defs>
		<rect id="XMLID_213_" width="68.5" height="106.7"/>
	</defs>
	<clipPath id="XMLID_302_">
		<use xlink:href="#XMLID_213_"  style="overflow:visible;"/>
	</clipPath>
	<path id="XMLID_214_" class="st6" d="M66.3,15.8c0,0.4-0.3,0.7-0.7,0.7c-0.4,0-0.7-0.3-0.7-0.7V2.6c0-0.4,0.3-0.7,0.7-0.7
		c0.4,0,0.7,0.3,0.7,0.7V15.8z"/>
</g>
<path id="XMLID_209_" class="st7" d="M61.8,90.5h-55V47.2h55V90.5z M5.3,92h57.9V45.7H5.3V92z"/>
<rect id="XMLID_208_" x="34.2" y="47.2" class="st8" width="27.5" height="43.4"/>
<rect id="XMLID_207_" x="33.2" y="50" class="st9" width="20.2" height="7.6"/>
<rect id="XMLID_206_" x="9.4" y="62.5" class="st7" width="49.8" height="2.8"/>
<rect id="XMLID_205_" x="9.4" y="69.7" class="st7" width="49.8" height="2.8"/>
<rect id="XMLID_204_" x="9.4" y="77" class="st7" width="49.8" height="2.8"/>
<rect id="XMLID_203_" x="9.4" y="84.3" class="st7" width="49.8" height="2.8"/>
<rect id="XMLID_202_" x="34.3" y="18.5" class="st10" width="28.4" height="6.4"/>
<rect id="XMLID_201_" x="5.8" y="18.5" class="st11" width="28.4" height="6.4"/>
<rect id="XMLID_200_" x="15" y="50" class="st12" width="19.2" height="7.6"/>
<g id="XMLID_197_">
	<defs>
		<rect id="XMLID_198_" width="68.5" height="106.7"/>
	</defs>
	<clipPath id="XMLID_303_">
		<use xlink:href="#XMLID_198_"  style="overflow:visible;"/>
	</clipPath>
	<path id="XMLID_199_" class="st13" d="M34.2,1.9c0.4,0,0.7,0.3,0.7,0.7v13.2c0,0.4-0.3,0.7-0.7,0.7"/>
</g>
</svg>
