<?xml version="1.0" encoding="utf-8"?>
<!-- Generator: Adobe Illustrator 19.0.0, SVG Export Plug-In . SVG Version: 6.00 Build 0)  -->
<svg version="1.1" id="Layer_1" xmlns="http://www.w3.org/2000/svg" xmlns:xlink="http://www.w3.org/1999/xlink" x="0px" y="0px"
	 viewBox="0 0 123.1 127.3" style="enable-background:new 0 0 123.1 127.3;" xml:space="preserve">
<style type="text/css">
	.st0{clip-path:url(#XMLID_486_);fill:#CDCCCC;}
	.st1{clip-path:url(#XMLID_486_);fill:#FBD858;}
	.st2{fill:#CFD1D1;}
	.st3{clip-path:url(#XMLID_487_);fill:#ECCB53;}
	.st4{clip-path:url(#XMLID_487_);fill:#F9F7F7;}
	.st5{clip-path:url(#XMLID_487_);fill:#C1DFE5;}
	.st6{clip-path:url(#XMLID_487_);fill:#A3CDDE;}
	.st7{clip-path:url(#XMLID_487_);fill:#DAECF0;}
	.st8{clip-path:url(#XMLID_487_);fill:#41464E;}
	.st9{clip-path:url(#XMLID_487_);fill:#55585F;}
</style>
<g>
	<defs>
		<rect id="XMLID_455_" width="123.1" height="127.3"/>
	</defs>
	<clipPath id="XMLID_486_">
		<use xlink:href="#XMLID_455_"  style="overflow:visible;"/>
	</clipPath>
	<path class="st0" d="M40.7,7.7c-7.9,0-15.8,2.8-22.1,8.5C5,28.4,3.9,49.3,16.2,62.9c6.5,7.2,15.5,10.9,24.6,10.9
		c7.9,0,15.8-2.8,22.2-8.5c13.6-12.2,14.7-33.2,2.4-46.7C58.8,11.3,49.8,7.7,40.7,7.7 M40.7,73.8c-17.9,0-32.6-14.2-33-32.2
		C7.2,23.4,21.6,8.2,39.9,7.7c0.3,0,0.6,0,0.9,0c17.9,0,32.6,14.2,33,32.2c0.5,18.3-13.9,33.5-32.2,33.9
		C41.3,73.8,41,73.8,40.7,73.8"/>
	<path id="XMLID_456_" class="st1" d="M67.4,67.9c-1.3,1.1-1.2,3-2.6,3.9l10.7,11.3l6.8-6.3L72.3,66C71.1,67.6,69,66.5,67.4,67.9"/>
</g>
<path id="XMLID_454_" class="st2" d="M0.3,0.4L0,0L0.3,0.4z"/>
<g>
	<defs>
		<rect id="XMLID_443_" width="123.1" height="127.3"/>
	</defs>
	<clipPath id="XMLID_487_">
		<use xlink:href="#XMLID_443_"  style="overflow:visible;"/>
	</clipPath>
	<path id="XMLID_453_" class="st3" d="M72.5,66.2c-1.4,1.7-2.9,3.3-4.5,4.8c-0.7,0.6-1.4,1.2-2.2,1.8l3.4,3.6
		c0.7-0.6,1.4-1.1,2.1-1.8c1.7-1.5,3.2-3.1,4.6-4.8l-0.3-0.4L72.5,66.2z"/>
	<path class="st4" d="M62.9,65.3c-13.6,12.2-34.5,11.1-46.7-2.4C3.9,49.3,5,28.4,18.6,16.2C32.2,3.9,53.1,5,65.3,18.6
		C77.6,32.2,76.5,53.1,62.9,65.3 M71,13.5C56-3.2,30.2-4.6,13.5,10.5C-3.2,25.5-4.6,51.3,10.5,68C25.5,84.7,51.3,86.1,68,71
		C84.7,56,86.1,30.2,71,13.5"/>
	<path class="st5" d="M40.7,12.2c-6.8,0-13.6,2.4-19.1,7.3C10,30.1,9,48.1,19.6,59.8c5.6,6.2,13.4,9.4,21.2,9.4
		c6.8,0,13.6-2.4,19.1-7.3c11.7-10.5,12.6-28.6,2.1-40.3C56.3,15.4,48.5,12.2,40.7,12.2 M16.8,42.3c0-0.2,0-0.4-0.1-0.7
		C16.5,30.3,23.7,20.5,34,17l5.4,16c-3.4,1.2-5.9,4.4-5.8,8.3c0,0.1,0,0.2,0,0.2L16.8,42.3z"/>
	<path class="st6" d="M40.8,7.7c-0.3,0-0.6,0-0.9,0C21.6,8.2,7.2,23.4,7.7,41.6c0.5,18,15.2,32.2,33,32.2c0.3,0,0.6,0,0.9,0
		c18.3-0.5,32.7-15.7,32.2-33.9C73.3,21.9,58.6,7.7,40.8,7.7 M40.7,69.3c-7.8,0-15.6-3.2-21.2-9.4C9,48.1,10,30.1,21.7,19.6
		c5.4-4.9,12.3-7.3,19.1-7.3c7.8,0,15.6,3.2,21.2,9.4c10.5,11.7,9.6,29.7-2.1,40.3C54.4,66.8,47.6,69.3,40.7,69.3"/>
	<path id="XMLID_446_" class="st7" d="M34,17c-10.2,3.5-17.5,13.3-17.2,24.7c0,0.2,0,0.5,0.1,0.7l16.8-0.9c0-0.1,0-0.2,0-0.2
		c-0.1-3.8,2.4-7.1,5.8-8.3L34,17z"/>
	<path id="XMLID_445_" class="st8" d="M122,119.1l-8,7.3c-1.4,1.2-3.5,1.1-4.8-0.2L72.5,85.9c-1.2-1.4-1.1-3.5,0.2-4.8l8-7.3
		c1.4-1.2,3.5-1.1,4.8,0.2l36.7,40.3C123.5,115.7,123.4,117.9,122,119.1"/>
	<path id="XMLID_444_" class="st9" d="M122.2,114.4L85.5,74c-1.2-1.4-3.4-1.5-4.8-0.2L77,77.2l40.9,45.6l4.1-3.7
		C123.4,117.9,123.5,115.7,122.2,114.4"/>
</g>
</svg>
