<?xml version="1.0" encoding="utf-8"?>
<!-- Generator: Adobe Illustrator 19.0.0, SVG Export Plug-In . SVG Version: 6.00 Build 0)  -->
<svg version="1.1" id="Layer_1" xmlns="http://www.w3.org/2000/svg" xmlns:xlink="http://www.w3.org/1999/xlink" x="0px" y="0px"
	 viewBox="0 0 81.7 139.8" style="enable-background:new 0 0 81.7 139.8;" xml:space="preserve">
<style type="text/css">
	.st0{clip-path:url(#XMLID_542_);fill:#282523;}
	.st1{clip-path:url(#XMLID_542_);fill:#878787;}
	.st2{clip-path:url(#XMLID_542_);fill:#4A4745;}
	.st3{clip-path:url(#XMLID_542_);fill:#F9F7F7;}
	.st4{clip-path:url(#XMLID_542_);fill:#646363;}
	.st5{fill:#DAECF0;}
	.st6{fill:#A3CDDE;}
	.st7{clip-path:url(#XMLID_543_);fill:#EA696D;}
	.st8{fill:#FFFFFF;}
	.st9{clip-path:url(#XMLID_544_);fill:#EA696D;}
	.st10{clip-path:url(#XMLID_545_);fill:#EA696D;}
</style>
<g id="XMLID_443_">
	<g>
		<defs>
			<rect id="XMLID_519_" width="81.7" height="139.1"/>
		</defs>
		<clipPath id="XMLID_542_">
			<use xlink:href="#XMLID_519_"  style="overflow:visible;"/>
		</clipPath>
		<path id="XMLID_527_" class="st0" d="M5.8,32.6C5.8,33,5.5,33.4,5,33.5l-2.6,0.3c-0.4,0.1-0.9-0.3-0.9-0.7L0.3,22.8
			C0.2,22.4,0.5,22,1,21.9l2.6-0.3c0.4-0.1,0.9,0.3,0.9,0.7L5.8,32.6z"/>
		<path id="XMLID_526_" class="st1" d="M60.5,3.3c0.1,0.4-0.3,0.9-0.7,0.9L49.5,5.5c-0.4,0.1-0.9-0.3-0.9-0.7l-0.3-2.6
			c-0.1-0.4,0.3-0.9,0.7-0.9L59.2,0c0.4-0.1,0.9,0.3,0.9,0.7L60.5,3.3z"/>
		<path id="XMLID_525_" class="st0" d="M7.3,45.5c0.1,0.4-0.3,1-0.7,1l-2.4,0.3c-0.4,0.1-1-0.3-1.1-0.8L1.9,35.9
			c-0.1-0.4,0.4-0.9,0.9-1l2.4-0.3c0.4-0.1,0.9,0.3,0.9,0.8L7.3,45.5z"/>
		<path id="XMLID_524_" class="st2" d="M81.6,125.2c0.4,3.6-2.1,6.8-5.7,7.3l-54.1,6.6c-3.6,0.4-6.8-2.1-7.3-5.7L0,14.6
			C-0.4,11,2.1,7.8,5.7,7.4l54.1-6.6c3.6-0.4,6.8,2.1,7.3,5.7L81.6,125.2z"/>
		<path id="XMLID_523_" class="st0" d="M43.1,10c0.1,0.4-0.2,1-0.7,1.1l-17,2.1c-0.4,0.1-0.9-0.4-0.9-0.9c-0.1-0.4,0.2-1,0.7-1.1
			l17-2.1C42.6,9,43,9.5,43.1,10"/>
		<path id="XMLID_522_" class="st0" d="M57,130.5c0.1,0.4-0.4,0.8-0.9,0.8l-14.9,1.8c-0.4,0.1-1-0.1-1-0.6l-0.7-5.4
			c-0.1-0.4,0.4-0.9,0.8-0.9l14.9-1.8c0.4-0.1,1,0.2,1.1,0.7L57,130.5z"/>
		<path id="XMLID_521_" class="st3" d="M20.1,12.8c0.1,0.6-0.4,1.2-1,1.3c-0.6,0.1-1.2-0.4-1.3-1c-0.1-0.6,0.4-1.2,1-1.3
			C19.5,11.7,20,12.1,20.1,12.8"/>
		<path id="XMLID_520_" class="st4" d="M2.6,35.1l12.1,98.3c0.4,3.6,3.7,6.1,7.3,5.7l17.3-2.1L2.6,35.1z"/>
	</g>
	
		<rect id="XMLID_518_" x="11.3" y="17.4" transform="matrix(0.9925 -0.1219 0.1219 0.9925 -8.2076 5.5211)" class="st5" width="59.4" height="104.9"/>
	
		<rect id="XMLID_517_" x="-11.4" y="40.2" transform="matrix(-0.1219 -0.9925 0.9925 -0.1219 -23.3071 119.1015)" class="st5" width="104.9" height="59.4"/>
	
		<rect id="XMLID_516_" x="32.4" y="30.7" transform="matrix(0.9925 -0.1219 0.1219 0.9925 -3.5753 4.8178)" class="st6" width="10.4" height="2"/>
	
		<rect id="XMLID_515_" x="32.9" y="34.4" transform="matrix(0.9925 -0.1219 0.1219 0.9925 -3.9642 6.0434)" class="st6" width="29" height="2"/>
	
		<rect id="XMLID_514_" x="33.5" y="39.2" transform="matrix(0.9925 -0.1219 0.1219 0.9925 -4.5443 6.1509)" class="st6" width="29" height="2"/>
	
		<rect id="XMLID_513_" x="34.1" y="44" transform="matrix(0.9925 -0.1219 0.1219 0.9925 -5.1245 6.2584)" class="st6" width="29" height="2"/>
	
		<rect id="XMLID_512_" x="36.4" y="62.7" transform="matrix(0.9925 -0.1219 0.1219 0.9925 -7.3861 6.6776)" class="st6" width="29" height="2"/>
	
		<rect id="XMLID_511_" x="37" y="67.5" transform="matrix(0.9925 -0.1219 0.1219 0.9925 -7.9662 6.7851)" class="st6" width="29" height="2"/>
	
		<rect id="XMLID_510_" x="37.6" y="72.3" transform="matrix(0.9925 -0.1219 0.1219 0.9925 -8.5463 6.8926)" class="st6" width="29" height="2"/>
	
		<rect id="XMLID_509_" x="39.9" y="90.9" transform="matrix(0.9925 -0.1219 0.1219 0.9925 -10.7983 7.31)" class="st6" width="29" height="2"/>
	
		<rect id="XMLID_508_" x="40.5" y="95.7" transform="matrix(0.9925 -0.1219 0.1219 0.9925 -11.3784 7.4175)" class="st6" width="29" height="2"/>
	
		<rect id="XMLID_455_" x="41" y="100.5" transform="matrix(0.9925 -0.1219 0.1219 0.9925 -11.9586 7.5251)" class="st6" width="29" height="2"/>
	
		<rect id="XMLID_454_" x="35.9" y="58.9" transform="matrix(0.9925 -0.1219 0.1219 0.9925 -6.9931 5.4513)" class="st6" width="10.4" height="2"/>
	
		<rect id="XMLID_453_" x="39.3" y="87.2" transform="matrix(0.9925 -0.1219 0.1219 0.9925 -10.4108 6.0848)" class="st6" width="10.4" height="2"/>
	<g>
		<defs>
			<rect id="XMLID_451_" width="81.7" height="139.1"/>
		</defs>
		<clipPath id="XMLID_543_">
			<use xlink:href="#XMLID_451_"  style="overflow:visible;"/>
		</clipPath>
		<path id="XMLID_452_" class="st7" d="M28.5,40.1c0.6,4.5-2.7,8.7-7.2,9.2s-8.7-2.7-9.2-7.2c-0.6-4.5,2.7-8.7,7.2-9.2
			C23.8,32.3,27.9,35.6,28.5,40.1"/>
	</g>
	<polygon id="XMLID_450_" class="st8" points="19.9,45.7 14.6,41.8 16.2,39.7 19.4,42.1 23.5,36.6 25.6,38.1 	"/>
	<g>
		<defs>
			<rect id="XMLID_448_" width="81.7" height="139.1"/>
		</defs>
		<clipPath id="XMLID_544_">
			<use xlink:href="#XMLID_448_"  style="overflow:visible;"/>
		</clipPath>
		<path id="XMLID_449_" class="st9" d="M35.4,96.4c0.6,4.5-2.7,8.7-7.2,9.2c-4.5,0.6-8.7-2.7-9.2-7.2c-0.6-4.5,2.7-8.7,7.2-9.2
			C30.7,88.6,34.8,91.8,35.4,96.4"/>
	</g>
	<polygon id="XMLID_447_" class="st8" points="26.8,102 21.6,98 23.1,96 26.3,98.4 30.4,92.9 32.5,94.4 	"/>
	<g>
		<defs>
			<rect id="XMLID_445_" width="81.7" height="139.1"/>
		</defs>
		<clipPath id="XMLID_545_">
			<use xlink:href="#XMLID_445_"  style="overflow:visible;"/>
		</clipPath>
		<path id="XMLID_446_" class="st10" d="M31.9,67.5c0.6,4.5-2.7,8.7-7.2,9.2c-4.5,0.6-8.7-2.7-9.2-7.2c-0.6-4.5,2.7-8.7,7.2-9.2
			C27.2,59.8,31.3,63,31.9,67.5"/>
	</g>
	<polygon id="XMLID_444_" class="st8" points="23.3,73.1 18,69.2 19.6,67.1 22.8,69.5 26.9,64 29,65.6 	"/>
</g>
</svg>
