<?xml version="1.0" encoding="utf-8"?>
<!-- Generator: Adobe Illustrator 19.0.0, SVG Export Plug-In . SVG Version: 6.00 Build 0)  -->
<svg version="1.1" id="Layer_1" xmlns="http://www.w3.org/2000/svg" xmlns:xlink="http://www.w3.org/1999/xlink" x="0px" y="0px"
	 viewBox="0 0 31.1 31.2" style="enable-background:new 0 0 31.1 31.2;" xml:space="preserve">
<style type="text/css">
	.st0{clip-path:url(#XMLID_85_);fill:#6FC3BE;}
</style>
<g id="XMLID_57_">
	<defs>
		<rect id="XMLID_53_" x="0" width="31.2" height="31.1"/>
	</defs>
	<clipPath id="XMLID_85_">
		<use xlink:href="#XMLID_53_"  style="overflow:visible;"/>
	</clipPath>
	<path id="XMLID_59_" class="st0" d="M23.3,12c-0.3,0.3-0.6,0.5-0.9,0.8v0.4c0,1.1-0.2,2.1-0.6,3.2c-0.4,1.1-1,2-1.7,2.9
		c-0.8,0.9-1.7,1.6-2.8,2.1c-1.1,0.5-2.4,0.8-3.9,0.8c-0.9,0-1.7-0.1-2.6-0.4c-0.8-0.3-1.6-0.6-2.3-1h0.8c1.5,0,2.8-0.4,3.9-1.3
		c-0.7,0-1.3-0.3-1.9-0.7c-0.5-0.4-0.9-0.9-1.1-1.6c0.2,0.1,0.4,0.1,0.5,0.1c0.2,0,0.3,0,0.5,0c0.1,0,0.3,0,0.4-0.1
		C11,17,10.5,16.7,10,16.1c-0.5-0.6-0.7-1.2-0.7-2v0c0.4,0.2,0.9,0.4,1.4,0.4c-0.9-0.6-1.4-1.4-1.4-2.6c0-0.6,0.1-1.1,0.4-1.6
		c0.8,1,1.8,1.8,2.9,2.4c1.1,0.6,2.3,0.9,3.7,1c-0.1-0.3-0.1-0.5-0.1-0.7c0-0.9,0.3-1.6,0.9-2.3c0.6-0.6,1.4-0.9,2.2-0.9
		c0.5,0,0.9,0.1,1.3,0.3c0.4,0.2,0.7,0.4,1,0.8c0.4-0.1,0.7-0.2,1.1-0.3s0.7-0.3,1-0.4c-0.1,0.4-0.3,0.7-0.6,1
		c-0.2,0.3-0.5,0.5-0.8,0.8c0.3-0.1,0.6-0.1,0.9-0.2s0.6-0.2,0.9-0.3C23.8,11.4,23.6,11.7,23.3,12 M9.5,1.2C7.6,2,6,3.1,4.6,4.5
		C3.1,6,2,7.6,1.2,9.5C0.4,11.4,0,13.4,0,15.6c0,2.2,0.4,4.2,1.2,6.1c0.8,1.9,1.9,3.5,3.3,4.9c1.4,1.4,3.1,2.5,5,3.3
		c1.9,0.8,3.9,1.2,6.1,1.2c2.2,0,4.2-0.4,6.1-1.2c1.9-0.8,3.5-1.9,4.9-3.3c1.4-1.4,2.5-3.1,3.3-4.9c0.8-1.9,1.2-3.9,1.2-6.1
		c0-2.2-0.4-4.2-1.2-6.1C29.2,7.6,28,6,26.6,4.5c-1.4-1.4-3.1-2.5-4.9-3.3C19.8,0.4,17.8,0,15.6,0C13.5,0,11.4,0.4,9.5,1.2"/>
</g>
</svg>
