<?xml version="1.0" encoding="utf-8"?>
<!-- Generator: Adobe Illustrator 19.0.0, SVG Export Plug-In . SVG Version: 6.00 Build 0)  -->
<svg version="1.1" id="Layer_1" xmlns="http://www.w3.org/2000/svg" xmlns:xlink="http://www.w3.org/1999/xlink" x="0px" y="0px"
	 viewBox="0 0 42.3 34.4" style="enable-background:new 0 0 42.3 34.4;" xml:space="preserve">
<style type="text/css">
	.st0{clip-path:url(#SVGID_2_);fill:#FFFFFF;}
</style>
<g>
	<defs>
		<rect id="SVGID_1_" x="0" y="0" width="42.3" height="34.4"/>
	</defs>
	<clipPath id="SVGID_2_">
		<use xlink:href="#SVGID_1_"  style="overflow:visible;"/>
	</clipPath>
	<path class="st0" d="M39.9,5c-0.8,0.2-1.7,0.4-2.6,0.5c1.8-1.2,3-2.7,3.8-4.8c-0.8,0.4-1.7,0.8-2.7,1.2c-1,0.4-1.9,0.6-2.9,0.8
		c-0.8-0.8-1.8-1.5-2.8-2C31.7,0.3,30.5,0,29.2,0c-1.2,0-2.3,0.2-3.3,0.7c-1,0.5-1.9,1.1-2.7,1.9c-0.8,0.8-1.4,1.7-1.9,2.8
		c-0.5,1.1-0.7,2.2-0.7,3.4c0,0.7,0.1,1.3,0.2,1.9c-3.6-0.1-6.9-1-10-2.6C7.7,6.4,5.1,4.3,3,1.6C2.2,3,1.8,4.4,1.8,6
		c0,1.5,0.3,2.9,1,4.2c0.7,1.2,1.6,2.3,2.9,3c-0.8,0-1.5-0.1-2.2-0.3c-0.6-0.2-1.3-0.4-1.8-0.7v0.1c0,2.1,0.7,3.9,2,5.5
		c1.3,1.6,3,2.6,5,3c-0.4,0.1-0.8,0.2-1.1,0.2C7.2,21,6.8,21,6.3,21c-0.5,0-1-0.1-1.6-0.2c0.5,1.7,1.5,3.2,3,4.3
		c1.5,1.1,3.2,1.7,5.1,1.8c-3,2.4-6.6,3.7-10.7,3.7H1c-0.3,0-0.7,0-1-0.1c2,1.2,4.1,2.2,6.3,2.9c2.2,0.7,4.6,1,7,1
		c4,0,7.5-0.7,10.5-2.2c3-1.5,5.6-3.4,7.7-5.8s3.7-5,4.8-8c1.1-3,1.6-5.9,1.6-8.7v-1c1.7-1.3,3.2-2.9,4.3-4.5
		C41.5,4.4,40.7,4.7,39.9,5"/>
</g>
</svg>
