<?xml version="1.0" encoding="utf-8"?>
<!-- Generator: Adobe Illustrator 19.0.0, SVG Export Plug-In . SVG Version: 6.00 Build 0)  -->
<svg version="1.1" id="Layer_1" xmlns="http://www.w3.org/2000/svg" xmlns:xlink="http://www.w3.org/1999/xlink" x="0px" y="0px"
	 viewBox="0 0 177.2 133.5" style="enable-background:new 0 0 177.2 133.5;" xml:space="preserve">
<style type="text/css">
	.st0{clip-path:url(#SVGID_2_);fill:#55585F;}
	.st1{clip-path:url(#SVGID_2_);fill:#41464E;}
	.st2{clip-path:url(#SVGID_2_);fill:#EDEDED;}
	
		.st3{clip-path:url(#SVGID_2_);fill:none;stroke:#DAECF0;stroke-width:2;stroke-linecap:round;stroke-linejoin:round;stroke-miterlimit:10;}
	.st4{clip-path:url(#SVGID_2_);fill:#DAECF0;}
	.st5{clip-path:url(#SVGID_2_);fill:#A3CDDE;}
	.st6{clip-path:url(#SVGID_2_);fill:#69A3C8;}
	.st7{clip-path:url(#SVGID_2_);fill:none;stroke:#A6539B;stroke-width:0.947;stroke-linecap:round;}
	.st8{clip-path:url(#SVGID_2_);fill:#F7BEC0;}
	.st9{clip-path:url(#SVGID_2_);fill:#EA696D;}
	.st10{clip-path:url(#SVGID_2_);fill:#CE5D61;}
</style>
<g>
	<defs>
		<rect id="SVGID_1_" y="0" width="177.2" height="133.5"/>
	</defs>
	<clipPath id="SVGID_2_">
		<use xlink:href="#SVGID_1_"  style="overflow:visible;"/>
	</clipPath>
	<path class="st0" d="M83.9,52.2c-1.5-0.6-4,1-5.1,4.1c0,0.1,0,0.1-0.1,0.2c-2.1-0.7-5.4-2.3-6.4-2.8c0.5-1.7,0.9-3.5,1.1-5.3
		c0.6-4.3,0.5-8.6-0.4-12.6c2.3-0.3,4.5-0.8,5.9-1.1c0.7,2,2,3.2,3.2,3.1c1.6-0.1,3.3-0.8,2.9-5.7c-0.3-4.4-2.1-5.5-3.7-5.4
		c-1.6,0.1-3.1,2.6-2.9,5.9c0,0.1,0,0.1,0,0.2c-1.9,0.2-4.7,0.2-6.3,0.2c-1.5-4.9-4.3-9.3-8.4-12.7c1.1-1.9,2-4,2.6-5.4
		c2,0.6,3.8,0.3,4.4-0.8c0.9-1.4,1.3-3.1-2.9-5.8c-3.7-2.3-5.7-1.6-6.6-0.3c-0.9,1.4,0.3,4.1,3,5.8c0,0,0.1,0.1,0.2,0.1
		c-0.8,1.3-2.1,3.2-3,4.5c-4.3-2.9-9.7-5-16.5-5.9c-1-0.1-2-0.2-3-0.3c0.1-2.1,0.1-4.2,0-5.5c2.1-0.3,3.5-1.4,3.7-2.6
		c0.2-1.6-0.2-3.4-5-4c-4.3-0.6-5.8,0.9-6,2.5c-0.2,1.6,2,3.6,5.2,4c0.1,0,0.1,0,0.2,0c-0.1,1.6-0.5,3.8-0.8,5.4
		c-7.8,0-13.5,2.4-17.5,6.4c-1.6-1.9-3.5-3.7-4.7-4.8c1.3-1.7,1.5-3.5,0.8-4.4c-1-1.3-2.5-2.2-6.4,0.8C8,12.8,8,14.9,9,16.2
		c1,1.3,3.9,1.1,6.5-0.9c0,0,0.1-0.1,0.1-0.1c1.4,1.7,3.4,4.6,4.1,5.6c-3.1,4-5,9-6.2,14.7c-2.5-0.3-5.3-0.2-6.9-0.2
		c-0.3-2.1-1.3-3.5-2.5-3.7c-1.6-0.2-3.4,0.1-4,5c-0.6,4.3,0.9,5.8,2.5,6.1c1.6,0.2,3.6-1.9,4-5.2c0-0.1,0-0.1,0-0.2
		c1.9,0.2,4.9,0.8,6.3,1c-0.1,0.6-0.2,1.1-0.2,1.7c-0.7,5-0.4,9.8,0.8,14.2c-2.2,0.8-4.4,2-5.7,2.8c-1.2-1.7-2.8-2.6-3.9-2.2
		c-1.5,0.5-2.9,1.6-1.3,6.3C4,65.3,6,66,7.5,65.5C9,65,9.9,62.1,8.8,59.1c0-0.1,0-0.1-0.1-0.2c1.6-0.6,4.2-1.4,5.7-1.8
		c1.8,4.8,4.9,9,9.4,12.2c-1.4,2-2.6,4.4-3.2,5.9c-2-0.7-3.8-0.5-4.5,0.5c-0.9,1.3-1.4,3,2.6,5.9c3.6,2.5,5.6,1.9,6.5,0.6
		c0.9-1.3,0-4.1-2.7-6c0,0-0.1-0.1-0.1-0.1c1.1-1.7,3-4.1,3.9-5.2c4.1,2.4,9,4,15,4.8c0.1,0,0.1,0,0.2,0c0,2.6,0.5,5.3,0.8,7
		c-2,0.6-3.3,1.8-3.3,3c0,1.6,0.6,3.3,5.5,3.3c4.4,0,5.7-1.7,5.6-3.3c0-1.6-2.4-3.3-5.7-3.3c-0.1,0-0.1,0-0.2,0
		c-0.1-2,0.1-5,0.1-6.5c5.1,0,10-1.5,14.3-4.2c1.1,2,2.6,4,3.5,5.2c-1.6,1.4-2.1,3.1-1.6,4.2c0.7,1.4,2,2.7,6.4,0.4
		c3.9-2,4.3-4.1,3.5-5.5c-0.7-1.4-3.6-1.8-6.5-0.4c-0.1,0-0.1,0.1-0.2,0.1c-0.9-1.7-2.1-4.3-2.7-5.7c4.3-3.4,7.8-8.1,10-13.6
		c2.4,0.9,5.2,1.6,6.9,1.9c-0.2,2.1,0.5,3.8,1.6,4.2c1.5,0.6,3.3,0.7,5.1-3.9C86.5,54.6,85.3,52.7,83.9,52.2"/>
	<path class="st1" d="M43.3,60.8c-0.6,4.4-5.1,7-7.2,6.7c-2.5-0.3-5.8-4-5.2-8.3c0.6-4.4,4-7.1,7.2-6.7
		C41.3,52.9,43.9,56.4,43.3,60.8"/>
	<path class="st1" d="M63.5,59.6c-0.5,3.8-4.4,6.1-6.3,5.9c-2.2-0.3-5.1-3.5-4.6-7.3c0.5-3.8,3.5-6.2,6.3-5.9
		C61.8,52.7,64,55.8,63.5,59.6"/>
	<path class="st1" d="M63.5,38.5c-0.5,4-4.3,6.5-6.1,6.2c-2.1-0.3-4.8-3.6-4.3-7.6s3.4-6.6,6.1-6.2C61.9,31.3,64,34.5,63.5,38.5"/>
	<path class="st1" d="M47,42.8c-0.4,2.9-3.3,4.7-4.6,4.5c-1.6-0.2-3.7-2.6-3.3-5.5c0.4-2.9,2.6-4.8,4.6-4.5
		C45.8,37.5,47.4,39.9,47,42.8"/>
	<path class="st1" d="M37,32.5c-0.8,6.1-6.5,9.9-9.1,9.5c-3.1-0.4-7.2-5.5-6.4-11.6c0.8-6.1,5.2-10,9.1-9.5
		C34.6,21.4,37.8,26.4,37,32.5"/>
	<path class="st2" d="M37.4,59.7c-0.1,0.9-1,1.5-1.5,1.4c-0.6-0.1-1.3-0.9-1.1-1.8c0.1-0.9,1.1-1.5,1.7-1.4
		C37,57.9,37.5,58.8,37.4,59.7"/>
	<path class="st2" d="M57.3,58.3c0.2,0.8-0.3,1.7-0.8,1.9c-0.6,0.2-1.5-0.3-1.8-1.2c-0.2-0.8,0.4-1.8,1-2
		C56.2,56.8,57,57.4,57.3,58.3"/>
	<path class="st2" d="M43.3,43c-0.5,0.7-1.5,0.9-2,0.6c-0.5-0.3-0.7-1.4-0.2-2.1c0.5-0.7,1.7-0.9,2.2-0.5
		C43.7,41.2,43.8,42.2,43.3,43"/>
	<path class="st2" d="M57.7,39.6c-0.4,0.8-1.4,1.1-1.9,0.8c-0.5-0.3-0.9-1.3-0.5-2.1c0.4-0.8,1.5-1.1,2.1-0.8
		C57.9,37.8,58.1,38.8,57.7,39.6"/>
	<path class="st2" d="M28.6,31c-0.7,0.5-1.8,0.2-2.1-0.3c-0.3-0.5-0.1-1.6,0.7-2c0.7-0.5,1.9-0.1,2.2,0.4
		C29.7,29.5,29.3,30.5,28.6,31"/>
	<path class="st3" d="M83.4,98.4c0,0-0.5-0.7-1.6-0.9c-1.1-0.2-2.5-1.8-2.5-2.7 M90.2,121.5c0,0-0.7,0.4-1,1.5
		c-0.3,1.1-2,2.3-2.9,2.2 M121.5,122.7c0,0-1.3,2.5-0.2,3.8c1.2,1.3,2.2,4.9,0.2,6 M161.5,105.1c0,0,1.3,3.3,3.3,2.8
		c2-0.5,4.1-1.5,4.9-0.8c0.8,0.7,0.6,2.2,0.6,2.2 M176.2,103c0,0-3-2.8-5.6-1.4c-2.6,1.3-3.7,2.1-4.8,1.5c-1.1-0.6-3.3-1.8-3.9-1.5
		 M168.7,94.4c0,0-1.7-0.7-2.5,0.2c-0.9,0.9-2.5,2.6-4.4,2.6 M160,93.2c0,0,5.2-0.6,5.3-3.4c0.1-2.8,2.3-6.2,4.8-5.4 M156,89.2
		c0,0,2.1-0.7,2.1-1.8c0-1.2,0.7-3.1,3.1-3.3 M151.3,87.2c0,0,3.2-0.8,3.3-3.3c0.1-2.5,0.3-7.2,3.9-8 M147.7,86.4
		c0,0,1.3-2.4,0.8-3.2c-0.4-0.9-0.8-3.3,1-3.7 M141.8,85.8c0,0,1.8-2.5,1.2-4.4c-0.6-1.9-2.1-5,1.8-6.3 M135.8,85.7
		c0,0-0.7-0.9,0.5-1.8c1.2-0.9,2.7-1.6,2.1-2.8c-0.6-1.2-1-1.5-1-1.5 M130.1,85.9c0,0,2.1-1.4,1-4.1c-1.1-2.7-1.7-3-0.5-4.5
		c1.2-1.5,1.8-2.5,1.8-2.5 M123.9,86.3c0,0,1.2-1.3,0.9-2.4c-0.3-1.1-0.8-1.8-0.5-2.9c0.3-1,0.4-1.8,0.4-1.8 M117,86.8
		c0,0,2.5-1.9,1.5-3.6c-1-1.7-1.6-2.5-0.4-3.4c1.2-1,4.3-4,1.3-5.1 M111.2,87.5c0,0,1.5-1.8,0.7-2.7c-0.8-0.9-1-1.6-0.4-2.6
		s0.6-2.3,0.6-2.3 M105.2,88.4c0,0,2.6-3.4,1.4-4.7c-1.2-1.4-2.5-2.7-1.4-3.9c1.1-1.2,0.9-2.2,0.6-2.6 M99.5,90.2c0,0,2.2-3.1,1.3-4
		c-0.9-0.8-2.8-1.7-1.5-3.5 M94.4,91.1c0,0,1-3.6-0.5-4.2c-1.5-0.6-2.4-1.4-1.8-2.8c0.6-1.4,0.7-1.2,0.3-2.2
		c-0.3-1.1-0.8-2.2,0.3-2.7 M89.9,93.2c0,0,0.8-2.7-0.3-3.1c-1.2-0.4-4.2-1.5-2.6-4.2 M86.1,95.6c0,0-1.2-3.4-3.1-3.1
		c-1.8,0.3-3.2-0.9-3-2.2c0.2-1.3-0.3-2.3-0.4-2.8 M81.4,101.8c0,0-1.5-1.3-3-0.7c-1.5,0.6-2.4,0.7-2.5-0.3c-0.1-1-0.3-1.8-1.5-1.7
		c-1.1,0.1-1.5-0.6-1.7-1.8 M80.7,105.4c0,0-0.8-0.2-1.8,0.3c-1,0.5-3,0.1-3.6-0.5 M82,110.6c0,0-1.1,0.9-2.5,0.6
		c-0.9-0.2-3.1-0.2-3.4,0.8c-0.3,1-2.3,1.1-4.1-1.3 M83,114.8c0,0-0.8,0.4-1,1.1c-0.2,0.7-2.9,1.3-4.3,1 M86,118.7
		c0,0-2.3,0-3.1,1.4c-0.5,0.7-1,3.5-5.1,3.4 M97.4,124c0,0,0.7,1.9-2,2.6c-2.7,0.7-4.8,3.4-2.9,5.1 M101.2,128.8
		c0,0,2.6-0.8,2.1-1.8c-0.5-1-0.7-1.8-0.3-2.3 M107.5,131.5c0,0,3.2-1.2,2.6-3c-0.6-1.8-1.9-2.2-0.7-3.8 M115.8,127.9
		c0,0,1.8-0.5,0.8-3.6 M126.9,121.8c0,0-0.4,1.2,0,2.1c0.4,0.9,0.3,2.7-0.2,3.1 M132.8,131.5c0,0,2.6-2.8,1-4.1
		c-1.6-1.4-3.6-3.8-2.4-5.7 M135.9,120.7c0,0,0.2,1,1,1.5c0.8,0.5,1.3,2.4,0.4,2.9 M141.1,119.4c0,0-0.8,2.7,0.6,3.8
		c1.4,1.1,3.1,4.3,1.5,5.8 M145.9,117.9c0,0,2.4,2.4,1.3,4.1 M150.7,115.9c0,0-0.5,3,2.9,4c3.4,1,4.2,3.2,3.4,6.1 M157.9,118
		c0,0,0.4-3.4-1.2-3.6c-1.6-0.2-1.8-1.3-1.8-1.3 M159.7,108.8c0,0,0.5,4.5,3,3.7c2.5-0.8,6.3,3,4.7,5.3"/>
	<path class="st4" d="M96.1,90.6c6.1-1.9,14-3.3,24.2-4c29.2-2.3,39.4-0.6,42.2,13.6c1.5,7.8-4.7,14-18.6,18.4
		c-5.3,1.7-11.8,3.2-19.5,4.5c-18.1,3-39.4,4.3-43.3-13.2C79.7,103.6,81.2,95.3,96.1,90.6"/>
	<path class="st5" d="M84.7,108.9c-2.2-9.7,6.8-16.4,35.8-18.6c29.9-2.3,36.1-0.1,38.3,10.6c2.1,10.4-18.6,15.7-35.1,18.4
		C103.3,122.7,87.7,121.9,84.7,108.9"/>
	<path class="st6" d="M112,103.8c-1.5-2.7,2.6-3.9,7.2-5.9c4.5-1.9,8-3.1,8.7-1c0.8,2.4-2.2,3.9-6.7,5.8
		C116.6,104.7,112.8,105.2,112,103.8"/>
	<path class="st6" d="M135.2,100.6c0.4-3.1,3.8-1.9,7.9-1c4.1,0.9,7.1,1.8,6.4,3.9c-0.7,2.5-3.5,2-7.5,1.2
		C137.9,103.8,135,102.2,135.2,100.6"/>
	<path class="st6" d="M96.2,113c0-2.5,3.5-1.8,7.7-1.4c4.2,0.4,7.2,0.9,6.9,2.7c-0.4,2.1-3.2,1.9-7.3,1.5
		C99.3,115.4,96.2,114.3,96.2,113"/>
	<path class="st7" d="M138.2,21.2c0,0-5.3-8.2-7.8-10c-2.5-1.8-8.9-6.1-16.7-5.9c-7.8,0.2-13.3,5.9-14.6,10.1
		c-1.3,4.2-2.3,15.1,0.8,20.6c3,5.5,10.9,15.4,18.2,17.5c7.3,2.1,17.1,3.8,21.3,3.3c4.2-0.5,13.9-2.2,18.5-8.1
		c4.5-5.9,7.8-12.1,7.9-17.8c-0.1-3.3-2.7-4.7-5.1-5.6c-2.3-0.9-4.9,0.4-6,0.9c-1.1,0.5-5,1.7-8.3,0.5
		C143,25.6,139.8,23.5,138.2,21.2z"/>
	<path class="st8" d="M121.9,58.5c-1.7-0.4-3.4-0.8-4.9-1.3c-8.5-2.5-17-13.2-20.4-19.3c-3.7-6.8-2.5-18.6-1.1-23.5
		c1.8-6.1,9.1-12.6,18.1-12.8c2.1,0,4.3,0.2,6.5,0.7c4.2,1,8.4,3,12.5,5.9c2.8,2,7.4,8.9,8.8,10.9c1,1.4,3.5,3.1,6.3,4.2
		c0.2,0.1,0.3,0.1,0.5,0.2c1.9,0.4,4.2-0.2,4.9-0.5l0.2-0.1c1.4-0.7,4.3-2,7.6-1.3c0.4,0.1,0.7,0.2,1.1,0.3c1.8,0.7,7.2,2.8,7.4,8.9
		l0,0.1l0,0.1c-0.1,6-2.9,12.5-8.6,20c-4.8,6.3-14.1,8.7-20.9,9.5C135.5,61.2,127.7,59.9,121.9,58.5"/>
	<path class="st9" d="M138.2,21.2c0,0-5.3-8.2-7.8-10c-2.5-1.8-8.9-6.1-16.7-5.9c-7.8,0.2-13.3,5.9-14.6,10.1
		c-1.3,4.2-2.3,15.1,0.8,20.6c3,5.5,10.9,15.4,18.2,17.5c7.3,2.1,17.1,3.8,21.3,3.3c4.2-0.5,13.9-2.2,18.5-8.1
		c4.5-5.9,7.8-12.1,7.9-17.8c-0.1-3.3-2.7-4.7-5.1-5.6c-2.3-0.9-4.9,0.4-6,0.9c-1.1,0.5-5,1.7-8.3,0.5
		C143,25.6,139.8,23.5,138.2,21.2"/>
	<path class="st10" d="M131.8,47.3c-0.5,2.3-3.7,3.4-8.2,2.3c-4.5-1.1-7.1-4.5-6.6-6.8c0.5-2.3,3.9-2.3,8.5-1.2
		C130,42.7,132.3,45,131.8,47.3"/>
	<path class="st10" d="M158.2,36.5c0,2.6-1.9,4.3-5,4.4c-3.1,0.2-6.1-1.1-6.1-3.8c0-2.1,2.3-4,5.3-4.1
		C155.5,32.9,158.2,34,158.2,36.5"/>
	<path class="st10" d="M114.2,25.3c2.1,4.1,0.6,7-1.8,8.2c-2.4,1.2-5.3-0.9-6.9-3.9c-2.1-3.8-1-6.1,1.5-7.3
		C109.4,21.1,112.6,22.3,114.2,25.3"/>
	<path class="st10" d="M130.3,21.2c2,3.3,1.8,5.6-1.1,7.3c-2.2,1.3-5.4,0.2-7-2.8c-1.6-3-0.6-6.4,1.3-7.4
		C124.3,17.9,128.6,18.3,130.3,21.2"/>
</g>
</svg>
