<?xml version="1.0" encoding="utf-8"?>
<!-- Generator: Adobe Illustrator 19.0.0, SVG Export Plug-In . SVG Version: 6.00 Build 0)  -->
<svg version="1.1" id="Layer_1" xmlns="http://www.w3.org/2000/svg" xmlns:xlink="http://www.w3.org/1999/xlink" x="0px" y="0px"
	 viewBox="0 0 175.3 66.4" style="enable-background:new 0 0 175.3 66.4;" xml:space="preserve">
<style type="text/css">
	.st0{clip-path:url(#SVGID_2_);fill:#646363;}
	.st1{clip-path:url(#SVGID_2_);fill:#CE5D61;}
	.st2{clip-path:url(#SVGID_2_);fill:#FFFFFF;}
	.st3{clip-path:url(#SVGID_2_);fill:#EA696D;}
	.st4{clip-path:url(#SVGID_2_);fill:#EDEDED;}
	.st5{fill:#F0F0F0;}
	.st6{fill:#E0E0E0;}
	.st7{clip-path:url(#SVGID_4_);fill:#646363;}
	.st8{clip-path:url(#SVGID_4_);fill:#FFFFFF;}
</style>
<g>
	<defs>
		<rect id="SVGID_1_" width="175.5" height="66.4"/>
	</defs>
	<clipPath id="SVGID_2_">
		<use xlink:href="#SVGID_1_"  style="overflow:visible;"/>
	</clipPath>
	<path class="st0" d="M0,50.9c0,0.5,0,1.1,0.1,1.6c1.6,3.3,5.4,5.1,9.9,5.4l14.4,1v-9.6h150.2l-4.5-23.2c0-0.1-0.1-0.3-0.1-0.4
		c-0.5-1.5-2-2.4-3.5-2.1l-16.5,3.2c-5.2,1-10.5,0.3-15.3-1.9c-4.1-2-8-5-10.8-8.7c-2-2.7-3.5-5.7-4.2-8.8c-0.1-0.5-1.7-1.7-3.5-2.8
		c-0.4-0.1-0.9-0.1-1.3-0.1c-0.9,0-1.7,0.2-2.6,0.5l-0.1,0l-2.8,1.2L100,10L97,11.2l-9.7,4l-2.9,1.2l-11.6,4.8l-2.9,1.2l-11.6,4.8
		l-2.9,1.2l-7.2,3l-4.4,1.8l-2.9,1.2l-1.3,0.5c-3.3,1.2-7,2.3-10.6,3.2C14.7,42,0,44.8,0,50.9"/>
	<path class="st1" d="M39.1,35.7l2-0.6l3-1l12-3.9l3-1l12-3.9l3-1l12-3.9l1.6-0.5l0,0l0.3-0.1l0,0l1.1-0.4l9.4-3l0.6-0.2l3-1
		l0.9-0.3l7.5-2.4l1.4-0.5l3-1l1.5-0.5l4.4-1.4l-0.3-2v0l-2.3-5.1c-0.8-1.8-2.9-2.6-4.7-1.9l-2.6,1.1l-2.9,1.4l-9.3,4.4l-2.9,1.4
		l-9.5,4.5l-2.9,1.4l-11.4,5.4l-2.9,1.4L58,26.6L55.2,28l-7,3.4l-4.3,2.1L41,34.8L39.1,35.7z"/>
	<path class="st2" d="M108.1,2.7l1.4,3.4l1.6,3.9l0.8,2l0.1,0.3c0.3,0.8,1.3,1.2,2.1,0.9c0.8-0.3,1.2-1.3,0.9-2.1l0,0L114,8.8
		l-1.6-3.9l-1.5-3.5L108.1,2.7z"/>
	<path class="st3" d="M0,50.9c0,0.5,0,1.1,0.1,1.6c0.7,5.1,5.2,7.6,10.7,8l14.4,1v-9.6h150.2l-5.1-26.2l-0.3,0.1l-19.2,3.7
		c-5.2,1-10.5,0.3-15.3-1.9c-5.1-2.4-9.2-6.5-11.6-11.3c-1-1.9-1.7-3.9-2.1-6.1c-0.2-1.1-0.6-2-1.3-2.9v0c-0.2-0.3-0.4-0.5-0.6-0.8
		c-1-1-2.3-1.7-3.6-1.9c-0.4-0.1-0.9-0.1-1.3-0.1c-0.9,0-1.7,0.2-2.6,0.5l-0.1,0l-2.8,1.2L100,10L97,11.2l-9.7,4l-2.9,1.2l-11.6,4.8
		l-2.9,1.2l-11.6,4.8l-2.9,1.2l-7.2,3l-4.4,1.8l-2.9,1.2l-1.3,0.5c-3.3,1.2-7,2.3-10.6,3.2C14.7,42,0,44.8,0,50.9"/>
	<path class="st0" d="M116.6,10.8c0.7,1.6-0.1,3.5-1.7,4.1c-1.6,0.7-3.5-0.1-4.1-1.7s0.1-3.5,1.7-4.1C114,8.4,115.9,9.1,116.6,10.8"
		/>
	<path class="st0" d="M104.3,16.5c0.7,1.6-0.1,3.5-1.7,4.1c-1.6,0.7-3.5-0.1-4.1-1.7c-0.7-1.6,0.1-3.5,1.7-4.1
		C101.8,14.1,103.7,14.8,104.3,16.5"/>
	<path class="st2" d="M95.9,8.5l1.1,2.7l1.9,4.5l0.2,0.5l0.7,1.8c0.3,0.8,1.3,1.2,2.1,0.9c0.8-0.3,1.2-1.3,0.9-2.1l-0.6-1.5
		l-0.3-0.7L100,10l-1.2-2.9L95.9,8.5z"/>
	<path class="st0" d="M91.7,21.7c0.7,1.6-0.1,3.5-1.7,4.1c-1.6,0.7-3.5-0.1-4.1-1.7c-0.7-1.6,0.1-3.5,1.7-4.1
		C89.2,19.3,91.1,20.1,91.7,21.7"/>
	<path class="st2" d="M83.6,14.4l0.8,2l1.7,4l0.2,0.5l0.9,2.3c0.3,0.8,1.3,1.2,2.1,0.9c0.8-0.3,1.2-1.3,0.9-2.1l-0.9-2.3l-0.1-0.3
		l-1.8-4.3l-0.9-2.2L83.6,14.4z"/>
	<path class="st0" d="M76.8,26.6c0.7,1.6-0.1,3.5-1.7,4.1c-1.6,0.7-3.5-0.1-4.1-1.7c-0.7-1.6,0.1-3.5,1.7-4.1
		C74.3,24.3,76.1,25,76.8,26.6"/>
	<path class="st2" d="M69.4,21.2l0.5,1.2l1.2,2.9l0.3,0.6l0.9,2.3c0.3,0.8,1.3,1.2,2.1,0.9s1.2-1.3,0.9-2.1l-0.9-2.3l-0.2-0.4
		l-1.3-3.1l-0.6-1.4L69.4,21.2z"/>
	<path class="st0" d="M61.8,31.6c0.7,1.6-0.1,3.5-1.7,4.1c-1.6,0.7-3.5-0.1-4.1-1.7c-0.7-1.6,0.1-3.5,1.7-4.1
		C59.3,29.2,61.1,30,61.8,31.6"/>
	<path class="st2" d="M55.2,28l0.2,0.4l0.7,1.8l0.3,0.7l0.9,2.3c0.3,0.8,1.3,1.2,2.1,0.8c0.8-0.3,1.2-1.3,0.9-2.1l-0.9-2.3l-0.2-0.5
		l-0.8-2L58,26.6L55.2,28z"/>
	<path class="st0" d="M46.9,36.6c0.7,1.6-0.1,3.5-1.7,4.1c-1.6,0.7-3.5-0.1-4.1-1.7c-0.7-1.6,0.1-3.5,1.7-4.1
		C44.3,34.2,46.2,35,46.9,36.6"/>
	<path class="st2" d="M40.8,34.4l0.2,0.4l0.1,0.3l0.4,0.9l0.9,2.3c0.3,0.8,1.3,1.2,2.1,0.9c0.8-0.3,1.2-1.3,0.9-2.1l-0.9-2.3
		L44.1,34l-0.3-0.6l-0.1-0.2L40.8,34.4z"/>
	<path class="st2" d="M0,50.9C0,57,4.7,60,10.8,60.5l14.4,1v-9.6h3.7V38.1C14.7,42,0,44.8,0,50.9"/>
	<path class="st4" d="M6.8,66.4H172c1.9,0,3.4-1.5,3.4-3.4V51.9H0v7.7C0,63.3,3.1,66.4,6.8,66.4"/>
</g>
<rect x="43.9" y="51.9" class="st5" width="1.5" height="0"/>
<rect x="43.9" y="51.9" class="st6" width="1.5" height="14.5"/>
<g>
	<defs>
		<rect id="SVGID_3_" width="175.5" height="66.4"/>
	</defs>
	<clipPath id="SVGID_4_">
		<use xlink:href="#SVGID_3_"  style="overflow:visible;"/>
	</clipPath>
	<path class="st7" d="M127.8,40.1l-9.1-20.4l-0.1-0.3c-0.3-0.8-1.3-1.2-2.1-0.9c-0.8,0.3-1.2,1.3-0.9,2.1l0,0l9.2,20.8L127.8,40.1z"
		/>
	<path class="st8" d="M124.3,32.2l-9.1-20.4l-0.1-0.3c-0.3-0.8-1.3-1.2-2.1-0.9c-0.8,0.3-1.2,1.3-0.9,2.1l0,0l9.2,20.8L124.3,32.2z"
		/>
</g>
</svg>
