<?xml version="1.0" encoding="utf-8"?>
<!-- Generator: Adobe Illustrator 19.0.0, SVG Export Plug-In . SVG Version: 6.00 Build 0)  -->
<svg version="1.1" id="Layer_1" xmlns="http://www.w3.org/2000/svg" xmlns:xlink="http://www.w3.org/1999/xlink" x="0px" y="0px"
	 width="172px" viewBox="0 0 492.5 231.3" style="enable-background:new 0 0 492.5 231.3;" xml:space="preserve">
<style type="text/css">
	.st0{clip-path:url(#SVGID_2_);}
	.st1{clip-path:url(#SVGID_4_);fill:#62D2CB;}
	.st2{opacity:0.75;clip-path:url(#SVGID_4_);}
	.st3{clip-path:url(#SVGID_6_);fill:#7DA6E2;}
	.st4{clip-path:url(#SVGID_4_);fill:#FFCD6D;}
	.st5{clip-path:url(#SVGID_4_);fill:#F6765B;}
	.st6{clip-path:url(#SVGID_4_);fill:#7DA6E2;}
</style>
<g>
	<defs>
		<rect id="SVGID_1_" x="-63.5" y="-47.1" width="841.9" height="337.9"/>
	</defs>
	<clipPath id="SVGID_2_">
		<use xlink:href="#SVGID_1_"  style="overflow:visible;"/>
	</clipPath>
	<g class="st0">
		<defs>
			<rect id="SVGID_3_" x="-63.5" y="-47.1" width="841.9" height="337.9"/>
		</defs>
		<clipPath id="SVGID_4_">
			<use xlink:href="#SVGID_3_"  style="overflow:visible;"/>
		</clipPath>
		<path class="st1" d="M258.8,25.7c-1.9,14.6-24.7,26.1-24.7,26.1s-22.4-11.7-24.2-26.1c-1.8-13.8,11-25.1,24.5-25.1
			C247.9,0.5,260.6,11.9,258.8,25.7"/>
		<g class="st2">
			<g>
				<defs>
					<rect id="SVGID_5_" x="234.8" y="14.4" width="17.2" height="19.9"/>
				</defs>
				<clipPath id="SVGID_6_">
					<use xlink:href="#SVGID_5_"  style="overflow:visible;"/>
				</clipPath>
				<path class="st3" d="M242,14.4c-2.8,0-5.4,1.2-7.2,3.1c1.7,1.8,2.8,4.2,2.8,6.9c0,2.7-1.1,5.1-2.8,6.9c1.8,1.9,4.4,3.1,7.2,3.1
					c5.5,0,10-4.5,10-10S247.5,14.4,242,14.4"/>
			</g>
		</g>
		<path class="st4" d="M234.8,17.4c-1.8-1.9-4.4-3.1-7.2-3.1c-5.5,0-10,4.5-10,10c0,5.5,4.5,10,10,10c2.8,0,5.4-1.2,7.2-3.1
			c-1.7-1.8-2.8-4.2-2.8-6.9C232,21.7,233.1,19.2,234.8,17.4"/>
		<path class="st5" d="M234.8,17.4c-1.7,1.8-2.8,4.2-2.8,6.9c0,2.7,1.1,5.1,2.8,6.9c1.7-1.8,2.8-4.2,2.8-6.9
			C237.6,21.7,236.5,19.2,234.8,17.4"/>
		<path class="st1" d="M165.5,161.1c-0.5,1.8-1.1,3.3-1.9,4.4c-0.8,1.1-2,1.9-3.6,2.5c-1.6,0.6-3.6,0.9-6.1,1.1
			c-2.5,0.2-5.7,0.3-9.5,0.3c-4.3,0-7.7-0.1-10.3-0.3c-2.6-0.2-4.7-0.6-6.2-1.1c-1.5-0.6-2.6-1.4-3.3-2.5c-0.7-1.1-1.2-2.5-1.6-4.4
			L99.7,68.4h-0.2l-22.2,92.7c-0.4,1.7-0.9,3.1-1.6,4.2c-0.7,1.1-1.8,1.9-3.2,2.5c-1.5,0.6-3.5,1-6,1.2c-2.5,0.2-5.9,0.3-10,0.3
			c-4.4,0-7.9-0.1-10.5-0.3c-2.6-0.2-4.7-0.6-6.2-1.1c-1.5-0.6-2.6-1.4-3.3-2.5c-0.7-1.1-1.2-2.5-1.7-4.4L1.6,33.5
			c-0.7-2.7-1.1-4.8-1.1-6.4c-0.1-1.5,0.4-2.7,1.3-3.6c0.9-0.8,2.5-1.3,4.6-1.5c2.1-0.2,5.1-0.3,9-0.3c3.5,0,6.3,0.1,8.4,0.2
			c2.1,0.1,3.6,0.4,4.7,0.8c1.1,0.4,1.8,1,2.1,1.8c0.4,0.8,0.7,1.9,0.9,3.3l25.7,112.1h0.1L84.1,28.6c0.3-1.4,0.7-2.6,1.2-3.5
			c0.5-0.9,1.3-1.6,2.5-2.1c1.2-0.5,2.8-0.8,4.8-1c2-0.2,4.8-0.3,8.1-0.3c3.6,0,6.5,0.1,8.7,0.2c2.1,0.2,3.8,0.5,5,1
			c1.2,0.5,2,1.2,2.5,2.1c0.5,0.9,0.9,2.1,1.2,3.6l27.6,111.3h0.2l25.7-111.7c0.2-1.2,0.5-2.2,0.9-3.1c0.4-0.9,1.1-1.5,2.1-2
			c1.1-0.5,2.6-0.8,4.5-1c2-0.2,4.7-0.3,8.3-0.3c3.3,0,5.9,0.1,7.7,0.3c1.8,0.2,3.2,0.7,4,1.5c0.8,0.8,1.2,2.1,1.1,3.7
			c-0.1,1.6-0.5,3.8-1.2,6.6L165.5,161.1z"/>
		<path class="st1" d="M248.1,164.9c0,0.8-0.2,1.4-0.7,2c-0.5,0.6-1.2,1-2.3,1.4c-1.1,0.4-2.5,0.7-4.4,0.8c-1.8,0.2-4.1,0.3-6.9,0.3
			s-5.1-0.1-6.9-0.3c-1.8-0.2-3.3-0.5-4.4-0.8c-1.1-0.4-1.9-0.8-2.3-1.4c-0.5-0.6-0.7-1.2-0.7-2V64.2c0-0.8,0.2-1.4,0.7-2
			c0.5-0.6,1.2-1.1,2.3-1.5c1.1-0.4,2.5-0.7,4.4-1c1.8-0.2,4.1-0.3,6.9-0.3s5.1,0.1,6.9,0.3c1.8,0.2,3.3,0.5,4.4,1
			c1.1,0.4,1.9,0.9,2.3,1.5c0.5,0.6,0.7,1.2,0.7,2V164.9z"/>
		<path class="st6" d="M378,123.8c0,7.7-1.4,14.4-4.3,20.2c-2.9,5.8-6.7,10.7-11.6,14.5c-4.9,3.9-10.6,6.8-17.2,8.8
			c-6.6,2-13.6,2.9-21,2.9c-5.1,0-9.7-0.4-14.1-1.2c-4.3-0.8-8.2-1.8-11.5-3c-3.3-1.2-6.1-2.4-8.3-3.7c-2.2-1.3-3.8-2.4-4.8-3.4
			c-1-1-1.7-2.4-2.1-4.2c-0.4-1.8-0.6-4.5-0.6-8c0-2.3,0.1-4.3,0.2-5.9c0.1-1.6,0.4-2.9,0.7-3.8c0.3-1,0.8-1.7,1.4-2.1
			c0.6-0.4,1.2-0.6,2-0.6c1.1,0,2.5,0.6,4.5,1.9c1.9,1.2,4.4,2.6,7.4,4.1c3,1.5,6.6,2.9,10.8,4.1c4.2,1.2,9,1.9,14.5,1.9
			c3.6,0,6.9-0.4,9.7-1.3c2.9-0.9,5.3-2.1,7.3-3.7c2-1.6,3.5-3.5,4.6-5.9c1.1-2.3,1.6-4.9,1.6-7.8c0-3.3-0.9-6.2-2.7-8.5
			c-1.8-2.4-4.2-4.5-7.1-6.3c-2.9-1.8-6.2-3.6-9.9-5.2c-3.7-1.6-7.5-3.3-11.4-5.1c-3.9-1.8-7.7-3.9-11.4-6.2c-3.7-2.3-7-5.1-9.9-8.3
			c-2.9-3.2-5.3-7-7.1-11.4c-1.8-4.4-2.7-9.6-2.7-15.7c0-7,1.3-13.2,3.9-18.5c2.6-5.3,6.1-9.7,10.5-13.2c4.4-3.5,9.6-6.1,15.6-7.9
			c6-1.7,12.3-2.6,19.1-2.6c3.5,0,6.9,0.3,10.4,0.8c3.5,0.5,6.7,1.2,9.7,2.1c3,0.9,5.7,1.9,8,3.1c2.3,1.1,3.9,2.1,4.6,2.8
			c0.8,0.8,1.3,1.4,1.5,1.9c0.3,0.5,0.5,1.2,0.7,2.1c0.2,0.9,0.3,2,0.4,3.3c0.1,1.3,0.1,3,0.1,4.9c0,2.2-0.1,4-0.2,5.5
			c-0.1,1.5-0.3,2.8-0.6,3.7c-0.3,1-0.6,1.7-1.1,2.1c-0.5,0.5-1.1,0.7-2,0.7c-0.8,0-2.1-0.5-4-1.6c-1.8-1.1-4-2.2-6.7-3.4
			c-2.6-1.2-5.7-2.4-9.2-3.4c-3.5-1-7.3-1.5-11.4-1.5c-3.2,0-6.1,0.4-8.5,1.2c-2.4,0.8-4.4,1.9-6,3.3c-1.6,1.4-2.8,3.1-3.6,5
			c-0.8,2-1.2,4-1.2,6.2c0,3.2,0.9,6.1,2.7,8.4c1.8,2.4,4.1,4.5,7.1,6.3c3,1.8,6.4,3.6,10.1,5.2c3.8,1.6,7.6,3.3,11.5,5.1
			c3.9,1.8,7.8,3.9,11.5,6.2c3.8,2.3,7.1,5.1,10.1,8.3c2.9,3.2,5.3,7,7.1,11.3C377.1,112.8,378,117.9,378,123.8"/>
		<path class="st6" d="M492.2,110.5c0,3.5-0.8,6-2.3,7.7c-1.5,1.7-3.7,2.5-6.4,2.5h-61.4c0,4.3,0.5,8.2,1.5,11.7
			c1,3.5,2.6,6.5,4.9,8.9c2.2,2.5,5.1,4.3,8.6,5.6c3.5,1.3,7.7,1.9,12.6,1.9c5,0,9.3-0.4,13.1-1.1c3.8-0.7,7-1.5,9.8-2.4
			c2.8-0.9,5-1.7,6.8-2.4c1.8-0.7,3.3-1.1,4.4-1.1c0.7,0,1.2,0.1,1.7,0.4c0.5,0.3,0.8,0.7,1.1,1.4c0.3,0.7,0.5,1.6,0.6,2.9
			c0.1,1.2,0.2,2.8,0.2,4.7c0,1.7,0,3.1-0.1,4.2c-0.1,1.2-0.2,2.2-0.3,3c-0.2,0.8-0.4,1.5-0.7,2.1c-0.3,0.6-0.7,1.1-1.2,1.6
			c-0.5,0.5-1.8,1.2-4,2.1c-2.2,0.9-5,1.8-8.4,2.7c-3.4,0.9-7.3,1.6-11.6,2.3c-4.4,0.6-9,1-14,1c-9,0-16.8-1.1-23.6-3.4
			c-6.7-2.3-12.4-5.7-16.9-10.3c-4.5-4.6-7.9-10.4-10.1-17.4c-2.2-7-3.3-15.2-3.3-24.7c0-9,1.2-17.1,3.5-24.3
			c2.3-7.2,5.7-13.3,10.2-18.3c4.4-5,9.9-8.8,16.2-11.5c6.4-2.6,13.6-4,21.5-4c8.4,0,15.7,1.2,21.7,3.7c6,2.5,10.9,5.9,14.8,10.3
			c3.8,4.4,6.7,9.6,8.5,15.7c1.8,6,2.7,12.6,2.7,19.7V110.5z M464.6,102.3c0.2-8-1.4-14.3-4.8-18.8c-3.4-4.6-8.7-6.8-15.9-6.8
			c-3.6,0-6.8,0.7-9.4,2s-4.9,3.2-6.7,5.5c-1.8,2.3-3.1,5-4.1,8.1c-0.9,3.1-1.5,6.5-1.6,10H464.6z"/>
		<path class="st1" d="M64.3,229.6c-0.1,0.2-0.2,0.4-0.3,0.5c-0.1,0.1-0.3,0.2-0.5,0.3s-0.5,0.1-0.8,0.2c-0.3,0-0.7,0-1.2,0
			c-0.5,0-0.9,0-1.2,0c-0.3,0-0.6-0.1-0.8-0.2s-0.4-0.2-0.5-0.3c-0.1-0.1-0.2-0.3-0.3-0.5l-6.4-23.2h0l-5.9,23.2
			c0,0.2-0.1,0.4-0.2,0.5c-0.1,0.1-0.3,0.2-0.5,0.3c-0.2,0.1-0.5,0.1-0.8,0.2c-0.3,0-0.7,0-1.2,0c-0.5,0-1,0-1.3,0
			c-0.3,0-0.6-0.1-0.9-0.2c-0.2-0.1-0.4-0.2-0.5-0.3c-0.1-0.1-0.2-0.3-0.3-0.5l-8.1-28.4c-0.1-0.4-0.1-0.6-0.2-0.9
			c0-0.2,0.1-0.4,0.2-0.5c0.1-0.1,0.4-0.2,0.7-0.2c0.3,0,0.7,0,1.2,0c0.5,0,0.9,0,1.2,0c0.3,0,0.5,0.1,0.7,0.1
			c0.2,0.1,0.3,0.2,0.3,0.3c0.1,0.1,0.1,0.3,0.1,0.4l6.9,25.8h0l6.6-25.7c0-0.2,0.1-0.3,0.2-0.4c0.1-0.1,0.2-0.2,0.3-0.3
			c0.2-0.1,0.4-0.1,0.7-0.1c0.3,0,0.7,0,1.2,0c0.4,0,0.8,0,1.1,0c0.3,0,0.5,0.1,0.6,0.1c0.2,0.1,0.3,0.2,0.3,0.3
			c0.1,0.1,0.1,0.3,0.2,0.4l7.1,25.7h0l6.8-25.8c0-0.2,0.1-0.3,0.1-0.4c0-0.1,0.1-0.2,0.3-0.3c0.2-0.1,0.4-0.1,0.6-0.1
			c0.3,0,0.6,0,1.1,0c0.5,0,0.9,0,1.1,0.1c0.3,0,0.5,0.1,0.6,0.2c0.1,0.1,0.2,0.3,0.2,0.5c0,0.2-0.1,0.5-0.1,0.9L64.3,229.6z"/>
		<path class="st1" d="M82.1,201.2c0,0.9-0.2,1.5-0.5,1.9c-0.3,0.3-1,0.5-1.9,0.5c-0.9,0-1.6-0.2-1.9-0.5c-0.3-0.3-0.5-0.9-0.5-1.8
			c0-0.9,0.2-1.5,0.5-1.9c0.3-0.3,1-0.5,1.9-0.5c0.9,0,1.6,0.2,1.9,0.5C82,199.7,82.1,200.3,82.1,201.2 M81.7,229.9
			c0,0.1,0,0.2-0.1,0.3c-0.1,0.1-0.2,0.2-0.3,0.2c-0.1,0.1-0.3,0.1-0.6,0.1c-0.3,0-0.6,0-1,0c-0.4,0-0.7,0-1,0
			c-0.3,0-0.5-0.1-0.6-0.1c-0.2-0.1-0.3-0.1-0.3-0.2c-0.1-0.1-0.1-0.2-0.1-0.3v-21.4c0-0.1,0-0.2,0.1-0.3c0.1-0.1,0.2-0.2,0.3-0.2
			c0.2-0.1,0.4-0.1,0.6-0.1c0.3,0,0.6,0,1,0c0.4,0,0.7,0,1,0c0.3,0,0.5,0.1,0.6,0.1c0.1,0.1,0.2,0.1,0.3,0.2
			c0.1,0.1,0.1,0.2,0.1,0.3V229.9z"/>
		<path class="st5" d="M92.9,229.9c0,0.1,0,0.2-0.1,0.3c-0.1,0.1-0.2,0.2-0.3,0.2c-0.1,0.1-0.3,0.1-0.6,0.1c-0.3,0-0.6,0-1,0
			c-0.4,0-0.7,0-1,0c-0.3,0-0.5-0.1-0.6-0.1c-0.2-0.1-0.3-0.1-0.3-0.2c-0.1-0.1-0.1-0.2-0.1-0.3v-31.8c0-0.1,0-0.2,0.1-0.3
			c0.1-0.1,0.2-0.2,0.3-0.2s0.4-0.1,0.6-0.1c0.3,0,0.6,0,1,0c0.4,0,0.7,0,1,0c0.3,0,0.5,0.1,0.6,0.1c0.1,0.1,0.2,0.1,0.3,0.2
			c0.1,0.1,0.1,0.2,0.1,0.3V229.9z"/>
		<path class="st5" d="M111.3,228.3c0,0.5,0,0.8-0.1,1.1c-0.1,0.3-0.2,0.5-0.3,0.6c-0.1,0.1-0.3,0.2-0.6,0.4
			c-0.3,0.1-0.5,0.2-0.9,0.3c-0.3,0.1-0.7,0.1-1,0.2c-0.4,0-0.7,0.1-1.1,0.1c-1.1,0-2.1-0.1-2.9-0.4c-0.8-0.3-1.4-0.7-2-1.3
			c-0.5-0.6-0.9-1.3-1.1-2.3c-0.2-0.9-0.3-2-0.3-3.2v-12.5h-3c-0.2,0-0.4-0.1-0.6-0.4c-0.1-0.3-0.2-0.7-0.2-1.2c0-0.3,0-0.6,0.1-0.8
			c0-0.2,0.1-0.4,0.2-0.5c0.1-0.1,0.1-0.2,0.3-0.3c0.1-0.1,0.2-0.1,0.3-0.1h3v-5.1c0-0.1,0-0.2,0.1-0.3c0.1-0.1,0.2-0.2,0.3-0.3
			c0.2-0.1,0.4-0.1,0.6-0.2c0.3,0,0.6,0,1,0c0.4,0,0.7,0,1,0c0.3,0,0.5,0.1,0.6,0.2c0.1,0.1,0.2,0.2,0.3,0.3
			c0.1,0.1,0.1,0.2,0.1,0.3v5.1h5.5c0.1,0,0.2,0,0.3,0.1c0.1,0.1,0.2,0.2,0.3,0.3c0.1,0.1,0.1,0.3,0.2,0.5c0,0.2,0,0.5,0,0.8
			c0,0.6-0.1,1-0.2,1.2c-0.1,0.3-0.3,0.4-0.6,0.4H105V223c0,1.5,0.2,2.6,0.7,3.3c0.4,0.8,1.2,1.1,2.3,1.1c0.4,0,0.7,0,1-0.1
			c0.3-0.1,0.5-0.1,0.8-0.2c0.2-0.1,0.4-0.2,0.6-0.2c0.2-0.1,0.3-0.1,0.4-0.1c0.1,0,0.2,0,0.2,0.1c0.1,0,0.1,0.1,0.2,0.2
			c0,0.1,0.1,0.3,0.1,0.5C111.2,227.8,111.3,228,111.3,228.3"/>
		<path class="st5" d="M129.9,224c0,1.1-0.2,2.1-0.6,2.9c-0.4,0.9-1,1.6-1.7,2.2c-0.7,0.6-1.6,1-2.7,1.3c-1,0.3-2.2,0.5-3.4,0.5
			c-0.8,0-1.5-0.1-2.2-0.2c-0.7-0.1-1.3-0.3-1.9-0.5c-0.5-0.2-1-0.4-1.4-0.6c-0.4-0.2-0.7-0.4-0.8-0.5c-0.2-0.2-0.3-0.4-0.4-0.7
			c-0.1-0.3-0.1-0.7-0.1-1.2c0-0.3,0-0.6,0-0.8c0-0.2,0.1-0.4,0.1-0.5c0-0.1,0.1-0.2,0.2-0.3c0.1-0.1,0.2-0.1,0.3-0.1
			c0.2,0,0.4,0.1,0.8,0.3c0.3,0.2,0.8,0.4,1.3,0.7c0.5,0.3,1.1,0.5,1.8,0.7c0.7,0.2,1.5,0.3,2.4,0.3c0.7,0,1.3-0.1,1.8-0.2
			c0.5-0.1,1-0.4,1.4-0.6c0.4-0.3,0.7-0.6,0.9-1.1c0.2-0.4,0.3-0.9,0.3-1.5c0-0.6-0.2-1.1-0.5-1.5c-0.3-0.4-0.7-0.8-1.2-1.1
			c-0.5-0.3-1.1-0.6-1.7-0.8c-0.6-0.2-1.3-0.5-2-0.8c-0.7-0.3-1.3-0.6-2-0.9c-0.6-0.3-1.2-0.8-1.7-1.2c-0.5-0.5-0.9-1.1-1.2-1.8
			c-0.3-0.7-0.5-1.5-0.5-2.5c0-0.8,0.2-1.6,0.5-2.4c0.3-0.8,0.8-1.4,1.5-2c0.7-0.6,1.5-1,2.4-1.4c1-0.3,2.1-0.5,3.4-0.5
			c0.6,0,1.1,0,1.7,0.1c0.6,0.1,1.1,0.2,1.5,0.4c0.5,0.1,0.9,0.3,1.2,0.5c0.3,0.2,0.6,0.3,0.7,0.4c0.2,0.1,0.3,0.2,0.3,0.3
			c0.1,0.1,0.1,0.2,0.1,0.3c0,0.1,0,0.3,0.1,0.4c0,0.2,0,0.4,0,0.6c0,0.3,0,0.5,0,0.7c0,0.2-0.1,0.4-0.1,0.5s-0.1,0.2-0.2,0.3
			c-0.1,0.1-0.2,0.1-0.3,0.1c-0.1,0-0.3-0.1-0.6-0.3c-0.3-0.2-0.6-0.4-1-0.6c-0.4-0.2-0.9-0.4-1.5-0.6c-0.6-0.2-1.2-0.3-2-0.3
			c-0.7,0-1.3,0.1-1.8,0.2c-0.5,0.1-0.9,0.4-1.2,0.6s-0.6,0.6-0.7,1c-0.2,0.4-0.3,0.8-0.3,1.2c0,0.6,0.2,1.1,0.5,1.6
			c0.3,0.4,0.7,0.8,1.2,1.1c0.5,0.3,1.1,0.6,1.7,0.9c0.7,0.3,1.3,0.5,2,0.8c0.7,0.3,1.3,0.6,2,0.9c0.7,0.3,1.2,0.7,1.7,1.2
			c0.5,0.5,0.9,1,1.2,1.7C129.7,222.3,129.9,223.1,129.9,224"/>
		<path class="st5" d="M153.9,229.9c0,0.1,0,0.2-0.1,0.3c-0.1,0.1-0.2,0.2-0.3,0.2c-0.1,0.1-0.3,0.1-0.6,0.1c-0.3,0-0.6,0-1,0
			c-0.4,0-0.7,0-1,0c-0.3,0-0.5-0.1-0.6-0.1c-0.1-0.1-0.2-0.1-0.3-0.2c-0.1-0.1-0.1-0.2-0.1-0.3v-12.5c0-1.2-0.1-2.2-0.3-3
			c-0.2-0.7-0.5-1.4-0.8-1.9c-0.4-0.5-0.8-1-1.4-1.2c-0.6-0.3-1.3-0.4-2-0.4c-1,0-2,0.3-3,1c-1,0.7-2,1.7-3.1,3.1v15
			c0,0.1,0,0.2-0.1,0.3c-0.1,0.1-0.2,0.2-0.3,0.2c-0.1,0.1-0.3,0.1-0.6,0.1c-0.3,0-0.6,0-1,0c-0.4,0-0.7,0-1,0s-0.5-0.1-0.6-0.1
			c-0.2-0.1-0.3-0.1-0.3-0.2c-0.1-0.1-0.1-0.2-0.1-0.3v-31.8c0-0.1,0-0.2,0.1-0.3c0.1-0.1,0.2-0.2,0.3-0.2s0.4-0.1,0.6-0.1
			s0.6,0,1,0c0.4,0,0.7,0,1,0c0.3,0,0.5,0.1,0.6,0.1c0.1,0.1,0.2,0.1,0.3,0.2c0.1,0.1,0.1,0.2,0.1,0.3v12.8c1.1-1.2,2.3-2.1,3.4-2.7
			c1.1-0.6,2.3-0.9,3.5-0.9c1.4,0,2.6,0.2,3.6,0.7c1,0.5,1.8,1.1,2.4,1.9c0.6,0.8,1,1.8,1.3,2.8c0.3,1.1,0.4,2.4,0.4,3.9V229.9z"/>
		<path class="st5" d="M165.5,201.2c0,0.9-0.2,1.5-0.5,1.9c-0.3,0.3-1,0.5-1.9,0.5c-0.9,0-1.6-0.2-1.9-0.5c-0.3-0.3-0.5-0.9-0.5-1.8
			c0-0.9,0.2-1.5,0.5-1.9c0.3-0.3,1-0.5,1.9-0.5c0.9,0,1.6,0.2,1.9,0.5C165.3,199.7,165.5,200.3,165.5,201.2 M165,229.9
			c0,0.1,0,0.2-0.1,0.3c-0.1,0.1-0.2,0.2-0.3,0.2c-0.1,0.1-0.3,0.1-0.6,0.1c-0.3,0-0.6,0-1,0c-0.4,0-0.7,0-1,0
			c-0.3,0-0.5-0.1-0.6-0.1c-0.2-0.1-0.3-0.1-0.3-0.2c-0.1-0.1-0.1-0.2-0.1-0.3v-21.4c0-0.1,0-0.2,0.1-0.3c0.1-0.1,0.2-0.2,0.3-0.2
			c0.2-0.1,0.4-0.1,0.6-0.1c0.3,0,0.6,0,1,0c0.4,0,0.7,0,1,0c0.3,0,0.5,0.1,0.6,0.1c0.1,0.1,0.2,0.1,0.3,0.2
			c0.1,0.1,0.1,0.2,0.1,0.3V229.9z"/>
		<path class="st5" d="M184.8,209.9c0,0.3,0,0.6,0,0.9c0,0.2,0,0.4-0.1,0.6c0,0.1-0.1,0.2-0.2,0.3c-0.1,0.1-0.2,0.1-0.3,0.1
			s-0.3,0-0.5-0.1c-0.2-0.1-0.4-0.1-0.6-0.2c-0.2-0.1-0.5-0.1-0.8-0.2c-0.3-0.1-0.6-0.1-0.9-0.1c-0.4,0-0.8,0.1-1.2,0.2
			c-0.4,0.2-0.8,0.4-1.2,0.8c-0.4,0.4-0.9,0.8-1.3,1.5c-0.5,0.6-1,1.3-1.5,2.2v14.1c0,0.1,0,0.2-0.1,0.3c-0.1,0.1-0.2,0.2-0.3,0.2
			c-0.1,0.1-0.3,0.1-0.6,0.1c-0.3,0-0.6,0-1,0c-0.4,0-0.7,0-1,0c-0.3,0-0.5-0.1-0.6-0.1c-0.2-0.1-0.3-0.1-0.3-0.2
			c-0.1-0.1-0.1-0.2-0.1-0.3v-21.4c0-0.1,0-0.2,0.1-0.3c0-0.1,0.1-0.2,0.3-0.2c0.1-0.1,0.3-0.1,0.5-0.1c0.2,0,0.5,0,0.9,0
			c0.3,0,0.6,0,0.9,0c0.2,0,0.4,0.1,0.5,0.1c0.1,0.1,0.2,0.2,0.3,0.2c0.1,0.1,0.1,0.2,0.1,0.3v3.1c0.6-0.9,1.1-1.6,1.7-2.1
			c0.5-0.5,1-1,1.5-1.3c0.5-0.3,0.9-0.5,1.4-0.6c0.5-0.1,0.9-0.2,1.4-0.2c0.2,0,0.4,0,0.7,0c0.3,0,0.5,0.1,0.8,0.1
			c0.3,0.1,0.5,0.1,0.8,0.2c0.2,0.1,0.4,0.2,0.5,0.2c0.1,0.1,0.2,0.2,0.2,0.2c0,0.1,0.1,0.2,0.1,0.3c0,0.1,0,0.3,0,0.5
			C184.8,209.2,184.8,209.5,184.8,209.9"/>
		<path class="st5" d="M206.9,218.2c0,0.6-0.2,1.1-0.5,1.3c-0.3,0.3-0.7,0.4-1.1,0.4h-14.1c0,1.2,0.1,2.3,0.4,3.2
			c0.2,1,0.6,1.8,1.2,2.4c0.6,0.7,1.3,1.2,2.2,1.6c0.9,0.4,2,0.5,3.3,0.5c1,0,1.9-0.1,2.7-0.3c0.8-0.2,1.5-0.4,2.1-0.6
			c0.6-0.2,1.1-0.4,1.4-0.6s0.7-0.3,0.8-0.3c0.1,0,0.2,0,0.3,0.1c0.1,0.1,0.2,0.1,0.2,0.3c0,0.1,0.1,0.3,0.1,0.5c0,0.2,0,0.4,0,0.7
			c0,0.2,0,0.4,0,0.5c0,0.1,0,0.3-0.1,0.4c0,0.1-0.1,0.2-0.1,0.3c-0.1,0.1-0.1,0.2-0.2,0.3c-0.1,0.1-0.3,0.2-0.8,0.4
			c-0.4,0.2-1,0.4-1.7,0.6c-0.7,0.2-1.5,0.4-2.4,0.5c-0.9,0.2-1.9,0.2-2.9,0.2c-1.8,0-3.3-0.2-4.6-0.7c-1.3-0.5-2.4-1.2-3.3-2.2
			c-0.9-1-1.6-2.2-2-3.6c-0.5-1.5-0.7-3.2-0.7-5.1c0-1.8,0.2-3.5,0.7-5c0.5-1.5,1.2-2.7,2.1-3.7c0.9-1,2-1.8,3.2-2.4
			c1.3-0.5,2.7-0.8,4.3-0.8c1.7,0,3.1,0.3,4.3,0.8c1.2,0.5,2.2,1.3,2.9,2.2c0.8,0.9,1.3,2,1.7,3.2c0.4,1.2,0.5,2.5,0.5,3.9V218.2z
			 M203,217.1c0-2.1-0.4-3.7-1.4-4.9c-1-1.2-2.4-1.8-4.3-1.8c-1,0-1.8,0.2-2.6,0.5c-0.7,0.4-1.4,0.8-1.8,1.5
			c-0.5,0.6-0.9,1.3-1.1,2.1c-0.3,0.8-0.4,1.6-0.5,2.5H203z"/>
		<path class="st6" d="M240.9,221.8c0,1.4-0.3,2.7-0.8,3.9c-0.5,1.1-1.3,2.1-2.2,2.9s-2.1,1.4-3.3,1.8c-1.3,0.4-2.7,0.6-4.1,0.6
			c-1,0-2-0.1-2.9-0.3c-0.9-0.2-1.7-0.4-2.4-0.6c-0.7-0.3-1.3-0.5-1.7-0.8c-0.5-0.3-0.8-0.5-1-0.7c-0.2-0.2-0.3-0.4-0.4-0.7
			c-0.1-0.3-0.1-0.7-0.1-1.2c0-0.3,0-0.6,0-0.9s0.1-0.4,0.1-0.6c0.1-0.1,0.1-0.2,0.2-0.3c0.1-0.1,0.2-0.1,0.3-0.1
			c0.2,0,0.5,0.1,0.9,0.4c0.4,0.3,0.9,0.6,1.6,0.9c0.6,0.3,1.4,0.6,2.3,0.9c0.9,0.3,1.9,0.4,3.1,0.4c0.9,0,1.7-0.1,2.4-0.4
			c0.7-0.2,1.4-0.6,1.9-1c0.5-0.4,0.9-1,1.2-1.6c0.3-0.6,0.4-1.4,0.4-2.2c0-0.9-0.2-1.6-0.6-2.2c-0.4-0.6-0.9-1.2-1.6-1.6
			c-0.7-0.5-1.4-0.9-2.2-1.3c-0.8-0.4-1.7-0.8-2.6-1.2c-0.9-0.4-1.7-0.9-2.5-1.3c-0.8-0.5-1.6-1.1-2.2-1.7c-0.6-0.7-1.2-1.4-1.6-2.3
			c-0.4-0.9-0.6-2-0.6-3.2c0-1.3,0.2-2.4,0.7-3.4c0.5-1,1.1-1.9,2-2.5c0.8-0.7,1.8-1.2,3-1.6c1.1-0.4,2.4-0.5,3.7-0.5
			c0.7,0,1.4,0.1,2.1,0.2c0.7,0.1,1.3,0.3,2,0.5c0.6,0.2,1.2,0.4,1.6,0.7c0.5,0.2,0.8,0.4,0.9,0.6c0.2,0.1,0.3,0.3,0.3,0.4
			s0.1,0.2,0.1,0.3c0,0.1,0.1,0.3,0.1,0.5c0,0.2,0,0.4,0,0.7c0,0.3,0,0.5,0,0.8c0,0.2-0.1,0.4-0.1,0.6c0,0.2-0.1,0.3-0.2,0.3
			c-0.1,0.1-0.2,0.1-0.3,0.1c-0.2,0-0.4-0.1-0.8-0.3c-0.4-0.2-0.8-0.5-1.4-0.7c-0.5-0.3-1.2-0.5-1.9-0.8c-0.7-0.2-1.6-0.3-2.5-0.3
			c-0.9,0-1.6,0.1-2.2,0.3c-0.6,0.2-1.2,0.5-1.6,0.9c-0.4,0.4-0.7,0.8-0.9,1.4c-0.2,0.5-0.3,1.1-0.3,1.7c0,0.9,0.2,1.6,0.6,2.2
			c0.4,0.6,0.9,1.2,1.6,1.6c0.7,0.5,1.4,0.9,2.2,1.3c0.8,0.4,1.7,0.8,2.6,1.2c0.9,0.4,1.7,0.8,2.6,1.3c0.8,0.5,1.6,1.1,2.2,1.7
			c0.7,0.7,1.2,1.4,1.6,2.3C240.7,219.5,240.9,220.6,240.9,221.8"/>
		<path class="st6" d="M264.6,218.2c0,0.6-0.2,1.1-0.5,1.3c-0.3,0.3-0.7,0.4-1.1,0.4h-14.1c0,1.2,0.1,2.3,0.4,3.2
			c0.2,1,0.6,1.8,1.2,2.4c0.6,0.7,1.3,1.2,2.2,1.6c0.9,0.4,2,0.5,3.3,0.5c1,0,1.9-0.1,2.7-0.3c0.8-0.2,1.5-0.4,2.1-0.6
			c0.6-0.2,1.1-0.4,1.4-0.6c0.4-0.2,0.7-0.3,0.8-0.3c0.1,0,0.2,0,0.3,0.1c0.1,0.1,0.2,0.1,0.2,0.3c0,0.1,0.1,0.3,0.1,0.5
			c0,0.2,0,0.4,0,0.7c0,0.2,0,0.4,0,0.5c0,0.1,0,0.3-0.1,0.4c0,0.1-0.1,0.2-0.1,0.3c-0.1,0.1-0.1,0.2-0.2,0.3
			c-0.1,0.1-0.3,0.2-0.8,0.4c-0.4,0.2-1,0.4-1.7,0.6c-0.7,0.2-1.5,0.4-2.4,0.5c-0.9,0.2-1.9,0.2-2.9,0.2c-1.8,0-3.3-0.2-4.6-0.7
			c-1.3-0.5-2.4-1.2-3.3-2.2c-0.9-1-1.6-2.2-2-3.6c-0.5-1.5-0.7-3.2-0.7-5.1c0-1.8,0.2-3.5,0.7-5c0.5-1.5,1.2-2.7,2.1-3.7
			c0.9-1,2-1.8,3.2-2.4c1.3-0.5,2.7-0.8,4.3-0.8c1.7,0,3.1,0.3,4.3,0.8c1.2,0.5,2.2,1.3,2.9,2.2c0.8,0.9,1.3,2,1.7,3.2
			c0.4,1.2,0.5,2.5,0.5,3.9V218.2z M260.6,217.1c0-2.1-0.4-3.7-1.4-4.9c-1-1.2-2.4-1.8-4.3-1.8c-1,0-1.8,0.2-2.6,0.5
			c-0.7,0.4-1.4,0.8-1.8,1.5c-0.5,0.6-0.9,1.3-1.1,2.1c-0.3,0.8-0.4,1.6-0.5,2.5H260.6z"/>
		<path class="st5" d="M286,229.4c0.1,0.2,0.2,0.4,0.2,0.6c0,0.2-0.1,0.3-0.2,0.4c-0.1,0.1-0.4,0.2-0.7,0.2c-0.3,0-0.7,0.1-1.2,0.1
			c-0.5,0-0.9,0-1.1,0c-0.3,0-0.5-0.1-0.7-0.1c-0.2-0.1-0.3-0.1-0.4-0.2c-0.1-0.1-0.2-0.2-0.2-0.3l-5.1-8.5l-5.1,8.5
			c-0.1,0.1-0.1,0.2-0.2,0.3c-0.1,0.1-0.2,0.2-0.4,0.2c-0.2,0.1-0.4,0.1-0.7,0.1c-0.3,0-0.6,0-1.1,0c-0.5,0-0.8,0-1.1-0.1
			c-0.3,0-0.5-0.1-0.6-0.2s-0.2-0.2-0.2-0.4c0-0.1,0.1-0.3,0.2-0.6L274,219l-6.3-10.1c-0.1-0.2-0.2-0.4-0.2-0.6
			c0-0.2,0.1-0.3,0.2-0.4c0.1-0.1,0.4-0.2,0.7-0.2c0.3,0,0.7,0,1.2,0c0.5,0,0.8,0,1.1,0c0.3,0,0.5,0.1,0.7,0.1
			c0.2,0,0.3,0.1,0.4,0.2c0.1,0.1,0.2,0.2,0.2,0.3l4.9,8l4.9-8c0.1-0.1,0.1-0.2,0.2-0.3c0.1-0.1,0.2-0.1,0.3-0.2
			c0.1-0.1,0.3-0.1,0.6-0.1c0.2,0,0.6,0,1,0c0.5,0,0.8,0,1.1,0c0.3,0,0.5,0.1,0.7,0.2c0.1,0.1,0.2,0.2,0.2,0.4
			c0,0.2-0.1,0.4-0.2,0.6l-6.3,9.9L286,229.4z"/>
		<path class="st5" d="M308.8,229.9c0,0.1,0,0.2-0.1,0.3c-0.1,0.1-0.2,0.2-0.3,0.2c-0.1,0.1-0.3,0.1-0.6,0.1c-0.2,0-0.5,0-0.8,0
			c-0.4,0-0.7,0-0.9,0c-0.2,0-0.4-0.1-0.5-0.1c-0.1-0.1-0.2-0.1-0.3-0.2c0-0.1-0.1-0.2-0.1-0.3V227c-1.2,1.3-2.4,2.3-3.6,3
			c-1.2,0.6-2.4,0.9-3.6,0.9c-1.4,0-2.6-0.2-3.6-0.7c-1-0.5-1.8-1.1-2.4-1.9c-0.6-0.8-1-1.8-1.3-2.9c-0.3-1.1-0.4-2.4-0.4-4v-13
			c0-0.1,0-0.2,0.1-0.3c0.1-0.1,0.2-0.2,0.3-0.2c0.2-0.1,0.4-0.1,0.6-0.1c0.3,0,0.6,0,1,0c0.4,0,0.7,0,1,0c0.3,0,0.5,0.1,0.6,0.1
			c0.2,0.1,0.3,0.2,0.3,0.2c0.1,0.1,0.1,0.2,0.1,0.3v12.5c0,1.3,0.1,2.3,0.3,3c0.2,0.8,0.5,1.4,0.8,1.9c0.4,0.5,0.8,0.9,1.4,1.2
			c0.6,0.3,1.2,0.4,2,0.4c1,0,2-0.3,2.9-1c1-0.7,2-1.7,3.1-3.1v-15c0-0.1,0-0.2,0.1-0.3c0.1-0.1,0.2-0.2,0.3-0.2
			c0.2-0.1,0.4-0.1,0.6-0.1c0.2,0,0.6,0,1,0c0.4,0,0.7,0,1,0c0.3,0,0.5,0.1,0.6,0.1c0.1,0.1,0.2,0.2,0.3,0.2
			c0.1,0.1,0.1,0.2,0.1,0.3V229.9z"/>
		<path class="st5" d="M332.2,229.9c0,0.2-0.1,0.3-0.2,0.4c-0.1,0.1-0.3,0.2-0.5,0.2c-0.2,0-0.5,0.1-1,0.1c-0.4,0-0.7,0-1-0.1
			c-0.2,0-0.4-0.1-0.5-0.2c-0.1-0.1-0.2-0.2-0.2-0.4v-2.1c-0.9,1-2,1.8-3.1,2.3c-1.1,0.6-2.4,0.8-3.7,0.8c-1.1,0-2.1-0.1-3.1-0.4
			c-0.9-0.3-1.7-0.7-2.3-1.3c-0.6-0.6-1.1-1.2-1.5-2c-0.4-0.8-0.5-1.7-0.5-2.8c0-1.2,0.2-2.3,0.7-3.1c0.5-0.9,1.2-1.6,2.1-2.2
			c0.9-0.6,2-1,3.4-1.3c1.3-0.3,2.8-0.4,4.5-0.4h3v-1.7c0-0.8-0.1-1.6-0.3-2.2c-0.2-0.6-0.5-1.2-0.8-1.6c-0.4-0.4-0.9-0.7-1.5-1
			c-0.6-0.2-1.4-0.3-2.3-0.3c-1,0-1.8,0.1-2.6,0.3c-0.8,0.2-1.4,0.5-2,0.8c-0.6,0.3-1.1,0.5-1.5,0.8c-0.4,0.2-0.7,0.3-0.9,0.3
			c-0.1,0-0.2,0-0.3-0.1c-0.1-0.1-0.2-0.2-0.3-0.3c-0.1-0.1-0.1-0.3-0.2-0.5c0-0.2,0-0.4,0-0.7c0-0.4,0-0.7,0.1-0.9
			c0.1-0.2,0.2-0.4,0.4-0.7c0.2-0.2,0.6-0.4,1.1-0.7c0.5-0.3,1.1-0.5,1.8-0.8c0.7-0.2,1.4-0.4,2.2-0.6c0.8-0.2,1.6-0.2,2.5-0.2
			c1.5,0,2.8,0.2,3.9,0.5s2,0.9,2.6,1.5c0.7,0.7,1.1,1.5,1.5,2.5c0.3,1,0.5,2.2,0.5,3.5V229.9z M328.3,220.1h-3.4
			c-1.1,0-2,0.1-2.8,0.3c-0.8,0.2-1.5,0.5-2,0.8c-0.5,0.4-0.9,0.8-1.2,1.3c-0.2,0.5-0.4,1.1-0.4,1.7c0,1.1,0.4,2,1.1,2.7
			c0.7,0.7,1.7,1,3,1c1,0,2-0.3,2.9-0.8c0.9-0.5,1.8-1.3,2.8-2.4V220.1z"/>
		<path class="st5" d="M343.3,229.9c0,0.1,0,0.2-0.1,0.3c-0.1,0.1-0.2,0.2-0.3,0.2c-0.1,0.1-0.3,0.1-0.6,0.1c-0.3,0-0.6,0-1,0
			c-0.4,0-0.7,0-1,0c-0.3,0-0.5-0.1-0.6-0.1c-0.1-0.1-0.3-0.1-0.3-0.2c-0.1-0.1-0.1-0.2-0.1-0.3v-31.8c0-0.1,0-0.2,0.1-0.3
			s0.2-0.2,0.3-0.2c0.2-0.1,0.4-0.1,0.6-0.1c0.3,0,0.6,0,1,0c0.4,0,0.7,0,1,0c0.3,0,0.5,0.1,0.6,0.1c0.1,0.1,0.2,0.1,0.3,0.2
			c0.1,0.1,0.1,0.2,0.1,0.3V229.9z"/>
		<path class="st5" d="M384.2,229.8c0,0.1,0,0.2-0.1,0.3c-0.1,0.1-0.2,0.2-0.3,0.2c-0.2,0.1-0.4,0.1-0.6,0.1c-0.3,0-0.6,0.1-1,0.1
			c-0.4,0-0.7,0-1-0.1c-0.3,0-0.5-0.1-0.6-0.1c-0.2-0.1-0.3-0.1-0.3-0.2c-0.1-0.1-0.1-0.2-0.1-0.3v-13.7h-14v13.7
			c0,0.1,0,0.2-0.1,0.3c-0.1,0.1-0.2,0.2-0.3,0.2c-0.2,0.1-0.4,0.1-0.6,0.1c-0.3,0-0.6,0.1-1,0.1c-0.4,0-0.7,0-1-0.1
			c-0.3,0-0.5-0.1-0.6-0.1c-0.2-0.1-0.3-0.1-0.3-0.2c-0.1-0.1-0.1-0.2-0.1-0.3v-29.6c0-0.1,0-0.2,0.1-0.3c0.1-0.1,0.2-0.2,0.3-0.2
			c0.2-0.1,0.4-0.1,0.6-0.1c0.3,0,0.6-0.1,1-0.1c0.4,0,0.7,0,1,0.1c0.3,0,0.5,0.1,0.6,0.1s0.3,0.1,0.3,0.2c0.1,0.1,0.1,0.2,0.1,0.3
			v12.3h14v-12.3c0-0.1,0-0.2,0.1-0.3c0.1-0.1,0.2-0.2,0.3-0.2s0.4-0.1,0.6-0.1c0.3,0,0.6-0.1,1-0.1c0.4,0,0.7,0,1,0.1
			c0.3,0,0.5,0.1,0.6,0.1c0.2,0.1,0.3,0.1,0.3,0.2c0.1,0.1,0.1,0.2,0.1,0.3V229.8z"/>
		<path class="st5" d="M410.2,218.2c0,0.6-0.2,1.1-0.5,1.3c-0.3,0.3-0.7,0.4-1.1,0.4h-14.1c0,1.2,0.1,2.3,0.4,3.2
			c0.2,1,0.6,1.8,1.2,2.4c0.6,0.7,1.3,1.2,2.2,1.6c0.9,0.4,2,0.5,3.3,0.5c1,0,1.9-0.1,2.7-0.3c0.8-0.2,1.5-0.4,2.1-0.6
			c0.6-0.2,1.1-0.4,1.4-0.6c0.4-0.2,0.7-0.3,0.8-0.3c0.1,0,0.2,0,0.3,0.1c0.1,0.1,0.2,0.1,0.2,0.3c0,0.1,0.1,0.3,0.1,0.5
			c0,0.2,0,0.4,0,0.7c0,0.2,0,0.4,0,0.5c0,0.1,0,0.3-0.1,0.4c0,0.1-0.1,0.2-0.1,0.3c-0.1,0.1-0.1,0.2-0.2,0.3
			c-0.1,0.1-0.3,0.2-0.8,0.4c-0.4,0.2-1,0.4-1.7,0.6c-0.7,0.2-1.5,0.4-2.4,0.5c-0.9,0.2-1.9,0.2-2.9,0.2c-1.8,0-3.3-0.2-4.6-0.7
			c-1.3-0.5-2.4-1.2-3.3-2.2c-0.9-1-1.6-2.2-2-3.6c-0.5-1.5-0.7-3.2-0.7-5.1c0-1.8,0.2-3.5,0.7-5c0.5-1.5,1.2-2.7,2.1-3.7
			c0.9-1,2-1.8,3.2-2.4c1.3-0.5,2.7-0.8,4.3-0.8c1.7,0,3.1,0.3,4.3,0.8c1.2,0.5,2.2,1.3,2.9,2.2c0.8,0.9,1.3,2,1.7,3.2
			c0.4,1.2,0.5,2.5,0.5,3.9V218.2z M406.3,217.1c0-2.1-0.4-3.7-1.4-4.9c-1-1.2-2.4-1.8-4.3-1.8c-1,0-1.8,0.2-2.6,0.5
			c-0.7,0.4-1.4,0.8-1.8,1.5c-0.5,0.6-0.9,1.3-1.1,2.1c-0.3,0.8-0.4,1.6-0.5,2.5H406.3z"/>
		<path class="st5" d="M432.3,229.9c0,0.2-0.1,0.3-0.2,0.4c-0.1,0.1-0.3,0.2-0.5,0.2c-0.2,0-0.5,0.1-1,0.1c-0.4,0-0.7,0-1-0.1
			c-0.2,0-0.4-0.1-0.5-0.2c-0.1-0.1-0.2-0.2-0.2-0.4v-2.1c-0.9,1-2,1.8-3.1,2.3c-1.2,0.6-2.4,0.8-3.7,0.8c-1.1,0-2.1-0.1-3.1-0.4
			c-0.9-0.3-1.7-0.7-2.3-1.3c-0.6-0.6-1.1-1.2-1.5-2c-0.4-0.8-0.5-1.7-0.5-2.8c0-1.2,0.2-2.3,0.7-3.1c0.5-0.9,1.2-1.6,2.1-2.2
			c0.9-0.6,2-1,3.4-1.3c1.3-0.3,2.8-0.4,4.5-0.4h3v-1.7c0-0.8-0.1-1.6-0.3-2.2c-0.2-0.6-0.5-1.2-0.8-1.6c-0.4-0.4-0.9-0.7-1.5-1
			c-0.6-0.2-1.4-0.3-2.3-0.3c-1,0-1.8,0.1-2.6,0.3c-0.8,0.2-1.4,0.5-2,0.8c-0.6,0.3-1.1,0.5-1.5,0.8c-0.4,0.2-0.7,0.3-0.9,0.3
			c-0.1,0-0.2,0-0.3-0.1c-0.1-0.1-0.2-0.2-0.3-0.3c-0.1-0.1-0.1-0.3-0.2-0.5c0-0.2,0-0.4,0-0.7c0-0.4,0-0.7,0.1-0.9
			c0.1-0.2,0.2-0.4,0.4-0.7c0.2-0.2,0.6-0.4,1.1-0.7c0.5-0.3,1.1-0.5,1.8-0.8c0.7-0.2,1.4-0.4,2.2-0.6c0.8-0.2,1.6-0.2,2.5-0.2
			c1.5,0,2.8,0.2,3.9,0.5s2,0.9,2.6,1.5c0.7,0.7,1.1,1.5,1.5,2.5c0.3,1,0.5,2.2,0.5,3.5V229.9z M428.4,220.1h-3.4
			c-1.1,0-2,0.1-2.8,0.3c-0.8,0.2-1.5,0.5-2,0.8c-0.5,0.4-0.9,0.8-1.2,1.3c-0.2,0.5-0.4,1.1-0.4,1.7c0,1.1,0.4,2,1.1,2.7
			c0.7,0.7,1.7,1,3,1c1,0,2-0.3,2.9-0.8c0.9-0.5,1.8-1.3,2.8-2.4V220.1z"/>
		<path class="st5" d="M443.5,229.9c0,0.1,0,0.2-0.1,0.3c-0.1,0.1-0.2,0.2-0.3,0.2c-0.1,0.1-0.3,0.1-0.6,0.1c-0.3,0-0.6,0-1,0
			c-0.4,0-0.7,0-1,0c-0.3,0-0.5-0.1-0.6-0.1c-0.2-0.1-0.3-0.1-0.3-0.2c-0.1-0.1-0.1-0.2-0.1-0.3v-31.8c0-0.1,0-0.2,0.1-0.3
			c0.1-0.1,0.2-0.2,0.3-0.2c0.2-0.1,0.4-0.1,0.6-0.1c0.3,0,0.6,0,1,0c0.4,0,0.7,0,1,0c0.3,0,0.5,0.1,0.6,0.1
			c0.1,0.1,0.2,0.1,0.3,0.2c0.1,0.1,0.1,0.2,0.1,0.3V229.9z"/>
		<path class="st5" d="M461.9,228.3c0,0.5,0,0.8-0.1,1.1c-0.1,0.3-0.2,0.5-0.3,0.6c-0.1,0.1-0.3,0.2-0.6,0.4
			c-0.3,0.1-0.5,0.2-0.9,0.3c-0.3,0.1-0.7,0.1-1,0.2c-0.4,0-0.7,0.1-1.1,0.1c-1.1,0-2.1-0.1-2.9-0.4c-0.8-0.3-1.4-0.7-2-1.3
			c-0.5-0.6-0.9-1.3-1.1-2.3c-0.2-0.9-0.3-2-0.3-3.2v-12.5h-3c-0.2,0-0.4-0.1-0.6-0.4c-0.1-0.3-0.2-0.7-0.2-1.2c0-0.3,0-0.6,0.1-0.8
			c0-0.2,0.1-0.4,0.2-0.5c0.1-0.1,0.1-0.2,0.3-0.3c0.1-0.1,0.2-0.1,0.3-0.1h3v-5.1c0-0.1,0-0.2,0.1-0.3c0.1-0.1,0.2-0.2,0.3-0.3
			c0.2-0.1,0.4-0.1,0.6-0.2c0.3,0,0.6,0,1,0c0.4,0,0.7,0,1,0c0.3,0,0.5,0.1,0.6,0.2c0.1,0.1,0.2,0.2,0.3,0.3
			c0.1,0.1,0.1,0.2,0.1,0.3v5.1h5.5c0.1,0,0.2,0,0.3,0.1c0.1,0.1,0.2,0.2,0.3,0.3c0.1,0.1,0.1,0.3,0.2,0.5c0,0.2,0,0.5,0,0.8
			c0,0.6-0.1,1-0.2,1.2c-0.1,0.3-0.3,0.4-0.6,0.4h-5.5V223c0,1.5,0.2,2.6,0.7,3.3c0.4,0.8,1.2,1.1,2.3,1.1c0.4,0,0.7,0,1-0.1
			c0.3-0.1,0.5-0.1,0.8-0.2c0.2-0.1,0.4-0.2,0.6-0.2c0.2-0.1,0.3-0.1,0.4-0.1c0.1,0,0.2,0,0.2,0.1c0.1,0,0.1,0.1,0.2,0.2
			c0,0.1,0.1,0.3,0.1,0.5C461.9,227.8,461.9,228,461.9,228.3"/>
		<path class="st5" d="M485.5,229.9c0,0.1,0,0.2-0.1,0.3c-0.1,0.1-0.2,0.2-0.3,0.2c-0.1,0.1-0.3,0.1-0.6,0.1c-0.3,0-0.6,0-1,0
			c-0.4,0-0.7,0-1,0c-0.3,0-0.5-0.1-0.6-0.1c-0.1-0.1-0.2-0.1-0.3-0.2c-0.1-0.1-0.1-0.2-0.1-0.3v-12.5c0-1.2-0.1-2.2-0.3-3
			c-0.2-0.7-0.5-1.4-0.8-1.9c-0.4-0.5-0.8-1-1.4-1.2c-0.6-0.3-1.3-0.4-2-0.4c-1,0-2,0.3-3,1c-1,0.7-2,1.7-3.1,3.1v15
			c0,0.1,0,0.2-0.1,0.3c-0.1,0.1-0.2,0.2-0.3,0.2c-0.1,0.1-0.3,0.1-0.6,0.1c-0.3,0-0.6,0-1,0c-0.4,0-0.7,0-1,0
			c-0.3,0-0.5-0.1-0.6-0.1c-0.2-0.1-0.3-0.1-0.3-0.2c-0.1-0.1-0.1-0.2-0.1-0.3v-31.8c0-0.1,0-0.2,0.1-0.3c0.1-0.1,0.2-0.2,0.3-0.2
			s0.4-0.1,0.6-0.1c0.3,0,0.6,0,1,0c0.4,0,0.7,0,1,0c0.3,0,0.5,0.1,0.6,0.1c0.1,0.1,0.2,0.1,0.3,0.2c0.1,0.1,0.1,0.2,0.1,0.3v12.8
			c1.1-1.2,2.3-2.1,3.4-2.7c1.1-0.6,2.3-0.9,3.5-0.9c1.4,0,2.6,0.2,3.6,0.7c1,0.5,1.8,1.1,2.4,1.9c0.6,0.8,1,1.8,1.3,2.8
			c0.3,1.1,0.4,2.4,0.4,3.9V229.9z"/>
	</g>
</g>
</svg>
