<svg version="1.1" id="Layer_1" xmlns="http://www.w3.org/2000/svg" xmlns:xlink="http://www.w3.org/1999/xlink" x="0" y="0" viewBox="0 0 612 202.5" xml:space="preserve"><style>.st0{fill:#eebd50}.st1{fill:#fff}</style><path id="XMLID_52_" class="st0" d="M359.7 56.7h52.1V65h-52.1z"/><path id="XMLID_51_" class="st0" d="M359.7 73.3h52.1v8.3h-52.1z"/><path id="XMLID_50_" class="st0" d="M359.7 89.9h52.1v8.3h-52.1z"/><path id="XMLID_49_" class="st0" d="M359.7 106.6h52.1v8.3h-52.1z"/><path id="XMLID_48_" class="st0" d="M359.7 123.2h52.1v8.3h-52.1z"/><path id="XMLID_47_" class="st0" d="M359.7 139.8h52.1v8.3h-52.1z"/><path id="XMLID_46_" class="st1" d="M331.1 98.2l-30.4-30v30h-8.3V56.7h8.6l30.4 30.1V56.7h8.1v41.5z"/><g id="XMLID_109_"><defs><path id="XMLID_42_" d="M0 .1h612v202.3H0z"/></defs><clipPath id="XMLID_90_"><use xlink:href="#XMLID_42_" overflow="visible"/></clipPath></g><path id="XMLID_41_" class="st1" d="M0 106.6v41.5h8.3v-16.6h22.9v-8.3H8.3v-8.3h33.5v-8.3z"/><g id="XMLID_103_"><defs><path id="XMLID_38_" d="M0 .1h612v202.3H0z"/></defs><clipPath id="XMLID_91_"><use xlink:href="#XMLID_38_" overflow="visible"/></clipPath></g><path id="XMLID_37_" class="st1" d="M293.9 114.9v33.2h-8.3v-33.2h-19.1v-8.3H313v8.3z"/><path id="XMLID_36_" class="st1" d="M331.2 106.6h8.3v41.5h-8.3z"/><g id="XMLID_93_"><defs><path id="XMLID_31_" d="M0 .1h612v202.3H0z"/></defs><clipPath id="XMLID_92_"><use xlink:href="#XMLID_31_" overflow="visible"/></clipPath></g><path id="XMLID_30_" class="st1" d="M238.2 148.1l-30.3-29.9-.1 29.9h-8.3v-41.5h8.6l30.4 30.1v-30.1h8.2v41.5z"/><g id="XMLID_87_"><defs><path id="XMLID_27_" d="M0 .1h612v202.3H0z"/></defs><clipPath id="XMLID_94_"><use xlink:href="#XMLID_27_" overflow="visible"/></clipPath></g><path id="XMLID_26_" class="st1" d="M94.1 64.7v33.4H84V64.7H64.3v-7.9h49.4v7.9z"/><path id="XMLID_25_" class="st1" d="M168.6 98.1V80.4h-29.9v17.7h-10V56.9h10v15h29.9v-15h10v41.2z"/><path id="XMLID_24_" class="st1" d="M198.5 98.1V56.8h44.7v7.9h-34.7v8.5h24.1v7.9h-24.1v9.1h36.3v7.9z"/><g id="XMLID_80_"><defs><path id="XMLID_21_" d="M0 .1h612v202.3H0z"/></defs><clipPath id="XMLID_96_"><use xlink:href="#XMLID_21_" overflow="visible"/></clipPath></g><path id="XMLID_20_" class="st1" d="M409 201.3v-38.2h-.3l-23.1 29.8-23.2-29.8h-.2v38.2h-3.7v-41.8h5.8l21.3 27.9 21.3-27.9h5.8v41.8z"/><path id="XMLID_19_" class="st1" d="M484.4 201.3v-38.2h-.2l-23.1 29.8-23.2-29.8h-.2v38.2h-3.8v-41.8h5.9l21.3 27.9 21.3-27.9h5.8v41.8z"/><path id="XMLID_18_" class="st1" d="M509.4 159.5h3.8v41.8h-3.8z"/><path id="XMLID_17_" class="st1" d="M551.1 163.1v38.2h-3.7v-38.2h-20v-3.6h43.7v3.6z"/><path id="XMLID_16_" class="st1" d="M71.9 43.2V1.5h38.9v3.6H75.6v14.2h24.5v3.6H75.6v16.7h36.8v3.6z"/><path id="XMLID_65_" class="st1" d="M339.5 5.1h-.5l-12.6 23.7H352L339.5 5.1zm20.2 38.1L354 32.4h-29.4l-5.8 10.8h-4.3l22.1-41.8h5.5l22 41.8h-4.4z"/><path id="XMLID_8_" class="st1" d="M388 5.1v38.1h-3.7V5.1h-20V1.5H408v3.6z"/><path id="XMLID_7_" class="st1" d="M421.3 1.5h3.8v41.8h-3.8z"/><g id="XMLID_58_"><defs><path id="XMLID_4_" d="M0 .1h612v202.3H0z"/></defs><clipPath id="XMLID_97_"><use xlink:href="#XMLID_4_" overflow="visible"/></clipPath></g><path id="XMLID_3_" class="st1" d="M551.2 43.2L515.9 5.1v38.1h-3.8V1.5h5.5l35.1 38.1V1.5h3.8v41.7z"/><path id="XMLID_2_" class="st1" d="M575.5 15.1h5.2v5.2h-5.2z"/><path id="XMLID_1_" class="st1" d="M575.5 37.8h5.2V43h-5.2z"/><path id="XMLID_105_" class="st1" d="M98.8 147.9L88 131.3H69.8v16.6h-8.3v-41.5h32.7c8.7 0 14 5 14 13.1 0 7.3-4.6 11.2-10.8 12.3l11.1 16.2h-9.7zm.9-29.1c0-4-3-4.1-7.1-4.1H69.8v8.3h23.4c3.7 0 6.5-.1 6.5-4.2"/><path id="XMLID_89_" class="st1" d="M171 110.9c-4.6-3.5-11.2-5.6-17.9-5.6-6.8 0-13.2 2-18 5.6-5.6 4.3-8.5 9.8-8.5 16.4 0 6.8 2.8 12.3 8.4 16.5 4.6 3.5 11.2 5.5 18.1 5.5 6.9 0 13.3-1.9 18-5.5 5.6-4.2 8.4-9.8 8.4-16.6-.1-6.4-3-12.1-8.5-16.3m-17.9 30.3c-10.7 0-17.6-5.5-17.6-13.9 0-8.2 7.2-13.9 17.6-13.9 4.5 0 8.9 1.3 12 3.5 3.7 2.7 5.5 6.1 5.5 10.4-.1 8.5-6.9 13.9-17.5 13.9"/><path id="XMLID_72_" class="st1" d="M167 34.6c2.8-3.1 4.4-7.3 4.4-11.9 0-10.4-6.9-17.5-17.2-17.5h-21.7v34.5h22.8c4.7-.1 8.7-1.8 11.7-5.1m8.8-11.8c0 5.8-2.1 10.8-5.9 14.7-3.8 3.8-9 5.8-14.8 5.8h-26.3V1.5h24.9c13.7 0 22.1 8.2 22.1 21.3"/><path id="XMLID_11_" fill="none" d="M0 .1h612v202.3H0z"/><g id="XMLID_68_"><path id="XMLID_13_" class="st1" d="M216.6 44.4c-13.6 0-22.1-6-22.1-14.3V1.5h3.8v27.3c0 8 6.2 12.1 18.4 12.1 12.1 0 18.2-4.1 18.2-12.1V1.5h3.8v28.7c-.1 8.3-8.4 14.2-22.1 14.2"/><path id="XMLID_12_" class="st1" d="M300.8 10.7c-4.7-4.9-10.6-7.1-18.3-7.1-5.5 0-10.7 1.7-14.4 4.6-4.5 3.6-6.8 8.3-6.8 14 0 11 8.5 18.6 21.1 18.6 8.2 0 14.1-2.1 18.3-6.9l3.1 2c-4.1 5.4-11.3 8.5-20.9 8.5-5.4 0-10.2-1.1-14.3-3.3-7.3-3.8-11.3-10.6-11.3-18.9 0-6.6 2.6-12.2 7.7-16.4 4.4-3.6 10.6-5.7 17.4-5.7 9.5 0 17 3.3 21.6 9.3l-3.2 1.3z"/></g><path id="XMLID_45_" class="st1" d="M451.3 99.5c-14.6 0-23.6-6.2-23.6-14.7V56.7h8.3v26.4c0 6.4 6 8 15.3 8 9.2 0 15.2-1.5 15.2-8V56.7h8.2v28.1c.1 8.5-8.9 14.7-23.4 14.7"/><path id="XMLID_95_" class="st1" d="M532.9 98.2l-10.7-16.6H504v16.6h-8.3V56.7h32.7c8.7 0 14 5 14 13.1 0 7.3-4.6 11.2-10.8 12.3l11.1 16.2h-9.8zm.9-29.1c0-4-3-4.1-7.1-4.1h-22.8v8.3h23.4c3.7 0 6.5-.1 6.5-4.2"/><path id="XMLID_111_" class="st1" d="M603.7 61.6c-4.6-3.5-11-5.5-17.7-5.5-6.7 0-13 1.9-17.7 5.5-5.6 4.2-8.4 9.7-8.4 16.2 0 6.7 2.8 12.1 8.3 16.3 4.5 3.4 11 5.4 17.8 5.4 6.8 0 13.1-1.9 17.7-5.4 5.5-4.1 8.3-9.6 8.3-16.3 0-6.5-2.9-12.1-8.3-16.2M586 91.5c-10.5 0-17.3-5.4-17.3-13.7 0-8.1 7.1-13.7 17.3-13.7 4.5 0 8.8 1.3 11.8 3.5 3.6 2.7 5.4 6 5.4 10.3 0 8.2-6.7 13.6-17.2 13.6"/><path id="XMLID_98_" class="st1" d="M465.1 148.1l-10.7-16.6h-18.2v16.6h-8.3v-41.5h32.7c8.7 0 14 5 14 13.1 0 7.3-4.6 11.2-10.8 12.3l11.1 16.2h-9.8zm.9-29.1c0-4-3-4.1-7.1-4.1h-22.8v8.3h23.4c3.7 0 6.5-.1 6.5-4.2"/><path id="XMLID_23_" class="st1" d="M251.4 162c-10.4 0-16 3-16 8.1 0 5.4 5.4 6.8 15.9 7.2 7.3.3 13 .5 17.1 2.2 4.2 1.8 6.1 4.8 6.1 9.3 0 8.4-7.6 13.4-21.5 13.4-9.4 0-17.1-2.1-23-6.2l2.2-3.2c6.2 4 12.6 5.8 20 5.8 11.7 0 17.9-3.7 17.9-9.7 0-5.9-5.5-7.7-17-8.2-7-.3-12.3-.5-16.1-2-4.2-1.6-6.1-4.2-6.1-8.4 0-7.5 7.2-12.1 20.2-12.1 8.7 0 15.3 1.5 20.3 4.8l-2.7 2.9c-5.3-2.7-10.8-3.9-17.3-3.9"/><path id="XMLID_22_" class="st1" d="M315.3 202.5c-13.6 0-22.1-6-22.1-14.3v-28.7h3.8v27.3c0 8 6.2 12.1 18.3 12.1 12.1 0 18.2-4.1 18.2-12.1v-27.3h3.7v28.7c0 8.3-8.3 14.3-21.9 14.3"/><path id="XMLID_60_" class="st1" d="M482.6 8.3c-3.7-2.9-8.8-4.7-14.4-4.7-5.5 0-10.7 1.8-14.4 4.7-4.5 3.6-6.8 8.3-6.8 14 0 11.1 8.4 18.6 21.1 18.6 12.8 0 21.2-7.5 21.2-18.6.1-5.7-2.2-10.4-6.7-14m3.1 30.4c-4.4 3.6-10.5 5.7-17.4 5.7-6.9 0-13.1-2.1-17.5-5.7-5.1-4.2-7.7-9.7-7.7-16.4 0-6.6 2.7-12.2 7.8-16.4 4.4-3.6 10.6-5.8 17.4-5.8 6.8 0 12.9 2.1 17.4 5.8 5.1 4.2 7.8 9.8 7.8 16.4-.1 6.7-2.7 12.2-7.8 16.4"/></svg>