<svg xmlns="http://www.w3.org/2000/svg" xmlns:xlink="http://www.w3.org/1999/xlink" viewBox="0 0 44.7 44.7"><defs><path id="a" d="M0 0h44.7v44.7H0z"/></defs><clipPath id="b"><use overflow="visible" xlink:href="#a"/></clipPath><path fill="#ed2024" d="M32.5 44.7c-3.1 0-6.3-1.2-8.7-3.6L3.6 20.9c-4.8-4.8-4.8-12.5 0-17.3L6.5.7c.4-.5 1-.7 1.6-.7.6 0 1.2.2 1.6.7L18 9c.4.4.7 1 .7 1.6 0 .6-.2 1.2-.7 1.6l-3.6 3.6c-.9.9-.9 2.4 0 3.3l11.1 11.1c.9.9 2.4.9 3.3 0l3.6-3.6c.9-.9 2.3-.9 3.2 0L44 35c.9.9.9 2.3 0 3.2l-2.9 2.9c-2.4 2.4-5.5 3.6-8.6 3.6" clip-path="url(#b)"/></svg>