<?xml version="1.0" encoding="utf-8"?>
<!-- Generator: Adobe Illustrator 19.0.0, SVG Export Plug-In . SVG Version: 6.00 Build 0)  -->
<svg version="1.1" id="Layer_1" xmlns="http://www.w3.org/2000/svg" xmlns:xlink="http://www.w3.org/1999/xlink" x="0px" y="0px"
	 viewBox="0 0 171.3 154.5" style="enable-background:new 0 0 171.3 154.5;" xml:space="preserve">
<style type="text/css">
	.st0{fill:#78A4B6;}
</style>
<g id="XMLID_58_">
	<path id="XMLID_60_" class="st0" d="M0.1,91.4c3.7,2.4,8.6,5.4,11.6,6.7c7.7,2.6,16.6,1.9,20.8,1.4c-0.6-3-3-8-12.9-10.7l1.7-6.1
		C37.1,86.9,39,96.8,39,101.1l9,7.4c0.2-7.1-0.1-18.8-2.5-24c-2.5-5.3-14-12.5-23-17.1C17.5,78.5,6.9,81.9,0,82.9
		c0.1-2.2,0.2-4.4,0.4-6.5c5.5-1.1,12.9-3.9,16.3-11.7c-0.2-0.1-0.4-0.2-0.6-0.3l-2-0.8c-3.5-1.5-6.6-2.8-9.8-5.4
		c0.7-2.2,1.5-4.3,2.4-6.4c3.1,3.1,5.9,4.3,9.8,5.9l2,0.9c0.2,0.1,10.5,4.6,19.7,10.7c0.7-4.3,0.1-8.4-1.9-12.2
		c-4.9-9.4-16.8-15-23.3-17.4c1.2-1.8,2.4-3.6,3.7-5.4c7.5,3,19.6,9.3,25.2,19.8c3.1,5.9,3.7,12.4,1.8,19.2c1.5,1.3,2.9,2.6,4.1,3.9
		c0.9-2.4,2.1-4.9,3.2-7.3c2.3-4.8,4.7-9.9,4.3-13.9c-0.7-6.2-12.9-16.3-20.7-21.3c-0.1,0-5-3.7-12.5-7.1c1.5-1.7,3.1-3.2,4.7-4.8
		c6.8,3.3,11.2,6.6,11.3,6.7c0,0,0.1,0.1,0.2,0.1l-0.1-0.2c0,0,4.1-2.3,5.1-6.8c0.6-3.1-0.3-6.5-2.7-10.4c1.8-1.1,3.6-2.1,5.5-3.1
		c3.2,5.2,4.3,10.2,3.4,14.8c-0.9,4.6-3.8,7.7-5.9,9.4c3.1,2.3,6.9,5.5,10.3,9c0.4-7.6,2.6-15.6,5.8-23c-4.2-4.4-6.7-8.7-7.5-13.1
		c2-0.8,4-1.6,6.1-2.3c0.1,2.9,1.6,6,4.4,9.2c2.5-4.6,5.5-8.8,8.6-12.4C75,0.5,78.3,0.2,81.8,0C74,6.3,65.9,19,62.3,32
		c4.8-1,8.7-3.2,11.8-6.6l4.7,4.2c-3.2,3.6-8.9,8-17.9,9c-0.8,5.2-0.7,10.4,0.5,15.1l-0.1,0c0.2,0.6,0.3,1.2,0.4,1.7
		c0.3,2.3,0,4.6-0.6,6.8c11.2-1.8,13.1-16,13.1-16.7l6.3,0.7c-0.9,8-6.7,22.5-21.8,22.5c0,0,0,0-0.1,0c-0.6,1.3-1.2,2.6-1.8,4
		c-2.5,5.2-4.8,10.1-4.1,14l0,0c0.8,3.7,1.3,8,1.5,12c3.3-2.6,8.3-5.4,15.7-6.9l1.2,6.2c-12.8,2.6-16.6,9.5-16.8,9.8l0,0
		c0,2.3-0.1,4-0.2,4.5v43.2h-6.3l0-39l-13.3-11.1c-2,0.3-5.4,0.7-9.5,0.7c-4.7,0-10.2-0.5-15.5-2.3c-2.4-1-5.7-2.9-8.8-4.8
		C0.4,96.5,0.2,93.9,0.1,91.4z"/>
	<path id="XMLID_59_" class="st0" d="M101.2,77.1c-0.5-3.1-2.2-8.5-6.9-12.1l3.8-5c7.3,5.5,9.1,14,9.6,17.6l9.6,6.6
		c0.6-4.5,1.9-11.9,5-19.2c-1.5-3.3-6.2-12.2-15.4-15.9c-16-6.5-16-26.9-16-33.6c0-5,0.2-10.7,0.4-15.2c2.1,0.1,4.2,0.4,6.3,0.6
		c-0.2,4.3-0.4,9.8-0.4,14.6c0,3.2,0.2,6.1,0.5,8.8c4.1-3.3,11.6-10.9,9.5-21.4c2.2,0.6,4.4,1.3,6.6,2c1,14.8-11.7,24.2-14.7,26.2
		C101,37,104.3,41,109,43l10.1-25.4l4.4-8.9c1.9,0.9,3.8,1.9,5.6,3l-4.1,8.4l-6.1,15.4c3.8-1.1,10.5-4.2,16-12.8
		c1.3-2,2.1-3.7,2.8-5.3c1.7,1.3,3.4,2.7,5.1,4.2c-0.7,1.4-1.5,2.9-2.5,4.5c-10,15.4-23.5,16.3-24.1,16.3l0,0l-1.4,3.6
		c5.3,3.5,8.9,8.3,11.1,12c0-0.1,0.1-0.2,0.1-0.2c0.2-0.3,11.9-18.9,23.6-29.3c1.4,1.6,2.8,3.2,4.1,4.9
		c-6.7,6.2-15.4,16.7-22.3,27.8c-0.3,0.5-0.6,1.1-0.9,1.6c4.1,1.1,8.2,1.4,12,1.4c0.4-13.1,10.8-20.8,16.1-23.8
		c1.1,1.8,2.2,3.6,3.2,5.5c-4,2.4-12.1,8.3-12.8,17.9c6-0.7,10.1-2.1,10.3-2.2c0.1,0,4.2-1.2,7.7-3.7c0.7,2.1,1.4,4.1,1.9,6.3
		c-3.9,2.3-7.6,3.4-7.7,3.4c-0.5,0.2-8.7,2.9-19.1,2.9c-4.4,0-9.3-0.5-14.2-1.9c-4,10.1-4.4,20.1-4.4,20.1v13.9
		c3.3-1.5,7.9-4,11.4-7.3c0.2-0.2,0.5-0.4,0.7-0.6c0.7-7.2,2.6-13.9,5.8-20l5.6,2.9c-2,3.8-3.3,7.9-4.3,12.2
		c6.4-3.2,14.1-4.7,22.5-4.3l0.3,0c0.9,0,3.4,0.5,6.1,1.1c0,2-0.1,4.2-0.3,6.4c-2.6-0.6-5.2-1.2-5.8-1.2c-0.1,0-0.3,0-0.6,0
		c-7.7-0.4-14.6,1-20.1,4c10.6,8.8,20.9,6.6,21.4,6.4l4.1-0.9c-0.3,2.2-0.7,4.4-1.1,6.7l-1.5,0.3c-0.2,0.1-2.2,0.5-5.2,0.5
		c-5.4,0-14.3-1.5-23-9.3c-0.1,0.1-0.2,0.1-0.2,0.2c-5.2,4.9-12.3,8.2-15.7,9.6v45.1h-6.3l0-37.5c-1.5,0.3-2.9,0.4-4.3,0.4
		c-14.5,0-24-13.2-24.4-13.9l5.2-3.6c0.1,0.1,3.6,5,9.3,8.3c1.6-7.3-3-15.2-3.1-15.3l5.4-3.3c0.3,0.5,6.4,10.8,3.6,21
		c2.6,0.6,5.4,0.7,8.4,0l0-19.1l-12.6-8.7c-5.6,1.8-11.3,2.7-17,2.7c-1,0-2,0-3-0.1l0.4-6.3C90.1,79.4,95.7,78.7,101.2,77.1z"/>
</g>
</svg>
