<?xml version="1.0" encoding="utf-8"?>
<!-- Generator: Adobe Illustrator 19.0.0, SVG Export Plug-In . SVG Version: 6.00 Build 0)  -->
<svg version="1.1" id="Layer_1" xmlns="http://www.w3.org/2000/svg" xmlns:xlink="http://www.w3.org/1999/xlink" x="0px" y="0px"
	 viewBox="0 0 171.6 223.3" style="enable-background:new 0 0 171.6 223.3;" xml:space="preserve">
<style type="text/css">
	.st0{fill:#FFFFFF;}
	.st1{fill:#78A4B6;}
</style>
<polygon class="st0" points="141.4,137.9 110,194.3 94.4,166.1 110.1,137.9 94.1,137.9 86.5,151.7 78.9,137.9 62.9,137.9 
	78.4,166.1 62.9,194 32,137.9 16,137.9 62.8,222.8 86.4,180.5 109.9,223.1 157.4,137.9 "/>
<g>
	<path class="st1" d="M171.5,91.4c-3.7,2.4-8.6,5.4-11.6,6.7c-7.7,2.6-16.6,1.9-20.8,1.4c0.6-3,3-8,12.9-10.7l-1.7-6.1
		c-15.7,4.3-17.6,14.2-17.7,18.5l-9,7.4c-0.2-7.1,0.1-18.8,2.5-24c2.5-5.3,14-12.5,23-17.1c4.9,11,15.5,14.4,22.4,15.5
		c-0.1-2.2-0.2-4.4-0.4-6.5c-5.5-1.1-12.9-3.9-16.3-11.7c0.2-0.1,0.4-0.2,0.6-0.3l2-0.8c3.5-1.5,6.6-2.8,9.8-5.4
		c-0.7-2.2-1.5-4.3-2.4-6.4c-3.1,3.1-5.9,4.3-9.8,5.9l-2,0.9c-0.2,0.1-10.5,4.6-19.7,10.7c-0.7-4.3-0.1-8.4,1.9-12.2
		c4.9-9.4,16.8-15,23.3-17.4c-1.2-1.8-2.4-3.6-3.7-5.4c-7.5,3-19.6,9.3-25.2,19.8c-3.1,5.9-3.7,12.4-1.8,19.2
		c-1.5,1.3-2.9,2.6-4.1,3.9c-0.9-2.4-2.1-4.9-3.2-7.3c-2.3-4.8-4.7-9.9-4.3-13.9c0.7-6.2,12.9-16.3,20.7-21.3c0.1,0,5-3.7,12.5-7.1
		c-1.5-1.7-3.1-3.2-4.7-4.8c-6.8,3.3-11.2,6.6-11.3,6.7c0,0-0.1,0.1-0.2,0.1l0.1-0.2c0,0-4.1-2.3-5.1-6.8c-0.6-3.1,0.3-6.5,2.7-10.4
		c-1.8-1.1-3.6-2.1-5.5-3.1c-3.2,5.2-4.3,10.2-3.4,14.8c0.9,4.6,3.8,7.7,5.9,9.4c-3.1,2.3-6.9,5.5-10.3,9c-0.4-7.6-2.6-15.6-5.8-23
		c4.2-4.4,6.7-8.7,7.5-13.1c-2-0.8-4-1.6-6.1-2.3c-0.1,2.9-1.6,6-4.4,9.2c-2.5-4.6-5.5-8.8-8.6-12.4C96.7,0.5,93.3,0.2,89.8,0
		c7.8,6.3,15.9,19,19.4,32c-4.8-1-8.7-3.2-11.8-6.6l-4.7,4.2c3.2,3.6,8.9,8,17.9,9c0.8,5.2,0.7,10.4-0.5,15.1l0.1,0
		c-0.2,0.6-0.3,1.2-0.4,1.7c-0.3,2.3,0,4.6,0.6,6.8c-11.2-1.8-13.1-16-13.1-16.7L91,46.4c0.9,8,6.7,22.5,21.8,22.5c0,0,0,0,0.1,0
		c0.6,1.3,1.2,2.6,1.8,4c2.5,5.2,4.8,10.1,4.1,14l0,0c-0.8,3.7-1.3,8-1.5,12c-3.3-2.6-8.3-5.4-15.7-6.9l-1.2,6.2
		c12.8,2.6,16.6,9.5,16.8,9.8l0,0c0,2.3,0.1,4,0.2,4.5v43.2h6.3l0-39l13.3-11.1c2,0.3,5.4,0.7,9.5,0.7c4.7,0,10.2-0.5,15.5-2.3
		c2.4-1,5.7-2.9,8.8-4.8C171.2,96.5,171.4,93.9,171.5,91.4z"/>
	<path class="st1" d="M70.4,77.1c0.5-3.1,2.2-8.5,6.9-12.1l-3.8-5c-7.3,5.5-9.1,14-9.6,17.6l-9.6,6.6c-0.6-4.5-1.9-11.9-5-19.2
		c1.5-3.3,6.2-12.2,15.4-15.9c16-6.5,16-26.9,16-33.6c0-5-0.2-10.7-0.4-15.2c-2.1,0.1-4.2,0.4-6.3,0.6c0.2,4.3,0.4,9.8,0.4,14.6
		c0,3.2-0.2,6.1-0.5,8.8c-4.1-3.3-11.6-10.9-9.5-21.4c-2.2,0.6-4.4,1.3-6.6,2c-1,14.8,11.7,24.2,14.7,26.2C70.6,37,67.3,41,62.6,43
		L52.5,17.6l-4.4-8.9c-1.9,0.9-3.8,1.9-5.6,3l4.1,8.4l6.1,15.4c-3.8-1.1-10.5-4.2-16-12.8c-1.3-2-2.1-3.7-2.8-5.3
		c-1.7,1.3-3.4,2.7-5.1,4.2c0.7,1.4,1.5,2.9,2.5,4.5c10,15.4,23.5,16.3,24.1,16.3l0,0L57,46c-5.3,3.5-8.9,8.3-11.1,12
		c0-0.1-0.1-0.2-0.1-0.2c-0.2-0.3-11.9-18.9-23.6-29.3c-1.4,1.6-2.8,3.2-4.1,4.9c6.7,6.2,15.4,16.7,22.3,27.8
		c0.3,0.5,0.6,1.1,0.9,1.6c-4.1,1.1-8.2,1.4-12,1.4c-0.4-13.1-10.8-20.8-16.1-23.8c-1.1,1.8-2.2,3.6-3.2,5.5
		c4,2.4,12.1,8.3,12.8,17.9c-6-0.7-10.1-2.1-10.3-2.2c-0.1,0-4.2-1.2-7.7-3.7C4.2,59.8,3.5,61.9,3,64c3.9,2.3,7.6,3.4,7.7,3.4
		c0.5,0.2,8.7,2.9,19.1,2.9c4.4,0,9.3-0.5,14.2-1.9c4,10.1,4.4,20.1,4.4,20.1v13.9c-3.3-1.5-7.9-4-11.4-7.3
		c-0.2-0.2-0.5-0.4-0.7-0.6c-0.7-7.2-2.6-13.9-5.8-20L25,77.6c2,3.8,3.3,7.9,4.3,12.2c-6.4-3.2-14.1-4.7-22.5-4.3l-0.3,0
		c-0.9,0-3.4,0.5-6.1,1.1c0,2,0.1,4.2,0.3,6.4c2.6-0.6,5.2-1.2,5.8-1.2c0.1,0,0.3,0,0.6,0c7.7-0.4,14.6,1,20.1,4
		c-10.6,8.8-20.9,6.6-21.4,6.4l-4.1-0.9c0.3,2.2,0.7,4.4,1.1,6.7l1.5,0.3c0.2,0.1,2.2,0.5,5.2,0.5c5.4,0,14.3-1.5,23-9.3
		c0.1,0.1,0.2,0.1,0.2,0.2c5.2,4.9,12.3,8.2,15.7,9.6v45.1h6.3l0-37.5c1.5,0.3,2.9,0.4,4.3,0.4c14.5,0,24-13.2,24.4-13.9l-5.2-3.6
		c-0.1,0.1-3.6,5-9.3,8.3c-1.6-7.3,3-15.2,3.1-15.3l-5.4-3.3c-0.3,0.5-6.4,10.8-3.6,21c-2.6,0.6-5.4,0.7-8.4,0l0-19.1l12.6-8.7
		c5.6,1.8,11.3,2.7,17,2.7c1,0,2,0,3-0.1L87,79.1C81.5,79.4,75.9,78.7,70.4,77.1z"/>
</g>
</svg>
