<?xml version="1.0" encoding="utf-8"?>
<!-- Generator: Adobe Illustrator 19.0.0, SVG Export Plug-In . SVG Version: 6.00 Build 0)  -->
<svg version="1.1" id="Layer_1" xmlns="http://www.w3.org/2000/svg" xmlns:xlink="http://www.w3.org/1999/xlink" x="0px" y="0px"
	 viewBox="0 0 379.2 95.8" style="enable-background:new 0 0 379.2 95.8;" xml:space="preserve">
<style type="text/css">
	.st0{fill:#363635;}
	.st1{fill:#78A4B6;}
</style>
<g>
	<path class="st0" d="M0,57.5C0,48,7.2,39.4,17,39.4c10.1,0,16.8,9.2,16.8,18.2c0,9.5-7.1,18-17,18C6.8,75.6,0,66.7,0,57.5z
		 M17,69.5c6.4,0,9.9-6.1,9.9-12c0-6.2-3.8-11.9-10-11.9c-6.4,0-10,6-10,11.9C7,63.7,10.7,69.5,17,69.5z"/>
	<path class="st0" d="M139.7,45.7h-11.4v29.6h-6.9V45.7H110v-6.1h29.7V45.7z"/>
	<path class="st0" d="M172.6,49c-0.9-1-5.3-3.5-9.6-3.5c-3.8,0-5.7,1.5-5.7,4c0,2.9,2.8,3.7,8.1,5.1c7,1.8,11.5,4,11.5,10.6
		c0,7.7-6.2,10.6-13.2,10.6c-5.3,0-10.9-1.7-15-4.6l3.1-6c1.2,1.2,6.6,4.4,12,4.4c3.8,0,5.7-1.3,5.7-3.7c0-3.2-3.7-4.1-9.3-5.6
		c-6.8-1.9-10.1-4.2-10.1-9.7c0-7.3,5.8-11.2,13-11.2c5,0,9.4,1.9,12.5,4L172.6,49z"/>
	<path class="st0" d="M189.8,75.4V39.7h6.9v35.7H189.8z"/>
	<path class="st0" d="M211.7,75.4V39.7h13c11.7,0,17.6,7.9,17.6,17.8c0,10.8-6.9,17.9-17.6,17.9H211.7z M224.7,45.7h-6v23.5h6
		c6.8,0,10.6-5.1,10.6-11.8C235.3,50.6,231.4,45.7,224.7,45.7z"/>
	<path class="st0" d="M280.2,69.3v6.1h-24.8V39.7h24.3v6.1h-17.4v8.6h15V60h-15v9.3H280.2z"/>
	<path class="st0" d="M326.4,75.4V39.7h6.9v35.7H326.4z"/>
	<path class="st0" d="M355.2,52.5v22.9h-6.9V39.7h5.4l18.6,23.4V39.7h6.9v35.7h-5.6L355.2,52.5z"/>
</g>
<polygon class="st0" points="94.1,59.2 80.6,83.4 73.9,71.3 80.7,59.2 73.8,59.2 70.5,65.1 67.3,59.2 60.4,59.2 67.1,71.3 
	60.4,83.3 47.1,59.2 40.3,59.2 60.4,95.6 70.5,77.5 80.6,95.8 101,59.2 "/>
<polygon class="st1" points="311.4,55.8 304.2,55.8 304.2,48.7 300.8,48.7 300.8,55.8 293.6,55.8 293.6,59.3 300.8,59.3 300.8,66.4 
	304.2,66.4 304.2,59.3 311.4,59.3 "/>
<g>
	<path class="st1" d="M107,39.2c-1.6,1-3.7,2.3-5,2.9c-3.3,1.1-7.1,0.8-8.9,0.6c0.2-1.3,1.3-3.4,5.5-4.6l-0.7-2.6
		c-6.8,1.9-7.6,6.1-7.6,8l-3.8,3.2c-0.1-3,0-8.1,1.1-10.3c1.1-2.3,6-5.4,9.9-7.3c2.1,4.7,6.6,6.2,9.6,6.6c0-0.9-0.1-1.9-0.2-2.8
		c-2.4-0.5-5.5-1.7-7-5c0.1,0,0.2-0.1,0.2-0.1l0.8-0.4c1.5-0.6,2.8-1.2,4.2-2.3c-0.3-0.9-0.7-1.8-1-2.7c-1.3,1.3-2.5,1.9-4.2,2.6
		l-0.9,0.4c-0.1,0-4.5,2-8.4,4.6c-0.3-1.9-0.1-3.6,0.8-5.2c2.1-4,7.2-6.4,10-7.5c-0.5-0.8-1-1.6-1.6-2.3c-3.2,1.3-8.4,4-10.8,8.5
		c-1.3,2.6-1.6,5.3-0.8,8.2c-0.7,0.5-1.3,1.1-1.8,1.7c-0.4-1.1-0.9-2.1-1.4-3.1c-1-2.1-2-4.2-1.8-6c0.3-2.7,5.6-7,8.9-9.1
		c0,0,2.2-1.6,5.4-3.1c-0.6-0.7-1.3-1.4-2-2c-2.9,1.4-4.8,2.8-4.9,2.9c0,0-0.1,0-0.1,0.1l0-0.1c0,0-1.8-1-2.2-2.9
		c-0.3-1.3,0.1-2.8,1.2-4.5C88.8,4.9,88,4.4,87.2,4c-1.4,2.2-1.9,4.4-1.4,6.3c0.4,2,1.6,3.3,2.5,4c-1.3,1-3,2.3-4.4,3.9
		c-0.2-3.3-1.1-6.7-2.5-9.9c1.8-1.9,2.9-3.8,3.2-5.6c-0.9-0.4-1.7-0.7-2.6-1c-0.1,1.2-0.7,2.6-1.9,4c-1.1-2-2.3-3.8-3.7-5.3
		C74.9,0.2,73.4,0.1,72,0c3.4,2.7,6.8,8.1,8.3,13.7c-2-0.4-3.7-1.4-5.1-2.8l-2,1.8c1.4,1.5,3.8,3.4,7.7,3.9c0.3,2.3,0.3,4.5-0.2,6.5
		l0,0c-0.1,0.3-0.1,0.5-0.2,0.7c-0.1,1,0,2,0.3,2.9c-4.8-0.8-5.6-6.9-5.6-7.2l-2.7,0.3c0.4,3.4,2.9,9.7,9.3,9.7c0,0,0,0,0,0
		c0.3,0.6,0.5,1.1,0.8,1.7c1.1,2.2,2.1,4.3,1.8,6l0,0c-0.4,1.6-0.5,3.4-0.6,5.2c-1.4-1.1-3.6-2.3-6.7-3l-0.5,2.7
		c5.5,1.1,7.1,4.1,7.2,4.2l0,0c0,1,0.1,1.7,0.1,1.9v18.6h2.7l0-16.7l5.7-4.7c0.9,0.1,2.3,0.3,4.1,0.3c2,0,4.4-0.2,6.6-1
		c1-0.4,2.5-1.2,3.8-2C106.9,41.4,107,40.3,107,39.2z"/>
	<path class="st1" d="M63.6,33.1c0.2-1.3,0.9-3.7,3-5.2L65,25.7c-3.1,2.4-3.9,6-4.1,7.6l-4.1,2.8c-0.2-1.9-0.8-5.1-2.2-8.2
		c0.6-1.4,2.7-5.2,6.6-6.8c6.9-2.8,6.9-11.5,6.9-14.4C68.1,4.4,68,2,67.9,0c-0.9,0.1-1.8,0.2-2.7,0.3c0.1,1.9,0.2,4.2,0.2,6.3
		c0,1.4-0.1,2.6-0.2,3.8c-1.8-1.4-5-4.7-4.1-9.2c-1,0.2-1.9,0.5-2.8,0.9c-0.4,6.3,5,10.4,6.3,11.3c-0.8,2.6-2.2,4.3-4.2,5.2
		L55.9,7.6l-1.9-3.8c-0.8,0.4-1.6,0.8-2.4,1.3l1.8,3.6l2.6,6.6c-1.6-0.5-4.5-1.8-6.9-5.5c-0.5-0.8-0.9-1.6-1.2-2.3
		c-0.7,0.6-1.5,1.2-2.2,1.8c0.3,0.6,0.6,1.2,1.1,1.9c4.3,6.6,10.1,7,10.3,7l0,0l0.6,1.5c-2.3,1.5-3.8,3.5-4.8,5.2c0,0,0-0.1-0.1-0.1
		c-0.1-0.1-5.1-8.1-10.1-12.6c-0.6,0.7-1.2,1.4-1.7,2.1c2.9,2.6,6.6,7.2,9.6,11.9c0.1,0.2,0.3,0.5,0.4,0.7c-1.8,0.5-3.5,0.6-5.1,0.6
		c-0.2-5.6-4.7-8.9-6.9-10.2c-0.5,0.8-0.9,1.6-1.4,2.4c1.7,1,5.2,3.6,5.5,7.7c-2.6-0.3-4.3-0.9-4.4-0.9c0,0-1.8-0.5-3.3-1.6
		c-0.3,0.9-0.6,1.8-0.8,2.7c1.7,1,3.3,1.5,3.3,1.5c0.2,0.1,3.7,1.3,8.2,1.3c1.9,0,4-0.2,6.1-0.8c1.7,4.3,1.9,8.6,1.9,8.6v6
		c-1.4-0.7-3.4-1.7-4.9-3.1c-0.1-0.1-0.2-0.2-0.3-0.2c-0.3-3.1-1.1-6-2.5-8.6l-2.4,1.2c0.8,1.6,1.4,3.4,1.8,5.3
		c-2.7-1.4-6-2-9.7-1.9l-0.1,0c-0.4,0-1.5,0.2-2.6,0.5c0,0.9,0.1,1.8,0.1,2.8c1.1-0.3,2.2-0.5,2.5-0.5c0,0,0.1,0,0.3,0
		c3.3-0.2,6.3,0.4,8.6,1.7c-4.6,3.8-9,2.8-9.2,2.8l-1.8-0.4c0.1,0.9,0.3,1.9,0.5,2.9l0.7,0.1c0.1,0,0.9,0.2,2.2,0.2
		c2.3,0,6.1-0.6,9.9-4c0,0,0.1,0.1,0.1,0.1c2.2,2.1,5.3,3.5,6.8,4.1v19.4h2.7l0-16.1c0.6,0.1,1.3,0.2,1.9,0.2c6.2,0,10.3-5.7,10.5-6
		L67,42.9c0,0-1.5,2.1-4,3.5c-0.7-3.1,1.3-6.5,1.3-6.6l-2.3-1.4c-0.1,0.2-2.8,4.6-1.5,9c-1.1,0.3-2.3,0.3-3.6,0l0-8.2l5.4-3.7
		c2.4,0.8,4.9,1.2,7.3,1.2c0.4,0,0.9,0,1.3,0L70.8,34C68.4,34.1,66,33.8,63.6,33.1z"/>
</g>
</svg>
