<?xml version="1.0" encoding="utf-8"?>
<!-- Generator: Adobe Illustrator 19.0.0, SVG Export Plug-In . SVG Version: 6.00 Build 0)  -->
<svg version="1.1" id="Layer_1" xmlns="http://www.w3.org/2000/svg" xmlns:xlink="http://www.w3.org/1999/xlink" x="0px" y="0px"
	 viewBox="0 0 57.5 57.5" style="enable-background:new 0 0 57.5 57.5;" xml:space="preserve">
<style type="text/css">
	.st0{clip-path:url(#SVGID_2_);fill:#FFFFFF;}
</style>
<g>
	<defs>
		<rect id="SVGID_1_" width="57.5" height="57.5"/>
	</defs>
	<clipPath id="SVGID_2_">
		<use xlink:href="#SVGID_1_"  style="overflow:visible;"/>
	</clipPath>
	<path class="st0" d="M57.5,28.7C57.5,12.9,44.6,0,28.7,0C12.9,0,0,12.9,0,28.7c0,15.9,12.9,28.7,28.8,28.7
		C44.6,57.5,57.5,44.6,57.5,28.7 M43,39.7c0,1.8-1.5,3.3-3.3,3.3H17.8c-1.8,0-3.3-1.5-3.3-3.3V17.8c0-1.8,1.5-3.3,3.3-3.3h21.9
		c1.8,0,3.3,1.5,3.3,3.3V39.7z M39.7,38.6v-12h-2.5c0.2,0.7,0.3,1.4,0.3,2.2c0,4.8-3.9,8.7-8.8,8.7c-4.8,0-8.8-3.9-8.8-8.7
		c0-0.8,0.1-1.5,0.3-2.2h-2.5v12c0,0.6,0.5,1.1,1.1,1.1h19.7C39.2,39.7,39.7,39.2,39.7,38.6 M39.7,22.2v-3.3c0-0.6-0.5-1.1-1.1-1.1
		h-3.3c-0.6,0-1.1,0.5-1.1,1.1v3.3c0,0.6,0.5,1.1,1.1,1.1h3.3C39.2,23.3,39.7,22.8,39.7,22.2 M34.2,28.7c0-3-2.5-5.5-5.5-5.5
		c-3,0-5.5,2.4-5.5,5.5c0,3,2.4,5.5,5.5,5.5C31.8,34.2,34.2,31.8,34.2,28.7"/>
</g>
</svg>
