<?xml version="1.0" encoding="UTF-8" standalone="no"?>
<svg
   xmlns:dc="http://purl.org/dc/elements/1.1/"
   xmlns:cc="http://creativecommons.org/ns#"
   xmlns:rdf="http://www.w3.org/1999/02/22-rdf-syntax-ns#"
   xmlns:svg="http://www.w3.org/2000/svg"
   xmlns="http://www.w3.org/2000/svg"
   id="svg1041"
   version="1.1"
   viewBox="0 0 34.586899 35.940403"
   height="35.940403mm"
   width="34.586899mm">
  <title
     id="title5321">rule:fresh camera</title>
  <defs
     id="defs1035">
    <clipPath
       id="clipPath414"
       clipPathUnits="userSpaceOnUse">
      <path
         id="path412"
         d="M 0,430 H 920 V 0 H 0 Z" />
    </clipPath>
  </defs>
  <metadata
     id="metadata1038">
    <rdf:RDF>
      <cc:Work
         rdf:about="">
        <dc:format>image/svg+xml</dc:format>
        <dc:type
           rdf:resource="http://purl.org/dc/dcmitype/StillImage" />
        <dc:title>rule:fresh camera</dc:title>
        <dc:date>14/06/18</dc:date>
        <dc:creator>
          <cc:Agent>
            <dc:title>rule:fresh</dc:title>
          </cc:Agent>
        </dc:creator>
        <dc:rights>
          <cc:Agent>
            <dc:title>rule:fresh</dc:title>
          </cc:Agent>
        </dc:rights>
        <dc:publisher>
          <cc:Agent>
            <dc:title>rule:fresh</dc:title>
          </cc:Agent>
        </dc:publisher>
        <dc:subject>
          <rdf:Bag>
            <rdf:li>rule:fresh</rdf:li>
            <rdf:li>rulefresh</rdf:li>
            <rdf:li>rf</rdf:li>
            <rdf:li>camera</rdf:li>
          </rdf:Bag>
        </dc:subject>
        <dc:description>camera by rule:fresh
www.rulefresh.com</dc:description>
      </cc:Work>
    </rdf:RDF>
  </metadata>
  <g
     transform="translate(230.23759,-520.95609)"
     id="layer1">
    <g
       id="g1462"
       transform="matrix(0.35277777,0,0,-0.35277777,-198.81618,540.86182)">
      <path
         d="m 0,0 v 36.146 c 0,7.547 -3.841,11.389 -11.389,11.389 h -57.318 c -7.547,0 -11.388,-3.842 -11.388,-11.389 V 0 Z"
         style="fill:none;stroke:#ffffff;stroke-width:4;stroke-linecap:round;stroke-linejoin:round;stroke-miterlimit:10;stroke-dasharray:none;stroke-opacity:1"
         id="path1460" />
    </g>
    <g
       id="g1466"
       transform="matrix(0.35277777,0,0,-0.35277777,-196.35706,546.93934)">
      <path
         d="m 0,0 -1.277,-17.115 c -0.551,-7.821 -3.393,-9.11 -9.111,-9.11 h -73.261 c -5.126,0 -8.721,1.289 -9.111,9.11 L -94.037,0"
         style="fill:none;stroke:#ffffff;stroke-width:4;stroke-linecap:round;stroke-linejoin:round;stroke-miterlimit:10;stroke-dasharray:none;stroke-opacity:1"
         id="path1464" />
    </g>
    <g
       id="g1470"
       transform="matrix(0.35277777,0,0,-0.35277777,-198.81618,540.86182)">
      <path
         d="M 0,0 6.971,-16.216 H -87.066 L -80.095,0"
         style="fill:none;stroke:#ffffff;stroke-width:4;stroke-linecap:round;stroke-linejoin:round;stroke-miterlimit:10;stroke-dasharray:none;stroke-opacity:1"
         id="path1468" />
    </g>
    <g
       id="g1474"
       transform="matrix(0.35277777,0,0,-0.35277777,-223.68009,551.23607)">
      <path
         d="M 0,0 H 60.866"
         style="fill:none;stroke:#ffffff;stroke-width:4;stroke-linecap:round;stroke-linejoin:round;stroke-miterlimit:10;stroke-dasharray:none;stroke-opacity:1"
         id="path1472" />
    </g>
    <g
       id="g1478"
       transform="matrix(0.35277777,0,0,-0.35277777,-218.00601,524.04219)">
      <path
         d="m 0,0 c 0,4.113 0.427,6.748 5.296,6.748 h 18.903 c 3.986,0 4.498,-2.365 4.498,-6.379"
         style="fill:none;stroke:#ffffff;stroke-width:4;stroke-linecap:round;stroke-linejoin:round;stroke-miterlimit:10;stroke-dasharray:none;stroke-opacity:1"
         id="path1476" />
    </g>
    <g
       id="g1482"
       transform="matrix(0.35277777,0,0,-0.35277777,-207.57116,532.27599)">
      <path
         d="m 0,0 c 0,-8.412 -6.819,-15.232 -15.23,-15.232 -8.413,0 -15.232,6.82 -15.232,15.232 0,8.412 6.819,15.23 15.232,15.23 C -6.819,15.23 0,8.412 0,0 Z"
         style="fill:none;stroke:#ffffff;stroke-width:4;stroke-linecap:round;stroke-linejoin:round;stroke-miterlimit:10;stroke-dasharray:none;stroke-opacity:1"
         id="path1480" />
    </g>
    <g
       id="g1486"
       transform="matrix(0.35277777,0,0,-0.35277777,-210.20702,532.27599)">
      <path
         d="m 0,0 c 0,-4.285 -3.473,-7.758 -7.758,-7.758 -4.285,0 -7.758,3.473 -7.758,7.758 0,4.285 3.473,7.758 7.758,7.758 C -3.473,7.758 0,4.285 0,0 Z"
         style="fill:none;stroke:#ffffff;stroke-width:3.5;stroke-linecap:round;stroke-linejoin:round;stroke-miterlimit:10;stroke-dasharray:none;stroke-opacity:1"
         id="path1484" />
    </g>
    <path
       d="m -220.78559,532.93603 h -3.96698 v -2.03411 h 3.96698 z"
       style="fill:none;stroke:#ffffff;stroke-width:1.05833328;stroke-linecap:round;stroke-linejoin:round;stroke-miterlimit:10;stroke-dasharray:none;stroke-opacity:1"
       id="path1488" />
    <g
       id="g1492"
       transform="matrix(0.35277777,0,0,-0.35277777,-221.65232,536.79662)">
      <path
         d="m 0,0 c 0,-1.699 -1.377,-3.076 -3.077,-3.076 -1.7,0 -3.077,1.377 -3.077,3.076 0,1.701 1.377,3.078 3.077,3.078 C -1.377,3.078 0,1.701 0,0 Z"
         style="fill:none;stroke:#ffffff;stroke-width:3;stroke-linecap:round;stroke-linejoin:round;stroke-miterlimit:10;stroke-dasharray:none;stroke-opacity:1"
         id="path1490" />
    </g>
    <g
       id="g1496"
       transform="matrix(0.35277777,0,0,-0.35277777,-202.7911,536.79662)">
      <path
         d="m 0,0 c 0,-1.699 -1.376,-3.076 -3.077,-3.076 -1.7,0 -3.077,1.377 -3.077,3.076 0,1.701 1.377,3.078 3.077,3.078 C -1.376,3.078 0,1.701 0,0 Z"
         style="fill:none;stroke:#ffffff;stroke-width:3;stroke-linecap:round;stroke-linejoin:round;stroke-miterlimit:10;stroke-dasharray:none;stroke-opacity:1"
         id="path1494" />
    </g>
    <path
       d="m -201.39409,531.10547 h -3.568 v -3.56835 h 3.568 z"
       style="fill:none;stroke:#ffffff;stroke-width:1.05833328;stroke-linecap:round;stroke-linejoin:round;stroke-miterlimit:10;stroke-dasharray:none;stroke-opacity:1"
       id="path1498" />
    <g
       id="g1502"
       transform="matrix(0.35277777,0,0,-0.35277777,-212.94414,537.88184)">
      <path
         d="M 0,0 V -24.663"
         style="fill:none;stroke:#ffffff;stroke-width:3;stroke-linecap:round;stroke-linejoin:round;stroke-miterlimit:10;stroke-dasharray:none;stroke-opacity:1"
         id="path1500" />
    </g>
    <g
       id="g1506"
       transform="matrix(0.35277777,0,0,-0.35277777,-211.22435,537.36643)">
      <path
         d="M 0,0 V -9.908 L 1.104,-26.124"
         style="fill:none;stroke:#ffffff;stroke-width:3;stroke-linecap:round;stroke-linejoin:round;stroke-miterlimit:10;stroke-dasharray:none;stroke-opacity:1"
         id="path1504" />
    </g>
    <g
       id="g1510"
       transform="matrix(0.35277777,0,0,-0.35277777,-214.68771,537.36643)">
      <path
         d="M 0,0 V -9.908 L -1.104,-26.124"
         style="fill:none;stroke:#ffffff;stroke-width:3;stroke-linecap:round;stroke-linejoin:round;stroke-miterlimit:10;stroke-dasharray:none;stroke-opacity:1"
         id="path1508" />
    </g>
  </g>
</svg>
