<?xml version="1.0" encoding="UTF-8" standalone="no"?>
<svg
   xmlns:dc="http://purl.org/dc/elements/1.1/"
   xmlns:cc="http://creativecommons.org/ns#"
   xmlns:rdf="http://www.w3.org/1999/02/22-rdf-syntax-ns#"
   xmlns:svg="http://www.w3.org/2000/svg"
   xmlns="http://www.w3.org/2000/svg"
   id="svg1041"
   version="1.1"
   viewBox="0 0 41.946331 33.661545"
   height="33.661545mm"
   width="41.946331mm">
  <title
     id="title5321">rule:fresh paintbrush</title>
  <defs
     id="defs1035">
    <clipPath
       id="clipPath414"
       clipPathUnits="userSpaceOnUse">
      <path
         id="path412"
         d="M 0,430 H 920 V 0 H 0 Z" />
    </clipPath>
  </defs>
  <metadata
     id="metadata1038">
    <rdf:RDF>
      <cc:Work
         rdf:about="">
        <dc:format>image/svg+xml</dc:format>
        <dc:type
           rdf:resource="http://purl.org/dc/dcmitype/StillImage" />
        <dc:title>rule:fresh paintbrush</dc:title>
        <dc:date>14/06/18</dc:date>
        <dc:creator>
          <cc:Agent>
            <dc:title>rule:fresh</dc:title>
          </cc:Agent>
        </dc:creator>
        <dc:rights>
          <cc:Agent>
            <dc:title>rule:fresh</dc:title>
          </cc:Agent>
        </dc:rights>
        <dc:publisher>
          <cc:Agent>
            <dc:title>rule:fresh</dc:title>
          </cc:Agent>
        </dc:publisher>
        <dc:subject>
          <rdf:Bag>
            <rdf:li>rule:fresh</rdf:li>
            <rdf:li>rulefresh</rdf:li>
            <rdf:li>rf</rdf:li>
            <rdf:li>paintbrush</rdf:li>
          </rdf:Bag>
        </dc:subject>
        <dc:description>paintbrush by rule:fresh
www.rulefresh.com</dc:description>
      </cc:Work>
    </rdf:RDF>
  </metadata>
  <g
     transform="translate(103.47994,-243.63643)"
     id="layer1">
    <g
       id="g1140"
       transform="matrix(0.35277777,0,0,-0.35277777,-91.747141,275.75525)">
      <path
         d="m 0,0 c 0,0 9.002,22.437 11.09,27.525 2.088,5.088 -4.017,10.884 -5.25,14.977 -0.934,3.099 2.121,8.809 4.669,12.69 2.72,4.144 6.817,9.273 8.805,15.858 1.108,3.664 1.141,10.158 1.329,12.677 0.408,5.512 -3.655,7.134 -7.252,2.976 C 11.548,84.574 7.164,80.161 5.43,76.749 2.165,70.326 1.533,64.135 0.559,59.276 -0.355,54.724 -2.191,48.514 -5.033,46.964 -8.787,44.917 -17.202,45.081 -19.29,39.993 -21.379,34.905 -31.234,10.386 -31.234,10.386 c -0.411,-1.768 2.755,-3.166 7.457,-2.902 1.498,0.084 4.119,-4.246 7.037,-5.037 2.918,-0.793 4.914,0.065 6.532,-0.599 C -8.589,1.184 -5.961,-2.503 -3.5,-2.368 -0.648,-2.21 0,0 0,0 Z"
         style="fill:none;stroke:#ffffff;stroke-width:4;stroke-linecap:round;stroke-linejoin:round;stroke-miterlimit:10;stroke-dasharray:none;stroke-opacity:1"
         id="path1138" />
    </g>
    <g
       id="g1144"
       transform="matrix(0.35277777,0,0,-0.35277777,-100.82083,267.92436)">
      <path
         d="m 0,0 c 0,0 1.262,-3.722 4.504,-3.848 3.231,-0.127 3.931,2.123 6.849,1.331 2.918,-0.792 2.272,-5.527 5.36,-6.581 2.382,-0.812 5.858,1.316 7.928,0.767 3.088,-0.816 4.392,-5.333 4.392,-5.333"
         style="fill:none;stroke:#ffffff;stroke-width:4;stroke-linecap:round;stroke-linejoin:round;stroke-miterlimit:10;stroke-dasharray:none;stroke-opacity:1"
         id="path1142" />
    </g>
    <g
       id="g1148"
       transform="matrix(0.35277777,0,0,-0.35277777,-98.969451,263.39822)">
      <path
         d="M 0,0 29.181,-11.975"
         style="fill:none;stroke:#ffffff;stroke-width:4;stroke-linecap:round;stroke-linejoin:round;stroke-miterlimit:10;stroke-dasharray:none;stroke-opacity:1"
         id="path1146" />
    </g>
    <g
       id="g1152"
       transform="matrix(0.35277777,0,0,-0.35277777,-89.011741,268.95155)">
      <path
         d="m 0,0 c 0,0 4.629,6.833 23.833,14.819 18.834,7.833 24.843,7.789 27.667,7.083 3.75,-0.937 -6.125,-5.375 -3.125,-5.5 3,-0.125 12.909,2.702 16.063,1.063 2.343,-1.219 2.638,-3.058 1.281,-4.281 -1.215,-1.095 -3.928,-1.681 -7.469,-2.206 -4.616,-0.684 1.502,-3.467 7.516,-3.701 5.359,-0.208 8.203,-1.718 10.359,-4.375"
         style="fill:none;stroke:#ffffff;stroke-width:3.5;stroke-linecap:round;stroke-linejoin:round;stroke-miterlimit:10;stroke-dasharray:none;stroke-opacity:1"
         id="path1150" />
    </g>
    <g
       id="g1156"
       transform="matrix(0.35277777,0,0,-0.35277777,-91.304791,275.0714)">
      <path
         d="M 0,0 C 0,0 25.375,20.125 61.625,17.348"
         style="fill:none;stroke:#ffffff;stroke-width:3.5;stroke-linecap:round;stroke-linejoin:round;stroke-miterlimit:10;stroke-dasharray:none;stroke-opacity:1"
         id="path1154" />
    </g>
    <g
       id="g1160"
       transform="matrix(0.35277777,0,0,-0.35277777,-87.069411,269.91858)">
      <path
         d="M 0,0 C 0,0 6.961,3.769 14.896,6.611"
         style="fill:none;stroke:#ffffff;stroke-width:3;stroke-linecap:round;stroke-linejoin:round;stroke-miterlimit:10;stroke-dasharray:none;stroke-opacity:1"
         id="path1158" />
    </g>
    <g
       id="g1164"
       transform="matrix(0.35277777,0,0,-0.35277777,-79.501551,265.85507)">
      <path
         d="M 0,0 C 0,0 5.625,2.583 11.729,3.75"
         style="fill:none;stroke:#ffffff;stroke-width:3;stroke-linecap:round;stroke-linejoin:round;stroke-miterlimit:10;stroke-dasharray:none;stroke-opacity:1"
         id="path1162" />
    </g>
    <g
       id="g1168"
       transform="matrix(0.35277777,0,0,-0.35277777,-73.636272,266.45779)">
      <path
         d="M 0,0 C 0,0 2.76,0.374 6.104,0.374"
         style="fill:none;stroke:#ffffff;stroke-width:3;stroke-linecap:round;stroke-linejoin:round;stroke-miterlimit:10;stroke-dasharray:none;stroke-opacity:1"
         id="path1166" />
    </g>
  </g>
</svg>
