<?xml version="1.0" encoding="UTF-8" standalone="no"?>
<svg
   xmlns:dc="http://purl.org/dc/elements/1.1/"
   xmlns:cc="http://creativecommons.org/ns#"
   xmlns:rdf="http://www.w3.org/1999/02/22-rdf-syntax-ns#"
   xmlns:svg="http://www.w3.org/2000/svg"
   xmlns="http://www.w3.org/2000/svg"
   id="svg1041"
   version="1.1"
   viewBox="0 0 38.106545 28.846539"
   height="28.846539mm"
   width="38.106544mm">
  <title
     id="title5321">rule:fresh pencil</title>
  <defs
     id="defs1035">
    <clipPath
       id="clipPath414"
       clipPathUnits="userSpaceOnUse">
      <path
         id="path412"
         d="M 0,430 H 920 V 0 H 0 Z" />
    </clipPath>
  </defs>
  <metadata
     id="metadata1038">
    <rdf:RDF>
      <cc:Work
         rdf:about="">
        <dc:format>image/svg+xml</dc:format>
        <dc:type
           rdf:resource="http://purl.org/dc/dcmitype/StillImage" />
        <dc:title>rule:fresh pencil</dc:title>
        <dc:date>14/06/18</dc:date>
        <dc:creator>
          <cc:Agent>
            <dc:title>rule:fresh</dc:title>
          </cc:Agent>
        </dc:creator>
        <dc:rights>
          <cc:Agent>
            <dc:title>rule:fresh</dc:title>
          </cc:Agent>
        </dc:rights>
        <dc:publisher>
          <cc:Agent>
            <dc:title>rule:fresh</dc:title>
          </cc:Agent>
        </dc:publisher>
        <dc:subject>
          <rdf:Bag>
            <rdf:li>rule:fresh</rdf:li>
            <rdf:li>rulefresh</rdf:li>
            <rdf:li>rf</rdf:li>
            <rdf:li>pencil</rdf:li>
          </rdf:Bag>
        </dc:subject>
        <dc:description>pencil by rule:fresh
www.rulefresh.com</dc:description>
      </cc:Work>
    </rdf:RDF>
  </metadata>
  <g
     transform="translate(222.96481,-508.9309)"
     id="layer1">
    <g
       id="g1548"
       transform="matrix(0.35277777,0,0,-0.35277777,-186.48499,515.82422)">
      <path
         d="m 0,0 c -4.077,-5.348 -40.489,-53.115 -40.489,-53.115 l -19.633,-7.114 2.324,20.309 c 0,0 36.412,47.765 40.489,53.114 3.37,4.42 7.961,6.439 14.644,1.346 C 4.32,9.214 3.452,4.532 0,0 Z"
         style="fill:none;stroke:#ffffff;stroke-width:4;stroke-linecap:round;stroke-linejoin:round;stroke-miterlimit:10;stroke-dasharray:none;stroke-opacity:1"
         id="path1546" />
    </g>
    <g
       id="g1552"
       transform="matrix(0.35277777,0,0,-0.35277777,-193.45131,512.29831)">
      <path
         d="M 0,0 C 0,0 10.988,-1.916 17.307,-13.194"
         style="fill:none;stroke:#ffffff;stroke-width:4;stroke-linecap:round;stroke-linejoin:round;stroke-miterlimit:10;stroke-dasharray:none;stroke-opacity:1"
         id="path1550" />
    </g>
    <g
       id="g1556"
       transform="matrix(0.35277777,0,0,-0.35277777,-189.91045,513.98487)">
      <path
         d="M 0,0 -36.942,-48.463"
         style="fill:none;stroke:#ffffff;stroke-width:3.5;stroke-linecap:round;stroke-linejoin:round;stroke-miterlimit:10;stroke-dasharray:none;stroke-opacity:1"
         id="path1554" />
    </g>
    <g
       id="g1560"
       transform="matrix(0.35277777,0,0,-0.35277777,-206.87479,529.90725)">
      <path
         d="m 0,0 c 0,0 9.752,5.234 9.477,-5.52 0,0 10.192,4.588 8.273,-7.096"
         style="fill:none;stroke:#ffffff;stroke-width:3.5;stroke-linecap:round;stroke-linejoin:round;stroke-miterlimit:10;stroke-dasharray:none;stroke-opacity:1"
         id="path1558" />
    </g>
    <g
       id="g1564"
       transform="matrix(0.35277777,0,0,-0.35277777,-206.00905,535.80351)">
      <path
         d="m 0,0 c 0,2.906 -2.822,2.153 -2.822,2.153 l 0.368,-3.038 z"
         style="fill:none;stroke:#ffffff;stroke-width:4;stroke-linecap:round;stroke-linejoin:round;stroke-miterlimit:10;stroke-dasharray:none;stroke-opacity:1"
         id="path1562" />
    </g>
    <g
       id="g1568"
       transform="matrix(0.35277777,0,0,-0.35277777,-222.24921,537.07181)">
      <path
         d="M 0,0 H 3.749"
         style="fill:none;stroke:#ffffff;stroke-width:4;stroke-linecap:round;stroke-linejoin:round;stroke-miterlimit:10;stroke-dasharray:none;stroke-opacity:1"
         id="path1566" />
    </g>
    <g
       id="g1572"
       transform="matrix(0.35277777,0,0,-0.35277777,-218.25119,537.07181)">
      <path
         d="M 0,0 H 21.75"
         style="fill:none;stroke:#ffffff;stroke-width:4;stroke-linecap:round;stroke-linejoin:round;stroke-miterlimit:10;stroke-dasharray:none;stroke-opacity:1"
         id="path1570" />
    </g>
  </g>
</svg>
