<?xml version="1.0" encoding="UTF-8" standalone="no"?>
<svg
   xmlns:dc="http://purl.org/dc/elements/1.1/"
   xmlns:cc="http://creativecommons.org/ns#"
   xmlns:rdf="http://www.w3.org/1999/02/22-rdf-syntax-ns#"
   xmlns:svg="http://www.w3.org/2000/svg"
   xmlns="http://www.w3.org/2000/svg"
   viewBox="0 0 251.07199 200.43492"
   height="200.43492"
   width="251.07199"
   xml:space="preserve"
   id="svg2"
   version="1.1"><title
     id="title873">rule:fresh icon</title><metadata
     id="metadata8"><rdf:RDF><cc:Work
         rdf:about=""><dc:format>image/svg+xml</dc:format><dc:type
           rdf:resource="http://purl.org/dc/dcmitype/StillImage" /><dc:title>rule:fresh icon</dc:title><dc:date>14/06/18</dc:date><dc:creator><cc:Agent><dc:title>rule:fresh</dc:title></cc:Agent></dc:creator><dc:rights><cc:Agent><dc:title>rule:fresh</dc:title></cc:Agent></dc:rights><dc:publisher><cc:Agent><dc:title>rule:fresh</dc:title></cc:Agent></dc:publisher><dc:subject><rdf:Bag><rdf:li>rule:fresh</rdf:li><rdf:li>rulefresh</rdf:li><rdf:li>rf</rdf:li><rdf:li>icon</rdf:li></rdf:Bag></dc:subject><dc:description>rule:fresh icon by rule:fresh
www.rulefresh.com</dc:description></cc:Work></rdf:RDF></metadata><defs
     id="defs6"><clipPath
       id="clipPath18"
       clipPathUnits="userSpaceOnUse"><path
         id="path16"
         d="M 0,2000 H 2000 V 0 H 0 Z" /></clipPath></defs><g
     transform="matrix(1.3333333,0,0,-1.3333333,-700.71332,1433.5508)"
     id="g10"><g
       id="g12"><g
         clip-path="url(#clipPath18)"
         id="g14"><g
           transform="translate(621.48,1075.1631)"
           id="g60"><path
             id="path62"
             style="fill:#ffffff;fill-opacity:1;fill-rule:nonzero;stroke:none"
             d="m 0,0 c -34.166,0 -63.872,-23.144 -72.228,-56.281 l -23.717,-94.045 h 36.987 l 21.505,85.27 c 4.328,17.191 19.737,29.193 37.453,29.193 h 46.337 c 21.746,0 40.709,14.777 46.022,35.863 z" /></g><g
           transform="translate(612.6221,993.6699)"
           id="g64"><path
             id="path66"
             style="fill:#ffffff;fill-opacity:1;fill-rule:nonzero;stroke:none"
             d="m 0,0 c -5.535,-9.539 -5.571,-20.943 -0.096,-30.52 l 21.888,-38.313 h 41.303 l -27.543,48.212 h 13.037 c 15.81,0 29.598,10.744 33.461,26.075 l 2.467,9.788 H 26.455 C 15.433,15.242 5.535,9.552 0,0" /></g></g></g></g></svg>