<?xml version="1.0" encoding="UTF-8" standalone="no"?>
<svg
   xmlns:dc="http://purl.org/dc/elements/1.1/"
   xmlns:cc="http://creativecommons.org/ns#"
   xmlns:rdf="http://www.w3.org/1999/02/22-rdf-syntax-ns#"
   xmlns:svg="http://www.w3.org/2000/svg"
   xmlns="http://www.w3.org/2000/svg"
   xml:space="preserve"
   style="enable-background:new 0 0 96.124 96.123;"
   viewBox="0 0 96.124 96.123"
   height="96.123px"
   width="96.124px"
   y="0px"
   x="0px"
   id="Capa_1"
   version="1.1"><title
   id="title850">facebook</title><metadata
   id="metadata41"><rdf:RDF><cc:Work
       rdf:about=""><dc:format>image/svg+xml</dc:format><dc:type
         rdf:resource="http://purl.org/dc/dcmitype/StillImage" /><dc:title>facebook</dc:title><dc:date>14/06/18</dc:date><dc:creator><cc:Agent><dc:title>rule:fresh</dc:title></cc:Agent></dc:creator><dc:subject><rdf:Bag><rdf:li>facebook</rdf:li></rdf:Bag></dc:subject><dc:description>facebook</dc:description></cc:Work></rdf:RDF></metadata><defs
   id="defs39" />
<g
   style="fill:#ffffff;fill-opacity:1"
   id="g4">
	<path
   style="fill:#ffffff;fill-opacity:1"
   id="path2"
   d="M 72.089,0.02 59.624,0 C 45.62,0 36.57,9.285 36.57,23.656 V 34.563 H 24.037 c -1.083,0 -1.96,0.878 -1.96,1.961 v 15.803 c 0,1.083 0.878,1.96 1.96,1.96 H 36.57 v 39.876 c 0,1.083 0.877,1.96 1.96,1.96 h 16.352 c 1.083,0 1.96,-0.878 1.96,-1.96 V 54.287 h 14.654 c 1.083,0 1.96,-0.877 1.96,-1.96 l 0.006,-15.803 c 0,-0.52 -0.207,-1.018 -0.574,-1.386 -0.367,-0.368 -0.867,-0.575 -1.387,-0.575 H 56.842 v -9.246 c 0,-4.444 1.059,-6.7 6.848,-6.7 l 8.397,-0.003 c 1.082,0 1.959,-0.878 1.959,-1.96 V 1.98 c 0,-1.081 -0.876,-1.958 -1.957,-1.96 z" />
</g>
<g
   id="g6">
</g>
<g
   id="g8">
</g>
<g
   id="g10">
</g>
<g
   id="g12">
</g>
<g
   id="g14">
</g>
<g
   id="g16">
</g>
<g
   id="g18">
</g>
<g
   id="g20">
</g>
<g
   id="g22">
</g>
<g
   id="g24">
</g>
<g
   id="g26">
</g>
<g
   id="g28">
</g>
<g
   id="g30">
</g>
<g
   id="g32">
</g>
<g
   id="g34">
</g>
</svg>