<?xml version="1.0" encoding="UTF-8" standalone="no"?>
<!-- Created with Inkscape (http://www.inkscape.org/) -->

<svg
   xmlns:dc="http://purl.org/dc/elements/1.1/"
   xmlns:cc="http://creativecommons.org/ns#"
   xmlns:rdf="http://www.w3.org/1999/02/22-rdf-syntax-ns#"
   xmlns:svg="http://www.w3.org/2000/svg"
   xmlns="http://www.w3.org/2000/svg"
   xmlns:sodipodi="http://sodipodi.sourceforge.net/DTD/sodipodi-0.dtd"
   xmlns:inkscape="http://www.inkscape.org/namespaces/inkscape"
   width="139.35056mm"
   height="97.109871mm"
   viewBox="0 0 139.35056 97.109871"
   version="1.1"
   id="svg2645"
   inkscape:version="0.92.3 (2405546, 2018-03-11)"
   sodipodi:docname="rf branding.svg">
  <title
     id="title3386">rule:fresh branding</title>
  <defs
     id="defs2639" />
  <sodipodi:namedview
     id="base"
     pagecolor="#ffffff"
     bordercolor="#666666"
     borderopacity="1.0"
     inkscape:pageopacity="0.0"
     inkscape:pageshadow="2"
     inkscape:zoom="0.35"
     inkscape:cx="534.7682"
     inkscape:cy="-405.05671"
     inkscape:document-units="mm"
     inkscape:current-layer="layer1"
     showgrid="false"
     fit-margin-top="0"
     fit-margin-left="0"
     fit-margin-right="0"
     fit-margin-bottom="0"
     inkscape:pagecheckerboard="true" />
  <metadata
     id="metadata2642">
    <rdf:RDF>
      <cc:Work
         rdf:about="">
        <dc:format>image/svg+xml</dc:format>
        <dc:type
           rdf:resource="http://purl.org/dc/dcmitype/StillImage" />
        <dc:title>rule:fresh branding</dc:title>
        <dc:date>14/06/18</dc:date>
        <dc:creator>
          <cc:Agent>
            <dc:title>rule:fresh</dc:title>
          </cc:Agent>
        </dc:creator>
        <dc:rights>
          <cc:Agent>
            <dc:title>rule:fresh</dc:title>
          </cc:Agent>
        </dc:rights>
        <dc:publisher>
          <cc:Agent>
            <dc:title>rule:fresh</dc:title>
          </cc:Agent>
        </dc:publisher>
        <dc:subject>
          <rdf:Bag>
            <rdf:li>rule:fresh</rdf:li>
            <rdf:li>rulefresh</rdf:li>
            <rdf:li>rf</rdf:li>
            <rdf:li>branding</rdf:li>
            <rdf:li>brand</rdf:li>
          </rdf:Bag>
        </dc:subject>
        <dc:description>branding icon by rule:fresh
www.rulefresh.com</dc:description>
      </cc:Work>
    </rdf:RDF>
  </metadata>
  <g
     inkscape:label="Layer 1"
     inkscape:groupmode="layer"
     id="layer1"
     transform="translate(173.9967,55.447791)">
    <g
       transform="matrix(0.35277777,0,0,-0.35277777,-199.71483,249.52038)"
       id="g2533">
      <g
         transform="translate(386.3789,611.875)"
         id="g26">
        <path
           inkscape:connector-curvature="0"
           id="path28"
           style="fill:none;stroke:#ffffff;stroke-width:6;stroke-linecap:round;stroke-linejoin:round;stroke-miterlimit:10;stroke-dasharray:none;stroke-opacity:1"
           d="m 0,0 v -13.652 c 0,-6.627 0.627,-6 -6,-6 h -120 c -6.627,0 -6,-0.627 -6,6 v 155.334 c 0,6.627 -0.627,6 6,6 H -6 c 6.627,0 6,0.627 6,-6 V 67.014" />
      </g>
      <g
         transform="translate(258.9624,759.5728)"
         id="g30">
        <path
           inkscape:connector-curvature="0"
           id="path32"
           style="fill:none;stroke:#ffffff;stroke-width:6;stroke-linecap:round;stroke-linejoin:round;stroke-miterlimit:10;stroke-dasharray:none;stroke-opacity:1"
           d="m 0,0 110.917,14.968 c 5.583,0.766 6,0.627 6,-6 V 1.984" />
      </g>
      <g
         transform="translate(256.2124,734.5566)"
         id="g34">
        <path
           inkscape:connector-curvature="0"
           id="path36"
           style="fill:none;stroke:#ffffff;stroke-width:6;stroke-linecap:round;stroke-linejoin:round;stroke-miterlimit:10;stroke-dasharray:none;stroke-opacity:1"
           d="M 0,0 H 128.5" />
      </g>
      <g
         transform="translate(257.895,617.207)"
         id="g38">
        <path
           inkscape:connector-curvature="0"
           id="path40"
           style="fill:none;stroke:#ffffff;stroke-width:6;stroke-linecap:round;stroke-linejoin:round;stroke-miterlimit:10;stroke-dasharray:none;stroke-opacity:1"
           d="M 0,0 H 102.818" />
      </g>
      <g
         transform="translate(282.2314,659.2227)"
         id="g42">
        <path
           inkscape:connector-curvature="0"
           id="path44"
           style="fill:none;stroke:#ffffff;stroke-width:5;stroke-linecap:round;stroke-linejoin:round;stroke-miterlimit:10;stroke-dasharray:none;stroke-opacity:1"
           d="M 0,0 25.833,41 51.667,0 Z" />
      </g>
      <g
         transform="translate(324.6699,674.5449)"
         id="g46">
        <path
           inkscape:connector-curvature="0"
           id="path48"
           style="fill:none;stroke:#ffffff;stroke-width:5;stroke-linecap:round;stroke-linejoin:round;stroke-miterlimit:10;stroke-dasharray:none;stroke-opacity:1"
           d="M 0,0 12.189,19.346 34.023,-15.305 H 9.229" />
      </g>
      <g
         transform="translate(173.1621,607.0645)"
         id="g50">
        <path
           inkscape:connector-curvature="0"
           id="path52"
           style="fill:none;stroke:#ffffff;stroke-width:3;stroke-linecap:round;stroke-linejoin:round;stroke-miterlimit:10;stroke-dasharray:none;stroke-opacity:1"
           d="M 0,0 9.841,15.619 19.683,0 Z" />
      </g>
      <g
         transform="translate(189.3291,612.9023)"
         id="g54">
        <path
           inkscape:connector-curvature="0"
           id="path56"
           style="fill:none;stroke:#ffffff;stroke-width:3;stroke-linecap:round;stroke-linejoin:round;stroke-miterlimit:10;stroke-dasharray:none;stroke-opacity:1"
           d="M 0,0 4.643,7.369 12.961,-5.83 H 3.515" />
      </g>
      <path
         inkscape:connector-curvature="0"
         id="path58"
         style="fill:none;stroke:#ffffff;stroke-width:5;stroke-linecap:round;stroke-linejoin:round;stroke-miterlimit:10;stroke-dasharray:none;stroke-opacity:1"
         d="m 163.712,637.541 h 75.5 v -45.334 h -75.5 z" />
      <g
         transform="translate(210.2124,623.5098)"
         id="g60">
        <path
           inkscape:connector-curvature="0"
           id="path62"
           style="fill:none;stroke:#ffffff;stroke-width:3;stroke-linecap:round;stroke-linejoin:round;stroke-miterlimit:10;stroke-dasharray:none;stroke-opacity:1"
           d="M 0,0 H 19.667" />
      </g>
      <g
         transform="translate(210.2124,614.875)"
         id="g64">
        <path
           inkscape:connector-curvature="0"
           id="path66"
           style="fill:none;stroke:#ffffff;stroke-width:3;stroke-linecap:round;stroke-linejoin:round;stroke-miterlimit:10;stroke-dasharray:none;stroke-opacity:1"
           d="M 0,0 H 19.667" />
      </g>
      <g
         transform="translate(210.2124,606.2402)"
         id="g68">
        <path
           inkscape:connector-curvature="0"
           id="path70"
           style="fill:none;stroke:#ffffff;stroke-width:3;stroke-linecap:round;stroke-linejoin:round;stroke-miterlimit:10;stroke-dasharray:none;stroke-opacity:1"
           d="M 0,0 H 19.667" />
      </g>
      <g
         transform="translate(133.7222,736.9536)"
         id="g72">
        <path
           inkscape:connector-curvature="0"
           id="path74"
           style="fill:none;stroke:#ffffff;stroke-width:4;stroke-linecap:round;stroke-linejoin:round;stroke-miterlimit:10;stroke-dasharray:none;stroke-opacity:1"
           d="m 0,0 c -1.191,5.461 -10.599,11.517 -17.706,15.239 -7.586,3.972 -18.271,10.424 -26.804,18.697 -4.748,4.603 -9.812,12.334 -12.125,16.167 -4.932,8.177 -1.174,13.131 7.75,9.875 4.572,-1.667 15.059,-6.18 20.542,-9.875 10.324,-6.956 16.678,-13.824 22.231,-20.343 5.203,-6.105 13.189,-13.939 18.782,-13.893 7.388,0.063 19.957,7.375 27.381,1.447 7.428,-5.929 42.898,-34.67 42.898,-34.67 2.104,-2.327 -1.502,-7.096 -8.823,-10.644 -2.332,-1.133 -2.653,-9.872 -6.395,-13.516 -3.74,-3.649 -7.473,-4.029 -9.359,-6.393 -1.888,-2.361 -2.758,-10.136 -6.589,-11.998 -4.436,-2.156 -7.273,0.639 -7.273,0.639 0,0 -32.434,26.316 -39.859,32.245 C -2.774,-21.092 1.576,-7.217 0,0" />
      </g>
      <g
         transform="translate(202.5918,730.1104)"
         id="g76">
        <path
           inkscape:connector-curvature="0"
           id="path78"
           style="fill:none;stroke:#ffffff;stroke-width:4;stroke-linecap:round;stroke-linejoin:round;stroke-miterlimit:10;stroke-dasharray:none;stroke-opacity:1"
           d="m 0,0 c 0,0 0.69,-7.819 -4.1,-10.733 -4.772,-2.905 -7.716,-0.095 -11.458,-3.742 -3.741,-3.645 1.211,-10.254 -2.567,-14.438 -2.914,-3.227 -9.95,-2.934 -12.614,-5.498 -3.977,-3.826 -2.296,-10.979 -2.296,-10.979" />
      </g>
      <g
         transform="translate(184.1401,745.2715)"
         id="g80">
        <path
           inkscape:connector-curvature="0"
           id="path82"
           style="fill:none;stroke:#ffffff;stroke-width:4;stroke-linecap:round;stroke-linejoin:round;stroke-miterlimit:10;stroke-dasharray:none;stroke-opacity:1"
           d="M 0,0 -34.003,-42.586" />
      </g>
      <g
         transform="translate(173.5859,751.875)"
         id="g84">
        <path
           inkscape:connector-curvature="0"
           id="path86"
           style="fill:none;stroke:#ffffff;stroke-width:4;stroke-linecap:round;stroke-linejoin:round;stroke-miterlimit:10;stroke-dasharray:none;stroke-opacity:1"
           d="M 0,0 -34.003,-42.586" />
      </g>
      <g
         transform="translate(218.4624,704.3926)"
         id="g88">
        <path
           inkscape:connector-curvature="0"
           id="path90"
           style="fill:none;stroke:#ffffff;stroke-width:5;stroke-linecap:round;stroke-linejoin:round;stroke-miterlimit:10;stroke-dasharray:none;stroke-opacity:1"
           d="M 0,0 C 19.25,-9.586 29.5,-7.086 35.901,-1.707" />
      </g>
      <g
         transform="translate(200.4624,676.2305)"
         id="g92">
        <path
           inkscape:connector-curvature="0"
           id="path94"
           style="fill:none;stroke:#ffffff;stroke-width:5;stroke-linecap:round;stroke-linejoin:round;stroke-miterlimit:10;stroke-dasharray:none;stroke-opacity:1"
           d="m 0,0 c 0,0 11.663,-8.902 23,-14.924 7.331,-3.894 13.914,-6.203 20.88,-7.045" />
      </g>
      <g
         transform="translate(374.582,785.4316)"
         id="g96">
        <path
           inkscape:connector-curvature="0"
           id="path98"
           style="fill:none;stroke:#ffffff;stroke-width:5;stroke-linecap:round;stroke-linejoin:round;stroke-miterlimit:10;stroke-dasharray:none;stroke-opacity:1"
           d="m 0,0 c 3.627,3.79 7.588,8.482 10.131,13.125 5.75,10.5 7.5,22.5 17.25,24 9.75,1.5 3.75,-11.75 13,-8.5 9.25,3.25 15.5,22.75 20,24.75 4.5,2 1.5,-18.5 5.5,-19.25 4,-0.75 11.933,6.25 9.342,-7.5 -2.592,-13.75 -6.217,-20 -4.467,-21.375 1.75,-1.375 6.5,-2.875 1.25,-12.375 -5.25,-9.5 -18.875,-30.25 -27.125,-39.5 -7,-7.848 -15.44,-13.537 -20.891,-16.76" />
      </g>
      <g
         transform="translate(244.396,745.6528)"
         id="g100">
        <path
           inkscape:connector-curvature="0"
           id="path102"
           style="fill:none;stroke:#ffffff;stroke-width:5;stroke-linecap:round;stroke-linejoin:round;stroke-miterlimit:10;stroke-dasharray:none;stroke-opacity:1"
           d="m 0,0 c -43.558,7.198 -64.325,44.401 -64.325,44.401 11.78,15.847 34.762,43.929 79.13,43.929 43.769,0 67.197,-27.495 79.764,-43.921 0,0 -3.117,-4.849 -9.069,-11.385" />
      </g>
      <g
         transform="translate(244.3906,759.3398)"
         id="g104">
        <path
           inkscape:connector-curvature="0"
           id="path106"
           style="fill:none;stroke:#ffffff;stroke-width:5;stroke-linecap:round;stroke-linejoin:round;stroke-miterlimit:10;stroke-dasharray:none;stroke-opacity:1"
           d="m 0,0 c -10.554,5.383 -17.779,16.356 -17.779,29.015 0,17.977 14.573,32.551 32.552,32.551 17.977,0 32.549,-14.574 32.549,-32.551 0,-5.712 -1.47,-11.081 -4.054,-15.747" />
      </g>
      <g
         transform="translate(273.9575,788.3926)"
         id="g108">
        <path
           inkscape:connector-curvature="0"
           id="path110"
           style="fill:none;stroke:#ffffff;stroke-width:4;stroke-linecap:round;stroke-linejoin:round;stroke-miterlimit:10;stroke-dasharray:none;stroke-opacity:1"
           d="m 0,0 c 0,-8.356 -6.774,-15.133 -15.133,-15.133 -8.357,0 -15.133,6.777 -15.133,15.133 0,8.357 6.776,15.135 15.133,15.135 C -6.774,15.135 0,8.357 0,0 Z" />
      </g>
      <g
         transform="translate(210.7646,835.5742)"
         id="g112">
        <path
           inkscape:connector-curvature="0"
           id="path114"
           style="fill:none;stroke:#ffffff;stroke-width:3.5;stroke-linecap:round;stroke-linejoin:round;stroke-miterlimit:10;stroke-dasharray:none;stroke-opacity:1"
           d="M 0,0 -10.404,12.915" />
      </g>
      <g
         transform="translate(302.6582,837.5889)"
         id="g116">
        <path
           inkscape:connector-curvature="0"
           id="path118"
           style="fill:none;stroke:#ffffff;stroke-width:3.5;stroke-linecap:round;stroke-linejoin:round;stroke-miterlimit:10;stroke-dasharray:none;stroke-opacity:1"
           d="M 0,0 9.698,12.23" />
      </g>
      <g
         transform="translate(342.1328,807.3813)"
         id="g120">
        <path
           inkscape:connector-curvature="0"
           id="path122"
           style="fill:none;stroke:#ffffff;stroke-width:3.5;stroke-linecap:round;stroke-linejoin:round;stroke-miterlimit:10;stroke-dasharray:none;stroke-opacity:1"
           d="M 0,0 12.254,9.175" />
      </g>
      <g
         transform="translate(175.8193,807.3813)"
         id="g124">
        <path
           inkscape:connector-curvature="0"
           id="path126"
           style="fill:none;stroke:#ffffff;stroke-width:3.5;stroke-linecap:round;stroke-linejoin:round;stroke-miterlimit:10;stroke-dasharray:none;stroke-opacity:1"
           d="M 0,0 -13.731,9.083" />
      </g>
      <g
         transform="translate(191.1001,822.5376)"
         id="g128">
        <path
           inkscape:connector-curvature="0"
           id="path130"
           style="fill:none;stroke:#ffffff;stroke-width:3;stroke-linecap:round;stroke-linejoin:round;stroke-miterlimit:10;stroke-dasharray:none;stroke-opacity:1"
           d="M 0,0 -4.231,3.906" />
      </g>
      <g
         transform="translate(234.2822,844.0781)"
         id="g132">
        <path
           inkscape:connector-curvature="0"
           id="path134"
           style="fill:none;stroke:#ffffff;stroke-width:3;stroke-linecap:round;stroke-linejoin:round;stroke-miterlimit:10;stroke-dasharray:none;stroke-opacity:1"
           d="M 0,0 -2.353,5.041" />
      </g>
      <g
         transform="translate(324.4199,823.689)"
         id="g136">
        <path
           inkscape:connector-curvature="0"
           id="path138"
           style="fill:none;stroke:#ffffff;stroke-width:3;stroke-linecap:round;stroke-linejoin:round;stroke-miterlimit:10;stroke-dasharray:none;stroke-opacity:1"
           d="M 0,0 4.455,4.114" />
      </g>
      <g
         transform="translate(280.6626,844.6958)"
         id="g140">
        <path
           inkscape:connector-curvature="0"
           id="path142"
           style="fill:none;stroke:#ffffff;stroke-width:3;stroke-linecap:round;stroke-linejoin:round;stroke-miterlimit:10;stroke-dasharray:none;stroke-opacity:1"
           d="M 0,0 2.478,5.308" />
      </g>
      <g
         transform="translate(259.1621,849.8188)"
         id="g144">
        <path
           inkscape:connector-curvature="0"
           id="path146"
           style="fill:none;stroke:#ffffff;stroke-width:3.5;stroke-linecap:round;stroke-linejoin:round;stroke-miterlimit:10;stroke-dasharray:none;stroke-opacity:1"
           d="M 0,0 V 12.883" />
      </g>
      <g
         transform="translate(461.5195,707.6992)"
         id="g148">
        <path
           inkscape:connector-curvature="0"
           id="path150"
           style="fill:none;stroke:#ffffff;stroke-width:5;stroke-linecap:round;stroke-linejoin:round;stroke-miterlimit:10;stroke-dasharray:none;stroke-opacity:1"
           d="m 0,0 c -6.076,-7.969 -60.346,-79.164 -60.346,-79.164 l -29.261,-10.602 3.462,30.268 c 0,0 54.272,71.192 60.348,79.164 5.022,6.587 11.865,9.596 21.824,2.007 C 6.439,13.735 5.145,6.755 0,0 Z" />
      </g>
      <g
         transform="translate(432.3262,721.125)"
         id="g152">
        <path
           inkscape:connector-curvature="0"
           id="path154"
           style="fill:none;stroke:#ffffff;stroke-width:6;stroke-linecap:round;stroke-linejoin:round;stroke-miterlimit:10;stroke-dasharray:none;stroke-opacity:1"
           d="M 0,0 C 3.959,-1.043 15.887,-4.568 24.469,-17.986" />
      </g>
      <g
         transform="translate(446.0937,714.2202)"
         id="g156">
        <path
           inkscape:connector-curvature="0"
           id="path158"
           style="fill:none;stroke:#ffffff;stroke-width:4;stroke-linecap:round;stroke-linejoin:round;stroke-miterlimit:10;stroke-dasharray:none;stroke-opacity:1"
           d="M 0,0 -54.105,-70.978" />
      </g>
      <g
         transform="translate(375.375,648.2012)"
         id="g160">
        <path
           inkscape:connector-curvature="0"
           id="path162"
           style="fill:none;stroke:#ffffff;stroke-width:4;stroke-linecap:round;stroke-linejoin:round;stroke-miterlimit:10;stroke-dasharray:none;stroke-opacity:1"
           d="m 0,0 c 0,0 14.535,7.803 14.125,-8.227 0,0 15.191,6.838 12.332,-10.576" />
      </g>
      <g
         transform="translate(379.0332,623.291)"
         id="g164">
        <path
           inkscape:connector-curvature="0"
           id="path166"
           style="fill:none;stroke:#ffffff;stroke-width:5;stroke-linecap:round;stroke-linejoin:round;stroke-miterlimit:10;stroke-dasharray:none;stroke-opacity:1"
           d="M 0,0 C 0,4.332 -4.205,3.209 -4.205,3.209 L -3.658,-1.32 Z" />
      </g>
      <g
         transform="translate(162.0137,704.3926)"
         id="g168">
        <path
           inkscape:connector-curvature="0"
           id="path170"
           style="fill:none;stroke:#ffffff;stroke-width:4;stroke-linecap:round;stroke-linejoin:round;stroke-miterlimit:10;stroke-dasharray:none;stroke-opacity:1"
           d="M 0,0 10.25,-8.346" />
      </g>
      <g
         transform="translate(172.2632,712.2266)"
         id="g172">
        <path
           inkscape:connector-curvature="0"
           id="path174"
           style="fill:none;stroke:#ffffff;stroke-width:4;stroke-linecap:round;stroke-linejoin:round;stroke-miterlimit:10;stroke-dasharray:none;stroke-opacity:1"
           d="M 0,0 7.479,-5.877" />
      </g>
      <g
         transform="translate(177.0635,722.9429)"
         id="g176">
        <path
           inkscape:connector-curvature="0"
           id="path178"
           style="fill:none;stroke:#ffffff;stroke-width:4;stroke-linecap:round;stroke-linejoin:round;stroke-miterlimit:10;stroke-dasharray:none;stroke-opacity:1"
           d="M 0,0 1.838,-1.457" />
      </g>
      <g
         transform="translate(183.7896,717.7964)"
         id="g180">
        <path
           inkscape:connector-curvature="0"
           id="path182"
           style="fill:none;stroke:#ffffff;stroke-width:4;stroke-linecap:round;stroke-linejoin:round;stroke-miterlimit:10;stroke-dasharray:none;stroke-opacity:1"
           d="M 0,0 1.838,-1.457" />
      </g>
      <g
         transform="translate(183.7896,733.2568)"
         id="g184">
        <path
           inkscape:connector-curvature="0"
           id="path186"
           style="fill:none;stroke:#ffffff;stroke-width:4;stroke-linecap:round;stroke-linejoin:round;stroke-miterlimit:10;stroke-dasharray:none;stroke-opacity:1"
           d="M 0,0 10.805,-8.225" />
      </g>
      <g
         transform="translate(392.6016,781.3896)"
         id="g188">
        <path
           inkscape:connector-curvature="0"
           id="path190"
           style="fill:none;stroke:#ffffff;stroke-width:4;stroke-linecap:round;stroke-linejoin:round;stroke-miterlimit:10;stroke-dasharray:none;stroke-opacity:1"
           d="M 0,0 C 0,0 -3.486,-5.083 -6.973,-7.253" />
      </g>
      <g
         transform="translate(435.4727,793.2578)"
         id="g192">
        <path
           inkscape:connector-curvature="0"
           id="path194"
           style="fill:none;stroke:#ffffff;stroke-width:4;stroke-linecap:round;stroke-linejoin:round;stroke-miterlimit:10;stroke-dasharray:none;stroke-opacity:1"
           d="M 0,0 C 0,0 -1.441,-2.889 -2.885,-4.701" />
      </g>
      <g
         transform="translate(426.3008,779.5898)"
         id="g196">
        <path
           inkscape:connector-curvature="0"
           id="path198"
           style="fill:none;stroke:#ffffff;stroke-width:4;stroke-linecap:round;stroke-linejoin:round;stroke-miterlimit:10;stroke-dasharray:none;stroke-opacity:1"
           d="M 0,0 C 0,0 -14.422,-22.617 -25.213,-31.533" />
      </g>
      <g
         transform="translate(401.8789,772.9023)"
         id="g200">
        <path
           inkscape:connector-curvature="0"
           id="path202"
           style="fill:none;stroke:#ffffff;stroke-width:4;stroke-linecap:round;stroke-linejoin:round;stroke-miterlimit:10;stroke-dasharray:none;stroke-opacity:1"
           d="M 0,0 C 0,0 12.084,11.987 18.115,26.166" />
      </g>
      <g
         transform="translate(208.3794,684.4395)"
         id="g204">
        <path
           inkscape:connector-curvature="0"
           id="path206"
           style="fill:none;stroke:#ffffff;stroke-width:4;stroke-linecap:round;stroke-linejoin:round;stroke-miterlimit:10;stroke-dasharray:none;stroke-opacity:1"
           d="M 0,0 C 0,0 3.208,-2.709 8.886,-4.396" />
      </g>
      <g
         transform="translate(222.0874,690.4941)"
         id="g208">
        <path
           inkscape:connector-curvature="0"
           id="path210"
           style="fill:none;stroke:#ffffff;stroke-width:4;stroke-linecap:round;stroke-linejoin:round;stroke-miterlimit:10;stroke-dasharray:none;stroke-opacity:1"
           d="M 0,0 C 0,0 9.958,-5.393 20.625,-4.725" />
      </g>
      <g
         transform="translate(236.4126,669.0059)"
         id="g212">
        <path
           inkscape:connector-curvature="0"
           id="path214"
           style="fill:none;stroke:#ffffff;stroke-width:4;stroke-linecap:round;stroke-linejoin:round;stroke-miterlimit:10;stroke-dasharray:none;stroke-opacity:1"
           d="M 0,0 C 0,0 4.893,-1.232 7.93,-0.9" />
      </g>
    </g>
  </g>
</svg>
