<?xml version="1.0" encoding="UTF-8" standalone="no"?>
<svg
   xmlns:dc="http://purl.org/dc/elements/1.1/"
   xmlns:cc="http://creativecommons.org/ns#"
   xmlns:rdf="http://www.w3.org/1999/02/22-rdf-syntax-ns#"
   xmlns:svg="http://www.w3.org/2000/svg"
   xmlns="http://www.w3.org/2000/svg"
   id="svg1041"
   version="1.1"
   viewBox="0 0 46.344529 34.531948"
   height="34.531948mm"
   width="46.344528mm">
  <title
     id="title5321">rule:fresh ice cubes</title>
  <defs
     id="defs1035">
    <clipPath
       id="clipPath414"
       clipPathUnits="userSpaceOnUse">
      <path
         id="path412"
         d="M 0,430 H 920 V 0 H 0 Z" />
    </clipPath>
  </defs>
  <metadata
     id="metadata1038">
    <rdf:RDF>
      <cc:Work
         rdf:about="">
        <dc:format>image/svg+xml</dc:format>
        <dc:type
           rdf:resource="http://purl.org/dc/dcmitype/StillImage" />
        <dc:title>rule:fresh ice cubes</dc:title>
        <dc:date>14/06/18</dc:date>
        <dc:creator>
          <cc:Agent>
            <dc:title>rule:fresh</dc:title>
          </cc:Agent>
        </dc:creator>
        <dc:rights>
          <cc:Agent>
            <dc:title>rule:fresh</dc:title>
          </cc:Agent>
        </dc:rights>
        <dc:publisher>
          <cc:Agent>
            <dc:title>rule:fresh</dc:title>
          </cc:Agent>
        </dc:publisher>
        <dc:subject>
          <rdf:Bag>
            <rdf:li>rule:fresh</rdf:li>
            <rdf:li>rulefresh</rdf:li>
            <rdf:li>rf</rdf:li>
            <rdf:li>ice cubes</rdf:li>
          </rdf:Bag>
        </dc:subject>
        <dc:description>ice cubes by rule:fresh
www.rulefresh.com</dc:description>
      </cc:Work>
    </rdf:RDF>
  </metadata>
  <g
     transform="translate(221.98145,-417.33529)"
     id="layer1">
    <g
       id="g1332"
       transform="matrix(0.35277777,0,0,-0.35277777,-191.90344,440.50831)">
      <path
         d="m 0,0 c 3.477,3.658 3.477,5.158 3.477,9.73 v 15.834 c 0,7.575 -1.569,9.143 -9.144,9.143 h -20.326 c -3.681,0 -5.073,-0.09 -8.668,-3.957 -3.019,-3.25 -8.616,-10.773 -8.616,-10.773 -2.147,-2.993 -2.432,-5.004 -2.432,-9.088 V -2.352 c 0,-7.574 1.568,-9.142 9.143,-9.142 h 24.86 c 0,0 8.19,7.797 11.706,11.494 z"
         style="fill:none;stroke:#ffffff;stroke-width:4;stroke-linecap:round;stroke-linejoin:round;stroke-miterlimit:10;stroke-dasharray:none;stroke-opacity:1"
         id="path1330" />
    </g>
    <g
       id="g1336"
       transform="matrix(0.35277777,0,0,-0.35277777,-200.0652,434.8687)">
      <path
         d="M 0,0 H 9.049 L 13.24,4.008"
         style="fill:none;stroke:#ffffff;stroke-width:4;stroke-linecap:round;stroke-linejoin:round;stroke-miterlimit:10;stroke-dasharray:none;stroke-opacity:1"
         id="path1334" />
    </g>
    <g
       id="g1340"
       transform="matrix(0.35277777,0,0,-0.35277777,-196.87299,434.8687)">
      <path
         d="M 0,0 V -10.75"
         style="fill:none;stroke:#ffffff;stroke-width:4;stroke-linecap:round;stroke-linejoin:round;stroke-miterlimit:10;stroke-dasharray:none;stroke-opacity:1"
         id="path1338" />
    </g>
    <g
       id="g1344"
       transform="matrix(0.35277777,0,0,-0.35277777,-187.74553,434.05978)">
      <path
         d="m 0,0 h 6.899 c 0,0 8.051,7.662 11.506,11.297 3.417,3.596 3.417,5.07 3.417,9.562 v 15.563 c 0,7.445 -1.543,8.986 -8.988,8.986 H -7.142 c -3.618,0 -4.986,-0.088 -8.519,-3.89 -2.967,-3.194 -8.468,-10.588 -8.468,-10.588 -0.937,-1.305 -1.796,-2.799 -1.936,-6.985"
         style="fill:none;stroke:#ffffff;stroke-width:4;stroke-linecap:round;stroke-linejoin:round;stroke-miterlimit:10;stroke-dasharray:none;stroke-opacity:1"
         id="path1342" />
    </g>
    <g
       id="g1348"
       transform="matrix(0.35277777,0,0,-0.35277777,-189.27447,424.53132)">
      <path
         d="m 0,0 h 8.892 l 4.12,3.938"
         style="fill:none;stroke:#ffffff;stroke-width:4;stroke-linecap:round;stroke-linejoin:round;stroke-miterlimit:10;stroke-dasharray:none;stroke-opacity:1"
         id="path1346" />
    </g>
    <g
       id="g1352"
       transform="matrix(0.35277777,0,0,-0.35277777,-186.13771,424.53132)">
      <path
         d="M 0,0 V -10.566"
         style="fill:none;stroke:#ffffff;stroke-width:4;stroke-linecap:round;stroke-linejoin:round;stroke-miterlimit:10;stroke-dasharray:none;stroke-opacity:1"
         id="path1350" />
    </g>
    <g
       id="g1356"
       transform="matrix(0.35277777,0,0,-0.35277777,-210.46009,434.05978)">
      <path
         d="m 0,0 h -2.834 c -7.445,0 -8.987,1.543 -8.987,8.986 v 13.012 c 0,4.014 0.281,5.992 2.391,8.932 0,0 5.501,7.394 8.469,10.588 3.532,3.802 4.9,3.89 8.518,3.89 h 19.977 c 6.648,0 8.589,-1.228 8.928,-6.795"
         style="fill:none;stroke:#ffffff;stroke-width:4;stroke-linecap:round;stroke-linejoin:round;stroke-miterlimit:10;stroke-dasharray:none;stroke-opacity:1"
         id="path1354" />
    </g>
    <g
       id="g1360"
       transform="matrix(0.35277777,0,0,-0.35277777,-206.80347,424.53132)">
      <path
         d="m 0,0 h 8.893 l 4.119,3.938"
         style="fill:none;stroke:#ffffff;stroke-width:4;stroke-linecap:round;stroke-linejoin:round;stroke-miterlimit:10;stroke-dasharray:none;stroke-opacity:1"
         id="path1358" />
    </g>
    <g
       id="g1364"
       transform="matrix(0.35277777,0,0,-0.35277777,-203.66618,424.53132)">
      <path
         d="M 0,0 V -4.305"
         style="fill:none;stroke:#ffffff;stroke-width:4;stroke-linecap:round;stroke-linejoin:round;stroke-miterlimit:10;stroke-dasharray:none;stroke-opacity:1"
         id="path1362" />
    </g>
    <g
       id="g1368"
       transform="matrix(0.35277777,0,0,-0.35277777,-217.1594,430.40384)">
      <path
         d="m 0,0 c -8.063,-0.93 -17.132,-8.742 -8.958,-16.916 5,-5 12.833,-4.834 12.083,-10.459 -0.479,-3.596 -6.165,-4.678 -7.667,-9.93 -1.333,-4.666 3.404,-9.861 11.167,-8.084 14.646,3.354 18.318,-1.375 22.73,-6.875 8.125,-10.125 23.709,-8.709 32.209,-0.041 7.678,7.83 10.648,7.752 21.311,6.389 17.583,-2.25 22.052,4.473 18.167,12 -4,7.75 9.25,8.25 13.333,12.5 4.748,4.941 0.164,11.68 -9.175,15.111"
         style="fill:none;stroke:#ffffff;stroke-width:3;stroke-linecap:round;stroke-linejoin:round;stroke-miterlimit:10;stroke-dasharray:none;stroke-opacity:1"
         id="path1366" />
    </g>
    <g
       id="g1372"
       transform="matrix(0.35277777,0,0,-0.35277777,-214.10982,437.33535)">
      <path
         d="M 0,0 C 0,0 2.767,-1.459 2.767,-5.959"
         style="fill:none;stroke:#ffffff;stroke-width:3;stroke-linecap:round;stroke-linejoin:round;stroke-miterlimit:10;stroke-dasharray:none;stroke-opacity:1"
         id="path1370" />
    </g>
    <g
       id="g1376"
       transform="matrix(0.35277777,0,0,-0.35277777,-213.36895,441.53563)">
      <path
         d="M 0,0 C 0,0 -0.717,-1.553 -2.575,-1.885"
         style="fill:none;stroke:#ffffff;stroke-width:3;stroke-linecap:round;stroke-linejoin:round;stroke-miterlimit:10;stroke-dasharray:none;stroke-opacity:1"
         id="path1374" />
    </g>
    <g
       id="g1380"
       transform="matrix(0.35277777,0,0,-0.35277777,-187.05462,444.12566)">
      <path
         d="M 0,0 C 1.825,-0.98 6.527,-1.141 7.534,2.281"
         style="fill:none;stroke:#ffffff;stroke-width:3;stroke-linecap:round;stroke-linejoin:round;stroke-miterlimit:10;stroke-dasharray:none;stroke-opacity:1"
         id="path1378" />
    </g>
    <g
       id="g1384"
       transform="matrix(0.35277777,0,0,-0.35277777,-184.2796,441.18836)">
      <path
         d="M 0,0 C -0.208,1.797 0.271,3.076 1.125,3.922"
         style="fill:none;stroke:#ffffff;stroke-width:3;stroke-linecap:round;stroke-linejoin:round;stroke-miterlimit:10;stroke-dasharray:none;stroke-opacity:1"
         id="path1382" />
    </g>
  </g>
</svg>
