<?xml version="1.0" encoding="UTF-8" standalone="no"?>
<svg
   xmlns:dc="http://purl.org/dc/elements/1.1/"
   xmlns:cc="http://creativecommons.org/ns#"
   xmlns:rdf="http://www.w3.org/1999/02/22-rdf-syntax-ns#"
   xmlns:svg="http://www.w3.org/2000/svg"
   xmlns="http://www.w3.org/2000/svg"
   id="svg1041"
   version="1.1"
   viewBox="0 0 18.808588 44.225105"
   height="44.225105mm"
   width="18.808588mm">
  <title
     id="title5321">rule:fresh ice cream</title>
  <defs
     id="defs1035">
    <clipPath
       id="clipPath414"
       clipPathUnits="userSpaceOnUse">
      <path
         id="path412"
         d="M 0,430 H 920 V 0 H 0 Z" />
    </clipPath>
  </defs>
  <metadata
     id="metadata1038">
    <rdf:RDF>
      <cc:Work
         rdf:about="">
        <dc:format>image/svg+xml</dc:format>
        <dc:type
           rdf:resource="http://purl.org/dc/dcmitype/StillImage" />
        <dc:title>rule:fresh ice cream</dc:title>
        <dc:date>14/06/18</dc:date>
        <dc:creator>
          <cc:Agent>
            <dc:title>rule:fresh</dc:title>
          </cc:Agent>
        </dc:creator>
        <dc:rights>
          <cc:Agent>
            <dc:title>rule:fresh</dc:title>
          </cc:Agent>
        </dc:rights>
        <dc:publisher>
          <cc:Agent>
            <dc:title>rule:fresh</dc:title>
          </cc:Agent>
        </dc:publisher>
        <dc:subject>
          <rdf:Bag>
            <rdf:li>rule:fresh</rdf:li>
            <rdf:li>rulefresh</rdf:li>
            <rdf:li>rf</rdf:li>
            <rdf:li>ice cream</rdf:li>
          </rdf:Bag>
        </dc:subject>
        <dc:description>ice cream by rule:fresh
www.rulefresh.com</dc:description>
      </cc:Work>
    </rdf:RDF>
  </metadata>
  <g
     transform="translate(111.78263,-518.35454)"
     id="layer1">
    <g
       id="g1424"
       transform="matrix(0.35277777,0,0,-0.35277777,-108.77753,542.59198)">
      <path
         d="m 0,0 c 0,0 12.813,-44.153 14.903,-50.288 1.942,-5.703 6.249,-5.949 8.364,0 2.17,6.107 15.879,52.756 15.879,52.756"
         style="fill:none;stroke:#ffffff;stroke-width:4;stroke-linecap:round;stroke-linejoin:round;stroke-miterlimit:10;stroke-dasharray:none;stroke-opacity:1"
         id="path1422" />
    </g>
    <g
       id="g1428"
       transform="matrix(0.35277777,0,0,-0.35277777,-107.45945,527.25063)">
      <path
         d="m 0,0 c -1.415,1.93 -2.359,4.889 1.885,8.104 4.244,3.216 7.074,7.716 2.701,10.291 -4.373,2.572 -2.083,5.177 2.959,4.757 6.174,-0.513 10.798,-4.494 12.861,-10.547 1.93,-5.658 -0.596,-7.164 1.973,-8.917 3.516,-2.401 7.546,-5.747 7.032,-11.663 -0.358,-4.107 0.23,-4.054 2.957,-5.658 3.645,-2.144 4.63,-6.431 3.73,-9.133 -0.901,-2.701 6.258,-7.228 1.174,-15.811 -3.38,-5.708 -8.709,-7.695 -23.667,-7.584 -11.317,0.084 -17.405,2.157 -20.559,6.166 -4.525,5.75 -4.275,14.251 0,17.251 4.695,3.296 7.764,0.5 12.475,0.083 10.322,-0.913 13.03,3.667 16.567,7.186"
         style="fill:none;stroke:#ffffff;stroke-width:4;stroke-linecap:round;stroke-linejoin:round;stroke-miterlimit:10;stroke-dasharray:none;stroke-opacity:1"
         id="path1426" />
    </g>
    <g
       id="g1432"
       transform="matrix(0.35277777,0,0,-0.35277777,-101.66617,527.39672)">
      <path
         d="M 0,0 C 1.587,1.191 2.974,2.254 4.258,3.859"
         style="fill:none;stroke:#ffffff;stroke-width:4;stroke-linecap:round;stroke-linejoin:round;stroke-miterlimit:10;stroke-dasharray:none;stroke-opacity:1"
         id="path1430" />
    </g>
    <g
       id="g1436"
       transform="matrix(0.35277777,0,0,-0.35277777,-109.4755,534.60107)">
      <path
         d="m 0,0 c 0,0 -2.176,2.83 -0.761,6.816 1.415,3.989 4.802,7.118 9.99,7.76 1.828,0.227 3.54,0.625 5.058,0.99"
         style="fill:none;stroke:#ffffff;stroke-width:4;stroke-linecap:round;stroke-linejoin:round;stroke-miterlimit:10;stroke-dasharray:none;stroke-opacity:1"
         id="path1434" />
    </g>
    <g
       id="g1440"
       transform="matrix(0.35277777,0,0,-0.35277777,-94.724981,535.28183)">
      <path
         d="M 0,0 C 0,0 -3.242,-8.396 -16.682,-10.229"
         style="fill:none;stroke:#ffffff;stroke-width:4;stroke-linecap:round;stroke-linejoin:round;stroke-miterlimit:10;stroke-dasharray:none;stroke-opacity:1"
         id="path1438" />
    </g>
  </g>
</svg>
