<?xml version="1.0" encoding="UTF-8" standalone="no"?>
<svg
   xmlns:dc="http://purl.org/dc/elements/1.1/"
   xmlns:cc="http://creativecommons.org/ns#"
   xmlns:rdf="http://www.w3.org/1999/02/22-rdf-syntax-ns#"
   xmlns:svg="http://www.w3.org/2000/svg"
   xmlns="http://www.w3.org/2000/svg"
   id="svg1041"
   version="1.1"
   viewBox="0 0 38.516628 33.543167"
   height="33.543167mm"
   width="38.516628mm">
  <title
     id="title5321">rule:fresh smartphone</title>
  <defs
     id="defs1035">
    <clipPath
       id="clipPath414"
       clipPathUnits="userSpaceOnUse">
      <path
         id="path412"
         d="M 0,430 H 920 V 0 H 0 Z" />
    </clipPath>
  </defs>
  <metadata
     id="metadata1038">
    <rdf:RDF>
      <cc:Work
         rdf:about="">
        <dc:format>image/svg+xml</dc:format>
        <dc:type
           rdf:resource="http://purl.org/dc/dcmitype/StillImage" />
        <dc:title>rule:fresh smartphone</dc:title>
        <dc:date>14/06/18</dc:date>
        <dc:creator>
          <cc:Agent>
            <dc:title>rule:fresh</dc:title>
          </cc:Agent>
        </dc:creator>
        <dc:rights>
          <cc:Agent>
            <dc:title>rule:fresh</dc:title>
          </cc:Agent>
        </dc:rights>
        <dc:publisher>
          <cc:Agent>
            <dc:title>rule:fresh</dc:title>
          </cc:Agent>
        </dc:publisher>
        <dc:subject>
          <rdf:Bag>
            <rdf:li>rule:fresh</rdf:li>
            <rdf:li>rulefresh</rdf:li>
            <rdf:li>rf</rdf:li>
            <rdf:li>smartphone</rdf:li>
          </rdf:Bag>
        </dc:subject>
        <dc:description>smartphone by rule:fresh
www.rulefresh.com</dc:description>
      </cc:Work>
    </rdf:RDF>
  </metadata>
  <g
     transform="translate(129.81348,-210.88786)"
     id="layer1">
    <g
       id="g1073"
       transform="matrix(0.35277777,0,0,-0.35277777,-101.09649,240.1977)">
      <path
         d="m 0,0 c 0,-6.627 -4.373,-10 -11,-10 h -31.667 c -6.627,0 -11,3.373 -11,10 v 71.083 c 0,6.627 4.373,10 11,10 H -11 c 6.627,0 11,-3.373 11,-10 z"
         style="fill:none;stroke:#ffffff;stroke-width:4;stroke-linecap:round;stroke-linejoin:round;stroke-miterlimit:10;stroke-dasharray:none;stroke-opacity:1"
         id="path1071" />
    </g>
    <path
       d="m -103.68341,236.78743 h -13.75833 v -19.99086 h 13.75833 z"
       style="fill:none;stroke:#ffffff;stroke-width:1.23472214;stroke-linecap:round;stroke-linejoin:round;stroke-miterlimit:10;stroke-dasharray:none;stroke-opacity:1"
       id="path1075" />
    <g
       id="g1079"
       transform="matrix(0.35277777,0,0,-0.35277777,-112.67924,214.34208)">
      <path
         d="M 0,0 H 12"
         style="fill:none;stroke:#ffffff;stroke-width:3.5;stroke-linecap:round;stroke-linejoin:round;stroke-miterlimit:10;stroke-dasharray:none;stroke-opacity:1"
         id="path1077" />
    </g>
    <g
       id="g1083"
       transform="matrix(0.35277777,0,0,-0.35277777,-109.01917,240.25488)">
      <path
         d="m 0,0 c 0,-2.417 -1.958,-4.375 -4.375,-4.375 -2.417,0 -4.375,1.958 -4.375,4.375 0,2.417 1.958,4.375 4.375,4.375 C -1.958,4.375 0,2.417 0,0 Z"
         style="fill:none;stroke:#ffffff;stroke-width:3.5;stroke-linecap:round;stroke-linejoin:round;stroke-miterlimit:10;stroke-dasharray:none;stroke-opacity:1"
         id="path1081" />
    </g>
    <g
       id="g1107"
       transform="matrix(0.35277777,0,0,-0.35277777,-216.065,335.79945)">
      <g
         id="g1105"
         clip-path="url(#clipPath414)">
        <g
           id="g1091"
           transform="translate(345.3105,332.4731)">
          <path
             d="m 0,0 c 4.125,-4.861 6.613,-11.155 6.613,-18.03 0,-6.938 -2.535,-13.284 -6.727,-18.163"
             style="fill:none;stroke:#ffffff;stroke-width:3.5;stroke-linecap:round;stroke-linejoin:round;stroke-miterlimit:10;stroke-dasharray:none;stroke-opacity:1"
             id="path1089" />
        </g>
        <g
           id="g1095"
           transform="translate(337.397,326.7822)">
          <path
             d="M 0,0 C 2.622,-3.42 4.18,-7.698 4.18,-12.339 4.179,-16.983 2.619,-21.263 -0.005,-24.683"
             style="fill:none;stroke:#ffffff;stroke-width:3.5;stroke-linecap:round;stroke-linejoin:round;stroke-miterlimit:10;stroke-dasharray:none;stroke-opacity:1"
             id="path1093" />
        </g>
        <g
           id="g1099"
           transform="translate(252.8555,332.4731)">
          <path
             d="m 0,0 c -4.125,-4.861 -6.613,-11.155 -6.613,-18.03 0.001,-6.938 2.534,-13.284 6.727,-18.163"
             style="fill:none;stroke:#ffffff;stroke-width:3.5;stroke-linecap:round;stroke-linejoin:round;stroke-miterlimit:10;stroke-dasharray:none;stroke-opacity:1"
             id="path1097" />
        </g>
        <g
           id="g1103"
           transform="translate(260.769,326.7822)">
          <path
             d="m 0,0 c -2.622,-3.42 -4.18,-7.698 -4.18,-12.339 10e-4,-4.644 1.561,-8.924 4.185,-12.344"
             style="fill:none;stroke:#ffffff;stroke-width:3.5;stroke-linecap:round;stroke-linejoin:round;stroke-miterlimit:10;stroke-dasharray:none;stroke-opacity:1"
             id="path1101" />
        </g>
      </g>
    </g>
    <text
       id="text5371"
       y="228.42827"
       x="-110.83784"
       style="font-style:normal;font-variant:normal;font-weight:bold;font-stretch:normal;font-size:2.82222223px;line-height:60;font-family:Rubik;-inkscape-font-specification:'Rubik Bold';text-align:center;letter-spacing:0px;word-spacing:0px;text-anchor:middle;fill:#ffffff;fill-opacity:1;stroke:none;stroke-width:0.26458332"
       xml:space="preserve"><tspan
         style="font-size:9.87777805px;fill:#ffffff;fill-opacity:1;stroke-width:0.26458332"
         y="228.42827"
         x="-110.83784"
         id="tspan5369">rf</tspan></text>
  </g>
</svg>
