<?xml version="1.0" encoding="UTF-8" standalone="no"?>
<svg
   xmlns:dc="http://purl.org/dc/elements/1.1/"
   xmlns:cc="http://creativecommons.org/ns#"
   xmlns:rdf="http://www.w3.org/1999/02/22-rdf-syntax-ns#"
   xmlns:svg="http://www.w3.org/2000/svg"
   xmlns="http://www.w3.org/2000/svg"
   xml:space="preserve"
   style="enable-background:new 0 0 438.533 438.533;"
   viewBox="0 0 438.533 438.533"
   height="438.533px"
   width="438.533px"
   y="0px"
   x="0px"
   id="Capa_1"
   version="1.1"><title
   id="title856">rule:fresh up chevron</title><metadata
   id="metadata854"><rdf:RDF><cc:Work
       rdf:about=""><dc:format>image/svg+xml</dc:format><dc:type
         rdf:resource="http://purl.org/dc/dcmitype/StillImage" /><dc:title>rule:fresh up chevron</dc:title><dc:date>14/06/18</dc:date><dc:creator><cc:Agent><dc:title>rule:fresh</dc:title></cc:Agent></dc:creator><dc:rights><cc:Agent><dc:title>rule:fresh</dc:title></cc:Agent></dc:rights><dc:publisher><cc:Agent><dc:title>rule:fresh</dc:title></cc:Agent></dc:publisher><dc:subject><rdf:Bag><rdf:li>rule:fresh</rdf:li><rdf:li>rulefresh</rdf:li><rdf:li>rf</rdf:li><rdf:li>chevron</rdf:li></rdf:Bag></dc:subject><dc:description>up chevron by rule:fresh 
www.rulefresh.com</dc:description></cc:Work></rdf:RDF></metadata><defs
   id="defs852" />
<g
   id="g817">
	<path
   style="fill:#f7f7f7;fill-opacity:1"
   id="path815"
   d="M 409.133,109.203 C 389.525,75.611 362.928,49.014 329.335,29.407 295.736,9.801 259.058,0 219.273,0 179.492,0 142.803,9.801 109.21,29.407 75.615,49.011 49.018,75.608 29.41,109.203 9.801,142.8 0,179.489 0,219.267 c 0,39.78 9.804,76.463 29.407,110.062 19.607,33.592 46.204,60.189 79.799,79.798 33.597,19.605 70.283,29.407 110.063,29.407 39.78,0 76.47,-9.802 110.065,-29.407 33.593,-19.602 60.189,-46.206 79.795,-79.798 19.603,-33.596 29.403,-70.284 29.403,-110.062 0.001,-39.782 -9.8,-76.472 -29.399,-110.064 z m -47.393,150.314 -29.123,29.129 c -3.621,3.614 -7.901,5.424 -12.847,5.424 -4.948,0 -9.236,-1.81 -12.847,-5.424 l -87.654,-87.653 -87.646,87.653 c -3.616,3.614 -7.898,5.424 -12.847,5.424 -4.95,0 -9.233,-1.81 -12.85,-5.424 l -29.12,-29.129 c -3.617,-3.607 -5.426,-7.898 -5.426,-12.847 0,-4.942 1.809,-9.227 5.426,-12.848 l 129.62,-129.616 c 3.617,-3.617 7.898,-5.424 12.847,-5.424 4.949,0 9.238,1.807 12.846,5.424 L 361.74,233.822 c 3.613,3.621 5.424,7.905 5.424,12.848 0,4.948 -1.807,9.239 -5.424,12.847 z" />
</g>
<g
   id="g819">
</g>
<g
   id="g821">
</g>
<g
   id="g823">
</g>
<g
   id="g825">
</g>
<g
   id="g827">
</g>
<g
   id="g829">
</g>
<g
   id="g831">
</g>
<g
   id="g833">
</g>
<g
   id="g835">
</g>
<g
   id="g837">
</g>
<g
   id="g839">
</g>
<g
   id="g841">
</g>
<g
   id="g843">
</g>
<g
   id="g845">
</g>
<g
   id="g847">
</g>
</svg>