<?xml version="1.0" encoding="UTF-8" standalone="no"?>
<svg
   xmlns:dc="http://purl.org/dc/elements/1.1/"
   xmlns:cc="http://creativecommons.org/ns#"
   xmlns:rdf="http://www.w3.org/1999/02/22-rdf-syntax-ns#"
   xmlns:svg="http://www.w3.org/2000/svg"
   xmlns="http://www.w3.org/2000/svg"
   xml:space="preserve"
   style="enable-background:new 0 0 502.548 502.548;"
   viewBox="0 0 502.548 502.548"
   y="0px"
   x="0px"
   id="Capa_1"
   version="1.1"><metadata
   id="metadata43"><rdf:RDF><cc:Work
       rdf:about=""><dc:format>image/svg+xml</dc:format><dc:type
         rdf:resource="http://purl.org/dc/dcmitype/StillImage" /><dc:title></dc:title></cc:Work></rdf:RDF></metadata><defs
   id="defs41" />
<g
   style="fill:#ffffff"
   id="g6">
	<g
   style="fill:#ffffff"
   id="g4">
		<path
   style="fill:#ffffff"
   id="path2"
   d="m 490.932,91.474 c 1.133,-3.4 1.7,-7.083 1.7,-10.767 0,-18.417 -14.733,-33.717 -33.15,-34 -0.283,0 -0.567,0 -0.85,0 -0.567,0 -1.417,0 -1.983,0 -5.1,0.283 -9.917,1.7 -14.167,3.967 -1.417,0.567 -2.55,1.417 -3.683,1.983 -0.567,0.283 -1.133,0.567 -1.7,0.85 -8.783,3.4 -17.85,6.8 -27.2,10.2 -15.583,-11.333 -34,-19.833 -55.817,-24.65 -2.55,-0.567 -5.1,-1.417 -7.65,-1.417 h -24.083 c -2.833,0 -5.95,1.133 -8.783,1.7 -18.983,5.1 -38.817,12.183 -56.95,27.2 -24.65,20.683 -39.667,47.033 -44.483,77.35 C 162.55,133.407 121.466,109.323 87.75,68.807 81.233,61.157 71.883,57.474 61.683,57.474 v 0 c -9.917,0 -19.55,3.967 -26.067,11.617 -18.7,22.383 -25.783,51.85 -19.833,83.867 1.7,8.783 4.25,17.567 7.65,26.35 -4.533,5.1 -7.367,11.333 -8.217,18.133 -3.967,32.3 7.65,62.617 32.583,87.833 -1.133,4.817 -1.417,9.633 -0.283,14.45 4.25,22.1 15.583,41.083 32.867,55.817 -10.483,2.267 -21.817,3.683 -33.717,3.683 -3.4,0 -6.8,0 -10.2,-0.283 -0.85,0 -1.7,0 -2.55,0 -14.733,0 -28.05,9.633 -32.3,23.8 -4.817,15.017 1.417,31.45 15.017,39.383 1.133,0.567 2.267,1.417 3.4,1.983 2.833,1.7 6.233,3.683 9.633,5.667 43.633,23.233 90.1,35.133 137.7,35.133 17.567,0 35.417,-1.7 53.267,-4.817 58.083,-10.2 109.933,-36.833 150.167,-76.217 40.234,-39.384 68.283,-91.517 80.75,-150.167 2.833,-13.6 3.967,-26.917 4.817,-39.667 0.283,-4.817 0.567,-9.35 1.133,-13.883 14.733,-13.033 27.483,-26.917 38.533,-42.783 3.967,-5.667 6.517,-12.467 6.517,-19.833 -0.002,-10.482 -4.535,-19.832 -11.618,-26.066 z m -60.917,67.434 c -2.833,2.55 -5.1,7.367 -5.667,11.333 -2.267,18.7 -2.267,37.967 -6.233,56.1 -22.95,106.533 -99.45,181.617 -203.717,200.317 -15.867,2.833 -31.733,4.25 -47.317,4.25 -42.217,0 -82.733,-10.483 -121.55,-31.167 -3.967,-1.983 -7.65,-4.533 -11.617,-6.8 4.25,0.283 8.5,0.567 12.75,0.567 50.717,0 96.9,-21.533 114.183,-39.1 -44.483,-6.8 -73.95,-29.75 -79.9,-60.633 11.617,-0.567 23.233,-1.417 35.133,-1.983 -47.317,-22.667 -71.117,-54.4 -66.867,-90.1 11.333,2.833 22.95,5.667 34.283,8.5 -37.4,-39.95 -47.033,-89.817 -21.817,-119.567 47.883,56.95 109.367,87.267 184.45,92.367 -0.283,-2.267 -0.567,-3.683 -0.567,-5.1 -3.683,-34 6.233,-63.183 33.15,-85.567 12.75,-10.767 28.05,-15.017 43.917,-20.683 7.933,0 16.15,0 24.083,0 20.4,5.667 38.817,13.6 54.4,28.05 0.85,0.567 2.267,1.417 3.683,1.417 0.85,0 1.983,0 2.55,-0.283 14.167,-5.1 28.333,-10.2 42.5,-15.583 2.55,-1.133 5.1,-2.55 9.067,-4.533 -7.933,20.967 -20.683,35.7 -37.4,47.317 0.283,0.567 0.567,1.417 1.133,1.983 15.017,-4.25 30.317,-8.5 46.183,-13.033 -11.33,16.147 -24.08,29.747 -38.813,41.931 z" />
	</g>
</g>
<g
   id="g8">
</g>
<g
   id="g10">
</g>
<g
   id="g12">
</g>
<g
   id="g14">
</g>
<g
   id="g16">
</g>
<g
   id="g18">
</g>
<g
   id="g20">
</g>
<g
   id="g22">
</g>
<g
   id="g24">
</g>
<g
   id="g26">
</g>
<g
   id="g28">
</g>
<g
   id="g30">
</g>
<g
   id="g32">
</g>
<g
   id="g34">
</g>
<g
   id="g36">
</g>
</svg>