<?xml version="1.0" encoding="utf-8"?>
<!-- Generator: Adobe Illustrator 19.0.0, SVG Export Plug-In . SVG Version: 6.00 Build 0)  -->
<svg version="1.1" id="Layer_1" xmlns="http://www.w3.org/2000/svg" xmlns:xlink="http://www.w3.org/1999/xlink" x="0px" y="0px"
	 viewBox="0 0 64.2 57.9" style="enable-background:new 0 0 64.2 57.9;" xml:space="preserve">
<style type="text/css">
	.st0{clip-path:url(#SVGID_2_);fill:#373636;}
</style>
<g>
	<defs>
		<rect id="SVGID_1_" width="64.2" height="57.9"/>
	</defs>
	<clipPath id="SVGID_2_">
		<use xlink:href="#SVGID_1_"  style="overflow:visible;"/>
	</clipPath>
	<path class="st0" d="M21.9,44C21.9,44,22,44,21.9,44C22,44,22,44,21.9,44C21.9,43.9,21.9,43.9,21.9,44 M46.1,46.3
		C46.1,46.3,46.1,46.3,46.1,46.3C46.1,46.3,46.1,46.4,46.1,46.3 M46.1,46.3L46.1,46.3C46.2,46.4,46.2,46.4,46.1,46.3 M52.7,53.5
		c0.2,0.1,0.2,0.2,0.2,0.2C52.8,53.6,52.8,53.5,52.7,53.5L52.7,53.5C52.6,53.5,52.3,53.1,52.7,53.5 M53,53.7L53,53.7
		C53,53.8,53,53.8,53,53.7 M32.6,26c0,0-0.1-0.1-0.1-0.1c0,0,0,0,0,0c0,0,0,0,0,0.1C32.6,26,32.6,26,32.6,26 M32.8,26.2
		C32.8,26.2,32.8,26.2,32.8,26.2c0,0-0.1-0.1-0.1-0.1C32.7,26.1,32.8,26.2,32.8,26.2L32.8,26.2z M14.7,37.8L14.7,37.8
		C14.7,37.8,14.7,37.8,14.7,37.8 M14.7,37.8C14.7,37.8,14.7,37.8,14.7,37.8C14.7,37.8,14.7,37.8,14.7,37.8 M14.9,38
		C14.9,38,14.9,38,14.9,38L14.9,38C14.9,38,14.9,38,14.9,38 M14.7,37.8c0,0,0,0.1,0.2,0.2C14.9,37.9,14.8,37.9,14.7,37.8 M17,40.4
		C17,40.4,17,40.4,17,40.4C17,40.4,17.1,40.4,17,40.4C17.1,40.4,17.1,40.4,17,40.4C17,40.4,17,40.4,17,40.4 M16.9,40.2
		c0,0,0,0.1,0.2,0.2C17,40.3,16.9,40.2,16.9,40.2 M16.8,40.2C16.8,40.2,16.8,40.2,16.8,40.2C16.8,40.1,16.9,40.1,16.8,40.2
		 M17.5,40.6C17.5,40.6,17.5,40.6,17.5,40.6C17.5,40.6,17.5,40.6,17.5,40.6C17.5,40.6,17.5,40.6,17.5,40.6
		C17.5,40.6,17.5,40.6,17.5,40.6c0,0,0.1,0.1,0.1,0.1C17.5,40.6,17.5,40.6,17.5,40.6 M18.1,41C18.2,41,18.2,41.1,18.1,41L18.1,41z
		 M23,42.9L23,42.9C23.1,43,23.1,43,23,42.9 M32.3,44.4C32.3,44.4,32.4,44.4,32.3,44.4C32.4,44.4,32.3,44.4,32.3,44.4 M32.5,44.5
		c-0.1,0,0,0-0.2-0.1C32.4,44.5,32.5,44.5,32.5,44.5 M31.3,44L31.3,44C31.3,44,31.3,44,31.3,44C31.3,44,31.3,44,31.3,44 M30.9,43.8
		c0,0.1,0.1,0.2,0.4,0.2C31.2,43.8,31,43.8,30.9,43.8 M30.8,43.8C30.8,43.8,30.9,43.8,30.8,43.8C30.9,43.7,30.9,43.7,30.8,43.8
		 M30.9,43.7C30.8,43.7,30.8,43.7,30.9,43.7C30.8,43.8,30.8,43.8,30.9,43.7 M30.8,43.7c0,0,0-0.1-0.1-0.1c-0.1,0-0.1,0-0.1,0.1
		C30.6,43.7,30.7,43.7,30.8,43.7 M25.6,43.4c0,0,0.1,0.1,0.1,0.1c0.1,0,0.1,0,0.1-0.1C25.8,43.4,25.6,43.4,25.6,43.4 M25.5,43.4
		C25.5,43.4,25.5,43.4,25.5,43.4C25.6,43.3,25.5,43.3,25.5,43.4 M25.5,43.3C25.5,43.3,25.5,43.3,25.5,43.3
		C25.5,43.4,25.5,43.4,25.5,43.3 M25.1,43.1C25.1,43.1,25.1,43.1,25.1,43.1C25.1,43.1,25.1,43.1,25.1,43.1 M25.1,43.1
		c0,0,0,0.2,0.4,0.2C25.5,43.3,25.5,43.1,25.1,43.1 M23,42.9C23,42.9,23,42.9,23,42.9C23,42.9,23,42.9,23,42.9 M22.6,42.7
		c0.1,0.1,0.2,0.1,0.3,0.2C22.9,42.8,22.8,42.8,22.6,42.7 M22.6,42.7C22.6,42.7,22.6,42.7,22.6,42.7C22.5,42.7,22.5,42.7,22.6,42.7
		C22.6,42.7,22.6,42.7,22.6,42.7C22.6,42.7,22.6,42.7,22.6,42.7L22.6,42.7z M17.7,40.8C17.7,40.8,17.6,40.7,17.7,40.8
		C17.6,40.7,17.7,40.8,17.7,40.8C17.8,40.8,18.5,41.2,17.7,40.8 M17.1,40.4c0.1,0.1,0.2,0.1,0.4,0.2C17.4,40.5,17.3,40.4,17.1,40.4
		 M27,20.8C27,20.8,27,20.8,27,20.8C27.1,20.8,27.1,20.8,27,20.8 M27.2,21.2C27.2,21.2,27.2,21.2,27.2,21.2
		C27.3,21.3,27.3,21.3,27.2,21.2C27.2,21.2,27.2,21.2,27.2,21.2 M27.1,20.8c0,0.1,0,0.2,0.2,0.4C27.2,21.1,27.2,20.9,27.1,20.8
		 M16.2,39.7C16.2,39.7,16.2,39.7,16.2,39.7C16.2,39.7,16.2,39.7,16.2,39.7L16.2,39.7z M16.2,39.7c0.1,0.2,0.3,0.4,0.6,0.4
		C16.7,40.1,16.7,39.8,16.2,39.7 M16.8,40.1C16.8,40.1,16.8,40.2,16.8,40.1C16.8,40.1,16.8,40.1,16.8,40.1 M17.7,7.5
		c0,0.2,0.2,0.4,0.4,0.6C18.1,8,18,7.6,17.7,7.5 M14.9,38.1C14.9,38.1,14.9,38.1,14.9,38.1C14.9,38,14.9,38,14.9,38.1 M15.6,38.4
		L15.6,38.4L15.6,38.4C15.6,38.4,15.6,38.4,15.6,38.4C15.5,38.4,15.6,38.5,15.6,38.4C15.6,38.5,15.6,38.5,15.6,38.4
		C15.6,38.5,15.6,38.4,15.6,38.4L15.6,38.4z M15,38.1c0.1,0.1,0.2,0.3,0.6,0.4C15.4,38.2,15.2,38.1,15,38.1 M32.3,44.4
		C32.3,44.4,32.3,44.4,32.3,44.4C32.3,44.4,32.3,44.4,32.3,44.4 M31.3,44c0.2,0.3,0.9,0.4,1,0.4C31.8,44,31.4,44,31.3,44 M31.3,44
		C31.3,44,31.3,44,31.3,44C31.3,44,31.3,44,31.3,44 M52.5,53.3C52.5,53.3,52.5,53.3,52.5,53.3C52.5,53.3,52.5,53.3,52.5,53.3
		L52.5,53.3z M31.9,25.1C31.9,25.1,31.9,25.1,31.9,25.1C31.9,25.1,31.9,25.1,31.9,25.1 M32.5,25.9c-0.1-0.3-0.3-0.6-0.6-0.8
		C32,25.2,32,25.5,32.5,25.9 M21.7,15.1C21.7,15.1,21.7,15.1,21.7,15.1C21.7,15.1,21.7,15.1,21.7,15.1 M10.8,35
		c-0.2-0.1,0.1,0.5,0.7,1C11.7,35.7,11,35.2,10.8,35 M23.9,44.7C22,43.9,22.2,44,22,44c0.6,0.5,1.3,0.8,2.1,0.8
		C24,44.8,24,44.7,23.9,44.7 M24.1,44.8C24.1,44.8,24,44.8,24.1,44.8C24,44.8,24.1,44.8,24.1,44.8 M19.8,40.1
		c-0.1,0-0.2-0.1-0.3-0.1c-0.5,0.4,4.4,2.9,5.6,3.1C25.3,42.9,22.1,41.8,19.8,40.1 M15.7,39.2c-3.2-2.3-4-3.5-4.2-3.3
		c0.1,0.1,0.1,0.3,0.2,0.4C14.9,39.5,17.3,40.4,15.7,39.2 M30.8,44.3c-4.4-2.1-4.4-2.5-4.6-2.5c-1.4-0.2,5.2,3.4,5.8,3.2
		C31.9,44.8,30.9,44.3,30.8,44.3 M17.2,39.4c-1.5-1-1.3-0.8-1.6-0.9c0,0.1,0.1,0.2,0.4,0.4c5.1,3.6,6.3,3.8,6.5,3.8
		C22.2,42.3,21.5,42.3,17.2,39.4 M19.4,8.7C19.4,8.7,19.4,8.7,19.4,8.7C19.4,8.7,19.4,8.7,19.4,8.7L19.4,8.7z M44.1,45.8
		c-0.1,0-0.1,0.2,0,0.3c1.2,1.4,7.7,6,8,5.8c-0.4-0.8-4.9-3.8-4.9-3.8C44,45.9,44.9,46.1,44.1,45.8 M31.9,25.1c0,0,0-0.2-0.1-0.3
		c0,0-7.5-10.6-8-10.3c-0.1,0.1,0,0,2.8,3.7C26.6,18.3,31,24.7,31.9,25.1 M31.9,25.1C31.9,25.1,31.9,25.1,31.9,25.1
		C31.9,25.1,31.9,25.1,31.9,25.1 M10.1,5.2c0.7-0.1,1.5,1.3,1,2C9.4,9.4,6.9,5.6,10.1,5.2 M51.3,52.3c-7.6-6.1-1.9-1.1-9.5-7.5
		c-0.1-0.1-0.3-0.1-0.3,0c0,1.1,8.6,7.1,10.1,7.9c-0.1,0,0.3,0.5,0.8,0.6c-0.3-0.3-0.5-0.4-0.6-0.5C51.9,52.8,51.8,52.6,51.3,52.3
		 M63,52.2c-1.2-1-1.6-1.4-2.5-1.8c-0.9-0.4-7.9-4.8-9.9-5.2c-0.6-0.1-0.2,0.5-1.6,0.4c-0.8-0.1-1,0.4-1.9,0
		C45.9,45,45.9,45,45.6,45c-0.1,0-0.3,0.2-0.2,0.4c0.1,0.2,0.6,0.5,0.5,0.7c0,0,0,0,0,0c0.2,0.1,0.2,0.2,0.2,0.2
		c-0.2-0.1-0.2-0.2-0.2-0.2c0,0,0,0,0,0c-0.2-0.1-0.3,0-0.7-0.4c-0.6-0.5-0.8-0.1-1.5-0.5c-0.6-0.4-1.2-0.6-1.7-1.1
		c-0.3-0.3-0.5-0.4-0.6,0c-0.2,0.6-1.3,0.4-1.7,0.2c-0.8-0.2-1.2-0.4-1.3-0.2c-0.4,0.5-0.9,0.6-1.7,0.7c-0.8,0.2-1,0.1-2.5-0.5
		c-2-0.7-2.6-0.7-3.5-1.3c-0.3-0.2-0.1,0-1.1-0.5c-2.8-1.5-8.4-6-9.6-7.4c-1.5-1.6-4.9-3.9-6.9-10.7c-0.1-0.2-0.2-2.5-0.2-2.6
		c-0.4-1.3,0.9-3.2,1.1-3.6c0.5-1.1,2.9-2.9,3.7-2.3c0.2,0.1-0.3,0.5-0.5,0.6c-0.8,0.4-1.2,0.5-1.8,1.1c-0.9,1-1.8,2.7-1.6,3.8
		c0.9,7.9,5.9,11.3,7.1,13c0.3,0.4,1.9,1.7,2.3,2c2,1.4,0.6,1.1,7.1,4.9c0.9,0.5,1.5,0.7,3.2,1.6c1.8,1,2,0.2,2.8,0.8
		c0.3,0.2,0.9,0,0.7-0.4c-0.2-0.4-0.6-0.7-0.7-1.2c0-0.2-0.7-0.7-0.6-0.8c0.4-0.3,2.1,1.8,4.3,2c0.1,0,0.3-0.2,0.2-0.4
		c-0.4-0.9-1-0.9-1.8-1.4c-1-0.6-0.6-0.8-2.9-2.3c-0.9-0.6-2.4-1.7-3.2-2.6c-0.1-0.1-0.1-0.3,0-0.4c0.1-0.1,0.6,0.2,0.6,0.3
		c0.8,0.8,2.3,1.5,3.8,3c1.3,1.4,5.7,3.1,7.2,4.6c0.2,0.2,0.5,0.3,0.7,0.1c0.6-0.7,0.4-0.5,1.9,0.1c0,0,0.6,0.2,0.7,0.2
		c0.2-0.2-0.5-0.3-1-0.8c-1.5-1.2-1.6-0.6-4.5-3.4c-0.3-0.3-1.7-1.6-1.9-2c-0.2-0.3,0.4-0.5,0.8-0.3c0.7,0.5,2,1.8,2.4,2.2
		c1.5,1.5,4.3,2.9,4.7,3.3c0.2,0.2,0.6,0.1,1,0.1c0.1,0,0.2-0.2,0.1-0.3c-0.6-0.9-4.9-6.1-5.9-6.5c-0.9-0.4-2.6-3.2-3.2-4.1
		c-0.8-1.2-1.5-1.9-6-7.3c-1.4-1.6-1.3-1.9-4.6-5.8c-4.3-5.1-2.6-5-7-7.3c-0.5-0.3-1.2,0.1-1.3-1c-0.1-0.7-0.1-2-0.9-3.5
		c-0.3-0.6-0.6-1.3-1.3-2.2C17.7,4.4,15.7,1,13.5,1c-0.3,0-0.8-0.3-1.6-0.1c-0.6,0.2-1,0-3.5,0.8C7.2,2.1,7.1,2.5,6.3,3.1
		c-0.7,0.5-0.5,1.1-1.4,2C4.6,5.4,4.2,6.3,4.4,6.7c0.1,0.2,1.3,1.1,0.8,3C4.8,11.1,5.3,9.9,6.7,13c0.1,0.2,0.5,0,0.5,0.4
		c0.4,4.4-0.2,2.9-0.9,5c0,0.1-0.1,0.2-0.2,0.4c0-0.1-0.1-0.2-0.1-0.2c0.6-2.5,1.1-2.1,1-3.2c-0.1-1-1.4,2.1-1.7,2.8
		c-0.2,0.8-0.4,1.6-0.5,2.5c0,0.4-0.1,0.7-0.1,1c-0.5,2.9,0.4,8.8,2.6,11.2c3,3.3,3.5,4.6,10,8.7c1.3,0.8,1.4,0.6,2.1,1
		c1,0,1.4,0.7,1.8,0.8c0.4,0.2,0.2,0.6,0.1,1c-0.1,0.3,0.3,0.3,0.8,0.6c0.7,0.3,1,0.5,1.1,0.6c0,0,0,0,0,0c-0.2,0-1.1-0.3-1.4-0.4
		c-0.2-0.1-0.4-0.1-0.6-0.2c-0.1,0-0.3,0.2-0.3,0.3c-0.1,0.2,0.1,0.3,1,0.8c0.4,0.2,1-0.1,1.2-0.5c0,0,0.1,0,0,0c0,0,0,0,0,0
		c0.4-0.2,0.8-0.3,0.9-0.6c0,0,0.3-0.1,0.5-0.1c1.1-0.6,0.7,0.3,1.4,0.4c0.3,0,1.4,0.1,1.5,0.1c7.6,1.1,10.8-0.4,12.9,0.1
		c0.5,0.1,0.7,0.7,4.4,3.1c4,2.7,6.4,5.2,8.3,6.1c2.3,1,3.2,1.7,4.3,1.7c0.1,0,0.6,0.1,0.7,0.4c0.3,0.5,1.1,0.3,1,0
		c-0.2-0.6,0.1-0.7-0.2-1c-2.4-1.5-2.4-1.6-3.3-2.1c-0.4-0.2-0.8-0.8-0.4-0.9c0.3-0.1,0.6-0.2,0.8-0.1c1.5,0.9,4.4,3,6.1,3
		c0.3,0,0.5-0.3,0.5-0.5c-0.1-0.2,0-0.1-1-1.5c-0.3-0.4-1-0.8-1.6-0.8c-0.7,0-1.6-0.8-3.4-1.6c-0.4-0.2-1.2-1-3.5-2.2
		c-0.9-0.5-1.3-0.8-1.7-1.2c-1-0.8-1.4-0.8-1.2-1c0.8-1,0.5-1,4.7,2c1.7,1.2,4.4,2.5,5.1,2.8c1.3,0.4,2.2,1.1,2.6,1.3
		C62.7,52.9,63.2,52.4,63,52.2 M26.8,46.1c-0.2-0.1-1.3-0.6-1.6-0.5c-0.6,0.3-1,0.7-0.9,0.8c0.1,0.1,0,0.1,1.1,0.1
		c0-0.1,1.4,0.3,1.5-0.2C27,46.3,26.9,46.1,26.8,46.1 M21.6,46.2c-0.1-0.3-0.8-0.6-0.9-0.4c-0.1,0.3-0.4,0.6-0.5,0.9
		C20.2,47.2,21.5,46.4,21.6,46.2 M19.8,47.3c-0.3,0.2-0.4,0.5-0.5,0.8c-0.2,0.3-0.3,0.4-0.2,0.5c0.2,0.1,0.8-0.5,0.9-0.8
		C20.2,47.6,20,47.2,19.8,47.3 M18.8,49L18.8,49C18.9,48.9,18.9,49,18.8,49 M3.5,7.7C1.3,8.7,2.2,8.1,1.5,8.5
		C1.2,8.7,1.3,9.1,1.5,9.1c0.4,0.1,1.1,0.1,2.2,0.6C4,9.8,4.3,9,4.3,8.6C4.3,8.1,3.9,7.5,3.5,7.7 M17.4,49.3
		c-0.1,0.1,0.1,0.2,0.2,0.2C17.9,49.4,17.6,49,17.4,49.3 M63.9,53.1c-0.3,0.4-0.8,0.5-0.7,0.9c0.2,0.7,0.6,1.1,0.1,1.7
		c-1.9,2.1-3.4-0.6-3.4,1.2c0,0.8-1.2,1.2-2.1,1c-1.2-0.3-1.3-0.5-5.3-2.3c-2.1-1-5.1-4.1-6.2-4.5c-1.1-0.4-5.5-4.1-5.5-4.1
		c-0.9-0.6-0.8-0.6-1.8-0.6c-3.9,0.1-2.8,0.8-10.6-0.1c-0.8-0.1-0.5,0.3-0.8,1.3c-0.1,0.5-0.7,0.2-1.6,0.1c-0.7-0.1-0.9-0.1-2.7,0.3
		c-1.1,0.2-1.1-0.5-1.5-0.2c-0.5,0.3-0.9,0.9-1.1,1.4c-0.2,0.5,0.3,0.6,1,1.1c0.5,0.4,0.1,1.1-0.3,1c-1-0.5-1-0.7-1.9-0.9
		c-0.4-0.1-1.7,0.1-2.2,0.4c-0.7,0.4-0.6,0-2.7,0.7c-0.5,0.2-1.2,0.2-1.5-0.2c-0.2-0.3,0.2-0.5,0.7-0.8c0.5-0.3-1.8-0.5-1.8-0.5
		c-0.4-0.1-0.5-0.4-0.1-0.6c1.2-0.4,1.5-0.1,3.2-0.6c0.2,0,0.1-0.3,0-0.3c-0.4-0.2-0.7,0.3-1.7-0.1c-0.5-0.2-0.7,0.3-1.6-0.1
		c-0.4-0.2-0.4-0.9,0.1-0.9c1.6-0.3,1,0,2.6,0c1.7,0,1,0.2,2.2,0.2c0.2,0,0.5-0.1,0.7,0c0.5,0.1,0.9-0.1,1.2-0.5
		c1.6-2.1,0.2-0.8,0.5-2.9c0.1-0.9-0.5-0.2-4.6-2.9c-1.6-1.1-5.2-4-7-6.2c-1.5-1.9-1.8-1.3-3.4-5.4c-0.1-0.3-0.8-4-0.9-4.7
		c-0.2-1.4,0.4-6.1,0.9-7.3c1.3-2.8,1.5-2.9,1.3-3.4c-0.1-0.4,0.2-0.6-0.3-1.3C3.4,9.5,3.1,11,0.7,10c-0.9-0.4-1-1.6-0.1-2.3
		c0.8-0.6,1.2-0.6,1.8-0.8c0.6-0.2,0.1-0.5,0.7-1.4C3.8,4.5,4.2,3.7,5,2.9c1-1,1.1-1.3,1.9-1.7c2.8-1.3,3.7-1.1,4.6-1.2
		c4.4-0.1,6.8,3,7.3,3.3c0.1,0.1,2.1,2.6,2.4,3.7c0.3,1.2,0.6,0.8,0.8,2.1c0.3,1.6,0,1.9,0.4,2c0.7,0.2,0.8,0.4,2.5,1.4
		c1.1,0.6,2.6,2.7,3.3,3.7c2.1,3.2,12.6,15.7,13.3,16.8c0.1,0.2,1.5,2.4,2,2.6c1.4,0.7,3.8,3.8,4.4,4.5c1.2,1.7,2.3,1.8,2.5,3.5
		c0,0.3,0.4,0.5,0.9,0.6c1.9,0.7,3,1.4,8.8,4.6C61.9,49.8,65.2,51.4,63.9,53.1 M24.1,44.8C24.1,44.8,24.1,44.8,24.1,44.8
		C24.1,44.8,24.1,44.8,24.1,44.8"/>
</g>
</svg>
