<?xml version="1.0" encoding="utf-8"?>
<!-- Generator: Adobe Illustrator 19.0.0, SVG Export Plug-In . SVG Version: 6.00 Build 0)  -->
<svg version="1.1" id="Layer_1" xmlns="http://www.w3.org/2000/svg" xmlns:xlink="http://www.w3.org/1999/xlink" x="0px" y="0px"
	 viewBox="0 0 128.1 134.5" style="enable-background:new 0 0 128.1 134.5;" xml:space="preserve">
<style type="text/css">
	.st0{clip-path:url(#SVGID_2_);fill:#373636;}
</style>
<g>
	<defs>
		<rect id="SVGID_1_" width="128.1" height="134.5"/>
	</defs>
	<clipPath id="SVGID_2_">
		<use xlink:href="#SVGID_1_"  style="overflow:visible;"/>
	</clipPath>
	<path class="st0" d="M50.5,123.1L50.5,123.1C50.6,123.2,50.6,123.3,50.5,123.1 M113.4,122.4C113.4,122.4,113.4,122.4,113.4,122.4
		C113.4,122.5,113.4,122.5,113.4,122.4 M113.7,122.1C113.7,122.1,113.7,122.1,113.7,122.1C113.7,122.1,113.7,122.1,113.7,122.1
		L113.7,122.1z M113.4,122.4c0.2,0,0.3-0.1,0.3-0.3C113.4,122.2,113.4,122.4,113.4,122.4 M115.1,121.1
		C115.1,121.1,115.1,121.1,115.1,121.1C115.1,121.1,115.1,121.1,115.1,121.1 M114.8,121.4c0.3-0.1,0.3-0.3,0.3-0.3
		C114.9,121.1,114.8,121.2,114.8,121.4 M114.7,121.4C114.7,121.4,114.7,121.4,114.7,121.4C114.7,121.5,114.8,121.5,114.7,121.4
		C114.8,121.4,114.8,121.4,114.7,121.4C114.8,121.4,114.8,121.4,114.7,121.4 M115.4,120.8C115.4,120.8,115.4,120.8,115.4,120.8
		C115.4,120.7,115.4,120.7,115.4,120.8 M115.1,121.1c0.3,0,0.3-0.2,0.3-0.3C115.3,120.8,115.2,120.9,115.1,121.1 M115.1,121.1
		L115.1,121.1C115.1,121.1,115.1,121.1,115.1,121.1C115.1,121.1,115.1,121.1,115.1,121.1 M115.5,120.7c0.2,0,0.3-0.1,0.3-0.3
		C115.5,120.4,115.5,120.6,115.5,120.7 M115.8,120.4C115.8,120.4,115.8,120.4,115.8,120.4C115.8,120.4,115.8,120.4,115.8,120.4
		L115.8,120.4z M115.4,120.7C115.5,120.8,115.5,120.7,115.4,120.7C115.5,120.7,115.4,120.7,115.4,120.7 M102.4,70.9
		c-0.1-0.1-0.2-0.2-0.3-0.3C102.1,70.9,102.3,70.9,102.4,70.9 M102.4,70.9C102.4,70.9,102.4,70.9,102.4,70.9
		C102.4,70.9,102.4,70.9,102.4,70.9 M108,77.1C108,77.1,107.9,77.1,108,77.1C107.9,77.1,107.9,77.3,108,77.1 M107.8,77
		c-0.1-0.1-0.1-0.1-0.2-0.1C107.7,77,107.7,77,107.8,77 M107.6,76.9c0,0-0.1-0.1-0.1-0.2c0,0,0,0,0,0c0,0,0,0,0,0.1l0,0
		C107.5,76.8,107.5,76.8,107.6,76.9 M107.9,77.1L107.9,77.1C107.9,77.1,107.8,77.1,107.9,77.1C107.8,77.1,107.9,77.1,107.9,77.1
		 M104.8,73C104.8,73,104.8,73,104.8,73C104.8,73,104.8,73,104.8,73 M104.5,72.7C104.5,72.7,104.5,72.7,104.5,72.7
		C104.4,72.7,104.4,72.7,104.5,72.7 M104.8,73c0-0.4-0.3-0.3-0.3-0.3C104.5,73,104.7,73,104.8,73 M104.1,72.3
		C104.1,72.3,104.1,72.3,104.1,72.3C104.1,72.3,104.1,72.3,104.1,72.3 M104.4,72.6c0-0.3-0.3-0.3-0.3-0.3
		C104.1,72.6,104.4,72.6,104.4,72.6 M104.4,72.7C104.5,72.6,104.5,72.6,104.4,72.7C104.4,72.6,104.4,72.7,104.4,72.7 M102.4,71
		C102.4,70.9,102.4,70.9,102.4,71C102.4,70.9,102.4,70.9,102.4,71 M102.7,71.3c0-0.3-0.2-0.3-0.3-0.3
		C102.4,71.1,102.5,71.2,102.7,71.3 M102.7,71.3C102.7,71.3,102.8,71.3,102.7,71.3C102.8,71.3,102.8,71.3,102.7,71.3
		C102.7,71.3,102.7,71.3,102.7,71.3C102.7,71.3,102.7,71.3,102.7,71.3 M101.7,70.3C101.7,70.3,101.7,70.2,101.7,70.3
		C101.7,70.2,101.7,70.3,101.7,70.3 M102,70.6C102,70.6,102.1,70.6,102,70.6C102.1,70.6,102.1,70.6,102,70.6
		C102,70.6,102,70.5,102,70.6C102,70.6,102,70.6,102,70.6 M102,70.5c-0.1-0.2-0.2-0.2-0.3-0.3C101.8,70.4,101.9,70.5,102,70.5
		 M101.7,70.3L101.7,70.3C101.6,70.2,101.6,70.2,101.7,70.3 M101,127.5l0.1-0.1C100.9,127.4,100.9,127.4,101,127.5 M80.7,123.8
		C80.7,123.8,80.7,123.8,80.7,123.8C80.8,123.8,80.8,123.8,80.7,123.8 M80.4,123.7c0.1,0.2,0.3,0.1,0.3,0.1
		C80.4,123.6,80.5,123.6,80.4,123.7 M106.9,75.8C106.9,75.8,106.9,75.7,106.9,75.8C106.8,75.8,106.8,75.8,106.9,75.8 M107.5,76.7
		c-0.1-0.8-0.5-0.9-0.6-0.9C106.9,76.2,107.2,76.5,107.5,76.7 M106.8,75.8L106.8,75.8C106.9,75.7,106.8,75.7,106.8,75.8
		C106.8,75.7,106.8,75.7,106.8,75.8 M106.2,74.7C106.2,74.7,106.2,74.7,106.2,74.7C106.2,74.7,106.2,74.7,106.2,74.7 M106.8,75.7
		c-0.1-0.8-0.6-0.9-0.7-1C106.2,75.2,106.4,75.5,106.8,75.7 M112.4,123.1c0.8,0,0.9-0.5,1-0.6C112.9,122.6,112.6,122.8,112.4,123.1
		 M112.3,123.1C112.3,123.1,112.3,123.2,112.3,123.1C112.3,123.2,112.3,123.2,112.3,123.1C112.4,123.1,112.4,123.1,112.3,123.1
		C112.4,123.1,112.3,123.1,112.3,123.1 M113.3,122.5C113.4,122.5,113.4,122.5,113.3,122.5C113.4,122.5,113.4,122.5,113.3,122.5
		 M113.7,122.1c0.5,0,0.8-0.2,1-0.6C114,121.5,113.9,122,113.7,122.1 M113.7,122.1C113.7,122.1,113.7,122.1,113.7,122.1
		C113.7,122.1,113.7,122.1,113.7,122.1 M104.1,72.3c-0.3-0.6-0.7-0.9-1.3-1C103.3,72.2,103.9,72.2,104.1,72.3 M104.1,72.3
		C104.1,72.3,104.1,72.3,104.1,72.3C104.1,72.3,104.1,72.3,104.1,72.3 M69.3,126.3c0.2-0.2,0.1-0.7-0.1-0.9c0-0.1-0.2-0.1-0.3-0.1
		c0,0.1,0,0.2-0.1,0.3C69.1,126.1,69.2,126.4,69.3,126.3 M106.1,74.7c-0.4-1.2-1.3-1.7-1.4-1.7C105,73.6,105.7,74.6,106.1,74.7
		 M106.2,74.7L106.2,74.7C106.2,74.7,106.2,74.7,106.2,74.7C106.2,74.7,106.2,74.7,106.2,74.7 M25.6,123.4c-0.3,1,0.5,2.1,0.4,0
		C26,123.1,25.7,123.2,25.6,123.4 M24.6,49c0.1-0.2,0.2-0.1,0.1-0.9c-0.2-1.8-0.2-1.7-0.3-1.8C24,46.1,23.9,48.2,24.6,49
		 M70.1,123.3c-0.1-0.2-0.3-0.3-0.3,0.3c0.1,0.9,0.6,2.3,1,2.2C71,125.7,70.9,125.7,70.1,123.3 M53.7,27c0.2,2.3,0.8-2.7-0.4-3
		C53,24,53.4,24.5,53.7,27 M71.6,124.6c0.3-0.5-0.8-2-1-4.1C70.1,122.3,71.4,124.5,71.6,124.6 M107.5,125.3c0.2,0.1,4.5-1.4,4.8-2.2
		c-0.9,0.2-0.9,0.5-3.3,1.3C107.9,124.8,107.4,125.3,107.5,125.3 M119.1,116.4c0-0.1-0.1-0.2-0.2-0.1c-1.7,2.1-0.6,1.1-2.7,3.5
		C114.6,121.5,117.2,119.7,119.1,116.4 M38.2,126.6c0,2.2-0.1,2.5,0.2,2.4c0.1-0.1,0.2-0.3,0.2-0.4
		C39.2,122.7,38.3,121.7,38.2,126.6 M26.4,9.4C26.4,9.4,26.4,9.4,26.4,9.4C26.6,9.5,26.5,9.5,26.4,9.4L26.4,9.4
		C26.5,9.4,26.5,9.4,26.4,9.4 M22.5,6.3c1.6,1.6,1.7,1.9,1.9,1.1c0,0,0,0,0,0c-0.1-0.1-0.1-0.1,0,0c0,0,0,0,0,0
		c0.4,0,0.6,0.4,1.5,1.4c0.3,0.3,0.4,0.5,0.5,0.5c-0.6-2.1-3.5-4.4-3.9-4C22.4,5.5,22.4,6.2,22.5,6.3 M53.9,23
		c2,6.4,1.1,9.9,1.6,9.4c0.6-0.7,0.1-6.9-1.2-9.5C54.2,22.5,53.8,22.6,53.9,23 M51.1,45.3c-0.3,0.5-0.6,4.2,2.2,7.3
		c1.8,1.9,1.3,1.7,2,2.3c0.1,0.1,0.2-0.1,0.2-0.1c-0.7-1.9-1.3-1.3-3.3-4.7C51.3,48.5,51.4,45.6,51.1,45.3 M20.3,20
		c1.8-2.1-0.7-3.4-1.7-1.9c-0.4,0.6-0.3,0.6,0.2,1.7C19,20.4,19.8,20.5,20.3,20 M36.4,22.9c-0.1-0.7-0.5-1.1-1.5-0.9
		c-1.5-0.4-3.2,1.7-1.6,2.4c0.6,0.3,1.2,0.5,1.8,0.2C35.8,24.3,36.5,23.9,36.4,22.9 M26.8,123.9c0,0.6-0.4,1.2-0.3,1.8
		c0,0.3,0.4,0,0.4-0.2c0.7-3.3,1.4-16.6,1.8-18C29.1,106.4,28.6,101.3,26.8,123.9 M80.8,123.8C80.8,123.8,80.8,123.8,80.8,123.8
		C80.8,123.8,80.8,123.8,80.8,123.8 M81.6,124c-0.3-0.1-0.7-0.2-0.8-0.2c0,0.1,0.1,0.2,0.1,0.2c1.1,0.7,2.1,1.3,3.3,1.7
		c5.3,1.9,7,3.2,15.7,2c-0.9-0.6-2.2,0.6-9-0.2c-0.3,0-1.8-0.6-2.9-0.9C85.8,126.1,86.3,126,81.6,124 M112.5,87.4c0-0.1,0-0.2,0-0.3
		c-1.6-4.3-1.4-3.7-3.9-7c-0.9-1.1-8.4-9.9-9.1-8.8c-0.2,0.4,3.5,2.5,9.4,10.1c2.8,3.6,2.5,5.4,3.5,6
		C112.4,87.4,112.5,87.4,112.5,87.4 M111.1,86.5c-0.6-1.3-2.1-3.9-3.1-4.9c-8.2-9.3-8.2-8.5-8-8.2c2.1,2.8,8,7.3,11,14.3
		C112.9,92,116.1,96.7,111.1,86.5 M32.8,34.5c0.8,0.4,5.3,2.5,5.8,2.2c0.6-0.4-0.9-1-7.4-4.2c-0.4-0.2-2.9-1.1-4.5-1.4
		C25,31.6,28.2,32.1,32.8,34.5 M16.1,33.5c0.7,0,1.2,0.1,1.7,0.6c0.2,0.2,0.5,0.2,0.8,0.3c1.4,0.5,1.7,0.9,2.9,0.7
		c0.2,0,1.3,0,1.4-0.4c0.1-0.6-1.9-0.2-2.8-0.8c-0.5-0.3-1.6-0.6-1.5-1.9c0.1-1.2,0.3-1,0-1.6c-0.1-0.2-0.4-0.3-0.6-0.1
		c-0.4,0.5-0.9,1-1.2,1.6c-0.4,0.8-1.5,0.6-2.3,0.3C14,32.1,13.9,33.7,16.1,33.5 M47.3,15.2c-0.1,0.4,0.1,1.4,1.7,0.7
		c0.9-0.4,0.2-1.2,0.7-1.6c0.6-0.6,1.1-1.3,1.8-1.8c0.6-0.4,0.9-1,1.5-1.3c0.4-0.3,0.7-0.7,0.8-1.3c0.1-0.5-2.1,0-2.4,0.5
		c-0.9,1.2-2.1,1.7-2.5,2.5C48.1,14,47.7,13.6,47.3,15.2 M71.8,71.8c1.8,2.8,2.5,6,3.7,11.6c0.3,1.3,0.7,9.9,0.9,10.6
		c0,0.1,0.2,0.1,0.3,0c0.2-0.1,0.1-2.3,0.1-2.5c-0.9-12.3-1.6-10.2-2-13.7C74.3,73.4,68.4,66.6,71.8,71.8 M77.8,101.7
		c0,2.5-2.7,10.8-1.9,10.7c0.9-3.6,1-4,1.3-4.8c2.5-6.9,1.1-22.1,0.5-21.9c-0.1,0-0.2,0.2-0.2,0.3C78.6,98.7,77.8,97.9,77.8,101.7
		 M26.2,28.4c6.1,0.8,10.3,3,13.3,3c1.4-0.5-2.9-2.6-11-3.4c-1.5-0.1-3.3-0.6-4.2-0.7c-0.1,0-0.3,0.2-0.1,0.3
		C24.8,28,25.5,28.3,26.2,28.4 M23.5,33.1c0.2,1.1,2.4,1.3,5.2,3.1c1.1,0.7,5.6,2.9,7,3.7c0.2,0.1,1.7-0.3-3.2-3
		C30.1,35.6,24.5,31.8,23.5,33.1 M19.1,26.2c-0.6,0-0.9,0.5-0.8,0.9c0.3,0.9,1.6,0.7,2.6,0.5C21.7,27.4,20.8,26.2,19.1,26.2
		 M21.7,28.8c-0.9,0.8-3.9,1.4-4.4,0.4c-1.4-2.8-1.6-2.6,0.2-4.6c0.6-0.7,4.8-0.6,4.9,2C22.4,27.3,22.6,28,21.7,28.8 M12.8,30
		c-0.9,0.5-2.3-0.1-2.3,0.7c0.1,0.9,0.1,5,1.8,6.7c1.5,1.4,1.9,2.8,3.2,3.8c2.4,1.9,0.8,1.3,4.6,2.8c0.5,0.2,2.3,0.9,2.6,1.5
		c0.5,0.8-0.4,0.3,0.1,2.7c0.4,1.7,0.5,1.9,0.2,1.9c-0.4,0-0.9-2.7-0.9-2.9c-0.1-0.3-0.6-0.6-1-0.4c-0.7,0.4,0.8,4.6,0.4,5.1
		c-0.7-0.6-1-4.5-1.3-5.6c-0.1-0.2-0.7-0.4-0.7-0.2c0.5,7.6,1.4,6,1.5,7.7c0.2,4.2,0.1,2.2-0.3,4.4c0,0-6.8,18.3-3.6,27.1
		c1,2.6,1,3.3,1.7,4.5c1.9,6.2,2.9,6.9,3,8.7c0.2,4.2,0.6,18.2,0.4,22.1c-0.1,2.6,0.4,3.1-0.5,3.3c-1,0.3-1.9,0.2-3.5,2.2
		c-0.6,0.7,0,1.9,0.7,1.6c0.5-0.2,1.1-0.9,1.7-0.4c0.3,0.3-1,1-0.5,1.7c0.6,0.7,1.6,0.3,2-0.4c1.1-1.5,1.5-0.6,1.5-0.4
		c0,0.3-0.1,0.7-0.1,1c0,0.1,0.3,0.3,0.6,0.2c2.4-1.2,1.5-1.5,2.8-1.9c2.6-0.9,1.3-2.9,2-6.6c0.2-1.2,0.8-9.4,0.8-10.6
		c0-0.7,0-1.4,0.4-2c1-3.4,0.4-3.7,1.1-7.3c0.1-0.6,1-0.4,1.2,0c0.8,2.2,0,4,0.3,5.9c0.5,3.3,0.5,15.9,0.5,17c0,2.5,0.5,3.4-0.4,3.7
		c-0.9,0.3-1.4,1-2.1,2.4c-0.2,0.4,0.3,0.9,0.6,0.8c0.7-0.2,1.3-0.6,1.5,0c0.1,0.3,0.2,0.9,0.6,1c1.1,0.4,1.5-0.3,2-0.6
		c0.6-0.4,1.2-0.5,1.1,0.2c0,0-0.2,0.5,0.2,0.6c1.4,0.2,2.2-0.2,3.5-1c0.6-0.3,0.4-0.9,0.6-1.2c0.9-0.9,0.5-2.8,0.7-10.9
		c0.1-2.4,1.6-13.3,0.2-15.3c-0.6,0.6-0.3,0.8-0.6,5c0,0.7-0.7,7.9-0.7,11.3c-0.1,8.2,0,7.9-0.2,8.2c-1.2,1.2,0.4-23.2,1.2-26.1
		c0.1-0.2,0.1-0.5,0-0.7c-0.5-2.4,0.1-5.3,0.1-5.3c-0.2-2.8,3.9-7.8,6.1-9.6c1.4-1.2,2.4-1.8,6.2-2.8c0.9-0.3,2.8-0.1,3.8,0
		c6,0.3,12.6,5.9,14.1,8.7c0.6,1,3.1,5.4,1.9,5.9c-0.9,0.4-0.6-5-7.3-9.7c-2.2-1.5-2.9-0.8-4.6-1.7c-1.8-0.9-4.5-1.1-7-1.2
		c-1.8,0-5.2,1-7.3,3.7c-1.5,2-1.8,1.6-2.4,3.1c-0.3,0.6-1.5,3.3-1.4,5.8c0.1,2.3,0.4,5.6,1.4,7.7c0.8,1.6,0.4,2.3,1.5,4
		c1.5,3.8,5.7,9.2,7.2,10.6c0.7,0.7,0.9,1.2,2.1,2.5c1.4,1.5-0.8,2.5-1.3,2.5c-1.8-0.1-3.4,0.7-4.5,0.8c-0.5,0-0.4,0.2-2.5,1.5
		c-0.8,0.5-0.5,1.4-0.1,1.3c0.7-0.2,1-0.4,1.7-0.4c0.6,0.1,0.7,0.5,0.4,0.8c-0.5,0.5-1.2,0.9-0.7,1.3c1.6,1.3,3.2-1.3,3.5-0.5
		c0.2,0.3,0.2,0.1-1,1.6c-0.1,0.2,0,0.5,0.2,0.5c0.2,0,0.5,0.1,0.7,0.1c1.3,0.6,1.5-0.6,3.5-0.9c1.4-0.2,3.7-0.7,4.8-1.6
		c0.7-0.6,1.8-0.7,2.9-1c4.8-1.3,8.9,0.9,10.3-2.1c0.5-1.2-1.5-2.6-1.6-4c-0.1-4.4,1.1-6.7,1.3-5.8c0.5,1.8-0.2,1.8-0.1,5.8
		c0,1.3,2.1,1.6,4.4,2.4c2.5,0.8,2.7,1.5,8.3,3.3c1.7,0.5,1.5,0.3,2.6,0.8c2.6,1.3,10.7,1.3,14,0c4.1-1.6,13.2-1.8,19.5-13.8
		c1.5-2.8,4.1-8.1,4.2-8.4c0.3-1.7,0.9-12.1-1.4-17.6c-3.7-8.6-3.8-9.3-5.2-11.2c-3.6-5.2-10.9-14.6-17.1-13.2
		c-0.4,0.1-1-0.1-2.1,0.6c-2,1.3-3,2.1-3.4,4.4c-0.2,1.4-0.3,1.2,0.7,2.5c0.3,0.3,2,2.4,2.4,2.7c1.9,1.4,2.4,3.6,4.5,5.2
		c1.3,1,8.7,11.4,9.4,16.7c1.2,9.8,0.2,9.6-0.7,13.5c-0.1,0.4-0.1,0.9-0.3,1.3c-0.1,0.4-0.5,0.7-0.6,1c-0.6,1.7-3.3,4.5-4.8,5.9
		c-0.7,0.6-3.8,2.1-5.5,2.3c-0.4,0.1-3.3,1.5-7.6,2c-2.3,0.2-7.8-0.9-10-1.4c-2.4-0.5-4.2-0.5-7.7-2.7c-0.6-0.4-0.9-0.9-0.5-1.6
		c0.1-1.5,1-2.5,1.1-3.6c0.1-1.3,0.8-1.3,0.8-2.2c0-1.2,2.3-9.8,1.8-13.2c-0.2-1.5,0.6-2.7,0.1-5.6c-0.1-0.7-0.3-3.4-0.5-6.2
		c-0.4-4.1-2.2-8-3.9-11.8c-3.2-7.4-2.2-6.7-13-16.2c-1-0.9-2-1.5-5-3.4c-1.1-0.7-0.8-0.7-3.2-3.6c-1.2-1.4-1.7-5.6-1.7-5.8
		c0.2-1,0-1.3,0.2-2.7c0.1-0.5,6.3-10,3.3-20.2c-0.7-2.3-1.2-1.9-2.1-3.5c-0.1-0.1,0-0.5,0.1-0.6c0.5-0.4,0.8-1,0.9-1.6
		c0.4-2.3,2.3-9.5,1.1-9.8C53.1,6.6,51.5,8,47.1,12c-0.4,0.4-2.4,1.6-2.9,0.9c-0.9-1.1-1.2,0.8-7.9-2.2c-2.1-1-5.8-1.4-6.1-1.5
		c-0.3-0.1-0.7,0.2-1.2,0.1c-1.8-0.6-1.1-0.2-1.9-1.3c-1.1-1.6-2.9-3.6-4.7-4.4c-2.5-1.1-2.6-2-2.9,7.5c0,1.4,0.4,1.2,1.5,1.6
		c0.2,0.1,0.3,0.6,0.1,0.8c-1.4,1.3-7.8,3.2-9.8,8.6c-0.4,1,2.9,1.6,3.6,2.3c0.2,0.2,0.1,0.5-0.1,0.5c-1.8,0.4-3.6-2-4-0.8
		c-0.2,0.5-0.3,1.8,0.1,1.9c1.3,0.5,1.3,0.3,2,0.4c0.1,0,1.1,0.3,1,0.4c-0.3,0.9-3.3-0.3-3.4,0.8c-0.3,2.4,0.9,0.9,2.3,2.1
		C12.9,29.8,12.9,29.9,12.8,30 M43.7,122.4c0.4-0.3,0-0.7-0.4-1C42.6,120.8,42.4,123.4,43.7,122.4 M47.7,118.7
		C47.8,118.7,47.8,118.7,47.7,118.7c0.1,0.2,0.2,0.2,0.4,0.3c0,0,0,0,0,0.1c0,0,0,0,0,0c0,0.2,0.1,0.4,0.3,0.6c0,0,0,0.1,0,0.1
		c0,0,0.1,0,0.1,0c0.1,0.1,0.2,0.2,0.2,0.2c0,0,0,0,0,0.1c0,0,0,0,0,0c0.1,0.2,0.2,0.2,0.3,0.3c0.1,0.1,0.1,0.2,0,0c0,0,0,0,0,0
		c-0.1-0.1-0.2-0.2-0.3-0.3c0,0,0-0.1-0.1-0.1c0-0.1-0.1-0.2-0.2-0.2c0,0-0.1-0.1-0.1-0.1c0,0,0,0,0,0c0-0.2-0.1-0.4-0.3-0.6
		c0,0,0,0,0-0.1c0,0,0,0-0.1,0C48,118.9,47.9,118.8,47.7,118.7C47.8,118.7,47.8,118.7,47.7,118.7C47.8,118.7,47.8,118.6,47.7,118.7
		c0-0.8-0.5-0.6-3.2-5.9c-0.5-1-0.9,0.6-0.6,1.1c0.4,0.5,2.5,3.6,3.1,3.9C47.1,118.1,47.4,118.4,47.7,118.7
		C47.7,118.7,47.7,118.7,47.7,118.7 M42.6,127.1c0,0.6,0.9,0.6,1.5,0.3c1.7-0.7,1.4,0,2.1-0.5c2.2-1.4,2.3-1.8,3.5-2
		c3.5-0.6,3.7-0.7,2.5-1.8c-0.3-0.2-0.5,0.3-0.7,0c-0.1-0.2-0.2-0.4-0.3-0.6c0,0,0,0,0-0.1c0.2-0.3,0.2-0.3,0-0.6c0,0,0-0.1,0-0.1
		c-0.1-0.1-0.1-0.1,0,0c0,0,0,0,0,0c0,0.3,0,0.5,0,0.6c0,0,0,0,0,0.1l0,0c-0.1,0-0.2-0.2-0.5-0.4c-0.3-0.2-0.4,0-0.4,0.2
		c1.1,3.3-3.7-4.1-6.3-7.3c-0.1-0.1-0.4-0.1-0.4,0.1c-0.5,1.3-0.2,1.2,0.8,2.7c0.9,1.3,0.9,1.4,0.8,1.4c-0.2,0.2-0.2,0-1.4-1.3
		c-0.2-0.3-0.5-0.3-0.7,0.2c-0.3,0.6,0.3,0.6,1.1,1.6c0.6,0.8,1.4,1.5,2.2,2.1c0.5,0.3,0.4,0.8-0.1,1.1c-1.1,0.7-0.9-0.1-3.4,1.8
		C42.6,125.1,42.6,125.4,42.6,127.1 M8.2,22.3c-0.1,0-8.4-3.4-8.2-4.4c0.1-0.3,0.2-0.2,2.3,0.7c6.5,2.7,6.4,3,6.9,2.3
		c1.5-2.3,2.2-3.6,4.5-5.1c3.9-2.7,3.3-1,3.5-6.4c0.1-4.1,0.1-4.4,0.2-4.8c0.9-3.1,1.1-3.5,1.8-4c1.6-1.3,1.9-0.6,5.1,1.1
		c1.7,0.9,2.8,2.2,3.9,3.8C29.5,7.3,29.7,6.2,32,7c0.5,0.2,2.8,0.2,6.3,1.6c6.4,2.6,4.6,1.6,5.8,2.4c0.3,0.2,0.5,0.2,0.8,0
		c1.3-0.7,7.3-6.9,10.8-5.4c2.6,1.1,3.3-0.1,1,12.6c-0.4,2.2,1.7,2.2,2,6.8c0.1,1.3,0.3,6.7-0.1,7.9c-0.9,2.2-0.4,3.6-1.5,5.8
		c-1.2,2.4-0.7,3.2-2,5.7c-0.3,0.5-0.4,1.2-0.3,1.8c0.1,0.7,0.5,2.3,1,3.4c0.6,1.3,2.7,3.9,4.3,4.7c1,0.5,1.6,1.4,4.3,3.1
		c2.6,1.6,3.2,3.1,4.8,4.1c0.8,0.5,4.6,5.5,5.3,6.7c2.7,4.4,5.1,10.3,5.3,11.1c1.5,5.7,1.6,0.7,2.5,12.2c1.3,17.7-4.9,25.4-3.9,26.8
		c0.7,1,10.1,3.2,10.7,3.3c2.8,0.5,3.7-0.2,5.3,0c0.5,0.1,7.3-2.2,8.2-2.5c2.9-1,4.3-3.5,5.9-4.9c0.1-0.1,0.2-0.2,0.2-0.3
		c0.6-1.5,1.8-2.8,1.9-4.5c0.1-0.7,1.2-2.2,1-7.3c-0.4-10.6-4.9-14.2-6.4-17.6c-0.1-0.3-1.1-1.8-2.6-3.4c-1.2-1.3-1.5-2.5-4.3-5.3
		c-3.5-3.7-4.1-4.1-3.9-5.8c0.3-2.5,0.9-4.6,2.7-5.5c1.1-0.5,4.6-3.5,10.6-0.8c7.4,3.3,12.9,11.2,14.9,16.6c0.9,2.4,2,4.7,3.5,8.2
		c0.8,1.9,2.1,9.1,1.7,12.3c-0.5,4.4,0.4,3.9-2,9.8c-0.1,0.3-0.2,0.7-0.4,0.9c-1.3,1.9-2.4,6-6.2,10.2c-5.2,5.8-8.3,6.5-13,8.5
		c-3.6,1.5-10.4,1.7-11.9,1.6c-3.5-0.4-3.4-0.7-4.9-0.8c-1.8-0.1-1.9-0.7-3.6-1c-0.8-0.2-1.6-0.6-2.5-0.7c-0.1,0-0.2-0.1-0.3-0.2
		c-0.8-0.6-3.2-1-5.2-2.2c-0.9-0.6-1.2-0.3-2.8-0.8c-0.2-0.1-0.3,0.1-0.3,0.3c0,0.6,0.9,0.7-0.9,2.7c-1.2,1.3-2,1-8.8,1
		c-1.4,0-1.4,0.6-3,0.7c-0.6,0-1.1,0.2-1.6,0.5c-0.9,0.5-1.9,0.6-2.9,1.1c-0.2,0.1-1.6,0-3.4,1c-1.6,0.8-3.1,1.5-3.9,0
		c-0.7-1.3-3.7-0.7-3.9-2.3c-0.1-0.8-0.3-0.9-1.8-2.2c-0.2-0.2-0.5,0-1.5,0.2c-0.7,0.1-0.6,0.6-0.9,1.2c-0.5,1.1-0.7,0.4-3.3,2
		c-0.5,0.3-1.2,0.5-2,0.6c-2.6,0.5-0.9-0.1-3.2,0.2c-0.9,0.1-1.5,0.4-2,0c-2.3-1.7-3.2-1.5-3-3.1c0.2-1.7,1.3-3.2,2.1-3.8
		c0.7-0.5,0.5-0.8,0.4-4.4c-0.1-8.6,0.1-9.7-0.3-9.4c-0.5,0.3-1.1,13-1.1,13.6c0,1-0.6,1.3-1.5,2.4c-1.2,1.6-2,1.2-2.8,1.9
		c-0.6,0.5-2.5,1.4-3.7,0.7c-0.8-0.5-1.5-0.4-3-0.7c-2.5-0.4-1.4-1.7-2.3-2.6c-0.3-0.3-0.9-0.5-0.8-1.2c0.4-2.8,4.6-3.8,4.5-5.1
		c-0.5-6.8,0.8-8.7-0.2-19.5c-0.3-2.9,0.2-4.1-0.4-5.8c-1.3-3.6-0.3,0.2-5.4-14.3c-1.6-4.5,1.8-18,4.1-22.6c1.1-2.3,1.3-4.2,0.4-7
		c-0.3-0.9-0.1-1.9-0.5-2.9c0-0.1,0-0.2,0-0.3c0.1-1.2-0.3-2.4-0.4-3.6c0-0.3-0.4-0.6-0.7-0.7c-1.3-0.4-1.5-1-3.1-2.4
		c-4.3-4.1-5-8.7-5.8-11.9c-0.3-1.2-3.1-0.5-5.9-1.7c-0.4-0.2-0.9-0.2-1.4-0.3c1.7-0.1,3.8-0.3,5.5,0.1c0.6,0.1,1.6,0.3,1.7-0.3
		c0.1-2.3-0.5-1.4-1.8-2.1c-1.4-0.7-2.6-0.8-3-1.4c1.2-0.2,5,1.4,5.1,0.5C8.7,22.9,8.8,22.6,8.2,22.3"/>
</g>
</svg>
