<?xml version="1.0" encoding="utf-8"?>
<!-- Generator: Adobe Illustrator 19.0.0, SVG Export Plug-In . SVG Version: 6.00 Build 0)  -->
<svg version="1.1" id="Layer_1" xmlns="http://www.w3.org/2000/svg" xmlns:xlink="http://www.w3.org/1999/xlink" x="0px" y="0px"
	 viewBox="0 0 209.3 99.8" style="enable-background:new 0 0 209.3 99.8;" xml:space="preserve">
<style type="text/css">
	.st0{clip-path:url(#SVGID_2_);fill:#373636;}
</style>
<g>
	<defs>
		<rect id="SVGID_1_" width="209.3" height="99.8"/>
	</defs>
	<clipPath id="SVGID_2_">
		<use xlink:href="#SVGID_1_"  style="overflow:visible;"/>
	</clipPath>
	<path class="st0" d="M72.2,96v0.9l-1.9,0.4c-2.8,0.5-2.8,0.5-2.8-0.6v-0.9l1.4,0c0.7,0,1.7-0.1,2.2-0.3C72.2,95,72.2,95,72.2,96
		 M89.9,94.8c-0.1,0.9-0.8,1.2-3.1,1.4l-1.8,0.2v-0.7c0-0.7,0-0.7,1.4-0.9c0.7-0.1,1.8-0.2,2.3-0.3c0.5-0.1,1-0.2,1.1-0.2
		C89.9,94.2,89.9,94.4,89.9,94.8 M166.5,93.5c-0.1,0.3-0.1,0.7-0.1,0.8c0,0.4-1.6,0.8-3.5,0.8h-1.7v-0.8v-0.8l1.7,0
		c0.9,0,2-0.1,2.4-0.2C166.5,92.9,166.6,92.9,166.5,93.5 M187.6,90.9c0,0.7-0.1,0.8-0.9,1c-0.5,0.1-1.9,0.3-3.1,0.4l-2.2,0.1
		l0.1-0.6c0.1-0.3,0.2-0.7,0.2-0.8c0-0.2,0.8-0.4,2.2-0.4c1.2-0.1,2.4-0.3,2.8-0.4C187.6,90,187.6,90.1,187.6,90.9 M92.7,76.4
		c0,2.8-2.2,16.1-2.7,16.7c-0.1,0.1-5,0.6-5.1,0.5c0,0-0.2-2-0.3-4.4c-0.3-4.5-0.9-8.5-1.7-11.1c-0.3-0.8-0.5-1.6-0.5-1.7
		c0-0.1,1.9-0.2,4.3-0.3c2.4,0,4.7-0.1,5.1-0.1C92.6,75.9,92.7,76,92.7,76.4 M168.2,74.7c0,2.1-0.8,11.5-1,13.2
		c-0.2,1.2-0.4,2.5-0.4,3v0.9l-2.1,0.4c-1.2,0.2-2.4,0.4-2.7,0.4h-0.7v-3.6c0-3.7-0.6-8.7-1.3-11.3c-0.2-0.7-0.4-1.4-0.4-1.4
		c0-0.1,0.6-0.2,1.4-0.3c0.7-0.1,2.6-0.5,4.1-0.9C168.5,74.1,168.2,74.2,168.2,74.7 M198.9,2.9c1.3,0.7,1.8,2.5,1.1,3.9
		c-1,1.9-4.9,3.2-5.6,1.8c-0.4-0.7-0.1-2.7,0.5-4.1C195.7,2.9,197.5,2.1,198.9,2.9 M160,2.8c4.4,0.4,9.9,1.4,12.4,2.2
		c3.6,1.2,7.6,3.7,10.7,6.7c4.8,4.6,12.6,14,14.1,17.1c0.4,0.7,1,2.4,1.3,3.7c0.7,2.3,0.7,2.6,0.7,7.2c0,7.7-0.8,11.6-2.9,15.8
		c-0.9,1.8-4,11.4-5.3,16.6c-1.8,6.8-2.2,8.8-2.6,12.6c-0.2,1.8-0.4,3.5-0.5,3.7c-0.1,0.5-1.3,0.8-3.5,1c-0.9,0.1-1.8,0.2-2,0.3
		c-0.3,0.1-0.4-0.5-0.3-4.3c0.1-3.7,0-5.1-0.5-8.9c-0.3-2.5-0.8-5.1-1-5.7c-0.4-1.2-0.5-1.3-1.3-1.3c-0.5,0-1.7,0.2-2.7,0.5
		c-2.7,0.9-5.2,1.5-7.5,1.9c-1.2,0.2-3.5,0.6-5.2,0.9c-5,0.9-7.3,1.1-18.4,1.2c-12,0.1-14.6,0-23.3-1.3c-7.4-1.1-11.7-1.1-19.8-0.3
		c-9.6,1-15.2,1.4-22.3,1.4c-5.8,0-6.9,0.1-7,0.4c-0.3,0.6-0.7,8-0.7,13.6c0,3.1-0.1,5.6-0.2,5.8c-0.2,0.3-0.6,0.5-1.6,0.6
		c-0.8,0.1-1.8,0.2-2.2,0.3l-0.8,0.1l-0.3-3.1c-0.7-7.8-2.5-13-5.3-15.8c-1.2-1.1-1.8-1.3-5.4-1.5c-3.7-0.2-6.6-0.7-10.9-2.1
		c-3.5-1.1-6-2.2-7.5-3.4c-0.8-0.6-1.3-0.8-2.6-0.9c-9.3-1-14.3-2.1-22.5-4.8c-6.9-2.3-8.7-3.5-9.7-6.3c-0.3-0.9-0.7-2.6-0.9-3.7
		C2.2,52.1,2,51,2,50.7c-0.1-0.5-0.1-0.5,1.4-0.4c1,0.1,2,0,3-0.3c2.7-0.7,4.2-1.6,7.1-4.5c2.5-2.4,2.8-2.8,3.9-5.1
		c0.7-1.4,1.5-3.5,1.9-4.6c0.4-1.2,0.7-2.2,0.7-2.2c0,0,0.4,0.1,0.9,0.4c1.2,0.7,4.1,1.6,7.2,2c2.7,0.4,2.9,0.4,6.3,0
		c4.4-0.5,5.5-0.8,8.7-2.2c1.4-0.6,3.9-1.6,5.4-2c1.9-0.6,2.8-1,2.8-1.2c0-0.3-0.3-0.4-1.5-0.4c-2,0-4.5,0.7-7.9,2.1
		c-2.3,1-3.2,1.2-5.6,1.5c-3.9,0.5-5.8,0.5-9.2-0.2c-3.1-0.7-6-1.8-7.6-3.2c-0.8-0.7-3.9-4.5-3.9-4.8c0,0,0.7-0.2,1.6-0.2
		c2.1-0.2,7.4-1.9,11.3-3.7c3.2-1.4,3.5-1.6,7.7-2.4c1.9-0.4,2.5-0.6,2.6-0.9c0-0.3-0.1-0.5-0.5-0.7c-0.8-0.4-6,0.3-8.1,1.1
		c-0.9,0.3-1.6,0.6-1.7,0.5c0,0,0.3-0.4,0.8-0.9c1.6-1.5,10-5.7,13.7-6.8c2.1-0.7,10.1-1.9,13-2.1c1.4-0.1,6,0,10.1,0.2
		c14,0.5,16.2,0.6,22.4,0.4c3.4-0.1,8.8-0.2,12-0.3c6.9-0.1,14.1-0.5,16.6-0.8c2.9-0.4,11.4-2.1,12.6-2.5c2.4-0.8,9.6-2.2,12.5-2.6
		c1.7-0.2,4.4-0.6,6-0.8C151.2,2.6,155.9,2.5,160,2.8 M195.8,0.4c-1.1,0.4-2.1,1.3-2.8,2.6c-0.7,1.1-1.3,4.2-1.1,5.3
		c0.1,0.8,0.1,0.8-0.5,0.6c-1.7-0.4-2.7-0.6-4.4-1.2c-2-0.6-3.7-0.7-4.8-0.3c-0.6,0.2-0.8,0.1-1.9-0.6c-3.1-2.2-9.6-4.6-13.5-5
		c-8.3-0.8-14.9-0.9-19.8-0.3c-1.8,0.3-4.5,0.6-6,0.7c-3,0.3-8.2,1.3-11.7,2.3c-2.3,0.7-9,2.1-12.5,2.6C114,7.5,106.8,7.8,95.3,8
		C81.8,8.2,75.1,8.1,71,7.8c-1.8-0.1-6.3-0.3-10.2-0.3l-7,0l-5.1,0.9c-6.2,1.1-6.8,1.3-10.7,3c-1.7,0.8-3.1,1.4-3.1,1.4
		c-0.1,0-1.4,0.7-3,1.6c-2.3,1.3-3.2,2-4.7,3.5c-1,1-2,2.2-2.3,2.5c-0.4,0.5-1.1,0.9-3.7,1.6c-2.8,0.9-3.4,1-5.8,1
		c-3.3,0-3.7,0.3-3,1.7c0.7,1.4,3.2,4.8,4.7,6.4l1.4,1.5l-0.9,2.3c-1.6,4.1-3,6.4-5.6,8.9c-3.2,3.1-5.1,3.9-8.8,3.9
		c-1.7,0-1.9,0-2.6,0.7C0,49.1,0,49.3,0,51c0,2.6,0.4,5.1,0.9,6.4c0.7,1.5,3.5,4.5,5.1,5.5c2.2,1.3,11.1,4.1,17.8,5.6
		c4.8,1,9.7,1.8,11.1,1.8c1.2,0,1.5,0,2.2,0.6c1,0.8,6.1,3,9.4,4c3.5,1.1,6.2,1.6,9.6,1.6c3.3,0,3.8,0.2,4.9,1.7
		c1,1.3,1.5,2.4,2.1,4.1c1.1,3.3,2.2,10.6,2.2,14.5c0,1.5,0.1,2.2,0.4,2.4c0.4,0.4,2.2,0.7,3.4,0.5c1.5-0.2,4.7-1.3,4.9-1.7
		c0.6-0.7,0.8-6,0.6-14.1c-0.1-4.4-0.2-8-0.2-8c0,0,1.4,0,3.1,0.1c3,0.2,3.1,0.2,3.3,0.8c0.9,2.3,1.4,7,1.5,14.6
		c0.1,5.1,0.1,5.8,0.5,6.2c0.3,0.3,0.9,0.4,3.1,0.5c3.4,0.1,5.2-0.3,5.7-1.4c0.9-1.8,2.9-14.6,3-18.8c0-2.2,0-2.2,2.8-2.3
		c1.4-0.1,4.7-0.4,7.3-0.6c6.2-0.6,11.9-0.5,17.9,0.3c7.9,1.2,8.8,1.2,20.3,1.2c6.1,0,11.9-0.1,13-0.2l2-0.2l0.3,1.4
		c0.7,3.3,0.9,8.6,0.7,13.4c-0.1,2.6-0.1,4.9-0.1,5.1c0.2,0.6,1.7,1,3.9,0.9c2.5,0,4.1-0.4,4.7-1.1c0.3-0.3,0.6-1.1,0.9-1.8
		c0.7-2.3,1.3-10.3,1.3-15.4l0-4.6l3.4-0.9c1.9-0.4,3.9-1,4.5-1.3c0.6-0.2,1.2-0.5,1.3-0.5s0.3,0.4,0.4,1.3c0.1,0.8,0.3,2.7,0.5,4.4
		c0.3,2.4,0.3,4.2,0.2,8.3c-0.1,2.9-0.2,5.8-0.3,6.4c-0.1,1-0.1,1.2,0.4,1.7c0.8,0.8,2.4,1,4.9,0.5c3.1-0.5,4.3-1.3,4.5-3.1
		c0.1-1.1,0.8-5.7,1.3-9c0.4-2.3,2.4-10.6,3.6-14.5c1.1-3.6,3.4-9.8,4.6-12.4c1.8-4,2.3-6.5,2.7-13.9c0.2-3.6-0.2-6.5-1.4-10.1
		c-1.1-3.3-1.8-4.7-4.3-8c-3.1-4.2-4.4-5.7-8.7-10.1c-2.5-2.5-3.7-4-3.5-4c0.2,0,1.3,0.3,2.3,0.6c2.4,0.8,5.6,1.6,6.2,1.6
		c0.3,0,0.7,0.4,1.3,1.3c1.3,2,3.1,3.2,5.7,3.8c3,0.7,4.9,0.3,7.3-1.7c2.4-1.9,3.3-3.9,2.3-5.2c-0.7-0.9-0.9-0.8-1.1,0.2
		c-0.1,0.5-0.4,1.3-0.7,1.7c-0.6,0.9-2.8,2.4-4.4,2.9c-1.9,0.6-5.2-0.5-6.4-2.1l-0.5-0.6l1.3-0.3c2.5-0.6,4.8-2.4,5.3-4.3
		C203.7,2.4,200-1.2,195.8,0.4"/>
	<path class="st0" d="M147.3,4c-4.7,0.4-12.9,2.3-15.1,3.4c-0.7,0.4-0.9,1-0.3,0.7c0.2-0.1,1.6-0.4,3.1-0.9
		c3.6-0.9,8.3-1.6,13.9-1.9c5-0.3,7.9-0.1,13.1,0.7c6.2,1.1,5,0-1.5-1.4C156.4,3.8,151.8,3.6,147.3,4"/>
	<path class="st0" d="M169.7,6.9c-0.2,0.4,0.1,0.6,1.6,1c1.6,0.4,1.7,0.4,1.5,0.1c-0.1-0.2-2.6-1.4-2.9-1.4
		C169.9,6.6,169.8,6.7,169.7,6.9"/>
	<path class="st0" d="M29.2,22.4c-1.1,0.6-1.7,1.2-1.1,1.2c0.4,0,2.6-1.5,2.6-1.7C30.8,21.6,30.5,21.7,29.2,22.4"/>
	<path class="st0" d="M25.2,24.8c-0.6,0.3-2.2,0.8-3.4,1.1c-2.1,0.6-3.1,1.2-2,1.2c1.5,0,7.1-2.1,6.8-2.6c-0.1-0.1-0.2-0.2-0.2-0.2
		C26.4,24.4,25.9,24.6,25.2,24.8"/>
	<path class="st0" d="M26.5,26.1c-0.9,0.4-2,1-2.7,1.2c-1.3,0.5-1.5,1-0.5,1c1.3,0,5.5-2.5,4.9-2.9C28.1,25.4,27.3,25.7,26.5,26.1"
		/>
	<path class="st0" d="M194.6,30.2c-0.1,0.1,0.2,0.9,0.5,1.7c0.4,1.1,0.7,2.6,1.1,5.8c0.3,2.4,0.6,4.3,0.7,4.3c0.5,0,0.3-6.7-0.3-8.9
		C196,31.4,194.9,29.7,194.6,30.2"/>
	<path class="st0" d="M194.7,39.8c-0.1,0.2,0,1.1,0.1,2.1c0.1,1,0.2,2.1,0.2,2.4c0,0.4,0.1,0.6,0.3,0.5c0.4-0.2,0.3-4.4-0.1-4.9
		C194.8,39.5,194.7,39.5,194.7,39.8"/>
	<path class="st0" d="M22.5,40.6c-1,1.1-0.9,2.6,0.4,3.1c1.2,0.5,2.5-0.5,2.5-1.9c0-0.7-0.1-1-0.6-1.4
		C23.8,39.8,23.3,39.8,22.5,40.6"/>
	<path class="st0" d="M4.3,54.4c0,4.1,0.3,4.5,0.8,0.9c0.3-2.4,0.1-4.2-0.4-4.4C4.3,50.8,4.3,51.6,4.3,54.4"/>
	<path class="st0" d="M40,67.8c0,0.4,1.6,1.5,4.4,2.8c3,1.5,7,2.5,7,1.8c0-0.3-0.1-0.3-3.5-1.5c-1.5-0.5-3.8-1.5-5.1-2.2
		c-1.3-0.7-2.5-1.3-2.6-1.3C40,67.4,40,67.6,40,67.8"/>
	<path class="st0" d="M123.8,69.6c-0.9,0.2-1.4,0.6-0.7,0.7c0.1,0,1.8,0,3.8,0.1c3.4,0.1,4.2,0,3.5-0.7
		C130.1,69.4,125,69.3,123.8,69.6"/>
	<path class="st0" d="M133.5,69.9c-0.2,0.5-0.1,0.5,1.8,1c5.1,1.3,18.2,2.2,18.2,1.2c0-0.2-0.5-0.3-8.1-0.8c-4.7-0.4-9-0.9-11-1.5
		C133.8,69.6,133.6,69.6,133.5,69.9"/>
	<path class="st0" d="M145.1,69.9c0.4,0.4,0.9,0.4,3.8,0.5c2.1,0.1,3.4,0,3.4-0.1c0-0.2-1.3-0.4-5.3-0.7
		C144.7,69.5,144.7,69.5,145.1,69.9"/>
	<path class="st0" d="M53.3,72.6c-0.2,0.4,0.4,0.7,1.3,0.7c1,0,1.2-0.4,0.3-0.7C53.9,72.3,53.5,72.3,53.3,72.6"/>
</g>
</svg>
