<?xml version="1.0" encoding="utf-8"?>
<!-- Generator: Adobe Illustrator 19.0.0, SVG Export Plug-In . SVG Version: 6.00 Build 0)  -->
<svg version="1.1" id="Layer_1" xmlns="http://www.w3.org/2000/svg" xmlns:xlink="http://www.w3.org/1999/xlink" x="0px" y="0px"
	 viewBox="0 0 208.6 238" style="enable-background:new 0 0 208.6 238;" xml:space="preserve">
<style type="text/css">
	.st0{clip-path:url(#SVGID_2_);fill:#373636;}
</style>
<g>
	<defs>
		<rect id="SVGID_1_" width="210.7" height="238"/>
	</defs>
	<clipPath id="SVGID_2_">
		<use xlink:href="#SVGID_1_"  style="overflow:visible;"/>
	</clipPath>
	<path class="st0" d="M63.1,232.1c1.8,0.6,3.3,0.8,4.1,0.3L68,232l0.3,1.1c0.3,0.9,0.3,1.1,0,1.3c-0.8,0.5-3.2,1.1-4.7,1.1l-1.5,0
		l-0.1-1.9c-0.1-1,0-1.9,0-1.9C62.1,231.8,62.6,231.9,63.1,232.1 M35.9,231.7c0.5,0.2,1.4,0.3,1.9,0.4c0.9,0,0.9,0,0.8,0.7
		c-0.3,1.2-0.7,1.5-2.6,1.5c-0.9,0-2.1-0.1-2.7-0.2c-1-0.2-1-0.2-0.8-1.1c0.1-0.5,0.3-1.4,0.4-1.9l0.3-1l0.9,0.7
		C34.5,231,35.4,231.4,35.9,231.7 M136.8,229.3c1.5,0.1,1.6,0.2,1.7,0.8c0.1,0.8-0.9,1.8-2.4,2.1c-1,0.3-3,0.1-3.2-0.3
		c-0.1-0.1,0-1,0.2-1.9l0.3-1.6l0.9,0.4C134.8,229,135.9,229.3,136.8,229.3 M161.3,226.7c0.8,0.2,1.5,0.2,2.4,0
		c0.7-0.2,1.4-0.2,1.5-0.1c0.1,0.1,0.2,0.6,0.3,1c0.1,0.8-0.1,1-1,1.7c-0.9,0.7-1.4,0.8-2.9,0.9c-2.5,0.1-2.6,0-2.3-2.3
		c0.2-1.6,0.3-1.8,0.6-1.7C160,226.3,160.7,226.5,161.3,226.7 M141.2,147.4c0.3,0.4,1.5,1.2,2.5,2c1.1,0.8,2.6,1.9,3.4,2.6
		c0.8,0.7,2.1,1.6,2.8,2l1.4,0.8l-1.6,4c-2,4.9-2.7,7-4,12.5c-0.6,2.4-1.4,5.5-1.8,7c-1.2,4.3-2,9.5-3.6,22c-0.4,3.3-1,7.7-1.3,9.6
		c-0.4,2.7-0.6,5.3-0.7,11l-0.2,7.5l-0.8-0.2c-0.9-0.2-3.5-1.1-3.6-1.2c-0.1-0.1,0-1.4,0.2-3.1c0.1-1.6,0.3-5.6,0.4-8.9
		c0.2-7.7,0.8-20.6,1.1-24.6c0.2-1.7,0.8-6.7,1.4-11.1c1.2-8.6,2.1-16.9,1.8-17.6c-0.1-0.2-2.2-1.4-4.7-2.6c-2.5-1.2-6.5-3.5-8.9-5
		c-5-3.1-4.9-2.9-0.5-3.4c2.8-0.3,11.4-2.4,13.8-3.3C140.3,146.7,140.5,146.7,141.2,147.4 M193.2,86.2c1.9,0.5,2.3,0.8,4.4,2.6
		c7.2,6.5,11,18.5,10.7,33.5c-0.2,6.7-0.6,9.4-2.2,13.8c-2.5,7.1-3.3,14.6-1.9,19.2c0.1,0.3-0.4-0.1-0.9-0.9
		c-0.6-0.8-1.9-2.3-2.9-3.3c-2.7-2.9-6.7-9.3-7.5-12.1c-0.6-2-0.7-6.4-0.3-11c0.6-5.9,0.8-12,0.4-14.4c-0.5-3.4-1.8-7.9-2.9-10.1
		c-1.3-2.8-3.9-5.5-6.3-6.8c-1.6-0.8-1.7-0.8-4.8-0.8l-3.1,0.1l-1.5-1.5c-0.8-0.9-1.5-1.6-1.5-1.7c0-0.1,1.1-1,2.5-2.1
		c2.5-1.9,7.2-4.4,9.1-4.9C186.2,85.3,190.8,85.5,193.2,86.2 M51.7,18.5c3.6,1,5.9,2.6,10.5,6.8c3.4,3.1,5.4,5.8,7.4,9.8l1.7,3.4
		v3.2c0,3.4-0.4,5.5-1.5,8.7c-1.3,3.8-3.2,8.6-3.9,10.1c-1.1,2.3-1,2.7,0.4,1.6c2-1.6,2.6-2.6,4.5-7.3c2.2-5.8,2.7-7.5,2.7-11.6
		c0-1.9,0.1-3.5,0.2-3.5c0.5,0,2.3,1.7,3,2.7c1.1,1.7,2.7,5.2,3.2,7c0.5,2.2,0.9,7.7,0.6,9.1c-0.3,1.6-1,3-2.9,6.4
		c-2,3.6-3.1,5.1-6.2,8.5c-1.2,1.3-2.1,2.5-1.9,2.5c0.7,0.2,5.1-3.1,6.9-5.3c1.1-1.4,1.8-2.5,4.4-7.8l1.1-2.1l1.2,1.2
		c1.6,1.6,2.3,3.2,3.1,6.7c0.7,3.2,0.8,4.5,0.3,7.2c-0.4,2-0.9,3-2.5,4.9C79.1,86,78.2,87,76.6,88c-1,0.7-1.8,1.2-1.9,1.2
		c-0.1,0-0.2-0.4-0.2-1c0-1.2-0.6-2.1-1.4-2.1c-0.3,0-1.2,0.6-2.1,1.3c-0.8,0.7-1.6,1.3-1.6,1.2s0.1-0.8,0.3-1.6
		c0.5-2.1,0.5-6.4,0-8c-0.5-1.5-1.3-2.5-2.1-2.5c-0.4,0-1.5,0.5-2.5,1c-1,0.6-1.9,1-2,1s0.1-0.7,0.5-1.5c1-2.4,1.5-8.9,0.9-11.7
		c-0.4-1.8-0.9-1.9-2.8-0.6c-1.7,1.2-3.1,2-3.3,1.8c-0.1-0.1,0.2-1.1,0.6-2.3c0.7-2,0.7-2.4,0.7-7.1c0-2.7-0.1-6.1-0.2-7.5
		c-0.2-2.7-0.2-3.2,1.1-7.9c1.1-4,0-8.6-2.9-12c-0.7-0.9-1.5-1.8-1.8-2.1c-0.3-0.3-0.7-1-1.1-1.6c-0.9-1.4-4.5-4.8-6.4-6.1
		c-0.9-0.6-1.6-1.1-1.5-1.2c0-0.2,1.8-1.1,2.1-1.1C49.4,17.8,50.4,18.1,51.7,18.5 M34.2,14.4c0,0.1-0.7,0.6-1.5,1.1
		c-0.8,0.5-2.5,1.8-3.7,2.8c-1.2,1-2.5,2-2.8,2.1c-0.5,0.3-0.5,0.2,0-0.6c0.9-1.6,3.7-4.3,5.2-5C32.8,14.2,34.2,14,34.2,14.4
		 M53.4,4.3c-0.8,4.7-2.4,8.3-4.6,10.6c-0.8,0.8-2.1,1.8-2.9,2.2c-2.7,1.5-2.9,1.9-1,2.9c3.8,2,8.9,7.3,12.8,13.5l1.1,1.8l0,3.4
		c0,2.5-0.2,3.9-0.6,5.6c-0.6,2.6-0.7,4.5-0.3,7.6c0.4,3.2-0.1,9.4-0.9,12c-0.8,2.2-0.9,3.9-0.4,4.5c0.7,0.9,3.3,0.3,5.3-1.3
		c0.4-0.3,0.9-0.6,0.9-0.6c0.6,0-0.5,11.3-1.2,12.9c-0.7,1.6,1.6,1.8,4.1,0.2c0.8-0.5,1.5-0.9,1.6-0.9c0.3,0,0.7,2.4,0.7,4.2
		c0,1.1-0.2,3.3-0.4,5.1c-0.6,4.4-0.4,4.6,2.1,2.7c0.8-0.6,1.8-1.4,2.2-1.7l0.7-0.5l-0.1,2c-0.1,1.9-0.1,2,0.5,2.1
		c0.4,0.1,0.9-0.3,1.7-1c0.6-0.6,1.7-1.5,2.5-2c1.3-0.9,2.4-1.7,4.6-3.8c0.5-0.4,1.2-1.1,1.6-1.4l0.7-0.6l1.4,1.2
		c1.6,1.4,2.1,1.6,6.1,3.3c4.3,1.7,6.6,2.2,11.2,2.2c4.1,0,8-0.5,22.3-2.8c12.3-2,14.7-2.3,22.4-2.3c6.5,0,6.7,0,8.9,0.7
		c7.2,2.2,10.8,4.4,18.2,10.9c2.7,2.4,3.3,3,3.8,4.4c1.4,3,1.5,5.1,0.7,11.3c-0.4,3.4-3.1,13.4-5,18.7l-1.7,4.8l-0.1,3.5
		c-0.1,2.9,0,4,0.5,6.9c0.9,5.1,2.1,7.1,5.4,9.8c0.6,0.5,0.7,0.8,0.6,1.4c-0.1,0.9-3.5,10.5-5.3,15.3c-1.5,3.9-4.1,14.8-5.4,22.2
		c-0.6,3.3-1.4,8.4-1.9,11.1c-0.9,5.1-1.6,13.5-1.4,17.4l0.1,1.7l-1.6,0.1c-1,0.1-2.1-0.1-2.9-0.3l-1.2-0.4l0.2-3.7
		c0.1-2,0.2-5.8,0.4-8.3c0.1-2.6,0.3-6.1,0.4-7.8c0.2-4.9,0.6-7.8,1.7-14.2c1.1-6.7,2.1-11.3,3.4-17.1c1.1-4.8,1.6-8,1.8-11.4
		l0.2-2.6l-1.1-0.8c-0.6-0.4-2-1.1-3-1.6c-1-0.4-2.9-1.2-4.1-1.8c-1.2-0.5-3.3-1.4-4.6-1.9c-2.8-1.1-4.3-1.9-5.9-3.3
		c-0.6-0.5-2-1.5-3-2.3c-4.3-2.9-8.6-7.2-11.8-11.9c-1.8-2.7-2.3-3.1-2.8-2.9c-0.3,0.1,0,0.8,1.2,3c1.6,2.9,2.9,4.8,5.1,7.4
		c0.7,0.8,1.2,1.5,1.1,1.6c-0.2,0.2-7.4,2.1-9.8,2.6c-1,0.2-3,0.5-4.5,0.7c-1.5,0.2-4.9,0.6-7.4,0.9c-8.6,1.2-18.1,1.8-29.3,1.8
		c-4.9,0-9.2-0.1-10.8-0.3c-1.5-0.2-3.8-0.4-5.1-0.5c-2.3-0.2-2.5-0.1-2.6,0.3c-0.1,0.3-0.3,2.1-0.4,4.1c-0.2,2-0.4,5.5-0.6,7.8
		c-0.2,2.6-0.3,13.8-0.4,30.4c-0.2,33-0.2,33.3,0.2,35.9c0.2,1.8,0.2,2.3-0.1,2.4c-0.5,0.3-1.7,0.3-3.5-0.2l-1.7-0.4l0.1-2.1
		c0.5-16.9,0.2-37.9-0.4-41.2c-0.2-0.7-0.6-3.7-1-6.6c-0.4-2.9-1-6.3-1.2-7.6c-1.3-5.7-5.1-18.7-6.1-20.5c-0.4-0.9-3.7-4.5-5.5-5.9
		c-1.1-1-1.3-1-1.6-0.7c-0.6,0.6-0.2,1.5,2,3.7c2,2,2,2.1,3.1,5.2l1,3.1l-0.3,2.2c-0.2,1.2-0.7,3.9-1.2,6.1
		c-0.5,2.1-1.2,5.6-1.7,7.8c-1.2,5.4-2.8,14.8-3.3,19.3c-0.6,5.2-3.6,22.9-4.5,26.3c-0.4,1.5-1.1,4.7-1.6,7.1c-0.5,2.3-1,4.3-1,4.4
		c-0.1,0.1-2.7-0.7-3.2-1.1c-0.2-0.2-0.8-0.6-1.2-1l-0.8-0.7l1.2-4.9c2.3-9.8,4.5-22.2,5.3-30c1.9-19.5,2.3-33.7,1.3-45.7
		c-0.5-6-0.7-6.7-2.3-9.9c-1.2-2.4-3.4-7.9-4.6-11.7c-0.2-0.6-0.4-2.1-0.5-3.4c-0.1-1.3-0.4-3.6-0.6-5.2c-0.6-3.4-1.1-13.7-1.1-19.2
		c0.1-4.4,0.3-7.4,1.4-15.3c0.8-5.9,1.5-9.1,2.9-13.5c0.5-1.6,1.5-5.1,2.1-7.7c0.7-2.7,1.9-6.7,2.7-8.9c0.8-2.2,1.8-5.2,2.3-6.6
		c1-2.9,1.4-4.5,1-4.5c-0.2,0-1.2,1-2.4,2.1c-2.2,2.2-5.1,4.3-7,4.9c-2,0.7-8,1.2-18.8,1.6l-2.8,0.1l-0.9,1.8
		c-1.2,2.3-2.3,3.3-4.2,3.4c-2.9,0.2-4.2-0.5-5.6-3.1c-0.7-1.5-0.8-1.7-0.7-3.8c0.1-2.8,0.8-4.4,3-6.8l1.5-1.7l1.2,1.4
		c0.7,0.8,1.7,2.3,2.2,3.5c1.5,3.3,1.7,3.7,2.1,3.8c0.7,0.2,0.2-3.8-0.8-5.9c-0.3-0.6-1.1-1.8-1.9-2.6c-0.7-0.8-1.4-1.4-1.4-1.4
		c0,0,1.4-1.3,3.1-2.8c1.7-1.5,4.7-4.2,6.6-6c3.3-3.2,9.8-8.6,13.8-11.6c4.3-3.2,6-4.4,6.4-4.4c0.2,0,2-1.5,3.9-3.4
		c1.9-1.9,4.1-3.8,4.7-4.2C48.1,6,53,3.3,53.4,3.3C53.5,3.3,53.5,3.7,53.4,4.3 M41.6,4.6c0.6,4.2,0.7,3.7-1,5.2L39,11.1l-0.8-0.6
		c-0.5-0.3-0.9-0.6-0.9-0.6c-0.1-0.1,2.3-5,3.2-6.4c0.4-0.6,0.7-1,0.7-0.9C41.2,2.6,41.4,3.5,41.6,4.6 M40.8,0.3
		C40,0.7,37.6,4.3,36.2,7c-0.7,1.5-1,1.7-1.4,1.6c-0.3-0.1-1.3-0.3-2.3-0.4c-1.6-0.3-2-0.2-3.6,0.3c-2.4,0.8-6.1,3.1-8.1,5.1
		c-2.5,2.5-4.1,6.1-4.4,9.7c-0.2,1.9-0.2,2,0.3,2c0.8,0,1.2-0.7,1.8-3c1.2-4.6,3.7-8,7.3-10.2c3.2-1.9,5.5-2.5,7.8-1.9
		c1.3,0.4,1,0.8-0.6,1.2c-2.9,0.7-6.1,3.1-8.1,6.1c-0.8,1.2-0.8,1.4-0.7,2.7l0.1,1.5l-1.2,0.9c-0.6,0.5-3.3,2.9-5.9,5.3
		c-2.6,2.4-6.5,6-8.6,7.8c-5.6,5-7.1,6.7-8.1,9.8c-0.9,2.7-0.9,5.4,0.2,7.6c1.5,3.2,3.3,4.5,6.3,4.5c3.3,0,5.6-1.4,6.5-4.2l0.5-1.3
		l8.1,0c8.2,0,10.9-0.2,13.8-1.2c1.5-0.5,3.4-1.7,4.6-2.9l1-0.9l-1.2,3.9c-4.7,14.5-6.9,22.5-7.9,28.3c-1.6,9.3-2.2,18.7-1.8,29.8
		c0.5,13.5,2.1,20.9,6.8,30.9c1.1,2.4,1.1,2.6,1.5,6.7c0.2,2.3,0.5,7.8,0.6,12.3c0.2,8.3-0.1,13.1-0.9,23.7
		c-0.3,3.2-0.6,7.2-0.8,8.9c-0.7,7.8-4.4,28.3-6.9,37.2c-1.3,4.8-1.4,5.3-0.9,6.2c0.5,1.1,2,1.6,5,1.8c2.2,0.1,2.6,0.1,3.5-0.4
		c0.6-0.3,1.1-0.7,1.3-0.9c0.4-0.4,1.7-4.8,2.5-8.4c0.4-1.6,1-4.1,1.4-5.6c0.4-1.5,1.2-5.1,1.6-7.9c0.5-2.8,1.2-7,1.7-9.3
		c0.4-2.3,1-6.3,1.3-8.9c0.7-6.2,2-14.9,3.1-19.7c0.4-2.1,1.2-5.9,1.7-8.5l0.9-4.8l1.3,4.7c1.6,5.5,2.2,8.3,2.7,12.4
		c0.2,1.7,0.7,5.1,1,7.5c0.7,4.7,0.7,6.1,1.2,23.4c0.2,8.6,0.2,12.3,0,16.8c-0.2,3.7-0.2,6.6-0.1,7.8c0.2,1.9,0.3,2,1.1,2.4
		c2.7,1.4,9.9-0.9,9.4-3c-0.5-2-0.7-9.1-0.8-26.5c-0.1-10.8-0.2-21.8-0.3-24.3c-0.2-4.3-0.1-12.6,0.4-26.2c0.1-3.9,0.3-5.2,0.5-5.1
		c0.2,0.1,2.4,0.3,5,0.5c3.6,0.4,7,0.5,14.9,0.5c12.2,0,19.8-0.5,26.5-1.6c1-0.2,1.2,0,6.5,3.5c6.2,4.1,7.2,4.7,9.7,5.4
		c1,0.3,2.2,0.8,2.8,1.2c0.6,0.4,1.2,0.7,1.3,0.7c0.5,0,0.5,0.7,0,4.1c-0.3,1.9-0.9,6.2-1.4,9.4c-0.5,3.2-1,6.8-1.2,8
		c-0.8,4.5-1.2,9.5-1.5,19.2c-0.2,5.5-0.5,10.9-0.6,12c-0.1,1.1-0.2,2.7-0.1,3.5c0.2,1.4-0.3,5.3-1,9.5c-0.5,2.6-0.5,4.9-0.1,5.2
		c0.6,0.5,2.9,1.1,4.1,1.1c2,0,4.2-1.2,5.1-2.8c0.6-1.1,0.7-1.3,0.7-5.5c0-6.1,0.4-12.8,1-17c0.3-2,0.7-6,1-8.8
		c1.2-12.2,2.5-19.3,5.9-32.3c1-3.7,4.1-12.4,4.5-12.6c0.2-0.1,1.7,0.4,3.3,1.1c4.2,1.7,7.3,2.7,8.2,2.7c1.3,0,1.3,0.6,0.3,6.7
		c-0.3,1.6-0.9,4.8-1.5,7c-2.3,9.4-4.7,22.9-5.1,28.1c-0.7,10.3-1,15.9-1.2,21.4c-0.2,8.5-0.1,9.1,3.1,9.6c3,0.5,5.4-0.4,6.9-2.6
		c0.7-1,0.7-1.1,0.6-4c-0.2-3.8,0.5-13.8,1.1-17.7c0.3-1.6,0.9-6.4,1.5-10.5c1.4-10.1,3.6-19.5,5.7-25c1.4-3.5,4.8-14,4.8-14.7
		c0-0.3-0.6-1.3-1.4-2.2c-2.9-3.4-4.2-7-4.7-12.9c-0.3-3.6,0-5.5,1.7-10c5.7-15.1,7.1-25.7,4.3-31.3c-0.4-0.7-1-1.8-1.6-2.5
		l-0.9-1.2l1.7,0.1c2.3,0.2,3.6,0.9,5.6,3c2,2,3.1,4.3,4.1,8.5c1.5,6.1,1.6,8.1,0.5,17.6c-1.1,10.5-0.5,13.5,4.3,20.4
		c2.5,3.5,8.1,9.5,9.7,10.3c0.5,0.3,1,0.6,1.2,0.8c0.4,0.6,0.6,0,0.3-1.7c-0.6-5.1,0.5-13.1,2.9-19.9c2-5.7,2.1-7,2.1-16.7
		c0-7.8,0-8.5-0.7-12.1c-1.6-9.1-5.2-16.4-10.2-20.9c-2.7-2.4-3.4-2.8-6.3-3.6c-3-0.8-8.3-0.8-10.5,0c-3.3,1.2-7.3,3.7-9.9,6.2
		l-1.7,1.7l-1.9-1.5c-3.1-2.5-9.3-5.3-14.1-6.4c-1.1-0.2-3.6-0.3-9.4-0.3c-8.8,0-12,0.3-20.8,2c-7.2,1.4-18.1,3-21.8,3.2
		c-3.9,0.2-6.9-0.3-10.4-1.5c-2.1-0.7-4.2-2.1-6.6-4.4l-0.7-0.6l0.7-1.2c1.3-2.1,1.5-2.6,1.9-4.1c0.6-2.1,0.5-5.2-0.2-8.9
		c-0.8-3.9-1.4-5.1-3.4-7.3c-1.8-1.9-2.2-2.9-2.1-5.4c0.1-3.6-0.9-7.6-2.6-11.2c-1.5-3.1-3.3-5.2-5.6-6.4c-1.4-0.7-1.5-0.8-2.7-3.5
		c-1.5-3.4-4.1-6.9-7.3-10c-4.3-4.1-8.2-6.8-11.3-7.6c-0.9-0.3-1.8-0.5-1.8-0.5c0,0,0.3-0.6,0.8-1.3c2-3,3.2-7.2,3.2-11.1
		c0-2.2-0.3-2.6-1.7-2.4c-1.4,0.2-6.5,2.9-8.1,4.2c-0.8,0.6-1.5,1.2-1.6,1.2s-0.1-0.5-0.1-1.1c0-2.3-1.1-5.1-2.1-5.3
		C41.6,0,41.1,0.1,40.8,0.3"/>
	<path class="st0" d="M44.1,12.3c-2.1,1.5-3.8,2.8-3.8,3c0,0.5,0.9,0.5,1.7,0.1c0.5-0.3,2.1-1.6,3.5-2.9c2.4-2.2,3-2.9,2.4-2.9
		C47.9,9.5,46.1,10.8,44.1,12.3"/>
	<path class="st0" d="M43.8,14.6c-1.7,0.8-2.1,1.5-1,1.5c0.3,0,0.6,0.1,0.7,0.3c0.3,0.4,1.6-0.5,1.5-0.9c-0.1-0.2,0.2-0.6,0.5-0.9
		C46.3,13.6,45.7,13.6,43.8,14.6"/>
	<path class="st0" d="M32.1,28.7c-0.4,0.4-0.7,1-0.7,1.4c0,0.8,1,1.8,1.7,1.8c1.4,0,2.2-2.5,1.1-3.4C33.6,27.7,33,27.8,32.1,28.7"/>
	<path class="st0" d="M6.4,46.5c-0.7,0.5-0.6,1.5,0.1,1.6c0.6,0.1,1.2-0.4,1.2-1.1C7.7,46.2,7.1,46,6.4,46.5"/>
	<path class="st0" d="M81.5,88.6c-2.9,2.9-5.4,6.5-4.9,7.2c0.1,0.1,0.6-0.5,1.2-1.3c0.6-0.9,2.3-2.9,3.8-4.5c1.5-1.6,2.8-3,2.8-3.1
		c0-0.1-0.2-0.2-0.5-0.2C83.6,86.7,82.6,87.6,81.5,88.6"/>
	<path class="st0" d="M131.7,88.1c-0.8,0.2-3.1,0.5-5.1,0.8c-3.3,0.4-13.8,2.4-16,3.1c-0.6,0.2-0.9,0.4-0.7,0.5
		c0.3,0.3,3.6-0.1,8.7-1c1.9-0.4,5.1-0.8,7.1-1c2-0.2,5-0.6,6.6-0.9c1.6-0.3,4.5-0.6,6.3-0.7c1.9-0.1,3.4-0.2,3.5-0.3
		C142.6,87.8,134.5,87.5,131.7,88.1"/>
	<path class="st0" d="M144.6,88c0,0.4,0.9,0.8,1.9,0.8c1.1,0,1.2-0.4,0.2-0.6c-0.4-0.1-1-0.2-1.4-0.3
		C144.8,87.7,144.6,87.8,144.6,88"/>
	<path class="st0" d="M176,107.7c0.7,3.3,0.4,6.8-0.9,12.1c-0.8,3.4-0.9,3.7-0.6,3.7c0.5,0,2.5-6.3,2.9-9c0.2-1.6,0.2-2.6,0-4.3
		c-0.3-2.5-0.6-3.2-1.2-3.2C175.9,106.9,175.9,107.1,176,107.7"/>
	<path class="st0" d="M40.2,133.2c-0.3,0.4-0.2,1.9,0.4,3.3c1.2,3.1,4.3,7.7,5.2,7.7c0.2,0-0.1-0.6-0.7-1.6
		c-0.9-1.4-3.8-7.3-4.5-8.9C40.5,133.3,40.3,133.1,40.2,133.2"/>
	<path class="st0" d="M45.1,139.1c0,0.6,1.2,2.4,1.9,2.8c0.6,0.3,0.4-0.2-0.6-1.9C45.5,138.4,45.1,138.2,45.1,139.1"/>
	<path class="st0" d="M130.7,139.8c-0.4,0.6,0.9,1.9,3,3.4c1.2,0.8,2.4,1.5,2.5,1.5c0.6,0,0-0.6-1.9-2.3c-1.2-1-2.3-2-2.6-2.4
		C131.2,139.5,130.9,139.4,130.7,139.8"/>
	<path class="st0" d="M67.5,140.5c-0.1,0.1-0.1,0.4,0.1,0.7c0.1,0.3,0.4,1.7,0.5,3c0.4,3.3,0.5,3.7,0.8,3.5c0.4-0.3,0.3-4.3-0.1-5.8
		C68.4,140.8,67.9,140.1,67.5,140.5"/>
	<path class="st0" d="M131.9,144c-0.2,0.4,0.6,1,1.4,1c0.8,0,0.7-0.4-0.3-0.9C132.3,143.8,132,143.8,131.9,144"/>
	<path class="st0" d="M69.9,146.1c0,0.9,0.3,1.8,0.6,1.8c0.4,0,0.1-2.2-0.2-2.3C70,145.5,69.9,145.7,69.9,146.1"/>
	<path class="st0" d="M43.5,146.8c-0.2,0.6-0.3,25.1-0.1,24.9c0.3-0.2,0.7-2.6,1-5.3c0.3-3.1-0.1-19.4-0.5-19.8
		C43.7,146.5,43.6,146.6,43.5,146.8"/>
	<path class="st0" d="M45.5,149.6c-0.1,0.1-0.1,1.9,0,4c0.2,4.8,0.6,4.4,0.6-0.6C46.2,149.7,46,148.9,45.5,149.6"/>
	<path class="st0" d="M47.7,152.4c0,0.5,0.3,1.1,0.6,1.1c0.4,0,0.1-1.1-0.2-1.2C47.8,152.2,47.7,152.3,47.7,152.4"/>
	<path class="st0" d="M42.8,176c-0.2,1.8,0,2.1,0.5,0.9c0.6-1.4,0.6-2.1,0.1-2.3C43,174.5,42.9,174.8,42.8,176"/>
	<path class="st0" d="M52.9,20.6c-0.1,0.1-0.1,0.3,0.1,0.3s0.9,0.5,1.7,1.2c0.8,0.6,1.5,1.1,1.6,1c0.2-0.2-2.5-2.7-2.9-2.7
		C53.2,20.4,53,20.5,52.9,20.6"/>
	<path class="st0" d="M57.6,24.4c0,0.1,0.5,0.8,1.2,1.5c3.8,4.3,5.2,6.6,6.2,10.2c0.3,1.2,0.7,2.1,0.8,2.1c0.5,0-0.8-5.4-1.8-7.1
		c-0.4-0.7-1.9-2.5-3.3-4.1C58.4,24.6,57.6,23.9,57.6,24.4"/>
	<path class="st0" d="M64.9,42.6c-0.2,1.1-0.9,3.1-1.5,4.5c-1,2.5-1.5,4.9-1,4.9c0.2,0,0.3-0.1,0.3-0.3c0-0.2,0.5-1.2,1-2.4
		c1.1-2.3,1.9-5.2,2.1-7.3C66,40,65.4,40.3,64.9,42.6"/>
	<path class="st0" d="M68.5,43.6c-0.1,0.1-0.2,0.5-0.2,1c0,0.8-1.9,6.8-3.2,9.7c-0.4,0.9-1.5,2.8-2.4,4.2c-2.3,3.4-2.4,3.9-0.3,1.5
		c1.1-1.2,2.2-2.7,2.8-3.9c1.2-2.3,3.5-9.3,3.8-11.1C69.2,43.9,68.9,43.2,68.5,43.6"/>
	<path class="st0" d="M77.3,47.7c0,0.4-0.9,4.8-1.3,6.3c-0.3,1-0.4,2-0.4,2c0.2,0.3,1.2-2.3,1.7-4.5c0.6-2.5,0.6-4,0.3-4
		C77.4,47.6,77.3,47.6,77.3,47.7"/>
	<path class="st0" d="M78.3,52.4c0,1.9-4.5,13.8-5.6,15.1c-0.7,0.8-0.4,1.1,0.5,0.5c2-1.5,6.4-13.5,5.7-15.5
		C78.5,51.6,78.3,51.6,78.3,52.4"/>
	<path class="st0" d="M72.9,53.9c0,0.6-3.3,7.3-4.2,8.5c-1,1.3-1.5,2.5-1.7,3.8c-0.3,1.3,0.2,1,0.9-0.5c0.3-0.8,0.9-1.8,1.4-2.4
		c0.9-1.2,3.8-7.6,4.1-8.8c0.1-0.5,0.1-0.8-0.1-0.8C73.1,53.5,72.9,53.7,72.9,53.9"/>
	<path class="st0" d="M81.6,65.8c-0.7,3.6-2.6,7.3-5.6,11.1c-3.1,3.9-5,6.5-4.8,6.7c0.3,0.3,5.1-5.1,6.6-7.3
		c2.4-3.7,3.9-7.3,4.4-10.4C82.5,63.9,82,63.9,81.6,65.8"/>
	<path class="st0" d="M68.9,69c-0.5,1.1-0.9,2.1-1,2.2c-0.1,0.1,0,0.2,0.2,0.2c0.3,0,2.1-3.6,2.1-4.1C70.1,66.6,69.7,67.2,68.9,69"
		/>
	<path class="st0" d="M83.5,69.4c-0.2,1.8-1.3,5.2-2.2,7.1c-1,2.1-3.4,5.7-4.2,6.5c-0.8,0.8-0.6,1.1,0.4,0.4c1.9-1.4,5.1-6.7,6-9.9
		c0.6-2.2,0.9-4.1,0.8-4.8C84,67.7,83.7,67.9,83.5,69.4"/>
	<path class="st0" d="M183.8,87.6c-0.8,0.2-2.2,0.7-3.1,1.2c-2,1-5.8,3.5-5.8,3.8c0,0.1,0.3,0.5,0.7,0.8c0.7,0.6,0.7,0.6,2.9,0.2
		c1.2-0.3,2.7-0.4,3.4-0.3c3.7,0.4,8.3,4.2,10.3,8.5c2.5,5.2,3,10.2,2.6,22.8c-0.3,9-0.3,9.9,0.6,12.2c0.5,1.4,2.7,5.1,2.9,5.1
		c0.3,0,0.3-0.2-0.8-2.7c-2-4.6-1.9-4.3-1.6-14.4c0.3-7.9,0.3-9.4-0.1-12.9c-0.6-6-1.8-9.9-3.7-12.9c-2.3-3.4-5.5-5.9-8.7-6.8
		c-0.8-0.2-1.5-0.4-1.6-0.5c-0.1-0.1,0.6-0.2,1.5-0.4c3.4-0.6,7.1,0.5,10.7,3.4c2.1,1.6,2.7,1.7,1.3,0.2c-2-2.1-5-3.9-7.4-4.4
		c-3-0.6-4.8-0.4-8.9,1.1c-3.2,1.2-2.8,0.6,1.1-1.4c3.2-1.6,4.5-1.9,7.8-1.8c3.3,0.2,5,0.9,7.8,3.4c1.1,1,1.9,1.6,1.9,1.5
		c0-0.4-1.7-2.5-2.8-3.4c-1.6-1.3-2.9-1.9-5.2-2.4C187.4,87.1,185.7,87.1,183.8,87.6"/>
	<path class="st0" d="M202.4,102.2c0,0.3,0.3,1.2,0.7,2.1c1,2.4,1.7,5.2,2.5,10.1c0.6,3.8,0.7,4.8,0.5,8.7c-0.2,4.6-0.4,6-2.2,12.8
		c-0.8,3.2-1.3,6.5-0.9,6.5c0.1,0,0.4-0.9,0.5-2c0.2-1.1,0.7-3.3,1.2-5c1.4-4.7,1.9-7.1,2.2-11.6c0.3-4,0.3-4.3-0.4-8.9
		c-0.9-5.9-1.4-8-2.8-10.9C202.8,101.8,202.4,101.3,202.4,102.2"/>
	<path class="st0" d="M201.6,111.4c0.5,1.2,1.3,6.1,1.6,9.4c0.3,4.1,0.1,6.6-1.2,12.4c-1.4,6.4-2.2,14-1.7,15.9
		c0.3,1.2,0.5,0.5,0.5-1.9c0.1-3.5,0.7-8.5,1.9-13.4c0.5-2.3,1.1-5.1,1.3-6.3c0.4-2.8,0.1-8.1-0.5-11.4c-0.9-4.2-1.1-5-1.6-5.1
		C201.5,110.8,201.4,110.8,201.6,111.4"/>
	<path class="st0" d="M199.5,122.1c-0.1,5.1-0.2,5.9-0.8,8.4c-0.7,2.8-1.1,7-0.8,8.7c0.3,1.6,0.5,1,0.6-1.6c0-1.7,0.3-3.5,0.7-5.5
		c0.4-1.6,0.8-3.7,0.9-4.6c0.4-2.1,0.2-10.3-0.2-10.7C199.7,116.5,199.6,117.9,199.5,122.1"/>
	<path class="st0" d="M202,146.1c-0.3,0.7,0,4.8,0.4,5.1c0.2,0.2,0.3-0.4,0.1-2.5C202.3,145.7,202.3,145.4,202,146.1"/>
	<path class="st0" d="M132.8,151.3c0,0.4,0.1,0.5,1.1,0.8c0.4,0.1,0.7,0.1,0.7-0.1c0-0.2-0.4-0.4-1.6-1
		C132.9,150.9,132.8,151.1,132.8,151.3"/>
	<path class="st0" d="M130.1,152.3c0.2,0.4,3.2,2.1,3.4,1.8c0.1-0.1-0.6-0.6-1.5-1.2C130.3,151.9,129.9,151.8,130.1,152.3"/>
	<path class="st0" d="M126.3,152.7c0.3,1.4,9.8,6.5,10.6,5.6c0.1-0.1,0-0.3-0.2-0.3c-1.4-0.5-6.2-3.1-7.9-4.3
		C126.5,152.1,126.1,152,126.3,152.7"/>
	<path class="st0" d="M27.2,12.4c-0.4,0.3-1.3,1.1-2,1.9c-0.7,0.8-1.1,1.1-1,0.8c0.3-0.6,0.4-1.1,0.1-1.1c-0.3,0-2.3,3.1-2.9,4.5
		c-0.7,1.7-1.8,6-1.5,5.8c0.2-0.1,0.6-1.2,1.1-2.6c0.9-2.8,2.3-5.6,2.9-5.9c0.5-0.2,4.2-3.4,4.3-3.7C28.4,11.7,28,11.8,27.2,12.4"/>
</g>
</svg>
