<?xml version="1.0" encoding="utf-8"?>
<!-- Generator: Adobe Illustrator 19.0.0, SVG Export Plug-In . SVG Version: 6.00 Build 0)  -->
<svg version="1.1" id="Layer_1" xmlns="http://www.w3.org/2000/svg" xmlns:xlink="http://www.w3.org/1999/xlink" x="0px" y="0px"
	 viewBox="0 0 77.2 86.4" style="enable-background:new 0 0 77.2 86.4;" xml:space="preserve">
<style type="text/css">
	
		.st0{clip-path:url(#SVGID_2_);fill:none;stroke:#FFFFFF;stroke-width:3.457;stroke-linecap:round;stroke-linejoin:round;stroke-miterlimit:10;}
</style>
<g>
	<defs>
		<rect id="SVGID_1_" width="77.2" height="86.4"/>
	</defs>
	<clipPath id="SVGID_2_">
		<use xlink:href="#SVGID_1_"  style="overflow:visible;"/>
	</clipPath>
	<path class="st0" d="M63.9,73h-6.9v0L63.9,73L63.9,73z M60.4,76.4L60.4,76.4l0-6.9h0V76.4z M57,25.4L57,25.4c0-5.1-4.1-9.2-9.2-9.2
		H29.4c-5.1,0-9.2,4.1-9.2,9.2c0,0-4-21,12.5-22.1c4.6-0.3,10.6,4,15.8,4c5.2,0,8.6-5.5,8.6-5.5V25.4z M46.3,46.9v-2.3
		c-2.4,1.4-5.1,2.3-7.7,2.3c-2.6,0-5.2-0.8-7.7-2.3v2.3c0,3.4-2.1,6.1-4.6,6.1c0,6.8,5.5,31.7,12.3,31.7c6.8,0,12.3-24.9,12.3-31.7
		C48.4,53,46.3,50.3,46.3,46.9z M47.8,16.2H29.4c-5.1,0-9.2,4.1-9.2,9.2c0,11.9,9.4,21.5,18.4,21.5c9,0,18.4-9.6,18.4-21.5
		C57,20.3,52.9,16.2,47.8,16.2z M75.5,84.7V74.6c0-10.1-7.9-17.4-18.4-20L50.9,53c0,6.8-5.5,12.3-12.3,12.3
		c-6.8,0-12.3-5.5-12.3-12.3l-6.1,1.5c-10.6,2.6-18.4,9.8-18.4,20v10.1H75.5z"/>
</g>
</svg>
