<?xml version="1.0" encoding="utf-8"?>
<!-- Generator: Adobe Illustrator 19.0.0, SVG Export Plug-In . SVG Version: 6.00 Build 0)  -->
<svg version="1.1" id="Layer_1" xmlns="http://www.w3.org/2000/svg" xmlns:xlink="http://www.w3.org/1999/xlink" x="0px" y="0px"
	 viewBox="0 0 41 33.1" style="enable-background:new 0 0 41 33.1;" xml:space="preserve">
<style type="text/css">
	
		.st0{clip-path:url(#SVGID_2_);fill:none;stroke:#FFFFFF;stroke-width:1.639;stroke-linecap:round;stroke-linejoin:round;stroke-miterlimit:10;}
</style>
<g>
	<defs>
		<rect id="SVGID_1_" width="41" height="33.1"/>
	</defs>
	<clipPath id="SVGID_2_">
		<use xlink:href="#SVGID_1_"  style="overflow:visible;"/>
	</clipPath>
	<path class="st0" d="M1.4,15.9c-1-1.7-0.6-4.4,1.1-5.4c1.7-1,4.2,0,5.2,1.7c1.3,2.3,1,5-0.7,6C5.2,19.2,2.7,18.2,1.4,15.9z
		 M39.6,15.9c1-1.7,0.6-4.4-1.1-5.4c-1.7-1-4.2,0-5.2,1.7c-1.3,2.3-1,5,0.7,6C35.8,19.2,38.3,18.2,39.6,15.9z M31.1,7.2
		c0.7-2.5-0.6-5.6-3.1-6.3c-2.5-0.7-5.2,1.4-5.8,3.9c-0.9,3.3,0.4,6.5,2.9,7.2C27.5,12.6,30.2,10.5,31.1,7.2z M9.4,7.2
		C8.7,4.7,10,1.6,12.5,0.9c2.5-0.7,5.2,1.4,5.8,3.9c0.9,3.3-0.4,6.5-2.9,7.2C13,12.6,10.2,10.5,9.4,7.2z M10.3,25.8
		c-0.2,3.5,2.5,6.6,5.9,6.5c1,0,2-0.3,2.8-0.9c0.9-0.5,2-0.6,2.8,0c0.9,0.6,2,0.9,3.1,0.9c3.2,0,5.8-2.6,5.8-5.8h0
		c0-5.7-4.6-10.2-10.2-10.2C15.1,16.3,10.6,20.5,10.3,25.8z"/>
</g>
</svg>
