<?xml version="1.0" encoding="utf-8"?>
<!-- Generator: Adobe Illustrator 19.0.0, SVG Export Plug-In . SVG Version: 6.00 Build 0)  -->
<svg version="1.1" id="Layer_1" xmlns="http://www.w3.org/2000/svg" xmlns:xlink="http://www.w3.org/1999/xlink" x="0px" y="0px"
	 viewBox="0 0 85.6 55.6" style="enable-background:new 0 0 85.6 55.6;" xml:space="preserve">
<style type="text/css">
	
		.st0{clip-path:url(#SVGID_2_);fill:none;stroke:#FFFFFF;stroke-width:3.325;stroke-linecap:round;stroke-linejoin:round;stroke-miterlimit:10;}
</style>
<g>
	<defs>
		<rect id="SVGID_1_" width="85.6" height="55.6"/>
	</defs>
	<clipPath id="SVGID_2_">
		<use xlink:href="#SVGID_1_"  style="overflow:visible;"/>
	</clipPath>
	<path class="st0" d="M52.7,34V5.4c0-2-1.7-3.7-3.7-3.7H5.4c-2,0-3.7,1.7-3.7,3.7v41 M73.7,46.4c0,4.2-3.4,7.6-7.6,7.6
		c-4.2,0-7.6-3.4-7.6-7.6c0-4.2,3.4-7.6,7.6-7.6C70.3,38.8,73.7,42.2,73.7,46.4z M52.7,11h11.5c0,0,3.6,0,4.9,3.7
		c1,2.9,2.5,6.8,4.8,12.6h6.6c2,0,3.6,1.2,3.6,3.1v16h-9.4 M1.7,46.4h10.9 M27.8,46.4h29.9 M27.8,46.4c0,4.2-3.4,7.6-7.6,7.6
		c-4.2,0-7.6-3.4-7.6-7.6c0-4.2,3.4-7.6,7.6-7.6C24.4,38.8,27.8,42.2,27.8,46.4z"/>
</g>
</svg>
