<?xml version="1.0" encoding="utf-8"?>
<!-- Generator: Adobe Illustrator 19.0.0, SVG Export Plug-In . SVG Version: 6.00 Build 0)  -->
<svg version="1.1" id="Layer_1" xmlns="http://www.w3.org/2000/svg" xmlns:xlink="http://www.w3.org/1999/xlink" x="0px" y="0px"
	 viewBox="0 0 30.8 40.5" style="enable-background:new 0 0 30.8 40.5;" xml:space="preserve">
<style type="text/css">
	
		.st0{clip-path:url(#SVGID_2_);fill:none;stroke:#FFFFFF;stroke-width:1.56;stroke-linecap:round;stroke-linejoin:round;stroke-miterlimit:10;}
</style>
<g>
	<defs>
		<rect id="SVGID_1_" width="30.8" height="40.5"/>
	</defs>
	<clipPath id="SVGID_2_">
		<use xlink:href="#SVGID_1_"  style="overflow:visible;"/>
	</clipPath>
	<path class="st0" d="M15.1,19.8L13,20.6c-0.7,0.2-1.3-0.3-1.3-1l0.1-2.2c0-0.2-0.1-0.5-0.2-0.6L10.1,15c-0.4-0.6-0.2-1.4,0.5-1.6
		l2.1-0.6c0.2-0.1,0.4-0.2,0.5-0.4l1.3-1.8c0.4-0.6,1.2-0.6,1.6,0l1.3,1.8c0.1,0.2,0.3,0.3,0.5,0.4l2.1,0.6c0.7,0.2,0.9,1,0.5,1.6
		l-1.4,1.8c-0.1,0.2-0.2,0.4-0.2,0.6l0.1,2.2c0,0.7-0.7,1.2-1.3,1l-2.1-0.7C15.5,19.8,15.3,19.8,15.1,19.8z M25.1,15.4
		c0,5.4-4.4,9.7-9.7,9.7c-5.4,0-9.7-4.4-9.7-9.7s4.4-9.7,9.7-9.7C20.8,5.7,25.1,10,25.1,15.4z M18.9,28.3c-0.8,1-2.1,1.7-3.5,1.7
		s-2.7-0.7-3.5-1.7c-1,0.4-2,0.4-3,0.1v11.3l6.5-4.9l6.5,4.9V28.4C20.9,28.8,19.8,28.7,18.9,28.3z M30,15.4c0-1.4-0.7-2.7-1.7-3.5
		c0.5-1.2,0.4-2.6-0.3-3.8c-0.7-1.2-1.9-2-3.2-2.1c-0.2-1.3-0.9-2.5-2.1-3.2C21.5,2,20.1,2,18.9,2.5c-0.8-1-2.1-1.7-3.5-1.7
		s-2.7,0.7-3.5,1.7C10.7,2,9.3,2,8.1,2.7c-1.2,0.7-2,1.9-2.1,3.2C4.6,6.1,3.4,6.9,2.7,8.1C2,9.3,2,10.7,2.5,11.9
		c-1,0.8-1.7,2.1-1.7,3.5c0,1.4,0.7,2.7,1.7,3.5C2,20.1,2,21.5,2.7,22.7c0.7,1.2,1.9,2,3.2,2.1c0.2,1.3,0.9,2.5,2.1,3.2
		c1.2,0.7,2.6,0.8,3.8,0.3c0.8,1,2.1,1.7,3.5,1.7s2.7-0.7,3.5-1.7c1.2,0.5,2.6,0.4,3.8-0.3c1.2-0.7,2-1.9,2.1-3.2
		c1.3-0.2,2.5-0.9,3.2-2.1c0.7-1.2,0.8-2.6,0.3-3.8C29.4,18.1,30,16.8,30,15.4z"/>
</g>
</svg>
