<?xml version="1.0" encoding="utf-8"?>
<!-- Generator: Adobe Illustrator 19.0.0, SVG Export Plug-In . SVG Version: 6.00 Build 0)  -->
<svg version="1.1" id="Layer_1" xmlns="http://www.w3.org/2000/svg" xmlns:xlink="http://www.w3.org/1999/xlink" x="0px" y="0px"
	 viewBox="0 0 113.7 91.7" style="enable-background:new 0 0 113.7 91.7;" xml:space="preserve">
<style type="text/css">
	
		.st0{clip-path:url(#SVGID_2_);fill:none;stroke:#FFFFFF;stroke-width:4.644;stroke-linecap:round;stroke-linejoin:round;stroke-miterlimit:10;}
</style>
<g>
	<defs>
		<rect id="SVGID_1_" width="113.7" height="91.7"/>
	</defs>
	<clipPath id="SVGID_2_">
		<use xlink:href="#SVGID_1_"  style="overflow:visible;"/>
	</clipPath>
	<path class="st0" d="M84.6,80c14.8,0,26.8-12,26.8-26.8c0-14.8-12-26.8-26.8-26.8c-1.7,0-3.3,0.2-4.8,0.5
		C78.1,13,66.4,2.3,52.2,2.3c-15.3,0-27.7,12.4-27.7,27.7c0,1.8,0.2,3.5,0.5,5.1C12.4,35.8,2.3,45.6,2.3,57.5
		c0,12.4,10.8,22.4,24,22.4 M87.4,80H72.6 M24.5,80H43 M72.6,63.5L57.8,48.7L43,63.5 M57.8,89.4v-37"/>
</g>
</svg>
