<?xml version="1.0" encoding="utf-8"?>
<!-- Generator: Adobe Illustrator 19.0.0, SVG Export Plug-In . SVG Version: 6.00 Build 0)  -->
<svg version="1.1" id="Layer_1" xmlns="http://www.w3.org/2000/svg" xmlns:xlink="http://www.w3.org/1999/xlink" x="0px" y="0px"
	 viewBox="0 0 14.2 15.9" style="enable-background:new 0 0 14.2 15.9;" xml:space="preserve">
<style type="text/css">
	.st0{clip-path:url(#SVGID_2_);fill:#FFFFFF;}
	.st1{clip-path:url(#SVGID_2_);fill:none;stroke:#FFFFFF;stroke-width:0.226;stroke-miterlimit:10;}
</style>
<g>
	<defs>
		<rect id="SVGID_1_" width="14.2" height="15.9"/>
	</defs>
	<clipPath id="SVGID_2_">
		<use xlink:href="#SVGID_1_"  style="overflow:visible;"/>
	</clipPath>
	<path class="st0" d="M7.1,1c1.7,0,3,1.4,3,3s-1.4,3-3,3S4,5.7,4,4S5.4,1,7.1,1 M7.1,8C9.2,8,11,6.2,11,4S9.2,0.1,7.1,0.1
		C4.9,0.1,3.2,1.9,3.2,4S4.9,8,7.1,8"/>
	<path class="st1" d="M7.1,1c1.7,0,3,1.4,3,3s-1.4,3-3,3S4,5.7,4,4S5.4,1,7.1,1z M7.1,8C9.2,8,11,6.2,11,4S9.2,0.1,7.1,0.1
		C4.9,0.1,3.2,1.9,3.2,4S4.9,8,7.1,8z"/>
	<path class="st0" d="M7.1,9.7c-3.8,0-7,2.7-7,6.1H1c0-2.9,2.7-5.2,6.1-5.2s6.1,2.3,6.1,5.2h0.9C14.1,12.4,10.9,9.7,7.1,9.7"/>
	<path class="st1" d="M7.1,9.7c-3.8,0-7,2.7-7,6.1H1c0-2.9,2.7-5.2,6.1-5.2s6.1,2.3,6.1,5.2h0.9C14.1,12.4,10.9,9.7,7.1,9.7z"/>
</g>
</svg>
