<?xml version="1.0" encoding="utf-8"?>
<!-- Generator: Adobe Illustrator 19.0.0, SVG Export Plug-In . SVG Version: 6.00 Build 0)  -->
<svg version="1.1" id="Layer_1" xmlns="http://www.w3.org/2000/svg" xmlns:xlink="http://www.w3.org/1999/xlink" x="0px" y="0px"
	 viewBox="0 0 92 82" style="enable-background:new 0 0 92 82;" xml:space="preserve">
<style type="text/css">
	.st0{clip-path:url(#XMLID_7_);fill:#FFFFFF;}
</style>
<g id="XMLID_2_">
	<defs>
		<rect id="XMLID_3_" width="92.3" height="82.6"/>
	</defs>
	<clipPath id="XMLID_7_">
		<use xlink:href="#XMLID_3_"  style="overflow:visible;"/>
	</clipPath>
	<path id="XMLID_4_" class="st0" d="M46.5,27.9c-0.3,11.8-15.3,13.9-20.6,6.3C21,27.3,25,17.3,33.6,16.3c4-0.5,7.5,1.1,9.5,3.1
		C44.5,20.8,46.6,24.1,46.5,27.9 M148.7,92.7c-4.7-0.5-9.4-1-13.5-1.5c-12.6-1.4-23.7-3-34.8-5.1c-12.8-2.5-21.1-9-27.8-17.8
		c-7.7-10.2-11.4-22-16.8-34.5c-2.6-5.9-5.5-12-9.7-16.1C43,14.5,38.5,12,32,12.8c-5.3,0.6-9.5,3.6-13.2,6.3c-1,0.7-3.3,2.2-3.4,3.1
		c-0.1,0.8,1.1,2.6,1.5,3.5c0.6,1.4,1.3,2.6,1.6,3.5c1.9,5.4,1.3,12-0.3,17.3c-1.3,4.4-3.5,10.3-3.7,16.4
		c-0.3,12.5,5.5,22.2,12.1,27.8c1.8,1.5,6.1,4.7,8.2,4.7h115.7c2,0,2.1-0.2,2.1-1.1C152.7,93.1,150,92.8,148.7,92.7"/>
</g>
</svg>
