<?xml version="1.0" encoding="utf-8"?>
<!-- Generator: Adobe Illustrator 19.0.0, SVG Export Plug-In . SVG Version: 6.00 Build 0)  -->
<svg version="1.1" id="Layer_1" xmlns="http://www.w3.org/2000/svg" xmlns:xlink="http://www.w3.org/1999/xlink" x="0px" y="0px"
	 viewBox="0 0 76 68" style="enable-background:new 0 0 76 68;" xml:space="preserve">
<style type="text/css">
	.st0{clip-path:url(#XMLID_7_);fill:#C89E75;}
</style>
<g id="XMLID_2_">
	<defs>
		<rect id="XMLID_3_" x="0" width="76" height="68"/>
	</defs>
	<clipPath id="XMLID_7_">
		<use xlink:href="#XMLID_3_"  style="overflow:visible;"/>
	</clipPath>
	<path id="XMLID_4_" class="st0" d="M37.8,24c0.2,9.7,12.6,11.5,17,5.2c3.9-5.7,0.7-13.8-6.4-14.7c-3.3-0.4-6.2,0.9-7.8,2.5
		C39.4,18.1,37.7,20.9,37.8,24 M-46.4,77.3c3.8-0.4,7.7-0.8,11.1-1.2c10.4-1.1,19.5-2.4,28.6-4.2c10.5-2.1,17.3-7.4,22.9-14.7
		c6.3-8.4,9.4-18.1,13.8-28.4c2.1-4.9,4.5-9.9,7.9-13.2c2.6-2.6,6.3-4.6,11.7-4c4.3,0.5,7.9,3,10.8,5.2c0.8,0.6,2.7,1.8,2.8,2.5
		c0.1,0.7-0.9,2.2-1.2,2.9c-0.5,1.2-1.1,2.1-1.3,2.9c-1.5,4.5-1.1,9.8,0.2,14.2c1.1,3.6,2.9,8.5,3,13.5C64.3,63,59.5,71,54,75.6
		c-1.5,1.2-5,3.8-6.7,3.9h-95.2c-1.6,0-1.7-0.1-1.7-0.9C-49.7,77.7-47.4,77.4-46.4,77.3"/>
</g>
</svg>
