<?xml version="1.0" encoding="utf-8"?>
<!-- Generator: Adobe Illustrator 19.0.0, SVG Export Plug-In . SVG Version: 6.00 Build 0)  -->
<svg version="1.1" id="Layer_1" xmlns="http://www.w3.org/2000/svg" xmlns:xlink="http://www.w3.org/1999/xlink" x="0px" y="0px"
	 viewBox="0 0 76 68" style="enable-background:new 0 0 76 68;" xml:space="preserve">
<style type="text/css">
	.st0{clip-path:url(#XMLID_7_);fill:#C89E75;}
</style>
<g id="XMLID_2_">
	<defs>
		<rect id="XMLID_3_" x="0" y="0" width="76" height="68"/>
	</defs>
	<clipPath id="XMLID_7_">
		<use xlink:href="#XMLID_3_"  style="overflow:visible;"/>
	</clipPath>
	<path id="XMLID_4_" class="st0" d="M38.2,24c0.1-3.1-1.6-5.8-2.8-7c-1.6-1.6-4.5-2.9-7.8-2.5c-7,0.8-10.3,9-6.4,14.7
		C25.6,35.4,38,33.7,38.2,24 M122.4,77.3c1.1,0.1,3.3,0.4,3.3,1.3c0,0.8-0.1,0.9-1.7,0.9H28.7c-1.7,0-5.3-2.6-6.7-3.9
		C16.5,71,11.7,63,12,52.7c0.1-5,1.9-9.9,3-13.5c1.3-4.4,1.8-9.7,0.2-14.2c-0.3-0.8-0.8-1.7-1.3-2.9c-0.3-0.7-1.3-2.2-1.2-2.9
		c0.1-0.8,2-1.9,2.8-2.5c3-2.2,6.5-4.6,10.8-5.2c5.4-0.7,9.1,1.4,11.7,4c3.4,3.4,5.8,8.3,7.9,13.2c4.4,10.3,7.5,20,13.8,28.4
		c5.5,7.3,12.3,12.6,22.9,14.7c9.1,1.8,18.3,3.1,28.6,4.2C114.7,76.5,118.5,76.9,122.4,77.3"/>
</g>
</svg>
