<?xml version="1.0" encoding="utf-8"?>
<!-- Generator: Adobe Illustrator 19.0.0, SVG Export Plug-In . SVG Version: 6.00 Build 0)  -->
<svg version="1.1" id="Layer_1" xmlns="http://www.w3.org/2000/svg" xmlns:xlink="http://www.w3.org/1999/xlink" x="0px" y="0px"
	 viewBox="0 0 124 111" style="enable-background:new 0 0 124 111;" xml:space="preserve">
<style type="text/css">
	.st0{clip-path:url(#XMLID_7_);fill:#3C3C3B;}
</style>
<g id="XMLID_2_">
	<defs>
		<rect id="XMLID_3_" x="-0.2" width="124.5" height="111.4"/>
	</defs>
	<clipPath id="XMLID_7_">
		<use xlink:href="#XMLID_3_"  style="overflow:visible;"/>
	</clipPath>
	<path id="XMLID_4_" class="st0" d="M62.4,39.3C62,55.2,41.7,58,34.6,47.8c-6.5-9.3-1.1-22.7,10.4-24c5.4-0.6,10.1,1.5,12.8,4.1
		C59.7,29.7,62.5,34.2,62.4,39.3 M200.2,126.6c-6.3-0.6-12.6-1.4-18.1-2c-17-1.9-32-4-46.9-6.9c-17.3-3.4-28.4-12.1-37.5-24
		C87.3,79.9,82.3,64.1,75,47.2c-3.5-8-7.4-16.2-13-21.7c-4.3-4.2-10.3-7.6-19.1-6.5c-7.1,0.9-12.9,4.9-17.7,8.5
		c-1.3,1-4.4,2.9-4.5,4.1c-0.1,1.1,1.4,3.5,2,4.7c0.9,1.9,1.7,3.5,2.2,4.7c2.5,7.3,1.8,16.1-0.4,23.3c-1.8,5.9-4.7,13.9-4.9,22.1
		c-0.5,16.9,7.4,30,16.4,37.5c2.4,2,8.2,6.3,11,6.3h155.9c2.7-0.1,2.8-0.2,2.8-1.4C205.6,127.2,201.9,126.8,200.2,126.6"/>
</g>
</svg>
