<?xml version="1.0" encoding="utf-8"?>
<!-- Generator: Adobe Illustrator 19.0.0, SVG Export Plug-In . SVG Version: 6.00 Build 0)  -->
<svg version="1.1" id="Layer_1" xmlns="http://www.w3.org/2000/svg" xmlns:xlink="http://www.w3.org/1999/xlink" x="0px" y="0px"
	 viewBox="0 0 111 111" style="enable-background:new 0 0 111 111;" xml:space="preserve">
<style type="text/css">
	.st0{fill:#404042;}
</style>
<path id="XMLID_2_" class="st0" d="M52.8,33.6c-1.4,1.4-3.5,4.9-3.5,8.7c0.3,12.1,15.7,14.3,21.2,6.5c4.9-7.1,0.8-17.3-8-18.3
	C58.4,30,54.8,31.6,52.8,33.6 M111,56.3c0-30.6-24.8-55.4-55.4-55.4C24.9,0.8,0.1,25.7,0.1,56.3c0,13.9,5.1,26.6,13.6,36.3
	c2.7-2.4,5.1-5.2,7.4-8.2c8.3-11,12.3-23.7,18.1-37.2c2.8-6.4,5.9-12.9,10.4-17.3c3.4-3.4,8.3-6.1,15.3-5.2
	c5.7,0.7,10.3,3.9,14.2,6.8c1,0.8,3.5,2.3,3.6,3.3c0.1,0.9-1.1,2.8-1.6,3.8c-0.7,1.5-1.4,2.8-1.7,3.8c-2,5.9-1.4,12.9,0.3,18.6
	c1.4,4.7,3.8,11.2,3.9,17.7c0.4,13.5-5.9,24-13.1,30c-0.5,0.4-1.2,1-2,1.6C92.9,104.3,111,82.4,111,56.3"/>
</svg>
