<?xml version="1.0" encoding="utf-8"?>
<!-- Generator: Adobe Illustrator 19.0.0, SVG Export Plug-In . SVG Version: 6.00 Build 0)  -->
<svg version="1.1" id="Layer_1" xmlns="http://www.w3.org/2000/svg" xmlns:xlink="http://www.w3.org/1999/xlink" x="0px" y="0px"
	 viewBox="0 0 45 45" style="enable-background:new 0 0 45 45;" xml:space="preserve">
<style type="text/css">
	.st0{clip-path:url(#SVGID_2_);fill:#3C3C3B;}
</style>
<g>
	<defs>
		<rect id="SVGID_1_" y="0.2" width="44.8" height="44.8"/>
	</defs>
	<clipPath id="SVGID_2_">
		<use xlink:href="#SVGID_1_"  style="overflow:visible;"/>
	</clipPath>
	<path class="st0" d="M44.8,22.6c0-12.4-10-22.4-22.4-22.4C10,0.2,0,10.2,0,22.6C0,35,10,45,22.4,45C34.8,45,44.8,35,44.8,22.6
		 M33.5,31.1c0,1.4-1.1,2.6-2.6,2.6H13.9c-1.4,0-2.6-1.1-2.6-2.6V14.1c0-1.4,1.1-2.6,2.6-2.6h17.1c1.4,0,2.6,1.1,2.6,2.6V31.1z
		 M30.9,30.3v-9.4H29c0.1,0.5,0.2,1.1,0.2,1.7c0,3.8-3.1,6.8-6.8,6.8c-3.8,0-6.8-3.1-6.8-6.8c0-0.6,0.1-1.2,0.2-1.7h-1.9v9.4
		c0,0.5,0.4,0.9,0.9,0.9h15.4C30.6,31.1,30.9,30.7,30.9,30.3 M30.9,17.5v-2.6c0-0.5-0.4-0.9-0.9-0.9h-2.6c-0.5,0-0.9,0.4-0.9,0.9
		v2.6c0,0.5,0.4,0.9,0.9,0.9h2.6C30.6,18.3,30.9,17.9,30.9,17.5 M26.7,22.6c0-2.4-1.9-4.3-4.3-4.3c-2.4,0-4.3,1.9-4.3,4.3
		c0,2.4,1.9,4.3,4.3,4.3C24.8,26.8,26.7,24.9,26.7,22.6"/>
</g>
</svg>
