<?xml version="1.0" encoding="utf-8"?>
<!-- Generator: Adobe Illustrator 19.0.0, SVG Export Plug-In . SVG Version: 6.00 Build 0)  -->
<svg version="1.1" id="Layer_1" xmlns="http://www.w3.org/2000/svg" xmlns:xlink="http://www.w3.org/1999/xlink" x="0px" y="0px"
	 viewBox="0 0 200 200" style="enable-background:new 0 0 200 200;" xml:space="preserve">
<style type="text/css">
	.st0{clip-path:url(#XMLID_209_);}
	.st1{clip-path:url(#XMLID_210_);fill:#C1936E;}
	.st2{opacity:0.35;clip-path:url(#XMLID_211_);}
	.st3{clip-path:url(#XMLID_212_);fill:#E4D0AA;}
</style>
<g id="XMLID_2_">
	<defs>
		<rect id="XMLID_3_" x="0" y="0.1" width="200.7" height="199.8"/>
	</defs>
	<clipPath id="XMLID_209_">
		<use xlink:href="#XMLID_3_"  style="overflow:visible;"/>
	</clipPath>
	<g id="XMLID_166_" class="st0">
		<defs>
			<rect id="XMLID_167_" x="0" y="0.1" width="200.7" height="199.8"/>
		</defs>
		<clipPath id="XMLID_210_">
			<use xlink:href="#XMLID_167_"  style="overflow:visible;"/>
		</clipPath>
		<path id="XMLID_171_" class="st1" d="M32.4,150.2l-0.1,0.2l2.8,3.1l2.2,2.6l-3,2.7l-2.2,1.9l-4-4.6l-0.9,0.6l0,0.2l1.9,2.1
			l2.1,2.5l-4.8,4.1l-2.3-2.6l-2.5-3l-0.9,0.6l0,0.2l5.8,6.7l8.8-7.7l3.9-3.3l-5.8-6.7L32.4,150.2z M45.4,172.5l-5,6l-2.3-1.8
			c-1.8-1.6-2.1-3.4-0.6-5.2c1.4-1.7,3.3-2.2,5.3-1.2L45.4,172.5z M42.6,169c-2.4-0.8-4.6-0.2-6.2,1.7c-1.9,2.4-1.6,4.8,0.8,6.8
			l3.5,2.8l7.4-9.1l3.3-3.9l-1.1-0.9l-3.3,4l-0.9,1.1l-2.6-2.1c0.4-2.6,0.7-5.2,0.9-7.9l-0.1-0.2c-0.4-0.2-0.7-0.4-1.1-0.5l-0.1,0.1
			C43.1,163.7,42.9,166.4,42.6,169 M55.3,175.9l-6.1,9.9l1.2,0.7l6-10.1l2.7-4.3l-1.2-0.7L55.3,175.9z M64.1,180.6l-4.3,10.8
			l1.3,0.5l2.8-7.2l4.6,1.8l4.5,1.8l-2.9,7.1l1.3,0.5l4.2-10.9l1.9-4.7l-1.3-0.5l-1.9,4.8l-1,2.5l-4.4-1.7l-4.7-1.9l1-2.6l1.9-4.7
			l-1.3-0.5L64.1,180.6z M85.2,198.8c3,0.5,5.4-1.2,5.7-3.6c0.7-4.8-7.1-5.4-6.5-9.3c0.3-1.6,1.9-3.1,4.3-2.7
			c1.2,0.2,2.7,0.9,3.7,2.1l0.2-0.1l0.4-1.4c-1.1-1-2.7-1.6-4-1.8c-3.1-0.5-5.6,1.3-6,3.7c-0.7,4.8,7.1,5.5,6.5,9.2
			c-0.2,1.5-1.8,2.9-4.1,2.6c-1-0.1-2.1-0.6-3-1.4l-0.3,0l-0.4,1.2C83.1,198.3,84.3,198.7,85.2,198.8 M97.4,199.7l0.1,0.2l11.2-0.3
			l0.1-1.1l-0.1-0.2l-2.9,0.1l-2.1,0l-0.3-10.6l0-5.1l-1.4,0l0.2,5.2l0.2,10.5l-2.1,0l-2.8,0L97.4,199.7z M110.7,183.5l0.2,0.1
			l6.4-1.1l0.7,3.9l1.9,11.5l1.4-0.2l-2.1-11.5l-0.8-5l-7.7,1.4L110.7,183.5z M127.4,183.9l3.4,11.1l1.3-0.4l-3.5-11.2l-1.4-4.9
			l-1.3,0.4L127.4,183.9z M137.8,174.2l2.9,17.7l1.2-0.7l-0.4-1.4l-2.4-14.4l0.1-0.1l10.9,9.5l1.1,1.1l1.2-0.7l-3.5-3l-1.9-11.4
			l0.1-0.1l10.9,9.6l1,1.1l1.2-0.7L147,168.9l-1.2,0.7l1.9,11.2l-0.1,0.1l-8.5-7.4L137.8,174.2z M164.6,160.1l9.3,7.7l0.7-1.1
			l-11.1-9.2l0.1-0.1l17.3,1.8l0.9-1.1l-9.2-7.5l-3.8-3.2l-0.8,1l4.2,3.4l7,5.8l-0.1,0.1l-17.3-1.8l-0.9,1.1L164.6,160.1z
			 M177.2,143.3l10,5.9l0.7-1.2l-10.2-5.8l-4.4-2.6l-0.7,1.2L177.2,143.3z M181.4,129.2l1.1-4l0.9-2.8l2.5,0.7l1.7,0.6l-0.8,2.6
			l-1,2.8l2.5,1l0.3-0.1l0.7-2.7l0.9-2.8l3.9,1.3l-0.9,2.9l-1.3,3.8l2.5,1l0.3-0.1l3.2-10.2l-11.4-3.4l-4.8-1.7l-3.2,10.1l2.5,1
			L181.4,129.2z M185.9,105.4c0-0.5,0.2-2,0.4-3l2.6,0.1l8.7,0.8c0,1-0.1,2.5-0.1,3c-0.2,2.8-2.1,4-6.2,3.7
			C187.3,109.7,185.7,108,185.9,105.4 M200.7,100l-11.9-0.7l-5-0.6c-0.2,1.7-0.5,4.6-0.6,5.9c-0.4,5.5,2.6,8.8,8.6,9.2
			c5.1,0.4,8.1-2.1,8.5-7L200.7,100z M189.2,87.6l-0.4-2.3l-0.3-2.2l7.3,1.2l0,0.2L189.2,87.6z M183.5,93.7l16-7.7l-0.6-4.2
			l-17.6-3.1l0.5,3.5l2.4,0.1l1.4,0.2l0.5,2.9l0.4,3.3l-1.5,0.7l-2.1,0.7L183.5,93.7z M180.1,75l15-8l-1.6-3.7l-2.6,0.3l-8.5,0.5
			l-0.1-0.2l6.3-5.6l2-1.6l-1.6-3.8l-16.3,5l1.2,2.8l5.2-1.8l6-1.8l0.1,0.2l-7.7,7l1.1,2.5l10.6-0.3l0.1,0.2l-5.8,3.1l-4.6,2.2
			L180.1,75z M167.5,46.6c-0.3-0.4-1.2-1.6-1.7-2.5l2-1.7l6.9-5.3c0.6,0.7,1.6,1.8,1.9,2.3c1.8,2.2,1.2,4.4-2.1,6.9
			C171.4,48.8,169.1,48.6,167.5,46.6 M174.7,32.5l-9.2,7.5l-4.1,3c1,1.4,2.7,3.7,3.5,4.8c3.4,4.3,7.9,4.7,12.6,0.9
			c4-3.2,4.6-7,1.5-10.9L174.7,32.5z M159.9,34.2l7.4-9.1l-2.7-1.9l-6.9,9l-0.2-0.1l1.7-13.3l-3-2.4l-7.2,9.5l-3.2,3.8l2.6,2
			l3.5-4.7l3.5-4.4l0.2,0.1L153.7,36l3,2.4L159.9,34.2z M139.5,19.1l-2.1-0.9l-2-1l5.1-5.3l0.2,0.1L139.5,19.1z M141.4,27.3
			l2.7-17.5l-3.8-1.8l-12.5,12.8l3.2,1.5l1.4-2l1-1.1l2.7,1.2l3,1.5l-0.3,1.6l-0.6,2.2L141.4,27.3z M124.1,14.3L126.6,3L123,2.2
			l-1.3,6.9l-3.5-0.6l-3.5-0.8l1.5-6.8l-3.6-0.7l-2.2,11.7l-1.2,4.9l3.5,0.7l0.9-5.3l0.4-1.6l3.4,0.6l3.8,0.8l-0.4,1.9l-1.2,4.9
			l3.5,0.7L124.1,14.3z M87.3,15.4c-2.2,0.3-3.8-0.6-4-2.4c-0.1-1,0.3-2,1.1-2.8l5.8,4C89.5,14.8,88.5,15.2,87.3,15.4 M93.4,7.7
			l3.5-0.4l0-2.2l-0.2-0.2l-7.5,0.9l0,2.2l0.2,0.2L90.9,8c0.4,0.6,0.6,1.3,0.7,2.1c0.1,0.6,0.1,1.2,0,1.8l-6.1-4.3
			c-1.2-0.8-1.7-1.4-1.8-2.3C83.5,4,84.2,3.2,85.8,3c1-0.1,2.1,0.1,3.2,0.5l0.4-0.1l0.5-2.6c-1.4-0.4-2.9-0.4-4.4-0.3
			c-3.6,0.4-5.3,2.3-5,4.9c0.2,1.4,0.9,2.5,2.2,3.5l0,0.2c-1.8,1.1-2.7,2.7-2.4,4.7c0.4,3,3.1,4.4,6.9,3.9c2.1-0.3,3.8-1,5-2.2
			l3.3,2.3l0.2,0c0.7-0.5,1.2-1.1,1.7-1.8l0-0.2l-3.8-2.7c0.3-0.9,0.4-2,0.3-3.1c-0.1-0.8-0.3-1.5-0.6-2.3L93.4,7.7z M62.6,22.7
			c-0.5,0.2-1.8,0.8-2.8,1.2l-1.2-2.3l-3.6-7.9c0.8-0.5,2.1-1.2,2.6-1.4c2.6-1.2,4.5-0.2,6.3,3.5C65.6,19.4,65,21.6,62.6,22.7
			 M50.5,12.6l5.3,10.6l2,4.6c1.6-0.7,4.2-1.8,5.4-2.4c4.9-2.4,6.3-6.7,3.6-12.1c-2.2-4.6-5.9-6-10.3-3.8L50.5,12.6z M51.8,28.5
			l-3.3,2.6l-2.4,1.8l-1.6-2l-1.1-1.5l2.2-1.6l2.4-1.7l-1.4-2.3l-0.3-0.1l-2.2,1.7l-2.4,1.7l-2.4-3.3l2.4-1.9l3.3-2.3l-1.4-2.3
			l-0.3-0.1l-8.6,6.4l7.3,9.4l2.9,4.2l8.5-6.4l-1.4-2.3L51.8,28.5z M36.2,38.5l-8.9-7.6l-1.9,2.7l8.8,7.1l-0.1,0.2l-13.2-2l-2.4,3
			l9.3,7.5l3.7,3.3l2.1-2.5l-4.6-3.6l-4.3-3.6l0.1-0.2l13.2,2l2.4-3L36.2,38.5z M10.9,54.1c-2.6,5-1.2,9.3,4,12
			c4.7,2.4,8.6,1.5,11-3.3c0.8-1.6,1.4-3.4,1.7-5.7L24,55.4l-2-1.1l-1.3,3l2.3,1.1l1.3,0.7c-0.2,1-0.4,1.5-0.7,2.2
			c-1.5,2.8-3.4,3.3-7.1,1.4c-3.8-2-4.7-4-3.3-6.7c0.7-1.4,1.6-2.3,3.3-3.3l0.1-0.3l-2.5-2.1C12.8,51.2,11.7,52.5,10.9,54.1
			 M15.7,73.5l-11-3.6l-1.1,3.5L15,76.7l4.8,1.7l1.1-3.4L15.7,73.5z M0.9,85.6c-0.6,3.7,1.3,6.5,4.2,7c4.9,0.8,5.7-6.6,8.6-6.2
			c1,0.1,1.8,1.1,1.5,2.7c-0.2,1.2-1.1,2.9-2.6,4.2l0.1,0.4l3.2,1c1-1.5,1.6-3.2,1.8-4.8c0.6-3.8-1.3-6.7-4.2-7.1
			C8.7,82,7.8,89.4,5.1,89c-0.9-0.1-1.7-1.1-1.5-2.6c0.2-1,0.9-2.3,1.9-3.4l-0.1-0.6l-3-1C1.5,83,1.1,84.4,0.9,85.6 M14,98.9
			l0.4,4.2l0.1,3l-2.5,0.2l-1.8,0.1l-0.2-2.7l-0.1-3l-2.7-0.1L7,100.7l0.2,2.8l0.1,2.9l-4.1,0.1l-0.2-3l-0.1-4.1l-2.7-0.1L0,99.5
			l0.5,10.7l11.9-0.8l5.1-0.1l-0.5-10.6l-2.7-0.1L14,98.9z M17.6,122.8c0.1,0.5,0.4,2,0.6,3l-2.5,0.7l-8.5,2
			c-0.3-0.9-0.7-2.3-0.9-2.8c-0.7-2.8,0.7-4.5,4.7-5.5C14.9,119.2,17,120.3,17.6,122.8 M5.3,132.7l11.5-3.1l4.9-1.1
			c-0.3-1.7-1-4.5-1.3-5.8c-1.4-5.3-5.3-7.4-11.1-6c-5,1.3-7,4.6-5.8,9.4L5.3,132.7z M21.2,144.7c0.4,0.8,1.2,1,1.9,0.6
			c0.7-0.4,1-1.1,0.6-1.8c-0.4-0.7-1.2-0.9-1.9-0.5C21.1,143.3,20.9,144,21.2,144.7"/>
		<path id="XMLID_168_" class="st1" d="M96.5,70.3c-1.9,1.9-4.8,6.5-4.7,11.7c0.4,16.3,21.2,19.2,28.5,8.7
			c6.6-9.5,1.1-23.3-10.7-24.7C104.1,65.4,99.2,67.5,96.5,70.3 M175,100.9c0-41.3-33.5-74.7-74.7-74.7c-41.3,0-74.7,33.5-74.7,74.7
			c0,18.8,6.9,35.9,18.3,49c3.6-3.3,6.9-7,10-11c11.2-14.8,16.6-32,24.4-50.2c3.7-8.6,8-17.4,14-23.4c4.6-4.6,11.2-8.2,20.6-7
			c7.7,0.9,13.9,5.2,19.1,9.1c1.4,1,4.7,3.1,4.9,4.5c0.1,1.2-1.5,3.8-2.1,5.1c-0.9,2.1-1.9,3.7-2.3,5.1c-2.7,7.9-1.9,17.4,0.4,25.1
			c1.9,6.4,5.1,15,5.3,23.8c0.5,18.2-8,32.3-17.6,40.4c-0.7,0.6-1.6,1.3-2.7,2.1C150.7,165.5,175,136.1,175,100.9"/>
	</g>
	<g id="XMLID_4_" class="st0">
		<defs>
			<path id="XMLID_5_" d="M96.5,70.3c-1.9,1.9-4.8,6.5-4.7,11.7c0.4,16.3,21.2,19.2,28.5,8.7c6.6-9.5,1.1-23.3-10.7-24.7
				c-0.7-0.1-1.4-0.1-2-0.1C103,65.9,98.9,67.9,96.5,70.3 M25.5,100.9c0,18.8,6.9,35.9,18.3,49c3.6-3.3,6.9-7,10-11
				c11.2-14.8,16.6-32,24.4-50.2c3.7-8.6,8-17.4,14-23.4c4.6-4.6,11.2-8.2,20.6-7c7.7,0.9,13.9,5.2,19.1,9.1c1.4,1,4.7,3.1,4.9,4.5
				c0.1,1.2-1.5,3.8-2.1,5.1c-0.9,2.1-1.9,3.7-2.3,5.1c-2.7,7.9-1.9,17.4,0.4,25.1c1.9,6.4,5.1,15,5.3,23.8
				c0.5,18.2-8,32.3-17.6,40.4c-0.7,0.6-1.6,1.3-2.7,2.1c32.8-7.9,57.1-37.4,57.1-72.6c0-41.3-33.5-74.7-74.7-74.7
				C59,26.1,25.5,59.6,25.5,100.9"/>
		</defs>
		<clipPath id="XMLID_211_">
			<use xlink:href="#XMLID_5_"  style="overflow:visible;"/>
		</clipPath>
		<g id="XMLID_8_" class="st2">
			<g id="XMLID_9_">
				<defs>
					<rect id="XMLID_10_" x="-96.4" y="-116.9" width="288.9" height="320.9"/>
				</defs>
				<clipPath id="XMLID_212_">
					<use xlink:href="#XMLID_10_"  style="overflow:visible;"/>
				</clipPath>
				<path id="XMLID_165_" class="st3" d="M184.4,138.3c0.3,1,2.3,1.5,3.8,1.8c1.1,0.2,2.3,0.3,3.4,0.5V140c-0.4-0.1-0.8-0.2-1.3-0.2
					c-1.6-0.2-4.9-0.5-4.8-1.7c0-0.7,2.2-1.2,3.2-1.4c1-0.2,1.9-0.4,2.9-0.5v-0.6c-0.4,0-0.8,0.1-1.1,0.1
					C188.3,136,184,136.7,184.4,138.3"/>
				<path id="XMLID_164_" class="st3" d="M181.6,134.3c-2,0.5-4,1-6.1,1.3c-2.1,0.3-4.1,0.2-6.2,0.3c-1.5,0.1-3.1,0.7-3.6,1.6
					c-0.6,0.9,0,1.8,1.1,2.5c0.7,0.4,1.8,0.7,2.8,0.9c0.5,0.1,1,0.1,1.5,0.3c0.5,0.1,1,0.2,1.5,0.3c0.4,0,0.7,0.1,1.1,0.2
					c0.6,0.1,1.3,0.2,2,0.3c0.8,0.1,1.6,0.1,2.4,0.2c1.3,0.2,2.6,0.4,3.9,0.7c3,0.6,6,1.1,9.2,0.9c0.1,0,0.3,0,0.4,0v-0.5
					c-1.4,0.1-2.7,0.1-4.1,0c-1.7-0.1-3.3-0.5-4.9-0.7c-0.5-0.1-1-0.2-1.5-0.3c-0.6-0.1-1.3-0.1-1.9-0.2c-1.3-0.2-2.5-0.5-3.9-0.5
					c-0.8,0-1.5-0.2-2.3-0.3c-0.5-0.1-1-0.1-1.4-0.2c-0.7-0.1-1.3-0.3-1.9-0.5c-1.2-0.3-2.3-0.6-3-1.2c-0.9-0.9-0.2-1.9,1.2-2.4
					c1.2-0.5,2.7-0.4,4.1-0.4c1.4,0,2.8-0.1,4.2-0.3c2.8-0.4,5.4-1.2,8.1-1.7c2.4-0.5,4.9-0.5,7.4-0.7V133c-1.2,0.1-2.5,0.1-3.7,0.2
					C185.6,133.4,183.6,133.8,181.6,134.3"/>
				<path id="XMLID_163_" class="st3" d="M165.1,130.4c-3.7,0.6-7.2,1.3-10.9,1.8c-3.7,0.5-8.7,1.3-12.5,1.6
					c-5,0.4-8.7,0.3-13.7,0.4c-3-0.1-6.2-0.1-8.7-0.2c-6.7-0.3-11.9-0.3-18.6-0.3c-6.7,0-13.3-0.1-20-0.5c-6.5-0.4-13-0.8-19.6-0.7
					c-6.6,0-13.2,0.4-19.8,0.3c-3.4,0-6.7-0.2-10-0.3c-3.4,0-6.7,0-10.1-0.1c-6.7-0.1-13.2-0.6-19.8-1.3c-2.9-0.3-5.8-0.7-8.6-1.1
					c-0.1,0-0.2,0-0.2,0c-0.2,0-0.3,0-0.5,0c-2.1-0.3-4.3-0.6-6.4-0.8c-2.9-0.5-5.3-1-8.6-1.5c-5.5-0.8-10.8-2.1-16.4-2.7
					c-10-1.2-21.1-1.3-32.1,1.1c-4.2,0.4-8.4,0.8-12.6,1.2c-3.8,0.4-7.6,0.6-11.4,0.8v0.8c1.2-0.1,2.4-0.1,3.6-0.2
					c12.5-0.7,24.7-2.8,37.4-2.7c3.3,0,6.6,0.2,9.8,0.6c3,0.3,5.9,1,8.7,1.7c5.8,1.4,11.8,2.3,18,3.1c7.7,0.9,15.4,1.6,23.2,2.2
					c7.1,0.6,13.8,1.1,21,1.2c3,0.1,4.7-0.1,8.5-0.1c4,0,11.1-0.2,15.2-0.2c2.9,0,5.7,0.1,8.4,0.3c-3,0-6.1,0-9.1,0.1
					c-5.1,0.2-10.2,0.2-15.2,0.6c-4.3,0.3-8.6,0.3-13,0.3c-4.7,0-9.3,0.1-14,0c-6.8-0.1-13.4-0.6-20.1-1.5c-6.4-0.9-12.8-1.9-19-3
					c-5.9-1.1-11.8-2-18-2.5c-6.4-0.5-13.1-0.4-19.6-0.4c-6.6,0-13.2,0.1-19.8,0.6c-2,0.1-4,0.3-6,0.5v0.5c4.7-0.5,9.5-0.8,14.2-0.9
					c6.6-0.1,13.2-0.2,19.8-0.1c3.3,0,6.6,0.1,9.8,0.3c3.2,0.2,6.4,0.5,9.5,1c6.2,0.9,12.2,2.1,18.4,3c6.3,1,12.6,2,19.1,2.5
					c6.5,0.6,13.1,0.6,19.7,0.5c11.4-0.1,22.4-0.4,33.6-1.1c5.2-0.3,11.1,0,16,0.1c5.3,0.2,10.6,0.3,15.9,0.1c0.4,0,0.4-0.3,0-0.3
					c-2.7-0.1-5.3-0.2-8-0.2c-7.8-0.4-16-1.1-23.9-1.1c-4,0-7.7,0.3-11.7,0.3c-9.4,0.1-18.7-0.4-28-1.1c-6.7-0.5-13.4-1.1-20-1.8
					c-6.2-0.7-12.3-1.5-18.3-2.5c-3-0.5-5.8-1.3-8.7-1.9c-2.9-0.7-5.8-1.1-8.9-1.4c-7.3-0.6-14.5-0.3-21.7,0.3
					c10.1-1.6,20.9-1.6,31-0.1c5.4,0.8,10.4,2.1,15.8,2.9c4.1,0.6,7.7,1.2,12.3,1.7c0.1,0,0.2,0,0.3,0c3.2,0.5,6.4,0.9,9.7,1.3
					c6.3,0.8,12.7,1.4,19.1,1.5c3.4,0.1,6.7,0.1,10.1,0.1c3.4,0,6.7,0.2,10,0.3c6.6,0.2,13.3-0.1,19.9-0.2
					c6.6-0.1,13.1,0.3,19.6,0.7c6.6,0.4,13.2,0.6,19.9,0.6c5,0,10.2-0.3,15.2-0.1c4.8,0.2,9.6,0.6,14.4,0.6c9.6,0,19.4-1.1,28.7-2.6
					c3.1-0.5,6.1-1.1,9.2-1.6c3-0.5,6.1-0.8,9.2-1.1c5.2-0.5,10.5-0.7,15.7-1V128c-2.7,0.1-5.4,0.3-8.1,0.4
					C177.3,128.8,171.1,129.4,165.1,130.4"/>
				<path id="XMLID_162_" class="st3" d="M159.8,134c-3.5,0.5-9.5,1.1-14.2,1.5c-2.4,0.1-4.8,0.3-7.2,0.5c-2.9,0.2-5.9,0.2-8.9,0.2
					c-3.2,0.1-6.4,0.5-9.7,0.8c-1,0-2,0-3.1,0c-3.4,0-6.8-0.2-10.2-0.5c-3.2-0.3-6.4-0.6-9.7-0.6c-3.3,0-6.6,0.2-9.9,0.3
					c-6.7,0.2-13.5,0-20.2,0c-4.3,0-8.5-0.1-12.8,0c-4.3,0-8.5,0.2-12.7,0.5c-8.1,0.4-16.2,0.9-24.3,1.5c-2.8,0.2-5.6,0.4-8.5,0.6
					c-3.1,0.2-6.2,0.4-9.3,0.8c-3,0.4-5.9,1.1-8.7,1.8c-5.7,1.3-11.3,2.7-17.2,3.7c-6.1,1.1-12.3,1.5-18.6,2
					c-6.5,0.4-13.2,0.7-19.7,0.2c-3.1-0.2-6.2-0.6-9.4-0.7c-3.3-0.2-6.5-0.2-9.8-0.3c-3.3-0.1-6.6-0.2-9.8-0.3c-0.4,0-0.9,0-1.3,0
					v0.7c5.7,0.2,11.4,0.4,17,0.5c3.3,0.1,6.6,0.2,9.8,0.6c3.2,0.3,6.4,0.5,9.6,0.6c6.4,0.1,12.8-0.4,19.1-0.9
					c3.1-0.2,6.1-0.5,9.2-0.9c3-0.4,5.9-1,8.8-1.5c5.8-1.2,11.4-2.6,17.2-3.8c2-0.4,4-0.8,6.1-1c2.3-0.3,4.7-0.4,7.1-0.6
					c2.3-0.2,4.5-0.3,6.8-0.5c2.9-0.2,5.5-0.5,8.4-0.6c4.1-0.1,8.2-0.5,12.3-0.7c6.9-0.3,13.7-0.5,20.6-0.5c6.8,0,13.6,0,20.4-0.1
					c3.4,0,6.7,0,10.1-0.1c3.3-0.1,6.6-0.2,9.9-0.2c3.8,0,7.6,0.5,11.4,0.8c1.3,0,2.6,0,3.9,0c5.8,0.7,11.6-0.4,17.3-0.6
					c4.1-0.2,8.1-0.4,12.2-0.6c8.7-0.4,17.2-1.4,25.5-2.8c6.3-1.1,12.5-2.2,18.9-2.9c1.8-0.2,3.6-0.4,5.4-0.6v-0.5
					c-4.4,0.4-8.7,0.9-13,1.6C172.2,131.9,166.1,133.2,159.8,134"/>
				<path id="XMLID_158_" class="st3" d="M71.6,152.1c6.4,0.5,12.9,0.4,19.4,0.3c6-0.1,12.6-0.5,18.4,0.4c1.9,0.3,3.9,0.2,5.8,0.3
					c0.9,0.1,1.7,0.3,2.5,0.5c-0.2,0.4-1.3,0.8-1.9,1c-2,0.7-4.6,0.9-6.9,1.1c-2.6,0.3-4.9,0.7-7.3,1.3c-3,0.7-6.1,1.4-9.2,1.9
					c-3.1,0.5-6.2,0.9-9.3,1.5c-3,0.5-6,1-8.9,1.5c-6,1-12.2,1.8-18.5,2c-6.8,0.3-13.7,0-20.5-0.2c-6.9-0.2-13.9-0.5-20.8-0.7
					c-6.8-0.2-13.6-0.2-20.4-0.1c-3.9,0-7.7,0-11.5-0.3c-2.7-0.2-5.3-0.4-8-0.5c-2.8-0.1-5.6-0.2-8.4-0.5c-1.9-0.2-4.1-0.5-5.8-1.1
					c2.2-0.7,4.7-1.3,7.1-1.8c2.9-0.6,5.8-1,8.8-1.4c6.1-0.8,12.2-1.3,18.3-1.9c0.9-0.1,1.8-0.2,2.6-0.3c-0.1,0-0.1,0-0.2,0
					c-2.5,0.4-5,1-7.5,1.3c-4.3,0.6-9.3,0.8-12.9,2.3c-0.3,0.1-0.4,0.5,0.1,0.6c6.1,0.7,12.3,0.9,18.6,0.8c6.5,0,13-0.5,19.5-0.4
					c13.3,0.3,26.4,2,39.8,1.5c4.2-0.1,8.3-0.5,12.4-1c4.3-0.5,8.5-1.3,12.7-2c4.6-0.7,9.3-1.3,14-1.8c1.2-0.1,15-0.7,13.8-1.7
					c-0.9-0.7-2.6-0.8-4-0.8c-2-0.1-4,0.1-6,0.2c-2.7,0.1-5.4,0.1-8.1,0.1c-3.3,0.1-6.7,0.1-10,0.1c-6.6,0-12.9-0.8-19.3-1.7
					c-6.3-0.9-12.6-1.7-19.1-2.1c-5.5-0.3-11.1-0.2-16.6,0.3c2.7-0.4,5.5-0.7,8.3-0.9C45.7,148.9,58.5,151.2,71.6,152.1 M89.5,154.9
					c2.4-0.1,4.9,0,7.3-0.1c1.7-0.1,3.4-0.2,5.2-0.2c1,0,2.8-0.1,3.8,0.3c-2.5,0.8-6.6,0.7-9.4,0.9c-3.3,0.2-6.7,0.4-10,0.8
					c-3.3,0.4-6.5,0.8-9.7,1.3c-3.2,0.5-6.4,1.1-9.6,1.5c-6.3,0.8-12.8,1.2-19.3,1.2c-6.7,0-13.4-0.5-20-0.9
					c-4.3-0.3-8.6-0.5-12.8-0.6c-4.4-0.1-8.6,0.1-13,0.3c-7.9,0.3-16,0.2-23.8-0.5c3.8-1.3,8.7-1.5,12.8-2.1c3-0.4,5.9-1.1,8.9-1.6
					c3.3-0.6,6.6-1.1,9.8-1.7c6.2-1.1,12.6-2,19.1-2.3c6.5-0.3,13.1,0.1,19.5,0.7c5.5,0.6,10.9,1.4,16.3,2.1c5.5,0.7,10.8,1,16.4,1
					C83.9,155,86.7,154.9,89.5,154.9 M28.7,149.4c-6.5,0.7-12.8,1.8-19.1,2.8c-3.1,0.5-6.3,1.1-9.4,1.5c-3,0.5-6,0.8-9.1,1.1
					c-6.1,0.6-12.3,1.1-18.3,2c-2.6,0.4-5.1,0.8-7.6,1.4c-2.2,0.5-4.5,1.1-6.5,1.8c-0.4,0.1-0.5,0.4-0.1,0.6c2.8,1.5,7.3,1.7,11,2
					c2.2,0.1,4.4,0.2,6.5,0.3c2.2,0.1,4.4,0.3,6.6,0.5c6.5,0.4,13,0.2,19.5,0.2c6.9,0,13.9,0.2,20.8,0.5c6.9,0.2,13.9,0.5,20.8,0.7
					c6.5,0.1,13,0.1,19.4-0.6c6.1-0.6,12-1.7,17.9-2.7c6.2-1,12.4-1.9,18.5-3.2c2-0.5,4-1,6.1-1.4c1.7-0.3,3.6-0.4,5.4-0.6
					c2.6-0.3,6.5-0.8,7.6-2.4c0.8-1.2-3.2-1.3-4.4-1.4c-0.6,0-1.3,0-1.9,0c-2.8-0.3-5.7-0.5-8.5-0.6c-5.5-0.2-11-0.1-16.5-0.1
					c-3.3,0-6.6,0-10-0.1c-3.4-0.1-6.7-0.4-10.1-0.7c-6.5-0.6-12.9-1.4-19.5-1.8C41.5,148.7,35.1,148.8,28.7,149.4"/>
				<path id="XMLID_157_" class="st3" d="M163.5,142.1c-4.5-1.1-9.9-1.4-14.8-1.8c-1.4-0.1-2.8-0.4-4.3-0.5c-4.3-0.3-8.6-0.6-13-0.5
					c-6.8,0.1-13.5,0.9-20.2,0.5c-6.8-0.4-12.4,0.9-19.2,1.2c-3.3,0.1-6.4,0.1-9.7-0.1c-1.5-0.1-3.1-0.1-4.7,0
					c-1.8-0.1-4-0.1-5.9-0.2c0,0,0,0,0,0c0,0-0.1,0-0.1,0c-1.6-0.1-2.9-0.1-3.7-0.2c-3.2-0.2-6.5-0.1-9.7-0.2
					c-5.3-0.1-10.6-0.2-15.9-0.2c-5.5,0.1-10.7,0.7-16.1,1.3c-2.1,0.2-4.2,0.5-6.3,0.7c-1.7,0.3-3.3,0.7-5.1,0.9c-0.1,0-0.2,0-0.3,0
					c-2.6,0.5-5.2,1-7.9,1.2c-1.1,0.2-2.3,0.3-3.4,0.5c-0.3,0.1-0.7,0.1-1,0.2c-1.9,0.1-3.8,0.2-5.6,0.4c-6.7,0.5-13.3,1.2-19.6,2.7
					c-5.9,1.4-11.5,3.1-17.7,4c-3.1,0.5-6.1,0.6-9.3,0.4c-3.2-0.2-6.4-0.6-9.6-1.1c-6.5-0.9-13.1-1.3-19.8-1.4
					c-5.3-0.1-10.7-0.1-16-0.2v0.8c0.8,0,1.7,0,2.5,0.1c7.1,0.1,14.2,0.1,21.2,0.4c3.3,0.2,6.6,0.4,9.9,0.9c3.1,0.4,6.2,0.9,9.4,1.1
					c2.9,0.3,5.8,0.4,8.7,0.1c3.1-0.3,6.2-0.9,9.1-1.5c5.9-1.3,11.5-3.1,17.6-4.1c4.9-0.9,10.1-1.3,15.3-1.6c0,0,0,0,0,0
					c3.4-0.1,6.8-0.4,10.2-1c5-0.8,10.1-1.7,15.2-2.4c0,0,0.1,0,0.1,0c0.1,0,0.2,0,0.3,0c3.5-0.4,6.9-0.8,10.4-1
					c6.5-0.5,13.2-0.3,19.7-0.2c3.3,0.1,6.5,0.1,9.8,0.1c2.1,0,10.2,0.2,15.5,0.3c1.4,0.1,2.7,0.1,4.1,0.2c0,0,0,0,0,0c0,0,0,0,0,0
					c1.8,0.1,3.5,0.1,5.3,0.1c7,0,13.9-1.3,20.9-1.2c3.4,0,6.6,0.1,10,0c3.7-0.2,7.3-0.4,11-0.5c4.5-0.1,9,0.2,13.5,0.5
					c2.8,0.2,5.5,0.5,8.3,0.6c2.7,0.1,5,0.6,7.5,1c3.2,0.6,6.2,1.5,9.3,2.1c3.2,0.7,6.4,1.2,9.8,1.5c3.2,0.3,6.5,0.4,9.7,0.5
					c0.9,0,1.8,0.1,2.7,0.1v-0.7c-2.9-0.1-5.8-0.2-8.7-0.3c-4.6-0.3-8.9-0.9-13.2-1.8C167.6,143.2,165.5,142.7,163.5,142.1"/>
				<path id="XMLID_156_" class="st3" d="M165.7,127.7c-5.6,0.5-10.7,2-16.1,2.7c-7.7,1-15.7,1.5-23.6,1.4
					c-4.1-0.1-8.3-0.2-12.4-0.3c-8.1-0.3-16.1-0.7-24.2-1.2c-4.3-0.3-8.5-0.5-12.8-0.7c-4.3-0.2-8.6-0.2-12.9-0.2
					c-4.3,0-8.5-0.2-12.7-0.2c-4.1,0-8.2,0.2-12.3,0.4c-4.2,0.2-8.5,0.5-12.7,0.2c-3.9-0.3-7.7-1.1-11.6-1.3
					c-4.4-0.2-8.8,0-13.1-0.5c-4-0.5-7.8-1.1-11.7-1.8c-3.9-0.7-7.8-1.4-11.8-2c-4.1-0.6-8.2-1.1-12.4-1.5
					c-8.1-0.7-16.3-1.1-24.5-0.6c-5.5,0.3-10.8,1.2-16.1,2.1c-5.5,0.9-10.9,1.5-16.6,1.8c-1.2,0.1-2.3,0.1-3.5,0.2v0.7
					c6.1-0.2,12.3-0.6,18.2-1.5c3.8-0.6,7.6-1.3,11.5-1.8c4.2-0.6,8.4-0.8,12.6-0.8c8.4-0.1,16.9,0.6,25.1,1.6
					c8,0.9,15.7,2.6,23.6,3.8c4,0.6,7.9,1,12,1.1c2,0,4.1,0,6.2,0.1c2.2,0.1,4.4,0.4,6.6,0.7c3.9,0.5,7.7,0.9,11.7,0.8
					c4.1-0.1,8.2-0.4,12.4-0.6c4.2-0.2,8.4-0.1,12.6,0c4.3,0.1,8.5,0.1,12.8,0.2c11.9,0.1,23.6,1.2,35.4,1.8c9.4,0.5,18.7,1,28,0.6
					c5.1-0.2,10.2-0.6,15.2-1.3c5.7-0.7,11-2.2,16.7-2.9c5-0.6,9.6-1,15.1-1.3c3.7-0.1,7.5-0.2,11.2-0.4V126
					c-8.1,0.3-16.1,0.6-24,1.6C166.9,127.6,166.3,127.6,165.7,127.7"/>
				<path id="XMLID_155_" class="st3" d="M155.2,145.7c-1.7-0.2-3.3-0.6-5-0.8c-0.7-0.1-1.5-0.2-2.2-0.2c-3.1-0.6-6.4-1.2-7.8-1.4
					c-2.9-0.4-5.8-1-8.7-1.1c-3.4-0.2-6.8-0.2-10.1-0.1c-6.4,0.1-12.8,0.4-19.2,0.7c-6.6,0.3-13,1-19.5,1.4
					c-6.5,0.3-13,0.2-19.5,0.1c-6.5-0.1-13-0.4-19.5-0.3c-6.4,0.1-12.5,0.6-18.8,1.1c-9.8,0.9-19.8,1.2-29.4,2.7
					c-3.1,0.5-6.1,1.2-9,1.9c-0.9,0.1-1.8,0.2-2.7,0.3c-3.8,0.4-7.4,1.3-11,1.9c-3.6,0.6-7.2,1.2-10.9,1.6
					c-3.9,0.4-7.8,0.5-11.7,0.5c-8,0-15.9-0.2-23.9-0.4c-7.2-0.2-14.4,0-21.5-0.1v0.8c1.8,0,3.6,0,5.4,0c8.1,0,16.2,0.2,24.3,0.4
					c4,0.1,7.9,0.2,11.9,0.2c3.9,0,7.9,0.1,11.8-0.1c4.5-0.3,8.9-0.8,13.2-1.6c4.6-0.3,9-1.2,13.3-2.2c0.3-0.1,0.6-0.1,0.9-0.2
					c5.7-0.6,11.5-0.7,17.3-1.2c7.9-0.7,15.7-1.6,23.6-2.2c7.8-0.6,15.6-0.9,23.5-0.9c4.3,0,8.6,0.3,12.8,0.5
					c10.1,0.4,20.8,0.2,30.9-0.3c2.8-0.2,11.2-0.5,12.9-0.5c3-0.1,6.1-0.3,9.2-0.2c2.3,0.1,11.9,0.3,15.8,0.8
					c2.9,0.3,5.5,0.8,8.4,1.2c6.5,0.9,12.9,2,19.4,2.8c2.9,0.4,5.6,1,8.4,1.5c2.3,0.5,5.2,1,7.8,1.1c3.1,0.3,6.2,0.5,9.3,0.7
					c2.3,0.1,4.5,0.2,6.8,0.2v-0.8c-3.5,0-7.1-0.1-10.6-0.3c-0.9-0.1-3-0.2-5.7-0.5c-2.4-0.5-4.8-0.8-7.2-1.3c-3-0.6-6-1.3-9.1-1.7
					c-6.5-0.9-13-2-19.5-2.9c-3.1-0.4-6-0.7-9.2-1c-6.3-0.5-10.4-0.6-15.6-0.7c-2,0-9.7,0.2-11.7,0.4c-5.3,0.4-10.8,0.5-16.1,0.8
					c-2.6,0.1-13.9,0.4-17,0.3c-5.5-0.1-11-0.6-16.5-0.8c-3.9-0.1-7.7-0.1-11.6,0c-7.8,0.2-15.5,0.7-23.2,1.4
					c-7.9,0.7-15.7,1.7-23.7,2c-0.9,0-1.9,0.1-2.8,0.1c3-0.6,6.1-1.1,9.3-1.4c6.5-0.7,13.1-1,19.6-1.5c6.5-0.5,12.8-1.2,19.3-1.3
					c13-0.3,26,0.6,39,0.2c6.6-0.2,13-1,19.5-1.4c6.4-0.4,12.8-0.6,19.2-0.8c5.1-0.2,10.4-0.4,15.4,0.3c5.2,0.7,10.3,1.5,15.5,2.3
					c0.3,0,0.7,0.1,1,0.1c0.3,0.1,0.6,0.1,0.9,0.2c0.2,0,0.4,0,0.6,0.1c7.5,0.9,14.8,2.2,22.3,3.2c5.8,0.7,11.6,1.2,17.5,1.4v-0.7
					c-1,0-1.9-0.1-2.9-0.1c-6.2-0.3-12.3-0.9-18.3-1.7c-3.5-0.5-6.9-1-10.4-1.5C158.3,146,156.8,145.9,155.2,145.7"/>
				<path id="XMLID_152_" class="st3" d="M45.7,155c6.8,0.5,13.6,1,20.4,1c2.5,0,4.9,0,7.4,0.3c1.3,0.1,4.4,0.1,4.6,0.1
					c-2.3,0.6-5.7,0.5-8.4,0.7c-2,0.2-3.9,0.5-5.9,0.8c-3.1,0.4-6.1,0.6-9.3,0.6c-3.4-0.1-6.8-0.5-10.1-0.9
					c-6.6-0.7-13.2-1.2-19.9-1.3c-3.3-0.1-6.5,0.1-9.7,0.4c-3.2,0.3-6.5,0.7-9.8,0.8c-0.4,0-0.7,0-1.1,0c2.1-1.6,6.7-2,9.9-2.3
					c2.1-0.1,4.2-0.2,6.2-0.3c2-0.1,4.1-0.2,6.1-0.3C32.7,154.3,39.2,154.6,45.7,155 M29.4,153.7c-2.8,0.1-5.6,0.3-8.4,0.4
					c-2.3,0.1-4.7,0.2-7,0.4c-3.8,0.3-9.1,0.8-11.2,2.9c-0.2,0.2,0,0.3,0.4,0.4C9.6,158,16,157,22.4,157c6.8,0,13.6,0.6,20.3,1.2
					c3.2,0.3,6.5,0.7,9.8,0.8c3.1,0.2,6.1,0,9.1-0.3c2.1-0.2,4.1-0.6,6.1-0.9c1.5-0.2,2.9-0.5,4.4-0.6c1.5-0.1,3.4,0,4.9-0.3
					c2.9-0.6,4.3-0.6,5.9-1c-1.2-0.1-5.2,0.1-6,0c-1.5-0.1-3-0.3-4.4-0.4c-1.4-0.1-2.8-0.2-4.2-0.2c-1.5,0-7.6-0.3-9.3-0.4
					c-3.5-0.1-7-0.3-10.5-0.6C42.3,154,35.8,153.5,29.4,153.7"/>
				<path id="XMLID_151_" class="st3" d="M151.5,151c-3.4-0.5-7.1-1.5-10.7-1.7c-0.9-0.1-1.9-0.2-2.8-0.4c-3.1-0.4-6.3-0.5-9.5-0.7
					c-13.2-0.6-26.2,0.3-39.3,0.6c-6.5,0.2-13.1,0.1-19.6-0.1c-6.4-0.3-12.8-0.9-19.3-1.1c-6.6-0.3-13.1,0-19.6,0.4
					c-6.1,0.4-12.2,0.9-18.2,1.8c-4.6,0.7-9.3,1.3-14,1.9c-3.1,0.4-16.5,2.1-18.2,2.3c-3.9,0.3-7.8,0.6-11.7,0.9
					c-3.6,0.2-7.2,0.8-10.8,1.2c-4,0.4-8.1,0.8-12.2,0.9c-8.4,0.3-17-0.5-25.2-1.5c-5.1-0.6-10.5-0.9-15.9-1v0.6
					c5.8,0.1,11.5,0.4,17.1,1.2c7.9,1,15.9,1.7,24,1.5c7.6-0.2,15-1.3,22.5-2.1c3.9-0.4,8-0.6,11.9-1c1.7-0.2,3.4-0.4,5.1-0.6
					c1.4-0.2,7.4-1,9-1.2c1.9-0.2,9.4-1.2,11.2-1.4c5.9-0.7,11.7-1.6,17.7-2.1c6.7-0.6,13.6-1,20.3-1c6.4-0.1,12.9,0.5,19.2,0.9
					c6.6,0.5,13,0.9,19.7,0.8c6.5,0,12.9-0.3,19.3-0.6c13.1-0.6,26.5-0.9,39.5,0.6c3.3,0.6,7,1.3,10,1.8c4.2,0.7,8.5,1.2,12.7,1.7
					c3.8,0.4,7.6,0.6,11.4,0.9c3.3,0.2,6.8,0.7,10.1,0.6c2.1,0,4.1,0,6.2,0.1v-0.6c-2.2,0-4.5-0.1-6.7-0.1c-6.3-0.4-13.1-1-21.3-1.9
					C159.5,152.2,155.5,151.7,151.5,151"/>
				<path id="XMLID_150_" class="st3" d="M164.2,126.1c-11.6,1.6-19.8,2.1-28.7,2.3c-7.4-0.1-14.8-0.2-22.3-0.3
					c-8.1-0.1-16-0.6-23.9-1.3c-7.8-0.7-15.6-1-23.4-1.5c-7.9-0.4-15.7-0.6-23.6-0.7c-7.8-0.1-15.6-0.4-23.4-1
					c-7.7-0.6-15.3-1.5-23-2.4c-7.6-0.9-15.1-1.7-22.8-2.2c-7.8-0.5-15.6-0.6-23.4-0.3c-0.6,0-1.1,0.1-1.7,0.1
					c-5.3-0.3-10.8-0.5-16,0c-6.3,0.5-12.5,1-18.7,1.8c-2.9,0.4-5.8,0.5-8.7,0.6v0.5c2.6-0.1,5.1-0.3,7.6-0.6
					c6.1-0.5,12.7-1.1,18.6-1.6c3.7-0.3,7.3-0.4,11-0.3c-12.5,1-24.7,2.8-37.2,4v0.6c9.9-0.9,19.8-2.1,29.7-3
					c7.7-0.7,15.5-1.2,23.3-1.3c7.9-0.1,15.8,0.4,23.6,1.1c15.3,1.4,30.2,3.6,45.7,4.4c7.8,0.4,15.6,0.3,23.4,0.5
					c7.9,0.1,15.8,0.6,23.7,1c2.6,0.1,5.1,0.2,7.7,0.4c2.7,0.2,5.5,0.4,8.2,0.6c5.1,0.4,10.2,0.8,15.3,1c5.3,0.2,10.5,0.1,15.8,0.2
					c4.1,0,8.3,0.1,12.8,0c10.4-0.1,20.4-0.9,30.6-2.2c5.7-0.8,11.5-1.4,17.3-1.9c3.3-0.3,6.6-0.5,9.9-0.8v-0.6
					c-1.8,0.2-3.5,0.3-5.3,0.5C179.3,124.4,171,125.2,164.2,126.1"/>
				<path id="XMLID_147_" class="st3" d="M143.1,119.4c2.5,0.2,5,0.3,7.5,0.4c-1.8,0.2-3.7,0.4-5.5,0.6c-2.4,0.3-5.5,0.9-9.3,0.9
					c-3.2,0-6.3-0.4-9.4-0.9c-5.2-0.8-10.4-1.4-15.7-1.7c1.4-0.2,3-0.1,4.3-0.2c2.8-0.1,5.6-0.1,8.4-0.2
					C130,118,136.6,118.8,143.1,119.4 M170.7,118.3c-3.7,0.2-6.5,0.1-10.2,0.4c-6.8,0.5-13.3,0.5-20.1-0.2c-6.1-0.6-12.3-1-18.5-0.8
					c-2.8,0.1-5.6,0.2-8.4,0.3c-1.8,0.1-3.7,0.1-5.3,0.7c-0.4,0.2-0.2,0.5,0.2,0.5c6.4,0.3,12.5,1.3,18.7,2.3c6,1,11.5,0.7,17.4-0.3
					c6.3-1,12.6-1.2,19.1-1.5c3.2-0.2,6.4-0.3,9.6-0.6c1.6-0.1,3.1-0.3,4.6-0.6c1.1-0.2,4.3-0.7,4-0.8c-0.4-0.1-1.4-0.1-2-0.1
					c-1,0-2.3,0.3-3,0.3C175.1,118,172.6,118.2,170.7,118.3"/>
				<path id="XMLID_144_" class="st3" d="M130.4,119c1.1,0,2.2,0.3,3.2,0.4c1.4,0.1,7.7,0.6,7,0.9c-0.8,0.3-2.7,0.2-3.1,0.2
					c-2.3,0-3.6-0.3-5.8-0.6c-3.6-0.6-5.4-0.5-5.7-0.7C125.7,119,129.5,118.9,130.4,119 M125,118.9c-0.6,0-1.6-0.1-1.8,0
					c-0.4,0.3,0.6,0.5,0.9,0.5c1.2,0.2,2.6,0,3.8,0.2c1.8,0.3,3.6,0.7,5.4,1c1.8,0.3,3.7,0.3,5.6,0.2c0.8,0,3.9-0.4,3.4-0.7
					c-0.6-0.3-0.8-0.2-1.7-0.4c-0.9-0.2-1.3-0.3-2-0.4c-1.4-0.3-2.7-0.3-4.2-0.5c-2.1-0.2-3.8-0.2-6-0.2
					C127.4,118.7,125.2,118.9,125,118.9"/>
				<path id="XMLID_143_" class="st3" d="M123.9,104c-0.6,0-1.2-0.1-1.8-0.1c-13.2-1.6-30.3-0.7-45,0.3c-7.9,0.5-15.7,1.2-23.6,1.9
					c-4,0.4-8.1,0.7-12.1,0.8c-4,0.2-8,0.1-12,0.2c-5.2,0.1-10.4,0.5-15.6,1c0.1,0,0.3,0,0.4-0.1c-2.9,0.2-9.1,0.5-12,0.7
					c-5.6,0.4-8.9,0.4-14.5,0.7c-11.2,0.5-22-0.4-33.1-0.8c-5.4-0.2-10.9-0.1-16.4-0.2c-5.7-0.1-11.5-0.2-17.2-0.3
					c-5.5-0.1-10.5-0.2-16.4-0.2v0.8c1.6,0,3.3,0.1,4.9,0.1c3.8,0.1,7.7,0.1,11.5,0.2c5.7,0.1,11.5,0.3,17.2,0.3
					c5.7,0.1,11.4,0,17.2,0.2c5.4,0.2,10.7,0.6,16.1,0.8c5.7,0.2,11.3,0.2,17-0.1c3.7-0.2,7.5-0.4,11.2-0.7
					c-5.8,0.6-11.5,1.2-17.4,1.5c-16.3,0.8-32.6-0.9-48.8-1.6c-4.8-0.2-9.6-0.3-14.5,0c-4.8,0.2-9.6,0.7-14.4,1v0.9
					c6.1-0.4,12.1-0.9,18.2-1.1c5-0.1,9.3-0.3,14.3,0c-3.2,0-5.7,0.3-9,0.3c-4.4,0-8.7,0.5-13,0.9c-2.5,0.2-5.1,0.5-7.7,0.7
					c-0.7,0-1.7,0.1-2.9,0.2v0.5c7.6-0.6,15.1-1.5,22.8-1.6c4.3-0.1,11.6-0.4,16-0.3c10.4,0.3,17.8,1.2,28.2,1.3c0.9,0,1.8,0,2.6,0
					c-0.1,0-0.2,0-0.3,0c-3.3,0.3-6.7,0.3-10.1,0.3c-6.6,0-13.3-0.3-19.9-0.5c-6.6-0.2-13.2-0.3-19.7,0.2c-2.2,0.2-4.3,0.4-6.5,0.7
					c-4,0.3-10.5,0.7-13.1,0.9c0,0,0,0,0,0v0.5c7.1-0.4,14.4-1,21.1-1.4c6.7-0.4,12.3,0.1,19,0.2c12.2,0.2,24.3,0.7,36.3-1
					c4.8-0.2,9.5-0.6,14.2-1.1c7.8-0.8,15.6-1.8,23.5-2.4c4-0.3,8.1-0.6,12.2-0.7c4-0.1,8-0.1,12-0.3c7.9-0.4,15.6-1.3,23.4-1.9
					c13.9-1.2,28-1.8,42-1.6c5.3,0.3,10.7,0.5,15.9,1c3.3,0.3,6.5,0.9,9.7,1.5c3.4,0.5,6.9,1,10.3,1.4c6.8,0.8,13.6,1.4,20.3,2.2
					c1.9,0.2,3.9,0.4,5.8,0.7c-2.9-0.1-5.8-0.1-8.7,0c0,0,0,0,0,0c-2.3,0-4.5,0-6.8-0.1c-0.1,0-0.1,0-0.2-0.1c-2.2-0.1-4-0.3-6-0.8
					c-1.5-0.4-3.2-0.7-4.8-1c-3.8-0.7-7.7-1.2-11.6-1.4c-3.9-0.2-7.8-0.3-11.8-0.4c-4.5-0.2-9-0.5-13.4-0.8
					c-4.2-0.3-8.4-0.5-12.6-0.5c-4.2,0-8.2,0.3-12.3,0.8c-11.3,1.3-22.5,1.2-34,1.7c-6.2,0.2-12.4,1-18.6,1.6
					c-6.3,0.7-12.5,1.2-18.7,2.1c-6.4,1-12.9,1.5-19.6,1.7c-6.5,0.2-13,0.2-19.5,0.3c-6.2,0.2-12.3,1.2-18.6,1
					c-3.1-0.1-6.2-0.3-9.3-0.5c-3.1-0.3-6.3-0.2-9.5-0.1c-6.2,0.1-12.2,0.6-18.3,1.2c-3.7,0.4-7.6,0.5-11.5,0.5v0.5
					c5.2-0.1,10.5-0.2,15.6-0.7c6.6-0.5,13-0.8,19.6-0.7c6.3,0.1,12.3,0.9,18.6,0.6c2.8-0.2,5.5-0.5,8.3-0.7c3.5-0.3,7-0.4,10.5-0.5
					c6.5-0.2,13-0.2,19.5-0.5c6.2-0.3,12.2-1.1,18.1-2.1c2.9-0.5,6-0.7,9-0.9c3.3-0.3,6.6-0.7,9.9-1c6.5-0.7,13.1-1.3,19.7-1.3
					c9.1-0.1,18.6-0.3,27.7-1.1c4.2-0.4,8.3-0.8,12.5-0.9c4.5-0.1,9,0.1,13.4,0.3c8.4,0.5,16.8,0.7,25.2,1.2
					c4.4,0.2,8.5,0.8,12.7,1.6c0.4,0.1,0.7,0.2,1.1,0.2c-0.8-0.1-1.7-0.2-2.5-0.3c-4.2-0.5-8.2-0.4-12.4-0.7
					c-8.8-0.6-17.6-0.8-26.4-0.7c-8.4,0.1-16.8,0.6-25.2,0.7c-8.6,0.2-17.1,0.2-25.6,0.6c-8.1,0.4-16,1.3-23.9,2.3
					c-3.9,0.5-7.9,1-11.8,1.4c-3.9,0.4-7.9,0.7-11.9,1.1c-4.1,0.4-8.2,0.8-12.3,1c-4.1,0.2-8.3-0.1-12.4-0.2
					c-8.2-0.3-16.2,1-24.4,1.4c-8.1,0.4-16.2-0.5-24.3-0.4c-9.5,0.1-18.9,0.8-28.3,1.6v0.7c4.5-0.4,8.8-0.6,13.4-0.9
					c5.7-0.3,11.3-0.5,17-0.4c-3.2,0.2-6.3,0.6-9.3,0.8c-7,0.6-14.1,1.3-21.1,1.9v0.6c6.6-0.5,13.3-1,19.9-1.7
					c5.2-0.5,10.6-1.3,17-1.5c0.3,0,0.7,0,1,0c4.1,0.2,8.1,0.3,12.2,0.3c4-0.1,7.9-0.4,11.9-0.7c4.1-0.3,8.3-0.8,12.5-0.8
					c4.1,0,8.3,0.3,12.4,0.3c4,0,8-0.4,11.9-0.8c4-0.4,8-0.7,11.9-1.1c8-0.7,15.8-1.9,23.7-2.8c8.3-0.9,16.7-1.4,25.2-1.6
					c5.5-0.1,10.9-0.2,16.4-0.3c5.6-0.1,11.2-0.4,16.8-0.6c10.8-0.3,22.2,0.1,33.2,0.3c5.1,0.1,10,0.6,15,1.1
					c4.3,0.4,8.6,0.7,13,0.7c8.6,0,17.1,0.4,25.7,0.2v0c0.7,0,1.4,0,2.1-0.1c0.7,0,1.3-0.1,2-0.1c0.2,0,0.4,0,0.7,0
					c0.4,0,0.9,0,1.3-0.1c0.3,0,0.6,0,0.8,0c0.2,0,0.3,0,0.5,0v0v-0.9c-0.1,0-0.1,0-0.1,0c-1.5,0.1-3.1,0.2-4.6,0.2
					c-0.3,0-0.5,0-0.8,0c-0.1,0-0.2,0-0.3,0c-0.5,0-1,0-1.5,0c-2,0.1-4,0.1-6.1,0.1c-1.7-0.1-3.5-0.3-5.2-0.6
					c-2.3-0.3-4.6-0.6-7-0.9c3.3,0,5.7-0.2,8.7-0.5c5.5-0.5,11.2-0.4,16.8-0.3v-0.8c-2.2,0-4.5,0-7,0c-4.8,0-9,0.2-13.8,0.6
					c-2.5,0.2-5,0.5-7.6,0.5c-6.6-0.9-13.3-1.6-19.9-2.4C136.8,105.8,130.5,104.5,123.9,104"/>
				<path id="XMLID_142_" class="st3" d="M119.5,116c-1.8,0.1-3.7,0.1-5.5,0.2c-7.4,0.3-14.8,0.9-22.3,0.9c-0.9,0-0.9,0.8,0,0.8
					c6.3,0.3,12.2,2,18.1,3.1c2.6,0.5,5.3,0.9,8.1,1.2c4.4,0.6,8.8,1.6,13.3,1.8c4.5,0.2,9-0.3,13.4-1c4-0.6,8.1-1.3,12.2-1.6
					c8-0.5,15-0.8,23-1.7c4.2-0.4,8-0.8,11.8-1.1v-0.7c-2.4,0.2-4.9,0.5-7.3,0.7c-7.4,0.7-12.7,1.3-20.2,1.8c-3.3,0.2-6,0.2-8,0.3
					c-3.5,0.1-7,0.6-10.4,1.1c-4.3,0.7-6.3,0.9-10.5,1.4c-3.8,0.5-9.3-0.6-13-1.1c-4-0.6-8-1.1-11.9-1.9c-4.1-0.8-8.2-1.9-12.3-2.5
					c5.3-0.2,10.6-0.6,15.9-0.8c1.7-0.1,3.4-0.1,5.1-0.2c1.8-0.1,3.6-0.3,5.4-0.3c4.4-0.2,8.7,0.4,13.1,0.8c5.1,0.4,10.3,0.9,15.5,1
					c2.9,0.1,5.7,0,8.6-0.2c6-0.5,12.1-0.8,18.1-1c4-0.2,8.1-0.2,12.2-0.3v-0.5c-4.6,0.1-9.3,0-13.7,0.2c-5.6,0.2-11.2,0.5-16.7,0.9
					c-10.3,0.7-21.2-0.4-31.4-1.3c-1.7-0.2-3.4-0.2-5.2-0.2C122.8,115.7,121.1,115.9,119.5,116"/>
				<path id="XMLID_141_" class="st3" d="M127.4,113.7c-3.8-0.3-7.6-0.2-11.5-0.1c-8.2,0-16.4,0.9-24.6,1.2
					c-6.6,0.2-13.2,0.6-19.8,0.9c-3.6,0.2-7.2,0.3-10.7,0.5c-2.2,0.2-4.5,0.4-6.6,0.9c-1.6,0.3-3.2,0.8-4,1.6
					c-0.1,0.1-0.1,0.3,0.2,0.4c4.2,1.2,9.5,0.4,13.9,0c6.1-0.6,12.1-0.5,18.2,0.1c6.3,0.6,12.4,1.5,18.5,2.5
					c11.9,2,23.8,4.5,36.4,3.9c6.7-0.3,12.9-1.4,19.4-2.1c6.5-0.7,13.1-1,19.6-1.6c5-0.5,10.1-0.8,15.1-1.2V120
					c-4.3,0.4-8.5,0.8-12.8,1.1c-6.9,0.5-13.7,1.1-20.6,1.6c-6.7,0.5-13.2,1.6-20,2c-3.1,0.2-5.9,0.3-9,0.2
					c-6.3-0.4-12.5-1-18.6-2.1c-6.2-1.1-12.3-2.3-18.6-3.2c-6.4-0.9-13-1.6-19.6-1.5c-2.5,0-5,0.1-7.5,0.4c-2.6,0.2-5.2,0.5-7.8,0.7
					c-1.9,0.1-3.9,0.1-5.7-0.3c0.8-0.6,2.1-0.9,3.4-1.2c1.8-0.4,3.8-0.6,5.7-0.7c3.7-0.3,7.4-0.3,11-0.5c3.1-0.1,6.1-0.3,9.2-0.4
					c3.4-0.1,6.9-0.2,10.3-0.3c11.4-0.3,23.3-1.9,34.8-1.2c4.9,0.3,9.3,0.8,14.2,1.1c7.5,0.4,14.9,0.3,22.4,0c7-0.2,14-0.5,21-0.7
					c2.7-0.1,5.5-0.2,8.3-0.3v-0.5c-3.2,0.2-6.5,0.2-9.7,0.2c-6.8,0-13.6,0.3-20.4,0.4c-7.2,0.1-14.4,0.2-21.5-0.1
					C135.7,114.3,131.6,114,127.4,113.7"/>
				<path id="XMLID_140_" class="st3" d="M154.6,112.6c-7.5-0.1-15,0.1-22.4-0.6c-2.8-0.3-5.6-0.5-8.5-0.8
					c-4.6-0.5-9.7-0.4-14.4-0.4c-5,0-10,0.2-15,0.1c-6.7-0.1-13.4-0.4-20.1-0.1c-6.5,0.2-12.7,1.1-18.8,2.4
					c-3.5,0.7-6.9,1.5-10.5,2.1c-3.2,0.6-6.5,1.1-9.7,1.8c-3.1,0.7-6,1.3-9.2,1.8c-3.8,0.5-7.6,0.2-11.4,0.1c-1.1,0-5.7-0.4-6.1,0.5
					c-0.6,1.3,7.2,1.3,8.3,1.4c5,0.3,9.8,0.8,14.8,0.8c2.8,0.1,5.7,0.1,8.6,0.1c3.3,0.1,6.6,0.2,9.9,0.2c3.3,0,6.6-0.1,9.8,0
					c3.4,0,6.7,0.2,10,0.5c6.6,0.6,13.1,1.4,19.6,2.2c4,0.5,8,1,12,1.3c4,0.4,8,0.5,12,0.8c2.2,0.2,16.7,0.9,21.7,0.7
					c7.3-0.3,14.6-1,21.8-1.8c7.4-0.8,14.9-1.5,22.1-2.6c3.9-0.6,7.7-0.9,11.7-1c0.2,0,0.4,0,0.6,0v-0.5c-3.8,0.1-7.5,0.2-11.2,0.7
					c-7,1-14.2,1.7-21.3,2.4c-7.4,0.8-14.8,1.4-22.2,1.9c-1.3,0.1-2.5,0.1-3.8,0.1c-0.6,0-1.2,0-1.9,0c-1.8,0-3.6-0.1-5.5-0.1
					c-6.2-0.3-12.3-0.5-18.4-1c-2.2-0.2-4.3-0.3-6.5-0.6c-6.5-0.7-13-1.5-19.4-2.3c-6.4-0.7-12.9-1.5-19.4-1.7
					c-6.6-0.2-13.2,0.1-19.8-0.1c-3.8-0.1-7.6,0-11.3-0.1c-3.4-0.1-7.1-0.1-10.5-0.4c-1.9-0.2-3.5-0.2-5.4-0.2c-1,0-3.9-0.3-4.1-0.4
					c-1.1-0.8,4.5-0.4,5.3-0.4c5.2,0.9,10.6,0,15.5-0.9c2.7-0.5,5.3-1.1,8-1.6c3-0.5,6-1,9-1.6c6.2-1.2,12.3-2.6,18.7-3.2
					c6.6-0.7,13.4-0.6,20.1-0.4c3.9,0.1,7.8,0.2,11.7,0.2c6.5,0,13-0.3,19.5-0.2c5.2,0.1,10.3,0.8,15.4,1.3
					c7.2,0.7,14.8,0.4,22.2,0.4c7.5,0,15,0.1,22.5,0.2c4.3,0,8.6-0.2,12.9-0.5v-0.5c-3.4,0.2-8.1,0.4-9.1,0.4c-2,0.1-4,0-6,0
					C169.1,112.7,161.9,112.6,154.6,112.6"/>
				<path id="XMLID_139_" class="st3" d="M138.4,157.9c-3,0.1-6.5,0.4-10.7,0.9c-5.8,0.7-10.7,1.6-16.3,2.7
					c-6.2,1.2-12.3,2.4-18.5,3.7c-10.6,2.2-20.9,4.8-32.3,5.4c-6,0.2-12,0.1-17.9-0.1c-13-0.4-25.9-1.4-38.9-2.1
					c-13.7-0.7-27.4-1.1-41-1.6c-6.7-0.2-13.3-0.5-19.9-1c-2.6-0.2-5.1-0.5-7.6-0.8c-1.3-0.1-2.6-0.3-4-0.5c-2.6-0.3-5.2-0.7-7.8-1
					c-3.1-0.4-6.1-1-9.2-1.4c-3-0.4-6.2-0.6-9.2-1c-0.2,0-0.3,0-0.5-0.1v0.7c0.7,0.1,1.5,0.2,2.2,0.3c6.7,0.7,13,1.9,19.5,2.8
					c6.5,0.9,13,1.6,19.6,2.1c7,0.5,14.1,0.7,21.2,0.9c14.2,0.5,28.5,1,42.7,1.8c13.7,0.8,27.3,1.8,41.1,1.9
					c12.7,0.1,25.2-0.6,37.3-2.8c3.5-0.6,6.9-1.2,10.4-1.7c3.2-0.5,20.2-3.4,22.9-4c4.4-1,8.8-2,13.4-2.6c4.9-0.6,10.1-0.5,15-0.1
					c3.4,0.3,10.8,1.1,15.8,1.4c4.3,0.2,15.1,0.3,20.3,0.8c1.7,0.2,3.6,0.3,5.4,0.5v-0.7c-1.4-0.2-2.9-0.3-4.3-0.5
					c-5.1-0.5-10.4-0.7-15.5-0.6c-3-0.1-8.9-0.4-9-0.4c-5.8-0.5-7.7-1-12.3-1.4c-4.5-0.4-9.1-0.5-13.6-0.1
					c-4.7,0.4-9.3,1.5-13.7,2.6c-2.6,0.6-5.2,1.1-7.9,1.6c-5,0.9-26,4.1-31.4,5c-4,0.6-8.2,1.1-12.3,1.4c0.7-0.1,1.4-0.2,2.1-0.3
					c5.6-0.9,11-2.2,16.5-3.2c5.9-1.2,11.8-2.3,17.7-3.4c6-1.2,11.9-2.4,18-3.3c1.1-0.2,2.7-0.4,4.1-0.6c3.5-0.3,7-0.5,10.5-0.7
					c4.8-0.3,9.7,0.1,14.5,0.2c5,0.1,9.9,0.2,14.8,0.6c3.8,0.3,7.6,0.3,11.8,0.8c3.3,0.5,6.5,1.3,9.8,1.8v-0.7
					c-2.7-0.4-5.2-0.9-7.9-1.3c-3.6-0.8-7.8-0.8-11.6-1c-5.4-0.4-10.7-0.6-16.2-0.7C150,157.8,144.1,157.6,138.4,157.9"/>
				<path id="XMLID_138_" class="st3" d="M129.7,155.6c-2.9,0.4-5.6,1.1-8.4,1.7c-3.1,0.7-6.2,1.1-9.4,1.6c-6.3,1-12.6,2.2-18.7,3.5
					c-6,1.3-12,2.7-18.4,3.4c-6.7,0.8-13.8,1.2-20.6,1.2c-7,0.1-13.9-0.6-20.9-1c-7.1-0.4-14.1-0.6-21.2-0.7
					c-14-0.2-27.9,0.2-41.9-0.4c-7.2-0.3-14.3-0.9-21.3-1.9c-6.6-0.9-13.1-2-19.7-2.9c-8.1-1.1-16.4-2.3-24.7-3v0.7
					c8.1,0.7,16,1.8,23.9,2.9c1.6,0.2,3.2,0.5,4.8,0.7c9.2,1.4,18.5,2.8,28,3.6c2.7,0.2,5.4,0.4,8.1,0.6c13.9,0.7,27.9,0.4,41.9,0.5
					c7.1,0.1,14.2,0.3,21.2,0.7c7,0.4,13.9,1,20.9,1c6.6,0,13.1-0.4,19.6-1c6.4-0.6,12.5-1.9,18.5-3.2c6.1-1.3,12.2-2.5,18.5-3.6
					c3-0.5,6-0.9,8.9-1.4c3.1-0.6,6-1.3,9-1.9c6.4-1.3,13.6-1.3,20.4-1.2c6.5,0.1,12.4,0.5,18.7,1c1.5,0.2,3,0.3,4.5,0.4
					c3.1,0.2,6.3,0.2,9.5,0.3c3.5,0.1,7,0.3,10.5,0.6v-0.7c-2.7-0.2-5.5-0.4-8.3-0.5c-5.4-0.2-10.5-0.3-15.8-0.7
					c-6-0.5-12.1-1-18.1-1.2C142.9,154.7,136,154.6,129.7,155.6"/>
				<path id="XMLID_137_" class="st3" d="M151.8,165.7c-6.9,0.3-13.5,1.3-20.2,1.9c-7.1,0.6-14.3,0.7-21.3,1.3
					c-8.9,0.8-17.8,1.7-26.7,2.5c-7,0.6-14.6,1.4-21.8,1.4c-6.8,0-13-0.6-19.8-0.8c-6.3-0.1-12.2-0.8-18.4-1.1
					c-3-0.2-6.1-0.1-9.1-0.1c-3.4,0-6.8-0.1-10.1-0.1c-6.5-0.1-12.9-0.2-19.4-0.1c-3.3,0-6.6,0.2-9.8,0.1c-3.4,0-6.8-0.2-10.2-0.5
					c-2.2-0.1-4.3-0.3-6.5-0.4c-3.7-0.2-14.5-0.9-16.2-1.1c-1.7-0.2-3.4-0.4-5-0.6c-2.9-0.2-5.7-0.8-8.6-1.1
					c-5.5-0.7-7.8-1.5-13.1-2.6c-2.4-0.5-4.6-1.1-7-1.5c-1.3-0.2-2.6-0.4-3.9-0.6v0.7c0.8,0.1,1.6,0.2,2.3,0.3
					c2.6,0.5,7.4,1.7,10,2.2c6.2,1.3,12.5,2.1,18.8,2.8c-2.9-0.2-5.8-0.4-8.7-0.7c-7.6-0.6-15-1.6-22.4-2.2v0.7
					c2.1,0.2,4,0.5,6.3,0.7c6.6,0.7,13.2,1.3,19.9,1.9c1.7,0.1,3.4,0.3,5.1,0.4c4.9,0.4,9.9,0.7,14.9,1c6.8,0.4,13.6,0.9,20.4,1.2
					c6.8,0.3,13.7,0,20.6,0c7,0,14.1,0.3,21.1,0.3c3.3,0,6.6-0.1,9.9,0c3.7,0.1,7.3,0.5,11,0.8c6.5,0.5,13.1,0.5,19.7,0.6
					c6.4,0.2,11.8,0,18.2-0.4c6.1-0.3,13.2-1,19.2-1.6c8-0.7,15.8-1.2,23.8-1.8c6.5-0.5,13.2-0.2,19.6-1.1
					c6.1-0.9,12.2-1.6,18.5-1.9c4.9-0.3,9.8-0.3,14.7-0.7c2.6-0.2,5.1-0.4,7.7-0.4c1.8,0,3.5,0.1,5.2,0.1c4.7,0.2,8.1,0.5,11.3,0.8
					v-0.7c-7.9-0.7-15.9-1.1-24.2-0.6C162.1,165.3,157,165.4,151.8,165.7"/>
				<path id="XMLID_136_" class="st3" d="M144.5,169.7c-7,0.4-14.1,0.5-21.2,0.8c-14.1,0.6-26.3,1-40.3,2
					c-16.3,1.2-28.7,2.4-42.4,1.9c-13.5-0.5-26.7-2.1-40.3-2.1c-6.9,0-13.7,0.2-20.6,0.1c-6.9-0.2-13.7-0.7-20.5-1.2
					c-2.8-0.2-5.6-0.5-8.4-0.7c-10.1-0.8-20.1-1.4-30.2-2.2c-5.2-0.4-10.6-1-16-1.3v0.8c6,0.4,11.9,0.9,17.6,1.5
					c11,1.1,22,1.8,33.1,2.6c3.1,0.2,6.1,0.4,9.2,0.7c6.8,0.5,13.6,0.9,20.4,0.9c7.2,0,14.3-0.2,21.5-0.1c14,0.3,27.7,2.2,41.8,2.2
					c12.7,0,23.2-1.6,35.8-2.4c13.5-0.8,29.3-1.3,42.9-1.9c14.8-0.6,29.9-1.2,44.6-2.3c2.6-0.2,5.3-0.3,7.9-0.3
					c4.1,0.1,8.2,0.5,12.3,1V169c-6.3-0.7-12.6-1.1-18.8-0.6c-2.9,0.2-5.8,0.3-8.6,0.5c5.1-0.6,10.3-1.2,15.5-1.5c4,0,8,0.2,12,0.4
					v-0.8c-4.7-0.3-9.3-0.4-13.8-0.3C166.5,167.2,155.7,169.1,144.5,169.7"/>
				<path id="XMLID_135_" class="st3" d="M164,172c-6.6,0.1-13.2,0-19.8,0.1c-6.9,0.2-13.8,0.5-20.6,1c-7.3,0.6-14.3,1.1-21.7,1
					c-7.1,0-15.9,0.2-23,0.5c-13.7,0.7-25.1,2.4-39,1.7c-6.5-0.3-13-0.8-19.5-1.2c-6.4-0.4-13.3-0.2-19.7-0.3
					c-12.9-0.2-25.4-0.4-38.3-0.9c-3.2-0.1-6.3-0.2-9.5-0.4c-4.2-0.2-8.5-0.5-12.7-0.9c-5.4-0.5-10.8-1.1-16.2-1.6
					c-2.9-0.3-5.7-0.6-8.6-0.9c-3.6-0.4-7.2-0.9-10.9-1.3v0.8c0.8,0.1,1.5,0.2,2.2,0.3c6.6,0.8,13.3,1.6,20,2.3
					c5.2,0.6,10.4,1.1,15.7,1.5c-3.5-0.3-7-0.3-10.4-0.5c-3.7-0.2-7.4-0.6-11.1-0.9c-5.6-0.4-11-0.9-16.3-1.1v0.7
					c6.2,0.3,12.3,0.8,18.4,1.3c8.1,0.7,16.2,0.9,24.3,1.1c2.3,0.1,4.7,0,7,0.1c1.4,0.1,2.7,0.1,4.1,0.2c3,0.1,6,0.3,9,0.3
					c10.8,0.3,21.6,0.3,32.4,0.4c-0.8,0.1-1.5,0.1-2.2,0.1c-5.2,0.2-12,0.6-17.2,0.6c-10.6,0-19.6-0.6-30.2-0.7
					c-6.1,0-12.3,0-18.4,0c-9.1,0-18.2-0.1-27.3-0.5v0.6c6.9,0.3,13.9,0.5,20.9,0.6c6.5,0.1,13,0.1,19.4,0c1.8,0,3.7,0,5.5,0
					c10.6,0,20.2,0.7,30.7,0.7c5.3,0,10.2-0.6,15.5-0.8c3.2-0.1,7-0.4,11.2-0.5c0.6,0,1.1,0,1.7,0c7.1,0.2,14.1,0.6,21.1,1.1
					c7,0.4,13.8,0.9,20.9,0.7c4.7-0.2,9.3-0.6,13.9-1c15.1-0.9,28-0.2,39.5,0.1c6.1,0.2,12.1,0.3,18.2,0.3c6-0.1,11.8-0.6,17.7-1.2
					c6.1-0.6,10.6-1.5,16.8-1.4c3.4,0,8.4,0.1,11.8,0.4c7.4,0.5,14.8,0.9,22.2,1.2v-0.6c-1.9-0.1-3.8-0.2-5.8-0.2
					c-4.1-0.2-8.2-0.5-12.3-0.7c-6.4-0.4-12.9-0.7-19.4-0.6c-5.6,0.1-11.3,1-16.8,1.5c-11.6,1.2-22.5,1.1-34.3,0.7
					c-8.4-0.3-20.2-0.4-30.4,0c5.8-0.5,11.5-0.8,17.4-0.8c6.8,0,13.6,0.2,20.4,0c6.5-0.2,13.1-0.9,19.5-1.4
					c6.8-0.5,15.7-1.1,20.6-1.1c4.8,0,9.7,0.1,12.2,0.1c2.6,0,12.9-0.5,15.2-0.7c4.5-0.1,9.1,0,13.6,0.2v-0.7
					c-4.6-0.2-9.2-0.2-14,0.1C173,171.5,168.5,171.9,164,172"/>
				<path id="XMLID_134_" class="st3" d="M111.4,101c-3.1-0.3-6.3-0.5-9.5-0.5c-6.6-0.1-13.3,0.2-19.9,0.6
					c-5.4,0.3-10.7,0.9-16.1,1.4c-7.4,0.6-13.3,0.1-17.7,0.1c-6.5,0-13-0.2-19.5-0.4c-13.4-0.2-26.3,2.2-39.7,1.9
					c-6.7-0.2-13.4-0.6-20.2-0.8c-6.7-0.2-13.3-0.4-19.9-0.8c-6.1-0.3-12.2-0.5-18.3-0.5c-5.3,0-10.7,0-16,0.2
					c-3.3,0.1-6.7,0.1-10,0v0.9c3.5,0.2,7,0.4,10.6,0.2c2.4,0,4.8-0.1,7.3-0.1c6.7-0.1,13.4,0,20.1,0.2c6.6,0.2,13.3,0.7,19.9,0.9
					c6.7,0.2,13.4,0.4,20.1,0.7c6.7,0.3,13.1,0.3,19.7-0.2c6.7-0.5,13.4-1.2,20.1-1.5c6.5-0.3,13.1,0.1,19.6,0.2
					c4.1,0,6.6-0.2,10.7-0.1c0.6,0,1.3,0,2.1,0c-4.4,0.3-8.9,0.4-13.3,0.6c-12.8,0.4-25.6,0.5-38.3,1.6c-6.6,0.6-13,1-19.8,0.7
					c-6.6-0.3-13.1-0.4-19.7-0.4c-17-0.1-33.6-1.7-50.6-1.1c-2.9,0.1-5.7,0.3-8.6,0.5v1c5.3-0.3,10.6-0.8,16-0.8
					c8.7,0.1,17.1,0.6,25.7,1.1c6.9,0.4,13.9,0.4,20.8,0.4c6.8,0,13.4,0.4,20.2,0.5c6.8,0.1,13.5-0.7,20.3-1.2
					c13.7-1,27.6-1,41.3-1.6c12.8-0.6,25.2-2.3,37.9-2.9c6.3-0.3,12.8-0.5,19.1-0.3c6.4,0.3,12.6,1.2,18.7,2
					c12.7,1.7,25.5,2.2,38.6,2.5c6.5,0.1,12.9,0.5,19.4,0.5c3,0,6-0.1,8.9-0.3v-1c-3.2,0.2-6.4,0.4-9.7,0.4
					c-6.8,0-13.5-0.4-20.2-0.6c-6.9-0.1-13.8-0.4-20.7-0.8c-6.1-0.4-12-1.1-17.9-1.9c10.6,0.9,21.3,1.5,32.2,1.3
					c11.1-0.2,22.2-1.2,33.3-0.7c1,0,2,0.1,3,0.2v-0.9c-2.4-0.1-4.8-0.1-7.2-0.2c-1.6,0-3.3-0.1-4.9-0.1c-8.1,0-16.1,0.5-24.2,0.6
					C140.6,102.9,125.9,101.9,111.4,101"/>
				<path id="XMLID_131_" class="st3" d="M-24.9,93.1c-8.9-0.8-17.3-1.2-26.2-1.9c-3.4-0.3-6.7-0.1-10.1,0c-1.8,0-3.7,0.1-5.5,0.1
					c-1.1,0-2.3,0-3.5-0.1c-2.3-0.2,0.1-1,1-1.3c1.3-0.5,3.1-0.7,4.7-0.9c3.7-0.6,7.5-0.9,11.3-1.1c3.6-0.3,7.3-0.4,10.9-0.7
					c3.9-0.3,7.7-0.7,11.6-1.1c5.8-0.6,11.7-1.1,17.5-1.7c5.6-0.6,11-1.6,16.7-1.9c5.5-0.3,11-0.1,16.4,0.1
					c5.6,0.3,11.2,0.6,16.7,1.2c5.8,0.6,11.3,1.8,17,2.5c3.6,0.4,10.3,1,13.9,1.7c1.1,0.2,2.9,0.4,1.5,1c-0.7,0.3-2.8,0.6-3.6,0.7
					c-3,0.5-5.8,0.7-7.9,1.1c-4.1,0.7-8.1,1-12.4,1.5c-4.5,0.4-9,0.9-13.6,1.1c-4.7,0.2-12.2,0.7-17,1C9.8,94.7,7.7,95,2.9,95.1
					C-6.4,95.2-15.8,93.9-24.9,93.1 M15,95.1c1.7-0.1,9-0.6,11-0.7c3.3-0.2,16.6-1,20-1.3c4.4-0.5,8.8-1,13.1-1.8
					c3.5-0.6,10.1-1,12.7-2.5c0.3-0.2,0.3-0.5-0.2-0.6C68.2,87,60.9,86.2,57,85.8c-4.8-0.5-9.5-1.2-14.2-2
					c-5.1-0.8-10.4-1.2-15.7-1.6c-5.5-0.4-11-0.7-16.5-0.7c-5.2,0-10.5,0.2-15.6,0.9c-5.7,0.7-11.3,1.5-17.1,2
					c-8.7,0.9-17.3,1.8-26.1,2.3c-4.9,0.3-9.8,0.6-14.6,1.2c-3.6,0.5-7.8,1.1-10.3,2.7c-0.2,0.1-0.3,0.4,0.1,0.5
					c6.2,1.5,13.5,0.6,20.1,0.8c4.5,0.1,9.1,0.6,13.6,0.9c4.8,0.3,9.7,0.6,14.5,1c9.3,0.8,18.1,2.1,27.6,1.9
					C6.9,95.7,11,95.5,15,95.1"/>
				<path id="XMLID_128_" class="st3" d="M-24.3,91.2c-3.3-0.3-7.2-0.6-10.4-1c-3.5-0.4-6.3-0.6-9.8-0.6c-0.6,0-2.8,0-3-0.1
					c-0.2-0.1,1.4-0.5,1.9-0.6c3-0.4,5.6-0.6,8.6-0.8c4.1-0.3,9.4-0.3,13.5-0.7c4.4-0.4,8.8-1,13.2-1.5c5.1-0.5,10.2-0.9,15.3-1
					c10.6-0.1,21.1,0.2,31.4,1.3c3.9,0.4,8.2,0.6,12.2,1c1.6,0.2,2.8,0.3,5.1,0.7c1,0.2,2.2,0.4,3.1,0.6c0.7,0.1,2.3,0.2,2.9,0.4
					c-0.6,0.2-1.5,0.2-2.2,0.3c-1.8,0.2-3.6,0.2-5.4,0.4c-1.4,0.1-2.8,0.3-4.3,0.4c-1.9,0.1-3.9,0.2-5.8,0.3
					c-4.1,0.2-8.2,0.2-12.2,0.4c-4.3,0.2-7.8,0.7-12.1,0.9C13.3,92,5.1,92.5,0.7,92.7C-8.1,93.1-15.7,92.1-24.3,91.2 M30,91.6
					c3.5-0.2,7-0.4,10.4-0.6c1.7-0.1,3.4-0.2,5.1-0.3c3.9-0.2,7.9-0.3,11.7-0.7c1.1-0.1,2-0.1,3-0.4c0.7-0.2,1.7-0.1,2.4-0.4
					c0.3-0.2,0.3-0.1,0-0.3c-0.7-0.3-1.7-0.3-2.5-0.4c-0.9-0.1-1.7-0.3-2.5-0.4c-2.1-0.5-4.3-0.9-6.6-1.2c-4.3-0.5-8.8-0.8-13.1-1.2
					c-0.2,0-0.3,0-0.5-0.1c-4.8-0.5-9.5-1-14.4-1.2c-5.7-0.2-11.5-0.2-17.2-0.2c-10,0-19.4,1.5-29.1,2.4c-8.6,0.8-18,0.5-26,2.5
					c-0.8,0.2-0.4,0.8,0.4,0.8c17.7,0.1,34.8,4,52.6,3.2C12.5,92.9,21.2,92.2,30,91.6"/>
				<path id="XMLID_125_" class="st3" d="M-5.9,90.1c-2.9-0.1-5.8-0.2-8.7-0.4c-1.5-0.1-6-0.1-6.4-0.5c-0.4-0.4,4.4-0.5,5.7-0.5
					c2.5-0.1,5.7,0,8.2,0c5.8-0.1,10.6-0.4,16.4-0.6c2.9-0.1,5.9-0.3,8.8-0.3c3.1,0,6.1,0.2,9.1,0.5c2.1,0.2,7,0.3,9.1,0.6
					c2,0.3-5.4,0.3-6.9,0.3c-6-0.2-12.4-0.5-18.3,0c-2.9,0.2-5.6,0.6-8.5,0.8C-0.6,90.2-2.9,90.2-5.9,90.1 M9.7,89.9
					c3.4-0.3,6.6-0.5,10.1-0.5c3.3,0,6.6,0.2,9.8,0.2c4.5,0,8.7-0.1,13.2-0.3c0.4,0,2.9,0.1,2.7-0.3c-0.2-0.4-3.2-0.2-3.8-0.2
					c-1.7,0-3.3-0.2-5-0.3c-3.6-0.3-7.1-0.6-10.7-0.9c-5.9-0.5-11.7-0.1-17.6,0c-6,0.2-12,0.6-18,0.6c-2.6,0-5.2,0-7.8,0.1
					c-1.9,0.1-3.9,0.3-5.8,0.5c-1.8,0.2-4.9,0.2-5.2,0.6c-0.3,0.3,2.2,0.3,2.8,0.4c2.9,0.1,5.8,0.4,8.7,0.5c2.7,0.1,5.4,0.4,8.1,0.5
					c2.9,0.1,6,0.3,9,0.1C3.5,90.5,6.6,90.2,9.7,89.9"/>
				<path id="XMLID_122_" class="st3" d="M4,96.8c-6.4-0.1-12.8-0.1-19.2-0.3c-8.8-0.2-17.9-1.2-26.5-2.1c-3.6-0.4-8.8-0.5-12.4-0.7
					c-5.4-0.3-10.4-0.5-15.9-0.7c-3.3-0.1-5.9-0.3-9.1-0.5c-2.4-0.2-4.4-0.6-6.6-1.1c-3-0.7-0.3-1.2,1.3-1.6c6-1.4,12.3-2,15.4-2.4
					c6-0.9,13.2-1.6,19.3-2.4c10.1-1.2,18.4-2.6,28.5-3.7c8.1-0.9,16.4-1.6,24.8-1.9c11.3-0.3,22.8,0.7,33.8,1.9
					C48,82.4,58.2,84,68.3,85.7c2.5,0.4,16.5,2,15.2,3.3c-0.8,0.8-10.7,1.8-14.8,2.7c-2.7,0.6-5.4,1-8.2,1.5
					c-3.2,0.6-6.4,1.1-9.7,1.5c-4.5,0.6-9.1,1.2-13.9,1.4c-3.5,0.1-6.9,0.4-10.4,0.6C19.1,97,11.5,97,4,96.8 M2.5,97.4
					c12.6,0.3,26,0.5,35.2-0.7c3.2-0.2,6.4-0.5,9.6-0.9c5.5-0.6,10.8-1.5,16.1-2.5c3.7-0.7,7.5-1.2,11.1-2
					c2.2-0.5,10.8-1.3,10.7-2.6c-0.1-1.8-10.9-2.7-13.6-3.2c-4.8-0.9-9.8-1.6-14.7-2.4c-10.5-1.7-21.3-2.9-32.2-3.7
					C19.4,79,14,78.7,8.5,78.7C3,78.7-2.6,79-8.1,79.4c-5.6,0.4-11,1-16.5,1.6c-12.3,1.6-20.2,2.6-31.2,4
					c-5.8,0.7-12.4,1.5-18.1,2.4c-3.8,0.6-8.8,1-12.2,2c-2.1,0.6-3.1,1.6-0.7,2.4c1.9,0.6,4.3,0.8,6.5,1.1c3.1,0.3,6.2,0.5,9.3,0.7
					c5.4,0.3,10.7,0.4,16.1,0.8c4.6,0.3,9.3,0.5,13.9,0.8c4.6,0.3,8,0.9,12.6,1.1c3.8,0.2,8.5,0.7,12.4,0.9
					C-9.3,97.5-4.1,97.2,2.5,97.4"/>
				<path id="XMLID_119_" class="st3" d="M-62.2,96c-0.9,0-1.8-0.1-2.7-0.2c-0.9-0.1-1.9-0.1-2.8-0.2c-2.7-0.3-5.3-0.7-7.9-1
					c-2.9-0.3-5.7-0.6-8.5-1.1c-1.5-0.3-3-0.5-4.5-0.8c-1.3-0.2-4.1-0.6-3.7-1.5c0.3-0.7,2.6-1.2,3.8-1.4c1.5-0.3,2.7-0.7,4.1-1
					c5.2-1.2,11-2.1,16.5-3c5.3-0.8,10.7-1.6,16-2.3c5.7-0.8,11.3-1.7,17-2.4c10.9-1.4,22-2.3,33.2-3c5.6-0.4,11.2-0.7,16.8-0.7
					c5.7-0.1,11.2,0.2,16.7,0.8c11.2,1.1,22,3,33.2,4.3c9.9,1.1,24.6,3.2,33.4,5.6c1.9,0.5,4.6,1.3,2.4,2.4
					c-1.6,0.8-10.3,1.3-12.4,1.6c-5.3,1-8.6,1.4-13.9,2.4c-4.2,0.8-8,1.6-12.5,2c-4,0.3-8.9,0.8-12.9,0.6c-2.5-0.1-6.3,0.3-8.8,0.4
					c-6.2,0.1-13,0.5-19.2,0.9C10,99.2,0.4,99.8-11.3,99.3c-11-0.5-21.8-1.4-32.7-2.4c-4-0.4-8.1-0.6-12.2-0.7
					C-58.1,96.1-60.1,96.1-62.2,96 M-57.1,96.9c4.2,0.3,8.5,0.6,12.6,1c10.7,1.1,21.5,2.1,32.4,2.4c5.6,0.2,11.1,0.2,16.7,0
					c5.7-0.2,11.3-0.7,16.9-1.1c6.7-0.5,13.5-0.8,20.4-1c6.8-0.2,13.4-0.3,20.1-0.9c6.8-0.6,12-1.5,18.2-3c2.5-0.6,6.5-1,8.9-1.6
					c2.2-0.5,10.3-1,12.4-1.6c2.6-0.7,3.2-1.4,0.9-2.7c-1.4-0.8-8.4-2.2-10.3-2.7c-2.2-0.5-4.5-1-6.8-1.4c-4.7-0.9-9.7-1.5-14.6-2
					c-5.1-0.6-10.2-1.2-15.3-1.9c-5.6-0.8-11.3-1.6-16.9-2.3c-5.4-0.6-10.8-1.3-16.3-1.5c-5.4-0.2-10.8-0.1-16.2,0.2
					c-10.9,0.5-21.8,1.4-32.4,2.5c-11.4,1.2-22.5,2.9-33.7,4.5c-5.4,0.8-10.1,1.8-15.3,2.7c-4.2,0.8-9.2,1.8-13.3,2.6
					c-1.9,0.4-4.4,0.8-5.1,1.8c-0.8,1.1,1.1,1.7,3,2.1c2.7,0.6,5.8,1.1,8.6,1.4c2.3,0.3,4.6,0.5,7,0.7c2.1,0.2,6.2,1,11.5,1.3
					C-61.4,96.6-59.2,96.7-57.1,96.9"/>
				<path id="XMLID_118_" class="st3" d="M-60.2,99.9c6.4,0.5,12.8,0.8,19.2,1.3c6.2,0.4,12.4,1,18.6,1.5c6.1,0.4,12.3,0.8,18.5,0.7
					c5.9,0,11.8-0.5,17.6-1.1c8.4-0.8,16.8-1.7,25.4-1.8c4.1,0,8.2,0,12.2-0.1c3.7-0.1,7-0.6,10.5-1.1c2.2-0.3,4.5-0.7,6.8-0.9
					c2.6-0.2,5.2-0.3,7.9-0.6c5.1-0.5,10.2-1.1,15.2-1.9c4.3-0.7,8.5-1.5,12.8-2.1c4.1-0.6,8.2-1.1,12.4-1.6
					c6.9-0.9,14.3-0.8,20.7-2.5c0.5-0.1,0.4-0.5,0-0.6c-4.2-1.2-9.1-1.4-13.8-1.5c-5.5-0.2-10.8-0.3-16.1-1.1
					c-5.7-0.9-11.2-2.1-16.8-3.1c-6.3-1.1-12.6-2-19-3c-12.2-1.8-24.4-3.5-36.7-5c-11.5-1.4-23.2-2.3-35-1.8
					c-10.7,0.4-21,2.3-31.3,3.6c-10.4,1.3-20.9,2.5-31,4.4c-9.8,1.9-18.6,4.7-28.6,6.3c-1.5,0.2-3.1,0.5-4.6,0.7v0.9
					c1.9-0.3,3.8-0.6,6-1c5.6-1,12.5-2.3,17.8-3.6C-66,83.4-60,82.3-54,81.3c11.7-1.9,23.9-3,35.7-4.7c6.4-0.9,12.6-1.8,19.2-2.1
					c6.1-0.3,12.3-0.1,18.3,0.3c10.1,0.7,20,2.1,29.8,3.5c10.7,1.5,21.5,2.9,32.2,4.5c5.4,0.8,10.7,1.7,16,2.6
					c4.4,0.7,8.7,1.7,13.2,2.3c8.2,1,17.5-0.1,25.2,1.8c-6,1.3-12.9,1.4-19.2,2.1c-8.3,0.9-16.4,2.1-24.4,3.5
					c-5.4,1-10.9,1.7-16.5,2.2c-5.4,0.5-10.9,0.7-16.2,1.4c-4.6,0.7-9.4,0.7-14.2,0.7c-5.6,0-11.1,0-16.7,0.4
					c-6.1,0.4-12.1,1.2-18.2,1.7c-6.3,0.6-12.5,0.9-18.8,0.8c-12.6-0.2-25.1-1.7-37.6-2.4c-6.5-0.4-13.1-0.8-19.6-1.4
					c-6.3-0.5-12.5-1.3-18.8-1.9c-3.6-0.3-7.3-0.6-10.9-1v0.9c5.4,0.6,11,1,16.5,1.7C-72.7,98.9-66.5,99.4-60.2,99.9"/>
				<path id="XMLID_117_" class="st3" d="M164.9,91.5c2.8,1.6,6.9,2.3,10.9,2.9c4.5,0.6,9,1.2,13.5,1.8c0.8,0.1,1.5,0.2,2.3,0.3
					v-0.9c-0.1,0-0.2,0-0.3,0c-3.1-0.3-6-0.9-9.1-1.2c-2.9-0.3-5.9-0.6-8.7-1.1c-1-0.2-5.5-0.8-5.6-1.6c2.2-0.4,5.2-0.4,7.5-0.5
					c2.7-0.2,5.5-0.4,8.2-0.6c3.1-0.3,5.5-0.6,8.1-1v-0.9c-8.5,1.1-17.3,1.7-26,2.1C164.7,90.8,164.4,91.2,164.9,91.5"/>
				<path id="XMLID_116_" class="st3" d="M150.7,92.9c-11-1-22.3,0-33.1,1.1c-10.3,1.1-23.8,1.9-33.3,4.1c-0.9,0.2-0.6,0.9,0.3,1
					c9.2,1.3,19.7,0.4,28.8-0.2c11-0.8,20,1.2,30.8,2c11.9,0.9,27.7-0.5,39.6-0.5c2.6,0,5.2,0,7.8,0v-0.8c-3.5,0-7.2,0-10.3,0
					c-5.8,0-10.8,0.3-16.7,0.4c-6.1,0.1-15.4,0.2-21.4-0.3c-10.4-0.8-18.7-2.5-29.3-1.9c-7.7,0.4-21.2,1.7-26,0.8
					c-4.8-0.9,20.4-2.8,29.3-3.7c11.3-1.2,23.7-2,35.3-1c5.4,0.4,10.2,1,15.4,1.7c5.2,0.7,10.8,1.5,16.1,2.2c2.5,0.3,5,0.6,7.5,0.9
					v-0.6c-2.9-0.4-5.7-0.7-8.6-1.1c-5.2-0.7-10.5-1.3-15.7-2.1C161.8,94.2,156.3,93.4,150.7,92.9"/>
				<path id="XMLID_113_" class="st3" d="M156.6,97.8c-2.8,0-6.5,0.2-9.4,0c-2.7-0.1-4.5-0.3-7.2-0.5c-1-0.1-3.6-0.3-4-0.7
					c-0.2-0.2,2.5-0.5,3.7-0.5c1.5,0,2.8-0.1,4.3-0.2c3.2-0.2,6.8-0.1,10,0c3.1,0.1,5.2,0.2,8.2,0.6c1.4,0.2,3.7,0.6,5.1,0.7
					c1,0.1,4.2,0.6,3.5,0.7c-1.6,0.6-5.3-0.2-7.2-0.2C161.3,97.6,158.9,97.7,156.6,97.8 M166.2,98.6c2.3,0.2,4.9,0.1,7-0.3
					c0.7-0.1,1.1-0.3,0.4-0.5c-5.8-1.7-13.2-2.3-19.7-2.6c-6.6-0.3-13.4-0.4-19.5,0.9c-0.8,0.2-0.4,0.7,0.2,0.8
					c6.3,1.2,13.1,1.8,19.8,1.6c1.6-0.1,3.3-0.1,4.9-0.2c1.4,0,2.9-0.1,4.3,0C164.5,98.3,165.4,98.5,166.2,98.6"/>
				<path id="XMLID_110_" class="st3" d="M76.3,99.7c0,0.1-0.8,0.2-0.9,0.3c-1.7,0.3-2.3,0.3-3.2,0.3c-1.1,0.1-2.2,0.3-3.3,0.4
					c-1.6,0.2-3.1,0.4-4.6,0.5c-0.3,0-2.7,0.3-2.9,0.3c-0.3-0.1,3.6-0.6,3.7-0.6c1.5-0.1,2-0.7,3.5-0.9c1.3-0.2,2.6-0.3,3.9-0.3
					C73,99.6,75.6,99.5,76.3,99.7 M65.6,100c-1,0.3-2.1,0.6-3.3,0.8c-0.4,0.1-2.2,0.3-3.1,0.6c-0.5,0.2-0.7,0.4,0,0.6
					c0.8,0.2,2.5-0.1,3.4-0.1c2.3-0.1,4.6-0.4,6.9-0.7c2.7-0.2,5.4-0.6,8-1c0.6-0.1,0.7-0.6,0-0.7c-2.8-0.4-5.7-0.3-8.5,0
					C67.7,99.5,66.7,99.7,65.6,100"/>
				<path id="XMLID_109_" class="st3" d="M134.5,84.9c-13-1.6-24.8-2.5-38-3.7c-6.4-0.6-12.7-1.1-19-1.9c-6.1-0.8-11.9-1.9-17.8-3
					C54,75.2,47.9,74.5,42,73.7c-5.9-0.8-12.1-1.1-18.1-1.8c-1.8-0.2-3.2-0.1-5-0.1c-2.1,0-4.2-0.2-6.4-0.3c-6.5-0.1-23,1-24.7,1.1
					c-2.6,0.2-12.2,1-14.4,1.2c-3,0.2-14.1,1.7-16.6,2.1c-10.8,2-21.5,4.1-32.4,6c-2.2,0.4-5.7,0.8-7.9,1.1
					c-5.6,0.7-7.7,1.6-11.9,2.3v0.9c1.8-0.3,3.6-0.7,5.4-1c2.4-0.5,4.8-1.1,7.3-1.3c2.8-0.3,5.8-0.6,8.4-1.2
					c3.7-0.8,7.4-1.4,11.2-2.1c2.6-0.5,12.2-2.3,14.5-2.8c3.6-0.7,7.3-1.4,11-1.8c5.5-0.6,8.5-1,14.1-1.6c3.6-0.4,8.8-0.8,12.4-1.1
					c6.1-0.5,10.7-0.4,16.8-0.8c2.2-0.1,16.4,0.4,24.8,1c6.1,0.5,15.3,1.7,21.2,2.5c6,0.9,10.9,1.8,16.8,2.8
					c12.2,2.2,25.1,3,37.8,4.1c12.9,1.1,23.9,2.4,36.4,4.3c5.8,0.9,13.8,1.7,19.9,1.5c3.1-0.1,6.5-0.3,9.6-0.5
					c3.1-0.2,5.8-0.3,8.8-0.6c3.6-0.3,7.1-0.8,10.5-1.5v-0.9c-0.3,0.1-0.7,0.1-1,0.2c-4.9,0.7-10,1-15,1.5
					c-3.1,0.3-8.8,0.5-11.9,0.7c-3.5,0.2-8.8,0-12.3-0.3C145.4,86.9,140.3,85.7,134.5,84.9"/>
				<path id="XMLID_106_" class="st3" d="M159,138.6c-1.2,0-2.3-0.4-3.6-0.4c-1.1,0-2,0.1-3.1-0.2c0.8-0.6,3.4-0.5,4.6-0.4
					c0.9,0,1.7-0.2,2.4-0.4c0.3-0.1,2.3-0.4,2.4-0.4c-0.3,0.2-0.9,0.5-1,0.7c-0.1,0.1-0.2,0.3-0.3,0.6c-0.1,0.2-0.1,0.4-0.1,0.3
					C159.7,138.8,160.4,138.7,159,138.6 M161.1,139.3c1.5-0.3,0.3-0.5,0.5-1c0.2-0.7,2.5-1.3,2.2-2c-0.1-0.3-8.2,0.7-8.8,0.8
					c-2.2,0.3-4.7,0.9-7.1,0.9c-3,0-6.1-0.6-9.1-0.1c2.5,1.1,9.3,0.9,12.3,0.6c2,0.2,3.9,0.3,5.9,0.5
					C158.1,139,160,139.5,161.1,139.3"/>
				<path id="XMLID_103_" class="st3" d="M130.4,153.5c-1.2,0.1-2.2,0.2-3.3,0.3c-0.7,0.1-3.7,0.1-3.8-0.3c0-0.4,2.5-1.2,3.3-1.3
					c4.6-0.9,5.1-0.4,10.5-0.4c1.3,0,7.9,0.7,9.1,1c0.8,0.2,3.8,0.8-0.3,0.5c-0.7-0.1-5.5-0.4-6.5-0.5c-1.3-0.1-2.4,0-3.7,0
					C133.6,152.9,132.3,153.3,130.4,153.5 M153.8,153.7c-0.5-0.5-1.4-0.4-2.3-0.5c-1.2-0.1-2.5-0.4-3.6-0.6
					c-1.3-0.2-3.5-0.5-4.8-0.7c-2-0.3-4.2-0.5-6.2-0.7c-1.7-0.1-2.5-0.2-4.2-0.2c-0.1,0-0.1,0-0.2,0c-1.4,0-2.7,0-4.1,0.2
					c-1,0.1-2.2,0.2-3,0.5c-1.5,0.4-3.1,1.1-3.9,1.9c-0.3,0.3,0,0.6,0.5,0.7c4.1,0.7,8.2-0.1,12.2-0.6c3.6-0.4,7.4-0.1,11,0
					C147.8,153.8,151.5,154.4,153.8,153.7"/>
				<path id="XMLID_100_" class="st3" d="M-12.7,118.4c2,0,4.7,0,6.6,0c2.1,0.1,3.9,0.2,6,0.4c0.5,0,3.4,0.4,3.4,0.8
					c0,0.4-2.1,0.1-2.5,0.1c-1.4,0-2.8,0.2-4.3,0.2c-1.5,0-3-0.2-4.5-0.3c-2-0.2-4-0.5-6-0.5c-0.5,0-1.2,0-1.6-0.1
					C-15.9,118.5-13.4,118.4-12.7,118.4 M-20.7,118.3c0.4,0.3,1.6,0.5,2.3,0.6c0.9,0.1,2,0.1,2.9,0.3c0.9,0.2,1.8,0.2,2.7,0.3
					c2.1,0.2,4.2,0.4,6.3,0.6c1.4,0.1,2.7,0.1,4.1,0.1c1.1,0,2.2-0.1,3.3-0.1c1.3,0,2.5,0,3.8,0.1c1.5,0.1,1-0.4,0.4-0.8
					c-0.8-0.5-1.6-0.8-2.8-1.1C0,118-2.5,118-4.9,117.9c-2.7-0.1-5.5-0.1-8.2,0c-2.2,0.1-4.5,0.3-6.7,0.2
					C-20.2,118.1-20.9,118.1-20.7,118.3"/>
				<path id="XMLID_99_" class="st3" d="M144.1,81.8c-6.2-0.6-10.8-0.9-17-1.6C114.4,79,100,78.1,87.2,77
					c-12.8-1.1-26.8-2.4-39.3-4.2c-11.2-1.7-22.2-3.3-34.1-3.2c-6.3,0.1-11.3,0.3-17.5,0.8c-6.6,0.5-16.5,1.5-23.1,2.1
					c-13.4,1.2-23.6,2-35.4,4.2c-6.8,1.3-13.3,3-20.2,4.2c-3,0.5-6.1,1-9.1,1.4c-1.1,0.2-2.4,0.3-3.9,0.3v0.9c0.5,0,0.9-0.1,1.3-0.1
					c11.9-1.2,22.8-4.3,34-6.5c5.7-1.1,11.3-1.7,17.2-2.4c12.7-1.5,26.1-2.4,39-3.3c6.6-0.5,11.3-0.8,18-0.9
					c5.8,0,11.8,0.2,17.5,0.9c6,0.7,13.5,1.8,19.4,2.7c6.2,0.9,12.6,1.7,18.9,2.4c12.7,1.4,25.5,2.4,38.4,3.4
					c6.4,0.5,12.8,0.9,19.1,1.6c6.1,0.6,12.3,1.4,18.4,1.9c6,0.5,12.1,0.7,18.2,0.8c2.9,0,5.8,0.1,8.7,0.1c2.8,0,13.7-0.2,19-0.6
					v-0.9c-3.2,0.2-6.8,0.2-9.2,0.3c-3.2,0.1-3.3,0-6.5,0c-4.5,0-9.1,0-13.6,0C155.8,82.8,150.5,82.4,144.1,81.8"/>
				<path id="XMLID_98_" class="st3" d="M168.3,80.1c-5.3,0-10.5-0.1-15.8-0.2c-13.5-0.4-26.7-1.5-40-2.8c-26.4-2.7-52.9-5-79.3-7.8
					c-5.8-0.6-11.4-1.4-17.2-2.1C10.8,66.5,5.7,67,0.6,67.9c-2.7,0.5-5.2,1-7.8,1.5c-3.2,0.6-7,0.5-10.4,0.7
					c-6.3,0.3-12.6,0.5-18.7,1.3c-6.2,0.8-12.3,1.3-18.6,1.8c-5.9,0.5-11.7,1.1-17.3,2.3c-4,0.9-7.8,1.8-11.8,2.6
					c-2.6,0.5-5.1,0.7-7.7,1c-1.2,0.1-2.4,0.2-3.6,0.3v1.1c0.3,0,0.6-0.1,0.9-0.1c7.1-0.6,13.7-1.8,20.2-3.3
					c5.8-1.3,11.4-2.2,17.6-2.7c6.2-0.5,12.4-0.9,18.5-1.7c6.5-0.9,11.6-1.5,18.2-1.8c3-0.2,7.3-0.4,10.2-0.7c3.1-0.3,6-0.6,9-1.3
					c2.7-0.6,5.4-0.9,8.3-1.2c2.9-0.3,5.8,0,8.7,0.4c5.8,0.7,11.2,1.2,17.1,1.8c26.1,2.8,52.6,5.3,78.7,8c6.5,0.7,13.1,1.3,19.7,1.8
					c6.4,0.5,12.8,0.7,19.2,0.9c7,0.2,14,0.2,21,0.4c3.3,0.1,6.5-0.1,9.7,0c3.3,0,6.5-0.1,9.8-0.4v-1.1
					C183.9,80.1,176.1,80.1,168.3,80.1"/>
				<path id="XMLID_97_" class="st3" d="M169.7,64.9c-5.5,0.5-10,0.6-15.5,1.1c-5.8,0.5-13,0.8-18.9,0.7c-5.8,0-25.2-0.3-31-0.6
					c-5.4-0.3-10.4-0.2-15.9-0.1c-3.4,0-16.2,0.8-19.1,1c-2.2,0.1-15.6,0.9-17.3,1.5c-4.4,1.6,15.9,2.6,18.2,3
					c3.1,0.5,6.3,0.8,9.5,1.1c4.2,0.4,8.3,0.8,12.5,1.1c5.6,0.4,11.2,0.8,16.7,1.3c5.5,0.5,11,1.1,16.5,1.6
					c11,1.1,21.9,1.9,33.2,2.1c10.9,0.2,21.7-0.1,32.3-1.3c0.2,0,0.4-0.1,0.7-0.1v-0.8c-2.6,0.3-5.3,0.5-8.3,0.7
					c-11,0.7-22.5,0.8-33.5,0.4c-11.4-0.4-22.1-1.7-33.1-2.7c-11.1-1.1-27.1-1.9-38.1-3.1c-5.8-0.6-7.8-0.9-13.5-1.5
					c-2.6-0.3-10.2-0.7-10.5-1c-0.1-0.2,1.2-0.4,1.5-0.5c2.6-0.4,14.2-1.3,17-1.4c7.5-0.3,16-0.8,23.4-0.6
					c5.6,0.2,38.7,0.9,47.2,0.7c5.8-0.2,11.7-0.6,18-1.1c5.6-0.4,9.6-0.8,15.3-1.1c4.4-0.2,9.2-0.4,14.6-0.5V64c-0.5,0-1,0-1.4,0
					C184.5,64.1,175.3,64.5,169.7,64.9"/>
				<path id="XMLID_96_" class="st3" d="M163.7,67.9c-5.4,0.6-10.8,1.1-16.4,1.3c-5.6,0.2-11.3,0-17-0.1c-5.8-0.2-11.6-0.5-17.5-0.6
					c-5.6-0.1-11.2-0.1-16.7-0.3c-5.8-0.2-11.7-0.4-17.6-0.3c-2.3,0-4.6,0-6.7,0.5c-2.4,0.6-1.7,0.8,0.3,1.3c4.4,1,8.8,1.5,13.5,1.7
					c10.6,0.4,21.2,1.3,31.7,2.1c11.2,0.9,22.4,1.7,33.7,2.2c10.8,0.4,21,0.7,31.6-0.4c3-0.3,5.9-0.6,8.7-1v-0.8
					c-8.9,1.1-15.1,1.7-25,1.8c-23.2,0.2-46.1-2.6-68.8-4c-4.8-0.3-10.2-0.5-15-0.7c-3.2-0.1-7.1-0.7-9.9-1.5
					c-0.6-0.8,8.3-0.8,10.6-0.7c3.9,0.2,8.5,0.4,11.8,0.5c3.6,0.1,5.6,0.2,9.2,0.2c5.8,0.1,12.7,0.1,18.4,0.3
					c5.8,0.2,12,0.3,17.7,0.4c10.9,0.1,20-0.7,30.5-1.9c6.9-0.7,13.6-1.1,20.4-1.3v-0.7c-2.8,0-6.4,0.1-12.1,0.5
					C174.1,66.7,169,67.3,163.7,67.9"/>
				<path id="XMLID_95_" class="st3" d="M177.4,68.5c-4.1,0.2-8.1,0.7-12.1,1c-8.4,0.8-16.7,1.2-25.4,1c-7.2-0.2-15.2-0.9-22.2,0.2
					c-0.8,0.1-1,0.7,0,0.8c16.7,2,34.2,1.6,51.3,1.5c7.5,0,15.1-0.1,22.5-0.7v-0.6c-7.3,0.6-15.4,0.7-22.5,0.7
					c-12.8,0-26.6,0.2-39.3-0.6c-1.8-0.1-3.6-0.2-5.5-0.3c-1,0-4.6-0.3-4.7-0.5c2.6-0.6,6.2-0.5,8.9-0.5c3.7,0.1,7.1,0.3,10.8,0.4
					c8.1,0.2,16.8,0.1,24.8-0.6c3.9-0.3,7.8-0.8,11.8-1.1c4.4-0.3,8.8-0.3,13.2-0.5c0.9,0,1.7-0.1,2.6-0.1v-0.8c-0.3,0-0.7,0-1,0.1
					C186.2,68.3,181.8,68.3,177.4,68.5"/>
				<path id="XMLID_94_" class="st3" d="M174.9,69.9c-1.2,0.1-5.3,0.2-5.8,0.8c-1.1,1.2,12.5,1,14,0.9c2.6-0.1,5.6-0.2,8.5-0.5v-0.4
					c-0.7,0.1-1.4,0.2-2.2,0.2c-3.4,0.3-5.7,0.2-6.3,0.2c-3.9,0.1-10.6,0.1-11.6-0.3c-1-0.4,9-0.5,13.1-0.7c2.3-0.1,4.6-0.3,6.9-0.4
					v-0.6c-2.5,0.2-4.9,0.3-7.3,0.5C181.3,69.7,177.8,69.7,174.9,69.9"/>
				<path id="XMLID_93_" class="st3" d="M164.7,62.8c-2.1,0.1-4.2,0.2-6.3,0.3c-6.5,0.3-12.9,0.9-19.5,1c-6.6,0.1-18.9-0.2-25.5-0.4
					c-13-0.3-23.3-0.5-36.2,0.2c-6.3,0.3-12.7,0.8-18.9,1.4c-3.1,0.3-7,1.1-10.1,1.2c-3.1,0.1-7.9,0-11-0.1c-6.1-0.2-9.6-1-15.7-1.3
					c-6.2-0.2-12.5,0-18.7,0.3c-12.8,0.6-23.7,2-36.5,0.9c-3.1-0.3-7.8-0.7-10.8-1.1c-4.8-0.6-17.7-2.3-28.4-3
					c-1.7-0.1-13.3-0.4-16.6-0.4c-2,0-4-0.1-6-0.1v0.9c3.9-0.2,14.8-0.4,33.2,1.3c7.6,0.7,14.9,2,22.4,2.7c6.2,0.6,12.4,1,18.8,1
					c6.2,0,11.4-0.6,17.6-0.9c6.3-0.3,13.5-0.9,19.8-0.9c6.1,0,12.5,0.9,18.5,1.2c5.9,0.3,9.2,0.4,15.1,0c6.4-0.4,15-1.7,21.4-2.2
					c12.9-0.9,26.3-0.7,39.4-0.5c6.6,0.1,13.1,0.4,19.7,0.5c6.5,0.1,13-0.1,19.5-0.4c7-0.3,13.4-0.9,20.4-1.2
					c6.8-0.3,14.3-0.4,21.1-0.8c0,0,0.1,0,0.1,0v-0.8c-5.8,0.1-10.6,0.2-11.2,0.3C176.8,62.3,166.4,62.7,164.7,62.8"/>
				<path id="XMLID_92_" class="st3" d="M135.5,62c-14.4-0.1-31.1-1.5-44.6-1.4c-5.6,0.1-11,0.4-16.4,1.1
					c-5.3,0.7-10.4,1.5-15.8,2.1c-2.5,0.3-5.1,0.4-7.7,0.4c-3.1,0-6.2-0.3-9.2-0.5c-5.9-0.5-11.7-1-17.7-1.4c-6-0.3-12-0.4-18,0.1
					C0,62.8-6.2,63.2-12.5,63.4c-6.2,0.2-12.5,0.1-18.6-0.4c-6.1-0.5-12-1.4-17.9-2.2c-5.7-0.7-21.8-2-25.7-2.1
					c-3.9-0.1-6.5-0.1-9.8,0c-1.1,0-5.3,0-10.9,0.2v0.8c2.2,0,4.5-0.1,6.7-0.1c3.3-0.1,6.6,0.1,9.9,0.2c3.1,0.1,15.2,0.7,18,1
					c5.8,0.6,11.5,1.3,17.2,2.1c6,0.8,11.8,1.5,18.1,1.7c5.9,0.2,11.7,0.1,17.5-0.2c6.3-0.4,12.6-1.1,18.9-1.3
					c6.2-0.2,12.5,0.1,18.6,0.6c6,0.5,12,1.2,18.1,1.6c5,0.3,10.1-0.1,14.9-0.7c5.3-0.6,10.4-1.5,15.7-2.1
					c5.8-0.6,11.9-0.7,17.9-0.6c13.7,0.2,28.5,1.6,41.6,1.5c7.3-0.1,14.5-0.6,21.6-1.2c7-0.6,13.9-1.5,21-2c2.2-0.1,4.4-0.3,6.6-0.3
					c1.5,0,3.1,0,4.6-0.1v-0.8c-2.8,0.1-5.9,0.2-9.2,0.4C166.8,59.9,151.2,62.2,135.5,62"/>
				<path id="XMLID_91_" class="st3" d="M121.6,51.9c-4.5,0.3-9.2,0.8-13.7,1.4c-2.3,0.3-11.8,1.3-14.4,1.5
					c-10.5,0.5-17.8-0.2-22.6-1.4c-5-1.2-12.3-1.8-17.9-2.1c-5.8-0.2-9.5-0.1-15.3,0.2c-6.3,0.3-15.3,0.9-21.6,0.8
					C4,52.3-4.6,50.5-16.7,50c-11.9-0.5-25.2-0.1-36.9,1.2c-6.1,0.7-11.2,1.2-17.3,1.9c-11.7,1.2-17,1.4-19.4,1.5
					c-1.5,0.1-3.3,0.1-5.2,0.2v0.8c5.3-0.1,10.1-0.3,12.6-0.5c3.7-0.3,12.6-1,21.5-2c8-0.9,14.2-1.6,22.4-2
					c12.2-0.6,24.6-0.3,36.6,0.9c12,1.3,24,1.7,36.2,1c6-0.3,12.3-0.8,18.4-0.6c3.1,0.1,6.1,0.5,9.2,0.6c3.3,0.1,10.6,2,17.7,2.6
					c5,0.4,8.9,0.3,13.9,0c14.3-0.9,28.4-3.4,43-3.1c6.7,0.1,13.3,0.8,19.8,1.4c9.2,0.9,18.3,1.5,27.6,1.7c2.7,0.1,5.4,0.1,8.1,0
					v-0.8c-4.1,0.1-8.6,0-11.9-0.2c-7.2-0.3-14.5-0.9-21.8-1.6c-6.3-0.6-12.8-1.3-19.1-1.6C132.6,51.2,127.7,51.5,121.6,51.9"/>
				<path id="XMLID_88_" class="st3" d="M-65.4,57c-1.7-0.1-7.4,0-7.6-0.3c-0.3-0.5,3.8-1.2,5.6-1.3c2.8-0.1,7.3-0.4,10.1-0.5
					c5.8-0.4,11.6-1.1,17.4-1.7C-26.7,51.9-13,52.9,0,54.5c5.9,0.7,9.6,1.6,15.6,2.1c6,0.5,13.1,0.5,19.1,0.2
					c6.3-0.3,11.5-0.9,17.7-0.6c2.8,0.1,6,0.4,8.7,0.8c1.5,0.2,4.2,0.4,5.7,0.7c0.2,0,3.6,0.5,3,1.2c-0.4,0.6-6.2,1.2-8.7,1.5
					c-4.7,0.5-10.2,0.7-15,0.8c-6.2,0-11.4-1.1-17.5-1.6c-6-0.5-11.3-0.4-17.2,0c-6,0.4-12.6,1-18.6,1.3c-6.1,0.4-11.7,0.4-17.8,0.1
					c-6.5-0.2-12.8-1.3-19.2-1.9C-51.2,58.4-58.3,57.6-65.4,57 M-19.8,62c6.1,0.1,12.3-0.3,18.4-0.6c6-0.4,12-0.8,18.1-1.1
					C23,60,28.9,60.5,35,61.2c5.4,0.6,10.6,0.9,16.1,0.8c4.8-0.1,9.6-0.5,14.2-1.1c2-0.3,6.4-0.7,6.7-2c0.2-1-2.7-1.6-4.2-1.9
					c-6.4-1.2-13.7-1.7-20.5-1.7c-6.2,0-12.4,0.5-18.5,0.7c-6.4,0.2-11.8-0.1-18-0.9c-5.9-0.8-12.5-1.8-18.5-2.3
					c-6.4-0.6-12.9-1-19.4-1c-8.9,0-17.6,1-26.2,2c-4,0.4-7.9,0.7-11.9,0.9c-2.1,0.1-4.7,0.3-6.6,0.8c-0.8,0.2-3.7,0.7-4,1.2
					c-0.5,1.1,7.5,1,8.3,1.1c3.5,0.3,7.1,0.5,10.7,0.9c6.4,0.6,12.9,1.3,19.3,2.1C-31.6,61.4-25.9,62-19.8,62"/>
				<path id="XMLID_85_" class="st3" d="M-26.3,59.3c-5.9-0.5-12.4-1.1-18.2-1.7c-3.3-0.3-4.3-0.3-7.6-0.5c-2-0.2-4.7-0.4-4.9-0.5
					c-0.7-0.3,6.3-0.5,6.9-0.5c2.6-0.1,5.2-0.1,7.8-0.1c2.1,0,4.5-0.4,6.6-0.5c2.5-0.1,4.6-0.3,7.1-0.4c2.5-0.1,6.1-0.2,8.6-0.1
					c5.6,0.1,10.3,0.6,15.8,1.1c2.6,0.2,5.1,0.5,7.6,1c1.1,0.2,5.4,0.4,5,1c0.1,0.5-9.7,0.6-17,1.4C-14.6,60.1-20.2,59.8-26.3,59.3
					 M7.7,58.7c2.4-0.1,4-0.5,3.6-0.7c-1.5-1.1-10.1-2-13.6-2.5c-6.3-0.8-11.7-1.1-17.8-1.2c-2.7-0.1-5.6-0.2-8.3-0.1
					c-2.5,0-5,0.2-7.4,0.3c-3.2,0.2-5,0.8-8.3,0.8c-4,0-9.3,0.1-12.6,0.7c-0.3,0.1-4.2,0.2-3.7,0.5c0.8,0.5,4.6,0.6,5.8,0.7
					c1.7,0.2,3.7,0.4,5.4,0.6c2.2,0.2,4.4,0.3,6.6,0.6c5.8,0.7,10.8,1.1,16.7,1.6c5.4,0.5,10.5,0.6,15.9,0.2
					C-3.9,59.7,0,59.1,7.7,58.7"/>
				<path id="XMLID_82_" class="st3" d="M54.6,58.3c0.6,0,3.8,0.1,5.6,0.4c0.7,0.1,1.3,0.2,1.2,0.3c0,0.2-1,0.3-1.4,0.3
					c-0.8,0.1-1.7,0.1-2.5,0.2c-0.9,0.1-1.6,0.3-2.5,0.3c-2.1,0.1-4.1,0-6.1-0.1c-2.5-0.1-4.9-0.4-7.4-0.5c-1.6-0.1-5.4-0.3-6.8-0.3
					c-0.5,0-3.2,0-2.6-0.2c1-0.4,4.5-0.5,5.8-0.5c2.5-0.1,5.1-0.1,7.7-0.1C48.8,58.1,51.5,58.2,54.6,58.3 M30.7,58.3
					c-0.8,0.2-2.4,0.6-0.6,0.8c2.5,0.3,5.2,0.4,7.7,0.6c2.9,0.2,5.8,0.4,8.8,0.5c2.8,0.1,5.7,0.3,8.5,0.2c1.5,0,2.7-0.2,4.1-0.4
					c1.5-0.2,3.2-0.2,4.6-0.6c1.6-0.5-0.6-0.9-1.5-1.1c-1.6-0.4-3.5-0.5-5.4-0.6c-4-0.3-8.1-0.3-12.2-0.3c-3.3,0-6.7,0.1-9.9,0.3
					C33.4,57.8,32,58,30.7,58.3"/>
				<path id="XMLID_79_" class="st3" d="M155.7,56.3c6.8,0.2,17.1,0,22.7,1c1.3,0.2-6.4,0.6-7.6,0.7c-6.2,0.4-12.5,1.7-18.6,2.1
					c-9.1,0.7-17.5,0.6-26.6,0.1c-8.8-0.4-17.1-1.4-25.9-1.7c-3.8-0.2-9.6-0.1-13.3,0.4c-1.8,0.2-8,0.6-9.2,0
					c-1.3-0.6,5.9-0.7,9.1-0.8c6.1-0.2,7.6-1.1,11.1-1.4c2.3-0.2,5.5-0.3,7.8-0.4c2.3-0.1,6.6-0.3,8.9-0.4
					c4.6-0.2,19.7-0.7,26.7-0.3C145.3,55.7,151.2,56.2,155.7,56.3 M124.9,54.6c-4.9,0.1-9.8,0.4-14.6,0.6c-4.4,0.2-8.9,0.2-13.2,0.7
					c-1.8,0.2-3.6,0.6-5.3,1c-1.7,0.4-3.7,0.4-5.5,0.5c-3.2,0.2-8.6-0.1-11,1.1c-0.3,0.2-0.3,0.4,0,0.6c2.8,1.3,11.4,0.5,12.8,0.3
					c2.2-0.3,4.8-0.2,7-0.2c9.4,0,18.7,1.1,27.9,1.7c9.2,0.6,18.7,0.7,27.8,0.1c3.5-0.2,7.2-0.6,10.6-1.2c4-0.7,8.2-0.6,12.2-1.2
					c2.9-0.4,9.9-0.6,9.5-1.3c-1-0.7-3.6-0.5-5.1-0.7c-2.8-0.3-5.4-0.6-8.3-0.8c-5.3-0.2-10.7,0-15.9-0.4
					C144.2,54.7,134.5,54.4,124.9,54.6"/>
				<path id="XMLID_76_" class="st3" d="M143.8,57.2c6.2,0.8,10.8,0.4,11,0.7c0.3,0.3-8.9,0.9-10.4,0.9c-3.4,0.1-5.5,0-8.9-0.1
					c-3.5-0.1-6.2-0.3-9.7-0.5c-2.2-0.1-5.4-0.6-7.7-0.6c-1.6,0-4.6,0.2-6.2-0.1c-0.2,0,2.2-0.3,2.3-0.3c0.7-0.1,1.7-0.2,2.4-0.2
					c1.8,0,4.8-0.2,6.7-0.2c3.4,0,5.7,0.3,9.1,0.4C135.8,57.4,140.6,56.8,143.8,57.2 M114.9,56.6c-2.4,0.4-8.1,0.6-8.4,1.1
					c-0.3,0.5,2.7,0.4,3.7,0.4c2.1,0.2,4.1,0.3,6.2,0.3c3.5,0,7,0.5,10.5,0.8c3.3,0.3,6.7,0.3,10,0.5c3,0.1,6,0.2,9,0.2
					c2.1,0,4-0.4,6-0.6c1.8-0.3,3.7-0.5,5.6-0.7c1.1-0.1,5.1-0.4,3.9-0.9c-1.2-0.5-8.3-0.3-9.2-0.3c-4.4-0.3-5.7-0.7-8.7-0.7
					c-3.8-0.1-7.7,0-11.5-0.2c-3.8-0.2-7.6-0.3-11.5-0.2C118.7,56.2,116.7,56.3,114.9,56.6"/>
				<path id="XMLID_75_" class="st3" d="M168.6,43.6c-0.7-0.1-1.3-0.2-1.9-0.2c-2.8-0.4-9.8-2-15.2-1.8c-2.5,0.1-5.5,0.6-4.8,1
					c0.4,0.3,1.9,0.4,2.5,0.5c1.2,0.2,2.4,0.3,3.7,0.5c3,0.4,5.9,0.9,8.9,1.4c4,0.7,8.2,1.2,12.3,1.7c5.3,0.7,11.1,1.1,17.5,0.3
					v-0.7c-2.1,0.2-5.4,0.3-7.9,0.3c-4-0.1-7.5-0.4-11.3-0.9c-3.6-0.4-7.1-1-10.6-1.5c-1.5-0.2-2.8-0.5-4.1-0.7
					c-1.6-0.3-3.1-0.6-4.9-0.8c-0.4,0-3.8-0.5-2.8-0.6c2.4-0.3,6.2,0.2,7.4,0.3c2,0.3,3.8,0.7,5.7,1.1c1,0.2,1.9,0.4,2.9,0.5
					c7.9,1.3,18.9,0.8,25.6,1.6v-0.6c-4.7-0.6-9.3-0.7-14.3-1C174.6,44,171.3,43.9,168.6,43.6L168.6,43.6z"/>
				<path id="XMLID_72_" class="st3" d="M77.2,44.2C85,44.1,92,45.5,99,46.9c1.3,0.3,8.1,1.2,12.2,1.6c2.6,0.3,9.5,0.9,10.1,0.9
					c0.5,0,2.2,0.2,3.2,0.3c0.2,0.2-2,0.3-2.7,0.4c-0.9,0.1-1.9,0.2-2.8,0.3c-2.2,0.2-4.5,0.3-6.6,0.6c-2.2,0.3-6.6,0.7-8.7,1.1
					c-4.2,0.7-9.6,1-14.1,1.2c-4.7,0.2-8.9-0.3-13.3-1.1c-7.6-1.3-14.6-3-22.8-3.1c-3.3,0-8.8-0.2-12.1-0.4
					c-2.3-0.2-8.3-1.1-8.1-1.8c0.2-0.8,8.4-1.2,8.9-1.3c4-0.4,7.2-0.6,11.2-0.6C61.2,45.1,69.6,44.3,77.2,44.2 M40.3,44.9
					c-1.5,0.2-10.5,1.1-9.2,2.2c0.9,0.7,6,1.9,7.6,2.1c3.3,0.5,7.6,0.6,11,0.6c3.6,0,6.8,0.1,10.2,0.6c4.9,0.7,9.7,1.7,14.5,2.6
					c4.1,0.7,8.1,1.2,12.5,1.1c4.3,0,10.5-0.5,15.1-1.1c3.6-0.4,10.3-1.4,11.8-1.5c0.7-0.1,1.4-0.2,2.2-0.3c1-0.1,2-0.2,3-0.2
					c1.6-0.1,3.1-0.2,4.6-0.5c1.3-0.3,2.8-0.3,4.1-0.6c0.4-0.1,1.1-0.2,0.8-0.4c-0.2-0.1-1.4-0.2-1.7-0.3c-0.9-0.1-1.8-0.1-2.7-0.2
					c-0.8-0.1-1.4-0.2-2.2-0.3c-2-0.2-4-0.4-6.1-0.6c-4-0.4-11.6-1.3-15.5-2c-0.8-0.2-1.7-0.3-2.5-0.5c-4.3-0.9-8.4-1.7-12.7-2.2h0
					c-2.6-0.3-5.2-0.5-8.1-0.5c-3.3,0-6.5,0.2-9.8,0.5c-4.5,0.3-8.9,0.7-13.5,0.7C49.3,44.3,44.7,44.2,40.3,44.9"/>
				<path id="XMLID_69_" class="st3" d="M73.6,46.3c4.9,0.2,9.8,0.3,14.7,0.9c3.5,0.4,6.9,0.9,10.2,1.5c1.6,0.3,3.6,0.7,5.2,0.9
					c1.1,0.1,3.4,0.3,4,0.4c0.8,0.2-4,0.5-5.1,0.5c-2.6,0.1-5.4,0.3-8,0.6c-5.9,0.6-11.3,0.9-17-0.1c-5.1-0.9-10.2-2.2-15.4-2.8
					c-2.6-0.3-5.2-0.6-7.9-0.7c-2.6-0.1-7.1,0.2-9.1,0.1c-2-0.1,5.4-0.8,6.9-1.1c2.2-0.3,4.6-0.3,6.8-0.4
					C63.8,45.9,68.7,46.1,73.6,46.3 M41.5,47.6c0.6,0.8,4.3,0.6,5.6,0.6c2.5,0,4.8-0.1,7.3,0.1c8.1,0.6,15.7,2,23.3,3.4
					c5,0.9,9.8,0.9,15,0.4c2.9-0.3,5.8-0.5,8.7-0.7c2-0.2,3.8-0.4,5.7-0.5c1.6-0.1,3.8-0.3,4.8-0.8c0.6-0.3-4.3-0.5-5-0.6
					c-2.7-0.4-3.9-0.7-5.8-1.1c-4.1-0.8-8.3-1.4-12.5-1.9c-5.1-0.6-10.4-0.7-15.6-0.9c-5.2-0.2-10.5-0.3-15.7-0.1
					C56,45.4,41,46.9,41.5,47.6"/>
				<path id="XMLID_66_" class="st3" d="M83.7,47.9c1.9,0.1,3.7,0.3,5.5,0.6c1,0.2,2.1,0.3,3,0.5c0.3,0.1,0.5,0.1,0.8,0.2
					c0.4,0.1,0.9,0,0.7,0.3c-0.1,0.1-0.6,0.2-0.9,0.3c-0.8,0.2-1.7,0.2-2.6,0.3c-0.6,0.1-1.3,0.1-1.9,0.1c-0.7,0-1.4,0-2.1,0
					c-1.5,0-2.9-0.1-4.4-0.2c-0.9-0.1-1.8-0.2-2.6-0.3c-1.3-0.2-2.7-0.5-4-0.7c-1.2-0.2-2.4-0.4-3.5-0.6c0-0.1,0.1-0.1,0.4-0.2
					c0.9-0.2,3.2-0.3,3.7-0.3C78.3,47.7,81,47.7,83.7,47.9 M69.5,48.4c0.4,0.2,1.2,0.3,1.7,0.5c1.9,0.5,3.9,1,6,1.3
					c2,0.3,4.1,0.5,6.2,0.6c2.2,0.2,4.4,0.1,6.6,0c1-0.1,1.9-0.3,2.8-0.3c1-0.1,1.9-0.3,2.7-0.5c0.6-0.2,0.6-0.4,0.3-0.6
					c-0.5-0.3-1.9-0.5-2.5-0.6c-2-0.3-3.3-0.7-5-0.9c-3.5-0.5-7.2-0.7-10.9-0.5C76.6,47.3,68,47.6,69.5,48.4"/>
				<path id="XMLID_63_" class="st3" d="M164.9,163.4c0.5,0.4-4.3,0.4-5.6,0.4c-3,0.1-5.9,0.1-8.8,0.3c-6.7,0.5-12.3,1.2-19,1.7
					c-5.6,0.4-12.6,0.5-18.1,1.4c-2.3,0.4-4.6,0.8-6.9,1.1c-1.8,0.2-3.9,0.5-5.9,0.3c1.7-0.5,3.8-0.6,5.7-0.9
					c2.5-0.4,4.9-0.9,7.5-1.3c5.8-0.8,11-2,16.4-3.2c6.3-1.4,12.6-1,19.1-0.3c2.9,0.3,5.4,0.3,8.3,0.3
					C158.2,163.2,164.4,163,164.9,163.4 M160.5,162.6c-2.5,0-4.6,0.2-6.4,0c-1.1-0.1-3.1-0.4-4.2-0.5c-6.1-0.7-12-1.2-18.1-0.2
					c-2.9,0.5-5.6,1.3-8.3,1.9c-3.2,0.7-6.6,1.3-10,1.7c-2.9,0.4-5.7,1.1-8.5,1.5c-2.2,0.3-4.5,0.6-6.2,1.4
					c-0.4,0.2-0.2,0.5,0.3,0.6c2.2,0.4,8.9-0.4,12.8-1c5.9-0.9,12.1-1.1,18.3-1.5c7.3-0.5,14.5-1,21.8-1.6c3.2-0.3,6.5-0.4,9.8-0.5
					c1.9,0,4.1-0.1,5.6-0.7c0.5-0.2,0.2-0.6-0.4-0.7C164.8,162.6,162.6,162.6,160.5,162.6"/>
				<path id="XMLID_60_" class="st3" d="M148.6,89.9c3.6,0.4,7.5,1.2,10.7,2.2c0.5,0.2,0.9,0.3,1.3,0.5c-0.1,0-1.9-0.1-2.3-0.1
					c-1.8-0.2-3.6-0.6-5.4-0.8c-2.1-0.3-4.1-0.5-6.2-0.6c-2-0.1-4.2-0.1-5.9-0.7c0.4-0.1,0.9-0.1,1.4-0.2
					C144.3,89.9,146.3,89.7,148.6,89.9 M139.3,90.4c0,0.4,1.1,0.6,2.1,0.7c2.3,0.5,4.8,0.7,7.2,1c3.1,0.4,6.5,0.6,9.6,0.9
					c1.1,0.1,4.9,0.5,4.8,0.1c-0.2-0.7-2-1-3-1.3c-2.3-0.7-5.1-1.6-7.6-2.1c-2.8-0.6-5.3-0.8-8.3-0.5
					C143.2,89.3,139.3,89.6,139.3,90.4"/>
				<path id="XMLID_57_" class="st3" d="M17.5,44.2c-0.6,0.2-0.7,0.6-0.2,0.8c1.2,0.7,2.4,2,2.3,2.8c-5.8-0.6-12.5-1-18.5-1.3
					c-2.9-0.2-5.8-0.4-8.7-0.6c-1.2-0.1-2.6-0.2-3.8-0.2c-1.4,0-2.7,0.3-4.1,0.2c1.3-0.5,3-0.8,4.4-1.2c1.3-0.4,2.5-0.8,3.7-1.2
					c0.3-0.1,0.5-0.2,0.8-0.3c1.1-0.4,2.1-0.9,3.1-1.4c1.2-0.5,2.4-1,0.9-1.7c-1.1-0.4-2.4-0.7-3.7-0.9c-2.6-0.4-5.4-0.4-8.1-0.8
					c-2-0.3-4.1-0.3-6.1-0.6c0.4-0.6,4.8-0.3,5.7-0.4c1.2,0,2.3-0.1,3.4-0.1c2,0,4.1,0,6.1,0c3.3,0,5.4,0.1,8.7,0.2
					c2,0.1,3.6,0.2,5.6,0.2c2.1,0,4.1-0.1,6.2,0.1c2.1,0.2,4.2,0.1,6.4,0.2c2.3,0.1,4.7,0.1,7,0.1c2,0,4.1,0.1,6.1,0.2
					c0.7,0,1.4,0.2,2.1,0.3c1.1,0.2,2.2,0.5,3.4,0.5c1.5,0,3-0.1,4.4,0.1c0,0.3-2.1,0.5-2.6,0.6c-2.2,0.4-4.1,1.1-6.4,1.5
					c-2.1,0.3-4.3,0.6-6.4,0.8c-3.1,0.4-6.8,0.6-9.8,1.3C18.8,43.8,18.2,44,17.5,44.2 M25.2,43.6c2-0.2,4-0.6,6.1-0.7
					c2.4-0.2,5-0.6,7.2-1.1c1.3-0.3,2.4-0.8,3.8-1c1.6-0.3,3.2-0.6,4.8-1c1.5-0.4,1.3-0.5-0.3-0.7c-1.1-0.1-2.2-0.2-3.3-0.2
					c-1.3,0-1.9-0.1-3-0.3c-1.9-0.4-4.1-0.6-6.2-0.7c-7.3-0.5-14.8-0.3-22.1-0.6c-11.7-0.5-23.2-1-34.7,0.4c-0.8,0.1-0.9,0.8,0,0.9
					c3.2,0.3,6.5,0.5,9.8,0.7c2,0.2,4,0.4,5.9,0.7c1.2,0.2,3.2,0.4,4,1c-0.2,0.2-0.5,0.3-0.8,0.4c-0.7,0.3-1.4,0.6-2.1,1
					c-1,0.4-2.1,0.9-3.2,1.3c-0.7,0.3-1.5,0.6-2.3,0.8c-1.9,0.6-4.2,0.8-6.3,1.3c-1.4,0.3-0.3,0.5,0.6,0.6c1.4,0.2,2.8,0.1,4.3,0.2
					c4.1,0.2,8.3,0.3,12.4,0.5c6.6,0.4,13.2,0.8,19.8,1.6c0.5,0.1,1.2-0.1,1.3-0.4c0.3-0.7,0.3-1.4,0-2c-0.2-0.4-1.3-1.1-1.1-1.5
					c0.3-0.8,3.4-0.9,4.6-1C24.6,43.7,24.9,43.6,25.2,43.6L25.2,43.6z"/>
				<path id="XMLID_56_" class="st3" d="M138.4,180.6c-6.6,0-12.2,0.2-18.8,0.1c-7.4-0.1-13.9-0.2-21.3-0.1c-3.6,0.1-9,0.3-12.2,1.1
					c-1.2,0.3-5.9,0.8-4.6,1.9c0.6,0.5,7.7,1.2,9.5,1.4c1.5,0.1,12.4,1.5,16.6,2c0.2,0,0.5,0.1,0.7,0.1h8.5c-1.3-0.1-2.7-0.3-4-0.4
					c-4.5-0.5-8.9-1.1-13.4-1.5c-3.2-0.3-6.4-0.7-9.6-1c-1.4-0.1-3.8-0.3-4.8-0.8c0.8-0.5,3.8-1.1,5.1-1.3c2.3-0.3,4.8-0.4,7.3-0.4
					c6.3,0,12.6,0,19,0.1c13.3,0.3,26.4,0.2,39.7-0.2c6.5-0.2,13.1-0.5,19.6-0.2c5.7,0.3,10.6,1.6,15.9,2.4v-0.9
					c-2.1-0.4-4.2-0.9-6.3-1.3c-2.6-0.5-5.3-0.9-8-1.1c-6.1-0.5-12.6-0.3-18.8-0.2C151.7,180.4,145.1,180.5,138.4,180.6"/>
				<path id="XMLID_55_" class="st3" d="M134.4,183.1c-3,0.1-5.7-0.3-8.7-0.4c-7.9-0.3-11.7-0.4-17.6-0.5c-2.6,0-5.1,0.1-7.7,0.3
					c-2.3,0.1-4.5,0.5-6.8,0.5c-0.5,0-1.8,0.1-1.8,0.2c0.1,0.1,1.3,0.2,1.8,0.3c1.3,0.2,2.6,0.3,4,0.4c0.8,0.1,3.9,0.2,4.7,0.2
					c3.8,0.3,7.5,0.7,11.3,1c5.8,0.5,11.4,1.2,17.1,1.8h11.5c-0.3,0-0.7-0.1-1.1-0.1c-7.7-0.7-15.8-1.3-23.5-2
					c-12.7-1.2-18-1.4-18.6-1.5c-0.8-0.2,4.6-0.5,6.4-0.5c4,0,10.6,0.1,14.5,0.4c3.4,0.3,16.7,0.6,22,0.4c9.3-0.4,16.5,0.7,23.1,1.3
					c6.1,0.5,10.5,1.3,16.6,1.6c2.4,0.1,4.7,0.2,7,0.4h2.8v-0.9c-1.2-0.2-2.5-0.3-3.7-0.3c-3.4-0.2-6.8-0.3-10.2-0.6
					c-9.6-0.6-16.9-2.1-26.6-2.5C146.2,182.7,139.2,183,134.4,183.1"/>
				<path id="XMLID_54_" class="st3" d="M151.5,185c-2.5,0.1-5.5,0.6-4.8,1c0.4,0.3,1.9,0.4,2.5,0.5c1.2,0.2,2.4,0.3,3.7,0.5h4.7
					c-1.6-0.3-3.1-0.6-4.9-0.8c-0.4,0-3.8-0.5-2.8-0.6c2.4-0.3,6.2,0.2,7.4,0.3c2,0.3,3.8,0.7,5.7,1.1h5.6c-0.7-0.1-1.3-0.2-1.9-0.2
					C163.8,186.4,156.9,184.8,151.5,185"/>
				<path id="XMLID_53_" class="st3" d="M67.3,187.1h17.9c-2.6-0.3-5.2-0.5-8.1-0.5C73.8,186.6,70.6,186.8,67.3,187.1"/>
				<path id="XMLID_52_" class="st3" d="M162.7,175.7c-6.3,0.3-12.4,1-18.6,1.5c-6.5,0.5-13,0.7-19.5,0.7c-3.1,0-6.2-0.1-9.3-0.2
					c-3.5-0.1-7,0-10.5,0.2c-4.9,0.2-11.5,1-16.4,1.5c-3.5,0.3-17.6,3.3-21.7,4.6c-2.1,0.7-3.7,1.1-6,1.4c-3,0.5-6,0.5-5.6,1.1
					c0.3,0.6,8.7,0.2,11.8,0c2.9-0.2,5.8-0.5,8.8-0.7c4.4-0.3,7-0.2,12.1,0.6c1.3,0.2,2.7,0.4,4,0.7h5.7c-6.8-1-12.7-2.4-20.3-2
					c-2.1,0.1-5.5,0.3-7.5,0.5c-1.6,0.1-6.5,0.6-8.1,0.6c-1,0,2.6-0.6,4.7-1.1c2.2-0.6,5.3-1.5,7.6-2c5.4-1.3,11.9-2.5,17.7-3.1
					c5-0.5,8.2-0.7,13.3-0.9c3.2-0.2,6.5-0.3,9.7-0.2c3.3,0.1,6.7,0.2,10,0.2c6.2,0,12.3-0.3,18.4-0.8c6.6-0.5,13-1.3,19.7-1.6
					c6.3-0.3,12.6-0.2,18.8,0.4c3.4,0.3,6.8,0.9,10.1,1.4v-1c-3.6-0.6-7.2-1.2-11-1.5C174.6,175.4,168.6,175.4,162.7,175.7"/>
				<path id="XMLID_51_" class="st3" d="M65.5,183.5c3.3-0.8,6.3-2,9.6-2.8c3.6-0.9,7.6-1.4,11.4-2.1c1.1-0.2,1-1-0.3-1
					c-12.4,0-24.3,2.1-36.7,2.2c-12.9,0.1-25.7-1.2-38.5-1.6c-13.1-0.4-26.2,0.6-39.3,0.7c-2.1,0-4.1,0-6.2,0
					c-5.2,0-10.3-0.1-15.4-0.3c-4.8-0.2-9.7-0.1-14.6-0.2c-3.8-0.1-7.5-0.3-11.3-0.3c-1.4,0-2.9,0-4.3,0.1c0.7,0.3,2.2,0.3,3.1,0.4
					c7.8,0.7,15.7,1.3,23.5,2.1c4.6,0.5,9.1,1,13.6,1.5c3.6,0.4,7,1,10.7,1.1c3,0.1,5.9,0.2,8.8,0.6c1.9,0.2,5.5,1,4.2,2.3
					c-0.3,0.3-0.7,0.5-1.2,0.7h1.9c0.2-0.1,0.3-0.3,0.5-0.5c2.3-2.9-6.6-3.8-10.3-4c-3.4-0.2-6.6-0.3-9.9-0.7
					c-5.4-0.7-10.8-1.3-16.3-1.8c-2.5-0.2-5.5-0.2-7.8-0.7c0.7-0.1,1.7-0.1,2.5-0.1c4.2,0,8.2,0.4,12.3,0.5
					c13.5,0.3,26.7-0.2,40.1-0.6c6.7-0.2,13.4-0.2,20,0.1c6.5,0.3,13,0.7,19.6,1c6.5,0.3,13,0.4,19.5,0.2c6.1-0.2,12.1-0.9,18.1-1.4
					c2.5-0.2,5-0.4,7.5-0.5c-1.5,0.3-3,0.5-4.5,0.9c-3.9,0.8-7.2,2.2-10.9,3.2c-3.7,0.9-7.6,1.3-11.5,1.7c-4.7,0.5-9.4,0.8-14.1,1.3
					c-3.1,0.4-6.1,0.9-9.1,1.4h5.7c3-0.4,6.2-0.7,9.3-1C52,185.5,59.2,185.1,65.5,183.5"/>
				<path id="XMLID_50_" class="st3" d="M38.5,185.2c1.3-0.3,2.4-0.8,3.8-1c1.6-0.3,3.2-0.6,4.8-1c1.5-0.4,1.3-0.5-0.3-0.7
					c-1.1-0.1-2.2-0.2-3.3-0.2c-1.3,0-1.9-0.1-3-0.3c-1.9-0.4-4.1-0.6-6.2-0.7c-7.3-0.5-14.8-0.3-22.1-0.6
					c-11.7-0.5-23.2-1-34.7,0.4c-0.8,0.1-0.9,0.8,0,0.9c3.2,0.3,6.5,0.4,9.8,0.7c2,0.2,4,0.4,5.9,0.7c1.2,0.2,3.2,0.4,4,0.9
					c-0.2,0.2-0.5,0.3-0.8,0.4c-0.7,0.3-1.4,0.6-2.1,1c-1,0.4-2.1,0.9-3.2,1.3h1.7c0.3-0.1,0.5-0.2,0.8-0.3c1.1-0.4,2.1-0.9,3.1-1.4
					c1.2-0.5,2.4-1,0.9-1.7c-1.1-0.4-2.4-0.7-3.7-0.9c-2.6-0.4-5.4-0.4-8.1-0.8c-2-0.3-4.1-0.3-6.1-0.6c0.4-0.6,4.8-0.3,5.7-0.4
					c1.2,0,2.3-0.1,3.4-0.1c2,0,4.1,0,6.1,0c3.3,0,5.4,0.1,8.7,0.2c2,0.1,3.6,0.2,5.6,0.2c2.1,0,4.1-0.1,6.2,0.1
					c2.1,0.2,4.2,0.1,6.4,0.2c2.3,0.1,4.7,0.1,7,0.1c2,0,4.1,0.1,6.1,0.2c0.7,0,1.4,0.2,2.1,0.3c1.1,0.2,2.2,0.5,3.4,0.5
					c1.5,0,3-0.1,4.4,0.1c0,0.3-2.1,0.5-2.6,0.6c-2.2,0.4-4.1,1.1-6.4,1.5c-2.1,0.3-4.3,0.6-6.4,0.8c-3.1,0.4-6.8,0.6-9.8,1.3h5.7
					c2-0.2,4-0.6,6.1-0.7C33.7,186.1,36.3,185.8,38.5,185.2"/>
				<path id="XMLID_49_" class="st3" d="M20.9,185.4c2.1-0.2,3.8-0.5,5.4-1.2c0.4-0.2,0.4-0.6,0-0.8c-2-0.9-4.9-1.1-7.4-1.2
					c-3.3-0.2-6.8-0.1-10.1,0.1c-2.3,0.1-4.7,0.2-5.9,1.3c-1.4,1.5-3.7,2.6-6.4,3.4h2.5c1.3-0.5,2.3-1.1,3.2-1.7
					c0.8-0.5,1.4-1,2-1.6c0.5-0.5,2.4-0.5,3.4-0.5c3.1-0.2,6.2-0.3,9.4-0.2c2.4,0,5.9,0,8.3,0.6c-1.1,1.3-7.1,0.9-10,2
					c-1.1,0.4-1.8,0.7-1.9,1.5c0,0,0,0,0,0h1.1c0-0.1,0-0.1,0.1-0.2C15.1,185.7,19,185.6,20.9,185.4"/>
				<path id="XMLID_46_" class="st3" d="M11.7,184.9c-1.8,1.1-4.4,1.7-7.3,2C6.8,185.9,8.9,185.1,11.7,184.9 M11.6,185.8
					c0.7-0.6,1.3-1.2,2.8-1.4c0.5-0.1,1.2-0.1,1.5-0.3c-1.8-0.3-3.3,0.4-5,0.5c-1.7,0-3,0.3-4.4,0.8c-1.1,0.4-2,0.9-3,1.3
					c-0.3,0.1-0.7,0.3-1.1,0.4h5c0.2,0,0.4,0,0.6-0.1C9.6,186.8,10.9,186.4,11.6,185.8"/>
				<path id="XMLID_45_" class="st3" d="M181.6-9.2c-2,0.5-4,1-6.1,1.3c-2.1,0.3-4.1,0.2-6.2,0.3c-1.5,0.1-3.1,0.7-3.6,1.6
					c-0.6,0.9,0,1.8,1.1,2.5c0.7,0.4,1.8,0.7,2.8,0.9c0.5,0.1,1,0.1,1.5,0.3c0.5,0.1,1,0.2,1.5,0.3c0.4,0,0.7,0.1,1.1,0.2
					c0.6,0.1,1.3,0.2,2,0.3c0.8,0.1,1.6,0.1,2.4,0.2c1.3,0.2,2.6,0.4,3.9,0.7c3,0.6,6,1.1,9.2,0.9c0.1,0,0.3,0,0.4,0v-0.5
					c-1.4,0.1-2.7,0.1-4.1,0c-1.7-0.1-3.3-0.5-4.9-0.7c-0.5-0.1-1-0.2-1.5-0.3c-0.6-0.1-1.3-0.1-1.9-0.2c-1.3-0.2-2.5-0.5-3.9-0.5
					c-0.8,0-1.5-0.1-2.3-0.3c-0.5-0.1-1-0.1-1.4-0.2c-0.7-0.1-1.3-0.3-1.9-0.5c-1.2-0.3-2.3-0.6-3-1.2c-0.9-0.9-0.2-1.9,1.2-2.4
					c1.2-0.5,2.7-0.4,4.1-0.4c1.4,0,2.8-0.1,4.2-0.3c2.8-0.4,5.4-1.1,8.1-1.7c2.4-0.5,4.9-0.5,7.4-0.7v-0.6
					c-1.2,0.1-2.5,0.1-3.7,0.2C185.6-10,183.6-9.7,181.6-9.2"/>
				<path id="XMLID_44_" class="st3" d="M159.8-9.5c-3.5,0.5-9.5,1.1-14.2,1.5c-2.4,0.1-4.8,0.3-7.2,0.5c-2.9,0.2-5.9,0.2-8.9,0.2
					c-3.2,0.1-6.4,0.5-9.7,0.8c-1,0-2,0-3.1,0c-3.4,0-6.8-0.2-10.2-0.5c-3.2-0.3-6.4-0.6-9.7-0.6c-3.3,0-6.6,0.2-9.9,0.3
					c-6.7,0.2-13.5,0-20.2,0c-4.3,0-8.5-0.1-12.8,0c-4.3,0-8.5,0.2-12.7,0.5C33.1-6.4,25-5.9,16.9-5.3c-2.8,0.2-5.6,0.4-8.5,0.6
					C5.3-4.5,2.2-4.3-0.8-3.9c-3,0.4-5.9,1.1-8.7,1.8c-5.7,1.3-11.3,2.7-17.2,3.7c-6.1,1.1-12.3,1.5-18.6,2
					C-51.9,4-58.5,4.2-65.1,3.7c-3.1-0.2-6.2-0.6-9.4-0.7c-3.3-0.2-6.5-0.2-9.8-0.3c-3.3-0.1-6.6-0.2-9.8-0.4c-0.4,0-0.9,0-1.3,0V3
					c5.7,0.2,11.4,0.4,17,0.5c3.3,0.1,6.6,0.2,9.8,0.5c3.2,0.3,6.4,0.5,9.6,0.6c6.4,0.1,12.8-0.4,19.1-0.9c3.1-0.2,6.1-0.5,9.2-0.9
					c3-0.4,5.9-1,8.8-1.5c5.8-1.2,11.4-2.6,17.2-3.8c2-0.4,4-0.8,6.1-1C3.7-3.8,6.1-4,8.4-4.1c2.3-0.2,4.5-0.3,6.8-0.5
					c2.9-0.2,5.5-0.5,8.4-0.6c4.1-0.1,8.2-0.5,12.3-0.7c6.9-0.3,13.7-0.5,20.6-0.5c6.8,0,13.6,0,20.4-0.1c3.4,0,6.7,0,10.1-0.1
					c3.3-0.1,6.6-0.2,9.9-0.2c3.8,0,7.6,0.5,11.4,0.8c1.3,0,2.6,0,3.9,0c5.8,0.7,11.6-0.4,17.3-0.6c4.1-0.2,8.1-0.4,12.2-0.6
					c8.7-0.4,17.2-1.4,25.5-2.8c6.3-1.1,12.5-2.2,18.9-2.9c1.8-0.2,3.6-0.4,5.4-0.6v-0.5c-4.4,0.4-8.7,0.9-13,1.6
					C172.2-11.6,166.1-10.3,159.8-9.5"/>
				<path id="XMLID_40_" class="st3" d="M71.6,8.7C78,9.1,84.5,9.1,91,9c6-0.1,12.6-0.5,18.4,0.4c1.9,0.3,3.9,0.2,5.8,0.3
					c0.9,0.1,1.7,0.3,2.5,0.5c-0.2,0.4-1.3,0.8-1.9,1c-2,0.7-4.6,0.9-6.9,1.1c-2.6,0.3-4.9,0.7-7.3,1.3c-3,0.7-6.1,1.4-9.2,1.9
					c-3.1,0.5-6.2,0.9-9.3,1.5c-3,0.5-6,1-8.9,1.5c-6,1-12.2,1.8-18.5,2c-6.8,0.3-13.7,0-20.5-0.2c-6.9-0.2-13.9-0.5-20.8-0.7
					c-6.8-0.2-13.6-0.2-20.4-0.1c-3.9,0-7.7,0-11.5-0.3c-2.7-0.2-5.3-0.4-8-0.5c-2.8-0.1-5.6-0.2-8.4-0.5c-1.9-0.2-4.1-0.5-5.8-1.1
					c2.2-0.7,4.7-1.3,7.1-1.8c2.9-0.6,5.8-1,8.8-1.4c6.1-0.8,12.2-1.3,18.3-1.9c0.9-0.1,1.8-0.2,2.6-0.3c-0.1,0-0.1,0-0.2,0
					c-2.5,0.4-5,1-7.5,1.3c-4.3,0.6-9.3,0.8-12.9,2.3c-0.3,0.1-0.4,0.5,0.1,0.6c6.1,0.7,12.3,0.9,18.6,0.8c6.5,0,13-0.5,19.5-0.4
					c13.3,0.2,26.4,2,39.8,1.5c4.2-0.1,8.3-0.5,12.4-1c4.3-0.5,8.5-1.3,12.7-2c4.6-0.7,9.3-1.3,14-1.8c1.2-0.1,15-0.7,13.8-1.7
					c-0.9-0.7-2.6-0.8-4-0.8c-2-0.1-4,0.1-6,0.2c-2.7,0.1-5.4,0.1-8.1,0.1c-3.3,0.1-6.7,0.1-10,0.1c-6.6,0-12.9-0.8-19.3-1.7
					c-6.3-0.9-12.6-1.7-19.1-2.1c-5.5-0.3-11.1-0.2-16.6,0.3c2.7-0.4,5.5-0.7,8.3-0.9C45.7,5.4,58.5,7.7,71.6,8.7 M89.5,11.4
					c2.4,0,4.9,0,7.3-0.1c1.7-0.1,3.4-0.2,5.2-0.2c1,0,2.8-0.1,3.8,0.3c-2.5,0.8-6.6,0.7-9.4,0.9c-3.3,0.2-6.7,0.4-10,0.8
					c-3.3,0.4-6.5,0.8-9.7,1.3c-3.2,0.5-6.4,1.1-9.6,1.5c-6.3,0.8-12.8,1.2-19.3,1.2c-6.7,0-13.4-0.5-20-0.9
					c-4.3-0.3-8.6-0.5-12.8-0.6c-4.4-0.1-8.6,0.1-13,0.3c-7.9,0.3-16,0.2-23.8-0.5C-18,14-13.1,13.9-9,13.2c3-0.4,5.9-1.1,8.9-1.6
					c3.3-0.6,6.6-1.1,9.8-1.7C16,8.9,22.3,8,28.9,7.7c6.5-0.3,13.1,0.1,19.5,0.7c5.5,0.6,10.9,1.4,16.3,2.1c5.5,0.7,10.8,1,16.4,1
					C83.9,11.5,86.7,11.5,89.5,11.4 M28.7,6C22.2,6.6,15.9,7.7,9.6,8.8c-3.1,0.5-6.3,1.1-9.4,1.5c-3,0.5-6,0.8-9.1,1.1
					c-6.1,0.6-12.3,1.1-18.3,2c-2.6,0.4-5.1,0.8-7.6,1.4c-2.2,0.5-4.5,1.1-6.5,1.8c-0.4,0.1-0.5,0.4-0.1,0.6c2.8,1.5,7.3,1.7,11,2
					c2.2,0.1,4.4,0.2,6.5,0.3c2.2,0.1,4.4,0.3,6.6,0.5c6.5,0.4,13,0.2,19.5,0.2c6.9,0,13.9,0.2,20.8,0.5c6.9,0.2,13.9,0.5,20.8,0.7
					c6.5,0.1,13,0.1,19.4-0.6c6.1-0.6,12-1.7,17.9-2.7c6.2-1,12.4-1.9,18.5-3.2c2-0.5,4-1,6.1-1.4c1.7-0.3,3.6-0.4,5.4-0.6
					c2.6-0.3,6.5-0.8,7.6-2.4c0.8-1.2-3.2-1.3-4.4-1.4c-0.6,0-1.3,0-1.9,0c-2.8-0.3-5.7-0.5-8.5-0.6c-5.5-0.2-11-0.1-16.5-0.1
					c-3.3,0-6.6,0-10-0.1c-3.4-0.1-6.7-0.4-10.1-0.7C61,6.9,54.5,6.1,48,5.7C41.5,5.2,35.1,5.3,28.7,6"/>
				<path id="XMLID_39_" class="st3" d="M163.5-1.3c-4.5-1.1-9.9-1.4-14.8-1.8c-1.4-0.1-2.8-0.4-4.3-0.5c-4.3-0.4-8.6-0.6-13-0.5
					c-6.8,0.1-13.5,0.9-20.2,0.5C104.4-4.1,98.8-2.8,92-2.5c-3.3,0.1-6.4,0.1-9.7-0.1c-1.5-0.1-3.1-0.1-4.7,0
					c-1.8-0.1-4-0.1-5.9-0.2c0,0,0,0,0,0c0,0-0.1,0-0.1,0C70-3,68.7-3,67.9-3c-3.2-0.2-6.5-0.1-9.7-0.2c-5.3-0.1-10.6-0.2-15.9-0.2
					c-5.5,0.1-10.7,0.7-16.1,1.3c-2.1,0.2-4.2,0.5-6.3,0.7c-1.7,0.3-3.3,0.7-5.1,0.9c-0.1,0-0.2,0-0.3,0C12,0,9.4,0.4,6.7,0.6
					C5.6,0.8,4.4,0.9,3.3,1.1c-0.3,0.1-0.7,0.1-1,0.2C0.4,1.4-1.5,1.5-3.4,1.6c-6.7,0.5-13.3,1.2-19.6,2.7c-5.9,1.4-11.5,3.1-17.7,4
					c-3.1,0.5-6.1,0.6-9.3,0.4c-3.2-0.2-6.4-0.6-9.6-1.1c-6.5-0.9-13.1-1.3-19.8-1.4c-5.3-0.1-10.7-0.1-16-0.2v0.8
					c0.8,0,1.7,0,2.5,0.1C-85.8,7-78.7,7-71.6,7.3c3.3,0.2,6.6,0.4,9.9,0.9c3.1,0.4,6.2,0.9,9.4,1.1c2.9,0.3,5.8,0.4,8.7,0.1
					c3.1-0.3,6.2-0.9,9.1-1.5c5.9-1.3,11.5-3.1,17.6-4.1C-12,2.9-6.8,2.5-1.6,2.1c0,0,0,0,0,0C1.9,2,5.2,1.7,8.6,1.1
					c5-0.8,10.1-1.7,15.2-2.4c0,0,0.1,0,0.1,0c0.1,0,0.2,0,0.3,0c3.5-0.4,6.9-0.8,10.4-1C41-2.8,47.7-2.7,54.2-2.5
					c3.3,0.1,6.5,0.1,9.8,0.1c2.1,0,10.2,0.2,15.5,0.3c1.4,0.1,2.7,0.1,4.1,0.2c0,0,0,0,0,0c0,0,0,0,0,0c1.8,0.1,3.5,0.1,5.3,0.1
					c7,0,13.9-1.2,20.9-1.2c3.4,0,6.6,0.1,10,0c3.7-0.2,7.3-0.4,11-0.5c4.5-0.1,9,0.2,13.5,0.5c2.8,0.2,5.5,0.5,8.3,0.6
					c2.7,0.1,5,0.6,7.5,1c3.2,0.6,6.2,1.5,9.3,2.1c3.2,0.7,6.4,1.2,9.8,1.5c3.2,0.3,6.5,0.4,9.7,0.5c0.9,0,1.8,0.1,2.7,0.1V2.3
					c-2.9-0.1-5.8-0.2-8.7-0.3c-4.6-0.3-8.9-0.9-13.2-1.8C167.6-0.3,165.5-0.8,163.5-1.3"/>
				<path id="XMLID_38_" class="st3" d="M155.2,2.2c-1.7-0.2-3.3-0.6-5-0.8c-0.7-0.1-1.5-0.2-2.2-0.2c-3.1-0.6-6.4-1.2-7.8-1.4
					c-2.9-0.4-5.8-1-8.7-1.1c-3.4-0.2-6.8-0.2-10.1-0.1c-6.4,0.1-12.8,0.4-19.2,0.7c-6.6,0.3-13,1-19.5,1.4
					c-6.5,0.3-13,0.2-19.5,0.1c-6.5-0.1-13-0.4-19.5-0.3c-6.4,0-12.5,0.5-18.8,1.1C15.1,2.4,5,2.6-4.5,4.1c-3.1,0.5-6.1,1.2-9,1.9
					c-0.9,0.1-1.8,0.2-2.7,0.3c-3.8,0.4-7.4,1.3-11,1.9c-3.6,0.6-7.2,1.2-10.9,1.6c-3.9,0.4-7.8,0.5-11.7,0.5
					c-8,0-15.9-0.2-23.9-0.4c-7.2-0.2-14.4,0-21.5-0.1v0.8c1.8,0,3.6,0,5.4,0c8.1,0,16.2,0.2,24.3,0.4c4,0.1,7.9,0.2,11.9,0.2
					c3.9,0,7.9,0.1,11.8-0.1c4.5-0.3,8.9-0.8,13.2-1.6c4.6-0.3,9-1.2,13.3-2.2c0.3-0.1,0.6-0.1,0.9-0.2C-8.9,6.5-3.1,6.4,2.7,5.9
					c7.9-0.7,15.7-1.6,23.6-2.2c7.8-0.6,15.6-0.9,23.5-0.9c4.3,0,8.6,0.3,12.8,0.5C72.7,3.7,83.4,3.6,93.5,3
					c2.8-0.2,11.2-0.5,12.9-0.5c3-0.1,6.1-0.3,9.2-0.2c2.3,0.1,11.9,0.3,15.8,0.8c2.9,0.3,5.5,0.8,8.4,1.2c6.5,0.9,12.9,2,19.4,2.8
					c2.9,0.4,5.6,1,8.4,1.5c2.3,0.5,5.2,1,7.8,1.1c3.1,0.3,6.2,0.5,9.3,0.7c2.3,0.1,4.5,0.2,6.8,0.2V9.8c-3.5,0-7.1-0.1-10.6-0.3
					c-0.9,0-3-0.2-5.7-0.5c-2.4-0.5-4.8-0.8-7.2-1.3c-3-0.6-6-1.3-9.1-1.7c-6.5-0.9-13-2-19.5-2.9c-3.1-0.4-6-0.7-9.2-1
					c-6.3-0.5-10.4-0.6-15.6-0.7c-2,0-9.7,0.2-11.7,0.4c-5.3,0.4-10.8,0.5-16.1,0.8C84.4,2.7,73.1,3,70,2.9
					c-5.5-0.1-11-0.6-16.5-0.8c-3.9-0.1-7.7-0.1-11.6,0c-7.8,0.2-15.5,0.7-23.2,1.4C10.8,4.3,3,5.2-4.9,5.5c-0.9,0-1.9,0.1-2.8,0.1
					c3-0.6,6.1-1.1,9.3-1.4c6.5-0.7,13.1-1,19.6-1.5C27.7,2.2,34,1.5,40.5,1.4c13-0.3,26,0.6,39,0.2c6.6-0.2,13-1,19.5-1.4
					c6.4-0.4,12.8-0.6,19.2-0.8c5.1-0.2,10.4-0.4,15.4,0.3c5.2,0.7,10.3,1.5,15.5,2.3c0.3,0,0.7,0.1,1,0.1c0.3,0.1,0.6,0.1,0.9,0.2
					c0.2,0,0.4,0,0.6,0.1c7.5,0.9,14.8,2.2,22.3,3.2c5.8,0.7,11.6,1.2,17.5,1.4V6.1c-1,0-1.9-0.1-2.9-0.1
					c-6.2-0.3-12.3-0.9-18.3-1.7c-3.5-0.5-6.9-1-10.4-1.5C158.3,2.6,156.8,2.4,155.2,2.2"/>
				<path id="XMLID_35_" class="st3" d="M45.7,11.6c6.8,0.5,13.6,1,20.4,1c2.5,0,4.9,0,7.4,0.3c1.3,0.1,4.4,0.1,4.6,0.1
					c-2.3,0.6-5.7,0.5-8.4,0.7c-2,0.2-3.9,0.5-5.9,0.8c-3.1,0.4-6.1,0.6-9.3,0.6c-3.4-0.1-6.8-0.5-10.1-0.9
					c-6.6-0.7-13.2-1.2-19.9-1.3c-3.3-0.1-6.5,0.1-9.7,0.4c-3.2,0.3-6.5,0.7-9.8,0.8c-0.4,0-0.7,0-1.1,0c2.1-1.6,6.7-2,9.9-2.3
					c2.1-0.1,4.2-0.2,6.2-0.3c2-0.1,4.1-0.2,6.1-0.3C32.7,10.8,39.2,11.1,45.7,11.6 M29.4,10.2c-2.8,0.1-5.6,0.3-8.4,0.4
					c-2.3,0.1-4.7,0.2-7,0.4c-3.8,0.3-9.1,0.8-11.2,2.9c-0.2,0.2,0,0.3,0.4,0.4c6.5,0.2,12.8-0.8,19.3-0.7c6.8,0,13.6,0.6,20.3,1.2
					c3.2,0.3,6.5,0.7,9.8,0.8c3.1,0.2,6.1,0,9.1-0.3c2.1-0.2,4.1-0.6,6.1-0.9c1.5-0.2,2.9-0.5,4.4-0.6c1.5-0.1,3.4,0,4.9-0.3
					c2.9-0.6,4.3-0.6,5.9-1c-1.2-0.1-5.2,0.1-6,0c-1.5-0.1-3-0.3-4.4-0.4C71.3,12,69.8,12,68.4,12c-1.5,0-7.6-0.3-9.3-0.4
					c-3.5-0.1-7-0.3-10.5-0.6C42.3,10.5,35.8,10.1,29.4,10.2"/>
				<path id="XMLID_34_" class="st3" d="M151.5,7.6c-3.4-0.5-7.1-1.5-10.7-1.7c-0.9-0.1-1.9-0.2-2.8-0.3c-3.1-0.4-6.3-0.5-9.5-0.7
					c-13.2-0.6-26.2,0.3-39.3,0.6c-6.5,0.2-13.1,0.1-19.6-0.1c-6.4-0.3-12.8-0.9-19.3-1.1c-6.6-0.3-13.1,0-19.6,0.4
					C24.6,5,18.5,5.5,12.5,6.4c-4.6,0.7-9.3,1.3-14,1.9c-3.1,0.4-16.5,2.1-18.2,2.3c-3.9,0.3-7.8,0.6-11.7,0.9
					c-3.6,0.2-7.2,0.8-10.8,1.2c-4,0.4-8.1,0.8-12.2,0.9c-8.4,0.3-17-0.5-25.2-1.5c-5.1-0.6-10.5-0.9-15.9-1v0.6
					c5.8,0.1,11.5,0.4,17.1,1.2c7.9,1,15.9,1.7,24,1.5c7.6-0.2,15-1.3,22.5-2.1c3.9-0.4,8-0.6,11.9-1c1.7-0.2,3.4-0.4,5.1-0.6
					c1.4-0.2,7.4-1,9-1.2C-4,9.2,3.5,8.2,5.3,8C11.2,7.3,17.1,6.4,23,5.8c6.7-0.6,13.6-1,20.3-1c6.4-0.1,12.9,0.5,19.2,0.9
					c6.6,0.5,13,0.9,19.7,0.8c6.5,0,12.9-0.3,19.3-0.6c13.1-0.6,26.5-0.9,39.5,0.6c3.3,0.6,7,1.3,10,1.8c4.2,0.7,8.5,1.2,12.7,1.7
					c3.8,0.4,7.6,0.6,11.4,0.8c3.3,0.2,6.8,0.7,10.1,0.6c2.1,0,4.1,0,6.2,0.1v-0.6c-2.2,0-4.5-0.1-6.7-0.1c-6.3-0.4-13.1-1-21.3-1.9
					C159.5,8.7,155.5,8.2,151.5,7.6"/>
				<path id="XMLID_33_" class="st3" d="M138.4,14.4c-3,0.1-6.5,0.4-10.7,0.9c-5.8,0.7-10.7,1.6-16.3,2.7
					c-6.2,1.2-12.3,2.4-18.5,3.7c-10.6,2.2-20.9,4.8-32.3,5.4c-6,0.2-12,0.1-17.9-0.1c-13-0.4-25.9-1.4-38.9-2.1
					c-13.7-0.7-27.4-1.1-41-1.6c-6.7-0.2-13.3-0.5-19.9-1c-2.6-0.2-5.1-0.5-7.6-0.8c-1.3-0.1-2.6-0.3-4-0.5c-2.6-0.3-5.2-0.7-7.8-1
					c-3.1-0.4-6.1-1-9.2-1.4c-3-0.4-6.2-0.6-9.2-1c-0.2,0-0.3,0-0.5-0.1v0.7c0.7,0.1,1.5,0.2,2.2,0.3c6.7,0.7,13,1.9,19.5,2.8
					c6.5,0.9,13,1.6,19.6,2.1c7,0.5,14.1,0.7,21.2,0.9c14.2,0.5,28.5,1,42.7,1.8c13.7,0.8,27.3,1.8,41.1,2
					c12.7,0.1,25.2-0.6,37.3-2.8c3.5-0.6,6.9-1.2,10.4-1.7c3.2-0.5,20.2-3.4,22.9-4c4.4-1,8.8-2,13.4-2.6c4.9-0.6,10.1-0.5,15-0.1
					c3.4,0.3,10.8,1.1,15.8,1.4c4.3,0.2,15.1,0.3,20.3,0.8c1.7,0.2,3.6,0.3,5.4,0.5v-0.7c-1.4-0.2-2.9-0.3-4.3-0.5
					c-5.1-0.5-10.4-0.7-15.5-0.6c-3-0.1-8.9-0.4-9-0.4c-5.8-0.5-7.7-1-12.3-1.4c-4.5-0.4-9.1-0.5-13.6-0.1
					c-4.7,0.4-9.3,1.5-13.7,2.5c-2.6,0.6-5.2,1.1-7.9,1.6c-5,0.9-26,4.1-31.4,5c-4,0.6-8.2,1.1-12.3,1.4c0.7-0.1,1.4-0.2,2.1-0.3
					c5.6-0.9,11-2.2,16.5-3.2c5.9-1.2,11.8-2.3,17.7-3.4c6-1.2,11.9-2.4,18-3.3c1.1-0.2,2.7-0.4,4.1-0.6c3.5-0.3,7-0.5,10.5-0.7
					c4.8-0.3,9.7,0.1,14.5,0.2c5,0.1,9.9,0.2,14.8,0.6c3.8,0.3,7.6,0.3,11.8,0.8c3.3,0.5,6.5,1.3,9.8,1.8v-0.7
					c-2.7-0.4-5.2-0.9-7.9-1.3c-3.6-0.8-7.8-0.8-11.6-1c-5.4-0.4-10.7-0.6-16.2-0.7C150,14.3,144.1,14.2,138.4,14.4"/>
				<path id="XMLID_32_" class="st3" d="M129.7,12.1c-2.9,0.4-5.6,1.1-8.4,1.7c-3.1,0.7-6.2,1.1-9.4,1.6c-6.3,1-12.6,2.2-18.7,3.5
					c-6,1.3-12,2.7-18.4,3.4c-6.7,0.8-13.8,1.2-20.6,1.2c-7,0.1-13.9-0.6-20.9-1c-7.1-0.4-14.1-0.6-21.2-0.7
					c-14-0.2-27.9,0.2-41.9-0.4c-7.2-0.3-14.3-0.9-21.3-1.9c-6.6-0.9-13.1-2-19.7-2.9c-8.1-1.1-16.4-2.3-24.7-3v0.7
					c8.1,0.7,16,1.8,23.9,2.9c1.6,0.2,3.2,0.5,4.8,0.7c9.2,1.4,18.5,2.8,28,3.6c2.7,0.2,5.4,0.4,8.1,0.6c13.9,0.7,27.9,0.3,41.9,0.5
					c7.1,0.1,14.2,0.3,21.2,0.7c7,0.4,13.9,1,20.9,1c6.6,0,13.1-0.4,19.6-1c6.4-0.6,12.5-1.9,18.5-3.2c6.1-1.3,12.2-2.5,18.5-3.6
					c3-0.5,6-0.9,8.9-1.4c3.1-0.6,6-1.3,9-1.9c6.4-1.3,13.6-1.3,20.4-1.2c6.5,0.1,12.4,0.5,18.7,1c1.5,0.2,3,0.3,4.5,0.4
					c3.1,0.2,6.3,0.2,9.5,0.3c3.5,0.1,7,0.3,10.5,0.6v-0.7c-2.7-0.2-5.5-0.4-8.3-0.5c-5.4-0.2-10.5-0.3-15.8-0.7
					c-6-0.5-12.1-1-18.1-1.2C142.9,11.2,136,11.2,129.7,12.1"/>
				<path id="XMLID_31_" class="st3" d="M151.8,22.2c-6.9,0.3-13.5,1.3-20.2,1.9c-7.1,0.6-14.3,0.7-21.3,1.3
					c-8.9,0.8-17.8,1.7-26.7,2.5c-7,0.6-14.6,1.4-21.8,1.4c-6.8,0-13-0.6-19.8-0.8c-6.3-0.1-12.2-0.8-18.4-1.1
					c-3-0.2-6.1-0.1-9.1-0.1c-3.4,0-6.8-0.1-10.1-0.1c-6.5-0.1-12.9-0.2-19.4-0.1c-3.3,0-6.6,0.2-9.8,0.1c-3.4,0-6.8-0.2-10.2-0.5
					c-2.2-0.1-4.3-0.3-6.5-0.4c-3.7-0.2-14.5-0.9-16.2-1.1c-1.7-0.2-3.4-0.4-5-0.6c-2.9-0.2-5.7-0.8-8.6-1.1
					c-5.5-0.7-7.8-1.5-13.1-2.6c-2.4-0.5-4.6-1.1-7-1.5c-1.3-0.2-2.6-0.4-3.9-0.6v0.7c0.8,0.1,1.6,0.2,2.3,0.3
					c2.6,0.5,7.4,1.7,10,2.2c6.2,1.2,12.5,2.1,18.8,2.8c-2.9-0.2-5.8-0.4-8.7-0.7c-7.6-0.6-15-1.6-22.4-2.2v0.7
					c2.1,0.2,4,0.5,6.3,0.7c6.6,0.7,13.2,1.3,19.9,1.9c1.7,0.1,3.4,0.3,5.1,0.4c4.9,0.4,9.9,0.7,14.9,1c6.8,0.4,13.6,0.9,20.4,1.2
					c6.8,0.3,13.7,0,20.6,0c7,0,14.1,0.3,21.1,0.3c3.3,0,6.6-0.1,9.9,0c3.7,0.1,7.3,0.5,11,0.8c6.5,0.5,13.1,0.5,19.7,0.6
					c6.4,0.2,11.8,0,18.2-0.4c6.1-0.3,13.2-1,19.2-1.6c8-0.7,15.8-1.2,23.8-1.8c6.5-0.5,13.2-0.2,19.6-1.1
					c6.1-0.9,12.2-1.6,18.5-1.9c4.9-0.3,9.8-0.3,14.7-0.7c2.6-0.2,5.1-0.4,7.7-0.4c1.8,0,3.5,0.1,5.2,0.1c4.7,0.2,8.1,0.5,11.3,0.8
					v-0.7c-7.9-0.7-15.9-1.1-24.2-0.6C162.1,21.8,157,21.9,151.8,22.2"/>
				<path id="XMLID_30_" class="st3" d="M144.5,26.2c-7,0.4-14.1,0.5-21.2,0.8c-14.1,0.6-26.3,1-40.3,2c-16.3,1.2-28.7,2.4-42.4,1.9
					c-13.5-0.5-26.7-2.1-40.3-2.1c-6.9,0-13.7,0.2-20.6,0.1c-6.9-0.2-13.7-0.7-20.5-1.2c-2.8-0.2-5.6-0.5-8.4-0.7
					c-10.1-0.8-20.1-1.4-30.2-2.2c-5.2-0.4-10.6-1-16-1.3v0.8c6,0.4,11.9,0.9,17.6,1.5c11,1.1,22,1.8,33.1,2.6
					c3.1,0.2,6.1,0.5,9.2,0.7c6.8,0.5,13.6,0.9,20.4,0.9c7.2,0,14.3-0.2,21.5-0.1c14,0.3,27.7,2.2,41.8,2.2
					c12.7,0,23.2-1.6,35.8-2.4c13.5-0.8,29.3-1.3,42.9-1.9c14.8-0.6,29.9-1.2,44.6-2.3c2.6-0.2,5.3-0.3,7.9-0.3
					c4.1,0.1,8.2,0.5,12.3,1v-0.8c-6.3-0.7-12.6-1.1-18.8-0.6c-2.9,0.2-5.8,0.3-8.6,0.5c5.1-0.6,10.3-1.2,15.5-1.5c4,0,8,0.2,12,0.4
					v-0.8c-4.7-0.3-9.3-0.4-13.8-0.3C166.5,23.7,155.7,25.6,144.5,26.2"/>
				<path id="XMLID_29_" class="st3" d="M164,28.5c-6.6,0.1-13.2,0-19.8,0.1c-6.9,0.2-13.8,0.5-20.6,1c-7.3,0.5-14.3,1.1-21.7,1
					c-7.1,0-15.9,0.2-23,0.5c-13.7,0.7-25.1,2.4-39,1.7c-6.5-0.3-13-0.8-19.5-1.2C14,31.4,7.2,31.5,0.7,31.4
					c-12.9-0.2-25.4-0.4-38.3-0.9c-3.2-0.1-6.3-0.2-9.5-0.4c-4.2-0.2-8.5-0.5-12.7-0.9c-5.4-0.5-10.8-1.1-16.2-1.6
					c-2.9-0.3-5.7-0.6-8.6-0.9c-3.6-0.4-7.2-0.9-10.9-1.3v0.8c0.8,0.1,1.5,0.2,2.2,0.3c6.6,0.8,13.3,1.6,20,2.3
					c5.2,0.6,10.4,1.1,15.7,1.5c-3.5-0.3-7-0.3-10.4-0.5c-3.7-0.2-7.4-0.6-11.1-0.9c-5.6-0.4-11-0.9-16.3-1.1v0.7
					c6.2,0.3,12.3,0.8,18.4,1.3c8.1,0.7,16.2,0.9,24.3,1.1c2.3,0.1,4.7,0,7,0.1c1.4,0.1,2.7,0.1,4.1,0.2c3,0.1,6,0.3,9,0.3
					C-21.8,32-10.9,32-0.1,32.1c-0.8,0.1-1.5,0.1-2.2,0.1c-5.2,0.2-12,0.6-17.2,0.6c-10.6,0-19.6-0.6-30.2-0.7c-6.1,0-12.3,0-18.4,0
					c-9.1,0-18.2-0.1-27.3-0.5v0.6c6.9,0.3,13.9,0.5,20.9,0.6c6.5,0.1,13,0.1,19.4,0c1.8,0,3.7,0,5.5,0c10.6,0,20.2,0.7,30.7,0.7
					c5.3,0,10.2-0.6,15.5-0.8c3.2-0.1,7-0.4,11.2-0.5c0.6,0,1.1,0,1.7,0c7.1,0.2,14.1,0.6,21.1,1.1c7,0.4,13.8,0.9,20.9,0.7
					c4.7-0.2,9.3-0.6,13.9-1c15.1-0.9,28-0.2,39.5,0.1c6.1,0.2,12.1,0.3,18.2,0.3c6-0.1,11.8-0.6,17.7-1.2
					c6.1-0.6,10.6-1.5,16.8-1.4c3.4,0,8.4,0.1,11.8,0.4c7.4,0.5,14.8,0.9,22.2,1.2v-0.6c-1.9-0.1-3.8-0.2-5.8-0.2
					c-4.1-0.2-8.2-0.5-12.3-0.7c-6.4-0.4-12.9-0.7-19.4-0.6c-5.6,0.1-11.3,1-16.8,1.5c-11.6,1.2-22.5,1.1-34.3,0.7
					c-8.4-0.3-20.2-0.4-30.4,0c5.8-0.5,11.5-0.8,17.4-0.8c6.8,0,13.6,0.2,20.4,0c6.5-0.2,13.1-0.9,19.5-1.4
					c6.8-0.5,15.7-1.1,20.6-1.1c4.8,0,9.7,0.1,12.2,0.1c2.6,0,12.9-0.5,15.2-0.7c4.5-0.1,9.1,0,13.6,0.2v-0.7
					c-4.6-0.2-9.2-0.2-14,0.1C173,28,168.5,28.4,164,28.5"/>
				<path id="XMLID_26_" class="st3" d="M130.4,10c-1.2,0.1-2.2,0.2-3.3,0.3c-0.7,0.1-3.7,0.1-3.8-0.3c0-0.4,2.5-1.2,3.3-1.3
					c4.6-0.9,5.1-0.4,10.5-0.4c1.3,0,7.9,0.7,9.1,1c0.8,0.2,3.8,0.8-0.3,0.5c-0.7-0.1-5.5-0.4-6.5-0.5c-1.3-0.1-2.4,0-3.7,0
					C133.6,9.5,132.3,9.8,130.4,10 M153.8,10.2c-0.5-0.5-1.4-0.4-2.3-0.5c-1.2-0.1-2.5-0.4-3.6-0.6c-1.3-0.2-3.5-0.5-4.8-0.7
					c-2-0.3-4.2-0.5-6.2-0.7c-1.7-0.1-2.5-0.2-4.2-0.2c-0.1,0-0.1,0-0.2,0c-1.4,0-2.7,0-4.1,0.2c-1,0.1-2.2,0.2-3,0.5
					c-1.5,0.4-3.1,1.1-3.9,1.9c-0.3,0.3,0,0.6,0.5,0.7c4.1,0.7,8.2-0.1,12.2-0.6c3.6-0.5,7.4-0.1,11,0
					C147.8,10.4,151.5,10.9,153.8,10.2"/>
				<path id="XMLID_23_" class="st3" d="M164.9,19.9c0.5,0.4-4.3,0.4-5.6,0.4c-3,0.1-5.9,0.1-8.8,0.3c-6.7,0.5-12.3,1.2-19,1.7
					c-5.6,0.4-12.6,0.5-18.1,1.4c-2.3,0.4-4.6,0.8-6.9,1.1c-1.8,0.2-3.9,0.5-5.9,0.3c1.7-0.5,3.8-0.6,5.7-0.9
					c2.5-0.4,4.9-0.9,7.5-1.3c5.8-0.8,11-2,16.4-3.2c6.3-1.4,12.6-1,19.1-0.3c2.9,0.3,5.4,0.3,8.3,0.3
					C158.2,19.8,164.4,19.6,164.9,19.9 M160.5,19.2c-2.5,0-4.6,0.2-6.4,0c-1.1-0.1-3.1-0.4-4.2-0.5c-6.1-0.7-12-1.2-18.1-0.2
					c-2.9,0.5-5.6,1.3-8.3,1.9c-3.2,0.7-6.6,1.3-10,1.7c-2.9,0.4-5.7,1.1-8.5,1.5c-2.2,0.3-4.5,0.6-6.2,1.4
					c-0.4,0.2-0.2,0.5,0.3,0.6c2.2,0.4,8.9-0.4,12.8-1c5.9-0.9,12.1-1.1,18.3-1.5c7.3-0.5,14.5-1,21.8-1.6c3.2-0.3,6.5-0.4,9.8-0.5
					c1.9-0.1,4.1-0.1,5.6-0.7c0.5-0.2,0.2-0.6-0.4-0.7C164.8,19.1,162.6,19.1,160.5,19.2"/>
				<path id="XMLID_22_" class="st3" d="M138.4,37.1c-6.6,0-12.2,0.2-18.8,0.1c-7.4-0.1-13.9-0.2-21.3-0.1c-3.6,0-9,0.3-12.2,1.1
					c-1.2,0.3-5.9,0.8-4.6,1.9c0.6,0.5,7.7,1.2,9.5,1.4c1.5,0.1,12.4,1.5,16.6,2c0.2,0,0.5,0.1,0.7,0.1h0c6.1,0.7,12.5,0.9,18.6,1.5
					c12.7,1.2,25,3.5,37.6,4.9c6.1,0.7,12.4,1,18.7,1.1c2.8,0,5.5-0.1,8.2-0.2v-0.8c-0.7,0-1.4,0.1-2.1,0.1
					c-13.4,0.5-26.1-1-38.9-2.8c-6.2-0.8-12.4-1.7-18.7-2.4c-5-0.6-10-0.9-15-1.4h0c-1.3-0.1-2.7-0.3-4-0.4
					c-4.5-0.5-8.9-1.1-13.4-1.5c-3.2-0.3-6.4-0.7-9.6-1c-1.4-0.1-3.8-0.3-4.8-0.8c0.8-0.5,3.8-1.1,5.1-1.3c2.3-0.3,4.8-0.4,7.3-0.4
					c6.3,0,12.6,0,19,0.1c13.3,0.3,26.4,0.2,39.7-0.2c6.5-0.2,13.1-0.5,19.6-0.2c5.7,0.3,10.6,1.6,15.9,2.4v-0.9
					c-2.1-0.4-4.2-0.9-6.3-1.3c-2.6-0.5-5.3-0.9-8-1.1c-6.1-0.5-12.6-0.3-18.8-0.2C151.7,36.9,145.1,37.1,138.4,37.1"/>
				<path id="XMLID_21_" class="st3" d="M134.4,39.7c-3,0.1-5.7-0.3-8.7-0.4c-7.9-0.3-11.7-0.4-17.6-0.5c-2.6,0-5.1,0.1-7.7,0.3
					c-2.3,0.1-4.5,0.5-6.8,0.5c-0.5,0-1.8,0.1-1.8,0.2c0.1,0.1,1.3,0.2,1.8,0.3c1.3,0.2,2.6,0.3,4,0.4c0.8,0.1,3.9,0.2,4.7,0.2
					c3.8,0.3,7.5,0.7,11.3,1c5.8,0.5,11.4,1.2,17.1,1.8h0c0.8,0.1,1.6,0.2,2.4,0.3c6.2,0.6,12.5,1.1,18.7,1.8c3,0.3,5.9,0.7,8.8,1.1
					c3.2,0.4,6.2,1.1,9.4,1.5c7.1,1,14.3,1,21.6,0.8V48c-2.3,0.1-4.2,0.1-5.5,0.1c-3.4,0-8.6,0.1-11.9-0.2
					c-3.7-0.3-9.3-1.3-12.9-1.8c-6.9-1.1-12.1-1.8-19-2.5l0,0c-0.3,0-0.7-0.1-1.1-0.1c-7.7-0.7-15.8-1.3-23.5-2
					c-12.7-1.2-18-1.4-18.6-1.5c-0.8-0.2,4.6-0.5,6.4-0.5c4,0,10.6,0.1,14.5,0.4c3.4,0.3,16.7,0.6,22,0.4c9.3-0.4,16.5,0.7,23.1,1.3
					c6.1,0.5,10.5,1.3,16.6,1.6c2.4,0.1,4.7,0.2,7,0.4c0.9,0.1,1.7,0.1,2.6,0.2c0.1,0,0.2,0,0.2,0v-0.3v-0.9
					c-1.2-0.2-2.5-0.3-3.7-0.3c-3.4-0.2-6.8-0.3-10.2-0.6c-9.6-0.6-16.9-2.1-26.6-2.5C146.2,39.2,139.2,39.6,134.4,39.7"/>
				<path id="XMLID_20_" class="st3" d="M162.7,32.2c-6.3,0.3-12.4,1-18.6,1.5c-6.5,0.5-13,0.7-19.5,0.7c-3.1,0-6.2-0.1-9.3-0.2
					c-3.5-0.1-7,0-10.5,0.2c-4.9,0.2-11.5,1-16.4,1.5c-3.5,0.3-17.6,3.3-21.7,4.6c-2.1,0.7-3.7,1.1-6,1.4c-3,0.5-6,0.5-5.6,1.1
					c0.3,0.6,8.7,0.2,11.8,0c2.9-0.2,5.8-0.5,8.8-0.7c4.4-0.3,7-0.2,12.1,0.6c1.3,0.2,2.7,0.4,4,0.7c3.3,0.6,6.6,1.2,10,1.6
					c21,2.3,41.7,5.1,63,6.7c7.2,0.5,14.4,0.8,21.7,1c1.7,0,3.3,0.1,5,0.1v-1c-2.7,0.1-5.4,0.1-8.2-0.1c-6.8-0.3-13.6-0.8-20.4-1.3
					c-13.1-1-26-2.4-38.9-4c-7.6-0.9-15.2-1.7-22.9-2.6c-1.3-0.1-2.5-0.3-3.8-0.5l0,0c-6.8-1-12.7-2.4-20.3-2
					c-2.1,0.1-5.5,0.3-7.5,0.5c-1.6,0.1-6.5,0.6-8.1,0.6c-1,0,2.6-0.6,4.7-1.1c2.2-0.6,5.3-1.5,7.6-2c5.4-1.3,11.9-2.5,17.7-3.1
					c5-0.5,8.2-0.7,13.3-0.9c3.2-0.2,6.5-0.3,9.7-0.2c3.3,0.1,6.7,0.2,10,0.2c6.2,0,12.3-0.3,18.4-0.8c6.6-0.5,13-1.3,19.7-1.6
					c6.3-0.3,12.6-0.2,18.8,0.4c3.4,0.3,6.8,0.9,10.1,1.4v-1c-3.6-0.6-7.2-1.2-11-1.5C174.6,32,168.6,31.9,162.7,32.2"/>
				<path id="XMLID_17_" class="st3" d="M29.4,43.7c-2.1,0.3-5.4,0.7-6.8,1.6c-2.2,1.5,3.9,3.1,6.8,4.1c-0.7,0-1.7,0-2,0
					c-2.1,0-4.1-0.1-6.2-0.3c-4.6-0.3-9.1-0.7-13.6-1.1c-5.2-0.4-10.4-0.6-15.6-0.8c-3.5-0.2-6.8-0.3-10.4-0.2
					c-2.3,0.1-5,0.2-7.3-0.3c3.2-1.1,8.2-1.5,10.3-3.2c0.2-0.1,0.3-0.3,0.5-0.5c2.3-2.9-6.6-3.8-10.3-4c-3.3-0.2-6.6-0.3-9.9-0.7
					c-5.4-0.7-10.8-1.3-16.3-1.8c-2.5-0.2-5.5-0.2-7.8-0.7c0.7-0.1,1.7-0.1,2.5-0.1c4.2,0,8.2,0.4,12.3,0.5
					c13.5,0.3,26.7-0.2,40.1-0.6c6.7-0.2,13.4-0.2,20,0.1c6.5,0.3,13,0.7,19.6,1c6.5,0.3,13,0.4,19.5,0.2c6.1-0.2,12.1-0.9,18.1-1.4
					c2.5-0.2,5-0.4,7.4-0.5c-1.5,0.3-3,0.5-4.5,0.9c-3.9,0.8-7.2,2.2-10.9,3.2c-3.7,0.9-7.6,1.3-11.5,1.7c-4.7,0.5-9.4,0.8-14.1,1.3
					c-3.1,0.4-6.1,0.9-9.1,1.4C29.9,43.6,29.6,43.7,29.4,43.7 M45.1,42.6c6.9-0.6,14.1-1,20.4-2.5c3.3-0.8,6.3-2,9.6-2.8
					c3.6-0.9,7.6-1.4,11.4-2.1c1.1-0.2,1-1-0.3-1c-12.4,0-24.3,2.1-36.7,2.2c-12.9,0.1-25.7-1.2-38.5-1.6
					c-13.1-0.4-26.2,0.6-39.3,0.7c-2.1,0-4.1,0-6.2,0c-5.2,0-10.3-0.1-15.4-0.3c-4.8-0.2-9.7-0.1-14.6-0.2
					c-3.8-0.1-7.5-0.3-11.3-0.3c-1.4,0-2.9,0-4.3,0.1c0.7,0.3,2.2,0.3,3.1,0.4c7.8,0.7,15.7,1.3,23.5,2.1c4.6,0.5,9.1,1,13.6,1.5
					c3.6,0.4,7,1,10.7,1.1c3,0.1,5.9,0.2,8.8,0.6c1.9,0.2,5.5,1,4.2,2.3c-0.3,0.3-0.7,0.5-1.2,0.7c-1.2,0.5-3,0.9-4.3,1.2
					c-1.9,0.5-4,0.9-5.5,1.6c-0.5,0.2-0.3,0.6,0.2,0.7c2.1,0.8,5.1,0.8,7.6,0.7c1.5,0,2.9-0.1,4.4-0.1c2-0.1,3.9,0.1,5.9,0.2
					c5.9,0.3,11.9,0.5,17.8,0.9c4.7,0.4,9.4,0.8,14.1,1c2.3,0.1,7.3,0.6,9-0.5c0.2-0.2,0.1-0.4-0.2-0.6c-1.4-0.6-3.1-1.1-4.5-1.6
					c-0.9-0.3-1.9-0.7-2.7-1.2c-0.8-0.5,0.7-0.7,1.5-0.9c2.3-0.5,4.8-0.7,7.1-1.2c0.9-0.2,1.8-0.3,2.8-0.5h0
					C38.9,43.2,42,42.9,45.1,42.6"/>
				<path id="XMLID_14_" class="st3" d="M10.6,45.3c-4.3,0.5-8.7-0.4-12.9-0.5c-0.7,0-2.2,0.2-2.8,0c-0.1,0,3.4-0.9,3.7-1
					c0.2-0.1,0.3-0.1,0.5-0.2c1.3-0.5,2.3-1.1,3.2-1.7c0.8-0.5,1.4-1,2-1.6c0.5-0.5,2.4-0.5,3.4-0.5c3.1-0.2,6.2-0.3,9.4-0.2
					c2.4,0,5.9,0,8.3,0.6c-1.1,1.3-7.1,0.9-10,2c-1.1,0.5-1.8,0.7-1.9,1.5c0,0,0,0,0,0C13.4,44.4,12.6,45.1,10.6,45.3 M14.7,43.4
					c0.5-1.2,4.3-1.3,6.2-1.4c2.1-0.2,3.8-0.5,5.4-1.2c0.4-0.2,0.4-0.6,0-0.8c-2-0.9-4.9-1.1-7.4-1.2c-3.3-0.2-6.7-0.1-10.1,0.1
					C6.5,39,4.1,39,2.9,40.2c-1.4,1.5-3.7,2.6-6.4,3.4C-4,43.8-4.7,44-5.3,44.1c-0.8,0.2-0.8,0.8,0,1c1.5,0.4,3,0.4,4.4,0.2
					c1.1,0.1,2.3,0.3,3.5,0.4c2.6,0.3,5.6,0.6,8.3,0.4c1.1-0.1,1.8-0.4,2.6-0.7c1-0.5,1-1.2,1.2-1.8C14.6,43.5,14.6,43.5,14.7,43.4"
					/>
				<path id="XMLID_11_" class="st3" d="M11.7,41.4c-1.8,1.1-4.4,1.7-7.3,2C6.8,42.4,8.9,41.6,11.7,41.4 M7.5,43.6
					c0.2,0,0.4,0,0.6-0.1c1.5-0.2,2.8-0.5,3.5-1.2c0.7-0.6,1.3-1.2,2.8-1.4c0.5-0.1,1.2-0.1,1.5-0.3c-1.8-0.3-3.3,0.4-5,0.5
					c-1.7,0-3,0.3-4.4,0.8c-1.1,0.4-2,0.9-3,1.3c-0.3,0.1-0.7,0.3-1.1,0.4C1.8,43.8,1.1,44,1,44.3c1.1,0.2,2.3-0.2,3.3-0.4
					C5.3,43.7,6.4,43.7,7.5,43.6L7.5,43.6z"/>
			</g>
		</g>
	</g>
</g>
</svg>
