<?xml version="1.0" encoding="utf-8"?>
<!-- Generator: Adobe Illustrator 19.0.0, SVG Export Plug-In . SVG Version: 6.00 Build 0)  -->
<svg version="1.1" id="Layer_1" xmlns="http://www.w3.org/2000/svg" xmlns:xlink="http://www.w3.org/1999/xlink" x="0px" y="0px"
	 viewBox="0 0 125 125" style="enable-background:new 0 0 125 125;" xml:space="preserve">
<style type="text/css">
	.st0{clip-path:url(#XMLID_36_);fill:#C89E75;}
	.st1{fill:#FFFFFF;}
	.st2{font-family:'MyriadPro-Regular';}
	.st3{font-size:13.9613px;}
	.st4{fill:#C89E75;}
</style>
<g id="XMLID_1_">
	<g id="XMLID_6_">
		<defs>
			<rect id="XMLID_7_" x="11.7" y="0.8" width="104.8" height="124.2"/>
		</defs>
		<clipPath id="XMLID_36_">
			<use xlink:href="#XMLID_7_"  style="overflow:visible;"/>
		</clipPath>
		<path id="XMLID_8_" class="st0" d="M64.1,105.6c28.9,0,52.4-23.5,52.4-52.4c0-28.9-23.5-52.4-52.4-52.4S11.7,24.3,11.7,53.2
			C11.7,82.1,35.2,105.6,64.1,105.6"/>
	</g>
	<g id="XMLID_5_">
		<path id="XMLID_30_" class="st1" d="M53.3,42.1h-2.1c-0.2,0-0.3-0.1-0.3-0.3v-1.1c0-0.1,0.1-0.3,0.3-0.3h6.1
			c0.2,0,0.3,0.1,0.3,0.3v1.1c0,0.1-0.1,0.3-0.3,0.3h-2.1V50c0,0.1-0.1,0.3-0.3,0.3h-1.3c-0.1,0-0.3-0.1-0.3-0.3V42.1z"/>
		<path id="XMLID_32_" class="st1" d="M59.8,40.7c0-0.1,0.1-0.3,0.3-0.3h1.3c0.2,0,0.3,0.1,0.3,0.3v3.7h4.6v-3.7
			c0-0.1,0.1-0.3,0.3-0.3h1.3c0.1,0,0.3,0.1,0.3,0.3V50c0,0.1-0.1,0.3-0.3,0.3h-1.3c-0.2,0-0.3-0.1-0.3-0.3v-3.9h-4.6V50
			c0,0.1-0.1,0.3-0.3,0.3h-1.3c-0.1,0-0.3-0.1-0.3-0.3V40.7z"/>
		<path id="XMLID_34_" class="st1" d="M71.4,40.7c0-0.1,0.1-0.3,0.3-0.3h5.7c0.2,0,0.3,0.1,0.3,0.3v1.1c0,0.1-0.1,0.3-0.3,0.3h-4.1
			v2.3h3.4c0.1,0,0.3,0.1,0.3,0.3v1.2c0,0.2-0.1,0.3-0.3,0.3h-3.4v2.4h4.1c0.2,0,0.3,0.1,0.3,0.3V50c0,0.1-0.1,0.3-0.3,0.3h-5.7
			c-0.2,0-0.3-0.1-0.3-0.3V40.7z"/>
	</g>
	<text id="XMLID_4_" transform="matrix(1 0 0 1 74.8242 50.228)" class="st1 st2 st3"> </text>
	<g id="XMLID_3_">
		<path id="XMLID_10_" class="st1" d="M22.4,55.5c-0.1-0.2,0.1-0.3,0.3-0.3h0.6c0.1,0,0.2,0.1,0.3,0.2l1.9,7.2h0.1l2.3-7.4
			c0-0.1,0.1-0.2,0.2-0.2h0.3c0.1,0,0.2,0.1,0.2,0.2l2.4,7.4H31l1.9-7.2c0-0.1,0.1-0.2,0.3-0.2h0.6c0.2,0,0.3,0.1,0.3,0.3l-2.6,9.4
			c0,0.1-0.1,0.2-0.3,0.2h-0.2c-0.1,0-0.2-0.1-0.2-0.2l-2.4-7.6h-0.1l-2.4,7.6c0,0.1-0.1,0.2-0.2,0.2h-0.2c-0.1,0-0.2-0.1-0.3-0.2
			L22.4,55.5z"/>
		<path id="XMLID_12_" class="st1" d="M41,55c2.8,0,5,2.2,5,5s-2.2,5-5,5c-2.8,0-5-2.2-5-5S38.2,55,41,55z M41,64.1c2.2,0,4-1.8,4-4
			c0-2.2-1.8-4.1-4-4.1c-2.2,0-4,1.8-4,4.1C37,62.3,38.8,64.1,41,64.1z"/>
		<path id="XMLID_15_" class="st1" d="M49,55.4c0-0.1,0.1-0.3,0.3-0.3h3.6c1.7,0,3,1.3,3,3c0,1.3-0.9,2.4-2.1,2.8l1.9,3.5
			c0.1,0.2,0,0.4-0.2,0.4h-0.7c-0.1,0-0.2-0.1-0.2-0.1l-1.9-3.7h-2.7v3.6c0,0.1-0.1,0.3-0.3,0.3h-0.5c-0.2,0-0.3-0.1-0.3-0.3V55.4z
			 M52.8,60.2c1.1,0,2-0.9,2-2c0-1.1-0.9-2-2-2h-2.7v4H52.8z"/>
		<path id="XMLID_18_" class="st1" d="M59.1,55.5c0-0.2,0.1-0.3,0.3-0.3h0.4c0.2,0,0.3,0.2,0.3,0.3v4l4.4-4.1
			c0.1-0.1,0.2-0.1,0.3-0.1h0.7c0.3,0,0.4,0.3,0.2,0.5l-4.4,4.1l4.6,4.7c0.1,0.1,0.1,0.4-0.2,0.4h-0.7c-0.1,0-0.2-0.1-0.3-0.1
			l-4.5-4.7v4.4c0,0.2-0.2,0.3-0.3,0.3h-0.4c-0.2,0-0.3-0.2-0.3-0.3V55.5z"/>
		<path id="XMLID_20_" class="st1" d="M67.9,63.5c0.1-0.1,0.1-0.2,0.2-0.3c0.1-0.2,0.3-0.3,0.5-0.1c0.1,0.1,1.1,1.1,2.4,1.1
			c1.1,0,1.9-0.7,1.9-1.5c0-1-0.8-1.5-2.4-2.2c-1.5-0.7-2.5-1.3-2.5-2.9c0-0.9,0.8-2.5,3-2.5c1.4,0,2.4,0.7,2.4,0.7
			c0.1,0,0.3,0.2,0.1,0.5c-0.1,0.1-0.1,0.2-0.2,0.3c-0.1,0.2-0.3,0.3-0.5,0.1c-0.1-0.1-1-0.6-1.8-0.6c-1.5,0-1.9,0.9-1.9,1.5
			c0,0.9,0.7,1.5,1.9,2c1.9,0.8,3.1,1.5,3.1,3.1c0,1.5-1.4,2.5-3,2.5c-1.6,0-2.8-1-2.9-1.1C67.9,63.8,67.8,63.7,67.9,63.5z"/>
		<path id="XMLID_22_" class="st1" d="M76.8,55.4c0-0.1,0.1-0.3,0.3-0.3h0.5c0.2,0,0.3,0.1,0.3,0.3v4.1h5.7v-4.1
			c0-0.1,0.1-0.3,0.3-0.3h0.5c0.1,0,0.3,0.1,0.3,0.3v9.2c0,0.1-0.1,0.3-0.3,0.3h-0.5c-0.2,0-0.3-0.1-0.3-0.3v-4.2h-5.7v4.2
			c0,0.1-0.1,0.3-0.3,0.3h-0.5c-0.1,0-0.3-0.1-0.3-0.3V55.4z"/>
		<path id="XMLID_24_" class="st1" d="M92.6,55c2.8,0,5,2.2,5,5s-2.2,5-5,5c-2.8,0-5-2.2-5-5S89.8,55,92.6,55z M92.6,64.1
			c2.2,0,4-1.8,4-4c0-2.2-1.8-4.1-4-4.1s-4,1.8-4,4.1C88.6,62.3,90.4,64.1,92.6,64.1z"/>
		<path id="XMLID_27_" class="st1" d="M100.6,55.4c0-0.1,0.1-0.3,0.3-0.3h3.1c1.7,0,3.1,1.4,3.1,3.1c0,1.7-1.4,3.1-3.1,3.1h-2.3v3.3
			c0,0.1-0.1,0.3-0.3,0.3h-0.5c-0.2,0-0.3-0.1-0.3-0.3V55.4z M103.9,60.3c1.1,0,2.1-0.9,2.1-2.1c0-1.1-1-2-2.1-2h-2.2v4.1H103.9z"/>
	</g>
	<polygon id="XMLID_2_" class="st4" points="51.6,101.7 63.4,125 76.6,97.7 	"/>
</g>
</svg>
