<?xml version="1.0" encoding="utf-8"?>
<!-- Generator: Adobe Illustrator 19.0.0, SVG Export Plug-In . SVG Version: 6.00 Build 0)  -->
<svg version="1.1" id="Layer_1" xmlns="http://www.w3.org/2000/svg" xmlns:xlink="http://www.w3.org/1999/xlink" x="0px" y="0px"
	 viewBox="0 0 45 45" style="enable-background:new 0 0 45 45;" xml:space="preserve">
<style type="text/css">
	.st0{clip-path:url(#XMLID_7_);fill:#3C3C3B;}
</style>
<g id="XMLID_2_">
	<defs>
		<rect id="XMLID_3_" y="0.1" width="44.7" height="44.7"/>
	</defs>
	<clipPath id="XMLID_7_">
		<use xlink:href="#XMLID_3_"  style="overflow:visible;"/>
	</clipPath>
	<path id="XMLID_4_" class="st0" d="M32.4,18.3c0.2,3.1-0.7,5.9-2.2,7.8c-1.2,1.6-3.8,3.5-6.9,2.9c-1.1-0.2-2-0.9-2.6-1.7
		c-0.8,3.5-1.7,6.8-3.8,9h-0.2c-0.6-2.6-0.3-5,0.3-7.2c0.4-1.6,0.8-3.4,1.2-5c0.1-0.5,0.4-1.2,0.4-1.7c0-0.2-0.1-0.4-0.2-0.6
		c-0.6-1.9-0.1-4.1,1-5c0.5-0.4,1.6-0.8,2.4-0.5c1.8,0.7,0.9,3.5,0.5,5c-0.2,0.5-0.3,1-0.5,1.5c-0.5,1.7-0.3,3.1,1.3,3.6
		c1,0.3,2.1,0,2.7-0.4c1.9-1.2,2.8-4.2,2.9-6.7c0.1-3.1-1.1-5.1-3.6-6c-1.3-0.5-2.8-0.5-4.2-0.2c-2.5,0.5-4.4,2.1-5.3,4.3
		c-0.6,1.6-0.6,4,0.3,5.3c0.2,0.3,0.5,0.4,0.5,0.8c0,0.4-0.4,1.8-0.7,1.9c-0.5,0.1-1.3-0.5-1.6-0.8c-1.3-1.1-2-3.1-1.8-5.5
		c0.2-2.6,1.5-4.6,3.1-6.1c1.6-1.5,3.8-2.3,6.7-2.6h1.4c2.7,0.2,4.5,1.1,6,2.4C31,14.1,32.2,15.9,32.4,18.3 M44.7,22.5
		c0-12.3-10-22.4-22.4-22.4C10,0.1,0,10.2,0,22.5s10,22.4,22.4,22.4C34.7,44.9,44.7,34.8,44.7,22.5"/>
</g>
</svg>
