<?xml version="1.0" encoding="utf-8"?>
<!-- Generator: Adobe Illustrator 19.0.0, SVG Export Plug-In . SVG Version: 6.00 Build 0)  -->
<svg version="1.1" id="Layer_1" xmlns="http://www.w3.org/2000/svg" xmlns:xlink="http://www.w3.org/1999/xlink" x="0px" y="0px"
	 viewBox="0 0 45 45" style="enable-background:new 0 0 45 45;" xml:space="preserve">
<style type="text/css">
	.st0{clip-path:url(#XMLID_7_);fill:#3C3C3B;}
</style>
<g id="XMLID_2_">
	<defs>
		<rect id="XMLID_3_" x="0.1" y="0.1" width="44.9" height="44.8"/>
	</defs>
	<clipPath id="XMLID_7_">
		<use xlink:href="#XMLID_3_"  style="overflow:visible;"/>
	</clipPath>
	<path id="XMLID_4_" class="st0" d="M44.9,22.5c0-12.4-10-22.4-22.4-22.4c-12.4,0-22.4,10-22.4,22.4c0,12.4,10,22.4,22.4,22.4
		C34.9,44.9,44.9,34.9,44.9,22.5 M32.5,16.3c1-0.1,1.9-0.4,2.7-0.7c-0.6,0.9-1.4,1.8-2.3,2.4l0,0.6c0,6.2-4.7,13.4-13.4,13.4
		c-2.7,0-5.1-0.8-7.2-2.1c0.4,0,0.7,0.1,1.1,0.1c2.2,0,4.2-0.8,5.8-2c-2.1,0-3.8-1.4-4.4-3.3c0.3,0.1,0.6,0.1,0.9,0.1
		c0.4,0,0.8-0.1,1.2-0.2c-2.1-0.4-3.8-2.3-3.8-4.6v-0.1c0.6,0.4,1.4,0.6,2.1,0.6c-1.3-0.8-2.1-2.3-2.1-3.9c0-0.9,0.2-1.7,0.6-2.4
		c2.3,2.9,5.8,4.7,9.7,4.9c-0.1-0.4-0.1-0.7-0.1-1.1c0-2.6,2.1-4.7,4.7-4.7c1.3,0,2.6,0.6,3.4,1.5c1.1-0.2,2.1-0.6,3-1.1
		C34.2,14.8,33.5,15.7,32.5,16.3"/>
</g>
</svg>
