<?xml version="1.0" encoding="utf-8"?>
<!-- Generator: Adobe Illustrator 19.0.0, SVG Export Plug-In . SVG Version: 6.00 Build 0)  -->
<svg version="1.1" id="Layer_1" xmlns="http://www.w3.org/2000/svg" xmlns:xlink="http://www.w3.org/1999/xlink" x="0px" y="0px"
	 viewBox="-203 303.6 204.3 171.3" style="enable-background:new -203 303.6 204.3 171.3;" xml:space="preserve">
<style type="text/css">
	.st0{fill:#ECF7F9;}
</style>
<path class="st0" d="M-63.6,306.5c0.3,0.1,0.5,0.1,0.3,0c0,0-0.2-0.1-0.4-0.1S-63.9,306.4-63.6,306.5 M-44.9,317
	c0.4-0.1,0,0-0.4-0.2c-0.2-0.1-0.2-0.1,0,0.1C-45.3,317-45,317.1-44.9,317 M-44.4,316.7c0.1,0.1,0.3,0.2,0.3,0.2
	c0.2,0,0.1-0.2-0.1-0.3C-44.6,316.5-44.7,316.5-44.4,316.7 M-44.9,316.5C-44.8,316.5-44.7,316.4-44.9,316.5c0.1-0.1-0.1-0.1-0.3-0.2
	c-0.3,0-0.3,0-0.1,0.1C-45.1,316.5-44.9,316.5-44.9,316.5 M-62.9,306.6c0.1,0.1,0.3,0.2,0.6,0.2c0.4,0.1,0.6,0,0.2-0.1
	C-63,306.4-63,306.4-62.9,306.6 M-35.5,316.9c0.1,0.1,0.3,0.1,0.4,0c0.2-0.1,0.2-0.1,0.1,0c-0.1,0.2,0.2,0.4,0.2,0.2
	c0-0.1,0.2-0.1,0.5,0.1c0.9,0.4,1.5,0.6,1.6,0.5c0,0,0-0.1-0.1-0.1s-0.1-0.1-0.1-0.2c0.1-0.1-0.2-0.3-0.8-0.4
	c-0.5-0.1-1.1-0.2-1.3-0.2c-0.3,0-0.4-0.1-0.3-0.2c0-0.1,0-0.1-0.1,0C-35.6,316.8-35.6,316.8-35.5,316.9 M-48.7,316.8
	c0.4-0.2,0.4-0.2,0.1-0.3c-0.2-0.1-0.4,0-0.5,0.1C-49.4,316.9-49.2,317-48.7,316.8 M-38.4,316.7c-0.3-0.1-0.6-0.1-0.6,0
	s0.1,0.1,0.1,0.1c0.1,0,0.2,0,0.3,0.1c0.1,0,0.2,0,0.2-0.1C-38.3,316.7-38.4,316.7-38.4,316.7 M-58.8,307.5c0.2,0.1,0.6-0.1,0.2-0.1
	C-58.8,307.4-58.9,307.4-58.8,307.5 M-51.1,309.3c0.1,0.1,0.9,0.2,0.9,0.1c0,0-0.1-0.1-0.2-0.1C-50.7,309.2-51.2,309.2-51.1,309.3
	 M-59.9,307.3c0.4,0.1,0.5,0,0.1-0.1c-0.1,0-0.3-0.1-0.4-0.1C-60.4,307-60.3,307.2-59.9,307.3 M-50.1,309.5c0,0.1,0.4,0.2,0.4,0.1
	C-49.7,309.4-50.1,309.5-50.1,309.5 M-39.5,316.4C-39.7,316.3-39.7,316.3-39.5,316.4C-39.3,316.6-39.2,316.5-39.5,316.4
	 M-53.2,308.8c0.6,0.2,0.7,0.2,0.7,0c0-0.1-0.1-0.1-0.2-0.1H-53c0-0.1-0.2-0.1-0.5-0.2C-54,308.4-53.7,308.7-53.2,308.8
	 M-100.9,305.1c0-0.1-0.1-0.2-0.3-0.2c-0.1,0-0.3,0-0.3,0.1c0,0,0.1,0.1,0.3,0.2C-101,305.3-100.9,305.3-100.9,305.1 M-198.9,394.2
	h0.2c0,0-0.1-0.1-0.2-0.1C-199.1,393.9-199.1,394.2-198.9,394.2 M-198.6,395.7c0.2,0,0.2-0.3,0-0.3
	C-198.7,395.5-198.7,395.7-198.6,395.7 M-198.2,397.8c0.1-0.2-0.3-0.2-0.4,0c-0.1,0.1-0.2,0.3-0.2,0.5c-0.1,0.3,0,0.4,0.3,0.7
	l0.1,0.1c0-0.1,0-0.2-0.1-0.2v-0.2c-0.1-0.2-0.1-0.3,0.1-0.5c0.2-0.1,0.2-0.2,0.1-0.3c-0.1-0.1-0.1-0.1,0-0.1
	C-198.4,397.9-198.3,397.9-198.2,397.8 M-199,390.6v-0.2C-199,390.1-199.1,390.5-199,390.6 M-198.6,389c0.1,0.5,0.2,0.5,0.2,0
	c0-0.3-0.1-0.5-0.1-0.4C-198.6,388.6-198.7,388.8-198.6,389 M-199.1,401c0-0.2,0-0.2-0.1-0.2C-199.3,401-199.1,401.4-199.1,401
	 M-198.1,398.7C-198,398.7-198.1,398.6-198.1,398.7C-198.2,398.7-198.2,398.7-198.1,398.7 M-198,400.1c0,0.1,0.1,0.2,0.2,0.2
	c0.2,0,0.2-0.1,0-0.5c-0.2,0-0.4,0.1-0.6-0.4c-0.1,0-0.3,0-0.4,0.1c-0.2,0.2,0,0.3,0.4,0.8c-0.1-0.6-0.2-0.7,0.1-0.5
	C-198.1,399.8-198,399.9-198,400.1 M-198.5,377.7c0.2,0,0.1-1.5,0.1-1.4C-198.6,376.4-198.7,377.7-198.5,377.7 M-198.4,375.7
	c-0.1,0.2,0.1,0.6,0.1,0.2C-198.3,375.7-198.3,375.6-198.4,375.7 M-198.8,379.1c0.2,0,0.1-0.5,0.1-0.5S-199,379.1-198.8,379.1
	 M-198.2,378.1c0.2,0.1,0.5-0.1,0.3-0.2c-0.2-0.2-0.2-0.5,0-0.4c0.3,0.2-0.1-1.2,0.1-1.5c0.1-0.1,0.1-0.2-0.1-0.2
	c-0.1,0-0.2,0-0.2,0.1c0,0.1,0,0.3-0.1,0.5C-198.3,377.1-198.3,378-198.2,378.1 M-198.5,386.5l0.2,0.2v-0.2c0-0.1-0.1-0.2-0.2-0.2
	C-198.6,386.4-198.6,386.4-198.5,386.5 M-189.6,432.1c0-0.1-0.5-0.5-0.6-0.5l0.3,0.3C-189.8,432.1-189.6,432.2-189.6,432.1
	 M-198.9,387.4c0.1-0.1,0.2-0.3,0.1-0.3c0,0-0.1,0.1-0.1,0.2C-199,387.4-199,387.5-198.9,387.4 M-198.1,380.6c0,0,0.1,0,0.1-0.2
	C-198.1,380.1-198.2,380.5-198.1,380.6 M-71.1,312.4c0,0.1,0.1,0.2,0.3,0.2c0.4,0,0.4-0.2,0.1-0.3
	C-70.9,312.2-71.1,312.2-71.1,312.4 M-57.3,452c-0.1,0.2,0,0.3,0.2,0.2C-56.9,452-57.2,451.8-57.3,452 M-118.3,453.5
	c-0.1,0-0.2,0-0.3,0.1c-0.1,0.2-0.1,0.2,0,0.2C-118.3,453.8-118.1,453.6-118.3,453.5 M-60.1,314.7c0.1,0,0.1-0.1,0.1-0.1l-0.1-0.1
	C-60.2,314.5-60.2,314.8-60.1,314.7 M-84.2,454.5c-0.2,0-0.2,0.3,0,0.3S-84,454.5-84.2,454.5 M-77,312c0.2-0.1,0.3-0.2,0.1-0.2
	C-77.1,311.8-77.3,312.1-77,312 M-202,408.6C-202,408.5-202,408.4-202,408.6C-202.1,408.8-201.9,409-202,408.6 M-199,417.1
	c-0.2,0.2-0.2,0.2-0.3,0c0-0.1-0.2-0.2-0.4-0.2c-0.3,0-0.5-0.1-0.8-0.6c-0.2-0.3-0.4-0.7-0.4-0.9c0-0.1-0.1-0.4-0.2-0.6
	c-0.3-0.5-0.5-1.1-0.3-1.3c0.1-0.1,0.1-0.4,0-0.7c-0.1-0.3-0.2-0.9-0.2-1.3c0-0.5-0.1-0.7-0.2-0.7c-0.1,0.1-0.1-0.2,0-0.6
	c0.1-0.5,0-0.8-0.1-1.1c-0.2-0.5-0.4-2.5-0.2-2.3c0.2,0.1,0-0.9,0-1.6c0-0.2-0.1-0.3-0.2-0.2c-0.1,0.1-0.1-0.1-0.1-0.4
	c0-0.3,0-0.6-0.1-0.7c-0.1-0.1-0.1-0.2,0-0.4c0.2-0.3,0.2-0.8,0.1-0.8c-0.2,0-0.3-1.5-0.1-1.6c0.1-0.1,0.1-0.1,0-0.1
	s-0.1-0.2-0.1-0.3c0-0.2,0-0.3,0.1-0.3s0.1-0.1,0-0.2c-0.2-0.2-0.2-0.4,0-0.3c0.2,0.1,0.1-0.2-0.1-0.4c-0.1,0-0.1-1-0.2-2.1
	c0-1.6,0-2,0.1-1.9c0.1,0.1,0.1,0.1,0-0.1c-0.1-0.1-0.2-0.6-0.2-1.1c-0.1-0.7-0.1-0.8,0-0.7c0.2,0.1,0.2,0.1,0-0.1
	c-0.2-0.2-0.2-1.8-0.1-1.6c0,0,0.2-0.1,0.3-0.4c0.2-0.5,0-1.2-0.3-1.2c-0.1,0,0-0.1,0.1-0.2c0.2-0.1,0.2-0.3,0.2-0.6
	c-0.1-0.6,0.2-2.5,0.3-2.4c0.2,0,0.1-0.6-0.1-0.8c-0.1-0.1-0.1-0.2-0.1-0.2s0-0.2-0.1-0.3c-0.1-0.1-0.1-0.5-0.1-1
	c0.1-0.5,0-0.8,0-0.7c-0.2,0.1-0.2-0.2,0-0.4s0.2-1.3,0.1-1.5c-0.1-0.1-0.1-0.1,0-0.1c0.1,0.1,0.2-0.1,0.2-0.4c0-0.8,0.1-1.5,0.1-2
	c0.5,0.1,0.7,0.3,0.8-0.1c0-0.4,0.4-0.4,0.8-0.6c0,0.5-0.1,1-0.1,1.5c-0.1,1.1-0.2,1.8-0.3,3.4c0,0.5-0.1,1.4-0.1,1.9
	c-0.2,2.5-0.3,8.2-0.1,11.4c0.2,3.8-0.1,2,0.4,6.8c0.2,2.1,0.9,6.4,1.8,11.1C-198.8,416.7-198.8,416.9-199,417.1 M-187.2,434.6
	c0.1,0,0.1,0,0.1-0.1l-0.1-0.1c-0.1,0-0.1,0-0.1,0.1L-187.2,434.6 M-73.5,312.2c0.1,0.1,0.2,0.2,0.2,0.3s0,0.1,0.1,0
	c0.1-0.2,0.3-0.2,0.9-0.1c0.5,0.1,0.8,0.1,0.9,0c0.1-0.1,0-0.1-0.2-0.2C-73.3,312.1-73.7,312.1-73.5,312.2 M-184.3,436.5
	c0.2,0.3,0.2,0.2,0-0.2c-0.1-0.2-0.2-0.2-0.3-0.1c-0.1,0.1-0.1,0.1,0,0.1C-184.6,436.4-184.4,436.4-184.3,436.5 M-186,435.2
	c0-0.1-0.1-0.1-0.2-0.1c-0.1,0-0.1,0.1,0.1,0.3c0.3,0.2,0.3,0.2,0.3,0c0-0.1,0-0.2-0.1-0.1C-185.9,435.4-186,435.3-186,435.2
	 M-182.8,437.3c0-0.1-0.5-0.4-0.5-0.3S-182.8,437.4-182.8,437.3 M-100.3,452.3L-100.3,452.3c-0.3-0.1-0.3,0.2-0.1,0.1
	C-100.3,452.4-100.3,452.4-100.3,452.3 M-176.8,443.1c0-0.2-0.4,0.1-0.4,0.3C-177.2,443.6-176.8,443.3-176.8,443.1 M-186.8,464.2
	c0-0.4-0.2,0.1-0.1,0.2C-186.8,464.5-186.8,464.4-186.8,464.2 M-176.2,444.2c0.2,0.1,0.3,0,0.1-0.1
	C-176.4,444-176.5,444.1-176.2,444.2 M-112.6,306.7c-0.4,0,0.1,0.2,0.2,0.1C-112.4,306.8-112.5,306.7-112.6,306.7 M-96.2,304.3
	c0.1,0,0-0.1-0.2-0.1C-96.9,304.3-96.4,304.4-96.2,304.3 M-98.3,304.5c0.1,0,0-0.1-0.2-0.1C-98.9,304.4-98.5,304.5-98.3,304.5
	 M-99.2,303.9c-0.1,0-0.1,0.1-0.1,0.1l0.1,0.1C-99,304.1-99,303.8-99.2,303.9 M-101.3,304.7c-0.4,0-0.1,0.1,0.2,0.1
	C-101.1,304.7-101.1,304.7-101.3,304.7 M-83.1,304.1c0.2,0.1,0.5,0.1,0.7,0c0.3-0.1,0.3-0.1-0.4-0.1C-83.4,304-83.4,304-83.1,304.1
	 M-87.8,304.2c-0.2,0-0.3,0.1-0.4,0.2c-0.2,0.2-0.2,0.3,0.2,0.2C-87.6,304.6-87.4,304.2-87.8,304.2 M-95.6,304.6
	c0.3,0.1,0.7-0.1,0.2-0.1C-95.7,304.5-95.8,304.6-95.6,304.6 M-102.8,304.3c0.1,0,0-0.1-0.2-0.1
	C-103.6,304.3-103.1,304.4-102.8,304.3 M-107.3,452.5c0.1,0.1,0.2,0.1,0.3,0c0.2-0.1,0.2-0.1,0-0.2
	C-107.3,452.2-107.4,452.4-107.3,452.5 M-81,304.2c0.2,0.1,0.9,0.1,0.9-0.1C-80.1,304.1-81.3,304.1-81,304.2 M-79.9,304.3
	c0.2,0.2,3.7,0.3,2.1,0C-78.8,304.2-80,304.1-79.9,304.3"/>
<path class="st0" d="M-91.9,304.7c0.8,0,0.7-0.2-0.1-0.2C-92.9,304.5-92.7,304.8-91.9,304.7 M-90.5,304.5c-0.2,0-0.5,0-0.5,0.1
	s0.2,0.1,0.5,0.1s0.5,0,0.5-0.1C-90,304.6-90.3,304.5-90.5,304.5 M-93.3,304.3c0.2-0.1-0.7-0.1-0.4,0
	C-93.6,304.4-93.4,304.4-93.3,304.3 M-92.3,304.3c0.1-0.1-0.5-0.1-0.3,0C-92.5,304.4-92.4,304.4-92.3,304.3 M-91.2,304.9
	c-3.2,0-4.6,0-4.7,0.1s-0.2,0.1-0.4,0c-0.3-0.1-0.6-0.1-1.6,0.1c-0.7,0.1-0.8,0.1-1.1,0c-0.1-0.1-0.4,0-0.6,0.1s-0.5,0.2-0.6,0.1
	c-0.1-0.1-0.2-0.1-0.4-0.1s-0.2,0-0.2-0.1s0.3-0.1,0.5-0.1s0.4-0.1,0.4-0.1c0-0.1,0.2-0.1,0.6-0.1c0.3,0.1,0.6,0,0.7-0.1
	c0-0.1,0.2-0.1,0.3-0.1c0.2,0,0.2,0,0,0.1s-0.1,0.1,0.1,0.1s0.3-0.1,0.2-0.1c-0.1-0.2,0.2-0.2,0.2,0c0,0.1,0.4,0.1,0.8,0
	c0.5-0.1,0.6-0.1,0.5-0.2c-0.2-0.1-0.2-0.1,0.1-0.1c0.2,0,0.3,0,0.3,0.1c-0.1,0.2,1.3,0.2,1.2,0c0-0.1,0-0.2,0.1-0.3
	c0.1-0.2,0.1-0.2,0.2,0c0.1,0.1,0.1,0.2,0.1,0.3c-0.1,0.1,0.9,0.1,1.1,0s0.1-0.1-0.2-0.1c-0.3,0-0.4,0-0.3-0.2
	c0.1-0.2,0.8-0.3,1.1,0c0.1,0.1,0.2,0.1,0.1,0s0-0.2,0.4-0.2c0.3,0,0.4,0.1,0.4,0.1c0,0.1,0.1,0.1,0.2,0.1c0.2,0,0.3,0,0.1-0.1
	c-0.1-0.1,0.1-0.1,0.9-0.1c1.2,0,0.9,0-0.1,0.2h0.8c0.5,0,0.7,0,0.7-0.1s0-0.1,0.1-0.1s0.2,0.1,0.1,0.1c0,0.1,0,0.1,0.1,0.2
	c0.1,0,0,0.1-0.3,0.2c-0.4,0.1-0.4,0.1,0.5,0.2c1.4,0,2.4,0.2,2.4,0.2C-86.6,305-88.7,305-91.2,304.9 M-105.6,452.6
	c-0.1,0-0.1-0.1-0.1-0.1c0-0.1-0.1-0.1-0.2,0c-0.2,0.1-0.3,0.1-0.1,0.2C-105.8,452.6-105.7,452.7-105.6,452.6
	C-105.5,452.6-105.5,452.6-105.6,452.6 M-103.7,452.4c0,0.1,0.1,0.2,0.1,0.2C-103.4,452.7-103.4,452.7-103.7,452.4
	C-103.6,452.3-103.7,452.3-103.7,452.4 M-105,452.4c-0.2,0.1-0.2,0.1-0.1,0.3c0.1,0.1,0.2,0.1,0.3,0.1c0.2-0.1,0.3-0.4,0.1-0.4
	C-104.8,452.3-104.9,452.3-105,452.4 M-85.6,303.9c0,0,0.3,0.1,0.6,0h0.6l-0.6-0.1C-85.5,303.7-85.7,303.8-85.6,303.9 M-126.4,309.2
	c0-0.1-0.4-0.3-0.4-0.1S-126.4,309.2-126.4,309.2 M-123.4,308.7c-0.2,0-0.3,0-0.4,0.1c-0.1,0.2,0,0.2,0.4,0
	C-123.1,308.7-123.1,308.7-123.4,308.7 M-122.2,308.5c-0.4,0-0.1,0.2,0.2,0.1C-122,308.5-122.1,308.5-122.2,308.5 M-101.8,452.4
	c-0.1-0.2-0.3-0.2-0.3,0c0,0.1,0.1,0.2,0.2,0.2h0.2C-101.7,452.6-101.7,452.5-101.8,452.4 M-113.6,306.9c-1.2,0.1-3.1,0.5-6.1,1.2
	c-1.3,0.3-0.5,0.4,0.5,0.1C-117.8,307.9-110.8,306.6-113.6,306.9 M-200.4,366c0-0.5-0.2,0-0.1,0.2
	C-200.4,366.3-200.4,366.2-200.4,366 M-127.6,309.4c-0.4,0,0.1,0.2,0.2,0.1S-127.4,309.4-127.6,309.4 M-121.4,308.6
	c-0.4,0-2.6,0.5-2.8,0.7c-0.2,0.2,0.4,0.1,1.7-0.2C-121.2,308.7-121,308.6-121.4,308.6 M-92.9,303.7c0.1,0.1,0.3,0.1,0.5,0
	c0.4-0.1,0.4-0.1-0.1-0.1C-92.8,303.6-92.9,303.6-92.9,303.7 M-102.8,305.5h1c0.5,0,0.5-0.2,0.2-0.4c-0.2-0.1-0.2-0.2-0.2-0.3
	c0.1-0.1-0.3-0.2-0.7,0c-0.2,0.1-0.2,0.1,0.2,0.2s0.4,0.1-0.1,0.1s-1,0.2-1,0.4H-102.8 M-86.1,303.8
	C-85.9,303.9-85.7,303.7-86.1,303.8C-86.2,303.7-86.2,303.8-86.1,303.8 M-106.6,305.7c-0.7,0-5.3,0.9-4.8,0.9c0.2,0,1.2-0.1,4-0.5
	C-106.3,305.9-105.8,305.7-106.6,305.7 M-76.6,304.5c0.9,0.2,1.2,0,3.4,0.4c0.5,0.1,2.7,0.2,2.7,0.2s-0.1-0.1-0.1-0.2
	c-0.2-0.1-1.2-0.2-4.5-0.5C-76.7,304.3-77.4,304.4-76.6,304.5 M-104.3,305.6c0-0.1-0.2-0.1-0.5-0.1c-0.4,0-0.4,0-0.3,0.1
	C-104.9,305.7-104.3,305.7-104.3,305.6 M-122.4,308l-0.1-0.1c-0.2,0-0.2,0.3,0,0.2C-122.4,308.1-122.4,308-122.4,308 M1.2,369.2
	C1.2,369.3,1.2,369.3,1.2,369.2c0.1,0,0.2,0,0.3,0.1c0.1,0.1,0.2,0.1,0.2-0.1C1.7,369,1.2,369,1.2,369.2 M-139.8,315.8
	c0.3-0.1,0.3-0.2,0.1-0.2C-140,315.6-140.1,315.9-139.8,315.8 M-8.4,392.6c-0.1,0-0.1,0.2-0.1,0.4c0,0.3,0,0.3,0.1,0.2
	C-8.2,392.9-8.2,392.6-8.4,392.6 M2.1,370.2c-0.1,0.5,0,1.3,0,0.4C2.2,370.2,2.2,370,2.1,370.2 M2,368.5c0,0.3,0,0.5,0.1,0.5
	c0.1-0.1,0.1-0.1,0-0.6S2,368,2,368.5 M2,367c-0.1,0.5,0.1,1.2,0.1,0.3C2.1,366.9,2,366.8,2,367 M0.7,395.1c0.1,0.2,0.2-1.1,0.2-1.7
	v-0.7l-0.2,0.7C0.6,394,0.6,394.8,0.7,395.1 M0.5,395.8c0.1,0.2,0.1,0.2,0.1-0.1c0-0.2,0-0.4-0.1-0.4S0.4,395.4,0.5,395.8
	 M1.4,366.6c-0.1,0.2-0.2,0.3,0,0.4c0.1,0.1,0.1,0.2,0,0.2c-0.2,0-0.2,0.4,0,0.4c0.1,0,0.1,0.1,0,0.2c-0.1,0.1-0.2,0.2-0.1,0.2
	c0.1,0.1,0.5-0.3,0.5-0.4s0-0.1-0.1-0.2c0,0-0.1-0.3-0.1-0.6C1.6,366.4,1.5,366.4,1.4,366.6 M0.5,392.6c0,0.1,0.1,0.1,0.1,0.1
	l0.1-0.1c0-0.1-0.1-0.1-0.1-0.1C0.4,392.5,0.4,392.5,0.5,392.6 M2.1,375.3C2,375.5,2.2,375.7,2.1,375.3
	C2.2,375.2,2.2,375.2,2.1,375.3 M1.2,373.4c-0.1,0-0.2,0.1-0.2,0.3c0,0.4,0.2,0.5,0.3,0.2c0.1-0.4,0.3-0.1,0.2,0.5
	c-0.1,0.7-0.1,0.9,0,2.1v1c-0.1,0-0.1,0.1-0.1,0.2c0,0.8-0.1,1.1-0.3,1.1s-0.2,0,0,0.2c0.2,0.1,0.3,0.4,0.3,0.9c0,0.7-0.1,1-0.4,0.9
	c-0.2-0.1-0.2,0,0,0.1c0.3,0.2,0.3,0.6,0.1,0.7c-0.1,0.1-0.1,0.1,0,0.2c0.2,0.2,0.3,1.3,0.1,1.7c-0.1,0.2-0.2,0.4-0.1,0.7
	c0.1,0.2,0.1,0.7,0.1,1.1c-0.2,1.9-0.4,7.2-0.2,6.6c0.1-0.2,0.1-0.5,0-0.7c0-0.2,0-0.3,0.1-0.2c0.1,0.1,0.1,0,0.1-0.3
	c0-0.2,0-0.5,0.1-0.6c0.1-0.2,0.1-0.3,0-0.4s-0.1-0.1,0-0.1s0.1-0.2,0.1-0.4c0-0.2,0-0.6,0.1-0.9c0.1-0.8,0.2-2.3,0-2.5
	c-0.1-0.1-0.1-0.2,0-0.2s0.1-0.2,0.1-0.3c0-0.3,0-0.3-0.1-0.2c-0.1,0.1-0.1,0.1-0.1,0c0-0.1,0.1-0.2,0.2-0.3c0.1,0,0.2-1.4,0.2-6
	c0-3.3,0-5.9-0.1-5.7C1.6,373.2,1.4,373.4,1.2,373.4 M-121.6,451.8c0.1,0,0.2-0.1,0.2-0.1c0-0.1,0-0.1-0.1-0.1
	S-121.7,451.7-121.6,451.8C-121.7,451.7-121.7,451.8-121.6,451.8 M-3.3,343.9c0,0.1,0.1,0.2,0.1,0.2c0.2,0.1,0.2,0.1,0-0.2
	C-3.2,343.8-3.3,343.8-3.3,343.9 M-123.2,451.5l-0.1-0.1C-123.5,451.4-123.5,451.7-123.2,451.5
	C-123.2,451.6-123.2,451.6-123.2,451.5"/>
<path class="st0" d="M-4.2,356.9c-0.1,0-0.1,0.1-0.1,0.1c0,0.1,0.1,0.1,0.1,0.1l0.1-0.1C-4,356.9-4.1,356.9-4.2,356.9 M-5.3,357.8
	c0.1,0.6,0.3,0.9,0.4,0.8c0.2-0.3,0.3-0.9,0-1.1C-5.2,357.1-5.4,357.3-5.3,357.8 M-3.8,365.8c-0.1,0-0.1,0.2-0.1,0.5
	c0,0.3,0.1,0.6,0.1,0.7c0,0.2,0,0.2,0.1,0C-3.4,366.6-3.5,365.8-3.8,365.8 M-6.7,339.2c0,0.2,1,1.5,1.8,2.7c0.3,0.5,0.7,1.2,1,1.7
	c0.5,0.8,1.7,3.2,2.3,4.4c0.3,0.6,0.4,1.5,0.6,3.3c0.3,3.1,0.4,6,0.5,10.4c0.1,7.4,0.1,2.1-0.1,10.7c-0.2,7.4-0.3,10.4-1,19.6
	c-0.4,5.5-0.3,4.1-0.7,8.8c-0.2,2.6-0.4,4-0.6,6.5c-0.1,0.9-0.2,1.8-0.3,2.1c-0.2,0.7-2,4.4-2.7,5.5c-0.3,0.5-0.6,0.9-0.6,0.9
	c0,0.1-2.4,4-2.9,4.7c-3.5,4.9-2.8,4.4-2.1,1.3c0.4-1.5,0.6-1.3,1.9-6.7c0.9-3.4,1.2-5,1.2-5.3c0-0.2,0.1-0.3,0.1-0.4
	c0.1-0.1,0.6-2,0.7-3c0-0.2,0.2-0.7,0.3-1.2c0.3-1.2,1-5.2,1.3-7.9c0-0.3,0.1-0.6,0.2-0.7c0.2-0.3,0.4-1.5,0.4-2.3
	c0-0.2,0-0.4,0.1-0.4s0.1-0.2,0.1-0.4s0-0.5,0.1-0.6c0.1-0.3,0.5-1.8,0.6-2.3c0.1-0.8,0.3-1.8,0.3-2.3c0-0.2,0.1-0.6,0.2-0.8
	c0.1-0.2,0.3-0.8,0.3-1.3s0.2-1.2,0.2-1.4c0.2-0.8,0.2-2.3,0.3-3c0.3-1.8,0.4-2.9,0.4-3.8c0.1-1.6,0.2-0.9,0.2-2.6
	c0-0.8,0.1-1.2,0.2-1.3l0.1-0.1c-0.1,0-0.1-1.1-0.2-2.8c-0.1-4.8-0.1-5-0.3-5.1c-0.2-0.1-0.4-0.3-0.4-0.5c0-0.1,0.1,0,0.3,0.1
	l0.3,0.3l-0.1-0.9c-0.1-1-0.3-1.9-0.4-1.5c-0.1,0.3-0.3,0.2-0.3-0.2c0-0.3,0.1-0.3,0.4-0.1c0.2,0.1,0.3,0.1,0.3-0.1V363
	c-0.1,0-0.1,0-0.2-0.1c-0.1-0.3-0.1-0.4,0.1-0.4c0.1,0,0.2-0.1,0.1-0.3c0-0.1-0.1-0.2-0.2-0.2s-0.1,0-0.1-0.1c0-0.1,0.1-0.2,0.1-0.2
	c0.1,0,0.1-0.1-0.1-0.2c-0.1-0.1-0.3-0.5-0.3-0.9c-0.2-0.9-0.2-1.1,0.1-0.6l0.2,0.4c-0.2-0.9-0.2-1.2-0.4-1c-0.1,0-0.1,0-0.1-0.1
	s-0.1-0.2-0.1-0.2c-0.1,0-0.1-0.2-0.1-0.4c0-0.5-0.2-0.8-0.3-0.5c0,0.1,0,0.2,0.1,0.3c0.1,0,0,0.2-0.2,0.3c-0.2,0.2-0.3,0.3-0.3,0.4
	s0,0.1-0.1,0.1c-0.3,0-0.2,0.7,0,0.7c0.1,0,0.2,0.2,0.2,0.7c0,0.4,0.1,0.8,0.1,0.9s0.1,0.4,0.1,0.7s0.1,0.6,0.2,0.8
	c0.1,0.2,0.2,0.6,0.2,0.9c0,1.2,0.1,1.4,0.2,1.4s0.1-0.1,0.1-0.2c0-0.2,0-0.2,0.1,0c0.2,0.3,0.3,3.5,0.1,3.3
	c-0.1-0.1-0.1-0.4-0.1-0.6c0-0.3-0.1-0.4-0.2-0.4c-0.2,0.1-0.2,0.6-0.1,2.4c0,0.9-0.1,1.8-0.2,4.6c-0.2,3.3-0.3,2.9-0.2-0.7v-3.3
	c-0.1,0.3-0.2,0.4-0.4,0.1c-0.1-0.1,0-0.2,0.1-0.2s0.1-0.2,0.1-0.3V370c0.2,0.3,0.3-0.1,0.3-0.8c0-0.9-0.2-1.1-0.3-0.5
	c-0.1,0.4-0.1,0.4-0.2,0.2c-0.2-0.4-0.1-0.7,0.1-0.8c0.2,0,0.3-0.2,0.3-0.4c0-0.2-0.1-0.4-0.1-0.4s-0.1,0.1-0.1,0.2s0,0.1-0.1,0
	c-0.2-0.2,0-1,0.1-0.9c0.1,0.3,0.3,0.2,0.3-0.2c0-0.3,0-0.4-0.2-0.6c-0.1-0.1-0.2-0.2-0.1-0.3c0.1,0,0.1-0.3,0.1-0.6
	c-0.1-1-0.3-2.2-0.4-2.3c0-0.1-0.1-0.4-0.1-0.7c0-0.3-0.1-0.7-0.2-0.9c-0.1-0.2-0.2-0.8-0.3-1.2c-0.1-0.5-0.2-1-0.3-1.1
	c-0.1-0.2-0.2-0.7-0.3-1.5c-0.1-1.8-0.5-5.8-0.7-6c0,0-0.1-0.4-0.1-0.7c0-0.4-0.1-0.7-0.2-0.8c-0.1-0.1-0.1-0.3-0.1-0.6
	s0-0.5-0.1-0.5s-0.1-0.2-0.1-0.4c0-0.2-0.1-0.6-0.2-1c-0.1-0.3-0.3-0.7-0.3-0.8c0-0.7-1.1-4.3-1.4-4.6c-0.1-0.1-0.2-0.3-0.1-0.4
	c0-0.1-0.5-1.9-1.1-3.6c0.2-0.7,0-1-0.3-1c-0.2-0.7-0.5-1.3-0.7-1.8c-0.3-0.8-0.6-1.6-0.5-1.7V333c-0.1,0-0.2-0.2-0.3-0.4
	c-0.1-0.3-0.1-0.3,0.2,0c0.2,0.2,0.3,0.4,0.3,0.5v0.1c0.1,0,0.2,0,0.4,0.2c0.2,0.2,0.3,0.3,0.1,0.3c-0.2,0.1,0.1,0.4,0.3,0.4
	c0.2-0.1,1.3,0.9,1.1,1c-0.1,0.1-0.1,0.1,0.1,0.3c0.1,0.1,0.2,0.1,0.1,0c-0.2-0.3,0.1-0.1,0.4,0.3c0.2,0.3,0.3,0.4,0.1,0.3H-9
	c0,0.2,0.4,0.5,0.5,0.5s0.2,0,0.3,0.2c0.2,0.2,0.1,0.2-0.1,0c-0.4-0.3-0.3,0,0.3,0.8c0.3,0.4,0.6,0.9,0.7,1.1
	C-7.2,338.8-7,339.1-6.7,339.2C-6.8,339-6.7,339.2-6.7,339.2 M1.2,365.3c0,0.2,0,0.3,0.1,0.1c0.2-0.2,0.2-0.4,0-0.4
	C1.2,365,1.2,365.1,1.2,365.3 M-117.3,451.9c0.1-0.2-0.6-0.2-0.6,0c0,0.1,0.1,0.1,0.3,0.1S-117.4,452-117.3,451.9 M-1.9,346.3
	c0.1,0,0-0.1-0.2-0.3c-0.2-0.2-0.2-0.2,0,0.1L-1.9,346.3 M1.7,361.5c-0.1,0.2,0.1,0.6,0.1,0.2C1.8,361.5,1.8,361.5,1.7,361.5
	 M1.9,364v0.3C2,364.6,2,363.8,1.9,364 M1.3,361.8c0-0.2,0-0.3-0.1-0.2C1.1,361.9,1.3,362.3,1.3,361.8 M2.1,371.9v0.9
	C2.2,373.4,2.2,371.3,2.1,371.9 M-70.8,455.6c-0.2,0-0.2,0.3,0,0.3C-70.6,455.8-70.6,455.6-70.8,455.6 M-93.8,456.4
	c-0.2-0.1-0.5,0-0.4,0.2s0.6,0.2,0.6,0C-93.6,456.5-93.7,456.5-93.8,456.4 M-69.2,455.6c0.1,0.2,0.2,0.1,0.2-0.1
	C-69,455.2-69.3,455.4-69.2,455.6 M-87.6,455.7c-0.5,0,0,0.1,0.2,0.1C-87.3,455.7-87.4,455.7-87.6,455.7 M-93,456.5
	c0,0.3,0.1,0.4,0.3,0.4c0.1,0,0.2-0.1,0.2-0.2c0-0.1,0-0.2,0.1-0.2c0.2,0,0.2-0.1,0-0.2C-92.8,455.9-93,456-93,456.5 M-181.2,470.3
	c0.2-0.1,0.3-0.4,0-0.3C-181.4,470-181.5,470.4-181.2,470.3 M-92.1,456.3c0,0.1,0.1,0.2,0.2,0.2c0.2,0,0.3-0.2,0.1-0.3
	C-92,456-92.1,456.1-92.1,456.3 M-86.8,456.4c0,0.2,0.1,0.3,0.3,0.3c0.2,0,0.3,0,0.3-0.3c0-0.3-0.1-0.3-0.3-0.3
	C-86.7,456.1-86.8,456.3-86.8,456.4 M-68.1,454.5c0,0,0,0.2-0.1,0.4c0,0.2-0.1,0.4-0.2,0.4c-0.1,0.1-0.1,0.1,0.1,0.1
	s0.3-0.1,0.2-0.1c0-0.1,0-0.1,0.1-0.1c0.3,0,0.3-0.1,0-0.5C-68,454.5-68.1,454.5-68.1,454.5 M-76.7,456.7c0.1,0,0.1-0.1,0.1-0.1
	l-0.1-0.1C-76.9,456.5-76.9,456.8-76.7,456.7 M-29.3,442.3c0,0.1-0.4,0.4-1.2,0.8c-1.2,0.6-1.6,0.8-1.4,0.5c0.1-0.2,0-0.2-0.8,0.2
	c-0.4,0.2-0.7,0.4-0.7,0.5c0.1,0.1,0.1,0.1,0.3,0c0.1-0.1,0.2-0.1,0.3-0.1s-0.3,0.2-0.7,0.5c-0.5,0.3-1.1,0.6-1.3,0.7
	c-0.4,0.2-0.4,0.2-0.1,0.2c0.5-0.1,2.8-1.2,3-1.4c0.2-0.2,0.9-0.5,1.8-0.9c0.7-0.3,0.9-0.4,1.4-0.8c0.4-0.3,0.4-0.4,0.2-0.3
	c-0.2,0.1-0.4,0.2-0.5,0.2s0-0.1,0.3-0.3c0.6-0.3,0.5-0.4,0-0.1C-29.1,442-29.3,442.2-29.3,442.3 M-39.1,447.4c-0.3,0.2,0,0.2,0.3,0
	C-38.6,447.3-38.9,447.3-39.1,447.4 M-37,446.5c0.4-0.1,0.7-0.3,0.7-0.3c0.2,0,0,0.2-0.4,0.3c-0.2,0.1-0.6,0.3-0.7,0.4
	c-0.6,0.3-1.7,0.9-1.7,0.8l-0.4,0.2c-0.5,0.3-0.6,0.3-0.6,0.1c0-0.1,0.1-0.2,0.2-0.1c0.1,0.1,0.2,0,0.1-0.1c-0.1-0.1-0.1-0.1,0-0.1
	c0.2,0.1,0.6,0,0.5-0.2c-0.1-0.1,0.4-0.4,0.6-0.3c0.1,0,0.3,0,0.5-0.1c0.5-0.3,0.1-0.4,0-0.2c0,0.1-0.2,0.1-0.3,0.1
	c-0.4,0,1.2-0.8,1-0.4C-37.7,446.7-37.4,446.7-37,446.5 M-32.4,317.8c0,0,0.1,0,0.1-0.1s0-0.2-0.2-0.3c-0.3-0.2-0.3-0.2-0.1,0.1
	C-32.5,317.7-32.4,317.8-32.4,317.8 M-40.8,448.5c0.2,0,0.6-0.2,0.4-0.2C-40.6,448.2-40.9,448.5-40.8,448.5 M-31.9,444.8
	C-31.8,444.7-31.8,444.7-31.9,444.8C-32.3,444.9-32.1,445.1-31.9,444.8 M-35.3,445.3c-0.1,0-0.1,0.1-0.1,0.1l0.1,0.1
	C-35.2,445.5-35.2,445.2-35.3,445.3 M-73.6,454.4c-0.1,0-0.1-0.1-0.1,0c0,0,0,0.2-0.1,0.3v0.2C-73.5,454.9-73.4,454.5-73.6,454.4
	 M-44.6,449.7c-0.1,0.2,0.2,0.3,0.4,0.2c0.2-0.1,0.2-0.1-0.1-0.2C-44.4,449.6-44.5,449.6-44.6,449.7 M-61.1,454.2
	c0,0.1,0,0.1,0.2,0.1c0.1,0,0.3-0.1,0.3-0.1C-60.6,454.1-61,454.1-61.1,454.2 M-58.6,453.8c0.1,0,0.1,0,0.1-0.1
	c0-0.1-0.1-0.1-0.1-0.1C-58.8,453.5-58.8,453.8-58.6,453.8 M-56.4,452.7c-0.1,0-0.3,0.1-0.3,0.2c-0.1,0.1,0,0.2,0.2,0.2
	C-56.1,453-56,452.7-56.4,452.7 M-41.8,448.7c0,0.1,0.1,0.1,0.1,0.1l0.1-0.1C-41.6,448.6-41.9,448.6-41.8,448.7 M-16.7,328.8
	c0.4,0.5,0.6,0.7,0.3,0.3c-0.1-0.1-0.1-0.3,0-0.3C-16.1,328.7-17.6,327.6-16.7,328.8 M-12.7,335.8c0.1,0.3,0.2,0.4,0.2,0.1
	C-12.6,335.6-12.8,335.4-12.7,335.8 M-16,328.7c0,0.2,0.3,0.3,0.3,0.2C-15.7,328.7-16,328.5-16,328.7 M-114.1,452
	c0-0.1-0.1-0.2-0.3-0.1c-0.1,0-0.2,0.1-0.2,0.2C-114.5,452.2-114.1,452.2-114.1,452 M-6.3,338.7c-0.2-0.3-0.3-0.3-0.1,0
	c0.1,0.1,0.1,0.3,0.1,0.3s0,0.1,0.1,0.1C-6,339-6,339-6.3,338.7 M-5.2,340.7c0.3,0.5,0.4,0.5,0.2,0C-5.2,340.3-5.4,340.3-5.2,340.7
	 M-12.2,331.9c0-0.1-0.1-0.2-0.1-0.2c-0.1,0-0.1-0.1-0.1-0.2s0-0.1-0.1-0.1s-0.2,0-0.1-0.1c0-0.1-0.1-0.2-0.2-0.3
	c-0.2-0.1-0.2-0.1,0,0.2C-12.7,331.5-12.2,332.1-12.2,331.9"/>
<path class="st0" d="M-7.9,337c0.1,0,0.2,0,0.2-0.1c0-0.1-0.1-0.1-0.2-0.2c-0.2-0.1-0.2-0.1-0.2,0C-8.1,336.9-8,337-7.9,337
	 M-7.4,337.5c0.1,0.4-0.2,0.4-0.5-0.1c-0.2-0.3-0.3-0.6-0.3-0.7c0-0.2,0-0.4-0.1-0.5s-0.2-0.3-0.1-0.3c0.1-0.1,2.8,3.5,1.4,1.9
	C-7.3,337.5-7.4,337.4-7.4,337.5 M-13,335.1c0.1,0.2,0.2,0.3,0.2,0.1C-12.8,335-13.1,334.8-13,335.1 M-15.3,331.3
	c-0.1-0.2-0.1-0.2-0.1,0c0,0.1,0.1,0.2,0.1,0.2C-15.2,331.6-15.2,331.6-15.3,331.3 M-15.2,329.4L-15.2,329.4c-0.3-0.2-0.6-0.1-0.5,0
	C-15.7,329.5-15.2,329.6-15.2,329.4 M-8.2,389.7c-0.1,0.5,0.1,1.2,0.1,0.3C-8.2,389.7-8.2,389.5-8.2,389.7 M-8.8,335.3
	c-0.2-0.1-0.2-0.1-0.1,0.1c0,0.1,0.1,0.2,0.2,0.2C-8.6,335.5-8.6,335.5-8.8,335.3 M-33.2,318.6c0,0,0.1-0.1,0.1-0.2
	c0-0.3-0.3-0.3-0.2,0C-33.3,318.6-33.2,318.6-33.2,318.6 M-43.8,317.3c0.1-0.2-0.5-0.3-0.5-0.1C-44.2,317.3-43.9,317.5-43.8,317.3
	 M-31.6,318.2c0.3,0.1,0.8,0.3,1.1,0.4c0.8,0.3,0.6,0.1-0.2-0.2C-32.1,317.7-32.8,317.8-31.6,318.2 M-33.8,318.4
	c0.2-0.3,0.2-0.4-0.1-0.4c-0.1,0-0.2-0.1-0.2-0.2c0-0.2-0.4-0.4-0.5-0.2s-0.5,0.2-0.4-0.1c0-0.1,0-0.2-0.1-0.2s-0.2,0-0.1,0.1
	c0.1,0.1,0,0.2,0,0.3c-0.2,0.3,0.1,0.5,0.6,0.5c0.2,0,0.4,0,0.5,0.1C-33.9,318.5-33.9,318.5-33.8,318.4 M-15.2,332.1
	c0.3,0.9,0.6,1.6,0.7,1.6c0.2-0.1,0.2-0.3-0.1-0.8c-0.2-0.3-0.3-0.5-0.3-0.6c0-0.1-0.1-0.2-0.2-0.4
	C-15.3,331.7-15.3,331.7-15.2,332.1 M-9.5,334.6c0,0.2,0.3,0.3,0.3,0.2C-9.3,334.6-9.5,334.4-9.5,334.6 M-28.9,320.1
	c0.1,0,0.1,0,0.1-0.1l-0.1-0.1C-29.1,319.8-29.1,320.1-28.9,320.1 M-37.7,319.2c0,0,0.1,0.1,0.2,0.1c0.3,0.1,0.3-0.2,0-0.2
	C-37.6,319.2-37.7,319.2-37.7,319.2 M-36.3,317.5c-0.1,0-0.1,0.1-0.1,0.1l0.1,0.1C-36.1,317.7-36.1,317.4-36.3,317.5 M-3.4,369
	c-0.1,0.4,0.1,0.9,0.1,0.2C-3.3,368.9-3.3,368.8-3.4,369 M-8.4,353c0-0.4-0.2,0.1-0.1,0.2C-8.4,353.2-8.4,353.1-8.4,353 M-3.4,362.3
	c-0.1,0-0.1,0.1-0.1,0.1l0.1,0.1C-3.2,362.5-3.2,362.2-3.4,362.3 M-12.3,337c0.2,0.3,0.2,0,0-0.3S-12.5,336.7-12.3,337 M-5.6,360.1
	c0-0.4-0.2,0.1-0.1,0.2C-5.7,360.3-5.6,360.2-5.6,360.1 M-3.4,370.8c-0.1,0-0.1,0.1-0.1,0.1l0.1,0.1c0.1,0,0.1-0.1,0.1-0.1
	C-3.3,370.8-3.3,370.8-3.4,370.8 M-3.5,373.6c-0.1,0.5,0.1,1.3,0.1,0.4C-3.4,373.6-3.5,373.4-3.5,373.6 M-4.3,378.1
	c0-0.3,0-0.6-0.1-0.5c-0.1,0.3-0.1,1.1,0,1.1C-4.4,378.7-4.3,378.4-4.3,378.1 M-5,387.5c-0.1,0-0.2,0.1-0.2,0.2
	c0,0.1,0.1,0.2,0.2,0.2s0.2-0.1,0.2-0.2C-4.8,387.6-4.9,387.5-5,387.5 M-3.6,375.6c-0.1-0.1-0.2,0.8-0.1,1.1c0.1,0.2,0.1,0.2,0.1,0
	C-3.5,376.2-3.5,375.7-3.6,375.6 M-4.1,359.1c-0.2,0-0.2,0.3,0,0.3C-3.9,359.3-3.9,359.1-4.1,359.1 M-8.4,350.5
	c-0.2-0.1-0.2-0.1-0.2,0.3c0,0.5,0,0.5,0.2,0.3C-8.2,350.7-8.2,350.7-8.4,350.5 M-9.8,344.2c-0.1-0.2-0.1-0.5-0.2-0.5
	c-0.1-0.1,0.1,0.9,0.2,1.1C-9.7,344.9-9.7,344.8-9.8,344.2 M-10.3,342.5c0-0.4-0.2,0.1-0.1,0.2C-10.4,342.7-10.3,342.7-10.3,342.5
	 M-11.7,339.3c0-0.1-0.1-0.3-0.2-0.4c-0.1-0.1-0.1,0.1,0,0.3C-11.7,339.9-11.6,339.9-11.7,339.3 M-9.7,342.9c0,0.1,0.1,0.1,0.1,0.1
	c0.1,0,0.1-0.1,0.1-0.2c0-0.1-0.1-0.2-0.1-0.1C-9.6,342.7-9.7,342.8-9.7,342.9 M-10.3,344.6c0.1,0.2,0.2,0.3,0.2,0.1
	C-10.1,344.5-10.4,344.3-10.3,344.6 M-8,348.7l-0.1-0.1c-0.2,0-0.2,0.3,0,0.2C-8,348.8-8,348.7-8,348.7 M-8.7,349.2
	c-0.1,0.1-0.1,0.7,0,0.6C-8.6,349.8-8.6,349.1-8.7,349.2 M-8.5,346c-0.1,0.2,0,0.3,0.1,0.3h0.2C-8.5,345.7-8.4,345.6-8.5,346
	 M-98.2,452.6c0,0.1,0.1,0.2,0.3,0.1c0.1,0,0.3-0.1,0.5-0.1c0.1,0,0.3-0.1,0.4-0.2c0-0.1,0-0.2-0.1-0.1c-0.1,0-0.4,0.1-0.6,0.1
	C-98.2,452.4-98.3,452.5-98.2,452.6 M-102.9,308.9c-0.1,0-0.2,0-0.3,0.1c0,0.1,0,0.1,0.2,0.1C-102.7,309.1-102.7,309-102.9,308.9
	 M-92,309.3c0.1,0.3,0.5,0.4,0.5,0.1c0-0.1,0.1-0.2,0.1-0.1c0.2,0.1,0.2-0.2,0-0.5c-0.1-0.2-0.1-0.2-0.1,0c0.1,0.2,0,0.2-0.3,0.2
	C-91.9,309.1-92,309.1-92,309.3 M-94.2,308.9c0.2-0.1,0.1-0.2-0.1-0.2C-94.6,308.7-94.4,309-94.2,308.9 M-95.6,309.6
	c0-0.1,0-0.3-0.1-0.3c-0.1-0.2-0.9-0.1-0.9,0.1C-96.6,309.7-95.6,309.9-95.6,309.6 M-97.6,308.7c0.1,0.2,0.2,0.3,0.2,0.1
	C-97.4,308.7-97.7,308.5-97.6,308.7 M-127,311.5C-126.7,311.6-126.6,311.4-127,311.5C-127.1,311.5-127.1,311.5-127,311.5
	 M-100.3,309.5c0,0.1,0.4,0,0.4-0.1C-99.9,309.2-100.3,309.3-100.3,309.5 M-73,309.2c-0.4-0.4-0.7,0-0.9,0H-73 M-119.9,310.7
	l0.1,0.1c0.1,0,0.1-0.1,0.1-0.1c0-0.1-0.1-0.1-0.1-0.1L-119.9,310.7 M-119.4,310.6C-119.2,310.7-119,310.5-119.4,310.6
	C-119.5,310.5-119.5,310.6-119.4,310.6 M-118.7,310.5c-0.5,0,0,0.2,0.2,0.1C-118.5,310.6-118.5,310.5-118.7,310.5 M-121.1,310.8
	c0.2,0.1,0.4,0,0.3-0.2c0-0.1,0.3-0.1,0.8-0.2c0.5,0,1.1-0.1,1.4-0.1c0.4,0,0.5,0,0.5,0.2c0.1,0.3,0,0.3-0.7,0.4
	c-1.2,0-1.3,0-1.4-0.1c-0.1-0.2-0.3-0.2-0.2,0c0.1,0.2-0.2,0.3-0.8,0.3c-0.4,0-0.5,0-0.5,0.1s0,0.1-0.2,0.1s-0.3-0.1-0.3-0.2
	c-0.1-0.2,0-0.2,0.4-0.2c0.3,0,0.5-0.1,0.5-0.1c0-0.1,0.1-0.2,0.2-0.2c0.2,0,0.2,0,0,0.1C-121.2,310.7-121.2,310.8-121.1,310.8
	 M-99.3,309.5c0.2-0.1,0.2-0.2,0.1-0.2c-0.1-0.1-0.2,0-0.3,0.1C-99.6,309.6-99.5,309.7-99.3,309.5 M-65.3,311.1c0.1,0,0.1,0,0.1-0.1
	l-0.1-0.1c-0.1,0-0.1,0-0.1,0.1C-65.4,311-65.4,311.1-65.3,311.1 M-107,309.7C-106.7,309.8-106.5,309.6-107,309.7
	C-107,309.6-107.1,309.7-107,309.7 M-108.8,309.8c0,0.1-0.1,0.2-0.2,0.2c-0.2,0-0.2,0,0,0.2c0.1,0.1,0.2,0.1,0.3,0.1
	c0.1-0.1,0.2-0.1,0.2,0c0,0.1,0.2,0.1,0.2,0.1c0.1,0,0.1,0,0-0.1c-0.2-0.1-0.1-0.2,0.1-0.2c0,0,0.1-0.1,0.1-0.3
	c0.1-0.2,0-0.2-0.3-0.2C-108.7,309.7-108.8,309.7-108.8,309.8 M-68,310c0.2,0.1,0.6-0.1,0.2-0.1C-68,309.9-68,309.9-68,310
	 M-94.7,309.4c0,0.3,0.2,0.3,0.3,0.1c0-0.1,0.1-0.1,0.2-0.1s0.1,0,0.1-0.1c0-0.1-0.1-0.2-0.3-0.2C-94.6,309.1-94.7,309.2-94.7,309.4
	 M-125.1,311.4c0,0-0.1-0.1-0.3-0.1s-0.2-0.1-0.2-0.1c0.1-0.1-0.3-0.2-0.2,0.1C-125.8,311.4-125.1,311.5-125.1,311.4 M-69,310.7
	c0,0.1,0,0.1,0.1,0.2c0.1,0,0.1,0.1,0.1,0.2s0,0.1,0.1,0c0.2-0.1,0.2-0.1,0-0.3C-68.8,310.7-68.9,310.7-69,310.7 M-67.1,310.1
	c0.2,0,0.2-0.2,0-0.3c-0.1,0-0.2-0.1-0.2,0C-67.5,309.9-67.3,310.1-67.1,310.1 M-76.7,309.7c0-0.1-0.1-0.2-0.3-0.2
	c-0.4,0-0.5,0.3-0.1,0.4C-76.9,310-76.7,309.9-76.7,309.7 M-78.7,309.6c0.1,0.2,0.4,0.1,0.2-0.1C-78.7,309.3-78.8,309.3-78.7,309.6
	 M-92.7,309.1c0,0,0.1,0.1,0.2,0.1c0.3,0.1,0.3-0.2,0-0.2C-92.6,309.1-92.7,309.1-92.7,309.1 M-192.2,344.8c0-0.1,0-0.3,0.1-0.3
	c0.2-0.1,0.2-0.2-0.1-0.3c-0.1-0.1-0.2-0.1-0.1-0.1c0.1,0.1,0,0.2-0.1,0.3c-0.2,0.2-0.2,0.2,0,0.4C-192.1,345-192.1,345-192.2,344.8
	"/>
<path class="st0" d="M-188.7,472.9c0.1,0,0.1-0.1,0.1-0.1l-0.1-0.1C-188.9,472.7-188.9,473-188.7,472.9 M-187.3,472.6
	c0.1,0,0.3-0.1,0.5-0.3c0.3-0.2,0.3-0.3,0.1-0.3c-0.2-0.1-0.3,0-0.4,0.1c-0.1,0.1-0.2,0.2-0.3,0.2c-0.1,0-0.2,0.1-0.1,0.1
	C-187.5,472.5-187.3,472.6-187.3,472.6 M-185.6,471.5c0.2-0.2,0.2-0.3,0-0.4c-0.2-0.1-0.4,0.2-0.4,0.4
	C-186,471.7-185.8,471.7-185.6,471.5 M-182.5,469c0-0.2-0.3,0-0.3,0.2C-182.7,469.3-182.5,469.2-182.5,469 M-179.6,467
	c0.1-0.1,0.3-0.2,0.4-0.3c0.2-0.1,0.3-0.3,0.4-0.4c0.2-0.1,0.3-0.2,0.4-0.4c0,0.1,0.1,0.2,0.1,0.1c0.1-0.1,0.1-0.4,0-0.4
	c0,0-0.1,0-0.1,0.1v-0.1c-0.2-0.8-0.6-0.5-0.6-0.3c0.1,0.4-0.7,0.3-0.6,0.8c0,0.1,0.2,0.2,0.3,0.2c-0.1,0.1-0.3,0.2-0.3,0.2
	c-0.1,0,0,0.1,0.1,0.1c0.2,0.1,0.1,0.1-0.2,0.1s-0.8,0.4-0.8,0.7C-180.4,467.5-179.8,467.2-179.6,467 M-176,464.6
	c0.4-0.4,0.4-0.4,0.1-0.3c-0.1,0-0.3,0.2-0.3,0.4C-176.3,464.9-176.3,464.9-176,464.6 M-174.7,464.2c0.2-0.1,0.2-0.4,0-0.3
	C-174.9,464.1-174.9,464.4-174.7,464.2 M-175.3,464.5c-0.1,0-0.2,0.1-0.2,0.3c0,0.1,0,0.3,0.1,0.3c0,0,0.1-0.1,0.2-0.3
	C-175.1,464.5-175.2,464.5-175.3,464.5 M-177.3,465C-177.6,465.2-177.4,465.3-177.3,465C-177.1,465-177.1,465-177.3,465
	 M-177.6,465.4c-0.2,0-0.2,0.3,0,0.2c0.1,0,0.1-0.1,0.1-0.1S-177.5,465.4-177.6,465.4 M-177.3,465.7c0.2,0,0.2,0,0.1-0.1
	C-177.4,465.5-177.5,465.7-177.3,465.7 M-173.2,462.1c0.1,0,0.1,0,0.1-0.1l-0.1-0.1c-0.1,0-0.1,0-0.1,0.1L-173.2,462.1
	 M-172.7,461.9c-0.1,0.3,0.2,0.1,0.2-0.1S-172.6,461.7-172.7,461.9 M-172.6,461.2c0.1,0,0.1-0.1,0.1-0.1l-0.1-0.1
	C-172.8,461.1-172.8,461.4-172.6,461.2 M-116.3,448.2c0-0.1,0.2-0.1,0.3-0.1c0.3,0,0.3-0.2,0-0.3h-0.3c0,0.1-0.2,0.1-0.5,0
	c-0.6-0.1-1,0-1,0.1s0.2,0.1,0.5,0.1h0.5C-116.9,448.2-116.4,448.4-116.3,448.2 M-120.6,448c0.1,0,0.4,0,0.5-0.1
	c0.4-0.2,0.2-0.6-0.3-0.4h-0.3c0-0.2-0.7-0.1-0.8,0C-121.6,447.6-121,448-120.6,448 M-152.9,447.9c0.1,0,0.1-0.1,0.1-0.1l-0.1-0.1
	C-153,447.7-153,448-152.9,447.9 M-124.8,447.6c0.2-0.2-0.1-0.5-0.6-0.5c-0.3,0-0.4,0-0.4,0.3c0,0.3,0,0.3,0.3,0.2h0.4
	C-125,447.8-124.9,447.7-124.8,447.6 M-128.2,447.5c0.3-0.3,0.9-0.3,1.2,0c0.2,0.1,0.3,0.2,0.4,0.1c0,0,0.1-0.2,0.1-0.3
	c0-0.2-0.2-0.2-0.8-0.2c-0.9,0-1.2,0.1-1.1,0.4C-128.5,447.7-128.5,447.7-128.2,447.5 M-129.2,447.5
	C-129.2,447.5-129.2,447.4-129.2,447.5l-0.3-0.3c0-0.2-0.2-0.3-0.5-0.3c-0.4,0-0.6-0.1-0.7-0.1c0,0-0.3,0-0.6-0.1
	c-0.4,0-0.5,0-0.5,0.1c0.1,0.2,0.5,0.4,0.7,0.3c0.1,0,0.1,0,0.2,0.1c0,0.1,0.2,0.1,0.4,0c0.3-0.1,0.4-0.1,0.8,0.1
	C-129.5,447.5-129.3,447.6-129.2,447.5 M-137.7,447.4c0.1-0.1-0.5-0.1-0.3,0H-137.7 M-148.9,447.2c0-0.1-0.4-0.2-0.5-0.1
	C-149.5,447.2-148.9,447.3-148.9,447.2 M-132.4,447c0.2,0,0.3-0.1,0.3-0.1c0-0.2-0.1-0.2-0.4,0C-132.6,447-132.6,447-132.4,447
	 M-149.8,447c0.1-0.1-0.5-0.1-0.3,0H-149.8 M-141.6,446.7C-141.8,446.6-141.8,446.7-141.6,446.7C-141.4,447-141.3,446.8-141.6,446.7
	 M-142.1,446.8c0.2,0,0.2-0.3,0-0.2c-0.1,0-0.1,0.1-0.1,0.1S-142.2,446.8-142.1,446.8 M-151.8,446.6c0.1,0,0.1-0.1,0-0.2
	c-0.2-0.1-0.4,0-0.2,0.1C-152,446.6-151.9,446.7-151.8,446.6 M-176.7,446.5c0.2,0,0.2-0.3,0-0.2c-0.1,0-0.1,0.1-0.1,0.1
	S-176.8,446.5-176.7,446.5 M-144.5,446.4c0.2,0,0.2-0.3,0-0.3C-144.7,446.1-144.7,446.4-144.5,446.4 M-145.8,446.1
	c0.1-0.1,0.1-0.2-0.2-0.2c-0.2,0-0.3,0-0.2,0.2C-146,446.3-145.9,446.3-145.8,446.1 M-141.2,445.9c0-0.2-0.3-0.2-0.3,0
	C-141.5,446-141.2,446-141.2,445.9 M-136.6,446.3c-0.1,0-0.1,0.1-0.1,0.1l0.1,0.1C-136.5,446.5-136.5,446.2-136.6,446.3
	 M-138.4,446.4C-138.4,446.3-138.4,446.3-138.4,446.4C-138.5,446.6-138.3,446.8-138.4,446.4 M-135.3,446.5c-0.1,0.2,0,0.4,0.3,0.3
	c0.1,0,0.3,0,0.3-0.1c0.1,0,0.1-0.1,0.1-0.1l-0.1-0.1c-0.1,0-0.2,0-0.3-0.1C-135.1,446.4-135.2,446.4-135.3,446.5 M-133.9,446.7
	c0,0-0.1-0.1-0.2-0.1c-0.3-0.1-0.3,0.2,0,0.2C-134,446.8-133.9,446.8-133.9,446.7 M-133.1,446.5c-0.3,0.2-0.3,0.3,0,0.4
	c0.3,0.1,0.4,0,0.3-0.3C-132.9,446.4-132.9,446.4-133.1,446.5 M-129,447c-0.1,0-0.1,0.1-0.1,0.2s0.1,0.1,0.1,0.1
	c0.1,0,0.1-0.1,0.1-0.2C-128.9,447-129,446.9-129,447 M-61.6,446.8c-0.2,0-0.4,0.2-0.3,0.3C-61.8,447.2-61.4,446.8-61.6,446.8
	 M-121.9,447.4C-122,447.6-121.8,447.8-121.9,447.4C-121.9,447.3-121.9,447.3-121.9,447.4 M-122.9,447.3c0,0.1-0.1,0.1-0.2-0.1
	c-0.1-0.1-0.4-0.2-0.6-0.2c-0.3,0-0.4,0.1-0.4,0.3s0.1,0.3,0.7,0.3c0.4,0,0.8,0,0.9-0.1c0.2-0.1,0.2-0.1-0.1-0.3
	C-122.8,447.2-122.9,447.2-122.9,447.3 M-68.9,447.3c-0.1,0-0.2,0.1-0.3,0.1c-0.1,0.1,0.2,0.3,0.4,0.2
	C-68.7,447.5-68.7,447.3-68.9,447.3 M-70.6,447.7c0.1,0,0.2-0.1,0.1-0.2c-0.1-0.1-0.1-0.1-0.1,0c0,0.1-0.1,0.2-0.2,0.2
	s-0.2,0.1-0.2,0.2c0,0.3,0.3,0.2,0.3,0.1C-70.8,447.8-70.7,447.7-70.6,447.7 M-71.5,447.8c0.2,0,0.3-0.1,0.1-0.2
	C-71.6,447.5-71.8,447.8-71.5,447.8 M-72.1,447.6c-0.4,0-0.6,0.2-0.4,0.4c0.1,0.1,0.2,0.1,0.4,0C-71.8,447.9-71.8,447.6-72.1,447.6
	 M-76.4,448.1c0.3-0.3,0.3-0.3-0.1-0.3c-0.2,0-0.3,0.1-0.3,0.3C-76.7,448.3-76.6,448.4-76.4,448.1 M-77.8,448.3
	c0.2-0.1,0.3-0.3,0.1-0.4C-77.9,447.8-78,448.4-77.8,448.3 M-78.8,448.1c-0.2,0-0.2,0.3,0,0.3C-78.6,448.3-78.6,448.1-78.8,448.1
	 M-81.2,448.5c0.1,0,0.2-0.1,0.3-0.1c0.2-0.1,0.1-0.1-0.1-0.1S-81.3,448.4-81.2,448.5L-81.2,448.5 M-53.9,448.5
	c-0.1,0-0.1,0.1-0.1,0.1l0.1,0.1c0.1,0,0.1-0.1,0.1-0.1S-53.8,448.5-53.9,448.5 M-55.5,448.8h0.3C-55.2,448.7-55.8,448.7-55.5,448.8
	 M-98.4,448.9c0-0.2-0.3-0.2-0.2,0c0,0.1,0.1,0.1,0.1,0.1S-98.4,449-98.4,448.9 M-148.8,448.8c0-0.2,0-0.3-0.1-0.3
	c-0.1,0-0.1,0.1-0.1,0.2s-0.1,0.2-0.1,0.2c-0.1,0-0.1,0.1-0.1,0.1c0,0.1,0.2,0.1,0.2,0.1C-148.9,449.1-148.9,449-148.8,448.8
	 M-101.4,447.9c-0.1,0-0.1,0.1-0.1,0.1l0.1,0.1C-101.3,448.1-101.3,447.8-101.4,447.9 M-100.1,447.9c0,0.2,0.2,0.3,0.5,0.3
	c0.1,0,0.2-0.1,0.2-0.2c0-0.1-0.1-0.1-0.1,0c-0.1,0-0.2,0-0.3-0.1C-100.1,447.7-100.1,447.7-100.1,447.9 M-119.7,447.5
	c-0.2,0.1,0.4,0.4,0.7,0.4c0.1,0,0.2,0,0.2-0.1C-118.7,447.6-119.4,447.4-119.7,447.5 M-81.9,448.2c0.2-0.2,0.2-0.3-0.1-0.3
	c-0.4,0-0.5,0.2-0.3,0.4C-82.2,448.4-82.1,448.4-81.9,448.2 M-84.8,448.5c0.4,0,0.6,0,0.7-0.3c0.1-0.1,0.2-0.3,0.2-0.4s0-0.1-0.1,0
	c0,0.1-0.2,0.2-0.3,0.2C-84.6,448-85.1,448.5-84.8,448.5 M-85.2,448.1c-0.3,0-0.7,0.2-0.7,0.3s0.1,0.1,0.3,0c0.2-0.1,0.3-0.1,0.3,0
	s0.1,0.1,0.2,0.1C-85,448.3-85,448.1-85.2,448.1 M-87.1,448.7c0.1,0,0.1-0.1,0.1-0.1c0-0.1,0.1-0.1,0.2-0.2c0.1,0,0.2-0.1,0.1-0.2
	s-0.2-0.2-0.3,0c-0.1,0.1-0.1,0.2-0.1,0.2c0.1,0,0,0.1-0.1,0.2C-87.2,448.7-87.2,448.7-87.1,448.7 M-92.6,448.8
	c0.2,0,0.4-0.1,0.4-0.2C-92.2,448.4-92.4,448.5-92.6,448.8C-93,448.8-93,448.8-92.6,448.8 M-95.7,448.8
	C-95.6,448.8-95.6,448.7-95.7,448.8v-0.2C-95.9,448.6-95.9,448.9-95.7,448.8 M-108,448.7c0,0.2,0,0.2,0.2,0.1l0.2-0.2
	c0,0-0.1-0.1-0.2-0.1C-108,448.5-108,448.6-108,448.7 M-108.4,448.5c-0.1,0-0.2,0.1-0.2,0.1c0,0.1,0,0.1,0.1,0.1
	S-108.3,448.6-108.4,448.5C-108.2,448.5-108.3,448.5-108.4,448.5 M-96,448.6c-0.1,0-0.2,0-0.3,0.1c-0.2,0.1-0.1,0.1,0.1,0.1
	C-95.9,448.7-95.9,448.7-96,448.6 M-94.3,448.7c0.1-0.1-0.9-0.3-1-0.2C-95.5,448.7-94.4,448.9-94.3,448.7 M-90.8,448.7
	c0.2,0.1,0.3-0.1,0.2-0.3C-90.9,448.3-91,448.6-90.8,448.7 M-89.3,448.5c0,0,0,0.1,0.1,0.1c0.1,0.1,0.2,0.1,0.5,0
	c0.2-0.1,0.4-0.1,0.4,0c0.1,0.1,0.3,0.1,0.5,0c0.2,0,0.4-0.1,0.4-0.2s-0.2-0.1-0.4-0.1C-88.3,448.3-88.4,448.3-89.3,448.5
	 M-100.4,448.3c0,0,0.1-0.1,0.1-0.2c0-0.1-0.1-0.2-0.1-0.1C-100.6,448.1-100.6,448.3-100.4,448.3 M-107.7,448c-0.2,0-0.2,0.3,0,0.3
	C-107.5,448.2-107.5,448-107.7,448 M-106.6,448.1c-0.1-0.1-0.3-0.1-0.4-0.1c-0.2,0-0.2,0,0.1,0.2
	C-106.5,448.4-106.3,448.4-106.6,448.1 M-82.7,448.5C-82.6,448.6-82.6,448.6-82.7,448.5c0.1-0.2-0.2-0.5-0.5-0.5
	c-0.4,0-0.5,0.1-0.3,0.5c0.2,0.2,0.2,0.2,0.5,0.1C-82.8,448.4-82.7,448.4-82.7,448.5 M-79.8,447.5
	C-79.8,447.4-79.8,447.4-79.8,447.5c-0.3,0.3-0.3,0.5-0.1,0.5c0.1,0,0.2,0,0.1,0.1c0,0.2,0.4,0.2,0.4,0c0-0.3,0.3-0.5-0.1-0.5
	C-79.7,447.7-79.8,447.6-79.8,447.5 M-78.4,447.8c-0.1,0.2-0.1,0.4-0.1,0.4c0,0.1,0.1,0.1,0.3,0c0.1-0.1,0.2-0.3,0.1-0.4
	C-78.2,447.5-78.2,447.5-78.4,447.8 M-73.6,447.8c-0.1,0-0.1,0-0.1,0.1c0,0.1,0.1,0.2,0.1,0.1c0.1,0,0.1-0.1,0.1-0.1
	C-73.4,447.9-73.5,447.8-73.6,447.8 M-72.8,448c0-0.2-0.4-0.2-0.4,0C-73.2,448.1-72.8,448.1-72.8,448 M-75.5,447.8
	c-0.1-0.1-0.4,0-0.4,0.2c0,0,0.1,0.1,0.3,0.1C-75.4,448-75.3,447.9-75.5,447.8 M-74.7,448.1c0.2,0,0.2,0,0.1-0.2
	c-0.1-0.1-0.1-0.1-0.2,0C-74.8,448-74.8,448.1-74.7,448.1 M-113.4,448.6C-113.4,448.6-113.3,448.6-113.4,448.6
	c0.1-0.2,0.2-0.2,0.3-0.2c0.3,0,0.4-0.2,0.1-0.4c-0.2-0.1-0.3-0.1-0.3,0.2C-113.5,448.4-113.5,448.5-113.4,448.6 M-53.8,445.4
	c0.1-0.1-0.5-0.1-0.2,0C-54,445.5-53.9,445.5-53.8,445.4 M-149,445.3c-0.1-0.1-0.2-0.1-0.4-0.1h-0.3l0.3,0.1
	C-149.1,445.5-148.9,445.5-149,445.3 M-150.2,445.3c0.1,0,0.2-0.1,0.3-0.1c0-0.1,0-0.1-0.1-0.1s-0.2,0.1-0.3,0.1
	C-150.4,445.3-150.3,445.3-150.2,445.3 M-125.4,445.1c-0.1,0-0.1,0.1-0.1,0.1c0,0.1,0.1,0.1,0.1,0.1l0.1-0.1
	C-125.3,445.1-125.3,445.1-125.4,445.1 M-64.1,444.5c0.2-0.1,0.2-0.3,0-0.3s-0.5,0.2-0.3,0.3H-64.1 M-104.5,443.2
	c0.2-0.7,0.1-0.8-0.6-0.5C-106,443.2-104.9,444.7-104.5,443.2 M-34,442.9c0,0.1,0,0.1,0.1,0c0.9-0.6,1.3-0.8,1.2-0.9
	C-32.8,441.9-33.9,442.7-34,442.9 M-59.3,443.4c-0.1,0.2,0.3,0.1,0.3-0.1C-58.8,443-59.2,443.1-59.3,443.4 M-178,436.1l-0.2-0.4
	c-0.1-0.3-0.2-0.3-0.3-0.2c-0.2,0.3-0.2,0.4,0.2,0.5C-178.2,436.1-178,436.1-178,436.1 M-153,434.5c-0.5-0.2-0.6-0.1-0.6,0.4
	C-153.5,435.9-152.1,434.8-153,434.5 M-159.6,432.8c-0.2-1.3-0.8-0.6-0.8-0.7c-1.2,0.3-0.4,1.3-0.2,1.2c0.2,0,0.3,0.1,0.4,0.4
	C-160,434.5-159.5,433.7-159.6,432.8 M-127,432.3c-0.1,0.7,0.5,0.4,0.4,0.7c-0.2,0.9,1.1-1,0.1-1.1
	C-127.1,431.8-126.9,432.3-127,432.3 M-172,418c1.3-10,1.4-14.6,0.2-7.6C-174.2,424.4-174.8,439.2-172,418 M-195.8,414.4
	c0.1,0,0.1-0.1,0.1-0.1l-0.1-0.1C-196,414.2-196,414.5-195.8,414.4 M-195.9,413.1c-0.2-0.1-0.2,0.3,0,0.4
	C-195.8,413.6-195.8,413.2-195.9,413.1 M-72.1,408.3c0.4,0,0.3-0.4,0.3-0.4C-71.8,406.9-73,408.3-72.1,408.3 M-38.9,408.4
	c-0.5,0.5,0.9,0.4,0.4-0.1C-38.7,408.1-38.9,408.4-38.9,408.4 M-161,410.1c1.1-0.2,0.1-0.6,0.1-0.7C-162,408.8-162,410.3-161,410.1
	 M-11.6,411.3c-0.1,0.3-0.3,1.4-0.2,1C-11.6,411.9-11.5,411.1-11.6,411.3 M-12.4,415.1c-0.2,0-0.2,0.1-0.1,0.3c0,0.2,0,0.3-0.1,0.4
	c-0.1,0-0.1,0.1,0,0.2c0.1,0.1,0.2,0.1,0.2-0.1c0-0.2,0.1-0.4,0.2-0.5C-12.2,415.2-12.2,415.1-12.4,415.1 M-12.7,416.7
	c-0.1,0-0.2,0.2-0.3,0.4c-0.1,0.6-0.4,1.5-0.6,2.5c-0.1,0.4-0.2,0.8-0.3,0.9c-0.1,0.1-0.1,0.4-0.1,0.5c0,0.3,0,0.3,0.2,0
	c0.2-0.4,0.9-2.5,1-3.3C-12.7,417.4-12.7,417-12.7,416.7C-12.6,416.8-12.6,416.7-12.7,416.7 M-119.5,423.7c0,1.4,1.8-0.6,0.5-0.6
	C-119.6,423-119.4,423.7-119.5,423.7 M-157.7,422.7c0,0.6,0.5,0.4,0.5,0.5C-155.9,423.3-157.6,421.6-157.7,422.7 M-101.6,420.6
	c-5,3.3-4.8,3.6,0.2,0.3C-96.4,417.6-96.6,417.3-101.6,420.6 M-134.5,420.5c0.8-0.4-0.1-1,0.4-1.6c0.6-0.7-0.5,0.1-1.1-1.1
	c-0.6-1.3-2.8-1.4-2.4-0.5c0.2,0.4,0.5,0.1,0.5,0.2C-136.4,417.2-135.3,420.9-134.5,420.5 M-14,421.4c-0.2,0-0.5,1-0.6,1.5
	c0,0.1-0.1,0.3-0.2,0.4l-0.2,0.4c0,0.1-0.1,0.4-0.3,0.7c-0.5,1-0.2,0.9-0.7,2c-0.1,0.2-0.1,0.4-0.1,0.5c0.1,0.2,0.6-1,1-2.4
	c0.3-1,0.4-1,0.7-1.9C-13.8,421.6-13.8,421.4-14,421.4 M-16.2,427.6c0,0.2,0.3-0.2,0.3-0.4C-16,427-16.2,427.4-16.2,427.6
	 M-23,403.4c0.7-0.2-1.7-2.2-1.2-0.6c0.1,0.3,0.3,0.6,0.4,0.5c0.2-0.1,0.4,0.9,0.7,1C-22.7,404.3-23.2,403.5-23,403.4 M-125.7,402.8
	c-0.7-1-1.9,0.7-0.7,1C-125.8,403.9-125.4,403.3-125.7,402.8 M-197.5,401.9c0.1-0.2,0.2-1.2,0.1-1.2c-0.4-0.1-0.5-0.1-0.5,0.6
	C-197.9,402.1-197.7,402.3-197.5,401.9 M-43.3,402c0.5,0.3,0.8-0.3,0.8-0.3C-41.4,400.4-44.5,401.3-43.3,402 M-9.2,399.3
	c0-0.4-0.2,0.1-0.1,0.2C-9.2,399.5-9.2,399.5-9.2,399.3 M-184.4,397.2c0.1-0.8,0-0.9-1.5-1.2c-1.4-0.3-1.7-0.2-1.8,0.4
	c-0.2,1.1,1.6,1,1.5,1.2C-184.7,398.1-184.5,398-184.4,397.2 M-134.9,396.9c0.5,0.7,0.7,0.6,0.8-0.2
	C-133.9,395.5-135.9,395.5-134.9,396.9 M-8.8,394.9c-0.1,0.3-0.1,0.8-0.1,1c0,0.3,0,0.3,0.1-0.1c0.1-0.3,0.1-0.7,0.1-1
	C-8.7,394.4-8.7,394.4-8.8,394.9 M-51.3,394.4c-0.1-0.3-0.3-0.4-0.3-0.4c-0.2,0.1-0.4-0.7-0.7-0.7c-0.2,0,0.2,0.6,0,0.7
	C-52.7,394.2-50.7,395.5-51.3,394.4 M-38.4,389c-4.3-2.5-4.5-2.2-0.2,0.3C-34.2,391.8-34.1,391.5-38.4,389 M-81,387.9
	c-0.5-0.1-0.8-1.7-1-1.7s-0.3,0.3-0.3,0.3c-0.2,0.6-0.6,0.9-0.2,1c0.5,0.1,0,1.1,1,1.3C-80.9,388.9-80.8,387.9-81,387.9
	 M-34.1,386.1c0.3,0.1,0.3-0.1,0.3-0.1c0.1-0.3,0.2,0,0.4-0.5c0.2-0.7-0.3-0.5-0.4-0.4c0,0.1-0.1,0.2-0.2,0.1
	C-34.3,385.2-34.4,386-34.1,386.1 M-103.2,385.7c0.3-1.2,2.2-0.8,2.4-1.3c0.2-0.7-1.5-0.9-2.3-0.3c-0.4,0.3-1,0.5-1.2,0.4
	C-106,384.1-103.5,386.9-103.2,385.7 M-145.4,385.7c0.6-0.5,0.2-0.7,0-0.5c-0.2,0.2-0.5-0.4-0.8-0.1
	C-146.5,385.3-146,386.3-145.4,385.7 M-126.3,383.9c-0.8-0.4,0.5-1.9-0.1-2.1c-0.3-0.1-1.9,2.1-0.5,2.7
	C-125.8,385-125.7,384.2-126.3,383.9 M-168.1,381.3c0.1-0.8,0.7-1.2,0.1-1.3s-0.1-1.3-1.4-1.5c-0.7-0.1-0.7,1.1-0.5,1.2
	c0.7,0.1,1.2,2,1.4,2C-168.2,381.8-168.1,381.3-168.1,381.3 M-22.4,378.4c0.2,0.2-0.1,0.2,0,0.4c0.1,0.1,0.7-0.4,0.6-0.5
	c-0.1-0.1-0.2,0.1-0.4-0.1C-22.3,378-22.5,378.3-22.4,378.4 M-8.7,378.6c-0.3,0.1-0.1,0.8-0.4,0.8c-0.3,0-0.1,0.7,0.3,0.5
	C-8.1,379.6-8.7,378.6-8.7,378.6 M-22,383.6c0.2,0.2,0.3,0.1,0.6-0.3c0.8-0.9,1.2-0.9,1-1.2C-20.5,381.9-22.5,383.1-22,383.6
	 M-19.2,382.4c-2.3,1.1,2.3,2.7,1.2,0.4C-18.2,382.9-18,381.9-19.2,382.4 M-48.3,383.2c-0.1,0,0.5-0.2-0.2-0.4
	C-49.4,382.7-48.9,383.7-48.3,383.2 M-62.5,384c0.5-0.1,0.5-1.5-0.5-1.3c-0.9,0.2-0.6,0.7-0.3,0.6C-62.9,383.3-63,384.1-62.5,384
	 M-60.9,385.6c1.1-0.7-0.2-0.6-0.2-0.7C-62.2,384.8-62.2,386.5-60.9,385.6 M-32.4,375.6c0-0.1,0.2-0.1,0.4,0
	c0.5,0.3,0.4-0.4-0.2-0.7c-0.8-0.5-0.7,0.2-0.8,0.1C-33.3,375.7-32.4,375.7-32.4,375.6 M-58.4,374.3c-0.1,0,0.7-0.2-0.2-0.5
	C-59.8,373.5-59.3,374.8-58.4,374.3 M-45.3,373.6c0.4-0.6,0.3-0.7-0.4-0.5C-46.7,373.3-46.1,374.8-45.3,373.6 M-71,370.5
	c0.2-0.4,0.1-0.6-0.3-0.8C-72.4,369.4-71.5,371.9-71,370.5 M-121.1,369.3c8.9-1.3,8.9-1.8-0.1-0.4
	C-130.1,370.2-130,370.6-121.1,369.3 M-159.7,367.3c0.2-0.5-1-0.6-0.8-1.1c0.1-0.4-1.2-1.2-1.6-0.2
	C-162.5,367.1-159.9,367.7-159.7,367.3 M-13.9,365.4c-0.1-0.2,0.4-0.2,0.3-0.5c-0.1-0.2-0.8-0.1-0.6,0.4
	C-14.1,365.7-13.9,365.5-13.9,365.4 M-86.1,364.1c-1.1-1.4-1.5-1.1-0.5,0.3C-85.5,365.9-85,365.5-86.1,364.1 M-187.9,364.2
	c0.6,0.3,1.3-0.2-0.4-1c-1.9-0.8-1.9,0.8-1.2,1.2C-188.4,364.9-188.7,363.9-187.9,364.2 M-153.7,363.1c1.8,1.9,0.8-2.1-0.3-2.2
	C-154.5,361-154.2,362.6-153.7,363.1 M-119.3,360.4c0.4-1.2-2.3-1.3-2.4-1.3C-121.9,359.9-119.8,362-119.3,360.4 M-137.5,362.1
	c-0.1-0.3,0.5-0.2,0.4-0.6c-0.1-0.3-1-0.2-0.8,0.5C-137.7,362.5-137.4,362.3-137.5,362.1 M-83.5,361.1c-0.1,0.8,1.1,2,1.2,0.8
	c0.1-0.7-0.5-0.3-0.4-0.9C-82.7,360.6-83.5,360.4-83.5,361.1 M-65.2,361.8c-0.7,0-1.6,0.7-1.1,0.9c0.2,0.1,0.3,0.3,0.3,0.5
	c0,0.5,1,0.5,1,0.1C-65.2,363.2-64.3,361.8-65.2,361.8 M-16.7,363.7c0.5,0.7,0.5-0.1,0.5-0.1C-16,362.6-17.1,363.1-16.7,363.7
	 M-21.7,365.6c-0.2,0,0,0.3-0.3,0.4c-0.3,0.1-0.3,0.5,0.2,0.4C-21.2,366.2-21.6,365.5-21.7,365.6 M-43.5,370.1
	c-0.3,0.2-0.3,0.3,0.1,0.4C-42.9,370.5-42.9,369.6-43.5,370.1 M-35.6,357.9c-0.2-0.3,0.5-0.6-0.4-0.5c0,0-0.4,0-0.5-0.1
	c-0.2-0.2-0.3,0-0.2,0.3c0.3,1.1,0.7,0.3,0.9,0.6C-35.6,358.3-35.4,358.2-35.6,357.9 M-187.1,341.9c-0.5-0.2-2.7,5.4-2.8,5.4
	c-3.7,8.6-1.1,3.9-2.9,8C-197.2,365.6-186.3,342.3-187.1,341.9 M-193.1,345.8h-0.1c0,0.1,0,0.2-0.1,0.4c-0.1,0.2-0.1,0.2,0.1,0
	C-192.9,346-192.9,345.9-193.1,345.8 M-192.2,345.4v0.3C-192.1,345.8-192.1,345.2-192.2,345.4 M-191.9,345c0-0.1,0.1-0.4,0.3-0.9
	c0.2-0.4,0.2-0.5,0-0.3c-0.2,0.3-0.5,0-0.3-0.4c0.2-0.3,0.2-0.3,0.2-0.1c0.1,0.2,0.1,0.1,0.3-0.3c0.2-0.5,0.2-0.6,0-0.8
	s-0.2-0.3,0-0.3c0.3,0,0.6-0.5,0.4-0.4c-0.1,0.1-0.2,0-0.2-0.1c-0.1-0.2-0.4,0.2-0.4,0.6c0,0.1-0.1,0.4-0.3,0.6
	c-0.1,0.1-0.3,0.4-0.3,0.5c0,0.2-0.4,1.3-0.5,1.5l0.3,0.3C-192.1,345.2-192,345.2-191.9,345 M-66.2,341.7c-0.6,0.5,0.1,0.6-0.3,0.9
	c-0.7,0.6,0.6,0.5,0.6,0.5C-64.4,343.1-65.4,341-66.2,341.7 M-82.5,344c-0.1,0.4,0.4,0.7,0.7,0.4C-81.1,343.9-82.4,343.1-82.5,344
	 M-86.9,342.5c-0.3-0.9-0.5,1.5,0.5,1.1c0.7-0.2,0.2-0.6,0.3-0.7C-86.4,342.2-86.8,342.9-86.9,342.5 M-120.2,343.8
	c0.3,0.3,0.9-0.1,0.3-0.7c-0.7-0.7-1.2,0.5-1.1,0.6C-120.8,344-120.6,343.5-120.2,343.8 M-50.9,349.5c-0.8-0.3-0.7-0.3-1.1,0.6
	C-52.7,352.2-48.9,350.2-50.9,349.5 M-149.4,348.9c-1.5,2.3,1.9,3.3,1.4-0.3C-148.2,347.5-149.3,348.9-149.4,348.9 M-17.8,346.5
	c1.6,0.3,1.1-2-0.4-1C-19.3,346.4-17.7,346.5-17.8,346.5 M-42.4,347.8c0.5,0,0.4,1,1.4,0.9c0.6,0,0.4-1.1,0.1-1
	c-0.6,0-1.3-1.4-1.5-1.3c-0.2,0-0.2,0.4-0.2,0.4C-42.5,347.4-42.8,347.8-42.4,347.8 M-13.4,342.8c-0.2,0.1,2.7,7,2.9,7.4
	c0.5,0.9,0.4,1.3,0.6,1.2C-9.7,351.2-12.9,342.5-13.4,342.8 M-11.1,344.2c0.1,0,0.1,0,0.1-0.1s-0.1-0.1-0.1-0.1
	C-11.3,343.9-11.3,344.2-11.1,344.2 M-104.4,352.4c-0.2,0.5-0.1,0.6,0.3,0.8c0.8,0.3,0.7-0.4,0.8-0.3
	C-102.9,352-104.1,351.6-104.4,352.4 M-18.3,353.8c0.1,0.6,0.4,0.3,0.4,0.3c0.5-0.1,0.2-0.6,0.1-0.5c-0.1,0-0.1-0.1-0.2-0.2
	C-18.1,353.1-18.4,353.4-18.3,353.8 M-8.3,354.5c0,0,0.1,0,0.1-0.2C-8.3,353.9-8.4,354.4-8.3,354.5 M-29.4,354.5
	c-0.4-0.8-0.6-0.2-0.7-0.3c-0.7,0.4,0,0.9,0.2,0.8c0.1-0.1,0.2,0,0.3,0.2C-29.3,355.7-29.1,355.1-29.4,354.5 M-74.2,354.9
	c-0.4-0.5-0.4,0.1-0.4,0.1C-74.7,355.7-73.9,355.3-74.2,354.9 M-60.8,354.1c-0.2-0.2-0.5,0.1-0.2,0.4c0.4,0.4,0.7-0.3,0.6-0.4
	C-60.5,354-60.6,354.3-60.8,354.1 M-175.8,355.8c0.3,0.2,0.9-0.2,0.2-0.7c-0.8-0.6-1.1,0.6-0.9,0.7
	C-176.3,356-176.2,355.5-175.8,355.8 M-88.9,354.7c-0.7-0.9-1.1-0.9-1.2-0.1C-90.3,355.9-87.4,356.7-88.9,354.7 M-194.2,348.9
	c-0.1,0.1-0.1,0.3-0.1,0.4c0,0.2,0,0.2,0.1,0C-194.1,349.2-194.1,349-194.2,348.9C-194.1,348.7-194.1,348.7-194.2,348.9 M-194.6,350
	C-194.7,350.3-194.5,350.4-194.6,350C-194.5,350-194.5,349.9-194.6,350 M-196.4,351c-0.1,0.1-0.1,0.2,0,0.2c0.1,0,0.1,0.1,0.1,0.2
	c-0.1,0.1,0,0,0.2-0.1c0.3-0.3,0.3-0.3,0.1-0.4C-196.1,350.9-196.3,350.9-196.4,351 M-199.1,358.3c0,0.2,0.3,0,0.3-0.2
	C-198.8,358-199.1,358.1-199.1,358.3 M-199.5,364.1c-0.1,0-0.1,0.2-0.1,0.4c0,0.3-0.2,0.5-0.3,0.3c0-0.1-0.1-0.1-0.1,0
	c0,0.1,0,0.2,0.1,0.2c0.1,0,0.1,0.2,0,0.3c-0.1,0.1,0,0.2,0,0.1c0.1-0.1,0.2-0.4,0.3-0.7C-199.3,364.1-199.3,364-199.5,364.1
	 M-200.6,368.5c-0.1,0.4-0.2,0.8,0,0.5c0.1-0.1,0.1-0.1,0.2,0c0.1,0.1,0.1,0.1,0.2-0.1v-0.3c-0.1,0-0.1-0.1-0.1-0.2
	C-200.5,368.3-200.6,368.3-200.6,368.5 M-201,372C-201.1,372.2-200.9,372.4-201,372C-200.9,371.9-201,371.9-201,372 M-190.9,341
	c0.2-0.2,0.2-0.3,0.1-0.3c-0.1,0-0.2,0.1-0.2,0.2C-191.1,341.1-191.1,341.2-190.9,341 M-50.2,340c0.1-0.5,0.4-0.1,0.5-0.4
	c0-0.3-1.3-0.5-1.4-0.2c0,0.3,0.4,0.1,0.3,0.6C-50.9,340.3-50.3,340.4-50.2,340 M-170.5,338.7c-0.6-0.3-0.7,0.4-0.7,0.4
	C-171.9,340.4-169.3,339.3-170.5,338.7 M-72.9,338.4c0-0.1-0.4-0.3-0.8-0.3c-1.4-0.2-0.5-0.8-1-0.9C-76,337.1-73.1,339.7-72.9,338.4
	 M-12.9,338.1c0.2,0.2,0.2,0.2-0.2-0.7c-0.2-0.4-0.3-0.7-0.4-0.7C-13.6,336.6-13.1,337.9-12.9,338.1 M-13,338.6
	c-0.2,0.2-0.2,0.2,0.3,0.6c0.1,0.1,0.2,0.2,0.2,0.1c0-0.1-0.3-0.8-0.3-0.9L-13,338.6 M-12.3,340.1c0.2,0.3,0.2,0,0-0.3
	C-12.5,339.6-12.5,339.8-12.3,340.1 M-31.8,336c-0.2-0.1,1-0.7,0-1.1C-33.3,334.4-32,336.7-31.8,336 M-23.3,335.9
	c0.2,0.1,0.3,0.1,0.3,0c0.1-0.3,0.5,0.1,0.3-0.4c-0.1-0.3-0.4-0.2-0.2-0.6C-22.4,333.9-24,335.6-23.3,335.9 M-181.8,333.6
	c0-1.1-2.6-2.5-2.7-0.6C-184.5,334.5-181.8,334-181.8,333.6 M-185.6,333.3c0.8-0.9,0.9-1.1,0.6-1c-0.1,0-0.2,0.1-0.2,0.2
	s-0.3,0.4-0.6,0.7C-186.6,334-186.5,334.2-185.6,333.3 M-184.4,331.8c0-0.2-0.3,0-0.3,0.2C-184.7,332.2-184.4,332-184.4,331.8
	 M-19.8,330.4c-0.6,0.1-0.7,0.3-0.4,0.7C-19.5,332.1-18.6,330.1-19.8,330.4 M-182.7,330.7c0.4-0.4,0.8-0.6,0.8-0.6s0.2-0.1,0.3-0.2
	c0.1-0.1,0.4-0.3,0.6-0.5c0.8-0.5,1.2-1,1.1-1.1c-0.1-0.1,0-0.1,0.1-0.1c0.1,0.1,0.2,0,0.2-0.1s0.3-0.3,0.6-0.5s0.7-0.4,0.8-0.6
	c0.3-0.3-1.1,0.5-1.2,0.6c0,0-0.3,0.3-0.7,0.5c-0.4,0.3-0.6,0.5-0.5,0.6v0.1c-0.1-0.1-0.2,0-0.3,0.1c-0.1,0.1-0.3,0.2-0.3,0.1
	c-0.1-0.1-1.3,0.9-1.3,1.1c0.1,0.2-0.4,0.7-0.6,0.5c-0.1,0-0.1,0-0.1,0.1s0,0.2-0.1,0.1c-0.1,0-0.1,0.1-0.1,0.2
	C-183.6,331.4-183.5,331.4-182.7,330.7 M-160.5,326.9c-0.1,2.1,2.1-2-0.1-2.1c-0.7,0-1,0.1-1,0.7
	C-161.6,326.6-160.4,326-160.5,326.9 M-60.2,324.7c0.5,1.3,0.8,0.4,0.8,0.4C-59,324.1-61,322.9-60.2,324.7 M-107.4,325.1
	c-0.7,0.5-0.7,0.7-0.1,1.1C-106,327.2-106.1,324.1-107.4,325.1 M-27.1,327.4c-0.8,1.2,2.8,1.3,1,0
	C-26.7,327.1-26.9,327.1-27.1,327.4 M-176.7,328.4c0-0.1,0-0.1-0.1,0c-0.1,0.1-0.3,0.2-0.5,0.3c-0.2,0.1-0.5,0.3-0.7,0.4
	c-1.1,0.9-1.4,1.2-1.6,1.4c-0.1,0.2-0.1,0.2,0.3,0c0.3-0.1,0.6-0.4,0.8-0.5c0.1-0.1,0.5-0.4,0.8-0.7c0.3-0.2,0.5-0.4,0.5-0.4
	c-0.1,0,0-0.1,0.2-0.1C-176.8,328.6-176.7,328.5-176.7,328.4 M-72.5,329.4c0.5,0.1,0.6,0,0.6-0.4C-72,327.9-73.5,329.1-72.5,329.4
	 M-137.1,329.8c0,0.9,0.2,1,0.9,0.7C-134.6,329.9-137.2,328.1-137.1,329.8 M-51,322.3c0.1,0,0.1-0.1,0.1-0.1c0-0.1-0.1-0.1-0.1-0.1
	c-0.1,0-0.1,0.1-0.1,0.1C-51.2,322.3-51.1,322.3-51,322.3 M-59.9,321.1c0.1-0.2-0.2-0.2-0.3,0C-60.2,321.3-60,321.3-59.9,321.1
	 M-158.4,321.1c0.1-0.1,0.3-0.1,0.3-0.1s0.1,0,0.2-0.1c0.1-0.1,0.3-0.2,0.5-0.1c0.2,0,0.4,0,0.5-0.1s0.4-0.2,0.5-0.1
	c0.1,0,0.3,0,0.4-0.1c0-0.1,0.3-0.1,0.4-0.1s0.4-0.1,0.5-0.1c0.1-0.1,0.3-0.1,0.4-0.1c0.1,0.1,0.1,0.2-0.1,0.6
	c-0.1,0.3-0.2,0.4-0.1,0.3c0.1-0.1,0.3-0.2,0.4-0.2h0.2c0-0.1,0.2-0.2,0.3-0.2c0.3-0.1,0.3-0.1,0.2-0.3c-0.1-0.1-0.2-0.2-0.3-0.1
	c-0.1,0,0,0,0.1-0.1c0.2-0.2,0.3-0.2,0.5,0.1c0.3,0.3,0.3,0.3,0.4-0.1c0-0.2,0.1-0.3,0.2-0.2c0.1,0.1,0.1,0.2,0.1,0.3
	c-0.1,0.1,0,0.2,0.2,0.1c0.1,0,0.6-0.2,1.1-0.4s0.9-0.4,0.9-0.4c0-0.1,0.1-0.1,0.3,0c0.1,0,0.4,0,0.6-0.1c0.5-0.2,0.9-0.4,1.3-0.6
	c0.1-0.1,0.3-0.1,0.4,0s0.2,0,0.3-0.1c0.2-0.2,0.7-0.3,1.8-0.4c0.7-0.1,2.1-0.5,2.6-0.5c0.2,0,0.6-0.1,1-0.2
	c0.9-0.3,1.1-0.4,0.7-0.5c-0.3,0-0.5-0.5-0.2-0.5c0.4,0,0.2-0.2-0.2-0.2c-0.2,0-0.4,0-0.3,0.1c0.1,0.2-0.6,0.3-0.9,0.2
	c-0.2-0.1-0.3,0-0.3,0.1s-0.2,0.2-0.7,0.2c-0.4,0-0.9,0.1-1.2,0.3c-0.2,0.1-0.5,0.2-0.6,0.2c-0.1,0-0.4,0-0.7,0.1
	c-0.4,0.1-0.5,0.2-0.5,0.4c0.1,0.2,0,0.2-0.4,0.1c-0.6-0.1-1.4,0.1-1.4,0.2s-0.1,0.1-0.3,0.1s-0.6,0.1-0.9,0.2
	c-1.1,0.3-1.8,0.4-2.6,0.7c-0.2,0.1-0.7,0.2-1,0.2c-0.8,0.1-2.5,0.5-2.9,0.7c-0.2,0.1-0.3,0.1-0.4,0.1s-0.9,0.3-1.2,0.6
	C-158.7,321.1-158.7,321.3-158.4,321.1 M-162.5,320.7c0.4-0.2,0.8-0.3,0.9-0.3s0.4-0.1,0.7-0.2c1.2-0.6,1.2-0.6,0.8-0.5
	c-0.4,0.1-1.5,0.5-3,1.1c-0.3,0.1-0.5,0.3-0.6,0.3C-163.9,321.3-163.7,321.2-162.5,320.7 M-157.7,319.6c0.4-0.2,0.5-0.4,0.3-0.5
	s-0.6,0.2-0.7,0.5C-158.2,319.9-158.2,319.9-157.7,319.6 M-89.6,317.5c-0.1,0.2-0.1,0.3-0.1,0.4c0.1,0.1-0.2,0.6-0.1,0.7
	s0.3-0.4,0.4-0.3C-89.1,318.5-89.2,316.7-89.6,317.5 M-57.6,318.2c-0.1,0.1,0.1,0.1,0.3,0.1h0.4C-56.9,318.2-57.5,318.1-57.6,318.2
	 M-62.6,319c0.1,0.1,0.2,0.3,0.2,0.3c0.2,0,0-0.4-0.1-0.4C-62.7,318.8-62.7,318.8-62.6,319 M-41.7,318.9
	C-41.4,319.1-41.3,319-41.7,318.9C-41.8,318.8-41.8,318.8-41.7,318.9 M-40.8,319c0,0.1,0.1,0.1,0.1,0.1c0.1,0,0.1,0,0.1-0.1
	l-0.1-0.1C-40.8,318.9-40.8,319-40.8,319 M-105.7,319.9c-0.4,1,1.9,0.9,0.9,0.5c-0.4-0.2,0.1-0.6-0.4-0.8
	C-105.4,319.5-105.5,319.6-105.7,319.9 M-64.5,320.3c-0.1,0-0.1,0.1-0.1,0.1l0.1,0.1c0.1,0,0.1-0.1,0.1-0.1
	C-64.4,320.3-64.5,320.2-64.5,320.3 M-140,313.2c0.3,0,0.4-0.1,0.4-0.2c-0.1-0.3,0.7,0.1,0.8-0.3c0-0.1,0.1-0.2,0.1-0.2
	c0-0.1-1.7,0.1-1.5,0.5c0,0.1,0,0.1-0.1,0.2C-140.4,313.2-140.3,313.3-140,313.2 M-61.2,308c0.2,0.2,0.3,0.2,1.8,0.5
	c1.3,0.2,2,0.5,2.5,0.5c0.7,0.1,1.6,0.3,1.6,0.2s-0.9-0.4-1.1-0.3c-0.1,0-0.1,0-0.2-0.1c0-0.1-0.1-0.1-0.2-0.1s-0.2,0-0.3-0.2
	c-0.1-0.1-0.2-0.2-0.2-0.1c0,0.1-0.1,0-0.2,0c-0.1-0.1-0.6-0.1-1-0.2c-0.4,0-0.7-0.1-0.7-0.1c0-0.1-0.1-0.1-0.3,0
	c-0.1,0-0.3,0-0.3-0.1s-0.2-0.1-0.5-0.1s-0.7-0.1-0.9-0.2c-0.4-0.2-0.9-0.1-0.5,0.2c0.1,0.1,0.2,0.1,0.2,0.1
	C-61.4,307.9-61.3,307.9-61.2,308 M-64.7,308C-64.6,308-64.5,307.9-64.7,308c-0.2-0.1-0.6-0.4-0.4-0.1C-65,308-64.8,308-64.7,308
	 M-62.2,307.7C-62,307.8-61.8,307.7-62.2,307.7C-62.3,307.7-62.3,307.7-62.2,307.7 M-62.5,307.8c0.1-0.1-0.1-0.2-0.2-0.2
	s-0.1,0.1,0,0.2H-62.5 M-62.9,307.6c0-0.1-0.4-0.3-0.6-0.3c-0.4,0-0.2,0.2,0.3,0.3H-62.9 M-64.2,307.4c0.1,0,0.1-0.1,0-0.2
	c-0.2-0.1-0.4,0-0.2,0.1C-64.4,307.4-64.3,307.4-64.2,307.4 M-64.9,307c-0.1-0.1-0.1-0.1-0.2,0c0,0.1,0,0.2,0.1,0.2
	C-64.8,307.3-64.8,307.2-64.9,307 M-65.4,306.9c-0.1,0-0.2-0.1-0.2,0c-0.2,0.1-1.3-0.2-1.4-0.4c-0.2-0.2-0.4-0.1-0.2,0.1
	c0,0.1,0.4,0.3,1,0.4C-65.5,307.1-65.1,307.1-65.4,306.9 M-67.6,306.7c0.1-0.1-0.5-0.1-0.3,0H-67.6 M-68.4,306.6
	c0.2,0,0.2,0,0.1-0.1C-68.5,306.3-68.6,306.6-68.4,306.6 M-72,306.4C-71.8,306.4-71.7,306.4-72,306.4c-0.1-0.1-0.3-0.1-0.4-0.2
	c-0.2-0.1-0.2-0.1-0.1,0.1C-72.5,306.4-72.2,306.5-72,306.4 M-72.8,306.3c0.1-0.1-0.5-0.1-0.3,0H-72.8 M-73.6,306.2
	c0-0.1-0.4-0.2-0.8-0.1c-0.4,0-0.4,0.1,0.2,0.1C-73.8,306.2-73.6,306.3-73.6,306.2 M-69.8,306.3C-69.7,306.2-69.8,306.2-69.8,306.3
	c-0.4-0.1-0.9-0.2-1.4-0.3c-0.6-0.1-1.8-0.2-1.7-0.1C-72.8,305.9-69.9,306.4-69.8,306.3 M-73.3,305.8c0.4-0.1-1-0.1-0.6,0H-73.3
	 M-74.3,305.6c0,0-0.4-0.1-0.8-0.1h-0.7C-74.3,305.8-74.1,305.8-74.3,305.6 M-66,306.3c0.3,0.1,0.4-0.2,0.1-0.2
	C-66.3,306.1-66.3,306.2-66,306.3 M-56,308.3c0.1,0.1,0.2,0.1,0.3,0.1s0.1,0,0.1-0.1c0-0.1-0.1-0.1-0.3-0.1
	C-56.2,308.2-56.2,308.2-56,308.3 M-54.9,309.1c-0.2,0.1-0.1,0.5,0.1,0.5s0.8,0.2,0.7,0.3c0,0.1-0.2,0.1-0.5,0.1
	c-0.8-0.1-0.2,0.3,0.8,0.5c0.5,0.1,0.7-0.1,0.2-0.2c-0.2,0-0.3-0.2-0.3-0.2c0.1-0.2,0.8-0.2,2,0.2c0.6,0.2,1.6,0.5,2.3,0.7
	c1.9,0.5,4.2,1.3,4.2,1.4c0,0,0.1,0.1,0.3,0.1c0.3,0,0.9,0.2,1.4,0.4c-0.2,0-0.4,0.1-0.2,0.4c0.2,0.3,0.5,0,0.5,0
	c0.1-0.1,0.2-0.1,0.2-0.2c0.1,0.1,0.2,0.1,0.1,0.2c-0.1,0.1-0.1,0.1,0,0.2h0.4c0.3-0.2,0.1-0.3-1-0.8c-1.4-0.5-1.2-0.5-2-0.8
	c-0.4-0.1-0.6-0.2-0.6-0.3s0-0.1-0.2-0.1c-0.1,0-0.5,0-0.7-0.1c-0.3-0.1-0.7-0.2-1-0.3c-0.2,0-0.5-0.2-0.5-0.3
	c0-0.1-0.2-0.1-0.3-0.1s-0.3,0-0.4-0.2c-0.1-0.1-0.2-0.2-0.2-0.1c0,0.1-0.1,0.2-0.1,0.2c-0.1,0-0.1-0.1-0.1-0.1
	c0-0.1-0.1-0.2-0.2-0.2c-1.1-0.3-1.4-0.4-1.6-0.5c0-0.1-0.4-0.2-0.6-0.2c-0.2,0-0.6,0-0.8-0.1c-0.2,0-0.4-0.1-0.5-0.1
	s-0.1-0.1-0.1-0.1v-0.1c-0.1,0-0.4-0.1-0.8-0.2C-54.6,309-54.9,309-54.9,309.1 M-46.2,311.1C-46,311.3-45.9,311.1-46.2,311.1
	C-46.4,310.9-46.4,310.9-46.2,311.1 M-42,313.4c0,0.1-0.1,0.2-0.2,0.2c-0.2,0-0.1,0.1,0.1,0.2c0.4,0.2,0.6,0,0.3-0.3
	C-41.9,313.3-42,313.3-42,313.4 M-47.9,313.3c-0.2,0-0.2,0.1,0.1,0.2c0.2,0.1,0.4,0.1,0.4,0C-47.2,313.4-47.5,313.2-47.9,313.3
	 M-46.1,312.4c0.1-0.1-0.5-0.1-0.3,0C-46.3,312.5-46.1,312.5-46.1,312.4 M-48.8,312c-0.7-0.1-1-0.2-1-0.1c0,0.1,0.3,0.1,0.6,0.2
	C-48.6,312.3-48.3,312.2-48.8,312 M-55.6,311.9c-0.3-0.1-0.3,0.2,0,0.2c0.1,0,0.2,0,0.2-0.1L-55.6,311.9 M-48.3,311.9
	c0.1,0.1,0.3,0.1,0.3,0.1C-47.9,311.9-48.1,311.8-48.3,311.9C-48.5,311.7-48.5,311.7-48.3,311.9 M-51,311.8c0.1-0.1-0.5-0.1-0.3,0
	H-51 M-48.6,311.7c0.1-0.1-0.5-0.1-0.3,0H-48.6 M-52.6,311.5c0.1-0.1-0.5-0.1-0.3,0C-52.8,311.6-52.7,311.6-52.6,311.5 M-53.2,311.4
	c0.2-0.1-0.5-0.1-0.3,0H-53.2 M-49.1,311.5l-0.1-0.1c-0.1,0-0.3-0.1-0.6-0.2s-0.5-0.2-0.5-0.1C-50.7,311.4-49.1,311.6-49.1,311.5
	 M-57.4,311.3c0.6,0,0.8-0.2,0.3-0.2c-0.2,0-0.2,0,0.1-0.1c0.4-0.1,0.3-0.1-0.4-0.2c-0.4-0.1-0.8-0.1-0.9,0c-0.1,0-0.2,0-0.2-0.1
	c0-0.2-0.2-0.2-0.2,0.1c0,0.1,0.2,0.2,0.4,0.3c0.2,0,0.4,0.1,0.4,0.2C-58,311.2-57.7,311.3-57.4,311.3 M-51.5,311
	c0.3,0.1,0.6,0.1,0.6,0.1c0.1-0.1-0.5-0.5-0.8-0.5C-52.2,310.7-52.1,310.9-51.5,311 M-52.7,310.7c0.1,0.1,0.2,0.1,0.3,0.1
	c0.1-0.1-0.3-0.4-0.4-0.3C-52.9,310.5-52.8,310.6-52.7,310.7 M-60.4,310.5l0.4-0.1l-0.4-0.1c-0.3-0.1-0.6,0-0.4,0.1
	C-60.8,310.5-60.6,310.5-60.4,310.5 M-61.2,310.4c0.2-0.1,0.2-0.1,0-0.2s-0.5,0-0.3,0.1C-61.4,310.4-61.3,310.4-61.2,310.4
	 M-63.6,310c0.3-0.2,0.3-0.2,0-0.3s-0.3-0.1-0.3,0.2C-63.8,310.1-63.8,310.1-63.6,310 M-56.8,309.6c0,0.1,0.1,0.2,0.2,0.2
	s0.4,0.1,0.6,0c0.3,0,0.3-0.1-0.2-0.2H-56.8 M-57,309.6c0.2-0.1-0.6-0.1-0.3,0H-57 M-65.8,309.3c-0.3-0.1-0.1,0.2,0,0.3
	C-65.5,309.7-65.5,309.4-65.8,309.3 M-58,309.4h0.5c0-0.1-0.4-0.2-0.7-0.2C-58.8,309.2-58.6,309.4-58,309.4 M-66.6,309.2
	c0-0.1-1-0.3-1.6-0.3h-0.3l0.3,0.1c0.2,0.1,0.6,0.2,1,0.2C-66.9,309.3-66.6,309.3-66.6,309.2 M-59.5,309.1h0.4c0-0.1-1-0.4-2-0.5
	h-0.6C-61.1,308.8-60.9,309-59.5,309.1 M-69.1,308.9c0-0.1-0.4-0.2-0.7-0.2c-0.5,0-0.3,0.2,0.3,0.2H-69.1 M-70.6,308.6
	c0.2-0.1-0.7-0.1-0.4,0C-70.9,308.7-70.7,308.7-70.6,308.6 M-62.6,308.4c0.1,0.1,0.3,0.1,0.5,0.1s0.3-0.1,0.2-0.1
	C-62.4,308.4-62.8,308.2-62.6,308.4 M-71.6,308.5h0.4l-0.3-0.1c-0.5-0.1-0.7-0.1-0.6,0C-72.1,308.5-71.9,308.6-71.6,308.5
	 M-85.7,305.6c0,0-0.3-0.1-0.5-0.1h-0.4l0.5,0.1C-85.6,305.8-85.5,305.8-85.7,305.6 M-87.6,305.7c0.5,0,0.5-0.1,0.1-0.2
	c-0.1,0-0.3,0-0.4,0.1C-88,305.6-87.9,305.7-87.6,305.7 M-88.5,305.5c0.1-0.1-0.5-0.1-0.3,0C-88.7,305.6-88.6,305.5-88.5,305.5
	 M-77,305.5c0.6,0,0.9-0.1,0.7-0.1c-1.2-0.1-2.1-0.2-1.9,0C-78.1,305.5-77.7,305.5-77,305.5 M-78.7,305.4l0.4-0.1l-0.4-0.1
	c-0.4-0.1-0.6,0-0.4,0.1C-79.1,305.4-78.9,305.4-78.7,305.4 M-79.7,305.2c0-0.1-1-0.2-1.3-0.1C-81.3,305.3-79.7,305.3-79.7,305.2
	 M-82,305c-1.4-0.1-2.9-0.2-2.9-0.1c0,0.1,0.2,0.1,0.5,0.1s1,0,1.7,0.1C-81.4,305.2-80.8,305.1-82,305 M-37.7,315.1
	c0,0.1,0.1,0.1,0.1,0.1c0.1,0,0.1,0,0.1-0.1l-0.1-0.1C-37.6,315-37.7,315-37.7,315.1 M-139.4,317c0.2-0.1-0.5-0.1-0.3,0
	C-139.6,317.1-139.4,317.1-139.4,317 M-90.3,316.8c0.1-0.1,0.2-0.2,0.3-0.2c0,0-0.1,0-0.2-0.1c-0.2-0.1-0.3,0-0.3,0.2
	C-90.6,316.9-90.5,317-90.3,316.8 M-70.3,316.7c0.2,0,0.2-0.3,0-0.3S-70.5,316.7-70.3,316.7 M-64.7,316.5c0-0.1-9.8-3.3-9.9-2.9
	c0,0.1,0,0.2,0.5,0.3C-73.2,314.2-64.8,316.6-64.7,316.5 M-82.8,315.3h0.6C-81.8,315.2-83.1,315.2-82.8,315.3 M-87.3,314.8
	C-87.3,314.9-87.2,314.9-87.3,314.8c0.2,0.1,0.2,0.1,0.2,0l-0.1-0.1L-87.3,314.8 M-91.2,314.7c0-0.2-0.3-0.2-0.3,0
	C-91.5,314.9-91.2,314.9-91.2,314.7 M-95.9,315.4c1.4-0.2,0.7-0.7,1.5-0.8c0.9-0.1,0.3-0.6,0.9-0.7c0.5-0.1,0.8-0.7-0.7-0.5
	c-1.5,0.2-0.7,0.7-1.4,0.8c-0.6,0.1-0.3-0.8-1.1-0.7c-0.5,0.1-0.6,0.3-0.4,1.1C-96.9,315.5-96.9,315.5-95.9,315.4 M-67.5,313.5
	c0,0.1,0.1,0.1,0.1,0.1l0.1-0.1C-67.3,313.4-67.6,313.4-67.5,313.5 M-57.5,315c-0.3,0.2,0,0.4,0.8,0.4c0.4,0,0.8,0.1,0.8,0.1
	c0,0.1,0.1,0.1,0.1,0.1c0.1,0,0.1-0.1,0.1-0.2c0-0.1-0.1-0.2-0.1-0.1c0,0.1-0.3,0-0.4-0.2s-0.4-0.3-0.5-0.3s-0.2-0.1-0.2-0.1
	c0-0.1-0.1-0.1-0.3-0.1s-0.3,0-0.3-0.1s-0.1-0.1-0.1-0.1c-0.1,0-0.1,0.1-0.1,0.2s0.1,0.2,0.2,0.2C-57.3,314.8-57.3,314.9-57.5,315
	 M-54.8,315.6c-0.2,0.1-0.2,0.1,0.1,0.2c0.4,0.1,0.4,0.1,0.3-0.1C-54.5,315.5-54.6,315.5-54.8,315.6 M-53.5,316c0,0.1,0,0.2,0.1,0.2
	s0.1-0.1,0.1-0.2C-53.3,315.6-53.4,315.7-53.5,316 M-69.5,316.7c0.6,0.1,0.7,0,0.2-0.2C-69.9,316.4-70.2,316.6-69.5,316.7
	 M-146.5,449.4c0,0.1,0.2,0.1,0.4,0.2c0.2,0,0.5,0.1,0.7,0.2c0.3,0.1,0.3-0.2,0-0.2c-0.1,0-0.3-0.1-0.3-0.1
	C-145.8,449.2-146.5,449.2-146.5,449.4 M-88.2,449.4h0.3C-87.9,449.2-88.5,449.3-88.2,449.4 M-143.3,449.5c-0.3,0.2-0.4,0.3-0.1,0.5
	c0.1,0,0.1,0.1,0.1,0.2s0,0.1,0.1,0.1s0.1-0.1,0.1-0.1c0-0.1,0.6,0,0.7,0.1c0,0.1,0.2,0,0.4,0c0.3-0.1,0.4-0.1,0.6,0.2
	c0.2,0.3,0.3,0.3,0.5,0.2c0.1-0.1,0.3-0.1,0.3,0c0,0.3,0.6,0.4,1,0.2c0.4-0.1,0.5-0.1,0.6,0c0.3,0.3,0.4,0.2,0.8-0.2
	s0.5-0.6,0.3-0.6c-0.1,0-0.1,0.1-0.1,0.2c0,0.1,0,0.1-0.2,0c-0.2-0.2-0.4-0.2-0.4,0c0,0.1-0.1,0.2-0.2,0.2s-0.2-0.1-0.2-0.2
	c0-0.2-0.1-0.2-0.7-0.2c-0.4,0-0.7,0.1-0.8,0.1c-0.1,0.1-0.2,0.1-0.3-0.1c-0.2-0.2-0.2-0.2-0.4-0.1s-0.2,0.1-0.3,0
	c-0.1-0.2-0.5-0.3-0.5-0.1c0,0.1-0.2,0.2-0.4,0.2c-0.4,0.1-0.8-0.2-0.7-0.5C-143.1,449.4-143.1,449.4-143.3,449.5 M-53.8,450.1
	c-0.5,0,0,0.2,0.2,0.1C-53.5,450.1-53.6,450.1-53.8,450.1 M-144,450.8c0.1-0.2-0.3-0.1-0.3,0.1C-144.4,451.2-144.1,451.1-144,450.8
	 M-140.5,451.2c0,0.1,0.1,0.1,0.2,0.1c0.1,0,0.1-0.1,0.2-0.1C-140.1,451.1-140.6,451.1-140.5,451.2 M-140.1,451.4
	c-0.1,0.1,0,0.2,0.3,0.2c0.5,0.1,0.9-0.1,0.6-0.2c-0.1-0.1-0.1,0-0.1,0.1c0,0.1-0.1,0.1-0.1,0.1c-0.1,0-0.1-0.1-0.1-0.1
	C-139.4,451.3-139.9,451.2-140.1,451.4 M-145.1,450.7l0.1-0.1c0-0.2-0.3-0.2-0.2,0L-145.1,450.7 M-144.5,450.2
	c0.2-0.1,0.3-0.4,0.1-0.4c-0.1,0-0.2,0.1-0.2,0.2C-144.6,450.1-144.6,450.2-144.5,450.2 M-54.7,450.3c-0.3,0.1-0.3,0.1-0.1,0.1
	c0.1,0,0.3,0,0.4-0.1C-54.3,450.3-54.4,450.2-54.7,450.3 M-50.9,450.6c0,0.3,0.4,0.1,0.4-0.1C-50.5,450.4-50.9,450.4-50.9,450.6
	 M-63.9,450.6c0.3,0,0.3-0.3,0-0.2c-0.1,0-0.2,0.1-0.2,0.1C-64.1,450.6-64,450.6-63.9,450.6 M-51.7,450.9c-0.5,0-0.5,0-0.2,0.3
	c0.2,0.1,0.3,0.1,0.4,0C-51.2,451-51.3,450.9-51.7,450.9 M-58.6,451c-0.3,0,0,0.4,0.3,0.5c0.1,0,0.3-0.1,0.3-0.2s0-0.2-0.1-0.1
	c-0.1,0-0.2,0-0.3-0.1C-58.4,451-58.5,451-58.6,451 M-54.1,451.2c0.1,0.1,0.3,0.1,0.3,0.1C-53.7,451.2-54.7,450.9-54.1,451.2
	 M-71.5,451.4c-0.1,0-0.1,0.1-0.1,0.1l0.1,0.1c0.1,0,0.1-0.1,0.1-0.1C-71.3,451.4-71.4,451.4-71.5,451.4 M-61.2,451.6
	c-0.2,0.1-0.2,0.2,0.1,0.2c0.2,0,0.5,0,0.8-0.1l0.4-0.1l-0.5-0.1C-60.7,451.4-61,451.5-61.2,451.6 M-55.2,451.5
	c-0.2,0-0.2,0-0.1,0.3c0,0.1,0.1,0.2,0.2,0.1C-54.9,451.8-55,451.5-55.2,451.5 M-62.3,451.8c-0.1,0.1-0.2,0-0.3-0.1s-0.1-0.1-0.2,0
	c0,0.1-0.3,0.2-0.5,0.2c-0.7,0.1-0.3,0.3,0.4,0.2C-62.6,452-62.2,451.9-62.3,451.8L-62.3,451.8 M-64.4,451.9c-0.1,0-0.2,0.4-0.1,0.4
	C-64.3,452.3-64.4,451.9-64.4,451.9 M-65,452.2c-0.1,0-0.1,0-0.1,0.1s0.1,0.1,0.1,0.1c0.1,0,0.1,0,0.1-0.1S-65,452.3-65,452.2
	 M-65.6,452.2c-0.2-0.2-0.3-0.2-0.3-0.1s-0.1,0.1-0.3,0s-0.4-0.1-0.6-0.1c-0.2,0.1-0.3,0-0.3-0.1s-0.1-0.1-0.1-0.1
	c-0.1,0.1-0.2,0-0.3-0.1s-0.2-0.1-0.3,0.1c-0.2,0.3-0.4,0.4-0.4,0c0-0.1-0.1-0.3-0.3-0.4c-0.3-0.2-0.3-0.2-0.2,0.2
	c0.1,0.3,0,0.3-0.1,0.3s-0.3,0-0.4,0.1c-0.2,0.2-0.2,0.1-0.2-0.1s-0.1-0.3-0.1-0.3c-0.1,0-0.1,0-0.1,0.2c0.1,0.2,0,0.2-0.5,0.3
	c-0.5,0-0.6,0-0.6-0.3c0-0.2,0-0.2-0.2-0.1c-0.1,0.1-0.4,0.2-0.7,0.2s-0.6,0.1-0.8,0.2c-0.1,0.1-0.2,0.1-0.1,0.1s0.2,0,0.2,0.1
	c0,0.3-0.7,0.2-0.6,0.1c0-0.1-0.5-0.1-1.1-0.1c-0.9,0-1.3,0.1-1.6,0.2l-0.4,0.2c-0.1,0-0.6-1.1-0.6-1.3c0-0.1-0.1-0.2-0.2-0.2
	c-0.2,0-0.2,0-0.1,0.2c0.2,0.2,0.2,0.8,0,0.7c-0.1,0-0.2,0-0.2,0.1c-0.1,0.1-0.1,0.1-0.2,0s-0.1-0.1-0.2,0s-0.1,0.1-0.2,0
	s-0.2-0.1-0.3-0.1c-0.1,0-0.2,0-0.2-0.1s-0.1-0.1-0.1,0.1s-0.1,0.2-0.3,0.2c-0.2,0-0.4,0-0.6,0.1c-0.2,0.1-0.4,0.1-0.4,0.1
	c-0.1,0-0.2,0-0.4,0.1c-0.1,0.1-0.3,0.1-0.3,0c0-0.2-0.6-0.2-0.9-0.1c-0.2,0.1-0.3,0.2-0.2,0.3c0.1,0.1,0,0.1-0.1,0.1
	c-0.3-0.1-0.6,0.2,0.1,0.2h1.1c0.3,0,0.7,0,0.8-0.1c0.1-0.1,0.2-0.1,0.3,0c0.1,0.1,0.2,0.1,0.4,0c0.3-0.1,0.4-0.1,0.6,0.1
	s1.1,0.3,1.4,0.1c0.1-0.1,0.3-0.1,0.5-0.1c0.2,0.1,0.4,0,0.5-0.1c0.1-0.1,0.2-0.1,0.2,0c0,0.1,0.3,0.1,0.6,0.1
	c0.7-0.1,2.1-0.1,2.3,0c0,0,0.3,0,0.6-0.1c1-0.3,5.1-0.1,5.6-0.5c0.1-0.1,0.2-0.1,0.2,0.1c0,0.1,0.2,0.2,0.3,0.1
	C-65.3,452.6-65.3,452.5-65.6,452.2 M-59,452.5c-0.1,0-0.2,0.1-0.2,0.1c0,0.1,0,0.1,0.1,0.1s0.2-0.1,0.2-0.1L-59,452.5 M-69.5,453.4
	c0,0.1,0.4,0.3,0.4,0.1S-69.5,453.3-69.5,453.4 M-64.4,453.4C-64.6,453.6-64.5,453.8-64.4,453.4C-64.3,453.3-64.3,453.3-64.4,453.4
	 M-64.7,453.5c0-0.1-0.1-0.2-0.2-0.1c-0.1,0-0.2,0.1-0.3,0.1s0.3,0.3,0.4,0.3C-64.7,453.7-64.7,453.6-64.7,453.5 M-65.4,453.6
	C-65.3,453.5-65.3,453.5-65.4,453.6C-65.8,453.7-65.6,453.8-65.4,453.6 M-77.1,453.6c-0.2,0-0.2,0.3,0,0.3
	C-76.9,453.8-76.9,453.6-77.1,453.6 M-90.1,453.5c0.2,0,0.3-0.1,0.3-0.1c0-0.1-0.1-0.1-0.2-0.1h-0.5c0.1,0,0.1,0.1,0,0.2
	C-90.4,453.4-90.3,453.5-90.1,453.5 M-84.2,452.8c-0.1,0.2,0.2,0.2,0.3,0C-83.9,452.6-84.1,452.6-84.2,452.8 M-84.2,453.2
	c0-0.1-0.2-0.1-0.4-0.1c-0.3,0-0.3,0-0.1,0.1c0.1,0.1,0.3,0.1,0.4,0.1S-84.2,453.3-84.2,453.2 M-82.3,453.1c0.2-0.2,0.1-0.3-0.6-0.4
	c-0.3,0-0.5,0-0.5,0.1s0.1,0.1,0.2,0.1h0.5c0.2,0,0.3,0,0.2,0.1c-0.1,0.1-0.1,0.1,0,0.2C-82.5,453.3-82.4,453.2-82.3,453.1
	 M-88.2,452.4c0-0.1-0.2-0.1-0.4,0s-0.3,0.1-0.2,0.2c0.1,0,0.2,0.1,0.2,0.2s0.1,0.2,0.3,0.2c0.3,0.1,0.3,0.1,0,0.1
	c-0.2,0-0.3,0.1-0.2,0.2c0.1,0.1,0.3,0.2,0.6,0.1c0.2-0.1,0.7-0.1,0.9-0.1h0.9c0.2,0,0.4-0.1,0.4-0.2c0-0.1,0-0.2-0.1-0.1
	c-0.1,0-0.2,0-0.2-0.1c0-0.2-0.3-0.2-0.5,0.1c-0.1,0.2-0.2,0.2-0.3,0c-0.1-0.2-0.1-0.2-0.3,0c-0.1,0.1-0.2,0.2-0.4,0.1
	c-0.2-0.1-0.2-0.1-0.1-0.3s0.1-0.3-0.2-0.2C-88.1,452.5-88.2,452.5-88.2,452.4 M-91.1,453.1c-0.1-0.4,0.2-0.7,0.4-0.4
	c0.2,0.2,0.3,0,0.1-0.3c-0.2-0.3-0.8-0.3-1,0c-0.2,0.2-0.2,0.2,0.1,0.1c0.4-0.2,0.5-0.2,0.3,0c-0.1,0.1-0.3,0.2-0.4,0.2
	c-0.5,0.1-0.3,0.6,0.2,0.7C-91,453.5-91,453.4-91.1,453.1 M-86.1,451.9c0.1,0,0.1,0,0.1-0.1l-0.1-0.1c-0.1,0-0.1,0-0.1,0.1
	C-86.2,451.8-86.2,451.9-86.1,451.9 M-89.5,451.8c0.1,0,0.1-0.1,0.1-0.1l-0.1-0.1c-0.1,0-0.1,0-0.1,0.1S-89.6,451.9-89.5,451.8
	 M-77.7,451.6c0,0.1,0.1,0.1,0.1,0.1l0.1-0.1C-77.5,451.4-77.8,451.4-77.7,451.6 M-76.2,451.8c0.2,0,0.4-0.4,0.3-0.5
	C-76.1,451.2-76.3,451.8-76.2,451.8 M-73,451.6c-0.2,0.2-0.2,0.4,0,0.4c0.1,0,0.1-0.1,0.1-0.3S-72.9,451.5-73,451.6 M-74.3,451.5
	c-0.1-0.2-0.5-0.1-0.6,0.2c0,0.1,0,0.2,0.1,0.3C-74.5,452-74.2,451.7-74.3,451.5 M-73.3,451.4c0.1,0,0.1-0.1,0.1-0.1l-0.1-0.1
	C-73.5,451.2-73.5,451.5-73.3,451.4 M-85,453.9c-0.4,0.1,0,0.2,0.2,0.1C-84.7,453.9-84.7,453.9-85,453.9 M-80.2,454.4h-0.2
	C-80.4,454.4-80.3,454.5-80.2,454.4C-79.9,454.6-79.9,454.4-80.2,454.4 M-81.9,454.2c-0.1,0-0.1,0.1-0.1,0.1c0,0.1,0.1,0.1,0.1,0.1
	l0.1-0.1L-81.9,454.2 M-82.8,454.3c-0.1,0-0.1,0.1-0.1,0.1l0.1,0.1c0.1,0,0.1-0.1,0.1-0.1L-82.8,454.3 M-90,454.3
	c-0.3-0.1-0.5,0-0.4,0.1c0,0,0.2,0.1,0.4,0h0.3L-90,454.3z M-135.3,452.3c0,0.1,0.1,0.1,0.1,0.1l0.1-0.1
	C-135.1,452.1-135.4,452.1-135.3,452.3 M-134.7,452.2c-0.4,0.1,0,0.2,0.2,0.1C-134.4,452.2-134.5,452.2-134.7,452.2 M-128.7,452.7
	c-0.2,0-0.2,0.3,0,0.2C-128.6,452.9-128.6,452.8-128.7,452.7C-128.5,452.7-128.6,452.7-128.7,452.7 M-126.8,452.8
	c-0.2,0.2-0.1,0.6,0.1,0.2C-126.7,452.7-126.7,452.7-126.8,452.8 M-188.8,474.8c-0.3,0.1-0.4,0.1-0.5-0.1c-0.1-0.3-0.1-1,0.1-1.1
	c0.2-0.1,0.2-0.3,0-0.2c-0.1,0-0.1,0-0.1-0.2c0-0.2-0.1-0.2-0.3,0.1c-0.2,0.2-0.4,0.3-0.4,0.3c-0.1-0.1,1.4-3,1.4-3.2
	c0-0.2,0.6-1.4,0.8-1.7c0.1-0.1,0.2-0.4,0.3-0.7c0.3-0.7,1.2-2.5,1.2-2.7c0-0.1,0.1-0.2,0.2-0.3c0.1-0.1,0.2-0.4,0.3-0.6
	c0.1-0.3,0.1-0.5,0.2-0.6c0.5-0.6,0.9-1.4,0.9-1.9c0-0.4,0.1-0.6,0.3-0.7c0.3-0.2,1-1.1,1-1.3c0-0.1,0.3-0.7,0.6-1.4
	c0.6-1.2,0.7-1.9,0.4-1.8c-0.2,0.1-0.4-0.4-0.1-0.5c0.1-0.1,0.3-0.3,0.4-0.5c0.1-0.2,0.2-0.4,0.3-0.4c0.2,0,0.1,0.1-0.2,0.5
	l-0.2,0.4c0,0,0.2-0.2,0.4-0.5s0.4-0.6,0.5-0.6c0.1,0,0.1-0.1,0.1-0.1c0-0.1,0-0.2,0.1-0.3c0.2-0.2,0.3-0.7,0.1-0.6
	c-0.1,0-0.1,0-0.1-0.1c0-0.1,0.1-0.1,0.2-0.1c0.3,0.1,0.6-0.1,0.6-0.3c0-0.3,0.4-0.9,0.6-0.8c0.1,0.1,0.1,0,0-0.1
	c-0.1-0.2,0.2-0.9,1-2.2c0.6-1,0.3-0.9-0.3,0.3c-0.9,1.7-1.7,2.7-0.4,0.4c0.4-0.7,0.7-1.3,0.7-1.4c0-0.2,0.8-1.1,0.8-1h0.2
	c0.1-0.1,0.2-0.1,0.3-0.1c0.1,0,0.1-0.1,0.2-0.1c0.1-0.1,0-0.1-0.1,0c-0.2,0.1-0.2,0,0.2-0.7c0.3-0.5,0.3-0.6,0.2-0.7
	c-0.2-0.1-0.1-0.1,0.1-0.1c0.1,0,0.3-0.3,0.3-0.4c0-0.1,0-0.1-0.1,0c-0.3,0.2-0.3-0.2,0-0.8s0.3-0.6,0.5-0.4
	c0.2,0.2,0.3,0.2,0.9-0.7c0.6-0.9,0.9-1.3,0.7-1.3s-0.6,0.5-0.6,0.7c0,0.1-0.2,0.3-0.3,0.4c-0.2,0.2-0.3,0.1-0.2-0.2
	c0-0.2,0.2-0.5,0.4-0.6c0.6-0.5,0.9-1,0.7-1.2c-0.1-0.1-0.1-0.2-0.1-0.3s0-0.2-0.1-0.2c-0.1,0-0.1-0.1-0.1-0.2
	c0.1-0.1-0.1-0.6-0.2-0.6c0,0-0.4-0.1-0.7-0.3c-0.6-0.3-0.8-0.6-0.3-0.6c0.2,0,0.2,0,0-0.1c-0.1-0.1-0.3-0.2-0.3-0.3
	s-0.6-0.4-1.4-0.7c-2-0.8-4.3-2-4.1-2.2c0,0,0-0.1-0.1-0.2c-0.1-0.1-0.1,0-0.1,0.1c0.1,0.1,0,0.2-0.1,0.2c-0.1,0-0.7-0.5-1.3-1.1
	c-1.5-1.5-0.6-0.5-0.4-0.3c0.1,0.1,0.2,0.2,0.2,0.4c0,0.2-0.1,0.2-0.4-0.1c-1.3-0.8-2.2-1.5-2.2-1.6c0-0.1-0.1-0.2-0.2-0.2
	c-0.2-0.1-0.2,0,0,0.1l0.1,0.1c-0.2,0-1.9-1.3-1.9-1.5c0-0.1,0-0.2-0.1-0.2c-0.2,0-1.6-1.5-2.7-2.7c-0.8-1-1-1.3-0.9-1.5
	c0-0.1,0-0.1-0.1-0.1c-0.1,0-0.2-0.2-0.3-0.4c-0.1-0.2-0.3-0.6-0.5-0.8c-0.2-0.2-0.3-0.5-0.3-0.7c0-0.1-0.1-0.5-0.3-0.7
	c-0.1-0.3-0.3-0.6-0.3-0.7s-0.2-0.4-0.4-0.7c-0.2-0.3-0.4-0.6-0.4-0.7s-0.1-0.1-0.1-0.1c-0.1,0.1-0.2-0.1-0.1-0.5
	c0-0.1-0.1-0.3-0.1-0.3c-0.1-0.1-0.2-0.3-0.2-0.5c0-0.2-0.2-0.6-0.5-1c-0.3-0.4-0.5-0.8-0.6-1c-0.1-0.4-0.1-0.4,0.1-0.2
	c0.4,0.3,0.4,0,0-0.4c-0.3-0.3-0.4-0.7-0.7-2c-1-4.9-1.9-11.7-1.7-12.7v-0.3c-0.1,0-0.1-0.3-0.1-0.7c0-1.2,0.3-0.1,0.6-1
	c0.1-0.2,0.1-0.5,0-0.5c-0.1,0-0.1-0.3-0.2-0.5c-0.1-0.4-0.4-0.8-0.3-0.4c0.1,0.4,0,1-0.1,1c-0.1,0-0.1-0.3-0.1-0.5v-0.4
	c-0.1,0-0.1-0.3-0.1-0.6s0.1-0.6,0.1-0.6c0.1,0,0.1,0,0.2,0.5c0,0.3,0,0.3,0.1,0.1c0.1-0.1,0.1-0.3,0.1-0.5c0-0.2,0.1-0.3,0.4-0.4
	s0.4-0.2,0.4-0.4c0-0.1-0.1-0.3-0.1-0.3l-0.1-0.1c0.1,0,0.1,0,0.1,0.1c0.2,0.3,0.5,0.1,0.3-0.2c-0.3-0.4,0.6-0.7-0.4-0.7v-0.8
	c0-0.2-0.1-0.3-0.1-0.2c-0.1,0.1-0.1,0.2,0,0.3c0,0.1-0.1,0.1-0.2,0.1c-0.3,0-0.5-0.2-0.3-0.3c0.1,0,0.2-0.2,0.1-0.6v-0.6
	c0.1,0.1,0.1-0.1,0.1-0.2c0-0.2,0.1-0.3,0.2-0.3s0.1,0,0.1,0.1c-0.1,0.1,0,0.2,0.1,0.2c0.1,0,0.1-0.1,0.1-0.4
	c-0.3-1.4-0.3-13.2-0.1-15.6c0.2-1.5,0.2-2.5,0.2-4.1c0-0.9,0.2-4.3,0.3-5.8c0.2-1.9,0.5-4.6,0.5-4.8c0-0.1,0.1-0.7,0.2-1.2
	c0.1-1.3,0.5-3.1,0.9-5.4c0.6-3.5,1.9-8.2,1.9-8.9c0-0.1,0-0.2,0.1-0.2c0.2,0,0.3-0.5,0.1-0.8c-0.1-0.1-0.1-0.3,0-0.3
	c0.1,0,0.1,0,0.1,0.2c0,0.5,0.6-1.9,0.9-2.7c0-0.2,0-0.2-0.1-0.2c-0.1,0-0.2,0.1-0.1,0.2c0.1,0.2-0.1,1-0.2,1s-0.2,0.1-0.3,0.3
	c-0.2,0.5-0.5,1.8-0.4,2c0,0.1,0,0.2-0.1,0.2c-0.2,0-0.6,1.8-0.5,2.1c0.1,0.1,0.1,0.2-0.1,0.3c-0.1,0.1-0.2,0.3-0.1,0.4
	c0.1,0.1,0,0.2-0.4,0.2c-0.2,0-0.5,0-0.6,0.1s-0.1,0-0.1-0.2l0.1-0.3l-0.3,0.3c-0.1,0.2-0.3,0.5-0.4,0.6c-0.1,0.2-0.2,0.4-0.4,0.6
	c-0.2,0.2-0.4,0.5-0.4,0.8s-0.1,0.6-0.2,0.7c-0.2,0.3-0.1,0.7,0.1,0.6h0.2c0,0.2-0.4,2.1-0.6,2.8c-0.1,0.4-0.3,1.3-0.5,2
	c-0.5,2.5-0.9,3.9-1,4.8c0,0.3-0.1,0.7-0.2,0.8c-0.1,0.1-0.1,0.3-0.1,0.5c0,0.2,0,0.6-0.1,0.9c-0.1,0.3-0.2,0.9-0.3,1.3
	c-0.1,1.1-0.2,1.4-0.3,2c-0.3,1.2-0.4,1.6-0.3,2.1c0,0.4,0,0.6-0.1,0.6c-0.1,0-0.2,0.2-0.2,0.7c0,0.4,0,0.7-0.1,0.8
	c0.2,0.2,0,1-0.1,2.2c-0.4-0.1-0.8,0-0.8,0.2c0,0.3-0.3,0.5-0.6,0.8V378c0.1-1.8,0.2-2.3,0.3-3.1c0.2-1.2,0.3-1.6,0.2-1.6
	c-0.1,0,0-0.5,0.1-1c0.3-1.4,0.1-1.4,0.4-2.5c0.1-0.4,0.2-1.1,0.3-1.5c0.1-0.7,0.6-2.1,0.6-1.7c0,0.1,0.1,0.2,0.2,0.2
	c0.2,0,0.4-1.1,0.2-1.2c-0.2,0-0.3-0.1-0.3-0.2c0-0.2,0-0.2-0.1,0c-0.1,0.1-0.1,0.1-0.2-0.1c0-0.2,0-0.4,0.1-0.4
	c0.1-0.1,0.1-0.3,0.1-0.5c-0.1-0.2,0-0.3,0.1-0.1l0.1-0.4c0-0.3,0.1-0.4,0.4-0.3c0.2,0.1,0.3,0,0.3-0.1c0-0.2-0.1-0.2-0.3-0.2
	c-0.2,0.1-0.3,0-0.3-0.2c0-0.2-0.1-0.2-0.2-0.2c0,0.1,0,0,0.1-0.5c0-0.4,0.2-0.7,0.3-0.7c0.1-0.1,0.2-0.2,0.1-0.3
	c-0.1-0.1-0.1-0.3-0.1-0.4v-0.2c-0.1,0-0.1-0.1-0.1-0.2c0-0.2,0.1-0.2,0.2-0.2c0.2,0,0.2,0,0.2-0.2c-0.1-0.2,0-0.2,0-0.2
	c0.1,0,0.2-0.1,0.2-0.3c0.1-0.6,0.1-1-0.1-1c-0.3-0.1-0.2-1.1,0.2-1.3c0.1-0.1,0.3-0.2,0.4-0.2c0.1,0,0.1-0.1-0.1-0.1
	c-0.2-0.1-0.2-0.1,0-0.3c0.3-0.2,0.3-0.4,0-0.3c-0.4,0.1-0.3-0.1,0.1-0.9c0.1-0.1,0.1-0.3,0.1-0.5c0-0.1,0.1-0.2,0.2-0.2
	s0.2-0.1,0.1-0.2c0-0.1,0-0.4,0.1-0.7c0.6-1.7,0.9-2.4,1.1-2.8c0.1-0.2,0.2-0.5,0.2-0.6c0-0.4,1.5-3.2,1.9-4.2
	c0.3-0.8,2.2-4.1,2.7-5c0.4-0.9,2.9-4.5,3.4-5c0.8-0.8,1.2-1.3,1.1-1.4c-0.1-0.1,0.1-0.3,1.1-1.5c0.5-0.6,3.2-3.3,3.7-3.7
	c0.6-0.5,0.8-0.7,1.9-1.4c0.4-0.3,0.8-0.6,0.9-0.6c0.1-0.1,0.3-0.2,0.5-0.3c0.2-0.1,0.6-0.3,0.9-0.5c1.3-0.9,5.9-3.4,6-3.3
	c0,0,0.1,0,0.1-0.1c0.1-0.2,2-1.2,3.5-1.8c0.8-0.3,1.7-0.7,2-0.9c0.3-0.2,0.6-0.3,0.6-0.2c0.1,0,0.1,0,0.1-0.1
	c0-0.2,1.3-0.7,1.6-0.6c0.2,0,0.2,0,0.2-0.1c0-0.1,0-0.2,0.2-0.3c0.2,0,0.3-0.1,0.3-0.1l0.6-0.2c0.5-0.2,0.6-0.2,0.8-0.1
	s0.2,0.1,0.2,0c-0.1-0.1,0-0.2,0.1-0.3c0.2-0.1,0.4-0.1,0.4,0c0,0.1-0.1,0.1-0.2,0c-0.1-0.1-0.1,0-0.1,0.1c0.1,0.2,0.6-0.1,0.6-0.3
	s0.2-0.3,0.5-0.2c0.1,0,0.1-0.1,0.1-0.1c0-0.1,0-0.1,0.1-0.1c0,0,0.5-0.1,1.1-0.4c1.7-0.7,2.8-1.1,3-1.1c0.1,0,0.2,0,0.2-0.1
	s1-0.5,1.4-0.6c0.2,0,0.3,0,0.3,0.2c0,0.2,0,0.2,0.4,0.1c0.8-0.3,1-0.4,0.9-0.6c-0.1-0.2,0.1-0.4,0.5-0.4c0.2,0,0.2,0.1,0.2,0.2
	c-0.1,0.1,0,0.2,0.2,0.2c0.1,0,0.3-0.1,0.3-0.1c0-0.1,0.1-0.1,0.2,0c0.1,0,0.2,0,0.2-0.1s-0.1-0.2-0.4-0.1c-0.3,0-0.3,0,0.1-0.2
	c0.2-0.1,0.5-0.2,0.6-0.1c0.1,0,0.1,0,0.1-0.1s0.1-0.1,0.3-0.1c0.2,0,0.2,0.1,0.2,0.2s0,0.2,0.1,0.2c0.2,0,0.2-0.1,0.1-0.3V315
	c0.1,0.2,0.3,0.2,0.3,0.1c0-0.3,0-0.3,0.2-0.1c0.1,0.2,0.3,0.2,0.5,0.1c0.4-0.1,0.3-0.3-0.1-0.3c-0.6,0.1-0.2-0.2,0.4-0.3
	c1.5-0.4,1.6-0.6,2.9-0.7c0.2,0,0.5-0.1,0.6-0.1c0.1,0,0.1,0,0.1,0.1c0.1-0.2,0.1-0.2,0.2-0.2c0.1,0,0.1-0.2,0.1-0.3
	c-0.1-0.1,0.1-0.2,0.4-0.2c0,0,0.2,0,0.4-0.1s0.4-0.1,0.6,0c0.2,0.1,0.2,0.1,0.2,0s0-0.1,0.1-0.1c0.1,0,0.1,0,0.2-0.1
	c0-0.1,0.3-0.2,1.4-0.3c0.3,0,0.7-0.1,0.7-0.1c0.2-0.1,0.9-0.2,1.2-0.3c0.1,0,0.4-0.1,0.7-0.1c1-0.1,1.1-0.3,3.8-0.7
	c0.5-0.1,0.7-0.2,1.3-0.3c2.5-0.3,3.1-0.7,3.5-0.4c0.2,0.1,0.2,0.1,0.1-0.1c-0.1-0.2-0.1-0.2,0.1-0.1c0.1,0.2,0.3,0.2,0.3,0.2
	c0.1-0.1,0.8-0.2,1.6-0.3c0.2,0,0.5-0.1,0.5-0.1s0.1,0,0.3-0.1c1.4-0.2,1.9-0.3,1.8-0.5c0-0.1,0-0.1,0.1,0s0.3,0,0.4-0.2
	c0.1-0.1,0.2-0.2,0.2-0.1c0,0.1,0.1,0.2,0.2,0.2c0.2,0,0.2,0,0,0.1c-0.1,0.1-0.2,0.1-0.1,0.1c0.6,0.1,0.8,0,0.5-0.2
	c-0.1-0.1-0.1-0.2,0-0.2s0.2,0.1,0.2,0.1c0,0.1,0.2,0.1,0.4,0.1c0.7,0,1,0.3,0.9-0.1c-0.1-0.2-0.1-0.2,0.1,0
	c0.2,0.2,0.2,0.2,0.7,0.1c0.3-0.1,0.6-0.2,0.6-0.3c0.1-0.1,0.3-0.1,0.5-0.1s0.4-0.1,0.4-0.1c0-0.1-0.1-0.1-0.2-0.1s-0.1,0-0.1-0.1
	c0,0,0.2,0,0.3,0.1c0.2,0.1,0.6,0.1,1.7-0.2c0.8,0,1.4-0.1,1.5-0.1s0.3,0,0.5-0.1c0.4-0.2,1.4-0.4,2.4-0.5c0.6-0.1,1.1-0.2,1.6-0.3
	c0.6-0.2,2.3-0.2,2.7-0.4c0.1-0.1,0.3-0.1,0.4-0.1s0.3,0,0.3-0.1c0.1-0.1,0.8-0.2,2.3-0.5c0.4-0.1,0.8-0.1,0.8-0.1
	c0.1,0,0.2,0,0.4-0.1c0.2-0.1,0.3-0.1,0.3,0c0,0.1,0.1,0.1,0.2,0c0.3-0.2,2.2-0.1,2.4-0.3c0.1-0.1,0.4-0.1,0.8,0
	c0.5,0.1,0.7,0,0.9-0.1c0.1-0.1,0.4-0.2,0.8-0.2c2.3-0.1,4.7-0.6,4.7-0.2c0,0.1,0,0.2,0.1,0c0.1-0.1,0.4-0.2,0.8-0.2
	c0.5-0.1,0.7,0,0.6,0.1s-0.1,0.1,0.1,0c0.1-0.1,0.3-0.1,0.5,0c0.4,0.2,1.3,0.1,1-0.1c-0.1-0.1-0.1-0.1,0.1-0.1
	c0.1,0,0.2-0.1,0.2-0.1c0-0.2,0.6-0.1,0.6,0.1c0,0.1-0.1,0.2-0.2,0.2s0.1,0.1,0.4,0.1c0.5,0,0.6,0,0.5-0.1c-0.3-0.2,0-0.2,0.2,0
	c0.1,0.1,1.8,0.2,2,0.1c0,0-0.3-0.1-0.9-0.1s-0.9,0-0.8-0.1c0.1-0.1,1-0.3,1-0.1c0,0,0.6,0.1,1.3,0.1c1.5,0,4.3,0.2,5.4,0.3
	c1,0.1,2,0.2,5,0.4c5.4,0.4,4.9,0.1-1.3-0.3c-1.5-0.1-4.5-0.4-5.4-0.4c-0.2,0-0.4-0.1-0.4-0.1c0-0.1,0.2-0.1,0.5,0
	c0.3,0.1,0.5,0,0.5-0.1s-0.1-0.1-0.3-0.1c-0.3,0-0.6-0.3-0.3-0.4h0.2c0,0,0.5,0.1,1.2,0.1c1.7,0,1.6,0.1,5.3,0.3
	c3.1,0.2,3.3,0.2,6.5,0.5c4.8,0.5,6.1,1.1,6.1,0.8c0-0.1-2.2-0.6-2.3-0.5c0,0-0.2,0-0.3-0.1c-0.1-0.1-0.5-0.2-0.7-0.2
	s-0.5-0.1-0.6-0.2c-0.1-0.1-0.1-0.1,0.1-0.1c0.1,0,0.3,0,0.3-0.1c0.1-0.1,0.1-0.1,0.2,0s0.4,0.2,0.8,0.2s0.6,0,0.6,0.1
	c0,0,0.8,0.2,1.9,0.4c1.9,0.4,2.8,0.6,1.5,0.5c-1.2-0.1,0.1,0.4,1.4,0.5c0.3,0,1.2,0.3,2.2,0.5c0.4,0.1,0.8,0.2,1,0.2h0.4
	c0,0.1,0.8,0.3,2.1,0.5c0.6,0.1,1.5,0.3,1.6,0.2c0.1-0.1-0.3-0.3-0.9-0.4c-0.3,0-0.6-0.1-0.6-0.2s0.1-0.1,0.2,0
	c0.1,0,0.6,0.1,1.1,0.1s0.9,0.1,1,0.2s0.2,0.1,0.3,0.1c0.1-0.1,0.5,0.2,0.4,0.4c0,0.1,0.1,0.2,0.2,0.2s0.3,0.1,0.3,0.2
	c0,0.1,0,0.1,0.1,0.1h0.2c0.1,0.1,0.4,0.1,0.7,0.2c0.7,0.1,1.3,0.2,1.5,0.3s0.8,0.2,1.1,0.3c0.6,0.2,0.5,0.1,1.8,0.5
	c1,0.3,1.2,0.3,0.6,0c-0.6-0.3-0.2-0.3,0.4,0c0.3,0.2,0.4,0.3,0.3,0.3c-0.4,0-0.2,0.1,0.5,0.3c0.5,0.1,0.6,0.2,0.4,0
	c-0.5-0.3-0.2-0.3,0.7,0.1c0.7,0.3,1,0.5,0.9,0.6v0.1c0.1-0.1,0.2,0,0.3,0c0.1,0.1,0.3,0.1,0.4,0.1c0.1,0,0.3,0,0.4,0.1
	c0.1,0.1,0.2,0.2,0.3,0.1c0.2-0.1,1,0.3,1.1,0.5c0,0.1,0.1,0.2,0.2,0.1c0,0,0.3,0,0.6,0.2l0.6,0.2c0,0,0.3,0.1,0.5,0.3
	c0.2,0.2,0.6,0.3,0.7,0.3c0.1,0,0.3,0.1,0.4,0.2c0.1,0.1,0.3,0.2,0.4,0.2c0.1,0,0.5,0.2,0.8,0.3c1.2,0.7,4.6,2.1,4.2,2.2
	c-0.3,0.1-2.5-0.6-3.8-1.3c-0.7-0.3-1.4-0.7-1.5-0.7c-0.4-0.1-0.4,0.1-0.1,0.3c0.3,0.3,0.4,0.3,0.3,0.1c-0.1-0.1,0-0.1,0.2-0.1
	c0.1,0,0.2,0.1,0.2,0.2s0.1,0.2,0.2,0.2c0.3,0.2,0.1,0.4-0.2,0.2c-0.2-0.1-0.3-0.1-0.3,0c-0.1,0.2-0.3,0.2-0.3,0
	c0-0.1-0.2-0.2-0.8-0.2c-0.8,0-0.8,0-0.5,0.1c0.3,0.1,0.3,0.2,0.2,0.3s0,0.2,0.4,0.4c0.4,0.2,0.5,0.3,0.3,0.4c-0.1,0-0.3,0-0.4-0.1
	c-0.1-0.1-0.3-0.1-0.5-0.1c-0.5,0-0.6-0.2-1.1-0.9c0.7,0,0.8,0,0.5-0.2c-0.1-0.1-0.4-0.2-0.5-0.2s-0.2,0-0.2-0.1
	c0.2-0.2-2.6-1.1-3.9-1.3c-0.4,0-0.7-0.1-0.8-0.1s-0.1,0.1-0.2,0.2c0,0.1,0,0.2,0.1,0.1c0.1,0,1.1,0.3,1.1,0.3s-0.4,0-0.8-0.1
	c-0.4-0.1-1.1-0.1-1.6-0.2c-0.5,0-1-0.1-1.2-0.3c-0.3-0.2-0.2-0.3,0.1-0.2c0.1,0,0.5-0.3,0.5-0.4c0-0.1-0.5-0.2-1-0.3
	c-0.7-0.1-2.6-0.7-3-0.7c-0.2,0-0.2,0,0,0.2c0.2,0.1,0.2,0.2,0.1,0.3c-0.2,0.2,0,0.2,0.3,0c0.3-0.2,0.7,0,0.7,0.2
	c0,0.2,0,0.2,0.5,0.1s1.3,0.1,1.3,0.4c0,0.2-0.2,0.3-0.2,0.1c-0.1-0.2-1.7-0.2-1.8-0.1c-0.1,0.2-0.3,0.1-0.3-0.1
	c0.1-0.2-0.7-0.4-0.9-0.2h-0.2c-0.1-0.1-0.2-0.2-0.4-0.3c-0.4-0.2-0.4-0.2-0.3,0c0.1,0.3-0.1,0.3-0.3,0c-0.1-0.2-0.3-0.2-0.9-0.2
	c-0.8,0-1.5-0.2-1.6-0.5c0-0.1-0.2-0.2-0.3-0.2s-0.2,0-0.2-0.1c0-0.2-0.8-0.3-1.1-0.1c-0.3,0.2-0.7,0.2-1.1,0
	c-0.1-0.1-0.3-0.2-0.5-0.2c-0.1,0-0.3-0.1-0.4-0.2c-0.1-0.1-0.5-0.2-0.8-0.2h-0.7c0-0.1-3.1-0.2-3.3-0.4c-0.1-0.1-0.3-0.1-0.5-0.2
	s-0.3-0.1-0.3-0.2c0.1-0.1,0-0.1-0.1-0.1s-0.3,0-0.3-0.1c-0.1-0.1,0.1-0.1,0.5-0.1c1.1,0.1,0.7-0.1-0.6-0.3
	c-1.2-0.1-3.3-0.2-2.5-0.1c0.7,0.1,0.9,0.2,0.9,0.3s-0.2,0.1-0.6,0.1c-0.3,0-0.6,0-0.6-0.1c0,0-0.1-0.1-0.3-0.1
	c-0.4-0.1-0.5-0.2-0.1-0.2c0.2,0,0.3,0,0.2-0.1s-1-0.2-2.4-0.3c0.1-0.1,0.1-0.3,0.1-0.3c-0.2-0.3-0.5,0.2-0.7-0.1
	c-0.3-0.4-1.9-0.3-1.4,0.2c0,0.1,0.1,0.1,0.1,0.1c-0.5,0-0.7,0-0.7,0.1c0,0.1,0,0.1-0.1,0c-0.2-0.2-1.9-0.2-2.7-0.4
	c-0.5-0.1-3.2-0.2-4-0.3c-1-0.1-9.2-0.4-10.9-0.3c-1.3,0-6.1,0-6.1,0.2c0,0.2-0.3,0.5-0.6,0.5c-0.1,0-0.2-0.1-0.2-0.2
	c0-0.1,0.1-0.2,0.2-0.2c0.2,0,0.2-0.3,0-0.2c-0.1,0-0.6,0.1-1.1,0.1c-1.4,0-1.4,0-1.4,0.3c0,0.2,0,0.2-0.1,0
	c-0.4,0.3-0.6,0.3-1.5,0.3c-1.1,0-2.1,0.2-2,0.4c0,0.1,0,0.1-0.1,0.1s-0.4,0-0.7,0.1c-0.3,0-0.6,0-0.7-0.1s-0.2-0.1-0.3,0
	c-0.1,0.1-0.9,0.2-2.5,0.3c-3.5,0.2-5,0.4-7.1,0.5c-2.1,0.1-3,0.3-4.8,0.4c-1.4,0.1-2.1,0.3-4.9,0.5c-1.1,0.1-2.2,0.3-2.4,0.3
	l-0.3,0.2c0.4,0.1,0.8,0.2,0.5,0.2c-0.1,0,0,0.1,0.3,0.1c0.4,0.1,0.5,0.1,0.2,0.1c-0.2,0-0.3,0.1-0.3,0.1c0,0.1-0.3,0.1-0.7,0.1
	c-0.9,0-2,0.1-2.6,0.2c-0.6,0.1-0.6-0.2,0-0.2c0.6,0,0.9-0.1,0.7-0.3h0.2c0.2,0,0.3,0,0.3,0.1s0.2,0.1,0.4,0c0.4,0,0.4-0.1,0.2-0.1
	c-0.5-0.2,0.8-0.1,0.8-0.5c0-0.2-0.1-0.2-0.3-0.1c-0.1,0.1-0.5,0.1-0.8,0.1s-1.4,0.1-2.3,0.3c-2.2,0.3-2.2,0.3-2.6,0.4
	c-0.5,0.1-2.1,0.2-2.4,0.3s-0.9,0.2-1.3,0.2c-0.5,0-0.2,0.3,0.4,0.3c0.4,0,0.6,0,0.5,0.2c-0.1,0.1,0,0.1,0.1,0.1
	c0.1-0.1,0.1-0.1,0.1-0.2s0.1-0.1,0.4-0.1c0.4,0,0.4,0,0.2,0.1s-0.2,0.1,0.2,0.1c0.2,0,0.5-0.2,0.6-0.3c0.1-0.1,0.4-0.2,0.6-0.2
	c0.4,0,0.4,0,0.2,0.1c-0.2,0.1,0,0.1,0.5,0.1h0.6c-0.1,0-0.1,0.1-0.1,0.2c0.1,0.2-0.2,0.2-1.4,0.3c-1.9,0.1-2.2,0.2-2.4,0.3
	c-0.1,0.1-0.6,0.2-1.2,0.2c-0.8,0-1,0.1-1.1,0.3c-0.1,0.1-0.2,0.2-0.3,0.2c-0.1,0-0.4,0-0.7,0.1c-0.4,0.1-0.9,0.2-1.2,0.3
	c-0.3,0-0.6,0.1-0.7,0.1c-0.1,0-0.4,0.1-0.8,0.1s-0.9,0.2-1.2,0.2c-0.3,0.1-0.8,0.2-1,0.2c-0.3,0-0.6,0.1-0.6,0.1
	c-0.1,0.1-1.9,0.5-2.9,0.7c-0.2,0-0.4,0.1-0.4,0.2c0,0.1-0.1,0.1-0.2,0.1c-0.4,0-1.6,0.3-1.6,0.4c0,0-0.1,0.1-0.4,0.1
	c-0.2,0-0.7,0.1-1.1,0.3c-0.3,0.2-0.7,0.3-0.9,0.3c-0.3,0.1-5.2,2-5.3,2.2c-0.1,0.1,0.8-0.1,1.5-0.4c0.5-0.2,0.7-0.3,0.6-0.1v0.3
	c0.1,0.2,0.2,0.1,4.4-1.3c0.7-0.2,1.6-0.5,1.9-0.6c3.5-0.9,6.2-1.6,6.4-1.6c0.1,0,0.3,0.1,0.3,0.1c0,0.1,0,0.1-0.1,0.1
	c-0.3,0-1.3,0.2-1.3,0.3s0,0.2-0.1,0.3c-0.1,0.2,0,0.2,0.7,0.1c1.1-0.1,2.5-0.4,3.4-0.6c0.5-0.1,0.5-0.1,0.3,0.1
	c-0.1,0.2-0.1,0.3,0,0.4c0.1,0.1,0.2,0.2,0.3,0.2c0.1,0,0.2,0.1,0.1,0.1c0,0.1,0.1,0.1,0.5,0.1c0.5,0,0.5,0,0.3-0.2
	c-0.2-0.2-0.2-0.2,0.2-0.3h0.5c0.1,0.1,0.2,0.1,0.3,0.1c0.2-0.1,0.2-0.1,0,0.1c-0.2,0.1,0,0.1,0.6,0.1c0.7-0.1,1-0.2,0.9-0.5
	c-0.1-0.1,0.2-0.2,0.2,0.1c0,0.1,0.1,0.2,0.3,0.2c0.2,0,0.3,0,0.1-0.1c-0.2-0.1-0.2-0.1,0-0.3c0.1-0.1,0.3-0.1,0.5-0.1
	c0.3,0,0.3,0,0.1,0.2s-0.1,0.2,0.7,0.1c1.5-0.2,1.5-0.2,2.9-0.4c0.5-0.1,1.4-0.2,1.8-0.3c1.3-0.1,2.5-0.3,2.6-0.4
	c0.3-0.2,0.1-0.3-0.3-0.2h-0.4l0.4-0.1c0.8-0.2,1.8-0.4,1.9-0.3s0,0.1-0.3,0.1s-0.4,0.1-0.4,0.2c0,0.3,0.8,0.1,1.2-0.3
	c0.2-0.2,0.4-0.3,0.5-0.2c0.2,0.1,0.2,0.1,0,0.2s-0.1,0.2,0.4,0.1c0.3,0,0.6-0.1,0.7-0.1c0,0,0.2-0.1,0.3-0.1c0.1,0,0.3-0.1,0.3-0.2
	c0.1-0.3,0.3-0.2,0.2-0.1c-0.1,0.2,1.5,0.2,1.7,0c0.1-0.1,0.5-0.1,1-0.2c1.1-0.1,1.3-0.1,1.5-0.2s3.2-0.5,3.5-0.5
	c0,0,0.1-0.1,0.1-0.3c0-0.2,0-0.2,0.1-0.1c0,0.1,0.2,0.2,0.4,0.2c0.5,0,1.8-0.3,1.6-0.4c-0.2-0.1-0.1-0.3,0.3-0.1
	c0.4,0.2,2,0,2.2-0.2c0.4,0.3,0.6,0.2,0.7,0.2c0.4,0,0.4,0,0,0.2c-0.3,0.1-0.3,0.1,0,0.1c0.1,0,0.3,0,0.4-0.1c0,0,0.4-0.1,0.9-0.1
	s0.9-0.1,1-0.3c0.1-0.1,0.3-0.2,0.3-0.1c0.1,0.2,2.2,0,2.5-0.3c0.3-0.2,1-0.3,0.8-0.1c-0.1,0.2,0.8,0.3,1.3,0.1
	c0.2-0.1,0.9-0.2,1.5-0.2c1.6-0.1,3.1-0.2,3.8-0.2c0.3,0,0.7-0.1,0.8-0.1c0.5-0.2,1.5-0.2,1.9,0c0.2,0.1,0.4,0.1,0.5,0.1
	c0.2-0.1,1.4-0.1,1.4,0s0,0.1,0.1,0.1h0.4c0.1,0.1,0.5,0,0.8,0c0.3-0.1,0.5-0.1,0.6,0c0.2,0.1,6,0.2,6.8,0.3
	c2.9,0.3,5.4,0.3,7.5,0.5c0.6,0.1,0.8,0,0.7-0.1v-0.1c0.1,0,0.1,0.1,0.1,0.1c0,0.2,0.3,0.2,0.2-0.1v-0.2c0.1,0,0.1,0.1,0.2,0.2
	c0,0.1,0.2,0.2,0.4,0.1c0.2,0,0.4,0,0.4,0.1c0,0.1,0.3,0.1,0.5,0.2c0.3,0.1,0.4,0.1,0.2-0.1c-0.1-0.1-0.1-0.2-0.1-0.3
	c0.1-0.2,0-0.2-0.3-0.1c-0.5,0.1-0.5-0.2,0.4-0.2c0.5,0,0.7-0.1,0.7-0.2s0.1-0.1,0.1,0.1c0.1,0.2,0.1,0.3,0,0.5
	c-0.1,0.2-0.1,0.3,0,0.4c0.2,0.1,2.7,0.4,3.9,0.5c0.4,0,0.8,0.1,1,0.2c0.5,0.2,1.3,0.2,1.3,0c0-0.1,0.1-0.2,0.2-0.2s0.2-0.1,0.2-0.2
	s-0.2-0.2-0.8-0.1c-0.5,0-0.9,0-0.9-0.1c-0.1-0.1-0.1-0.1-0.2,0c-0.1,0.1-0.2,0.1-0.5,0c-0.4-0.2-0.4-0.3,0-0.4
	c0.2,0,0.3-0.1,0.3-0.2c0-0.2,0.2-0.1,0.3,0.1c0,0.2,0.1,0.2,0.3,0.2s0.3-0.1,0.3-0.2c0-0.1,0-0.1,0.1,0c0.1,0.1,0.3,0.2,0.6,0.2
	c1,0.1,1.4,0.3,1.4,0.4v0.3c0,0.1,0.1,0.1,0.2,0s0.1,0,0,0.1c-0.1,0.1-0.2,0.2-0.3,0.1c-0.1,0-0.1,0,0,0.1c0.2,0.2,1.6,0.5,3.7,0.7
	c1.2,0.1,2.1,0.4,2.7,0.4c0.2,0,0.6,0.1,0.8,0.1c0.4,0.1,0.5-0.1,0-0.4c-0.2-0.1-0.3-0.3-0.3-0.5c0-0.2,0-0.4-0.1-0.4
	c-0.2-0.1-0.1-0.3,0.2-0.3c0.2,0,0.3,0,0.2-0.1c-0.3-0.1-0.2-0.3,0.1-0.2c0.2,0.1,0.3,0.2,0.3,0.3s0.6,0.4,1.2,0.5
	c0,0,0,0.1-0.1,0.1c-0.3,0.2,0,0.4,1.1,0.6c0.2,0,0.4,0.1,0.4,0.2s0.2,0.1,0.3,0c0.2,0,0.3,0,0.2,0.1s0.1,0.2,0.4,0.1
	c0.4,0,1.2,0.1,2.7,0.5c0.2,0,0.2,0-0.1-0.3c-0.2-0.2-0.3-0.3-0.1-0.3c0.1,0,0.3,0.1,0.4,0.1c0.1,0,0.2,0.1,0.1,0.1
	c-0.1,0.1,0,0.1,0.2,0.1c0.4-0.1,0.3,0.2,0.1,0.2c-0.1,0-0.2,0.1-0.2,0.2c0,0.1-0.2,0.3-0.4,0.4l-0.4,0.2l0.4,0.1
	c0.4,0.1,1.9,0.4,2.7,0.6l0.5,0.1l-0.3-0.3c-0.4-0.3-0.2-0.6,0.4-0.4c0.3,0.1,0.4,0.2,0.2,0.4c-0.3,0.3-0.2,0.4,0.3,0.3
	c0.3-0.1,0.4,0,0.4,0c0,0.1,0.3,0.2,0.7,0.3c1.2,0.3,1.5,0.4,1.4,0.3v-0.3c0.1-0.2,0.7-0.1,0.7,0.2c0,0.1-0.1,0.2-0.2,0.1
	c-0.1,0-0.2,0-0.2,0.1c0,0.1,0.4,0.3,0.8,0.3c0.2,0,0.2-0.1,0.2-0.3c-0.1-0.4,0.2-0.3,1.3,0.1c0.5,0.2,1,0.3,1.1,0.4
	c0.2,0,0.1,0.3-0.1,0.3s-0.3,0.3,0.2,0.2c0.2-0.1,0.3,0,0.3,0c-0.1,0.1,0.2,0.3,0.5,0.3c0.2,0,0.1-0.4-0.1-0.5
	c-0.2-0.1,0.7,0,0.8,0.2c0,0.1,0.2,0.1,0.3,0.1c0.3,0,1.3,0.3,1.5,0.4c0.1,0.1,0.4,0.1,0.7,0.2c0.3,0,0.7,0.2,0.8,0.3l0.1,0.1h-0.2
	c0,0.1,0.2,0.2,0.4,0.3c0.6,0.2,1,0.2,0.5,0c-0.2-0.1-0.3-0.2-0.2-0.2c0.1-0.1,0.8,0.2,0.7,0.3c0,0.1,0.4,0.2,0.9,0.4l0.8,0.3
	c0.1,0.1,0.2,0.1,0.4,0.2s0.3,0.1,0.4,0.1c0.2,0.1,0.4,0.1,0.6,0.2c0,0.1,0,0.2,0.2,0.3c0.2,0,0.2,0,0.3-0.1c0.1,0.1,0.3,0.1,0.5,0
	c0.2,0,0.4,0.1,0.6,0.2c0.2,0.2,0.4,0.3,0.7,0.2c0.3,0,0.4,0,0.5,0.2c0.1,0.1,0.3,0.3,0.5,0.3c0.2,0.1,0.5,0.1,0.5,0.2
	c0.2,0.2,1.9,0.7,2.7,0.9c0.2,0,0.4,0.1,0.4,0.2c0,0.1,0.1,0.1,0.3,0.1c0.1,0,0.3,0.1,0.3,0.1c0,0.1,0.2,0.1,0.3,0
	c0.1,0,0.4,0.1,0.7,0.3c0.4,0.3,1.1,0.6,1.4,0.5c0.1,0,0.1,0,0.1,0.1s0.1,0.1,0.3,0.1c0.1,0,0.3,0.1,0.3,0.1c0,0.1,0.2,0.2,0.5,0.2
	s0.6,0.1,0.7,0.2c0.3,0.2,1.3,0.6,1.6,0.8c0.1,0.1,0.5,0.2,0.9,0.3s0.7,0.3,0.8,0.5c0.1,0.2,0.3,0.4,0.4,0.5
	c0.1,0.1,0.2,0.3,0.2,0.3c0,0.1,0.7,1.6,1.3,3c0.3,0.6,0.6,1.3,0.6,1.3c0,0.1,0.1,0.1,0.1,0.1c0.1-0.1,0.1,0,0.1,0.1
	c-0.1,0.1,0.1,0.3,0.4,0.6c0.3,0.3,0.4,0.4,0.3,0.4c-0.2-0.1,0.1,0.6,0.3,0.8c0.1,0.1,0.1,0.2,0,0.2c-0.2,0,0,0.3,0.4,0.9
	c0.2,0.2,0.2,0.3,0.1,0.1c-0.1-0.1-0.1-0.5-0.2-0.7c0-0.2-0.1-0.5-0.2-0.5s-0.1-0.2-0.1-0.3c0-0.3,0.2-0.1,0.3,0.3
	c0,0.2,0.2,0.4,0.3,0.4s0.2,0.1,0.1,0.1c0,0.1,0,0.2,0.1,0.3s0.2,0.3,0.2,0.4s0.1,0.2,0.1,0.2c0.1,0,0.2,0.1,0.2,0.2v0.1
	c-0.1-0.1-0.2,0-0.3,0.1s-0.2,0.1-0.4-0.1c-0.2-0.2-0.2-0.2,0,0.1c0.1,0.2,0.2,0.3,0.2,0.3s0.2,0,0.3,0.1c0.2,0.1,0.2,0.3,0.2,0.6
	c0,0.2,0.1,0.5,0.1,0.5l0.1,0.1c0,0.1,0,0.2,0.2,0.3c0.1,0.1,0.2,0.2,0.1,0.2s-0.1,0.1,0,0.4c0.1,0.2,0.3,0.6,0.3,1
	c0.2,0.6,0.3,0.7,0.6,0.4c0-0.1,0.2,0.1,0.2,0.4c0.1,0.3,0.2,0.5,0.3,0.4c0.2-0.1,0.4,0.3,0.2,0.5c-0.1,0.1-0.1,0.2-0.1,0.5
	c0.1,0.2,0,0.4-0.1,0.5c-0.1,0.1-0.1,0.1,0,0.1s0.3,0.2,0.4,0.4c0.1,0.3,0.2,0.4,0.3,0.3c0.2-0.1,0.2,0,0.2,0.3
	c0,0.2-0.1,0.3-0.1,0.3c-0.1,0-0.1,0.1-0.1,0.2c0,0.3,0,0.3-0.2,0c-0.2-0.2-0.2-0.2-0.2,0.2c0,0.6,0.2,1.3,0.4,1.2
	c0.1,0,0.1,0.1,0,0.2c-0.1,0.3,0,0.3,0.1,0.1c0.2-0.1,0.2-0.1,0.3,0.1c0.1,0.2,0.1,0.2,0.1-0.1c0-0.5,0.2-0.2,0.3,0.5
	c0.1,0.4,0.1,0.5-0.1,0.3c-0.1-0.1-0.2-0.2-0.3-0.2h-0.3c-0.1,0-0.1-0.1-0.1-0.2c0.1-0.1,0.1-0.1-0.1,0c-0.1,0.1-0.1,0.2,0,0.3
	c0.1,0.1,0.1,0.3,0.1,0.4c0,0.1,0.1,0.2,0.2,0.2s0.2,0.1,0.2,0.2c0,0.3,0.3,0.2,0.3,0c0-0.3,0.2,0.3,0.2,0.7c0,0.2,0,0.2-0.1,0
	c-0.2-0.4-0.2-0.4-0.2,0.4c0,0.6,0,0.7,0.2,0.4c0.3-0.3,0.4-0.2,0.4,0.4c0,0.3,0,0.4-0.1,0.2c-0.1-0.3-0.1-0.3-0.4-0.2
	c-0.2,0.1-0.3,0.5-0.1,0.5c0.1,0,0.1,0.1,0.1,0.3c0,0.2,0.1,0.5,0.2,0.8c0.2,0.5,0.5,1.8,0.6,2.3c0,0,0,0.2-0.1,0.3
	c-0.1,0.3,0,1.3,0.2,1c0.1-0.2,0.2-0.1,0.3,0.5c0.1,0.3,0.1,0.4,0,0.3c-0.2-0.1-0.2,0.3,0.1,0.3c0.2,0,0.2,0,0.1,0.2
	c-0.2,0.2-0.2,0.5,0,0.3c0.1-0.1,0.1-0.1,0.2,0.1v0.2c-0.1,0-0.1,0.1-0.1,0.2c0,0.4,0.3,1.3,0.4,1c0-0.2,0-0.2,0.1,0
	c0.2,0.3,0.2,0.6,0,0.5c-0.1-0.1-0.2,0.5-0.2,1.1c0,0.4-0.2,0.2-0.3-0.2v0.2c0,0.3,0.1,0.9,0.1,1.5c0,0.6,0.2,1.1,0.2,1.2
	c0.1,0.1,0.1,0.2,0,0.1s-0.1,0.1-0.1,0.6c0,0.4,0.1,0.8,0.1,0.9c0,0.1,0.1,1.7,0.1,3.5c0.1,5.3,0.1,1.2,0,11.7
	c0,1.9-0.1,3.2-0.3,4.3c-0.3,1.7-0.4,3.1-0.4,4.2c0,0.4-0.1,0.7-0.1,0.7c-0.1,0.1-0.1,0.2,0,0.4s0.1,0.3,0,0.3s-0.2,0.5-0.2,1
	c-0.2,2.4-0.3,2.5,0,2.4c0.2-0.1,0.2,0,0.1,0.1c0,0.1-0.1,0.4-0.1,0.6c0,0.5-0.3,0.4-0.2,0.2s0-0.2-0.1-0.1
	c-0.2,0.2-0.4,2.3-0.2,2.1c0.1-0.1,0.2-0.3,0.2-0.5c0.1-0.5,0.1,2.4,0,2.4s-0.2,0.8,0,0.7c0.2-0.1,0.1,0.4,0,0.6
	c-0.1,0.1-0.2,0.5-0.3,0.8c-0.1,1.1-0.4,2-0.5,2c-0.2-0.1-0.1,0.2,0,0.5c0.1,0.2,0.1,0.8-0.1,2c-0.4,2.8-0.9,5.6-1.1,5.6
	c-0.1,0-0.1,0.2-0.1,0.3v0.3c-0.1,0-0.1,0.4-0.1,0.7c0,0.3-0.1,0.9-0.2,1.3c-0.1,0.5-0.1,0.8-0.1,0.9c0.1,0.1,0.1,0.2,0,0.2
	s-0.3,0.6-0.4,1.3c-0.6,2.8-1.2,5.1-1.3,5.4c-0.2,0.5-0.8,2.9-0.9,3.1c-0.1,0.1-0.1,0.2-0.1,0.4s-0.1,0.4-0.2,0.6
	c-0.1,0.2-0.3,0.7-0.5,1.2c-0.3,1.1-0.9,2.8-1.2,3.5c-0.2,0.3-0.5,1.1-0.8,1.8c-0.7,1.7-1.2,2.7-1.3,2.5c-0.1-0.1,1.5-3.8,1.5-4
	s-0.3,0.3-0.5,0.7c-0.2,0.6-0.5,1.2-1,2.4c-0.7,1.9-1,2.2-2.8,3.9c-1,0.9-2.3,2.1-3.5,3.2c-1,0.9-2.5,2.1-2.9,2.2
	c-0.2,0.1-0.3,0.2-0.3,0.2c0,0.1-0.1,0.1-0.2,0.1c-0.2,0-0.7,0.3-0.9,0.5c-0.1,0.1-0.2,0.2-0.3,0.2s-0.3,0.1-0.5,0.3
	c-0.2,0.1-0.4,0.2-0.5,0.2s-0.4,0.1-0.7,0.3c-0.3,0.2-0.6,0.4-0.7,0.4c-0.8,0.3-1.3,0.6-1.2,0.7c0,0.1,0,0.1-0.1,0.1
	c-0.4,0-0.6,0.1-0.7,0.3c0,0.2-0.1,0.2-0.2,0.2c-0.2-0.1-4.3,1.9-4.7,2.3c-0.2,0.2-0.6,0.4-0.9,0.5c-0.1,0-1.7,0.8-2.4,1.2
	c-0.2,0.1-0.6,0.3-0.9,0.5c-0.7,0.3-0.9,0.5-0.8,0.9c0,0.2,0,0.3-0.1,0.3c-0.1-0.1-0.2-0.2-0.1-0.4l0.1-0.3
	c-1.6,0.8-2.5,1.2-2.9,1.5s-1.2,0.5-2.2,0.6c-0.6,0-0.8,0.1-0.8,0.2c0.1,0.1,0,0.2-0.2,0.2c-0.3,0.1-0.5,0-0.3-0.2
	c0.1-0.1,0.1-0.1-0.1-0.2s-0.3-0.1-0.3-0.1s-0.2,0.1-0.3,0.1c-0.2,0-0.2,0.1-0.2,0.4c0,0.2,0,0.3-0.1,0.3l-0.6,0.2
	c-0.7,0.3-0.8,0.3-0.9-0.1c0-0.2-0.2-0.4-0.3-0.5s-0.2-0.1-0.2,0.1c0,0.1-0.2,0.3-0.3,0.3c-0.2,0-0.2,0,0.1,0.1
	c0.4,0.1,0.5,0.4,0.1,0.4c-0.2,0-0.4,0.1-0.6,0.2c-0.2,0.1-0.5,0.2-0.7,0.2s-0.4,0.1-0.4,0.2c0,0.2-0.6,0.4-1,0.4
	c-0.1,0-0.2-0.1-0.2-0.2c0-0.1-0.1-0.1-0.1-0.1c-0.2,0.1-0.5-0.3-0.4-0.6c0.1-0.3-0.2-0.2-0.6,0.3c-0.3,0.4-0.6,0.6-0.6,0.3
	c0-0.1,0.1-0.2,0.2-0.4c0.3-0.3,0.3-0.7,0.1-0.7c-0.4,0-0.6,0.2-0.8,0.7c-0.1,0.4-0.3,0.5-0.5,0.5c-0.3,0-0.3,0,0,0.1
	c0.4,0.1,0.4,0.2,0.4,0.7c-1.4-0.8-1.5-0.9-1.5-0.3c0,0.1,0,0.2-0.1,0.2s-0.1-0.2-0.1-0.3c0-0.5-0.2-0.5-1-0.4
	c-0.4,0.1-0.8,0.1-0.9,0.2c-0.1,0-0.4,0.1-0.5,0.2c-0.2,0.1-0.2,0.1,0.2,0.1c0.3,0,0.5,0,0.6,0.1c0.1,0.1,0,0.1-0.1,0.1
	c-0.2,0-0.2,0,0,0.1c0.3,0.1,0.2,0.7-0.1,0.7c-0.2,0-0.2-0.2-0.2-0.5c0-0.1,0-0.2-0.1-0.2s-0.1,0.1-0.1,0.2s-0.1,0.2-0.2,0.3
	c-0.2,0.1-0.2,0.1-0.1,0.2s0.1,0.1,0,0.2c-0.1,0.1-0.2,0-0.2-0.1c-0.1-0.3-0.3-0.3-0.3,0.1c0,0.2-0.1,0.3-0.3,0.3s-0.3-0.1-0.3-0.2
	c0-0.1-0.1-0.2-0.2-0.2s-0.2,0.1-0.1,0.3c0.1,0.4-0.2,0.2-0.7,0.3c-0.1,0-0.2,0-0.2-0.1c0-0.3-0.2-0.3-0.3,0c0,0.2-0.2,0.2-0.6,0.2
	c-0.3,0-0.6,0-0.6-0.1c0-0.1-0.3-0.1-0.6,0c-0.6,0.1-0.6,0.1-0.4-0.2c0.1-0.2,0.3-0.2,0.4-0.2c0.2,0.1,0.2,0,0.1-0.2
	c-0.2-0.3-0.1-0.4,0.3-0.4c0.1,0,0.2-0.1,0.2-0.2c0-0.1-0.1-0.2-0.4-0.2c-0.2,0-0.5,0-0.6-0.1s-0.2,0-0.2,0.2
	c-0.1,0.3-0.2,0.3-0.6,0.3c-1.5,0-2,0-2.1-0.2c-0.1-0.1-0.2-0.1-0.3,0c-0.1,0.1-0.5,0.1-1,0.1s-1,0.1-1.3,0.1
	c-0.3,0.1-0.4,0-0.4-0.1c0-0.1-0.1-0.1-0.3,0.1c-0.2,0.2-0.4,0.2-1,0.2c-0.4,0-0.9,0-1.2,0.1c-0.3,0.1-0.6,0.1-0.7,0
	s-0.3-0.1-0.5-0.1h-1.2c-0.6,0-0.7,0.1-0.5,0.2c0.1,0.1,0.1,0.2-0.1,0.2s-0.3-0.1-0.2-0.1c0-0.1,0-0.1-0.1-0.1s-0.2-0.1-0.3-0.2
	c0-0.1-0.1-0.1-0.2,0c-0.1,0.1-0.3,0.1-0.4,0.1c-0.2-0.1-0.2,0-0.1,0.3c0.1,0.4,0,0.5-0.6,0.3c-0.5-0.2-0.6-0.4-0.3-0.4
	c0.1,0,0.1-0.1-0.1-0.1c-0.2-0.1-0.4-0.2-0.4-0.3s-0.1,0-0.2,0.3c-0.2,0.3-0.3,0.4-0.6,0.4s-0.4,0-0.3-0.3s-0.2-0.3-0.2,0
	c0,0.2-0.1,0.3-0.5,0.3c-0.3,0-0.5-0.1-0.5-0.1c0-0.1-0.1-0.1-0.2-0.1h-0.2c0-0.2-0.9-0.2-1-0.1c0,0.1,0.1,0.2,0.2,0.2
	c0.2,0,0.2,0.1-0.1,0.1c-0.2,0-0.4,0-0.4-0.2c0-0.3-0.3-0.3-0.2,0c0.1,0.3-0.3,0.5-0.7,0.4h-0.8c-0.3,0.1-0.5,0.1-0.9-0.1
	c-0.3-0.1-0.5-0.1-0.5-0.1c0,0.1-0.1,0.1-0.2,0c-0.3-0.2-4.9-0.2-5.2-0.4c-0.1-0.1-0.2,0-0.3,0.1c-0.1,0.1-0.1,0.1-0.3,0
	c-0.1-0.1-0.2-0.1-0.3-0.1c0,0-0.2,0-0.3-0.1c-0.2-0.1-0.3-0.1-0.8,0c-0.6,0.2-1.2,0.2-1.5,0.1c-0.1,0-0.5-0.1-0.9,0
	c-0.4,0-0.8,0-0.7-0.1c0-0.1,0-0.1-0.1-0.1s-0.2-0.1-0.1-0.2c0.1-0.2,0-0.2-0.2,0c-0.3,0.3-1.2,0.6-1.4,0.5c-0.1,0-0.3-0.1-0.5,0
	c-0.2,0-0.3,0-0.3-0.1s0-0.2-0.1-0.2c-0.1-0.1-0.1,0-0.1,0c0.1,0.2-0.5,0.2-0.7,0c0-0.1-0.1-0.1-0.2,0c-0.1,0.2-1.5,0.2-3.4,0.2
	l-0.3-0.4c-0.1-0.2-0.2-0.4-0.2-0.3c0,0.1-0.2,0.1-0.4,0.2c-0.2,0-0.4,0.1-0.5,0.2c-0.1,0.1-0.1,0.1-0.1,0c0-0.2,0-0.3-0.3-0.3
	c-0.1,0-0.1,0,0,0.1c0.2,0.1,0.2,0.1,0,0.3c-0.1,0.1-0.3,0.2-0.4,0.1c-0.2-0.1-1-0.1-2.8-0.3c-0.5,0-1-0.2-1.2-0.3
	c-0.2-0.1-0.4-0.1-0.4-0.1c0,0.1-0.1,0.1-0.2,0.1s-0.2,0-0.3,0.1c0,0.1-0.2,0.1-0.3,0.1c-0.1,0-0.2-0.1-0.1-0.2s0-0.1-0.3-0.1h-0.4
	c0-0.1-0.2-0.1-0.3,0c-0.3,0.2-2.2,0.2-2.4,0c-0.1-0.1-0.2-0.1-0.3,0c-0.1,0.1-0.2,0.1-0.6,0.1c-0.3-0.1-0.6-0.1-0.6-0.1
	c-0.1,0,0-0.1,0.1-0.3c0.4-0.6-0.1-0.4-0.8-0.3c-0.1,0-0.2,0.1-0.2,0.3c0,0.3-0.7,0.4-0.9,0c-0.1-0.1-0.1-0.2-0.1-0.1
	c0,0.1-0.2,0-0.3,0c-0.3-0.1-0.3-0.1-0.4,0.2c0,0.2-0.2,0.3-0.2,0.3c-0.3,0-0.7-0.2-0.7-0.3c0.1-0.2-0.2-0.2-0.2,0.1
	c0,0.1-0.1,0.1-0.4,0c-0.2-0.1-0.4-0.1-0.4-0.1h-0.3c-0.2-0.1-0.3-0.1-0.3,0.1c-0.1,0.2-0.2,0.2-0.6,0.1c-0.3-0.1-0.5-0.2-0.5-0.3
	c0-0.1-0.2-0.1-0.4-0.1c-0.3,0.1-0.4,0-0.5-0.2c0.5-0.2,0.3-0.7-0.1-0.8h0.5c0.4-0.1,0.8,0,1,0.1c0.3,0.1,0.4,0.1,0.4,0
	c0-0.1,0.1-0.1,0.2,0c0.1,0.2,0.5,0.1,1.5,0c0.3-0.1,0.4,0,0.4,0.1c0,0.1,0.1,0.1,0.2,0.1h0.4c0.1,0.1,0.3,0.1,0.5,0
	c0.2-0.1,0.5-0.1,0.8,0c0.3,0.1,1,0.2,1.9,0.2c0.1,0,0.3,0.1,0.4,0.1c0.1,0.1,0.2,0.1,0.4,0c0.1-0.1,0.4-0.1,0.6,0s0.6,0.1,0.8,0
	c0.5-0.1,0.6-0.1,0.8-0.1c0.1,0,0.9,0.1,1.8,0.1c1.3,0,1.8,0.1,2.1,0.2c0.3,0.2,0.4,0.2,0.5,0c0.1-0.1,0.3-0.1,0.6-0.1
	c0.2,0,0.7,0.1,0.9,0.1s0.5,0.1,0.6,0.1c0.1,0.1,0.2,0.1,0.2,0c0,0,0.1,0,0.2,0.1c0.1,0.1,0.2,0.1,0.4,0c0.2-0.2,1.4-0.2,1.4,0
	c0,0.1,0.3,0.1,0.7,0.1c0.4,0,1.3-0.1,2-0.1s1.4-0.1,1.5-0.1c0.1-0.1,0.3-0.1,0.5,0c0.2,0.1,0.6,0.1,0.9,0.1c0.5,0,0.6,0,0.7,0.2
	s0.1,0.2,0.5,0c0.3-0.2,0.4-0.2,0.6-0.1s0.5,0.1,0.9,0.1c0.9-0.1,1.1-0.1,1.2,0.1c0,0.1,0.1,0.1,0.2,0.1c0.4-0.2,3.7-0.3,4.2-0.3
	v-0.5c0-0.3,0-0.5,0.1-0.6c0.1-0.2,0-0.3-0.5-0.2c-0.3,0-0.4,0.1-0.3,0.3c0.1,0.2,0,0.2-0.1,0.1c-0.3-0.2-0.4-0.2-0.2,0.1
	c0.2,0.2,0.2,0.2,0,0.1c-0.1-0.1-0.2-0.1-0.1,0.1c0.1,0.1,0,0.2-0.1,0.2c-0.2,0-0.4-0.4-0.2-0.5c0.1-0.1,0-0.8-0.1-0.8
	s-0.1,0.1-0.2,0.2c0,0.1-0.1,0.2-0.2,0.1c-0.1,0-0.3,0-0.5,0.1c-0.3,0.2-0.3,0.2-0.4-0.1c-0.1-0.4-0.3-0.4-0.6-0.1
	c-0.2,0.2-1.2,0.3-1.1,0.1c0.1-0.1,0-0.1-0.2,0c-0.1,0.1-0.4,0.1-0.6,0.1s-0.5-0.1-0.6-0.1c0,0,0-0.1,0,0c0.6-1-1.1-0.5-1,0
	c-0.2,0-0.4,0-0.5-0.1c0,0-0.3-0.1-0.7-0.1c-0.5,0-0.6,0-0.8,0.2c-0.1,0.1-0.1,0.4-0.1,0.4c0,0.1,0,0.2-0.1,0.3
	c-0.3,0.1-0.3,0-0.2-0.3c0.2-0.4,0.2-0.4-0.1-0.5c-0.1,0-0.4,0-0.6,0.1c-0.3,0.1-0.4,0.1-0.5,0c-0.1-0.1-0.2-0.1-0.2,0
	c0,0.1-0.1,0-0.1-0.1c-0.1-0.2-0.1-0.2-0.1,0c0,0.3,0,0.3-0.5,0c-0.3-0.1-0.5-0.2-1-0.1c-0.4,0.1-0.7,0.1-0.8,0
	c-0.5-0.2-0.8-0.3-0.8-0.1c0,0.2-0.3,0.3-0.4,0.1c-0.1-0.1-1.1-0.2-1.5-0.1c-0.2,0.1-0.4,0.1-0.5,0c0-0.1-0.7-0.1-1.5-0.1
	s-1.5,0-1.5-0.1c-0.1-0.1-0.2-0.1-0.3-0.1c-0.4,0-0.7-0.3-0.7,0.1c0,0.2,0,0.2-0.3,0.1c-0.2-0.1-0.3-0.2-0.3-0.3s-0.2-0.1-0.5,0
	s-0.5,0-0.6-0.1s-0.1-0.1-0.2,0s-0.2,0.2-0.3,0.2c-0.1,0-0.2,0.2-0.2,0.3s-0.1,0.2-0.2,0.3c-0.3,0.1-0.3,0.1-0.1-0.2
	c0.2-0.3,0.2-0.3,0-0.4c-0.1,0-0.4-0.1-0.6-0.1c-0.4,0-0.4,0-0.2,0.3c0.2,0.3,0.2,0.3-0.1,0.2c-0.3,0-0.4-0.1-0.4-0.3
	c0-0.2-0.1-0.3-0.6-0.3c-0.3,0-0.7-0.1-0.8-0.2c-0.1-0.1-0.2-0.1-0.2,0c0,0.1-0.1,0.1-0.2,0.1s-0.4,0-0.5,0.1
	c-0.2,0.2-0.2,0.2,0.1,0.3c0.4,0.1,0.4,0.1-0.2,0.2c-0.7,0.1-0.7,0.1-0.5-0.2c0.2-0.4-0.1-0.6-0.5-0.3c-0.3,0.3-1,0.4-0.8,0.1
	c0.1-0.1-0.1-0.2-0.2-0.1c0,0-0.2,0-0.3-0.1c-0.3-0.1-0.3-0.1-0.5,0.1s-0.3,0.2-0.4,0.1c-0.1-0.1-0.4-0.2-0.7-0.3
	c-0.3,0-0.6-0.1-0.6-0.2c0-0.1-3-0.1-3.1,0h-0.3c-0.1-0.1-0.3-0.1-0.4-0.1s-0.2,0-0.2-0.1c0-0.1-0.1,0-0.3,0.2
	c-0.3,0.4-0.3,0.4-0.4,0.1c-0.1-0.3-0.4-0.4-0.7-0.3c-0.1,0-0.1,0.1-0.1,0.2s-0.1,0.1-0.2,0c-0.2-0.1-0.3-0.1-0.4,0
	c-0.1,0.2-0.7,0.3-1.4,0.3c-0.4,0-1-0.3-0.7-0.4c0.3-0.1,0.1-0.2-0.6-0.3s-1,0.1-0.5,0.3c0.3,0.1,0.3,0.1-0.1,0.2
	c-0.3,0-0.5,0-0.7-0.2c-0.3-0.3-0.3-0.3,0-0.2c0.2,0.1,0.2,0.1,0-0.1c-0.3-0.2-0.5-0.1-0.4,0.2c0.1,0.2-0.2,0-0.5-0.3
	c-0.2-0.2-0.5-0.1-0.5,0.2c0,0.2-0.4,0.2-0.4,0c0-0.1-0.1-0.1-0.3,0c-0.2,0.1-0.3,0-0.2-0.1c0.1-0.1,0-0.1-0.3-0.1
	c-0.4,0.1-0.7,0.4-0.5,0.7c0.1,0.2,0.1,0.2,0.2,0c0.1-0.2,0.1-0.1,0.1,0.1c0,0.1,0.1,0.3,0.2,0.4c0.2,0.1,0.2,0.1,0.1,0.2
	c-0.2,0.2-0.2,0.4,0,0.2c0.1-0.1,0.2-0.2,0.2-0.3c0-0.3,0.5-0.5,0.8-0.3c0.1,0.1,0.4,0.1,0.5,0.1c0.1,0,0.2,0,0.2,0.1
	c0,0.2,0.5,0.2,1.6,0c0.3,0,0.5,0,0.4,0.1c-0.1,0.2,0.9,0.3,1,0.1c0.1-0.1,0.2-0.1,0.3,0c0.2,0.2,1.7,0.4,1.8,0.2
	c0.1-0.2,0.6-0.2,0.6,0c0,0.1,0.2,0.1,0.5,0.1c1.4,0,2.8,0.1,2.9,0.2h0.1c-0.2,0-0.3,0.1-0.5,0.2c-0.9,0.9,0.3,0.6,0.3,0.7h0.2
	c0.1,0.2-0.2,0.2-1.1,0.2s-1.1-0.1-1.1-0.2c0.1-0.1,0-0.2-0.3-0.1c-0.2,0.1-0.4,0-0.5-0.1s-0.1-0.1-0.3,0c-0.2,0.2-1.1,0-1.2-0.2
	c-0.1-0.2-0.1-0.2-0.1,0c0,0.3-0.5,0.5-0.9,0.3c-0.2-0.1-0.4-0.2-0.5-0.1c-0.1,0-0.2,0-0.2-0.2c0-0.2-0.1-0.3-0.2-0.3
	c-0.2,0-0.2,0-0.1,0.4c0.1,0.3,0.1,0.4-0.1,0.4c-0.1,0-0.3-0.1-0.3-0.2c0-0.2-0.2-0.3-0.3-0.1c-0.1,0.1-0.2,0.1-0.3,0
	c-0.1-0.1-0.3-0.1-0.3,0c-0.1,0.1-0.1-0.1,0-0.3c0.1-0.4,0-0.5-0.3-0.1c-0.2,0.2-0.3,0.2-0.4,0.1c-0.1-0.1-0.2-0.1-0.3,0
	c-0.2,0.2-1.2,0.2-1.2,0c0.1-0.3-2.3,0-3.2-0.5c-0.2-0.1-0.6-0.2-0.9-0.1c-0.3,0-0.5,0-0.5-0.1s-0.1-0.1-0.1-0.1
	c-0.1,0-0.2,0-0.3-0.1c-0.2-0.2-0.4-0.3-0.5,0c0,0.1-0.1,0.1-0.2-0.1c-0.2-0.3-0.4-0.4-0.3-0.1c0.1,0.2,0,0.2-0.2,0.1
	c-0.2,0-0.3,0-0.2,0.1c0.1,0.2-0.6,0.1-0.5-0.1c0-0.1-0.3-0.5-0.5-0.5c-0.1,0-0.1,0.1-0.1,0.1c0,0.1-0.9,0.1-1.7-0.1
	c-0.3-0.1-0.6-0.1-0.7-0.1c-0.1,0-0.2,0-0.2-0.2c0-0.1-0.1-0.4-0.2-0.5c-0.2-0.2-0.2-0.2-0.1,0.1c0.1,0.3,0,0.4-0.2,0.4
	c-0.3,0.1-1.4-0.4-1.4-0.7c0-0.1-0.1-0.2-0.4-0.2s-0.4,0-0.4-0.2c0-0.1-0.1-0.2-0.1-0.1c-0.1,0-0.1,0.2-0.1,0.4
	c0.1,0.3,0,0.3-0.5,0.3c-0.3,0-0.7-0.1-1-0.2c-0.2-0.1-0.4-0.2-0.5-0.1c0,0-0.2,0-0.3-0.1c-0.1-0.1-0.4-0.1-0.6-0.1s-0.4,0-0.6-0.1
	c-0.1-0.1-0.5-0.2-0.9-0.2c-0.6,0-0.7-0.1-0.7-0.3c0-0.3,0-0.3-0.4-0.1c-0.4,0.2-0.6,0.1-0.4-0.2c0.1-0.2,0.1-0.2,0-0.3
	c-0.2-0.1-0.5-0.1-0.4,0.1c0,0.1,0.1,0.2,0.1,0.3c0,0.2-0.1,0.2-0.9,0c-0.5-0.1-1.3-0.1-1.2,0.1c0,0-0.3,0.4-0.6,0.7
	c-0.5,0.5-0.6,0.6-0.5,0.7c0.2,0.1,0.1,0.1-0.3,0.1c-0.3,0-0.5,0.1-0.6,0.3c-0.1,0.1-0.3,0.3-0.4,0.3c-0.2,0-0.6,0.3-2.1,1.4
	c-1.1,0.8-1.8,1.2-2.6,2.1c-0.2,0.2-0.4,0.3-0.5,0.3s-0.2,0-0.1,0.1c0.1,0.3-3.6,3.6-3.6,3.7c-0.1,0.1-0.3,0.2-0.4,0.2
	c-0.1,0-0.1,0-0.1,0.1c0,0.3,0,0.3-0.2,0.1c-0.2-0.2-0.2-0.2,0-0.4c0.1-0.1,0.3-0.1,0.4-0.1s0.2-0.1,0.2-0.2
	c0.1-0.4,0.4-0.6,0.8-0.7c0.3-0.1,0.9-0.7,0.7-0.8c-0.1-0.1-1.1,0.6-1.1,0.7s-0.1,0.1-0.3,0.2c-0.2,0-0.3,0.2-0.3,0.4
	c0,0.2,0,0.3-0.1,0.1c-0.1-0.1-0.1-0.1-0.2,0c0,0.1-0.2,0.1-0.3,0.1s-0.4,0.2-0.5,0.4c-0.3,0.5-0.4,0.5-0.1,0.4c0.1,0,0.2,0,0.2,0.1
	c0,0.3-0.4,0.4-0.6,0.1c-0.1-0.1-0.2-0.2-0.4-0.2c-0.1,0.1-0.1,0.1,0,0.1c0.3,0,0.2,0.5-0.2,0.9c-0.2,0.2-0.4,0.3-0.6,0.2
	c-0.1,0-0.2,0-0.2,0.1c0,0.1,0.1,0.1,0.1,0.1c0.2,0,0,0.4-0.1,0.3c-0.1,0-0.1,0-0.1,0.1s-0.1,0.2-0.2,0.2c-0.1,0-0.2,0.1-0.2,0.1
	c0,0.1-0.1,0.2-0.3,0.3c-0.2,0.1-0.3,0.2-0.4,0.4c0,0.1-0.3,0.3-0.5,0.3c-0.4,0.1-0.5,0.1-0.4,0.3c0,0.2,0,0.3-0.1,0.3
	c-0.1,0-0.3,0.1-0.4,0.3s-0.3,0.2-0.3,0.2c0-0.1-0.4,0.1-0.3,0.4c0.1,0.2-0.5,0.9-0.7,0.9c-0.1,0-0.1,0.1-0.1,0.1
	c0,0.1-0.2,0.3-0.4,0.6c-0.3,0.3-0.5,0.4-0.5,0.3s0.1-0.3,0.3-0.4l0.3-0.3c-0.3,0.1-0.7,0.2-1,0.2c-0.2,0-0.3,0.1-0.4,0.4
	c-0.1,0.3-0.1,0.4-0.4,0.3c-0.2-0.1-0.3,0-0.2,0.1c0.1,0.2-0.1,0.2-0.2,0c0-0.1-0.1-0.1-0.1,0c0,0.1,0.1,0.2,0.3,0.4
	c0.3,0.2,0.3,0.2-0.2,0.2c-0.3,0-0.5,0.1-0.5,0.1c0,0.1,0,0.1-0.1,0.1c-0.1-0.1-1.3,1.2-1.3,1.4s-0.3,0.3-0.6,0.1
	c-0.3-0.2-0.3,0.1-0.1,0.2c0.1,0,0.1,0.2,0,0.3c-0.1,0.3-0.3,0.2-0.3-0.2c0-0.4-0.2-0.3-0.3,0.1c0,0.2-0.2,0.3-0.4,0.4
	c-0.3,0-0.2,0.1,0.2,0.5c0.2,0.2,0.4,0.4,0.3,0.4c-0.1,0-0.3-0.1-0.4-0.2c-0.3-0.3-1-0.3-1.2-0.1c-0.1,0.1-0.3,0.2-0.4,0.2
	c-0.1,0-0.2,0.1-0.2,0.2c0,0.3-0.4,0.6-0.6,0.6c-0.1,0-0.2-0.1-0.1-0.3c0.1-0.5-0.2-0.4-0.9,0.2c-0.7,0.6-0.7,0.7-0.3,0.5
	c0.4-0.2,0.7-0.2,0.7-0.1s-0.1,0.1-0.1,0.1c-0.1,0-0.2,0.2-0.3,0.4l-0.2,0.4l-0.2,0.2c-0.1,0.2-0.3,0.3-0.4,0.3
	c-0.3,0-1.1,0.7-1.2,1.1c0,0.2-0.2,0.3-0.3,0.3c-0.2,0-0.2,0,0-0.1c0.2-0.1,0.2-0.1,0-0.1c-0.1,0-0.2,0.1-0.2,0.1
	c0,0.1-0.3,0.3-0.9,0.6C-188.7,474.5-188.8,474.6-188.8,474.8C-188.4,474.6-188.6,474.7-188.8,474.8"/>
<path class="st0" d="M-151.2,319.3c0-0.2-0.3-0.2-0.3,0C-151.4,319.5-151.2,319.5-151.2,319.3 M-196.6,355.6c-0.1,0-0.1,0.1-0.1,0.1
	c0,0.1,0.1,0.1,0.1,0.1l0.1-0.1C-196.5,355.6-196.5,355.6-196.6,355.6 M-193.2,348.5c0,0.2,0.3-0.2,0.3-0.4
	C-192.9,348-193.2,348.4-193.2,348.5 M-39.6,315.8c-0.6-0.3-1.1-0.1-0.7,0.2c0.2,0.2,0.9,0.2,0.9,0C-39.3,316-39.4,315.9-39.6,315.8
	 M-181.4,329.2c0-0.1-1.2,0.9-1.1,0.9C-182.4,330.2-181.4,329.3-181.4,329.2 M-84.6,448.3C-84.3,448.4-84.2,448.2-84.6,448.3
	C-84.6,448.2-84.7,448.3-84.6,448.3 M-72.8,311.1c-0.4,0-0.1,0.2,0.2,0.1C-72.5,311.1-72.6,311.1-72.8,311.1 M-191.2,342.4l-0.1-0.1
	c-0.2,0-0.2,0.3,0,0.2L-191.2,342.4 M-38.2,315.4c-0.4-0.3-0.5-0.3-0.4-0.1c0.1,0.2,0.4,0.4,0.5,0.3
	C-38.1,315.6-38.2,315.5-38.2,315.4 M-59,312.4c-0.3,0-0.1,0.3,0.1,0.2C-58.7,312.4-58.7,312.4-59,312.4 M-66.1,311.4
	c-0.1,0-0.1,0.1-0.2,0.2c0,0.1,0,0.2,0.1,0.1C-65.9,311.7-65.9,311.4-66.1,311.4 M-50.6,316c-0.3-0.2-0.4-0.2-0.5,0
	c-0.1,0.2,0.2,0.3,0.6,0.2C-50.2,316.2-50.3,316.2-50.6,316 M-57.2,314.1c0.1,0,0.1-0.1,0.1-0.1l-0.1-0.1
	C-57.4,313.9-57.4,314.2-57.2,314.1 M-67.3,312.2c-0.4,0,0.1,0.2,0.2,0.1C-67.1,312.3-67.2,312.2-67.3,312.2 M-51.4,314.1
	c0,0-0.2-0.2-0.5-0.3c-0.4-0.2-0.6-0.3-0.8-0.3v0.3c0,0,0.1,0,0.1,0.1C-52.5,314-51.4,314.2-51.4,314.1 M-51.4,315.6h-0.2
	c-0.1,0-0.2,0.1-0.2,0.2c0,0.2,0,0.2,0.2,0L-51.4,315.6 M-49.3,314.6c-0.1,0-0.2,0.1-0.1,0.1c0,0.1,0.1,0.1,0.2,0.1s0.1-0.1,0.1-0.1
	C-49.1,314.6-49.2,314.6-49.3,314.6 M-66.1,313.2c0.2,0.2,0.3,0.2,0.2,0V313c0.1,0,0.1,0,0.1,0.1s0.2,0.1,0.5,0.1s0.6,0,0.7,0.1
	c0.1,0.1,0.3,0.1,0.5,0.1s0.3,0,0.3,0.1c0,0.2,0.5,0.3,0.8,0.1c0.2-0.1,0.2-0.2,0.1-0.3c-0.1-0.1-0.5-0.2-0.9-0.2
	c-1.4-0.1-1.9-0.2-2.2-0.3S-66.4,312.9-66.1,313.2 M-61.9,313.4c-0.4,0-0.5,0.1-0.1,0.4c0.4,0.4,0.8,0.6,0.9,0.4
	c0-0.1,0.2-0.1,0.5-0.1c0.5,0,0.6-0.2,0.1-0.3c-0.5-0.2-0.5-0.2-0.3-0.4c0.1-0.1,0.2-0.3,0.1-0.3c-0.2-0.2-0.5-0.1-0.7,0.1
	C-61.5,313.3-61.7,313.4-61.9,313.4 M-111.3,310c-0.2-0.2-0.4-0.2-0.3-0.1c0,0.1,0,0.2-0.2,0.2c-0.3,0.1,0.6,0.1,0.6,0L-111.3,310
	 M-142.6,315c0.1,0,0.3-0.1,0.4-0.1c0.1-0.1,0.1-0.1-0.2,0C-142.8,314.9-142.9,315-142.6,315 M-136.2,315.1
	C-136.3,315.1-136.4,315.2-136.2,315.1C-136.1,315.3-135.9,315.1-136.2,315.1 M-136.5,314.1c-0.5,0,0,0.1,0.2,0.1
	C-136.1,314.1-136.2,314.1-136.5,314.1 M-134.8,313.9c-0.8,0.2-1.1,0-0.8,0.3c0.2,0.2,0.2,0.2,0.5,0
	C-135,314.1-134.8,314-134.8,313.9C-134.6,313.8-134.6,313.8-134.8,313.9 M-139.9,314.7c-0.3,0-0.5,0.1-0.4,0.2c0,0.1,0.3,0.1,0.5,0
	c0.2-0.1,0.6-0.1,0.7-0.1c0.5,0,0.5,0,0.5-0.2c0-0.1-0.1-0.1-0.4-0.1C-139.3,314.6-139.7,314.6-139.9,314.7 M-121.6,314.2
	c0-0.1-0.1-0.1-0.1-0.1c-0.1,0-0.1,0.1-0.1,0.1c0,0.1,0.1,0.1,0.1,0.1C-121.6,314.3-121.6,314.3-121.6,314.2 M-70.7,452.5
	c0,0.2,0.3,0.2,0.3,0S-70.7,452.4-70.7,452.5 M-137.7,314.3c-0.3,0.1-0.6,0.1-0.7,0.1c-0.1,0.1,0.4,0.2,0.6,0.1
	c0.1-0.1,0.3-0.1,0.5-0.1c0.1,0,0.2,0,0.2-0.1C-137,314.2-137.2,314.2-137.7,314.3 M-134.5,315c0.2-0.1,0.1-0.1-0.2-0.1
	c-0.2,0-0.4,0.1-0.4,0.1C-135.1,315.2-134.8,315.1-134.5,315 M-77.2,452.9l-0.1-0.1c-0.1,0-0.1,0-0.1,0.1
	C-77.4,453-77.3,453-77.2,452.9C-77.3,452.9-77.2,452.9-77.2,452.9 M-144.1,315.6C-143.9,315.7-143.7,315.5-144.1,315.6
	C-144.2,315.5-144.2,315.5-144.1,315.6 M-77.6,310.7c0,0,0.1,0.1,0.3,0.1c0.4,0,0.4,0,0.1,0.1c-0.3,0.1-0.3,0.1-0.1,0.1
	c0.1,0,0.3,0,0.4-0.1c0.2-0.2,1.2,0,1.1,0.1s0.2,0.2,0.2,0c0-0.1,0.1-0.1,0.3-0.1c0.1,0.1,0.5,0.1,0.9,0.1c0.3,0,0.6,0.1,0.5,0.1
	c-0.1,0.2,0.1,0.1,0.3-0.1c0.2-0.2,0-0.2-1.9-0.4C-76.2,310.6-77.5,310.6-77.6,310.7 M-128,312.9c-0.4,0-0.1,0.2,0.2,0.1
	C-127.8,312.9-127.8,312.9-128,312.9 M-125.8,313C-125.6,313.1-125.4,312.9-125.8,313C-125.9,312.9-125.9,312.9-125.8,313
	 M-133,315.8c0,0.2,0.1,0.2,0.5,0c0.2-0.1,0.2-0.1-0.1-0.1C-132.8,315.6-133,315.7-133,315.8 M-127,312.8c-0.2,0-0.3,0-0.4,0.1
	c-0.1,0.2,0.1,0.4,0.2,0.2C-127.2,313-127.1,312.9-127,312.8C-126.8,312.8-126.8,312.8-127,312.8 M-132.2,313.5c0,0.1,0.3,0.1,0.5,0
	C-131.6,313.4-132.2,313.4-132.2,313.5 M-127.2,313.9c0-0.1-0.1-0.1-0.3-0.1c-0.2,0-0.4,0.1-0.4,0.1
	C-127.9,314.1-127.3,314.1-127.2,313.9 M-133,313.5c-0.6,0-1.3,0.2-1,0.3c0.3,0,0.4,0,0.9-0.1C-132.5,313.6-132.5,313.5-133,313.5
	 M-131.2,313.3c-0.5,0,0,0.1,0.2,0.1C-130.9,313.3-131,313.3-131.2,313.3 M-130.2,313.3c0-0.1-0.1-0.1-0.1-0.1
	c-0.1,0-0.1,0.1-0.1,0.1H-130.2L-130.2,313.3 M-141.5,315.2c0.9-0.2,1.2-0.4,0.4-0.3c-1,0.1-2.5,0.5-2.6,0.6
	C-143.7,315.6-142.8,315.5-141.5,315.2 M-114.8,310.1c0.1,0.1,1.2,0.1,1.2,0C-113.4,310-114.8,310-114.8,310.1 M-115.7,310.1
	c-0.2,0-0.3,0-0.2,0.1c0.1,0.1,0.1,0.1,0,0.2c-0.2,0.1,0.6,0.1,0.5,0c0-0.1,0-0.1,0.1-0.1s0.2-0.1,0.3-0.2c0.1-0.1,0-0.1-0.1-0.1
	C-115.2,310.1-115.5,310.1-115.7,310.1 M-112.9,310.2c0.5,0.1,0.6,0.1,0.6-0.1c0-0.1-0.1-0.2-0.3-0.2
	C-112.8,309.9-113.1,310.1-112.9,310.2 M-123.7,310.9c0,0.1-0.1,0.2-0.2,0.2c-0.3,0.1-0.2,0.2,0.3,0.1c0.1,0,0.5,0,0.7-0.1
	c0.4,0,0.7-0.3,0.4-0.3c-0.1,0,0-0.1,0.2-0.1c0.3-0.1,0.3-0.1,0.1-0.1C-122.7,310.6-123.8,310.8-123.7,310.9 M-117.5,310.7
	c0.4,0.1,1.1,0,1.1-0.1c0,0-0.2-0.1-0.6,0c-0.4,0-0.5,0-0.4-0.1s0.2-0.1,0-0.1c-0.1,0-0.3,0.1-0.4,0.2L-117.5,310.7 M-108.5,310.5
	c-0.2,0-0.2,0.3,0,0.3S-108.3,310.5-108.5,310.5 M-69,310.4c0-0.1,0-0.1-0.1-0.1s-0.2,0.1-0.2,0.1c0,0.1,0.1,0.1,0.1,0.1
	S-69.1,310.5-69,310.4 M-135.5,315.1c0-0.2-0.3-0.2-0.3,0C-135.7,315.3-135.5,315.3-135.5,315.1 M-131.8,315.7
	C-131.6,315.8-131.4,315.6-131.8,315.7C-131.9,315.6-131.9,315.7-131.8,315.7 M-110.8,309.9c0.1,0,0.2,0,0.2,0.1s0,0.1,0.1,0
	s0.3-0.2,0.5-0.2c0.3,0,0.2-0.1-0.2-0.1C-110.5,309.7-110.8,309.7-110.8,309.9C-111,309.9-110.9,310-110.8,309.9 M-124.7,311.3
	C-124.7,311.4-124.6,311.4-124.7,311.3c0.2,0.1,0.3,0,0.3,0C-124.3,311.1-124.7,311.1-124.7,311.3 M-108.9,312.2
	c-0.1-0.1-0.2,0-0.3,0.1c-0.1,0.1-0.1,0.1,0.1,0.1C-108.7,312.4-108.7,312.3-108.9,312.2 M-131.5,311.7c-0.4,0,0.1,0.2,0.2,0.1
	C-131.3,311.7-131.3,311.7-131.5,311.7 M-133,312.2c-0.5,0-0.5,0.3-0.1,0.2C-132.5,312.3-132.5,312.2-133,312.2 M-115.9,311.9
	c0.2,0.1,0.6-0.1,0.2-0.1C-115.9,311.9-116,311.9-115.9,311.9 M-122.2,312.3c0,0.1,0.1,0.1,0.3,0.1
	C-121.1,312.2-122,312.1-122.2,312.3 M-124.5,314.6c0,0.1,0.1,0.1,0.2,0.1s0.1-0.1,0.1-0.1c0-0.1-0.1-0.1-0.2-0.1
	S-124.6,314.5-124.5,314.6 M-115.9,311.7C-115.6,311.8-115.4,311.6-115.9,311.7C-115.9,311.6-116,311.6-115.9,311.7 M-108.4,311.3
	c0.1-0.2-0.3-0.2-0.4,0C-108.9,311.5-108.5,311.5-108.4,311.3"/>
</svg>
