<svg fill="#457069" xmlns="http://www.w3.org/2000/svg" xmlns:xlink="http://www.w3.org/1999/xlink" xml:space="preserve" id="Layer_1" x="0" y="0" version="1.1" viewBox="0 0 204.3 186.4">
  <path d="M126.8.5c.3.1.5 0 .3-.1-.1 0-.2-.1-.4 0s-.2.1.1.1M146.9 8c.4-.2 0 0-.5-.1-.2 0-.2 0 0 .1s.4.1.5 0M147.4 7.7c.2.1.3.1.4.1.2 0 .1-.2-.2-.3-.4-.1-.5 0-.2.2M146.9 7.5c.1 0 .1-.1.1-.1h-.4c-.3 0-.3 0-.1.1.1 0 .3.1.4 0M127.6.5c.1.1.4.1.6.1.4 0 .5-.1.2-.2-1 0-1 0-.8.1M156.2 6.5c.1.1.3 0 .4-.1.1-.1.2-.1.1 0-.1.2.2.3.2.2 0-.1.2-.1.5 0 .9.2 1.6.3 1.6.3s0-.1-.1-.1-.2-.1-.1-.2c0-.1-.2-.2-.9-.3-.5 0-1.1-.1-1.3 0-.3 0-.4 0-.4-.1s0-.1-.1 0c0 .1 0 .2.1.3M143.2 8.4c.4-.2.4-.2.1-.3-.2 0-.4 0-.5.2-.3.3-.1.4.4.1M153.3 6.7c-.3 0-.6 0-.6.1s.1.1.1.1h.3c.1 0 .2 0 .2-.1.1-.1 0-.1 0-.1M131.7.8c.2.1.6-.2.1-.1-.1 0-.2 0-.1.1M139.6 1.4c.1.1.9.1.9 0 0 0-.1-.1-.2-.1-.4-.1-.8 0-.7.1M130.6.7c.4 0 .5-.1.1-.1-.1 0-.3 0-.4-.1-.2 0-.1.2.3.2M140.6 1.4c0 .1.4.2.4 0 0-.1-.4 0-.4 0M152.2 6.5c-.2 0-.2 0 0 0 .2.3.3.1 0 0M137.5 1.2c.6.1.7.1.7-.1 0-.1-.1-.1-.2-.1-.1.1-.2.1-.3 0-.1 0-.3-.1-.5-.1-.6 0-.3.2.3.3M89.8 5c0-.1-.1-.2-.3-.2-.1 0-.3.1-.2.1 0 0 .1.1.3.2.1.1.2.1.2-.1M6.9 108.3c.1 0 .2-.1.2-.1s-.1-.1-.2-.1c-.3 0-.2.2 0 .2M7.5 109.8c.2 0 .1-.3 0-.3-.2.1-.2.3 0 .3M8.1 111.8c.1-.2-.3-.1-.4.1-.1.1-.1.3-.1.6s0 .4.4.7l.1.1c0-.1-.1-.1-.1-.2v-.2c-.2-.2-.2-.3 0-.5s.2-.2 0-.3c-.1-.1-.1-.1 0-.1 0-.1.1-.1.1-.2M6.2 104.8c.1 0 .1 0 0-.2 0-.3-.1.1 0 .2M6.4 103.2c.2.5.3.5.2 0 0-.3-.1-.4-.2-.4s-.1.2 0 .4M7.8 115.1c0-.2-.1-.2-.1-.1-.1.1.1.5.1.1M8.4 112.7c.1-.1 0-.1 0 0-.1-.1-.1 0 0 0M8.7 114c0 .1.1.2.2.2.2 0 .2-.1-.1-.5-.2.1-.4.1-.6-.3-.1 0-.3 0-.4.2-.1.2 0 .3.5.7-.2-.6-.3-.7 0-.6.2 0 .4.2.4.3M4.7 92c.2 0-.1-1.5-.1-1.4-.2.1 0 1.4.1 1.4M4.5 90c-.1.2.2.6.1.1 0-.2 0-.2-.1-.1M4.6 93.4c.2 0 0-.5 0-.5s-.1.6 0 .5M5.1 92.4c.2.1.4-.1.2-.3-.2-.2-.3-.5-.1-.4.3.1-.3-1.1-.1-1.5.2-.1.1-.2 0-.2s-.2 0-.2.2v.5c-.1.7.1 1.6.2 1.7M6.1 100.7c.1.1.2.1.2.1v-.2c0-.1-.1-.2-.2-.1-.2.1-.2.1 0 .2M22 144.3c0-.1-.6-.4-.7-.4l.3.3c.3.2.4.2.4.1M5.8 101.7c.1-.1.1-.4 0-.3 0 0-.1.1-.1.2s0 .1.1.1M5.6 94.8c.1 0 .1 0 0-.2-.1-.3-.1.1 0 .2M120.4 7.6c0 .1.2.2.4.1.4-.1.4-.3.1-.3-.4-.1-.6 0-.5.2M155.8 143.3c-.1.2.1.3.2.1.2-.2-.1-.3-.2-.1M95.8 154.3c-.1 0-.2 0-.3.2-.1.2-.1.2.1.2.3-.1.4-.3.2-.4M131.6 8.1c.1-.1.1-.1.1-.2h-.1c-.2 0-.2.3 0 .2M129.7 150c-.2 0-.1.3 0 .3.2-.1.1-.4 0-.3M114.4 8.1c.2-.1.2-.2.1-.2-.2 0-.3.3-.1.2M6.1 123.1c0-.2 0-.2 0 0-.1.1.1.3 0 0m4.3 7.9c-.1.2-.2.2-.3 0-.1-.1-.3-.2-.5-.1-.3 0-.5-.1-.9-.5-.3-.3-.5-.6-.6-.8 0-.1-.2-.4-.3-.6-.4-.5-.6-1.1-.5-1.2.1-.1 0-.4-.1-.7-.1-.3-.3-.9-.4-1.3-.1-.4-.2-.7-.3-.6-.1.1-.1-.1-.1-.6s-.1-.8-.3-1.1c-.3-.4-.8-2.4-.6-2.3.3.1-.2-.9-.3-1.6 0-.2-.1-.3-.2-.2-.1.1-.1 0-.1-.4 0-.3-.1-.6-.2-.7-.1-.1-.1-.2-.1-.4.1-.3.1-.8-.1-.8s-.5-1.4-.4-1.6c.1-.1.1-.1 0-.1s-.2-.1-.2-.3c0-.2 0-.3.1-.3s.1-.1 0-.2c-.2-.2-.3-.4-.1-.3.2.1.1-.2-.1-.3-.1 0-.3-.9-.5-2-.3-1.6-.3-1.9-.2-1.9.2.1.2.1 0-.1-.1-.1-.3-.6-.4-1-.2-.7-.2-.9 0-.8.2.1.2 0 0-.1s-.5-1.7-.3-1.6c.1 0 .1-.1.2-.4.1-.5-.2-1.2-.4-1.2-.1 0-.1-.1.1-.2.2-.2.2-.3.1-.6-.2-.6-.2-2.5 0-2.5s0-.6-.2-.8c-.1-.1-.1-.2-.1-.2 0-.1 0-.2-.1-.2-.1-.1-.2-.4-.2-.9s-.1-.8-.2-.7c-.1.1-.2-.2-.1-.4s0-1.3-.2-1.5c-.1-.1-.1-.1 0-.1s.1-.1.1-.4c-.1-.8-.2-1.5-.2-2 .5 0 .8.2.7-.2 0-.4.3-.5.6-.7 0 .5.1 1 .1 1.5.1 1.1.1 1.8.3 3.4.1.5.1 1.4.2 1.9.2 2.5 1 8.2 1.7 11.3.8 3.8.2 2 1.5 6.7.5 2 1.9 6.2 3.6 10.7.6 1.6.7 1.8.5 2M24.8 146.4c.1 0 .1 0 .1-.1 0 0-.1-.1-.2-.1s-.1 0-.1.1c.1.1.2.1.2.1M117.9 7.8c.1 0 .2.2.2.3 0 .1 0 .1.1-.1s.2-.2.8-.2c.5 0 .8-.1.8-.2.1-.1 0-.1-.2-.1-1.5.1-1.9.2-1.7.3M27.9 147.9c.3.3.3.1 0-.2-.2-.2-.2-.2-.3 0v.1c.1-.1.2 0 .3.1M26.1 146.9c0-.1-.1-.1-.2-.1-.1.1-.1.1.2.2.3.1.3.1.3 0s-.1-.1-.1-.1h-.2M29.5 148.4c0-.1-.6-.3-.6-.2s.6.3.6.2M113.4 150.3h-.1c-.2 0-.1.3 0 .2.1-.1.1-.1.1-.2M36.4 153.2c0-.2-.4.2-.3.4-.1.1.3-.3.3-.4M29.8 175.6c-.1-.3-.2.1 0 .2 0 0 .1 0 0-.2M37.1 154.2c.2.1.3 0 0-.1-.1-.1-.3 0 0 .1M78.4 8.5c-.3.1.1.2.2 0 0 0 0-.1-.2 0M94.3 3.5c.1 0 0-.1-.2 0-.5.1 0 .1.2 0M92.3 4c.1 0 0-.1-.2 0-.4 0 0 .1.2 0M91.3 3.6c-.1.1-.1.1-.1.2h.1c.2-.1.1-.4 0-.2M89.3 4.6c-.4.1 0 .2.2 0h-.2M107.2 1.3c.2 0 .5 0 .7-.1.3-.2.3-.2-.4-.1-.6.1-.6.1-.3.2M102.6 2.1c-.1 0-.3.1-.4.3-.1.2-.1.2.2.1.4-.1.6-.4.2-.4M94.9 3.7c.3 0 .7-.2.1-.1-.2 0-.2.1-.1.1M87.7 4.6c.1 0 0-.1-.2 0-.5 0 0 .1.2 0M106.6 151.6c.1.1.2 0 .3 0 .1-.1.1-.2-.1-.2-.3-.1-.4.1-.2.2M109.2 1c.2.1.9-.1.9-.2.1 0-1.1.1-.9.2M110.4.9c.3.2 3.7-.3 2.1-.3-1.1 0-2.2.2-2.1.3" class="st0"/>
  <path d="M98.6 3.3c.8-.2.7-.3-.1-.2-1 .1-.7.3.1.2m1.3-.5c-.2 0-.4.1-.4.2s.2.1.5.1c.2 0 .4-.1.4-.2s-.2-.1-.5-.1m-2.7.3c.2-.1-.7 0-.4.1.1-.1.3-.1.4-.1m.9-.2c.1-.1-.5 0-.2 0 .1.1.2 0 .2 0m1.2.4c-3.2.5-4.5.7-4.6.8 0 .1-.2.1-.4.1-.3-.1-.6 0-1.6.4-.6.2-.7.2-1.1.2-.1 0-.4 0-.6.2-.2.1-.5.2-.5.2h-.4c-.1 0-.2 0-.2-.1s.2-.2.4-.2.4-.1.4-.2.2-.1.6-.2c.4 0 .6-.1.6-.2s.2-.2.3-.2c.2 0 .2 0 0 .1-.1.1-.1.1.1.1s.3-.1.2-.2c-.1-.2.1-.2.2 0 0 .1.4 0 .8-.1.6 0 .7-.1.5-.1-.2 0-.2-.1.1-.1.2 0 .3 0 .3.1-.1.2 1.3 0 1.2-.2v-.3c.1-.2.1-.2.2 0 .1.1.1.2.1.3-.1.2.9 0 1.1-.2.1-.1.1-.1-.2-.1-.3.1-.4 0-.4-.1.1-.3.8-.4 1.1-.2.2.1.2.1.1 0s0-.2.4-.2c.3 0 .4 0 .4.1s.1.1.2.1c.2 0 .3-.1.1-.1-.1-.1.1-.1.8-.2 1.2-.2.9-.1-.1.2l.8-.1c.5-.1.7-.1.7-.2-.1-.1 0-.1.1-.2.1 0 .2 0 .2.1s0 .1.1.2c.1 0 0 .1-.3.2-.4.2-.3.2.5.1 1.4-.2 2.4-.2 2.4-.2-.1-.2-2.1.1-4.6.4M108.2 151.4c-.1 0-.1 0-.1-.1s-.1-.1-.2 0c-.2.1-.2.1 0 .2.1 0 .2 0 .3-.1.1 0 .1 0 0 0M110.1 150.9c0 .1.1.2.2.2.2.1.2 0 0-.2-.2-.1-.2-.1-.2 0M108.7 151.1c-.2.1-.2.1 0 .3.1.1.3.1.3 0 .2-.1.2-.5 0-.4 0 0-.2 0-.3.1M104.7 1.5s.3 0 .6-.1l.6-.1h-.6c-.5 0-.8 0-.6.2M65.2 13c0-.1-.4-.2-.4 0s.4.1.4 0M68.1 12.1c-.2 0-.3.1-.3.2-.1.2.1.1.4-.1.2-.1.2-.1-.1-.1M69.2 11.7c-.4.1 0 .2.2 0 .1 0 0-.1-.2 0M111.9 150.7c-.1-.2-.3-.1-.3.1 0 .1.1.2.2.2s.2 0 .2-.1 0-.1-.1-.2M77.5 8.8c-1.1.3-3 1-5.8 2.2-1.2.5-.5.4.5 0 1.3-.6 8-3 5.3-2.2M1 80.7c-.1-.4-.2 0 0 .2v-.2M64.1 13.4c-.3.1.1.2.2 0h-.2M70.1 11.6c-.4.1-2.5.9-2.6 1.1-.2.2.5.1 1.6-.5 1.1-.5 1.4-.6 1-.6M97.5 2.4c.1.1.3 0 .5-.1.4-.2.4-.2-.1-.1-.4.1-.5.1-.4.2M88 5.7c.3-.1.8-.2 1-.2.5-.1.5-.3.1-.4-.2-.1-.3-.2-.2-.2.1-.2-.4-.1-.7.1h.2c.4 0 .4 0-.1.1s-1 .4-.9.5c0 .2.2.2.6.1M104.1 1.4c.3.1.4-.1 0 0 0 0-.1 0 0 0M84.3 6.5c-.7.1-5.1 1.7-4.6 1.6.2 0 1.2-.3 3.8-1.1 1.1-.4 1.5-.6.8-.5M113.6.6c1 0 1.2-.2 3.4-.1.5 0 2.7-.2 2.7-.2s-.1-.1-.2-.1c-.3-.1-1.3 0-4.5.2-1.5.1-2.1.2-1.4.2M86.5 6c0-.1-.2-.1-.5 0-.4 0-.4.1-.3.2.3 0 .8 0 .8-.2M69 11.2h-.1c-.2 0-.1.3 0 .2.1-.1.1-.2.1-.2M200.6 52.3c0 .1.1.1 0 0 .1 0 .2 0 .4.1s.2.1.2-.1c-.1-.3-.6-.2-.6 0M53 21.7c.3-.1.3-.2 0-.2-.2 0-.3.3 0 .2M194.8 77c-.1 0-.1.2-.1.4 0 .3.1.3.2.1.1-.3.1-.6-.1-.5M201.7 53.2c0 .5.3 1.3.1.3 0-.3-.1-.5-.1-.3M201.3 51.5c0 .3.1.5.2.5.1-.1.1-.1-.1-.6-.2-.4-.2-.4-.1.1M201.1 50c0 .5.2 1.2.1.3-.1-.4-.1-.5-.1-.3M204.1 78c.1.2.1-1.1 0-1.7l-.1-.7v.7c-.1.6 0 1.5.1 1.7M204.1 78.7c.1.2.1.2.1-.1 0-.2-.1-.3-.2-.3s-.1.1.1.4M200.4 49.8c-.1.2-.1.3 0 .4.1.1.1.2 0 .2-.2 0-.1.4.1.4.1 0 .1.1 0 .2s-.1.2-.1.2c.1.1.5-.4.4-.5 0-.1-.1-.1-.1-.2-.1 0-.1-.3-.2-.6 0-.4 0-.4-.1-.1M203.6 75.6c.1.1.1.1.2.1 0 0 .1-.1 0-.1 0-.1-.1-.1-.2-.1-.1-.1-.1 0 0 .1M202.5 58.2c0 .3.2.4 0 0 .1-.1 0-.1 0 0M201.3 56.5c-.1 0-.1.1-.1.3.1.4.3.5.3.2.1-.4.3-.1.3.5 0 .7.1.9.3 2.1.1.6.2 1 .1 1s-.1.1-.1.2c.2.8.1 1.1-.1 1.2-.2 0-.2.1 0 .2s.3.3.4.8c.2.7.1 1-.3 1-.2 0-.2 0 0 .1.3.2.4.5.2.7-.1.1-.1.1 0 .2.3.1.5 1.2.3 1.6-.1.2-.1.4.1.7.1.2.2.7.2 1.1.1 1.9.8 7.2.9 6.5 0-.2 0-.5-.1-.7-.1-.2-.1-.3 0-.2.1 0 .1-.1 0-.3-.1-.2-.1-.5 0-.6.1-.2 0-.3-.1-.4-.1-.1-.1-.1 0-.1s.1-.2.1-.4-.1-.6-.1-.9c0-.8-.2-2.3-.3-2.4-.1-.1-.1-.2 0-.2s.1-.2.1-.4-.1-.3-.1-.1c-.1.2-.1.2-.1 0 0-.1 0-.3.1-.3.1-.1-.1-1.4-.8-6-.5-3.2-.9-5.8-1-5.7.2.1 0 .3-.2.3M92.3 153.1c.1 0 .1-.1.2-.2 0-.1 0-.1-.1-.1s-.2.1-.2.2c-.1.1 0 .1.1.1M192.3 28c0 .1.1.2.2.2.2.1.2 0 0-.2-.2-.1-.3-.1-.2 0M90.7 153.1h-.1c-.2 0-.1.3 0 .2.1-.1.1-.1.1-.2" class="st0"/>
  <path d="M193.4 41c-.1 0-.1.1 0 .1.1.1.1.1.2.1 0 0 .1-.1 0-.1s-.1-.1-.2-.1m-.9 1.1c.2.6.4.9.6.7.2-.3.1-.9-.2-1.1-.4-.3-.6-.1-.4.4m2.7 7.6c-.1 0-.1.2 0 .5s.1.6.2.7c0 .2.1.2.1 0 .1-.4-.1-1.2-.3-1.2m-7-25.7c0 .2 1.2 1.3 2.2 2.4.4.4.9 1.1 1.3 1.5.6.7 2.2 2.9 2.9 4 .4.6.7 1.4 1.1 3.2.8 3.1 1.3 5.8 2.1 10.2 1.3 7.2.5 2.1 1.6 10.6 1 7.3 1.3 10.3 2.1 19.5.5 5.5.3 4.1.7 8.8.2 2.6.2 4 .4 6.5.1.9.1 1.8.1 2.1-.1.7-1.3 4.6-1.8 5.8l-.4 1c0 .1-1.7 4.3-2.1 5.1-2.7 5.4-2.1 4.8-1.9 1.6.1-1.5.3-1.3.8-7 .3-3.5.4-5.2.4-5.4 0-.1 0-.3.1-.4.1-.1.2-2.1.3-3.1 0-.2 0-.8.1-1.2.1-1.2.1-5.3.1-8 0-.3 0-.7.1-.7.2-.3.2-1.6.1-2.3v-.4c.1 0 .1-.2 0-.4s-.1-.5 0-.6c.1-.3.2-1.8.2-2.4 0-.8 0-1.9-.1-2.4-.1-.2 0-.6.1-.8.1-.2.1-.9.1-1.4v-1.5c.1-.8-.2-2.3-.2-3 0-1.9-.1-2.9-.2-3.8-.2-1.6 0-.9-.2-2.6-.1-.8-.1-1.2 0-1.3.1-.1.1-.1 0-.1s-.3-1-.6-2.8c-.8-4.7-.9-5-1.1-5-.3 0-.4-.2-.5-.5 0-.1.1-.1.3.1l.3.3-.2-.9c-.2-1-.6-1.8-.7-1.4 0 .3-.3.2-.3-.1 0-.3 0-.3.4-.2.2.1.3 0 .3-.2 0-.1 0-.2-.1-.2s-.1 0-.2-.1c-.2-.3-.2-.4 0-.5.1 0 .1-.1.1-.3l-.2-.2c-.1.1-.1 0-.1 0 0-.1 0-.2.1-.2s.1-.1-.1-.2c-.1-.1-.3-.5-.5-.8-.3-.9-.3-1 0-.6l.2.4c-.3-.9-.4-1.1-.5-1-.1.1-.1 0-.1-.1s-.1-.2-.2-.2-.2-.1-.2-.3c-.1-.5-.3-.8-.4-.5 0 .1 0 .2.1.2s0 .2-.1.4c-.2.2-.3.4-.2.5.1.1 0 .1-.1.1-.3 0-.1.7.1.7.1 0 .2.2.3.7.1.4.2.8.3.9.1.1.1.4.2.7 0 .3.2.6.3.8.1.2.3.5.3.9.2 1.2.3 1.4.4 1.4.1 0 .1-.1.1-.2 0-.2 0-.2.1-.1.2.3.9 3.4.7 3.2-.1-.1-.2-.4-.2-.6 0-.3-.1-.4-.2-.4-.2.1-.1.6.3 2.4.2.9.2 1.8.5 4.6.4 3.3.2 2.9-.4-.7-.3-2-.5-3.4-.5-3.3 0 .3-.2.4-.4.2-.1-.1-.1-.2 0-.3.1-.1.1-.2.1-.3v-.1c.2.2.3-.2.2-.8-.1-.8-.4-1.1-.4-.4 0 .4 0 .4-.2.2-.2-.4-.2-.7 0-.8.2-.1.2-.2.2-.5 0-.2-.1-.4-.2-.4s-.1.1-.1.2 0 .1-.1 0c-.2-.2-.1-1 0-.9.1.3.3.1.3-.3 0-.3-.1-.4-.3-.5-.2-.1-.2-.2-.2-.2.1-.1.1-.3 0-.6-.3-.9-.7-2.1-.8-2.2 0-.1-.1-.4-.2-.6-.1-.3-.2-.7-.3-.9-.1-.2-.3-.7-.5-1.2-.1-.4-.4-.9-.5-1.1-.1-.2-.3-.7-.5-1.5-.4-1.7-1.4-5.6-1.6-5.8 0 0-.1-.4-.3-.7-.1-.3-.2-.7-.3-.7-.1-.1-.2-.3-.2-.6 0-.2-.1-.5-.2-.5s-.1-.2-.1-.4-.2-.6-.4-.9c-.2-.3-.4-.7-.4-.8-.1-.7-1.7-4-2.1-4.3-.1-.1-.2-.3-.2-.3 0-.1-.8-1.8-1.7-3.4.1-.7-.2-1-.5-.9-.3-.6-.7-1.2-.9-1.7-.5-.8-.8-1.5-.8-1.6 0-.1 0-.2-.1-.3-.1 0-.2-.2-.3-.3-.2-.2-.2-.2.2 0 .2.1.4.3.4.4 0 .1 0 .1.1.1.1-.1.3 0 .4.1.3.2.3.2.2.3-.2.1.1.4.4.3.2-.1 1.4.7 1.2.8-.1.1 0 .2.1.2.2.1.2.1.1 0-.3-.3.1-.2.5.2.3.3.3.3.1.3-.1 0-.2 0-.2.1 0 .2.5.5.6.4 0 0 .2 0 .3.1.2.2.2.2 0 .1-.4-.2-.3 0 .4.7.4.3.8.8.9 1 .1.2.4.4.6.5-.2.2 0 .3 0 .4M200 48.5c0 .2.1.2.1.1.1-.3.1-.4-.1-.4v.3M96.5 152.6c.1-.2-.6-.1-.6.1 0 .1.1.1.3.1.1-.1.3-.2.3-.2M194 30.2c.1 0 0-.1-.2-.3-.2-.1-.2-.1 0 .1l.2.2M200 44.7c0 .2.2.6.1.2-.1-.2-.1-.3-.1-.2M200.5 47.1c0 .1 0 .2.1.3.1.3 0-.5-.1-.3M199.6 45.1c0-.2-.1-.3-.1-.1-.1.1.1.5.1.1M202 54.8c0 .2.1.6.1.9.2.7-.1-1.4-.1-.9M143 148.9c-.2 0-.1.3 0 .3.2-.1.2-.3 0-.3M120.5 153.3c-.3-.1-.5.1-.3.2.1.1.6.1.6-.1-.1 0-.2 0-.3-.1M144.6 148.6c.1.2.2.1.2-.1s-.3 0-.2.1M126.5 151.7c-.4.1 0 .1.2 0 .1 0 0-.1-.2 0M121.2 153.3c.1.3.1.4.3.4.1 0 .2-.1.1-.2s0-.2.1-.2c.2-.1.2-.1 0-.2-.3-.4-.6-.2-.5.2M36.3 180.7c.2-.1.2-.4 0-.3-.2.1-.3.5 0 .3M122.1 152.9c0 .1.1.2.2.2.2 0 .2-.2.1-.3-.2-.1-.4-.1-.3.1M127.3 152.3c0 .2.2.2.3.2.3 0 .3-.1.3-.3 0-.3-.1-.3-.3-.2-.2 0-.3.1-.3.3M145.6 147.4v.4c0 .2-.1.4-.2.5-.1.1 0 .1.2.1s.3-.1.2-.2c-.1-.1 0-.1.1-.1.3 0 .2-.2-.1-.5l-.2-.2M137.4 150.9c.1-.1.1-.1.1-.2h-.1c-.2.1-.2.3 0 .2M182 129.3c.1.1-.3.5-1 1-1.1.8-1.5 1-1.3.8.1-.2 0-.2-.7.3-.4.2-.6.5-.6.6.1.1.2 0 .3-.1.1-.1.2-.2.3-.2.1 0-.2.3-.7.6-.4.3-1 .7-1.1.9-.3.3-.3.3 0 .2.4-.2 2.5-1.7 2.7-1.9.1-.2.8-.6 1.6-1.1.7-.4.8-.5 1.2-1 .3-.4.4-.5.1-.3-.2.1-.4.3-.5.2-.1 0 0-.1.2-.3.5-.4.5-.5-.1-.1-.3.1-.5.3-.4.4M173 135.9c-.2.2 0 .2.3 0 .2-.2 0-.2-.3 0m2-1.2c.4-.2.7-.4.7-.4.2 0 0 .2-.3.4-.2.1-.5.4-.7.5-.5.4-1.5 1.1-1.5 1.1s-.2.1-.4.3c-.5.4-.5.4-.6.2 0-.1.1-.2.2-.1.1 0 .2 0 .1-.1s-.1-.1 0-.1c.2.1.6-.1.5-.3-.1-.1.4-.5.5-.4.1 0 .3-.1.5-.2.4-.3 0-.4-.1-.2 0 .1-.2.2-.3.2-.4 0 1.1-1 .9-.5-.1-.1.1-.2.5-.4M159.4 6.9s.1 0 .1-.1-.1-.2-.3-.3c-.3-.1-.3-.1-.1.1.2.1.3.2.3.3M171.6 137.2c.2 0 .5-.3.3-.3-.1 0-.5.3-.3.3M179.8 132.2c.1-.1.1-.1 0 0-.4.1-.2.3 0 0M176.5 133.2c-.1.1-.1.1-.1.2h.1c.2 0 .1-.3 0-.2M140.1 148.2h-.1v.3c0 .1 0 .2.1.2s.2-.4 0-.5M168 139c-.1.2.2.3.4.1.2-.1.2-.2-.1-.2-.1 0-.3 0-.3.1M152.4 146.1c0 .1.1.1.2.1s.3-.1.3-.2c0-.2-.4-.1-.5.1M154.8 145.3c.1 0 .1 0 .1-.1 0 0-.1-.1-.2-.1-.1-.1-.1.2.1.2M156.8 143.8c-.1 0-.3.1-.3.2s0 .2.3.1c.4 0 .4-.4 0-.3M170.6 137.6c.1.1.1.1.2.1s0-.1 0-.1c0-.2-.3-.1-.2 0M176.6 15.3c.4.5.7.6.4.2-.1-.1-.1-.3-.1-.3.3-.1-1.3-1.1-.3.1M181.6 21.5c.1.3.2.3.2 0 0-.2-.3-.3-.2 0M177.3 15c0 .2.3.3.3.1 0-.1-.3-.2-.3-.1M99.7 152.1c0-.1-.1-.1-.3-.1l-.2.2c.2.2.5.1.5-.1M188.5 23.4c-.3-.2-.3-.2-.1 0 .1.1.2.3.1.3 0 0 0 .1.1 0 .2 0 .2 0-.1-.3M189.9 25.2c.4.4.5.4.1-.1-.2-.3-.4-.3-.1.1M181.6 17.6c0-.1-.1-.1-.2-.2-.1 0-.1-.1-.1-.2s0-.1-.1-.1-.2 0-.2-.1-.1-.2-.2-.3c-.2-.1-.2-.1 0 .2.2.4.8.9.8.7" class="st0"/>
  <path d="M186.6 21.9c.1 0 .2-.1.2-.1l-.2-.2c-.2-.1-.2-.1-.2.1s.1.3.2.2m.6.5c.2.4-.1.4-.5 0-.3-.3-.4-.5-.4-.7 0-.2-.1-.4-.2-.5-.1-.1-.2-.2-.2-.3.1-.1 3.3 3 1.7 1.7-.3-.2-.5-.3-.4-.2M181.3 20.9c.1.2.2.2.2 0-.1-.2-.4-.3-.2 0M178.4 17.5c-.1-.2-.2-.1-.1.1 0 .1.1.2.2.2s.1 0-.1-.3M178.2 15.6c0-.1 0-.1-.1-.1-.3 0-.6.1-.5.2.2.1.7.1.6-.1M194.6 74.1c0 .5.2 1.2.1.3-.1-.4-.1-.5-.1-.3M185.4 20.4c-.2-.1-.2-.1-.1.1l.2.2c.2-.1.2-.1-.1-.3M158.8 7.8v-.2c0-.3-.3-.2-.2 0l.2.2M148.1 8.2c.1-.2-.5-.2-.5-.1s.4.2.5.1M160.3 7.1c.4.1.9.2 1.2.2.8.2.6 0-.2-.2-1.6-.4-2.3-.2-1 0M158.2 7.6c.1-.3.1-.4-.1-.4-.1 0-.2-.1-.2-.2 0-.2-.4-.3-.5-.1-.1.2-.5.2-.4 0 0-.1 0-.2-.2-.2-.1 0-.2.1-.1.1 0 0 .1.2 0 .3-.1.3.2.5.6.4.2-.1.4 0 .6.1.1.2.2.2.3 0M178.6 18.2c.4.8.8 1.5.9 1.5.2-.1.2-.3-.2-.8-.2-.2-.4-.5-.4-.5 0-.1-.1-.2-.2-.3-.2-.2-.2-.2-.1.1M184.6 19.9c0 .2.3.3.3.1 0-.2-.3-.3-.3-.1M163.2 8.5c.1 0 .1 0 .1-.1s-.1-.1-.2-.1-.1.3.1.2M154.4 9.1s.1.1.2.1c.3.1.2-.2 0-.2-.1 0-.2 0-.2.1M155.6 7.2c-.1.1-.1.1-.1.2h.1c.2-.1.1-.4 0-.2M196.1 52.9c0 .4.2.9.1.2-.1-.3-.1-.4-.1-.2M188.6 37.8c-.1-.3-.2.1 0 .2 0 .1.1 0 0-.2M195 46.2c-.1.1-.1.1-.1.2h.1c.2 0 .2-.3 0-.2M182.3 22.6c.2.2.2 0 0-.3-.3-.2-.2.1 0 .3M192.5 44.4c-.1-.3-.2.1 0 .2v-.2M196.3 54.6c-.1.1-.1.1-.1.2 0 0 .1.1.1 0 .1 0 .1-.1.1-.2h-.1M196.7 57.5c0 .5.3 1.3.1.3-.1-.4-.1-.5-.1-.3M196.6 62c-.1-.3-.1-.6-.1-.5-.1.3 0 1.1.1 1.1V62M197.3 71.4c-.1 0-.2.1-.2.2s.1.2.2.2.2-.1.2-.2c0-.2 0-.2-.2-.2M196.9 59.4c-.1-.1-.1.8.1 1.1.1.2.1.2.1 0 0-.5-.1-1-.2-1.1M193.9 43.2c-.2 0-.1.3 0 .3.2-.1.1-.3 0-.3M188.2 35.3c-.2-.1-.2-.1-.1.4s.1.5.2.2c.2-.3.1-.4-.1-.6M185.8 29.4c-.1-.2-.2-.4-.3-.5-.2-.1.2.9.4 1 .2.1.2.1-.1-.5M185.1 27.8c-.1-.3-.2.1 0 .2v-.2M183.2 24.8c-.1-.1-.2-.3-.2-.3-.1-.1 0 .1.1.3.2.6.3.6.1 0M185.8 28c0 .1.1.1.1.1.1 0 .1-.1.1-.2s-.1-.2-.1-.1c-.1.1-.1.2-.1.2M185.5 29.9c.1.2.2.2.2.1-.1-.2-.4-.4-.2-.1M188.4 33.5h-.1c-.2 0-.1.3 0 .2 0-.1.1-.2.1-.2M187.7 34.1c-.1.1 0 .7.1.6.1 0 0-.7-.1-.6M187.4 30.9c0 .2 0 .3.2.3.1 0 .2 0 .2-.1-.4-.4-.4-.5-.4-.2M115.5 150.3c.1.1.2.1.3.1.1-.1.3-.1.5-.2.1 0 .3-.1.3-.2s0-.2-.1-.1-.3.1-.6.2c-.4 0-.5 0-.4.2M88.3 9.1c-.1 0-.2 0-.3.1 0 .1.1.1.2.1.4-.1.4-.1.1-.2M99.2 7.8c.1.3.6.3.5 0 0-.1 0-.2.1-.2.2.1.1-.2-.1-.4-.1-.2-.2-.1-.1 0 .1.2 0 .2-.2.3-.2 0-.2.1-.2.3M97 7.7c.2-.1.1-.2-.1-.2-.3.1-.1.3.1.2M95.7 8.6c0-.1 0-.3-.1-.3-.1-.1-.9.1-.9.2 0 .4 1 .5 1 .1M93.6 8.1c.1.2.2.2.2.1 0-.2-.3-.4-.2-.1M65 15.4c.3.1.4-.1 0 0-.1 0-.1 0 0 0M91.1 9.2c0 .1.4-.1.4-.2-.1-.1-.4.1-.4.2M118 4.7c-.5-.4-.7.1-.9.1h.3c.2-.1.4-.1.6-.1M71.9 13.5s.1.1.1 0c.1 0 .1-.1.1-.2s-.1-.1-.1 0c-.1.1-.1.2-.1.2m.5-.2c.2.1.4-.1 0 0-.1 0-.1 0 0 0m.6-.1c-.4.1 0 .2.2 0 .1 0 0-.1-.2 0m-2.3.6c.2.1.4-.1.3-.2 0-.1.3-.2.8-.3.5-.1 1.1-.3 1.3-.3.4-.1.5-.1.6.1.1.3.1.3-.7.5-1.2.2-1.3.2-1.4.1-.1-.2-.3-.1-.2 0 .1.2-.2.3-.8.4-.4 0-.5.1-.5.2.1.1 0 .1-.2.2-.1 0-.3 0-.4-.1-.1-.1 0-.2.4-.3.3 0 .5-.1.5-.2s0-.2.1-.2c.2-.1.2-.1 0 .1.1-.1.1 0 .2 0M92.1 9.1c.1-.1.2-.2 0-.2-.1 0-.2 0-.3.1-.1.3 0 .3.3.1M125.8 5.3c.1 0 .1 0 .1-.1 0 0-.1-.1-.2-.1s-.1 0-.1.1c.1.1.2.1.2.1M84.5 10.5c.2.1.4-.2 0 0-.1-.1-.1 0 0 0M82.7 10.9c0 .1 0 .2-.1.2-.2 0-.2.1 0 .2.1.1.2.1.3 0 .1-.1.2-.1.2 0 .1.1.2.1.3.1.1 0 .1-.1-.1-.1-.2-.1-.1-.2.1-.2 0 0 .1-.1.1-.3 0-.2-.1-.2-.4-.2-.3.1-.4.2-.4.3M123.1 4.7c.2 0 .6-.2.1-.1-.2 0-.2 0-.1.1M96.5 8.3c.1.3.2.3.3.1 0-.1.1-.1.2-.1s.1 0 .1-.1c0-.2-.1-.3-.3-.2-.2 0-.3.1-.3.3M66.8 15h-.3c-.1 0-.2 0-.2-.1.1-.2-.3-.1-.2.1.1.2.7.2.7 0M122.2 5.6c0 .1 0 .1.1.1s.1.1.1.2 0 .1.1 0c.2-.1.2-.2-.1-.3 0-.1-.2-.1-.2 0M123.9 4.7c.2 0 .1-.3-.1-.3h-.2c-.1.1.2.3.3.3M114.4 5.7c0-.1-.2-.2-.3-.1-.4.1-.4.4-.1.5.3 0 .4-.1.4-.4M112.4 6c.2.2.5.1.2-.1s-.4-.1-.2.1M98.5 7.7s.1.1.2.1c.3.1.2-.2 0-.2-.1 0-.2.1-.2.1M5.8 58.5c-.1-.1 0-.3.1-.3.2-.2.1-.2-.1-.3-.2-.1-.2-.1-.2 0 .1.1 0 .2 0 .3-.1.2-.1.3.1.4.2.1.2.1.1-.1" class="st0"/>
  <path d="M29.3 184.5c.1-.1.1-.1.1-.2h-.1c-.2 0-.2.3 0 .2m1.4-.6c.1 0 .3-.2.4-.3.3-.3.3-.3 0-.4-.2 0-.3 0-.3.2 0 .1-.2.2-.3.3-.1 0-.2.1-.1.1.1.1.2.1.3.1m1.4-1.3c.2-.2.2-.3-.1-.4-.2-.1-.3.2-.3.5.1.2.2.1.4-.1m2.8-2.9c0-.2-.3 0-.2.2 0 .1.2-.1.2-.2m2.5-2.5c.1-.1.2-.3.3-.4.1-.2.3-.3.4-.5.2-.1.3-.2.3-.4 0 .1.1.1.1.1.1-.1.1-.5-.1-.4 0 0-.1 0-.1.1v-.1c-.3-.8-.7-.4-.6-.2.1.3-.7.4-.4.9 0 .1.2.2.4.2-.1.1-.2.2-.3.2-.1 0 0 .1.1.1.2.1.1.1-.1.2-.3 0-.7.5-.6.8-.1 0 .4-.4.6-.6m3.2-2.9c.3-.4.4-.5.1-.3-.1.1-.2.2-.3.4-.1.2-.1.2.2-.1m1.1-.6c.2-.1.1-.4 0-.3-.2.2-.1.5 0 .3m-.5.3c-.1 0-.2.1-.2.3 0 .1.1.3.1.3s.1-.1.2-.3c.1-.2.1-.3-.1-.3m-1.8.9c-.3.2-.1.3 0 0 .2-.1.1-.1 0 0m-.3.4c-.2 0-.1.3 0 .2.1-.1.1-.1.1-.2h-.1m.4.3c.2 0 .2-.1.1-.2-.3 0-.4.2-.1.2m3.5-4.2c.1 0 .1 0 .1-.1 0 0-.1-.1-.2-.1s-.1 0-.1.1c0 0 .1.1.2.1m.4-.3c-.1.3.2.1.2-.1-.1-.2-.2-.1-.2.1m-.1-.6c.1-.1.1-.1.1-.2h-.1c-.2 0-.1.3 0 .2M97 148.8c0-.1.2-.2.3-.2.3-.1.3-.3 0-.3-.2 0-.3 0-.3.1s-.2.1-.5.1c-.6 0-1 .1-1 .3 0 .1.2 0 .5 0 .2-.1.5-.1.5 0-.1.1.4.1.5 0m-4.4.4c.1 0 .3-.1.5-.2.4-.3.1-.6-.3-.4-.1.1-.3.1-.3 0 0-.2-.7 0-.8.2-.1.2.6.5.9.4m-31.8 5c.1-.1.1-.1.1-.2s-.1 0-.1 0c-.2 0-.2.3 0 .2m27.7-4.7c.2-.2-.2-.4-.7-.4-.3 0-.4.1-.3.3 0 .3.1.3.4.2.2-.1.4-.1.4 0s.1 0 .2-.1m-3.5.4c.2-.3.8-.4 1.2-.2.2.1.3.1.4.1 0-.1.1-.2 0-.3 0-.2-.2-.2-.9-.1-.9.1-1.2.3-1 .6.1.2.2.2.3-.1m-.9.2s0-.1 0 0c-.2-.1-.3-.1-.3-.3-.1-.2-.2-.2-.5-.2H82c-.4 0-.5.1-.5.2.1.2.6.3.7.1.1-.1.1 0 .2 0 0 .1.2.1.4-.1.3-.2.4-.2.8 0 .2.3.4.3.5.3m-8.4 1.2c.1-.1-.5 0-.3.1.1 0 .2 0 .3-.1m-11.2 1.6c0-.1-.4-.1-.5-.1 0 .1.6.2.5.1m16.4-2.8c.2 0 .3-.1.3-.2 0-.2-.2-.1-.4.1-.2.1-.1.2.1.1m-17.2 2.7c.1-.1-.5 0-.3 0 .2.1.3 0 .3 0m8-1.5c-.2-.1-.2-.1 0 0 .2.2.4 0 0 0m-.5.1c.2 0 .1-.3 0-.2-.1.1-.1.1-.1.2s0 0 .1 0m-9.6 1.4c.1-.1.1-.1 0-.2-.2-.1-.4.1-.2.2h.2M37 156.5c.2 0 .1-.3 0-.2-.1.1-.1.1-.1.2 0 0 .1.1.1 0m31.8-5.1c.2 0 .1-.3 0-.3-.2.1-.2.3 0 .3m-1.3-.1c.1-.1.1-.2-.2-.1-.2 0-.3.1-.1.2.1.1.2.1.3-.1m4.5-1c0-.2-.3-.1-.3 0 0 .3.3.2.3 0m4.6-.2c-.1.1-.1.1-.1.2h.1c.2-.1.1-.3 0-.2m-1.7.4c0-.2-.1-.2 0 0-.2.1.1.3 0 0m3-.4c-.1.2.1.4.3.3.1 0 .3-.1.3-.1.1 0 .1-.1.1-.2s-.1-.1-.1 0c-.1.1-.2 0-.3 0-.1-.2-.2-.2-.3 0m1.4 0s-.1-.1-.2-.1c-.3-.1-.2.2 0 .2l.2-.1m.8-.3c-.3.3-.3.4.1.4.3 0 .4-.1.2-.4-.1-.2-.1-.2-.3 0m4.1-.3c-.1.1-.1.2-.1.2 0 .1.1.1.1.1.1 0 .1-.1.1-.2s-.1-.1-.1-.1m66.5-10.7c-.2 0-.3.3-.2.4.1 0 .4-.4.2-.4m-59.5 10.1c0 .2.2.4 0 0 .1-.1.1-.1 0 0m-.9 0c0 .1-.1.1-.2 0s-.4-.1-.6-.1c-.3.1-.4.1-.3.3.1.2.2.2.8.2.4 0 .8-.1.9-.2.2-.1.2-.2-.1-.3-.4 0-.5 0-.5.1m53.3-8.4c-.1 0-.2.1-.2.2-.1.1.3.3.4.1.1-.2 0-.4-.2-.3m-1.6.6c.1-.1.1-.1 0-.2s-.1-.1-.1 0-.1.2-.2.2-.2.1-.2.2c0 .3.3.2.3 0 0-.1.1-.2.2-.2m-.9.3c.2 0 .2-.1.1-.2-.2-.1-.4.2-.1.2m-.6-.2c-.4.1-.5.3-.3.5.1.1.2.1.4 0 .3-.2.2-.5-.1-.5m-4.2 1.3c.3-.3.3-.3-.1-.3-.2 0-.3.1-.2.3.1.2.1.2.3 0m-1.3.4c.2-.1.2-.4 0-.4-.2-.1-.2.5 0 .4m-1-.1c-.2 0-.1.3 0 .3.2-.1.1-.3 0-.3m-2.3.7c.1 0 .2-.1.3-.2.1-.1.1-.1-.1-.1s-.3.1-.3.2 0 .2.1.1m26.9-4.2c-.1.1-.1.1-.1.2 0 0 .1.1.1 0 .1 0 .1-.1.1-.2h-.1m-1.5.6h.3c0-.2-.6-.1-.3 0m-42.4 6.7c0-.2-.3-.1-.2 0 .1.1.1.1.2.1v-.1m-49.8 7.9c0-.2-.1-.3-.1-.3-.1 0-.1.1-.1.2s0 .2-.1.2-.1.1 0 .1c.1.1.2.1.3.1-.1 0 0-.2 0-.3m46.7-8.4c-.1.1-.1.1-.1.2h.1c.2 0 .1-.3 0-.2m1.3-.2c0 .2.3.3.5.2.1 0 .1-.1.1-.2s-.1-.1-.1 0c-.1.1-.2 0-.3 0-.2-.2-.3-.2-.2 0m-19.4 2.7c-.1.1.5.4.8.3.1 0 .2-.1.2-.1 0-.2-.8-.4-1-.2m37.4-5.2c.2-.3.2-.3-.1-.2-.4.1-.5.3-.2.4.1.1.2 0 .3-.2m-2.8.7c.4 0 .5-.1.7-.4.1-.1.1-.3.1-.4 0-.1-.1-.1-.1 0s-.1.2-.3.2c-.3.1-.7.6-.4.6m-.5-.3c-.3.1-.7.3-.7.4 0 .1.1 0 .3-.1.2-.1.2-.1.3 0 0 .1.1.1.2 0s.1-.4-.1-.3m-1.7.9c.1 0 .1-.1.1-.1 0-.1.1-.2.2-.2.1-.1.1-.1 0-.2s-.2-.1-.3 0c-.1.1-.1.2 0 .2s.1.1 0 .2-.1.1 0 .1m-5.5.9c.2-.1.3-.2.3-.2 0-.2-.2-.1-.5.1-.1.2-.1.2.2.1m-3 .5c.1-.1.1-.1.1-.2h-.1c-.2.1-.1.4 0 .2m-12.2 1.9c0 .2.1.2.2.1s.1-.2.1-.2-.1-.1-.2-.1-.1.1-.1.2m-.4-.2c-.1 0-.1.1-.2.2 0 .1 0 .1.1.1s.2-.1.2-.2c.1-.1 0-.1-.1-.1m12.2-1.9c-.1 0-.2 0-.3.1-.1.1-.1.1.1.1.3 0 .4-.1.2-.2m1.8-.1c0-.1-.9-.1-1 0-.2.2.9.2 1 0m3.4-.6c.2.1.3-.2.1-.3s-.3.3-.1.3m1.5-.4s0 .1.1.1c.1.1.3.1.5-.1.2-.1.4-.1.4-.1h.5l.4-.2c0-.1-.2-.1-.4-.1-.6.1-.7.1-1.5.4m-11.1 1.6v-.2c0-.1-.1-.2-.2-.1 0 .1.1.3.2.3m-7.2.8c-.2 0-.1.3 0 .3.2-.1.2-.3 0-.3m1.1-.1c-.1-.1-.3-.1-.4-.1-.2 0-.2.1.1.2.5.2.6.1.3-.1m23.7-3.3c.1.1.1.1 0 0 .1-.2-.2-.5-.6-.4-.4 0-.5.2-.2.5.2.2.2.2.5 0 .2-.2.2-.2.3-.1m2.6-1.4c0-.1-.1-.1-.1.1-.1.3-.1.6.1.5.1 0 .2 0 .2.1 0 .2.4.1.4 0 0-.3.2-.5-.2-.5-.2-.1-.3-.1-.4-.2m1.5 0c-.1.2-.1.4 0 .4 0 .1.1 0 .2-.1s.1-.3.1-.4c-.2-.2-.2-.2-.3.1m4.8-.8c-.1 0-.1 0-.1.1s.1.2.1.1l.1-.1-.1-.1m.8.1c0-.2-.4-.1-.4.1 0 .1.4.1.4-.1m-2.7.3c-.1-.1-.4.1-.4.2 0 0 .1.1.3 0 .2 0 .3-.1.1-.2m.8.1c.2 0 .2 0 0-.2-.1-.1-.2-.1-.2.1.1.1.1.2.2.1m-38.2 6.6c.1 0 .1 0 0 0 0-.2.1-.3.2-.3.3 0 .3-.3 0-.4-.2-.1-.3 0-.3.3.1.2.1.4.1.4m58.4-12.5c.1-.1-.5 0-.2 0 .1.1.2.1.2 0m-94 14.8c-.1 0-.3-.1-.4 0l-.3.1.3.1c.3 0 .5-.1.4-.2m-1.2.2c.1 0 .2-.1.3-.2 0-.1 0-.1-.1-.1s-.2.1-.3.2c-.1.1 0 .2.1.1m24.5-4.1c-.1 0-.1.1 0 .1.1.1.1.1.2.1 0 0 .1-.1 0-.1-.1-.1-.2-.1-.2-.1m60.4-10.2c.1-.1.1-.4 0-.3-.2 0-.4.3-.3.4.1 0 .2 0 .3-.1m-40.1 5c.1-.8-.1-.8-.7-.4-.8.7.5 2 .7.4m69.6-11.3c0 .1 0 .1.1 0 .8-.7 1.1-1 1-1.1 0 0-1 .9-1.1 1.1m-24.9 4.5c0 .2.3.1.3-.2.1-.2-.2-.1-.3.2M34.1 146.5s-.1-.2-.2-.3c-.2-.3-.2-.3-.3-.1-.2.3-.1.4.2.5.2-.1.3-.1.3-.1m24.4-5.5c-.5-.1-.6 0-.5.4.3 1 1.5-.3.5-.4m-6.7-.7c-.4-1.3-.9-.4-.9-.6-1.1.5-.2 1.3 0 1.2.1-.1.3.1.4.3.3.9.8 0 .5-.9m32.1-5.5c0 .7.5.3.5.7 0 .9.9-1.1-.1-1.1-.6-.1-.3.4-.4.4m-46.7-7.2c-.3-10.1-.9-14.6-1-7.5-.2 14.3 1.6 28.9 1 7.5m-24.1.2c.1-.1.1-.1.1-.2h-.1c-.2 0-.1.3 0 .2m-.3-1.3c-.2-.1-.1.3.1.4.1.1.1-.3-.1-.4m121.5-24.1c.4-.1.2-.5.3-.5-.1-.9-1.1.7-.3.5m32.9-5.1c-.4.6.9.3.4-.1-.3-.2-.4.2-.4.1M46.8 118.2c1.1-.3.1-.6 0-.7-1.1-.5-.9.9 0 .7m147.8-22.3c-.1.3-.1 1.4 0 1 0-.4.1-1.2 0-1m-.2 3.9c-.2 0-.2.1-.1.3.1.2.1.3 0 .4-.1.1-.1.1 0 .2s.2.1.2-.2c0-.2.1-.4.1-.6 0 0 0-.1-.2-.1m-.1 1.6c-.1 0-.2.2-.2.4 0 .6-.2 1.5-.2 2.6 0 .4-.1.8-.1 1 0 .1-.1.4 0 .5 0 .3.1.3.2 0 .2-.4.5-2.6.5-3.4 0-.4 0-.8.1-.9-.1-.1-.2-.2-.3-.2M90 125c.2 1.4 1.7-.9.4-.7-.7.1-.4.7-.4.7m-37.9 5c0 .6.6.3.6.4 1.2-.1-.7-1.4-.6-.4m55-10.8c-4.5 4.1-4.2 4.3.3.3 4.4-4.1 4.2-4.4-.3-.3m-32.4 5c.7-.5-.3-1 .1-1.7.5-.8-.5.1-1.2-.9-.8-1.2-3-.9-2.4-.1.2.3.5.1.5.1.6-.4 2.2 3.2 3 2.6m119.1-17.9c-.2 0-.4 1.1-.3 1.6 0 .1 0 .3-.1.4-.1.2-.1.4-.1.5 0 .1-.1.4-.2.8-.3 1.1 0 .9-.4 2 0 .2-.1.4 0 .5.1.2.4-1 .6-2.5.2-1 .2-1.1.4-2 .3-1.2.3-1.4.1-1.3m-1.2 6.5c0 .2.2-.3.2-.4-.1-.2-.3.2-.2.4m-10.5-22.9c.6-.3-2-1.9-1.3-.5.2.3.4.5.5.5.2-.1.6.9.9.9.3 0-.3-.8-.1-.9M80.5 105.4c-.8-.9-1.8 1-.5 1.1.6 0 .9-.6.5-1.1m-71 10.3c.1-.2 0-1.2-.1-1.2-.4-.1-.5 0-.4.7.1.7.3 1 .5.5m152.3-24c.5.2.7-.4.8-.4.8-1.4-2.1-.1-.8.4m33.3-8c-.1-.3-.2.1 0 .2v-.2M21.7 109.1c0-.8-.2-.9-1.7-.9-1.4 0-1.7.1-1.7.7 0 1.1 1.7.8 1.7.9 1.5.1 1.7.1 1.7-.7m48.9-8.1c.6.6.8.5.8-.3-.1-1.3-2.1-1-.8.3m124.2-21.7c0 .3 0 .8.1 1 .1.3.1.3.1-.1 0-.3 0-.7-.1-1-.1-.4-.1-.4-.1.1m-42 6.1c-.2-.2-.3-.4-.4-.3-.2.1-.5-.6-.8-.6-.2 0 .3.6.1.7-.4.3 1.8 1.3 1.1.2m11.8-7.3c-4.7-1.8-4.8-1.5-.1.3s4.8 1.5.1-.3m-42.2 5.6c-.6 0-1.1-1.5-1.3-1.5-.2 0-.2.4-.2.4-.1.7-.5 1 0 1s.2 1 1.2 1.1c.6 0 .5-1 .3-1m46-9.1c.3.1.3-.1.3-.1 0-.3.2 0 .3-.6.1-.7-.4-.4-.4-.3 0 .1-.1.2-.2.2-.3-.1-.3.7 0 .8M100.2 85c.2-1.2 2.1-1.2 2.2-1.6.1-.7-1.7-.6-2.3.1-.4.4-.9.7-1.1.6-1.9-.3 1 2.1 1.2.9m-41.7 6.6c.5-.6 0-.7-.1-.5-.2.2-.5-.4-.8 0-.3.3.3 1.2.9.5M77 86.8c-.9-.2.2-1.9-.5-2.1-.3-.1-1.6 2.4-.1 2.7 1.3.4 1.3-.4.6-.6m-41.7 4c0-.8.5-1.3-.1-1.3-.7 0-.3-1.3-1.6-1.3-.7 0-.6 1.2-.3 1.2.7 0 1.5 1.8 1.7 1.8.3.1.3-.4.3-.4m143.5-25.6c.2.2-.1.2.1.4.1.1.6-.5.5-.6-.1-.1-.2.1-.4 0-.2-.3-.4 0-.2.2m13.5-2c-.3.2 0 .8-.3.8-.3.1 0 .7.4.5.7-.4 0-1.4-.1-1.3M180 70.1c.2.1.3.1.6-.4.6-1 1.1-1.1.8-1.3-.2-.1-2 1.4-1.4 1.7m2.5-1.5c-2.1 1.4 2.6 2.3 1.2.2-.1.1-.1-.9-1.2-.2m-28.6 5.3c-.1 0 .5-.3-.3-.3-.9 0-.2.9.3.3m-13.8 3c.4-.2.3-1.5-.7-1.2-.9.3-.5.8-.2.6.3 0 .3.8.9.6m1.8 1.4c.9-.9-.3-.5-.3-.6-1.2 0-.9 1.7.3.6m26.6-14.4c0-.1.2-.1.4-.1.5.2.3-.4-.3-.7-.9-.4-.6.3-.7.2-.3.9.5.8.6.6m-26 2.8c-.1 0 .7-.3-.3-.4-1.2-.2-.4 1 .3.4m12.9-2.8c.3-.7.1-.8-.5-.5-.9.5-.1 1.9.5.5M129.5 65c.1-.5 0-.6-.4-.7-1.2-.3.1 2.1.4.7m-49.6 6.6c8.6-2.7 8.5-3.1-.1-.4-8.7 2.7-8.5 3.1.1.4m-38.5 4.1c.1-.6-1.1-.4-1-1 .1-.4-1.4-1-1.6.1-.2 1.1 2.5 1.3 2.6.9m143.7-24.8c-.1-.2.3-.3.2-.5-.1-.2-.8 0-.5.5.2.4.4.2.3 0M113.6 61c-1.3-1.2-1.7-.8-.4.4 1.3 1.2 1.7.8.4-.4M13.1 77c.6.2 1.3-.5-.5-.9-2-.5-1.8 1.1-1 1.3 1.1.3.6-.6 1.5-.4m33.6-6.4c2.1 1.5.5-2.2-.7-2.1-.4.1.1 1.6.7 2.1m33.5-8.1c.2-1.3-2.5-.9-2.6-.9-.1.8 2.4 2.5 2.6.9M62.5 67c-.1-.2.5-.3.3-.7-.2-.3-1.1 0-.7.6.3.6.5.3.4.1m53.2-9.4c.1.8 1.4 1.8 1.3.6-.1-.7-.5-.3-.6-.8 0-.5-.8-.5-.7.2m18.2-2.2c-.7.1-1.4 1-.9 1.1.2 0 .3.2.4.4.1.5 1 .3 1-.1-.3 0 .4-1.5-.5-1.4m48.2-5.7c.6.6.5-.2.5-.2 0-1-1-.3-.5.2m-4.7 2.6c-.2.1 0 .3-.3.4-.3.1-.2.6.3.4.7-.2.1-.8 0-.8m-20.8 7.9c-.3.3-.2.3.2.3.5.1.3-.8-.2-.3m6-13.2c-.3-.3.4-.6-.5-.4 0 0-.4.1-.5 0-.2-.2-.3 0-.2.3.5 1 .7.2 1 .4.2.1.4-.1.2-.3M10.4 54.8c-.6-.1-1.9 5.8-1.9 5.8-2.3 9.1-.5 4-1.6 8.3-2.8 10.9 4.4-13.8 3.5-14.1m-5.3 4.8c-.1 0-.1 0-.1.1v.4c0 .2 0 .2.1 0 .2-.3.2-.4 0-.5m.8-.5c0 .1 0 .2.1.3 0 .1-.1-.5-.1-.3m.2-.5c0-.1.1-.4.2-1 .1-.4.1-.6 0-.3-.2.4-.5 0-.3-.4 0-.2 0-.2.1 0s.1.1.3-.3c.2-.6.2-.6-.1-.8-.2-.2-.2-.2-.1-.2.3 0 .5-.6.3-.4-.1.1-.2.1-.3 0-.2-.2-.4.3-.3.7 0 .1-.1.4-.2.6-.1.2-.2.4-.2.5 0 .2-.2 1.3-.3 1.6l.3.2c.4.1.6.1.6-.2m123.7-22.9c-.5.6.2.5-.2 1-.6.7.7.4.7.4 1.4-.2.1-2.2-.5-1.4M114 40.6c0 .4.5.6.8.3.6-.6-.8-1.3-.8-.3m-4.6-.8c-.5-.8-.3 1.6.7 1 .6-.3.1-.7.2-.7-.4-.7-.7 0-.9-.3m-32.7 6.5c.4.2.9-.2.2-.7-.8-.6-1.1.7-1 .8.3.1.4-.4.8-.1m69.4-5.3c-.8-.1-.8-.2-1 .8-.4 2.1 3.1-.4 1-.8M48.7 55.9c-1.1 2.5 2.4 3 1.3-.5-.3-1.1-1.2.5-1.3.5m129.7-23c1.7 0 .8-2.1-.5-.9-1.1 1 .5.9.5.9M154.3 38c.5-.1.5.9 1.5.7.6-.1.2-1.1 0-1-.6.1-1.5-1.1-1.7-1.1-.2 0-.1.4-.1.4.1.7-.2 1.1.3 1m27.8-9.5c-.2.1 3.7 6.5 4 6.9.6.8.6 1.2.8 1 .2-.1-4.4-8.2-4.8-7.9m2.4 1c.1 0 .1 0 .1-.1 0 0-.1-.1-.2-.1s0 .3.1.2M93.7 52.2c-.1.5 0 .6.5.7.8.2.7-.5.7-.5.2-.7-1-1-1.2-.2m85.3-12c.2.6.4.2.4.3.5-.2.1-.6 0-.5-.1 0-.2 0-.2-.1-.2-.5-.4-.1-.2.3m9.9-.9c.1 0 .1 0 0-.2 0-.3-.1.1 0 .2m-20.7 3.3c-.5-.7-.7-.1-.7-.2-.6.5.2.9.3.8.1-.1.2 0 .3.1.3.5.4-.2.1-.7M123.9 50c-.4-.5-.4.1-.4.2 0 .7.8.2.4-.2m13.2-2.9c-.2-.1-.5.2-.1.4.5.3.6-.4.5-.5-.2 0-.2.3-.4.1M23.7 66.8c.4.2.8-.3.1-.7-.9-.4-1 .8-.8.9.3.1.3-.4.7-.2m85.6-14.6c-.8-.8-1.2-.8-1.2.1.1 1.2 3.1 1.6 1.2-.1M4.4 62.8c-.1.1-.1.3-.1.4 0 .2 0 .2.1 0 .1-.1.1-.3.1-.4 0-.1 0-.1-.1 0M4.3 64c-.1.3.1.4 0 0 0 0 0-.1 0 0m-1.7 1.3c-.1.1-.1.2.1.2.1 0 .1.1.1.2s0 0 .2-.1c.3-.3.3-.3 0-.4-.1-.1-.3 0-.4.1m-1.5 7.6c0 .2.3 0 .2-.2 0-.1-.2.1-.2.2m.5 5.8c-.1.1-.1.2-.1.4.1.3-.1.6-.3.3-.1-.1-.1-.1-.1 0s.1.2.1.2c.1 0 .1.2.1.3 0 .2 0 .2.1.1s.1-.4.2-.7c.2-.6.2-.7 0-.6m-.4 4.5c-.1.4 0 .8 0 .5 0-.1.1-.2.2 0 .1.1.1 0 .1-.1 0-.2 0-.3-.1-.3s-.1-.1-.2-.2v.1m.2 3.6c-.1.2.1.4 0 0 0-.1 0-.1 0 0m5.1-32.2c.2-.2.2-.3 0-.3-.1 0-.1.1-.2.2 0 .2.1.2.2.1m138.8-23c0-.5.4-.2.4-.5s-1.4-.3-1.4 0 .4.1.4.5.6.4.6 0m-119 17.5c-.6-.2-.6.5-.7.5-.4 1.3 1.9-.1.7-.5m96.3-15.5c0-.1-.4-.2-.9-.2-1.4.1-.6-.7-1.2-.7-1.1 0 2.2 2.1 2.1.9m59.2-9.8c.2.1.2.1-.3-.7-.2-.4-.4-.7-.5-.7-.1 0 .6 1.3.8 1.4m0 .5c-.2.2-.1.2.4.6.1.1.2.1.2.1-.1-.1-.4-.8-.5-.8l-.1.1m.9 1.4c.2.2.2 0 0-.3-.2-.2-.2.1 0 .3m-19.8-1c-.2 0 .9-.9-.2-1.1-1.6-.2.1 1.8.2 1.1m8.3-1.4c.2.1.3 0 .3-.1.1-.3.5.1.2-.5-.2-.3-.4-.2-.3-.5.4-1.1-.9.9-.2 1.1M14.4 45.8c-.2-1.1-3-2.1-2.7-.2.1 1.5 2.7.6 2.7.2m-3.9.3c.6-1 .7-1.2.5-1.1l-.2.2c0 .1-.2.4-.5.8-.7 1-.5 1.2.2.1m1-1.6c0-.2-.3 0-.2.2 0 .2.2 0 .2-.2m162.3-27.2c-.6.2-.6.4-.2.8.8.8 1.3-1.3.2-.8M13 43.1c.3-.4.6-.8.7-.8.1 0 .1-.1.2-.2s.3-.4.6-.6c.7-.7 1-1.1.9-1.2-.1-.1 0-.1.1-.1s.2 0 .2-.1.2-.4.5-.6c.3-.2.6-.5.7-.7.2-.3-1 .7-1.1.8 0 .1-.3.3-.6.6s-.5.6-.4.7c.1.1.1.1 0 .1s-.2 0-.3.2c-.1.1-.2.2-.3.2-.2-.1-1.2 1.1-1.1 1.3.1.2-.3.7-.5.6-.1 0-.1 0-.1.1s0 .2-.1.2-.1.1-.1.2c-.1.2 0 .1.7-.7m21.4-7.3c.2 2.1 1.7-2.3-.4-2.1-.7.1-.9.3-.9.9.1 1.2 1.2.4 1.3 1.2M133 18c.7 1.2.8.3.9.3.2-1-2-2-.9-.3m-46.6 7.8c-.6.6-.6.8.1 1.1 1.6.7 1.1-2.3-.1-1.1m79.8-10.3c-.6 1.3 3 .8 1-.1-.7-.3-.9-.3-1 .1M18.6 39.9c0-.1-.1-.1-.1 0s-.3.3-.5.4c-.2.1-.5.4-.6.5-.9 1-1.2 1.4-1.3 1.6-.1.2-.1.2.3-.1.2-.2.5-.5.7-.6.1-.2.4-.5.7-.8.3-.3.5-.5.4-.5-.1 0 0-.1.1-.2s.3-.2.3-.3m103.1-15.4c.5 0 .6-.1.5-.5-.4-1-1.6.5-.5.5M57.9 35.1c.2.9.4 1 1 .6 1.4-1-1.4-2.3-1-.6m83.8-20.9c.1 0 .1-.1.1-.2s-.1-.1-.1 0c-.1.1-.1.1-.1.2h.1m-8.9.2c.1-.2-.2-.1-.3 0 0 .3.2.2.3 0M35.5 29.8c.1-.1.2-.1.2-.1s.1 0 .2-.2c.1-.1.3-.2.5-.2s.4-.1.5-.2c.1-.1.4-.2.5-.2.2 0 .3 0 .4-.1 0-.1.2-.2.4-.2s.4-.1.5-.2c.1-.1.2-.1.3-.1.1 0 .1.2 0 .6-.1.3-.1.5 0 .3s.2-.2.4-.2c.1 0 .2 0 .2-.1s.1-.2.3-.3c.3-.1.3-.2.1-.3-.1-.1-.2-.1-.3-.1-.1.1 0 0 .1-.2.2-.2.2-.2.5 0 .3.3.4.3.4-.1 0-.2.1-.3.2-.3s.1.2.1.3c0 .2 0 .2.2.1.1-.1.6-.3 1-.6.5-.3.8-.5.8-.6 0-.1.1-.1.3-.1.1 0 .4-.1.6-.2.5-.3.9-.5 1.2-.8.1-.1.3-.1.4-.1.1 0 .2 0 .3-.1.1-.2.7-.4 1.7-.7.7-.2 2-.8 2.5-.9.2 0 .6-.2 1-.3.8-.4 1-.6.6-.6s-.6-.4-.3-.5c.4-.1.2-.2-.2-.2-.2 0-.3.1-.3.1.1.1-.5.4-.9.3-.2 0-.3 0-.3.1s-.2.2-.7.3c-.4.1-.9.3-1.1.4-.2.2-.5.3-.5.3-.1 0-.4.1-.7.2-.4.2-.5.3-.4.4.1.2 0 .2-.4.2-.6 0-1.4.3-1.3.5 0 .1-.1.2-.3.2-.2 0-.6.2-.8.3-1.1.5-1.7.7-2.5 1.1-.2.1-.6.3-1 .4-.8.2-2.4.9-2.7 1.2-.1.1-.3.2-.4.2-.1 0-.8.5-1.1.8-.5.6-.5.8-.2.5m-4.1.2c.4-.3.8-.5.8-.5.1 0 .3-.2.6-.3 1.1-.7 1.1-.7.7-.6-.4.1-1.4.7-2.8 1.6-.2.2-.5.4-.5.4-.1.2.1.1 1.2-.6m4.5-1.8c.4-.3.4-.5.2-.6-.2-.1-.6.3-.6.6 0 .4 0 .4.4 0m67-12.7c-.1.2-.1.4 0 .4s-.1.6 0 .7c.1.1.2-.4.3-.4.4.2-.1-1.6-.3-.7m31.7-4.3c-.1.1.1.1.3.1.2 0 .4-.1.4-.1-.1-.1-.6-.1-.7 0m-4.8 1.6.2.2c.2 0 0-.4-.2-.4-.1-.1-.1 0 0 .2m20.6-3.4c.3.2.4 0 0 0-.1-.1-.1-.1 0 0m.9 0c0 .1.1.1.2.1s.1 0 .1-.1c0 0-.1-.1-.2-.1s-.1 0-.1.1m-63.9 11c-.3 1 2 .6 1 .3-.4-.1 0-.6-.5-.7-.3 0-.4.1-.5.4m40.7-6.1c-.1.1-.1.1-.1.2 0 0 .1.1.1 0 .1 0 .1-.1.1-.2h-.1m-75.7 4.9c.3-.1.4-.2.4-.3-.1-.3.7 0 .8-.4v-.2c0-.1-1.7.4-1.4.7 0 .1 0 .1-.1.2h.3m77-17.5c.2.1.3.1 1.8.2 1.3 0 2.1.1 2.6.1.7 0 1.7 0 1.6-.1 0-.1-1-.2-1.1-.1h-.2c-.1-.1-.2-.1-.2 0-.1.1-.2 0-.3-.1-.1-.1-.2-.2-.2-.1s-.1.1-.2 0-.6-.1-1 0h-.8c0-.1-.1-.1-.3 0-.1.1-.3.1-.3 0s-.2-.1-.5-.1-.7 0-.9-.1c-.5-.2-.9.1-.5.3.1.1.2.1.2 0 .1-.1.2-.1.3 0m-3.4.5c.1 0 .1-.1 0 0-.2-.1-.7-.3-.4 0 .1.1.2.1.4 0m2.4-.6c.2 0 .4-.2 0 0-.1-.1-.1-.1 0 0m-.3 0c.1-.1-.1-.2-.3-.2-.1 0-.1.1 0 .2.2 0 .3.1.3 0m-.5-.1c0-.1-.4-.3-.7-.2-.3.1-.2.2.3.2.3.1.4.1.4 0m-1.3 0c.1-.1.1-.1 0-.2-.2-.1-.4.1-.2.2 0 .1.1.1.2 0m-.7-.2c-.1-.1-.2-.1-.2 0s0 .2.1.2c.2.1.3 0 .1-.2m-.5 0h-.2c-.2.1-1.3 0-1.5-.2-.2-.2-.4-.1-.2.2.1.1.5.2 1 .2.9 0 1.2-.1.9-.2m-2.2.1c.1-.1-.5 0-.3 0h.3m-.8 0c.2 0 .2-.1.1-.2-.2-.1-.3.2-.1.2m-3.6.4c.2-.1.3-.1 0 0-.1-.1-.3-.1-.5-.1s-.2 0-.1.1.4.1.6 0m-.8 0c.1-.1-.5 0-.3.1.2 0 .3-.1.3-.1m-.8.1c0-.1-.4-.1-.8 0s-.3.1.2.1c.4-.1.7-.1.6-.1m3.8-.6s0-.1 0 0c-.4-.1-.9-.1-1.4-.1-.6 0-1.8.1-1.7.2 0 0 3 0 3.1-.1m-3.5.1c.4-.1-1 .1-.6.1.2 0 .4-.1.6-.1m-1.1 0h-.8l-.7.1c1.6 0 1.7 0 1.5-.1m8.3-.7c.3.1.4-.2 0-.2-.3.1-.3.1 0 .2m10.2.5c.1.1.3.1.3.1.1 0 .1-.1.1-.1 0-.1-.2-.1-.3-.1-.3-.1-.3 0-.1.1m1.2.5c-.2.2 0 .6.2.5.2-.1.8 0 .7.2 0 .1-.2.1-.4.2-.8.1-.1.4.8.4.5 0 .7-.2.2-.3-.2 0-.3-.1-.3-.2 0-.2.7-.3 2-.1.6.1 1.7.2 2.4.3 2 .2 4.3.6 4.4.7 0 0 .1.1.3 0 .3 0 .9.1 1.4.2-.2.1-.3.2-.1.4.3.3.5-.1.5 0 .1-.1.1-.2.2-.2.1.1.2.1.2.1-.3.1-.3.2-.1.2.1 0 .3 0 .4-.1.3-.2 0-.3-1.2-.6-1.5-.3-1.2-.4-2.2-.5-.4 0-.6-.1-.6-.2s-.1-.1-.2 0h-.7c-.3 0-.7-.1-1-.1-.3 0-.5-.1-.6-.2-.1-.1-.2-.1-.3-.1-.1.1-.3 0-.4-.1-.1-.1-.2-.2-.2-.1s0 .2-.1.2-.1 0-.1-.1-.1-.1-.3-.2c-1.2-.1-1.4-.2-1.7-.2h-.7c-.2 0-.6.1-.8.1h-.5c-.1 0-.1-.1-.1-.1 0-.1 0-.1-.1-.1h-.8c.1-.1-.1 0-.2 0m8.9.7c.2.1.4-.1 0 0-.1-.2-.2-.2 0 0m4.5 1.6c0 .1-.1.2-.2.2-.2.1-.1.1.2.2.4.1.6 0 .2-.3-.1-.2-.2-.2-.2-.1m-5.8.8c-.2.1-.2.1.1.2.2.1.4.1.4 0 .2-.2-.1-.3-.5-.2m1.6-1.1c.1-.1-.5 0-.3 0 .2.1.3 0 .3 0m-2.7 0c-.7 0-1 0-1 .1 0 0 .3.1.6.1.6 0 .9-.1.4-.2m-6.7.9c-.3-.1-.2.2 0 .2.1 0 .2-.1.2-.1s-.1 0-.2-.1m7.2-1.2c.1.1.3.1.3 0 .1-.1-.1-.2-.4-.2-.1.1-.1.2.1.2m-2.7.4c.1-.1-.5 0-.2.1.1 0 .2-.1.2-.1m2.4-.5c.1-.1-.5 0-.2 0 0 .1.1 0 .2 0m-4.1.5c.1-.1-.5 0-.3.1.2 0 .3 0 .3-.1m-.6 0c.2-.1-.5 0-.3.1.1-.1.2-.1.3-.1m4.2-.6s-.1-.1-.2 0c-.1 0-.4 0-.6-.1-.3-.1-.5-.1-.5 0-.3.3 1.3.2 1.3.1m-8.3 1.1c.6-.1.8-.3.3-.3-.2 0-.2 0 .1-.1.3-.1.3-.2-.4-.1-.4 0-.8.1-.9.1-.1.1-.2.1-.2 0 0-.2-.3-.2-.2.1 0 .1.2.2.4.2s.4.1.4.1h.5m5.8-1.2h.7c.1-.1-.5-.4-.8-.4-.7.2-.5.4.1.4m-1.2-.1c.1.1.2.1.3.1.1-.1-.4-.4-.4-.3-.1 0-.1.1.1.2m-7.7 1 .4-.1h-.4c-.4 0-.6.1-.4.2 0 0 .2 0 .4-.1m-.8 0c.2-.1.2-.1 0-.2-.3-.1-.5.1-.3.2.1.1.2 0 .3 0m-2.4 0c.3-.2.3-.2 0-.3-.3-.1-.3-.1-.2.2 0 .2 0 .2.2.1m6.6-1.4c0 .1.1.1.2.2.1 0 .4 0 .6-.1.3-.1.3-.1-.2-.2-.4 0-.6 0-.6.1m-.2 0c.2-.1-.6 0-.3.1.1-.1.2-.1.3-.1m-8.7 1.1c-.3-.1-.1.2.1.3.2 0 .2-.3-.1-.3m7.7-1.1c.3 0 .5-.1.5-.1 0-.1-.4-.1-.8-.1-.5.1-.3.2.3.2m-8.5 1.1c0-.1-1-.1-1.6 0l-.3.1.3.1c.2 0 .6.1 1 0 .3 0 .6-.1.6-.2m7-1.2c.2 0 .4 0 .4-.1s-1-.2-2.1-.2h-.5c.5.3.8.4 2.2.3m-9.5 1.3c0-.1-.4-.1-.8-.1-.5.1-.2.2.3.2.3-.1.5-.1.5-.1m-1.6 0c.2-.1-.7 0-.4.1.1 0 .3-.1.4-.1m7.9-1.5c.1.1.3.1.5 0s.3-.1.2-.1c-.5 0-1-.1-.7.1m-8.9 1.5.4-.1h-.3c-.5-.1-.7 0-.6.1.1.1.3.1.5 0m-14.3-.6h-.9.5c.4.1.5.1.4 0m-1.9.3c.5-.1.5-.2.1-.2-.2 0-.3 0-.4.1-.1.1 0 .2.3.1m-.9 0c.1-.1-.5 0-.3.1.1-.1.2-.1.3-.1m11.3-1.8c.6-.1.9-.2.7-.2-1.2.1-2.1.1-1.9.3.2 0 .6 0 1.2-.1m-1.7.1.4-.1h-.4c-.4 0-.6.1-.4.2 0 0 .2 0 .4-.1m-1 0c0-.1-1.1 0-1.3.1-.2.3 1.3 0 1.3-.1m-2.3.1c-1.4.1-2.9.3-2.9.4 0 .1.2.1.5 0 .3 0 1-.1 1.7-.2 1.3 0 1.9-.2.7-.2M153.8 5c0 .1.1.1.2.1s.1 0 .1-.1-.1 0-.2-.1c-.1 0-.2 0-.1.1M53.6 22.8c.2-.1-.5 0-.3.1.1 0 .3 0 .3-.1m48.4-7.9.2-.2s-.1 0-.2-.1c-.2 0-.3 0-.2.2 0 .3 0 .3.2.1m19.8-3.2c.2 0 .1-.3 0-.3-.2 0-.2.3 0 .3m5.5-1.1c0-.1-10.2-1.7-10.3-1.3 0 .1 0 .2.5.3 1 .1 9.7 1.2 9.8 1m-18 1.7c.2 0 .4 0 .6-.1.3-.2-1 .1-.6.1m-4.6.2c0 .1.1.1.2.1s.1 0 .1-.1c0 0-.1-.1-.2-.1 0 0-.1 0-.1.1m-3.9.5c0-.2-.3-.1-.3 0 .1.2.4.2.3 0m-4.5 1.4c1.4-.4.5-.8 1.4-1 .8-.3.2-.7.8-.9.5-.1.6-.8-.7-.4-1.4.4-.5.8-1.2 1-.6.2-.4-.8-1.2-.5-.5.1-.5.4-.3 1.1.2.9.2 1 1.2.7m27.8-6.3c.1.1.1.1.2.1v-.1c0-.2-.3-.1-.2 0m10.1-.1c-.3.3.1.4.9.3h.8c0 .1.1.1.2.1s.1-.1.1-.2c-.1-.2-.2-.2-.2-.2-.1.1-.3 0-.4-.1-.2-.1-.4-.2-.6-.2-.1 0-.2 0-.3-.1 0-.1-.1-.1-.3 0-.1.1-.3.1-.3 0s-.1-.1-.1-.1c-.1 0-.1.1-.1.2s.1.2.3.2c.2-.1.2-.1 0 .1m2.7.1c-.2.1-.2.1.1.2.4.1.4 0 .3-.2-.1 0-.2-.1-.4 0m1.4.2c0 .1.1.2.1.2.1 0 .1-.1.1-.3-.1-.2-.2-.2-.2.1m-15.7 3.3c.6 0 .7-.1.1-.2s-.8.2-.1.2m-55.3 143c0 .1.2.1.4.1s.5 0 .7.1c.3.1.3-.2-.1-.2-.1 0-.3 0-.4-.1 0-.1-.6 0-.6.1m57.5-9.1h.3c.1-.2-.5 0-.3 0m-54.3 8.8c-.3.2-.3.4-.1.5.1 0 .1.1.1.2s0 .1.1.1.1-.1.1-.1c0-.1.6-.1.7 0 0 .1.2 0 .4-.1.3-.2.3-.2.6.1.3.2.3.2.5.1.1-.1.2-.1.2-.1 0 .2.6.3 1 0 .3-.2.4-.2.6-.1.3.2.4.2.8-.3.3-.4.4-.6.2-.6-.1 0-.1.1-.1.2s0 .1-.2 0c-.2-.2-.4-.1-.4.1 0 .1-.1.2-.2.2s-.2-.1-.2-.2c0-.2-.1-.2-.7-.1-.4.1-.7.2-.8.3-.1.1-.2.1-.3-.1-.2-.2-.3-.2-.4 0-.2.2-.2.2-.3 0-.2-.2-.5-.2-.5 0 0 .1-.2.2-.4.3-.4.1-.9-.1-.7-.3.2-.2.1-.2 0-.1m88.5-13.5c-.4.1 0 .2.2 0h-.2m-89 14.9c0-.2-.3-.1-.3.2-.1.2.3 0 .3-.2m3.5-.1c0 .1.1.1.2.1s.1-.1.1-.2c0-.2-.4-.1-.3.1m.5.1c-.1.1 0 .2.3.2.5 0 .9-.2.6-.3-.1 0-.2 0-.1.1 0 .1 0 .2-.1.2s-.1 0-.1-.1c.1-.3-.5-.3-.6-.1m-5.1 0v-.1c0-.2-.3-.1-.2 0 .1.1.2.1.2.1m.5-.6c.2-.1.2-.4 0-.4-.1 0-.2.1-.2.2.1.2.1.2.2.2m88.7-13.9c-.3.1-.3.1-.1.1.1 0 .3-.1.4-.1.1-.1 0-.1-.3 0m3.8-.3c0 .3.4 0 .4-.1s-.4-.1-.4.1m-12.9 2c.3 0 .2-.3 0-.2-.1.1-.2.1-.2.2h.2m12.2-1.6c-.5.1-.5.1-.1.3.2.1.3.1.4 0 .2-.3.1-.3-.3-.3m-6.8 1.2c-.3 0 .1.4.4.4.2 0 .3-.1.3-.2s0-.2-.1-.1-.2.1-.3 0c-.1-.1-.2-.2-.3-.1m4.4-.5c.1.1.3.1.3 0 .1-.1-.8-.2-.3 0m-17.1 2.9c-.1.1-.1.1-.1.2 0 0 .1.1.1 0 .1 0 .1-.1.1-.2h-.1m10.2-1.4c-.2.2-.2.2.2.2.2 0 .5-.1.7-.2l.3-.2h-.5c-.2 0-.6 0-.7.2m5.9-1.1c-.2 0-.2.1-.1.3.1.1.2.2.2.1.2-.1.1-.4-.1-.4m-7 1.5c-.1.1-.2.1-.3 0-.1-.1-.2-.1-.2 0s-.2.2-.5.3c-.7.2-.3.4.5.2.3-.1.6-.3.6-.4.1-.2 0-.2-.1-.1m-2.1.4c-.1 0-.2.4 0 .4s.1-.4 0-.4m-.5.4c-.1 0-.1 0-.1.1s.1.1.2.1.1 0 .1-.1c-.1 0-.1-.1-.2-.1m-.5.1c-.2-.1-.3-.1-.3 0s-.1.1-.3 0c-.2-.1-.4-.1-.6 0-.2.1-.3.1-.3 0s-.1-.1-.2 0-.2 0-.3 0c-.1-.1-.2-.1-.3.2-.2.4-.4.4-.4.1 0-.1-.2-.3-.3-.4-.3-.1-.3-.1-.2.2.1.2.1.3 0 .3s-.3.1-.4.2c-.2.2-.2.2-.2-.1 0-.2-.1-.3-.2-.3s-.1.1-.1.2c.1.2 0 .2-.5.3s-.6.1-.6-.2c0-.2-.1-.2-.2-.1s-.4.2-.7.3c-.3.1-.6.2-.7.3-.1.1-.1.2 0 .1s.2 0 .2.1c0 .3-.6.3-.5.2 0-.1-.5 0-1.1.1-.9.2-1.3.3-1.5.5-.2.2-.3.3-.4.3-.1 0-.8-1-.8-1.1 0-.1-.1-.2-.3-.1-.2 0-.2.1 0 .2.2.2.3.8.1.7-.1 0-.2 0-.2.1s-.1.1-.2 0-.2-.1-.2 0c0 .2-.1.2-.2 0-.1-.1-.2-.1-.3-.1-.1.1-.2 0-.2 0-.1-.1-.1-.1-.1.1s-.1.2-.3.2c-.2 0-.4.1-.6.2s-.3.2-.4.2c-.1 0-.2 0-.4.1-.1.1-.2.1-.3.1 0-.2-.6-.2-.9 0-.2.1-.2.2-.1.3.1.1 0 .1-.1.1-.3-.1-.5.3.2.2.3 0 .8-.1 1.1-.1.3 0 .6-.2.7-.3.1-.1.2-.2.3-.1.1.1.2.1.4-.1.2-.1.4-.1.6 0 .3.2 1.2.1 1.4-.2.1-.1.3-.2.5-.1s.4 0 .5-.2c.1-.1.2-.1.2-.1 0 .1.3.1.6 0 .7-.2 2.1-.4 2.2-.3l.6-.2c.9-.4 5-.9 5.5-1.4.1-.1.2-.1.2 0 .1.1.2.1.4.1.5-.2.5-.3.2-.5m6.5-.7c-.1 0-.1.1-.2.2 0 .1 0 .1.1.1s.2-.1.2-.2 0-.1-.1-.1m-10.2 2.5c0 .1.4.3.4 0-.1-.2-.4-.1-.4 0m5-.8c-.2.2 0 .4 0 0 .1-.1.1-.2 0 0m-.2.1c0-.1-.1-.2-.2-.1s-.2.1-.3.1c-.1 0 .3.2.4.2.1 0 .1-.1.1-.2m-.7.2c.1-.1 0-.1 0 0-.4.1-.2.3 0 0m-11.6 1.8c-.2 0-.1.3 0 .3.2 0 .2-.3 0-.3m-12.9 2c.2 0 .3-.1.3-.2s-.1-.1-.2-.1h-.5c.1 0 .1.1.1.2s.1.1.3.1m5.7-1.6c-.1.2.2.1.3 0 .1-.2-.2-.2-.3 0m.2.4c0-.1-.2-.1-.4-.1-.3.1-.3.1-.1.1.2 0 .3.1.4.1.1 0 .1-.1.1-.1m1.8-.4c.1-.2 0-.3-.6-.3-.3 0-.5.1-.5.1 0 .1.1.1.2.1s.3-.1.5-.1.3 0 .2.1c-.1.1-.1.2 0 .2 0 .1.1 0 .2-.1m-6 .2c0-.1-.2-.1-.4 0s-.3.2-.2.2c.1 0 .2.1.2.2s.2.2.3.2c.3 0 .3 0 0 .1-.2.1-.3.1-.1.2.1.1.3.1.6 0 .2-.1.6-.2.9-.2.3 0 .7-.1.9-.2.2-.1.4-.2.4-.3 0-.1 0-.1-.1-.1-.1.1-.2 0-.2 0 0-.2-.4-.1-.5.1-.1.2-.2.2-.3 0-.1-.2-.2-.2-.3 0-.1.1-.2.2-.4.2s-.2-.1-.1-.3c.1-.3.1-.3-.2-.1-.3.1-.4.1-.5 0m-2.7 1.2c-.1-.4.1-.7.4-.5.3.1.3-.1.1-.3-.3-.3-.8-.2-1 .1-.1.2-.1.2.1 0 .3-.3.4-.3.3 0-.1.1-.3.2-.4.3-.5.2-.3.6.3.7.3 0 .3 0 .2-.3m4.7-2c.1 0 .1 0 .1-.1 0 0-.1-.1-.2-.1s-.1 0-.1.1c.1 0 .2.1.2.1m-3.3.4.1-.1s-.1-.1-.2-.1-.1 0-.1.1.1.2.2.1m11.6-2c.1.1.1.1.2.1v-.1c0-.2-.3-.2-.2 0m1.5-.1c.2 0 .4-.4.2-.5-.2-.1-.3.5-.2.5m3.1-.6c-.1.3-.1.4.1.4.1 0 .1-.1.1-.3-.1-.3-.1-.3-.2-.1m-1.3.1c-.2-.2-.5 0-.5.3 0 .1.1.2.2.2.2 0 .5-.3.3-.5m1-.3c.1-.1.1-.1.1-.2h-.1c-.2 0-.1.3 0 .2m-11.1 4.3c-.4.2 0 .2.2 0 .1-.1 0-.1-.2 0m4.8-.3c-.1 0-.2.1-.2.1s.1.1.2.1c.3 0 .3-.2 0-.2m-1.8.2c-.1 0-.1.1 0 .1.1.1.1.1.2.1 0 0 .1-.1 0-.1 0-.1-.1-.2-.2-.1m-.9.2c-.1.1-.1.1-.1.2 0 0 .1.1.1 0 .1 0 .1-.1.1-.2.1-.1 0-.1-.1 0m-7.1 1.1c-.3 0-.5 0-.3.2h.4l.3-.1-.4-.1zm-45 5.1c.1.1.1.1.2.1v-.1c0-.2-.3-.2-.2 0m.6-.2c-.4.2 0 .2.2 0 .1-.1 0-.1-.2 0m6-.5c-.2 0-.1.3 0 .2.1-.1.1-.1.1-.2h-.1m1.8-.2c-.1.2 0 .6.1.2 0-.3 0-.3-.1-.2m-57.7 31.5c-.3.1-.4.1-.5 0-.2-.3-.2-1-.1-1.1.2-.1.1-.4 0-.2-.1.1-.1 0-.2-.1 0-.2-.1-.2-.3.2-.2.2-.3.4-.4.4-.1-.1.9-3.2.9-3.4 0-.2.4-1.5.6-1.9.1-.1.2-.4.2-.7.1-.7.8-2.7.7-2.9 0-.1.1-.2.1-.3.1-.1.2-.4.2-.7 0-.3.1-.5.1-.6.4-.7.7-1.6.6-2 0-.4 0-.6.2-.7.2-.2.8-1.2.8-1.4 0-.1.2-.7.4-1.4.4-1.3.4-2 .1-1.8-.2.1-.4-.3-.2-.5.1-.1.2-.3.3-.6.1-.2.1-.4.2-.4.2 0 .2.1-.1.6-.1.2-.2.4-.1.5 0 0 .2-.2.3-.6.1-.4.3-.7.4-.7.1 0 .1-.1 0-.1-.1-.1 0-.2.1-.3.2-.2.2-.7 0-.6-.1.1-.1 0-.1-.1s.1-.1.2-.1c.3.1.6-.1.5-.4-.1-.3.2-1 .4-.9.1 0 .1 0 0-.1s.1-.9.6-2.3c.4-1.1.2-1-.3.3-.7 1.8-1.3 2.9-.3.5.3-.7.5-1.4.5-1.5 0-.2.6-1.3.6-1.2h.2c.1-.1.2-.1.2-.1.1 0 .1-.1.2-.2s0-.1-.1 0c-.2.2-.2 0 .1-.7.2-.5.2-.6 0-.7-.2-.1-.1-.1.1-.1.1 0 .3-.3.2-.5 0-.1-.1-.1-.1 0-.2.2-.3-.2-.1-.8.2-.6.2-.6.4-.5.3.2.3.1.8-.9.5-.9.6-1.4.5-1.4-.2 0-.5.6-.5.8 0 .1-.1.3-.2.5-.2.2-.2.2-.2-.1 0-.2.1-.5.3-.7.5-.6.7-1.1.5-1.3-.1-.1-.1-.2-.1-.3 0-.1 0-.2-.1-.2s-.1-.1-.1-.2c.1-.2-.2-.6-.3-.6l-.8-.2c-.6-.2-.9-.5-.3-.5.2 0 .2 0 0-.1s-.3-.2-.3-.3c0-.1-.7-.3-1.5-.5-2.1-.5-4.6-1.3-4.4-1.5 0 0 0-.1-.1-.2-.1 0-.1 0-.1.1.1.1 0 .2-.1.2s-.8-.4-1.4-.9c-1.7-1.3-.6-.4-.4-.2l.3.3c0 .2 0 .2-.5 0-1.4-.6-2.4-1.1-2.4-1.3 0-.1-.1-.2-.2-.2-.2 0-.2 0 0 .1.1.1.2.1.1.1-.2 0-2.1-1-2.1-1.2 0-.1-.1-.2-.1-.1-.1.1-1.8-1.2-3-2.3-1-.9-1.2-1.1-1.2-1.4 0-.1-.1-.1-.1-.1-.1 0-.2-.1-.3-.3-.1-.2-.4-.5-.6-.7-.2-.2-.4-.5-.4-.6 0-.1-.2-.4-.4-.7-.2-.2-.3-.5-.4-.6 0-.1-.2-.4-.5-.7-.3-.3-.5-.6-.5-.7 0-.1-.1-.1-.1 0-.1.1-.2-.1-.2-.4 0-.1-.1-.2-.2-.3-.1-.1-.2-.3-.3-.4 0-.2-.3-.6-.6-.9-.3-.3-.6-.7-.7-.9-.1-.3-.1-.4.1-.2.4.2.4 0 0-.4-.3-.2-.5-.6-1-1.8-1.7-4.7-3.7-11.2-3.7-12.3 0-.2 0-.3-.1-.3s-.1-.3-.2-.6c-.2-1.2.2-.1.4-1.1v-.5c-.1 0-.2-.2-.3-.5-.1-.4-.5-.8-.4-.4.1.4.1 1 0 1s-.1-.2-.1-.4-.1-.4-.1-.4l-.2-.6v-.6c.1 0 .1 0 .3.5.1.2.1.3.2.1.1-.1.1-.3.1-.5s.1-.3.3-.5c.2-.1.4-.3.3-.5 0-.1-.1-.3-.2-.2 0 0-.1 0-.1-.1.1 0 .1 0 .2.1.3.3.6 0 .3-.3-.3-.4.5-.8-.5-.6 0-.3-.1-.4-.1-.8 0-.2-.1-.3-.1-.1v.3c0 .1 0 .1-.2.1-.3 0-.5-.1-.3-.3.1-.1.1-.3 0-.7-.1-.3-.1-.6-.1-.6.1 0 .1-.1.1-.3 0-.2 0-.3.1-.4.1-.1.1 0 .1.1s0 .2.1.1c.1 0 .1-.2 0-.4C8 108.5 6.1 96.9 6 94.4c-.1-1.5-.2-2.5-.4-4.1-.1-.9-.5-4.3-.6-5.8-.1-1.9-.3-4.6-.2-4.8v-1.3c-.1-1.3 0-3.1.1-5.4.1-3.6.6-8.4.4-9.1 0-.1 0-.2.1-.2.2 0 .2-.6 0-.8-.1-.1-.1-.3 0-.3.1-.1.1 0 .2.1.1.5.3-1.9.4-2.8 0-.2 0-.2-.2-.1s-.2.2-.2.2c.1.2.1 1-.1 1-.1 0-.2.2-.3.3-.2.5-.2 1.8-.1 2.1.1.1 0 .2 0 .2-.2 0-.4 1.8-.2 2.2.1.2.1.3 0 .5-.1.1-.1.3-.1.4.1.1 0 .2-.3.2-.2 0-.5.1-.6.2-.1.1-.1 0-.1-.2v-.3l-.2.4c-.1.2-.2.5-.3.7 0 .2-.2.5-.3.7.1.1 0 .5 0 .7 0 .3 0 .6-.1.7-.1.4 0 .7.2.6.1-.1.2-.1.2 0 0 .2-.1 2.1-.1 2.8 0 .4-.1 1.3-.2 2.1-.1 2.6-.3 4-.2 4.9 0 .3 0 .7-.1.8s-.1.3 0 .5.1.6 0 .9c-.1.3-.1.9-.1 1.3v2c-.1 1.2-.1 1.6 0 2.2.1.4.1.6 0 .6s-.1.2-.1.7c.1.4.1.7 0 .8-.1.1-.1.9 0 2.1-.4 0-.8.2-.8.3 0 .3-.2.6-.5.9v-.6C1 90.9 1 90.4 1 89.6 1 88.4 1 88 .9 88s-.1-.5-.1-1c0-1.5-.1-1.4 0-2.5V83c0-.7.2-2.2.3-1.7 0 .1.1.1.2.1.2 0 .3-1.1 0-1.2-.1 0-.2-.1-.2-.2 0-.2-.1-.2-.1 0 .1.2.1.2 0 0s-.1-.3 0-.5c0-.1 0-.3-.1-.5s-.1-.3 0-.1c.1.1.2.1.2-.3s.1-.4.3-.4c.3 0 .3 0 .3-.2s-.1-.2-.3-.1c-.2.1-.3 0-.3-.2s-.1-.2-.2-.1-.1-.1-.1-.5.1-.7.2-.8c.1-.1.1-.2 0-.3-.1-.1-.2-.2-.1-.4 0-.1 0-.2-.1-.2s-.1-.1-.1-.2c0-.2 0-.2.2-.2s.2-.1.1-.3c-.1-.2-.1-.2 0-.2s.1-.1.2-.4c0-.6-.1-1-.2-1-.3.1-.3-.9 0-1.2.1-.2.3-.3.4-.3.1 0 0-.1-.1-.1-.2-.1-.2-.1 0-.3.3-.2.2-.4-.1-.3-.4.2-.3-.1 0-.9.1-.2.1-.4.1-.5 0-.1.1-.2.2-.2s.2-.1.1-.2-.1-.4 0-.8c.4-1.8.5-2.5.7-2.9.1-.2.2-.5.1-.6-.1-.4.9-3.4 1.2-4.5.2-.9 1.6-4.4 1.9-5.4.3-.9 2.2-4.9 2.6-5.5.6-.8.9-1.4.8-1.5-.1-.1 0-.3.8-1.7.4-.7 2.7-3.8 3-4.2.6-.6.6-.8 1.6-1.7.4-.3.7-.7.8-.8.1-.1.3-.3.5-.4.2-.1.6-.4.8-.7 1.2-1.1 5.3-4.3 5.5-4.2 0 0 .1 0 .1-.1.1-.2 1.8-1.5 3.2-2.3.7-.5 1.5-1 1.8-1.2.3-.2.5-.3.6-.3.1 0 .1 0 .1-.1 0-.2 1.2-.9 1.5-.9.2 0 .2 0 .2-.1-.1-.1 0-.2.2-.3.2-.1.3-.1.3-.1s.3-.1.6-.3c.4-.3.6-.3.8-.2.2.1.2.1.2 0-.1-.1 0-.2 0-.3.2-.2.3-.2.4 0 0 .1 0 .1-.1.1s-.1 0 0 .1c.2.2.6-.1.5-.4 0-.2.2-.3.5-.3.1 0 .1-.1.1-.2s0-.1.1-.1c0 0 .5-.2 1.1-.5 1.6-1 2.6-1.6 2.7-1.6.1 0 .2-.1.1-.1 0-.1.9-.7 1.3-.8.2-.1.3 0 .3.2s.1.2.4 0c.8-.5.9-.6.8-.7-.1-.2.1-.4.4-.5.2 0 .2 0 .2.2 0 .1 0 .2.2.1.1 0 .2-.1.2-.2s.1-.1.2-.1.2 0 .2-.1-.1-.2-.4-.1c-.3.1-.3.1 0-.2.2-.1.5-.2.5-.2.1 0 .1 0 .1-.1s.1-.2.2-.2c.2 0 .2 0 .2.2 0 .1 0 .2.2.2s.2-.1.1-.3c-.1-.2-.1-.2 0-.1.1.2.4.2.3 0-.1-.3 0-.3.2-.1.2.2.3.2.5.1.4-.2.3-.4-.2-.2s-.2-.1.4-.4c1.4-.6 1.5-.8 2.7-1.2.2-.1.5-.2.6-.2.1-.1.1 0 .1.1s0 .2.1.1.1-.2.1-.3c-.1-.1.1-.3.3-.2 0 0 .2-.1.3-.2.2-.1.4-.1.5-.1.2.1.2 0 .2-.1s0-.1.1-.1.1 0 .2-.1c0-.2.3-.3 1.4-.5.3-.1.6-.2.7-.2.2-.1.9-.3 1.1-.4.1-.1.4-.2.7-.2 1-.3 1-.4 3.6-1.2.4-.1.7-.3 1.3-.5 2.4-.7 3-1.2 3.3-1 .2.1.2.1.1-.1s-.1-.2.1-.1c.1.1.3.1.3 0 .1-.1.8-.3 1.5-.5.2-.1.4-.1.4-.1s.1-.1.2-.1c1.3-.4 1.8-.6 1.7-.8 0-.1 0-.1.1-.1s.3-.1.4-.2c.1-.2.2-.2.2-.1s.1.1.3.1c.2 0 .2 0 .1.1s-.1.2-.1.2c.6 0 .8-.1.5-.3-.1-.1-.2-.1 0-.2.1 0 .2 0 .2.1s.2.1.4 0c.7-.2 1.1.2.9-.2-.1-.2-.1-.2.1 0s.3.2.7-.1c.3-.1.5-.3.6-.4 0-.1.2-.1.4-.2.2 0 .4-.1.3-.2 0-.1-.1-.1-.2-.1s-.1 0-.1-.1h.4c.2.1.6 0 1.6-.4.7-.3 1.4-.5 1.4-.5.1 0 .3-.1.5-.2.4-.2 1.3-.6 2.3-.9.5-.2 1.1-.4 1.5-.6.7-.1 2.4-.4 2.7-.6.1-.1.3-.1.4-.2.1 0 .2-.1.3-.1.1-.1.8-.4 2.2-.9.4-.1.7-.2.8-.2.1 0 .2 0 .4-.1s.3-.1.3 0 .1.1.2 0c.3-.3 2.1-.5 2.3-.7 0-.1.4-.1.8-.1.6 0 .7-.1.9-.3.1-.1.4-.3.8-.4 2.3-.5 4.6-1.3 4.6-1 0 .1 0 .1.1 0 0-.1.4-.3.8-.4.5-.1.7-.1.6 0-.1.1 0 .1.1 0s.2-.2.5-.1c.4.1 1.3-.1 1-.2-.1-.1-.1-.1 0-.1s.2-.1.2-.2c0-.2.5-.2.6 0 0 .1 0 .2-.2.2-.1.1.1.1.4 0 .4.1.5 0 .4 0-.3-.1 0-.2.2 0 .2.1 1.8-.1 2-.2 0-.1-.4 0-.9.1-.6.1-.9.1-.9 0 .1-.2.9-.4.9-.3 0 0 .6 0 1.3-.1 1.4-.2 4.3-.5 5.4-.6 1-.1 2-.2 5-.4 5.4-.5 4.9-.6-1.3-.1-1.5.1-4.5.4-5.4.4-.2 0-.4 0-.4-.1s.2-.1.4-.1c.3 0 .5 0 .4-.1 0-.1-.1-.1-.3-.1-.3.1-.7-.2-.4-.4.1-.1.2-.1.2 0s.5 0 1.2-.1c1.7-.3 1.6-.1 5.3-.5 3.1-.3 3.3-.3 6.5-.5 4.8-.3 6.2.1 6.1-.1 0-.1-2.3-.3-2.4-.2 0 .1-.2.1-.3 0-.1-.1-.5-.1-.7-.1-.2 0-.5 0-.6-.1-.1-.1-.1-.1.1-.1.1 0 .3 0 .3-.1s.1-.1.2 0 .4.1.8.1c.4-.1.6-.1.6 0 0 0 .9.1 1.9.1 1.9.1 2.8.2 1.6.3-1.2.1.1.3 1.5.3.3 0 1.2.1 2.2.2.4.1.9 0 1 0 .2-.1.3-.1.4 0 0 .1.9.1 2.1.1.6 0 1.5.1 1.6 0 .1-.1-.4-.2-1-.2-.4 0-.6 0-.6-.1s.1-.1.2-.1h2.1c.1.1.2.1.3 0 .1-.1.5.1.4.3 0 .1.1.1.2.2.2 0 .3.1.3.2s.1.1.1 0 .1 0 .2 0c.1.1.4.1.7.1.7 0 1.3 0 1.5.1.2.1.8.1 1.1.1.6.1.5 0 1.8.2 1 .2 1.2.1.6-.1s-.3-.3.4-.1c.4.1.5.2.3.2-.4.1-.2.1.6.2.5.1.6.1.4 0-.5-.3-.3-.3.7 0 .8.2 1 .3 1 .5v.1c.1-.1.2-.1.3 0 .1.1.3.1.4 0 .1-.1.3 0 .4.1.1.1.2.1.3.1.2-.1 1 .1 1.2.4.1.1.1.2.2.1 0-.1.3 0 .6.1s.6.1.6.1.3 0 .6.2c.3.1.6.2.7.2.1 0 .3 0 .4.1.1.1.3.2.4.1.1 0 .5.1.8.2 1.3.5 4.9 1.4 4.5 1.5-.3.1-2.6-.2-3.9-.6-.8-.2-1.5-.4-1.6-.5-.4-.1-.4.1 0 .3.4.2.5.2.3.1-.1-.1 0-.1.1-.1s.2.1.2.1c0 .1.1.2.2.2.3.1.1.4-.2.3-.2-.1-.3 0-.3.1-.1.2-.3.2-.3 0 0-.1-.2-.1-.8-.1-.8.1-.8.1-.4.2.3.1.4.2.3.3-.1.1 0 .2.4.3.5.2.5.2.3.3-.1.1-.3.1-.4 0-.1-.1-.3-.1-.5-.1-.5.1-.6-.1-1.2-.7.7-.1.8-.1.4-.3-.2-.1-.4-.1-.5-.1s-.2 0-.2-.1c.2-.2-2.7-.7-4.1-.7h-.8c-.1 0-.1.1-.2.2 0 .1 0 .2.1.1s1.2.1 1.1.2h-.8c-.4 0-1.1 0-1.6.1s-1 0-1.2-.1c-.3-.1-.3-.2 0-.2.1 0 .4-.4.4-.5 0-.1-.6-.1-1-.2-.7 0-2.6-.3-3.1-.2-.2 0-.2.1 0 .2s.2.2.1.3c-.2.2 0 .2.3 0s.6-.1.7.1c0 .2 0 .2.5 0s1.3-.1 1.4.2c.1.2-.1.3-.2.1-.1-.2-1.7 0-1.8.2-.1.2-.3.1-.3 0 .1-.3-.7-.3-.9 0h-.2c-.1-.1-.2-.1-.4-.2-.4-.2-.4-.2-.3.1.2.3-.1.3-.3.1-.2-.2-.4-.2-.9-.1-.8.1-1.5 0-1.7-.3-.1-.1-.2-.2-.3-.2-.1 0-.2 0-.2-.1 0-.2-.8-.2-1.1.1-.3.3-.7.4-1.1.2-.2-.1-.4-.1-.5-.1-.1 0-.3 0-.4-.1-.1-.1-.5-.1-.9 0-.4 0-.7.1-.7.1 0-.1-3.1.3-3.3.1-.1 0-.3-.1-.5-.1s-.3-.1-.3-.2 0-.1-.1 0-.2.1-.3 0c-.1-.1.1-.1.5-.2 1.1-.1.7-.2-.6-.2-1.2.1-3.3.3-2.5.3.7 0 .9 0 1 .1 0 .1-.2.1-.5.2H120.8c-.4 0-.5-.1-.2-.2.2 0 .3-.1.2-.1-.1-.1-1 0-2.4.1 0-.2.1-.3.1-.3-.3-.3-.4.3-.7 0-.4-.4-1.9 0-1.4.4.1.1.1.1.2.1-.5.1-.7.1-.7.2s0 .1-.1 0c-.2-.2-1.9.1-2.7.1-.6 0-3.2.3-4 .4-1 0-9.2 1.1-10.8 1.4-1.3.2-6 .9-6 1.1 0 .2-.3.5-.5.6-.1 0-.2-.1-.2-.1 0-.1.1-.2.2-.2.2 0 .2-.3 0-.2-.1 0-.5.2-1 .3-1.3.3-1.3.3-1.3.5s0 .2-.1 0-.3-.2-1.2 0c-1.1.2-2 .5-1.9.7 0 .1 0 .1-.1.1s-.4.1-.7.2c-.3.1-.6.1-.7 0-.2-.1-.2-.1-.3.1-.1.1-.8.3-2.4.7-3.4.7-4.9 1.2-6.9 1.6-2 .4-2.9.7-4.7 1.1-1.3.3-2 .6-4.7 1.3-1.1.3-2.1.6-2.3.7l-.3.2c.5 0 .9 0 .6.1-.1 0 0 .1.3.1.4 0 .5 0 .2.1-.2 0-.3.1-.3.2.1.1-.2.2-.6.2-.9.2-2 .4-2.6.6-.5.2-.6-.1 0-.2s.9-.3.6-.4c-.1-.1-.1-.1.1-.1s.3 0 .3.1.2 0 .4 0c.3-.1.4-.1.1-.2-.5-.1.8-.3.8-.6 0-.1-.1-.2-.3 0-.1.1-.5.2-.8.3-.3.1-1.3.3-2.3.6-1.7.2-1.7.2-2.1.4-.4.2-2 .5-2.3.7-.3.1-.9.2-1.3.3-.5.1-.2.3.4.2.4-.1.6 0 .5.1 0 .1 0 .1.1 0s.1-.2 0-.2c-.1-.1.1-.1.3-.2.4-.1.4 0 .2.1s-.1.1.2 0c.2-.1.5-.2.6-.4.1-.1.4-.3.6-.3.4-.1.4 0 .2.1s0 .1.5 0c.4-.1.7-.1.6-.1-.1.1-.1.2-.1.2.1.2-.1.3-1.3.5-1.9.4-2.2.5-2.3.7-.1.1-.6.2-1.1.3-.8.1-1 .2-1.1.5-.1.2-.2.2-.2.2-.1 0-.4.1-.7.3-.3.2-.9.4-1.2.4-.3.1-.6.2-.7.2-.1.1-.4.2-.8.3-.4.1-.9.3-1.2.4-.3.1-.7.3-1 .4-.3.1-.5.2-.6.2-.1.1-1.8.7-2.8 1.1-.2.1-.3.2-.3.2 0 .1-.1.1-.2.1-.4.1-1.6.5-1.5.6 0 0-.1.1-.4.2-.2 0-.7.3-1 .5-.3.2-.7.4-.8.5-.3.1-4.8 2.8-4.9 3-.1.2.8-.3 1.5-.7.5-.3.6-.4.5-.2 0 .1 0 .2.1.2.2.1.2.1 4.1-2 .7-.4 1.5-.8 1.8-.9 3.3-1.4 5.9-2.5 6.1-2.6.1 0 .3 0 .3.1s0 .1-.1.1c-.3 0-1.2.4-1.2.5v.3c0 .2 0 .2.7 0 1.1-.3 2.4-.8 3.3-1.1.5-.1.5-.1.4.1-.1.2-.1.3 0 .4.1.1.3.2.4.1.1 0 .2 0 .1.1 0 .1.2.1.5 0 .5-.1.5-.1.3-.2s-.2-.1.1-.3c.2-.1.5-.1.5 0 .1.1.2.1.3 0 .2-.1.2-.1 0 .1-.1.1 0 .1.6 0 .7-.2 1-.4.8-.6-.1-.1.2-.2.2.1 0 .1.1.2.3.1.2 0 .2-.1.1-.1-.2-.1-.2-.1 0-.3.1-.1.3-.2.5-.2.3 0 .3 0 .2.2-.1.2-.1.2.7 0 1.4-.4 1.5-.4 2.8-.9.4-.1 1.3-.4 1.8-.6 1.2-.3 2.4-.7 2.5-.8.2-.2.1-.3-.3-.2l-.4.1.4-.2c.7-.3 1.7-.6 1.9-.5.1 0 0 .1-.2.1-.3 0-.4.1-.4.3 0 .3.8 0 1.1-.5.2-.2.3-.3.5-.3s.2.1 0 .2c-.2.2-.1.2.4.1.3-.1.6-.2.7-.2 0-.1.2-.1.3-.1.1 0 .3-.1.3-.2.1-.3.3-.3.2-.1-.1.2 1.5-.1 1.7-.3.1-.1.5-.2 1-.4 1.1-.3 1.2-.3 1.5-.5.1-.1 3-1 3.3-1 0 0 .1-.2.1-.3 0-.2 0-.2.1-.1s.2.2.4.2c.5-.1 1.7-.6 1.5-.7-.3 0-.2-.3.2-.1.4.1 1.9-.3 2.1-.6.1-.1.2-.3.4-.3.4-.1.4 0 0 .2-.3.2-.3.2 0 .1.1 0 .3-.1.3-.1 0-.1.4-.2.8-.2.5-.1.9-.2 1-.4.1-.1.2-.2.3-.1.1.2 2.1-.3 2.4-.7.2-.3.9-.5.8-.2-.1.2.8.2 1.3-.1.2-.1.9-.3 1.4-.4 1.6-.3 3-.7 3.7-.8.3 0 .6-.2.8-.3.5-.3 1.4-.5 1.9-.3.2.1.5.1.5 0 .2-.2 1.4-.4 1.4-.2 0 .1.1.1.1 0h.4c.2 0 .5 0 .7-.1.3-.1.5-.2.6-.1.2.1 6-.8 6.7-.8 2.9-.1 5.4-.5 7.5-.6.6 0 .8-.1.7-.2-.1-.1 0-.1 0-.1.1 0 .2 0 .2.1 0 .2.3.2.2-.1-.1-.1-.1-.2 0-.2s.2.1.2.2c.1.1.2.1.5.1.2-.1.4-.1.4 0 0 0 .3.1.5.1.3 0 .4 0 .2-.1-.1-.1-.2-.2-.1-.3 0-.2 0-.2-.3-.1-.5.1-.6-.1.4-.2.5-.1.7-.2.7-.3 0-.1.1-.1.1 0 .1.1.1.3 0 .5s-.1.3.1.4c.2.1 2.8 0 3.9-.1h1c.6.1 1.3 0 1.2-.2 0-.1.1-.2.2-.2s.2-.1.2-.2-.2-.1-.8 0c-.5.1-.9.1-.9 0-.1-.1-.1-.1-.2.1-.1.1-.2.2-.5.1-.5-.1-.5-.3-.1-.4.2-.1.3-.2.3-.3 0-.2.2-.2.3.1.1.2.2.2.4.1.1-.1.2-.2.2-.3 0-.1 0-.1.1 0s.3.2.6.2c1 0 1.4 0 1.4.2 0 .1.1.2.1.3 0 .1.1.1.2 0s.1 0 0 .1-.2.2-.3.2c-.1 0-.1 0 .1.1.2.2 1.7.2 3.7.2H132.1c.5 0 .4-.2 0-.4-.2-.1-.3-.3-.4-.5 0-.2-.1-.3-.1-.4-.3-.1-.2-.3.2-.4.2 0 .3-.1.2-.1-.3-.1-.2-.3.1-.2.2 0 .3.1.3.2s.6.3 1.3.3c0 0 0 .1-.1.2-.3.3.1.4 1.2.4.2 0 .4.1.4.1 0 .1.2 0 .4 0 .2-.1.3-.1.3 0-.1.1.1.1.4.1.4-.1 1.2-.1 2.8 0 .2 0 .2 0-.2-.3-.3-.2-.3-.3-.2-.2h.4c.1 0 .2 0 .1.1 0 .1 0 .1.2 0 .4-.2.4.1.1.2-.1 0-.2.1-.2.2s-.1.3-.3.5l-.4.3.4.1c.4.1 1.9.1 2.7.1h.5l-.2.1c-.4-.3-.3-.6.3-.5.4.1.4.1.2.3-.3.4-.2.5.3.3.3-.1.4-.1.4 0s.3.2.7.2c1.2.1 1.5.1 1.5 0s-.1-.2 0-.3c.1-.2.6-.2.7.1 0 .1-.1.2-.2.1-.1 0-.2 0-.2.1s.5.2.9.2c.2 0 .2-.1.1-.3-.2-.3.1-.4 1.3-.1.5.1 1.1.2 1.2.2.2 0 .2.3-.1.3-.2 0-.3.3.2.1.2-.1.3-.1.3 0-.1.1.2.2.5.2.2 0 .1-.4-.1-.4-.2-.1.7-.1.8 0 .1.1.2.1.3.1.3 0 1.4.1 1.6.2.1 0 .4.1.7.1s.7.1.8.2c.2.1.2.1.1.1s-.2 0-.2.1.2.2.5.2c.6.1 1 0 .5-.1-.2 0-.3-.1-.3-.1.1-.1.8.1.7.2 0 .1.4.2.9.2l.9.1c.1 0 .2.1.4.1h.4c.2 0 .4.1.6.1 0 .1.1.2.3.2.2 0 .2 0 .3-.1h.5c.2-.1.4 0 .6.1.2.1.5.2.7.1s.4 0 .6.1c.1.1.3.2.6.2.2 0 .5.1.6.1.2.1 2 .4 2.8.4.2 0 .4.1.5.1 0 .1.1.1.3.1.1 0 .3 0 .3.1.1.1.2.1.3 0 .1-.1.4 0 .7.1.5.2 1.2.4 1.4.3.1 0 .1 0 .1.1s.1.1.3.1c.1 0 .3 0 .3.1s.2.1.5.1.6 0 .7.1c.3.1 1.4.4 1.7.5.1 0 .5.1.9.2s.7.2.9.4c.1.2.4.4.5.5.1.1.3.2.3.3 0 .1.9 1.5 1.8 2.7.4.6.8 1.1.8 1.2 0 .1.1.1.2.1.1-.1.1-.1.1.1 0 .1.1.3.5.6.3.2.5.4.4.3-.2-.1.2.6.5.7.2.1.2.1.1.2-.2 0 0 .3.6.9.2.2.3.2.2 0-.1-.1-.2-.4-.3-.7-.1-.2-.2-.4-.3-.5-.1 0-.1-.1-.2-.2-.1-.3.2-.1.4.3.1.2.2.4.3.3.1 0 .2 0 .1.1 0 .1 0 .2.2.3.1.1.2.3.3.4 0 .1.1.2.2.1.1 0 .2 0 .2.1.1.1 0 .1 0 .1-.1 0-.2 0-.3.1-.1.1-.2.1-.4 0-.2-.2-.2-.2 0 .1.1.2.2.3.3.3h.3c.2.1.3.2.3.5 0 .2.1.4.2.4s.1 0 .1.1.1.2.2.3c.2.1.2.2.1.2s-.1.1.1.4c.1.2.4.6.5.9.2.5.5.7.6.4 0-.1.2.1.3.3.2.3.3.4.4.3.2-.1.4.3.2.4-.1.1-.1.2 0 .5.1.2.1.4 0 .5-.1.1-.1.1.1.1.1 0 .3.1.4.3.1.3.3.3.4.3.1-.1.2 0 .2.2s0 .3-.1.3-.1.1-.1.2c0 .3 0 .3-.2.1-.2-.2-.2-.2-.2.2.1.6.4 1.3.6 1.2.1 0 .1.1.1.2 0 .3 0 .3.1.1.1-.2.2-.2.3 0 .2.2.2.2.1-.2-.1-.5.2-.2.4.5.1.4.1.5 0 .3-.1-.1-.2-.2-.3-.2h-.3c-.1 0-.1-.1-.1-.2.1-.1 0-.1-.1 0s-.1.2 0 .3c.1.1.2.2.2.3 0 .1.1.2.2.1.1 0 .2 0 .3.1 0 .3.3.2.3-.1 0-.3.3.3.3.6 0 .2 0 .2-.1 0-.2-.4-.3-.3-.1.4.1.6.1.6.3.4.2-.4.3-.3.4.3v.2c-.1-.2-.1-.2-.4-.1-.2.1-.2.5 0 .5.1 0 .1.1.2.3 0 .2.2.5.3.8.2.5.7 1.7.9 2.2v.3c-.1.3.2 1.2.3 1 .1-.2.2-.1.4.4.1.3.1.4 0 .4-.2-.1-.2.4.1.3.2 0 .2 0 .1.1-.2.2-.1.5 0 .3.1-.1.1-.1.2.1.1.1.1.2 0 .2s-.1.1-.1.2c.1.4.5 1.2.5 1 0-.2 0-.2.1 0 .2.2.3.5.1.5-.1-.1-.1.5 0 1.1.1.4-.1.3-.3-.2-.1-.1-.1 0 0 .2s.2.9.4 1.5c.1.6.3 1.1.4 1.2.1.1.1.1 0 .1s-.1.1 0 .6c.1.4.2.7.3.8 0 .1.4 1.6.7 3.4.9 5.2.3 1.2 1.9 11.5.3 1.9.4 3.2.4 4.3 0 1.7.1 3.1.3 4.2.1.4.1.7 0 .7-.1.1-.1.2.1.4.1.1.1.3.1.3-.1 0-.1.5 0 1 .2 2.4.1 2.5.4 2.3.2-.1.2-.1.2.1v.6c.1.5-.2.5-.2.2 0-.2 0-.2-.1-.1-.1.2 0 2.3.1 2.1.1-.1.1-.3.1-.5 0-.5.5 2.4.4 2.4-.1 0-.1.9.1.7.2-.1.2.4 0 .6-.1.1-.1.5-.1.9 0 1.1-.1 2.1-.2 2-.2-.1-.1.2.1.5.1.2.2.7.2 2 0 2.8-.1 5.6-.2 5.7-.1.1-.1.2 0 .3.1.1.1.2 0 .3-.1.1-.1.4 0 .7.1.3.1.9 0 1.3 0 .5 0 .8.1.9.1.1.1.2 0 .2s-.2.6-.2 1.3c-.2 2.8-.4 5.2-.4 5.5-.1.5-.3 3-.4 3.2-.1.1-.1.3 0 .4 0 .2 0 .4-.1.6-.1.2-.2.7-.3 1.2-.1 1.2-.4 2.9-.6 3.7-.1.3-.3 1.2-.5 1.9-.4 1.8-.8 2.8-.9 2.7-.1-.1.9-4 .9-4.1 0-.2-.3.3-.4.8-.1.7-.3 1.3-.6 2.6-.4 2-.6 2.3-2.2 4.3-.8 1-2 2.5-2.9 3.7-.8 1-2.1 2.4-2.5 2.7-.2.1-.3.2-.3.3 0 .1-.1.1-.2.2-.2 0-.7.4-.8.6-.1.1-.2.2-.3.2-.1 0-.3.2-.5.3s-.4.3-.5.3c-.1 0-.4.2-.7.4-.3.2-.6.5-.7.5-.8.5-1.2.8-1.1.9 0 0 0 .1-.1.1-.4.1-.6.2-.6.4s-.1.3-.2.2c-.2-.1-3.9 2.6-4.3 3-.2.2-.6.5-.8.6-.1 0-1.6 1.1-2.2 1.6-.2.1-.5.4-.9.6-.7.4-.8.6-.7 1.1.1.2 0 .3-.1.3s-.2-.2-.2-.4v-.3c-1.4 1.1-2.3 1.6-2.6 1.9-.4.4-1.1.7-2.1.9-.6.1-.8.2-.7.3.1.1.1.2-.1.2-.3.1-.5.1-.3-.1.1-.1.1-.2-.1-.2-.2-.1-.3-.1-.4 0 0 .1-.2.1-.3.1-.2 0-.2.1-.2.4v.3c-.1 0-.3.1-.6.3-.6.4-.7.4-.9 0-.1-.2-.2-.4-.3-.5-.2-.1-.2-.1-.2.1 0 .1-.1.3-.3.3-.2 0-.1.1.1.1.4.1.6.3.2.4-.1 0-.4.1-.5.3-.1.1-.4.3-.7.3l-.4.2c0 .2-.5.5-.9.6-.1 0-.2-.1-.3-.2 0-.1-.1-.1-.2-.1-.2.1-.6-.3-.5-.5.1-.4-.2-.1-.5.4s-.5.7-.5.4c0-.1.1-.2.2-.4.2-.4.2-.8 0-.7-.4.1-.6.3-.7.8-.1.4-.2.5-.4.6-.3.1-.3.1 0 .1.4 0 .4.1.5.6-1.5-.5-1.7-.7-1.5-.1 0 .1 0 .2-.1.2s-.1-.1-.2-.3c-.1-.5-.3-.5-1-.2-.4.1-.8.3-.9.3-.1 0-.4.1-.5.3-.2.2-.2.2.2 0 .3-.1.5-.1.6 0 .1.1 0 .1-.1.2-.2 0-.2 0 0 .1.3.1.3.6 0 .7-.2 0-.3-.1-.3-.5 0-.1-.1-.2-.1-.1-.1 0-.1.1-.1.2s-.1.2-.2.3c-.2.1-.2.1 0 .2.1.1.2.1.1.2s-.2 0-.2-.1c-.2-.3-.3-.2-.3.1 0 .2-.1.3-.3.3-.2 0-.3 0-.4-.1 0-.1-.1-.2-.2-.2s-.1.1-.1.3c.2.4-.2.2-.6.4-.1.1-.2 0-.2-.1 0-.3-.3-.2-.3.1 0 .2-.1.3-.6.3-.3.1-.6.1-.6 0s-.3 0-.6.1c-.6.2-.6.2-.5-.1.1-.2.2-.3.4-.3s.2 0 .1-.2c-.2-.3-.2-.4.2-.5.1 0 .2-.1.2-.2s-.2-.2-.5-.1h-.6c-.1 0-.2.1-.2.3 0 .3-.1.4-.6.4-1.5.2-2 .3-2.1.2-.1-.1-.3 0-.3 0-.1.1-.5.2-1 .3-.5.1-1 .2-1.2.3-.3.1-.4.1-.4 0s-.1-.1-.2.1c-.2.2-.4.3-1 .3-.4 0-.9.2-1.2.3-.3.2-.5.2-.7.1-.1 0-.4-.1-.5 0-.1 0-.3.1-.4 0-.1 0-.4 0-.8.1-.6.1-.6.2-.5.3.2.1.1.2-.1.2s-.3 0-.2-.1c0-.1 0-.1-.1-.1s-.2 0-.3-.1c-.1-.1-.1-.1-.2 0s-.2.2-.3.1c-.2 0-.2 0-.1.3.2.4.1.5-.5.4-.5-.1-.7-.3-.3-.3.1 0 .1-.1-.1-.1s-.4-.1-.4-.2-.1.1-.2.3c-.1.4-.2.5-.5.5s-.4 0-.3-.2c0-.4-.3-.3-.2 0 0 .2 0 .3-.5.3-.3 0-.5 0-.5-.1s-.1-.1-.2 0-.2.1-.2 0c0-.2-.9-.1-1 .1 0 .1.1.2.3.2.2 0 .2 0-.1.1-.2 0-.4 0-.4-.1 0-.3-.3-.2-.2 0 .1.3-.2.6-.6.5-.2 0-.6.1-.8.2-.3.1-.5.1-.9.1-.3-.1-.5-.1-.5 0s-.1.1-.2.1c-.4-.1-4.8.6-5.2.4-.1 0-.2 0-.3.1-.1.1-.1.2-.3.1-.1-.1-.2-.1-.3 0 0 .1-.2 0-.3 0-.2-.1-.3-.1-.7.1-.5.3-1.2.4-1.5.3-.1 0-.5 0-.9.1s-.7.1-.7.1c0-.1 0-.1-.1-.1s-.2-.1-.2-.2c0-.2 0-.2-.2.1-.2.3-1.1.8-1.3.7h-.5c-.2.1-.3 0-.3-.1s0-.2-.1-.2-.1 0-.1.1c.1.2-.5.3-.6.1-.1-.1-.1 0-.2.1-.1.2-1.4.4-3.3.8l-.3-.4c-.2-.2-.3-.3-.3-.2 0 .1-.1.2-.3.2-.2 0-.4.2-.4.3-.1.1-.1.1-.1 0 0-.2-.1-.3-.4-.2-.1 0-.1.1 0 .1.2.1.2.1 0 .3-.1.1-.3.2-.4.2-.2 0-1.1 0-2.9.2-.5 0-1.1 0-1.3-.1-.2-.1-.4-.1-.4 0s-.1.1-.2.1-.2 0-.2.1-.1.2-.3.2c-.1 0-.2 0-.1-.1 0-.1 0-.1-.3 0-.2.1-.4.1-.4 0s-.2 0-.3 0c-.3.2-2.1.5-2.3.4-.1-.1-.2-.1-.3.1-.1.1-.2.2-.6.2H96c-.1 0 0-.1.1-.3.3-.6-.2-.4-.8-.2-.1 0-.1.1-.1.3.1.3-.6.5-.9.2-.1-.1-.2-.2-.2-.1s-.1.1-.3 0c-.3-.1-.3 0-.4.3 0 .2-.1.3-.2.4-.3 0-.8-.1-.7-.2.1-.2-.2-.1-.2.1 0 .1-.1.1-.4 0-.2-.1-.4-.1-.4 0s-.2.1-.3 0c-.2-.1-.3 0-.3.1-.1.2-.2.2-.6.2-.3 0-.5-.1-.5-.2s-.2-.1-.4 0c-.3.1-.4.1-.5-.1.5-.3.2-.8-.3-.8.1 0 .3 0 .5-.1.4-.1.8-.1 1 0 .3.1.4.1.5 0 0-.1.1-.1.2 0s.5.1 1.4-.3c.3-.1.4-.1.4 0s.1.1.2 0 .3-.1.4 0c.1.1.3 0 .5-.1s.5-.2.8-.2c.3 0 1.1 0 1.9-.1.1 0 .3 0 .4.1.1.1.3 0 .4-.1.1-.1.4-.1.6-.1.2 0 .6 0 .8-.1.5-.2.6-.2.7-.2.1 0 .9-.1 1.8-.2 1.2-.2 1.8-.2 2.1-.1.3.1.4.1.5 0 .1-.1.3-.2.6-.2.2 0 .7-.1.9-.1h1c.1.1.2.1.4 0 .2-.2 1.4-.4 1.4-.2 0 .1.3 0 .7-.1.4-.1 1.2-.3 2-.4.7-.1 1.4-.3 1.4-.4.1-.1.3-.1.4-.1.2 0 .6 0 .9-.1.5-.1.6-.1.8.1.2.2.2.2.5-.1.2-.2.4-.3.6-.2.2 0 .6 0 .9-.1.9-.2 1.1-.2 1.2-.1 0 .1.1.1.2 0 .3-.3 3.6-.8 4.1-.9l-.1-.4v-.6c.1-.2-.1-.3-.5-.1-.3.1-.4.2-.3.3.1.2.1.2-.1.1-.3-.2-.5-.1-.2.1.2.2.2.2 0 .1-.1-.1-.2 0-.1.1s.1.2-.1.2-.5-.3-.3-.5c.1-.1-.1-.8-.2-.8s-.1.1-.1.2-.1.2-.2.2-.3.1-.4.2c-.3.3-.3.2-.4-.1-.2-.4-.4-.4-.6-.1-.2.3-1.1.5-1 .2 0-.1 0-.1-.2 0-.1.1-.4.2-.6.2h-.6v-.1c.4-1.1-1.2-.3-1 .2h-1.2c-.5 0-.6.1-.7.3-.1.2-.1.4 0 .5.1.1 0 .2-.1.3-.3.2-.3.1-.2-.3.1-.4.1-.4-.2-.4-.1 0-.4.1-.6.2-.2.2-.4.2-.5.1-.1-.1-.2-.1-.2 0s-.1 0-.1-.1c-.1-.1-.1-.1-.1.1 0 .3 0 .3-.5.1-.3-.1-.5-.1-1 .1-.4.1-.7.2-.8.1-.5-.2-.9-.1-.8.1 0 .2-.2.3-.4.2-.2-.1-1.1 0-1.5.2-.2.1-.4.1-.4.1 0-.1-.7 0-1.5.2s-1.4.2-1.5.2c-.1 0-.2-.1-.3-.1-.4.1-.7-.2-.6.2 0 .2 0 .2-.3.2-.2-.1-.4-.1-.4-.2s-.2 0-.5.1-.5.1-.6 0c-.1-.1-.2-.1-.2 0s-.2.2-.3.3c-.1.1-.2.2-.2.3 0 .1-.1.2-.2.3-.3.2-.3.2-.2-.2.1-.3.1-.3-.1-.4h-.6c-.4.1-.4.1-.1.3.3.2.3.2-.1.3-.3 0-.4-.1-.4-.2 0-.2-.1-.2-.6-.2-.3.1-.7 0-.8-.1-.2-.1-.2-.1-.2 0s-.1.1-.2.1-.3.1-.5.2c-.2.2-.2.2.2.3.4 0 .4 0-.2.2-.7.2-.7.2-.6-.2.2-.4-.2-.6-.5-.2-.3.3-.9.5-.8.3 0-.1-.1-.2-.2-.1 0 0-.2 0-.3-.1-.3-.1-.3-.1-.5.2-.2.2-.2.3-.3.1-.1-.1-.4-.2-.7-.1-.3 0-.6 0-.6-.1s-3 .4-3 .5c0 .1-.2.1-.3 0-.1-.1-.4-.1-.4 0-.1.1-.2 0-.2-.1s-.1 0-.3.3c-.2.4-.3.4-.4.2-.1-.3-.5-.4-.7-.2-.1 0-.1.1-.1.2.1.1 0 .1-.2 0-.3-.1-.3-.1-.4.1-.1.2-.6.4-1.3.5-.4.1-1-.2-.8-.3.3-.1 0-.2-.7-.2s-1 .2-.5.3c.3 0 .3.1-.1.2-.3.1-.5.1-.8-.1-.3-.2-.3-.2 0-.2.2 0 .2 0 0-.1-.3-.1-.5 0-.4.2.1.2-.2.1-.5-.2-.3-.2-.5 0-.5.2s-.4.3-.4.1c0-.1-.1-.1-.3 0-.2.1-.2.1-.2 0s0-.1-.3-.1c-.4.1-.6.5-.4.8.1.2.1.2.2 0s.1-.2.1.1c0 .1.2.3.3.3.2 0 .2.1.1.2-.2.3-.1.5.1.2.1-.1.2-.3.1-.4 0-.3.4-.5.7-.4.2.1.4.1.5 0 .1-.1.2 0 .2.1 0 .2.5.1 1.6-.2.3-.1.5-.1.4 0-.1.2.9.2 1 0 .1-.1.2-.1.3 0 .2.2 1.8.1 1.9-.1.1-.2.6-.3.6-.1 0 .1.2.1.5 0 1.4-.2 2.8-.3 2.9-.2h.1c-.2 0-.3.1-.5.3-.7 1 .4.6.4.6.1 0 .1 0 .2-.1.2.1-.2.3-1 .4-.9.1-1.1.1-1.1 0s0-.2-.3 0c-.2.1-.4.1-.5 0-.1-.1-.2-.1-.3 0-.2.2-1 .2-1.3 0-.2-.2-.2-.2-.1 0 0 .3-.4.6-.8.4-.2-.1-.4-.1-.5-.1-.1.1-.2 0-.2-.2s-.1-.3-.3-.3c-.2 0-.2 0 0 .4.2.3.1.4-.1.4-.1 0-.3-.1-.3-.2 0-.2-.2-.2-.3 0 0 .1-.2.1-.3.1h-.3c0 .1-.1-.1 0-.3 0-.4 0-.5-.3 0-.2.2-.3.3-.4.2-.1-.1-.2-.1-.3 0-.2.2-1.2.3-1.2.1 0-.4-2.2.4-3.2 0-.2-.1-.6-.1-.9 0-.3.1-.5.1-.5 0s-.1-.1-.1 0c-.1.1-.2 0-.3-.1-.3-.2-.5-.2-.5 0 0 .1-.1.1-.2-.1-.2-.3-.5-.3-.3 0 .1.2 0 .2-.2.2s-.3 0-.2.1c.1.2-.5.2-.5 0 0-.1-.4-.4-.6-.4-.1 0-.1.1-.1.2s-.9.2-1.7.2c-.3 0-.6 0-.7.1-.1.1-.2 0-.2-.1s-.2-.3-.3-.5c-.2-.2-.2-.2-.1.1.1.3.1.4-.1.4-.3.1-1.4-.2-1.5-.5 0-.1-.1-.2-.4-.1-.3.1-.4 0-.4-.1s-.1-.2-.2-.1-.1.2 0 .4c.1.3.1.3-.4.3-.3 0-.8 0-1-.1-.2-.1-.5-.1-.5-.1h-.3c-.1-.1-.4-.1-.6 0-.2.1-.4.1-.6 0-.1-.1-.5-.1-.9-.1-.6.1-.7.1-.7-.2 0-.3-.1-.3-.4-.1-.4.2-.6.2-.4-.2.1-.2.1-.3-.1-.3-.3-.1-.5 0-.4.2 0 .1.1.2.1.3.1.2-.1.2-.9.1-.5 0-1.3.1-1.2.3 0 0-.2.4-.5.8-.5.6-.5.7-.3.8.2.1.1.1-.2.2-.3.1-.5.2-.6.4-.1.2-.2.3-.3.3-.2 0-.5.3-1.8 1.7-1 1-1.5 1.5-2.2 2.5-.1.2-.3.4-.4.4-.1 0-.2.1-.1.1.1.3-3 4.2-3 4.2-.1.1-.3.2-.3.2-.1 0-.1 0-.1.1.1.3 0 .3-.2.1-.2-.2-.2-.2 0-.4.1-.1.3-.2.3-.2.1 0 .2-.1.2-.3.1-.4.3-.6.7-.8.3-.1.8-.8.6-.9-.1-.1-1 .7-1 .9 0 .1-.1.2-.2.2-.2.1-.2.2-.2.4s0 .3-.1.1c-.1-.1-.2-.1-.2 0s-.2.2-.3.2c-.1 0-.3.2-.5.5-.3.5-.3.6 0 .5.1-.1.2 0 .2.1 0 .3-.3.5-.6.2-.1-.1-.3-.2-.4-.1-.1.1-.1.1 0 .1.3 0 .3.4-.1.9-.2.2-.4.4-.6.3-.1 0-.2 0-.2.1s.1.1.1.1c.2 0 .1.4-.1.3-.1 0-.1 0-.1.2 0 .1-.1.2-.2.2s-.2.1-.2.2-.1.2-.3.3c-.2.1-.3.3-.3.4 0 .1-.2.3-.5.4-.4.1-.5.2-.4.4.1.2 0 .3-.1.3s-.3.2-.4.4c-.1.2-.2.3-.2.2 0-.1-.4.2-.3.4.1.2-.3.9-.6 1-.1 0-.1.1-.1.1 0 .1-.1.4-.3.7-.2.3-.4.5-.5.4 0-.1.1-.3.2-.5l.2-.3c-.3.1-.6.3-1 .3-.2 0-.3.2-.3.4 0 .3-.1.4-.4.3-.2 0-.3 0-.2.1.2.2-.1.2-.2 0-.1-.1-.1-.1-.1 0s.2.2.3.3c.3.2.3.2-.2.2-.3 0-.5.1-.5.2s0 .1-.1.1c-.1-.1-1.1 1.4-1.1 1.6 0 .2-.2.3-.5.2-.3-.1-.2.2-.1.2s.1.1.1.3c-.1.3-.3.2-.3-.1-.1-.4-.3-.3-.3.1 0 .2-.1.4-.3.4-.2.1-.2.1.2.4.3.2.4.4.4.4-.1 0-.3-.1-.4-.2-.3-.2-1-.2-1.2.1-.1.1-.3.2-.4.2-.1 0-.2.1-.2.2 0 .2-.3.6-.5.7-.1 0-.2-.1-.2-.3 0-.5-.3-.4-.9.3-.6.7-.6.9-.2.5.4-.3.7-.4.7-.2 0 .1 0 .1-.1.2-.1 0-.2.2-.2.5s-.1.4-.2.4l-.2.2c-.1.2-.2.3-.3.3-.3 0-.9.9-1 1.3 0 .2-.1.3-.3.4-.2 0-.2 0-.1-.1s.1-.2-.1-.1c-.1 0-.2.1-.2.2s-.3.4-.8.7c-.1.1-.2.2-.2.3.3.8.2 1 0 1.1" class="st0"/>
  <path d="M42.3 26.9c0-.2-.3-.1-.3 0 .1.2.4.2.3 0M3.1 69.8c-.1 0-.1.1 0 .1.1.1.1.1.2.1 0 0 .1-.1 0-.1 0 0-.1-.1-.2-.1M5.4 62.4c0 .2.2-.3.2-.4 0-.2-.2.2-.2.4M152 6c-.6-.2-1.1 0-.6.3.2.1.9 0 .9-.1s-.1-.2-.3-.2M14 41.4c0-.1-1 1-.9 1.1.1.1.9-.9.9-1.1M128.3 143.9c.2.1.4-.1 0 0-.1-.1-.1 0 0 0M118.5 6.5c-.4.1 0 .2.2 0h-.2M6.4 56h-.1c-.2 0-.1.3 0 .2.1-.1.1-.2.1-.2M153.3 5.4c-.4-.2-.5-.2-.4-.1.1.2.5.3.6.2-.1 0-.1-.1-.2-.1M132.3 5.6c-.3 0 0 .3.1.2.2-.1.1-.2-.1-.2M125.1 5.8c-.1 0-.1.1-.1.2s0 .2.1.1c.2-.1.2-.3 0-.3M141.2 7.9c-.3-.1-.4-.1-.5.1-.1.2.2.3.7.1.1 0 .1-.1-.2-.2M134.3 7.1c.1-.1.1-.1.1-.2h-.1c-.2 0-.1.3 0 .2M124 6.8c-.3.1.1.2.2 0h-.2M140 6.2l-.6-.2c-.4-.1-.7-.2-.9-.1v.3h.1c.3.1 1.5.1 1.4 0M140.3 7.6h-.2c-.1 0-.2.1-.2.2 0 .2.1.2.2 0l.2-.2M142.2 6.3c-.1 0-.2.1-.1.1.1.1.2.1.2.1.1 0 .1-.1.1-.1 0-.1-.1-.1-.2-.1M125.5 7.6c.3.2.3.2.2 0-.1-.1-.1-.2 0-.2s.1 0 .1.1.2.1.5 0 .6 0 .7 0c.1.1.3.1.5 0s.3 0 .3 0c0 .2.5.2.8 0 .2-.2.2-.2 0-.3-.1-.1-.5-.1-.9-.1-1.4.1-1.9.1-2.2.1-.4-.1-.4.1 0 .4M129.6 7.1c-.4.1-.4.1-.1.4.5.3.9.4.9.3 0-.1.2-.2.4-.2.5-.1.6-.3.1-.4-.4 0-.4 0-.3-.3.1-.1.1-.3.1-.3-.2-.1-.5 0-.7.2 0 .2-.2.3-.4.3M80.3 11.5c-.3-.2-.4-.2-.3 0 .1.1 0 .2-.1.2-.3.1.6 0 .6-.1 0 0-.1 0-.2-.1M50.1 21.3c.1 0 .3-.1.4-.2.1-.1.1-.1-.2 0-.4.2-.5.2-.2.2M56.5 20.4c-.2.1-.2.1 0 0 .1.2.3 0 0 0M56.1 19.4c-.5.1 0 .1.2 0h-.2M57.6 19c-.8.3-1.1.1-.7.4.2.2.3.2.5-.1l.4-.4c.1 0 0 0-.2.1M52.7 20.6c-.3.1-.4.2-.4.3.1.1.3 0 .5-.1s.5-.2.7-.2c.5-.1.5-.1.5-.3 0-.1-.2-.1-.4 0s-.7.2-.9.3M70.8 17.2c0-.1-.1-.1-.2-.1s-.1.1 0 .1c.1.1.1.1.2.1v-.1M142.7 145.9c0 .2.3.1.3 0-.1-.2-.3-.2-.3 0M54.9 19.8l-.6.2c-.1.1.4.1.6 0 .1-.1.3-.1.4-.1s.2-.1.2-.2c0 0-.2 0-.6.1M58.1 20c.1-.1.1-.1-.2-.1-.2 0-.3.1-.3.2 0 .2.2.1.5-.1M136.3 147.3s-.1-.1-.2-.1-.1 0-.1.1.1.1.2.1c0-.1.1-.1.1-.1M48.7 22.1c.2.1.4-.1 0 0-.1 0-.1 0 0 0M113.7 6.9c0 .1.1.1.3.1.4 0 .4 0 .1.1-.3.1-.3.1 0 .1.1 0 .3-.1.4-.2.1-.2 1.2-.2 1.2 0-.1.2.2.1.2-.1 0-.1.1-.1.3-.1h.9c.3-.1.6 0 .6 0-.1.2.1.1.3-.1.2-.2-.1-.2-1.9-.1-1.1 0-2.3.2-2.4.3M64.2 17c-.4.1 0 .2.2 0 .1-.1 0-.1-.2 0M66.4 16.7c.2 0 .4-.2 0 0-.1-.1-.1 0 0 0M59.7 20.6c0 .2.1.1.5-.1.2-.1.2-.1-.1-.1-.2 0-.4.1-.4.2M65.1 16.7c-.2 0-.3.1-.3.2-.1.2.1.3.2.1 0-.1.1-.2.1-.3.3 0 .2-.1 0 0M60.2 18.2c0 .1.4.1.5-.1 0-.1-.5 0-.5.1M65.2 17.8c0-.1-.1-.1-.3-.1-.2 0-.4.1-.4.2 0 .2.6.1.7-.1M59.4 18.4c-.6.1-1.3.4-.9.4.3 0 .4 0 .9-.2s.5-.3 0-.2M61.1 17.9c-.5.1 0 .1.2 0 .1-.1 0-.1-.2 0M62.1 17.7c0-.1-.1-.1-.1 0-.1.1-.1.1-.1.2 0 0 .1.1.1 0s.1-.2.1-.2M51.3 21.3c.8-.3 1.1-.6.4-.4-.9.3-2.3.9-2.4 1-.2.2.7-.1 2-.6M76.8 12.1c.1.1 1.2-.1 1.2-.2.2-.1-1.2.1-1.2.2M76 12.3c-.2 0-.3.1-.2.1.2.1.2.1 0 .2s.6.1.5-.1c-.1-.1 0-.1.1-.1s.2-.1.3-.2c0-.1 0-.1-.1 0-.2 0-.5.1-.6.1M78.7 11.9c.5 0 .6-.1.6-.2s-.2-.2-.3-.1c-.2 0-.5.3-.3.3M68.1 14.4c0 .1 0 .2-.2.3-.3.2-.1.2.4.1.1 0 .4-.1.7-.2.4-.1.7-.4.3-.4-.1 0 0-.1.2-.2s.3-.2.1-.1c-.5 0-1.6.4-1.5.5M74.2 13.1c.4 0 1.1-.2 1.1-.3h-.6c-.4.1-.5.1-.4 0 .1-.1.1-.2 0-.1-.1 0-.2.1-.3.2 0 .2 0 .2.2.2M83.1 11.6c-.2 0-.1.3 0 .3.2-.1.2-.4 0-.3M122.1 5.3c0-.1 0-.1-.1-.1s-.2.1-.2.2.1.1.1.1c.1-.1.1-.2.2-.2M57.2 20.3c0-.2-.3-.1-.3 0 .1.2.3.2.3 0M60.9 20.3c.2.1.4-.1 0 0-.1 0-.1 0 0 0M80.7 11.3c.1-.1.2 0 .2.1s0 .1.1 0c0-.1.2-.2.4-.3.3-.1.2-.1-.2 0-.3 0-.6.1-.7.2.1.1.1.1.2 0M67.2 14.9c0 .1.1.1.1.1.1 0 .1-.1.2-.2.1-.2-.3-.1-.3.1M83 13.2c-.1 0-.2 0-.3.1-.1.1-.1.2.2.1.3 0 .3-.1.1-.2M60.6 16.3c-.3.1.1.2.2 0h-.2M59.2 17.1c-.5.1-.5.4 0 .2.5-.3.5-.3 0-.2M76.1 14.1c.2.1.6-.2.1-.1-.2 0-.2.1-.1.1M69.9 15.5c0 .1.1.1.3 0 .7-.3-.2-.2-.3 0M67.9 18.1c.1.1.2.1.2.1.1 0 .1-.1.1-.1 0-.1-.1-.1-.2-.1-.1-.1-.1 0-.1.1M76 13.8c.3.1.4-.1 0 0-.1 0-.1 0 0 0M83.3 12.3c.1-.2-.3-.1-.4.1-.1.2.3.1.4-.1" class="st0"/>
</svg>