<svg xmlns="http://www.w3.org/2000/svg" xmlns:xlink="http://www.w3.org/1999/xlink" xml:space="preserve" id="Layer_1" x="0" y="0" version="1.1" viewBox="0 0 205.2 171.2">
  <path d="M139.4 2.9c.3.1.5.1.3 0 0 0-.2-.1-.4-.1s-.2 0 .1.1M158.1 13.4c.4-.1 0 0-.4-.2-.2-.1-.2-.1 0 .1 0 .1.3.2.4.1M158.6 13.1c.1.1.3.2.3.2.2 0 .1-.2-.1-.3-.4-.1-.5-.1-.2.1M158.1 12.9c.1 0 .2-.1 0 0 .1-.1-.1-.1-.3-.2-.3 0-.3 0-.1.1.2.1.4.1.4.1M140.1 3c.1.1.3.2.6.2.4.1.6 0 .2-.1-.9-.3-.9-.3-.8-.1M167.5 13.3c.1.1.3.1.4 0 .2-.1.2-.1.1 0-.1.2.2.4.2.2 0-.1.2-.1.5.1.9.4 1.5.6 1.6.5 0 0 0-.1-.1-.1s-.1-.1-.1-.2c.1-.1-.2-.3-.8-.4-.5-.1-1.1-.2-1.3-.2-.3 0-.4-.1-.3-.2 0-.1 0-.1-.1 0-.2.2-.2.2-.1.3M154.3 13.2c.4-.2.4-.2.1-.3-.2-.1-.4 0-.5.1-.3.3-.1.4.4.2M164.6 13.1c-.3-.1-.6-.1-.6 0s.1.1.1.1c.1 0 .2 0 .3.1.1 0 .2 0 .2-.1.1-.1 0-.1 0-.1M144.2 3.9c.2.1.6-.1.2-.1-.2 0-.3 0-.2.1M151.9 5.7c.1.1.9.2.9.1 0 0-.1-.1-.2-.1-.3-.1-.8-.1-.7 0M143.1 3.7c.4.1.5 0 .1-.1-.1 0-.3-.1-.4-.1-.2-.1-.1.1.3.2M152.9 5.9c0 .1.4.2.4.1 0-.2-.4-.1-.4-.1M163.5 12.8c-.2-.1-.2-.1 0 0 .2.2.3.1 0 0M149.8 5.2c.6.2.7.2.7 0 0-.1-.1-.1-.2-.1h-.3c0-.1-.2-.1-.5-.2-.5-.1-.2.2.3.3M102.1 1.5c0-.1-.1-.2-.3-.2-.1 0-.3 0-.3.1 0 0 .1.1.3.2.2.1.3.1.3-.1M4.1 90.6h.2s-.1-.1-.2-.1c-.2-.2-.2.1 0 .1M4.4 92.1c.2 0 .2-.3 0-.3-.1.1-.1.3 0 .3M4.8 94.2c.1-.2-.3-.2-.4 0-.1.1-.2.3-.2.5-.1.3 0 .4.3.7l.1.1c0-.1 0-.2-.1-.2v-.2c-.1-.2-.1-.3.1-.5.2-.1.2-.2.1-.3-.1-.1-.1-.1 0-.1-.1.1 0 .1.1 0M4 87v-.2c0-.3-.1.1 0 .2M4.4 85.4c.1.5.2.5.2 0 0-.3-.1-.5-.1-.4-.1 0-.2.2-.1.4M3.9 97.4c0-.2 0-.2-.1-.2-.1.2.1.6.1.2M4.9 95.1c.1 0 0-.1 0 0-.1 0-.1 0 0 0M5 96.5c0 .1.1.2.2.2.2 0 .2-.1 0-.5-.2 0-.4.1-.6-.4-.1 0-.3 0-.4.1-.2.2 0 .3.4.8-.1-.6-.2-.7.1-.5.2 0 .3.1.3.3M4.5 74.1c.2 0 .1-1.5.1-1.4-.2.1-.3 1.4-.1 1.4M4.6 72.1c-.1.2.1.6.1.2 0-.2 0-.3-.1-.2M4.2 75.5c.2 0 .1-.5.1-.5s-.3.5-.1.5M4.8 74.5c.2.1.5-.1.3-.2-.2-.2-.2-.5 0-.4.3.2-.1-1.2.1-1.5.1-.1.1-.2-.1-.2-.1 0-.2 0-.2.1s0 .3-.1.5c-.1.7-.1 1.6 0 1.7M4.5 82.9l.2.2v-.2c0-.1-.1-.2-.2-.2-.1.1-.1.1 0 .2M13.4 128.5c0-.1-.5-.5-.6-.5l.3.3c.1.2.3.3.3.2M4.1 83.8c.1-.1.2-.3.1-.3 0 0-.1.1-.1.2-.1.1-.1.2 0 .1M4.9 77s.1 0 .1-.2c-.1-.3-.2.1-.1.2M131.9 8.8c0 .1.1.2.3.2.4 0 .4-.2.1-.3-.2-.1-.4-.1-.4.1M145.7 148.4c-.1.2 0 .3.2.2.2-.2-.1-.4-.2-.2M84.7 149.9c-.1 0-.2 0-.3.1-.1.2-.1.2 0 .2.3 0 .5-.2.3-.3M142.9 11.1c.1 0 .1-.1.1-.1l-.1-.1c-.1 0-.1.3 0 .2M118.8 150.9c-.2 0-.2.3 0 .3s.2-.3 0-.3M126 8.4c.2-.1.3-.2.1-.2-.2 0-.4.3-.1.2M1 105c0-.1 0-.2 0 0-.1.2.1.4 0 0m3 8.5c-.2.2-.2.2-.3 0 0-.1-.2-.2-.4-.2-.3 0-.5-.1-.8-.6-.2-.3-.4-.7-.4-.9 0-.1-.1-.4-.2-.6-.3-.5-.5-1.1-.3-1.3.1-.1.1-.4 0-.7-.1-.3-.2-.9-.2-1.3 0-.5-.1-.7-.2-.7-.1.1-.1-.2 0-.6.1-.5 0-.8-.1-1.1-.2-.5-.4-2.5-.2-2.3.2.1 0-.9 0-1.6 0-.2-.1-.3-.2-.2-.1.1-.1-.1-.1-.4 0-.3 0-.6-.1-.7-.1-.1-.1-.2 0-.4.2-.3.2-.8.1-.8-.2 0-.3-1.5-.1-1.6.1-.1.1-.1 0-.1s-.1-.2-.1-.3c0-.2 0-.3.1-.3s.1-.1 0-.2c-.2-.2-.2-.4 0-.3.2.1.1-.2-.1-.4-.1 0-.1-1-.2-2.1 0-1.6 0-2 .1-1.9.1.1.1.1 0-.1-.1-.1-.2-.6-.2-1.1-.1-.7-.1-.8 0-.7.2.1.2.1 0-.1s-.2-1.8-.1-1.6c0 0 .2-.1.3-.4.2-.5 0-1.2-.3-1.2-.1 0 0-.1.1-.2.2-.1.2-.3.2-.6-.1-.6.2-2.5.3-2.4.2 0 .1-.6-.1-.8-.1-.1-.1-.2-.1-.2s0-.2-.1-.3c-.1-.1-.1-.5-.1-1 .1-.5 0-.8 0-.7-.2.1-.2-.2 0-.4s.2-1.3.1-1.5c-.1-.1-.1-.1 0-.1.1.1.2-.1.2-.4 0-.8.1-1.5.1-2 .5.1.7.3.8-.1 0-.4.4-.4.8-.6 0 .5-.1 1-.1 1.5-.1 1.1-.2 1.8-.3 3.4 0 .5-.1 1.4-.1 1.9-.2 2.5-.3 8.2-.1 11.4.2 3.8-.1 2 .4 6.8.2 2.1.9 6.4 1.8 11.1.4 1.6.4 1.8.2 2M15.8 131c.1 0 .1 0 .1-.1l-.1-.1c-.1 0-.1 0-.1.1l.1.1M129.5 8.6c.1.1.2.2.2.3 0 .1 0 .1.1 0 .1-.2.3-.2.9-.1.5.1.8.1.9 0 .1-.1 0-.1-.2-.2-1.7-.1-2.1-.1-1.9 0M18.7 132.9c.2.3.2.2 0-.2-.1-.2-.2-.2-.3-.1-.1.1-.1.1 0 .1 0 .1.2.1.3.2M17 131.6c0-.1-.1-.1-.2-.1s-.1.1.1.3c.3.2.3.2.3 0 0-.1 0-.2-.1-.1 0 .1-.1 0-.1-.1M20.2 133.7c0-.1-.5-.4-.5-.3s.5.4.5.3M102.7 148.7l-.1-.1c-.2 0-.2.3 0 .2.1 0 .1 0 .1-.1M26.2 139.5c0-.2-.4.1-.4.3 0 .2.4-.1.4-.3M16.2 160.6c0-.4-.2.1-.1.2s.1 0 .1-.2M26.8 140.6c.2.1.3 0 .1-.1-.3-.1-.4 0-.1.1M90.4 3.1c-.4 0 .1.2.2.1 0 0-.1-.1-.2-.1M106.8.7c.1 0 0-.1-.2-.1-.5.1 0 .2.2.1M104.7.9c.1 0 0-.1-.2-.1-.4 0 0 .1.2.1M103.8.3c-.1 0-.1.1-.1.1l.1.1c.2 0 .2-.3 0-.2M101.7 1.1c-.4 0-.1.1.2.1 0-.1 0-.1-.2-.1M119.9.5c.2.1.5.1.7 0 .3-.1.3-.1-.4-.1-.6 0-.6 0-.3.1M115.2.6c-.2 0-.3.1-.4.2-.2.2-.2.3.2.2.4 0 .6-.4.2-.4M107.4 1c.3.1.7-.1.2-.1-.3 0-.4.1-.2.1M100.2.7c.1 0 0-.1-.2-.1-.6.1-.1.2.2.1M95.7 148.9c.1.1.2.1.3 0 .2-.1.2-.1 0-.2-.3-.1-.4.1-.3.2M122 .6c.2.1.9.1.9-.1 0 0-1.2 0-.9.1M123.1.7c.2.2 3.7.3 2.1 0-1-.1-2.2-.2-2.1 0" class="st0"/>
  <path d="M111.1 1.1c.8 0 .7-.2-.1-.2-.9 0-.7.3.1.2m1.4-.2c-.2 0-.5 0-.5.1s.2.1.5.1.5 0 .5-.1c0 0-.3-.1-.5-.1m-2.8-.2c.2-.1-.7-.1-.4 0 .1.1.3.1.4 0m1 0c.1-.1-.5-.1-.3 0 .1.1.2.1.3 0m1.1.6c-3.2 0-4.6 0-4.7.1-.1.1-.2.1-.4 0-.3-.1-.6-.1-1.6.1-.7.1-.8.1-1.1 0-.1-.1-.4 0-.6.1-.2.1-.5.2-.6.1-.1-.1-.2-.1-.4-.1s-.2 0-.2-.1.3-.1.5-.1.4-.1.4-.1c0-.1.2-.1.6-.1.3.1.6 0 .7-.1 0-.1.2-.1.3-.1.2 0 .2 0 0 .1s-.1.1.1.1.3-.1.2-.1c-.1-.2.2-.2.2 0 0 .1.4.1.8 0 .5-.1.6-.1.5-.2-.2-.1-.2-.1.1-.1.2 0 .3 0 .3.1-.1.2 1.3.2 1.2 0 0-.1 0-.2.1-.3.1-.2.1-.2.2 0 .1.1.1.2.1.3-.1.1.9.1 1.1 0 .2-.1.1-.1-.2-.1-.3 0-.4 0-.3-.2.1-.2.8-.3 1.1 0 .1.1.2.1.1 0s0-.2.4-.2c.3 0 .4.1.4.1 0 .1.1.1.2.1.2 0 .3 0 .1-.1-.1-.1.1-.1.9-.1 1.2 0 .9 0-.1.2h.8c.5 0 .7 0 .7-.1s0-.1.1-.1.2.1.1.1c0 .1 0 .1.1.2.1 0 0 .1-.3.2-.4.1-.4.1.5.2 1.4 0 2.4.2 2.4.2-.2.1-2.3.1-4.8 0M97.4 149c-.1 0-.1-.1-.1-.1 0-.1-.1-.1-.2 0-.2.1-.3.1-.1.2.2-.1.3 0 .4-.1.1 0 .1 0 0 0M99.3 148.8c0 .1.1.2.1.2.2.1.2.1 0-.2 0-.1-.1-.1-.1 0M98 148.8c-.2.1-.2.1-.1.3.1.1.2.1.3.1.2-.1.3-.4.1-.4-.1-.1-.2-.1-.3 0M117.4.3s.3.1.6 0h.6l-.6-.1c-.5-.1-.7 0-.6.1M76.6 5.6c0-.1-.4-.3-.4-.1 0 .2.4.1.4.1M79.6 5.1c-.2 0-.3 0-.4.1-.1.2 0 .2.4 0 .3-.1.3-.1 0-.1M80.8 4.9c-.4 0-.1.2.2.1 0-.1-.1-.1-.2-.1M101.2 148.8c-.1-.2-.3-.2-.3 0 0 .1.1.2.2.2h.2s0-.1-.1-.2M89.4 3.3c-1.2.1-3.1.5-6.1 1.2-1.3.3-.5.4.5.1 1.4-.3 8.4-1.6 5.6-1.3M2.6 62.4c0-.5-.2 0-.1.2.1.1.1 0 .1-.2M75.4 5.8c-.4 0 .1.2.2.1s0-.1-.2-.1M81.6 5c-.4 0-2.6.5-2.8.7-.2.2.4.1 1.7-.2 1.3-.4 1.5-.5 1.1-.5M110.1.1c.1.1.3.1.5 0 .4-.1.4-.1-.1-.1-.3 0-.4 0-.4.1M100.2 1.9h1c.5 0 .5-.2.2-.4-.2-.1-.2-.2-.2-.3.1-.1-.3-.2-.7 0-.2.1-.2.1.2.2s.4.1-.1.1-1 .2-1 .4h.6M116.9.2c.2.1.4-.1 0 0-.1-.1-.1 0 0 0M96.4 2.1c-.7 0-5.3.9-4.8.9.2 0 1.2-.1 4-.5 1.1-.2 1.6-.4.8-.4M126.4.9c.9.2 1.2 0 3.4.4.5.1 2.7.2 2.7.2s-.1-.1-.1-.2c-.2-.1-1.2-.2-4.5-.5-1.6-.1-2.3 0-1.5.1M98.7 2c0-.1-.2-.1-.5-.1-.4 0-.4 0-.3.1.2.1.8.1.8 0M80.6 4.4l-.1-.1c-.2 0-.2.3 0 .2.1 0 .1-.1.1-.1M204.2 65.6c0 .1 0 .1 0 0 .1 0 .2 0 .3.1.1.1.2.1.2-.1s-.5-.2-.5 0M63.2 12.2c.3-.1.3-.2.1-.2-.3 0-.4.3-.1.2M194.6 89c-.1 0-.1.2-.1.4 0 .3 0 .3.1.2.2-.3.2-.6 0-.6M205.1 66.6c-.1.5 0 1.3 0 .4.1-.4.1-.6 0-.4M205 64.9c0 .3 0 .5.1.5.1-.1.1-.1 0-.6s-.1-.4-.1.1M205 63.4c-.1.5.1 1.2.1.3 0-.4-.1-.5-.1-.3M203.7 91.5c.1.2.2-1.1.2-1.7v-.7l-.2.7c-.1.6-.1 1.4 0 1.7M203.5 92.2c.1.2.1.2.1-.1 0-.2 0-.4-.1-.4s-.1.1 0 .5M204.4 63c-.1.2-.2.3 0 .4.1.1.1.2 0 .2-.2 0-.2.4 0 .4.1 0 .1.1 0 .2s-.2.2-.1.2c.1.1.5-.3.5-.4 0-.1 0-.1-.1-.2 0 0-.1-.3-.1-.6 0-.4-.1-.4-.2-.2M203.5 89c0 .1.1.1.1.1l.1-.1c0-.1-.1-.1-.1-.1-.2 0-.2 0-.1.1M205.1 71.7c-.1.2.1.4 0 0 .1-.1.1-.1 0 0M204.2 69.8c-.1 0-.2.1-.2.3 0 .4.2.5.3.2.1-.4.3-.1.2.5-.1.7-.1.9 0 2.1v1c-.1 0-.1.1-.1.2 0 .8-.1 1.1-.3 1.1-.2 0-.2 0 0 .2.2.1.3.4.3.9 0 .7-.1 1-.4.9-.2-.1-.2 0 0 .1.3.2.3.6.1.7-.1.1-.1.1 0 .2.2.2.3 1.3.1 1.7-.1.2-.2.4-.1.7.1.2.1.7.1 1.1-.2 1.9-.4 7.2-.2 6.6.1-.2.1-.5 0-.7 0-.2 0-.3.1-.2.1.1.1 0 .1-.3 0-.2 0-.5.1-.6.1-.2.1-.3 0-.4-.1-.1-.1-.1 0-.1s.1-.2.1-.4 0-.6.1-.9c.1-.8.2-2.3 0-2.5-.1-.1-.1-.2 0-.2s.1-.2.1-.3c0-.3 0-.3-.1-.2-.1.1-.1.1-.1 0s.1-.2.2-.3c.1 0 .2-1.4.2-6 0-3.3 0-5.9-.1-5.7-.1.1-.3.3-.5.3M81.4 148.2c.1 0 .2-.1.2-.1 0-.1 0-.1-.1-.1s-.2.1-.2.1 0 .1.1.1M199.7 40.3c0 .1.1.2.1.2.2.1.2.1 0-.2 0-.1-.1-.1-.1 0M79.8 147.9l-.1-.1c-.2 0-.2.3 0 .2.1 0 .1 0 .1-.1" class="st0"/>
  <path d="M198.8 53.3c-.1 0-.1.1-.1.1 0 .1.1.1.1.1l.1-.1c.1-.1 0-.1-.1-.1m-1.1.9c.1.6.3.9.4.8.2-.3.3-.9 0-1.1-.3-.4-.5-.2-.4.3m1.5 8c-.1 0-.1.2-.1.5s.1.6.1.7c0 .2 0 .2.1 0 .3-.4.2-1.2-.1-1.2m-2.9-26.6c0 .2 1 1.5 1.8 2.7.3.5.7 1.2 1 1.7.5.8 1.7 3.2 2.3 4.4.3.6.4 1.5.6 3.3.3 3.1.4 6 .5 10.4.1 7.4.1 2.1-.1 10.7-.2 7.4-.3 10.4-1 19.6-.4 5.5-.3 4.1-.7 8.8-.2 2.6-.4 4-.6 6.5-.1.9-.2 1.8-.3 2.1-.2.7-2 4.4-2.7 5.5-.3.5-.6.9-.6.9 0 .1-2.4 4-2.9 4.7-3.5 4.9-2.8 4.4-2.1 1.3.4-1.5.6-1.3 1.9-6.7.9-3.4 1.2-5 1.2-5.3 0-.2.1-.3.1-.4.1-.1.6-2 .7-3 0-.2.2-.7.3-1.2.3-1.2 1-5.2 1.3-7.9 0-.3.1-.6.2-.7.2-.3.4-1.5.4-2.3 0-.2 0-.4.1-.4s.1-.2.1-.4 0-.5.1-.6c.1-.3.5-1.8.6-2.3.1-.8.3-1.8.3-2.3 0-.2.1-.6.2-.8.1-.2.3-.8.3-1.3s.2-1.2.2-1.4c.2-.8.2-2.3.3-3 .3-1.8.4-2.9.4-3.8.1-1.6.2-.9.2-2.6 0-.8.1-1.2.2-1.3l.1-.1c-.1 0-.1-1.1-.2-2.8-.1-4.8-.1-5-.3-5.1-.2-.1-.4-.3-.4-.5 0-.1.1 0 .3.1l.3.3-.1-.9c-.1-1-.3-1.9-.4-1.5-.1.3-.3.2-.3-.2 0-.3.1-.3.4-.1.2.1.3.1.3-.1v-.2c-.1 0-.1 0-.2-.1-.1-.3-.1-.4.1-.4.1 0 .2-.1.1-.3 0-.1-.1-.2-.2-.2s-.1 0-.1-.1.1-.2.1-.2c.1 0 .1-.1-.1-.2-.1-.1-.3-.5-.3-.9-.2-.9-.2-1.1.1-.6l.2.4c-.2-.9-.2-1.2-.4-1-.1 0-.1 0-.1-.1s-.1-.2-.1-.2c-.1 0-.1-.2-.1-.4 0-.5-.2-.8-.3-.5 0 .1 0 .2.1.3.1 0 0 .2-.2.3-.2.2-.3.3-.3.4 0 .1 0 .1-.1.1-.3 0-.2.7 0 .7.1 0 .2.2.2.7 0 .4.1.8.1.9 0 .1.1.4.1.7 0 .3.1.6.2.8.1.2.2.6.2.9 0 1.2.1 1.4.2 1.4s.1-.1.1-.2c0-.2 0-.2.1 0 .2.3.3 3.5.1 3.3-.1-.1-.1-.4-.1-.6 0-.3-.1-.4-.2-.4-.2.1-.2.6-.1 2.4 0 .9-.1 1.8-.2 4.6-.2 3.3-.3 2.9-.2-.7v-3.3c-.1.3-.2.4-.4.1-.1-.1 0-.2.1-.2s.1-.2.1-.3v-.1c.2.3.3-.1.3-.8 0-.9-.2-1.1-.3-.5-.1.4-.1.4-.2.2-.2-.4-.1-.7.1-.8.2 0 .3-.2.3-.4s-.1-.4-.1-.4-.1.1-.1.2 0 .1-.1 0c-.2-.2 0-1 .1-.9.1.3.3.2.3-.2 0-.3 0-.4-.2-.6-.1-.1-.2-.2-.1-.3.1 0 .1-.3.1-.6-.1-1-.3-2.2-.4-2.3 0-.1-.1-.4-.1-.7 0-.3-.1-.7-.2-.9-.1-.2-.2-.8-.3-1.2-.1-.5-.2-1-.3-1.1-.1-.2-.2-.7-.3-1.5-.1-1.8-.5-5.8-.7-6 0 0-.1-.4-.1-.7 0-.4-.1-.7-.2-.8-.1-.1-.1-.3-.1-.6s0-.5-.1-.5-.1-.2-.1-.4-.1-.6-.2-1c-.1-.3-.3-.7-.3-.8 0-.7-1.1-4.3-1.4-4.6-.1-.1-.2-.3-.1-.4 0-.1-.5-1.9-1.1-3.6.2-.7 0-1-.3-1-.2-.7-.5-1.3-.7-1.8-.3-.8-.6-1.6-.5-1.7v-.3c-.1 0-.2-.2-.3-.4-.1-.3-.1-.3.2 0 .2.2.3.4.3.5v.1c.1 0 .2 0 .4.2s.3.3.1.3c-.2.1.1.4.3.4.2-.1 1.3.9 1.1 1-.1.1-.1.1.1.3.1.1.2.1.1 0-.2-.3.1-.1.4.3.2.3.3.4.1.3h-.2c0 .2.4.5.5.5.1 0 .2 0 .3.2.2.2.1.2-.1 0-.4-.3-.3 0 .3.8.3.4.6.9.7 1.1.1.2.3.5.5.6 0-.2.1 0 .1 0M204.2 61.7c0 .2 0 .3.1.1.2-.2.2-.4 0-.4-.1 0-.1.1-.1.3M85.7 148.3c.1-.2-.6-.2-.6 0 0 .1.1.1.3.1s.2 0 .3-.1M201.1 42.7c.1 0 0-.1-.2-.3-.2-.2-.2-.2 0 .1l.2.2M204.7 57.9c-.1.2.1.6.1.2 0-.2 0-.2-.1-.2M204.9 60.4v.3c.1.3.1-.5 0-.3M204.3 58.2c0-.2 0-.3-.1-.2-.1.3.1.7.1.2M205.1 68.3v.9c.1.6.1-1.5 0-.9M132.2 152c-.2 0-.2.3 0 .3.2-.1.2-.3 0-.3M109.2 152.8c-.2-.1-.5 0-.4.2.1.2.6.2.6 0 0-.1-.1-.1-.2-.2M133.8 152c.1.2.2.1.2-.1 0-.3-.3-.1-.2.1M115.4 152.1c-.5 0 0 .1.2.1.1-.1 0-.1-.2-.1M110 152.9c0 .3.1.4.3.4.1 0 .2-.1.2-.2s0-.2.1-.2c.2 0 .2-.1 0-.2-.4-.4-.6-.3-.6.2M21.8 166.7c.2-.1.3-.4 0-.3-.2 0-.3.4 0 .3M110.9 152.7c0 .1.1.2.2.2.2 0 .3-.2.1-.3-.2-.2-.3-.1-.3.1M116.2 152.8c0 .2.1.3.3.3.2 0 .3 0 .3-.3s-.1-.3-.3-.3c-.2 0-.3.2-.3.3M134.9 150.9s0 .2-.1.4c0 .2-.1.4-.2.4-.1.1-.1.1.1.1s.3-.1.2-.1c0-.1 0-.1.1-.1.3 0 .3-.1 0-.5 0-.2-.1-.2-.1-.2M126.3 153.1c.1 0 .1-.1.1-.1l-.1-.1c-.2 0-.2.3 0 .2M173.7 138.7c0 .1-.4.4-1.2.8-1.2.6-1.6.8-1.4.5.1-.2 0-.2-.8.2-.4.2-.7.4-.7.5.1.1.1.1.3 0 .1-.1.2-.1.3-.1.1 0-.3.2-.7.5-.5.3-1.1.6-1.3.7-.4.2-.4.2-.1.2.5-.1 2.8-1.2 3-1.4.2-.2.9-.5 1.8-.9.7-.3.9-.4 1.4-.8.4-.3.4-.4.2-.3-.2.1-.4.2-.5.2-.1 0 0-.1.3-.3.6-.3.5-.4 0-.1-.4 0-.6.2-.6.3M163.9 143.8c-.3.2 0 .2.3 0 .2-.1-.1-.1-.3 0m2.1-.9c.4-.1.7-.3.7-.3.2 0 0 .2-.4.3-.2.1-.6.3-.7.4-.6.3-1.7.9-1.7.8l-.4.2c-.5.3-.6.3-.6.1 0-.1.1-.2.2-.1s.2 0 .1-.1-.1-.1 0-.1c.2.1.6 0 .5-.2-.1-.1.4-.4.6-.3.1 0 .3 0 .5-.1.5-.3.1-.4 0-.2 0 .1-.2.1-.3.1-.4 0 1.2-.8 1-.4-.2.1.1.1.5-.1M170.6 14.2s.1 0 .1-.1 0-.2-.2-.3c-.3-.2-.3-.2-.1.1.1.2.2.3.2.3M162.2 144.9c.2 0 .6-.2.4-.2-.2-.1-.5.2-.4.2M171.1 141.2c.1-.1.1-.1 0 0-.4.1-.2.3 0 0M167.7 141.7c-.1 0-.1.1-.1.1l.1.1c.1 0 .1-.3 0-.2M129.4 150.8c-.1 0-.1-.1-.1 0 0 0 0 .2-.1.3v.2c.3 0 .4-.4.2-.5M158.4 146.1c-.1.2.2.3.4.2.2-.1.2-.1-.1-.2-.1-.1-.2-.1-.3 0M141.9 150.6c0 .1 0 .1.2.1.1 0 .3-.1.3-.1 0-.1-.4-.1-.5 0M144.4 150.2c.1 0 .1 0 .1-.1s-.1-.1-.1-.1c-.2-.1-.2.2 0 .2M146.6 149.1c-.1 0-.3.1-.3.2-.1.1 0 .2.2.2.4-.1.5-.4.1-.4M161.2 145.1c0 .1.1.1.1.1l.1-.1c0-.1-.3-.1-.2 0M186.3 25.2c.4.5.6.7.3.3-.1-.1-.1-.3 0-.3.3-.1-1.2-1.2-.3 0M190.3 32.2c.1.3.2.4.2.1-.1-.3-.3-.5-.2-.1M187 25.1c0 .2.3.3.3.2 0-.2-.3-.4-.3-.2M88.9 148.4c0-.1-.1-.2-.3-.1-.1 0-.2.1-.2.2.1.1.5.1.5-.1M196.7 35.1c-.2-.3-.3-.3-.1 0 .1.1.1.3.1.3s0 .1.1.1c.2-.1.2-.1-.1-.4M197.8 37.1c.3.5.4.5.2 0-.2-.4-.4-.4-.2 0M190.8 28.3c0-.1-.1-.2-.1-.2-.1 0-.1-.1-.1-.2s0-.1-.1-.1-.2 0-.1-.1c0-.1-.1-.2-.2-.3-.2-.1-.2-.1 0 .2.1.3.6.9.6.7" class="st0"/>
  <path d="M195.1 33.4c.1 0 .2 0 .2-.1s-.1-.1-.2-.2c-.2-.1-.2-.1-.2 0 0 .2.1.3.2.3m.5.5c.1.4-.2.4-.5-.1-.2-.3-.3-.6-.3-.7 0-.2 0-.4-.1-.5-.1-.1-.2-.3-.1-.3.1-.1 2.8 3.5 1.4 1.9-.3-.3-.4-.4-.4-.3M190 31.5c.1.2.2.3.2.1 0-.2-.3-.4-.2-.1M187.7 27.7c-.1-.2-.1-.2-.1 0 0 .1.1.2.1.2.1.1.1.1 0-.2M187.8 25.8v-.1c-.3-.1-.6 0-.5.1 0 .1.5.2.5 0M194.8 86.1c-.1.5.1 1.2.1.3-.1-.3-.1-.5-.1-.3M194.2 31.7c-.2-.1-.2-.1-.1.1 0 .1.1.2.2.2.1-.1.1-.1-.1-.3M169.8 15s.1-.1.1-.2c0-.3-.3-.3-.2 0 0 .2.1.2.1.2M159.2 13.7c.1-.2-.5-.3-.5-.1.1.1.4.3.5.1M171.4 14.6c.3.1.8.3 1.1.4.8.3.6.1-.2-.2-1.4-.7-2.1-.6-.9-.2M169.2 14.8c.2-.3.2-.4-.1-.4-.1 0-.2-.1-.2-.2 0-.2-.4-.4-.5-.2-.1.2-.5.2-.4-.1 0-.1 0-.2-.1-.2s-.2 0-.1.1 0 .2 0 .3c-.2.3.1.5.6.5.2 0 .4 0 .5.1.2.2.2.2.3.1M187.8 28.5c.3.9.6 1.6.7 1.6.2-.1.2-.3-.1-.8-.2-.3-.3-.5-.3-.6s-.1-.2-.2-.4c-.2-.2-.2-.2-.1.2M193.5 31c0 .2.3.3.3.2-.1-.2-.3-.4-.3-.2M174.1 16.5c.1 0 .1 0 .1-.1l-.1-.1c-.2-.1-.2.2 0 .2M165.3 15.6s.1.1.2.1c.3.1.3-.2 0-.2-.1.1-.2.1-.2.1M166.7 13.9c-.1 0-.1.1-.1.1l.1.1c.2 0 .2-.3 0-.2M199.6 65.4c-.1.4.1.9.1.2 0-.3 0-.4-.1-.2M194.6 49.4c0-.4-.2.1-.1.2.1 0 .1-.1.1-.2M199.6 58.7c-.1 0-.1.1-.1.1l.1.1c.2 0 .2-.3 0-.2M190.7 33.4c.2.3.2 0 0-.3s-.2 0 0 .3M197.4 56.5c0-.4-.2.1-.1.2 0 0 .1-.1.1-.2M199.6 67.2c-.1 0-.1.1-.1.1l.1.1c.1 0 .1-.1.1-.1 0-.1 0-.1-.1-.1M199.5 70c-.1.5.1 1.3.1.4 0-.4-.1-.6-.1-.4M198.7 74.5c0-.3 0-.6-.1-.5-.1.3-.1 1.1 0 1.1 0 0 .1-.3.1-.6M198 83.9c-.1 0-.2.1-.2.2s.1.2.2.2.2-.1.2-.2-.1-.2-.2-.2M199.4 72c-.1-.1-.2.8-.1 1.1.1.2.1.2.1 0 .1-.5.1-1 0-1.1M198.9 55.5c-.2 0-.2.3 0 .3.2-.1.2-.3 0-.3M194.6 46.9c-.2-.1-.2-.1-.2.3 0 .5 0 .5.2.3.2-.4.2-.4 0-.6M193.2 40.6c-.1-.2-.1-.5-.2-.5-.1-.1.1.9.2 1.1.1.1.1 0 0-.6M192.7 38.9c0-.4-.2.1-.1.2 0 0 .1 0 .1-.2M191.3 35.7c0-.1-.1-.3-.2-.4-.1-.1-.1.1 0 .3.2.7.3.7.2.1M193.3 39.3c0 .1.1.1.1.1.1 0 .1-.1.1-.2s-.1-.2-.1-.1c0 0-.1.1-.1.2M192.7 41c.1.2.2.3.2.1 0-.2-.3-.4-.2-.1M195 45.1l-.1-.1c-.2 0-.2.3 0 .2.1 0 .1-.1.1-.1M194.3 45.6c-.1.1-.1.7 0 .6.1 0 .1-.7 0-.6M194.5 42.4c-.1.2 0 .3.1.3h.2c-.3-.6-.2-.7-.3-.3M104.8 149c0 .1.1.2.3.1.1 0 .3-.1.5-.1.1 0 .3-.1.4-.2 0-.1 0-.2-.1-.1-.1 0-.4.1-.6.1-.5 0-.6.1-.5.2M100.1 5.3c-.1 0-.2 0-.3.1 0 .1 0 .1.2.1.3 0 .3-.1.1-.2M111 5.7c.1.3.5.4.5.1 0-.1.1-.2.1-.1.2.1.2-.2 0-.5-.1-.2-.1-.2-.1 0 .1.2 0 .2-.3.2-.1.1-.2.1-.2.3M108.8 5.3c.2-.1.1-.2-.1-.2-.3 0-.1.3.1.2M107.4 6c0-.1 0-.3-.1-.3-.1-.2-.9-.1-.9.1 0 .3 1 .5 1 .2M105.4 5.1c.1.2.2.3.2.1 0-.1-.3-.3-.2-.1M76 7.9c.3.1.4-.1 0 0-.1 0-.1 0 0 0M102.7 5.9c0 .1.4 0 .4-.1 0-.2-.4-.1-.4.1M130 5.6c-.4-.4-.7 0-.9 0H130M83.1 7.1l.1.1c.1 0 .1-.1.1-.1 0-.1-.1-.1-.1-.1l-.1.1m.5-.1c.2.1.4-.1 0 0-.1-.1-.1 0 0 0m.7-.1c-.5 0 0 .2.2.1 0 0 0-.1-.2-.1m-2.4.3c.2.1.4 0 .3-.2 0-.1.3-.1.8-.2.5 0 1.1-.1 1.4-.1.4 0 .5 0 .5.2.1.3 0 .3-.7.4-1.2 0-1.3 0-1.4-.1-.1-.2-.3-.2-.2 0 .1.2-.2.3-.8.3-.4 0-.5 0-.5.1s0 .1-.2.1-.3-.1-.3-.2c-.1-.2 0-.2.4-.2.3 0 .5-.1.5-.1 0-.1.1-.2.2-.2.2 0 .2 0 0 .1-.1 0-.1.1 0 .1M103.7 5.9c.2-.1.2-.2.1-.2-.1-.1-.2 0-.3.1-.1.2 0 .3.2.1M137.7 7.5c.1 0 .1 0 .1-.1l-.1-.1c-.1 0-.1 0-.1.1 0 0 0 .1.1.1M96 6.1c.3.1.5-.1 0 0 0-.1-.1 0 0 0M94.2 6.2c0 .1-.1.2-.2.2-.2 0-.2 0 0 .2.1.1.2.1.3.1.1-.1.2-.1.2 0s.2.1.2.1c.1 0 .1 0 0-.1-.2-.1-.1-.2.1-.2 0 0 .1-.1.1-.3.1-.2 0-.2-.3-.2-.3.1-.4.1-.4.2M135 6.4c.2.1.6-.1.2-.1-.2 0-.2 0-.2.1M108.3 5.8c0 .3.2.3.3.1 0-.1.1-.1.2-.1s.1 0 .1-.1-.1-.2-.3-.2c-.2 0-.3.1-.3.3M77.9 7.8s-.1-.1-.3-.1-.2-.1-.2-.1c.1-.1-.3-.2-.2.1 0 .1.7.2.7.1M134 7.1c0 .1 0 .1.1.2.1 0 .1.1.1.2s0 .1.1 0c.2-.1.2-.1 0-.3-.1-.1-.2-.1-.3-.1M135.9 6.5c.2 0 .2-.2 0-.3-.1 0-.2-.1-.2 0-.2.1 0 .3.2.3M126.3 6.1c0-.1-.1-.2-.3-.2-.4 0-.5.3-.1.4.2.1.4 0 .4-.2M124.3 6c.1.2.4.1.2-.1s-.3-.2-.2.1M110.3 5.5s.1.1.2.1c.3.1.3-.2 0-.2-.1.1-.2.1-.2.1M10.8 41.2c0-.1 0-.3.1-.3.2-.1.2-.2-.1-.3-.1-.1-.2-.1-.1-.1.1.1 0 .2-.1.3-.2.2-.2.2 0 .4.3.2.3.2.2 0" class="st0"/>
  <path d="M14.3 169.3c.1 0 .1-.1.1-.1l-.1-.1c-.2 0-.2.3 0 .2m1.4-.3c.1 0 .3-.1.5-.3.3-.2.3-.3.1-.3-.2-.1-.3 0-.4.1-.1.1-.2.2-.3.2-.1 0-.2.1-.1.1 0 .1.2.2.2.2m1.7-1.1c.2-.2.2-.3 0-.4-.2-.1-.4.2-.4.4s.2.2.4 0m3.1-2.5c0-.2-.3 0-.3.2.1.1.3 0 .3-.2m2.9-2c.1-.1.3-.2.4-.3.2-.1.3-.3.4-.4.2-.1.3-.2.4-.4 0 .1.1.2.1.1.1-.1.1-.4 0-.4 0 0-.1 0-.1.1v-.1c-.2-.8-.6-.5-.6-.3.1.4-.7.3-.6.8 0 .1.2.2.3.2-.1.1-.3.2-.3.2-.1 0 0 .1.1.1.2.1.1.1-.2.1-.3 0-.8.4-.8.7.1.1.7-.2.9-.4M27 161c.4-.4.4-.4.1-.3-.1 0-.3.2-.3.4-.1.2-.1.2.2-.1m1.3-.4c.2-.1.2-.4 0-.3-.2.2-.2.5 0 .3m-.6.3c-.1 0-.2.1-.2.3 0 .1 0 .3.1.3 0 0 .1-.1.2-.3.1-.3 0-.3-.1-.3m-2 .5c-.3.2-.1.3 0 0 .2 0 .2 0 0 0m-.3.4c-.2 0-.2.3 0 .2.1 0 .1-.1.1-.1s0-.1-.1-.1m.3.3c.2 0 .2 0 .1-.1-.2-.1-.3.1-.1.1m4.1-3.6c.1 0 .1 0 .1-.1l-.1-.1c-.1 0-.1 0-.1.1l.1.1m.5-.2c-.1.3.2.1.2-.1s-.1-.1-.2.1m.1-.7c.1 0 .1-.1.1-.1l-.1-.1c-.2.1-.2.4 0 .2m56.3-13c0-.1.2-.1.3-.1.3 0 .3-.2 0-.3h-.3c0 .1-.2.1-.5 0-.6-.1-1 0-1 .1s.2.1.5.1h.5c-.1.2.4.4.5.2m-4.3-.2c.1 0 .4 0 .5-.1.4-.2.2-.6-.3-.4h-.3c0-.2-.7-.1-.8 0-.1.1.5.5.9.5m-32.3-.1c.1 0 .1-.1.1-.1l-.1-.1c-.1 0-.1.3 0 .2m28.1-.3c.2-.2-.1-.5-.6-.5-.3 0-.4 0-.4.3s0 .3.3.2h.4c.1.2.2.1.3 0m-3.4-.1c.3-.3.9-.3 1.2 0 .2.1.3.2.4.1 0 0 .1-.2.1-.3 0-.2-.2-.2-.8-.2-.9 0-1.2.1-1.1.4-.1.2-.1.2.2 0m-1 0s0-.1 0 0l-.3-.3c0-.2-.2-.3-.5-.3-.4 0-.6-.1-.7-.1 0 0-.3 0-.6-.1-.4 0-.5 0-.5.1.1.2.5.4.7.3.1 0 .1 0 .2.1 0 .1.2.1.4 0 .3-.1.4-.1.8.1.2.2.4.3.5.2m-8.5-.1c.1-.1-.5-.1-.3 0h.3m-11.2-.2c0-.1-.4-.2-.5-.1-.1.1.5.2.5.1m16.5-.2c.2 0 .3-.1.3-.1 0-.2-.1-.2-.4 0-.1.1-.1.1.1.1m-17.4 0c.1-.1-.5-.1-.3 0h.3m8.2-.3c-.2-.1-.2 0 0 0 .2.3.3.1 0 0m-.5.1c.2 0 .2-.3 0-.2-.1 0-.1.1-.1.1s0 .1.1.1m-9.7-.2c.1 0 .1-.1 0-.2-.2-.1-.4 0-.2.1 0 .1.1.2.2.1m-24.9-.1c.2 0 .2-.3 0-.2-.1 0-.1.1-.1.1s0 .1.1.1m32.2-.1c.2 0 .2-.3 0-.3s-.2.3 0 .3m-1.3-.3c.1-.1.1-.2-.2-.2-.2 0-.3 0-.2.2.2.2.3.2.4 0m4.6-.2c0-.2-.3-.2-.3 0 0 .1.3.1.3 0m4.6.4c-.1 0-.1.1-.1.1l.1.1c.1 0 .1-.3 0-.2m-1.8.1c0-.1 0-.1 0 0-.1.2.1.4 0 0m3.1.1c-.1.2 0 .4.3.3.1 0 .3 0 .3-.1.1 0 .1-.1.1-.1l-.1-.1c-.1 0-.2 0-.3-.1-.1 0-.2 0-.3.1m1.4.2s-.1-.1-.2-.1c-.3-.1-.3.2 0 .2.1 0 .2 0 .2-.1m.8-.2c-.3.2-.3.3 0 .4.3.1.4 0 .3-.3-.1-.2-.1-.2-.3-.1m4.1.5c-.1 0-.1.1-.1.2s.1.1.1.1c.1 0 .1-.1.1-.2s-.1-.2-.1-.1m67.4-.2c-.2 0-.4.2-.3.3.1.1.5-.3.3-.3m-60.3.6c-.1.2.1.4 0 0 0-.1 0-.1 0 0m-1-.1c0 .1-.1.1-.2-.1-.1-.1-.4-.2-.6-.2-.3 0-.4.1-.4.3 0 .2.1.3.7.3.4 0 .8 0 .9-.1.2-.1.2-.1-.1-.3-.2 0-.3 0-.3.1m54 0c-.1 0-.2.1-.3.1-.1.1.2.3.4.2.1-.1.1-.3-.1-.3m-1.7.4c.1 0 .2-.1.1-.2s-.1-.1-.1 0-.1.2-.2.2-.2.1-.2.2c0 .3.3.2.3.1-.1-.2 0-.3.1-.3m-.9.1c.2 0 .3-.1.1-.2-.2-.1-.4.2-.1.2m-.6-.2c-.4 0-.6.2-.4.4.1.1.2.1.4 0 .3-.1.3-.4 0-.4m-4.3.5c.3-.3.3-.3-.1-.3-.2 0-.3.1-.3.3.1.2.2.3.4 0m-1.4.2c.2-.1.3-.3.1-.4-.2-.1-.3.5-.1.4m-1-.2c-.2 0-.2.3 0 .3.2-.1.2-.3 0-.3m-2.4.4c.1 0 .2-.1.3-.1.2-.1.1-.1-.1-.1s-.3.1-.3.1l.1.1m27.3 0c-.1 0-.1.1-.1.1l.1.1c.1 0 .1-.1.1-.1s0-.1-.1-.1m-1.6.3h.3c0-.1-.6-.1-.3 0m-42.9.1c0-.2-.3-.2-.2 0 0 .1.1.1.1.1s.1 0 .1-.1m-50.4-.1c0-.2 0-.3-.1-.3s-.1.1-.1.2-.1.2-.1.2c-.1 0-.1.1-.1.1 0 .1.2.1.2.1.1 0 .1-.1.2-.3m47.4-.9c-.1 0-.1.1-.1.1l.1.1c.1 0 .1-.3 0-.2m1.3 0c0 .2.2.3.5.3.1 0 .2-.1.2-.2s-.1-.1-.1 0c-.1 0-.2 0-.3-.1-.3-.2-.3-.2-.3 0m-19.6-.4c-.2.1.4.4.7.4.1 0 .2 0 .2-.1.1-.2-.6-.4-.9-.3m37.8.7c.2-.2.2-.3-.1-.3-.4 0-.5.2-.3.4.1.1.2.1.4-.1m-2.9.3c.4 0 .6 0 .7-.3.1-.1.2-.3.2-.4 0-.1 0-.1-.1 0 0 .1-.2.2-.3.2-.3 0-.8.5-.5.5m-.4-.4c-.3 0-.7.2-.7.3 0 .1.1.1.3 0 .2-.1.3-.1.3 0s.1.1.2.1c.1-.2.1-.4-.1-.4m-1.9.6c.1 0 .1-.1.1-.1 0-.1.1-.1.2-.2.1 0 .2-.1.1-.2s-.2-.2-.3 0c-.1.1-.1.2-.1.2.1 0 0 .1-.1.2 0 .1 0 .1.1.1m-5.5.1c.2 0 .4-.1.4-.2 0-.2-.2-.1-.5.1-.3.1-.3.1.1.1m-3.1 0c.1 0 .1-.1.1-.1l-.1-.1c-.2 0-.2.3 0 .2m-12.3-.1c0 .2 0 .2.2.1l.2-.2s-.1-.1-.2-.1c-.2 0-.2.1-.2.2m-.4-.2c-.1 0-.2.1-.2.1 0 .1 0 .1.1.1s.2-.1.2-.1c.1-.1 0-.1-.1-.1m12.4.1c-.1 0-.2 0-.3.1-.2.1-.1.1.1.1.3-.1.3-.1.2-.2m1.7.1c.1-.1-.9-.3-1-.2-.2.2.9.4 1 .2m3.5 0c.2.1.3-.1.2-.3-.3-.1-.4.2-.2.3m1.5-.2s0 .1.1.1c.1.1.2.1.5 0 .2-.1.4-.1.4 0 .1.1.3.1.5 0 .2 0 .4-.1.4-.2s-.2-.1-.4-.1c-.5 0-.6 0-1.5.2m-11.1-.2s.1-.1.1-.2-.1-.2-.1-.1c-.2.1-.2.3 0 .3m-7.3-.3c-.2 0-.2.3 0 .3.2-.1.2-.3 0-.3m1.1.1c-.1-.1-.3-.1-.4-.1-.2 0-.2 0 .1.2.4.2.6.2.3-.1m23.9.4c.1.1.1.1 0 0 .1-.2-.2-.5-.5-.5-.4 0-.5.1-.3.5.2.2.2.2.5.1.2-.2.3-.2.3-.1m2.9-1c0-.1 0-.1-.1 0-.2.3-.2.5 0 .5.1 0 .2 0 .1.1 0 .2.4.2.4 0 0-.3.3-.5-.1-.5-.2.1-.3 0-.3-.1m1.4.3c-.1.2-.1.4-.1.4 0 .1.1.1.3 0 .1-.1.2-.3.1-.4-.1-.3-.1-.3-.3 0m4.8 0c-.1 0-.1 0-.1.1s.1.2.1.1c.1 0 .1-.1.1-.1.1 0 0-.1-.1-.1m.8.2c0-.2-.4-.2-.4 0 0 .1.4.1.4 0m-2.7-.2c-.1-.1-.4 0-.4.2 0 0 .1.1.3.1.2-.1.3-.2.1-.3m.8.3c.2 0 .2 0 .1-.2-.1-.1-.1-.1-.2 0 0 .1 0 .2.1.2m-38.7.5s.1 0 0 0c.1-.2.2-.2.3-.2.3 0 .4-.2.1-.4-.2-.1-.3-.1-.3.2-.2.2-.2.3-.1.4m59.6-3.2c.1-.1-.5-.1-.2 0 0 .1.1.1.2 0m-95.2-.1c-.1-.1-.2-.1-.4-.1h-.3l.3.1c.3.2.5.2.4 0m-1.2 0c.1 0 .2-.1.3-.1 0-.1 0-.1-.1-.1s-.2.1-.3.1c-.1.1 0 .1.1.1m24.8-.2c-.1 0-.1.1-.1.1 0 .1.1.1.1.1l.1-.1c0-.1 0-.1-.1-.1m61.3-.6c.2-.1.2-.3 0-.3s-.5.2-.3.3h.3m-40.4-1.3c.2-.7.1-.8-.6-.5-.9.5.2 2 .6.5m70.5-.3c0 .1 0 .1.1 0 .9-.6 1.3-.8 1.2-.9-.1-.1-1.2.7-1.3.9m-25.3.5c-.1.2.3.1.3-.1.2-.3-.2-.2-.3.1M25 132.5l-.2-.4c-.1-.3-.2-.3-.3-.2-.2.3-.2.4.2.5.1.1.3.1.3.1m25-1.6c-.5-.2-.6-.1-.6.4.1 1 1.5-.1.6-.4m-6.6-1.7c-.2-1.3-.8-.6-.8-.7-1.2.3-.4 1.3-.2 1.2.2 0 .3.1.4.4.2.8.7 0 .6-.9m32.6-.5c-.1.7.5.4.4.7-.2.9 1.1-1 .1-1.1-.6-.1-.4.4-.5.4m-45-14.3c1.3-10 1.4-14.6.2-7.6-2.4 14-3 28.8-.2 7.6m-23.8-3.6c.1 0 .1-.1.1-.1l-.1-.1c-.2 0-.2.3 0 .2m-.1-1.3c-.2-.1-.2.3 0 .4.1.1.1-.3 0-.4m123.8-4.8c.4 0 .3-.4.3-.4 0-1-1.2.4-.3.4m33.2.1c-.5.5.9.4.4-.1-.2-.2-.4.1-.4.1M42 106.5c1.1-.2.1-.6.1-.7-1.1-.6-1.1.9-.1.7m149.4 1.2c-.1.3-.3 1.4-.2 1 .2-.4.3-1.2.2-1m-.8 3.8c-.2 0-.2.1-.1.3 0 .2 0 .3-.1.4-.1 0-.1.1 0 .2s.2.1.2-.1.1-.4.2-.5c0-.2 0-.3-.2-.3m-.3 1.6c-.1 0-.2.2-.3.4-.1.6-.4 1.5-.6 2.5-.1.4-.2.8-.3.9-.1.1-.1.4-.1.5 0 .3 0 .3.2 0 .2-.4.9-2.5 1-3.3.1-.3.1-.7.2-.9 0 0 0-.1-.1-.1m-106.8 7c0 1.4 1.8-.6.5-.6-.6-.1-.4.6-.5.6m-38.2-1c0 .6.5.4.5.5 1.3.1-.4-1.6-.5-.5m56.1-2.1c-5 3.3-4.8 3.6.2.3 5-3.3 4.8-3.6-.2-.3m-32.9-.1c.8-.4-.1-1 .4-1.6.6-.7-.5.1-1.1-1.1-.6-1.3-2.8-1.4-2.4-.5.2.4.5.1.5.2.7-.3 1.8 3.4 2.6 3m120.5.9c-.2 0-.5 1-.6 1.5 0 .1-.1.3-.2.4l-.2.4c0 .1-.1.4-.3.7-.5 1-.2.9-.7 2-.1.2-.1.4-.1.5.1.2.6-1 1-2.4.3-1 .4-1 .7-1.9.6-1 .6-1.2.4-1.2m-2.2 6.2c0 .2.3-.2.3-.4-.1-.2-.3.2-.3.4M180 99.8c.7-.2-1.7-2.2-1.2-.6.1.3.3.6.4.5.2-.1.4.9.7 1 .4 0-.1-.8.1-.9m-102.7-.6c-.7-1-1.9.7-.7 1 .6.1 1-.5.7-1m-71.8-.9c.1-.2.2-1.2.1-1.2-.4-.1-.5-.1-.5.6 0 .8.2 1 .4.6m154.2.1c.5.3.8-.3.8-.3 1.1-1.3-2-.4-.8.3m34.1-2.7c0-.4-.2.1-.1.2.1 0 .1 0 .1-.2M18.6 93.6c.1-.8 0-.9-1.5-1.2-1.4-.3-1.7-.2-1.8.4-.2 1.1 1.6 1 1.5 1.2 1.5.5 1.7.4 1.8-.4m49.5-.3c.5.7.7.6.8-.2.2-1.2-1.8-1.2-.8.2m126.1-2c-.1.3-.1.8-.1 1 0 .3 0 .3.1-.1.1-.3.1-.7.1-1 0-.4 0-.4-.1.1m-42.5-.5c-.1-.3-.3-.4-.3-.4-.2.1-.4-.7-.7-.7-.2 0 .2.6 0 .7-.4.2 1.6 1.5 1 .4m12.9-5.4c-4.3-2.5-4.5-2.2-.2.3 4.4 2.5 4.5 2.2.2-.3M122 84.3c-.5-.1-.8-1.7-1-1.7-.2 0-.3.3-.3.3-.2.6-.6.9-.2 1 .5.1 0 1.1 1 1.3.6.1.7-.9.5-.9m46.9-1.8c.3.1.3-.1.3-.1.1-.3.2 0 .4-.5.2-.7-.3-.5-.4-.4 0 .1-.1.2-.2.1-.3 0-.4.8-.1.9m-69.1-.4c.3-1.2 2.2-.8 2.4-1.3.2-.7-1.5-.9-2.3-.3-.4.3-1 .5-1.2.4-1.7-.4.8 2.4 1.1 1.2m-42.2 0c.6-.5.2-.7 0-.5-.2.2-.5-.4-.8-.1-.3.2.2 1.2.8.6m19.1-1.8c-.8-.4.5-1.9-.1-2.1-.3-.1-1.9 2.1-.5 2.7 1.1.5 1.2-.3.6-.6m-41.8-2.6c.1-.8.7-1.2.1-1.3-.6-.1-.1-1.3-1.4-1.5-.7-.1-.7 1.1-.5 1.2.7.1 1.2 2 1.4 2 .3.1.4-.4.4-.4m145.7-2.9c.2.2-.1.2 0 .4.1.1.7-.4.6-.5-.1-.1-.2.1-.4-.1-.1-.2-.3.1-.2.2m13.7.2c-.3.1-.1.8-.4.8-.3 0-.1.7.3.5.7-.3.1-1.3.1-1.3M181 80c.2.2.3.1.6-.3.8-.9 1.2-.9 1-1.2-.1-.2-2.1 1-1.6 1.5m2.8-1.2c-2.3 1.1 2.3 2.7 1.2.4-.2.1 0-.9-1.2-.4m-29.1.8c-.1 0 .5-.2-.2-.4-.9-.1-.4.9.2.4m-14.2.8c.5-.1.5-1.5-.5-1.3-.9.2-.6.7-.3.6.4 0 .3.8.8.7m1.6 1.6c1.1-.7-.2-.6-.2-.7-1.1-.1-1.1 1.6.2.7m28.5-10c0-.1.2-.1.4 0 .5.3.4-.4-.2-.7-.8-.5-.7.2-.8.1-.3.7.6.7.6.6m-26-1.3c-.1 0 .7-.2-.2-.5-1.2-.3-.7 1 .2.5m13.1-.7c.4-.6.3-.7-.4-.5-1 .2-.4 1.7.4.5M132 66.9c.2-.4.1-.6-.3-.8-1.1-.3-.2 2.2.3.8m-50.1-1.2c8.9-1.3 8.9-1.8-.1-.4-8.9 1.3-8.8 1.7.1.4m-38.6-2c.2-.5-1-.6-.8-1.1.1-.4-1.2-1.2-1.6-.2-.4 1.1 2.2 1.7 2.4 1.3m145.8-1.9c-.1-.2.4-.2.3-.5-.1-.2-.8-.1-.6.4.1.4.3.2.3.1m-72.2-1.3c-1.1-1.4-1.5-1.1-.5.3 1.1 1.5 1.6 1.1.5-.3m-101.8.1c.6.3 1.3-.2-.4-1-1.9-.8-1.9.8-1.2 1.2 1.1.5.8-.5 1.6-.2m34.2-1.1c1.8 1.9.8-2.1-.3-2.2-.5.1-.2 1.7.3 2.2m34.4-2.7c.4-1.2-2.3-1.3-2.4-1.3-.2.8 1.9 2.9 2.4 1.3m-18.2 1.7c-.1-.3.5-.2.4-.6-.1-.3-1-.2-.8.5.2.5.5.3.4.1m54-1c-.1.8 1.1 2 1.2.8.1-.7-.5-.3-.4-.9 0-.4-.8-.6-.8.1m18.3.7c-.7 0-1.6.7-1.1.9.2.1.3.3.3.5 0 .5 1 .5 1 .1-.2-.1.7-1.5-.2-1.5m48.5 1.9c.5.7.5-.1.5-.1.2-1-.9-.5-.5.1m-5 1.9c-.2 0 0 .3-.3.4-.3.1-.3.5.2.4.6-.2.2-.9.1-.8m-21.8 4.5c-.3.2-.3.3.1.4.5 0 .5-.9-.1-.4m7.9-12.2c-.2-.3.5-.6-.4-.5 0 0-.4 0-.5-.1-.2-.2-.3 0-.2.3.3 1.1.7.3.9.6.2.1.4 0 .2-.3m-151.5-16c-.5-.2-2.7 5.4-2.8 5.4-3.7 8.6-1.1 3.9-2.9 8-4.4 10.3 6.5-13 5.7-13.4m-6 3.9h-.1c0 .1 0 .2-.1.4s-.1.2.1 0c.3-.2.3-.3.1-.4m.9-.4v.3c.1.1.1-.5 0-.3m.3-.4c0-.1.1-.4.3-.9.2-.4.2-.5 0-.3-.2.3-.5 0-.3-.4.2-.3.2-.3.2-.1.1.2.1.1.3-.3.2-.5.2-.6 0-.8-.2-.2-.2-.3 0-.3.3 0 .6-.5.4-.4-.1.1-.2 0-.2-.1-.1-.2-.4.2-.4.6 0 .1-.1.4-.3.6-.1.1-.3.4-.3.5 0 .2-.4 1.3-.5 1.5l.3.3c.3.3.4.3.5.1m125.7-3.3c-.6.5.1.6-.3.9-.7.6.6.5.6.5 1.5 0 .5-2.1-.3-1.4m-16.3 2.3c-.1.4.4.7.7.4.7-.5-.6-1.3-.7-.4m-4.4-1.5c-.3-.9-.5 1.5.5 1.1.7-.2.2-.6.3-.7-.3-.7-.7 0-.8-.4m-33.3 1.3c.3.3.9-.1.3-.7-.7-.7-1.2.5-1.1.6.2.3.4-.2.8.1m69.3 5.7c-.8-.3-.7-.3-1.1.6-.7 2.1 3.1.1 1.1-.6m-98.5-.6c-1.5 2.3 1.9 3.3 1.4-.3-.2-1.1-1.3.3-1.4.3m131.6-2.4c1.6.3 1.1-2-.4-1-1.1.9.5 1 .4 1m-24.6 1.3c.5 0 .4 1 1.4.9.6 0 .4-1.1.1-1-.6 0-1.3-1.4-1.5-1.3-.2 0-.2.4-.2.4.1.6-.2 1 .2 1m29-5c-.2.1 2.7 7 2.9 7.4.5.9.4 1.3.6 1.2.2-.2-3-8.9-3.5-8.6m2.3 1.4c.1 0 .1 0 .1-.1s-.1-.1-.1-.1c-.2-.1-.2.2 0 .2m-93.3 8.2c-.2.5-.1.6.3.8.8.3.7-.4.8-.3.4-.9-.8-1.3-1.1-.5m86.1 1.4c.1.6.4.3.4.3.5-.1.2-.6.1-.5-.1 0-.1-.1-.2-.2-.1-.3-.4 0-.3.4m10 .7s.1 0 .1-.2c-.1-.4-.2.1-.1.2m-21.1 0c-.4-.8-.6-.2-.7-.3-.7.4 0 .9.2.8.1-.1.2 0 .3.2.3.5.5-.1.2-.7m-44.8.4c-.4-.5-.4.1-.4.1-.1.7.7.3.4-.1m13.4-.8c-.2-.2-.5.1-.2.4.4.4.7-.3.6-.4-.1-.1-.2.2-.4 0m-115 1.7c.3.2.9-.2.2-.7-.8-.6-1.1.6-.9.7.2.2.3-.3.7 0m86.9-1.1c-.7-.9-1.1-.9-1.2-.1-.2 1.3 2.7 2.1 1.2.1M8.8 45.3c-.1.1-.1.3-.1.4 0 .2 0 .2.1 0 .1-.1.1-.3.1-.4 0-.2 0-.2-.1 0m-.4 1.1c-.1.3.1.4 0 0 .1 0 .1-.1 0 0m-1.8 1c-.1.1-.1.2 0 .2s.1.1.1.2c-.1.1 0 0 .2-.1.3-.3.3-.3.1-.4-.1 0-.3 0-.4.1m-2.7 7.3c0 .2.3 0 .3-.2 0-.1-.3 0-.3.2m-.4 5.8c-.1 0-.1.2-.1.4 0 .3-.2.5-.3.3 0-.1-.1-.1-.1 0s0 .2.1.2.1.2 0 .3c-.1.1 0 .2 0 .1.1-.1.2-.4.3-.7.3-.6.3-.7.1-.6m-1.1 4.4c-.1.4-.2.8 0 .5.1-.1.1-.1.2 0s.1.1.2-.1V65c-.1 0-.1-.1-.1-.2-.2-.1-.3-.1-.3.1M2 68.4c-.1.2.1.4 0 0 .1-.1 0-.1 0 0m10.1-31c.2-.2.2-.3.1-.3s-.2.1-.2.2c-.1.2-.1.3.1.1m140.7-1c.1-.5.4-.1.5-.4 0-.3-1.3-.5-1.4-.2 0 .3.4.1.3.6-.1.3.5.4.6 0M32.5 35.1c-.6-.3-.7.4-.7.4-.7 1.3 1.9.2.7-.4m97.6-.3c0-.1-.4-.3-.8-.3-1.4-.2-.5-.8-1-.9-1.3-.1 1.6 2.5 1.8 1.2m60-.3c.2.2.2.2-.2-.7-.2-.4-.3-.7-.4-.7-.1-.1.4 1.2.6 1.4m-.1.5c-.2.2-.2.2.3.6.1.1.2.2.2.1s-.3-.8-.3-.9l-.2.2m.7 1.5c.2.3.2 0 0-.3-.2-.2-.2 0 0 .3m-19.5-4.1c-.2-.1 1-.7 0-1.1-1.5-.5-.2 1.8 0 1.1m8.5-.1c.2.1.3.1.3 0 .1-.3.5.1.3-.4-.1-.3-.4-.2-.2-.6.5-1-1.1.7-.4 1M21.2 30c0-1.1-2.6-2.5-2.7-.6 0 1.5 2.7 1 2.7.6m-3.8-.3c.8-.9.9-1.1.6-1-.1 0-.2.1-.2.2s-.3.4-.6.7c-.8.8-.7 1 .2.1m1.2-1.5c0-.2-.3 0-.3.2s.3 0 .3-.2m164.6-1.4c-.6.1-.7.3-.4.7.7 1 1.6-1 .4-.7m-162.9.3c.4-.4.8-.6.8-.6s.2-.1.3-.2c.1-.1.4-.3.6-.5.8-.5 1.2-1 1.1-1.1-.1-.1 0-.1.1-.1.1.1.2 0 .2-.1s.3-.3.6-.5.7-.4.8-.6c.3-.3-1.1.5-1.2.6 0 0-.3.3-.7.5-.4.3-.6.5-.5.6v.1c-.1-.1-.2 0-.3.1-.1.1-.3.2-.3.1-.1-.1-1.3.9-1.3 1.1.1.2-.4.7-.6.5-.1 0-.1 0-.1.1s0 .2-.1.1c-.1 0-.1.1-.1.2-.2.4-.1.4.7-.3m22.2-3.8c-.1 2.1 2.1-2-.1-2.1-.7 0-1 .1-1 .7 0 1.1 1.2.5 1.1 1.4m100.3-2.2c.5 1.3.8.4.8.4.4-1-1.6-2.2-.8-.4m-47.2.4c-.7.5-.7.7-.1 1.1 1.5 1 1.4-2.1.1-1.1m80.3 2.3c-.8 1.2 2.8 1.3 1 0-.6-.3-.8-.3-1 0m-149.6 1c0-.1 0-.1-.1 0s-.3.2-.5.3c-.2.1-.5.3-.7.4-1.1.9-1.4 1.2-1.6 1.4-.1.2-.1.2.3 0 .3-.1.6-.4.8-.5.1-.1.5-.4.8-.7.3-.2.5-.4.5-.4-.1 0 0-.1.2-.1.2-.2.3-.3.3-.4m104.2 1c.5.1.6 0 .6-.4-.1-1.1-1.6.1-.6.4m-64.6.4c0 .9.2 1 .9.7 1.6-.6-1-2.4-.9-.7m86.1-7.5c.1 0 .1-.1.1-.1 0-.1-.1-.1-.1-.1-.1 0-.1.1-.1.1-.1.1 0 .1.1.1m-8.9-1.2c.1-.2-.2-.2-.3 0 0 .2.2.2.3 0m-98.5 0c.1-.1.3-.1.3-.1s.1 0 .2-.1.3-.2.5-.1c.2 0 .4 0 .5-.1.1-.1.4-.2.5-.1.1 0 .3 0 .4-.1 0-.1.3-.1.4-.1s.4-.1.5-.1c.1-.1.3-.1.4-.1.1.1.1.2-.1.6-.1.3-.2.4-.1.3.1-.1.3-.2.4-.2h.2c0-.1.2-.2.3-.2.3-.1.3-.1.2-.3-.1-.1-.2-.2-.3-.1-.1 0 0 0 .1-.1.2-.2.3-.2.5.1.3.3.3.3.4-.1 0-.2.1-.3.2-.2.1.1.1.2.1.3-.1.1 0 .2.2.1.1 0 .6-.2 1.1-.4.5-.2.9-.4.9-.4 0-.1.1-.1.3 0 .1 0 .4 0 .6-.1.5-.2.9-.4 1.3-.6.1-.1.3-.1.4 0s.2 0 .3-.1c.2-.2.7-.3 1.8-.4.7-.1 2.1-.5 2.6-.5.2 0 .6-.1 1-.2.9-.3 1.1-.4.7-.5-.3 0-.5-.5-.2-.5.4 0 .2-.2-.2-.2-.2 0-.4 0-.3.1.1.2-.6.3-.9.2-.2-.1-.3 0-.3.1s-.2.2-.7.2c-.4 0-.9.1-1.2.3-.2.1-.5.2-.6.2-.1 0-.4 0-.7.1-.4.1-.5.2-.5.4.1.2 0 .2-.4.1-.6-.1-1.4.1-1.4.2s-.1.1-.3.1c-.2 0-.6.1-.9.2-1.1.3-1.8.4-2.6.7-.2.1-.7.2-1 .2-.8.1-2.5.5-2.9.7-.2.1-.3.1-.4.1-.1 0-.9.3-1.2.6-.4.1-.4.3-.1.1m-4.1-.4c.4-.2.8-.3.9-.3s.4-.1.7-.2c1.2-.6 1.2-.6.8-.5-.4.1-1.5.5-3 1.1-.3.1-.5.3-.6.3-.2.2 0 .1 1.2-.4m4.8-1.1c.4-.2.5-.4.3-.5-.2-.1-.6.2-.7.5-.1.3-.1.3.4 0m68.1-2.1c-.1.2-.1.3-.1.4.1.1-.2.6-.1.7.1.1.3-.4.4-.3.3.2.2-1.6-.2-.8m32 .7c-.1.1.1.1.3.1h.4c0-.1-.6-.2-.7-.1m-5 .8c.1.1.2.3.2.3.2 0 0-.4-.1-.4-.2-.1-.2-.1-.1.1m20.9-.1c.3.2.4.1 0 0-.1-.1-.1-.1 0 0m.9.1c0 .1.1.1.1.1.1 0 .1 0 .1-.1l-.1-.1c-.1 0-.1.1-.1.1m-64.9.9c-.4 1 1.9.9.9.5-.4-.2.1-.6-.4-.8-.2-.1-.3 0-.5.3m41.2.4c-.1 0-.1.1-.1.1l.1.1c.1 0 .1-.1.1-.1 0-.1-.1-.2-.1-.1M63 9.6c.3 0 .4-.1.4-.2-.1-.3.7.1.8-.3 0-.1.1-.2.1-.2 0-.1-1.7.1-1.5.5 0 .1 0 .1-.1.2-.1 0 0 .1.3 0m78.8-5.2c.2.2.3.2 1.8.5 1.3.2 2 .5 2.5.5.7.1 1.6.3 1.6.2 0-.1-.9-.4-1.1-.3-.1 0-.1 0-.2-.1 0-.1-.1-.1-.2-.1s-.2 0-.3-.2c-.1-.1-.2-.2-.2-.1s-.1 0-.2 0c-.1-.1-.6-.1-1-.2-.4 0-.7-.1-.7-.1 0-.1-.1-.1-.3 0-.1 0-.3 0-.3-.1s-.2-.1-.5-.1-.7-.1-.9-.2c-.4-.2-.9-.1-.5.2.1.1.2.1.2.1.1-.1.2-.1.3 0m-3.5 0c.1 0 .2-.1 0 0-.2-.1-.6-.4-.4-.1.1.1.3.1.4.1m2.5-.3c.2.1.4 0 0 0-.1 0-.1 0 0 0m-.3.1c.1-.1-.1-.2-.2-.2s-.1.1 0 .2h.2m-.4-.2c0-.1-.4-.3-.6-.3-.4 0-.2.2.3.3h.3m-1.3-.2c.1 0 .1-.1 0-.2-.2-.1-.4 0-.2.1 0 .1.1.1.2.1m-.7-.4c-.1-.1-.1-.1-.2 0 0 .1 0 .2.1.2.2.1.2 0 .1-.2m-.5-.1c-.1 0-.2-.1-.2 0-.2.1-1.3-.2-1.4-.4-.2-.2-.4-.1-.2.1 0 .1.4.3 1 .4.7.1 1.1.1.8-.1m-2.2-.2c.1-.1-.5-.1-.3 0h.3m-.8-.1c.2 0 .2 0 .1-.1-.2-.2-.3.1-.1.1m-3.6-.2c.2 0 .3 0 0 0-.1-.1-.3-.1-.4-.2-.2-.1-.2-.1-.1.1 0 .1.3.2.5.1m-.8-.1c.1-.1-.5-.1-.3 0h.3m-.8-.1c0-.1-.4-.2-.8-.1-.4 0-.4.1.2.1.4 0 .6.1.6 0m3.8.1c.1-.1 0-.1 0 0-.4-.1-.9-.2-1.4-.3-.6-.1-1.8-.2-1.7-.1.1 0 3 .5 3.1.4m-3.5-.5c.4-.1-1-.1-.6 0h.6m-1-.2s-.4-.1-.8-.1h-.7c1.5.3 1.7.3 1.5.1m8.3.7c.3.1.4-.2.1-.2-.4 0-.4.1-.1.2m10 2c.1.1.2.1.3.1.1 0 .1 0 .1-.1s-.1-.1-.3-.1c-.3 0-.3 0-.1.1m1.1.8c-.2.1-.1.5.1.5s.8.2.7.3c0 .1-.2.1-.5.1-.8-.1-.2.3.8.5.5.1.7-.1.2-.2-.2 0-.3-.2-.3-.2.1-.2.8-.2 2 .2.6.2 1.6.5 2.3.7 1.9.5 4.2 1.3 4.2 1.4 0 0 .1.1.3.1.3 0 .9.2 1.4.4-.2 0-.4.1-.2.4.2.3.5 0 .5 0 .1-.1.2-.1.2-.2.1.1.2.1.1.2s-.1.1 0 .2h.4c.3-.2.1-.3-1-.8-1.4-.5-1.2-.5-2-.8-.4-.1-.6-.2-.6-.3 0-.1 0-.1-.2-.1-.1 0-.5 0-.7-.1-.3-.1-.7-.2-1-.3-.2 0-.5-.2-.5-.3 0-.1-.2-.1-.3-.1-.1 0-.3 0-.4-.2-.1-.1-.2-.2-.2-.1s-.1.2-.1.2c-.1 0-.1-.1-.1-.1 0-.1-.1-.2-.2-.2-1.1-.3-1.4-.4-1.6-.5 0-.1-.4-.2-.6-.2-.2 0-.6 0-.8-.1-.2 0-.4-.1-.5-.1-.1 0-.1-.1-.1-.1v-.1c-.1 0-.4-.1-.8-.2-.2 0-.5 0-.5.1m8.7 2c.2.2.3 0 0 0-.2-.2-.2-.2 0 0m4.2 2.3c0 .1-.1.2-.2.2-.2 0-.1.1.1.2.4.2.6 0 .3-.3-.1-.2-.2-.2-.2-.1m-5.9-.1c-.2 0-.2.1.1.2.2.1.4.1.4 0 .2-.1-.1-.3-.5-.2m1.8-.9c.1-.1-.5-.1-.3 0 .1.1.3.1.3 0m-2.7-.4c-.7-.1-1-.2-1-.1s.3.1.6.2c.6.2.9.1.4-.1m-6.8-.1c-.3-.1-.3.2 0 .2.1 0 .2 0 .2-.1l-.2-.1m7.3 0c.1.1.3.1.3.1.1-.1-.1-.2-.3-.2-.2-.1-.2-.1 0 .1m-2.7-.1c.1-.1-.5-.1-.3 0h.3m2.4-.1c.1-.1-.5-.1-.3 0h.3m-4-.2c.1-.1-.5-.1-.3 0 .1.1.2.1.3 0m-.6-.1c.2-.1-.5-.1-.3 0h.3m4.1.1-.1-.1c-.1 0-.3-.1-.6-.2s-.5-.2-.5-.1c-.4.3 1.2.5 1.2.4m-8.3-.2c.6 0 .8-.2.3-.2-.2 0-.2 0 .1-.1.4-.1.3-.1-.4-.2-.4-.1-.8-.1-.9 0-.1 0-.2 0-.2-.1 0-.2-.2-.2-.2.1 0 .1.2.2.4.3.2 0 .4.1.4.2-.1-.1.2 0 .5 0m5.9-.3c.3.1.6.1.6.1.1-.1-.5-.5-.8-.5-.5.1-.4.3.2.4m-1.2-.3c.1.1.2.1.3.1.1-.1-.3-.4-.4-.3-.1 0 0 .1.1.2m-7.7-.2.4-.1-.4-.1c-.3-.1-.6 0-.4.1 0 .1.2.1.4.1m-.8-.1c.2-.1.2-.1 0-.2s-.5 0-.3.1c.1.1.2.1.3.1m-2.4-.4c.3-.2.3-.2 0-.3-.3-.1-.3-.1-.3.2.1.2.1.2.3.1m6.8-.4c0 .1.1.2.2.2s.4.1.6 0c.3 0 .3-.1-.2-.2h-.6m-.2 0c.2-.1-.6-.1-.3 0h.3m-8.8-.3c-.3-.1-.1.2 0 .3.3.1.3-.2 0-.3m7.8.1h.5c0-.1-.4-.2-.7-.2-.6 0-.4.2.2.2m-8.6-.2c0-.1-1-.3-1.6-.3h-.3l.3.1c.2.1.6.2 1 .2.3.1.6.1.6 0m7.1-.1h.4c0-.1-1-.4-2-.5h-.6c.6.2.8.4 2.2.5m-9.6-.2c0-.1-.4-.2-.7-.2-.5 0-.3.2.3.2h.4m-1.5-.3c.2-.1-.7-.1-.4 0 .1.1.3.1.4 0m8-.2c.1.1.3.1.5.1s.3-.1.2-.1c-.5 0-.9-.2-.7 0m-9 .1h.4l-.3-.1c-.5-.1-.7-.1-.6 0 0 .1.2.2.5.1M117.3 2s-.3-.1-.5-.1h-.4l.5.1c.5.2.6.2.4 0m-1.9.1c.5 0 .5-.1.1-.2-.1 0-.3 0-.4.1-.1 0 0 .1.3.1m-.9-.2c.1-.1-.5-.1-.3 0 .1.1.2 0 .3 0m11.5 0c.6 0 .9-.1.7-.1-1.2-.1-2.1-.2-1.9 0 .1.1.5.1 1.2.1m-1.7-.1.4-.1-.4-.1c-.4-.1-.6 0-.4.1 0 .1.2.1.4.1m-1-.2c0-.1-1-.2-1.3-.1-.3.2 1.3.2 1.3.1m-2.3-.2c-1.4-.1-2.9-.2-2.9-.1s.2.1.5.1 1 0 1.7.1c1.3.1 1.9 0 .7-.1m44.3 10.1c0 .1.1.1.1.1.1 0 .1 0 .1-.1l-.1-.1s-.1 0-.1.1M63.6 13.4c.2-.1-.5-.1-.3 0 .1.1.3.1.3 0m49.1-.2c.1-.1.2-.2.3-.2 0 0-.1 0-.2-.1-.2-.1-.3 0-.3.2-.1.2 0 .3.2.1m20-.1c.2 0 .2-.3 0-.3s-.2.3 0 .3m5.6-.2c0-.1-9.8-3.3-9.9-2.9 0 .1 0 .2.5.3.9.3 9.3 2.7 9.4 2.6m-18.1-1.2h.6c.4-.1-.9-.1-.6 0m-4.5-.5c0 .1.1.1.1.1.1 0 .1 0 .1-.1l-.1-.1-.1.1m-3.9-.1c0-.2-.3-.2-.3 0s.3.2.3 0m-4.7.7c1.4-.2.7-.7 1.5-.8.9-.1.3-.6.9-.7.5-.1.8-.7-.7-.5-1.5.2-.7.7-1.4.8-.6.1-.3-.8-1.1-.7-.5.1-.6.3-.4 1.1.2.9.2.9 1.2.8m28.4-1.9c0 .1.1.1.1.1l.1-.1c0-.1-.3-.1-.2 0m10 1.5c-.3.2 0 .4.8.4.4 0 .8.1.8.1 0 .1.1.1.1.1.1 0 .1-.1.1-.2s-.1-.2-.1-.1-.3 0-.4-.2-.4-.3-.5-.3c-.1 0-.2-.1-.2-.1 0-.1-.1-.1-.3-.1-.2 0-.3 0-.3-.1s-.1-.1-.1-.1c-.1 0-.1.1-.1.2s.1.2.2.2c.2 0 .2.1 0 .2m2.7.6c-.2.1-.2.1.1.2.4.1.4.1.3-.1-.1-.2-.2-.2-.4-.1m1.3.4c0 .1 0 .2.1.2s.1-.1.1-.2c0-.4-.1-.3-.2 0m-16 .7c.6.1.7 0 .2-.2-.6-.1-.9.1-.2.2m-77 132.7c0 .1.2.1.4.2.2 0 .5.1.7.2.3.1.3-.2 0-.2-.1 0-.3-.1-.3-.1-.1-.3-.8-.3-.8-.1m58.3 0h.3c0-.2-.6-.1-.3 0m-55.1.1c-.3.2-.4.3-.1.5.1 0 .1.1.1.2s0 .1.1.1.1-.1.1-.1c0-.1.6 0 .7.1 0 .1.2 0 .4 0 .3-.1.4-.1.6.2.2.3.3.3.5.2.1-.1.3-.1.3 0 0 .3.6.4 1 .2.4-.1.5-.1.6 0 .3.3.4.2.8-.2s.5-.6.3-.6c-.1 0-.1.1-.1.2s0 .1-.2 0c-.2-.2-.4-.2-.4 0 0 .1-.1.2-.2.2s-.2-.1-.2-.2c0-.2-.1-.2-.7-.2-.4 0-.7.1-.8.1-.1.1-.2.1-.3-.1-.2-.2-.2-.2-.4-.1s-.2.1-.3 0c-.1-.2-.5-.3-.5-.1 0 .1-.2.2-.4.2-.4.1-.8-.2-.7-.5 0-.2 0-.2-.2-.1m89.5.6c-.5 0 0 .2.2.1.1-.1 0-.1-.2-.1m-90.2.7c.1-.2-.3-.1-.3.1-.1.3.2.2.3-.1m3.5.4c0 .1.1.1.2.1s.1-.1.2-.1c0-.1-.5-.1-.4 0m.4.2c-.1.1 0 .2.3.2.5.1.9-.1.6-.2-.1-.1-.1 0-.1.1s-.1.1-.1.1c-.1 0-.1-.1-.1-.1.1-.2-.4-.3-.6-.1m-5-.7.1-.1c0-.2-.3-.2-.2 0l.1.1m.6-.5c.2-.1.3-.4.1-.4-.1 0-.2.1-.2.2s0 .2.1.2m89.8.1c-.3.1-.3.1-.1.1.1 0 .3 0 .4-.1.1 0 0-.1-.3 0m3.8.3c0 .3.4.1.4-.1 0-.1-.4-.1-.4.1m-13 0c.3 0 .3-.3 0-.2-.1 0-.2.1-.2.1 0 .1.1.1.2.1m12.2.3c-.5 0-.5 0-.2.3.2.1.3.1.4 0 .3-.2.2-.3-.2-.3m-6.9.1c-.3 0 0 .4.3.5.1 0 .3-.1.3-.2s0-.2-.1-.1c-.1 0-.2 0-.3-.1 0-.1-.1-.1-.2-.1m4.5.2c.1.1.3.1.3.1.1-.1-.9-.4-.3-.1m-17.4.2c-.1 0-.1.1-.1.1l.1.1c.1 0 .1-.1.1-.1.1-.1 0-.1-.1-.1m10.3.2c-.2.1-.2.2.1.2.2 0 .5 0 .8-.1l.4-.1-.5-.1c-.3-.1-.6 0-.8.1m6-.1c-.2 0-.2 0-.1.3 0 .1.1.2.2.1.2-.1.1-.4-.1-.4m-7.1.3c-.1.1-.2 0-.3-.1-.1-.1-.1-.1-.2 0 0 .1-.3.2-.5.2-.7.1-.3.3.4.2.3-.1.7-.2.7-.3h-.1m-2.1.1c-.1 0-.2.4-.1.4.2 0 .1-.4.1-.4m-.6.3c-.1 0-.1 0-.1.1s.1.1.1.1c.1 0 .1 0 .1-.1s-.1 0-.1-.1m-.6 0c-.2-.2-.3-.2-.3-.1s-.1.1-.3 0c-.2-.1-.4-.1-.6-.1-.2.1-.3 0-.3-.1s-.1-.1-.1-.1c-.1.1-.2 0-.3-.1-.1-.1-.2-.1-.3.1-.2.3-.4.4-.4 0 0-.1-.1-.3-.3-.4-.3-.2-.3-.2-.2.2.1.3 0 .3-.1.3s-.3 0-.4.1c-.2.2-.2.1-.2-.1s-.1-.3-.1-.3c-.1 0-.1 0-.1.2.1.2 0 .2-.5.3-.5 0-.6 0-.6-.3 0-.2 0-.2-.2-.1-.1.1-.4.2-.7.2-.3 0-.6.1-.8.2-.1.1-.2.1-.1.1s.2 0 .2.1c0 .3-.7.2-.6.1 0-.1-.5-.1-1.1-.1-.9 0-1.3.1-1.6.2l-.4.2c-.1 0-.6-1.1-.6-1.3 0-.1-.1-.2-.2-.2-.2 0-.2 0-.1.2.2.2.2.8 0 .7-.1 0-.2 0-.2.1-.1.1-.1.1-.2 0s-.1-.1-.2 0-.1.1-.2 0-.2-.1-.3-.1c-.1 0-.2 0-.2-.1s-.1-.1-.1.1-.1.2-.3.2c-.2 0-.4 0-.6.1-.2.1-.4.1-.4.1-.1 0-.2 0-.4.1-.1.1-.3.1-.3 0 0-.2-.6-.2-.9-.1-.2.1-.3.2-.2.3.1.1 0 .1-.1.1-.3-.1-.6.2.1.2h1.1c.3 0 .7 0 .8-.1.1-.1.2-.1.3 0 .1.1.2.1.4 0 .3-.1.4-.1.6.1.2.2 1.1.3 1.4.1.1-.1.3-.1.5-.1.2.1.4 0 .5-.1.1-.1.2-.1.2 0s.3.1.6.1c.7-.1 2.1-.1 2.3 0 0 0 .3 0 .6-.1 1-.3 5.1-.1 5.6-.5.1-.1.2-.1.2.1 0 .1.2.2.3.1.7-.1.7-.2.4-.5m6.6.3c-.1 0-.2.1-.2.1 0 .1 0 .1.1.1s.2-.1.2-.1l-.1-.1m-10.5.9c0 .1.4.3.4.1 0-.2-.4-.2-.4-.1m5.1 0c-.2.2-.1.4 0 0 .1-.1.1-.1 0 0m-.3.1c0-.1-.1-.2-.2-.1-.1 0-.2.1-.3.1-.1 0 .3.3.4.3.1-.1.1-.2.1-.3m-.7.1c.1-.1.1-.1 0 0-.4.1-.2.2 0 0m-11.7 0c-.2 0-.2.3 0 .3.2-.1.2-.3 0-.3m-13-.1c.2 0 .3-.1.3-.1 0-.1-.1-.1-.2-.1h-.5c.1 0 .1.1 0 .2.1-.1.2 0 .4 0m5.9-.7c-.1.2.2.2.3 0 0-.2-.2-.2-.3 0m0 .4c0-.1-.2-.1-.4-.1-.3 0-.3 0-.1.1.1.1.3.1.4.1.1 0 .1 0 .1-.1m1.9-.1c.2-.2.1-.3-.6-.4-.3 0-.5 0-.5.1s.1.1.2.1h.5c.2 0 .3 0 .2.1-.1.1-.1.1 0 .2 0 .1.1 0 .2-.1m-5.9-.7c0-.1-.2-.1-.4 0s-.3.1-.2.2c.1 0 .2.1.2.2s.1.2.3.2c.3.1.3.1 0 .1-.2 0-.3.1-.2.2.1.1.3.2.6.1.2-.1.7-.1.9-.1h.9c.2 0 .4-.1.4-.2s0-.2-.1-.1c-.1 0-.2 0-.2-.1 0-.2-.3-.2-.5.1-.1.2-.2.2-.3 0-.1-.2-.1-.2-.3 0-.1.1-.2.2-.4.1s-.2-.1-.1-.3c.1-.2.1-.3-.2-.2-.3-.1-.4-.1-.4-.2m-2.9.7c-.1-.4.2-.7.4-.4.2.2.3 0 .1-.3-.2-.3-.8-.3-1 0-.2.2-.2.2.1.1.4-.2.5-.2.3 0-.1.1-.3.2-.4.2-.5.1-.3.6.2.7.4.1.4 0 .3-.3m5-1.2c.1 0 .1 0 .1-.1l-.1-.1c-.1 0-.1 0-.1.1 0 0 0 .1.1.1m-3.4-.1c.1 0 .1-.1.1-.1l-.1-.1c-.1 0-.1 0-.1.1s0 .2.1.1m11.8-.2c0 .1.1.1.1.1l.1-.1c0-.2-.3-.2-.2 0m1.5.2c.2 0 .4-.4.3-.5-.2-.1-.4.5-.3.5m3.2-.2c-.2.2-.2.4 0 .4.1 0 .1-.1.1-.3 0-.2 0-.2-.1-.1m-1.3-.1c-.1-.2-.5-.1-.6.2 0 .1 0 .2.1.3.3 0 .6-.3.5-.5m1-.1c.1 0 .1-.1.1-.1l-.1-.1c-.2 0-.2.3 0 .2m-11.7 2.5c-.4.1 0 .2.2.1.1-.1.1-.1-.2-.1m4.8.5h-.2s.1.1.2.1c.3.1.3-.1 0-.1m-1.7-.2c-.1 0-.1.1-.1.1 0 .1.1.1.1.1l.1-.1-.1-.1m-.9.1c-.1 0-.1.1-.1.1l.1.1c.1 0 .1-.1.1-.1l-.1-.1m-7.2 0c-.3-.1-.5 0-.4.1 0 0 .2.1.4 0h.3l-.3-.1zm-45.3-2c0 .1.1.1.1.1l.1-.1c0-.2-.3-.2-.2 0m.6-.1c-.4.1 0 .2.2.1.1-.1 0-.1-.2-.1m6 .5c-.2 0-.2.3 0 .2.1 0 .1-.1.1-.1.1-.1 0-.1-.1-.1m1.9.1c-.2.2-.1.6.1.2 0-.3 0-.3-.1-.2m-62 22c-.3.1-.4.1-.5-.1-.1-.3-.1-1 .1-1.1.2-.1.2-.3 0-.2-.1 0-.1 0-.1-.2s-.1-.2-.3.1c-.2.2-.4.3-.4.3-.1-.1 1.4-3 1.4-3.2 0-.2.6-1.4.8-1.7.1-.1.2-.4.3-.7.3-.7 1.2-2.5 1.2-2.7 0-.1.1-.2.2-.3.1-.1.2-.4.3-.6.1-.3.1-.5.2-.6.5-.6.9-1.4.9-1.9 0-.4.1-.6.3-.7.3-.2 1-1.1 1-1.3 0-.1.3-.7.6-1.4.6-1.2.7-1.9.4-1.8-.2.1-.4-.4-.1-.5.1-.1.3-.3.4-.5.1-.2.2-.4.3-.4.2 0 .1.1-.2.5l-.2.4s.2-.2.4-.5.4-.6.5-.6c.1 0 .1-.1.1-.1 0-.1 0-.2.1-.3.2-.2.3-.7.1-.6-.1 0-.1 0-.1-.1s.1-.1.2-.1c.3.1.6-.1.6-.3 0-.3.4-.9.6-.8.1.1.1 0 0-.1-.1-.2.2-.9 1-2.2.6-1 .3-.9-.3.3-.9 1.7-1.7 2.7-.4.4.4-.7.7-1.3.7-1.4 0-.2.8-1.1.8-1h.2c.1-.1.2-.1.3-.1.1 0 .1-.1.2-.1.1-.1 0-.1-.1 0-.2.1-.2 0 .2-.7.3-.5.3-.6.2-.7-.2-.1-.1-.1.1-.1.1 0 .3-.3.3-.4 0-.1 0-.1-.1 0-.3.2-.3-.2 0-.8.3-.6.3-.6.5-.4.2.2.3.2.9-.7.6-.9.9-1.3.7-1.3-.2 0-.6.5-.6.7 0 .1-.2.3-.3.4-.2.2-.3.1-.2-.2 0-.2.2-.5.4-.6.6-.5.9-1 .7-1.2-.1-.1-.1-.2-.1-.3 0-.1 0-.2-.1-.2s-.1-.1-.1-.2c.1-.1-.1-.6-.2-.6 0 0-.4-.1-.7-.3-.6-.3-.8-.6-.3-.6.2 0 .2 0 0-.1-.1-.1-.3-.2-.3-.3s-.6-.4-1.4-.7c-2-.8-4.3-2-4.1-2.2 0 0 0-.1-.1-.2s-.1 0-.1.1c.1.1 0 .2-.1.2s-.7-.5-1.3-1.1c-1.5-1.5-.6-.5-.4-.3.1.1.2.2.2.4s-.1.2-.4-.1c-1.3-.8-2.2-1.5-2.2-1.6 0-.1-.1-.2-.2-.2-.2-.1-.2 0 0 .1l.1.1c-.2 0-1.9-1.3-1.9-1.5 0-.1 0-.2-.1-.2-.2 0-1.6-1.5-2.7-2.7-.8-1-1-1.3-.9-1.5 0-.1 0-.1-.1-.1s-.2-.2-.3-.4c-.1-.2-.3-.6-.5-.8-.2-.2-.3-.5-.3-.7 0-.1-.1-.5-.3-.7-.1-.3-.3-.6-.3-.7 0-.1-.2-.4-.4-.7-.2-.3-.4-.6-.4-.7 0-.1-.1-.1-.1-.1-.1.1-.2-.1-.1-.5 0-.1-.1-.3-.1-.3-.1-.1-.2-.3-.2-.5s-.2-.6-.5-1-.5-.8-.6-1c-.1-.4-.1-.4.1-.2.4.3.4 0 0-.4-.3-.3-.4-.7-.7-2-1-4.9-1.9-11.7-1.7-12.7v-.3c-.1 0-.1-.3-.1-.7 0-1.2.3-.1.6-1 .1-.2.1-.5 0-.5s-.1-.3-.2-.5c-.1-.4-.4-.8-.3-.4.1.4 0 1-.1 1s-.1-.3-.1-.5v-.4c-.1 0-.1-.3-.1-.6s.1-.6.1-.6c.1 0 .1 0 .2.5 0 .3 0 .3.1.1.1-.1.1-.3.1-.5s.1-.3.4-.4c.3-.1.4-.2.4-.4 0-.1-.1-.3-.1-.3l-.1-.1c.1 0 .1 0 .1.1.2.3.5.1.3-.2-.3-.4.6-.7-.4-.7v-.8c0-.2-.1-.3-.1-.2-.1.1-.1.2 0 .3 0 .1-.1.1-.2.1-.3 0-.5-.2-.3-.3.1 0 .2-.2.1-.6V93c.1.1.1-.1.1-.2 0-.2.1-.3.2-.3s.1 0 .1.1c-.1.1 0 .2.1.2s.1-.1.1-.4c-.3-1.4-.3-13.2-.1-15.6.2-1.5.2-2.5.2-4.1 0-.9.2-4.3.3-5.8.2-1.9.5-4.6.5-4.8 0-.1.1-.7.2-1.2.1-1.3.5-3.1.9-5.4.6-3.5 1.9-8.2 1.9-8.9 0-.1 0-.2.1-.2.2 0 .3-.5.1-.8-.1-.1-.1-.3 0-.3s.1 0 .1.2c0 .5.6-1.9.9-2.7 0-.2 0-.2-.1-.2s-.2.1-.1.2c.1.2-.1 1-.2 1s-.2.1-.3.3c-.2.5-.5 1.8-.4 2 0 .1 0 .2-.1.2-.2 0-.6 1.8-.5 2.1.1.1.1.2-.1.3-.1.1-.2.3-.1.4.1.1 0 .2-.4.2-.2 0-.5 0-.6.1-.1.1-.1 0-.1-.2l.1-.3-.3.3c-.1.2-.3.5-.4.6-.1.2-.2.4-.4.6-.2.2-.4.5-.4.8 0 .3-.1.6-.2.7-.2.3-.1.7.1.6h.2c0 .2-.4 2.1-.6 2.8-.1.4-.3 1.3-.5 2-.5 2.5-.9 3.9-1 4.8 0 .3-.1.7-.2.8-.1.1-.1.3-.1.5s0 .6-.1.9c-.1.3-.2.9-.3 1.3-.1 1.1-.2 1.4-.3 2-.3 1.2-.4 1.6-.3 2.1 0 .4 0 .6-.1.6s-.2.2-.2.7c0 .4 0 .7-.1.8.2.2 0 1-.1 2.2-.4-.1-.8 0-.8.2 0 .3-.3.5-.6.8v-.6c.1-1.8.2-2.3.3-3.1.2-1.2.3-1.6.2-1.6-.1 0 0-.5.1-1 .3-1.4.1-1.4.4-2.5.1-.4.2-1.1.3-1.5.1-.7.6-2.1.6-1.7 0 .1.1.2.2.2.2 0 .4-1.1.2-1.2-.2 0-.3-.1-.3-.2 0-.2 0-.2-.1 0-.1.1-.1.1-.2-.1 0-.2 0-.4.1-.4.1-.1.1-.3.1-.5-.1-.2 0-.3.1-.1l.1-.4c0-.3.1-.4.4-.3.2.1.3 0 .3-.1 0-.2-.1-.2-.3-.2-.2.1-.3 0-.3-.2s-.1-.2-.2-.2c0 .1 0 0 .1-.5 0-.4.2-.7.3-.7.1-.1.2-.2.1-.3-.1-.1-.1-.3-.1-.4v-.2c-.1 0-.1-.1-.1-.2 0-.2.1-.2.2-.2.2 0 .2 0 .2-.2-.1-.2 0-.2 0-.2.1 0 .2-.1.2-.3.1-.6.1-1-.1-1-.3-.1-.2-1.1.2-1.3.1-.1.3-.2.4-.2.1 0 .1-.1-.1-.1-.2-.1-.2-.1 0-.3.3-.2.3-.4 0-.3-.4.1-.3-.1.1-.9.1-.1.1-.3.1-.5 0-.1.1-.2.2-.2s.2-.1.1-.2c0-.1 0-.4.1-.7.6-1.7.9-2.4 1.1-2.8.1-.2.2-.5.2-.6 0-.4 1.5-3.2 1.9-4.2.3-.8 2.2-4.1 2.7-5 .4-.9 2.9-4.5 3.4-5 .8-.8 1.2-1.3 1.1-1.4-.1-.1.1-.3 1.1-1.5.5-.6 3.2-3.3 3.7-3.7.6-.5.8-.7 1.9-1.4.4-.3.8-.6.9-.6.1-.1.3-.2.5-.3.2-.1.6-.3.9-.5 1.3-.9 5.9-3.4 6-3.3 0 0 .1 0 .1-.1.1-.2 2-1.2 3.5-1.8.8-.3 1.7-.7 2-.9.3-.2.6-.3.6-.2.1 0 .1 0 .1-.1 0-.2 1.3-.7 1.6-.6.2 0 .2 0 .2-.1s0-.2.2-.3c.2 0 .3-.1.3-.1l.6-.2c.5-.2.6-.2.8-.1.2.1.2.1.2 0-.1-.1 0-.2.1-.3.2-.1.4-.1.4 0s-.1.1-.2 0-.1 0-.1.1c.1.2.6-.1.6-.3 0-.2.2-.3.5-.2.1 0 .1-.1.1-.1 0-.1 0-.1.1-.1 0 0 .5-.1 1.1-.4 1.7-.7 2.8-1.1 3-1.1.1 0 .2 0 .2-.1s1-.5 1.4-.6c.2 0 .3 0 .3.2s0 .2.4.1c.8-.3 1-.4.9-.6-.1-.2.1-.4.5-.4.2 0 .2.1.2.2-.1.1 0 .2.2.2.1 0 .3-.1.3-.1 0-.1.1-.1.2 0 .1 0 .2 0 .2-.1s-.1-.2-.4-.1c-.3 0-.3 0 .1-.2.2-.1.5-.2.6-.1.1 0 .1 0 .1-.1s.1-.1.3-.1c.2 0 .2.1.2.2s0 .2.1.2c.2 0 .2-.1.1-.3v-.1c.1.2.3.2.3.1 0-.3 0-.3.2-.1.1.2.3.2.5.1.4-.1.3-.3-.1-.3-.6.1-.2-.2.4-.3 1.5-.4 1.6-.6 2.9-.7.2 0 .5-.1.6-.1.1 0 .1 0 .1.1.1-.2.1-.2.2-.2s.1-.2.1-.3c-.1-.1.1-.2.4-.2 0 0 .2 0 .4-.1s.4-.1.6 0c.2.1.2.1.2 0s0-.1.1-.1.1 0 .2-.1c0-.1.3-.2 1.4-.3.3 0 .7-.1.7-.1.2-.1.9-.2 1.2-.3.1 0 .4-.1.7-.1 1-.1 1.1-.3 3.8-.7.5-.1.7-.2 1.3-.3 2.5-.3 3.1-.7 3.5-.4.2.1.2.1.1-.1s-.1-.2.1-.1c.1.2.3.2.3.2.1-.1.8-.2 1.6-.3.2 0 .5-.1.5-.1s.1 0 .3-.1c1.4-.2 1.9-.3 1.8-.5 0-.1 0-.1.1 0s.3 0 .4-.2c.1-.1.2-.2.2-.1s.1.2.2.2c.2 0 .2 0 0 .1-.1.1-.2.1-.1.1.6.1.8 0 .5-.2-.1-.1-.1-.2 0-.2s.2.1.2.1c0 .1.2.1.4.1.7 0 1 .3.9-.1-.1-.2-.1-.2.1 0s.2.2.7.1c.3-.1.6-.2.6-.3.1-.1.3-.1.5-.1s.4-.1.4-.1c0-.1-.1-.1-.2-.1s-.1 0-.1-.1c0 0 .2 0 .3.1.2.1.6.1 1.7-.2.8 0 1.4-.1 1.5-.1s.3 0 .5-.1c.4-.2 1.4-.4 2.4-.5.6-.1 1.1-.2 1.6-.3.6-.2 2.3-.2 2.7-.4.1-.1.3-.1.4-.1.1 0 .3 0 .3-.1.1-.1.8-.2 2.3-.5.4-.1.8-.1.8-.1.1 0 .2 0 .4-.1s.3-.1.3 0 .1.1.2 0c.3-.2 2.2-.1 2.4-.3.1-.1.4-.1.8 0 .5.1.7 0 .9-.1.1-.1.4-.2.8-.2 2.3-.1 4.7-.6 4.7-.2 0 .1 0 .2.1 0 .1-.1.4-.2.8-.2.5-.1.7 0 .6.1s-.1.1.1 0c.1-.1.3-.1.5 0 .4.2 1.3.1 1-.1-.1-.1-.1-.1.1-.1.1 0 .2-.1.2-.1 0-.2.6-.1.6.1 0 .1-.1.2-.2.2s.1.1.4.1c.5 0 .6 0 .5-.1-.3-.2 0-.2.2 0 .1.1 1.8.2 2 .1 0 0-.3-.1-.9-.1-.6 0-.9 0-.8-.1.1-.1 1-.3 1-.1 0 0 .6.1 1.3.1 1.5 0 4.3.2 5.4.3 1 .1 2 .2 5 .4 5.4.4 4.9.1-1.3-.3-1.5-.1-4.5-.4-5.4-.4-.2 0-.4-.1-.4-.1 0-.1.2-.1.5 0s.5 0 .5-.1-.1-.1-.3-.1c-.3 0-.6-.3-.3-.4h.2s.5.1 1.2.1c1.7 0 1.6.1 5.3.3 3.1.2 3.3.2 6.5.5 4.8.5 6.1 1.1 6.1.8 0-.1-2.2-.6-2.3-.5 0 0-.2 0-.3-.1-.1-.1-.5-.2-.7-.2-.2 0-.5-.1-.6-.2-.1-.1-.1-.1.1-.1.1 0 .3 0 .3-.1.1-.1.1-.1.2 0s.4.2.8.2.6 0 .6.1c0 0 .8.2 1.9.4 1.9.4 2.8.6 1.5.5-1.2-.1.1.4 1.4.5.3 0 1.2.3 2.2.5.4.1.8.2 1 .2h.4c0 .1.8.3 2.1.5.6.1 1.5.3 1.6.2.1-.1-.3-.3-.9-.4-.3 0-.6-.1-.6-.2s.1-.1.2 0c.1 0 .6.1 1.1.1.5 0 .9.1 1 .2.1.1.2.1.3.1.1-.1.5.2.4.4 0 .1.1.2.2.2s.3.1.3.2 0 .1.1.1h.2c.1.1.4.1.7.2.7.1 1.3.2 1.5.3.2.1.8.2 1.1.3.6.2.5.1 1.8.5 1 .3 1.2.3.6 0s-.2-.3.4 0c.3.2.4.3.3.3-.4 0-.2.1.5.3.5.1.6.2.4 0-.5-.3-.2-.3.7.1.7.3 1 .5.9.6v.1c.1-.1.2 0 .3 0 .1.1.3.1.4.1.1 0 .3 0 .4.1.1.1.2.2.3.1.2-.1 1 .3 1.1.5 0 .1.1.2.2.1 0 0 .3 0 .6.2l.6.2s.3.1.5.3c.2.2.6.3.7.3.1 0 .3.1.4.2.1.1.3.2.4.2.1 0 .5.2.8.3 1.2.7 4.6 2.1 4.2 2.2-.3.1-2.5-.6-3.8-1.3-.7-.3-1.4-.7-1.5-.7-.4-.1-.4.1-.1.3.3.3.4.3.3.1-.1-.1 0-.1.2-.1.1 0 .2.1.2.2s.1.2.2.2c.3.2.1.4-.2.2-.2-.1-.3-.1-.3 0-.1.2-.3.2-.3 0 0-.1-.2-.2-.8-.2-.8 0-.8 0-.5.1.3.1.3.2.2.3-.1.1 0 .2.4.4s.5.3.3.4c-.1 0-.3 0-.4-.1-.1-.1-.3-.1-.5-.1-.5 0-.6-.2-1.1-.9.7 0 .8 0 .5-.2-.1-.1-.4-.2-.5-.2-.1 0-.2 0-.2-.1.2-.2-2.6-1.1-3.9-1.3-.4 0-.7-.1-.8-.1-.1 0-.1.1-.2.2 0 .1 0 .2.1.1.1 0 1.1.3 1.1.3s-.4 0-.8-.1-1.1-.1-1.6-.2c-.5 0-1-.1-1.2-.3-.3-.2-.2-.3.1-.2.1 0 .5-.3.5-.4 0-.1-.5-.2-1-.3-.7-.1-2.6-.7-3-.7-.2 0-.2 0 0 .2.2.1.2.2.1.3-.2.2 0 .2.3 0s.7 0 .7.2 0 .2.5.1 1.3.1 1.3.4c0 .2-.2.3-.2.1-.1-.2-1.7-.2-1.8-.1-.1.2-.3.1-.3-.1.1-.2-.7-.4-.9-.2h-.2c-.1-.1-.2-.2-.4-.3-.4-.2-.4-.2-.3 0 .1.3-.1.3-.3 0-.1-.2-.3-.2-.9-.2-.8 0-1.5-.2-1.6-.5 0-.1-.2-.2-.3-.2s-.2 0-.2-.1c0-.2-.8-.3-1.1-.1-.3.2-.7.2-1.1 0-.1-.1-.3-.2-.5-.2-.1 0-.3-.1-.4-.2-.1-.1-.5-.2-.8-.2h-.7c0-.1-3.1-.2-3.3-.4-.1-.1-.3-.1-.5-.2s-.3-.1-.3-.2c.1-.1 0-.1-.1-.1s-.3 0-.3-.1c-.1-.1.1-.1.5-.1 1.1.1.7-.1-.6-.3-1.2-.1-3.3-.2-2.5-.1.7.1.9.2.9.3 0 .1-.2.1-.6.1-.3 0-.6 0-.6-.1 0 0-.1-.1-.3-.1-.4-.1-.5-.2-.1-.2.2 0 .3 0 .2-.1-.1-.1-1-.2-2.4-.3.1-.1.1-.3.1-.3-.2-.3-.5.2-.7-.1-.3-.4-1.9-.3-1.4.2 0 .1.1.1.1.1-.5 0-.7 0-.7.1s0 .1-.1 0c-.2-.2-1.9-.2-2.7-.4-.5-.1-3.2-.2-4-.3-1-.1-9.2-.4-10.9-.3-1.3 0-6.1 0-6.1.2s-.3.5-.6.5c-.1 0-.2-.1-.2-.2s.1-.2.2-.2c.2 0 .2-.3 0-.2-.1 0-.6.1-1.1.1-1.4 0-1.4 0-1.4.3 0 .2 0 .2-.1 0-.4.3-.6.3-1.5.3-1.1 0-2.1.2-2 .4 0 .1 0 .1-.1.1s-.4 0-.7.1c-.3 0-.6 0-.7-.1-.1-.1-.2-.1-.3 0-.1.1-.9.2-2.5.3-3.5.2-5 .4-7.1.5-2.1.1-3 .3-4.8.4-1.4.1-2.1.3-4.9.5-1.1.1-2.2.3-2.4.3l-.3.2c.4.1.8.2.5.2-.1 0 0 .1.3.1.4.1.5.1.2.1-.2 0-.3.1-.3.1 0 .1-.3.1-.7.1-.9 0-2 .1-2.6.2-.6.1-.6-.2 0-.2s.9-.1.7-.3h.2c.2 0 .3 0 .3.1s.2.1.4 0c.4 0 .4-.1.2-.1-.5-.2.8-.1.8-.5 0-.2-.1-.2-.3-.1-.1.1-.5.1-.8.1-.3 0-1.4.1-2.3.3-2.2.3-2.2.3-2.6.4-.5.1-2.1.2-2.4.3-.3.1-.9.2-1.3.2-.5 0-.2.3.4.3.4 0 .6 0 .5.2-.1.1 0 .1.1.1.1-.1.1-.1.1-.2s.1-.1.4-.1c.4 0 .4 0 .2.1s-.2.1.2.1c.2 0 .5-.2.6-.3.1-.1.4-.2.6-.2.4 0 .4 0 .2.1s0 .1.5.1h.6c-.1 0-.1.1-.1.2.1.2-.2.2-1.4.3-1.9.1-2.2.2-2.4.3-.1.1-.6.2-1.2.2-.8 0-1 .1-1.1.3-.1.1-.2.2-.3.2-.1 0-.4 0-.7.1-.4.1-.9.2-1.2.3-.3 0-.6.1-.7.1-.1 0-.4.1-.8.1s-.9.2-1.2.2c-.3.1-.8.2-1 .2-.3 0-.6.1-.6.1-.1.1-1.9.5-2.9.7-.2 0-.4.1-.4.2s-.1.1-.2.1c-.4 0-1.6.3-1.6.4 0 0-.1.1-.4.1-.2 0-.7.1-1.1.3-.3.2-.7.3-.9.3-.3.1-5.2 2-5.3 2.2-.1.1.8-.1 1.5-.4.5-.2.7-.3.6-.1v.3c.1.2.2.1 4.4-1.3.7-.2 1.6-.5 1.9-.6 3.5-.9 6.2-1.6 6.4-1.6.1 0 .3.1.3.1 0 .1 0 .1-.1.1-.3 0-1.3.2-1.3.3 0 .1 0 .2-.1.3-.1.2 0 .2.7.1 1.1-.1 2.5-.4 3.4-.6.5-.1.5-.1.3.1-.1.2-.1.3 0 .4.1.1.2.2.3.2.1 0 .2.1.1.1 0 .1.1.1.5.1.5 0 .5 0 .3-.2s-.2-.2.2-.3h.5c.1.1.2.1.3.1.2-.1.2-.1 0 .1-.2.1 0 .1.6.1.7-.1 1-.2.9-.5-.1-.1.2-.2.2.1 0 .1.1.2.3.2.2 0 .3 0 .1-.1-.2-.1-.2-.1 0-.3.1-.1.3-.1.5-.1.3 0 .3 0 .1.2-.2.2-.1.2.7.1 1.5-.2 1.5-.2 2.9-.4.5-.1 1.4-.2 1.8-.3 1.3-.1 2.5-.3 2.6-.4.3-.2.1-.3-.3-.2h-.4l.4-.1c.8-.2 1.8-.4 1.9-.3.1.1 0 .1-.3.1s-.4.1-.4.2c0 .3.8.1 1.2-.3.2-.2.4-.3.5-.2.2.1.2.1 0 .2s-.1.2.4.1c.3 0 .6-.1.7-.1 0 0 .2-.1.3-.1.1 0 .3-.1.3-.2.1-.3.3-.2.2-.1-.1.2 1.5.2 1.7 0 .1-.1.5-.1 1-.2 1.1-.1 1.3-.1 1.5-.2.2-.1 3.2-.5 3.5-.5 0 0 .1-.1.1-.3 0-.2 0-.2.1-.1 0 .1.2.2.4.2.5 0 1.8-.3 1.6-.4-.2-.1-.1-.3.3-.1.4.2 2 0 2.2-.2.4.3.6.2.7.2.4 0 .4 0 0 .2-.3.1-.3.1 0 .1.1 0 .3 0 .4-.1 0 0 .4-.1.9-.1s.9-.1 1-.3c.1-.1.3-.2.3-.1.1.2 2.2 0 2.5-.3.3-.2 1-.3.8-.1-.1.2.8.3 1.3.1.2-.1.9-.2 1.5-.2 1.6-.1 3.1-.2 3.8-.2.3 0 .7-.1.8-.1.5-.2 1.5-.2 1.9 0 .2.1.4.1.5.1.2-.1 1.4-.1 1.4 0s0 .1.1.1h.4c.1.1.5 0 .8 0 .3-.1.5-.1.6 0 .2.1 6 .2 6.8.3 2.9.3 5.4.3 7.5.5.6.1.8 0 .7-.1v-.1c.1 0 .1.1.1.1 0 .2.3.2.2-.1v-.2c.1 0 .1.1.2.2 0 .1.2.2.4.1.2 0 .4 0 .4.1s.3.1.5.2c.3.1.4.1.2-.1-.1-.1-.1-.2-.1-.3.1-.2 0-.2-.3-.1-.5.1-.5-.2.4-.2.5 0 .7-.1.7-.2s.1-.1.1.1c.1.2.1.3 0 .5s-.1.3 0 .4c.2.1 2.7.4 3.9.5.4 0 .8.1 1 .2.5.2 1.3.2 1.3 0 0-.1.1-.2.2-.2s.2-.1.2-.2-.2-.2-.8-.1c-.5 0-.9 0-.9-.1-.1-.1-.1-.1-.2 0s-.2.1-.5 0c-.4-.2-.4-.3 0-.4.2 0 .3-.1.3-.2 0-.2.2-.1.3.1 0 .2.1.2.3.2.2 0 .3-.1.3-.2s0-.1.1 0 .3.2.6.2c1 .1 1.4.3 1.4.4v.3c0 .1.1.1.2 0s.1 0 0 .1-.2.2-.3.1c-.1 0-.1 0 0 .1.2.2 1.6.5 3.7.7 1.2.1 2.1.4 2.7.4.2 0 .6.1.8.1.4.1.5-.1 0-.4-.2-.1-.3-.3-.3-.5s0-.4-.1-.4c-.2-.1-.1-.3.2-.3.2 0 .3 0 .2-.1-.3-.1-.2-.3.1-.2.2.1.3.2.3.3 0 .1.6.4 1.2.5 0 0 0 .1-.1.1-.3.2 0 .4 1.1.6.2 0 .4.1.4.2s.2.1.3 0c.2 0 .3 0 .2.1-.1.1.1.2.4.1.4 0 1.2.1 2.7.5.2 0 .2 0-.1-.3-.2-.2-.3-.3-.1-.3.1 0 .3.1.4.1.1 0 .2.1.1.1-.1.1 0 .1.2.1.4-.1.3.2.1.2-.1 0-.2.1-.2.2s-.2.3-.4.4l-.4.2.4.1c.4.1 1.9.4 2.7.6l.5.1-.3-.3c-.4-.3-.2-.6.4-.4.3.1.4.2.2.4-.3.3-.2.4.3.3.3-.1.4 0 .4 0 0 .1.3.2.7.3 1.2.3 1.5.4 1.4.3v-.3c.1-.2.7-.1.7.2 0 .1-.1.2-.2.1-.1 0-.2 0-.2.1s.4.3.8.3c.2 0 .2-.1.2-.3-.1-.4.2-.3 1.3.1.5.2 1 .3 1.1.4.2 0 .1.3-.1.3s-.3.3.2.2c.2-.1.3 0 .3 0-.1.1.2.3.5.3.2 0 .1-.4-.1-.5-.2-.1.7 0 .8.2 0 .1.2.1.3.1.3 0 1.3.3 1.5.4.1.1.4.1.7.2.3 0 .7.2.8.3l.1.1h-.2c0 .1.2.2.4.3.6.2 1 .2.5 0-.2-.1-.3-.2-.2-.2.1-.1.8.2.7.3 0 .1.4.2.9.4l.8.3c.1.1.2.1.4.2s.3.1.4.1c.2.1.4.1.6.2 0 .1 0 .2.2.3.2 0 .2 0 .3-.1.1.1.3.1.5 0 .2 0 .4.1.6.2.2.2.4.3.7.2.3 0 .4 0 .5.2.1.1.3.3.5.3.2.1.5.1.5.2.2.2 1.9.7 2.7.9.2 0 .4.1.4.2s.1.1.3.1c.1 0 .3.1.3.1 0 .1.2.1.3 0 .1 0 .4.1.7.3.4.3 1.1.6 1.4.5.1 0 .1 0 .1.1s.1.1.3.1c.1 0 .3.1.3.1 0 .1.2.2.5.2s.6.1.7.2c.3.2 1.3.6 1.6.8.1.1.5.2.9.3.4.1.7.3.8.5.1.2.3.4.4.5.1.1.2.3.2.3 0 .1.7 1.6 1.3 3 .3.6.6 1.3.6 1.3 0 .1.1.1.1.1.1-.1.1 0 .1.1-.1.1.1.3.4.6.3.3.4.4.3.4-.2-.1.1.6.3.8.1.1.1.2 0 .2-.2 0 0 .3.4.9.2.2.2.3.1.1-.1-.1-.1-.5-.2-.7 0-.2-.1-.5-.2-.5s-.1-.2-.1-.3c0-.3.2-.1.3.3 0 .2.2.4.3.4.1 0 .2.1.1.1 0 .1 0 .2.1.3.1.1.2.3.2.4 0 .1.1.2.1.2.1 0 .2.1.2.2v.1c-.1-.1-.2 0-.3.1-.1.1-.2.1-.4-.1s-.2-.2 0 .1c.1.2.2.3.2.3s.2 0 .3.1c.2.1.2.3.2.6 0 .2.1.5.1.5l.1.1c0 .1 0 .2.2.3.1.1.2.2.1.2s-.1.1 0 .4c.1.2.3.6.3 1 .2.6.3.7.6.4 0-.1.2.1.2.4.1.3.2.5.3.4.2-.1.4.3.2.5-.1.1-.1.2-.1.5.1.2 0 .4-.1.5-.1.1-.1.1 0 .1s.3.2.4.4c.1.3.2.4.3.3.2-.1.2 0 .2.3 0 .2-.1.3-.1.3-.1 0-.1.1-.1.2 0 .3 0 .3-.2 0-.2-.2-.2-.2-.2.2 0 .6.2 1.3.4 1.2.1 0 .1.1 0 .2-.1.3 0 .3.1.1.2-.1.2-.1.3.1.1.2.1.2.1-.1 0-.5.2-.2.3.5.1.4.1.5-.1.3-.1-.1-.2-.2-.3-.2h-.3c-.1 0-.1-.1-.1-.2.1-.1.1-.1-.1 0-.1.1-.1.2 0 .3.1.1.1.3.1.4 0 .1.1.2.2.2s.2.1.2.2c0 .3.3.2.3 0 0-.3.2.3.2.7 0 .2 0 .2-.1 0-.2-.4-.2-.4-.2.4 0 .6 0 .7.2.4.3-.3.4-.2.4.4 0 .3 0 .4-.1.2-.1-.3-.1-.3-.4-.2-.2.1-.3.5-.1.5.1 0 .1.1.1.3 0 .2.1.5.2.8.2.5.5 1.8.6 2.3 0 0 0 .2-.1.3-.1.3 0 1.3.2 1 .1-.2.2-.1.3.5.1.3.1.4 0 .3-.2-.1-.2.3.1.3.2 0 .2 0 .1.2-.2.2-.2.5 0 .3.1-.1.1-.1.2.1v.2c-.1 0-.1.1-.1.2 0 .4.3 1.3.4 1 0-.2 0-.2.1 0 .2.3.2.6 0 .5-.1-.1-.2.5-.2 1.1 0 .4-.2.2-.3-.2v.2c0 .3.1.9.1 1.5s.2 1.1.2 1.2c.1.1.1.2 0 .1s-.1.1-.1.6c0 .4.1.8.1.9 0 .1.1 1.7.1 3.5.1 5.3.1 1.2 0 11.7 0 1.9-.1 3.2-.3 4.3-.3 1.7-.4 3.1-.4 4.2 0 .4-.1.7-.1.7-.1.1-.1.2 0 .4s.1.3 0 .3-.2.5-.2 1c-.2 2.4-.3 2.5 0 2.4.2-.1.2 0 .1.1 0 .1-.1.4-.1.6 0 .5-.3.4-.2.2.1-.2 0-.2-.1-.1-.2.2-.4 2.3-.2 2.1.1-.1.2-.3.2-.5.1-.5.1 2.4 0 2.4s-.2.8 0 .7c.2-.1.1.4 0 .6-.1.1-.2.5-.3.8-.1 1.1-.4 2-.5 2-.2-.1-.1.2 0 .5.1.2.1.8-.1 2-.4 2.8-.9 5.6-1.1 5.6-.1 0-.1.2-.1.3v.3c-.1 0-.1.4-.1.7 0 .3-.1.9-.2 1.3-.1.5-.1.8-.1.9.1.1.1.2 0 .2s-.3.6-.4 1.3c-.6 2.8-1.2 5.1-1.3 5.4-.2.5-.8 2.9-.9 3.1-.1.1-.1.2-.1.4s-.1.4-.2.6c-.1.2-.3.7-.5 1.2-.3 1.1-.9 2.8-1.2 3.5-.2.3-.5 1.1-.8 1.8-.7 1.7-1.2 2.7-1.3 2.5-.1-.1 1.5-3.8 1.5-4 0-.2-.3.3-.5.7-.2.6-.5 1.2-1 2.4-.7 1.9-1 2.2-2.8 3.9-1 .9-2.3 2.1-3.5 3.2-1 .9-2.5 2.1-2.9 2.2-.2.1-.3.2-.3.2 0 .1-.1.1-.2.1-.2 0-.7.3-.9.5-.1.1-.2.2-.3.2-.1 0-.3.1-.5.3-.2.1-.4.2-.5.2-.1 0-.4.1-.7.3-.3.2-.6.4-.7.4-.8.3-1.3.6-1.2.7 0 .1 0 .1-.1.1-.4 0-.6.1-.7.3 0 .2-.1.2-.2.2-.2-.1-4.3 1.9-4.7 2.3-.2.2-.6.4-.9.5-.1 0-1.7.8-2.4 1.2-.2.1-.6.3-.9.5-.7.3-.9.5-.8.9 0 .2 0 .3-.1.3-.1-.1-.2-.2-.1-.4l.1-.3c-1.6.8-2.5 1.2-2.9 1.5-.4.3-1.2.5-2.2.6-.6 0-.8.1-.8.2.1.1 0 .2-.2.2-.3.1-.5 0-.3-.2.1-.1.1-.1-.1-.2s-.3-.1-.3-.1-.2.1-.3.1c-.2 0-.2.1-.2.4 0 .2 0 .3-.1.3l-.6.2c-.7.3-.8.3-.9-.1 0-.2-.2-.4-.3-.5-.1-.1-.2-.1-.2.1 0 .1-.2.3-.3.3-.2 0-.2 0 .1.1.4.1.5.4.1.4-.2 0-.4.1-.6.2-.2.1-.5.2-.7.2-.2 0-.4.1-.4.2 0 .2-.6.4-1 .4-.1 0-.2-.1-.2-.2s-.1-.1-.1-.1c-.2.1-.5-.3-.4-.6.1-.3-.2-.2-.6.3-.3.4-.6.6-.6.3 0-.1.1-.2.2-.4.3-.3.3-.7.1-.7-.4 0-.6.2-.8.7-.1.4-.3.5-.5.5-.3 0-.3 0 0 .1.4.1.4.2.4.7-1.4-.8-1.5-.9-1.5-.3 0 .1 0 .2-.1.2s-.1-.2-.1-.3c0-.5-.2-.5-1-.4-.4.1-.8.1-.9.2-.1 0-.4.1-.5.2-.2.1-.2.1.2.1.3 0 .5 0 .6.1.1.1 0 .1-.1.1-.2 0-.2 0 0 .1.3.1.2.7-.1.7-.2 0-.2-.2-.2-.5 0-.1 0-.2-.1-.2s-.1.1-.1.2-.1.2-.2.3c-.2.1-.2.1-.1.2s.1.1 0 .2-.2 0-.2-.1c-.1-.3-.3-.3-.3.1 0 .2-.1.3-.3.3-.2 0-.3-.1-.3-.2s-.1-.2-.2-.2-.2.1-.1.3c.1.4-.2.2-.7.3-.1 0-.2 0-.2-.1 0-.3-.2-.3-.3 0 0 .2-.2.2-.6.2-.3 0-.6 0-.6-.1s-.3-.1-.6 0c-.6.1-.6.1-.4-.2.1-.2.3-.2.4-.2.2.1.2 0 .1-.2-.2-.3-.1-.4.3-.4.1 0 .2-.1.2-.2s-.1-.2-.4-.2c-.2 0-.5 0-.6-.1-.1-.1-.2 0-.2.2-.1.3-.2.3-.6.3-1.5 0-2 0-2.1-.2-.1-.1-.2-.1-.3 0-.1.1-.5.1-1 .1s-1 .1-1.3.1c-.3.1-.4 0-.4-.1s-.1-.1-.3.1c-.2.2-.4.2-1 .2-.4 0-.9 0-1.2.1-.3.1-.6.1-.7 0-.1-.1-.3-.1-.5-.1H124.4c-.6 0-.7.1-.5.2.1.1.1.2-.1.2s-.3-.1-.2-.1c0-.1 0-.1-.1-.1s-.2-.1-.3-.2c0-.1-.1-.1-.2 0s-.3.1-.4.1c-.2-.1-.2 0-.1.3.1.4 0 .5-.6.3-.5-.2-.6-.4-.3-.4.1 0 .1-.1-.1-.1-.2-.1-.4-.2-.4-.3 0-.1-.1 0-.2.3-.2.3-.3.4-.6.4s-.4 0-.3-.3c.1-.3-.2-.3-.2 0 0 .2-.1.3-.5.3-.3 0-.5-.1-.5-.1 0-.1-.1-.1-.2-.1h-.2c0-.2-.9-.2-1-.1 0 .1.1.2.2.2.2 0 .2.1-.1.1-.2 0-.4 0-.4-.2 0-.3-.3-.3-.2 0 .1.3-.3.5-.7.4h-.8c-.3.1-.5.1-.9-.1-.3-.1-.5-.1-.5-.1 0 .1-.1.1-.2 0-.3-.2-4.9-.2-5.2-.4-.1-.1-.2 0-.3.1-.1.1-.1.1-.3 0-.1-.1-.2-.1-.3-.1 0 0-.2 0-.3-.1-.2-.1-.3-.1-.8 0-.6.2-1.2.2-1.5.1-.1 0-.5-.1-.9 0-.4 0-.8 0-.7-.1 0-.1 0-.1-.1-.1s-.2-.1-.1-.2c.1-.2 0-.2-.2 0-.3.3-1.2.6-1.4.5-.1 0-.3-.1-.5 0-.2 0-.3 0-.3-.1s0-.2-.1-.2c-.1-.1-.1 0-.1 0 .1.2-.5.2-.7 0 0-.1-.1-.1-.2 0-.1.2-1.5.2-3.4.2l-.3-.4c-.1-.2-.2-.4-.2-.3 0 .1-.2.1-.4.2-.2 0-.4.1-.5.2-.1.1-.1.1-.1 0 0-.2 0-.3-.3-.3-.1 0-.1 0 0 .1.2.1.2.1 0 .3-.1.1-.3.2-.4.1-.2-.1-1-.1-2.8-.3-.5 0-1-.2-1.2-.3-.2-.1-.4-.1-.4-.1 0 .1-.1.1-.2.1s-.2 0-.3.1c0 .1-.2.1-.3.1-.1 0-.2-.1-.1-.2s0-.1-.3-.1h-.4c0-.1-.2-.1-.3 0-.3.2-2.2.2-2.4 0-.1-.1-.2-.1-.3 0-.1.1-.2.1-.6.1-.3-.1-.6-.1-.6-.1-.1 0 0-.1.1-.3.4-.6-.1-.4-.8-.3-.1 0-.2.1-.2.3 0 .3-.7.4-.9 0-.1-.1-.1-.2-.1-.1s-.2 0-.3 0c-.3-.1-.3-.1-.4.2 0 .2-.2.3-.2.3-.3 0-.7-.2-.7-.3.1-.2-.2-.2-.2.1 0 .1-.1.1-.4 0-.2-.1-.4-.1-.4-.1h-.3c-.2-.1-.3-.1-.3.1-.1.2-.2.2-.6.1-.3-.1-.5-.2-.5-.3 0-.1-.2-.1-.4-.1-.3.1-.4 0-.5-.2.5-.2.3-.7-.1-.8h.5c.4-.1.8 0 1 .1.3.1.4.1.4 0s.1-.1.2 0c.1.2.5.1 1.5 0 .3-.1.4 0 .4.1s.1.1.2.1h.4c.1.1.3.1.5 0s.5-.1.8 0c.3.1 1 .2 1.9.2.1 0 .3.1.4.1.1.1.2.1.4 0 .1-.1.4-.1.6 0 .2.1.6.1.8 0 .5-.1.6-.1.8-.1.1 0 .9.1 1.8.1 1.3 0 1.8.1 2.1.2.3.2.4.2.5 0 .1-.1.3-.1.6-.1.2 0 .7.1.9.1s.5.1.6.1c.1.1.2.1.2 0 0 0 .1 0 .2.1s.2.1.4 0c.2-.2 1.4-.2 1.4 0 0 .1.3.1.7.1.4 0 1.3-.1 2-.1s1.4-.1 1.5-.1c.1-.1.3-.1.5 0s.6.1.9.1c.5 0 .6 0 .7.2.1.2.1.2.5 0 .3-.2.4-.2.6-.1.2.1.5.1.9.1.9-.1 1.1-.1 1.2.1 0 .1.1.1.2.1.4-.2 3.7-.3 4.2-.3v-.5c0-.3 0-.5.1-.6.1-.2 0-.3-.5-.2-.3 0-.4.1-.3.3.1.2 0 .2-.1.1-.3-.2-.4-.2-.2.1.2.2.2.2 0 .1-.1-.1-.2-.1-.1.1.1.1 0 .2-.1.2-.2 0-.4-.4-.2-.5.1-.1 0-.8-.1-.8s-.1.1-.2.2c0 .1-.1.2-.2.1-.1 0-.3 0-.5.1-.3.2-.3.2-.4-.1-.1-.4-.3-.4-.6-.1-.2.2-1.2.3-1.1.1.1-.1 0-.1-.2 0-.1.1-.4.1-.6.1-.2 0-.5-.1-.6-.1 0 0 0-.1 0 0 .6-1-1.1-.5-1 0-.2 0-.4 0-.5-.1 0 0-.3-.1-.7-.1-.5 0-.6 0-.8.2-.1.1-.1.4-.1.4 0 .1 0 .2-.1.3-.3.1-.3 0-.2-.3.2-.4.2-.4-.1-.5-.1 0-.4 0-.6.1-.3.1-.4.1-.5 0-.1-.1-.2-.1-.2 0s-.1 0-.1-.1c-.1-.2-.1-.2-.1 0 0 .3 0 .3-.5 0-.3-.1-.5-.2-1-.1-.4.1-.7.1-.8 0-.5-.2-.8-.3-.8-.1 0 .2-.3.3-.4.1-.1-.1-1.1-.2-1.5-.1-.2.1-.4.1-.5 0 0-.1-.7-.1-1.5-.1s-1.5 0-1.5-.1c-.1-.1-.2-.1-.3-.1-.4 0-.7-.3-.7.1 0 .2 0 .2-.3.1-.2-.1-.3-.2-.3-.3s-.2-.1-.5 0-.5 0-.6-.1c-.1-.1-.1-.1-.2 0s-.2.2-.3.2c-.1 0-.2.2-.2.3 0 .1-.1.2-.2.3-.3.1-.3.1-.1-.2.2-.3.2-.3 0-.4-.1 0-.4-.1-.6-.1-.4 0-.4 0-.2.3s.2.3-.1.2c-.3 0-.4-.1-.4-.3 0-.2-.1-.3-.6-.3-.3 0-.7-.1-.8-.2-.1-.1-.2-.1-.2 0s-.1.1-.2.1-.4 0-.5.1c-.2.2-.2.2.1.3.4.1.4.1-.2.2-.7.1-.7.1-.5-.2.2-.4-.1-.6-.5-.3-.3.3-1 .4-.8.1.1-.1-.1-.2-.2-.1 0 0-.2 0-.3-.1-.3-.1-.3-.1-.5.1s-.3.2-.4.1c-.1-.1-.4-.2-.7-.3-.3 0-.6-.1-.6-.2s-3-.1-3.1 0h-.3c-.1-.1-.3-.1-.4-.1-.1 0-.2 0-.2-.1s-.1 0-.3.2c-.3.4-.3.4-.4.1-.1-.3-.4-.4-.7-.3-.1 0-.1.1-.1.2s-.1.1-.2 0c-.2-.1-.3-.1-.4 0-.1.2-.7.3-1.4.3-.4 0-1-.3-.7-.4.3-.1.1-.2-.6-.3-.7-.1-1 .1-.5.3.3.1.3.1-.1.2-.3 0-.5 0-.7-.2-.3-.3-.3-.3 0-.2.2.1.2.1 0-.1-.3-.2-.5-.1-.4.2.1.2-.2 0-.5-.3-.2-.2-.5-.1-.5.2 0 .2-.4.2-.4 0 0-.1-.1-.1-.3 0-.2.1-.3 0-.2-.1.1-.1 0-.1-.3-.1-.4.1-.7.4-.5.7.1.2.1.2.2 0s.1-.1.1.1c0 .1.1.3.2.4.2.1.2.1.1.2-.2.2-.2.4 0 .2.1-.1.2-.2.2-.3 0-.3.5-.5.8-.3.1.1.4.1.5.1.1 0 .2 0 .2.1 0 .2.5.2 1.6 0 .3 0 .5 0 .4.1-.1.2.9.3 1 .1.1-.1.2-.1.3 0 .2.2 1.7.4 1.8.2.1-.2.6-.2.6 0 0 .1.2.1.5.1 1.4 0 2.8.1 2.9.2h.1c-.2 0-.3.1-.5.2-.9.9.3.6.3.7h.2c.1.2-.2.2-1.1.2-.9 0-1.1-.1-1.1-.2.1-.1 0-.2-.3-.1-.2.1-.4 0-.5-.1-.1-.1-.1-.1-.3 0-.2.2-1.1 0-1.2-.2-.1-.2-.1-.2-.1 0 0 .3-.5.5-.9.3-.2-.1-.4-.2-.5-.1-.1 0-.2 0-.2-.2s-.1-.3-.2-.3c-.2 0-.2 0-.1.4.1.3.1.4-.1.4-.1 0-.3-.1-.3-.2 0-.2-.2-.3-.3-.1-.1.1-.2.1-.3 0-.1-.1-.3-.1-.3 0-.1.1-.1-.1 0-.3.1-.4 0-.5-.3-.1-.2.2-.3.2-.4.1-.1-.1-.2-.1-.3 0-.2.2-1.2.2-1.2 0 .1-.3-2.3 0-3.2-.5-.2-.1-.6-.2-.9-.1-.3 0-.5 0-.5-.1s-.1-.1-.1-.1c-.1 0-.2 0-.3-.1-.2-.2-.4-.3-.5 0 0 .1-.1.1-.2-.1-.2-.3-.4-.4-.3-.1.1.2 0 .2-.2.1-.2 0-.3 0-.2.1.1.2-.6.1-.5-.1 0-.1-.3-.5-.5-.5-.1 0-.1.1-.1.1 0 .1-.9.1-1.7-.1-.3-.1-.6-.1-.7-.1-.1 0-.2 0-.2-.2 0-.1-.1-.4-.2-.5-.2-.2-.2-.2-.1.1.1.3 0 .4-.2.4-.3.1-1.4-.4-1.4-.7 0-.1-.1-.2-.4-.2-.3 0-.4 0-.4-.2 0-.1-.1-.2-.1-.1-.1 0-.1.2-.1.4.1.3 0 .3-.5.3-.3 0-.7-.1-1-.2-.2-.1-.4-.2-.5-.1 0 0-.2 0-.3-.1-.1-.1-.4-.1-.6-.1-.2 0-.4 0-.6-.1-.1-.1-.5-.2-.9-.2-.6 0-.7-.1-.7-.3 0-.3 0-.3-.4-.1-.4.2-.6.1-.4-.2.1-.2.1-.2 0-.3-.2-.1-.5-.1-.4.1 0 .1.1.2.1.3 0 .2-.1.2-.9 0-.5-.1-1.3-.1-1.2.1 0 0-.3.4-.6.7-.5.5-.6.6-.5.7.2.1.1.1-.3.1-.3 0-.5.1-.6.3-.1.1-.3.3-.4.3-.2 0-.6.3-2.1 1.4-1.1.8-1.8 1.2-2.6 2.1-.2.2-.4.3-.5.3-.1 0-.2 0-.1.1.1.3-3.6 3.6-3.6 3.7-.1.1-.3.2-.4.2-.1 0-.1 0-.1.1 0 .3 0 .3-.2.1-.2-.2-.2-.2 0-.4.1-.1.3-.1.4-.1.1 0 .2-.1.2-.2.1-.4.4-.6.8-.7.3-.1.9-.7.7-.8-.1-.1-1.1.6-1.1.7 0 .1-.1.1-.3.2-.2 0-.3.2-.3.4s0 .3-.1.1c-.1-.1-.1-.1-.2 0 0 .1-.2.1-.3.1-.1 0-.4.2-.5.4-.3.5-.4.5-.1.4.1 0 .2 0 .2.1 0 .3-.4.4-.6.1-.1-.1-.2-.2-.4-.2-.1.1-.1.1 0 .1.3 0 .2.5-.2.9-.2.2-.4.3-.6.2-.1 0-.2 0-.2.1s.1.1.1.1c.2 0 0 .4-.1.3-.1 0-.1 0-.1.1s-.1.2-.2.2-.2.1-.2.1c0 .1-.1.2-.3.3-.2.1-.3.2-.4.4 0 .1-.3.3-.5.3-.4.1-.5.1-.4.3 0 .2 0 .3-.1.3s-.3.1-.4.3c-.1.2-.3.2-.3.2 0-.1-.4.1-.3.4.1.2-.5.9-.7.9-.1 0-.1.1-.1.1 0 .1-.2.3-.4.6-.3.3-.5.4-.5.3 0-.1.1-.3.3-.4l.3-.3c-.3.1-.7.2-1 .2-.2 0-.3.1-.4.4-.1.3-.1.4-.4.3-.2-.1-.3 0-.2.1.1.2-.1.2-.2 0 0-.1-.1-.1-.1 0s.1.2.3.4c.3.2.3.2-.2.2-.3 0-.5.1-.5.1 0 .1 0 .1-.1.1-.1-.1-1.3 1.2-1.3 1.4 0 .2-.3.3-.6.1-.3-.2-.3.1-.1.2.1 0 .1.2 0 .3-.1.3-.3.2-.3-.2s-.2-.3-.3.1c0 .2-.2.3-.4.4-.3 0-.2.1.2.5.2.2.4.4.3.4-.1 0-.3-.1-.4-.2-.3-.3-1-.3-1.2-.1-.1.1-.3.2-.4.2-.1 0-.2.1-.2.2 0 .3-.4.6-.6.6-.1 0-.2-.1-.1-.3.1-.5-.2-.4-.9.2-.7.6-.7.7-.3.5.4-.2.7-.2.7-.1s-.1.1-.1.1c-.1 0-.2.2-.3.4l-.2.4-.2.2c-.1.2-.3.3-.4.3-.3 0-1.1.7-1.2 1.1 0 .2-.2.3-.3.3-.2 0-.2 0 0-.1s.2-.1 0-.1c-.1 0-.2.1-.2.1 0 .1-.3.3-.9.6-.2.1-.3.2-.3.3.4-.1.2 0 0 .1" class="st0"/>
  <path d="M51.8 15.7c0-.2-.3-.2-.3 0 .1.2.3.2.3 0M6.4 52c-.1 0-.1.1-.1.1 0 .1.1.1.1.1l.1-.1c0-.1 0-.1-.1-.1M9.8 44.9c0 .2.3-.2.3-.4 0-.1-.3.3-.3.4M163.4 12.2c-.6-.3-1.1-.1-.7.2.2.2.9.2.9 0 .1 0 0-.1-.2-.2M21.6 25.6c0-.1-1.2.9-1.1.9.1.1 1.1-.8 1.1-.9M118.4 144.7c.3.1.4-.1 0 0 0-.1-.1 0 0 0M130.2 7.5c-.4 0-.1.2.2.1.1-.1 0-.1-.2-.1M11.8 38.8l-.1-.1c-.2 0-.2.3 0 .2l.1-.1M164.8 11.8c-.4-.3-.5-.3-.4-.1.1.2.4.4.5.3 0 0-.1-.1-.1-.2M144 8.8c-.3 0-.1.3.1.2.2-.2.2-.2-.1-.2M136.9 7.8c-.1 0-.1.1-.2.2 0 .1 0 .2.1.1.3 0 .3-.3.1-.3M152.4 12.4c-.3-.2-.4-.2-.5 0-.1.2.2.3.6.2.3 0 .2 0-.1-.2M145.8 10.5c.1 0 .1-.1.1-.1l-.1-.1c-.2 0-.2.3 0 .2M135.7 8.6c-.4 0 .1.2.2.1 0 0-.1-.1-.2-.1M151.6 10.5s-.2-.2-.5-.3c-.4-.2-.6-.3-.8-.3v.3s.1 0 .1.1c.1.1 1.2.3 1.2.2M151.6 12h-.2c-.1 0-.2.1-.2.2 0 .2 0 .2.2 0l.2-.2M153.7 11c-.1 0-.2.1-.1.1 0 .1.1.1.2.1s.1-.1.1-.1c0-.1-.1-.1-.2-.1M136.9 9.6c.2.2.3.2.2 0v-.2c.1 0 .1 0 .1.1s.2.1.5.1.6 0 .7.1c.1.1.3.1.5.1s.3 0 .3.1c0 .2.5.3.8.1.2-.1.2-.2.1-.3-.1-.1-.5-.2-.9-.2-1.4-.1-1.9-.2-2.2-.3-.3-.1-.4.1-.1.4M141.1 9.8c-.4 0-.5.1-.1.4.4.4.8.6.9.4 0-.1.2-.1.5-.1.5 0 .6-.2.1-.3-.5-.2-.5-.2-.3-.4.1-.1.2-.3.1-.3-.2-.2-.5-.1-.7.1-.1.1-.3.2-.5.2M91.7 6.4c-.2-.2-.4-.2-.3-.1 0 .1 0 .2-.2.2-.3.1.6.1.6 0l-.1-.1M60.4 11.4c.1 0 .3-.1.4-.1.1-.1.1-.1-.2 0-.4 0-.5.1-.2.1M66.8 11.5c-.1 0-.2.1 0 0 .1.2.3 0 0 0M66.5 10.5c-.5 0 0 .1.2.1.2-.1.1-.1-.2-.1M68.2 10.3c-.8.2-1.1 0-.8.3.2.2.2.2.5 0 .1-.1.3-.2.4-.3.1-.1.1-.1-.1 0M63.1 11.1c-.3 0-.5.1-.4.2 0 .1.3.1.5 0s.6-.1.7-.1c.5 0 .5 0 .5-.2 0-.1-.1-.1-.4-.1-.3.1-.7.1-.9.2M81.4 10.6c0-.1-.1-.1-.1-.1-.1 0-.1.1-.1.1 0 .1.1.1.1.1.1 0 .1 0 .1-.1M132.3 148.9c0 .2.3.2.3 0s-.3-.1-.3 0M65.3 10.7c-.3.1-.6.1-.7.1-.1.1.4.2.6.1.1-.1.3-.1.5-.1.1 0 .2 0 .2-.1.1-.1-.1-.1-.6 0M68.5 11.4c.2-.1.1-.1-.2-.1-.2 0-.4.1-.4.1 0 .2.3.1.6 0M125.8 149.3l-.1-.1c-.1 0-.1 0-.1.1s.1.1.1.1c0-.1.1-.1.1-.1M58.9 12c.2.1.4-.1 0 0-.1-.1-.1-.1 0 0M125.4 7.1s.1.1.3.1c.4 0 .4 0 .1.1-.3.1-.3.1-.1.1.1 0 .3 0 .4-.1.2-.2 1.2 0 1.1.1-.1.1.2.2.2 0 0-.1.1-.1.3-.1.1.1.5.1.9.1.3 0 .6.1.5.1-.1.2.1.1.3-.1.2-.2 0-.2-1.9-.4-.7 0-2 0-2.1.1M75 9.3c-.4 0-.1.2.2.1 0-.1 0-.1-.2-.1M77.2 9.4c.2.1.4-.1 0 0-.1-.1-.1-.1 0 0M70 12.2c0 .2.1.2.5 0 .2-.1.2-.1-.1-.1-.2-.1-.4 0-.4.1M76 9.2c-.2 0-.3 0-.4.1-.1.2.1.4.2.2 0-.1.1-.2.2-.3.2 0 .2 0 0 0M70.8 9.9c0 .1.3.1.5 0 .1-.1-.5-.1-.5 0M75.8 10.3c0-.1-.1-.1-.3-.1-.2 0-.4.1-.4.1 0 .2.6.2.7 0M70 9.9c-.6 0-1.3.2-1 .3.3 0 .4 0 .9-.1.6-.1.6-.2.1-.2M71.8 9.7c-.5 0 0 .1.2.1.1-.1 0-.1-.2-.1M72.8 9.7c0-.1-.1-.1-.1-.1-.1 0-.1.1-.1.1l.1.1.1-.1M61.5 11.6c.9-.2 1.2-.4.4-.3-1 .1-2.5.5-2.6.6 0 .1.9 0 2.2-.3M88.2 6.5c.1.1 1.2.1 1.2 0 .2-.1-1.2-.1-1.2 0M87.3 6.5c-.2 0-.3 0-.2.1.1.1.1.1 0 .2-.2.1.6.1.5 0 0-.1 0-.1.1-.1s.2-.1.3-.2c.1-.1 0-.1-.1-.1-.1.1-.4.1-.6.1M90.1 6.6c.5.1.6.1.6-.1 0-.1-.1-.2-.3-.2-.2 0-.5.2-.3.3M79.3 7.3c0 .1-.1.2-.2.2-.3.1-.2.2.3.1.1 0 .5 0 .7-.1.4 0 .7-.3.4-.3-.1 0 0-.1.2-.1.3-.1.3-.1.1-.1-.5 0-1.6.2-1.5.3M85.5 7.1c.4.1 1.1 0 1.1-.1 0 0-.2-.1-.6 0-.4 0-.5 0-.4-.1.1-.1.2-.1 0-.1-.1 0-.3.1-.4.2l.3.1M94.5 6.9c-.2 0-.2.3 0 .3s.2-.3 0-.3M134 6.8c0-.1 0-.1-.1-.1s-.2.1-.2.1c0 .1.1.1.1.1s.1 0 .2-.1M67.5 11.5c0-.2-.3-.2-.3 0 .1.2.3.2.3 0M71.2 12.1c.2.1.4-.1 0 0-.1-.1-.1 0 0 0M92.2 6.3c.1 0 .2 0 .2.1s0 .1.1 0 .3-.2.5-.2c.3 0 .2-.1-.2-.1-.3 0-.6 0-.7.1-.1.1 0 .2.1.1M78.3 7.7c0 .1.1.1.1.1.1 0 .2-.1.2-.1.1-.2-.3-.2-.3 0M94.1 8.6c-.1-.1-.2 0-.3.1-.1.1-.1.1.1.1.4 0 .4-.1.2-.2M71.5 8.1c-.4 0 .1.2.2.1 0-.1 0-.1-.2-.1M70 8.6c-.5 0-.5.3-.1.2.6-.1.6-.2.1-.2M87.1 8.3c.2.1.6-.1.2-.1-.2.1-.3.1-.2.1M80.8 8.7c0 .1.1.1.3.1.8-.2-.1-.3-.3-.1M78.5 11c0 .1.1.1.2.1s.1-.1.1-.1c0-.1-.1-.1-.2-.1s-.2 0-.1.1M87.1 8.1c.3.1.5-.1 0 0 0-.1-.1-.1 0 0M94.6 7.7c.1-.2-.3-.2-.4 0-.1.2.3.2.4 0" class="st0"/>
</svg>