<?xml version="1.0" encoding="utf-8"?>
<!-- Generator: Adobe Illustrator 19.0.0, SVG Export Plug-In . SVG Version: 6.00 Build 0)  -->
<svg version="1.1" id="Layer_1" xmlns="http://www.w3.org/2000/svg" xmlns:xlink="http://www.w3.org/1999/xlink" x="0px" y="0px"
	 viewBox="0 0 78.7 78.7" style="enable-background:new 0 0 78.7 78.7;" xml:space="preserve">
<style type="text/css">
	
		.st0{clip-path:url(#SVGID_2_);fill:none;stroke:#FFFFFF;stroke-width:3.119;stroke-linecap:round;stroke-linejoin:round;stroke-miterlimit:10;}
</style>
<g>
	<defs>
		<rect id="SVGID_1_" width="78.7" height="78.7"/>
	</defs>
	<clipPath id="SVGID_2_">
		<use xlink:href="#SVGID_1_"  style="overflow:visible;"/>
	</clipPath>
	<path class="st0" d="M60.9,15l-2.7,32.4 M28.5,15l2.7,32.4 M44.7,15v32.4 M74.4,31.2H13.9 M16.2,47.4h53.2c1.3,0,2.5-0.9,2.7-2.3
		l2.3-13.9L77.1,15H11.6 M69,58.2H20.1c-1.3,0-2.5-1-2.7-2.3L10,3.9C9.8,2.5,8.7,1.6,7.3,1.6H1.6 M63.6,71.7c0-3-2.4-5.4-5.4-5.4
		c-3,0-5.4,2.4-5.4,5.4c0,3,2.4,5.4,5.4,5.4C61.2,77.1,63.6,74.7,63.6,71.7z M33.9,71.7c0-3-2.4-5.4-5.4-5.4c-3,0-5.4,2.4-5.4,5.4
		c0,3,2.4,5.4,5.4,5.4C31.5,77.1,33.9,74.7,33.9,71.7z"/>
</g>
</svg>
