<?xml version="1.0" encoding="utf-8"?>
<!-- Generator: Adobe Illustrator 19.0.0, SVG Export Plug-In . SVG Version: 6.00 Build 0)  -->
<svg version="1.1" id="Layer_1" xmlns="http://www.w3.org/2000/svg" xmlns:xlink="http://www.w3.org/1999/xlink" x="0px" y="0px"
	 viewBox="-201 278 211 238" style="enable-background:new -201 278 211 238;" xml:space="preserve">
<style type="text/css">
	.st0{clip-path:url(#SVGID_2_);fill:#373636;}
	.st1{clip-path:url(#SVGID_4_);fill:#373636;}
	.st2{clip-path:url(#SVGID_6_);fill:#373636;}
	.st3{clip-path:url(#SVGID_8_);fill:#373636;}
	.st4{clip-path:url(#SVGID_10_);fill:#373636;}
	.st5{clip-path:url(#SVGID_12_);fill:#373636;}
	.st6{clip-path:url(#SVGID_14_);fill:#373636;}
	.st7{clip-path:url(#SVGID_16_);fill:#373636;}
	.st8{clip-path:url(#SVGID_18_);fill:#373636;}
	.st9{clip-path:url(#SVGID_20_);fill:#373636;}
	.st10{clip-path:url(#SVGID_22_);fill:#373636;}
	.st11{clip-path:url(#SVGID_24_);fill:#373636;}
	.st12{clip-path:url(#SVGID_26_);fill:#373636;}
	.st13{clip-path:url(#SVGID_28_);fill:#373636;}
	.st14{clip-path:url(#SVGID_30_);fill:#373636;}
	.st15{clip-path:url(#SVGID_32_);fill:#373636;}
	.st16{clip-path:url(#SVGID_34_);fill:#373636;}
	.st17{clip-path:url(#SVGID_36_);fill:#373636;}
	.st18{clip-path:url(#SVGID_38_);fill:#373636;}
	.st19{clip-path:url(#SVGID_40_);fill:#373636;}
	.st20{clip-path:url(#SVGID_42_);fill:#373636;}
	.st21{clip-path:url(#SVGID_44_);fill:#373636;}
	.st22{clip-path:url(#SVGID_46_);fill:#373636;}
	.st23{clip-path:url(#SVGID_48_);fill:#373636;}
	.st24{clip-path:url(#SVGID_50_);fill:#373636;}
	.st25{clip-path:url(#SVGID_52_);fill:#373636;}
	.st26{clip-path:url(#SVGID_54_);fill:#373636;}
	.st27{clip-path:url(#SVGID_56_);fill:#373636;}
	.st28{clip-path:url(#SVGID_58_);fill:#373636;}
	.st29{clip-path:url(#SVGID_60_);fill:#373636;}
	.st30{clip-path:url(#SVGID_62_);fill:#373636;}
	.st31{clip-path:url(#SVGID_64_);fill:#373636;}
	.st32{clip-path:url(#SVGID_66_);fill:#373636;}
	.st33{clip-path:url(#SVGID_68_);fill:#373636;}
	.st34{clip-path:url(#SVGID_70_);fill:#373636;}
	.st35{clip-path:url(#SVGID_72_);fill:#373636;}
	.st36{clip-path:url(#SVGID_74_);fill:#373636;}
	.st37{clip-path:url(#SVGID_76_);fill:#373636;}
</style>
<g>
	<g>
		<defs>
			<rect id="SVGID_1_" x="-201" y="278" width="210.7" height="238"/>
		</defs>
		<clipPath id="SVGID_2_">
			<use xlink:href="#SVGID_1_"  style="overflow:visible;"/>
		</clipPath>
		<path class="st0" d="M-137.9,510.1c1.8,0.6,3.3,0.8,4.1,0.3l0.8-0.4l0.3,1.1c0.3,0.9,0.3,1.1,0,1.3c-0.8,0.5-3.2,1.1-4.7,1.1h-1.5
			l-0.1-1.9c-0.1-1,0-1.9,0-1.9C-138.9,509.8-138.4,509.9-137.9,510.1 M-165.1,509.7c0.5,0.2,1.4,0.3,1.9,0.4c0.9,0,0.9,0,0.8,0.7
			c-0.3,1.2-0.7,1.5-2.6,1.5c-0.9,0-2.1-0.1-2.7-0.2c-1-0.2-1-0.2-0.8-1.1c0.1-0.5,0.3-1.4,0.4-1.9l0.3-1l0.9,0.7
			C-166.5,509-165.6,509.4-165.1,509.7 M-64.2,507.3c1.5,0.1,1.6,0.2,1.7,0.8c0.1,0.8-0.9,1.8-2.4,2.1c-1,0.3-3,0.1-3.2-0.3
			c-0.1-0.1,0-1,0.2-1.9l0.3-1.6l0.9,0.4C-66.2,507-65.1,507.3-64.2,507.3 M-39.7,504.7c0.8,0.2,1.5,0.2,2.4,0
			c0.7-0.2,1.4-0.2,1.5-0.1c0.1,0.1,0.2,0.6,0.3,1c0.1,0.8-0.1,1-1,1.7s-1.4,0.8-2.9,0.9c-2.5,0.1-2.6,0-2.3-2.3
			c0.2-1.6,0.3-1.8,0.6-1.7C-41,504.3-40.3,504.5-39.7,504.7 M-59.8,425.4c0.3,0.4,1.5,1.2,2.5,2c1.1,0.8,2.6,1.9,3.4,2.6
			c0.8,0.7,2.1,1.6,2.8,2l1.4,0.8l-1.6,4c-2,4.9-2.7,7-4,12.5c-0.6,2.4-1.4,5.5-1.8,7c-1.2,4.3-2,9.5-3.6,22c-0.4,3.3-1,7.7-1.3,9.6
			c-0.4,2.7-0.6,5.3-0.7,11l-0.2,7.5l-0.8-0.2c-0.9-0.2-3.5-1.1-3.6-1.2c-0.1-0.1,0-1.4,0.2-3.1c0.1-1.6,0.3-5.6,0.4-8.9
			c0.2-7.7,0.8-20.6,1.1-24.6c0.2-1.7,0.8-6.7,1.4-11.1c1.2-8.6,2.1-16.9,1.8-17.6c-0.1-0.2-2.2-1.4-4.7-2.6c-2.5-1.2-6.5-3.5-8.9-5
			c-5-3.1-4.9-2.9-0.5-3.4c2.8-0.3,11.4-2.4,13.8-3.3C-60.7,424.7-60.5,424.7-59.8,425.4 M-7.8,364.2c1.9,0.5,2.3,0.8,4.4,2.6
			c7.2,6.5,11,18.5,10.7,33.5c-0.2,6.7-0.6,9.4-2.2,13.8c-2.5,7.1-3.3,14.6-1.9,19.2c0.1,0.3-0.4-0.1-0.9-0.9
			c-0.6-0.8-1.9-2.3-2.9-3.3c-2.7-2.9-6.7-9.3-7.5-12.1c-0.6-2-0.7-6.4-0.3-11c0.6-5.9,0.8-12,0.4-14.4c-0.5-3.4-1.8-7.9-2.9-10.1
			c-1.3-2.8-3.9-5.5-6.3-6.8c-1.6-0.8-1.7-0.8-4.8-0.8l-3.1,0.1l-1.5-1.5c-0.8-0.9-1.5-1.6-1.5-1.7c0-0.1,1.1-1,2.5-2.1
			c2.5-1.9,7.2-4.4,9.1-4.9C-14.8,363.3-10.2,363.5-7.8,364.2 M-149.3,296.5c3.6,1,5.9,2.6,10.5,6.8c3.4,3.1,5.4,5.8,7.4,9.8
			l1.7,3.4v3.2c0,3.4-0.4,5.5-1.5,8.7c-1.3,3.8-3.2,8.6-3.9,10.1c-1.1,2.3-1,2.7,0.4,1.6c2-1.6,2.6-2.6,4.5-7.3
			c2.2-5.8,2.7-7.5,2.7-11.6c0-1.9,0.1-3.5,0.2-3.5c0.5,0,2.3,1.7,3,2.7c1.1,1.7,2.7,5.2,3.2,7c0.5,2.2,0.9,7.7,0.6,9.1
			c-0.3,1.6-1,3-2.9,6.4c-2,3.6-3.1,5.1-6.2,8.5c-1.2,1.3-2.1,2.5-1.9,2.5c0.7,0.2,5.1-3.1,6.9-5.3c1.1-1.4,1.8-2.5,4.4-7.8l1.1-2.1
			l1.2,1.2c1.6,1.6,2.3,3.2,3.1,6.7c0.7,3.2,0.8,4.5,0.3,7.2c-0.4,2-0.9,3-2.5,4.9c-4.9,5.3-5.8,6.3-7.4,7.3c-1,0.7-1.8,1.2-1.9,1.2
			s-0.2-0.4-0.2-1c0-1.2-0.6-2.1-1.4-2.1c-0.3,0-1.2,0.6-2.1,1.3c-0.8,0.7-1.6,1.3-1.6,1.2s0.1-0.8,0.3-1.6c0.5-2.1,0.5-6.4,0-8
			c-0.5-1.5-1.3-2.5-2.1-2.5c-0.4,0-1.5,0.5-2.5,1c-1,0.6-1.9,1-2,1s0.1-0.7,0.5-1.5c1-2.4,1.5-8.9,0.9-11.7
			c-0.4-1.8-0.9-1.9-2.8-0.6c-1.7,1.2-3.1,2-3.3,1.8c-0.1-0.1,0.2-1.1,0.6-2.3c0.7-2,0.7-2.4,0.7-7.1c0-2.7-0.1-6.1-0.2-7.5
			c-0.2-2.7-0.2-3.2,1.1-7.9c1.1-4,0-8.6-2.9-12c-0.7-0.9-1.5-1.8-1.8-2.1s-0.7-1-1.1-1.6c-0.9-1.4-4.5-4.8-6.4-6.1
			c-0.9-0.6-1.6-1.1-1.5-1.2c0-0.2,1.8-1.1,2.1-1.1C-151.6,295.8-150.6,296.1-149.3,296.5 M-166.8,292.4c0,0.1-0.7,0.6-1.5,1.1
			s-2.5,1.8-3.7,2.8s-2.5,2-2.8,2.1c-0.5,0.3-0.5,0.2,0-0.6c0.9-1.6,3.7-4.3,5.2-5C-168.2,292.2-166.8,292-166.8,292.4
			 M-147.6,282.3c-0.8,4.7-2.4,8.3-4.6,10.6c-0.8,0.8-2.1,1.8-2.9,2.2c-2.7,1.5-2.9,1.9-1,2.9c3.8,2,8.9,7.3,12.8,13.5l1.1,1.8v3.4
			c0,2.5-0.2,3.9-0.6,5.6c-0.6,2.6-0.7,4.5-0.3,7.6c0.4,3.2-0.1,9.4-0.9,12c-0.8,2.2-0.9,3.9-0.4,4.5c0.7,0.9,3.3,0.3,5.3-1.3
			c0.4-0.3,0.9-0.6,0.9-0.6c0.6,0-0.5,11.3-1.2,12.9c-0.7,1.6,1.6,1.8,4.1,0.2c0.8-0.5,1.5-0.9,1.6-0.9c0.3,0,0.7,2.4,0.7,4.2
			c0,1.1-0.2,3.3-0.4,5.1c-0.6,4.4-0.4,4.6,2.1,2.7c0.8-0.6,1.8-1.4,2.2-1.7l0.7-0.5l-0.1,2c-0.1,1.9-0.1,2,0.5,2.1
			c0.4,0.1,0.9-0.3,1.7-1c0.6-0.6,1.7-1.5,2.5-2c1.3-0.9,2.4-1.7,4.6-3.8c0.5-0.4,1.2-1.1,1.6-1.4l0.7-0.6l1.4,1.2
			c1.6,1.4,2.1,1.6,6.1,3.3c4.3,1.7,6.6,2.2,11.2,2.2c4.1,0,8-0.5,22.3-2.8c12.3-2,14.7-2.3,22.4-2.3c6.5,0,6.7,0,8.9,0.7
			c7.2,2.2,10.8,4.4,18.2,10.9c2.7,2.4,3.3,3,3.8,4.4c1.4,3,1.5,5.1,0.7,11.3c-0.4,3.4-3.1,13.4-5,18.7l-1.7,4.8l-0.1,3.5
			c-0.1,2.9,0,4,0.5,6.9c0.9,5.1,2.1,7.1,5.4,9.8c0.6,0.5,0.7,0.8,0.6,1.4c-0.1,0.9-3.5,10.5-5.3,15.3c-1.5,3.9-4.1,14.8-5.4,22.2
			c-0.6,3.3-1.4,8.4-1.9,11.1c-0.9,5.1-1.6,13.5-1.4,17.4l0.1,1.7l-1.6,0.1c-1,0.1-2.1-0.1-2.9-0.3l-1.2-0.4l0.2-3.7
			c0.1-2,0.2-5.8,0.4-8.3c0.1-2.6,0.3-6.1,0.4-7.8c0.2-4.9,0.6-7.8,1.7-14.2c1.1-6.7,2.1-11.3,3.4-17.1c1.1-4.8,1.6-8,1.8-11.4
			l0.2-2.6l-1.1-0.8c-0.6-0.4-2-1.1-3-1.6c-1-0.4-2.9-1.2-4.1-1.8c-1.2-0.5-3.3-1.4-4.6-1.9c-2.8-1.1-4.3-1.9-5.9-3.3
			c-0.6-0.5-2-1.5-3-2.3c-4.3-2.9-8.6-7.2-11.8-11.9c-1.8-2.7-2.3-3.1-2.8-2.9c-0.3,0.1,0,0.8,1.2,3c1.6,2.9,2.9,4.8,5.1,7.4
			c0.7,0.8,1.2,1.5,1.1,1.6c-0.2,0.2-7.4,2.1-9.8,2.6c-1,0.2-3,0.5-4.5,0.7s-4.9,0.6-7.4,0.9c-8.6,1.2-18.1,1.8-29.3,1.8
			c-4.9,0-9.2-0.1-10.8-0.3c-1.5-0.2-3.8-0.4-5.1-0.5c-2.3-0.2-2.5-0.1-2.6,0.3c-0.1,0.3-0.3,2.1-0.4,4.1c-0.2,2-0.4,5.5-0.6,7.8
			c-0.2,2.6-0.3,13.8-0.4,30.4c-0.2,33-0.2,33.3,0.2,35.9c0.2,1.8,0.2,2.3-0.1,2.4c-0.5,0.3-1.7,0.3-3.5-0.2l-1.7-0.4l0.1-2.1
			c0.5-16.9,0.2-37.9-0.4-41.2c-0.2-0.7-0.6-3.7-1-6.6c-0.4-2.9-1-6.3-1.2-7.6c-1.3-5.7-5.1-18.7-6.1-20.5c-0.4-0.9-3.7-4.5-5.5-5.9
			c-1.1-1-1.3-1-1.6-0.7c-0.6,0.6-0.2,1.5,2,3.7c2,2,2,2.1,3.1,5.2l1,3.1l-0.3,2.2c-0.2,1.2-0.7,3.9-1.2,6.1
			c-0.5,2.1-1.2,5.6-1.7,7.8c-1.2,5.4-2.8,14.8-3.3,19.3c-0.6,5.2-3.6,22.9-4.5,26.3c-0.4,1.5-1.1,4.7-1.6,7.1c-0.5,2.3-1,4.3-1,4.4
			c-0.1,0.1-2.7-0.7-3.2-1.1c-0.2-0.2-0.8-0.6-1.2-1l-0.8-0.7l1.2-4.9c2.3-9.8,4.5-22.2,5.3-30c1.9-19.5,2.3-33.7,1.3-45.7
			c-0.5-6-0.7-6.7-2.3-9.9c-1.2-2.4-3.4-7.9-4.6-11.7c-0.2-0.6-0.4-2.1-0.5-3.4c-0.1-1.3-0.4-3.6-0.6-5.2
			c-0.6-3.4-1.1-13.7-1.1-19.2c0.1-4.4,0.3-7.4,1.4-15.3c0.8-5.9,1.5-9.1,2.9-13.5c0.5-1.6,1.5-5.1,2.1-7.7c0.7-2.7,1.9-6.7,2.7-8.9
			c0.8-2.2,1.8-5.2,2.3-6.6c1-2.9,1.4-4.5,1-4.5c-0.2,0-1.2,1-2.4,2.1c-2.2,2.2-5.1,4.3-7,4.9c-2,0.7-8,1.2-18.8,1.6l-2.8,0.1
			l-0.9,1.8c-1.2,2.3-2.3,3.3-4.2,3.4c-2.9,0.2-4.2-0.5-5.6-3.1c-0.7-1.5-0.8-1.7-0.7-3.8c0.1-2.8,0.8-4.4,3-6.8l1.5-1.7l1.2,1.4
			c0.7,0.8,1.7,2.3,2.2,3.5c1.5,3.3,1.7,3.7,2.1,3.8c0.7,0.2,0.2-3.8-0.8-5.9c-0.3-0.6-1.1-1.8-1.9-2.6c-0.7-0.8-1.4-1.4-1.4-1.4
			s1.4-1.3,3.1-2.8s4.7-4.2,6.6-6c3.3-3.2,9.8-8.6,13.8-11.6c4.3-3.2,6-4.4,6.4-4.4c0.2,0,2-1.5,3.9-3.4c1.9-1.9,4.1-3.8,4.7-4.2
			c1-1,5.9-3.7,6.3-3.7C-147.5,281.3-147.5,281.7-147.6,282.3 M-159.4,282.6c0.6,4.2,0.7,3.7-1,5.2l-1.6,1.3l-0.8-0.6
			c-0.5-0.3-0.9-0.6-0.9-0.6c-0.1-0.1,2.3-5,3.2-6.4c0.4-0.6,0.7-1,0.7-0.9C-159.8,280.6-159.6,281.5-159.4,282.6 M-160.2,278.3
			c-0.8,0.4-3.2,4-4.6,6.7c-0.7,1.5-1,1.7-1.4,1.6c-0.3-0.1-1.3-0.3-2.3-0.4c-1.6-0.3-2-0.2-3.6,0.3c-2.4,0.8-6.1,3.1-8.1,5.1
			c-2.5,2.5-4.1,6.1-4.4,9.7c-0.2,1.9-0.2,2,0.3,2c0.8,0,1.2-0.7,1.8-3c1.2-4.6,3.7-8,7.3-10.2c3.2-1.9,5.5-2.5,7.8-1.9
			c1.3,0.4,1,0.8-0.6,1.2c-2.9,0.7-6.1,3.1-8.1,6.1c-0.8,1.2-0.8,1.4-0.7,2.7l0.1,1.5l-1.2,0.9c-0.6,0.5-3.3,2.9-5.9,5.3
			c-2.6,2.4-6.5,6-8.6,7.8c-5.6,5-7.1,6.7-8.1,9.8c-0.9,2.7-0.9,5.4,0.2,7.6c1.5,3.2,3.3,4.5,6.3,4.5c3.3,0,5.6-1.4,6.5-4.2l0.5-1.3
			h8.1c8.2,0,10.9-0.2,13.8-1.2c1.5-0.5,3.4-1.7,4.6-2.9l1-0.9l-1.2,3.9c-4.7,14.5-6.9,22.5-7.9,28.3c-1.6,9.3-2.2,18.7-1.8,29.8
			c0.5,13.5,2.1,20.9,6.8,30.9c1.1,2.4,1.1,2.6,1.5,6.7c0.2,2.3,0.5,7.8,0.6,12.3c0.2,8.3-0.1,13.1-0.9,23.7
			c-0.3,3.2-0.6,7.2-0.8,8.9c-0.7,7.8-4.4,28.3-6.9,37.2c-1.3,4.8-1.4,5.3-0.9,6.2c0.5,1.1,2,1.6,5,1.8c2.2,0.1,2.6,0.1,3.5-0.4
			c0.6-0.3,1.1-0.7,1.3-0.9c0.4-0.4,1.7-4.8,2.5-8.4c0.4-1.6,1-4.1,1.4-5.6c0.4-1.5,1.2-5.1,1.6-7.9c0.5-2.8,1.2-7,1.7-9.3
			c0.4-2.3,1-6.3,1.3-8.9c0.7-6.2,2-14.9,3.1-19.7c0.4-2.1,1.2-5.9,1.7-8.5l0.9-4.8l1.3,4.7c1.6,5.5,2.2,8.3,2.7,12.4
			c0.2,1.7,0.7,5.1,1,7.5c0.7,4.7,0.7,6.1,1.2,23.4c0.2,8.6,0.2,12.3,0,16.8c-0.2,3.7-0.2,6.6-0.1,7.8c0.2,1.9,0.3,2,1.1,2.4
			c2.7,1.4,9.9-0.9,9.4-3c-0.5-2-0.7-9.1-0.8-26.5c-0.1-10.8-0.2-21.8-0.3-24.3c-0.2-4.3-0.1-12.6,0.4-26.2c0.1-3.9,0.3-5.2,0.5-5.1
			c0.2,0.1,2.4,0.3,5,0.5c3.6,0.4,7,0.5,14.9,0.5c12.2,0,19.8-0.5,26.5-1.6c1-0.2,1.2,0,6.5,3.5c6.2,4.1,7.2,4.7,9.7,5.4
			c1,0.3,2.2,0.8,2.8,1.2s1.2,0.7,1.3,0.7c0.5,0,0.5,0.7,0,4.1c-0.3,1.9-0.9,6.2-1.4,9.4c-0.5,3.2-1,6.8-1.2,8
			c-0.8,4.5-1.2,9.5-1.5,19.2c-0.2,5.5-0.5,10.9-0.6,12s-0.2,2.7-0.1,3.5c0.2,1.4-0.3,5.3-1,9.5c-0.5,2.6-0.5,4.9-0.1,5.2
			c0.6,0.5,2.9,1.1,4.1,1.1c2,0,4.2-1.2,5.1-2.8c0.6-1.1,0.7-1.3,0.7-5.5c0-6.1,0.4-12.8,1-17c0.3-2,0.7-6,1-8.8
			c1.2-12.2,2.5-19.3,5.9-32.3c1-3.7,4.1-12.4,4.5-12.6c0.2-0.1,1.7,0.4,3.3,1.1c4.2,1.7,7.3,2.7,8.2,2.7c1.3,0,1.3,0.6,0.3,6.7
			c-0.3,1.6-0.9,4.8-1.5,7c-2.3,9.4-4.7,22.9-5.1,28.1c-0.7,10.3-1,15.9-1.2,21.4c-0.2,8.5-0.1,9.1,3.1,9.6c3,0.5,5.4-0.4,6.9-2.6
			c0.7-1,0.7-1.1,0.6-4c-0.2-3.8,0.5-13.8,1.1-17.7c0.3-1.6,0.9-6.4,1.5-10.5c1.4-10.1,3.6-19.5,5.7-25c1.4-3.5,4.8-14,4.8-14.7
			c0-0.3-0.6-1.3-1.4-2.2c-2.9-3.4-4.2-7-4.7-12.9c-0.3-3.6,0-5.5,1.7-10c5.7-15.1,7.1-25.7,4.3-31.3c-0.4-0.7-1-1.8-1.6-2.5
			l-0.9-1.2l1.7,0.1c2.3,0.2,3.6,0.9,5.6,3c2,2,3.1,4.3,4.1,8.5c1.5,6.1,1.6,8.1,0.5,17.6c-1.1,10.5-0.5,13.5,4.3,20.4
			c2.5,3.5,8.1,9.5,9.7,10.3c0.5,0.3,1,0.6,1.2,0.8c0.4,0.6,0.6,0,0.3-1.7c-0.6-5.1,0.5-13.1,2.9-19.9c2-5.7,2.1-7,2.1-16.7
			c0-7.8,0-8.5-0.7-12.1c-1.6-9.1-5.2-16.4-10.2-20.9c-2.7-2.4-3.4-2.8-6.3-3.6c-3-0.8-8.3-0.8-10.5,0c-3.3,1.2-7.3,3.7-9.9,6.2
			l-1.7,1.7l-1.9-1.5c-3.1-2.5-9.3-5.3-14.1-6.4c-1.1-0.2-3.6-0.3-9.4-0.3c-8.8,0-12,0.3-20.8,2c-7.2,1.4-18.1,3-21.8,3.2
			c-3.9,0.2-6.9-0.3-10.4-1.5c-2.1-0.7-4.2-2.1-6.6-4.4l-0.7-0.6l0.7-1.2c1.3-2.1,1.5-2.6,1.9-4.1c0.6-2.1,0.5-5.2-0.2-8.9
			c-0.8-3.9-1.4-5.1-3.4-7.3c-1.8-1.9-2.2-2.9-2.1-5.4c0.1-3.6-0.9-7.6-2.6-11.2c-1.5-3.1-3.3-5.2-5.6-6.4c-1.4-0.7-1.5-0.8-2.7-3.5
			c-1.5-3.4-4.1-6.9-7.3-10c-4.3-4.1-8.2-6.8-11.3-7.6c-0.9-0.3-1.8-0.5-1.8-0.5s0.3-0.6,0.8-1.3c2-3,3.2-7.2,3.2-11.1
			c0-2.2-0.3-2.6-1.7-2.4c-1.4,0.2-6.5,2.9-8.1,4.2c-0.8,0.6-1.5,1.2-1.6,1.2c-0.1,0-0.1-0.5-0.1-1.1c0-2.3-1.1-5.1-2.1-5.3
			C-159.4,278-159.9,278.1-160.2,278.3"/>
	</g>
	<g>
		<defs>
			<rect id="SVGID_3_" x="-201" y="278" width="210.7" height="238"/>
		</defs>
		<clipPath id="SVGID_4_">
			<use xlink:href="#SVGID_3_"  style="overflow:visible;"/>
		</clipPath>
		<path class="st1" d="M-156.9,290.3c-2.1,1.5-3.8,2.8-3.8,3c0,0.5,0.9,0.5,1.7,0.1c0.5-0.3,2.1-1.6,3.5-2.9c2.4-2.2,3-2.9,2.4-2.9
			C-153.1,287.5-154.9,288.8-156.9,290.3"/>
	</g>
	<g>
		<defs>
			<rect id="SVGID_5_" x="-201" y="278" width="210.7" height="238"/>
		</defs>
		<clipPath id="SVGID_6_">
			<use xlink:href="#SVGID_5_"  style="overflow:visible;"/>
		</clipPath>
		<path class="st2" d="M-157.2,292.6c-1.7,0.8-2.1,1.5-1,1.5c0.3,0,0.6,0.1,0.7,0.3c0.3,0.4,1.6-0.5,1.5-0.9
			c-0.1-0.2,0.2-0.6,0.5-0.9C-154.7,291.6-155.3,291.6-157.2,292.6"/>
	</g>
	<g>
		<defs>
			<rect id="SVGID_7_" x="-201" y="278" width="210.7" height="238"/>
		</defs>
		<clipPath id="SVGID_8_">
			<use xlink:href="#SVGID_7_"  style="overflow:visible;"/>
		</clipPath>
		<path class="st3" d="M-168.9,306.7c-0.4,0.4-0.7,1-0.7,1.4c0,0.8,1,1.8,1.7,1.8c1.4,0,2.2-2.5,1.1-3.4
			C-167.4,305.7-168,305.8-168.9,306.7"/>
	</g>
	<g>
		<defs>
			<rect id="SVGID_9_" x="-201" y="278" width="210.7" height="238"/>
		</defs>
		<clipPath id="SVGID_10_">
			<use xlink:href="#SVGID_9_"  style="overflow:visible;"/>
		</clipPath>
		<path class="st4" d="M-194.6,324.5c-0.7,0.5-0.6,1.5,0.1,1.6c0.6,0.1,1.2-0.4,1.2-1.1C-193.3,324.2-193.9,324-194.6,324.5"/>
	</g>
	<g>
		<defs>
			<rect id="SVGID_11_" x="-201" y="278" width="210.7" height="238"/>
		</defs>
		<clipPath id="SVGID_12_">
			<use xlink:href="#SVGID_11_"  style="overflow:visible;"/>
		</clipPath>
		<path class="st5" d="M-119.5,366.6c-2.9,2.9-5.4,6.5-4.9,7.2c0.1,0.1,0.6-0.5,1.2-1.3c0.6-0.9,2.3-2.9,3.8-4.5
			c1.5-1.6,2.8-3,2.8-3.1s-0.2-0.2-0.5-0.2S-118.4,365.6-119.5,366.6"/>
	</g>
	<g>
		<defs>
			<rect id="SVGID_13_" x="-201" y="278" width="210.7" height="238"/>
		</defs>
		<clipPath id="SVGID_14_">
			<use xlink:href="#SVGID_13_"  style="overflow:visible;"/>
		</clipPath>
		<path class="st6" d="M-69.3,366.1c-0.8,0.2-3.1,0.5-5.1,0.8c-3.3,0.4-13.8,2.4-16,3.1c-0.6,0.2-0.9,0.4-0.7,0.5
			c0.3,0.3,3.6-0.1,8.7-1c1.9-0.4,5.1-0.8,7.1-1s5-0.6,6.6-0.9c1.6-0.3,4.5-0.6,6.3-0.7c1.9-0.1,3.4-0.2,3.5-0.3
			C-58.4,365.8-66.5,365.5-69.3,366.1"/>
	</g>
	<g>
		<defs>
			<rect id="SVGID_15_" x="-201" y="278" width="210.7" height="238"/>
		</defs>
		<clipPath id="SVGID_16_">
			<use xlink:href="#SVGID_15_"  style="overflow:visible;"/>
		</clipPath>
		<path class="st7" d="M-56.4,366c0,0.4,0.9,0.8,1.9,0.8c1.1,0,1.2-0.4,0.2-0.6c-0.4-0.1-1-0.2-1.4-0.3
			C-56.2,365.7-56.4,365.8-56.4,366"/>
	</g>
	<g>
		<defs>
			<rect id="SVGID_17_" x="-201" y="278" width="210.7" height="238"/>
		</defs>
		<clipPath id="SVGID_18_">
			<use xlink:href="#SVGID_17_"  style="overflow:visible;"/>
		</clipPath>
		<path class="st8" d="M-25,385.7c0.7,3.3,0.4,6.8-0.9,12.1c-0.8,3.4-0.9,3.7-0.6,3.7c0.5,0,2.5-6.3,2.9-9c0.2-1.6,0.2-2.6,0-4.3
			c-0.3-2.5-0.6-3.2-1.2-3.2C-25.1,384.9-25.1,385.1-25,385.7"/>
	</g>
	<g>
		<defs>
			<rect id="SVGID_19_" x="-201" y="278" width="210.7" height="238"/>
		</defs>
		<clipPath id="SVGID_20_">
			<use xlink:href="#SVGID_19_"  style="overflow:visible;"/>
		</clipPath>
		<path class="st9" d="M-160.8,411.2c-0.3,0.4-0.2,1.9,0.4,3.3c1.2,3.1,4.3,7.7,5.2,7.7c0.2,0-0.1-0.6-0.7-1.6
			c-0.9-1.4-3.8-7.3-4.5-8.9C-160.5,411.3-160.7,411.1-160.8,411.2"/>
	</g>
	<g>
		<defs>
			<rect id="SVGID_21_" x="-201" y="278" width="210.7" height="238"/>
		</defs>
		<clipPath id="SVGID_22_">
			<use xlink:href="#SVGID_21_"  style="overflow:visible;"/>
		</clipPath>
		<path class="st10" d="M-155.9,417.1c0,0.6,1.2,2.4,1.9,2.8c0.6,0.3,0.4-0.2-0.6-1.9C-155.5,416.4-155.9,416.2-155.9,417.1"/>
	</g>
	<g>
		<defs>
			<rect id="SVGID_23_" x="-201" y="278" width="210.7" height="238"/>
		</defs>
		<clipPath id="SVGID_24_">
			<use xlink:href="#SVGID_23_"  style="overflow:visible;"/>
		</clipPath>
		<path class="st11" d="M-70.3,417.8c-0.4,0.6,0.9,1.9,3,3.4c1.2,0.8,2.4,1.5,2.5,1.5c0.6,0,0-0.6-1.9-2.3c-1.2-1-2.3-2-2.6-2.4
			C-69.8,417.5-70.1,417.4-70.3,417.8"/>
	</g>
	<g>
		<defs>
			<rect id="SVGID_25_" x="-201" y="278" width="210.7" height="238"/>
		</defs>
		<clipPath id="SVGID_26_">
			<use xlink:href="#SVGID_25_"  style="overflow:visible;"/>
		</clipPath>
		<path class="st12" d="M-133.5,418.5c-0.1,0.1-0.1,0.4,0.1,0.7c0.1,0.3,0.4,1.7,0.5,3c0.4,3.3,0.5,3.7,0.8,3.5
			c0.4-0.3,0.3-4.3-0.1-5.8C-132.6,418.8-133.1,418.1-133.5,418.5"/>
	</g>
	<g>
		<defs>
			<rect id="SVGID_27_" x="-201" y="278" width="210.7" height="238"/>
		</defs>
		<clipPath id="SVGID_28_">
			<use xlink:href="#SVGID_27_"  style="overflow:visible;"/>
		</clipPath>
		<path class="st13" d="M-69.1,422c-0.2,0.4,0.6,1,1.4,1c0.8,0,0.7-0.4-0.3-0.9C-68.7,421.8-69,421.8-69.1,422"/>
	</g>
	<g>
		<defs>
			<rect id="SVGID_29_" x="-201" y="278" width="210.7" height="238"/>
		</defs>
		<clipPath id="SVGID_30_">
			<use xlink:href="#SVGID_29_"  style="overflow:visible;"/>
		</clipPath>
		<path class="st14" d="M-131.1,424.1c0,0.9,0.3,1.8,0.6,1.8c0.4,0,0.1-2.2-0.2-2.3S-131.1,423.7-131.1,424.1"/>
	</g>
	<g>
		<defs>
			<rect id="SVGID_31_" x="-201" y="278" width="210.7" height="238"/>
		</defs>
		<clipPath id="SVGID_32_">
			<use xlink:href="#SVGID_31_"  style="overflow:visible;"/>
		</clipPath>
		<path class="st15" d="M-157.5,424.8c-0.2,0.6-0.3,25.1-0.1,24.9c0.3-0.2,0.7-2.6,1-5.3c0.3-3.1-0.1-19.4-0.5-19.8
			C-157.3,424.5-157.4,424.6-157.5,424.8"/>
	</g>
	<g>
		<defs>
			<rect id="SVGID_33_" x="-201" y="278" width="210.7" height="238"/>
		</defs>
		<clipPath id="SVGID_34_">
			<use xlink:href="#SVGID_33_"  style="overflow:visible;"/>
		</clipPath>
		<path class="st16" d="M-155.5,427.6c-0.1,0.1-0.1,1.9,0,4c0.2,4.8,0.6,4.4,0.6-0.6C-154.8,427.7-155,426.9-155.5,427.6"/>
	</g>
	<g>
		<defs>
			<rect id="SVGID_35_" x="-201" y="278" width="210.7" height="238"/>
		</defs>
		<clipPath id="SVGID_36_">
			<use xlink:href="#SVGID_35_"  style="overflow:visible;"/>
		</clipPath>
		<path class="st17" d="M-153.3,430.4c0,0.5,0.3,1.1,0.6,1.1c0.4,0,0.1-1.1-0.2-1.2C-153.2,430.2-153.3,430.3-153.3,430.4"/>
	</g>
	<g>
		<defs>
			<rect id="SVGID_37_" x="-201" y="278" width="210.7" height="238"/>
		</defs>
		<clipPath id="SVGID_38_">
			<use xlink:href="#SVGID_37_"  style="overflow:visible;"/>
		</clipPath>
		<path class="st18" d="M-158.2,454c-0.2,1.8,0,2.1,0.5,0.9c0.6-1.4,0.6-2.1,0.1-2.3C-158,452.5-158.1,452.8-158.2,454"/>
	</g>
	<g>
		<defs>
			<rect id="SVGID_39_" x="-201" y="278" width="210.7" height="238"/>
		</defs>
		<clipPath id="SVGID_40_">
			<use xlink:href="#SVGID_39_"  style="overflow:visible;"/>
		</clipPath>
		<path class="st19" d="M-148.1,298.6c-0.1,0.1-0.1,0.3,0.1,0.3s0.9,0.5,1.7,1.2c0.8,0.6,1.5,1.1,1.6,1c0.2-0.2-2.5-2.7-2.9-2.7
			C-147.8,298.4-148,298.5-148.1,298.6"/>
	</g>
	<g>
		<defs>
			<rect id="SVGID_41_" x="-201" y="278" width="210.7" height="238"/>
		</defs>
		<clipPath id="SVGID_42_">
			<use xlink:href="#SVGID_41_"  style="overflow:visible;"/>
		</clipPath>
		<path class="st20" d="M-143.4,302.4c0,0.1,0.5,0.8,1.2,1.5c3.8,4.3,5.2,6.6,6.2,10.2c0.3,1.2,0.7,2.1,0.8,2.1
			c0.5,0-0.8-5.4-1.8-7.1c-0.4-0.7-1.9-2.5-3.3-4.1C-142.6,302.6-143.4,301.9-143.4,302.4"/>
	</g>
	<g>
		<defs>
			<rect id="SVGID_43_" x="-201" y="278" width="210.7" height="238"/>
		</defs>
		<clipPath id="SVGID_44_">
			<use xlink:href="#SVGID_43_"  style="overflow:visible;"/>
		</clipPath>
		<path class="st21" d="M-136.1,320.6c-0.2,1.1-0.9,3.1-1.5,4.5c-1,2.5-1.5,4.9-1,4.9c0.2,0,0.3-0.1,0.3-0.3c0-0.2,0.5-1.2,1-2.4
			c1.1-2.3,1.9-5.2,2.1-7.3C-135,318-135.6,318.3-136.1,320.6"/>
	</g>
	<g>
		<defs>
			<rect id="SVGID_45_" x="-201" y="278" width="210.7" height="238"/>
		</defs>
		<clipPath id="SVGID_46_">
			<use xlink:href="#SVGID_45_"  style="overflow:visible;"/>
		</clipPath>
		<path class="st22" d="M-132.5,321.6c-0.1,0.1-0.2,0.5-0.2,1c0,0.8-1.9,6.8-3.2,9.7c-0.4,0.9-1.5,2.8-2.4,4.2
			c-2.3,3.4-2.4,3.9-0.3,1.5c1.1-1.2,2.2-2.7,2.8-3.9c1.2-2.3,3.5-9.3,3.8-11.1C-131.8,321.9-132.1,321.2-132.5,321.6"/>
	</g>
	<g>
		<defs>
			<rect id="SVGID_47_" x="-201" y="278" width="210.7" height="238"/>
		</defs>
		<clipPath id="SVGID_48_">
			<use xlink:href="#SVGID_47_"  style="overflow:visible;"/>
		</clipPath>
		<path class="st23" d="M-123.7,325.7c0,0.4-0.9,4.8-1.3,6.3c-0.3,1-0.4,2-0.4,2c0.2,0.3,1.2-2.3,1.7-4.5c0.6-2.5,0.6-4,0.3-4
			C-123.6,325.6-123.7,325.6-123.7,325.7"/>
	</g>
	<g>
		<defs>
			<rect id="SVGID_49_" x="-201" y="278" width="210.7" height="238"/>
		</defs>
		<clipPath id="SVGID_50_">
			<use xlink:href="#SVGID_49_"  style="overflow:visible;"/>
		</clipPath>
		<path class="st24" d="M-122.7,330.4c0,1.9-4.5,13.8-5.6,15.1c-0.7,0.8-0.4,1.1,0.5,0.5c2-1.5,6.4-13.5,5.7-15.5
			C-122.5,329.6-122.7,329.6-122.7,330.4"/>
	</g>
	<g>
		<defs>
			<rect id="SVGID_51_" x="-201" y="278" width="210.7" height="238"/>
		</defs>
		<clipPath id="SVGID_52_">
			<use xlink:href="#SVGID_51_"  style="overflow:visible;"/>
		</clipPath>
		<path class="st25" d="M-128.1,331.9c0,0.6-3.3,7.3-4.2,8.5c-1,1.3-1.5,2.5-1.7,3.8c-0.3,1.3,0.2,1,0.9-0.5
			c0.3-0.8,0.9-1.8,1.4-2.4c0.9-1.2,3.8-7.6,4.1-8.8c0.1-0.5,0.1-0.8-0.1-0.8C-127.9,331.5-128.1,331.7-128.1,331.9"/>
	</g>
	<g>
		<defs>
			<rect id="SVGID_53_" x="-201" y="278" width="210.7" height="238"/>
		</defs>
		<clipPath id="SVGID_54_">
			<use xlink:href="#SVGID_53_"  style="overflow:visible;"/>
		</clipPath>
		<path class="st26" d="M-119.4,343.8c-0.7,3.6-2.6,7.3-5.6,11.1c-3.1,3.9-5,6.5-4.8,6.7c0.3,0.3,5.1-5.1,6.6-7.3
			c2.4-3.7,3.9-7.3,4.4-10.4C-118.5,341.9-119,341.9-119.4,343.8"/>
	</g>
	<g>
		<defs>
			<rect id="SVGID_55_" x="-201" y="278" width="210.7" height="238"/>
		</defs>
		<clipPath id="SVGID_56_">
			<use xlink:href="#SVGID_55_"  style="overflow:visible;"/>
		</clipPath>
		<path class="st27" d="M-132.1,347c-0.5,1.1-0.9,2.1-1,2.2c-0.1,0.1,0,0.2,0.2,0.2c0.3,0,2.1-3.6,2.1-4.1
			C-130.9,344.6-131.3,345.2-132.1,347"/>
	</g>
	<g>
		<defs>
			<rect id="SVGID_57_" x="-201" y="278" width="210.7" height="238"/>
		</defs>
		<clipPath id="SVGID_58_">
			<use xlink:href="#SVGID_57_"  style="overflow:visible;"/>
		</clipPath>
		<path class="st28" d="M-117.5,347.4c-0.2,1.8-1.3,5.2-2.2,7.1c-1,2.1-3.4,5.7-4.2,6.5c-0.8,0.8-0.6,1.1,0.4,0.4
			c1.9-1.4,5.1-6.7,6-9.9c0.6-2.2,0.9-4.1,0.8-4.8C-117,345.7-117.3,345.9-117.5,347.4"/>
	</g>
	<g>
		<defs>
			<rect id="SVGID_59_" x="-201" y="278" width="210.7" height="238"/>
		</defs>
		<clipPath id="SVGID_60_">
			<use xlink:href="#SVGID_59_"  style="overflow:visible;"/>
		</clipPath>
		<path class="st29" d="M-17.2,365.6c-0.8,0.2-2.2,0.7-3.1,1.2c-2,1-5.8,3.5-5.8,3.8c0,0.1,0.3,0.5,0.7,0.8c0.7,0.6,0.7,0.6,2.9,0.2
			c1.2-0.3,2.7-0.4,3.4-0.3c3.7,0.4,8.3,4.2,10.3,8.5c2.5,5.2,3,10.2,2.6,22.8c-0.3,9-0.3,9.9,0.6,12.2c0.5,1.4,2.7,5.1,2.9,5.1
			c0.3,0,0.3-0.2-0.8-2.7c-2-4.6-1.9-4.3-1.6-14.4c0.3-7.9,0.3-9.4-0.1-12.9c-0.6-6-1.8-9.9-3.7-12.9c-2.3-3.4-5.5-5.9-8.7-6.8
			c-0.8-0.2-1.5-0.4-1.6-0.5s0.6-0.2,1.5-0.4c3.4-0.6,7.1,0.5,10.7,3.4c2.1,1.6,2.7,1.7,1.3,0.2c-2-2.1-5-3.9-7.4-4.4
			c-3-0.6-4.8-0.4-8.9,1.1c-3.2,1.2-2.8,0.6,1.1-1.4c3.2-1.6,4.5-1.9,7.8-1.8c3.3,0.2,5,0.9,7.8,3.4c1.1,1,1.9,1.6,1.9,1.5
			c0-0.4-1.7-2.5-2.8-3.4c-1.6-1.3-2.9-1.9-5.2-2.4C-13.6,365.1-15.3,365.1-17.2,365.6"/>
	</g>
	<g>
		<defs>
			<rect id="SVGID_61_" x="-201" y="278" width="210.7" height="238"/>
		</defs>
		<clipPath id="SVGID_62_">
			<use xlink:href="#SVGID_61_"  style="overflow:visible;"/>
		</clipPath>
		<path class="st30" d="M1.4,380.2c0,0.3,0.3,1.2,0.7,2.1c1,2.4,1.7,5.2,2.5,10.1c0.6,3.8,0.7,4.8,0.5,8.7c-0.2,4.6-0.4,6-2.2,12.8
			c-0.8,3.2-1.3,6.5-0.9,6.5c0.1,0,0.4-0.9,0.5-2c0.2-1.1,0.7-3.3,1.2-5c1.4-4.7,1.9-7.1,2.2-11.6c0.3-4,0.3-4.3-0.4-8.9
			c-0.9-5.9-1.4-8-2.8-10.9C1.8,379.8,1.4,379.3,1.4,380.2"/>
	</g>
	<g>
		<defs>
			<rect id="SVGID_63_" x="-201" y="278" width="210.7" height="238"/>
		</defs>
		<clipPath id="SVGID_64_">
			<use xlink:href="#SVGID_63_"  style="overflow:visible;"/>
		</clipPath>
		<path class="st31" d="M0.6,389.4c0.5,1.2,1.3,6.1,1.6,9.4c0.3,4.1,0.1,6.6-1.2,12.4c-1.4,6.4-2.2,14-1.7,15.9
			c0.3,1.2,0.5,0.5,0.5-1.9c0.1-3.5,0.7-8.5,1.9-13.4c0.5-2.3,1.1-5.1,1.3-6.3c0.4-2.8,0.1-8.1-0.5-11.4c-0.9-4.2-1.1-5-1.6-5.1
			C0.5,388.8,0.4,388.8,0.6,389.4"/>
	</g>
	<g>
		<defs>
			<rect id="SVGID_65_" x="-201" y="278" width="210.7" height="238"/>
		</defs>
		<clipPath id="SVGID_66_">
			<use xlink:href="#SVGID_65_"  style="overflow:visible;"/>
		</clipPath>
		<path class="st32" d="M-1.5,400.1c-0.1,5.1-0.2,5.9-0.8,8.4c-0.7,2.8-1.1,7-0.8,8.7c0.3,1.6,0.5,1,0.6-1.6c0-1.7,0.3-3.5,0.7-5.5
			c0.4-1.6,0.8-3.7,0.9-4.6c0.4-2.1,0.2-10.3-0.2-10.7C-1.3,394.5-1.4,395.9-1.5,400.1"/>
	</g>
	<g>
		<defs>
			<rect id="SVGID_67_" x="-201" y="278" width="210.7" height="238"/>
		</defs>
		<clipPath id="SVGID_68_">
			<use xlink:href="#SVGID_67_"  style="overflow:visible;"/>
		</clipPath>
		<path class="st33" d="M1,424.1c-0.3,0.7,0,4.8,0.4,5.1c0.2,0.2,0.3-0.4,0.1-2.5C1.3,423.7,1.3,423.4,1,424.1"/>
	</g>
	<g>
		<defs>
			<rect id="SVGID_69_" x="-201" y="278" width="210.7" height="238"/>
		</defs>
		<clipPath id="SVGID_70_">
			<use xlink:href="#SVGID_69_"  style="overflow:visible;"/>
		</clipPath>
		<path class="st34" d="M-68.2,429.3c0,0.4,0.1,0.5,1.1,0.8c0.4,0.1,0.7,0.1,0.7-0.1s-0.4-0.4-1.6-1
			C-68.1,428.9-68.2,429.1-68.2,429.3"/>
	</g>
	<g>
		<defs>
			<rect id="SVGID_71_" x="-201" y="278" width="210.7" height="238"/>
		</defs>
		<clipPath id="SVGID_72_">
			<use xlink:href="#SVGID_71_"  style="overflow:visible;"/>
		</clipPath>
		<path class="st35" d="M-70.9,430.3c0.2,0.4,3.2,2.1,3.4,1.8c0.1-0.1-0.6-0.6-1.5-1.2C-70.7,429.9-71.1,429.8-70.9,430.3"/>
	</g>
	<g>
		<defs>
			<rect id="SVGID_73_" x="-201" y="278" width="210.7" height="238"/>
		</defs>
		<clipPath id="SVGID_74_">
			<use xlink:href="#SVGID_73_"  style="overflow:visible;"/>
		</clipPath>
		<path class="st36" d="M-74.7,430.7c0.3,1.4,9.8,6.5,10.6,5.6c0.1-0.1,0-0.3-0.2-0.3c-1.4-0.5-6.2-3.1-7.9-4.3
			C-74.5,430.1-74.9,430-74.7,430.7"/>
	</g>
	<g>
		<defs>
			<rect id="SVGID_75_" x="-201" y="278" width="210.7" height="238"/>
		</defs>
		<clipPath id="SVGID_76_">
			<use xlink:href="#SVGID_75_"  style="overflow:visible;"/>
		</clipPath>
		<path class="st37" d="M-173.8,290.4c-0.4,0.3-1.3,1.1-2,1.9c-0.7,0.8-1.1,1.1-1,0.8c0.3-0.6,0.4-1.1,0.1-1.1s-2.3,3.1-2.9,4.5
			c-0.7,1.7-1.8,6-1.5,5.8c0.2-0.1,0.6-1.2,1.1-2.6c0.9-2.8,2.3-5.6,2.9-5.9c0.5-0.2,4.2-3.4,4.3-3.7
			C-172.6,289.7-173,289.8-173.8,290.4"/>
	</g>
</g>
</svg>
