<?xml version="1.0" encoding="utf-8"?>
<!-- Generator: Adobe Illustrator 19.0.0, SVG Export Plug-In . SVG Version: 6.00 Build 0)  -->
<svg version="1.1" id="Layer_1" xmlns="http://www.w3.org/2000/svg" xmlns:xlink="http://www.w3.org/1999/xlink" x="0px" y="0px"
	 viewBox="0 0 7.5 35.2" style="enable-background:new 0 0 7.5 35.2;" xml:space="preserve">
<style type="text/css">
	.st0{clip-path:url(#SVGID_2_);fill:#FFFFFF;}
</style>
<g>
	<defs>
		<rect id="SVGID_1_" width="7.5" height="35.2"/>
	</defs>
	<clipPath id="SVGID_2_">
		<use xlink:href="#SVGID_1_"  style="overflow:visible;"/>
	</clipPath>
	<path class="st0" d="M7.5,31.4c0-2.1-1.6-3.8-3.8-3.8c-2.1,0-3.8,1.7-3.8,3.8c0,2.2,1.8,3.8,3.8,3.8C6,35.2,7.5,33.4,7.5,31.4
		 M7.4,7.2c0-5-1.5-7.2-3.6-7.2c-2,0-3.6,2.3-3.6,7.3c0,4.4,1.5,11.9,2.2,14.9c0.5,1.5,0.8,2.2,1.5,2.2c0.5,0,1-0.8,1.4-2.2
		C6.2,18.6,7.4,12.2,7.4,7.2"/>
</g>
</svg>
