<?xml version="1.0" encoding="utf-8"?>
<!-- Generator: Adobe Illustrator 19.0.0, SVG Export Plug-In . SVG Version: 6.00 Build 0)  -->
<svg version="1.1" id="Layer_1" xmlns="http://www.w3.org/2000/svg" xmlns:xlink="http://www.w3.org/1999/xlink" x="0px" y="0px"
	 viewBox="0 0 75.2 58.4" style="enable-background:new 0 0 75.2 58.4;" xml:space="preserve">
<style type="text/css">
	
		.st0{clip-path:url(#SVGID_2_);fill:none;stroke:#EFB865;stroke-width:3.495;stroke-linecap:round;stroke-linejoin:round;stroke-miterlimit:10;}
</style>
<g>
	<defs>
		<rect id="SVGID_1_" width="75.2" height="58.4"/>
	</defs>
	<clipPath id="SVGID_2_">
		<use xlink:href="#SVGID_1_"  style="overflow:visible;"/>
	</clipPath>
	<path class="st0" d="M73.4,46.4c0,5.7-4.6,10.3-10.3,10.3H12c-5.7,0-10.3-4.6-10.3-10.3V12C1.7,6.3,6.3,1.7,12,1.7h51.1
		c5.7,0,10.3,4.6,10.3,10.3V46.4z M70.4,4.8c0,0-20.1,19.7-28.8,28.3c-1.2,1.2-2.6,1.8-4,1.9c-1.4,0-2.8-0.6-4-1.9
		C24.8,24.5,4.8,4.8,4.8,4.8 M4.8,53.7l23.9-25.4 M46.5,28.2l23.9,25.4"/>
</g>
</svg>
