<?xml version="1.0" encoding="utf-8"?>
<!-- Generator: Adobe Illustrator 19.0.0, SVG Export Plug-In . SVG Version: 6.00 Build 0)  -->
<svg version="1.1" id="Layer_1" xmlns="http://www.w3.org/2000/svg" xmlns:xlink="http://www.w3.org/1999/xlink" x="0px" y="0px"
	 viewBox="0 0 15.7 15.8" style="enable-background:new 0 0 15.7 15.8;" xml:space="preserve">
<style type="text/css">
	.st0{clip-path:url(#SVGID_2_);fill:#373636;}
	.st1{clip-path:url(#SVGID_2_);fill:none;stroke:#373636;stroke-width:0.226;stroke-miterlimit:10;}
</style>
<g>
	<defs>
		<rect id="SVGID_1_" width="15.8" height="15.8"/>
	</defs>
	<clipPath id="SVGID_2_">
		<use xlink:href="#SVGID_1_"  style="overflow:visible;"/>
	</clipPath>
	<path class="st0" d="M6.6,12.3C3.5,12.3,1,9.8,1,6.6S3.5,1,6.6,1s5.7,2.5,5.7,5.7S9.8,12.3,6.6,12.3 M15.7,15l-4.1-4.1
		c1-1.2,1.6-2.7,1.6-4.3c0-3.6-2.9-6.5-6.5-6.5C3,0.1,0.1,3,0.1,6.6c0,3.6,2.9,6.5,6.5,6.5c1.6,0,3.1-0.6,4.3-1.6l4.1,4.1L15.7,15z"
		/>
	<path class="st1" d="M6.6,12.3C3.5,12.3,1,9.8,1,6.6S3.5,1,6.6,1s5.7,2.5,5.7,5.7S9.8,12.3,6.6,12.3z M15.7,15l-4.1-4.1
		c1-1.2,1.6-2.7,1.6-4.3c0-3.6-2.9-6.5-6.5-6.5C3,0.1,0.1,3,0.1,6.6c0,3.6,2.9,6.5,6.5,6.5c1.6,0,3.1-0.6,4.3-1.6l4.1,4.1L15.7,15z"
		/>
</g>
</svg>
