<?xml version="1.0" encoding="utf-8"?>
<!-- Generator: Adobe Illustrator 19.0.0, SVG Export Plug-In . SVG Version: 6.00 Build 0)  -->
<svg version="1.1" id="Layer_1" xmlns="http://www.w3.org/2000/svg" xmlns:xlink="http://www.w3.org/1999/xlink" x="0px" y="0px"
	 viewBox="0 0 103.7 104.9" style="enable-background:new 0 0 103.7 104.9;" xml:space="preserve">
<style type="text/css">
	.st0{clip-path:url(#SVGID_2_);fill:#373636;}
</style>
<g>
	<defs>
		<rect id="SVGID_1_" y="0.1" width="104.2" height="104.9"/>
	</defs>
	<clipPath id="SVGID_2_">
		<use xlink:href="#SVGID_1_"  style="overflow:visible;"/>
	</clipPath>
	<path class="st0" d="M101.7,65.9c0.6,2,0.6,4.4,0,6.2c-0.3,0.8-0.5,1.9-0.6,2.6c-0.1,1.1-0.1,1.2,0.5,1.4c1.3,0.5,0.6,3-1.6,5.4
		c-1.4,1.5-2.6,2.2-4.4,2.6c-1.2,0.3-1,0.5-1.7-2.9c-0.3-1.3-0.8-3.2-1.2-4.1l-0.7-1.7l1.3-1c1.6-1.2,3.2-2.9,4.4-4.8
		c0.9-1.3,2.7-5.2,2.7-5.8C100.5,63.1,101.3,64.4,101.7,65.9 M58.1,9.9c0.8,0.8,0.8,0.9,0.8,2.5c0,1.7-0.6,3.8-1.7,6.1
		c-1.4,2.8-6.2,9.5-9.5,13.2c-3.4,3.8-9.6,8.8-14.1,11.4c-0.8,0.5-1.6,1-1.7,1.3c-0.2,0.2-0.6,0.5-0.9,0.6c-0.3,0.1-0.5,0.4-0.5,0.5
		c0,0.2,0.4,1.2,0.9,2.3c1.3,2.8,2.4,7.6,2.4,10.5c0,1.1,0.1,1.6,0.4,1.7c0.2,0.1,1.1-0.3,2-0.9c0.9-0.5,2.3-1.3,3.2-1.7l1.5-0.7
		l0.2,0.5c0.2,0.5,0.3,0.5,2,0.2c3.4-0.6,6.7-0.9,10.8-0.7c3.7,0.1,5.6,0.3,11.5,1.4c4,0.7,9.6,3.1,14,6c2.3,1.5,5.8,4.8,7.1,6.6
		c0.5,0.7,1.5,2.1,2.3,3.2c1.8,2.4,2.3,3.7,3.2,8.3c1.3,6.2,1.2,11.9-0.1,16.8c-0.4,1.6-0.6,2-1.1,2.3c-0.4,0.2-2.2,0.3-6.5,0.3
		c-3.3,0-7.5,0.1-9.6,0.4c-4.6,0.4-12.2,0.8-19.5,1c-6.5,0.1-9.8-0.2-12.2-1.3c-2.1-0.9-3.9-3.1-3.4-4.2c0.2-0.5,1.8-1.2,3.2-1.4
		c0.8-0.1,3.9,0,8.4,0.3c10.3,0.7,17.7,0.5,18.9-0.7c0.3-0.3-1.6-1.2-5.6-2.6c-5.6-1.9-9.1-3.9-11.3-6.3c-0.9-1-3.8-5.7-3.8-6.2
		c0-0.1-0.2-0.4-0.4-0.6c-0.3-0.2-0.4-0.2-0.6,0c-0.4,0.7-0.2,2,0.7,3.9c2.2,4.6,5.1,7,11.5,9.9l2.3,1l-6.1-0.1
		c-3.4-0.1-7-0.2-8.1-0.4c-4.3-0.5-6.9-0.2-9.3,1l-1.3,0.7l-0.3-0.7c-0.4-0.9-0.6-0.9-1.6,0c-1,0.8-5,3.6-6.4,4.5
		c-1.2,0.7-3.8,1.7-5.3,1.8c-0.8,0.1-1.2,0-1.9-0.3c-0.7-0.4-0.8-0.6-0.7-1.3c0.1-0.4,0.8-1.8,1.6-3.1c1.9-3.1,2.2-3.9,2.1-6.5
		c-0.1-2.1-0.6-3.5-1.3-3.7c-0.2-0.1-0.3-0.3-0.2-0.5c0.1-0.2-0.1-0.7-0.4-1.1l-0.5-0.8l0.6,0.4c1.1,0.7,1.2,0.3,0.2-0.8
		c-1.9-2.2-2.8-4.9-3-9.2l-0.1-3l1.3-1.1c1.3-1.1,1.8-2,0.9-1.7c-0.2,0.1-1.9,0.8-3.6,1.7c-4.9,2.3-8,3-11.4,2.5
		c-2.4-0.4-3.4-0.8-4.2-1.6c-0.9-0.9-1-1.3-0.2-1.3c0.4,0,0.6,0.1,0.6,0.3c0,0.2,0.3,0.7,0.7,1.1c1,1.1,1.4,0.7,0.8-0.8
		c-0.5-1-0.5-1.1,0-1.2c0.6-0.2,1.9-1.7,1.9-2.1c0-0.5-0.8-0.4-1.2,0c-0.5,0.6-2,1.3-3,1.3c-1.9,0-2-1.3-0.5-5.8
		c0.6-1.7,1.5-4.3,2.1-5.7c0.6-1.4,1.8-4.2,2.5-6.1c0.8-2,1.8-4.2,2.4-5c1.5-2.2,3.5-4.1,5.3-4.9c1.4-0.7,1.8-0.8,3.8-0.8
		c1.2,0,2.5,0.1,2.7,0.2c0.3,0.1,1.2,0.4,2,0.8c0.9,0.3,2,0.9,2.5,1.3c1,0.7,1,0.7,1.8,0.3c0.5-0.2,0.9-0.5,0.9-0.5
		c0-0.1,0.6-0.5,1.4-1c3.4-2.1,10.8-11.2,14-17.1c4.3-8,7-12.8,7.7-13.5c1-1.1,2.9-1.9,4.1-1.9C57.1,9.1,57.4,9.2,58.1,9.9
		 M35.5,2.1C36,2.3,36.6,2.8,37,3.2c0.5,0.7,0.6,0.9,0.6,2.7c0,5.8-3.4,18.2-7.1,25.5c-1,2.1-3.8,6.4-5.1,8.2l-0.4,0.5l-1.3-0.4
		c-0.7-0.3-1.8-0.4-2.5-0.5H20l1.4-1.5c1.6-1.7,2.8-4.2,3.3-6.6c1.3-6.9,2.1-11.3,2.6-15c0.5-3.6,0.8-4.9,1.6-7.1
		c2-5.3,3.2-7.1,4.9-7.1C34.3,1.8,35.1,1.9,35.5,2.1 M32,0.4c-0.8,0.5-2.6,2.7-3.5,4.4c-1.6,3-2.6,6.5-3.2,10.3
		c-0.3,1.9-1,6.5-1.6,10.1c-1.2,7.1-1.7,8.9-3.4,11.1c-1.1,1.5-1.5,1.8-2.8,2c-1.8,0.3-5.1,2.2-6.6,3.7c-2.7,2.7-4,5-6.1,10.5
		C4.3,53.8,3.5,55.8,3,57c-0.5,1.2-1.4,3.7-2,5.6c-1.5,5-1.4,6.3,0.8,9.1c1.9,2.5,3.8,3.2,8.5,3.2c2.9,0,4.2-0.3,7.2-1.4
		c1-0.4,1.9-0.7,1.9-0.7c0,0,0.1,1.5,0.1,3.4c0,3.4,0.5,6.2,1.1,7.5c0.2,0.4,0.7,0.9,1.1,1.3c0.5,0.4,0.7,0.9,0.7,1.3
		c0,0.3,0.2,0.8,0.5,1.1c0.5,0.6,0.9,2,0.9,4.1c0,1.6-0.8,3.4-2.7,5.9c-0.7,1-1.5,2.2-1.6,2.7c-0.3,0.8-0.2,1,0.2,1.8
		c0.3,0.5,1,1.1,1.6,1.5c1,0.6,1.3,0.6,2.7,0.5c1.8-0.1,5-1.3,7-2.7c2-1.3,3.9-2.9,4.6-3.7c0.6-0.7,0.7-0.8,1.2-0.5
		c0.4,0.2,0.6,0.5,0.6,0.8c0,0.9,0.7,2.7,1.6,3.6c1.3,1.5,4.1,2.8,7.2,3.3c4.4,0.7,18.4,0.4,28.3-0.6c2.6-0.2,6.2-0.4,10.1-0.4
		c7.4,0,7.5,0,8.6-2.6c0.4-0.9,0.8-2.1,1-2.7c0.6-1.8,0.9-5.9,0.7-9.5l-0.1-3.4h1.3c1.1,0,1.6-0.1,2.6-0.7c2.3-1.4,4.8-4.7,5.4-7.3
		c0.2-1.1-0.3-2.3-1.2-2.7l-0.7-0.3L103,73c1-2.1,1.2-3.4,0.7-5.8c-0.5-2.6-2.2-5.9-3-6c-0.5-0.1-0.7,0.2-1.9,2.7
		c-1.6,3.3-4.2,7-6,8.6c-0.7,0.7-1.4,1.2-1.5,1.2c-0.1,0-0.8-0.9-1.5-2c-2.5-3.7-6.4-7.4-10.4-9.9c-2.9-1.8-8.7-4.6-10.8-5.1
		c-1-0.3-3.5-0.8-5.5-1.1c-3.3-0.6-4.3-0.6-10.1-0.6c-6,0-6.5,0-8.4,0.5l-2,0.5l-0.4-0.5c-0.8-0.9-3.2-0.4-5.7,1.2l-1.1,0.7v-1.1
		c0-3-1.3-8.4-2.5-10.1c-0.3-0.5-0.6-0.9-0.5-1c0,0,0.6-0.3,1.3-0.6c1.5-0.6,6.5-4,9-6c4.6-3.7,10.1-9.9,13.3-15.1
		c2-3.2,2.4-4.1,3.5-6.9c0.7-1.8,0.9-2.4,0.9-4.1c0-2.3-0.4-3.2-2.1-4.3c-0.9-0.6-1.4-0.8-2.4-0.8c-1.6,0-3.4,0.8-4.6,2.1
		c-1.3,1.3-4.9,7.1-7.7,12.2c-2.4,4.4-4.7,7.9-6.7,10.5c-2.6,3.2-8.4,9.2-8.9,9.2c-0.1,0-0.5-0.2-0.9-0.5l-0.7-0.5l1.6-2
		c0.9-1.1,2-2.5,2.4-3.1c2.8-4.2,6.7-14.7,8.3-22.1c0.7-3.6,0.9-8.5,0.4-9.7c-0.3-0.7-2.3-2.3-4-3.1C34.4,0,32.6,0.1,32,0.4"/>
	<path class="st0" d="M16.7,50.4c-0.8,0.8-0.8,1.7,0,2.5c0.8,0.8,1.9,0.7,2.6-0.1C20.9,50.9,18.4,48.7,16.7,50.4"/>
</g>
</svg>
