<?xml version="1.0" encoding="utf-8"?>
<!-- Generator: Adobe Illustrator 19.0.0, SVG Export Plug-In . SVG Version: 6.00 Build 0)  -->
<svg version="1.1" id="Layer_1" xmlns="http://www.w3.org/2000/svg" xmlns:xlink="http://www.w3.org/1999/xlink" x="0px" y="0px"
	 viewBox="0 0 813.2 313.3" style="enable-background:new 0 0 813.2 313.3;" xml:space="preserve">
<style type="text/css">
	.st0{fill:#413000;}
	.st1{fill:#97C4C5;}
	.st2{fill:none;stroke:#EE2A7B;stroke-width:24;stroke-miterlimit:10;}
</style>
<path class="st0" d="M713.5,282.3c-1.9,7-7.6,9.8-14.4,11.6c-1.5,0.4-3.1,0.7-4.7,1c-2.4,0.4,1.9-0.2-0.2,0
	c-0.5,0.1-1.1,0.1-1.6,0.2c-1,0.1-1.9,0.1-2.9,0.1c-10.5,0-20.9,0-31.4,0c-20,0-40,0-59.9,0c-42.1,0-84.1,0-126.2,0
	c-51.5,0-103,0-154.5,0c-44.6,0-89.3,0-133.9,0c-9,0-18,0.1-27,0.1c-11.6,0-11.6,18,0,18c37.9-0.2,75.7-0.1,113.6-0.1
	c59.9,0,119.9,0,179.8,0c37.4,0,74.8,0,112.2,0c42.5,0,85,0,127.5,0c17.1,0,36.2-8.4,41-26.1C733.9,275.9,716.5,271.1,713.5,282.3
	L713.5,282.3z"/>
<path class="st0" d="M801.9,125.9c-6.1,0-11,4.8-11,11v37c-0.8-0.6-1.5-1.3-2.3-1.9c-9.2-6.9-19.9-10.1-30.5-10c-0.1,0-0.2,0-0.3,0
	c-2.9,0-5.8,0.3-8.7,0.9c-12,2.2-23.2,8.8-31.1,19.3c-16.7,22.3-12.1,53.9,10.1,70.5c3.6,2.7,7.4,4.8,11.3,6.4
	c5.7,2.7,12,4.1,18.3,4.1c4.2,0,8-0.6,11.5-1.6c7.9-1.7,15.3-5.3,21.7-10.7v0.2c0,6.3,5,11,11.2,11c6.1,0,11-4.8,11-11V136.9
	C813.2,130.7,808.2,125.9,801.9,125.9z M785,232.3c-11,14.7-31.8,17.7-46.5,6.7c-14.7-11-17.7-31.8-6.7-46.5
	c11-14.7,31.8-17.7,46.5-6.7C793,196.8,796,217.6,785,232.3z"/>
<path class="st0" d="M218.5,263.4c-28.2,0-49.9-20.4-49.9-50.4v-0.4c0-27.8,19.7-50.6,47.5-50.6c30.9,0,46.2,25.4,46.2,47.8
	c0,6.3-4.8,10.7-10.5,10.7h-60.9c2.4,15.8,13.6,24.7,28,24.7c9.4,0,16.7-3.3,23-8.5c1.7-1.3,3.1-2,5.7-2c5,0,8.8,3.9,8.8,9
	c0,2.8-1.3,5.2-2.9,6.8C244.6,258.4,233.6,263.4,218.5,263.4z M240.6,205.8c-1.5-14.4-9.9-25.6-24.7-25.6
	c-13.6,0-23.2,10.5-25.2,25.6H240.6z"/>
<path class="st0" d="M293.4,234.3v-51.2h-3.7c-5.3,0-9.6-4.2-9.6-9.6c0-5.3,4.2-9.6,9.6-9.6h3.7v-16.6c0-6.1,5-11,11.2-11
	c6.1,0,11,5,11,11V164h17.5c5.3,0,9.8,4.2,9.8,9.6c0,5.3-4.4,9.6-9.8,9.6h-17.5v47.7c0,8.6,4.4,12.1,12,12.1c2.6,0,4.8-0.6,5.5-0.6
	c5,0,9.4,4,9.4,9.2c0,4-2.8,7.4-5.9,8.6c-4.8,1.7-9.4,2.6-15.3,2.6C305,262.8,293.4,255.6,293.4,234.3z"/>
<path class="st0" d="M367.7,137.9c0-6.6,5.5-10.9,12.7-10.9c7.2,0,12.7,4.2,12.7,10.9v1.1c0,6.6-5.5,11-12.7,11
	c-7.2,0-12.7-4.4-12.7-11V137.9z M369.4,174.1c0-6.3,4.8-11.2,11-11.2c6.3,0,11.2,5,11.2,11.2V251c0,6.3-5,11-11.2,11
	c-6.1,0-11-4.8-11-11V174.1z"/>
<path class="st0" d="M424.4,174.1c0-6.3,4.8-11.2,11-11.2c6.3,0,11.2,5,11.2,11.2v4.6c6.3-8.6,14.7-16.7,29.6-16.7
	c14,0,23.9,6.8,29.1,17.1c7.7-10.3,18-17.1,32.8-17.1c21.2,0,34,13.4,34,37.2V251c0,6.3-4.8,11-11,11c-6.3,0-11.2-4.8-11.2-11v-45.1
	c0-15.5-7.2-23.7-19.7-23.7c-12.1,0-20.8,8.5-20.8,24.1V251c0,6.3-5,11-11,11c-6.3,0-11.2-4.8-11.2-11v-45.3
	c0-15.1-7.4-23.6-19.7-23.6c-12.3,0-20.8,9.2-20.8,24.1V251c0,6.3-5,11-11.2,11c-6.1,0-11-4.8-11-11V174.1z"/>
<path class="st0" d="M647.4,263.4c-28.2,0-49.9-20.4-49.9-50.4v-0.4c0-27.8,19.7-50.6,47.5-50.6c30.9,0,46.2,25.4,46.2,47.8
	c0,6.3-4.8,10.7-10.5,10.7h-60.9c2.4,15.8,13.6,24.7,28,24.7c9.4,0,16.7-3.3,23-8.5c1.7-1.3,3.1-2,5.7-2c5,0,8.8,3.9,8.8,9
	c0,2.8-1.3,5.2-2.9,6.8C673.5,258.4,662.5,263.4,647.4,263.4z M669.5,205.8c-1.5-14.4-9.9-25.6-24.7-25.6
	c-13.6,0-23.2,10.5-25.2,25.6H669.5z"/>
<g>
	<path class="st1" d="M26.9,15.1c0,0-16.7,0.6-16.7,13l9.1,139.4l-10.7,0.6L0,27.6c0,0-0.5-22.5,26.3-22.5L26.9,15.1z"/>
</g>
<path class="st1" d="M25.6,13.7c0,0-15.6-1.1-17.4,14.8l8.1,138.9l-1.5,0.3L6.7,29c0,0-0.8-16.7,18.7-17.8L25.6,13.7z"/>
<path class="st1" d="M32.2,18.8c-4.4-0.1-7.9-4-7.8-8.8l0,0c0.1-4.8,3.7-8.6,8.1-8.5L45,0c4.4,0.1,8.3,5.8,8.2,10.6l0,0
	c-0.1,4.8-3.7,10.8-8.1,10.7L32.2,18.8z"/>
<path class="st1" d="M25.6,14.8c0,0-16.4,1.8-15.4,13.4l9.1,139.4l-2-0.4L9,28.5C9,28.5,6.7,16.2,25.6,14.8z"/>
<path class="st1" d="M39.1,1.6L45.5,1c0,0,4.3-0.8,7.1,8.5C52.6,9.6,50.6,0,39.1,1.6z"/>
<path class="st1" d="M131.2,15.1c0,0,16.7,0.6,16.7,13l-9.1,139.4l10.7,0.6l8.6-140.5c0,0,0.5-22.5-26.3-22.5L131.2,15.1z"/>
<path class="st1" d="M133.5,8.2c0,0,21.2,1.1,22.2,19.2l-8.6,139.7l1,1.4l9.3-140c0,0,0.8-20.9-24.7-22L133.5,8.2z"/>
<path class="st1" d="M125.8,18.8c4.4-0.1,7.9-4,7.8-8.8l0,0c-0.1-4.8-3.7-8.6-8.1-8.5L113,0c-4.4,0.1-8.3,5.8-8.2,10.6l0,0
	c0.1,4.8,3.7,10.8,8.1,10.7L125.8,18.8z"/>
<path class="st1" d="M123.8,2.1c0,0,9.1,1.4,9.2,9.9C133,12,134.4,2.3,123.8,2.1z"/>
<path class="st1" d="M152.2,12.9c0,0,7.1,4.9,5.3,25l-8.6,129.5l0.6,0.8l9.2-130C158.7,38.1,161.2,20.8,152.2,12.9z"/>
<path class="st1" d="M19.8,6.3c0,0-22.2,1.6-18.4,29.4C1.4,35.6-3.1,14.5,19.8,6.3z"/>
<g>
	<path class="st0" d="M151,165.3l-14.7-0.2c0,0-4.3,79.6-57.3,80.3c0,0-51.1,2.6-57-79.8l-15.5,0.9c0,0,4.3,91.9,72,94.2
		C78.4,260.7,143.1,266.5,151,165.3z"/>
	<path class="st0" d="M80.3,263.8C80.3,263.8,80.3,263.8,80.3,263.8c-1.1,0-1.8,0-2.1-0.1c-28.9-1-51-18.3-64-49.8
		c-9.6-23.5-10.8-46.3-10.8-47.2l-0.1-3l21.4-1.2l0.2,2.9c5.4,74.9,48.6,77.1,53.5,77.1c0.2,0,0.4,0,0.4,0l0.1,0
		c49.6-0.7,54.3-76.7,54.4-77.5l0.2-2.9l20.8,0.2l-0.2,3.2C146.7,259,91.3,263.8,80.3,263.8z M78.7,257.7c0,0,0.6,0,1.6,0
		c10,0,59.6-4.4,67.4-89.5l-8.6-0.1c-0.6,6.3-2.6,22-8.7,37.9c-10.5,27.4-28.3,42-51.3,42.3c-0.1,0-0.3,0-0.6,0
		c-5.4,0-52.6-2.3-59.3-79.7l-9.5,0.5c0.6,6.9,2.9,24.7,10.2,42.4c12.2,29.6,31.9,45,58.7,46L78.7,257.7L78.7,257.7z"/>
</g>
<path d="M78.4,260.7"/>
<path class="st2" d="M-89.1,338.4"/>
<g>
	<path class="st1" d="M730.7,291c-1.6,2.7-6.8,3.6-11.8,1.9l0,0c-4.9-1.7-7.7-5.3-6.1-8l23.5-41.2c1.6-2.7,6.8-3.6,11.8-1.9l0,0
		c4.9,1.7,7.7,5.3,6.1,8L730.7,291z"/>
	<path class="st1" d="M722.9,295.1c-1.5-0.1-3.1-0.4-4.6-0.9c-3.4-1.2-6.1-3.2-7.1-5.6c-0.7-1.5-0.6-3,0.2-4.3l23.5-41.2
		c1.4-2.4,4.9-3.8,9.1-3.5c1.5,0.1,3.1,0.4,4.6,0.9c3.4,1.2,6.1,3.2,7.1,5.6c0.7,1.5,0.6,3-0.2,4.3l-23.5,41.2
		C730.7,294.1,727.2,295.4,722.9,295.1z M743.9,242.4c-2.9-0.2-5.4,0.6-6.2,2l-23.5,41.2c-0.4,0.6-0.4,1.3,0,2.1
		c0.7,1.6,2.7,3.1,5.3,4c1.2,0.4,2.4,0.7,3.7,0.7c2.9,0.2,5.4-0.6,6.2-2l23.5-41.2c0.4-0.6,0.4-1.3,0-2.1c-0.7-1.6-2.7-3.1-5.3-4
		C746.4,242.7,745.1,242.5,743.9,242.4z"/>
</g>
<path class="st1" d="M780.2,183.2c-16.1-12.1-38.9-8.8-51,7.3c-12.1,16.1-8.8,38.9,7.3,51c16.1,12.1,38.9,8.8,51-7.3
	C799.6,218.1,796.3,195.3,780.2,183.2z M782.1,230.1c-9.8,13.1-28.4,15.8-41.5,6c-13.1-9.8-15.8-28.4-6-41.5
	c9.8-13.1,28.4-15.8,41.5-6C789.2,198.4,791.9,217,782.1,230.1z"/>
<path class="st0" d="M71.9,251.4c0.6,42.3,48.6,61.7,84.6,62c11.6,0.1,11.6-17.9,0-18c-26-0.2-66.1-12.9-66.6-44
	C89.7,239.8,71.7,239.7,71.9,251.4L71.9,251.4z"/>
</svg>
