<?xml version="1.0" encoding="utf-8"?>
<!-- Generator: Adobe Illustrator 19.0.0, SVG Export Plug-In . SVG Version: 6.00 Build 0)  -->
<svg version="1.1" id="Layer_1" xmlns="http://www.w3.org/2000/svg" xmlns:xlink="http://www.w3.org/1999/xlink" x="0px" y="0px"
	 viewBox="0 0 175.3 36.7" style="enable-background:new 0 0 175.3 36.7;" xml:space="preserve">
<style type="text/css">
	.st0{fill:#FFFFFF;}
</style>
<g>
	<path class="st0" d="M3.8,16.8c-0.3-0.1-0.3-0.2-0.3-0.6c0-1,0.1-2.1,0.1-2.4c0-0.3,0.1-0.5,0.2-0.5c0.2,0,0.2,0.2,0.2,0.3
		c0,0.2,0.1,0.6,0.2,0.9c0.4,1.3,1.5,1.8,2.6,1.8c1.7,0,2.5-1.1,2.5-2.1c0-0.9-0.3-1.7-1.8-2.9l-0.8-0.7C4.5,9.2,3.8,8,3.8,6.5
		c0-2,1.7-3.4,4.2-3.4c1.2,0,2,0.2,2.4,0.3c0.2,0,0.3,0.1,0.3,0.2c0,0.2-0.1,0.8-0.1,2.2c0,0.4-0.1,0.5-0.2,0.5
		c-0.1,0-0.2-0.1-0.2-0.3c0-0.2-0.1-0.7-0.5-1.2C9.6,4.4,9,3.9,7.8,3.9c-1.4,0-2.2,0.8-2.2,1.9c0,0.8,0.4,1.5,1.9,2.6l0.5,0.4
		c2.2,1.7,3,2.9,3,4.6c0,1.1-0.4,2.3-1.7,3.2c-0.9,0.6-1.9,0.7-2.9,0.7C5.4,17.3,4.6,17.2,3.8,16.8"/>
	<path class="st0" d="M28.6,9.1c0.1,0,0.1,0,0.1-0.1V8.6c0-2.8,0-3.3,0-3.9c0-0.6-0.2-0.9-0.8-1c-0.1,0-0.5-0.1-0.7-0.1
		c-0.2,0-0.3,0-0.3-0.2c0-0.1,0.1-0.2,0.4-0.2c1,0,2.2,0.1,2.6,0.1c0.4,0,1.6-0.1,2.3-0.1c0.3,0,0.4,0,0.4,0.2
		c0,0.1-0.1,0.2-0.3,0.2c-0.1,0-0.3,0-0.5,0.1c-0.5,0.1-0.6,0.4-0.7,1c0,0.6,0,1.1,0,3.9v3.2c0,1.7,0,3.1,0.1,3.9
		c0.1,0.5,0.2,0.9,0.7,1c0.3,0,0.7,0.1,0.9,0.1c0.2,0,0.3,0.1,0.3,0.1c0,0.1-0.1,0.2-0.4,0.2c-1.2,0-2.4-0.1-2.9-0.1
		c-0.4,0-1.6,0.1-2.3,0.1c-0.3,0-0.4-0.1-0.4-0.2c0-0.1,0.1-0.1,0.3-0.1c0.3,0,0.5,0,0.7-0.1c0.4-0.1,0.5-0.5,0.5-1
		c0.1-0.8,0.1-2.2,0.1-3.9v-1.6c0-0.1-0.1-0.1-0.1-0.1h-7c-0.1,0-0.1,0-0.1,0.1v1.6c0,1.7,0,3.1,0.1,3.9c0.1,0.5,0.2,0.9,0.7,1
		c0.3,0,0.7,0.1,0.9,0.1c0.2,0,0.3,0.1,0.3,0.1c0,0.1-0.1,0.2-0.4,0.2c-1.2,0-2.4-0.1-2.9-0.1c-0.4,0-1.6,0.1-2.3,0.1
		c-0.2,0-0.4-0.1-0.4-0.2c0-0.1,0.1-0.1,0.3-0.1c0.3,0,0.5,0,0.7-0.1c0.4-0.1,0.5-0.5,0.5-1c0.1-0.8,0.1-2.2,0.1-3.9V8.6
		c0-2.8,0-3.3,0-3.9c0-0.6-0.2-0.9-0.8-1c-0.1,0-0.5-0.1-0.7-0.1c-0.2,0-0.3,0-0.3-0.2c0-0.1,0.1-0.2,0.4-0.2c1,0,2.2,0.1,2.6,0.1
		c0.4,0,1.6-0.1,2.3-0.1c0.3,0,0.4,0,0.4,0.2c0,0.1-0.1,0.2-0.3,0.2c-0.1,0-0.3,0-0.5,0.1c-0.5,0.1-0.6,0.4-0.7,1c0,0.6,0,1.1,0,3.9
		V9c0,0.1,0.1,0.1,0.1,0.1H28.6z"/>
	<path class="st0" d="M51,10.5c0-4.1-2.4-6.6-5.4-6.6c-2.1,0-4.5,1.2-4.5,5.7c0,3.8,2.1,6.8,5.6,6.8C48,16.4,51,15.8,51,10.5
		 M38.5,10.2c0-3.1,2.1-7.1,7.6-7.1c4.6,0,7.4,2.6,7.4,6.8s-2.9,7.4-7.6,7.4C40.7,17.3,38.5,13.4,38.5,10.2"/>
	<path class="st0" d="M63.3,10c0,0.2,0,0.3,0.2,0.3c0.4,0.1,0.9,0.2,1.4,0.2c0.7,0,1-0.1,1.3-0.3c0.6-0.4,1.1-1.2,1.1-2.7
		c0-2.6-1.7-3.3-2.8-3.3c-0.5,0-0.8,0-1,0.1c-0.1,0-0.2,0.1-0.2,0.3V10z M61.1,8.6c0-2.8,0-3.3,0-3.8c0-0.6-0.2-0.9-0.8-1
		c-0.1,0-0.5-0.1-0.7-0.1c-0.2,0-0.3,0-0.3-0.2c0-0.1,0.1-0.2,0.4-0.2c1,0,2.1,0.1,2.5,0.1c0.6,0,2-0.1,2.6-0.1
		c1.2,0,2.4,0.1,3.4,0.8c0.5,0.3,1.3,1.3,1.3,2.5c0,1.3-0.6,2.6-2.4,4.1c1.6,2,2.9,3.6,4,4.8c1,1.1,1.8,1.2,2.1,1.2
		c0.2,0,0.4,0.1,0.5,0.1c0.1,0,0.2,0.1,0.2,0.1c0,0.1-0.1,0.2-0.3,0.2h-1.7c-1,0-1.5-0.1-2-0.3c-0.8-0.4-1.5-1.3-2.5-2.7
		c-0.7-1-1.6-2.2-1.8-2.5c-0.1-0.1-0.2-0.1-0.3-0.1l-1.6,0c-0.1,0-0.1,0-0.1,0.1v0.3c0,1.7,0,3.1,0.1,3.9c0.1,0.5,0.2,0.9,0.7,1
		c0.3,0,0.7,0.1,0.9,0.1c0.1,0,0.2,0.1,0.2,0.1c0,0.1-0.1,0.2-0.4,0.2c-1.1,0-2.4-0.1-2.7-0.1c-0.4,0-1.5,0.1-2.2,0.1
		c-0.2,0-0.4-0.1-0.4-0.2c0-0.1,0.1-0.1,0.3-0.1c0.3,0,0.5,0,0.7-0.1c0.4-0.1,0.5-0.5,0.5-1c0.1-0.8,0.1-2.2,0.1-3.9V8.6z"/>
	<path class="st0" d="M78.6,8.6c0-2.8,0-3.3,0-3.8c0-0.6-0.2-0.9-0.8-1c-0.1,0-0.5-0.1-0.7-0.1c-0.2,0-0.3,0-0.3-0.2
		c0-0.1,0.1-0.2,0.4-0.2c0.5,0,1,0,1.5,0c0.5,0,0.9,0,1.2,0c0.6,0,4.2,0,4.6,0c0.3,0,0.6-0.1,0.8-0.1c0.1,0,0.2-0.1,0.3-0.1
		c0.1,0,0.1,0.1,0.1,0.2c0,0.1-0.1,0.3-0.1,1.2c0,0.2-0.1,1-0.1,1.2c0,0.1-0.1,0.2-0.2,0.2c-0.1,0-0.2-0.1-0.2-0.3
		c0-0.1,0-0.4-0.1-0.7c-0.1-0.3-0.3-0.5-1.2-0.7c-0.3,0-2.2-0.1-2.6-0.1C81,4.3,81,4.3,81,4.5v4.6c0,0.1,0,0.2,0.1,0.2
		c0.4,0,2.5,0,2.9,0c0.4,0,0.7-0.1,0.9-0.3c0.1-0.1,0.2-0.2,0.3-0.2c0.1,0,0.1,0,0.1,0.1c0,0.1-0.1,0.4-0.1,1.3
		c0,0.4-0.1,1.1-0.1,1.2c0,0.1,0,0.3-0.2,0.3c-0.1,0-0.2-0.1-0.2-0.2c0-0.2,0-0.4-0.1-0.7c-0.1-0.4-0.3-0.6-1-0.7
		c-0.3,0-2.2-0.1-2.6-0.1c-0.1,0-0.1,0.1-0.1,0.2v1.4c0,0.6,0,2.3,0,2.8c0,1.3,0.3,1.5,2.2,1.5c0.5,0,1.3,0,1.7-0.2
		c0.5-0.2,0.7-0.6,0.8-1.3c0-0.2,0.1-0.3,0.2-0.3c0.1,0,0.1,0.1,0.1,0.3c0,0.4-0.1,1.7-0.2,2c-0.1,0.5-0.3,0.5-1,0.5
		c-1.4,0-2.4,0-3.2-0.1c-0.8,0-1.4-0.1-1.9-0.1c-0.2,0-0.6,0-1,0c-0.4,0-0.9,0-1.3,0c-0.2,0-0.4-0.1-0.4-0.2c0-0.1,0.1-0.1,0.3-0.1
		c0.3,0,0.5,0,0.7-0.1c0.4-0.1,0.5-0.5,0.5-1c0.1-0.8,0.1-2.2,0.1-3.9V8.6z"/>
	<path class="st0" d="M92.3,5.1c-0.2-0.7-0.4-1.1-0.7-1.3c-0.2-0.1-0.6-0.2-0.7-0.2c-0.2,0-0.3,0-0.3-0.2c0-0.1,0.1-0.2,0.4-0.2
		c1,0,2,0.1,2.1,0.1c0.2,0,1-0.1,2-0.1c0.3,0,0.4,0.1,0.4,0.2c0,0.1-0.1,0.2-0.3,0.2c-0.1,0-0.3,0-0.5,0.1c-0.2,0.1-0.2,0.2-0.2,0.4
		c0,0.2,0.2,0.9,0.4,1.7c0.3,1.2,2,6.7,2.4,7.7h0.1l3.6-9.5c0.2-0.5,0.3-0.7,0.5-0.7c0.2,0,0.3,0.3,0.5,0.9l3.8,9.1h0.1
		c0.3-1.2,1.8-6,2.4-8.1c0.1-0.4,0.2-0.8,0.2-1.1c0-0.3-0.2-0.5-0.9-0.5c-0.2,0-0.3-0.1-0.3-0.2c0-0.1,0.1-0.2,0.4-0.2
		c1,0,1.7,0.1,1.9,0.1c0.1,0,0.9-0.1,1.5-0.1c0.2,0,0.3,0,0.3,0.1c0,0.1-0.1,0.2-0.3,0.2c-0.2,0-0.4,0-0.6,0.1
		c-0.4,0.2-0.6,0.9-1,1.9c-0.8,2.3-2.8,8.1-3.7,10.8c-0.2,0.6-0.3,0.9-0.5,0.9c-0.2,0-0.3-0.2-0.6-0.9l-3.8-9.1h0
		c-0.4,0.9-2.8,7.4-3.6,9c-0.3,0.7-0.4,1-0.7,1c-0.2,0-0.3-0.2-0.4-0.7L92.3,5.1z"/>
	<path class="st0" d="M128,10.5c0-4.1-2.4-6.6-5.4-6.6c-2.1,0-4.5,1.2-4.5,5.7c0,3.8,2.1,6.8,5.6,6.8C125,16.4,128,15.8,128,10.5
		 M115.6,10.2c0-3.1,2.1-7.1,7.6-7.1c4.6,0,7.4,2.6,7.4,6.8s-2.9,7.4-7.6,7.4C117.7,17.3,115.6,13.4,115.6,10.2"/>
	<path class="st0" d="M148.7,10.5c0-4.1-2.4-6.6-5.4-6.6c-2.1,0-4.5,1.2-4.5,5.7c0,3.8,2.1,6.8,5.6,6.8
		C145.8,16.4,148.7,15.8,148.7,10.5 M136.3,10.2c0-3.1,2.1-7.1,7.6-7.1c4.6,0,7.4,2.6,7.4,6.8s-2.9,7.4-7.6,7.4
		C138.4,17.3,136.3,13.4,136.3,10.2"/>
	<path class="st0" d="M161.1,10.6c0,1.9,0,3.3,0,3.7c0,0.5,0.1,1.2,0.2,1.4c0.2,0.3,1,0.7,2.4,0.7c1.9,0,3.1-0.4,4.2-1.3
		c1.2-1,1.5-2.7,1.5-4.5c0-2.3-1-3.8-1.8-4.5c-1.7-1.6-3.8-1.8-5.2-1.8c-0.4,0-1,0.1-1.2,0.1c-0.2,0.1-0.2,0.2-0.2,0.4
		c0,0.6,0,2.2,0,3.6V10.6z M158.8,8.6c0-2.8,0-3.3,0-3.8c0-0.6-0.2-0.9-0.8-1c-0.1,0-0.5-0.1-0.7-0.1c-0.2,0-0.3,0-0.3-0.2
		c0-0.1,0.1-0.2,0.4-0.2c1,0,2.1,0.1,2.6,0.1c0.6,0,1.7-0.1,2.8-0.1c2.3,0,5.4,0,7.4,2.1c0.9,0.9,1.8,2.5,1.8,4.6c0,2.3-1,4-2,5.1
		c-0.8,0.9-2.8,2.1-6.2,2.1c-0.7,0-1.4-0.1-2.1-0.1c-0.7-0.1-1.3-0.1-1.8-0.1c-0.2,0-0.6,0-1,0c-0.4,0-0.9,0-1.3,0
		c-0.2,0-0.4-0.1-0.4-0.2c0-0.1,0.1-0.1,0.3-0.1c0.3,0,0.5,0,0.7-0.1c0.4-0.1,0.5-0.5,0.5-1c0.1-0.8,0.1-2.2,0.1-3.9V8.6z"/>
</g>
<polygon class="st0" points="68.3,27.6 68.3,30.4 64.8,30.4 64.8,27.6 64,27.6 64,33.9 64.8,33.9 64.8,31 68.3,31 68.3,33.9 
	69.1,33.9 69.1,27.6 "/>
<g>
	<path class="st0" d="M79.9,30.7c0-0.4-0.1-0.7-0.2-1c-0.1-0.3-0.3-0.6-0.5-0.8c-0.2-0.2-0.4-0.4-0.7-0.5c-0.3-0.1-0.6-0.2-0.9-0.2
		c-0.3,0-0.7,0.1-0.9,0.2c-0.3,0.1-0.5,0.3-0.7,0.5c-0.2,0.2-0.3,0.5-0.5,0.8c-0.1,0.3-0.2,0.7-0.2,1c0,0.4,0.1,0.7,0.2,1
		c0.1,0.3,0.3,0.6,0.5,0.8c0.2,0.2,0.4,0.4,0.7,0.5c0.3,0.1,0.6,0.2,0.9,0.2c0.3,0,0.7-0.1,0.9-0.2c0.3-0.1,0.5-0.3,0.7-0.5
		c0.2-0.2,0.3-0.5,0.5-0.8C79.8,31.4,79.9,31.1,79.9,30.7 M80.7,30.7c0,0.5-0.1,0.9-0.2,1.3s-0.4,0.7-0.6,1c-0.3,0.3-0.6,0.5-1,0.7
		c-0.4,0.2-0.8,0.2-1.3,0.2c-0.5,0-0.9-0.1-1.3-0.2c-0.4-0.2-0.7-0.4-1-0.7s-0.5-0.6-0.6-1c-0.2-0.4-0.2-0.8-0.2-1.3
		c0-0.5,0.1-0.9,0.2-1.3c0.2-0.4,0.4-0.7,0.6-1c0.3-0.3,0.6-0.5,1-0.7c0.4-0.2,0.8-0.2,1.3-0.2c0.5,0,0.9,0.1,1.3,0.2
		c0.4,0.2,0.7,0.4,1,0.7c0.3,0.3,0.5,0.6,0.6,1C80.7,29.8,80.7,30.2,80.7,30.7"/>
	<path class="st0" d="M92.7,27.6v6.3h-0.8v-4.6c0-0.1,0-0.1,0-0.2c0-0.1,0-0.1,0-0.2l-2.2,3.9c-0.1,0.1-0.2,0.2-0.3,0.2h-0.1
		c-0.1,0-0.2-0.1-0.3-0.2l-2.2-4c0,0.2,0,0.3,0,0.4v4.6h-0.8v-6.3h0.6c0.1,0,0.1,0,0.2,0c0,0,0.1,0.1,0.1,0.1l2.2,3.9
		c0,0.1,0.1,0.1,0.1,0.2c0,0.1,0.1,0.2,0.1,0.2c0-0.1,0.1-0.2,0.1-0.2c0-0.1,0.1-0.2,0.1-0.2l2.2-3.9c0-0.1,0.1-0.1,0.1-0.1
		c0,0,0.1,0,0.2,0H92.7z"/>
</g>
<polygon class="st0" points="98.4,27.6 98.4,33.9 102.3,33.9 102.3,33.2 99.3,33.2 99.3,31 101.8,31 101.8,30.3 99.3,30.3 
	99.3,28.2 102.3,28.2 102.3,27.6 "/>
<g>
	<path class="st0" d="M110.9,28.5C110.9,28.6,110.9,28.6,110.9,28.5c-0.1,0.1-0.2,0.1-0.2,0.1c-0.1,0-0.1,0-0.2-0.1
		c-0.1-0.1-0.2-0.1-0.3-0.2s-0.2-0.1-0.4-0.2c-0.1,0-0.3-0.1-0.5-0.1c-0.2,0-0.4,0-0.5,0.1c-0.1,0.1-0.3,0.1-0.4,0.2
		c-0.1,0.1-0.2,0.2-0.2,0.3c-0.1,0.1-0.1,0.2-0.1,0.4c0,0.2,0,0.3,0.1,0.4c0.1,0.1,0.2,0.2,0.3,0.3c0.1,0.1,0.3,0.2,0.5,0.2
		c0.2,0.1,0.4,0.1,0.6,0.2c0.2,0.1,0.4,0.1,0.6,0.2c0.2,0.1,0.3,0.2,0.5,0.3c0.1,0.1,0.3,0.3,0.3,0.5c0.1,0.2,0.1,0.4,0.1,0.7
		c0,0.3,0,0.5-0.1,0.8c-0.1,0.2-0.2,0.5-0.4,0.6c-0.2,0.2-0.4,0.3-0.7,0.4c-0.3,0.1-0.6,0.2-0.9,0.2c-0.4,0-0.8-0.1-1.1-0.2
		c-0.3-0.1-0.6-0.3-0.9-0.6l0.2-0.4c0,0,0.1-0.1,0.1-0.1c0,0,0.1,0,0.1,0c0,0,0.1,0,0.1,0c0,0,0.1,0.1,0.2,0.1
		c0.1,0,0.1,0.1,0.2,0.2c0.1,0.1,0.2,0.1,0.3,0.2c0.1,0,0.2,0.1,0.3,0.1c0.1,0,0.3,0,0.4,0c0.2,0,0.4,0,0.5-0.1
		c0.2-0.1,0.3-0.1,0.4-0.2c0.1-0.1,0.2-0.2,0.3-0.4s0.1-0.3,0.1-0.5c0-0.2,0-0.3-0.1-0.5c-0.1-0.1-0.2-0.2-0.3-0.3
		c-0.1-0.1-0.3-0.2-0.5-0.2c-0.2-0.1-0.4-0.1-0.6-0.2c-0.2-0.1-0.4-0.1-0.6-0.2c-0.2-0.1-0.3-0.2-0.5-0.3c-0.1-0.1-0.3-0.3-0.3-0.5
		c-0.1-0.2-0.1-0.4-0.1-0.7c0-0.2,0-0.4,0.1-0.6c0.1-0.2,0.2-0.4,0.4-0.6c0.2-0.2,0.4-0.3,0.6-0.4c0.2-0.1,0.5-0.1,0.8-0.1
		c0.4,0,0.7,0.1,1,0.2c0.3,0.1,0.6,0.3,0.8,0.5L110.9,28.5z"/>
</g>
</svg>
