<svg id="Layer_1" xmlns="http://www.w3.org/2000/svg" xmlns:xlink="http://www.w3.org/1999/xlink" viewBox="0 0 81 61.5"><style>.st0{clip-path:url(#XMLID_107_);fill:#424143}</style><g id="XMLID_2_"><defs><path id="XMLID_3_" d="M0 0h81v61.5H0z"/></defs><clipPath id="XMLID_107_"><use xlink:href="#XMLID_3_" overflow="visible"/></clipPath><path id="XMLID_15_" class="st0" d="M44.4 49.8H1.5c-.8 0-1.5-.7-1.5-1.5v-5.9c0-.8.7-1.4 1.5-1.4h44.9c.8 0 1.5.7 1.5 1.5s-.7 1.5-1.5 1.5H2.9v2.9h41.5c.8 0 1.5.7 1.5 1.5 0 .7-.7 1.4-1.5 1.4"/><path id="XMLID_14_" class="st0" d="M79.5 49.8H67.8c-.8 0-1.5-.7-1.5-1.5s.7-1.5 1.5-1.5H78v-2.9H63.9c-.8 0-1.5-.7-1.5-1.5s.7-1.5 1.5-1.5h15.6c.8 0 1.5.7 1.5 1.5v5.9c0 .8-.7 1.5-1.5 1.5"/><path id="XMLID_13_" class="st0" d="M77.6 43.9c-.8 0-1.5-.7-1.5-1.5V8.7c0-3.2-2.6-5.8-5.8-5.8H18.5c-3.2 0-5.8 2.6-5.8 5.8v33.7c0 .8-.7 1.5-1.5 1.5s-1.5-.7-1.5-1.5V8.7c0-4.8 3.9-8.7 8.7-8.7h51.9C75.1 0 79 3.9 79 8.7v33.7c0 .8-.6 1.5-1.4 1.5"/><path id="XMLID_10_" class="st0" d="M55.1 40c-5.1 0-9.3 4.2-9.3 9.3 0 5.1 4.2 9.3 9.3 9.3s9.3-4.2 9.3-9.3c0-5.1-4.2-9.3-9.3-9.3m0 21.5c-6.7 0-12.2-5.5-12.2-12.2 0-6.7 5.5-12.2 12.2-12.2s12.2 5.5 12.2 12.2c0 6.7-5.5 12.2-12.2 12.2"/><path id="XMLID_9_" class="st0" d="M55.1 55.6c-3.5 0-6.3-2.8-6.3-6.3 0-.8.7-1.5 1.5-1.5s1.5.7 1.5 1.5c0 1.9 1.5 3.4 3.4 3.4s3.4-1.5 3.4-3.4c0-.8.7-1.5 1.5-1.5s1.5.7 1.5 1.5c-.1 3.5-3 6.3-6.5 6.3"/><path id="XMLID_8_" class="st0" d="M34.6 43.9c-.8 0-1.5-.7-1.5-1.5V10.7H20.5v31.7c0 .8-.7 1.5-1.5 1.5s-1.5-.7-1.5-1.5V9.3c0-.8.7-1.5 1.5-1.5h15.6c.8 0 1.5.7 1.5 1.5v33.2c0 .7-.7 1.4-1.5 1.4"/><path id="XMLID_5_" class="st0" d="M45.9 25.4h16.6V12.7H45.9v12.7zm18 2.9H44.4c-.8 0-1.5-.7-1.5-1.5V11.2c0-.8.7-1.5 1.5-1.5h19.5c.8 0 1.5.7 1.5 1.5v15.6c0 .8-.7 1.5-1.5 1.5"/><path id="XMLID_4_" class="st0" d="M11.2 59.5c-.8 0-1.5-.7-1.5-1.5v-7.8c0-.8.7-1.5 1.5-1.5s1.5.7 1.5 1.5V58c0 .9-.7 1.5-1.5 1.5"/></g></svg>