<svg version="1.1" id="Layer_1" xmlns="http://www.w3.org/2000/svg" xmlns:xlink="http://www.w3.org/1999/xlink" x="0" y="0" viewBox="0 0 168 81.8" xml:space="preserve"><style>.st3{fill:#fff}</style><defs><path id="SVGID_1_" d="M0 0h113.5v81.8H0z"/></defs><clipPath id="SVGID_2_"><use xlink:href="#SVGID_1_" overflow="visible"/></clipPath><path d="M38.1 9.3c-.1.3-.2.5-.4.8-2.1 4.1-3.8 8.3-5.3 12.7-1.7 4.8-3 9.6-4.2 14.5-1.3 5.2-2.4 10.4-3.7 15.7a131 131 0 01-3.6 12.2c-1.3 3.7-2.7 7.4-4.5 11-.9 1.8-1.8 3.5-2.7 5.3-.1.1-.2.3-.4.4v-.4c.5-2.8 1-5.5 1.4-8.3.3-1.9.4-3.8.7-5.7.3-2.9.3-5.8.3-8.7 0-2.5-.3-4.9-1.1-7.2-.4-1.3-1-2.6-2-3.5-1.9-1.9-5.3-1.5-6.9.4-1.5 1.7-1.7 4.2-.2 6.2.3.4.7.8 1 1.2-.4-.2-.8-.3-1.2-.5-1.7-.9-3-2.1-4-3.7-.6-1-.9-2-1.1-3.1-.3-1.7-.2-3.3.3-4.9.5-1.6 1.5-2.9 2.8-3.9 1.5-1.2 3.2-2 5-2.7 2.9-1.3 6-2.3 8.8-3.8 1.9-1 3.6-2.2 5.2-3.5.9-.8 1.9-1.6 2.7-2.5 1.8-1.8 3.4-3.7 5-5.7 2.6-3.3 4.9-6.9 7.1-10.5l.9-1.5c0-.3 0-.3.1-.3" clip-path="url(#SVGID_2_)" fill="#2c9cd7"/><path d="M50.9 0v1.8c0 .9 0 1.8-.1 2.7 0 .3.1.5.3.7 1.1.9 2.2 1.7 3.3 2.6.1.1.2.1.3.3-.1.1-.2.1-.3.1-1.4.3-2.8.7-4.3 1-.3.1-.4.2-.5.4-.5 1.3-.9 2.6-1.4 3.9 0 .1-.1.1-.1.2l-.3-.3-2.4-3.6c-.1-.1-.2-.2-.3-.4-1.6-.1-3.3-.2-4.9-.3.3-.5.7-.9 1-1.3.3-.4.7-.8 1-1.3.3-.4.7-.8 1-1.3-.5-1.5-.9-3-1.4-4.6.6.2 1.1.4 1.7.6.5.2 1 .4 1.6.6.5.2 1.1.4 1.6.7.1-.1.3-.1.4-.2 1.1-.7 2.3-1.4 3.4-2.1.1-.1.3-.1.4-.2" clip-path="url(#SVGID_2_)" fill="#dddcdb"/><defs><path id="SVGID_3_" d="M0 0h168v81.8H0z"/></defs><clipPath id="SVGID_4_"><use xlink:href="#SVGID_3_" overflow="visible"/></clipPath><path d="M17 28c-2.7.1-5.3-2.1-5.3-5.3 0-3 2.6-5.3 5.4-5.2 2.7 0 5.2 2.5 5.2 5.4.1 2.4-2.3 5.4-5.3 5.1" clip-path="url(#SVGID_4_)" fill="#2c9cd7"/><path class="st3" d="M44.6 32.8h7l-3.5-9.4-3.5 9.4zm-4.4 7.1l7-17.8h1.9l6.8 17.8h-1.7l-2.1-5.6H44l-2.1 5.6h-1.7z"/><defs><path id="SVGID_5_" d="M0 0h168v81.8H0z"/></defs><clipPath id="SVGID_6_"><use xlink:href="#SVGID_5_" overflow="visible"/></clipPath><path d="M60 34.5c.3 3.2 2.4 4.4 5.1 4.4 3.2 0 4.5-1.7 4.5-3.7 0-5.5-10.9-1.9-10.9-8.9 0-2.5 2.1-4.8 6-4.8 4 0 6 2.4 6 5.3h-1.6c0-2.7-2.1-3.9-4.4-3.9-3.4 0-4.7 2.1-4.4 3.9.8 4.6 10.9 1.3 10.9 8.2 0 3.3-2.4 5.2-6.5 5.2-3.7 0-6.5-1.9-6.5-5.8H60z" clip-path="url(#SVGID_6_)" fill="#fff"/><path class="st3" d="M73.8 22h13v1.5h-5.6v16.4h-1.7V23.5h-5.7z"/><defs><path id="SVGID_7_" d="M0 0h168v81.8H0z"/></defs><clipPath id="SVGID_8_"><use xlink:href="#SVGID_7_" overflow="visible"/></clipPath><path d="M97.1 30.3c2.5 0 4.4-1 4.4-3.5 0-2.7-2.1-3.3-4.3-3.3h-5.3v6.9h5.2zm-5.3 1.5v8.1h-1.7V22h7c3.9 0 6.1 1.4 6.1 4.7 0 2.3-.8 3.4-2.9 4.4 2.1.7 2.2 2.9 2.3 4.8.1 2.7.3 3.4.7 3.8v.2h-1.9c-.7-1.2-.5-4.6-.8-5.9-.4-1.9-1.9-2.2-3.5-2.2h-5.3z" clip-path="url(#SVGID_8_)" fill="#fff"/><path class="st3" d="M107.7 39.9V22h11.8v1.5h-10.2v6.4h9.2v1.4h-9.2v7.1h10.5v1.5zm16.1 0V22h1.7v16.4h9.5v1.5zm14.7 0V22h1.7v16.4h9.6v1.5zm17.5-7.1h7l-3.5-9.4-3.5 9.4zm-4.4 7.1l7-17.8h1.9l6.8 17.8h-1.7l-2.1-5.6h-8.1l-2.1 5.6h-1.7z"/><defs><path id="SVGID_9_" d="M0 0h168v81.8H0z"/></defs><clipPath id="SVGID_10_"><use xlink:href="#SVGID_9_" overflow="visible"/></clipPath><path d="M43.9 51.3l-.7-2.1c-.2-.5-.3-.9-.4-1.3-.1.4-.2.9-.4 1.3l-.7 2.1h2.2zm-2.4.8l-.8 2.3h-1l2.5-7.4h1.1l2.5 7.4h-1l-.8-2.3h-2.5zm11.3 2c-.3.2-1.1.4-2 .4-2.1 0-3.6-1.3-3.6-3.7 0-2.3 1.6-3.9 3.9-3.9.9 0 1.5.2 1.8.3l-.3.8c-.4-.2-.9-.3-1.5-.3-1.7 0-2.9 1.1-2.9 3 0 1.8 1 3 2.8 3 .6 0 1.2-.1 1.6-.3l.2.7zm5.8-2.8l-.7-2.1c-.2-.5-.3-.9-.4-1.3-.1.4-.2.9-.4 1.3l-.7 2.1h2.2zm-2.5.8l-.8 2.3h-1l2.5-7.4H58l2.5 7.4h-1l-.8-2.3h-2.6zm7.4 1.5h1c2 0 3.1-1.1 3.1-3.1 0-1.7-1-2.8-3-2.8-.5 0-.9 0-1.1.1v5.8zm-1-6.5c.6-.1 1.3-.2 2-.2 1.4 0 2.3.3 3 .9.7.6 1 1.5 1 2.6 0 1.2-.4 2.2-1.1 2.9-.7.7-1.8 1.1-3.3 1.1-.7 0-1.2 0-1.7-.1v-7.2z" clip-path="url(#SVGID_10_)" fill="#fff"/><path class="st3" d="M74.5 50.9h-2.9v2.7h3.2v.8h-4.2V47h4v.8h-3v2.3h2.9z"/><defs><path id="SVGID_11_" d="M0 0h168v81.8H0z"/></defs><clipPath id="SVGID_12_"><use xlink:href="#SVGID_11_" overflow="visible"/></clipPath><path d="M83.1 51.1c-.1-1-.1-2.3-.1-3.2-.3.9-.6 1.8-.9 2.8l-1.3 3.6H80l-1.2-3.5c-.4-1-.6-2-.8-2.9 0 .9-.1 2.1-.1 3.3l-.2 3.2h-.9l.5-7.4h1.2l1.3 3.6c.3.9.6 1.7.7 2.5.2-.7.5-1.6.8-2.5l1.3-3.6h1.2l.5 7.4h-.9l-.3-3.3zm5.1 3.3v-3.1L85.9 47H87l1 2c.3.6.5 1 .7 1.5.2-.5.5-1 .7-1.5l1.1-2h1.1l-2.5 4.2v3.1h-.9zm8.9-3.7c0 1.6.9 3 2.4 3s2.4-1.4 2.4-3.1c0-1.5-.8-3-2.4-3-1.6 0-2.4 1.5-2.4 3.1m5.7-.1c0 2.5-1.5 3.9-3.4 3.9-2 0-3.3-1.5-3.3-3.7 0-2.3 1.4-3.9 3.4-3.9s3.3 1.5 3.3 3.7" clip-path="url(#SVGID_12_)" fill="#fff"/><path class="st3" d="M104.9 47h4v.8h-3v2.4h2.8v.8h-2.8v3.4h-1zm9.4 0h4v.8h-3v2.4h2.7v.8h-2.7v3.4h-1z"/><defs><path id="SVGID_13_" d="M0 0h168v81.8H0z"/></defs><clipPath id="SVGID_14_"><use xlink:href="#SVGID_13_" overflow="visible"/></clipPath><path d="M121.1 50.7c0 1.6.9 3 2.4 3s2.4-1.4 2.4-3.1c0-1.5-.8-3-2.4-3-1.6 0-2.4 1.5-2.4 3.1m5.7-.1c0 2.5-1.5 3.9-3.4 3.9-2 0-3.3-1.5-3.3-3.7 0-2.3 1.4-3.9 3.4-3.9s3.3 1.5 3.3 3.7m2.7.1c0 1.6.9 3 2.4 3s2.4-1.4 2.4-3.1c0-1.5-.8-3-2.4-3-1.6 0-2.4 1.5-2.4 3.1m5.7-.1c0 2.5-1.5 3.9-3.4 3.9-2 0-3.3-1.5-3.3-3.7 0-2.3 1.4-3.9 3.4-3.9s3.3 1.5 3.3 3.7" clip-path="url(#SVGID_14_)" fill="#fff"/><path class="st3" d="M138.4 47.8h-2.2V47h5.5v.8h-2.3v6.6h-1z"/><defs><path id="SVGID_15_" d="M0 0h168v81.8H0z"/></defs><clipPath id="SVGID_16_"><use xlink:href="#SVGID_15_" overflow="visible"/></clipPath><path d="M144.3 53.6h.8c1 0 1.9-.4 1.9-1.4 0-1-.9-1.4-1.9-1.4h-.8v2.8zm0-3.5h.9c1 0 1.6-.5 1.6-1.2 0-.9-.6-1.2-1.6-1.2-.4 0-.7 0-.8.1v2.3zm-1-3c.4-.1 1.1-.2 1.7-.2 1 0 1.6.2 2 .5.4.3.6.7.6 1.3 0 .7-.5 1.3-1.2 1.6.7.2 1.5.7 1.5 1.9 0 .6-.3 1.1-.6 1.5-.5.5-1.3.7-2.5.7-.7 0-1.2 0-1.5-.1v-7.2zm10.4 4.2l-.7-2.1c-.2-.5-.3-.9-.4-1.3-.1.4-.2.9-.4 1.3l-.7 2.1h2.2zm-2.4.8l-.8 2.3h-1L152 47h1.1l2.5 7.4h-1l-.8-2.3h-2.5z" clip-path="url(#SVGID_16_)" fill="#fff"/><path class="st3" d="M157.7 47h.9v6.6h3.2v.8h-4.1zm6 0h1v6.6h3.1v.8h-4.1z"/><defs><path id="SVGID_17_" d="M0 0h168v81.8H0z"/></defs><clipPath id="SVGID_18_"><use xlink:href="#SVGID_17_" overflow="visible"/></clipPath><path d="M42.3 62.8c-1.3 0-1.7 1.4-1.7 2.5s.4 2.5 1.7 2.5c1.4 0 1.7-1.3 1.7-2.5s-.3-2.5-1.7-2.5m-2.4-3.2h.7v3.8c.1-.3.7-1.1 1.8-1.1 1.7 0 2.4 1.3 2.4 3.1 0 1.7-.8 3.1-2.4 3.1-.8 0-1.4-.3-1.8-1.1v.9h-.7v-8.7zm10.6 5.3c0-1-.4-2-1.5-2s-1.7 1.1-1.7 2h3.2zm.4 3.2c-.5.2-1.2.3-1.7.3-2 0-2.7-1.3-2.7-3.1s1-3.1 2.5-3.1c1.7 0 2.3 1.3 2.3 2.9v.4h-4c0 1.2.7 2.3 1.9 2.3.5 0 1.3-.2 1.7-.4v.7z" clip-path="url(#SVGID_18_)" fill="#fff"/><path class="st3" d="M53.3 59.6h.7v8.7h-.7zm3.1 8.6h.7v-5.9h-.7v5.9zm0-7.4h.7v-1h-.7v1z"/><defs><path id="SVGID_19_" d="M0 0h168v81.8H0z"/></defs><clipPath id="SVGID_20_"><use xlink:href="#SVGID_19_" overflow="visible"/></clipPath><path d="M63.1 64.9c0-1-.4-2-1.5-2s-1.7 1.1-1.7 2h3.2zm.4 3.2c-.5.2-1.2.3-1.7.3-1.9 0-2.7-1.3-2.7-3.1s1-3.1 2.5-3.1c1.7 0 2.3 1.3 2.3 2.9v.4h-4c0 1.2.7 2.3 1.9 2.3.5 0 1.3-.2 1.7-.4v.7z" clip-path="url(#SVGID_20_)" fill="#fff"/><path class="st3" d="M67.9 68.2H67l-2-5.9h.8l1.7 5.1 1.7-5.1h.8z"/><defs><path id="SVGID_21_" d="M0 0h168v81.8H0z"/></defs><clipPath id="SVGID_22_"><use xlink:href="#SVGID_21_" overflow="visible"/></clipPath><path d="M75.1 64.9c0-1-.4-2-1.5-2s-1.7 1.1-1.7 2h3.2zm.4 3.2c-.5.2-1.2.3-1.7.3-2 0-2.7-1.3-2.7-3.1s1-3.1 2.5-3.1c1.7 0 2.3 1.3 2.3 2.9v.4h-4c0 1.2.7 2.3 1.9 2.3.5 0 1.3-.2 1.7-.4v.7zm13.2-.7c.4.2 1 .4 1.5.4.7 0 1.3-.4 1.3-1.1 0-1.4-2.8-1.2-2.8-2.9 0-1.2.9-1.6 1.9-1.6.3 0 .9.1 1.5.3l-.1.6c-.4-.2-.9-.3-1.3-.3-.8 0-1.3.2-1.3 1 0 1.1 2.9 1 2.9 2.9 0 1.2-1.2 1.7-2.1 1.7-.6 0-1.1-.1-1.7-.3l.2-.7zm8.1-4.4h-1.3v3.8c0 .5.2 1 .8 1 .3 0 .5-.1.7-.1v.6c-.2.1-.5.2-.9.2-1.3 0-1.3-.9-1.3-2V63h-1.2v-.6h1.2V61l.7-.3v1.7h1.3v.6zm1.8.7v-1.3h.7v1.1c.3-.7.8-1.3 1.5-1.3.2 0 .4 0 .5.1v.7c-.2 0-.3-.1-.5-.1-1.2 0-1.5 1.3-1.5 2.4v2.9h-.7v-4.5z" clip-path="url(#SVGID_22_)" fill="#fff"/><path class="st3" d="M103 68.2h.7v-5.9h-.7v5.9zm0-7.4h.7v-1h-.7v1zm5.2 7.4h-.8l-2-5.9h.8l1.6 5.1 1.7-5.1h.8z"/><defs><path id="SVGID_23_" d="M0 0h168v81.8H0z"/></defs><clipPath id="SVGID_24_"><use xlink:href="#SVGID_23_" overflow="visible"/></clipPath><path d="M115.5 64.9c0-1-.4-2-1.5-2s-1.7 1.1-1.7 2h3.2zm.3 3.2c-.5.2-1.2.3-1.7.3-2 0-2.7-1.3-2.7-3.1s1-3.1 2.5-3.1c1.7 0 2.3 1.3 2.3 2.9v.4h-4c0 1.2.7 2.3 1.9 2.3.5 0 1.3-.2 1.7-.4v.7zm17-2.8h-.2c-1.3 0-2.8.1-2.8 1.4 0 .8.6 1.1 1.2 1.1 1.7 0 1.7-1.5 1.7-2.1v-.4zm.1 2c-.3.7-1.2 1.1-1.9 1.1-1.7 0-1.9-1.1-1.9-1.7 0-2 2.1-2.1 3.6-2.1h.1v-.3c0-1-.4-1.5-1.3-1.5-.6 0-1.2.1-1.7.5v-.7c.5-.2 1.2-.4 1.7-.4 1.5 0 2.1.7 2.1 2.2V67c0 .5 0 .8.1 1.2h-.7v-.9zm6.8-4.2c-.4-.2-.9-.3-1.3-.3-1.4 0-2.2 1-2.2 2.5 0 1.3.8 2.5 2.1 2.5.5 0 .9-.1 1.3-.3l.1.7c-.5.2-1 .2-1.5.2-1.9 0-2.8-1.4-2.8-3.1 0-1.8 1.2-3.1 2.9-3.1.7 0 1.2.2 1.4.2v.7zm1.8-3.5h.7v3.8c.3-.6 1-1.1 1.8-1.1 1.6 0 2 1 2 2.5v3.5h-.7v-3.5c0-1-.2-1.9-1.4-1.9-1.3 0-1.7 1.2-1.7 2.3v3.2h-.7v-8.8z" clip-path="url(#SVGID_24_)" fill="#fff"/><path class="st3" d="M148.5 68.2h.7v-5.9h-.7v5.9zm0-7.4h.7v-1h-.7v1z"/><defs><path id="SVGID_25_" d="M0 0h168v81.8H0z"/></defs><clipPath id="SVGID_26_"><use xlink:href="#SVGID_25_" overflow="visible"/></clipPath><path d="M155.2 64.9c0-1-.4-2-1.5-2s-1.7 1.1-1.7 2h3.2zm.4 3.2c-.5.2-1.2.3-1.7.3-1.9 0-2.7-1.3-2.7-3.1s1-3.1 2.5-3.1c1.7 0 2.3 1.3 2.3 2.9v.4h-4c0 1.2.7 2.3 1.9 2.3.5 0 1.3-.2 1.7-.4v.7z" clip-path="url(#SVGID_26_)" fill="#fff"/><path class="st3" d="M160 68.2h-.8l-2-5.9h.8l1.6 5.1 1.7-5.1h.8z"/><g><defs><path id="SVGID_27_" d="M0 0h168v81.8H0z"/></defs><clipPath id="SVGID_28_"><use xlink:href="#SVGID_27_" overflow="visible"/></clipPath><path d="M167.3 64.9c0-1-.4-2-1.5-2s-1.7 1.1-1.7 2h3.2zm.3 3.2c-.5.2-1.2.3-1.7.3-2 0-2.7-1.3-2.7-3.1s1-3.1 2.5-3.1c1.7 0 2.3 1.3 2.3 2.9v.4h-4c0 1.2.7 2.3 1.9 2.3.5 0 1.3-.2 1.7-.4v.7z" clip-path="url(#SVGID_28_)" fill="#fff"/></g><path class="st3" d="M81.8 61.6h.8v7.2h-.8zm40.4 0h.8v7.2h-.8z"/></svg>