<?xml version="1.0" encoding="utf-8"?>
<!-- Generator: Adobe Illustrator 19.0.0, SVG Export Plug-In . SVG Version: 6.00 Build 0)  -->
<svg version="1.1" id="Layer_1" xmlns="http://www.w3.org/2000/svg" xmlns:xlink="http://www.w3.org/1999/xlink" x="0px" y="0px"
	 viewBox="0 0 44.3 44.3" style="enable-background:new 0 0 44.3 44.3;" xml:space="preserve">
<style type="text/css">
	.st0{clip-path:url(#SVGID_2_);fill:#FFFFFF;}
</style>
<g>
	<defs>
		<rect id="SVGID_1_" width="44.3" height="44.3"/>
	</defs>
	<clipPath id="SVGID_2_">
		<use xlink:href="#SVGID_1_"  style="overflow:visible;"/>
	</clipPath>
	<path class="st0" d="M26.3,22.1c0-2.3-1.9-4.2-4.2-4.2c-2.3,0-4.2,1.9-4.2,4.2s1.9,4.2,4.2,4.2C24.4,26.2,26.3,24.4,26.3,22.1
		 M29.5,16.1c0,0.6-0.5,1.1-1.1,1.1c-0.6,0-1.1-0.5-1.1-1.1c0-0.6,0.5-1.1,1.1-1.1C29,15,29.5,15.5,29.5,16.1 M28,22.1
		c0,3.2-2.6,5.8-5.8,5.8c-3.2,0-5.8-2.6-5.8-5.8s2.6-5.8,5.8-5.8C25.4,16.2,28,18.8,28,22.1 M31.7,26.7v-9.1c0,0,0-1.3-0.7-2.6
		c-0.8-1.6-2.3-2.4-4.3-2.4h-9.1c0,0-1.3,0-2.6,0.7c-1.6,0.8-2.4,2.3-2.4,4.3v9.1c0,0,0,1.3,0.7,2.6c0.8,1.6,2.3,2.4,4.3,2.4h9.1
		c0,0,1.3,0,2.6-0.7C30.9,30.2,31.7,28.8,31.7,26.7 M33.4,26.7c0,3.4-1.8,5.1-3.4,5.9c-1.6,0.8-3.2,0.8-3.3,0.8h-9.1
		c-3.4,0-5.1-1.8-5.9-3.4c-0.8-1.6-0.8-3.2-0.8-3.3v-9.1c0-3.4,1.8-5.1,3.4-5.9c1.6-0.8,3.2-0.8,3.3-0.8h9.1c3.4,0,5.1,1.8,5.9,3.4
		c0.8,1.6,0.8,3.2,0.8,3.3V26.7z M44.3,22.1C44.3,9.9,34.4,0,22.1,0C9.9,0,0,9.9,0,22.1c0,12.2,9.9,22.1,22.1,22.1
		C34.4,44.3,44.3,34.4,44.3,22.1"/>
</g>
</svg>
