<?xml version="1.0" encoding="utf-8"?>
<!-- Generator: Adobe Illustrator 19.0.0, SVG Export Plug-In . SVG Version: 6.00 Build 0)  -->
<svg version="1.1" id="Layer_1" xmlns="http://www.w3.org/2000/svg" xmlns:xlink="http://www.w3.org/1999/xlink" x="0px" y="0px"
	 viewBox="0 0 120.3 181" style="enable-background:new 0 0 120.3 181;" xml:space="preserve">
<style type="text/css">
	.st0{fill:#2C9CD7;}
	.st1{fill:#DDDCDB;}
</style>
<g>
	<defs>
		<rect id="SVGID_1_" x="-0.4" y="0" width="251.2" height="181"/>
	</defs>
	<clipPath id="SVGID_2_">
		<use xlink:href="#SVGID_1_"  style="overflow:visible;"/>
	</clipPath>
</g>
<g>
	<defs>
		<rect id="SVGID_3_" x="-0.4" y="0" width="251.2" height="181"/>
	</defs>
	<clipPath id="SVGID_4_">
		<use xlink:href="#SVGID_3_"  style="overflow:visible;"/>
	</clipPath>
</g>
<path id="XMLID_2_" class="st0" d="M83.9,20.6c-0.3,0.6-0.5,1.1-0.8,1.7c-4.6,9.1-8.5,18.4-11.8,28c-3.7,10.5-6.7,21.3-9.3,32.1
	c-2.8,11.5-5.4,23.1-8.2,34.7c-2.2,9.1-4.8,18.2-7.9,27.1c-2.9,8.3-6.1,16.5-10,24.3c-2,3.9-4,7.8-6.1,11.8
	c-0.2,0.3-0.4,0.6-0.8,0.8c0-0.3,0-0.5,0-0.8c1-6.1,2.2-12.2,3.1-18.3c0.6-4.2,1-8.4,1.5-12.7c0.8-6.4,0.6-12.9,0.6-19.4
	c0-5.4-0.7-10.8-2.4-16c-0.9-2.9-2.3-5.6-4.5-7.8c-4.3-4.1-11.6-3.4-15.3,0.8c-3.3,3.8-3.8,9.4-0.5,13.8c0.7,0.9,1.5,1.7,2.3,2.7
	c-0.9-0.4-1.8-0.7-2.6-1.1c-3.7-2-6.7-4.6-8.9-8.3c-1.2-2.1-1.9-4.4-2.4-6.8c-0.7-3.7-0.5-7.3,0.6-10.9c1.1-3.6,3.3-6.4,6.2-8.7
	c3.3-2.7,7.2-4.4,11-6c6.5-2.8,13.2-5.2,19.5-8.4c4.1-2.1,7.9-4.8,11.4-7.8c2.1-1.8,4.2-3.5,6.1-5.5c3.9-4,7.6-8.2,11.1-12.7
	c5.8-7.4,10.9-15.2,15.7-23.2c0.7-1.1,1.3-2.3,2-3.4C83.7,20.5,83.8,20.5,83.9,20.6"/>
<path id="XMLID_3_" class="st1" d="M112.3,0c0,1,0,1.9,0,2.7c0,0.5-0.1,0.9-0.1,1.4c-0.1,2-0.1,4-0.2,5.9c0,0.7,0.2,1.1,0.7,1.6
	c2.4,1.9,4.8,3.8,7.3,5.8c0.2,0.2,0.4,0.3,0.6,0.6c-0.3,0.1-0.5,0.2-0.7,0.2c-3.1,0.7-6.3,1.4-9.4,2.1c-0.6,0.1-0.9,0.4-1.1,0.9
	c-1,2.9-2.1,5.7-3.2,8.6c-0.1,0.1-0.1,0.3-0.3,0.5c-0.2-0.3-0.4-0.5-0.6-0.8c-1.8-2.6-3.5-5.3-5.3-7.9c-0.2-0.3-0.4-0.5-0.6-0.8
	c-3.6-0.3-7.2-0.5-10.9-0.8c0.7-1.2,1.6-2,2.3-2.9c0.7-1,1.6-1.9,2.3-2.8c0.8-0.9,1.6-1.8,2.3-2.9c-1-3.4-2-6.7-3.1-10.3
	c1.4,0.3,2.5,1,3.7,1.4c1.2,0.4,2.3,0.9,3.4,1.4c1.2,0.5,2.3,1,3.5,1.4c0.3-0.1,0.6-0.2,0.8-0.4c2.5-1.6,5-3.1,7.5-4.7
	C111.7,0.3,111.9,0.2,112.3,0"/>
<path id="XMLID_4_" class="st0" d="M37.1,62c-6,0.2-11.7-4.6-11.7-11.8c0-6.5,5.7-11.7,12-11.6c6,0.1,11.6,5.5,11.6,11.9
	C49.1,56.1,44,62.6,37.1,62"/>
</svg>
