<?xml version="1.0" encoding="utf-8"?>
<!-- Generator: Adobe Illustrator 19.0.0, SVG Export Plug-In . SVG Version: 6.00 Build 0)  -->
<svg version="1.1" id="Layer_1" xmlns="http://www.w3.org/2000/svg" xmlns:xlink="http://www.w3.org/1999/xlink" x="0px" y="0px"
	 viewBox="0 0 100.5 114.8" style="enable-background:new 0 0 100.5 114.8;" xml:space="preserve">
<style type="text/css">
	.st0{clip-path:url(#SVGID_2_);fill:#FFFFFF;}
	.st1{fill:#B9B9BA;}
	.st2{fill:#81B9E5;}
	.st3{fill:none;stroke:#B9B9BA;stroke-width:1.483;stroke-miterlimit:10;}
</style>
<g>
	<defs>
		<rect id="SVGID_1_" width="100.5" height="114.8"/>
	</defs>
	<clipPath id="SVGID_2_">
		<use xlink:href="#SVGID_1_"  style="overflow:visible;"/>
	</clipPath>
	<path class="st0" d="M71.7,107l-0.1-15.6l-2-9.1l-2.3,7.5v-9.1l-0.4-4L66.1,80L64,70.1l-2,9.1L50.3,0L39.2,79.5l-1.4-9.6l-1.6,9.7
		l-1-2.2L35,82.6l-0.2,7.3l-2-7.2l-2.2,8.8L30.6,107c5.3,2.4,8.5,4.7,21.1,4.8C60.1,111.8,66.2,109.7,71.7,107"/>
</g>
<polygon class="st1" points="16.3,74.4 17.3,74.4 17.3,81.1 16.3,81.1 16.3,78.1 12.4,78.1 12.4,81.1 11.4,81.1 11.4,74.4 
	12.4,74.4 12.4,77.3 16.3,77.3 "/>
<g>
	<defs>
		<rect id="SVGID_3_" width="100.5" height="114.8"/>
	</defs>
	<clipPath id="SVGID_4_">
		<use xlink:href="#SVGID_3_"  style="overflow:visible;"/>
	</clipPath>
</g>
<polygon class="st1" points="39.7,74.4 40.6,74.4 40.6,81.1 39.7,81.1 39.7,75.9 37.5,78.4 37.4,78.4 35.2,75.9 35.2,81.1 
	34.2,81.1 34.2,74.4 35.2,74.4 37.4,77.1 "/>
<polygon class="st1" points="45.7,74.4 49.6,74.4 49.6,75.2 46.7,75.2 46.7,77.3 49.5,77.3 49.5,78.1 46.7,78.1 46.7,80.2 
	49.7,80.2 49.7,81 45.7,81 "/>
<g>
	<defs>
		<rect id="SVGID_5_" width="100.5" height="114.8"/>
	</defs>
	<clipPath id="SVGID_6_">
		<use xlink:href="#SVGID_5_"  style="overflow:visible;"/>
	</clipPath>
</g>
<path class="st1" d="M68.9,78.2l-1.1-2.4l-1,2.4H68.9z M67.5,74.3h0.7l3.1,6.7h-1l-0.9-2h-2.9l-0.9,2h-1L67.5,74.3z"/>
<g>
	<defs>
		<rect id="SVGID_7_" width="100.5" height="114.8"/>
	</defs>
	<clipPath id="SVGID_8_">
		<use xlink:href="#SVGID_7_"  style="overflow:visible;"/>
	</clipPath>
</g>
<polygon class="st1" points="85.3,74.4 89.2,74.4 89.2,75.2 86.3,75.2 86.3,77.3 89.1,77.3 89.1,78.1 86.3,78.1 86.3,80.2 
	89.3,80.2 89.3,81 85.3,81 "/>
<g>
	<defs>
		<rect id="SVGID_9_" width="100.5" height="114.8"/>
	</defs>
	<clipPath id="SVGID_10_">
		<use xlink:href="#SVGID_9_"  style="overflow:visible;"/>
	</clipPath>
</g>
<rect x="48.4" y="48.6" class="st2" width="4.1" height="22.7"/>
<g>
	<defs>
		<rect id="SVGID_11_" width="100.5" height="114.8"/>
	</defs>
	<clipPath id="SVGID_12_">
		<use xlink:href="#SVGID_11_"  style="overflow:visible;"/>
	</clipPath>
</g>
<polygon class="st2" points="76.9,48.6 89.4,48.6 88.3,52.1 81,52.1 81,58 88.3,58 88.3,61.5 81,61.5 81,67.7 89.4,67.7 89.4,71.2 
	76.9,71.2 "/>
<path id="XMLID_2_" class="st1" d="M25.8,75.2c-0.8,0-1.4,0.2-1.9,0.7c-0.5,0.5-0.8,1.1-0.8,1.8c0,0.7,0.3,1.3,0.8,1.8
	c0.5,0.5,1.1,0.7,1.9,0.7c0.8,0,1.4-0.2,1.9-0.7c0.5-0.5,0.8-1.1,0.8-1.8c0-0.7-0.3-1.3-0.8-1.8C27.2,75.4,26.5,75.2,25.8,75.2
	 M25.7,74.3c1.1,0,2,0.3,2.7,1c0.7,0.7,1.1,1.5,1.1,2.5s-0.4,1.8-1.1,2.4c-0.7,0.6-1.6,1-2.7,1c-1,0-1.9-0.3-2.6-1
	c-0.7-0.6-1-1.5-1-2.4c0-1,0.3-1.8,1-2.5C23.8,74.6,24.7,74.3,25.7,74.3"/>
<path id="XMLID_5_" class="st1" d="M60.3,79.5v1.1c-0.7,0.4-1.6,0.6-2.5,0.6c-0.8,0-1.4-0.1-2-0.4c-0.5-0.3-1-0.7-1.3-1.2
	c-0.3-0.5-0.5-1.1-0.5-1.7c0-1,0.4-1.8,1.1-2.5c0.7-0.7,1.6-1,2.6-1c0.7,0,1.5,0.2,2.4,0.6v1c-0.8-0.4-1.6-0.7-2.4-0.7
	c-0.8,0-1.4,0.2-2,0.7c-0.5,0.5-0.8,1.1-0.8,1.8c0,0.7,0.3,1.3,0.8,1.8c0.5,0.5,1.2,0.7,2,0.7C58.6,80.3,59.5,80,60.3,79.5"/>
<path id="XMLID_6_" class="st1" d="M76.9,75.2h-0.3v2.1H77c0.5,0,0.8,0,1-0.1c0.2-0.1,0.3-0.2,0.4-0.4c0.1-0.2,0.2-0.4,0.2-0.6
	c0-0.2-0.1-0.4-0.2-0.6c-0.1-0.2-0.3-0.3-0.5-0.4C77.7,75.2,77.4,75.2,76.9,75.2 M75.6,81.1v-6.7h1.7c0.7,0,1.3,0.2,1.7,0.5
	c0.4,0.3,0.6,0.8,0.6,1.4c0,0.4-0.1,0.7-0.3,1c-0.2,0.3-0.5,0.5-0.9,0.6c0.2,0.1,0.4,0.3,0.6,0.6c0.2,0.2,0.5,0.7,0.9,1.3
	c0.2,0.4,0.4,0.7,0.6,0.9l0.4,0.5h-1.2l-0.3-0.4c0,0,0,0-0.1-0.1l-0.2-0.3l-0.3-0.5l-0.3-0.5c-0.2-0.3-0.4-0.5-0.6-0.7
	c-0.2-0.2-0.3-0.3-0.5-0.4s-0.4-0.1-0.7-0.1h-0.3v2.9H75.6z"/>
<path id="XMLID_64_" class="st2" d="M13.2,66.4c1.3,0.9,3.1,1.7,5.1,1.7c1.9,0,3.8-0.7,3.8-2.7c0-4.4-9.8-3.9-9.8-10.8
	c0-3.3,2.6-6.3,7.4-6.3c2.3,0,4.3,0.5,5.5,1.1v3.8c-1.8-0.9-3.6-1.4-5.4-1.4c-1.6,0-3.1,0.6-3.1,2.4c0,4.2,9.8,3.6,9.8,10.8
	c0,4-3.4,6.5-8.1,6.5c-2.6,0-5.1-0.8-6.8-2L13.2,66.4z"/>
<path id="XMLID_61_" class="st2" d="M35.7,60c1.1,0,2-0.2,2.6-0.5c1.3-0.6,1.9-1.9,1.9-3.5c0-1.5-0.6-2.8-1.8-3.5
	c-0.7-0.4-1.6-0.6-2.8-0.6h-1.2V60H35.7z M30.3,48.6h5.5c2.1,0,3.8,0.3,5.1,1c2.3,1.2,3.7,3.4,3.7,6.5c0,2.6-1.1,5.3-4.3,6.6
	c-1.2,0.5-2.8,0.8-4.8,0.8h-1v7.8h-4.1V48.6z"/>
<path id="XMLID_65_" class="st2" d="M63.3,59c1.1,0,1.8-0.2,2.5-0.6c1-0.5,1.6-1.6,1.6-3c0-1.2-0.5-2.3-1.5-2.9
	c-0.5-0.4-1.3-0.7-2.5-0.7h-1.9V59H63.3z M57.3,48.6h6.2c2.1,0,3.6,0.3,4.9,0.9c2.4,1.1,3.4,3.2,3.4,5.5c0,3-1.8,5-4.4,5.8v0.1
	c0.7,0.4,1.6,1.6,2.8,3.7l3.8,6.6h-4.7l-3.3-5.7c-1.1-2-1.9-3-2.5-3.1h-2v8.8h-4.1V48.6z"/>
<path id="XMLID_68_" class="st1" d="M56,16.7c23.3,2.4,41.8,22.7,41.8,47.6c0,26.4-21.3,47.8-47.5,47.8S2.7,90.7,2.7,64.3
	c0-25,18.5-45.6,42.3-47.9l0.3-1.7c-25,2.5-44.6,23.8-44.6,49.6c0,27.5,22.2,49.8,49.5,49.8c27.3,0,49.5-22.3,49.5-49.8
	c0-25.6-19.5-47-44-49.5L56,16.7z"/>
<path id="XMLID_69_" class="st3" d="M56,16.7c23.3,2.4,41.8,22.7,41.8,47.6c0,26.4-21.3,47.8-47.5,47.8S2.7,90.7,2.7,64.3
	c0-25,18.5-45.6,42.3-47.9l0.3-1.7c-25,2.5-44.6,23.8-44.6,49.6c0,27.5,22.2,49.8,49.5,49.8c27.3,0,49.5-22.3,49.5-49.8
	c0-25.6-19.5-47-44-49.5L56,16.7z"/>
</svg>
