<?xml version="1.0" encoding="utf-8"?>
<!-- Generator: Adobe Illustrator 19.0.0, SVG Export Plug-In . SVG Version: 6.00 Build 0)  -->
<svg version="1.1" id="Layer_1" xmlns="http://www.w3.org/2000/svg" xmlns:xlink="http://www.w3.org/1999/xlink" x="0px" y="0px"
	 viewBox="0 0 410 619.2" style="enable-background:new 0 0 410 619.2;" xml:space="preserve">
<style type="text/css">
	.st0{clip-path:url(#XMLID_59_);fill:#5F5344;}
</style>
<g>
	<defs>
		<rect id="XMLID_1_" width="410" height="619.2"/>
	</defs>
	<clipPath id="XMLID_59_">
		<use xlink:href="#XMLID_1_"  style="overflow:visible;"/>
	</clipPath>
	<path class="st0" d="M110.7,305.2c-5.5-3.6-10.5-7.1-14.6-10.3c-25.3-20.1-43.9-46.4-56.9-80.3c-2.4-6.2-4.1-13.9-5.1-22.1
		c3.5,1.9,7.2,4,10.7,6.5c10.7,7.5,19.6,17.1,27.7,26.3c21,24.1,36.4,54.8,40.2,79.1C112.9,305.4,111.6,305.8,110.7,305.2
		 M198,199.3c-6.1-8.9-11.3-17.9-14.6-33.8c-3.3-15.8-1.7-40.2,4.5-68.9l0.4-1.9c3.3-15.6,6.4-27.5,9.2-36.7
		c15.7,52.3,16.6,98.6,2.5,141C199.7,199.9,198.6,200,198,199.3 M292.2,303.4c0.1-2.9,0.2-5.5,0.5-7.8c4.1-34.6,32-64.1,56.2-76.8
		c6.9-3.6,14.3-7.5,21.9-10.8c-2.2,6.5-4.6,13.2-7.5,19.8c-9,21.3-20.6,37.8-35.5,50.5c-11,9.4-22,17.8-33.4,26.3
		C293.4,305.4,292.1,304.6,292.2,303.4 M212.2,583.7c-2.9-22.1-1.7-44.2-2.7-66.4c-0.8-16.6,0.1-46.9,5-63.6
		c1.5-4.9,4-12.1,6.6-17.1c7.5-14.4,20.3-41.8,31.7-55.2c4.1-4.7,10.6-11.3,16.1-15.8c27.6-22.2,53.9-39.3,80.5-62.1
		c20.6-17.5,34.7-39.4,44.6-62.9c5.8-13.8,10.4-28,14.6-42.2c3.2-11.1,1.8-31.6-12.2-31.7c-0.6,0-1.2,0-1.9,0.1
		c-22.7,2.5-43,13-60.9,22.3c-34.1,17.9-68.5,56.4-73.9,102.5c-1.6,13.6,0.3,28.8-4,41.8c-3.9,11.8-12.4,22.7-20.5,34.8
		c-3.1,4.5-16,27-22.1,27c-0.3,0-0.6-0.1-0.9-0.2c-4.6-2-1.8-34.2-1.4-39c1.2-14.9,2.2-30.9,1.8-45.8c-0.3-15.7,0.9-31.6,1.3-42.8
		c0.7-17,5.4-27.4,10.1-38.1c26.9-61.6,23.2-124.6,3.9-186C224.2,31.9,213,0.1,197.5,0c-0.3,0-0.7,0-1,0.1
		c-3.9,0.3-7.5,2.6-10.9,6.2c-16.7,17.9-27.2,69.2-30.2,83.5c-5.5,25.5-9.7,57.9-4.5,82.7c9.1,43.3,30.9,52.8,37.4,76.6
		c5,18.4,3.5,39,3.1,63c-0.2,12.6-0.9,24.3-2,38.6c-0.1,1.8-1.4,36-2.8,36.8c-0.2,0.1-0.5,0.2-0.8,0.2c-5.6,0-22.1-20.1-26.4-26.4
		c-7.6-10.9-11.2-18.2-13.2-27.3c-1.5-7.1,0.9-15.2,0.7-22c-1.4-37.3-23.7-79.5-49.2-108.6c-8.7-10-19.6-21.8-33.7-31.7
		c-11.5-8.1-32-18.9-46.6-19.1C8,152.6,1,156.9,0.2,169.3c-1.2,19.7,1.8,41.3,8,57.2c13.8,36,34.9,68.8,67.3,94.5
		c14.8,11.8,36.3,23.3,51.3,36.2c19.6,17,34.6,39.5,47,61c4.2,7.4,8.5,17.7,9.4,24.1c1.8,13.2,4.3,29,4.7,44.5
		c0.7,27.1,0.4,54.3-0.2,81.5c-0.2,10-7,50.7,12.8,50.9h0.1C218.1,619.2,213.4,593,212.2,583.7"/>
</g>
</svg>
