<?xml version="1.0" encoding="utf-8"?>
<!-- Generator: Adobe Illustrator 19.0.0, SVG Export Plug-In . SVG Version: 6.00 Build 0)  -->
<svg version="1.1" id="Layer_1" xmlns="http://www.w3.org/2000/svg" xmlns:xlink="http://www.w3.org/1999/xlink" x="0px" y="0px"
	 viewBox="0 0 89 89" style="enable-background:new 0 0 89 89;" xml:space="preserve">
<style type="text/css">
	.st0{clip-path:url(#XMLID_119_);fill:#FAC425;}
	.st1{clip-path:url(#XMLID_119_);fill:#FFE474;}
	.st2{clip-path:url(#XMLID_119_);fill:#FFFFFF;}
	.st3{clip-path:url(#XMLID_119_);fill:#E67340;}
	.st4{clip-path:url(#XMLID_119_);fill:#E75025;}
</style>
<g id="XMLID_117_">
	<defs>
		<rect id="XMLID_114_" width="89" height="89"/>
	</defs>
	<clipPath id="XMLID_116_">
		<use xlink:href="#XMLID_114_"  style="overflow:visible;"/>
	</clipPath>
</g>
<g id="XMLID_118_">
	<defs>
		<circle id="XMLID_105_" cx="44.5" cy="44.5" r="44.5"/>
	</defs>
	<clipPath id="XMLID_119_">
		<use xlink:href="#XMLID_105_"  style="overflow:visible;"/>
	</clipPath>
	<path id="XMLID_113_" class="st0" d="M58.2,52.2V26.5c0-0.5-0.4-1-1-1H22.9c-0.5,0-1,0.4-1,1v34.4c0,2.6,2.1,4.8,4.8,4.8h22.9
		c0.5,0,1-0.4,1-1c0-0.5-0.4-1-1-1c-1.6,0-2.9-1.3-2.9-2.9v-6.7L58.2,52.2z"/>
	<path id="XMLID_112_" class="st1" d="M35.3,31.2c0,1.6-1.3,2.9-2.9,2.9c-1.6,0-2.9-1.3-2.9-2.9c0-1.6,1.3-2.9,2.9-2.9
		C34,28.4,35.3,29.7,35.3,31.2"/>
	<path id="XMLID_111_" class="st1" d="M50.6,31.2c0,1.6-1.3,2.9-2.9,2.9s-2.9-1.3-2.9-2.9c0-1.6,1.3-2.9,2.9-2.9
		S50.6,29.7,50.6,31.2"/>
	<path id="XMLID_110_" class="st2" d="M47.7,32.7c-0.8,0-1.4-0.6-1.4-1.4v-4.8c0-3.4-2.8-6.2-6.2-6.2c-3.4,0-6.2,2.8-6.2,6.2v4.8
		c0,0.8-0.6,1.4-1.4,1.4c-0.8,0-1.4-0.6-1.4-1.4v-4.8c0-5,4.1-9.1,9.1-9.1s9.1,4.1,9.1,9.1v4.8C49.1,32,48.5,32.7,47.7,32.7"/>
	<path id="XMLID_109_" class="st3" d="M68.7,38.9H45.8c-0.5,0-1,0.4-1,1v21c0,2.6,2.1,4.8,4.8,4.8h15.3c2.6,0,4.8-2.1,4.8-4.8v-21
		C69.7,39.3,69.2,38.9,68.7,38.9"/>
	<path id="XMLID_108_" class="st4" d="M54.9,42.9c0,1.3-1.1,2.4-2.4,2.4c-1.3,0-2.4-1.1-2.4-2.4c0-1.3,1.1-2.4,2.4-2.4
		C53.8,40.5,54.9,41.5,54.9,42.9"/>
	<path id="XMLID_107_" class="st4" d="M64.4,42.9c0,1.3-1.1,2.4-2.4,2.4c-1.3,0-2.4-1.1-2.4-2.4c0-1.3,1.1-2.4,2.4-2.4
		C63.3,40.5,64.4,41.5,64.4,42.9"/>
	<path id="XMLID_106_" class="st2" d="M57.2,33.7c-3.3,0-6,2.7-6,6v3.2c0,0.7,0.5,1.2,1.2,1.2c0.7,0,1.2-0.5,1.2-1.2v-3.2
		c0-2,1.6-3.6,3.6-3.6c2,0,3.6,1.6,3.6,3.6v3.2c0,0.7,0.5,1.2,1.2,1.2c0.7,0,1.2-0.5,1.2-1.2v-3.2C63.2,36.4,60.5,33.7,57.2,33.7"/>
</g>
</svg>
