<?xml version="1.0" encoding="utf-8"?>
<!-- Generator: Adobe Illustrator 19.0.0, SVG Export Plug-In . SVG Version: 6.00 Build 0)  -->
<svg version="1.1" id="Layer_1" xmlns="http://www.w3.org/2000/svg" xmlns:xlink="http://www.w3.org/1999/xlink" x="0px" y="0px"
	 viewBox="393 -545.8 1398.1 1882.8" style="enable-background:new 393 -545.8 1398.1 1882.8;" xml:space="preserve">
<style type="text/css">
	.st0{clip-path:url(#SVGID_2_);fill:url(#XMLID_2_);}
	.st1{clip-path:url(#SVGID_4_);fill:#AFC2DE;}
	.st2{clip-path:url(#SVGID_6_);fill:#B8D3E5;}
	.st3{clip-path:url(#SVGID_8_);fill:#B6DEBF;}
	.st4{clip-path:url(#SVGID_10_);fill:#A0B8D8;}
	.st5{clip-path:url(#SVGID_12_);fill:#CDDBD7;}
	.st6{clip-path:url(#SVGID_14_);fill:#859FA6;}
	.st7{clip-path:url(#SVGID_16_);fill:#87A8CF;}
	.st8{clip-path:url(#SVGID_18_);fill:#668A91;}
	.st9{clip-path:url(#SVGID_20_);fill:#C1E1BB;}
	.st10{clip-path:url(#SVGID_22_);fill:#8EA593;}
	.st11{clip-path:url(#SVGID_24_);fill:#FFFAC0;}
	.st12{clip-path:url(#SVGID_26_);fill:#708F77;}
	.st13{clip-path:url(#SVGID_28_);fill:#668A91;}
	.st14{clip-path:url(#SVGID_30_);fill:#A0D39E;}
	.st15{clip-path:url(#SVGID_32_);fill:#537B60;}
	.st16{clip-path:url(#SVGID_34_);fill:#65876E;}
	.st17{clip-path:url(#SVGID_36_);fill:#73917A;}
	.st18{clip-path:url(#SVGID_38_);fill:#65876E;}
	.st19{clip-path:url(#SVGID_40_);fill:#A1C46A;}
	.st20{clip-path:url(#SVGID_42_);fill:#D8D981;}
	.st21{clip-path:url(#SVGID_44_);fill:#B6CAA7;}
	.st22{clip-path:url(#SVGID_46_);fill:#C0D083;}
	.st23{clip-path:url(#SVGID_48_);fill:#537B60;}
	.st24{clip-path:url(#SVGID_50_);fill:#537B60;}
	.st25{clip-path:url(#SVGID_52_);fill:#537B60;}
	.st26{clip-path:url(#SVGID_54_);fill:#66886F;}
	.st27{clip-path:url(#SVGID_56_);fill:#66886F;}
	.st28{clip-path:url(#SVGID_58_);fill:#537B60;}
	.st29{clip-path:url(#SVGID_60_);fill:#66886F;}
	.st30{clip-path:url(#SVGID_62_);fill:#537B60;}
	.st31{clip-path:url(#SVGID_64_);fill:#46893D;}
	.st32{clip-path:url(#SVGID_66_);fill:#485F45;}
	.st33{clip-path:url(#SVGID_68_);fill:#485F45;}
	.st34{clip-path:url(#SVGID_70_);fill:#3A7761;}
	.st35{clip-path:url(#SVGID_72_);fill:#3F6B49;}
	.st36{clip-path:url(#SVGID_74_);fill:#537B60;}
	.st37{clip-path:url(#SVGID_76_);fill:#73B276;}
	.st38{clip-path:url(#SVGID_78_);fill:#A4D38C;}
	.st39{clip-path:url(#SVGID_80_);fill:#546C50;}
	.st40{clip-path:url(#SVGID_82_);fill:#66886F;}
	.st41{clip-path:url(#SVGID_84_);fill:#478A69;}
	.st42{clip-path:url(#SVGID_86_);fill:url(#XMLID_3_);}
	.st43{clip-path:url(#SVGID_88_);fill:#3F6B49;}
	.st44{clip-path:url(#SVGID_90_);fill:#658060;}
	.st45{clip-path:url(#SVGID_92_);fill:#708F77;}
	.st46{clip-path:url(#SVGID_94_);fill:url(#XMLID_4_);}
	.st47{clip-path:url(#SVGID_96_);fill:url(#XMLID_5_);}
	.st48{clip-path:url(#SVGID_98_);fill:url(#XMLID_6_);}
	.st49{fill:#586F31;}
</style>
<g>
	<g>
		<defs>
			<rect id="SVGID_1_" x="390.3" y="-545.8" width="1400.8" height="1963.8"/>
		</defs>
		<clipPath id="SVGID_2_">
			<use xlink:href="#SVGID_1_"  style="overflow:visible;"/>
		</clipPath>
		
			<linearGradient id="XMLID_2_" gradientUnits="userSpaceOnUse" x1="1179.3064" y1="-587.6119" x2="1180.3064" y2="-587.6119" gradientTransform="matrix(0 -1484.755 1411.1499 0 830299.125 1752733.625)">
			<stop  offset="0" style="stop-color:#FFFFFF"/>
			<stop  offset="1" style="stop-color:#AAE1FA"/>
		</linearGradient>
		<rect id="XMLID_161_" x="390.3" y="-545.8" class="st0" width="1400.8" height="1963.8"/>
	</g>
</g>
<g>
	<g>
		<defs>
			<rect id="SVGID_3_" x="390.3" y="-545.8" width="1400.8" height="1963.8"/>
		</defs>
		<clipPath id="SVGID_4_">
			<use xlink:href="#SVGID_3_"  style="overflow:visible;"/>
		</clipPath>
		<path id="XMLID_159_" class="st1" d="M1443.3,1209.7c12.6-2,26.2-0.2,37.6-3.3c9-2.4,18.1,2.1,27.4,1.5c14-0.9,25.1,3.6,36.8-3
			c8.5,2,13.9,11,21.1,13.2c4,1.3,13.1-0.9,17-2.2c2.3-0.7,4.1-2.6,6.4-3.1c6.2-1.4,13.1,1.4,19.3,1.2c3.4-0.1,6.6-0.7,10-0.5
			c6.6,0.3,12.1,2,13.7-6.9c6.3-1.8,12.1,8.7,17.9,3.6c2.5-2.2,2.4-9.2,4-12.4c1.3-0.1,2.5,0.1,3.6,0.8c1.6,4.7,2.3,16.3,7.4,8.1
			c2.5-4,2.9-11.9,3.1-16.6c5.9-1.4,3.9,5.2,4.5,8.5c1.1,5.2,4.6,7,4.9,12.4c4.5,0.5,9.6-0.6,13.9-1.4c8.4-1.6,16.9,0.6,25.7-0.1
			c0.5-7.5,14.6-1.9,19.1-2.2c4.5-0.3,8-2.6,12.5-3.2c2.3-0.3,6.7,1.1,8.8,0.1c1.5-0.7,1.6-2.5,2.9-3.2c5.7-2.8,11.7-4.9,18.5-2.3
			c4.8,1.9,7.5,6.1,11.9,7.9v46.7c-33.1,0.2-66.1,0.7-99.2,0.7c-32.8,0-65.2-2.6-97.9-3.7c-39.4-1.2-78-8.6-117-13.6
			c-15.3-2-30.6-4.8-45.8-7.7c-7.3-1.4-18.1-2-24.5-6.2c-2.9-1.9-6.5-5.1-6.9-8.5C1412.5,1209,1429.7,1211.9,1443.3,1209.7"/>
	</g>
	<g>
		<defs>
			<rect id="SVGID_5_" x="390.3" y="-545.8" width="1400.8" height="1963.8"/>
		</defs>
		<clipPath id="SVGID_6_">
			<use xlink:href="#SVGID_5_"  style="overflow:visible;"/>
		</clipPath>
		<path id="XMLID_158_" class="st2" d="M1600.5,1223.5c29.6,0,59.3-3.1,89.1-3.1c33.9,0,67.7-2.9,101.5-3.1v32.1
			c-12-0.9-24.7-3.8-36-4.1c-51.9-1-103.7-4.9-155.6-8.2c-58.4-3.6-115.7-5.1-172.4-20.5C1484.6,1212,1543,1223.5,1600.5,1223.5"/>
	</g>
	<g>
		<defs>
			<rect id="SVGID_7_" x="390.3" y="-545.8" width="1400.8" height="1963.8"/>
		</defs>
		<clipPath id="SVGID_8_">
			<use xlink:href="#SVGID_7_"  style="overflow:visible;"/>
		</clipPath>
		<rect id="XMLID_157_" x="390.3" y="1247.2" class="st3" width="1400.8" height="170.8"/>
	</g>
	<g>
		<defs>
			<rect id="SVGID_9_" x="390.3" y="-545.8" width="1400.8" height="1963.8"/>
		</defs>
		<clipPath id="SVGID_10_">
			<use xlink:href="#SVGID_9_"  style="overflow:visible;"/>
		</clipPath>
		<path id="XMLID_156_" class="st4" d="M874.2,1196.8c-8.2-0.5-17.4-1.2-25.4-1.1c-3.6,0-6.9,1.3-10.6,1.1c-2.3-0.1-4.4-0.7-6.7-0.6
			c-3.7,0.3-6.6,2.5-10.4,2.7c-7.4,0.5-15-2.4-22.6-2.2c-5,0.1-8.9,0-13.9-0.6c-5.1-0.6-10.6,0.9-15.7,0.1c-4.1-0.7-7-3.3-11.5-2.6
			c-3.6,0.5-6.5,2.9-10.1,3.2c-2.1,0.2-4.2-0.4-6.2-0.6c-3.1-0.2-6.1,0.1-9.1,0.6c-9.4,1.7-18.4-2.1-27.6,0.6
			c-4.5,1.3-7.6,0.7-12,0.1c-5.7-0.7-11.5,0.2-17.2-0.3c-4.7-0.4-9.2-1.7-13.9-2c-17.4-1.1-34.9-1.5-52.3-1.7
			c-10.5-0.1-20.8-1.5-31.5-1c-7.2,0.3-14.4,1.3-21.4,0.4c-11.1-1.4-22.9-1.2-34.1-1.1c-5.4,0.1-10.9,0.4-16.4,0.6
			c-4.9,0.2-7.3-0.1-11.8-1c-4.2-0.8-8.1,1.2-12.1,1.1c-1.6-0.1-3.3-1.2-5-1.6c-3.2-0.6-6.8-0.4-10-0.8c-4.7-0.6-9.2-1-13.9-1.8
			c-5.4-1-10.2,2.3-16.3,2.5c-8.4,0.2-16.4-0.5-24.4-0.5c-3.9,0-6.1-1.6-9.8-2.1c-4.5-0.6-7.6,1.8-11.9,3.1v19.2
			c9.2,0.9,16.6,2.2,25.6,5.5c18.4,6.8,38.7,7.8,58.2,9.1c35.1,2.3,70.3,1.8,105.1,6.9c35.7,5.2,70.6,3.8,106.3,1.2
			c22.6-1.6,45.5-3.8,68.2-4.3c19.1-0.4,37.7-2.4,56.7-3.4c18.7-1,42.2,1.4,59.6-7.5C879.6,1213.2,890.9,1197.9,874.2,1196.8"/>
	</g>
	<g>
		<defs>
			<rect id="SVGID_11_" x="390.3" y="-545.8" width="1400.8" height="1963.8"/>
		</defs>
		<clipPath id="SVGID_12_">
			<use xlink:href="#SVGID_11_"  style="overflow:visible;"/>
		</clipPath>
		<path id="XMLID_155_" class="st5" d="M809.7,1205c-15.6-0.3-31.2-2.4-46.9-2.4c-5.7,0-11.2,0.9-16.8,1c-5,0-9.8-0.5-14.8-0.5
			c-7.8,0-15.5,0.5-23.3,0.5c-6.2,0-12.2-0.4-18.3-1.1c-2.8-0.3-8.7,0.1-10.8-2.2l-4.7,4c2.2,2.9,3.9,5.6,7.6,7.3
			c4,1.9,8.3,2.7,12.5,3.6c2.7,0.6,5.4,1.7,8.1,2.2c3.8,0.7,8,0.2,11.8,0c5.5-0.2,11.1-0.2,16.6-0.3c15.7-0.4,31.5,0,47.2,0.1
			c5.3,0,10.6,0.3,15.8-0.6c4.6-0.8,9.9-1.3,14.3-2.9c2.3-0.9,7.3-3.3,7.6-6C816,1204.9,811.7,1205,809.7,1205"/>
	</g>
	<g>
		<defs>
			<rect id="SVGID_13_" x="390.3" y="-545.8" width="1400.8" height="1963.8"/>
		</defs>
		<clipPath id="SVGID_14_">
			<use xlink:href="#SVGID_13_"  style="overflow:visible;"/>
		</clipPath>
		<path id="XMLID_154_" class="st6" d="M1066.4,1200.3c-0.4-6-10.1-2.7-12.3-7.8c-1.4-3.3,1.1-7.9-1.8-10.9
			c-3.2-3.3-9.1-1.4-12.7-0.4c-3.9,1.1-6.7-0.7-10.4,0c-1.9,0.4-4,2.2-5.6,3.1c-5.8,3.5-5,2.7-5.7,8.6c-0.6,5.6-3.4,5.3-7.9,5.2
			c-4.1-0.1-4.4,1.4-7.6,3.4c-1.8,1.1-3.8,1.6-5.3-0.8c-1.2-1.9,0-4.1-0.5-6.1c-0.7-2.9-3.9-4.3-4.5-7.1c0-0.2,0-0.4,0-0.5
			c-4.3-1.8-10.1-1.6-14.2-0.5c-0.3,0.1-0.5,0.1-0.8,0.2c-0.1,0.6-0.2,1.2-0.2,2c0,2.9,0.6,2.9-1.3,4.8c-2.2,2.2-6.3,4.5-8.4,6.3
			c-1.4,1.2-3.3,1.8-4.8,2.9c-2,1.4-2.1,3-3.5,4.6c-1.6,1.9-7.4,3.7-6.9-1.3c0.4-4.4,8-1.9,5.8-7.4c-2.1-5.1-7.2-4.4-10.9-3
			c-3.3,1.2-7.9,2.2-7,6.9c1.2,0.6,1.9,1.1,3.4,1.4c-0.4,2.6-10.1-0.3-12.3-1.4c-2.6-1.3-2.3-3.2-4.3-5.2c-2-2.1-4-1-6.2-2.7
			c-3-2.3-1.8-3.5-5.9-2.4c-3.8,1.1-3.4,1.8-5.7-1.8c-2.7-4.3-8-8.5-9.7-1c-2.1-1.5-3.5-3.7-4.8-5.6c-1.2-1.7,0.4-2.4-2.6-2.2
			c-1.3,0.1-1.8,0.4-2.7,1.3c-3.1,3.1-3.4,8.8-4.7,12.6c-3.9,0.2-14.6-0.3-13.9,5.7c-4.2,0.3-8.4,5.3-12.5,5.3
			c-5-0.1-8.6-5.8-14.3-4.8c-2.2,0.4-4.3,2.6-6.3,2.6c-2.2,0.1-4.8-1.6-7.2-1.7c-5.3-0.3-6.2,0.8-10.6,2.2
			c-5.2,1.8-8.7-0.3-13.9-0.5c-5-0.2-9.4,1.6-14.3,0.1c-4.1-1.3-7.6-4.1-12.3-3.1c-4.4,1-6.3,4.4-9.5,6.9c-2.9,2.3-6.2,1.6-9.6,1.8
			c-2.5,0.1-5.3,1.2-7.6,1.2c-5.4,0.1-9-5.7-13.7-8c-5-2.4-10.7,1.2-15.8,0.6c-3-0.3-8.8,1.6-11.3,0.4c-1.6-0.8-2.5-3.8-4.1-5.1
			c-3.5-2.9-9.7-4.7-14.1-3.1c-2.9,1.1-4,4.2-7,5.2s-8,0.6-11.1,0.4c-4.1-0.2-7.9-0.3-12-0.1c-2.1,0.1-4.2-0.1-6.2,0.5
			c-3.4,1-5.8,3.1-9.5,3.2c-5.3,0.1-10.8-3.9-15.8-2.1c-0.8,0.3-1.2,1.4-1.9,1.8c-1.2,0.6-2.7,0.6-4,0.8c-8.5,1.8-16,2.1-24.8,2.1
			c-3.3,0-7.2,0.5-10.4-0.2c-4-0.8-7.2-3.6-10.9-5.1c-7.9-3.3-15.1,0.4-23-0.9c-6.4-1.1-11.6-4.1-18.3-2.6c-8.4,1.8-19,9.7-27.8,5.4
			c-1.6-0.8-2.7-2.3-4.4-3.2c-4.2-2-9.9-1.7-14.3-0.7c-2.4,0.5-8.4,2.7-9.9,5.1c-2.6-2.4-10.1-5.5-13.5-3.5c-2.7,1.6,0,5.3-2,7.4
			c-2.3,2.3-5-0.6-7.5-0.9c-5.1-0.4-12.4,3-17.4,0.9c-2.1-0.9-2.8-3.8-5.4-4.7c-3.2-1.2-6.3,0.5-8.1,3c-1.4,2-1.5,4.3-4,5.1
			c-2.6,0.9-3.9-1.1-6.2-1.6c-2.6-0.5-8.6,1.2-9.9-2.2c-1.4-3.5,3.8-6.9-1.2-10c-2-1.2-7.2-1.7-9.2-0.1c-1.7,1.4-0.9,2.2-1.5,4.1
			c-0.8,2.5-1.8,2.5-0.9,4.8c0.6,1.7,2.4,1,1.8,3.2c-2.4-0.1-4.5-0.5-6.3,0.2v16c2,0.3,4.1,0.4,5.1,0.5c10.6,1.3,21.3,2.8,32,3.4
			c25.7,1.5,51.7,1.6,77.4,0.2c16.6-0.9,33.1-2.7,49.7-2.8c13.8-0.1,27.5,0.1,41.3,0.1c31.7-0.2,63.6-1.1,95.2-2.1
			c27.8-0.9,55.7-3.2,83.5-5c19.1-1.3,38.5-1.7,57.5-3.7c13.9-1.4,28.6-0.2,42.6-0.3c14.5-0.1,29-0.2,43.5-0.3
			c28.7-0.2,57.4-0.4,86.2-0.4c11.2,0,22.5,0.5,33.7-0.3c4.3-0.3,5.5-0.5,8.3-2.7c3-2.4,5-3,9-3.5c2.5-0.3,3.6,0.4,4.8-2.2
			c1.7-3.7-0.7-2.4,3.2-4.3C1065.2,1202.9,1066.6,1203,1066.4,1200.3"/>
	</g>
	<g>
		<defs>
			<rect id="SVGID_15_" x="390.3" y="-545.8" width="1400.8" height="1963.8"/>
		</defs>
		<clipPath id="SVGID_16_">
			<use xlink:href="#SVGID_15_"  style="overflow:visible;"/>
		</clipPath>
		<path id="XMLID_153_" class="st7" d="M1791.1,1238.9c-0.4-2.4-5.3-5.4-7.1-7.1c-1.2-1.2-3-1.5-4.3-2.5c-1.9-1.4-2.9-3.3-5-4.5
			c-4.9-2.8-11.3,0.9-15.8-1.7c-2.4-1.4-1.8-3-4.8-3.4c-6.2-0.7-2.8,2.7-4.9,5.4c-0.4,0.5-2,0.8-2.6,1.2c-1.3,0.9-2.4,2.3-3.8,3.1
			c-2.5,1.4-4.4,0.8-7.1,0.7c-4.9-0.1-9.7,0.5-14.6,0.1c-3.9-0.4-7.8-1.9-11.7-1.7c-4.7,0.3-9,1.9-13.8,1.9c-5,0-8.8-1-13.4-2.7
			c-7.3-2.7-14-2.6-21.8-2c-6.4,0.4-12.8,1-19.2,1.4c-2.7,0.2-5.6,0.1-8.3,0.6c-2.3,0.5-4.5,1.5-6.9,1.5c-5.5-0.1-8.2-3.4-12.9-4.7
			c-5-1.3-11.8-0.7-17-0.6c-9.3,0.1-18.6,1.1-27.7-0.8c-3-0.6-4.7-1.4-7-2.7c-1.2-0.7-1.9-1.6-3.4-2.2c-5.9-2.5-9.5,3.4-14.8,5.4
			c-1.3,0.5-0.6,1.6-2.1,1.3c-0.6-0.1-2.9-1.8-3.2-2.3c-0.8-1.2,0-2.7-0.4-4.1c-0.8-2.4-2.1-1.8-3.7-3c-1.4-1.1-0.7-3.5-1.8-4.4
			c-2.2-1.8-9.2,3.5-10.6,5.6c-1.7,2.5-1.4,2.9-4.8,3.6c-1.6,0.3-3.1,0.1-4.6,0.7c-1,0.4-1.6,1.4-2.7,1.7c-3.2,1-6.8-1-10.2-0.4
			c-4.6,0.9-8.4,4.8-9,9.3c-1.5,12.3,21.2,14.7,29.8,15c16.9,0.5,33.9,0.3,50.8,1.8c23.5,2.2,47,1,70.5,0.3
			c28.1-0.8,56.8-1,84.9,0.4c10.3,0.5,20.3,0.7,30.6-0.3c8.1-0.8,18.2,0.1,26-2.1C1786.5,1245.8,1791.8,1242.9,1791.1,1238.9"/>
	</g>
	<g>
		<defs>
			<rect id="SVGID_17_" x="390.3" y="-545.8" width="1400.8" height="1963.8"/>
		</defs>
		<clipPath id="SVGID_18_">
			<use xlink:href="#SVGID_17_"  style="overflow:visible;"/>
		</clipPath>
		<path id="XMLID_152_" class="st8" d="M1311.5,1207.9c-7.9-3.9-15.6,3.5-23.8-1.2c-1.4-0.8-1.8-2.7-3.1-3.6
			c-1.6-1.1-3.7-0.8-5.6-0.8c-4.1,0-6-0.7-9.6-1.7c-1.8-0.5-5.9-1-3.9-4.1c-4.1-0.3-10.4,1.4-14.2,0c-1-0.4-2.5-2.5-3.5-3.1
			c-2.4-1.5-4.4-2.4-7.2-2.5c-3.2-0.1-6.7,0.7-9.5,2.3c-2.1,1.2-3.2,3.2-5,4.5c-1.5,1-0.7,1.2-2.5,0.9c-1.6-0.3-2.9-1.6-4.8-1.8
			c-3.6-0.4-7.8,0.6-11.4,1c0.1,0-3,0.6-3.3,0.5c-1.1-0.4-2.2-2.5-3.3-3.1c-6-3.4-12.7-0.5-17,3.8c-3.9,3.8-3.3,2.2-5.2-1.4
			c-2.7-5-13.6-6.3-17.1-1.3c-0.3,0.4-0.8,2-0.9,2.2c-1.5,1.7-2.8,2.1-5.3,2.8c-1.7,0.5-3.7,0.3-4.6,2.1c-0.5,1,0.3,2.3-0.1,3.3
			c-2.1,5.7-9.8-3.6-9.8-7.5c0-3.7,1.8-2.9,3.8-5.4c1.8-2.2,0.3-6.4-2.4-8.4c-2.1-1.5-4.8-0.5-6.9-1.3c-1.6-0.7-0.7-0.7-2.1-1.7
			c-3.1-2.1-5.3-1.5-8.7-2.1c-1-0.2-1.4-0.9-2.8-1.1c-3.1-0.5-6.6,1.1-9.1,2.8c-2,1.3-2.3,2.7-3.4,4.2c-2.4,3.2-6.8,5.6-9,9.3
			c-1.3,2.3-1,4.8-1,7.2c-1.2,0.5-3.5,0.8-4.8,0.3c-1.6-0.6-1.9-2.7-3.2-3.3c-2.1-1.1-5.4,0.9-7.5-0.2c-2.2-1.1-2.2-3.7-3.8-5.1
			c-2.3-2.1-9-4.2-12.3-3.9c-4.3,0.4-6.9,3.5-10.9,3.9c-3.1,0.3-5.5,0.2-6.9,3.1c-1.1,2.1-0.4,3.3-2.8,4.4c-1.8,0.8-2.9,0.2-4.5,1.6
			c-2.2,2-2.8,5-2.7,7.8l4.2,4.5c4.2,1.1,7.2,3.8,10.7,6.3c5.8,4.1,10.5,5.1,17.6,6.2c18.9,3,38.9,2.4,58,1.8
			c27.4-0.9,55.5-1.1,82.7,1.8c34,3.6,67.8-1.1,101.5-5.3C1325.1,1225.3,1317.8,1211,1311.5,1207.9"/>
	</g>
	<g>
		<defs>
			<rect id="SVGID_19_" x="390.3" y="-545.8" width="1400.8" height="1963.8"/>
		</defs>
		<clipPath id="SVGID_20_">
			<use xlink:href="#SVGID_19_"  style="overflow:visible;"/>
		</clipPath>
		<path id="XMLID_151_" class="st9" d="M609.2,1199.1c0,0-106.3-1.2-137.3-1.4c-27.8-0.2-72.4,0.1-81.5,0.2v20.6l209.4-6.8
			L609.2,1199.1z"/>
	</g>
	<g>
		<defs>
			<rect id="SVGID_21_" x="390.3" y="-545.8" width="1400.8" height="1963.8"/>
		</defs>
		<clipPath id="SVGID_22_">
			<use xlink:href="#SVGID_21_"  style="overflow:visible;"/>
		</clipPath>
		<path id="XMLID_150_" class="st10" d="M502.4,1215c-1.1-2.2-6.6-1.8-9-2.2c-3.9-0.7-7.4-1.2-11.4-1.1c-3.3,0-6.1,2.4-9.2,1.8
			c-3.2-0.5-6.2-1.2-9.4-0.7c-7.9,1.4-16.1,0.1-24.1,0.7c-2.5,0.2-4.1-0.6-6.5-1.2c-1.9-0.4-3.6,0.1-5.5,0.5
			c-3.9,0.7-7.3-0.6-11.2-0.7c-2.1,0-3.9,0.4-6,0.7c-3,0.5-5.9-0.8-8.8-0.7c-2.1,0.1-3.3-0.2-5.3-0.5c-2.1-0.3-3.8,0.4-5.8,1.1v6.8
			c4.6,0.7,11.4-0.3,13-0.4c23.1-1.7,46.4,0.1,69.5-0.7c6-0.2,12-0.3,17.9-0.3c2.9,0,7.3,0.6,10.1-0.5
			C502.3,1217.2,503.2,1216.6,502.4,1215"/>
	</g>
	<g>
		<defs>
			<rect id="SVGID_23_" x="390.3" y="-545.8" width="1400.8" height="1963.8"/>
		</defs>
		<clipPath id="SVGID_24_">
			<use xlink:href="#SVGID_23_"  style="overflow:visible;"/>
		</clipPath>
		<path id="XMLID_149_" class="st11" d="M390.3,1215c0,0,216.4,1.4,263.2,0s363.2-6.2,424.3-1.4c61.1,4.8,151.3,9.5,151.3,9.5
			l-716.4,34.8l-122.4,11L390.3,1215L390.3,1215z"/>
	</g>
	<g>
		<defs>
			<rect id="SVGID_25_" x="390.3" y="-545.8" width="1400.8" height="1963.8"/>
		</defs>
		<clipPath id="SVGID_26_">
			<use xlink:href="#SVGID_25_"  style="overflow:visible;"/>
		</clipPath>
		<path id="XMLID_148_" class="st12" d="M842.1,1224.3c-6.9-0.3-13.6,0.4-20.4-0.1c-0.2-3.3,0.1-4.1,3-5.5c3.9-1.9,4.2-1.5,4.7-5.6
			c0.3-2.1,0.8-4.6,0.1-6.7c-0.7-2.2-3.8-5.5-5.9-6.4c-2.5-1-8.2-0.2-10.9,0c-3.1,0.3-3,0.8-4.5,2.7c-0.6,0.7-1,1.4-1.8,2.2
			c-2.1,2.1-3.3,2.4-3.4,5.6c-0.3,5.8,6.5,2.2,7.1,6.3c0.3,1.7-1.9,1.6-1.5,3c0.2,0.7,3.3,2.1,4.1,2.3c-1.8,1.9-7.1,1.5-9.3,1.8
			c-3,0.4-5.4-0.9-8.3-1.1c-1.5-0.1-2.9,0.9-4.1,0.7c-3.9-0.7-0.3-4,0-6.4c0.2-2-0.5-3.4-0.8-5.2c-0.2-1.7,0.5-3.8,0-5.5
			c-2.8-8-11.5-3.9-17.1-3.9c-1.7,0-6.9-1.5-8.3-0.2c-1.2,1.1,0,4.1-0.3,5.6c-0.4,1.6-2.4,3-1.5,5.2c0.9,2,5.4,3,7,4.8
			c1.3,1.5,2,2.8,3,4.2c0.9,1.2,2.1,1.4,1.8,3.2c-8.7,0.4-17.4-1-26.1-0.3c-2.3,0.2-10.8,1.3-11.2-1.5c-0.2-1.3,1.6-2.2,2.2-3.3
			c0.9-1.7,1.4-3.9,0.7-5.8c-0.3-0.9-1.7-1.5-1.7-2.5c-0.1-1,0.7-0.8,0.8-1.5c0.2-1.7,1.1-1.7-0.4-3.6c-2.3-3.2-6.1-1.9-9.7-2.8
			c-2.3-0.6-5.1-2.8-8.1-1.3c-1.7,0.8-2.9,3.2-4.3,4.4c-0.5,0.5-1.6,1.2-2.3,1.8c-1.7,1.6-3.4,3.7-1.3,5.8c0.8,0.8,9.9,4,3.6,6.1
			c1.1,1.1,2.8,2.2,2.9,3.8c-4.3,0.2-7.9-0.4-12.2,0.4c-4.4,0.8-7.4-0.8-11.6-1.1c-2.6-0.2-5.3,0.9-7.9,0.8l-2.2,2.6
			c0.4-0.1,0.7,0,0.8,0.4c-3.8,2.3,1.6,3.4,3.3,3.4c5.3,0,10.7,0,16,0c14.4,0,28.6,0.4,43,0.4c17.5,0,34.8-1.2,52.3-1.1
			c13.6,0,27.2-0.5,40.7-1.2C842.2,1227.5,842.2,1225.9,842.1,1224.3"/>
	</g>
	<g>
		<defs>
			<rect id="SVGID_27_" x="390.3" y="-545.8" width="1400.8" height="1963.8"/>
		</defs>
		<clipPath id="SVGID_28_">
			<use xlink:href="#SVGID_27_"  style="overflow:visible;"/>
		</clipPath>
		<path id="XMLID_147_" class="st13" d="M1426.9,1197.3c4-0.6,6.1,2.1,9.2,3.3c3.4,1.3,6.7,1.4,10.1,2.6c5.6,1.9,9.1,0.4,14.8,1.1
			c3.9,0.5,7,2.3,10.9,2.7c6.4,0.6,10.7-1.3,16.4,3.3c4.6,3.7,7.1,14.3,12.8,15.9c3.5,1,7.7-2.8,11.3-2.9c2.8,0,3,1,5.8,1.8
			c2.5,0.8,6.3,0.5,8,0.7c10.8,1.3,21.4,1.3,32-2c2.9-0.9,5.6-2,8.9-1.4c3,0.6,3.9,2.9,7.1,0.1c2.3-2,1.7-5.7,3-8.1
			c3.1-5.9,9.5-2.4,14.5-4.9c2.1-1.1,3.1-3.9,4.7-5.5c4.9-4.8,12.8-1.8,18.2,1.5c0.8,0.5,0.5,2,1.3,2.4c1.4,0.9,3.3,0.3,4.7,1.3
			c1.7,1.1,5.4,6.3,3.5,7.8c-2.9,2.3-13.9-5.3-12.5,3.2c4.2,0.3,9.3-0.1,10.9,5.3c0.8,2.9-2.3,3.5-1.3,6.9c4.7,1.4,8.3,1.4,10.6-2
			c1.8-2.7,2.9-5.7,6.2-7.2c3.5-1.7,8.2-1,11.4,1.2c2.1,1.5,3.2,5.3,5.8,4.8c-0.1-1.2,0.8-2.5,0.8-3.6c2.6-0.2,7.9,1.1,9.8-0.6
			c2-1.8,0.6-5.1,3.7-6.4c2.2-0.9,6.7,0.2,8.8,1.1c2.8,1.2,3,3.5,4.8,4.7c3.7,2.7,7.6,0.9,11.6-1.5c1.3-0.7,1.2-1.5,3.1-2.2
			c1.9-0.6,4.9,0.1,6.9-0.1c0.1-0.7,0.1-1.3,0-2c-1.9-0.4-5.8-0.5-5.3-3.3c0.5-3,7.2-2,10.1-2.2c0.5-1.6,0.1-2.8-1.5-3.3
			c-0.2-0.8-0.1-1.6,0-2.4c4.6-0.1,10.4-1.3,14.8,0.4c4.9,1.9,3.4,6.5-0.3,9.1c5.6-0.2,13.4,0,11.9,7.8c-3.7,1.5-10-1.5-9.5,4.4
			c0.1,1.7,2.8,2.9,2.7,4.7c-0.1,2.9-2.1,2.8-4.3,4.3c-2.7,1.8-1.9,2.6-3.1,4.8c-2.5,4.3-5.2,4.9-10.6,5.5
			c-10.1,1.2-20.4-1.7-30.5-2.2c-14.9-0.8-29.8-1.7-44.8-2.3c-30.4-1.3-60.7-5.9-91.2-3.9c-38.9,2.6-77.9,1.1-116.8,2.8
			c-10.2,0.4-27.1,3.3-36.3-2.3c-7.7-4.7-8.3-19.5-6.7-27.2c1.6-7.3,6.6-17.8,15.6-17c5.3,0.5,8.1,5.9,13.4,6.4
			C1418.6,1203.5,1421.4,1198.1,1426.9,1197.3"/>
	</g>
	<g>
		<defs>
			<rect id="SVGID_29_" x="390.3" y="-545.8" width="1400.8" height="1963.8"/>
		</defs>
		<clipPath id="SVGID_30_">
			<use xlink:href="#SVGID_29_"  style="overflow:visible;"/>
		</clipPath>
		<path id="XMLID_146_" class="st14" d="M652.4,1257.6c0-3,29.6-29,29.6-29s189.4-1.2,248.6-3.6c59.3-2.4,375.7-3.6,401.1-2.4
			c25.4,1.2,48.4-3.3,85,6.5s63.8,24.3,63.8,24.3s-187.5,6.7-265.6,6.7c-78,0-445.2,19.3-496.1,15.1
			C668.2,1270.9,652.4,1257.6,652.4,1257.6"/>
	</g>
	<g>
		<defs>
			<rect id="SVGID_31_" x="390.3" y="-545.8" width="1400.8" height="1963.8"/>
		</defs>
		<clipPath id="SVGID_32_">
			<use xlink:href="#SVGID_31_"  style="overflow:visible;"/>
		</clipPath>
		<path id="XMLID_145_" class="st15" d="M996.4,1236.7c-1.4-0.4-3.4,0.3-4.7,0.4c-5.2,0.4-10.4,0.5-15.6,0.7
			c-10,0.4-20.3-0.6-30.2,1.2c-7.1,1.3-14,0.3-21.1,0.7c-6.4,0.4-12.8,1.7-19.3,1.3c-4-0.2-8.1-0.3-12.1-0.3
			c-4.7,0-8.7,0.6-13.3,1.4c-12,2.1-24,3.3-36.2,4.1c-6.6,0.4-13.2,0.4-19.7-0.4c-3.2-0.4-6.3,0.9-9.5,1.1c-4.7,0.3-9.1,0.5-13.8,1
			c-5,0.6-10-1.3-15-0.7c-3.8,0.5-6,0.4-9.8,0c-4.9-0.5-9.2,2.2-14,1.9c-3.7-0.3-7.1-0.9-10.9-0.7c-5.1,0.4-9.8,1.4-14.9,1.4
			c-2.5,0-4.5,0.3-7,0.7c-2.1,0.4-4.5,0.7-6.7,0.3c-2.9-0.5-5.4-2.2-8.5-1.8c-2.9,0.4-4.5,1.4-7.5,1.1c-4.6-0.6-8.4,1-13.1,0.7
			c-8.1-0.5-16.8-2.4-23.8,2.8c-2.2,1.7-4.7,5-1.7,7.2c1.8,1.3,5.3,0.6,7.3,0.6c6.8,0,13.6,0,20.5,0c9.9,0,19.7-0.4,29.6-0.4
			c10.6,0,21-1.4,31.5-1.7c25.6-0.9,51.2-2.3,76.8-3.3c22.3-0.8,44.7-1.4,66.8-5.3c17.9-3.1,35.9-3.5,53.9-4.2
			c14.8-0.6,29.4-2.7,44-4.5C998.7,1238.9,999.2,1237.4,996.4,1236.7"/>
	</g>
	<g>
		<defs>
			<rect id="SVGID_33_" x="390.3" y="-545.8" width="1400.8" height="1963.8"/>
		</defs>
		<clipPath id="SVGID_34_">
			<use xlink:href="#SVGID_33_"  style="overflow:visible;"/>
		</clipPath>
		<rect id="XMLID_144_" x="454.8" y="1226.5" class="st16" width="1.2" height="6.1"/>
	</g>
	<g>
		<defs>
			<rect id="SVGID_35_" x="390.3" y="-545.8" width="1400.8" height="1963.8"/>
		</defs>
		<clipPath id="SVGID_36_">
			<use xlink:href="#SVGID_35_"  style="overflow:visible;"/>
		</clipPath>
		<path id="XMLID_143_" class="st17" d="M426.9,1225.2c-0.1-0.9,0.4-1.7,0.5-2.7c0.2-1.8,1.1-3,1.9-4.5c0.8-1.7,0.3-3.6,1.2-5.2
			c0.8-1.4,2.5-2.7,3.9-3.5c0.7-0.5,1.4-0.4,2-0.7c1.6-0.8,2-3.9,3.4-5.4c3.5-3.9,7.7-2.5,12.2-2.6c2.6-0.1,4.4-2.4,7.2-1.8
			c3.1,0.6,4.4,2.9,5.9,5.2c1.4,2.2,5,2.7,5.8,5.1c0.6,1.9-0.3,4,0.5,5.8c0.7,1.7,4.2,4.2,6.1,4.4c1.9,0.2,0.8-0.7,0.8-2.2
			c0.2-3.7,5.7-5.6,8.9-5.3c1.7,0.2,3.5,2.2,4.8,0.9c1-1.1,0.8-2.2,2.3-2.9c0.8-0.4,2-0.3,2.8-0.8c0.6-0.4,0.8-1,1.2-1.6
			c1.1-1.2,2.9-2.1,4.5-2.4c0.9-0.2,2.2,0.2,3-0.1c0.9-0.4,0.8-0.7,1.4-1.7c2.1-3.3,6.4-6.2,10.4-6.6c2.6-0.3,6,2.2,7.7,4
			c1.4,1.5,0.8,3.2,1.6,4.8c0.7,1.5,3.8,1.6,5.4,1.8c1.1,0.1,1.8,0.2,2.4-0.5c0.2-0.3,0.4-1.3,0.6-1.7c0.4-0.7,1.1-1.4,1.8-1.8
			c1.2-0.7,2.9-1.2,4.3-1.1c2,0.1,4.1,1.7,6,2.3c2.3,0.8,4.6,1.6,7.2,1.2c1-0.2,1.9-0.9,2.8-0.9c1.6-0.1,2.5,0.6,4-0.5
			c2.5-1.8,1.7-5.4,3.6-7.6c3.2-3.9,10.3-4.3,14.9-4.4c2.8-0.1,5.9-0.1,8.3,1.5c1,0.6,0.9,1.3,1.5,2c0.8,1,1.8,1.3,2.8,2
			c2.8,2,2.9,7.1,1.9,10.2c-0.8,2.4-3.7,3.9-5.4,5.6c-1.7,1.8-2.2,4.6-3.3,6.8c-1.1,2.2-2.7,2.1-5,2.8c-1.3,0.4-3.5,0.9-4.5,1.7
			c-0.7,0.6-0.9,1.4-2.1,1.9c-3.8,1.6-9.3,1.2-13.3,0.8c-3.6-0.4-7.2,0.2-10.8,0.3c-4.9,0.2-9.8,0.5-14.7,0.7
			c-9.9,0.3-19.8,0-29.7,0.3c-9,0.3-18,1.2-27,1.2c-2.4,0-5.3,0.5-7.7-0.2c-1.6-0.4-3.1-1.5-4.7-1.9c-2.4-0.6-4.7,0.1-7.1,0.1
			c-1.3,0-2.7-0.3-4-0.2c-1.4,0.2-2.8,0.8-4.1,1.1c-3.6,1-6.9,4.3-10.7,4.6c-1.6,0.1-3.7-0.6-5.3-1c-2.3-0.6-2.8-2.2-4.5-3.5
			C429.3,1228.3,427,1227.1,426.9,1225.2"/>
	</g>
	<g>
		<defs>
			<rect id="SVGID_37_" x="390.3" y="-545.8" width="1400.8" height="1963.8"/>
		</defs>
		<clipPath id="SVGID_38_">
			<use xlink:href="#SVGID_37_"  style="overflow:visible;"/>
		</clipPath>
		<path id="XMLID_142_" class="st18" d="M605,1225.9c-7.6-1.6-16-0.7-23.8-0.7c-16.6,0-32.8,1.2-49.3,1.2c-16.6,0-35.7-2.4-51.4,1.8
			c-9.6,2.6-20.1,2.6-30.4,2.6c-10.3,0-19.5,2.1-29.5,2.5c-4.8,0.2-10.4-0.9-15,0.6c-2.6,0.8-4.5,3-7.4,3.6c-1.7,0.4-4.5,0.1-7.9,0
			v14.5c4.5-0.4,9-1.3,12.2-1.9c27.6-4.9,55.7-9.1,83.7-10.5c24.1-1.2,48.1-3.5,72.4-3.3c8.8,0.1,17.7,1.1,26.5,0.7
			c4.3-0.2,14.3,0.5,17.9-1.8C606,1233.4,605.3,1229.5,605,1225.9"/>
	</g>
	<g>
		<defs>
			<rect id="SVGID_39_" x="390.3" y="-545.8" width="1400.8" height="1963.8"/>
		</defs>
		<clipPath id="SVGID_40_">
			<use xlink:href="#SVGID_39_"  style="overflow:visible;"/>
		</clipPath>
		<path id="XMLID_141_" class="st19" d="M1254.5,1238c-57.6-2.6-194-2.6-248,1.6c-18.8,1.5-46.1,3.2-75.6,4.9l-139.3,95l879.5-16.1
			l-207.4-72.7C1384.1,1248.9,1311.3,1240.6,1254.5,1238"/>
	</g>
	<g>
		<defs>
			<rect id="SVGID_41_" x="390.3" y="-545.8" width="1400.8" height="1963.8"/>
		</defs>
		<clipPath id="SVGID_42_">
			<use xlink:href="#SVGID_41_"  style="overflow:visible;"/>
		</clipPath>
		<path id="XMLID_140_" class="st20" d="M1766.8,1244.3c0,0-134.8-5.3-199.3-10.6c-64.5-5.3-150.7-4.8-150.7-4.8
			c38.6,9.5,50.2,21.7,50.2,21.7c-1.1,0-2.2-0.1-3.3-0.1l207.4,72.7l101.6-1.9L1766.8,1244.3z"/>
	</g>
	<g>
		<defs>
			<rect id="SVGID_43_" x="390.3" y="-545.8" width="1400.8" height="1963.8"/>
		</defs>
		<clipPath id="SVGID_44_">
			<use xlink:href="#SVGID_43_"  style="overflow:visible;"/>
		</clipPath>
		<path id="XMLID_139_" class="st21" d="M630.6,1231.7c0,0-49.7-1.6-99.4-0.5c-46.2,1-129.3,10.6-140.9,12v23l230.2-10.5
			L630.6,1231.7z"/>
	</g>
	<g>
		<defs>
			<rect id="SVGID_45_" x="390.3" y="-545.8" width="1400.8" height="1963.8"/>
		</defs>
		<clipPath id="SVGID_46_">
			<use xlink:href="#SVGID_45_"  style="overflow:visible;"/>
		</clipPath>
		<path id="XMLID_138_" class="st22" d="M781.3,1252.8c-47.6,2.6-162.3,6.3-162.3,6.3l1.5-3.5l-95.8,2.6l-14.9-0.5l-95.9,7.8
			l-23.5-3.6v81.2l145.1,1.1l256.1-4.7l139.3-95C875.6,1247.8,812.3,1251.1,781.3,1252.8"/>
	</g>
	<g>
		<defs>
			<rect id="SVGID_47_" x="390.3" y="-545.8" width="1400.8" height="1963.8"/>
		</defs>
		<clipPath id="SVGID_48_">
			<use xlink:href="#SVGID_47_"  style="overflow:visible;"/>
		</clipPath>
		<path id="XMLID_137_" class="st23" d="M584.6,1253.7l-2-1.2c-4.6,2-11.6,0.7-16.6,0.9c-5,0.2-9.9,1-14.8,1.4
			c-8.5,0.8-17-1.5-25.6-1c-18.6,1.1-38.1,1.1-56.5,4.4c-2.7,0.5-14.5,1.5-10,5.7c3,2.8,15.2,1,19.5,0.2c3.3-0.6,5.8-1.4,9.3-1.6
			c4.7-0.2,9.9-0.9,14.3-2c8.3-2.1,18.1-0.8,26.7-0.8c19,0,38.3,1.2,57.3-0.1C586.4,1257.4,586.3,1254.7,584.6,1253.7"/>
	</g>
	<g>
		<defs>
			<rect id="SVGID_49_" x="390.3" y="-545.8" width="1400.8" height="1963.8"/>
		</defs>
		<clipPath id="SVGID_50_">
			<use xlink:href="#SVGID_49_"  style="overflow:visible;"/>
		</clipPath>
		<path id="XMLID_136_" class="st24" d="M618.7,1260.1c4.1,0.5,8.2-0.3,12.3-0.3c4.7,0,9.3,1.1,14,0.5s9.1-0.6,13.8-0.5
			c4.6,0.1,8.9-0.5,13.4-1.2c2-0.3,5.8,0.5,7-1.5c0.5-0.8,0.5-2.1,0.7-3c0.3-1.1,0.2-2.5,0.6-3.5c0.3-0.9,0.1-0.9,1.3-1.4
			c1.3-0.6,5.1-0.9,5.9-2c1.2-1.7-0.9-4.3-0.8-6.1c0.2-2.7,3.1-0.8,4.4-2.3c0.8-0.9,0.6-3.6,0.3-4.6c-0.9-2.7-2-4.3-0.2-7
			c1.1-1.6,2.9-3,3.6-4.8c0.7-1.7,0-2.6-0.8-4.1c-1.2-2.5-0.2-2.7,1.4-4.2c1.9-1.7,1.7-4.5,0.7-6.6c-1.2-2.7-1.7-4.6-4.6-5.8
			c-2.3-0.9-5.1-0.5-6.9-2.4c-1.1-1.2-1.1-2.5-1.8-3.8c-1-1.7-3-2.7-4.9-3.2c-1.4-0.4-3.3,0.1-4.7-0.5c-1-0.5-1.6-1.7-2.2-2.7
			c-0.7-1.1-1.4-2.4-0.9-3.8c0.4-1,1.6-1.2,1.9-2.1c0.7-1.9-4.1-3.2-5.5-3.8c-2.5-1.1-5.6-0.6-8.3-0.6c-5.5,0.1-11.3,0.8-15.7,4.4
			c-1.6,1.3-2.2,2.6-2.6,4.6c-0.2,0.9-0.2,1.3-0.9,1.8c-2.4,1.6-3.7-2.4-5.2-3.7c-3.5-3-10.9-2.4-14,1.1c-1,1.2-1.1,2.7-1.8,3.9
			c-1.2,2.1-3.3,2.6-5.5,2.8c-4,0.3-11.2-1.4-14.2,2c-0.9,1-1,1.9-1.4,3c0,0.1,0.1,0.5,0.1,0.6c-0.3,0.5-1.7,1.1-2.2,1.4
			c-4.1,2-8.8,1.1-13.1,2.2c-2.8,0.7-6.3,3.6-7.2,6.4c-0.7,2.2,1.2,3.5,0.9,5.6c-0.3,2.1-2.3,3.4-3.1,5.3c-0.7,1.6,0,2.9,0,4.5
			c-0.1,2.4-2.3,4.2-1,6.6c0.9,1.7,2.9,3.9,4.8,4.4c1.9,0.4,5.8,2.1,5.3,4.7c-0.3,1.4-1.2,2.4-1.1,3.9c0.1,1.6,1.5,2.5,1.8,3.7
			c0.4,1.9-2.1,2.2-3.1,3.3c-2.4,2.6-1,5,1,7c0.9,0.9,1.4,1.6,2.8,1.6c1.5,0,3.1-0.2,4.6-0.2c3.4-0.1,6.9-0.2,10.3-0.3
			C605,1259.4,611.9,1259.3,618.7,1260.1"/>
	</g>
	<g>
		<defs>
			<rect id="SVGID_51_" x="390.3" y="-545.8" width="1400.8" height="1963.8"/>
		</defs>
		<clipPath id="SVGID_52_">
			<use xlink:href="#SVGID_51_"  style="overflow:visible;"/>
		</clipPath>
		<path id="XMLID_135_" class="st25" d="M1399.9,1231c-0.5-3.7-3.5-5.7-3.7-9.7c-0.2-2.8,0.6-5.5,0.5-8.4c-3.6-1.9-6.8-2.5-8-6
			c-1-2.8,0.6-6.2-0.4-9c-4.4-11.9-15.6-5.7-24.4-6.4c-0.5-2.7-1.7-1.2-3.4-1.8c-0.3-0.1-1.8,0.9-2.5,0.7c-0.4-0.1-0.7-1.4-1.2-1.6
			c-5.4-2-8.5-5.8-14.9-5.3c-4,0.3-7.4,1.6-10.7,3.8c-3.7,2.4-8.7,5.1-10.1,9.6c-1.2,3.7-0.8,8.3-6.8,8c-0.4,4.3,2.6,11.6-1.6,13.8
			c-1.8,0.9-4.7-0.3-6.7,0.6c-2,0.8-2.8,3.3-4.3,4.1c-5.3,2.7-12.6-0.7-9.9,8.6l5.3,10.1c1.8,1.7,3.4,3.7,5.8,4.7
			c3,1.2,6.8,0.7,10,1.8c3.9,1.3,6,2.1,10.5,2.4c8.2,0.5,19.6,1.6,27.4-1.3c3.4-1.3,5.9-3.8,9.6-4.5c9.4-1.7,18.3,4.6,27.3,2.8
			c5.6-1.1,4.9-3.8,7.4-8.1C1397.1,1236.4,1400.4,1235.5,1399.9,1231"/>
	</g>
	<g>
		<defs>
			<rect id="SVGID_53_" x="390.3" y="-545.8" width="1400.8" height="1963.8"/>
		</defs>
		<clipPath id="SVGID_54_">
			<use xlink:href="#SVGID_53_"  style="overflow:visible;"/>
		</clipPath>
		<path id="XMLID_134_" class="st26" d="M942.3,1226.9c-2.1-0.9-6.8,0.4-7.1-2.4c-0.2-1.6,1-2.4,2.4-2.7c2.3-0.4,8.3,6,7.2-0.3
			c-0.7-4.1-5.7-5.4-6.9-8.8c-0.7-2-0.4-3.6-1.9-5.6c-1.6-2.2-3.8-4.6-6.8-4.2c-3.6,0.5-4,3.9-7,1.9c-1.8-1.2-2.3-3.3-4.5-4.1
			c-3.7-1.3-8.4,0.5-11.5,2.2c-0.8,0.4-3.1,2.3-4.1,2.4c-0.9,0.1-2.5-1-3.5-1.1c-5.1-0.7-10.3,4.7-10.1,9.8
			c-4.2,0.7-6.3-2.1-9.4-3.9c-5.3-2.9-11.1-7.9-17.9-4.9c-2.1,0.9-3,2.5-4.2,4.3c-0.3,0.5-1.2,3-1.6,3.2c-1.4,1.1-3.2,0.5-5.3,0.6
			c-5.8,0.2-7.6,3-7.9,8.4c-0.9,0.2-2.6,3.6-2.8,4.6c-0.3,1.8,0.4,1.8,1,3.4c1.3,3.6,0.6,3.7,4.5,5.1c0.1,0.3,0,0.5,0.1,0.8
			c4.4,1.2,4.5,2.9,3,6.1c-1.1,2.3-3,4.1-2.5,7.2c0.4,2.6,3.8,3.9,4.5,6.1c1.5,0.6,2.9,1.5,4.3,1.8c4.5,0.8,9.2-1.1,13.8-0.3
			c4.7,0.8,7.7,4.3,12.3,4.5c2.9,0.2,6.1-0.5,9,0c1.6,0.3,2.1,0.5,3,1.7c0.4,0.5,0.5,2.1,1,2.4c1.3,0.9,5.6-0.1,6.4-1.3
			c0.5-0.8,0.1-1.4,0.4-2.1c0.2-0.5,0.8-1.6,0.9-1.8c0.6-1.8,0.6-3.4,0.6-5.5c0-7,6.9-2.1,11.3-4.3c2.5-1.2,2.9-3.2,6.1-2.7
			c3,0.4,3.4,0.7,6.4-0.6c1.6-0.7,3.6-0.9,2.7-3c-1.4-3.1-4.9-1.1-4.5-5.9c0.3-5.3,4.1-5.9,8.5-4.8c3.2,0.8,5.8,2.2,8.3,4.3
			c1.1,0.9,2.1,2.4,3.6,2.3C944.4,1235.4,947.3,1229,942.3,1226.9"/>
	</g>
	<g>
		<defs>
			<rect id="SVGID_55_" x="390.3" y="-545.8" width="1400.8" height="1963.8"/>
		</defs>
		<clipPath id="SVGID_56_">
			<use xlink:href="#SVGID_55_"  style="overflow:visible;"/>
		</clipPath>
		<path id="XMLID_133_" class="st27" d="M850.2,1255.8c0-0.3,0-0.6-0.1-0.9c-0.8-0.3-1.5-0.6-2.3-0.6L850.2,1255.8z"/>
	</g>
	<g>
		<defs>
			<rect id="SVGID_57_" x="390.3" y="-545.8" width="1400.8" height="1963.8"/>
		</defs>
		<clipPath id="SVGID_58_">
			<use xlink:href="#SVGID_57_"  style="overflow:visible;"/>
		</clipPath>
		<path id="XMLID_132_" class="st28" d="M933.8,1242.8c-2-2.8-4.8,0.2-6.6,1.7c-2.6,2.1-6,3.1-8.5,5.6c-3.2,3.2-8.1,5.4-12,8
			c-2.4,1.6-5.3,2.6-7.8,4.2c-2.2,1.4-3.9,3.4-6.1,4.8c-3,2-9.1,1.7-10.5,5.5l-0.6,1.2c0,2.7,2.6,4.1,5,3.5c1.2-0.3,2.7-1.4,3.8-2
			c2.5-1.2,5-2,7.5-3.1c4.2-1.9,8.1-4.4,11.7-7.2c2.5-2,4.1-4.9,6.8-6.7c2.8-1.9,5.5-2.7,7.9-4.8c1.6-1.4,3.1-3.2,4.7-4.3
			C931.3,1247.5,936.5,1246.6,933.8,1242.8"/>
	</g>
	<g>
		<defs>
			<rect id="SVGID_59_" x="390.3" y="-545.8" width="1400.8" height="1963.8"/>
		</defs>
		<clipPath id="SVGID_60_">
			<use xlink:href="#SVGID_59_"  style="overflow:visible;"/>
		</clipPath>
		<path id="XMLID_131_" class="st29" d="M1152.5,1234.1c-1-4.5-5.7-4-9-5.6c-2.2-1.1-3.5-3.4-6.1-5.1c-4.3-2.8-16.4-5.3-19.7,0.6
			c-0.3,0.5,0.2,1.8-0.4,2.2c-1.1,0.8-3.8-0.5-5.1-0.8c-2.7-0.6-3.7-0.2-6.3,1.4c-1.5,0.9-3.3,3.2-4.9,3.4c-1.8,0.3-6.3-3-7.8-4
			c-2.7-1.7-2.5-3.9-4.9-6.2c-5.1-5.1-12.3-7.2-18.1-2.5c-2.3,1.8-4.3,3.1-6.6,1.2c-1.4-1.1-1.5-3.5-3.1-4.3
			c-1.5-0.8-4.3-0.2-5.8-0.2c-3.5,0-2.8-0.7-5.1-3c-3.6-3.7-7.9-5.2-12.4-2.5c-1.6,1-1.6,1.2-3.3,1.3c-2.5,0.1-5.2-0.7-7.8-0.2
			c-3.2,0.6-5.6,2.5-8.3,4.2c-1.8,1.1-4.1,1.3-6.2,2.4c-5.8,3-2.9,7.8-4,12.9c-4.2,0.1-8.1,0.5-11.2,3.8c-2,2.1-1,3.7-2.1,5.8
			c-0.9,1.7-2.2,1.5-2.5,4c-0.7,5.6,3.5,9.2,7.5,12.2l-12,7.5c3.6,2.6,7.9,4.8,12,6.3c10.1,3.7,22.4,1,33,1.8
			c8.2,0.6,15.9,4.8,24.1,6c11,1.6,23.9,1.1,34.5-2.3c7.1-2.3,14.8-5.5,21.2-9.3c4.9-3,9.3-6.2,15.2-7.1c9.4-1.4,19.2,2.4,26.1-6.2
			C1156.7,1247.5,1161.2,1236.2,1152.5,1234.1"/>
	</g>
	<g>
		<defs>
			<rect id="SVGID_61_" x="390.3" y="-545.8" width="1400.8" height="1963.8"/>
		</defs>
		<clipPath id="SVGID_62_">
			<use xlink:href="#SVGID_61_"  style="overflow:visible;"/>
		</clipPath>
		<path id="XMLID_130_" class="st30" d="M1508.9,1263.4c-0.8-2-2.1-1.7-3.9-2.7c-2.3-1.3-3.8-3.4-6.5-4.2c-1.3-0.4-2.2-0.4-3.1-0.8
			c-1.6-0.8-2.4-1.9-4.4-2.4c-1.2-0.3-2.4,0-3.5-0.6c-1-0.5-0.8-1.6-1.7-2.2c-2.2-1.2-5.7-0.4-8.1-0.6c-0.2-2.5-0.2-5.2,0-7.7
			c0.4-7,6.9-9.9,2.2-16.7c-1.9-2.7-5.1-7.7-8.5-7.9c-4.9-0.3-3.5,4.4-7.1,5.6c-1.7-3.4-6-8.7-10-9.3c-4-0.6-6.9,4.1-10.8,3.9
			c-0.2-3.5-3.2-3.8-5.4-5.5c-2-1.6-2.8-3.7-5.5-4.8c-4.5-1.8-12.3-1.5-16.7,0.7c-2.2,1.1-3.3,2.8-5.6,3.4c-2.3,0.6-5.8-1.1-7.8,0.5
			c-1.8,1.4-0.7,2.5-1.1,4.6c-1,5.4-9.5,5.1-13.5,7.6c2.6,4.6,6.9,4.8,11.5,5.1c3.9,0.2,7.7,0.2,11.5,0.9c5,0.9,9.2,3.6,13.9,4.7
			c2.9,0.7,6.2-0.3,9.2,0.3c3.9,0.7,6.3,3.4,9.7,5c2,0.9,17.4,2.8,15.7,6c-1.2,2.2-10,0.5-12.2,0.3c-4.1-0.2-8,1-12.1,0
			c-3.6-0.8-5.5-1.7-9.3-1.1c-3.4,0.6-5.9,0.7-9.3,0c-3.1-0.7-6.1-2.1-9.3-2.3c-3.1-0.2-10.3,0.2-12.3,2.6l-2.6,3.3
			c1.7,5.3,8.3,2.4,13.1,2.2c12.5-0.6,24.7,2.1,36.8,3.1c7.5,0.6,15.1,0.7,22.6,0.7c2.4,0,4.9-0.2,7.1,0.4c4.3,1.2,8.4,3.5,12.6,5
			c2.5,0.8,5.3,0.9,7.9,1.7c2.6,0.8,5.3,1.4,7.9,2.3c1.5,0.5,5.6,3.6,7.1,3.2C1508.9,1267.4,1509.4,1264.9,1508.9,1263.4"/>
	</g>
	<g>
		<defs>
			<rect id="SVGID_63_" x="390.3" y="-545.8" width="1400.8" height="1963.8"/>
		</defs>
		<clipPath id="SVGID_64_">
			<use xlink:href="#SVGID_63_"  style="overflow:visible;"/>
		</clipPath>
		<path id="XMLID_129_" class="st31" d="M794.9,1285.2c-0.1-0.6-1.2-1.2-1.3-2.2c-0.1-1.1,0.8-3,0.9-4.3c0.5-5.1-3.8-12.8-7.6-15.9
			c-2.6-2.2-3.8-5-6.3-7.1c-2.1-1.8-7.2-4.1-10.1-3.7c-0.7,0.1-1.5-0.1-2.2,0s-0.4,1.8-1.3,1.8c-2.2,0-3.7-2.7-5.7-3.9
			c-2.5-1.5-5.3-2.2-8.2-2.3c-4.4-0.2-8-0.3-8.7,4c-0.4,2.8,1,5.1-1.4,6.8c-1.1,0.8-6.1,0.3-7.6,0.4c-2.9,0.2-3.6,0-5.7,2.2
			c-1.5,1.5-1.4,2.9-3.3,3.6c-1.5,0.6-4.9,0.1-5.7-1.5c-0.7-1.3,1-3.1,1.2-4.4c0.5-3.2-0.5-5.8-3.5-7.1c-4.3-1.9-9.3,0.5-13,0.2
			c-5.2-0.4-16.8-4.8-21.2,0.7c-2.9,3.6,1.5,7.8,1.8,11.6c0.6,7.5-3.1,6.9-8.8,9.4c-5.5,2.5-3,5-4.2,9.4c-0.5,1.9-2.7,3.9-5.3,3.7
			c-3.7-0.3-8-4.1-11.7-5.4c-1.7-0.6-3.6-1.2-5.4-0.9c-2.1,0.3-4.3,2.7-6.3,1.7c-0.2-5.3,1.1-11.7-4.5-15.1
			c-3.1-1.9-8.6-1.4-10.5,2.2c-2.5-4.1-9.8-5.2-14.2-3.9c-5.3,1.6-7.5,5.9-7.3,11.1c-1.7,0.3-3,2-4.4,2.3c-1.5,0.4-3.1-0.8-5.1-1
			c-6-0.5-7.8,4-11.6,7.3c-1.1,0.9-2.3,0.5-3.4,2.1c-1.2,1.8-0.3,7,1,8.6c2.1,2.7,7.5,3.2,10.5,3.5c13.2,1.6,26.7,0.4,40,1.4
			c21.1,1.6,42.6,1.2,63.8,0.9c22.2-0.3,44,1.9,66.1,4.1c9.6,0.9,19.3-0.6,28.8,0l-3.6-9.9C794,1292.9,795.6,1289.9,794.9,1285.2"/>
	</g>
	<g>
		<defs>
			<rect id="SVGID_65_" x="390.3" y="-545.8" width="1400.8" height="1963.8"/>
		</defs>
		<clipPath id="SVGID_66_">
			<use xlink:href="#SVGID_65_"  style="overflow:visible;"/>
		</clipPath>
		<path id="XMLID_128_" class="st32" d="M966.6,1304.7c-0.2-4.3-1.7-12.3-4.4-15.9l-10.4-10.1c-0.8-2.3-6-3.5-8.1-4
			c-4.3-1-10.1-1.5-14.2,0.5c-1.4,0.7-2.3,1.5-3.4,2.6c-0.6,0.5,0.1,1-0.7,1.5c-1.4,0.9-4.6-0.3-5,2.3c-2.1-0.4-4.1-1.7-6.3-2
			c-3.9-0.6-6.5,0.3-9.8,2.3s-6.1,2.5-10.1,2.4c0-2.1-0.2-5-1.7-6.7s-3.4-1.2-5.5-1.8c-0.1-1,0.2-2,0.2-3.1c0-1.8-1-3.2-1.2-4.8
			c-0.1-1,0.4-2.5,0.4-3.9c-0.2-3.6-3.4-7.2-6.4-8.9c-1.2-0.7-2.2-0.8-3.2-1.5c-1.6-1.1-2.4-3-4.4-3.7c-3.8-1.4-10.8-1-14.2,1.5
			c-0.9,0.6-1.8,2.6-2.7,2.9c-1.8,0.6-3.1-1.3-4.7-2c-2.2-0.9-5.3-1.4-7.6-0.7c-2.9,1-4.1,3.6-6.3,5.1c-1.4,1-3.6,1.2-5.2,2.4
			c-2.7,2.1-2.6,4.1-2.3,7.1c0.2,2.3,0.2,5.2-0.5,7.5c-1.1,3.2-4.1,2.4-7.1,2.4c-1.9,0-4.1-0.3-5.8,0.6c-1.8,1-1.9,2.3-2.9,3.9
			c-1.2,1.9-1.7,1.6-4,1.8c-6.1,0.6-8.9,4.4-8.5,10.3c0.2,2.8-1.2,4.8-1,7.6c0.8,8.1,13.7,5.6,19.1,6.2c14.2,1.6,28.4,4,42.5,6.2
			c10.3,1.6,20.8,1.1,31.2,2c14.1,1.3,28,1.4,42.1,2.1c7.5,0.4,15.6,0.7,23.1-0.4c2.1-0.3,5.7-1.3,7.3-2.9
			C967.1,1311.5,966.7,1307.3,966.6,1304.7"/>
	</g>
	<g>
		<defs>
			<rect id="SVGID_67_" x="390.3" y="-545.8" width="1400.8" height="1963.8"/>
		</defs>
		<clipPath id="SVGID_68_">
			<use xlink:href="#SVGID_67_"  style="overflow:visible;"/>
		</clipPath>
		<path id="XMLID_127_" class="st33" d="M586.5,1285.7c-1.4-2.2-3.7-4.3-5.4-6.6c-3.9-5.1-8.4-5.6-14.1-6.2
			c-4.1-0.4-12.1-1-15.5,1.5c-3,2.2-2.1,5.9-6.1,6.7c-1.7,0.3-3.7-1-5.5,0c-1.2,0.6-1.1,1.7-2.1,2.6c-2.2,1.8-5.4,2.4-8.4,2.4
			c-4.6,0.1-7.9-3.6-12.6-3.7c-2.8,0-5.2,0.6-7.9,0c-2.9-0.6-5.2-2.5-8.3-2.4c-3.7,0.2-5.4,2.9-8.2,4.4c-5.6,3.2-12-0.8-13.7-6.8
			c-0.9-3.3,0.2-7.8-1.3-11c-2.2-4.9-8.1-2.9-11.3-6c-2.6-2.4-3.7-6-6.7-8.4c-2.7-2.1-6.2-4.3-9.7-4.9c-5.8-0.9-12,0.6-15.7,5.2
			c-1.9,2.4-2,3.5-5.7,4.7c-2,0.6-3.6,0.8-5.2,1.7c-2,1.1-2.3,1.7-4.9,2.1c-1.9,0.3-4.8,1.4-6.7,0.6c-3-1.2-5-4.3-8.4-5.4
			c-3.6-1.1-8.5-1.7-12.8-0.6v45.1c1.9-0.1,3.2-0.3,4.3-0.3c12.2,0.1,24.4,1.1,36.7,1.2c14.9,0.1,29.7,0.8,44.6,0.8
			c8.3,0,16.5-0.8,24.8-1.2c9.7-0.5,19.4-0.3,29.1-1.6c19.3-2.6,39.1,0.2,58.2-3.7C587.7,1292.6,588.4,1288.7,586.5,1285.7"/>
	</g>
	<g>
		<defs>
			<rect id="SVGID_69_" x="390.3" y="-545.8" width="1400.8" height="1963.8"/>
		</defs>
		<clipPath id="SVGID_70_">
			<use xlink:href="#SVGID_69_"  style="overflow:visible;"/>
		</clipPath>
		<path id="XMLID_126_" class="st34" d="M1152.2,1265.1c-1.8-2.8-2.6-6.2-3.8-9.3c-1.1-3-3.7-6.7-4.1-9.2l-2.1-1.7
			c-2.4-2.7-3.6-5.5-7.4-7c-1.3-0.5-1.6-0.5-3.1-0.2c-1.1,0.3-2.2,0.5-3.3,0.8c-1,0.3-2,1.3-2.9,1.5c-0.7,0.2-0.7-0.1-1.7-0.2
			c-2.7-0.1-4.9,0.1-6.7,2.3c-1.5,1.8-2.4,4.9-4.2,6.2c-1.6-1.2-2.4-2.7-3.6-4.3c-1.5-2.2-3.1-2.8-5.4-3.9
			c-6.8-3.4-15.8-5.7-22.6-0.5c-1.1,0.9-2,1.9-2.5,3.2c-0.3,0.9,0.1,3-0.4,3.7c-1.1,1.7-4.8,1.4-6.7,2.9c-1.4,1.1-2.4,2.5-3,4.2
			c-0.4,1.3,0,3.1-0.4,4.3c-0.4,1.2-1.7,1.9-2.2,3.1c-3.3,0.3-7.8-1.5-10.6-3c-2-1-2.8-1.7-3.6,0.7c-0.8-0.1-0.9-0.6-1.6-1.1
			c-1.7-1-3.4-1.7-5.3-2.2c-4.2-1.1-8.7-0.5-12.4,1.9c-1.3,0.9-1.8,2-3.4,1.9c-2.3-0.1-4.8-2.3-6.6-3.7c-5.2-3.9-10.9-5.8-17.4-5.8
			c-6.2,0-10.5,1.1-15.4,4.5c-1.7-2.7-2.8-5.5-5.5-7.3c-3.7-2.5-7.9-6.9-12.8-6.1c-5.4,0.9-9.7,3.2-13.7,6.7
			c-1.6,1.4-3.3,2.4-4.3,4.3c-0.8,1.5-0.6,3.1-1.1,4.7c-0.6,2.1-1.8,3.8-2.9,5.7c-1.6,2.9-2.1,5.9-1.6,9.1c0.3,2.1,0.9,3.9,0.3,6.1
			c-0.5,2.1-1.9,4-2.7,6c-0.7,1.8-1.1,4.8-0.7,6.7c0.4,2.1,2.4,3.3,2.9,5.2c0.3,1.1-0.1,2.3-0.1,3.4c0,2,0.4,3.4,1.4,5.1
			c0.8,1.3,1.6,2.5,2.4,3.8c3,5.3,10.7,4.4,15.9,5.1c12.9,1.8,25,6.8,38.2,7.6c8.1,0.5,16.5,0.8,24.7,0.5c7.5-0.3,14.8-1.9,22.3-1.9
			c6.5,0,13.1,0,19.6,0c6,0,11.8-0.6,17.9-1.1c11.8-0.9,23.5-3.6,35.4-4.7c3-0.3,5.6-0.3,8.4-1.7c3.6-1.8,8.3-4,11-7
			c2.3-2.5,3.3-6.4,4.6-9.5c1.6-3.8,2.2-7.9,4-11.6c1.6-3.2,2.5-5.4,2.4-9C1155.7,1270.7,1154.3,1268.4,1152.2,1265.1"/>
	</g>
	<g>
		<defs>
			<rect id="SVGID_71_" x="390.3" y="-545.8" width="1400.8" height="1963.8"/>
		</defs>
		<clipPath id="SVGID_72_">
			<use xlink:href="#SVGID_71_"  style="overflow:visible;"/>
		</clipPath>
		<path id="XMLID_125_" class="st35" d="M1330.1,1265.1c-2.9-6.6-4.7-13.7-7.5-20.4c-1.8-4.4-4.3-10-9.3-11.4
			c-6.5-1.8-13.7,3.9-20,4.8c-2.5-6.5-4.4-11.5-10.5-15.5c-4-2.7-12-5.9-16.6-3.1c0.6-8.4-15.7-8.7-20.8-8.6c-4,0.1-8.8-0.1-12,2.8
			c-2.3,2.1-2.3,4.7-3.4,7.4c-2,4.9-3.3,3.1-8.6,1.9c-8.4-1.9-18.6-0.9-19.6,9.5c-0.1,1.2,1.1,5.7,0.5,6.6
			c-1.6,2.2-8.3,1.4-10.8,1.2c-6-0.5-9.3-7.3-16.1-8.2c-7-1-12.6,0.5-15.8,6.7c-3,5.7-9.9,4.7-15.5,4.1c-6.8-0.8-10,0.6-13,7
			c-1.9,4-2.3,3.4-6.7,5.4c-5.2,2.4-8.3,7.2-8.7,12.8c-0.3,4.4,0.6,4.3-2.9,7.1c-6.5,5.1-6.9,13.6-3.4,20.7c1.7,3.5,4.3,7.9,7.9,9.7
			c2.7,1.4,5.2,0.6,8,1.1c2.7,0.5,5,1.9,7.8,2.4c5.6,0.9,11.5,0.1,17-1c17.6-3.4,35.6-0.1,53.3,1.2c9.1,0.7,18.4,1.2,27.5,0.7
			c8.6-0.4,17-2.4,25.5-2.8c13.3-0.6,26.3,2.5,39.6,2.4c7.9,0,16.3,1.1,23.6-2.4c7.4-3.5,13.2-8.5,15.1-16.7
			C1337.1,1280.3,1334.1,1274.3,1330.1,1265.1"/>
	</g>
	<g>
		<defs>
			<rect id="SVGID_73_" x="390.3" y="-545.8" width="1400.8" height="1963.8"/>
		</defs>
		<clipPath id="SVGID_74_">
			<use xlink:href="#SVGID_73_"  style="overflow:visible;"/>
		</clipPath>
		<path id="XMLID_124_" class="st36" d="M1782.6,1227.6c-3.7,0.9-6.1-1.9-10.2-1.9c-4.7,0-18.1,1.2-20.6,5.6
			c-1.1,2.1,0.1,3.1,1.6,4.3c0.9,0.7,7.8,4.8,3.2,5.7c0.7,3.6,6.2,4.9,1.3,7c-3.7,1.5-15.4,2.4-16,8.4c-0.4,3.7,5.9,7.2,6.9,11
			c0.3,1.2,0.8,3.8,0.6,4.9c-8.4,0.5-16.4,0.1-23.5,5.4l-10.4,8.1c0.2,5.3-2.2,11,0.3,16.1c2.9,6,10.9,6.3,16.5,8
			c9.8,3,20.2,5,30.3,6.4c5.4,0.8,10.9-0.2,16.3-1.2c4.1-0.8,8.1-0.9,12.2-2v-87.3C1788.4,1225.7,1785.4,1227,1782.6,1227.6"/>
	</g>
	<g>
		<defs>
			<rect id="SVGID_75_" x="390.3" y="-545.8" width="1400.8" height="1963.8"/>
		</defs>
		<clipPath id="SVGID_76_">
			<use xlink:href="#SVGID_75_"  style="overflow:visible;"/>
		</clipPath>
		<path id="XMLID_123_" class="st37" d="M390.3,1293.3c6.4-0.7,12.1-1.8,18.5-2.5c20.3-2.2,41.1,1.4,61.4,1.7c21,0.3,42,0,63.1,0
			c17.8,0,35.2-2.8,53-1.6c9.1,0.6,18.4-0.1,27.6-0.5c3.6-0.2,7.4-0.8,11-0.4c4.4,0.4,8.4,2,12.9,2.1c10.1,0.2,19.9-2.7,30.1-2.6
			c4.7,0.1,9.3,0.5,14.1,0.5c16.3,0,32.6,1.5,49,1.5c12.8,0,25-0.5,37.7,0.5c13.6,1.1,27.6,3.7,41.3,3.6c16.2-0.2,31.2-1.4,47.3,1.2
			c18.4,3,36.7,3.7,55.4,3.8c6.8,0.1,13.7,1.1,20.3,2.4c7.9,1.6,15.2,2,23.2,2.3c12.5,0.5,24.7,2.2,36.9,3
			c5.3,0.4,10.4-1.3,15.7-1.6c7.1-0.4,14.2,0.3,21.3-0.8c12.3-2,23.4-1.4,35.7-0.1c9.6,1,18.8-3.3,28.3-2.9
			c10.4,0.4,20.9,0.3,31.3-1.5c9-1.6,16.6-5.5,25.9-6.2c12.7-1.1,25.7-0.9,38.4-1.5c7-0.4,14.2,0.4,20.8,1.9
			c6.1,1.4,15.9,2.4,19.4,7.6c-4.3,2.1-9.1,2.6-13.7,3.9c-5.4,1.6-10.5,4.2-15.6,6.5c-10.5,4.9-20.8,7.9-31.9,11.1
			c-14.6,4.2-29.6,5.8-44.6,8.1c-16.5,2.5-32.8,7.3-49.5,8.1c-38.2,1.7-76.4,1.1-114.6,1.1c-60,0-120.2,1.5-180.1,5.3H390.3V1293.3z
			"/>
	</g>
	<g>
		<defs>
			<rect id="SVGID_77_" x="390.3" y="-545.8" width="1400.8" height="1963.8"/>
		</defs>
		<clipPath id="SVGID_78_">
			<use xlink:href="#SVGID_77_"  style="overflow:visible;"/>
		</clipPath>
		<path id="XMLID_122_" class="st38" d="M1213.6,1298.9c-4.3-0.8-8.6-0.8-12.9-1.8c-8.1-1.8-15.1-0.4-23.1,0.6
			c-3.9,0.5-8.3-0.1-12.2-0.1c-6.1,0-10.4,2.4-16.1,3.8c-6.1,1.6-11.9,3.4-17.6,5.3c-5.4,1.8-11,1.2-16.5,1.7
			c-4.8,0.4-9.1,2-13.8,2.9c-10.4,1.9-21.3,1.7-31.8,1c-8.5-0.6-17.1-1.1-25.7-0.7c-10.6,0.5-20,3.7-30.9,3.1
			c-8.5-0.5-16.9-1.2-25.4-1.1c-5.4,0-11,0.5-16.3-0.5c-8.1-1.5-13-4.1-21.4-2.1c-8.4,1.9-16.7,1.3-25.2,0.8
			c-8.9-0.6-18,0.3-26.9-0.3c-9.8-0.7-18.1-4.9-27.4-7.1c-7.9-1.8-15.1-0.8-22.9,0.2c-10.9,1.4-21.1-0.7-31.9-0.6
			c-21.5,0.1-42.8,2.3-64.2,0.1c-7.4-0.8-14.6,0.3-22-1.4c-11.7-2.7-21.7-1.6-33.5,0c-10.8,1.5-20.8-1.6-31.6-2
			c-13.9-0.5-30.4-2.1-43.7,2.6c-7.7,2.7-11.7,5.5-19.8,4.7c-7.9-0.8-16.6-1.9-24.6-0.8c-11.3,1.6-21.2,4.7-32.9,3.7
			c-10.7-0.9-20.9-3.9-31.5-5.1c-16.2-1.7-32.5,0.9-48.8,0.7c-14.7-0.2-27.7,3.9-42.3,0.7c-7.7-1.7-13.1-2-20.9-0.7
			c-3.3,0.6-6.2,1.5-9.5,2.1v35.8l351.2-6.3c0,0,224.4-0.6,280.4,0.6c56,1.3,204.5-34.7,204.5-34.7
			C1222.1,1302.6,1218.2,1299.7,1213.6,1298.9"/>
	</g>
	<g>
		<defs>
			<rect id="SVGID_79_" x="390.3" y="-545.8" width="1400.8" height="1963.8"/>
		</defs>
		<clipPath id="SVGID_80_">
			<use xlink:href="#SVGID_79_"  style="overflow:visible;"/>
		</clipPath>
		<path id="XMLID_121_" class="st39" d="M1735.3,1291.7c-1-5.5-0.5-10.7-2.4-15.8c-2.1-5.5,0.5-11.1-7.9-12.4
			c-4.2-0.7-10.5,1.2-14.1-1.4c-1.6-1.2-1.9-3.6-3.8-4.8c-1.6-1-3.8-1.1-5.6-0.9c-11.1,1.1-7.2,13.3-10,20.9
			c-3.9-4.9-14.3-3.1-15.8-10.5c-0.3-1.6,0.4-3.5,0-5.1c-0.6-2-1.4-2.8-1.8-4.5c-0.5-2.3,0.8-5.1-0.7-7.3c-2-3-6.2-1.6-9.1-2.1
			c-5.9-1-10.4-7-16.9-6.2c-4.2,0.5-7.6,3.5-11.3,5.1c-1.8,0.8-3.6,0.8-5.4,1.4c-4.5,1.6-1.7,4.2-3.7,7.5c-2.1,3.4-8.8,3.5-10.8,6.8
			c-0.5,0.9,0.1,3.4,0,4.5c-0.4,6.2-6.3,5.7-11.4,5.3c-0.8-2.6-3.2-2.8-5.4-3.3c-5.1-1-9.2-1.5-12.5-6.2c-1.4-2-1.8-4.6-3.7-6.3
			c-3.7-3.3-10.9-0.4-15.5-3c-5-2.9-7.8-9.1-12.8-12.2c-4.8-3-10.4-1.2-15.4,0.1c-3.9,1.1-6.6,1.3-10.4,0.4c-3.5-0.8-6.4-1.6-10-1
			c-4.5,0.8-4.8,2.7-7.6,5.2c-4.2,3.8-9.8,2.9-12.7,8.5c-3.3,6.4-1.6,15.1-6.5,19.8c-3.5,3.3-4.9,7.5-8.3,10.7s-6.2,5.4-4.6,10.5
			c1.1,3.3,4,4.6,7.1,5.9l2.1,3.7c2.8-0.3,5.5,0.6,8.2,0.7c7.1,0.4,14.1-0.1,21.2-0.3c31.1-0.9,62.3-0.1,93.5-1.3
			c38.5-1.5,77.1-1.3,115.6-0.7C1734,1303.4,1736.5,1298.2,1735.3,1291.7"/>
	</g>
	<g>
		<defs>
			<rect id="SVGID_81_" x="390.3" y="-545.8" width="1400.8" height="1963.8"/>
		</defs>
		<clipPath id="SVGID_82_">
			<use xlink:href="#SVGID_81_"  style="overflow:visible;"/>
		</clipPath>
		<path id="XMLID_120_" class="st40" d="M1491.5,1292.9c-1.2-0.9-3.3-0.8-4.5-1.9c-0.5-0.5-0.6-1.1-1-1.6c-2.3-2.7-4.9-3.3-8.2-2.2
			c-1.8,0.6-2.7,1-4.7,0.1c-2.8-1.2-1.6-2.2-1.8-4.6c-0.8-8.9-16-8.9-20.3-2.9c-0.9,1.3-0.5,2.7-1.9,3.4c-0.8,0.4-2.2-0.2-3.1,0
			c-1,0.3-2,1.7-2.9,1.9c-1.3,0.3-2.7-0.7-3.9-1c-2.3-0.4-5.5-0.5-7.7,0.2c-4.3,1.2-4.3,4.8-6.3,8c-1.8,3-5,2.4-7.8,1.5
			c-1.6-0.5-3.1-0.9-4.7-0.4c-1.1,0.4-1.9,1-3.2,0.9c-1.2-0.1-2.4-0.9-3.6-1.3c-2-0.6-4.6-0.8-6.7-0.5c-2.6,0.4-4.9,2.1-7,3.6
			c-1.1,0.8-3.8,2-4,3.5l0.4,2.9c10.3,0,20.4,2,30.7,2c12.1,0,24.1,0,36.2,0c7.7,0,15.8,0.7,23.5-0.2c3.7-0.4,7.2-1.3,10.9-1.6
			c2.7-0.2,3.2-0.9,3.4-3.7C1493.6,1296.9,1493.3,1294.3,1491.5,1292.9"/>
	</g>
	<g>
		<defs>
			<rect id="SVGID_83_" x="390.3" y="-545.8" width="1400.8" height="1963.8"/>
		</defs>
		<clipPath id="SVGID_84_">
			<use xlink:href="#SVGID_83_"  style="overflow:visible;"/>
		</clipPath>
		<path id="XMLID_119_" class="st41" d="M1402,1249.9c-0.3-4.6,1.8-6.9-2.4-10.5c-1.8-1.6-3.8-3.1-5.4-4.6c-1.2-1.1-1.2-0.9-2.7-1.2
			c-1.5-0.3-4.4-0.1-5.7-0.9c-1.2-0.8-1.9-3.3-2.5-4.5c-0.8-1.5-1.6-3.2-2.9-4.2c-0.4-0.3-4.5-1.6-4.3-1c-0.7-2.1-2-5-4.7-4.7
			c-2.6-5.6-7.1-8.9-13.6-8.6c-2,0.1-4.6,0.5-6.2,1.8c-2,1.6-1.4,2.9-1.5,5.3c-0.6,11.8-20.6,0.9-22.1,12.5
			c-0.2,1.3,0.5,1.1-0.3,2.1c-1.3,1.6-4.7,1.9-6.3,3.6c-1.4,1.5-1,1.7-3.1,2.4c-2.9,0.9-5.5,1.2-7.3,3.9c-4.1,6.1,5.5,8,6.6,12.5
			c0.7,3.1-3,5.7-2.6,8.8c-4.3,0.4-13.1-1-16.2,2.8c-3.2,4,0.4,7.7,1.7,11.3c0.9,2.6-1.1,1.8-1.6,4.1c-0.7,3.1,4.3,3.2,5.2,5.5
			c0.2,0.4-0.2,1.1,0,1.5c0.5,1.5,2.4,2,2.8,3.2c0.6,1.8-1.1,1.4-2.3,2.7c-2,2.2-1,5,0.7,7.2c4,5.1,10.4,4.5,16.2,4.2
			c8-0.3,15.9-1,24-1c7.2,0,12.8,4.1,20.1,4.9c11.9,1.3,26.7,1.6,36.9-5.7c2.9-2.1,4.9-3.9,3.7-7.5c-0.6-1.7-1.7-3.9-1.8-5.7
			c-0.1-2.6,1.9-2.1,2.8-4.2c1-2.2-1.1-3.5-2.2-5.1c-1.5-2.2-3-4.7-3.3-7.3c-0.5-5.4,5.5-7.4,6-12.3
			C1407.9,1256.9,1402.3,1254.4,1402,1249.9"/>
	</g>
</g>
<g>
	<g>
		<defs>
			<polygon id="SVGID_85_" points="1277.4,1300.9 1280.6,1300.9 1280.1,1179.3 1278.5,1179 			"/>
		</defs>
		<clipPath id="SVGID_86_">
			<use xlink:href="#SVGID_85_"  style="overflow:visible;"/>
		</clipPath>
		
			<linearGradient id="XMLID_3_" gradientUnits="userSpaceOnUse" x1="1179.7081" y1="-532.5895" x2="1180.7081" y2="-532.5895" gradientTransform="matrix(0 106.732 -14.4774 0 -6431.562 -124721.6406)">
			<stop  offset="0" style="stop-color:#FFFDEB"/>
			<stop  offset="1" style="stop-color:#947839"/>
		</linearGradient>
		<rect id="XMLID_117_" x="1277.4" y="1179" class="st42" width="3.1" height="121.8"/>
	</g>
</g>
<g>
	<g>
		<defs>
			<rect id="SVGID_87_" x="390.3" y="-545.8" width="1400.8" height="1963.8"/>
		</defs>
		<clipPath id="SVGID_88_">
			<use xlink:href="#SVGID_87_"  style="overflow:visible;"/>
		</clipPath>
		<path id="XMLID_115_" class="st43" d="M1302.2,1215.6c-0.2-3.6-7.1-4.4-10.7-4.1c-1.5,0.1-5.4,0.8-6.7,0.2c-0.7-0.4,0-1.1-0.6-1.5
			c-1.5-1-3.6-0.1-4.5-2c-0.3-0.6,0.2-1.4,0-2c-0.3-1.4-2.3-1.7-2.8-2.6c-1.2-2.3,6.9-2.4,9.1-2.5c3.6,0,2.4,0.1,3.6,2.1
			c1.5,2.4,5.1,2.5,8.3,2.3c1.6-0.1,4-0.8,4.8-1.9c-3-0.4-1.2-2.4-1.9-3.8c-1.1-2.3-7.8-4.5-11-5c-0.8-0.1-3.5,0-3.8-0.8
			c-0.5-1.2,2.8-1.7,4-1.9c3.2-0.5,6.9,0.5,9.9-0.6c0-0.4,0.4-0.7,0.4-1c5.5-0.5,2.7-4.6-0.2-5.9c-1.4-0.6-7.5-2.5-8.5-1.2l-0.3-0.6
			c-0.5-1.5-4.5-2.7-6.6-2.6c-2.5,0-4.2,1.9-6.7,1.7c-4.7-0.2-10.5-3.8-15.1-0.6c-1.4,1-0.9,1.9-1.6,2.9c-0.4,0.7-1,0.5-1.8,1.1
			c-1.9,1.4-1.2,5.6,0,7c3.3,3.9,5.3,0.1,9.6,0c1.9-0.1,5,1.3,4.5,2.8c1.1,0.1,1.7,0.8,1.5,1.6c-0.2,1-2.5,1.5-3.7,1.9
			c-2.2,0.8-3.2,1.5-2.9,3.6c0.3,1.8,1.9,2.5,3.7,3.6c0.6,0.4,1.8,0.6,2,1.3c0.4,1.7-5.2,1.1-6.1,3.5c-1.4,3.8,6.5,2.2,7.2,5
			c-1.8,0.7-2.6,1.8-2,3.3c1.5,3.9,10.5,4.3,14.5,3.3c1.7-0.5,2.8-0.9,4.7-1c1.5,0,3.1,0,4.4,0.4c0.3,0.1,1.1,0.7,1.3,0.8
			c1.5,0.3,3.2,0,5-0.1c0.4-1.8-1.9-2.8-2-4.3C1301.5,1217,1302.3,1216.6,1302.2,1215.6"/>
	</g>
	<g>
		<defs>
			<rect id="SVGID_89_" x="390.3" y="-545.8" width="1400.8" height="1963.8"/>
		</defs>
		<clipPath id="SVGID_90_">
			<use xlink:href="#SVGID_89_"  style="overflow:visible;"/>
		</clipPath>
		<path id="XMLID_114_" class="st44" d="M1304.8,1251.5c-0.4-0.9-2.1-1.4-2.3-2.2c-0.3-0.8,0.6-2.1,0.6-3c0-1.2-0.3-2.5-0.7-3.6
			c-1-2.6-3-5.1-5.9-6.6c-2.4-1.3-4.9-2.2-7.1-3.2c-2.5-1.2-4.5-1.8-7.6-1.5c-1.9,0.2-3.1,0.7-4.3,1.9c-1.7,1.6-1.1,2.2-3.9,1.9
			c-2.4-0.2-5-1.2-7.4-0.9c-1.2,0.2-4.4,1.4-4.8,2.4c-0.9,1.9,3,2.8,2,4.5c-0.4,0.6-3.7,1.6-4.6,2.1c-1.1,0.6-2.3,1.3-2.9,2.3
			c-0.6,1-0.8,2-0.3,3.1c1.2,2.6,4.2,2.8,6.8,3.8c2.7,1,0.6,1.7-1.1,2.8c-1.7,1.2-2.6,3-1.3,4.8c1.6,2,4.9,2.1,7.2,1.1
			c3.3-1.5,5.4-2.3,9.5-1.9c2.1,0.2,3.9,1.3,6,1.5c1.1,0.1,2.7,0.1,3.8,0c2.3-0.3,3.9-2.1,6.1-2.5c1.8-0.3,3.6,0.5,5.5,0.2
			c2.6-0.4,2.9-2,4.7-3C1304.7,1254.2,1305.9,1253.8,1304.8,1251.5"/>
	</g>
	<g>
		<defs>
			<rect id="SVGID_91_" x="390.3" y="-545.8" width="1400.8" height="1963.8"/>
		</defs>
		<clipPath id="SVGID_92_">
			<use xlink:href="#SVGID_91_"  style="overflow:visible;"/>
		</clipPath>
		<path id="XMLID_112_" class="st45" d="M935.4,1223.8c5-1.1,9.9,0.8,14.8,0.3c2.6-0.3,5-1.9,7.7-1.5c1.3,0.2,2.2,0.6,3.6,0.5
			c-0.4-5.6,8.9-11.6,10.7-4.3c1.2,0.3,2.7,0.6,3.9,0.3c0.5-0.1,1.1-0.7,1.5-0.7c2,0,2.8,2.7,4.6,3.3c1.8,0.6,4.3-1.1,6.2-1.3
			c2.2-0.2,2.9,1,4.7,1.5c2.3,0.7,5.4-0.7,7.9-0.5c1.8,0.1,4.7-0.1,6.2,1s1.1,1.6-0.2,2.1c-2.1,0.8-5.9-0.3-8.2-0.3
			c-12.3,0-24.4,1.3-36.6,1.3c-6.2,0-12.7,0.2-18.9,0.3c-1.4,0-7.3,0.8-8.4-0.8L935.4,1223.8z"/>
	</g>
</g>
<g>
	<g>
		<defs>
			<path id="SVGID_93_" d="M1066.1,1365.5c3.7-0.1,7.4-0.2,11-0.2C1073.5,1365.3,1069.8,1365.4,1066.1,1365.5"/>
		</defs>
		<clipPath id="SVGID_94_">
			<use xlink:href="#SVGID_93_"  style="overflow:visible;"/>
		</clipPath>
		
			<linearGradient id="XMLID_4_" gradientUnits="userSpaceOnUse" x1="1107.8895" y1="-583.5833" x2="1108.8901" y2="-583.5833" gradientTransform="matrix(11.0369 0 0 11.5553 -11161.5078 8108.8799)">
			<stop  offset="0" style="stop-color:#A4D38C"/>
			<stop  offset="0.5449" style="stop-color:#83BB68"/>
			<stop  offset="1" style="stop-color:#A4D38C"/>
		</linearGradient>
		<rect id="XMLID_110_" x="1066.1" y="1365.3" class="st46" width="11" height="0.2"/>
	</g>
</g>
<g>
	<g>
		<defs>
			<path id="SVGID_95_" d="M1045.7,1366.3c6.8-0.3,13.6-0.6,20.4-0.8C1059.3,1365.6,1052.5,1365.9,1045.7,1366.3"/>
		</defs>
		<clipPath id="SVGID_96_">
			<use xlink:href="#SVGID_95_"  style="overflow:visible;"/>
		</clipPath>
		
			<linearGradient id="XMLID_5_" gradientUnits="userSpaceOnUse" x1="1140.7225" y1="-583.7738" x2="1141.7233" y2="-583.7738" gradientTransform="matrix(20.4226 0 0 12.1957 -22250.8203 8485.4297)">
			<stop  offset="0" style="stop-color:#A4D38C"/>
			<stop  offset="0.5449" style="stop-color:#83BB68"/>
			<stop  offset="1" style="stop-color:#A4D38C"/>
		</linearGradient>
		<rect id="XMLID_108_" x="1045.7" y="1365.5" class="st47" width="20.4" height="0.8"/>
	</g>
</g>
<g>
	<g>
		<defs>
			<path id="SVGID_97_" d="M847.7,1398.8c4.8,0.1,9.5,0.2,14.3,0.1C857.3,1398.8,852.5,1398.8,847.7,1398.8z"/>
		</defs>
		<clipPath id="SVGID_98_">
			<use xlink:href="#SVGID_97_"  style="overflow:visible;"/>
		</clipPath>
		
			<linearGradient id="XMLID_6_" gradientUnits="userSpaceOnUse" x1="1124.1975" y1="-583.5813" x2="1125.1973" y2="-583.5813" gradientTransform="matrix(14.3042 0 0 11.5331 -15233.0098 8129.4014)">
			<stop  offset="0" style="stop-color:#A4D38C"/>
			<stop  offset="0.5449" style="stop-color:#83BB68"/>
			<stop  offset="1" style="stop-color:#A4D38C"/>
		</linearGradient>
		<rect id="XMLID_106_" x="847.7" y="1398.8" class="st48" width="14.3" height="0.2"/>
	</g>
</g>
<path id="XMLID_113_" class="st49" d="M1791.1,1299.5h-525.4c-52.8,0-73.9,0-112,10.5c-38,10.5-82.4,19-122.5,19
	c-40.1,0-90.8-2.1-232.3-4.2c-128-1.9-364.3,6.5-408.5,8.1v85h1400.8v-118.4H1791.1z"/>
</svg>
