<?xml version="1.0" encoding="utf-8"?>
<!-- Generator: Adobe Illustrator 19.0.0, SVG Export Plug-In . SVG Version: 6.00 Build 0)  -->
<svg version="1.1" id="Layer_1" xmlns="http://www.w3.org/2000/svg" xmlns:xlink="http://www.w3.org/1999/xlink" x="0px" y="0px"
	 viewBox="0 0 1398.1 1964.8" style="enable-background:new 0 0 1398.1 1964.8;" xml:space="preserve">
<style type="text/css">
	.st0{clip-path:url(#XMLID_20_);fill:url(#XMLID_21_);}
	.st1{clip-path:url(#XMLID_22_);fill:#65876E;}
	.st2{clip-path:url(#XMLID_22_);fill:#66886F;}
	.st3{clip-path:url(#XMLID_23_);fill:url(#XMLID_24_);}
	.st4{clip-path:url(#XMLID_25_);fill:url(#XMLID_26_);}
	.st5{clip-path:url(#XMLID_27_);fill:url(#XMLID_28_);}
</style>
<g id="XMLID_1_">
	<defs>
		<polygon id="XMLID_160_" points="-2.7,0 -2.7,1963.8 1398.1,1963.8 1398.1,0 		"/>
	</defs>
	<clipPath id="XMLID_20_">
		<use xlink:href="#XMLID_160_"  style="overflow:visible;"/>
	</clipPath>
	
		<linearGradient id="XMLID_21_" gradientUnits="userSpaceOnUse" x1="392.9393" y1="1378.5333" x2="393.9393" y2="1378.5333" gradientTransform="matrix(0 -1484.755 -1411.1499 0 1946014.875 585717)">
		<stop  offset="0" style="stop-color:#FFFFFF"/>
		<stop  offset="1" style="stop-color:#AAE1FA"/>
	</linearGradient>
	<rect id="XMLID_161_" x="-2.7" y="0" class="st0" width="1400.8" height="1963.8"/>
</g>
<g id="XMLID_2_">
	<defs>
		<rect id="XMLID_118_" x="-2.7" width="1400.8" height="1963.8"/>
	</defs>
	<clipPath id="XMLID_22_">
		<use xlink:href="#XMLID_118_"  style="overflow:visible;"/>
	</clipPath>
	<rect id="XMLID_144_" x="61.8" y="1772.3" class="st1" width="1.2" height="6.1"/>
	<path id="XMLID_133_" class="st2" d="M457.2,1801.6c0-0.3,0-0.6-0.1-0.9c-0.8-0.3-1.5-0.6-2.3-0.6L457.2,1801.6z"/>
</g>
<g id="XMLID_5_">
	<defs>
		<path id="XMLID_109_" d="M673.1,1911.3c3.7-0.1,7.4-0.2,11-0.2C680.5,1911.1,676.8,1911.2,673.1,1911.3"/>
	</defs>
	<clipPath id="XMLID_23_">
		<use xlink:href="#XMLID_109_"  style="overflow:visible;"/>
	</clipPath>
	
		<linearGradient id="XMLID_24_" gradientUnits="userSpaceOnUse" x1="357.4973" y1="1327.6267" x2="358.498" y2="1327.6267" gradientTransform="matrix(11.0369 0 0 -11.5553 -3272.5046 17252.2324)">
		<stop  offset="0" style="stop-color:#A4D38C"/>
		<stop  offset="0.5449" style="stop-color:#83BB68"/>
		<stop  offset="1" style="stop-color:#A4D38C"/>
	</linearGradient>
	<rect id="XMLID_110_" x="673.1" y="1911.1" class="st3" width="11" height="0.2"/>
</g>
<g id="XMLID_6_">
	<defs>
		<path id="XMLID_107_" d="M652.7,1912.1c6.8-0.3,13.6-0.6,20.4-0.8C666.3,1911.4,659.5,1911.7,652.7,1912.1"/>
	</defs>
	<clipPath id="XMLID_25_">
		<use xlink:href="#XMLID_107_"  style="overflow:visible;"/>
	</clipPath>
	
		<linearGradient id="XMLID_26_" gradientUnits="userSpaceOnUse" x1="373.966" y1="1330.2854" x2="374.9667" y2="1330.2854" gradientTransform="matrix(20.4226 0 0 -12.1957 -6984.6567 18135.4668)">
		<stop  offset="0" style="stop-color:#A4D38C"/>
		<stop  offset="0.5449" style="stop-color:#83BB68"/>
		<stop  offset="1" style="stop-color:#A4D38C"/>
	</linearGradient>
	<rect id="XMLID_108_" x="652.7" y="1911.3" class="st4" width="20.4" height="0.8"/>
</g>
<g id="XMLID_7_">
	<defs>
		<path id="XMLID_105_" d="M454.7,1944.6c4.8,0.1,9.5,0.2,14.3,0.1C464.3,1944.6,459.5,1944.6,454.7,1944.6z"/>
	</defs>
	<clipPath id="XMLID_27_">
		<use xlink:href="#XMLID_105_"  style="overflow:visible;"/>
	</clipPath>
	
		<linearGradient id="XMLID_28_" gradientUnits="userSpaceOnUse" x1="365.672" y1="1327.5295" x2="366.6726" y2="1327.5295" gradientTransform="matrix(14.3042 0 0 -11.5331 -4775.9087 17255.1895)">
		<stop  offset="0" style="stop-color:#A4D38C"/>
		<stop  offset="0.5449" style="stop-color:#83BB68"/>
		<stop  offset="1" style="stop-color:#A4D38C"/>
	</linearGradient>
	<rect id="XMLID_106_" x="454.7" y="1944.6" class="st5" width="14.3" height="0.2"/>
</g>
</svg>
