<?xml version="1.0" encoding="utf-8"?>
<!-- Generator: Adobe Illustrator 19.0.0, SVG Export Plug-In . SVG Version: 6.00 Build 0)  -->
<svg version="1.1" id="Layer_1" xmlns="http://www.w3.org/2000/svg" xmlns:xlink="http://www.w3.org/1999/xlink" x="0px" y="0px"
	 viewBox="0 0 524.2 91" style="enable-background:new 0 0 524.2 91;" xml:space="preserve">
<style type="text/css">
	.st0{clip-path:url(#SVGID_2_);fill:#958D8A;}
	.st1{clip-path:url(#SVGID_4_);fill:#7E9BAE;}
	.st2{clip-path:url(#SVGID_6_);fill:#62889E;}
	.st3{clip-path:url(#SVGID_8_);fill:#62889E;}
	.st4{clip-path:url(#SVGID_10_);fill:#6B8EA3;}
	.st5{clip-path:url(#SVGID_12_);fill:#C2D197;}
	.st6{clip-path:url(#SVGID_14_);fill:url(#SVGID_15_);}
	.st7{clip-path:url(#SVGID_17_);fill:#4B6730;}
	.st8{clip-path:url(#SVGID_19_);fill:url(#SVGID_20_);}
	.st9{clip-path:url(#SVGID_22_);fill:#4B6730;}
	.st10{clip-path:url(#SVGID_24_);fill:url(#SVGID_25_);}
	.st11{clip-path:url(#SVGID_27_);fill:#4B6730;}
	.st12{clip-path:url(#SVGID_29_);fill:url(#SVGID_30_);}
	.st13{clip-path:url(#SVGID_32_);fill:#4F6B31;}
	.st14{clip-path:url(#SVGID_34_);fill:url(#SVGID_35_);}
	.st15{clip-path:url(#SVGID_37_);fill:url(#SVGID_38_);}
	.st16{clip-path:url(#SVGID_40_);fill:url(#SVGID_41_);}
	.st17{clip-path:url(#SVGID_43_);fill:#4F6B31;}
	.st18{clip-path:url(#SVGID_45_);fill:url(#SVGID_46_);}
	.st19{clip-path:url(#SVGID_48_);fill:#697C35;}
	.st20{clip-path:url(#SVGID_50_);fill:#48642E;}
	.st21{clip-path:url(#SVGID_52_);fill:#697C35;}
	.st22{clip-path:url(#SVGID_54_);fill:#48642E;}
	.st23{clip-path:url(#SVGID_56_);fill:#98928E;}
	.st24{clip-path:url(#SVGID_58_);fill:#CAC5C2;}
	.st25{clip-path:url(#SVGID_60_);fill:#A7A19E;}
	.st26{clip-path:url(#SVGID_62_);fill:#A7A19E;}
	.st27{clip-path:url(#SVGID_64_);fill:#867F7C;}
	.st28{clip-path:url(#SVGID_66_);fill:#6B6460;}
	.st29{clip-path:url(#SVGID_68_);fill:url(#SVGID_69_);}
	.st30{clip-path:url(#SVGID_71_);fill:#D3C99E;}
	.st31{clip-path:url(#SVGID_73_);fill:#D3C99E;}
	.st32{clip-path:url(#SVGID_75_);fill:url(#SVGID_76_);}
	.st33{clip-path:url(#SVGID_78_);fill:url(#SVGID_79_);}
	.st34{clip-path:url(#SVGID_81_);fill:url(#SVGID_82_);}
	.st35{clip-path:url(#SVGID_84_);fill:#697C35;}
	.st36{clip-path:url(#SVGID_86_);fill:#48642E;}
	.st37{clip-path:url(#SVGID_88_);fill:url(#SVGID_89_);}
	.st38{clip-path:url(#SVGID_91_);fill:#697C35;}
	.st39{clip-path:url(#SVGID_93_);fill:#48642E;}
	.st40{clip-path:url(#SVGID_95_);fill:#48642E;}
	.st41{clip-path:url(#SVGID_97_);fill:url(#SVGID_98_);}
	.st42{clip-path:url(#SVGID_100_);fill:#98928E;}
	.st43{clip-path:url(#SVGID_102_);fill:#6A635F;}
	.st44{clip-path:url(#SVGID_104_);fill:#D3C99E;}
	.st45{clip-path:url(#SVGID_106_);fill:url(#SVGID_107_);}
	.st46{clip-path:url(#SVGID_109_);fill:url(#SVGID_110_);}
	.st47{clip-path:url(#SVGID_112_);fill:#E1D8B6;}
	.st48{clip-path:url(#SVGID_114_);fill:#E1D8B6;}
	.st49{fill:#5D677A;}
	.st50{fill:#3F495B;}
	.st51{fill:#958D8A;}
	.st52{fill:#7F7975;}
	.st53{fill:#6E6865;}
	.st54{fill:#BFBAB6;}
	.st55{clip-path:url(#SVGID_116_);fill:url(#SVGID_117_);}
	.st56{clip-path:url(#SVGID_119_);fill:url(#SVGID_120_);}
	.st57{clip-path:url(#SVGID_122_);fill:#697C35;}
	.st58{clip-path:url(#SVGID_124_);fill:#48642E;}
	.st59{clip-path:url(#SVGID_126_);fill:#FFFFFF;}
	.st60{clip-path:url(#SVGID_128_);fill:#8AACD0;}
	.st61{clip-path:url(#SVGID_130_);fill:#7F7975;}
	.st62{clip-path:url(#SVGID_132_);fill:#C1BBB9;}
	.st63{clip-path:url(#SVGID_134_);fill:#9F735D;}
	.st64{clip-path:url(#SVGID_136_);fill:#1A4A6B;}
	.st65{clip-path:url(#SVGID_138_);fill:#708CA9;}
	.st66{clip-path:url(#SVGID_140_);fill:#1A4A6B;}
	.st67{clip-path:url(#SVGID_142_);fill:#708CA9;}
	.st68{clip-path:url(#SVGID_144_);fill:#1A4A6B;}
	.st69{clip-path:url(#SVGID_146_);fill:#708CA9;}
	.st70{clip-path:url(#SVGID_148_);fill:#708CA9;}
	.st71{clip-path:url(#SVGID_150_);fill:#708CA9;}
	.st72{clip-path:url(#SVGID_152_);fill:#708CA9;}
	.st73{clip-path:url(#SVGID_154_);fill:#708CA9;}
	.st74{clip-path:url(#SVGID_156_);fill:#1A4A6B;}
	.st75{clip-path:url(#SVGID_158_);fill:#708CA9;}
	.st76{clip-path:url(#SVGID_160_);fill:#1A4A6B;}
	.st77{clip-path:url(#SVGID_162_);fill:#708CA9;}
	.st78{clip-path:url(#SVGID_164_);fill:#1A4A6B;}
	.st79{clip-path:url(#SVGID_166_);fill:#708CA9;}
	.st80{clip-path:url(#SVGID_168_);fill:#708CA9;}
	.st81{clip-path:url(#SVGID_170_);fill:#708CA9;}
	.st82{clip-path:url(#SVGID_172_);fill:#708CA9;}
	.st83{clip-path:url(#SVGID_174_);fill:#708CA9;}
	.st84{clip-path:url(#SVGID_176_);fill:#1A4A6B;}
	.st85{clip-path:url(#SVGID_178_);fill:#708CA9;}
	.st86{clip-path:url(#SVGID_180_);fill:#1A4A6B;}
	.st87{clip-path:url(#SVGID_182_);fill:#708CA9;}
	.st88{clip-path:url(#SVGID_184_);fill:#1A4A6B;}
	.st89{clip-path:url(#SVGID_186_);fill:#708CA9;}
	.st90{clip-path:url(#SVGID_188_);fill:#1A4A6B;}
	.st91{clip-path:url(#SVGID_190_);fill:#708CA9;}
	.st92{clip-path:url(#SVGID_192_);fill:#1A4A6B;}
	.st93{clip-path:url(#SVGID_194_);fill:#708CA9;}
	.st94{clip-path:url(#SVGID_196_);fill:#708CA9;}
	.st95{clip-path:url(#SVGID_198_);fill:#708CA9;}
	.st96{clip-path:url(#SVGID_200_);fill:#708CA9;}
	.st97{clip-path:url(#SVGID_202_);fill:#708CA9;}
	.st98{clip-path:url(#SVGID_204_);fill:#8E5D46;}
	.st99{clip-path:url(#SVGID_206_);fill:#9F735D;}
	.st100{clip-path:url(#SVGID_208_);fill:#9F735D;}
	.st101{clip-path:url(#SVGID_210_);fill:#B3C6DF;}
	.st102{clip-path:url(#SVGID_212_);fill:#A8602E;}
	.st103{clip-path:url(#SVGID_214_);fill:#69625F;}
	.st104{clip-path:url(#SVGID_216_);fill:#688139;}
	.st105{clip-path:url(#SVGID_218_);fill:#5A7836;}
	.st106{clip-path:url(#SVGID_220_);fill:#48642E;}
	.st107{clip-path:url(#SVGID_222_);fill:#688139;}
	.st108{clip-path:url(#SVGID_224_);fill:#557233;}
	.st109{clip-path:url(#SVGID_226_);fill:#688139;}
	.st110{clip-path:url(#SVGID_228_);fill:#536D31;}
	.st111{clip-path:url(#SVGID_230_);fill:#688139;}
	.st112{clip-path:url(#SVGID_232_);fill:#536D31;}
	.st113{clip-path:url(#SVGID_234_);fill:#5A7836;}
	.st114{clip-path:url(#SVGID_236_);fill:#48642E;}
	.st115{clip-path:url(#SVGID_238_);fill:#5A7836;}
	.st116{clip-path:url(#SVGID_240_);fill:#5A7836;}
	.st117{clip-path:url(#SVGID_242_);fill:#5A7836;}
	.st118{clip-path:url(#SVGID_244_);fill:#5A7836;}
	.st119{clip-path:url(#SVGID_246_);fill:#536D31;}
	.st120{clip-path:url(#SVGID_248_);fill:url(#SVGID_249_);}
	.st121{clip-path:url(#XMLID_97_);fill:#586F31;}
</style>
<g>
	<g>
		<g>
			<g>
				<defs>
					<rect id="SVGID_1_" x="-36.2" y="-678.4" width="595.3" height="841.9"/>
				</defs>
				<clipPath id="SVGID_2_">
					<use xlink:href="#SVGID_1_"  style="overflow:visible;"/>
				</clipPath>
				<path class="st0" d="M242,55.9V30.7l-0.7-3l-0.8,2.5v-3l-0.1-1.3l-0.2,1.1l-0.7-3.3l-0.7,3L235,0.5l-3.7,26.3l-0.5-3.2l-0.5,3.2
					l-0.3-0.7l-0.1,1.7l-0.1,2.4l-0.6-2.4l-0.7,2.9v25.1c1.8,0.8,2.8,1.5,7,1.6C238.2,57.5,240.2,56.8,242,55.9"/>
			</g>
		</g>
	</g>
	<g>
		<g>
			<g>
				<defs>
					<rect id="SVGID_3_" x="-36.2" y="-678.4" width="595.3" height="841.9"/>
				</defs>
				<clipPath id="SVGID_4_">
					<use xlink:href="#SVGID_3_"  style="overflow:visible;"/>
				</clipPath>
				<path class="st1" d="M0,60.1c1.1-0.7,3-1.4,4.3-1.6c0.8-0.1,1.7,0.1,2.4,0c0.9-0.2,1.6-1,2.7-0.9c0.8,0.1,1,0.8,1.7,0.9
					c0.4,0.1,2.8-2.4,3.1-2.7c1.3-1,3.1-2.2,4.8-2.1c1.2,0.1,1.8,0.5,2.4,1.5c0.7-0.3,1.1-1.1,1.7-1.5c1-0.8,2.1-1,3.3-1.1
					c0.4,0,0.7,0.2,1.1,0.1c0.9-0.2,1.8-1.2,2.8-1.5c1.3-0.3,2.1-0.1,3.2,0.6c0.8,0.5,2,2.1,2.9,2.3c0.9,0.2,1.7-0.6,2.4-1.4
					c1.2-1.3,2.4-2.6,4.6-2.2c1.4,0.3,2,1.7,3.3,1.8c1.2,0,1.3-1,2.2-1.8c1.5-1.1,2.3,0,3.8-0.3c0.5-0.1,0.9-0.7,1.5-0.9
					c0.2-0.1,2.2-0.3,2.2-0.4c-0.1-2.3,1.7-3.5,3.9-2.2c1.2-2.1,6.3,1.6,6.1,3.5c1.5,0.1,1.7-0.2,2.8-0.9c1.5-0.8,2.9-0.1,4.4,0.2
					c0,0.3,0.1,0.7,0.1,1c0.8,0.1,1.2-1.1,1.8-1.6c0.4-0.3,1.1-0.7,1.5-0.9c0.3-0.2,0.5-0.6,1.2-0.7c0.6-0.1,1.2-0.2,1.7-0.3
					c1.4-0.3,1.7-0.1,2.8,0.9c0.3,0.3,0.1,0.6,0.5,0.8c0.3,0.1,0.7-0.1,1,0s0.2,0.6,0.5,0.8c0.2,0.1,0.7,0,0.8,0.1
					c0.5,0.4,0.3,0.9,1.2,0.9c0.6,0,1-0.9,1.8-0.9c0.5-2.7,3.3-2,5.1-2.2c0.3-1.9,2.2-1.9,3.7-2.2c0.8-0.2,0.6-0.7,1.7,0
					c1,0.6,3.4,2.8,3.5,4l1.6,2.5c0,0.8,0,1.6,0,2.3c-5.5,1.3-10.8,2.7-16.4,3.3c-5.3,0.6-10.7,1.2-16,1.4
					c-4.4,0.1-8.8,0.8-13.2,1.3c-2.9,0.3-5.7,0.9-8.6,1.1c-3.1,0.2-6.2,0-9.3,0c-6.3,0.1-12.5,1.1-18.8,1c-1.5,0-17.7,1-21.9,0.2
					v-1.5C0.2,60.4,0,60.1,0,60.1"/>
			</g>
		</g>
	</g>
	<g>
		<g>
			<g>
				<defs>
					<rect id="SVGID_5_" x="-36.2" y="-678.4" width="595.3" height="841.9"/>
				</defs>
				<clipPath id="SVGID_6_">
					<use xlink:href="#SVGID_5_"  style="overflow:visible;"/>
				</clipPath>
				<path class="st2" d="M51.2,53.8c0.6-0.7,1.3-0.4,1.7-1.1c0.3-0.5,0.3-1.2,0.9-1.7c0.9-0.7,2.4-0.7,3.3-0.3
					c0.2-0.5,0.1-1,0.2-1.5s0.5-0.8,0.8-1.3c0.3-0.4,0.2-0.7,0.9-0.6c0.3,0,0.8,0.4,1,0.5c0.5,0.3,0.5,0.4,0.6,0.9s0,1.7,0.9,1.4
					c1.1-0.3,0-1.7-0.4-2c0.4-0.3,1.6-0.5,2.1-0.2s0.3,0.9,0.6,1.3c0.6,0.6,1.4,0.8,1.9,1.7c-0.9,0.9-1.3,1.2-2.5,1.5
					c-0.5,0.1-1.8,0.6-1,1.3c0.8-0.4,1.7-0.1,2.4-0.3c0.2-0.1,0.3-0.3,0.5-0.4c0.4-0.2,0.9,0,1.3-0.1c1-0.3,2.2-1,3.3-1.2
					c0.4-0.1,0.9-0.2,1.3-0.1c0.7,0.2,0.7,0.9,1.2,1.2c1.5,1,3.1-1.4,3.7-2.5c0.5-1,0.6-1.4,1.7-1.6c1.2-0.3,2.9-0.3,4.2,0.1
					c0.1,0.6-0.2,0.7-0.6,0.9c-0.3,0.2-0.9,0.2-1.1,0.5c-0.1,0.1,0,0.5-0.1,0.7c-0.2,0.3-1.5,1.5-0.7,1.8c0.1,0,1.1-0.6,1.2-0.7
					c0.5-0.5,0.6-1.3,1.3-1.7c0.4-0.2,1.4-0.2,1.8-0.1c1,0.2,1.7,1.5,2.8,1.3c0.8-0.2,1-0.6,2-0.6c0.4,0,0.9,0.1,1.3,0.1
					c0.2-0.9,1.1-0.8,1.8-1c0.8-0.2,1-0.4,1.5-0.9s0.9-1.1,1.7-1.2c0.8-0.1,1.5,0.6,2.2,0.4c0.8-0.3,0.9-0.8,1.9-0.7
					c1.2,0.1,2.3,1.3,2.5,2.5l0.2,1.4c0.1,1.4-1,2.6-2.2,3.1c-3.4,1.4-7.6,0.8-11.3,0.8c-6.7,0-13.4,0.7-20.2,0.5
					c-3.9-0.1-7.7,0-11.6-0.2c-1.8-0.1-4.1-0.2-5.8,0.3C50.3,55.5,50.9,54.2,51.2,53.8"/>
			</g>
		</g>
	</g>
	<g>
		<g>
			<g>
				<defs>
					<rect id="SVGID_7_" x="-36.2" y="-678.4" width="595.3" height="841.9"/>
				</defs>
				<clipPath id="SVGID_8_">
					<use xlink:href="#SVGID_7_"  style="overflow:visible;"/>
				</clipPath>
				<path class="st3" d="M38.3,54.6c0.3-0.3,0.6-0.5,0.7-0.9c0.2-0.4,0.2-0.7,0.6-1c0.6-0.5,1.6-0.8,2.4-1c0.6-0.2,1.2-0.1,1.8,0.1
					s1.3,0.4,1.8,0.8c0.2,0.1,0.5,0.4,0.6,0.6c-0.8,0.2-1.4,1.2-1.2,2c0.5,0.1,0.7-0.4,0.9-0.7c0.2-0.4,0.4-0.5,0.8-0.7
					c0.6-0.3,0.7-0.7,1.1-1.2c0.2-0.3,0.6-0.6,0.9-0.8c0.7-0.5,1.3-0.5,2.2-0.4c0.5,0,1.1,0,1,0.6l-0.1-0.1c0,0.5-0.8,0.7-1.2,0.8
					c-0.4,0.2-0.5,0.3-0.6,0.8c-0.1,0.3-0.1,0.5-0.3,0.8c-0.3,0.4-0.3,0.6-0.3,1.1c0,0.4,0.1,0.5-0.4,0.5c-0.9,0.1-1.8-0.2-2.8,0
					c-0.7,0.1-1.3,0.5-2,0.6c-1,0.2-1.9-0.3-2.9-0.1c-0.6,0.1-1,0.4-1.6,0.4c-0.4,0-0.8,0.1-1.2,0.2c-0.2,0-1,0-1.2-0.1
					C36.6,56.2,38,54.9,38.3,54.6"/>
			</g>
		</g>
	</g>
	<g>
		<g>
			<g>
				<defs>
					<rect id="SVGID_9_" x="-36.2" y="-678.4" width="595.3" height="841.9"/>
				</defs>
				<clipPath id="SVGID_10_">
					<use xlink:href="#SVGID_9_"  style="overflow:visible;"/>
				</clipPath>
				<path class="st4" d="M6.8,59.6c0.9-0.3,1.4-1.2,2.3-0.5c0.4,0.3,0.5,0.5,1,0.4c0.4-0.1,0.9-0.2,1.3-0.4c1.2-0.4,2.9-0.5,3.5-1.8
					c0.4-0.8,1.3-0.7,1.9-1.4c0.3-0.4,0.3-0.6,0.8-0.8c0.4-0.1,1.7-0.6,2.1-0.4c0.3,0.2,0,0.2,0.2,0.4c0.2,0.4,0.4,0.4,0.8,0.6
					c0.6,0.4-0.1,0.8,0.3,1.3c0.2,0.3,0.9,0.2,1.2,0.1c0.7-0.3,0.9-0.7,1-1.4c0.2-0.8,0.9-0.7,1.3-1.2c0.3-0.4,0.5-0.8,1.1-1
					c0.3-0.1,1.4-0.3,1.7-0.1c0.4,0.2-0.2,0.7-0.4,1c-0.3,0.5-0.7,1.6,0.3,1.7c0.3-0.5,0.4-1,0.6-1.5c0.2-0.6,0.7-0.8,1.2-1.2
					c0.9-0.7,1.5-1,2.7-0.9c0.7,0,1.3,0.2,1.8,0.7c0.2,0.2,0.4,0.4,0.6,0.5c0.6,0.3,1,0.6,1.4,1.2c0.3,0.4,0.7,0.9,0.8,1.5v0.5
					c-0.9,0.2-1.8,0.6-2.8,0.8c-1.2,0.3-2.6,0.2-3.8,0.3c-1.4,0.1-2.8,0.3-4.2,0.6c-2.2,0.4-4.3,0.7-6.5,1s-4.4,0.4-6.6,0.6
					S8,60.7,5.9,61c-0.8,0.1-1.6,0.3-2.4,0.2C3.3,59.4,5.7,60,6.8,59.6"/>
			</g>
		</g>
	</g>
	<g>
		<g>
			<g>
				<defs>
					<rect id="SVGID_11_" x="-36.2" y="-678.4" width="595.3" height="841.9"/>
				</defs>
				<clipPath id="SVGID_12_">
					<use xlink:href="#SVGID_11_"  style="overflow:visible;"/>
				</clipPath>
				<path class="st5" d="M103.5,53.2c0,0-65.6,0.5-103.6,8.1h104.2L103.5,53.2z"/>
			</g>
		</g>
	</g>
</g>
<g>
	<g>
		<g>
			<g>
				<defs>
					<path id="SVGID_13_" d="M491.3,27.3c-0.7,1.6-2.4,2.8-2.8,4.7c-0.3,1.5,0.8,3,0.6,4.5c-1.1,0.1-2.2,0-3.4-0.2
						c-1.2-0.2-2.5-0.5-3.7-0.1c-1.7,0.6-3.9,3.2-4.2,5c-0.2,1.1,0.1,2.1,0.5,3l-2.8,2.4c-0.3,0.6-0.7,1.3-1,1.9
						c-1,2.3-0.3,4.7,0.3,7c0.7,2.8,1.7,5.5,4.3,7.1c1.7,1.1,3.6,1,5.5,1.1c3.2,0.2,6.4,0.3,9.7,0.3c5.7-0.2,11.4-0.9,17-1.1
						c2.4-0.1,4.9,0,7.4,0.1c1.9,0.1,3.7,0.2,5.5,0.2V40.1c-0.9-0.1-2.1,0-2.7-0.4c-0.6-0.4-0.7-1-1.1-1.6c-0.5-0.8-1-1.3-1.8-1.8
						c-1.2-0.8-2.9-1.7-4.4-1.6c-0.1-0.4-0.4-0.8-0.7-1.1c-0.3-0.3-0.8-0.4-1.1-0.6c-0.5-0.5-0.6-1.5-1-2.1c-2.3-3-4.3,1.2-5.4,3
						c-0.9-2.7-4.5-1.7-6.1-0.2c-1.9-1.2-1.7-3.5-2.3-5.4c-0.4-1.6-1.9-2.9-3.6-3.1c-0.1,0-0.1,0-0.2,0
						C492.9,25.1,491.8,26.3,491.3,27.3"/>
				</defs>
				<clipPath id="SVGID_14_">
					<use xlink:href="#SVGID_13_"  style="overflow:visible;"/>
				</clipPath>
				
					<linearGradient id="SVGID_15_" gradientUnits="userSpaceOnUse" x1="-251.3981" y1="-604.77" x2="-250.3981" y2="-604.77" gradientTransform="matrix(-50.2614 0 0 50.2614 -12111.3477 30441.1836)">
					<stop  offset="0" style="stop-color:#688139"/>
					<stop  offset="0.2184" style="stop-color:#5F7935"/>
					<stop  offset="0.6925" style="stop-color:#516C31"/>
					<stop  offset="1" style="stop-color:#4B6730"/>
				</linearGradient>
				<rect x="473.5" y="25.1" class="st6" width="50.7" height="39"/>
			</g>
		</g>
	</g>
</g>
<g>
	<g>
		<g>
			<g>
				<defs>
					<rect id="SVGID_16_" x="-36.2" y="-678.4" width="595.3" height="841.9"/>
				</defs>
				<clipPath id="SVGID_17_">
					<use xlink:href="#SVGID_16_"  style="overflow:visible;"/>
				</clipPath>
				<path class="st7" d="M478.5,47.1c0.1-1.5,0.8-2.8,1.3-4.2c0.3-0.7,0.3-1.4,0.8-2c1.4-1.8,4.3-1.7,6.3-1.5c0.6,0,3,0.5,3.6,0.1
					c1.1-0.7,0.5-1.9,0.5-2.7c0-0.3,0.4-1,0.4-1.2c-0.1-0.6-0.7-1-0.9-1.6c-0.2-0.6,0.3-3.2,0.8-3.8c1.5-1.8,4.7,1.1,5.3,2.6
					c0.8,1.9,0,4.4,0.5,6.4c2.7-0.1,3.6,1.3,5,3c1.2,1.4,2.6,1.9,3.1,3.9c0.3,1.3,0.3,2.6,0.4,3.9c0.8-1.2,1.2-3.4,1-4.9
					s-1.1-1.4-2.1-2.4c-1-1.2-0.5-3.1-2.1-3.9c-1-0.5-2.3-0.1-2.7-1.5c-0.3-1,0.3-2.2,1.4-1.9l0.5,0.3c1.5,0.1,2.7,1.3,3.8,2.1
					c1.6,1.2,2.2,1.6,3,3.4c0.5,1.1,1.2,1.9,1.3,3.1c0.1,0.7,0,1.5,0,2.2c4.5-1.9-0.6-7.8-2.1-9.8c1.3-0.4,0.6-2.1,1.9-2.1
					c1.9,0,2.4,2.8,3.1,3.8c0.1,0.2,0.6,0.1,0.8,0.3c0.8,0.6,1.5,1.4,2.2,2.2c0.8,1,1.3,1.9,1.6,3.2c0.5,2.2-0.4,4.3-0.3,6.5
					c2.3-0.1,3.2-2.4,2.9-4.5c-0.1-0.9-0.7-1.8-0.8-2.7c-0.1-0.5,0-0.9-0.2-1.4c1.8,0.6,2.8,2.1,4.1,3.3c0.4,0.3,1,0.6,1.4,0.9v16.1
					c-0.8,0-2.1-0.1-2.2-0.1c-2.5,0.1-5,0.3-7.5,0.6c-6.2,0.6-12.4,0.6-18.6,1c-2.5,0.1-6.7,0.9-9-0.1c-4.7-2.1-5.4-6.9-7.3-11
					C478.8,50.8,478.3,49.1,478.5,47.1"/>
			</g>
		</g>
	</g>
</g>
<g>
	<g>
		<g>
			<g>
				<defs>
					<path id="SVGID_18_" d="M451.5,36.8c-0.7,0.4-2.1,1.3-2.2,2.2l-5.8,5.3c-4.5,4.2-6.4,13.9,0.6,16.5c2.2,0.8,4.5,1.5,6.7,2.2
						c2.6,0.8,5.5,0.1,8.2-0.1c2.4-0.2,4.7,0,7,0.2c1.6,0.1,3.3,0.3,4.9,0.3c2.3,0,4.4-0.1,6.7-0.5c2.1-0.4,4.2-1.1,6.3-1.4
						c2-0.2,3.9,0.1,5.8,0.4c1.7,0.3,3.5,0.6,5.2,0.5c0.7,0,1.3,0,1.8-0.8c0.3-0.5,0-1,0.1-1.5c0.1-0.6,0.7-1.1,0.9-1.8
						c0.9-2.7-1.2-5-3-6.6c-2-1.7-4-1.6-6.4-1.3c-0.6,0.1-1.2,0.3-1.8,0.4c-0.2,0.1-0.3,0.2-0.5,0.2c-0.3-0.1-0.4-0.6-0.5-0.8
						c-0.4-0.6-1.2-1-1.6-1.5c-0.2-0.3-0.2-0.9-0.3-1.2c-0.5-1.6-1.9-2.5-2.8-3.8c-0.4-0.6-0.6-1.2-1.3-1.5
						c-1.1-0.5-3.1-0.1-4.3,0.2c-1.2,0.3-3.5,0.6-3.2,2.3c-0.2,0-0.5,0-0.7,0c-0.7,0-1.3,0-1.9,0.3c-0.5-0.9-0.4-1.9-1.1-2.8
						c-0.5-0.7-1.3-1.2-2-1.6c-1.4-0.9-2.9-1.1-4.1,0.2c-1.3-1.5-2.8-2.2-4.2-3.3c-0.6-0.4-1-1.1-1.7-1.5c-0.4-0.2-0.9-0.3-1.4-0.3
						C453.7,35.7,452.5,36.2,451.5,36.8"/>
				</defs>
				<clipPath id="SVGID_19_">
					<use xlink:href="#SVGID_18_"  style="overflow:visible;"/>
				</clipPath>
				
					<linearGradient id="SVGID_20_" gradientUnits="userSpaceOnUse" x1="-250.8284" y1="-604.9147" x2="-249.8284" y2="-604.9147" gradientTransform="matrix(-58.1519 0 0 58.1519 -14088.4922 35226.6367)">
					<stop  offset="0" style="stop-color:#688139"/>
					<stop  offset="0.2184" style="stop-color:#5F7935"/>
					<stop  offset="0.6925" style="stop-color:#516C31"/>
					<stop  offset="1" style="stop-color:#4B6730"/>
				</linearGradient>
				<rect x="437.1" y="35.7" class="st8" width="61.5" height="28"/>
			</g>
		</g>
	</g>
</g>
<g>
	<g>
		<g>
			<g>
				<defs>
					<rect id="SVGID_21_" x="-36.2" y="-678.4" width="595.3" height="841.9"/>
				</defs>
				<clipPath id="SVGID_22_">
					<use xlink:href="#SVGID_21_"  style="overflow:visible;"/>
				</clipPath>
				<path class="st9" d="M445.8,49.8c0.1-1.9,0.5-2.6,2-3.9c2-1.8,2.4-3.7,5.3-4.7c1.1-0.4,2.1-0.4,3.3-0.5c0.5,0,2.2-0.5,2.6-0.4
					c1,0.4,2.2,2.7,2.6,3.7c0.5,1.2,0.5,2.5,0.7,3.8c0.9-0.2,2.3-0.2,3.1-0.5c0.8-0.3-0.1-1.1,1.4-1c1.2,0.1,1.2,1,1.7,1.9
					c1,0,2.1,0.7,2.7,1.4c0.2-2.6,2.5-3.6,4.9-3.6c1.5,0,2.7,0.5,3.8,1.5c1,0.9,0.9,2,1.6,2.8c0.5,0.5,1.4,0.4,1.6,1.3
					c0.1,0.6-0.7,0.9-0.6,1.4c0.2,0.9,1.2,0.7,1.7,1.4c0.3,0.4-0.1,0.9,0.2,1.2c0.3,0.3,1.1,0.3,1.2,0.5c0.5,0.7,0.1,2.2,0.3,3
					c1.3-0.4,1.8-3.1,1.3-4.3c-0.2-0.4-1.2-0.8-1.1-1.2c0-0.7,0.5-0.2,0.7-0.4c1-1.1,1.6-0.8,3-0.7c1.6,0.2,2.6,0.1,3.4,1.7
					c0.1,0.2-0.1,0.7,0.1,1s0.6,0.5,0.8,1.1c0.5,1.4-0.3,1.9-0.7,2.8c-0.3,0.9-0.3,1.2-0.9,2.1l-0.9,2.9c-3.8,0.6-7.7,0.3-11.6,0.3
					c-2.8,0-5.8,0.2-8.6-0.4c-2.2-0.5-4.3-1.5-6.6-1.7c-2.4-0.2-4.9,0.1-7.4-0.1c-2-0.1-4.4,0.3-6.2-0.6c-1.7-0.9-4.3-2.4-5.1-4.3
					C445.1,55.3,445.7,51.9,445.8,49.8"/>
			</g>
		</g>
	</g>
</g>
<g>
	<g>
		<g>
			<g>
				<defs>
					<path id="SVGID_23_" d="M437,29.2c-1.3,0.2-3.8,1.4-3.7,3c-0.3-0.3-0.7-0.3-1.1-0.4c-0.3-0.1-0.7,0-1.1,0.1s-0.8,0.2-1.1,0.1
						c-0.7-0.2-1.2-1-2.1-1.1c-2.2-0.5-4.4,2.4-4.3,4.4l-3.6,5.8c-0.3-0.1-1.1,0.6-1.4,0.9c-1.2,1-2.5,2.6-2.6,4.2
						c0,0.3,0.2,0.9,0.1,1.2c-0.4,1.1-1.9,1.9-2.5,3c-0.9,1.6-0.4,3.7-0.1,5.5c0.4,2,1.1,3.3,2.9,4.3c3.5,2,7.9,3.1,11.8,3.7
						c8.8,1.3,18.1,1.7,26.9,0.3c3.3-0.5,6.8-0.9,10-1.9c0.6-0.2,1.1-0.4,1.8-0.4c0.1-0.8,0-1.4-0.3-2.1c-0.7-1.6-2-1.5-3.4-1.4
						c-0.7,0-1.4,0.1-2.1-0.1c-0.6-0.1-1.1-0.9-1.7-1.1c-1.6-0.5-2.6,0.5-3.9,0.9c-1.5,0.4-3.2,0-4.6,0.5c0.8-0.7,0.4-2.4-0.1-3.1
						c1.2-1,0.4-3-0.7-3.7c0.1-0.7,0.7-1.3,1.2-1.8c0.9-0.8,1.2-0.3,2.4-0.7c1.3-0.3,1.8-1,2.1-2.2c0.1-0.3,0-0.4,0.1-0.6
						c0.1-0.3,0.6-0.5,0.8-0.8c0.6-1.3-0.1-3.1-1-4.1c-0.6-0.6-0.5-0.7-0.8-1.3c-1.2-2-4.5-3.8-6.7-2.5c0.8-1.9,0-4.6-1.7-5.8
						c-0.9-0.6-1.8-0.6-2.7-1c-0.2-0.1-0.3-0.3-0.6-0.4c-1.6-0.8-3.2-1.4-4.9-1.4C437.7,29.1,437.3,29.2,437,29.2"/>
				</defs>
				<clipPath id="SVGID_24_">
					<use xlink:href="#SVGID_23_"  style="overflow:visible;"/>
				</clipPath>
				
					<linearGradient id="SVGID_25_" gradientUnits="userSpaceOnUse" x1="-251.1577" y1="-604.829" x2="-250.1577" y2="-604.829" gradientTransform="matrix(-53.3242 0 0 53.3242 -12925.9854 32299.2715)">
					<stop  offset="0" style="stop-color:#688139"/>
					<stop  offset="0.2184" style="stop-color:#5F7935"/>
					<stop  offset="0.6925" style="stop-color:#516C31"/>
					<stop  offset="1" style="stop-color:#4B6730"/>
				</linearGradient>
				<rect x="412.6" y="29.1" class="st10" width="54.2" height="36.3"/>
			</g>
		</g>
	</g>
</g>
<g>
	<g>
		<g>
			<g>
				<defs>
					<rect id="SVGID_26_" x="-36.2" y="-678.4" width="595.3" height="841.9"/>
				</defs>
				<clipPath id="SVGID_27_">
					<use xlink:href="#SVGID_26_"  style="overflow:visible;"/>
				</clipPath>
				<path class="st11" d="M423.6,46.4c0.2-2.4,1.3-3.2,2.3-5.2c0.8-1.7-0.1-3.7,0.9-5.3c0.4-0.6,1.6-1.7,2.2-2
					c0.9-0.4,1.5,0.3,2.3,0c0.6-0.3,0.5-1.2,1.2-1.4c0.8-0.2,2.3,1.5,3.2,1.7c0-1.2,1.7-3.2,2.8-3.3c1.3,0,2.1,1.7,3.2,2.1
					s3-0.1,4,0.9c0.5,0.5,0.9,1.5,0,2c-0.6,0.4-0.4-0.2-0.9-0.3c-1.3-0.4-2.2-0.8-3.7-0.7c0.7,0.5,1.4,0.4,2.1,1.1
					c0.9,1,0.6,2.4,0.7,3.6c1,0.1,1.8-0.3,2.8,0.1c0.8,0.3,2.2,1.3,2.9,1.9c1.6,1.5,3.3,3.9,0.3,5c-0.7,0.3-2.7,0.8-3.4,0.1
					c-1-1,0.1-1.6-1.9-2.1c-1.1-0.3-4.2-0.9-4.3,0.8c2,0.2,5.4,1.9,6.3,3.8c0.4,0.8,0.3,1.6,0.7,2.2c1.2,0,2.1,1.7,2.2,2.6
					c0.2,2.1-2.8,5-4.8,5l-3.8,1.2c-0.8,0.1-1.5-0.4-2.2-0.5c-2.4-0.4-4.1,0-6-1.9c-1.3-1.3-1.8-2.5-3.6-3.4c-1-0.5-3-0.2-3.7-1
					c-0.3-0.4-0.4-1.8-0.6-2.3C423.9,49.6,423.4,48.5,423.6,46.4"/>
			</g>
		</g>
	</g>
</g>
<g>
	<g>
		<g>
			<g>
				<defs>
					<path id="SVGID_28_" d="M408.3,33.3c-1.5,0.2-2.5,0.7-3.6,1.6c-0.3,0.2-0.4,0.5-0.7,0.7c-0.7,0.5-1.4,0.7-1.9,1.3
						c-0.4-1.6-2.4,0.8-2.9,1.3c-1,1.1-1.1,2.5-1.5,3.8l-3.7,2.5c-0.9,0.8-1.8,1.7-2.3,2.9c-0.6,1.5,0.2,1.8,0.8,3
						c0.7,1.5,0.2,3.3,0.7,4.9c0.7,2.3,2.7,4.2,5.2,4.5c1.3,0.2,2.7,0,4.1-0.1c0.2,0,1.1-0.1,1.4,0c1,0.4,1.2,1.7,1.8,2.5
						c3.3,4,9.8,1.6,14,1.3c2-0.1,4.3,0.4,6.3,0.6c3.1,0.3,6.1,1,9.2,1c2.7,0,6.6,0,8.3-2.5c0.3-0.4,0.5-1.1,0.7-1.4
						c0.4-0.9,0.9-1.4,0.9-2.6c-0.1-1.4-0.8-2.9-2.3-3.4c-0.3-0.1-0.7-0.1-1.1-0.1c-0.3,0-0.5,0-0.8,0c0-2.8-4.9-4.8-7.2-4.7
						c0-1-0.5-1.4-0.7-2.3c-0.2-0.7-0.2-0.4,0.1-1.2c0.1-0.3,0.2-0.6,0.3-0.9c0.6-2.4,0.1-5.3-2.5-6.3c-0.8-0.3-0.7,0.1-1-0.5
						c-0.2-0.4,0-1.3,0-1.7c-0.1-1.4-0.4-2.2-1.7-2.8c-2.1-1-5.1-0.8-7.3-0.2c-1.3,0.3-2.2,1.1-3.3,1.6c-1-2.1-3.3,0.1-4.4,0.7
						c-0.8-0.4-0.5-1.6-0.9-2.3c-0.6-1.1-1.6-1.4-2.7-1.4C409.2,33.2,408.7,33.3,408.3,33.3"/>
				</defs>
				<clipPath id="SVGID_29_">
					<use xlink:href="#SVGID_28_"  style="overflow:visible;"/>
				</clipPath>
				
					<linearGradient id="SVGID_30_" gradientUnits="userSpaceOnUse" x1="-252.2394" y1="-602.7943" x2="-251.2394" y2="-602.7943" gradientTransform="matrix(-35.2405 10.7993 10.7993 35.2405 -1931.4835 24007.3652)">
					<stop  offset="0" style="stop-color:#C9B92E"/>
					<stop  offset="0.619" style="stop-color:#7A8536"/>
					<stop  offset="1" style="stop-color:#4F6B31"/>
				</linearGradient>
				<polygon class="st12" points="440.4,18.1 381.8,36 395.7,81.3 454.3,63.4 				"/>
			</g>
		</g>
	</g>
</g>
<g>
	<g>
		<g>
			<g>
				<defs>
					<rect id="SVGID_31_" x="-36.2" y="-678.4" width="595.3" height="841.9"/>
				</defs>
				<clipPath id="SVGID_32_">
					<use xlink:href="#SVGID_31_"  style="overflow:visible;"/>
				</clipPath>
				<path class="st13" d="M400.3,45.3l1.6-5.5c-0.3-2.6,6.3-5.2,6.4-1.6c1.3-0.5,2.2,1.5,2.6,2.4c0.6-0.4,1.3-0.4,1.8-0.7
					c0.9-0.6,1.4-1.3,2.6-1.3c3.2,0,6.7,3.8,6.9,6.8c1.4-1.4,1-3.7-0.1-5.2c-0.8-1.1-2-1-2.8-1.9c0.7-0.7,2.1-1.1,3.1-1.2
					c1.3-0.1,1.8,0.6,2.8,1c1.2,0.4,1.8,0.3,2.7,1.4c0.8,0.9,0.7,1.4,0.8,2.4c0.3,2,2.6,2.8,2.2,5.2c-0.2,0.9-0.9,1-1.2,1.8
					c-0.2,0.5,0,1.5,0,2c0.8,0.2,1.9,0.9,1.9,1.9c1.8-0.1,2.9,1.6,2.8,3.2c-0.9-0.9-1.8-1.3-3-1.7c-1.4-0.4-5.2-1.1-5.6,1.1
					c0.8,0.2,2-0.6,2.9-0.7c0.7-0.1,1.2,0,1.8,0.4c0.6,0.4,0.8,1,1.2,1.5c0.4,0.5,1,0.8,1.3,1.4c1.7-1.1,4.3-0.3,4.7,1.6
					c0.1,0.5,0.1,1.2-0.1,1.7c-0.1,0.4,0,0.4-0.3,0.6c-0.1,0.1-0.7,0-0.8,0c-1.5,0.1-3.1,0-4.6,0.1c-4.8,0.3-9.5,1.1-14.3,1.3
					c-1.9,0.1-3.7,0.1-5.5-0.5c-3.1-0.9-6.9-2.4-9.1-5c-1.9-2.2-0.6-5-1.4-7.5c-0.4-1.2-1.2-2.3-1.4-3.5
					C400.3,46.5,400.5,45.9,400.3,45.3"/>
			</g>
		</g>
	</g>
</g>
<g>
	<g>
		<g>
			<g>
				<defs>
					<path id="SVGID_33_" d="M381.7,32.8c-1.1-0.7-1.7-1.1-2.9-0.7c-1.4,0.4-2.9,1.5-3.1,3c0,0.4,0,0.8,0,1.2l-1.5,1.1
						c-0.6-0.3-1.4-0.3-2,0c-1.3,0.6-1.5,1.4-1.9,2.6c-0.9,2.6-1.9,4.6-1.8,7.4c0.2,2.7,1.4,4.6,3.5,6.1c0.7,0.5,0.7,0.1,0.9,1.2
						c0.5,2.4,1.6,3.4,4.3,3.5c0.6,0,1.2,0,1.9-0.1c1.4-0.1,2.8-0.2,3.9,0.4c1.7,0.9,2.8,2.8,4.1,4c1.9,1.8,4.1,1.1,6.4,0.4
						c2-0.6,4.6-1,6.7-0.5c0.5,0.1,1,0.4,1.6,0.6c2.3,0.9,5,0.9,7.3,0.2c0.8-0.3,1.7-0.1,2.7,0c1.4,0.2,2.9,0.4,4.1-0.9
						c0.2-0.3,0.2-0.6,0.5-0.8c0.1-0.1,0.6-0.1,0.8-0.3c0.4-0.4,0.4-0.9,0.4-1.4c0.7-0.5,0.7-1.2,0.9-2c0.2-0.5,0.6-0.9,0.8-1.5
						c0.3-1.1-0.1-2.5-0.5-3.5c-0.3-0.6-1-1.5-1.2-2.1c-0.1-0.5,0-1.1,0-1.6c-0.2-2.9-2.6-6.1-5.5-6.5c-0.6-0.1-1.3,0-2,0.1
						c-0.8,0.1-1.5,0.2-2.2,0.1c-0.3-0.1-0.4-0.3-0.7-0.4c-0.9-0.3-3.5-0.8-4.4-0.2c-0.4,0.2-0.6,1-0.7,1.4
						c-0.2-1.6-2.3-2.5-3.8-2.5c-0.4-1.3-3.6-1.9-3.9-0.4c-0.1-0.7-0.7-0.8-1-1.3s-0.2-0.7-0.4-1.3c-0.4-1.3-1.3-1.5-2.4-2
						c0.6-1.2,1.2-1,2-0.8c0.3,0.1,0.7,0.2,1.1,0.2c-0.2-2.6-2.7-3.4-4.9-3.8c-1-0.1-2.4-0.4-3.7-0.4
						C383.6,31.5,382.3,31.8,381.7,32.8"/>
				</defs>
				<clipPath id="SVGID_34_">
					<use xlink:href="#SVGID_33_"  style="overflow:visible;"/>
				</clipPath>
				
					<linearGradient id="SVGID_35_" gradientUnits="userSpaceOnUse" x1="-251.3691" y1="-604.774" x2="-250.3691" y2="-604.774" gradientTransform="matrix(-50.6113 0 0 50.6113 -12303.0264 30656.248)">
					<stop  offset="0" style="stop-color:#688139"/>
					<stop  offset="0.2184" style="stop-color:#5F7935"/>
					<stop  offset="0.6925" style="stop-color:#516C31"/>
					<stop  offset="1" style="stop-color:#4B6730"/>
				</linearGradient>
				<rect x="368.3" y="31.5" class="st14" width="51.1" height="32.7"/>
			</g>
		</g>
	</g>
</g>
<g>
	<g>
		<g>
			<g>
				<defs>
					<path id="SVGID_36_" d="M367.4,33.6c-1.6,0.2-3.4,1.8-3.7,3.4c-0.7-1.1-1.6,0.5-2.1,0.7c-1,0.4-0.8-0.3-1.3-0.5
						c-1.8-0.7-3.6,1.4-3.4,3.1l-2.8,3.5c-0.8,1.8-0.2,3.7,1,5.2c1,1.2,2,1.6,3.5,1.6c0.2,0,0.6-0.1,1-0.1c0.7-0.1,1.4-0.2,1.8,0
						c0.9,0.5,0.8,2.6,1.3,3.5c0.8,1.5,2.6,2.4,4.1,3c2.9,1.1,6.6,0.5,9.7,0.4c2.5-0.1,4.7-0.5,7.2-0.9c0.8-0.1,1.4-0.1,2.2,0.1
						c1.5,0.4,4.3,1,4.8-1c0.5-1.7-0.9-3.4-2.4-3.8c0.3-0.9,0.8-1.4,0.7-2.5c-0.1-0.9-0.6-1.7-1.3-2.2c0.8-1.5-2-3.1-3.2-3.3
						c-0.4-0.1-0.8,0-1.2,0.1c-0.4,0.1-0.8,0.1-1.1,0.1c-0.4-0.1-0.7-0.6-1.2-0.5c0-0.5,0-1.1-0.4-1.5c-0.4-0.3-0.7-0.3-1-0.2
						c-0.2,0-0.4,0.1-0.6,0c-0.7-0.1-1.3-1-1.5-1.8c-0.5-1.9,1-3.8-1.3-5.1c-1.3-0.7-3.8-1-4.5,0.6c0-1.4-2.4-1.9-3.7-1.9
						C367.6,33.5,367.5,33.5,367.4,33.6"/>
				</defs>
				<clipPath id="SVGID_37_">
					<use xlink:href="#SVGID_36_"  style="overflow:visible;"/>
				</clipPath>
				
					<linearGradient id="SVGID_38_" gradientUnits="userSpaceOnUse" x1="-252.934" y1="-604.3682" x2="-251.934" y2="-604.3682" gradientTransform="matrix(-36.7979 0 0 36.7979 -8916.8223 22285.2324)">
					<stop  offset="0" style="stop-color:#688139"/>
					<stop  offset="0.2184" style="stop-color:#5F7935"/>
					<stop  offset="0.6925" style="stop-color:#516C31"/>
					<stop  offset="1" style="stop-color:#4B6730"/>
				</linearGradient>
				<rect x="353.3" y="33.5" class="st15" width="37.8" height="24.5"/>
			</g>
		</g>
	</g>
</g>
<g>
	<g>
		<g>
			<g>
				<defs>
					<path id="SVGID_39_" d="M153.4,33.3c-1.5,0.2-2.5,0.7-3.6,1.6c-0.3,0.2-0.4,0.5-0.7,0.7c-0.7,0.5-1.4,0.7-1.9,1.3
						c-0.4-1.6-2.4,0.8-2.9,1.3c-1,1.1-1.1,2.5-1.5,3.8l-3.7,2.5c-0.9,0.8-1.8,1.7-2.3,2.9c-0.6,1.5,0.2,1.8,0.8,3
						c0.7,1.5,0.2,3.3,0.7,4.9c0.7,2.3,2.8,4.2,5.2,4.5c1.3,0.2,2.7,0,4.1-0.1c0.2,0,1.1-0.1,1.4,0c1,0.4,1.2,1.7,1.8,2.5
						c3.3,4,9.8,1.6,14,1.3c2-0.1,4.3,0.4,6.3,0.6c3.1,0.3,6.1,1,9.2,1c2.7,0,6.6,0,8.3-2.5c0.3-0.4,0.5-1.1,0.7-1.4
						c0.4-0.9,0.9-1.4,0.9-2.6c-0.1-1.4-0.8-2.9-2.3-3.4c-0.3-0.1-0.7-0.1-1.1-0.1c-0.3,0-0.5,0-0.8,0c0-2.8-4.9-4.8-7.2-4.7
						c0-1-0.5-1.4-0.7-2.3c-0.2-0.7-0.2-0.4,0.1-1.2c0.1-0.3,0.2-0.6,0.3-0.9c0.6-2.4,0.1-5.3-2.5-6.3c-0.8-0.3-0.7,0.1-1-0.5
						c-0.2-0.4,0-1.3,0-1.7c-0.1-1.4-0.4-2.2-1.7-2.8c-2.1-1-5.1-0.8-7.3-0.2c-1.3,0.3-2.2,1.1-3.3,1.6c-1-2.1-3.3,0.1-4.4,0.7
						c-0.8-0.4-0.5-1.6-0.9-2.3c-0.6-1.1-1.6-1.4-2.7-1.4C154.3,33.2,153.8,33.3,153.4,33.3"/>
				</defs>
				<clipPath id="SVGID_40_">
					<use xlink:href="#SVGID_39_"  style="overflow:visible;"/>
				</clipPath>
				
					<linearGradient id="SVGID_41_" gradientUnits="userSpaceOnUse" x1="-252.2393" y1="-602.7937" x2="-251.2393" y2="-602.7937" gradientTransform="matrix(-35.2412 10.7995 10.7995 35.2412 -2186.4424 24007.8125)">
					<stop  offset="0" style="stop-color:#C9B92E"/>
					<stop  offset="0.619" style="stop-color:#7A8536"/>
					<stop  offset="1" style="stop-color:#4F6B31"/>
				</linearGradient>
				<polygon class="st16" points="185.5,18.1 126.9,36 140.8,81.3 199.4,63.4 				"/>
			</g>
		</g>
	</g>
</g>
<g>
	<g>
		<g>
			<g>
				<defs>
					<rect id="SVGID_42_" x="-36.2" y="-678.4" width="595.3" height="841.9"/>
				</defs>
				<clipPath id="SVGID_43_">
					<use xlink:href="#SVGID_42_"  style="overflow:visible;"/>
				</clipPath>
				<path class="st17" d="M145.4,45.3l1.6-5.5c-0.3-2.6,6.3-5.2,6.4-1.6c1.3-0.5,2.2,1.5,2.6,2.4c0.6-0.4,1.3-0.4,1.8-0.7
					c0.9-0.6,1.4-1.3,2.6-1.3c3.2,0,6.7,3.8,6.9,6.8c1.4-1.4,1-3.7-0.1-5.2c-0.8-1.1-2-1-2.8-1.9c0.7-0.7,2.1-1.1,3.1-1.2
					c1.3-0.1,1.8,0.6,2.8,1c1.2,0.4,1.8,0.3,2.7,1.4c0.8,0.9,0.7,1.4,0.8,2.4c0.3,2,2.6,2.8,2.2,5.2c-0.1,0.9-0.9,1-1.2,1.8
					c-0.2,0.5,0,1.5,0,2c0.8,0.2,1.9,0.9,1.9,1.9c1.8-0.1,2.9,1.6,2.8,3.2c-0.9-0.9-1.8-1.3-3-1.7c-1.4-0.4-5.2-1.1-5.6,1.1
					c0.8,0.2,2-0.6,2.9-0.7c0.7-0.1,1.2,0,1.8,0.4s0.8,1,1.2,1.5s1,0.8,1.3,1.4c1.7-1.1,4.3-0.3,4.7,1.6c0.1,0.5,0.1,1.2-0.1,1.7
					c-0.1,0.4,0,0.4-0.3,0.6c-0.1,0.1-0.7,0-0.8,0c-1.5,0.1-3.1,0-4.6,0.1c-4.8,0.3-9.5,1.1-14.3,1.3c-1.9,0.1-3.7,0.1-5.5-0.5
					c-3.1-0.9-6.9-2.4-9.1-5c-1.9-2.2-0.6-5-1.4-7.5c-0.4-1.2-1.2-2.3-1.4-3.5C145.4,46.5,145.6,45.9,145.4,45.3"/>
			</g>
		</g>
	</g>
</g>
<g>
	<g>
		<g>
			<g>
				<defs>
					<path id="SVGID_44_" d="M122.9,32.8c-1.1-0.7-1.7-1.1-2.9-0.7c-1.4,0.4-2.9,1.5-3.1,3c0,0.4,0,0.8,0,1.2l-1.5,1.1
						c-0.6-0.3-1.4-0.3-2,0c-1.3,0.6-1.5,1.4-1.9,2.6c-0.9,2.6-1.9,4.6-1.8,7.4c0.2,2.7,1.4,4.6,3.5,6.1c0.7,0.5,0.7,0.1,0.9,1.2
						c0.5,2.4,1.6,3.4,4.3,3.5c0.6,0,1.2,0,1.9-0.1c1.4-0.1,2.8-0.2,3.9,0.4c1.7,0.9,2.8,2.8,4.1,4c1.9,1.8,4.1,1.1,6.4,0.4
						c2-0.6,4.6-1,6.7-0.5c0.5,0.1,1,0.4,1.5,0.6c2.3,0.9,5,0.9,7.3,0.2c0.8-0.3,1.7-0.1,2.7,0c1.4,0.2,2.9,0.4,4.1-0.9
						c0.2-0.3,0.2-0.6,0.5-0.8c0.1-0.1,0.6-0.1,0.8-0.3c0.4-0.4,0.4-0.9,0.4-1.4c0.8-0.5,0.7-1.2,0.9-2c0.2-0.5,0.6-0.9,0.8-1.5
						c0.3-1.1-0.1-2.5-0.5-3.5c-0.3-0.6-1-1.5-1.2-2.1c-0.1-0.5,0-1.1,0-1.6c-0.2-2.9-2.6-6.1-5.5-6.5c-0.6-0.1-1.3,0-2,0.1
						c-0.8,0.1-1.5,0.2-2.2,0.1c-0.3-0.1-0.4-0.3-0.7-0.4c-0.9-0.3-3.5-0.8-4.4-0.2c-0.4,0.2-0.6,1-0.7,1.4
						c-0.2-1.6-2.3-2.5-3.8-2.5c-0.4-1.3-3.6-1.9-3.9-0.4c-0.1-0.7-0.7-0.8-1-1.3s-0.2-0.7-0.4-1.3c-0.4-1.3-1.3-1.5-2.4-2
						c0.6-1.2,1.2-1,2-0.8c0.3,0.1,0.7,0.2,1.1,0.2c-0.2-2.6-2.7-3.4-4.9-3.8c-1-0.1-2.4-0.4-3.7-0.4
						C124.8,31.5,123.5,31.8,122.9,32.8"/>
				</defs>
				<clipPath id="SVGID_45_">
					<use xlink:href="#SVGID_44_"  style="overflow:visible;"/>
				</clipPath>
				
					<linearGradient id="SVGID_46_" gradientUnits="userSpaceOnUse" x1="-251.3691" y1="-604.774" x2="-250.3691" y2="-604.774" gradientTransform="matrix(-50.6104 0 0 50.6104 -12561.5693 30655.7031)">
					<stop  offset="0" style="stop-color:#688139"/>
					<stop  offset="0.2184" style="stop-color:#5F7935"/>
					<stop  offset="0.6925" style="stop-color:#516C31"/>
					<stop  offset="1" style="stop-color:#4B6730"/>
				</linearGradient>
				<rect x="109.5" y="31.5" class="st18" width="51.1" height="32.7"/>
			</g>
		</g>
	</g>
</g>
<g>
	<g>
		<g>
			<g>
				<defs>
					<rect id="SVGID_47_" x="-36.2" y="-678.4" width="595.3" height="841.9"/>
				</defs>
				<clipPath id="SVGID_48_">
					<use xlink:href="#SVGID_47_"  style="overflow:visible;"/>
				</clipPath>
				<path class="st19" d="M292.8,48.4c0-0.6,0.1-1.2,0.2-1.8c0.2,0,0.4,0,0.6-0.1c0-0.6-0.1-1.6,0.2-2c0.3-0.4,0.7-0.4,1-0.5
					c-0.3-1-0.3-2.3,0.3-3.1c0.4-0.4,0.4-0.3,0.6-1c0.1-0.3,0.3-0.6,0.4-0.9c0.4-0.7,0.8-1,1.5-1c0.8,0,1.6,0.4,1.9,1.4
					c0.6-0.1,0.8-0.2,1.2,0.2c0.1,0.1,0.4,0.6,0.5,0.8c0.1,0.3,0.1,0.8,0.2,1c0.2,0.3,0.4,0.2,0.6,0.7c0.1,0.4,0,0.9,0.1,1.3
					c0.2,0.5,0.3,0.4,0.3,1c0,0.4,0.1,0.7,0.1,1c0,0.2-0.1,0.6,0,0.7c0.2,0.3,0.7,0,1,0.2c0.4,0.2,0.9,0.9,1,1.4l0.6,1.9
					c0,0.4,0.2,1.3,0.1,1.6c-0.2,0.5-1.2,0.2-1.5,0.2c-3.6,0-7.3,0-11,0l-0.2-3C292.6,48.4,292.7,48.4,292.8,48.4"/>
			</g>
		</g>
	</g>
	<g>
		<g>
			<g>
				<defs>
					<rect id="SVGID_49_" x="-36.2" y="-678.4" width="595.3" height="841.9"/>
				</defs>
				<clipPath id="SVGID_50_">
					<use xlink:href="#SVGID_49_"  style="overflow:visible;"/>
				</clipPath>
				<path class="st20" d="M294.7,46.3c-0.9-1.6-0.2-1.5,0.8-1.6c0-0.9,0.2-1.7,0.3-2.4c0-0.3,0-0.5,0-0.8c0.1-0.6,0.4-0.6,0.7-1
					c0.1-0.1,0.1-0.4,0.1-0.5c0.3-0.3,0.6-0.3,1-0.3c0.2,0,0.5-0.1,0.7,0.1s0.2,0.7,0.4,0.8c0.3,0.3,0.7,0.1,1,0.2
					c1.4,0.2,1.4,1.6,1.6,3c-0.9-0.8-1.7-2.4-2.9-1.9c-0.2,0.1-0.4,0.4-0.5,0.4c-0.2,0.1-0.4-0.1-0.5,0c-0.3,0.2-0.4,0.8-0.5,1.2
					c1.2-0.7,1.6-1,2.8-0.2c0.8,0.5,1.4,1.5,1.6,2.6c-0.9-0.1-1.5-0.9-2.2,0.3c0.5,0,1.1-0.1,1.5,0c0.3,0.1,0.4,0.4,0.7,0.5
					c0.6,0.2,1-0.2,1.5,0.4c0.2,0.2,0.4,0.6,0.4,1c0,1.3-1.8,0.2-2.4,0.1c-1.2-0.2-2.4,0.4-3.5,0.4c-1.2,0-2.3-0.1-3.5-0.1v-0.4
					C293.8,47.5,294.1,46.4,294.7,46.3"/>
			</g>
		</g>
	</g>
	<g>
		<g>
			<g>
				<defs>
					<rect id="SVGID_51_" x="-36.2" y="-678.4" width="595.3" height="841.9"/>
				</defs>
				<clipPath id="SVGID_52_">
					<use xlink:href="#SVGID_51_"  style="overflow:visible;"/>
				</clipPath>
				<path class="st21" d="M310.4,48.3c0-1,0.7-1.6,1.3-2.3c0.2-0.3,0.3-0.6,0.6-0.8c0.2-0.1,0.5-0.1,0.6-0.2c0.6-0.5,1-1.3,2.2-1.3
					c0.8,0,1.2,0.3,1.8,0.6c0.4,0.2,0.5,0.2,0.9,0.4c1,0.4,2,0.7,2.5,1.8c0.1,0.2,0.1,0.6,0.2,0.8s0.5,0.2,0.6,0.3
					c0.2,0.4,0,1,0,1.4c0.4,0.1,1.1-0.1,1.5,0.1c0.6,0.4,0.5,1.6,1,2c0.7,0.5,2.1-0.2,2.9-0.2c0.7-0.1,1.3,0,2,0l0.3,3.4
					c-1.1,0-2.1,0-3.2-0.1c-2.3-0.1-4.7-0.1-6.9-0.7c-1.5-0.4-2.8-0.9-4.3-1c-1.3-0.1-2.5,0.1-3.2-1.1c-0.4-0.6-0.1-1-0.3-1.6
					C310.8,49.2,310.4,49,310.4,48.3"/>
			</g>
		</g>
	</g>
	<g>
		<g>
			<g>
				<defs>
					<rect id="SVGID_53_" x="-36.2" y="-678.4" width="595.3" height="841.9"/>
				</defs>
				<clipPath id="SVGID_54_">
					<use xlink:href="#SVGID_53_"  style="overflow:visible;"/>
				</clipPath>
				<path class="st22" d="M313,48.5c0.2-0.6,0.4-0.5,0.6-1c0.2-0.6,0.1-1.1,0.4-1.5s1.4-0.7,1.8-0.7c0.8,0,1.6,1.1,2.3,1.8
					c1.1,1.3,2.1,2.3,1.3,4.9c-1.7-1.9-2.7-2.7-4.7-1.9c-0.8,0.3-1.5,0.6-2.3,0.6l-0.6-0.2C311.7,49.1,312.3,47.9,313,48.5"/>
			</g>
		</g>
	</g>
	<g>
		<g>
			<g>
				<defs>
					<rect id="SVGID_55_" x="-36.2" y="-678.4" width="595.3" height="841.9"/>
				</defs>
				<clipPath id="SVGID_56_">
					<use xlink:href="#SVGID_55_"  style="overflow:visible;"/>
				</clipPath>
				<rect x="368.5" y="50.9" class="st23" width="22.2" height="4.9"/>
			</g>
		</g>
	</g>
	<g>
		<g>
			<g>
				<defs>
					<rect id="SVGID_57_" x="-36.2" y="-678.4" width="595.3" height="841.9"/>
				</defs>
				<clipPath id="SVGID_58_">
					<use xlink:href="#SVGID_57_"  style="overflow:visible;"/>
				</clipPath>
				<rect x="319.8" y="45.5" class="st24" width="47.4" height="13.1"/>
			</g>
		</g>
	</g>
	<g>
		<g>
			<g>
				<defs>
					<rect id="SVGID_59_" x="-36.2" y="-678.4" width="595.3" height="841.9"/>
				</defs>
				<clipPath id="SVGID_60_">
					<use xlink:href="#SVGID_59_"  style="overflow:visible;"/>
				</clipPath>
				<rect x="329.3" y="50.7" class="st25" width="35.2" height="0.8"/>
			</g>
		</g>
	</g>
	<g>
		<g>
			<g>
				<defs>
					<rect id="SVGID_61_" x="-36.2" y="-678.4" width="595.3" height="841.9"/>
				</defs>
				<clipPath id="SVGID_62_">
					<use xlink:href="#SVGID_61_"  style="overflow:visible;"/>
				</clipPath>
				<rect x="319.9" y="45.8" class="st26" width="35.2" height="0.8"/>
			</g>
		</g>
	</g>
	<g>
		<g>
			<g>
				<defs>
					<rect id="SVGID_63_" x="-36.2" y="-678.4" width="595.3" height="841.9"/>
				</defs>
				<clipPath id="SVGID_64_">
					<use xlink:href="#SVGID_63_"  style="overflow:visible;"/>
				</clipPath>
				<polygon class="st27" points="319.2,40.1 368.3,40.1 368.3,50.8 329.1,50.8 329.1,46 319.2,46 				"/>
			</g>
		</g>
	</g>
	<g>
		<g>
			<g>
				<defs>
					<rect id="SVGID_65_" x="-36.2" y="-678.4" width="595.3" height="841.9"/>
				</defs>
				<clipPath id="SVGID_66_">
					<use xlink:href="#SVGID_65_"  style="overflow:visible;"/>
				</clipPath>
				<polygon class="st28" points="329.1,46 329.1,54.8 323.1,54.8 				"/>
			</g>
		</g>
	</g>
</g>
<g>
	<g>
		<g>
			<g>
				<defs>
					<path id="SVGID_67_" d="M220.9,39.5c-0.4,0.3-0.8,0.7-1.2,1s-1.2,0.5-1.4,1c0,0.1,0,0.3,0,0.4c-0.1,0.2-0.6,0.2-0.7,0.5
						c-0.1,0.2,0,0.4-0.2,0.6c-0.1,0.2-0.4,0.1-0.6,0.3c-0.4-0.3-0.5-0.8-0.8-1.3c-0.2-0.3-0.2-0.3-0.6-0.2c-0.1-0.7,0-1.3-0.6-1.7
						c-0.5-0.3-2-0.3-2.3,0.3c-0.6,0-2,0-2.2,0.7c0,0.2,0,0.5,0,0.7c-0.5,0-0.3,0.6-0.6,0.8c-0.1,0.1-0.3,0.1-0.4,0
						c-0.1,0-0.2-0.1-0.3,0c0,0.1,0,0.2,0,0.2c-0.6-0.1-1.4-0.2-1.9,0.2s-0.6,1.4-0.4,2c-0.6,0.3-0.5,1-0.4,1.5
						c0.1,0.4,0.2,0.8,0.1,1.2c-0.2,0.6-0.6,1.1-0.7,1.8c-0.1,1.4,0,2.8,0.1,4.2c0,0.7,0.1,1.4,0.1,2.1c0,0.3-0.1,0.6,0,0.8
						c0,0.2,0.1,0.7,0.2,0.8c0.1,0.1,0.6,0.1,1,0.1c0.2,0,0.3,0,0.4,0c1.2,0.1,2.3,0.3,3.5,0.4c0.7,0.1,1.6,0.2,2.3,0.1
						s1.3-0.4,2-0.6c1.1-0.4,2.3-0.6,3.5-0.9c1.1-0.3,2-0.8,3.1-1c1.4-0.2,2.9-0.3,4.3-0.5c1.7-0.3,3.2-1.4,3.5-3.2
						c0.1-0.8,0.2-1.5,0.4-2.3c0.2-0.6,0.6-1.1,0.7-1.7c0.2-1.5,0.2-3.4-1.3-4.3c-0.5-0.3-0.8,0-1.1,0.2c-0.2-0.4-0.5-0.6-0.7-0.9
						c-0.3-0.5-0.4-1.2-1.2-1.1c0,0,0,0,0,0.1c-0.6-0.2-1.8-0.6-1.9,0.4c-0.4,0.1-0.6,0.4-0.9,0.5c-0.2-0.3,0.1-0.6,0-0.9
						c-0.1-0.1-0.2-0.2-0.3-0.3c-0.1-0.2,0-0.4-0.1-0.6c-0.1-0.1-0.4-0.2-0.5-0.2c-0.3-0.1-0.2-0.1-0.3-0.3
						c-0.1-0.3-0.1-0.3-0.4-0.5c-0.1,0-0.3-0.1-0.4-0.1c-0.1-0.1-0.2-0.3-0.3-0.4c-0.1-0.2-0.3-0.2-0.4-0.2
						C221.2,39.3,221.1,39.3,220.9,39.5"/>
				</defs>
				<clipPath id="SVGID_68_">
					<use xlink:href="#SVGID_67_"  style="overflow:visible;"/>
				</clipPath>
				
					<linearGradient id="SVGID_69_" gradientUnits="userSpaceOnUse" x1="-255.604" y1="-603.6804" x2="-254.604" y2="-603.6804" gradientTransform="matrix(-25.1069 0 0 25.1069 -6186.3213 15205.293)">
					<stop  offset="0" style="stop-color:#C6C991"/>
					<stop  offset="0.5861" style="stop-color:#929F4C"/>
					<stop  offset="1" style="stop-color:#718638"/>
				</linearGradient>
				<rect x="205.9" y="39.3" class="st29" width="25.5" height="18.9"/>
			</g>
		</g>
	</g>
</g>
<g>
	<g>
		<g>
			<g>
				<defs>
					<rect id="SVGID_70_" x="-36.2" y="-678.4" width="595.3" height="841.9"/>
				</defs>
				<clipPath id="SVGID_71_">
					<use xlink:href="#SVGID_70_"  style="overflow:visible;"/>
				</clipPath>
				<rect x="213.9" y="38.2" class="st30" width="0.3" height="17"/>
			</g>
		</g>
	</g>
	<g>
		<g>
			<g>
				<defs>
					<rect id="SVGID_72_" x="-36.2" y="-678.4" width="595.3" height="841.9"/>
				</defs>
				<clipPath id="SVGID_73_">
					<use xlink:href="#SVGID_72_"  style="overflow:visible;"/>
				</clipPath>
				<rect x="147.5" y="40.1" class="st31" width="0.3" height="15.2"/>
			</g>
		</g>
	</g>
</g>
<g>
	<g>
		<g>
			<g>
				<defs>
					<path id="SVGID_74_" d="M361.2,44.5c-0.9,0.1-2.5,1-2.9,1.9c-0.3,0.8-0.1,1.7-0.7,2.4c-0.8,0.9-2,0.5-1.9,2.2l-0.8,1
						c-1,0-1,0.7-1.4,1.3c-0.8,1.1-3.2,3.1-2.5,4.6c0.5,0.9,2.4,1.5,3.2,2.5c1.6,2,2.3,4.2,5.2,4.3c1.8,0.1,3.5-0.1,5.3-0.3
						s3.6-0.3,5.5-0.3c4.3,0.2,8.6,1,13,0.5c3.5-0.4,6.7-1.9,10.2-1.5c1.7,0.2,4.4,1.4,6,0.5c0.5-0.3,0.8-1.1,0.9-1.6
						c0.6-1.9-0.3-2.5-0.9-4.1c-0.4-1.2-0.3-1.8-1.4-2.7c-0.8-0.7-1.9-1.4-2.9-1.9c-1.4-0.7-2.6-0.3-3.9-0.2c-0.3,0-0.6,0-0.9,0
						c-0.8,0-1.5,0-2.5,0.4c-1.1,0.5-0.4,0.4-1.4,0.1c-0.8-0.2-1.1-0.6-2-0.5c-1.9,0.1-2.9,1.7-4.3,2.6c0.1-1-0.8-0.9-1.7-0.8
						c-0.4,0.1-0.8,0.1-1,0.1c-0.3-1.6,0.6-3.5,0.3-5.2c-0.3-1.8-4-3.8-5.2-1.9c-1.8-0.7-3.3,2-4.2,3c-0.9-0.1-0.7-1.1-1.1-1.8
						c-0.6-1.2-2-1.5-3.2-1.5c-0.3-1.9,0-3-1.8-3C361.7,44.5,361.5,44.5,361.2,44.5"/>
				</defs>
				<clipPath id="SVGID_75_">
					<use xlink:href="#SVGID_74_"  style="overflow:visible;"/>
				</clipPath>
				
					<linearGradient id="SVGID_76_" gradientUnits="userSpaceOnUse" x1="-252.4934" y1="-602.6277" x2="-251.4934" y2="-602.6277" gradientTransform="matrix(-33.5494 10.281 10.281 33.5494 -1871.5485 22859.7285)">
					<stop  offset="0" style="stop-color:#C9B92E"/>
					<stop  offset="0.619" style="stop-color:#7A8536"/>
					<stop  offset="1" style="stop-color:#4F6B31"/>
				</linearGradient>
				<polygon class="st32" points="396.5,30.3 344.6,46.2 354.6,79.1 406.6,63.2 				"/>
			</g>
		</g>
	</g>
</g>
<g>
	<g>
		<g>
			<g>
				<defs>
					<path id="SVGID_77_" d="M356.1,52.5l-2,3.7c-0.4,4.2,5.8,6.4,9,7c3.7,0.7,7.4,0,11-0.6c2.7-0.5,5.5-0.9,8.3-0.8
						c2.4,0.1,4.8,0.3,7,1c0.4,0.1,0.8,0.3,1.2,0.4c0.1,0,0.4,0.1,0.5,0.1c0.4-1.1,0.1-2.6-0.8-3.4c-0.7-0.7-1.6-0.6-2.4-1
						s-1.1-0.9-2-1c-1.5-0.2-2.8,0.6-3.8,1.4c-1.1-2.1-3.6-2.3-5.7-2.6c-2.8-0.4-0.5-2.5-1-4.2c-0.2-0.8-1-2.4-1.8-2.7
						c-1.4-0.5-3.1,1.1-3.7,2.1c-0.5,0.8-0.5,0.7-0.1,1.5s0.7,0.9,0.5,1.8c-0.2,0.6-1.1,1.6-1.7,1.8c-0.6-1.8-0.9-3.2-2.7-4.4
						c-0.6-0.4-2.8-2.1-2.4-0.1c-0.2-0.7-0.6-1.1-0.9-1.6c-0.4-0.7-0.3-1.4-1.1-2c-0.4-0.3-0.8-0.4-1.2-0.4
						C358.5,48.5,357,51.2,356.1,52.5"/>
				</defs>
				<clipPath id="SVGID_78_">
					<use xlink:href="#SVGID_77_"  style="overflow:visible;"/>
				</clipPath>
				
					<linearGradient id="SVGID_79_" gradientUnits="userSpaceOnUse" x1="-252.8814" y1="-604.3809" x2="-251.8814" y2="-604.3809" gradientTransform="matrix(-37.1387 0 0 37.1387 -9000.4785 22502.0684)">
					<stop  offset="0" style="stop-color:#4F6B31"/>
					<stop  offset="1" style="stop-color:#46602C"/>
				</linearGradient>
				<rect x="353.7" y="48.5" class="st33" width="37.9" height="15.3"/>
			</g>
		</g>
	</g>
</g>
<g>
	<g>
		<g>
			<g>
				<defs>
					<path id="SVGID_80_" d="M352.4,49.9c-0.8,0.7-0.8,1.7-1.2,2.6c-0.5,1.1-1.2,1.7-1.3,3c-1.4-0.1-1.7,1.4-1.6,2.5v1
						c-0.1,1.4,1.2,1.1,2.2,1.1c2.7,0,6.1,1,8.7,0.3c1.3-0.4,1.4-1.1,1-2.4c-0.1-0.3-0.4-0.5-0.5-0.8s0.1-0.7,0-1
						c-0.3-1.1-1-1.2-1.9-1.5c0.1-2.2,0-4.1-2.6-4.4c0.1-0.8-0.3-1.1-0.9-1.1C353.7,49.2,352.8,49.6,352.4,49.9"/>
				</defs>
				<clipPath id="SVGID_81_">
					<use xlink:href="#SVGID_80_"  style="overflow:visible;"/>
				</clipPath>
				
					<linearGradient id="SVGID_82_" gradientUnits="userSpaceOnUse" x1="-267.9874" y1="-593.1241" x2="-266.9874" y2="-593.1241" gradientTransform="matrix(-8.5432 2.618 2.618 8.5432 -375.7257 5821.8784)">
					<stop  offset="0" style="stop-color:#C9B92E"/>
					<stop  offset="0.619" style="stop-color:#7A8536"/>
					<stop  offset="1" style="stop-color:#4F6B31"/>
				</linearGradient>
				<polygon class="st34" points="359.6,45.7 344.9,50.2 349.3,64.5 364,60 				"/>
			</g>
		</g>
	</g>
</g>
<g>
	<g>
		<g>
			<g>
				<defs>
					<rect id="SVGID_83_" x="-36.2" y="-678.4" width="595.3" height="841.9"/>
				</defs>
				<clipPath id="SVGID_84_">
					<use xlink:href="#SVGID_83_"  style="overflow:visible;"/>
				</clipPath>
				<path class="st35" d="M307.1,56.3c0.2-1.8,1.9-2.8,2.5-4.4L311,50c-0.2-1.3,1-2.5,2.1-2.9c1.6-0.5,2.5,0.1,3.4,1.4
					c0.7-0.5,1.5-0.6,2.3-0.9c1.4-0.5,4.6-1.5,5.8,0.3c0.4,0.7,0.1,1.5,0.2,2.2c0.2,0.9,1,1.6,1,2.6c1.1-0.9,2.8,0.7,3.8,1.2
					c0.1-0.9,0-1.6,0.6-2.4c0.7-1,2.3-1.6,3.4-1c-1.2-1.3-0.1-3,1.2-3.8c0.9-0.6,2.3-1.2,3.5-1c0.7,0.1,0.4,0.2,0.9,0.6
					c1.1,0.8,2.8,1,3.4,2.6c0.3,0.8,0.4,2.7,0.1,3.5c0.7,0.4,1.6,1.7,1.7,2.6c2.1,0,2.6,3.6,1.3,4.7c-3.5,2.8-9.2,1.6-13.3,1.3
					c-4.1-0.2-8.2,0.6-12.3,0.7c-3.1,0.1-6.5,0.3-9.4-0.9C308.8,59.9,306.9,58.6,307.1,56.3"/>
			</g>
		</g>
	</g>
	<g>
		<g>
			<g>
				<defs>
					<rect id="SVGID_85_" x="-36.2" y="-678.4" width="595.3" height="841.9"/>
				</defs>
				<clipPath id="SVGID_86_">
					<use xlink:href="#SVGID_85_"  style="overflow:visible;"/>
				</clipPath>
				<path class="st36" d="M310.1,53.4l2.2-2.9c0.4-0.6,2.8-2.7,3.2-0.9c1.5-0.1,3.2,1.3,3.3,2.8c1.6,0.4,2.3,1.3,2.2,2.8
					c0.3-0.3,0.8-1.4,0.5-2c-0.2-0.4-0.9-0.5-1.2-0.9c-0.1-0.2-0.1-0.6-0.2-0.9c-0.2-0.4-0.9-0.6-1.1-0.8c-0.4-0.6-0.5-1.5,0.2-2
					c0.4-0.3,1.5-0.4,2-0.5c0.9-0.1,1.7,0,2,0.9c0.1,0.3-0.1,0.6,0,0.9c0.2,0.5,0.8,1,1,1.6s0.2,1.3,0.2,1.9c0.7,0.3,1.5,0.3,2,1
					c0.3,0.4,0.2,1,0.4,1.4c0.1,0.2,0.5,0.2,0.7,0.4s0.3,0.5,0.3,0.8c0.1,0.5,0.2,1.1,0.3,1.5c0.4-0.9,0.2-1.8-0.1-2.7
					c-0.2-0.6,0-0.6-0.4-1c-0.3-0.3-0.6-0.3-0.9-0.6c1.9-0.5,1.9,2.5,3.8,0.7c0.7-0.7,0.3-0.4,0.4-1.2s0.3-0.8,0.9-1.4
					c0.7-0.8,1.1-0.9,2.2-0.4c1.2,0.6,2.7,1.1,3.5,2.3c0-0.8-0.2-2.3-0.9-2.8c-0.4-0.3-0.9-0.1-1.4-0.6c-0.1-0.1-0.7-1.2-0.7-1.3
					c-0.1-0.8,1.2-1.4,1.8-1.6c2.7-0.9,5.6,1.1,5.3,3.8c-1.5-0.4-2.1-1.8-3.8-1.7c-0.1,1,2.6,1.6,2.9,2.8c0.1,0.3-0.1,0.8,0,1.1
					c0.2,0.3,1,0.3,1.3,0.6c0.4,0.4,0.3,0.9,0.8,1.3c0.7,0.6,1.3,0.8,1.5,1.7c0.2,1-0.5,2.1-0.8,3.1c-4.5,0.2-8.9-0.2-13.4-0.1
					c-3.4,0-6.7,0.5-10.1,0.5c-2.7,0-5.8,0.2-8.4-0.6c-1.9-0.6-2.2-1.5-2.2-3.4C309.5,55.9,309.3,54.4,310.1,53.4"/>
			</g>
		</g>
	</g>
</g>
<g>
	<g>
		<g>
			<g>
				<defs>
					<path id="SVGID_87_" d="M302.3,45.9c-0.2,0.2-0.5,0.6-0.7,0.7c-0.7,0.6-1.5,0.8-1.7,1.7c-0.1,0.6,0,1.3,0.5,1.7l-0.3,0.6
						c-0.3,0.1-1,0.8-1.3,1.2c-0.2,0.3-0.1,0.7-0.3,1.1c-0.1,0.2-0.4,0.3-0.5,0.5c-0.8,1.2-0.7,2.7,0.5,3.6c0.6,0.4,0.9,0.4,1.1,0.9
						c0.3,0.6,0,1.1,0.5,1.7c1.3,1.5,3.3,0.6,4.8,0.5c0.6,0,1.3,0.2,2,0.4c1.4,0.5,2.8,0.9,3.9-0.6c1,0.3,2.5,0.6,3.3-0.3
						c0.3-0.3,0.2-0.8,0.4-1c0.3-0.3,0.6-0.3,0.9-0.7c0.1-0.1-0.1-0.5,0-0.6c0.1-0.2,0.3-0.3,0.4-0.4c0.8-1.1,1.6-1.7,1.1-3.2
						c-0.1-0.4-0.4-1-0.6-1.4c-0.3-0.6-0.7-1.4-1.5-0.8c-0.5-0.9-1.1-1.6-1.2-2.5c-0.1-1-0.2-2-1.3-2.5c-0.3-0.1-0.5-0.1-0.8,0
						c-0.2,0-0.4,0-0.5,0s-0.4-0.3-0.6-0.4c-0.7-0.2-1.7-0.1-1.9,0.8c-0.4-0.6-1.3-1-2.1-1c0.1-0.8-0.5-1.1-1.3-1.1
						C304.1,45,302.8,45.6,302.3,45.9"/>
				</defs>
				<clipPath id="SVGID_88_">
					<use xlink:href="#SVGID_87_"  style="overflow:visible;"/>
				</clipPath>
				
					<linearGradient id="SVGID_89_" gradientUnits="userSpaceOnUse" x1="-258.0958" y1="-603.0289" x2="-257.0958" y2="-603.0289" gradientTransform="matrix(-19.3652 0 0 19.3652 -4681.3125 11730.9746)">
					<stop  offset="0" style="stop-color:#979E38"/>
					<stop  offset="0.9761" style="stop-color:#5C7936"/>
					<stop  offset="1" style="stop-color:#5A7836"/>
				</linearGradient>
				<rect x="297.1" y="45" class="st37" width="20.1" height="16.4"/>
			</g>
		</g>
	</g>
</g>
<g>
	<g>
		<g>
			<g>
				<defs>
					<rect id="SVGID_90_" x="-36.2" y="-678.4" width="595.3" height="841.9"/>
				</defs>
				<clipPath id="SVGID_91_">
					<use xlink:href="#SVGID_90_"  style="overflow:visible;"/>
				</clipPath>
				<path class="st38" d="M253,43.8c0-1,0.7-1.6,1.3-2.3c0.2-0.3,0.3-0.6,0.6-0.8c0.2-0.1,0.5-0.1,0.6-0.2c0.6-0.5,1-1.3,2.2-1.3
					c0.8,0,1.2,0.3,1.8,0.6c0.4,0.2,0.5,0.2,0.9,0.4c1,0.4,2,0.7,2.5,1.8c0.1,0.2,0.1,0.6,0.2,0.8c0.1,0.2,0.5,0.2,0.6,0.3
					c0.2,0.4,0,1,0,1.4c0.4,0.1,1.1-0.1,1.5,0.1c0.6,0.4,0.5,1.6,1,2c0.7,0.5,2.1-0.2,2.9-0.2c0.8-0.1,1.6,0,2.3,0
					c0-0.6,0.2-1.3,0.3-2c0.3,0,0.7,0,1-0.2c0-0.6-0.2-1.8,0.3-2.3c0.4-0.5,1.1-0.4,1.6-0.5c-0.4-1.2-0.5-2.6,0.5-3.5
					c0.6-0.5,0.6-0.4,1-1.1c0.2-0.4,0.5-0.7,0.7-1c0.7-0.8,1.3-1.1,2.3-1.1c1.2-0.1,2.5,0.4,3,1.6c0.9-0.1,1.2-0.2,1.9,0.2
					c0.2,0.2,0.7,0.7,0.8,0.9c0.2,0.3,0.2,0.9,0.4,1.1c0.3,0.4,0.7,0.2,0.9,0.8c0.2,0.5,0,1.1,0.1,1.5c0.2,0.6,0.4,0.4,0.4,1.1
					c0,0.5,0.1,0.7,0.2,1.1c0,0.2-0.1,0.7,0,0.8c0.3,0.3,1.2,0,1.6,0.2c0.7,0.2,1.4,1,1.6,1.6l0.9,2.1c0,0.4,0.3,1.4,0.1,1.8
					c-0.3,0.5-1.9,0.2-2.4,0.2c-6.8,0-13.7,0.1-20.6-0.1c-2.3-0.1-4.7-0.1-6.9-0.7c-1.5-0.4-2.8-0.9-4.3-1c-1.3-0.1-2.5,0.1-3.2-1.1
					c-0.4-0.6-0.1-1-0.3-1.6C253.4,44.7,253.1,44.5,253,43.8"/>
			</g>
		</g>
	</g>
	<g>
		<g>
			<g>
				<defs>
					<rect id="SVGID_92_" x="-36.2" y="-678.4" width="595.3" height="841.9"/>
				</defs>
				<clipPath id="SVGID_93_">
					<use xlink:href="#SVGID_92_"  style="overflow:visible;"/>
				</clipPath>
				<path class="st39" d="M274.5,44c-1.4-1.8-0.4-1.7,1.2-1.8c0-1,0.3-1.9,0.5-2.7c0.1-0.3-0.1-0.6,0-0.9c0.2-0.7,0.7-0.7,1.1-1.1
					c0.1-0.1,0.1-0.5,0.2-0.5c0.5-0.4,1-0.3,1.5-0.3c0.3,0,0.8-0.1,1.1,0.1c0.3,0.2,0.4,0.7,0.6,0.9c0.5,0.4,1.1,0.1,1.7,0.2
					c2.1,0.3,2.2,1.8,2.6,3.4c-1.4-0.9-2.7-2.7-4.6-2.2c-0.4,0.1-0.6,0.4-0.8,0.5c-0.3,0.1-0.6-0.1-0.9,0c-0.5,0.2-0.6,0.9-0.7,1.4
					c1.9-0.7,2.6-1.1,4.5-0.2c1.2,0.6,2.2,1.7,2.6,2.9c-1.4-0.1-2.4-1-3.5,0.3c0.8,0,1.7-0.2,2.4,0c0.4,0.1,0.7,0.4,1.1,0.5
					c0.9,0.2,1.6-0.2,2.4,0.5c0.3,0.3,0.7,0.7,0.7,1.2c-0.1,1.5-2.9,0.2-3.9,0.1c-1.9-0.2-3.7,0.4-5.6,0.5c-1.8,0.1-3.7-0.1-5.5-0.1
					v-0.5C273.2,45.3,273.6,44.1,274.5,44"/>
			</g>
		</g>
	</g>
	<g>
		<g>
			<g>
				<defs>
					<rect id="SVGID_94_" x="-36.2" y="-678.4" width="595.3" height="841.9"/>
				</defs>
				<clipPath id="SVGID_95_">
					<use xlink:href="#SVGID_94_"  style="overflow:visible;"/>
				</clipPath>
				<path class="st40" d="M255.7,42.5c0.2-0.3,0.4-0.3,0.6-0.5c0.2-0.3,0.1-0.6,0.4-0.8s1.4-0.4,1.8-0.4c0.8,0,1.6,0.6,2.3,1
					c1.1,0.7,2.1,1.2,1.3,2.6c-1.7-1-2.7-1.5-4.7-1c-0.8,0.2-1.5,0.3-2.3,0.3l-0.6-0.1C254.3,42.8,254.9,42.2,255.7,42.5"/>
			</g>
		</g>
	</g>
</g>
<g>
	<g>
		<g>
			<g>
				<defs>
					<path id="SVGID_96_" d="M235.8,38.8c-0.7,0.5-0.8,1-0.8,1.8c-0.4,0-1.7-0.1-1.7,0.6c-0.8,0.1-1.1,0.7-1.1,1.4
						c-0.8,0.3-1.2,1.1-0.5,1.7c0.4,0.4,0.4,0.3,0.5,0.8c-0.4-0.1-1.4,0.1-1.3,0.6c-0.8-0.8-3.1,0.8-3.4,2.8l-1.5,1.2
						c-1.2,0.8,1.6,2.3,2.2,3.1c0.2,0.3,0.4,0.6,0.5,0.9c0,0.3-0.1,0.6-0.1,0.9c0,1.5,2.3,1.8,3.5,1.8c0.3,0,0.6,0,0.9,0
						c0.6,0,1.1-0.1,1.6,0.1c0.7,0.3,1.3,0.8,2.1,1c0.9,0.2,1.9,0.2,2.8,0.1c0.8-0.1,1.8-0.1,2.5-0.6c0.1-0.1,0.3-0.4,0.4-0.5
						c0.3-0.2,1.1-0.1,1.4-0.2c0.6-0.2,1.2-0.4,1.8-0.8c0.3-0.2,0.8-0.7,0.7-1.1c0.7-0.5,1.6-0.7,2.1-1.4c0.4-0.6,0.3-1.4,0.1-2
						c-0.2-0.4-0.5-0.8-0.3-1.2c0.2-0.5,0.9-0.7,1.1-1.2c0.3-0.7-0.1-1.5-0.2-2.2c-0.1-0.6-0.3-1.1-1-1.2c-0.4-0.1-1-0.1-1.3,0.2
						c-0.2-0.7-1.9-0.2-2.2,0.2c0.1-0.3,0.1-0.7,0-0.9c-0.2-0.8-0.8-0.8-1.4-1c0-1.1-1.7-0.6-2.3-0.3c0.1-0.6,0.2-1.1,0.1-1.7
						c-0.1-0.7-0.6-0.9-1-1.3c0.6-0.5,0.1-1.3-0.5-1.5c-0.5-0.2-1.1-0.1-1.6-0.3c-0.2-0.1-0.4-0.1-0.6-0.1
						C236.5,38.4,236.2,38.6,235.8,38.8"/>
				</defs>
				<clipPath id="SVGID_97_">
					<use xlink:href="#SVGID_96_"  style="overflow:visible;"/>
				</clipPath>
				
					<linearGradient id="SVGID_98_" gradientUnits="userSpaceOnUse" x1="-256.4146" y1="-603.4713" x2="-255.4146" y2="-603.4713" gradientTransform="matrix(-22.8984 0 0 22.8984 -5622.6909 13866.627)">
					<stop  offset="0" style="stop-color:#C6C991"/>
					<stop  offset="0.619" style="stop-color:#9AA650"/>
					<stop  offset="1" style="stop-color:#7E933A"/>
				</linearGradient>
				<rect x="224.7" y="38.4" class="st41" width="24.4" height="19.4"/>
			</g>
		</g>
	</g>
</g>
<g>
	<g>
		<g>
			<g>
				<defs>
					<rect id="SVGID_99_" x="-36.2" y="-678.4" width="595.3" height="841.9"/>
				</defs>
				<clipPath id="SVGID_100_">
					<use xlink:href="#SVGID_99_"  style="overflow:visible;"/>
				</clipPath>
				<rect x="383.1" y="47.7" class="st42" width="0.9" height="4.9"/>
			</g>
		</g>
	</g>
	<g>
		<g>
			<g>
				<defs>
					<rect id="SVGID_101_" x="-36.2" y="-678.4" width="595.3" height="841.9"/>
				</defs>
				<clipPath id="SVGID_102_">
					<use xlink:href="#SVGID_101_"  style="overflow:visible;"/>
				</clipPath>
				<polygon class="st43" points="383.1,50.9 383.1,52.6 381.8,50.9 				"/>
			</g>
		</g>
	</g>
	<g>
		<g>
			<g>
				<defs>
					<rect id="SVGID_103_" x="-36.2" y="-678.4" width="595.3" height="841.9"/>
				</defs>
				<clipPath id="SVGID_104_">
					<use xlink:href="#SVGID_103_"  style="overflow:visible;"/>
				</clipPath>
				<rect x="304.2" y="38.2" class="st44" width="0.3" height="17"/>
			</g>
		</g>
	</g>
</g>
<g>
	<g>
		<g>
			<g>
				<defs>
					<path id="SVGID_105_" d="M294.5,48c-1.3,0.1-1.8,0.4-2.5,1.4l-1.2,1.8c-0.1-0.2-0.2-0.2-0.4-0.2c-0.6,0.9-1,1.7-1.3,2.6
						c-0.3,1.1-1.3,2.5-0.8,3.6c0.7,1.8,3.5,1.4,5,1.9c1.6,0.6,2.9,1.1,4.6,1.2c1.5,0.1,4.9,0.7,6.2-0.7c0.5-0.6,0.1-1,0.5-1.6
						c0.4-0.7,1.5-0.4,1.3-1.5c2-0.5,0.3-3.1-0.3-4c-0.3-0.5-0.4-1-0.7-1.5c-0.3-0.6-2-1.5-2.3-0.9c-0.3-1.4-2-1.2-3.1-0.7
						c-0.6,0.3-0.9,1-1.7,0.5l-0.2-0.7c-0.3-0.4-0.7-0.8-1.1-1.1c-0.4-0.2-0.7-0.2-1-0.2C294.9,48,294.7,48,294.5,48"/>
				</defs>
				<clipPath id="SVGID_106_">
					<use xlink:href="#SVGID_105_"  style="overflow:visible;"/>
				</clipPath>
				
					<linearGradient id="SVGID_107_" gradientUnits="userSpaceOnUse" x1="-260.6359" y1="-597.6" x2="-259.6359" y2="-597.6" gradientTransform="matrix(-13.2176 4.0505 4.0505 13.2176 -715.8444 9005.7256)">
					<stop  offset="0" style="stop-color:#C9B92E"/>
					<stop  offset="0.619" style="stop-color:#7A8536"/>
					<stop  offset="1" style="stop-color:#4F6B31"/>
				</linearGradient>
				<polygon class="st45" points="306,42.4 284.1,49.1 289.5,66.6 311.3,59.9 				"/>
			</g>
		</g>
	</g>
</g>
<g>
	<g>
		<g>
			<g>
				<defs>
					<path id="SVGID_108_" d="M109.1,29.7c-1.2,0.5-2.4,1-3.6,1.6c-1.6,0.7-2.1,1.6-2.7,3.2c-0.3,0.8,0.2,0.3-0.8,0.8
						c-0.7,0.3-1.5,0.3-2,1c-0.7,0.9,0.1,1.3,0.2,2.1c0.1,0.4-0.2,0.5,0,1c0.1,0.3,0.5,0.5,0.6,0.8c0.5,0.8,0.6,0.1-0.1,1
						c-0.3,0.4-0.7,0.5-0.4,1.2c0.5,1.3,2.4,0.9,3.1,1.8c0.4,0.5,0,0.6-0.4,1.2c-0.9,1.3-0.8,2.1,1,2.4c-1.8,0.8-4.5,1.4-5.2,3.5
						c-0.1,0.3,0,0.7-0.1,1c-0.2,0.5-0.6,0.9-0.6,1.5c0,0.4,0.4,0.6,0.3,0.9c-0.1,0.5-0.5,0.5-0.7,0.9c-0.7,1-0.5,1.1-0.2,2.1
						c0.3,1.3,1.3,1.9,2.3,2.9c1.9,1.7,5.2,1.3,7.8,1.5c3.2,0.2,6.4,0.7,9.6,0.4c2.9-0.3,5.9-0.2,8.8-0.5c1.8-0.2,3.5-0.1,4.5-1.9
						c0.3-0.5,0.3-1.1,0.8-1.4c0.2-0.1,0.5-0.1,0.9-0.1c0.4,0,0.7,0,1-0.2c0.1-0.1,0.3-0.5,0.5-0.6c0.5-0.4,1.3-0.5,1.6-1.2
						c0.4-0.9-0.2-2.2-0.5-3c-0.5-1.5-1.3-2.3-2.9-2.3c-1.1,0-2.8,0.4-2-0.8c0.4-0.5,1.7-0.8,2.2-1.3c0.4-0.4,0.8-0.9,1-1.5
						c0.1-0.3,0.2-0.5,0.1-0.8c-0.3-1.3-2.1-2.1-3.2-1.6c-0.4-1.5-2.4,0.1-3,0.5c-0.3-1-1-0.6-0.7-1.6c0.2-0.7,1.1-1.3,1.4-2.1
						c0.1-0.3,0.2-0.7,0.2-1.1c0-0.5,0.3-0.5,0-1c-0.4-0.6-1.9-0.6-2.8-0.6c-0.3,0-0.5,0-0.6,0c0-0.8,1.5-0.8,2.5-0.7
						c0.3,0,0.6,0,0.8,0c-0.2-0.2-0.2-0.7-0.4-0.9c-0.9-0.9-2.7-0.7-3.9-0.9c0.7-1,1.4-2.4,0.5-3.7c-1.2-1.8-4.8-0.9-6.4-0.2
						c0.2-1.2-1.7-1.9-2.6-1.9c0.2,0-0.5-1.2-0.6-1.3c-0.4-0.4-0.9-0.5-1.4-0.6c-0.2,0-0.4,0-0.6,0C111.2,29,110.1,29.3,109.1,29.7"
						/>
				</defs>
				<clipPath id="SVGID_109_">
					<use xlink:href="#SVGID_108_"  style="overflow:visible;"/>
				</clipPath>
				
					<linearGradient id="SVGID_110_" gradientUnits="userSpaceOnUse" x1="-253.7841" y1="-601.8331" x2="-252.7841" y2="-601.8331" gradientTransform="matrix(-26.9729 8.2657 8.2657 26.9729 -1733.3982 18370.3125)">
					<stop  offset="0" style="stop-color:#C9B92E"/>
					<stop  offset="0.619" style="stop-color:#7A8536"/>
					<stop  offset="1" style="stop-color:#4F6B31"/>
				</linearGradient>
				<polygon class="st46" points="132.4,18.2 87.6,31.9 100.4,73.5 145.1,59.8 				"/>
			</g>
		</g>
	</g>
</g>
<g>
	<g>
		<g>
			<g>
				<defs>
					<rect id="SVGID_111_" x="-36.2" y="-678.4" width="595.3" height="841.9"/>
				</defs>
				<clipPath id="SVGID_112_">
					<use xlink:href="#SVGID_111_"  style="overflow:visible;"/>
				</clipPath>
				<rect x="77.1" y="43.2" class="st47" width="0.3" height="17.3"/>
			</g>
		</g>
	</g>
	<g>
		<g>
			<g>
				<defs>
					<rect id="SVGID_113_" x="-36.2" y="-678.4" width="595.3" height="841.9"/>
				</defs>
				<clipPath id="SVGID_114_">
					<use xlink:href="#SVGID_113_"  style="overflow:visible;"/>
				</clipPath>
				<rect x="27.9" y="43.2" class="st48" width="0.3" height="18.6"/>
			</g>
		</g>
	</g>
</g>
<rect x="263.9" y="53" class="st49" width="30.1" height="9.6"/>
<rect x="263.9" y="53" class="st50" width="30.1" height="1"/>
<rect x="266.8" y="45.5" class="st51" width="27.7" height="7.7"/>
<rect x="240.7" y="50.9" class="st49" width="26.7" height="9.6"/>
<rect x="240.7" y="50.9" class="st50" width="26.7" height="1"/>
<polygon class="st52" points="239.7,51 266.9,51 266.9,42.7 247.9,42.7 "/>
<rect x="266" y="42.9" class="st53" width="0.8" height="7.9"/>
<rect x="266.8" y="42.3" class="st54" width="0.7" height="8.9"/>
<g>
	<g>
		<g>
			<g>
				<defs>
					<path id="SVGID_115_" d="M248.5,47.2c-0.9-1.1-1.5,0.8-1.8,1.5c-0.2-0.5-0.9-0.6-1.4-0.4c-0.6,0.3-0.4,0.9-0.4,1.5
						c-0.6,0-0.8,0.1-0.9,0.8c0,0.2,0.1,0.3-0.1,0.5c-0.1,0-0.1,0-0.2-0.1c-0.1,0-0.1-0.1-0.1-0.1c-0.6,0.1-0.5,0.8-0.8,1.2
						c-0.2,0.4-0.5,0.4-0.5,1c0,0.7,0.3,0.9,0.9,1.1c0,0.5-0.4,1.3,0.4,1.5c-0.1,0.6,0.2,0.6,0.5,0.6c0.1,0,0.3,0,0.4,0
						c0.3,0.1,0.6,0.6,0.7,0.9l0.4,0.7c0.3,0.4,0.8,0.5,1.2,0.7c0.5,0.1,0.9,0.3,1.4,0.4c0.4,0,0.9,0,1.3-0.1c0.3-0.1,0.7-0.4,1-0.5
						c0.4,0,0.7,0.3,1.1,0.4c0.8,0.3,1.8,0.2,2.4-0.4l0.2-0.4c0.2-0.1,0.8-0.1,1-0.1c1.2-0.2,2.6-1.1,1.9-2.4
						c0.9-0.5,1.5-1.6,0.4-2.3c0.2-0.4-0.2-1.2-0.3-1.6c-0.3-1.1-1.1-0.6-1.9-0.5c-0.1-0.2,0-0.3-0.1-0.5c-0.1-0.3-0.2-0.6-0.4-0.8
						s-0.5-0.2-0.6-0.4c-0.2-0.2-0.1-0.5-0.3-0.7c-0.3-0.3-0.7-0.3-1.1-0.3h-0.1c0.1-1.3-1.1-0.4-1.8-0.3c-0.1-0.6,0.2-0.8-0.4-1.2
						c-0.3-0.2-0.6-0.3-0.9-0.3C249.1,46.4,248.7,46.7,248.5,47.2"/>
				</defs>
				<clipPath id="SVGID_116_">
					<use xlink:href="#SVGID_115_"  style="overflow:visible;"/>
				</clipPath>
				
					<linearGradient id="SVGID_117_" gradientUnits="userSpaceOnUse" x1="-260.667" y1="-602.3749" x2="-259.667" y2="-602.3749" gradientTransform="matrix(-15.668 0 0 15.668 -3826.1997 9490.6094)">
					<stop  offset="0" style="stop-color:#979E38"/>
					<stop  offset="0.9761" style="stop-color:#5C7936"/>
					<stop  offset="1" style="stop-color:#5A7836"/>
				</linearGradient>
				<rect x="242.2" y="46.2" class="st55" width="16.3" height="12.8"/>
			</g>
		</g>
	</g>
</g>
<g>
	<g>
		<g>
			<g>
				<defs>
					<path id="SVGID_118_" d="M220.9,45.9c-0.1-0.1-0.3-0.7-0.5-0.8c-0.6-0.2-1.6,0.8-1.8,1.2c-0.6,0.9-0.3,1.9-0.8,2.7
						c0,0-0.1,0-0.2,0h-0.1c0,0.1,0,0.3,0,0.4c-1-1.4-1.7,1.4-2.1,1.8c-0.4,0.4-0.7,0.3-0.9,1c-0.2,0.5,0,1.2,0.1,1.7l0.3,2.9
						c0.7,0,1.3,0.1,2,0.2c1.8,0.3,3.8,0.5,5.6,0.2c0.9-0.2,1.6-0.4,2.5-0.4c1.5-0.1,3.1,0.2,4.7,0.4c1.9,0.3,3.8,0.5,5.7,0.3
						c1.2-0.2,1.8-1.4,0.5-2.1c0.9-0.7,0.7-1.5-0.1-2.3c0.3-1.2-4.4-4.7-5-3.4c-0.1-1.4-2.4,0.4-2.9,0.5c-0.8-0.8-0.1-1.4-0.2-2.2
						c-0.1-1.3-1.6-2.2-2.7-2.6c-0.2-0.1-1.2-0.2-2.2-0.2C221.8,45,220.8,45.2,220.9,45.9"/>
				</defs>
				<clipPath id="SVGID_119_">
					<use xlink:href="#SVGID_118_"  style="overflow:visible;"/>
				</clipPath>
				
					<linearGradient id="SVGID_120_" gradientUnits="userSpaceOnUse" x1="-256.7176" y1="-603.3907" x2="-255.7176" y2="-603.3907" gradientTransform="matrix(-22.1694 0 0 22.1694 -5454.6499 13428.1602)">
					<stop  offset="0" style="stop-color:#688139"/>
					<stop  offset="0.2184" style="stop-color:#5F7935"/>
					<stop  offset="0.6925" style="stop-color:#516C31"/>
					<stop  offset="1" style="stop-color:#4B6730"/>
				</linearGradient>
				<rect x="214.3" y="45" class="st56" width="22.9" height="12.7"/>
			</g>
		</g>
	</g>
</g>
<g>
	<g>
		<g>
			<g>
				<defs>
					<rect id="SVGID_121_" x="-36.2" y="-678.4" width="595.3" height="841.9"/>
				</defs>
				<clipPath id="SVGID_122_">
					<use xlink:href="#SVGID_121_"  style="overflow:visible;"/>
				</clipPath>
				<path class="st57" d="M178.3,38.1c0-0.5-0.4-0.4-0.4-0.9s0.5-0.5,0.6-0.8c0.2-0.4-0.1-0.9,0.3-1.2c0.4-0.3,0.7-0.2,1.1-0.5
					c0.6-0.5,1-1,1.8-0.9s0.5,0.7,1,1s1.2-0.4,1.8-0.3c0.7,0.1,0.6,0.5,0.9,1c0.1,0.1,0,0.3,0.1,0.4c0.4,0.4,1.4,0.5,1.9,0.8
					s0.4,0.5,0.7,0.8c0.5,0.4,1,0.1,1.3,0.7c0.2,0.3,0.1,0.8,0.1,1.2c0,0.6,0.1,1-0.4,1.3c-1,0.6-3.4-0.6-4.4-0.7
					c-1.9-0.3-3.8,0.2-5.7,0.2c-0.7,0-1.3,0-2,0v-0.9C177,38.6,177.5,38,178.3,38.1"/>
			</g>
		</g>
	</g>
	<g>
		<g>
			<g>
				<defs>
					<rect id="SVGID_123_" x="-36.2" y="-678.4" width="595.3" height="841.9"/>
				</defs>
				<clipPath id="SVGID_124_">
					<use xlink:href="#SVGID_123_"  style="overflow:visible;"/>
				</clipPath>
				<path class="st58" d="M179.4,38.4c0-0.4-0.1-1-0.1-1.3c-0.1-1.1-0.1-1,0.7-1.5c0.4-0.2,0.8-0.8,1.4-0.5c0.3,0.1,0.2,0.4,0.5,0.6
					c0.4,0.2,0.6,0.1,1,0.1c0.3,0,1.1-0.3,1.3-0.1c0.3,0.2,0.1,0.6,0.3,0.8c0.5,0.9,1.7,0.4,2.4,1.1c0.2,0.2,0.1,0.4,0.4,0.6
					c0.3,0.2,0.9,0.2,1.1,0.6c0.3,0.5-0.2,1-0.4,1.4c-2.3-0.1-4.5-0.7-6.8-0.7c-0.7,0-1.6-0.2-2.3,0.1l-0.7-0.4
					C178.7,38.8,179,38.5,179.4,38.4"/>
			</g>
		</g>
	</g>
	<g>
		<g>
			<g>
				<defs>
					<rect id="SVGID_125_" x="-36.2" y="-678.4" width="595.3" height="841.9"/>
				</defs>
				<clipPath id="SVGID_126_">
					<use xlink:href="#SVGID_125_"  style="overflow:visible;"/>
				</clipPath>
				<rect x="172.1" y="48.6" class="st59" width="35.2" height="13.2"/>
			</g>
		</g>
	</g>
	<g>
		<g>
			<g>
				<defs>
					<rect id="SVGID_127_" x="-36.2" y="-678.4" width="595.3" height="841.9"/>
				</defs>
				<clipPath id="SVGID_128_">
					<use xlink:href="#SVGID_127_"  style="overflow:visible;"/>
				</clipPath>
				<rect x="172.1" y="48.6" class="st60" width="35.2" height="0.8"/>
			</g>
		</g>
	</g>
	<g>
		<g>
			<g>
				<defs>
					<rect id="SVGID_129_" x="-36.2" y="-678.4" width="595.3" height="841.9"/>
				</defs>
				<clipPath id="SVGID_130_">
					<use xlink:href="#SVGID_129_"  style="overflow:visible;"/>
				</clipPath>
				<rect x="171.7" y="38.8" class="st61" width="36" height="9.9"/>
			</g>
		</g>
	</g>
	<g>
		<g>
			<g>
				<defs>
					<rect id="SVGID_131_" x="-36.2" y="-678.4" width="595.3" height="841.9"/>
				</defs>
				<clipPath id="SVGID_132_">
					<use xlink:href="#SVGID_131_"  style="overflow:visible;"/>
				</clipPath>
				<rect x="194.2" y="38.7" class="st62" width="4" height="1.2"/>
			</g>
		</g>
	</g>
	<g>
		<g>
			<g>
				<defs>
					<rect id="SVGID_133_" x="-36.2" y="-678.4" width="595.3" height="841.9"/>
				</defs>
				<clipPath id="SVGID_134_">
					<use xlink:href="#SVGID_133_"  style="overflow:visible;"/>
				</clipPath>
				<rect x="194.6" y="34.9" class="st63" width="3.2" height="4.6"/>
			</g>
		</g>
	</g>
	<g>
		<g>
			<g>
				<defs>
					<rect id="SVGID_135_" x="-36.2" y="-678.4" width="595.3" height="841.9"/>
				</defs>
				<clipPath id="SVGID_136_">
					<use xlink:href="#SVGID_135_"  style="overflow:visible;"/>
				</clipPath>
				<rect x="201.1" y="48.7" class="st64" width="0.6" height="0.7"/>
			</g>
		</g>
	</g>
	<g>
		<g>
			<g>
				<defs>
					<rect id="SVGID_137_" x="-36.2" y="-678.4" width="595.3" height="841.9"/>
				</defs>
				<clipPath id="SVGID_138_">
					<use xlink:href="#SVGID_137_"  style="overflow:visible;"/>
				</clipPath>
				<rect x="201.1" y="49.4" class="st65" width="0.6" height="1"/>
			</g>
		</g>
	</g>
	<g>
		<g>
			<g>
				<defs>
					<rect id="SVGID_139_" x="-36.2" y="-678.4" width="595.3" height="841.9"/>
				</defs>
				<clipPath id="SVGID_140_">
					<use xlink:href="#SVGID_139_"  style="overflow:visible;"/>
				</clipPath>
				<rect x="200.1" y="48.7" class="st66" width="0.6" height="0.7"/>
			</g>
		</g>
	</g>
	<g>
		<g>
			<g>
				<defs>
					<rect id="SVGID_141_" x="-36.2" y="-678.4" width="595.3" height="841.9"/>
				</defs>
				<clipPath id="SVGID_142_">
					<use xlink:href="#SVGID_141_"  style="overflow:visible;"/>
				</clipPath>
				<rect x="200.1" y="49.4" class="st67" width="0.6" height="1"/>
			</g>
		</g>
	</g>
	<g>
		<g>
			<g>
				<defs>
					<rect id="SVGID_143_" x="-36.2" y="-678.4" width="595.3" height="841.9"/>
				</defs>
				<clipPath id="SVGID_144_">
					<use xlink:href="#SVGID_143_"  style="overflow:visible;"/>
				</clipPath>
				<rect x="199.2" y="48.7" class="st68" width="0.6" height="0.7"/>
			</g>
		</g>
	</g>
	<g>
		<g>
			<g>
				<defs>
					<rect id="SVGID_145_" x="-36.2" y="-678.4" width="595.3" height="841.9"/>
				</defs>
				<clipPath id="SVGID_146_">
					<use xlink:href="#SVGID_145_"  style="overflow:visible;"/>
				</clipPath>
				<rect x="199.2" y="49.4" class="st69" width="0.6" height="1"/>
			</g>
		</g>
	</g>
	<g>
		<g>
			<g>
				<defs>
					<rect id="SVGID_147_" x="-36.2" y="-678.4" width="595.3" height="841.9"/>
				</defs>
				<clipPath id="SVGID_148_">
					<use xlink:href="#SVGID_147_"  style="overflow:visible;"/>
				</clipPath>
				<rect x="201.1" y="53.6" class="st70" width="0.6" height="2.1"/>
			</g>
		</g>
	</g>
	<g>
		<g>
			<g>
				<defs>
					<rect id="SVGID_149_" x="-36.2" y="-678.4" width="595.3" height="841.9"/>
				</defs>
				<clipPath id="SVGID_150_">
					<use xlink:href="#SVGID_149_"  style="overflow:visible;"/>
				</clipPath>
				<rect x="199.2" y="53.2" class="st71" width="2.5" height="0.4"/>
			</g>
		</g>
	</g>
	<g>
		<g>
			<g>
				<defs>
					<rect id="SVGID_151_" x="-36.2" y="-678.4" width="595.3" height="841.9"/>
				</defs>
				<clipPath id="SVGID_152_">
					<use xlink:href="#SVGID_151_"  style="overflow:visible;"/>
				</clipPath>
				<rect x="200.1" y="53.6" class="st72" width="0.6" height="2.1"/>
			</g>
		</g>
	</g>
	<g>
		<g>
			<g>
				<defs>
					<rect id="SVGID_153_" x="-36.2" y="-678.4" width="595.3" height="841.9"/>
				</defs>
				<clipPath id="SVGID_154_">
					<use xlink:href="#SVGID_153_"  style="overflow:visible;"/>
				</clipPath>
				<rect x="199.2" y="53.6" class="st73" width="0.6" height="2.1"/>
			</g>
		</g>
	</g>
	<g>
		<g>
			<g>
				<defs>
					<rect id="SVGID_155_" x="-36.2" y="-678.4" width="595.3" height="841.9"/>
				</defs>
				<clipPath id="SVGID_156_">
					<use xlink:href="#SVGID_155_"  style="overflow:visible;"/>
				</clipPath>
				<rect x="188.9" y="48.7" class="st74" width="0.6" height="0.7"/>
			</g>
		</g>
	</g>
	<g>
		<g>
			<g>
				<defs>
					<rect id="SVGID_157_" x="-36.2" y="-678.4" width="595.3" height="841.9"/>
				</defs>
				<clipPath id="SVGID_158_">
					<use xlink:href="#SVGID_157_"  style="overflow:visible;"/>
				</clipPath>
				<rect x="188.9" y="49.4" class="st75" width="0.6" height="1"/>
			</g>
		</g>
	</g>
	<g>
		<g>
			<g>
				<defs>
					<rect id="SVGID_159_" x="-36.2" y="-678.4" width="595.3" height="841.9"/>
				</defs>
				<clipPath id="SVGID_160_">
					<use xlink:href="#SVGID_159_"  style="overflow:visible;"/>
				</clipPath>
				<rect x="187.9" y="48.7" class="st76" width="0.6" height="0.7"/>
			</g>
		</g>
	</g>
	<g>
		<g>
			<g>
				<defs>
					<rect id="SVGID_161_" x="-36.2" y="-678.4" width="595.3" height="841.9"/>
				</defs>
				<clipPath id="SVGID_162_">
					<use xlink:href="#SVGID_161_"  style="overflow:visible;"/>
				</clipPath>
				<rect x="187.9" y="49.4" class="st77" width="0.6" height="1"/>
			</g>
		</g>
	</g>
	<g>
		<g>
			<g>
				<defs>
					<rect id="SVGID_163_" x="-36.2" y="-678.4" width="595.3" height="841.9"/>
				</defs>
				<clipPath id="SVGID_164_">
					<use xlink:href="#SVGID_163_"  style="overflow:visible;"/>
				</clipPath>
				<rect x="187" y="48.7" class="st78" width="0.6" height="0.7"/>
			</g>
		</g>
	</g>
	<g>
		<g>
			<g>
				<defs>
					<rect id="SVGID_165_" x="-36.2" y="-678.4" width="595.3" height="841.9"/>
				</defs>
				<clipPath id="SVGID_166_">
					<use xlink:href="#SVGID_165_"  style="overflow:visible;"/>
				</clipPath>
				<rect x="187" y="49.4" class="st79" width="0.6" height="1"/>
			</g>
		</g>
	</g>
	<g>
		<g>
			<g>
				<defs>
					<rect id="SVGID_167_" x="-36.2" y="-678.4" width="595.3" height="841.9"/>
				</defs>
				<clipPath id="SVGID_168_">
					<use xlink:href="#SVGID_167_"  style="overflow:visible;"/>
				</clipPath>
				<rect x="188.9" y="53.6" class="st80" width="0.6" height="2.1"/>
			</g>
		</g>
	</g>
	<g>
		<g>
			<g>
				<defs>
					<rect id="SVGID_169_" x="-36.2" y="-678.4" width="595.3" height="841.9"/>
				</defs>
				<clipPath id="SVGID_170_">
					<use xlink:href="#SVGID_169_"  style="overflow:visible;"/>
				</clipPath>
				<rect x="187" y="53.2" class="st81" width="2.5" height="0.4"/>
			</g>
		</g>
	</g>
	<g>
		<g>
			<g>
				<defs>
					<rect id="SVGID_171_" x="-36.2" y="-678.4" width="595.3" height="841.9"/>
				</defs>
				<clipPath id="SVGID_172_">
					<use xlink:href="#SVGID_171_"  style="overflow:visible;"/>
				</clipPath>
				<rect x="187.9" y="53.6" class="st82" width="0.6" height="2.1"/>
			</g>
		</g>
	</g>
	<g>
		<g>
			<g>
				<defs>
					<rect id="SVGID_173_" x="-36.2" y="-678.4" width="595.3" height="841.9"/>
				</defs>
				<clipPath id="SVGID_174_">
					<use xlink:href="#SVGID_173_"  style="overflow:visible;"/>
				</clipPath>
				<rect x="187" y="53.6" class="st83" width="0.6" height="2.1"/>
			</g>
		</g>
	</g>
	<g>
		<g>
			<g>
				<defs>
					<rect id="SVGID_175_" x="-36.2" y="-678.4" width="595.3" height="841.9"/>
				</defs>
				<clipPath id="SVGID_176_">
					<use xlink:href="#SVGID_175_"  style="overflow:visible;"/>
				</clipPath>
				<rect x="176.3" y="48.7" class="st84" width="0.6" height="0.7"/>
			</g>
		</g>
	</g>
	<g>
		<g>
			<g>
				<defs>
					<rect id="SVGID_177_" x="-36.2" y="-678.4" width="595.3" height="841.9"/>
				</defs>
				<clipPath id="SVGID_178_">
					<use xlink:href="#SVGID_177_"  style="overflow:visible;"/>
				</clipPath>
				<rect x="176.3" y="49.4" class="st85" width="0.6" height="1"/>
			</g>
		</g>
	</g>
	<g>
		<g>
			<g>
				<defs>
					<rect id="SVGID_179_" x="-36.2" y="-678.4" width="595.3" height="841.9"/>
				</defs>
				<clipPath id="SVGID_180_">
					<use xlink:href="#SVGID_179_"  style="overflow:visible;"/>
				</clipPath>
				<rect x="179.3" y="48.7" class="st86" width="0.5" height="0.7"/>
			</g>
		</g>
	</g>
	<g>
		<g>
			<g>
				<defs>
					<rect id="SVGID_181_" x="-36.2" y="-678.4" width="595.3" height="841.9"/>
				</defs>
				<clipPath id="SVGID_182_">
					<use xlink:href="#SVGID_181_"  style="overflow:visible;"/>
				</clipPath>
				<rect x="179.3" y="49.4" class="st87" width="0.5" height="1"/>
			</g>
		</g>
	</g>
	<g>
		<g>
			<g>
				<defs>
					<rect id="SVGID_183_" x="-36.2" y="-678.4" width="595.3" height="841.9"/>
				</defs>
				<clipPath id="SVGID_184_">
					<use xlink:href="#SVGID_183_"  style="overflow:visible;"/>
				</clipPath>
				<rect x="180" y="48.7" class="st88" width="0.5" height="0.7"/>
			</g>
		</g>
	</g>
	<g>
		<g>
			<g>
				<defs>
					<rect id="SVGID_185_" x="-36.2" y="-678.4" width="595.3" height="841.9"/>
				</defs>
				<clipPath id="SVGID_186_">
					<use xlink:href="#SVGID_185_"  style="overflow:visible;"/>
				</clipPath>
				<rect x="180" y="49.4" class="st89" width="0.5" height="1"/>
			</g>
		</g>
	</g>
	<g>
		<g>
			<g>
				<defs>
					<rect id="SVGID_187_" x="-36.2" y="-678.4" width="595.3" height="841.9"/>
				</defs>
				<clipPath id="SVGID_188_">
					<use xlink:href="#SVGID_187_"  style="overflow:visible;"/>
				</clipPath>
				<rect x="175.4" y="48.7" class="st90" width="0.6" height="0.7"/>
			</g>
		</g>
	</g>
	<g>
		<g>
			<g>
				<defs>
					<rect id="SVGID_189_" x="-36.2" y="-678.4" width="595.3" height="841.9"/>
				</defs>
				<clipPath id="SVGID_190_">
					<use xlink:href="#SVGID_189_"  style="overflow:visible;"/>
				</clipPath>
				<rect x="175.4" y="49.4" class="st91" width="0.6" height="1"/>
			</g>
		</g>
	</g>
	<g>
		<g>
			<g>
				<defs>
					<rect id="SVGID_191_" x="-36.2" y="-678.4" width="595.3" height="841.9"/>
				</defs>
				<clipPath id="SVGID_192_">
					<use xlink:href="#SVGID_191_"  style="overflow:visible;"/>
				</clipPath>
				<rect x="174.5" y="48.7" class="st92" width="0.6" height="0.7"/>
			</g>
		</g>
	</g>
	<g>
		<g>
			<g>
				<defs>
					<rect id="SVGID_193_" x="-36.2" y="-678.4" width="595.3" height="841.9"/>
				</defs>
				<clipPath id="SVGID_194_">
					<use xlink:href="#SVGID_193_"  style="overflow:visible;"/>
				</clipPath>
				<rect x="174.5" y="49.4" class="st93" width="0.6" height="1"/>
			</g>
		</g>
	</g>
	<g>
		<g>
			<g>
				<defs>
					<rect id="SVGID_195_" x="-36.2" y="-678.4" width="595.3" height="841.9"/>
				</defs>
				<clipPath id="SVGID_196_">
					<use xlink:href="#SVGID_195_"  style="overflow:visible;"/>
				</clipPath>
				<rect x="176.3" y="53.6" class="st94" width="0.6" height="2.1"/>
			</g>
		</g>
	</g>
	<g>
		<g>
			<g>
				<defs>
					<rect id="SVGID_197_" x="-36.2" y="-678.4" width="595.3" height="841.9"/>
				</defs>
				<clipPath id="SVGID_198_">
					<use xlink:href="#SVGID_197_"  style="overflow:visible;"/>
				</clipPath>
				<rect x="174.5" y="53.2" class="st95" width="2.5" height="0.4"/>
			</g>
		</g>
	</g>
	<g>
		<g>
			<g>
				<defs>
					<rect id="SVGID_199_" x="-36.2" y="-678.4" width="595.3" height="841.9"/>
				</defs>
				<clipPath id="SVGID_200_">
					<use xlink:href="#SVGID_199_"  style="overflow:visible;"/>
				</clipPath>
				<rect x="175.4" y="53.6" class="st96" width="0.6" height="2.1"/>
			</g>
		</g>
	</g>
	<g>
		<g>
			<g>
				<defs>
					<rect id="SVGID_201_" x="-36.2" y="-678.4" width="595.3" height="841.9"/>
				</defs>
				<clipPath id="SVGID_202_">
					<use xlink:href="#SVGID_201_"  style="overflow:visible;"/>
				</clipPath>
				<rect x="174.5" y="53.6" class="st97" width="0.6" height="2.1"/>
			</g>
		</g>
	</g>
	<g>
		<g>
			<g>
				<defs>
					<rect id="SVGID_203_" x="-36.2" y="-678.4" width="595.3" height="841.9"/>
				</defs>
				<clipPath id="SVGID_204_">
					<use xlink:href="#SVGID_203_"  style="overflow:visible;"/>
				</clipPath>
				<rect x="194.6" y="35.5" class="st98" width="3.2" height="0.4"/>
			</g>
		</g>
	</g>
	<g>
		<g>
			<g>
				<defs>
					<rect id="SVGID_205_" x="-36.2" y="-678.4" width="595.3" height="841.9"/>
				</defs>
				<clipPath id="SVGID_206_">
					<use xlink:href="#SVGID_205_"  style="overflow:visible;"/>
				</clipPath>
				<rect x="196.5" y="33.7" class="st99" width="0.5" height="1.3"/>
			</g>
		</g>
	</g>
	<g>
		<g>
			<g>
				<defs>
					<rect id="SVGID_207_" x="-36.2" y="-678.4" width="595.3" height="841.9"/>
				</defs>
				<clipPath id="SVGID_208_">
					<use xlink:href="#SVGID_207_"  style="overflow:visible;"/>
				</clipPath>
				<rect x="195.5" y="34.1" class="st100" width="0.5" height="0.9"/>
			</g>
		</g>
	</g>
	<g>
		<g>
			<g>
				<defs>
					<rect id="SVGID_209_" x="-36.2" y="-678.4" width="595.3" height="841.9"/>
				</defs>
				<clipPath id="SVGID_210_">
					<use xlink:href="#SVGID_209_"  style="overflow:visible;"/>
				</clipPath>
				<rect x="181.1" y="53.4" class="st101" width="3.2" height="0.3"/>
			</g>
		</g>
	</g>
	<g>
		<g>
			<g>
				<defs>
					<rect id="SVGID_211_" x="-36.2" y="-678.4" width="595.3" height="841.9"/>
				</defs>
				<clipPath id="SVGID_212_">
					<use xlink:href="#SVGID_211_"  style="overflow:visible;"/>
				</clipPath>
				<rect x="182.3" y="54" class="st102" width="1.9" height="3.9"/>
			</g>
		</g>
	</g>
	<g>
		<g>
			<g>
				<defs>
					<rect id="SVGID_213_" x="-36.2" y="-678.4" width="595.3" height="841.9"/>
				</defs>
				<clipPath id="SVGID_214_">
					<use xlink:href="#SVGID_213_"  style="overflow:visible;"/>
				</clipPath>
				<polygon class="st103" points="194.2,38.8 194.2,39.9 192.3,38.8 				"/>
			</g>
		</g>
	</g>
</g>
<g>
	<g>
		<g>
			<g>
				<defs>
					<rect id="SVGID_215_" x="-36.2" y="-678.4" width="595.3" height="841.9"/>
				</defs>
				<clipPath id="SVGID_216_">
					<use xlink:href="#SVGID_215_"  style="overflow:visible;"/>
				</clipPath>
				<path class="st104" d="M103.9,57.2c0.1-0.2,0.2-0.3,0.3-0.5l1.4-0.5c0.3,0,0.4,0.3,0.6,0.4c0.5,0.2,1,0,1.5,0.2
					c0.3,0.1,0.6,0.3,0.8,0.6c0.2,0.3,0.1,0.6,0.3,0.9c0.2,0.4,0.9,0.3,1.2,0.7c1.2-1.1,4.4-2.3,5.6-0.6c0.3,0.4,0.4,0.4,0.9,0.6
					c0.3,0.1,0.5,0.2,0.8,0.3c0.2,0.1,0.4,0.2,0.5,0.3c0.3,0.1,0.5-0.1,0.9-0.2c1.4-0.2,2.7,0.3,4,0.5c0.7,0.1,1.5-0.2,2.1,0.1
					c0.3,0.1,1.1,1.1,1,1.5c-0.1,0.3-1.2,0.3-1.3,0.4c-1.9,0.2-3.9,0-5.8-0.1c-1.7,0-3.4,0.1-5,0.2c-1.7,0.1-3.4,0.3-5.1,0.3
					c-1,0-2,0-3,0c-0.4,0-1,0.1-1.4-0.1c-0.6-0.3-0.4-1.4-0.4-2C103.8,59.5,103.6,58.2,103.9,57.2"/>
			</g>
		</g>
	</g>
	<g>
		<g>
			<g>
				<defs>
					<rect id="SVGID_217_" x="-36.2" y="-678.4" width="595.3" height="841.9"/>
				</defs>
				<clipPath id="SVGID_218_">
					<use xlink:href="#SVGID_217_"  style="overflow:visible;"/>
				</clipPath>
				<path class="st105" d="M126.3,60c0.1-0.1,0.6-0.7,0.6-0.8c0.7-1,1.4-1.8,2.7-2.3c2.7-1.2,5.1-2.9,8.3-2.5
					c1.5,0.2,3.2,2.3,4.6,1.6c0-0.1,0-0.2,0-0.4c0.7-0.1,1.8,0.3,2.3,0.1c0.3-0.1,0.5-0.6,0.7-0.8c0.3-0.3,0.7-0.7,1.2-0.8
					s0.8,0.2,1.2,0.2s0.5-0.2,1-0.3c1.9-0.4,3,0.8,4.6,1.8c0.3,0.2,1.2,1,1.5,1.1c0.5,0.1,0.2-0.2,0.7-0.4c1-0.3,1.6-0.6,2.7-0.6
					c1.2,0,2.4,0.2,3,1.4c0.8,0,1.3-0.6,1.9-0.8c0.5-0.1,1,0.1,1.5,0c0.3-0.1,0.3-0.4,0.6-0.4c0.5-0.1,0.9,0,1.4,0
					c1.3,0,2.4-0.8,3.8-0.5c1.2,0.2,2.5,0.9,3.5,1.5v1.2c0.1,1.2,1.7,1.7,1.2,3.5c-0.2,0.8-0.3,0.7-1.2,0.8c-2,0.3-4.1,0.2-6.1,0.4
					c-7.4,0.8-15.5,1.5-22.8,0.5c-5.9-0.8-11.8-0.3-17.7-0.7c-0.7,0-1.7,0.2-2.1-0.5C124.7,61.1,125.7,60.5,126.3,60"/>
			</g>
		</g>
	</g>
	<g>
		<g>
			<g>
				<defs>
					<rect id="SVGID_219_" x="-36.2" y="-678.4" width="595.3" height="841.9"/>
				</defs>
				<clipPath id="SVGID_220_">
					<use xlink:href="#SVGID_219_"  style="overflow:visible;"/>
				</clipPath>
				<path class="st106" d="M129.9,59.1c0-1.7,1.9-1.8,3.3-1.8c0-1.2,1.9-1.5,2.8-1.5c0.9,0,1.7,0.1,2.5,0.5c0.4,0.2,0.6,0.5,1,0.7
					c0.6,0.2,1.3,0,1.9,0.1c0.5,0.1,0.7,0.4,1.3,0.4c1,0.1,1.2-0.1,2,0.4c0.6,0.4,1.1,1.2,1.8,1.6c0.1-1.7-0.6-1.7-1.8-2.5
					c0.3-0.4,2-0.8,2.6-0.9c0.4-0.1,0.8,0.1,1.3,0c0.4-0.1,0.6-0.4,1-0.4c0.8-0.1,1.6,0.1,2.4,0.4c0.9,0.3,0.8,0.5,1.3,1
					c0.4,0.4,1,0.6,1.4,1.1c0.2,0.3,0.2,1.2,0.4,1.5c1.6,1.3,0.6-1.9,0.6-2.2c0.9-0.1,1.9-0.3,2.9-0.3c0.8,0,1.2,0,1.8,0.3
					c0.4,0.2,0.5,0.8,1.1,0.9c-0.1,0.6-0.6,1.1-0.5,1.7c1.1,0.3,1.9-1.7,2.6-2.1c0.8-0.6,2,0.1,2.9,0.1c0.4,0,1.1-0.2,1.5-0.3
					c0.9-0.2,1.6-0.9,2.6-0.8c0.9,0.1,1.5,0.6,1.2,1.4c-0.4,1-2.3,1.4-1,2.9l-0.8,1c-1.6,0-3.1,0.6-4.7,0.8
					c-3.9,0.7-8.2,0.6-12.2,0.6c-4-0.1-8.1,0.1-12.1-0.5c-4.3-0.7-8.5-0.5-12.8-0.7C127.8,60.9,128.6,59.4,129.9,59.1"/>
			</g>
		</g>
	</g>
	<g>
		<g>
			<g>
				<defs>
					<rect id="SVGID_221_" x="-36.2" y="-678.4" width="595.3" height="841.9"/>
				</defs>
				<clipPath id="SVGID_222_">
					<use xlink:href="#SVGID_221_"  style="overflow:visible;"/>
				</clipPath>
				<path class="st107" d="M276.4,58.9c1.1,0,1.5-0.7,2.7-1.3c1.1-0.5,1.7-0.1,2.7-0.2c1.3-0.1,2.2-0.9,3.6-0.7
					c0.4,0.1,0.5,0.4,1.1,0.3c0.9-0.1,1.7-0.4,2.6-0.3c1.4,0.1,3.7,0.2,3.8,2v-0.3c1.8-1.4,4.2-1.2,6.2-0.5c1.3,0.4,2.3,1.3,3.4,1.7
					c0.9,0.3,1.5,0,2.5-0.3c1.5-0.4,2.6-0.1,4,0.1c1.8,0.2,3.7-0.3,5.5,0c0.5,0.1,0.9,0.4,1.3,0.4c1.4,0.1,2.8-0.6,4.2-0.6
					c2.1-0.1,3.8-1,5.9-1.1c2-0.1,4-0.1,5.9-0.1c2.3,0,4.6,0.5,6.8,1.1c0.7,0.2,1.4,0.3,2.2,0.3c1.7-0.1,3.3-0.9,5-1
					c1.5-0.1,3-0.6,4.5-0.7c0.8,0,1.5,0.3,2.3,0.4c0.9,0.1,1.7-0.2,2.7-0.3c1.8-0.1,3.7,0.2,5.4,0.7c0.9,0.3,1.8,1.1,2.7,1.3
					c1,0.2,0.7,0.1,1.8-0.4c2.2-0.8,4.4-0.9,6.5-0.2s4,0.6,4.6,3.3c-6.1,0.3-12.3-0.1-18.4-0.1c-5.3,0-10.6,0.1-15.9,0.4
					c-4.6,0.2-9.2,0.7-13.8,0.5c-3.1-0.1-6.2-0.4-9.3-0.6c-2.8-0.2-5.7,0.1-8.6-0.1c-4.4-0.2-8.8-0.1-13.2-0.1c-1.2,0-6.6,3-6.5,1.1
					c-1.1-0.2-1.4-2.2-2.5-1.9c-1.4,0.3-2.9,0.4-4.3,0.4c-1.4-0.1-2.7,0-4,0c-3.6,0-5,0.6-6.9,0.6c-0.8,0-0.7-1.5-1.4-1.5
					C270.8,58.6,275,58.8,276.4,58.9"/>
			</g>
		</g>
	</g>
	<g>
		<g>
			<g>
				<defs>
					<rect id="SVGID_223_" x="-36.2" y="-678.4" width="595.3" height="841.9"/>
				</defs>
				<clipPath id="SVGID_224_">
					<use xlink:href="#SVGID_223_"  style="overflow:visible;"/>
				</clipPath>
				<path class="st108" d="M273.8,61.4c0-1.2,1.1-1.4,2-1.4c0.7-0.1,1.9,0.6,2.5,0.4c0.5-0.2,0.5-1.4,1.1-1.7c0.3-0.2,0.5,0,0.9-0.1
					c0.8-0.2,1.7-0.2,2.4,0.2c0.6-0.9,2.2-0.1,3-0.1c1.9-0.2,3.8-0.8,4.8,1.1c0.2,0.4,0.7,2.3,1.5,1.8c0.9-0.7-1.3-2.3-1.2-3.1
					c0.8,0.6,1.4,1.2,2.2,0.9c0.4-0.2,0.7-0.6,1.3-0.7c0.5-0.1,1,0.1,1.5,0.1c1.2,0.1,2.7-0.4,3.6,0.7c0.5,0.5,1,1.9,1.2,2.6
					c0.7-0.7-0.2-1.5-0.3-2.2c1.1,0.2,1.8,1.4,2.9,1.3c0.9,0,2-0.8,3.2-0.8c1.3,0,2,0.3,3.2,0.5c1.3,0.2,2.7,0,4,0
					c2.6,0,5.5-0.2,8-0.9c1.3-0.3,2.6-0.8,4-0.9c1.2-0.1,1.9,0.1,3.1-0.1c1.5-0.3,3.2-0.4,4.6,0c1.8,0.5,3.7,1.3,5.6,1.7
					c2.8,0.6,4.8-1.8,7.5-2.1c2.2-0.2,4.7-0.1,6.8,0.2c2.5,0.4,5,0.1,7.3,1.1c1.9,0.8,4,1.4,6.1,0.9c1.3-0.3,2.6-0.8,4-0.3
					c0.9,0.3,1.7,0.9,2.5,1.3c-0.1,1.1-3.2,0.8-3.9,0.8c-2.8,0-5.5,0.2-8.3,0.6c-4.9,0.7-10,0.6-15,0.6c-5.2,0-10.4-0.1-15.7-0.1
					c-13.1-0.2-26.3-0.3-39.5-0.3c-5.8,0-12.1,0.7-17.6-0.9L273.8,61.4z"/>
			</g>
		</g>
	</g>
	<g>
		<g>
			<g>
				<defs>
					<rect id="SVGID_225_" x="-36.2" y="-678.4" width="595.3" height="841.9"/>
				</defs>
				<clipPath id="SVGID_226_">
					<use xlink:href="#SVGID_225_"  style="overflow:visible;"/>
				</clipPath>
				<path class="st109" d="M219.9,54.8c0.4-1,1.5-1.5,2.6-1.4c1.2,0.1,1.4,1.1,1.8,2.1c0.7-0.1,0.8-1.1,1.4-1.5
					c0.6-0.4,2.3-1.3,2.8-0.3c1.6-0.4,3.2-1.3,4.9-0.3c0.8,0.5,1.9,1.5,1.8,2.5c0.9-0.3,1.6-0.7,2.7-0.4c0.8,0.2,1,0.7,1.6,1.2
					c0.4,0.3,0.3,0.2,0.7,0.4c0.8,0.4,1.5,1.2,2.3,0.9c1.3-0.5,2-1.6,3.5-1.6c1.5-0.1,2.5,1.8,4.1,1.2c0.4-0.2,0.8-0.8,1.3-1
					s0.7,0,1.2-0.1c0.9-0.1,1.7-0.7,2.9-0.6c1.9,0.2,3.7,2.5,5.7,1.9c0.6-0.2,1-0.8,1.5-1.2c0.8-0.7,1.5-1,2.5-1.1
					c1.2-0.1,2.2,0.2,3.2,0.5c1.8,0.4,3.9,1.4,4.6,3.3c0.1,0.4,0.5,2.4,0,2.8h-53.2L219.9,54.8L219.9,54.8z"/>
			</g>
		</g>
	</g>
	<g>
		<g>
			<g>
				<defs>
					<rect id="SVGID_227_" x="-36.2" y="-678.4" width="595.3" height="841.9"/>
				</defs>
				<clipPath id="SVGID_228_">
					<use xlink:href="#SVGID_227_"  style="overflow:visible;"/>
				</clipPath>
				<path class="st110" d="M223.1,57.9l1.3-0.6c0.1-0.5,0.6-1.1,1.1-1.3c0.6-0.4,0.6-0.1,1.2-0.2c0.2,0,0.2,0.1,0.4,0
					s0.6-0.6,0.9-0.7c0.9-0.4,2.3-0.7,3.2-0.5c1,0.2,0.6,1,1.3,1.5c1,0.7,2.7,0.5,3,2.1c0.8-0.2,1.4-0.7,2.2-0.7
					c1-0.1,1.8,0.2,2.5,0.8c0.7,0.5,1.2,1.6,2.1,1.3c0.3-0.1,0.3-0.3,0.7-0.4c0.4,0,0.9,0.3,1.1,0.6c0.3,0.4,0.2,0.9,0.5,1.2
					c0.7-0.2,0.7-1.1,0.4-1.7c-0.3-0.8-1-0.8-0.4-1.6c0.3-0.4,0.9-0.7,1.4-0.6c0.6,0.1,0.4,0.3,0.8,0.6c1,0.8,2.7,0.4,3.4,1.8
					c0.6-0.3,1.9-0.7,1.9-1.4c0.7-0.1,0.8-0.1,1.3-0.4c0.6-0.3,1-0.5,1.7-0.6c1.2,0,2.4,0.6,3,1.5c0.4,0.6,0.2,2,1.1,2.1
					c1.1,0.1,1.3-1.8,0.5-2.1c0.9-0.1,2.1,0.4,2.9-0.1c0.9-0.6,0.7-1.6,1.9-1.8c1.5-0.2,3.5-0.2,4.8,0.4c1.8,0.8,3.2,3.3,2.4,5.3
					c-5.4,0.3-10.9,0-16.4,0c-5,0-10.1,0.2-15.1,0.4c-5.9,0.3-11.9,0.9-17.8,0.5C222.5,61.5,223,59.7,223.1,57.9"/>
			</g>
		</g>
	</g>
	<g>
		<g>
			<g>
				<defs>
					<rect id="SVGID_229_" x="-36.2" y="-678.4" width="595.3" height="841.9"/>
				</defs>
				<clipPath id="SVGID_230_">
					<use xlink:href="#SVGID_229_"  style="overflow:visible;"/>
				</clipPath>
				<path class="st111" d="M105.8,56.4c-0.4-0.8-1.5-1.2-2.6-1.2c-1.2,0.1-1.5,0.9-1.8,1.7c-0.7-0.1-0.8-0.9-1.4-1.2
					c-0.6-0.4-2.3-1-2.8-0.2c-1.6-0.3-3.2-1-4.9-0.2c-0.8,0.4-1.9,1.2-1.8,2c-0.9-0.2-1.6-0.6-2.7-0.4c-0.8,0.2-1,0.6-1.6,0.9
					c-0.4,0.2-0.3,0.2-0.7,0.3c-0.8,0.3-1.5,0.9-2.3,0.7c-1.3-0.4-2-1.3-3.5-1.3s-2.5,1.5-4.1,1c-0.4-0.1-0.8-0.7-1.3-0.9
					s-0.7,0-1.2-0.1c-0.9-0.1-1.7-0.6-2.9-0.5c-1.9,0.1-3.7,2.1-5.7,1.5c-0.6-0.2-1-0.7-1.5-1c-0.8-0.5-1.5-0.8-2.5-0.9
					c-1.2-0.1-2.2,0.2-3.2,0.4c-1.8,0.3-3.9,1.1-4.6,2.6c-0.1,0.3-0.5,2,0,2.3h53.1V56.4z"/>
			</g>
		</g>
	</g>
	<g>
		<g>
			<g>
				<defs>
					<rect id="SVGID_231_" x="-36.2" y="-678.4" width="595.3" height="841.9"/>
				</defs>
				<clipPath id="SVGID_232_">
					<use xlink:href="#SVGID_231_"  style="overflow:visible;"/>
				</clipPath>
				<path class="st112" d="M102.5,59l-1.3-0.5c-0.1-0.4-0.6-0.9-1.1-1.1c-0.6-0.3-0.6-0.1-1.2-0.1c-0.2,0-0.2,0.1-0.4,0
					s-0.6-0.5-0.9-0.6c-0.9-0.3-2.3-0.6-3.2-0.4c-1,0.2-0.6,0.8-1.3,1.2c-1,0.6-2.7,0.4-3,1.7c-0.8-0.2-1.4-0.5-2.2-0.6
					c-1-0.1-1.8,0.2-2.5,0.7c-0.7,0.4-1.2,1.3-2.1,1C83,60.2,83,60,82.6,60s-0.9,0.2-1.1,0.5c-0.3,0.3-0.2,0.7-0.5,1
					c-0.7-0.2-0.7-0.9-0.4-1.3c0.3-0.6,1-0.6,0.4-1.3c-0.3-0.3-0.9-0.6-1.4-0.5c-0.6,0.1-0.4,0.3-0.8,0.5c-1,0.7-2.7,0.4-3.4,1.5
					c-0.6-0.2-1.9-0.5-1.9-1.2c-0.7,0-0.8,0-1.3-0.3c-0.6-0.3-1-0.4-1.7-0.5c-1.2,0-2.4,0.5-3,1.2c-0.4,0.5-0.2,1.6-1.1,1.7
					c-1.1,0.1-1.3-1.5-0.5-1.7c-0.9-0.1-2.1,0.3-2.9-0.1c-0.8-0.5-0.7-1.3-1.9-1.4c-1.5-0.1-3.5-0.2-4.8,0.3
					c-1.8,0.7-3.2,2.7-2.4,4.3c5.4,0.2,10.9,0,16.4,0c5,0,10.1,0.1,15.1,0.3c5.9,0.3,11.9,0.7,17.8,0.4
					C103.2,61.9,102.7,60.4,102.5,59"/>
			</g>
		</g>
	</g>
	<g>
		<g>
			<g>
				<defs>
					<rect id="SVGID_233_" x="-36.2" y="-678.4" width="595.3" height="841.9"/>
				</defs>
				<clipPath id="SVGID_234_">
					<use xlink:href="#SVGID_233_"  style="overflow:visible;"/>
				</clipPath>
				<path class="st113" d="M171.5,57.3c0.3-0.4,1.2-0.9,1.6-1.1c0.7-0.4,1.7-0.8,2.5-0.5c0.9,0.3,1.4,1,2.3,0.8
					c1.4-0.3,2.2-0.6,3.5,0.2c0.4,0.2,0.7,0.5,1.2,0.2c0.6-0.3,0.9-0.7,1.5-0.8c0.9-0.2,1.6,0,2.5,0.2c0.4,0.1,1,0.2,1.3,0.4
					c0.4-1.1,1.4-0.9,2.2-1.4c0.2-0.1,0.1-0.2,0.3-0.4c0.6-0.7,1.2-1.1,2.1-1.3c1.7-0.3,4.5-0.1,4.8,2.1c0.4,0,0.8,0,1.2,0.1
					c0.5,0.1,0.9,0.1,1.4,0.3c0.2,0.1,0.5,0.4,0.7,0.4c0.5,0,1.1-0.6,1.7-0.7c0.2,0,0.5-0.1,0.7,0c0.2,0,0.4,0.2,0.5,0.2
					c0.5,0,1.1-0.5,1.7-0.5c0.7-0.1,1.3,0,2,0c0.8,0,1.5-0.1,2.2,0.5c0.4-0.5,1-0.8,1.6-0.9c0.2,0,0.7,0,0.9-0.1
					c0.3-0.1,0.1-0.1,0.4-0.3c0.7-0.6,3.2-1.4,3.9-0.5c0.4-0.9,1.3-1.2,2.3-1c0.4,0.1,0.9,0.3,1.2,0.5c0.2,0.2,0.4,0.4,0.5,0.6
					c0.8,0.6,1.8,0.7,2.4,1.6c0.4,0.6,0.8,1.7,0.4,2.3c0.6,0.6,1,2.8,0.4,3.6h-52.6C170.9,61.7,169.6,59.6,171.5,57.3"/>
			</g>
		</g>
	</g>
	<g>
		<g>
			<g>
				<defs>
					<rect id="SVGID_235_" x="-36.2" y="-678.4" width="595.3" height="841.9"/>
				</defs>
				<clipPath id="SVGID_236_">
					<use xlink:href="#SVGID_235_"  style="overflow:visible;"/>
				</clipPath>
				<path class="st114" d="M172.5,61.8c-0.3-0.9-1.8-1.9-0.6-2.9c0.2-0.2,0.5-0.2,0.7-0.4s0.3-0.6,0.4-0.8c0.4-0.5,1.5-1.2,2.1-1.2
					c0.5,0.1,0.7,0.5,1.1,0.7c1,0.6,1.6,0.2,2.4-0.2c1.7-0.8,1.7,0.1,3.1,0.6c0.4,0.2,1.2,0.4,1.7,0.2c0.3-0.1,0.4-0.6,0.7-0.8
					c1-0.7,2.4,0.3,3.4,0.4c0.9,0.1,0.6,0,1.4-0.5c0.3-0.2,0.7-0.1,1-0.3c0.5-0.3,0.6-1.2,1.1-1.6c0.6-0.4,1.7-0.4,2.5-0.4
					c1.6,0,2.2,0.1,2.3,1.9c0.6,0,1.2-0.2,1.8-0.2c0.4,0,0.8,0,1.2,0.2c0.1,0.1,0.1,0.4,0.2,0.5c1,0.6,1.6,0.2,2.5-0.2
					c1-0.4,2.2-0.1,3.3-0.4c0.9-0.3,1.6-0.9,2.7-0.5c0.7,0.3,1.1,1,2.1,0.7c0.3-0.1,0.6-0.7,1-0.8c0.7-0.3,1.5,0.5,2.2,0.2
					c0.9-0.4,1-1.5,2.1-1.5c0.5,0,0.9,0.3,1.3,0.3c0.6-0.1,1-0.6,1.6-0.6c0.7,0,1.1,0.1,1.7,0.5c0.5,0.3,0.7,1,1,1.3
					c0.1,0.1,0.5,0.1,0.6,0.2c0.8,0.8,0,1.6,0.4,2.6c0.2,0.5,0.6,0.5,0.8,0.9c0.3,0.6-0.1,1.7-0.6,2.1L172.5,61.8L172.5,61.8z"/>
			</g>
		</g>
	</g>
	<g>
		<g>
			<g>
				<defs>
					<rect id="SVGID_237_" x="-36.2" y="-678.4" width="595.3" height="841.9"/>
				</defs>
				<clipPath id="SVGID_238_">
					<use xlink:href="#SVGID_237_"  style="overflow:visible;"/>
				</clipPath>
				<path class="st115" d="M201.4,58.1c0.3,0.8,0.4,2.2-0.4,2.7c0-0.4,0.3-0.8,0.2-1.2c-0.1-0.3-0.3-0.5-0.4-0.7
					c0-0.2,0.1-0.4,0-0.6s-0.3-0.4-0.5-0.5c-0.3-0.2-0.4-0.4-0.7-0.6c-0.2-0.2-0.6-0.2-0.5-0.5v-0.3C200,56.5,201.1,57.2,201.4,58.1
					"/>
			</g>
		</g>
	</g>
	<g>
		<g>
			<g>
				<defs>
					<rect id="SVGID_239_" x="-36.2" y="-678.4" width="595.3" height="841.9"/>
				</defs>
				<clipPath id="SVGID_240_">
					<use xlink:href="#SVGID_239_"  style="overflow:visible;"/>
				</clipPath>
				<path class="st116" d="M210.2,56.4c0.5,0.2,0.5,0.7,0.9,1.1c0.5,0.5,0,0.8,0.3,1.4c0.2,0.4,0.5,0.6,0.4,1s-0.6,0.9-1,1
					c0.2-0.3,0.3-0.6,0.2-1s-0.4-0.7-0.5-1.1s0-0.8-0.2-1.2c-0.3-0.5-0.7-0.9-1.2-1.2C209.3,56.2,209.9,56.3,210.2,56.4"/>
			</g>
		</g>
	</g>
	<g>
		<g>
			<g>
				<defs>
					<rect id="SVGID_241_" x="-36.2" y="-678.4" width="595.3" height="841.9"/>
				</defs>
				<clipPath id="SVGID_242_">
					<use xlink:href="#SVGID_241_"  style="overflow:visible;"/>
				</clipPath>
				<path class="st117" d="M208.3,56.1c0.2,0,0.5,0.2,0.7,0.3c0,0-0.1,0-0.1,0.1L208.3,56.1z"/>
			</g>
		</g>
	</g>
	<g>
		<g>
			<g>
				<defs>
					<rect id="SVGID_243_" x="-36.2" y="-678.4" width="595.3" height="841.9"/>
				</defs>
				<clipPath id="SVGID_244_">
					<use xlink:href="#SVGID_243_"  style="overflow:visible;"/>
				</clipPath>
				<path class="st118" d="M187.2,57.3c0.2-0.1,0.7-0.3,0.8-0.1l0.9-0.3c-0.3,0.1-0.7,0.3-0.9,0.5c-0.1,0.1-0.1,0.3-0.2,0.4
					c-0.1,0.2-0.3,0.1-0.4,0.3c-0.1,0.2-0.1,0.3-0.1,0.6s-0.1,0.6-0.1,0.9s0,0.3,0.2,0.6s0.3,0.5,0.5,0.8c-0.7,0.1-1-0.4-1.1-1
					c0-0.5-0.3-0.9-0.3-1.4C186.5,58.1,186.6,57.6,187.2,57.3"/>
			</g>
		</g>
	</g>
	<g>
		<g>
			<g>
				<defs>
					<rect id="SVGID_245_" x="-36.2" y="-678.4" width="595.3" height="841.9"/>
				</defs>
				<clipPath id="SVGID_246_">
					<use xlink:href="#SVGID_245_"  style="overflow:visible;"/>
				</clipPath>
				<path class="st119" d="M100.7,59.3l0.9-0.5c0.4-0.2,0.8,0,1.2,0.2c0.2-0.2,0.5-0.5,0.7-0.6l0.5-0.2c0.1-0.2-0.3-0.3-0.3-0.4
					c-0.1-0.5,0.4-0.5,0.7-0.4c0.8,0.1,1.4,0.7,1.6,1.4c0.5,0,1,0,1.4,0.3c0.2,0.2,0.4,0.4,0.5,0.7c0.1,0.2,0,0.4,0.1,0.5
					c0.3,0.7,1.4,0.6,2,0.5c0.1-0.4,0.6-0.9,0.9-1c0.7-0.2,1.6,0.5,2.2,0.9c0.2-0.8-0.8-1.4-1.2-1.8c0.4-0.2,1.5-0.1,1.9,0
					c0.7,0.2,1.2,0.6,1.6,1.1c0.4-0.1,1,0,1.4,0.2c0.2,0.1,0.3,0.3,0.5,0.4c0.3,0.2,0.8,0,1.1,0c0.6-0.1,1.2-0.2,1.8-0.2
					c0.4,0,4.8,0.8,4,1.7c-0.1,0.2-1.4-0.1-1.4-0.1c-0.8-0.1-1.6-0.2-2.4-0.3c-1.4-0.2-2.8-0.1-4.2-0.1c-1.8,0.1-3.5,0.1-5.3,0
					c-1.3,0-2.7-0.1-4,0.1c-1.8,0.3-3.6,0.5-5.4,0c-0.5-0.1-1.5-0.3-1.6-1C100.1,60.4,100.5,59.7,100.7,59.3"/>
			</g>
		</g>
	</g>
</g>
<g>
	<g>
		<g>
			<g>
				<defs>
					<rect id="SVGID_247_" y="61" width="524.3" height="81.6"/>
				</defs>
				<clipPath id="SVGID_248_">
					<use xlink:href="#SVGID_247_"  style="overflow:visible;"/>
				</clipPath>
				
					<linearGradient id="SVGID_249_" gradientUnits="userSpaceOnUse" x1="-246.5259" y1="-608.4623" x2="-245.5259" y2="-608.4623" gradientTransform="matrix(0 81 -81 0 -49023.293 20028.166)">
					<stop  offset="0" style="stop-color:#99B96D"/>
					<stop  offset="1" style="stop-color:#77A741"/>
				</linearGradient>
				<rect y="61" class="st120" width="524.3" height="81.6"/>
			</g>
		</g>
	</g>
</g>
<g>
	<g>
	</g>
</g>
<g id="XMLID_93_">
	<g id="XMLID_94_">
		<defs>
			<rect id="XMLID_96_" x="-36.2" y="-678.4" width="595.3" height="841.9"/>
		</defs>
		<clipPath id="XMLID_97_">
			<use xlink:href="#XMLID_96_"  style="overflow:visible;"/>
		</clipPath>
		<path id="XMLID_95_" class="st121" d="M-0.8,61.9c4.9-2,145.7,20.7,187.8,18.2s142.8-7.4,174.9-3.2c32.2,4.2,86.6,5.6,103.4,3.5
			s58.4-14,58.4-14V174H-0.8V61.9z"/>
	</g>
</g>
</svg>
