<?xml version="1.0" encoding="utf-8"?>
<!-- Generator: Adobe Illustrator 19.0.0, SVG Export Plug-In . SVG Version: 6.00 Build 0)  -->
<svg version="1.1" id="Layer_1" xmlns="http://www.w3.org/2000/svg" xmlns:xlink="http://www.w3.org/1999/xlink" x="0px" y="0px"
	 viewBox="78 -154.3 768 1098.5" style="enable-background:new 78 -154.3 768 1098.5;" xml:space="preserve">
<style type="text/css">
	.st0{fill:#AEDEF8;}
	.st1{clip-path:url(#SVGID_2_);fill:url(#SVGID_3_);}
	.st2{clip-path:url(#SVGID_5_);fill:url(#SVGID_6_);}
	.st3{clip-path:url(#SVGID_8_);fill:url(#SVGID_9_);}
	.st4{clip-path:url(#SVGID_11_);fill:url(#SVGID_12_);}
	.st5{clip-path:url(#SVGID_14_);fill:url(#SVGID_15_);}
	.st6{clip-path:url(#SVGID_17_);fill:url(#SVGID_18_);}
	.st7{clip-path:url(#SVGID_20_);fill:url(#SVGID_21_);}
</style>
<rect x="78" y="-154.3" class="st0" width="768" height="1098.5"/>
<g>
	<g>
		<defs>
			<path id="SVGID_1_" d="M276.9,207.2c0.1,0.6,0.2,1.3,0.1,2.2C277,208.7,277,207.9,276.9,207.2 M740.4,33.5
				c-8.8,9-9,19.3-13.2,29.6c-4.2,10.2-8.9,15.2-8.7,26.8c-8.9-1.1-16.7,7.3-18.8,14.9c-6.4-16.3-38.7-37.5-52.7-18
				c-12.9-29-55.9,1.7-58.4,22.3c-1,8.7,3.2,13.6,4.5,21.2c1.3,7.8-2.4,18-3.3,25.9c-7.3,1.1-15.3-14.2-21.9-18
				c-17.1-10-47.3-11.7-60.4,5.6c-3.3-20.7-11.9-29.2-34.4-34.6c6.7-58-137.5-63.5-127-0.5c-5.4-9.7-18.3-6.7-25.4-4.5
				c-19.7,6-22.4,27.3-24.6,45.4c-0.5,3.8,2,13.7,0,17.3c-0.9,1.6-9,6.7-10.3,8.2c-8,9.3-9.1,20.7-8.8,32.1
				c-0.3-1.4-1.1-2.5-1.5-4.1c-10.8-0.8-22.2-0.4-28.7,8.2c-7-29.3-54.3-25.8-77.9-23.1c-19,2.2-26.2,10.1-26.6,25.3
				c0.6,1.3,0.7,3.2,0.1,5.6c-0.1-2-0.2-3.9-0.1-5.6c-2.1-4.8-10.2-2.8-15.7-0.8c-13.2,4.8-25,14.7-29.5,27.3
				c-2.4-8.3-9.5-6-16.9-1.3v513.4H846V55.6c-8.4-20.5-40.9-34.3-69.1-34.3C762.2,21.3,748.7,25,740.4,33.5"/>
		</defs>
		<clipPath id="SVGID_2_">
			<use xlink:href="#SVGID_1_"  style="overflow:visible;"/>
		</clipPath>
		
			<linearGradient id="SVGID_3_" gradientUnits="userSpaceOnUse" x1="155.6327" y1="-426.873" x2="156.6327" y2="-426.873" gradientTransform="matrix(0 419.3009 -419.3009 0 -178525.1563 -65155.6992)">
			<stop  offset="0" style="stop-color:#D1EAF7"/>
			<stop  offset="0.1314" style="stop-color:#CBE8F7"/>
			<stop  offset="0.655" style="stop-color:#B6E1F8"/>
			<stop  offset="1" style="stop-color:#AEDEF8"/>
		</linearGradient>
		<rect x="80.2" y="21.3" class="st1" width="765.8" height="730.9"/>
	</g>
</g>
<g>
	<g>
		<defs>
			<path id="SVGID_4_" d="M78,15.9c1.6,0.9,3.2,1.7,4.8,2.6c96.5,51.7,259.6,125.9,487.6,189.3C342.5,144.4,179.9,68.9,83.5,17.2
				c-1.9-1-3.7-2-5.5-3V15.9z"/>
		</defs>
		<clipPath id="SVGID_5_">
			<use xlink:href="#SVGID_4_"  style="overflow:visible;"/>
		</clipPath>
		
			<linearGradient id="SVGID_6_" gradientUnits="userSpaceOnUse" x1="155.7029" y1="-426.8" x2="156.7029" y2="-426.8" gradientTransform="matrix(409.196 174.5318 174.5318 -409.196 10761.1357 -201854.1406)">
			<stop  offset="0" style="stop-color:#D1EAF7"/>
			<stop  offset="0.1314" style="stop-color:#CBE8F7"/>
			<stop  offset="0.655" style="stop-color:#B6E1F8"/>
			<stop  offset="1" style="stop-color:#AEDEF8"/>
		</linearGradient>
		<polygon class="st2" points="8.2,177.9 494.6,385.4 640.2,44 153.8,-163.4 		"/>
	</g>
</g>
<g>
	<g>
		<defs>
			<path id="SVGID_7_" d="M78-28.1c6.4,4.7,13.1,9.5,20.1,14.4c80.6,56.5,215.2,132.9,397.6,179.2C313.5,119.3,179.5,41.6,99-14.8
				c-7.3-5.1-14.3-10.1-21-15.1V-28.1z"/>
		</defs>
		<clipPath id="SVGID_8_">
			<use xlink:href="#SVGID_7_"  style="overflow:visible;"/>
		</clipPath>
		
			<linearGradient id="SVGID_9_" gradientUnits="userSpaceOnUse" x1="155.7029" y1="-426.8332" x2="156.7029" y2="-426.8332" gradientTransform="matrix(409.1508 174.5125 174.5125 -409.1508 10775.6445 -201868.375)">
			<stop  offset="0" style="stop-color:#D1EAF7"/>
			<stop  offset="0.1314" style="stop-color:#CBE8F7"/>
			<stop  offset="0.655" style="stop-color:#B6E1F8"/>
			<stop  offset="1" style="stop-color:#AEDEF8"/>
		</linearGradient>
		<polygon class="st3" points="7.5,135.4 431.3,316.2 566.1,0.2 142.3,-180.6 		"/>
	</g>
</g>
<g>
	<g>
		<defs>
			<path id="SVGID_10_" d="M650.1,348.1c0-0.8,0.1-1.5,0.1-2.3C650,346.5,650,347.2,650.1,348.1"/>
		</defs>
		<clipPath id="SVGID_11_">
			<use xlink:href="#SVGID_10_"  style="overflow:visible;"/>
		</clipPath>
		
			<linearGradient id="SVGID_12_" gradientUnits="userSpaceOnUse" x1="38.6935" y1="-486.4478" x2="39.6935" y2="-486.4478" gradientTransform="matrix(0 1.3128 1.3128 0 1288.7087 295.2579)">
			<stop  offset="0" style="stop-color:#D1EAF7"/>
			<stop  offset="0.1314" style="stop-color:#CBE8F7"/>
			<stop  offset="0.655" style="stop-color:#B6E1F8"/>
			<stop  offset="1" style="stop-color:#AEDEF8"/>
		</linearGradient>
		<rect x="650" y="345.8" class="st4" width="0.2" height="2.3"/>
	</g>
</g>
<g>
	<g>
		<defs>
			<path id="SVGID_13_" d="M784.6,358.5c0.1-2.1,0.2-4.1,0.1-6C784.2,354,784.1,355.9,784.6,358.5"/>
		</defs>
		<clipPath id="SVGID_14_">
			<use xlink:href="#SVGID_13_"  style="overflow:visible;"/>
		</clipPath>
		
			<linearGradient id="SVGID_15_" gradientUnits="userSpaceOnUse" x1="111.1295" y1="-449.8227" x2="112.1295" y2="-449.8227" gradientTransform="matrix(0 3.4321 3.4321 0 2328.2866 -28.1896)">
			<stop  offset="0" style="stop-color:#D1EAF7"/>
			<stop  offset="0.1314" style="stop-color:#CBE8F7"/>
			<stop  offset="0.655" style="stop-color:#B6E1F8"/>
			<stop  offset="1" style="stop-color:#AEDEF8"/>
		</linearGradient>
		<rect x="784.1" y="352.6" class="st5" width="0.7" height="6"/>
	</g>
</g>
<g>
	<g>
		<defs>
			<path id="SVGID_16_" d="M832.9,637.6c-0.8,4.4,0.7,8.5-1.5,12c-6,9.5-17.6,9.4-16.1,22.5c-9.7,2.4-10.7-4.5-20.1-7.5
				c-11.2-3.5-30.9,4.6-31.8,17.9c-8.7,2.1-27.9,12.8-22.5,23.9c-12,0.7-31,4.9-27.8,21.9c-8.7,1.8-17.2,9.1-20.6,17.1
				c-3.2-10.3-2.7-27.2-10.6-35.2c-5.9-6-7.3-4-16.1-4.7c-6.3-22.7-29.4-35.9-54-19.2c-2.5-6.6-7.4-7.2-13.6-6
				c-17.9,3.5-19.7,22.9-26.4,35c-1.3,2.3-3.7,3-5.3,5.3c-6.9,9.7-9.6,7.9-12.5,19.7c-4.6,19-2.6,28.5,7.2,44.2
				c-8.8,1.2-25.3,9.9-28.4,19.2c-3.3-6.8-7.8-15-16.5-14c-8.3,0.9-21.2,12.7-23.7,20.5c-8.9,0.9-21.1,12.9-23.4,21.5
				c-2.8,10.1,5.8,15.8,7.6,25c2.1,10.8-3.3,19.6,8.2,27.1c4.5,3,5.1,2.4,10,3c6.6,0.8,13.9,0.1,20.6,0c32.9-0.3,65.3-2,98.2,1.2
				c31.1,3,62.6,8.4,93.9,8.5c9.2,0,18.4-0.5,27.6-1.1c15.1-0.9,30.2-1.8,45.4-0.1c21.8,2.5,43.6,2.6,65.3,1.8V618.7
				C839.4,623,834.3,630,832.9,637.6"/>
		</defs>
		<clipPath id="SVGID_17_">
			<use xlink:href="#SVGID_16_"  style="overflow:visible;"/>
		</clipPath>
		
			<linearGradient id="SVGID_18_" gradientUnits="userSpaceOnUse" x1="155.2667" y1="-427.8567" x2="156.2667" y2="-427.8567" gradientTransform="matrix(0 210.0176 210.0176 0 90513.6875 -31936.9121)">
			<stop  offset="0" style="stop-color:#FFFCEB"/>
			<stop  offset="0.1462" style="stop-color:#EFF6EE"/>
			<stop  offset="0.5096" style="stop-color:#CCE9F3"/>
			<stop  offset="0.8073" style="stop-color:#B6E1F7"/>
			<stop  offset="1" style="stop-color:#AEDEF8"/>
		</linearGradient>
		<rect x="466.5" y="618.7" class="st6" width="379.5" height="279.3"/>
	</g>
</g>
<g>
	<g>
		<defs>
			<path id="SVGID_19_" d="M153.6,547.1l-1.1,4.3c-9.8-7-22.7-12.3-35-8.4c-11.5,3.9-20.8,11.5-31.8,11.7c-2.3,0-4.1-0.1-5.5-0.3
				v146.2c2.5,0,5.1,0.1,6.9,0.7c5,1.6,13.4,4.7,17.7,7.4c3,1.8,3.4,4.1,5.9,5.9c9.8,6.9,22.5,10.6,34.3,10.6
				c12.5,0,16.4-6.7,27.1-10.9c18.3-7.1,47.7,3,65.7,6.8c6.1,1.3,23.5,8.6,29.5,5.3c3.8-2.1,5-8.8,7-12.2c4-6.7,8.9-11.6,15.4-16.1
				c9.7-6.7,20.3-3.8,31.3-0.9c6.9,1.8,14,3.6,21.3,3.1c18.4-1.4,28.4-6.4,48.5-8.6c25.7-2.8,59.8-33.2,84.2-24.7
				c13.5,4.7,28,15.8,42.2,17.2c11-17.3,37.4-20.6,54.7-28.1c4.5-1.9,7,0.2,7.7-5.4c1-8.6-16.9-16.4-24-16.2
				c-10.5,0.3-16.8,8.9-24.4,13.9c-0.1-10.7-0.8-25.1-4.8-34.9c-7-17-46.1-33.5-60.2-18.9c-8.1-5.4-57.3-25.6-54.9-1.4
				c-6.3-16.6-45.9-16.8-50.6-1c0.8-8.8-1.8-16.7-7.5-23.5c-4.7-5.7-5.5-7.4-8.7-13c-4.4-7.7-28.8-24-32.4-7.5
				c-4.2-26.1-39.5-10.6-37.7,10c-7.4,1.8-12.6,6-18.1,11.3c-4.9-5.7-8-16.8-17.2-16.9c-2.5-16.8-11.4-35-29.6-36
				c-1.6-0.1-3.2-0.1-5-0.1C183.9,516.5,151.1,522.5,153.6,547.1"/>
		</defs>
		<clipPath id="SVGID_20_">
			<use xlink:href="#SVGID_19_"  style="overflow:visible;"/>
		</clipPath>
		
			<linearGradient id="SVGID_21_" gradientUnits="userSpaceOnUse" x1="154.7247" y1="-427.7023" x2="155.7247" y2="-427.7023" gradientTransform="matrix(0 120.7599 120.7599 0 51979.6406 -18144.9531)">
			<stop  offset="0" style="stop-color:#D1EAF7"/>
			<stop  offset="0.1314" style="stop-color:#CBE8F7"/>
			<stop  offset="0.655" style="stop-color:#B6E1F8"/>
			<stop  offset="1" style="stop-color:#AEDEF8"/>
		</linearGradient>
		<rect x="80.2" y="516.5" class="st7" width="500.3" height="213.2"/>
	</g>
</g>
<g>
	<g>
		<defs>
			<rect id="SVGID_22_" x="78" y="-154.3" width="768" height="1218.8"/>
		</defs>
		<clipPath id="SVGID_23_">
			<use xlink:href="#SVGID_22_"  style="overflow:visible;"/>
		</clipPath>
	</g>
</g>
</svg>
