<?xml version="1.0" encoding="utf-8"?>
<!-- Generator: Adobe Illustrator 19.0.0, SVG Export Plug-In . SVG Version: 6.00 Build 0)  -->
<svg version="1.1" id="Layer_1" xmlns="http://www.w3.org/2000/svg" xmlns:xlink="http://www.w3.org/1999/xlink" x="0px" y="0px"
	 viewBox="-85.9 702.5 523.5 88" style="enable-background:new -85.9 702.5 523.5 88;" xml:space="preserve">
<style type="text/css">
	.st0{clip-path:url(#SVGID_2_);fill:#958D8A;}
	.st1{clip-path:url(#SVGID_4_);fill:#7E9BAE;}
	.st2{clip-path:url(#SVGID_6_);fill:#62889E;}
	.st3{clip-path:url(#SVGID_8_);fill:#62889E;}
	.st4{clip-path:url(#SVGID_10_);fill:#6B8EA3;}
	.st5{clip-path:url(#SVGID_12_);fill:#C2D197;}
	.st6{clip-path:url(#SVGID_14_);fill:url(#SVGID_15_);}
	.st7{clip-path:url(#SVGID_17_);fill:#4B6730;}
	.st8{clip-path:url(#SVGID_19_);fill:url(#SVGID_20_);}
	.st9{clip-path:url(#SVGID_22_);fill:#4B6730;}
	.st10{clip-path:url(#SVGID_24_);fill:url(#SVGID_25_);}
	.st11{clip-path:url(#SVGID_27_);fill:#4B6730;}
	.st12{clip-path:url(#SVGID_29_);fill:url(#SVGID_30_);}
	.st13{clip-path:url(#SVGID_32_);fill:#4F6B31;}
	.st14{clip-path:url(#SVGID_34_);fill:url(#SVGID_35_);}
	.st15{clip-path:url(#SVGID_37_);fill:url(#SVGID_38_);}
	.st16{clip-path:url(#SVGID_40_);fill:url(#SVGID_41_);}
	.st17{clip-path:url(#SVGID_43_);fill:#4F6B31;}
	.st18{clip-path:url(#SVGID_45_);fill:url(#SVGID_46_);}
	.st19{clip-path:url(#SVGID_48_);fill:#697C35;}
	.st20{clip-path:url(#SVGID_50_);fill:#48642E;}
	.st21{clip-path:url(#SVGID_52_);fill:#697C35;}
	.st22{clip-path:url(#SVGID_54_);fill:#48642E;}
	.st23{clip-path:url(#SVGID_56_);fill:#98928E;}
	.st24{clip-path:url(#SVGID_58_);fill:#CAC5C2;}
	.st25{clip-path:url(#SVGID_60_);fill:#A7A19E;}
	.st26{clip-path:url(#SVGID_62_);fill:#A7A19E;}
	.st27{clip-path:url(#SVGID_64_);fill:#867F7C;}
	.st28{clip-path:url(#SVGID_66_);fill:#6B6460;}
	.st29{clip-path:url(#SVGID_68_);fill:url(#SVGID_69_);}
	.st30{clip-path:url(#SVGID_71_);fill:#D3C99E;}
	.st31{clip-path:url(#SVGID_73_);fill:#D3C99E;}
	.st32{clip-path:url(#SVGID_75_);fill:url(#SVGID_76_);}
	.st33{clip-path:url(#SVGID_78_);fill:url(#SVGID_79_);}
	.st34{clip-path:url(#SVGID_81_);fill:url(#SVGID_82_);}
	.st35{clip-path:url(#SVGID_84_);fill:#697C35;}
	.st36{clip-path:url(#SVGID_86_);fill:#48642E;}
	.st37{clip-path:url(#SVGID_88_);fill:url(#SVGID_89_);}
	.st38{clip-path:url(#SVGID_91_);fill:#697C35;}
	.st39{clip-path:url(#SVGID_93_);fill:#48642E;}
	.st40{clip-path:url(#SVGID_95_);fill:#48642E;}
	.st41{clip-path:url(#SVGID_97_);fill:url(#SVGID_98_);}
	.st42{clip-path:url(#SVGID_100_);fill:#98928E;}
	.st43{clip-path:url(#SVGID_102_);fill:#6A635F;}
	.st44{clip-path:url(#SVGID_104_);fill:#D3C99E;}
	.st45{clip-path:url(#SVGID_106_);fill:url(#SVGID_107_);}
	.st46{clip-path:url(#SVGID_109_);fill:url(#SVGID_110_);}
	.st47{clip-path:url(#SVGID_112_);fill:#E1D8B6;}
	.st48{clip-path:url(#SVGID_114_);fill:#E1D8B6;}
	.st49{fill:#5D677A;}
	.st50{fill:#3F495B;}
	.st51{fill:#958D8A;}
	.st52{fill:#7F7975;}
	.st53{fill:#6E6865;}
	.st54{fill:#BFBAB6;}
	.st55{clip-path:url(#SVGID_116_);fill:url(#SVGID_117_);}
	.st56{clip-path:url(#SVGID_119_);fill:url(#SVGID_120_);}
	.st57{clip-path:url(#SVGID_122_);fill:#697C35;}
	.st58{clip-path:url(#SVGID_124_);fill:#48642E;}
	.st59{clip-path:url(#SVGID_126_);fill:#FFFFFF;}
	.st60{clip-path:url(#SVGID_128_);fill:#8AACD0;}
	.st61{clip-path:url(#SVGID_130_);fill:#7F7975;}
	.st62{clip-path:url(#SVGID_132_);fill:#C1BBB9;}
	.st63{clip-path:url(#SVGID_134_);fill:#9F735D;}
	.st64{clip-path:url(#SVGID_136_);fill:#1A4A6B;}
	.st65{clip-path:url(#SVGID_138_);fill:#708CA9;}
	.st66{clip-path:url(#SVGID_140_);fill:#1A4A6B;}
	.st67{clip-path:url(#SVGID_142_);fill:#708CA9;}
	.st68{clip-path:url(#SVGID_144_);fill:#1A4A6B;}
	.st69{clip-path:url(#SVGID_146_);fill:#708CA9;}
	.st70{clip-path:url(#SVGID_148_);fill:#708CA9;}
	.st71{clip-path:url(#SVGID_150_);fill:#708CA9;}
	.st72{clip-path:url(#SVGID_152_);fill:#708CA9;}
	.st73{clip-path:url(#SVGID_154_);fill:#708CA9;}
	.st74{clip-path:url(#SVGID_156_);fill:#1A4A6B;}
	.st75{clip-path:url(#SVGID_158_);fill:#708CA9;}
	.st76{clip-path:url(#SVGID_160_);fill:#1A4A6B;}
	.st77{clip-path:url(#SVGID_162_);fill:#708CA9;}
	.st78{clip-path:url(#SVGID_164_);fill:#1A4A6B;}
	.st79{clip-path:url(#SVGID_166_);fill:#708CA9;}
	.st80{clip-path:url(#SVGID_168_);fill:#708CA9;}
	.st81{clip-path:url(#SVGID_170_);fill:#708CA9;}
	.st82{clip-path:url(#SVGID_172_);fill:#708CA9;}
	.st83{clip-path:url(#SVGID_174_);fill:#708CA9;}
	.st84{clip-path:url(#SVGID_176_);fill:#1A4A6B;}
	.st85{clip-path:url(#SVGID_178_);fill:#708CA9;}
	.st86{clip-path:url(#SVGID_180_);fill:#1A4A6B;}
	.st87{clip-path:url(#SVGID_182_);fill:#708CA9;}
	.st88{clip-path:url(#SVGID_184_);fill:#1A4A6B;}
	.st89{clip-path:url(#SVGID_186_);fill:#708CA9;}
	.st90{clip-path:url(#SVGID_188_);fill:#1A4A6B;}
	.st91{clip-path:url(#SVGID_190_);fill:#708CA9;}
	.st92{clip-path:url(#SVGID_192_);fill:#1A4A6B;}
	.st93{clip-path:url(#SVGID_194_);fill:#708CA9;}
	.st94{clip-path:url(#SVGID_196_);fill:#708CA9;}
	.st95{clip-path:url(#SVGID_198_);fill:#708CA9;}
	.st96{clip-path:url(#SVGID_200_);fill:#708CA9;}
	.st97{clip-path:url(#SVGID_202_);fill:#708CA9;}
	.st98{clip-path:url(#SVGID_204_);fill:#8E5D46;}
	.st99{clip-path:url(#SVGID_206_);fill:#9F735D;}
	.st100{clip-path:url(#SVGID_208_);fill:#9F735D;}
	.st101{clip-path:url(#SVGID_210_);fill:#B3C6DF;}
	.st102{clip-path:url(#SVGID_212_);fill:#A8602E;}
	.st103{clip-path:url(#SVGID_214_);fill:#69625F;}
	.st104{clip-path:url(#SVGID_216_);fill:#688139;}
	.st105{clip-path:url(#SVGID_218_);fill:#5A7836;}
	.st106{clip-path:url(#SVGID_220_);fill:#48642E;}
	.st107{clip-path:url(#SVGID_222_);fill:#688139;}
	.st108{clip-path:url(#SVGID_224_);fill:#557233;}
	.st109{clip-path:url(#SVGID_226_);fill:#688139;}
	.st110{clip-path:url(#SVGID_228_);fill:#536D31;}
	.st111{clip-path:url(#SVGID_230_);fill:#688139;}
	.st112{clip-path:url(#SVGID_232_);fill:#536D31;}
	.st113{clip-path:url(#SVGID_234_);fill:#5A7836;}
	.st114{clip-path:url(#SVGID_236_);fill:#48642E;}
	.st115{clip-path:url(#SVGID_238_);fill:#5A7836;}
	.st116{clip-path:url(#SVGID_240_);fill:#5A7836;}
	.st117{clip-path:url(#SVGID_242_);fill:#5A7836;}
	.st118{clip-path:url(#SVGID_244_);fill:#5A7836;}
	.st119{clip-path:url(#SVGID_246_);fill:#536D31;}
	.st120{clip-path:url(#SVGID_248_);fill:url(#SVGID_249_);}
	.st121{clip-path:url(#SVGID_251_);fill:#586E1C;}
</style>
<g>
	<g>
		<g>
			<g>
				<g>
					<g>
						<defs>
							<rect id="SVGID_1_" x="-122.2" y="23.6" width="595.3" height="841.9"/>
						</defs>
						<clipPath id="SVGID_2_">
							<use xlink:href="#SVGID_1_"  style="overflow:visible;"/>
						</clipPath>
						<path class="st0" d="M156,757.9v-25.2l-0.7-3l-0.8,2.5v-3l-0.1-1.3l-0.2,1.1l-0.7-3.3l-0.7,3l-3.8-26.2l-3.7,26.3l-0.5-3.2
							l-0.5,3.2l-0.3-0.7l-0.1,1.7l-0.1,2.4l-0.6-2.4l-0.7,2.9v25.1c1.8,0.8,2.8,1.5,7,1.6C152.2,759.5,154.2,758.8,156,757.9"/>
					</g>
				</g>
			</g>
		</g>
	</g>
	<g>
		<g>
			<g>
				<g>
					<g>
						<defs>
							<rect id="SVGID_3_" x="-122.2" y="23.6" width="595.3" height="841.9"/>
						</defs>
						<clipPath id="SVGID_4_">
							<use xlink:href="#SVGID_3_"  style="overflow:visible;"/>
						</clipPath>
						<path class="st1" d="M-86,762.1c1.1-0.7,3-1.4,4.3-1.6c0.8-0.1,1.7,0.1,2.4,0c0.9-0.2,1.6-1,2.7-0.9c0.8,0.1,1,0.8,1.7,0.9
							c0.4,0.1,2.8-2.4,3.1-2.7c1.3-1,3.1-2.2,4.8-2.1c1.2,0.1,1.8,0.5,2.4,1.5c0.7-0.3,1.1-1.1,1.7-1.5c1-0.8,2.1-1,3.3-1.1
							c0.4,0,0.7,0.2,1.1,0.1c0.9-0.2,1.8-1.2,2.8-1.5c1.3-0.3,2.1-0.1,3.2,0.6c0.8,0.5,2,2.1,2.9,2.3c0.9,0.2,1.7-0.6,2.4-1.4
							c1.2-1.3,2.4-2.6,4.6-2.2c1.4,0.3,2,1.7,3.3,1.8c1.2,0,1.3-1,2.2-1.8c1.5-1.1,2.3,0,3.8-0.3c0.5-0.1,0.9-0.7,1.5-0.9
							c0.2-0.1,2.2-0.3,2.2-0.4c-0.1-2.3,1.7-3.5,3.9-2.2c1.2-2.1,6.3,1.6,6.1,3.5c1.5,0.1,1.7-0.2,2.8-0.9c1.5-0.8,2.9-0.1,4.4,0.2
							c0,0.3,0.1,0.7,0.1,1c0.8,0.1,1.2-1.1,1.8-1.6c0.4-0.3,1.1-0.7,1.5-0.9c0.3-0.2,0.5-0.6,1.2-0.7c0.6-0.1,1.2-0.2,1.7-0.3
							c1.4-0.3,1.7-0.1,2.8,0.9c0.3,0.3,0.1,0.6,0.5,0.8c0.3,0.1,0.7-0.1,1,0c0.3,0.1,0.2,0.6,0.5,0.8c0.2,0.1,0.7,0,0.8,0.1
							c0.5,0.4,0.3,0.9,1.2,0.9c0.6,0,1-0.9,1.8-0.9c0.5-2.7,3.3-2,5.1-2.2c0.3-1.9,2.2-1.9,3.7-2.2c0.8-0.2,0.6-0.7,1.7,0
							c1,0.6,3.4,2.8,3.5,4l1.6,2.5c0,0.8,0,1.6,0,2.3c-5.5,1.3-10.8,2.7-16.4,3.3c-5.3,0.6-10.7,1.2-16,1.4
							c-4.4,0.1-8.8,0.8-13.2,1.3c-2.9,0.3-5.7,0.9-8.6,1.1c-3.1,0.2-6.2,0-9.3,0c-6.3,0.1-12.5,1.1-18.8,1c-1.5,0-17.7,1-21.9,0.2
							v-1.5C-85.8,762.4-86,762.1-86,762.1"/>
					</g>
				</g>
			</g>
		</g>
	</g>
	<g>
		<g>
			<g>
				<g>
					<g>
						<defs>
							<rect id="SVGID_5_" x="-122.2" y="23.6" width="595.3" height="841.9"/>
						</defs>
						<clipPath id="SVGID_6_">
							<use xlink:href="#SVGID_5_"  style="overflow:visible;"/>
						</clipPath>
						<path class="st2" d="M-34.8,755.8c0.6-0.7,1.3-0.4,1.7-1.1c0.3-0.5,0.3-1.2,0.9-1.7c0.9-0.7,2.4-0.7,3.3-0.3
							c0.2-0.5,0.1-1,0.2-1.5c0.1-0.5,0.5-0.8,0.8-1.3c0.3-0.4,0.2-0.7,0.9-0.6c0.3,0,0.8,0.4,1,0.5c0.5,0.3,0.5,0.4,0.6,0.9
							s0,1.7,0.9,1.4c1.1-0.3,0-1.7-0.4-2c0.4-0.3,1.6-0.5,2.1-0.2s0.3,0.9,0.6,1.3c0.6,0.6,1.4,0.8,1.9,1.7
							c-0.9,0.9-1.3,1.2-2.5,1.5c-0.5,0.1-1.8,0.6-1,1.3c0.8-0.4,1.7-0.1,2.4-0.3c0.2-0.1,0.3-0.3,0.5-0.4c0.4-0.2,0.9,0,1.3-0.1
							c1-0.3,2.2-1,3.3-1.2c0.4-0.1,0.9-0.2,1.3-0.1c0.7,0.2,0.7,0.9,1.2,1.2c1.5,1,3.1-1.4,3.7-2.5c0.5-1,0.6-1.4,1.7-1.6
							c1.2-0.3,2.9-0.3,4.2,0.1c0.1,0.6-0.2,0.7-0.6,0.9c-0.3,0.2-0.9,0.2-1.1,0.5c-0.1,0.1,0,0.5-0.1,0.7c-0.2,0.3-1.5,1.5-0.7,1.8
							c0.1,0,1.1-0.6,1.2-0.7c0.5-0.5,0.6-1.3,1.3-1.7c0.4-0.2,1.4-0.2,1.8-0.1c1,0.2,1.7,1.5,2.8,1.3c0.8-0.2,1-0.6,2-0.6
							c0.4,0,0.9,0.1,1.3,0.1c0.2-0.9,1.1-0.8,1.8-1c0.8-0.2,1-0.4,1.5-0.9s0.9-1.1,1.7-1.2c0.8-0.1,1.5,0.6,2.2,0.4
							c0.8-0.3,0.9-0.8,1.9-0.7c1.2,0.1,2.3,1.3,2.5,2.5l0.2,1.4c0.1,1.4-1,2.6-2.2,3.1c-3.4,1.4-7.6,0.8-11.3,0.8
							c-6.7,0-13.4,0.7-20.2,0.5c-3.9-0.1-7.7,0-11.6-0.2c-1.8-0.1-4.1-0.2-5.8,0.3C-35.7,757.5-35.1,756.2-34.8,755.8"/>
					</g>
				</g>
			</g>
		</g>
	</g>
	<g>
		<g>
			<g>
				<g>
					<g>
						<defs>
							<rect id="SVGID_7_" x="-122.2" y="23.6" width="595.3" height="841.9"/>
						</defs>
						<clipPath id="SVGID_8_">
							<use xlink:href="#SVGID_7_"  style="overflow:visible;"/>
						</clipPath>
						<path class="st3" d="M-47.7,756.6c0.3-0.3,0.6-0.5,0.7-0.9c0.2-0.4,0.2-0.7,0.6-1c0.6-0.5,1.6-0.8,2.4-1
							c0.6-0.2,1.2-0.1,1.8,0.1s1.3,0.4,1.8,0.8c0.2,0.1,0.5,0.4,0.6,0.6c-0.8,0.2-1.4,1.2-1.2,2c0.5,0.1,0.7-0.4,0.9-0.7
							c0.2-0.4,0.4-0.5,0.8-0.7c0.6-0.3,0.7-0.7,1.1-1.2c0.2-0.3,0.6-0.6,0.9-0.8c0.7-0.5,1.3-0.5,2.2-0.4c0.5,0,1.1,0,1,0.6
							l-0.1-0.1c0,0.5-0.8,0.7-1.2,0.8c-0.4,0.2-0.5,0.3-0.6,0.8c-0.1,0.3-0.1,0.5-0.3,0.8c-0.3,0.4-0.3,0.6-0.3,1.1
							c0,0.4,0.1,0.5-0.4,0.5c-0.9,0.1-1.8-0.2-2.8,0c-0.7,0.1-1.3,0.5-2,0.6c-1,0.2-1.9-0.3-2.9-0.1c-0.6,0.1-1,0.4-1.6,0.4
							c-0.4,0-0.8,0.1-1.2,0.2c-0.2,0-1,0-1.2-0.1C-49.4,758.2-48,756.9-47.7,756.6"/>
					</g>
				</g>
			</g>
		</g>
	</g>
	<g>
		<g>
			<g>
				<g>
					<g>
						<defs>
							<rect id="SVGID_9_" x="-122.2" y="23.6" width="595.3" height="841.9"/>
						</defs>
						<clipPath id="SVGID_10_">
							<use xlink:href="#SVGID_9_"  style="overflow:visible;"/>
						</clipPath>
						<path class="st4" d="M-79.2,761.6c0.9-0.3,1.4-1.2,2.3-0.5c0.4,0.3,0.5,0.5,1,0.4c0.4-0.1,0.9-0.2,1.3-0.4
							c1.2-0.4,2.9-0.5,3.5-1.8c0.4-0.8,1.3-0.7,1.9-1.4c0.3-0.4,0.3-0.6,0.8-0.8c0.4-0.1,1.7-0.6,2.1-0.4c0.3,0.2,0,0.2,0.2,0.4
							c0.2,0.4,0.4,0.4,0.8,0.6c0.6,0.4-0.1,0.8,0.3,1.3c0.2,0.3,0.9,0.2,1.2,0.1c0.7-0.3,0.9-0.7,1-1.4c0.2-0.8,0.9-0.7,1.3-1.2
							c0.3-0.4,0.5-0.8,1.1-1c0.3-0.1,1.4-0.3,1.7-0.1c0.4,0.2-0.2,0.7-0.4,1c-0.3,0.5-0.7,1.6,0.3,1.7c0.3-0.5,0.4-1,0.6-1.5
							c0.2-0.6,0.7-0.8,1.2-1.2c0.9-0.7,1.5-1,2.7-0.9c0.7,0,1.3,0.2,1.8,0.7c0.2,0.2,0.4,0.4,0.6,0.5c0.6,0.3,1,0.6,1.4,1.2
							c0.3,0.4,0.7,0.9,0.8,1.5v0.5c-0.9,0.2-1.8,0.6-2.8,0.8c-1.2,0.3-2.6,0.2-3.8,0.3c-1.4,0.1-2.8,0.3-4.2,0.6
							c-2.2,0.4-4.3,0.7-6.5,1c-2.2,0.3-4.4,0.4-6.6,0.6c-2.2,0.2-4.4,0.5-6.5,0.8c-0.8,0.1-1.6,0.3-2.4,0.2
							C-82.7,761.4-80.3,762-79.2,761.6"/>
					</g>
				</g>
			</g>
		</g>
	</g>
	<g>
		<g>
			<g>
				<g>
					<g>
						<defs>
							<rect id="SVGID_11_" x="-122.2" y="23.6" width="595.3" height="841.9"/>
						</defs>
						<clipPath id="SVGID_12_">
							<use xlink:href="#SVGID_11_"  style="overflow:visible;"/>
						</clipPath>
						<path class="st5" d="M17.5,755.2c0,0-65.6,0.5-103.6,8.1H18.1L17.5,755.2z"/>
					</g>
				</g>
			</g>
		</g>
	</g>
</g>
<g>
	<g>
		<g>
			<g>
				<g>
					<g>
						<defs>
							<path id="SVGID_13_" d="M405.3,729.3c-0.7,1.6-2.4,2.8-2.8,4.7c-0.3,1.5,0.8,3,0.6,4.5c-1.1,0.1-2.2,0-3.4-0.2
								c-1.2-0.2-2.5-0.5-3.7-0.1c-1.7,0.6-3.9,3.2-4.2,5c-0.2,1.1,0.1,2.1,0.5,3l-2.8,2.4c-0.3,0.6-0.7,1.3-1,1.9
								c-1,2.3-0.3,4.7,0.3,7c0.7,2.8,1.7,5.5,4.3,7.1c1.7,1.1,3.6,1,5.5,1.1c3.2,0.2,6.4,0.3,9.7,0.3c5.7-0.2,11.4-0.9,17-1.1
								c2.4-0.1,4.9,0,7.4,0.1c1.9,0.1,3.7,0.2,5.5,0.2v-23.1c-0.9-0.1-2.1,0-2.7-0.4c-0.6-0.4-0.7-1-1.1-1.6
								c-0.5-0.8-1-1.3-1.8-1.8c-1.2-0.8-2.9-1.7-4.4-1.6c-0.1-0.4-0.4-0.8-0.7-1.1c-0.3-0.3-0.8-0.4-1.1-0.6
								c-0.5-0.5-0.6-1.5-1-2.1c-2.3-3-4.3,1.2-5.4,3c-0.9-2.7-4.5-1.7-6.1-0.2c-1.9-1.2-1.7-3.5-2.3-5.4c-0.4-1.6-1.9-2.9-3.6-3.1
								c-0.1,0-0.1,0-0.2,0C406.9,727.1,405.8,728.3,405.3,729.3"/>
						</defs>
						<clipPath id="SVGID_14_">
							<use xlink:href="#SVGID_13_"  style="overflow:visible;"/>
						</clipPath>
						
							<linearGradient id="SVGID_15_" gradientUnits="userSpaceOnUse" x1="-425.1091" y1="-590.8427" x2="-424.1091" y2="-590.8427" gradientTransform="matrix(-50.2614 0 0 50.2614 -20928.3086 30443.1797)">
							<stop  offset="0" style="stop-color:#688139"/>
							<stop  offset="0.2184" style="stop-color:#5F7935"/>
							<stop  offset="0.6925" style="stop-color:#516C31"/>
							<stop  offset="1" style="stop-color:#4B6730"/>
						</linearGradient>
						<rect x="387.5" y="727.1" class="st6" width="50.7" height="39"/>
					</g>
				</g>
			</g>
		</g>
	</g>
</g>
<g>
	<g>
		<g>
			<g>
				<g>
					<g>
						<defs>
							<rect id="SVGID_16_" x="-122.2" y="23.6" width="595.3" height="841.9"/>
						</defs>
						<clipPath id="SVGID_17_">
							<use xlink:href="#SVGID_16_"  style="overflow:visible;"/>
						</clipPath>
						<path class="st7" d="M392.5,749.1c0.1-1.5,0.8-2.8,1.3-4.2c0.3-0.7,0.3-1.4,0.8-2c1.4-1.8,4.3-1.7,6.3-1.5
							c0.6,0,3,0.5,3.6,0.1c1.1-0.7,0.5-1.9,0.5-2.7c0-0.3,0.4-1,0.4-1.2c-0.1-0.6-0.7-1-0.9-1.6c-0.2-0.6,0.3-3.2,0.8-3.8
							c1.5-1.8,4.7,1.1,5.3,2.6c0.8,1.9,0,4.4,0.5,6.4c2.7-0.1,3.6,1.3,5,3c1.2,1.4,2.6,1.9,3.1,3.9c0.3,1.3,0.3,2.6,0.4,3.9
							c0.8-1.2,1.2-3.4,1-4.9s-1.1-1.4-2.1-2.4c-1-1.2-0.5-3.1-2.1-3.9c-1-0.5-2.3-0.1-2.7-1.5c-0.3-1,0.3-2.2,1.4-1.9l0.5,0.3
							c1.5,0.1,2.7,1.3,3.8,2.1c1.6,1.2,2.2,1.6,3,3.4c0.5,1.1,1.2,1.9,1.3,3.1c0.1,0.7,0,1.5,0,2.2c4.5-1.9-0.6-7.8-2.1-9.8
							c1.3-0.4,0.6-2.1,1.9-2.1c1.9,0,2.4,2.8,3.1,3.8c0.1,0.2,0.6,0.1,0.8,0.3c0.8,0.6,1.5,1.4,2.2,2.2c0.8,1,1.3,1.9,1.6,3.2
							c0.5,2.2-0.4,4.3-0.3,6.5c2.3-0.1,3.2-2.4,2.9-4.5c-0.1-0.9-0.7-1.8-0.8-2.7c-0.1-0.5,0-0.9-0.2-1.4c1.8,0.6,2.8,2.1,4.1,3.3
							c0.4,0.3,1,0.6,1.4,0.9v16.1c-0.8,0-2.1-0.1-2.2-0.1c-2.5,0.1-5,0.3-7.5,0.6c-6.2,0.6-12.4,0.6-18.6,1c-2.5,0.1-6.7,0.9-9-0.1
							c-4.7-2.1-5.4-6.9-7.3-11C392.8,752.8,392.3,751.1,392.5,749.1"/>
					</g>
				</g>
			</g>
		</g>
	</g>
</g>
<g>
	<g>
		<g>
			<g>
				<g>
					<g>
						<defs>
							<path id="SVGID_18_" d="M365.5,738.8c-0.7,0.4-2.1,1.3-2.2,2.2l-5.8,5.3c-4.5,4.2-6.4,13.9,0.6,16.5c2.2,0.8,4.5,1.5,6.7,2.2
								c2.6,0.8,5.5,0.1,8.2-0.1c2.4-0.2,4.7,0,7,0.2c1.6,0.1,3.3,0.3,4.9,0.3c2.3,0,4.4-0.1,6.7-0.5c2.1-0.4,4.2-1.1,6.3-1.4
								c2-0.2,3.9,0.1,5.8,0.4c1.7,0.3,3.5,0.6,5.2,0.5c0.7,0,1.3,0,1.8-0.8c0.3-0.5,0-1,0.1-1.5c0.1-0.6,0.7-1.1,0.9-1.8
								c0.9-2.7-1.2-5-3-6.6c-2-1.7-4-1.6-6.4-1.3c-0.6,0.1-1.2,0.3-1.8,0.4c-0.2,0.1-0.3,0.2-0.5,0.2c-0.3-0.1-0.4-0.6-0.5-0.8
								c-0.4-0.6-1.2-1-1.6-1.5c-0.2-0.3-0.2-0.9-0.3-1.2c-0.5-1.6-1.9-2.5-2.8-3.8c-0.4-0.6-0.6-1.2-1.3-1.5
								c-1.1-0.5-3.1-0.1-4.3,0.2c-1.2,0.3-3.5,0.6-3.2,2.3c-0.2,0-0.5,0-0.7,0c-0.7,0-1.3,0-1.9,0.3c-0.5-0.9-0.4-1.9-1.1-2.8
								c-0.5-0.7-1.3-1.2-2-1.6c-1.4-0.9-2.9-1.1-4.1,0.2c-1.3-1.5-2.8-2.2-4.2-3.3c-0.6-0.4-1-1.1-1.7-1.5
								c-0.4-0.2-0.9-0.3-1.4-0.3C367.7,737.7,366.5,738.2,365.5,738.8"/>
						</defs>
						<clipPath id="SVGID_19_">
							<use xlink:href="#SVGID_18_"  style="overflow:visible;"/>
						</clipPath>
						
							<linearGradient id="SVGID_20_" gradientUnits="userSpaceOnUse" x1="-424.3073" y1="-592.8772" x2="-423.3073" y2="-592.8772" gradientTransform="matrix(-58.1519 0 0 58.1519 -24262.6191 35228.6367)">
							<stop  offset="0" style="stop-color:#688139"/>
							<stop  offset="0.2184" style="stop-color:#5F7935"/>
							<stop  offset="0.6925" style="stop-color:#516C31"/>
							<stop  offset="1" style="stop-color:#4B6730"/>
						</linearGradient>
						<rect x="351.1" y="737.7" class="st8" width="61.5" height="28"/>
					</g>
				</g>
			</g>
		</g>
	</g>
</g>
<g>
	<g>
		<g>
			<g>
				<g>
					<g>
						<defs>
							<rect id="SVGID_21_" x="-122.2" y="23.6" width="595.3" height="841.9"/>
						</defs>
						<clipPath id="SVGID_22_">
							<use xlink:href="#SVGID_21_"  style="overflow:visible;"/>
						</clipPath>
						<path class="st9" d="M359.8,751.8c0.1-1.9,0.5-2.6,2-3.9c2-1.8,2.4-3.7,5.3-4.7c1.1-0.4,2.1-0.4,3.3-0.5
							c0.5,0,2.2-0.5,2.6-0.4c1,0.4,2.2,2.7,2.6,3.7c0.5,1.2,0.5,2.5,0.7,3.8c0.9-0.2,2.3-0.2,3.1-0.5c0.8-0.3-0.1-1.1,1.4-1
							c1.2,0.1,1.2,1,1.7,1.9c1,0,2.1,0.7,2.7,1.4c0.2-2.6,2.5-3.6,4.9-3.6c1.5,0,2.7,0.5,3.8,1.5c1,0.9,0.9,2,1.6,2.8
							c0.5,0.5,1.4,0.4,1.6,1.3c0.1,0.6-0.7,0.9-0.6,1.4c0.2,0.9,1.2,0.7,1.7,1.4c0.3,0.4-0.1,0.9,0.2,1.2c0.3,0.3,1.1,0.3,1.2,0.5
							c0.5,0.7,0.1,2.2,0.3,3c1.3-0.4,1.8-3.1,1.3-4.3c-0.2-0.4-1.2-0.8-1.1-1.2c0-0.7,0.5-0.2,0.7-0.4c1-1.1,1.6-0.8,3-0.7
							c1.6,0.2,2.6,0.1,3.4,1.7c0.1,0.2-0.1,0.7,0.1,1s0.6,0.5,0.8,1.1c0.5,1.4-0.3,1.9-0.7,2.8c-0.3,0.9-0.3,1.2-0.9,2.1l-0.9,2.9
							c-3.8,0.6-7.7,0.3-11.6,0.3c-2.8,0-5.8,0.2-8.6-0.4c-2.2-0.5-4.3-1.5-6.6-1.7c-2.4-0.2-4.9,0.1-7.4-0.1
							c-2-0.1-4.4,0.3-6.2-0.6c-1.7-0.9-4.3-2.4-5.1-4.3C359.1,757.3,359.7,753.9,359.8,751.8"/>
					</g>
				</g>
			</g>
		</g>
	</g>
</g>
<g>
	<g>
		<g>
			<g>
				<g>
					<g>
						<defs>
							<path id="SVGID_23_" d="M351,731.2c-1.3,0.2-3.8,1.4-3.7,3c-0.3-0.3-0.7-0.3-1.1-0.4c-0.3-0.1-0.7,0-1.1,0.1
								c-0.4,0.1-0.8,0.2-1.1,0.1c-0.7-0.2-1.2-1-2.1-1.1c-2.2-0.5-4.4,2.4-4.3,4.4l-3.6,5.8c-0.3-0.1-1.1,0.6-1.4,0.9
								c-1.2,1-2.5,2.6-2.6,4.2c0,0.3,0.2,0.9,0.1,1.2c-0.4,1.1-1.9,1.9-2.5,3c-0.9,1.6-0.4,3.7-0.1,5.5c0.4,2,1.1,3.3,2.9,4.3
								c3.5,2,7.9,3.1,11.8,3.7c8.8,1.3,18.1,1.7,26.9,0.3c3.3-0.5,6.8-0.9,10-1.9c0.6-0.2,1.1-0.4,1.8-0.4c0.1-0.8,0-1.4-0.3-2.1
								c-0.7-1.6-2-1.5-3.4-1.4c-0.7,0-1.4,0.1-2.1-0.1c-0.6-0.1-1.1-0.9-1.7-1.1c-1.6-0.5-2.6,0.5-3.9,0.9c-1.5,0.4-3.2,0-4.6,0.5
								c0.8-0.7,0.4-2.4-0.1-3.1c1.2-1,0.4-3-0.7-3.7c0.1-0.7,0.7-1.3,1.2-1.8c0.9-0.8,1.2-0.3,2.4-0.7c1.3-0.3,1.8-1,2.1-2.2
								c0.1-0.3,0-0.4,0.1-0.6c0.1-0.3,0.6-0.5,0.8-0.8c0.6-1.3-0.1-3.1-1-4.1c-0.6-0.6-0.5-0.7-0.8-1.3c-1.2-2-4.5-3.8-6.7-2.5
								c0.8-1.9,0-4.6-1.7-5.8c-0.9-0.6-1.8-0.6-2.7-1c-0.2-0.1-0.3-0.3-0.6-0.4c-1.6-0.8-3.2-1.4-4.9-1.4
								C351.7,731.1,351.3,731.2,351,731.2"/>
						</defs>
						<clipPath id="SVGID_24_">
							<use xlink:href="#SVGID_23_"  style="overflow:visible;"/>
						</clipPath>
						
							<linearGradient id="SVGID_25_" gradientUnits="userSpaceOnUse" x1="-424.7705" y1="-591.7017" x2="-423.7705" y2="-591.7017" gradientTransform="matrix(-53.3242 0 0 53.3242 -22269.748 32301.2695)">
							<stop  offset="0" style="stop-color:#688139"/>
							<stop  offset="0.2184" style="stop-color:#5F7935"/>
							<stop  offset="0.6925" style="stop-color:#516C31"/>
							<stop  offset="1" style="stop-color:#4B6730"/>
						</linearGradient>
						<rect x="326.6" y="731.1" class="st10" width="54.2" height="36.3"/>
					</g>
				</g>
			</g>
		</g>
	</g>
</g>
<g>
	<g>
		<g>
			<g>
				<g>
					<g>
						<defs>
							<rect id="SVGID_26_" x="-122.2" y="23.6" width="595.3" height="841.9"/>
						</defs>
						<clipPath id="SVGID_27_">
							<use xlink:href="#SVGID_26_"  style="overflow:visible;"/>
						</clipPath>
						<path class="st11" d="M337.6,748.4c0.2-2.4,1.3-3.2,2.3-5.2c0.8-1.7-0.1-3.7,0.9-5.3c0.4-0.6,1.6-1.7,2.2-2
							c0.9-0.4,1.5,0.3,2.3,0c0.6-0.3,0.5-1.2,1.2-1.4c0.8-0.2,2.3,1.5,3.2,1.7c0-1.2,1.7-3.2,2.8-3.3c1.3,0,2.1,1.7,3.2,2.1
							c1.1,0.4,3-0.1,4,0.9c0.5,0.5,0.9,1.5,0,2c-0.6,0.4-0.4-0.2-0.9-0.3c-1.3-0.4-2.2-0.8-3.7-0.7c0.7,0.5,1.4,0.4,2.1,1.1
							c0.9,1,0.6,2.4,0.7,3.6c1,0.1,1.8-0.3,2.8,0.1c0.8,0.3,2.2,1.3,2.9,1.9c1.6,1.5,3.3,3.9,0.3,5c-0.7,0.3-2.7,0.8-3.4,0.1
							c-1-1,0.1-1.6-1.9-2.1c-1.1-0.3-4.2-0.9-4.3,0.8c2,0.2,5.4,1.9,6.3,3.8c0.4,0.8,0.3,1.6,0.7,2.2c1.2,0,2.1,1.7,2.2,2.6
							c0.2,2.1-2.8,5-4.8,5l-3.8,1.2c-0.8,0.1-1.5-0.4-2.2-0.5c-2.4-0.4-4.1,0-6-1.9c-1.3-1.3-1.8-2.5-3.6-3.4c-1-0.5-3-0.2-3.7-1
							c-0.3-0.4-0.4-1.8-0.6-2.3C337.9,751.6,337.4,750.5,337.6,748.4"/>
					</g>
				</g>
			</g>
		</g>
	</g>
</g>
<g>
	<g>
		<g>
			<g>
				<g>
					<g>
						<defs>
							<path id="SVGID_28_" d="M322.3,735.3c-1.5,0.2-2.5,0.7-3.6,1.6c-0.3,0.2-0.4,0.5-0.7,0.7c-0.7,0.5-1.4,0.7-1.9,1.3
								c-0.4-1.6-2.4,0.8-2.9,1.3c-1,1.1-1.1,2.5-1.5,3.8l-3.7,2.5c-0.9,0.8-1.8,1.7-2.3,2.9c-0.6,1.5,0.2,1.8,0.8,3
								c0.7,1.5,0.2,3.3,0.7,4.9c0.7,2.3,2.7,4.2,5.2,4.5c1.3,0.2,2.7,0,4.1-0.1c0.2,0,1.1-0.1,1.4,0c1,0.4,1.2,1.7,1.8,2.5
								c3.3,4,9.8,1.6,14,1.3c2-0.1,4.3,0.4,6.3,0.6c3.1,0.3,6.1,1,9.2,1c2.7,0,6.6,0,8.3-2.5c0.3-0.4,0.5-1.1,0.7-1.4
								c0.4-0.9,0.9-1.4,0.9-2.6c-0.1-1.4-0.8-2.9-2.3-3.4c-0.3-0.1-0.7-0.1-1.1-0.1c-0.3,0-0.5,0-0.8,0c0-2.8-4.9-4.8-7.2-4.7
								c0-1-0.5-1.4-0.7-2.3c-0.2-0.7-0.2-0.4,0.1-1.2c0.1-0.3,0.2-0.6,0.3-0.9c0.6-2.4,0.1-5.3-2.5-6.3c-0.8-0.3-0.7,0.1-1-0.5
								c-0.2-0.4,0-1.3,0-1.7c-0.1-1.4-0.4-2.2-1.7-2.8c-2.1-1-5.1-0.8-7.3-0.2c-1.3,0.3-2.2,1.1-3.3,1.6c-1-2.1-3.3,0.1-4.4,0.7
								c-0.8-0.4-0.5-1.6-0.9-2.3c-0.6-1.1-1.6-1.4-2.7-1.4C323.2,735.2,322.7,735.3,322.3,735.3"/>
						</defs>
						<clipPath id="SVGID_29_">
							<use xlink:href="#SVGID_28_"  style="overflow:visible;"/>
						</clipPath>
						
							<linearGradient id="SVGID_30_" gradientUnits="userSpaceOnUse" x1="-420.9058" y1="-583.9525" x2="-419.9058" y2="-583.9525" gradientTransform="matrix(-35.2405 10.7993 10.7993 35.2405 -8164.8496 25866.8457)">
							<stop  offset="0" style="stop-color:#C9B92E"/>
							<stop  offset="0.619" style="stop-color:#7A8536"/>
							<stop  offset="1" style="stop-color:#4F6B31"/>
						</linearGradient>
						<polygon class="st12" points="354.4,720.1 295.8,738 309.7,783.3 368.3,765.4 						"/>
					</g>
				</g>
			</g>
		</g>
	</g>
</g>
<g>
	<g>
		<g>
			<g>
				<g>
					<g>
						<defs>
							<rect id="SVGID_31_" x="-122.2" y="23.6" width="595.3" height="841.9"/>
						</defs>
						<clipPath id="SVGID_32_">
							<use xlink:href="#SVGID_31_"  style="overflow:visible;"/>
						</clipPath>
						<path class="st13" d="M314.3,747.3l1.6-5.5c-0.3-2.6,6.3-5.2,6.4-1.6c1.3-0.5,2.2,1.5,2.6,2.4c0.6-0.4,1.3-0.4,1.8-0.7
							c0.9-0.6,1.4-1.3,2.6-1.3c3.2,0,6.7,3.8,6.9,6.8c1.4-1.4,1-3.7-0.1-5.2c-0.8-1.1-2-1-2.8-1.9c0.7-0.7,2.1-1.1,3.1-1.2
							c1.3-0.1,1.8,0.6,2.8,1c1.2,0.4,1.8,0.3,2.7,1.4c0.8,0.9,0.7,1.4,0.8,2.4c0.3,2,2.6,2.8,2.2,5.2c-0.2,0.9-0.9,1-1.2,1.8
							c-0.2,0.5,0,1.5,0,2c0.8,0.2,1.9,0.9,1.9,1.9c1.8-0.1,2.9,1.6,2.8,3.2c-0.9-0.9-1.8-1.3-3-1.7c-1.4-0.4-5.2-1.1-5.6,1.1
							c0.8,0.2,2-0.6,2.9-0.7c0.7-0.1,1.2,0,1.8,0.4c0.6,0.4,0.8,1,1.2,1.5c0.4,0.5,1,0.8,1.3,1.4c1.7-1.1,4.3-0.3,4.7,1.6
							c0.1,0.5,0.1,1.2-0.1,1.7c-0.1,0.4,0,0.4-0.3,0.6c-0.1,0.1-0.7,0-0.8,0c-1.5,0.1-3.1,0-4.6,0.1c-4.8,0.3-9.5,1.1-14.3,1.3
							c-1.9,0.1-3.7,0.1-5.5-0.5c-3.1-0.9-6.9-2.4-9.1-5c-1.9-2.2-0.6-5-1.4-7.5c-0.4-1.2-1.2-2.3-1.4-3.5
							C314.3,748.5,314.5,747.9,314.3,747.3"/>
					</g>
				</g>
			</g>
		</g>
	</g>
</g>
<g>
	<g>
		<g>
			<g>
				<g>
					<g>
						<defs>
							<path id="SVGID_33_" d="M295.7,734.8c-1.1-0.7-1.7-1.1-2.9-0.7c-1.4,0.4-2.9,1.5-3.1,3c0,0.4,0,0.8,0,1.2l-1.5,1.1
								c-0.6-0.3-1.4-0.3-2,0c-1.3,0.6-1.5,1.4-1.9,2.6c-0.9,2.6-1.9,4.6-1.8,7.4c0.2,2.7,1.4,4.6,3.5,6.1c0.7,0.5,0.7,0.1,0.9,1.2
								c0.5,2.4,1.6,3.4,4.3,3.5c0.6,0,1.2,0,1.9-0.1c1.4-0.1,2.8-0.2,3.9,0.4c1.7,0.9,2.8,2.8,4.1,4c1.9,1.8,4.1,1.1,6.4,0.4
								c2-0.6,4.6-1,6.7-0.5c0.5,0.1,1,0.4,1.6,0.6c2.3,0.9,5,0.9,7.3,0.2c0.8-0.3,1.7-0.1,2.7,0c1.4,0.2,2.9,0.4,4.1-0.9
								c0.2-0.3,0.2-0.6,0.5-0.8c0.1-0.1,0.6-0.1,0.8-0.3c0.4-0.4,0.4-0.9,0.4-1.4c0.7-0.5,0.7-1.2,0.9-2c0.2-0.5,0.6-0.9,0.8-1.5
								c0.3-1.1-0.1-2.5-0.5-3.5c-0.3-0.6-1-1.5-1.2-2.1c-0.1-0.5,0-1.1,0-1.6c-0.2-2.9-2.6-6.1-5.5-6.5c-0.6-0.1-1.3,0-2,0.1
								c-0.8,0.1-1.5,0.2-2.2,0.1c-0.3-0.1-0.4-0.3-0.7-0.4c-0.9-0.3-3.5-0.8-4.4-0.2c-0.4,0.2-0.6,1-0.7,1.4
								c-0.2-1.6-2.3-2.5-3.8-2.5c-0.4-1.3-3.6-1.9-3.9-0.4c-0.1-0.7-0.7-0.8-1-1.3s-0.2-0.7-0.4-1.3c-0.4-1.3-1.3-1.5-2.4-2
								c0.6-1.2,1.2-1,2-0.8c0.3,0.1,0.7,0.2,1.1,0.2c-0.2-2.6-2.7-3.4-4.9-3.8c-1-0.1-2.4-0.4-3.7-0.4
								C297.6,733.5,296.3,733.8,295.7,734.8"/>
						</defs>
						<clipPath id="SVGID_34_">
							<use xlink:href="#SVGID_33_"  style="overflow:visible;"/>
						</clipPath>
						
							<linearGradient id="SVGID_35_" gradientUnits="userSpaceOnUse" x1="-425.0683" y1="-590.9431" x2="-424.0683" y2="-590.9431" gradientTransform="matrix(-50.6113 0 0 50.6113 -21180.1699 30658.2461)">
							<stop  offset="0" style="stop-color:#688139"/>
							<stop  offset="0.2184" style="stop-color:#5F7935"/>
							<stop  offset="0.6925" style="stop-color:#516C31"/>
							<stop  offset="1" style="stop-color:#4B6730"/>
						</linearGradient>
						<rect x="282.3" y="733.5" class="st14" width="51.1" height="32.7"/>
					</g>
				</g>
			</g>
		</g>
	</g>
</g>
<g>
	<g>
		<g>
			<g>
				<g>
					<g>
						<defs>
							<path id="SVGID_36_" d="M281.4,735.6c-1.6,0.2-3.4,1.8-3.7,3.4c-0.7-1.1-1.6,0.5-2.1,0.7c-1,0.4-0.8-0.3-1.3-0.5
								c-1.8-0.7-3.6,1.4-3.4,3.1l-2.8,3.5c-0.8,1.8-0.2,3.7,1,5.2c1,1.2,2,1.6,3.5,1.6c0.2,0,0.6-0.1,1-0.1c0.7-0.1,1.4-0.2,1.8,0
								c0.9,0.5,0.8,2.6,1.3,3.5c0.8,1.5,2.6,2.4,4.1,3c2.9,1.1,6.6,0.5,9.7,0.4c2.5-0.1,4.7-0.5,7.2-0.9c0.8-0.1,1.4-0.1,2.2,0.1
								c1.5,0.4,4.3,1,4.8-1c0.5-1.7-0.9-3.4-2.4-3.8c0.3-0.9,0.8-1.4,0.7-2.5c-0.1-0.9-0.6-1.7-1.3-2.2c0.8-1.5-2-3.1-3.2-3.3
								c-0.4-0.1-0.8,0-1.2,0.1c-0.4,0.1-0.8,0.1-1.1,0.1c-0.4-0.1-0.7-0.6-1.2-0.5c0-0.5,0-1.1-0.4-1.5c-0.4-0.3-0.7-0.3-1-0.2
								c-0.2,0-0.4,0.1-0.6,0c-0.7-0.1-1.3-1-1.5-1.8c-0.5-1.9,1-3.8-1.3-5.1c-1.3-0.7-3.8-1-4.5,0.6c0-1.4-2.4-1.9-3.7-1.9
								C281.6,735.5,281.5,735.5,281.4,735.6"/>
						</defs>
						<clipPath id="SVGID_37_">
							<use xlink:href="#SVGID_36_"  style="overflow:visible;"/>
						</clipPath>
						
							<linearGradient id="SVGID_38_" gradientUnits="userSpaceOnUse" x1="-427.2711" y1="-585.3454" x2="-426.2711" y2="-585.3454" gradientTransform="matrix(-36.7979 0 0 36.7979 -15418.0605 22287.2324)">
							<stop  offset="0" style="stop-color:#688139"/>
							<stop  offset="0.2184" style="stop-color:#5F7935"/>
							<stop  offset="0.6925" style="stop-color:#516C31"/>
							<stop  offset="1" style="stop-color:#4B6730"/>
						</linearGradient>
						<rect x="267.3" y="735.5" class="st15" width="37.8" height="24.5"/>
					</g>
				</g>
			</g>
		</g>
	</g>
</g>
<g>
	<g>
		<g>
			<g>
				<g>
					<g>
						<defs>
							<path id="SVGID_39_" d="M67.4,735.3c-1.5,0.2-2.5,0.7-3.6,1.6c-0.3,0.2-0.4,0.5-0.7,0.7c-0.7,0.5-1.4,0.7-1.9,1.3
								c-0.4-1.6-2.4,0.8-2.9,1.3c-1,1.1-1.1,2.5-1.5,3.8l-3.7,2.5c-0.9,0.8-1.8,1.7-2.3,2.9c-0.6,1.5,0.2,1.8,0.8,3
								c0.7,1.5,0.2,3.3,0.7,4.9c0.7,2.3,2.8,4.2,5.2,4.5c1.3,0.2,2.7,0,4.1-0.1c0.2,0,1.1-0.1,1.4,0c1,0.4,1.2,1.7,1.8,2.5
								c3.3,4,9.8,1.6,14,1.3c2-0.1,4.3,0.4,6.3,0.6c3.1,0.3,6.1,1,9.2,1c2.7,0,6.6,0,8.3-2.5c0.3-0.4,0.5-1.1,0.7-1.4
								c0.4-0.9,0.9-1.4,0.9-2.6c-0.1-1.4-0.8-2.9-2.3-3.4c-0.3-0.1-0.7-0.1-1.1-0.1c-0.3,0-0.5,0-0.8,0c0-2.8-4.9-4.8-7.2-4.7
								c0-1-0.5-1.4-0.7-2.3c-0.2-0.7-0.2-0.4,0.1-1.2c0.1-0.3,0.2-0.6,0.3-0.9c0.6-2.4,0.1-5.3-2.5-6.3c-0.8-0.3-0.7,0.1-1-0.5
								c-0.2-0.4,0-1.3,0-1.7c-0.1-1.4-0.4-2.2-1.7-2.8c-2.1-1-5.1-0.8-7.3-0.2c-1.3,0.3-2.2,1.1-3.3,1.6c-1-2.1-3.3,0.1-4.4,0.7
								c-0.8-0.4-0.5-1.6-0.9-2.3c-0.6-1.1-1.6-1.4-2.7-1.4C68.3,735.2,67.8,735.3,67.4,735.3"/>
						</defs>
						<clipPath id="SVGID_40_">
							<use xlink:href="#SVGID_39_"  style="overflow:visible;"/>
						</clipPath>
						
							<linearGradient id="SVGID_41_" gradientUnits="userSpaceOnUse" x1="-420.9057" y1="-583.9521" x2="-419.9057" y2="-583.9521" gradientTransform="matrix(-35.2412 10.7995 10.7995 35.2412 -8419.9287 25867.3262)">
							<stop  offset="0" style="stop-color:#C9B92E"/>
							<stop  offset="0.619" style="stop-color:#7A8536"/>
							<stop  offset="1" style="stop-color:#4F6B31"/>
						</linearGradient>
						<polygon class="st16" points="99.5,720.1 40.9,738 54.8,783.3 113.4,765.4 						"/>
					</g>
				</g>
			</g>
		</g>
	</g>
</g>
<g>
	<g>
		<g>
			<g>
				<g>
					<g>
						<defs>
							<rect id="SVGID_42_" x="-122.2" y="23.6" width="595.3" height="841.9"/>
						</defs>
						<clipPath id="SVGID_43_">
							<use xlink:href="#SVGID_42_"  style="overflow:visible;"/>
						</clipPath>
						<path class="st17" d="M59.4,747.3l1.6-5.5c-0.3-2.6,6.3-5.2,6.4-1.6c1.3-0.5,2.2,1.5,2.6,2.4c0.6-0.4,1.3-0.4,1.8-0.7
							c0.9-0.6,1.4-1.3,2.6-1.3c3.2,0,6.7,3.8,6.9,6.8c1.4-1.4,1-3.7-0.1-5.2c-0.8-1.1-2-1-2.8-1.9c0.7-0.7,2.1-1.1,3.1-1.2
							c1.3-0.1,1.8,0.6,2.8,1c1.2,0.4,1.8,0.3,2.7,1.4c0.8,0.9,0.7,1.4,0.8,2.4c0.3,2,2.6,2.8,2.2,5.2c-0.1,0.9-0.9,1-1.2,1.8
							c-0.2,0.5,0,1.5,0,2c0.8,0.2,1.9,0.9,1.9,1.9c1.8-0.1,2.9,1.6,2.8,3.2c-0.9-0.9-1.8-1.3-3-1.7c-1.4-0.4-5.2-1.1-5.6,1.1
							c0.8,0.2,2-0.6,2.9-0.7c0.7-0.1,1.2,0,1.8,0.4c0.6,0.4,0.8,1,1.2,1.5s1,0.8,1.3,1.4c1.7-1.1,4.3-0.3,4.7,1.6
							c0.1,0.5,0.1,1.2-0.1,1.7c-0.1,0.4,0,0.4-0.3,0.6c-0.1,0.1-0.7,0-0.8,0c-1.5,0.1-3.1,0-4.6,0.1c-4.8,0.3-9.5,1.1-14.3,1.3
							c-1.9,0.1-3.7,0.1-5.5-0.5c-3.1-0.9-6.9-2.4-9.1-5c-1.9-2.2-0.6-5-1.4-7.5c-0.4-1.2-1.2-2.3-1.4-3.5
							C59.4,748.5,59.6,747.9,59.4,747.3"/>
					</g>
				</g>
			</g>
		</g>
	</g>
</g>
<g>
	<g>
		<g>
			<g>
				<g>
					<g>
						<defs>
							<path id="SVGID_44_" d="M36.9,734.8c-1.1-0.7-1.7-1.1-2.9-0.7c-1.4,0.4-2.9,1.5-3.1,3c0,0.4,0,0.8,0,1.2l-1.5,1.1
								c-0.6-0.3-1.4-0.3-2,0c-1.3,0.6-1.5,1.4-1.9,2.6c-0.9,2.6-1.9,4.6-1.8,7.4c0.2,2.7,1.4,4.6,3.5,6.1c0.7,0.5,0.7,0.1,0.9,1.2
								c0.5,2.4,1.6,3.4,4.3,3.5c0.6,0,1.2,0,1.9-0.1c1.4-0.1,2.8-0.2,3.9,0.4c1.7,0.9,2.8,2.8,4.1,4c1.9,1.8,4.1,1.1,6.4,0.4
								c2-0.6,4.6-1,6.7-0.5c0.5,0.1,1,0.4,1.5,0.6c2.3,0.9,5,0.9,7.3,0.2c0.8-0.3,1.7-0.1,2.7,0c1.4,0.2,2.9,0.4,4.1-0.9
								c0.2-0.3,0.2-0.6,0.5-0.8c0.1-0.1,0.6-0.1,0.8-0.3c0.4-0.4,0.4-0.9,0.4-1.4c0.8-0.5,0.7-1.2,0.9-2c0.2-0.5,0.6-0.9,0.8-1.5
								c0.3-1.1-0.1-2.5-0.5-3.5c-0.3-0.6-1-1.5-1.2-2.1c-0.1-0.5,0-1.1,0-1.6c-0.2-2.9-2.6-6.1-5.5-6.5c-0.6-0.1-1.3,0-2,0.1
								c-0.8,0.1-1.5,0.2-2.2,0.1c-0.3-0.1-0.4-0.3-0.7-0.4c-0.9-0.3-3.5-0.8-4.4-0.2c-0.4,0.2-0.6,1-0.7,1.4
								c-0.2-1.6-2.3-2.5-3.8-2.5c-0.4-1.3-3.6-1.9-3.9-0.4c-0.1-0.7-0.7-0.8-1-1.3s-0.2-0.7-0.4-1.3c-0.4-1.3-1.3-1.5-2.4-2
								c0.6-1.2,1.2-1,2-0.8c0.3,0.1,0.7,0.2,1.1,0.2c-0.2-2.6-2.7-3.4-4.9-3.8c-1-0.1-2.4-0.4-3.7-0.4
								C38.8,733.5,37.5,733.8,36.9,734.8"/>
						</defs>
						<clipPath id="SVGID_45_">
							<use xlink:href="#SVGID_44_"  style="overflow:visible;"/>
						</clipPath>
						
							<linearGradient id="SVGID_46_" gradientUnits="userSpaceOnUse" x1="-425.0683" y1="-590.9428" x2="-424.0683" y2="-590.9428" gradientTransform="matrix(-50.6104 0 0 50.6104 -21438.5586 30657.7012)">
							<stop  offset="0" style="stop-color:#688139"/>
							<stop  offset="0.2184" style="stop-color:#5F7935"/>
							<stop  offset="0.6925" style="stop-color:#516C31"/>
							<stop  offset="1" style="stop-color:#4B6730"/>
						</linearGradient>
						<rect x="23.5" y="733.5" class="st18" width="51.1" height="32.7"/>
					</g>
				</g>
			</g>
		</g>
	</g>
</g>
<g>
	<g>
		<g>
			<g>
				<g>
					<g>
						<defs>
							<rect id="SVGID_47_" x="-122.2" y="23.6" width="595.3" height="841.9"/>
						</defs>
						<clipPath id="SVGID_48_">
							<use xlink:href="#SVGID_47_"  style="overflow:visible;"/>
						</clipPath>
						<path class="st19" d="M206.8,750.4c0-0.6,0.1-1.2,0.2-1.8c0.2,0,0.4,0,0.6-0.1c0-0.6-0.1-1.6,0.2-2c0.3-0.4,0.7-0.4,1-0.5
							c-0.3-1-0.3-2.3,0.3-3.1c0.4-0.4,0.4-0.3,0.6-1c0.1-0.3,0.3-0.6,0.4-0.9c0.4-0.7,0.8-1,1.5-1c0.8,0,1.6,0.4,1.9,1.4
							c0.6-0.1,0.8-0.2,1.2,0.2c0.1,0.1,0.4,0.6,0.5,0.8c0.1,0.3,0.1,0.8,0.2,1c0.2,0.3,0.4,0.2,0.6,0.7c0.1,0.4,0,0.9,0.1,1.3
							c0.2,0.5,0.3,0.4,0.3,1c0,0.4,0.1,0.7,0.1,1c0,0.2-0.1,0.6,0,0.7c0.2,0.3,0.7,0,1,0.2c0.4,0.2,0.9,0.9,1,1.4l0.6,1.9
							c0,0.4,0.2,1.3,0.1,1.6c-0.2,0.5-1.2,0.2-1.5,0.2c-3.6,0-7.3,0-11,0l-0.2-3C206.6,750.4,206.7,750.4,206.8,750.4"/>
					</g>
				</g>
			</g>
		</g>
	</g>
	<g>
		<g>
			<g>
				<g>
					<g>
						<defs>
							<rect id="SVGID_49_" x="-122.2" y="23.6" width="595.3" height="841.9"/>
						</defs>
						<clipPath id="SVGID_50_">
							<use xlink:href="#SVGID_49_"  style="overflow:visible;"/>
						</clipPath>
						<path class="st20" d="M208.7,748.3c-0.9-1.6-0.2-1.5,0.8-1.6c0-0.9,0.2-1.7,0.3-2.4c0-0.3,0-0.5,0-0.8c0.1-0.6,0.4-0.6,0.7-1
							c0.1-0.1,0.1-0.4,0.1-0.5c0.3-0.3,0.6-0.3,1-0.3c0.2,0,0.5-0.1,0.7,0.1s0.2,0.7,0.4,0.8c0.3,0.3,0.7,0.1,1,0.2
							c1.4,0.2,1.4,1.6,1.6,3c-0.9-0.8-1.7-2.4-2.9-1.9c-0.2,0.1-0.4,0.4-0.5,0.4c-0.2,0.1-0.4-0.1-0.5,0c-0.3,0.2-0.4,0.8-0.5,1.2
							c1.2-0.7,1.6-1,2.8-0.2c0.8,0.5,1.4,1.5,1.6,2.6c-0.9-0.1-1.5-0.9-2.2,0.3c0.5,0,1.1-0.1,1.5,0c0.3,0.1,0.4,0.4,0.7,0.5
							c0.6,0.2,1-0.2,1.5,0.4c0.2,0.2,0.4,0.6,0.4,1c0,1.3-1.8,0.2-2.4,0.1c-1.2-0.2-2.4,0.4-3.5,0.4c-1.2,0-2.3-0.1-3.5-0.1v-0.4
							C207.8,749.5,208.1,748.4,208.7,748.3"/>
					</g>
				</g>
			</g>
		</g>
	</g>
	<g>
		<g>
			<g>
				<g>
					<g>
						<defs>
							<rect id="SVGID_51_" x="-122.2" y="23.6" width="595.3" height="841.9"/>
						</defs>
						<clipPath id="SVGID_52_">
							<use xlink:href="#SVGID_51_"  style="overflow:visible;"/>
						</clipPath>
						<path class="st21" d="M224.4,750.3c0-1,0.7-1.6,1.3-2.3c0.2-0.3,0.3-0.6,0.6-0.8c0.2-0.1,0.5-0.1,0.6-0.2
							c0.6-0.5,1-1.3,2.2-1.3c0.8,0,1.2,0.3,1.8,0.6c0.4,0.2,0.5,0.2,0.9,0.4c1,0.4,2,0.7,2.5,1.8c0.1,0.2,0.1,0.6,0.2,0.8
							c0.1,0.2,0.5,0.2,0.6,0.3c0.2,0.4,0,1,0,1.4c0.4,0.1,1.1-0.1,1.5,0.1c0.6,0.4,0.5,1.6,1,2c0.7,0.5,2.1-0.2,2.9-0.2
							c0.7-0.1,1.3,0,2,0l0.3,3.4c-1.1,0-2.1,0-3.2-0.1c-2.3-0.1-4.7-0.1-6.9-0.7c-1.5-0.4-2.8-0.9-4.3-1c-1.3-0.1-2.5,0.1-3.2-1.1
							c-0.4-0.6-0.1-1-0.3-1.6C224.8,751.2,224.4,751,224.4,750.3"/>
					</g>
				</g>
			</g>
		</g>
	</g>
	<g>
		<g>
			<g>
				<g>
					<g>
						<defs>
							<rect id="SVGID_53_" x="-122.2" y="23.6" width="595.3" height="841.9"/>
						</defs>
						<clipPath id="SVGID_54_">
							<use xlink:href="#SVGID_53_"  style="overflow:visible;"/>
						</clipPath>
						<path class="st22" d="M227,750.5c0.2-0.6,0.4-0.5,0.6-1c0.2-0.6,0.1-1.1,0.4-1.5c0.3-0.4,1.4-0.7,1.8-0.7
							c0.8,0,1.6,1.1,2.3,1.8c1.1,1.3,2.1,2.3,1.3,4.9c-1.7-1.9-2.7-2.7-4.7-1.9c-0.8,0.3-1.5,0.6-2.3,0.6l-0.6-0.2
							C225.7,751.1,226.3,749.9,227,750.5"/>
					</g>
				</g>
			</g>
		</g>
	</g>
	<g>
		<g>
			<g>
				<g>
					<g>
						<defs>
							<rect id="SVGID_55_" x="-122.2" y="23.6" width="595.3" height="841.9"/>
						</defs>
						<clipPath id="SVGID_56_">
							<use xlink:href="#SVGID_55_"  style="overflow:visible;"/>
						</clipPath>
						<rect x="282.5" y="752.9" class="st23" width="22.2" height="4.9"/>
					</g>
				</g>
			</g>
		</g>
	</g>
	<g>
		<g>
			<g>
				<g>
					<g>
						<defs>
							<rect id="SVGID_57_" x="-122.2" y="23.6" width="595.3" height="841.9"/>
						</defs>
						<clipPath id="SVGID_58_">
							<use xlink:href="#SVGID_57_"  style="overflow:visible;"/>
						</clipPath>
						<rect x="233.8" y="747.5" class="st24" width="47.4" height="13.1"/>
					</g>
				</g>
			</g>
		</g>
	</g>
	<g>
		<g>
			<g>
				<g>
					<g>
						<defs>
							<rect id="SVGID_59_" x="-122.2" y="23.6" width="595.3" height="841.9"/>
						</defs>
						<clipPath id="SVGID_60_">
							<use xlink:href="#SVGID_59_"  style="overflow:visible;"/>
						</clipPath>
						<rect x="243.3" y="752.7" class="st25" width="35.2" height="0.8"/>
					</g>
				</g>
			</g>
		</g>
	</g>
	<g>
		<g>
			<g>
				<g>
					<g>
						<defs>
							<rect id="SVGID_61_" x="-122.2" y="23.6" width="595.3" height="841.9"/>
						</defs>
						<clipPath id="SVGID_62_">
							<use xlink:href="#SVGID_61_"  style="overflow:visible;"/>
						</clipPath>
						<rect x="233.9" y="747.8" class="st26" width="35.2" height="0.8"/>
					</g>
				</g>
			</g>
		</g>
	</g>
	<g>
		<g>
			<g>
				<g>
					<g>
						<defs>
							<rect id="SVGID_63_" x="-122.2" y="23.6" width="595.3" height="841.9"/>
						</defs>
						<clipPath id="SVGID_64_">
							<use xlink:href="#SVGID_63_"  style="overflow:visible;"/>
						</clipPath>
						<polygon class="st27" points="233.2,742.1 282.3,742.1 282.3,752.8 243.1,752.8 243.1,748 233.2,748 						"/>
					</g>
				</g>
			</g>
		</g>
	</g>
	<g>
		<g>
			<g>
				<g>
					<g>
						<defs>
							<rect id="SVGID_65_" x="-122.2" y="23.6" width="595.3" height="841.9"/>
						</defs>
						<clipPath id="SVGID_66_">
							<use xlink:href="#SVGID_65_"  style="overflow:visible;"/>
						</clipPath>
						<polygon class="st28" points="243.1,748 243.1,756.8 237.1,756.8 						"/>
					</g>
				</g>
			</g>
		</g>
	</g>
</g>
<g>
	<g>
		<g>
			<g>
				<g>
					<g>
						<defs>
							<path id="SVGID_67_" d="M134.9,741.5c-0.4,0.3-0.8,0.7-1.2,1s-1.2,0.5-1.4,1c0,0.1,0,0.3,0,0.4c-0.1,0.2-0.6,0.2-0.7,0.5
								c-0.1,0.2,0,0.4-0.2,0.6c-0.1,0.2-0.4,0.1-0.6,0.3c-0.4-0.3-0.5-0.8-0.8-1.3c-0.2-0.3-0.2-0.3-0.6-0.2
								c-0.1-0.7,0-1.3-0.6-1.7c-0.5-0.3-2-0.3-2.3,0.3c-0.6,0-2,0-2.2,0.7c0,0.2,0,0.5,0,0.7c-0.5,0-0.3,0.6-0.6,0.8
								c-0.1,0.1-0.3,0.1-0.4,0c-0.1,0-0.2-0.1-0.3,0c0,0.1,0,0.2,0,0.2c-0.6-0.1-1.4-0.2-1.9,0.2s-0.6,1.4-0.4,2
								c-0.6,0.3-0.5,1-0.4,1.5c0.1,0.4,0.2,0.8,0.1,1.2c-0.2,0.6-0.6,1.1-0.7,1.8c-0.1,1.4,0,2.8,0.1,4.2c0,0.7,0.1,1.4,0.1,2.1
								c0,0.3-0.1,0.6,0,0.8c0,0.2,0.1,0.7,0.2,0.8c0.1,0.1,0.6,0.1,1,0.1c0.2,0,0.3,0,0.4,0c1.2,0.1,2.3,0.3,3.5,0.4
								c0.7,0.1,1.6,0.2,2.3,0.1c0.7-0.1,1.3-0.4,2-0.6c1.1-0.4,2.3-0.6,3.5-0.9c1.1-0.3,2-0.8,3.1-1c1.4-0.2,2.9-0.3,4.3-0.5
								c1.7-0.3,3.2-1.4,3.5-3.2c0.1-0.8,0.2-1.5,0.4-2.3c0.2-0.6,0.6-1.1,0.7-1.7c0.2-1.5,0.2-3.4-1.3-4.3c-0.5-0.3-0.8,0-1.1,0.2
								c-0.2-0.4-0.5-0.6-0.7-0.9c-0.3-0.5-0.4-1.2-1.2-1.1c0,0,0,0,0,0.1c-0.6-0.2-1.8-0.6-1.9,0.4c-0.4,0.1-0.6,0.4-0.9,0.5
								c-0.2-0.3,0.1-0.6,0-0.9c-0.1-0.1-0.2-0.2-0.3-0.3c-0.1-0.2,0-0.4-0.1-0.6c-0.1-0.1-0.4-0.2-0.5-0.2
								c-0.3-0.1-0.2-0.1-0.3-0.3c-0.1-0.3-0.1-0.3-0.4-0.5c-0.1,0-0.3-0.1-0.4-0.1c-0.1-0.1-0.2-0.3-0.3-0.4
								c-0.1-0.2-0.3-0.2-0.4-0.2C135.2,741.3,135.1,741.3,134.9,741.5"/>
						</defs>
						<clipPath id="SVGID_68_">
							<use xlink:href="#SVGID_67_"  style="overflow:visible;"/>
						</clipPath>
						
							<linearGradient id="SVGID_69_" gradientUnits="userSpaceOnUse" x1="-431.0294" y1="-575.7996" x2="-430.0294" y2="-575.7996" gradientTransform="matrix(-25.1069 0 0 25.1069 -10676.708 15207.291)">
							<stop  offset="0" style="stop-color:#C6C991"/>
							<stop  offset="0.5861" style="stop-color:#929F4C"/>
							<stop  offset="1" style="stop-color:#718638"/>
						</linearGradient>
						<rect x="119.9" y="741.3" class="st29" width="25.5" height="18.9"/>
					</g>
				</g>
			</g>
		</g>
	</g>
</g>
<g>
	<g>
		<g>
			<g>
				<g>
					<g>
						<defs>
							<rect id="SVGID_70_" x="-122.2" y="23.6" width="595.3" height="841.9"/>
						</defs>
						<clipPath id="SVGID_71_">
							<use xlink:href="#SVGID_70_"  style="overflow:visible;"/>
						</clipPath>
						<rect x="127.9" y="740.2" class="st30" width="0.3" height="17"/>
					</g>
				</g>
			</g>
		</g>
	</g>
	<g>
		<g>
			<g>
				<g>
					<g>
						<defs>
							<rect id="SVGID_72_" x="-122.2" y="23.6" width="595.3" height="841.9"/>
						</defs>
						<clipPath id="SVGID_73_">
							<use xlink:href="#SVGID_72_"  style="overflow:visible;"/>
						</clipPath>
						<rect x="61.5" y="742.1" class="st31" width="0.3" height="15.2"/>
					</g>
				</g>
			</g>
		</g>
	</g>
</g>
<g>
	<g>
		<g>
			<g>
				<g>
					<g>
						<defs>
							<path id="SVGID_74_" d="M275.2,746.5c-0.9,0.1-2.5,1-2.9,1.9c-0.3,0.8-0.1,1.7-0.7,2.4c-0.8,0.9-2,0.5-1.9,2.2l-0.8,1
								c-1,0-1,0.7-1.4,1.3c-0.8,1.1-3.2,3.1-2.5,4.6c0.5,0.9,2.4,1.5,3.2,2.5c1.6,2,2.3,4.2,5.2,4.3c1.8,0.1,3.5-0.1,5.3-0.3
								c1.8-0.2,3.6-0.3,5.5-0.3c4.3,0.2,8.6,1,13,0.5c3.5-0.4,6.7-1.9,10.2-1.5c1.7,0.2,4.4,1.4,6,0.5c0.5-0.3,0.8-1.1,0.9-1.6
								c0.6-1.9-0.3-2.5-0.9-4.1c-0.4-1.2-0.3-1.8-1.4-2.7c-0.8-0.7-1.9-1.4-2.9-1.9c-1.4-0.7-2.6-0.3-3.9-0.2c-0.3,0-0.6,0-0.9,0
								c-0.8,0-1.5,0-2.5,0.4c-1.1,0.5-0.4,0.4-1.4,0.1c-0.8-0.2-1.1-0.6-2-0.5c-1.9,0.1-2.9,1.7-4.3,2.6c0.1-1-0.8-0.9-1.7-0.8
								c-0.4,0.1-0.8,0.1-1,0.1c-0.3-1.6,0.6-3.5,0.3-5.2c-0.3-1.8-4-3.8-5.2-1.9c-1.8-0.7-3.3,2-4.2,3c-0.9-0.1-0.7-1.1-1.1-1.8
								c-0.6-1.2-2-1.5-3.2-1.5c-0.3-1.9,0-3-1.8-3C275.7,746.5,275.5,746.5,275.2,746.5"/>
						</defs>
						<clipPath id="SVGID_75_">
							<use xlink:href="#SVGID_74_"  style="overflow:visible;"/>
						</clipPath>
						
							<linearGradient id="SVGID_76_" gradientUnits="userSpaceOnUse" x1="-420.9918" y1="-582.836" x2="-419.9918" y2="-582.836" gradientTransform="matrix(-33.5494 10.281 10.281 33.5494 -7814.0454 24630.0625)">
							<stop  offset="0" style="stop-color:#C9B92E"/>
							<stop  offset="0.619" style="stop-color:#7A8536"/>
							<stop  offset="1" style="stop-color:#4F6B31"/>
						</linearGradient>
						<polygon class="st32" points="310.5,732.3 258.6,748.2 268.6,781.1 320.6,765.2 						"/>
					</g>
				</g>
			</g>
		</g>
	</g>
</g>
<g>
	<g>
		<g>
			<g>
				<g>
					<g>
						<defs>
							<path id="SVGID_77_" d="M270.1,754.5l-2,3.7c-0.4,4.2,5.8,6.4,9,7c3.7,0.7,7.4,0,11-0.6c2.7-0.5,5.5-0.9,8.3-0.8
								c2.4,0.1,4.8,0.3,7,1c0.4,0.1,0.8,0.3,1.2,0.4c0.1,0,0.4,0.1,0.5,0.1c0.4-1.1,0.1-2.6-0.8-3.4c-0.7-0.7-1.6-0.6-2.4-1
								c-0.8-0.4-1.1-0.9-2-1c-1.5-0.2-2.8,0.6-3.8,1.4c-1.1-2.1-3.6-2.3-5.7-2.6c-2.8-0.4-0.5-2.5-1-4.2c-0.2-0.8-1-2.4-1.8-2.7
								c-1.4-0.5-3.1,1.1-3.7,2.1c-0.5,0.8-0.5,0.7-0.1,1.5s0.7,0.9,0.5,1.8c-0.2,0.6-1.1,1.6-1.7,1.8c-0.6-1.8-0.9-3.2-2.7-4.4
								c-0.6-0.4-2.8-2.1-2.4-0.1c-0.2-0.7-0.6-1.1-0.9-1.6c-0.4-0.7-0.3-1.4-1.1-2c-0.4-0.3-0.8-0.4-1.2-0.4
								C272.5,750.5,271,753.2,270.1,754.5"/>
						</defs>
						<clipPath id="SVGID_78_">
							<use xlink:href="#SVGID_77_"  style="overflow:visible;"/>
						</clipPath>
						
							<linearGradient id="SVGID_79_" gradientUnits="userSpaceOnUse" x1="-427.197" y1="-585.5325" x2="-426.197" y2="-585.5325" gradientTransform="matrix(-37.1387 0 0 37.1387 -15560.334 22504.0664)">
							<stop  offset="0" style="stop-color:#4F6B31"/>
							<stop  offset="1" style="stop-color:#46602C"/>
						</linearGradient>
						<rect x="267.7" y="750.5" class="st33" width="37.9" height="15.3"/>
					</g>
				</g>
			</g>
		</g>
	</g>
</g>
<g>
	<g>
		<g>
			<g>
				<g>
					<g>
						<defs>
							<path id="SVGID_80_" d="M266.4,751.9c-0.8,0.7-0.8,1.7-1.2,2.6c-0.5,1.1-1.2,1.7-1.3,3c-1.4-0.1-1.7,1.4-1.6,2.5v1
								c-0.1,1.4,1.2,1.1,2.2,1.1c2.7,0,6.1,1,8.7,0.3c1.3-0.4,1.4-1.1,1-2.4c-0.1-0.3-0.4-0.5-0.5-0.8s0.1-0.7,0-1
								c-0.3-1.1-1-1.2-1.9-1.5c0.1-2.2,0-4.1-2.6-4.4c0.1-0.8-0.3-1.1-0.9-1.1S266.8,751.6,266.4,751.9"/>
						</defs>
						<clipPath id="SVGID_81_">
							<use xlink:href="#SVGID_80_"  style="overflow:visible;"/>
						</clipPath>
						
							<linearGradient id="SVGID_82_" gradientUnits="userSpaceOnUse" x1="-426.2364" y1="-515.4015" x2="-425.2364" y2="-515.4015" gradientTransform="matrix(-8.5432 2.618 2.618 8.5432 -2017.156 6274.1738)">
							<stop  offset="0" style="stop-color:#C9B92E"/>
							<stop  offset="0.619" style="stop-color:#7A8536"/>
							<stop  offset="1" style="stop-color:#4F6B31"/>
						</linearGradient>
						<polygon class="st34" points="273.6,747.7 258.9,752.2 263.3,766.5 278,762 						"/>
					</g>
				</g>
			</g>
		</g>
	</g>
</g>
<g>
	<g>
		<g>
			<g>
				<g>
					<g>
						<defs>
							<rect id="SVGID_83_" x="-122.2" y="23.6" width="595.3" height="841.9"/>
						</defs>
						<clipPath id="SVGID_84_">
							<use xlink:href="#SVGID_83_"  style="overflow:visible;"/>
						</clipPath>
						<path class="st35" d="M221.1,758.3c0.2-1.8,1.9-2.8,2.5-4.4l1.4-1.9c-0.2-1.3,1-2.5,2.1-2.9c1.6-0.5,2.5,0.1,3.4,1.4
							c0.7-0.5,1.5-0.6,2.3-0.9c1.4-0.5,4.6-1.5,5.8,0.3c0.4,0.7,0.1,1.5,0.2,2.2c0.2,0.9,1,1.6,1,2.6c1.1-0.9,2.8,0.7,3.8,1.2
							c0.1-0.9,0-1.6,0.6-2.4c0.7-1,2.3-1.6,3.4-1c-1.2-1.3-0.1-3,1.2-3.8c0.9-0.6,2.3-1.2,3.5-1c0.7,0.1,0.4,0.2,0.9,0.6
							c1.1,0.8,2.8,1,3.4,2.6c0.3,0.8,0.4,2.7,0.1,3.5c0.7,0.4,1.6,1.7,1.7,2.6c2.1,0,2.6,3.6,1.3,4.7c-3.5,2.8-9.2,1.6-13.3,1.3
							c-4.1-0.2-8.2,0.6-12.3,0.7c-3.1,0.1-6.5,0.3-9.4-0.9C222.8,761.9,220.9,760.6,221.1,758.3"/>
					</g>
				</g>
			</g>
		</g>
	</g>
	<g>
		<g>
			<g>
				<g>
					<g>
						<defs>
							<rect id="SVGID_85_" x="-122.2" y="23.6" width="595.3" height="841.9"/>
						</defs>
						<clipPath id="SVGID_86_">
							<use xlink:href="#SVGID_85_"  style="overflow:visible;"/>
						</clipPath>
						<path class="st36" d="M224.1,755.4l2.2-2.9c0.4-0.6,2.8-2.7,3.2-0.9c1.5-0.1,3.2,1.3,3.3,2.8c1.6,0.4,2.3,1.3,2.2,2.8
							c0.3-0.3,0.8-1.4,0.5-2c-0.2-0.4-0.9-0.5-1.2-0.9c-0.1-0.2-0.1-0.6-0.2-0.9c-0.2-0.4-0.9-0.6-1.1-0.8c-0.4-0.6-0.5-1.5,0.2-2
							c0.4-0.3,1.5-0.4,2-0.5c0.9-0.1,1.7,0,2,0.9c0.1,0.3-0.1,0.6,0,0.9c0.2,0.5,0.8,1,1,1.6c0.2,0.6,0.2,1.3,0.2,1.9
							c0.7,0.3,1.5,0.3,2,1c0.3,0.4,0.2,1,0.4,1.4c0.1,0.2,0.5,0.2,0.7,0.4s0.3,0.5,0.3,0.8c0.1,0.5,0.2,1.1,0.3,1.5
							c0.4-0.9,0.2-1.8-0.1-2.7c-0.2-0.6,0-0.6-0.4-1c-0.3-0.3-0.6-0.3-0.9-0.6c1.9-0.5,1.9,2.5,3.8,0.7c0.7-0.7,0.3-0.4,0.4-1.2
							c0.1-0.8,0.3-0.8,0.9-1.4c0.7-0.8,1.1-0.9,2.2-0.4c1.2,0.6,2.7,1.1,3.5,2.3c0-0.8-0.2-2.3-0.9-2.8c-0.4-0.3-0.9-0.1-1.4-0.6
							c-0.1-0.1-0.7-1.2-0.7-1.3c-0.1-0.8,1.2-1.4,1.8-1.6c2.7-0.9,5.6,1.1,5.3,3.8c-1.5-0.4-2.1-1.8-3.8-1.7
							c-0.1,1,2.6,1.6,2.9,2.8c0.1,0.3-0.1,0.8,0,1.1c0.2,0.3,1,0.3,1.3,0.6c0.4,0.4,0.3,0.9,0.8,1.3c0.7,0.6,1.3,0.8,1.5,1.7
							c0.2,1-0.5,2.1-0.8,3.1c-4.5,0.2-8.9-0.2-13.4-0.1c-3.4,0-6.7,0.5-10.1,0.5c-2.7,0-5.8,0.2-8.4-0.6c-1.9-0.6-2.2-1.5-2.2-3.4
							C223.5,757.9,223.3,756.4,224.1,755.4"/>
					</g>
				</g>
			</g>
		</g>
	</g>
</g>
<g>
	<g>
		<g>
			<g>
				<g>
					<g>
						<defs>
							<path id="SVGID_87_" d="M216.3,747.9c-0.2,0.2-0.5,0.6-0.7,0.7c-0.7,0.6-1.5,0.8-1.7,1.7c-0.1,0.6,0,1.3,0.5,1.7l-0.3,0.6
								c-0.3,0.1-1,0.8-1.3,1.2c-0.2,0.3-0.1,0.7-0.3,1.1c-0.1,0.2-0.4,0.3-0.5,0.5c-0.8,1.2-0.7,2.7,0.5,3.6
								c0.6,0.4,0.9,0.4,1.1,0.9c0.3,0.6,0,1.1,0.5,1.7c1.3,1.5,3.3,0.6,4.8,0.5c0.6,0,1.3,0.2,2,0.4c1.4,0.5,2.8,0.9,3.9-0.6
								c1,0.3,2.5,0.6,3.3-0.3c0.3-0.3,0.2-0.8,0.4-1c0.3-0.3,0.6-0.3,0.9-0.7c0.1-0.1-0.1-0.5,0-0.6c0.1-0.2,0.3-0.3,0.4-0.4
								c0.8-1.1,1.6-1.7,1.1-3.2c-0.1-0.4-0.4-1-0.6-1.4c-0.3-0.6-0.7-1.4-1.5-0.8c-0.5-0.9-1.1-1.6-1.2-2.5c-0.1-1-0.2-2-1.3-2.5
								c-0.3-0.1-0.5-0.1-0.8,0c-0.2,0-0.4,0-0.5,0s-0.4-0.3-0.6-0.4c-0.7-0.2-1.7-0.1-1.9,0.8c-0.4-0.6-1.3-1-2.1-1
								c0.1-0.8-0.5-1.1-1.3-1.1C218.1,747,216.8,747.6,216.3,747.9"/>
						</defs>
						<clipPath id="SVGID_88_">
							<use xlink:href="#SVGID_87_"  style="overflow:visible;"/>
						</clipPath>
						
							<linearGradient id="SVGID_89_" gradientUnits="userSpaceOnUse" x1="-434.5368" y1="-566.8815" x2="-433.5368" y2="-566.8815" gradientTransform="matrix(-19.3652 0 0 19.3652 -8184.127 11732.9746)">
							<stop  offset="0" style="stop-color:#979E38"/>
							<stop  offset="0.9761" style="stop-color:#5C7936"/>
							<stop  offset="1" style="stop-color:#5A7836"/>
						</linearGradient>
						<rect x="211.1" y="747" class="st37" width="20.1" height="16.4"/>
					</g>
				</g>
			</g>
		</g>
	</g>
</g>
<g>
	<g>
		<g>
			<g>
				<g>
					<g>
						<defs>
							<rect id="SVGID_90_" x="-122.2" y="23.6" width="595.3" height="841.9"/>
						</defs>
						<clipPath id="SVGID_91_">
							<use xlink:href="#SVGID_90_"  style="overflow:visible;"/>
						</clipPath>
						<path class="st38" d="M167,745.8c0-1,0.7-1.6,1.3-2.3c0.2-0.3,0.3-0.6,0.6-0.8c0.2-0.1,0.5-0.1,0.6-0.2c0.6-0.5,1-1.3,2.2-1.3
							c0.8,0,1.2,0.3,1.8,0.6c0.4,0.2,0.5,0.2,0.9,0.4c1,0.4,2,0.7,2.5,1.8c0.1,0.2,0.1,0.6,0.2,0.8c0.1,0.2,0.5,0.2,0.6,0.3
							c0.2,0.4,0,1,0,1.4c0.4,0.1,1.1-0.1,1.5,0.1c0.6,0.4,0.5,1.6,1,2c0.7,0.5,2.1-0.2,2.9-0.2c0.8-0.1,1.6,0,2.3,0
							c0-0.6,0.2-1.3,0.3-2c0.3,0,0.7,0,1-0.2c0-0.6-0.2-1.8,0.3-2.3c0.4-0.5,1.1-0.4,1.6-0.5c-0.4-1.2-0.5-2.6,0.5-3.5
							c0.6-0.5,0.6-0.4,1-1.1c0.2-0.4,0.5-0.7,0.7-1c0.7-0.8,1.3-1.1,2.3-1.1c1.2-0.1,2.5,0.4,3,1.6c0.9-0.1,1.2-0.2,1.9,0.2
							c0.2,0.2,0.7,0.7,0.8,0.9c0.2,0.3,0.2,0.9,0.4,1.1c0.3,0.4,0.7,0.2,0.9,0.8c0.2,0.5,0,1.1,0.1,1.5c0.2,0.6,0.4,0.4,0.4,1.1
							c0,0.5,0.1,0.7,0.2,1.1c0,0.2-0.1,0.7,0,0.8c0.3,0.3,1.2,0,1.6,0.2c0.7,0.2,1.4,1,1.6,1.6l0.9,2.1c0,0.4,0.3,1.4,0.1,1.8
							c-0.3,0.5-1.9,0.2-2.4,0.2c-6.8,0-13.7,0.1-20.6-0.1c-2.3-0.1-4.7-0.1-6.9-0.7c-1.5-0.4-2.8-0.9-4.3-1
							c-1.3-0.1-2.5,0.1-3.2-1.1c-0.4-0.6-0.1-1-0.3-1.6C167.4,746.7,167.1,746.5,167,745.8"/>
					</g>
				</g>
			</g>
		</g>
	</g>
	<g>
		<g>
			<g>
				<g>
					<g>
						<defs>
							<rect id="SVGID_92_" x="-122.2" y="23.6" width="595.3" height="841.9"/>
						</defs>
						<clipPath id="SVGID_93_">
							<use xlink:href="#SVGID_92_"  style="overflow:visible;"/>
						</clipPath>
						<path class="st39" d="M188.5,746c-1.4-1.8-0.4-1.7,1.2-1.8c0-1,0.3-1.9,0.5-2.7c0.1-0.3-0.1-0.6,0-0.9
							c0.2-0.7,0.7-0.7,1.1-1.1c0.1-0.1,0.1-0.5,0.2-0.5c0.5-0.4,1-0.3,1.5-0.3c0.3,0,0.8-0.1,1.1,0.1s0.4,0.7,0.6,0.9
							c0.5,0.4,1.1,0.1,1.7,0.2c2.1,0.3,2.2,1.8,2.6,3.4c-1.4-0.9-2.7-2.7-4.6-2.2c-0.4,0.1-0.6,0.4-0.8,0.5c-0.3,0.1-0.6-0.1-0.9,0
							c-0.5,0.2-0.6,0.9-0.7,1.4c1.9-0.7,2.6-1.1,4.5-0.2c1.2,0.6,2.2,1.7,2.6,2.9c-1.4-0.1-2.4-1-3.5,0.3c0.8,0,1.7-0.2,2.4,0
							c0.4,0.1,0.7,0.4,1.1,0.5c0.9,0.2,1.6-0.2,2.4,0.5c0.3,0.3,0.7,0.7,0.7,1.2c-0.1,1.5-2.9,0.2-3.9,0.1
							c-1.9-0.2-3.7,0.4-5.6,0.5c-1.8,0.1-3.7-0.1-5.5-0.1v-0.5C187.2,747.3,187.6,746.1,188.5,746"/>
					</g>
				</g>
			</g>
		</g>
	</g>
	<g>
		<g>
			<g>
				<g>
					<g>
						<defs>
							<rect id="SVGID_94_" x="-122.2" y="23.6" width="595.3" height="841.9"/>
						</defs>
						<clipPath id="SVGID_95_">
							<use xlink:href="#SVGID_94_"  style="overflow:visible;"/>
						</clipPath>
						<path class="st40" d="M169.7,744.5c0.2-0.3,0.4-0.3,0.6-0.5c0.2-0.3,0.1-0.6,0.4-0.8c0.3-0.2,1.4-0.4,1.8-0.4
							c0.8,0,1.6,0.6,2.3,1c1.1,0.7,2.1,1.2,1.3,2.6c-1.7-1-2.7-1.5-4.7-1c-0.8,0.2-1.5,0.3-2.3,0.3l-0.6-0.1
							C168.3,744.8,168.9,744.2,169.7,744.5"/>
					</g>
				</g>
			</g>
		</g>
	</g>
</g>
<g>
	<g>
		<g>
			<g>
				<g>
					<g>
						<defs>
							<path id="SVGID_96_" d="M149.8,740.8c-0.7,0.5-0.8,1-0.8,1.8c-0.4,0-1.7-0.1-1.7,0.6c-0.8,0.1-1.1,0.7-1.1,1.4
								c-0.8,0.3-1.2,1.1-0.5,1.7c0.4,0.4,0.4,0.3,0.5,0.8c-0.4-0.1-1.4,0.1-1.3,0.6c-0.8-0.8-3.1,0.8-3.4,2.8l-1.5,1.2
								c-1.2,0.8,1.6,2.3,2.2,3.1c0.2,0.3,0.4,0.6,0.5,0.9c0,0.3-0.1,0.6-0.1,0.9c0,1.5,2.3,1.8,3.5,1.8c0.3,0,0.6,0,0.9,0
								c0.6,0,1.1-0.1,1.6,0.1c0.7,0.3,1.3,0.8,2.1,1c0.9,0.2,1.9,0.2,2.8,0.1c0.8-0.1,1.8-0.1,2.5-0.6c0.1-0.1,0.3-0.4,0.4-0.5
								c0.3-0.2,1.1-0.1,1.4-0.2c0.6-0.2,1.2-0.4,1.8-0.8c0.3-0.2,0.8-0.7,0.7-1.1c0.7-0.5,1.6-0.7,2.1-1.4c0.4-0.6,0.3-1.4,0.1-2
								c-0.2-0.4-0.5-0.8-0.3-1.2c0.2-0.5,0.9-0.7,1.1-1.2c0.3-0.7-0.1-1.5-0.2-2.2c-0.1-0.6-0.3-1.1-1-1.2c-0.4-0.1-1-0.1-1.3,0.2
								c-0.2-0.7-1.9-0.2-2.2,0.2c0.1-0.3,0.1-0.7,0-0.9c-0.2-0.8-0.8-0.8-1.4-1c0-1.1-1.7-0.6-2.3-0.3c0.1-0.6,0.2-1.1,0.1-1.7
								c-0.1-0.7-0.6-0.9-1-1.3c0.6-0.5,0.1-1.3-0.5-1.5c-0.5-0.2-1.1-0.1-1.6-0.3c-0.2-0.1-0.4-0.1-0.6-0.1
								C150.5,740.4,150.2,740.6,149.8,740.8"/>
						</defs>
						<clipPath id="SVGID_97_">
							<use xlink:href="#SVGID_96_"  style="overflow:visible;"/>
						</clipPath>
						
							<linearGradient id="SVGID_98_" gradientUnits="userSpaceOnUse" x1="-432.1704" y1="-572.9016" x2="-431.1703" y2="-572.9016" gradientTransform="matrix(-22.8984 0 0 22.8984 -9733.2158 13868.6279)">
							<stop  offset="0" style="stop-color:#C6C991"/>
							<stop  offset="0.619" style="stop-color:#9AA650"/>
							<stop  offset="1" style="stop-color:#7E933A"/>
						</linearGradient>
						<rect x="138.7" y="740.4" class="st41" width="24.4" height="19.4"/>
					</g>
				</g>
			</g>
		</g>
	</g>
</g>
<g>
	<g>
		<g>
			<g>
				<g>
					<g>
						<defs>
							<rect id="SVGID_99_" x="-122.2" y="23.6" width="595.3" height="841.9"/>
						</defs>
						<clipPath id="SVGID_100_">
							<use xlink:href="#SVGID_99_"  style="overflow:visible;"/>
						</clipPath>
						<rect x="297.1" y="749.7" class="st42" width="0.9" height="4.9"/>
					</g>
				</g>
			</g>
		</g>
	</g>
	<g>
		<g>
			<g>
				<g>
					<g>
						<defs>
							<rect id="SVGID_101_" x="-122.2" y="23.6" width="595.3" height="841.9"/>
						</defs>
						<clipPath id="SVGID_102_">
							<use xlink:href="#SVGID_101_"  style="overflow:visible;"/>
						</clipPath>
						<polygon class="st43" points="297.1,752.9 297.1,754.6 295.8,752.9 						"/>
					</g>
				</g>
			</g>
		</g>
	</g>
	<g>
		<g>
			<g>
				<g>
					<g>
						<defs>
							<rect id="SVGID_103_" x="-122.2" y="23.6" width="595.3" height="841.9"/>
						</defs>
						<clipPath id="SVGID_104_">
							<use xlink:href="#SVGID_103_"  style="overflow:visible;"/>
						</clipPath>
						<rect x="218.2" y="740.2" class="st44" width="0.3" height="17"/>
					</g>
				</g>
			</g>
		</g>
	</g>
</g>
<g>
	<g>
		<g>
			<g>
				<g>
					<g>
						<defs>
							<path id="SVGID_105_" d="M208.5,750c-1.3,0.1-1.8,0.4-2.5,1.4l-1.2,1.8c-0.1-0.2-0.2-0.2-0.4-0.2c-0.6,0.9-1,1.7-1.3,2.6
								c-0.3,1.1-1.3,2.5-0.8,3.6c0.7,1.8,3.5,1.4,5,1.9c1.6,0.6,2.9,1.1,4.6,1.2c1.5,0.1,4.9,0.7,6.2-0.7c0.5-0.6,0.1-1,0.5-1.6
								c0.4-0.7,1.5-0.4,1.3-1.5c2-0.5,0.3-3.1-0.3-4c-0.3-0.5-0.4-1-0.7-1.5c-0.3-0.6-2-1.5-2.3-0.9c-0.3-1.4-2-1.2-3.1-0.7
								c-0.6,0.3-0.9,1-1.7,0.5l-0.2-0.7c-0.3-0.4-0.7-0.8-1.1-1.1c-0.4-0.2-0.7-0.2-1-0.2C208.9,750,208.7,750,208.5,750"/>
						</defs>
						<clipPath id="SVGID_106_">
							<use xlink:href="#SVGID_105_"  style="overflow:visible;"/>
						</clipPath>
						
							<linearGradient id="SVGID_107_" gradientUnits="userSpaceOnUse" x1="-423.7477" y1="-547.3641" x2="-422.7477" y2="-547.3641" gradientTransform="matrix(-13.2176 4.0505 4.0505 13.2176 -3161.2715 9704.4111)">
							<stop  offset="0" style="stop-color:#C9B92E"/>
							<stop  offset="0.619" style="stop-color:#7A8536"/>
							<stop  offset="1" style="stop-color:#4F6B31"/>
						</linearGradient>
						<polygon class="st45" points="220,744.4 198.1,751.1 203.5,768.6 225.3,761.9 						"/>
					</g>
				</g>
			</g>
		</g>
	</g>
</g>
<g>
	<g>
		<g>
			<g>
				<g>
					<g>
						<defs>
							<path id="SVGID_108_" d="M23.1,731.7c-1.2,0.5-2.4,1-3.6,1.6c-1.6,0.7-2.1,1.6-2.7,3.2c-0.3,0.8,0.2,0.3-0.8,0.8
								c-0.7,0.3-1.5,0.3-2,1c-0.7,0.9,0.1,1.3,0.2,2.1c0.1,0.4-0.2,0.5,0,1c0.1,0.3,0.5,0.5,0.6,0.8c0.5,0.8,0.6,0.1-0.1,1
								c-0.3,0.4-0.7,0.5-0.4,1.2c0.5,1.3,2.4,0.9,3.1,1.8c0.4,0.5,0,0.6-0.4,1.2c-0.9,1.3-0.8,2.1,1,2.4c-1.8,0.8-4.5,1.4-5.2,3.5
								c-0.1,0.3,0,0.7-0.1,1c-0.2,0.5-0.6,0.9-0.6,1.5c0,0.4,0.4,0.6,0.3,0.9c-0.1,0.5-0.5,0.5-0.7,0.9c-0.7,1-0.5,1.1-0.2,2.1
								c0.3,1.3,1.3,1.9,2.3,2.9c1.9,1.7,5.2,1.3,7.8,1.5c3.2,0.2,6.4,0.7,9.6,0.4c2.9-0.3,5.9-0.2,8.8-0.5c1.8-0.2,3.5-0.1,4.5-1.9
								c0.3-0.5,0.3-1.1,0.8-1.4c0.2-0.1,0.5-0.1,0.9-0.1s0.7,0,1-0.2c0.1-0.1,0.3-0.5,0.5-0.6c0.5-0.4,1.3-0.5,1.6-1.2
								c0.4-0.9-0.2-2.2-0.5-3c-0.5-1.5-1.3-2.3-2.9-2.3c-1.1,0-2.8,0.4-2-0.8c0.4-0.5,1.7-0.8,2.2-1.3c0.4-0.4,0.8-0.9,1-1.5
								c0.1-0.3,0.2-0.5,0.1-0.8c-0.3-1.3-2.1-2.1-3.2-1.6c-0.4-1.5-2.4,0.1-3,0.5c-0.3-1-1-0.6-0.7-1.6c0.2-0.7,1.1-1.3,1.4-2.1
								c0.1-0.3,0.2-0.7,0.2-1.1c0-0.5,0.3-0.5,0-1c-0.4-0.6-1.9-0.6-2.8-0.6c-0.3,0-0.5,0-0.6,0c0-0.8,1.5-0.8,2.5-0.7
								c0.3,0,0.6,0,0.8,0c-0.2-0.2-0.2-0.7-0.4-0.9c-0.9-0.9-2.7-0.7-3.9-0.9c0.7-1,1.4-2.4,0.5-3.7c-1.2-1.8-4.8-0.9-6.4-0.2
								c0.2-1.2-1.7-1.9-2.6-1.9c0.2,0-0.5-1.2-0.6-1.3c-0.4-0.4-0.9-0.5-1.4-0.6c-0.2,0-0.4,0-0.6,0
								C25.2,731,24.1,731.3,23.1,731.7"/>
						</defs>
						<clipPath id="SVGID_109_">
							<use xlink:href="#SVGID_108_"  style="overflow:visible;"/>
						</clipPath>
						
							<linearGradient id="SVGID_110_" gradientUnits="userSpaceOnUse" x1="-421.4287" y1="-577.2158" x2="-420.4287" y2="-577.2158" gradientTransform="matrix(-26.9729 8.2657 8.2657 26.9729 -6544.7368 19794.0117)">
							<stop  offset="0" style="stop-color:#C9B92E"/>
							<stop  offset="0.619" style="stop-color:#7A8536"/>
							<stop  offset="1" style="stop-color:#4F6B31"/>
						</linearGradient>
						<polygon class="st46" points="46.4,720.2 1.6,733.9 14.4,775.5 59.1,761.8 						"/>
					</g>
				</g>
			</g>
		</g>
	</g>
</g>
<g>
	<g>
		<g>
			<g>
				<g>
					<g>
						<defs>
							<rect id="SVGID_111_" x="-122.2" y="23.6" width="595.3" height="841.9"/>
						</defs>
						<clipPath id="SVGID_112_">
							<use xlink:href="#SVGID_111_"  style="overflow:visible;"/>
						</clipPath>
						<rect x="-8.9" y="745.2" class="st47" width="0.3" height="17.3"/>
					</g>
				</g>
			</g>
		</g>
	</g>
	<g>
		<g>
			<g>
				<g>
					<g>
						<defs>
							<rect id="SVGID_113_" x="-122.2" y="23.6" width="595.3" height="841.9"/>
						</defs>
						<clipPath id="SVGID_114_">
							<use xlink:href="#SVGID_113_"  style="overflow:visible;"/>
						</clipPath>
						<rect x="-58.1" y="745.2" class="st48" width="0.3" height="18.6"/>
					</g>
				</g>
			</g>
		</g>
	</g>
</g>
<rect x="177.9" y="755" class="st49" width="30.1" height="9.6"/>
<rect x="177.9" y="755" class="st50" width="30.1" height="1"/>
<rect x="180.8" y="747.5" class="st51" width="27.7" height="7.7"/>
<rect x="154.7" y="752.9" class="st49" width="26.7" height="9.6"/>
<rect x="154.7" y="752.9" class="st50" width="26.7" height="1"/>
<polygon class="st52" points="153.7,753 180.9,753 180.9,744.7 161.9,744.7 "/>
<rect x="180" y="744.9" class="st53" width="0.8" height="7.9"/>
<rect x="180.8" y="744.3" class="st54" width="0.7" height="8.9"/>
<g>
	<g>
		<g>
			<g>
				<g>
					<g>
						<defs>
							<path id="SVGID_115_" d="M162.5,749.2c-0.9-1.1-1.5,0.8-1.8,1.5c-0.2-0.5-0.9-0.6-1.4-0.4c-0.6,0.3-0.4,0.9-0.4,1.5
								c-0.6,0-0.8,0.1-0.9,0.8c0,0.2,0.1,0.3-0.1,0.5c-0.1,0-0.1,0-0.2-0.1c-0.1,0-0.1-0.1-0.1-0.1c-0.6,0.1-0.5,0.8-0.8,1.2
								c-0.2,0.4-0.5,0.4-0.5,1c0,0.7,0.3,0.9,0.9,1.1c0,0.5-0.4,1.3,0.4,1.5c-0.1,0.6,0.2,0.6,0.5,0.6c0.1,0,0.3,0,0.4,0
								c0.3,0.1,0.6,0.6,0.7,0.9l0.4,0.7c0.3,0.4,0.8,0.5,1.2,0.7c0.5,0.1,0.9,0.3,1.4,0.4c0.4,0,0.9,0,1.3-0.1
								c0.3-0.1,0.7-0.4,1-0.5c0.4,0,0.7,0.3,1.1,0.4c0.8,0.3,1.8,0.2,2.4-0.4l0.2-0.4c0.2-0.1,0.8-0.1,1-0.1
								c1.2-0.2,2.6-1.1,1.9-2.4c0.9-0.5,1.5-1.6,0.4-2.3c0.2-0.4-0.2-1.2-0.3-1.6c-0.3-1.1-1.1-0.6-1.9-0.5c-0.1-0.2,0-0.3-0.1-0.5
								c-0.1-0.3-0.2-0.6-0.4-0.8s-0.5-0.2-0.6-0.4c-0.2-0.2-0.1-0.5-0.3-0.7c-0.3-0.3-0.7-0.3-1.1-0.3h-0.1
								c0.1-1.3-1.1-0.4-1.8-0.3c-0.1-0.6,0.2-0.8-0.4-1.2c-0.3-0.2-0.6-0.3-0.9-0.3C163.1,748.4,162.7,748.7,162.5,749.2"/>
						</defs>
						<clipPath id="SVGID_116_">
							<use xlink:href="#SVGID_115_"  style="overflow:visible;"/>
						</clipPath>
						
							<linearGradient id="SVGID_117_" gradientUnits="userSpaceOnUse" x1="-438.1559" y1="-557.6978" x2="-437.1559" y2="-557.6978" gradientTransform="matrix(-15.668 0 0 15.668 -6693.0957 9492.6094)">
							<stop  offset="0" style="stop-color:#979E38"/>
							<stop  offset="0.9761" style="stop-color:#5C7936"/>
							<stop  offset="1" style="stop-color:#5A7836"/>
						</linearGradient>
						<rect x="156.2" y="748.2" class="st55" width="16.3" height="12.8"/>
					</g>
				</g>
			</g>
		</g>
	</g>
</g>
<g>
	<g>
		<g>
			<g>
				<g>
					<g>
						<defs>
							<path id="SVGID_118_" d="M134.9,747.9c-0.1-0.1-0.3-0.7-0.5-0.8c-0.6-0.2-1.6,0.8-1.8,1.2c-0.6,0.9-0.3,1.9-0.8,2.7
								c0,0-0.1,0-0.2,0h-0.1c0,0.1,0,0.3,0,0.4c-1-1.4-1.7,1.4-2.1,1.8c-0.4,0.4-0.7,0.3-0.9,1c-0.2,0.5,0,1.2,0.1,1.7l0.3,2.9
								c0.7,0,1.3,0.1,2,0.2c1.8,0.3,3.8,0.5,5.6,0.2c0.9-0.2,1.6-0.4,2.5-0.4c1.5-0.1,3.1,0.2,4.7,0.4c1.9,0.3,3.8,0.5,5.7,0.3
								c1.2-0.2,1.8-1.4,0.5-2.1c0.9-0.7,0.7-1.5-0.1-2.3c0.3-1.2-4.4-4.7-5-3.4c-0.1-1.4-2.4,0.4-2.9,0.5c-0.8-0.8-0.1-1.4-0.2-2.2
								c-0.1-1.3-1.6-2.2-2.7-2.6c-0.2-0.1-1.2-0.2-2.2-0.2C135.8,747,134.8,747.2,134.9,747.9"/>
						</defs>
						<clipPath id="SVGID_119_">
							<use xlink:href="#SVGID_118_"  style="overflow:visible;"/>
						</clipPath>
						
							<linearGradient id="SVGID_120_" gradientUnits="userSpaceOnUse" x1="-432.5968" y1="-571.8157" x2="-431.5968" y2="-571.8157" gradientTransform="matrix(-22.1694 0 0 22.1694 -9439.7861 13430.1602)">
							<stop  offset="0" style="stop-color:#688139"/>
							<stop  offset="0.2184" style="stop-color:#5F7935"/>
							<stop  offset="0.6925" style="stop-color:#516C31"/>
							<stop  offset="1" style="stop-color:#4B6730"/>
						</linearGradient>
						<rect x="128.3" y="747" class="st56" width="22.9" height="12.7"/>
					</g>
				</g>
			</g>
		</g>
	</g>
</g>
<g>
	<g>
		<g>
			<g>
				<g>
					<g>
						<defs>
							<rect id="SVGID_121_" x="-122.2" y="23.6" width="595.3" height="841.9"/>
						</defs>
						<clipPath id="SVGID_122_">
							<use xlink:href="#SVGID_121_"  style="overflow:visible;"/>
						</clipPath>
						<path class="st57" d="M92.3,740.1c0-0.5-0.4-0.4-0.4-0.9s0.5-0.5,0.6-0.8c0.2-0.4-0.1-0.9,0.3-1.2c0.4-0.3,0.7-0.2,1.1-0.5
							c0.6-0.5,1-1,1.8-0.9c0.8,0.1,0.5,0.7,1,1s1.2-0.4,1.8-0.3c0.7,0.1,0.6,0.5,0.9,1c0.1,0.1,0,0.3,0.1,0.4
							c0.4,0.4,1.4,0.5,1.9,0.8s0.4,0.5,0.7,0.8c0.5,0.4,1,0.1,1.3,0.7c0.2,0.3,0.1,0.8,0.1,1.2c0,0.6,0.1,1-0.4,1.3
							c-1,0.6-3.4-0.6-4.4-0.7c-1.9-0.3-3.8,0.2-5.7,0.2c-0.7,0-1.3,0-2,0v-0.9C91,740.6,91.5,740,92.3,740.1"/>
					</g>
				</g>
			</g>
		</g>
	</g>
	<g>
		<g>
			<g>
				<g>
					<g>
						<defs>
							<rect id="SVGID_123_" x="-122.2" y="23.6" width="595.3" height="841.9"/>
						</defs>
						<clipPath id="SVGID_124_">
							<use xlink:href="#SVGID_123_"  style="overflow:visible;"/>
						</clipPath>
						<path class="st58" d="M93.4,740.4c0-0.4-0.1-1-0.1-1.3c-0.1-1.1-0.1-1,0.7-1.5c0.4-0.2,0.8-0.8,1.4-0.5
							c0.3,0.1,0.2,0.4,0.5,0.6c0.4,0.2,0.6,0.1,1,0.1c0.3,0,1.1-0.3,1.3-0.1c0.3,0.2,0.1,0.6,0.3,0.8c0.5,0.9,1.7,0.4,2.4,1.1
							c0.2,0.2,0.1,0.4,0.4,0.6c0.3,0.2,0.9,0.2,1.1,0.6c0.3,0.5-0.2,1-0.4,1.4c-2.3-0.1-4.5-0.7-6.8-0.7c-0.7,0-1.6-0.2-2.3,0.1
							l-0.7-0.4C92.7,740.8,93,740.5,93.4,740.4"/>
					</g>
				</g>
			</g>
		</g>
	</g>
	<g>
		<g>
			<g>
				<g>
					<g>
						<defs>
							<rect id="SVGID_125_" x="-122.2" y="23.6" width="595.3" height="841.9"/>
						</defs>
						<clipPath id="SVGID_126_">
							<use xlink:href="#SVGID_125_"  style="overflow:visible;"/>
						</clipPath>
						<rect x="86.1" y="750.6" class="st59" width="35.2" height="13.2"/>
					</g>
				</g>
			</g>
		</g>
	</g>
	<g>
		<g>
			<g>
				<g>
					<g>
						<defs>
							<rect id="SVGID_127_" x="-122.2" y="23.6" width="595.3" height="841.9"/>
						</defs>
						<clipPath id="SVGID_128_">
							<use xlink:href="#SVGID_127_"  style="overflow:visible;"/>
						</clipPath>
						<rect x="86.1" y="750.6" class="st60" width="35.2" height="0.8"/>
					</g>
				</g>
			</g>
		</g>
	</g>
	<g>
		<g>
			<g>
				<g>
					<g>
						<defs>
							<rect id="SVGID_129_" x="-122.2" y="23.6" width="595.3" height="841.9"/>
						</defs>
						<clipPath id="SVGID_130_">
							<use xlink:href="#SVGID_129_"  style="overflow:visible;"/>
						</clipPath>
						<rect x="85.7" y="740.8" class="st61" width="36" height="9.9"/>
					</g>
				</g>
			</g>
		</g>
	</g>
	<g>
		<g>
			<g>
				<g>
					<g>
						<defs>
							<rect id="SVGID_131_" x="-122.2" y="23.6" width="595.3" height="841.9"/>
						</defs>
						<clipPath id="SVGID_132_">
							<use xlink:href="#SVGID_131_"  style="overflow:visible;"/>
						</clipPath>
						<rect x="108.2" y="740.7" class="st62" width="4" height="1.2"/>
					</g>
				</g>
			</g>
		</g>
	</g>
	<g>
		<g>
			<g>
				<g>
					<g>
						<defs>
							<rect id="SVGID_133_" x="-122.2" y="23.6" width="595.3" height="841.9"/>
						</defs>
						<clipPath id="SVGID_134_">
							<use xlink:href="#SVGID_133_"  style="overflow:visible;"/>
						</clipPath>
						<rect x="108.6" y="736.9" class="st63" width="3.2" height="4.6"/>
					</g>
				</g>
			</g>
		</g>
	</g>
	<g>
		<g>
			<g>
				<g>
					<g>
						<defs>
							<rect id="SVGID_135_" x="-122.2" y="23.6" width="595.3" height="841.9"/>
						</defs>
						<clipPath id="SVGID_136_">
							<use xlink:href="#SVGID_135_"  style="overflow:visible;"/>
						</clipPath>
						<rect x="115.1" y="750.7" class="st64" width="0.6" height="0.7"/>
					</g>
				</g>
			</g>
		</g>
	</g>
	<g>
		<g>
			<g>
				<g>
					<g>
						<defs>
							<rect id="SVGID_137_" x="-122.2" y="23.6" width="595.3" height="841.9"/>
						</defs>
						<clipPath id="SVGID_138_">
							<use xlink:href="#SVGID_137_"  style="overflow:visible;"/>
						</clipPath>
						<rect x="115.1" y="751.4" class="st65" width="0.6" height="1"/>
					</g>
				</g>
			</g>
		</g>
	</g>
	<g>
		<g>
			<g>
				<g>
					<g>
						<defs>
							<rect id="SVGID_139_" x="-122.2" y="23.6" width="595.3" height="841.9"/>
						</defs>
						<clipPath id="SVGID_140_">
							<use xlink:href="#SVGID_139_"  style="overflow:visible;"/>
						</clipPath>
						<rect x="114.1" y="750.7" class="st66" width="0.6" height="0.7"/>
					</g>
				</g>
			</g>
		</g>
	</g>
	<g>
		<g>
			<g>
				<g>
					<g>
						<defs>
							<rect id="SVGID_141_" x="-122.2" y="23.6" width="595.3" height="841.9"/>
						</defs>
						<clipPath id="SVGID_142_">
							<use xlink:href="#SVGID_141_"  style="overflow:visible;"/>
						</clipPath>
						<rect x="114.1" y="751.4" class="st67" width="0.6" height="1"/>
					</g>
				</g>
			</g>
		</g>
	</g>
	<g>
		<g>
			<g>
				<g>
					<g>
						<defs>
							<rect id="SVGID_143_" x="-122.2" y="23.6" width="595.3" height="841.9"/>
						</defs>
						<clipPath id="SVGID_144_">
							<use xlink:href="#SVGID_143_"  style="overflow:visible;"/>
						</clipPath>
						<rect x="113.2" y="750.7" class="st68" width="0.6" height="0.7"/>
					</g>
				</g>
			</g>
		</g>
	</g>
	<g>
		<g>
			<g>
				<g>
					<g>
						<defs>
							<rect id="SVGID_145_" x="-122.2" y="23.6" width="595.3" height="841.9"/>
						</defs>
						<clipPath id="SVGID_146_">
							<use xlink:href="#SVGID_145_"  style="overflow:visible;"/>
						</clipPath>
						<rect x="113.2" y="751.4" class="st69" width="0.6" height="1"/>
					</g>
				</g>
			</g>
		</g>
	</g>
	<g>
		<g>
			<g>
				<g>
					<g>
						<defs>
							<rect id="SVGID_147_" x="-122.2" y="23.6" width="595.3" height="841.9"/>
						</defs>
						<clipPath id="SVGID_148_">
							<use xlink:href="#SVGID_147_"  style="overflow:visible;"/>
						</clipPath>
						<rect x="115.1" y="755.6" class="st70" width="0.6" height="2.1"/>
					</g>
				</g>
			</g>
		</g>
	</g>
	<g>
		<g>
			<g>
				<g>
					<g>
						<defs>
							<rect id="SVGID_149_" x="-122.2" y="23.6" width="595.3" height="841.9"/>
						</defs>
						<clipPath id="SVGID_150_">
							<use xlink:href="#SVGID_149_"  style="overflow:visible;"/>
						</clipPath>
						<rect x="113.2" y="755.2" class="st71" width="2.5" height="0.4"/>
					</g>
				</g>
			</g>
		</g>
	</g>
	<g>
		<g>
			<g>
				<g>
					<g>
						<defs>
							<rect id="SVGID_151_" x="-122.2" y="23.6" width="595.3" height="841.9"/>
						</defs>
						<clipPath id="SVGID_152_">
							<use xlink:href="#SVGID_151_"  style="overflow:visible;"/>
						</clipPath>
						<rect x="114.1" y="755.6" class="st72" width="0.6" height="2.1"/>
					</g>
				</g>
			</g>
		</g>
	</g>
	<g>
		<g>
			<g>
				<g>
					<g>
						<defs>
							<rect id="SVGID_153_" x="-122.2" y="23.6" width="595.3" height="841.9"/>
						</defs>
						<clipPath id="SVGID_154_">
							<use xlink:href="#SVGID_153_"  style="overflow:visible;"/>
						</clipPath>
						<rect x="113.2" y="755.6" class="st73" width="0.6" height="2.1"/>
					</g>
				</g>
			</g>
		</g>
	</g>
	<g>
		<g>
			<g>
				<g>
					<g>
						<defs>
							<rect id="SVGID_155_" x="-122.2" y="23.6" width="595.3" height="841.9"/>
						</defs>
						<clipPath id="SVGID_156_">
							<use xlink:href="#SVGID_155_"  style="overflow:visible;"/>
						</clipPath>
						<rect x="102.9" y="750.7" class="st74" width="0.6" height="0.7"/>
					</g>
				</g>
			</g>
		</g>
	</g>
	<g>
		<g>
			<g>
				<g>
					<g>
						<defs>
							<rect id="SVGID_157_" x="-122.2" y="23.6" width="595.3" height="841.9"/>
						</defs>
						<clipPath id="SVGID_158_">
							<use xlink:href="#SVGID_157_"  style="overflow:visible;"/>
						</clipPath>
						<rect x="102.9" y="751.4" class="st75" width="0.6" height="1"/>
					</g>
				</g>
			</g>
		</g>
	</g>
	<g>
		<g>
			<g>
				<g>
					<g>
						<defs>
							<rect id="SVGID_159_" x="-122.2" y="23.6" width="595.3" height="841.9"/>
						</defs>
						<clipPath id="SVGID_160_">
							<use xlink:href="#SVGID_159_"  style="overflow:visible;"/>
						</clipPath>
						<rect x="101.9" y="750.7" class="st76" width="0.6" height="0.7"/>
					</g>
				</g>
			</g>
		</g>
	</g>
	<g>
		<g>
			<g>
				<g>
					<g>
						<defs>
							<rect id="SVGID_161_" x="-122.2" y="23.6" width="595.3" height="841.9"/>
						</defs>
						<clipPath id="SVGID_162_">
							<use xlink:href="#SVGID_161_"  style="overflow:visible;"/>
						</clipPath>
						<rect x="101.9" y="751.4" class="st77" width="0.6" height="1"/>
					</g>
				</g>
			</g>
		</g>
	</g>
	<g>
		<g>
			<g>
				<g>
					<g>
						<defs>
							<rect id="SVGID_163_" x="-122.2" y="23.6" width="595.3" height="841.9"/>
						</defs>
						<clipPath id="SVGID_164_">
							<use xlink:href="#SVGID_163_"  style="overflow:visible;"/>
						</clipPath>
						<rect x="101" y="750.7" class="st78" width="0.6" height="0.7"/>
					</g>
				</g>
			</g>
		</g>
	</g>
	<g>
		<g>
			<g>
				<g>
					<g>
						<defs>
							<rect id="SVGID_165_" x="-122.2" y="23.6" width="595.3" height="841.9"/>
						</defs>
						<clipPath id="SVGID_166_">
							<use xlink:href="#SVGID_165_"  style="overflow:visible;"/>
						</clipPath>
						<rect x="101" y="751.4" class="st79" width="0.6" height="1"/>
					</g>
				</g>
			</g>
		</g>
	</g>
	<g>
		<g>
			<g>
				<g>
					<g>
						<defs>
							<rect id="SVGID_167_" x="-122.2" y="23.6" width="595.3" height="841.9"/>
						</defs>
						<clipPath id="SVGID_168_">
							<use xlink:href="#SVGID_167_"  style="overflow:visible;"/>
						</clipPath>
						<rect x="102.9" y="755.6" class="st80" width="0.6" height="2.1"/>
					</g>
				</g>
			</g>
		</g>
	</g>
	<g>
		<g>
			<g>
				<g>
					<g>
						<defs>
							<rect id="SVGID_169_" x="-122.2" y="23.6" width="595.3" height="841.9"/>
						</defs>
						<clipPath id="SVGID_170_">
							<use xlink:href="#SVGID_169_"  style="overflow:visible;"/>
						</clipPath>
						<rect x="101" y="755.2" class="st81" width="2.5" height="0.4"/>
					</g>
				</g>
			</g>
		</g>
	</g>
	<g>
		<g>
			<g>
				<g>
					<g>
						<defs>
							<rect id="SVGID_171_" x="-122.2" y="23.6" width="595.3" height="841.9"/>
						</defs>
						<clipPath id="SVGID_172_">
							<use xlink:href="#SVGID_171_"  style="overflow:visible;"/>
						</clipPath>
						<rect x="101.9" y="755.6" class="st82" width="0.6" height="2.1"/>
					</g>
				</g>
			</g>
		</g>
	</g>
	<g>
		<g>
			<g>
				<g>
					<g>
						<defs>
							<rect id="SVGID_173_" x="-122.2" y="23.6" width="595.3" height="841.9"/>
						</defs>
						<clipPath id="SVGID_174_">
							<use xlink:href="#SVGID_173_"  style="overflow:visible;"/>
						</clipPath>
						<rect x="101" y="755.6" class="st83" width="0.6" height="2.1"/>
					</g>
				</g>
			</g>
		</g>
	</g>
	<g>
		<g>
			<g>
				<g>
					<g>
						<defs>
							<rect id="SVGID_175_" x="-122.2" y="23.6" width="595.3" height="841.9"/>
						</defs>
						<clipPath id="SVGID_176_">
							<use xlink:href="#SVGID_175_"  style="overflow:visible;"/>
						</clipPath>
						<rect x="90.3" y="750.7" class="st84" width="0.6" height="0.7"/>
					</g>
				</g>
			</g>
		</g>
	</g>
	<g>
		<g>
			<g>
				<g>
					<g>
						<defs>
							<rect id="SVGID_177_" x="-122.2" y="23.6" width="595.3" height="841.9"/>
						</defs>
						<clipPath id="SVGID_178_">
							<use xlink:href="#SVGID_177_"  style="overflow:visible;"/>
						</clipPath>
						<rect x="90.3" y="751.4" class="st85" width="0.6" height="1"/>
					</g>
				</g>
			</g>
		</g>
	</g>
	<g>
		<g>
			<g>
				<g>
					<g>
						<defs>
							<rect id="SVGID_179_" x="-122.2" y="23.6" width="595.3" height="841.9"/>
						</defs>
						<clipPath id="SVGID_180_">
							<use xlink:href="#SVGID_179_"  style="overflow:visible;"/>
						</clipPath>
						<rect x="93.3" y="750.7" class="st86" width="0.5" height="0.7"/>
					</g>
				</g>
			</g>
		</g>
	</g>
	<g>
		<g>
			<g>
				<g>
					<g>
						<defs>
							<rect id="SVGID_181_" x="-122.2" y="23.6" width="595.3" height="841.9"/>
						</defs>
						<clipPath id="SVGID_182_">
							<use xlink:href="#SVGID_181_"  style="overflow:visible;"/>
						</clipPath>
						<rect x="93.3" y="751.4" class="st87" width="0.5" height="1"/>
					</g>
				</g>
			</g>
		</g>
	</g>
	<g>
		<g>
			<g>
				<g>
					<g>
						<defs>
							<rect id="SVGID_183_" x="-122.2" y="23.6" width="595.3" height="841.9"/>
						</defs>
						<clipPath id="SVGID_184_">
							<use xlink:href="#SVGID_183_"  style="overflow:visible;"/>
						</clipPath>
						<rect x="94" y="750.7" class="st88" width="0.5" height="0.7"/>
					</g>
				</g>
			</g>
		</g>
	</g>
	<g>
		<g>
			<g>
				<g>
					<g>
						<defs>
							<rect id="SVGID_185_" x="-122.2" y="23.6" width="595.3" height="841.9"/>
						</defs>
						<clipPath id="SVGID_186_">
							<use xlink:href="#SVGID_185_"  style="overflow:visible;"/>
						</clipPath>
						<rect x="94" y="751.4" class="st89" width="0.5" height="1"/>
					</g>
				</g>
			</g>
		</g>
	</g>
	<g>
		<g>
			<g>
				<g>
					<g>
						<defs>
							<rect id="SVGID_187_" x="-122.2" y="23.6" width="595.3" height="841.9"/>
						</defs>
						<clipPath id="SVGID_188_">
							<use xlink:href="#SVGID_187_"  style="overflow:visible;"/>
						</clipPath>
						<rect x="89.4" y="750.7" class="st90" width="0.6" height="0.7"/>
					</g>
				</g>
			</g>
		</g>
	</g>
	<g>
		<g>
			<g>
				<g>
					<g>
						<defs>
							<rect id="SVGID_189_" x="-122.2" y="23.6" width="595.3" height="841.9"/>
						</defs>
						<clipPath id="SVGID_190_">
							<use xlink:href="#SVGID_189_"  style="overflow:visible;"/>
						</clipPath>
						<rect x="89.4" y="751.4" class="st91" width="0.6" height="1"/>
					</g>
				</g>
			</g>
		</g>
	</g>
	<g>
		<g>
			<g>
				<g>
					<g>
						<defs>
							<rect id="SVGID_191_" x="-122.2" y="23.6" width="595.3" height="841.9"/>
						</defs>
						<clipPath id="SVGID_192_">
							<use xlink:href="#SVGID_191_"  style="overflow:visible;"/>
						</clipPath>
						<rect x="88.5" y="750.7" class="st92" width="0.6" height="0.7"/>
					</g>
				</g>
			</g>
		</g>
	</g>
	<g>
		<g>
			<g>
				<g>
					<g>
						<defs>
							<rect id="SVGID_193_" x="-122.2" y="23.6" width="595.3" height="841.9"/>
						</defs>
						<clipPath id="SVGID_194_">
							<use xlink:href="#SVGID_193_"  style="overflow:visible;"/>
						</clipPath>
						<rect x="88.5" y="751.4" class="st93" width="0.6" height="1"/>
					</g>
				</g>
			</g>
		</g>
	</g>
	<g>
		<g>
			<g>
				<g>
					<g>
						<defs>
							<rect id="SVGID_195_" x="-122.2" y="23.6" width="595.3" height="841.9"/>
						</defs>
						<clipPath id="SVGID_196_">
							<use xlink:href="#SVGID_195_"  style="overflow:visible;"/>
						</clipPath>
						<rect x="90.3" y="755.6" class="st94" width="0.6" height="2.1"/>
					</g>
				</g>
			</g>
		</g>
	</g>
	<g>
		<g>
			<g>
				<g>
					<g>
						<defs>
							<rect id="SVGID_197_" x="-122.2" y="23.6" width="595.3" height="841.9"/>
						</defs>
						<clipPath id="SVGID_198_">
							<use xlink:href="#SVGID_197_"  style="overflow:visible;"/>
						</clipPath>
						<rect x="88.5" y="755.2" class="st95" width="2.5" height="0.4"/>
					</g>
				</g>
			</g>
		</g>
	</g>
	<g>
		<g>
			<g>
				<g>
					<g>
						<defs>
							<rect id="SVGID_199_" x="-122.2" y="23.6" width="595.3" height="841.9"/>
						</defs>
						<clipPath id="SVGID_200_">
							<use xlink:href="#SVGID_199_"  style="overflow:visible;"/>
						</clipPath>
						<rect x="89.4" y="755.6" class="st96" width="0.6" height="2.1"/>
					</g>
				</g>
			</g>
		</g>
	</g>
	<g>
		<g>
			<g>
				<g>
					<g>
						<defs>
							<rect id="SVGID_201_" x="-122.2" y="23.6" width="595.3" height="841.9"/>
						</defs>
						<clipPath id="SVGID_202_">
							<use xlink:href="#SVGID_201_"  style="overflow:visible;"/>
						</clipPath>
						<rect x="88.5" y="755.6" class="st97" width="0.6" height="2.1"/>
					</g>
				</g>
			</g>
		</g>
	</g>
	<g>
		<g>
			<g>
				<g>
					<g>
						<defs>
							<rect id="SVGID_203_" x="-122.2" y="23.6" width="595.3" height="841.9"/>
						</defs>
						<clipPath id="SVGID_204_">
							<use xlink:href="#SVGID_203_"  style="overflow:visible;"/>
						</clipPath>
						<rect x="108.6" y="737.5" class="st98" width="3.2" height="0.4"/>
					</g>
				</g>
			</g>
		</g>
	</g>
	<g>
		<g>
			<g>
				<g>
					<g>
						<defs>
							<rect id="SVGID_205_" x="-122.2" y="23.6" width="595.3" height="841.9"/>
						</defs>
						<clipPath id="SVGID_206_">
							<use xlink:href="#SVGID_205_"  style="overflow:visible;"/>
						</clipPath>
						<rect x="110.5" y="735.7" class="st99" width="0.5" height="1.3"/>
					</g>
				</g>
			</g>
		</g>
	</g>
	<g>
		<g>
			<g>
				<g>
					<g>
						<defs>
							<rect id="SVGID_207_" x="-122.2" y="23.6" width="595.3" height="841.9"/>
						</defs>
						<clipPath id="SVGID_208_">
							<use xlink:href="#SVGID_207_"  style="overflow:visible;"/>
						</clipPath>
						<rect x="109.5" y="736.1" class="st100" width="0.5" height="0.9"/>
					</g>
				</g>
			</g>
		</g>
	</g>
	<g>
		<g>
			<g>
				<g>
					<g>
						<defs>
							<rect id="SVGID_209_" x="-122.2" y="23.6" width="595.3" height="841.9"/>
						</defs>
						<clipPath id="SVGID_210_">
							<use xlink:href="#SVGID_209_"  style="overflow:visible;"/>
						</clipPath>
						<rect x="95.1" y="755.4" class="st101" width="3.2" height="0.3"/>
					</g>
				</g>
			</g>
		</g>
	</g>
	<g>
		<g>
			<g>
				<g>
					<g>
						<defs>
							<rect id="SVGID_211_" x="-122.2" y="23.6" width="595.3" height="841.9"/>
						</defs>
						<clipPath id="SVGID_212_">
							<use xlink:href="#SVGID_211_"  style="overflow:visible;"/>
						</clipPath>
						<rect x="96.3" y="756" class="st102" width="1.9" height="3.9"/>
					</g>
				</g>
			</g>
		</g>
	</g>
	<g>
		<g>
			<g>
				<g>
					<g>
						<defs>
							<rect id="SVGID_213_" x="-122.2" y="23.6" width="595.3" height="841.9"/>
						</defs>
						<clipPath id="SVGID_214_">
							<use xlink:href="#SVGID_213_"  style="overflow:visible;"/>
						</clipPath>
						<polygon class="st103" points="108.2,740.8 108.2,741.9 106.3,740.8 						"/>
					</g>
				</g>
			</g>
		</g>
	</g>
</g>
<g>
	<g>
		<g>
			<g>
				<g>
					<g>
						<defs>
							<rect id="SVGID_215_" x="-122.2" y="23.6" width="595.3" height="841.9"/>
						</defs>
						<clipPath id="SVGID_216_">
							<use xlink:href="#SVGID_215_"  style="overflow:visible;"/>
						</clipPath>
						<path class="st104" d="M17.9,759.2c0.1-0.2,0.2-0.3,0.3-0.5l1.4-0.5c0.3,0,0.4,0.3,0.6,0.4c0.5,0.2,1,0,1.5,0.2
							c0.3,0.1,0.6,0.3,0.8,0.6c0.2,0.3,0.1,0.6,0.3,0.9c0.2,0.4,0.9,0.3,1.2,0.7c1.2-1.1,4.4-2.3,5.6-0.6c0.3,0.4,0.4,0.4,0.9,0.6
							c0.3,0.1,0.5,0.2,0.8,0.3c0.2,0.1,0.4,0.2,0.5,0.3c0.3,0.1,0.5-0.1,0.9-0.2c1.4-0.2,2.7,0.3,4,0.5c0.7,0.1,1.5-0.2,2.1,0.1
							c0.3,0.1,1.1,1.1,1,1.5c-0.1,0.3-1.2,0.3-1.3,0.4c-1.9,0.2-3.9,0-5.8-0.1c-1.7,0-3.4,0.1-5,0.2c-1.7,0.1-3.4,0.3-5.1,0.3
							c-1,0-2,0-3,0c-0.4,0-1,0.1-1.4-0.1c-0.6-0.3-0.4-1.4-0.4-2C17.8,761.5,17.6,760.2,17.9,759.2"/>
					</g>
				</g>
			</g>
		</g>
	</g>
	<g>
		<g>
			<g>
				<g>
					<g>
						<defs>
							<rect id="SVGID_217_" x="-122.2" y="23.6" width="595.3" height="841.9"/>
						</defs>
						<clipPath id="SVGID_218_">
							<use xlink:href="#SVGID_217_"  style="overflow:visible;"/>
						</clipPath>
						<path class="st105" d="M40.3,762c0.1-0.1,0.6-0.7,0.6-0.8c0.7-1,1.4-1.8,2.7-2.3c2.7-1.2,5.1-2.9,8.3-2.5
							c1.5,0.2,3.2,2.3,4.6,1.6c0-0.1,0-0.2,0-0.4c0.7-0.1,1.8,0.3,2.3,0.1c0.3-0.1,0.5-0.6,0.7-0.8c0.3-0.3,0.7-0.7,1.2-0.8
							s0.8,0.2,1.2,0.2s0.5-0.2,1-0.3c1.9-0.4,3,0.8,4.6,1.8c0.3,0.2,1.2,1,1.5,1.1c0.5,0.1,0.2-0.2,0.7-0.4c1-0.3,1.6-0.6,2.7-0.6
							c1.2,0,2.4,0.2,3,1.4c0.8,0,1.3-0.6,1.9-0.8c0.5-0.1,1,0.1,1.5,0c0.3-0.1,0.3-0.4,0.6-0.4c0.5-0.1,0.9,0,1.4,0
							c1.3,0,2.4-0.8,3.8-0.5c1.2,0.2,2.5,0.9,3.5,1.5v1.2c0.1,1.2,1.7,1.7,1.2,3.5c-0.2,0.8-0.3,0.7-1.2,0.8
							c-2,0.3-4.1,0.2-6.1,0.4c-7.4,0.8-15.5,1.5-22.8,0.5c-5.9-0.8-11.8-0.3-17.7-0.7c-0.7,0-1.7,0.2-2.1-0.5
							C38.7,763.1,39.7,762.5,40.3,762"/>
					</g>
				</g>
			</g>
		</g>
	</g>
	<g>
		<g>
			<g>
				<g>
					<g>
						<defs>
							<rect id="SVGID_219_" x="-122.2" y="23.6" width="595.3" height="841.9"/>
						</defs>
						<clipPath id="SVGID_220_">
							<use xlink:href="#SVGID_219_"  style="overflow:visible;"/>
						</clipPath>
						<path class="st106" d="M43.9,761.1c0-1.7,1.9-1.8,3.3-1.8c0-1.2,1.9-1.5,2.8-1.5s1.7,0.1,2.5,0.5c0.4,0.2,0.6,0.5,1,0.7
							c0.6,0.2,1.3,0,1.9,0.1c0.5,0.1,0.7,0.4,1.3,0.4c1,0.1,1.2-0.1,2,0.4c0.6,0.4,1.1,1.2,1.8,1.6c0.1-1.7-0.6-1.7-1.8-2.5
							c0.3-0.4,2-0.8,2.6-0.9c0.4-0.1,0.8,0.1,1.3,0c0.4-0.1,0.6-0.4,1-0.4c0.8-0.1,1.6,0.1,2.4,0.4c0.9,0.3,0.8,0.5,1.3,1
							c0.4,0.4,1,0.6,1.4,1.1c0.2,0.3,0.2,1.2,0.4,1.5c1.6,1.3,0.6-1.9,0.6-2.2c0.9-0.1,1.9-0.3,2.9-0.3c0.8,0,1.2,0,1.8,0.3
							c0.4,0.2,0.5,0.8,1.1,0.9c-0.1,0.6-0.6,1.1-0.5,1.7c1.1,0.3,1.9-1.7,2.6-2.1c0.8-0.6,2,0.1,2.9,0.1c0.4,0,1.1-0.2,1.5-0.3
							c0.9-0.2,1.6-0.9,2.6-0.8c0.9,0.1,1.5,0.6,1.2,1.4c-0.4,1-2.3,1.4-1,2.9l-0.8,1c-1.6,0-3.1,0.6-4.7,0.8
							c-3.9,0.7-8.2,0.6-12.2,0.6c-4-0.1-8.1,0.1-12.1-0.5c-4.3-0.7-8.5-0.5-12.8-0.7C41.8,762.9,42.6,761.4,43.9,761.1"/>
					</g>
				</g>
			</g>
		</g>
	</g>
	<g>
		<g>
			<g>
				<g>
					<g>
						<defs>
							<rect id="SVGID_221_" x="-122.2" y="23.6" width="595.3" height="841.9"/>
						</defs>
						<clipPath id="SVGID_222_">
							<use xlink:href="#SVGID_221_"  style="overflow:visible;"/>
						</clipPath>
						<path class="st107" d="M190.4,760.9c1.1,0,1.5-0.7,2.7-1.3c1.1-0.5,1.7-0.1,2.7-0.2c1.3-0.1,2.2-0.9,3.6-0.7
							c0.4,0.1,0.5,0.4,1.1,0.3c0.9-0.1,1.7-0.4,2.6-0.3c1.4,0.1,3.7,0.2,3.8,2v-0.3c1.8-1.4,4.2-1.2,6.2-0.5
							c1.3,0.4,2.3,1.3,3.4,1.7c0.9,0.3,1.5,0,2.5-0.3c1.5-0.4,2.6-0.1,4,0.1c1.8,0.2,3.7-0.3,5.5,0c0.5,0.1,0.9,0.4,1.3,0.4
							c1.4,0.1,2.8-0.6,4.2-0.6c2.1-0.1,3.8-1,5.9-1.1c2-0.1,4-0.1,5.9-0.1c2.3,0,4.6,0.5,6.8,1.1c0.7,0.2,1.4,0.3,2.2,0.3
							c1.7-0.1,3.3-0.9,5-1c1.5-0.1,3-0.6,4.5-0.7c0.8,0,1.5,0.3,2.3,0.4c0.9,0.1,1.7-0.2,2.7-0.3c1.8-0.1,3.7,0.2,5.4,0.7
							c0.9,0.3,1.8,1.1,2.7,1.3c1,0.2,0.7,0.1,1.8-0.4c2.2-0.8,4.4-0.9,6.5-0.2s4,0.6,4.6,3.3c-6.1,0.3-12.3-0.1-18.4-0.1
							c-5.3,0-10.6,0.1-15.9,0.4c-4.6,0.2-9.2,0.7-13.8,0.5c-3.1-0.1-6.2-0.4-9.3-0.6c-2.8-0.2-5.7,0.1-8.6-0.1
							c-4.4-0.2-8.8-0.1-13.2-0.1c-1.2,0-6.6,3-6.5,1.1c-1.1-0.2-1.4-2.2-2.5-1.9c-1.4,0.3-2.9,0.4-4.3,0.4c-1.4-0.1-2.7,0-4,0
							c-3.6,0-5,0.6-6.9,0.6c-0.8,0-0.7-1.5-1.4-1.5C184.8,760.6,189,760.8,190.4,760.9"/>
					</g>
				</g>
			</g>
		</g>
	</g>
	<g>
		<g>
			<g>
				<g>
					<g>
						<defs>
							<rect id="SVGID_223_" x="-122.2" y="23.6" width="595.3" height="841.9"/>
						</defs>
						<clipPath id="SVGID_224_">
							<use xlink:href="#SVGID_223_"  style="overflow:visible;"/>
						</clipPath>
						<path class="st108" d="M187.8,763.4c0-1.2,1.1-1.4,2-1.4c0.7-0.1,1.9,0.6,2.5,0.4c0.5-0.2,0.5-1.4,1.1-1.7
							c0.3-0.2,0.5,0,0.9-0.1c0.8-0.2,1.7-0.2,2.4,0.2c0.6-0.9,2.2-0.1,3-0.1c1.9-0.2,3.8-0.8,4.8,1.1c0.2,0.4,0.7,2.3,1.5,1.8
							c0.9-0.7-1.3-2.3-1.2-3.1c0.8,0.6,1.4,1.2,2.2,0.9c0.4-0.2,0.7-0.6,1.3-0.7c0.5-0.1,1,0.1,1.5,0.1c1.2,0.1,2.7-0.4,3.6,0.7
							c0.5,0.5,1,1.9,1.2,2.6c0.7-0.7-0.2-1.5-0.3-2.2c1.1,0.2,1.8,1.4,2.9,1.3c0.9,0,2-0.8,3.2-0.8c1.3,0,2,0.3,3.2,0.5
							c1.3,0.2,2.7,0,4,0c2.6,0,5.5-0.2,8-0.9c1.3-0.3,2.6-0.8,4-0.9c1.2-0.1,1.9,0.1,3.1-0.1c1.5-0.3,3.2-0.4,4.6,0
							c1.8,0.5,3.7,1.3,5.6,1.7c2.8,0.6,4.8-1.8,7.5-2.1c2.2-0.2,4.7-0.1,6.8,0.2c2.5,0.4,5,0.1,7.3,1.1c1.9,0.8,4,1.4,6.1,0.9
							c1.3-0.3,2.6-0.8,4-0.3c0.9,0.3,1.7,0.9,2.5,1.3c-0.1,1.1-3.2,0.8-3.9,0.8c-2.8,0-5.5,0.2-8.3,0.6c-4.9,0.7-10,0.6-15,0.6
							c-5.2,0-10.4-0.1-15.7-0.1c-13.1-0.2-26.3-0.3-39.5-0.3c-5.8,0-12.1,0.7-17.6-0.9L187.8,763.4z"/>
					</g>
				</g>
			</g>
		</g>
	</g>
	<g>
		<g>
			<g>
				<g>
					<g>
						<defs>
							<rect id="SVGID_225_" x="-122.2" y="23.6" width="595.3" height="841.9"/>
						</defs>
						<clipPath id="SVGID_226_">
							<use xlink:href="#SVGID_225_"  style="overflow:visible;"/>
						</clipPath>
						<path class="st109" d="M133.9,756.8c0.4-1,1.5-1.5,2.6-1.4c1.2,0.1,1.4,1.1,1.8,2.1c0.7-0.1,0.8-1.1,1.4-1.5
							c0.6-0.4,2.3-1.3,2.8-0.3c1.6-0.4,3.2-1.3,4.9-0.3c0.8,0.5,1.9,1.5,1.8,2.5c0.9-0.3,1.6-0.7,2.7-0.4c0.8,0.2,1,0.7,1.6,1.2
							c0.4,0.3,0.3,0.2,0.7,0.4c0.8,0.4,1.5,1.2,2.3,0.9c1.3-0.5,2-1.6,3.5-1.6c1.5-0.1,2.5,1.8,4.1,1.2c0.4-0.2,0.8-0.8,1.3-1
							s0.7,0,1.2-0.1c0.9-0.1,1.7-0.7,2.9-0.6c1.9,0.2,3.7,2.5,5.7,1.9c0.6-0.2,1-0.8,1.5-1.2c0.8-0.7,1.5-1,2.5-1.1
							c1.2-0.1,2.2,0.2,3.2,0.5c1.8,0.4,3.9,1.4,4.6,3.3c0.1,0.4,0.5,2.4,0,2.8h-53.2L133.9,756.8L133.9,756.8z"/>
					</g>
				</g>
			</g>
		</g>
	</g>
	<g>
		<g>
			<g>
				<g>
					<g>
						<defs>
							<rect id="SVGID_227_" x="-122.2" y="23.6" width="595.3" height="841.9"/>
						</defs>
						<clipPath id="SVGID_228_">
							<use xlink:href="#SVGID_227_"  style="overflow:visible;"/>
						</clipPath>
						<path class="st110" d="M137.1,759.9l1.3-0.6c0.1-0.5,0.6-1.1,1.1-1.3c0.6-0.4,0.6-0.1,1.2-0.2c0.2,0,0.2,0.1,0.4,0
							c0.2-0.1,0.6-0.6,0.9-0.7c0.9-0.4,2.3-0.7,3.2-0.5c1,0.2,0.6,1,1.3,1.5c1,0.7,2.7,0.5,3,2.1c0.8-0.2,1.4-0.7,2.2-0.7
							c1-0.1,1.8,0.2,2.5,0.8c0.7,0.5,1.2,1.6,2.1,1.3c0.3-0.1,0.3-0.3,0.7-0.4c0.4,0,0.9,0.3,1.1,0.6c0.3,0.4,0.2,0.9,0.5,1.2
							c0.7-0.2,0.7-1.1,0.4-1.7c-0.3-0.8-1-0.8-0.4-1.6c0.3-0.4,0.9-0.7,1.4-0.6c0.6,0.1,0.4,0.3,0.8,0.6c1,0.8,2.7,0.4,3.4,1.8
							c0.6-0.3,1.9-0.7,1.9-1.4c0.7-0.1,0.8-0.1,1.3-0.4c0.6-0.3,1-0.5,1.7-0.6c1.2,0,2.4,0.6,3,1.5c0.4,0.6,0.2,2,1.1,2.1
							c1.1,0.1,1.3-1.8,0.5-2.1c0.9-0.1,2.1,0.4,2.9-0.1c0.9-0.6,0.7-1.6,1.9-1.8c1.5-0.2,3.5-0.2,4.8,0.4c1.8,0.8,3.2,3.3,2.4,5.3
							c-5.4,0.3-10.9,0-16.4,0c-5,0-10.1,0.2-15.1,0.4c-5.9,0.3-11.9,0.9-17.8,0.5C136.5,763.5,137,761.7,137.1,759.9"/>
					</g>
				</g>
			</g>
		</g>
	</g>
	<g>
		<g>
			<g>
				<g>
					<g>
						<defs>
							<rect id="SVGID_229_" x="-122.2" y="23.6" width="595.3" height="841.9"/>
						</defs>
						<clipPath id="SVGID_230_">
							<use xlink:href="#SVGID_229_"  style="overflow:visible;"/>
						</clipPath>
						<path class="st111" d="M19.8,758.4c-0.4-0.8-1.5-1.2-2.6-1.2c-1.2,0.1-1.5,0.9-1.8,1.7c-0.7-0.1-0.8-0.9-1.4-1.2
							c-0.6-0.4-2.3-1-2.8-0.2c-1.6-0.3-3.2-1-4.9-0.2c-0.8,0.4-1.9,1.2-1.8,2c-0.9-0.2-1.6-0.6-2.7-0.4c-0.8,0.2-1,0.6-1.6,0.9
							c-0.4,0.2-0.3,0.2-0.7,0.3c-0.8,0.3-1.5,0.9-2.3,0.7c-1.3-0.4-2-1.3-3.5-1.3s-2.5,1.5-4.1,1c-0.4-0.1-0.8-0.7-1.3-0.9
							s-0.7,0-1.2-0.1c-0.9-0.1-1.7-0.6-2.9-0.5c-1.9,0.1-3.7,2.1-5.7,1.5c-0.6-0.2-1-0.7-1.5-1c-0.8-0.5-1.5-0.8-2.5-0.9
							c-1.2-0.1-2.2,0.2-3.2,0.4c-1.8,0.3-3.9,1.1-4.6,2.6c-0.1,0.3-0.5,2,0,2.3h53.1C19.8,763.9,19.8,758.4,19.8,758.4z"/>
					</g>
				</g>
			</g>
		</g>
	</g>
	<g>
		<g>
			<g>
				<g>
					<g>
						<defs>
							<rect id="SVGID_231_" x="-122.2" y="23.6" width="595.3" height="841.9"/>
						</defs>
						<clipPath id="SVGID_232_">
							<use xlink:href="#SVGID_231_"  style="overflow:visible;"/>
						</clipPath>
						<path class="st112" d="M16.5,761l-1.3-0.5c-0.1-0.4-0.6-0.9-1.1-1.1c-0.6-0.3-0.6-0.1-1.2-0.1c-0.2,0-0.2,0.1-0.4,0
							c-0.2-0.1-0.6-0.5-0.9-0.6c-0.9-0.3-2.3-0.6-3.2-0.4c-1,0.2-0.6,0.8-1.3,1.2c-1,0.6-2.7,0.4-3,1.7c-0.8-0.2-1.4-0.5-2.2-0.6
							c-1-0.1-1.8,0.2-2.5,0.7c-0.7,0.4-1.2,1.3-2.1,1C-3,762.2-3,762-3.4,762s-0.9,0.2-1.1,0.5c-0.3,0.3-0.2,0.7-0.5,1
							c-0.7-0.2-0.7-0.9-0.4-1.3c0.3-0.6,1-0.6,0.4-1.3c-0.3-0.3-0.9-0.6-1.4-0.5c-0.6,0.1-0.4,0.3-0.8,0.5c-1,0.7-2.7,0.4-3.4,1.5
							c-0.6-0.2-1.9-0.5-1.9-1.2c-0.7,0-0.8,0-1.3-0.3c-0.6-0.3-1-0.4-1.7-0.5c-1.2,0-2.4,0.5-3,1.2c-0.4,0.5-0.2,1.6-1.1,1.7
							c-1.1,0.1-1.3-1.5-0.5-1.7c-0.9-0.1-2.1,0.3-2.9-0.1c-0.8-0.5-0.7-1.3-1.9-1.4c-1.5-0.1-3.5-0.2-4.8,0.3
							c-1.8,0.7-3.2,2.7-2.4,4.3c5.4,0.2,10.9,0,16.4,0c5,0,10.1,0.1,15.1,0.3c5.9,0.3,11.9,0.7,17.8,0.4
							C17.2,763.9,16.7,762.4,16.5,761"/>
					</g>
				</g>
			</g>
		</g>
	</g>
	<g>
		<g>
			<g>
				<g>
					<g>
						<defs>
							<rect id="SVGID_233_" x="-122.2" y="23.6" width="595.3" height="841.9"/>
						</defs>
						<clipPath id="SVGID_234_">
							<use xlink:href="#SVGID_233_"  style="overflow:visible;"/>
						</clipPath>
						<path class="st113" d="M85.5,759.3c0.3-0.4,1.2-0.9,1.6-1.1c0.7-0.4,1.7-0.8,2.5-0.5c0.9,0.3,1.4,1,2.3,0.8
							c1.4-0.3,2.2-0.6,3.5,0.2c0.4,0.2,0.7,0.5,1.2,0.2c0.6-0.3,0.9-0.7,1.5-0.8c0.9-0.2,1.6,0,2.5,0.2c0.4,0.1,1,0.2,1.3,0.4
							c0.4-1.1,1.4-0.9,2.2-1.4c0.2-0.1,0.1-0.2,0.3-0.4c0.6-0.7,1.2-1.1,2.1-1.3c1.7-0.3,4.5-0.1,4.8,2.1c0.4,0,0.8,0,1.2,0.1
							c0.5,0.1,0.9,0.1,1.4,0.3c0.2,0.1,0.5,0.4,0.7,0.4c0.5,0,1.1-0.6,1.7-0.7c0.2,0,0.5-0.1,0.7,0c0.2,0,0.4,0.2,0.5,0.2
							c0.5,0,1.1-0.5,1.7-0.5c0.7-0.1,1.3,0,2,0c0.8,0,1.5-0.1,2.2,0.5c0.4-0.5,1-0.8,1.6-0.9c0.2,0,0.7,0,0.9-0.1
							c0.3-0.1,0.1-0.1,0.4-0.3c0.7-0.6,3.2-1.4,3.9-0.5c0.4-0.9,1.3-1.2,2.3-1c0.4,0.1,0.9,0.3,1.2,0.5c0.2,0.2,0.4,0.4,0.5,0.6
							c0.8,0.6,1.8,0.7,2.4,1.6c0.4,0.6,0.8,1.7,0.4,2.3c0.6,0.6,1,2.8,0.4,3.6H84.8C84.9,763.7,83.6,761.6,85.5,759.3"/>
					</g>
				</g>
			</g>
		</g>
	</g>
	<g>
		<g>
			<g>
				<g>
					<g>
						<defs>
							<rect id="SVGID_235_" x="-122.2" y="23.6" width="595.3" height="841.9"/>
						</defs>
						<clipPath id="SVGID_236_">
							<use xlink:href="#SVGID_235_"  style="overflow:visible;"/>
						</clipPath>
						<path class="st114" d="M86.5,763.8c-0.3-0.9-1.8-1.9-0.6-2.9c0.2-0.2,0.5-0.2,0.7-0.4c0.2-0.2,0.3-0.6,0.4-0.8
							c0.4-0.5,1.5-1.2,2.1-1.2c0.5,0.1,0.7,0.5,1.1,0.7c1,0.6,1.6,0.2,2.4-0.2c1.7-0.8,1.7,0.1,3.1,0.6c0.4,0.2,1.2,0.4,1.7,0.2
							c0.3-0.1,0.4-0.6,0.7-0.8c1-0.7,2.4,0.3,3.4,0.4c0.9,0.1,0.6,0,1.4-0.5c0.3-0.2,0.7-0.1,1-0.3c0.5-0.3,0.6-1.2,1.1-1.6
							c0.6-0.4,1.7-0.4,2.5-0.4c1.6,0,2.2,0.1,2.3,1.9c0.6,0,1.2-0.2,1.8-0.2c0.4,0,0.8,0,1.2,0.2c0.1,0.1,0.1,0.4,0.2,0.5
							c1,0.6,1.6,0.2,2.5-0.2c1-0.4,2.2-0.1,3.3-0.4c0.9-0.3,1.6-0.9,2.7-0.5c0.7,0.3,1.1,1,2.1,0.7c0.3-0.1,0.6-0.7,1-0.8
							c0.7-0.3,1.5,0.5,2.2,0.2c0.9-0.4,1-1.5,2.1-1.5c0.5,0,0.9,0.3,1.3,0.3c0.6-0.1,1-0.6,1.6-0.6c0.7,0,1.1,0.1,1.7,0.5
							c0.5,0.3,0.7,1,1,1.3c0.1,0.1,0.5,0.1,0.6,0.2c0.8,0.8,0,1.6,0.4,2.6c0.2,0.5,0.6,0.5,0.8,0.9c0.3,0.6-0.1,1.7-0.6,2.1
							L86.5,763.8L86.5,763.8z"/>
					</g>
				</g>
			</g>
		</g>
	</g>
	<g>
		<g>
			<g>
				<g>
					<g>
						<defs>
							<rect id="SVGID_237_" x="-122.2" y="23.6" width="595.3" height="841.9"/>
						</defs>
						<clipPath id="SVGID_238_">
							<use xlink:href="#SVGID_237_"  style="overflow:visible;"/>
						</clipPath>
						<path class="st115" d="M115.4,760.1c0.3,0.8,0.4,2.2-0.4,2.7c0-0.4,0.3-0.8,0.2-1.2c-0.1-0.3-0.3-0.5-0.4-0.7
							c0-0.2,0.1-0.4,0-0.6s-0.3-0.4-0.5-0.5c-0.3-0.2-0.4-0.4-0.7-0.6c-0.2-0.2-0.6-0.2-0.5-0.5v-0.3
							C114,758.5,115.1,759.2,115.4,760.1"/>
					</g>
				</g>
			</g>
		</g>
	</g>
	<g>
		<g>
			<g>
				<g>
					<g>
						<defs>
							<rect id="SVGID_239_" x="-122.2" y="23.6" width="595.3" height="841.9"/>
						</defs>
						<clipPath id="SVGID_240_">
							<use xlink:href="#SVGID_239_"  style="overflow:visible;"/>
						</clipPath>
						<path class="st116" d="M124.2,758.4c0.5,0.2,0.5,0.7,0.9,1.1c0.5,0.5,0,0.8,0.3,1.4c0.2,0.4,0.5,0.6,0.4,1
							c-0.1,0.4-0.6,0.9-1,1c0.2-0.3,0.3-0.6,0.2-1c-0.1-0.4-0.4-0.7-0.5-1.1c-0.1-0.4,0-0.8-0.2-1.2c-0.3-0.5-0.7-0.9-1.2-1.2
							C123.3,758.2,123.9,758.3,124.2,758.4"/>
					</g>
				</g>
			</g>
		</g>
	</g>
	<g>
		<g>
			<g>
				<g>
					<g>
						<defs>
							<rect id="SVGID_241_" x="-122.2" y="23.6" width="595.3" height="841.9"/>
						</defs>
						<clipPath id="SVGID_242_">
							<use xlink:href="#SVGID_241_"  style="overflow:visible;"/>
						</clipPath>
						<path class="st117" d="M122.3,758.1c0.2,0,0.5,0.2,0.7,0.3c0,0-0.1,0-0.1,0.1L122.3,758.1z"/>
					</g>
				</g>
			</g>
		</g>
	</g>
	<g>
		<g>
			<g>
				<g>
					<g>
						<defs>
							<rect id="SVGID_243_" x="-122.2" y="23.6" width="595.3" height="841.9"/>
						</defs>
						<clipPath id="SVGID_244_">
							<use xlink:href="#SVGID_243_"  style="overflow:visible;"/>
						</clipPath>
						<path class="st118" d="M101.2,759.3c0.2-0.1,0.7-0.3,0.8-0.1l0.9-0.3c-0.3,0.1-0.7,0.3-0.9,0.5c-0.1,0.1-0.1,0.3-0.2,0.4
							c-0.1,0.2-0.3,0.1-0.4,0.3c-0.1,0.2-0.1,0.3-0.1,0.6c0,0.3-0.1,0.6-0.1,0.9s0,0.3,0.2,0.6c0.2,0.3,0.3,0.5,0.5,0.8
							c-0.7,0.1-1-0.4-1.1-1c0-0.5-0.3-0.9-0.3-1.4C100.5,760.1,100.6,759.6,101.2,759.3"/>
					</g>
				</g>
			</g>
		</g>
	</g>
	<g>
		<g>
			<g>
				<g>
					<g>
						<defs>
							<rect id="SVGID_245_" x="-122.2" y="23.6" width="595.3" height="841.9"/>
						</defs>
						<clipPath id="SVGID_246_">
							<use xlink:href="#SVGID_245_"  style="overflow:visible;"/>
						</clipPath>
						<path class="st119" d="M14.7,761.3l0.9-0.5c0.4-0.2,0.8,0,1.2,0.2c0.2-0.2,0.5-0.5,0.7-0.6l0.5-0.2c0.1-0.2-0.3-0.3-0.3-0.4
							c-0.1-0.5,0.4-0.5,0.7-0.4c0.8,0.1,1.4,0.7,1.6,1.4c0.5,0,1,0,1.4,0.3c0.2,0.2,0.4,0.4,0.5,0.7c0.1,0.2,0,0.4,0.1,0.5
							c0.3,0.7,1.4,0.6,2,0.5c0.1-0.4,0.6-0.9,0.9-1c0.7-0.2,1.6,0.5,2.2,0.9c0.2-0.8-0.8-1.4-1.2-1.8c0.4-0.2,1.5-0.1,1.9,0
							c0.7,0.2,1.2,0.6,1.6,1.1c0.4-0.1,1,0,1.4,0.2c0.2,0.1,0.3,0.3,0.5,0.4c0.3,0.2,0.8,0,1.1,0c0.6-0.1,1.2-0.2,1.8-0.2
							c0.4,0,4.8,0.8,4,1.7c-0.1,0.2-1.4-0.1-1.4-0.1c-0.8-0.1-1.6-0.2-2.4-0.3c-1.4-0.2-2.8-0.1-4.2-0.1c-1.8,0.1-3.5,0.1-5.3,0
							c-1.3,0-2.7-0.1-4,0.1c-1.8,0.3-3.6,0.5-5.4,0c-0.5-0.1-1.5-0.3-1.6-1C14.1,762.4,14.5,761.7,14.7,761.3"/>
					</g>
				</g>
			</g>
		</g>
	</g>
</g>
<g>
	<g>
		<g>
			<g>
				<g>
					<g>
						<defs>
							<rect id="SVGID_247_" x="-86" y="763" width="524.3" height="81.6"/>
						</defs>
						<clipPath id="SVGID_248_">
							<use xlink:href="#SVGID_247_"  style="overflow:visible;"/>
						</clipPath>
						
							<linearGradient id="SVGID_249_" gradientUnits="userSpaceOnUse" x1="-409.8839" y1="-609.524" x2="-408.8839" y2="-609.524" gradientTransform="matrix(0 81 -81 0 -49195.2969 33962.1641)">
							<stop  offset="0" style="stop-color:#99B96D"/>
							<stop  offset="1" style="stop-color:#77A741"/>
						</linearGradient>
						<rect x="-86" y="763" class="st120" width="524.3" height="81.6"/>
					</g>
				</g>
			</g>
		</g>
	</g>
</g>
<g id="XMLID_93_">
	<g id="XMLID_94_">
		<g>
			<g>
				<defs>
					<rect id="SVGID_250_" x="-122.2" y="23.6" width="595.3" height="841.9"/>
				</defs>
				<clipPath id="SVGID_251_">
					<use xlink:href="#SVGID_250_"  style="overflow:visible;"/>
				</clipPath>
				<path id="XMLID_95_" class="st121" d="M-86.8,763.9c4.9-2,145.7,20.7,187.8,18.2s142.8-7.4,174.9-3.2
					c32.2,4.2,86.6,5.6,103.4,3.5c16.8-2.1,58.4-14,58.4-14V876H-86.8V763.9z"/>
			</g>
		</g>
	</g>
</g>
</svg>
