<?xml version="1.0" encoding="utf-8"?>
<!-- Generator: Adobe Illustrator 19.0.0, SVG Export Plug-In . SVG Version: 6.00 Build 0)  -->
<svg version="1.1" id="Layer_1" xmlns="http://www.w3.org/2000/svg" xmlns:xlink="http://www.w3.org/1999/xlink" x="0px" y="0px"
	 viewBox="0 0 768 1100.3" style="enable-background:new 0 0 768 1100.3;" xml:space="preserve">
<style type="text/css">
	.st0{fill:#AEDEF8;}
	.st1{clip-path:url(#SVGID_2_);fill:url(#SVGID_3_);}
	.st2{clip-path:url(#SVGID_5_);fill:url(#SVGID_6_);}
	.st3{clip-path:url(#SVGID_8_);fill:url(#SVGID_9_);}
	.st4{clip-path:url(#SVGID_11_);fill:url(#SVGID_12_);}
	.st5{clip-path:url(#SVGID_14_);fill:url(#SVGID_15_);}
	.st6{clip-path:url(#SVGID_17_);fill:url(#SVGID_18_);}
	.st7{clip-path:url(#SVGID_20_);fill:url(#SVGID_21_);}
	.st8{clip-path:url(#SVGID_23_);fill:#9B9592;}
	.st9{clip-path:url(#SVGID_23_);fill:#89A2B6;}
	.st10{clip-path:url(#SVGID_23_);fill:#6E8FA5;}
	.st11{clip-path:url(#SVGID_23_);fill:#7694AA;}
	.st12{clip-path:url(#SVGID_23_);fill:#CBD599;}
	.st13{clip-path:url(#SVGID_25_);fill:url(#SVGID_26_);}
	.st14{clip-path:url(#SVGID_28_);fill:#546A1C;}
	.st15{clip-path:url(#SVGID_30_);fill:url(#SVGID_31_);}
	.st16{clip-path:url(#SVGID_33_);fill:#546A1C;}
	.st17{clip-path:url(#SVGID_35_);fill:url(#SVGID_36_);}
	.st18{clip-path:url(#SVGID_38_);fill:#546A1C;}
	.st19{clip-path:url(#SVGID_40_);fill:url(#SVGID_41_);}
	.st20{clip-path:url(#SVGID_43_);fill:#586E1D;}
	.st21{clip-path:url(#SVGID_45_);fill:url(#SVGID_46_);}
	.st22{clip-path:url(#SVGID_48_);fill:url(#SVGID_49_);}
	.st23{clip-path:url(#SVGID_51_);fill:url(#SVGID_52_);}
	.st24{clip-path:url(#SVGID_54_);fill:#586E1D;}
	.st25{clip-path:url(#SVGID_56_);fill:url(#SVGID_57_);}
	.st26{clip-path:url(#SVGID_59_);fill:#737F1C;}
	.st27{clip-path:url(#SVGID_59_);fill:#52681B;}
	.st28{clip-path:url(#SVGID_59_);fill:#A09B97;}
	.st29{clip-path:url(#SVGID_59_);fill:#D2CFCC;}
	.st30{clip-path:url(#SVGID_59_);fill:#B0ACA8;}
	.st31{clip-path:url(#SVGID_59_);fill:#8B8682;}
	.st32{clip-path:url(#SVGID_59_);fill:#6A6560;}
	.st33{clip-path:url(#SVGID_61_);fill:url(#SVGID_62_);}
	.st34{clip-path:url(#SVGID_64_);fill:#D9D0A8;}
	.st35{clip-path:url(#SVGID_66_);fill:url(#SVGID_67_);}
	.st36{clip-path:url(#SVGID_69_);fill:url(#SVGID_70_);}
	.st37{clip-path:url(#SVGID_72_);fill:url(#SVGID_73_);}
	.st38{clip-path:url(#SVGID_75_);fill:#737F1C;}
	.st39{clip-path:url(#SVGID_75_);fill:#52681B;}
	.st40{clip-path:url(#SVGID_77_);fill:url(#SVGID_78_);}
	.st41{clip-path:url(#SVGID_80_);fill:#737F1C;}
	.st42{clip-path:url(#SVGID_80_);fill:#52681B;}
	.st43{clip-path:url(#SVGID_82_);fill:url(#SVGID_83_);}
	.st44{clip-path:url(#SVGID_85_);fill:#A09B97;}
	.st45{clip-path:url(#SVGID_85_);fill:#6A6560;}
	.st46{clip-path:url(#SVGID_85_);fill:#D9D0A8;}
	.st47{clip-path:url(#SVGID_87_);fill:url(#SVGID_88_);}
	.st48{clip-path:url(#SVGID_90_);fill:url(#SVGID_91_);}
	.st49{clip-path:url(#SVGID_93_);fill:#E5DDC0;}
	.st50{clip-path:url(#SVGID_93_);fill:#686F7D;}
	.st51{clip-path:url(#SVGID_93_);fill:#454C59;}
	.st52{clip-path:url(#SVGID_93_);fill:#9B9592;}
	.st53{clip-path:url(#SVGID_93_);fill:#837F7A;}
	.st54{clip-path:url(#SVGID_93_);fill:#706B66;}
	.st55{clip-path:url(#SVGID_93_);fill:#C7C3C0;}
	.st56{clip-path:url(#SVGID_95_);fill:url(#SVGID_96_);}
	.st57{clip-path:url(#SVGID_98_);fill:url(#SVGID_99_);}
	.st58{clip-path:url(#SVGID_101_);fill:#737F1C;}
	.st59{clip-path:url(#SVGID_101_);fill:#52681B;}
	.st60{clip-path:url(#SVGID_101_);fill:#FFFFFF;}
	.st61{clip-path:url(#SVGID_101_);fill:#9AB6D7;}
	.st62{clip-path:url(#SVGID_101_);fill:#837F7A;}
	.st63{clip-path:url(#SVGID_101_);fill:#C9C6C3;}
	.st64{clip-path:url(#SVGID_101_);fill:#A47C66;}
	.st65{clip-path:url(#SVGID_101_);fill:#264D6A;}
	.st66{clip-path:url(#SVGID_101_);fill:#7F95B0;}
	.st67{clip-path:url(#SVGID_101_);fill:#90654C;}
	.st68{clip-path:url(#SVGID_101_);fill:#C1D1E7;}
	.st69{clip-path:url(#SVGID_101_);fill:#AB5C24;}
	.st70{clip-path:url(#SVGID_101_);fill:#69635F;}
	.st71{clip-path:url(#SVGID_101_);fill:#718431;}
	.st72{clip-path:url(#SVGID_101_);fill:#627B21;}
	.st73{clip-path:url(#SVGID_101_);fill:#5E751F;}
	.st74{clip-path:url(#SVGID_101_);fill:#5E7126;}
	.st75{clip-path:url(#SVGID_103_);fill:url(#SVGID_104_);}
	.st76{clip-path:url(#SVGID_106_);fill:#586E1D;}
</style>
<rect y="0" class="st0" width="768" height="1098.5"/>
<g>
	<defs>
		<path id="SVGID_1_" d="M198.9,361.5c0.1,0.6,0.2,1.3,0.1,2.2C199,363,199,362.2,198.9,361.5 M662.4,187.8c-8.8,9-9,19.3-13.2,29.6
			c-4.2,10.2-8.9,15.2-8.7,26.8c-8.9-1.1-16.7,7.3-18.8,14.9c-6.4-16.3-38.7-37.5-52.7-18c-12.9-29-55.9,1.7-58.4,22.3
			c-1,8.7,3.2,13.6,4.5,21.2c1.3,7.8-2.4,18-3.3,25.9c-7.3,1.1-15.3-14.2-21.9-18c-17.1-10-47.3-11.7-60.4,5.6
			c-3.3-20.7-11.9-29.2-34.4-34.6c6.7-58-137.5-63.5-127-0.5c-5.4-9.7-18.3-6.7-25.4-4.5c-19.7,6-22.4,27.3-24.6,45.4
			c-0.5,3.8,2,13.7,0,17.3c-0.9,1.6-9,6.7-10.3,8.2c-8,9.3-9.1,20.7-8.8,32.1c-0.3-1.4-1.1-2.5-1.5-4.1c-10.8-0.8-22.2-0.4-28.7,8.2
			c-7-29.3-54.3-25.8-77.9-23.1c-19,2.2-26.2,10.1-26.6,25.3c0.6,1.3,0.7,3.2,0.1,5.6c-0.1-2-0.2-3.9-0.1-5.6
			c-2.1-4.8-10.2-2.8-15.7-0.8c-13.2,4.8-25,14.7-29.5,27.3c-2.4-8.3-9.5-6-16.9-1.3v513.4H768V209.9c-8.4-20.5-40.9-34.3-69.1-34.3
			C684.2,175.6,670.7,179.3,662.4,187.8"/>
	</defs>
	<clipPath id="SVGID_2_">
		<use xlink:href="#SVGID_1_"  style="overflow:visible;"/>
	</clipPath>
	
		<linearGradient id="SVGID_3_" gradientUnits="userSpaceOnUse" x1="0" y1="1218.7589" x2="1" y2="1218.7589" gradientTransform="matrix(0 419.3009 419.3009 0 -510641.6563 255.5414)">
		<stop  offset="0" style="stop-color:#D1EAF7"/>
		<stop  offset="0.1314" style="stop-color:#CBE8F7"/>
		<stop  offset="0.655" style="stop-color:#B6E1F8"/>
		<stop  offset="1" style="stop-color:#AEDEF8"/>
	</linearGradient>
	<rect x="2.2" y="175.6" class="st1" width="765.8" height="730.9"/>
</g>
<g>
	<defs>
		<path id="SVGID_4_" d="M0,170.2c1.6,0.9,3.2,1.7,4.8,2.6c96.5,51.7,259.6,125.9,487.6,189.3C264.5,298.7,101.9,223.2,5.5,171.5
			c-1.9-1-3.7-2-5.5-3V170.2z"/>
	</defs>
	<clipPath id="SVGID_5_">
		<use xlink:href="#SVGID_4_"  style="overflow:visible;"/>
	</clipPath>
	
		<linearGradient id="SVGID_6_" gradientUnits="userSpaceOnUse" x1="0" y1="1218.7498" x2="1" y2="1218.7498" gradientTransform="matrix(409.196 174.5318 -174.5318 409.196 212616.5313 -498587.3438)">
		<stop  offset="0" style="stop-color:#D1EAF7"/>
		<stop  offset="0.1314" style="stop-color:#CBE8F7"/>
		<stop  offset="0.655" style="stop-color:#B6E1F8"/>
		<stop  offset="1" style="stop-color:#AEDEF8"/>
	</linearGradient>
	<polygon class="st2" points="-69.8,332.2 416.6,539.7 562.2,198.3 75.8,-9.1 	"/>
</g>
<g>
	<defs>
		<path id="SVGID_7_" d="M0,126.2c6.4,4.7,13.1,9.5,20.1,14.4c80.6,56.5,215.2,132.9,397.6,179.2C235.5,273.6,101.5,195.9,21,139.5
			c-7.3-5.1-14.3-10.1-21-15.1V126.2z"/>
	</defs>
	<clipPath id="SVGID_8_">
		<use xlink:href="#SVGID_7_"  style="overflow:visible;"/>
	</clipPath>
	
		<linearGradient id="SVGID_9_" gradientUnits="userSpaceOnUse" x1="0" y1="1218.7827" x2="1" y2="1218.7827" gradientTransform="matrix(409.1508 174.5125 -174.5125 409.1508 212608.7031 -498568.7813)">
		<stop  offset="0" style="stop-color:#D1EAF7"/>
		<stop  offset="0.1314" style="stop-color:#CBE8F7"/>
		<stop  offset="0.655" style="stop-color:#B6E1F8"/>
		<stop  offset="1" style="stop-color:#AEDEF8"/>
	</linearGradient>
	<polygon class="st3" points="-70.5,289.7 353.3,470.5 488.1,154.5 64.3,-26.3 	"/>
</g>
<g>
	<defs>
		<path id="SVGID_10_" d="M572.1,502.4c0-0.8,0.1-1.5,0.1-2.3C572,500.8,572,501.5,572.1,502.4"/>
	</defs>
	<clipPath id="SVGID_11_">
		<use xlink:href="#SVGID_10_"  style="overflow:visible;"/>
	</clipPath>
	
		<linearGradient id="SVGID_12_" gradientUnits="userSpaceOnUse" x1="0" y1="1218.7799" x2="1" y2="1218.7799" gradientTransform="matrix(0 1.3128 -1.3128 0 2172.0525 500.3548)">
		<stop  offset="0" style="stop-color:#D1EAF7"/>
		<stop  offset="0.1314" style="stop-color:#CBE8F7"/>
		<stop  offset="0.655" style="stop-color:#B6E1F8"/>
		<stop  offset="1" style="stop-color:#AEDEF8"/>
	</linearGradient>
	<rect x="572" y="500.1" class="st4" width="0.2" height="2.3"/>
</g>
<g>
	<defs>
		<path id="SVGID_13_" d="M706.6,512.8c0.1-2.1,0.2-4.1,0.1-6C706.2,508.3,706.1,510.2,706.6,512.8"/>
	</defs>
	<clipPath id="SVGID_14_">
		<use xlink:href="#SVGID_13_"  style="overflow:visible;"/>
	</clipPath>
	
		<linearGradient id="SVGID_15_" gradientUnits="userSpaceOnUse" x1="0" y1="1218.7836" x2="1" y2="1218.7836" gradientTransform="matrix(0 3.4321 -3.4321 0 4889.48 507.5181)">
		<stop  offset="0" style="stop-color:#D1EAF7"/>
		<stop  offset="0.1314" style="stop-color:#CBE8F7"/>
		<stop  offset="0.655" style="stop-color:#B6E1F8"/>
		<stop  offset="1" style="stop-color:#AEDEF8"/>
	</linearGradient>
	<rect x="706.1" y="506.9" class="st5" width="0.7" height="6"/>
</g>
<g>
	<defs>
		<path id="SVGID_16_" d="M754.9,791.9c-0.8,4.4,0.7,8.5-1.5,12c-6,9.5-17.6,9.4-16.1,22.5c-9.7,2.4-10.7-4.5-20.1-7.5
			c-11.2-3.5-30.9,4.6-31.8,17.9c-8.7,2.1-27.9,12.8-22.5,23.9c-12,0.7-31,4.9-27.8,21.9c-8.7,1.8-17.2,9.1-20.6,17.1
			c-3.2-10.3-2.7-27.2-10.6-35.2c-5.9-6-7.3-4-16.1-4.7c-6.3-22.7-29.4-35.9-54-19.2c-2.5-6.6-7.4-7.2-13.6-6
			c-17.9,3.5-19.7,22.9-26.4,35c-1.3,2.3-3.7,3-5.3,5.3c-6.9,9.7-9.6,7.9-12.5,19.7c-4.6,19-2.6,28.5,7.2,44.2
			c-8.8,1.2-25.3,9.9-28.4,19.2c-3.3-6.8-7.8-15-16.5-14c-8.3,0.9-21.2,12.7-23.7,20.5c-8.9,0.9-21.1,12.9-23.4,21.5
			c-2.8,10.1,5.8,15.8,7.6,25c2.1,10.8-3.3,19.6,8.2,27.1c4.5,3,5.1,2.4,10,3c6.6,0.8,13.9,0.1,20.6,0c32.9-0.3,65.3-2,98.2,1.2
			c31.1,3,62.6,8.4,93.9,8.5c9.2,0,18.4-0.5,27.6-1.1c15.1-0.9,30.2-1.8,45.4-0.1c21.8,2.5,43.6,2.6,65.3,1.8V773
			C761.4,777.3,756.3,784.3,754.9,791.9"/>
	</defs>
	<clipPath id="SVGID_17_">
		<use xlink:href="#SVGID_16_"  style="overflow:visible;"/>
	</clipPath>
	
		<linearGradient id="SVGID_18_" gradientUnits="userSpaceOnUse" x1="0" y1="1219.1854" x2="1" y2="1219.1854" gradientTransform="matrix(0 210.0176 -210.0176 0 256628.6094 826.1327)">
		<stop  offset="0" style="stop-color:#FFFCEB"/>
		<stop  offset="0.1462" style="stop-color:#EFF6EE"/>
		<stop  offset="0.5096" style="stop-color:#CCE9F3"/>
		<stop  offset="0.8073" style="stop-color:#B6E1F7"/>
		<stop  offset="1" style="stop-color:#AEDEF8"/>
	</linearGradient>
	<rect x="388.5" y="773" class="st6" width="379.5" height="279.3"/>
</g>
<g>
	<defs>
		<path id="SVGID_19_" d="M75.6,701.4l-1.1,4.3c-9.8-7-22.7-12.3-35-8.4C28,701.2,18.7,708.8,7.7,709c-2.3,0-4.1-0.1-5.5-0.3v146.2
			c2.5,0,5.1,0.1,6.9,0.7c5,1.6,13.4,4.7,17.7,7.4c3,1.8,3.4,4.1,5.9,5.9c9.8,6.9,22.5,10.6,34.3,10.6c12.5,0,16.4-6.7,27.1-10.9
			c18.3-7.1,47.7,3,65.7,6.8c6.1,1.3,23.5,8.6,29.5,5.3c3.8-2.1,5-8.8,7-12.2c4-6.7,8.9-11.6,15.4-16.1c9.7-6.7,20.3-3.8,31.3-0.9
			c6.9,1.8,14,3.6,21.3,3.1c18.4-1.4,28.4-6.4,48.5-8.6c25.7-2.8,59.8-33.2,84.2-24.7c13.5,4.7,28,15.8,42.2,17.2
			c11-17.3,37.4-20.6,54.7-28.1c4.5-1.9,7,0.2,7.7-5.4c1-8.6-16.9-16.4-24-16.2c-10.5,0.3-16.8,8.9-24.4,13.9
			c-0.1-10.7-0.8-25.1-4.8-34.9c-7-17-46.1-33.5-60.2-18.9c-8.1-5.4-57.3-25.6-54.9-1.4c-6.3-16.6-45.9-16.8-50.6-1
			c0.8-8.8-1.8-16.7-7.5-23.5c-4.7-5.7-5.5-7.4-8.7-13c-4.4-7.7-28.8-24-32.4-7.5c-4.2-26.1-39.5-10.6-37.7,10
			c-7.4,1.8-12.6,6-18.1,11.3c-4.9-5.7-8-16.8-17.2-16.9c-2.5-16.8-11.4-35-29.6-36c-1.6-0.1-3.2-0.1-5-0.1
			C105.9,670.8,73.1,676.8,75.6,701.4"/>
	</defs>
	<clipPath id="SVGID_20_">
		<use xlink:href="#SVGID_19_"  style="overflow:visible;"/>
	</clipPath>
	
		<linearGradient id="SVGID_21_" gradientUnits="userSpaceOnUse" x1="0" y1="1218.7561" x2="1" y2="1218.7561" gradientTransform="matrix(0 120.7599 -120.7599 0 147429.25 693.8908)">
		<stop  offset="0" style="stop-color:#D1EAF7"/>
		<stop  offset="0.1314" style="stop-color:#CBE8F7"/>
		<stop  offset="0.655" style="stop-color:#B6E1F8"/>
		<stop  offset="1" style="stop-color:#AEDEF8"/>
	</linearGradient>
	<rect x="2.2" y="670.8" class="st7" width="500.3" height="213.2"/>
</g>
<g>
	<defs>
		<rect id="SVGID_22_" y="0" width="768" height="1218.8"/>
	</defs>
	<clipPath id="SVGID_23_">
		<use xlink:href="#SVGID_22_"  style="overflow:visible;"/>
	</clipPath>
	<path class="st8" d="M356.1,1046.1l-0.1-36.8l-1-4.4l-1.1,3.6v-4.4l-0.2-1.9l-0.3,1.6l-1.1-4.8l-1,4.4l-5.6-38.3l-5.4,38.4
		l-0.7-4.6l-0.8,4.7l-0.5-1.1l-0.1,2.6l-0.1,3.5l-0.9-3.5l-1,4.2l0,36.8c2.6,1.2,4.1,2.2,10.2,2.3
		C350.5,1048.4,353.5,1047.4,356.1,1046.1"/>
	<path class="st9" d="M2.2,1052.3c1.6-1,4.4-2.1,6.3-2.4c1.2-0.2,2.4,0.2,3.5-0.1c1.3-0.3,2.4-1.5,3.9-1.3c1.2,0.1,1.5,1.2,2.5,1.4
		c0.6,0.1,4-3.5,4.5-3.9c1.9-1.4,4.5-3.3,7-3.1c1.7,0.1,2.7,0.8,3.4,2.3c1-0.5,1.6-1.6,2.5-2.3c1.5-1.2,3-1.5,4.8-1.6
		c0.6,0,1,0.3,1.6,0.2c1.4-0.3,2.6-1.8,4.1-2.2c1.8-0.5,3.1-0.1,4.8,0.8c1.2,0.7,3,3,4.3,3.3c1.4,0.3,2.4-0.8,3.5-2
		c1.7-1.9,3.5-3.8,6.7-3.2c2.1,0.4,2.9,2.5,4.9,2.6c1.7,0,1.8-1.5,3.3-2.6c2.2-1.6,3.4,0,5.6-0.4c0.8-0.2,1.3-1,2.2-1.4
		c0.3-0.1,3.2-0.4,3.2-0.6c-0.1-3.3,2.5-5.2,5.7-3.2c1.8-3,9.2,2.3,9,5.2c2.2,0.2,2.4-0.3,4.2-1.2c2.2-1.1,4.2-0.1,6.5,0.2
		c-0.1,0.4,0.2,1,0.1,1.5c1.2,0.2,1.7-1.7,2.6-2.3c0.6-0.4,1.7-1.1,2.2-1.3c0.5-0.3,0.7-0.9,1.8-1c0.8-0.2,1.7-0.3,2.5-0.5
		c2-0.4,2.5-0.2,4.1,1.3c0.4,0.4,0.2,0.9,0.7,1.1c0.4,0.2,1.1-0.2,1.5,0c0.4,0.2,0.3,0.9,0.7,1.1c0.3,0.2,1,0,1.2,0.1
		c0.8,0.6,0.4,1.3,1.8,1.3c0.9,0,1.5-1.2,2.6-1.3c0.7-3.9,4.8-2.9,7.5-3.2c0.5-2.7,3.3-2.7,5.3-3.2c1.2-0.3,0.9-1,2.6,0
		c1.5,0.9,4.9,4.1,5,5.8l2.4,3.7c0,1.1,0.1,2.3,0,3.4c-8,1.9-15.8,3.9-24,4.8c-7.8,0.9-15.6,1.8-23.4,2c-6.5,0.2-12.8,1.2-19.3,1.9
		c-4.2,0.5-8.4,1.4-12.6,1.6c-4.5,0.2-9.1-0.1-13.6,0c-9.2,0.2-18.3,1.5-27.5,1.5c-2.2,0-25.9,1.5-32.1,0.3v-2.2
		C2.5,1052.7,2.2,1052.2,2.2,1052.3"/>
	<path class="st10" d="M77,1043.1c0.8-1,1.9-0.6,2.6-1.7c0.5-0.8,0.4-1.8,1.2-2.4c1.3-1,3.5-1,4.9-0.5c0.3-0.7,0.1-1.5,0.3-2.2
		c0.2-0.7,0.7-1.2,1.2-1.8c0.5-0.6,0.3-1,1.3-0.9c0.4,0,1.1,0.5,1.5,0.8c0.7,0.4,0.7,0.6,0.9,1.3c0.2,0.7-0.1,2.5,1.3,2.1
		c1.5-0.5,0-2.5-0.5-3c0.6-0.5,2.4-0.8,3.1-0.3c0.7,0.4,0.5,1.3,0.9,1.8c0.8,0.9,2.1,1.2,2.7,2.5c-1.3,1.3-1.9,1.8-3.6,2.1
		c-0.7,0.1-2.6,0.9-1.4,1.9c1.1-0.5,2.5-0.1,3.6-0.4c0.3-0.1,0.4-0.5,0.7-0.6c0.6-0.2,1.3,0,1.9-0.1c1.5-0.4,3.1-1.5,4.9-1.8
		c0.6-0.1,1.3-0.3,2-0.1c1,0.3,1,1.2,1.7,1.7c2.1,1.5,4.5-2.1,5.3-3.7c0.8-1.5,0.9-2,2.4-2.4c1.8-0.4,4.2-0.4,6.1,0.2
		c0.1,0.8-0.3,1-0.9,1.4c-0.5,0.3-1.3,0.3-1.7,0.8c-0.2,0.2,0,0.7-0.2,1c-0.2,0.4-2.2,2.3-1,2.6c0.2,0,1.6-0.9,1.7-1
		c0.7-0.7,0.9-1.9,1.8-2.4c0.6-0.3,2.1-0.3,2.7-0.2c1.4,0.3,2.6,2.3,4,1.9c1.1-0.3,1.5-0.9,2.9-0.8c0.7,0,1.3,0.1,1.9,0.1
		c0.3-1.4,1.6-1.2,2.6-1.4c1.2-0.3,1.4-0.6,2.2-1.4c0.7-0.8,1.4-1.6,2.4-1.7c1.2-0.1,2.2,0.9,3.3,0.6c1.2-0.4,1.3-1.1,2.8-1
		c1.8,0.2,3.3,1.9,3.7,3.7l0.3,2c0.2,2.1-1.4,3.9-3.2,4.6c-5,2-11.2,1.2-16.5,1.1c-9.8,0-19.6,1-29.5,0.7c-5.6-0.2-11.3,0-16.9-0.3
		c-2.7-0.1-6-0.3-8.6,0.4C75.8,1045.6,76.6,1043.6,77,1043.1"/>
	<path class="st10" d="M58.2,1044.2c0.4-0.4,0.8-0.8,1.1-1.3c0.3-0.6,0.3-1.1,0.8-1.5c0.9-0.8,2.4-1.2,3.5-1.5
		c0.9-0.2,1.7-0.2,2.6,0.2c0.8,0.3,2,0.6,2.6,1.1c0.3,0.2,0.8,0.6,0.9,0.8c-1.1,0.3-2,1.7-1.8,3c0.7,0.2,1-0.6,1.3-1
		c0.3-0.5,0.5-0.7,1.1-1c0.9-0.4,1.1-1,1.7-1.8c0.4-0.5,0.8-0.8,1.3-1.2c1.1-0.8,1.9-0.7,3.3-0.6c0.7,0,1.5,0,1.4,0.9l-0.2-0.1
		c-0.1,0.8-1.2,1-1.8,1.2c-0.6,0.2-0.8,0.5-0.9,1.2c-0.1,0.5-0.2,0.8-0.4,1.2c-0.4,0.6-0.4,0.8-0.4,1.6c0,0.7,0.1,0.7-0.6,0.8
		c-1.4,0.1-2.7-0.3-4,0c-1,0.2-1.9,0.7-2.9,0.8c-1.4,0.2-2.8-0.5-4.2-0.2c-0.8,0.2-1.5,0.5-2.4,0.5c-0.6,0-1.1,0.2-1.7,0.2
		c-0.3,0-1.4,0.1-1.7-0.1C55.7,1046.6,57.7,1044.7,58.2,1044.2"/>
	<path class="st11" d="M12.1,1051.5c1.3-0.4,2-1.7,3.4-0.7c0.6,0.4,0.7,0.7,1.5,0.6c0.6-0.1,1.3-0.3,1.9-0.6
		c1.7-0.6,4.3-0.7,5.1-2.6c0.5-1.2,1.9-1,2.7-2.1c0.4-0.6,0.4-0.9,1.2-1.2c0.6-0.2,2.5-0.9,3.1-0.5c0.4,0.3,0,0.3,0.3,0.6
		c0.3,0.5,0.6,0.6,1.1,0.9c0.9,0.6-0.1,1.1,0.4,1.9c0.3,0.4,1.3,0.2,1.8,0.1c1-0.4,1.2-1.1,1.5-2c0.4-1.2,1.3-1,1.9-1.8
		c0.5-0.6,0.7-1.2,1.5-1.4c0.5-0.2,2.1-0.4,2.6-0.1c0.5,0.4-0.3,1.1-0.5,1.5c-0.5,0.8-1,2.3,0.5,2.5c0.4-0.7,0.6-1.5,0.8-2.2
		c0.3-0.9,1-1.2,1.7-1.8c1.3-1,2.3-1.4,3.9-1.3c1,0.1,1.9,0.4,2.6,1c0.3,0.3,0.5,0.5,0.9,0.7c0.9,0.5,1.4,0.8,2,1.8
		c0.4,0.6,1,1.4,1.1,2.2v0.8c-1.4,0.4-2.7,0.9-4.1,1.2c-1.8,0.4-3.8,0.3-5.6,0.5c-2.1,0.2-4.1,0.4-6.2,0.8c-3.2,0.6-6.3,1-9.5,1.4
		c-3.2,0.5-6.4,0.6-9.7,0.9c-3.2,0.3-6.4,0.7-9.6,1.2c-1.2,0.2-2.3,0.4-3.5,0.3C7,1051.3,10.5,1052.1,12.1,1051.5"/>
	<path class="st12" d="M153.6,1042.2c0,0-95.9,0.8-151.5,11.8h152.4L153.6,1042.2z"/>
</g>
<g>
	<defs>
		<path id="SVGID_24_" d="M720.7,1004.4c-1,2.3-3.5,4.2-4.1,6.8c-0.5,2.2,1.2,4.5,0.9,6.6c-1.7,0.1-3.3,0-4.9-0.3
			c-1.7-0.3-3.7-0.8-5.5-0.2c-2.5,0.8-5.7,4.6-6.2,7.2c-0.3,1.6,0.2,3,0.8,4.4l-4.1,3.5c-0.4,0.9-1.1,1.9-1.5,2.8
			c-1.4,3.4-0.5,6.9,0.4,10.3c1.1,4.2,2.5,8,6.3,10.4c2.4,1.6,5.3,1.4,8.1,1.6c4.7,0.3,9.4,0.5,14.2,0.4c8.3-0.2,16.6-1.3,24.9-1.6
			c3.5-0.1,7.2,0,10.9,0.2c2.4,0.1,4.8,0.2,7.1,0.2V1023c-1.1-0.1-2.3-0.1-3-0.5c-0.9-0.6-1-1.4-1.6-2.4c-0.7-1.1-1.5-2-2.6-2.7
			c-1.7-1.1-4.3-2.5-6.4-2.4c-0.2-0.6-0.5-1.2-1-1.6c-0.4-0.4-1.2-0.6-1.5-0.9c-0.7-0.8-0.8-2.2-1.5-3.1c-3.4-4.3-6.3,1.8-7.9,4.4
			c-1.3-3.9-6.6-2.4-8.9-0.2c-2.8-1.7-2.5-5.1-3.3-8c-0.7-2.3-2.8-4.3-5.2-4.5c-0.1,0-0.2,0-0.3,0
			C723.1,1001.1,721.4,1002.9,720.7,1004.4"/>
	</defs>
	<clipPath id="SVGID_25_">
		<use xlink:href="#SVGID_24_"  style="overflow:visible;"/>
	</clipPath>
	
		<linearGradient id="SVGID_26_" gradientUnits="userSpaceOnUse" x1="0" y1="1218.7594" x2="1" y2="1218.7594" gradientTransform="matrix(-73.5088 0 0 -73.5088 768.9516 90619.1328)">
		<stop  offset="0" style="stop-color:#718431"/>
		<stop  offset="0.6029" style="stop-color:#5C7122"/>
		<stop  offset="1" style="stop-color:#546A1C"/>
	</linearGradient>
	<rect x="694.8" y="1001.1" class="st13" width="73.3" height="57"/>
</g>
<g>
	<defs>
		<rect id="SVGID_27_" y="0" width="768" height="1218.8"/>
	</defs>
	<clipPath id="SVGID_28_">
		<use xlink:href="#SVGID_27_"  style="overflow:visible;"/>
	</clipPath>
	<path class="st14" d="M702,1033.2c0.2-2.2,1.2-4.1,1.9-6.1c0.4-1.1,0.4-2,1.2-3c2.1-2.7,6.2-2.4,9.3-2.2c0.9,0.1,4.3,0.8,5.3,0.2
		c1.6-1,0.7-2.8,0.8-4c0-0.5,0.6-1.5,0.6-1.7c-0.1-0.9-1-1.4-1.3-2.4c-0.2-0.9,0.5-4.7,1.2-5.5c2.2-2.6,6.8,1.6,7.7,3.7
		c1.1,2.7,0,6.5,0.7,9.3c4-0.1,5.2,1.9,7.3,4.4c1.8,2.1,3.7,2.8,4.5,5.8c0.5,1.8,0.4,3.9,0.5,5.7c1.2-1.8,1.8-5,1.5-7.1
		c-0.3-2.2-1.7-2-3-3.5c-1.5-1.7-0.7-4.5-3.1-5.7c-1.5-0.7-3.3-0.2-4-2.2c-0.5-1.4,0.4-3.2,2-2.8l0.8,0.5c2.2,0.1,3.9,1.9,5.6,3.1
		c2.3,1.7,3.2,2.3,4.3,4.9c0.7,1.6,1.7,2.8,1.9,4.6c0.1,1.1,0,2.2,0,3.3c6.6-2.8-0.9-11.4-3.1-14.3c1.9-0.6,0.9-3,2.8-3
		c2.8,0,3.5,4,4.6,5.5c0.2,0.2,0.9,0.2,1.2,0.4c1.2,0.9,2.3,2,3.2,3.2c1.2,1.4,1.9,2.8,2.3,4.6c0.7,3.2-0.5,6.3-0.4,9.5
		c3.4-0.1,4.7-3.6,4.2-6.6c-0.2-1.4-1-2.6-1.2-4c-0.1-0.7,0-1.3-0.2-2c2.6,0.8,4,3,6,4.8c0.5,0.5,1.4,0.9,2,1.3v23.7
		c-1.2,0-3.1-0.1-3.2-0.1c-3.6,0.1-7.3,0.5-10.9,0.8c-9.1,0.9-18.1,0.9-27.2,1.4c-3.7,0.2-9.8,1.4-13.2-0.1
		c-6.9-3.1-7.9-10.1-10.7-16.2C702.5,1038.6,701.7,1036.2,702,1033.2"/>
</g>
<g>
	<defs>
		<path id="SVGID_29_" d="M662.6,1018.1c-1,0.6-3,1.8-3.2,3.2l-8.5,7.7c-6.6,6.1-9.3,20.3,0.8,24.2c3.2,1.2,6.5,2.2,9.8,3.2
			c3.9,1.2,8,0.2,12-0.2c3.4-0.3,6.9,0,10.3,0.3c2.4,0.2,4.8,0.4,7.1,0.4c3.3,0,6.5-0.1,9.7-0.7c3.1-0.6,6.1-1.6,9.2-2
			c2.9-0.3,5.7,0.2,8.5,0.6c2.5,0.4,5.1,0.9,7.7,0.7c1-0.1,2-0.1,2.6-1.1c0.4-0.8,0.1-1.4,0.2-2.1c0.2-0.9,1-1.6,1.3-2.6
			c1.4-3.9-1.7-7.3-4.4-9.6c-2.9-2.4-5.8-2.3-9.4-2c-0.9,0.1-1.7,0.4-2.6,0.5c-0.2,0.2-0.5,0.3-0.8,0.4c-0.4-0.1-0.5-0.8-0.7-1.1
			c-0.6-0.9-1.8-1.4-2.3-2.2c-0.3-0.4-0.3-1.3-0.4-1.7c-0.7-2.3-2.7-3.6-4.1-5.6c-0.6-0.9-0.9-1.7-1.9-2.2c-1.7-0.8-4.5-0.1-6.2,0.3
			c-1.8,0.4-5.1,0.8-4.7,3.3c-0.3,0-0.7,0-1.1,0c-1,0-1.9-0.1-2.7,0.5c-0.7-1.4-0.6-2.8-1.7-4.1c-0.8-1-1.9-1.7-2.9-2.4
			c-2-1.3-4.2-1.6-6,0.3c-1.9-2.2-4-3.2-6.2-4.8c-0.8-0.6-1.4-1.7-2.5-2.2c-0.6-0.3-1.3-0.4-2-0.4
			C665.7,1016.6,663.9,1017.3,662.6,1018.1"/>
	</defs>
	<clipPath id="SVGID_30_">
		<use xlink:href="#SVGID_29_"  style="overflow:visible;"/>
	</clipPath>
	
		<linearGradient id="SVGID_31_" gradientUnits="userSpaceOnUse" x1="0" y1="1218.7563" x2="1" y2="1218.7563" gradientTransform="matrix(-85.0489 0 0 -85.0489 730.0316 104690.9922)">
		<stop  offset="0" style="stop-color:#718431"/>
		<stop  offset="0.6029" style="stop-color:#5C7122"/>
		<stop  offset="1" style="stop-color:#546A1C"/>
	</linearGradient>
	<rect x="641.5" y="1016.6" class="st15" width="89.9" height="40.9"/>
</g>
<g>
	<defs>
		<rect id="SVGID_32_" y="0" width="768" height="1218.8"/>
	</defs>
	<clipPath id="SVGID_33_">
		<use xlink:href="#SVGID_32_"  style="overflow:visible;"/>
	</clipPath>
	<path class="st16" d="M654.1,1037.2c0.1-2.8,0.8-3.8,2.9-5.7c3-2.7,3.5-5.4,7.7-6.8c1.7-0.6,3.1-0.6,4.8-0.8
		c0.7-0.1,3.3-0.8,3.8-0.6c1.4,0.6,3.2,4,3.8,5.3c0.7,1.8,0.7,3.6,1.1,5.5c1.4-0.3,3.3-0.3,4.5-0.8c1.2-0.5-0.1-1.6,2-1.4
		c1.7,0.1,1.7,1.4,2.5,2.7c1.5-0.1,3,1,3.9,2.1c0.4-3.7,3.7-5.2,7.1-5.2c2.2,0,4,0.8,5.6,2.3c1.4,1.3,1.4,2.9,2.4,4.1
		c0.7,0.8,2.1,0.5,2.3,1.9c0.2,0.8-1,1.3-0.8,2.1c0.3,1.4,1.7,1,2.4,2.1c0.4,0.5-0.2,1.3,0.3,1.8c0.4,0.5,1.6,0.4,1.8,0.7
		c0.8,1.1,0.1,3.2,0.4,4.5c1.9-0.5,2.7-4.5,1.8-6.3c-0.3-0.6-1.7-1.2-1.7-1.8c0-1,0.7-0.3,1-0.7c1.4-1.6,2.4-1.2,4.3-1
		c2.4,0.3,3.8,0.2,5,2.5c0.2,0.3-0.1,1,0.1,1.4c0.2,0.5,0.8,0.8,1.1,1.5c0.7,2-0.4,2.7-1,4c-0.5,1.3-0.4,1.8-1.3,3l-1.3,4.3
		c-5.5,0.9-11.3,0.5-16.9,0.5c-4.2,0-8.4,0.3-12.5-0.5c-3.3-0.7-6.3-2.2-9.6-2.5c-3.6-0.3-7.2,0.1-10.8-0.1
		c-2.9-0.1-6.5,0.4-9.1-0.9c-2.5-1.3-6.4-3.5-7.5-6.2C653.2,1045.2,654,1040.3,654.1,1037.2"/>
</g>
<g>
	<defs>
		<path id="SVGID_34_" d="M641.2,1007.1c-1.9,0.3-5.5,2-5.4,4.4c-0.5-0.4-1-0.5-1.6-0.6c-0.5-0.1-1.1,0-1.6,0.1
			c-0.6,0.1-1.2,0.2-1.6,0.1c-1-0.3-1.8-1.4-3-1.7c-3.3-0.7-6.4,3.5-6.3,6.4l-5.2,8.5c-0.4-0.2-1.6,0.9-2.1,1.3
			c-1.7,1.5-3.6,3.8-3.8,6.1c0,0.5,0.2,1.2,0.1,1.7c-0.5,1.7-2.8,2.8-3.6,4.4c-1.3,2.4-0.6,5.5-0.2,8c0.6,2.9,1.6,4.8,4.2,6.3
			c5.1,3,11.5,4.5,17.3,5.4c12.8,1.9,26.5,2.4,39.3,0.5c4.8-0.7,9.9-1.3,14.6-2.7c0.9-0.3,1.7-0.7,2.6-0.6c0.1-1.2,0-2.1-0.5-3.1
			c-1.1-2.3-3-2.2-5-2.1c-1,0.1-2,0.1-3-0.1c-0.9-0.2-1.6-1.3-2.5-1.6c-2.3-0.8-3.8,0.8-5.7,1.3c-2.1,0.5-4.7,0-6.8,0.7
			c1.1-1,0.7-3.4-0.1-4.6c1.7-1.4,0.5-4.3-1-5.4c0.2-1,1-2,1.7-2.6c1.3-1.1,1.8-0.5,3.6-0.9c1.8-0.5,2.6-1.5,3.1-3.2
			c0.1-0.4-0.1-0.6,0.1-1c0.2-0.4,0.9-0.7,1.1-1.2c0.9-1.9-0.1-4.6-1.4-5.9c-0.8-0.9-0.7-1-1.2-1.9c-1.8-2.9-6.5-5.6-9.8-3.7
			c1.2-2.8,0-6.8-2.5-8.5c-1.3-0.9-2.6-0.9-3.9-1.4c-0.3-0.1-0.4-0.4-0.8-0.6c-2.4-1.1-4.6-2-7.2-2
			C642.3,1007,641.8,1007,641.2,1007.1"/>
	</defs>
	<clipPath id="SVGID_35_">
		<use xlink:href="#SVGID_34_"  style="overflow:visible;"/>
	</clipPath>
	
		<linearGradient id="SVGID_36_" gradientUnits="userSpaceOnUse" x1="-5.572254e-004" y1="1218.7554" x2="0.9994" y2="1218.7554" gradientTransform="matrix(-77.9882 0 0 -77.9882 684.8386 96082.125)">
		<stop  offset="0" style="stop-color:#718431"/>
		<stop  offset="0.6029" style="stop-color:#5C7122"/>
		<stop  offset="1" style="stop-color:#546A1C"/>
	</linearGradient>
	<rect x="605.6" y="1007" class="st17" width="79.3" height="53.1"/>
</g>
<g>
	<defs>
		<rect id="SVGID_37_" y="0" width="768" height="1218.8"/>
	</defs>
	<clipPath id="SVGID_38_">
		<use xlink:href="#SVGID_37_"  style="overflow:visible;"/>
	</clipPath>
	<path class="st18" d="M621.7,1032.3c0.3-3.6,2-4.7,3.3-7.6c1.2-2.6-0.2-5.4,1.4-7.7c0.6-0.9,2.3-2.5,3.2-2.9c1.3-0.6,2.3,0.5,3.4,0
		c0.9-0.4,0.7-1.8,1.8-2c1.2-0.2,3.4,2.1,4.7,2.5c0-1.7,2.5-4.7,4.1-4.8c1.8,0,3.1,2.5,4.7,3c1.6,0.5,4.4-0.1,5.8,1.3
		c0.7,0.7,1.4,2.2,0.1,3c-0.9,0.6-0.6-0.2-1.4-0.5c-2-0.5-3.3-1.2-5.5-1c1,0.7,2.1,0.6,3,1.7c1.3,1.5,0.9,3.5,1.1,5.3
		c1.5,0.1,2.6-0.4,4,0.2c1.1,0.5,3.3,1.8,4.2,2.7c2.4,2.2,4.9,5.7,0.5,7.3c-1.1,0.4-3.9,1.2-5,0.2c-1.5-1.4,0.2-2.3-2.8-3
		c-1.7-0.4-6.1-1.4-6.3,1.2c2.9,0.2,7.9,2.8,9.1,5.6c0.5,1.1,0.5,2.3,1,3.2c1.7,0,3.1,2.4,3.2,3.8c0.3,3.1-4.1,7.3-7,7.3l-5.5,1.8
		c-1.1,0.1-2.1-0.6-3.3-0.8c-3.6-0.5-6,0-8.8-2.8c-1.8-1.9-2.6-3.7-5.2-4.9c-1.5-0.7-4.4-0.3-5.4-1.5c-0.5-0.5-0.6-2.6-0.9-3.4
		C622.1,1036.9,621.4,1035.3,621.7,1032.3"/>
</g>
<g>
	<defs>
		<path id="SVGID_39_" d="M599.3,1013.1c-2.2,0.3-3.7,1-5.3,2.4c-0.4,0.4-0.7,0.7-1.1,1c-1,0.7-2,1-2.8,1.9
			c-0.6-2.3-3.6,1.2-4.2,1.9c-1.5,1.7-1.7,3.6-2.2,5.6l-5.3,3.6c-1.3,1.2-2.7,2.5-3.3,4.3c-0.8,2.2,0.3,2.6,1.1,4.4
			c1,2.1,0.3,4.8,1,7.1c1,3.4,4,6.1,7.6,6.6c2,0.3,4,0,6-0.1c0.3,0,1.6-0.2,2,0c1.4,0.6,1.7,2.5,2.6,3.6c4.8,5.9,14.4,2.3,20.5,1.9
			c2.9-0.2,6.2,0.6,9.1,0.9c4.5,0.5,8.9,1.5,13.5,1.5c4,0,9.7,0.1,12.2-3.6c0.4-0.6,0.8-1.6,1-2.1c0.7-1.3,1.3-2,1.2-3.8
			c-0.1-2.1-1.2-4.3-3.3-4.9c-0.5-0.1-1-0.1-1.5-0.1c-0.4,0-0.8,0-1.1,0c0-4-7.1-7.1-10.5-6.9c0-1.4-0.8-2.1-1.1-3.3
			c-0.3-1-0.2-0.5,0.2-1.8c0.2-0.5,0.4-0.9,0.5-1.3c0.8-3.5,0.1-7.8-3.6-9.3c-1.1-0.4-1,0.1-1.4-0.8c-0.2-0.5,0-1.8,0-2.4
			c-0.1-2-0.6-3.2-2.5-4.1c-3.1-1.5-7.5-1.1-10.7-0.3c-1.8,0.5-3.3,1.7-4.9,2.3c-1.4-3-4.8,0.1-6.4,1c-1.1-0.6-0.7-2.4-1.3-3.4
			c-0.9-1.6-2.3-2-3.9-2C600.7,1013,600,1013,599.3,1013.1"/>
	</defs>
	<clipPath id="SVGID_40_">
		<use xlink:href="#SVGID_39_"  style="overflow:visible;"/>
	</clipPath>
	
		<linearGradient id="SVGID_41_" gradientUnits="userSpaceOnUse" x1="0" y1="1218.7898" x2="1" y2="1218.7898" gradientTransform="matrix(-51.5403 15.7943 -15.7943 -51.5403 19907.0488 63840.6016)">
		<stop  offset="0" style="stop-color:#D2BE16"/>
		<stop  offset="0.6544" style="stop-color:#838A1B"/>
		<stop  offset="1" style="stop-color:#586E1D"/>
	</linearGradient>
	<polygon class="st19" points="646.3,990.9 560.6,1017.1 581,1083.4 666.6,1057.1 	"/>
</g>
<g>
	<defs>
		<rect id="SVGID_42_" y="0" width="768" height="1218.8"/>
	</defs>
	<clipPath id="SVGID_43_">
		<use xlink:href="#SVGID_42_"  style="overflow:visible;"/>
	</clipPath>
	<path class="st20" d="M587.6,1030.7l2.4-8.1c-0.4-3.8,9.1-7.6,9.3-2.3c1.9-0.7,3.2,2.2,3.8,3.5c0.8-0.6,2-0.6,2.7-1.1
		c1.3-0.8,2.1-1.9,3.8-1.9c4.6,0,9.7,5.5,10.1,10c2-2,1.4-5.4-0.1-7.6c-1.2-1.7-3-1.4-4.1-2.7c1-1,3.1-1.6,4.5-1.8
		c1.9-0.2,2.6,0.9,4.1,1.4c1.8,0.6,2.6,0.4,4,2c1.1,1.3,1,2,1.2,3.6c0.4,3,3.8,4.1,3.2,7.7c-0.2,1.3-1.3,1.5-1.7,2.6
		c-0.3,0.7,0,2.2,0,3c1.2,0.3,2.8,1.3,2.8,2.7c2.6-0.1,4.3,2.3,4.1,4.7c-1.4-1.3-2.7-1.9-4.3-2.4c-2-0.6-7.6-1.6-8.2,1.6
		c1.2,0.4,3-0.9,4.3-1c1-0.1,1.7,0,2.6,0.6c0.9,0.6,1.1,1.5,1.7,2.2c0.6,0.7,1.4,1.1,1.9,2.1c2.5-1.5,6.3-0.4,6.9,2.4
		c0.1,0.7,0.1,1.8-0.1,2.4c-0.2,0.5,0.1,0.6-0.4,0.9c-0.1,0.1-1.1,0-1.1,0c-2.2,0.2-4.5,0-6.8,0.2c-7,0.4-13.9,1.6-20.9,1.9
		c-2.8,0.1-5.4,0.1-8-0.7c-4.6-1.4-10.1-3.5-13.4-7.3c-2.7-3.2-0.9-7.3-2.1-11c-0.6-1.7-1.8-3.3-2-5.1
		C587.7,1032.3,587.9,1031.5,587.6,1030.7"/>
</g>
<g>
	<defs>
		<path id="SVGID_44_" d="M560.4,1012.3c-1.5-1-2.5-1.6-4.3-1.1c-2.1,0.6-4.3,2.1-4.5,4.3c-0.1,0.5,0,1.1,0,1.7l-2.2,1.6
			c-0.9-0.5-2-0.4-3,0c-2,0.8-2.2,2.1-2.7,3.8c-1.3,3.8-2.8,6.8-2.6,10.9c0.3,3.9,2,6.7,5.1,8.9c1,0.7,1,0.1,1.4,1.7
			c0.7,3.6,2.4,4.9,6.2,5.2c0.9,0.1,1.8,0,2.8-0.1c2-0.1,4.1-0.3,5.6,0.6c2.5,1.3,4,4.1,6,5.9c2.8,2.6,6,1.6,9.4,0.7
			c2.9-0.9,6.8-1.5,9.8-0.7c0.8,0.2,1.5,0.6,2.3,0.9c3.3,1.3,7.3,1.4,10.7,0.3c1.2-0.4,2.5-0.2,3.9,0c2.1,0.3,4.2,0.6,6-1.3
			c0.3-0.4,0.3-0.9,0.7-1.2c0.2-0.2,0.9-0.1,1.1-0.4c0.6-0.5,0.6-1.3,0.5-2c1.1-0.7,1-1.7,1.3-3c0.2-0.8,0.9-1.3,1.1-2.1
			c0.5-1.6-0.2-3.7-0.8-5.1c-0.4-0.9-1.5-2.1-1.7-3c-0.2-0.7,0.1-1.5,0-2.3c-0.3-4.3-3.8-8.9-8.1-9.5c-0.9-0.1-1.9,0-2.9,0.2
			c-1.1,0.2-2.2,0.3-3.1,0.1c-0.5-0.1-0.6-0.4-1-0.5c-1.4-0.5-5.1-1.2-6.4-0.3c-0.5,0.4-0.8,1.5-1,2.1c-0.3-2.3-3.4-3.7-5.5-3.6
			c-0.6-1.9-5.3-2.8-5.7-0.6c-0.1-1-1-1.2-1.5-1.9c-0.5-0.8-0.3-1-0.5-1.8c-0.5-1.9-1.9-2.1-3.5-2.9c0.8-1.8,1.7-1.5,2.9-1.2
			c0.5,0.1,1.1,0.3,1.7,0.2c-0.3-3.8-4-5-7.2-5.5c-1.4-0.2-3.5-0.6-5.4-0.6C563.2,1010.4,561.3,1010.8,560.4,1012.3"/>
	</defs>
	<clipPath id="SVGID_45_">
		<use xlink:href="#SVGID_44_"  style="overflow:visible;"/>
	</clipPath>
	
		<linearGradient id="SVGID_46_" gradientUnits="userSpaceOnUse" x1="0" y1="1218.7559" x2="1" y2="1218.7559" gradientTransform="matrix(-74.0205 0 0 -74.0205 615.1202 91247.3359)">
		<stop  offset="0" style="stop-color:#718431"/>
		<stop  offset="0.6029" style="stop-color:#5C7122"/>
		<stop  offset="1" style="stop-color:#546A1C"/>
	</linearGradient>
	<rect x="540.8" y="1010.4" class="st21" width="74.8" height="47.9"/>
</g>
<g>
	<defs>
		<path id="SVGID_47_" d="M539.6,1013.5c-2.4,0.3-5,2.6-5.3,5c-1-1.6-2.4,0.7-3.1,1.1c-1.4,0.6-1.2-0.5-1.8-0.7c-2.6-1-5.2,2-5,4.5
			l-4.1,5.2c-1.2,2.6-0.3,5.4,1.4,7.6c1.4,1.8,2.9,2.3,5.1,2.3c0.3,0,0.9-0.1,1.4-0.2c1-0.2,2.1-0.3,2.6,0c1.3,0.8,1.2,3.8,1.9,5.1
			c1.1,2.2,3.8,3.5,6,4.4c4.3,1.7,9.6,0.8,14.2,0.6c3.6-0.1,6.9-0.7,10.5-1.3c1.2-0.2,2.1-0.1,3.3,0.2c2.1,0.5,6.2,1.5,7.1-1.5
			c0.7-2.5-1.4-4.9-3.6-5.6c0.4-1.3,1.2-2.1,1-3.7c-0.2-1.3-0.8-2.5-1.9-3.3c1.1-2.2-2.9-4.5-4.6-4.8c-0.6-0.1-1.2,0-1.8,0.1
			c-0.6,0.1-1.1,0.2-1.6,0.1c-0.6-0.1-1-0.8-1.8-0.7c0-0.8,0.1-1.6-0.6-2.2c-0.5-0.5-1-0.4-1.5-0.3c-0.3,0.1-0.6,0.1-0.9,0.1
			c-1-0.2-2-1.4-2.3-2.6c-0.7-2.8,1.4-5.6-1.9-7.4c-1.9-1-5.5-1.4-6.7,0.9c-0.1-2-3.5-2.8-5.4-2.8
			C539.9,1013.4,539.7,1013.4,539.6,1013.5"/>
	</defs>
	<clipPath id="SVGID_48_">
		<use xlink:href="#SVGID_47_"  style="overflow:visible;"/>
	</clipPath>
	
		<linearGradient id="SVGID_49_" gradientUnits="userSpaceOnUse" x1="0" y1="1218.7538" x2="1" y2="1218.7538" gradientTransform="matrix(-53.818 0 0 -53.818 573.4852 66622.2969)">
		<stop  offset="0" style="stop-color:#718431"/>
		<stop  offset="0.6029" style="stop-color:#5C7122"/>
		<stop  offset="1" style="stop-color:#546A1C"/>
	</linearGradient>
	<rect x="518.9" y="1013.4" class="st22" width="55.3" height="35.8"/>
</g>
<g>
	<defs>
		<path id="SVGID_50_" d="M226.5,1013.1c-2.1,0.3-3.7,1-5.3,2.4c-0.4,0.4-0.7,0.7-1.1,1c-1,0.7-2,1-2.8,1.9
			c-0.6-2.3-3.6,1.2-4.2,1.9c-1.5,1.7-1.7,3.6-2.2,5.6l-5.3,3.6c-1.3,1.2-2.7,2.5-3.3,4.3c-0.8,2.2,0.3,2.6,1.1,4.4
			c1,2.1,0.3,4.8,1,7.1c1,3.4,4,6.1,7.6,6.6c2,0.3,4,0,6-0.1c0.3,0,1.6-0.2,2,0c1.4,0.6,1.7,2.5,2.6,3.6c4.8,5.9,14.4,2.3,20.5,1.9
			c2.9-0.2,6.2,0.6,9.1,0.9c4.5,0.5,8.9,1.5,13.5,1.5c4,0,9.7,0.1,12.2-3.6c0.4-0.6,0.8-1.6,1-2.1c0.7-1.3,1.3-2,1.2-3.8
			c-0.1-2.1-1.2-4.3-3.3-4.9c-0.5-0.1-1-0.1-1.5-0.1c-0.4,0-0.8,0-1.1,0c0-4-7.1-7.1-10.5-6.9c0-1.4-0.8-2.1-1.1-3.3
			c-0.3-1-0.2-0.5,0.2-1.8c0.2-0.5,0.4-0.9,0.5-1.3c0.8-3.5,0.1-7.8-3.6-9.3c-1.1-0.4-1,0.1-1.4-0.8c-0.2-0.5,0-1.8,0-2.4
			c-0.1-2-0.6-3.2-2.5-4.1c-3.1-1.5-7.5-1.1-10.7-0.3c-1.8,0.5-3.3,1.7-4.9,2.3c-1.4-3-4.8,0.1-6.4,1c-1.1-0.6-0.7-2.4-1.3-3.4
			c-0.9-1.6-2.3-2-3.9-2C227.8,1013,227.2,1013,226.5,1013.1"/>
	</defs>
	<clipPath id="SVGID_51_">
		<use xlink:href="#SVGID_50_"  style="overflow:visible;"/>
	</clipPath>
	
		<linearGradient id="SVGID_52_" gradientUnits="userSpaceOnUse" x1="0" y1="1218.7898" x2="1" y2="1218.7898" gradientTransform="matrix(-51.5413 15.7946 -15.7946 -51.5413 19534.5996 63841.7969)">
		<stop  offset="0" style="stop-color:#D2BE16"/>
		<stop  offset="0.6544" style="stop-color:#838A1B"/>
		<stop  offset="1" style="stop-color:#586E1D"/>
	</linearGradient>
	<polygon class="st23" points="273.5,990.9 187.8,1017.1 208.1,1083.4 293.8,1057.1 	"/>
</g>
<g>
	<defs>
		<rect id="SVGID_53_" y="0" width="768" height="1218.8"/>
	</defs>
	<clipPath id="SVGID_54_">
		<use xlink:href="#SVGID_53_"  style="overflow:visible;"/>
	</clipPath>
	<path class="st24" d="M214.8,1030.7l2.4-8.1c-0.4-3.8,9.2-7.6,9.3-2.3c1.9-0.7,3.2,2.2,3.8,3.5c0.8-0.6,2-0.6,2.7-1.1
		c1.3-0.8,2.1-1.9,3.8-1.9c4.6,0,9.7,5.5,10.1,10c2-2,1.4-5.4-0.1-7.6c-1.2-1.7-3-1.4-4.1-2.7c1-1,3.1-1.6,4.5-1.8
		c1.9-0.2,2.6,0.9,4.1,1.4c1.8,0.6,2.6,0.4,4,2c1.1,1.3,1,2,1.2,3.6c0.4,3,3.8,4.1,3.2,7.7c-0.2,1.3-1.3,1.5-1.7,2.6
		c-0.3,0.7,0,2.2,0,3c1.2,0.3,2.8,1.3,2.8,2.7c2.6-0.1,4.3,2.3,4.1,4.7c-1.4-1.3-2.7-1.9-4.3-2.4c-2-0.6-7.6-1.6-8.2,1.6
		c1.2,0.4,3-0.9,4.3-1c1-0.1,1.7,0,2.6,0.6c0.9,0.6,1.1,1.5,1.7,2.2c0.6,0.7,1.4,1.1,1.9,2.1c2.5-1.5,6.3-0.4,6.9,2.4
		c0.1,0.7,0.1,1.8-0.1,2.4c-0.2,0.5,0.1,0.6-0.4,0.9c-0.1,0.1-1.1,0-1.1,0c-2.2,0.2-4.5,0-6.8,0.2c-7,0.4-13.9,1.6-20.9,1.9
		c-2.8,0.1-5.4,0.1-8-0.7c-4.6-1.4-10.1-3.5-13.4-7.3c-2.7-3.2-0.9-7.3-2.1-11c-0.6-1.7-1.8-3.3-2-5.1
		C214.9,1032.3,215.1,1031.5,214.8,1030.7"/>
</g>
<g>
	<defs>
		<path id="SVGID_55_" d="M181.9,1012.3c-1.5-1-2.5-1.6-4.3-1.1c-2.1,0.6-4.3,2.1-4.5,4.3c-0.1,0.5,0,1.1,0,1.7l-2.2,1.6
			c-0.9-0.5-2-0.4-3,0c-2,0.8-2.2,2.1-2.7,3.8c-1.3,3.8-2.8,6.8-2.6,10.9c0.3,3.9,2,6.7,5.1,8.9c1,0.7,1,0.1,1.4,1.7
			c0.7,3.6,2.4,4.9,6.2,5.2c0.9,0.1,1.8,0,2.8-0.1c2-0.1,4.1-0.3,5.6,0.6c2.5,1.3,4,4.1,6,5.9c2.8,2.6,6,1.6,9.4,0.7
			c2.9-0.9,6.8-1.5,9.8-0.7c0.8,0.2,1.5,0.6,2.3,0.9c3.3,1.3,7.3,1.4,10.7,0.3c1.2-0.4,2.6-0.2,3.9,0c2.1,0.3,4.2,0.6,6-1.3
			c0.3-0.4,0.3-0.9,0.7-1.2c0.2-0.2,0.8-0.1,1.1-0.4c0.6-0.5,0.6-1.3,0.5-2c1.1-0.7,1-1.7,1.3-3c0.2-0.8,0.9-1.3,1.1-2.1
			c0.5-1.6-0.2-3.7-0.8-5.1c-0.4-0.9-1.5-2.1-1.7-3c-0.2-0.7,0.1-1.5,0-2.3c-0.3-4.3-3.8-8.9-8.1-9.5c-0.9-0.1-1.9,0-2.9,0.2
			c-1.1,0.2-2.2,0.3-3.1,0.1c-0.5-0.1-0.6-0.4-1-0.5c-1.4-0.5-5.1-1.2-6.4-0.3c-0.5,0.4-0.8,1.5-1,2.1c-0.3-2.3-3.4-3.7-5.5-3.6
			c-0.6-1.9-5.3-2.8-5.7-0.6c-0.1-1-1.1-1.2-1.5-1.9c-0.5-0.8-0.3-1-0.5-1.8c-0.5-1.9-1.9-2.1-3.5-2.9c0.8-1.8,1.7-1.5,2.9-1.2
			c0.5,0.1,1.1,0.3,1.7,0.2c-0.3-3.8-4-5-7.2-5.5c-1.4-0.2-3.5-0.6-5.4-0.6C184.8,1010.4,182.9,1010.8,181.9,1012.3"/>
	</defs>
	<clipPath id="SVGID_56_">
		<use xlink:href="#SVGID_55_"  style="overflow:visible;"/>
	</clipPath>
	
		<linearGradient id="SVGID_57_" gradientUnits="userSpaceOnUse" x1="0" y1="1218.7559" x2="1" y2="1218.7559" gradientTransform="matrix(-74.0192 0 0 -74.0192 236.6677 91245.7422)">
		<stop  offset="0" style="stop-color:#718431"/>
		<stop  offset="0.6029" style="stop-color:#5C7122"/>
		<stop  offset="1" style="stop-color:#546A1C"/>
	</linearGradient>
	<rect x="162.4" y="1010.4" class="st25" width="74.8" height="47.9"/>
</g>
<g>
	<defs>
		<rect id="SVGID_58_" y="0" width="768" height="1218.8"/>
	</defs>
	<clipPath id="SVGID_59_">
		<use xlink:href="#SVGID_58_"  style="overflow:visible;"/>
	</clipPath>
	<path class="st26" d="M430.4,1035.1c0-0.8,0.2-1.8,0.3-2.6c0.3,0,0.6,0,0.9-0.2c0-0.8-0.1-2.3,0.2-3c0.4-0.6,1-0.6,1.5-0.7
		c-0.4-1.5-0.5-3.4,0.5-4.6c0.5-0.6,0.5-0.5,0.9-1.5c0.2-0.5,0.4-0.9,0.7-1.3c0.6-1.1,1.2-1.4,2.2-1.5c1.1-0.1,2.3,0.6,2.8,2.1
		c0.8-0.2,1.1-0.3,1.7,0.3c0.2,0.2,0.6,0.8,0.8,1.2c0.2,0.4,0.2,1.2,0.4,1.5c0.3,0.5,0.6,0.3,0.8,1c0.2,0.6,0,1.4,0.1,1.9
		c0.2,0.8,0.4,0.5,0.4,1.5c0,0.6,0.1,1,0.2,1.4c0,0.3-0.1,0.9,0,1.1c0.3,0.4,1.1,0,1.5,0.2c0.6,0.3,1.3,1.3,1.5,2.1l0.8,2.8
		c0,0.6,0.3,1.9,0.1,2.3c-0.3,0.7-1.8,0.3-2.2,0.3c-5.3,0-10.7,0.1-16.1-0.1l-0.3-4.4C430.1,1035.1,430.3,1035.1,430.4,1035.1"/>
	<path class="st27" d="M433.2,1032.1c-1.2-2.3-0.4-2.2,1.1-2.4c0-1.3,0.3-2.5,0.5-3.5c0.1-0.4-0.1-0.8,0-1.2c0.2-0.9,0.6-0.9,1-1.4
		c0.1-0.2,0.1-0.6,0.2-0.7c0.4-0.5,0.9-0.4,1.4-0.4c0.3,0,0.7-0.1,1,0.1c0.3,0.3,0.3,1,0.6,1.2c0.5,0.5,1,0.2,1.5,0.3
		c2,0.3,2,2.3,2.4,4.4c-1.3-1.1-2.5-3.5-4.2-2.8c-0.3,0.1-0.6,0.5-0.7,0.6c-0.2,0.1-0.6-0.1-0.8,0c-0.5,0.3-0.5,1.2-0.7,1.8
		c1.8-1,2.4-1.4,4.1-0.2c1.1,0.8,2,2.2,2.4,3.8c-1.3-0.1-2.2-1.3-3.2,0.4c0.7,0.1,1.5-0.2,2.2,0c0.4,0.1,0.6,0.5,1,0.7
		c0.8,0.3,1.5-0.3,2.2,0.7c0.3,0.4,0.6,0.9,0.6,1.5c-0.1,1.9-2.7,0.3-3.6,0.1c-1.7-0.3-3.4,0.6-5.2,0.6c-1.7,0.1-3.4-0.1-5.1-0.1
		v-0.7C431.9,1033.8,432.3,1032.2,433.2,1032.1"/>
	<path class="st26" d="M456.2,1035.1c0-1.5,1.1-2.3,1.9-3.4c0.3-0.4,0.4-0.9,0.9-1.2c0.2-0.2,0.7-0.2,0.9-0.3
		c0.9-0.8,1.5-1.9,3.1-1.9c1.1,0,1.7,0.4,2.7,0.9c0.6,0.3,0.8,0.3,1.4,0.6c1.5,0.6,2.9,1,3.6,2.7c0.1,0.3,0.2,0.9,0.3,1.1
		c0.2,0.3,0.7,0.3,0.8,0.5c0.2,0.5,0,1.4,0.1,2c0.6,0.1,1.6-0.2,2.2,0.2c0.8,0.6,0.7,2.3,1.5,2.9c1,0.7,3-0.2,4.3-0.3
		c1-0.1,1.9,0,2.9,0l0.4,4.9c-1.6,0-3.1,0-4.7-0.1c-3.3-0.1-6.8-0.1-10.1-1c-2.1-0.6-4.1-1.3-6.4-1.5c-1.9-0.1-3.6,0.1-4.7-1.6
		c-0.5-0.9-0.2-1.5-0.4-2.4C456.7,1036.3,456.2,1036,456.2,1035.1"/>
	<path class="st27" d="M460,1035.4c0.2-0.8,0.6-0.7,0.9-1.4c0.3-0.8,0.1-1.6,0.6-2.2c0.5-0.6,2.1-1.1,2.7-1c1.2,0,2.4,1.6,3.3,2.7
		c1.6,2,3.1,3.3,1.9,7.1c-2.4-2.8-4-4-6.9-2.8c-1.2,0.5-2.1,0.8-3.4,0.9l-0.9-0.3C458.1,1036.2,459,1034.4,460,1035.4"/>
	<rect x="541.1" y="1038.8" class="st28" width="32.5" height="7.1"/>
	<rect x="470" y="1031" class="st29" width="69.3" height="19.2"/>
	<rect x="483.9" y="1038.5" class="st30" width="51.5" height="1.2"/>
	<rect x="470.1" y="1031.3" class="st30" width="51.5" height="1.2"/>
	<polygon class="st31" points="469,1023 540.8,1023 540.8,1038.7 483.6,1038.7 483.6,1031.7 469,1031.7 	"/>
	<polygon class="st32" points="483.6,1031.7 483.6,1044.5 474.7,1044.5 	"/>
</g>
<g>
	<defs>
		<path id="SVGID_60_" d="M325.3,1022.1c-0.6,0.5-1.1,1-1.7,1.5c-0.6,0.5-1.7,0.7-2,1.5c-0.1,0.2,0,0.5-0.1,0.6
			c-0.2,0.3-0.8,0.4-1,0.7c-0.2,0.3,0,0.6-0.2,0.9c-0.2,0.3-0.6,0.2-0.8,0.4c-0.6-0.5-0.8-1.2-1.1-1.9c-0.3-0.5-0.3-0.5-0.8-0.2
			c-0.2-1,0.1-1.9-0.9-2.6c-0.8-0.5-2.9-0.5-3.4,0.5c-0.8,0-2.9,0-3.1,1.1c-0.1,0.3,0,0.7,0,1c-0.8,0-0.4,0.9-0.9,1.2
			c-0.2,0.1-0.4,0.1-0.6,0c-0.1,0-0.2-0.1-0.4-0.1c0,0.1,0,0.2,0,0.3c-0.8-0.1-2-0.3-2.8,0.3c-0.8,0.6-0.9,2-0.5,2.9
			c-0.8,0.4-0.7,1.5-0.5,2.3c0.1,0.6,0.4,1.1,0.2,1.8c-0.3,0.9-0.9,1.6-1,2.6c-0.2,2,0.1,4.1,0.2,6.2c0.1,1,0.1,2,0.1,3
			c0,0.4-0.1,0.8-0.1,1.2c0,0.2,0.2,1,0.3,1.1c0.2,0.2,1,0.2,1.5,0.2c0.2,0,0.4,0,0.5,0c1.7,0.2,3.4,0.5,5.1,0.6
			c1.1,0.1,2.3,0.3,3.4,0.2c1-0.1,2-0.6,2.9-0.9c1.7-0.6,3.4-0.9,5.1-1.4c1.6-0.4,2.9-1.2,4.5-1.4c2.1-0.3,4.2-0.4,6.3-0.8
			c2.5-0.4,4.6-2.1,5.1-4.7c0.2-1.1,0.2-2.2,0.7-3.3c0.3-0.8,0.9-1.6,1.1-2.5c0.3-2.2,0.3-5-1.9-6.3c-0.7-0.4-1.1-0.1-1.6,0.4
			c-0.3-0.5-0.8-0.8-1-1.3c-0.4-0.8-0.6-1.8-1.7-1.6c0,0,0,0.1,0,0.1c-0.9-0.2-2.6-0.9-2.7,0.6c-0.6,0.1-0.8,0.6-1.3,0.8
			c-0.4-0.4,0.2-0.9,0-1.3c-0.1-0.2-0.3-0.3-0.4-0.4c-0.2-0.2-0.1-0.7-0.2-0.8c-0.1-0.2-0.6-0.3-0.8-0.4c-0.5-0.2-0.3-0.1-0.5-0.5
			c-0.2-0.4-0.1-0.5-0.6-0.8c-0.1-0.1-0.5-0.1-0.6-0.2c-0.1-0.1-0.2-0.5-0.4-0.6c-0.2-0.2-0.4-0.3-0.5-0.3
			C325.8,1021.8,325.6,1021.9,325.3,1022.1"/>
	</defs>
	<clipPath id="SVGID_61_">
		<use xlink:href="#SVGID_60_"  style="overflow:visible;"/>
	</clipPath>
	
		<linearGradient id="SVGID_62_" gradientUnits="userSpaceOnUse" x1="0" y1="1218.7589" x2="1" y2="1218.7589" gradientTransform="matrix(-36.7196 0 0 -36.7196 340.1896 45787.9883)">
		<stop  offset="0" style="stop-color:#D2D098"/>
		<stop  offset="0.6355" style="stop-color:#9DA440"/>
		<stop  offset="1" style="stop-color:#7E8A0C"/>
	</linearGradient>
	<rect x="303.3" y="1021.8" class="st33" width="37.3" height="27.7"/>
</g>
<g>
	<defs>
		<rect id="SVGID_63_" y="0" width="768" height="1218.8"/>
	</defs>
	<clipPath id="SVGID_64_">
		<use xlink:href="#SVGID_63_"  style="overflow:visible;"/>
	</clipPath>
	<rect x="315" y="1020.3" class="st34" width="0.5" height="24.9"/>
	<rect x="218" y="1023" class="st34" width="0.5" height="22.2"/>
</g>
<g>
	<defs>
		<path id="SVGID_65_" d="M530.4,1029.5c-1.3,0.2-3.6,1.4-4.2,2.7c-0.5,1.1-0.2,2.5-1,3.5c-1.2,1.4-3,0.7-2.8,3.2l-1.2,1.4
			c-1.5,0-1.5,1-2.1,1.9c-1.1,1.6-4.7,4.5-3.6,6.7c0.7,1.4,3.5,2.2,4.6,3.6c2.3,2.9,3.4,6.1,7.6,6.2c2.6,0.1,5.2-0.2,7.7-0.4
			c2.7-0.3,5.3-0.5,8-0.4c6.3,0.3,12.6,1.5,19,0.8c5.1-0.5,9.8-2.8,15-2.2c2.4,0.3,6.5,2.1,8.8,0.8c0.7-0.4,1.1-1.6,1.4-2.4
			c0.8-2.7-0.5-3.7-1.3-6c-0.6-1.7-0.4-2.6-2-4c-1.2-1-2.8-2-4.2-2.8c-2-1-3.7-0.4-5.8-0.3c-0.5,0-0.9,0-1.3,0c-1.2,0-2.2,0-3.6,0.6
			c-1.7,0.8-0.7,0.5-2.1,0.2c-1.2-0.3-1.6-0.8-2.9-0.8c-2.8,0.2-4.3,2.5-6.3,3.8c0.1-1.5-1.2-1.3-2.5-1.1c-0.6,0.1-1.1,0.2-1.5,0.1
			c-0.4-2.3,0.8-5.1,0.4-7.5c-0.5-2.6-5.8-5.6-7.6-2.8c-2.6-1.1-4.8,2.9-6.2,4.4c-1.3-0.2-1-1.7-1.6-2.6c-0.9-1.7-2.9-2.3-4.7-2.2
			c-0.4-2.7-0.1-4.4-2.7-4.4C531.3,1029.4,530.9,1029.5,530.4,1029.5"/>
	</defs>
	<clipPath id="SVGID_66_">
		<use xlink:href="#SVGID_65_"  style="overflow:visible;"/>
	</clipPath>
	
		<linearGradient id="SVGID_67_" gradientUnits="userSpaceOnUse" x1="0" y1="1218.7809" x2="1" y2="1218.7809" gradientTransform="matrix(-49.0669 15.0363 -15.0363 -49.0669 18918.7422 60833.6016)">
		<stop  offset="0" style="stop-color:#D2BE16"/>
		<stop  offset="0.6544" style="stop-color:#838A1B"/>
		<stop  offset="1" style="stop-color:#586E1D"/>
	</linearGradient>
	<polygon class="st35" points="582.1,1008.7 506.1,1032 520.8,1080.1 596.9,1056.8 	"/>
</g>
<g>
	<defs>
		<path id="SVGID_68_" d="M523,1041.1l-3,5.4c-0.6,6.2,8.5,9.4,13.2,10.2c5.4,1,10.8,0.1,16.1-0.8c4-0.7,8-1.3,12.1-1.2
			c3.5,0.1,7,0.4,10.3,1.5c0.6,0.2,1.2,0.4,1.8,0.7c0.1,0,0.6,0.1,0.8,0.1c0.6-1.7,0.1-3.8-1.2-5c-1.1-1-2.3-0.9-3.5-1.5
			c-1.2-0.6-1.6-1.3-3-1.5c-2.1-0.3-4,0.8-5.6,2c-1.7-3.1-5.3-3.4-8.3-3.8c-4.1-0.5-0.8-3.6-1.4-6.1c-0.3-1.1-1.4-3.5-2.7-4
			c-2-0.8-4.6,1.6-5.5,3.1c-0.7,1.2-0.7,1.1-0.2,2.3c0.5,1.2,1.1,1.4,0.7,2.7c-0.3,0.9-1.7,2.3-2.5,2.6c-0.9-2.7-1.3-4.6-4-6.5
			c-0.9-0.6-4.1-3-3.5-0.1c-0.2-1-0.9-1.6-1.4-2.4c-0.5-1-0.5-2.1-1.6-2.9c-0.6-0.4-1.2-0.6-1.7-0.6
			C526.5,1035.3,524.3,1039.2,523,1041.1"/>
	</defs>
	<clipPath id="SVGID_69_">
		<use xlink:href="#SVGID_68_"  style="overflow:visible;"/>
	</clipPath>
	
		<linearGradient id="SVGID_70_" gradientUnits="userSpaceOnUse" x1="0" y1="1218.755" x2="1" y2="1218.755" gradientTransform="matrix(-54.3165 0 0 -54.3165 574.3465 67244.9141)">
		<stop  offset="0" style="stop-color:#586E1D"/>
		<stop  offset="1" style="stop-color:#4E6419"/>
	</linearGradient>
	<rect x="519.5" y="1035.3" class="st36" width="55.5" height="22.4"/>
</g>
<g>
	<defs>
		<path id="SVGID_71_" d="M517.6,1037.3c-1.2,1.1-1.2,2.5-1.8,3.8c-0.7,1.6-1.7,2.5-1.8,4.4c-2.1-0.2-2.4,2-2.4,3.6v1.4
			c-0.1,2,1.8,1.6,3.2,1.6c4,0,8.9,1.5,12.7,0.5c1.9-0.5,2.1-1.6,1.5-3.4c-0.1-0.4-0.6-0.7-0.7-1.2c-0.1-0.4,0.1-1,0-1.4
			c-0.4-1.6-1.5-1.7-2.8-2.2c0.1-3.2,0-6-3.8-6.4c0.2-1.2-0.4-1.5-1.3-1.5C519.5,1036.3,518.1,1036.9,517.6,1037.3"/>
	</defs>
	<clipPath id="SVGID_72_">
		<use xlink:href="#SVGID_71_"  style="overflow:visible;"/>
	</clipPath>
	
		<linearGradient id="SVGID_73_" gradientUnits="userSpaceOnUse" x1="0" y1="1218.7917" x2="1" y2="1218.7917" gradientTransform="matrix(-12.4946 3.8289 -3.8289 -12.4946 5196.7114 16270.4141)">
		<stop  offset="0" style="stop-color:#D2BE16"/>
		<stop  offset="0.6544" style="stop-color:#838A1B"/>
		<stop  offset="1" style="stop-color:#586E1D"/>
	</linearGradient>
	<polygon class="st37" points="528.2,1031.2 506.7,1037.8 513.1,1058.7 534.6,1052.1 	"/>
</g>
<g>
	<defs>
		<rect id="SVGID_74_" y="0" width="768" height="1218.8"/>
	</defs>
	<clipPath id="SVGID_75_">
		<use xlink:href="#SVGID_74_"  style="overflow:visible;"/>
	</clipPath>
	<path class="st38" d="M451.3,1046.7c0.3-2.6,2.8-4.1,3.6-6.4l2-2.8c-0.2-1.9,1.4-3.7,3.1-4.2c2.3-0.8,3.7,0.1,5,2
		c1.1-0.8,2.3-0.9,3.4-1.2c2.1-0.7,6.8-2.1,8.5,0.4c0.6,1,0.1,2.2,0.3,3.3c0.2,1.4,1.5,2.3,1.4,3.8c1.7-1.3,4.1,1,5.6,1.7
		c0.2-1.3,0-2.3,0.9-3.5c1.1-1.4,3.3-2.3,5-1.5c-1.7-2-0.1-4.4,1.8-5.6c1.3-0.9,3.4-1.8,5.1-1.5c1,0.2,0.6,0.3,1.3,0.9
		c1.5,1.2,4.1,1.5,5,3.8c0.5,1.2,0.6,3.9,0.1,5.2c1,0.6,2.4,2.5,2.5,3.7c3,0.1,3.8,5.2,1.8,6.8c-5.1,4.1-13.5,2.3-19.5,1.9
		c-6-0.4-11.9,0.8-17.9,1c-4.5,0.1-9.5,0.4-13.8-1.4C453.9,1052,451,1050.2,451.3,1046.7"/>
	<path class="st39" d="M455.7,1042.5l3.3-4.2c0.6-0.9,4.1-3.9,4.7-1.3c2.1-0.1,4.7,1.9,4.8,4.1c2.3,0.5,3.4,1.9,3.3,4.2
		c0.5-0.5,1.2-2,0.8-2.9c-0.3-0.6-1.4-0.7-1.7-1.4c-0.2-0.3-0.1-0.9-0.3-1.3c-0.3-0.6-1.3-0.9-1.6-1.2c-0.6-0.8-0.7-2.2,0.3-3
		c0.6-0.4,2.1-0.7,2.9-0.8c1.3-0.2,2.5-0.1,2.9,1.3c0.1,0.4-0.1,0.9,0,1.3c0.2,0.8,1.1,1.5,1.4,2.4c0.3,0.9,0.3,1.8,0.3,2.8
		c1,0.5,2.1,0.5,2.9,1.4c0.5,0.6,0.2,1.5,0.6,2c0.2,0.3,0.8,0.3,1.1,0.6c0.3,0.4,0.4,0.7,0.5,1.1c0.2,0.7,0.3,1.5,0.5,2.3
		c0.6-1.4,0.2-2.6-0.2-4c-0.3-0.9,0-0.8-0.6-1.5c-0.4-0.4-0.9-0.5-1.3-0.8c2.8-0.7,2.8,3.6,5.6,1.1c1.1-1,0.4-0.6,0.6-1.7
		c0.2-1.2,0.4-1.2,1.3-2.1c1.1-1.1,1.7-1.3,3.2-0.6c1.8,0.8,3.9,1.6,5.1,3.3c0-1.1-0.3-3.3-1.3-4c-0.7-0.5-1.4-0.2-2-0.9
		c-0.1-0.1-1-1.8-1-1.9c-0.2-1.1,1.7-2,2.6-2.3c4-1.3,8.2,1.6,7.8,5.6c-2.2-0.5-3.1-2.6-5.6-2.5c-0.1,1.4,3.8,2.4,4.3,4.1
		c0.1,0.4-0.2,1.2,0,1.5c0.3,0.5,1.5,0.4,1.9,0.9c0.5,0.6,0.4,1.3,1.1,1.9c1,0.8,1.9,1.1,2.2,2.6c0.2,1.5-0.8,3.1-1.2,4.5
		c-6.5,0.3-13.1-0.2-19.6-0.2c-4.9,0.1-9.9,0.8-14.8,0.8c-4,0-8.4,0.4-12.3-0.9c-2.8-0.9-3.2-2.2-3.3-5
		C454.9,1046.1,454.5,1043.9,455.7,1042.5"/>
</g>
<g>
	<defs>
		<path id="SVGID_76_" d="M444.3,1031.5c-0.3,0.2-0.8,0.8-1.1,1.1c-1,0.8-2.2,1.1-2.5,2.5c-0.2,0.9,0,2,0.8,2.4l-0.5,0.9
			c-0.4,0.1-1.5,1.2-1.8,1.7c-0.3,0.5-0.2,1.1-0.5,1.6c-0.1,0.3-0.6,0.4-0.8,0.7c-1.2,1.7-1.1,4,0.7,5.3c0.8,0.6,1.3,0.6,1.7,1.4
			c0.4,0.9,0,1.6,0.8,2.5c1.9,2.2,4.8,0.8,7,0.7c0.9,0,1.9,0.3,2.9,0.6c2,0.7,4.1,1.3,5.6-0.8c1.4,0.4,3.6,0.9,4.8-0.4
			c0.4-0.4,0.3-1.2,0.5-1.4c0.5-0.5,0.9-0.5,1.2-1c0.1-0.2-0.1-0.7,0-0.9c0.2-0.2,0.4-0.4,0.6-0.5c1.1-1.6,2.3-2.4,1.7-4.6
			c-0.2-0.6-0.6-1.5-0.9-2c-0.5-0.9-1-2-2.2-1.1c-0.7-1.3-1.6-2.4-1.7-3.7c-0.2-1.5-0.2-2.9-1.9-3.6c-0.4-0.1-0.7-0.1-1.1-0.1
			c-0.3,0-0.5,0.1-0.8,0c-0.2-0.1-0.5-0.5-0.8-0.6c-1-0.3-2.5-0.1-2.8,1.1c-0.6-0.9-1.9-1.4-3-1.4c0.1-1.2-0.8-1.6-1.8-1.6
			C446.9,1030.3,445,1031,444.3,1031.5"/>
	</defs>
	<clipPath id="SVGID_77_">
		<use xlink:href="#SVGID_76_"  style="overflow:visible;"/>
	</clipPath>
	
		<linearGradient id="SVGID_78_" gradientUnits="userSpaceOnUse" x1="0" y1="1218.7479" x2="1" y2="1218.7479" gradientTransform="matrix(-28.3222 0 0 -28.3222 465.4708 35559.8984)">
		<stop  offset="0" style="stop-color:#A3A324"/>
		<stop  offset="1" style="stop-color:#627B21"/>
	</linearGradient>
	<rect x="436.7" y="1030.3" class="st40" width="29.4" height="24"/>
</g>
<g>
	<defs>
		<rect id="SVGID_79_" y="0" width="768" height="1218.8"/>
	</defs>
	<clipPath id="SVGID_80_">
		<use xlink:href="#SVGID_79_"  style="overflow:visible;"/>
	</clipPath>
	<path class="st41" d="M372.3,1028.5c0-1.5,1.1-2.3,1.9-3.4c0.3-0.4,0.4-0.9,0.9-1.2c0.2-0.2,0.7-0.2,0.9-0.3
		c0.9-0.8,1.5-1.9,3.1-1.9c1.1,0,1.7,0.4,2.7,0.9c0.6,0.3,0.8,0.3,1.4,0.6c1.5,0.6,2.9,1,3.6,2.7c0.1,0.3,0.2,0.9,0.3,1.2
		c0.2,0.3,0.7,0.3,0.8,0.5c0.2,0.5,0,1.4,0.1,2c0.6,0.1,1.6-0.2,2.2,0.2c0.8,0.6,0.7,2.3,1.5,2.9c1,0.7,3-0.2,4.3-0.3
		c1.1-0.1,2.3,0.1,3.4,0c-0.1-0.9,0.3-2,0.5-2.9c0.5,0,1,0,1.5-0.2c0-0.9-0.2-2.6,0.4-3.3c0.6-0.7,1.5-0.6,2.4-0.8
		c-0.6-1.7-0.7-3.9,0.7-5.1c0.8-0.7,0.8-0.6,1.5-1.6c0.3-0.5,0.7-1,1-1.5c1-1.2,1.9-1.6,3.4-1.6c1.8-0.1,3.6,0.6,4.5,2.3
		c1.3-0.2,1.8-0.3,2.7,0.3c0.3,0.2,1,1,1.2,1.3c0.3,0.4,0.3,1.3,0.6,1.6c0.4,0.5,1,0.3,1.3,1.2c0.3,0.7-0.1,1.5,0.2,2.2
		c0.4,0.9,0.6,0.6,0.6,1.7c0,0.7,0.2,1.1,0.3,1.6c0,0.3-0.2,1,0,1.2c0.4,0.5,1.7,0.1,2.3,0.3c1,0.4,2.1,1.5,2.4,2.4l1.3,3.1
		c0,0.7,0.4,2.1,0.1,2.6c-0.5,0.7-2.8,0.3-3.5,0.3c-10,0-20.1,0.1-30.1-0.2c-3.3-0.1-6.8-0.1-10.1-1c-2.1-0.6-4.1-1.3-6.4-1.5
		c-1.9-0.1-3.6,0.1-4.7-1.6c-0.5-0.9-0.2-1.5-0.4-2.4C372.8,1029.7,372.3,1029.4,372.3,1028.5"/>
	<path class="st42" d="M403.7,1028.8c-2-2.6-0.6-2.5,1.7-2.7c-0.1-1.5,0.5-2.8,0.8-4c0.1-0.4-0.1-0.9,0-1.3c0.3-1.1,1-1,1.6-1.6
		c0.2-0.2,0.2-0.7,0.3-0.8c0.7-0.5,1.4-0.4,2.3-0.4c0.5,0,1.2-0.1,1.6,0.1c0.5,0.3,0.6,1.1,0.9,1.3c0.7,0.6,1.5,0.2,2.4,0.3
		c3.1,0.4,3.2,2.6,3.7,5c-2-1.3-3.9-3.9-6.7-3.2c-0.5,0.1-0.9,0.6-1.2,0.7c-0.4,0.1-0.9-0.1-1.3,0c-0.7,0.4-0.9,1.3-1.1,2
		c2.8-1.1,3.8-1.6,6.5-0.3c1.8,0.9,3.2,2.5,3.8,4.3c-2-0.2-3.5-1.4-5.1,0.4c1.1,0.1,2.4-0.2,3.5,0c0.6,0.1,1,0.6,1.6,0.7
		c1.3,0.3,2.3-0.3,3.5,0.7c0.4,0.4,1,1,1,1.7c-0.1,2.2-4.2,0.3-5.6,0.1c-2.8-0.3-5.5,0.6-8.2,0.7c-2.7,0.1-5.4-0.2-8-0.2v-0.7
		C401.7,1030.7,402.3,1028.9,403.7,1028.8"/>
	<path class="st42" d="M376.1,1026.6c0.2-0.4,0.6-0.4,0.9-0.8c0.3-0.4,0.1-0.9,0.6-1.2c0.5-0.3,2.1-0.6,2.7-0.6
		c1.2,0,2.4,0.8,3.3,1.4c1.6,1,3.1,1.8,1.9,3.8c-2.4-1.5-4-2.1-6.9-1.5c-1.2,0.3-2.1,0.4-3.4,0.5l-0.9-0.1
		C374.2,1027,375,1026.1,376.1,1026.6"/>
</g>
<g>
	<defs>
		<path id="SVGID_81_" d="M347,1021.2c-1,0.7-1.2,1.5-1.2,2.6c-0.6,0-2.5-0.1-2.5,0.9c-1.2,0.1-1.6,1-1.5,2
			c-1.2,0.4-1.7,1.6-0.8,2.5c0.6,0.6,0.6,0.4,0.7,1.1c-0.6-0.2-2,0.1-2,0.9c-1.1-1.1-4.5,1.1-5,4.1l-2.2,1.7
			c-1.7,1.2,2.3,3.3,3.2,4.5c0.3,0.4,0.6,0.8,0.7,1.4c0,0.4-0.2,0.9-0.2,1.3c0.1,2.3,3.4,2.6,5.1,2.7c0.4,0,0.8,0,1.2,0
			c0.8,0,1.6-0.1,2.3,0.2c1.1,0.4,1.9,1.1,3.1,1.4c1.3,0.3,2.7,0.3,4,0.2c1.1-0.1,2.7-0.2,3.6-0.9c0.2-0.1,0.4-0.6,0.5-0.7
			c0.4-0.3,1.6-0.2,2.1-0.3c0.9-0.2,1.8-0.6,2.6-1.2c0.4-0.3,1.1-1,1-1.6c1-0.7,2.3-1,3-2.1c0.6-0.9,0.4-2,0.1-2.9
			c-0.2-0.6-0.8-1.1-0.5-1.8c0.3-0.7,1.3-1,1.6-1.8c0.4-1-0.1-2.2-0.2-3.3c-0.1-0.9-0.5-1.6-1.4-1.7c-0.5-0.1-1.5-0.2-1.8,0.3
			c-0.3-1.1-2.7-0.4-3.2,0.2c0.2-0.4,0.1-1,0-1.4c-0.4-1.1-1.2-1.1-2.1-1.4c0-1.7-2.5-0.9-3.3-0.4c0.2-0.9,0.3-1.7,0.1-2.6
			c-0.2-1-0.8-1.3-1.5-1.9c0.8-0.8,0.1-1.9-0.7-2.2c-0.7-0.4-1.6-0.2-2.3-0.4c-0.3-0.1-0.6-0.2-0.9-0.2
			C348.2,1020.6,347.6,1020.8,347,1021.2"/>
	</defs>
	<clipPath id="SVGID_82_">
		<use xlink:href="#SVGID_81_"  style="overflow:visible;"/>
	</clipPath>
	
		<linearGradient id="SVGID_83_" gradientUnits="userSpaceOnUse" x1="0" y1="1218.7592" x2="1" y2="1218.7592" gradientTransform="matrix(-33.4896 0 0 -33.4896 366.0603 41850.4727)">
		<stop  offset="0" style="stop-color:#D2D098"/>
		<stop  offset="0.6762" style="stop-color:#A3AB42"/>
		<stop  offset="1" style="stop-color:#8B9817"/>
	</linearGradient>
	<rect x="330.8" y="1020.6" class="st43" width="35.7" height="28.3"/>
</g>
<g>
	<defs>
		<rect id="SVGID_84_" y="0" width="768" height="1218.8"/>
	</defs>
	<clipPath id="SVGID_85_">
		<use xlink:href="#SVGID_84_"  style="overflow:visible;"/>
	</clipPath>
	<rect x="562.5" y="1034.2" class="st44" width="1.3" height="7.1"/>
	<polygon class="st45" points="562.5,1038.8 562.5,1041.3 560.6,1038.8 	"/>
	<rect x="447.1" y="1020.3" class="st46" width="0.5" height="24.9"/>
</g>
<g>
	<defs>
		<path id="SVGID_86_" d="M432.9,1034.6c-1.9,0.1-2.6,0.7-3.7,2l-1.7,2.6c-0.1-0.3-0.3-0.4-0.6-0.3c-0.8,1.3-1.5,2.5-1.9,3.8
			c-0.5,1.5-1.9,3.6-1.2,5.3c1.1,2.6,5.1,2,7.3,2.8c2.4,0.9,4.2,1.6,6.7,1.7c2.3,0.1,7.2,1,9-1.1c0.8-0.9,0.2-1.5,0.7-2.4
			c0.6-1,2.1-0.5,1.8-2.2c2.9-0.7,0.4-4.5-0.5-5.8c-0.5-0.7-0.6-1.5-1.1-2.2c-0.5-0.8-3-2.2-3.4-1.3c-0.5-2.1-2.9-1.7-4.5-1
			c-0.9,0.4-1.4,1.4-2.5,0.7c0,0-0.3-1-0.3-1c-0.4-0.5-1-1.2-1.6-1.5c-0.5-0.3-1-0.3-1.5-0.3
			C433.5,1034.6,433.2,1034.6,432.9,1034.6"/>
	</defs>
	<clipPath id="SVGID_87_">
		<use xlink:href="#SVGID_86_"  style="overflow:visible;"/>
	</clipPath>
	
		<linearGradient id="SVGID_88_" gradientUnits="userSpaceOnUse" x1="0" y1="1218.7516" x2="1" y2="1218.7516" gradientTransform="matrix(-19.3311 5.9239 -5.9239 -19.3311 7673.2979 24599.0918)">
		<stop  offset="0" style="stop-color:#D2BE16"/>
		<stop  offset="0.6544" style="stop-color:#838A1B"/>
		<stop  offset="1" style="stop-color:#586E1D"/>
	</linearGradient>
	<polygon class="st47" points="449.7,1026.4 417.7,1036.2 425.5,1061.8 457.5,1052 	"/>
</g>
<g>
	<defs>
		<path id="SVGID_89_" d="M161.8,1007.8c-1.8,0.7-3.5,1.5-5.3,2.3c-2.4,1-3.1,2.4-3.9,4.7c-0.4,1.2,0.3,0.5-1.2,1.1
			c-1,0.4-2.2,0.5-3,1.5c-1,1.3,0.1,1.9,0.3,3.1c0.1,0.6-0.3,0.8-0.1,1.5c0.2,0.4,0.7,0.7,0.9,1.1c0.7,1.1,0.8,0.2-0.1,1.5
			c-0.5,0.7-1,0.7-0.6,1.8c0.7,1.8,3.6,1.3,4.5,2.6c0.6,0.8,0,0.8-0.5,1.7c-1.3,2-1.2,3.1,1.4,3.5c-2.6,1.1-6.6,2.1-7.6,5.2
			c-0.2,0.5,0,1-0.2,1.5c-0.2,0.7-0.9,1.3-0.9,2.2c0,0.5,0.6,0.8,0.5,1.3c-0.1,0.7-0.7,0.8-1.1,1.3c-1.1,1.5-0.7,1.6-0.3,3
			c0.5,1.9,1.8,2.8,3.3,4.2c2.8,2.6,7.6,1.9,11.3,2.2c4.7,0.3,9.3,1,14.1,0.6c4.3-0.4,8.6-0.3,12.8-0.7c2.7-0.3,5.1-0.2,6.5-2.8
			c0.4-0.7,0.5-1.6,1.2-2.1c0.3-0.2,0.8-0.2,1.3-0.2c0.5,0,1.1,0,1.5-0.3c0.2-0.1,0.5-0.8,0.7-0.9c0.8-0.6,1.9-0.7,2.4-1.7
			c0.6-1.3-0.3-3.2-0.7-4.5c-0.7-2.3-1.8-3.3-4.3-3.3c-1.6,0-4.2,0.6-2.9-1.2c0.5-0.7,2.5-1.2,3.2-1.9c0.6-0.6,1.2-1.3,1.4-2.1
			c0.1-0.4,0.2-0.8,0.1-1.2c-0.4-1.9-3-3.1-4.7-2.4c-0.5-2.2-3.5,0.1-4.3,0.7c-0.5-1.4-1.5-0.9-1.1-2.3c0.3-1,1.7-1.9,2.1-3.1
			c0.2-0.4,0.3-1.1,0.4-1.6c0.1-0.7,0.5-0.7-0.1-1.4c-0.7-0.9-2.7-0.9-4.2-0.9c-0.4,0-0.7,0-0.9,0c0.1-1.2,2.1-1.2,3.6-1.1
			c0.5,0,0.9,0.1,1.2,0c-0.3-0.3-0.2-1-0.5-1.3c-1.3-1.3-4-1.1-5.7-1.3c1.1-1.4,2-3.5,0.8-5.4c-1.8-2.7-7-1.2-9.4-0.4
			c0.2-1.7-2.5-2.8-3.9-2.8c0.3,0-0.7-1.8-0.9-1.9c-0.6-0.5-1.3-0.7-2-0.8c-0.3,0-0.6-0.1-0.9-0.1
			C164.8,1006.8,163.2,1007.3,161.8,1007.8"/>
	</defs>
	<clipPath id="SVGID_90_">
		<use xlink:href="#SVGID_89_"  style="overflow:visible;"/>
	</clipPath>
	
		<linearGradient id="SVGID_91_" gradientUnits="userSpaceOnUse" x1="0" y1="1218.7777" x2="1" y2="1218.7777" gradientTransform="matrix(-39.4487 12.0888 -12.0888 -39.4487 14936.6396 49101.2422)">
		<stop  offset="0" style="stop-color:#D2BE16"/>
		<stop  offset="0.6544" style="stop-color:#838A1B"/>
		<stop  offset="1" style="stop-color:#586E1D"/>
	</linearGradient>
	<polygon class="st48" points="195.8,991 130.4,1011.1 149,1071.8 214.5,1051.8 	"/>
</g>
<g>
	<defs>
		<rect id="SVGID_92_" y="0" width="768" height="1218.8"/>
	</defs>
	<clipPath id="SVGID_93_">
		<use xlink:href="#SVGID_92_"  style="overflow:visible;"/>
	</clipPath>
	<rect x="114.9" y="1027.6" class="st49" width="0.5" height="25.3"/>
	<rect x="43" y="1027.6" class="st49" width="0.5" height="27.2"/>
	<rect x="388.1" y="1041.9" class="st50" width="44" height="14"/>
	<rect x="388.1" y="1041.9" class="st51" width="44.1" height="1.4"/>
	<rect x="392.4" y="1030.9" class="st52" width="40.5" height="11.3"/>
	<rect x="354.3" y="1038.9" class="st50" width="39" height="14"/>
	<rect x="354.3" y="1038.9" class="st51" width="39" height="1.4"/>
	<polygon class="st53" points="352.8,1039 392.5,1039 392.5,1026.9 364.7,1026.9 	"/>
	<rect x="391.3" y="1027.2" class="st54" width="1.1" height="11.5"/>
	<rect x="392.4" y="1026.3" class="st55" width="1" height="13"/>
</g>
<g>
	<defs>
		<path id="SVGID_94_" d="M365.6,1033.4c-1.3-1.6-2.2,1.2-2.6,2.2c-0.3-0.7-1.4-0.8-2-0.5c-0.9,0.4-0.5,1.4-0.6,2.2
			c-0.9,0-1.1,0.2-1.4,1.2c-0.1,0.3,0.1,0.5-0.2,0.7c-0.1,0.1-0.2,0-0.3-0.1c-0.1-0.1-0.2-0.1-0.2-0.1c-0.8,0.2-0.8,1.2-1.2,1.8
			c-0.3,0.5-0.8,0.6-0.8,1.4c0,1,0.4,1.3,1.3,1.5c0,0.7-0.6,1.8,0.6,2.2c-0.1,0.8,0.3,0.8,0.8,0.8c0.2,0,0.4,0,0.6,0
			c0.4,0.1,0.9,0.9,1,1.3l0.6,1c0.4,0.6,1.1,0.8,1.8,1c0.7,0.2,1.3,0.5,2,0.6c0.6,0.1,1.3,0,1.9-0.2c0.5-0.1,1-0.6,1.5-0.7
			c0.6-0.1,1,0.5,1.6,0.7c1.1,0.4,2.6,0.3,3.5-0.6c0,0,0.2-0.6,0.2-0.6c0.3-0.2,1.1-0.1,1.5-0.2c1.7-0.3,3.8-1.5,2.7-3.5
			c1.3-0.7,2.3-2.4,0.6-3.4c0.2-0.6-0.2-1.7-0.4-2.3c-0.5-1.6-1.6-0.8-2.8-0.7c-0.1-0.3,0-0.5-0.1-0.7c-0.1-0.4-0.3-0.9-0.6-1.2
			c-0.2-0.3-0.7-0.3-0.9-0.5c-0.3-0.3-0.1-0.7-0.4-1c-0.4-0.5-1-0.5-1.6-0.5c-0.1,0-0.1,0-0.2,0c0.2-1.9-1.6-0.6-2.7-0.5
			c-0.2-0.9,0.3-1.2-0.5-1.8c-0.4-0.3-0.9-0.5-1.4-0.5C366.4,1032.3,365.9,1032.6,365.6,1033.4"/>
	</defs>
	<clipPath id="SVGID_95_">
		<use xlink:href="#SVGID_94_"  style="overflow:visible;"/>
	</clipPath>
	
		<linearGradient id="SVGID_96_" gradientUnits="userSpaceOnUse" x1="0" y1="1218.7661" x2="1" y2="1218.7661" gradientTransform="matrix(-22.9149 0 0 -22.9149 379.4229 28969.168)">
		<stop  offset="0" style="stop-color:#A3A324"/>
		<stop  offset="1" style="stop-color:#627B21"/>
	</linearGradient>
	<rect x="356.5" y="1031.9" class="st56" width="23.8" height="18.7"/>
</g>
<g>
	<defs>
		<path id="SVGID_97_" d="M325.2,1031.6c-0.1-0.2-0.5-1-0.8-1.1c-0.9-0.3-2.3,1.2-2.7,1.7c-0.9,1.3-0.4,2.7-1.1,3.9
			c-0.1,0-0.2,0-0.3,0c0,0-0.1,0-0.1,0c0,0.2,0,0.4-0.1,0.6c-1.5-2.1-2.5,2-3,2.6c-0.6,0.6-1,0.5-1.3,1.4c-0.2,0.7,0.1,1.8,0.2,2.5
			l0.5,4.2c1,0,1.9,0.1,2.9,0.3c2.7,0.5,5.5,0.8,8.3,0.3c1.3-0.2,2.4-0.6,3.7-0.6c2.3-0.1,4.5,0.2,6.8,0.5c2.8,0.4,5.6,0.8,8.4,0.4
			c1.8-0.2,2.6-2.1,0.7-3.1c1.3-1.1,1-2.2-0.2-3.3c0.4-1.7-6.5-6.8-7.3-5c-0.2-2.1-3.5,0.6-4.3,0.7c-1.1-1.1-0.2-2-0.3-3.3
			c-0.2-1.9-2.3-3.3-3.9-3.7c-0.3-0.1-1.7-0.3-3.2-0.3C326.6,1030.3,325.1,1030.5,325.2,1031.6"/>
	</defs>
	<clipPath id="SVGID_98_">
		<use xlink:href="#SVGID_97_"  style="overflow:visible;"/>
	</clipPath>
	
		<linearGradient id="SVGID_99_" gradientUnits="userSpaceOnUse" x1="0" y1="1218.7584" x2="1" y2="1218.7584" gradientTransform="matrix(-32.4234 0 0 -32.4234 348.2649 40555.7344)">
		<stop  offset="0" style="stop-color:#718431"/>
		<stop  offset="0.6029" style="stop-color:#5C7122"/>
		<stop  offset="1" style="stop-color:#546A1C"/>
	</linearGradient>
	<rect x="315.6" y="1030.1" class="st57" width="33.5" height="18.6"/>
</g>
<g>
	<defs>
		<rect id="SVGID_100_" y="0" width="768" height="1218.8"/>
	</defs>
	<clipPath id="SVGID_101_">
		<use xlink:href="#SVGID_100_"  style="overflow:visible;"/>
	</clipPath>
	<path class="st58" d="M262.9,1020.1c0-0.7-0.6-0.6-0.7-1.3c0-0.7,0.7-0.7,0.9-1.2c0.3-0.5-0.2-1.3,0.4-1.8c0.5-0.4,1-0.3,1.6-0.8
		c0.8-0.7,1.4-1.5,2.6-1.3c1.2,0.2,0.7,1.1,1.5,1.5c0.7,0.4,1.8-0.6,2.7-0.4c1,0.2,0.9,0.8,1.3,1.4c0.1,0.2,0,0.4,0.1,0.6
		c0.5,0.6,2.1,0.8,2.8,1.1c0.7,0.4,0.6,0.8,1,1.2c0.7,0.6,1.5,0.1,2,1c0.2,0.5,0.1,1.2,0.1,1.7c0,0.8,0.2,1.5-0.5,1.9
		c-1.5,0.8-5-0.9-6.4-1.1c-2.7-0.4-5.5,0.3-8.3,0.3c-1,0-2,0-2.9,0v-1.1C261.1,1020.8,261.8,1020,262.9,1020.1"/>
	<path class="st59" d="M264.6,1020.6c0.1-0.6-0.1-1.4-0.1-1.9c-0.1-1.6-0.1-1.4,1.1-2.2c0.5-0.3,1.2-1.1,2-0.7
		c0.4,0.2,0.3,0.7,0.7,0.9c0.5,0.3,0.9,0.2,1.5,0.1c0.4,0,1.5-0.4,2-0.1c0.4,0.3,0.2,0.8,0.4,1.2c0.7,1.2,2.5,0.6,3.6,1.6
		c0.3,0.3,0.2,0.6,0.5,0.9c0.4,0.4,1.3,0.3,1.6,0.9c0.4,0.8-0.2,1.4-0.5,2c-3.3-0.1-6.6-1-10-1c-1,0-2.3-0.2-3.3,0.1l-1.1-0.5
		C263.5,1021.2,263.9,1020.7,264.6,1020.6"/>
	<rect x="254" y="1035.5" class="st60" width="51.4" height="19.3"/>
	<rect x="253.9" y="1035.5" class="st61" width="51.5" height="1.1"/>
	<rect x="253.3" y="1021.1" class="st62" width="52.6" height="14.5"/>
	<rect x="286.2" y="1021.1" class="st63" width="5.9" height="1.7"/>
	<rect x="286.8" y="1015.4" class="st64" width="4.7" height="6.7"/>
	<rect x="296.2" y="1035.6" class="st65" width="0.8" height="1"/>
	<rect x="296.2" y="1036.6" class="st66" width="0.8" height="1.5"/>
	<rect x="294.9" y="1035.6" class="st65" width="0.8" height="1"/>
	<rect x="294.9" y="1036.6" class="st66" width="0.8" height="1.5"/>
	<rect x="293.5" y="1035.6" class="st65" width="0.8" height="1"/>
	<rect x="293.5" y="1036.6" class="st66" width="0.8" height="1.5"/>
	<rect x="296.2" y="1042.7" class="st66" width="0.8" height="3.1"/>
	<rect x="293.5" y="1042.3" class="st66" width="3.6" height="0.6"/>
	<rect x="294.9" y="1042.7" class="st66" width="0.8" height="3.1"/>
	<rect x="293.5" y="1042.7" class="st66" width="0.8" height="3.1"/>
	<rect x="278.4" y="1035.6" class="st65" width="0.8" height="1"/>
	<rect x="278.4" y="1036.6" class="st66" width="0.8" height="1.5"/>
	<rect x="277.1" y="1035.6" class="st65" width="0.9" height="1"/>
	<rect x="277.1" y="1036.6" class="st66" width="0.9" height="1.5"/>
	<rect x="275.7" y="1035.6" class="st65" width="0.8" height="1"/>
	<rect x="275.7" y="1036.6" class="st66" width="0.8" height="1.5"/>
	<rect x="278.4" y="1042.7" class="st66" width="0.8" height="3.1"/>
	<rect x="275.7" y="1042.3" class="st66" width="3.6" height="0.6"/>
	<rect x="277.1" y="1042.7" class="st66" width="0.9" height="3.1"/>
	<rect x="275.7" y="1042.7" class="st66" width="0.8" height="3.1"/>
	<rect x="260.1" y="1035.6" class="st65" width="0.8" height="1"/>
	<rect x="260.1" y="1036.6" class="st66" width="0.8" height="1.5"/>
	<rect x="264.5" y="1035.6" class="st65" width="0.7" height="1"/>
	<rect x="264.5" y="1036.6" class="st66" width="0.7" height="1.5"/>
	<rect x="265.5" y="1035.6" class="st65" width="0.7" height="1"/>
	<rect x="265.5" y="1036.6" class="st66" width="0.7" height="1.5"/>
	<rect x="258.7" y="1035.6" class="st65" width="0.8" height="1"/>
	<rect x="258.7" y="1036.6" class="st66" width="0.8" height="1.5"/>
	<rect x="257.3" y="1035.6" class="st65" width="0.8" height="1"/>
	<rect x="257.3" y="1036.6" class="st66" width="0.8" height="1.5"/>
	<rect x="260.1" y="1042.7" class="st66" width="0.8" height="3.1"/>
	<rect x="257.3" y="1042.3" class="st66" width="3.6" height="0.6"/>
	<rect x="258.7" y="1042.7" class="st66" width="0.8" height="3.1"/>
	<rect x="257.3" y="1042.7" class="st66" width="0.8" height="3.1"/>
	<rect x="286.8" y="1016.3" class="st67" width="4.6" height="0.6"/>
	<rect x="289.5" y="1013.7" class="st64" width="0.7" height="2"/>
	<rect x="288.1" y="1014.3" class="st64" width="0.7" height="1.3"/>
	<rect x="267.1" y="1042.5" class="st68" width="4.7" height="0.4"/>
	<rect x="268.9" y="1043.4" class="st69" width="2.8" height="5.7"/>
	<polygon class="st70" points="286.2,1021.1 286.2,1022.8 283.4,1021.1 	"/>
	<path class="st71" d="M154.2,1048.1c0.1-0.3,0.4-0.5,0.4-0.8l2.1-0.7c0.4,0.1,0.6,0.4,0.9,0.5c0.7,0.2,1.4,0,2.2,0.3
		c0.4,0.2,0.9,0.5,1.2,0.9c0.3,0.4,0.2,0.9,0.4,1.3c0.3,0.5,1.3,0.4,1.8,1c1.7-1.7,6.4-3.4,8.2-0.9c0.4,0.6,0.5,0.6,1.4,0.9
		c0.4,0.2,0.8,0.3,1.2,0.5c0.3,0.1,0.5,0.3,0.8,0.5c0.5,0.1,0.8-0.1,1.3-0.2c2-0.3,3.9,0.4,5.9,0.8c1,0.2,2.2-0.3,3.1,0.2
		c0.4,0.2,1.6,1.7,1.4,2.2c-0.2,0.5-1.7,0.5-1.9,0.5c-2.8,0.3-5.7,0-8.5-0.1c-2.4-0.1-4.9,0.2-7.4,0.4c-2.5,0.2-4.9,0.5-7.4,0.5
		c-1.5,0-3,0-4.4,0c-0.6,0-1.4,0.1-2-0.1c-0.9-0.4-0.5-2.1-0.6-2.9C154,1051.4,153.7,1049.5,154.2,1048.1"/>
	<path class="st72" d="M186.9,1052.1c0.1-0.1,0.8-1,1-1.2c1-1.5,2-2.6,3.9-3.4c3.9-1.7,7.5-4.3,12.1-3.6c2.2,0.3,4.6,3.4,6.8,2.4
		c0-0.2,0-0.4,0.1-0.5c1-0.1,2.6,0.5,3.4,0.2c0.4-0.1,0.7-0.9,1-1.2c0.5-0.4,1-1,1.7-1.2c0.7-0.2,1.2,0.3,1.8,0.2
		c0.6-0.1,0.8-0.3,1.4-0.4c2.7-0.6,4.4,1.2,6.7,2.6c0.4,0.2,1.8,1.5,2.1,1.5c0.7,0.1,0.4-0.3,1.1-0.5c1.4-0.4,2.3-0.9,3.9-0.8
		c1.7,0.1,3.6,0.4,4.4,2c1.2-0.1,1.8-0.9,2.8-1.2c0.7-0.2,1.5,0.2,2.1,0c0.4-0.1,0.5-0.5,0.8-0.6c0.8-0.2,1.3,0,2.1,0
		c1.9,0,3.4-1.1,5.5-0.8c1.8,0.3,3.6,1.3,5.1,2.2v1.8c0.1,1.7,2.4,2.6,1.8,5c-0.3,1.1-0.4,0.9-1.8,1.1c-2.9,0.4-6,0.3-8.9,0.7
		c-10.8,1.2-22.6,2.3-33.4,0.8c-8.6-1.2-17.2-0.5-25.9-1c-1.1-0.1-2.6,0.2-3.1-0.8C184.6,1053.7,186.1,1052.9,186.9,1052.1"/>
	<path class="st59" d="M192.2,1050.9c0-2.5,2.7-2.6,4.8-2.6c0-1.7,2.8-2.1,4.1-2.2c1.3,0,2.5,0.2,3.6,0.7c0.5,0.3,0.8,0.8,1.4,1
		c0.9,0.3,1.9,0,2.8,0.2c0.8,0.2,1,0.5,1.9,0.6c1.4,0.1,1.7-0.1,2.9,0.6c0.9,0.6,1.7,1.7,2.6,2.4c0.2-2.4-0.9-2.5-2.6-3.7
		c0.5-0.6,2.9-1.2,3.8-1.3c0.6-0.1,1.2,0.1,1.8,0c0.5-0.1,0.9-0.5,1.4-0.6c1.2-0.2,2.4,0.2,3.5,0.5c1.3,0.4,1.2,0.8,1.9,1.4
		c0.6,0.5,1.5,0.8,2,1.6c0.3,0.5,0.2,1.8,0.6,2.1c2.3,1.8,0.8-2.8,0.9-3.3c1.4-0.2,2.7-0.5,4.2-0.5c1.2,0,1.8,0,2.6,0.4
		c0.6,0.3,0.7,1.1,1.7,1.3c-0.2,0.9-0.9,1.5-0.8,2.5c1.7,0.4,2.8-2.4,3.8-3.1c1.2-0.8,2.9,0.2,4.2,0.1c0.6,0,1.6-0.2,2.2-0.4
		c1.3-0.4,2.4-1.4,3.8-1.2c1.3,0.2,2.2,0.8,1.7,2c-0.6,1.4-3.3,2.1-1.5,4.2l-1.2,1.4c-2.4,0-4.5,0.8-6.8,1.2c-5.8,1-12,0.9-17.8,0.8
		c-5.8-0.1-11.9,0.1-17.7-0.8c-6.2-1-12.5-0.7-18.8-1.1C189,1053.4,190.3,1051.3,192.2,1050.9"/>
	<path class="st71" d="M406.4,1050.5c1.7,0.1,2.2-1.1,3.9-1.9c1.6-0.7,2.5-0.2,4-0.2c1.9-0.1,3.3-1.4,5.3-1c0.7,0.1,0.8,0.5,1.6,0.5
		c1.3-0.1,2.5-0.6,3.8-0.5c2,0.1,5.4,0.3,5.5,2.9v-0.4c2.6-2.1,6.1-1.8,9-0.8c1.8,0.6,3.3,1.8,5,2.5c1.3,0.5,2.2,0,3.6-0.4
		c2.3-0.5,3.7-0.1,5.8,0.2c2.6,0.3,5.4-0.5,8,0c0.7,0.1,1.3,0.5,2,0.6c2,0.1,4.1-0.8,6.2-0.9c3-0.2,5.5-1.4,8.6-1.6
		c2.9-0.2,5.8-0.1,8.7-0.1c3.4,0,6.7,0.8,10,1.5c1.1,0.3,2.1,0.5,3.2,0.4c2.5-0.2,4.8-1.3,7.3-1.5c2.2-0.2,4.4-0.9,6.6-1
		c1.2-0.1,2.2,0.5,3.4,0.6c1.3,0.1,2.5-0.3,3.9-0.4c2.6-0.2,5.5,0.2,7.9,1c1.3,0.4,2.6,1.6,3.9,1.9c1.4,0.3,1,0.1,2.7-0.5
		c3.2-1.2,6.4-1.3,9.5-0.2c3,1,5.9,0.9,6.7,4.8c-8.9,0.5-18-0.2-26.8-0.2c-7.8,0-15.5,0.1-23.3,0.5c-6.7,0.4-13.4,1-20.2,0.8
		c-4.5-0.1-9.1-0.6-13.6-0.9c-4.2-0.2-8.4,0.1-12.5-0.1c-6.4-0.3-12.9-0.1-19.3-0.1c-1.8,0-9.6,4.4-9.5,1.5
		c-1.7-0.2-2.1-3.2-3.7-2.8c-2.1,0.4-4.2,0.6-6.4,0.5c-2-0.1-3.9,0-5.9,0c-5.3-0.1-7.3,0.9-10.1,0.9c-1.2,0-1-2.2-2.1-2.1
		C398.3,1050.1,404.5,1050.4,406.4,1050.5"/>
	<path class="st73" d="M402.6,1054.2c0-1.7,1.6-2,2.9-2.1c1.1-0.1,2.8,0.9,3.6,0.6c0.7-0.3,0.8-2.1,1.6-2.5c0.4-0.2,0.8-0.1,1.3-0.2
		c1.1-0.2,2.5-0.4,3.5,0.4c0.9-1.3,3.2-0.1,4.4-0.2c2.7-0.3,5.6-1.2,7.1,1.6c0.3,0.7,1,3.4,2.1,2.6c1.3-1-1.9-3.4-1.8-4.5
		c1.2,0.8,2.1,1.8,3.3,1.4c0.6-0.2,1.1-0.9,1.8-1c0.8-0.1,1.5,0.2,2.2,0.2c1.7,0.1,4-0.5,5.3,1c0.7,0.8,1.5,2.7,1.8,3.8
		c1-1.1-0.3-2.2-0.4-3.3c1.6,0.4,2.6,2,4.2,1.9c1.3,0,3-1.1,4.6-1.2c1.9,0,2.9,0.5,4.7,0.7c1.9,0.3,3.9,0.1,5.8,0
		c3.9,0,8.1-0.3,11.8-1.3c2-0.5,3.8-1.1,5.8-1.3c1.7-0.1,2.8,0.2,4.5-0.2c2.3-0.5,4.7-0.5,6.7,0c2.6,0.7,5.4,1.8,8.1,2.5
		c4.1,0.9,7.1-2.7,11-3c3.2-0.3,6.9-0.2,10,0.3c3.6,0.6,7.3,0.1,10.6,1.6c2.7,1.2,5.8,2.1,8.9,1.3c2-0.5,3.8-1.2,5.9-0.5
		c1.3,0.4,2.5,1.2,3.7,1.9c-0.2,1.6-4.6,1.1-5.8,1.1c-4.1,0-8.1,0.3-12.2,0.8c-7.1,1-14.7,0.9-21.9,0.9c-7.7,0-15.3-0.1-23-0.2
		c-19.2-0.2-38.5-0.4-57.7-0.4c-8.4,0-17.6,1.1-25.8-1.3L402.6,1054.2z"/>
	<path class="st71" d="M323.8,1044.5c0.6-1.4,2.1-2.2,3.8-2.1c1.7,0.1,2.1,1.6,2.7,3c1-0.1,1.2-1.6,2-2.2c0.9-0.6,3.4-1.9,4.1-0.4
		c2.4-0.6,4.7-1.8,7.2-0.4c1.2,0.7,2.8,2.2,2.7,3.7c1.3-0.4,2.4-1.1,3.9-0.6c1.2,0.3,1.5,1.1,2.4,1.7c0.5,0.4,0.5,0.3,1.1,0.6
		c1.2,0.6,2.2,1.7,3.4,1.3c1.9-0.7,3-2.3,5.2-2.4c2.2-0.1,3.7,2.7,5.9,1.8c0.7-0.3,1.2-1.2,1.9-1.5c0.7-0.3,1.1-0.1,1.7-0.1
		c1.4-0.2,2.5-1.1,4.3-0.9c2.7,0.2,5.4,3.7,8.3,2.7c0.9-0.3,1.5-1.2,2.2-1.8c1.2-1,2.2-1.5,3.7-1.6c1.7-0.2,3.2,0.3,4.7,0.7
		c2.7,0.6,5.7,2,6.7,4.8c0.2,0.6,0.7,3.6,0,4.1h-77.8V1044.5z"/>
	<path class="st74" d="M328.5,1049.1l1.8-0.9c0.2-0.8,0.9-1.6,1.6-2c0.9-0.5,0.9-0.1,1.7-0.3c0.3-0.1,0.3,0.1,0.7,0
		c0.3-0.1,0.9-0.8,1.3-1c1.3-0.6,3.3-1.1,4.7-0.8c1.5,0.3,0.9,1.4,1.9,2.2c1.4,1.1,4,0.8,4.4,3.1c1.1-0.3,2-1,3.2-1.1
		c1.4-0.1,2.6,0.4,3.7,1.2c1,0.8,1.7,2.3,3.1,1.9c0.4-0.1,0.5-0.5,1-0.5c0.6,0,1.3,0.4,1.6,0.9c0.4,0.6,0.2,1.3,0.8,1.8
		c1.1-0.3,1-1.6,0.6-2.4c-0.5-1.1-1.5-1.2-0.6-2.3c0.4-0.6,1.3-1,2.1-0.9c0.9,0.1,0.6,0.5,1.2,0.9c1.5,1.2,3.9,0.7,5,2.6
		c0.8-0.4,2.8-1,2.8-2.1c1-0.1,1.1-0.1,2-0.5c0.9-0.4,1.5-0.8,2.5-0.8c1.8,0,3.5,0.8,4.5,2.2c0.6,0.9,0.3,2.9,1.6,3
		c1.6,0.1,1.9-2.6,0.7-3.1c1.3-0.1,3.1,0.6,4.2-0.2c1.2-0.9,1.1-2.4,2.8-2.6c2.1-0.2,5.1-0.3,7.1,0.6c2.6,1.2,4.6,4.8,3.5,7.8
		c-7.9,0.4-16,0-23.9,0c-7.3,0-14.7,0.2-22.1,0.6c-8.6,0.5-17.4,1.3-26,0.7C327.6,1054.4,328.3,1051.7,328.5,1049.1"/>
	<path class="st71" d="M156.9,1046.9c-0.6-1.2-2.1-1.8-3.8-1.7c-1.7,0.1-2.1,1.3-2.7,2.5c-1-0.1-1.2-1.3-2-1.8
		c-0.9-0.5-3.4-1.5-4.1-0.3c-2.4-0.5-4.7-1.5-7.2-0.3c-1.2,0.6-2.8,1.8-2.7,3c-1.3-0.4-2.4-0.9-3.9-0.5c-1.2,0.3-1.5,0.9-2.4,1.4
		c-0.5,0.3-0.5,0.2-1.1,0.5c-1.2,0.4-2.2,1.4-3.4,1c-1.9-0.5-3-1.9-5.2-1.9c-2.2-0.1-3.7,2.2-5.9,1.5c-0.7-0.2-1.2-1-1.9-1.2
		c-0.7-0.3-1.1-0.1-1.7-0.1c-1.4-0.1-2.5-0.9-4.3-0.8c-2.7,0.2-5.4,3-8.3,2.2c-0.9-0.2-1.5-1-2.2-1.5c-1.2-0.8-2.2-1.2-3.7-1.3
		c-1.7-0.1-3.2,0.3-4.7,0.5c-2.7,0.5-5.7,1.6-6.7,3.9c-0.2,0.5-0.7,2.9,0,3.3h77.8V1046.9z"/>
	<path class="st74" d="M152.2,1050.6l-1.8-0.7c-0.2-0.6-0.9-1.3-1.6-1.6c-0.9-0.4-0.9-0.1-1.7-0.2c-0.3,0-0.3,0.1-0.7,0
		c-0.4-0.1-0.9-0.7-1.3-0.8c-1.3-0.5-3.3-0.9-4.7-0.6c-1.5,0.3-0.9,1.2-1.9,1.8c-1.4,0.9-4,0.6-4.4,2.5c-1.1-0.3-2-0.8-3.2-0.9
		c-1.4-0.1-2.6,0.3-3.7,1c-1,0.6-1.7,1.9-3.1,1.5c-0.4-0.1-0.5-0.4-1-0.4c-0.6,0-1.3,0.3-1.6,0.8c-0.4,0.5-0.2,1.1-0.8,1.5
		c-1.1-0.3-1-1.3-0.6-2c0.5-0.9,1.5-0.9,0.6-1.9c-0.4-0.5-1.3-0.8-2.1-0.8c-0.9,0.1-0.6,0.4-1.2,0.8c-1.5,1-3.9,0.5-5,2.1
		c-0.8-0.3-2.8-0.8-2.8-1.7c-1-0.1-1.1-0.1-2-0.4c-0.9-0.4-1.5-0.6-2.5-0.7c-1.8,0-3.5,0.7-4.5,1.8c-0.6,0.7-0.3,2.4-1.6,2.5
		c-1.6,0.1-1.9-2.1-0.7-2.5c-1.3-0.1-3.1,0.5-4.2-0.1c-1.2-0.7-1.1-1.9-2.8-2.1c-2.2-0.2-5.1-0.3-7.1,0.5c-2.6,1-4.6,3.9-3.5,6.3
		c7.9,0.4,16,0,23.9,0c7.3,0,14.7,0.2,22.1,0.5c8.6,0.4,17.4,1,26,0.5C153.1,1054.9,152.3,1052.8,152.2,1050.6"/>
	<path class="st72" d="M253,1048.1c0.4-0.5,1.7-1.3,2.3-1.7c1.1-0.6,2.5-1.2,3.7-0.8c1.2,0.5,2,1.5,3.4,1.2c2.1-0.4,3.3-0.8,5.2,0.2
		c0.6,0.3,1,0.7,1.8,0.3c0.8-0.4,1.3-1,2.3-1.2c1.3-0.3,2.4-0.1,3.6,0.3c0.6,0.2,1.5,0.3,2,0.6c0.6-1.6,2-1.3,3.2-2
		c0.3-0.2,0.1-0.3,0.4-0.6c0.9-1,1.7-1.6,3.1-1.8c2.4-0.4,6.6-0.1,7,3c0.6,0,1.2,0,1.8,0.1c0.7,0.1,1.3,0.2,2,0.5
		c0.3,0.1,0.8,0.5,1,0.5c0.8,0,1.6-0.8,2.4-1c0.3-0.1,0.7-0.1,1,0c0.3,0,0.5,0.4,0.8,0.4c0.7,0,1.6-0.7,2.5-0.8c1-0.1,2,0,2.9,0.1
		c1.1,0.1,2.3-0.1,3.2,0.7c0.5-0.8,1.4-1.1,2.3-1.3c0.3-0.1,1.1,0,1.3-0.1c0.4-0.2,0.2-0.2,0.6-0.5c1.1-0.9,4.6-2.1,5.7-0.7
		c0.6-1.3,1.9-1.7,3.3-1.5c0.6,0.1,1.3,0.4,1.8,0.8c0.3,0.2,0.5,0.7,0.8,0.8c1.2,0.9,2.7,1,3.6,2.4c0.5,0.8,1.2,2.4,0.6,3.4
		c0.9,0.9,1.4,4.1,0.5,5.2h-76.9C252.1,1054.7,250.2,1051.5,253,1048.1"/>
	<path class="st59" d="M254.5,1054.8c-0.5-1.4-2.7-2.7-0.9-4.2c0.3-0.3,0.8-0.3,1.1-0.6c0.3-0.3,0.4-0.8,0.6-1.2
		c0.6-0.8,2.1-1.8,3.1-1.7c0.7,0.1,1,0.7,1.6,1c1.5,0.8,2.3,0.3,3.5-0.3c2.4-1.1,2.5,0.1,4.5,0.9c0.6,0.2,1.8,0.6,2.4,0.3
		c0.4-0.2,0.6-0.9,1-1.2c1.4-1,3.5,0.4,5,0.6c1.3,0.2,0.9-0.1,2-0.7c0.5-0.3,1-0.2,1.4-0.4c0.8-0.5,0.8-1.8,1.7-2.3
		c0.9-0.6,2.5-0.6,3.7-0.6c2.4,0,3.2,0.2,3.3,2.7c0.9-0.1,1.8-0.3,2.6-0.3c0.6,0,1.2,0,1.8,0.3c0.2,0.1,0.1,0.5,0.4,0.7
		c1.4,0.9,2.3,0.3,3.6-0.2c1.5-0.6,3.3-0.1,4.8-0.6c1.3-0.4,2.4-1.4,3.9-0.7c1.1,0.4,1.6,1.5,3,1c0.5-0.2,0.9-1,1.4-1.2
		c1.1-0.4,2.2,0.8,3.3,0.3c1.4-0.6,1.4-2.1,3.1-2.2c0.8,0,1.3,0.5,1.9,0.4c0.8-0.1,1.4-0.8,2.4-0.8c1.1,0,1.6,0.1,2.5,0.8
		c0.7,0.5,1,1.4,1.5,1.8c0.2,0.2,0.7,0.2,0.8,0.3c1.2,1.2,0,2.4,0.5,3.8c0.3,0.7,0.9,0.7,1.2,1.3c0.4,0.8-0.2,2.5-0.9,3.1H254.5z"/>
	<path class="st72" d="M296.8,1049.3c0.4,1.2,0.6,3.2-0.6,4c0-0.6,0.4-1.1,0.2-1.7c-0.1-0.4-0.5-0.7-0.6-1.1c-0.1-0.3,0.1-0.7,0-0.9
		c-0.1-0.3-0.5-0.5-0.7-0.7c-0.4-0.3-0.6-0.6-1-0.9c-0.3-0.2-0.8-0.3-0.8-0.8l-0.1-0.4C294.7,1047,296.3,1048,296.8,1049.3"/>
	<path class="st72" d="M309.6,1046.8c0.8,0.3,0.8,1.1,1.3,1.6c0.8,0.8,0,1.2,0.5,2c0.3,0.5,0.8,0.8,0.6,1.5
		c-0.2,0.6-0.9,1.3-1.5,1.4c0.2-0.5,0.4-0.9,0.3-1.5c-0.1-0.6-0.6-1.1-0.7-1.6c-0.2-0.6,0-1.1-0.3-1.7c-0.4-0.7-1.1-1.3-1.8-1.7
		C308.3,1046.6,309.2,1046.7,309.6,1046.8"/>
	<path class="st72" d="M306.8,1046.4c0.4,0.1,0.7,0.2,1.1,0.4c0,0-0.1,0.1-0.1,0.1L306.8,1046.4z"/>
	<path class="st72" d="M276,1048.1c0.3-0.1,1-0.4,1.1-0.1l1.3-0.4c-0.4,0.1-1.1,0.4-1.3,0.7c-0.1,0.2-0.1,0.4-0.3,0.6
		c-0.2,0.2-0.4,0.2-0.5,0.5c-0.2,0.3-0.2,0.5-0.2,0.9c0,0.5-0.1,0.9-0.1,1.4s0.1,0.4,0.3,0.8c0.3,0.4,0.5,0.8,0.8,1.2
		c-1,0.1-1.5-0.6-1.6-1.4c-0.1-0.7-0.4-1.3-0.4-2C275,1049.3,275,1048.6,276,1048.1"/>
	<path class="st74" d="M149.5,1051.2l1.4-0.7c0.6-0.3,1.2,0.1,1.8,0.3c0.3-0.4,0.7-0.7,1-0.9c0.1,0,0.7-0.3,0.8-0.4
		c0.1-0.3-0.4-0.4-0.5-0.6c-0.2-0.7,0.7-0.7,1.1-0.6c1.1,0.2,2,1,2.3,2.1c0.7,0,1.5,0,2,0.4c0.3,0.2,0.6,0.6,0.8,1
		c0.1,0.3,0,0.5,0.1,0.7c0.4,1.1,2,0.8,3,0.8c0.1-0.5,0.9-1.3,1.4-1.4c1.1-0.3,2.3,0.7,3.2,1.2c0.3-1.1-1.1-2-1.8-2.6
		c0.5-0.3,2.2-0.1,2.8,0c1,0.2,1.8,0.8,2.4,1.6c0.7-0.2,1.5,0,2.1,0.3c0.3,0.2,0.4,0.5,0.7,0.6c0.5,0.2,1.1,0,1.6-0.1
		c0.9-0.1,1.8-0.3,2.7-0.3c0.5,0,7.1,1.2,5.9,2.6c-0.2,0.3-2-0.1-2.1-0.1c-1.2-0.1-2.3-0.3-3.5-0.4c-2.1-0.2-4.1-0.2-6.2-0.1
		c-2.6,0.1-5.1,0.1-7.7,0c-1.9-0.1-3.9-0.1-5.9,0.2c-2.7,0.4-5.3,0.7-7.9,0.1c-0.8-0.2-2.2-0.5-2.3-1.5
		C148.6,1052.7,149.2,1051.7,149.5,1051.2"/>
</g>
<g>
	<defs>
		<rect id="SVGID_102_" x="2.2" y="1053.6" width="765.8" height="119.4"/>
	</defs>
	<clipPath id="SVGID_103_">
		<use xlink:href="#SVGID_102_"  style="overflow:visible;"/>
	</clipPath>
	
		<linearGradient id="SVGID_104_" gradientUnits="userSpaceOnUse" x1="0" y1="1218.756" x2="1" y2="1218.756" gradientTransform="matrix(0 118.4649 118.4649 0 -143994.7656 1051.5065)">
		<stop  offset="0" style="stop-color:#A0B861"/>
		<stop  offset="1" style="stop-color:#79A32D"/>
	</linearGradient>
	<rect x="2.2" y="1053.6" class="st75" width="765.8" height="119.4"/>
</g>
<g>
	<defs>
		<rect id="SVGID_105_" y="0" width="768" height="1218.8"/>
	</defs>
	<clipPath id="SVGID_106_">
		<use xlink:href="#SVGID_105_"  style="overflow:visible;"/>
	</clipPath>
	<path class="st76" d="M1,1054.9c7.1-2.9,213.1,30.3,274.7,26.6c61.6-3.7,208.8-10.9,255.8-4.7c47,6.1,126.7,8.2,151.3,5.1
		c24.6-3.1,85.4-20.4,85.4-20.4v157.3H1V1054.9z"/>
</g>
</svg>
