<?xml version="1.0" encoding="utf-8"?>
<!-- Generator: Adobe Illustrator 19.0.0, SVG Export Plug-In . SVG Version: 6.00 Build 0)  -->
<svg version="1.1" id="Layer_1" xmlns="http://www.w3.org/2000/svg" xmlns:xlink="http://www.w3.org/1999/xlink" x="0px" y="0px"
	 viewBox="0 0 64.5 64.5" style="enable-background:new 0 0 64.5 64.5;" xml:space="preserve">
<style type="text/css">
	.st0{clip-path:url(#XMLID_64_);fill:#B6C7D2;}
	.st1{clip-path:url(#XMLID_64_);fill:#E75025;}
	.st2{clip-path:url(#XMLID_64_);fill:#FFFFFF;}
</style>
<g id="XMLID_61_">
	<defs>
		<rect id="XMLID_62_" width="64.5" height="64.5"/>
	</defs>
	<clipPath id="XMLID_63_">
		<use xlink:href="#XMLID_62_"  style="overflow:visible;"/>
	</clipPath>
</g>
<g id="XMLID_54_">
	<defs>
		<path id="XMLID_55_" d="M32,0C14.3,0.1,0,14.5,0,32.3c0,17.8,14.4,32.3,32.3,32.3s32.3-14.4,32.3-32.3c0-17.7-14.3-32.1-32-32.3
			H32z"/>
	</defs>
	<clipPath id="XMLID_64_">
		<use xlink:href="#XMLID_55_"  style="overflow:visible;"/>
	</clipPath>
	<path id="XMLID_60_" class="st0" d="M32.3,53.4c8.4,0,15.3-1.1,15.3-2.5s-6.8-2.5-15.3-2.5S17,49.5,17,50.9S23.8,53.4,32.3,53.4"/>
	<path id="XMLID_59_" class="st1" d="M47.6,26.4c0,13.5-15.3,23.8-15.3,23.8S17,39.9,17,26.4c0-8.4,6.8-15.3,15.3-15.3
		S47.6,18,47.6,26.4"/>
	<path id="XMLID_58_" class="st1" d="M32.3,11.2v39.1c0,0,15.3-10.3,15.3-23.8C47.6,18,40.7,11.2,32.3,11.2"/>
	<path id="XMLID_57_" class="st2" d="M42.8,26.5c0,5.8-4.7,10.5-10.5,10.5s-10.5-4.7-10.5-10.5S26.5,16,32.3,16S42.8,20.7,42.8,26.5
		"/>
	<path id="XMLID_56_" class="st2" d="M32.3,16v21.1c5.8,0,10.5-4.7,10.5-10.5S38.1,16,32.3,16"/>
</g>
</svg>
