<?xml version="1.0" encoding="utf-8"?>
<!-- Generator: Adobe Illustrator 19.0.0, SVG Export Plug-In . SVG Version: 6.00 Build 0)  -->
<svg version="1.1" id="Layer_1" xmlns="http://www.w3.org/2000/svg" xmlns:xlink="http://www.w3.org/1999/xlink" x="0px" y="0px"
	 viewBox="339.7 173.8 393.8 450.1" style="enable-background:new 339.7 173.8 393.8 450.1;" xml:space="preserve">
<style type="text/css">
	.st0{fill:#E3E1E1;}
	.st1{fill:#727171;}
	.st2{fill:#727272;}
	.st3{fill:#7FB9E6;}
</style>
<g>
	<g>
		<path class="st0" d="M620.8,593.2l-0.5-61.2l-7.9-35.8l-9,29.4v-35.9l-1.5-15.6l-2.8,13.1l-8.6-38.8l-7.9,35.8l-45.5-310.4
			l-43.7,311.6l-5.6-37.6l-6.4,37.9l-3.8-8.7l-0.6,20.7l-0.7,28.4l-7.7-28.2l-8.4,34.3l-0.3,60.8c20.9,9.6,33.2,18.2,82.6,19
			C575.3,612.1,599.2,603.7,620.8,593.2"/>
	</g>
	<polygon class="st1" points="403.6,465.3 407.5,465.3 407.5,491.5 403.6,491.5 403.6,480.1 388.4,480.1 388.4,491.5 384.6,491.5 
		384.6,465.3 388.4,465.3 388.4,476.7 403.6,476.7 	"/>
	<g>
		<path class="st1" d="M440.9,468.5c-3.1,0-5.6,0.9-7.6,2.8s-3,4.3-3,7.2c0,2.8,1,5.2,3,7.1s4.5,2.8,7.5,2.8s5.5-1,7.6-2.9
			c2-1.9,3-4.3,3-7.1c0-2.8-1-5.1-3-7C446.3,469.5,443.8,468.5,440.9,468.5 M440.7,464.9c4.2,0,7.7,1.3,10.4,3.8
			c2.8,2.6,4.2,5.8,4.2,9.6s-1.4,7.1-4.2,9.6c-2.8,2.5-6.3,3.8-10.6,3.8c-4.1,0-7.5-1.3-10.2-3.8s-4.1-5.7-4.1-9.5
			c0-3.9,1.4-7.2,4.1-9.7C433.1,466.2,436.5,464.9,440.7,464.9"/>
	</g>
	<polygon class="st1" points="495.6,465.3 499.2,465.3 499.2,491.5 495.3,491.5 495.3,471.1 487,481.3 486.3,481.3 477.8,471.1 
		477.8,491.5 474,491.5 474,465.3 477.6,465.3 486.6,476.1 	"/>
	<polygon class="st1" points="519,465.3 534.3,465.3 534.3,468.7 522.8,468.7 522.8,476.7 533.9,476.7 533.9,480 522.8,480 
		522.8,488.2 534.7,488.2 534.7,491.5 519,491.5 	"/>
	<g>
		<path class="st1" d="M576.1,485.4v4.1c-2.8,1.5-6.1,2.2-9.8,2.2c-3,0-5.6-0.6-7.7-1.8c-2.1-1.2-3.8-2.8-5-4.9
			c-1.2-2.1-1.8-4.3-1.8-6.7c0-3.8,1.4-7,4.2-9.6c2.8-2.6,6.3-3.9,10.4-3.9c2.8,0,6,0.7,9.5,2.2v4c-3.2-1.7-6.3-2.6-9.3-2.6
			c-3.1,0-5.7,0.9-7.7,2.8s-3.1,4.3-3.1,7.1c0,2.9,1,5.2,3,7.1s4.6,2.8,7.7,2.8C569.7,488.4,572.9,487.4,576.1,485.4"/>
	</g>
	<path class="st1" d="M610.1,480.4l-4.4-9.5l-4,9.5H610.1z M604.4,465.2h2.7l12.1,26.4h-4l-3.6-7.8h-11.5l-3.4,7.8h-4L604.4,465.2z"
		/>
	<g>
		<path class="st1" d="M641.3,468.5h-1.2v8.3h1.5c2,0,3.3-0.2,4-0.5s1.3-0.8,1.7-1.5s0.6-1.4,0.6-2.2c0-0.8-0.2-1.6-0.7-2.2
			c-0.5-0.7-1.1-1.1-1.9-1.4C644.6,468.7,643.2,468.5,641.3,468.5 M636.3,491.5v-26.2h6.8c2.7,0,4.9,0.7,6.5,2s2.4,3.1,2.4,5.3
			c0,1.5-0.4,2.8-1.2,4c-0.8,1.1-1.9,1.9-3.4,2.5c0.9,0.6,1.7,1.3,2.5,2.2c0.8,0.9,2,2.6,3.5,5c0.9,1.5,1.7,2.6,2.3,3.4l1.4,1.9
			h-4.6l-1.2-1.7c0-0.1-0.1-0.2-0.2-0.3l-0.8-1l-1.2-1.9l-1.3-2c-0.8-1.1-1.5-1.9-2.2-2.6c-0.7-0.6-1.3-1.1-1.8-1.4
			s-1.4-0.4-2.7-0.4h-1v11.4h-3.8V491.5z"/>
	</g>
	<polygon class="st1" points="674.1,465.3 689.4,465.3 689.4,468.7 678,468.7 678,476.7 689,476.7 689,480 678,480 678,488.2 
		689.8,488.2 689.8,491.5 674.1,491.5 	"/>
	<path class="st2" d="M682.6,292.9c-32.7-36.4-76.8-59.2-124.2-64l-3.8-0.4l2.1,13.3l2.2,0.2c43.8,4.5,84.4,25.6,114.3,59.3
		c30.3,34.1,46.9,78.3,46.9,124.5c0,101.8-82.3,184.6-183.5,184.6s-183.5-82.8-183.5-184.6c0-46.5,16.7-91,47.2-125.2
		c30.3-34.1,71.4-55.2,116-59.5l2.1-0.2l2.5-12.7l-3.9,0.4c-48.3,4.9-93,27.6-125.9,64c-33.2,36.6-51.4,83.9-51.4,133.3
		c0,109.2,88.3,198,196.9,198s196.9-88.8,196.9-198C733.6,376.7,715.5,329.5,682.6,292.9z"/>
	<rect x="529.4" y="364.1" class="st3" width="16.2" height="88.9"/>
	<g>
		<path class="st3" d="M587.9,405.1c4.2,0,7.1-0.8,9.8-2.3c3.8-2.2,6.2-6.2,6.2-11.7c0-4.7-2-8.9-5.9-11.2c-2.2-1.5-5.1-2.6-10-2.6
			h-7.4v27.8L587.9,405.1L587.9,405.1z M564.5,364.1h24.3c8.4,0,14.3,1.3,19,3.6c9.4,4.5,13.2,12.7,13.2,21.7
			c0,11.9-7.1,19.7-17.4,22.9v0.3c2.7,1.5,6.3,6.3,11.1,14.4l14.8,25.9h-18.6l-12.8-22.5c-4.3-8-7.5-11.6-9.7-12.1h-7.7V453h-16.2
			V364.1L564.5,364.1z"/>
	</g>
	<polygon class="st3" points="641.2,364.1 690.3,364.1 685.8,377.9 657.4,377.9 657.4,401.1 685.8,401.1 685.8,414.8 657.4,414.8 
		657.4,439.2 690.4,439.2 690.4,453 641.2,453 	"/>
	<path class="st3" d="M391.5,434.2c5.3,3.6,12,6.5,20.1,6.5c7.4,0,14.8-2.8,14.8-10.5c0-17.4-38.4-15.2-38.4-42.3
		c0-13.1,10.4-24.5,28.9-24.5c9.2,0,16.9,2,21.7,4.5v14.8c-7-3.6-14.2-5.7-21.2-5.7c-6.2,0-12.1,2.4-12.1,9.6
		c0,16.3,38.4,14.2,38.4,42.3c0,15.8-13.5,25.5-31.7,25.5c-10.4,0-20.1-3-26.8-7.7L391.5,434.2z"/>
	<path class="st3" d="M479.7,409.2c4.3,0,7.8-0.7,10.4-2c5-2.4,7.4-7.3,7.4-13.9c0-5.8-2.3-10.8-7-13.6c-2.6-1.5-6.2-2.3-11.1-2.3
		h-4.6v31.8H479.7z M458.6,364.1H480c8.2,0,14.7,1.2,20,3.8c9.2,4.6,14.4,13.2,14.4,25.4c0,10.2-4.5,20.9-17,26
		c-4.9,1.9-10.9,3.1-18.9,3.1h-3.8V453h-16.2v-88.9H458.6z"/>
</g>
</svg>
