<?xml version="1.0" encoding="utf-8"?>
<!-- Generator: Adobe Illustrator 19.0.0, SVG Export Plug-In . SVG Version: 6.00 Build 0)  -->
<svg version="1.1" id="Layer_1" xmlns="http://www.w3.org/2000/svg" xmlns:xlink="http://www.w3.org/1999/xlink" x="0px" y="0px"
	 viewBox="341 175.2 391.2 447.3" style="enable-background:new 341 175.2 391.2 447.3;" xml:space="preserve">
<style type="text/css">
	.st0{fill:#FFFFFF;}
	.st1{fill:#B9B8B8;}
	.st2{fill:#B3B1B2;}
	.st3{fill:#7FB9E6;}
</style>
<g>
	<path class="st0" d="M620.3,591.9l-0.5-60.8l-7.9-35.6l-8.9,29.2v-35.6l-1.5-15.5l-2.7,13l-8.5-38.6l-7.9,35.6l-45.3-308.4
		l-43.5,309.6l-5.6-37.4l-6.4,37.6l-3.8-8.6l-0.6,20.6l-0.7,28.2l-7.6-28l-8.4,34.1l-0.3,60.4c20.8,9.5,33,18.1,82,18.9
		C575.1,610.7,598.8,602.4,620.3,591.9"/>
</g>
<polygon class="st1" points="519.1,464.9 534.3,464.9 534.3,468.2 522.9,468.2 522.9,476.1 533.9,476.1 533.9,479.5 522.9,479.5 
	522.9,487.6 534.7,487.6 534.7,490.9 519.1,490.9 "/>
<polygon class="st1" points="404.5,464.9 408.4,464.9 408.4,490.9 404.5,490.9 404.5,479.6 389.4,479.6 389.4,490.9 385.6,490.9 
	385.6,464.9 389.4,464.9 389.4,476.1 404.5,476.1 "/>
<g>
	<path class="st1" d="M441.5,468c-3.1,0-5.6,0.9-7.6,2.8s-3,4.2-3,7.1c0,2.8,1,5.1,3,7s4.5,2.8,7.5,2.8s5.5-1,7.5-2.9s3-4.3,3-7.1
		c0-2.8-1-5.1-3-7C446.9,469,444.4,468,441.5,468 M441.3,464.5c4.2,0,7.6,1.3,10.4,3.8s4.1,5.7,4.1,9.6c0,3.8-1.4,7-4.2,9.5
		c-2.8,2.5-6.3,3.8-10.5,3.8c-4.1,0-7.4-1.3-10.1-3.8s-4-5.7-4-9.5c0-3.9,1.4-7.1,4.1-9.7C433.7,465.8,437.2,464.5,441.3,464.5"/>
</g>
<polygon class="st1" points="495.8,464.9 499.4,464.9 499.4,490.9 495.6,490.9 495.6,470.7 487.3,480.7 486.6,480.7 478.2,470.7 
	478.2,490.9 474.4,490.9 474.4,464.9 478,464.9 486.9,475.6 "/>
<g>
	<path class="st1" d="M575.8,484.9v4.1c-2.8,1.5-6.1,2.2-9.8,2.2c-3,0-5.5-0.6-7.6-1.8c-2.1-1.2-3.7-2.8-5-4.8
		c-1.2-2-1.8-4.3-1.8-6.7c0-3.8,1.4-7,4.2-9.6c2.8-2.6,6.2-3.9,10.3-3.9c2.8,0,6,0.7,9.4,2.1v4c-3.1-1.7-6.2-2.6-9.2-2.6
		c-3.1,0-5.6,0.9-7.7,2.8c-2,1.9-3,4.2-3,7.1s1,5.2,3,7s4.6,2.8,7.7,2.8C569.5,487.8,572.7,486.8,575.8,484.9"/>
</g>
<path class="st1" d="M609.6,479.9l-4.3-9.4l-4,9.4H609.6z M604,464.7h2.7l12.1,26.2h-3.9l-3.6-7.7h-11.5l-3.4,7.7h-4L604,464.7z"/>
<g>
	<path class="st1" d="M640.7,468h-1.2v8.2h1.5c1.9,0,3.3-0.2,4-0.5s1.3-0.8,1.7-1.5s0.6-1.4,0.6-2.2c0-0.8-0.2-1.6-0.7-2.2
		c-0.5-0.7-1.1-1.1-1.9-1.4C643.9,468.2,642.5,468,640.7,468 M635.7,490.9v-26h6.7c2.7,0,4.9,0.7,6.5,2s2.4,3.1,2.4,5.3
		c0,1.5-0.4,2.8-1.2,3.9s-1.9,1.9-3.4,2.5c0.9,0.5,1.7,1.3,2.5,2.2s2,2.6,3.5,4.9c0.9,1.5,1.7,2.6,2.3,3.3l1.4,1.9h-4.6l-1.2-1.7
		c0-0.1-0.1-0.2-0.2-0.3l-0.7-1l-1.2-1.9l-1.3-2c-0.8-1.1-1.5-1.9-2.2-2.6c-0.7-0.6-1.3-1.1-1.8-1.4s-1.4-0.4-2.7-0.4h-1v11.3
		L635.7,490.9L635.7,490.9z"/>
</g>
<polygon class="st1" points="673.2,464.9 688.4,464.9 688.4,468.2 677.1,468.2 677.1,476.1 688.1,476.1 688.1,479.5 677.1,479.5 
	677.1,487.6 688.8,487.6 688.8,490.9 673.2,490.9 "/>
<path class="st2" d="M681.7,293.5c-32.4-36.2-76.3-58.8-123.4-63.6l-3.7-0.4l2.1,13.2l2.2,0.2c43.5,4.5,83.9,25.4,113.6,58.9
	c30,34,46.5,77.9,46.5,123.8C719,526.7,637.2,609,536.7,609s-182.3-82.3-182.3-183.4c0-46.2,16.6-90.4,46.9-124.4
	c30.1-33.9,71-54.9,115.2-59.1l2.1-0.2l2.5-12.6l-3.9,0.4c-48,4.9-92.4,27.5-125.1,63.6c-32.9,36.4-51.1,83.4-51.1,132.4
	c0,108.5,87.8,196.8,195.6,196.8c107.9,0,195.6-88.3,195.6-196.8C732.3,376.9,714.4,330,681.7,293.5z"/>
<rect x="529.5" y="364.3" class="st3" width="16.1" height="88.3"/>
<g>
	<path class="st3" d="M587.6,405.1c4.2,0,7.1-0.8,9.8-2.3c3.8-2.1,6.2-6.2,6.2-11.7c0-4.7-2-8.8-5.9-11.1c-2.1-1.5-5.1-2.5-9.9-2.5
		h-7.4v27.6H587.6z M564.3,364.3h24.1c8.3,0,14.2,1.3,18.9,3.6c9.4,4.4,13.1,12.6,13.1,21.6c0,11.8-7.1,19.6-17.3,22.8v0.3
		c2.7,1.5,6.3,6.3,11,14.3l14.7,25.7h-18.5l-12.7-22.4c-4.3-7.9-7.5-11.5-9.6-12.1h-7.6v34.4h-16.1L564.3,364.3L564.3,364.3z"/>
</g>
<polygon class="st3" points="640.5,364.3 689.3,364.3 684.9,378 656.6,378 656.6,401 684.9,401 684.9,414.7 656.6,414.7 656.6,439 
	689.4,439 689.4,452.6 640.5,452.6 "/>
<path class="st3" d="M392.4,434c5.2,3.6,11.9,6.4,20,6.4c7.4,0,14.7-2.8,14.7-10.5c0-17.3-38.2-15.1-38.2-42.1
	c0-13,10.3-24.4,28.7-24.4c9.1,0,16.7,2,21.6,4.4v14.9c-7-3.6-14.1-5.6-21-5.6c-6.2,0-12.1,2.4-12.1,9.5c0,16.2,38.2,14.1,38.2,42.1
	c0,15.7-13.4,25.3-31.5,25.3c-10.3,0-20-2.9-26.7-7.6L392.4,434z"/>
<path class="st3" d="M480,409.1c4.3,0,7.8-0.7,10.3-2c5-2.4,7.4-7.2,7.4-13.8c0-5.8-2.3-10.7-7-13.5c-2.5-1.5-6.2-2.3-11-2.3h-4.6
	v31.6L480,409.1L480,409.1z M459.1,364.3h21.3c8.2,0,14.6,1.2,19.8,3.8c9.1,4.6,14.3,13.1,14.3,25.2c0,10.2-4.4,20.8-16.9,25.9
	c-4.8,1.9-10.9,3.1-18.8,3.1H475v30.4h-16.1v-88.4H459.1z"/>
</svg>
