<?xml version="1.0" encoding="utf-8"?>
<!-- Generator: Adobe Illustrator 19.0.0, SVG Export Plug-In . SVG Version: 6.00 Build 0)  -->
<svg version="1.1" id="Layer_1" xmlns="http://www.w3.org/2000/svg" xmlns:xlink="http://www.w3.org/1999/xlink" x="0px" y="0px"
	 viewBox="0 0 89 89" style="enable-background:new 0 0 89 89;" xml:space="preserve">
<style type="text/css">
	.st0{clip-path:url(#XMLID_116_);fill:#B6C7D2;}
	.st1{clip-path:url(#XMLID_116_);fill:#872A1F;}
	.st2{clip-path:url(#XMLID_116_);fill:#FFFFFF;}
	.st3{clip-path:url(#XMLID_116_);fill:#E75025;}
</style>
<g>
	<defs>
		<rect id="XMLID_113_" x="0.5" width="88.5" height="88.5"/>
	</defs>
	<clipPath id="XMLID_115_">
		<use xlink:href="#XMLID_113_"  style="overflow:visible;"/>
	</clipPath>
</g>
<g>
	<defs>
		<circle id="XMLID_105_" cx="44.7" cy="44.3" r="44.3"/>
	</defs>
	<clipPath id="XMLID_116_">
		<use xlink:href="#XMLID_105_"  style="overflow:visible;"/>
	</clipPath>
	<path id="XMLID_112_" class="st0" d="M51.4,20.6c0,0-2.2,0.8-6.7,0.8s-6.7-0.8-6.7-0.8c-1.7,0.2-1.1,4.8-1.1,4.8l7.8,4.7l7.8-4.7
		C52.6,25.4,53.1,20.8,51.4,20.6"/>
	<path id="XMLID_111_" class="st1" d="M37.5,24.8c0.1-0.6,0.2-1.2,0.4-1.5c0-0.1,0.1-0.1,0.1-0.1c0.6,0.2,2.9,0.7,6.7,0.7
		s6.1-0.6,6.7-0.7c0,0,0.1,0.1,0.1,0.1c0.2,0.3,0.3,0.8,0.4,1.5h1.2c-0.1-0.9-0.3-1.7-0.7-2.3c-0.3-0.3-0.6-0.6-1-0.6l-0.1,0l-0.1,0
		c0,0-2.2,0.7-6.5,0.7c-4.3,0-6.5-0.7-6.5-0.7l-0.1,0L38,22c-0.4,0-0.8,0.3-1,0.6c-0.4,0.5-0.6,1.4-0.7,2.3H37.5z"/>
	<path id="XMLID_110_" class="st2" d="M70.6,38.9c0,0-9.4-14-10.6-14.8c-1.3-0.7-8.5-3.5-8.5-3.5c0,3.2-3.1,6.2-6.7,6.2
		c-3.6,0-6.7-3-6.7-6.2c0,0-7.3,2.8-8.5,3.5c-1.3,0.7-10.6,14.8-10.6,14.8l8.8,7l4-5.5l-0.5,27.6h13.5h13.5l-0.5-27.6l4,5.5
		L70.6,38.9z"/>
	<path id="XMLID_109_" class="st3" d="M54.3,21.7c-0.4-0.2-0.8-0.3-1.2-0.5c-0.3,3.9-4.1,7.3-8.4,7.3c-4.3,0-8.1-3.4-8.4-7.3
		c-0.4,0.1-0.8,0.3-1.2,0.5c0.6,4.4,4.8,8.1,9.6,8.1C49.5,29.8,53.8,26.1,54.3,21.7"/>
	<path id="XMLID_108_" class="st3" d="M60.9,44.6l8.9-7c-0.2-0.3-0.4-0.7-0.7-1l-8.9,7L60.9,44.6z"/>
	<path id="XMLID_107_" class="st3" d="M19.8,37.6l8.9,7l0.7-1l-8.9-7C20.2,36.9,20,37.3,19.8,37.6"/>
	<polygon id="XMLID_106_" class="st3" points="58.2,65 31.3,65 31.2,66.2 58.3,66.2 	"/>
</g>
</svg>
