<?xml version="1.0" encoding="utf-8"?>
<!-- Generator: Adobe Illustrator 19.0.0, SVG Export Plug-In . SVG Version: 6.00 Build 0)  -->
<svg version="1.1" id="Layer_1" xmlns="http://www.w3.org/2000/svg" xmlns:xlink="http://www.w3.org/1999/xlink" x="0px" y="0px"
	 viewBox="0 0 868.9 709.9" style="enable-background:new 0 0 868.9 709.9;" xml:space="preserve">
<style type="text/css">
	.st0{fill:#98BCE4;}
	.st1{fill:#F1F2F2;}
	.st2{fill:none;stroke:#FFFFFF;stroke-width:11;stroke-linecap:round;stroke-linejoin:round;stroke-miterlimit:10;}
	.st3{fill:none;stroke:#604A9E;stroke-width:3;stroke-linecap:round;stroke-linejoin:round;stroke-miterlimit:10;}
	.st4{opacity:0.32;}
	.st5{clip-path:url(#SVGID_2_);fill:#F1F2F2;}
	
		.st6{clip-path:url(#SVGID_2_);fill:none;stroke:#604A9E;stroke-width:3;stroke-linecap:round;stroke-linejoin:round;stroke-miterlimit:10;}
</style>
<path class="st0" d="M735.5,299c26.3-11.8,38.3-42.6,26.7-69.1c-9.6-22.1-32.6-34.3-55.4-31.2c11.2-20.1,8.3-46-8.7-63
	c-17.1-17.1-42.9-20-63-8.7c3.1-22.8-9.1-45.8-31.2-55.4c-26.5-11.5-57.3,0.4-69.1,26.7C534.2,69.3,510.8,46,481.9,46
	c-28.9,0-52.4,23.3-52.8,52.1c-11.8-26.3-42.6-38.3-69.1-26.7c-22.2,9.6-34.3,32.6-31.2,55.4c-20.1-11.2-45.9-8.3-63,8.7
	c-17.1,17.1-20,42.9-8.7,63c-22.8-3.1-45.8,9.1-55.4,31.2c-11.5,26.5,0.4,57.3,26.7,69.1c-28.8,0.4-52.1,23.8-52.1,52.8
	c0,28.9,23.3,52.4,52.1,52.8c-26.3,11.8-38.3,42.6-26.7,69.1c9.6,22.2,32.6,34.3,55.4,31.2c-11.2,20.1-8.3,46,8.7,63
	c17.1,17.1,42.9,20,63,8.7c-3.1,22.8,9.1,45.8,31.2,55.4c26.5,11.5,57.3-0.4,69.1-26.7c0.4,28.8,23.8,52.1,52.8,52.1
	c28.9,0,52.4-23.3,52.8-52.1c11.8,26.3,42.6,38.3,69.1,26.7c22.2-9.6,34.3-32.6,31.2-55.4c20.1,11.2,46,8.3,63-8.7
	c17.1-17.1,20-42.9,8.7-63c22.8,3.1,45.8-9.1,55.4-31.2c11.5-26.5-0.4-57.3-26.7-69.1c28.8-0.4,52.1-23.8,52.1-52.8
	C787.6,322.8,764.3,299.4,735.5,299"/>
<path class="st1" d="M88.1,368.6c0-0.5,0.3-1,0.8-1.3c29.3-16.9,90-52,151-87.3c32.8-19,65.7-38,94-54.3c0,0,0.1-0.1,0.1-0.1
	c0,0,0.1,0,0.1-0.1c25.7-14.8,47.5-27.4,61.8-35.7l116.3-67.1c0.5-0.3,1-0.3,1.5,0l178.2,102.9c0,0,0,0,0,0c0.5,0.3,0.8,0.8,0.8,1.3
	v183.7c0,0.5-0.3,1-0.8,1.3l-6.4,3.7l-171.8,99.2c0,0,0,0,0,0c0,0,0,0,0,0c-19.6,11.3-72.1,41.7-124.3,71.8
	c-51,29.5-101.6,58.8-120.8,69.8c0,0,0,0,0,0c-0.2,0.1-0.5,0.2-0.7,0.2c-0.2,0-0.4-0.1-0.6-0.2c0,0-0.1,0-0.1,0l0,0h0c0,0,0,0,0,0
	L95.3,557.3l-6.4-3.7c-0.5-0.3-0.8-0.8-0.8-1.3L88.1,368.6z"/>
<path class="st2" d="M88.1,368.6c0-0.5,0.3-1,0.8-1.3c29.3-16.9,90-52,151-87.3c32.8-19,65.7-38,94-54.3c0,0,0.1-0.1,0.1-0.1
	c0,0,0.1,0,0.1-0.1c25.7-14.8,47.5-27.4,61.8-35.7l116.3-67.1c0.5-0.3,1-0.3,1.5,0l178.2,102.9c0,0,0,0,0,0c0.5,0.3,0.8,0.8,0.8,1.3
	v183.7c0,0.5-0.3,1-0.8,1.3l-6.4,3.7l-171.8,99.2c0,0,0,0,0,0c0,0,0,0,0,0c-19.6,11.3-72.1,41.7-124.3,71.8
	c-51,29.5-101.6,58.8-120.8,69.8c0,0,0,0,0,0c-0.2,0.1-0.5,0.2-0.7,0.2c-0.2,0-0.4-0.1-0.6-0.2c0,0-0.1,0-0.1,0l0,0h0c0,0,0,0,0,0
	L95.3,557.3l-6.4-3.7c-0.5-0.3-0.8-0.8-0.8-1.3L88.1,368.6z"/>
<path class="st1" d="M341.1,230.6c0,61.2,0,122.5,0,183.7c-2.1-1.2-4.2-2.5-6.4-3.7c0-61.2,0-122.5,0-183.7
	C336.9,228.2,339,229.4,341.1,230.6"/>
<path class="st3" d="M341.1,230.6c0,61.2,0,122.5,0,183.7c-2.1-1.2-4.2-2.5-6.4-3.7c0-61.2,0-122.5,0-183.7
	C336.9,228.2,339,229.4,341.1,230.6z"/>
<path class="st1" d="M513,131.4c0,61.2,0,122.5,0,183.7c57.3,33.1,114.6,66.1,171.8,99.2c0-61.2,0-122.5,0-183.7
	C627.5,197.5,570.2,164.5,513,131.4"/>
<path class="st3" d="M513,131.4c0,61.2,0,122.5,0,183.7c57.3,33.1,114.6,66.1,171.8,99.2c0-61.2,0-122.5,0-183.7
	C627.5,197.5,570.2,164.5,513,131.4z"/>
<path class="st1" d="M512.9,513.5c-57.3-33.1-114.6-66.1-171.8-99.2v-7.7c57.3,33.2,114.6,66.3,171.9,99.5
	C513,508.6,513,511.1,512.9,513.5"/>
<path class="st3" d="M512.9,513.5c-57.3-33.1-114.6-66.1-171.8-99.2v-7.7c57.3,33.2,114.6,66.3,171.9,99.5
	C513,508.6,513,511.1,512.9,513.5z"/>
<path class="st1" d="M691.2,226.9v183.7c-2.1,1.2-4.2,2.4-6.4,3.7c0-61.2,0-122.5,0-183.7C686.9,229.4,689,228.2,691.2,226.9"/>
<path class="st3" d="M691.2,226.9v183.7c-2.1,1.2-4.2,2.4-6.4,3.7c0-61.2,0-122.5,0-183.7C686.9,229.4,689,228.2,691.2,226.9z"/>
<path class="st1" d="M96,372.3c0,61.2,0,122.5,0,183.7c-2.1-1.2-4.2-2.4-6.4-3.7c0-61.2,0-122.5,0-183.7
	C91.8,369.8,93.9,371,96,372.3"/>
<path class="st3" d="M96,372.3c0,61.2,0,122.5,0,183.7c-2.1-1.2-4.2-2.4-6.4-3.7c0-61.2,0-122.5,0-183.7
	C91.8,369.8,93.9,371,96,372.3z"/>
<path class="st1" d="M96,556c0-61.2,0-122.5,0-183.7c57.3-33.1,243.4-140.7,300.7-173.7v0c38.8-22.4,77.5-44.8,116.3-67.1
	c0,61.2,0,122.5,0,183.7c-38.8,22.4-77.5,44.8-116.3,67.1v0C339.4,415.3,153.3,522.9,96,556"/>
<path class="st3" d="M96,556c0-61.2,0-122.5,0-183.7c57.3-33.1,243.4-140.7,300.7-173.7v0c38.8-22.4,77.5-44.8,116.3-67.1
	c0,61.2,0,122.5,0,183.7c-38.8,22.4-77.5,44.8-116.3,67.1v0C339.4,415.3,153.3,522.9,96,556z"/>
<path class="st1" d="M89.6,368.6c59.4-34.3,247.6-143.1,307-177.4v0c38.8-22.4,77.5-44.8,116.3-67.1
	c59.4,34.3,118.8,68.6,178.2,102.9c-2.1,1.2-4.2,2.5-6.4,3.7c-57.3-33.1-114.6-66.1-171.8-99.2c-57.3,33.1-114.6,66.1-171.8,99.2
	C302.4,253,134.8,349.9,96,372.3C93.9,371,91.8,369.8,89.6,368.6"/>
<path class="st3" d="M89.6,368.6c59.4-34.3,247.6-143.1,307-177.4v0c38.8-22.4,77.5-44.8,116.3-67.1
	c59.4,34.3,118.8,68.6,178.2,102.9c-2.1,1.2-4.2,2.5-6.4,3.7c-57.3-33.1-114.6-66.1-171.8-99.2c-57.3,33.1-114.6,66.1-171.8,99.2
	C302.4,253,134.8,349.9,96,372.3C93.9,371,91.8,369.8,89.6,368.6z"/>
<path class="st1" d="M96,548.6c2.1-1.2,4.2-2.4,6.4-3.7c55.2,31.8,110.3,63.7,165.5,95.5c36.6-21.2,202.1-116.8,238.7-138
	c-55.2-31.8-110.3-63.7-165.5-95.5c2.1-1.2,4.2-2.4,6.4-3.7c55.2,31.8,110.3,63.7,165.5,95.5c16.4-9.5,32.8-18.9,49.2-28.4
	c0,0,0,0,0,0c38.8-22.4,77.5-44.8,116.3-67.1c2.1,1.2,4.2,2.5,6.4,3.7C627.5,440,570.3,473.1,513,506.2
	c-38.8,22.4-206.4,119.3-245.1,141.7C210.6,614.8,153.3,581.7,96,548.6"/>
<path class="st3" d="M96,548.6c2.1-1.2,4.2-2.4,6.4-3.7c55.2,31.8,110.3,63.7,165.5,95.5c36.6-21.2,202.1-116.8,238.7-138
	c-55.2-31.8-110.3-63.7-165.5-95.5c2.1-1.2,4.2-2.4,6.4-3.7c55.2,31.8,110.3,63.7,165.5,95.5c16.4-9.5,32.8-18.9,49.2-28.4
	c0,0,0,0,0,0c38.8-22.4,77.5-44.8,116.3-67.1c2.1,1.2,4.2,2.5,6.4,3.7C627.5,440,570.3,473.1,513,506.2
	c-38.8,22.4-206.4,119.3-245.1,141.7C210.6,614.8,153.3,581.7,96,548.6z"/>
<path class="st1" d="M102.4,544.6c38.8-22.4,206.4-119.3,245.1-141.7h0c55.2-31.8,110.3-63.7,165.5-95.5L678.4,403
	c-55.2,32-110.3,63.9-165.5,95.9c-0.1,0-0.2-0.1-0.2-0.1C474,521.2,306.5,618.1,267.8,640.5C212.7,608.6,157.5,576.6,102.4,544.6"/>
<path class="st3" d="M102.4,544.6c38.8-22.4,206.4-119.3,245.1-141.7h0c55.2-31.8,110.3-63.7,165.5-95.5L678.4,403
	c-55.2,32-110.3,63.9-165.5,95.9c-0.1,0-0.2-0.1-0.2-0.1C474,521.2,306.5,618.1,267.8,640.5C212.7,608.6,157.5,576.6,102.4,544.6z"
	/>
<path class="st1" d="M267.8,655.2C210.6,622.1,153.3,589.1,96,556c0-2.6,0-5.1,0-7.7c57.3,33.2,114.6,66.3,171.9,99.5
	C267.9,650.3,267.8,652.7,267.8,655.2"/>
<path class="st3" d="M267.8,655.2C210.6,622.1,153.3,589.1,96,556c0-2.6,0-5.1,0-7.7c57.3,33.2,114.6,66.3,171.9,99.5
	C267.9,650.3,267.8,652.7,267.8,655.2z"/>
<path class="st1" d="M267.8,655.2c0-2.5,0-4.9,0-7.4c57.3-33.1,243.5-140.7,300.8-173.8v0c38.8-22.4,77.5-44.8,116.3-67.1
	c0,2.5-0.1,5-0.1,7.4c-57.3,33.1-114.6,66.1-171.8,99.2C474.2,535.9,306.6,632.8,267.8,655.2"/>
<path class="st3" d="M267.8,655.2c0-2.5,0-4.9,0-7.4c57.3-33.1,243.5-140.7,300.8-173.8v0c38.8-22.4,77.5-44.8,116.3-67.1
	c0,2.5-0.1,5-0.1,7.4c-57.3,33.1-114.6,66.1-171.8,99.2C474.2,535.9,306.6,632.8,267.8,655.2z"/>
<path class="st1" d="M678.6,349.5c-0.1,18-0.1,35.9-0.2,53.9c-3.5,2-6.9,4-10.4,6c0-4,0-8,0-12c-38.1,21.8-76.2,43.7-114.2,65.5
	c0,4,0,8,0,12c-3.5,2-6.9,4-10.4,6c0.1-18,0.1-35.9,0.2-53.9C588.6,401.1,633.6,375.3,678.6,349.5"/>
<path class="st3" d="M678.6,349.5c-0.1,18-0.1,35.9-0.2,53.9c-3.5,2-6.9,4-10.4,6c0-4,0-8,0-12c-38.1,21.8-76.2,43.7-114.2,65.5
	c0,4,0,8,0,12c-3.5,2-6.9,4-10.4,6c0.1-18,0.1-35.9,0.2-53.9C588.6,401.1,633.6,375.3,678.6,349.5z"/>
<path class="st1" d="M668.1,409.4c-3.5-2-6.9-4-10.4-6l10.4-6C668.1,401.4,668.1,405.4,668.1,409.4"/>
<path class="st3" d="M668.1,409.4c-3.5-2-6.9-4-10.4-6l10.4-6C668.1,401.4,668.1,405.4,668.1,409.4z"/>
<path class="st1" d="M543.6,426.9c-3.5-2-6.9-4-10.4-6c0,8,0,16,0,24c-12.1-7-24.2-14.1-36.3-21.1c0,10-0.1,20-0.1,30
	c3.5,2,6.9,4,10.4,6l0-11.9l25.9,15c0,4,0,8,0,12c3.4,2,6.9,4,10.4,6C543.5,462.9,543.5,444.9,543.6,426.9"/>
<path class="st3" d="M543.6,426.9c-3.5-2-6.9-4-10.4-6c0,8,0,16,0,24c-12.1-7-24.2-14.1-36.3-21.1c0,10-0.1,20-0.1,30
	c3.5,2,6.9,4,10.4,6l0-11.9l25.9,15c0,4,0,8,0,12c3.4,2,6.9,4,10.4,6C543.5,462.9,543.5,444.9,543.6,426.9z"/>
<path class="st1" d="M678.6,349.5c-3.5-2-6.9-4-10.4-6c-45,25.8-90,51.6-135,77.4c3.5,2,6.9,4,10.4,6
	C588.6,401.1,633.6,375.3,678.6,349.5"/>
<path class="st3" d="M678.6,349.5c-3.5-2-6.9-4-10.4-6c-45,25.8-90,51.6-135,77.4c3.5,2,6.9,4,10.4,6
	C588.6,401.1,633.6,375.3,678.6,349.5z"/>
<path class="st1" d="M496.9,423.8c3.5-2,6.9-4,10.4-6l25.9,15c0,4,0,8,0,12C521.1,437.9,509,430.9,496.9,423.8"/>
<path class="st3" d="M496.9,423.8c3.5-2,6.9-4,10.4-6l25.9,15c0,4,0,8,0,12C521.1,437.9,509,430.9,496.9,423.8z"/>
<path class="st1" d="M512.5,420.9c36.4-20.8,72.7-41.7,109.1-62.5c3.5,2,6.9,4,10.4,6l-98.7,56.6c0,4,0,8,0,12
	C526.3,428.9,519.4,424.9,512.5,420.9"/>
<path class="st3" d="M512.5,420.9c36.4-20.8,72.7-41.7,109.1-62.5c3.5,2,6.9,4,10.4,6l-98.7,56.6c0,4,0,8,0,12
	C526.3,428.9,519.4,424.9,512.5,420.9z"/>
<path class="st1" d="M626.8,349.4c5.2,3,10.4,6,15.5,9c-3.5,2-6.9,4-10.4,6c-5.2-3-10.4-6-15.5-9
	C619.8,353.3,623.3,351.4,626.8,349.4"/>
<path class="st3" d="M626.8,349.4c5.2,3,10.4,6,15.5,9c-3.5,2-6.9,4-10.4,6c-5.2-3-10.4-6-15.5-9
	C619.8,353.3,623.3,351.4,626.8,349.4z"/>
<path class="st1" d="M616.4,355.3c0,2,0,4,0,6c3.5,2,6.9,4,10.3,6c1.7-1,3.5-2,5.2-3C626.7,361.3,621.5,358.3,616.4,355.3"/>
<path class="st3" d="M616.4,355.3c0,2,0,4,0,6c3.5,2,6.9,4,10.3,6c1.7-1,3.5-2,5.2-3C626.7,361.3,621.5,358.3,616.4,355.3z"/>
<path class="st1" d="M507.2,459.8c3.5-2,6.9-4,10.4-5.9c-3.5-2-6.9-4-10.4-6L507.2,459.8z"/>
<path class="st3" d="M507.2,459.8c3.5-2,6.9-4,10.4-5.9c-3.5-2-6.9-4-10.4-6L507.2,459.8z"/>
<path class="st1" d="M357.6,460.6c0,18.3,0,36.6,0,54.8c1.3,0.8,2.6,1.5,4,2.3v-54.8C360.2,462.1,358.9,461.4,357.6,460.6"/>
<path class="st3" d="M357.6,460.6c0,18.3,0,36.6,0,54.8c1.3,0.8,2.6,1.5,4,2.3v-54.8C360.2,462.1,358.9,461.4,357.6,460.6z"/>
<path class="st1" d="M361.5,462.9c1.3-0.8,2.6-1.5,4-2.3c0,18.3,0,36.6,0,54.8c-1.3,0.8-2.6,1.5-4,2.3V462.9z"/>
<path class="st3" d="M361.5,462.9c1.3-0.8,2.6-1.5,4-2.3c0,18.3,0,36.6,0,54.8c-1.3,0.8-2.6,1.5-4,2.3V462.9z"/>
<path class="st1" d="M357.6,460.6c1.3-0.8,2.6-1.5,4-2.3c1.3,0.8,2.6,1.5,4,2.3c-1.3,0.8-2.6,1.5-4,2.3
	C360.2,462.1,358.9,461.4,357.6,460.6"/>
<path class="st3" d="M357.6,460.6c1.3-0.8,2.6-1.5,4-2.3c1.3,0.8,2.6,1.5,4,2.3c-1.3,0.8-2.6,1.5-4,2.3
	C360.2,462.1,358.9,461.4,357.6,460.6z"/>
<path class="st1" d="M396.8,483.2l0,54.8c1.3,0.8,2.6,1.5,4,2.3v-54.8C399.4,484.8,398.1,484,396.8,483.2"/>
<path class="st3" d="M396.8,483.2l0,54.8c1.3,0.8,2.6,1.5,4,2.3v-54.8C399.4,484.8,398.1,484,396.8,483.2z"/>
<path class="st1" d="M400.8,485.5c1.3-0.8,2.6-1.5,4-2.3c0,18.3,0,36.6,0,54.8c-1.3,0.8-2.6,1.5-4,2.3V485.5z"/>
<path class="st3" d="M400.8,485.5c1.3-0.8,2.6-1.5,4-2.3c0,18.3,0,36.6,0,54.8c-1.3,0.8-2.6,1.5-4,2.3V485.5z"/>
<path class="st1" d="M396.8,483.2c1.3-0.8,2.6-1.5,4-2.3c1.3,0.8,2.6,1.5,4,2.3c-1.3,0.8-2.6,1.5-4,2.3
	C399.4,484.8,398.1,484,396.8,483.2"/>
<path class="st3" d="M396.8,483.2c1.3-0.8,2.6-1.5,4-2.3c1.3,0.8,2.6,1.5,4,2.3c-1.3,0.8-2.6,1.5-4,2.3
	C399.4,484.8,398.1,484,396.8,483.2z"/>
<path class="st1" d="M426.7,420.8c0,18.3,0,36.6,0,54.8c1.3,0.8,2.6,1.5,4,2.3V423C429.4,422.3,428.1,421.5,426.7,420.8"/>
<path class="st3" d="M426.7,420.8c0,18.3,0,36.6,0,54.8c1.3,0.8,2.6,1.5,4,2.3V423C429.4,422.3,428.1,421.5,426.7,420.8z"/>
<path class="st1" d="M430.7,423c1.3-0.8,2.6-1.5,4-2.3c0,18.3,0,36.6,0,54.8c-1.3,0.8-2.6,1.5-4,2.3V423z"/>
<path class="st3" d="M430.7,423c1.3-0.8,2.6-1.5,4-2.3c0,18.3,0,36.6,0,54.8c-1.3,0.8-2.6,1.5-4,2.3V423z"/>
<path class="st1" d="M426.7,420.8c1.3-0.8,2.6-1.5,4-2.3c1.3,0.8,2.6,1.5,4,2.3c-1.3,0.8-2.6,1.5-4,2.3
	C429.4,422.3,428.1,421.5,426.7,420.8"/>
<path class="st3" d="M426.7,420.8c1.3-0.8,2.6-1.5,4-2.3c1.3,0.8,2.6,1.5,4,2.3c-1.3,0.8-2.6,1.5-4,2.3
	C429.4,422.3,428.1,421.5,426.7,420.8z"/>
<path class="st1" d="M466,443.4c0,18.3,0,36.6,0,54.8c1.3,0.8,2.6,1.5,4,2.3v-54.8C468.6,444.9,467.3,444.2,466,443.4"/>
<path class="st3" d="M466,443.4c0,18.3,0,36.6,0,54.8c1.3,0.8,2.6,1.5,4,2.3v-54.8C468.6,444.9,467.3,444.2,466,443.4z"/>
<path class="st1" d="M469.9,445.7c1.3-0.8,2.6-1.5,4-2.3c0,18.3,0,36.6,0,54.8c-1.3,0.8-2.6,1.5-4,2.3V445.7z"/>
<path class="st3" d="M469.9,445.7c1.3-0.8,2.6-1.5,4-2.3c0,18.3,0,36.6,0,54.8c-1.3,0.8-2.6,1.5-4,2.3V445.7z"/>
<path class="st1" d="M466,443.4c1.3-0.8,2.6-1.5,4-2.3c1.3,0.8,2.6,1.5,4,2.3c-1.3,0.8-2.6,1.5-4,2.3
	C468.6,444.9,467.3,444.2,466,443.4"/>
<path class="st3" d="M466,443.4c1.3-0.8,2.6-1.5,4-2.3c1.3,0.8,2.6,1.5,4,2.3c-1.3,0.8-2.6,1.5-4,2.3
	C468.6,444.9,467.3,444.2,466,443.4z"/>
<path class="st1" d="M343.2,460.8c0,1.1,0,2.3,0,3.4c18.6,10.8,37.3,21.5,55.9,32.3c0-1.1,0-2.3,0-3.4
	C380.5,482.3,361.8,471.6,343.2,460.8"/>
<path class="st3" d="M343.2,460.8c0,1.1,0,2.3,0,3.4c18.6,10.8,37.3,21.5,55.9,32.3c0-1.1,0-2.3,0-3.4
	C380.5,482.3,361.8,471.6,343.2,460.8z"/>
<path class="st1" d="M343.2,460.8c29.4-17,58.9-34,88.3-51c18.6,10.8,37.3,21.5,55.9,32.3c-29.4,17-58.9,34-88.3,51
	C380.5,482.3,361.8,471.6,343.2,460.8"/>
<path class="st3" d="M343.2,460.8c29.4-17,58.9-34,88.3-51c18.6,10.8,37.3,21.5,55.9,32.3c-29.4,17-58.9,34-88.3,51
	C380.5,482.3,361.8,471.6,343.2,460.8z"/>
<path class="st1" d="M399.1,496.5c29.4-17,58.9-34,88.3-51l0-3.4c-29.4,17-58.9,34-88.3,51C399.1,494.2,399.1,495.4,399.1,496.5"/>
<path class="st3" d="M399.1,496.5c29.4-17,58.9-34,88.3-51l0-3.4c-29.4,17-58.9,34-88.3,51C399.1,494.2,399.1,495.4,399.1,496.5z"/>
<path class="st1" d="M445.6,487.9c0,9.3,0,18.7,0.1,28l-1.7-1.1c-0.1-9-0.1-18-0.2-26.9C444.4,487.9,445,487.9,445.6,487.9"/>
<path class="st3" d="M445.6,487.9c0,9.3,0,18.7,0.1,28l-1.7-1.1c-0.1-9-0.1-18-0.2-26.9C444.4,487.9,445,487.9,445.6,487.9z"/>
<path class="st1" d="M445.7,515.9c0.6-0.3,1.2-0.7,1.8-1c0-9,0-18,0.1-27c-0.6,0-1.3,0-1.9,0C445.6,497.2,445.7,506.6,445.7,515.9"
	/>
<path class="st3" d="M445.7,515.9c0.6-0.3,1.2-0.7,1.8-1c0-9,0-18,0.1-27c-0.6,0-1.3,0-1.9,0C445.6,497.2,445.7,506.6,445.7,515.9z"
	/>
<path class="st1" d="M462.8,496.5c0,9.3,0,18.7,0.1,28c-0.6-0.4-1.1-0.7-1.7-1.1c-0.1-9-0.1-18-0.2-26.9
	C461.5,496.5,462.1,496.5,462.8,496.5"/>
<path class="st3" d="M462.8,496.5c0,9.3,0,18.7,0.1,28c-0.6-0.4-1.1-0.7-1.7-1.1c-0.1-9-0.1-18-0.2-26.9
	C461.5,496.5,462.1,496.5,462.8,496.5z"/>
<path class="st1" d="M462.8,524.5c0.6-0.3,1.2-0.7,1.8-1c0-9,0-18,0.1-27c-0.6,0-1.3,0-1.9,0C462.8,505.8,462.8,515.2,462.8,524.5"
	/>
<path class="st3" d="M462.8,524.5c0.6-0.3,1.2-0.7,1.8-1c0-9,0-18,0.1-27c-0.6,0-1.3,0-1.9,0C462.8,505.8,462.8,515.2,462.8,524.5z"
	/>
<path class="st1" d="M479.9,487.9c0,9.3,0,18.7,0.1,28l-1.7-1.1c-0.1-9-0.1-18-0.2-26.9C478.7,487.9,479.3,487.9,479.9,487.9"/>
<path class="st3" d="M479.9,487.9c0,9.3,0,18.7,0.1,28l-1.7-1.1c-0.1-9-0.1-18-0.2-26.9C478.7,487.9,479.3,487.9,479.9,487.9z"/>
<path class="st1" d="M479.9,515.9c0.6-0.3,1.2-0.7,1.8-1c0-9,0-18,0.1-27c-0.6,0-1.3,0-1.9,0C479.9,497.2,479.9,506.6,479.9,515.9"
	/>
<path class="st3" d="M479.9,515.9c0.6-0.3,1.2-0.7,1.8-1c0-9,0-18,0.1-27c-0.6,0-1.3,0-1.9,0C479.9,497.2,479.9,506.6,479.9,515.9z"
	/>
<path class="st1" d="M484.2,489.4c-7.1-4.1-14.3-8.2-21.4-12.3c-7.1,4.1-14.3,8.2-21.4,12.3c7.1,4.1,14.3,8.2,21.4,12.3
	C469.9,497.7,477,493.6,484.2,489.4"/>
<path class="st3" d="M484.2,489.4c-7.1-4.1-14.3-8.2-21.4-12.3c-7.1,4.1-14.3,8.2-21.4,12.3c7.1,4.1,14.3,8.2,21.4,12.3
	C469.9,497.7,477,493.6,484.2,489.4z"/>
<path class="st1" d="M441.4,489.5c0,0.8,0,1.7,0,2.5c7.1,4.1,14.3,8.2,21.4,12.3v-2.5C455.7,497.7,448.5,493.6,441.4,489.5"/>
<path class="st3" d="M441.4,489.5c0,0.8,0,1.7,0,2.5c7.1,4.1,14.3,8.2,21.4,12.3v-2.5C455.7,497.7,448.5,493.6,441.4,489.5z"/>
<path class="st1" d="M462.8,504.3c7.1-4.1,14.3-8.3,21.4-12.4c0-0.8,0-1.7,0-2.5c-7.1,4.1-14.3,8.3-21.4,12.4V504.3z"/>
<path class="st3" d="M462.8,504.3c7.1-4.1,14.3-8.3,21.4-12.4c0-0.8,0-1.7,0-2.5c-7.1,4.1-14.3,8.3-21.4,12.4V504.3z"/>
<path class="st1" d="M462.8,501.8c1.4-9.1,2.9-18.1,4.3-27.2c0.7-0.4,1.5-0.9,2.2-1.3c-1.4,9.1-2.9,18.1-4.3,27.2
	C464.2,501,463.5,501.4,462.8,501.8"/>
<path class="st3" d="M462.8,501.8c1.4-9.1,2.9-18.1,4.3-27.2c0.7-0.4,1.5-0.9,2.2-1.3c-1.4,9.1-2.9,18.1-4.3,27.2
	C464.2,501,463.5,501.4,462.8,501.8z"/>
<path class="st1" d="M462.8,501.8c-0.3-0.2-0.6-0.4-1-0.6c1.4-9,2.8-18.1,4.3-27.1c0.3,0.2,0.6,0.4,1,0.6
	C465.6,483.7,464.2,492.8,462.8,501.8"/>
<path class="st3" d="M462.8,501.8c-0.3-0.2-0.6-0.4-1-0.6c1.4-9,2.8-18.1,4.3-27.1c0.3,0.2,0.6,0.4,1,0.6
	C465.6,483.7,464.2,492.8,462.8,501.8z"/>
<path class="st1" d="M466.1,474.1c0.3,0.2,0.6,0.4,1,0.6c0.7-0.4,1.5-0.9,2.2-1.3c-0.4-0.2-0.7-0.4-1-0.5
	C467.5,473.3,466.8,473.7,466.1,474.1"/>
<path class="st3" d="M466.1,474.1c0.3,0.2,0.6,0.4,1,0.6c0.7-0.4,1.5-0.9,2.2-1.3c-0.4-0.2-0.7-0.4-1-0.5
	C467.5,473.3,466.8,473.7,466.1,474.1z"/>
<path class="st1" d="M482,490.8l4.3-27.2c0.7-0.4,1.5-0.9,2.2-1.3c-1.4,9.1-2.9,18.1-4.3,27.2C483.4,489.9,482.7,490.4,482,490.8"/>
<path class="st3" d="M482,490.8l4.3-27.2c0.7-0.4,1.5-0.9,2.2-1.3c-1.4,9.1-2.9,18.1-4.3,27.2C483.4,489.9,482.7,490.4,482,490.8z"
	/>
<path class="st1" d="M482,490.8c-0.3-0.2-0.6-0.4-1-0.6c1.4-9,2.8-18.1,4.3-27.1c0.3,0.2,0.6,0.4,1,0.6L482,490.8z"/>
<path class="st3" d="M482,490.8c-0.3-0.2-0.6-0.4-1-0.6c1.4-9,2.8-18.1,4.3-27.1c0.3,0.2,0.6,0.4,1,0.6L482,490.8z"/>
<path class="st1" d="M485.3,463.1c0.3,0.2,0.6,0.4,1,0.6c0.7-0.4,1.5-0.9,2.2-1.3c-0.3-0.2-0.7-0.4-1-0.5
	C486.7,462.2,486,462.6,485.3,463.1"/>
<path class="st3" d="M485.3,463.1c0.3,0.2,0.6,0.4,1,0.6c0.7-0.4,1.5-0.9,2.2-1.3c-0.3-0.2-0.7-0.4-1-0.5
	C486.7,462.2,486,462.6,485.3,463.1z"/>
<path class="st1" d="M469.3,473.4c5.7-3.3,11.3-6.5,17-9.8c-0.3,1.8-0.6,3.6-0.9,5.4c-5.7,3.3-11.3,6.5-17,9.8
	C468.7,477,469,475.2,469.3,473.4"/>
<path class="st3" d="M469.3,473.4c5.7-3.3,11.3-6.5,17-9.8c-0.3,1.8-0.6,3.6-0.9,5.4c-5.7,3.3-11.3,6.5-17,9.8
	C468.7,477,469,475.2,469.3,473.4z"/>
<path class="st1" d="M468.1,480.9c-0.1,0.6-0.2,1.3-0.3,1.9c5.7-3.2,11.3-6.5,17-9.7l0.3-1.9C479.4,474.4,473.8,477.6,468.1,480.9"
	/>
<path class="st3" d="M468.1,480.9c-0.1,0.6-0.2,1.3-0.3,1.9c5.7-3.2,11.3-6.5,17-9.7l0.3-1.9C479.4,474.4,473.8,477.6,468.1,480.9z"
	/>
<path class="st1" d="M468.3,472.8c5.7-3.3,11.4-6.5,17-9.8c0.3,0.2,0.6,0.4,1,0.6l-17.8,10.3L468.3,472.8z"/>
<path class="st3" d="M468.3,472.8c5.7-3.3,11.4-6.5,17-9.8c0.3,0.2,0.6,0.4,1,0.6l-17.8,10.3L468.3,472.8z"/>
<path class="st1" d="M485.1,471.2l-1-0.5c-5.3,3-10.5,6.1-15.8,9.1c-0.1,0.4-0.1,0.8-0.2,1.2C473.8,477.7,479.4,474.4,485.1,471.2"
	/>
<path class="st3" d="M485.1,471.2l-1-0.5c-5.3,3-10.5,6.1-15.8,9.1c-0.1,0.4-0.1,0.8-0.2,1.2C473.8,477.7,479.4,474.4,485.1,471.2z"
	/>
<path class="st1" d="M416.6,506.5c0,9.3,0,18.7,0.1,28l-1.7-1.1l-0.2-26.9C415.4,506.5,416,506.5,416.6,506.5"/>
<path class="st3" d="M416.6,506.5c0,9.3,0,18.7,0.1,28l-1.7-1.1l-0.2-26.9C415.4,506.5,416,506.5,416.6,506.5z"/>
<path class="st1" d="M416.7,534.6c0.6-0.3,1.2-0.7,1.8-1c0-9,0-18,0.1-27c-0.6,0-1.3,0-1.9,0C416.7,515.9,416.7,525.2,416.7,534.6"
	/>
<path class="st3" d="M416.7,534.6c0.6-0.3,1.2-0.7,1.8-1c0-9,0-18,0.1-27c-0.6,0-1.3,0-1.9,0C416.7,515.9,416.7,525.2,416.7,534.6z"
	/>
<path class="st1" d="M433.8,515.1c0,9.3,0,18.7,0.1,28c-0.6-0.4-1.1-0.7-1.7-1.1c-0.1-9-0.1-18-0.2-26.9
	C432.6,515.1,433.2,515.1,433.8,515.1"/>
<path class="st3" d="M433.8,515.1c0,9.3,0,18.7,0.1,28c-0.6-0.4-1.1-0.7-1.7-1.1c-0.1-9-0.1-18-0.2-26.9
	C432.6,515.1,433.2,515.1,433.8,515.1z"/>
<path class="st1" d="M433.8,543.2c0.6-0.3,1.2-0.7,1.8-1c0-9,0-18,0.1-27c-0.6,0-1.3,0-1.9,0C433.8,524.5,433.8,533.8,433.8,543.2"
	/>
<path class="st3" d="M433.8,543.2c0.6-0.3,1.2-0.7,1.8-1c0-9,0-18,0.1-27c-0.6,0-1.3,0-1.9,0C433.8,524.5,433.8,533.8,433.8,543.2z"
	/>
<path class="st1" d="M450.9,506.5c0,9.3,0,18.7,0.1,28c-0.6-0.4-1.1-0.7-1.7-1.1c-0.1-9-0.1-18-0.2-26.9
	C449.7,506.5,450.3,506.5,450.9,506.5"/>
<path class="st3" d="M450.9,506.5c0,9.3,0,18.7,0.1,28c-0.6-0.4-1.1-0.7-1.7-1.1c-0.1-9-0.1-18-0.2-26.9
	C449.7,506.5,450.3,506.5,450.9,506.5z"/>
<path class="st1" d="M450.9,534.6c0.6-0.3,1.2-0.7,1.8-1c0-9,0-18,0.1-27c-0.6,0-1.3,0-1.9,0C450.9,515.9,450.9,525.2,450.9,534.6"
	/>
<path class="st3" d="M450.9,534.6c0.6-0.3,1.2-0.7,1.8-1c0-9,0-18,0.1-27c-0.6,0-1.3,0-1.9,0C450.9,515.9,450.9,525.2,450.9,534.6z"
	/>
<path class="st1" d="M455.2,508.1l-21.4-12.3c-7.1,4.1-14.3,8.2-21.4,12.3c7.1,4.1,14.3,8.2,21.4,12.3L455.2,508.1z"/>
<path class="st3" d="M455.2,508.1l-21.4-12.3c-7.1,4.1-14.3,8.2-21.4,12.3c7.1,4.1,14.3,8.2,21.4,12.3L455.2,508.1z"/>
<path class="st1" d="M412.4,508.1c0,0.8,0,1.7,0,2.5c7.1,4.1,14.3,8.2,21.4,12.3v-2.5C426.7,516.4,419.5,512.2,412.4,508.1"/>
<path class="st3" d="M412.4,508.1c0,0.8,0,1.7,0,2.5c7.1,4.1,14.3,8.2,21.4,12.3v-2.5C426.7,516.4,419.5,512.2,412.4,508.1z"/>
<path class="st1" d="M433.8,522.9c7.1-4.1,14.3-8.3,21.4-12.4c0-0.8,0-1.7,0-2.5l-21.4,12.4V522.9z"/>
<path class="st3" d="M433.8,522.9c7.1-4.1,14.3-8.3,21.4-12.4c0-0.8,0-1.7,0-2.5l-21.4,12.4V522.9z"/>
<path class="st1" d="M433.8,520.5l4.3-27.2c0.7-0.4,1.5-0.9,2.2-1.3c-1.4,9.1-2.9,18.1-4.3,27.2C435.3,519.6,434.5,520,433.8,520.5"
	/>
<path class="st3" d="M433.8,520.5l4.3-27.2c0.7-0.4,1.5-0.9,2.2-1.3c-1.4,9.1-2.9,18.1-4.3,27.2C435.3,519.6,434.5,520,433.8,520.5z
	"/>
<path class="st1" d="M433.8,520.5c-0.3-0.2-0.6-0.4-1-0.6c1.4-9,2.8-18.1,4.3-27.1c0.3,0.2,0.6,0.4,1,0.6L433.8,520.5z"/>
<path class="st3" d="M433.8,520.5c-0.3-0.2-0.6-0.4-1-0.6c1.4-9,2.8-18.1,4.3-27.1c0.3,0.2,0.6,0.4,1,0.6L433.8,520.5z"/>
<path class="st1" d="M437.1,492.7c0.3,0.2,0.6,0.4,1,0.6c0.7-0.4,1.5-0.9,2.2-1.3l-1-0.5C438.6,491.9,437.8,492.3,437.1,492.7"/>
<path class="st3" d="M437.1,492.7c0.3,0.2,0.6,0.4,1,0.6c0.7-0.4,1.5-0.9,2.2-1.3l-1-0.5C438.6,491.9,437.8,492.3,437.1,492.7z"/>
<path class="st1" d="M453,509.4c1.4-9.1,2.9-18.1,4.3-27.2c0.7-0.4,1.5-0.9,2.2-1.3c-1.4,9.1-2.9,18.1-4.3,27.2
	C454.5,508.6,453.7,509,453,509.4"/>
<path class="st3" d="M453,509.4c1.4-9.1,2.9-18.1,4.3-27.2c0.7-0.4,1.5-0.9,2.2-1.3c-1.4,9.1-2.9,18.1-4.3,27.2
	C454.5,508.6,453.7,509,453,509.4z"/>
<path class="st1" d="M453,509.4c-0.3-0.2-0.6-0.4-1-0.6c1.4-9,2.8-18.1,4.3-27.1c0.3,0.2,0.6,0.4,1,0.6
	C455.9,491.3,454.4,500.4,453,509.4"/>
<path class="st3" d="M453,509.4c-0.3-0.2-0.6-0.4-1-0.6c1.4-9,2.8-18.1,4.3-27.1c0.3,0.2,0.6,0.4,1,0.6
	C455.9,491.3,454.4,500.4,453,509.4z"/>
<path class="st1" d="M456.3,481.7c0.3,0.2,0.6,0.4,1,0.6c0.7-0.4,1.5-0.9,2.2-1.3c-0.4-0.2-0.7-0.4-1-0.5
	C457.8,480.8,457,481.3,456.3,481.7"/>
<path class="st3" d="M456.3,481.7c0.3,0.2,0.6,0.4,1,0.6c0.7-0.4,1.5-0.9,2.2-1.3c-0.4-0.2-0.7-0.4-1-0.5
	C457.8,480.8,457,481.3,456.3,481.7z"/>
<path class="st1" d="M440.3,492c5.7-3.3,11.3-6.5,17-9.8c-0.3,1.8-0.6,3.6-0.9,5.4c-5.7,3.3-11.3,6.5-17,9.8
	C439.7,495.6,440,493.8,440.3,492"/>
<path class="st3" d="M440.3,492c5.7-3.3,11.3-6.5,17-9.8c-0.3,1.8-0.6,3.6-0.9,5.4c-5.7,3.3-11.3,6.5-17,9.8
	C439.7,495.6,440,493.8,440.3,492z"/>
<path class="st1" d="M439.1,499.5c-0.1,0.6-0.2,1.3-0.3,1.9c5.7-3.2,11.3-6.5,17-9.7c0.1-0.6,0.2-1.3,0.3-1.9
	C450.4,493,444.8,496.3,439.1,499.5"/>
<path class="st3" d="M439.1,499.5c-0.1,0.6-0.2,1.3-0.3,1.9c5.7-3.2,11.3-6.5,17-9.7c0.1-0.6,0.2-1.3,0.3-1.9
	C450.4,493,444.8,496.3,439.1,499.5z"/>
<path class="st1" d="M439.3,491.5c5.7-3.3,11.4-6.5,17-9.8c0.3,0.2,0.6,0.4,1,0.6l-17.8,10.3C439.4,492.2,439.3,491.8,439.3,491.5"
	/>
<path class="st3" d="M439.3,491.5c5.7-3.3,11.4-6.5,17-9.8c0.3,0.2,0.6,0.4,1,0.6l-17.8,10.3C439.4,492.2,439.3,491.8,439.3,491.5z"
	/>
<path class="st1" d="M456.1,489.8l-1-0.5c-5.3,3-10.5,6.1-15.8,9.1c-0.1,0.4-0.1,0.8-0.2,1.2C444.8,496.3,450.4,493.1,456.1,489.8"
	/>
<path class="st3" d="M456.1,489.8l-1-0.5c-5.3,3-10.5,6.1-15.8,9.1c-0.1,0.4-0.1,0.8-0.2,1.2C444.8,496.3,450.4,493.1,456.1,489.8z"
	/>
<path class="st1" d="M431.2,345c-7.5-4.4-15.1-8.7-22.6-13.1v35.9c7.5,4.4,15.1,8.7,22.6,13.1C431.2,368.9,431.2,357,431.2,345"/>
<path class="st3" d="M431.2,345c-7.5-4.4-15.1-8.7-22.6-13.1v35.9c7.5,4.4,15.1,8.7,22.6,13.1C431.2,368.9,431.2,357,431.2,345z"/>
<path class="st1" d="M425.5,348.3L425.5,348.3c7.5-4.4,20.8-12,28.3-16.4c0,12,0,23.9,0,35.9c-5.9,3.4-15.2,8.8-22.6,13.1v0
	c-7.5,4.4-15.1,8.7-22.6,13.1c0-12,0-23.9,0-35.9C414.2,354.8,419.9,351.6,425.5,348.3"/>
<path class="st3" d="M425.5,348.3L425.5,348.3c7.5-4.4,20.8-12,28.3-16.4c0,12,0,23.9,0,35.9c-5.9,3.4-15.2,8.8-22.6,13.1v0
	c-7.5,4.4-15.1,8.7-22.6,13.1c0-12,0-23.9,0-35.9C414.2,354.8,419.9,351.6,425.5,348.3z"/>
<path class="st1" d="M408.6,358.1c-7.5-4.4-15.1-8.7-22.6-13.1V381l22.6,13.1C408.6,382,408.6,370.1,408.6,358.1"/>
<path class="st3" d="M408.6,358.1c-7.5-4.4-15.1-8.7-22.6-13.1V381l22.6,13.1C408.6,382,408.6,370.1,408.6,358.1z"/>
<path class="st1" d="M411.4,389.1v-29.4l39.6-22.9c0,9.8,0,19.6,0,29.4L411.4,389.1z"/>
<path class="st3" d="M411.4,389.1v-29.4l39.6-22.9c0,9.8,0,19.6,0,29.4L411.4,389.1z"/>
<path class="st1" d="M408.7,332C408.6,332,408.6,332,408.7,332c7.5-4.4,15-8.7,22.6-13.1c7.5,4.4,15.1,8.7,22.6,13.1
	c-5.3,3.1-10.6,6.1-16,9.2c0,0,0,0,0.1,0c-7.5,4.4-21.8,12.5-29.3,16.9c-7.5-4.4-15.1-8.7-22.6-13.1
	C391.7,341.8,401.1,336.3,408.7,332"/>
<path class="st3" d="M408.7,332C408.6,332,408.6,332,408.7,332c7.5-4.4,15-8.7,22.6-13.1c7.5,4.4,15.1,8.7,22.6,13.1
	c-5.3,3.1-10.6,6.1-16,9.2c0,0,0,0,0.1,0c-7.5,4.4-21.8,12.5-29.3,16.9c-7.5-4.4-15.1-8.7-22.6-13.1
	C391.7,341.8,401.1,336.3,408.7,332z"/>
<path class="st1" d="M412,367.9c13.2-7.5,25.8-14.6,39-22.1"/>
<path class="st3" d="M412,367.9c13.2-7.5,25.8-14.6,39-22.1"/>
<path class="st1" d="M412,378.1c13.2-7.5,25.8-14.6,39-22.1"/>
<path class="st3" d="M412,378.1c13.2-7.5,25.8-14.6,39-22.1"/>
<path class="st1" d="M423.2,356.9c5.6-3.3,11.2-6.5,16.8-9.8c0,0.4,0,0.7,0,1.1c-5.6,3.2-11.2,6.5-16.8,9.7
	C423.2,357.5,423.2,357.2,423.2,356.9"/>
<path class="st3" d="M423.2,356.9c5.6-3.3,11.2-6.5,16.8-9.8c0,0.4,0,0.7,0,1.1c-5.6,3.2-11.2,6.5-16.8,9.7
	C423.2,357.5,423.2,357.2,423.2,356.9z"/>
<path class="st1" d="M440,347.1c-0.1-0.1-0.3-0.2-0.4-0.2c-5.6,3.2-11.2,6.5-16.9,9.7c0.2,0.1,0.3,0.2,0.5,0.3
	C428.8,353.6,434.4,350.4,440,347.1"/>
<path class="st3" d="M440,347.1c-0.1-0.1-0.3-0.2-0.4-0.2c-5.6,3.2-11.2,6.5-16.9,9.7c0.2,0.1,0.3,0.2,0.5,0.3
	C428.8,353.6,434.4,350.4,440,347.1z"/>
<path class="st1" d="M422.8,356.6c0,0.3,0,0.7,0,1c0.1,0.1,0.3,0.2,0.4,0.2c0-0.3,0-0.7,0-1C423.1,356.8,422.9,356.7,422.8,356.6"/>
<path class="st3" d="M422.8,356.6c0,0.3,0,0.7,0,1c0.1,0.1,0.3,0.2,0.4,0.2c0-0.3,0-0.7,0-1C423.1,356.8,422.9,356.7,422.8,356.6z"
	/>
<path class="st1" d="M423.3,366.9c5.6-3.3,11.2-6.5,16.8-9.8c0,0.4,0,0.7,0,1.1c-5.6,3.2-11.2,6.5-16.8,9.7
	C423.3,367.6,423.3,367.2,423.3,366.9"/>
<path class="st3" d="M423.3,366.9c5.6-3.3,11.2-6.5,16.8-9.8c0,0.4,0,0.7,0,1.1c-5.6,3.2-11.2,6.5-16.8,9.7
	C423.3,367.6,423.3,367.2,423.3,366.9z"/>
<path class="st1" d="M440.1,357.1c-0.1-0.1-0.3-0.2-0.4-0.2c-5.6,3.2-11.2,6.5-16.9,9.7c0.2,0.1,0.3,0.2,0.5,0.3
	C428.9,363.6,434.5,360.4,440.1,357.1"/>
<path class="st3" d="M440.1,357.1c-0.1-0.1-0.3-0.2-0.4-0.2c-5.6,3.2-11.2,6.5-16.9,9.7c0.2,0.1,0.3,0.2,0.5,0.3
	C428.9,363.6,434.5,360.4,440.1,357.1z"/>
<path class="st1" d="M422.9,366.7c0,0.3,0,0.7,0,1c0.1,0.1,0.3,0.2,0.4,0.2c0-0.3,0-0.7,0-1C423.2,366.8,423,366.7,422.9,366.7"/>
<path class="st3" d="M422.9,366.7c0,0.3,0,0.7,0,1c0.1,0.1,0.3,0.2,0.4,0.2c0-0.3,0-0.7,0-1C423.2,366.8,423,366.7,422.9,366.7z"/>
<path class="st1" d="M423.3,376.7c5.6-3.3,11.2-6.5,16.8-9.8c0,0.4,0,0.7,0,1.1c-5.6,3.2-11.2,6.5-16.8,9.7
	C423.3,377.3,423.3,377,423.3,376.7"/>
<path class="st3" d="M423.3,376.7c5.6-3.3,11.2-6.5,16.8-9.8c0,0.4,0,0.7,0,1.1c-5.6,3.2-11.2,6.5-16.8,9.7
	C423.3,377.3,423.3,377,423.3,376.7z"/>
<path class="st1" d="M440.1,366.9c-0.1-0.1-0.3-0.2-0.4-0.2c-5.6,3.2-11.2,6.5-16.9,9.7c0.2,0.1,0.3,0.2,0.5,0.3
	C428.9,373.4,434.5,370.2,440.1,366.9"/>
<path class="st3" d="M440.1,366.9c-0.1-0.1-0.3-0.2-0.4-0.2c-5.6,3.2-11.2,6.5-16.9,9.7c0.2,0.1,0.3,0.2,0.5,0.3
	C428.9,373.4,434.5,370.2,440.1,366.9z"/>
<path class="st1" d="M422.9,376.4c0,0.3,0,0.7,0,1c0.1,0.1,0.3,0.2,0.4,0.2c0-0.3,0-0.7,0-1C423.2,376.6,423,376.5,422.9,376.4"/>
<path class="st3" d="M422.9,376.4c0,0.3,0,0.7,0,1c0.1,0.1,0.3,0.2,0.4,0.2c0-0.3,0-0.7,0-1C423.2,376.6,423,376.5,422.9,376.4z"/>
<path class="st1" d="M453.1,245.5v61c-24.5,14.1-48.9,28.2-73.4,42.4v-61C404.2,273.7,428.6,259.6,453.1,245.5"/>
<path class="st3" d="M453.1,245.5v61c-24.5,14.1-48.9,28.2-73.4,42.4v-61C404.2,273.7,428.6,259.6,453.1,245.5z"/>
<path class="st1" d="M453.1,245.5c-1-0.6-2-1.1-2.9-1.7c-24.5,14.1-48.9,28.2-73.4,42.4c1,0.6,2,1.1,2.9,1.7
	C404.2,273.7,428.6,259.6,453.1,245.5"/>
<path class="st3" d="M453.1,245.5c-1-0.6-2-1.1-2.9-1.7c-24.5,14.1-48.9,28.2-73.4,42.4c1,0.6,2,1.1,2.9,1.7
	C404.2,273.7,428.6,259.6,453.1,245.5z"/>
<path class="st1" d="M376.8,347.1c0-20.3,0-40.7,0-61c1,0.6,2,1.1,2.9,1.7v61C378.7,348.2,377.7,347.7,376.8,347.1"/>
<path class="st3" d="M376.8,347.1c0-20.3,0-40.7,0-61c1,0.6,2,1.1,2.9,1.7v61C378.7,348.2,377.7,347.7,376.8,347.1z"/>
<path class="st1" d="M450.1,250.5v50.8c-22.5,13-45,26-67.5,39v-50.8C405.1,276.5,427.6,263.5,450.1,250.5"/>
<path class="st3" d="M450.1,250.5v50.8c-22.5,13-45,26-67.5,39v-50.8C405.1,276.5,427.6,263.5,450.1,250.5z"/>
<path class="st1" d="M450.1,301.4c-0.3-0.2-0.6-0.3-0.9-0.5V251c0.3-0.2,0.6-0.3,0.9-0.5V301.4z"/>
<path class="st3" d="M450.1,301.4c-0.3-0.2-0.6-0.3-0.9-0.5V251c0.3-0.2,0.6-0.3,0.9-0.5V301.4z"/>
<path class="st1" d="M449.3,300.9l-66.6,38.5c0,0.3,0,0.6,0,0.9c22.5-13,45-26,67.5-39C449.8,301.2,449.6,301,449.3,300.9"/>
<path class="st3" d="M449.3,300.9l-66.6,38.5c0,0.3,0,0.6,0,0.9c22.5-13,45-26,67.5-39C449.8,301.2,449.6,301,449.3,300.9z"/>
<path class="st1" d="M426.6,321.7v10.2c-4.9,2.8-9.8,5.6-14.7,8.5v-10.2C416.8,327.3,421.7,324.5,426.6,321.7"/>
<path class="st3" d="M426.6,321.7v10.2c-4.9,2.8-9.8,5.6-14.7,8.5v-10.2C416.8,327.3,421.7,324.5,426.6,321.7z"/>
<path class="st1" d="M411.9,340.3c-1-0.6-2-1.1-2.9-1.7c0-2.3,0-4.5,0-6.8l2.9-1.7V340.3z"/>
<path class="st3" d="M411.9,340.3c-1-0.6-2-1.1-2.9-1.7c0-2.3,0-4.5,0-6.8l2.9-1.7V340.3z"/>
<path class="st1" d="M426.6,328.5c2,1.1,4,2.2,5.9,3.3c-6.9,4-13.7,8-20.6,11.9c-2-1.1-3.9-2.3-5.9-3.4c1.1-0.6,2.1-1.2,3.2-1.8
	c0.9,0.6,1.9,1.2,2.8,1.8c4.9-2.8,9.8-5.6,14.6-8.5C426.7,330.7,426.6,329.6,426.6,328.5"/>
<path class="st3" d="M426.6,328.5c2,1.1,4,2.2,5.9,3.3c-6.9,4-13.7,8-20.6,11.9c-2-1.1-3.9-2.3-5.9-3.4c1.1-0.6,2.1-1.2,3.2-1.8
	c0.9,0.6,1.9,1.2,2.8,1.8c4.9-2.8,9.8-5.6,14.6-8.5C426.7,330.7,426.6,329.6,426.6,328.5z"/>
<path class="st1" d="M432.6,331.8c0,1.2-0.1,2.3-0.1,3.5c-6.8,4-13.7,7.9-20.5,11.9c0-1.1,0-2.3,0-3.4
	C418.8,339.7,425.7,335.8,432.6,331.8"/>
<path class="st3" d="M432.6,331.8c0,1.2-0.1,2.3-0.1,3.5c-6.8,4-13.7,7.9-20.5,11.9c0-1.1,0-2.3,0-3.4
	C418.8,339.7,425.7,335.8,432.6,331.8z"/>
<path class="st1" d="M406.1,340.3c0,1.1,0,2.3,0,3.4c2,1.1,3.9,2.3,5.9,3.4c0-1.1,0-2.3,0-3.4C410,342.6,408,341.5,406.1,340.3"/>
<path class="st3" d="M406.1,340.3c0,1.1,0,2.3,0,3.4c2,1.1,3.9,2.3,5.9,3.4c0-1.1,0-2.3,0-3.4C410,342.6,408,341.5,406.1,340.3z"/>
<path class="st1" d="M571.6,206.2v135.4c-11.9,6.9-23.9,13.8-35.8,20.7V226.9C547.7,220,559.6,213.1,571.6,206.2"/>
<path class="st3" d="M571.6,206.2v135.4c-11.9,6.9-23.9,13.8-35.8,20.7V226.9C547.7,220,559.6,213.1,571.6,206.2z"/>
<path class="st1" d="M571.6,206.2c-19.5-11.3-39.1-22.6-58.6-33.8c-11.9,6.9-23.9,13.8-35.8,20.7c19.5,11.3,39.1,22.6,58.6,33.8
	C547.7,220,559.6,213.1,571.6,206.2"/>
<path class="st3" d="M571.6,206.2c-19.5-11.3-39.1-22.6-58.6-33.8c-11.9,6.9-23.9,13.8-35.8,20.7c19.5,11.3,39.1,22.6,58.6,33.8
	C547.7,220,559.6,213.1,571.6,206.2z"/>
<path class="st1" d="M535.7,362.3c-19.5-11.3-39.1-22.6-58.6-33.8V193.1l58.6,33.8V362.3z"/>
<path class="st3" d="M535.7,362.3c-19.5-11.3-39.1-22.6-58.6-33.8V193.1l58.6,33.8V362.3z"/>
<path class="st1" d="M539,225c-19.5-11.3-39.1-22.6-58.6-33.8c-1.1,0.6-2.2,1.3-3.3,1.9l58.6,33.8C536.8,226.3,537.9,225.6,539,225"
	/>
<path class="st3" d="M539,225c-19.5-11.3-39.1-22.6-58.6-33.8c-1.1,0.6-2.2,1.3-3.3,1.9l58.6,33.8C536.8,226.3,537.9,225.6,539,225z
	"/>
<path class="st1" d="M539,225c0,45.1,0,90.2,0,135.4c-1.1,0.6-2.2,1.3-3.3,1.9V226.9C536.8,226.3,537.9,225.6,539,225"/>
<path class="st3" d="M539,225c0,45.1,0,90.2,0,135.4c-1.1,0.6-2.2,1.3-3.3,1.9V226.9C536.8,226.3,537.9,225.6,539,225z"/>
<rect x="506.1" y="210" class="st1" width="0.6" height="135.4"/>
<rect x="506.1" y="210" class="st3" width="0.6" height="135.4"/>
<path class="st1" d="M486.9,225v18.8c3.3,1.9,6.5,3.8,9.8,5.6v-18.8C493.4,228.8,490.2,226.9,486.9,225"/>
<path class="st3" d="M486.9,225v18.8c3.3,1.9,6.5,3.8,9.8,5.6v-18.8C493.4,228.8,490.2,226.9,486.9,225z"/>
<path class="st1" d="M488.2,228.2v13.9c2.4,1.4,4.8,2.8,7.2,4.2v-13.9C493,231,490.6,229.6,488.2,228.2"/>
<path class="st3" d="M488.2,228.2v13.9c2.4,1.4,4.8,2.8,7.2,4.2v-13.9C493,231,490.6,229.6,488.2,228.2z"/>
<path class="st1" d="M499.9,268.8c-0.7-0.4-1.4-0.8-2.1-1.2v36.2c0.7,0.4,1.4,0.8,2.1,1.2V268.8z"/>
<path class="st3" d="M499.9,268.8c-0.7-0.4-1.4-0.8-2.1-1.2v36.2c0.7,0.4,1.4,0.8,2.1,1.2V268.8z"/>
<path class="st1" d="M497.8,267.6c0.7-0.4,1.4-0.8,2.1-1.2c0.7,0.4,1.4,0.8,2.1,1.2c-0.7,0.4-1.4,0.8-2.1,1.2
	C499.2,268.4,498.5,268,497.8,267.6"/>
<path class="st3" d="M497.8,267.6c0.7-0.4,1.4-0.8,2.1-1.2c0.7,0.4,1.4,0.8,2.1,1.2c-0.7,0.4-1.4,0.8-2.1,1.2
	C499.2,268.4,498.5,268,497.8,267.6z"/>
<path class="st1" d="M502,267.6v36.2c-0.7,0.4-1.4,0.8-2.1,1.2c0-12.1,0-24.1,0-36.2C500.6,268.4,501.3,268,502,267.6"/>
<path class="st3" d="M502,267.6v36.2c-0.7,0.4-1.4,0.8-2.1,1.2c0-12.1,0-24.1,0-36.2C500.6,268.4,501.3,268,502,267.6z"/>
<path class="st1" d="M510.9,275c-0.7-0.4-1.4-0.8-2.1-1.2v36.2c0.7,0.4,1.4,0.8,2.1,1.2V275z"/>
<path class="st3" d="M510.9,275c-0.7-0.4-1.4-0.8-2.1-1.2v36.2c0.7,0.4,1.4,0.8,2.1,1.2V275z"/>
<path class="st1" d="M508.8,273.8c0.7-0.4,1.4-0.8,2.1-1.2c0.7,0.4,1.4,0.8,2.1,1.2c-0.7,0.4-1.4,0.8-2.1,1.2
	C510.2,274.6,509.5,274.2,508.8,273.8"/>
<path class="st3" d="M508.8,273.8c0.7-0.4,1.4-0.8,2.1-1.2c0.7,0.4,1.4,0.8,2.1,1.2c-0.7,0.4-1.4,0.8-2.1,1.2
	C510.2,274.6,509.5,274.2,508.8,273.8z"/>
<path class="st1" d="M512.9,273.8v36.2c-0.7,0.4-1.4,0.8-2.1,1.2c0-12.1,0-24.1,0-36.2C511.6,274.6,512.3,274.2,512.9,273.8"/>
<path class="st3" d="M512.9,273.8v36.2c-0.7,0.4-1.4,0.8-2.1,1.2c0-12.1,0-24.1,0-36.2C511.6,274.6,512.3,274.2,512.9,273.8z"/>
<path class="st1" d="M358.9,521.2c0,5,0,10,0,15l-95,54.9v-15L358.9,521.2z"/>
<path class="st3" d="M358.9,521.2c0,5,0,10,0,15l-95,54.9v-15L358.9,521.2z"/>
<path class="st1" d="M358.9,521.2c-37.4-21.6-74.9-43.2-112.3-64.8c-31.7,18.3-63.4,36.6-95,54.9c37.4,21.6,74.9,43.2,112.3,64.8
	L358.9,521.2z"/>
<path class="st3" d="M358.9,521.2c-37.4-21.6-74.9-43.2-112.3-64.8c-31.7,18.3-63.4,36.6-95,54.9c37.4,21.6,74.9,43.2,112.3,64.8
	L358.9,521.2z"/>
<path class="st1" d="M263.9,576v15c-37.4-21.6-74.9-43.2-112.3-64.8l0-15C189,532.8,226.4,554.4,263.9,576"/>
<path class="st3" d="M263.9,576v15c-37.4-21.6-74.9-43.2-112.3-64.8l0-15C189,532.8,226.4,554.4,263.9,576z"/>
<path class="st1" d="M151.6,526.1c-2.9-1.7-5.8-3.3-8.6-5v-39.9c2.9,1.7,5.8,3.3,8.6,5C151.6,499.5,151.6,512.8,151.6,526.1"/>
<path class="st3" d="M151.6,526.1c-2.9-1.7-5.8-3.3-8.6-5v-39.9c2.9,1.7,5.8,3.3,8.6,5C151.6,499.5,151.6,512.8,151.6,526.1z"/>
<path class="st1" d="M246.6,431.4c-2.9-1.7-5.8-3.3-8.6-5c-31.7,18.3-63.4,36.6-95,54.9c2.9,1.7,5.8,3.3,8.6,5
	C183.2,468,214.9,449.7,246.6,431.4"/>
<path class="st3" d="M246.6,431.4c-2.9-1.7-5.8-3.3-8.6-5c-31.7,18.3-63.4,36.6-95,54.9c2.9,1.7,5.8,3.3,8.6,5
	C183.2,468,214.9,449.7,246.6,431.4z"/>
<path class="st1" d="M246.6,431.4c0,8.3,0,16.6,0,24.9c-31.7,18.3-63.4,36.6-95,54.9v-24.9C183.2,468,214.9,449.7,246.6,431.4"/>
<path class="st3" d="M246.6,431.4c0,8.3,0,16.6,0,24.9c-31.7,18.3-63.4,36.6-95,54.9v-24.9C183.2,468,214.9,449.7,246.6,431.4z"/>
<path class="st1" d="M350.2,521.2v-10c-28.8,16.6-57.6,33.3-86.4,49.9l0,10C292.7,554.4,321.4,537.8,350.2,521.2"/>
<path class="st3" d="M350.2,521.2v-10c-28.8,16.6-57.6,33.3-86.4,49.9l0,10C292.7,554.4,321.4,537.8,350.2,521.2z"/>
<path class="st1" d="M350.2,511.2c-34.6-19.9-69.1-39.9-103.7-59.9c-28.8,16.6-57.6,33.3-86.4,49.9c34.6,19.9,69.1,39.9,103.7,59.8
	C292.7,544.4,321.4,527.8,350.2,511.2"/>
<path class="st3" d="M350.2,511.2c-34.6-19.9-69.1-39.9-103.7-59.9c-28.8,16.6-57.6,33.3-86.4,49.9c34.6,19.9,69.1,39.9,103.7,59.8
	C292.7,544.4,321.4,527.8,350.2,511.2z"/>
<path class="st1" d="M263.9,571l0-10c-34.6-19.9-69.1-39.9-103.7-59.8l0,9.9C194.7,531.1,229.3,551.1,263.9,571"/>
<path class="st3" d="M263.9,571l0-10c-34.6-19.9-69.1-39.9-103.7-59.8l0,9.9C194.7,531.1,229.3,551.1,263.9,571z"/>
<path class="st1" d="M262.9,460.9v4.5c-11.7,6.8-23.4,13.5-35.1,20.3v-4.5C239.5,474.4,251.2,467.6,262.9,460.9"/>
<path class="st3" d="M262.9,460.9v4.5c-11.7,6.8-23.4,13.5-35.1,20.3v-4.5C239.5,474.4,251.2,467.6,262.9,460.9z"/>
<path class="st1" d="M262.9,460.9l-19.5-11.3c-11.7,6.8-23.4,13.5-35.1,20.3c6.5,3.8,13,7.5,19.5,11.3
	C239.5,474.4,251.2,467.6,262.9,460.9"/>
<path class="st3" d="M262.9,460.9l-19.5-11.3c-11.7,6.8-23.4,13.5-35.1,20.3c6.5,3.8,13,7.5,19.5,11.3
	C239.5,474.4,251.2,467.6,262.9,460.9z"/>
<path class="st1" d="M227.8,485.6c-6.5-3.7-13-7.5-19.5-11.2c0-1.5,0-3,0-4.5c6.5,3.8,13,7.5,19.5,11.3V485.6z"/>
<path class="st3" d="M227.8,485.6c-6.5-3.7-13-7.5-19.5-11.2c0-1.5,0-3,0-4.5c6.5,3.8,13,7.5,19.5,11.3V485.6z"/>
<path class="st1" d="M220,485.6v4.5c-11.7,6.8-23.4,13.5-35.1,20.3v-4.5C196.6,499.1,208.3,492.4,220,485.6"/>
<path class="st3" d="M220,485.6v4.5c-11.7,6.8-23.4,13.5-35.1,20.3v-4.5C196.6,499.1,208.3,492.4,220,485.6z"/>
<path class="st1" d="M220,485.6c-6.5-3.8-13-7.5-19.5-11.3c-11.7,6.8-23.4,13.5-35.1,20.3c6.5,3.8,13,7.5,19.5,11.3
	C196.6,499.1,208.3,492.4,220,485.6"/>
<path class="st3" d="M220,485.6c-6.5-3.8-13-7.5-19.5-11.3c-11.7,6.8-23.4,13.5-35.1,20.3c6.5,3.8,13,7.5,19.5,11.3
	C196.6,499.1,208.3,492.4,220,485.6z"/>
<path class="st1" d="M184.9,510.4c-6.5-3.7-13-7.5-19.5-11.2c0-1.5,0-3,0-4.5c6.5,3.8,13,7.5,19.5,11.3V510.4z"/>
<path class="st3" d="M184.9,510.4c-6.5-3.7-13-7.5-19.5-11.2c0-1.5,0-3,0-4.5c6.5,3.8,13,7.5,19.5,11.3V510.4z"/>
<path class="st1" d="M395.2,348.9v62.8c-12.4,7.2-24.8,14.3-37.2,21.5v-62.8C370.4,363.2,382.8,356,395.2,348.9"/>
<path class="st3" d="M395.2,348.9v62.8c-12.4,7.2-24.8,14.3-37.2,21.5v-62.8C370.4,363.2,382.8,356,395.2,348.9z"/>
<path class="st1" d="M395.2,348.9c-10.5-6.1-21-12.1-31.5-18.2c-12.4,7.2-24.8,14.3-37.2,21.5c10.5,6.1,21,12.1,31.5,18.2
	C370.4,363.2,382.8,356,395.2,348.9"/>
<path class="st3" d="M395.2,348.9c-10.5-6.1-21-12.1-31.5-18.2c-12.4,7.2-24.8,14.3-37.2,21.5c10.5,6.1,21,12.1,31.5,18.2
	C370.4,363.2,382.8,356,395.2,348.9z"/>
<path class="st1" d="M326.5,352.2c0,20.9,0,41.9,0,62.8c10.5,6.1,21,12.1,31.5,18.2v-62.8C347.5,364.3,337,358.2,326.5,352.2"/>
<path class="st3" d="M326.5,352.2c0,20.9,0,41.9,0,62.8c10.5,6.1,21,12.1,31.5,18.2v-62.8C347.5,364.3,337,358.2,326.5,352.2z"/>
<path class="st1" d="M392.3,353.8v6.6c-2.9,1.7-5.7,3.3-8.6,5v-6.6L392.3,353.8z"/>
<path class="st3" d="M392.3,353.8v6.6c-2.9,1.7-5.7,3.3-8.6,5v-6.6L392.3,353.8z"/>
<path class="st1" d="M358,384.1c12.4-7.2,24.8-14.3,37.2-21.5v-1.1c-12.4,7.2-24.8,14.3-37.2,21.5V384.1z"/>
<path class="st3" d="M358,384.1c12.4-7.2,24.8-14.3,37.2-21.5v-1.1c-12.4,7.2-24.8,14.3-37.2,21.5V384.1z"/>
<path class="st1" d="M395.2,408.4c-12.4,7.2-24.8,14.3-37.2,21.5c0,1.1,0,2.2,0,3.3c12.4-7.2,24.8-14.3,37.2-21.5V408.4z"/>
<path class="st3" d="M395.2,408.4c-12.4,7.2-24.8,14.3-37.2,21.5c0,1.1,0,2.2,0,3.3c12.4-7.2,24.8-14.3,37.2-21.5V408.4z"/>
<path class="st1" d="M358,429.9c-10.5-6.1-21-12.1-31.5-18.2c0,1.1,0,2.2,0,3.3c10.5,6.1,21,12.1,31.5,18.2
	C358,432.1,358,431,358,429.9"/>
<path class="st3" d="M358,429.9c-10.5-6.1-21-12.1-31.5-18.2c0,1.1,0,2.2,0,3.3c10.5,6.1,21,12.1,31.5,18.2
	C358,432.1,358,431,358,429.9z"/>
<path class="st1" d="M377.4,382.2c-6.7,3.7-12.1,13-12.2,20.7c-0.1,7.7,5.3,11,11.9,7.3c6.7-3.7,12.1-13,12.2-20.7
	C389.4,381.8,384.1,378.5,377.4,382.2"/>
<path class="st3" d="M377.4,382.2c-6.7,3.7-12.1,13-12.2,20.7c-0.1,7.7,5.3,11,11.9,7.3c6.7-3.7,12.1-13,12.2-20.7
	C389.4,381.8,384.1,378.5,377.4,382.2z"/>
<path class="st1" d="M373.8,410.8c6.7-3.7,12.1-13,12.2-20.7c0-5.5-2.7-8.8-6.7-8.8c5.7-2.1,10.1,1.2,10,8.2
	c-0.1,7.7-5.5,17-12.2,20.7c-1.9,1.1-3.7,1.5-5.3,1.5C372.5,411.5,373.2,411.2,373.8,410.8"/>
<path class="st3" d="M373.8,410.8c6.7-3.7,12.1-13,12.2-20.7c0-5.5-2.7-8.8-6.7-8.8c5.7-2.1,10.1,1.2,10,8.2
	c-0.1,7.7-5.5,17-12.2,20.7c-1.9,1.1-3.7,1.5-5.3,1.5C372.5,411.5,373.2,411.2,373.8,410.8z"/>
<g class="st4">
	<g>
		<defs>
			<rect id="SVGID_1_" x="367.1" y="379.9" width="20.4" height="34"/>
		</defs>
		<clipPath id="SVGID_2_">
			<use xlink:href="#SVGID_1_"  style="overflow:visible;"/>
		</clipPath>
		<path class="st5" d="M382.7,381.5C382.7,381.5,382.6,381.5,382.7,381.5C382.6,381.5,382.7,381.5,382.7,381.5"/>
		<path class="st6" d="M382.7,381.5C382.7,381.5,382.6,381.5,382.7,381.5C382.6,381.5,382.7,381.5,382.7,381.5z"/>
		<path class="st5" d="M370.5,412.3C370.5,412.3,370.5,412.3,370.5,412.3L370.5,412.3z"/>
		<path class="st6" d="M370.5,412.3C370.5,412.3,370.5,412.3,370.5,412.3L370.5,412.3z"/>
		<path class="st5" d="M368.6,412.3C368.6,412.3,368.6,412.3,368.6,412.3C368.6,412.3,368.6,412.3,368.6,412.3"/>
		<path class="st6" d="M368.6,412.3C368.6,412.3,368.6,412.3,368.6,412.3C368.6,412.3,368.6,412.3,368.6,412.3z"/>
		<path class="st5" d="M380.8,381.5C380.8,381.5,380.7,381.5,380.8,381.5C380.7,381.5,380.8,381.5,380.8,381.5"/>
		<path class="st6" d="M380.8,381.5C380.8,381.5,380.7,381.5,380.8,381.5C380.7,381.5,380.8,381.5,380.8,381.5z"/>
		<path class="st5" d="M380.2,381.4c0.1,0,0.1,0,0.2,0C380.3,381.4,380.2,381.4,380.2,381.4C380.2,381.4,380.2,381.4,380.2,381.4"/>
		<path class="st6" d="M380.2,381.4c0.1,0,0.1,0,0.2,0C380.3,381.4,380.2,381.4,380.2,381.4C380.2,381.4,380.2,381.4,380.2,381.4z"
			/>
		<path class="st5" d="M369.6,412.3c-0.3,0-0.7,0.1-1,0.1C369,412.3,369.3,412.3,369.6,412.3C369.6,412.3,369.6,412.3,369.6,412.3"
			/>
		<path class="st6" d="M369.6,412.3c-0.3,0-0.7,0.1-1,0.1C369,412.3,369.3,412.3,369.6,412.3C369.6,412.3,369.6,412.3,369.6,412.3z"
			/>
		<path class="st5" d="M371.9,411.7c0,0-0.1,0-0.1,0.1c-0.7,0.3-1.5,0.4-2.2,0.5C370.3,412.2,371.1,412,371.9,411.7"/>
		<path class="st6" d="M371.9,411.7c0,0-0.1,0-0.1,0.1c-0.7,0.3-1.5,0.4-2.2,0.5C370.3,412.2,371.1,412,371.9,411.7z"/>
		<path class="st5" d="M380.7,381.5c-0.1,0-0.2,0-0.4-0.1C380.5,381.4,380.6,381.4,380.7,381.5"/>
		<path class="st6" d="M380.7,381.5c-0.1,0-0.2,0-0.4-0.1C380.5,381.4,380.6,381.4,380.7,381.5z"/>
		<path class="st5" d="M386,390.1c0-4.8-2-7.9-5.2-8.6C384,382.2,386.1,385.3,386,390.1c0,7.7-5.5,17-12.1,20.7
			c-0.7,0.4-1.4,0.7-2.1,0.9c0,0,0.1,0,0.1-0.1c0.6-0.2,1.3-0.5,1.9-0.9C380.5,407.1,385.9,397.9,386,390.1"/>
		<path class="st6" d="M386,390.1c0-4.8-2-7.9-5.2-8.6C384,382.2,386.1,385.3,386,390.1c0,7.7-5.5,17-12.1,20.7
			c-0.7,0.4-1.4,0.7-2.1,0.9c0,0,0.1,0,0.1-0.1c0.6-0.2,1.3-0.5,1.9-0.9C380.5,407.1,385.9,397.9,386,390.1z"/>
	</g>
</g>
<path class="st1" d="M377,380.8c7.3-4.1,13.2-0.5,13.2,8c-0.1,8.5-6.1,18.7-13.4,22.8c-7.3,4.1-13.2,0.5-13.2-8
	C363.7,395.1,369.7,384.9,377,380.8 M376.8,409.9c6.5-3.6,11.8-12.7,11.9-20.2c0.1-7.5-5.2-10.7-11.7-7.1
	c-6.5,3.6-11.8,12.7-11.9,20.2C365.1,410.3,370.3,413.5,376.8,409.9"/>
<path class="st3" d="M377,380.8c7.3-4.1,13.2-0.5,13.2,8c-0.1,8.5-6.1,18.7-13.4,22.8c-7.3,4.1-13.2,0.5-13.2-8
	C363.7,395.1,369.7,384.9,377,380.8z M376.8,409.9c6.5-3.6,11.8-12.7,11.9-20.2c0.1-7.5-5.2-10.7-11.7-7.1
	c-6.5,3.6-11.8,12.7-11.9,20.2C365.1,410.3,370.3,413.5,376.8,409.9z"/>
<path class="st1" d="M363,403.3c0.1-8.5,6.1-18.7,13.4-22.8c3.2-1.8,6.1-2.1,8.4-1.2c-2.2-0.6-4.8-0.2-7.6,1.4
	c-7.3,4.1-13.3,14.3-13.4,22.8c0,4.8,1.8,8,4.8,9.2C365.1,411.8,363,408.5,363,403.3"/>
<path class="st3" d="M363,403.3c0.1-8.5,6.1-18.7,13.4-22.8c3.2-1.8,6.1-2.1,8.4-1.2c-2.2-0.6-4.8-0.2-7.6,1.4
	c-7.3,4.1-13.3,14.3-13.4,22.8c0,4.8,1.8,8,4.8,9.2C365.1,411.8,363,408.5,363,403.3z"/>
<path class="st1" d="M334.5,398.6c0,14.4,0,28.8,0,43.2c-9.1,5.2-18.1,10.5-27.2,15.7c0-14.4,0-28.8,0-43.2
	C316.4,409.1,325.5,403.9,334.5,398.6"/>
<path class="st3" d="M334.5,398.6c0,14.4,0,28.8,0,43.2c-9.1,5.2-18.1,10.5-27.2,15.7c0-14.4,0-28.8,0-43.2
	C316.4,409.1,325.5,403.9,334.5,398.6z"/>
<path class="st1" d="M307.4,414.3c-9.1-5.2-18.1-10.5-27.2-15.7v43.2c9.1,5.2,18.1,10.5,27.2,15.7
	C307.4,443.1,307.4,428.7,307.4,414.3"/>
<path class="st3" d="M307.4,414.3c-9.1-5.2-18.1-10.5-27.2-15.7v43.2c9.1,5.2,18.1,10.5,27.2,15.7
	C307.4,443.1,307.4,428.7,307.4,414.3z"/>
<path class="st1" d="M331.1,404.5c0,11.8,0,23.5,0,35.3c-6.8,3.9-13.6,7.9-20.4,11.8v-35.3C317.5,412.4,324.3,408.4,331.1,404.5"/>
<path class="st3" d="M331.1,404.5c0,11.8,0,23.5,0,35.3c-6.8,3.9-13.6,7.9-20.4,11.8v-35.3C317.5,412.4,324.3,408.4,331.1,404.5z"/>
<path class="st1" d="M331.1,439.8c-0.4-0.3-0.9-0.5-1.3-0.8c-6.3,3.6-12.7,7.3-19,10.9v1.7C317.5,447.7,324.3,443.8,331.1,439.8"/>
<path class="st3" d="M331.1,439.8c-0.4-0.3-0.9-0.5-1.3-0.8c-6.3,3.6-12.7,7.3-19,10.9v1.7C317.5,447.7,324.3,443.8,331.1,439.8z"/>
<path class="st1" d="M329.8,439.1c0-11.2-0.1-22.5-0.1-33.7c0.5-0.3,1-0.6,1.4-0.8c0,11.8,0,23.5,0,35.3
	C330.7,439.6,330.2,439.3,329.8,439.1"/>
<path class="st3" d="M329.8,439.1c0-11.2-0.1-22.5-0.1-33.7c0.5-0.3,1-0.6,1.4-0.8c0,11.8,0,23.5,0,35.3
	C330.7,439.6,330.2,439.3,329.8,439.1z"/>
<path class="st1" d="M334.5,398.6c-9.1,5.2-18.1,10.5-27.2,15.7c-9.1-5.2-18.1-10.5-27.2-15.7c9.1-5.2,18.1-10.5,27.2-15.7
	C316.4,388.2,325.5,393.4,334.5,398.6"/>
<path class="st3" d="M334.5,398.6c-9.1,5.2-18.1,10.5-27.2,15.7c-9.1-5.2-18.1-10.5-27.2-15.7c9.1-5.2,18.1-10.5,27.2-15.7
	C316.4,388.2,325.5,393.4,334.5,398.6z"/>
<path class="st1" d="M326.8,422.2v2.2c-0.6,0.4-1.2,0.7-1.9,1.1v-2.2C325.6,423,326.2,422.6,326.8,422.2"/>
<path class="st3" d="M326.8,422.2v2.2c-0.6,0.4-1.2,0.7-1.9,1.1v-2.2C325.6,423,326.2,422.6,326.8,422.2z"/>
<path class="st1" d="M326.8,422.2c-0.2-0.1-0.3-0.2-0.5-0.3c-0.6,0.4-1.2,0.7-1.9,1.1c0.2,0.1,0.3,0.2,0.5,0.3
	C325.6,423,326.2,422.6,326.8,422.2"/>
<path class="st3" d="M326.8,422.2c-0.2-0.1-0.3-0.2-0.5-0.3c-0.6,0.4-1.2,0.7-1.9,1.1c0.2,0.1,0.3,0.2,0.5,0.3
	C325.6,423,326.2,422.6,326.8,422.2z"/>
<path class="st1" d="M324.5,423v2.2c0.2,0.1,0.3,0.2,0.5,0.3v-2.2C324.8,423.2,324.6,423.1,324.5,423"/>
<path class="st3" d="M324.5,423v2.2c0.2,0.1,0.3,0.2,0.5,0.3v-2.2C324.8,423.2,324.6,423.1,324.5,423z"/>
<path class="st1" d="M327.3,422.5v2.2c-0.6,0.4-1.2,0.7-1.9,1.1v-2.2C326,423.2,326.7,422.9,327.3,422.5"/>
<path class="st3" d="M327.3,422.5v2.2c-0.6,0.4-1.2,0.7-1.9,1.1v-2.2C326,423.2,326.7,422.9,327.3,422.5z"/>
<path class="st1" d="M327.3,422.5c-0.2-0.1-0.3-0.2-0.5-0.3c-0.6,0.4-1.2,0.7-1.9,1.1c0.2,0.1,0.3,0.2,0.5,0.3
	C326,423.2,326.7,422.9,327.3,422.5"/>
<path class="st3" d="M327.3,422.5c-0.2-0.1-0.3-0.2-0.5-0.3c-0.6,0.4-1.2,0.7-1.9,1.1c0.2,0.1,0.3,0.2,0.5,0.3
	C326,423.2,326.7,422.9,327.3,422.5z"/>
<path class="st1" d="M324.9,423.3c0,0.7,0,1.4,0,2.2c0.2,0.1,0.3,0.2,0.5,0.3v-2.2C325.3,423.5,325.1,423.4,324.9,423.3"/>
<path class="st3" d="M324.9,423.3c0,0.7,0,1.4,0,2.2c0.2,0.1,0.3,0.2,0.5,0.3v-2.2C325.3,423.5,325.1,423.4,324.9,423.3z"/>
<path class="st1" d="M327.8,422.8v2.2c-0.6,0.4-1.2,0.7-1.9,1.1c0-0.7,0-1.4,0-2.2C326.5,423.5,327.1,423.1,327.8,422.8"/>
<path class="st3" d="M327.8,422.8v2.2c-0.6,0.4-1.2,0.7-1.9,1.1c0-0.7,0-1.4,0-2.2C326.5,423.5,327.1,423.1,327.8,422.8z"/>
<path class="st1" d="M327.8,422.8c-0.2-0.1-0.3-0.2-0.5-0.3c-0.6,0.4-1.2,0.7-1.9,1.1c0.2,0.1,0.3,0.2,0.5,0.3
	C326.5,423.5,327.1,423.1,327.8,422.8"/>
<path class="st3" d="M327.8,422.8c-0.2-0.1-0.3-0.2-0.5-0.3c-0.6,0.4-1.2,0.7-1.9,1.1c0.2,0.1,0.3,0.2,0.5,0.3
	C326.5,423.5,327.1,423.1,327.8,422.8z"/>
<path class="st1" d="M325.4,423.6c0,0.7,0,1.4,0,2.2c0.2,0.1,0.3,0.2,0.5,0.3c0-0.7,0-1.4,0-2.2
	C325.7,423.8,325.6,423.7,325.4,423.6"/>
<path class="st3" d="M325.4,423.6c0,0.7,0,1.4,0,2.2c0.2,0.1,0.3,0.2,0.5,0.3c0-0.7,0-1.4,0-2.2
	C325.7,423.8,325.6,423.7,325.4,423.6z"/>
<path class="st1" d="M328.2,423v2.2c-0.6,0.4-1.2,0.7-1.9,1.1v-2.2C327,423.8,327.6,423.4,328.2,423"/>
<path class="st3" d="M328.2,423v2.2c-0.6,0.4-1.2,0.7-1.9,1.1v-2.2C327,423.8,327.6,423.4,328.2,423z"/>
<path class="st1" d="M328.2,423c-0.2-0.1-0.3-0.2-0.5-0.3c-0.6,0.4-1.2,0.7-1.9,1.1c0.2,0.1,0.3,0.2,0.5,0.3
	C327,423.8,327.6,423.4,328.2,423"/>
<path class="st3" d="M328.2,423c-0.2-0.1-0.3-0.2-0.5-0.3c-0.6,0.4-1.2,0.7-1.9,1.1c0.2,0.1,0.3,0.2,0.5,0.3
	C327,423.8,327.6,423.4,328.2,423z"/>
<path class="st1" d="M325.9,423.9v2.2c0.2,0.1,0.3,0.2,0.5,0.3v-2.2C326.2,424,326,423.9,325.9,423.9"/>
<path class="st3" d="M325.9,423.9v2.2c0.2,0.1,0.3,0.2,0.5,0.3v-2.2C326.2,424,326,423.9,325.9,423.9z"/>
<path class="st1" d="M328.7,423.3v2.2c-0.6,0.4-1.2,0.7-1.9,1.1v-2.2C327.4,424,328.1,423.7,328.7,423.3"/>
<path class="st3" d="M328.7,423.3v2.2c-0.6,0.4-1.2,0.7-1.9,1.1v-2.2C327.4,424,328.1,423.7,328.7,423.3z"/>
<path class="st1" d="M328.7,423.3c-0.2-0.1-0.3-0.2-0.5-0.3c-0.6,0.4-1.2,0.7-1.9,1.1c0.2,0.1,0.3,0.2,0.5,0.3
	C327.4,424,328.1,423.7,328.7,423.3"/>
<path class="st3" d="M328.7,423.3c-0.2-0.1-0.3-0.2-0.5-0.3c-0.6,0.4-1.2,0.7-1.9,1.1c0.2,0.1,0.3,0.2,0.5,0.3
	C327.4,424,328.1,423.7,328.7,423.3z"/>
<path class="st1" d="M326.3,424.1v2.2c0.2,0.1,0.3,0.2,0.5,0.3v-2.2C326.7,424.3,326.5,424.2,326.3,424.1"/>
<path class="st3" d="M326.3,424.1v2.2c0.2,0.1,0.3,0.2,0.5,0.3v-2.2C326.7,424.3,326.5,424.2,326.3,424.1z"/>
<path class="st1" d="M329.2,423.6v2.2c-0.6,0.4-1.2,0.7-1.9,1.1v-2.2C327.9,424.3,328.5,423.9,329.2,423.6"/>
<path class="st3" d="M329.2,423.6v2.2c-0.6,0.4-1.2,0.7-1.9,1.1v-2.2C327.9,424.3,328.5,423.9,329.2,423.6z"/>
<path class="st1" d="M329.2,423.6c-0.2-0.1-0.3-0.2-0.5-0.3c-0.6,0.4-1.2,0.7-1.9,1.1c0.2,0.1,0.3,0.2,0.5,0.3
	C327.9,424.3,328.5,423.9,329.2,423.6"/>
<path class="st3" d="M329.2,423.6c-0.2-0.1-0.3-0.2-0.5-0.3c-0.6,0.4-1.2,0.7-1.9,1.1c0.2,0.1,0.3,0.2,0.5,0.3
	C327.9,424.3,328.5,423.9,329.2,423.6z"/>
<path class="st1" d="M326.8,424.4c0,0.7,0,1.4,0,2.2c0.2,0.1,0.3,0.2,0.5,0.3v-2.2C327.1,424.6,327,424.5,326.8,424.4"/>
<path class="st3" d="M326.8,424.4c0,0.7,0,1.4,0,2.2c0.2,0.1,0.3,0.2,0.5,0.3v-2.2C327.1,424.6,327,424.5,326.8,424.4z"/>
<path class="st1" d="M329.6,423.9v2.2c-0.6,0.4-1.2,0.7-1.9,1.1c0-0.7,0-1.4,0-2.2C328.4,424.6,329,424.2,329.6,423.9"/>
<path class="st3" d="M329.6,423.9v2.2c-0.6,0.4-1.2,0.7-1.9,1.1c0-0.7,0-1.4,0-2.2C328.4,424.6,329,424.2,329.6,423.9z"/>
<path class="st1" d="M329.6,423.9c-0.2-0.1-0.3-0.2-0.5-0.3c-0.6,0.4-1.2,0.7-1.9,1.1c0.2,0.1,0.3,0.2,0.5,0.3
	C328.4,424.6,329,424.2,329.6,423.9"/>
<path class="st3" d="M329.6,423.9c-0.2-0.1-0.3-0.2-0.5-0.3c-0.6,0.4-1.2,0.7-1.9,1.1c0.2,0.1,0.3,0.2,0.5,0.3
	C328.4,424.6,329,424.2,329.6,423.9z"/>
<path class="st1" d="M327.3,424.7c0,0.7,0,1.4,0,2.2l0.5,0.3c0-0.7,0-1.4,0-2.2C327.6,424.8,327.4,424.8,327.3,424.7"/>
<path class="st3" d="M327.3,424.7c0,0.7,0,1.4,0,2.2l0.5,0.3c0-0.7,0-1.4,0-2.2C327.6,424.8,327.4,424.8,327.3,424.7z"/>
<path class="st1" d="M330.1,424.1v2.2c-0.6,0.4-1.2,0.7-1.9,1.1v-2.2C328.8,424.8,329.5,424.5,330.1,424.1"/>
<path class="st3" d="M330.1,424.1v2.2c-0.6,0.4-1.2,0.7-1.9,1.1v-2.2C328.8,424.8,329.5,424.5,330.1,424.1z"/>
<path class="st1" d="M330.1,424.1c-0.2-0.1-0.3-0.2-0.5-0.3c-0.6,0.4-1.2,0.7-1.9,1.1c0.2,0.1,0.3,0.2,0.5,0.3
	C328.8,424.8,329.5,424.5,330.1,424.1"/>
<path class="st3" d="M330.1,424.1c-0.2-0.1-0.3-0.2-0.5-0.3c-0.6,0.4-1.2,0.7-1.9,1.1c0.2,0.1,0.3,0.2,0.5,0.3
	C328.8,424.8,329.5,424.5,330.1,424.1z"/>
<path class="st1" d="M327.8,424.9v2.2c0.2,0.1,0.3,0.2,0.5,0.3v-2.2C328.1,425.1,327.9,425,327.8,424.9"/>
<path class="st3" d="M327.8,424.9v2.2c0.2,0.1,0.3,0.2,0.5,0.3v-2.2C328.1,425.1,327.9,425,327.8,424.9z"/>
<path class="st1" d="M331,421.4v4.3c-1.2,0.7-2.5,1.4-3.7,2.2c0-1.4,0-2.9,0-4.3C328.5,422.9,329.8,422.2,331,421.4"/>
<path class="st3" d="M331,421.4v4.3c-1.2,0.7-2.5,1.4-3.7,2.2c0-1.4,0-2.9,0-4.3C328.5,422.9,329.8,422.2,331,421.4z"/>
<path class="st1" d="M331,421.4c-0.3-0.2-0.6-0.4-0.9-0.5c-1.2,0.7-2.5,1.4-3.7,2.2c0.3,0.2,0.6,0.4,0.9,0.5
	C328.5,422.9,329.8,422.2,331,421.4"/>
<path class="st3" d="M331,421.4c-0.3-0.2-0.6-0.4-0.9-0.5c-1.2,0.7-2.5,1.4-3.7,2.2c0.3,0.2,0.6,0.4,0.9,0.5
	C328.5,422.9,329.8,422.2,331,421.4z"/>
<path class="st1" d="M326.4,423.1c0,1.4,0,2.9,0,4.3c0.3,0.2,0.6,0.4,0.9,0.5c0-1.4,0-2.9,0-4.3C327,423.4,326.7,423.2,326.4,423.1"
	/>
<path class="st3" d="M326.4,423.1c0,1.4,0,2.9,0,4.3c0.3,0.2,0.6,0.4,0.9,0.5c0-1.4,0-2.9,0-4.3C327,423.4,326.7,423.2,326.4,423.1z
	"/>
</svg>
