<?xml version="1.0" encoding="utf-8"?>
<!-- Generator: Adobe Illustrator 19.0.0, SVG Export Plug-In . SVG Version: 6.00 Build 0)  -->
<svg version="1.1" id="Layer_1" xmlns="http://www.w3.org/2000/svg" xmlns:xlink="http://www.w3.org/1999/xlink" x="0px" y="0px"
	 viewBox="0 0 868.9 709.9" style="enable-background:new 0 0 868.9 709.9;" xml:space="preserve">
<style type="text/css">
	.st0{fill:#50C0AB;}
	.st1{fill:#F1F2F2;}
	.st2{fill:none;stroke:#FFFFFF;stroke-width:11;stroke-linecap:round;stroke-linejoin:round;stroke-miterlimit:10;}
	.st3{fill:none;stroke:#604A9E;stroke-width:3;stroke-linecap:round;stroke-linejoin:round;stroke-miterlimit:10;}
	.st4{opacity:0.32;}
	.st5{clip-path:url(#SVGID_2_);fill:#F1F2F2;}
	
		.st6{clip-path:url(#SVGID_2_);fill:none;stroke:#604A9E;stroke-width:3;stroke-linecap:round;stroke-linejoin:round;stroke-miterlimit:10;}
</style>
<path class="st0" d="M689.3,302c26.3-11.8,38.3-42.6,26.7-69.1c-9.6-22.1-32.6-34.3-55.4-31.2c11.2-20.1,8.3-46-8.7-63
	c-17.1-17.1-42.9-20-63-8.7c3.1-22.8-9.1-45.8-31.2-55.4c-26.5-11.5-57.3,0.4-69.1,26.7C488,72.3,464.6,49,435.7,49
	c-28.9,0-52.4,23.3-52.8,52.1c-11.8-26.3-42.6-38.3-69.1-26.7c-22.2,9.6-34.3,32.6-31.2,55.4c-20.1-11.2-45.9-8.3-63,8.7
	c-17.1,17.1-20,42.9-8.7,63c-22.8-3.1-45.8,9.1-55.4,31.2c-11.5,26.5,0.4,57.3,26.7,69.1c-28.8,0.4-52.1,23.8-52.1,52.8
	c0,28.9,23.3,52.4,52.1,52.8c-26.3,11.8-38.3,42.6-26.7,69.1c9.6,22.2,32.6,34.3,55.4,31.2c-11.2,20.1-8.3,46,8.7,63
	c17.1,17.1,42.9,20,63,8.7c-3.1,22.8,9.1,45.8,31.2,55.4c26.5,11.5,57.3-0.4,69.1-26.7c0.4,28.8,23.8,52.1,52.8,52.1
	c28.9,0,52.4-23.3,52.8-52.1c11.8,26.3,42.6,38.3,69.1,26.7c22.2-9.6,34.3-32.6,31.2-55.4c20.1,11.2,46,8.3,63-8.7
	c17.1-17.1,20-42.9,8.7-63c22.8,3.1,45.8-9.1,55.4-31.2c11.5-26.5-0.4-57.3-26.7-69.1c28.8-0.4,52.1-23.8,52.1-52.8
	C741.4,325.8,718.1,302.4,689.3,302"/>
<path class="st1" d="M170.9,297.1L170.9,297.1L170.9,297.1c0-0.5,0.3-1,0.8-1.3l294.5-170c0.5-0.3,1-0.3,1.5,0l178.2,102.9
	c0,0,0,0,0,0c0.3,0.2,0.6,0.5,0.7,0.9c0,0.1,0.1,0.3,0.1,0.4v183.7c0,0.5-0.3,1-0.8,1.3l-6.4,3.7l-171.8,99.2c0,0,0,0,0,0
	c0,0,0,0,0,0L351.4,585h0c0,0,0,0,0,0c-0.2,0.1-0.5,0.2-0.7,0.2c-0.2,0-0.4-0.1-0.6-0.2c0,0-0.1,0-0.1,0l0,0h0c0,0,0,0,0,0
	l-171.8-99.2l-6.4-3.7c-0.5-0.3-0.8-0.8-0.8-1.3L170.9,297.1z"/>
<path class="st2" d="M170.9,297.1L170.9,297.1L170.9,297.1c0-0.5,0.3-1,0.8-1.3l294.5-170c0.5-0.3,1-0.3,1.5,0l178.2,102.9
	c0,0,0,0,0,0c0.3,0.2,0.6,0.5,0.7,0.9c0,0.1,0.1,0.3,0.1,0.4v183.7c0,0.5-0.3,1-0.8,1.3l-6.4,3.7l-171.8,99.2c0,0,0,0,0,0
	c0,0,0,0,0,0L351.4,585h0c0,0,0,0,0,0c-0.2,0.1-0.5,0.2-0.7,0.2c-0.2,0-0.4-0.1-0.6-0.2c0,0-0.1,0-0.1,0l0,0h0c0,0,0,0,0,0
	l-171.8-99.2l-6.4-3.7c-0.5-0.3-0.8-0.8-0.8-1.3L170.9,297.1z"/>
<path class="st1" d="M295.1,233.6c0,61.2,0,122.5,0,183.7c-2.1-1.2-4.2-2.5-6.4-3.7c0-61.2,0-122.5,0-183.7
	C290.8,231.2,293,232.4,295.1,233.6"/>
<path class="st3" d="M295.1,233.6c0,61.2,0,122.5,0,183.7c-2.1-1.2-4.2-2.5-6.4-3.7c0-61.2,0-122.5,0-183.7
	C290.8,231.2,293,232.4,295.1,233.6z"/>
<path class="st1" d="M466.9,134.4c0,61.2,0,122.5,0,183.7c57.3,33.1,114.6,66.1,171.8,99.2c0-61.2,0-122.5,0-183.7
	C581.5,200.5,524.2,167.5,466.9,134.4"/>
<path class="st3" d="M466.9,134.4c0,61.2,0,122.5,0,183.7c57.3,33.1,114.6,66.1,171.8,99.2c0-61.2,0-122.5,0-183.7
	C581.5,200.5,524.2,167.5,466.9,134.4z"/>
<path class="st1" d="M466.9,516.5c-57.3-33.1-114.6-66.1-171.8-99.2v-7.7c57.3,33.2,114.6,66.3,171.9,99.5
	C466.9,511.6,466.9,514.1,466.9,516.5"/>
<path class="st3" d="M466.9,516.5c-57.3-33.1-114.6-66.1-171.8-99.2v-7.7c57.3,33.2,114.6,66.3,171.9,99.5
	C466.9,511.6,466.9,514.1,466.9,516.5z"/>
<path class="st1" d="M645.1,229.9v183.7c-2.1,1.2-4.2,2.4-6.4,3.7c0-61.2,0-122.5,0-183.7C640.9,232.4,643,231.2,645.1,229.9"/>
<path class="st3" d="M645.1,229.9v183.7c-2.1,1.2-4.2,2.4-6.4,3.7c0-61.2,0-122.5,0-183.7C640.9,232.4,643,231.2,645.1,229.9z"/>
<path class="st1" d="M178.8,300.7c0,61.2,0,122.5,0,183.7c-2.1-1.2-4.2-2.5-6.4-3.7c0-61.2,0-122.5,0-183.7
	C174.6,298.3,176.7,299.5,178.8,300.7"/>
<path class="st3" d="M178.8,300.7c0,61.2,0,122.5,0,183.7c-2.1-1.2-4.2-2.5-6.4-3.7c0-61.2,0-122.5,0-183.7
	C174.6,298.3,176.7,299.5,178.8,300.7z"/>
<path class="st1" d="M178.8,484.4c0-61.2,0-122.5,0-183.7l171.8-99.2v0c38.8-22.4,77.5-44.8,116.3-67.1c0,61.2,0,122.5,0,183.7
	c-38.8,22.4-77.5,44.8-116.3,67.1v0C293.4,418.3,236.1,451.4,178.8,484.4"/>
<path class="st3" d="M178.8,484.4c0-61.2,0-122.5,0-183.7l171.8-99.2v0c38.8-22.4,77.5-44.8,116.3-67.1c0,61.2,0,122.5,0,183.7
	c-38.8,22.4-77.5,44.8-116.3,67.1v0C293.4,418.3,236.1,451.4,178.8,484.4z"/>
<path class="st1" d="M172.4,297.1c59.4-34.3,118.8-68.6,178.2-102.9v0c38.8-22.4,77.5-44.8,116.3-67.1
	c59.4,34.3,118.8,68.6,178.2,102.9c-2.1,1.2-4.2,2.5-6.4,3.7c-57.3-33.1-114.6-66.1-171.8-99.2c-57.3,33.1-114.6,66.1-171.8,99.2
	c0,0,0,0,0,0c-38.8,22.4-77.5,44.8-116.3,67.1C176.7,299.5,174.6,298.3,172.4,297.1"/>
<path class="st3" d="M172.4,297.1c59.4-34.3,118.8-68.6,178.2-102.9v0c38.8-22.4,77.5-44.8,116.3-67.1
	c59.4,34.3,118.8,68.6,178.2,102.9c-2.1,1.2-4.2,2.5-6.4,3.7c-57.3-33.1-114.6-66.1-171.8-99.2c-57.3,33.1-114.6,66.1-171.8,99.2
	c0,0,0,0,0,0c-38.8,22.4-77.5,44.8-116.3,67.1C176.7,299.5,174.6,298.3,172.4,297.1z"/>
<path class="st1" d="M178.8,477.1c2.1-1.2,4.2-2.4,6.4-3.7c55.2,31.8,110.3,63.7,165.5,95.5c36.6-21.2,73.3-42.3,109.9-63.5
	c-55.2-31.8-110.3-63.7-165.5-95.5c2.1-1.2,4.2-2.4,6.4-3.7c55.2,31.8,110.3,63.7,165.5,95.5c16.4-9.5,32.8-18.9,49.2-28.4
	c0,0,0,0,0,0c38.8-22.4,77.5-44.8,116.3-67.1c2.1,1.2,4.2,2.5,6.4,3.7c-57.3,33.1-114.6,66.1-171.8,99.2
	c-38.8,22.4-77.5,44.8-116.3,67.1C293.4,543.2,236.1,510.2,178.8,477.1"/>
<path class="st3" d="M178.8,477.1c2.1-1.2,4.2-2.4,6.4-3.7c55.2,31.8,110.3,63.7,165.5,95.5c36.6-21.2,73.3-42.3,109.9-63.5
	c-55.2-31.8-110.3-63.7-165.5-95.5c2.1-1.2,4.2-2.4,6.4-3.7c55.2,31.8,110.3,63.7,165.5,95.5c16.4-9.5,32.8-18.9,49.2-28.4
	c0,0,0,0,0,0c38.8-22.4,77.5-44.8,116.3-67.1c2.1,1.2,4.2,2.5,6.4,3.7c-57.3,33.1-114.6,66.1-171.8,99.2
	c-38.8,22.4-77.5,44.8-116.3,67.1C293.4,543.2,236.1,510.2,178.8,477.1z"/>
<path class="st1" d="M185.2,473.1c38.8-22.4,77.5-44.8,116.3-67.1c55.2-31.8,110.3-63.7,165.5-95.5L632.4,406
	c-55.2,32-110.3,63.9-165.5,95.9c-0.1,0-0.2-0.1-0.2-0.1c-38.7,22.4-77.4,44.8-116,67.3C295.5,537,240.3,505.1,185.2,473.1"/>
<path class="st3" d="M185.2,473.1c38.8-22.4,77.5-44.8,116.3-67.1c55.2-31.8,110.3-63.7,165.5-95.5L632.4,406
	c-55.2,32-110.3,63.9-165.5,95.9c-0.1,0-0.2-0.1-0.2-0.1c-38.7,22.4-77.4,44.8-116,67.3C295.5,537,240.3,505.1,185.2,473.1z"/>
<path class="st1" d="M350.6,583.7c-57.3-33.1-114.6-66.1-171.8-99.2c0-2.6,0-5.1,0-7.7c57.3,33.2,114.6,66.3,171.9,99.5
	C350.7,578.7,350.7,581.2,350.6,583.7"/>
<path class="st3" d="M350.6,583.7c-57.3-33.1-114.6-66.1-171.8-99.2c0-2.6,0-5.1,0-7.7c57.3,33.2,114.6,66.3,171.9,99.5
	C350.7,578.7,350.7,581.2,350.6,583.7z"/>
<path class="st1" d="M350.6,583.7c0-2.5,0-4.9,0-7.4c57.3-33.1,114.6-66.2,171.9-99.3v0c38.8-22.4,77.5-44.8,116.3-67.1
	c0,2.5-0.1,5-0.1,7.4c-57.3,33.1-114.6,66.1-171.8,99.2C428.2,538.9,389.4,561.3,350.6,583.7"/>
<path class="st3" d="M350.6,583.7c0-2.5,0-4.9,0-7.4c57.3-33.1,114.6-66.2,171.9-99.3v0c38.8-22.4,77.5-44.8,116.3-67.1
	c0,2.5-0.1,5-0.1,7.4c-57.3,33.1-114.6,66.1-171.8,99.2C428.2,538.9,389.4,561.3,350.6,583.7z"/>
<path class="st1" d="M306.8,376.8v62.8c-12.4,7.2-24.8,14.3-37.2,21.5v-62.8C282,391.1,294.4,384,306.8,376.8"/>
<path class="st3" d="M306.8,376.8v62.8c-12.4,7.2-24.8,14.3-37.2,21.5v-62.8C282,391.1,294.4,384,306.8,376.8z"/>
<path class="st1" d="M306.8,376.8c-10.5-6.1-21-12.1-31.5-18.2c-12.4,7.2-24.8,14.3-37.2,21.5l31.5,18.2
	C282,391.1,294.4,384,306.8,376.8"/>
<path class="st3" d="M306.8,376.8c-10.5-6.1-21-12.1-31.5-18.2c-12.4,7.2-24.8,14.3-37.2,21.5l31.5,18.2
	C282,391.1,294.4,384,306.8,376.8z"/>
<path class="st1" d="M238.1,380.1c0,20.9,0,41.9,0,62.8c10.5,6.1,21,12.1,31.5,18.2v-62.8L238.1,380.1z"/>
<path class="st3" d="M238.1,380.1c0,20.9,0,41.9,0,62.8c10.5,6.1,21,12.1,31.5,18.2v-62.8L238.1,380.1z"/>
<path class="st1" d="M304,381.8v6.6c-2.9,1.7-5.7,3.3-8.6,5v-6.6C298.2,385.1,301.1,383.4,304,381.8"/>
<path class="st3" d="M304,381.8v6.6c-2.9,1.7-5.7,3.3-8.6,5v-6.6C298.2,385.1,301.1,383.4,304,381.8z"/>
<path class="st1" d="M269.6,412.1c12.4-7.2,24.8-14.3,37.2-21.5v-1.1c-12.4,7.2-24.8,14.3-37.2,21.5V412.1z"/>
<path class="st3" d="M269.6,412.1c12.4-7.2,24.8-14.3,37.2-21.5v-1.1c-12.4,7.2-24.8,14.3-37.2,21.5V412.1z"/>
<path class="st1" d="M306.8,436.3c-12.4,7.2-24.8,14.3-37.2,21.5c0,1.1,0,2.2,0,3.3c12.4-7.2,24.8-14.3,37.2-21.5V436.3z"/>
<path class="st3" d="M306.8,436.3c-12.4,7.2-24.8,14.3-37.2,21.5c0,1.1,0,2.2,0,3.3c12.4-7.2,24.8-14.3,37.2-21.5V436.3z"/>
<path class="st1" d="M269.6,457.8c-10.5-6.1-21-12.1-31.5-18.2c0,1.1,0,2.2,0,3.3c10.5,6.1,21,12.1,31.5,18.2
	C269.6,460,269.6,458.9,269.6,457.8"/>
<path class="st3" d="M269.6,457.8c-10.5-6.1-21-12.1-31.5-18.2c0,1.1,0,2.2,0,3.3c10.5,6.1,21,12.1,31.5,18.2
	C269.6,460,269.6,458.9,269.6,457.8z"/>
<path class="st1" d="M289,410.2c-6.7,3.7-12.1,13-12.2,20.7c-0.1,7.7,5.3,11,11.9,7.3c6.7-3.7,12.1-13,12.2-20.7
	C301,409.7,295.7,406.5,289,410.2"/>
<path class="st3" d="M289,410.2c-6.7,3.7-12.1,13-12.2,20.7c-0.1,7.7,5.3,11,11.9,7.3c6.7-3.7,12.1-13,12.2-20.7
	C301,409.7,295.7,406.5,289,410.2z"/>
<path class="st1" d="M285.5,438.8c6.7-3.7,12.1-13,12.2-20.7c0-5.5-2.7-8.8-6.7-8.8c5.7-2.1,10.1,1.2,10,8.2
	c-0.1,7.7-5.5,17-12.2,20.7c-1.9,1.1-3.7,1.5-5.3,1.5C284.2,439.4,284.8,439.1,285.5,438.8"/>
<path class="st3" d="M285.5,438.8c6.7-3.7,12.1-13,12.2-20.7c0-5.5-2.7-8.8-6.7-8.8c5.7-2.1,10.1,1.2,10,8.2
	c-0.1,7.7-5.5,17-12.2,20.7c-1.9,1.1-3.7,1.5-5.3,1.5C284.2,439.4,284.8,439.1,285.5,438.8z"/>
<g class="st4">
	<g>
		<defs>
			<rect id="SVGID_1_" x="278.7" y="407.8" width="20.4" height="34"/>
		</defs>
		<clipPath id="SVGID_2_">
			<use xlink:href="#SVGID_1_"  style="overflow:visible;"/>
		</clipPath>
		<path class="st5" d="M294.3,409.4C294.3,409.4,294.3,409.4,294.3,409.4C294.3,409.4,294.3,409.4,294.3,409.4"/>
		<path class="st6" d="M294.3,409.4C294.3,409.4,294.3,409.4,294.3,409.4C294.3,409.4,294.3,409.4,294.3,409.4z"/>
		<path class="st5" d="M282.1,440.3L282.1,440.3L282.1,440.3z"/>
		<path class="st6" d="M282.1,440.3L282.1,440.3L282.1,440.3z"/>
		<path class="st5" d="M280.2,440.3L280.2,440.3L280.2,440.3z"/>
		<path class="st6" d="M280.2,440.3L280.2,440.3L280.2,440.3z"/>
		<path class="st5" d="M292.4,409.4C292.4,409.4,292.4,409.4,292.4,409.4C292.4,409.4,292.4,409.4,292.4,409.4"/>
		<path class="st6" d="M292.4,409.4C292.4,409.4,292.4,409.4,292.4,409.4C292.4,409.4,292.4,409.4,292.4,409.4z"/>
		<path class="st5" d="M291.8,409.3c0.1,0,0.1,0,0.2,0C291.9,409.3,291.9,409.3,291.8,409.3L291.8,409.3z"/>
		<path class="st6" d="M291.8,409.3c0.1,0,0.1,0,0.2,0C291.9,409.3,291.9,409.3,291.8,409.3L291.8,409.3z"/>
		<path class="st5" d="M281.3,440.2c-0.3,0-0.7,0.1-1,0.1C280.6,440.3,280.9,440.2,281.3,440.2C281.2,440.2,281.3,440.2,281.3,440.2
			"/>
		<path class="st6" d="M281.3,440.2c-0.3,0-0.7,0.1-1,0.1C280.6,440.3,280.9,440.2,281.3,440.2C281.2,440.2,281.3,440.2,281.3,440.2
			z"/>
		<path class="st5" d="M283.5,439.6c0,0-0.1,0-0.1,0.1c-0.7,0.3-1.5,0.4-2.2,0.5C282,440.1,282.7,439.9,283.5,439.6"/>
		<path class="st6" d="M283.5,439.6c0,0-0.1,0-0.1,0.1c-0.7,0.3-1.5,0.4-2.2,0.5C282,440.1,282.7,439.9,283.5,439.6z"/>
		<path class="st5" d="M292.3,409.4c-0.1,0-0.2,0-0.4-0.1C292.1,409.4,292.2,409.4,292.3,409.4"/>
		<path class="st6" d="M292.3,409.4c-0.1,0-0.2,0-0.4-0.1C292.1,409.4,292.2,409.4,292.3,409.4z"/>
		<path class="st5" d="M297.6,418.1c0-4.8-2-7.9-5.2-8.6C295.6,410.2,297.7,413.2,297.6,418.1c0,7.7-5.5,17-12.1,20.7
			c-0.7,0.4-1.4,0.7-2.1,0.9c0,0,0.1,0,0.1-0.1c0.6-0.2,1.3-0.5,1.9-0.9C292.1,435.1,297.6,425.8,297.6,418.1"/>
		<path class="st6" d="M297.6,418.1c0-4.8-2-7.9-5.2-8.6C295.6,410.2,297.7,413.2,297.6,418.1c0,7.7-5.5,17-12.1,20.7
			c-0.7,0.4-1.4,0.7-2.1,0.9c0,0,0.1,0,0.1-0.1c0.6-0.2,1.3-0.5,1.9-0.9C292.1,435.1,297.6,425.8,297.6,418.1z"/>
	</g>
</g>
<path class="st1" d="M288.6,408.7c7.3-4.1,13.2-0.5,13.2,8c-0.1,8.5-6.1,18.7-13.4,22.8c-7.3,4.1-13.2,0.5-13.2-8
	C275.3,423,281.3,412.8,288.6,408.7 M288.4,437.8c6.5-3.6,11.8-12.7,11.9-20.2c0.1-7.5-5.2-10.7-11.7-7.1
	c-6.5,3.6-11.8,12.7-11.9,20.2C276.7,438.2,281.9,441.4,288.4,437.8"/>
<path class="st3" d="M288.6,408.7c7.3-4.1,13.2-0.5,13.2,8c-0.1,8.5-6.1,18.7-13.4,22.8c-7.3,4.1-13.2,0.5-13.2-8
	C275.3,423,281.3,412.8,288.6,408.7z M288.4,437.8c6.5-3.6,11.8-12.7,11.9-20.2c0.1-7.5-5.2-10.7-11.7-7.1
	c-6.5,3.6-11.8,12.7-11.9,20.2C276.7,438.2,281.9,441.4,288.4,437.8z"/>
<path class="st1" d="M274.6,431.2c0.1-8.5,6.1-18.7,13.4-22.8c3.2-1.8,6.1-2.1,8.4-1.2c-2.2-0.6-4.8-0.2-7.6,1.4
	c-7.3,4.1-13.3,14.3-13.4,22.8c0,4.8,1.8,8,4.8,9.2C276.8,439.8,274.6,436.4,274.6,431.2"/>
<path class="st3" d="M274.6,431.2c0.1-8.5,6.1-18.7,13.4-22.8c3.2-1.8,6.1-2.1,8.4-1.2c-2.2-0.6-4.8-0.2-7.6,1.4
	c-7.3,4.1-13.3,14.3-13.4,22.8c0,4.8,1.8,8,4.8,9.2C276.8,439.8,274.6,436.4,274.6,431.2z"/>
<path class="st1" d="M632.6,352.5c-0.1,18-0.1,35.9-0.2,53.9c-3.5,2-6.9,4-10.4,6c0-4,0-8,0-12c-38.1,21.8-76.2,43.7-114.2,65.5
	c0,4,0,8,0,12c-3.5,2-6.9,4-10.4,6c0.1-18,0.1-35.9,0.2-53.9C542.6,404.1,587.6,378.3,632.6,352.5"/>
<path class="st3" d="M632.6,352.5c-0.1,18-0.1,35.9-0.2,53.9c-3.5,2-6.9,4-10.4,6c0-4,0-8,0-12c-38.1,21.8-76.2,43.7-114.2,65.5
	c0,4,0,8,0,12c-3.5,2-6.9,4-10.4,6c0.1-18,0.1-35.9,0.2-53.9C542.6,404.1,587.6,378.3,632.6,352.5z"/>
<path class="st1" d="M622,412.4c-3.5-2-6.9-4-10.4-6l10.4-6C622,404.4,622,408.4,622,412.4"/>
<path class="st3" d="M622,412.4c-3.5-2-6.9-4-10.4-6l10.4-6C622,404.4,622,408.4,622,412.4z"/>
<path class="st1" d="M497.5,429.9c-3.5-2-6.9-4-10.4-6c0,8,0,16,0,24c-12.1-7-24.2-14.1-36.3-21.1c0,10-0.1,20-0.1,30
	c3.5,2,6.9,4,10.4,6l0-11.9l25.9,15c0,4,0,8,0,12c3.5,2,6.9,4,10.4,6C497.4,465.9,497.5,447.9,497.5,429.9"/>
<path class="st3" d="M497.5,429.9c-3.5-2-6.9-4-10.4-6c0,8,0,16,0,24c-12.1-7-24.2-14.1-36.3-21.1c0,10-0.1,20-0.1,30
	c3.5,2,6.9,4,10.4,6l0-11.9l25.9,15c0,4,0,8,0,12c3.5,2,6.9,4,10.4,6C497.4,465.9,497.5,447.9,497.5,429.9z"/>
<path class="st1" d="M632.6,352.5c-3.5-2-6.9-4-10.4-6c-45,25.8-90,51.6-135,77.4c3.5,2,6.9,4,10.4,6
	C542.6,404.1,587.6,378.3,632.6,352.5"/>
<path class="st3" d="M632.6,352.5c-3.5-2-6.9-4-10.4-6c-45,25.8-90,51.6-135,77.4c3.5,2,6.9,4,10.4,6
	C542.6,404.1,587.6,378.3,632.6,352.5z"/>
<path class="st1" d="M450.9,426.8c3.5-2,6.9-4,10.4-6l25.9,15c0,4,0,8,0,12C475.1,440.9,463,433.9,450.9,426.8"/>
<path class="st3" d="M450.9,426.8c3.5-2,6.9-4,10.4-6l25.9,15c0,4,0,8,0,12C475.1,440.9,463,433.9,450.9,426.8z"/>
<path class="st1" d="M466.5,423.9c36.4-20.8,72.7-41.7,109.1-62.5c3.4,2,6.9,4,10.4,6l-98.7,56.6c0,4,0,8,0,12
	C480.3,431.9,473.4,427.9,466.5,423.9"/>
<path class="st3" d="M466.5,423.9c36.4-20.8,72.7-41.7,109.1-62.5c3.4,2,6.9,4,10.4,6l-98.7,56.6c0,4,0,8,0,12
	C480.3,431.9,473.4,427.9,466.5,423.9z"/>
<path class="st1" d="M580.7,352.4c5.2,3,10.4,6,15.5,9c-3.5,2-6.9,4-10.4,6c-5.2-3-10.4-6-15.5-9
	C573.8,356.3,577.3,354.4,580.7,352.4"/>
<path class="st3" d="M580.7,352.4c5.2,3,10.4,6,15.5,9c-3.5,2-6.9,4-10.4,6c-5.2-3-10.4-6-15.5-9
	C573.8,356.3,577.3,354.4,580.7,352.4z"/>
<path class="st1" d="M570.3,358.3c0,2,0,4,0,6c3.5,2,6.9,4,10.3,6c1.7-1,3.5-2,5.2-3C580.7,364.3,575.5,361.3,570.3,358.3"/>
<path class="st3" d="M570.3,358.3c0,2,0,4,0,6c3.5,2,6.9,4,10.3,6c1.7-1,3.5-2,5.2-3C580.7,364.3,575.5,361.3,570.3,358.3z"/>
<path class="st1" d="M461.2,462.8c3.5-2,6.9-4,10.4-5.9c-3.5-2-6.9-4-10.4-6L461.2,462.8z"/>
<path class="st3" d="M461.2,462.8c3.5-2,6.9-4,10.4-5.9c-3.5-2-6.9-4-10.4-6L461.2,462.8z"/>
<path class="st1" d="M311.6,463.6c0,18.3,0,36.6,0,54.8c1.3,0.8,2.6,1.5,4,2.3v-54.8C314.2,465.1,312.9,464.4,311.6,463.6"/>
<path class="st3" d="M311.6,463.6c0,18.3,0,36.6,0,54.8c1.3,0.8,2.6,1.5,4,2.3v-54.8C314.2,465.1,312.9,464.4,311.6,463.6z"/>
<path class="st1" d="M315.5,465.9c1.3-0.8,2.6-1.5,4-2.3c0,18.3,0,36.6,0,54.8c-1.3,0.8-2.6,1.5-4,2.3V465.9z"/>
<path class="st3" d="M315.5,465.9c1.3-0.8,2.6-1.5,4-2.3c0,18.3,0,36.6,0,54.8c-1.3,0.8-2.6,1.5-4,2.3V465.9z"/>
<path class="st1" d="M311.6,463.6c1.3-0.8,2.6-1.5,4-2.3c1.3,0.8,2.6,1.5,4,2.3c-1.3,0.8-2.6,1.5-4,2.3
	C314.2,465.1,312.9,464.4,311.6,463.6"/>
<path class="st3" d="M311.6,463.6c1.3-0.8,2.6-1.5,4-2.3c1.3,0.8,2.6,1.5,4,2.3c-1.3,0.8-2.6,1.5-4,2.3
	C314.2,465.1,312.9,464.4,311.6,463.6z"/>
<path class="st1" d="M350.8,486.2c0,18.3,0,36.6,0,54.8c1.3,0.8,2.6,1.5,4,2.3v-54.8C353.4,487.8,352.1,487,350.8,486.2"/>
<path class="st3" d="M350.8,486.2c0,18.3,0,36.6,0,54.8c1.3,0.8,2.6,1.5,4,2.3v-54.8C353.4,487.8,352.1,487,350.8,486.2z"/>
<path class="st1" d="M354.7,488.5c1.3-0.8,2.6-1.5,4-2.3c0,18.3,0,36.6,0,54.8c-1.3,0.8-2.6,1.5-4,2.3V488.5z"/>
<path class="st3" d="M354.7,488.5c1.3-0.8,2.6-1.5,4-2.3c0,18.3,0,36.6,0,54.8c-1.3,0.8-2.6,1.5-4,2.3V488.5z"/>
<path class="st1" d="M350.8,486.2c1.3-0.8,2.6-1.5,4-2.3c1.3,0.8,2.6,1.5,4,2.3c-1.3,0.8-2.6,1.5-4,2.3
	C353.4,487.8,352.1,487,350.8,486.2"/>
<path class="st3" d="M350.8,486.2c1.3-0.8,2.6-1.5,4-2.3c1.3,0.8,2.6,1.5,4,2.3c-1.3,0.8-2.6,1.5-4,2.3
	C353.4,487.8,352.1,487,350.8,486.2z"/>
<path class="st1" d="M380.7,423.8c0,18.3,0,36.6,0,54.8c1.3,0.8,2.6,1.5,4,2.3V426C383.3,425.3,382,424.5,380.7,423.8"/>
<path class="st3" d="M380.7,423.8c0,18.3,0,36.6,0,54.8c1.3,0.8,2.6,1.5,4,2.3V426C383.3,425.3,382,424.5,380.7,423.8z"/>
<path class="st1" d="M384.7,426c1.3-0.8,2.6-1.5,4-2.3c0,18.3,0,36.6,0,54.8c-1.3,0.8-2.6,1.5-4,2.3V426z"/>
<path class="st3" d="M384.7,426c1.3-0.8,2.6-1.5,4-2.3c0,18.3,0,36.6,0,54.8c-1.3,0.8-2.6,1.5-4,2.3V426z"/>
<path class="st1" d="M380.7,423.8c1.3-0.8,2.6-1.5,4-2.3c1.3,0.8,2.6,1.5,4,2.3c-1.3,0.8-2.6,1.5-4,2.3
	C383.3,425.3,382,424.5,380.7,423.8"/>
<path class="st3" d="M380.7,423.8c1.3-0.8,2.6-1.5,4-2.3c1.3,0.8,2.6,1.5,4,2.3c-1.3,0.8-2.6,1.5-4,2.3
	C383.3,425.3,382,424.5,380.7,423.8z"/>
<path class="st1" d="M419.9,446.4c0,18.3,0,36.6,0,54.8c1.3,0.8,2.6,1.5,4,2.3v-54.8C422.6,447.9,421.3,447.2,419.9,446.4"/>
<path class="st3" d="M419.9,446.4c0,18.3,0,36.6,0,54.8c1.3,0.8,2.6,1.5,4,2.3v-54.8C422.6,447.9,421.3,447.2,419.9,446.4z"/>
<path class="st1" d="M423.9,448.7c1.3-0.8,2.6-1.5,4-2.3c0,18.3,0,36.6,0,54.8c-1.3,0.8-2.6,1.5-4,2.3V448.7z"/>
<path class="st3" d="M423.9,448.7c1.3-0.8,2.6-1.5,4-2.3c0,18.3,0,36.6,0,54.8c-1.3,0.8-2.6,1.5-4,2.3V448.7z"/>
<path class="st1" d="M419.9,446.4c1.3-0.8,2.6-1.5,4-2.3c1.3,0.8,2.6,1.5,4,2.3c-1.3,0.8-2.6,1.5-4,2.3
	C422.6,447.9,421.3,447.2,419.9,446.4"/>
<path class="st3" d="M419.9,446.4c1.3-0.8,2.6-1.5,4-2.3c1.3,0.8,2.6,1.5,4,2.3c-1.3,0.8-2.6,1.5-4,2.3
	C422.6,447.9,421.3,447.2,419.9,446.4z"/>
<path class="st1" d="M297.1,463.8c0,1.1,0,2.3,0,3.4c18.6,10.8,37.3,21.5,55.9,32.3c0-1.1,0-2.3,0-3.4
	C334.4,485.3,315.8,474.6,297.1,463.8"/>
<path class="st3" d="M297.1,463.8c0,1.1,0,2.3,0,3.4c18.6,10.8,37.3,21.5,55.9,32.3c0-1.1,0-2.3,0-3.4
	C334.4,485.3,315.8,474.6,297.1,463.8z"/>
<path class="st1" d="M297.1,463.8c29.4-17,58.9-34,88.3-51c18.6,10.8,37.3,21.5,55.9,32.3c-29.4,17-58.9,34-88.3,51
	C334.4,485.3,315.8,474.6,297.1,463.8"/>
<path class="st3" d="M297.1,463.8c29.4-17,58.9-34,88.3-51c18.6,10.8,37.3,21.5,55.9,32.3c-29.4,17-58.9,34-88.3,51
	C334.4,485.3,315.8,474.6,297.1,463.8z"/>
<path class="st1" d="M353.1,499.5c29.4-17,58.9-34,88.3-51l0-3.4c-29.4,17-58.9,34-88.3,51C353.1,497.2,353.1,498.4,353.1,499.5"/>
<path class="st3" d="M353.1,499.5c29.4-17,58.9-34,88.3-51l0-3.4c-29.4,17-58.9,34-88.3,51C353.1,497.2,353.1,498.4,353.1,499.5z"/>
<path class="st1" d="M399.6,490.9c0,9.3,0,18.7,0.1,28l-1.7-1.1c-0.1-9-0.1-18-0.2-26.9C398.4,490.9,399,490.9,399.6,490.9"/>
<path class="st3" d="M399.6,490.9c0,9.3,0,18.7,0.1,28l-1.7-1.1c-0.1-9-0.1-18-0.2-26.9C398.4,490.9,399,490.9,399.6,490.9z"/>
<path class="st1" d="M399.6,518.9c0.6-0.3,1.2-0.7,1.8-1c0-9,0-18,0.1-27c-0.6,0-1.3,0-1.9,0C399.6,500.2,399.6,509.6,399.6,518.9"
	/>
<path class="st3" d="M399.6,518.9c0.6-0.3,1.2-0.7,1.8-1c0-9,0-18,0.1-27c-0.6,0-1.3,0-1.9,0C399.6,500.2,399.6,509.6,399.6,518.9z"
	/>
<path class="st1" d="M416.7,499.5c0,9.3,0,18.7,0.1,28l-1.7-1.1c-0.1-9-0.1-18-0.2-26.9C415.5,499.5,416.1,499.5,416.7,499.5"/>
<path class="st3" d="M416.7,499.5c0,9.3,0,18.7,0.1,28l-1.7-1.1c-0.1-9-0.1-18-0.2-26.9C415.5,499.5,416.1,499.5,416.7,499.5z"/>
<path class="st1" d="M416.8,527.5c0.6-0.3,1.2-0.7,1.8-1c0-9,0-18,0.1-27c-0.6,0-1.3,0-1.9,0C416.7,508.8,416.8,518.2,416.8,527.5"
	/>
<path class="st3" d="M416.8,527.5c0.6-0.3,1.2-0.7,1.8-1c0-9,0-18,0.1-27c-0.6,0-1.3,0-1.9,0C416.7,508.8,416.8,518.2,416.8,527.5z"
	/>
<path class="st1" d="M433.8,490.9c0,9.3,0,18.7,0.1,28l-1.7-1.1c-0.1-9-0.1-18-0.2-26.9C432.6,490.9,433.2,490.9,433.8,490.9"/>
<path class="st3" d="M433.8,490.9c0,9.3,0,18.7,0.1,28l-1.7-1.1c-0.1-9-0.1-18-0.2-26.9C432.6,490.9,433.2,490.9,433.8,490.9z"/>
<path class="st1" d="M433.9,518.9c0.6-0.3,1.2-0.7,1.8-1c0-9,0-18,0.1-27c-0.6,0-1.3,0-1.9,0C433.9,500.2,433.9,509.6,433.9,518.9"
	/>
<path class="st3" d="M433.9,518.9c0.6-0.3,1.2-0.7,1.8-1c0-9,0-18,0.1-27c-0.6,0-1.3,0-1.9,0C433.9,500.2,433.9,509.6,433.9,518.9z"
	/>
<path class="st1" d="M438.1,492.4l-21.4-12.3c-7.1,4.1-14.3,8.2-21.4,12.3c7.1,4.1,14.3,8.2,21.4,12.3
	C423.9,500.7,431,496.6,438.1,492.4"/>
<path class="st3" d="M438.1,492.4l-21.4-12.3c-7.1,4.1-14.3,8.2-21.4,12.3c7.1,4.1,14.3,8.2,21.4,12.3
	C423.9,500.7,431,496.6,438.1,492.4z"/>
<path class="st1" d="M395.4,492.5c0,0.8,0,1.7,0,2.5c7.1,4.1,14.3,8.2,21.4,12.3v-2.5C409.6,500.7,402.5,496.6,395.4,492.5"/>
<path class="st3" d="M395.4,492.5c0,0.8,0,1.7,0,2.5c7.1,4.1,14.3,8.2,21.4,12.3v-2.5C409.6,500.7,402.5,496.6,395.4,492.5z"/>
<path class="st1" d="M416.8,507.3c7.1-4.1,14.3-8.3,21.4-12.4c0-0.8,0-1.7,0-2.5c-7.1,4.1-14.3,8.3-21.4,12.4V507.3z"/>
<path class="st3" d="M416.8,507.3c7.1-4.1,14.3-8.3,21.4-12.4c0-0.8,0-1.7,0-2.5c-7.1,4.1-14.3,8.3-21.4,12.4V507.3z"/>
<path class="st1" d="M416.8,504.8l4.3-27.2c0.7-0.4,1.5-0.9,2.2-1.3c-1.4,9.1-2.9,18.1-4.3,27.2C418.2,504,417.5,504.4,416.8,504.8"
	/>
<path class="st3" d="M416.8,504.8l4.3-27.2c0.7-0.4,1.5-0.9,2.2-1.3c-1.4,9.1-2.9,18.1-4.3,27.2C418.2,504,417.5,504.4,416.8,504.8z
	"/>
<path class="st1" d="M416.8,504.8c-0.3-0.2-0.6-0.4-1-0.6c1.4-9,2.8-18.1,4.3-27.1c0.3,0.2,0.6,0.4,1,0.6L416.8,504.8z"/>
<path class="st3" d="M416.8,504.8c-0.3-0.2-0.6-0.4-1-0.6c1.4-9,2.8-18.1,4.3-27.1c0.3,0.2,0.6,0.4,1,0.6L416.8,504.8z"/>
<path class="st1" d="M420.1,477.1c0.3,0.2,0.6,0.4,1,0.6c0.7-0.4,1.5-0.9,2.2-1.3c-0.3-0.2-0.7-0.4-1-0.5
	C421.5,476.3,420.8,476.7,420.1,477.1"/>
<path class="st3" d="M420.1,477.1c0.3,0.2,0.6,0.4,1,0.6c0.7-0.4,1.5-0.9,2.2-1.3c-0.3-0.2-0.7-0.4-1-0.5
	C421.5,476.3,420.8,476.7,420.1,477.1z"/>
<path class="st1" d="M436,493.8l4.3-27.2c0.7-0.4,1.5-0.9,2.2-1.3c-1.4,9.1-2.9,18.1-4.3,27.2C437.4,492.9,436.7,493.4,436,493.8"/>
<path class="st3" d="M436,493.8l4.3-27.2c0.7-0.4,1.5-0.9,2.2-1.3c-1.4,9.1-2.9,18.1-4.3,27.2C437.4,492.9,436.7,493.4,436,493.8z"
	/>
<path class="st1" d="M436,493.8c-0.3-0.2-0.6-0.4-1-0.6c1.4-9,2.8-18.1,4.3-27.1c0.3,0.2,0.6,0.4,1,0.6L436,493.8z"/>
<path class="st3" d="M436,493.8c-0.3-0.2-0.6-0.4-1-0.6c1.4-9,2.8-18.1,4.3-27.1c0.3,0.2,0.6,0.4,1,0.6L436,493.8z"/>
<path class="st1" d="M439.3,466.1c0.3,0.2,0.6,0.4,1,0.6c0.7-0.4,1.5-0.9,2.2-1.3l-1-0.5C440.7,465.2,440,465.6,439.3,466.1"/>
<path class="st3" d="M439.3,466.1c0.3,0.2,0.6,0.4,1,0.6c0.7-0.4,1.5-0.9,2.2-1.3l-1-0.5C440.7,465.2,440,465.6,439.3,466.1z"/>
<path class="st1" d="M423.3,476.4c5.7-3.3,11.3-6.5,17-9.8c-0.3,1.8-0.6,3.6-0.9,5.4c-5.7,3.3-11.3,6.5-17,9.8
	C422.7,480,423,478.2,423.3,476.4"/>
<path class="st3" d="M423.3,476.4c5.7-3.3,11.3-6.5,17-9.8c-0.3,1.8-0.6,3.6-0.9,5.4c-5.7,3.3-11.3,6.5-17,9.8
	C422.7,480,423,478.2,423.3,476.4z"/>
<path class="st1" d="M422.1,483.9c-0.1,0.6-0.2,1.3-0.3,1.9c5.7-3.2,11.3-6.5,17-9.7c0.1-0.6,0.2-1.3,0.3-1.9
	C433.4,477.4,427.7,480.6,422.1,483.9"/>
<path class="st3" d="M422.1,483.9c-0.1,0.6-0.2,1.3-0.3,1.9c5.7-3.2,11.3-6.5,17-9.7c0.1-0.6,0.2-1.3,0.3-1.9
	C433.4,477.4,427.7,480.6,422.1,483.9z"/>
<path class="st1" d="M422.2,475.8c5.7-3.3,11.4-6.5,17-9.8c0.3,0.2,0.7,0.4,1,0.6l-17.8,10.3L422.2,475.8z"/>
<path class="st3" d="M422.2,475.8c5.7-3.3,11.4-6.5,17-9.8c0.3,0.2,0.7,0.4,1,0.6l-17.8,10.3L422.2,475.8z"/>
<path class="st1" d="M439,474.2l-1-0.5c-5.3,3-10.5,6.1-15.8,9.1c-0.1,0.4-0.1,0.8-0.2,1.2C427.7,480.7,433.4,477.4,439,474.2"/>
<path class="st3" d="M439,474.2l-1-0.5c-5.3,3-10.5,6.1-15.8,9.1c-0.1,0.4-0.1,0.8-0.2,1.2C427.7,480.7,433.4,477.4,439,474.2z"/>
<path class="st1" d="M370.6,509.5c0,9.3,0,18.7,0.1,28l-1.7-1.1l-0.2-26.9C369.4,509.5,370,509.5,370.6,509.5"/>
<path class="st3" d="M370.6,509.5c0,9.3,0,18.7,0.1,28l-1.7-1.1l-0.2-26.9C369.4,509.5,370,509.5,370.6,509.5z"/>
<path class="st1" d="M370.7,537.6c0.6-0.3,1.2-0.7,1.8-1c0-9,0-18,0.1-27c-0.6,0-1.3,0-1.9,0C370.6,518.9,370.6,528.2,370.7,537.6"
	/>
<path class="st3" d="M370.7,537.6c0.6-0.3,1.2-0.7,1.8-1c0-9,0-18,0.1-27c-0.6,0-1.3,0-1.9,0C370.6,518.9,370.6,528.2,370.7,537.6z"
	/>
<path class="st1" d="M387.7,518.1c0,9.3,0,18.7,0.1,28c-0.6-0.4-1.1-0.7-1.7-1.1c-0.1-9-0.1-18-0.2-26.9
	C386.5,518.1,387.1,518.1,387.7,518.1"/>
<path class="st3" d="M387.7,518.1c0,9.3,0,18.7,0.1,28c-0.6-0.4-1.1-0.7-1.7-1.1c-0.1-9-0.1-18-0.2-26.9
	C386.5,518.1,387.1,518.1,387.7,518.1z"/>
<path class="st1" d="M387.8,546.2c0.6-0.3,1.2-0.7,1.8-1c0-9,0-18,0.1-27c-0.6,0-1.3,0-1.9,0C387.8,527.5,387.8,536.8,387.8,546.2"
	/>
<path class="st3" d="M387.8,546.2c0.6-0.3,1.2-0.7,1.8-1c0-9,0-18,0.1-27c-0.6,0-1.3,0-1.9,0C387.8,527.5,387.8,536.8,387.8,546.2z"
	/>
<path class="st1" d="M404.9,509.5c0,9.3,0,18.7,0.1,28c-0.6-0.4-1.1-0.7-1.7-1.1c-0.1-9-0.1-18-0.2-26.9
	C403.6,509.5,404.2,509.5,404.9,509.5"/>
<path class="st3" d="M404.9,509.5c0,9.3,0,18.7,0.1,28c-0.6-0.4-1.1-0.7-1.7-1.1c-0.1-9-0.1-18-0.2-26.9
	C403.6,509.5,404.2,509.5,404.9,509.5z"/>
<path class="st1" d="M404.9,537.6c0.6-0.3,1.2-0.7,1.8-1c0-9,0-18,0.1-27c-0.6,0-1.3,0-1.9,0C404.9,518.9,404.9,528.2,404.9,537.6"
	/>
<path class="st3" d="M404.9,537.6c0.6-0.3,1.2-0.7,1.8-1c0-9,0-18,0.1-27c-0.6,0-1.3,0-1.9,0C404.9,518.9,404.9,528.2,404.9,537.6z"
	/>
<path class="st1" d="M409.2,511.1c-7.1-4.1-14.3-8.2-21.4-12.3c-7.1,4.1-14.3,8.2-21.4,12.3c7.1,4.1,14.3,8.2,21.4,12.3
	C394.9,519.3,402,515.2,409.2,511.1"/>
<path class="st3" d="M409.2,511.1c-7.1-4.1-14.3-8.2-21.4-12.3c-7.1,4.1-14.3,8.2-21.4,12.3c7.1,4.1,14.3,8.2,21.4,12.3
	C394.9,519.3,402,515.2,409.2,511.1z"/>
<path class="st1" d="M366.4,511.1c0,0.8,0,1.7,0,2.5c7.1,4.1,14.3,8.2,21.4,12.3v-2.5C380.6,519.4,373.5,515.2,366.4,511.1"/>
<path class="st3" d="M366.4,511.1c0,0.8,0,1.7,0,2.5c7.1,4.1,14.3,8.2,21.4,12.3v-2.5C380.6,519.4,373.5,515.2,366.4,511.1z"/>
<path class="st1" d="M387.8,525.9c7.1-4.1,14.3-8.3,21.4-12.4c0-0.8,0-1.7,0-2.5c-7.1,4.1-14.3,8.3-21.4,12.4V525.9z"/>
<path class="st3" d="M387.8,525.9c7.1-4.1,14.3-8.3,21.4-12.4c0-0.8,0-1.7,0-2.5c-7.1,4.1-14.3,8.3-21.4,12.4V525.9z"/>
<path class="st1" d="M387.8,523.5l4.3-27.2c0.7-0.4,1.5-0.9,2.2-1.3c-1.4,9.1-2.9,18.1-4.3,27.2C389.2,522.6,388.5,523,387.8,523.5"
	/>
<path class="st3" d="M387.8,523.5l4.3-27.2c0.7-0.4,1.5-0.9,2.2-1.3c-1.4,9.1-2.9,18.1-4.3,27.2C389.2,522.6,388.5,523,387.8,523.5z
	"/>
<path class="st1" d="M387.8,523.5c-0.3-0.2-0.6-0.4-1-0.6c1.4-9,2.8-18.1,4.3-27.1c0.3,0.2,0.6,0.4,1,0.6L387.8,523.5z"/>
<path class="st3" d="M387.8,523.5c-0.3-0.2-0.6-0.4-1-0.6c1.4-9,2.8-18.1,4.3-27.1c0.3,0.2,0.6,0.4,1,0.6L387.8,523.5z"/>
<path class="st1" d="M391.1,495.7c0.3,0.2,0.6,0.4,1,0.6c0.7-0.4,1.5-0.9,2.2-1.3c-0.3-0.2-0.7-0.4-1-0.5
	C392.5,494.9,391.8,495.3,391.1,495.7"/>
<path class="st3" d="M391.1,495.7c0.3,0.2,0.6,0.4,1,0.6c0.7-0.4,1.5-0.9,2.2-1.3c-0.3-0.2-0.7-0.4-1-0.5
	C392.5,494.9,391.8,495.3,391.1,495.7z"/>
<path class="st1" d="M407,512.4c1.4-9.1,2.9-18.1,4.3-27.2c0.7-0.4,1.5-0.9,2.2-1.3c-1.4,9.1-2.9,18.1-4.3,27.2
	C408.4,511.6,407.7,512,407,512.4"/>
<path class="st3" d="M407,512.4c1.4-9.1,2.9-18.1,4.3-27.2c0.7-0.4,1.5-0.9,2.2-1.3c-1.4,9.1-2.9,18.1-4.3,27.2
	C408.4,511.6,407.7,512,407,512.4z"/>
<path class="st1" d="M407,512.4c-0.3-0.2-0.6-0.4-1-0.6c1.4-9,2.8-18.1,4.3-27.1c0.3,0.2,0.6,0.4,1,0.6
	C409.8,494.3,408.4,503.4,407,512.4"/>
<path class="st3" d="M407,512.4c-0.3-0.2-0.6-0.4-1-0.6c1.4-9,2.8-18.1,4.3-27.1c0.3,0.2,0.6,0.4,1,0.6
	C409.8,494.3,408.4,503.4,407,512.4z"/>
<path class="st1" d="M410.3,484.7c0.3,0.2,0.6,0.4,1,0.6c0.7-0.4,1.5-0.9,2.2-1.3c-0.3-0.2-0.7-0.4-1-0.5
	C411.7,483.8,411,484.3,410.3,484.7"/>
<path class="st3" d="M410.3,484.7c0.3,0.2,0.6,0.4,1,0.6c0.7-0.4,1.5-0.9,2.2-1.3c-0.3-0.2-0.7-0.4-1-0.5
	C411.7,483.8,411,484.3,410.3,484.7z"/>
<path class="st1" d="M394.3,495c5.7-3.3,11.3-6.5,17-9.8c-0.3,1.8-0.6,3.6-0.9,5.4c-5.7,3.3-11.3,6.5-17,9.8
	C393.7,498.6,394,496.8,394.3,495"/>
<path class="st3" d="M394.3,495c5.7-3.3,11.3-6.5,17-9.8c-0.3,1.8-0.6,3.6-0.9,5.4c-5.7,3.3-11.3,6.5-17,9.8
	C393.7,498.6,394,496.8,394.3,495z"/>
<path class="st1" d="M393.1,502.5c-0.1,0.6-0.2,1.3-0.3,1.9c5.7-3.2,11.3-6.5,17-9.7c0.1-0.6,0.2-1.3,0.3-1.9
	C404.4,496,398.7,499.3,393.1,502.5"/>
<path class="st3" d="M393.1,502.5c-0.1,0.6-0.2,1.3-0.3,1.9c5.7-3.2,11.3-6.5,17-9.7c0.1-0.6,0.2-1.3,0.3-1.9
	C404.4,496,398.7,499.3,393.1,502.5z"/>
<path class="st1" d="M393.2,494.5c5.7-3.3,11.4-6.5,17-9.8c0.3,0.2,0.6,0.4,1,0.6l-17.8,10.3C393.4,495.2,393.3,494.8,393.2,494.5"
	/>
<path class="st3" d="M393.2,494.5c5.7-3.3,11.4-6.5,17-9.8c0.3,0.2,0.6,0.4,1,0.6l-17.8,10.3C393.4,495.2,393.3,494.8,393.2,494.5z"
	/>
<path class="st1" d="M410.1,492.8l-1-0.5c-5.3,3-10.5,6.1-15.8,9.1c-0.1,0.4-0.1,0.8-0.2,1.2C398.7,499.3,404.4,496.1,410.1,492.8"
	/>
<path class="st3" d="M410.1,492.8l-1-0.5c-5.3,3-10.5,6.1-15.8,9.1c-0.1,0.4-0.1,0.8-0.2,1.2C398.7,499.3,404.4,496.1,410.1,492.8z"
	/>
<path class="st1" d="M385.2,348c-7.5-4.4-15.1-8.7-22.6-13.1v35.9c7.5,4.4,15.1,8.7,22.6,13.1C385.2,371.9,385.2,360,385.2,348"/>
<path class="st3" d="M385.2,348c-7.5-4.4-15.1-8.7-22.6-13.1v35.9c7.5,4.4,15.1,8.7,22.6,13.1C385.2,371.9,385.2,360,385.2,348z"/>
<path class="st1" d="M379.5,351.3L379.5,351.3c7.5-4.4,20.8-12,28.3-16.4c0,12,0,23.9,0,35.9c-5.9,3.4-15.2,8.8-22.6,13.1v0
	L362.6,397c0-12,0-23.9,0-35.9C368.2,357.8,373.8,354.6,379.5,351.3"/>
<path class="st3" d="M379.5,351.3L379.5,351.3c7.5-4.4,20.8-12,28.3-16.4c0,12,0,23.9,0,35.9c-5.9,3.4-15.2,8.8-22.6,13.1v0
	L362.6,397c0-12,0-23.9,0-35.9C368.2,357.8,373.8,354.6,379.5,351.3z"/>
<path class="st1" d="M362.6,361.1c-7.5-4.4-15.1-8.7-22.6-13.1V384l22.6,13.1C362.6,385,362.6,373.1,362.6,361.1"/>
<path class="st3" d="M362.6,361.1c-7.5-4.4-15.1-8.7-22.6-13.1V384l22.6,13.1C362.6,385,362.6,373.1,362.6,361.1z"/>
<path class="st1" d="M365.4,392.1v-29.4l39.6-22.9c0,9.8,0,19.6,0,29.4L365.4,392.1z"/>
<path class="st3" d="M365.4,392.1v-29.4l39.6-22.9c0,9.8,0,19.6,0,29.4L365.4,392.1z"/>
<path class="st1" d="M362.6,335C362.6,335,362.6,335,362.6,335c7.5-4.4,15-8.7,22.6-13.1c7.5,4.4,15.1,8.7,22.6,13.1
	c-5.3,3.1-10.6,6.1-16,9.2c0,0,0,0,0.1,0c-7.5,4.4-21.8,12.5-29.3,16.9c-7.5-4.4-15.1-8.7-22.6-13.1
	C345.6,344.8,355.1,339.3,362.6,335"/>
<path class="st3" d="M362.6,335C362.6,335,362.6,335,362.6,335c7.5-4.4,15-8.7,22.6-13.1c7.5,4.4,15.1,8.7,22.6,13.1
	c-5.3,3.1-10.6,6.1-16,9.2c0,0,0,0,0.1,0c-7.5,4.4-21.8,12.5-29.3,16.9c-7.5-4.4-15.1-8.7-22.6-13.1
	C345.6,344.8,355.1,339.3,362.6,335z"/>
<path class="st1" d="M366,370.9c13.2-7.5,25.8-14.6,39-22.1"/>
<path class="st3" d="M366,370.9c13.2-7.5,25.8-14.6,39-22.1"/>
<path class="st1" d="M366,381.1c13.2-7.5,25.8-14.6,39-22.1"/>
<path class="st3" d="M366,381.1c13.2-7.5,25.8-14.6,39-22.1"/>
<path class="st1" d="M377.2,359.9c5.6-3.3,11.2-6.5,16.8-9.8c0,0.4,0,0.7,0,1.1c-5.6,3.2-11.2,6.5-16.8,9.7
	C377.2,360.5,377.2,360.2,377.2,359.9"/>
<path class="st3" d="M377.2,359.9c5.6-3.3,11.2-6.5,16.8-9.8c0,0.4,0,0.7,0,1.1c-5.6,3.2-11.2,6.5-16.8,9.7
	C377.2,360.5,377.2,360.2,377.2,359.9z"/>
<path class="st1" d="M394,350.1c-0.1-0.1-0.3-0.2-0.4-0.2c-5.6,3.2-11.2,6.5-16.9,9.7c0.2,0.1,0.3,0.2,0.5,0.3
	C382.8,356.6,388.4,353.4,394,350.1"/>
<path class="st3" d="M394,350.1c-0.1-0.1-0.3-0.2-0.4-0.2c-5.6,3.2-11.2,6.5-16.9,9.7c0.2,0.1,0.3,0.2,0.5,0.3
	C382.8,356.6,388.4,353.4,394,350.1z"/>
<path class="st1" d="M376.8,359.6c0,0.3,0,0.7,0,1c0.1,0.1,0.3,0.2,0.4,0.2c0-0.3,0-0.7,0-1C377,359.8,376.9,359.7,376.8,359.6"/>
<path class="st3" d="M376.8,359.6c0,0.3,0,0.7,0,1c0.1,0.1,0.3,0.2,0.4,0.2c0-0.3,0-0.7,0-1C377,359.8,376.9,359.7,376.8,359.6z"/>
<path class="st1" d="M377.3,369.9c5.6-3.3,11.2-6.5,16.8-9.8c0,0.4,0,0.7,0,1.1c-5.6,3.2-11.2,6.5-16.8,9.7
	C377.3,370.6,377.3,370.2,377.3,369.9"/>
<path class="st3" d="M377.3,369.9c5.6-3.3,11.2-6.5,16.8-9.8c0,0.4,0,0.7,0,1.1c-5.6,3.2-11.2,6.5-16.8,9.7
	C377.3,370.6,377.3,370.2,377.3,369.9z"/>
<path class="st1" d="M394.1,360.1c-0.1-0.1-0.3-0.2-0.4-0.2c-5.6,3.2-11.2,6.5-16.9,9.7c0.2,0.1,0.3,0.2,0.5,0.3
	C382.9,366.6,388.5,363.4,394.1,360.1"/>
<path class="st3" d="M394.1,360.1c-0.1-0.1-0.3-0.2-0.4-0.2c-5.6,3.2-11.2,6.5-16.9,9.7c0.2,0.1,0.3,0.2,0.5,0.3
	C382.9,366.6,388.5,363.4,394.1,360.1z"/>
<path class="st1" d="M376.9,369.7c0,0.3,0,0.7,0,1c0.1,0.1,0.3,0.2,0.4,0.2c0-0.3,0-0.7,0-1C377.1,369.8,377,369.7,376.9,369.7"/>
<path class="st3" d="M376.9,369.7c0,0.3,0,0.7,0,1c0.1,0.1,0.3,0.2,0.4,0.2c0-0.3,0-0.7,0-1C377.1,369.8,377,369.7,376.9,369.7z"/>
<path class="st1" d="M377.3,379.7c5.6-3.3,11.2-6.5,16.8-9.8l0,1.1l-16.8,9.7C377.3,380.3,377.3,380,377.3,379.7"/>
<path class="st3" d="M377.3,379.7c5.6-3.3,11.2-6.5,16.8-9.8l0,1.1l-16.8,9.7C377.3,380.3,377.3,380,377.3,379.7z"/>
<path class="st1" d="M394.1,369.9c-0.1-0.1-0.3-0.2-0.4-0.2c-5.6,3.2-11.2,6.5-16.9,9.7c0.2,0.1,0.3,0.2,0.5,0.3
	C382.9,376.4,388.5,373.2,394.1,369.9"/>
<path class="st3" d="M394.1,369.9c-0.1-0.1-0.3-0.2-0.4-0.2c-5.6,3.2-11.2,6.5-16.9,9.7c0.2,0.1,0.3,0.2,0.5,0.3
	C382.9,376.4,388.5,373.2,394.1,369.9z"/>
<path class="st1" d="M376.9,379.4c0,0.3,0,0.7,0,1c0.1,0.1,0.3,0.2,0.4,0.2c0-0.3,0-0.7,0-1C377.1,379.6,377,379.5,376.9,379.4"/>
<path class="st3" d="M376.9,379.4c0,0.3,0,0.7,0,1c0.1,0.1,0.3,0.2,0.4,0.2c0-0.3,0-0.7,0-1C377.1,379.6,377,379.5,376.9,379.4z"/>
<path class="st1" d="M407,248.5v61c-24.5,14.1-48.9,28.2-73.4,42.4v-61C358.1,276.7,382.6,262.6,407,248.5"/>
<path class="st3" d="M407,248.5v61c-24.5,14.1-48.9,28.2-73.4,42.4v-61C358.1,276.7,382.6,262.6,407,248.5z"/>
<path class="st1" d="M407,248.5c-1-0.6-2-1.1-2.9-1.7l-73.4,42.4c1,0.6,2,1.1,2.9,1.7C358.1,276.7,382.6,262.6,407,248.5"/>
<path class="st3" d="M407,248.5c-1-0.6-2-1.1-2.9-1.7l-73.4,42.4c1,0.6,2,1.1,2.9,1.7C358.1,276.7,382.6,262.6,407,248.5z"/>
<path class="st1" d="M330.7,350.1c0-20.3,0-40.7,0-61c1,0.6,2,1.1,2.9,1.7v61C332.7,351.2,331.7,350.7,330.7,350.1"/>
<path class="st3" d="M330.7,350.1c0-20.3,0-40.7,0-61c1,0.6,2,1.1,2.9,1.7v61C332.7,351.2,331.7,350.7,330.7,350.1z"/>
<path class="st1" d="M404.1,253.5v50.8c-22.5,13-45,26-67.5,39v-50.8C359.1,279.5,381.6,266.5,404.1,253.5"/>
<path class="st3" d="M404.1,253.5v50.8c-22.5,13-45,26-67.5,39v-50.8C359.1,279.5,381.6,266.5,404.1,253.5z"/>
<path class="st1" d="M404.1,304.4c-0.3-0.2-0.6-0.3-0.9-0.5V254c0.3-0.2,0.6-0.3,0.9-0.5V304.4z"/>
<path class="st3" d="M404.1,304.4c-0.3-0.2-0.6-0.3-0.9-0.5V254c0.3-0.2,0.6-0.3,0.9-0.5V304.4z"/>
<path class="st1" d="M403.2,303.9l-66.6,38.5c0,0.3,0,0.6,0,0.9c22.5-13,45-26,67.5-39C403.8,304.2,403.5,304,403.2,303.9"/>
<path class="st3" d="M403.2,303.9l-66.6,38.5c0,0.3,0,0.6,0,0.9c22.5-13,45-26,67.5-39C403.8,304.2,403.5,304,403.2,303.9z"/>
<path class="st1" d="M380.6,324.7v10.2c-4.9,2.8-9.8,5.6-14.7,8.5v-10.2C370.8,330.3,375.7,327.5,380.6,324.7"/>
<path class="st3" d="M380.6,324.7v10.2c-4.9,2.8-9.8,5.6-14.7,8.5v-10.2C370.8,330.3,375.7,327.5,380.6,324.7z"/>
<path class="st1" d="M365.9,343.3c-1-0.6-2-1.1-2.9-1.7c0-2.3,0-4.5,0-6.8c1-0.6,2-1.1,2.9-1.7V343.3z"/>
<path class="st3" d="M365.9,343.3c-1-0.6-2-1.1-2.9-1.7c0-2.3,0-4.5,0-6.8c1-0.6,2-1.1,2.9-1.7V343.3z"/>
<path class="st1" d="M380.6,331.5c2,1.1,4,2.2,5.9,3.3c-6.9,4-13.7,8-20.6,11.9c-2-1.1-3.9-2.3-5.9-3.4c1.1-0.6,2.1-1.2,3.2-1.8
	c0.9,0.6,1.9,1.2,2.8,1.8c4.9-2.8,9.8-5.6,14.6-8.5L380.6,331.5z"/>
<path class="st3" d="M380.6,331.5c2,1.1,4,2.2,5.9,3.3c-6.9,4-13.7,8-20.6,11.9c-2-1.1-3.9-2.3-5.9-3.4c1.1-0.6,2.1-1.2,3.2-1.8
	c0.9,0.6,1.9,1.2,2.8,1.8c4.9-2.8,9.8-5.6,14.6-8.5L380.6,331.5z"/>
<path class="st1" d="M386.5,334.8c0,1.2-0.1,2.3-0.1,3.5c-6.8,4-13.7,7.9-20.5,11.9c0-1.1,0-2.3,0-3.4
	C372.8,342.7,379.7,338.8,386.5,334.8"/>
<path class="st3" d="M386.5,334.8c0,1.2-0.1,2.3-0.1,3.5c-6.8,4-13.7,7.9-20.5,11.9c0-1.1,0-2.3,0-3.4
	C372.8,342.7,379.7,338.8,386.5,334.8z"/>
<path class="st1" d="M360,343.3c0,1.1,0,2.3,0,3.4c2,1.1,3.9,2.3,5.9,3.4c0-1.1,0-2.3,0-3.4C364,345.6,362,344.5,360,343.3"/>
<path class="st3" d="M360,343.3c0,1.1,0,2.3,0,3.4c2,1.1,3.9,2.3,5.9,3.4c0-1.1,0-2.3,0-3.4C364,345.6,362,344.5,360,343.3z"/>
<path class="st1" d="M525.5,209.2v135.4c-11.9,6.9-23.9,13.8-35.8,20.7V229.9C501.6,223,513.6,216.1,525.5,209.2"/>
<path class="st3" d="M525.5,209.2v135.4c-11.9,6.9-23.9,13.8-35.8,20.7V229.9C501.6,223,513.6,216.1,525.5,209.2z"/>
<path class="st1" d="M525.5,209.2c-19.5-11.3-39.1-22.6-58.6-33.8c-11.9,6.9-23.9,13.8-35.8,20.7c19.5,11.3,39.1,22.6,58.6,33.8
	C501.6,223,513.6,216.1,525.5,209.2"/>
<path class="st3" d="M525.5,209.2c-19.5-11.3-39.1-22.6-58.6-33.8c-11.9,6.9-23.9,13.8-35.8,20.7c19.5,11.3,39.1,22.6,58.6,33.8
	C501.6,223,513.6,216.1,525.5,209.2z"/>
<path class="st1" d="M489.7,365.3c-19.5-11.3-39.1-22.6-58.6-33.8V196.1l58.6,33.8V365.3z"/>
<path class="st3" d="M489.7,365.3c-19.5-11.3-39.1-22.6-58.6-33.8V196.1l58.6,33.8V365.3z"/>
<path class="st1" d="M493,228c-19.5-11.3-39.1-22.6-58.6-33.8c-1.1,0.6-2.2,1.3-3.3,1.9l58.6,33.8C490.8,229.3,491.9,228.6,493,228"
	/>
<path class="st3" d="M493,228c-19.5-11.3-39.1-22.6-58.6-33.8c-1.1,0.6-2.2,1.3-3.3,1.9l58.6,33.8C490.8,229.3,491.9,228.6,493,228z
	"/>
<path class="st1" d="M493,228c0,45.1,0,90.2,0,135.4c-1.1,0.6-2.2,1.3-3.3,1.9V229.9C490.8,229.3,491.9,228.6,493,228"/>
<path class="st3" d="M493,228c0,45.1,0,90.2,0,135.4c-1.1,0.6-2.2,1.3-3.3,1.9V229.9C490.8,229.3,491.9,228.6,493,228z"/>
<rect x="460.1" y="213" class="st1" width="0.6" height="135.4"/>
<rect x="460.1" y="213" class="st3" width="0.6" height="135.4"/>
<path class="st1" d="M440.9,228v18.8c3.3,1.9,6.5,3.8,9.8,5.6v-18.8C447.4,231.8,444.1,229.9,440.9,228"/>
<path class="st3" d="M440.9,228v18.8c3.3,1.9,6.5,3.8,9.8,5.6v-18.8C447.4,231.8,444.1,229.9,440.9,228z"/>
<path class="st1" d="M442.1,231.2v13.9c2.4,1.4,4.8,2.8,7.2,4.2v-13.9C447,234,444.5,232.6,442.1,231.2"/>
<path class="st3" d="M442.1,231.2v13.9c2.4,1.4,4.8,2.8,7.2,4.2v-13.9C447,234,444.5,232.6,442.1,231.2z"/>
<path class="st1" d="M453.9,271.8c-0.7-0.4-1.4-0.8-2.1-1.2v36.2c0.7,0.4,1.4,0.8,2.1,1.2V271.8z"/>
<path class="st3" d="M453.9,271.8c-0.7-0.4-1.4-0.8-2.1-1.2v36.2c0.7,0.4,1.4,0.8,2.1,1.2V271.8z"/>
<path class="st1" d="M451.8,270.6c0.7-0.4,1.4-0.8,2.1-1.2c0.7,0.4,1.4,0.8,2.1,1.2c-0.7,0.4-1.4,0.8-2.1,1.2
	C453.2,271.4,452.5,271,451.8,270.6"/>
<path class="st3" d="M451.8,270.6c0.7-0.4,1.4-0.8,2.1-1.2c0.7,0.4,1.4,0.8,2.1,1.2c-0.7,0.4-1.4,0.8-2.1,1.2
	C453.2,271.4,452.5,271,451.8,270.6z"/>
<path class="st1" d="M456,270.6v36.2c-0.7,0.4-1.4,0.8-2.1,1.2c0-12.1,0-24.1,0-36.2C454.6,271.4,455.3,271,456,270.6"/>
<path class="st3" d="M456,270.6v36.2c-0.7,0.4-1.4,0.8-2.1,1.2c0-12.1,0-24.1,0-36.2C454.6,271.4,455.3,271,456,270.6z"/>
<path class="st1" d="M464.8,278c-0.7-0.4-1.4-0.8-2.1-1.2v36.2c0.7,0.4,1.4,0.8,2.1,1.2V278z"/>
<path class="st3" d="M464.8,278c-0.7-0.4-1.4-0.8-2.1-1.2v36.2c0.7,0.4,1.4,0.8,2.1,1.2V278z"/>
<path class="st1" d="M462.7,276.8c0.7-0.4,1.4-0.8,2.1-1.2c0.7,0.4,1.4,0.8,2.1,1.2c-0.7,0.4-1.4,0.8-2.1,1.2
	C464.1,277.6,463.4,277.2,462.7,276.8"/>
<path class="st3" d="M462.7,276.8c0.7-0.4,1.4-0.8,2.1-1.2c0.7,0.4,1.4,0.8,2.1,1.2c-0.7,0.4-1.4,0.8-2.1,1.2
	C464.1,277.6,463.4,277.2,462.7,276.8z"/>
<path class="st1" d="M466.9,276.8v36.2c-0.7,0.4-1.4,0.8-2.1,1.2c0-12.1,0-24.1,0-36.2C465.5,277.6,466.2,277.2,466.9,276.8"/>
<path class="st3" d="M466.9,276.8v36.2c-0.7,0.4-1.4,0.8-2.1,1.2c0-12.1,0-24.1,0-36.2C465.5,277.6,466.2,277.2,466.9,276.8z"/>
</svg>
