<?xml version="1.0" encoding="utf-8"?>
<!-- Generator: Adobe Illustrator 19.0.0, SVG Export Plug-In . SVG Version: 6.00 Build 0)  -->
<svg version="1.1" id="Layer_1" xmlns="http://www.w3.org/2000/svg" xmlns:xlink="http://www.w3.org/1999/xlink" x="0px" y="0px"
	 viewBox="0 0 111.2 111.2" style="enable-background:new 0 0 111.2 111.2;" xml:space="preserve">
<style type="text/css">
	.st0{clip-path:url(#XMLID_67_);fill:none;stroke:#3F4043;stroke-width:3.195;stroke-linecap:round;stroke-linejoin:round;}
	.st1{clip-path:url(#XMLID_67_);fill:#EC1C59;}
	.st2{fill:none;stroke:#EC1C59;stroke-width:3.04;stroke-linejoin:round;stroke-miterlimit:10;}
	.st3{clip-path:url(#XMLID_68_);fill:#EC1C59;}
	.st4{fill:#EC1C59;}
</style>
<g id="XMLID_27_">
	<g>
		<defs>
			<rect id="XMLID_34_" y="0.3" width="108.6" height="110.9"/>
		</defs>
		<clipPath id="XMLID_67_">
			<use xlink:href="#XMLID_34_"  style="overflow:visible;"/>
		</clipPath>
		<path id="XMLID_65_" class="st0" d="M81.7,94c1.8,4.3-0.2,9.3-4.5,11.1s-9.3-0.1-11.2-4.3c-0.2-0.4-0.6-0.6-1-0.5
			c-0.4,0.1-0.7,0.5-0.7,0.9c-0.1,4.7-3.9,8.4-8.6,8.4c-3.8,0-7.2-2.6-8.3-6.2c-0.1-0.3-0.4-0.6-0.7-0.6c-0.3-0.1-0.7,0.1-0.9,0.3
			c-2.3,3-6.4,4.2-10,2.8c-3.6-1.4-5.8-5-5.4-8.8c0-0.3-0.1-0.7-0.4-0.9s-0.7-0.2-1,0c-3.3,2-7.5,1.5-10.3-1.1
			c-3.4-3.2-3.6-8.5-0.5-12c0.3-0.3,0.3-0.8,0.1-1.1c-0.2-0.3-0.7-0.5-1.1-0.3c-4.3,1.8-9.3-0.2-11.2-4.5c-1.9-4.3,0.1-9.3,4.3-11.2
			c0.4-0.2,0.6-0.6,0.5-1c-0.1-0.4-0.5-0.7-0.9-0.7c-4.7-0.1-8.5-3.9-8.5-8.5c0-3.8,2.6-7.2,6.2-8.2c0.3-0.1,0.6-0.4,0.6-0.7
			s-0.1-0.7-0.3-0.9c-3-2.3-4.2-6.4-2.8-9.9c1.4-3.5,5-5.7,8.8-5.4c0.3,0,0.7-0.1,0.9-0.4c0.2-0.3,0.2-0.7,0-1
			c-2-3.3-1.5-7.5,1.1-10.2c3.2-3.4,8.6-3.6,12-0.5c0.3,0.3,0.8,0.3,1.1,0.1c0.3-0.2,0.5-0.7,0.3-1.1c-1.8-4.3,0.2-9.3,4.5-11.1
			s9.3,0.1,11.2,4.3c0.2,0.4,0.6,0.6,1,0.5c0.4-0.1,0.7-0.5,0.7-0.9c0.1-4.6,3.9-8.4,8.6-8.4c3.8,0,7.2,2.6,8.3,6.2
			c0.1,0.3,0.4,0.6,0.7,0.6c0.3,0.1,0.7-0.1,0.9-0.3c2.3-3,6.4-4.2,10-2.8c3.6,1.4,5.8,5,5.4,8.8c0,0.3,0.1,0.7,0.4,0.9
			c0.3,0.2,0.7,0.2,1,0c3.3-2,7.5-1.5,10.3,1.1"/>
		<path id="XMLID_64_" class="st1" d="M107.2,81.4H30.8c-0.8,0-1.5-0.7-1.5-1.5c0-0.8,0.7-1.5,1.5-1.5h76.3c0.8,0,1.5,0.7,1.5,1.5
			C108.6,80.8,108,81.4,107.2,81.4"/>
		<path class="st1" d="M69,35.8c0.3,0,0.5,0.1,0.7,0.2l14.8,9.4c0.1,0.1,0.2,0.2,0.3,0.3l8.6,11l3.2-2.4l-11-13.5L69,30.6L52.4,40.8
			l-11,13.5l3.2,2.4l8.6-11c0.1-0.1,0.2-0.2,0.3-0.3L68.3,36C68.5,35.8,68.7,35.8,69,35.8 M93.1,59.9c-0.4,0-0.8-0.2-1.1-0.5
			l-9.2-11.9L69,38.7l-13.8,8.8l-9.2,11.9c-0.4,0.6-1.3,0.7-1.9,0.3l-5.4-4c-0.3-0.2-0.5-0.5-0.5-0.9c0-0.4,0.1-0.7,0.3-1l12.1-14.8
			c0.1-0.1,0.2-0.2,0.3-0.3l17.4-10.7c0.4-0.3,1-0.3,1.4,0l17.4,10.7c0.1,0.1,0.2,0.2,0.3,0.3l12.1,14.8c0.2,0.3,0.3,0.6,0.3,1
			c0,0.4-0.2,0.7-0.5,0.9l-5.4,4C93.7,59.8,93.4,59.9,93.1,59.9"/>
		<path id="XMLID_49_" class="st1" d="M93.1,81.4H44.8c-0.7,0-1.3-0.6-1.3-1.3V58.6c0-0.7,0.6-1.3,1.3-1.3s1.3,0.6,1.3,1.3v20.1
			h45.6V58.6c0-0.7,0.6-1.3,1.3-1.3c0.7,0,1.3,0.6,1.3,1.3V80C94.5,80.8,93.9,81.4,93.1,81.4"/>
	</g>
	<path class="st2" d="M69,79.4H56.2v-26H69V79.4z M81.8,79.4H56.2v-26h25.6V79.4z"/>
	<g>
		<defs>
			<rect id="XMLID_29_" y="0.3" width="108.6" height="110.9"/>
		</defs>
		<clipPath id="XMLID_68_">
			<use xlink:href="#XMLID_29_"  style="overflow:visible;"/>
		</clipPath>
		<path id="XMLID_31_" class="st3" d="M30.7,70.4c0,2.7,2.2,4.9,4.9,4.9c2.7,0,4.9-2.2,4.9-4.9s-2.2-4.9-4.9-4.9
			C32.9,65.5,30.7,67.7,30.7,70.4"/>
		<path id="XMLID_30_" class="st3" d="M32.1,64.6c0,1.9,1.5,3.4,3.4,3.4c1.9,0,3.4-1.5,3.4-3.4c0-1.9-1.5-3.4-3.4-3.4
			C33.7,61.1,32.1,62.7,32.1,64.6"/>
	</g>
	<rect id="XMLID_28_" x="34.3" y="74.3" class="st4" width="2.4" height="5.7"/>
</g>
</svg>
