<?xml version="1.0" encoding="utf-8"?>
<!-- Generator: Adobe Illustrator 19.0.0, SVG Export Plug-In . SVG Version: 6.00 Build 0)  -->
<svg version="1.1" id="Layer_1" xmlns="http://www.w3.org/2000/svg" xmlns:xlink="http://www.w3.org/1999/xlink" x="0px" y="0px"
	 viewBox="0 0 353.5 97.8" style="enable-background:new 0 0 353.5 97.8;" xml:space="preserve">
<style type="text/css">
	.st0{fill:#2D2D2B;}
	.st1{fill:#E4004D;}
	.st2{fill:#FFFFFF;}
	.st3{clip-path:url(#SVGID_2_);fill:none;stroke:#C9C7CC;stroke-width:0.826;}
	.st4{fill:#1D1D1B;}
	.st5{fill:#FAD8D7;}
</style>
<g>
	<path class="st0" d="M138.4,20.1V23v1.5v3.4h-0.2h-0.5h-1.7c-0.5,0-0.8-0.3-0.9-0.8c0-0.3-0.2-1.2-0.3-2.6h-9.5v8.2h10v4.2h-10v8.3
		h9.5c0.1-1.4,0.2-2.3,0.3-2.6c0.1-0.5,0.4-0.8,0.9-0.8h1.7h0.5h0.2v3.4v1.6v2.9h-18.6h-3.1v-2.4c0-0.7,0.3-1.1,1-1.3
		c0,0,0.1,0,0.2,0c0.1,0,0.3-0.1,0.6-0.1c0.3,0,0.7-0.1,1.2-0.2V24.2c-0.5-0.1-0.9-0.2-1.2-0.2c-0.3,0-0.5-0.1-0.6-0.1
		c-0.1,0-0.2,0-0.2,0c-0.7-0.2-1-0.6-1-1.3v-2.4h3.1H138.4z"/>
	<path class="st0" d="M175.2,28.7v2.4c0,0.7-0.3,1.1-1,1.3c-0.3,0-0.2,0-1.9,0.4l-5.3,16.9h-4.1c-0.4,0-0.7-0.3-0.9-0.9l-3.8-12.1
		c-0.1-0.4-0.3-0.8-0.4-1.2c-0.1-0.4-0.2-0.8-0.2-1.2l-0.2,1.2c-0.1,0.4-0.2,0.8-0.3,1.2l-3.8,12c-0.2,0.6-0.6,0.9-1.1,0.9h-3.8
		l-5.4-16.9c-1.7-0.3-1.6-0.3-1.9-0.4c-0.7-0.2-1-0.6-1-1.3v-2.4h1.7h4h4.5v2.4c0,0.7-0.3,1.1-1,1.3c-0.2,0-0.3,0.1-1.3,0.2l2.2,8.2
		c0.2,0.6,0.3,1.2,0.4,1.8c0.1,0.6,0.2,1.2,0.3,1.8c0.2-0.6,0.3-1.2,0.5-1.8c0.2-0.6,0.3-1.2,0.5-1.8l3.5-11.2
		c0.1-0.3,0.2-0.5,0.5-0.7c0.2-0.2,0.5-0.3,0.9-0.3h2.2c0.4,0,0.7,0.1,0.9,0.3c0.2,0.2,0.4,0.4,0.5,0.7l3.4,11.4l0.5,1.7
		c0.1,0.6,0.3,1.1,0.4,1.7c0.1-0.6,0.2-1.2,0.3-1.8c0.1-0.6,0.3-1.2,0.4-1.8l2.2-8.2c-1.1-0.2-1.2-0.2-1.5-0.3c-0.7-0.2-1-0.6-1-1.3
		v-2.4h4.7h0h3.8H175.2z"/>
	<path class="st0" d="M189.5,29c1.1,0.4,2,1.1,2.9,1.9c0.8,0.8,1.4,1.8,1.9,3c0.4,1.2,0.7,2.5,0.7,4c0,0.4,0,0.7-0.1,1
		c0,0.2-0.1,0.4-0.2,0.6c-0.1,0.2-0.2,0.2-0.4,0.3c-0.2,0.1-0.3,0.1-0.6,0.1h-12.9c0.2,2.2,0.7,3.7,1.8,4.7c1,1,2.3,1.5,4,1.5
		c0.8,0,1.5-0.1,2.1-0.3c0.6-0.2,1.1-0.4,1.6-0.7c0.4-0.2,0.9-0.4,1.2-0.6c0.3-0.2,0.6-0.3,0.9-0.3c0.2,0,0.4,0,0.6,0.1
		c0.2,0.1,0.2,0.2,0.4,0.3l1.5,1.8c-0.6,0.7-1.2,1.2-1.9,1.7c-0.7,0.4-1.4,0.8-2.2,1.1c-0.8,0.2-1.6,0.4-2.3,0.5
		c-0.8,0.1-1.6,0.2-2.3,0.2c-1.5,0-2.8-0.2-4-0.7c-1.3-0.5-2.3-1.2-3.3-2.2c-0.9-0.9-1.7-2.1-2.2-3.5c-0.5-1.4-0.8-3-0.8-4.9
		c0-1.4,0.2-2.7,0.7-4c0.4-1.3,1.1-2.4,2-3.3c0.9-0.9,1.9-1.7,3.1-2.2c1.2-0.5,2.7-0.8,4.2-0.8C187.1,28.4,188.4,28.6,189.5,29z
		 M182.5,33.2c-0.8,0.8-1.3,2-1.6,3.5h9.5c0-0.7-0.1-1.3-0.3-1.8c-0.2-0.6-0.4-1.1-0.8-1.5c-0.4-0.4-0.8-0.8-1.4-1
		c-0.6-0.2-1.2-0.4-2-0.4C184.4,32,183.3,32.4,182.5,33.2z"/>
	<path class="st0" d="M225,40.4c0,1.3-0.2,2.5-0.7,3.7c-0.4,1.2-1.1,2.2-2,3.1c-0.9,0.9-2,1.6-3.2,2c-1.3,0.5-2.7,0.7-4.3,0.7h-0.6
		c-2.6,0-5.4-0.5-8.4-1.6v-0.7v-6.9h0.2h0.5h1.7c0.5,0,0.8,0.2,0.9,0.7c0.1,0.4,0.2,1.5,0.4,3.4c1.2,0.4,3.1,0.5,5.6,0.5
		c1.6,0,2.8-0.4,3.6-1.1c0.9-0.7,1.3-1.8,1.3-3.2c0-0.8-0.2-1.4-0.6-1.9c-0.4-0.5-0.9-0.9-1.6-1.2c-0.7-0.3-1.3-0.6-2.2-0.9
		c-0.8-0.2-1.7-0.4-2.5-0.7c-0.9-0.3-1.7-0.6-2.5-1c-0.8-0.4-1.6-0.9-2.2-1.5c-0.7-0.6-1.1-1.3-1.5-2.3c-0.4-0.9-0.6-2-0.6-3.4
		c0-1.1,0.2-2.1,0.7-3.1c0.4-1,1.1-2,1.9-2.7c0.8-0.8,1.8-1.4,3-1.9c1.2-0.5,2.6-0.7,4.1-0.7c2.9,0,5.7,0.6,8.4,1.7V29h-0.2h-0.5
		H222c-0.5,0-0.8-0.3-0.9-0.8c-0.1-0.4-0.2-1.5-0.4-3.3c-1-0.4-2.7-0.7-4.8-0.7c-0.8,0-1.4,0.1-2,0.2c-0.6,0.2-1.1,0.4-1.4,0.8
		c-0.4,0.3-0.7,0.7-0.9,1.2s-0.3,1-0.3,1.5c0,0.7,0.2,1.3,0.6,1.7s0.9,0.9,1.5,1.2c0.7,0.3,1.4,0.7,2.2,0.9c0.8,0.2,1.6,0.5,2.5,0.8
		c0.9,0.3,1.7,0.7,2.5,1c0.8,0.4,1.6,0.9,2.2,1.5c0.7,0.6,1.2,1.3,1.6,2.2C224.8,38.1,225,39.2,225,40.4z"/>
	<path class="st0" d="M230.6,48.4c-1-1-1.5-2.4-1.5-4.2V32.5h-2.1c-0.3,0-0.5-0.1-0.7-0.3c-0.2-0.2-0.3-0.4-0.3-0.8v-2l3.4-0.5
		l1.1-5.7c0-0.3,0.2-0.4,0.4-0.6s0.5-0.2,0.8-0.2h2.6v6.6h5.5v3.6h-5.5v11.3c0,0.7,0.2,1.1,0.5,1.5c0.3,0.4,0.8,0.5,1.3,0.5
		c0.3,0,0.6,0,0.8-0.1c0.2-0.1,0.4-0.2,0.5-0.2c0.2-0.1,0.3-0.2,0.4-0.2c0.1-0.1,0.2-0.1,0.3-0.1c0.2,0,0.3,0,0.4,0.1
		c0.1,0.1,0.2,0.2,0.3,0.3l1.5,2.4c-0.7,0.6-1.6,1.1-2.5,1.4c-0.9,0.3-1.9,0.5-2.9,0.5C233.1,50,231.6,49.5,230.6,48.4z"/>
	<path class="st0" d="M256.8,29.2c1.3,0.5,2.4,1.2,3.3,2.1c0.9,0.9,1.6,2,2,3.4c0.5,1.3,0.7,2.8,0.7,4.4c0,1.7-0.2,3.1-0.7,4.5
		c-0.5,1.3-1.1,2.5-2,3.4c-0.9,0.9-2,1.7-3.3,2.2c-1.3,0.5-2.7,0.7-4.2,0.7c-1.6,0-3-0.2-4.3-0.7c-1.3-0.5-2.4-1.2-3.3-2.2
		c-0.9-0.9-1.6-2.1-2.1-3.4c-0.5-1.3-0.7-2.8-0.7-4.5c0-1.6,0.2-3.1,0.7-4.4c0.5-1.3,1.2-2.4,2.1-3.4c0.9-0.9,2-1.6,3.3-2.1
		c1.3-0.5,2.7-0.8,4.3-0.8C254.1,28.4,255.5,28.7,256.8,29.2z M256.4,44.3c0.8-1.2,1.3-2.9,1.3-5.1c0-2.2-0.4-4-1.3-5.1
		s-2.1-1.8-3.8-1.8c-1.8,0-3.1,0.6-3.9,1.8c-0.9,1.2-1.3,2.9-1.3,5.2c0,2.2,0.4,3.9,1.3,5.1c0.9,1.2,2.2,1.8,3.9,1.8
		C254.3,46.1,255.5,45.5,256.4,44.3z"/>
	<path class="st0" d="M280.7,29l-0.7,3.8c0,0.2-0.1,0.4-0.2,0.5c-0.1,0.1-0.3,0.2-0.6,0.2c-0.2,0-0.4,0-0.8-0.1
		c-0.4-0.1-0.9-0.2-1.4-0.2c-1.1,0-2,0.3-2.7,0.9c-0.7,0.6-1.3,1.5-1.9,2.6v9c1.8,0.3,1.7,0.3,2,0.4c0.7,0.2,1,0.6,1,1.3v2.4h-3.1
		h-5.1h-3.1v-2.4c0-0.7,0.3-1.1,1-1.3c0.3,0,0.3,0,2-0.4V32.8c-1.8-0.3-1.7-0.3-2-0.4c-0.7-0.2-1-0.6-1-1.3v-2.4h3.1h3
		c0.5,0,0.9,0.1,1.1,0.3s0.3,0.5,0.4,1l0.3,2.5c0.7-1.3,1.6-2.3,2.6-3.1c1-0.7,2.1-1.1,3.4-1.1C279.1,28.3,280,28.6,280.7,29z"/>
	<path class="st0" d="M295.6,29c1.1,0.4,2,1.1,2.9,1.9c0.8,0.8,1.4,1.8,1.9,3c0.4,1.2,0.7,2.5,0.7,4c0,0.4,0,0.7-0.1,1
		c0,0.2-0.1,0.4-0.2,0.6c-0.1,0.2-0.2,0.2-0.4,0.3c-0.2,0.1-0.3,0.1-0.6,0.1h-12.9c0.2,2.2,0.7,3.7,1.8,4.7c1,1,2.3,1.5,4,1.5
		c0.8,0,1.5-0.1,2.1-0.3c0.6-0.2,1.1-0.4,1.6-0.7c0.4-0.2,0.9-0.4,1.2-0.6c0.3-0.2,0.6-0.3,0.9-0.3c0.2,0,0.4,0,0.6,0.1
		c0.2,0.1,0.2,0.2,0.4,0.3l1.5,1.8c-0.6,0.7-1.2,1.2-1.9,1.7c-0.7,0.4-1.4,0.8-2.2,1.1c-0.8,0.2-1.6,0.4-2.3,0.5
		c-0.8,0.1-1.6,0.2-2.3,0.2c-1.5,0-2.8-0.2-4-0.7c-1.3-0.5-2.3-1.2-3.3-2.2c-0.9-0.9-1.7-2.1-2.2-3.5c-0.5-1.4-0.8-3-0.8-4.9
		c0-1.4,0.2-2.7,0.7-4c0.4-1.3,1.1-2.4,2-3.3c0.9-0.9,1.9-1.7,3.1-2.2c1.2-0.5,2.7-0.8,4.2-0.8C293.3,28.4,294.5,28.6,295.6,29z
		 M288.6,33.2c-0.8,0.8-1.3,2-1.6,3.5h9.5c0-0.7-0.1-1.3-0.3-1.8c-0.2-0.6-0.4-1.1-0.8-1.5c-0.4-0.4-0.8-0.8-1.4-1
		c-0.6-0.2-1.2-0.4-2-0.4C290.6,32,289.4,32.4,288.6,33.2z"/>
	<path class="st0" d="M322.3,23.9c-0.1,0-0.3,0.1-0.6,0.1c-0.3,0-0.7,0.1-1.2,0.2v21.4c0.5,0.1,0.9,0.2,1.2,0.2
		c0.3,0,0.5,0.1,0.6,0.1c0.1,0,0.2,0,0.2,0c0.7,0.2,1,0.6,1,1.3v2.4h-3.1H315h-3.1v-2.4c0-0.7,0.3-1.1,1-1.3c0,0,0.1,0,0.2,0
		c0.1,0,0.3-0.1,0.6-0.1c0.3,0,0.7-0.1,1.2-0.2V24.2c-0.5-0.1-0.9-0.2-1.2-0.2c-0.3,0-0.5-0.1-0.6-0.1c-0.1,0-0.2,0-0.2,0
		c-0.7-0.2-1-0.6-1-1.3v-2.4h3.1h5.5h3.1v2.4c0,0.7-0.3,1.1-1,1.3C322.5,23.8,322.4,23.9,322.3,23.9z"/>
	<path class="st0" d="M329.5,48.4c-1-1-1.5-2.4-1.5-4.2V32.5h-2.1c-0.3,0-0.5-0.1-0.7-0.3c-0.2-0.2-0.3-0.4-0.3-0.8v-2l3.4-0.5
		l1.1-5.7c0-0.3,0.2-0.4,0.4-0.6s0.5-0.2,0.8-0.2h2.6v6.6h5.5v3.6h-5.5v11.3c0,0.7,0.2,1.1,0.5,1.5c0.3,0.4,0.8,0.5,1.3,0.5
		c0.3,0,0.6,0,0.8-0.1c0.2-0.1,0.4-0.2,0.5-0.2c0.2-0.1,0.3-0.2,0.4-0.2c0.1-0.1,0.2-0.1,0.3-0.1c0.2,0,0.3,0,0.4,0.1
		c0.1,0.1,0.2,0.2,0.3,0.3l1.5,2.4c-0.7,0.6-1.6,1.1-2.5,1.4c-0.9,0.3-1.9,0.5-2.9,0.5C331.9,50,330.5,49.5,329.5,48.4z"/>
</g>
<g>
	<path class="st1" d="M127.6,62l-1.5,0.6c-0.2,0-0.5-0.1-0.6-0.2c-0.4,0.1-1,0.2-2,0.6c-0.2,2.7-0.4,4.9-0.4,6.8
		c0,0.8,0,1.6,0.1,2.4c0.1,0.1,0.2,0.4,0.2,0.6V74c0,0.7-0.2,1-0.7,1c-0.4,0-0.7-0.2-0.7-0.7c-0.2-1.5-0.2-3.3-0.2-5.4
		c0-1.1,0.1-3,0.3-5.7c-2,0.6-3.5,0.9-4.3,1c-0.4,0-0.6-0.2-0.6-0.7c0-0.4,0.2-0.7,0.6-0.8c3.9-0.9,6.7-1.6,8.4-2
		c0.6-0.1,1.1-0.2,1.4-0.2c0.1,0,0.3,0.1,0.4,0.2c0.1,0.2,0.2,0.3,0.2,0.5C128.1,61.7,127.9,61.9,127.6,62z"/>
	<path class="st1" d="M134.9,74.7c-0.7,0-1.1-0.8-1.2-2.5l-0.1-2.1c-1.6,1.2-2.6,2.2-3.1,3c-0.1,0.3-0.2,0.6-0.4,0.8
		c-0.2,0.4-0.4,0.6-0.5,0.6c-0.3,0-0.5-0.1-0.7-0.3c-0.2-0.2-0.3-0.5-0.3-0.7c0,0,0-0.2,0-0.5c0-0.3,0-0.5,0-0.6
		c0-1.7,0.1-3.4,0.5-5l1-5.6c0.1-0.6,0.3-0.9,0.6-0.9c0.2,0,0.4,0.1,0.6,0.4c0.2,0.2,0.3,0.5,0.3,0.7c0,0.1-0.1,0.4-0.1,0.9
		c-0.1,0.5-0.3,1.3-0.4,2.3l-0.5,2.8c-0.1,0.5-0.2,1.5-0.4,3.1c0.4-0.5,1.1-1.1,2-1.9c1-0.8,1.7-1.2,2-1.2c0.3,0,0.5,0.1,0.7,0.3
		c0.2,0.2,0.3,0.5,0.3,0.8c0,0.1,0,0.3-0.1,0.7c0,0.4,0,0.7,0,0.8c0,0.7,0.1,1.5,0.2,2.4c0,0.3,0.1,0.7,0.1,1.1
		C135.2,74.6,135.1,74.7,134.9,74.7z"/>
	<path class="st1" d="M142.3,74.6c-1.3,0-2.3-0.6-3-1.8h-0.5c-0.5,0-0.9-0.1-1.4-0.3c-0.6-0.2-0.9-0.6-0.9-1c0-0.5,0.2-0.7,0.7-0.7
		c0.1,0,0.3,0.1,0.5,0.3c0.2,0.2,0.5,0.3,0.7,0.3h0.4c-0.1-0.3-0.1-0.5-0.1-0.7c0-0.8,0.2-1.6,0.6-2.4c0.5-0.9,1.1-1.3,1.9-1.3
		c0.4,0,0.9,0.2,1.3,0.6c0.4,0.4,0.6,0.9,0.6,1.4c0,1.3-0.9,2.4-2.7,3.4c0.4,0.5,0.9,0.8,1.4,0.8c0.1,0,0.4,0,0.7-0.1
		c0.3,0,0.5-0.1,0.7-0.1c0.2,0,0.4,0.1,0.5,0.2c0.1,0.2,0.2,0.4,0.2,0.5C144,74.3,143.4,74.6,142.3,74.6z M141.7,68.6
		c-0.1-0.1-0.3-0.2-0.4-0.2c-0.3,0-0.6,0.3-0.7,0.8c-0.2,0.4-0.2,0.9-0.2,1.4V71c1.1-0.7,1.6-1.3,1.6-1.9
		C141.8,68.9,141.8,68.8,141.7,68.6z"/>
	<path class="st1" d="M156,73.6c-0.7,0.5-1.4,0.8-2,0.8c-0.7,0-1.4-0.2-1.9-0.7c-0.5-0.5-0.7-1.1-0.7-1.9c0-1.1,0.3-2.1,1-3
		c0.8-1.1,1.8-1.7,3-1.7c0.3,0,0.5,0.1,0.7,0.2c0.2,0.2,0.3,0.4,0.3,0.7c0,0.2-0.1,0.4-0.3,0.6c-0.2,0.2-0.5,0.3-0.7,0.3
		c-0.4,0-0.8-0.1-1-0.2c-0.5,0.3-0.9,0.8-1.2,1.3c-0.3,0.5-0.5,1.1-0.5,1.6c0,0.9,0.3,1.3,1,1.3c0.4,0,0.8-0.1,1.1-0.3
		c0.2-0.2,0.4-0.4,0.6-0.5c0.2-0.2,0.5-0.4,0.6-0.4c0.2,0,0.3,0.1,0.5,0.2c0.1,0.2,0.2,0.4,0.2,0.5C156.9,72.8,156.6,73.2,156,73.6z
		"/>
	<path class="st1" d="M164.7,74.7c-0.7,0-1.1-0.8-1.2-2.5l-0.1-2.1c-1.6,1.2-2.6,2.2-3.1,3c-0.1,0.3-0.2,0.6-0.4,0.8
		c-0.2,0.4-0.4,0.6-0.5,0.6c-0.3,0-0.5-0.1-0.7-0.3c-0.2-0.2-0.3-0.5-0.3-0.7c0,0,0-0.2,0-0.5c0-0.3,0-0.5,0-0.6
		c0-1.7,0.1-3.4,0.5-5l1-5.6c0.1-0.6,0.3-0.9,0.6-0.9c0.2,0,0.4,0.1,0.6,0.4c0.2,0.2,0.3,0.5,0.3,0.7c0,0.1-0.1,0.4-0.1,0.9
		c-0.1,0.5-0.3,1.3-0.4,2.3l-0.5,2.8c-0.1,0.5-0.2,1.5-0.4,3.1c0.4-0.5,1.1-1.1,2-1.9c1-0.8,1.7-1.2,2-1.2c0.3,0,0.5,0.1,0.7,0.3
		c0.2,0.2,0.3,0.5,0.3,0.8c0,0.1,0,0.3-0.1,0.7c0,0.4,0,0.7,0,0.8c0,0.7,0.1,1.5,0.2,2.4c0,0.3,0.1,0.7,0.1,1.1
		C165,74.6,164.9,74.7,164.7,74.7z"/>
	<path class="st1" d="M172.1,74.6c-1.3,0-2.3-0.6-3-1.8h-0.5c-0.5,0-0.9-0.1-1.4-0.3c-0.6-0.2-0.9-0.6-0.9-1c0-0.5,0.2-0.7,0.7-0.7
		c0.1,0,0.3,0.1,0.5,0.3c0.2,0.2,0.5,0.3,0.7,0.3h0.4c-0.1-0.3-0.1-0.5-0.1-0.7c0-0.8,0.2-1.6,0.6-2.4c0.5-0.9,1.1-1.3,1.9-1.3
		c0.4,0,0.9,0.2,1.3,0.6c0.4,0.4,0.6,0.9,0.6,1.4c0,1.3-0.9,2.4-2.7,3.4c0.4,0.5,0.9,0.8,1.4,0.8c0.1,0,0.4,0,0.7-0.1
		c0.3,0,0.5-0.1,0.7-0.1c0.2,0,0.4,0.1,0.5,0.2c0.1,0.2,0.2,0.4,0.2,0.5C173.9,74.3,173.3,74.6,172.1,74.6z M171.5,68.6
		c-0.1-0.1-0.3-0.2-0.4-0.2c-0.3,0-0.6,0.3-0.7,0.8c-0.2,0.4-0.2,0.9-0.2,1.4V71c1.1-0.7,1.6-1.3,1.6-1.9
		C171.7,68.9,171.6,68.8,171.5,68.6z"/>
	<path class="st1" d="M181.5,70.4c-0.2,0.7-0.4,1.4-0.4,2.2c0,0.2,0,0.5,0.1,0.9c0.1,0.4,0.1,0.6,0.1,0.7c0,0.2-0.1,0.4-0.2,0.5
		c-0.2,0.1-0.3,0.2-0.5,0.2c-0.5,0-0.8-0.7-0.9-2c-1,1-1.9,1.5-2.7,1.5c-0.5,0-1-0.2-1.3-0.7c-0.4-0.4-0.6-0.9-0.6-1.4
		c0-1,0.6-2.1,1.8-3.3c1.2-1.1,2.2-1.7,3.2-1.7c0.2,0,0.5,0.1,0.7,0.3c0.2,0.2,0.3,0.4,0.3,0.6c0,0.1,0,0.2,0,0.2
		c0.1,0.3,0.2,0.7,0.2,1.1c0.1,0.2,0.2,0.4,0.2,0.5C181.6,70.1,181.6,70.2,181.5,70.4z M179.7,68.8c-0.3,0-0.9,0.4-1.7,1.2
		c-0.9,0.9-1.3,1.6-1.3,2.1c0,0.4,0.2,0.7,0.5,0.7c0.5,0,1.1-0.4,1.8-1.2c0.7-0.8,1-1.5,1-2.1C180,69,179.9,68.8,179.7,68.8z"/>
	<path class="st1" d="M185.6,72.4c0.1,0.7,0.1,1.4,0.1,2.2c0,0.8-0.1,1.6-0.3,2.5c-0.2,0.7-0.4,1.1-0.8,1.1c-0.2,0-0.4-0.1-0.5-0.2
		c-0.1-0.2-0.2-0.3-0.2-0.5c0-0.1,0.1-0.3,0.2-0.8c0.1-0.5,0.2-1.3,0.2-2.4c0-0.6,0-1-0.1-1.3c-0.5,0-0.7-0.3-0.7-0.7
		c0-0.4,0.2-0.6,0.7-0.8c0-0.1,0-0.2,0-0.4c0-1.4,0.2-2.6,0.6-3.7c0.6-1.6,1.5-2.3,2.6-2.3c0.8,0,1.4,0.3,1.8,0.9
		c0.4,0.6,0.6,1.3,0.6,2.1C189.8,69.9,188.4,71.4,185.6,72.4z M188.1,66.8c-0.2-0.2-0.4-0.4-0.7-0.4c-0.5,0-0.9,0.5-1.3,1.6
		c-0.3,1-0.5,1.9-0.5,2.9c1.9-0.7,2.8-1.7,2.8-3.2C188.4,67.3,188.3,67,188.1,66.8z"/>
	<path class="st1" d="M196.8,74.6c-1.3,0-2.3-0.6-3-1.8h-0.5c-0.5,0-0.9-0.1-1.4-0.3c-0.6-0.2-0.9-0.6-0.9-1c0-0.5,0.2-0.7,0.7-0.7
		c0.1,0,0.3,0.1,0.5,0.3c0.2,0.2,0.5,0.3,0.7,0.3h0.4c-0.1-0.3-0.1-0.5-0.1-0.7c0-0.8,0.2-1.6,0.6-2.4c0.5-0.9,1.1-1.3,1.9-1.3
		c0.4,0,0.9,0.2,1.3,0.6c0.4,0.4,0.6,0.9,0.6,1.4c0,1.3-0.9,2.4-2.7,3.4c0.4,0.5,0.9,0.8,1.4,0.8c0.1,0,0.4,0,0.7-0.1
		c0.3,0,0.5-0.1,0.7-0.1c0.2,0,0.4,0.1,0.5,0.2c0.1,0.2,0.2,0.4,0.2,0.5C198.6,74.3,198,74.6,196.8,74.6z M196.2,68.6
		c-0.1-0.1-0.3-0.2-0.4-0.2c-0.3,0-0.6,0.3-0.7,0.8c-0.2,0.4-0.2,0.9-0.2,1.4V71c1.1-0.7,1.6-1.3,1.6-1.9
		C196.3,68.9,196.3,68.8,196.2,68.6z"/>
	<path class="st1" d="M205.9,68.6c-0.4,0.2-0.7,0.3-1,0.3c0,0-0.1,0-0.3-0.1c-1.4,0.7-2.3,2.1-2.6,4.3c-0.1,0.6-0.2,0.9-0.2,1.1
		c-0.1,0.3-0.3,0.5-0.5,0.5c-0.2,0-0.4-0.1-0.6-0.3c-0.2-0.2-0.2-0.5-0.2-0.8c0-0.1,0-0.3,0.1-0.7c0.1-0.4,0.1-0.8,0.1-1.3
		c0-0.4-0.1-1-0.1-1.7c-0.3-0.4-0.5-1.1-0.5-1.8c0-0.2,0.1-0.4,0.2-0.5c0.1-0.1,0.2-0.2,0.4-0.2c0.3,0,0.6,0.2,0.8,0.5
		c0.1,0.3,0.3,0.8,0.4,1.6c1.1-1.6,2.3-2.4,3.7-2.4c0.2,0,0.4,0.1,0.7,0.3c0.2,0.2,0.3,0.4,0.3,0.7
		C206.4,68.2,206.2,68.4,205.9,68.6z"/>
	<path class="st1" d="M218.4,74.6c-1.3,0-2.3-0.6-3-1.8h-0.5c-0.5,0-0.9-0.1-1.4-0.3c-0.6-0.2-0.9-0.6-0.9-1c0-0.5,0.2-0.7,0.7-0.7
		c0.1,0,0.3,0.1,0.5,0.3c0.2,0.2,0.5,0.3,0.7,0.3h0.4c-0.1-0.3-0.1-0.5-0.1-0.7c0-0.8,0.2-1.6,0.6-2.4c0.5-0.9,1.1-1.3,1.9-1.3
		c0.4,0,0.9,0.2,1.3,0.6c0.4,0.4,0.6,0.9,0.6,1.4c0,1.3-0.9,2.4-2.7,3.4c0.4,0.5,0.9,0.8,1.4,0.8c0.1,0,0.4,0,0.7-0.1
		c0.3,0,0.5-0.1,0.7-0.1c0.2,0,0.4,0.1,0.5,0.2c0.1,0.2,0.2,0.4,0.2,0.5C220.2,74.3,219.6,74.6,218.4,74.6z M217.8,68.6
		c-0.1-0.1-0.3-0.2-0.4-0.2c-0.3,0-0.6,0.3-0.7,0.8c-0.2,0.4-0.2,0.9-0.2,1.4V71c1.1-0.7,1.6-1.3,1.6-1.9
		C217.9,68.9,217.9,68.8,217.8,68.6z"/>
	<path class="st1" d="M227.8,70.4c-0.2,0.7-0.4,1.4-0.4,2.2c0,0.2,0,0.5,0.1,0.9c0.1,0.4,0.1,0.6,0.1,0.7c0,0.2-0.1,0.4-0.2,0.5
		c-0.2,0.1-0.3,0.2-0.5,0.2c-0.5,0-0.8-0.7-0.9-2c-1,1-1.9,1.5-2.7,1.5c-0.5,0-1-0.2-1.3-0.7c-0.4-0.4-0.6-0.9-0.6-1.4
		c0-1,0.6-2.1,1.8-3.3c1.2-1.1,2.2-1.7,3.2-1.7c0.2,0,0.5,0.1,0.7,0.3c0.2,0.2,0.3,0.4,0.3,0.6c0,0.1,0,0.2,0,0.2
		c0.1,0.3,0.2,0.7,0.2,1.1c0.1,0.2,0.2,0.4,0.2,0.5C227.9,70.1,227.8,70.2,227.8,70.4z M225.9,68.8c-0.3,0-0.9,0.4-1.7,1.2
		c-0.9,0.9-1.3,1.6-1.3,2.1c0,0.4,0.2,0.7,0.5,0.7c0.5,0,1.1-0.4,1.8-1.2c0.7-0.8,1-1.5,1-2.1C226.3,69,226.2,68.8,225.9,68.8z"/>
	<path class="st1" d="M234.5,68.1c-0.1,0.1-0.3,0.2-0.5,0.2c-0.1,0-0.2,0-0.5,0c-0.2,0-0.4,0-0.5,0c-0.5,0-0.7,0.2-0.7,0.5
		c0,0.2,0.2,0.9,0.7,2c0.4,1.1,0.7,1.9,0.7,2.5c0,0.5-0.2,0.9-0.6,1.3c-0.5,0.3-1.1,0.5-1.9,0.5c-1.3,0-1.9-0.3-1.9-0.8
		c0-0.2,0.1-0.4,0.2-0.6c0.1-0.2,0.2-0.3,0.4-0.3c0,0,0.2,0,0.6,0.1c0.4,0.1,0.7,0.1,0.9,0.1c0.6,0,0.9-0.2,0.9-0.6
		c0-0.2-0.2-0.9-0.7-2c-0.4-1.1-0.6-1.9-0.6-2.3c0-0.8,0.4-1.4,1.2-1.7c0.2-0.3,0.5-0.4,1-0.4c0.8,0,1.3,0.3,1.3,0.8
		c0.1,0.1,0.1,0.3,0.1,0.4C234.7,67.9,234.6,68,234.5,68.1z"/>
	<path class="st1" d="M238.4,69.6c-0.4,1.4-0.5,2.6-0.6,3.6c0.2,0.2,0.4,0.5,0.4,0.8c0,0.1-0.1,0.2-0.2,0.3
		c-0.1,0.1-0.2,0.2-0.3,0.2c-0.8,0-1.2-0.7-1.2-2.2c0-0.7,0.2-2,0.7-4c0-0.2-0.1-0.4-0.1-0.4c0-0.2,0.1-0.4,0.4-0.6
		c0.8,0,1.2,0.4,1.2,1.1L238.4,69.6z M238.9,62.7c-0.1,0-0.2,0-0.3-0.1c-0.5-0.2-0.8-0.6-0.8-1.4c0-0.4,0.2-0.6,0.7-0.8
		c0.6,0.1,0.9,0.5,0.9,1.2C239.5,62.3,239.3,62.7,238.9,62.7z"/>
	<path class="st1" d="M246.2,74.6c-1.3,0-2.3-0.6-3-1.8h-0.5c-0.5,0-0.9-0.1-1.4-0.3c-0.6-0.2-0.9-0.6-0.9-1c0-0.5,0.2-0.7,0.7-0.7
		c0.1,0,0.3,0.1,0.5,0.3c0.2,0.2,0.5,0.3,0.7,0.3h0.4c-0.1-0.3-0.1-0.5-0.1-0.7c0-0.8,0.2-1.6,0.6-2.4c0.5-0.9,1.1-1.3,1.9-1.3
		c0.4,0,0.9,0.2,1.3,0.6c0.4,0.4,0.6,0.9,0.6,1.4c0,1.3-0.9,2.4-2.7,3.4c0.4,0.5,0.9,0.8,1.4,0.8c0.1,0,0.4,0,0.7-0.1
		c0.3,0,0.5-0.1,0.7-0.1c0.2,0,0.4,0.1,0.5,0.2c0.1,0.2,0.2,0.4,0.2,0.5C248,74.3,247.4,74.6,246.2,74.6z M245.6,68.6
		c-0.1-0.1-0.3-0.2-0.4-0.2c-0.3,0-0.6,0.3-0.7,0.8c-0.2,0.4-0.2,0.9-0.2,1.4V71c1.1-0.7,1.6-1.3,1.6-1.9
		C245.8,68.9,245.7,68.8,245.6,68.6z"/>
	<path class="st1" d="M255.3,68.6c-0.4,0.2-0.7,0.3-1,0.3c0,0-0.1,0-0.3-0.1c-1.4,0.7-2.3,2.1-2.6,4.3c-0.1,0.6-0.2,0.9-0.2,1.1
		c-0.1,0.3-0.3,0.5-0.5,0.5c-0.2,0-0.4-0.1-0.6-0.3c-0.2-0.2-0.2-0.5-0.2-0.8c0-0.1,0-0.3,0.1-0.7c0.1-0.4,0.1-0.8,0.1-1.3
		c0-0.4-0.1-1-0.1-1.7c-0.3-0.4-0.5-1.1-0.5-1.8c0-0.2,0.1-0.4,0.2-0.5c0.1-0.1,0.2-0.2,0.4-0.2c0.3,0,0.6,0.2,0.8,0.5
		c0.1,0.3,0.3,0.8,0.4,1.6c1.1-1.6,2.3-2.4,3.7-2.4c0.2,0,0.4,0.1,0.7,0.3c0.2,0.2,0.3,0.4,0.3,0.7
		C255.8,68.2,255.7,68.4,255.3,68.6z"/>
	<path class="st1" d="M273.8,69.8c-0.2,1.2-0.5,2.3-1.1,3.2c-0.7,1.2-1.5,1.8-2.5,1.8c-1.1,0-2-0.9-2.5-2.8c-0.5,0.7-1.1,1.4-1.7,2
		c-0.8,0.7-1.4,1.1-1.8,1.1c-0.5,0-1-0.7-1.4-2.2c-0.3-1.2-0.5-2.4-0.5-3.5c0-0.9,0.1-1.7,0.2-2.4c0.1-0.4,0.3-0.6,0.7-0.6
		c0.6,0,0.8,0.4,0.8,1.2c0,0.1-0.1,0.4-0.2,0.8c-0.1,0.4-0.2,0.8-0.2,1c0,1.6,0.2,2.9,0.7,3.8c1.3-0.8,2.3-2.2,3-4
		c0.2-0.4,0.4-0.6,0.7-0.6c0.3,0,0.5,0.2,0.6,0.6c0.4,2.6,0.8,3.9,1.5,3.9c0.6,0,1.2-0.5,1.7-1.6c0.4-1,0.7-2,0.7-3.2
		c0-0.1,0-0.3,0-0.6c0-0.2-0.1-0.4-0.1-0.4c0-0.5,0.2-0.8,0.7-0.8c0.6,0,0.9,0.7,0.9,2.2C274.1,69.3,274,69.6,273.8,69.8z"/>
	<path class="st1" d="M281.8,70.4c-0.2,0.7-0.4,1.4-0.4,2.2c0,0.2,0,0.5,0.1,0.9c0.1,0.4,0.1,0.6,0.1,0.7c0,0.2-0.1,0.4-0.2,0.5
		c-0.2,0.1-0.3,0.2-0.5,0.2c-0.5,0-0.8-0.7-0.9-2c-1,1-1.9,1.5-2.7,1.5c-0.5,0-1-0.2-1.3-0.7c-0.4-0.4-0.6-0.9-0.6-1.4
		c0-1,0.6-2.1,1.8-3.3c1.2-1.1,2.2-1.7,3.2-1.7c0.2,0,0.5,0.1,0.7,0.3c0.2,0.2,0.3,0.4,0.3,0.6c0,0.1,0,0.2,0,0.2
		c0.1,0.3,0.2,0.7,0.2,1.1c0.1,0.2,0.2,0.4,0.2,0.5C281.9,70.1,281.9,70.2,281.8,70.4z M280,68.8c-0.3,0-0.9,0.4-1.7,1.2
		c-0.9,0.9-1.3,1.6-1.3,2.1c0,0.4,0.2,0.7,0.5,0.7c0.5,0,1.1-0.4,1.8-1.2c0.7-0.8,1-1.5,1-2.1C280.3,69,280.2,68.8,280,68.8z"/>
	<path class="st1" d="M288.2,76.7c-1.1,0.9-2.5,1.4-4.2,1.4c-1.1,0-1.6-0.3-1.6-1c0-0.5,0.2-0.7,0.7-0.7c0.2,0,0.5,0.1,1,0.1
		c2.7,0,4.3-1.2,4.7-3.6c0.1-0.5,0.1-1.1,0.1-1.7c-0.9,1.3-1.9,2-2.8,2c-0.6,0-1-0.2-1.3-0.6c-0.3-0.4-0.5-0.8-0.5-1.4
		c0-0.4,0-0.9,0.1-1.7c0.1-0.7,0.1-1.3,0.1-1.6c0-0.1,0-0.2-0.1-0.5c-0.1-0.2-0.1-0.4-0.1-0.5c0-0.4,0.2-0.7,0.8-0.7
		c0.3,0,0.5,0.2,0.7,0.6c0.1,0.3,0.2,0.7,0.2,1.1c0,0.2-0.1,0.7-0.2,1.5c-0.1,0.8-0.2,1.4-0.2,1.6c0,0.3,0.1,0.5,0.4,0.5
		c0.4,0,0.8-0.3,1.2-0.8c0.3-0.4,0.7-1.1,1.3-2c0.3-0.5,0.5-0.7,0.8-0.7c0.5,0,0.8,0.6,0.8,1.9v1.2
		C290.2,73.8,289.5,75.6,288.2,76.7z"/>
	<path class="st1" d="M303.9,68.5c-0.1,0.2-0.3,0.3-0.5,0.3c-0.2,0-0.5-0.1-0.7-0.2c-0.1,0-0.4,0-0.9,0c-0.5,0-0.8,0-1,0
		c-0.3,1.4-0.5,2.2-0.6,2.6c-0.2,1-0.3,1.9-0.4,2.7c0.2,0.1,0.3,0.3,0.3,0.6c0,0.2-0.1,0.3-0.2,0.5c-0.2,0.1-0.3,0.2-0.5,0.2
		c-0.6,0-0.9-0.5-0.9-1.4c0-0.5,0.1-1.4,0.3-2.5l0.5-2.5c-0.5,0-0.8-0.2-0.8-0.8c0-0.3,0.1-0.5,0.3-0.6c0.1-0.1,0.4-0.1,0.8-0.1
		c0.5-1.9,0.8-3.3,1.2-4.4c0.1-0.4,0.3-0.6,0.6-0.6c0.5,0,0.7,0.3,0.8,0.8c-0.1,0.4-0.2,0.8-0.4,1.3c-0.2,0.7-0.4,1.7-0.7,2.8
		c0.1,0,0.6,0,1.3,0c1,0.1,1.5,0.4,1.5,0.9C304.1,68.1,304,68.3,303.9,68.5z"/>
	<path class="st1" d="M309.7,73.2c-0.6,0.8-1.3,1.2-2.2,1.2c-0.7,0-1.4-0.3-1.9-0.9c-0.5-0.6-0.7-1.3-0.7-2.2c0-0.8,0.2-1.5,0.5-2.2
		c0.4-0.7,0.8-1.3,1.4-1.6c0.1-0.1,0.3-0.2,0.6-0.3c0.2-0.1,0.4-0.2,0.5-0.2c0,0,0.2,0,0.4,0.1c0.6,0.2,1.1,0.6,1.5,1.1
		c0.4,0.6,0.6,1.2,0.6,1.9C310.6,71.4,310.3,72.4,309.7,73.2z M308.7,69c-0.3,0-0.5-0.1-0.7-0.2c-0.5,0-0.9,0.3-1.2,0.9
		c-0.3,0.5-0.4,1-0.4,1.6c0,0.4,0.1,0.8,0.3,1.1c0.2,0.3,0.5,0.5,0.8,0.5c0.4,0,0.8-0.3,1.1-0.8c0.3-0.5,0.5-1.1,0.5-1.7
		C309.2,69.7,309,69.2,308.7,69z"/>
	<path class="st1" d="M323.3,68.1c-0.1,0.1-0.3,0.2-0.5,0.2c-0.1,0-0.2,0-0.5,0c-0.2,0-0.4,0-0.5,0c-0.5,0-0.7,0.2-0.7,0.5
		c0,0.2,0.2,0.9,0.7,2c0.4,1.1,0.7,1.9,0.7,2.5c0,0.5-0.2,0.9-0.6,1.3c-0.5,0.3-1.1,0.5-1.9,0.5c-1.3,0-1.9-0.3-1.9-0.8
		c0-0.2,0.1-0.4,0.2-0.6c0.1-0.2,0.2-0.3,0.4-0.3c0,0,0.2,0,0.6,0.1c0.4,0.1,0.7,0.1,0.9,0.1c0.6,0,0.9-0.2,0.9-0.6
		c0-0.2-0.2-0.9-0.7-2c-0.4-1.1-0.6-1.9-0.6-2.3c0-0.8,0.4-1.4,1.2-1.7c0.2-0.3,0.5-0.4,1-0.4c0.8,0,1.3,0.3,1.3,0.8
		c0.1,0.1,0.1,0.3,0.1,0.4C323.5,67.9,323.4,68,323.3,68.1z"/>
	<path class="st1" d="M330.7,68.5c-0.1,0.2-0.3,0.3-0.5,0.3c-0.2,0-0.5-0.1-0.7-0.2c-0.1,0-0.4,0-0.9,0c-0.5,0-0.8,0-1,0
		c-0.3,1.4-0.5,2.2-0.6,2.6c-0.2,1-0.3,1.9-0.4,2.7c0.2,0.1,0.3,0.3,0.3,0.6c0,0.2-0.1,0.3-0.2,0.5c-0.2,0.1-0.3,0.2-0.5,0.2
		c-0.6,0-0.9-0.5-0.9-1.4c0-0.5,0.1-1.4,0.3-2.5l0.5-2.5c-0.5,0-0.8-0.2-0.8-0.8c0-0.3,0.1-0.5,0.3-0.6c0.1-0.1,0.4-0.1,0.8-0.1
		c0.5-1.9,0.8-3.3,1.2-4.4c0.1-0.4,0.3-0.6,0.6-0.6c0.5,0,0.7,0.3,0.8,0.8c-0.1,0.4-0.2,0.8-0.4,1.3c-0.2,0.7-0.4,1.7-0.7,2.8
		c0.1,0,0.6,0,1.3,0c1,0.1,1.5,0.4,1.5,0.9C330.9,68.1,330.9,68.3,330.7,68.5z"/>
	<path class="st1" d="M336.6,73.2c-0.6,0.8-1.3,1.2-2.2,1.2c-0.7,0-1.4-0.3-1.9-0.9c-0.5-0.6-0.7-1.3-0.7-2.2c0-0.8,0.2-1.5,0.5-2.2
		c0.4-0.7,0.8-1.3,1.4-1.6c0.1-0.1,0.3-0.2,0.6-0.3c0.2-0.1,0.4-0.2,0.5-0.2c0,0,0.2,0,0.4,0.1c0.6,0.2,1.1,0.6,1.5,1.1
		c0.4,0.6,0.6,1.2,0.6,1.9C337.4,71.4,337.1,72.4,336.6,73.2z M335.5,69c-0.3,0-0.5-0.1-0.7-0.2c-0.5,0-0.9,0.3-1.2,0.9
		c-0.3,0.5-0.4,1-0.4,1.6c0,0.4,0.1,0.8,0.3,1.1c0.2,0.3,0.5,0.5,0.8,0.5c0.4,0,0.8-0.3,1.1-0.8c0.3-0.5,0.5-1.1,0.5-1.7
		C336,69.7,335.9,69.2,335.5,69z"/>
	<path class="st1" d="M345.3,68.6c-0.4,0.2-0.7,0.3-1,0.3c0,0-0.1,0-0.3-0.1c-1.4,0.7-2.3,2.1-2.6,4.3c-0.1,0.6-0.2,0.9-0.2,1.1
		c-0.1,0.3-0.3,0.5-0.5,0.5c-0.2,0-0.4-0.1-0.6-0.3c-0.2-0.2-0.2-0.5-0.2-0.8c0-0.1,0-0.3,0.1-0.7c0.1-0.4,0.1-0.8,0.1-1.3
		c0-0.4-0.1-1-0.1-1.7c-0.3-0.4-0.5-1.1-0.5-1.8c0-0.2,0.1-0.4,0.2-0.5c0.1-0.1,0.2-0.2,0.4-0.2c0.3,0,0.6,0.2,0.8,0.5
		c0.1,0.3,0.3,0.8,0.4,1.6c1.1-1.6,2.3-2.4,3.7-2.4c0.2,0,0.4,0.1,0.7,0.3c0.2,0.2,0.3,0.4,0.3,0.7
		C345.8,68.2,345.6,68.4,345.3,68.6z"/>
	<path class="st1" d="M351.7,74.6c-1.3,0-2.3-0.6-3-1.8h-0.5c-0.5,0-0.9-0.1-1.4-0.3c-0.6-0.2-0.9-0.6-0.9-1c0-0.5,0.2-0.7,0.7-0.7
		c0.1,0,0.3,0.1,0.5,0.3c0.2,0.2,0.5,0.3,0.7,0.3h0.4c-0.1-0.3-0.1-0.5-0.1-0.7c0-0.8,0.2-1.6,0.6-2.4c0.5-0.9,1.1-1.3,1.9-1.3
		c0.4,0,0.9,0.2,1.3,0.6c0.4,0.4,0.6,0.9,0.6,1.4c0,1.3-0.9,2.4-2.7,3.4c0.4,0.5,0.9,0.8,1.4,0.8c0.1,0,0.4,0,0.7-0.1
		c0.3,0,0.5-0.1,0.7-0.1c0.2,0,0.4,0.1,0.5,0.2c0.1,0.2,0.2,0.4,0.2,0.5C353.5,74.3,352.9,74.6,351.7,74.6z M351.1,68.6
		c-0.1-0.1-0.3-0.2-0.4-0.2c-0.3,0-0.6,0.3-0.7,0.8c-0.2,0.4-0.2,0.9-0.2,1.4V71c1.1-0.7,1.6-1.3,1.6-1.9
		C351.3,68.9,351.2,68.8,351.1,68.6z"/>
</g>
<g>
	<path class="st1" d="M89.5,40.5c4.2-1.9,6.1-6.8,4.3-11.1c-1.5-3.5-5.2-5.5-8.9-5c1.8-3.2,1.3-7.4-1.4-10.1
		c-2.7-2.7-6.9-3.2-10.1-1.4c0.5-3.7-1.5-7.3-5-8.9c-4.2-1.8-9.2,0.1-11.1,4.3C57.3,3.7,53.5,0,48.9,0s-8.4,3.7-8.4,8.3
		c-1.9-4.2-6.8-6.1-11.1-4.3c-3.5,1.5-5.5,5.2-5,8.9c-3.2-1.8-7.4-1.3-10.1,1.4c-2.7,2.7-3.2,6.9-1.4,10.1c-3.7-0.5-7.3,1.5-8.9,5
		c-1.8,4.2,0.1,9.2,4.3,11.1C3.7,40.5,0,44.3,0,48.9c0,4.6,3.7,8.4,8.3,8.4c-4.2,1.9-6.1,6.8-4.3,11.1c1.5,3.5,5.2,5.5,8.9,5
		c-1.8,3.2-1.3,7.4,1.4,10.1c2.7,2.7,6.9,3.2,10.1,1.4c-0.5,3.7,1.5,7.3,5,8.9c4.2,1.8,9.2-0.1,11.1-4.3c0.1,4.6,3.8,8.3,8.4,8.3
		c4.6,0,8.4-3.7,8.4-8.3c1.9,4.2,6.8,6.1,11.1,4.3c3.5-1.5,5.5-5.2,5-8.9c3.2,1.8,7.4,1.3,10.1-1.4c2.7-2.7,3.2-6.9,1.4-10.1
		c3.6,0.5,7.3-1.5,8.9-5c1.8-4.2-0.1-9.2-4.3-11.1c4.6-0.1,8.3-3.8,8.3-8.4C97.8,44.3,94.1,40.5,89.5,40.5"/>
	<path class="st2" d="M83.6,36.4c-1.3-2.4-5.5-3-7.9-3.5c-3.8-0.8-7.6-0.3-11.4,0.5c-0.7,0.2-1.4,0.3-2,0.5
		c-0.8-4.2-4.5-5.4-8.9-5.4h-9c-4.5,0-8.1,1.2-8.9,5.4c-0.6-0.2-1.3-0.4-2.1-0.6c-3.7-0.8-7.6-1.3-11.4-0.5
		c-2.4,0.5-6.6,1.1-7.9,3.5c-0.6,1.2-0.6,3.4,0.1,4.5c1.5,2.4,6.7,2.1,9,1.8c4-0.5,8-2,12.1-1.8l2,21.5c0,5,4.1,9.1,9.1,9.1h4.9
		c5,0,9.1-4.1,9.1-9.1l2-21.5c4-0.1,8,1.4,11.9,1.8c2.4,0.3,7.5,0.6,9-1.8C84.2,39.8,84.3,37.6,83.6,36.4"/>
</g>
<g>
	<defs>
		<path id="SVGID_1_" d="M44.5,28.5c-4.5,0-8.1,1.2-8.9,5.4c-0.6-0.2-1.3-0.4-2.1-0.6c-3.7-0.8-7.6-1.3-11.4-0.5
			c-2.4,0.5-6.6,1.1-7.9,3.5c-0.6,1.2-0.6,3.4,0.1,4.5c1.5,2.4,6.7,2.1,9,1.8c4-0.5,8-2,12.1-1.8l2,21.5c0,5,4.1,9.1,9.1,9.1h4.9
			c5,0,9.1-4.1,9.1-9.1l2-21.5c4-0.1,8,1.4,11.9,1.8c2.4,0.3,7.5,0.6,9-1.8c0.7-1.1,0.8-3.4,0.1-4.5c-1.3-2.4-5.5-3.1-7.9-3.5
			c-3.8-0.8-7.6-0.3-11.4,0.5c-0.7,0.2-1.4,0.3-2,0.5c-0.8-4.2-4.5-5.4-8.9-5.4H44.5z"/>
	</defs>
	<clipPath id="SVGID_2_">
		<use xlink:href="#SVGID_1_"  style="overflow:visible;"/>
	</clipPath>
	<path class="st3" d="M52.7,67.7c0,0-5.3,1.8-1.9,5.1"/>
	<path class="st3" d="M46,67.7c0,0,5.3,1.8,1.9,5.1"/>
</g>
<g>
	<path class="st4" d="M44.3,45.7c0,0.8-0.7,1.5-1.5,1.5c-0.8,0-1.5-0.7-1.5-1.5c0-0.8,0.7-1.5,1.5-1.5
		C43.6,44.1,44.3,44.8,44.3,45.7"/>
	<path class="st4" d="M56.2,45.7c0,0.8-0.7,1.5-1.5,1.5c-0.8,0-1.5-0.7-1.5-1.5c0-0.8,0.7-1.5,1.5-1.5
		C55.5,44.1,56.2,44.8,56.2,45.7"/>
	<path class="st5" d="M83.5,40.9c0.4-0.7,0.6-1.7,0.5-2.7C82,36.9,78.3,36,74.1,36c-6.4,0-11.7,2.1-11.7,4.6c0,0.1,0.1,0.3,0.1,0.4
		v-0.2c4-0.1,8,1.4,11.9,1.8C76.8,43,82,43.3,83.5,40.9"/>
	<path class="st5" d="M14.3,40.9c-0.4-0.7-0.6-1.7-0.5-2.7c2.1-1.3,5.7-2.2,9.9-2.2c6.4,0,11.7,2.1,11.7,4.6c0,0.1-0.1,0.3-0.1,0.4
		v-0.2c-4-0.1-8,1.4-11.9,1.8C21,43,15.9,43.3,14.3,40.9"/>
</g>
</svg>
