<?xml version="1.0" encoding="utf-8"?>
<!-- Generator: Adobe Illustrator 19.0.0, SVG Export Plug-In . SVG Version: 6.00 Build 0)  -->
<svg version="1.1" id="Layer_1" xmlns="http://www.w3.org/2000/svg" xmlns:xlink="http://www.w3.org/1999/xlink" x="0px" y="0px"
	 viewBox="0 0 236.4 173.2" style="enable-background:new 0 0 236.4 173.2;" xml:space="preserve">
<style type="text/css">
	.st0{fill:#2D2D2B;}
	.st1{fill:#E4004D;}
	.st2{fill:#FFFFFF;}
	.st3{clip-path:url(#SVGID_2_);fill:none;stroke:#C9C7CC;stroke-width:0.826;}
	.st4{fill:#1D1D1B;}
	.st5{fill:#FAD8D7;}
</style>
<g>
	<path class="st0" d="M28.7,115.2v2.9v1.5v3.4h-0.2H28h-1.7c-0.5,0-0.8-0.3-0.9-0.8c0-0.3-0.2-1.2-0.3-2.6h-9.5v8.2h10v4.2h-10v8.3
		h9.5c0.1-1.4,0.2-2.3,0.3-2.6c0.1-0.5,0.4-0.8,0.9-0.8H28h0.5h0.2v3.4v1.6v2.9H10.1H7v-2.4c0-0.7,0.3-1.1,1-1.3c0,0,0.1,0,0.2,0
		c0.1,0,0.3-0.1,0.6-0.1c0.3,0,0.7-0.1,1.2-0.2v-21.4c-0.5-0.1-0.9-0.2-1.2-0.2c-0.3,0-0.5-0.1-0.6-0.1c-0.1,0-0.2,0-0.2,0
		c-0.7-0.2-1-0.6-1-1.3v-2.4h3.1H28.7z"/>
	<path class="st0" d="M65.5,123.8v2.4c0,0.7-0.3,1.1-1,1.3c-0.3,0-0.2,0-1.9,0.4l-5.3,16.9h-4.1c-0.4,0-0.7-0.3-0.9-0.9l-3.8-12.1
		c-0.1-0.4-0.3-0.8-0.4-1.2c-0.1-0.4-0.2-0.8-0.2-1.2l-0.2,1.2c-0.1,0.4-0.2,0.8-0.3,1.2l-3.8,12c-0.2,0.6-0.6,0.9-1.1,0.9h-3.8
		l-5.4-16.9c-1.7-0.3-1.6-0.3-1.9-0.4c-0.7-0.2-1-0.6-1-1.3v-2.4h1.7h4h4.5v2.4c0,0.7-0.3,1.1-1,1.3c-0.2,0-0.3,0.1-1.3,0.2l2.2,8.2
		c0.2,0.6,0.3,1.2,0.4,1.8c0.1,0.6,0.2,1.2,0.3,1.8c0.2-0.6,0.3-1.2,0.5-1.8c0.2-0.6,0.3-1.2,0.5-1.8l3.5-11.2
		c0.1-0.3,0.2-0.5,0.5-0.7c0.2-0.2,0.5-0.3,0.9-0.3H49c0.4,0,0.7,0.1,0.9,0.3c0.2,0.2,0.4,0.4,0.5,0.7l3.4,11.4l0.5,1.7
		c0.1,0.6,0.3,1.1,0.4,1.7c0.1-0.6,0.2-1.2,0.3-1.8c0.1-0.6,0.3-1.2,0.4-1.8l2.2-8.2c-1.1-0.2-1.2-0.2-1.5-0.3c-0.7-0.2-1-0.6-1-1.3
		v-2.4H60h0h3.8H65.5z"/>
	<path class="st0" d="M79.7,124.1c1.1,0.4,2,1.1,2.9,1.9c0.8,0.8,1.4,1.8,1.9,3c0.4,1.2,0.7,2.5,0.7,4c0,0.4,0,0.7-0.1,1
		c0,0.2-0.1,0.4-0.2,0.6c-0.1,0.2-0.2,0.2-0.4,0.3c-0.2,0.1-0.3,0.1-0.6,0.1H71c0.2,2.2,0.7,3.7,1.8,4.7c1,1,2.3,1.5,4,1.5
		c0.8,0,1.5-0.1,2.1-0.3c0.6-0.2,1.1-0.4,1.6-0.7c0.4-0.2,0.9-0.4,1.2-0.6c0.3-0.2,0.6-0.3,0.9-0.3c0.2,0,0.4,0,0.6,0.1
		c0.2,0.1,0.2,0.2,0.4,0.3l1.5,1.8c-0.6,0.7-1.2,1.2-1.9,1.7c-0.7,0.4-1.4,0.8-2.2,1.1c-0.8,0.2-1.6,0.4-2.3,0.5
		c-0.8,0.1-1.6,0.2-2.3,0.2c-1.5,0-2.8-0.2-4-0.7c-1.3-0.5-2.3-1.2-3.3-2.2c-0.9-0.9-1.7-2.1-2.2-3.5c-0.5-1.4-0.8-3-0.8-4.9
		c0-1.4,0.2-2.7,0.7-4c0.4-1.3,1.1-2.4,2-3.3c0.9-0.9,1.9-1.7,3.1-2.2c1.2-0.5,2.7-0.8,4.2-0.8C77.4,123.5,78.6,123.7,79.7,124.1z
		 M72.7,128.4c-0.8,0.8-1.3,2-1.6,3.5h9.5c0-0.7-0.1-1.3-0.3-1.8c-0.2-0.6-0.4-1.1-0.8-1.5c-0.4-0.4-0.8-0.8-1.4-1
		c-0.6-0.2-1.2-0.4-2-0.4C74.7,127.1,73.6,127.5,72.7,128.4z"/>
	<path class="st0" d="M115.2,135.5c0,1.3-0.2,2.5-0.7,3.7c-0.4,1.2-1.1,2.2-2,3.1c-0.9,0.9-2,1.6-3.2,2c-1.3,0.5-2.7,0.7-4.3,0.7
		h-0.6c-2.6,0-5.4-0.5-8.4-1.6v-0.7v-6.9h0.2h0.5h1.7c0.5,0,0.8,0.2,0.9,0.7c0.1,0.4,0.2,1.5,0.4,3.4c1.2,0.4,3.1,0.5,5.6,0.5
		c1.6,0,2.8-0.4,3.6-1.1c0.9-0.7,1.3-1.8,1.3-3.2c0-0.8-0.2-1.4-0.6-1.9c-0.4-0.5-0.9-0.9-1.6-1.2c-0.7-0.3-1.3-0.6-2.2-0.9
		c-0.8-0.2-1.7-0.4-2.5-0.7c-0.9-0.3-1.7-0.6-2.5-1c-0.8-0.4-1.6-0.9-2.2-1.5c-0.7-0.6-1.1-1.3-1.5-2.3c-0.4-0.9-0.6-2-0.6-3.4
		c0-1.1,0.2-2.1,0.7-3.1c0.4-1,1.1-2,1.9-2.7c0.8-0.8,1.8-1.4,3-1.9c1.2-0.5,2.6-0.7,4.1-0.7c2.9,0,5.7,0.6,8.4,1.7v7.6h-0.2h-0.5
		h-1.7c-0.5,0-0.8-0.3-0.9-0.8c-0.1-0.4-0.2-1.5-0.4-3.3c-1-0.4-2.7-0.7-4.8-0.7c-0.8,0-1.4,0.1-2,0.2c-0.6,0.2-1.1,0.4-1.4,0.8
		c-0.4,0.3-0.7,0.7-0.9,1.2c-0.2,0.4-0.3,1-0.3,1.5c0,0.7,0.2,1.3,0.6,1.7c0.4,0.4,0.9,0.9,1.5,1.2c0.7,0.3,1.4,0.7,2.2,0.9
		c0.8,0.2,1.6,0.5,2.5,0.8c0.9,0.3,1.7,0.7,2.5,1c0.8,0.4,1.6,0.9,2.2,1.5c0.7,0.6,1.2,1.3,1.6,2.2
		C115.1,133.2,115.2,134.3,115.2,135.5z"/>
	<path class="st0" d="M120.9,143.5c-1-1-1.5-2.4-1.5-4.2v-11.7h-2.1c-0.3,0-0.5-0.1-0.7-0.3c-0.2-0.2-0.3-0.4-0.3-0.8v-2l3.4-0.5
		l1.1-5.7c0-0.3,0.2-0.4,0.4-0.6c0.2-0.2,0.5-0.2,0.8-0.2h2.6v6.6h5.5v3.6h-5.5V139c0,0.7,0.2,1.1,0.5,1.5c0.3,0.4,0.8,0.5,1.3,0.5
		c0.3,0,0.6,0,0.8-0.1c0.2-0.1,0.4-0.2,0.5-0.2c0.2-0.1,0.3-0.2,0.4-0.2c0.1-0.1,0.2-0.1,0.3-0.1c0.2,0,0.3,0,0.4,0.1
		c0.1,0.1,0.2,0.2,0.3,0.3l1.5,2.4c-0.7,0.6-1.6,1.1-2.5,1.4c-0.9,0.3-1.9,0.5-2.9,0.5C123.3,145.1,121.9,144.6,120.9,143.5z"/>
	<path class="st0" d="M147,124.3c1.3,0.5,2.4,1.2,3.3,2.1c0.9,0.9,1.6,2,2,3.4c0.5,1.3,0.7,2.8,0.7,4.4c0,1.7-0.2,3.1-0.7,4.5
		c-0.5,1.3-1.1,2.5-2,3.4c-0.9,0.9-2,1.7-3.3,2.2c-1.3,0.5-2.7,0.7-4.2,0.7c-1.6,0-3-0.2-4.3-0.7c-1.3-0.5-2.4-1.2-3.3-2.2
		c-0.9-0.9-1.6-2.1-2.1-3.4c-0.5-1.3-0.7-2.8-0.7-4.5c0-1.6,0.2-3.1,0.7-4.4c0.5-1.3,1.2-2.4,2.1-3.4c0.9-0.9,2-1.6,3.3-2.1
		c1.3-0.5,2.7-0.8,4.3-0.8C144.3,123.5,145.8,123.8,147,124.3z M146.6,139.4c0.8-1.2,1.3-2.9,1.3-5.1c0-2.2-0.4-4-1.3-5.1
		c-0.8-1.2-2.1-1.8-3.8-1.8c-1.8,0-3.1,0.6-3.9,1.8c-0.9,1.2-1.3,2.9-1.3,5.2c0,2.2,0.4,3.9,1.3,5.1c0.9,1.2,2.2,1.8,3.9,1.8
		C144.5,141.2,145.8,140.6,146.6,139.4z"/>
	<path class="st0" d="M171,124.1l-0.7,3.8c0,0.2-0.1,0.4-0.2,0.5c-0.1,0.1-0.3,0.2-0.6,0.2c-0.2,0-0.4,0-0.8-0.1
		c-0.4-0.1-0.9-0.2-1.4-0.2c-1.1,0-2,0.3-2.7,0.9c-0.7,0.6-1.3,1.5-1.9,2.6v9c1.8,0.3,1.7,0.3,2,0.4c0.7,0.2,1,0.6,1,1.3v2.4h-3.1
		h-5.1h-3.1v-2.4c0-0.7,0.3-1.1,1-1.3c0.3,0,0.3,0,2-0.4v-12.9c-1.8-0.3-1.7-0.3-2-0.4c-0.7-0.2-1-0.6-1-1.3v-2.4h3.1h3
		c0.5,0,0.9,0.1,1.1,0.3c0.2,0.2,0.3,0.5,0.4,1l0.3,2.5c0.7-1.3,1.6-2.3,2.6-3.1c1-0.7,2.1-1.1,3.4-1.1
		C169.4,123.5,170.3,123.7,171,124.1z"/>
	<path class="st0" d="M185.9,124.1c1.1,0.4,2,1.1,2.9,1.9c0.8,0.8,1.4,1.8,1.9,3c0.4,1.2,0.7,2.5,0.7,4c0,0.4,0,0.7-0.1,1
		c0,0.2-0.1,0.4-0.2,0.6c-0.1,0.2-0.2,0.2-0.4,0.3c-0.2,0.1-0.3,0.1-0.6,0.1h-12.9c0.2,2.2,0.7,3.7,1.8,4.7c1,1,2.3,1.5,4,1.5
		c0.8,0,1.5-0.1,2.1-0.3c0.6-0.2,1.1-0.4,1.6-0.7c0.4-0.2,0.9-0.4,1.2-0.6c0.3-0.2,0.6-0.3,0.9-0.3c0.2,0,0.4,0,0.6,0.1
		c0.2,0.1,0.2,0.2,0.4,0.3l1.5,1.8c-0.6,0.7-1.2,1.2-1.9,1.7c-0.7,0.4-1.4,0.8-2.2,1.1c-0.8,0.2-1.6,0.4-2.3,0.5
		c-0.8,0.1-1.6,0.2-2.3,0.2c-1.5,0-2.8-0.2-4-0.7c-1.3-0.5-2.3-1.2-3.3-2.2c-0.9-0.9-1.7-2.1-2.2-3.5c-0.5-1.4-0.8-3-0.8-4.9
		c0-1.4,0.2-2.7,0.7-4c0.4-1.3,1.1-2.4,2-3.3c0.9-0.9,1.9-1.7,3.1-2.2c1.2-0.5,2.7-0.8,4.2-0.8C183.5,123.5,184.8,123.7,185.9,124.1
		z M178.9,128.4c-0.8,0.8-1.3,2-1.6,3.5h9.5c0-0.7-0.1-1.3-0.3-1.8c-0.2-0.6-0.4-1.1-0.8-1.5c-0.4-0.4-0.8-0.8-1.4-1
		c-0.6-0.2-1.2-0.4-2-0.4C180.8,127.1,179.7,127.5,178.9,128.4z"/>
	<path class="st0" d="M212.6,119c-0.1,0-0.3,0.1-0.6,0.1c-0.3,0-0.7,0.1-1.2,0.2v21.4c0.5,0.1,0.9,0.2,1.2,0.2
		c0.3,0,0.5,0.1,0.6,0.1c0.1,0,0.2,0,0.2,0c0.7,0.2,1,0.6,1,1.3v2.4h-3.1h-5.5h-3.1v-2.4c0-0.7,0.3-1.1,1-1.3c0,0,0.1,0,0.2,0
		c0.1,0,0.3-0.1,0.6-0.1c0.3,0,0.7-0.1,1.2-0.2v-21.4c-0.5-0.1-0.9-0.2-1.2-0.2c-0.3,0-0.5-0.1-0.6-0.1c-0.1,0-0.2,0-0.2,0
		c-0.7-0.2-1-0.6-1-1.3v-2.4h3.1h5.5h3.1v2.4c0,0.7-0.3,1.1-1,1.3C212.8,118.9,212.7,119,212.6,119z"/>
	<path class="st0" d="M219.7,143.5c-1-1-1.5-2.4-1.5-4.2v-11.7h-2.1c-0.3,0-0.5-0.1-0.7-0.3c-0.2-0.2-0.3-0.4-0.3-0.8v-2l3.4-0.5
		l1.1-5.7c0-0.3,0.2-0.4,0.4-0.6s0.5-0.2,0.8-0.2h2.6v6.6h5.5v3.6h-5.5V139c0,0.7,0.2,1.1,0.5,1.5c0.3,0.4,0.8,0.5,1.3,0.5
		c0.3,0,0.6,0,0.8-0.1c0.2-0.1,0.4-0.2,0.5-0.2c0.2-0.1,0.3-0.2,0.4-0.2c0.1-0.1,0.2-0.1,0.3-0.1c0.2,0,0.3,0,0.4,0.1
		c0.1,0.1,0.2,0.2,0.3,0.3l1.5,2.4c-0.7,0.6-1.6,1.1-2.5,1.4c-0.9,0.3-1.9,0.5-2.9,0.5C222.1,145.1,220.7,144.6,219.7,143.5z"/>
</g>
<g>
	<path class="st1" d="M10.5,157.2l-1.5,0.6c-0.2,0-0.5-0.1-0.6-0.2c-0.4,0.1-1,0.2-2,0.6c-0.2,2.7-0.4,4.9-0.4,6.8
		c0,0.8,0,1.6,0.1,2.4c0.1,0.1,0.2,0.4,0.2,0.6v1.2c0,0.7-0.2,1-0.7,1c-0.4,0-0.7-0.2-0.7-0.7c-0.2-1.5-0.2-3.3-0.2-5.4
		c0-1.1,0.1-3,0.3-5.7c-2,0.6-3.5,0.9-4.3,1c-0.4,0-0.6-0.2-0.6-0.7c0-0.4,0.2-0.7,0.6-0.8c3.9-0.9,6.7-1.6,8.4-2
		c0.6-0.1,1.1-0.2,1.4-0.2c0.1,0,0.3,0.1,0.4,0.2c0.1,0.2,0.2,0.3,0.2,0.5C11,156.8,10.8,157,10.5,157.2z"/>
	<path class="st1" d="M17.8,169.8c-0.7,0-1.1-0.8-1.2-2.5l-0.1-2.1c-1.6,1.2-2.6,2.2-3.1,3c-0.1,0.3-0.2,0.6-0.4,0.8
		c-0.2,0.4-0.4,0.6-0.5,0.6c-0.3,0-0.5-0.1-0.7-0.3c-0.2-0.2-0.3-0.5-0.3-0.7c0,0,0-0.2,0-0.5c0-0.3,0-0.5,0-0.6
		c0-1.7,0.1-3.4,0.5-5l1-5.6c0.1-0.6,0.3-0.9,0.6-0.9c0.2,0,0.4,0.1,0.6,0.4c0.2,0.2,0.3,0.5,0.3,0.7c0,0.1-0.1,0.4-0.1,0.9
		c-0.1,0.5-0.3,1.3-0.4,2.3l-0.5,2.8c-0.1,0.5-0.2,1.5-0.4,3.1c0.4-0.5,1.1-1.1,2-1.9c1-0.8,1.7-1.2,2-1.2c0.3,0,0.5,0.1,0.7,0.3
		c0.2,0.2,0.3,0.5,0.3,0.8c0,0.1,0,0.3-0.1,0.7c0,0.4,0,0.7,0,0.8c0,0.7,0.1,1.5,0.2,2.4c0,0.3,0.1,0.7,0.1,1.1
		C18.1,169.7,18,169.8,17.8,169.8z"/>
	<path class="st1" d="M25.1,169.7c-1.3,0-2.3-0.6-3-1.8h-0.5c-0.5,0-0.9-0.1-1.4-0.3c-0.6-0.2-0.9-0.6-0.9-1c0-0.5,0.2-0.7,0.7-0.7
		c0.1,0,0.3,0.1,0.5,0.3c0.2,0.2,0.5,0.3,0.7,0.3h0.4c-0.1-0.3-0.1-0.5-0.1-0.7c0-0.8,0.2-1.6,0.6-2.4c0.5-0.9,1.1-1.3,1.9-1.3
		c0.4,0,0.9,0.2,1.3,0.6c0.4,0.4,0.6,0.9,0.6,1.4c0,1.3-0.9,2.4-2.7,3.4c0.4,0.5,0.9,0.8,1.4,0.8c0.1,0,0.4,0,0.7-0.1
		c0.3,0,0.5-0.1,0.7-0.1c0.2,0,0.4,0.1,0.5,0.2c0.1,0.2,0.2,0.4,0.2,0.5C26.9,169.4,26.3,169.7,25.1,169.7z M24.5,163.7
		c-0.1-0.1-0.3-0.2-0.4-0.2c-0.3,0-0.6,0.3-0.7,0.8c-0.2,0.4-0.2,0.9-0.2,1.4v0.3c1.1-0.7,1.6-1.3,1.6-1.9
		C24.7,164,24.6,163.9,24.5,163.7z"/>
	<path class="st1" d="M38.9,168.7c-0.7,0.5-1.4,0.8-2,0.8c-0.7,0-1.4-0.2-1.9-0.7c-0.5-0.5-0.7-1.1-0.7-1.9c0-1.1,0.3-2.1,1-3
		c0.8-1.1,1.8-1.7,3-1.7c0.3,0,0.5,0.1,0.7,0.2c0.2,0.2,0.3,0.4,0.3,0.7c0,0.2-0.1,0.4-0.3,0.6c-0.2,0.2-0.5,0.3-0.7,0.3
		c-0.4,0-0.8-0.1-1-0.2c-0.5,0.3-0.9,0.8-1.2,1.3c-0.3,0.5-0.5,1.1-0.5,1.6c0,0.9,0.3,1.3,1,1.3c0.4,0,0.8-0.1,1.1-0.3
		c0.2-0.2,0.4-0.4,0.6-0.5c0.2-0.2,0.5-0.4,0.6-0.4c0.2,0,0.3,0.1,0.5,0.2c0.1,0.2,0.2,0.4,0.2,0.5
		C39.7,167.9,39.4,168.3,38.9,168.7z"/>
	<path class="st1" d="M47.6,169.8c-0.7,0-1.1-0.8-1.2-2.5l-0.1-2.1c-1.6,1.2-2.6,2.2-3.1,3c-0.1,0.3-0.2,0.6-0.4,0.8
		c-0.2,0.4-0.4,0.6-0.5,0.6c-0.3,0-0.5-0.1-0.7-0.3c-0.2-0.2-0.3-0.5-0.3-0.7c0,0,0-0.2,0-0.5c0-0.3,0-0.5,0-0.6
		c0-1.7,0.1-3.4,0.5-5l1-5.6c0.1-0.6,0.3-0.9,0.6-0.9c0.2,0,0.4,0.1,0.6,0.4c0.2,0.2,0.3,0.5,0.3,0.7c0,0.1-0.1,0.4-0.1,0.9
		c-0.1,0.5-0.3,1.3-0.4,2.3l-0.5,2.8c-0.1,0.5-0.2,1.5-0.4,3.1c0.4-0.5,1.1-1.1,2-1.9c1-0.8,1.7-1.2,2-1.2c0.3,0,0.5,0.1,0.7,0.3
		c0.2,0.2,0.3,0.5,0.3,0.8c0,0.1,0,0.3-0.1,0.7c0,0.4,0,0.7,0,0.8c0,0.7,0.1,1.5,0.2,2.4c0,0.3,0.1,0.7,0.1,1.1
		C47.9,169.7,47.8,169.8,47.6,169.8z"/>
	<path class="st1" d="M55,169.7c-1.3,0-2.3-0.6-3-1.8h-0.5c-0.5,0-0.9-0.1-1.4-0.3c-0.6-0.2-0.9-0.6-0.9-1c0-0.5,0.2-0.7,0.7-0.7
		c0.1,0,0.3,0.1,0.5,0.3c0.2,0.2,0.5,0.3,0.7,0.3h0.4c-0.1-0.3-0.1-0.5-0.1-0.7c0-0.8,0.2-1.6,0.6-2.4c0.5-0.9,1.1-1.3,1.9-1.3
		c0.4,0,0.9,0.2,1.3,0.6c0.4,0.4,0.6,0.9,0.6,1.4c0,1.3-0.9,2.4-2.7,3.4c0.4,0.5,0.9,0.8,1.4,0.8c0.1,0,0.4,0,0.7-0.1
		c0.3,0,0.5-0.1,0.7-0.1c0.2,0,0.4,0.1,0.5,0.2c0.1,0.2,0.2,0.4,0.2,0.5C56.8,169.4,56.2,169.7,55,169.7z M54.4,163.7
		c-0.1-0.1-0.3-0.2-0.4-0.2c-0.3,0-0.6,0.3-0.7,0.8c-0.2,0.4-0.2,0.9-0.2,1.4v0.3c1.1-0.7,1.6-1.3,1.6-1.9
		C54.5,164,54.5,163.9,54.4,163.7z"/>
	<path class="st1" d="M64.4,165.5c-0.2,0.7-0.4,1.4-0.4,2.2c0,0.2,0,0.5,0.1,0.9c0.1,0.4,0.1,0.6,0.1,0.7c0,0.2-0.1,0.4-0.2,0.5
		c-0.2,0.1-0.3,0.2-0.5,0.2c-0.5,0-0.8-0.7-0.9-2c-1,1-1.9,1.5-2.7,1.5c-0.5,0-1-0.2-1.3-0.7c-0.4-0.4-0.6-0.9-0.6-1.4
		c0-1,0.6-2.1,1.8-3.3c1.2-1.1,2.2-1.7,3.2-1.7c0.2,0,0.5,0.1,0.7,0.3c0.2,0.2,0.3,0.4,0.3,0.6c0,0.1,0,0.2,0,0.2
		c0.1,0.3,0.2,0.7,0.2,1.1c0.1,0.2,0.2,0.4,0.2,0.5C64.5,165.2,64.4,165.3,64.4,165.5z M62.5,163.9c-0.3,0-0.9,0.4-1.7,1.2
		c-0.9,0.9-1.3,1.6-1.3,2.1c0,0.4,0.2,0.7,0.5,0.7c0.5,0,1.1-0.4,1.8-1.2c0.7-0.8,1-1.5,1-2.1C62.9,164.1,62.8,163.9,62.5,163.9z"/>
	<path class="st1" d="M68.4,167.5c0.1,0.7,0.1,1.4,0.1,2.2c0,0.8-0.1,1.6-0.3,2.5c-0.2,0.7-0.4,1.1-0.8,1.1c-0.2,0-0.4-0.1-0.5-0.2
		c-0.1-0.2-0.2-0.3-0.2-0.5c0-0.1,0.1-0.3,0.2-0.8c0.1-0.5,0.2-1.3,0.2-2.4c0-0.6,0-1-0.1-1.3c-0.5,0-0.7-0.3-0.7-0.7
		c0-0.4,0.2-0.6,0.7-0.8c0-0.1,0-0.2,0-0.4c0-1.4,0.2-2.6,0.6-3.7c0.6-1.6,1.5-2.3,2.6-2.3c0.8,0,1.4,0.3,1.8,0.9
		c0.4,0.6,0.6,1.3,0.6,2.1C72.7,165,71.3,166.5,68.4,167.5z M71,161.9c-0.2-0.2-0.4-0.4-0.7-0.4c-0.5,0-0.9,0.5-1.3,1.6
		c-0.3,1-0.5,1.9-0.5,2.9c1.9-0.7,2.8-1.7,2.8-3.2C71.3,162.4,71.2,162.1,71,161.9z"/>
	<path class="st1" d="M79.6,169.7c-1.3,0-2.3-0.6-3-1.8h-0.5c-0.5,0-0.9-0.1-1.4-0.3c-0.6-0.2-0.9-0.6-0.9-1c0-0.5,0.2-0.7,0.7-0.7
		c0.1,0,0.3,0.1,0.5,0.3c0.2,0.2,0.5,0.3,0.7,0.3h0.4c-0.1-0.3-0.1-0.5-0.1-0.7c0-0.8,0.2-1.6,0.6-2.4c0.5-0.9,1.1-1.3,1.9-1.3
		c0.4,0,0.9,0.2,1.3,0.6c0.4,0.4,0.6,0.9,0.6,1.4c0,1.3-0.9,2.4-2.7,3.4c0.4,0.5,0.9,0.8,1.4,0.8c0.1,0,0.4,0,0.7-0.1
		c0.3,0,0.5-0.1,0.7-0.1c0.2,0,0.4,0.1,0.5,0.2c0.1,0.2,0.2,0.4,0.2,0.5C81.4,169.4,80.8,169.7,79.6,169.7z M79,163.7
		c-0.1-0.1-0.3-0.2-0.4-0.2c-0.3,0-0.6,0.3-0.7,0.8c-0.2,0.4-0.2,0.9-0.2,1.4v0.3c1.1-0.7,1.6-1.3,1.6-1.9
		C79.2,164,79.1,163.9,79,163.7z"/>
	<path class="st1" d="M88.8,163.7c-0.4,0.2-0.7,0.3-1,0.3c0,0-0.1,0-0.3-0.1c-1.4,0.7-2.3,2.1-2.6,4.3c-0.1,0.6-0.2,0.9-0.2,1.1
		c-0.1,0.3-0.3,0.5-0.5,0.5c-0.2,0-0.4-0.1-0.6-0.3c-0.2-0.2-0.2-0.5-0.2-0.8c0-0.1,0-0.3,0.1-0.7c0.1-0.4,0.1-0.8,0.1-1.3
		c0-0.4-0.1-1-0.1-1.7c-0.3-0.4-0.5-1.1-0.5-1.8c0-0.2,0.1-0.4,0.2-0.5c0.1-0.1,0.2-0.2,0.4-0.2c0.3,0,0.6,0.2,0.8,0.5
		c0.1,0.3,0.3,0.8,0.4,1.6c1.1-1.6,2.3-2.4,3.7-2.4c0.2,0,0.4,0.1,0.7,0.3c0.2,0.2,0.3,0.4,0.3,0.7
		C89.3,163.3,89.1,163.5,88.8,163.7z"/>
	<path class="st1" d="M101.2,169.7c-1.3,0-2.3-0.6-3-1.8h-0.5c-0.5,0-0.9-0.1-1.4-0.3c-0.6-0.2-0.9-0.6-0.9-1c0-0.5,0.2-0.7,0.7-0.7
		c0.1,0,0.3,0.1,0.5,0.3c0.2,0.2,0.5,0.3,0.7,0.3h0.4c-0.1-0.3-0.1-0.5-0.1-0.7c0-0.8,0.2-1.6,0.6-2.4c0.5-0.9,1.1-1.3,1.9-1.3
		c0.4,0,0.9,0.2,1.3,0.6c0.4,0.4,0.6,0.9,0.6,1.4c0,1.3-0.9,2.4-2.7,3.4c0.4,0.5,0.9,0.8,1.4,0.8c0.1,0,0.4,0,0.7-0.1
		c0.3,0,0.5-0.1,0.7-0.1c0.2,0,0.4,0.1,0.5,0.2c0.1,0.2,0.2,0.4,0.2,0.5C103,169.4,102.4,169.7,101.2,169.7z M100.6,163.7
		c-0.1-0.1-0.3-0.2-0.4-0.2c-0.3,0-0.6,0.3-0.7,0.8c-0.2,0.4-0.2,0.9-0.2,1.4v0.3c1.1-0.7,1.6-1.3,1.6-1.9
		C100.8,164,100.7,163.9,100.6,163.7z"/>
	<path class="st1" d="M110.6,165.5c-0.2,0.7-0.4,1.4-0.4,2.2c0,0.2,0,0.5,0.1,0.9c0.1,0.4,0.1,0.6,0.1,0.7c0,0.2-0.1,0.4-0.2,0.5
		c-0.2,0.1-0.3,0.2-0.5,0.2c-0.5,0-0.8-0.7-0.9-2c-1,1-1.9,1.5-2.7,1.5c-0.5,0-1-0.2-1.3-0.7c-0.4-0.4-0.6-0.9-0.6-1.4
		c0-1,0.6-2.1,1.8-3.3c1.2-1.1,2.2-1.7,3.2-1.7c0.2,0,0.5,0.1,0.7,0.3c0.2,0.2,0.3,0.4,0.3,0.6c0,0.1,0,0.2,0,0.2
		c0.1,0.3,0.2,0.7,0.2,1.1c0.1,0.2,0.2,0.4,0.2,0.5C110.7,165.2,110.7,165.3,110.6,165.5z M108.8,163.9c-0.3,0-0.9,0.4-1.7,1.2
		c-0.9,0.9-1.3,1.6-1.3,2.1c0,0.4,0.2,0.7,0.5,0.7c0.5,0,1.1-0.4,1.8-1.2c0.7-0.8,1-1.5,1-2.1C109.1,164.1,109,163.9,108.8,163.9z"
		/>
	<path class="st1" d="M117.4,163.2c-0.1,0.1-0.3,0.2-0.5,0.2c-0.1,0-0.2,0-0.5,0c-0.2,0-0.4,0-0.5,0c-0.5,0-0.7,0.2-0.7,0.5
		c0,0.2,0.2,0.9,0.7,2c0.4,1.1,0.7,1.9,0.7,2.5c0,0.5-0.2,0.9-0.6,1.3c-0.5,0.3-1.1,0.5-1.9,0.5c-1.3,0-1.9-0.3-1.9-0.8
		c0-0.2,0.1-0.4,0.2-0.6c0.1-0.2,0.2-0.3,0.4-0.3c0,0,0.2,0,0.6,0.1c0.4,0.1,0.7,0.1,0.9,0.1c0.6,0,0.9-0.2,0.9-0.6
		c0-0.2-0.2-0.9-0.7-2c-0.4-1.1-0.6-1.9-0.6-2.3c0-0.8,0.4-1.4,1.2-1.7c0.2-0.3,0.5-0.4,1-0.4c0.8,0,1.3,0.3,1.3,0.8
		c0.1,0.1,0.1,0.3,0.1,0.4C117.6,163,117.5,163.1,117.4,163.2z"/>
	<path class="st1" d="M121.3,164.7c-0.4,1.4-0.5,2.6-0.6,3.6c0.2,0.2,0.4,0.5,0.4,0.8c0,0.1-0.1,0.2-0.2,0.3
		c-0.1,0.1-0.2,0.2-0.3,0.2c-0.8,0-1.2-0.7-1.2-2.2c0-0.7,0.2-2,0.7-4c0-0.2-0.1-0.4-0.1-0.4c0-0.2,0.1-0.4,0.4-0.6
		c0.8,0,1.2,0.4,1.2,1.1L121.3,164.7z M121.8,157.8c-0.1,0-0.2,0-0.3-0.1c-0.5-0.2-0.8-0.6-0.8-1.4c0-0.4,0.2-0.6,0.7-0.8
		c0.6,0.1,0.9,0.5,0.9,1.2C122.4,157.4,122.2,157.8,121.8,157.8z"/>
	<path class="st1" d="M129.1,169.7c-1.3,0-2.3-0.6-3-1.8h-0.5c-0.5,0-0.9-0.1-1.4-0.3c-0.6-0.2-0.9-0.6-0.9-1c0-0.5,0.2-0.7,0.7-0.7
		c0.1,0,0.3,0.1,0.5,0.3c0.2,0.2,0.5,0.3,0.7,0.3h0.4c-0.1-0.3-0.1-0.5-0.1-0.7c0-0.8,0.2-1.6,0.6-2.4c0.5-0.9,1.1-1.3,1.9-1.3
		c0.4,0,0.9,0.2,1.3,0.6c0.4,0.4,0.6,0.9,0.6,1.4c0,1.3-0.9,2.4-2.7,3.4c0.4,0.5,0.9,0.8,1.4,0.8c0.1,0,0.4,0,0.7-0.1
		c0.3,0,0.5-0.1,0.7-0.1c0.2,0,0.4,0.1,0.5,0.2c0.1,0.2,0.2,0.4,0.2,0.5C130.9,169.4,130.3,169.7,129.1,169.7z M128.5,163.7
		c-0.1-0.1-0.3-0.2-0.4-0.2c-0.3,0-0.6,0.3-0.7,0.8c-0.2,0.4-0.2,0.9-0.2,1.4v0.3c1.1-0.7,1.6-1.3,1.6-1.9
		C128.7,164,128.6,163.9,128.5,163.7z"/>
	<path class="st1" d="M138.2,163.7c-0.4,0.2-0.7,0.3-1,0.3c0,0-0.1,0-0.3-0.1c-1.4,0.7-2.3,2.1-2.6,4.3c-0.1,0.6-0.2,0.9-0.2,1.1
		c-0.1,0.3-0.3,0.5-0.5,0.5c-0.2,0-0.4-0.1-0.6-0.3c-0.2-0.2-0.2-0.5-0.2-0.8c0-0.1,0-0.3,0.1-0.7c0.1-0.4,0.1-0.8,0.1-1.3
		c0-0.4-0.1-1-0.1-1.7c-0.3-0.4-0.5-1.1-0.5-1.8c0-0.2,0.1-0.4,0.2-0.5c0.1-0.1,0.2-0.2,0.4-0.2c0.3,0,0.6,0.2,0.8,0.5
		c0.1,0.3,0.3,0.8,0.4,1.6c1.1-1.6,2.3-2.4,3.7-2.4c0.2,0,0.4,0.1,0.7,0.3c0.2,0.2,0.3,0.4,0.3,0.7
		C138.7,163.3,138.5,163.5,138.2,163.7z"/>
	<path class="st1" d="M156.7,164.9c-0.2,1.2-0.5,2.3-1.1,3.2c-0.7,1.2-1.5,1.8-2.5,1.8c-1.1,0-2-0.9-2.5-2.8c-0.5,0.7-1.1,1.4-1.7,2
		c-0.8,0.7-1.4,1.1-1.8,1.1c-0.5,0-1-0.7-1.4-2.2c-0.3-1.2-0.5-2.4-0.5-3.5c0-0.9,0.1-1.7,0.2-2.4c0.1-0.4,0.3-0.6,0.7-0.6
		c0.6,0,0.8,0.4,0.8,1.2c0,0.1-0.1,0.4-0.2,0.8c-0.1,0.4-0.2,0.8-0.2,1c0,1.6,0.2,2.9,0.7,3.8c1.3-0.8,2.3-2.2,3-4
		c0.2-0.4,0.4-0.6,0.7-0.6c0.3,0,0.5,0.2,0.6,0.6c0.4,2.6,0.8,3.9,1.5,3.9c0.6,0,1.2-0.5,1.7-1.6c0.4-1,0.7-2,0.7-3.2
		c0-0.1,0-0.3,0-0.6c0-0.2-0.1-0.4-0.1-0.4c0-0.5,0.2-0.8,0.7-0.8c0.6,0,0.9,0.7,0.9,2.2C157,164.4,156.9,164.7,156.7,164.9z"/>
	<path class="st1" d="M164.7,165.5c-0.2,0.7-0.4,1.4-0.4,2.2c0,0.2,0,0.5,0.1,0.9c0.1,0.4,0.1,0.6,0.1,0.7c0,0.2-0.1,0.4-0.2,0.5
		c-0.2,0.1-0.3,0.2-0.5,0.2c-0.5,0-0.8-0.7-0.9-2c-1,1-1.9,1.5-2.7,1.5c-0.5,0-1-0.2-1.3-0.7c-0.4-0.4-0.6-0.9-0.6-1.4
		c0-1,0.6-2.1,1.8-3.3c1.2-1.1,2.2-1.7,3.2-1.7c0.2,0,0.5,0.1,0.7,0.3c0.2,0.2,0.3,0.4,0.3,0.6c0,0.1,0,0.2,0,0.2
		c0.1,0.3,0.2,0.7,0.2,1.1c0.1,0.2,0.2,0.4,0.2,0.5C164.8,165.2,164.8,165.3,164.7,165.5z M162.9,163.9c-0.3,0-0.9,0.4-1.7,1.2
		c-0.9,0.9-1.3,1.6-1.3,2.1c0,0.4,0.2,0.7,0.5,0.7c0.5,0,1.1-0.4,1.8-1.2c0.7-0.8,1-1.5,1-2.1C163.2,164.1,163.1,163.9,162.9,163.9z
		"/>
	<path class="st1" d="M171,171.9c-1.1,0.9-2.5,1.4-4.2,1.4c-1.1,0-1.6-0.3-1.6-1c0-0.5,0.2-0.7,0.7-0.7c0.2,0,0.5,0.1,1,0.1
		c2.7,0,4.3-1.2,4.7-3.6c0.1-0.5,0.1-1.1,0.1-1.7c-0.9,1.3-1.9,2-2.8,2c-0.6,0-1-0.2-1.3-0.6c-0.3-0.4-0.5-0.8-0.5-1.4
		c0-0.4,0-0.9,0.1-1.7c0.1-0.7,0.1-1.3,0.1-1.6c0-0.1,0-0.2-0.1-0.5c-0.1-0.2-0.1-0.4-0.1-0.5c0-0.4,0.2-0.7,0.8-0.7
		c0.3,0,0.5,0.2,0.7,0.6c0.1,0.3,0.2,0.7,0.2,1.1c0,0.2-0.1,0.7-0.2,1.5c-0.1,0.8-0.2,1.4-0.2,1.6c0,0.3,0.1,0.5,0.4,0.5
		c0.4,0,0.8-0.3,1.2-0.8c0.3-0.4,0.7-1.1,1.3-2c0.3-0.5,0.5-0.7,0.8-0.7c0.5,0,0.8,0.6,0.8,1.9v1.2C173,168.9,172.4,170.7,171,171.9
		z"/>
	<path class="st1" d="M186.7,163.6c-0.1,0.2-0.3,0.3-0.5,0.3c-0.2,0-0.5-0.1-0.7-0.2c-0.1,0-0.4,0-0.9,0c-0.5,0-0.8,0-1,0
		c-0.3,1.4-0.5,2.2-0.6,2.6c-0.2,1-0.3,1.9-0.4,2.7c0.2,0.1,0.3,0.3,0.3,0.6c0,0.2-0.1,0.3-0.2,0.5c-0.2,0.1-0.3,0.2-0.5,0.2
		c-0.6,0-0.9-0.5-0.9-1.4c0-0.5,0.1-1.4,0.3-2.5l0.5-2.5c-0.5,0-0.8-0.2-0.8-0.8c0-0.3,0.1-0.5,0.3-0.6c0.1-0.1,0.4-0.1,0.8-0.1
		c0.5-1.9,0.8-3.3,1.2-4.4c0.1-0.4,0.3-0.6,0.6-0.6c0.5,0,0.7,0.3,0.8,0.8c-0.1,0.4-0.2,0.8-0.4,1.3c-0.2,0.7-0.4,1.7-0.7,2.8
		c0.1,0,0.6,0,1.3,0c1,0.1,1.5,0.4,1.5,0.9C186.9,163.2,186.9,163.4,186.7,163.6z"/>
	<path class="st1" d="M192.6,168.3c-0.6,0.8-1.3,1.2-2.2,1.2c-0.7,0-1.4-0.3-1.9-0.9c-0.5-0.6-0.7-1.3-0.7-2.2
		c0-0.8,0.2-1.5,0.5-2.2c0.4-0.7,0.8-1.3,1.4-1.6c0.1-0.1,0.3-0.2,0.6-0.3c0.2-0.1,0.4-0.2,0.5-0.2c0,0,0.2,0,0.4,0.1
		c0.6,0.2,1.1,0.6,1.5,1.1c0.4,0.6,0.6,1.2,0.6,1.9C193.4,166.5,193.1,167.5,192.6,168.3z M191.5,164.1c-0.3,0-0.5-0.1-0.7-0.2
		c-0.5,0-0.9,0.3-1.2,0.9c-0.3,0.5-0.4,1-0.4,1.6c0,0.4,0.1,0.8,0.3,1.1c0.2,0.3,0.5,0.5,0.8,0.5c0.4,0,0.8-0.3,1.1-0.8
		c0.3-0.5,0.5-1.1,0.5-1.7C192,164.8,191.9,164.3,191.5,164.1z"/>
	<path class="st1" d="M206.1,163.2c-0.1,0.1-0.3,0.2-0.5,0.2c-0.1,0-0.2,0-0.5,0c-0.2,0-0.4,0-0.5,0c-0.5,0-0.7,0.2-0.7,0.5
		c0,0.2,0.2,0.9,0.7,2c0.4,1.1,0.7,1.9,0.7,2.5c0,0.5-0.2,0.9-0.6,1.3c-0.5,0.3-1.1,0.5-1.9,0.5c-1.3,0-1.9-0.3-1.9-0.8
		c0-0.2,0.1-0.4,0.2-0.6c0.1-0.2,0.2-0.3,0.4-0.3c0,0,0.2,0,0.6,0.1c0.4,0.1,0.7,0.1,0.9,0.1c0.6,0,0.9-0.2,0.9-0.6
		c0-0.2-0.2-0.9-0.7-2c-0.4-1.1-0.6-1.9-0.6-2.3c0-0.8,0.4-1.4,1.2-1.7c0.2-0.3,0.5-0.4,1-0.4c0.8,0,1.3,0.3,1.3,0.8
		c0.1,0.1,0.1,0.3,0.1,0.4C206.3,163,206.3,163.1,206.1,163.2z"/>
	<path class="st1" d="M213.6,163.6c-0.1,0.2-0.3,0.3-0.5,0.3c-0.2,0-0.5-0.1-0.7-0.2c-0.1,0-0.4,0-0.9,0c-0.5,0-0.8,0-1,0
		c-0.3,1.4-0.5,2.2-0.6,2.6c-0.2,1-0.3,1.9-0.4,2.7c0.2,0.1,0.3,0.3,0.3,0.6c0,0.2-0.1,0.3-0.2,0.5c-0.2,0.1-0.3,0.2-0.5,0.2
		c-0.6,0-0.9-0.5-0.9-1.4c0-0.5,0.1-1.4,0.3-2.5l0.5-2.5c-0.5,0-0.8-0.2-0.8-0.8c0-0.3,0.1-0.5,0.3-0.6c0.1-0.1,0.4-0.1,0.8-0.1
		c0.5-1.9,0.8-3.3,1.2-4.4c0.1-0.4,0.3-0.6,0.6-0.6c0.5,0,0.7,0.3,0.8,0.8c-0.1,0.4-0.2,0.8-0.4,1.3c-0.2,0.7-0.4,1.7-0.7,2.8
		c0.1,0,0.6,0,1.3,0c1,0.1,1.5,0.4,1.5,0.9C213.8,163.2,213.7,163.4,213.6,163.6z"/>
	<path class="st1" d="M219.4,168.3c-0.6,0.8-1.3,1.2-2.2,1.2c-0.7,0-1.4-0.3-1.9-0.9c-0.5-0.6-0.7-1.3-0.7-2.2
		c0-0.8,0.2-1.5,0.5-2.2c0.4-0.7,0.8-1.3,1.4-1.6c0.1-0.1,0.3-0.2,0.6-0.3c0.2-0.1,0.4-0.2,0.5-0.2c0,0,0.2,0,0.4,0.1
		c0.6,0.2,1.1,0.6,1.5,1.1c0.4,0.6,0.6,1.2,0.6,1.9C220.3,166.5,220,167.5,219.4,168.3z M218.4,164.1c-0.3,0-0.5-0.1-0.7-0.2
		c-0.5,0-0.9,0.3-1.2,0.9c-0.3,0.5-0.4,1-0.4,1.6c0,0.4,0.1,0.8,0.3,1.1c0.2,0.3,0.5,0.5,0.8,0.5c0.4,0,0.8-0.3,1.1-0.8
		c0.3-0.5,0.5-1.1,0.5-1.7C218.9,164.8,218.7,164.3,218.4,164.1z"/>
	<path class="st1" d="M228.2,163.7c-0.4,0.2-0.7,0.3-1,0.3c0,0-0.1,0-0.3-0.1c-1.4,0.7-2.3,2.1-2.6,4.3c-0.1,0.6-0.2,0.9-0.2,1.1
		c-0.1,0.3-0.3,0.5-0.5,0.5c-0.2,0-0.4-0.1-0.6-0.3c-0.2-0.2-0.2-0.5-0.2-0.8c0-0.1,0-0.3,0.1-0.7c0.1-0.4,0.1-0.8,0.1-1.3
		c0-0.4-0.1-1-0.1-1.7c-0.3-0.4-0.5-1.1-0.5-1.8c0-0.2,0.1-0.4,0.2-0.5c0.1-0.1,0.2-0.2,0.4-0.2c0.3,0,0.6,0.2,0.8,0.5
		c0.1,0.3,0.3,0.8,0.4,1.6c1.1-1.6,2.3-2.4,3.7-2.4c0.2,0,0.4,0.1,0.7,0.3c0.2,0.2,0.3,0.4,0.3,0.7
		C228.7,163.3,228.5,163.5,228.2,163.7z"/>
	<path class="st1" d="M234.6,169.7c-1.3,0-2.3-0.6-3-1.8h-0.5c-0.5,0-0.9-0.1-1.4-0.3c-0.6-0.2-0.9-0.6-0.9-1c0-0.5,0.2-0.7,0.7-0.7
		c0.1,0,0.3,0.1,0.5,0.3c0.2,0.2,0.5,0.3,0.7,0.3h0.4c-0.1-0.3-0.1-0.5-0.1-0.7c0-0.8,0.2-1.6,0.6-2.4c0.5-0.9,1.1-1.3,1.9-1.3
		c0.4,0,0.9,0.2,1.3,0.6c0.4,0.4,0.6,0.9,0.6,1.4c0,1.3-0.9,2.4-2.7,3.4c0.4,0.5,0.9,0.8,1.4,0.8c0.1,0,0.4,0,0.7-0.1
		c0.3,0,0.5-0.1,0.7-0.1c0.2,0,0.4,0.1,0.5,0.2c0.1,0.2,0.2,0.4,0.2,0.5C236.4,169.4,235.8,169.7,234.6,169.7z M234,163.7
		c-0.1-0.1-0.3-0.2-0.4-0.2c-0.3,0-0.6,0.3-0.7,0.8c-0.2,0.4-0.2,0.9-0.2,1.4v0.3c1.1-0.7,1.6-1.3,1.6-1.9
		C234.2,164,234.1,163.9,234,163.7z"/>
</g>
<g>
	<path class="st1" d="M158.8,40.5c4.2-1.9,6.1-6.8,4.3-11.1c-1.5-3.5-5.2-5.5-8.9-5c1.8-3.2,1.3-7.4-1.4-10.1
		c-2.7-2.7-6.9-3.2-10.1-1.4c0.5-3.7-1.5-7.3-5-8.9c-4.2-1.8-9.2,0.1-11.1,4.3c-0.1-4.6-3.8-8.3-8.4-8.3s-8.4,3.7-8.4,8.3
		c-1.9-4.2-6.8-6.1-11.1-4.3c-3.5,1.5-5.5,5.2-5,8.9c-3.2-1.8-7.4-1.3-10.1,1.4c-2.7,2.7-3.2,6.9-1.4,10.1c-3.7-0.5-7.3,1.5-8.9,5
		c-1.8,4.2,0.1,9.2,4.3,11.1c-4.6,0.1-8.3,3.8-8.3,8.4c0,4.6,3.7,8.4,8.3,8.4c-4.2,1.9-6.1,6.8-4.3,11.1c1.5,3.5,5.2,5.5,8.9,5
		c-1.8,3.2-1.3,7.4,1.4,10.1c2.7,2.7,6.9,3.2,10.1,1.4c-0.5,3.7,1.5,7.3,5,8.9c4.2,1.8,9.2-0.1,11.1-4.3c0.1,4.6,3.8,8.3,8.4,8.3
		c4.6,0,8.4-3.7,8.4-8.3c1.9,4.2,6.8,6.1,11.1,4.3c3.5-1.5,5.5-5.2,5-8.9c3.2,1.8,7.4,1.3,10.1-1.4c2.7-2.7,3.2-6.9,1.4-10.1
		c3.6,0.5,7.3-1.5,8.9-5c1.8-4.2-0.1-9.2-4.3-11.1c4.6-0.1,8.3-3.8,8.3-8.4C167.1,44.3,163.4,40.5,158.8,40.5"/>
	<path class="st2" d="M152.9,36.4c-1.3-2.4-5.5-3-7.9-3.5c-3.8-0.8-7.6-0.3-11.4,0.5c-0.7,0.2-1.4,0.3-2,0.5
		c-0.8-4.2-4.5-5.4-8.9-5.4h-9c-4.5,0-8.1,1.2-8.9,5.4c-0.6-0.2-1.3-0.4-2.1-0.6c-3.7-0.8-7.6-1.3-11.4-0.5
		c-2.4,0.5-6.6,1.1-7.9,3.5c-0.6,1.2-0.6,3.4,0.1,4.5c1.5,2.4,6.7,2.1,9,1.8c4-0.5,8-2,12.1-1.8l2,21.5c0,5,4.1,9.1,9.1,9.1h4.9
		c5,0,9.1-4.1,9.1-9.1l2-21.5c4-0.1,8,1.4,11.9,1.8c2.4,0.3,7.5,0.6,9-1.8C153.5,39.8,153.5,37.6,152.9,36.4"/>
</g>
<g>
	<defs>
		<path id="SVGID_1_" d="M113.8,28.5c-4.5,0-8.1,1.2-8.9,5.4c-0.6-0.2-1.3-0.4-2.1-0.6c-3.7-0.8-7.6-1.3-11.4-0.5
			c-2.4,0.5-6.6,1.1-7.9,3.5c-0.6,1.2-0.6,3.4,0.1,4.5c1.5,2.4,6.7,2.1,9,1.8c4-0.5,8-2,12.1-1.8l2,21.5c0,5,4.1,9.1,9.1,9.1h4.9
			c5,0,9.1-4.1,9.1-9.1l2-21.5c4-0.1,8,1.4,11.9,1.8c2.4,0.3,7.5,0.6,9-1.8c0.7-1.1,0.8-3.4,0.1-4.5c-1.3-2.4-5.5-3.1-7.9-3.5
			c-3.8-0.8-7.6-0.3-11.4,0.5c-0.7,0.2-1.4,0.3-2,0.5c-0.8-4.2-4.5-5.4-8.9-5.4H113.8z"/>
	</defs>
	<clipPath id="SVGID_2_">
		<use xlink:href="#SVGID_1_"  style="overflow:visible;"/>
	</clipPath>
	<path class="st3" d="M121.9,67.7c0,0-5.3,1.8-1.9,5.1"/>
	<path class="st3" d="M115.3,67.7c0,0,5.3,1.8,1.9,5.1"/>
</g>
<g>
	<path class="st4" d="M113.6,45.7c0,0.8-0.7,1.5-1.5,1.5c-0.8,0-1.5-0.7-1.5-1.5c0-0.8,0.7-1.5,1.5-1.5
		C112.9,44.1,113.6,44.8,113.6,45.7"/>
	<path class="st4" d="M125.5,45.7c0,0.8-0.7,1.5-1.5,1.5s-1.5-0.7-1.5-1.5c0-0.8,0.7-1.5,1.5-1.5S125.5,44.8,125.5,45.7"/>
	<path class="st5" d="M152.8,40.9c0.4-0.7,0.6-1.7,0.5-2.7c-2.1-1.3-5.7-2.2-9.9-2.2c-6.4,0-11.7,2.1-11.7,4.6
		c0,0.1,0.1,0.3,0.1,0.4v-0.2c4-0.1,8,1.4,11.9,1.8C146.1,43,151.2,43.3,152.8,40.9"/>
	<path class="st5" d="M83.6,40.9c-0.4-0.7-0.6-1.7-0.5-2.7c2.1-1.3,5.7-2.2,9.9-2.2c6.4,0,11.7,2.1,11.7,4.6c0,0.1-0.1,0.3-0.1,0.4
		v-0.2c-4-0.1-8,1.4-11.9,1.8C90.3,43,85.1,43.3,83.6,40.9"/>
</g>
</svg>
