<svg version="1.1" id="Layer_1" xmlns="http://www.w3.org/2000/svg" xmlns:xlink="http://www.w3.org/1999/xlink" x="0" y="0" viewBox="115 -114 357 357" xml:space="preserve"><style>.st0{clip-path:url(#SVGID_2_);fill:#fff}</style><defs><path id="SVGID_1_" d="M115.1-91.6h357V220h-357z"/></defs><clipPath id="SVGID_2_"><use xlink:href="#SVGID_1_" overflow="visible"/></clipPath><path class="st0" d="M461.5 58.9H413V45.8h48.6v13.1zm-59.1 150.5H184.8V-81.1h38.5l33.1 45.2c4.9 6.7 12.4 10.5 20.7 10.5h.2c4 0 7.7-.9 11.1-2.6v49.2c0 2.9 2.4 5.3 5.3 5.3s5.3-2.4 5.3-5.3V-28c3.4 1.7 7.2 2.6 11.1 2.6h.2c8.3 0 15.8-3.8 20.7-10.5l33.1-45.2h38.5v290.5zM125.6 45.8h48.6v13.1h-48.6V45.8zm10.8-90.6l37.8-30.5V35.2h-48.6v-57.3c0-8.9 4-17.1 10.8-22.7m120-36.3l30.4 41.6c-2.7 2.3-6 3.6-9.7 3.6h-.1c-4.9 0-9.3-2.2-12.1-6.2l-28.5-39h20zm37.2 33l-24.1-33h48.2l-24.1 33zm57.2-33l-28.5 39c-2.9 3.9-7.2 6-12.3 6.2-3.6 0-7-1.3-9.7-3.6l30.4-41.6h20.1zm110.7 59v57.3H413V-75.3l37.8 30.5c6.8 5.6 10.7 13.8 10.7 22.7M457.3-53L411-90.5c-.4-.3-.7-.5-1.2-.7l-.1-.1c-.6-.2-1.2-.3-1.8-.4H179.3c-.6 0-1.2.1-1.8.4 0 0-.1 0-.1.1-.4.2-.8.4-1.2.7L129.8-53c-9.4 7.6-14.7 18.8-14.7 30.9v86.3c0 2.9 2.4 5.3 5.3 5.3h53.8v145.3c0 2.9 2.4 5.3 5.3 5.3h228.2c2.9 0 5.3-2.4 5.3-5.3V69.5h53.8c2.9 0 5.3-2.4 5.3-5.3v-86.3c0-12.1-5.4-23.3-14.8-30.9"/><path class="st0" d="M274.7-10.5c-3 0-5.4 2.4-5.4 5.4 0 3 2.4 5.4 5.4 5.4 3 0 5.4-2.4 5.4-5.4 0-3-2.4-5.4-5.4-5.4M274.7 10.4c-3 0-5.4 2.4-5.4 5.4 0 3 2.4 5.4 5.4 5.4 3 0 5.4-2.4 5.4-5.4 0-3-2.4-5.4-5.4-5.4M327 21.1h46.9v32H327v-32zm0-21h46.9v10.4H327V.1zm52.2-10.5h-57.4c-2.9 0-5.3 2.4-5.3 5.3v63.5c0 2.9 2.4 5.3 5.3 5.3h57.4c2.9 0 5.3-2.4 5.3-5.3V-5.1c0-2.9-2.4-5.3-5.3-5.3"/></svg>