<?xml version="1.0" encoding="utf-8"?>
<!-- Generator: Adobe Illustrator 19.0.0, SVG Export Plug-In . SVG Version: 6.00 Build 0)  -->
<svg version="1.1" id="Layer_1" xmlns="http://www.w3.org/2000/svg" xmlns:xlink="http://www.w3.org/1999/xlink" x="0px" y="0px"
	 viewBox="0 0 111.2 111.2" style="enable-background:new 0 0 111.2 111.2;" xml:space="preserve">
<style type="text/css">
	
		.st0{clip-path:url(#XMLID_66_);fill:none;stroke:#EC1C59;stroke-width:2.4653;stroke-linecap:round;stroke-linejoin:round;stroke-miterlimit:10;}
	.st1{clip-path:url(#XMLID_66_);fill:#EC1C59;}
	.st2{clip-path:url(#XMLID_66_);fill:none;stroke:#333232;stroke-width:2.7232;stroke-linecap:round;stroke-linejoin:round;}
</style>
<g id="XMLID_27_">
	<g>
		<defs>
			<rect id="XMLID_28_" x="0" y="1.9" width="111.2" height="107.4"/>
		</defs>
		<clipPath id="XMLID_66_">
			<use xlink:href="#XMLID_28_"  style="overflow:visible;"/>
		</clipPath>
		<path id="XMLID_64_" class="st0" d="M49.3,84.1c0-3.5-2.8-6.3-6.4-6.3 M63.3,34c0,3.5,2.8,6.3,6.4,6.3 M49.3,34
			c0,3.5-2.8,6.3-6.4,6.3 M63.3,84.1c0-3.5,2.8-6.3,6.4-6.3 M39.3,55.8V30.7h33.7v56.9H54.5 M39.3,42.4l-5.9,7.1
			c-2.8,3.5-4.2,7.8-4.2,12.2v40.1 M34.3,79.2v-16c0-0.9,0.7-1.5,1.6-1.5c3.8,0,6.9,3.1,6.9,6.8v11.6c0,1.2,0.4,2.3,1.1,3.2l4.6,5.9
			c0.7,0.9,1.1,2,1.1,3.2v9.5"/>
		<path id="XMLID_30_" class="st1" d="M50.5,64.5l1.2-0.3v-4h-0.7c-0.7,0-1.2-0.5-1.2-1.2c0-0.6,0.5-1.2,1.2-1.2h0.7v-2.1
			c0-1.7,0.5-3,1.4-3.9c0.9-0.9,2.2-1.4,3.8-1.4c2.1,0,3.4,0.8,4.4,1.8c0.2,0.2,0.4,0.6,0.4,1c0,0.8-0.6,1.4-1.4,1.4
			c-0.5,0-0.8-0.2-1-0.4c-0.7-0.7-1.4-1.2-2.4-1.2c-0.7,0-1.2,0.2-1.7,0.6c-0.5,0.5-0.7,1.2-0.7,2.2v2H59c0.6,0,1.2,0.5,1.2,1.2
			c0,0.7-0.5,1.2-1.2,1.2h-4.6V64h6.2c0.7,0,1.2,0.5,1.2,1.2c0,0.7-0.5,1.2-1.2,1.2h-9.9c-0.6,0-1.1-0.4-1.1-1
			C49.7,65,50,64.6,50.5,64.5"/>
		<path id="XMLID_29_" class="st2" d="M18.6,97.1c-3.4-3.2-3.6-8.6-0.5-12.1c0.3-0.3,0.3-0.8,0.1-1.1c-0.2-0.4-0.7-0.5-1.1-0.3
			c-4.3,1.8-9.3-0.2-11.2-4.5c-1.9-4.3,0.1-9.4,4.4-11.3c0.4-0.2,0.6-0.6,0.5-1c-0.1-0.4-0.5-0.7-0.9-0.7c-4.7-0.1-8.5-3.9-8.5-8.6
			c0-3.8,2.6-7.2,6.3-8.3c0.3-0.1,0.6-0.4,0.6-0.7c0.1-0.3-0.1-0.7-0.3-0.9c-3-2.3-4.2-6.4-2.8-10c1.4-3.6,5-5.8,8.9-5.4
			c0.3,0,0.7-0.1,0.9-0.4c0.2-0.3,0.2-0.7,0-1c-2-3.3-1.5-7.5,1.1-10.3c3.2-3.4,8.6-3.6,12.1-0.5c0.3,0.3,0.8,0.3,1.1,0.1
			c0.4-0.2,0.5-0.7,0.3-1.1c-1.8-4.3,0.2-9.4,4.5-11.2s9.3,0.1,11.3,4.4c0.2,0.4,0.6,0.6,1,0.5c0.4-0.1,0.7-0.5,0.7-0.9
			C47,7,50.9,3.2,55.6,3.2c3.8,0,7.2,2.6,8.3,6.3c0.1,0.3,0.4,0.6,0.7,0.6c0.3,0.1,0.7-0.1,0.9-0.3c2.3-3,6.4-4.2,10-2.8
			c3.6,1.4,5.8,5,5.4,8.9c0,0.3,0.1,0.7,0.4,0.9c0.3,0.2,0.7,0.2,1,0c3.3-2,7.5-1.5,10.3,1.1c3.4,3.2,3.6,8.6,0.5,12.1
			c-0.3,0.3-0.3,0.8-0.1,1.1c0.2,0.4,0.7,0.5,1.1,0.3c4.3-1.8,9.4,0.2,11.2,4.5c1.9,4.3-0.1,9.4-4.4,11.3c-0.4,0.2-0.6,0.6-0.5,1
			c0.1,0.4,0.5,0.7,0.9,0.7c4.7,0.1,8.5,3.9,8.5,8.6c0,3.8-2.6,7.2-6.3,8.3c-0.3,0.1-0.6,0.4-0.6,0.7c-0.1,0.3,0.1,0.7,0.3,0.9
			c3,2.3,4.2,6.4,2.8,10c-1.4,3.6-5,5.8-8.9,5.4c-0.3,0-0.7,0.1-0.9,0.4c-0.2,0.3-0.2,0.7,0,1c2,3.3,1.5,7.5-1.1,10.3
			c-3.2,3.4-8.6,3.6-12.1,0.5c-0.3-0.3-0.8-0.3-1.1-0.1c-0.3,0.2-0.5,0.7-0.3,1.1c1.8,4.3-0.2,9.4-4.5,11.2
			c-4.3,1.9-9.3-0.1-11.3-4.4"/>
	</g>
</g>
</svg>
