<?xml version="1.0" encoding="utf-8"?>
<!-- Generator: Adobe Illustrator 19.0.0, SVG Export Plug-In . SVG Version: 6.00 Build 0)  -->
<svg version="1.1" id="Layer_1" xmlns="http://www.w3.org/2000/svg" xmlns:xlink="http://www.w3.org/1999/xlink" x="0px" y="0px"
	 viewBox="0 0 98 98" style="enable-background:new 0 0 98 98;" xml:space="preserve">
<style type="text/css">
	.st0{clip-path:url(#XMLID_4_);fill:none;stroke:#3F4043;stroke-width:3.2737;stroke-linecap:round;stroke-linejoin:round;}
	
		.st1{clip-path:url(#XMLID_4_);fill:none;stroke:#EC1C59;stroke-width:1.7931;stroke-linecap:round;stroke-linejoin:round;stroke-miterlimit:10;}
	.st2{fill:#EC1C59;}
	.st3{fill:none;stroke:#EC1C59;stroke-width:1.7931;stroke-linecap:round;stroke-linejoin:round;stroke-miterlimit:10;}
	
		.st4{clip-path:url(#XMLID_5_);fill:none;stroke:#EC1C59;stroke-width:1.7931;stroke-linecap:round;stroke-linejoin:round;stroke-miterlimit:10;}
</style>
<g id="XMLID_2_">
	<defs>
		<rect id="XMLID_66_" width="89.5" height="98"/>
	</defs>
	<clipPath id="XMLID_4_">
		<use xlink:href="#XMLID_66_"  style="overflow:visible;"/>
	</clipPath>
	<path id="XMLID_62_" class="st0" d="M72.1,82.6c1.6,3.8-0.2,8.2-3.9,9.8c-3.8,1.6-8.2-0.1-9.9-3.8c-0.2-0.3-0.5-0.5-0.9-0.5
		c-0.4,0.1-0.6,0.4-0.6,0.8c-0.1,4.1-3.4,7.4-7.5,7.4c-3.4,0-6.3-2.2-7.3-5.5c-0.1-0.3-0.3-0.5-0.6-0.6c-0.3-0.1-0.6,0.1-0.8,0.3
		c-2,2.7-5.6,3.7-8.8,2.4c-3.1-1.2-5.1-4.4-4.7-7.7c0-0.3-0.1-0.6-0.4-0.8c-0.3-0.2-0.6-0.2-0.8,0c-2.9,1.7-6.6,1.3-9-0.9
		c-3-2.8-3.2-7.5-0.4-10.5c0.3-0.3,0.3-0.7,0.1-1c-0.2-0.3-0.6-0.4-1-0.3c-3.8,1.6-8.2-0.2-9.8-3.9c-1.6-3.8,0.1-8.2,3.8-9.8
		c0.3-0.2,0.5-0.5,0.5-0.9c-0.1-0.4-0.4-0.6-0.8-0.6C5,56.5,1.6,53.1,1.6,49c0-3.3,2.3-6.3,5.5-7.2c0.3-0.1,0.5-0.3,0.6-0.6
		c0.1-0.3-0.1-0.6-0.3-0.8c-2.7-2-3.7-5.6-2.4-8.7c1.2-3.1,4.4-5.1,7.8-4.7c0.3,0,0.6-0.1,0.8-0.4c0.2-0.3,0.2-0.6,0-0.8
		c-1.7-2.9-1.4-6.6,0.9-9c2.8-3,7.5-3.2,10.6-0.4c0.3,0.3,0.7,0.3,1,0.1c0.3-0.2,0.4-0.6,0.3-1c-1.6-3.8,0.2-8.2,3.9-9.8
		c3.8-1.6,8.2,0.1,9.9,3.8c0.2,0.3,0.5,0.5,0.9,0.5c0.4-0.1,0.6-0.4,0.6-0.8c0.1-4.1,3.4-7.4,7.5-7.4c3.4,0,6.3,2.2,7.3,5.5
		c0.1,0.3,0.3,0.5,0.6,0.6s0.6-0.1,0.8-0.3c2-2.7,5.6-3.7,8.8-2.4c3.1,1.2,5.1,4.4,4.7,7.7c0,0.3,0.1,0.6,0.4,0.8
		c0.3,0.2,0.6,0.2,0.8,0c2.9-1.7,6.6-1.4,9,0.9"/>
	<path id="XMLID_63_" class="st1" d="M36.1,21.1h-2.9l-1.4,6.6l1.4,0.3v25.3h2.9V28l1.4-0.3L36.1,21.1z M34.6,79.6L34.6,79.6
		c-1.7,0-3-1.4-3-3.2V54.5c0-0.7,0.5-1.2,1.1-1.2h3.8c0.6,0,1.1,0.5,1.1,1.2v21.9C37.7,78.2,36.3,79.6,34.6,79.6z"/>
</g>
<rect id="XMLID_67_" x="51.3" y="36.4" class="st2" width="6.1" height="9.9"/>
<rect id="XMLID_68_" x="51.3" y="36.4" class="st3" width="6.1" height="9.9"/>
<g id="XMLID_69_">
	<defs>
		<rect id="XMLID_77_" width="89.5" height="98"/>
	</defs>
	<clipPath id="XMLID_5_">
		<use xlink:href="#XMLID_77_"  style="overflow:visible;"/>
	</clipPath>
	<path id="XMLID_70_" class="st4" d="M75.8,37.8V43 M72.4,37.8V43 M69,37.8V43 M48,41.4h-6.6 M57.6,35.7v11.5c0,1,0.8,1.8,1.8,1.8
		h12.4c1.1,0,1.9,0.9,1.9,1.9v8.5c0,4.1,3.4,7.5,7.5,7.5s7.5-3.4,7.5-7.5V48.9V35.8c0-1.1-0.9-1.9-1.9-1.9H59.3
		C58.4,33.9,57.6,34.7,57.6,35.7z M51.2,45H48v-7.2h3.2V45z"/>
</g>
</svg>
