<svg version="1.1" id="Layer_1" xmlns="http://www.w3.org/2000/svg" xmlns:xlink="http://www.w3.org/1999/xlink" x="0" y="0" viewBox="115 -114 357 357" xml:space="preserve"><style>.st0{clip-path:url(#SVGID_2_);fill:#ed1558}</style><defs><path id="SVGID_1_" d="M115.3-88.3h357.6v305.4H115.3z"/></defs><clipPath id="SVGID_2_"><use xlink:href="#SVGID_1_" overflow="visible"/></clipPath><path class="st0" d="M462.4 136.4H125.7V-77.9h336.7v214.3zM331 185h-73.9v-38.2H331V185zm25.3 21.6H231.8v-11.2h124.5v11.2zm111.3-295H120.5c-2.9 0-5.2 2.3-5.2 5.2v224.8c0 2.9 2.3 5.2 5.2 5.2h126.2V185h-20.1c-2.9 0-5.2 2.3-5.2 5.2v21.6c0 2.9 2.3 5.2 5.2 5.2h134.8c2.9 0 5.2-2.3 5.2-5.2v-21.6c0-2.9-2.3-5.2-5.2-5.2h-20.1v-38.2h126.2c2.9 0 5.2-2.3 5.2-5.2V-83.1c.1-2.9-2.2-5.3-5.1-5.3"/><path class="st0" d="M151-52.7h286.2v163.8H151V-52.7zm-5.2 174.3h296.6c2.9 0 5.2-2.3 5.2-5.2V-57.9c0-2.9-2.3-5.2-5.2-5.2H145.8c-2.9 0-5.2 2.3-5.2 5.2v174.2c0 2.9 2.3 5.3 5.2 5.3"/><path class="st0" d="M316.8-19.3c-2-2-5.3-2-7.4 0l-76.2 76.2c-2 2-2 5.3 0 7.4 1 1 2.3 1.5 3.7 1.5 1.3 0 2.7-.5 3.7-1.5l76.2-76.2c2-2 2-5.3 0-7.4m30.7 0l-76.2 76.2c-2 2-2 5.3 0 7.4 1 1 2.3 1.5 3.7 1.5 1.3 0 2.7-.5 3.7-1.5l76.2-76.2c2-2 2-5.3 0-7.4-2-2-5.3-2-7.4 0"/></svg>