<?xml version="1.0" encoding="utf-8"?>
<!-- Generator: Adobe Illustrator 19.0.0, SVG Export Plug-In . SVG Version: 6.00 Build 0)  -->
<svg version="1.1" id="Layer_1" xmlns="http://www.w3.org/2000/svg" xmlns:xlink="http://www.w3.org/1999/xlink" x="0px" y="0px"
	 viewBox="0 0 128 128" style="enable-background:new 0 0 128 128;" xml:space="preserve">
<style type="text/css">
	.st0{clip-path:url(#XMLID_9_);fill:#F89521;}
	.st1{clip-path:url(#XMLID_9_);fill:#FFFFFF;}
	.st2{clip-path:url(#XMLID_9_);}
	.st3{clip-path:url(#XMLID_9_);fill:#FCDAD8;}
</style>
<g>
	<defs>
		<rect id="XMLID_1_" x="0.4" width="127.6" height="127.6"/>
	</defs>
	<clipPath id="XMLID_9_">
		<use xlink:href="#XMLID_1_"  style="overflow:visible;"/>
	</clipPath>
	<path id="XMLID_7_" class="st0" d="M117.1,52.8c5.5-2.5,8-8.9,5.6-14.4c-2-4.6-6.8-7.2-11.6-6.5c2.3-4.2,1.7-9.6-1.8-13.2
		c-3.6-3.6-9-4.2-13.2-1.8c0.6-4.8-1.9-9.6-6.5-11.6c-5.5-2.4-12,0.1-14.4,5.6c-0.1-6-5-10.9-11-10.9c-6,0-10.9,4.9-11,10.9
		c-2.5-5.5-8.9-8-14.4-5.6c-4.6,2-7.2,6.8-6.5,11.6c-4.2-2.3-9.6-1.7-13.2,1.8c-3.6,3.6-4.2,9-1.8,13.2c-4.8-0.6-9.6,1.9-11.6,6.5
		c-2.4,5.5,0.1,12,5.6,14.4c-6,0.1-10.9,5-10.9,11c0,6,4.9,10.9,10.9,11c-5.5,2.5-8,8.9-5.6,14.4c2,4.6,6.8,7.2,11.6,6.5
		c-2.3,4.2-1.7,9.6,1.8,13.2c3.6,3.6,9,4.2,13.2,1.8c-0.6,4.8,1.9,9.6,6.5,11.6c5.5,2.4,12-0.1,14.4-5.6c0.1,6,5,10.9,11,10.9
		c6,0,10.9-4.9,11-10.9c2.5,5.5,8.9,8,14.4,5.6c4.6-2,7.2-6.8,6.5-11.6c4.2,2.3,9.6,1.7,13.2-1.8c3.6-3.6,4.2-9,1.8-13.2
		c4.8,0.6,9.6-1.9,11.6-6.5c2.4-5.5-0.1-12-5.6-14.4c6-0.1,10.9-5,10.9-11C128,57.8,123.1,52.9,117.1,52.8"/>
	<path id="XMLID_6_" class="st1" d="M109.5,47.5c-1.7-3.2-7.1-4-10.3-4.6c-5-1-9.9-0.4-14.8,0.7c-1,0.2-1.8,0.4-2.6,0.7
		c-1-5.5-5.8-7-11.6-7H58.5c-5.8,0-10.6,1.6-11.6,7.1c-0.8-0.3-1.7-0.5-2.8-0.7c-4.9-1-9.9-1.6-14.8-0.7c-3.2,0.6-8.6,1.4-10.3,4.6
		c-0.8,1.5-0.8,4.4,0.1,5.9c2,3.1,8.7,2.7,11.8,2.3c5.2-0.6,10.5-2.6,15.8-2.4l2.6,28.1c0,6.5,5.3,11.8,11.8,11.8h6.4
		c6.5,0,11.8-5.3,11.8-11.8L82,53.3c5.2-0.1,10.4,1.8,15.6,2.4c3.1,0.4,9.8,0.8,11.8-2.3C110.3,51.9,110.3,49,109.5,47.5"/>
	<path id="XMLID_5_" class="st2" d="M58.2,59.5c0,1.1-0.9,2-2,2c-1.1,0-2-0.9-2-2c0-1.1,0.9-2,2-2C57.3,57.5,58.2,58.4,58.2,59.5"/>
	<path id="XMLID_4_" class="st2" d="M73.7,59.5c0,1.1-0.9,2-2,2c-1.1,0-2-0.9-2-2c0-1.1,0.9-2,2-2C72.8,57.5,73.7,58.4,73.7,59.5"/>
	<path id="XMLID_3_" class="st3" d="M109.3,53.4c0.6-0.9,0.8-2.2,0.7-3.5c-2.7-1.7-7.5-2.9-13-2.9c-8.4,0-15.2,2.7-15.2,6
		c0,0.2,0.1,0.4,0.1,0.5v-0.2c5.2-0.1,10.4,1.8,15.6,2.4C100.6,56.1,107.3,56.5,109.3,53.4"/>
	<path id="XMLID_2_" class="st3" d="M19.1,53.4c-0.6-0.9-0.8-2.2-0.7-3.5c2.7-1.7,7.5-2.9,13-2.9c8.4,0,15.2,2.7,15.2,6
		c0,0.2-0.1,0.4-0.1,0.5v-0.2c-5.2-0.1-10.4,1.8-15.6,2.4C27.7,56.1,21.1,56.5,19.1,53.4"/>
</g>
</svg>
