<?xml version="1.0" encoding="utf-8"?>
<!-- Generator: Adobe Illustrator 19.0.0, SVG Export Plug-In . SVG Version: 6.00 Build 0)  -->
<svg version="1.1" id="Layer_1" xmlns="http://www.w3.org/2000/svg" xmlns:xlink="http://www.w3.org/1999/xlink" x="0px" y="0px"
	 viewBox="0 0 66.5 134" style="enable-background:new 0 0 66.5 134;" xml:space="preserve">
<style type="text/css">
	.st0{clip-path:url(#XMLID_123_);}
	.st1{clip-path:url(#XMLID_124_);}
	.st2{clip-path:url(#SVGID_2_);fill:#F58220;}
	.st3{clip-path:url(#SVGID_2_);fill:#FFCF3F;}
	.st4{clip-path:url(#SVGID_2_);fill:#70CDDD;}
	.st5{clip-path:url(#SVGID_2_);fill:#604A9E;}
	.st6{clip-path:url(#SVGID_2_);fill:#8EC641;}
	.st7{clip-path:url(#SVGID_2_);fill:#52C8EB;}
	.st8{clip-path:url(#SVGID_2_);fill:#51C0AB;}
	.st9{clip-path:url(#SVGID_2_);fill:#F89521;}
	.st10{clip-path:url(#SVGID_2_);fill:#466698;}
	.st11{clip-path:url(#SVGID_2_);fill:#FFFFFF;}
	.st12{clip-path:url(#SVGID_4_);fill:none;stroke:#D3D6D8;stroke-width:0.27;}
	.st13{clip-path:url(#SVGID_6_);}
	.st14{clip-path:url(#SVGID_6_);fill:#FCDAD8;}
	.st15{clip-path:url(#SVGID_6_);fill:#FFFFFF;}
	.st16{clip-path:url(#SVGID_8_);}
	.st17{clip-path:url(#SVGID_8_);fill:#FCDAD8;}
	.st18{clip-path:url(#SVGID_8_);fill:#FFFFFF;}
	.st19{clip-path:url(#SVGID_10_);fill:none;stroke:#D3D6D8;stroke-width:0.27;}
	.st20{clip-path:url(#SVGID_12_);}
	.st21{clip-path:url(#SVGID_12_);fill:#FCDAD8;}
	.st22{clip-path:url(#SVGID_12_);fill:#FFFFFF;}
	.st23{clip-path:url(#SVGID_14_);}
	.st24{clip-path:url(#SVGID_14_);fill:#FCDAD8;}
	.st25{clip-path:url(#SVGID_14_);fill:#FFFFFF;}
	.st26{clip-path:url(#SVGID_16_);fill:none;stroke:#D3D6D8;stroke-width:0.27;}
	.st27{clip-path:url(#SVGID_18_);}
	.st28{clip-path:url(#SVGID_18_);fill:#FCDAD8;}
	.st29{clip-path:url(#SVGID_18_);fill:#FFFFFF;}
	.st30{clip-path:url(#SVGID_20_);}
	.st31{clip-path:url(#SVGID_20_);fill:#FCDAD8;}
	.st32{clip-path:url(#SVGID_20_);fill:#FFFFFF;}
	.st33{clip-path:url(#SVGID_22_);fill:none;stroke:#D3D6D8;stroke-width:0.27;}
	.st34{clip-path:url(#SVGID_24_);}
	.st35{clip-path:url(#SVGID_24_);fill:#FCDAD8;}
	.st36{clip-path:url(#SVGID_24_);fill:#FFFFFF;}
	.st37{clip-path:url(#SVGID_26_);}
	.st38{clip-path:url(#SVGID_26_);fill:#FCDAD8;}
	.st39{clip-path:url(#SVGID_26_);fill:#FFFFFF;}
	.st40{clip-path:url(#SVGID_28_);fill:none;stroke:#D3D6D8;stroke-width:0.27;}
	.st41{clip-path:url(#SVGID_30_);}
	.st42{clip-path:url(#SVGID_30_);fill:#FCDAD8;}
	.st43{clip-path:url(#SVGID_30_);fill:#FFFFFF;}
	.st44{clip-path:url(#SVGID_32_);}
	.st45{clip-path:url(#SVGID_32_);fill:#FCDAD8;}
	.st46{clip-path:url(#SVGID_32_);fill:#FFFFFF;}
	.st47{clip-path:url(#SVGID_34_);fill:none;stroke:#D3D6D8;stroke-width:0.27;}
	.st48{clip-path:url(#SVGID_36_);}
	.st49{clip-path:url(#SVGID_36_);fill:#FCDAD8;}
	.st50{clip-path:url(#SVGID_36_);fill:#FFFFFF;}
	.st51{clip-path:url(#SVGID_38_);}
	.st52{clip-path:url(#SVGID_38_);fill:#FCDAD8;}
	.st53{clip-path:url(#SVGID_38_);fill:#FFFFFF;}
	.st54{clip-path:url(#SVGID_40_);fill:none;stroke:#D3D6D8;stroke-width:0.27;}
	.st55{clip-path:url(#SVGID_42_);}
	.st56{clip-path:url(#SVGID_42_);fill:#FCDAD8;}
	.st57{clip-path:url(#SVGID_42_);fill:#FFFFFF;}
	.st58{clip-path:url(#SVGID_44_);}
	.st59{clip-path:url(#SVGID_44_);fill:#FCDAD8;}
	.st60{clip-path:url(#SVGID_44_);fill:#FFFFFF;}
	.st61{clip-path:url(#SVGID_46_);fill:none;stroke:#D3D6D8;stroke-width:0.27;}
	.st62{clip-path:url(#SVGID_48_);}
	.st63{clip-path:url(#SVGID_48_);fill:#FCDAD8;}
	.st64{clip-path:url(#SVGID_48_);fill:#FFFFFF;}
	.st65{clip-path:url(#SVGID_50_);}
	.st66{clip-path:url(#SVGID_50_);fill:#FCDAD8;}
	.st67{clip-path:url(#SVGID_50_);fill:#FFFFFF;}
	.st68{clip-path:url(#SVGID_52_);fill:none;stroke:#D3D6D8;stroke-width:0.27;}
	.st69{clip-path:url(#SVGID_54_);}
	.st70{clip-path:url(#SVGID_54_);fill:#FCDAD8;}
	.st71{clip-path:url(#SVGID_54_);fill:#FFFFFF;}
	.st72{clip-path:url(#SVGID_56_);}
	.st73{clip-path:url(#SVGID_56_);fill:#FCDAD8;}
	.st74{clip-path:url(#SVGID_56_);fill:#FFFFFF;}
	.st75{clip-path:url(#SVGID_58_);fill:none;stroke:#D3D6D8;stroke-width:0.27;}
	.st76{clip-path:url(#SVGID_60_);}
	.st77{clip-path:url(#SVGID_60_);fill:#FCDAD8;}
	.st78{clip-path:url(#SVGID_60_);fill:#FFFFFF;}
	.st79{clip-path:url(#SVGID_62_);}
	.st80{clip-path:url(#SVGID_62_);fill:#FCDAD8;}
</style>
<g id="XMLID_121_">
	<defs>
		<rect id="XMLID_120_" x="0" width="66.5" height="134"/>
	</defs>
	<clipPath id="XMLID_123_">
		<use xlink:href="#XMLID_120_"  style="overflow:visible;"/>
	</clipPath>
	<g id="XMLID_93_" class="st0">
		<defs>
			<rect id="XMLID_92_" x="0" width="66.5" height="134"/>
		</defs>
		<clipPath id="XMLID_124_">
			<use xlink:href="#XMLID_92_"  style="overflow:visible;"/>
		</clipPath>
		<g class="st1">
			<defs>
				<rect id="SVGID_1_" x="0" width="135.9" height="168.2"/>
			</defs>
			<clipPath id="SVGID_2_">
				<use xlink:href="#SVGID_1_"  style="overflow:visible;"/>
			</clipPath>
			<path class="st2" d="M29.2,13.2c1.4-0.6,2-2.2,1.4-3.6c-0.5-1.2-1.7-1.8-2.9-1.6c0.6-1.1,0.4-2.4-0.5-3.3c-0.9-0.9-2.2-1-3.3-0.5
				c0.2-1.2-0.5-2.4-1.6-2.9c-1.4-0.6-3,0-3.6,1.4C18.7,1.2,17.5,0,16,0c-1.5,0-2.7,1.2-2.8,2.7c-0.6-1.4-2.2-2-3.6-1.4
				C8.4,1.8,7.8,3,8,4.2c-1-0.6-2.4-0.4-3.3,0.5C3.8,5.6,3.6,6.9,4.2,8C3,7.8,1.8,8.4,1.3,9.6c-0.6,1.4,0,3,1.4,3.6
				C1.2,13.2,0,14.5,0,16c0,1.5,1.2,2.7,2.7,2.8c-1.4,0.6-2,2.2-1.4,3.6C1.8,23.5,3,24.1,4.2,24c-0.6,1.1-0.4,2.4,0.5,3.3
				c0.9,0.9,2.2,1,3.3,0.5c-0.2,1.2,0.5,2.4,1.6,2.9c1.4,0.6,3,0,3.6-1.4c0,1.5,1.2,2.7,2.8,2.7c1.5,0,2.7-1.2,2.8-2.7
				c0.6,1.4,2.2,2,3.6,1.4c1.2-0.5,1.8-1.7,1.6-2.9c1,0.6,2.4,0.4,3.3-0.5c0.9-0.9,1-2.2,0.5-3.3c1.2,0.2,2.4-0.5,2.9-1.6
				c0.6-1.4,0-3-1.4-3.6c1.5,0,2.7-1.2,2.7-2.8C31.9,14.5,30.7,13.2,29.2,13.2"/>
			<path class="st2" d="M98.8,13.2c1.4-0.6,2-2.2,1.4-3.6c-0.5-1.2-1.7-1.8-2.9-1.6c0.6-1.1,0.4-2.4-0.5-3.3c-0.9-0.9-2.2-1-3.3-0.5
				C93.7,3,93.1,1.8,92,1.3c-1.4-0.6-3,0-3.6,1.4c0-1.5-1.2-2.7-2.8-2.7c-1.5,0-2.7,1.2-2.8,2.7c-0.6-1.4-2.2-2-3.6-1.4
				c-1.2,0.5-1.8,1.7-1.6,2.9c-1-0.6-2.4-0.4-3.3,0.5c-0.9,0.9-1,2.2-0.5,3.3c-1.2-0.2-2.4,0.5-2.9,1.6c-0.6,1.4,0,3,1.4,3.6
				c-1.5,0-2.7,1.2-2.7,2.8c0,1.5,1.2,2.7,2.7,2.8c-1.4,0.6-2,2.2-1.4,3.6c0.5,1.2,1.7,1.8,2.9,1.6c-0.6,1.1-0.4,2.4,0.5,3.3
				c0.9,0.9,2.2,1,3.3,0.5c-0.2,1.2,0.5,2.4,1.6,2.9c1.4,0.6,3,0,3.6-1.4c0,1.5,1.2,2.7,2.8,2.7c1.5,0,2.7-1.2,2.8-2.7
				c0.6,1.4,2.2,2,3.6,1.4c1.2-0.5,1.8-1.7,1.6-2.9c1,0.6,2.4,0.4,3.3-0.5c0.9-0.9,1-2.2,0.5-3.3c1.2,0.2,2.4-0.5,2.9-1.6
				c0.6-1.4,0-3-1.4-3.6c1.5,0,2.7-1.2,2.7-2.8C101.6,14.5,100.3,13.2,98.8,13.2"/>
			<path class="st3" d="M29.2,81.4c1.4-0.6,2-2.2,1.4-3.6c-0.5-1.2-1.7-1.8-2.9-1.6c0.6-1.1,0.4-2.4-0.5-3.3c-0.9-0.9-2.2-1-3.3-0.5
				c0.2-1.2-0.5-2.4-1.6-2.9c-1.4-0.6-3,0-3.6,1.4c0-1.5-1.2-2.7-2.8-2.7c-1.5,0-2.7,1.2-2.8,2.7c-0.6-1.4-2.2-2-3.6-1.4
				C8.4,70,7.8,71.2,8,72.4c-1-0.6-2.4-0.4-3.3,0.5c-0.9,0.9-1,2.2-0.5,3.3C3,76,1.8,76.6,1.3,77.7c-0.6,1.4,0,3,1.4,3.6
				c-1.5,0-2.7,1.2-2.7,2.8c0,1.5,1.2,2.7,2.7,2.8c-1.4,0.6-2,2.2-1.4,3.6c0.5,1.2,1.7,1.8,2.9,1.6c-0.6,1-0.4,2.4,0.5,3.3
				c0.9,0.9,2.2,1,3.3,0.5c-0.2,1.2,0.5,2.4,1.6,2.9c1.4,0.6,3,0,3.6-1.4c0,1.5,1.2,2.7,2.8,2.7c1.5,0,2.7-1.2,2.8-2.7
				c0.6,1.4,2.2,2,3.6,1.4c1.2-0.5,1.8-1.7,1.6-2.9c1,0.6,2.4,0.4,3.3-0.5c0.9-0.9,1-2.2,0.5-3.3c1.2,0.2,2.4-0.5,2.9-1.6
				c0.6-1.4,0-3-1.4-3.6c1.5,0,2.7-1.2,2.7-2.8C31.9,82.6,30.7,81.4,29.2,81.4"/>
			<path class="st4" d="M98.8,81.4c1.4-0.6,2-2.2,1.4-3.6c-0.5-1.2-1.7-1.8-2.9-1.6c0.6-1.1,0.4-2.4-0.5-3.3c-0.9-0.9-2.2-1-3.3-0.5
				c0.2-1.2-0.5-2.4-1.6-2.9c-1.4-0.6-3,0-3.6,1.4c0-1.5-1.2-2.7-2.8-2.7c-1.5,0-2.7,1.2-2.8,2.7c-0.6-1.4-2.2-2-3.6-1.4
				c-1.2,0.5-1.8,1.7-1.6,2.9c-1-0.6-2.4-0.4-3.3,0.5c-0.9,0.9-1,2.2-0.5,3.3c-1.2-0.2-2.4,0.5-2.9,1.6c-0.6,1.4,0,3,1.4,3.6
				c-1.5,0-2.7,1.2-2.7,2.8c0,1.5,1.2,2.7,2.7,2.8c-1.4,0.6-2,2.2-1.4,3.6c0.5,1.2,1.7,1.8,2.9,1.6c-0.6,1-0.4,2.4,0.5,3.3
				c0.9,0.9,2.2,1,3.3,0.5c-0.2,1.2,0.5,2.4,1.6,2.9c1.4,0.6,3,0,3.6-1.4c0,1.5,1.2,2.7,2.8,2.7c1.5,0,2.7-1.2,2.8-2.7
				c0.6,1.4,2.2,2,3.6,1.4c1.2-0.5,1.8-1.7,1.6-2.9c1,0.6,2.4,0.4,3.3-0.5c0.9-0.9,1-2.2,0.5-3.3c1.2,0.2,2.4-0.5,2.9-1.6
				c0.6-1.4,0-3-1.4-3.6c1.5,0,2.7-1.2,2.7-2.8C101.6,82.6,100.3,81.4,98.8,81.4"/>
			<path class="st5" d="M29.2,47c1.4-0.6,2-2.2,1.4-3.6c-0.5-1.2-1.7-1.8-2.9-1.6c0.6-1.1,0.4-2.4-0.5-3.3c-0.9-0.9-2.2-1-3.3-0.5
				c0.2-1.2-0.5-2.4-1.6-2.9c-1.4-0.6-3,0-3.6,1.4c0-1.5-1.2-2.7-2.8-2.7c-1.5,0-2.7,1.2-2.8,2.7c-0.6-1.4-2.2-2-3.6-1.4
				C8.4,35.7,7.8,36.9,8,38c-1-0.6-2.4-0.4-3.3,0.5c-0.9,0.9-1,2.2-0.5,3.3c-1.2-0.2-2.4,0.5-2.9,1.6c-0.6,1.4,0,3,1.4,3.6
				c-1.5,0-2.7,1.2-2.7,2.8c0,1.5,1.2,2.7,2.7,2.8c-1.4,0.6-2,2.2-1.4,3.6C1.8,57.3,3,58,4.2,57.8c-0.6,1-0.4,2.4,0.5,3.3
				c0.9,0.9,2.2,1,3.3,0.5c-0.2,1.2,0.5,2.4,1.6,2.9c1.4,0.6,3,0,3.6-1.4c0,1.5,1.2,2.7,2.8,2.7c1.5,0,2.7-1.2,2.8-2.7
				c0.6,1.4,2.2,2,3.6,1.4c1.2-0.5,1.8-1.7,1.6-2.9c1,0.6,2.4,0.4,3.3-0.5c0.9-0.9,1-2.2,0.5-3.3c1.2,0.2,2.4-0.5,2.9-1.6
				c0.6-1.4,0-3-1.4-3.6c1.5,0,2.7-1.2,2.7-2.8C31.9,48.3,30.7,47.1,29.2,47"/>
			<path class="st6" d="M98.8,47c1.4-0.6,2-2.2,1.4-3.6c-0.5-1.2-1.7-1.8-2.9-1.6c0.6-1.1,0.4-2.4-0.5-3.3c-0.9-0.9-2.2-1-3.3-0.5
				c0.2-1.2-0.5-2.4-1.6-2.9c-1.4-0.6-3,0-3.6,1.4c0-1.5-1.2-2.7-2.8-2.7c-1.5,0-2.7,1.2-2.8,2.7c-0.6-1.4-2.2-2-3.6-1.4
				c-1.2,0.5-1.8,1.7-1.6,2.9c-1-0.6-2.4-0.4-3.3,0.5c-0.9,0.9-1,2.2-0.5,3.3c-1.2-0.2-2.4,0.5-2.9,1.6c-0.6,1.4,0,3,1.4,3.6
				c-1.5,0-2.7,1.2-2.7,2.8c0,1.5,1.2,2.7,2.7,2.8c-1.4,0.6-2,2.2-1.4,3.6c0.5,1.2,1.7,1.8,2.9,1.6c-0.6,1-0.4,2.4,0.5,3.3
				c0.9,0.9,2.2,1,3.3,0.5c-0.2,1.2,0.5,2.4,1.6,2.9c1.4,0.6,3,0,3.6-1.4c0,1.5,1.2,2.7,2.8,2.7c1.5,0,2.7-1.2,2.8-2.7
				c0.6,1.4,2.2,2,3.6,1.4c1.2-0.5,1.8-1.7,1.6-2.9c1,0.6,2.4,0.4,3.3-0.5c0.9-0.9,1-2.2,0.5-3.3c1.2,0.2,2.4-0.5,2.9-1.6
				c0.6-1.4,0-3-1.4-3.6c1.5,0,2.7-1.2,2.7-2.8C101.6,48.3,100.3,47.1,98.8,47"/>
			<path class="st7" d="M29.2,115.2c1.4-0.6,2-2.2,1.4-3.6c-0.5-1.2-1.7-1.8-2.9-1.6c0.6-1.1,0.4-2.4-0.5-3.3
				c-0.9-0.9-2.2-1-3.3-0.5c0.2-1.2-0.5-2.4-1.6-2.9c-1.4-0.6-3,0-3.6,1.4c0-1.5-1.2-2.7-2.8-2.7c-1.5,0-2.7,1.2-2.8,2.7
				c-0.6-1.4-2.2-2-3.6-1.4c-1.2,0.5-1.8,1.7-1.6,2.9c-1-0.6-2.4-0.4-3.3,0.5c-0.9,0.9-1,2.2-0.5,3.3c-1.2-0.2-2.4,0.5-2.9,1.6
				c-0.6,1.4,0,3,1.4,3.6c-1.5,0-2.7,1.2-2.7,2.8c0,1.5,1.2,2.7,2.7,2.8c-1.4,0.6-2,2.2-1.4,3.6c0.5,1.2,1.7,1.8,2.9,1.6
				c-0.6,1.1-0.4,2.4,0.5,3.3c0.9,0.9,2.2,1,3.3,0.5c-0.2,1.2,0.5,2.4,1.6,2.9c1.4,0.6,3,0,3.6-1.4c0,1.5,1.2,2.7,2.8,2.7
				c1.5,0,2.7-1.2,2.8-2.7c0.6,1.4,2.2,2,3.6,1.4c1.2-0.5,1.8-1.7,1.6-2.9c1,0.6,2.4,0.4,3.3-0.5c0.9-0.9,1-2.2,0.5-3.3
				c1.2,0.2,2.4-0.5,2.9-1.6c0.6-1.4,0-3-1.4-3.6c1.5,0,2.7-1.2,2.7-2.8C31.9,116.4,30.7,115.2,29.2,115.2"/>
			<path class="st8" d="M98.8,115.2c1.4-0.6,2-2.2,1.4-3.6c-0.5-1.2-1.7-1.8-2.9-1.6c0.6-1.1,0.4-2.4-0.5-3.3
				c-0.9-0.9-2.2-1-3.3-0.5c0.2-1.2-0.5-2.4-1.6-2.9c-1.4-0.6-3,0-3.6,1.4c0-1.5-1.2-2.7-2.8-2.7c-1.5,0-2.7,1.2-2.8,2.7
				c-0.6-1.4-2.2-2-3.6-1.4c-1.2,0.5-1.8,1.7-1.6,2.9c-1-0.6-2.4-0.4-3.3,0.5c-0.9,0.9-1,2.2-0.5,3.3c-1.2-0.2-2.4,0.5-2.9,1.6
				c-0.6,1.4,0,3,1.4,3.6c-1.5,0-2.7,1.2-2.7,2.8c0,1.5,1.2,2.7,2.7,2.8c-1.4,0.6-2,2.2-1.4,3.6c0.5,1.2,1.7,1.8,2.9,1.6
				c-0.6,1.1-0.4,2.4,0.5,3.3c0.9,0.9,2.2,1,3.3,0.5c-0.2,1.2,0.5,2.4,1.6,2.9c1.4,0.6,3,0,3.6-1.4c0,1.5,1.2,2.7,2.8,2.7
				c1.5,0,2.7-1.2,2.8-2.7c0.6,1.4,2.2,2,3.6,1.4c1.2-0.5,1.8-1.7,1.6-2.9c1,0.6,2.4,0.4,3.3-0.5c0.9-0.9,1-2.2,0.5-3.3
				c1.2,0.2,2.4-0.5,2.9-1.6c0.6-1.4,0-3-1.4-3.6c1.5,0,2.7-1.2,2.7-2.8C101.6,116.4,100.3,115.2,98.8,115.2"/>
			<path class="st6" d="M29.2,149.5c1.4-0.6,2-2.2,1.4-3.6c-0.5-1.2-1.7-1.8-2.9-1.6c0.6-1.1,0.4-2.4-0.5-3.3
				c-0.9-0.9-2.2-1-3.3-0.5c0.2-1.2-0.5-2.4-1.6-2.9c-1.4-0.6-3,0-3.6,1.4c0-1.5-1.2-2.7-2.8-2.7c-1.5,0-2.7,1.2-2.8,2.7
				c-0.6-1.4-2.2-2-3.6-1.4c-1.2,0.5-1.8,1.7-1.6,2.9c-1-0.6-2.4-0.4-3.3,0.5c-0.9,0.9-1,2.2-0.5,3.3c-1.2-0.2-2.4,0.5-2.9,1.6
				c-0.6,1.4,0,3,1.4,3.6c-1.5,0-2.7,1.2-2.7,2.8c0,1.5,1.2,2.7,2.7,2.8c-1.4,0.6-2,2.2-1.4,3.6c0.5,1.2,1.7,1.8,2.9,1.6
				c-0.6,1-0.4,2.4,0.5,3.3c0.9,0.9,2.2,1,3.3,0.5c-0.2,1.2,0.5,2.4,1.6,2.9c1.4,0.6,3,0,3.6-1.4c0,1.5,1.2,2.7,2.8,2.7
				c1.5,0,2.7-1.2,2.8-2.7c0.6,1.4,2.2,2,3.6,1.4c1.2-0.5,1.8-1.7,1.6-2.9c1,0.6,2.4,0.4,3.3-0.5c0.9-0.9,1-2.2,0.5-3.3
				c1.2,0.2,2.4-0.5,2.9-1.6c0.6-1.4,0-3-1.4-3.6c1.5,0,2.7-1.2,2.7-2.8C31.9,150.7,30.7,149.5,29.2,149.5"/>
			<path class="st7" d="M98.8,149.5c1.4-0.6,2-2.2,1.4-3.6c-0.5-1.2-1.7-1.8-2.9-1.6c0.6-1.1,0.4-2.4-0.5-3.3
				c-0.9-0.9-2.2-1-3.3-0.5c0.2-1.2-0.5-2.4-1.6-2.9c-1.4-0.6-3,0-3.6,1.4c0-1.5-1.2-2.7-2.8-2.7c-1.5,0-2.7,1.2-2.8,2.7
				c-0.6-1.4-2.2-2-3.6-1.4c-1.2,0.5-1.8,1.7-1.6,2.9c-1-0.6-2.4-0.4-3.3,0.5c-0.9,0.9-1,2.2-0.5,3.3c-1.2-0.2-2.4,0.5-2.9,1.6
				c-0.6,1.4,0,3,1.4,3.6c-1.5,0-2.7,1.2-2.7,2.8c0,1.5,1.2,2.7,2.7,2.8c-1.4,0.6-2,2.2-1.4,3.6c0.5,1.2,1.7,1.8,2.9,1.6
				c-0.6,1-0.4,2.4,0.5,3.3c0.9,0.9,2.2,1,3.3,0.5c-0.2,1.2,0.5,2.4,1.6,2.9c1.4,0.6,3,0,3.6-1.4c0,1.5,1.2,2.7,2.8,2.7
				c1.5,0,2.7-1.2,2.8-2.7c0.6,1.4,2.2,2,3.6,1.4c1.2-0.5,1.8-1.7,1.6-2.9c1,0.6,2.4,0.4,3.3-0.5c0.9-0.9,1-2.2,0.5-3.3
				c1.2,0.2,2.4-0.5,2.9-1.6c0.6-1.4,0-3-1.4-3.6c1.5,0,2.7-1.2,2.7-2.8C101.6,150.7,100.3,149.5,98.8,149.5"/>
			<path class="st4" d="M63.6,13.2c1.4-0.6,2-2.2,1.4-3.6c-0.5-1.2-1.7-1.8-2.9-1.6c0.6-1.1,0.4-2.4-0.5-3.3c-0.9-0.9-2.2-1-3.3-0.5
				c0.2-1.2-0.5-2.4-1.6-2.9c-1.4-0.6-3,0-3.6,1.4c0-1.5-1.2-2.7-2.8-2.7c-1.5,0-2.7,1.2-2.8,2.7c-0.6-1.4-2.2-2-3.6-1.4
				c-1.2,0.5-1.8,1.7-1.6,2.9c-1-0.6-2.4-0.4-3.3,0.5c-0.9,0.9-1,2.2-0.5,3.3c-1.2-0.2-2.4,0.5-2.9,1.6c-0.6,1.4,0,3,1.4,3.6
				c-1.5,0-2.7,1.2-2.7,2.8c0,1.5,1.2,2.7,2.7,2.8c-1.4,0.6-2,2.2-1.4,3.6c0.5,1.2,1.7,1.8,2.9,1.6C38,25,38.1,26.4,39,27.3
				c0.9,0.9,2.2,1,3.3,0.5c-0.2,1.2,0.5,2.4,1.6,2.9c1.4,0.6,3,0,3.6-1.4c0,1.5,1.2,2.7,2.8,2.7c1.5,0,2.7-1.2,2.8-2.7
				c0.6,1.4,2.2,2,3.6,1.4c1.2-0.5,1.8-1.7,1.6-2.9c1,0.6,2.4,0.4,3.3-0.5c0.9-0.9,1-2.2,0.5-3.3c1.2,0.2,2.4-0.5,2.9-1.6
				c0.6-1.4,0-3-1.4-3.6c1.5,0,2.7-1.2,2.7-2.8C66.3,14.5,65.1,13.2,63.6,13.2"/>
			<path class="st8" d="M133.2,13.2c1.4-0.6,2-2.2,1.4-3.6c-0.5-1.2-1.7-1.8-2.9-1.6c0.6-1.1,0.4-2.4-0.5-3.3
				c-0.9-0.9-2.2-1-3.3-0.5c0.2-1.2-0.5-2.4-1.6-2.9c-1.4-0.6-3,0-3.6,1.4c0-1.5-1.2-2.7-2.8-2.7c-1.5,0-2.7,1.2-2.8,2.7
				c-0.6-1.4-2.2-2-3.6-1.4c-1.2,0.5-1.8,1.7-1.6,2.9c-1-0.6-2.4-0.4-3.3,0.5c-0.9,0.9-1,2.2-0.5,3.3c-1.2-0.2-2.4,0.5-2.9,1.6
				c-0.6,1.4,0,3,1.4,3.6c-1.5,0-2.7,1.2-2.7,2.8c0,1.5,1.2,2.7,2.7,2.8c-1.4,0.6-2,2.2-1.4,3.6c0.5,1.2,1.7,1.8,2.9,1.6
				c-0.6,1.1-0.4,2.4,0.5,3.3c0.9,0.9,2.2,1,3.3,0.5c-0.2,1.2,0.5,2.4,1.6,2.9c1.4,0.6,3,0,3.6-1.4c0,1.5,1.2,2.7,2.8,2.7
				c1.5,0,2.7-1.2,2.8-2.7c0.6,1.4,2.2,2,3.6,1.4c1.2-0.5,1.8-1.7,1.6-2.9c1,0.6,2.4,0.4,3.3-0.5c0.9-0.9,1-2.2,0.5-3.3
				c1.2,0.2,2.4-0.5,2.9-1.6c0.6-1.4,0-3-1.4-3.6c1.5,0,2.7-1.2,2.7-2.8C135.9,14.5,134.7,13.2,133.2,13.2"/>
			<path class="st9" d="M63.6,81.4c1.4-0.6,2-2.2,1.4-3.6c-0.5-1.2-1.7-1.8-2.9-1.6c0.6-1.1,0.4-2.4-0.5-3.3c-0.9-0.9-2.2-1-3.3-0.5
				c0.2-1.2-0.5-2.4-1.6-2.9c-1.4-0.6-3,0-3.6,1.4c0-1.5-1.2-2.7-2.8-2.7c-1.5,0-2.7,1.2-2.8,2.7c-0.6-1.4-2.2-2-3.6-1.4
				c-1.2,0.5-1.8,1.7-1.6,2.9c-1-0.6-2.4-0.4-3.3,0.5c-0.9,0.9-1,2.2-0.5,3.3c-1.2-0.2-2.4,0.5-2.9,1.6c-0.6,1.4,0,3,1.4,3.6
				c-1.5,0-2.7,1.2-2.7,2.8c0,1.5,1.2,2.7,2.7,2.8c-1.4,0.6-2,2.2-1.4,3.6c0.5,1.2,1.7,1.8,2.9,1.6c-0.6,1-0.4,2.4,0.5,3.3
				c0.9,0.9,2.2,1,3.3,0.5c-0.2,1.2,0.5,2.4,1.6,2.9c1.4,0.6,3,0,3.6-1.4c0,1.5,1.2,2.7,2.8,2.7c1.5,0,2.7-1.2,2.8-2.7
				c0.6,1.4,2.2,2,3.6,1.4c1.2-0.5,1.8-1.7,1.6-2.9c1,0.6,2.4,0.4,3.3-0.5c0.9-0.9,1-2.2,0.5-3.3c1.2,0.2,2.4-0.5,2.9-1.6
				c0.6-1.4,0-3-1.4-3.6c1.5,0,2.7-1.2,2.7-2.8C66.3,82.6,65.1,81.4,63.6,81.4"/>
			<path class="st10" d="M133.2,81.4c1.4-0.6,2-2.2,1.4-3.6c-0.5-1.2-1.7-1.8-2.9-1.6c0.6-1.1,0.4-2.4-0.5-3.3
				c-0.9-0.9-2.2-1-3.3-0.5c0.2-1.2-0.5-2.4-1.6-2.9c-1.4-0.6-3,0-3.6,1.4c0-1.5-1.2-2.7-2.8-2.7c-1.5,0-2.7,1.2-2.8,2.7
				c-0.6-1.4-2.2-2-3.6-1.4c-1.2,0.5-1.8,1.7-1.6,2.9c-1-0.6-2.4-0.4-3.3,0.5c-0.9,0.9-1,2.2-0.5,3.3c-1.2-0.2-2.4,0.5-2.9,1.6
				c-0.6,1.4,0,3,1.4,3.6c-1.5,0-2.7,1.2-2.7,2.8c0,1.5,1.2,2.7,2.7,2.8c-1.4,0.6-2,2.2-1.4,3.6c0.5,1.2,1.7,1.8,2.9,1.6
				c-0.6,1-0.4,2.4,0.5,3.3c0.9,0.9,2.2,1,3.3,0.5c-0.2,1.2,0.5,2.4,1.6,2.9c1.4,0.6,3,0,3.6-1.4c0,1.5,1.2,2.7,2.8,2.7
				c1.5,0,2.7-1.2,2.8-2.7c0.6,1.4,2.2,2,3.6,1.4c1.2-0.5,1.8-1.7,1.6-2.9c1,0.6,2.4,0.4,3.3-0.5c0.9-0.9,1-2.2,0.5-3.3
				c1.2,0.2,2.4-0.5,2.9-1.6c0.6-1.4,0-3-1.4-3.6c1.5,0,2.7-1.2,2.7-2.8C135.9,82.6,134.7,81.4,133.2,81.4"/>
			<path class="st8" d="M63.6,47c1.4-0.6,2-2.2,1.4-3.6c-0.5-1.2-1.7-1.8-2.9-1.6c0.6-1.1,0.4-2.4-0.5-3.3c-0.9-0.9-2.2-1-3.3-0.5
				c0.2-1.2-0.5-2.4-1.6-2.9c-1.4-0.6-3,0-3.6,1.4c0-1.5-1.2-2.7-2.8-2.7c-1.5,0-2.7,1.2-2.8,2.7c-0.6-1.4-2.2-2-3.6-1.4
				c-1.2,0.5-1.8,1.7-1.6,2.9c-1-0.6-2.4-0.4-3.3,0.5c-0.9,0.9-1,2.2-0.5,3.3c-1.2-0.2-2.4,0.5-2.9,1.6c-0.6,1.4,0,3,1.4,3.6
				c-1.5,0-2.7,1.2-2.7,2.8c0,1.5,1.2,2.7,2.7,2.8c-1.4,0.6-2,2.2-1.4,3.6c0.5,1.2,1.7,1.8,2.9,1.6c-0.6,1-0.4,2.4,0.5,3.3
				c0.9,0.9,2.2,1,3.3,0.5c-0.2,1.2,0.5,2.4,1.6,2.9c1.4,0.6,3,0,3.6-1.4c0,1.5,1.2,2.7,2.8,2.7c1.5,0,2.7-1.2,2.8-2.7
				c0.6,1.4,2.2,2,3.6,1.4c1.2-0.5,1.8-1.7,1.6-2.9c1,0.6,2.4,0.4,3.3-0.5c0.9-0.9,1-2.2,0.5-3.3c1.2,0.2,2.4-0.5,2.9-1.6
				c0.6-1.4,0-3-1.4-3.6c1.5,0,2.7-1.2,2.7-2.8C66.3,48.3,65.1,47.1,63.6,47"/>
			<path class="st3" d="M133.2,47c1.4-0.6,2-2.2,1.4-3.6c-0.5-1.2-1.7-1.8-2.9-1.6c0.6-1.1,0.4-2.4-0.5-3.3c-0.9-0.9-2.2-1-3.3-0.5
				c0.2-1.2-0.5-2.4-1.6-2.9c-1.4-0.6-3,0-3.6,1.4c0-1.5-1.2-2.7-2.8-2.7c-1.5,0-2.7,1.2-2.8,2.7c-0.6-1.4-2.2-2-3.6-1.4
				c-1.2,0.5-1.8,1.7-1.6,2.9c-1-0.6-2.4-0.4-3.3,0.5c-0.9,0.9-1,2.2-0.5,3.3c-1.2-0.2-2.4,0.5-2.9,1.6c-0.6,1.4,0,3,1.4,3.6
				c-1.5,0-2.7,1.2-2.7,2.8c0,1.5,1.2,2.7,2.7,2.8c-1.4,0.6-2,2.2-1.4,3.6c0.5,1.2,1.7,1.8,2.9,1.6c-0.6,1-0.4,2.4,0.5,3.3
				c0.9,0.9,2.2,1,3.3,0.5c-0.2,1.2,0.5,2.4,1.6,2.9c1.4,0.6,3,0,3.6-1.4c0,1.5,1.2,2.7,2.8,2.7c1.5,0,2.7-1.2,2.8-2.7
				c0.6,1.4,2.2,2,3.6,1.4c1.2-0.5,1.8-1.7,1.6-2.9c1,0.6,2.4,0.4,3.3-0.5c0.9-0.9,1-2.2,0.5-3.3c1.2,0.2,2.4-0.5,2.9-1.6
				c0.6-1.4,0-3-1.4-3.6c1.5,0,2.7-1.2,2.7-2.8C135.9,48.3,134.7,47.1,133.2,47"/>
			<path class="st5" d="M63.6,115.2c1.4-0.6,2-2.2,1.4-3.6c-0.5-1.2-1.7-1.8-2.9-1.6c0.6-1.1,0.4-2.4-0.5-3.3
				c-0.9-0.9-2.2-1-3.3-0.5c0.2-1.2-0.5-2.4-1.6-2.9c-1.4-0.6-3,0-3.6,1.4c0-1.5-1.2-2.7-2.8-2.7c-1.5,0-2.7,1.2-2.8,2.7
				c-0.6-1.4-2.2-2-3.6-1.4c-1.2,0.5-1.8,1.7-1.6,2.9c-1-0.6-2.4-0.4-3.3,0.5c-0.9,0.9-1,2.2-0.5,3.3c-1.2-0.2-2.4,0.5-2.9,1.6
				c-0.6,1.4,0,3,1.4,3.6c-1.5,0-2.7,1.2-2.7,2.8c0,1.5,1.2,2.7,2.7,2.8c-1.4,0.6-2,2.2-1.4,3.6c0.5,1.2,1.7,1.8,2.9,1.6
				c-0.6,1.1-0.4,2.4,0.5,3.3c0.9,0.9,2.2,1,3.3,0.5c-0.2,1.2,0.5,2.4,1.6,2.9c1.4,0.6,3,0,3.6-1.4c0,1.5,1.2,2.7,2.8,2.7
				c1.5,0,2.7-1.2,2.8-2.7c0.6,1.4,2.2,2,3.6,1.4c1.2-0.5,1.8-1.7,1.6-2.9c1,0.6,2.4,0.4,3.3-0.5c0.9-0.9,1-2.2,0.5-3.3
				c1.2,0.2,2.4-0.5,2.9-1.6c0.6-1.4,0-3-1.4-3.6c1.5,0,2.7-1.2,2.7-2.8C66.3,116.4,65.1,115.2,63.6,115.2"/>
			<path class="st5" d="M133.2,115.2c1.4-0.6,2-2.2,1.4-3.6c-0.5-1.2-1.7-1.8-2.9-1.6c0.6-1.1,0.4-2.4-0.5-3.3
				c-0.9-0.9-2.2-1-3.3-0.5c0.2-1.2-0.5-2.4-1.6-2.9c-1.4-0.6-3,0-3.6,1.4c0-1.5-1.2-2.7-2.8-2.7c-1.5,0-2.7,1.2-2.8,2.7
				c-0.6-1.4-2.2-2-3.6-1.4c-1.2,0.5-1.8,1.7-1.6,2.9c-1-0.6-2.4-0.4-3.3,0.5c-0.9,0.9-1,2.2-0.5,3.3c-1.2-0.2-2.4,0.5-2.9,1.6
				c-0.6,1.4,0,3,1.4,3.6c-1.5,0-2.7,1.2-2.7,2.8c0,1.5,1.2,2.7,2.7,2.8c-1.4,0.6-2,2.2-1.4,3.6c0.5,1.2,1.7,1.8,2.9,1.6
				c-0.6,1.1-0.4,2.4,0.5,3.3c0.9,0.9,2.2,1,3.3,0.5c-0.2,1.2,0.5,2.4,1.6,2.9c1.4,0.6,3,0,3.6-1.4c0,1.5,1.2,2.7,2.8,2.7
				c1.5,0,2.7-1.2,2.8-2.7c0.6,1.4,2.2,2,3.6,1.4c1.2-0.5,1.8-1.7,1.6-2.9c1,0.6,2.4,0.4,3.3-0.5c0.9-0.9,1-2.2,0.5-3.3
				c1.2,0.2,2.4-0.5,2.9-1.6c0.6-1.4,0-3-1.4-3.6c1.5,0,2.7-1.2,2.7-2.8C135.9,116.4,134.7,115.2,133.2,115.2"/>
			<path class="st2" d="M63.6,149.5c1.4-0.6,2-2.2,1.4-3.6c-0.5-1.2-1.7-1.8-2.9-1.6c0.6-1.1,0.4-2.4-0.5-3.3
				c-0.9-0.9-2.2-1-3.3-0.5c0.2-1.2-0.5-2.4-1.6-2.9c-1.4-0.6-3,0-3.6,1.4c0-1.5-1.2-2.7-2.8-2.7c-1.5,0-2.7,1.2-2.8,2.7
				c-0.6-1.4-2.2-2-3.6-1.4c-1.2,0.5-1.8,1.7-1.6,2.9c-1-0.6-2.4-0.4-3.3,0.5c-0.9,0.9-1,2.2-0.5,3.3c-1.2-0.2-2.4,0.5-2.9,1.6
				c-0.6,1.4,0,3,1.4,3.6c-1.5,0-2.7,1.2-2.7,2.8c0,1.5,1.2,2.7,2.7,2.8c-1.4,0.6-2,2.2-1.4,3.6c0.5,1.2,1.7,1.8,2.9,1.6
				c-0.6,1-0.4,2.4,0.5,3.3c0.9,0.9,2.2,1,3.3,0.5c-0.2,1.2,0.5,2.4,1.6,2.9c1.4,0.6,3,0,3.6-1.4c0,1.5,1.2,2.7,2.8,2.7
				c1.5,0,2.7-1.2,2.8-2.7c0.6,1.4,2.2,2,3.6,1.4c1.2-0.5,1.8-1.7,1.6-2.9c1,0.6,2.4,0.4,3.3-0.5c0.9-0.9,1-2.2,0.5-3.3
				c1.2,0.2,2.4-0.5,2.9-1.6c0.6-1.4,0-3-1.4-3.6c1.5,0,2.7-1.2,2.7-2.8C66.3,150.7,65.1,149.5,63.6,149.5"/>
			<path class="st6" d="M133.2,149.5c1.4-0.6,2-2.2,1.4-3.6c-0.5-1.2-1.7-1.8-2.9-1.6c0.6-1.1,0.4-2.4-0.5-3.3
				c-0.9-0.9-2.2-1-3.3-0.5c0.2-1.2-0.5-2.4-1.6-2.9c-1.4-0.6-3,0-3.6,1.4c0-1.5-1.2-2.7-2.8-2.7c-1.5,0-2.7,1.2-2.8,2.7
				c-0.6-1.4-2.2-2-3.6-1.4c-1.2,0.5-1.8,1.7-1.6,2.9c-1-0.6-2.4-0.4-3.3,0.5c-0.9,0.9-1,2.2-0.5,3.3c-1.2-0.2-2.4,0.5-2.9,1.6
				c-0.6,1.4,0,3,1.4,3.6c-1.5,0-2.7,1.2-2.7,2.8c0,1.5,1.2,2.7,2.7,2.8c-1.4,0.6-2,2.2-1.4,3.6c0.5,1.2,1.7,1.8,2.9,1.6
				c-0.6,1-0.4,2.4,0.5,3.3c0.9,0.9,2.2,1,3.3,0.5c-0.2,1.2,0.5,2.4,1.6,2.9c1.4,0.6,3,0,3.6-1.4c0,1.5,1.2,2.7,2.8,2.7
				c1.5,0,2.7-1.2,2.8-2.7c0.6,1.4,2.2,2,3.6,1.4c1.2-0.5,1.8-1.7,1.6-2.9c1,0.6,2.4,0.4,3.3-0.5c0.9-0.9,1-2.2,0.5-3.3
				c1.2,0.2,2.4-0.5,2.9-1.6c0.6-1.4,0-3-1.4-3.6c1.5,0,2.7-1.2,2.7-2.8C135.9,150.7,134.7,149.5,133.2,149.5"/>
			<path class="st11" d="M27.3,11.9c-0.4-0.8-1.8-1-2.6-1.2c-1.2-0.2-2.5-0.1-3.7,0.2c-0.2,0.1-0.5,0.1-0.6,0.2
				c-0.3-1.4-1.5-1.8-2.9-1.8h-2.9c-1.5,0-2.7,0.4-2.9,1.8c-0.2-0.1-0.4-0.1-0.7-0.2c-1.2-0.3-2.5-0.4-3.7-0.2
				c-0.8,0.2-2.1,0.4-2.6,1.2c-0.2,0.4-0.2,1.1,0,1.5c0.5,0.8,2.2,0.7,2.9,0.6c1.3-0.2,2.6-0.6,3.9-0.6l0.7,7c0,1.6,1.3,3,3,3h1.6
				c1.6,0,3-1.3,3-3l0.7-7c1.3,0,2.6,0.4,3.9,0.6c0.8,0.1,2.4,0.2,2.9-0.6C27.5,13,27.5,12.3,27.3,11.9"/>
		</g>
		<g class="st1">
			<defs>
				<path id="SVGID_3_" d="M14.5,9.3c-1.5,0-2.7,0.4-2.9,1.8c-0.2-0.1-0.4-0.1-0.7-0.2c-1.2-0.3-2.5-0.4-3.7-0.2
					c-0.8,0.2-2.1,0.4-2.6,1.2c-0.2,0.4-0.2,1.1,0,1.5c0.5,0.8,2.2,0.7,2.9,0.6c1.3-0.2,2.6-0.6,3.9-0.6l0.7,7c0,1.6,1.3,3,3,3h1.6
					c1.6,0,3-1.3,3-3l0.7-7c1.3,0,2.6,0.4,3.9,0.6c0.8,0.1,2.4,0.2,2.9-0.6c0.2-0.4,0.2-1.1,0-1.5c-0.4-0.8-1.8-1-2.6-1.2
					c-1.2-0.2-2.5-0.1-3.7,0.2c-0.2,0.1-0.5,0.1-0.6,0.2c-0.3-1.4-1.5-1.8-2.9-1.8H14.5z"/>
			</defs>
			<clipPath id="SVGID_4_">
				<use xlink:href="#SVGID_3_"  style="overflow:visible;"/>
			</clipPath>
			<path class="st12" d="M17.2,22.1c0,0-1.7,0.6-0.6,1.7"/>
			<path class="st12" d="M15,22.1c0,0,1.7,0.6,0.6,1.7"/>
		</g>
		<g class="st1">
			<defs>
				<rect id="SVGID_5_" x="0" width="135.9" height="168.2"/>
			</defs>
			<clipPath id="SVGID_6_">
				<use xlink:href="#SVGID_5_"  style="overflow:visible;"/>
			</clipPath>
			<path class="st13" d="M14.5,14.9c0,0.3-0.2,0.5-0.5,0.5c-0.3,0-0.5-0.2-0.5-0.5c0-0.3,0.2-0.5,0.5-0.5
				C14.2,14.4,14.5,14.6,14.5,14.9"/>
			<path class="st13" d="M18.3,14.9c0,0.3-0.2,0.5-0.5,0.5c-0.3,0-0.5-0.2-0.5-0.5c0-0.3,0.2-0.5,0.5-0.5
				C18.1,14.4,18.3,14.6,18.3,14.9"/>
			<path class="st14" d="M27.3,13.4c0.1-0.2,0.2-0.6,0.2-0.9c-0.7-0.4-1.9-0.7-3.2-0.7c-2.1,0-3.8,0.7-3.8,1.5c0,0,0,0.1,0,0.1v-0.1
				c1.3,0,2.6,0.4,3.9,0.6C25.1,14,26.8,14.1,27.3,13.4"/>
			<path class="st14" d="M4.7,13.4c-0.1-0.2-0.2-0.6-0.2-0.9c0.7-0.4,1.9-0.7,3.2-0.7c2.1,0,3.8,0.7,3.8,1.5c0,0,0,0.1,0,0.1v-0.1
				c-1.3,0-2.6,0.4-3.9,0.6C6.8,14,5.2,14.1,4.7,13.4"/>
			<path class="st15" d="M96.9,11.9c-0.4-0.8-1.8-1-2.6-1.2c-1.2-0.2-2.5-0.1-3.7,0.2c-0.2,0.1-0.5,0.1-0.6,0.2
				c-0.3-1.4-1.5-1.8-2.9-1.8h-2.9c-1.5,0-2.7,0.4-2.9,1.8c-0.2-0.1-0.4-0.1-0.7-0.2c-1.2-0.3-2.5-0.4-3.7-0.2
				c-0.8,0.2-2.1,0.4-2.6,1.2c-0.2,0.4-0.2,1.1,0,1.5c0.5,0.8,2.2,0.7,2.9,0.6c1.3-0.2,2.6-0.6,3.9-0.6l0.7,7c0,1.6,1.3,3,3,3h1.6
				c1.6,0,3-1.3,3-3l0.7-7c1.3,0,2.6,0.4,3.9,0.6c0.8,0.1,2.4,0.2,2.9-0.6C97.1,13,97.1,12.3,96.9,11.9"/>
		</g>
		<g class="st1">
			<defs>
				<rect id="SVGID_7_" x="0" width="135.9" height="168.2"/>
			</defs>
			<clipPath id="SVGID_8_">
				<use xlink:href="#SVGID_7_"  style="overflow:visible;"/>
			</clipPath>
			<path class="st16" d="M84.1,14.9c0,0.3-0.2,0.5-0.5,0.5c-0.3,0-0.5-0.2-0.5-0.5c0-0.3,0.2-0.5,0.5-0.5
				C83.9,14.4,84.1,14.6,84.1,14.9"/>
			<path class="st16" d="M88,14.9c0,0.3-0.2,0.5-0.5,0.5c-0.3,0-0.5-0.2-0.5-0.5c0-0.3,0.2-0.5,0.5-0.5C87.7,14.4,88,14.6,88,14.9"
				/>
			<path class="st17" d="M96.9,13.4c0.1-0.2,0.2-0.6,0.2-0.9c-0.7-0.4-1.9-0.7-3.2-0.7c-2.1,0-3.8,0.7-3.8,1.5c0,0,0,0.1,0,0.1v-0.1
				c1.3,0,2.6,0.4,3.9,0.6C94.7,14,96.4,14.1,96.9,13.4"/>
			<path class="st17" d="M74.3,13.4c-0.1-0.2-0.2-0.6-0.2-0.9c0.7-0.4,1.9-0.7,3.2-0.7c2.1,0,3.8,0.7,3.8,1.5c0,0,0,0.1,0,0.1v-0.1
				c-1.3,0-2.6,0.4-3.9,0.6C76.5,14,74.8,14.1,74.3,13.4"/>
			<path class="st18" d="M27.3,80c-0.4-0.8-1.8-1-2.6-1.2c-1.2-0.2-2.5-0.1-3.7,0.2c-0.2,0.1-0.5,0.1-0.6,0.2
				c-0.3-1.4-1.5-1.8-2.9-1.8h-2.9c-1.5,0-2.7,0.4-2.9,1.8c-0.2-0.1-0.4-0.1-0.7-0.2c-1.2-0.3-2.5-0.4-3.7-0.2
				C6.4,79,5.1,79.2,4.6,80c-0.2,0.4-0.2,1.1,0,1.5c0.5,0.8,2.2,0.7,2.9,0.6c1.3-0.2,2.6-0.6,3.9-0.6l0.7,7c0,1.6,1.3,3,3,3h1.6
				c1.6,0,3-1.3,3-3l0.7-7c1.3,0,2.6,0.4,3.9,0.6c0.8,0.1,2.4,0.2,2.9-0.6C27.5,81.1,27.5,80.4,27.3,80"/>
		</g>
		<g class="st1">
			<defs>
				<path id="SVGID_9_" d="M14.5,77.4c-1.5,0-2.7,0.4-2.9,1.8c-0.2-0.1-0.4-0.1-0.7-0.2c-1.2-0.3-2.5-0.4-3.7-0.2
					C6.4,79,5.1,79.2,4.6,80c-0.2,0.4-0.2,1.1,0,1.5c0.5,0.8,2.2,0.7,2.9,0.6c1.3-0.2,2.6-0.6,3.9-0.6l0.7,7c0,1.6,1.3,3,3,3h1.6
					c1.6,0,3-1.3,3-3l0.7-7c1.3,0,2.6,0.4,3.9,0.6c0.8,0.1,2.4,0.2,2.9-0.6c0.2-0.4,0.2-1.1,0-1.5c-0.4-0.8-1.8-1-2.6-1.2
					c-1.2-0.2-2.5-0.1-3.7,0.2c-0.2,0.1-0.5,0.1-0.6,0.2c-0.3-1.4-1.5-1.8-2.9-1.8H14.5z"/>
			</defs>
			<clipPath id="SVGID_10_">
				<use xlink:href="#SVGID_9_"  style="overflow:visible;"/>
			</clipPath>
			<path class="st19" d="M17.2,90.2c0,0-1.7,0.6-0.6,1.7"/>
			<path class="st19" d="M15,90.2c0,0,1.7,0.6,0.6,1.7"/>
		</g>
		<g class="st1">
			<defs>
				<rect id="SVGID_11_" x="0" width="135.9" height="168.2"/>
			</defs>
			<clipPath id="SVGID_12_">
				<use xlink:href="#SVGID_11_"  style="overflow:visible;"/>
			</clipPath>
			<path class="st20" d="M14.5,83c0,0.3-0.2,0.5-0.5,0.5c-0.3,0-0.5-0.2-0.5-0.5c0-0.3,0.2-0.5,0.5-0.5C14.2,82.6,14.5,82.8,14.5,83
				"/>
			<path class="st20" d="M18.3,83c0,0.3-0.2,0.5-0.5,0.5c-0.3,0-0.5-0.2-0.5-0.5c0-0.3,0.2-0.5,0.5-0.5C18.1,82.6,18.3,82.8,18.3,83
				"/>
			<path class="st21" d="M27.3,81.5c0.1-0.2,0.2-0.6,0.2-0.9c-0.7-0.4-1.9-0.7-3.2-0.7c-2.1,0-3.8,0.7-3.8,1.5c0,0,0,0.1,0,0.1v-0.1
				c1.3,0,2.6,0.4,3.9,0.6C25.1,82.2,26.8,82.3,27.3,81.5"/>
			<path class="st21" d="M4.7,81.5c-0.1-0.2-0.2-0.6-0.2-0.9c0.7-0.4,1.9-0.7,3.2-0.7c2.1,0,3.8,0.7,3.8,1.5c0,0,0,0.1,0,0.1v-0.1
				c-1.3,0-2.6,0.4-3.9,0.6C6.8,82.2,5.2,82.3,4.7,81.5"/>
			<path class="st22" d="M96.9,80c-0.4-0.8-1.8-1-2.6-1.2c-1.2-0.2-2.5-0.1-3.7,0.2c-0.2,0.1-0.5,0.1-0.6,0.2
				c-0.3-1.4-1.5-1.8-2.9-1.8h-2.9c-1.5,0-2.7,0.4-2.9,1.8c-0.2-0.1-0.4-0.1-0.7-0.2c-1.2-0.3-2.5-0.4-3.7-0.2
				C76,79,74.7,79.2,74.3,80c-0.2,0.4-0.2,1.1,0,1.5c0.5,0.8,2.2,0.7,2.9,0.6c1.3-0.2,2.6-0.6,3.9-0.6l0.7,7c0,1.6,1.3,3,3,3h1.6
				c1.6,0,3-1.3,3-3l0.7-7c1.3,0,2.6,0.4,3.9,0.6c0.8,0.1,2.4,0.2,2.9-0.6C97.1,81.1,97.1,80.4,96.9,80"/>
		</g>
		<g class="st1">
			<defs>
				<rect id="SVGID_13_" x="0" width="135.9" height="168.2"/>
			</defs>
			<clipPath id="SVGID_14_">
				<use xlink:href="#SVGID_13_"  style="overflow:visible;"/>
			</clipPath>
			<path class="st23" d="M84.1,83c0,0.3-0.2,0.5-0.5,0.5c-0.3,0-0.5-0.2-0.5-0.5c0-0.3,0.2-0.5,0.5-0.5C83.9,82.6,84.1,82.8,84.1,83
				"/>
			<path class="st23" d="M88,83c0,0.3-0.2,0.5-0.5,0.5c-0.3,0-0.5-0.2-0.5-0.5c0-0.3,0.2-0.5,0.5-0.5C87.7,82.6,88,82.8,88,83"/>
			<path class="st24" d="M96.9,81.5c0.1-0.2,0.2-0.6,0.2-0.9c-0.7-0.4-1.9-0.7-3.2-0.7c-2.1,0-3.8,0.7-3.8,1.5c0,0,0,0.1,0,0.1v-0.1
				c1.3,0,2.6,0.4,3.9,0.6C94.7,82.2,96.4,82.3,96.9,81.5"/>
			<path class="st24" d="M74.3,81.5c-0.1-0.2-0.2-0.6-0.2-0.9c0.7-0.4,1.9-0.7,3.2-0.7c2.1,0,3.8,0.7,3.8,1.5c0,0,0,0.1,0,0.1v-0.1
				c-1.3,0-2.6,0.4-3.9,0.6C76.5,82.2,74.8,82.3,74.3,81.5"/>
			<path class="st25" d="M27.3,45.7c-0.4-0.8-1.8-1-2.6-1.2c-1.2-0.2-2.5-0.1-3.7,0.2c-0.2,0.1-0.5,0.1-0.6,0.2
				c-0.3-1.4-1.5-1.8-2.9-1.8h-2.9c-1.5,0-2.7,0.4-2.9,1.8c-0.2-0.1-0.4-0.1-0.7-0.2c-1.2-0.3-2.5-0.4-3.7-0.2
				c-0.8,0.2-2.1,0.4-2.6,1.2c-0.2,0.4-0.2,1.1,0,1.5c0.5,0.8,2.2,0.7,2.9,0.6c1.3-0.2,2.6-0.6,3.9-0.6l0.7,7c0,1.6,1.3,3,3,3h1.6
				c1.6,0,3-1.3,3-3l0.7-7c1.3,0,2.6,0.4,3.9,0.6c0.8,0.1,2.4,0.2,2.9-0.6C27.5,46.8,27.5,46.1,27.3,45.7"/>
		</g>
		<g class="st1">
			<defs>
				<path id="SVGID_15_" d="M14.5,43.1c-1.5,0-2.7,0.4-2.9,1.8c-0.2-0.1-0.4-0.1-0.7-0.2c-1.2-0.3-2.5-0.4-3.7-0.2
					c-0.8,0.2-2.1,0.4-2.6,1.2c-0.2,0.4-0.2,1.1,0,1.5c0.5,0.8,2.2,0.7,2.9,0.6c1.3-0.2,2.6-0.6,3.9-0.6l0.7,7c0,1.6,1.3,3,3,3h1.6
					c1.6,0,3-1.3,3-3l0.7-7c1.3,0,2.6,0.4,3.9,0.6c0.8,0.1,2.4,0.2,2.9-0.6c0.2-0.4,0.2-1.1,0-1.5c-0.4-0.8-1.8-1-2.6-1.2
					c-1.2-0.2-2.5-0.1-3.7,0.2c-0.2,0.1-0.5,0.1-0.6,0.2c-0.3-1.4-1.5-1.8-2.9-1.8H14.5z"/>
			</defs>
			<clipPath id="SVGID_16_">
				<use xlink:href="#SVGID_15_"  style="overflow:visible;"/>
			</clipPath>
			<path class="st26" d="M17.2,55.9c0,0-1.7,0.6-0.6,1.7"/>
			<path class="st26" d="M15,55.9c0,0,1.7,0.6,0.6,1.7"/>
		</g>
		<g class="st1">
			<defs>
				<rect id="SVGID_17_" x="0" width="135.9" height="168.2"/>
			</defs>
			<clipPath id="SVGID_18_">
				<use xlink:href="#SVGID_17_"  style="overflow:visible;"/>
			</clipPath>
			<path class="st27" d="M14.5,48.7c0,0.3-0.2,0.5-0.5,0.5c-0.3,0-0.5-0.2-0.5-0.5c0-0.3,0.2-0.5,0.5-0.5
				C14.2,48.2,14.5,48.5,14.5,48.7"/>
			<path class="st27" d="M18.3,48.7c0,0.3-0.2,0.5-0.5,0.5c-0.3,0-0.5-0.2-0.5-0.5c0-0.3,0.2-0.5,0.5-0.5
				C18.1,48.2,18.3,48.5,18.3,48.7"/>
			<path class="st28" d="M27.3,47.2c0.1-0.2,0.2-0.6,0.2-0.9c-0.7-0.4-1.9-0.7-3.2-0.7c-2.1,0-3.8,0.7-3.8,1.5c0,0,0,0.1,0,0.1v-0.1
				c1.3,0,2.6,0.4,3.9,0.6C25.1,47.9,26.8,48,27.3,47.2"/>
			<path class="st28" d="M4.7,47.2c-0.1-0.2-0.2-0.6-0.2-0.9c0.7-0.4,1.9-0.7,3.2-0.7c2.1,0,3.8,0.7,3.8,1.5c0,0,0,0.1,0,0.1v-0.1
				c-1.3,0-2.6,0.4-3.9,0.6C6.8,47.9,5.2,48,4.7,47.2"/>
			<path class="st29" d="M96.9,45.7c-0.4-0.8-1.8-1-2.6-1.2c-1.2-0.2-2.5-0.1-3.7,0.2c-0.2,0.1-0.5,0.1-0.6,0.2
				c-0.3-1.4-1.5-1.8-2.9-1.8h-2.9c-1.5,0-2.7,0.4-2.9,1.8c-0.2-0.1-0.4-0.1-0.7-0.2c-1.2-0.3-2.5-0.4-3.7-0.2
				c-0.8,0.2-2.1,0.4-2.6,1.2c-0.2,0.4-0.2,1.1,0,1.5c0.5,0.8,2.2,0.7,2.9,0.6c1.3-0.2,2.6-0.6,3.9-0.6l0.7,7c0,1.6,1.3,3,3,3h1.6
				c1.6,0,3-1.3,3-3l0.7-7c1.3,0,2.6,0.4,3.9,0.6c0.8,0.1,2.4,0.2,2.9-0.6C97.1,46.8,97.1,46.1,96.9,45.7"/>
		</g>
		<g class="st1">
			<defs>
				<rect id="SVGID_19_" x="0" width="135.9" height="168.2"/>
			</defs>
			<clipPath id="SVGID_20_">
				<use xlink:href="#SVGID_19_"  style="overflow:visible;"/>
			</clipPath>
			<path class="st30" d="M84.1,48.7c0,0.3-0.2,0.5-0.5,0.5c-0.3,0-0.5-0.2-0.5-0.5c0-0.3,0.2-0.5,0.5-0.5
				C83.9,48.2,84.1,48.5,84.1,48.7"/>
			<path class="st30" d="M88,48.7c0,0.3-0.2,0.5-0.5,0.5c-0.3,0-0.5-0.2-0.5-0.5c0-0.3,0.2-0.5,0.5-0.5C87.7,48.2,88,48.5,88,48.7"
				/>
			<path class="st31" d="M96.9,47.2c0.1-0.2,0.2-0.6,0.2-0.9c-0.7-0.4-1.9-0.7-3.2-0.7c-2.1,0-3.8,0.7-3.8,1.5c0,0,0,0.1,0,0.1v-0.1
				c1.3,0,2.6,0.4,3.9,0.6C94.7,47.9,96.4,48,96.9,47.2"/>
			<path class="st31" d="M74.3,47.2c-0.1-0.2-0.2-0.6-0.2-0.9c0.7-0.4,1.9-0.7,3.2-0.7c2.1,0,3.8,0.7,3.8,1.5c0,0,0,0.1,0,0.1v-0.1
				c-1.3,0-2.6,0.4-3.9,0.6C76.5,47.9,74.8,48,74.3,47.2"/>
			<path class="st32" d="M27.3,113.8c-0.4-0.8-1.8-1-2.6-1.2c-1.2-0.2-2.5-0.1-3.7,0.2c-0.2,0-0.5,0.1-0.6,0.2
				c-0.3-1.4-1.5-1.8-2.9-1.8h-2.9c-1.5,0-2.7,0.4-2.9,1.8c-0.2-0.1-0.4-0.1-0.7-0.2c-1.2-0.3-2.5-0.4-3.7-0.2
				c-0.8,0.2-2.1,0.4-2.6,1.2c-0.2,0.4-0.2,1.1,0,1.5c0.5,0.8,2.2,0.7,2.9,0.6c1.3-0.2,2.6-0.6,3.9-0.6l0.7,7c0,1.6,1.3,3,3,3h1.6
				c1.6,0,3-1.3,3-3l0.7-7c1.3,0,2.6,0.4,3.9,0.6c0.8,0.1,2.4,0.2,2.9-0.6C27.5,115,27.5,114.2,27.3,113.8"/>
		</g>
		<g class="st1">
			<defs>
				<path id="SVGID_21_" d="M14.5,111.3c-1.5,0-2.7,0.4-2.9,1.8c-0.2-0.1-0.4-0.1-0.7-0.2c-1.2-0.3-2.5-0.4-3.7-0.2
					c-0.8,0.2-2.1,0.4-2.6,1.2c-0.2,0.4-0.2,1.1,0,1.5c0.5,0.8,2.2,0.7,2.9,0.6c1.3-0.2,2.6-0.6,3.9-0.6l0.7,7c0,1.6,1.3,3,3,3h1.6
					c1.6,0,3-1.3,3-3l0.7-7c1.3,0,2.6,0.4,3.9,0.6c0.8,0.1,2.4,0.2,2.9-0.6c0.2-0.4,0.2-1.1,0-1.5c-0.4-0.8-1.8-1-2.6-1.2
					c-1.2-0.2-2.5-0.1-3.7,0.2c-0.2,0.1-0.5,0.1-0.6,0.2c-0.3-1.4-1.5-1.8-2.9-1.8H14.5z"/>
			</defs>
			<clipPath id="SVGID_22_">
				<use xlink:href="#SVGID_21_"  style="overflow:visible;"/>
			</clipPath>
			<path class="st33" d="M17.2,124.1c0,0-1.7,0.6-0.6,1.7"/>
			<path class="st33" d="M15,124.1c0,0,1.7,0.6,0.6,1.7"/>
		</g>
		<g class="st1">
			<defs>
				<rect id="SVGID_23_" x="0" width="135.9" height="168.2"/>
			</defs>
			<clipPath id="SVGID_24_">
				<use xlink:href="#SVGID_23_"  style="overflow:visible;"/>
			</clipPath>
			<path class="st34" d="M14.5,116.9c0,0.3-0.2,0.5-0.5,0.5c-0.3,0-0.5-0.2-0.5-0.5c0-0.3,0.2-0.5,0.5-0.5
				C14.2,116.4,14.5,116.6,14.5,116.9"/>
			<path class="st34" d="M18.3,116.9c0,0.3-0.2,0.5-0.5,0.5c-0.3,0-0.5-0.2-0.5-0.5c0-0.3,0.2-0.5,0.5-0.5
				C18.1,116.4,18.3,116.6,18.3,116.9"/>
			<path class="st35" d="M27.3,115.3c0.1-0.2,0.2-0.6,0.2-0.9c-0.7-0.4-1.9-0.7-3.2-0.7c-2.1,0-3.8,0.7-3.8,1.5c0,0,0,0.1,0,0.1
				v-0.1c1.3,0,2.6,0.4,3.9,0.6C25.1,116,26.8,116.1,27.3,115.3"/>
			<path class="st35" d="M4.7,115.3c-0.1-0.2-0.2-0.6-0.2-0.9c0.7-0.4,1.9-0.7,3.2-0.7c2.1,0,3.8,0.7,3.8,1.5c0,0,0,0.1,0,0.1v-0.1
				c-1.3,0-2.6,0.4-3.9,0.6C6.8,116,5.2,116.1,4.7,115.3"/>
			<path class="st36" d="M96.9,113.8c-0.4-0.8-1.8-1-2.6-1.2c-1.2-0.2-2.5-0.1-3.7,0.2c-0.2,0-0.5,0.1-0.6,0.2
				c-0.3-1.4-1.5-1.8-2.9-1.8h-2.9c-1.5,0-2.7,0.4-2.9,1.8c-0.2-0.1-0.4-0.1-0.7-0.2c-1.2-0.3-2.5-0.4-3.7-0.2
				c-0.8,0.2-2.1,0.4-2.6,1.2c-0.2,0.4-0.2,1.1,0,1.5c0.5,0.8,2.2,0.7,2.9,0.6c1.3-0.2,2.6-0.6,3.9-0.6l0.7,7c0,1.6,1.3,3,3,3h1.6
				c1.6,0,3-1.3,3-3l0.7-7c1.3,0,2.6,0.4,3.9,0.6c0.8,0.1,2.4,0.2,2.9-0.6C97.1,115,97.1,114.2,96.9,113.8"/>
		</g>
		<g class="st1">
			<defs>
				<rect id="SVGID_25_" x="0" width="135.9" height="168.2"/>
			</defs>
			<clipPath id="SVGID_26_">
				<use xlink:href="#SVGID_25_"  style="overflow:visible;"/>
			</clipPath>
			<path class="st37" d="M84.1,116.9c0,0.3-0.2,0.5-0.5,0.5c-0.3,0-0.5-0.2-0.5-0.5c0-0.3,0.2-0.5,0.5-0.5
				C83.9,116.4,84.1,116.6,84.1,116.9"/>
			<path class="st37" d="M88,116.9c0,0.3-0.2,0.5-0.5,0.5c-0.3,0-0.5-0.2-0.5-0.5c0-0.3,0.2-0.5,0.5-0.5
				C87.7,116.4,88,116.6,88,116.9"/>
			<path class="st38" d="M96.9,115.3c0.1-0.2,0.2-0.6,0.2-0.9c-0.7-0.4-1.9-0.7-3.2-0.7c-2.1,0-3.8,0.7-3.8,1.5c0,0,0,0.1,0,0.1
				v-0.1c1.3,0,2.6,0.4,3.9,0.6C94.7,116,96.4,116.1,96.9,115.3"/>
			<path class="st38" d="M74.3,115.3c-0.1-0.2-0.2-0.6-0.2-0.9c0.7-0.4,1.9-0.7,3.2-0.7c2.1,0,3.8,0.7,3.8,1.5c0,0,0,0.1,0,0.1v-0.1
				c-1.3,0-2.6,0.4-3.9,0.6C76.5,116,74.8,116.1,74.3,115.3"/>
			<path class="st39" d="M27.3,148.2c-0.4-0.8-1.8-1-2.6-1.2c-1.2-0.2-2.5-0.1-3.7,0.2c-0.2,0-0.5,0.1-0.6,0.2
				c-0.3-1.4-1.5-1.8-2.9-1.8h-2.9c-1.5,0-2.7,0.4-2.9,1.8c-0.2-0.1-0.4-0.1-0.7-0.2c-1.2-0.3-2.5-0.4-3.7-0.2
				c-0.8,0.2-2.1,0.4-2.6,1.2c-0.2,0.4-0.2,1.1,0,1.5c0.5,0.8,2.2,0.7,2.9,0.6c1.3-0.2,2.6-0.6,3.9-0.6l0.7,7c0,1.6,1.3,3,3,3h1.6
				c1.6,0,3-1.3,3-3l0.7-7c1.3,0,2.6,0.4,3.9,0.6c0.8,0.1,2.4,0.2,2.9-0.6C27.5,149.3,27.5,148.6,27.3,148.2"/>
		</g>
		<g class="st1">
			<defs>
				<path id="SVGID_27_" d="M14.5,145.6c-1.5,0-2.7,0.4-2.9,1.8c-0.2-0.1-0.4-0.1-0.7-0.2c-1.2-0.3-2.5-0.4-3.7-0.2
					c-0.8,0.2-2.1,0.4-2.6,1.2c-0.2,0.4-0.2,1.1,0,1.5c0.5,0.8,2.2,0.7,2.9,0.6c1.3-0.2,2.6-0.6,3.9-0.6l0.7,7c0,1.6,1.3,3,3,3h1.6
					c1.6,0,3-1.3,3-3l0.7-7c1.3,0,2.6,0.4,3.9,0.6c0.8,0.1,2.4,0.2,2.9-0.6c0.2-0.4,0.2-1.1,0-1.5c-0.4-0.8-1.8-1-2.6-1.2
					c-1.2-0.2-2.5-0.1-3.7,0.2c-0.2,0.1-0.5,0.1-0.6,0.2c-0.3-1.4-1.5-1.8-2.9-1.8H14.5z"/>
			</defs>
			<clipPath id="SVGID_28_">
				<use xlink:href="#SVGID_27_"  style="overflow:visible;"/>
			</clipPath>
			<path class="st40" d="M17.2,158.4c0,0-1.7,0.6-0.6,1.7"/>
			<path class="st40" d="M15,158.4c0,0,1.7,0.6,0.6,1.7"/>
		</g>
		<g class="st1">
			<defs>
				<rect id="SVGID_29_" x="0" width="135.9" height="168.2"/>
			</defs>
			<clipPath id="SVGID_30_">
				<use xlink:href="#SVGID_29_"  style="overflow:visible;"/>
			</clipPath>
			<path class="st41" d="M14.5,151.2c0,0.3-0.2,0.5-0.5,0.5c-0.3,0-0.5-0.2-0.5-0.5c0-0.3,0.2-0.5,0.5-0.5
				C14.2,150.7,14.5,150.9,14.5,151.2"/>
			<path class="st41" d="M18.3,151.2c0,0.3-0.2,0.5-0.5,0.5c-0.3,0-0.5-0.2-0.5-0.5c0-0.3,0.2-0.5,0.5-0.5
				C18.1,150.7,18.3,150.9,18.3,151.2"/>
			<path class="st42" d="M27.3,149.6c0.1-0.2,0.2-0.6,0.2-0.9c-0.7-0.4-1.9-0.7-3.2-0.7c-2.1,0-3.8,0.7-3.8,1.5c0,0,0,0.1,0,0.1
				v-0.1c1.3,0,2.6,0.4,3.9,0.6C25.1,150.3,26.8,150.4,27.3,149.6"/>
			<path class="st42" d="M4.7,149.6c-0.1-0.2-0.2-0.6-0.2-0.9c0.7-0.4,1.9-0.7,3.2-0.7c2.1,0,3.8,0.7,3.8,1.5c0,0,0,0.1,0,0.1v-0.1
				c-1.3,0-2.6,0.4-3.9,0.6C6.8,150.3,5.2,150.4,4.7,149.6"/>
			<path class="st43" d="M96.9,148.2c-0.4-0.8-1.8-1-2.6-1.2c-1.2-0.2-2.5-0.1-3.7,0.2c-0.2,0-0.5,0.1-0.6,0.2
				c-0.3-1.4-1.5-1.8-2.9-1.8h-2.9c-1.5,0-2.7,0.4-2.9,1.8c-0.2-0.1-0.4-0.1-0.7-0.2c-1.2-0.3-2.5-0.4-3.7-0.2
				c-0.8,0.2-2.1,0.4-2.6,1.2c-0.2,0.4-0.2,1.1,0,1.5c0.5,0.8,2.2,0.7,2.9,0.6c1.3-0.2,2.6-0.6,3.9-0.6l0.7,7c0,1.6,1.3,3,3,3h1.6
				c1.6,0,3-1.3,3-3l0.7-7c1.3,0,2.6,0.4,3.9,0.6c0.8,0.1,2.4,0.2,2.9-0.6C97.1,149.3,97.1,148.6,96.9,148.2"/>
		</g>
		<g class="st1">
			<defs>
				<rect id="SVGID_31_" x="0" width="135.9" height="168.2"/>
			</defs>
			<clipPath id="SVGID_32_">
				<use xlink:href="#SVGID_31_"  style="overflow:visible;"/>
			</clipPath>
			<path class="st44" d="M84.1,151.2c0,0.3-0.2,0.5-0.5,0.5c-0.3,0-0.5-0.2-0.5-0.5c0-0.3,0.2-0.5,0.5-0.5
				C83.9,150.7,84.1,150.9,84.1,151.2"/>
			<path class="st44" d="M88,151.2c0,0.3-0.2,0.5-0.5,0.5c-0.3,0-0.5-0.2-0.5-0.5c0-0.3,0.2-0.5,0.5-0.5
				C87.7,150.7,88,150.9,88,151.2"/>
			<path class="st45" d="M96.9,149.6c0.1-0.2,0.2-0.6,0.2-0.9c-0.7-0.4-1.9-0.7-3.2-0.7c-2.1,0-3.8,0.7-3.8,1.5c0,0,0,0.1,0,0.1
				v-0.1c1.3,0,2.6,0.4,3.9,0.6C94.7,150.3,96.4,150.4,96.9,149.6"/>
			<path class="st45" d="M74.3,149.6c-0.1-0.2-0.2-0.6-0.2-0.9c0.7-0.4,1.9-0.7,3.2-0.7c2.1,0,3.8,0.7,3.8,1.5c0,0,0,0.1,0,0.1v-0.1
				c-1.3,0-2.6,0.4-3.9,0.6C76.5,150.3,74.8,150.4,74.3,149.6"/>
			<path class="st46" d="M61.6,11.9c-0.4-0.8-1.8-1-2.6-1.2c-1.2-0.2-2.5-0.1-3.7,0.2c-0.2,0.1-0.5,0.1-0.6,0.2
				c-0.3-1.4-1.5-1.8-2.9-1.8h-2.9c-1.5,0-2.7,0.4-2.9,1.8c-0.2-0.1-0.4-0.1-0.7-0.2c-1.2-0.3-2.5-0.4-3.7-0.2
				c-0.8,0.2-2.1,0.4-2.6,1.2c-0.2,0.4-0.2,1.1,0,1.5c0.5,0.8,2.2,0.7,2.9,0.6c1.3-0.2,2.6-0.6,3.9-0.6l0.7,7c0,1.6,1.3,3,3,3h1.6
				c1.6,0,3-1.3,3-3l0.7-7c1.3,0,2.6,0.4,3.9,0.6c0.8,0.1,2.4,0.2,2.9-0.6C61.9,13,61.9,12.3,61.6,11.9"/>
		</g>
		<g class="st1">
			<defs>
				<path id="SVGID_33_" d="M48.9,9.3c-1.5,0-2.7,0.4-2.9,1.8c-0.2-0.1-0.4-0.1-0.7-0.2c-1.2-0.3-2.5-0.4-3.7-0.2
					c-0.8,0.2-2.1,0.4-2.6,1.2c-0.2,0.4-0.2,1.1,0,1.5c0.5,0.8,2.2,0.7,3,0.6c1.3-0.2,2.6-0.6,3.9-0.6l0.7,7c0,1.6,1.3,3,3,3h1.6
					c1.6,0,3-1.3,3-3l0.7-7c1.3,0,2.6,0.4,3.9,0.6c0.8,0.1,2.4,0.2,2.9-0.6c0.2-0.4,0.2-1.1,0-1.5c-0.4-0.8-1.8-1-2.6-1.2
					c-1.2-0.2-2.5-0.1-3.7,0.2c-0.2,0.1-0.5,0.1-0.6,0.2c-0.3-1.4-1.5-1.8-2.9-1.8H48.9z"/>
			</defs>
			<clipPath id="SVGID_34_">
				<use xlink:href="#SVGID_33_"  style="overflow:visible;"/>
			</clipPath>
			<path class="st47" d="M51.5,22.1c0,0-1.7,0.6-0.6,1.7"/>
			<path class="st47" d="M49.4,22.1c0,0,1.7,0.6,0.6,1.7"/>
		</g>
		<g class="st1">
			<defs>
				<rect id="SVGID_35_" x="0" width="135.9" height="168.2"/>
			</defs>
			<clipPath id="SVGID_36_">
				<use xlink:href="#SVGID_35_"  style="overflow:visible;"/>
			</clipPath>
			<path class="st48" d="M48.8,14.9c0,0.3-0.2,0.5-0.5,0.5c-0.3,0-0.5-0.2-0.5-0.5c0-0.3,0.2-0.5,0.5-0.5
				C48.6,14.4,48.8,14.6,48.8,14.9"/>
			<path class="st48" d="M52.7,14.9c0,0.3-0.2,0.5-0.5,0.5c-0.3,0-0.5-0.2-0.5-0.5c0-0.3,0.2-0.5,0.5-0.5
				C52.5,14.4,52.7,14.6,52.7,14.9"/>
			<path class="st49" d="M61.6,13.4c0.1-0.2,0.2-0.6,0.2-0.9c-0.7-0.4-1.9-0.7-3.2-0.7c-2.1,0-3.8,0.7-3.8,1.5c0,0,0,0.1,0,0.1v-0.1
				c1.3,0,2.6,0.4,3.9,0.6C59.4,14,61.1,14.1,61.6,13.4"/>
			<path class="st49" d="M39,13.4c-0.1-0.2-0.2-0.6-0.2-0.9c0.7-0.4,1.9-0.7,3.2-0.7c2.1,0,3.8,0.7,3.8,1.5c0,0,0,0.1,0,0.1v-0.1
				c-1.3,0-2.6,0.4-3.9,0.6C41.2,14,39.5,14.1,39,13.4"/>
			<path class="st50" d="M131.3,11.9c-0.4-0.8-1.8-1-2.6-1.2c-1.2-0.2-2.5-0.1-3.7,0.2c-0.2,0.1-0.5,0.1-0.6,0.2
				c-0.3-1.4-1.5-1.8-2.9-1.8h-2.9c-1.5,0-2.7,0.4-2.9,1.8c-0.2-0.1-0.4-0.1-0.7-0.2c-1.2-0.3-2.5-0.4-3.7-0.2
				c-0.8,0.2-2.1,0.4-2.6,1.2c-0.2,0.4-0.2,1.1,0,1.5c0.5,0.8,2.2,0.7,2.9,0.6c1.3-0.2,2.6-0.6,3.9-0.6l0.7,7c0,1.6,1.3,3,3,3h1.6
				c1.6,0,3-1.3,3-3l0.7-7c1.3,0,2.6,0.4,3.9,0.6c0.8,0.1,2.4,0.2,2.9-0.6C131.5,13,131.5,12.3,131.3,11.9"/>
		</g>
		<g class="st1">
			<defs>
				<rect id="SVGID_37_" x="0" width="135.9" height="168.2"/>
			</defs>
			<clipPath id="SVGID_38_">
				<use xlink:href="#SVGID_37_"  style="overflow:visible;"/>
			</clipPath>
			<path class="st51" d="M118.4,14.9c0,0.3-0.2,0.5-0.5,0.5c-0.3,0-0.5-0.2-0.5-0.5c0-0.3,0.2-0.5,0.5-0.5
				C118.2,14.4,118.4,14.6,118.4,14.9"/>
			<path class="st51" d="M122.3,14.9c0,0.3-0.2,0.5-0.5,0.5c-0.3,0-0.5-0.2-0.5-0.5c0-0.3,0.2-0.5,0.5-0.5
				C122.1,14.4,122.3,14.6,122.3,14.9"/>
			<path class="st52" d="M131.2,13.4c0.1-0.2,0.2-0.6,0.2-0.9c-0.7-0.4-1.9-0.7-3.2-0.7c-2.1,0-3.8,0.7-3.8,1.5c0,0,0,0.1,0,0.1
				v-0.1c1.3,0,2.6,0.4,3.9,0.6C129.1,14,130.7,14.1,131.2,13.4"/>
			<path class="st52" d="M108.6,13.4c-0.1-0.2-0.2-0.6-0.2-0.9c0.7-0.4,1.9-0.7,3.2-0.7c2.1,0,3.8,0.7,3.8,1.5c0,0,0,0.1,0,0.1v-0.1
				c-1.3,0-2.6,0.4-3.9,0.6C110.8,14,109.1,14.1,108.6,13.4"/>
			<path class="st53" d="M61.6,80c-0.4-0.8-1.8-1-2.6-1.2c-1.2-0.2-2.5-0.1-3.7,0.2c-0.2,0.1-0.5,0.1-0.6,0.2
				c-0.3-1.4-1.5-1.8-2.9-1.8h-2.9c-1.5,0-2.7,0.4-2.9,1.8c-0.2-0.1-0.4-0.1-0.7-0.2c-1.2-0.3-2.5-0.4-3.7-0.2
				C40.8,79,39.4,79.2,39,80c-0.2,0.4-0.2,1.1,0,1.5c0.5,0.8,2.2,0.7,2.9,0.6c1.3-0.2,2.6-0.6,3.9-0.6l0.7,7c0,1.6,1.3,3,3,3h1.6
				c1.6,0,3-1.3,3-3l0.7-7c1.3,0,2.6,0.4,3.9,0.6c0.8,0.1,2.4,0.2,2.9-0.6C61.9,81.1,61.9,80.4,61.6,80"/>
		</g>
		<g class="st1">
			<defs>
				<path id="SVGID_39_" d="M48.9,77.4c-1.5,0-2.7,0.4-2.9,1.8c-0.2-0.1-0.4-0.1-0.7-0.2c-1.2-0.3-2.5-0.4-3.7-0.2
					C40.8,79,39.4,79.2,39,80c-0.2,0.4-0.2,1.1,0,1.5c0.5,0.8,2.2,0.7,3,0.6c1.3-0.2,2.6-0.6,3.9-0.6l0.7,7c0,1.6,1.3,3,3,3h1.6
					c1.6,0,3-1.3,3-3l0.7-7c1.3,0,2.6,0.4,3.9,0.6c0.8,0.1,2.4,0.2,2.9-0.6c0.2-0.4,0.2-1.1,0-1.5c-0.4-0.8-1.8-1-2.6-1.2
					c-1.2-0.2-2.5-0.1-3.7,0.2c-0.2,0.1-0.5,0.1-0.6,0.2c-0.3-1.4-1.5-1.8-2.9-1.8H48.9z"/>
			</defs>
			<clipPath id="SVGID_40_">
				<use xlink:href="#SVGID_39_"  style="overflow:visible;"/>
			</clipPath>
			<path class="st54" d="M51.5,90.2c0,0-1.7,0.6-0.6,1.7"/>
			<path class="st54" d="M49.4,90.2c0,0,1.7,0.6,0.6,1.7"/>
		</g>
		<g class="st1">
			<defs>
				<rect id="SVGID_41_" x="0" width="135.9" height="168.2"/>
			</defs>
			<clipPath id="SVGID_42_">
				<use xlink:href="#SVGID_41_"  style="overflow:visible;"/>
			</clipPath>
			<path class="st55" d="M48.8,83c0,0.3-0.2,0.5-0.5,0.5c-0.3,0-0.5-0.2-0.5-0.5c0-0.3,0.2-0.5,0.5-0.5C48.6,82.6,48.8,82.8,48.8,83
				"/>
			<path class="st55" d="M52.7,83c0,0.3-0.2,0.5-0.5,0.5c-0.3,0-0.5-0.2-0.5-0.5c0-0.3,0.2-0.5,0.5-0.5C52.5,82.6,52.7,82.8,52.7,83
				"/>
			<path class="st56" d="M61.6,81.5c0.1-0.2,0.2-0.6,0.2-0.9c-0.7-0.4-1.9-0.7-3.2-0.7c-2.1,0-3.8,0.7-3.8,1.5c0,0,0,0.1,0,0.1v-0.1
				c1.3,0,2.6,0.4,3.9,0.6C59.4,82.2,61.1,82.3,61.6,81.5"/>
			<path class="st56" d="M39,81.5c-0.1-0.2-0.2-0.6-0.2-0.9c0.7-0.4,1.9-0.7,3.2-0.7c2.1,0,3.8,0.7,3.8,1.5c0,0,0,0.1,0,0.1v-0.1
				c-1.3,0-2.6,0.4-3.9,0.6C41.2,82.2,39.5,82.3,39,81.5"/>
			<path class="st57" d="M131.3,80c-0.4-0.8-1.8-1-2.6-1.2c-1.2-0.2-2.5-0.1-3.7,0.2c-0.2,0.1-0.5,0.1-0.6,0.2
				c-0.3-1.4-1.5-1.8-2.9-1.8h-2.9c-1.5,0-2.7,0.4-2.9,1.8c-0.2-0.1-0.4-0.1-0.7-0.2c-1.2-0.3-2.5-0.4-3.7-0.2
				c-0.8,0.2-2.1,0.4-2.6,1.2c-0.2,0.4-0.2,1.1,0,1.5c0.5,0.8,2.2,0.7,2.9,0.6c1.3-0.2,2.6-0.6,3.9-0.6l0.7,7c0,1.6,1.3,3,3,3h1.6
				c1.6,0,3-1.3,3-3l0.7-7c1.3,0,2.6,0.4,3.9,0.6c0.8,0.1,2.4,0.2,2.9-0.6C131.5,81.1,131.5,80.4,131.3,80"/>
		</g>
		<g class="st1">
			<defs>
				<rect id="SVGID_43_" x="0" width="135.9" height="168.2"/>
			</defs>
			<clipPath id="SVGID_44_">
				<use xlink:href="#SVGID_43_"  style="overflow:visible;"/>
			</clipPath>
			<path class="st58" d="M118.4,83c0,0.3-0.2,0.5-0.5,0.5c-0.3,0-0.5-0.2-0.5-0.5c0-0.3,0.2-0.5,0.5-0.5
				C118.2,82.6,118.4,82.8,118.4,83"/>
			<path class="st58" d="M122.3,83c0,0.3-0.2,0.5-0.5,0.5c-0.3,0-0.5-0.2-0.5-0.5c0-0.3,0.2-0.5,0.5-0.5
				C122.1,82.6,122.3,82.8,122.3,83"/>
			<path class="st59" d="M131.2,81.5c0.1-0.2,0.2-0.6,0.2-0.9c-0.7-0.4-1.9-0.7-3.2-0.7c-2.1,0-3.8,0.7-3.8,1.5c0,0,0,0.1,0,0.1
				v-0.1c1.3,0,2.6,0.4,3.9,0.6C129.1,82.2,130.7,82.3,131.2,81.5"/>
			<path class="st59" d="M108.6,81.5c-0.1-0.2-0.2-0.6-0.2-0.9c0.7-0.4,1.9-0.7,3.2-0.7c2.1,0,3.8,0.7,3.8,1.5c0,0,0,0.1,0,0.1v-0.1
				c-1.3,0-2.6,0.4-3.9,0.6C110.8,82.2,109.1,82.3,108.6,81.5"/>
			<path class="st60" d="M61.6,45.7c-0.4-0.8-1.8-1-2.6-1.2c-1.2-0.2-2.5-0.1-3.7,0.2c-0.2,0.1-0.5,0.1-0.6,0.2
				c-0.3-1.4-1.5-1.8-2.9-1.8h-2.9c-1.5,0-2.7,0.4-2.9,1.8c-0.2-0.1-0.4-0.1-0.7-0.2c-1.2-0.3-2.5-0.4-3.7-0.2
				c-0.8,0.2-2.1,0.4-2.6,1.2c-0.2,0.4-0.2,1.1,0,1.5c0.5,0.8,2.2,0.7,2.9,0.6c1.3-0.2,2.6-0.6,3.9-0.6l0.7,7c0,1.6,1.3,3,3,3h1.6
				c1.6,0,3-1.3,3-3l0.7-7c1.3,0,2.6,0.4,3.9,0.6c0.8,0.1,2.4,0.2,2.9-0.6C61.9,46.8,61.9,46.1,61.6,45.7"/>
		</g>
		<g class="st1">
			<defs>
				<path id="SVGID_45_" d="M48.9,43.1c-1.5,0-2.7,0.4-2.9,1.8c-0.2-0.1-0.4-0.1-0.7-0.2c-1.2-0.3-2.5-0.4-3.7-0.2
					c-0.8,0.2-2.1,0.4-2.6,1.2c-0.2,0.4-0.2,1.1,0,1.5c0.5,0.8,2.2,0.7,3,0.6c1.3-0.2,2.6-0.6,3.9-0.6l0.7,7c0,1.6,1.3,3,3,3h1.6
					c1.6,0,3-1.3,3-3l0.7-7c1.3,0,2.6,0.4,3.9,0.6c0.8,0.1,2.4,0.2,2.9-0.6c0.2-0.4,0.2-1.1,0-1.5c-0.4-0.8-1.8-1-2.6-1.2
					c-1.2-0.2-2.5-0.1-3.7,0.2c-0.2,0.1-0.5,0.1-0.6,0.2c-0.3-1.4-1.5-1.8-2.9-1.8H48.9z"/>
			</defs>
			<clipPath id="SVGID_46_">
				<use xlink:href="#SVGID_45_"  style="overflow:visible;"/>
			</clipPath>
			<path class="st61" d="M51.5,55.9c0,0-1.7,0.6-0.6,1.7"/>
			<path class="st61" d="M49.4,55.9c0,0,1.7,0.6,0.6,1.7"/>
		</g>
		<g class="st1">
			<defs>
				<rect id="SVGID_47_" x="0" width="135.9" height="168.2"/>
			</defs>
			<clipPath id="SVGID_48_">
				<use xlink:href="#SVGID_47_"  style="overflow:visible;"/>
			</clipPath>
			<path class="st62" d="M48.8,48.7c0,0.3-0.2,0.5-0.5,0.5c-0.3,0-0.5-0.2-0.5-0.5c0-0.3,0.2-0.5,0.5-0.5
				C48.6,48.2,48.8,48.5,48.8,48.7"/>
			<path class="st62" d="M52.7,48.7c0,0.3-0.2,0.5-0.5,0.5c-0.3,0-0.5-0.2-0.5-0.5c0-0.3,0.2-0.5,0.5-0.5
				C52.5,48.2,52.7,48.5,52.7,48.7"/>
			<path class="st63" d="M61.6,47.2c0.1-0.2,0.2-0.6,0.2-0.9c-0.7-0.4-1.9-0.7-3.2-0.7c-2.1,0-3.8,0.7-3.8,1.5c0,0,0,0.1,0,0.1v-0.1
				c1.3,0,2.6,0.4,3.9,0.6C59.4,47.9,61.1,48,61.6,47.2"/>
			<path class="st63" d="M39,47.2c-0.1-0.2-0.2-0.6-0.2-0.9c0.7-0.4,1.9-0.7,3.2-0.7c2.1,0,3.8,0.7,3.8,1.5c0,0,0,0.1,0,0.1v-0.1
				c-1.3,0-2.6,0.4-3.9,0.6C41.2,47.9,39.5,48,39,47.2"/>
			<path class="st64" d="M131.3,45.7c-0.4-0.8-1.8-1-2.6-1.2c-1.2-0.2-2.5-0.1-3.7,0.2c-0.2,0.1-0.5,0.1-0.6,0.2
				c-0.3-1.4-1.5-1.8-2.9-1.8h-2.9c-1.5,0-2.7,0.4-2.9,1.8c-0.2-0.1-0.4-0.1-0.7-0.2c-1.2-0.3-2.5-0.4-3.7-0.2
				c-0.8,0.2-2.1,0.4-2.6,1.2c-0.2,0.4-0.2,1.1,0,1.5c0.5,0.8,2.2,0.7,2.9,0.6c1.3-0.2,2.6-0.6,3.9-0.6l0.7,7c0,1.6,1.3,3,3,3h1.6
				c1.6,0,3-1.3,3-3l0.7-7c1.3,0,2.6,0.4,3.9,0.6c0.8,0.1,2.4,0.2,2.9-0.6C131.5,46.8,131.5,46.1,131.3,45.7"/>
		</g>
		<g class="st1">
			<defs>
				<rect id="SVGID_49_" x="0" width="135.9" height="168.2"/>
			</defs>
			<clipPath id="SVGID_50_">
				<use xlink:href="#SVGID_49_"  style="overflow:visible;"/>
			</clipPath>
			<path class="st65" d="M118.4,48.7c0,0.3-0.2,0.5-0.5,0.5c-0.3,0-0.5-0.2-0.5-0.5c0-0.3,0.2-0.5,0.5-0.5
				C118.2,48.2,118.4,48.5,118.4,48.7"/>
			<path class="st65" d="M122.3,48.7c0,0.3-0.2,0.5-0.5,0.5c-0.3,0-0.5-0.2-0.5-0.5c0-0.3,0.2-0.5,0.5-0.5
				C122.1,48.2,122.3,48.5,122.3,48.7"/>
			<path class="st66" d="M131.2,47.2c0.1-0.2,0.2-0.6,0.2-0.9c-0.7-0.4-1.9-0.7-3.2-0.7c-2.1,0-3.8,0.7-3.8,1.5c0,0,0,0.1,0,0.1
				v-0.1c1.3,0,2.6,0.4,3.9,0.6C129.1,47.9,130.7,48,131.2,47.2"/>
			<path class="st66" d="M108.6,47.2c-0.1-0.2-0.2-0.6-0.2-0.9c0.7-0.4,1.9-0.7,3.2-0.7c2.1,0,3.8,0.7,3.8,1.5c0,0,0,0.1,0,0.1v-0.1
				c-1.3,0-2.6,0.4-3.9,0.6C110.8,47.9,109.1,48,108.6,47.2"/>
			<path class="st67" d="M61.6,113.8c-0.4-0.8-1.8-1-2.6-1.2c-1.2-0.2-2.5-0.1-3.7,0.2c-0.2,0-0.5,0.1-0.6,0.2
				c-0.3-1.4-1.5-1.8-2.9-1.8h-2.9c-1.5,0-2.7,0.4-2.9,1.8c-0.2-0.1-0.4-0.1-0.7-0.2c-1.2-0.3-2.5-0.4-3.7-0.2
				c-0.8,0.2-2.1,0.4-2.6,1.2c-0.2,0.4-0.2,1.1,0,1.5c0.5,0.8,2.2,0.7,2.9,0.6c1.3-0.2,2.6-0.6,3.9-0.6l0.7,7c0,1.6,1.3,3,3,3h1.6
				c1.6,0,3-1.3,3-3l0.7-7c1.3,0,2.6,0.4,3.9,0.6c0.8,0.1,2.4,0.2,2.9-0.6C61.9,115,61.9,114.2,61.6,113.8"/>
		</g>
		<g class="st1">
			<defs>
				<path id="SVGID_51_" d="M48.9,111.3c-1.5,0-2.7,0.4-2.9,1.8c-0.2-0.1-0.4-0.1-0.7-0.2c-1.2-0.3-2.5-0.4-3.7-0.2
					c-0.8,0.2-2.1,0.4-2.6,1.2c-0.2,0.4-0.2,1.1,0,1.5c0.5,0.8,2.2,0.7,3,0.6c1.3-0.2,2.6-0.6,3.9-0.6l0.7,7c0,1.6,1.3,3,3,3h1.6
					c1.6,0,3-1.3,3-3l0.7-7c1.3,0,2.6,0.4,3.9,0.6c0.8,0.1,2.4,0.2,2.9-0.6c0.2-0.4,0.2-1.1,0-1.5c-0.4-0.8-1.8-1-2.6-1.2
					c-1.2-0.2-2.5-0.1-3.7,0.2c-0.2,0.1-0.5,0.1-0.6,0.2c-0.3-1.4-1.5-1.8-2.9-1.8H48.9z"/>
			</defs>
			<clipPath id="SVGID_52_">
				<use xlink:href="#SVGID_51_"  style="overflow:visible;"/>
			</clipPath>
			<path class="st68" d="M51.5,124.1c0,0-1.7,0.6-0.6,1.7"/>
			<path class="st68" d="M49.4,124.1c0,0,1.7,0.6,0.6,1.7"/>
		</g>
		<g class="st1">
			<defs>
				<rect id="SVGID_53_" x="0" width="135.9" height="168.2"/>
			</defs>
			<clipPath id="SVGID_54_">
				<use xlink:href="#SVGID_53_"  style="overflow:visible;"/>
			</clipPath>
			<path class="st69" d="M48.8,116.9c0,0.3-0.2,0.5-0.5,0.5c-0.3,0-0.5-0.2-0.5-0.5c0-0.3,0.2-0.5,0.5-0.5
				C48.6,116.4,48.8,116.6,48.8,116.9"/>
			<path class="st69" d="M52.7,116.9c0,0.3-0.2,0.5-0.5,0.5c-0.3,0-0.5-0.2-0.5-0.5c0-0.3,0.2-0.5,0.5-0.5
				C52.5,116.4,52.7,116.6,52.7,116.9"/>
			<path class="st70" d="M61.6,115.3c0.1-0.2,0.2-0.6,0.2-0.9c-0.7-0.4-1.9-0.7-3.2-0.7c-2.1,0-3.8,0.7-3.8,1.5c0,0,0,0.1,0,0.1
				v-0.1c1.3,0,2.6,0.4,3.9,0.6C59.4,116,61.1,116.1,61.6,115.3"/>
			<path class="st70" d="M39,115.3c-0.1-0.2-0.2-0.6-0.2-0.9c0.7-0.4,1.9-0.7,3.2-0.7c2.1,0,3.8,0.7,3.8,1.5c0,0,0,0.1,0,0.1v-0.1
				c-1.3,0-2.6,0.4-3.9,0.6C41.2,116,39.5,116.1,39,115.3"/>
			<path class="st71" d="M131.3,113.8c-0.4-0.8-1.8-1-2.6-1.2c-1.2-0.2-2.5-0.1-3.7,0.2c-0.2,0-0.5,0.1-0.6,0.2
				c-0.3-1.4-1.5-1.8-2.9-1.8h-2.9c-1.5,0-2.7,0.4-2.9,1.8c-0.2-0.1-0.4-0.1-0.7-0.2c-1.2-0.3-2.5-0.4-3.7-0.2
				c-0.8,0.2-2.1,0.4-2.6,1.2c-0.2,0.4-0.2,1.1,0,1.5c0.5,0.8,2.2,0.7,2.9,0.6c1.3-0.2,2.6-0.6,3.9-0.6l0.7,7c0,1.6,1.3,3,3,3h1.6
				c1.6,0,3-1.3,3-3l0.7-7c1.3,0,2.6,0.4,3.9,0.6c0.8,0.1,2.4,0.2,2.9-0.6C131.5,115,131.5,114.2,131.3,113.8"/>
		</g>
		<g class="st1">
			<defs>
				<rect id="SVGID_55_" x="0" width="135.9" height="168.2"/>
			</defs>
			<clipPath id="SVGID_56_">
				<use xlink:href="#SVGID_55_"  style="overflow:visible;"/>
			</clipPath>
			<path class="st72" d="M118.4,116.9c0,0.3-0.2,0.5-0.5,0.5c-0.3,0-0.5-0.2-0.5-0.5c0-0.3,0.2-0.5,0.5-0.5
				C118.2,116.4,118.4,116.6,118.4,116.9"/>
			<path class="st72" d="M122.3,116.9c0,0.3-0.2,0.5-0.5,0.5c-0.3,0-0.5-0.2-0.5-0.5c0-0.3,0.2-0.5,0.5-0.5
				C122.1,116.4,122.3,116.6,122.3,116.9"/>
			<path class="st73" d="M131.2,115.3c0.1-0.2,0.2-0.6,0.2-0.9c-0.7-0.4-1.9-0.7-3.2-0.7c-2.1,0-3.8,0.7-3.8,1.5c0,0,0,0.1,0,0.1
				v-0.1c1.3,0,2.6,0.4,3.9,0.6C129.1,116,130.7,116.1,131.2,115.3"/>
			<path class="st73" d="M108.6,115.3c-0.1-0.2-0.2-0.6-0.2-0.9c0.7-0.4,1.9-0.7,3.2-0.7c2.1,0,3.8,0.7,3.8,1.5c0,0,0,0.1,0,0.1
				v-0.1c-1.3,0-2.6,0.4-3.9,0.6C110.8,116,109.1,116.1,108.6,115.3"/>
			<path class="st74" d="M61.6,148.2c-0.4-0.8-1.8-1-2.6-1.2c-1.2-0.2-2.5-0.1-3.7,0.2c-0.2,0-0.5,0.1-0.6,0.2
				c-0.3-1.4-1.5-1.8-2.9-1.8h-2.9c-1.5,0-2.7,0.4-2.9,1.8c-0.2-0.1-0.4-0.1-0.7-0.2c-1.2-0.3-2.5-0.4-3.7-0.2
				c-0.8,0.2-2.1,0.4-2.6,1.2c-0.2,0.4-0.2,1.1,0,1.5c0.5,0.8,2.2,0.7,2.9,0.6c1.3-0.2,2.6-0.6,3.9-0.6l0.7,7c0,1.6,1.3,3,3,3h1.6
				c1.6,0,3-1.3,3-3l0.7-7c1.3,0,2.6,0.4,3.9,0.6c0.8,0.1,2.4,0.2,2.9-0.6C61.9,149.3,61.9,148.6,61.6,148.2"/>
		</g>
		<g class="st1">
			<defs>
				<path id="SVGID_57_" d="M48.9,145.6c-1.5,0-2.7,0.4-2.9,1.8c-0.2-0.1-0.4-0.1-0.7-0.2c-1.2-0.3-2.5-0.4-3.7-0.2
					c-0.8,0.2-2.1,0.4-2.6,1.2c-0.2,0.4-0.2,1.1,0,1.5c0.5,0.8,2.2,0.7,3,0.6c1.3-0.2,2.6-0.6,3.9-0.6l0.7,7c0,1.6,1.3,3,3,3h1.6
					c1.6,0,3-1.3,3-3l0.7-7c1.3,0,2.6,0.4,3.9,0.6c0.8,0.1,2.4,0.2,2.9-0.6c0.2-0.4,0.2-1.1,0-1.5c-0.4-0.8-1.8-1-2.6-1.2
					c-1.2-0.2-2.5-0.1-3.7,0.2c-0.2,0.1-0.5,0.1-0.6,0.2c-0.3-1.4-1.5-1.8-2.9-1.8H48.9z"/>
			</defs>
			<clipPath id="SVGID_58_">
				<use xlink:href="#SVGID_57_"  style="overflow:visible;"/>
			</clipPath>
			<path class="st75" d="M51.5,158.4c0,0-1.7,0.6-0.6,1.7"/>
			<path class="st75" d="M49.4,158.4c0,0,1.7,0.6,0.6,1.7"/>
		</g>
		<g class="st1">
			<defs>
				<rect id="SVGID_59_" x="0" width="135.9" height="168.2"/>
			</defs>
			<clipPath id="SVGID_60_">
				<use xlink:href="#SVGID_59_"  style="overflow:visible;"/>
			</clipPath>
			<path class="st76" d="M48.8,151.2c0,0.3-0.2,0.5-0.5,0.5c-0.3,0-0.5-0.2-0.5-0.5c0-0.3,0.2-0.5,0.5-0.5
				C48.6,150.7,48.8,150.9,48.8,151.2"/>
			<path class="st76" d="M52.7,151.2c0,0.3-0.2,0.5-0.5,0.5c-0.3,0-0.5-0.2-0.5-0.5c0-0.3,0.2-0.5,0.5-0.5
				C52.5,150.7,52.7,150.9,52.7,151.2"/>
			<path class="st77" d="M61.6,149.6c0.1-0.2,0.2-0.6,0.2-0.9c-0.7-0.4-1.9-0.7-3.2-0.7c-2.1,0-3.8,0.7-3.8,1.5c0,0,0,0.1,0,0.1
				v-0.1c1.3,0,2.6,0.4,3.9,0.6C59.4,150.3,61.1,150.4,61.6,149.6"/>
			<path class="st77" d="M39,149.6c-0.1-0.2-0.2-0.6-0.2-0.9c0.7-0.4,1.9-0.7,3.2-0.7c2.1,0,3.8,0.7,3.8,1.5c0,0,0,0.1,0,0.1v-0.1
				c-1.3,0-2.6,0.4-3.9,0.6C41.2,150.3,39.5,150.4,39,149.6"/>
			<path class="st78" d="M131.3,148.2c-0.4-0.8-1.8-1-2.6-1.2c-1.2-0.2-2.5-0.1-3.7,0.2c-0.2,0-0.5,0.1-0.6,0.2
				c-0.3-1.4-1.5-1.8-2.9-1.8h-2.9c-1.5,0-2.7,0.4-2.9,1.8c-0.2-0.1-0.4-0.1-0.7-0.2c-1.2-0.3-2.5-0.4-3.7-0.2
				c-0.8,0.2-2.1,0.4-2.6,1.2c-0.2,0.4-0.2,1.1,0,1.5c0.5,0.8,2.2,0.7,2.9,0.6c1.3-0.2,2.6-0.6,3.9-0.6l0.7,7c0,1.6,1.3,3,3,3h1.6
				c1.6,0,3-1.3,3-3l0.7-7c1.3,0,2.6,0.4,3.9,0.6c0.8,0.1,2.4,0.2,2.9-0.6C131.5,149.3,131.5,148.6,131.3,148.2"/>
		</g>
		<g class="st1">
			<defs>
				<rect id="SVGID_61_" x="0" width="135.9" height="168.2"/>
			</defs>
			<clipPath id="SVGID_62_">
				<use xlink:href="#SVGID_61_"  style="overflow:visible;"/>
			</clipPath>
			<path class="st79" d="M118.4,151.2c0,0.3-0.2,0.5-0.5,0.5c-0.3,0-0.5-0.2-0.5-0.5c0-0.3,0.2-0.5,0.5-0.5
				C118.2,150.7,118.4,150.9,118.4,151.2"/>
			<path class="st79" d="M122.3,151.2c0,0.3-0.2,0.5-0.5,0.5c-0.3,0-0.5-0.2-0.5-0.5c0-0.3,0.2-0.5,0.5-0.5
				C122.1,150.7,122.3,150.9,122.3,151.2"/>
			<path class="st80" d="M131.2,149.6c0.1-0.2,0.2-0.6,0.2-0.9c-0.7-0.4-1.9-0.7-3.2-0.7c-2.1,0-3.8,0.7-3.8,1.5c0,0,0,0.1,0,0.1
				v-0.1c1.3,0,2.6,0.4,3.9,0.6C129.1,150.3,130.7,150.4,131.2,149.6"/>
			<path class="st80" d="M108.6,149.6c-0.1-0.2-0.2-0.6-0.2-0.9c0.7-0.4,1.9-0.7,3.2-0.7c2.1,0,3.8,0.7,3.8,1.5c0,0,0,0.1,0,0.1
				v-0.1c-1.3,0-2.6,0.4-3.9,0.6C110.8,150.3,109.1,150.4,108.6,149.6"/>
		</g>
	</g>
</g>
</svg>
