<?xml version="1.0" encoding="utf-8"?>
<!-- Generator: Adobe Illustrator 19.0.0, SVG Export Plug-In . SVG Version: 6.00 Build 0)  -->
<svg version="1.1" id="Layer_1" xmlns="http://www.w3.org/2000/svg" xmlns:xlink="http://www.w3.org/1999/xlink" x="0px" y="0px"
	 viewBox="0 0 247.7 244.2" style="enable-background:new 0 0 247.7 244.2;" xml:space="preserve">
<style type="text/css">
	.st0{clip-path:url(#SVGID_2_);fill:#F89521;}
	.st1{clip-path:url(#SVGID_2_);fill:#FFFFFF;}
	.st2{clip-path:url(#SVGID_2_);}
	.st3{clip-path:url(#SVGID_2_);fill:#FCDAD8;}
</style>
<g>
	<defs>
		<rect id="SVGID_1_" x="39" y="37.6" width="172.4" height="172.4"/>
	</defs>
	<clipPath id="SVGID_2_">
		<use xlink:href="#SVGID_1_"  style="overflow:visible;"/>
	</clipPath>
	<path class="st0" d="M196.7,108.9c7.4-3.3,10.8-12,7.5-19.5c-2.7-6.2-9.2-9.7-15.6-8.8c3.2-5.7,2.4-13-2.5-17.8
		c-4.8-4.8-12.1-5.6-17.8-2.5c0.9-6.4-2.6-12.9-8.8-15.6c-7.5-3.3-16.2,0.1-19.5,7.5c-0.1-8.1-6.7-14.7-14.9-14.7
		c-8.2,0-14.8,6.6-14.9,14.7c-3.3-7.4-12-10.8-19.5-7.5c-6.2,2.7-9.7,9.2-8.8,15.6c-5.7-3.2-13-2.4-17.8,2.5
		c-4.8,4.8-5.6,12.1-2.5,17.8c-6.4-0.9-12.9,2.6-15.6,8.8c-3.3,7.5,0.1,16.2,7.5,19.5C45.6,109,39,115.6,39,123.8
		c0,8.2,6.6,14.8,14.7,14.9c-7.4,3.3-10.8,12-7.5,19.5c2.7,6.2,9.2,9.7,15.6,8.8c-3.2,5.7-2.4,13,2.5,17.8
		c4.8,4.8,12.1,5.6,17.8,2.5c-0.9,6.4,2.6,12.9,8.8,15.6c7.5,3.3,16.2-0.1,19.5-7.5c0.1,8.1,6.7,14.7,14.9,14.7
		c8.2,0,14.8-6.6,14.9-14.7c3.3,7.4,12,10.8,19.5,7.5c6.2-2.7,9.7-9.2,8.8-15.6c5.7,3.2,13,2.4,17.8-2.5c4.8-4.8,5.6-12.1,2.5-17.8
		c6.4,0.9,12.9-2.6,15.6-8.8c3.3-7.5-0.1-16.2-7.5-19.5c8.1-0.1,14.7-6.7,14.7-14.9C211.4,115.6,204.8,109,196.7,108.9"/>
	<path class="st1" d="M186.3,101.7c-2.3-4.3-9.7-5.4-13.9-6.2c-6.7-1.3-13.4-0.5-20,0.9c-1.3,0.3-2.4,0.5-3.5,0.9
		c-1.4-7.4-7.9-9.5-15.7-9.5h-15.8c-7.8,0-14.4,2.1-15.7,9.6c-1.1-0.4-2.3-0.7-3.7-1c-6.6-1.4-13.3-2.2-20-0.9
		c-4.3,0.8-11.6,1.9-13.9,6.2c-1.1,2.1-1.1,6,0.2,8c2.7,4.2,11.7,3.7,15.9,3.2c7.1-0.9,14.2-3.5,21.3-3.2l3.6,37.9
		c0,8.8,7.2,16,16,16h8.7c8.8,0,16-7.2,16-16l3.6-37.9c7-0.2,14,2.4,21,3.2c4.2,0.5,13.2,1.1,15.9-3.2
		C187.4,107.7,187.5,103.8,186.3,101.7"/>
	<path class="st2" d="M117.1,118c0,1.5-1.2,2.7-2.7,2.7c-1.5,0-2.7-1.2-2.7-2.7c0-1.5,1.2-2.7,2.7-2.7
		C115.9,115.4,117.1,116.6,117.1,118"/>
	<path class="st2" d="M138,118c0,1.5-1.2,2.7-2.7,2.7c-1.5,0-2.7-1.2-2.7-2.7c0-1.5,1.2-2.7,2.7-2.7C136.8,115.4,138,116.6,138,118"
		/>
	<path class="st3" d="M186.1,109.7c0.8-1.2,1-3,0.9-4.7c-3.6-2.3-10.1-3.9-17.5-3.9c-11.4,0-20.6,3.6-20.6,8.1
		c0,0.2,0.1,0.5,0.2,0.7v-0.3c7-0.2,14,2.4,21,3.2C174.4,113.4,183.4,113.9,186.1,109.7"/>
	<path class="st3" d="M64.2,109.7c-0.8-1.2-1-3-0.9-4.7c3.6-2.3,10.1-3.9,17.5-3.9c11.4,0,20.6,3.6,20.6,8.1c0,0.2-0.1,0.5-0.2,0.7
		v-0.3c-7-0.2-14,2.4-21,3.2C75.9,113.4,66.9,113.9,64.2,109.7"/>
</g>
</svg>
