<?xml version="1.0" encoding="utf-8"?>
<!-- Generator: Adobe Illustrator 19.0.0, SVG Export Plug-In . SVG Version: 6.00 Build 0)  -->
<svg version="1.1" id="Layer_1" xmlns="http://www.w3.org/2000/svg" xmlns:xlink="http://www.w3.org/1999/xlink" x="0px" y="0px"
	 viewBox="0 0 128 128" style="enable-background:new 0 0 128 128;" xml:space="preserve">
<style type="text/css">
	.st0{opacity:0.5;}
	.st1{clip-path:url(#XMLID_13_);fill:#EC1C59;}
	.st2{clip-path:url(#XMLID_13_);fill:#FFFFFF;}
	.st3{clip-path:url(#XMLID_14_);fill:none;stroke:#D3D6D8;stroke-width:1.082;}
	.st4{clip-path:url(#XMLID_15_);}
	.st5{clip-path:url(#XMLID_15_);fill:#FCDAD8;}
</style>
<g class="st0">
	<defs>
		<rect id="XMLID_9_" x="-0.2" class="st0" width="128.2" height="128.2"/>
	</defs>
	<clipPath id="XMLID_13_">
		<use xlink:href="#XMLID_9_"  style="overflow:visible;"/>
	</clipPath>
	<path id="XMLID_11_" class="st1" d="M117.1,53c5.5-2.5,8-8.9,5.6-14.5c-2-4.6-6.8-7.2-11.6-6.5c2.4-4.2,1.8-9.6-1.8-13.2
		c-3.6-3.6-9-4.2-13.2-1.8c0.6-4.8-1.9-9.6-6.5-11.6c-5.6-2.4-12,0.1-14.5,5.6C74.9,4.9,70,0,63.9,0c-6.1,0-11,4.9-11.1,10.9
		c-2.5-5.5-8.9-8-14.5-5.6c-4.6,2-7.2,6.8-6.5,11.6c-4.2-2.4-9.6-1.8-13.2,1.8c-3.6,3.6-4.2,9-1.8,13.2c-4.8-0.6-9.6,1.9-11.6,6.5
		c-2.4,5.6,0.1,12,5.6,14.5c-6,0.1-10.9,5-10.9,11.1c0,6.1,4.9,11,10.9,11.1c-5.5,2.5-8,8.9-5.6,14.5c2,4.6,6.8,7.2,11.6,6.5
		c-2.4,4.2-1.7,9.6,1.8,13.2c3.6,3.6,9,4.2,13.2,1.8c-0.6,4.8,1.9,9.6,6.5,11.6c5.6,2.4,12-0.1,14.5-5.6c0.1,6,5,10.9,11.1,10.9
		c6.1,0,11-4.9,11.1-10.9c2.5,5.5,8.9,8,14.5,5.6c4.6-2,7.2-6.8,6.5-11.6c4.2,2.4,9.6,1.8,13.2-1.8c3.6-3.6,4.2-9,1.8-13.2
		c4.8,0.6,9.6-1.9,11.6-6.5c2.4-5.6-0.1-12-5.6-14.5c6-0.1,10.9-5,10.9-11.1C128,58,123.1,53.1,117.1,53"/>
	<path id="XMLID_10_" class="st2" d="M109.4,47.7c-1.7-3.2-7.2-4-10.3-4.6c-5-1-10-0.4-14.9,0.7c-1,0.2-1.8,0.4-2.6,0.7
		c-1-5.5-5.9-7-11.7-7H58.2c-5.8,0-10.7,1.6-11.7,7.1c-0.8-0.3-1.7-0.5-2.8-0.7c-4.9-1-9.9-1.7-14.9-0.7c-3.2,0.6-8.6,1.4-10.3,4.6
		c-0.8,1.5-0.8,4.4,0.1,5.9c2,3.1,8.7,2.7,11.8,2.3c5.3-0.6,10.5-2.6,15.8-2.4l2.6,28.2c0,6.6,5.3,11.9,11.9,11.9h6.5
		c6.6,0,11.9-5.3,11.9-11.9l2.6-28.2c5.2-0.1,10.4,1.8,15.6,2.4c3.1,0.4,9.8,0.8,11.8-2.3C110.2,52.1,110.2,49.2,109.4,47.7"/>
</g>
<g class="st0">
	<defs>
		<path id="XMLID_6_" class="st0" d="M58.2,37.3c-5.8,0-10.7,1.6-11.7,7.1c-0.8-0.3-1.7-0.5-2.8-0.7c-4.9-1-9.9-1.7-14.9-0.7
			c-3.2,0.6-8.6,1.4-10.3,4.6c-0.8,1.5-0.8,4.4,0.1,5.9c2,3.1,8.7,2.7,11.8,2.3c5.3-0.6,10.5-2.6,15.8-2.4l2.6,28.2
			c0,6.6,5.3,11.9,11.9,11.9h6.5c6.6,0,11.9-5.3,11.9-11.9l2.6-28.2c5.2-0.1,10.4,1.8,15.6,2.4c3.1,0.4,9.8,0.8,11.8-2.3
			c1-1.5,1-4.4,0.1-5.9c-1.7-3.2-7.2-4-10.3-4.6c-5-1-10-0.4-14.9,0.7c-1,0.2-1.8,0.4-2.6,0.7c-1-5.5-5.9-7-11.7-7H58.2z"/>
	</defs>
	<clipPath id="XMLID_14_">
		<use xlink:href="#XMLID_6_"  style="overflow:visible;"/>
	</clipPath>
	<path id="XMLID_8_" class="st3" d="M68.8,88.6c0,0-7,2.3-2.5,6.7"/>
	<path id="XMLID_7_" class="st3" d="M60.1,88.6c0,0,7,2.3,2.5,6.7"/>
</g>
<g class="st0">
	<defs>
		<rect id="XMLID_1_" x="-0.2" class="st0" width="128.2" height="128.2"/>
	</defs>
	<clipPath id="XMLID_15_">
		<use xlink:href="#XMLID_1_"  style="overflow:visible;"/>
	</clipPath>
	<path id="XMLID_5_" class="st4" d="M57.9,59.8c0,1.1-0.9,2-2,2s-2-0.9-2-2c0-1.1,0.9-2,2-2S57.9,58.7,57.9,59.8"/>
	<path id="XMLID_4_" class="st4" d="M73.4,59.8c0,1.1-0.9,2-2,2c-1.1,0-2-0.9-2-2c0-1.1,0.9-2,2-2C72.5,57.8,73.4,58.7,73.4,59.8"/>
	<path id="XMLID_3_" class="st5" d="M109.2,53.6c0.6-0.9,0.8-2.2,0.7-3.5c-2.7-1.7-7.5-2.9-13-2.9c-8.4,0-15.3,2.7-15.3,6
		c0,0.2,0.1,0.4,0.1,0.5v-0.2c5.2-0.1,10.4,1.8,15.6,2.4C100.5,56.3,107.2,56.7,109.2,53.6"/>
	<path id="XMLID_2_" class="st5" d="M18.6,53.6c-0.6-0.9-0.8-2.2-0.7-3.5c2.7-1.7,7.5-2.9,13-2.9c8.4,0,15.3,2.7,15.3,6
		c0,0.2-0.1,0.4-0.1,0.5v-0.2c-5.2-0.1-10.4,1.8-15.6,2.4C27.3,56.3,20.6,56.7,18.6,53.6"/>
</g>
</svg>
