<?xml version="1.0" encoding="utf-8"?>
<!-- Generator: Adobe Illustrator 19.0.0, SVG Export Plug-In . SVG Version: 6.00 Build 0)  -->
<svg version="1.1" id="Layer_1" xmlns="http://www.w3.org/2000/svg" xmlns:xlink="http://www.w3.org/1999/xlink" x="0px" y="0px"
	 viewBox="0 0 128 128" style="enable-background:new 0 0 128 128;" xml:space="preserve">
<style type="text/css">
	.st0{clip-path:url(#XMLID_58_);fill:#FFCF3F;}
	.st1{clip-path:url(#XMLID_58_);fill:#99BCE4;}
	.st2{clip-path:url(#XMLID_58_);fill:#604A9E;}
	.st3{clip-path:url(#XMLID_58_);fill:#EC1C59;}
	.st4{clip-path:url(#XMLID_58_);fill:#8EC641;}
	.st5{clip-path:url(#XMLID_58_);fill:#F89521;}
	.st6{clip-path:url(#XMLID_58_);fill:#51C0AB;}
	.st7{clip-path:url(#XMLID_58_);fill:#FFFFFF;}
	.st8{clip-path:url(#XMLID_58_);}
	.st9{clip-path:url(#XMLID_58_);fill:#FCDAD8;}
	.st10{clip-path:url(#XMLID_58_);fill:#52C8EB;}
</style>
<g id="XMLID_2_">
	<defs>
		<rect id="XMLID_3_" width="128" height="128"/>
	</defs>
	<clipPath id="XMLID_58_">
		<use xlink:href="#XMLID_3_"  style="overflow:visible;"/>
	</clipPath>
	<path id="XMLID_57_" class="st0" d="M36.8,60.8c1.7-0.8,2.5-2.8,1.8-4.6c-0.6-1.5-2.1-2.3-3.7-2.1c0.7-1.3,0.5-3.1-0.6-4.2
		c-1.1-1.1-2.8-1.3-4.2-0.6c0.2-1.5-0.6-3.1-2.1-3.7c-1.7-0.8-3.8,0-4.6,1.8c0-1.9-1.6-3.5-3.5-3.5c-1.9,0-3.4,1.6-3.5,3.5
		c-0.8-1.8-2.8-2.6-4.6-1.8c-1.5,0.6-2.3,2.2-2.1,3.7c-1.3-0.8-3-0.6-4.2,0.6c-1.1,1.1-1.3,2.9-0.6,4.2c-1.5-0.2-3,0.6-3.7,2.1
		c-0.8,1.8,0,3.8,1.8,4.6c-1.9,0-3.4,1.6-3.4,3.5c0,1.9,1.5,3.5,3.4,3.5c-1.7,0.8-2.5,2.8-1.8,4.6c0.6,1.5,2.1,2.3,3.7,2.1
		c-0.7,1.3-0.5,3.1,0.6,4.2c1.1,1.1,2.8,1.3,4.2,0.6c-0.2,1.5,0.6,3.1,2.1,3.7c1.7,0.8,3.8,0,4.6-1.8c0,1.9,1.6,3.5,3.5,3.5
		c1.9,0,3.4-1.6,3.5-3.5c0.8,1.8,2.8,2.6,4.6,1.8c1.5-0.6,2.3-2.2,2.1-3.7c1.3,0.8,3,0.6,4.2-0.6c1.1-1.1,1.3-2.9,0.6-4.2
		c1.5,0.2,3-0.6,3.7-2.1c0.8-1.8,0-3.8-1.8-4.6c1.9,0,3.4-1.6,3.4-3.5C40.3,62.4,38.7,60.8,36.8,60.8"/>
	<path id="XMLID_56_" class="st1" d="M124.6,60.8c1.7-0.8,2.5-2.8,1.8-4.6c-0.6-1.5-2.1-2.3-3.7-2.1c0.7-1.3,0.5-3.1-0.6-4.2
		c-1.1-1.1-2.8-1.3-4.2-0.6c0.2-1.5-0.6-3.1-2.1-3.7c-1.7-0.8-3.8,0-4.6,1.8c0-1.9-1.6-3.5-3.5-3.5s-3.4,1.6-3.5,3.5
		c-0.8-1.8-2.8-2.6-4.6-1.8c-1.5,0.6-2.3,2.2-2.1,3.7c-1.3-0.8-3-0.6-4.2,0.6c-1.1,1.1-1.3,2.9-0.6,4.2c-1.5-0.2-3,0.6-3.7,2.1
		c-0.8,1.8,0,3.8,1.8,4.6c-1.9,0-3.4,1.6-3.4,3.5c0,1.9,1.5,3.5,3.4,3.5c-1.7,0.8-2.5,2.8-1.8,4.6c0.6,1.5,2.1,2.3,3.7,2.1
		c-0.7,1.3-0.5,3.1,0.6,4.2c1.1,1.1,2.8,1.3,4.2,0.6c-0.2,1.5,0.6,3.1,2.1,3.7c1.7,0.8,3.8,0,4.6-1.8c0,1.9,1.6,3.5,3.5,3.5
		s3.4-1.6,3.5-3.5c0.8,1.8,2.8,2.6,4.6,1.8c1.5-0.6,2.3-2.2,2.1-3.7c1.3,0.8,3,0.6,4.2-0.6c1.1-1.1,1.3-2.9,0.6-4.2
		c1.5,0.2,3-0.6,3.7-2.1c0.8-1.8,0-3.8-1.8-4.6c1.9,0,3.4-1.6,3.4-3.5C128,62.4,126.5,60.8,124.6,60.8"/>
	<path id="XMLID_55_" class="st2" d="M36.8,16.9c1.7-0.8,2.5-2.8,1.8-4.6c-0.6-1.5-2.1-2.3-3.7-2.1c0.7-1.3,0.5-3.1-0.6-4.2
		c-1.1-1.1-2.8-1.3-4.2-0.6c0.2-1.5-0.6-3.1-2.1-3.7c-1.7-0.8-3.8,0-4.6,1.8C23.6,1.6,22,0,20.1,0c-1.9,0-3.4,1.6-3.5,3.5
		c-0.8-1.8-2.8-2.6-4.6-1.8C10.6,2.3,9.8,3.9,10,5.4C8.7,4.6,7,4.8,5.9,6c-1.1,1.1-1.3,2.9-0.6,4.2c-1.5-0.2-3,0.6-3.7,2.1
		c-0.8,1.8,0,3.8,1.8,4.6c-1.9,0-3.4,1.6-3.4,3.5c0,1.9,1.5,3.5,3.4,3.5c-1.7,0.8-2.5,2.8-1.8,4.6c0.6,1.5,2.1,2.3,3.7,2.1
		c-0.7,1.3-0.5,3.1,0.6,4.2C7,36,8.7,36.2,10,35.4c-0.2,1.5,0.6,3.1,2.1,3.7c1.7,0.8,3.8,0,4.6-1.8c0,1.9,1.6,3.5,3.5,3.5
		c1.9,0,3.4-1.6,3.5-3.5c0.8,1.8,2.8,2.6,4.6,1.8c1.5-0.6,2.3-2.2,2.1-3.7c1.3,0.8,3,0.6,4.2-0.6c1.1-1.1,1.3-2.9,0.6-4.2
		c1.5,0.2,3-0.6,3.7-2.1c0.8-1.8,0-3.8-1.8-4.6c1.9,0,3.4-1.6,3.4-3.5C40.3,18.5,38.7,16.9,36.8,16.9"/>
	<path id="XMLID_54_" class="st3" d="M124.6,16.9c1.7-0.8,2.5-2.8,1.8-4.6c-0.6-1.5-2.1-2.3-3.7-2.1c0.7-1.3,0.5-3.1-0.6-4.2
		c-1.1-1.1-2.8-1.3-4.2-0.6c0.2-1.5-0.6-3.1-2.1-3.7c-1.7-0.8-3.8,0-4.6,1.8c0-1.9-1.6-3.5-3.5-3.5s-3.4,1.6-3.5,3.5
		c-0.8-1.8-2.8-2.6-4.6-1.8c-1.5,0.6-2.3,2.2-2.1,3.7c-1.3-0.8-3-0.6-4.2,0.6c-1.1,1.1-1.3,2.9-0.6,4.2c-1.5-0.2-3,0.6-3.7,2.1
		c-0.8,1.8,0,3.8,1.8,4.6c-1.9,0-3.4,1.6-3.4,3.5c0,1.9,1.5,3.5,3.4,3.5c-1.7,0.8-2.5,2.8-1.8,4.6c0.6,1.5,2.1,2.3,3.7,2.1
		c-0.7,1.3-0.5,3.1,0.6,4.2c1.1,1.1,2.8,1.3,4.2,0.6c-0.2,1.5,0.6,3.1,2.1,3.7c1.7,0.8,3.8,0,4.6-1.8c0,1.9,1.6,3.5,3.5,3.5
		s3.4-1.6,3.5-3.5c0.8,1.8,2.8,2.6,4.6,1.8c1.5-0.6,2.3-2.2,2.1-3.7c1.3,0.8,3,0.6,4.2-0.6c1.1-1.1,1.3-2.9,0.6-4.2
		c1.5,0.2,3-0.6,3.7-2.1c0.8-1.8,0-3.8-1.8-4.6c1.9,0,3.4-1.6,3.4-3.5C128,18.5,126.5,16.9,124.6,16.9"/>
	<path id="XMLID_53_" class="st4" d="M124.6,104.1c1.7-0.8,2.5-2.8,1.8-4.6c-0.6-1.5-2.1-2.3-3.7-2.1c0.7-1.3,0.5-3.1-0.6-4.2
		c-1.1-1.1-2.8-1.3-4.2-0.6c0.2-1.5-0.6-3.1-2.1-3.7c-1.7-0.8-3.8,0-4.6,1.8c0-1.9-1.6-3.5-3.5-3.5c-1.9,0-3.4,1.6-3.5,3.5
		c-0.8-1.8-2.8-2.6-4.6-1.8c-1.5,0.6-2.3,2.2-2.1,3.7c-1.3-0.8-3-0.6-4.2,0.6c-1.1,1.1-1.3,2.9-0.6,4.2c-1.5-0.2-3,0.6-3.7,2.1
		c-0.8,1.8,0,3.8,1.8,4.6c-1.9,0-3.4,1.6-3.4,3.5c0,1.9,1.5,3.5,3.4,3.5c-1.7,0.8-2.5,2.8-1.8,4.6c0.6,1.5,2.1,2.3,3.7,2.1
		c-0.7,1.3-0.5,3.1,0.6,4.2c1.1,1.1,2.8,1.3,4.2,0.6c-0.2,1.5,0.6,3.1,2.1,3.7c1.7,0.8,3.8,0,4.6-1.8c0,1.9,1.6,3.5,3.5,3.5
		c1.9,0,3.4-1.6,3.5-3.5c0.8,1.8,2.8,2.6,4.6,1.8c1.5-0.6,2.3-2.2,2.1-3.7c1.3,0.8,3,0.6,4.2-0.6c1.1-1.1,1.3-2.9,0.6-4.2
		c1.5,0.2,3-0.6,3.7-2.1c0.8-1.8,0-3.8-1.8-4.6c1.9,0,3.4-1.6,3.4-3.5C128,105.6,126.5,104.1,124.6,104.1"/>
	<path id="XMLID_52_" class="st5" d="M80.1,60.8c1.7-0.8,2.5-2.8,1.8-4.6c-0.6-1.5-2.1-2.3-3.7-2.1c0.7-1.3,0.5-3.1-0.6-4.2
		c-1.1-1.1-2.8-1.3-4.2-0.6c0.2-1.5-0.6-3.1-2.1-3.7c-1.7-0.8-3.8,0-4.6,1.8c0-1.9-1.6-3.5-3.5-3.5c-1.9,0-3.4,1.6-3.5,3.5
		c-0.8-1.8-2.8-2.6-4.6-1.8c-1.5,0.6-2.3,2.2-2.1,3.7c-1.3-0.8-3-0.6-4.2,0.6c-1.1,1.1-1.3,2.9-0.6,4.2c-1.5-0.2-3,0.6-3.7,2.1
		c-0.8,1.8,0,3.8,1.8,4.6c-1.9,0-3.4,1.6-3.4,3.5c0,1.9,1.5,3.5,3.4,3.5c-1.7,0.8-2.5,2.8-1.8,4.6c0.6,1.5,2.1,2.3,3.7,2.1
		c-0.7,1.3-0.5,3.1,0.6,4.2c1.1,1.1,2.8,1.3,4.2,0.6c-0.2,1.5,0.6,3.1,2.1,3.7c1.7,0.8,3.8,0,4.6-1.8c0,1.9,1.6,3.5,3.5,3.5
		c1.9,0,3.4-1.6,3.5-3.5c0.8,1.8,2.8,2.6,4.6,1.8c1.5-0.6,2.3-2.2,2.1-3.7c1.3,0.8,3,0.6,4.2-0.6c1.1-1.1,1.3-2.9,0.6-4.2
		c1.5,0.2,3-0.6,3.7-2.1c0.8-1.8,0-3.8-1.8-4.6c1.9,0,3.4-1.6,3.4-3.5C83.5,62.4,82,60.8,80.1,60.8"/>
	<path id="XMLID_51_" class="st6" d="M80.1,16.9c1.7-0.8,2.5-2.8,1.8-4.6c-0.6-1.5-2.1-2.3-3.7-2.1C79,8.9,78.8,7.1,77.7,6
		c-1.1-1.1-2.8-1.3-4.2-0.6c0.2-1.5-0.6-3.1-2.1-3.7c-1.7-0.8-3.8,0-4.6,1.8c0-1.9-1.6-3.5-3.5-3.5c-1.9,0-3.4,1.6-3.5,3.5
		c-0.8-1.8-2.8-2.6-4.6-1.8c-1.5,0.6-2.3,2.2-2.1,3.7c-1.3-0.8-3-0.6-4.2,0.6c-1.1,1.1-1.3,2.9-0.6,4.2c-1.5-0.2-3,0.6-3.7,2.1
		c-0.8,1.8,0,3.8,1.8,4.6c-1.9,0-3.4,1.6-3.4,3.5c0,1.9,1.5,3.5,3.4,3.5c-1.7,0.8-2.5,2.8-1.8,4.6c0.6,1.5,2.1,2.3,3.7,2.1
		c-0.7,1.3-0.5,3.1,0.6,4.2c1.1,1.1,2.8,1.3,4.2,0.6c-0.2,1.5,0.6,3.1,2.1,3.7c1.7,0.8,3.8,0,4.6-1.8c0,1.9,1.6,3.5,3.5,3.5
		c1.9,0,3.4-1.6,3.5-3.5c0.8,1.8,2.8,2.6,4.6,1.8c1.5-0.6,2.3-2.2,2.1-3.7c1.3,0.8,3,0.6,4.2-0.6c1.1-1.1,1.3-2.9,0.6-4.2
		c1.5,0.2,3-0.6,3.7-2.1c0.8-1.8,0-3.8-1.8-4.6c1.9,0,3.4-1.6,3.4-3.5C83.5,18.5,82,16.9,80.1,16.9"/>
	<path id="XMLID_50_" class="st7" d="M34.4,59.1c-0.5-1-2.3-1.3-3.2-1.5c-1.6-0.3-3.1-0.1-4.7,0.2c-0.3,0.1-0.6,0.1-0.8,0.2
		c-0.3-1.8-1.8-2.2-3.7-2.2h-3.7c-1.8,0-3.4,0.5-3.7,2.3c-0.3-0.1-0.5-0.2-0.9-0.2c-1.5-0.3-3.1-0.5-4.7-0.2c-1,0.2-2.7,0.5-3.2,1.5
		c-0.3,0.5-0.3,1.4,0,1.9c0.6,1,2.7,0.9,3.7,0.7c1.6-0.2,3.3-0.8,5-0.8l0.8,9c0,2.1,1.7,3.8,3.7,3.8h2c2.1,0,3.7-1.7,3.7-3.8l0.8-9
		c1.6,0,3.3,0.6,4.9,0.8c1,0.1,3.1,0.3,3.7-0.7C34.7,60.5,34.7,59.6,34.4,59.1"/>
	<path id="XMLID_49_" class="st8" d="M18.2,63c0,0.4-0.3,0.6-0.6,0.6c-0.3,0-0.6-0.3-0.6-0.6c0-0.4,0.3-0.6,0.6-0.6
		C18,62.3,18.2,62.6,18.2,63"/>
	<path id="XMLID_48_" class="st8" d="M23.1,63c0,0.4-0.3,0.6-0.6,0.6s-0.6-0.3-0.6-0.6c0-0.4,0.3-0.6,0.6-0.6S23.1,62.6,23.1,63"/>
	<path id="XMLID_47_" class="st9" d="M34.4,61c0.2-0.3,0.2-0.7,0.2-1.1c-0.8-0.6-2.4-0.9-4.1-0.9c-2.7,0-4.8,0.9-4.8,1.9
		c0,0.1,0,0.1,0,0.2V61c1.6,0,3.3,0.6,4.9,0.8C31.6,61.8,33.7,62,34.4,61"/>
	<path id="XMLID_46_" class="st9" d="M5.9,61c-0.2-0.3-0.2-0.7-0.2-1.1c0.8-0.6,2.4-0.9,4.1-0.9c2.7,0,4.8,0.9,4.8,1.9
		c0,0.1,0,0.1,0,0.2V61c-1.6,0-3.3,0.6-4.9,0.8C8.6,61.8,6.5,62,5.9,61"/>
	<path id="XMLID_45_" class="st7" d="M122.1,59.1c-0.5-1-2.3-1.3-3.2-1.5c-1.6-0.3-3.1-0.1-4.7,0.2c-0.3,0.1-0.6,0.1-0.8,0.2
		c-0.3-1.8-1.8-2.2-3.7-2.2h-3.7c-1.8,0-3.4,0.5-3.7,2.3c-0.3-0.1-0.5-0.2-0.9-0.2c-1.5-0.3-3.1-0.5-4.7-0.2c-1,0.2-2.7,0.5-3.2,1.5
		c-0.3,0.5-0.3,1.4,0,1.9c0.6,1,2.7,0.9,3.7,0.7c1.6-0.2,3.3-0.8,5-0.8l0.8,9c0,2.1,1.7,3.8,3.7,3.8h2c2.1,0,3.7-1.7,3.7-3.8l0.8-9
		c1.6,0,3.3,0.6,4.9,0.8c1,0.1,3.1,0.3,3.7-0.7C122.4,60.5,122.4,59.6,122.1,59.1"/>
	<path id="XMLID_44_" class="st8" d="M106,63c0,0.4-0.3,0.6-0.6,0.6c-0.3,0-0.6-0.3-0.6-0.6c0-0.4,0.3-0.6,0.6-0.6
		C105.7,62.3,106,62.6,106,63"/>
	<path id="XMLID_43_" class="st8" d="M110.9,63c0,0.4-0.3,0.6-0.6,0.6c-0.3,0-0.6-0.3-0.6-0.6c0-0.4,0.3-0.6,0.6-0.6
		C110.6,62.3,110.9,62.6,110.9,63"/>
	<path id="XMLID_42_" class="st9" d="M122.1,61c0.2-0.3,0.2-0.7,0.2-1.1c-0.8-0.6-2.4-0.9-4.1-0.9c-2.7,0-4.8,0.9-4.8,1.9
		c0,0.1,0,0.1,0,0.2V61c1.6,0,3.3,0.6,4.9,0.8C119.4,61.8,121.5,62,122.1,61"/>
	<path id="XMLID_41_" class="st9" d="M93.6,61c-0.2-0.3-0.2-0.7-0.2-1.1c0.8-0.6,2.4-0.9,4.1-0.9c2.7,0,4.8,0.9,4.8,1.9
		c0,0.1,0,0.1,0,0.2V61c-1.6,0-3.3,0.6-4.9,0.8C96.4,61.8,94.3,62,93.6,61"/>
	<path id="XMLID_40_" class="st7" d="M34.4,15.2c-0.5-1-2.3-1.3-3.2-1.5c-1.6-0.3-3.1-0.1-4.7,0.2c-0.3,0.1-0.6,0.1-0.8,0.2
		c-0.3-1.8-1.8-2.2-3.7-2.2h-3.7c-1.8,0-3.4,0.5-3.7,2.3c-0.3-0.1-0.5-0.2-0.9-0.2c-1.5-0.3-3.1-0.5-4.7-0.2c-1,0.2-2.7,0.5-3.2,1.5
		c-0.3,0.5-0.3,1.4,0,1.9c0.6,1,2.7,0.9,3.7,0.7c1.6-0.2,3.3-0.8,5-0.8l0.8,9c0,2.1,1.7,3.8,3.7,3.8h2c2.1,0,3.7-1.7,3.7-3.8l0.8-9
		c1.6,0,3.3,0.6,4.9,0.8c1,0.1,3.1,0.3,3.7-0.7C34.7,16.6,34.7,15.7,34.4,15.2"/>
	<path id="XMLID_39_" class="st8" d="M18.2,19.1c0,0.4-0.3,0.6-0.6,0.6c-0.3,0-0.6-0.3-0.6-0.6c0-0.4,0.3-0.6,0.6-0.6
		C18,18.4,18.2,18.7,18.2,19.1"/>
	<path id="XMLID_38_" class="st8" d="M23.1,19.1c0,0.4-0.3,0.6-0.6,0.6s-0.6-0.3-0.6-0.6c0-0.4,0.3-0.6,0.6-0.6S23.1,18.7,23.1,19.1
		"/>
	<path id="XMLID_37_" class="st9" d="M34.4,17.1c0.2-0.3,0.2-0.7,0.2-1.1c-0.8-0.6-2.4-0.9-4.1-0.9c-2.7,0-4.8,0.9-4.8,1.9
		c0,0.1,0,0.1,0,0.2v-0.1c1.6,0,3.3,0.6,4.9,0.8C31.6,18,33.7,18.1,34.4,17.1"/>
	<path id="XMLID_36_" class="st9" d="M5.9,17.1c-0.2-0.3-0.2-0.7-0.2-1.1C6.5,15.4,8,15,9.8,15c2.7,0,4.8,0.9,4.8,1.9
		c0,0.1,0,0.1,0,0.2v-0.1c-1.6,0-3.3,0.6-4.9,0.8C8.6,18,6.5,18.1,5.9,17.1"/>
	<path id="XMLID_35_" class="st7" d="M122.1,15.2c-0.5-1-2.3-1.3-3.2-1.5c-1.6-0.3-3.1-0.1-4.7,0.2c-0.3,0.1-0.6,0.1-0.8,0.2
		c-0.3-1.8-1.8-2.2-3.7-2.2h-3.7c-1.8,0-3.4,0.5-3.7,2.3c-0.3-0.1-0.5-0.2-0.9-0.2c-1.5-0.3-3.1-0.5-4.7-0.2c-1,0.2-2.7,0.5-3.2,1.5
		c-0.3,0.5-0.3,1.4,0,1.9c0.6,1,2.7,0.9,3.7,0.7c1.6-0.2,3.3-0.8,5-0.8l0.8,9c0,2.1,1.7,3.8,3.7,3.8h2c2.1,0,3.7-1.7,3.7-3.8l0.8-9
		c1.6,0,3.3,0.6,4.9,0.8c1,0.1,3.1,0.3,3.7-0.7C122.4,16.6,122.4,15.7,122.1,15.2"/>
	<path id="XMLID_34_" class="st8" d="M106,19.1c0,0.4-0.3,0.6-0.6,0.6c-0.3,0-0.6-0.3-0.6-0.6c0-0.4,0.3-0.6,0.6-0.6
		C105.7,18.4,106,18.7,106,19.1"/>
	<path id="XMLID_33_" class="st8" d="M110.9,19.1c0,0.4-0.3,0.6-0.6,0.6c-0.3,0-0.6-0.3-0.6-0.6c0-0.4,0.3-0.6,0.6-0.6
		C110.6,18.4,110.9,18.7,110.9,19.1"/>
	<path id="XMLID_32_" class="st9" d="M122.1,17.1c0.2-0.3,0.2-0.7,0.2-1.1c-0.8-0.6-2.4-0.9-4.1-0.9c-2.7,0-4.8,0.9-4.8,1.9
		c0,0.1,0,0.1,0,0.2v-0.1c1.6,0,3.3,0.6,4.9,0.8C119.4,18,121.5,18.1,122.1,17.1"/>
	<path id="XMLID_31_" class="st9" d="M93.6,17.1c-0.2-0.3-0.2-0.7-0.2-1.1c0.8-0.6,2.4-0.9,4.1-0.9c2.7,0,4.8,0.9,4.8,1.9
		c0,0.1,0,0.1,0,0.2v-0.1c-1.6,0-3.3,0.6-4.9,0.8C96.4,18,94.3,18.1,93.6,17.1"/>
	<path id="XMLID_30_" class="st7" d="M122.1,102.3c-0.5-1-2.3-1.3-3.2-1.5c-1.6-0.3-3.1-0.1-4.7,0.2c-0.3,0.1-0.6,0.1-0.8,0.2
		c-0.3-1.8-1.8-2.2-3.7-2.2h-3.7c-1.8,0-3.4,0.5-3.7,2.3c-0.3-0.1-0.5-0.2-0.9-0.2c-1.5-0.3-3.1-0.5-4.7-0.2c-1,0.2-2.7,0.5-3.2,1.5
		c-0.3,0.5-0.3,1.4,0,1.9c0.6,1,2.7,0.9,3.7,0.7c1.6-0.2,3.3-0.8,5-0.8l0.8,9c0,2.1,1.7,3.8,3.7,3.8h2c2.1,0,3.7-1.7,3.7-3.8l0.8-9
		c1.6,0,3.3,0.6,4.9,0.8c1,0.1,3.1,0.3,3.7-0.7C122.4,103.8,122.4,102.8,122.1,102.3"/>
	<path id="XMLID_29_" class="st8" d="M106,106.2c0,0.4-0.3,0.6-0.6,0.6c-0.3,0-0.6-0.3-0.6-0.6c0-0.4,0.3-0.6,0.6-0.6
		C105.7,105.6,106,105.9,106,106.2"/>
	<path id="XMLID_28_" class="st8" d="M110.9,106.2c0,0.4-0.3,0.6-0.6,0.6c-0.3,0-0.6-0.3-0.6-0.6c0-0.4,0.3-0.6,0.6-0.6
		C110.6,105.6,110.9,105.9,110.9,106.2"/>
	<path id="XMLID_27_" class="st9" d="M122.1,104.2c0.2-0.3,0.2-0.7,0.2-1.1c-0.8-0.6-2.4-0.9-4.1-0.9c-2.7,0-4.8,0.9-4.8,1.9
		c0,0.1,0,0.1,0,0.2v-0.1c1.6,0,3.3,0.6,4.9,0.8C119.4,105.1,121.5,105.2,122.1,104.2"/>
	<path id="XMLID_26_" class="st9" d="M93.6,104.2c-0.2-0.3-0.2-0.7-0.2-1.1c0.8-0.6,2.4-0.9,4.1-0.9c2.7,0,4.8,0.9,4.8,1.9
		c0,0.1,0,0.1,0,0.2v-0.1c-1.6,0-3.3,0.6-4.9,0.8C96.4,105.1,94.3,105.2,93.6,104.2"/>
	<path id="XMLID_25_" class="st7" d="M77.7,59.1c-0.5-1-2.3-1.3-3.2-1.5c-1.6-0.3-3.1-0.1-4.7,0.2C69.5,57.9,69.2,58,69,58
		c-0.3-1.8-1.8-2.2-3.7-2.2h-3.7c-1.8,0-3.4,0.5-3.7,2.3c-0.3-0.1-0.5-0.2-0.9-0.2c-1.5-0.3-3.1-0.5-4.7-0.2c-1,0.2-2.7,0.5-3.2,1.5
		c-0.3,0.5-0.3,1.4,0,1.9c0.6,1,2.7,0.9,3.7,0.7c1.6-0.2,3.3-0.8,5-0.8l0.8,9c0,2.1,1.7,3.8,3.7,3.8h2c2.1,0,3.7-1.7,3.7-3.8l0.8-9
		c1.6,0,3.3,0.6,4.9,0.8c1,0.1,3.1,0.3,3.7-0.7C78,60.5,78,59.6,77.7,59.1"/>
	<path id="XMLID_24_" class="st8" d="M61.5,63c0,0.4-0.3,0.6-0.6,0.6s-0.6-0.3-0.6-0.6c0-0.4,0.3-0.6,0.6-0.6S61.5,62.6,61.5,63"/>
	<path id="XMLID_23_" class="st8" d="M66.4,63c0,0.4-0.3,0.6-0.6,0.6c-0.3,0-0.6-0.3-0.6-0.6c0-0.4,0.3-0.6,0.6-0.6
		C66.1,62.3,66.4,62.6,66.4,63"/>
	<path id="XMLID_22_" class="st9" d="M77.7,61c0.2-0.3,0.2-0.7,0.2-1.1c-0.8-0.6-2.4-0.9-4.1-0.9c-2.7,0-4.8,0.9-4.8,1.9
		c0,0.1,0,0.1,0,0.2V61c1.6,0,3.3,0.6,4.9,0.8C74.9,61.8,77,62,77.7,61"/>
	<path id="XMLID_21_" class="st9" d="M49.2,61c-0.2-0.3-0.2-0.7-0.2-1.1c0.8-0.6,2.4-0.9,4.1-0.9c2.7,0,4.8,0.9,4.8,1.9
		c0,0.1,0,0.1,0,0.2V61c-1.6,0-3.3,0.6-4.9,0.8C51.9,61.8,49.8,62,49.2,61"/>
	<path id="XMLID_20_" class="st7" d="M77.7,15.2c-0.5-1-2.3-1.3-3.2-1.5c-1.6-0.3-3.1-0.1-4.7,0.2c-0.3,0.1-0.6,0.1-0.8,0.2
		c-0.3-1.8-1.8-2.2-3.7-2.2h-3.7c-1.8,0-3.4,0.5-3.7,2.3c-0.3-0.1-0.5-0.2-0.9-0.2c-1.5-0.3-3.1-0.5-4.7-0.2c-1,0.2-2.7,0.5-3.2,1.5
		c-0.3,0.5-0.3,1.4,0,1.9c0.6,1,2.7,0.9,3.7,0.7c1.6-0.2,3.3-0.8,5-0.8l0.8,9c0,2.1,1.7,3.8,3.7,3.8h2c2.1,0,3.7-1.7,3.7-3.8l0.8-9
		c1.6,0,3.3,0.6,4.9,0.8c1,0.1,3.1,0.3,3.7-0.7C78,16.6,78,15.7,77.7,15.2"/>
	<path id="XMLID_19_" class="st8" d="M61.5,19.1c0,0.4-0.3,0.6-0.6,0.6s-0.6-0.3-0.6-0.6c0-0.4,0.3-0.6,0.6-0.6S61.5,18.7,61.5,19.1
		"/>
	<path id="XMLID_18_" class="st8" d="M66.4,19.1c0,0.4-0.3,0.6-0.6,0.6c-0.3,0-0.6-0.3-0.6-0.6c0-0.4,0.3-0.6,0.6-0.6
		C66.1,18.4,66.4,18.7,66.4,19.1"/>
	<path id="XMLID_17_" class="st9" d="M77.7,17.1c0.2-0.3,0.2-0.7,0.2-1.1C77,15.4,75.5,15,73.8,15C71.1,15,69,15.9,69,17
		c0,0.1,0,0.1,0,0.2v-0.1c1.6,0,3.3,0.6,4.9,0.8C74.9,18,77,18.1,77.7,17.1"/>
	<path id="XMLID_16_" class="st9" d="M49.2,17.1C49,16.8,48.9,16.4,49,16c0.8-0.6,2.4-0.9,4.1-0.9c2.7,0,4.8,0.9,4.8,1.9
		c0,0.1,0,0.1,0,0.2v-0.1c-1.6,0-3.3,0.6-4.9,0.8C51.9,18,49.8,18.1,49.2,17.1"/>
	<path id="XMLID_15_" class="st3" d="M36.8,104.1c1.7-0.8,2.5-2.8,1.8-4.6c-0.6-1.5-2.1-2.3-3.7-2.1c0.7-1.3,0.5-3.1-0.6-4.2
		c-1.1-1.1-2.8-1.3-4.2-0.6c0.2-1.5-0.6-3.1-2.1-3.7c-1.7-0.8-3.8,0-4.6,1.8c0-1.9-1.6-3.5-3.5-3.5c-1.9,0-3.4,1.6-3.5,3.5
		c-0.8-1.8-2.8-2.6-4.6-1.8c-1.5,0.6-2.3,2.2-2.1,3.7c-1.3-0.8-3-0.6-4.2,0.6c-1.1,1.1-1.3,2.9-0.6,4.2c-1.5-0.2-3,0.6-3.7,2.1
		c-0.8,1.8,0,3.8,1.8,4.6c-1.9,0-3.4,1.6-3.4,3.5c0,1.9,1.5,3.5,3.4,3.5c-1.7,0.8-2.5,2.8-1.8,4.6c0.6,1.5,2.1,2.3,3.7,2.1
		c-0.7,1.3-0.5,3.1,0.6,4.2c1.1,1.1,2.8,1.3,4.2,0.6c-0.2,1.5,0.6,3.1,2.1,3.7c1.7,0.8,3.8,0,4.6-1.8c0,1.9,1.6,3.5,3.5,3.5
		c1.9,0,3.4-1.6,3.5-3.5c0.8,1.8,2.8,2.6,4.6,1.8c1.5-0.6,2.3-2.2,2.1-3.7c1.3,0.8,3,0.6,4.2-0.6c1.1-1.1,1.3-2.9,0.6-4.2
		c1.5,0.2,3-0.6,3.7-2.1c0.8-1.8,0-3.8-1.8-4.6c1.9,0,3.4-1.6,3.4-3.5C40.3,105.6,38.7,104.1,36.8,104.1"/>
	<path id="XMLID_14_" class="st10" d="M80.1,104.1c1.7-0.8,2.5-2.8,1.8-4.6c-0.6-1.5-2.1-2.3-3.7-2.1c0.7-1.3,0.5-3.1-0.6-4.2
		c-1.1-1.1-2.8-1.3-4.2-0.6c0.2-1.5-0.6-3.1-2.1-3.7c-1.7-0.8-3.8,0-4.6,1.8c0-1.9-1.6-3.5-3.5-3.5c-1.9,0-3.4,1.6-3.5,3.5
		c-0.8-1.8-2.8-2.6-4.6-1.8c-1.5,0.6-2.3,2.2-2.1,3.7c-1.3-0.8-3-0.6-4.2,0.6c-1.1,1.1-1.3,2.9-0.6,4.2c-1.5-0.2-3,0.6-3.7,2.1
		c-0.8,1.8,0,3.8,1.8,4.6c-1.9,0-3.4,1.6-3.4,3.5c0,1.9,1.5,3.5,3.4,3.5c-1.7,0.8-2.5,2.8-1.8,4.6c0.6,1.5,2.1,2.3,3.7,2.1
		c-0.7,1.3-0.5,3.1,0.6,4.2c1.1,1.1,2.8,1.3,4.2,0.6c-0.2,1.5,0.6,3.1,2.1,3.7c1.7,0.8,3.8,0,4.6-1.8c0,1.9,1.6,3.5,3.5,3.5
		c1.9,0,3.4-1.6,3.5-3.5c0.8,1.8,2.8,2.6,4.6,1.8c1.5-0.6,2.3-2.2,2.1-3.7c1.3,0.8,3,0.6,4.2-0.6c1.1-1.1,1.3-2.9,0.6-4.2
		c1.5,0.2,3-0.6,3.7-2.1c0.8-1.8,0-3.8-1.8-4.6c1.9,0,3.4-1.6,3.4-3.5C83.5,105.6,82,104.1,80.1,104.1"/>
	<path id="XMLID_13_" class="st7" d="M34.4,102.3c-0.5-1-2.3-1.3-3.2-1.5c-1.6-0.3-3.1-0.1-4.7,0.2c-0.3,0.1-0.6,0.1-0.8,0.2
		c-0.3-1.8-1.8-2.2-3.7-2.2h-3.7c-1.8,0-3.4,0.5-3.7,2.3c-0.3-0.1-0.5-0.2-0.9-0.2c-1.5-0.3-3.1-0.5-4.7-0.2c-1,0.2-2.7,0.5-3.2,1.5
		c-0.3,0.5-0.3,1.4,0,1.9c0.6,1,2.7,0.9,3.7,0.7c1.6-0.2,3.3-0.8,5-0.8l0.8,9c0,2.1,1.7,3.8,3.7,3.8h2c2.1,0,3.7-1.7,3.7-3.8l0.8-9
		c1.6,0,3.3,0.6,4.9,0.8c1,0.1,3.1,0.3,3.7-0.7C34.7,103.8,34.7,102.8,34.4,102.3"/>
	<path id="XMLID_12_" class="st8" d="M18.2,106.2c0,0.4-0.3,0.6-0.6,0.6c-0.3,0-0.6-0.3-0.6-0.6c0-0.4,0.3-0.6,0.6-0.6
		C18,105.6,18.2,105.9,18.2,106.2"/>
	<path id="XMLID_11_" class="st8" d="M23.1,106.2c0,0.4-0.3,0.6-0.6,0.6s-0.6-0.3-0.6-0.6c0-0.4,0.3-0.6,0.6-0.6
		S23.1,105.9,23.1,106.2"/>
	<path id="XMLID_10_" class="st9" d="M34.4,104.2c0.2-0.3,0.2-0.7,0.2-1.1c-0.8-0.6-2.4-0.9-4.1-0.9c-2.7,0-4.8,0.9-4.8,1.9
		c0,0.1,0,0.1,0,0.2v-0.1c1.6,0,3.3,0.6,4.9,0.8C31.6,105.1,33.7,105.2,34.4,104.2"/>
	<path id="XMLID_9_" class="st9" d="M5.9,104.2c-0.2-0.3-0.2-0.7-0.2-1.1c0.8-0.6,2.4-0.9,4.1-0.9c2.7,0,4.8,0.9,4.8,1.9
		c0,0.1,0,0.1,0,0.2v-0.1c-1.6,0-3.3,0.6-4.9,0.8C8.6,105.1,6.5,105.2,5.9,104.2"/>
	<path id="XMLID_8_" class="st7" d="M77.7,102.3c-0.5-1-2.3-1.3-3.2-1.5c-1.6-0.3-3.1-0.1-4.7,0.2c-0.3,0.1-0.6,0.1-0.8,0.2
		c-0.3-1.8-1.8-2.2-3.7-2.2h-3.7c-1.8,0-3.4,0.5-3.7,2.3c-0.3-0.1-0.5-0.2-0.9-0.2c-1.5-0.3-3.1-0.5-4.7-0.2c-1,0.2-2.7,0.5-3.2,1.5
		c-0.3,0.5-0.3,1.4,0,1.9c0.6,1,2.7,0.9,3.7,0.7c1.6-0.2,3.3-0.8,5-0.8l0.8,9c0,2.1,1.7,3.8,3.7,3.8h2c2.1,0,3.7-1.7,3.7-3.8l0.8-9
		c1.6,0,3.3,0.6,4.9,0.8c1,0.1,3.1,0.3,3.7-0.7C78,103.8,78,102.8,77.7,102.3"/>
	<path id="XMLID_7_" class="st8" d="M61.5,106.2c0,0.4-0.3,0.6-0.6,0.6s-0.6-0.3-0.6-0.6c0-0.4,0.3-0.6,0.6-0.6
		S61.5,105.9,61.5,106.2"/>
	<path id="XMLID_6_" class="st8" d="M66.4,106.2c0,0.4-0.3,0.6-0.6,0.6c-0.3,0-0.6-0.3-0.6-0.6c0-0.4,0.3-0.6,0.6-0.6
		C66.1,105.6,66.4,105.9,66.4,106.2"/>
	<path id="XMLID_5_" class="st9" d="M77.7,104.2c0.2-0.3,0.2-0.7,0.2-1.1c-0.8-0.6-2.4-0.9-4.1-0.9c-2.7,0-4.8,0.9-4.8,1.9
		c0,0.1,0,0.1,0,0.2v-0.1c1.6,0,3.3,0.6,4.9,0.8C74.9,105.1,77,105.2,77.7,104.2"/>
	<path id="XMLID_4_" class="st9" d="M49.2,104.2c-0.2-0.3-0.2-0.7-0.2-1.1c0.8-0.6,2.4-0.9,4.1-0.9c2.7,0,4.8,0.9,4.8,1.9
		c0,0.1,0,0.1,0,0.2v-0.1c-1.6,0-3.3,0.6-4.9,0.8C51.9,105.1,49.8,105.2,49.2,104.2"/>
</g>
</svg>
