<?xml version="1.0" encoding="utf-8"?>
<!-- Generator: Adobe Illustrator 19.0.0, SVG Export Plug-In . SVG Version: 6.00 Build 0)  -->
<svg version="1.1" id="Layer_1" xmlns="http://www.w3.org/2000/svg" preserveAspectRatio="xMinYMid" xmlns:xlink="http://www.w3.org/1999/xlink" x="0px" y="0px"
	 viewBox="0 0 544.8 423" style="enable-background:new 0 0 544.8 423;" xml:space="preserve">
<style type="text/css">
	.st0{clip-path:url(#SVGID_2_);fill:#F58220;}
	.st1{clip-path:url(#SVGID_2_);fill:#FFCF3F;}
	.st2{clip-path:url(#SVGID_2_);fill:#70CDDD;}
	.st3{clip-path:url(#SVGID_2_);fill:#604A9E;}
	.st4{clip-path:url(#SVGID_2_);fill:#8EC641;}
	.st5{clip-path:url(#SVGID_2_);fill:#52C8EB;}
	.st6{clip-path:url(#SVGID_2_);fill:#51C0AB;}
	.st7{clip-path:url(#SVGID_2_);fill:#F89521;}
	.st8{clip-path:url(#SVGID_2_);fill:#466698;}
	.st9{clip-path:url(#SVGID_2_);fill:#FFFFFF;}
	.st10{clip-path:url(#SVGID_4_);fill:none;stroke:#D3D6D8;stroke-width:0.269;}
	.st11{clip-path:url(#SVGID_6_);}
	.st12{clip-path:url(#SVGID_6_);fill:#FCDAD8;}
	.st13{clip-path:url(#SVGID_6_);fill:#FFFFFF;}
	.st14{clip-path:url(#SVGID_8_);fill:none;stroke:#D3D6D8;stroke-width:0.269;}
	.st15{clip-path:url(#SVGID_10_);}
	.st16{clip-path:url(#SVGID_10_);fill:#FCDAD8;}
	.st17{clip-path:url(#SVGID_10_);fill:#FFFFFF;}
	.st18{clip-path:url(#SVGID_12_);fill:none;stroke:#D3D6D8;stroke-width:0.269;}
	.st19{clip-path:url(#SVGID_14_);}
	.st20{clip-path:url(#SVGID_14_);fill:#FCDAD8;}
	.st21{clip-path:url(#SVGID_14_);fill:#FFFFFF;}
	.st22{clip-path:url(#SVGID_16_);fill:none;stroke:#D3D6D8;stroke-width:0.269;}
	.st23{clip-path:url(#SVGID_18_);}
	.st24{clip-path:url(#SVGID_18_);fill:#FCDAD8;}
	.st25{clip-path:url(#SVGID_18_);fill:#FFFFFF;}
	.st26{clip-path:url(#SVGID_20_);fill:none;stroke:#D3D6D8;stroke-width:0.269;}
	.st27{clip-path:url(#SVGID_22_);}
	.st28{clip-path:url(#SVGID_22_);fill:#FCDAD8;}
	.st29{clip-path:url(#SVGID_22_);fill:#FFFFFF;}
	.st30{clip-path:url(#SVGID_24_);fill:none;stroke:#D3D6D8;stroke-width:0.269;}
	.st31{clip-path:url(#SVGID_26_);}
	.st32{clip-path:url(#SVGID_26_);fill:#FCDAD8;}
	.st33{clip-path:url(#SVGID_26_);fill:#FFFFFF;}
	.st34{clip-path:url(#SVGID_28_);fill:none;stroke:#D3D6D8;stroke-width:0.269;}
	.st35{clip-path:url(#SVGID_30_);}
	.st36{clip-path:url(#SVGID_30_);fill:#FCDAD8;}
	.st37{clip-path:url(#SVGID_30_);fill:#FFFFFF;}
	.st38{clip-path:url(#SVGID_32_);fill:none;stroke:#D3D6D8;stroke-width:0.269;}
	.st39{clip-path:url(#SVGID_34_);}
	.st40{clip-path:url(#SVGID_34_);fill:#FCDAD8;}
	.st41{clip-path:url(#SVGID_34_);fill:#FFFFFF;}
	.st42{clip-path:url(#SVGID_36_);fill:none;stroke:#D3D6D8;stroke-width:0.269;}
	.st43{clip-path:url(#SVGID_38_);}
	.st44{clip-path:url(#SVGID_38_);fill:#FCDAD8;}
	.st45{clip-path:url(#SVGID_38_);fill:#FFFFFF;}
	.st46{clip-path:url(#SVGID_40_);fill:none;stroke:#D3D6D8;stroke-width:0.269;}
	.st47{clip-path:url(#SVGID_42_);}
	.st48{clip-path:url(#SVGID_42_);fill:#FCDAD8;}
	.st49{clip-path:url(#SVGID_42_);fill:#FFFFFF;}
	.st50{clip-path:url(#SVGID_44_);fill:none;stroke:#D3D6D8;stroke-width:0.269;}
	.st51{clip-path:url(#SVGID_46_);}
	.st52{clip-path:url(#SVGID_46_);fill:#FCDAD8;}
	.st53{clip-path:url(#SVGID_46_);fill:#FFFFFF;}
	.st54{clip-path:url(#SVGID_48_);fill:none;stroke:#D3D6D8;stroke-width:0.269;}
	.st55{clip-path:url(#SVGID_50_);}
	.st56{clip-path:url(#SVGID_50_);fill:#FCDAD8;}
	.st57{clip-path:url(#SVGID_50_);fill:#FFFFFF;}
	.st58{clip-path:url(#SVGID_52_);fill:none;stroke:#D3D6D8;stroke-width:0.269;}
	.st59{clip-path:url(#SVGID_54_);}
	.st60{clip-path:url(#SVGID_54_);fill:#FCDAD8;}
	.st61{clip-path:url(#SVGID_54_);fill:#FFFFFF;}
	.st62{clip-path:url(#SVGID_56_);fill:none;stroke:#D3D6D8;stroke-width:0.269;}
	.st63{clip-path:url(#SVGID_58_);}
	.st64{clip-path:url(#SVGID_58_);fill:#FCDAD8;}
	.st65{clip-path:url(#SVGID_58_);fill:#FFFFFF;}
	.st66{clip-path:url(#SVGID_60_);fill:none;stroke:#D3D6D8;stroke-width:0.269;}
	.st67{clip-path:url(#SVGID_62_);}
	.st68{clip-path:url(#SVGID_62_);fill:#FCDAD8;}
	.st69{clip-path:url(#SVGID_62_);fill:#FFFFFF;}
	.st70{clip-path:url(#SVGID_64_);fill:none;stroke:#D3D6D8;stroke-width:0.269;}
	.st71{clip-path:url(#SVGID_66_);}
	.st72{clip-path:url(#SVGID_66_);fill:#FCDAD8;}
	.st73{clip-path:url(#SVGID_66_);fill:#99BCE4;}
	.st74{clip-path:url(#SVGID_66_);fill:#F58220;}
	.st75{clip-path:url(#SVGID_66_);fill:#604A9E;}
	.st76{clip-path:url(#SVGID_66_);fill:#52C8EB;}
	.st77{clip-path:url(#SVGID_66_);fill:#FFFFFF;}
	.st78{clip-path:url(#SVGID_68_);fill:none;stroke:#D3D6D8;stroke-width:0.269;}
	.st79{clip-path:url(#SVGID_70_);}
	.st80{clip-path:url(#SVGID_70_);fill:#FCDAD8;}
	.st81{clip-path:url(#SVGID_70_);fill:#FFFFFF;}
	.st82{clip-path:url(#SVGID_72_);fill:none;stroke:#D3D6D8;stroke-width:0.269;}
	.st83{clip-path:url(#SVGID_74_);}
	.st84{clip-path:url(#SVGID_74_);fill:#FCDAD8;}
	.st85{clip-path:url(#SVGID_74_);fill:#FFFFFF;}
	.st86{clip-path:url(#SVGID_76_);fill:none;stroke:#D3D6D8;stroke-width:0.269;}
	.st87{clip-path:url(#SVGID_78_);}
	.st88{clip-path:url(#SVGID_78_);fill:#FCDAD8;}
	.st89{clip-path:url(#SVGID_78_);fill:#FFFFFF;}
	.st90{clip-path:url(#SVGID_80_);fill:none;stroke:#D3D6D8;stroke-width:0.269;}
	.st91{clip-path:url(#SVGID_82_);}
	.st92{clip-path:url(#SVGID_82_);fill:#FCDAD8;}
</style>
<g>
	<defs>
		<rect id="SVGID_1_" width="544.8" height="423"/>
	</defs>
	<clipPath id="SVGID_2_">
		<use xlink:href="#SVGID_1_"  style="overflow:visible;"/>
	</clipPath>
	<path class="st0" d="M92.3,41.7c4.3-2,6.3-7,4.4-11.4c-1.6-3.7-5.4-5.7-9.1-5.2c1.9-3.3,1.4-7.6-1.4-10.4
		c-2.8-2.8-7.1-3.3-10.4-1.4c0.5-3.8-1.5-7.6-5.2-9.1c-4.4-1.9-9.5,0.1-11.4,4.4C59.1,3.8,55.2,0,50.4,0c-4.8,0-8.6,3.8-8.7,8.6
		c-2-4.3-7-6.3-11.4-4.4c-3.7,1.6-5.7,5.4-5.2,9.1c-3.3-1.9-7.6-1.4-10.4,1.4c-2.8,2.8-3.3,7.1-1.4,10.4c-3.8-0.5-7.6,1.5-9.1,5.2
		c-1.9,4.4,0.1,9.5,4.4,11.4C3.8,41.8,0,45.7,0,50.4s3.8,8.6,8.6,8.7c-4.3,2-6.3,7-4.4,11.4c1.6,3.7,5.4,5.7,9.1,5.2
		c-1.9,3.3-1.4,7.6,1.4,10.4c2.8,2.8,7.1,3.3,10.4,1.4c-0.5,3.8,1.5,7.6,5.2,9.1c4.4,1.9,9.5-0.1,11.4-4.4c0.1,4.8,3.9,8.6,8.7,8.6
		c4.8,0,8.6-3.8,8.7-8.6c2,4.3,7,6.3,11.4,4.4c3.7-1.6,5.7-5.4,5.2-9.1c3.3,1.9,7.6,1.4,10.4-1.4c2.8-2.8,3.3-7.1,1.4-10.4
		c3.8,0.5,7.6-1.5,9.1-5.2c1.9-4.4-0.1-9.5-4.4-11.4c4.8-0.1,8.6-3.9,8.6-8.7C100.9,45.7,97.1,41.8,92.3,41.7"/>
	<path class="st0" d="M312.2,41.7c4.3-2,6.3-7,4.4-11.4c-1.6-3.7-5.4-5.7-9.1-5.2c1.9-3.3,1.4-7.6-1.4-10.4
		c-2.8-2.8-7.1-3.3-10.4-1.4c0.5-3.8-1.5-7.6-5.2-9.1c-4.4-1.9-9.5,0.1-11.4,4.4C279,3.8,275.1,0,270.4,0c-4.8,0-8.6,3.8-8.7,8.6
		c-2-4.3-7-6.3-11.4-4.4c-3.7,1.6-5.7,5.4-5.2,9.1c-3.3-1.9-7.6-1.4-10.4,1.4c-2.8,2.8-3.3,7.1-1.4,10.4c-3.8-0.5-7.6,1.5-9.1,5.2
		c-1.9,4.4,0.1,9.5,4.4,11.4c-4.8,0.1-8.6,3.9-8.6,8.7c0,4.8,3.8,8.6,8.6,8.7c-4.3,2-6.3,7-4.4,11.4c1.6,3.7,5.4,5.7,9.1,5.2
		c-1.9,3.3-1.4,7.6,1.4,10.4c2.8,2.8,7.1,3.3,10.4,1.4c-0.5,3.8,1.5,7.6,5.2,9.1c4.4,1.9,9.5-0.1,11.4-4.4c0.1,4.8,3.9,8.6,8.7,8.6
		c4.8,0,8.6-3.8,8.7-8.6c2,4.3,7,6.3,11.4,4.4c3.7-1.6,5.7-5.4,5.2-9.1c3.3,1.9,7.6,1.4,10.4-1.4c2.8-2.8,3.3-7.1,1.4-10.4
		c3.8,0.5,7.6-1.5,9.1-5.2c1.9-4.4-0.1-9.5-4.4-11.4c4.8-0.1,8.6-3.9,8.6-8.7C320.8,45.7,317,41.8,312.2,41.7"/>
	<path class="st1" d="M92.3,257c4.3-2,6.3-7,4.4-11.4c-1.6-3.7-5.4-5.7-9.1-5.2c1.9-3.3,1.4-7.6-1.4-10.4c-2.8-2.8-7.1-3.3-10.4-1.4
		c0.5-3.8-1.5-7.6-5.2-9.1c-4.4-1.9-9.5,0.1-11.4,4.4c-0.1-4.8-3.9-8.6-8.7-8.6c-4.8,0-8.6,3.8-8.7,8.6c-2-4.3-7-6.3-11.4-4.4
		c-3.7,1.6-5.7,5.4-5.2,9.1c-3.3-1.9-7.6-1.4-10.4,1.4c-2.8,2.8-3.3,7.1-1.4,10.4c-3.8-0.5-7.6,1.5-9.1,5.2C2.3,250,4.3,255,8.6,257
		c-4.8,0.1-8.6,3.9-8.6,8.7c0,4.8,3.8,8.6,8.6,8.7c-4.3,2-6.3,7-4.4,11.4c1.6,3.7,5.4,5.7,9.1,5.2c-1.9,3.3-1.4,7.6,1.4,10.4
		c2.8,2.8,7.1,3.3,10.4,1.4c-0.5,3.8,1.5,7.6,5.2,9.1c4.4,1.9,9.5-0.1,11.4-4.4c0.1,4.8,3.9,8.6,8.7,8.6c4.8,0,8.6-3.8,8.7-8.6
		c2,4.3,7,6.3,11.4,4.4c3.7-1.6,5.7-5.4,5.2-9.1c3.3,1.9,7.6,1.4,10.4-1.4c2.8-2.8,3.3-7.1,1.4-10.4c3.8,0.5,7.6-1.5,9.1-5.2
		c1.9-4.4-0.1-9.5-4.4-11.4c4.8-0.1,8.6-3.9,8.6-8.7C100.9,260.9,97.1,257.1,92.3,257"/>
	<path class="st2" d="M312.2,257c4.3-2,6.3-7,4.4-11.4c-1.6-3.7-5.4-5.7-9.1-5.2c1.9-3.3,1.4-7.6-1.4-10.4
		c-2.8-2.8-7.1-3.3-10.4-1.4c0.5-3.8-1.5-7.6-5.2-9.2c-4.4-1.9-9.5,0.1-11.4,4.4c-0.1-4.8-3.9-8.6-8.7-8.6c-4.8,0-8.6,3.8-8.7,8.6
		c-2-4.3-7-6.3-11.4-4.4c-3.7,1.6-5.7,5.4-5.2,9.1c-3.3-1.9-7.6-1.4-10.4,1.4c-2.8,2.8-3.3,7.1-1.4,10.4c-3.8-0.5-7.6,1.5-9.1,5.2
		c-1.9,4.4,0.1,9.5,4.4,11.4c-4.8,0.1-8.6,3.9-8.6,8.7c0,4.8,3.8,8.6,8.6,8.7c-4.3,2-6.3,7-4.4,11.4c1.6,3.7,5.4,5.7,9.1,5.2
		c-1.9,3.3-1.4,7.6,1.4,10.4c2.8,2.8,7.1,3.3,10.4,1.4c-0.5,3.8,1.5,7.6,5.2,9.1c4.4,1.9,9.5-0.1,11.4-4.4c0.1,4.8,3.9,8.6,8.7,8.6
		c4.8,0,8.6-3.8,8.7-8.6c2,4.3,7,6.3,11.4,4.4c3.7-1.6,5.7-5.4,5.2-9.1c3.3,1.9,7.6,1.4,10.4-1.4c2.8-2.8,3.3-7.1,1.4-10.4
		c3.8,0.5,7.6-1.5,9.1-5.2c1.9-4.4-0.1-9.5-4.4-11.4c4.8-0.1,8.6-3.9,8.6-8.7C320.8,260.9,317,257.1,312.2,257"/>
	<path class="st3" d="M92.3,148.6c4.3-2,6.3-7,4.4-11.4c-1.6-3.7-5.4-5.7-9.1-5.2c1.9-3.3,1.4-7.6-1.4-10.4
		c-2.8-2.8-7.1-3.3-10.4-1.4c0.5-3.8-1.5-7.6-5.2-9.1c-4.4-1.9-9.5,0.1-11.4,4.4c-0.1-4.8-3.9-8.6-8.7-8.6c-4.8,0-8.6,3.8-8.7,8.6
		c-2-4.3-7-6.3-11.4-4.4c-3.7,1.6-5.7,5.4-5.2,9.1c-3.3-1.9-7.6-1.4-10.4,1.4c-2.8,2.8-3.3,7.1-1.4,10.4c-3.8-0.5-7.6,1.5-9.1,5.2
		c-1.9,4.4,0.1,9.5,4.4,11.4c-4.8,0.1-8.6,3.9-8.6,8.7c0,4.8,3.8,8.6,8.6,8.7c-4.3,2-6.3,7-4.4,11.4c1.6,3.7,5.4,5.7,9.1,5.2
		c-1.9,3.3-1.4,7.6,1.4,10.4c2.8,2.8,7.1,3.3,10.4,1.4c-0.5,3.8,1.5,7.6,5.2,9.1c4.4,1.9,9.5-0.1,11.4-4.4c0.1,4.8,3.9,8.6,8.7,8.6
		c4.8,0,8.6-3.8,8.7-8.6c2,4.3,7,6.3,11.4,4.4c3.7-1.6,5.7-5.4,5.2-9.1c3.3,1.9,7.6,1.4,10.4-1.4c2.8-2.8,3.3-7.1,1.4-10.4
		c3.8,0.5,7.6-1.5,9.1-5.2c1.9-4.4-0.1-9.5-4.4-11.4c4.8-0.1,8.6-3.9,8.6-8.7C100.9,152.5,97.1,148.7,92.3,148.6"/>
	<path class="st4" d="M312.2,148.6c4.3-2,6.3-7,4.4-11.4c-1.6-3.7-5.4-5.7-9.1-5.2c1.9-3.3,1.4-7.6-1.4-10.4
		c-2.8-2.8-7.1-3.3-10.4-1.4c0.5-3.8-1.5-7.6-5.2-9.2c-4.4-1.9-9.5,0.1-11.4,4.4c-0.1-4.8-3.9-8.6-8.7-8.6c-4.8,0-8.6,3.8-8.7,8.6
		c-2-4.3-7-6.3-11.4-4.4c-3.7,1.6-5.7,5.4-5.2,9.2c-3.3-1.9-7.6-1.4-10.4,1.4c-2.8,2.8-3.3,7.1-1.4,10.4c-3.8-0.5-7.6,1.5-9.1,5.2
		c-1.9,4.4,0.1,9.5,4.4,11.4c-4.8,0.1-8.6,3.9-8.6,8.7s3.8,8.6,8.6,8.7c-4.3,2-6.3,7-4.4,11.4c1.6,3.7,5.4,5.7,9.1,5.2
		c-1.9,3.3-1.4,7.6,1.4,10.4c2.8,2.8,7.1,3.3,10.4,1.4c-0.5,3.8,1.5,7.6,5.2,9.1c4.4,1.9,9.5-0.1,11.4-4.4c0.1,4.8,3.9,8.6,8.7,8.6
		c4.8,0,8.6-3.8,8.7-8.6c2,4.3,7,6.3,11.4,4.4c3.7-1.6,5.7-5.4,5.2-9.1c3.3,1.9,7.6,1.4,10.4-1.4c2.8-2.8,3.3-7.1,1.4-10.4
		c3.8,0.5,7.6-1.5,9.1-5.2c1.9-4.4-0.1-9.5-4.4-11.4c4.8-0.1,8.6-3.9,8.6-8.7S317,148.7,312.2,148.6"/>
	<path class="st5" d="M92.3,363.9c4.3-2,6.3-7,4.4-11.4c-1.6-3.7-5.4-5.7-9.1-5.2c1.9-3.3,1.4-7.6-1.4-10.4
		c-2.8-2.8-7.1-3.3-10.4-1.4c0.5-3.8-1.5-7.6-5.2-9.1c-4.4-1.9-9.5,0.1-11.4,4.4c-0.1-4.8-3.9-8.6-8.7-8.6c-4.8,0-8.6,3.8-8.7,8.6
		c-2-4.3-7-6.3-11.4-4.4c-3.7,1.6-5.7,5.4-5.2,9.1c-3.3-1.9-7.6-1.4-10.4,1.4c-2.8,2.8-3.3,7.1-1.4,10.4c-3.8-0.5-7.6,1.5-9.1,5.2
		c-1.9,4.4,0.1,9.5,4.4,11.4c-4.8,0.1-8.6,3.9-8.6,8.7c0,4.8,3.8,8.6,8.6,8.7c-4.3,2-6.3,7-4.4,11.4c1.6,3.7,5.4,5.7,9.1,5.2
		c-1.9,3.3-1.4,7.6,1.4,10.4c2.8,2.8,7.1,3.3,10.4,1.4c-0.5,3.8,1.5,7.6,5.2,9.1c4.4,1.9,9.5-0.1,11.4-4.4c0.1,4.8,3.9,8.6,8.7,8.6
		c4.8,0,8.6-3.8,8.7-8.6c2,4.3,7,6.3,11.4,4.4c3.7-1.6,5.7-5.4,5.2-9.1c3.3,1.9,7.6,1.4,10.4-1.4c2.8-2.8,3.3-7.1,1.4-10.4
		c3.8,0.5,7.6-1.5,9.1-5.2c1.9-4.4-0.1-9.5-4.4-11.4c4.8-0.1,8.6-3.9,8.6-8.7S97.1,363.9,92.3,363.9"/>
	<path class="st6" d="M312.2,363.9c4.3-2,6.3-7,4.4-11.4c-1.6-3.7-5.4-5.7-9.1-5.2c1.9-3.3,1.4-7.6-1.4-10.4
		c-2.8-2.8-7.1-3.3-10.4-1.4c0.5-3.8-1.5-7.6-5.2-9.1c-4.4-1.9-9.5,0.1-11.4,4.4c-0.1-4.8-3.9-8.6-8.7-8.6c-4.8,0-8.6,3.8-8.7,8.6
		c-2-4.3-7-6.3-11.4-4.4c-3.7,1.6-5.7,5.4-5.2,9.1c-3.3-1.9-7.6-1.4-10.4,1.4c-2.8,2.8-3.3,7.1-1.4,10.4c-3.8-0.5-7.6,1.5-9.1,5.2
		c-1.9,4.4,0.1,9.5,4.4,11.4c-4.8,0.1-8.6,3.9-8.6,8.7s3.8,8.6,8.6,8.7c-4.3,2-6.3,7-4.4,11.4c1.6,3.7,5.4,5.7,9.1,5.2
		c-1.9,3.3-1.4,7.6,1.4,10.4c2.8,2.8,7.1,3.3,10.4,1.4c-0.5,3.8,1.5,7.6,5.2,9.1c4.4,1.9,9.5-0.1,11.4-4.4c0.1,4.8,3.9,8.6,8.7,8.6
		c4.8,0,8.6-3.8,8.7-8.6c2,4.3,7,6.3,11.4,4.4c3.7-1.6,5.7-5.4,5.2-9.1c3.3,1.9,7.6,1.4,10.4-1.4c2.8-2.8,3.3-7.1,1.4-10.4
		c3.8,0.5,7.6-1.5,9.1-5.2c1.9-4.4-0.1-9.5-4.4-11.4c4.8-0.1,8.6-3.9,8.6-8.7C320.8,367.8,317,363.9,312.2,363.9"/>
	<path class="st2" d="M200.8,41.7c4.3-2,6.3-7,4.4-11.4c-1.6-3.7-5.4-5.7-9.1-5.2c1.9-3.3,1.4-7.6-1.4-10.4
		c-2.8-2.8-7.1-3.3-10.4-1.4c0.5-3.8-1.5-7.6-5.2-9.1c-4.4-1.9-9.5,0.1-11.4,4.4C167.6,3.8,163.7,0,159,0c-4.8,0-8.6,3.8-8.7,8.6
		c-2-4.3-7-6.3-11.4-4.4c-3.7,1.6-5.7,5.4-5.2,9.1c-3.3-1.9-7.6-1.4-10.4,1.4c-2.8,2.8-3.3,7.1-1.4,10.4c-3.8-0.5-7.6,1.5-9.1,5.2
		c-1.9,4.4,0.1,9.5,4.4,11.4c-4.8,0.1-8.6,3.9-8.6,8.7c0,4.8,3.8,8.6,8.6,8.7c-4.3,2-6.3,7-4.4,11.4c1.6,3.7,5.4,5.7,9.1,5.2
		c-1.9,3.3-1.4,7.6,1.4,10.4c2.8,2.8,7.1,3.3,10.4,1.4c-0.5,3.8,1.5,7.6,5.2,9.1c4.4,1.9,9.5-0.1,11.4-4.4c0.1,4.8,3.9,8.6,8.7,8.6
		c4.8,0,8.6-3.8,8.7-8.6c2,4.3,7,6.3,11.4,4.4c3.7-1.6,5.7-5.4,5.2-9.1c3.3,1.9,7.6,1.4,10.4-1.4c2.8-2.8,3.3-7.1,1.4-10.4
		c3.8,0.5,7.6-1.5,9.1-5.2c1.9-4.4-0.1-9.5-4.4-11.4c4.8-0.1,8.6-3.9,8.6-8.7C209.4,45.7,205.6,41.8,200.8,41.7"/>
	<path class="st6" d="M420.7,41.7c4.3-2,6.3-7,4.4-11.4c-1.6-3.7-5.4-5.7-9.1-5.2c1.9-3.3,1.4-7.6-1.4-10.4
		c-2.8-2.8-7.1-3.3-10.4-1.4c0.5-3.8-1.5-7.6-5.2-9.1c-4.4-1.9-9.5,0.1-11.4,4.4c-0.1-4.8-3.9-8.6-8.7-8.6c-4.8,0-8.6,3.8-8.7,8.6
		c-2-4.3-7-6.3-11.4-4.4c-3.7,1.6-5.7,5.4-5.2,9.1c-3.3-1.9-7.6-1.4-10.4,1.4c-2.8,2.8-3.3,7.1-1.4,10.4c-3.8-0.5-7.6,1.5-9.1,5.2
		c-1.9,4.4,0.1,9.5,4.4,11.4c-4.8,0.1-8.6,3.9-8.6,8.7c0,4.8,3.8,8.6,8.6,8.7c-4.3,2-6.3,7-4.4,11.4c1.6,3.7,5.4,5.7,9.1,5.2
		c-1.9,3.3-1.4,7.6,1.4,10.4c2.8,2.8,7.1,3.3,10.4,1.4c-0.5,3.8,1.5,7.6,5.2,9.1c4.4,1.9,9.5-0.1,11.4-4.4c0.1,4.8,3.9,8.6,8.7,8.6
		c4.8,0,8.6-3.8,8.7-8.6c2,4.3,7,6.3,11.4,4.4c3.7-1.6,5.7-5.4,5.2-9.1c3.3,1.9,7.6,1.4,10.4-1.4c2.8-2.8,3.3-7.1,1.4-10.4
		c3.8,0.5,7.6-1.5,9.1-5.2c1.9-4.4-0.1-9.5-4.4-11.4c4.8-0.1,8.6-3.9,8.6-8.7C429.3,45.7,425.5,41.8,420.7,41.7"/>
	<path class="st7" d="M200.8,257c4.3-2,6.3-7,4.4-11.4c-1.6-3.7-5.4-5.7-9.1-5.2c1.9-3.3,1.4-7.6-1.4-10.4
		c-2.8-2.8-7.1-3.3-10.4-1.4c0.5-3.8-1.5-7.6-5.2-9.1c-4.4-1.9-9.5,0.1-11.4,4.4c-0.1-4.8-3.9-8.6-8.7-8.6c-4.8,0-8.6,3.8-8.7,8.6
		c-2-4.3-7-6.3-11.4-4.4c-3.7,1.6-5.7,5.4-5.2,9.1c-3.3-1.9-7.6-1.4-10.4,1.4c-2.8,2.8-3.3,7.1-1.4,10.4c-3.8-0.5-7.6,1.5-9.1,5.2
		c-1.9,4.4,0.1,9.5,4.4,11.4c-4.8,0.1-8.6,3.9-8.6,8.7c0,4.8,3.8,8.6,8.6,8.7c-4.3,2-6.3,7-4.4,11.4c1.6,3.7,5.4,5.7,9.1,5.2
		c-1.9,3.3-1.4,7.6,1.4,10.4c2.8,2.8,7.1,3.3,10.4,1.4c-0.5,3.8,1.5,7.6,5.2,9.1c4.4,1.9,9.5-0.1,11.4-4.4c0.1,4.8,3.9,8.6,8.7,8.6
		c4.8,0,8.6-3.8,8.7-8.6c2,4.3,7,6.3,11.4,4.4c3.7-1.6,5.7-5.4,5.2-9.1c3.3,1.9,7.6,1.4,10.4-1.4c2.8-2.8,3.3-7.1,1.4-10.4
		c3.8,0.5,7.6-1.5,9.1-5.2c1.9-4.4-0.1-9.5-4.4-11.4c4.8-0.1,8.6-3.9,8.6-8.7C209.4,260.9,205.6,257.1,200.8,257"/>
	<path class="st8" d="M420.7,257c4.3-2,6.3-7,4.4-11.4c-1.6-3.7-5.4-5.7-9.1-5.2c1.9-3.3,1.4-7.6-1.4-10.4
		c-2.8-2.8-7.1-3.3-10.4-1.4c0.5-3.8-1.5-7.6-5.2-9.1c-4.4-1.9-9.5,0.1-11.4,4.4c-0.1-4.8-3.9-8.6-8.7-8.6c-4.8,0-8.6,3.8-8.7,8.6
		c-2-4.3-7-6.3-11.4-4.4c-3.7,1.6-5.7,5.4-5.2,9.2c-3.3-1.9-7.6-1.4-10.4,1.4c-2.8,2.8-3.3,7.1-1.4,10.4c-3.8-0.5-7.6,1.5-9.1,5.2
		c-1.9,4.4,0.1,9.5,4.4,11.4c-4.8,0.1-8.6,3.9-8.6,8.7s3.8,8.6,8.6,8.7c-4.3,2-6.3,7-4.4,11.4c1.6,3.7,5.4,5.7,9.1,5.2
		c-1.9,3.3-1.4,7.6,1.4,10.4c2.8,2.8,7.1,3.3,10.4,1.4c-0.5,3.8,1.5,7.6,5.2,9.1c4.4,1.9,9.5-0.1,11.4-4.4c0.1,4.8,3.9,8.6,8.7,8.6
		c4.8,0,8.6-3.8,8.7-8.6c2,4.3,7,6.3,11.4,4.4c3.7-1.6,5.7-5.4,5.2-9.1c3.3,1.9,7.6,1.4,10.4-1.4c2.8-2.8,3.3-7.1,1.4-10.4
		c3.8,0.5,7.6-1.5,9.1-5.2c1.9-4.4-0.1-9.5-4.4-11.4c4.8-0.1,8.6-3.9,8.6-8.7C429.3,260.9,425.5,257.1,420.7,257"/>
	<path class="st6" d="M200.8,148.6c4.3-2,6.3-7,4.4-11.4c-1.6-3.7-5.4-5.7-9.1-5.2c1.9-3.3,1.4-7.6-1.4-10.4
		c-2.8-2.8-7.1-3.3-10.4-1.4c0.5-3.8-1.5-7.6-5.2-9.1c-4.4-1.9-9.5,0.1-11.4,4.4c-0.1-4.8-3.9-8.6-8.7-8.6c-4.8,0-8.6,3.8-8.7,8.6
		c-2-4.3-7-6.3-11.4-4.4c-3.7,1.6-5.7,5.4-5.2,9.1c-3.3-1.9-7.6-1.4-10.4,1.4c-2.8,2.8-3.3,7.1-1.4,10.4c-3.8-0.5-7.6,1.5-9.1,5.2
		c-1.9,4.4,0.1,9.5,4.4,11.4c-4.8,0.1-8.6,3.9-8.6,8.7c0,4.8,3.8,8.6,8.6,8.7c-4.3,2-6.3,7-4.4,11.4c1.6,3.7,5.4,5.7,9.1,5.2
		c-1.9,3.3-1.4,7.6,1.4,10.4c2.8,2.8,7.1,3.3,10.4,1.4c-0.5,3.8,1.5,7.6,5.2,9.1c4.4,1.9,9.5-0.1,11.4-4.4c0.1,4.8,3.9,8.6,8.7,8.6
		c4.8,0,8.6-3.8,8.7-8.6c2,4.3,7,6.3,11.4,4.4c3.7-1.6,5.7-5.4,5.2-9.1c3.3,1.9,7.6,1.4,10.4-1.4c2.8-2.8,3.3-7.1,1.4-10.4
		c3.8,0.5,7.6-1.5,9.1-5.2c1.9-4.4-0.1-9.5-4.4-11.4c4.8-0.1,8.6-3.9,8.6-8.7C209.4,152.5,205.6,148.7,200.8,148.6"/>
	<path class="st1" d="M420.7,148.6c4.3-2,6.3-7,4.4-11.4c-1.6-3.7-5.4-5.7-9.1-5.2c1.9-3.3,1.4-7.6-1.4-10.4
		c-2.8-2.8-7.1-3.3-10.4-1.4c0.5-3.8-1.5-7.6-5.2-9.2c-4.4-1.9-9.5,0.1-11.4,4.4c-0.1-4.8-3.9-8.6-8.7-8.6c-4.8,0-8.6,3.8-8.7,8.6
		c-2-4.3-7-6.3-11.4-4.4c-3.7,1.6-5.7,5.4-5.2,9.2c-3.3-1.9-7.6-1.4-10.4,1.4c-2.8,2.8-3.3,7.1-1.4,10.4c-3.8-0.5-7.6,1.5-9.1,5.2
		c-1.9,4.4,0.1,9.5,4.4,11.4c-4.8,0.1-8.6,3.9-8.6,8.7c0,4.8,3.8,8.6,8.6,8.7c-4.3,2-6.3,7-4.4,11.4c1.6,3.7,5.4,5.7,9.1,5.2
		c-1.9,3.3-1.4,7.6,1.4,10.4c2.8,2.8,7.1,3.3,10.4,1.4c-0.5,3.8,1.5,7.6,5.2,9.1c4.4,1.9,9.5-0.1,11.4-4.4c0.1,4.8,3.9,8.6,8.7,8.6
		c4.8,0,8.6-3.8,8.7-8.6c2,4.3,7,6.3,11.4,4.4c3.7-1.6,5.7-5.4,5.2-9.1c3.3,1.9,7.6,1.4,10.4-1.4c2.8-2.8,3.3-7.1,1.4-10.4
		c3.8,0.5,7.6-1.5,9.1-5.2c1.9-4.4-0.1-9.5-4.4-11.4c4.8-0.1,8.6-3.9,8.6-8.7S425.5,148.7,420.7,148.6"/>
	<path class="st3" d="M200.8,363.9c4.3-2,6.3-7,4.4-11.4c-1.6-3.7-5.4-5.7-9.1-5.2c1.9-3.3,1.4-7.6-1.4-10.4
		c-2.8-2.8-7.1-3.3-10.4-1.4c0.5-3.8-1.5-7.6-5.2-9.1c-4.4-1.9-9.5,0.1-11.4,4.4c-0.1-4.8-3.9-8.6-8.7-8.6c-4.8,0-8.6,3.8-8.7,8.6
		c-2-4.3-7-6.3-11.4-4.4c-3.7,1.6-5.7,5.4-5.2,9.1c-3.3-1.9-7.6-1.4-10.4,1.4c-2.8,2.8-3.3,7.1-1.4,10.4c-3.8-0.5-7.6,1.5-9.1,5.2
		c-1.9,4.4,0.1,9.5,4.4,11.4c-4.8,0.1-8.6,3.9-8.6,8.7c0,4.8,3.8,8.6,8.6,8.7c-4.3,2-6.3,7-4.4,11.4c1.6,3.7,5.4,5.7,9.1,5.2
		c-1.9,3.3-1.4,7.6,1.4,10.4c2.8,2.8,7.1,3.3,10.4,1.4c-0.5,3.8,1.5,7.6,5.2,9.1c4.4,1.9,9.5-0.1,11.4-4.4c0.1,4.8,3.9,8.6,8.7,8.6
		c4.8,0,8.6-3.8,8.7-8.6c2,4.3,7,6.3,11.4,4.4c3.7-1.6,5.7-5.4,5.2-9.1c3.3,1.9,7.6,1.4,10.4-1.4c2.8-2.8,3.3-7.1,1.4-10.4
		c3.8,0.5,7.6-1.5,9.1-5.2c1.9-4.4-0.1-9.5-4.4-11.4c4.8-0.1,8.6-3.9,8.6-8.7C209.4,367.8,205.6,363.9,200.8,363.9"/>
	<path class="st3" d="M420.7,363.9c4.3-2,6.3-7,4.4-11.4c-1.6-3.7-5.4-5.7-9.1-5.2c1.9-3.3,1.4-7.6-1.4-10.4
		c-2.8-2.8-7.1-3.3-10.4-1.4c0.5-3.8-1.5-7.6-5.2-9.1c-4.4-1.9-9.5,0.1-11.4,4.4c-0.1-4.8-3.9-8.6-8.7-8.6c-4.8,0-8.6,3.8-8.7,8.6
		c-2-4.3-7-6.3-11.4-4.4c-3.7,1.6-5.7,5.4-5.2,9.1c-3.3-1.9-7.6-1.4-10.4,1.4c-2.8,2.8-3.3,7.1-1.4,10.4c-3.8-0.5-7.6,1.5-9.1,5.2
		c-1.9,4.4,0.1,9.5,4.4,11.4c-4.8,0.1-8.6,3.9-8.6,8.7c0,4.8,3.8,8.6,8.6,8.7c-4.3,2-6.3,7-4.4,11.4c1.6,3.7,5.4,5.7,9.1,5.2
		c-1.9,3.3-1.4,7.6,1.4,10.4c2.8,2.8,7.1,3.3,10.4,1.4c-0.5,3.8,1.5,7.6,5.2,9.1c4.4,1.9,9.5-0.1,11.4-4.4c0.1,4.8,3.9,8.6,8.7,8.6
		c4.8,0,8.6-3.8,8.7-8.6c2,4.3,7,6.3,11.4,4.4c3.7-1.6,5.7-5.4,5.2-9.1c3.3,1.9,7.6,1.4,10.4-1.4c2.8-2.8,3.3-7.1,1.4-10.4
		c3.8,0.5,7.6-1.5,9.1-5.2c1.9-4.4-0.1-9.5-4.4-11.4c4.8-0.1,8.6-3.9,8.6-8.7C429.3,367.8,425.5,363.9,420.7,363.9"/>
	<path class="st9" d="M86.2,37.5c-1.4-2.5-5.6-3.1-8.1-3.6c-3.9-0.8-7.9-0.3-11.7,0.5c-0.8,0.2-1.4,0.3-2,0.5
		c-0.8-4.3-4.6-5.5-9.2-5.5h-9.2c-4.6,0-8.4,1.2-9.2,5.6c-0.6-0.2-1.4-0.4-2.2-0.6c-3.9-0.8-7.8-1.3-11.7-0.5
		c-2.5,0.5-6.8,1.1-8.1,3.6C14,38.7,14,41,14.8,42.2c1.6,2.5,6.9,2.1,9.3,1.8c4.1-0.5,8.3-2,12.5-1.9l2.1,22.2
		c0,5.2,4.2,9.3,9.3,9.3h5.1c5.2,0,9.4-4.2,9.4-9.3l2.1-22.2c4.1-0.1,8.2,1.4,12.3,1.9c2.4,0.3,7.7,0.6,9.3-1.8
		C86.9,41,86.9,38.7,86.2,37.5"/>
</g>
<g>
	<defs>
		<path id="SVGID_3_" d="M45.9,29.4c-4.6,0-8.4,1.2-9.2,5.6c-0.6-0.2-1.4-0.4-2.2-0.6c-3.9-0.8-7.8-1.3-11.7-0.5
			c-2.5,0.5-6.8,1.1-8.1,3.6C14,38.7,14,41,14.8,42.2c1.6,2.5,6.9,2.1,9.3,1.8c4.1-0.5,8.3-2,12.5-1.9l2.1,22.2
			c0,5.2,4.2,9.3,9.3,9.3h5.1c5.2,0,9.4-4.2,9.4-9.3l2.1-22.2c4.1-0.1,8.2,1.4,12.3,1.9c2.4,0.3,7.7,0.6,9.3-1.8
			c0.8-1.2,0.8-3.5,0.1-4.7c-1.4-2.5-5.7-3.1-8.1-3.6c-3.9-0.8-7.9-0.3-11.7,0.5c-0.8,0.2-1.4,0.3-2,0.5c-0.8-4.3-4.6-5.5-9.2-5.5
			H45.9z"/>
	</defs>
	<clipPath id="SVGID_4_">
		<use xlink:href="#SVGID_3_"  style="overflow:visible;"/>
	</clipPath>
	<path class="st10" d="M60.7,55.8c0,0-1.7,0.6-0.6,1.7"/>
	<path class="st10" d="M58.5,55.8c0,0,1.7,0.6,0.6,1.7"/>
</g>
<g>
	<defs>
		<rect id="SVGID_5_" width="544.8" height="423"/>
	</defs>
	<clipPath id="SVGID_6_">
		<use xlink:href="#SVGID_5_"  style="overflow:visible;"/>
	</clipPath>
	<path class="st11" d="M45.7,47.1c0,0.9-0.7,1.6-1.6,1.6c-0.9,0-1.6-0.7-1.6-1.6c0-0.9,0.7-1.6,1.6-1.6C45,45.5,45.7,46.2,45.7,47.1
		"/>
	<path class="st11" d="M57.9,47.1c0,0.9-0.7,1.6-1.6,1.6c-0.9,0-1.6-0.7-1.6-1.6c0-0.9,0.7-1.6,1.6-1.6
		C57.2,45.5,57.9,46.2,57.9,47.1"/>
	<path class="st12" d="M86.1,42.2c0.4-0.7,0.6-1.8,0.6-2.8c-2.1-1.4-5.9-2.3-10.2-2.3c-6.6,0-12,2.1-12,4.8c0,0.1,0.1,0.3,0.1,0.4
		v-0.2c4.1-0.1,8.2,1.4,12.3,1.9C79.2,44.3,84.5,44.7,86.1,42.2"/>
	<path class="st12" d="M14.8,42.2c-0.4-0.7-0.6-1.8-0.6-2.8c2.1-1.4,5.9-2.3,10.2-2.3c6.6,0,12,2.1,12,4.8c0,0.1-0.1,0.3-0.1,0.4
		v-0.2c-4.1-0.1-8.2,1.4-12.3,1.9C21.6,44.3,16.3,44.7,14.8,42.2"/>
	<path class="st13" d="M306.1,37.5c-1.4-2.5-5.6-3.1-8.1-3.6c-3.9-0.8-7.9-0.3-11.7,0.5c-0.8,0.2-1.4,0.3-2,0.5
		c-0.8-4.3-4.6-5.5-9.2-5.5h-9.2c-4.6,0-8.4,1.2-9.2,5.6c-0.6-0.2-1.4-0.4-2.2-0.6c-3.9-0.8-7.8-1.3-11.7-0.5
		c-2.5,0.5-6.8,1.1-8.1,3.6c-0.7,1.2-0.6,3.5,0.1,4.7c1.6,2.5,6.9,2.1,9.3,1.8c4.1-0.5,8.3-2,12.5-1.9l2.1,22.2
		c0,5.2,4.2,9.3,9.3,9.3h5.1c5.2,0,9.4-4.2,9.4-9.3l2.1-22.2c4.1-0.1,8.2,1.4,12.3,1.9c2.4,0.3,7.7,0.6,9.3-1.8
		C306.8,41,306.8,38.7,306.1,37.5"/>
</g>
<g>
	<defs>
		<path id="SVGID_7_" d="M265.8,29.4c-4.6,0-8.4,1.2-9.2,5.6c-0.6-0.2-1.4-0.4-2.2-0.6c-3.9-0.8-7.8-1.3-11.7-0.5
			c-2.5,0.5-6.8,1.1-8.1,3.6c-0.7,1.2-0.6,3.5,0.1,4.7c1.6,2.5,6.9,2.1,9.3,1.8c4.1-0.5,8.3-2,12.5-1.9l2.1,22.2
			c0,5.2,4.2,9.3,9.3,9.3h5.1c5.2,0,9.4-4.2,9.4-9.3l2.1-22.2c4.1-0.1,8.2,1.4,12.3,1.9c2.4,0.3,7.7,0.6,9.3-1.8
			c0.8-1.2,0.8-3.5,0.1-4.7c-1.4-2.5-5.6-3.1-8.1-3.6c-3.9-0.8-7.9-0.3-11.7,0.5c-0.8,0.2-1.4,0.3-2,0.5c-0.8-4.3-4.6-5.5-9.2-5.5
			H265.8z"/>
	</defs>
	<clipPath id="SVGID_8_">
		<use xlink:href="#SVGID_7_"  style="overflow:visible;"/>
	</clipPath>
	<path class="st14" d="M130.2,55.8c0,0-1.7,0.6-0.6,1.7"/>
	<path class="st14" d="M128,55.8c0,0,1.7,0.6,0.6,1.7"/>
</g>
<g>
	<defs>
		<rect id="SVGID_9_" width="544.8" height="423"/>
	</defs>
	<clipPath id="SVGID_10_">
		<use xlink:href="#SVGID_9_"  style="overflow:visible;"/>
	</clipPath>
	<path class="st15" d="M265.6,47.1c0,0.9-0.7,1.6-1.6,1.6c-0.9,0-1.6-0.7-1.6-1.6c0-0.9,0.7-1.6,1.6-1.6
		C264.9,45.5,265.6,46.2,265.6,47.1"/>
	<path class="st15" d="M277.8,47.1c0,0.9-0.7,1.6-1.6,1.6c-0.9,0-1.6-0.7-1.6-1.6c0-0.9,0.7-1.6,1.6-1.6
		C277.1,45.5,277.8,46.2,277.8,47.1"/>
	<path class="st16" d="M306,42.2c0.4-0.7,0.6-1.8,0.6-2.8c-2.1-1.4-5.9-2.3-10.2-2.3c-6.6,0-12,2.1-12,4.8c0,0.1,0.1,0.3,0.1,0.4
		v-0.2c4.1-0.1,8.2,1.4,12.3,1.9C299.2,44.3,304.4,44.7,306,42.2"/>
	<path class="st16" d="M234.7,42.2c-0.4-0.7-0.6-1.8-0.6-2.8c2.1-1.4,5.9-2.3,10.2-2.3c6.6,0,12,2.1,12,4.8c0,0.1-0.1,0.3-0.1,0.4
		v-0.2c-4.1-0.1-8.2,1.4-12.3,1.9C241.5,44.3,236.3,44.7,234.7,42.2"/>
	<path class="st17" d="M86.2,252.8c-1.4-2.5-5.6-3.1-8.1-3.6c-3.9-0.8-7.9-0.3-11.7,0.5c-0.8,0.2-1.4,0.3-2,0.5
		c-0.8-4.3-4.6-5.5-9.2-5.5h-9.2c-4.6,0-8.4,1.2-9.2,5.6c-0.6-0.2-1.4-0.4-2.2-0.6c-3.9-0.8-7.8-1.3-11.7-0.5
		c-2.5,0.5-6.8,1.1-8.1,3.6c-0.7,1.2-0.6,3.5,0.1,4.7c1.6,2.5,6.9,2.1,9.3,1.8c4.1-0.5,8.3-2,12.5-1.9l2.1,22.2
		c0,5.2,4.2,9.3,9.3,9.3h5.1c5.2,0,9.4-4.2,9.4-9.3l2.1-22.2c4.1-0.1,8.2,1.4,12.3,1.9c2.4,0.3,7.7,0.6,9.3-1.8
		C86.9,256.3,86.9,254,86.2,252.8"/>
</g>
<g>
	<defs>
		<path id="SVGID_11_" d="M45.9,244.7c-4.6,0-8.4,1.2-9.2,5.6c-0.6-0.2-1.4-0.4-2.2-0.6c-3.9-0.8-7.8-1.3-11.7-0.5
			c-2.5,0.5-6.8,1.1-8.1,3.6c-0.7,1.2-0.6,3.5,0.1,4.7c1.6,2.5,6.9,2.1,9.3,1.8c4.1-0.5,8.3-2,12.5-1.9l2.1,22.2
			c0,5.2,4.2,9.4,9.3,9.4h5.1c5.2,0,9.4-4.2,9.4-9.4l2.1-22.2c4.1-0.1,8.2,1.4,12.3,1.9c2.4,0.3,7.7,0.6,9.3-1.8
			c0.8-1.2,0.8-3.5,0.1-4.7c-1.4-2.5-5.7-3.1-8.1-3.6c-3.9-0.8-7.9-0.3-11.7,0.5c-0.8,0.2-1.4,0.3-2,0.5c-0.8-4.3-4.6-5.5-9.2-5.5
			H45.9z"/>
	</defs>
	<clipPath id="SVGID_12_">
		<use xlink:href="#SVGID_11_"  style="overflow:visible;"/>
	</clipPath>
	<path class="st18" d="M60.7,123.9c0,0-1.7,0.6-0.6,1.7"/>
	<path class="st18" d="M58.5,123.9c0,0,1.7,0.6,0.6,1.7"/>
</g>
<g>
	<defs>
		<rect id="SVGID_13_" width="544.8" height="423"/>
	</defs>
	<clipPath id="SVGID_14_">
		<use xlink:href="#SVGID_13_"  style="overflow:visible;"/>
	</clipPath>
	<path class="st19" d="M45.7,262.3c0,0.9-0.7,1.6-1.6,1.6c-0.9,0-1.6-0.7-1.6-1.6c0-0.9,0.7-1.6,1.6-1.6
		C45,260.8,45.7,261.5,45.7,262.3"/>
	<path class="st19" d="M57.9,262.3c0,0.9-0.7,1.6-1.6,1.6c-0.9,0-1.6-0.7-1.6-1.6c0-0.9,0.7-1.6,1.6-1.6
		C57.2,260.8,57.9,261.5,57.9,262.3"/>
	<path class="st20" d="M86.1,257.5c0.4-0.7,0.6-1.8,0.6-2.8c-2.1-1.4-5.9-2.3-10.2-2.3c-6.6,0-12,2.1-12,4.8c0,0.1,0.1,0.3,0.1,0.4
		v-0.2c4.1-0.1,8.2,1.4,12.3,1.9C79.2,259.6,84.5,259.9,86.1,257.5"/>
	<path class="st20" d="M14.8,257.5c-0.4-0.7-0.6-1.8-0.6-2.8c2.1-1.4,5.9-2.3,10.2-2.3c6.6,0,12,2.1,12,4.8c0,0.1-0.1,0.3-0.1,0.4
		v-0.2c-4.1-0.1-8.2,1.4-12.3,1.9C21.6,259.6,16.3,259.9,14.8,257.5"/>
	<path class="st21" d="M306.1,252.8c-1.4-2.5-5.6-3.1-8.1-3.6c-3.9-0.8-7.9-0.3-11.7,0.5c-0.8,0.2-1.4,0.3-2,0.5
		c-0.8-4.3-4.6-5.5-9.2-5.5h-9.2c-4.6,0-8.4,1.2-9.2,5.6c-0.6-0.2-1.4-0.4-2.2-0.6c-3.9-0.8-7.8-1.3-11.7-0.5
		c-2.5,0.5-6.8,1.1-8.1,3.6c-0.7,1.2-0.6,3.5,0.1,4.7c1.6,2.5,6.9,2.1,9.3,1.8c4.1-0.5,8.3-2,12.5-1.9l2.1,22.2
		c0,5.2,4.2,9.3,9.3,9.3h5.1c5.2,0,9.4-4.2,9.4-9.3l2.1-22.2c4.1-0.1,8.2,1.4,12.3,1.9c2.4,0.3,7.7,0.6,9.3-1.8
		C306.8,256.3,306.8,254,306.1,252.8"/>
</g>
<g>
	<defs>
		<path id="SVGID_15_" d="M265.8,244.7c-4.6,0-8.4,1.2-9.2,5.6c-0.6-0.2-1.4-0.4-2.2-0.6c-3.9-0.8-7.8-1.3-11.7-0.5
			c-2.5,0.5-6.8,1.1-8.1,3.6c-0.7,1.2-0.6,3.5,0.1,4.7c1.6,2.5,6.9,2.1,9.3,1.8c4.1-0.5,8.3-2,12.5-1.9l2.1,22.2
			c0,5.2,4.2,9.4,9.3,9.4h5.1c5.2,0,9.4-4.2,9.4-9.4l2.1-22.2c4.1-0.1,8.2,1.4,12.3,1.9c2.4,0.3,7.7,0.6,9.3-1.8
			c0.8-1.2,0.8-3.5,0.1-4.7c-1.4-2.5-5.6-3.1-8.1-3.6c-3.9-0.8-7.9-0.3-11.7,0.5c-0.8,0.2-1.4,0.3-2,0.5c-0.8-4.3-4.6-5.5-9.2-5.5
			H265.8z"/>
	</defs>
	<clipPath id="SVGID_16_">
		<use xlink:href="#SVGID_15_"  style="overflow:visible;"/>
	</clipPath>
	<path class="st22" d="M130.2,123.9c0,0-1.7,0.6-0.6,1.7"/>
	<path class="st22" d="M128,123.9c0,0,1.7,0.6,0.6,1.7"/>
</g>
<g>
	<defs>
		<rect id="SVGID_17_" width="544.8" height="423"/>
	</defs>
	<clipPath id="SVGID_18_">
		<use xlink:href="#SVGID_17_"  style="overflow:visible;"/>
	</clipPath>
	<path class="st23" d="M265.6,262.3c0,0.9-0.7,1.6-1.6,1.6c-0.9,0-1.6-0.7-1.6-1.6c0-0.9,0.7-1.6,1.6-1.6
		C264.9,260.8,265.6,261.5,265.6,262.3"/>
	<path class="st23" d="M277.8,262.3c0,0.9-0.7,1.6-1.6,1.6c-0.9,0-1.6-0.7-1.6-1.6c0-0.9,0.7-1.6,1.6-1.6
		C277.1,260.8,277.8,261.5,277.8,262.3"/>
	<path class="st24" d="M306,257.5c0.4-0.7,0.6-1.8,0.6-2.8c-2.1-1.4-5.9-2.3-10.2-2.3c-6.6,0-12,2.1-12,4.8c0,0.1,0.1,0.3,0.1,0.4
		v-0.2c4.1-0.1,8.2,1.4,12.3,1.9C299.2,259.6,304.4,259.9,306,257.5"/>
	<path class="st24" d="M234.7,257.5c-0.4-0.7-0.6-1.8-0.6-2.8c2.1-1.4,5.9-2.3,10.2-2.3c6.6,0,12,2.1,12,4.8c0,0.1-0.1,0.3-0.1,0.4
		v-0.2c-4.1-0.1-8.2,1.4-12.3,1.9C241.5,259.6,236.3,259.9,234.7,257.5"/>
	<path class="st25" d="M86.2,144.4c-1.4-2.5-5.6-3.1-8.1-3.6c-3.9-0.8-7.9-0.3-11.7,0.5c-0.8,0.2-1.4,0.3-2,0.5
		c-0.8-4.3-4.6-5.5-9.2-5.5h-9.2c-4.6,0-8.4,1.2-9.2,5.6c-0.6-0.2-1.4-0.4-2.2-0.6c-3.9-0.8-7.8-1.3-11.7-0.5
		c-2.5,0.5-6.8,1.1-8.1,3.6c-0.7,1.2-0.6,3.5,0.1,4.7c1.6,2.5,6.9,2.1,9.3,1.8c4.1-0.5,8.3-2,12.5-1.9l2.1,22.2
		c0,5.2,4.2,9.3,9.3,9.3h5.1c5.2,0,9.4-4.2,9.4-9.3l2.1-22.2c4.1-0.1,8.2,1.4,12.3,1.9c2.4,0.3,7.7,0.6,9.3-1.8
		C86.9,147.9,86.9,145.6,86.2,144.4"/>
</g>
<g>
	<defs>
		<path id="SVGID_19_" d="M45.9,136.2c-4.6,0-8.4,1.2-9.2,5.6c-0.6-0.2-1.4-0.4-2.2-0.6c-3.9-0.8-7.8-1.3-11.7-0.5
			c-2.5,0.5-6.8,1.1-8.1,3.6c-0.7,1.2-0.6,3.5,0.1,4.7c1.6,2.5,6.9,2.1,9.3,1.8c4.1-0.5,8.3-2,12.5-1.9l2.1,22.2
			c0,5.2,4.2,9.4,9.3,9.4h5.1c5.2,0,9.4-4.2,9.4-9.4l2.1-22.2c4.1-0.1,8.2,1.4,12.3,1.9c2.4,0.3,7.7,0.6,9.3-1.8
			c0.8-1.2,0.8-3.5,0.1-4.7c-1.4-2.5-5.7-3.1-8.1-3.6c-3.9-0.8-7.9-0.3-11.7,0.5c-0.8,0.2-1.4,0.3-2,0.5c-0.8-4.3-4.6-5.5-9.2-5.5
			H45.9z"/>
	</defs>
	<clipPath id="SVGID_20_">
		<use xlink:href="#SVGID_19_"  style="overflow:visible;"/>
	</clipPath>
	<path class="st26" d="M60.7,89.6c0,0-1.7,0.6-0.6,1.7"/>
	<path class="st26" d="M58.5,89.6c0,0,1.7,0.6,0.6,1.7"/>
</g>
<g>
	<defs>
		<rect id="SVGID_21_" width="544.8" height="423"/>
	</defs>
	<clipPath id="SVGID_22_">
		<use xlink:href="#SVGID_21_"  style="overflow:visible;"/>
	</clipPath>
	<path class="st27" d="M45.7,153.9c0,0.9-0.7,1.6-1.6,1.6c-0.9,0-1.6-0.7-1.6-1.6c0-0.9,0.7-1.6,1.6-1.6
		C45,152.3,45.7,153.1,45.7,153.9"/>
	<path class="st27" d="M57.9,153.9c0,0.9-0.7,1.6-1.6,1.6c-0.9,0-1.6-0.7-1.6-1.6c0-0.9,0.7-1.6,1.6-1.6
		C57.2,152.3,57.9,153.1,57.9,153.9"/>
	<path class="st28" d="M86.1,149c0.4-0.7,0.6-1.8,0.6-2.8c-2.1-1.4-5.9-2.3-10.2-2.3c-6.6,0-12,2.1-12,4.8c0,0.1,0.1,0.3,0.1,0.4
		V149c4.1-0.1,8.2,1.4,12.3,1.9C79.2,151.2,84.5,151.5,86.1,149"/>
	<path class="st28" d="M14.8,149c-0.4-0.7-0.6-1.8-0.6-2.8c2.1-1.4,5.9-2.3,10.2-2.3c6.6,0,12,2.1,12,4.8c0,0.1-0.1,0.3-0.1,0.4V149
		c-4.1-0.1-8.2,1.4-12.3,1.9C21.6,151.2,16.3,151.5,14.8,149"/>
	<path class="st29" d="M306.1,144.4c-1.4-2.5-5.6-3.1-8.1-3.6c-3.9-0.8-7.9-0.3-11.7,0.5c-0.8,0.2-1.4,0.3-2,0.5
		c-0.8-4.3-4.6-5.5-9.2-5.5h-9.2c-4.6,0-8.4,1.2-9.2,5.6c-0.6-0.2-1.4-0.4-2.2-0.6c-3.9-0.8-7.8-1.3-11.7-0.5
		c-2.5,0.5-6.8,1.1-8.1,3.6c-0.7,1.2-0.6,3.5,0.1,4.7c1.6,2.5,6.9,2.1,9.3,1.8c4.1-0.5,8.3-2,12.5-1.9l2.1,22.2
		c0,5.2,4.2,9.3,9.3,9.3h5.1c5.2,0,9.4-4.2,9.4-9.3l2.1-22.2c4.1-0.1,8.2,1.4,12.3,1.9c2.4,0.3,7.7,0.6,9.3-1.8
		C306.8,147.9,306.8,145.6,306.1,144.4"/>
</g>
<g>
	<defs>
		<path id="SVGID_23_" d="M265.8,136.2c-4.6,0-8.4,1.2-9.2,5.6c-0.6-0.2-1.4-0.4-2.2-0.6c-3.9-0.8-7.8-1.3-11.7-0.5
			c-2.5,0.5-6.8,1.1-8.1,3.6c-0.7,1.2-0.6,3.5,0.1,4.7c1.6,2.5,6.9,2.1,9.3,1.8c4.1-0.5,8.3-2,12.5-1.9l2.1,22.2
			c0,5.2,4.2,9.4,9.3,9.4h5.1c5.2,0,9.4-4.2,9.4-9.4l2.1-22.2c4.1-0.1,8.2,1.4,12.3,1.9c2.4,0.3,7.7,0.6,9.3-1.8
			c0.8-1.2,0.8-3.5,0.1-4.7c-1.4-2.5-5.6-3.1-8.1-3.6c-3.9-0.8-7.9-0.3-11.7,0.5c-0.8,0.2-1.4,0.3-2,0.5c-0.8-4.3-4.6-5.5-9.2-5.5
			H265.8z"/>
	</defs>
	<clipPath id="SVGID_24_">
		<use xlink:href="#SVGID_23_"  style="overflow:visible;"/>
	</clipPath>
	<path class="st30" d="M130.2,89.6c0,0-1.7,0.6-0.6,1.7"/>
	<path class="st30" d="M128,89.6c0,0,1.7,0.6,0.6,1.7"/>
</g>
<g>
	<defs>
		<rect id="SVGID_25_" width="544.8" height="423"/>
	</defs>
	<clipPath id="SVGID_26_">
		<use xlink:href="#SVGID_25_"  style="overflow:visible;"/>
	</clipPath>
	<path class="st31" d="M265.6,153.9c0,0.9-0.7,1.6-1.6,1.6c-0.9,0-1.6-0.7-1.6-1.6c0-0.9,0.7-1.6,1.6-1.6
		C264.9,152.3,265.6,153.1,265.6,153.9"/>
	<path class="st31" d="M277.8,153.9c0,0.9-0.7,1.6-1.6,1.6c-0.9,0-1.6-0.7-1.6-1.6c0-0.9,0.7-1.6,1.6-1.6
		C277.1,152.3,277.8,153.1,277.8,153.9"/>
	<path class="st32" d="M306,149c0.4-0.7,0.6-1.8,0.6-2.8c-2.1-1.4-5.9-2.3-10.2-2.3c-6.6,0-12,2.1-12,4.8c0,0.1,0.1,0.3,0.1,0.4V149
		c4.1-0.1,8.2,1.4,12.3,1.9C299.2,151.2,304.4,151.5,306,149"/>
	<path class="st32" d="M234.7,149c-0.4-0.7-0.6-1.8-0.6-2.8c2.1-1.4,5.9-2.3,10.2-2.3c6.6,0,12,2.1,12,4.8c0,0.1-0.1,0.3-0.1,0.4
		V149c-4.1-0.1-8.2,1.4-12.3,1.9C241.5,151.2,236.3,151.5,234.7,149"/>
	<path class="st33" d="M86.2,359.6c-1.4-2.5-5.6-3.1-8.1-3.6c-3.9-0.8-7.9-0.3-11.7,0.5c-0.8,0.2-1.4,0.3-2,0.5
		c-0.8-4.3-4.6-5.5-9.2-5.5h-9.2c-4.6,0-8.4,1.2-9.2,5.6c-0.6-0.2-1.4-0.4-2.2-0.6c-3.9-0.8-7.8-1.3-11.7-0.5
		c-2.5,0.5-6.8,1.1-8.1,3.6c-0.7,1.2-0.6,3.5,0.1,4.7c1.6,2.5,6.9,2.1,9.3,1.8c4.1-0.5,8.3-2,12.5-1.9l2.1,22.2
		c0,5.2,4.2,9.3,9.3,9.3h5.1c5.2,0,9.4-4.2,9.4-9.3l2.1-22.2c4.1-0.1,8.2,1.4,12.3,1.9c2.4,0.3,7.7,0.6,9.3-1.8
		C86.9,363.1,86.9,360.9,86.2,359.6"/>
</g>
<g>
	<defs>
		<path id="SVGID_27_" d="M45.9,351.5c-4.6,0-8.4,1.2-9.2,5.6c-0.6-0.2-1.4-0.4-2.2-0.6c-3.9-0.8-7.8-1.3-11.7-0.5
			c-2.5,0.5-6.8,1.1-8.1,3.6c-0.7,1.2-0.6,3.5,0.1,4.7c1.6,2.5,6.9,2.1,9.3,1.8c4.1-0.5,8.3-2,12.5-1.9l2.1,22.2
			c0,5.2,4.2,9.4,9.3,9.4h5.1c5.2,0,9.4-4.2,9.4-9.4l2.1-22.2c4.1-0.1,8.2,1.4,12.3,1.9c2.4,0.3,7.7,0.6,9.3-1.8
			c0.8-1.2,0.8-3.5,0.1-4.7c-1.4-2.5-5.7-3.1-8.1-3.6c-3.9-0.8-7.9-0.3-11.7,0.5c-0.8,0.2-1.4,0.3-2,0.5c-0.8-4.3-4.6-5.5-9.2-5.5
			H45.9z"/>
	</defs>
	<clipPath id="SVGID_28_">
		<use xlink:href="#SVGID_27_"  style="overflow:visible;"/>
	</clipPath>
	<path class="st34" d="M60.7,157.7c0,0-1.7,0.6-0.6,1.7"/>
	<path class="st34" d="M58.5,157.7c0,0,1.7,0.6,0.6,1.7"/>
</g>
<g>
	<defs>
		<rect id="SVGID_29_" width="544.8" height="423"/>
	</defs>
	<clipPath id="SVGID_30_">
		<use xlink:href="#SVGID_29_"  style="overflow:visible;"/>
	</clipPath>
	<path class="st35" d="M45.7,369.2c0,0.9-0.7,1.6-1.6,1.6c-0.9,0-1.6-0.7-1.6-1.6c0-0.9,0.7-1.6,1.6-1.6
		C45,367.6,45.7,368.3,45.7,369.2"/>
	<path class="st35" d="M57.9,369.2c0,0.9-0.7,1.6-1.6,1.6c-0.9,0-1.6-0.7-1.6-1.6c0-0.9,0.7-1.6,1.6-1.6
		C57.2,367.6,57.9,368.3,57.9,369.2"/>
	<path class="st36" d="M86.1,364.3c0.4-0.7,0.6-1.8,0.6-2.8c-2.1-1.4-5.9-2.3-10.2-2.3c-6.6,0-12,2.1-12,4.8c0,0.1,0.1,0.3,0.1,0.4
		v-0.2c4.1-0.1,8.2,1.4,12.3,1.9C79.2,366.4,84.5,366.8,86.1,364.3"/>
	<path class="st36" d="M14.8,364.3c-0.4-0.7-0.6-1.8-0.6-2.8c2.1-1.4,5.9-2.3,10.2-2.3c6.6,0,12,2.1,12,4.8c0,0.1-0.1,0.3-0.1,0.4
		v-0.2c-4.1-0.1-8.2,1.4-12.3,1.9C21.6,366.4,16.3,366.8,14.8,364.3"/>
	<path class="st37" d="M306.1,359.6c-1.4-2.5-5.6-3.1-8.1-3.6c-3.9-0.8-7.9-0.3-11.7,0.5c-0.8,0.2-1.4,0.3-2,0.5
		c-0.8-4.3-4.6-5.5-9.2-5.5h-9.2c-4.6,0-8.4,1.2-9.2,5.6c-0.6-0.2-1.4-0.4-2.2-0.6c-3.9-0.8-7.8-1.3-11.7-0.5
		c-2.5,0.5-6.8,1.1-8.1,3.6c-0.7,1.2-0.6,3.5,0.1,4.7c1.6,2.5,6.9,2.1,9.3,1.8c4.1-0.5,8.3-2,12.5-1.9l2.1,22.2
		c0,5.2,4.2,9.3,9.3,9.3h5.1c5.2,0,9.4-4.2,9.4-9.3l2.1-22.2c4.1-0.1,8.2,1.4,12.3,1.9c2.4,0.3,7.7,0.6,9.3-1.8
		C306.8,363.1,306.8,360.9,306.1,359.6"/>
</g>
<g>
	<defs>
		<path id="SVGID_31_" d="M265.8,351.5c-4.6,0-8.4,1.2-9.2,5.6c-0.6-0.2-1.4-0.4-2.2-0.6c-3.9-0.8-7.8-1.3-11.7-0.5
			c-2.5,0.5-6.8,1.1-8.1,3.6c-0.7,1.2-0.6,3.5,0.1,4.7c1.6,2.5,6.9,2.1,9.3,1.8c4.1-0.5,8.3-2,12.5-1.9l2.1,22.2
			c0,5.2,4.2,9.4,9.3,9.4h5.1c5.2,0,9.4-4.2,9.4-9.4l2.1-22.2c4.1-0.1,8.2,1.4,12.3,1.9c2.4,0.3,7.7,0.6,9.3-1.8
			c0.8-1.2,0.8-3.5,0.1-4.7c-1.4-2.5-5.6-3.1-8.1-3.6c-3.9-0.8-7.9-0.3-11.7,0.5c-0.8,0.2-1.4,0.3-2,0.5c-0.8-4.3-4.6-5.5-9.2-5.5
			H265.8z"/>
	</defs>
	<clipPath id="SVGID_32_">
		<use xlink:href="#SVGID_31_"  style="overflow:visible;"/>
	</clipPath>
	<path class="st38" d="M130.2,157.7c0,0-1.7,0.6-0.6,1.7"/>
	<path class="st38" d="M128,157.7c0,0,1.7,0.6,0.6,1.7"/>
</g>
<g>
	<defs>
		<rect id="SVGID_33_" width="544.8" height="423"/>
	</defs>
	<clipPath id="SVGID_34_">
		<use xlink:href="#SVGID_33_"  style="overflow:visible;"/>
	</clipPath>
	<path class="st39" d="M265.6,369.2c0,0.9-0.7,1.6-1.6,1.6c-0.9,0-1.6-0.7-1.6-1.6c0-0.9,0.7-1.6,1.6-1.6
		C264.9,367.6,265.6,368.3,265.6,369.2"/>
	<path class="st39" d="M277.8,369.2c0,0.9-0.7,1.6-1.6,1.6c-0.9,0-1.6-0.7-1.6-1.6c0-0.9,0.7-1.6,1.6-1.6
		C277.1,367.6,277.8,368.3,277.8,369.2"/>
	<path class="st40" d="M306,364.3c0.4-0.7,0.6-1.8,0.6-2.8c-2.1-1.4-5.9-2.3-10.2-2.3c-6.6,0-12,2.1-12,4.8c0,0.1,0.1,0.3,0.1,0.4
		v-0.2c4.1-0.1,8.2,1.4,12.3,1.9C299.2,366.4,304.4,366.8,306,364.3"/>
	<path class="st40" d="M234.7,364.3c-0.4-0.7-0.6-1.8-0.6-2.8c2.1-1.4,5.9-2.3,10.2-2.3c6.6,0,12,2.1,12,4.8c0,0.1-0.1,0.3-0.1,0.4
		v-0.2c-4.1-0.1-8.2,1.4-12.3,1.9C241.5,366.4,236.3,366.8,234.7,364.3"/>
	<path class="st41" d="M194.7,37.5c-1.4-2.5-5.6-3.1-8.1-3.6c-3.9-0.8-7.9-0.3-11.7,0.5c-0.8,0.2-1.4,0.3-2,0.5
		c-0.8-4.3-4.6-5.5-9.2-5.5h-9.2c-4.6,0-8.4,1.2-9.2,5.6c-0.6-0.2-1.4-0.4-2.2-0.6c-3.9-0.8-7.8-1.3-11.7-0.5
		c-2.5,0.5-6.8,1.1-8.1,3.6c-0.7,1.2-0.6,3.5,0.1,4.7c1.6,2.5,6.9,2.1,9.3,1.8c4.1-0.5,8.3-2,12.5-1.9l2.1,22.2
		c0,5.2,4.2,9.3,9.3,9.3h5.1c5.2,0,9.4-4.2,9.4-9.3l2.1-22.2c4.1-0.1,8.2,1.4,12.3,1.9c2.4,0.3,7.7,0.6,9.3-1.8
		C195.4,41,195.4,38.7,194.7,37.5"/>
</g>
<g>
	<defs>
		<path id="SVGID_35_" d="M154.4,29.4c-4.6,0-8.4,1.2-9.2,5.6c-0.6-0.2-1.4-0.4-2.2-0.6c-3.9-0.8-7.8-1.3-11.7-0.5
			c-2.5,0.5-6.8,1.1-8.1,3.6c-0.7,1.2-0.7,3.5,0.1,4.7c1.6,2.5,6.9,2.1,9.3,1.8c4.1-0.5,8.3-2,12.5-1.9l2.1,22.2
			c0,5.2,4.2,9.3,9.3,9.3h5.1c5.2,0,9.3-4.2,9.3-9.3l2.1-22.2c4.1-0.1,8.2,1.4,12.3,1.9c2.4,0.3,7.7,0.6,9.3-1.8
			c0.8-1.2,0.8-3.5,0.1-4.7c-1.4-2.5-5.6-3.1-8.1-3.6c-3.9-0.8-7.9-0.3-11.7,0.5c-0.8,0.2-1.4,0.3-2,0.5c-0.8-4.3-4.6-5.5-9.2-5.5
			H154.4z"/>
	</defs>
	<clipPath id="SVGID_36_">
		<use xlink:href="#SVGID_35_"  style="overflow:visible;"/>
	</clipPath>
	<path class="st42" d="M95,55.8c0,0-1.7,0.6-0.6,1.7"/>
	<path class="st42" d="M92.8,55.8c0,0,1.7,0.6,0.6,1.7"/>
</g>
<g>
	<defs>
		<rect id="SVGID_37_" width="544.8" height="423"/>
	</defs>
	<clipPath id="SVGID_38_">
		<use xlink:href="#SVGID_37_"  style="overflow:visible;"/>
	</clipPath>
	<path class="st43" d="M154.2,47.1c0,0.9-0.7,1.6-1.6,1.6c-0.9,0-1.6-0.7-1.6-1.6c0-0.9,0.7-1.6,1.6-1.6
		C153.5,45.5,154.2,46.2,154.2,47.1"/>
	<path class="st43" d="M166.4,47.1c0,0.9-0.7,1.6-1.6,1.6c-0.9,0-1.6-0.7-1.6-1.6c0-0.9,0.7-1.6,1.6-1.6
		C165.7,45.5,166.4,46.2,166.4,47.1"/>
	<path class="st44" d="M194.6,42.2c0.4-0.7,0.6-1.8,0.6-2.8c-2.1-1.4-5.9-2.3-10.2-2.3c-6.6,0-12,2.1-12,4.8c0,0.1,0.1,0.3,0.1,0.4
		v-0.2c4.1-0.1,8.2,1.4,12.3,1.9C187.7,44.3,193,44.7,194.6,42.2"/>
	<path class="st44" d="M123.3,42.2c-0.4-0.7-0.6-1.8-0.6-2.8c2.1-1.4,5.9-2.3,10.2-2.3c6.6,0,12,2.1,12,4.8c0,0.1-0.1,0.3-0.1,0.4
		v-0.2c-4.1-0.1-8.2,1.4-12.3,1.9C130.1,44.3,124.9,44.7,123.3,42.2"/>
	<path class="st45" d="M414.6,37.5c-1.4-2.5-5.6-3.1-8.1-3.6c-3.9-0.8-7.9-0.3-11.7,0.5c-0.8,0.2-1.4,0.3-2,0.5
		c-0.8-4.3-4.6-5.5-9.2-5.5h-9.2c-4.6,0-8.4,1.2-9.2,5.6c-0.6-0.2-1.4-0.4-2.2-0.6c-3.9-0.8-7.8-1.3-11.7-0.5
		c-2.5,0.5-6.8,1.1-8.1,3.6c-0.7,1.2-0.6,3.5,0.1,4.7c1.6,2.5,6.9,2.1,9.3,1.8c4.1-0.5,8.3-2,12.5-1.9l2.1,22.2
		c0,5.2,4.2,9.3,9.3,9.3h5.1c5.2,0,9.4-4.2,9.4-9.3l2.1-22.2c4.1-0.1,8.2,1.4,12.3,1.9c2.4,0.3,7.7,0.6,9.3-1.8
		C415.3,41,415.3,38.7,414.6,37.5"/>
</g>
<g>
	<defs>
		<path id="SVGID_39_" d="M374.3,29.4c-4.6,0-8.4,1.2-9.2,5.6c-0.6-0.2-1.4-0.4-2.2-0.6c-3.9-0.8-7.8-1.3-11.7-0.5
			c-2.5,0.5-6.8,1.1-8.1,3.6c-0.7,1.2-0.6,3.5,0.1,4.7c1.6,2.5,6.9,2.1,9.3,1.8c4.1-0.5,8.3-2,12.5-1.9l2.1,22.2
			c0,5.2,4.2,9.3,9.3,9.3h5.1c5.2,0,9.4-4.2,9.4-9.3l2.1-22.2c4.1-0.1,8.2,1.4,12.3,1.9c2.4,0.3,7.7,0.6,9.3-1.8
			c0.8-1.2,0.8-3.5,0.1-4.7c-1.4-2.5-5.6-3.1-8.1-3.6c-3.9-0.8-7.9-0.3-11.7,0.5c-0.8,0.2-1.4,0.3-2,0.5c-0.8-4.3-4.6-5.5-9.2-5.5
			H374.3z"/>
	</defs>
	<clipPath id="SVGID_40_">
		<use xlink:href="#SVGID_39_"  style="overflow:visible;"/>
	</clipPath>
	<path class="st46" d="M164.5,55.8c0,0-1.7,0.6-0.6,1.7"/>
	<path class="st46" d="M162.4,55.8c0,0,1.7,0.6,0.6,1.7"/>
</g>
<g>
	<defs>
		<rect id="SVGID_41_" width="544.8" height="423"/>
	</defs>
	<clipPath id="SVGID_42_">
		<use xlink:href="#SVGID_41_"  style="overflow:visible;"/>
	</clipPath>
	<path class="st47" d="M374.1,47.1c0,0.9-0.7,1.6-1.6,1.6c-0.9,0-1.6-0.7-1.6-1.6c0-0.9,0.7-1.6,1.6-1.6
		C373.4,45.5,374.1,46.2,374.1,47.1"/>
	<path class="st47" d="M386.3,47.1c0,0.9-0.7,1.6-1.6,1.6c-0.9,0-1.6-0.7-1.6-1.6c0-0.9,0.7-1.6,1.6-1.6
		C385.6,45.5,386.3,46.2,386.3,47.1"/>
	<path class="st48" d="M414.5,42.2c0.4-0.7,0.6-1.8,0.6-2.8c-2.1-1.4-5.9-2.3-10.2-2.3c-6.6,0-12,2.1-12,4.8c0,0.1,0.1,0.3,0.1,0.4
		v-0.2c4.1-0.1,8.2,1.4,12.3,1.9C407.7,44.3,412.9,44.7,414.5,42.2"/>
	<path class="st48" d="M343.2,42.2c-0.4-0.7-0.6-1.8-0.6-2.8c2.1-1.4,5.9-2.3,10.2-2.3c6.6,0,12,2.1,12,4.8c0,0.1-0.1,0.3-0.1,0.4
		v-0.2c-4.1-0.1-8.2,1.4-12.3,1.9C350,44.3,344.8,44.7,343.2,42.2"/>
	<path class="st49" d="M194.7,252.8c-1.4-2.5-5.6-3.1-8.1-3.6c-3.9-0.8-7.9-0.3-11.7,0.5c-0.8,0.2-1.4,0.3-2,0.5
		c-0.8-4.3-4.6-5.5-9.2-5.5h-9.2c-4.6,0-8.4,1.2-9.2,5.6c-0.6-0.2-1.4-0.4-2.2-0.6c-3.9-0.8-7.8-1.3-11.7-0.5
		c-2.5,0.5-6.8,1.1-8.1,3.6c-0.7,1.2-0.6,3.5,0.1,4.7c1.6,2.5,6.9,2.1,9.3,1.8c4.1-0.5,8.3-2,12.5-1.9l2.1,22.2
		c0,5.2,4.2,9.3,9.3,9.3h5.1c5.2,0,9.4-4.2,9.4-9.3l2.1-22.2c4.1-0.1,8.2,1.4,12.3,1.9c2.4,0.3,7.7,0.6,9.3-1.8
		C195.4,256.3,195.4,254,194.7,252.8"/>
</g>
<g>
	<defs>
		<path id="SVGID_43_" d="M154.4,244.7c-4.6,0-8.4,1.2-9.2,5.6c-0.6-0.2-1.4-0.4-2.2-0.6c-3.9-0.8-7.8-1.3-11.7-0.5
			c-2.5,0.5-6.8,1.1-8.1,3.6c-0.7,1.2-0.7,3.5,0.1,4.7c1.6,2.5,6.9,2.1,9.3,1.8c4.1-0.5,8.3-2,12.5-1.9l2.1,22.2
			c0,5.2,4.2,9.4,9.3,9.4h5.1c5.2,0,9.3-4.2,9.3-9.4l2.1-22.2c4.1-0.1,8.2,1.4,12.3,1.9c2.4,0.3,7.7,0.6,9.3-1.8
			c0.8-1.2,0.8-3.5,0.1-4.7c-1.4-2.5-5.6-3.1-8.1-3.6c-3.9-0.8-7.9-0.3-11.7,0.5c-0.8,0.2-1.4,0.3-2,0.5c-0.8-4.3-4.6-5.5-9.2-5.5
			H154.4z"/>
	</defs>
	<clipPath id="SVGID_44_">
		<use xlink:href="#SVGID_43_"  style="overflow:visible;"/>
	</clipPath>
	<path class="st50" d="M95,123.9c0,0-1.7,0.6-0.6,1.7"/>
	<path class="st50" d="M92.8,123.9c0,0,1.7,0.6,0.6,1.7"/>
</g>
<g>
	<defs>
		<rect id="SVGID_45_" width="544.8" height="423"/>
	</defs>
	<clipPath id="SVGID_46_">
		<use xlink:href="#SVGID_45_"  style="overflow:visible;"/>
	</clipPath>
	<path class="st51" d="M154.2,262.3c0,0.9-0.7,1.6-1.6,1.6c-0.9,0-1.6-0.7-1.6-1.6c0-0.9,0.7-1.6,1.6-1.6
		C153.5,260.8,154.2,261.5,154.2,262.3"/>
	<path class="st51" d="M166.4,262.3c0,0.9-0.7,1.6-1.6,1.6c-0.9,0-1.6-0.7-1.6-1.6c0-0.9,0.7-1.6,1.6-1.6
		C165.7,260.8,166.4,261.5,166.4,262.3"/>
	<path class="st52" d="M194.6,257.5c0.4-0.7,0.6-1.8,0.6-2.8c-2.1-1.4-5.9-2.3-10.2-2.3c-6.6,0-12,2.1-12,4.8c0,0.1,0.1,0.3,0.1,0.4
		v-0.2c4.1-0.1,8.2,1.4,12.3,1.9C187.7,259.6,193,259.9,194.6,257.5"/>
	<path class="st52" d="M123.3,257.5c-0.4-0.7-0.6-1.8-0.6-2.8c2.1-1.4,5.9-2.3,10.2-2.3c6.6,0,12,2.1,12,4.8c0,0.1-0.1,0.3-0.1,0.4
		v-0.2c-4.1-0.1-8.2,1.4-12.3,1.9C130.1,259.6,124.9,259.9,123.3,257.5"/>
	<path class="st53" d="M414.6,252.8c-1.4-2.5-5.6-3.1-8.1-3.6c-3.9-0.8-7.9-0.3-11.7,0.5c-0.8,0.2-1.4,0.3-2,0.5
		c-0.8-4.3-4.6-5.5-9.2-5.5h-9.2c-4.6,0-8.4,1.2-9.2,5.6c-0.6-0.2-1.4-0.4-2.2-0.6c-3.9-0.8-7.8-1.3-11.7-0.5
		c-2.5,0.5-6.8,1.1-8.1,3.6c-0.7,1.2-0.6,3.5,0.1,4.7c1.6,2.5,6.9,2.1,9.3,1.8c4.1-0.5,8.3-2,12.5-1.9l2.1,22.2
		c0,5.2,4.2,9.3,9.3,9.3h5.1c5.2,0,9.4-4.2,9.4-9.3l2.1-22.2c4.1-0.1,8.2,1.4,12.3,1.9c2.4,0.3,7.7,0.6,9.3-1.8
		C415.3,256.3,415.3,254,414.6,252.8"/>
</g>
<g>
	<defs>
		<path id="SVGID_47_" d="M374.3,244.7c-4.6,0-8.4,1.2-9.2,5.6c-0.6-0.2-1.4-0.4-2.2-0.6c-3.9-0.8-7.8-1.3-11.7-0.5
			c-2.5,0.5-6.8,1.1-8.1,3.6c-0.7,1.2-0.6,3.5,0.1,4.7c1.6,2.5,6.9,2.1,9.3,1.8c4.1-0.5,8.3-2,12.5-1.9l2.1,22.2
			c0,5.2,4.2,9.4,9.3,9.4h5.1c5.2,0,9.4-4.2,9.4-9.4l2.1-22.2c4.1-0.1,8.2,1.4,12.3,1.9c2.4,0.3,7.7,0.6,9.3-1.8
			c0.8-1.2,0.8-3.5,0.1-4.7c-1.4-2.5-5.6-3.1-8.1-3.6c-3.9-0.8-7.9-0.3-11.7,0.5c-0.8,0.2-1.4,0.3-2,0.5c-0.8-4.3-4.6-5.5-9.2-5.5
			H374.3z"/>
	</defs>
	<clipPath id="SVGID_48_">
		<use xlink:href="#SVGID_47_"  style="overflow:visible;"/>
	</clipPath>
	<path class="st54" d="M164.5,123.9c0,0-1.7,0.6-0.6,1.7"/>
	<path class="st54" d="M162.4,123.9c0,0,1.7,0.6,0.6,1.7"/>
</g>
<g>
	<defs>
		<rect id="SVGID_49_" width="544.8" height="423"/>
	</defs>
	<clipPath id="SVGID_50_">
		<use xlink:href="#SVGID_49_"  style="overflow:visible;"/>
	</clipPath>
	<path class="st55" d="M374.1,262.3c0,0.9-0.7,1.6-1.6,1.6c-0.9,0-1.6-0.7-1.6-1.6c0-0.9,0.7-1.6,1.6-1.6
		C373.4,260.8,374.1,261.5,374.1,262.3"/>
	<path class="st55" d="M386.3,262.3c0,0.9-0.7,1.6-1.6,1.6c-0.9,0-1.6-0.7-1.6-1.6c0-0.9,0.7-1.6,1.6-1.6
		C385.6,260.8,386.3,261.5,386.3,262.3"/>
	<path class="st56" d="M414.5,257.5c0.4-0.7,0.6-1.8,0.6-2.8c-2.1-1.4-5.9-2.3-10.2-2.3c-6.6,0-12,2.1-12,4.8c0,0.1,0.1,0.3,0.1,0.4
		v-0.2c4.1-0.1,8.2,1.4,12.3,1.9C407.7,259.6,412.9,259.9,414.5,257.5"/>
	<path class="st56" d="M343.2,257.5c-0.4-0.7-0.6-1.8-0.6-2.8c2.1-1.4,5.9-2.3,10.2-2.3c6.6,0,12,2.1,12,4.8c0,0.1-0.1,0.3-0.1,0.4
		v-0.2c-4.1-0.1-8.2,1.4-12.3,1.9C350,259.6,344.8,259.9,343.2,257.5"/>
	<path class="st57" d="M194.7,144.4c-1.4-2.5-5.6-3.1-8.1-3.6c-3.9-0.8-7.9-0.3-11.7,0.5c-0.8,0.2-1.4,0.3-2,0.5
		c-0.8-4.3-4.6-5.5-9.2-5.5h-9.2c-4.6,0-8.4,1.2-9.2,5.6c-0.6-0.2-1.4-0.4-2.2-0.6c-3.9-0.8-7.8-1.3-11.7-0.5
		c-2.5,0.5-6.8,1.1-8.1,3.6c-0.7,1.2-0.6,3.5,0.1,4.7c1.6,2.5,6.9,2.1,9.3,1.8c4.1-0.5,8.3-2,12.5-1.9l2.1,22.2
		c0,5.2,4.2,9.3,9.3,9.3h5.1c5.2,0,9.4-4.2,9.4-9.3L173,149c4.1-0.1,8.2,1.4,12.3,1.9c2.4,0.3,7.7,0.6,9.3-1.8
		C195.4,147.9,195.4,145.6,194.7,144.4"/>
</g>
<g>
	<defs>
		<path id="SVGID_51_" d="M154.4,136.2c-4.6,0-8.4,1.2-9.2,5.6c-0.6-0.2-1.4-0.4-2.2-0.6c-3.9-0.8-7.8-1.3-11.7-0.5
			c-2.5,0.5-6.8,1.1-8.1,3.6c-0.7,1.2-0.7,3.5,0.1,4.7c1.6,2.5,6.9,2.1,9.3,1.8c4.1-0.5,8.3-2,12.5-1.9l2.1,22.2
			c0,5.2,4.2,9.4,9.3,9.4h5.1c5.2,0,9.3-4.2,9.3-9.4L173,149c4.1-0.1,8.2,1.4,12.3,1.9c2.4,0.3,7.7,0.6,9.3-1.8
			c0.8-1.2,0.8-3.5,0.1-4.7c-1.4-2.5-5.6-3.1-8.1-3.6c-3.9-0.8-7.9-0.3-11.7,0.5c-0.8,0.2-1.4,0.3-2,0.5c-0.8-4.3-4.6-5.5-9.2-5.5
			H154.4z"/>
	</defs>
	<clipPath id="SVGID_52_">
		<use xlink:href="#SVGID_51_"  style="overflow:visible;"/>
	</clipPath>
	<path class="st58" d="M95,89.6c0,0-1.7,0.6-0.6,1.7"/>
	<path class="st58" d="M92.8,89.6c0,0,1.7,0.6,0.6,1.7"/>
</g>
<g>
	<defs>
		<rect id="SVGID_53_" width="544.8" height="423"/>
	</defs>
	<clipPath id="SVGID_54_">
		<use xlink:href="#SVGID_53_"  style="overflow:visible;"/>
	</clipPath>
	<path class="st59" d="M154.2,153.9c0,0.9-0.7,1.6-1.6,1.6c-0.9,0-1.6-0.7-1.6-1.6c0-0.9,0.7-1.6,1.6-1.6
		C153.5,152.3,154.2,153.1,154.2,153.9"/>
	<path class="st59" d="M166.4,153.9c0,0.9-0.7,1.6-1.6,1.6c-0.9,0-1.6-0.7-1.6-1.6c0-0.9,0.7-1.6,1.6-1.6
		C165.7,152.3,166.4,153.1,166.4,153.9"/>
	<path class="st60" d="M194.6,149c0.4-0.7,0.6-1.8,0.6-2.8c-2.1-1.4-5.9-2.3-10.2-2.3c-6.6,0-12,2.1-12,4.8c0,0.1,0.1,0.3,0.1,0.4
		V149c4.1-0.1,8.2,1.4,12.3,1.9C187.7,151.2,193,151.5,194.6,149"/>
	<path class="st60" d="M123.3,149c-0.4-0.7-0.6-1.8-0.6-2.8c2.1-1.4,5.9-2.3,10.2-2.3c6.6,0,12,2.1,12,4.8c0,0.1-0.1,0.3-0.1,0.4
		V149c-4.1-0.1-8.2,1.4-12.3,1.9C130.1,151.2,124.9,151.5,123.3,149"/>
	<path class="st61" d="M414.6,144.4c-1.4-2.5-5.6-3.1-8.1-3.6c-3.9-0.8-7.9-0.3-11.7,0.5c-0.8,0.2-1.4,0.3-2,0.5
		c-0.8-4.3-4.6-5.5-9.2-5.5h-9.2c-4.6,0-8.4,1.2-9.2,5.6c-0.6-0.2-1.4-0.4-2.2-0.6c-3.9-0.8-7.8-1.3-11.7-0.5
		c-2.5,0.5-6.8,1.1-8.1,3.6c-0.7,1.2-0.6,3.5,0.1,4.7c1.6,2.5,6.9,2.1,9.3,1.8c4.1-0.5,8.3-2,12.5-1.9l2.1,22.2
		c0,5.2,4.2,9.3,9.3,9.3h5.1c5.2,0,9.4-4.2,9.4-9.3l2.1-22.2c4.1-0.1,8.2,1.4,12.3,1.9c2.4,0.3,7.7,0.6,9.3-1.8
		C415.3,147.9,415.3,145.6,414.6,144.4"/>
</g>
<g>
	<defs>
		<path id="SVGID_55_" d="M374.3,136.2c-4.6,0-8.4,1.2-9.2,5.6c-0.6-0.2-1.4-0.4-2.2-0.6c-3.9-0.8-7.8-1.3-11.7-0.5
			c-2.5,0.5-6.8,1.1-8.1,3.6c-0.7,1.2-0.6,3.5,0.1,4.7c1.6,2.5,6.9,2.1,9.3,1.8c4.1-0.5,8.3-2,12.5-1.9l2.1,22.2
			c0,5.2,4.2,9.4,9.3,9.4h5.1c5.2,0,9.4-4.2,9.4-9.4l2.1-22.2c4.1-0.1,8.2,1.4,12.3,1.9c2.4,0.3,7.7,0.6,9.3-1.8
			c0.8-1.2,0.8-3.5,0.1-4.7c-1.4-2.5-5.6-3.1-8.1-3.6c-3.9-0.8-7.9-0.3-11.7,0.5c-0.8,0.2-1.4,0.3-2,0.5c-0.8-4.3-4.6-5.5-9.2-5.5
			H374.3z"/>
	</defs>
	<clipPath id="SVGID_56_">
		<use xlink:href="#SVGID_55_"  style="overflow:visible;"/>
	</clipPath>
	<path class="st62" d="M164.5,89.6c0,0-1.7,0.6-0.6,1.7"/>
	<path class="st62" d="M162.4,89.6c0,0,1.7,0.6,0.6,1.7"/>
</g>
<g>
	<defs>
		<rect id="SVGID_57_" width="544.8" height="423"/>
	</defs>
	<clipPath id="SVGID_58_">
		<use xlink:href="#SVGID_57_"  style="overflow:visible;"/>
	</clipPath>
	<path class="st63" d="M374.1,153.9c0,0.9-0.7,1.6-1.6,1.6c-0.9,0-1.6-0.7-1.6-1.6c0-0.9,0.7-1.6,1.6-1.6
		C373.4,152.3,374.1,153.1,374.1,153.9"/>
	<path class="st63" d="M386.3,153.9c0,0.9-0.7,1.6-1.6,1.6c-0.9,0-1.6-0.7-1.6-1.6c0-0.9,0.7-1.6,1.6-1.6
		C385.6,152.3,386.3,153.1,386.3,153.9"/>
	<path class="st64" d="M414.5,149c0.4-0.7,0.6-1.8,0.6-2.8c-2.1-1.4-5.9-2.3-10.2-2.3c-6.6,0-12,2.1-12,4.8c0,0.1,0.1,0.3,0.1,0.4
		V149c4.1-0.1,8.2,1.4,12.3,1.9C407.7,151.2,412.9,151.5,414.5,149"/>
	<path class="st64" d="M343.2,149c-0.4-0.7-0.6-1.8-0.6-2.8c2.1-1.4,5.9-2.3,10.2-2.3c6.6,0,12,2.1,12,4.8c0,0.1-0.1,0.3-0.1,0.4
		V149c-4.1-0.1-8.2,1.4-12.3,1.9C350,151.2,344.8,151.5,343.2,149"/>
	<path class="st65" d="M194.7,359.6c-1.4-2.5-5.6-3.1-8.1-3.6c-3.9-0.8-7.9-0.3-11.7,0.5c-0.8,0.2-1.4,0.3-2,0.5
		c-0.8-4.3-4.6-5.5-9.2-5.5h-9.2c-4.6,0-8.4,1.2-9.2,5.6c-0.6-0.2-1.4-0.4-2.2-0.6c-3.9-0.8-7.8-1.3-11.7-0.5
		c-2.5,0.5-6.8,1.1-8.1,3.6c-0.7,1.2-0.6,3.5,0.1,4.7c1.6,2.5,6.9,2.1,9.3,1.8c4.1-0.5,8.3-2,12.5-1.9l2.1,22.2
		c0,5.2,4.2,9.3,9.3,9.3h5.1c5.2,0,9.4-4.2,9.4-9.3l2.1-22.2c4.1-0.1,8.2,1.4,12.3,1.9c2.4,0.3,7.7,0.6,9.3-1.8
		C195.4,363.1,195.4,360.9,194.7,359.6"/>
</g>
<g>
	<defs>
		<path id="SVGID_59_" d="M154.4,351.5c-4.6,0-8.4,1.2-9.2,5.6c-0.6-0.2-1.4-0.4-2.2-0.6c-3.9-0.8-7.8-1.3-11.7-0.5
			c-2.5,0.5-6.8,1.1-8.1,3.6c-0.7,1.2-0.7,3.5,0.1,4.7c1.6,2.5,6.9,2.1,9.3,1.8c4.1-0.5,8.3-2,12.5-1.9l2.1,22.2
			c0,5.2,4.2,9.4,9.3,9.4h5.1c5.2,0,9.3-4.2,9.3-9.4l2.1-22.2c4.1-0.1,8.2,1.4,12.3,1.9c2.4,0.3,7.7,0.6,9.3-1.8
			c0.8-1.2,0.8-3.5,0.1-4.7c-1.4-2.5-5.6-3.1-8.1-3.6c-3.9-0.8-7.9-0.3-11.7,0.5c-0.8,0.2-1.4,0.3-2,0.5c-0.8-4.3-4.6-5.5-9.2-5.5
			H154.4z"/>
	</defs>
	<clipPath id="SVGID_60_">
		<use xlink:href="#SVGID_59_"  style="overflow:visible;"/>
	</clipPath>
	<path class="st66" d="M95,157.7c0,0-1.7,0.6-0.6,1.7"/>
	<path class="st66" d="M92.8,157.7c0,0,1.7,0.6,0.6,1.7"/>
</g>
<g>
	<defs>
		<rect id="SVGID_61_" width="544.8" height="423"/>
	</defs>
	<clipPath id="SVGID_62_">
		<use xlink:href="#SVGID_61_"  style="overflow:visible;"/>
	</clipPath>
	<path class="st67" d="M154.2,369.2c0,0.9-0.7,1.6-1.6,1.6c-0.9,0-1.6-0.7-1.6-1.6c0-0.9,0.7-1.6,1.6-1.6
		C153.5,367.6,154.2,368.3,154.2,369.2"/>
	<path class="st67" d="M166.4,369.2c0,0.9-0.7,1.6-1.6,1.6c-0.9,0-1.6-0.7-1.6-1.6c0-0.9,0.7-1.6,1.6-1.6
		C165.7,367.6,166.4,368.3,166.4,369.2"/>
	<path class="st68" d="M194.6,364.3c0.4-0.7,0.6-1.8,0.6-2.8c-2.1-1.4-5.9-2.3-10.2-2.3c-6.6,0-12,2.1-12,4.8c0,0.1,0.1,0.3,0.1,0.4
		v-0.2c4.1-0.1,8.2,1.4,12.3,1.9C187.7,366.4,193,366.8,194.6,364.3"/>
	<path class="st68" d="M123.3,364.3c-0.4-0.7-0.6-1.8-0.6-2.8c2.1-1.4,5.9-2.3,10.2-2.3c6.6,0,12,2.1,12,4.8c0,0.1-0.1,0.3-0.1,0.4
		v-0.2c-4.1-0.1-8.2,1.4-12.3,1.9C130.1,366.4,124.9,366.8,123.3,364.3"/>
	<path class="st69" d="M414.6,359.6c-1.4-2.5-5.6-3.1-8.1-3.6c-3.9-0.8-7.9-0.3-11.7,0.5c-0.8,0.2-1.4,0.3-2,0.5
		c-0.8-4.3-4.6-5.5-9.2-5.5h-9.2c-4.6,0-8.4,1.2-9.2,5.6c-0.6-0.2-1.4-0.4-2.2-0.6c-3.9-0.8-7.8-1.3-11.7-0.5
		c-2.5,0.5-6.8,1.1-8.1,3.6c-0.7,1.2-0.6,3.5,0.1,4.7c1.6,2.5,6.9,2.1,9.3,1.8c4.1-0.5,8.3-2,12.5-1.9l2.1,22.2
		c0,5.2,4.2,9.3,9.3,9.3h5.1c5.2,0,9.4-4.2,9.4-9.3l2.1-22.2c4.1-0.1,8.2,1.4,12.3,1.9c2.4,0.3,7.7,0.6,9.3-1.8
		C415.3,363.1,415.3,360.9,414.6,359.6"/>
</g>
<g>
	<defs>
		<path id="SVGID_63_" d="M374.3,351.5c-4.6,0-8.4,1.2-9.2,5.6c-0.6-0.2-1.4-0.4-2.2-0.6c-3.9-0.8-7.8-1.3-11.7-0.5
			c-2.5,0.5-6.8,1.1-8.1,3.6c-0.7,1.2-0.6,3.5,0.1,4.7c1.6,2.5,6.9,2.1,9.3,1.8c4.1-0.5,8.3-2,12.5-1.9l2.1,22.2
			c0,5.2,4.2,9.4,9.3,9.4h5.1c5.2,0,9.4-4.2,9.4-9.4l2.1-22.2c4.1-0.1,8.2,1.4,12.3,1.9c2.4,0.3,7.7,0.6,9.3-1.8
			c0.8-1.2,0.8-3.5,0.1-4.7c-1.4-2.5-5.6-3.1-8.1-3.6c-3.9-0.8-7.9-0.3-11.7,0.5c-0.8,0.2-1.4,0.3-2,0.5c-0.8-4.3-4.6-5.5-9.2-5.5
			H374.3z"/>
	</defs>
	<clipPath id="SVGID_64_">
		<use xlink:href="#SVGID_63_"  style="overflow:visible;"/>
	</clipPath>
	<path class="st70" d="M164.5,157.7c0,0-1.7,0.6-0.6,1.7"/>
	<path class="st70" d="M162.4,157.7c0,0,1.7,0.6,0.6,1.7"/>
</g>
<g>
	<defs>
		<rect id="SVGID_65_" width="544.8" height="423"/>
	</defs>
	<clipPath id="SVGID_66_">
		<use xlink:href="#SVGID_65_"  style="overflow:visible;"/>
	</clipPath>
	<path class="st71" d="M374.1,369.2c0,0.9-0.7,1.6-1.6,1.6c-0.9,0-1.6-0.7-1.6-1.6c0-0.9,0.7-1.6,1.6-1.6
		C373.4,367.6,374.1,368.3,374.1,369.2"/>
	<path class="st71" d="M386.3,369.2c0,0.9-0.7,1.6-1.6,1.6c-0.9,0-1.6-0.7-1.6-1.6c0-0.9,0.7-1.6,1.6-1.6
		C385.6,367.6,386.3,368.3,386.3,369.2"/>
	<path class="st72" d="M414.5,364.3c0.4-0.7,0.6-1.8,0.6-2.8c-2.1-1.4-5.9-2.3-10.2-2.3c-6.6,0-12,2.1-12,4.8c0,0.1,0.1,0.3,0.1,0.4
		v-0.2c4.1-0.1,8.2,1.4,12.3,1.9C407.7,366.4,412.9,366.8,414.5,364.3"/>
	<path class="st72" d="M343.2,364.3c-0.4-0.7-0.6-1.8-0.6-2.8c2.1-1.4,5.9-2.3,10.2-2.3c6.6,0,12,2.1,12,4.8c0,0.1-0.1,0.3-0.1,0.4
		v-0.2c-4.1-0.1-8.2,1.4-12.3,1.9C350,366.4,344.8,366.8,343.2,364.3"/>
	<path class="st73" d="M536.2,41.7c4.3-2,6.3-7,4.4-11.4c-1.6-3.7-5.4-5.7-9.1-5.2c1.9-3.3,1.4-7.6-1.4-10.4
		c-2.8-2.8-7.1-3.3-10.4-1.4c0.5-3.8-1.5-7.6-5.2-9.1c-4.4-1.9-9.5,0.1-11.4,4.4C503,3.8,499.1,0,494.3,0c-4.8,0-8.6,3.8-8.7,8.6
		c-2-4.3-7-6.3-11.4-4.4c-3.7,1.6-5.7,5.4-5.2,9.2c-3.3-1.9-7.6-1.4-10.4,1.4c-2.8,2.8-3.3,7.1-1.4,10.4c-3.8-0.5-7.6,1.5-9.1,5.2
		c-1.9,4.4,0.1,9.5,4.4,11.4c-4.8,0.1-8.6,3.9-8.6,8.7s3.8,8.6,8.6,8.7c-4.3,2-6.3,7-4.4,11.4c1.6,3.7,5.4,5.7,9.1,5.2
		c-1.9,3.3-1.4,7.6,1.4,10.4c2.8,2.8,7.1,3.3,10.4,1.4c-0.5,3.8,1.5,7.6,5.2,9.1c4.4,1.9,9.5-0.1,11.4-4.4c0.1,4.8,3.9,8.6,8.7,8.6
		c4.8,0,8.6-3.8,8.7-8.6c2,4.3,7,6.3,11.4,4.4c3.7-1.6,5.7-5.4,5.2-9.1c3.3,1.9,7.6,1.4,10.4-1.4c2.8-2.8,3.3-7.1,1.4-10.4
		c3.8,0.5,7.6-1.5,9.1-5.2c1.9-4.4-0.1-9.5-4.4-11.4c4.8-0.1,8.6-3.9,8.6-8.7C544.8,45.7,540.9,41.8,536.2,41.7"/>
	<path class="st74" d="M536.2,257c4.3-2,6.3-7,4.4-11.4c-1.6-3.7-5.4-5.7-9.1-5.2c1.9-3.3,1.4-7.6-1.4-10.4
		c-2.8-2.8-7.1-3.3-10.4-1.4c0.5-3.8-1.5-7.6-5.2-9.2c-4.4-1.9-9.5,0.1-11.4,4.4c-0.1-4.8-3.9-8.6-8.7-8.6c-4.8,0-8.6,3.8-8.7,8.6
		c-2-4.3-7-6.3-11.4-4.4c-3.7,1.6-5.7,5.4-5.2,9.2c-3.3-1.9-7.6-1.4-10.4,1.4c-2.8,2.8-3.3,7.1-1.4,10.4c-3.8-0.5-7.6,1.5-9.1,5.2
		c-1.9,4.4,0.1,9.5,4.4,11.4c-4.8,0.1-8.6,3.9-8.6,8.7c0,4.8,3.8,8.6,8.6,8.7c-4.3,2-6.3,7-4.4,11.4c1.6,3.7,5.4,5.7,9.1,5.2
		c-1.9,3.3-1.4,7.6,1.4,10.4c2.8,2.8,7.1,3.3,10.4,1.4c-0.5,3.8,1.5,7.6,5.2,9.2c4.4,1.9,9.5-0.1,11.4-4.4c0.1,4.8,3.9,8.6,8.7,8.6
		c4.8,0,8.6-3.8,8.7-8.6c2,4.3,7,6.3,11.4,4.4c3.7-1.6,5.7-5.4,5.2-9.2c3.3,1.9,7.6,1.4,10.4-1.4c2.8-2.8,3.3-7.1,1.4-10.4
		c3.8,0.5,7.6-1.5,9.1-5.2c1.9-4.4-0.1-9.5-4.4-11.4c4.8-0.1,8.6-3.9,8.6-8.7C544.8,260.9,540.9,257.1,536.2,257"/>
	<path class="st75" d="M536.2,148.6c4.3-2,6.3-7,4.4-11.4c-1.6-3.7-5.4-5.7-9.1-5.2c1.9-3.3,1.4-7.6-1.4-10.4
		c-2.8-2.8-7.1-3.3-10.4-1.4c0.5-3.8-1.5-7.6-5.2-9.1c-4.4-1.9-9.5,0.1-11.4,4.4c-0.1-4.8-3.9-8.6-8.7-8.6c-4.8,0-8.6,3.8-8.7,8.6
		c-2-4.3-7-6.3-11.4-4.4c-3.7,1.6-5.7,5.4-5.2,9.1c-3.3-1.9-7.6-1.4-10.4,1.4c-2.8,2.8-3.3,7.1-1.4,10.4c-3.8-0.5-7.6,1.5-9.1,5.2
		c-1.9,4.4,0.1,9.5,4.4,11.4c-4.8,0.1-8.6,3.9-8.6,8.7s3.8,8.6,8.6,8.7c-4.3,2-6.3,7-4.4,11.4c1.6,3.7,5.4,5.7,9.1,5.2
		c-1.9,3.3-1.4,7.6,1.4,10.4c2.8,2.8,7.1,3.3,10.4,1.4c-0.5,3.8,1.5,7.6,5.2,9.1c4.4,1.9,9.5-0.1,11.4-4.4c0.1,4.8,3.9,8.6,8.7,8.6
		c4.8,0,8.6-3.8,8.7-8.6c2,4.3,7,6.3,11.4,4.4c3.7-1.6,5.7-5.4,5.2-9.1c3.3,1.9,7.6,1.4,10.4-1.4c2.8-2.8,3.3-7.1,1.4-10.4
		c3.8,0.5,7.6-1.5,9.1-5.2c1.9-4.4-0.1-9.5-4.4-11.4c4.8-0.1,8.6-3.9,8.6-8.7C544.8,152.5,540.9,148.7,536.2,148.6"/>
	<path class="st76" d="M536.2,363.9c4.3-2,6.3-7,4.4-11.4c-1.6-3.7-5.4-5.7-9.1-5.2c1.9-3.3,1.4-7.6-1.4-10.4
		c-2.8-2.8-7.1-3.3-10.4-1.4c0.5-3.8-1.5-7.6-5.2-9.1c-4.4-1.9-9.5,0.1-11.4,4.4c-0.1-4.8-3.9-8.6-8.7-8.6c-4.8,0-8.6,3.8-8.7,8.6
		c-2-4.3-7-6.3-11.4-4.4c-3.7,1.6-5.7,5.4-5.2,9.1c-3.3-1.9-7.6-1.4-10.4,1.4c-2.8,2.8-3.3,7.1-1.4,10.4c-3.8-0.5-7.6,1.5-9.1,5.2
		c-1.9,4.4,0.1,9.5,4.4,11.4c-4.8,0.1-8.6,3.9-8.6,8.7s3.8,8.6,8.6,8.7c-4.3,2-6.3,7-4.4,11.4c1.6,3.7,5.4,5.7,9.1,5.2
		c-1.9,3.3-1.4,7.6,1.4,10.4c2.8,2.8,7.1,3.3,10.4,1.4c-0.5,3.8,1.5,7.6,5.2,9.1c4.4,1.9,9.5-0.1,11.4-4.4c0.1,4.8,3.9,8.6,8.7,8.6
		c4.8,0,8.6-3.8,8.7-8.6c2,4.3,7,6.3,11.4,4.4c3.7-1.6,5.7-5.4,5.2-9.1c3.3,1.9,7.6,1.4,10.4-1.4c2.8-2.8,3.3-7.1,1.4-10.4
		c3.8,0.5,7.6-1.5,9.1-5.2c1.9-4.4-0.1-9.5-4.4-11.4c4.8-0.1,8.6-3.9,8.6-8.7S540.9,363.9,536.2,363.9"/>
	<path class="st77" d="M530.1,37.5c-1.4-2.5-5.6-3.1-8.1-3.6c-3.9-0.8-7.9-0.3-11.7,0.5c-0.8,0.2-1.4,0.3-2,0.5
		c-0.8-4.3-4.6-5.5-9.2-5.5h-9.2c-4.6,0-8.4,1.2-9.2,5.6c-0.6-0.2-1.4-0.4-2.2-0.6c-3.9-0.8-7.8-1.3-11.7-0.5
		c-2.5,0.5-6.8,1.1-8.1,3.6c-0.7,1.2-0.6,3.5,0.1,4.7c1.6,2.5,6.9,2.1,9.3,1.8c4.1-0.5,8.3-2,12.5-1.9l2.1,22.2
		c0,5.2,4.2,9.3,9.3,9.3h5.1c5.2,0,9.4-4.2,9.4-9.3l2.1-22.2c4.1-0.1,8.2,1.4,12.3,1.9c2.4,0.3,7.7,0.6,9.3-1.8
		C530.7,41,530.8,38.7,530.1,37.5"/>
</g>
<g>
	<defs>
		<path id="SVGID_67_" d="M489.8,29.4c-4.6,0-8.4,1.2-9.2,5.6c-0.6-0.2-1.4-0.4-2.2-0.6c-3.9-0.8-7.8-1.3-11.7-0.5
			c-2.5,0.5-6.8,1.1-8.1,3.6c-0.7,1.2-0.6,3.5,0.1,4.7c1.6,2.5,6.9,2.1,9.3,1.8c4.1-0.5,8.3-2,12.5-1.9l2.1,22.2
			c0,5.2,4.2,9.3,9.3,9.3h5.1c5.2,0,9.4-4.2,9.4-9.3l2.1-22.2c4.1-0.1,8.2,1.4,12.3,1.9c2.4,0.3,7.7,0.6,9.3-1.8
			c0.8-1.2,0.8-3.5,0.1-4.7c-1.4-2.5-5.6-3.1-8.1-3.6c-3.9-0.8-7.9-0.3-11.7,0.5c-0.8,0.2-1.4,0.3-2,0.5c-0.8-4.3-4.6-5.5-9.2-5.5
			H489.8z"/>
	</defs>
	<clipPath id="SVGID_68_">
		<use xlink:href="#SVGID_67_"  style="overflow:visible;"/>
	</clipPath>
	<path class="st78" d="M433.7,55.8c0,0-1.7,0.6-0.6,1.7"/>
	<path class="st78" d="M431.5,55.8c0,0,1.7,0.6,0.6,1.7"/>
</g>
<g>
	<defs>
		<rect id="SVGID_69_" width="544.8" height="423"/>
	</defs>
	<clipPath id="SVGID_70_">
		<use xlink:href="#SVGID_69_"  style="overflow:visible;"/>
	</clipPath>
	<path class="st79" d="M489.6,47.1c0,0.9-0.7,1.6-1.6,1.6c-0.9,0-1.6-0.7-1.6-1.6c0-0.9,0.7-1.6,1.6-1.6
		C488.9,45.5,489.6,46.2,489.6,47.1"/>
	<path class="st79" d="M501.8,47.1c0,0.9-0.7,1.6-1.6,1.6c-0.9,0-1.6-0.7-1.6-1.6c0-0.9,0.7-1.6,1.6-1.6
		C501.1,45.5,501.8,46.2,501.8,47.1"/>
	<path class="st80" d="M530,42.2c0.4-0.7,0.6-1.8,0.6-2.8c-2.1-1.4-5.9-2.3-10.2-2.3c-6.6,0-12,2.1-12,4.8c0,0.1,0.1,0.3,0.1,0.4
		v-0.2c4.1-0.1,8.2,1.4,12.3,1.9C523.1,44.3,528.4,44.7,530,42.2"/>
	<path class="st80" d="M458.6,42.2c-0.4-0.7-0.6-1.8-0.6-2.8c2.1-1.4,5.9-2.3,10.2-2.3c6.6,0,12,2.1,12,4.8c0,0.1-0.1,0.3-0.1,0.4
		v-0.2c-4.1-0.1-8.2,1.4-12.3,1.9C465.5,44.3,460.2,44.7,458.6,42.2"/>
	<path class="st81" d="M530.1,252.8c-1.4-2.5-5.6-3.1-8.1-3.6c-3.9-0.8-7.9-0.3-11.7,0.5c-0.8,0.2-1.4,0.3-2,0.5
		c-0.8-4.3-4.6-5.5-9.2-5.5h-9.2c-4.6,0-8.4,1.2-9.2,5.6c-0.6-0.2-1.4-0.4-2.2-0.6c-3.9-0.8-7.8-1.3-11.7-0.5
		c-2.5,0.5-6.8,1.1-8.1,3.6c-0.7,1.2-0.6,3.5,0.1,4.7c1.6,2.5,6.9,2.1,9.3,1.8c4.1-0.5,8.3-2,12.5-1.9l2.1,22.2
		c0,5.2,4.2,9.3,9.3,9.3h5.1c5.2,0,9.4-4.2,9.4-9.3l2.1-22.2c4.1-0.1,8.2,1.4,12.3,1.9c2.4,0.3,7.7,0.6,9.3-1.8
		C530.7,256.3,530.8,254,530.1,252.8"/>
</g>
<g>
	<defs>
		<path id="SVGID_71_" d="M489.8,244.7c-4.6,0-8.4,1.2-9.2,5.6c-0.6-0.2-1.4-0.4-2.2-0.6c-3.9-0.8-7.8-1.3-11.7-0.5
			c-2.5,0.5-6.8,1.1-8.1,3.6c-0.7,1.2-0.6,3.5,0.1,4.7c1.6,2.5,6.9,2.1,9.3,1.8c4.1-0.5,8.3-2,12.5-1.9l2.1,22.2
			c0,5.2,4.2,9.4,9.3,9.4h5.1c5.2,0,9.4-4.2,9.4-9.4l2.1-22.2c4.1-0.1,8.2,1.4,12.3,1.9c2.4,0.3,7.7,0.6,9.3-1.8
			c0.8-1.2,0.8-3.5,0.1-4.7c-1.4-2.5-5.6-3.1-8.1-3.6c-3.9-0.8-7.9-0.3-11.7,0.5c-0.8,0.2-1.4,0.3-2,0.5c-0.8-4.3-4.6-5.5-9.2-5.5
			H489.8z"/>
	</defs>
	<clipPath id="SVGID_72_">
		<use xlink:href="#SVGID_71_"  style="overflow:visible;"/>
	</clipPath>
	<path class="st82" d="M433.7,123.9c0,0-1.7,0.6-0.6,1.7"/>
	<path class="st82" d="M431.5,123.9c0,0,1.7,0.6,0.6,1.7"/>
</g>
<g>
	<defs>
		<rect id="SVGID_73_" width="544.8" height="423"/>
	</defs>
	<clipPath id="SVGID_74_">
		<use xlink:href="#SVGID_73_"  style="overflow:visible;"/>
	</clipPath>
	<path class="st83" d="M489.6,262.3c0,0.9-0.7,1.6-1.6,1.6c-0.9,0-1.6-0.7-1.6-1.6c0-0.9,0.7-1.6,1.6-1.6
		C488.9,260.8,489.6,261.5,489.6,262.3"/>
	<path class="st83" d="M501.8,262.3c0,0.9-0.7,1.6-1.6,1.6c-0.9,0-1.6-0.7-1.6-1.6c0-0.9,0.7-1.6,1.6-1.6
		C501.1,260.8,501.8,261.5,501.8,262.3"/>
	<path class="st84" d="M530,257.5c0.4-0.7,0.6-1.8,0.6-2.8c-2.1-1.4-5.9-2.3-10.2-2.3c-6.6,0-12,2.1-12,4.8c0,0.1,0.1,0.3,0.1,0.4
		v-0.2c4.1-0.1,8.2,1.4,12.3,1.9C523.1,259.6,528.4,259.9,530,257.5"/>
	<path class="st84" d="M458.6,257.5c-0.4-0.7-0.6-1.8-0.6-2.8c2.1-1.4,5.9-2.3,10.2-2.3c6.6,0,12,2.1,12,4.8c0,0.1-0.1,0.3-0.1,0.4
		v-0.2c-4.1-0.1-8.2,1.4-12.3,1.9C465.5,259.6,460.2,259.9,458.6,257.5"/>
	<path class="st85" d="M530.1,144.4c-1.4-2.5-5.6-3.1-8.1-3.6c-3.9-0.8-7.9-0.3-11.7,0.5c-0.8,0.2-1.4,0.3-2,0.5
		c-0.8-4.3-4.6-5.5-9.2-5.5h-9.2c-4.6,0-8.4,1.2-9.2,5.6c-0.6-0.2-1.4-0.4-2.2-0.6c-3.9-0.8-7.8-1.3-11.7-0.5
		c-2.5,0.5-6.8,1.1-8.1,3.6c-0.7,1.2-0.6,3.5,0.1,4.7c1.6,2.5,6.9,2.1,9.3,1.8c4.1-0.5,8.3-2,12.5-1.9l2.1,22.2
		c0,5.2,4.2,9.3,9.3,9.3h5.1c5.2,0,9.4-4.2,9.4-9.3l2.1-22.2c4.1-0.1,8.2,1.4,12.3,1.9c2.4,0.3,7.7,0.6,9.3-1.8
		C530.7,147.9,530.8,145.6,530.1,144.4"/>
</g>
<g>
	<defs>
		<path id="SVGID_75_" d="M489.8,136.2c-4.6,0-8.4,1.2-9.2,5.6c-0.6-0.2-1.4-0.4-2.2-0.6c-3.9-0.8-7.8-1.3-11.7-0.5
			c-2.5,0.5-6.8,1.1-8.1,3.6c-0.7,1.2-0.6,3.5,0.1,4.7c1.6,2.5,6.9,2.1,9.3,1.8c4.1-0.5,8.3-2,12.5-1.9l2.1,22.2
			c0,5.2,4.2,9.4,9.3,9.4h5.1c5.2,0,9.4-4.2,9.4-9.4l2.1-22.2c4.1-0.1,8.2,1.4,12.3,1.9c2.4,0.3,7.7,0.6,9.3-1.8
			c0.8-1.2,0.8-3.5,0.1-4.7c-1.4-2.5-5.6-3.1-8.1-3.6c-3.9-0.8-7.9-0.3-11.7,0.5c-0.8,0.2-1.4,0.3-2,0.5c-0.8-4.3-4.6-5.5-9.2-5.5
			H489.8z"/>
	</defs>
	<clipPath id="SVGID_76_">
		<use xlink:href="#SVGID_75_"  style="overflow:visible;"/>
	</clipPath>
	<path class="st86" d="M433.7,89.6c0,0-1.7,0.6-0.6,1.7"/>
	<path class="st86" d="M431.5,89.6c0,0,1.7,0.6,0.6,1.7"/>
</g>
<g>
	<defs>
		<rect id="SVGID_77_" width="544.8" height="423"/>
	</defs>
	<clipPath id="SVGID_78_">
		<use xlink:href="#SVGID_77_"  style="overflow:visible;"/>
	</clipPath>
	<path class="st87" d="M489.6,153.9c0,0.9-0.7,1.6-1.6,1.6c-0.9,0-1.6-0.7-1.6-1.6c0-0.9,0.7-1.6,1.6-1.6
		C488.9,152.3,489.6,153.1,489.6,153.9"/>
	<path class="st87" d="M501.8,153.9c0,0.9-0.7,1.6-1.6,1.6c-0.9,0-1.6-0.7-1.6-1.6c0-0.9,0.7-1.6,1.6-1.6
		C501.1,152.3,501.8,153.1,501.8,153.9"/>
	<path class="st88" d="M530,149c0.4-0.7,0.6-1.8,0.6-2.8c-2.1-1.4-5.9-2.3-10.2-2.3c-6.6,0-12,2.1-12,4.8c0,0.1,0.1,0.3,0.1,0.4V149
		c4.1-0.1,8.2,1.4,12.3,1.9C523.1,151.2,528.4,151.5,530,149"/>
	<path class="st88" d="M458.6,149c-0.4-0.7-0.6-1.8-0.6-2.8c2.1-1.4,5.9-2.3,10.2-2.3c6.6,0,12,2.1,12,4.8c0,0.1-0.1,0.3-0.1,0.4
		V149c-4.1-0.1-8.2,1.4-12.3,1.9C465.5,151.2,460.2,151.5,458.6,149"/>
	<path class="st89" d="M530.1,359.6c-1.4-2.5-5.6-3.1-8.1-3.6c-3.9-0.8-7.9-0.3-11.7,0.5c-0.8,0.2-1.4,0.3-2,0.5
		c-0.8-4.3-4.6-5.5-9.2-5.5h-9.2c-4.6,0-8.4,1.2-9.2,5.6c-0.6-0.2-1.4-0.4-2.2-0.6c-3.9-0.8-7.8-1.3-11.7-0.5
		c-2.5,0.5-6.8,1.1-8.1,3.6c-0.7,1.2-0.6,3.5,0.1,4.7c1.6,2.5,6.9,2.1,9.3,1.8c4.1-0.5,8.3-2,12.5-1.9l2.1,22.2
		c0,5.2,4.2,9.3,9.3,9.3h5.1c5.2,0,9.4-4.2,9.4-9.3l2.1-22.2c4.1-0.1,8.2,1.4,12.3,1.9c2.4,0.3,7.7,0.6,9.3-1.8
		C530.7,363.1,530.8,360.9,530.1,359.6"/>
</g>
<g>
	<defs>
		<path id="SVGID_79_" d="M489.8,351.5c-4.6,0-8.4,1.2-9.2,5.6c-0.6-0.2-1.4-0.4-2.2-0.6c-3.9-0.8-7.8-1.3-11.7-0.5
			c-2.5,0.5-6.8,1.1-8.1,3.6c-0.7,1.2-0.6,3.5,0.1,4.7c1.6,2.5,6.9,2.1,9.3,1.8c4.1-0.5,8.3-2,12.5-1.9l2.1,22.2
			c0,5.2,4.2,9.4,9.3,9.4h5.1c5.2,0,9.4-4.2,9.4-9.4l2.1-22.2c4.1-0.1,8.2,1.4,12.3,1.9c2.4,0.3,7.7,0.6,9.3-1.8
			c0.8-1.2,0.8-3.5,0.1-4.7c-1.4-2.5-5.6-3.1-8.1-3.6c-3.9-0.8-7.9-0.3-11.7,0.5c-0.8,0.2-1.4,0.3-2,0.5c-0.8-4.3-4.6-5.5-9.2-5.5
			H489.8z"/>
	</defs>
	<clipPath id="SVGID_80_">
		<use xlink:href="#SVGID_79_"  style="overflow:visible;"/>
	</clipPath>
	<path class="st90" d="M433.7,157.7c0,0-1.7,0.6-0.6,1.7"/>
	<path class="st90" d="M431.5,157.7c0,0,1.7,0.6,0.6,1.7"/>
</g>
<g>
	<defs>
		<rect id="SVGID_81_" width="544.8" height="423"/>
	</defs>
	<clipPath id="SVGID_82_">
		<use xlink:href="#SVGID_81_"  style="overflow:visible;"/>
	</clipPath>
	<path class="st91" d="M489.6,369.2c0,0.9-0.7,1.6-1.6,1.6c-0.9,0-1.6-0.7-1.6-1.6c0-0.9,0.7-1.6,1.6-1.6
		C488.9,367.6,489.6,368.3,489.6,369.2"/>
	<path class="st91" d="M501.8,369.2c0,0.9-0.7,1.6-1.6,1.6c-0.9,0-1.6-0.7-1.6-1.6c0-0.9,0.7-1.6,1.6-1.6
		C501.1,367.6,501.8,368.3,501.8,369.2"/>
	<path class="st92" d="M530,364.3c0.4-0.7,0.6-1.8,0.6-2.8c-2.1-1.4-5.9-2.3-10.2-2.3c-6.6,0-12,2.1-12,4.8c0,0.1,0.1,0.3,0.1,0.4
		v-0.2c4.1-0.1,8.2,1.4,12.3,1.9C523.1,366.4,528.4,366.8,530,364.3"/>
	<path class="st92" d="M458.6,364.3c-0.4-0.7-0.6-1.8-0.6-2.8c2.1-1.4,5.9-2.3,10.2-2.3c6.6,0,12,2.1,12,4.8c0,0.1-0.1,0.3-0.1,0.4
		v-0.2c-4.1-0.1-8.2,1.4-12.3,1.9C465.5,366.4,460.2,366.8,458.6,364.3"/>
</g>
</svg>
