<?xml version="1.0" encoding="utf-8"?>
<!-- Generator: Adobe Illustrator 19.0.0, SVG Export Plug-In . SVG Version: 6.00 Build 0)  -->
<svg version="1.1" id="Layer_1" xmlns="http://www.w3.org/2000/svg" xmlns:xlink="http://www.w3.org/1999/xlink" x="0px" y="0px"
	 viewBox="0 0 128 128" style="enable-background:new 0 0 128 128;" xml:space="preserve">
<style type="text/css">
	.st0{clip-path:url(#XMLID_28_);fill:#F89521;}
	.st1{clip-path:url(#XMLID_28_);fill:#99BCE4;}
	.st2{clip-path:url(#XMLID_28_);fill:#EC1C59;}
	.st3{clip-path:url(#XMLID_28_);fill:#FFFFFF;}
	.st4{clip-path:url(#XMLID_28_);}
	.st5{clip-path:url(#XMLID_28_);fill:#FCDAD8;}
	.st6{clip-path:url(#XMLID_28_);fill:#604A9E;}
</style>
<g id="XMLID_2_">
	<defs>
		<rect id="XMLID_3_" width="128" height="128"/>
	</defs>
	<clipPath id="XMLID_28_">
		<use xlink:href="#XMLID_3_"  style="overflow:visible;"/>
	</clipPath>
	<path id="XMLID_27_" class="st0" d="M122.8,25.7c2.6-1.2,3.8-4.3,2.7-7c-1-2.3-3.2-3.5-5.5-3.2c1.1-2,0.8-4.7-0.9-6.4
		c-1.7-1.7-4.3-2-6.3-0.9c0.3-2.3-0.9-4.7-3.1-5.6c-2.6-1.2-5.7,0-6.9,2.7c0-2.9-2.4-5.3-5.2-5.3c-2.9,0-5.2,2.4-5.2,5.3
		c-1.2-2.7-4.2-3.9-6.9-2.7c-2.2,1-3.4,3.3-3.1,5.6c-2-1.1-4.6-0.8-6.3,0.9c-1.7,1.7-2,4.4-0.9,6.4c-2.3-0.3-4.6,0.9-5.5,3.2
		c-1.1,2.7,0,5.8,2.7,7c-2.9,0-5.2,2.4-5.2,5.4c0,2.9,2.3,5.3,5.2,5.4c-2.6,1.2-3.8,4.3-2.7,7c1,2.3,3.2,3.5,5.5,3.2
		c-1.1,2-0.8,4.7,0.9,6.4c1.7,1.7,4.3,2,6.3,0.9c-0.3,2.3,0.9,4.7,3.1,5.6c2.6,1.2,5.7,0,6.9-2.7c0,2.9,2.4,5.3,5.2,5.3
		c2.9,0,5.2-2.4,5.2-5.3c1.2,2.7,4.2,3.9,6.9,2.7c2.2-1,3.4-3.3,3.1-5.6c2,1.1,4.6,0.8,6.3-0.9c1.7-1.7,2-4.4,0.9-6.4
		c2.3,0.3,4.6-0.9,5.5-3.2c1.1-2.7,0-5.8-2.7-7c2.9,0,5.2-2.4,5.2-5.4C128,28.1,125.7,25.8,122.8,25.7"/>
	<path id="XMLID_26_" class="st1" d="M122.8,91.6c2.6-1.2,3.8-4.3,2.7-7c-1-2.3-3.2-3.5-5.5-3.2c1.1-2,0.8-4.7-0.9-6.4
		c-1.7-1.7-4.3-2-6.3-0.9c0.3-2.3-0.9-4.7-3.1-5.6c-2.6-1.2-5.7,0-6.9,2.7c0-2.9-2.4-5.3-5.2-5.3c-2.9,0-5.2,2.4-5.2,5.3
		c-1.2-2.7-4.2-3.9-6.9-2.7c-2.2,1-3.4,3.3-3.1,5.6c-2-1.1-4.6-0.8-6.3,0.9c-1.7,1.7-2,4.4-0.9,6.4c-2.3-0.3-4.6,0.9-5.5,3.2
		c-1.1,2.7,0,5.8,2.7,7c-2.9,0-5.2,2.4-5.2,5.4c0,2.9,2.3,5.3,5.2,5.4c-2.6,1.2-3.8,4.3-2.7,7c1,2.3,3.2,3.5,5.5,3.2
		c-1.1,2-0.8,4.7,0.9,6.4c1.7,1.7,4.3,2,6.3,0.9c-0.3,2.3,0.9,4.7,3.1,5.6c2.6,1.2,5.7,0,6.9-2.7c0,2.9,2.4,5.3,5.2,5.3
		c2.9,0,5.2-2.4,5.2-5.3c1.2,2.7,4.2,3.9,6.9,2.7c2.2-1,3.4-3.3,3.1-5.6c2,1.1,4.6,0.8,6.3-0.9c1.7-1.7,2-4.4,0.9-6.4
		c2.3,0.3,4.6-0.9,5.5-3.2c1.1-2.7,0-5.8-2.7-7c2.9,0,5.2-2.4,5.2-5.4C128,94,125.7,91.6,122.8,91.6"/>
	<path id="XMLID_25_" class="st2" d="M55.6,25.7c2.6-1.2,3.8-4.3,2.7-7c-1-2.3-3.2-3.5-5.5-3.2c1.1-2,0.8-4.7-0.9-6.4
		c-1.7-1.7-4.3-2-6.3-0.9c0.3-2.3-0.9-4.7-3.1-5.6c-2.6-1.2-5.7,0-6.9,2.7c0-2.9-2.4-5.3-5.2-5.3c-2.9,0-5.2,2.4-5.2,5.3
		c-1.2-2.7-4.2-3.9-6.9-2.7c-2.2,1-3.4,3.3-3.1,5.6c-2-1.1-4.6-0.8-6.3,0.9s-2,4.4-0.9,6.4c-2.3-0.3-4.6,0.9-5.5,3.2
		c-1.1,2.7,0,5.8,2.7,7c-2.9,0-5.2,2.4-5.2,5.4c0,2.9,2.3,5.3,5.2,5.4c-2.6,1.2-3.8,4.3-2.7,7c1,2.3,3.2,3.5,5.5,3.2
		c-1.1,2-0.8,4.7,0.9,6.4s4.3,2,6.3,0.9c-0.3,2.3,0.9,4.7,3.1,5.6c2.6,1.2,5.7,0,6.9-2.7c0,2.9,2.4,5.3,5.2,5.3
		c2.9,0,5.2-2.4,5.2-5.3c1.2,2.7,4.2,3.9,6.9,2.7c2.2-1,3.4-3.3,3.1-5.6c2,1.1,4.6,0.8,6.3-0.9c1.7-1.7,2-4.4,0.9-6.4
		c2.3,0.3,4.6-0.9,5.5-3.2c1.1-2.7,0-5.8-2.7-7c2.9,0,5.2-2.4,5.2-5.4C60.8,28.1,58.5,25.8,55.6,25.7"/>
	<path id="XMLID_24_" class="st3" d="M119.2,23.1c-0.8-1.5-3.4-1.9-4.9-2.2c-2.4-0.5-4.7-0.2-7.1,0.3c-0.5,0.1-0.9,0.2-1.2,0.3
		c-0.5-2.7-2.8-3.4-5.5-3.4h-5.6c-2.8,0-5.1,0.8-5.5,3.5c-0.4-0.1-0.8-0.3-1.3-0.4c-2.3-0.5-4.7-0.8-7.1-0.3
		c-1.5,0.3-4.1,0.7-4.9,2.2c-0.4,0.7-0.4,2.1,0.1,2.9c1,1.5,4.1,1.3,5.6,1.1c2.5-0.3,5-1.3,7.5-1.2l1.3,13.7c0,3.2,2.5,5.8,5.6,5.8
		h3.1c3.1,0,5.6-2.6,5.6-5.8l1.3-13.7c2.5-0.1,5,0.9,7.4,1.2c1.5,0.2,4.7,0.4,5.6-1.1C119.5,25.3,119.6,23.9,119.2,23.1"/>
	<path id="XMLID_23_" class="st4" d="M94.7,29c0,0.5-0.4,1-0.9,1c-0.5,0-0.9-0.4-0.9-1c0-0.5,0.4-1,0.9-1C94.3,28,94.7,28.5,94.7,29
		"/>
	<path id="XMLID_22_" class="st4" d="M102.1,29c0,0.5-0.4,1-0.9,1c-0.5,0-0.9-0.4-0.9-1c0-0.5,0.4-1,0.9-1
		C101.7,28,102.1,28.5,102.1,29"/>
	<path id="XMLID_21_" class="st5" d="M119.1,26c0.3-0.4,0.4-1.1,0.3-1.7c-1.3-0.8-3.6-1.4-6.2-1.4c-4,0-7.3,1.3-7.3,2.9
		c0,0.1,0,0.2,0.1,0.3V26c2.5-0.1,5,0.9,7.4,1.2C114.9,27.3,118.1,27.5,119.1,26"/>
	<path id="XMLID_20_" class="st5" d="M76.1,26c-0.3-0.4-0.4-1.1-0.3-1.7c1.3-0.8,3.6-1.4,6.2-1.4c4,0,7.3,1.3,7.3,2.9
		c0,0.1,0,0.2-0.1,0.3V26c-2.5-0.1-5,0.9-7.4,1.2C80.2,27.3,77,27.5,76.1,26"/>
	<path id="XMLID_19_" class="st3" d="M119.2,89c-0.8-1.5-3.4-1.9-4.9-2.2c-2.4-0.5-4.7-0.2-7.1,0.3c-0.5,0.1-0.9,0.2-1.2,0.3
		c-0.5-2.7-2.8-3.4-5.5-3.4h-5.6c-2.8,0-5.1,0.8-5.5,3.5c-0.4-0.1-0.8-0.3-1.3-0.4c-2.3-0.5-4.7-0.8-7.1-0.3
		C79.4,87,76.8,87.4,76,89c-0.4,0.7-0.4,2.1,0.1,2.9c1,1.5,4.1,1.3,5.6,1.1c2.5-0.3,5-1.3,7.5-1.2l1.3,13.7c0,3.2,2.5,5.8,5.6,5.8
		h3.1c3.1,0,5.6-2.6,5.6-5.8l1.3-13.7c2.5-0.1,5,0.9,7.4,1.2c1.5,0.2,4.7,0.4,5.6-1.1C119.5,91.1,119.6,89.7,119.2,89"/>
	<path id="XMLID_18_" class="st4" d="M94.7,94.8c0,0.5-0.4,1-0.9,1c-0.5,0-0.9-0.4-0.9-1c0-0.5,0.4-1,0.9-1
		C94.3,93.9,94.7,94.3,94.7,94.8"/>
	<path id="XMLID_17_" class="st4" d="M102.1,94.8c0,0.5-0.4,1-0.9,1c-0.5,0-0.9-0.4-0.9-1c0-0.5,0.4-1,0.9-1
		C101.7,93.9,102.1,94.3,102.1,94.8"/>
	<path id="XMLID_16_" class="st5" d="M119.1,91.8c0.3-0.4,0.4-1.1,0.3-1.7c-1.3-0.8-3.6-1.4-6.2-1.4c-4,0-7.3,1.3-7.3,2.9
		c0,0.1,0,0.2,0.1,0.3v-0.1c2.5-0.1,5,0.9,7.4,1.2C114.9,93.2,118.1,93.4,119.1,91.8"/>
	<path id="XMLID_15_" class="st5" d="M76.1,91.8c-0.3-0.4-0.4-1.1-0.3-1.7c1.3-0.8,3.6-1.4,6.2-1.4c4,0,7.3,1.3,7.3,2.9
		c0,0.1,0,0.2-0.1,0.3v-0.1c-2.5-0.1-5,0.9-7.4,1.2C80.2,93.2,77,93.4,76.1,91.8"/>
	<path id="XMLID_14_" class="st3" d="M52,23.1c-0.8-1.5-3.4-1.9-4.9-2.2c-2.4-0.5-4.7-0.2-7.1,0.3c-0.5,0.1-0.9,0.2-1.2,0.3
		c-0.5-2.7-2.8-3.4-5.5-3.4h-5.6c-2.8,0-5.1,0.8-5.5,3.5c-0.4-0.1-0.8-0.3-1.3-0.4c-2.3-0.5-4.7-0.8-7.1-0.3
		c-1.5,0.3-4.1,0.7-4.9,2.2c-0.4,0.7-0.4,2.1,0.1,2.9c1,1.5,4.1,1.3,5.6,1.1c2.5-0.3,5-1.3,7.5-1.2l1.3,13.7c0,3.2,2.5,5.8,5.6,5.8
		H32c3.1,0,5.6-2.6,5.6-5.8L38.9,26c2.5-0.1,5,0.9,7.4,1.2c1.5,0.2,4.7,0.4,5.6-1.1C52.4,25.3,52.4,23.9,52,23.1"/>
	<path id="XMLID_13_" class="st4" d="M27.6,29c0,0.5-0.4,1-0.9,1c-0.5,0-0.9-0.4-0.9-1c0-0.5,0.4-1,0.9-1C27.1,28,27.6,28.5,27.6,29
		"/>
	<path id="XMLID_12_" class="st4" d="M34.9,29c0,0.5-0.4,1-0.9,1c-0.5,0-0.9-0.4-0.9-1c0-0.5,0.4-1,0.9-1C34.5,28,34.9,28.5,34.9,29
		"/>
	<path id="XMLID_11_" class="st5" d="M51.9,26c0.3-0.4,0.4-1.1,0.3-1.7c-1.3-0.8-3.6-1.4-6.2-1.4c-4,0-7.3,1.3-7.3,2.9
		c0,0.1,0,0.2,0.1,0.3V26c2.5-0.1,5,0.9,7.4,1.2C47.8,27.3,51,27.5,51.9,26"/>
	<path id="XMLID_10_" class="st5" d="M8.9,26c-0.3-0.4-0.4-1.1-0.3-1.7c1.3-0.8,3.6-1.4,6.2-1.4c4,0,7.3,1.3,7.3,2.9
		c0,0.1,0,0.2-0.1,0.3V26c-2.5-0.1-5,0.9-7.4,1.2C13,27.3,9.9,27.5,8.9,26"/>
	<path id="XMLID_9_" class="st6" d="M55.6,91.6c2.6-1.2,3.8-4.3,2.7-7c-1-2.3-3.2-3.5-5.5-3.2c1.1-2,0.8-4.7-0.9-6.4
		c-1.7-1.7-4.3-2-6.3-0.9c0.3-2.3-0.9-4.7-3.1-5.6c-2.6-1.2-5.7,0-6.9,2.7c0-2.9-2.4-5.3-5.2-5.3c-2.9,0-5.2,2.4-5.2,5.3
		c-1.2-2.7-4.2-3.9-6.9-2.7c-2.2,1-3.4,3.3-3.1,5.6c-2-1.1-4.6-0.8-6.3,0.9s-2,4.4-0.9,6.4c-2.3-0.3-4.6,0.9-5.5,3.2
		c-1.1,2.7,0,5.8,2.7,7C2.3,91.6,0,94,0,96.9c0,2.9,2.3,5.3,5.2,5.4c-2.6,1.2-3.8,4.3-2.7,7c1,2.3,3.2,3.5,5.5,3.2
		c-1.1,2-0.8,4.7,0.9,6.4s4.3,2,6.3,0.9c-0.3,2.3,0.9,4.7,3.1,5.6c2.6,1.2,5.7,0,6.9-2.7c0,2.9,2.4,5.3,5.2,5.3
		c2.9,0,5.2-2.4,5.2-5.3c1.2,2.7,4.2,3.9,6.9,2.7c2.2-1,3.4-3.3,3.1-5.6c2,1.1,4.6,0.8,6.3-0.9c1.7-1.7,2-4.4,0.9-6.4
		c2.3,0.3,4.6-0.9,5.5-3.2c1.1-2.7,0-5.8-2.7-7c2.9,0,5.2-2.4,5.2-5.4C60.8,94,58.5,91.6,55.6,91.6"/>
	<path id="XMLID_8_" class="st3" d="M52,89c-0.8-1.5-3.4-1.9-4.9-2.2c-2.4-0.5-4.7-0.2-7.1,0.3c-0.5,0.1-0.9,0.2-1.2,0.3
		c-0.5-2.7-2.8-3.4-5.5-3.4h-5.6c-2.8,0-5.1,0.8-5.5,3.5c-0.4-0.1-0.8-0.3-1.3-0.4c-2.3-0.5-4.7-0.8-7.1-0.3
		C12.2,87,9.7,87.4,8.8,89c-0.4,0.7-0.4,2.1,0.1,2.9c1,1.5,4.1,1.3,5.6,1.1c2.5-0.3,5-1.3,7.5-1.2l1.3,13.7c0,3.2,2.5,5.8,5.6,5.8
		H32c3.1,0,5.6-2.6,5.6-5.8l1.3-13.7c2.5-0.1,5,0.9,7.4,1.2c1.5,0.2,4.7,0.4,5.6-1.1C52.4,91.1,52.4,89.7,52,89"/>
	<path id="XMLID_7_" class="st4" d="M27.6,94.8c0,0.5-0.4,1-0.9,1c-0.5,0-0.9-0.4-0.9-1c0-0.5,0.4-1,0.9-1
		C27.1,93.9,27.6,94.3,27.6,94.8"/>
	<path id="XMLID_6_" class="st4" d="M34.9,94.8c0,0.5-0.4,1-0.9,1c-0.5,0-0.9-0.4-0.9-1c0-0.5,0.4-1,0.9-1
		C34.5,93.9,34.9,94.3,34.9,94.8"/>
	<path id="XMLID_5_" class="st5" d="M51.9,91.8c0.3-0.4,0.4-1.1,0.3-1.7c-1.3-0.8-3.6-1.4-6.2-1.4c-4,0-7.3,1.3-7.3,2.9
		c0,0.1,0,0.2,0.1,0.3v-0.1c2.5-0.1,5,0.9,7.4,1.2C47.8,93.2,51,93.4,51.9,91.8"/>
	<path id="XMLID_4_" class="st5" d="M8.9,91.8c-0.3-0.4-0.4-1.1-0.3-1.7c1.3-0.8,3.6-1.4,6.2-1.4c4,0,7.3,1.3,7.3,2.9
		c0,0.1,0,0.2-0.1,0.3v-0.1c-2.5-0.1-5,0.9-7.4,1.2C13,93.2,9.9,93.4,8.9,91.8"/>
</g>
</svg>
