<?xml version="1.0" encoding="utf-8"?>
<!-- Generator: Adobe Illustrator 19.0.0, SVG Export Plug-In . SVG Version: 6.00 Build 0)  -->
<svg version="1.1" id="Layer_1" xmlns="http://www.w3.org/2000/svg" xmlns:xlink="http://www.w3.org/1999/xlink" x="0px" y="0px"
	 viewBox="115 -114 357 357" style="enable-background:new 115 -114 357 357;" xml:space="preserve">
<style type="text/css">
	.st0{clip-path:url(#SVGID_2_);fill:#FFFFFF;}
</style>
<g>
	<defs>
		<rect id="SVGID_1_" x="115" y="-45.2" width="357.8" height="218.2"/>
	</defs>
	<clipPath id="SVGID_2_">
		<use xlink:href="#SVGID_1_"  style="overflow:visible;"/>
	</clipPath>
	<path class="st0" d="M442.7,24.1h14.7c4.1,0,7.8,1.4,10.6,3.6c3,2.4,4.9,5.8,4.9,9.7h0v107.9h0c0,3.8-1.9,7.3-4.9,9.7
		c-1.3,1.1-2.9,1.9-4.5,2.5l-1.9,11.9c-0.3,2-2.1,3.5-4.1,3.5v0h-21.3c-2.2,0-4-1.7-4.1-3.9l-1.8-11.4c-1.9-0.6-3.6-1.6-5-2.7
		c-3-2.4-4.9-5.9-4.9-9.7v-0.7H167.6v0.7c0,3.8-1.9,7.2-4.9,9.7c-1.4,1.2-3.2,2.1-5,2.7l-1.8,11.8c-0.3,2-2.1,3.5-4.1,3.5v0h-21.3
		c-2.2,0-4-1.7-4.1-3.9l-1.8-11.6c-1.7-0.6-3.2-1.5-4.5-2.5c-3-2.4-4.9-5.9-4.9-9.7V37.4c0-7.3,7-13.3,15.5-13.3h14.7v-44.9h0
		c0-6.7,2.8-12.8,7.2-17.3c4.4-4.4,10.5-7.2,17.3-7.2h248.7c6.7,0,12.8,2.8,17.3,7.2c4.4,4.4,7.2,10.5,7.2,17.3h0V24.1z M153.4,24.1
		c3.6,0.3,6.8,1.6,9.2,3.6c1.8,1.4,3.2,3.2,4,5.3c0.6,1.4,0.9,2.9,0.9,4.4v16.4h122.2v-90.7H169.6c-4.4,0-8.5,1.8-11.4,4.7
		c-2.9,2.9-4.7,7-4.7,11.4h0V24.1z M298.1,53.8h122.2V37.4c0-1.5,0.3-2.9,0.8-4.3c0.8-2.1,2.2-3.9,4.1-5.4c1.6-1.3,3.5-2.3,5.6-2.9
		l0.1,0l0.3-0.1l0,0l0,0l0,0l0.2,0l0.2-0.1l0,0l0.3-0.1l0.2,0l0.1,0l0.1,0l0.2,0l0.2,0h0l0.1,0h0l0.2,0h0l0.3,0l0,0
		c0.2,0,0.4-0.1,0.6-0.1l0,0c0.2,0,0.3,0,0.5,0v-44.9h0c0-4.4-1.8-8.5-4.7-11.4c-2.9-2.9-7-4.7-11.4-4.7H298.1V53.8z M157.8,62.1
		c-0.6,0-1.2,0.3-1.6,0.7c-0.4,0.5-0.7,1.1-0.7,1.8v30.5c0,0.7,0.3,1.4,0.7,1.8c0.4,0.4,1,0.7,1.6,0.7h278.1c0.6,0,1.2-0.3,1.6-0.7
		c0.4-0.5,0.7-1.1,0.7-1.8V64.6c0-0.7-0.3-1.4-0.7-1.8c-0.4-0.4-1-0.7-1.6-0.7h-11.5h-261H157.8z M149.1,158.6H133l0.9,6.1h14.3
		L149.1,158.6z M454.9,158.6h-16.2l0.9,6.1h14.3L454.9,158.6z M457.3,32.4h-18.8h-2.8h-0.2h0h0l-0.2,0h0l0,0c-0.1,0-0.2,0-0.3,0
		l-0.1,0l-0.1,0c-1.8,0.2-3.4,0.8-4.5,1.7c-0.8,0.6-1.3,1.3-1.6,2.1c-0.1,0.4-0.2,0.7-0.2,1.1v16.4h7.3c2.9,0,5.6,1.2,7.6,3.2
		c1.9,2,3.1,4.6,3.1,7.6v30.5c0,2.9-1.2,5.6-3.1,7.6c-1.9,2-4.6,3.2-7.6,3.2H157.8c-2.9,0-5.6-1.2-7.6-3.2c-1.9-2-3.1-4.6-3.1-7.6
		V64.6c0-2.9,1.2-5.6,3.1-7.6c1.9-2,4.6-3.2,7.6-3.2h1.4V37.4c0-0.4-0.1-0.7-0.2-1.1c-0.3-0.8-0.8-1.5-1.6-2.1
		c-1.2-0.9-2.7-1.6-4.5-1.7l-0.1,0l-0.1,0c-0.1,0-0.2,0-0.3,0l0,0h0l-0.2,0h0h0h-0.2h-2.8h-18.8c-3.9,0-7.2,2.2-7.2,5v107.9
		c0,1.2,0.7,2.3,1.8,3.2c1.3,1.1,3.1,1.7,5.2,1.8h22c2.1,0,3.9-0.7,5.2-1.8c1.1-0.9,1.8-2,1.8-3.2v-4.9c0-2.3,1.9-4.2,4.2-4.2h261
		c2.3,0,4.2,1.9,4.2,4.2v4.9c0,1.2,0.7,2.3,1.8,3.2c1.3,1.1,3.1,1.7,5.2,1.8h22c2.1,0,3.9-0.7,5.2-1.8c1.1-0.9,1.8-2,1.8-3.2h0V37.4
		h0c0-1.2-0.7-2.3-1.8-3.2C461.4,33.1,459.5,32.4,457.3,32.4"/>
</g>
</svg>
