<?xml version="1.0" encoding="utf-8"?>
<!-- Generator: Adobe Illustrator 19.0.0, SVG Export Plug-In . SVG Version: 6.00 Build 0)  -->
<svg version="1.1" id="Layer_1" xmlns="http://www.w3.org/2000/svg" xmlns:xlink="http://www.w3.org/1999/xlink" x="0px" y="0px"
	 viewBox="0 0 98 98" style="enable-background:new 0 0 98 98;" xml:space="preserve">
<style type="text/css">
	.st0{clip-path:url(#XMLID_3_);fill:none;stroke:#3F4043;stroke-width:3.2797;stroke-linecap:round;stroke-linejoin:round;}
	.st1{fill:none;stroke:#EC1C59;stroke-width:1.7964;stroke-linecap:round;stroke-linejoin:round;stroke-miterlimit:10;}
	.st2{fill:#FFFFFF;}
</style>
<g id="XMLID_59_">
	<defs>
		<rect id="XMLID_60_" x="1" y="-0.2" width="83.4" height="98.2"/>
	</defs>
	<clipPath id="XMLID_3_">
		<use xlink:href="#XMLID_60_"  style="overflow:visible;"/>
	</clipPath>
	<path id="XMLID_61_" class="st0" d="M73.2,82.6c1.6,3.8-0.2,8.2-4,9.8c-3.8,1.6-8.2-0.1-9.9-3.8c-0.2-0.3-0.5-0.5-0.9-0.5
		c-0.4,0.1-0.6,0.4-0.6,0.8c-0.1,4.1-3.4,7.4-7.6,7.4c-3.4,0-6.3-2.3-7.3-5.5c-0.1-0.3-0.3-0.5-0.6-0.6s-0.6,0.1-0.8,0.3
		c-2,2.7-5.6,3.7-8.8,2.4c-3.1-1.2-5.1-4.4-4.7-7.8c0-0.3-0.1-0.6-0.4-0.8c-0.3-0.2-0.6-0.2-0.8,0c-2.9,1.7-6.6,1.4-9.1-0.9
		c-3-2.8-3.2-7.5-0.4-10.6c0.3-0.3,0.3-0.7,0.1-1c-0.2-0.3-0.6-0.4-1-0.3c-3.8,1.6-8.2-0.2-9.8-3.9c-1.6-3.8,0.1-8.2,3.8-9.9
		c0.3-0.2,0.5-0.5,0.5-0.9c-0.1-0.4-0.4-0.6-0.8-0.6C6,56.4,2.6,53,2.6,48.9c0-3.3,2.3-6.3,5.5-7.2c0.3-0.1,0.5-0.3,0.6-0.6
		c0.1-0.3-0.1-0.6-0.3-0.8c-2.7-2-3.7-5.6-2.5-8.7c1.2-3.1,4.4-5.1,7.8-4.7c0.3,0,0.6-0.1,0.8-0.4s0.2-0.6,0-0.8
		c-1.7-2.9-1.4-6.6,0.9-9c2.8-3,7.6-3.2,10.6-0.4c0.3,0.3,0.7,0.3,1,0.1c0.3-0.2,0.4-0.6,0.3-1c-1.6-3.8,0.2-8.2,4-9.8
		c3.8-1.6,8.2,0.1,9.9,3.8c0.2,0.3,0.5,0.5,0.9,0.5c0.4-0.1,0.6-0.4,0.6-0.8c0.1-4.1,3.4-7.4,7.6-7.4c3.4,0,6.3,2.3,7.3,5.5
		c0.1,0.3,0.3,0.5,0.6,0.6c0.3,0.1,0.6-0.1,0.8-0.3c2-2.7,5.6-3.7,8.8-2.4c3.1,1.2,5.1,4.4,4.7,7.8c0,0.3,0.1,0.6,0.4,0.8
		c0.3,0.2,0.6,0.2,0.8,0c2.9-1.7,6.6-1.4,9.1,0.9"/>
</g>
<path id="XMLID_50_" class="st1" d="M37.5,39.3h21.3 M37.5,44.1h22.2 M37.5,48.8h21.9 M37.5,53.5h17.7 M37.5,63h8.1 M37.5,29.9h10.1
	 M64.9,34.4H54.2V23.7L64.9,34.4z M64.9,34.3v34.9H32.4V23.7H54L64.9,34.3z"/>
<polygon id="XMLID_49_" class="st2" points="62.9,71.7 61.5,74.4 60,71.7 58.9,72.3 58.9,82.2 61.5,79.5 64,82.2 64,72.3 "/>
<polygon id="XMLID_48_" class="st1" points="62.9,71.7 61.5,74.4 60,71.7 58.9,72.3 58.9,82.2 61.5,79.5 64,82.2 64,72.3 "/>
<polygon id="XMLID_47_" class="st2" points="61.5,57.3 63,60 65.7,58.4 65.6,61.5 68.8,61.5 67.2,64.2 69.9,65.7 67.2,67.2 
	68.8,69.9 65.6,69.9 65.7,73 63,71.4 61.5,74.1 59.9,71.4 57.2,73 57.3,69.9 54.2,69.9 55.7,67.2 53,65.7 55.7,64.2 54.2,61.5 
	57.3,61.5 57.2,58.4 59.9,60 "/>
<polygon id="XMLID_46_" class="st1" points="61.5,57.3 63,60 65.7,58.4 65.6,61.5 68.8,61.5 67.2,64.2 69.9,65.7 67.2,67.2 
	68.8,69.9 65.6,69.9 65.7,73 63,71.4 61.5,74.1 59.9,71.4 57.2,73 57.3,69.9 54.2,69.9 55.7,67.2 53,65.7 55.7,64.2 54.2,61.5 
	57.3,61.5 57.2,58.4 59.9,60 "/>
</svg>
