<?xml version="1.0" encoding="utf-8"?>
<!-- Generator: Adobe Illustrator 19.0.0, SVG Export Plug-In . SVG Version: 6.00 Build 0)  -->
<svg version="1.1" id="Layer_1" xmlns="http://www.w3.org/2000/svg" xmlns:xlink="http://www.w3.org/1999/xlink" x="0px" y="0px"
	 viewBox="0 0 107.8 128" style="enable-background:new 0 0 107.8 128;" xml:space="preserve">
<style type="text/css">
	.st0{clip-path:url(#XMLID_26_);fill:#EC1959;}
	.st1{clip-path:url(#XMLID_26_);fill:none;stroke:#FFFFFF;stroke-width:2.6924;stroke-linejoin:round;}
	.st2{clip-path:url(#XMLID_26_);fill:#FFFFFF;}
	.st3{clip-path:url(#SVGID_2_);fill:none;stroke:#D3D6D8;stroke-width:0.371;}
	.st4{clip-path:url(#XMLID_27_);}
	.st5{clip-path:url(#XMLID_27_);fill:#FCDAD8;}
</style>
<g id="XMLID_8_">
	<defs>
		<rect id="XMLID_9_" width="107.8" height="128.1"/>
	</defs>
	<clipPath id="XMLID_26_">
		<use xlink:href="#XMLID_9_"  style="overflow:visible;"/>
	</clipPath>
	<path id="XMLID_12_" class="st0" d="M99.7,46.6c3-3,4.1-7.8,2.4-12c-1.5-3.7-4.8-6.1-8.5-6.4c1.1-3.7,0.2-7.8-2.5-10.7
		c-2.7-2.8-6.6-3.8-10.1-2.7c-0.3-3.9-2.6-7.3-6.1-8.9c-2.4-1.1-5.1-1.2-7.6-0.2c-1.5,0.6-2.8,1.5-3.8,2.6c-1.4-4.1-5.2-7-9.5-7
		c-4.4,0-8.1,2.9-9.6,7c-1.1-1.2-2.4-2-3.8-2.6c-2.5-1-5.2-0.9-7.6,0.2c-3.5,1.6-5.8,5.1-6.1,8.9c-3.5-1.1-7.5-0.1-10.1,2.7
		c-2.7,2.8-3.6,7-2.5,10.7c-3.7,0.3-7,2.7-8.5,6.4c-1.7,4.2-0.6,9,2.4,12c-3.9,1.5-6.7,5.4-6.7,10c0,4.6,2.8,8.5,6.7,10
		c-3,3-4.1,7.8-2.4,12c1.5,3.7,4.8,6.1,8.5,6.4c-1.1,3.7-0.2,7.8,2.5,10.7c2.7,2.8,6.6,3.8,10.1,2.7c0.3,3.8,2.6,7.3,6.1,8.9
		c2.3,1,4.8,1.2,7.2,0.4c4.2,6.2,8.5,12.3,12.7,18.4c0.3,0.4,0.7,0.6,1.1,0.6s0.9-0.2,1.1-0.6c4.2-6.1,8.5-12.3,12.7-18.4
		c2.4,0.8,4.9,0.7,7.2-0.4c3.5-1.6,5.8-5.1,6.1-8.9c3.5,1.1,7.5,0.1,10.1-2.7c2.7-2.8,3.6-7,2.5-10.7c3.7-0.3,7-2.7,8.5-6.4
		c1.7-4.2,0.6-9-2.4-12c3.9-1.5,6.7-5.4,6.7-10C106.5,52.1,103.6,48.1,99.7,46.6"/>
	<path id="XMLID_11_" class="st1" d="M99.7,46.6c3-3,4.1-7.8,2.4-12c-1.5-3.7-4.8-6.1-8.5-6.4c1.1-3.7,0.2-7.8-2.5-10.7
		c-2.7-2.8-6.6-3.8-10.1-2.7c-0.3-3.9-2.6-7.3-6.1-8.9c-2.4-1.1-5.1-1.2-7.6-0.2c-1.5,0.6-2.8,1.5-3.8,2.6c-1.4-4.1-5.2-7-9.5-7
		c-4.4,0-8.1,2.9-9.6,7c-1.1-1.2-2.4-2-3.8-2.6c-2.5-1-5.2-0.9-7.6,0.2c-3.5,1.6-5.8,5.1-6.1,8.9c-3.5-1.1-7.5-0.1-10.1,2.7
		c-2.7,2.8-3.6,7-2.5,10.7c-3.7,0.3-7,2.7-8.5,6.4c-1.7,4.2-0.6,9,2.4,12c-3.9,1.5-6.7,5.4-6.7,10c0,4.6,2.8,8.5,6.7,10
		c-3,3-4.1,7.8-2.4,12c1.5,3.7,4.8,6.1,8.5,6.4c-1.1,3.7-0.2,7.8,2.5,10.7c2.7,2.8,6.6,3.8,10.1,2.7c0.3,3.8,2.6,7.3,6.1,8.9
		c2.3,1,4.8,1.2,7.2,0.4c4.2,6.2,8.5,12.3,12.7,18.4c0.3,0.4,0.7,0.6,1.1,0.6s0.9-0.2,1.1-0.6c4.2-6.1,8.5-12.3,12.7-18.4
		c2.4,0.8,4.9,0.7,7.2-0.4c3.5-1.6,5.8-5.1,6.1-8.9c3.5,1.1,7.5,0.1,10.1-2.7c2.7-2.8,3.6-7,2.5-10.7c3.7-0.3,7-2.7,8.5-6.4
		c1.7-4.2,0.6-9-2.4-12c3.9-1.5,6.7-5.4,6.7-10C106.5,52.1,103.6,48.1,99.7,46.6z"/>
	<path id="XMLID_10_" class="st2" d="M90.1,42.9c-1.4-2.7-5.7-3.4-8.2-3.9c-4-0.8-7.9-0.3-11.9,0.6c-0.8,0.2-1.4,0.3-2.1,0.6
		c-0.8-4.6-4.7-5.9-9.3-5.9h-9.3c-4.6,0-8.5,1.3-9.3,6c-0.6-0.2-1.4-0.4-2.2-0.6c-3.9-0.9-7.9-1.4-11.9-0.6
		c-2.5,0.5-6.8,1.2-8.2,3.9c-0.7,1.3-0.7,3.7,0.1,5c1.6,2.6,6.9,2.3,9.4,2c4.2-0.5,8.4-2.2,12.6-2L42,71.5c0,5.5,4.2,10,9.4,10h5.1
		c5.2,0,9.5-4.5,9.5-10l2.1-23.7c4.2-0.1,8.3,1.5,12.4,2c2.5,0.3,7.8,0.7,9.4-2C90.7,46.6,90.7,44.2,90.1,42.9"/>
</g>
<g>
	<defs>
		<path id="SVGID_1_" d="M62.5,53.7c-1.6,0-2.8,0.4-3.1,2c-0.2-0.1-0.5-0.1-0.7-0.2c-1.3-0.3-2.6-0.5-4-0.2
			c-0.8,0.2-2.3,0.4-2.7,1.3c-0.2,0.4-0.2,1.2,0,1.7c0.5,0.9,2.3,0.8,3.1,0.7c1.4-0.2,2.8-0.7,4.2-0.7l0.7,7.9
			c0,1.8,1.4,3.3,3.2,3.3h1.7c1.7,0,3.2-1.5,3.2-3.3l0.7-7.9c1.4,0,2.8,0.5,4.2,0.7c0.8,0.1,2.6,0.2,3.1-0.7c0.3-0.4,0.3-1.2,0-1.7
			c-0.5-0.9-1.9-1.1-2.7-1.3c-1.3-0.3-2.7-0.1-4,0.2c-0.3,0.1-0.5,0.1-0.7,0.2c-0.3-1.5-1.6-2-3.1-2H62.5z"/>
	</defs>
	<clipPath id="SVGID_2_">
		<use xlink:href="#SVGID_1_"  style="overflow:visible;"/>
	</clipPath>
	<path class="st3" d="M70.6,68.1c0,0-2.4,0.8-0.9,2.3"/>
	<path class="st3" d="M67.6,68.1c0,0,2.4,0.8,0.9,2.3"/>
</g>
<g id="XMLID_2_">
	<defs>
		<rect id="XMLID_3_" width="107.8" height="128.1"/>
	</defs>
	<clipPath id="XMLID_27_">
		<use xlink:href="#XMLID_3_"  style="overflow:visible;"/>
	</clipPath>
	<path id="XMLID_7_" class="st4" d="M49.1,53.1c0,0.9-0.7,1.7-1.6,1.7c-0.9,0-1.6-0.8-1.6-1.7c0-0.9,0.7-1.7,1.6-1.7
		C48.4,51.4,49.1,52.2,49.1,53.1"/>
	<path id="XMLID_6_" class="st4" d="M61.5,53.1c0,0.9-0.7,1.7-1.6,1.7c-0.9,0-1.6-0.8-1.6-1.7c0-0.9,0.7-1.7,1.6-1.7
		C60.8,51.4,61.5,52.2,61.5,53.1"/>
	<path id="XMLID_5_" class="st5" d="M90,47.9c0.5-0.7,0.6-1.9,0.6-2.9c-2.1-1.5-6-2.4-10.4-2.4c-6.7,0-12.2,2.3-12.2,5.1
		c0,0.2,0.1,0.3,0.1,0.4v-0.2c4.2-0.1,8.3,1.5,12.4,2C83,50.2,88.3,50.5,90,47.9"/>
	<path id="XMLID_4_" class="st5" d="M17.8,47.9c-0.5-0.7-0.6-1.9-0.6-2.9c2.1-1.5,6-2.4,10.4-2.4c6.7,0,12.2,2.3,12.2,5.1
		c0,0.2-0.1,0.3-0.1,0.4v-0.2c-4.2-0.1-8.3,1.5-12.4,2C24.8,50.2,19.4,50.5,17.8,47.9"/>
</g>
</svg>
