<?xml version="1.0" encoding="utf-8"?>
<!-- Generator: Adobe Illustrator 19.0.0, SVG Export Plug-In . SVG Version: 6.00 Build 0)  -->
<svg version="1.1" id="Layer_1" xmlns="http://www.w3.org/2000/svg" xmlns:xlink="http://www.w3.org/1999/xlink" x="0px" y="0px"
	 viewBox="0 0 64 64" style="enable-background:new 0 0 64 64;" xml:space="preserve">
<style type="text/css">
	.st0{clip-path:url(#XMLID_15_);fill:#EC1C59;}
	.st1{clip-path:url(#XMLID_15_);fill:none;stroke:#FFFFFF;stroke-width:1.4551;stroke-linejoin:round;}
	.st2{clip-path:url(#XMLID_15_);fill:#FFFFFF;}
	.st3{clip-path:url(#XMLID_16_);fill:none;stroke:#D3D6D8;stroke-width:0.6013;}
	.st4{clip-path:url(#XMLID_17_);}
	.st5{clip-path:url(#XMLID_17_);fill:#FCDAD8;}
</style>
<g id="XMLID_1_">
	<g>
		<defs>
			<rect id="XMLID_10_" x="5.1" width="53.8" height="64"/>
		</defs>
		<clipPath id="XMLID_15_">
			<use xlink:href="#XMLID_10_"  style="overflow:visible;"/>
		</clipPath>
		<path id="XMLID_13_" class="st0" d="M54.9,23.3c1.5-1.5,2-3.9,1.1-6c-0.7-1.8-2.4-3-4.2-3.2c0.5-1.8,0.1-3.9-1.3-5.3
			c-1.3-1.4-3.3-1.9-5-1.4c-0.2-1.9-1.3-3.6-3-4.4c-1.2-0.6-2.6-0.6-3.8-0.1c-0.7,0.3-1.3,0.7-1.9,1.2c-0.7-2-2.6-3.4-4.8-3.4
			c-2.2,0-4,1.4-4.8,3.4c-0.5-0.5-1.1-1-1.9-1.2c-1.2-0.5-2.6-0.4-3.8,0.1c-1.7,0.8-2.9,2.5-3,4.4c-1.8-0.5-3.7,0-5,1.4
			c-1.3,1.4-1.8,3.5-1.3,5.3c-1.8,0.2-3.5,1.4-4.2,3.2c-0.9,2.1-0.3,4.5,1.1,6c-1.9,0.8-3.3,2.7-3.3,5c0,2.3,1.4,4.2,3.3,5
			c-1.5,1.5-2,3.9-1.1,6c0.7,1.8,2.4,3,4.2,3.2c-0.5,1.8-0.1,3.9,1.3,5.3c1.3,1.4,3.3,1.9,5,1.4c0.2,1.9,1.3,3.6,3,4.4
			c1.1,0.5,2.4,0.6,3.6,0.2c2.1,3.1,4.2,6.1,6.3,9.1c0.1,0.2,0.4,0.3,0.6,0.3c0.2,0,0.5-0.1,0.6-0.3c2.1-3,4.2-6.1,6.3-9.1
			c1.2,0.4,2.4,0.3,3.6-0.2c1.7-0.8,2.9-2.5,3-4.4c1.8,0.5,3.7,0,5-1.4c1.3-1.4,1.8-3.5,1.3-5.3c1.8-0.2,3.5-1.4,4.2-3.2
			c0.9-2.1,0.3-4.5-1.1-6c1.9-0.8,3.3-2.7,3.3-5C58.2,26,56.8,24.1,54.9,23.3"/>
		<path id="XMLID_12_" class="st1" d="M54.9,23.3c1.5-1.5,2-3.9,1.1-6c-0.7-1.8-2.4-3-4.2-3.2c0.5-1.8,0.1-3.9-1.3-5.3
			c-1.3-1.4-3.3-1.9-5-1.4c-0.2-1.9-1.3-3.6-3-4.4c-1.2-0.6-2.6-0.6-3.8-0.1c-0.7,0.3-1.3,0.7-1.9,1.2c-0.7-2-2.6-3.4-4.8-3.4
			c-2.2,0-4,1.4-4.8,3.4c-0.5-0.5-1.1-1-1.9-1.2c-1.2-0.5-2.6-0.4-3.8,0.1c-1.7,0.8-2.9,2.5-3,4.4c-1.8-0.5-3.7,0-5,1.4
			c-1.3,1.4-1.8,3.5-1.3,5.3c-1.8,0.2-3.5,1.4-4.2,3.2c-0.9,2.1-0.3,4.5,1.1,6c-1.9,0.8-3.3,2.7-3.3,5c0,2.3,1.4,4.2,3.3,5
			c-1.5,1.5-2,3.9-1.1,6c0.7,1.8,2.4,3,4.2,3.2c-0.5,1.8-0.1,3.9,1.3,5.3c1.3,1.4,3.3,1.9,5,1.4c0.2,1.9,1.3,3.6,3,4.4
			c1.1,0.5,2.4,0.6,3.6,0.2c2.1,3.1,4.2,6.1,6.3,9.1c0.1,0.2,0.4,0.3,0.6,0.3c0.2,0,0.5-0.1,0.6-0.3c2.1-3,4.2-6.1,6.3-9.1
			c1.2,0.4,2.4,0.3,3.6-0.2c1.7-0.8,2.9-2.5,3-4.4c1.8,0.5,3.7,0,5-1.4c1.3-1.4,1.8-3.5,1.3-5.3c1.8-0.2,3.5-1.4,4.2-3.2
			c0.9-2.1,0.3-4.5-1.1-6c1.9-0.8,3.3-2.7,3.3-5C58.2,26,56.8,24.1,54.9,23.3z"/>
		<path id="XMLID_11_" class="st2" d="M50.1,21.4c-0.7-1.3-2.9-1.7-4.1-1.9c-2-0.4-4-0.2-5.9,0.3c-0.4,0.1-0.7,0.2-1,0.3
			c-0.4-2.3-2.3-3-4.6-3h-4.7c-2.3,0-4.2,0.7-4.6,3c-0.3-0.1-0.7-0.2-1.1-0.3C22,19.3,20,19.1,18,19.5c-1.3,0.3-3.4,0.6-4.1,1.9
			c-0.3,0.6-0.3,1.9,0.1,2.5c0.8,1.3,3.5,1.1,4.7,1c2.1-0.3,4.2-1.1,6.3-1l1,11.8c0,2.8,2.1,5,4.7,5h2.6c2.6,0,4.7-2.2,4.7-5l1-11.8
			c2.1-0.1,4.1,0.7,6.2,1c1.2,0.2,3.9,0.3,4.7-1C50.4,23.3,50.4,22.1,50.1,21.4"/>
	</g>
	<g>
		<defs>
			<path id="XMLID_7_" d="M29.7,17.1c-2.3,0-4.2,0.7-4.6,3c-0.3-0.1-0.7-0.2-1.1-0.3C22,19.3,20,19.1,18,19.5
				c-1.3,0.3-3.4,0.6-4.1,1.9c-0.3,0.6-0.3,1.9,0.1,2.5c0.8,1.3,3.5,1.1,4.7,1c2.1-0.3,4.2-1.1,6.3-1l1,11.8c0,2.8,2.1,5,4.7,5h2.6
				c2.6,0,4.7-2.2,4.7-5l1-11.8c2.1-0.1,4.1,0.7,6.2,1c1.2,0.2,3.9,0.3,4.7-1c0.4-0.6,0.4-1.8,0.1-2.5c-0.7-1.3-2.9-1.7-4.1-1.9
				c-2-0.4-4-0.2-5.9,0.3c-0.4,0.1-0.7,0.2-1,0.3c-0.4-2.3-2.3-3-4.6-3H29.7z"/>
		</defs>
		<clipPath id="XMLID_16_">
			<use xlink:href="#XMLID_7_"  style="overflow:visible;"/>
		</clipPath>
		<path id="XMLID_9_" class="st3" d="M44.9,42c0,0-3.9,1.3-1.4,3.7"/>
		<path id="XMLID_8_" class="st3" d="M40,42c0,0,3.9,1.3,1.4,3.7"/>
	</g>
	<g>
		<defs>
			<rect id="XMLID_2_" x="5.1" width="53.8" height="64"/>
		</defs>
		<clipPath id="XMLID_17_">
			<use xlink:href="#XMLID_2_"  style="overflow:visible;"/>
		</clipPath>
		<path id="XMLID_6_" class="st4" d="M29.6,26.5c0,0.5-0.4,0.8-0.8,0.8c-0.4,0-0.8-0.4-0.8-0.8c0-0.5,0.4-0.8,0.8-0.8
			C29.2,25.7,29.6,26.1,29.6,26.5"/>
		<path id="XMLID_5_" class="st4" d="M35.8,26.5c0,0.5-0.4,0.8-0.8,0.8s-0.8-0.4-0.8-0.8c0-0.5,0.4-0.8,0.8-0.8S35.8,26.1,35.8,26.5
			"/>
		<path id="XMLID_4_" class="st5" d="M50,23.9c0.2-0.4,0.3-0.9,0.3-1.5c-1.1-0.7-3-1.2-5.2-1.2c-3.4,0-6.1,1.1-6.1,2.5
			c0,0.1,0,0.1,0.1,0.2v-0.1c2.1-0.1,4.1,0.7,6.2,1C46.5,25.1,49.2,25.2,50,23.9"/>
		<path id="XMLID_3_" class="st5" d="M14,23.9c-0.2-0.4-0.3-0.9-0.3-1.5c1.1-0.7,3-1.2,5.2-1.2c3.4,0,6.1,1.1,6.1,2.5
			c0,0.1,0,0.1-0.1,0.2v-0.1c-2.1-0.1-4.1,0.7-6.2,1C17.4,25.1,14.8,25.2,14,23.9"/>
	</g>
</g>
</svg>
