<svg version="1.1" id="Layer_1" xmlns="http://www.w3.org/2000/svg" xmlns:xlink="http://www.w3.org/1999/xlink" x="0" y="0" viewBox="115 -114 357 357" xml:space="preserve"><style>.st1{fill:none;stroke:#fff;stroke-width:10.1437;stroke-linecap:round;stroke-linejoin:round;stroke-miterlimit:10}</style><defs><path id="SVGID_1_" d="M115.3-60.2h356.2V190H115.3z"/></defs><clipPath id="SVGID_2_"><use xlink:href="#SVGID_1_" overflow="visible"/></clipPath><path d="M385.4 87.2V40.6c0-12.9-10.4-23.3-23.3-23.3h-49.5c-12.9 0-23.3 10.4-23.3 23.3v46.7h96.1zM163.6-55.1h47.1c14.7 0 26.6 11.9 26.6 26.6V87.2M415 114.8l-27.5-27.5H237.4m40 76.8h119.3m69.8-15.8c0 20.2-16.4 36.6-36.7 36.6s-36.7-16.4-36.7-36.6c0-20.2 16.4-36.6 36.7-36.6s36.7 16.4 36.7 36.6zm-229.1 7.1c-10.7 0-19.3-8.7-19.3-19.3 0-10.7 8.7-19.3 19.3-19.3s19.3 8.7 19.3 19.3c0 10.6-8.7 19.3-19.3 19.3zm-.4-68.1l-37.8-37.7h-30c-27 0-48.8 21.9-48.8 48.8 0 27 21.9 48.8 48.8 48.8h20.5m96.5-11.1c0 27-21.9 48.8-48.9 48.8s-48.9-21.9-48.9-48.8c0-27 21.9-48.8 48.9-48.8s48.9 21.8 48.9 48.8zm31.1-118.8c0-11 8.9-20 20-20 11 0 20 8.9 20 20" clip-path="url(#SVGID_2_)" fill="none" stroke="#fff" stroke-width="10.144" stroke-linecap="round" stroke-linejoin="round" stroke-miterlimit="10"/><path class="st1" d="M289.5 54h95.8M322.9 124.4v12.3M351.7 120.2v17.6"/></svg>