<?xml version="1.0" encoding="utf-8"?>
<!-- Generator: Adobe Illustrator 19.0.0, SVG Export Plug-In . SVG Version: 6.00 Build 0)  -->
<svg version="1.1" id="Layer_1" xmlns="http://www.w3.org/2000/svg" xmlns:xlink="http://www.w3.org/1999/xlink" x="0px" y="0px"
	 viewBox="0 0 64 64" style="enable-background:new 0 0 64 64;" xml:space="preserve">
<style type="text/css">
	.st0{clip-path:url(#XMLID_18_);fill:#FFFFFF;}
	.st1{clip-path:url(#XMLID_18_);fill:#EC1C59;}
	.st2{clip-path:url(#XMLID_18_);fill:none;stroke:#EC1C59;stroke-width:2.0036;stroke-linecap:round;stroke-miterlimit:10;}
	.st3{clip-path:url(#XMLID_18_);fill:none;stroke:#3F4043;stroke-width:1.5678;stroke-linecap:round;stroke-linejoin:round;}
</style>
<g id="XMLID_1_">
	<g>
		<defs>
			<rect id="XMLID_2_" width="60.2" height="64"/>
		</defs>
		<clipPath id="XMLID_18_">
			<use xlink:href="#XMLID_2_"  style="overflow:visible;"/>
		</clipPath>
		<path id="XMLID_16_" class="st0" d="M26.9,47.2c-1.4,0-2.5-1.1-2.5-2.5v-1.6c0-1.4,1.1-2.5,2.5-2.5h1.6c1.4,0,2.5,1.1,2.5,2.5v1.6
			c0,1.4-1.1,2.5-2.5,2.5H26.9z"/>
		<path id="XMLID_15_" class="st0" d="M46.3,34.1c-1.4,0-2.5-1.1-2.5-2.5V30c0-1.4,1.1-2.5,2.5-2.5h1.6c1.4,0,2.5,1.1,2.5,2.5v1.6
			c0,1.4-1.1,2.5-2.5,2.5H46.3z"/>
		<path id="XMLID_14_" class="st1" d="M17.9,30c-0.5,0-0.8,0.4-0.8,0.8s0.4,0.8,0.8,0.8h25.9V30H17.9z"/>
		<path id="XMLID_13_" class="st1" d="M17.9,43.1c-0.5,0-0.8,0.4-0.8,0.8s0.4,0.8,0.8,0.8h6.6v-1.6H17.9z"/>
		<path class="st1" d="M49.5,31.7c0,0.9-0.7,1.6-1.6,1.6h-1.6c-0.9,0-1.6-0.7-1.6-1.6V30c0-0.9,0.7-1.6,1.6-1.6h1.6
			c0.9,0,1.6,0.7,1.6,1.6V31.7z M47.9,26.8h-1.6c-1.8,0-3.3,1.5-3.3,3.3v1.6c0,1.8,1.5,3.3,3.3,3.3h1.6c1.8,0,3.3-1.5,3.3-3.3V30
			C51.2,28.2,49.7,26.8,47.9,26.8"/>
		<path id="XMLID_10_" class="st1" d="M59.4,30h-6.6v1.6h6.6c0.5,0,0.8-0.4,0.8-0.8S59.8,30,59.4,30"/>
		<path class="st1" d="M30.2,44.8c0,0.9-0.7,1.6-1.6,1.6h-1.6c-0.9,0-1.6-0.7-1.6-1.6v-1.6c0-0.9,0.7-1.6,1.6-1.6h1.6
			c0.9,0,1.6,0.7,1.6,1.6V44.8z M28.6,39.9h-1.6c-1.8,0-3.3,1.5-3.3,3.3v1.6c0,1.8,1.5,3.3,3.3,3.3h1.6c1.8,0,3.3-1.5,3.3-3.3v-1.6
			C31.8,41.3,30.4,39.9,28.6,39.9"/>
		<path id="XMLID_7_" class="st1" d="M59.4,43.1H33.5v1.6h25.9c0.5,0,0.8-0.4,0.8-0.8S59.8,43.1,59.4,43.1"/>
		<line id="XMLID_6_" class="st2" x1="48.8" y1="20.2" x2="57.7" y2="20.2"/>
		<path id="XMLID_5_" class="st1" d="M55.5,21.2c0.2,0,0.3,0.2,0.4,0.4c0.1,0.2,0,0.4-0.1,0.5L55,22.8c-0.5,0.5-0.5,1.2,0,1.6
			c0.2,0.2,0.5,0.3,0.8,0.3c0.3,0,0.6-0.1,0.8-0.3l3.2-3.2c0.4-0.4,0.4-0.9,0.2-1.4c-0.2-0.4-0.6-0.6-1-0.6"/>
		<path id="XMLID_4_" class="st1" d="M55.5,19.5c0.2,0,0.3-0.2,0.4-0.4c0.1-0.2,0-0.4-0.1-0.5L55,17.9c-0.5-0.5-0.5-1.2,0-1.6
			c0.2-0.2,0.5-0.3,0.8-0.3c0.3,0,0.6,0.1,0.8,0.3l3.2,3.2c0.4,0.4,0.4,0.9,0.2,1.4c-0.2,0.4-0.6,0.6-1,0.6"/>
		<path id="XMLID_3_" class="st3" d="M54.9,53.3c-1.8,2-5,2.1-7,0.3c-0.2-0.2-0.5-0.2-0.7,0c-0.2,0.1-0.3,0.4-0.2,0.6
			c1,2.5-0.1,5.4-2.6,6.5c-2.5,1.1-5.4-0.1-6.5-2.5c-0.1-0.2-0.3-0.3-0.6-0.3c-0.2,0.1-0.4,0.3-0.4,0.5c0,2.7-2.3,4.9-5,4.9
			c-2.2,0-4.2-1.5-4.8-3.6c-0.1-0.2-0.2-0.3-0.4-0.4c-0.2,0-0.4,0-0.5,0.2c-1.3,1.8-3.7,2.4-5.8,1.6c-2.1-0.8-3.3-2.9-3.1-5.1
			c0-0.2-0.1-0.4-0.2-0.5c-0.2-0.1-0.4-0.1-0.6,0c-1.9,1.1-4.3,0.9-6-0.6c-2-1.8-2.1-5-0.3-7c0.2-0.2,0.2-0.5,0-0.7
			c-0.1-0.2-0.4-0.3-0.6-0.2c-2.5,1-5.4-0.1-6.5-2.6C2.3,42,3.4,39.1,5.9,38c0.2-0.1,0.4-0.3,0.3-0.6C6.1,37.1,5.9,37,5.7,37
			c-2.7,0-4.9-2.3-4.9-5c0-2.2,1.5-4.2,3.6-4.8c0.2-0.1,0.3-0.2,0.4-0.4c0-0.2,0-0.4-0.2-0.5C2.8,25,2.2,22.6,3,20.6
			c0.8-2.1,2.9-3.3,5.1-3.1c0.2,0,0.4-0.1,0.5-0.2c0.1-0.2,0.1-0.4,0-0.6c-1.1-1.9-0.9-4.3,0.6-5.9c1.8-2,5-2.1,7-0.3
			c0.2,0.2,0.5,0.2,0.7,0c0.2-0.1,0.3-0.4,0.2-0.6c-1-2.5,0.1-5.4,2.6-6.5c2.5-1.1,5.4,0.1,6.5,2.5c0.1,0.2,0.3,0.3,0.6,0.3
			c0.2-0.1,0.4-0.3,0.4-0.5c0-2.7,2.3-4.9,5-4.9c2.2,0,4.2,1.5,4.8,3.6c0.1,0.2,0.2,0.3,0.4,0.4c0.2,0,0.4,0,0.5-0.2
			c1.3-1.8,3.7-2.4,5.8-1.6c2.1,0.8,3.3,2.9,3.1,5.1c0,0.2,0.1,0.4,0.2,0.5c0.2,0.1,0.4,0.1,0.6,0c1.9-1.1,4.3-0.9,6,0.6"/>
	</g>
</g>
</svg>
