<?xml version="1.0" encoding="utf-8"?>
<!-- Generator: Adobe Illustrator 19.0.0, SVG Export Plug-In . SVG Version: 6.00 Build 0)  -->
<svg version="1.1" id="Layer_1" xmlns="http://www.w3.org/2000/svg" xmlns:xlink="http://www.w3.org/1999/xlink" x="0px" y="0px"
	 viewBox="0 0 64 64" style="enable-background:new 0 0 64 64;" xml:space="preserve">
<style type="text/css">
	.st0{clip-path:url(#XMLID_18_);fill:#FFFFFF;}
	.st1{clip-path:url(#XMLID_18_);fill:#EC1C59;}
	.st2{clip-path:url(#XMLID_18_);fill:none;stroke:#EC1C59;stroke-width:2.1059;stroke-linecap:round;stroke-miterlimit:10;}
	.st3{clip-path:url(#XMLID_18_);fill:none;stroke:#3F4043;stroke-width:1.5678;stroke-linecap:round;stroke-linejoin:round;}
</style>
<g id="XMLID_1_">
	<g>
		<defs>
			<rect id="XMLID_2_" x="1.7" width="62.3" height="64"/>
		</defs>
		<clipPath id="XMLID_18_">
			<use xlink:href="#XMLID_2_"  style="overflow:visible;"/>
		</clipPath>
		<path id="XMLID_16_" class="st0" d="M36.6,48c1.4,0,2.6-1.2,2.6-2.6v-1.7c0-1.4-1.2-2.6-2.6-2.6h-1.7c-1.4,0-2.6,1.2-2.6,2.6v1.7
			c0,1.4,1.2,2.6,2.6,2.6H36.6z"/>
		<path id="XMLID_15_" class="st0" d="M16.3,34.2c1.4,0,2.6-1.2,2.6-2.6v-1.7c0-1.4-1.2-2.6-2.6-2.6h-1.7c-1.4,0-2.6,1.2-2.6,2.6
			v1.7c0,1.4,1.2,2.6,2.6,2.6H16.3z"/>
		<path id="XMLID_14_" class="st1" d="M46.1,29.9c0.5,0,0.9,0.4,0.9,0.9c0,0.5-0.4,0.9-0.9,0.9H18.9v-1.7H46.1z"/>
		<path id="XMLID_13_" class="st1" d="M46.1,43.7c0.5,0,0.9,0.4,0.9,0.9c0,0.5-0.4,0.9-0.9,0.9h-6.9v-1.7H46.1z"/>
		<path class="st1" d="M12.9,31.7c0,0.9,0.8,1.7,1.7,1.7h1.7c0.9,0,1.7-0.8,1.7-1.7v-1.7c0-0.9-0.8-1.7-1.7-1.7h-1.7
			c-0.9,0-1.7,0.8-1.7,1.7V31.7z M14.6,26.5h1.7c1.9,0,3.4,1.5,3.4,3.4v1.7c0,1.9-1.5,3.4-3.4,3.4h-1.7c-1.9,0-3.4-1.5-3.4-3.4v-1.7
			C11.1,28,12.7,26.5,14.6,26.5"/>
		<path id="XMLID_10_" class="st1" d="M2.5,29.9h6.9v1.7H2.5c-0.5,0-0.9-0.4-0.9-0.9C1.7,30.3,2,29.9,2.5,29.9"/>
		<path class="st1" d="M33.2,45.4c0,0.9,0.8,1.7,1.7,1.7h1.7c0.9,0,1.7-0.8,1.7-1.7v-1.7c0-0.9-0.8-1.7-1.7-1.7h-1.7
			c-0.9,0-1.7,0.8-1.7,1.7V45.4z M34.9,40.3h1.7c1.9,0,3.4,1.5,3.4,3.4v1.7c0,1.9-1.5,3.4-3.4,3.4h-1.7c-1.9,0-3.4-1.5-3.4-3.4v-1.7
			C31.5,41.8,33,40.3,34.9,40.3"/>
		<path id="XMLID_7_" class="st1" d="M2.5,43.7h27.2v1.7H2.5c-0.5,0-0.9-0.4-0.9-0.9C1.7,44.1,2,43.7,2.5,43.7"/>
		<line id="XMLID_6_" class="st2" x1="13.6" y1="19.6" x2="4.3" y2="19.6"/>
		<path id="XMLID_5_" class="st1" d="M6.6,20.6c-0.2,0-0.4,0.2-0.4,0.4s0,0.4,0.1,0.6l0.8,0.8c0.5,0.5,0.5,1.2,0,1.7
			c-0.2,0.2-0.6,0.4-0.9,0.4c-0.3,0-0.6-0.1-0.9-0.4L2,20.6c-0.4-0.4-0.5-1-0.2-1.4c0.2-0.4,0.6-0.6,1.1-0.6"/>
		<path id="XMLID_4_" class="st1" d="M6.6,18.9c-0.2,0-0.4-0.2-0.4-0.4s0-0.4,0.1-0.6l0.8-0.8c0.5-0.5,0.5-1.2,0-1.7
			c-0.2-0.2-0.6-0.4-0.9-0.4c-0.3,0-0.6,0.1-0.9,0.4L2,18.9c-0.4,0.4-0.5,1-0.2,1.4C2,20.7,2.4,21,2.9,21"/>
		<path id="XMLID_3_" class="st3" d="M9.1,53.3c1.8,2,5,2.1,7,0.3c0.2-0.2,0.5-0.2,0.7,0c0.2,0.1,0.3,0.4,0.2,0.6
			c-1,2.5,0.1,5.4,2.6,6.5c2.5,1.1,5.4-0.1,6.5-2.5c0.1-0.2,0.3-0.3,0.6-0.3c0.2,0.1,0.4,0.3,0.4,0.5c0,2.7,2.3,4.9,5,4.9
			c2.2,0,4.2-1.5,4.8-3.6c0.1-0.2,0.2-0.3,0.4-0.4c0.2,0,0.4,0,0.5,0.2c1.3,1.8,3.7,2.4,5.8,1.6c2.1-0.8,3.3-2.9,3.1-5.1
			c0-0.2,0.1-0.4,0.2-0.5c0.2-0.1,0.4-0.1,0.6,0c1.9,1.1,4.3,0.9,6-0.6c2-1.8,2.1-5,0.3-7c-0.2-0.2-0.2-0.5,0-0.7
			c0.1-0.2,0.4-0.3,0.6-0.2c2.5,1,5.4-0.1,6.5-2.6c1.1-2.5-0.1-5.4-2.5-6.5c-0.2-0.1-0.4-0.3-0.3-0.6c0.1-0.2,0.3-0.4,0.5-0.4
			c2.7,0,4.9-2.3,4.9-5c0-2.2-1.5-4.2-3.6-4.8c-0.2-0.1-0.3-0.2-0.4-0.4c0-0.2,0-0.4,0.2-0.5c1.8-1.3,2.4-3.7,1.6-5.8
			c-0.8-2.1-2.9-3.3-5.1-3.1c-0.2,0-0.4-0.1-0.5-0.2c-0.1-0.2-0.1-0.4,0-0.6c1.1-1.9,0.9-4.3-0.6-5.9c-1.8-2-5-2.1-7-0.3
			c-0.2,0.2-0.5,0.2-0.7,0c-0.2-0.1-0.3-0.4-0.2-0.6c1-2.5-0.1-5.4-2.6-6.5c-2.5-1.1-5.4,0.1-6.5,2.5c-0.1,0.2-0.3,0.3-0.6,0.3
			c-0.2-0.1-0.4-0.3-0.4-0.5c0-2.7-2.3-4.9-5-4.9c-2.2,0-4.2,1.5-4.8,3.6c-0.1,0.2-0.2,0.3-0.4,0.4c-0.2,0-0.4,0-0.5-0.2
			c-1.3-1.8-3.7-2.4-5.8-1.6c-2.1,0.8-3.3,2.9-3.1,5.1c0,0.2-0.1,0.4-0.2,0.5c-0.2,0.1-0.4,0.1-0.6,0c-1.9-1.1-4.3-0.9-6,0.6"/>
	</g>
</g>
</svg>
