<?xml version="1.0" encoding="utf-8"?>
<!-- Generator: Adobe Illustrator 19.0.0, SVG Export Plug-In . SVG Version: 6.00 Build 0)  -->
<svg version="1.1" id="Layer_1" xmlns="http://www.w3.org/2000/svg" xmlns:xlink="http://www.w3.org/1999/xlink" x="0px" y="0px"
	 viewBox="0 0 64 64" style="enable-background:new 0 0 64 64;" xml:space="preserve">
<style type="text/css">
	.st0{clip-path:url(#XMLID_23_);fill:none;stroke:#333232;stroke-width:1.5678;stroke-linecap:round;stroke-linejoin:round;}
	.st1{clip-path:url(#XMLID_23_);fill:#EC1C59;}
	.st2{fill:#EC1C59;}
	.st3{clip-path:url(#XMLID_24_);fill:#EC1C59;}
	.st4{clip-path:url(#XMLID_25_);fill:#EC1C59;}
	.st5{clip-path:url(#XMLID_26_);fill:#EC1C59;}
</style>
<g id="XMLID_1_">
	<g>
		<defs>
			<rect id="XMLID_19_" width="58.1" height="64"/>
		</defs>
		<clipPath id="XMLID_23_">
			<use xlink:href="#XMLID_19_"  style="overflow:visible;"/>
		</clipPath>
		<path id="XMLID_21_" class="st0" d="M54.9,53.3c-1.8,2-5,2.1-7,0.3c-0.2-0.2-0.5-0.2-0.7,0c-0.2,0.1-0.3,0.4-0.2,0.6
			c1,2.5-0.1,5.4-2.6,6.5c-2.5,1.1-5.4-0.1-6.5-2.5c-0.1-0.2-0.3-0.3-0.6-0.3S37,58.1,37,58.3c0,2.7-2.3,4.9-5,4.9
			c-2.2,0-4.2-1.5-4.8-3.6c-0.1-0.2-0.2-0.3-0.4-0.4c-0.2,0-0.4,0-0.5,0.2c-1.3,1.8-3.7,2.4-5.8,1.6c-2.1-0.8-3.3-2.9-3.1-5.1
			c0-0.2-0.1-0.4-0.2-0.5c-0.2-0.1-0.4-0.1-0.6,0c-1.9,1.1-4.3,0.9-6-0.6c-2-1.8-2.1-5-0.3-7c0.2-0.2,0.2-0.5,0-0.7
			c-0.1-0.2-0.4-0.3-0.6-0.2c-2.5,1-5.4-0.1-6.5-2.6C2.3,42,3.4,39.1,5.9,38c0.2-0.1,0.4-0.3,0.3-0.6C6.1,37.1,5.9,37,5.7,37
			c-2.7,0-4.9-2.3-4.9-5c0-2.2,1.5-4.2,3.6-4.8c0.2-0.1,0.3-0.2,0.4-0.4c0-0.2,0-0.4-0.2-0.5C2.8,25,2.2,22.6,3,20.6
			c0.8-2.1,2.9-3.3,5.1-3.1c0.2,0,0.4-0.1,0.5-0.2c0.1-0.2,0.1-0.4,0-0.6c-1.1-1.9-0.9-4.3,0.6-5.9c1.8-2,5-2.1,7-0.3
			c0.2,0.2,0.5,0.2,0.7,0c0.2-0.1,0.3-0.4,0.2-0.6c-1-2.5,0.1-5.4,2.6-6.5c2.5-1.1,5.4,0.1,6.5,2.5c0.1,0.2,0.3,0.3,0.6,0.3
			c0.2-0.1,0.4-0.3,0.4-0.5c0-2.7,2.3-4.9,5-4.9c2.2,0,4.2,1.5,4.8,3.6c0.1,0.2,0.2,0.3,0.4,0.4c0.2,0,0.4,0,0.5-0.2
			c1.3-1.8,3.7-2.4,5.8-1.6c2.1,0.8,3.3,2.9,3.1,5.1c0,0.2,0.1,0.4,0.2,0.5c0.2,0.1,0.4,0.1,0.6,0c1.9-1.1,4.3-0.9,6,0.6"/>
		<path id="XMLID_20_" class="st1" d="M51.3,36.5v5.4c0,1.6-1.3,2.9-2.9,2.9H18.6c-1.6,0-2.9-1.3-2.9-2.9V23.6
			c0-1.6,1.3-2.9,2.9-2.9h16.3c0.5,0,0.8,0.4,0.8,0.8c0,0.5-0.4,0.8-0.8,0.8H18.6c-0.7,0-1.2,0.6-1.2,1.2v18.3
			c0,0.7,0.6,1.2,1.2,1.2h29.9c0.7,0,1.2-0.6,1.2-1.2v-5.4H51.3z"/>
	</g>
	<rect id="XMLID_18_" x="16.5" y="38.9" class="st2" width="34" height="1.7"/>
	<g>
		<defs>
			<rect id="XMLID_16_" width="58.1" height="64"/>
		</defs>
		<clipPath id="XMLID_24_">
			<use xlink:href="#XMLID_16_"  style="overflow:visible;"/>
		</clipPath>
		<path id="XMLID_17_" class="st3" d="M40.6,49.9H26.4c-0.5,0-0.8-0.4-0.8-0.8c0-0.5,0.4-0.8,0.8-0.8h14.2c0.5,0,0.8,0.4,0.8,0.8
			C41.4,49.5,41.1,49.9,40.6,49.9"/>
	</g>
	<rect id="XMLID_15_" x="28.4" y="44" class="st2" width="1.7" height="5"/>
	<rect id="XMLID_14_" x="36.8" y="44" class="st2" width="1.7" height="5"/>
	<rect id="XMLID_13_" x="37.4" y="18.3" class="st2" width="19.9" height="1.7"/>
	<g>
		<defs>
			<rect id="XMLID_7_" width="58.1" height="64"/>
		</defs>
		<clipPath id="XMLID_25_">
			<use xlink:href="#XMLID_7_"  style="overflow:visible;"/>
		</clipPath>
		<path id="XMLID_12_" class="st4" d="M51.3,17.6L51.3,17.6c-0.5,0-0.8-0.4-0.8-0.8v-2.1c0-0.5,0.4-0.8,0.8-0.8
			c0.5,0,0.8,0.4,0.8,0.8v2.1C52.2,17.2,51.8,17.6,51.3,17.6"/>
		<path id="XMLID_11_" class="st4" d="M43.3,17.6L43.3,17.6c-0.5,0-0.8-0.4-0.8-0.8v-2.1c0-0.5,0.4-0.8,0.8-0.8
			c0.5,0,0.8,0.4,0.8,0.8v2.1C44.1,17.2,43.8,17.6,43.3,17.6"/>
		<path class="st4" d="M38.8,33.1h13.8l3.8-3.8V17.2c0-0.4-0.3-0.6-0.6-0.6h-17c-0.4,0-0.6,0.3-0.6,0.6v15.2
			C38.2,32.8,38.5,33.1,38.8,33.1 M52.3,34.8H38c-0.8,0-1.5-0.7-1.5-1.5V16.5c0-0.8,0.7-1.5,1.5-1.5h18.6c0.8,0,1.5,0.7,1.5,1.5V29
			c0,0.7-0.3,1.4-0.8,1.9L54.1,34C53.6,34.5,53,34.8,52.3,34.8"/>
		<path id="XMLID_8_" class="st4" d="M53.8,34h-1.7v-4.2c0-0.5,0.4-0.9,0.9-0.9h4.2v1.7h-3.4V34z"/>
	</g>
	<rect id="XMLID_6_" x="52.2" y="25.5" class="st2" width="1.7" height="1.7"/>
	<rect id="XMLID_5_" x="40.8" y="25.5" class="st2" width="1.7" height="1.7"/>
	<g>
		<defs>
			<rect id="XMLID_2_" width="58.1" height="64"/>
		</defs>
		<clipPath id="XMLID_26_">
			<use xlink:href="#XMLID_2_"  style="overflow:visible;"/>
		</clipPath>
		<path id="XMLID_4_" class="st5" d="M44.6,28.7l0.6-0.2v-2h-0.4c-0.3,0-0.6-0.3-0.6-0.6c0-0.3,0.3-0.6,0.6-0.6h0.4v-1
			c0-0.8,0.2-1.5,0.7-2c0.4-0.5,1.1-0.7,1.9-0.7c1,0,1.7,0.4,2.2,0.9c0.1,0.1,0.2,0.3,0.2,0.5c0,0.4-0.3,0.7-0.7,0.7
			c-0.2,0-0.4-0.1-0.5-0.2c-0.3-0.4-0.7-0.6-1.2-0.6c-0.4,0-0.6,0.1-0.8,0.3c-0.2,0.2-0.4,0.6-0.4,1.1v1h2.3c0.3,0,0.6,0.3,0.6,0.6
			c0,0.3-0.3,0.6-0.6,0.6h-2.3v1.9h3.1c0.3,0,0.6,0.3,0.6,0.6c0,0.3-0.3,0.6-0.6,0.6h-4.9c-0.3,0-0.5-0.2-0.5-0.5
			C44.2,29,44.3,28.8,44.6,28.7"/>
		<path id="XMLID_3_" class="st5" d="M50.5,38.1L50.5,38.1c-0.5,0-0.8-0.4-0.8-0.8v-0.9c0-0.5,0.4-0.8,0.8-0.8
			c0.5,0,0.8,0.4,0.8,0.8v0.9C51.3,37.8,50.9,38.1,50.5,38.1"/>
	</g>
</g>
</svg>
