<?xml version="1.0" encoding="utf-8"?>
<!-- Generator: Adobe Illustrator 19.0.0, SVG Export Plug-In . SVG Version: 6.00 Build 0)  -->
<svg version="1.1" id="Layer_1" xmlns="http://www.w3.org/2000/svg" xmlns:xlink="http://www.w3.org/1999/xlink" x="0px" y="0px"
	 viewBox="0 0 98 98" style="enable-background:new 0 0 98 98;" xml:space="preserve">
<style type="text/css">
	.st0{clip-path:url(#XMLID_41_);fill:none;stroke:#3F4043;stroke-width:3.2728;stroke-linecap:round;stroke-linejoin:round;}
	
		.st1{clip-path:url(#XMLID_41_);fill:none;stroke:#EC1C59;stroke-width:1.7926;stroke-linecap:round;stroke-linejoin:round;stroke-miterlimit:10;}
</style>
<g id="XMLID_2_">
	<defs>
		<rect id="XMLID_3_" width="84.2" height="98"/>
	</defs>
	<clipPath id="XMLID_41_">
		<use xlink:href="#XMLID_3_"  style="overflow:visible;"/>
	</clipPath>
	<path id="XMLID_14_" class="st0" d="M72,82.6c1.6,3.8-0.2,8.2-3.9,9.8c-3.8,1.6-8.2-0.1-9.9-3.8c-0.2-0.3-0.5-0.5-0.9-0.5
		c-0.4,0.1-0.6,0.4-0.6,0.8c-0.1,4.1-3.4,7.4-7.5,7.4c-3.4,0-6.3-2.2-7.2-5.5c-0.1-0.3-0.3-0.5-0.6-0.6c-0.3-0.1-0.6,0.1-0.8,0.3
		c-2,2.7-5.6,3.7-8.8,2.4c-3.1-1.2-5.1-4.4-4.7-7.7c0-0.3-0.1-0.6-0.4-0.8c-0.3-0.2-0.6-0.2-0.8,0c-2.9,1.7-6.6,1.3-9-0.9
		c-3-2.8-3.2-7.5-0.4-10.5c0.3-0.3,0.3-0.7,0.1-1c-0.2-0.3-0.6-0.4-1-0.3c-3.8,1.6-8.2-0.2-9.8-3.9c-1.6-3.7,0.1-8.2,3.8-9.8
		c0.3-0.2,0.5-0.5,0.5-0.9c-0.1-0.4-0.4-0.6-0.8-0.6C5,56.4,1.6,53.1,1.6,49c0-3.3,2.3-6.3,5.5-7.2c0.3-0.1,0.5-0.3,0.6-0.6
		c0.1-0.3-0.1-0.6-0.3-0.8c-2.7-2-3.7-5.6-2.4-8.7c1.2-3.1,4.4-5.1,7.8-4.7c0.3,0,0.6-0.1,0.8-0.4s0.2-0.6,0-0.8
		c-1.7-2.9-1.4-6.6,0.9-9c2.8-3,7.5-3.2,10.6-0.4c0.3,0.3,0.7,0.3,1,0.1c0.3-0.2,0.4-0.6,0.3-1c-1.6-3.8,0.2-8.2,3.9-9.8
		c3.8-1.6,8.2,0.1,9.9,3.8c0.2,0.3,0.5,0.5,0.9,0.5c0.4-0.1,0.6-0.4,0.6-0.8C41.7,5,45,1.6,49.1,1.6c3.4,0,6.3,2.2,7.3,5.5
		c0.1,0.3,0.3,0.5,0.6,0.6c0.3,0.1,0.6-0.1,0.8-0.3c2-2.7,5.6-3.7,8.8-2.4c3.1,1.2,5.1,4.4,4.7,7.7c0,0.3,0.1,0.6,0.4,0.8
		c0.3,0.2,0.6,0.2,0.8,0c2.9-1.7,6.6-1.4,9,0.9"/>
	<path id="XMLID_4_" class="st1" d="M76.4,57.3h-5.2c-0.6,0-1.1-0.5-1.1-1.1c0-0.6,0.5-1.1,1.1-1.1h5.2c0.6,0,1.1,0.5,1.1,1.1
		C77.6,56.8,77.1,57.3,76.4,57.3z M76.6,51.6v-4.9h-5.6v4.9l1.1-0.9l0.7,1.1l1-1l0.8,0.9l0.7-0.9L76.6,51.6z M64.4,46.7h18.8v29.9
		H64.4V46.7z M49.4,32.5h-7c-0.8,0-1.5-0.7-1.5-1.5c0-0.8,0.7-1.5,1.5-1.5h7c0.8,0,1.5,0.7,1.5,1.5C50.9,31.8,50.2,32.5,49.4,32.5z
		 M49.7,24.7v-6.6h-7.5v6.6l1.5-1.2l0.9,1.5l1.3-1.3l1.1,1.2l1-1.3L49.7,24.7z M33.2,18.1h25.4v23.5H33.2V18.1z M51.8,56.2H43
		c-0.8,0-1.5-0.7-1.5-1.5c0-0.8,0.7-1.5,1.5-1.5h8.8c0.8,0,1.5,0.7,1.5,1.5C53.2,55.5,52.6,56.2,51.8,56.2z M50.9,48.8v-7.2h-7.2
		v7.2l1.4-1.2l0.9,1.4l1.2-1.2l1,1.2l0.9-1.2L50.9,48.8z M30.3,41.7h34.2v34.8H30.3V41.7z"/>
</g>
</svg>
