<svg version="1.1" id="Layer_1" xmlns="http://www.w3.org/2000/svg" xmlns:xlink="http://www.w3.org/1999/xlink" x="0" y="0" viewBox="115 -114 357 357" xml:space="preserve"><style>.st0{clip-path:url(#SVGID_2_);fill:#fff}</style><defs><path id="SVGID_1_" d="M157.2-114h272.6v357H157.2z"/></defs><clipPath id="SVGID_2_"><use xlink:href="#SVGID_1_" overflow="visible"/></clipPath><path class="st0" d="M390.7 195.4V-66.4l27-27v315.8l-27-27zM206 202.7h175l27 27H179l27-27zm-9.7-269.1v261.8l-27 27V-93.4l27 27zm185.9-8.5H204.8l-27-27h231.4l-27 27zM215.9 183c7.4-6.9 23.4-14.8 58-13.4 52.9 2.2 88.2-26 104.8-43.3v64.3H210.1c1.1-2.2 2.9-4.9 5.8-7.6m162.8-79.1h-44.3l-28.9-50c-2.2-3.7-8.3-3.7-10.4 0l-11.5 19.9L257 27.9c-1.1-1.9-3.1-3-5.2-3-2.2 0-4.1 1.2-5.2 3l-38.2 66.3v-157h170.3v166.7zm-109 12h102.2c-14.3 15.3-47.6 43.9-97.5 41.7-30.6-1.3-52.7 4.2-66 16.1V116h61.3zm-.6-17.1l-2.9 5.1h-49.5L251.8 43l24.8 42.9-7.5 12.9zm19.7-9.9L300.3 69l20.2 34.9h-40.3l2.4-4.1 6.2-10.9zm141-196.9c0-.8-.2-1.6-.5-2.3-.6-1.5-1.8-2.7-3.3-3.3-.7-.3-1.5-.5-2.3-.5H163.2c-.8 0-1.6.2-2.3.5-1.5.6-2.7 1.8-3.3 3.3-.3.7-.5 1.5-.5 2.3v343.7c0 .2.1.4.1.6-.2 1.7.3 3.5 1.6 4.9 1.2 1.2 2.7 1.8 4.3 1.8 1.2 0 2.4-.5 3.5-1.2h253.6c1 .8 2.2 1.2 3.5 1.2 1.5 0 3.1-.6 4.3-1.8 1.3-1.3 1.8-3.1 1.6-4.9 0-.2.1-.4.1-.6V-108z"/><path class="st0" d="M330.9-27.9c6.6 0 11.9 5.3 11.9 11.9s-5.3 11.9-11.9 11.9S319-9.4 319-16s5.3-11.9 11.9-11.9m0 35.9c13.2 0 23.9-10.7 23.9-23.9s-10.7-23.9-23.9-23.9-24 10.6-24 23.8 10.7 24 24 24"/></svg>