<?xml version="1.0" encoding="utf-8"?>
<!-- Generator: Adobe Illustrator 19.0.0, SVG Export Plug-In . SVG Version: 6.00 Build 0)  -->
<svg version="1.1" id="Layer_1" xmlns="http://www.w3.org/2000/svg" xmlns:xlink="http://www.w3.org/1999/xlink" x="0px" y="0px"
	 viewBox="0 0 111.2 111.2" style="enable-background:new 0 0 111.2 111.2;" xml:space="preserve">
<style type="text/css">
	.st0{clip-path:url(#XMLID_64_);fill:none;stroke:#3F4043;stroke-width:3.195;stroke-linecap:round;stroke-linejoin:round;}
	.st1{clip-path:url(#XMLID_64_);fill:#EC1C59;}
</style>
<g id="XMLID_49_">
	<defs>
		<rect id="XMLID_27_" x="0" y="0" width="103.7" height="110.9"/>
	</defs>
	<clipPath id="XMLID_64_">
		<use xlink:href="#XMLID_27_"  style="overflow:visible;"/>
	</clipPath>
	<path id="XMLID_34_" class="st0" d="M81.7,93.7c1.8,4.3-0.2,9.3-4.5,11.1c-4.3,1.9-9.3-0.1-11.2-4.3c-0.2-0.4-0.6-0.6-1-0.5
		c-0.4,0.1-0.7,0.5-0.7,0.9c-0.1,4.7-3.9,8.4-8.6,8.4c-3.8,0-7.2-2.6-8.3-6.2c-0.1-0.3-0.4-0.6-0.7-0.6c-0.3-0.1-0.7,0.1-0.9,0.3
		c-2.3,3-6.4,4.2-10,2.8c-3.6-1.4-5.8-5-5.4-8.8c0-0.3-0.1-0.7-0.4-0.9c-0.3-0.2-0.7-0.2-1,0c-3.3,2-7.5,1.5-10.3-1.1
		c-3.4-3.2-3.6-8.5-0.5-12c0.3-0.3,0.3-0.8,0.1-1.1c-0.2-0.3-0.7-0.5-1.1-0.3c-4.3,1.8-9.3-0.2-11.2-4.5c-1.9-4.3,0.1-9.3,4.3-11.2
		c0.4-0.2,0.6-0.6,0.5-1c-0.1-0.4-0.5-0.7-0.9-0.7c-4.7-0.1-8.5-3.9-8.5-8.5c0-3.8,2.6-7.2,6.2-8.2c0.3-0.1,0.6-0.4,0.6-0.7
		s-0.1-0.7-0.3-0.9c-3-2.3-4.2-6.4-2.8-9.9c1.4-3.5,5-5.7,8.8-5.4c0.3,0,0.7-0.1,0.9-0.4c0.2-0.3,0.2-0.7,0-1
		c-2-3.3-1.5-7.5,1.1-10.2c3.2-3.4,8.6-3.6,12-0.5c0.3,0.3,0.8,0.3,1.1,0.1c0.3-0.2,0.5-0.7,0.3-1.1c-1.8-4.3,0.2-9.3,4.5-11.1
		s9.3,0.1,11.2,4.3c0.2,0.4,0.6,0.6,1,0.5c0.4-0.1,0.7-0.5,0.7-0.9c0.1-4.6,3.9-8.4,8.6-8.4c3.8,0,7.2,2.6,8.3,6.2
		c0.1,0.3,0.4,0.6,0.7,0.6c0.3,0.1,0.7-0.1,0.9-0.3c2.3-3,6.4-4.2,10-2.8c3.6,1.4,5.8,5,5.4,8.8c0,0.3,0.1,0.7,0.4,0.9
		c0.3,0.2,0.7,0.2,1,0c3.3-2,7.5-1.5,10.3,1.1"/>
	<path id="XMLID_52_" class="st1" d="M89.5,78.2h-8.3V52c0-0.8-0.6-1.4-1.4-1.4H52.2c-0.8,0-1.4,0.6-1.4,1.4v26.3h-8.3V48.5L66,28.9
		l23.5,19.6V78.2z M53.6,67.2h24.9v4.1H53.6V67.2z M78.5,57.5H53.6v-4.2h24.9V57.5z M53.6,60.3h24.9v4.1H53.6V60.3z M91.8,46.7
		L66.9,26c-0.5-0.4-1.3-0.4-1.8,0L40.2,46.7c-0.3,0.3-0.5,0.7-0.5,1.1v31.8c0,0.8,0.6,1.4,1.4,1.4h11.1c0.8,0,1.4-0.6,1.4-1.4v-5.5
		h24.9v5.5c0,0.8,0.6,1.4,1.4,1.4h11.1c0.8,0,1.4-0.6,1.4-1.4V47.8C92.3,47.4,92.1,47,91.8,46.7"/>
	<path id="XMLID_28_" class="st1" d="M102.3,81H29.7c-0.8,0-1.4-0.6-1.4-1.4s0.6-1.4,1.4-1.4h72.6c0.8,0,1.4,0.6,1.4,1.4
		S103.1,81,102.3,81"/>
</g>
</svg>
