<?xml version="1.0" encoding="utf-8"?>
<!-- Generator: Adobe Illustrator 19.0.0, SVG Export Plug-In . SVG Version: 6.00 Build 0)  -->
<svg version="1.1" id="Layer_1" xmlns="http://www.w3.org/2000/svg" xmlns:xlink="http://www.w3.org/1999/xlink" x="0px" y="0px"
	 viewBox="0 0 111.2 111.2" style="enable-background:new 0 0 111.2 111.2;" xml:space="preserve">
<style type="text/css">
	.st0{clip-path:url(#XMLID_65_);fill:none;stroke:#3F4043;stroke-width:3.195;stroke-linecap:round;stroke-linejoin:round;}
	.st1{clip-path:url(#XMLID_65_);fill:#EC1C59;}
</style>
<g id="XMLID_27_">
	<g>
		<defs>
			<rect id="XMLID_28_" x="0" y="0.3" width="100.7" height="110.9"/>
		</defs>
		<clipPath id="XMLID_65_">
			<use xlink:href="#XMLID_28_"  style="overflow:visible;"/>
		</clipPath>
		<path id="XMLID_63_" class="st0" d="M80.4,94c1.8,4.3-0.2,9.3-4.4,11.1c-4.2,1.9-9.2-0.1-11.1-4.3c-0.2-0.4-0.6-0.6-1-0.5
			c-0.4,0.1-0.7,0.5-0.7,0.9c-0.1,4.7-3.8,8.4-8.4,8.4c-3.8,0-7.1-2.6-8.1-6.2c-0.1-0.3-0.4-0.6-0.7-0.6c-0.3-0.1-0.7,0.1-0.9,0.3
			c-2.3,3-6.3,4.2-9.8,2.8c-3.5-1.4-5.7-5-5.3-8.8c0-0.3-0.1-0.7-0.4-0.9c-0.3-0.2-0.7-0.2-0.9,0c-3.2,2-7.4,1.5-10.1-1.1
			c-3.4-3.2-3.6-8.5-0.5-12c0.3-0.3,0.3-0.8,0.1-1.1c-0.2-0.3-0.7-0.5-1.1-0.3c-4.2,1.8-9.2-0.2-11-4.5c-1.8-4.3,0.1-9.3,4.3-11.2
			c0.4-0.2,0.6-0.6,0.5-1c-0.1-0.4-0.4-0.7-0.9-0.7c-4.6-0.1-8.3-3.9-8.3-8.5c0-3.8,2.5-7.2,6.1-8.2c0.3-0.1,0.6-0.4,0.6-0.7
			c0.1-0.3-0.1-0.7-0.3-0.9c-3-2.3-4.1-6.4-2.7-9.9c1.4-3.5,4.9-5.7,8.7-5.4c0.3,0,0.7-0.1,0.8-0.4c0.2-0.3,0.2-0.7,0-1
			c-1.9-3.3-1.5-7.5,1-10.2c3.1-3.4,8.4-3.6,11.8-0.5c0.3,0.3,0.8,0.3,1.1,0.1c0.3-0.2,0.5-0.7,0.3-1.1c-1.8-4.3,0.2-9.3,4.4-11.1
			s9.2,0.1,11.1,4.3c0.2,0.4,0.6,0.6,1,0.5c0.4-0.1,0.7-0.5,0.7-0.9c0.1-4.6,3.8-8.4,8.4-8.4c3.8,0,7.1,2.6,8.1,6.2
			c0.1,0.3,0.4,0.6,0.7,0.6c0.3,0.1,0.7-0.1,0.9-0.3c2.3-3,6.3-4.2,9.8-2.8c3.5,1.4,5.7,5,5.3,8.8c0,0.3,0.1,0.7,0.4,0.9
			c0.3,0.2,0.7,0.2,0.9,0c3.2-2,7.4-1.5,10.1,1.1"/>
		<path class="st1" d="M93.3,79.3h-3.7V46.7c0-0.8-0.7-1.5-1.5-1.5H41.3c-0.8,0-1.5,0.7-1.5,1.5v32.6h-3.7V37.7l28.6-7.8l28.6,7.8
			V79.3z M86.6,79.3h-3.7V58.4c0-0.8-0.7-1.5-1.5-1.5H59.1c-0.8,0-1.5,0.7-1.5,1.5v9.7H48c-0.8,0-1.5,0.7-1.5,1.5v9.7h-3.7V48.2
			h43.9V79.3z M80,68.1h-8.2v-8.2h2.7v2.9h2.9v-2.9H80V68.1z M80,79.3h-8.2V71h2.7v2.9h2.9V71H80V79.3z M68.8,68.1h-8.2v-8.2h2.7
			v2.9h2.9v-2.9h2.7V68.1z M68.8,79.3h-8.2V71h2.7v2.9h2.9V71h2.7V79.3z M57.7,79.3h-8.2V71h2.7v2.9H55V71h2.7V79.3z M96.2,79.3
			V36.6c0-0.7-0.4-1.2-1.1-1.4L65.1,27c-0.2-0.1-0.5-0.1-0.8,0l-30.1,8.2c-0.6,0.2-1.1,0.8-1.1,1.4v42.7h-3c-0.8,0-1.5,0.7-1.5,1.5
			c0,0.8,0.7,1.5,1.5,1.5h69c0.8,0,1.5-0.7,1.5-1.5c0-0.8-0.7-1.5-1.5-1.5H96.2z"/>
	</g>
</g>
</svg>
