<?xml version="1.0" encoding="utf-8"?>
<!-- Generator: Adobe Illustrator 19.0.0, SVG Export Plug-In . SVG Version: 6.00 Build 0)  -->
<svg version="1.1" id="Layer_1" xmlns="http://www.w3.org/2000/svg" xmlns:xlink="http://www.w3.org/1999/xlink" x="0px" y="0px"
	 viewBox="0 0 98 98" style="enable-background:new 0 0 98 98;" xml:space="preserve">
<style type="text/css">
	.st0{clip-path:url(#XMLID_59_);fill:none;stroke:#3F4043;stroke-width:3.2737;stroke-linecap:round;stroke-linejoin:round;}
	.st1{fill:none;stroke:#EC1C59;stroke-width:1.7931;stroke-linecap:round;stroke-linejoin:round;stroke-miterlimit:10;}
	.st2{clip-path:url(#XMLID_60_);fill:#EC1C59;}
	.st3{fill:#EC1C59;}
	
		.st4{clip-path:url(#XMLID_61_);fill:none;stroke:#EC1C59;stroke-width:1.7931;stroke-linecap:round;stroke-linejoin:round;stroke-miterlimit:10;}
</style>
<g id="XMLID_55_">
	<defs>
		<rect id="XMLID_56_" x="0.3" width="89.9" height="98"/>
	</defs>
	<clipPath id="XMLID_59_">
		<use xlink:href="#XMLID_56_"  style="overflow:visible;"/>
	</clipPath>
	<path id="XMLID_57_" class="st0" d="M72.3,82.6c1.6,3.8-0.2,8.2-3.9,9.8c-3.8,1.6-8.2-0.1-9.9-3.8c-0.2-0.3-0.5-0.5-0.9-0.5
		c-0.4,0.1-0.6,0.4-0.6,0.8c-0.1,4.1-3.4,7.4-7.5,7.4c-3.4,0-6.3-2.2-7.3-5.5c-0.1-0.3-0.3-0.5-0.6-0.6c-0.3-0.1-0.6,0.1-0.8,0.3
		c-2,2.7-5.6,3.7-8.8,2.4c-3.1-1.2-5.1-4.4-4.7-7.7c0-0.3-0.1-0.6-0.4-0.8c-0.3-0.2-0.6-0.2-0.8,0c-2.9,1.7-6.6,1.3-9-0.9
		c-3-2.8-3.2-7.5-0.4-10.5c0.3-0.3,0.3-0.7,0.1-1c-0.2-0.3-0.6-0.4-1-0.3c-3.8,1.6-8.2-0.2-9.8-3.9c-1.6-3.8,0.1-8.2,3.8-9.8
		c0.3-0.2,0.5-0.5,0.5-0.9c-0.1-0.4-0.4-0.6-0.8-0.6c-4.1-0.1-7.4-3.4-7.4-7.5c0-3.3,2.3-6.3,5.5-7.2c0.3-0.1,0.5-0.3,0.6-0.6
		c0.1-0.3-0.1-0.6-0.3-0.8c-2.7-2-3.7-5.6-2.4-8.7c1.2-3.1,4.4-5.1,7.8-4.7c0.3,0,0.6-0.1,0.8-0.4c0.2-0.3,0.2-0.6,0-0.8
		c-1.7-2.9-1.4-6.6,0.9-9c2.8-3,7.5-3.2,10.6-0.4c0.3,0.3,0.7,0.3,1,0.1c0.3-0.2,0.4-0.6,0.3-1c-1.6-3.8,0.2-8.2,3.9-9.8
		c3.8-1.6,8.2,0.1,9.9,3.8c0.2,0.3,0.5,0.5,0.9,0.5c0.4-0.1,0.6-0.4,0.6-0.8C42,5,45.3,1.6,49.4,1.6c3.4,0,6.3,2.2,7.3,5.5
		c0.1,0.3,0.3,0.5,0.6,0.6s0.6-0.1,0.8-0.3c2-2.7,5.6-3.7,8.8-2.4c3.1,1.2,5.1,4.4,4.7,7.7c0,0.3,0.1,0.6,0.4,0.8
		c0.3,0.2,0.6,0.2,0.8,0c2.9-1.7,6.6-1.4,9,0.9"/>
</g>
<path id="XMLID_43_" class="st1" d="M68.3,76H27.1V40.3h41.2V76z M57.6,47.7V34.5 M54.8,47.7V36.5 M51.9,47.7V34.5 M43.3,47.7V36.5
	 M49,47.7V36.5 M46.2,47.7V34.5 M40.5,47.7V34.5 M37.6,47.7V36.5 M60.6,26.1h-8.5v-8.5L60.6,26.1z M60.6,25.9v21.7H34.7V17.5h17.2
	L60.6,25.9z"/>
<g id="XMLID_14_">
	<defs>
		<rect id="XMLID_40_" x="0.3" width="89.9" height="98"/>
	</defs>
	<clipPath id="XMLID_60_">
		<use xlink:href="#XMLID_40_"  style="overflow:visible;"/>
	</clipPath>
	<path id="XMLID_42_" class="st2" d="M61.7,52c0,0.8,0.6,1.4,1.4,1.4s1.4-0.6,1.4-1.4s-0.6-1.4-1.4-1.4S61.7,51.3,61.7,52"/>
	<path id="XMLID_41_" class="st2" d="M61.7,57c0,0.8,0.6,1.4,1.4,1.4s1.4-0.6,1.4-1.4c0-0.8-0.6-1.4-1.4-1.4S61.7,56.3,61.7,57"/>
</g>
<rect id="XMLID_13_" x="30.9" y="40.3" class="st3" width="33.5" height="8.7"/>
<g id="XMLID_2_">
	<defs>
		<rect id="XMLID_3_" x="0.3" width="89.9" height="98"/>
	</defs>
	<clipPath id="XMLID_61_">
		<use xlink:href="#XMLID_3_"  style="overflow:visible;"/>
	</clipPath>
	<path id="XMLID_4_" class="st4" d="M68.7,53.6h19.6 M69,57.4h19.3 M69,61.1h20.3 M69,64.8h19.9 M69,68.5h19.3 M69,72.3h19.3
		 M68.7,76h19.6 M68.7,49.9h19.6"/>
</g>
</svg>
