<svg xmlns="http://www.w3.org/2000/svg" xmlns:xlink="http://www.w3.org/1999/xlink" viewBox="115 -114 357 357"><defs><path id="a" d="M114.9-80.3h358v288.8h-358z"/></defs><clipPath id="b"><use xlink:href="#a" overflow="visible"/></clipPath><path d="M470.1 167.2c-.7.4-1.5.6-2.4.6l2.4-.6zm0-40.6c-.7.4-1.5.6-2.4.6l2.4-.6zm0-40.6c-.7.4-1.5.6-2.4.6l2.4-.6zm-217 71.2h44.8l-29.1-18.8c-7.2 2-14.8 3-22.6 3-23.9 0-45.6-9.9-61.2-25.8-15.7-15.9-25.4-38-25.4-62.3C159.6 29 169.3 6.9 185-9c15.7-16 37.3-25.8 61.2-25.8 23.9 0 45.6 9.9 61.2 25.8 15.7 15.9 25.4 38 25.4 62.3 0 7.8-1 15.4-2.9 22.7H365c1.3-7.4 2.1-14.9 2.1-22.7 0-34-13.5-64.7-35.4-86.9-21.9-22.3-52.1-36-85.4-36-66.7 0-120.8 55.1-120.8 123s54.1 123 120.8 123c5.6 0 11.2-.4 16.6-1.2l-12.5-8.1c-2.4-1.6-3.1-4.8-1.6-7.3.9-1.7 2.6-2.6 4.3-2.6zm3.1-27.1l-5.8-3.8c-2.4-1.6-3.1-4.8-1.6-7.3 1-1.6 2.7-2.4 4.4-2.4H298l-47.6-30.8c-2.4-1.6-3.1-4.8-1.6-7.3 1-1.6 2.7-2.4 4.4-2.4h65.9c2.2-7.2 3.3-14.8 3.3-22.7 0-21.4-8.5-40.8-22.3-54.8s-32.8-22.7-53.8-22.7-40.1 8.7-53.8 22.7c-13.8 14-22.3 33.4-22.3 54.8s8.5 40.8 22.3 54.8 32.8 22.7 53.8 22.7c3.3-.1 6.6-.3 9.9-.8m119.4-54.2h92.1c2.9 0 5.2 2.4 5.2 5.3 0 2.1-1.2 3.9-2.8 4.7l-47.2 30.6h44.8c2.9 0 5.2 2.4 5.2 5.3 0 2.1-1.2 3.9-2.8 4.7l-47.2 30.6h44.8c2.9 0 5.2 2.4 5.2 5.3 0 2.1-1.2 3.9-2.8 4.7l-62.3 40.3c-.9.6-1.8.8-2.8.8h-89.2c-1.2 0-2.3-.4-3.2-1.1l-36.8-23.9c-9.5 2.2-19.4 3.4-29.5 3.4C173.8 186.6 115 126.8 115 53S173.7-80.3 246.2-80.3c36.2 0 69.1 15 92.8 39.1 23.8 24.2 38.4 57.6 38.4 94.5.1 7.7-.6 15.3-1.8 22.6m-58.3 81.3h86.3l46.3-30H271l46.3 30zm132.5-70.6H271l46.3 30h86.3l46.2-30zm0 81.2H271l46.3 30h86.3l46.2-30z" clip-path="url(#b)" fill="#fff"/></svg>