<?xml version="1.0" encoding="utf-8"?>
<!-- Generator: Adobe Illustrator 19.0.0, SVG Export Plug-In . SVG Version: 6.00 Build 0)  -->
<svg version="1.1" id="Layer_1" xmlns="http://www.w3.org/2000/svg" xmlns:xlink="http://www.w3.org/1999/xlink" x="0px" y="0px"
	 viewBox="0 0 64 64" style="enable-background:new 0 0 64 64;" xml:space="preserve">
<style type="text/css">
	.st0{clip-path:url(#XMLID_10_);fill:#EC1C59;}
	.st1{clip-path:url(#XMLID_10_);fill:none;stroke:#333232;stroke-width:1.5678;stroke-linecap:round;stroke-linejoin:round;}
</style>
<g id="XMLID_1_">
	<g>
		<defs>
			<rect id="XMLID_2_" width="64" height="64"/>
		</defs>
		<clipPath id="XMLID_10_">
			<use xlink:href="#XMLID_2_"  style="overflow:visible;"/>
		</clipPath>
		<path class="st0" d="M32,22.6c5.2,0,9.4,4.2,9.4,9.4s-4.2,9.4-9.4,9.4s-9.4-4.2-9.4-9.4S26.8,22.6,32,22.6 M20.5,32
			c0,6.3,5.1,11.5,11.5,11.5S43.5,38.3,43.5,32c0-6.3-5.1-11.5-11.5-11.5S20.5,25.7,20.5,32"/>
		<path id="XMLID_6_" class="st0" d="M32.9,46c-0.2-0.3-0.5-0.6-0.9-0.6c-7.4,0-13.4-6-13.4-13.4c0-4.8,2.6-9.2,6.7-11.6
			c0.5-0.3,0.7-0.9,0.4-1.4c-0.3-0.5-0.9-0.7-1.4-0.4c-4.8,2.8-7.8,7.9-7.8,13.5c0,7.5,5.3,13.7,12.3,15.2c0.2,0,0.3,0.2,0.4,0.3
			c0,0.2,0,0.3-0.1,0.5l-0.7,0.7c-0.4,0.4-0.4,1.1,0,1.5c0.2,0.2,0.5,0.3,0.7,0.3c0.3,0,0.5-0.1,0.7-0.3l2.9-2.9
			C33.1,46.9,33.1,46.4,32.9,46"/>
		<path id="XMLID_5_" class="st0" d="M35.2,16.8c-0.2,0-0.3-0.2-0.4-0.3c0-0.2,0-0.3,0.1-0.5l0.7-0.7c0.4-0.4,0.4-1.1,0-1.5
			c-0.4-0.4-1.1-0.4-1.5,0l-2.9,2.9c-0.3,0.3-0.4,0.8-0.2,1.2c0.2,0.4,0.6,0.6,0.9,0.6c7.4,0,13.4,6,13.4,13.4
			c0,4.8-2.6,9.2-6.7,11.6c-0.5,0.3-0.7,0.9-0.4,1.4c0.2,0.3,0.5,0.5,0.9,0.5c0.2,0,0.4,0,0.5-0.1c4.8-2.8,7.8-7.9,7.8-13.5
			C47.5,24.5,42.2,18.3,35.2,16.8"/>
		<path id="XMLID_4_" class="st0" d="M28.8,35.7l0.7-0.2v-2.4H29c-0.4,0-0.7-0.3-0.7-0.7c0-0.4,0.3-0.7,0.7-0.7h0.4v-1.3
			c0-1,0.3-1.8,0.9-2.4c0.5-0.6,1.3-0.9,2.3-0.9c1.3,0,2.1,0.5,2.7,1.1c0.2,0.2,0.3,0.3,0.3,0.6c0,0.5-0.4,0.8-0.8,0.8
			c-0.3,0-0.5-0.1-0.6-0.3c-0.4-0.5-0.8-0.7-1.5-0.7c-0.4,0-0.8,0.1-1,0.4c-0.3,0.3-0.5,0.8-0.5,1.3v1.2h2.8c0.4,0,0.7,0.3,0.7,0.7
			c0,0.4-0.3,0.7-0.7,0.7h-2.8v2.3H35c0.4,0,0.7,0.3,0.7,0.7c0,0.4-0.3,0.7-0.7,0.7h-6c-0.4,0-0.6-0.3-0.6-0.6
			C28.3,36,28.4,35.8,28.8,35.7"/>
		<path id="XMLID_3_" class="st1" d="M5.7,37c-2.7,0-4.9-2.3-4.9-5c0-2.2,1.5-4.2,3.6-4.8c0.2-0.1,0.3-0.2,0.4-0.4
			c0-0.2,0-0.4-0.2-0.5C2.8,25,2.1,22.6,3,20.6c0.8-2.1,2.9-3.3,5.1-3.1c0.2,0,0.4-0.1,0.5-0.2c0.1-0.2,0.1-0.4,0-0.6
			c-1.1-1.9-0.9-4.3,0.6-5.9c1.8-2,5-2.1,7-0.3c0.2,0.2,0.5,0.2,0.7,0c0.2-0.1,0.3-0.4,0.2-0.6c-1-2.5,0.1-5.4,2.6-6.5
			C22,2.3,24.9,3.4,26,5.9c0.1,0.2,0.3,0.3,0.6,0.3C26.9,6.1,27,5.9,27,5.7c0-2.7,2.3-4.9,5-4.9c2.2,0,4.2,1.5,4.8,3.6
			c0.1,0.2,0.2,0.3,0.4,0.4c0.2,0,0.4,0,0.5-0.2C39,2.8,41.4,2.1,43.4,3c2.1,0.8,3.3,2.9,3.1,5.1c0,0.2,0.1,0.4,0.2,0.5
			c0.2,0.1,0.4,0.1,0.6,0c1.9-1.1,4.3-0.9,5.9,0.6c2,1.8,2.1,5,0.3,7c-0.2,0.2-0.2,0.5,0,0.7c0.1,0.2,0.4,0.3,0.6,0.2
			c2.5-1,5.4,0.1,6.5,2.6c1.1,2.5-0.1,5.4-2.5,6.5c-0.2,0.1-0.3,0.3-0.3,0.6c0.1,0.2,0.3,0.4,0.5,0.4c2.7,0,4.9,2.3,4.9,5
			c0,2.2-1.5,4.2-3.6,4.8c-0.2,0.1-0.3,0.2-0.4,0.4c0,0.2,0,0.4,0.2,0.5c1.8,1.3,2.4,3.7,1.6,5.8c-0.8,2.1-2.9,3.3-5.1,3.1
			c-0.2,0-0.4,0.1-0.5,0.2c-0.1,0.2-0.1,0.4,0,0.6c1.1,1.9,0.9,4.3-0.6,5.9c-1.8,2-5,2.1-7,0.3c-0.2-0.2-0.5-0.2-0.7,0
			c-0.2,0.1-0.3,0.4-0.2,0.6c1,2.5-0.1,5.4-2.6,6.5c-2.5,1.1-5.4-0.1-6.5-2.5c-0.1-0.2-0.3-0.3-0.6-0.3c-0.2,0.1-0.4,0.3-0.4,0.5
			c0,2.7-2.3,4.9-5,4.9c-2.2,0-4.2-1.5-4.8-3.6c-0.1-0.2-0.2-0.3-0.4-0.4c-0.2,0-0.4,0-0.5,0.2c-1.3,1.8-3.7,2.4-5.8,1.6
			s-3.3-2.9-3.1-5.1c0-0.2-0.1-0.4-0.2-0.5c-0.2-0.1-0.4-0.1-0.6,0c-1.9,1.1-4.3,0.9-5.9-0.6c-2-1.8-2.1-5-0.3-7
			c0.2-0.2,0.2-0.5,0-0.7c-0.1-0.2-0.4-0.3-0.6-0.2c-2.5,1-5.4-0.1-6.5-2.6C2.3,42,3.4,39.1,5.9,38c0.2-0.1,0.3-0.3,0.3-0.6
			C6.1,37.1,5.9,37,5.7,37z"/>
	</g>
</g>
</svg>
