<?xml version="1.0" encoding="utf-8"?>
<!-- Generator: Adobe Illustrator 19.0.0, SVG Export Plug-In . SVG Version: 6.00 Build 0)  -->
<svg version="1.1" id="Layer_1" xmlns="http://www.w3.org/2000/svg" xmlns:xlink="http://www.w3.org/1999/xlink" x="0px" y="0px"
	 viewBox="0 0 868.9 709.9" style="enable-background:new 0 0 868.9 709.9;" xml:space="preserve">
<style type="text/css">
	.st0{fill:#FFCF3E;}
	.st1{fill:#F1F2F2;}
	.st2{fill:none;stroke:#FFFFFF;stroke-width:11;stroke-miterlimit:10;}
	.st3{fill:none;stroke:#604A9E;stroke-width:3;stroke-linecap:round;stroke-linejoin:round;stroke-miterlimit:10;}
</style>
<path class="st0" d="M689.1,302c26.3-11.8,38.3-42.6,26.7-69.1c-9.6-22.1-32.6-34.3-55.4-31.2c11.2-20.1,8.3-46-8.7-63
	c-17.1-17.1-42.9-20-63-8.7c3.1-22.8-9.1-45.8-31.2-55.4c-26.5-11.5-57.3,0.4-69.1,26.7C487.9,72.3,464.4,49,435.5,49
	c-28.9,0-52.4,23.3-52.8,52.1c-11.8-26.3-42.6-38.3-69.1-26.7c-22.2,9.6-34.3,32.6-31.2,55.4c-20.1-11.2-45.9-8.3-63,8.7
	c-17.1,17.1-20,42.9-8.7,63c-22.8-3.1-45.8,9.1-55.4,31.2c-11.5,26.5,0.4,57.3,26.7,69.1c-28.8,0.4-52.1,23.8-52.1,52.8
	c0,28.9,23.3,52.4,52.1,52.8c-26.3,11.8-38.3,42.6-26.7,69.1c9.6,22.2,32.6,34.3,55.4,31.2c-11.2,20.1-8.3,46,8.7,63
	c17.1,17.1,42.9,20,63,8.7c-3.1,22.8,9.1,45.8,31.2,55.4c26.5,11.5,57.3-0.4,69.1-26.7c0.4,28.8,23.8,52.1,52.8,52.1
	c28.9,0,52.4-23.3,52.8-52.1c11.8,26.3,42.6,38.3,69.1,26.7c22.2-9.6,34.3-32.6,31.2-55.4c20.1,11.2,46,8.3,63-8.7
	c17.1-17.1,20-42.9,8.7-63c22.8,3.1,45.8-9.1,55.4-31.2c11.5-26.5-0.4-57.3-26.7-69.1c28.8-0.4,52.1-23.8,52.1-52.8
	C741.2,325.8,717.9,302.4,689.1,302"/>
<path class="st1" d="M258.9,266.2c0-0.5,0.3-1,0.8-1.3c0,0,0,0,0,0l176.6-102c1.4-0.8,3.2-0.8,4.6,0l176.6,102c0,0,0,0,0,0
	c0.3,0.2,0.6,0.5,0.7,0.9c0,0.1,0.1,0.3,0.1,0.4v183.7c0,0.5-0.3,1-0.8,1.3l-6.4,3.7l-171.8,99.2h0c0,0,0,0,0,0
	c-0.1,0.1-0.2,0.1-0.4,0.1c-0.1,0-0.3,0.1-0.4,0.1h0c0,0-0.1,0-0.1,0c-0.1,0-0.2,0-0.3,0c0,0,0,0-0.1,0c-0.1,0-0.2-0.1-0.3-0.1
	c0,0,0,0,0,0L266,454.9l-6.4-3.7c-0.5-0.3-0.8-0.8-0.8-1.3L258.9,266.2z"/>
<path class="st2" d="M258.9,266.2c0-0.5,0.3-1,0.8-1.3c0,0,0,0,0,0l176.6-102c1.4-0.8,3.2-0.8,4.6,0l176.6,102c0,0,0,0,0,0
	c0.3,0.2,0.6,0.5,0.7,0.9c0,0.1,0.1,0.3,0.1,0.4v183.7c0,0.5-0.3,1-0.8,1.3l-6.4,3.7l-171.8,99.2h0c0,0,0,0,0,0
	c-0.1,0.1-0.2,0.1-0.4,0.1c-0.1,0-0.3,0.1-0.4,0.1h0c0,0-0.1,0-0.1,0c-0.1,0-0.2,0-0.3,0c0,0,0,0-0.1,0c-0.1,0-0.2-0.1-0.3-0.1
	c0,0,0,0,0,0L266,454.9l-6.4-3.7c-0.5-0.3-0.8-0.8-0.8-1.3L258.9,266.2z"/>
<path class="st1" d="M266.7,269.8c0,61.2,0,122.5,0,183.7l-6.4-3.7c0-61.2,0-122.5,0-183.7C262.5,267.4,264.6,268.6,266.7,269.8"/>
<path class="st3" d="M266.7,269.8c0,61.2,0,122.5,0,183.7l-6.4-3.7c0-61.2,0-122.5,0-183.7C262.5,267.4,264.6,268.6,266.7,269.8z"/>
<path class="st1" d="M438.6,170.6c0,61.2,0,122.5,0,183.7c57.3,33.1,114.6,66.1,171.8,99.2c0-61.2,0-122.5,0-183.7
	C553.1,236.8,495.9,203.7,438.6,170.6"/>
<path class="st3" d="M438.6,170.6c0,61.2,0,122.5,0,183.7c57.3,33.1,114.6,66.1,171.8,99.2c0-61.2,0-122.5,0-183.7
	C553.1,236.8,495.9,203.7,438.6,170.6z"/>
<path class="st1" d="M616.8,266.2v183.7c-2.1,1.2-4.2,2.4-6.4,3.7c0-61.2,0-122.5,0-183.7C612.5,268.6,614.7,267.4,616.8,266.2"/>
<path class="st3" d="M616.8,266.2v183.7c-2.1,1.2-4.2,2.4-6.4,3.7c0-61.2,0-122.5,0-183.7C612.5,268.6,614.7,267.4,616.8,266.2z"/>
<path class="st1" d="M438.6,170.6c0,61.2,0,122.5,0,183.7c-38.8,22.4-77.5,44.8-116.3,67.1v0"/>
<path class="st3" d="M438.6,170.6c0,61.2,0,122.5,0,183.7c-38.8,22.4-77.5,44.8-116.3,67.1v0"/>
<path class="st1" d="M260.4,266.2l176.6-102c1-0.6,2.2-0.6,3.1,0c58.9,34,117.8,68,176.6,102l-4.8,2.8c-1,0.6-2.2,0.6-3.2,0
	c-56.8-32.8-113.5-65.5-170.3-98.3l-171.8,99.2L260.4,266.2z"/>
<path class="st3" d="M260.4,266.2l176.6-102c1-0.6,2.2-0.6,3.1,0c58.9,34,117.8,68,176.6,102l-4.8,2.8c-1,0.6-2.2,0.6-3.2,0
	c-56.8-32.8-113.5-65.5-170.3-98.3l-171.8,99.2L260.4,266.2z"/>
<path class="st1" d="M432.2,541.7l-165.5-95.5c2.1-1.2,4.2-2.4,6.4-3.7l165.5,95.5c16.4-9.5,32.8-18.9,49.2-28.4c0,0,0,0,0,0
	c38.8-22.4,77.5-44.8,116.3-67.1c2.1,1.2,4.2,2.5,6.4,3.7c-57.3,33.1-114.6,66.1-171.8,99.2h0l171.9-99.3c0,2.5-0.1,5-0.1,7.4
	c-57.3,33.1-114.6,66.1-171.8,99.2"/>
<path class="st3" d="M432.2,541.7l-165.5-95.5c2.1-1.2,4.2-2.4,6.4-3.7l165.5,95.5c16.4-9.5,32.8-18.9,49.2-28.4c0,0,0,0,0,0
	c38.8-22.4,77.5-44.8,116.3-67.1c2.1,1.2,4.2,2.5,6.4,3.7c-57.3,33.1-114.6,66.1-171.8,99.2h0l171.9-99.3c0,2.5-0.1,5-0.1,7.4
	c-57.3,33.1-114.6,66.1-171.8,99.2"/>
<path class="st1" d="M273.1,442.2L273.1,442.2c55.2-31.8,110.3-63.7,165.5-95.5c55.2,31.8,110.3,63.7,165.5,95.5
	c-55.2,32-110.3,63.9-165.5,95.9c-0.1,0-0.2-0.1-0.2-0.1"/>
<path class="st3" d="M273.1,442.2L273.1,442.2c55.2-31.8,110.3-63.7,165.5-95.5c55.2,31.8,110.3,63.7,165.5,95.5
	c-55.2,32-110.3,63.9-165.5,95.9c-0.1,0-0.2-0.1-0.2-0.1"/>
<line class="st1" x1="438.6" y1="538.1" x2="273.1" y2="442.2"/>
<line class="st3" x1="438.6" y1="538.1" x2="273.1" y2="442.2"/>
<path class="st1" d="M438.6,552.8c-57.3-33.1-114.6-66.1-171.8-99.2v-7.7c57.3,33.2,114.6,66.3,171.9,99.5
	C438.6,547.8,438.6,550.3,438.6,552.8"/>
<path class="st3" d="M438.6,552.8c-57.3-33.1-114.6-66.1-171.8-99.2v-7.7c57.3,33.2,114.6,66.3,171.9,99.5
	C438.6,547.8,438.6,550.3,438.6,552.8z"/>
<polygon class="st1" points="438.6,170.6 266.7,269.8 266.8,446.2 438.6,346.7 "/>
<polygon class="st3" points="438.6,170.6 266.7,269.8 266.8,446.2 438.6,346.7 "/>
<path class="st1" d="M472.8,312.1c0,18.1,0,36.3,0,54.4c-11.4,6.6-22.8,13.2-34.3,19.8l0-54.4L472.8,312.1z"/>
<path class="st3" d="M472.8,312.1c0,18.1,0,36.3,0,54.4c-11.4,6.6-22.8,13.2-34.3,19.8l0-54.4L472.8,312.1z"/>
<path class="st1" d="M438.6,331.9c-11.4-6.6-22.8-13.2-34.3-19.8v54.4c11.4,6.6,22.8,13.2,34.3,19.8L438.6,331.9z"/>
<path class="st3" d="M438.6,331.9c-11.4-6.6-22.8-13.2-34.3-19.8v54.4c11.4,6.6,22.8,13.2,34.3,19.8L438.6,331.9z"/>
<path class="st1" d="M472.8,312.1l-34.3,19.8c-11.4-6.6-22.8-13.2-34.3-19.8c11.4-6.6,22.8-13.2,34.3-19.8
	C450,298.9,461.4,305.5,472.8,312.1"/>
<path class="st3" d="M472.8,312.1l-34.3,19.8c-11.4-6.6-22.8-13.2-34.3-19.8c11.4-6.6,22.8-13.2,34.3-19.8
	C450,298.9,461.4,305.5,472.8,312.1z"/>
<path class="st1" d="M434.2,334.5c0,18.1,0,36.3,0,54.4c-11.4,6.6-22.8,13.2-34.3,19.8c0-18.1,0-36.3,0-54.4L434.2,334.5z"/>
<path class="st3" d="M434.2,334.5c0,18.1,0,36.3,0,54.4c-11.4,6.6-22.8,13.2-34.3,19.8c0-18.1,0-36.3,0-54.4L434.2,334.5z"/>
<path class="st1" d="M399.9,354.2c-11.4-6.6-22.8-13.2-34.3-19.8v54.4l34.3,19.8C399.9,390.5,399.9,372.4,399.9,354.2"/>
<path class="st3" d="M399.9,354.2c-11.4-6.6-22.8-13.2-34.3-19.8v54.4l34.3,19.8C399.9,390.5,399.9,372.4,399.9,354.2z"/>
<path class="st1" d="M434.2,334.5l-34.3,19.8c-11.4-6.6-22.8-13.2-34.3-19.8l34.3-19.8C411.3,321.3,422.7,327.9,434.2,334.5"/>
<path class="st3" d="M434.2,334.5l-34.3,19.8c-11.4-6.6-22.8-13.2-34.3-19.8l34.3-19.8C411.3,321.3,422.7,327.9,434.2,334.5z"/>
<path class="st1" d="M395.5,356.5c0,18.1,0,36.3,0,54.4c-11.4,6.6-22.8,13.2-34.3,19.8l0-54.4C372.6,369.7,384,363.1,395.5,356.5"/>
<path class="st3" d="M395.5,356.5c0,18.1,0,36.3,0,54.4c-11.4,6.6-22.8,13.2-34.3,19.8l0-54.4C372.6,369.7,384,363.1,395.5,356.5z"
	/>
<polygon class="st1" points="361.2,376.3 326.9,356.5 326.9,410.9 361.2,430.7 "/>
<polygon class="st3" points="361.2,376.3 326.9,356.5 326.9,410.9 361.2,430.7 "/>
<path class="st1" d="M395.5,356.5c-11.4,6.6-22.8,13.2-34.3,19.8l-34.3-19.8c11.4-6.6,22.8-13.2,34.3-19.8
	C372.6,343.3,384,349.9,395.5,356.5"/>
<path class="st3" d="M395.5,356.5c-11.4,6.6-22.8,13.2-34.3,19.8l-34.3-19.8c11.4-6.6,22.8-13.2,34.3-19.8
	C372.6,343.3,384,349.9,395.5,356.5z"/>
<path class="st1" d="M453.2,269.1c0,18.1,0,36.3,0,54.4c-11.4,6.6-22.8,13.2-34.3,19.8c0-18.1,0-36.3,0-54.4
	C430.4,282.2,441.8,275.7,453.2,269.1"/>
<path class="st3" d="M453.2,269.1c0,18.1,0,36.3,0,54.4c-11.4,6.6-22.8,13.2-34.3,19.8c0-18.1,0-36.3,0-54.4
	C430.4,282.2,441.8,275.7,453.2,269.1z"/>
<path class="st1" d="M419,288.8c-11.4-6.6-22.8-13.2-34.3-19.8v54.4c11.4,6.6,22.8,13.2,34.3,19.8C419,325.1,419,307,419,288.8"/>
<path class="st3" d="M419,288.8c-11.4-6.6-22.8-13.2-34.3-19.8v54.4c11.4,6.6,22.8,13.2,34.3,19.8C419,325.1,419,307,419,288.8z"/>
<path class="st1" d="M453.2,269.1c-11.4,6.6-22.8,13.2-34.3,19.8c-11.4-6.6-22.8-13.2-34.3-19.8l34.3-19.8
	C430.4,255.9,441.8,262.5,453.2,269.1"/>
<path class="st3" d="M453.2,269.1c-11.4,6.6-22.8,13.2-34.3,19.8c-11.4-6.6-22.8-13.2-34.3-19.8l34.3-19.8
	C430.4,255.9,441.8,262.5,453.2,269.1z"/>
<path class="st1" d="M414.6,291.1c0,18.1,0,36.3,0,54.4c-11.4,6.6-22.8,13.2-34.3,19.8c0-18.1,0-36.3,0-54.4L414.6,291.1z"/>
<path class="st3" d="M414.6,291.1c0,18.1,0,36.3,0,54.4c-11.4,6.6-22.8,13.2-34.3,19.8c0-18.1,0-36.3,0-54.4L414.6,291.1z"/>
<path class="st1" d="M380.3,310.9c-11.4-6.6-22.8-13.2-34.3-19.8v54.4c11.4,6.6,22.8,13.2,34.3,19.8
	C380.3,347.1,380.3,329,380.3,310.9"/>
<path class="st3" d="M380.3,310.9c-11.4-6.6-22.8-13.2-34.3-19.8v54.4c11.4,6.6,22.8,13.2,34.3,19.8
	C380.3,347.1,380.3,329,380.3,310.9z"/>
<path class="st1" d="M414.6,291.1l-34.3,19.8c-11.4-6.6-22.8-13.2-34.3-19.8c11.4-6.6,22.8-13.2,34.3-19.8
	C391.7,277.9,403.1,284.5,414.6,291.1"/>
<path class="st3" d="M414.6,291.1l-34.3,19.8c-11.4-6.6-22.8-13.2-34.3-19.8c11.4-6.6,22.8-13.2,34.3-19.8
	C391.7,277.9,403.1,284.5,414.6,291.1z"/>
<path class="st1" d="M511.5,334.5c0,18.1,0,36.3,0,54.4l-34.3,19.8c0-18.1,0-36.3,0-54.4C488.7,347.7,500.1,341.1,511.5,334.5"/>
<path class="st3" d="M511.5,334.5c0,18.1,0,36.3,0,54.4l-34.3,19.8c0-18.1,0-36.3,0-54.4C488.7,347.7,500.1,341.1,511.5,334.5z"/>
<path class="st1" d="M477.3,354.2c-11.4-6.6-22.8-13.2-34.3-19.8v54.4c11.4,6.6,22.8,13.2,34.3,19.8
	C477.3,390.5,477.3,372.4,477.3,354.2"/>
<path class="st3" d="M477.3,354.2c-11.4-6.6-22.8-13.2-34.3-19.8v54.4c11.4,6.6,22.8,13.2,34.3,19.8
	C477.3,390.5,477.3,372.4,477.3,354.2z"/>
<path class="st1" d="M511.5,334.5c-11.4,6.6-22.8,13.2-34.3,19.8c-11.4-6.6-22.8-13.2-34.3-19.8c11.4-6.6,22.8-13.2,34.3-19.8
	C488.7,321.3,500.1,327.9,511.5,334.5"/>
<path class="st3" d="M511.5,334.5c-11.4,6.6-22.8,13.2-34.3,19.8c-11.4-6.6-22.8-13.2-34.3-19.8c11.4-6.6,22.8-13.2,34.3-19.8
	C488.7,321.3,500.1,327.9,511.5,334.5z"/>
<path class="st1" d="M472.8,356.9c0,18.1,0,36.3,0,54.4L438.6,431c0-18.1,0-36.3,0-54.4C450,370,461.4,363.4,472.8,356.9"/>
<path class="st3" d="M472.8,356.9c0,18.1,0,36.3,0,54.4L438.6,431c0-18.1,0-36.3,0-54.4C450,370,461.4,363.4,472.8,356.9z"/>
<path class="st1" d="M438.6,376.6c-11.4-6.6-22.8-13.2-34.3-19.8v54.4c11.4,6.6,22.8,13.2,34.3,19.8
	C438.6,412.9,438.6,394.8,438.6,376.6"/>
<path class="st3" d="M438.6,376.6c-11.4-6.6-22.8-13.2-34.3-19.8v54.4c11.4,6.6,22.8,13.2,34.3,19.8
	C438.6,412.9,438.6,394.8,438.6,376.6z"/>
<path class="st1" d="M472.8,356.9c-11.4,6.6-22.8,13.2-34.3,19.8c-11.4-6.6-22.8-13.2-34.3-19.8c11.4-6.6,22.8-13.2,34.3-19.8
	C450,343.7,461.4,350.3,472.8,356.9"/>
<path class="st3" d="M472.8,356.9c-11.4,6.6-22.8,13.2-34.3,19.8c-11.4-6.6-22.8-13.2-34.3-19.8c11.4-6.6,22.8-13.2,34.3-19.8
	C450,343.7,461.4,350.3,472.8,356.9z"/>
<path class="st1" d="M434.2,378.9c0,18.1,0,36.3,0,54.4c-11.4,6.6-22.8,13.2-34.3,19.8c0-18.1,0-36.3,0-54.4
	C411.3,392.1,422.7,385.5,434.2,378.9"/>
<path class="st3" d="M434.2,378.9c0,18.1,0,36.3,0,54.4c-11.4,6.6-22.8,13.2-34.3,19.8c0-18.1,0-36.3,0-54.4
	C411.3,392.1,422.7,385.5,434.2,378.9z"/>
<path class="st1" d="M399.9,398.7c-11.4-6.6-22.8-13.2-34.3-19.8v54.4c11.4,6.6,22.8,13.2,34.3,19.8
	C399.9,434.9,399.9,416.8,399.9,398.7"/>
<path class="st3" d="M399.9,398.7c-11.4-6.6-22.8-13.2-34.3-19.8v54.4c11.4,6.6,22.8,13.2,34.3,19.8
	C399.9,434.9,399.9,416.8,399.9,398.7z"/>
<path class="st1" d="M434.2,378.9c-11.4,6.6-22.8,13.2-34.3,19.8c-11.4-6.6-22.8-13.2-34.3-19.8c11.4-6.6,22.8-13.2,34.3-19.8
	C411.3,365.7,422.7,372.3,434.2,378.9"/>
<path class="st3" d="M434.2,378.9c-11.4,6.6-22.8,13.2-34.3,19.8c-11.4-6.6-22.8-13.2-34.3-19.8c11.4-6.6,22.8-13.2,34.3-19.8
	C411.3,365.7,422.7,372.3,434.2,378.9z"/>
<path class="st1" d="M550.2,356.9c0,18.1,0,36.3,0,54.4L516,431c0-18.1,0-36.3,0-54.4C527.4,370,538.8,363.4,550.2,356.9"/>
<path class="st3" d="M550.2,356.9c0,18.1,0,36.3,0,54.4L516,431c0-18.1,0-36.3,0-54.4C527.4,370,538.8,363.4,550.2,356.9z"/>
<path class="st1" d="M516,376.6c-11.4-6.6-22.8-13.2-34.3-19.8v54.4c11.4,6.6,22.8,13.2,34.3,19.8C516,412.9,516,394.8,516,376.6"/>
<path class="st3" d="M516,376.6c-11.4-6.6-22.8-13.2-34.3-19.8v54.4c11.4,6.6,22.8,13.2,34.3,19.8C516,412.9,516,394.8,516,376.6z"
	/>
<path class="st1" d="M550.2,356.9c-11.4,6.6-22.8,13.2-34.3,19.8c-11.4-6.6-22.8-13.2-34.3-19.8c11.4-6.6,22.8-13.2,34.3-19.8
	C527.4,343.7,538.8,350.3,550.2,356.9"/>
<path class="st3" d="M550.2,356.9c-11.4,6.6-22.8,13.2-34.3,19.8c-11.4-6.6-22.8-13.2-34.3-19.8c11.4-6.6,22.8-13.2,34.3-19.8
	C527.4,343.7,538.8,350.3,550.2,356.9z"/>
<path class="st1" d="M511.5,379.2c0,18.1,0,36.3,0,54.4c-11.4,6.6-22.8,13.2-34.3,19.8c0-18.1,0-36.3,0-54.4
	C488.7,392.4,500.1,385.8,511.5,379.2"/>
<path class="st3" d="M511.5,379.2c0,18.1,0,36.3,0,54.4c-11.4,6.6-22.8,13.2-34.3,19.8c0-18.1,0-36.3,0-54.4
	C488.7,392.4,500.1,385.8,511.5,379.2z"/>
<path class="st1" d="M477.3,399c-11.4-6.6-22.8-13.2-34.3-19.8v54.4c11.4,6.6,22.8,13.2,34.3,19.8
	C477.3,435.3,477.3,417.2,477.3,399"/>
<path class="st3" d="M477.3,399c-11.4-6.6-22.8-13.2-34.3-19.8v54.4c11.4,6.6,22.8,13.2,34.3,19.8
	C477.3,435.3,477.3,417.2,477.3,399z"/>
<path class="st1" d="M511.5,379.2c-11.4,6.6-22.8,13.2-34.3,19.8c-11.4-6.6-22.8-13.2-34.3-19.8c11.4-6.6,22.8-13.2,34.3-19.8
	C488.7,366.1,500.1,372.7,511.5,379.2"/>
<path class="st3" d="M511.5,379.2c-11.4,6.6-22.8,13.2-34.3,19.8c-11.4-6.6-22.8-13.2-34.3-19.8c11.4-6.6,22.8-13.2,34.3-19.8
	C488.7,366.1,500.1,372.7,511.5,379.2z"/>
<path class="st1" d="M472.8,401.3c0,18.1,0,36.3,0,54.4l-34.3,19.8c0-18.1,0-36.3,0-54.4C450,414.5,461.4,407.9,472.8,401.3"/>
<path class="st3" d="M472.8,401.3c0,18.1,0,36.3,0,54.4l-34.3,19.8c0-18.1,0-36.3,0-54.4C450,414.5,461.4,407.9,472.8,401.3z"/>
<path class="st1" d="M438.6,421.1c-11.4-6.6-22.8-13.2-34.3-19.8v54.4c11.4,6.6,22.8,13.2,34.3,19.8
	C438.6,457.3,438.6,439.2,438.6,421.1"/>
<path class="st3" d="M438.6,421.1c-11.4-6.6-22.8-13.2-34.3-19.8v54.4c11.4,6.6,22.8,13.2,34.3,19.8
	C438.6,457.3,438.6,439.2,438.6,421.1z"/>
<path class="st1" d="M472.8,401.3c-11.4,6.6-22.8,13.2-34.3,19.8c-11.4-6.6-22.8-13.2-34.3-19.8c11.4-6.6,22.8-13.2,34.3-19.8
	C450,388.1,461.4,394.7,472.8,401.3"/>
<path class="st3" d="M472.8,401.3c-11.4,6.6-22.8,13.2-34.3,19.8c-11.4-6.6-22.8-13.2-34.3-19.8c11.4-6.6,22.8-13.2,34.3-19.8
	C450,388.1,461.4,394.7,472.8,401.3z"/>
<path class="st1" d="M492.8,291c0,18.1,0,36.3,0,54.4c-11.4,6.6-22.8,13.2-34.3,19.8c0-18.1,0-36.3,0-54.4L492.8,291z"/>
<path class="st3" d="M492.8,291c0,18.1,0,36.3,0,54.4c-11.4,6.6-22.8,13.2-34.3,19.8c0-18.1,0-36.3,0-54.4L492.8,291z"/>
<path class="st1" d="M458.5,310.8c-11.4-6.6-22.8-13.2-34.3-19.8v54.4c11.4,6.6,22.8,13.2,34.3,19.8
	C458.5,347,458.5,328.9,458.5,310.8"/>
<path class="st3" d="M458.5,310.8c-11.4-6.6-22.8-13.2-34.3-19.8v54.4c11.4,6.6,22.8,13.2,34.3,19.8
	C458.5,347,458.5,328.9,458.5,310.8z"/>
<path class="st1" d="M492.8,291l-34.3,19.8c-11.4-6.6-22.8-13.2-34.3-19.8c11.4-6.6,22.8-13.2,34.3-19.8
	C470,277.8,481.4,284.4,492.8,291"/>
<path class="st3" d="M492.8,291l-34.3,19.8c-11.4-6.6-22.8-13.2-34.3-19.8c11.4-6.6,22.8-13.2,34.3-19.8
	C470,277.8,481.4,284.4,492.8,291z"/>
<path class="st1" d="M454.1,313c0,18.1,0,36.3,0,54.4l-34.3,19.8c0-18.1,0-36.3,0-54.4C431.3,326.2,442.7,319.6,454.1,313"/>
<path class="st3" d="M454.1,313c0,18.1,0,36.3,0,54.4l-34.3,19.8c0-18.1,0-36.3,0-54.4C431.3,326.2,442.7,319.6,454.1,313z"/>
<path class="st1" d="M419.9,332.8c-11.4-6.6-22.8-13.2-34.3-19.8v54.4c11.4,6.6,22.8,13.2,34.3,19.8
	C419.9,369.1,419.9,350.9,419.9,332.8"/>
<path class="st3" d="M419.9,332.8c-11.4-6.6-22.8-13.2-34.3-19.8v54.4c11.4,6.6,22.8,13.2,34.3,19.8
	C419.9,369.1,419.9,350.9,419.9,332.8z"/>
<path class="st1" d="M454.1,313c-11.4,6.6-22.8,13.2-34.3,19.8c-11.4-6.6-22.8-13.2-34.3-19.8c11.4-6.6,22.8-13.2,34.3-19.8
	C431.3,299.8,442.7,306.4,454.1,313"/>
<path class="st3" d="M454.1,313c-11.4,6.6-22.8,13.2-34.3,19.8c-11.4-6.6-22.8-13.2-34.3-19.8c11.4-6.6,22.8-13.2,34.3-19.8
	C431.3,299.8,442.7,306.4,454.1,313z"/>
<path class="st1" d="M531.8,313c0,18.1,0,36.3,0,54.4l-34.3,19.8c0-18.1,0-36.3,0-54.4C509,326.2,520.4,319.6,531.8,313"/>
<path class="st3" d="M531.8,313c0,18.1,0,36.3,0,54.4l-34.3,19.8c0-18.1,0-36.3,0-54.4C509,326.2,520.4,319.6,531.8,313z"/>
<path class="st1" d="M497.6,332.8c-11.4-6.6-22.8-13.2-34.3-19.8v54.4c11.4,6.6,22.8,13.2,34.3,19.8
	C497.6,369.1,497.6,350.9,497.6,332.8"/>
<path class="st3" d="M497.6,332.8c-11.4-6.6-22.8-13.2-34.3-19.8v54.4c11.4,6.6,22.8,13.2,34.3,19.8
	C497.6,369.1,497.6,350.9,497.6,332.8z"/>
<path class="st1" d="M531.8,313c-11.4,6.6-22.8,13.2-34.3,19.8c-11.4-6.6-22.8-13.2-34.3-19.8c11.4-6.6,22.8-13.2,34.3-19.8
	C509,299.8,520.4,306.4,531.8,313"/>
<path class="st3" d="M531.8,313c-11.4,6.6-22.8,13.2-34.3,19.8c-11.4-6.6-22.8-13.2-34.3-19.8c11.4-6.6,22.8-13.2,34.3-19.8
	C509,299.8,520.4,306.4,531.8,313z"/>
</svg>
