<?xml version="1.0" encoding="utf-8"?>
<!-- Generator: Adobe Illustrator 19.0.0, SVG Export Plug-In . SVG Version: 6.00 Build 0)  -->
<svg version="1.1" id="Layer_1" xmlns="http://www.w3.org/2000/svg" xmlns:xlink="http://www.w3.org/1999/xlink" x="0px" y="0px"
	 viewBox="0 0 64 64" style="enable-background:new 0 0 64 64;" xml:space="preserve">
<style type="text/css">
	.st0{fill:none;stroke:#EC1C59;stroke-width:1.3454;stroke-linecap:round;stroke-linejoin:round;stroke-miterlimit:10;}
	.st1{clip-path:url(#XMLID_19_);fill:#EC1C59;}
	.st2{clip-path:url(#XMLID_19_);fill:none;stroke:#333232;stroke-width:1.5621;stroke-linecap:round;stroke-linejoin:round;}
</style>
<g id="XMLID_1_">
	<path id="XMLID_17_" class="st0" d="M26.9,43.9h14 M26.9,41.2h13.7 M26.9,38.4h14.4 M26.9,35.7h15.4 M26.9,33h16.8 M46.7,30.3H26.9
		v16.4 M58.2,22l-20.3-9.6L17.6,22v4.7h40.6V22z M17.6,22.1h40.6 M17.6,46.7h25.3 M21.1,30.3v16.4"/>
	<g>
		<defs>
			<rect id="XMLID_2_" x="0.2" width="64" height="64"/>
		</defs>
		<clipPath id="XMLID_19_">
			<use xlink:href="#XMLID_2_"  style="overflow:visible;"/>
		</clipPath>
		<path class="st1" d="M54.4,33.1c-4.6,0-8.3,3.7-8.3,8.3s3.7,8.3,8.3,8.3c4.6,0,8.3-3.7,8.3-8.3S58.9,33.1,54.4,33.1 M54.4,51.4
			c-5.4,0-9.9-4.5-9.9-9.9c0-5.5,4.4-9.9,9.9-9.9c5.4,0,9.9,4.5,9.9,9.9C64.2,46.9,59.8,51.4,54.4,51.4"/>
		<path id="XMLID_4_" class="st1" d="M59.1,36.9l-3.9,5.7c-0.6,0.8-1.7,0.9-2.4,0.2c-0.7-0.7-0.6-1.9,0.2-2.4l5.7-3.9
			C59,36.3,59.3,36.6,59.1,36.9"/>
		<path id="XMLID_3_" class="st2" d="M47,54.2c1,2.5-0.1,5.4-2.6,6.5c-2.5,1.1-5.4-0.1-6.5-2.5c-0.1-0.2-0.3-0.3-0.6-0.3
			c-0.2,0.1-0.4,0.3-0.4,0.5c0,2.7-2.2,4.9-4.9,4.9c-2.2,0-4.1-1.5-4.7-3.6c-0.1-0.2-0.2-0.3-0.4-0.4c-0.2,0-0.4,0-0.5,0.2
			c-1.3,1.8-3.7,2.4-5.7,1.6c-2-0.8-3.3-2.9-3.1-5.1c0-0.2-0.1-0.4-0.2-0.5c-0.2-0.1-0.4-0.1-0.6,0c-1.9,1.1-4.3,0.9-5.9-0.6
			c-2-1.8-2.1-5-0.3-7c0.2-0.2,0.2-0.5,0-0.7C10.5,47,10.2,46.9,10,47c-2.5,1-5.4-0.1-6.4-2.6C2.5,42,3.6,39.1,6.1,38
			c0.2-0.1,0.3-0.3,0.3-0.6C6.3,37.1,6.1,37,5.9,37c-2.7,0-4.9-2.3-4.9-5c0-2.2,1.5-4.2,3.6-4.8C4.8,27.2,4.9,27,5,26.8
			c0-0.2,0-0.4-0.2-0.5C3,25,2.4,22.6,3.2,20.6c0.8-2.1,2.9-3.3,5.1-3.1c0.2,0,0.4-0.1,0.5-0.2c0.1-0.2,0.1-0.4,0-0.6
			c-1.1-1.9-0.9-4.3,0.6-5.9c1.8-2,4.9-2.1,6.9-0.3c0.2,0.2,0.5,0.2,0.7,0c0.2-0.1,0.3-0.4,0.2-0.6c-1-2.5,0.1-5.4,2.6-6.5
			c2.5-1.1,5.4,0.1,6.5,2.5c0.1,0.2,0.3,0.3,0.6,0.3c0.2-0.1,0.4-0.3,0.4-0.5c0-2.7,2.2-4.9,4.9-4.9c2.2,0,4.1,1.5,4.7,3.6
			c0.1,0.2,0.2,0.3,0.4,0.4c0.2,0,0.4,0,0.5-0.2c1.3-1.8,3.7-2.4,5.7-1.6c2,0.8,3.3,2.9,3.1,5.1c0,0.2,0.1,0.4,0.2,0.5
			c0.2,0.1,0.4,0.1,0.6,0c1.9-1.1,4.3-0.9,5.9,0.6"/>
	</g>
</g>
</svg>
