<?xml version="1.0" encoding="utf-8"?>
<!-- Generator: Adobe Illustrator 19.0.0, SVG Export Plug-In . SVG Version: 6.00 Build 0)  -->
<svg version="1.1" id="Layer_1" xmlns="http://www.w3.org/2000/svg" xmlns:xlink="http://www.w3.org/1999/xlink" x="0px" y="0px"
	 viewBox="0 0 64 64" style="enable-background:new 0 0 64 64;" xml:space="preserve">
<style type="text/css">
	.st0{clip-path:url(#XMLID_6_);fill:#EC1C59;}
	.st1{clip-path:url(#XMLID_6_);fill:#FFFFFF;}
</style>
<g id="XMLID_1_">
	<g>
		<defs>
			<rect id="XMLID_2_" width="64" height="64"/>
		</defs>
		<clipPath id="XMLID_6_">
			<use xlink:href="#XMLID_2_"  style="overflow:visible;"/>
		</clipPath>
		<path id="XMLID_4_" class="st0" d="M58.5,26.5c2.8-1.2,4-4.5,2.8-7.2c-1-2.3-3.4-3.6-5.8-3.3c1.2-2.1,0.9-4.8-0.9-6.6
			c-1.8-1.8-4.5-2.1-6.6-0.9c0.3-2.4-1-4.8-3.3-5.8c-2.8-1.2-6,0-7.2,2.8C37.5,2.4,35,0,32,0c-3,0-5.5,2.4-5.5,5.5
			c-1.2-2.8-4.5-4-7.2-2.8c-2.3,1-3.6,3.4-3.3,5.8c-2.1-1.2-4.8-0.9-6.6,0.9c-1.8,1.8-2.1,4.5-0.9,6.6c-2.4-0.3-4.8,0.9-5.8,3.3
			c-1.2,2.8,0,6,2.8,7.2C2.4,26.5,0,29,0,32c0,3,2.4,5.5,5.5,5.5c-2.8,1.2-4,4.5-2.8,7.2c1,2.3,3.4,3.6,5.8,3.3
			c-1.2,2.1-0.9,4.8,0.9,6.6c1.8,1.8,4.5,2.1,6.6,0.9c-0.3,2.4,1,4.8,3.3,5.8c2.8,1.2,6,0,7.2-2.8c0,3,2.5,5.5,5.5,5.5
			c3,0,5.5-2.4,5.5-5.5c1.2,2.8,4.5,4,7.2,2.8c2.3-1,3.6-3.4,3.3-5.8c2.1,1.2,4.8,0.9,6.6-0.9c1.8-1.8,2.1-4.5,0.9-6.6
			c2.4,0.3,4.8-1,5.8-3.3c1.2-2.8,0-6-2.8-7.2c3,0,5.5-2.5,5.5-5.5C64,29,61.6,26.5,58.5,26.5"/>
		<path id="XMLID_3_" class="st1" d="M27.8,42.5L27.8,42.5c-0.8,0-1.5-0.3-2-0.8l-7.1-7c-1.1-1.1-1.1-2.9,0-4c1.1-1.1,2.9-1.1,4,0
			l5.1,5l13.5-13.4c1.1-1.1,2.9-1.1,4,0c1.1,1.1,1.1,2.9,0,4L29.8,41.7C29.3,42.2,28.6,42.5,27.8,42.5"/>
	</g>
</g>
</svg>
