<?xml version="1.0" encoding="utf-8"?>
<!-- Generator: Adobe Illustrator 19.0.0, SVG Export Plug-In . SVG Version: 6.00 Build 0)  -->
<svg version="1.1" id="Layer_1" xmlns="http://www.w3.org/2000/svg" xmlns:xlink="http://www.w3.org/1999/xlink" x="0px" y="0px"
	 viewBox="0 0 30 30" style="enable-background:new 0 0 30 30;" xml:space="preserve">
<style type="text/css">
	.st0{clip-path:url(#XMLID_27_);fill:none;stroke:#2E65B0;stroke-width:0.5453;}
	.st1{clip-path:url(#XMLID_27_);fill:none;stroke:#ED2024;stroke-width:0.5453;}
	.st2{clip-path:url(#XMLID_27_);fill:none;stroke:#383839;stroke-width:0.6662;stroke-linejoin:round;stroke-miterlimit:10;}
</style>
<g id="XMLID_1_">
	<g>
		<defs>
			<rect id="XMLID_2_" x="0" y="6.6" width="30" height="16.9"/>
		</defs>
		<clipPath id="XMLID_27_">
			<use xlink:href="#XMLID_2_"  style="overflow:visible;"/>
		</clipPath>
		<path id="XMLID_25_" class="st0" d="M1.7,21.8c0,0,2.3-7.2,5.8-5.1c2.7,1.6,2.7,6.7,5.6,6.4"/>
		<path id="XMLID_24_" class="st1" d="M0.3,21.8c0,0,2.3-7.2,5.8-5.1c2.7,1.6,2.8,6.4,7.1,6.4"/>
		<path id="XMLID_3_" class="st2" d="M17.5,13l-0.8-0.8 M15.5,11l-0.8-0.8 M15.5,12.2L14.7,13 M17.5,10.2L16.7,11 M25.6,22.7
			l-0.8-0.8 M23.5,20.7l-0.8-0.8 M23.5,21.9l-0.8,0.8 M25.6,19.9l-0.8,0.8 M30,16.6h-1.2 M27.2,16.6H26 M28,17.5v1.2 M28,14.6v1.2
			 M20.7,7.8h-0.8 M19.1,7.8h-0.8 M19.5,8.2V9 M19.5,6.6v0.8 M17.1,21.5l-2.4-2.4 M27.2,11.8l-2.4-2.4 M15.9,20.3L26,10.6
			 M28.1,10.8c0.3-0.3,0.3-0.8,0-1.1l-1.2-1.2c-0.3-0.3-0.8-0.3-1.1,0L14.7,19.1l-1.6,4l4-1.6L28.1,10.8z"/>
	</g>
</g>
</svg>
