<?xml version="1.0" encoding="utf-8"?>
<!-- Generator: Adobe Illustrator 19.0.0, SVG Export Plug-In . SVG Version: 6.00 Build 0)  -->
<svg version="1.1" id="Layer_1" xmlns="http://www.w3.org/2000/svg" xmlns:xlink="http://www.w3.org/1999/xlink" x="0px" y="0px"
	 viewBox="0 0 1432 194" enable-background="new 0 0 1432 194" xml:space="preserve">
<g>
	<path d="M1077.833,175.107h20.487v-25.727c-0.249-0.973-2.58-9.213-10.215-9.213h-0.059c-7.701,0-9.957,8.166-10.214,9.21V175.107z
		 M1088.047,138.259h0.059c9.587,0,12.078,10.694,12.103,10.803c0.015,0.066,0.021,0.138,0.021,0.207v26.794
		c0,0.527-0.427,0.955-0.954,0.955h-22.397c-0.528,0-0.955-0.428-0.955-0.955v-26.794c0-0.069,0.008-0.139,0.022-0.207
		C1075.97,148.953,1078.453,138.259,1088.047,138.259"/>
	<path d="M807.914,126.542h-6.466c-1.114,8.399-2.576,15.512-4.354,21.175h15.174C810.489,142.056,809.027,134.943,807.914,126.542
		 M795.781,149.626c-0.308,0-0.595-0.148-0.776-0.398c-0.179-0.25-0.227-0.57-0.128-0.861c1.984-5.914,3.594-13.621,4.784-22.901
		c0.063-0.476,0.466-0.833,0.948-0.833h8.143c0.482,0,0.887,0.357,0.947,0.833c1.192,9.282,2.803,16.989,4.787,22.901
		c0.099,0.291,0.05,0.611-0.129,0.861c-0.181,0.25-0.468,0.398-0.776,0.398H795.781z"/>
	<path d="M796.147,172.009c0.526,0,0.954,0.427,0.954,0.955v9.062h26.577v-2.7c0-0.286,0.128-0.545,0.329-0.72
		c-1.445-3.83-6.514-13.986-19.658-14.08c-7.922,0.057-12.898,3.815-15.872,7.483H796.147z M804.35,162.616
		c15.916,0.112,20.975,13.701,21.828,16.425c0.091,0.29,0.037,0.605-0.142,0.85c-0.115,0.155-0.269,0.27-0.447,0.334v2.755
		c0,0.528-0.427,0.955-0.955,0.955h-28.486c-0.528,0-0.955-0.427-0.955-0.955v-9.062h-8.615c-0.354,0-0.678-0.195-0.844-0.51
		c-0.164-0.313-0.145-0.69,0.056-0.983C788.822,167.988,794.502,162.686,804.35,162.616"/>
	<path d="M1333.596,146.727v-1.833l-0.012-0.028l-0.009,0.028L1333.596,146.727z M1360.35,144.894l-0.01-0.033l-0.015,2.114
		L1360.35,144.894z M716.83,163.969v-11.935c0-0.526,0.427-0.954,0.954-0.954h8.536v-1.553c0-0.527,0.428-0.955,0.955-0.955h19.155
		c0.527,0,0.955,0.428,0.955,0.955v0.803h5.968c0.293,0,0.571,0.135,0.752,0.366l4.713,6.016c0.133,0.168,0.204,0.376,0.204,0.589
		v14.708h19.48c2.858-4.631,5.469-10.524,7.769-17.54h-0.235c-0.526,0-0.954-0.427-0.954-0.955v-4.719
		c0-0.528,0.428-0.955,0.954-0.955h2.234c2.006-7.236,3.8-15.605,5.337-24.898h-0.004c-0.528,0-0.955-0.427-0.955-0.955v-2.978
		c0-0.527,0.427-0.954,0.955-0.954h0.777c5.872-38.955,5.717-81.148,5.715-81.583c0.004-0.685-0.117-2.665-0.718-3.612
		c-0.097-0.153-0.147-0.33-0.147-0.51v-2.001c0-0.351,0.188-0.657,0.47-0.822c-0.066-0.09-0.118-0.191-0.152-0.303
		c-0.03-0.104-0.724-2.531,0.892-4.705l0.354-0.474c0.768-1.039,1.333-1.805,1.926-2.269c-0.2-0.175-0.327-0.432-0.327-0.72v-0.962
		c0-0.098,0.016-0.191,0.041-0.279c-0.025-0.089-0.041-0.183-0.041-0.28v-0.962c0-0.103,0.017-0.202,0.047-0.295
		c-0.03-0.093-0.047-0.191-0.047-0.294v-0.963c0-0.12,0.023-0.235,0.064-0.341c-0.041-0.107-0.064-0.221-0.064-0.341v-0.96
		c0-0.389,0.232-0.722,0.564-0.871c0.063-0.235,0.214-0.436,0.414-0.561V8.009c0-0.528,0.429-0.955,0.955-0.955h0.746
		c0.528,0,0.955,0.427,0.955,0.955v6.033c0.132,0.114,0.232,0.267,0.283,0.439c0.367,0.132,0.63,0.485,0.63,0.899v0.96
		c0,0.12-0.021,0.234-0.063,0.341c0.041,0.105,0.063,0.221,0.063,0.341v0.963c0,0.103-0.016,0.201-0.046,0.294
		c0.03,0.093,0.046,0.192,0.046,0.295v0.962c0,0.098-0.015,0.191-0.041,0.28c0.026,0.088,0.041,0.182,0.041,0.279v0.962
		c0,0.28-0.121,0.533-0.313,0.707c0.604,0.467,1.18,1.247,1.949,2.29l0.347,0.465c1.618,2.174,0.924,4.601,0.894,4.705
		c-0.033,0.111-0.085,0.213-0.151,0.303c0.28,0.165,0.469,0.471,0.469,0.822v2.001c0,0.18-0.05,0.356-0.147,0.51
		c-0.598,0.947-0.721,2.929-0.72,3.622c-0.001,0.426-0.156,42.612,5.717,81.573h0.774c0.527,0,0.955,0.427,0.955,0.954v2.978
		c0,0.528-0.428,0.955-0.955,0.955h-0.002c1.535,9.284,3.33,17.652,5.339,24.898h2.232c0.528,0,0.955,0.427,0.955,0.955v4.719
		c0,0.528-0.427,0.955-0.955,0.955h-0.237c3.578,10.917,7.801,18.954,12.565,23.901h1.949c0.528,0,0.955,0.428,0.955,0.955v2.7
		h4.475v-4.964c0-0.527,0.428-0.954,0.954-0.954h4.502v-17.82c0-0.445,0.306-0.82,0.718-0.925v-4.982
		c0-0.412,0.26-0.763,0.625-0.896v-1.242c0-0.527,0.427-0.955,0.954-0.955h16.647c0.528,0,0.955,0.428,0.955,0.955v1.242
		c0.367,0.132,0.628,0.484,0.628,0.896v4.982c0.41,0.108,0.714,0.481,0.714,0.925v8.273h0.034c0.528,0,0.955,0.427,0.955,0.955
		v9.386h4.234c0.527,0,0.954,0.427,0.954,0.955v2.7h2.358v-31.345c0-0.224,0.041-2.214,1.496-2.987l0.947-0.471l0.222-2.09
		c0.065-0.306,0.339-1.34,1.119-1.797c0.005-0.004,0.011-0.008,0.017-0.011v-1.281c0-0.527,0.427-0.955,0.954-0.955h9.282
		c0.528,0,0.955,0.428,0.955,0.955v1.281c0.006,0.003,0.011,0.007,0.017,0.011c0.779,0.457,1.054,1.491,1.133,1.898l0.207,1.988
		l0.973,0.482c1.43,0.762,1.471,2.752,1.471,2.976v10.461h0.808c0.527,0,0.954,0.427,0.954,0.955v1.292l7.68,7.061l6.138,0.405
		c0.502,0.033,0.891,0.449,0.891,0.953v4.057h5.49c0.527,0,0.954,0.427,0.954,0.955v8.469h7.037v-2.991
		c0-0.414,0.263-0.765,0.631-0.898v-5.725c0-0.527,0.427-0.954,0.954-0.954h0.664l5.449-10.736v-2.995
		c0-0.255,0.102-0.5,0.282-0.679l0.627-0.619c0.179-0.177,0.419-0.276,0.671-0.276h1.254c0.251,0,0.491,0.1,0.671,0.276l0.627,0.619
		c0.18,0.179,0.283,0.424,0.283,0.679v2.995l5.447,10.736h0.672c0.527,0,0.954,0.427,0.954,0.954v2.868l1.917,0.108v-22.193
		c0-0.527,0.428-0.955,0.955-0.955h5.989c0.146,0,0.291,0.034,0.423,0.1l7.835,3.871c0.325,0.159,0.532,0.491,0.532,0.855v9.711
		h1.193c0.527,0,0.954,0.427,0.954,0.955v7.854h2.04c-0.056-4.107-0.122-5.754-0.168-6.414c-0.103-0.173-0.148-0.375-0.131-0.578
		c0.047-0.496,0.512-1.05,1.009-1.05c0.009,0,0.018,0.002,0.026,0.002c0.282,0.011,0.489,0.021,0.644,0.183h1.987v-7.813
		c0-0.528,0.427-0.955,0.955-0.955h1.879c0.174,0,0.338,0.047,0.478,0.129v-3.917c0-0.528,0.427-0.955,0.954-0.955h0.299v-3.7
		c0-0.453,0.316-0.833,0.74-0.93l0.813-3.241c0.108-0.423,0.664-0.721,1.103-0.721c0.437,0,0.819,0.298,0.927,0.723l0.809,3.239
		c0.423,0.097,0.74,0.477,0.74,0.93v3.7h0.302c0.528,0,0.955,0.427,0.955,0.955v3.913c0.14-0.078,0.302-0.125,0.474-0.125h1.88
		c0.527,0,0.954,0.427,0.954,0.955v7.813h0.775V155.75c0-0.528,0.427-0.955,0.955-0.955h5.221v-1.999
		c0-0.527,0.428-0.954,0.955-0.954h13.425c0.528,0,0.955,0.427,0.955,0.954v1.999h1.193c0.528,0,0.955,0.427,0.955,0.955v18.781
		l6.384-0.255h1.555v-25.538c0-0.527,0.428-0.955,0.955-0.955h23.628c0.528,0,0.955,0.428,0.955,0.955v31.292l9.339-1.73v-45.438
		c-0.389-0.121-0.668-0.481-0.668-0.909v-2.51l-2.36-3.681c-0.518-0.009-0.936-0.435-0.936-0.955v-1.898
		c0-0.527,0.428-0.955,0.954-0.955h2.228v-6.011l-0.992-2.45c-0.119-0.293-0.086-0.629,0.091-0.891
		c0.179-0.263,0.476-0.422,0.793-0.422h0.332v-0.22c0-0.528,0.427-0.955,0.954-0.955h18.743v-0.385c0-0.401,0.254-0.762,0.634-0.897
		c0.358-0.127,8.775-3.111,13.948-3.111h2.882c5.17,0,13.595,2.984,13.951,3.111c0.381,0.134,0.634,0.496,0.634,0.897v0.385h18.742
		c0.526,0,0.954,0.427,0.954,0.955v0.22h0.332c0.317,0,0.614,0.159,0.792,0.422c0.178,0.262,0.212,0.598,0.093,0.891l-0.993,2.45
		v6.011h2.226c0.528,0,0.955,0.428,0.955,0.955v1.898c0,0.521-0.417,0.944-0.934,0.955l-2.361,3.681v2.51
		c0,0.428-0.279,0.788-0.667,0.909v32.385h13.527c0.397,0,0.753,0.246,0.893,0.617l1.358,3.605h2.055v-11.061
		c0-0.527,0.428-0.955,0.955-0.955h3.035c3.388-3.322,7.412-3.322,11.132,0h3.018c0.527,0,0.954,0.428,0.954,0.955v11.061h2.089
		c0.527,0,0.955,0.427,0.955,0.954v2.066h6.025c0.528,0,0.955,0.428,0.955,0.955h9.44v-0.198c0-0.526,0.427-0.953,0.955-0.953h9.914
		c0.134,0,0.267,0.027,0.389,0.082c0.742,0.332,1.131,0.071,1.433-0.25l1.208-1.208v-2.04c0-0.204,0.066-0.403,0.188-0.567
		l0.36-0.491v-1.424c-0.386-0.765-1.23-3.013-0.262-6.75c0.064-0.138,0.529-1.098,1.428-1.535
		c0.162-2.771,1.321-12.539,9.582-18.709v-0.705c0-0.527,0.428-0.955,0.955-0.955l0.009-1.02c0-0.361,0.202-0.678,0.5-0.839v-4.669
		c-0.268-0.168-0.445-0.469-0.445-0.808v-3.478c0-0.249,0.095-0.476,0.252-0.645c0.133-1.229,0.579-3.253,2.032-4.733v-0.601
		c0-0.527,0.427-0.955,0.954-0.955h0.594c0.527,0,0.955,0.428,0.955,0.955v0.546c1.474,1.465,1.935,3.479,2.076,4.73
		c0.188,0.176,0.309,0.426,0.309,0.703v3.478c0,0.341-0.18,0.64-0.448,0.809v4.78c0.268,0.17,0.448,0.469,0.448,0.81v1
		c0.357,0.14,0.609,0.484,0.609,0.891v0.978c0.473,0.42,1.352,1.239,2.147,2.18v-1.371c0-0.225,0.079-0.442,0.224-0.615l1.363-1.62
		v-1.341c0-0.166,0.049-0.338,0.131-0.48c0.021-0.039,0.537-0.966,0.003-1.857c-1.007-1.695-0.329-7.42,2.33-9.567
		c0.245-3.033,2.198-19.323,16.181-28.41c0.242-0.848,0.918-2.892,2.157-4.256v-3.881c0-0.291,0.133-0.564,0.36-0.747l0.384-0.306
		v-1.528c0-0.322,0.16-0.608,0.406-0.781v-4.192c-0.389-0.121-0.671-0.483-0.671-0.912v-5.216c0-0.336,0.174-0.632,0.436-0.802
		c0.182-1.798,0.823-4.885,3.055-7.062v-1.15c-0.427-0.097-0.744-0.478-0.744-0.932V63.78c0-0.46,0.325-0.843,0.758-0.934
		c0.08-0.447,0.47-0.787,0.94-0.787h1.044c0.476,0,0.872,0.35,0.943,0.807c0.394,0.117,0.681,0.483,0.681,0.914v1.045
		c0,0.428-0.281,0.789-0.669,0.91v1.231c2.212,2.201,2.831,5.29,3.001,7.059c0.219,0.175,0.359,0.443,0.359,0.745v5.216
		c0,0.429-0.282,0.791-0.671,0.912v4.076c0.368,0.132,0.632,0.484,0.632,0.897V87.4l0.384,0.306c0.229,0.183,0.36,0.456,0.36,0.747
		v3.881c1.242,1.364,1.917,3.407,2.157,4.256c13.983,9.087,15.935,25.377,16.18,28.41c2.66,2.149,3.34,7.872,2.332,9.567
		c-0.531,0.892-0.018,1.818,0,1.85c0.088,0.147,0.134,0.316,0.134,0.488v1.341l1.365,1.62c0.146,0.173,0.224,0.391,0.224,0.615
		v1.367c0.797-0.938,1.676-1.756,2.148-2.176v-0.978c0-0.405,0.252-0.751,0.608-0.889v-1.002c0-0.255,0.132-0.486,0.328-0.658
		c0.035-0.047,0.074-0.089,0.117-0.129v-4.805c-0.268-0.168-0.445-0.469-0.445-0.808v-3.478c0-0.277,0.118-0.527,0.308-0.703
		c0.141-1.249,0.598-3.263,2.077-4.73v-0.546c0-0.527,0.427-0.955,0.954-0.955h0.592c0.527,0,0.954,0.428,0.954,0.955v0.601
		c1.454,1.48,1.899,3.505,2.033,4.733c0.155,0.17,0.251,0.396,0.251,0.645v3.478c0,0.339-0.178,0.639-0.443,0.808v4.671
		c0.294,0.164,0.494,0.477,0.494,0.837v1.02h0.013c0.527,0,0.955,0.428,0.955,0.955v0.705c8.261,6.17,9.421,15.94,9.582,18.711
		c0.902,0.442,1.378,1.433,1.484,1.693c0.694,2.717,0.382,4.65,0.019,5.764h9.38l-0.148-7.712c-0.004-0.258,0.094-0.504,0.273-0.688
		c0.18-0.184,0.426-0.286,0.682-0.286h4.438c3.628-3.369,8.035-3.373,12.183,0h4.948c0.254,0,0.497,0.101,0.677,0.281
		c0.179,0.18,0.279,0.424,0.278,0.678l-0.02,5.763l5.371,0.049v-6.243l-0.17-0.641c-0.021-0.08-0.031-0.162-0.031-0.245v-1.611
		c0-0.095,0.014-0.189,0.043-0.28l0.29-0.944l-0.101-8.926c0-0.101,0.015-0.201,0.045-0.298l0.828-2.637
		c0.121-0.381,0.467-0.646,0.865-0.666c0.396-0.06,0.768,0.211,0.924,0.578l1.103,2.582c0.051,0.12,0.077,0.247,0.077,0.375v1.412
		h22.91v-1.412c0-0.128,0.025-0.257,0.077-0.376l1.106-2.583c0.157-0.365,0.531-0.621,0.924-0.576
		c0.399,0.02,0.743,0.285,0.864,0.666l0.829,2.637c0.029,0.097,0.045,0.197,0.044,0.298l-0.104,8.926l0.291,0.944
		c0.029,0.091,0.043,0.186,0.043,0.28v1.611c0,0.083-0.011,0.165-0.031,0.245l-0.17,0.641v11.018h5.76v-16.229
		c0-0.527,0.427-0.955,0.955-0.955h11.933v-3.342c0-0.526,0.427-0.954,0.955-0.954h8.592c0.528,0,0.955,0.428,0.955,0.954v3.342
		h19.571v-27.682c0-0.254,0.1-0.498,0.279-0.677c0.18-0.177,0.423-0.278,0.676-0.278h0.003l22.818,0.078v1.91h-0.003l-21.864-0.075
		v27.679c0,0.527-0.428,0.954-0.954,0.954h-21.481c-0.528,0-0.955-0.427-0.955-0.954v-3.342h-6.682v3.342
		c0,0.527-0.428,0.954-0.955,0.954h-11.935v16.23c0,0.527-0.427,0.955-0.953,0.955h-7.669c-0.528,0-0.955-0.428-0.955-0.955v-12.099
		c0-0.082,0.01-0.164,0.031-0.243l0.169-0.642v-1.343l-0.293-0.949c-0.028-0.095-0.043-0.194-0.041-0.293l0.077-6.694
		c-0.029,0.5-0.444,0.898-0.952,0.898h-24.82c-0.494,0-0.901-0.377-0.95-0.858l0.076,6.655c0.001,0.099-0.013,0.198-0.043,0.293
		l-0.293,0.949v1.343l0.17,0.642c0.021,0.079,0.03,0.161,0.03,0.243v7.332c0,0.255-0.101,0.5-0.281,0.68
		c-0.182,0.179-0.411,0.251-0.682,0.275l-7.282-0.066c-0.526-0.006-0.948-0.434-0.946-0.959l0.019-5.754h-4.336
		c-0.226,0-0.444-0.08-0.618-0.229c-2.503-2.131-6.3-3.872-10.164-0.048c-0.18,0.177-0.42,0.276-0.672,0.276h-3.849l0.15,7.712
		c0.004,0.257-0.095,0.503-0.274,0.688c-0.18,0.184-0.425,0.285-0.681,0.285h-11.647c-0.526,0-0.954-0.427-0.954-0.954v-0.375
		c0-0.183,0.061-0.373,0.159-0.528c0.046-0.072,1.124-1.809,0.276-5.182c-0.101-0.218-0.418-0.634-0.62-0.634
		c-0.527,0-0.954-0.427-0.955-0.952c0-0.118-0.129-11.718-9.207-18.19c-0.252-0.179-0.401-0.47-0.401-0.776v-0.235h-0.013
		c-0.528,0-0.955-0.427-0.955-0.955v-1.137c-0.294-0.164-0.494-0.479-0.494-0.838v-6.315c0-0.339,0.178-0.638,0.444-0.807v-2.081
		c-0.118-0.151-0.193-0.34-0.202-0.545c-0.037-0.802-0.256-2.705-1.449-3.998c-1.197,1.293-1.41,3.19-1.444,3.994
		c-0.011,0.234-0.105,0.448-0.255,0.609v2.021c0.268,0.167,0.445,0.468,0.445,0.807v6.315c0,0.34-0.178,0.64-0.445,0.808v1.167
		c0,0.405-0.252,0.751-0.608,0.89v0.522c0,0.283-0.125,0.55-0.342,0.732c-0.02,0.017-2.07,1.741-3.07,3.329
		c-0.174,0.277-0.479,0.444-0.807,0.444h-0.793c-0.527,0-0.954-0.427-0.954-0.954v-2.829l-1.364-1.619
		c-0.146-0.175-0.225-0.391-0.225-0.616v-1.465c-0.267-0.588-0.753-2.054,0.134-3.539c0.584-0.981-0.079-6.009-2.114-7.264
		c-0.268-0.166-0.436-0.452-0.452-0.766c-0.009-0.183-1.064-18.322-15.644-27.562c-0.211-0.135-0.361-0.347-0.418-0.59
		c-0.007-0.026-0.652-2.721-2.007-3.99c-0.193-0.181-0.303-0.433-0.303-0.696v-3.811l-0.385-0.306
		c-0.227-0.182-0.359-0.456-0.359-0.747v-1.089c-0.368-0.132-0.633-0.485-0.633-0.899v-5.886c0-0.429,0.283-0.792,0.672-0.912
		v-3.602c-0.179-0.165-0.295-0.398-0.307-0.659c-0.06-1.323-0.438-4.593-2.651-6.646c-2.204,2.045-2.587,5.316-2.647,6.647
		c-0.014,0.295-0.16,0.553-0.38,0.719v3.541c0.389,0.12,0.671,0.483,0.671,0.912v5.886c0,0.324-0.16,0.609-0.406,0.782v1.206
		c0,0.291-0.132,0.565-0.359,0.747l-0.385,0.306v3.811c0,0.264-0.108,0.515-0.301,0.696c-1.355,1.27-2.002,3.965-2.008,3.991
		c-0.057,0.242-0.208,0.454-0.419,0.589c-14.58,9.239-15.636,27.379-15.644,27.562c-0.016,0.313-0.185,0.6-0.451,0.766
		c-2.035,1.255-2.696,6.282-2.114,7.262c0.889,1.487,0.401,2.953,0.135,3.541v1.465c0,0.226-0.079,0.441-0.223,0.616l-1.363,1.619
		v2.829c0,0.527-0.427,0.954-0.955,0.954h-0.796c-0.328,0-0.633-0.167-0.808-0.444c-0.998-1.588-3.045-3.313-3.065-3.329
		c-0.217-0.183-0.342-0.451-0.342-0.732v-0.521c-0.357-0.141-0.61-0.485-0.61-0.892v-1.165c-0.268-0.17-0.447-0.468-0.447-0.81
		v-6.315c0-0.341,0.18-0.64,0.447-0.809v-2.019c-0.148-0.159-0.244-0.373-0.254-0.607c-0.036-0.806-0.252-2.707-1.446-3.996
		c-1.194,1.291-1.413,3.196-1.45,3.998c-0.009,0.205-0.084,0.394-0.202,0.545v2.081c0.268,0.167,0.445,0.468,0.445,0.807v6.315
		c0,0.361-0.202,0.679-0.499,0.839v1.136c0,0.528-0.427,0.955-0.955,0.955l-0.01,0.235c0,0.307-0.148,0.598-0.399,0.776
		c-9.078,6.473-9.208,18.072-9.208,18.19c-0.002,0.525-0.429,0.952-0.955,0.952c-0.194,0-0.498,0.381-0.563,0.474
		c-0.905,3.533,0.174,5.27,0.212,5.331c0.109,0.158,0.167,0.347,0.167,0.539v1.984c0,0.203-0.064,0.401-0.187,0.566l-0.361,0.49
		v2.122c0,0.253-0.101,0.496-0.28,0.675l-1.466,1.465c-0.902,0.964-2.124,1.233-3.383,0.75h-8.769v0.198
		c0,0.527-0.428,0.954-0.955,0.954h-11.351c-0.528,0-0.954-0.427-0.954-0.954h-6.026c-0.528,0-0.955-0.427-0.955-0.955v-2.065
		h-2.088c-0.528,0-0.955-0.428-0.955-0.955v-11.061h-2.434c-0.243,0-0.476-0.094-0.653-0.26c-3.166-2.985-6.198-2.989-9.018-0.037
		c-0.18,0.19-0.43,0.297-0.69,0.297h-2.481v11.061c0,0.527-0.427,0.955-0.954,0.955h-3.67c-0.396,0-0.753-0.246-0.893-0.617
		l-1.358-3.605h-13.822c-0.527,0-0.954-0.427-0.954-0.955v-34.249c0-0.427,0.28-0.789,0.668-0.909v-1.881
		c0-0.183,0.052-0.361,0.15-0.515l2.793-4.355c0.089-0.141,0.21-0.25,0.352-0.327v-0.102h-2.228c-0.526,0-0.954-0.427-0.954-0.955
		v-7.151c0-0.124,0.023-0.245,0.07-0.358l0.534-1.317c-0.468-0.063-0.828-0.462-0.828-0.946v-0.221h-18.741
		c-0.528,0-0.955-0.427-0.955-0.954v-0.656c-2.053-0.69-8.613-2.782-12.676-2.782h-2.882c-4.065,0-10.62,2.092-12.672,2.782v0.656
		c0,0.527-0.428,0.954-0.955,0.954h-18.743v0.221c0,0.484-0.36,0.884-0.828,0.946l0.533,1.317c0.047,0.113,0.07,0.234,0.07,0.358
		v7.151c0,0.528-0.427,0.955-0.954,0.955h-2.227v0.102c0.142,0.075,0.263,0.187,0.354,0.327l2.793,4.355
		c0.098,0.153,0.15,0.332,0.15,0.515v1.881c0.389,0.12,0.667,0.482,0.667,0.909v47.142c0,0.46-0.328,0.854-0.781,0.938
		l-11.229,2.082c-0.029,0.006-0.055,0.011-0.083,0.015c-0.119,0.013-0.24,0.003-0.35-0.027c-0.143-0.035-0.27-0.104-0.377-0.195
		l-0.002-0.002c-0.098-0.082-0.178-0.185-0.235-0.3v-0.002c0-0.002-0.001-0.002-0.001-0.002c-0.053-0.108-0.086-0.229-0.095-0.355
		c-0.003-0.027-0.003-0.056-0.003-0.084v-31.469h-21.719v25.537c0,0.528-0.427,0.955-0.955,0.955h-2.471l-7.339,0.295
		c-0.255,0-0.513-0.086-0.701-0.267c-0.185-0.18-0.293-0.43-0.293-0.688v-18.822h-1.193c-0.527,0-0.954-0.427-0.954-0.953v-1.999
		h-11.517v1.999c0,0.526-0.427,0.953-0.954,0.953h-5.221v13.773c0,0.527-0.427,0.954-0.955,0.954h-2.684
		c-0.528,0-0.955-0.427-0.955-0.954v-7.189c-0.107,0.414-0.479,0.719-0.925,0.719h-1.429c-0.526,0-0.954-0.428-0.954-0.954v-5.132
		h-0.302c-0.528,0-0.955-0.428-0.955-0.954v-3.797c-0.248-0.119-0.438-0.346-0.509-0.626l-0.148-0.591l-0.147,0.593
		c-0.071,0.278-0.261,0.505-0.509,0.624v3.797c0,0.526-0.428,0.954-0.954,0.954h-0.299v5.132c0,0.526-0.428,0.954-0.955,0.954
		h-1.433c-0.444,0-0.817-0.305-0.925-0.717v7.188c0,0.527-0.426,0.954-0.954,0.954h-2.545c0.078,1.302,0.103,3.424,0.143,6.892
		c0.004,0.255-0.098,0.501-0.276,0.683c-0.179,0.181-0.423,0.283-0.679,0.283h-3.96c-0.528,0-0.955-0.427-0.955-0.954v-7.854h-1.193
		c-0.528,0-0.955-0.427-0.955-0.954v-10.073l-7.103-3.509h-4.811v22.248c0,0.263-0.108,0.513-0.299,0.694
		c-0.194,0.181-0.458,0.289-0.71,0.259l-3.826-0.216c-0.506-0.028-0.9-0.446-0.9-0.953v-2.816h-0.303
		c-0.359,0-0.688-0.2-0.852-0.521l-5.818-11.463c-0.066-0.136-0.102-0.282-0.102-0.434v-2.822l-0.534-0.063l-0.063,2.886
		c0,0.151-0.035,0.298-0.103,0.434l-5.817,11.463c-0.164,0.321-0.492,0.521-0.852,0.521h-0.295v5.669
		c0,0.414-0.264,0.765-0.63,0.899v3.046c0,0.528-0.428,0.955-0.955,0.955h-8.946c-0.528,0-0.955-0.427-0.955-0.955v-8.469h-5.489
		c-0.527,0-0.955-0.427-0.955-0.954v-4.119l-5.583-0.368c-0.216-0.015-0.423-0.102-0.582-0.249l-8.235-7.572
		c-0.195-0.182-0.308-0.437-0.308-0.703v-0.758h-0.808c-0.527,0-0.954-0.427-0.954-0.953v-11.416c0-0.374-0.152-1.128-0.437-1.279
		l-1.417-0.705c-0.292-0.145-0.49-0.43-0.524-0.755l-0.246-2.409c-0.03-0.14-0.105-0.345-0.177-0.473
		c-0.218,0.025-0.432-0.054-0.611-0.186c-0.245-0.181-0.388-0.464-0.388-0.768v-1.108h-7.373v1.108c0,0.304-0.143,0.587-0.388,0.768
		c-0.178,0.132-0.393,0.211-0.612,0.186c-0.067,0.116-0.137,0.291-0.162,0.373l-0.261,2.509c-0.033,0.325-0.232,0.609-0.524,0.755
		l-1.393,0.694c-0.29,0.154-0.456,0.862-0.46,1.29v32.299c0,0.527-0.427,0.955-0.955,0.955h-4.268c-0.528,0-0.955-0.428-0.955-0.955
		v-2.7h-4.234c-0.528,0-0.955-0.427-0.955-0.954v-9.387h-0.033c-0.527,0-0.955-0.427-0.955-0.954v-8.304
		c-0.41-0.108-0.714-0.481-0.714-0.925v-5.011c-0.368-0.132-0.629-0.484-0.629-0.896v-1.185h-14.738v1.185
		c0,0.412-0.259,0.763-0.624,0.896v5.011c0,0.445-0.306,0.82-0.718,0.925v17.85c0,0.528-0.427,0.955-0.955,0.955h-4.501v4.964
		c0,0.527-0.427,0.954-0.955,0.954h-6.384c-0.528,0-0.955-0.427-0.955-0.954v-2.7h-1.396c-0.256,0-0.5-0.103-0.68-0.284
		c-5.27-5.32-9.882-14.135-13.705-26.193c-0.091-0.291-0.041-0.608,0.141-0.853c0.179-0.246,0.466-0.392,0.77-0.392h0.596v-2.811
		h-2.004c-0.427,0-0.803-0.282-0.919-0.694c-2.187-7.759-4.126-16.813-5.762-26.914c-0.044-0.276,0.034-0.56,0.215-0.772
		c0.182-0.212,0.447-0.335,0.728-0.335h0.171v-1.068h-0.64c-0.472,0-0.872-0.346-0.943-0.81
		c-6.023-39.332-5.864-82.253-5.862-82.672c-0.002-0.292,0.011-2.779,0.867-4.389v-0.791h-0.16c-0.528,0-0.955-0.427-0.955-0.954
		v-1.397c0-0.527,0.427-0.955,0.955-0.955h0.017c0.027-0.6-0.068-1.501-0.691-2.339l-0.347-0.47
		c-0.687-0.926-1.462-1.977-1.768-2.016c-0.259-0.034-0.482-0.169-0.632-0.362c-0.132,0.177-0.326,0.309-0.556,0.361
		c-0.328,0.074-1.058,1.057-1.761,2.009l-0.354,0.477c-0.623,0.838-0.718,1.741-0.69,2.339h0.019c0.527,0,0.954,0.428,0.954,0.955
		v1.397c0,0.527-0.427,0.954-0.954,0.954h-0.162v0.791c0.857,1.609,0.867,4.098,0.865,4.378c0.002,0.43,0.16,43.351-5.861,82.681
		c-0.071,0.466-0.471,0.812-0.943,0.812h-0.644v1.068h0.174c0.279,0,0.546,0.123,0.728,0.335c0.181,0.213,0.259,0.496,0.215,0.772
		c-1.639,10.11-3.575,19.165-5.76,26.914c-0.116,0.412-0.493,0.694-0.921,0.694h-2.002v2.811h0.592c0.304,0,0.591,0.146,0.769,0.392
		c0.181,0.244,0.232,0.562,0.14,0.853c-2.519,7.953-5.432,14.569-8.653,19.67c-0.175,0.278-0.479,0.446-0.808,0.446h-20.964
		c-0.528,0-0.955-0.428-0.955-0.955v-15.333l-4.223-5.391h-6.459c-0.528,0-0.955-0.427-0.955-0.955v-0.804h-17.246v1.553
		c0,0.528-0.427,0.955-0.954,0.955h-8.537v11.934c0,0.526-0.427,0.954-0.954,0.954h-8.557v-1.909H716.83z"/>
	<path d="M687.968,108.515c-0.484,0-0.878,0.394-0.878,0.876c0,0.483,0.394,0.877,0.878,0.877c0.483,0,0.876-0.394,0.876-0.877
		C688.844,108.908,688.451,108.515,687.968,108.515 M687.968,112.177c-1.537,0-2.787-1.249-2.787-2.786
		c0-1.535,1.25-2.785,2.787-2.785c1.536,0,2.786,1.25,2.786,2.785C690.754,110.928,689.504,112.177,687.968,112.177"/>
	<path d="M682.639,143.569c-0.482,0-0.876,0.394-0.876,0.877c0,0.484,0.394,0.88,0.876,0.88c0.486,0,0.88-0.396,0.88-0.88
		C683.519,143.963,683.125,143.569,682.639,143.569 M682.639,147.235c-1.536,0-2.786-1.251-2.786-2.789
		c0-1.537,1.25-2.786,2.786-2.786c1.538,0,2.79,1.249,2.79,2.786C685.429,145.984,684.177,147.235,682.639,147.235"/>
	<path d="M675.997,153.881c-0.486,0-0.88,0.393-0.88,0.876c0,0.483,0.393,0.876,0.88,0.876c0.482,0,0.877-0.393,0.877-0.876
		C676.874,154.274,676.479,153.881,675.997,153.881 M678.783,154.757c0,1.536-1.249,2.786-2.786,2.786
		c-1.538,0-2.789-1.25-2.789-2.786c0-1.535,1.251-2.785,2.789-2.785C677.534,151.972,678.783,153.222,678.783,154.757"/>
	<path d="M667.174,162.987c-0.483,0-0.876,0.395-0.876,0.877c0,0.484,0.392,0.88,0.876,0.88c0.485,0,0.88-0.395,0.88-0.88
		C668.054,163.382,667.659,162.987,667.174,162.987 M667.174,166.653c-1.536,0-2.786-1.251-2.786-2.789
		c0-1.537,1.25-2.786,2.786-2.786c1.538,0,2.79,1.249,2.79,2.786C669.964,165.402,668.712,166.653,667.174,166.653"/>
	<path d="M644.664,175.302c-0.486,0-0.88,0.395-0.88,0.88c0,0.482,0.393,0.877,0.88,0.877c0.483,0,0.876-0.395,0.876-0.877
		C645.54,175.696,645.147,175.302,644.664,175.302 M644.664,178.968c-1.538,0-2.79-1.249-2.79-2.786c0-1.538,1.252-2.789,2.79-2.789
		c1.536,0,2.786,1.251,2.786,2.789C647.45,177.719,646.2,178.968,644.664,178.968"/>
	<path d="M606.454,175.015c-0.482,0-0.876,0.395-0.876,0.88c0,0.485,0.394,0.88,0.876,0.88c0.485,0,0.881-0.395,0.881-0.88
		C607.335,175.409,606.94,175.015,606.454,175.015 M609.244,175.895c0,1.538-1.251,2.789-2.79,2.789
		c-1.536,0-2.785-1.251-2.785-2.789s1.249-2.789,2.785-2.789C607.993,173.105,609.244,174.356,609.244,175.895"/>
	<path d="M576.039,154.72c0.485,0,0.88-0.395,0.88-0.88c0-0.482-0.394-0.877-0.88-0.877c-0.483,0-0.876,0.395-0.876,0.877
		C575.163,154.325,575.556,154.72,576.039,154.72 M576.039,151.054c1.538,0,2.789,1.249,2.789,2.786
		c0,1.538-1.251,2.789-2.789,2.789c-1.536,0-2.786-1.251-2.786-2.789C573.253,152.303,574.503,151.054,576.039,151.054"/>
	<path d="M563.247,120.046c0,0.484,0.395,0.88,0.881,0.88c0.483,0,0.877-0.396,0.877-0.88c0-0.485-0.394-0.881-0.877-0.881
		C563.642,119.165,563.247,119.561,563.247,120.046 M566.913,120.046c0,1.538-1.249,2.789-2.785,2.789
		c-1.538,0-2.789-1.251-2.789-2.789s1.251-2.789,2.789-2.789C565.664,117.257,566.913,118.508,566.913,120.046"/>
	<path d="M573.462,85.773c-0.483,0-0.876,0.395-0.876,0.877c0,0.484,0.393,0.88,0.876,0.88c0.485,0,0.88-0.395,0.88-0.88
		C574.342,86.168,573.947,85.773,573.462,85.773 M573.462,89.439c-1.536,0-2.786-1.251-2.786-2.789c0-1.537,1.25-2.786,2.786-2.786
		c1.538,0,2.79,1.249,2.79,2.786C576.252,88.188,575,89.439,573.462,89.439"/>
	<path d="M632.749,57.305c-0.484,0-0.878,0.395-0.878,0.877c0,0.484,0.393,0.88,0.878,0.88c0.484,0,0.878-0.396,0.878-0.88
		C633.627,57.699,633.233,57.305,632.749,57.305 M632.749,60.971c-1.537,0-2.788-1.251-2.788-2.789c0-1.537,1.251-2.786,2.788-2.786
		c1.537,0,2.788,1.249,2.788,2.786C635.537,59.72,634.286,60.971,632.749,60.971"/>
	<path d="M654.744,63.491c-0.482,0-0.876,0.395-0.876,0.877c0,0.484,0.394,0.881,0.876,0.881c0.484,0,0.878-0.396,0.878-0.881
		C655.622,63.886,655.229,63.491,654.744,63.491 M654.744,67.157c-1.536,0-2.786-1.251-2.786-2.789c0-1.536,1.25-2.785,2.786-2.785
		c1.537,0,2.788,1.249,2.788,2.785C657.532,65.906,656.281,67.157,654.744,67.157"/>
	<path d="M680.233,86.46c-0.483,0-0.876,0.394-0.876,0.877c0,0.484,0.393,0.88,0.876,0.88c0.486,0,0.88-0.396,0.88-0.88
		C681.113,86.854,680.72,86.46,680.233,86.46 M680.233,90.126c-1.536,0-2.786-1.251-2.786-2.789c0-1.537,1.25-2.786,2.786-2.786
		c1.538,0,2.789,1.249,2.789,2.786C683.022,88.875,681.771,90.126,680.233,90.126"/>
	<path d="M673.19,77.409c-0.484,0-0.879,0.395-0.879,0.88c0,0.483,0.395,0.877,0.879,0.877c0.485,0,0.88-0.394,0.88-0.877
		C674.069,77.804,673.675,77.409,673.19,77.409 M673.19,81.075c-1.537,0-2.787-1.249-2.787-2.786c0-1.538,1.25-2.789,2.787-2.789
		c1.537,0,2.789,1.251,2.789,2.789C675.979,79.826,674.727,81.075,673.19,81.075"/>
	<path d="M664.541,69.675c-0.486,0-0.88,0.395-0.88,0.88c0,0.483,0.394,0.877,0.88,0.877c0.482,0,0.876-0.394,0.876-0.877
		C665.417,70.069,665.023,69.675,664.541,69.675 M664.541,73.341c-1.538,0-2.789-1.249-2.789-2.786c0-1.538,1.251-2.789,2.789-2.789
		c1.536,0,2.786,1.251,2.786,2.789C667.327,72.092,666.077,73.341,664.541,73.341"/>
	<path d="M644.034,59.479c-0.486,0-0.88,0.396-0.88,0.881c0,0.482,0.394,0.877,0.88,0.877c0.482,0,0.876-0.395,0.876-0.877
		C644.91,59.874,644.517,59.479,644.034,59.479 M644.034,63.145c-1.538,0-2.79-1.249-2.79-2.785c0-1.538,1.252-2.789,2.79-2.789
		c1.536,0,2.786,1.251,2.786,2.789C646.82,61.896,645.57,63.145,644.034,63.145"/>
	<path d="M621.006,57.417c-0.483,0-0.876,0.395-0.876,0.88c0,0.482,0.393,0.877,0.876,0.877c0.485,0,0.88-0.395,0.88-0.877
		C621.886,57.812,621.491,57.417,621.006,57.417 M621.006,61.083c-1.536,0-2.786-1.249-2.786-2.786c0-1.538,1.25-2.789,2.786-2.789
		c1.538,0,2.79,1.251,2.79,2.789C623.796,59.834,622.544,61.083,621.006,61.083"/>
	<path d="M609.777,59.021c-0.483,0-0.876,0.395-0.876,0.88c0,0.482,0.393,0.877,0.876,0.877c0.486,0,0.88-0.395,0.88-0.877
		C610.657,59.415,610.264,59.021,609.777,59.021 M609.777,62.687c-1.536,0-2.786-1.249-2.786-2.786c0-1.538,1.25-2.789,2.786-2.789
		c1.538,0,2.789,1.251,2.789,2.789C612.566,61.438,611.315,62.687,609.777,62.687"/>
	<path d="M598.779,63.033c-0.482,0-0.876,0.394-0.876,0.877c0,0.483,0.394,0.88,0.876,0.88c0.486,0,0.88-0.396,0.88-0.88
		C599.659,63.427,599.266,63.033,598.779,63.033 M598.779,66.699c-1.536,0-2.786-1.251-2.786-2.789c0-1.537,1.25-2.786,2.786-2.786
		c1.538,0,2.789,1.249,2.789,2.786C601.568,65.448,600.317,66.699,598.779,66.699"/>
	<path d="M588.871,68.761c-0.482,0-0.876,0.395-0.876,0.877c0,0.484,0.394,0.88,0.876,0.88c0.483,0,0.876-0.396,0.876-0.88
		C589.747,69.155,589.354,68.761,588.871,68.761 M588.871,72.427c-1.536,0-2.786-1.251-2.786-2.789c0-1.537,1.25-2.786,2.786-2.786
		s2.786,1.249,2.786,2.786C591.657,71.176,590.407,72.427,588.871,72.427"/>
	<path d="M580.394,76.723c-0.486,0-0.88,0.395-0.88,0.877c0,0.484,0.394,0.88,0.88,0.88c0.483,0,0.876-0.396,0.876-0.88
		C581.271,77.117,580.877,76.723,580.394,76.723 M580.394,80.389c-1.538,0-2.789-1.251-2.789-2.789c0-1.537,1.251-2.786,2.789-2.786
		c1.536,0,2.786,1.249,2.786,2.786C583.181,79.138,581.931,80.389,580.394,80.389"/>
	<path d="M565.156,107.083c-0.482,0-0.876,0.394-0.876,0.876c0,0.483,0.395,0.876,0.876,0.876c0.486,0,0.881-0.393,0.881-0.876
		C566.037,107.477,565.643,107.083,565.156,107.083 M567.946,107.959c0,1.537-1.251,2.786-2.79,2.786
		c-1.536,0-2.785-1.249-2.785-2.786c0-1.536,1.249-2.786,2.785-2.786C566.695,105.173,567.946,106.423,567.946,107.959"/>
	<path d="M567.965,95.966c-0.486,0-0.88,0.396-0.88,0.881c0,0.483,0.393,0.88,0.88,0.88c0.483,0,0.876-0.396,0.876-0.88
		C568.841,96.361,568.448,95.966,567.965,95.966 M567.965,99.636c-1.538,0-2.789-1.251-2.789-2.789c0-1.539,1.251-2.79,2.789-2.79
		c1.536,0,2.786,1.251,2.786,2.79C570.751,98.385,569.501,99.636,567.965,99.636"/>
	<path d="M569.855,144.122c0.483,0,0.876-0.395,0.876-0.878s-0.393-0.88-0.876-0.88c-0.485,0-0.88,0.396-0.88,0.88
		S569.37,144.122,569.855,144.122 M569.855,140.456c1.536,0,2.786,1.251,2.786,2.788c0,1.537-1.25,2.786-2.786,2.786
		c-1.538,0-2.79-1.249-2.79-2.786C567.065,141.707,568.317,140.456,569.855,140.456"/>
	<path d="M594.313,169.23c-0.483,0-0.877,0.395-0.877,0.88c0,0.483,0.394,0.876,0.877,0.876c0.484,0,0.88-0.393,0.88-0.876
		C595.192,169.625,594.797,169.23,594.313,169.23 M597.102,170.11c0,1.537-1.251,2.786-2.789,2.786
		c-1.537,0-2.786-1.249-2.786-2.786c0-1.538,1.249-2.789,2.786-2.789C595.851,167.321,597.102,168.572,597.102,170.11"/>
	<path d="M584.46,162.015c-0.483,0-0.877,0.394-0.877,0.876c0,0.485,0.394,0.88,0.877,0.88c0.484,0,0.88-0.394,0.88-0.88
		C585.34,162.408,584.944,162.015,584.46,162.015 M587.249,162.891c0,1.538-1.251,2.789-2.789,2.789
		c-1.537,0-2.786-1.251-2.786-2.789c0-1.536,1.249-2.786,2.786-2.786C585.998,160.105,587.249,161.355,587.249,162.891"/>
	<path d="M566.492,131.673c0-0.484-0.394-0.88-0.876-0.88c-0.486,0-0.881,0.396-0.881,0.88c0,0.485,0.394,0.881,0.881,0.881
		C566.098,132.554,566.492,132.158,566.492,131.673 M562.826,131.673c0-1.537,1.251-2.788,2.79-2.788
		c1.536,0,2.785,1.251,2.785,2.788c0,1.538-1.249,2.789-2.785,2.789C564.077,134.462,562.826,133.211,562.826,131.673"/>
	<path d="M656.922,170.26c-0.485,0-0.88,0.396-0.88,0.88c0,0.484,0.394,0.881,0.88,0.881c0.483,0,0.876-0.396,0.876-0.881
		C657.798,170.655,657.405,170.26,656.922,170.26 M656.922,173.929c-1.538,0-2.79-1.251-2.79-2.789c0-1.538,1.252-2.789,2.79-2.789
		c1.536,0,2.786,1.251,2.786,2.789C659.708,172.678,658.458,173.929,656.922,173.929"/>
	<path d="M688.541,120.31c-0.484,0-0.879,0.396-0.879,0.881c0,0.484,0.394,0.881,0.879,0.881c0.483,0,0.878-0.396,0.878-0.881
		C689.419,120.706,689.024,120.31,688.541,120.31 M688.541,123.979c-1.537,0-2.788-1.251-2.788-2.789c0-1.539,1.251-2.79,2.788-2.79
		c1.536,0,2.786,1.251,2.786,2.79C691.327,122.729,690.077,123.979,688.541,123.979"/>
	<path d="M685.391,97.229c-0.485,0-0.88,0.395-0.88,0.877c0,0.484,0.395,0.88,0.88,0.88c0.483,0,0.876-0.396,0.876-0.88
		C686.267,97.624,685.874,97.229,685.391,97.229 M685.391,100.896c-1.538,0-2.789-1.251-2.789-2.789
		c0-1.537,1.251-2.785,2.789-2.785c1.536,0,2.786,1.248,2.786,2.785C688.177,99.645,686.927,100.896,685.391,100.896"/>
	<path d="M686.879,133.87c0.486,0,0.88-0.396,0.88-0.88s-0.394-0.877-0.88-0.877c-0.483,0-0.876,0.394-0.876,0.877
		S686.396,133.87,686.879,133.87 M686.879,130.204c1.538,0,2.79,1.249,2.79,2.786c0,1.538-1.252,2.789-2.79,2.789
		c-1.536,0-2.786-1.251-2.786-2.789C684.093,131.453,685.343,130.204,686.879,130.204"/>
	<path d="M460.119,179.631h8.048v-32.74c-0.005-0.01-0.009-0.02-0.014-0.03c-0.06-0.128-0.09-0.268-0.088-0.408l-0.282-0.302
		c-0.054-0.043-0.102-0.093-0.144-0.148l-0.086-0.117c-2.596-2.793-4.965-5.5-7.188-8.218l-0.246,2.247V179.631z M470.65,179.631
		h6.299v-24.376c-2.13-1.956-4.241-3.998-6.299-6.096V179.631z M479.433,179.631h6.299v-16.882c-2.13-1.689-4.241-3.454-6.299-5.262
		V179.631z M488.311,179.631h6.397v-10.293c-2.14-1.449-4.283-2.986-6.397-4.589V179.631z M497.188,179.631h6.493v-4.71
		c-2.139-1.21-4.315-2.528-6.493-3.938V179.631z M506.17,179.631h4.548v-1.075c-1.427-0.656-2.971-1.427-4.548-2.266V179.631z
		 M458.501,137.196v-2.182c0-0.406,0.257-0.769,0.641-0.902c0.38-0.132,0.81-0.01,1.063,0.309c2.671,3.38,5.533,6.704,8.801,10.229
		l0.081,0.102c0.043,0.038,0.088,0.079,0.104,0.097l0.625,0.69c0.101,0.107,0.175,0.232,0.218,0.368
		c0.131,0.048,0.253,0.128,0.354,0.235c2.638,2.765,5.385,5.454,8.161,7.988c0.099,0.093,0.177,0.2,0.23,0.321
		c0.124,0.041,0.239,0.106,0.34,0.198c2.638,2.383,5.383,4.701,8.159,6.888c0.116,0.091,0.209,0.209,0.272,0.339
		c0.142,0.03,0.277,0.092,0.396,0.184c2.709,2.108,5.485,4.121,8.251,5.979c0.1,0.067,0.184,0.151,0.25,0.246
		c0.111,0.024,0.219,0.071,0.316,0.136c2.797,1.859,5.603,3.578,8.339,5.107c0.102,0.056,0.189,0.129,0.262,0.214
		c0.108,0.018,0.215,0.053,0.314,0.109c2.231,1.23,4.439,2.343,6.387,3.22c0.344,0.155,0.564,0.496,0.564,0.871v2.644
		c0,0.527-0.427,0.954-0.955,0.954h-6.457c-0.1,0-0.198-0.015-0.29-0.045c-0.091,0.03-0.189,0.045-0.29,0.045h-8.402
		c-0.1,0-0.194-0.015-0.284-0.043c-0.091,0.028-0.186,0.043-0.285,0.043h-8.306c-0.118,0-0.231-0.021-0.336-0.06
		c-0.103,0.039-0.217,0.06-0.336,0.06h-8.207c-0.1,0-0.196-0.015-0.288-0.045c-0.09,0.03-0.186,0.045-0.286,0.045h-8.208
		c-0.101,0-0.197-0.015-0.287-0.045c-0.09,0.03-0.188,0.045-0.287,0.045h-9.957c-0.528,0-0.955-0.427-0.955-0.954l0.006-40.771
		L458.501,137.196z"/>
	<path d="M329.089,179.631h106.192l0.006-39.615l-0.295-2.819v-6.064H329.378l-0.005,6.165l-0.284,2.618V179.631z M327.469,137.196
		v-7.018c0-0.528,0.427-0.955,0.955-0.955h107.523c0.526,0,0.953,0.427,0.953,0.955l-0.005,6.917l0.294,2.819v40.671
		c0,0.527-0.428,0.954-0.954,0.954H328.135c-0.528,0-0.955-0.427-0.955-0.954l0.005-40.771L327.469,137.196z"/>
	<path d="M259.636,179.632h6.045v-7.065c-0.015-0.069-0.024-0.14-0.024-0.215v-0.089c-2.001,1.238-4.019,2.411-6.021,3.5V179.632z
		 M268.163,179.632h6.586v-13.522c-2.167,1.592-4.375,3.121-6.586,4.564V179.632z M277.232,179.632h6.685v-20.824
		c-2.2,1.892-4.44,3.714-6.685,5.438V179.632z M286.397,179.632h6.586v-29.266c-2.154,2.159-4.356,4.247-6.571,6.235v0.069
		c0,0.056-0.006,0.111-0.015,0.166V179.632z M295.466,179.632h8.783v-39.668l-0.191-1.849c-2.747,3.346-5.622,6.591-8.569,9.677
		v0.286c0,0.069-0.008,0.137-0.023,0.201V179.632z M258.23,174.352c2.616-1.406,5.264-2.961,7.869-4.622
		c0.102-0.066,0.218-0.11,0.333-0.133c0.069-0.095,0.155-0.179,0.258-0.244c2.841-1.839,5.679-3.826,8.437-5.909
		c0.101-0.075,0.215-0.129,0.332-0.16c0.062-0.103,0.142-0.193,0.239-0.269c2.877-2.194,5.75-4.557,8.542-7.024
		c0.1-0.087,0.216-0.152,0.339-0.191c0.056-0.129,0.138-0.244,0.242-0.337c2.857-2.548,5.693-5.271,8.43-8.094
		c0.106-0.107,0.232-0.188,0.368-0.236c0.044-0.143,0.121-0.276,0.227-0.388c3.58-3.73,7.054-7.7,10.326-11.803
		c0.254-0.316,0.685-0.444,1.061-0.306c0.383,0.134,0.64,0.494,0.64,0.899l-0.006,1.562l0.285,2.719
		c0.004,0.031,0.006,0.065,0.006,0.098v40.672c0,0.527-0.427,0.954-0.954,0.954h-10.692c-0.101,0-0.196-0.015-0.287-0.045
		c-0.092,0.03-0.187,0.045-0.288,0.045h-8.495c-0.099,0-0.196-0.015-0.285-0.043c-0.089,0.028-0.186,0.043-0.285,0.043h-8.594
		c-0.101,0-0.196-0.015-0.288-0.045c-0.091,0.03-0.186,0.045-0.287,0.045h-8.495c-0.099,0-0.196-0.015-0.285-0.043
		c-0.091,0.028-0.188,0.043-0.287,0.043h-7.955c-0.528,0-0.954-0.427-0.954-0.954v-5.393
		C257.727,174.842,257.921,174.519,258.23,174.352"/>
	<path d="M68.992,14.938c0.072,0.061,0.136,0.136,0.186,0.216c0.049-0.078,0.108-0.148,0.177-0.211
		c0.168-0.15,0.317-0.4,0.308-0.477c-0.002-0.008-0.011-0.024-0.034-0.051c-0.201-0.026-0.384-0.115-0.525-0.246
		c-0.092,0.067-0.194,0.123-0.301,0.166c-0.082,0.07-0.11,0.117-0.113,0.131C68.68,14.542,68.83,14.792,68.992,14.938
		 M719.007,153.054v13.234h-6.909h-3.185c-0.352,0-0.676-0.193-0.842-0.504c-0.415-0.775-1.204-1.462-2.224-1.934
		c-0.336-0.156-0.552-0.496-0.552-0.867v-2.424c0-1.579-1.285-2.864-2.864-2.864s-2.864,1.285-2.864,2.864v2.193
		c0,0.396-0.246,0.753-0.618,0.893c-1.301,0.491-2.279,1.25-2.754,2.137c-0.166,0.313-0.489,0.506-0.842,0.506h-2.826v6.686
		c0,0.528-0.427,0.954-0.955,0.954h-7.638v5.251c0,0.528-0.427,0.955-0.954,0.955H668.13v3.961c0,0.527-0.427,0.954-0.955,0.954
		h-29.935c-0.506,0-0.924-0.396-0.953-0.9c-0.022-0.39-2.293-38.915-9.658-64.983h-1.372c-7.362,26.064-9.635,64.594-9.657,64.983
		c-0.015,0.253-0.129,0.49-0.318,0.658c-0.188,0.168-0.424,0.272-0.69,0.24l-12.117-0.697c-0.506-0.028-0.9-0.448-0.9-0.953v-2.655
		h-9.092c-0.528,0-0.955-0.427-0.955-0.954v-2.939H576.04c-0.526,0-0.954-0.427-0.954-0.955v-8.831h-10.748
		c-0.526,0-0.955-0.427-0.955-0.955v-19.484h-2.863c-0.527,0-0.954-0.428-0.954-0.955v-0.477h-13.843v27.928
		c0,0.528-0.428,0.955-0.955,0.955h-3.021c-0.527,0-0.954-0.427-0.954-0.955v-22.915h-0.366c-0.434,0-0.815-0.295-0.924-0.715
		l-0.402-1.553H531l-0.87,1.74c-0.162,0.322-0.491,0.527-0.854,0.527h-0.418v14.521c0,0.259-0.106,0.509-0.293,0.688
		c-0.188,0.181-0.472,0.268-0.7,0.267l-15.238-0.094v3.859c0,0.323-0.162,0.623-0.432,0.798c-0.272,0.18-0.613,0.21-0.905,0.077
		c-6.004-2.628-27.536-13.117-52.506-37.828c-0.182-0.179-0.283-0.423-0.283-0.679v-11.087c0-0.21,0.069-0.414,0.197-0.581
		c0.049-0.063,0.143-0.239,0.159-0.252c-0.362-0.146-0.6-0.496-0.6-0.886v-8.354c0-0.267,0.111-0.52,0.308-0.7
		c0.009-0.009,0.046-0.054,0.075-0.096c-0.396-0.98-1.905-5.661-2.603-8.507c-0.269,1.617-0.625,3.703-0.726,4.069
		c-0.114,0.412-0.491,0.699-0.92,0.699h-3.007c-0.432,0-0.811-0.291-0.922-0.709L447.7,95.06l-2.762,10.353
		c-0.111,0.418-0.489,0.709-0.922,0.709h-3.008c-0.431,0-0.808-0.287-0.921-0.703c-0.099-0.364-0.456-2.448-0.727-4.065
		c-0.695,2.836-2.197,7.5-2.602,8.507c0.022,0.031,0.051,0.067,0.072,0.089c0.197,0.18,0.31,0.436,0.31,0.703v8.357
		c0,0.39-0.238,0.632-0.602,0.775c0.001,0.073,0.087,0.258,0.163,0.362c0.128,0.166,0.198,0.371,0.198,0.581v3.436
		c0,0.527-0.427,0.954-0.955,0.954h-39.022c-0.1,0-0.196-0.015-0.287-0.043c-0.09,0.028-0.186,0.043-0.286,0.043h-9.164
		c-0.528,0-0.955-0.427-0.955-0.954v-0.162c-0.041-0.023-0.081-0.05-0.119-0.077c-0.159,0.12-0.357,0.191-0.571,0.191h-2.219
		c-0.528,0-0.955-0.427-0.955-0.955v-0.696c-0.058-0.008-0.114-0.02-0.169-0.038c-0.068,0.023-0.14,0.038-0.215,0.043v0.691
		c0,0.528-0.427,0.955-0.955,0.955h-2.006c-0.214,0-0.413-0.07-0.572-0.191c-0.038,0.027-0.077,0.053-0.118,0.075v0.164
		c0,0.527-0.427,0.954-0.954,0.954h-9.239c-0.1,0-0.195-0.015-0.286-0.043c-0.09,0.028-0.185,0.043-0.285,0.043h-39.146
		c-0.528,0-0.954-0.427-0.954-0.954v-3.436c0-0.205,0.07-0.412,0.193-0.576c0.068-0.091,0.138-0.236,0.161-0.259
		c-0.36-0.145-0.595-0.496-0.595-0.884v-8.354c0-0.258,0.116-0.513,0.298-0.693c0.028-0.026,0.06-0.065,0.082-0.102
		c-0.393-0.975-1.903-5.659-2.599-8.508c-0.27,1.617-0.626,3.701-0.725,4.065c-0.114,0.416-0.491,0.703-0.921,0.703h-3.008
		c-0.433,0-0.811-0.291-0.923-0.709l-2.763-10.351l-2.762,10.351c-0.112,0.418-0.49,0.709-0.923,0.709h-3.007
		c-0.431,0-0.808-0.287-0.922-0.703c-0.098-0.364-0.453-2.446-0.723-4.063c-0.695,2.836-2.198,7.5-2.601,8.503
		c0.022,0.033,0.05,0.069,0.073,0.091c0.197,0.18,0.309,0.436,0.309,0.703v8.357c0,0.392-0.239,0.632-0.602,0.775
		c0.002,0.071,0.086,0.258,0.164,0.362c0.129,0.166,0.197,0.371,0.197,0.581v11.49c0,0.256-0.102,0.502-0.285,0.681
		c-18.993,18.706-35.754,29.213-46.47,34.734c-0.294,0.152-0.65,0.14-0.934-0.034c-0.283-0.173-0.457-0.481-0.457-0.815v-5.176
		h-8.193c-0.528,0-0.955-0.427-0.955-0.954v-33.082h-0.954c-0.528,0-0.955-0.427-0.955-0.955v-1.908h-11.933v1.908
		c0,0.528-0.427,0.955-0.955,0.955h-2.387v23.867c0,0.527-0.427,0.954-0.954,0.954h-5.217c-0.371,0-0.71-0.216-0.867-0.553
		l-0.332-0.718h-4.092c-0.261,0-0.51-0.107-0.69-0.296c-0.179-0.188-0.274-0.439-0.265-0.7c1.003-23.494,1.223-57.067-3.41-83.587
		c-5.883-33.656-18.333-46.817-18.52-47.015c-1.234-1.546-2.83-2.967-3.347-2.983h-1.337c-0.514,0.017-2.112,1.439-3.41,3.052
		c-0.125,0.129-12.573,13.29-18.454,46.946c-6.719,38.44-3.225,91.629-1.996,107.016c0.023,0.266-0.068,0.528-0.249,0.723
		c-0.181,0.196-0.434,0.309-0.701,0.309h-7.233c-0.528,0-0.955-0.428-0.955-0.955v-5.567l-8.87-0.396
		c-0.509-0.024-0.912-0.444-0.912-0.954v-19.095h-2.707v5.93c0,0.527-0.427,0.955-0.955,0.955h-7.4v4.453
		c0,0.526-0.427,0.954-0.955,0.954h-12.411c-0.528,0-0.955-0.428-0.955-0.954v-3.826l-8.579-3.721l-7.969,3.703v4.798
		c0,0.527-0.427,0.954-0.955,0.954h-4.484c-0.362,0-0.692-0.205-0.854-0.527l-4.8-9.615H87.08v8.155
		c0,0.527-0.427,0.955-0.954,0.955h-2.698c-0.528,0-0.955-0.428-0.955-0.955v-53.351c0-0.082,0.011-0.166,0.032-0.244l0.833-3.14
		v-2.881c0-0.306,0.146-0.593,0.394-0.773l0.166-0.121V77.617c-0.094-0.321-0.263-1.034-0.211-1.824
		c-0.088,0.023-0.159,0.029-0.28,0.034c-0.502-0.011-0.91-0.407-0.932-0.908l-0.198-4.239l-1.296-2.784
		c-0.03-0.061-0.063-0.181-0.078-0.248c-0.032-0.145-0.024-0.294,0.015-0.434v-3.851c-0.021,0.008-0.043,0.015-0.064,0.021
		c-0.19,0.049-0.466,0.127-1.7-0.28c-0.272-0.089-0.489-0.296-0.591-0.564l-3.26-8.502c-0.111-0.294-0.072-0.623,0.105-0.883
		c0.065-0.095,0.147-0.177,0.24-0.242v-0.016c-0.246-0.173-0.408-0.458-0.408-0.783V43.31c-0.33-0.15-0.559-0.483-0.559-0.869
		v-2.536c-0.308-0.082-0.567-0.313-0.67-0.634c-0.158-0.496-3.9-12.21-4.781-18.23l-0.056-1.505l-0.061,1.607
		c-0.867,5.918-4.613,17.632-4.772,18.128c-0.102,0.319-0.36,0.552-0.667,0.632v2.538c0,0.387-0.229,0.719-0.561,0.87v8.803
		c0,0.325-0.163,0.61-0.409,0.783v0.016c0.093,0.065,0.176,0.147,0.241,0.242c0.177,0.26,0.216,0.589,0.104,0.883l-3.257,8.502
		c-0.103,0.268-0.319,0.475-0.591,0.564c-1.24,0.409-1.518,0.327-1.703,0.278c-0.022-0.005-0.043-0.014-0.063-0.021v3.885
		c0.033,0.143,0.035,0.294,0.007,0.436c-0.015,0.075-0.039,0.147-0.071,0.214l-1.294,2.784l-0.195,4.237
		c-0.023,0.503-0.431,0.899-0.933,0.91c-0.102-0.003-0.194-0.011-0.281-0.034c0.054,0.79-0.116,1.503-0.209,1.824v20.752
		l0.166,0.121c0.248,0.18,0.393,0.467,0.393,0.773v2.881l0.834,3.14c0.02,0.078,0.031,0.162,0.031,0.244v59.243
		c0,0.223-0.078,0.44-0.221,0.613l-1.02,1.218c-0.183,0.218-0.45,0.343-0.733,0.343h-6.871l-0.054,6.69
		c0,0.528-0.427,0.955-0.955,0.955h-3.341c-0.528,0-0.955-0.427-0.955-0.955v-34.368h-6.205c0,0.527-0.428,0.954-0.955,0.954h-0.477
		v33.414c0,0.528-0.428,0.955-0.955,0.955h-4.296c-0.528,0-0.955-0.427-0.955-0.955V160.27H16.434v13.365
		c0,0.528-0.427,0.955-0.955,0.955H6.41c-0.528,0-0.955-0.427-0.955-0.955v-19.094H2v-1.909h4.41c0.527,0,0.954,0.427,0.954,0.955
		v19.093h7.161v-13.365c0-0.528,0.426-0.955,0.954-0.955h13.366c0.527,0,0.954,0.427,0.954,0.955v13.365h2.387v-33.413
		c0-0.528,0.427-0.955,0.955-0.955h0.477c0-0.528,0.427-0.955,0.955-0.955h8.115c0.527,0,0.954,0.427,0.954,0.955v34.368h1.432
		l0.006-5.354l0.156-1.439c0.053-0.484,0.463-0.853,0.95-0.853h7.277l0.511-0.61v-58.771l-0.833-3.14
		c-0.021-0.078-0.032-0.162-0.032-0.244V99.75l-0.166-0.122c-0.248-0.18-0.393-0.466-0.393-0.772V77.473
		c0-0.104,0.018-0.211,0.05-0.308c0.095-0.281,0.291-1.146,0.06-1.747c-0.327-0.863,0.007-1.739,0.484-2.227
		c0.271-0.277,0.595-0.443,0.929-0.486l0.106-2.304c0.006-0.123,0.036-0.244,0.088-0.357l1.258-2.682v-9.543
		c0-0.142,0.03-0.273,0.086-0.395c-0.061-0.063-0.115-0.133-0.16-0.209c-0.125-0.22-0.157-0.481-0.088-0.726
		c0.105-0.379,0.256-0.814,0.53-1.159V54.21c0-0.528,0.427-0.955,0.955-0.955h0.456c0.528,0,0.955,0.427,0.955,0.955v1.164
		c0.218,0.276,0.397,0.639,0.535,1.087c0.077,0.244,0.051,0.507-0.071,0.732c-0.033,0.066-0.076,0.125-0.125,0.18
		c0.071,0.135,0.112,0.285,0.112,0.447v2.206l2.23-5.823c-0.091-0.147-0.145-0.32-0.145-0.508v-1.581
		c0-0.323,0.162-0.608,0.408-0.782V42.44c0-0.388,0.23-0.72,0.562-0.871l0.005-6.656l0.254-2.548
		c0.046-0.473,0.436-0.841,0.913-0.858c0.498,0.005,0.893,0.319,0.976,0.788l0.201,1.177c1.165-3.961,2.622-9.262,3.099-12.502
		l0.186-4.947c-0.292-0.359-0.654-0.953-0.615-1.663c0.024-0.441,0.213-1.068,0.949-1.61c0.015-0.023,0.032-0.046,0.048-0.068v-1.45
		l-0.43-0.122c-0.507-0.141-0.804-0.667-0.662-1.174c0.224-0.806,0.529-1.665,1.092-2.223v-2.59c0-0.527,0.428-0.954,0.955-0.954
		h0.916c0.527,0,0.954,0.427,0.954,0.954v2.674c0.56,0.58,0.909,1.434,1.112,2.11c0.074,0.242,0.046,0.506-0.073,0.729
		c-0.121,0.224-0.324,0.39-0.569,0.462l-0.47,0.14v1.501c0.748,0.545,0.939,1.18,0.963,1.621c0.039,0.712-0.323,1.306-0.618,1.663
		l0.18,4.842c0.484,3.298,1.941,8.617,3.104,12.588l0.205-1.157c0.082-0.469,0.52-0.783,0.975-0.788
		c0.478,0.018,0.867,0.386,0.914,0.858l0.261,2.643v6.563c0.33,0.149,0.559,0.483,0.559,0.869v8.891
		c0.247,0.174,0.409,0.459,0.409,0.782v1.581c0,0.188-0.054,0.36-0.146,0.508l2.234,5.828v-2.211c0-0.159,0.039-0.31,0.108-0.439
		c-0.207-0.235-0.296-0.567-0.205-0.89c0.105-0.381,0.256-0.814,0.53-1.159V54.21c0-0.528,0.427-0.955,0.954-0.955h0.457
		c0.528,0,0.955,0.427,0.955,0.955v1.164c0.27,0.341,0.438,0.758,0.537,1.1c0.103,0.347-0.002,0.706-0.243,0.945
		c0.056,0.123,0.088,0.257,0.088,0.4v9.52l1.261,2.705c0.052,0.111,0.082,0.234,0.087,0.357l0.108,2.304
		c0.332,0.045,0.655,0.211,0.925,0.484c0.478,0.487,0.811,1.365,0.485,2.229c-0.229,0.601-0.032,1.464,0.062,1.741
		c0.033,0.101,0.052,0.207,0.052,0.313v21.383c0,0.307-0.146,0.593-0.394,0.772l-0.166,0.122v2.519c0,0.082-0.011,0.166-0.031,0.244
		l-0.834,3.14v52.271h0.789v-8.156c0-0.528,0.427-0.955,0.955-0.955h11.023c0.362,0,0.692,0.205,0.854,0.528l4.8,9.616h2.938v-4.453
		c0-0.371,0.217-0.708,0.552-0.865l8.911-4.14c0.25-0.115,0.534-0.119,0.783-0.012l9.547,4.141c0.349,0.15,0.575,0.496,0.575,0.876
		v3.498h10.501v-4.453c0-0.527,0.427-0.954,0.955-0.954h7.401v-5.93c0-0.528,0.426-0.954,0.954-0.954h4.617
		c0.528,0,0.955,0.426,0.955,0.954V165.8l8.87,0.396c0.509,0.022,0.911,0.442,0.911,0.953v5.527h5.246
		c-1.298-16.666-4.517-68.624,2.099-106.466c5.995-34.313,18.439-47.408,18.904-47.88c0.891-1.111,3.142-3.699,4.84-3.699h1.337
		c1.697,0,3.949,2.588,4.777,3.63c0.526,0.541,12.972,13.636,18.969,47.949c4.6,26.314,4.451,59.466,3.481,83.001h3.707
		c0.371,0,0.711,0.217,0.867,0.554l0.332,0.718h3.653v-23.867c0-0.527,0.427-0.955,0.954-0.955h2.387v-1.908
		c0-0.528,0.427-0.955,0.955-0.955h13.843c0.528,0,0.954,0.427,0.954,0.955v1.908h0.955c0.528,0,0.955,0.428,0.955,0.955v33.082
		h8.193c0.528,0,0.955,0.428,0.955,0.955v4.554c9.026-4.801,25.636-15.044,44.327-33.391v-10.805
		c-0.216-0.373-0.485-1.016-0.3-1.693c0.069-0.256,0.22-0.57,0.541-0.843v-7.464c-0.396-0.533-0.584-1.248-0.233-1.885
		c0.384-0.824,2.809-8.638,2.809-9.737c0-0.306,0.146-0.58,0.37-0.753v-0.332h-0.002c-0.528,0-0.955-0.427-0.955-0.955v-0.574
		c0-0.527,0.427-0.955,0.955-0.955l0.002-1.123c0-0.526,0.427-0.954,0.955-0.954h0.572c0.528,0,0.955,0.428,0.955,0.954v1.123
		c0.516,0.014,0.93,0.437,0.93,0.955v0.574c0,0.518-0.414,0.941-0.93,0.955v0.391c0.147,0.141,0.251,0.326,0.285,0.539
		c0.304,1.863,0.649,3.912,0.843,4.978h1.491l2.976-11.153v-0.609c-0.125-0.301-0.246-0.772-0.052-1.236
		c0.071-0.175,0.179-0.328,0.313-0.451v-5.719c-0.203-0.176-0.332-0.435-0.332-0.724v-0.573c0-0.289,0.129-0.55,0.332-0.725v-0.171
		c0-0.528,0.427-0.955,0.955-0.955h0.574c0.528,0,0.955,0.427,0.955,0.955v0.225c0.17,0.173,0.274,0.409,0.274,0.671v0.573
		c0,0.262-0.104,0.498-0.274,0.669v5.902c0.08,0.097,0.145,0.205,0.194,0.326c0.19,0.464,0.071,0.934-0.056,1.234v0.607
		l2.978,11.153h1.491c0.194-1.065,0.539-3.114,0.845-4.978c0.034-0.213,0.138-0.398,0.285-0.539v-0.391
		c-0.516-0.014-0.93-0.438-0.93-0.955v-0.574c0-0.519,0.414-0.941,0.93-0.955v-1.123c0-0.526,0.427-0.954,0.955-0.954h0.571
		c0.527,0,0.954,0.428,0.954,0.954v1.123h0.002c0.528,0,0.955,0.428,0.955,0.955v0.574c0,0.528-0.427,0.955-0.955,0.955
		l-0.002,0.328c0.227,0.175,0.372,0.449,0.372,0.757c0,1.107,2.422,8.914,2.79,9.707c0.365,0.658,0.179,1.38-0.215,1.917v7.462
		c0.321,0.272,0.472,0.587,0.541,0.843c0.185,0.678-0.084,1.32-0.3,1.693v2.196h37.236v-13.294c0-0.528,0.427-0.955,0.955-0.955
		h0.571c0.527,0,0.954,0.427,0.954,0.955v13.294h7.33v-0.049c0-0.361,0.202-0.679,0.5-0.839v-0.593c0-0.25,0.099-0.479,0.261-0.648
		c0.443-0.571,0.898-0.658,1.282-0.684c0.463,0.008,0.917,0.254,1.242,0.668c0.166,0.172,0.269,0.407,0.269,0.664v0.478h0.097v-0.69
		c0-0.363,0.204-0.68,0.504-0.843c-0.001-0.014-0.001-0.026-0.001-0.041v-0.574c0-0.336,0.174-0.63,0.435-0.8
		c0.132-0.369,0.485-0.632,0.899-0.632h0.574c0.421,0,0.778,0.271,0.905,0.65c0.245,0.173,0.406,0.459,0.406,0.781v0.574
		c0,0.019-0.001,0.036-0.002,0.055c0.289,0.164,0.483,0.473,0.483,0.829v0.69h0.309v-0.478c0-0.189,0.057-0.377,0.163-0.533
		c0.468-0.693,1.019-0.816,1.392-0.818c0.815,0.02,1.277,0.72,1.361,0.859c0.089,0.149,0.137,0.318,0.137,0.492v0.591
		c0.298,0.162,0.501,0.478,0.501,0.841l7.256,0.049v-13.294c0-0.528,0.426-0.955,0.954-0.955h0.573c0.527,0,0.954,0.427,0.954,0.955
		v13.294h37.114v-2.196c-0.216-0.373-0.485-1.016-0.3-1.693c0.069-0.256,0.22-0.57,0.54-0.843v-7.464
		c-0.396-0.535-0.583-1.249-0.23-1.885c0.383-0.824,2.808-8.638,2.808-9.737c0-0.308,0.145-0.582,0.371-0.755v-0.33
		c-0.528,0-0.955-0.427-0.955-0.955v-0.574c0-0.527,0.427-0.955,0.955-0.955v-1.123c0-0.526,0.427-0.954,0.954-0.954h0.574
		c0.528,0,0.955,0.428,0.955,0.954v1.123c0.514,0.016,0.926,0.437,0.926,0.955v0.574c0,0.518-0.412,0.94-0.926,0.955v0.395
		c0.146,0.141,0.247,0.324,0.281,0.535c0.306,1.863,0.653,3.912,0.846,4.978h1.491l2.976-11.153v-0.609
		c-0.126-0.301-0.246-0.772-0.054-1.236c0.073-0.175,0.179-0.328,0.315-0.451v-5.719c-0.204-0.176-0.332-0.435-0.332-0.724v-0.573
		c0-0.289,0.128-0.55,0.332-0.725v-0.171c0-0.528,0.428-0.955,0.954-0.955h0.574c0.527,0,0.954,0.427,0.954,0.955v0.223
		c0.171,0.173,0.276,0.411,0.276,0.673v0.573c0,0.262-0.105,0.5-0.276,0.671v5.9c0.08,0.095,0.145,0.205,0.194,0.324
		c0.19,0.465,0.072,0.934-0.054,1.234v0.609l2.977,11.153h1.49c0.193-1.065,0.539-3.114,0.843-4.978
		c0.035-0.213,0.138-0.398,0.286-0.539v-0.391c-0.518-0.014-0.931-0.438-0.931-0.955v-0.574c0-0.519,0.413-0.941,0.931-0.955v-1.123
		c0-0.526,0.427-0.954,0.955-0.954h0.574c0.527,0,0.953,0.428,0.953,0.954v1.123c0.528,0,0.955,0.428,0.955,0.955v0.574
		c0,0.528-0.427,0.955-0.955,0.955v0.332c0.226,0.173,0.37,0.447,0.37,0.753c0,1.104,2.426,8.913,2.796,9.711
		c0.359,0.658,0.174,1.378-0.219,1.911v7.464c0.319,0.272,0.469,0.587,0.539,0.843c0.188,0.675-0.083,1.32-0.297,1.691v10.406
		c23.02,22.703,42.986,33.179,50.307,36.554v-3.337c0-0.528,0.428-0.955,0.955-0.955h13.961l1.316,0.054V149.25
		c0-0.528,0.427-0.955,0.954-0.955h0.783l0.868-1.74c0.163-0.322,0.493-0.527,0.856-0.527h9.427c0.435,0,0.815,0.294,0.924,0.714
		l0.404,1.554h0.581c0.528,0,0.955,0.427,0.955,0.955v22.916h1.111v-27.93c0-0.526,0.428-0.954,0.955-0.954h15.752
		c0.527,0,0.955,0.428,0.955,0.954v0.479h2.863c0.528,0,0.955,0.427,0.955,0.954v19.485h10.747c0.527,0,0.955,0.428,0.955,0.954
		v8.831h15.486c0.526,0,0.954,0.427,0.954,0.955v2.939h9.092c0.527,0,0.955,0.427,0.955,0.954v2.71l10.27,0.591
		c0.407-6.196,2.945-41.149,9.866-65.144c0.118-0.407,0.492-0.689,0.917-0.689h2.814c0.425,0,0.799,0.282,0.918,0.689
		c6.939,24.064,9.474,59.148,9.868,65.195h28.085v-3.961c0-0.527,0.428-0.954,0.954-0.954h14.851v-5.251
		c0-0.528,0.427-0.955,0.955-0.955h7.637v-6.686c0-0.528,0.427-0.955,0.955-0.955h3.249c0.641-0.919,1.619-1.7,2.837-2.263v-1.557
		c0-2.633,2.142-4.773,4.773-4.773c2.633,0,4.773,2.141,4.773,4.773v1.839c0.943,0.526,1.705,1.199,2.242,1.98h3.605h3.955v-11.325
		H719.007"/>
</g>
</svg>
