<?xml version="1.0" encoding="utf-8"?>
<!-- Generator: Adobe Illustrator 19.0.0, SVG Export Plug-In . SVG Version: 6.00 Build 0)  -->
<svg version="1.1" id="Layer_1" xmlns="http://www.w3.org/2000/svg" xmlns:xlink="http://www.w3.org/1999/xlink" x="0px" y="0px"
	 viewBox="0 0 1397.93 521.975" enable-background="new 0 0 1397.93 521.975" xml:space="preserve">
<g>
	<path fill="#FFFFFF" d="M338.329,483.45h-20.488v-25.727c0.249-0.973,2.581-9.213,10.214-9.213h0.06
		c7.701,0,9.957,8.166,10.214,9.21V483.45z M328.115,446.603h-0.06c-9.586,0-12.077,10.693-12.101,10.802
		c-0.015,0.066-0.022,0.138-0.022,0.207v26.794c0,0.527,0.427,0.955,0.954,0.955h22.398c0.528,0,0.955-0.428,0.955-0.955v-26.794
		c0-0.069-0.008-0.139-0.023-0.207C340.192,457.296,337.708,446.603,328.115,446.603"/>
	<path fill="#FFFFFF" d="M608.247,434.885h6.466c1.114,8.4,2.576,15.512,4.354,21.175h-15.174
		C605.672,450.398,607.134,443.287,608.247,434.885 M620.38,457.969c0.308,0,0.595-0.147,0.775-0.397
		c0.18-0.25,0.228-0.571,0.129-0.862c-1.984-5.914-3.594-13.621-4.784-22.901c-0.063-0.477-0.466-0.833-0.948-0.833h-8.144
		c-0.481,0-0.886,0.356-0.946,0.833c-1.192,9.282-2.804,16.989-4.787,22.901c-0.1,0.291-0.05,0.612,0.129,0.862
		c0.181,0.25,0.468,0.397,0.776,0.397H620.38z"/>
	<path fill="#FFFFFF" d="M620.014,480.352c-0.527,0-0.954,0.427-0.954,0.955v9.061h-26.578v-2.699c0-0.287-0.127-0.546-0.329-0.721
		c1.446-3.83,6.515-13.985,19.659-14.08c7.921,0.057,12.898,3.815,15.872,7.483H620.014z M611.812,470.96
		c-15.916,0.111-20.975,13.7-21.829,16.424c-0.09,0.29-0.037,0.605,0.143,0.85c0.114,0.155,0.27,0.271,0.446,0.334v2.755
		c0,0.528,0.428,0.955,0.955,0.955h28.487c0.528,0,0.955-0.427,0.955-0.955v-9.061h8.615c0.354,0,0.678-0.195,0.844-0.509
		c0.164-0.314,0.144-0.691-0.056-0.984C627.339,476.331,621.66,471.028,611.812,470.96"/>
	<path fill="#FFFFFF" d="M82.566,455.069v-1.833l0.012-0.028l0.008,0.028L82.566,455.069z M55.812,453.236l0.01-0.033l0.014,2.114
		L55.812,453.236z M699.331,472.311v-11.934c0-0.526-0.427-0.953-0.955-0.953h-8.536v-1.554c0-0.527-0.427-0.955-0.954-0.955
		h-19.155c-0.527,0-0.955,0.428-0.955,0.955v0.804h-5.968c-0.293,0-0.571,0.134-0.752,0.365l-4.713,6.016
		c-0.134,0.168-0.204,0.376-0.204,0.589v14.708H637.66c-2.859-4.631-5.469-10.524-7.77-17.54h0.234c0.527,0,0.955-0.427,0.955-0.955
		v-4.719c0-0.528-0.428-0.955-0.955-0.955h-2.233c-2.007-7.236-3.801-15.605-5.337-24.898h0.004c0.527,0,0.955-0.427,0.955-0.955
		v-2.978c0-0.527-0.428-0.954-0.955-0.954h-0.777c-5.872-38.955-5.717-81.147-5.715-81.583c-0.004-0.684,0.117-2.665,0.718-3.612
		c0.096-0.152,0.147-0.33,0.147-0.51v-2.001c0-0.351-0.188-0.657-0.471-0.822c0.067-0.09,0.119-0.191,0.153-0.303
		c0.03-0.104,0.723-2.531-0.893-4.705l-0.354-0.474c-0.768-1.039-1.333-1.805-1.926-2.268c0.2-0.175,0.327-0.432,0.327-0.72v-0.962
		c0-0.097-0.017-0.191-0.041-0.279c0.024-0.089,0.041-0.183,0.041-0.28v-0.962c0-0.102-0.017-0.201-0.047-0.295
		c0.029-0.093,0.047-0.191,0.047-0.294v-0.963c0-0.12-0.023-0.235-0.064-0.341c0.041-0.107,0.064-0.221,0.064-0.341v-0.96
		c0-0.389-0.232-0.722-0.564-0.871c-0.063-0.235-0.214-0.436-0.415-0.561v-5.939c0-0.528-0.428-0.955-0.955-0.955h-0.746
		c-0.527,0-0.954,0.427-0.954,0.955v6.033c-0.133,0.114-0.232,0.267-0.283,0.439c-0.367,0.132-0.63,0.485-0.63,0.898v0.96
		c0,0.12,0.021,0.234,0.063,0.341c-0.041,0.105-0.063,0.221-0.063,0.341v0.963c0,0.102,0.016,0.201,0.046,0.294
		c-0.03,0.094-0.046,0.192-0.046,0.295v0.962c0,0.098,0.015,0.191,0.041,0.28c-0.026,0.088-0.041,0.183-0.041,0.279v0.962
		c0,0.28,0.12,0.533,0.313,0.707c-0.604,0.467-1.18,1.247-1.95,2.29l-0.346,0.465c-1.618,2.174-0.924,4.602-0.895,4.705
		c0.033,0.111,0.086,0.213,0.152,0.303c-0.281,0.165-0.469,0.472-0.469,0.822v2.001c0,0.18,0.05,0.357,0.146,0.51
		c0.599,0.947,0.722,2.93,0.721,3.622c0.001,0.426,0.155,42.612-5.717,81.573h-0.774c-0.528,0-0.955,0.427-0.955,0.954v2.978
		c0,0.528,0.427,0.955,0.955,0.955h0.002c-1.535,9.284-3.33,17.652-5.339,24.898h-2.233c-0.527,0-0.955,0.427-0.955,0.955v4.719
		c0,0.528,0.428,0.955,0.955,0.955h0.238c-3.578,10.917-7.801,18.954-12.565,23.902h-1.948c-0.528,0-0.955,0.427-0.955,0.954v2.7
		h-4.475v-4.964c0-0.527-0.427-0.954-0.954-0.954h-4.502v-17.819c0-0.446-0.305-0.821-0.717-0.926v-4.982
		c0-0.412-0.26-0.763-0.625-0.896v-1.242c0-0.527-0.427-0.955-0.955-0.955h-16.646c-0.528,0-0.955,0.428-0.955,0.955v1.242
		c-0.367,0.132-0.628,0.484-0.628,0.896v4.982c-0.41,0.108-0.714,0.481-0.714,0.926v8.272h-0.034c-0.528,0-0.955,0.427-0.955,0.955
		v9.386h-4.234c-0.527,0-0.955,0.428-0.955,0.955v2.7h-2.358v-31.345c0-0.224-0.041-2.213-1.496-2.987l-0.947-0.471l-0.222-2.089
		c-0.065-0.307-0.339-1.341-1.119-1.798c-0.005-0.004-0.011-0.008-0.017-0.011v-1.281c0-0.527-0.428-0.954-0.954-0.954h-9.282
		c-0.528,0-0.955,0.427-0.955,0.954v1.281c-0.006,0.003-0.011,0.007-0.018,0.011c-0.778,0.457-1.053,1.491-1.133,1.898l-0.207,1.988
		l-0.972,0.482c-1.43,0.763-1.471,2.752-1.471,2.976v10.461h-0.809c-0.526,0-0.954,0.427-0.954,0.955v1.292l-7.679,7.061
		l-6.138,0.405c-0.502,0.033-0.892,0.449-0.892,0.953v4.057h-5.489c-0.527,0-0.954,0.427-0.954,0.955v8.469h-7.037v-2.99
		c0-0.414-0.263-0.766-0.631-0.899v-5.724c0-0.528-0.427-0.955-0.954-0.955h-0.664l-5.449-10.736v-2.995
		c0-0.255-0.102-0.5-0.283-0.679l-0.627-0.619c-0.178-0.177-0.419-0.276-0.671-0.276h-1.253c-0.251,0-0.492,0.1-0.671,0.276
		l-0.627,0.619c-0.18,0.179-0.283,0.424-0.283,0.679v2.995l-5.448,10.736h-0.672c-0.526,0-0.954,0.427-0.954,0.955v2.867
		l-1.917,0.108v-22.193c0-0.527-0.427-0.955-0.955-0.955h-5.988c-0.147,0-0.291,0.034-0.423,0.1l-7.835,3.871
		c-0.325,0.16-0.532,0.492-0.532,0.855v9.711h-1.193c-0.528,0-0.955,0.428-0.955,0.955v7.854h-2.04
		c0.057-4.107,0.123-5.754,0.168-6.414c0.103-0.173,0.149-0.375,0.131-0.578c-0.047-0.496-0.511-1.05-1.009-1.05
		c-0.008,0-0.017,0.002-0.025,0.002c-0.282,0.011-0.489,0.021-0.643,0.183h-1.988v-7.813c0-0.528-0.427-0.955-0.954-0.955h-1.88
		c-0.174,0-0.338,0.047-0.478,0.129v-3.917c0-0.528-0.427-0.955-0.954-0.955h-0.299v-3.7c0-0.453-0.317-0.833-0.74-0.93
		l-0.813-3.241c-0.108-0.423-0.664-0.721-1.103-0.721c-0.438,0-0.819,0.298-0.927,0.723l-0.809,3.239
		c-0.424,0.097-0.74,0.477-0.74,0.93v3.7h-0.302c-0.528,0-0.955,0.427-0.955,0.955v3.913c-0.141-0.078-0.303-0.125-0.474-0.125
		h-1.88c-0.528,0-0.955,0.427-0.955,0.955v7.813h-0.774v-13.771c0-0.528-0.428-0.955-0.955-0.955h-5.222v-1.999
		c0-0.527-0.427-0.954-0.955-0.954h-13.425c-0.527,0-0.955,0.427-0.955,0.954v1.999h-1.193c-0.528,0-0.955,0.427-0.955,0.955v18.781
		l-6.384-0.255h-1.555v-25.538c0-0.527-0.427-0.955-0.955-0.955h-23.628c-0.528,0-0.955,0.428-0.955,0.955v31.292l-9.338-1.73
		v-45.438c0.388-0.121,0.668-0.482,0.668-0.908v-2.511l2.36-3.681c0.518-0.009,0.936-0.434,0.936-0.955v-1.898
		c0-0.527-0.427-0.954-0.954-0.954h-2.227v-6.012l0.992-2.45c0.119-0.293,0.086-0.629-0.091-0.891
		c-0.179-0.263-0.476-0.422-0.793-0.422h-0.332v-0.22c0-0.528-0.427-0.955-0.954-0.955H344.11v-0.384
		c0-0.402-0.254-0.763-0.634-0.898c-0.357-0.127-8.774-3.111-13.948-3.111h-2.882c-5.17,0-13.595,2.984-13.952,3.111
		c-0.38,0.134-0.633,0.496-0.633,0.898v0.384h-18.742c-0.527,0-0.954,0.427-0.954,0.955v0.22h-0.332
		c-0.318,0-0.615,0.159-0.792,0.422c-0.178,0.262-0.212,0.598-0.093,0.891l0.993,2.45v6.012h-2.226
		c-0.528,0-0.955,0.427-0.955,0.954v1.898c0,0.522,0.417,0.944,0.934,0.955l2.361,3.681v2.511c0,0.427,0.28,0.787,0.667,0.908
		v32.386h-13.527c-0.397,0-0.753,0.245-0.893,0.616l-1.358,3.605h-2.055v-11.061c0-0.527-0.427-0.954-0.955-0.954h-3.035
		c-3.388-3.323-7.412-3.323-11.132,0h-3.017c-0.528,0-0.955,0.427-0.955,0.954v11.061h-2.088c-0.528,0-0.955,0.427-0.955,0.954
		v2.065h-6.026c-0.528,0-0.955,0.428-0.955,0.955h-9.44v-0.197c0-0.527-0.427-0.954-0.955-0.954h-9.914
		c-0.135,0-0.267,0.027-0.389,0.082c-0.742,0.333-1.131,0.071-1.433-0.25l-1.208-1.208v-2.04c0-0.204-0.066-0.403-0.187-0.567
		l-0.361-0.491v-1.424c0.386-0.765,1.231-3.013,0.262-6.75c-0.064-0.138-0.529-1.098-1.428-1.535
		c-0.162-2.772-1.321-12.539-9.582-18.709v-0.705c0-0.527-0.427-0.955-0.955-0.955l-0.009-1.02c0-0.361-0.202-0.678-0.5-0.839
		v-4.669c0.268-0.168,0.446-0.469,0.446-0.808v-3.478c0-0.249-0.095-0.476-0.252-0.646c-0.133-1.228-0.579-3.253-2.032-4.733v-0.601
		c0-0.527-0.427-0.955-0.955-0.955h-0.593c-0.528,0-0.955,0.428-0.955,0.955v0.546c-1.474,1.465-1.935,3.479-2.076,4.73
		c-0.189,0.176-0.309,0.426-0.309,0.703v3.478c0,0.342,0.18,0.64,0.448,0.809v4.781c-0.268,0.17-0.448,0.468-0.448,0.809v1
		c-0.357,0.14-0.609,0.485-0.609,0.891v0.978c-0.473,0.42-1.352,1.24-2.148,2.18v-1.371c0-0.225-0.079-0.441-0.224-0.615
		l-1.363-1.619v-1.342c0-0.166-0.049-0.338-0.131-0.48c-0.021-0.039-0.537-0.966-0.003-1.857c1.007-1.694,0.329-7.42-2.33-9.567
		c-0.245-3.033-2.198-19.323-16.18-28.41c-0.242-0.848-0.918-2.892-2.158-4.256v-3.88c0-0.291-0.132-0.565-0.36-0.747l-0.384-0.307
		v-1.527c0-0.323-0.16-0.609-0.406-0.782v-4.192c0.389-0.121,0.671-0.482,0.671-0.912v-5.216c0-0.336-0.174-0.632-0.437-0.802
		c-0.181-1.798-0.823-4.885-3.053-7.061v-1.15c0.426-0.097,0.743-0.478,0.743-0.932v-1.045c0-0.46-0.325-0.843-0.758-0.934
		c-0.08-0.447-0.47-0.787-0.94-0.787h-1.044c-0.477,0-0.872,0.35-0.944,0.807c-0.393,0.117-0.68,0.483-0.68,0.914v1.045
		c0,0.428,0.281,0.789,0.669,0.91v1.232c-2.212,2.201-2.831,5.29-3.001,7.059c-0.219,0.175-0.359,0.443-0.359,0.745v5.216
		c0,0.43,0.282,0.791,0.671,0.912v4.076c-0.368,0.132-0.632,0.484-0.632,0.898v1.527l-0.384,0.307
		c-0.228,0.182-0.36,0.456-0.36,0.747v3.88c-1.242,1.364-1.917,3.407-2.157,4.256c-13.982,9.087-15.935,25.377-16.18,28.41
		c-2.66,2.149-3.34,7.873-2.332,9.567c0.531,0.892,0.018,1.818,0,1.85c-0.088,0.147-0.134,0.316-0.134,0.488v1.342l-1.364,1.619
		c-0.146,0.174-0.225,0.391-0.225,0.615v1.367c-0.796-0.939-1.675-1.756-2.148-2.176v-0.978c0-0.404-0.252-0.751-0.608-0.889v-1.002
		c0-0.255-0.132-0.486-0.328-0.658c-0.036-0.047-0.075-0.089-0.118-0.129v-4.805c0.268-0.168,0.446-0.469,0.446-0.808v-3.478
		c0-0.277-0.118-0.527-0.308-0.703c-0.14-1.249-0.598-3.263-2.077-4.73v-0.546c0-0.527-0.427-0.955-0.954-0.955h-0.592
		c-0.527,0-0.954,0.428-0.954,0.955v0.601c-1.454,1.48-1.899,3.505-2.033,4.733c-0.156,0.17-0.251,0.397-0.251,0.646v3.478
		c0,0.339,0.177,0.639,0.443,0.808v4.671c-0.294,0.164-0.494,0.478-0.494,0.837v1.02h-0.013c-0.527,0-0.955,0.428-0.955,0.955v0.705
		c-8.262,6.17-9.421,15.94-9.582,18.711c-0.902,0.442-1.378,1.433-1.484,1.693c-0.695,2.717-0.382,4.651-0.02,5.764h-9.379
		l0.149-7.712c0.004-0.258-0.094-0.504-0.274-0.688c-0.179-0.184-0.425-0.286-0.681-0.286h-4.439c-3.628-3.369-8.035-3.373-12.182,0
		h-4.949c-0.254,0-0.497,0.101-0.676,0.282c-0.179,0.179-0.28,0.423-0.279,0.677l0.02,5.763l-5.371,0.049v-6.243l0.17-0.641
		c0.021-0.08,0.031-0.162,0.031-0.245v-1.61c0-0.096-0.014-0.19-0.043-0.281l-0.29-0.944l0.1-8.926
		c0.001-0.1-0.014-0.201-0.044-0.298l-0.829-2.636c-0.121-0.382-0.466-0.647-0.865-0.666c-0.396-0.061-0.767,0.211-0.924,0.577
		l-1.102,2.582c-0.051,0.12-0.077,0.247-0.077,0.375v1.412h-22.91v-1.412c0-0.128-0.026-0.257-0.078-0.376l-1.106-2.583
		c-0.157-0.364-0.531-0.621-0.924-0.575c-0.399,0.019-0.743,0.284-0.864,0.666l-0.829,2.636c-0.03,0.097-0.045,0.198-0.044,0.298
		l0.104,8.926l-0.291,0.944c-0.029,0.091-0.042,0.186-0.042,0.281v1.61c0,0.083,0.01,0.165,0.031,0.245l0.17,0.641v11.019h-5.76
		v-16.23c0-0.527-0.427-0.955-0.955-0.955H35.225v-3.342c0-0.526-0.427-0.954-0.955-0.954h-8.592c-0.528,0-0.955,0.428-0.955,0.954
		v3.342H5.152v-27.682c0-0.254-0.1-0.498-0.28-0.677c-0.179-0.177-0.422-0.278-0.674-0.278H4.194l-22.819,0.078v1.91h0.003
		l21.865-0.075v27.679c0,0.527,0.427,0.954,0.955,0.954h21.48c0.528,0,0.955-0.427,0.955-0.954V457.2h6.682v3.342
		c0,0.527,0.427,0.954,0.955,0.954h11.934v16.23c0,0.527,0.427,0.955,0.954,0.955h7.669c0.528,0,0.955-0.428,0.955-0.955v-12.099
		c0-0.081-0.01-0.163-0.032-0.243l-0.169-0.642V463.4l0.293-0.949c0.029-0.095,0.043-0.193,0.042-0.293l-0.078-6.693
		c0.03,0.5,0.445,0.896,0.953,0.896h24.82c0.494,0,0.901-0.377,0.95-0.858l-0.076,6.655c-0.001,0.1,0.013,0.198,0.043,0.293
		l0.293,0.949v1.343l-0.17,0.642c-0.021,0.08-0.031,0.162-0.031,0.243v7.332c0,0.256,0.101,0.5,0.282,0.68
		c0.181,0.179,0.411,0.251,0.681,0.275l7.283-0.066c0.526-0.006,0.948-0.434,0.946-0.959l-0.019-5.754h4.336
		c0.226,0,0.445-0.08,0.619-0.229c2.503-2.131,6.299-3.872,10.164-0.048c0.179,0.177,0.419,0.276,0.671,0.276h3.849l-0.15,7.712
		c-0.004,0.257,0.094,0.503,0.274,0.688c0.18,0.184,0.425,0.285,0.681,0.285h11.646c0.528,0,0.955-0.427,0.955-0.954v-0.375
		c0-0.183-0.06-0.373-0.159-0.527c-0.046-0.073-1.124-1.81-0.276-5.183c0.1-0.218,0.418-0.634,0.62-0.634
		c0.527,0,0.954-0.427,0.955-0.952c0-0.118,0.129-11.718,9.207-18.189c0.252-0.18,0.401-0.471,0.401-0.777v-0.235h0.013
		c0.528,0,0.955-0.427,0.955-0.955v-1.137c0.294-0.164,0.494-0.478,0.494-0.838v-6.315c0-0.339-0.177-0.638-0.444-0.807v-2.081
		c0.118-0.151,0.193-0.34,0.202-0.545c0.038-0.802,0.256-2.705,1.449-3.998c1.198,1.293,1.411,3.191,1.445,3.994
		c0.01,0.235,0.105,0.448,0.255,0.61v2.02c-0.268,0.167-0.446,0.468-0.446,0.807v6.315c0,0.34,0.178,0.64,0.446,0.808v1.167
		c0,0.405,0.251,0.751,0.608,0.89v0.522c0,0.283,0.125,0.55,0.342,0.732c0.02,0.017,2.07,1.742,3.07,3.329
		c0.174,0.277,0.479,0.444,0.807,0.444h0.793c0.527,0,0.954-0.427,0.954-0.954v-2.828l1.364-1.62
		c0.146-0.175,0.225-0.391,0.225-0.616v-1.465c0.266-0.588,0.752-2.054-0.134-3.539c-0.584-0.981,0.079-6.008,2.114-7.264
		c0.268-0.166,0.436-0.452,0.452-0.766c0.009-0.183,1.065-18.322,15.644-27.561c0.211-0.135,0.361-0.347,0.418-0.59
		c0.007-0.026,0.652-2.721,2.007-3.99c0.193-0.181,0.302-0.433,0.302-0.696v-3.81l0.385-0.307c0.227-0.182,0.36-0.456,0.36-0.747
		v-1.089c0.368-0.132,0.632-0.485,0.632-0.898v-5.887c0-0.429-0.283-0.792-0.672-0.912v-3.602c0.179-0.165,0.295-0.398,0.307-0.659
		c0.06-1.323,0.438-4.593,2.651-6.647c2.205,2.045,2.587,5.316,2.648,6.647c0.014,0.295,0.16,0.553,0.38,0.719v3.541
		c-0.389,0.12-0.671,0.483-0.671,0.912v5.887c0,0.323,0.16,0.608,0.406,0.781v1.206c0,0.291,0.132,0.565,0.36,0.747l0.384,0.307
		v3.81c0,0.264,0.109,0.515,0.301,0.696c1.355,1.27,2.002,3.965,2.008,3.991c0.057,0.242,0.208,0.454,0.419,0.589
		c14.58,9.239,15.635,27.379,15.643,27.561c0.016,0.314,0.185,0.6,0.452,0.766c2.035,1.256,2.696,6.282,2.114,7.262
		c-0.889,1.487-0.402,2.953-0.135,3.541v1.465c0,0.226,0.079,0.441,0.223,0.616l1.363,1.62v2.828c0,0.527,0.427,0.954,0.955,0.954
		h0.796c0.328,0,0.633-0.167,0.808-0.444c0.998-1.587,3.045-3.313,3.066-3.329c0.217-0.183,0.342-0.451,0.342-0.732v-0.521
		c0.357-0.141,0.61-0.485,0.61-0.892v-1.165c0.268-0.17,0.447-0.468,0.447-0.81v-6.315c0-0.341-0.179-0.64-0.447-0.809v-2.018
		c0.149-0.16,0.244-0.373,0.254-0.608c0.036-0.805,0.252-2.707,1.446-3.996c1.195,1.291,1.413,3.196,1.45,3.998
		c0.009,0.205,0.084,0.394,0.203,0.545v2.081c-0.268,0.167-0.446,0.468-0.446,0.807v6.315c0,0.362,0.202,0.679,0.5,0.839v1.136
		c0,0.528,0.426,0.955,0.954,0.955l0.01,0.235c0,0.307,0.149,0.598,0.4,0.777c9.078,6.472,9.208,18.071,9.208,18.189
		c0.001,0.525,0.428,0.952,0.955,0.952c0.194,0,0.498,0.381,0.563,0.474c0.905,3.533-0.174,5.27-0.212,5.331
		c-0.109,0.158-0.167,0.348-0.167,0.539v1.984c0,0.203,0.066,0.401,0.187,0.566l0.361,0.49v2.122c0,0.253,0.101,0.496,0.28,0.675
		l1.466,1.465c0.902,0.965,2.124,1.233,3.383,0.75h8.77v0.198c0,0.527,0.427,0.954,0.955,0.954h11.35
		c0.528,0,0.954-0.427,0.954-0.954h6.027c0.528,0,0.955-0.427,0.955-0.955v-2.065h2.088c0.528,0,0.955-0.428,0.955-0.955v-11.061
		h2.433c0.243,0,0.477-0.094,0.654-0.26c3.166-2.985,6.198-2.989,9.017-0.037c0.18,0.19,0.43,0.297,0.691,0.297h2.48v11.061
		c0,0.527,0.427,0.955,0.954,0.955h3.67c0.397,0,0.753-0.246,0.893-0.617l1.358-3.604h13.822c0.527,0,0.955-0.427,0.955-0.955
		v-34.248c0-0.428-0.281-0.789-0.668-0.91v-1.88c0-0.184-0.052-0.362-0.151-0.516l-2.793-4.355c-0.089-0.141-0.21-0.25-0.351-0.327
		v-0.103h2.227c0.527,0,0.954-0.427,0.954-0.955v-7.151c0-0.124-0.023-0.245-0.07-0.358l-0.534-1.316
		c0.467-0.064,0.828-0.462,0.828-0.947v-0.22h18.741c0.528,0,0.955-0.428,0.955-0.955v-0.656c2.053-0.69,8.613-2.782,12.676-2.782
		h2.882c4.065,0,10.62,2.092,12.672,2.782v0.656c0,0.527,0.427,0.955,0.955,0.955h18.743v0.22c0,0.485,0.36,0.884,0.828,0.947
		l-0.533,1.316c-0.047,0.113-0.071,0.234-0.071,0.358v7.151c0,0.528,0.427,0.955,0.955,0.955h2.226v0.103
		c-0.142,0.075-0.263,0.186-0.353,0.327l-2.793,4.355c-0.098,0.153-0.151,0.332-0.151,0.516v1.88
		c-0.388,0.121-0.667,0.483-0.667,0.91v47.141c0,0.46,0.328,0.853,0.781,0.938l11.23,2.082c0.029,0.007,0.055,0.011,0.083,0.015
		c0.119,0.013,0.24,0.003,0.35-0.027c0.142-0.035,0.269-0.104,0.377-0.195l0.002-0.002c0.097-0.082,0.177-0.185,0.235-0.3v-0.002
		c0-0.002,0.001-0.002,0.001-0.002c0.053-0.108,0.086-0.228,0.095-0.353c0.002-0.028,0.002-0.057,0.002-0.084v-31.47h21.719v25.537
		c0,0.528,0.427,0.955,0.955,0.955h2.471l7.339,0.295c0.255,0,0.513-0.086,0.701-0.267c0.185-0.18,0.293-0.43,0.293-0.689v-18.821
		h1.192c0.528,0,0.955-0.428,0.955-0.954v-1.999h11.517v1.999c0,0.526,0.427,0.954,0.953,0.954h5.222v13.772
		c0,0.527,0.427,0.954,0.955,0.954h2.685c0.528,0,0.955-0.427,0.955-0.954v-7.189c0.106,0.413,0.479,0.718,0.925,0.718h1.429
		c0.526,0,0.953-0.427,0.953-0.954v-5.132h0.303c0.527,0,0.955-0.428,0.955-0.954v-3.797c0.248-0.119,0.438-0.346,0.509-0.626
		l0.147-0.591l0.147,0.593c0.071,0.278,0.261,0.505,0.509,0.624v3.797c0,0.526,0.427,0.954,0.954,0.954h0.299v5.132
		c0,0.527,0.427,0.954,0.955,0.954h1.432c0.445,0,0.818-0.305,0.926-0.716v7.187c0,0.527,0.426,0.954,0.954,0.954h2.545
		c-0.078,1.302-0.102,3.424-0.143,6.892c-0.004,0.255,0.098,0.501,0.276,0.683c0.179,0.181,0.423,0.284,0.679,0.284h3.96
		c0.528,0,0.955-0.428,0.955-0.955v-7.854h1.193c0.527,0,0.955-0.427,0.955-0.954v-10.073l7.104-3.509h4.811v22.248
		c0,0.264,0.108,0.514,0.299,0.694c0.193,0.181,0.458,0.289,0.71,0.259l3.826-0.216c0.506-0.028,0.9-0.446,0.9-0.953v-2.816h0.302
		c0.36,0,0.689-0.2,0.853-0.522l5.818-11.463c0.066-0.135,0.102-0.282,0.102-0.434v-2.822l0.534-0.063l0.063,2.886
		c0,0.151,0.036,0.299,0.104,0.434l5.816,11.463c0.164,0.321,0.493,0.522,0.852,0.522h0.295v5.67c0,0.413,0.263,0.764,0.63,0.898
		v3.046c0,0.528,0.427,0.955,0.955,0.955h8.946c0.527,0,0.955-0.427,0.955-0.955v-8.469h5.488c0.528,0,0.955-0.427,0.955-0.954
		v-4.119l5.583-0.368c0.216-0.015,0.423-0.102,0.583-0.249l8.235-7.572c0.195-0.182,0.307-0.436,0.307-0.703v-0.757h0.809
		c0.526,0,0.954-0.428,0.954-0.954v-11.416c0-0.374,0.152-1.128,0.437-1.279l1.417-0.705c0.292-0.145,0.49-0.43,0.524-0.755
		l0.245-2.409c0.03-0.14,0.106-0.345,0.178-0.473c0.218,0.025,0.432-0.053,0.61-0.185c0.245-0.181,0.389-0.464,0.389-0.768v-1.108
		h7.373v1.108c0,0.304,0.143,0.587,0.388,0.768c0.177,0.133,0.393,0.211,0.612,0.185c0.066,0.117,0.137,0.291,0.162,0.373
		l0.261,2.509c0.033,0.325,0.231,0.61,0.523,0.755l1.393,0.694c0.29,0.154,0.456,0.862,0.46,1.29v32.299
		c0,0.528,0.427,0.955,0.955,0.955h4.268c0.528,0,0.955-0.427,0.955-0.955v-2.7h4.234c0.527,0,0.955-0.427,0.955-0.954v-9.387h0.033
		c0.527,0,0.954-0.427,0.954-0.954v-8.304c0.41-0.108,0.714-0.481,0.714-0.924v-5.012c0.368-0.132,0.63-0.484,0.63-0.897v-1.185
		h14.737v1.185c0,0.412,0.26,0.763,0.624,0.897v5.012c0,0.444,0.307,0.819,0.719,0.924v17.85c0,0.528,0.427,0.955,0.954,0.955h4.502
		v4.964c0,0.527,0.427,0.954,0.954,0.954h6.385c0.527,0,0.955-0.427,0.955-0.954v-2.7h1.396c0.256,0,0.5-0.103,0.679-0.283
		c5.272-5.321,9.882-14.136,13.705-26.194c0.091-0.291,0.041-0.608-0.14-0.853c-0.179-0.245-0.466-0.392-0.771-0.392h-0.595v-2.81
		h2.003c0.427,0,0.804-0.283,0.919-0.695c2.188-7.759,4.126-16.814,5.763-26.914c0.044-0.276-0.034-0.559-0.216-0.772
		c-0.181-0.212-0.446-0.335-0.727-0.335h-0.171v-1.068h0.639c0.472,0,0.873-0.346,0.944-0.81
		c6.021-39.332,5.864-82.253,5.861-82.672c0.003-0.292-0.011-2.778-0.866-4.389v-0.791h0.16c0.527,0,0.954-0.427,0.954-0.954v-1.397
		c0-0.527-0.427-0.954-0.954-0.954h-0.017c-0.027-0.601,0.068-1.502,0.691-2.34l0.347-0.47c0.687-0.926,1.462-1.977,1.768-2.016
		c0.259-0.034,0.482-0.169,0.632-0.362c0.132,0.177,0.325,0.309,0.556,0.361c0.328,0.074,1.057,1.057,1.76,2.009l0.354,0.478
		c0.623,0.838,0.718,1.741,0.689,2.34h-0.018c-0.527,0-0.954,0.427-0.954,0.954v1.397c0,0.527,0.427,0.954,0.954,0.954h0.162v0.791
		c-0.857,1.61-0.867,4.098-0.865,4.378c-0.002,0.43-0.16,43.351,5.861,82.681c0.07,0.466,0.471,0.812,0.942,0.812h0.645v1.068
		h-0.174c-0.279,0-0.546,0.123-0.728,0.335c-0.181,0.214-0.259,0.496-0.215,0.772c1.638,10.11,3.575,19.165,5.76,26.914
		c0.116,0.412,0.493,0.695,0.92,0.695h2.002v2.81h-0.591c-0.304,0-0.591,0.147-0.77,0.392c-0.182,0.244-0.232,0.561-0.141,0.853
		c2.52,7.953,5.433,14.57,8.654,19.67c0.175,0.278,0.479,0.446,0.807,0.446h20.964c0.528,0,0.955-0.428,0.955-0.955v-15.333
		l4.224-5.391h6.459c0.527,0,0.955-0.427,0.955-0.955v-0.804h17.246v1.553c0,0.528,0.427,0.955,0.954,0.955h8.536v11.935
		c0,0.526,0.428,0.954,0.954,0.954h8.558v-1.909H699.331z"/>
	<path fill="#FFFFFF" d="M728.194,416.857c0.483,0,0.878,0.394,0.878,0.877c0,0.482-0.395,0.877-0.878,0.877
		s-0.876-0.395-0.876-0.877C727.318,417.251,727.71,416.857,728.194,416.857 M728.194,420.52c1.536,0,2.786-1.249,2.786-2.785
		s-1.25-2.786-2.786-2.786c-1.536,0-2.786,1.25-2.786,2.786S726.658,420.52,728.194,420.52"/>
	<path fill="#FFFFFF" d="M733.523,451.912c0.482,0,0.876,0.395,0.876,0.877c0,0.484-0.393,0.88-0.876,0.88
		c-0.486,0-0.881-0.396-0.881-0.88C732.642,452.307,733.037,451.912,733.523,451.912 M733.523,455.578
		c1.535,0,2.785-1.251,2.785-2.789c0-1.537-1.25-2.786-2.785-2.786c-1.538,0-2.79,1.249-2.79,2.786
		C730.733,454.327,731.985,455.578,733.523,455.578"/>
	<path fill="#FFFFFF" d="M740.164,462.224c0.486,0,0.88,0.394,0.88,0.876c0,0.483-0.393,0.877-0.88,0.877
		c-0.483,0-0.877-0.394-0.877-0.877C739.288,462.617,739.681,462.224,740.164,462.224 M737.378,463.1
		c0,1.536,1.249,2.786,2.786,2.786c1.538,0,2.789-1.25,2.789-2.786c0-1.535-1.251-2.785-2.789-2.785
		C738.627,460.315,737.378,461.565,737.378,463.1"/>
	<path fill="#FFFFFF" d="M748.988,471.33c0.482,0,0.876,0.395,0.876,0.877c0,0.484-0.394,0.88-0.876,0.88
		c-0.486,0-0.88-0.396-0.88-0.88C748.108,471.725,748.502,471.33,748.988,471.33 M748.988,474.996c1.536,0,2.786-1.251,2.786-2.789
		c0-1.537-1.25-2.785-2.786-2.785c-1.538,0-2.79,1.248-2.79,2.785C746.198,473.745,747.45,474.996,748.988,474.996"/>
	<path fill="#FFFFFF" d="M771.497,483.645c0.485,0,0.88,0.395,0.88,0.88c0,0.482-0.394,0.877-0.88,0.877
		c-0.483,0-0.876-0.395-0.876-0.877C770.622,484.039,771.014,483.645,771.497,483.645 M771.497,487.311
		c1.537,0,2.79-1.249,2.79-2.786c0-1.538-1.253-2.789-2.79-2.789c-1.536,0-2.786,1.251-2.786,2.789
		C768.711,486.061,769.961,487.311,771.497,487.311"/>
	<path fill="#FFFFFF" d="M809.708,483.357c0.482,0,0.876,0.395,0.876,0.88c0,0.485-0.394,0.88-0.876,0.88
		c-0.486,0-0.881-0.395-0.881-0.88C808.827,483.752,809.221,483.357,809.708,483.357 M806.917,484.237
		c0,1.538,1.251,2.789,2.79,2.789c1.536,0,2.785-1.251,2.785-2.789c0-1.538-1.249-2.789-2.785-2.789
		C808.168,481.448,806.917,482.699,806.917,484.237"/>
	<path fill="#FFFFFF" d="M840.122,463.063c-0.486,0-0.88-0.395-0.88-0.88c0-0.482,0.393-0.877,0.88-0.877
		c0.482,0,0.876,0.395,0.876,0.877C840.998,462.668,840.605,463.063,840.122,463.063 M840.122,459.397
		c-1.538,0-2.789,1.248-2.789,2.785c0,1.538,1.251,2.789,2.789,2.789c1.536,0,2.786-1.251,2.786-2.789
		C842.909,460.646,841.659,459.397,840.122,459.397"/>
	<path fill="#FFFFFF" d="M852.914,428.389c0,0.484-0.394,0.88-0.88,0.88c-0.482,0-0.877-0.395-0.877-0.88
		c0-0.485,0.395-0.88,0.877-0.88C852.52,427.509,852.914,427.903,852.914,428.389 M849.247,428.389c0,1.538,1.249,2.789,2.786,2.789
		c1.538,0,2.789-1.251,2.789-2.789c0-1.538-1.251-2.789-2.789-2.789C850.497,425.6,849.247,426.851,849.247,428.389"/>
	<path fill="#FFFFFF" d="M842.7,394.116c0.482,0,0.876,0.395,0.876,0.877c0,0.484-0.394,0.88-0.876,0.88
		c-0.486,0-0.88-0.396-0.88-0.88C841.82,394.511,842.213,394.116,842.7,394.116 M842.7,397.782c1.536,0,2.786-1.251,2.786-2.789
		c0-1.537-1.25-2.786-2.786-2.786c-1.538,0-2.79,1.249-2.79,2.786C839.91,396.531,841.162,397.782,842.7,397.782"/>
	<path fill="#FFFFFF" d="M783.413,365.647c0.483,0,0.878,0.395,0.878,0.877c0,0.484-0.395,0.88-0.878,0.88
		c-0.484,0-0.878-0.396-0.878-0.88C782.535,366.042,782.928,365.647,783.413,365.647 M783.413,369.314
		c1.536,0,2.788-1.251,2.788-2.789c0-1.537-1.252-2.786-2.788-2.786c-1.537,0-2.788,1.249-2.788,2.786
		C780.625,368.063,781.875,369.314,783.413,369.314"/>
	<path fill="#FFFFFF" d="M761.417,371.835c0.482,0,0.876,0.393,0.876,0.877c0,0.483-0.393,0.88-0.876,0.88
		c-0.484,0-0.879-0.396-0.879-0.88C760.539,372.228,760.933,371.835,761.417,371.835 M761.417,375.5
		c1.535,0,2.785-1.251,2.785-2.788c0-1.537-1.25-2.786-2.785-2.786c-1.537,0-2.788,1.249-2.788,2.786
		C758.629,374.249,759.88,375.5,761.417,375.5"/>
	<path fill="#FFFFFF" d="M735.928,394.803c0.482,0,0.876,0.395,0.876,0.877c0,0.484-0.394,0.88-0.876,0.88
		c-0.486,0-0.881-0.396-0.881-0.88C735.047,395.197,735.442,394.803,735.928,394.803 M735.928,398.469
		c1.535,0,2.785-1.251,2.785-2.789c0-1.537-1.25-2.786-2.785-2.786c-1.538,0-2.789,1.249-2.789,2.786
		C733.139,397.218,734.39,398.469,735.928,398.469"/>
	<path fill="#FFFFFF" d="M742.972,385.752c0.484,0,0.878,0.395,0.878,0.88c0,0.483-0.394,0.877-0.878,0.877
		c-0.485,0-0.88-0.393-0.88-0.877C742.092,386.147,742.487,385.752,742.972,385.752 M742.972,389.418
		c1.537,0,2.787-1.249,2.787-2.786c0-1.538-1.25-2.789-2.787-2.789c-1.538,0-2.79,1.251-2.79,2.789
		C740.182,388.169,741.434,389.418,742.972,389.418"/>
	<path fill="#FFFFFF" d="M751.621,378.018c0.486,0,0.88,0.395,0.88,0.88c0,0.483-0.394,0.877-0.88,0.877
		c-0.483,0-0.876-0.394-0.876-0.877C750.745,378.412,751.137,378.018,751.621,378.018 M751.621,381.684
		c1.538,0,2.789-1.249,2.789-2.786c0-1.538-1.251-2.789-2.789-2.789c-1.536,0-2.786,1.251-2.786,2.789
		C748.834,380.435,750.084,381.684,751.621,381.684"/>
	<path fill="#FFFFFF" d="M772.127,367.822c0.486,0,0.88,0.395,0.88,0.88c0,0.482-0.393,0.877-0.88,0.877
		c-0.483,0-0.876-0.395-0.876-0.877C771.252,368.217,771.644,367.822,772.127,367.822 M772.127,371.487
		c1.538,0,2.79-1.248,2.79-2.785c0-1.538-1.252-2.789-2.79-2.789c-1.536,0-2.786,1.251-2.786,2.789
		C769.341,370.239,770.591,371.487,772.127,371.487"/>
	<path fill="#FFFFFF" d="M795.156,365.76c0.482,0,0.876,0.395,0.876,0.88c0,0.483-0.393,0.877-0.876,0.877
		c-0.486,0-0.88-0.393-0.88-0.877C794.276,366.154,794.669,365.76,795.156,365.76 M795.156,369.426c1.536,0,2.786-1.249,2.786-2.786
		c0-1.538-1.25-2.789-2.786-2.789c-1.538,0-2.79,1.251-2.79,2.789C792.366,368.177,793.618,369.426,795.156,369.426"/>
	<path fill="#FFFFFF" d="M806.384,367.363c0.482,0,0.876,0.395,0.876,0.88c0,0.483-0.393,0.877-0.876,0.877
		c-0.486,0-0.88-0.393-0.88-0.877C805.504,367.758,805.898,367.363,806.384,367.363 M806.384,371.029
		c1.536,0,2.786-1.249,2.786-2.786c0-1.538-1.25-2.789-2.786-2.789c-1.538,0-2.789,1.251-2.789,2.789
		C803.595,369.78,804.846,371.029,806.384,371.029"/>
	<path fill="#FFFFFF" d="M817.382,371.376c0.482,0,0.875,0.393,0.875,0.877s-0.393,0.88-0.875,0.88c-0.486,0-0.881-0.397-0.881-0.88
		S816.896,371.376,817.382,371.376 M817.382,375.042c1.535,0,2.785-1.251,2.785-2.789c0-1.537-1.25-2.786-2.785-2.786
		c-1.538,0-2.789,1.249-2.789,2.786C814.593,373.791,815.844,375.042,817.382,375.042"/>
	<path fill="#FFFFFF" d="M827.291,377.103c0.482,0,0.876,0.395,0.876,0.877c0,0.484-0.394,0.881-0.876,0.881
		c-0.483,0-0.876-0.396-0.876-0.881C826.414,377.498,826.807,377.103,827.291,377.103 M827.291,380.77
		c1.535,0,2.785-1.251,2.785-2.789c0-1.536-1.25-2.785-2.785-2.785c-1.536,0-2.786,1.249-2.786,2.785
		C824.504,379.519,825.754,380.77,827.291,380.77"/>
	<path fill="#FFFFFF" d="M835.767,385.065c0.485,0,0.88,0.395,0.88,0.877c0,0.484-0.395,0.881-0.88,0.881
		c-0.483,0-0.876-0.397-0.876-0.881C834.891,385.46,835.284,385.065,835.767,385.065 M835.767,388.732
		c1.538,0,2.789-1.251,2.789-2.789c0-1.536-1.251-2.785-2.789-2.785c-1.536,0-2.786,1.249-2.786,2.785
		C832.981,387.48,834.231,388.732,835.767,388.732"/>
	<path fill="#FFFFFF" d="M851.005,415.426c0.481,0,0.876,0.394,0.876,0.876c0,0.483-0.395,0.876-0.876,0.876
		c-0.486,0-0.881-0.393-0.881-0.876C850.125,415.819,850.519,415.426,851.005,415.426 M848.215,416.302
		c0,1.537,1.251,2.786,2.79,2.786c1.535,0,2.784-1.249,2.784-2.786c0-1.536-1.249-2.786-2.784-2.786
		C849.466,413.516,848.215,414.766,848.215,416.302"/>
	<path fill="#FFFFFF" d="M848.197,404.309c0.485,0,0.88,0.396,0.88,0.881c0,0.483-0.395,0.88-0.88,0.88
		c-0.483,0-0.876-0.396-0.876-0.88C847.321,404.704,847.713,404.309,848.197,404.309 M848.197,407.978
		c1.538,0,2.789-1.251,2.789-2.789c0-1.539-1.251-2.79-2.789-2.79c-1.536,0-2.786,1.251-2.786,2.79
		C845.411,406.728,846.661,407.978,848.197,407.978"/>
	<path fill="#FFFFFF" d="M846.306,452.465c-0.483,0-0.877-0.395-0.877-0.877c0-0.484,0.393-0.881,0.877-0.881
		c0.485,0,0.88,0.396,0.88,0.881C847.186,452.07,846.792,452.465,846.306,452.465 M846.306,448.799
		c-1.536,0-2.786,1.251-2.786,2.789c0,1.536,1.25,2.785,2.786,2.785c1.537,0,2.789-1.249,2.789-2.785
		C849.095,450.05,847.843,448.799,846.306,448.799"/>
	<path fill="#FFFFFF" d="M821.849,477.573c0.482,0,0.877,0.396,0.877,0.88c0,0.483-0.395,0.876-0.877,0.876
		c-0.485,0-0.88-0.393-0.88-0.876C820.969,477.969,821.364,477.573,821.849,477.573 M819.06,478.453
		c0,1.537,1.251,2.786,2.789,2.786c1.537,0,2.786-1.249,2.786-2.786c0-1.538-1.249-2.789-2.786-2.789
		C820.311,475.664,819.06,476.915,819.06,478.453"/>
	<path fill="#FFFFFF" d="M831.702,470.357c0.483,0,0.877,0.394,0.877,0.876c0,0.485-0.394,0.88-0.877,0.88
		c-0.485,0-0.88-0.395-0.88-0.88C830.822,470.751,831.216,470.357,831.702,470.357 M828.913,471.233
		c0,1.538,1.251,2.789,2.789,2.789c1.537,0,2.786-1.251,2.786-2.789c0-1.536-1.249-2.786-2.786-2.786
		C830.164,468.447,828.913,469.697,828.913,471.233"/>
	<path fill="#FFFFFF" d="M849.669,440.017c0-0.485,0.394-0.881,0.876-0.881c0.486,0,0.881,0.396,0.881,0.881
		c0,0.484-0.395,0.88-0.881,0.88C850.063,440.897,849.669,440.501,849.669,440.017 M853.335,440.017c0-1.538-1.251-2.789-2.79-2.789
		c-1.536,0-2.785,1.251-2.785,2.789c0,1.537,1.249,2.789,2.785,2.789C852.084,442.806,853.335,441.554,853.335,440.017"/>
	<path fill="#FFFFFF" d="M759.239,478.603c0.486,0,0.88,0.396,0.88,0.881c0,0.483-0.393,0.88-0.88,0.88
		c-0.482,0-0.876-0.397-0.876-0.88C758.363,478.998,758.756,478.603,759.239,478.603 M759.239,482.272
		c1.538,0,2.79-1.252,2.79-2.789c0-1.539-1.252-2.79-2.79-2.79c-1.535,0-2.785,1.251-2.785,2.79
		C756.454,481.021,757.704,482.272,759.239,482.272"/>
	<path fill="#FFFFFF" d="M727.621,428.652c0.484,0,0.878,0.396,0.878,0.882c0,0.483-0.393,0.88-0.878,0.88
		c-0.483,0-0.878-0.396-0.878-0.88C726.743,429.049,727.137,428.652,727.621,428.652 M727.621,432.323
		c1.537,0,2.788-1.251,2.788-2.789c0-1.539-1.251-2.79-2.788-2.79s-2.787,1.251-2.787,2.79
		C724.833,431.072,726.083,432.323,727.621,432.323"/>
	<path fill="#FFFFFF" d="M730.77,405.572c0.486,0,0.88,0.395,0.88,0.877c0,0.484-0.394,0.881-0.88,0.881
		c-0.482,0-0.876-0.397-0.876-0.881C729.894,405.967,730.288,405.572,730.77,405.572 M730.77,409.238
		c1.538,0,2.789-1.251,2.789-2.789c0-1.536-1.251-2.785-2.789-2.785c-1.536,0-2.786,1.249-2.786,2.785
		C727.984,407.987,729.234,409.238,730.77,409.238"/>
	<path fill="#FFFFFF" d="M729.283,442.213c-0.486,0-0.88-0.396-0.88-0.88s0.394-0.877,0.88-0.877c0.482,0,0.876,0.394,0.876,0.877
		S729.765,442.213,729.283,442.213 M729.283,438.547c-1.538,0-2.79,1.249-2.79,2.786c0,1.538,1.252,2.789,2.79,2.789
		c1.536,0,2.786-1.251,2.786-2.789C732.069,439.796,730.819,438.547,729.283,438.547"/>
	<path fill="#FFFFFF" d="M956.042,487.975h-8.048v-32.741c0.005-0.009,0.009-0.021,0.014-0.03c0.06-0.128,0.089-0.267,0.087-0.408
		l0.283-0.302c0.053-0.043,0.101-0.093,0.143-0.147l0.086-0.117c2.597-2.793,4.966-5.5,7.19-8.218l0.246,2.247V487.975z
		 M945.51,487.975h-6.298v-24.376c2.13-1.956,4.241-3.998,6.298-6.097V487.975z M936.728,487.975h-6.299v-16.883
		c2.13-1.689,4.242-3.453,6.299-5.262V487.975z M927.849,487.975h-6.395v-10.293c2.14-1.45,4.283-2.987,6.395-4.59V487.975z
		 M918.973,487.975h-6.493v-4.71c2.14-1.211,4.315-2.529,6.493-3.939V487.975z M909.992,487.975h-4.549v-1.076
		c1.428-0.656,2.972-1.426,4.549-2.266V487.975z M957.661,445.539v-2.182c0-0.406-0.257-0.768-0.642-0.902
		c-0.38-0.132-0.81-0.01-1.061,0.31c-2.671,3.379-5.533,6.703-8.801,10.227l-0.081,0.102c-0.043,0.038-0.088,0.079-0.104,0.097
		l-0.625,0.69c-0.1,0.107-0.174,0.232-0.217,0.368c-0.131,0.048-0.253,0.128-0.356,0.235c-2.638,2.765-5.385,5.454-8.16,7.989
		c-0.1,0.092-0.178,0.199-0.23,0.32c-0.124,0.041-0.24,0.106-0.34,0.198c-2.638,2.383-5.383,4.701-8.159,6.888
		c-0.117,0.091-0.209,0.209-0.271,0.339c-0.143,0.03-0.277,0.092-0.396,0.184c-2.709,2.108-5.486,4.121-8.251,5.979
		c-0.1,0.067-0.184,0.151-0.25,0.246c-0.112,0.025-0.219,0.071-0.317,0.137c-2.797,1.858-5.602,3.577-8.339,5.106
		c-0.101,0.056-0.188,0.129-0.261,0.214c-0.109,0.018-0.215,0.054-0.315,0.109c-2.231,1.229-4.438,2.343-6.387,3.22
		c-0.343,0.155-0.563,0.496-0.563,0.871v2.644c0,0.527,0.427,0.954,0.955,0.954h6.457c0.101,0,0.197-0.015,0.29-0.045
		c0.091,0.03,0.189,0.045,0.29,0.045h8.401c0.099,0,0.195-0.015,0.285-0.043c0.09,0.028,0.185,0.043,0.285,0.043h8.305
		c0.119,0,0.232-0.022,0.336-0.061c0.104,0.039,0.217,0.061,0.336,0.061h8.208c0.1,0,0.196-0.015,0.287-0.045
		c0.09,0.03,0.188,0.045,0.287,0.045h8.208c0.1,0,0.197-0.015,0.287-0.045c0.09,0.03,0.187,0.045,0.287,0.045h9.957
		c0.527,0,0.955-0.427,0.955-0.954l-0.006-40.772L957.661,445.539z"/>
	<path fill="#FFFFFF" d="M1087.073,487.975H980.88l-0.006-39.616l0.295-2.819v-6.064h105.614l0.005,6.165l0.284,2.617V487.975z
		 M1088.693,445.539v-7.018c0-0.528-0.428-0.955-0.955-0.955H980.214c-0.526,0-0.954,0.427-0.954,0.955l0.005,6.917l-0.294,2.819
		v40.671c0,0.527,0.429,0.954,0.954,0.954h108.101c0.527,0,0.955-0.427,0.955-0.954l-0.006-40.772L1088.693,445.539z"/>
	<path fill="#FFFFFF" d="M1156.525,487.975h-6.045v-7.065c0.016-0.068,0.024-0.14,0.024-0.215v-0.089
		c2.001,1.238,4.018,2.411,6.021,3.5V487.975z M1147.999,487.975h-6.586v-13.522c2.167,1.592,4.375,3.121,6.586,4.564V487.975z
		 M1138.929,487.975h-6.685V467.15c2.2,1.892,4.439,3.714,6.685,5.44V487.975z M1129.764,487.975h-6.586v-29.266
		c2.154,2.159,4.356,4.247,6.571,6.235v0.069c0,0.056,0.006,0.111,0.015,0.166V487.975z M1120.695,487.975h-8.782v-39.668
		l0.19-1.849c2.748,3.346,5.623,6.592,8.569,9.677v0.287c0,0.068,0.008,0.136,0.022,0.2V487.975z M1157.931,482.695
		c-2.616-1.406-5.264-2.961-7.869-4.622c-0.102-0.065-0.218-0.109-0.333-0.133c-0.068-0.095-0.154-0.179-0.258-0.244
		c-2.841-1.839-5.679-3.826-8.437-5.909c-0.102-0.075-0.215-0.129-0.332-0.16c-0.063-0.103-0.143-0.193-0.239-0.269
		c-2.877-2.194-5.75-4.557-8.542-7.024c-0.1-0.087-0.216-0.152-0.339-0.191c-0.056-0.129-0.138-0.244-0.242-0.337
		c-2.857-2.547-5.693-5.271-8.43-8.094c-0.106-0.107-0.231-0.188-0.368-0.236c-0.044-0.144-0.121-0.276-0.228-0.387
		c-3.579-3.73-7.054-7.701-10.325-11.804c-0.254-0.316-0.684-0.443-1.061-0.306c-0.382,0.134-0.64,0.494-0.64,0.899l0.006,1.561
		l-0.285,2.719c-0.004,0.031-0.006,0.065-0.006,0.099v40.671c0,0.527,0.427,0.955,0.955,0.955h10.691
		c0.101,0,0.195-0.016,0.286-0.045c0.093,0.029,0.188,0.045,0.288,0.045h8.495c0.099,0,0.196-0.016,0.285-0.043
		c0.09,0.027,0.187,0.043,0.285,0.043h8.595c0.1,0,0.195-0.016,0.287-0.045c0.091,0.029,0.186,0.045,0.287,0.045h8.495
		c0.099,0,0.195-0.016,0.284-0.043c0.093,0.027,0.189,0.043,0.287,0.043h7.955c0.528,0,0.955-0.428,0.955-0.955v-5.393
		C1158.435,483.185,1158.242,482.861,1157.931,482.695"/>
	<path fill="#FFFFFF" d="M1347.169,323.28c-0.072,0.061-0.137,0.136-0.187,0.216c-0.049-0.077-0.107-0.148-0.177-0.211
		c-0.168-0.15-0.316-0.4-0.308-0.477c0.002-0.008,0.011-0.024,0.034-0.051c0.2-0.026,0.384-0.115,0.524-0.246
		c0.092,0.066,0.194,0.123,0.301,0.166c0.082,0.07,0.11,0.118,0.113,0.131C1347.481,322.885,1347.332,323.135,1347.169,323.28
		 M697.154,461.397v13.234h6.909h3.185c0.352,0,0.676-0.193,0.842-0.503c0.415-0.776,1.204-1.463,2.223-1.935
		c0.336-0.156,0.552-0.496,0.552-0.867v-2.424c0-1.579,1.285-2.864,2.865-2.864c1.579,0,2.864,1.285,2.864,2.864v2.193
		c0,0.396,0.246,0.753,0.618,0.893c1.301,0.491,2.279,1.25,2.754,2.137c0.166,0.313,0.489,0.506,0.842,0.506h2.826v6.687
		c0,0.528,0.427,0.954,0.955,0.954h7.638v5.251c0,0.528,0.426,0.955,0.954,0.955h14.85v3.961c0,0.527,0.428,0.954,0.955,0.954
		h29.937c0.506,0,0.924-0.396,0.953-0.9c0.021-0.39,2.293-38.915,9.657-64.983h1.372c7.363,26.065,9.636,64.594,9.658,64.983
		c0.015,0.253,0.128,0.49,0.318,0.658c0.188,0.168,0.424,0.273,0.69,0.24l12.118-0.697c0.505-0.028,0.899-0.448,0.899-0.953v-2.654
		h9.092c0.528,0,0.955-0.428,0.955-0.955v-2.938h15.486c0.526,0,0.954-0.427,0.954-0.955v-8.831h10.748
		c0.526,0,0.954-0.427,0.954-0.955v-19.484h2.864c0.527,0,0.954-0.428,0.954-0.955v-0.477h13.843v27.929
		c0,0.527,0.428,0.955,0.955,0.955h3.022c0.526,0,0.954-0.428,0.954-0.955v-22.916h0.365c0.435,0,0.815-0.294,0.925-0.715
		l0.402-1.553h8.1l0.869,1.74c0.162,0.322,0.492,0.527,0.854,0.527h0.418v14.521c0,0.259,0.107,0.509,0.293,0.689
		c0.188,0.181,0.471,0.268,0.7,0.267l15.238-0.094v3.859c0,0.323,0.161,0.623,0.432,0.799c0.271,0.179,0.613,0.209,0.905,0.076
		c6.004-2.628,27.536-13.117,52.506-37.827c0.182-0.18,0.283-0.424,0.283-0.68V429.07c0-0.21-0.069-0.414-0.197-0.581
		c-0.049-0.063-0.144-0.239-0.159-0.252c0.362-0.146,0.599-0.496,0.599-0.886v-8.353c0-0.267-0.11-0.52-0.307-0.7
		c-0.009-0.009-0.046-0.054-0.075-0.096c0.396-0.98,1.905-5.661,2.604-8.507c0.269,1.617,0.625,3.703,0.726,4.069
		c0.114,0.412,0.491,0.699,0.92,0.699h3.006c0.433,0,0.812-0.291,0.923-0.709l2.763-10.353l2.762,10.353
		c0.111,0.418,0.489,0.709,0.922,0.709h3.007c0.432,0,0.809-0.287,0.922-0.703c0.099-0.364,0.455-2.448,0.727-4.065
		c0.695,2.836,2.197,7.5,2.601,8.507c-0.021,0.031-0.05,0.067-0.071,0.089c-0.197,0.18-0.31,0.436-0.31,0.703v8.357
		c0,0.39,0.238,0.632,0.602,0.776c-0.001,0.072-0.087,0.257-0.163,0.361c-0.128,0.166-0.198,0.371-0.198,0.581v3.436
		c0,0.527,0.427,0.955,0.955,0.955h39.021c0.101,0,0.196-0.016,0.287-0.043c0.09,0.027,0.187,0.043,0.286,0.043h9.164
		c0.528,0,0.955-0.428,0.955-0.955v-0.162c0.041-0.023,0.081-0.049,0.119-0.077c0.159,0.12,0.356,0.19,0.57,0.19h2.22
		c0.528,0,0.955-0.427,0.955-0.954v-0.697c0.058-0.008,0.114-0.02,0.169-0.038c0.067,0.022,0.14,0.038,0.215,0.043v0.692
		c0,0.527,0.427,0.954,0.955,0.954h2.006c0.214,0,0.413-0.07,0.572-0.19c0.038,0.028,0.077,0.053,0.118,0.075v0.164
		c0,0.527,0.427,0.955,0.954,0.955h9.238c0.101,0,0.195-0.016,0.286-0.043c0.09,0.027,0.185,0.043,0.285,0.043h39.146
		c0.528,0,0.954-0.428,0.954-0.955v-3.436c0-0.205-0.069-0.412-0.192-0.576c-0.068-0.091-0.139-0.236-0.161-0.259
		c0.36-0.145,0.595-0.496,0.595-0.884v-8.353c0-0.258-0.116-0.513-0.298-0.693c-0.028-0.026-0.059-0.065-0.082-0.102
		c0.393-0.975,1.903-5.658,2.599-8.508c0.271,1.617,0.626,3.701,0.726,4.065c0.114,0.416,0.491,0.703,0.921,0.703h3.008
		c0.433,0,0.811-0.291,0.923-0.709l2.765-10.351l2.761,10.351c0.112,0.418,0.489,0.709,0.923,0.709h3.007
		c0.431,0,0.808-0.287,0.922-0.703c0.099-0.364,0.453-2.446,0.724-4.064c0.694,2.836,2.197,7.5,2.601,8.503
		c-0.022,0.033-0.05,0.069-0.073,0.091c-0.197,0.18-0.309,0.436-0.309,0.703v8.357c0,0.392,0.239,0.632,0.602,0.776
		c-0.002,0.07-0.085,0.257-0.164,0.361c-0.129,0.166-0.196,0.371-0.196,0.581v11.49c0,0.256,0.102,0.502,0.284,0.681
		c18.993,18.706,35.755,29.213,46.471,34.734c0.294,0.153,0.649,0.14,0.934-0.034c0.283-0.173,0.457-0.48,0.457-0.814v-5.177h8.193
		c0.527,0,0.955-0.427,0.955-0.954v-33.082h0.954c0.527,0,0.954-0.427,0.954-0.954v-1.909h11.934v1.909
		c0,0.527,0.427,0.954,0.955,0.954h2.387v23.867c0,0.527,0.427,0.954,0.955,0.954h5.217c0.371,0,0.71-0.216,0.867-0.553l0.332-0.718
		h4.093c0.261,0,0.509-0.108,0.69-0.295c0.179-0.188,0.273-0.44,0.265-0.701c-1.003-23.494-1.223-57.067,3.411-83.587
		c5.882-33.656,18.333-46.817,18.518-47.015c1.234-1.546,2.83-2.967,3.348-2.983h1.337c0.515,0.017,2.112,1.44,3.41,3.052
		c0.125,0.129,12.573,13.29,18.454,46.946c6.719,38.44,3.225,91.629,1.996,107.016c-0.023,0.266,0.067,0.528,0.248,0.723
		c0.182,0.196,0.436,0.309,0.701,0.309h7.233c0.528,0,0.955-0.427,0.955-0.955v-5.567l8.87-0.396
		c0.509-0.025,0.912-0.444,0.912-0.954v-19.094h2.707v5.929c0,0.528,0.427,0.955,0.955,0.955h7.399v4.453
		c0,0.526,0.427,0.955,0.955,0.955h12.411c0.527,0,0.955-0.429,0.955-0.955v-3.826l8.579-3.72l7.969,3.702v4.799
		c0,0.526,0.427,0.953,0.955,0.953h4.483c0.362,0,0.692-0.204,0.854-0.527l4.8-9.615h9.479v8.155c0,0.527,0.427,0.955,0.953,0.955
		h2.698c0.528,0,0.955-0.428,0.955-0.955V413.87c0-0.082-0.011-0.166-0.032-0.243l-0.832-3.141v-2.881
		c0-0.306-0.146-0.593-0.394-0.772l-0.167-0.12v-20.752c0.094-0.322,0.263-1.035,0.211-1.825c0.088,0.023,0.159,0.029,0.28,0.035
		c0.502-0.012,0.91-0.408,0.932-0.909l0.198-4.239l1.296-2.784c0.03-0.061,0.063-0.181,0.078-0.248
		c0.032-0.145,0.024-0.294-0.015-0.434v-3.851c0.021,0.008,0.043,0.015,0.063,0.021c0.19,0.049,0.466,0.127,1.7-0.28
		c0.271-0.089,0.489-0.296,0.591-0.564l3.259-8.502c0.112-0.293,0.073-0.623-0.104-0.883c-0.065-0.095-0.147-0.177-0.24-0.242
		v-0.016c0.246-0.173,0.408-0.458,0.408-0.783v-8.804c0.33-0.15,0.559-0.483,0.559-0.869v-2.536c0.309-0.082,0.567-0.313,0.67-0.634
		c0.158-0.496,3.9-12.21,4.781-18.23l0.056-1.504l0.062,1.607c0.867,5.918,4.613,17.632,4.771,18.128
		c0.103,0.319,0.36,0.552,0.667,0.632v2.538c0,0.388,0.229,0.72,0.562,0.87v8.803c0,0.325,0.163,0.61,0.409,0.783v0.016
		c-0.093,0.065-0.177,0.147-0.241,0.242c-0.177,0.26-0.216,0.59-0.104,0.883l3.258,8.502c0.103,0.268,0.318,0.475,0.591,0.564
		c1.24,0.409,1.518,0.327,1.703,0.278c0.021-0.005,0.043-0.013,0.063-0.021v3.885c-0.034,0.143-0.035,0.294-0.007,0.436
		c0.015,0.075,0.039,0.147,0.071,0.214l1.294,2.784l0.194,4.237c0.023,0.503,0.432,0.899,0.934,0.911
		c0.102-0.003,0.193-0.012,0.281-0.035c-0.055,0.79,0.115,1.503,0.209,1.825v20.752l-0.166,0.12
		c-0.248,0.18-0.394,0.467-0.394,0.772v2.881l-0.834,3.141c-0.02,0.077-0.031,0.161-0.031,0.243v59.243
		c0,0.224,0.078,0.44,0.222,0.613l1.02,1.218c0.184,0.218,0.45,0.343,0.733,0.343h6.871l0.054,6.69c0,0.528,0.427,0.955,0.955,0.955
		h3.341c0.528,0,0.955-0.427,0.955-0.955v-34.368h6.205c0,0.527,0.428,0.954,0.955,0.954h0.477v33.414
		c0,0.528,0.429,0.955,0.955,0.955h4.296c0.528,0,0.955-0.427,0.955-0.955v-13.365h11.456v13.365c0,0.528,0.427,0.955,0.955,0.955
		h9.069c0.527,0,0.955-0.427,0.955-0.955v-19.094h3.455v-1.909h-4.41c-0.527,0-0.954,0.427-0.954,0.955v19.093h-7.16v-13.365
		c0-0.527-0.427-0.955-0.955-0.955h-13.366c-0.526,0-0.954,0.428-0.954,0.955v13.365h-2.387v-33.413
		c0-0.528-0.427-0.955-0.955-0.955h-0.477c0-0.527-0.427-0.955-0.955-0.955h-8.115c-0.527,0-0.954,0.428-0.954,0.955v34.368h-1.432
		l-0.006-5.353l-0.156-1.44c-0.053-0.484-0.463-0.852-0.95-0.852h-7.276l-0.512-0.611v-58.772l0.833-3.14
		c0.021-0.078,0.032-0.162,0.032-0.244v-2.518l0.166-0.122c0.248-0.18,0.393-0.466,0.393-0.772v-21.383
		c0-0.103-0.018-0.211-0.05-0.308c-0.095-0.281-0.291-1.146-0.059-1.747c0.326-0.863-0.008-1.739-0.485-2.227
		c-0.271-0.277-0.595-0.443-0.929-0.486l-0.106-2.304c-0.006-0.123-0.036-0.244-0.088-0.358l-1.258-2.682v-9.543
		c0-0.142-0.03-0.273-0.086-0.395c0.061-0.063,0.115-0.133,0.16-0.209c0.125-0.22,0.156-0.481,0.088-0.726
		c-0.105-0.379-0.256-0.814-0.53-1.159v-1.121c0-0.528-0.427-0.955-0.954-0.955h-0.457c-0.527,0-0.955,0.427-0.955,0.955v1.164
		c-0.218,0.276-0.396,0.639-0.535,1.087c-0.076,0.244-0.051,0.507,0.071,0.731c0.033,0.066,0.076,0.125,0.125,0.18
		c-0.071,0.135-0.112,0.285-0.112,0.447v2.206l-2.229-5.822c0.091-0.148,0.146-0.321,0.146-0.509v-1.581
		c0-0.323-0.162-0.608-0.408-0.782v-8.891c0-0.388-0.23-0.72-0.563-0.871l-0.005-6.656l-0.254-2.548
		c-0.046-0.473-0.437-0.841-0.913-0.858c-0.498,0.005-0.893,0.32-0.976,0.788l-0.201,1.177c-1.165-3.961-2.622-9.262-3.099-12.502
		l-0.187-4.947c0.293-0.359,0.654-0.953,0.615-1.663c-0.024-0.441-0.213-1.068-0.949-1.61c-0.015-0.023-0.032-0.045-0.049-0.068
		v-1.45l0.431-0.122c0.507-0.141,0.805-0.667,0.662-1.174c-0.224-0.806-0.529-1.665-1.093-2.223v-2.59
		c0-0.527-0.427-0.954-0.954-0.954h-0.916c-0.527,0-0.954,0.427-0.954,0.954v2.674c-0.56,0.58-0.908,1.434-1.112,2.11
		c-0.073,0.242-0.046,0.506,0.073,0.729c0.121,0.224,0.324,0.39,0.569,0.462l0.47,0.14v1.501c-0.748,0.546-0.938,1.18-0.963,1.621
		c-0.039,0.712,0.323,1.306,0.618,1.663l-0.181,4.842c-0.483,3.298-1.94,8.617-3.104,12.589l-0.205-1.158
		c-0.082-0.468-0.521-0.783-0.975-0.788c-0.479,0.018-0.867,0.386-0.914,0.858l-0.262,2.643v6.564
		c-0.329,0.149-0.559,0.483-0.559,0.869v8.891c-0.247,0.174-0.409,0.459-0.409,0.782v1.581c0,0.188,0.055,0.36,0.146,0.509
		l-2.234,5.827v-2.211c0-0.158-0.039-0.31-0.107-0.439c0.207-0.235,0.296-0.567,0.204-0.89c-0.104-0.381-0.256-0.814-0.529-1.159
		v-1.121c0-0.528-0.428-0.955-0.954-0.955h-0.457c-0.528,0-0.955,0.427-0.955,0.955v1.164c-0.271,0.341-0.438,0.758-0.537,1.1
		c-0.104,0.347,0.002,0.706,0.242,0.945c-0.055,0.123-0.087,0.257-0.087,0.4v9.52l-1.261,2.705
		c-0.053,0.111-0.082,0.234-0.088,0.358l-0.107,2.304c-0.332,0.045-0.655,0.211-0.925,0.484c-0.479,0.487-0.812,1.365-0.485,2.229
		c0.229,0.6,0.032,1.464-0.063,1.742c-0.032,0.1-0.052,0.207-0.052,0.313v21.383c0,0.307,0.146,0.593,0.395,0.772l0.166,0.122v2.518
		c0,0.082,0.011,0.166,0.03,0.244l0.834,3.14v52.272h-0.789v-8.156c0-0.528-0.427-0.955-0.955-0.955h-11.022
		c-0.362,0-0.692,0.205-0.854,0.528l-4.8,9.616h-2.938v-4.453c0-0.371-0.217-0.708-0.552-0.865l-8.911-4.14
		c-0.25-0.115-0.534-0.119-0.783-0.012l-9.547,4.141c-0.35,0.15-0.575,0.496-0.575,0.876v3.498h-10.501v-4.453
		c0-0.527-0.427-0.954-0.955-0.954h-7.401v-5.93c0-0.528-0.426-0.954-0.953-0.954h-4.617c-0.528,0-0.955,0.426-0.955,0.954v19.135
		l-8.87,0.396c-0.509,0.022-0.911,0.442-0.911,0.953v5.527h-5.246c1.298-16.666,4.518-68.624-2.099-106.466
		c-5.995-34.313-18.439-47.408-18.904-47.88c-0.891-1.111-3.142-3.699-4.84-3.699h-1.337c-1.697,0-3.949,2.588-4.777,3.63
		c-0.525,0.541-12.972,13.636-18.969,47.949c-4.6,26.314-4.451,59.466-3.481,83.001h-3.707c-0.37,0-0.711,0.217-0.866,0.554
		l-0.332,0.718h-3.653V434.96c0-0.528-0.427-0.955-0.954-0.955h-2.387v-1.909c0-0.528-0.428-0.955-0.955-0.955h-13.843
		c-0.528,0-0.954,0.427-0.954,0.955v1.909h-0.955c-0.528,0-0.955,0.427-0.955,0.955v33.081h-8.193c-0.527,0-0.955,0.428-0.955,0.955
		v4.554c-9.025-4.801-25.636-15.044-44.326-33.391v-10.805c0.216-0.373,0.484-1.016,0.3-1.693c-0.069-0.256-0.221-0.57-0.541-0.843
		v-7.464c0.396-0.533,0.584-1.248,0.232-1.885c-0.384-0.824-2.809-8.638-2.809-9.737c0-0.306-0.146-0.58-0.369-0.753v-0.332h0.002
		c0.528,0,0.955-0.427,0.955-0.955v-0.574c0-0.527-0.427-0.955-0.955-0.955l-0.002-1.123c0-0.526-0.427-0.953-0.955-0.953h-0.572
		c-0.527,0-0.955,0.427-0.955,0.953v1.123c-0.516,0.014-0.93,0.437-0.93,0.955v0.574c0,0.519,0.414,0.941,0.93,0.955v0.391
		c-0.146,0.141-0.251,0.326-0.285,0.539c-0.304,1.863-0.648,3.912-0.843,4.977h-1.491l-2.976-11.153v-0.608
		c0.125-0.302,0.246-0.772,0.052-1.237c-0.07-0.175-0.179-0.328-0.313-0.451v-5.719c0.203-0.175,0.332-0.435,0.332-0.724v-0.573
		c0-0.289-0.129-0.55-0.332-0.725v-0.171c0-0.528-0.427-0.955-0.955-0.955h-0.574c-0.527,0-0.955,0.427-0.955,0.955v0.226
		c-0.17,0.172-0.273,0.408-0.273,0.67v0.573c0,0.262,0.103,0.498,0.273,0.669v5.902c-0.08,0.097-0.145,0.205-0.193,0.326
		c-0.19,0.464-0.071,0.934,0.056,1.235v0.607l-2.978,11.153h-1.491c-0.194-1.065-0.539-3.114-0.846-4.977
		c-0.033-0.213-0.138-0.398-0.284-0.539v-0.391c0.516-0.014,0.93-0.436,0.93-0.955v-0.574c0-0.519-0.414-0.941-0.93-0.955v-1.123
		c0-0.526-0.429-0.953-0.955-0.953h-0.571c-0.527,0-0.954,0.427-0.954,0.953v1.123h-0.002c-0.528,0-0.955,0.428-0.955,0.955v0.574
		c0,0.528,0.427,0.955,0.955,0.955l0.002,0.328c-0.229,0.175-0.373,0.449-0.373,0.757c0,1.108-2.422,8.914-2.79,9.707
		c-0.365,0.658-0.179,1.38,0.215,1.917v7.462c-0.32,0.272-0.472,0.587-0.541,0.843c-0.185,0.678,0.084,1.32,0.3,1.693v2.196h-37.235
		v-13.294c0-0.528-0.427-0.955-0.955-0.955h-0.571c-0.527,0-0.954,0.427-0.954,0.955v13.294h-7.33v-0.048
		c0-0.362-0.202-0.68-0.5-0.84v-0.593c0-0.25-0.099-0.479-0.261-0.648c-0.443-0.571-0.897-0.658-1.282-0.684
		c-0.463,0.008-0.917,0.254-1.241,0.668c-0.166,0.172-0.27,0.407-0.27,0.664v0.478h-0.097v-0.691c0-0.363-0.204-0.68-0.504-0.843
		c0.001-0.013,0.001-0.026,0.001-0.041v-0.574c0-0.336-0.174-0.63-0.436-0.8c-0.132-0.369-0.484-0.632-0.898-0.632h-0.574
		c-0.421,0-0.778,0.271-0.905,0.65c-0.245,0.173-0.406,0.459-0.406,0.781v0.574c0,0.019,0.001,0.036,0.003,0.055
		c-0.289,0.164-0.483,0.474-0.483,0.829v0.691h-0.31v-0.478c0-0.189-0.057-0.377-0.164-0.533c-0.467-0.693-1.018-0.816-1.391-0.818
		c-0.814,0.02-1.277,0.72-1.361,0.859c-0.089,0.15-0.137,0.318-0.137,0.492v0.591c-0.298,0.162-0.501,0.478-0.501,0.842
		l-7.256,0.048v-13.294c0-0.528-0.427-0.955-0.954-0.955h-0.573c-0.526,0-0.954,0.427-0.954,0.955v13.294h-37.113v-2.196
		c0.216-0.373,0.484-1.016,0.3-1.693c-0.07-0.256-0.22-0.57-0.54-0.843v-7.464c0.394-0.535,0.583-1.249,0.23-1.885
		c-0.384-0.824-2.808-8.638-2.808-9.737c0-0.308-0.144-0.582-0.371-0.755v-0.33c0.528,0,0.955-0.427,0.955-0.955v-0.574
		c0-0.527-0.427-0.955-0.955-0.955v-1.123c0-0.526-0.427-0.953-0.955-0.953h-0.573c-0.528,0-0.955,0.427-0.955,0.953v1.123
		c-0.515,0.016-0.927,0.437-0.927,0.955v0.574c0,0.519,0.412,0.94,0.927,0.955v0.396c-0.146,0.14-0.247,0.323-0.281,0.534
		c-0.306,1.863-0.653,3.912-0.846,4.977h-1.492l-2.976-11.153v-0.608c0.126-0.302,0.246-0.772,0.055-1.237
		c-0.073-0.175-0.18-0.328-0.315-0.451v-5.719c0.204-0.175,0.332-0.435,0.332-0.724v-0.573c0-0.289-0.128-0.55-0.332-0.725v-0.171
		c0-0.528-0.428-0.955-0.954-0.955h-0.575c-0.526,0-0.953,0.427-0.953,0.955v0.223c-0.172,0.173-0.276,0.411-0.276,0.673v0.573
		c0,0.262,0.104,0.5,0.276,0.671v5.9c-0.08,0.095-0.146,0.205-0.194,0.324c-0.191,0.465-0.072,0.934,0.054,1.235v0.608
		l-2.977,11.153h-1.49c-0.194-1.065-0.539-3.114-0.843-4.977c-0.035-0.213-0.139-0.398-0.286-0.539v-0.391
		c0.517-0.014,0.931-0.436,0.931-0.955v-0.574c0-0.519-0.414-0.941-0.931-0.955v-1.123c0-0.526-0.427-0.953-0.955-0.953h-0.574
		c-0.526,0-0.954,0.427-0.954,0.953v1.123c-0.527,0-0.955,0.428-0.955,0.955v0.574c0,0.528,0.428,0.955,0.955,0.955v0.332
		c-0.225,0.173-0.37,0.447-0.37,0.753c0,1.105-2.425,8.913-2.796,9.711c-0.358,0.658-0.173,1.378,0.22,1.911v7.464
		c-0.319,0.272-0.47,0.587-0.539,0.843c-0.188,0.676,0.083,1.32,0.297,1.691v10.406c-23.02,22.704-42.986,33.179-50.308,36.554
		v-3.337c0-0.528-0.427-0.955-0.955-0.955h-13.961l-1.315,0.054v-14.481c0-0.528-0.427-0.955-0.954-0.955h-0.783l-0.869-1.74
		c-0.163-0.322-0.493-0.527-0.854-0.527h-9.428c-0.434,0-0.814,0.294-0.924,0.715l-0.403,1.553h-0.581
		c-0.528,0-0.955,0.427-0.955,0.955v22.916h-1.111v-27.93c0-0.526-0.428-0.954-0.955-0.954h-15.752
		c-0.528,0-0.955,0.428-0.955,0.954v0.478h-2.863c-0.528,0-0.955,0.427-0.955,0.954v19.485h-10.747
		c-0.527,0-0.955,0.428-0.955,0.954v8.831H823.68c-0.527,0-0.954,0.428-0.954,0.955v2.939h-9.092c-0.528,0-0.955,0.427-0.955,0.954
		v2.71l-10.27,0.591c-0.407-6.196-2.945-41.15-9.866-65.144c-0.118-0.407-0.492-0.689-0.917-0.689h-2.815
		c-0.425,0-0.799,0.282-0.918,0.689c-6.938,24.064-9.474,59.148-9.869,65.195H749.94v-3.961c0-0.527-0.427-0.954-0.954-0.954h-14.85
		v-5.251c0-0.528-0.427-0.955-0.955-0.955h-7.637v-6.686c0-0.528-0.428-0.955-0.955-0.955h-3.249
		c-0.642-0.919-1.619-1.7-2.837-2.262v-1.558c0-2.633-2.143-4.772-4.773-4.772c-2.633,0-4.773,2.14-4.773,4.772v1.839
		c-0.943,0.526-1.705,1.199-2.242,1.98h-3.605h-3.955v-11.325H697.154"/>
	<path fill="none" stroke="#FFFFFF" stroke-width="2" d="M1254.154,129.896c0-7.455-6.044-13.5-13.5-13.5
		c-1.595,0-3.12,0.291-4.54,0.799c0.012-0.266,0.04-0.529,0.04-0.799c0-9.941-8.059-18-18-18c-0.153,0-0.302,0.02-0.455,0.023
		c0.299-1.461,0.455-2.974,0.455-4.523c0-12.426-10.074-22.5-22.5-22.5c-12.427,0-22.5,10.074-22.5,22.5
		c0,1.758,0.223,3.461,0.604,5.104c-1.643-0.381-3.346-0.604-5.104-0.604c-12.427,0-22.5,10.074-22.5,22.5s10.073,22.5,22.5,22.5h72
		C1248.11,143.396,1254.154,137.352,1254.154,129.896z"/>
	<path fill="none" stroke="#FFFFFF" stroke-width="2" d="M719.035,269.279c0-5.263,4.268-9.529,9.53-9.529
		c1.126,0,2.202,0.205,3.205,0.564c-0.008-0.189-0.029-0.373-0.029-0.564c0-7.018,5.69-12.707,12.707-12.707
		c0.108,0,0.213,0.014,0.321,0.017c-0.21-1.031-0.321-2.1-0.321-3.193c0-8.771,7.111-15.883,15.883-15.883
		c8.772,0,15.883,7.111,15.883,15.883c0,1.241-0.156,2.443-0.426,3.603c1.159-0.269,2.362-0.426,3.604-0.426
		c8.771,0,15.883,7.111,15.883,15.883c0,8.772-7.111,15.884-15.883,15.884h-50.826C723.302,278.81,719.035,274.543,719.035,269.279z
		"/>
	<path fill="none" stroke="#FFFFFF" stroke-width="2" d="M1141.393,304.866c0-5.263-4.268-9.529-9.53-9.529
		c-1.126,0-2.202,0.205-3.205,0.563c0.008-0.188,0.029-0.373,0.029-0.563c0-7.018-5.689-12.707-12.707-12.707
		c-0.108,0-0.213,0.014-0.321,0.017c0.21-1.031,0.321-2.1,0.321-3.193c0-8.771-7.111-15.883-15.883-15.883
		c-8.772,0-15.883,7.111-15.883,15.883c0,1.241,0.156,2.443,0.426,3.603c-1.159-0.269-2.362-0.426-3.604-0.426
		c-8.771,0-15.883,7.111-15.883,15.882c0,8.773,7.111,15.885,15.883,15.885h50.826
		C1137.125,314.397,1141.393,310.13,1141.393,304.866z"/>
	<path fill="none" stroke="#FFFFFF" stroke-width="1.412" d="M640.449,91.964c0-3.716-3.013-6.728-6.727-6.728
		c-0.795,0-1.555,0.146-2.263,0.399c0.006-0.133,0.019-0.264,0.019-0.399c0-4.953-4.016-8.969-8.969-8.969
		c-0.077,0-0.151,0.009-0.227,0.011c0.147-0.728,0.227-1.481,0.227-2.253c0-6.193-5.021-11.212-11.212-11.212
		c-6.193,0-11.213,5.019-11.213,11.212c0,0.876,0.11,1.724,0.301,2.543c-0.818-0.191-1.667-0.301-2.543-0.301
		c-6.192,0-11.212,5.02-11.212,11.212c0,6.192,5.02,11.213,11.212,11.213h35.879C637.436,98.692,640.449,95.679,640.449,91.964z"/>
	<path fill="none" stroke="#FFFFFF" stroke-width="2" d="M1031.654,148.896c0-12.426-10.074-22.5-22.5-22.5
		c-1.758,0-3.461,0.223-5.103,0.604c0.381-1.643,0.603-3.346,0.603-5.104c0-12.426-10.072-22.5-22.5-22.5
		c-9.208,0-17.112,5.537-20.596,13.459c-3.746-2.789-8.374-4.459-13.404-4.459c-1.758,0-3.461,0.223-5.103,0.604
		c0.381-1.643,0.603-3.346,0.603-5.104c0-12.426-10.072-22.5-22.5-22.5c-12.426,0-22.5,10.074-22.5,22.5
		c0,1.549,0.157,3.063,0.455,4.523c-0.152-0.004-0.301-0.023-0.455-0.023c-9.94,0-18,8.059-18,18c0,0.27,0.029,0.533,0.04,0.799
		c-1.42-0.508-2.943-0.799-4.54-0.799c-7.456,0-13.5,6.045-13.5,13.5s6.044,13.5,13.5,13.5h48.285c-0.499,1.41-0.785,2.92-0.785,4.5
		c0,7.455,6.044,13.5,13.5,13.5h72C1021.58,171.396,1031.654,161.322,1031.654,148.896z"/>
	<path fill="none" stroke="#FFFFFF" stroke-width="2" d="M415.838,352.277c-5.511,1.58-8.696,7.327-7.116,12.837"/>
	<path fill="none" stroke="#FFFFFF" stroke-width="2" d="M395.885,357.999c5.51-1.58,11.257,1.604,12.837,7.115"/>
	<path fill="none" stroke="#FFFFFF" stroke-width="2" d="M517.463,326.006c-5.51-1.58-11.257,1.605-12.837,7.115"/>
	<path fill="none" stroke="#FFFFFF" stroke-width="2" d="M497.51,320.284c5.511,1.58,8.696,7.327,7.116,12.837"/>
	<path fill="none" stroke="#FFFFFF" stroke-width="2" d="M1255.382,227.006c-5.51-1.58-11.257,1.604-12.837,7.115"/>
	<path fill="none" stroke="#FFFFFF" stroke-width="2" d="M1235.429,221.284c5.51,1.58,8.696,7.327,7.116,12.837"/>
</g>
</svg>
