<?xml version="1.0" encoding="utf-8"?>
<!-- Generator: Adobe Illustrator 19.0.0, SVG Export Plug-In . SVG Version: 6.00 Build 0)  -->
<svg version="1.1" id="Layer_1" xmlns="http://www.w3.org/2000/svg" xmlns:xlink="http://www.w3.org/1999/xlink" x="0px" y="0px"
	 viewBox="0 0 179 121.9" style="enable-background:new 0 0 179 121.9;" xml:space="preserve">
<style type="text/css">
	.st0{clip-path:url(#XMLID_45_);fill:none;stroke:#383839;stroke-width:4.015;stroke-miterlimit:10;}
	.st1{fill:none;stroke:#383839;stroke-width:4.015;stroke-miterlimit:10;}
	.st2{fill:none;stroke:#2E65B0;stroke-width:4.015;stroke-miterlimit:10;}
	.st3{fill:none;stroke:#ED2024;stroke-width:4.015;stroke-miterlimit:10;}
</style>
<g id="XMLID_1_">
	<g id="XMLID_12_">
		<defs>
			<rect id="XMLID_13_" x="1.6" width="177.4" height="121.9"/>
		</defs>
		<clipPath id="XMLID_45_">
			<use xlink:href="#XMLID_13_"  style="overflow:visible;"/>
		</clipPath>
		<path id="XMLID_14_" class="st0" d="M155.8,21l11.4,11.4 M129.1,70.5l-15.2,3.8l3.8-15.2l46.8-46.8c1.5-1.5,3.9-1.5,5.4,0l6,6
			c1.5,1.5,1.5,3.9,0,5.4L129.1,70.5z M148.2,62.9v34.2h-41.8c-7.4,0-12.4,2.1-15.2,7.6h-7.6V24.8C83.5,12.5,90.9,2,106.3,2h41.8
			v15.2 M18.8,2v95.1h41.8c7.4,0,12.4,3.8,15.2,7.6h7.6V24.8C83.5,12.5,76.1,2,60.7,2H18.8z M11.2,9.6H3.6v102.7h57.1l7.6,7.6h30.4
			l7.6-7.6h57.1V47.7"/>
	</g>
	<line id="XMLID_11_" class="st1" x1="117.2" y1="59.1" x2="127.8" y2="69.8"/>
	<line id="XMLID_10_" class="st1" x1="123.8" y1="64.4" x2="161.2" y2="26.9"/>
	<line id="XMLID_9_" class="st2" x1="27.4" y1="18.2" x2="68.9" y2="18.2"/>
	<line id="XMLID_8_" class="st3" x1="27.4" y1="31.3" x2="68.9" y2="31.3"/>
	<line id="XMLID_7_" class="st2" x1="27.4" y1="44.5" x2="68.9" y2="44.5"/>
	<line id="XMLID_6_" class="st2" x1="27.4" y1="57.6" x2="68.9" y2="57.6"/>
	<line id="XMLID_5_" class="st2" x1="27.4" y1="70.7" x2="68.9" y2="70.7"/>
	<line id="XMLID_4_" class="st2" x1="27.4" y1="83.8" x2="68.9" y2="83.8"/>
</g>
</svg>
