<svg id="Layer_1" xmlns="http://www.w3.org/2000/svg" xmlns:xlink="http://www.w3.org/1999/xlink" viewBox="0 0 35.1 35.1"><style>.st0{clip-path:url(#XMLID_137_)}.st1{fill:#7851a1}</style><defs><path id="XMLID_1_" d="M0 0h35.1v35.1H0z"/></defs><clipPath id="XMLID_137_"><use xlink:href="#XMLID_1_" overflow="visible"/></clipPath><g class="st0"><path id="XMLID_5_" class="st1" d="M10.4 18.3c-.6-.6-1.6-.7-2.2-.1-.6.6-.7 1.6-.1 2.2l4.7 5.1c.6.6 1.6.7 2.2.1.1-.1.2-.2.3-.4l11-13c.5-.7.3-1.7-.4-2.2-.7-.5-1.7-.3-2.2.4L14.1 22l-3.7-3.7z"/></g><g class="st0"><path id="XMLID_2_" class="st1" d="M17.6 35.1C7.9 35.1 0 27.2 0 17.6 0 7.9 7.9 0 17.6 0s17.6 7.9 17.6 17.6c-.1 9.6-8 17.5-17.6 17.5zm0-32.9C9.1 2.2 2.2 9.1 2.2 17.6S9.1 33 17.6 33s15.3-7 15.3-15.4c0-8.5-6.9-15.4-15.3-15.4z"/></g></svg>