<?xml version="1.0" encoding="utf-8"?>
<!-- Generator: Adobe Illustrator 19.0.0, SVG Export Plug-In . SVG Version: 6.00 Build 0)  -->
<svg version="1.1" id="Layer_1" xmlns="http://www.w3.org/2000/svg" xmlns:xlink="http://www.w3.org/1999/xlink" x="0px" y="0px"
	 viewBox="0 0 30 30" style="enable-background:new 0 0 30 30;" xml:space="preserve">
<style type="text/css">
	.st0{clip-path:url(#XMLID_20_);fill:none;stroke:#383839;stroke-width:0.5815;stroke-miterlimit:10;}
	.st1{clip-path:url(#XMLID_20_);fill:none;stroke:#383839;stroke-width:0.5815;stroke-linejoin:round;stroke-miterlimit:10;}
	.st2{clip-path:url(#XMLID_20_);fill:none;stroke:#383839;stroke-width:0.5815;stroke-linecap:round;stroke-miterlimit:10;}
	.st3{fill:#ED2024;}
	.st4{fill:#F3F2F4;}
	.st5{fill:#2E65B0;}
	.st6{fill:#204199;}
	.st7{fill:#FAFBF8;}
</style>
<g id="XMLID_18_">
	<g>
		<defs>
			<rect id="XMLID_9_" x="0" y="5.7" width="30" height="18.6"/>
		</defs>
		<clipPath id="XMLID_20_">
			<use xlink:href="#XMLID_9_"  style="overflow:visible;"/>
		</clipPath>
		<path id="XMLID_15_" class="st0" d="M1.6,9.8h2.6V7.3 M13.2,6H3.7L0.3,9.4v13.8c0,0.5,0.4,0.9,0.9,0.9h12"/>
		<path id="XMLID_12_" class="st0" d="M10.5,9.8h2.6V7.3 M23,9.3V6.8C23,6.4,22.6,6,22.1,6h-9.5L9.2,9.4v13.8c0,0.5,0.4,0.9,0.9,0.9
			h12c0.5,0,0.9-0.4,0.9-0.9v-4"/>
		<path id="XMLID_11_" class="st1" d="M19.5,18.7c-0.7-1.2-0.5-3.3-0.2-4l0.7-0.2c0,0-0.2-1.1,0.6-2.1c1-1.2,3.8-3.7,9.1-4
			c-2,2.2-3.3,5.9-3.7,6.4c-0.7,0.5-1.4,0.8-1.4,0.8l0.6,0.6C25.2,16.3,21.7,19.3,19.5,18.7z"/>
		<path id="XMLID_10_" class="st2" d="M25.6,11.4c-4.1,3.1-6.2,7-7,9.6"/>
	</g>
	<rect id="XMLID_8_" x="5.8" y="18.2" class="st3" width="1.9" height="3.9"/>
	<rect id="XMLID_7_" x="3.9" y="18.2" class="st4" width="1.9" height="3.9"/>
	<rect id="XMLID_6_" x="2" y="18.2" class="st5" width="1.9" height="3.9"/>
	<polygon id="XMLID_5_" class="st6" points="10.6,18.2 13.5,18.2 16.4,18.2 16.4,22.1 13.5,22.1 10.6,22.1 	"/>
	<polygon id="XMLID_4_" class="st7" points="16.4,21.6 14.3,20.1 16.4,18.7 16.4,18.2 15.7,18.2 13.5,19.7 11.4,18.2 10.6,18.2 
		10.6,18.7 12.8,20.1 10.6,21.6 10.6,22.1 11.4,22.1 13.5,20.6 15.7,22.1 16.4,22.1 	"/>
	<polygon id="XMLID_3_" class="st3" points="16.4,21.9 13.8,20.1 16.4,18.4 16.4,18.2 16.2,18.2 13.5,19.9 10.9,18.2 10.6,18.2 
		10.6,18.4 13.3,20.1 10.6,21.9 10.6,22.1 10.9,22.1 13.5,20.3 16.2,22.1 16.4,22.1 	"/>
	<polygon id="XMLID_2_" class="st7" points="13.1,18.2 13.5,18.2 14,18.2 14,19.5 16.4,19.5 16.4,20.8 14,20.8 14,22.1 13.5,22.1 
		13.1,22.1 13.1,20.8 10.6,20.8 10.6,19.5 13.1,19.5 	"/>
	<polygon id="XMLID_1_" class="st3" points="13.8,18.2 13.8,19.7 16.4,19.7 16.4,20.5 13.8,20.5 13.8,22.1 13.5,22.1 13.2,22.1 
		13.2,20.5 10.6,20.5 10.6,19.7 13.2,19.7 13.2,18.2 13.5,18.2 	"/>
</g>
</svg>
