<?xml version="1.0" encoding="utf-8"?>
<!-- Generator: Adobe Illustrator 19.0.0, SVG Export Plug-In . SVG Version: 6.00 Build 0)  -->
<svg version="1.1" id="Layer_1" xmlns="http://www.w3.org/2000/svg" xmlns:xlink="http://www.w3.org/1999/xlink" x="0px" y="0px"
	 viewBox="0 0 524.9 148.6" style="enable-background:new 0 0 524.9 148.6;" xml:space="preserve">
<style type="text/css">
	.st0{clip-path:url(#SVGID_2_);fill:none;stroke:#ED2024;stroke-width:4.307;stroke-linecap:round;stroke-miterlimit:10;}
	.st1{clip-path:url(#SVGID_2_);fill:none;stroke:#383839;stroke-width:3.612;stroke-linejoin:round;stroke-miterlimit:10;}
	.st2{clip-path:url(#SVGID_2_);fill:none;stroke:#383839;stroke-width:4.307;stroke-miterlimit:10;}
	.st3{clip-path:url(#SVGID_2_);fill:none;stroke:#383839;stroke-width:4.307;stroke-linecap:round;stroke-miterlimit:10;}
	.st4{clip-path:url(#SVGID_2_);fill:none;stroke:#204199;stroke-width:4.307;stroke-linecap:round;stroke-miterlimit:10;}
</style>
<g id="XMLID_1_">
	<g>
		<defs>
			<rect id="SVGID_1_" width="524.9" height="148.6"/>
		</defs>
		<clipPath id="SVGID_2_">
			<use xlink:href="#SVGID_1_"  style="overflow:visible;"/>
		</clipPath>
		<path class="st0" d="M479.9,107.4c-185.1-76.5-202.7-35.7-275.1-0.5c-140,68-153,5-153,5"/>
		<path class="st1" d="M68.9,12.8l-3.7,8.8 M92.2,36.1l-8.8,3.7 M92.2,68.9l-8.8-3.7 M12.8,68.9l8.8-3.7 M12.8,36.1l8.8,3.7
			 M36.1,12.8l3.7,8.8 M47.7,66.8h9.5 M52.5,85.9V66.8 M64.4,85.9v-4.8c0-4.3,1.5-8.3,4.5-11.3c4.5-4.6,7.4-10.3,7.4-17.3
			c0-13.2-10.7-23.9-23.9-23.9S28.6,39.3,28.6,52.5c0,7,2.9,12.7,7.4,17.3c3,3.1,4.5,7,4.5,11.3v4.8 M40.6,97.8h23.9 M38.2,90.7
			h28.6 M62,105h-2.4l-2.4,2.4h-4.8h-4.8l-2.4-2.4h-2.4 M89.6,15.4L76.1,28.9 M105,52.5H85.9 M89.6,89.6L76.1,76.1 M15.4,89.6
			l13.5-13.5 M0,52.5h19.1 M15.4,15.4l13.5,13.5 M52.5,0v19.1"/>
		<path class="st2" d="M472.7,89.9c5.5-8.6,4.2-24.4,2.4-30.1l-5.3-1.4c0,0,1.5-8-4.4-15.8c-7.1-9.4-32-28-71.9-30.9
			c14.3,16.5,28.7,44.1,31.2,48.3c5.4,3.8,10.6,6.4,10.6,6.4l-4.9,4.6C430.4,71,456.4,94.1,472.7,89.9z"/>
		<path class="st3" d="M428.6,35c30,23.6,45.3,53.1,51.2,72.4"/>
		<polyline class="st2" points="437.8,15.3 441.2,3.5 522.2,26.6 492.6,130.3 411.6,107.1 421.7,71.8 		"/>
		<path class="st4" d="M60.7,111.9c0,0,22,54,81,27s99-117,338-32"/>
	</g>
</g>
</svg>
